<?xml version="1.0" encoding="utf-8"?>
<!-- Generator: Adobe Illustrator 15.0.0, SVG Export Plug-In . SVG Version: 6.00 Build 0)  -->
<!DOCTYPE svg PUBLIC "-//W3C//DTD SVG 1.1//EN" "http://www.w3.org/Graphics/SVG/1.1/DTD/svg11.dtd">
<svg version="1.1" id="Layer_1" xmlns="http://www.w3.org/2000/svg" xmlns:xlink="http://www.w3.org/1999/xlink" x="0px" y="0px"
	 width="480px" height="360px" viewBox="0 0 480 360" enable-background="new 0 0 480 360" xml:space="preserve">
<g id="fixed">
	<rect fill="#E3FEFF" width="480" height="360"/>
	<path fill="#8EDCEF" d="M0,173.878l480-11.375v-41.061l-28.733,5.041c0,0-57.002-28.337-73.463-27.633
		c-16.46,0.704-62.34,21.584-72.081,19.703c-9.741-1.881-65.641-25.641-65.641-25.641s-86.709,30.201-94.796,35.592
		c-8.087,5.392-70.767-20.219-77.506-26.285c-5.55-4.995-50.557,7.812-67.779,12.866V173.878z"/>
	<path fill="#B2EFF9" d="M465.61,103.186c0.519-12.45-113.641,35.16-128.917,36.058c-15.277,0.899-74.098-25.239-100.2-20.792
		c-26.103,4.446-41.191,25.408-57.508,26.858c-16.318,1.45-45.558-25.551-54.8-28.909c-8.45-3.071-99.681,13.499-124.185,18.422
		v109.304h480V129.2C471.013,125.605,465.091,115.635,465.61,103.186"/>
	<path fill="#DCFAFF" d="M0,256.126h480v-95.448c-13.696-3.316-45.049-11.592-48.4-9.078
		c-3.595,2.696-106.834,18.776-124.338,14.749c-17.504-4.027-41.147-20.899-45.641-20c-4.493,0.898-104.249,23.955-119.526,23.056
		s-107.84-37.744-107.84-37.744S11.301,145.29,0,150.758V256.126z"/>
	<rect x="0.082" y="211.119" fill="#56BCDB" width="479.918" height="148.881"/>
	<path fill="#78DEEF" d="M292.964,235.344c30.76-24.901,132.643-18.191,187.036-17.491v-10.286L0,200.545V360h259.649
		c31.587-10.591,57.295-28.022,58.443-51.836C320.144,265.6,260.656,261.497,292.964,235.344"/>
	<path fill="#FFFFFF" d="M290.564,226.144C321.783,200.872,426.26,208.159,480,208.679v-10.842
		c-12.559-2.234-57.887-9.87-97.641-11.18c-46.667-1.538-78.461,7.179-124.553,8.7c-46.093,1.52-49.806-16.392-97.498-17.418
		C115.131,176.967,45.57,200.379,0,200.307v153.662c19.902,1.214,65.029,3.911,107.434,6.031h111.561
		c46.25-7.248,95.106-28,96.698-61.036C317.743,256.399,258.256,252.297,290.564,226.144"/>
</g>
<g>
	<g>
		<path fill="#78DEEF" d="M462.025,242.034c0,5.301-3.624,10.699-13.399,10.699c-9.775,0-21.999-5.398-21.999-10.699
			c0-2.227-0.597-6.104,1.4-7.2c2.759-1.515,9.129-2.7,14.799-2.7c6.507,0,14.521,1.233,18.099,3.3
			C462.723,236.472,462.025,240.261,462.025,242.034"/>
		<path fill="#FFFFFF" d="M462.025,237.634c0-5.302-9.624-7-19.399-7c-9.774,0-15.999,1.698-15.999,7
			c0,5.301,12.224,10.699,21.999,10.699C458.401,248.333,462.025,242.935,462.025,237.634"/>
	</g>
	<path fill="#B2EFF9" d="M427.458,249.264c-0.024,0-0.049-0.001-0.073-0.005c-6.135-0.887-10.257-3.492-10.257-6.482
		c0-1.99,1.733-3.795,4.879-5.082c0.257-0.107,0.552,0.018,0.658,0.275s-0.018,0.552-0.275,0.657
		c-2.703,1.106-4.254,2.618-4.254,4.149c0,2.43,3.863,4.685,9.394,5.484c0.275,0.04,0.466,0.295,0.427,0.571
		C427.919,249.083,427.704,249.264,427.458,249.264z M423.85,250.803c0.044-0.275-0.144-0.533-0.419-0.577
		c-6.409-1.019-10.885-3.927-10.885-7.073c0-2.001,1.808-3.962,4.959-5.379c0.254-0.114,0.367-0.412,0.253-0.666
		s-0.413-0.367-0.667-0.253c-3.582,1.611-5.554,3.848-5.554,6.299c0,3.71,4.716,6.953,11.735,8.068
		c0.027,0.004,0.053,0.006,0.08,0.006C423.596,251.228,423.81,251.052,423.85,250.803z"/>
</g>
<g>
	<path fill="#78DEEF" d="M383.996,257.308c14.934,1.576,10.32,11.391,30.404,13.492c20.4-0.4,18,30.4,3.585,31.162
		c-15.964,1.576-5.665,19.438-36.048,17.337c-38.18-4.108-25.749-35.2-40.168-34.674C329.6,285.2,330,253.2,349.6,258.4
		C368.654,260.501,369.062,255.731,383.996,257.308"/>
	<path fill="#FFFFFF" d="M384.185,251.989c14.872,1.539,8.718,13.334,28.718,15.385s21.025,26.667,5.128,28.205
		c-15.897,1.539-5.641,18.974-35.897,16.923c-30.256-2.051-27.326-33.412-40-33.847c-14.359,0.513-9.23-25.128,9.744-23.077
		S369.313,250.451,384.185,251.989"/>
	<path fill="#B2EFF9" d="M420.029,307.188c11.349-1.98,19.275-9.213,19.275-17.588c0-4.016-1.792-7.816-5.184-10.991
		c-0.204-0.19-0.522-0.18-0.712,0.023c-0.19,0.204-0.18,0.522,0.023,0.712c3.183,2.979,4.865,6.525,4.865,10.255
		c0,7.876-7.583,14.701-18.44,16.595c-0.274,0.048-0.458,0.309-0.41,0.583c0.042,0.245,0.255,0.417,0.496,0.417
		C419.97,307.196,420,307.193,420.029,307.188z M426.392,310.768c12.332-3.079,20.479-11.632,19.811-20.799
		c-0.319-4.393-2.594-8.408-6.578-11.611c-0.218-0.175-0.535-0.14-0.708,0.077c-0.175,0.217-0.14,0.534,0.077,0.708
		c3.76,3.024,5.905,6.792,6.204,10.899c0.632,8.669-7.202,16.79-19.05,19.748c-0.27,0.067-0.434,0.341-0.367,0.611
		c0.058,0.229,0.263,0.382,0.489,0.382C426.31,310.783,426.351,310.778,426.392,310.768z"/>
</g>
<path fill="#FFFFFF" d="M162,35.6c0-7.069-5.731-12.8-12.8-12.8c-7.069,0-12.8,5.731-12.8,12.8c0,7.069,5.731,12.8,12.8,12.8
	C156.269,48.4,162,42.669,162,35.6"/>
</svg>
