<?xml version="1.0" encoding="utf-8"?>
<!-- Generator: Adobe Illustrator 15.0.0, SVG Export Plug-In . SVG Version: 6.00 Build 0)  -->
<!DOCTYPE svg PUBLIC "-//W3C//DTD SVG 1.1//EN" "http://www.w3.org/Graphics/SVG/1.1/DTD/svg11.dtd">
<svg version="1.1" id="Layer_1" xmlns="http://www.w3.org/2000/svg" xmlns:xlink="http://www.w3.org/1999/xlink" x="0px" y="0px"
	 width="238px" height="442px" viewBox="0 0 238 442" enable-background="new 0 0 238 442" xml:space="preserve">
<g id="Astronaut.svg">
	<path id="Shoe_and_Gloves" fill="#D8D8D8" d="M44.969,242.93c0.81,1.618,2.009,17.61,2.652,27.569
		c0.644,9.958-8.409,5.576-8.648,3.664c1.447,10.791-6.541,7.791-6.541,7.791s-7.99,5.038-10.171-2.767c0,0-3.474,1.011-6.609-3.934
		c-2.944-4.645-2.491-30.809-2.015-32.875C26.041,234.805,40.681,239.241,44.969,242.93z M191.21,234.529
		c-0.513,1.808-2.138,14.855-2.209,18.777c-0.217,12.078,8.517,6.107,8.517,6.107s0.227,5.021,0.19,7.059
		c-0.035,2.035,3.582,10.41,10.267,4.728c0,0,6.694,2.78,9.313-3.603c1.356,1.645,5.026-0.541,6.524-5.531
		c1.498-4.991-0.508-30.521-5.18-35.684C213.57,223.697,191.723,232.723,191.21,234.529z M52.925,397.664
		c0,0-3.078,0.417-7.588,1.757c-4.51,1.337-3.175,6.083-3.324,14.582c-0.148,8.5,17.103,7.855,31.98,7.879
		c14.876,0.024,15.925-5.862,18.621-11.479c2.696-5.623,0.42-24.081,0.42-24.081s-8.524,1.268-17.516,2.292
		c-8.992,1.023-20.527-1.067-23.559-3.245L52.925,397.664z M126.652,406.093c-0.819,6.361,8.959,14.324,15.72,19.402
		s19.753,4.83,29.688,3.824c9.936-1.01,9.803-6.914,9.471-14.95c-0.332-8.034-10.682-10.341-10.682-10.341l0.66-10.853
		c0,0-9.523,4.557-20.626,4.603c-11.1,0.043-18.649-1.271-23.819-2.777C127.062,395.001,126.23,399.668,126.652,406.093z"/>
	<path id="Suit" fill="#FFFFFF" d="M34.91,123.619L34.91,123.619c-2.734-5.292-6.147-14.02-4.679-22.618
		c1.187-6.951,4.012-10.022,6.721-11.406l0.001,0.003l0.943,31.138L34.91,123.619z M141.723,28.292
		c-9.699-9.766-23.062-15.909-37.914-16.168C87.876,11.846,73.412,18.4,63.214,29.087v0.002l-5.15,0.052
		c-12.303,0.006-22.272,9.983-22.267,22.287l0.792,26.169l-0.002-0.007c-7.531,2.801-16.926,14.845-16.357,29.076
		c0.464,11.591,5.439,21.241,8.428,26.048l0,0c-1.645,3.327-2.952,7.097-3.777,11.403c-5.837,30.484-12.907,95.9-12.623,97.465
		c0.285,1.564,7.203-1.432,17.794-0.312c10.592,1.119,14.96,1.195,14.96,1.195s11.691-61.904,12.326-62.516
		c0.635-0.612-2.615,22.201-1.442,44.382c0,17.334-2,26-1.333,35.334c-2.611,6.511,0.22,42.103-2.679,50.798
		c-2.899,8.695-4.654,28.202-2.987,39.202s2.51,36.44,3.417,38.016c0.909,1.576,10.953,5.308,24.992,5.551
		c14.04,0.244,15.392-0.36,15.424-2.23c0.033-1.872,3.218-40.7,5.619-53.143c2.401-12.443,9.135-44.679,10.701-44.964
		c1.565-0.285,8.709,1.713,8.709,1.713s-1.17,13.397,2.039,26.251c3.208,12.854,7.025,26.649,6.896,34.141
		c-0.131,7.487-1.305,38.989,0.541,40.582c1.847,1.592,17.424,3.112,28.055,2.049c10.629-1.062,19.08-2.476,18.549-7.791
		c-0.529-5.314-3.355-22.217-1.945-31.555c1.41-9.339,0.073-22.159-0.692-31.85c-0.767-9.688-1.325-49.333-3.06-57.165
		c-1.736-7.832,0.439-25.271,0.252-32.453s-0.688-49.945,0.553-49.611c1.242,0.335,9.695,16.709,14.793,28.657
		c5.098,11.951,5.568,20.699,7.765,20.113c2.194-0.588,28.835-6.99,29.2-10.104s-10.543-57.609-25.719-82.217
		c-8.86-14.367-17.071-23.297-24.978-28.412l0.074-0.944l2.981-66.63c-0.006-12.303-6.694-19.505-19-19.5L141.723,28.292
		L141.723,28.292z"/>
	<path id="StrapsBox" fill="#FFFFFF" d="M102.874,122.306c13.824,0,26.925-4.972,37.229-14.055
		c0.224,5.569-5.482,18.505-33.33,18.988c-30.042,0.521-39.184-12.102-39.488-17.611c9.461,7.712,21.462,12.44,34.585,12.669
		C102.208,122.303,102.539,122.306,102.874,122.306z M186.761,130.299c-1.639,0.12-18.534,12.34-18.534,12.34l10.282,13.24
		l16.749-13.766C195.258,142.113,190.909,133.229,186.761,130.299z M133.908,149.599c0.01-0.003,0.023-0.004,0.033-0.008
		c4.978-2.259,24.316-39.738,24.316-39.738s-4.668-3.067-9.587-1.101c-1.216,1.234-16.819,32.845-21.089,37.913l-0.331,0.441
		l-35.26-0.166c-14.289-14.689-29.098-37.487-29.098-37.487s-6.002-1.734-9.203,1.467c-0.528,1.265,21.108,28.959,32.129,41.05
		l0.002-0.071c-0.002,0.023-0.005,0.047-0.007,0.07c-0.004,0.046-0.008,0.092-0.012,0.138c-0.007,0.1-0.012,0.201-0.014,0.304
		l-0.126,7.263c-12.782,0.273-16.257,18.543-17.175,34.968c-0.926,16.55-13.83,14.791-13.83,14.791s-2.73,5.041-0.21,9.241
		c0.21,1.26,21.502-0.668,21.841-20.094c0.337-19.315,2.29-28.592,9.197-28.698l-0.112,6.424c-0.054,3.075,2.396,5.61,5.471,5.665
		l37.916,0.177c3.076,0.054,5.612-2.396,5.666-5.471l0.416-23.895c0.021-1.178-0.324-2.276-0.933-3.188L133.908,149.599z"/>
	<path id="Helmetinner" fill="#1D2A54" d="M101.363,36.134c-30.474-0.532-45.037,15.692-45.885,17.051
		c-0.8,1.282-1.079,14.824-1.503,38.982c5.161,10.615,25.786,29.146,47.674,29.528c19.955,0.348,37.599-10.021,47.453-25.801
		l-0.729-46.857C148.373,49.037,131.836,36.665,101.363,36.134z"/>
	<path id="Face" fill="#FFFFFF" d="M73.466,42.854c-3.685,6.513-5.919,15.367-6.125,27.127c-0.148,8.524,0.55,15.7,4.396,23.516
		c6.176,12.553,18.913,23.965,30.19,24.162c11.276,0.197,24.578-10.08,31.056-23.346c3.481-7.129,5.013-13.882,5.172-23.096
		c0.215-12.204-2.065-21.506-6.084-28.343c-7.584-2.591-17.821-4.916-30.484-5.137C89.727,37.538,80.432,39.885,73.466,42.854z"/>
	<path id="Hair" fill="#CC0000" d="M73.468,41.854c-3.678,6.501-5.912,16.334-6.125,28.062c3.472-13.878,15.527-27.54,37.45-27.158
		c20.801,0.363,30.212,19.254,33.314,29.74c0.015-0.431,0.041-0.841,0.047-1.282c0.214-12.204-2.066-22.506-6.084-29.343
		c-7.584-2.591-17.822-4.916-30.485-5.137C89.728,36.538,80.433,38.885,73.468,41.854z"/>
	<path id="FaceBorder" fill="#212121" d="M65.717,69.953c-0.151,8.69,0.566,16.142,4.563,24.261
		c5.898,11.988,18.985,24.849,31.62,25.069l0.348,0.003c11.602,0,25.443-10.43,32.195-24.261c3.625-7.424,5.172-14.313,5.336-23.781
		c-0.004,0.278-0.016,0.546-0.027,0.814l-0.02,0.491c-0.025,0.797-2.978,1.106-3.184,0.409c-0.02-0.063-0.042-0.137-0.062-0.203
		c-0.293,8.159-1.766,14.293-4.967,20.844c-6.244,12.791-18.83,22.437-29.273,22.437l-0.291-0.002
		c-9.958-0.174-22.323-10.171-28.76-23.255c-3.688-7.493-4.365-14.475-4.231-22.635c-0.014,0.055-0.031,0.111-0.045,0.167
		c-0.201,0.802-3.216,0.402-3.201-0.424"/>
	<path id="HairBorder" fill="#212121" d="M134.332,43.678c-0.475-0.178-0.961-0.354-1.46-0.531c-0.129-0.046-0.265-0.09-0.396-0.136
		c-0.371-0.129-0.744-0.257-1.127-0.385c-0.186-0.062-0.377-0.121-0.563-0.182c-0.339-0.11-0.679-0.22-1.027-0.329
		c-0.014-0.004-0.028-0.009-0.043-0.013c3.647,5.486,5.878,12.626,6.584,21.308c-4.631-9.51-14.021-21.974-31.478-22.279
		c-0.311-0.005-0.616-0.008-0.923-0.008c-17.346,0-28.335,8.433-34.132,18.495c1.043-7.164,3.09-13.074,6.124-17.732
		c-0.077,0.029-0.156,0.057-0.232,0.086c-0.16,0.061-0.319,0.121-0.477,0.182c-0.387,0.151-0.768,0.303-1.142,0.458
		c-0.13,0.054-0.259,0.108-0.388,0.163c-0.392,0.166-0.778,0.332-1.156,0.501c-0.085,0.038-0.168,0.077-0.253,0.115
		c-0.412,0.187-0.817,0.375-1.211,0.565c-0.001,0.001-0.003,0.001-0.005,0.002c-3.121,6.364-5.107,14.797-5.309,25.926
		c-0.015,0.826,0.592,1.532,1.411,1.64c0.813,0.111,1.589-0.415,1.79-1.216c3.18-12.71,14.284-26.294,35.845-25.928
		c21.759,0.38,29.83,21.969,31.785,28.577c0.206,0.697,0.846,1.164,1.557,1.164c0.069,0,0.141-0.004,0.209-0.013
		c0.791-0.102,1.393-0.763,1.416-1.56l0.021-0.491c0.014-0.268,0.021-0.536,0.027-0.814
		C139.973,60.168,138.084,50.902,134.332,43.678z"/>
	<path fill="#7DD841" d="M113.59,159.534c0.836,0,1.514,0.678,1.514,1.514s-0.678,1.514-1.514,1.514s-1.514-0.678-1.514-1.514
		S112.754,159.534,113.59,159.534z M113.59,164.694c0.836,0,1.514,0.678,1.514,1.514s-0.678,1.514-1.514,1.514
		s-1.514-0.678-1.514-1.514S112.754,164.694,113.59,164.694z"/>
	<path id="yellowDot" fill="#E0D72F" d="M112.076,171.369c0-0.836,0.678-1.514,1.514-1.514c0.836,0,1.514,0.678,1.514,1.514
		c0,0.836-0.678,1.514-1.514,1.514C112.754,172.883,112.076,172.205,112.076,171.369"/>
	<path id="SuitBorder" fill="#212121" d="M93.459,173.847v-14.038c0-0.897,0.728-1.625,1.625-1.625s1.625,0.728,1.625,1.625v14.038
		c0,0.897-0.728,1.625-1.625,1.625S93.459,174.744,93.459,173.847z M100.658,175.472c0.897,0,1.625-0.728,1.625-1.625v-14.038
		c0-0.897-0.728-1.625-1.625-1.625c-0.897,0-1.625,0.728-1.625,1.625v14.038C99.033,174.744,99.761,175.472,100.658,175.472z
		 M106.232,175.472c0.897,0,1.625-0.728,1.625-1.625v-14.038c0-0.897-0.728-1.625-1.625-1.625s-1.625,0.728-1.625,1.625v14.038
		C104.607,174.744,105.334,175.472,106.232,175.472z M77.755,269.111c-0.891-0.112-1.697,0.539-1.797,1.432
		c-0.101,0.893,0.541,1.696,1.432,1.797c7.758,0.878,18.713,6.532,22.541,11.637c0.319,0.426,0.807,0.649,1.301,0.649
		c0.339,0,0.681-0.104,0.974-0.325c0.718-0.537,0.863-1.557,0.325-2.273C98.192,276.242,86.384,270.087,77.755,269.111z
		 M135.811,276.721c-10.074,3.771-11.652,8.286-11.8,8.788c-0.252,0.861,0.242,1.765,1.104,2.017
		c0.152,0.045,0.306,0.064,0.457,0.064c0.703,0,1.352-0.46,1.559-1.169c0.01-0.032,1.358-3.489,9.821-6.657
		c0.84-0.312,1.267-1.25,0.952-2.091C137.587,276.831,136.652,276.404,135.811,276.721z M171.742,114.478l2.945-66.812
		c-0.006-13.424-7.52-21.124-20.643-21.124l-11.686,0.119l-0.006,0.005c-9.949-9.772-23.506-15.905-38.519-16.167
		c-15.266-0.256-29.65,5.496-40.501,16.148c-0.272,0.268-0.542,0.538-0.809,0.81l0.012,0.014l-4.477,0.045
		c-13.179,0.006-23.896,10.733-23.89,23.961l0.759,25.058l-0.003-0.004c-2.234,1.041-4.541,2.743-6.709,5
		c-6.385,6.646-9.979,16.067-9.613,25.201c0.458,11.443,5.097,20.95,8.211,26.11l-0.026-0.012
		c-1.524,3.252-2.725,6.899-3.506,10.982c-5.496,28.704-13.084,95.534-12.625,98.062c0.07,0.387,0.326,1.144,1.247,1.539
		l0.007-0.008c0,0-0.001-0.001-0.002-0.001c-0.402,5.936-0.672,27.927,2.369,32.722c2.449,3.862,5.221,4.668,6.85,4.763
		c1.539,3.699,4.455,4.291,6.16,4.291c2.203,0,4.305-0.933,5.342-1.475c0.517,0.127,1.248,0.257,2.065,0.257
		c1.814,0,3.333-0.642,4.395-1.854c0.929-1.061,1.473-2.527,1.63-4.385c1.013,0.432,2.116,0.688,3.102,0.688l0,0
		c1.507,0,2.805-0.534,3.753-1.547c1.293-1.38,1.853-3.558,1.665-6.472c-0.713-11.025-1.726-24.373-2.629-27.646
		c-0.001,0.007-0.002,0.014-0.004,0.021c1.554-8.229,3.402-17.937,5.187-27.207c0,0,0,0,0,0.001
		c0.108,1.236,0.445,2.528,1.159,3.779c0.221,0.547,0.674,0.848,1.162,1.023l-0.005-0.002c0.04,1.324,0.089,2.648,0.159,3.97
		c0,8.508-0.477,14.804-0.898,20.357c-0.424,5.592-0.76,10.035-0.455,14.744c-1.251,3.746-1.233,13.142-1.213,23.961
		c0.019,10.475,0.041,22.345-1.362,26.556c-2.836,8.507-4.83,28.229-3.052,39.959c0.854,5.635,1.482,15.006,2.037,23.272
		c0.519,7.737,0.803,11.587,1.109,13.563l0,0l0.751,9.562c-1.369,0.261-3.583,0.74-6.313,1.554
		c-4.737,1.402-4.643,5.746-4.523,11.243c0.031,1.445,0.067,3.087,0.036,4.866c-0.033,1.91,0.621,3.562,1.945,4.908
		c4.205,4.279,14.463,4.628,26.442,4.628l4.292-0.005l1.018,0.001c14.405,0,16.874-5.494,19.26-10.807
		c0.238-0.531,0.478-1.065,0.733-1.6c2.713-5.658,0.952-21.76,0.603-24.691l0,0c0.878-11.034,3.35-38.32,5.265-48.243
		c3.026-15.687,8.201-39.397,9.97-43.646c1.386,0.141,4.059,0.766,6.132,1.309c-0.209,3.773-0.504,14.699,2.174,25.423
		c0.436,1.747,0.884,3.512,1.332,5.275c2.766,10.906,5.625,22.188,5.516,28.441c-0.021,1.171-0.065,2.931-0.123,5.069
		c-0.617,23.667-0.414,32.107,0.432,35.23v-0.005c-0.208,1.435-0.688,5.509-0.355,10.783c-0.733,6.928,8.353,14.717,16.375,20.743
		c4.183,3.142,10.945,4.733,20.104,4.733c3.232,0,6.842-0.198,10.727-0.594c11.568-1.173,11.244-9.032,10.93-16.634
		c-0.305-7.372-7.531-10.486-10.604-11.479l0.48-7.878l0.002,0.005c1.69-1.284,2.647-2.984,2.419-5.271
		c-0.105-1.056-0.301-2.562-0.535-4.375c-0.943-7.292-2.521-19.497-1.422-26.774c1.281-8.48,0.346-19.782-0.406-28.862
		c-0.095-1.151-0.188-2.273-0.273-3.355c-0.269-3.381-0.51-10.454-0.791-18.646c-0.539-15.716-1.146-33.527-2.303-38.743
		c-1.089-4.91-0.543-14.234-0.104-21.729c0.248-4.225,0.461-7.869,0.395-10.416c-0.226-8.66-0.438-35.273-0.005-45.229
		c2.937,5.098,8.242,15.601,12.232,24.952c2.303,5.396,3.655,10.172,4.645,13.656c0.857,3.025,1.456,5.136,2.31,6.322l0.005-0.002
		c0-0.002-0.001-0.002-0.001-0.003c-0.715,4.54-1.764,13.612-1.82,16.804c-0.064,3.68,0.631,6.209,2.131,7.736
		c0.965,0.982,2.246,1.501,3.708,1.501c0.991,0,1.954-0.233,2.778-0.532c0.055,1.543,0.107,3.42,0.09,4.461
		c-0.025,1.562,1.072,4.395,2.896,6.246c1.338,1.361,2.937,2.08,4.625,2.08l0,0c1.541,0,3.115-0.59,4.691-1.754
		c0.708,0.196,1.752,0.41,2.943,0.41c2.922,0,5.277-1.299,6.775-3.695c0.15,0.021,0.306,0.031,0.461,0.031l0,0
		c2.735-0.001,5.633-3.041,6.893-7.23c1.497-4.987-0.04-26.244-3.996-34.756c-0.001,0.002-0.002,0.002-0.004,0.004l0.006-0.002
		c0.818-0.715,0.883-1.252,0.938-1.719c0.42-3.576-10.504-57.936-25.777-82.977c0.363-0.48,0.455-1.125,0.181-1.686
		c-0.185-0.378-4.583-9.293-9.018-12.427c-0.31-0.217-0.685-0.322-1.058-0.293l-0.123,0.013c-4.873-6.076-9.75-10.774-14.709-14.159
		 M147.717,95.255c-9.639,15.112-26.682,25.112-45.789,24.792c-20.023-0.35-37.296-11.789-46.07-28.345l0,0
		c0.321-18.298,0.628-35.485,1.292-37.733c0.505-0.615,4.941-5.692,13.877-10.01c0.001-0.001,0.003-0.001,0.005-0.002
		c0.394-0.19,0.799-0.378,1.211-0.565c0.084-0.038,0.167-0.077,0.253-0.115c0.377-0.169,0.764-0.336,1.156-0.501
		c0.129-0.055,0.258-0.108,0.388-0.163c0.375-0.155,0.755-0.307,1.142-0.458c0.158-0.062,0.317-0.122,0.477-0.182
		c0.378-0.144,0.759-0.286,1.15-0.425c0.179-0.063,0.361-0.125,0.542-0.188c0.388-0.134,0.776-0.267,1.175-0.396
		c0.191-0.061,0.388-0.12,0.581-0.18c0.404-0.126,0.807-0.252,1.224-0.373c0.125-0.036,0.257-0.069,0.383-0.105
		c0.784-0.222,1.592-0.431,2.418-0.63c0.321-0.077,0.637-0.157,0.963-0.23c0.325-0.073,0.66-0.14,0.991-0.209
		c0.363-0.076,0.725-0.152,1.095-0.224c0.328-0.063,0.664-0.121,0.998-0.18c0.389-0.068,0.778-0.136,1.175-0.199
		c0.334-0.053,0.673-0.102,1.012-0.151c0.413-0.059,0.829-0.116,1.25-0.168c0.339-0.043,0.681-0.083,1.026-0.122
		c0.44-0.049,0.886-0.093,1.335-0.135c0.339-0.032,0.678-0.063,1.022-0.09c0.479-0.038,0.967-0.068,1.457-0.098
		c0.329-0.02,0.654-0.042,0.988-0.057c0.547-0.025,1.105-0.041,1.665-0.056c0.289-0.007,0.573-0.02,0.865-0.024
		c0.857-0.013,1.725-0.014,2.61,0c0.848,0.015,1.685,0.04,2.511,0.073c0.278,0.011,0.549,0.028,0.825,0.042
		c0.543,0.026,1.087,0.051,1.621,0.085c0.324,0.02,0.64,0.046,0.96,0.069c0.476,0.034,0.952,0.067,1.419,0.107
		c0.337,0.029,0.667,0.062,1.001,0.094c0.439,0.042,0.879,0.083,1.312,0.129c0.339,0.036,0.671,0.076,1.005,0.115
		c0.417,0.049,0.833,0.098,1.244,0.15c0.333,0.043,0.66,0.089,0.988,0.135c0.401,0.056,0.801,0.112,1.196,0.172
		c0.323,0.049,0.642,0.1,0.96,0.151c0.389,0.063,0.775,0.126,1.158,0.192c0.312,0.054,0.62,0.109,0.927,0.166
		c0.377,0.069,0.752,0.139,1.123,0.211c0.301,0.059,0.602,0.119,0.896,0.179c0.365,0.075,0.726,0.151,1.082,0.229
		c0.291,0.062,0.58,0.126,0.864,0.191c0.354,0.08,0.703,0.162,1.05,0.244c0.276,0.066,0.555,0.132,0.828,0.2
		c0.346,0.086,0.688,0.173,1.025,0.262c0.26,0.067,0.521,0.134,0.773,0.203c0.344,0.092,0.678,0.186,1.012,0.28
		c0.242,0.068,0.486,0.136,0.728,0.205c0.339,0.098,0.668,0.198,0.998,0.298c0.224,0.067,0.447,0.133,0.665,0.201
		c0.35,0.108,0.688,0.219,1.027,0.329c0.188,0.061,0.379,0.121,0.562,0.182c0.385,0.127,0.756,0.256,1.127,0.385
		c0.131,0.045,0.268,0.09,0.396,0.136c7.688,2.711,12.494,5.641,14.141,6.729L147.717,95.255z M159.538,108.859
		c-0.106-0.138-0.233-0.263-0.388-0.364c-0.125-0.083-3.127-2.026-7.004-2.026c-1.42,0-2.793,0.261-4.078,0.774
		c-0.207,0.083-0.396,0.208-0.555,0.368c-0.027,0.028-0.058,0.06-0.088,0.097l-5.523-0.102c0.158-0.151,0.313-0.304,0.472-0.458
		c8.239-8.087,13.678-18.292,15.834-29.406c-1.313,6.715-3.834,13.156-7.478,18.99c5.397-8.646,8.347-18.622,8.523-28.851
		c0.252-14.495-5.013-27.826-13.855-37.984l0.018-0.018l8.663-0.088c11.19,0,17.356,6.349,17.362,17.803l-2.863,64.939l-0.021-0.03
		C165.591,110.838,162.592,109.627,159.538,108.859L159.538,108.859z M158.943,112.064c8.412,2.181,16.468,8.085,24.6,18.083l0,0
		c-0.038,0.022-0.077,0.046-0.115,0.069c-0.074,0.045-0.429,0.261-0.533,0.326c-0.062,0.039-0.121,0.075-0.188,0.116
		c-0.175,0.109-0.551,0.346-0.551,0.346c-0.19,0.121-0.391,0.248-0.598,0.381c-0.076,0.049-0.158,0.104-0.236,0.154
		c-0.139,0.089-0.609,0.397-0.704,0.459c-0.14,0.092-0.279,0.183-0.425,0.279c-0.109,0.072-0.623,0.414-0.771,0.513
		c-0.113,0.076-0.67,0.451-0.837,0.563c-0.124,0.083-1.167,0.794-1.306,0.889c-0.18,0.124-0.842,0.579-0.99,0.682
		c-0.197,0.136-0.902,0.626-1.055,0.732c-0.213,0.148-0.979,0.684-1.146,0.8c-0.217,0.153-1.024,0.723-1.212,0.854
		c-0.238,0.169-1.09,0.772-1.271,0.903c-0.26,0.185-0.529,0.377-0.799,0.569c-0.19,0.136-1.215,0.869-1.541,1.103
		c-0.154,0.111-0.304,0.217-0.459,0.331c-0.496,0.357-1.007,0.724-1.531,1.104c-0.356,0.258-0.594,0.65-0.655,1.086
		c-0.063,0.437,0.055,0.88,0.325,1.228l10.281,13.24c0.27,0.346,0.668,0.569,1.104,0.618c0.061,0.007,0.121,0.01,0.181,0.01
		c0.375,0,0.74-0.13,1.032-0.369l14.49-11.91l0,0c14.347,23.935,24.904,74.799,25.056,80.222c-0.823,0.761-5.071,3.171-26.76,8.64
		c-0.267,0.067-0.499,0.126-0.693,0.175c-0.45-0.857-1.067-3.035-1.622-4.988c-1.012-3.568-2.396-8.458-4.781-14.046
		c-2.407-5.645-5.731-12.669-8.894-18.791c-0.015-0.029-0.03-0.059-0.045-0.088l0.001,0.002c5.193-1.812,8.787-3.462,8.952-3.538
		c0.813-0.376,1.17-1.342,0.794-2.156c-0.376-0.816-1.341-1.169-2.157-0.795c-0.04,0.019-3.813,1.754-9.116,3.578
		c-0.44-0.825-0.843-1.561-1.209-2.217v-0.002c6.332-1.623,13.631-6.991,13.975-7.245c0.721-0.534,0.871-1.552,0.338-2.272
		c-0.533-0.721-1.553-0.874-2.271-0.339c-0.082,0.061-7.988,5.872-13.767,6.913v0.001c-0.642-1.014-1.101-1.62-1.451-1.992
		l-0.001-0.002c-3.045-11.204-11.025-26.225-15.454-28.992c-0.761-0.475-1.764-0.245-2.237,0.517
		c-0.478,0.761-0.244,1.764,0.517,2.239c3.383,2.114,11.075,16.265,14.017,26.999c-0.414,1.618-0.713,6.353-0.713,22.781
		c0,11.352,0.167,23.449,0.26,27.035c0.063,2.408-0.155,6.164-0.39,10.142c-0.474,8.097-1.012,17.271,0.175,22.621
		c1.09,4.923,1.721,23.349,2.228,38.151c0.101,2.938,0.196,5.73,0.291,8.268c-0.035,0-0.07,0.001-0.106,0.003
		c-7.82,0.491-19.712,0.004-19.831-0.002c-0.922-0.031-1.653,0.66-1.69,1.557c-0.037,0.897,0.66,1.653,1.557,1.691
		c0.325,0.013,5.509,0.225,11.294,0.225c2.994,0,6.149-0.057,8.875-0.227l0.175,3.293v-0.001
		c-8.963,0.504-23.238,1.454-23.384,1.465c-0.896,0.062-1.573,0.834-1.515,1.729c0.059,0.856,0.771,1.517,1.621,1.517
		c0.035,0,0.072-0.001,0.107-0.004c0.146-0.01,14.405-0.959,23.352-1.463l0,0c0.018,0.262,0.035,0.509,0.055,0.739
		c0.086,1.087,0.18,2.212,0.275,3.365c0.004,0.057,0.008,0.109,0.014,0.165v0.001c-6.051,0.539-15.93,1.945-16.031,1.961
		c-0.888,0.127-1.505,0.95-1.379,1.84c0.116,0.811,0.811,1.396,1.607,1.396c0.076,0,0.152-0.005,0.23-0.017
		c0.102-0.017,9.878-1.407,15.837-1.939v-0.001c0.456,5.721,0.872,12.016,0.72,17.709c-5.023,0.042-12.547,0.481-12.879,0.501
		c-0.896,0.053-1.58,0.821-1.527,1.718c0.051,0.863,0.767,1.529,1.621,1.529c0.031,0,0.062-0.001,0.097-0.003
		c0.08-0.005,7.573-0.442,12.532-0.492c-0.096,1.302-0.229,2.556-0.408,3.744c-1.168,7.729,0.447,20.218,1.413,27.679
		c0.229,1.773,0.42,3.248,0.522,4.28c0.394,3.933-8.617,5.166-17.094,6.013c-2.297,0.23-4.921,0.349-7.8,0.349
		c-9.534,0-17.334-1.213-18.869-1.921c-1.069-3.371-0.483-25.768-0.262-34.313c0.056-2.152,0.103-3.921,0.123-5.098
		c0.116-6.689-2.668-17.672-5.615-29.298c-0.446-1.763-0.894-3.521-1.328-5.267c-3.102-12.424-2.008-25.584-1.997-25.716
		c0.068-0.777-0.428-1.495-1.181-1.706c-0.659-0.185-6.506-1.8-8.764-1.8c-0.263,0-0.49,0.021-0.674,0.054
		c-1.302,0.238-2.088,0.384-6.33,19.163c-2.108,9.334-4.419,20.586-5.674,27.091c-2.379,12.325-5.608,51.179-5.648,53.422
		c0,0.021-0.001,0.035-0.002,0.052c-0.558,0.304-2.555,0.636-8.627,0.636c-1.488,0-3.193-0.02-5.142-0.052
		c-13.268-0.229-22.197-3.571-23.587-4.747c-0.342-1.433-0.785-8.036-1.178-13.895c-0.559-8.331-1.192-17.772-2.066-23.543
		c-0.12-0.792-0.221-1.627-0.306-2.498l-0.158-0.052c0.182,0.07,0.379,0.109,0.584,0.109c0.06,0,0.121-0.003,0.182-0.012
		c8.787-0.976,22.585-0.686,22.722-0.682c0.013,0,0.024,0,0.037,0c0.881,0,1.604-0.704,1.624-1.589
		c0.02-0.897-0.691-1.643-1.588-1.661c-0.574-0.011-14.15-0.298-23.154,0.701c-0.167,0.019-0.324,0.062-0.469,0.125h0.002
		c-0.087-1.777-0.117-3.653-0.096-5.579c9.323-0.041,16.705-0.495,16.782-0.5c0.896-0.057,1.576-0.828,1.52-1.724
		c-0.056-0.896-0.823-1.575-1.723-1.521c-0.075,0.005-7.321,0.451-16.498,0.494v0.001c0.064-1.688,0.164-3.39,0.294-5.079v-0.001
		c9.602,0.015,18.656,0.328,18.749,0.331c0.02,0.001,0.039,0.001,0.058,0.001c0.871,0,1.592-0.69,1.623-1.568
		c0.031-0.896-0.67-1.647-1.567-1.681c-0.092-0.003-9.021-0.313-18.573-0.333c0.637-6.312,1.677-12.126,2.878-15.731
		c1.571-4.714,1.55-16.342,1.529-27.588c-0.019-9.951-0.038-20.242,1.116-23.119c0.092-0.229,0.13-0.475,0.113-0.721
		c-0.329-4.6,0.006-9.02,0.43-14.613c0.425-5.61,0.907-11.974,0.905-20.688c-0.066-1.248-0.113-2.499-0.151-3.75
		c6.056-0.709,20.257-5.316,20.545-21.89c0.303-17.361,1.95-25.138,5.913-26.771l-0.077,4.439c-0.069,3.965,3.101,7.248,7.087,7.318
		l37.895,0.177c0.01,0,0.119,0.001,0.128,0.001c3.896,0,7.124-3.171,7.19-7.068l0.416-23.895c0.018-0.959-0.152-1.893-0.494-2.759
		c5.834-5.552,18.689-29.765,22.918-37.885L158.943,112.064z M193.214,141.689l-14.446,11.873l-8.225-10.591
		c6.62-4.755,13.661-9.585,15.951-10.813C189.033,134.381,191.799,139.025,193.214,141.689z M218.619,229.43
		c3.404,7.455,4.883,28.021,3.638,32.17c-0.872,2.903-2.43,4.371-3.338,4.786c-0.032-4.634-0.62-10.729-1.196-13.559
		c-0.181-0.879-1.037-1.45-1.918-1.267c-0.879,0.179-1.445,1.037-1.267,1.916c0.571,2.799,1.175,9.324,1.131,13.771h0.002
		c-0.894,1.97-2.346,2.929-4.428,2.929c-0.517,0-1-0.062-1.41-0.14h0.001c0.387-5.582-0.473-18.599-0.511-19.181
		c-0.06-0.895-0.827-1.574-1.729-1.512c-0.896,0.059-1.572,0.834-1.514,1.729c0.01,0.145,0.941,14.245,0.479,19.183v0.001
		c-1.076,0.839-2.065,1.263-2.951,1.263l0,0c-0.81,0-1.586-0.373-2.309-1.107c-1.297-1.318-1.973-3.366-1.964-3.912
		c0.031-1.831-0.135-5.88-0.181-6.918c-0.006-0.133-0.01-0.217-0.01-0.24l0.01,0.239c0.98-3.972,0.718-10.462,0.707-10.742
		c-0.039-0.896-0.773-1.629-1.693-1.554c-0.896,0.038-1.592,0.796-1.554,1.691c0.003,0.062,0.237,5.836-0.517,9.397
		c-0.699,0.381-1.863,0.892-2.881,0.892c-0.594,0-1.033-0.168-1.389-0.529c-0.477-0.483-1.266-1.83-1.201-5.4
		c0.057-3.052,1.057-11.556,1.709-15.9l0.787-0.199C193.122,237.236,214.997,231.127,218.619,229.43z M46,270.604
		c0.125,1.929-0.157,3.36-0.792,4.039c-0.328,0.351-0.78,0.521-1.382,0.521c-1.438,0-2.926-0.933-3.269-1.386
		c-0.824-4.473-0.962-12.252-0.963-12.332c-0.015-0.896-0.737-1.576-1.652-1.598c-0.897,0.017-1.613,0.756-1.598,1.651
		c0.006,0.332,0.145,8.159,1.022,12.896c0.455,3.41-0.139,4.912-0.717,5.573c-0.438,0.501-1.076,0.744-1.95,0.744
		c-0.456,0-0.879-0.069-1.188-0.14l-0.034,0.017c-1.761-2.831-3.043-8.315-2.732-11.905c0.077-0.896-0.585-1.683-1.479-1.761
		c-0.885-0.073-1.681,0.585-1.759,1.479c-0.305,3.52,0.679,9.09,2.632,12.881c-0.799,0.328-1.833,0.646-2.847,0.646
		c-1.105,0-2.667-0.33-3.463-3.181l-0.006-0.021c-1.205-4.105-1.259-9.475-1.259-9.526c-0.007-0.896-0.733-1.613-1.625-1.613
		c-0.004,0-0.008,0-0.012,0c-0.897,0.009-1.62,0.739-1.613,1.638c0.001,0.197,0.04,4.176,0.835,8.135
		c-0.891-0.375-1.998-1.205-3.121-2.977c-2.301-3.628-2.372-25.836-1.905-30.855c0.412-0.053,0.86-0.113,1.347-0.182
		c2.155-0.3,5.107-0.707,8.668-0.707c1.593,0,3.19,0.082,4.747,0.248c7.35,0.774,11.705,1.053,13.729,1.149l0,0
		C44.17,246.507,45.124,257.057,46,270.604z M61.89,110.885c2.233,3.379,14.481,21.657,26.804,34.944
		c-1.467,0.592-2.702,1.657-3.511,3.004c-10.755-12.132-26.67-32.653-29.515-37.404c0.918-0.544,2.122-0.819,3.593-0.819
		C60.347,110.609,61.314,110.767,61.89,110.885z M35.423,92.749l0.827,27.298c-0.293,0.264-0.583,0.532-0.871,0.806
		c-2.377-5.132-4.762-12.457-3.546-19.579c0.73-4.28,2.071-6.91,3.594-8.535L35.423,92.749z M138.376,110.72
		c-0.202,1.322-0.765,2.975-2.032,4.733c-2.63,3.648-9.972,9.82-29.598,10.16c-0.645,0.011-1.278,0.017-1.903,0.017
		c-0.002,0-0.003,0-0.005,0c-20.523,0-29.358-5.874-32.798-9.375c-1.433-1.458-2.282-2.861-2.731-4.037
		c9.123,6.772,20.362,10.866,32.563,11.078c0.336,0.006,0.667,0.009,1.002,0.009C115.935,123.306,128.354,118.871,138.376,110.72z
		 M132.801,176.647c-0.037,2.137-1.806,3.875-3.941,3.875v1.625l-0.092-1.626l-37.895-0.177c-2.174-0.038-3.913-1.838-3.875-4.012
		l0.416-23.895c0.038-2.137,1.805-3.876,4.032-3.876h0.001l37.896,0.179c1.054,0.019,2.037,0.445,2.769,1.203
		c0.732,0.758,1.125,1.755,1.106,2.809L132.801,176.647z M128.364,397.8c4.271,1.24,12.94,1.812,18.961,1.812
		c2.987,0,5.72-0.122,8.124-0.362c4.621-0.463,10.145-1.015,14.221-2.534l-0.002-0.007l-0.348,5.708v-0.001
		c-7.896,0.217-24.108,2.84-27.37,8.068c-0.476,0.762-0.243,1.764,0.518,2.237c0.269,0.167,0.565,0.246,0.859,0.246
		c0.542,0,1.071-0.271,1.38-0.765c2.23-3.573,17.936-6.695,26.115-6.549l-0.328-0.039c0.091,0.021,9.139,2.146,9.415,8.82
		c0.356,8.602,0.168,12.438-8.011,13.268c-13.965,1.417-23.607,0.206-28.549-3.506c-3.924-2.946-15.855-11.91-15.084-17.896
		c0.012-0.104,0.017-0.21,0.01-0.312C128.052,402.61,128.191,399.72,128.364,397.8L128.364,397.8z M150.249,48.988
		c-0.008-0.503-0.249-0.974-0.651-1.276c-0.69-0.518-17.31-12.692-47.956-13.226c-0.5-0.009-0.997-0.013-1.489-0.013
		c-28.653,0-43.974,14.896-45.803,17.829c-0.844,1.352-1.134,6.476-1.615,32.333c-2.103-5.958-3.14-12.298-3.03-18.663
		c0.509-29.115,24.821-52.726,54.076-52.224c29.307,0.511,52.734,24.77,52.224,54.077c-0.133,7.606-1.89,15.063-5.124,21.873
		L150.249,48.988z M130.35,145.58c3.32-5.103,9.019-15.974,13.736-24.979c2.404-4.588,4.885-9.321,5.602-10.49
		c0.779-0.26,1.605-0.392,2.459-0.392c1.562,0,2.963,0.438,3.918,0.838c-8.459,16.276-18.274,33.228-21.896,36.865l0.002-0.01
		c-1.063-0.99-2.384-1.626-3.819-1.841v0.009H130.35z M145.521,110.924c-0.938,1.732-2.297,4.317-4.315,8.168
		c-4.832,9.221-12.097,23.084-14.755,26.385l-33.767-0.159c-7.014-7.293-14.165-16.549-19.541-23.948
		c-0.003-0.005-0.007-0.009-0.01-0.014l0.01,0.014c5.195,3.568,14.766,7.51,31.694,7.51c0.001,0,0.003,0,0.004,0
		c0.645,0,1.296-0.006,1.96-0.018c19.989-0.346,28.531-6.45,32.178-11.509c1.646-2.284,2.426-4.548,2.664-6.471L145.521,110.924z
		 M52.046,110.959c-4.277,1.453-8.627,3.564-12.634,6.512l0.011,0.017l-0.813-26.84l-0.028-0.007
		c1.345-0.489,2.616-0.559,3.545-0.61c0.391-0.021,0.708-0.039,0.993-0.087c2.587-0.273,4.46-3.008,4.467-6.546
		c0.007-3.677-2.222-7.583-7.215-8.017c-0.711-0.063-1.455-0.025-2.223,0.107l0.003,0.021l-0.729-24.083
		c-0.006-11.386,9.254-20.655,20.657-20.66l1.506-0.015l-0.015-0.032c-8.27,9.861-12.888,22.167-13.116,35.197
		c-0.163,9.38,2.025,18.709,6.328,26.978l0.079,0.104c3.025,5.77,7.02,10.96,11.771,15.347l-0.52,0.034
		c-0.204-0.23-0.47-0.4-0.769-0.487c-0.075-0.022-1.869-0.533-4.083-0.533c-2.819,0-5.143,0.834-6.721,2.412
		c-0.15,0.149-0.269,0.327-0.351,0.522c-0.07,0.167-0.136,0.329-0.146,0.551L52.046,110.959z M53.49,114.029
		c0.036,0.056,0.072,0.113,0.109,0.171c0.065,0.102,0.133,0.207,0.204,0.314c0.037,0.057,0.073,0.112,0.111,0.17
		c0.095,0.144,0.194,0.293,0.299,0.447c0.017,0.025,0.032,0.049,0.05,0.075c0.122,0.179,0.25,0.368,0.385,0.563
		c0.044,0.063,0.092,0.131,0.137,0.197c0.096,0.139,0.195,0.281,0.298,0.428c0.054,0.077,0.11,0.155,0.166,0.234
		c0.104,0.146,0.21,0.296,0.32,0.45c0.059,0.083,0.118,0.165,0.179,0.25c0.124,0.172,0.253,0.352,0.385,0.534
		c0.051,0.07,0.099,0.137,0.151,0.208c0.184,0.253,0.376,0.515,0.576,0.786c0.049,0.067,0.102,0.138,0.152,0.206
		c0.156,0.211,0.315,0.427,0.481,0.65c0.074,0.099,0.15,0.201,0.226,0.302c0.152,0.204,0.308,0.412,0.468,0.625
		c0.085,0.114,0.17,0.227,0.258,0.344c0.169,0.224,0.344,0.455,0.521,0.689c0.079,0.104,0.155,0.205,0.235,0.311
		c0.259,0.341,0.525,0.691,0.803,1.054c0.046,0.06,0.095,0.124,0.141,0.185c0.235,0.307,0.477,0.622,0.726,0.945
		c0.099,0.129,0.202,0.262,0.303,0.394c0.208,0.271,0.421,0.546,0.639,0.828c0.111,0.144,0.224,0.29,0.338,0.437
		c0.226,0.291,0.457,0.589,0.692,0.892c0.109,0.14,0.216,0.278,0.328,0.421c0.346,0.444,0.699,0.897,1.066,1.366
		c5.756,7.357,13.911,17.403,19.927,24.057l0.003-0.178l-0.003,0.178l-0.097,5.596l-0.001-0.001
		c-10.268,1.271-15.902,13.208-17.199,36.396c-0.572,10.229-5.985,12.688-9.512,13.193v-0.001
		c0.239-9.278,0.929-17.499,1.338-22.367c0.352-4.18,0.453-5.38,0.261-5.966l-0.004-0.002c1.152-9.215,3.638-17.165,3.665-17.251
		c0.27-0.856-0.205-1.769-1.061-2.039c-0.857-0.267-1.769,0.204-2.039,1.061c-0.118,0.374-2.771,8.854-3.9,18.736l0.039,0.225
		c-0.537,1.947-1.627,6.921-4.229,20.197l0.001,0.001c-7.778-2.238-18.844-3.379-21.479-3.249c-0.896,0.047-1.585,0.812-1.538,1.708
		c0.047,0.896,0.828,1.565,1.708,1.538c2.257-0.128,13.162,0.983,20.682,3.204l0,0c-0.153,0.787-0.312,1.599-0.474,2.437l0,0
		c-6.809-0.95-13.5-2.128-13.569-2.141c-0.88-0.156-1.727,0.435-1.882,1.318c-0.156,0.884,0.434,1.727,1.318,1.883
		c0.069,0.013,6.704,1.18,13.515,2.135c-1.572,8.134-3.544,18.472-6.028,31.617c-2.011-0.101-6.322-0.378-13.453-1.132
		c-1.67-0.178-3.382-0.266-5.089-0.266c-3.785,0-6.865,0.426-9.114,0.736c-0.81,0.112-1.542,0.214-2.099,0.264
		c0.619-9.017,7.163-67.805,12.555-95.968c3.415-17.834,15.491-26.696,26.943-30.503L53.49,114.029z M84.007,161.468L84.007,161.468
		l-0.121,6.955c-7.24,1.428-8.91,12.276-9.222,30.128c-0.271,15.61-14.953,18.801-18.869,18.801c-0.08,0-0.151-0.002-0.214-0.004
		c-1.082-2.295-0.39-4.896,0.114-6.237c0.006,0,0.013,0,0.019,0c3.162,0,13.547-1.181,14.397-16.379
		C71.262,174.14,75.935,162.972,84.007,161.468z M92.095,394.116c0.356,5.856,0.392,12.79-0.947,15.581
		c-0.267,0.557-0.518,1.115-0.768,1.671c-2.231,4.966-3.993,8.889-16.385,8.889l-0.928-0.001l-4.292,0.005
		c-8.176,0-20.532,0-24.125-3.653c-0.709-0.724-1.031-1.54-1.013-2.574c0.033-1.848-0.004-3.521-0.036-4.995
		c-0.13-5.964,0.057-7.423,2.199-8.06c3.503-1.038,6.138-1.512,7.022-1.652c0.078-0.014,0.128-0.021,0.178-0.028
		c1.034,0.066,2.437,0.131,4.056,0.203c5.082,0.228,14.541,0.651,16.616,1.654c0.228,0.108,0.469,0.162,0.706,0.162
		c0.604,0,1.184-0.34,1.464-0.918c0.391-0.81,0.052-1.779-0.756-2.172c-2.475-1.194-9.564-1.603-17.885-1.976
		c-1.019-0.046-1.957-0.087-2.766-0.128v-0.001l-0.429-5.448l0.003,0.004c4.653,2.104,13.672,4.014,23.269,4.18
		c1.97,0.032,3.694,0.052,5.199,0.052C87.104,394.908,90.219,394.802,92.095,394.116z M44.336,83.393
		c-0.003,1.826-0.834,3.26-1.574,3.321c-0.054,0.005-0.129,0.016-0.182,0.026c-0.147,0.027-0.363,0.032-0.631,0.047
		c-2.732,0.15-11.044,0.606-13.321,13.94c-1.464,8.579,1.599,17.123,4.34,22.674l-4.351,6.024
		c-2.832-5.113-6.384-13.322-6.765-22.823c-0.331-8.268,2.925-16.799,8.71-22.819c3.117-3.244,6.525-5.181,9.118-5.181
		c0.138,0,0.274,0.006,0.408,0.017C44.038,78.963,44.338,82.359,44.336,83.393z"/>
	<path id="dot2" fill="#1D79FF" stroke="#004BA5" stroke-width="3.25" stroke-miterlimit="10" d="M125.639,205.674
		c0-5.102,4.136-9.237,9.237-9.237s9.237,4.135,9.237,9.237s-4.136,9.237-9.237,9.237S125.639,210.775,125.639,205.674"/>
	<path id="dot1" fill="#CC0000" stroke="#750000" stroke-width="3.25" stroke-miterlimit="10" d="M95.17,217.438
		c0-6.069,4.92-10.989,10.989-10.989c6.069,0,10.989,4.92,10.989,10.989s-4.92,10.989-10.989,10.989
		C100.09,228.427,95.17,223.507,95.17,217.438"/>
</g>
</svg>
