<?xml version="1.0" encoding="utf-8"?>
<!-- Generator: Adobe Illustrator 15.0.0, SVG Export Plug-In . SVG Version: 6.00 Build 0)  -->
<!DOCTYPE svg PUBLIC "-//W3C//DTD SVG 1.1//EN" "http://www.w3.org/Graphics/SVG/1.1/DTD/svg11.dtd">
<svg version="1.1" id="Layer_1" xmlns="http://www.w3.org/2000/svg" xmlns:xlink="http://www.w3.org/1999/xlink" x="0px" y="0px"
	 width="126px" height="129px" viewBox="0 0 126 129" enable-background="new 0 0 126 129" xml:space="preserve">
<g id="Ball.svg">
	<path id="Ball" fill="#FF224C" d="M51.996,98.061c14.014,4.721,27.97,7.084,40.999,7.321c-12.96,9.654-30.28,13.007-46.757,7.461
		C29.51,107.212,17.646,93.746,13.322,77.91C24.161,86.113,37.267,93.104,51.996,98.061z M31.082,24.354
		c13.058-10.2,30.821-13.858,47.699-8.176c16.879,5.682,28.814,19.339,33.043,35.36c-12.762-2.392-26.785-6.041-41.271-10.918
		C56.068,35.743,42.692,30.168,31.082,24.354"/>
	<path fill="#4DD7F7" d="M63.812,60.638c-17.523-5.899-33.156-13.369-45.625-21.354c-1.59,2.802-2.945,5.788-4.011,8.955
		c-1.262,3.75-2.049,7.543-2.42,11.32c12.413,7.906,27.927,15.298,45.299,21.146c17.374,5.85,34.199,9.345,48.866,10.556
		c1.989-3.233,3.657-6.729,4.919-10.479c1.067-3.167,1.795-6.365,2.222-9.558C98.307,70.043,81.338,66.539,63.812,60.638"/>
	<path fill="#FF4893" d="M105.869,91.359c-3.419,5.531-7.812,10.256-12.871,14.021c-13.03-0.236-26.987-2.602-41.002-7.32
		C37.256,93.1,24.141,86.104,13.298,77.893c-1.599-5.856-2.162-12.037-1.555-18.268l0.014-0.066
		c12.413,7.906,27.927,15.298,45.299,21.146c17.374,5.85,34.199,9.345,48.866,10.556L105.869,91.359z M30.944,24.472
		c-5.082,3.999-9.447,8.988-12.754,14.813c12.468,7.984,28.1,15.454,45.623,21.353c17.526,5.901,34.496,9.405,49.25,10.586
		l0.068-0.502c0.807-6.5,0.322-12.967-1.283-19.091l-0.022-0.095c-12.763-2.392-26.785-6.041-41.271-10.918
		c-14.486-4.877-27.862-10.452-39.472-16.266L30.944,24.472z"/>
	<path id="BallBorder" fill="#C91F6C" d="M62.51,117.007c-28.947,0-52.497-23.55-52.497-52.497c0-9.373,2.469-18.18,6.791-25.804
		c0.033-0.079,0.073-0.156,0.121-0.23c0.02-0.03,0.04-0.06,0.061-0.088c3.346-5.809,7.772-10.92,13.002-15.059
		c0.105-0.112,0.226-0.206,0.357-0.28C39.236,16.134,50.4,12.013,62.51,12.013c28.947,0,52.497,23.55,52.497,52.497
		c0,10.032-2.83,19.417-7.729,27.397c-0.047,0.098-0.104,0.188-0.17,0.274c-3.44,5.522-7.877,10.363-13.057,14.27
		c-0.097,0.095-0.207,0.177-0.326,0.242C84.993,113.172,74.191,117.007,62.51,117.007z M16.131,81.809
		c7.03,18.786,25.168,32.198,46.378,32.198c9.464,0,18.313-2.669,25.841-7.294c-12.182-0.668-24.55-3.094-36.833-7.23
		C39.77,95.53,28.579,90.09,18.743,83.584c-0.003-0.002-0.006-0.004-0.009-0.006c-0.005-0.003-0.008-0.006-0.013-0.01
		C17.847,82.989,16.984,82.402,16.131,81.809z M87.807,103.677c1.564,0.095,3.125,0.159,4.684,0.194
		c4.171-3.186,7.822-7.016,10.805-11.342c-14.643-1.441-30.732-5.021-46.716-10.402c-15.99-5.382-30.975-12.268-43.51-19.977
		c-0.037,0.782-0.056,1.569-0.056,2.36c0,4.314,0.555,8.501,1.597,12.493c1.887,1.416,3.841,2.791,5.851,4.119
		c0.003,0.003,0.007,0.005,0.011,0.007c0.004,0.003,0.007,0.005,0.011,0.008c9.46,6.248,20.208,11.489,31.497,15.336
		c0.165,0.055,0.33,0.11,0.495,0.166C64.264,100.609,76.124,102.97,87.807,103.677z M13.342,58.787
		c12.601,7.92,27.858,14.998,44.193,20.496c16.332,5.499,32.758,9.089,47.579,10.402c3.067-5.172,5.222-10.947,6.235-17.103
		c-14.992-1.354-31.554-4.981-48.016-10.524c-16.46-5.541-31.84-12.666-44.592-20.649C15.934,46.708,14.061,52.575,13.342,58.787z
		 M20.228,38.801c12.576,7.888,27.776,14.933,44.063,20.416c16.291,5.485,32.662,9.067,47.455,10.391
		c0.173-1.676,0.261-3.377,0.261-5.098c0-4.02-0.481-7.93-1.391-11.674c-13.023-2.49-26.658-6.12-40.542-10.794
		c-13.878-4.672-26.922-10.023-38.789-15.91C26.922,29.688,23.172,33.975,20.228,38.801z M33.954,24.102
		c11.387,5.568,23.847,10.643,37.077,15.097c13.234,4.456,26.236,7.953,38.683,10.406c-6.339-20.031-25.104-34.592-47.204-34.592
		C51.884,15.013,42.027,18.38,33.954,24.102z"/>
</g>
</svg>
