<?xml version="1.0" encoding="utf-8"?>
<!-- Generator: Adobe Illustrator 15.0.0, SVG Export Plug-In . SVG Version: 6.00 Build 0)  -->
<!DOCTYPE svg PUBLIC "-//W3C//DTD SVG 1.1//EN" "http://www.w3.org/Graphics/SVG/1.1/DTD/svg11.dtd">
<svg version="1.1" id="Layer_1" xmlns="http://www.w3.org/2000/svg" xmlns:xlink="http://www.w3.org/1999/xlink" x="0px" y="0px"
	 width="594px" height="380px" viewBox="0 0 594 380" enable-background="new 0 0 594 380" xml:space="preserve">
<g id="Barn.svg">
	<path fill="#E03F3F" d="M490.413,62.993l-63.647-27.598l-92.692,42.626l-15.612,68.416v-15.234L44.247,108.351v234.224
		l274.214,22.854l205.657-25.902V135.773L490.413,62.993z"/>
	<path id="BarnBorder" fill="#871F1F" d="M527.928,134.935l-34.666-74.86l-66.543-28.85L330.78,75.343l-11.886,52.074
		L40.438,104.209v241.866l278.105,23.176l209.385-26.367V134.935L527.928,134.935z M202.192,351.913l-25.518-2.24v-61.562
		l25.518,0.587V351.913L202.192,351.913z M314.648,146.007v215.279l-104.84-8.734v-71.301l-40.75-0.938v68.837L48.054,339.062
		V112.485l266.594,22.218V146.007z M496.083,339.22l-65.273,8.218V221.62l65.273-3.927V339.22L496.083,339.22z M520.309,336.167
		l-16.61,2.086V209.604l-80.511,4.844v133.949l-100.922,12.711v-214.24l15.099-66.17l89.444-41.13l60.759,26.342l32.741,70.702
		V336.167L520.309,336.167L520.309,336.167z"/>
	<path fill="#3D3D3D" stroke="#FFFFFF" stroke-width="4.5704" d="M390.323,156.49l-23.485,2.289v-39.156l23.485-2.286V156.49z"/>
	<path fill="#3D3D3D" stroke="#FFFFFF" stroke-width="4.5704" d="M480.211,150.113l-23.492,2.283v-39.15l23.492-1.527V150.113z"/>
	<path fill="#3D3D3D" d="M202.192,351.913l-25.516-2.24v-61.563l25.516,0.589V351.913z"/>
	<path fill="#E03F3F" d="M173.331,353.149l-33.135-3.047V283.45l33.135,0.762V353.149z"/>
	<path id="SideDoorBorder" fill="#FFFFFF" d="M137.53,280.725v71.811l38.469,3.541v-74.467L137.53,280.725z M153.518,317.681
		l-10.656,21.187v-43.596L153.518,317.681z M144.464,286.216l24.592,0.563l-12.504,24.865L144.464,286.216z M156.418,323.782
		l12.494,26.28l-24.576-2.258L156.418,323.782z M159.455,317.743l11.212-22.295v45.877L159.455,317.743z"/>
	<path fill="#3D3D3D" d="M496.083,339.22l-65.274,8.218V221.62l65.274-3.927V339.22z"/>
	<path fill="#E03F3F" d="M426.766,351.038l-72.887,8.959V226.032l72.887-4.384V351.038z"/>
	<path id="LargeDoorBorder" fill="#FFFFFF" d="M350.071,222.445v141.855l80.506-9.895V217.604L350.071,222.445z M385.417,287.682
		l-27.729,56.03V240.126L385.417,287.682z M360.286,229.462l55.594-3.344l-26.418,53.375L360.286,229.462z M390.012,295.562
		l30.551,52.398l-60.137,7.393L390.012,295.562z M394.059,287.389l28.898-58.398v107.955L394.059,287.389z"/>
	<path opacity="0.2" fill="#332B22" d="M356.924,81.83l60.571-27.853l71.203,40.28l31.556,101.306l0.055-58.952l-32.741-70.702
		l-60.755-26.344l-89.444,41.132l-15.103,66.17l-0.065,72.501L356.924,81.83z"/>
	<path opacity="0.2" fill="#332B22" d="M51.266,108.935l-3.212,27.326v94.015l247.554,16.022l19.041-65.193v-49.902L51.266,108.935z
		"/>
	<path fill="#4C4C4C" d="M434.104,34.425l10.421-7.196l75.022,33.517l57.512,134.816h-49.131v-60.627l-34.668-74.86L434.104,34.425z
		"/>
	<path fill="#6C6C6C" d="M13.674,201.374L52.902,57.221l108.162-43.416l283.46,13.424L334.073,78.021l-38.465,141.347
		L13.674,201.374z"/>
	<path id="Stripes" fill="#7C7C7C" d="M295.764,206.161L22.276,186.408l1.67-6.758l273.617,19.767L295.764,206.161z
		 M301.995,182.759L28.57,163.009l-1.802,6.742l273.425,19.75L301.995,182.759z M307.579,162.451L34.15,142.703l-1.796,6.744
		l273.492,19.758L307.579,162.451z M312.454,144.513L38.907,124.755l-1.87,6.734l273.499,19.758L312.454,144.513z M317.273,126.955
		L43.716,107.197l-1.982,6.729l273.62,19.766L317.273,126.955z M320.934,113.619l1.867-6.84L49.119,86.903l-1.807,6.742
		L320.934,113.619L320.934,113.619z M325.125,98.277l1.828-6.838L53.44,71.599l-1.798,6.748L325.125,98.277L325.125,98.277z
		 M329.111,83.013l2.019-6.838L64.208,56.791l-7.522,3.064l-0.97,3.192L329.111,83.013L329.111,83.013z M338.249,72.093l12.68-6.08
		L88.934,46.883L74.444,52.7L338.249,72.093L338.249,72.093z M359.793,61.933l14.963-6.838L113.772,36.851l-14.508,5.876
		L359.793,61.933L359.793,61.933z M385.286,50.253l11.858-5.32l-260.451-17.22l-14.529,5.88L385.286,50.253L385.286,50.253z
		 M408.708,39.539l13.328-6.084l-263.313-14.59l-15.024,6.034L408.708,39.539L408.708,39.539z"/>
	<path id="RoofBorder" fill="#424242" d="M527.928,198.622l54.933,0.84L523.055,59.253l-0.59-1.376l-77.758-34.452L161.247,10
		l-1.599,0.27L51.484,53.687l-2.256,2.534L10,200.372l3.432,4.805l281.937,17.992l3.917-2.801l38-139.629l107.262-49.325
		l72.086,32.197l54.623,128.058l-43.33-0.664L527.928,198.622L527.928,198.622z M332.48,74.561l-2.082,2.46L292.749,215.37
		l-274.177-17.5L56.079,60.051l105.634-42.402l267.026,12.646L332.48,74.561z"/>
</g>
</svg>
