<?xml version="1.0" encoding="utf-8"?>
<!-- Generator: Adobe Illustrator 15.0.0, SVG Export Plug-In . SVG Version: 6.00 Build 0)  -->
<!DOCTYPE svg PUBLIC "-//W3C//DTD SVG 1.1//EN" "http://www.w3.org/Graphics/SVG/1.1/DTD/svg11.dtd">
<svg version="1.1" id="Layer_1" xmlns="http://www.w3.org/2000/svg" xmlns:xlink="http://www.w3.org/1999/xlink" x="0px" y="0px"
	 width="368px" height="417px" viewBox="0 0 368 417" enable-background="new 0 0 368 417" xml:space="preserve">
<g id="Bike5.svg">
	
		<line id="Pedal" fill="none" stroke="#444444" stroke-width="3.9" stroke-miterlimit="10" x1="156.174" y1="317.673" x2="196.855" y2="297.453"/>
	<path id="Brace2" fill="#D6D6D6" stroke="#919191" stroke-width="2.6" stroke-miterlimit="10" d="M262.391,251.979
		c2.024,3.391,24.836,71.025,24.836,71.025l3.119-0.425c0,0-22.863-72.034-22.974-72.336"/>
	<path id="Sprockets" fill="none" stroke="#C1C1C1" stroke-width="1.95" stroke-miterlimit="10" d="M74.242,261.827l0.012,61.778
		 M96.792,266.042l-22.327,57.774 M38.836,362.562l35.417-39.166 M74.253,323.396l-21.508,51.391 M72.767,381.74l1.698-57.713
		 M74.253,323.816l47.828,26.103 M33.568,287.538l40.686,36.489 M298.141,264.544l-8.771,58.161 M312.007,269.744l-22.637,53.396
		 M287.639,326.173l-33.267,46.705 M288.072,326.173l-18.1,56.672 M236.605,310.911l50.162,16.128 M286.771,326.605l46.035,32.838
		 M313.74,380.678l-25.668-53.64 M255.24,275.377l31.965,48.63"/>
	<path id="Belt" fill="#E0E0E0" d="M156.724,305.104c7.645,0,13.864,6.225,13.864,13.863c0,7.646-6.22,13.862-13.864,13.862
		s-13.864-6.219-13.864-13.862C142.86,311.323,149.08,305.104,156.724,305.104 M77.057,312.945c5.393,0,9.781,4.845,9.781,10.8
		s-4.388,10.8-9.781,10.8s-9.78-4.845-9.78-10.8S71.665,312.945,77.057,312.945 M286.55,314.271c5.933,0,10.757,5.312,10.757,11.845
		s-4.824,11.845-10.757,11.845c-5.93,0-10.754-5.312-10.754-11.845C275.796,319.585,280.621,314.271,286.55,314.271 M156.724,300.93
		c-9.961,0-18.037,8.076-18.037,18.037s8.075,18.036,18.037,18.036s18.037-8.075,18.037-18.036S166.686,300.93,156.724,300.93
		L156.724,300.93z M77.057,308.773c-7.706,0-13.953,6.697-13.953,14.972c0,8.27,6.247,14.973,13.953,14.973
		s13.953-6.703,13.953-14.973C91.01,315.476,84.763,308.773,77.057,308.773L77.057,308.773z M286.55,310.1
		c-8.241,0-14.928,7.17-14.928,16.021c0,8.846,6.687,16.018,14.928,16.018c8.244,0,14.931-7.172,14.931-16.018
		C301.479,317.27,294.794,310.1,286.55,310.1L286.55,310.1z"/>
	<path id="Tires" fill="#444444" stroke="#232323" stroke-width="3.25" stroke-miterlimit="10" d="M76.907,245.812
		c-35.699,0-64.64,34.174-64.64,76.325c0,42.152,28.94,76.327,64.64,76.327c35.7,0,64.64-34.175,64.64-76.327
		C141.547,279.986,112.606,245.812,76.907,245.812z M76.907,384.832c-29.322,0-53.092-28.065-53.092-62.69
		c0-34.623,23.77-62.688,53.092-62.688c29.322,0,53.092,28.064,53.092,62.688C129.999,356.766,106.229,384.832,76.907,384.832z
		 M289.457,245.812c-37.018,0-67.021,35.436-67.021,79.145s30.008,79.144,67.021,79.144s67.021-35.435,67.021-79.144
		S326.473,245.812,289.457,245.812z M289.457,389.96c-30.398,0-55.049-29.104-55.049-65.005c0-35.899,24.646-65.004,55.049-65.004
		s55.049,29.104,55.049,65.004C344.506,360.855,319.859,389.96,289.457,389.96z"/>
	<path id="Wheel" fill="#D6D6D6" d="M76.907,259.449c-29.322,0-53.092,28.064-53.092,62.688c0,34.625,23.77,62.69,53.092,62.69
		c29.322,0,53.092-28.065,53.092-62.69C129.999,287.516,106.229,259.449,76.907,259.449z M76.907,380.51
		c-27.3,0-49.431-26.133-49.431-58.369c0-32.23,22.131-58.369,49.431-58.369c27.3,0,49.431,26.139,49.431,58.369
		C126.338,354.378,104.207,380.51,76.907,380.51z M289.457,259.951c-30.398,0-55.049,29.104-55.049,65.004
		c0,35.9,24.646,65.004,55.049,65.004s55.049-29.104,55.049-65.004C344.506,289.055,319.859,259.951,289.457,259.951z
		 M289.457,385.476c-28.307,0-51.252-27.097-51.252-60.521c0-33.426,22.945-60.521,51.252-60.521
		c28.311,0,51.254,27.103,51.254,60.521C340.71,358.38,317.764,385.476,289.457,385.476z"/>
	<path id="bolt2" fill="#3A3A3A" d="M284.257,324.405c0-2.479,2.009-4.484,4.485-4.484c2.476,0,4.484,2.008,4.484,4.484
		c0,2.478-2.01,4.483-4.484,4.483C286.266,328.889,284.257,326.883,284.257,324.405"/>
	<path id="Bolt" fill="#5B5B5B" d="M282.438,323.355c2.754,0,4.983,2.229,4.983,4.979s-2.229,4.982-4.983,4.982
		c-2.75,0-4.979-2.23-4.979-4.982C277.459,325.582,279.688,323.355,282.438,323.355z"/>
	<path id="Brace" fill="#D6D6D6" stroke="#919191" stroke-width="2.6" stroke-miterlimit="10" d="M251.682,260.75
		c-1.365-4.168-3.562-11.069,2.549-13.94c2.485-0.949,5.213-1.049,7.608,2.959c1.578-0.767,2.707-1.108,4.345-1.733
		c-3.574-9.911-10.357-7.521-11.627-9.021c-1.302-1.546-4.795-14.141-4.795-14.141l-7.882,2.438c0,0,4.175,11.305,4.175,14.146
		c0.241,5.797-4.535,6.84-0.757,19.205c2.763,9.407,35.55,68.569,35.933,68.954c0.496,0.625,2.559,0.046,2.336-1.372
		C283.141,327.373,253.721,265.508,251.682,260.75z"/>
	<path id="BikeBorder" fill="#BA4308" d="M207.708,299.5c0.274,0.64,0.285,1.347,0.026,1.99l-0.799,2.02
		c-0.397,0.998-1.352,1.646-2.418,1.646c-0.328,0-0.651-0.062-0.959-0.188l-16.123-6.384c-0.207-0.081-0.393-0.192-0.562-0.315
		c1.768-1.752,3.625-3.621,5.595-5.623l13.81,5.473C206.925,298.369,207.434,298.861,207.708,299.5z M227.162,233.143
		c-7.021,2.826-64.779,27.568-89.412,38.144l17.823,36.183C165.928,296.673,220.262,240.073,227.162,233.143z M128.743,275.93
		c-0.264-0.562-0.505-1.104-0.722-1.582c-0.026-0.061-0.054-0.119-0.081-0.181c-0.134,0.132-0.267,0.265-0.39,0.386
		c-0.493,0.486-1.014,1.004-1.488,1.455c-0.781,0.744-14.025,15.127-23.696,25.629c-10.287,11.17-14.832,16.104-15.184,16.438
		c-0.409,0.351-0.869,0.741-1.324,1.136c0.318-0.005,0.65-0.008,0.995-0.008c1.43,0,18.856-1.664,32.859-3.001
		c15.83-1.513,25.583-2.438,26.593-2.438c0.384,0.012,0.75,0.021,1.096,0.034c-0.237-0.438-0.485-0.905-0.722-1.372
		C145.88,310.854,129.748,278.082,128.743,275.93z M241.646,239.466c-6.215,7.035-21.002,23.633-36.56,40.075
		c-41.656,44.04-48.119,44.04-50.243,44.04c-3.368,0-39.905,2.507-61.735,4.005c-14.385,0.984-19.457,1.332-19.862,1.332l0,0
		l-0.056-0.002c-1.768-0.038-3.489-1.19-4.172-2.803c-0.609-1.438-0.314-3.004,0.789-4.197l0.102-0.102
		c0.773-0.771,34.743-36.317,53.287-55.729l-7.817-16.104l9.788-4.238l7.537,16.904c11.418-4.823,80.873-34.129,100.355-41.062
		l0.002-0.001c-1.26-3.126-2.576-6.289-3.226-7.312c-0.801,0.002-2.271,0.227-3.978,0.479c-2.774,0.416-6.229,0.938-9.477,0.938
		c-1.212,0-2.326-0.074-3.314-0.226c-5.004-0.396-9.795-2.604-14.022-4.562c-3.772-1.737-7.333-3.366-10.062-3.259
		c-6.299,0.28-23.679,2.562-29.812,3.677l-1.21,0.224c-4.496,0.817-8.047,1.471-10.13,1.471c-1.051,0-1.754-0.168-2.279-0.544
		c-1.395-0.997-1.964-3.886-1.995-5.472c-0.032-1.596,0.383-2.735,1.233-3.396c2.033-1.579,25.756-4.482,28.601-4.747
		c1.543-0.145,3.232-0.37,5.02-0.609c3.377-0.453,6.869-0.92,10.021-0.92c2.018,0,3.67,0.192,5.059,0.589
		c1.773,0.507,4.046,1.539,6.679,2.735c4.798,2.179,10.767,4.891,15.132,4.891l0.12-0.001c1.375-0.179,2.724-0.334,3.979-0.479
		c2.438-0.289,5.17-0.608,6.119-0.865c0.873-1.374,3.414-5.298,8.08-6.172c0.643-0.121,1.312-0.183,1.998-0.183
		c3.432,0,6.504,1.52,7.731,2.217c2.146-0.396,6.446-1.756,7.381-4.639c0.294-0.904,0.61-2.049,0.979-3.373
		c1.638-5.874,3.881-13.917,8.037-16.196c4.392-2.406,15.088-7.625,17.271-8.251c1.562-0.444,3.094,0.372,3.918,2.092
		c0.462,0.956,1.066,3.091,0.074,4.33c-0.49,0.61-1.623,1.243-7.123,3.972c-1.727,0.856-3.354,1.664-4.166,2.121
		c-2.189,1.233-6.039,5.039-7.03,10.006c-1.429,7.133-3.313,14.884-7.698,16.567c-1.133,0.438-2.438,0.896-3.705,1.345
		c-1.315,0.467-2.981,1.056-4.004,1.479c0.146,0.379,0.321,0.828,0.512,1.309c7.146,18.291,8.289,22.543,7.9,23.99
		c-0.809,3.021-7.091,5.471-10.768,5.471c-1.321,0-2.422-0.271-3.275-0.805L241.646,239.466z M162.299,367.138
		c-0.589,0-1.164-0.167-1.662-0.479l-11.7-7.424c-0.7-0.441-1.186-1.137-1.367-1.941c-0.181-0.811-0.036-1.643,0.408-2.344
		l2.507-3.95c0.572-0.902,1.554-1.441,2.624-1.441c0.589,0,1.165,0.168,1.664,0.482l11.698,7.422
		c0.701,0.442,1.186,1.135,1.368,1.944c0.181,0.811,0.036,1.643-0.408,2.343l-2.508,3.95
		C164.35,366.599,163.37,367.138,162.299,367.138z"/>
	<path id="Bike" fill="#FF6510" d="M153.109,352.152c-0.175,0-0.335,0.089-0.428,0.232l-2.507,3.949
		c-0.098,0.153-0.083,0.307-0.066,0.383c0.017,0.074,0.069,0.223,0.222,0.313l11.7,7.423c0.231,0.146,0.554,0.071,0.698-0.154
		l2.508-3.951c0.098-0.149,0.083-0.305,0.066-0.381c-0.018-0.076-0.069-0.222-0.223-0.314l-11.699-7.42
		C153.297,352.18,153.206,352.152,153.109,352.152z M277.785,170.744c0.223,0.235,0.439,0.876,0.486,1.315
		c-1.037,0.633-3.881,2.043-5.842,3.017c-1.767,0.875-3.433,1.702-4.312,2.199c-2.803,1.576-7.41,6.125-8.625,12.201
		c-0.711,3.553-2.6,12.989-5.682,14.174c-1.105,0.426-2.385,0.876-3.619,1.312c-5.469,1.932-6.938,2.449-6.484,4.274
		c0.049,0.199,0.127,0.404,1.047,2.757c5.035,12.893,7.646,20.295,7.758,22.02c-0.58,0.916-4.41,3.012-7.592,3.012
		c-0.828,0-1.461-0.166-1.732-0.455c-1.121-1.182-3.895-8.146-5.916-13.229c-3.52-8.834-4.547-11.151-5.563-11.831
		c-0.574-0.43-1.289-0.482-1.853-0.482c-1.041,0-2.557,0.229-4.467,0.517c-2.668,0.396-5.988,0.896-8.992,0.896
		c-1.071,0-2.047-0.062-2.893-0.19l-0.119-0.017c-4.439-0.342-8.775-2.342-12.971-4.273c-4.146-1.912-8.057-3.704-11.564-3.555
		c-6.54,0.291-23.889,2.569-30.25,3.726l-1.213,0.224c-4.163,0.758-7.758,1.417-9.546,1.417c-0.174,0-0.302-0.009-0.393-0.019
		c-0.417-0.763-0.796-2.793-0.584-3.564c2.746-0.931,20.305-3.48,26.837-4.091c1.609-0.15,3.33-0.381,5.151-0.625
		c3.271-0.438,6.653-0.893,9.583-0.893c1.709,0,3.071,0.152,4.164,0.464c1.543,0.44,3.816,1.475,6.229,2.569
		c5.082,2.309,11.404,5.182,16.479,5.182l0.438-0.018c1.396-0.18,2.769-0.338,4.034-0.487c6.394-0.752,7.47-0.938,8.154-1.854
		c0.064-0.087,0.164-0.235,0.295-0.439c0.724-1.134,2.627-4.146,5.972-4.771c0.438-0.083,0.913-0.126,1.396-0.126
		c3.366,0,6.487,2.004,6.521,2.021l0.504,0.331l0.602-0.078c0.354-0.046,8.727-1.193,10.59-6.945
		c0.312-0.97,0.642-2.144,1.021-3.502c1.313-4.712,3.515-12.599,6.474-14.22C265.691,176.283,275.812,171.37,277.785,170.744z
		 M239.998,236.439c-29.295,33.479-76.563,83.892-85.15,83.892c-3.479,0-38.67,2.414-61.958,4.013
		c-10.12,0.693-18.876,1.296-19.637,1.322c-0.562-0.022-1.078-0.44-1.239-0.82c-0.079-0.188-0.112-0.399,0.184-0.725l0,0
		c2.198-2.247,38.372-40.108,54.133-56.606l0.78-0.814l-7.322-15.084l3.724-1.611l7.526,16.884l1.468-0.621
		c0.911-0.387,86.035-36.674,101.688-41.725L239.998,236.439z M234.576,228.354c-0.199-0.232-0.646-0.633-1.424-0.633
		c-0.717,0-1.676,0.354-3.604,1.08c-0.868,0.329-1.836,0.695-2.771,1.01c-2.805,0.937-88.25,37.604-91.882,39.16l-1.574,0.674
		l21.385,43.414l1.605-1.673c24.748-25.79,71.996-74.965,73.671-76.467c0.348-0.305,0.721-0.626,1.098-0.95
		C234.443,231.062,235.837,229.859,234.576,228.354z M149.577,310.955c-0.798-1.568-16.887-34.255-17.888-36.397
		c-0.257-0.554-0.493-1.076-0.705-1.546c-1.034-2.294-1.382-3.065-2.587-3.065c-0.811,0-1.121,0.311-3.133,2.303
		c-0.478,0.476-0.984,0.976-1.444,1.412c-0.787,0.744-10.379,11.152-23.845,25.775c-7.377,8.014-14.352,15.584-15.023,16.272
		c-4.481,3.822-5.122,4.377-4.46,5.722c0.472,1.086,1.671,1.086,2.474,1.086c0.371,0,0.833-0.012,1.369-0.021
		c0.714-0.021,1.567-0.038,2.519-0.038c1.475,0,14.09-1.193,33.168-3.02c12.431-1.188,25.284-2.411,26.271-2.423
		c0.636,0.016,1.261,0.043,1.807,0.07c0.554,0.026,1.033,0.051,1.375,0.051c0.424,0,1.213,0,1.755-0.646
		c0.806-0.956,0.353-1.795-0.744-3.819C150.198,312.141,149.877,311.548,149.577,310.955z M188.814,296.333l15.703,6.218
		l0.801-2.021l-14.834-5.875C189.92,295.227,189.363,295.784,188.814,296.333z"/>
	<path id="Shadow" fill="#C14D14" d="M234.193,224.538c-1.859,0.602-2.412,0.774-6.035,2.162c0.189,0.735,0.387,1.649,0.584,2.403
		c0.271-0.104,0.551-0.205,0.812-0.31c1.926-0.729,2.883-1.079,3.6-1.079c0.771,0,1.226,0.396,1.423,0.637
		c1.264,1.508-0.13,2.711-3.494,5.61c-0.299,0.265-0.588,0.515-0.871,0.763c0.953,3.646,1.858,7.115,2.565,9.832
		c4.339-4.854,5.894-6.606,7.222-8.117L234.193,224.538z"/>
	<path id="Shoe1" fill="#F9F9F9" d="M184.373,357.005c0.098-0.373,0.927-0.281,0.99-0.688c0.004-0.023,0.253-0.312,0.257-0.333
		c0.063-0.418,0.541-0.931,0.563-1.389c0.438-8.472-1.627-10.88-4.721-12.124c-0.429-0.173-2.019-0.924-2.358-1.082
		c-0.094-0.044-2.779,0.335-2.889,0.28c-3.656,0.205-6.787,1.511-9.31,3.911c-4.716,4.489-6.08,11.823-6.13,13.167l-0.146,0.193
		c-4.233-2.16-9.175-5.486-14.506-9.876c-3.362-2.535-6.55-4.942-8.285-7.685c0.211,1.645,0.131,4.269,2.055,5.985l0.813,0.771
		c11.209,9.848,21.162,15.55,27.246,16.092c0.901,0.031,2.463,0.299,3.504,0.299c8.17,0,12.069-3.065,13.438-6.188
		c-0.328,0.248-1.379-0.657-1.709-0.436L184.373,357.005z M211.705,272.491l-1.873,2.007c1.704,4.84,3.712,14.499,0.994,20.467
		c1.449,0.404,5.104,1.694,6,1.913c2.736-0.968,4.635-3.349,5.115-8.662C222.816,276.191,211.812,272.5,211.705,272.491z
		 M210.742,296.289c1.225,0.339,2.271,0.611,3.091,0.812c-0.188,0.061-0.37,0.114-0.55,0.174c-0.559,0.123-1.315,0.974-1.943,0.974
		c-3.229,0-8.777-2.107-18.443-6.037c0.389-0.394,1.086-1.104,1.479-1.51c6.048,2.456,11.44,4.188,15.313,5.292
		c0.024,0.009,0.056,0.019,0.08,0.021C210.107,296.114,210.432,296.204,210.742,296.289z"/>
	<path id="Shoe" fill="#16A824" d="M173.751,340.346c-3.801-2.142-9.506-5.638-10.801-6.743c-0.869-0.418-5.411-1.629-10.441-1.629
		c-4.219,0-9.691,0.869-11.802,5.014c-0.673,1.316-1.232,2.757-1.241,4.267c2.167,3.384,6.139,6.272,10.963,9.773
		c0.855,0.617,1.735,1.26,2.636,1.923c1.958,1.484,4.124,2.932,6.426,4.153c0.406-2.672,1.934-8.541,6.298-12.69
		C168.037,342.271,170.708,340.926,173.751,340.346z M153.792,337.471c-0.125,0.188-0.332,0.29-0.542,0.29
		c-0.124,0-0.249-0.036-0.36-0.105c-0.299-0.199-0.379-0.604-0.181-0.9c2.018-3.025,6.898-3.739,9.561-3.271
		c0.354,0.062,0.59,0.396,0.527,0.753c-0.063,0.354-0.402,0.589-0.753,0.522C160.035,334.405,155.548,334.836,153.792,337.471z
		 M156.715,339.579c-0.125,0.188-0.332,0.29-0.542,0.29c-0.124,0-0.249-0.035-0.36-0.108c-0.299-0.199-0.379-0.604-0.181-0.897
		c2.018-3.026,6.899-3.741,9.561-3.271c0.354,0.062,0.59,0.398,0.527,0.753c-0.062,0.354-0.403,0.589-0.753,0.525
		C162.954,336.515,158.471,336.943,156.715,339.579z M160.386,341.755c-0.125,0.188-0.332,0.29-0.542,0.29
		c-0.124,0-0.249-0.036-0.36-0.109c-0.299-0.195-0.379-0.604-0.181-0.897c2.018-3.025,6.899-3.74,9.562-3.271
		c0.354,0.062,0.59,0.398,0.527,0.753c-0.063,0.354-0.401,0.591-0.753,0.526C166.628,338.688,162.144,339.118,160.386,341.755z
		 M181.382,278.947c0.587-0.049,1.153-0.096,1.708-0.137c-1.042,1.086-2.09,2.176-3.112,3.235c0.18-1.169,0.324-2.194,0.413-3.022
		C180.72,278.999,181.041,278.975,181.382,278.947z M210.312,274.818l-0.67-0.051c-0.021-0.002-0.041-0.004-0.062-0.004
		c-1.484,1.586-2.98,3.182-4.493,4.772c-3.864,4.089-7.431,7.797-10.716,11.161c6.048,2.454,11.439,4.188,15.312,5.292
		c0.025,0.009,0.057,0.018,0.08,0.021c0.604,0.173,1.148,0.32,1.674,0.466c0.023,0,0.057,0.004,0.078,0.004
		c0.531,0,1.021-0.051,1.487-0.146c0.446-0.141,0.899-0.284,1.353-0.442c-0.896-0.221-2.084-0.521-3.531-0.931
		C213.543,288.997,212.016,279.658,210.312,274.818z"/>
	<path id="ShoeBorder" fill="#353535" d="M209.382,294.217c-0.006-0.002-0.012-0.004-0.021-0.006
		c-3.615-1.055-8.411-2.614-13.771-4.764c-0.492,0.511-0.984,1.017-1.473,1.512c8.343,3.396,15.441,5.4,19.104,6.326l0,0l0,0
		c-0.539,0.113-1.1,0.174-1.703,0.174c-3.229,0-8.646-1.639-18.312-5.565c-0.584,0.599-1.16,1.184-1.729,1.756
		c12.262,5.021,16.938,6.088,20.039,6.088c0.795,0,1.529-0.076,2.252-0.234c0.045-0.01,0.09-0.021,0.137-0.036
		c3.3-1.027,8.818-2.755,9.587-11.183c0.819-11.312-6.742-15.428-11.188-16.438c-0.621,0.67-1.244,1.338-1.871,2.012l0.119,0.008
		c3.236,0.248,11.465,3.295,10.67,14.242c-0.429,4.688-2.537,6.795-4.807,7.969c0.001,0,0.001,0.001,0.002,0.001
		c-0.055-0.021-0.104-0.06-0.161-0.068c-0.046-0.01-1.905-0.396-5-1.252c2.683-6.391,0.858-16.247-0.928-20.79
		c-0.494,0.528-0.991,1.062-1.489,1.591c1.551,4.531,2.951,13.237,0.52,18.66L209.382,294.217z M168.865,337.763
		c0.354,0.062,0.59,0.398,0.527,0.753c-0.063,0.354-0.401,0.588-0.753,0.526c-2.011-0.354-6.496,0.075-8.253,2.712
		c-0.125,0.188-0.332,0.29-0.542,0.29c-0.124,0-0.249-0.036-0.36-0.109c-0.299-0.195-0.379-0.604-0.181-0.897
		C161.322,338.008,166.204,337.293,168.865,337.763z M164.968,336.866c0.35,0.062,0.69-0.173,0.753-0.525
		c0.063-0.354-0.173-0.688-0.527-0.753c-2.662-0.471-7.543,0.243-9.561,3.271c-0.199,0.299-0.118,0.698,0.181,0.897
		c0.111,0.072,0.236,0.108,0.36,0.108c0.21,0,0.416-0.104,0.542-0.29C158.471,336.943,162.954,336.515,164.968,336.866z
		 M162.044,334.76c0.351,0.062,0.69-0.173,0.753-0.522c0.063-0.354-0.173-0.69-0.527-0.753c-2.662-0.473-7.543,0.24-9.561,3.271
		c-0.199,0.299-0.118,0.701,0.181,0.9c0.111,0.069,0.236,0.105,0.36,0.105c0.21,0,0.416-0.103,0.542-0.29
		C155.548,334.836,160.035,334.405,162.044,334.76z M178.918,339.309c-0.37-0.146-0.708-0.28-1-0.421
		c-2.67-1.247-11.896-6.869-12.819-7.72c-1.078-1.077-7.221-2.444-12.589-2.444c-7.353,0-12.435,2.35-14.697,6.783
		c-2.671,5.236-1.937,9.762,2.194,13.458l0.104,0.091c6.796,5.972,19.537,16.103,28.592,16.902c0.969,0.036,2.003,0.069,3.066,0.069
		c0.004,0,0.007,0,0.011,0c3.829,0,15.424-0.016,16.051-12.117C188.391,343.125,182.228,340.643,178.918,339.309z M171.874,362.491
		c4.324,0,8.37-1.298,12.016-3.899c-0.788,1.445-2.541,3.362-5.366,4.148c-2.703,0.752-3.89,0.791-7.222,0.914
		c-1.041,0.038-2.048-0.031-2.949-0.064c-6.084-0.542-16.002-6.499-27.212-16.344l-0.098-0.086
		c-1.924-1.723-2.603-2.604-2.813-4.242c2.405,3.405,6.346,6.267,11.057,9.686c0.851,0.617,1.728,1.257,2.612,1.905
		C158.89,359.822,165.667,362.491,171.874,362.491z M185.102,353.632c-0.016,0.427-0.104,1.077-0.162,1.469
		c-0.015,0.104-0.055,0.487-0.069,0.593h0.069c-7.628,6.841-16.304,6.1-23.604,2.713v-0.378c0.153-1.737,1.39-8.008,5.799-12.202
		c2.907-2.771,6.626-4.061,11.074-3.839c0.218,0.017,0.427-0.051,0.598-0.166l0.982,0.482
		C182.539,343.896,185.363,346.021,185.102,353.632z M139.459,341.249h0.007c0.009-1.509,0.568-2.944,1.241-4.266
		c2.111-4.145,7.583-5.014,11.802-5.014c5.03,0,9.572,1.211,10.441,1.629c1.292,1.104,6.974,4.591,10.775,6.729
		c-3.037,0.58-5.693,1.941-7.937,4.078c-4.364,4.15-5.892,10.021-6.298,12.691l-0.003,0.006c-2.302-1.229-4.465-2.676-6.423-4.16
		c-0.9-0.663-1.781-1.306-2.636-1.924C145.605,347.522,141.625,344.635,139.459,341.249z"/>
	<path id="Pants" fill="#9B9B9B" d="M173.39,267.811c-2.441-3.808-5.072-7.951-6.442-11.062c-2.12-4.815-7.938-13.328-12.976-19.794
		l0.004,0.001c0,0,8.366-2.415,16.221-5.938c7.854-3.521,13.271-7.312,13.271-7.312s-4.332,9.209-4.603,15.709
		c-0.046,1.104-0.108,2.473-0.179,3.979c10.388-4.31,21.076-8.703,30.476-12.5c1.945-5.918,3.688-11.412,4.369-13.688
		c0.173-0.576,0.371-1.113,0.582-1.637c-0.354-0.028-0.713-0.062-1.037-0.105c-5.006-0.396-9.795-2.604-14.023-4.562
		c-3.773-1.738-7.332-3.368-10.061-3.259c-6.3,0.279-23.68,2.562-29.813,3.677l-1.21,0.223c-4.496,0.818-8.047,1.47-10.13,1.47
		c-1.051,0-1.754-0.167-2.279-0.543c-1.395-0.998-1.964-3.886-1.995-5.472c-0.032-1.595,0.383-2.735,1.233-3.396
		c2.033-1.579,25.756-4.482,28.601-4.747c1.543-0.145,3.232-0.37,5.02-0.609c3.377-0.453,6.869-0.92,10.021-0.92
		c2.02,0,3.67,0.192,5.061,0.589c1.771,0.507,4.046,1.539,6.68,2.735c4.799,2.179,10.768,4.891,15.133,4.891l0.121-0.001
		c0.405-0.055,0.807-0.102,1.207-0.148c-0.209-1.422-0.658-3.039-1.479-4.975c-3.792-8.938-5.146-12.188-18.417-10.562
		c-13.271,1.625-33.042,5.958-37.104,6.229c0,0-60.395,4.983-66.57,10.508h-0.65c-7.8,4.875-9.1,13.648-6.717,20.366
		c3.119,8.79,9.479,20.584,33.312,35.209s31.417,18.416,31.417,18.416s-1.354,1.354-1.354,3.25c0,1.896-0.542,3.792-1.896,4.334
		c-1.354,0.541-0.271,3.249-0.271,4.333c0,1.083,0.812,2.708-1.354,8.396c-2.167,5.688-4.604,16.521-4.333,18.416
		c0.271,1.896-2.979,4.063-2.708,5.146c0.271,1.085,2.167,2.168,1.083,5.146c-1.083,2.979-4.062,5.688-2.167,6.771
		c1.896,1.082,15.167,1.354,18.417,1.896s9.208-1.354,8.938-5.688c-0.036-0.562,0.326-1.132,0.327-1.764
		c0.001-0.606-0.361-1.275-0.328-1.931c0.196-3.896,0.956-8.378,2.167-11.205c1.625-3.792,8.396-15.708,9.208-21.938
		c0.812-6.229,2.708-15.708,2.708-18.146l1.613-0.207c1.484-0.117,2.955-0.246,4.282-0.313c5.783-6.019,11.771-12.24,17.377-18.062
		c-0.688-2.746-1.562-5.332,0.021-8.496c0.648-1.306,1.796-4.354,3.115-8.125c-8.09,3.444-17.573,7.5-27.104,11.574
		c-0.214,4.272-0.389,7.653-0.389,7.653s-1.614,2.115-3.378,4.756L173.39,267.811z"/>
	<path id="PantsBorder" fill="#515151" d="M212.441,215.382c-0.166,0.434-0.323,0.877-0.469,1.354
		c-0.718,2.383-2.675,8.546-4.791,14.957c1.342-0.543,2.654-1.073,3.945-1.594c1.846-5.646,3.417-10.64,3.956-12.435
		c0.212-0.706,0.476-1.36,0.748-2.005c-0.991-0.021-1.933-0.08-2.761-0.204C212.861,215.443,212.652,215.404,212.441,215.382z
		 M200.398,258.771c0.144,0.556,0.277,1.095,0.396,1.633c0.896-0.934,1.788-1.857,2.667-2.771c-0.583-2.272-0.982-4.13,0.146-6.393
		c0.771-1.551,2.146-5.272,3.688-9.715c-1.312,0.559-2.666,1.136-4.057,1.728c-1.088,3.05-2.002,5.453-2.541,6.534
		C198.973,253.247,199.729,256.184,200.398,258.771z M91.553,205.208c-8.648,5.405-9.941,15.089-7.387,22.287
		c3.407,9.604,10.111,21.396,33.994,36.051c17.917,10.995,26.62,15.854,29.915,17.63c-0.344,0.716-0.627,1.615-0.627,2.651
		c0,1.604-0.451,2.655-0.873,2.825c-2.231,0.891-1.714,3.541-1.437,4.966c0.057,0.292,0.143,0.731,0.143,0.876
		c0,0.25,0.028,0.521,0.067,0.842c0.122,0.998,0.325,2.67-1.315,6.979c-2.012,5.278-4.783,16.713-4.424,19.224
		c0.023,0.38-0.87,1.462-1.25,1.923c-0.857,1.039-1.744,2.113-1.426,3.391c0.144,0.572,0.453,1.037,0.725,1.447
		c0.528,0.794,0.91,1.366,0.408,2.749c-0.321,0.882-0.864,1.781-1.389,2.652c-0.954,1.582-1.777,2.949-1.404,4.385
		c0.13,0.498,0.469,1.196,1.347,1.699c1.308,0.747,4.743,1.07,12.455,1.561c2.765,0.176,5.376,0.341,6.5,0.526
		c0.428,0.071,0.9,0.104,1.401,0.104c2.361,0,5.356-0.811,7.333-2.593c1.486-1.341,2.209-3.037,2.093-4.868
		c0.011-0.112,0.056-0.229,0.091-0.352c0.101-0.34,0.238-0.805,0.239-1.348c0.001-0.501-0.119-0.95-0.216-1.312
		c-0.047-0.179-0.119-0.445-0.114-0.536c0.204-4.057,1.004-8.23,2.038-10.646c0.398-0.933,1.159-2.446,2.041-4.206
		c2.805-5.6,6.646-13.261,7.286-18.161c0.345-2.646,0.882-5.854,1.402-8.95c0.54-3.224,1.024-6.111,1.224-7.979h-0.001
		c0.329-0.023,0.649-0.051,0.99-0.075c0.587-0.05,1.153-0.095,1.708-0.138c1.104-1.146,2.219-2.31,3.338-3.475
		c-0.486,0.039-0.961,0.073-1.408,0.096c-1.213,0.058-2.521,0.16-3.9,0.272c-0.323,0.025-0.69,0.058-1.081,0.087l0.001,0.002
		c-0.672-1.596-2.137-3.962-4.681-7.931c1.221-1.864,2.555-3.742,3.715-5.264c0.199-0.263,0.314-0.574,0.331-0.899
		c0.004-0.077,0.199-3.854,0.429-8.45c-1.108,0.476-2.217,0.948-3.326,1.424c-0.148,2.938-0.272,5.356-0.324,6.359
		c-0.597,0.794-1.624,2.188-2.741,3.833v0.001c-1.981-3.124-3.927-6.326-5.007-8.78c-1.998-4.539-7.059-12.062-11.754-18.271
		l-0.001,0.005c3.038-0.964,8.692-2.865,14.183-5.327c3.688-1.649,6.833-3.354,9.161-4.714c-1.238,3.325-2.625,7.817-2.782,11.561
		c-0.053,1.277-0.128,2.926-0.214,4.736c1.102-0.457,2.208-0.916,3.317-1.375c0.056-1.213,0.105-2.312,0.144-3.228
		c0.2-4.795,2.817-11.334,3.942-13.942h0.001c1.36,0.755,3.513,1.646,6.25,1.735c0.012,0.002,0.022,0.002,0.034,0.002
		c0.537,0,0.979-0.426,0.999-0.967c0.02-0.555-0.413-1.018-0.965-1.033c-2.264-0.078-4.08-0.81-5.236-1.428
		c1.502-0.758,3.814-2.031,6.041-3.736c0.438-0.336,0.521-0.963,0.188-1.4c-0.333-0.437-0.968-0.521-1.402-0.188
		c-2.312,1.771-4.771,3.074-6.15,3.744l0.006-0.02c-0.524-0.267-1.163-0.229-1.66,0.121c-0.053,0.037-5.378,3.741-13.003,7.16
		c-6.076,2.725-12.525,4.795-14.974,5.547l-0.001-0.004c-1.843-2.337-3.538-4.343-4.849-5.722
		c-5.185-5.459-10.291-9.237-10.506-9.396c-0.722-0.533-1.74-0.379-2.271,0.345c-0.533,0.725-0.379,1.739,0.343,2.271
		c0.05,0.035,5.099,3.777,10.078,9.021c4.853,5.109,15.11,18.993,18.107,25.81c1.49,3.388,4.379,7.889,6.928,11.855
		c1.992,3.104,4.72,7.354,4.851,8.344c0,1.258-0.648,5.125-1.276,8.865c-0.524,3.128-1.066,6.362-1.419,9.066
		c-0.568,4.354-4.42,12.041-6.968,17.126c-0.942,1.88-1.686,3.363-2.123,4.383c-1.424,3.322-2.12,8.256-2.297,11.764
		c-0.03,0.603,0.109,1.119,0.22,1.537c0.042,0.154,0.104,0.394,0.106,0.469c0,0.076-0.061,0.282-0.105,0.437
		c-0.114,0.386-0.255,0.863-0.219,1.437c0.055,0.87-0.281,1.619-1.025,2.29c-1.558,1.407-4.336,1.977-6.023,1.692
		c-1.288-0.215-3.855-0.377-6.829-0.564c-3.472-0.22-9.117-0.573-10.751-1.032c0.188-0.455,0.623-1.177,0.932-1.688
		c0.577-0.956,1.23-2.041,1.659-3.221c1.063-2.925-0.121-4.704-0.756-5.66c-0.038-0.058-0.081-0.12-0.122-0.185
		c0.171-0.235,0.431-0.555,0.623-0.784c0.986-1.193,2.214-2.686,1.961-4.445c-0.172-1.427,1.988-11.691,4.243-17.609
		c1.927-5.06,1.662-7.229,1.504-8.522c-0.021-0.17-0.043-0.314-0.043-0.448c0-0.456-0.099-0.962-0.203-1.498
		c-0.073-0.374-0.211-1.084-0.21-1.479c0.603-0.312,1.111-0.785,1.513-1.396l-0.004-0.003c0.117,0.188,0.228,0.395,0.313,0.629
		c0.147,0.406,0.531,0.658,0.939,0.658c0.114,0,0.229-0.021,0.342-0.062c0.519-0.188,0.787-0.766,0.598-1.279
		c-0.341-0.938-0.887-1.614-1.348-2.063h0.009c0.144-0.656,0.218-1.384,0.218-2.169c0-0.776,0.387-1.446,0.646-1.812l0.001,0.002
		c0.825,0.438,1.957,1.27,2.894,2.817c0.188,0.312,0.518,0.48,0.857,0.48c0.176,0,0.354-0.046,0.516-0.146
		c0.473-0.285,0.625-0.897,0.339-1.373c-1.277-2.113-2.874-3.188-3.987-3.723l-0.059-0.171c0.5-0.845,1.252-1.886,2.125-2.444
		c0.465-0.3,0.599-0.918,0.301-1.384c-0.298-0.464-0.917-0.603-1.382-0.3c-1.147,0.735-2.047,1.938-2.639,2.897l-0.006-0.004
		c-2.565-1.36-11.254-6.127-30.443-17.901c-23.021-14.127-29.414-25.302-32.631-34.367c-2.12-5.978-1.073-13.994,6.047-18.443
		l1.883-0.803c7.41-3.609,42.757-7.662,64.584-9.463c1.845-0.123,6.504-0.993,12.403-2.094c7.701-1.437,17.288-3.225,24.792-4.145
		c12.031-1.476,13.021,0.858,16.726,9.584c0.744,1.756,1.165,3.211,1.358,4.479c0.097,0.002,0.189,0.012,0.285,0.012l0.119-0.001
		c0.967-0.124,1.902-0.234,2.817-0.345c-0.229-1.572-0.724-3.359-1.612-5.46c-3.861-9.108-5.627-13.268-20.091-11.494
		c-7.604,0.931-17.246,2.729-24.991,4.175c-5.564,1.039-10.37,1.936-12.049,2.047c-5.761,0.476-53.028,4.505-65.251,9.626
		L91.553,205.208z"/>
	<path id="Body" fill="#FFFFFF" d="M161.353,215.32c-0.126,0-0.255-0.004-0.387-0.012c-2.155-0.102-2.78-1.371-2.884-1.627
		l-0.286-1.063c-0.008-1.103-0.139-3.211-0.906-5.205c0.783,2.035,0.904,4.205,0.905,5.339v0.579l-0.502,0.289
		c-0.781,0.448-2.454,1.231-3.729,0.972c-1.833-0.362-2.205-4.042-2.28-5.604c-0.016-0.344-0.056-0.824-0.105-1.408
		c-0.662-7.9-0.046-11.94,1.997-13.099c3.258-1.846,9.332-2.788,10.517-2.958l0.11-0.01c0.673-0.021,1.379-0.082,2.102-0.144
		c0.937-0.08,1.905-0.162,2.856-0.162c2.682,0,5.632,0.584,7.18,4.915c1.92,5.377,1.905,7.954,1.89,10.683
		c-0.004,0.646-0.007,1.287,0.016,1.969c0.125,3.604-0.699,5.118-2.84,5.217l-0.229,0.008h-0.001c-0.87,0-1.42-0.203-1.767-0.44
		h-0.399l-0.315-1.354l0.042-0.212c0.288-1.451,0.628-4.286-0.319-6.953c0.708,1.994,0.679,4.106,0.529,5.526l-0.044,0.207l-0.655,2
		c-0.327,1.011-1.334,2.223-3.089,2.302c-1.485,0.067-2.461-0.271-2.962-0.56l-0.58-0.334l0.085-0.66
		c0.065-0.515,0.142-1.256,0.178-2.129c-0.036,0.828-0.11,1.573-0.187,2.174l-0.053,0.414l-0.33,0.252
		C164.577,214.484,163.333,215.32,161.353,215.32z M280.061,181.126l1.57-2.651c-0.021,0.035-0.046,0.067-0.068,0.103
		c-0.442,0.649-1.215,1.531-2.348,2.038l-0.172,0.077l-0.188,0.009c-0.758,0.038-1.498,0.062-2.191,0.062
		c-2.385,0-3.807-0.219-4.58-0.401l-3.805-0.9l3.77-1.038c0.438-0.119,0.914-0.18,1.336-0.232c0.416-0.053,0.797-0.102,1.08-0.196
		c0.608-0.203,1.812-1.148,2.473-2.536c0.522-1.106,0.576-2.225,0.156-3.321c-0.968-2.284-2.203-2.552-3.048-2.552
		c-0.44,0-0.86,0.084-1.325,0.188l-0.521,0.115l-0.388-0.372l-4.277-0.19l1.535,1.75l-1.105,0.596
		c-0.904,0.487-1.896,1.041-2.969,1.647c-0.821,0.464-1.604,0.904-1.969,1.086l-0.182,0.091l-0.205,0.012
		c-1.021,0.059-3.492-0.521-6.393-1.247c-0.771-0.193-1.396-0.348-1.926-0.474l-0.741-0.175l-0.024-0.76
		c-0.078-2.021,0.033-3.58,0.336-4.633c0.353-1.227,1.135-2.802,1.824-4.19c0.284-0.573,0.528-1.068,0.74-1.522l0.223-0.472
		l0.514-0.09c1.662-0.292,3.891-0.721,6.334-1.192c6.593-1.27,14.115-2.737,15.848-2.563c2.439,0.238,4.691,3.635,6.336,6.116
		l0.426,0.638c2.539,3.81,4.729,7.599,3.549,9.5c-0.17,0.306-0.556,0.847-1.006,1.408l-1.724,2.141l-0.056-2.592
		c-0.026,1.046-0.486,2.396-1.178,3.38l-0.199,0.212c-0.785,0.619-1.582,1.138-2.369,1.543L280.061,181.126z M151.046,145.213
		h-0.003c-8.58-0.001-16.587-8.637-20.597-13.784c-5.599-7.188-8.926-14.617-9.175-17.219l-0.103-1.071l1.076-0.023
		c4.792-0.104,8.328-1.195,9.708-2.229c1.448-1.087,2.185-6.132,1.641-11.247l-0.12-1.131l1.136,0.025
		c10.327,0.229,23.02,1.039,26.482,2.281l0.94,0.337l-0.336,0.94c-1.147,3.21-1.98,7.995-1.98,11.381
		c0,3.707,6.347,5.712,9.397,6.676l0.583,0.184l0.224,0.642c0.406,2.396-0.667,9.578-4.25,15.36
		c-3.404,5.496-8.053,8.475-13.819,8.852C151.58,145.205,151.314,145.213,151.046,145.213z"/>
	<path id="Face" fill="#FFFFFF" d="M151.241,107.728c-9.232,0-20.807-8.977-26.924-20.878c-3.523-6.855-4.245-13.255-4.245-20.755
		c0-25.326,10.487-38.168,31.169-38.168c20.1,0,31.169,13.555,31.169,38.168c0,8.173-1.224,14.127-4.224,20.551
		C172.576,98.664,160.992,107.728,151.241,107.728z"/>
	<path id="FaceBorder" fill="#212121" d="M287.896,174.22c0.474-0.588,0.799-1.062,0.937-1.309c1.003-1.617-2.292-6.56-3.532-8.42
		l-0.425-0.639c-1.446-2.184-3.632-5.481-5.603-5.673c-0.058-0.006-0.116-0.008-0.189-0.008c-2.089,0-9.451,1.418-15.367,2.559
		c-2.451,0.472-4.685,0.901-6.351,1.194c0.546-1.171,0.851-2.04,0.778-2.782c1.479-0.273,3.254-0.614,5.078-0.966
		c6.34-1.222,13.521-2.604,15.856-2.604c0.17,0,0.315,0.007,0.44,0.019c3.201,0.313,5.597,3.924,7.519,6.825l0.421,0.633
		c2.768,4.146,5.316,8.427,3.604,11.186c-0.881,1.572-5.562,7.697-11.826,8.05c-0.896,0.05-1.762,0.076-2.576,0.076
		c-6.221,0-7.082-1.367-7.366-1.816c-0.346-0.547-0.383-1.2-0.104-1.794c0.828-1.75,2.81-2,3.986-2.148
		c0.299-0.038,0.637-0.081,0.774-0.127c0.378-0.146,2.388-1.812,1.653-3.728c-0.662-1.563-1.252-1.563-1.566-1.563
		c-0.318,0-0.691,0.083-1.088,0.17c-0.307,0.067-0.604,0.132-0.893,0.17c-0.854,0.115-4.662,2.266-6.287,3.185
		c-1.037,0.586-1.787,1.01-2.188,1.196c-0.3,0.14-0.649,0.205-1.106,0.205c-1.434,0-4.084-0.664-6.646-1.306
		c-0.354-0.09-0.727-0.182-1.082-0.27c-0.083-0.77-0.162-1.729-0.2-2.723c0.536,0.126,1.162,0.281,1.913,0.47
		c2.137,0.534,5.135,1.286,6.109,1.226c0.354-0.178,1.119-0.608,1.925-1.062c1.079-0.61,2.073-1.167,2.985-1.657l0,0l-0.707-0.806
		c-0.268-0.301-0.322-0.73-0.149-1.091s0.552-0.583,0.942-0.567l4.283,0.182c0.256,0.012,0.481,0.116,0.65,0.28l-0.006,0.007
		c0.464-0.102,0.979-0.21,1.541-0.21c1.771,0,3.068,1.045,3.979,3.194c0.521,1.357,0.447,2.764-0.188,4.106
		c-0.744,1.572-2.135,2.748-3.061,3.058c-0.385,0.127-0.812,0.182-1.271,0.24c-0.393,0.049-0.828,0.104-1.194,0.206
		c0.802,0.188,2.177,0.375,4.351,0.375c0.683,0,1.401-0.021,2.146-0.061l0.001,0.003c0.89-0.396,1.521-1.099,1.933-1.695
		c1.063-1.55,1.358-3.413,1.223-3.979l-1.938-5.547c-0.185-0.521,0.094-1.091,0.612-1.273c0.521-0.181,1.095,0.095,1.271,0.615
		l1.968,5.634c0.305,1.202-0.076,3.344-1.175,5.189l-0.008-0.005c0.795-0.409,1.533-0.908,2.209-1.44l0.006,0.007
		c0.746-1.063,1.137-2.598,0.972-3.259l-1.778-5.583c-0.167-0.526,0.124-1.089,0.65-1.256c0.521-0.166,1.088,0.123,1.256,0.65
		l1.795,5.643C287.854,173.659,287.891,173.933,287.896,174.22L287.896,174.22L287.896,174.22z M121.375,85.918
		c-1.938-4.326-2.865-8.506-3.272-12.907c0,0.017-0.016-0.148-0.016-0.148c0.004,0.05,0.011,0.099,0.016,0.148
		c0-0.008-0.003-0.046-0.013-0.15l-0.204-3.297l-0.003,0.001c-0.042-1.135-0.06-2.29-0.06-3.47
		c0-33.406,18.173-40.418,33.419-40.418c21.238,0,33.419,14.731,33.419,40.418c0,1.225-0.027,2.401-0.082,3.54l-0.009-0.012
		l-0.243,3.32c-0.492,4.661-1.554,8.737-3.33,12.921c0,0-1.197,3.302-1.51,3.232l0,0c-3.92,7.589-10.115,13.926-16.706,17.562
		l-0.028,0.068c-0.481,2.298-0.789,4.784-0.789,6.745c0,0.938,1.357,2.485,7.825,4.53c0.284,0.09,0.53,0.167,0.73,0.234
		c0.546,0.182,1.167,0.588,1.495,1.818c-0.984,0.719-1.99,1.38-3.019,1.982c-0.003-0.364-0.025-0.669-0.063-0.897
		c-0.04-0.014-0.08-0.025-0.122-0.039c-3.277-1.036-10.096-3.191-10.096-7.63c0-1.527,0.162-3.311,0.44-5.104
		c0-0.005,0.001-0.01,0.002-0.016c-0.001,0.005-0.001,0.01-0.002,0.016c-2.669,1.042-5.348,1.609-7.914,1.609
		c-5.628,0-11.402-2.771-16.469-6.864l-0.003,0.036c-0.02,3.845-0.729,7.421-2.217,8.536c-1.541,1.154-5.28,2.319-10.286,2.429
		c0.062,0.64,0.351,1.655,0.843,2.926c-1.285-0.489-2.566-0.969-3.843-1.427c-0.157-0.688-0.247-1.309-0.247-1.833
		c0-2.008,1.248-2.907,2.483-2.907c4.632,0,8.11-1.045,9.1-1.788c0.493-0.607,1.226-4.444,0.786-8.926l-0.004-0.076
		c-3.395-3.345-6.316-7.207-8.444-11.039l0.006-0.003c-0.002,0-0.003,0.001-0.005,0.002L121.375,85.918z M151.241,28.927
		c-20.019,0-30.169,12.505-30.169,37.168c0,7.354,0.703,13.62,4.135,20.298c5.958,11.593,17.15,20.335,26.034,20.335
		c9.387,0,20.582-8.815,26.039-20.505c2.934-6.282,4.13-12.113,4.13-20.128C181.41,42.126,170.696,28.927,151.241,28.927z
		 M179.447,208.715c-0.023-0.655-0.021-1.276-0.015-1.899c0.016-2.748,0.032-5.586-1.983-11.229
		c-1.914-5.357-5.874-5.978-8.686-5.978c-1.017,0-2.021,0.085-2.992,0.168c-0.716,0.061-1.416,0.122-2.081,0.14l-0.139,0.012
		c-0.3,0.041-7.382,1.021-11.163,3.161c-3.844,2.179-3.167,10.274-2.802,14.624c0.047,0.562,0.086,1.021,0.102,1.353
		c0.201,4.223,1.435,6.679,3.567,7.104c1.336,0.271,3.013-0.266,4.073-0.766c0.695,0.746,1.841,1.433,3.575,1.512
		c0.135,0.006,0.268,0.009,0.397,0.009c1.738,0,3.046-0.514,3.84-0.941c0.732,0.392,1.915,0.771,3.692,0.691
		c1.708-0.076,2.819-0.855,3.517-1.654c0.65,0.381,1.527,0.629,2.736,0.574C179.676,215.368,179.509,210.534,179.447,208.715z
		 M158.797,212.611c-0.01-1.34-0.18-3.631-1.067-5.793c-0.21-0.512-0.795-0.756-1.305-0.547c-0.511,0.211-0.755,0.795-0.546,1.306
		c0.79,1.924,0.916,4.034,0.917,5.177c-0.67,0.388-2.051,1.06-3.031,0.859c-0.631-0.125-1.342-1.771-1.48-4.676
		c-0.017-0.353-0.058-0.848-0.107-1.443c-0.224-2.668-0.903-10.788,1.493-12.146c3.168-1.795,9.458-2.737,10.166-2.838
		c0.69-0.021,1.414-0.083,2.155-0.146c0.917-0.078,1.865-0.159,2.771-0.159c2.833,0,4.978,0.724,6.238,4.251
		c1.861,5.212,1.847,7.704,1.832,10.341c-0.004,0.658-0.007,1.312,0.017,2.007c0.141,4.087-1.031,4.146-1.888,4.188l-0.209,0.006
		c-1.176,0-1.353-0.465-1.346-0.438l-0.086-0.371h0.001c0.297-1.51,0.675-4.572-0.359-7.482c-0.185-0.521-0.758-0.792-1.277-0.606
		c-0.52,0.185-0.792,0.757-0.607,1.276c0.632,1.779,0.626,3.687,0.479,5.089h-0.002l-0.655,1.999
		c-0.051,0.158-0.551,1.54-2.184,1.613c-1.368,0.07-2.122-0.256-2.419-0.426c0.245-1.922,0.571-6.347-1.013-9.646
		c-0.239-0.499-0.839-0.707-1.334-0.469c-0.498,0.239-0.708,0.836-0.469,1.334c1.36,2.833,1.039,6.881,0.822,8.566
		c-0.187,0.146-1.358,0.979-3.281,0.877c-1.609-0.074-1.986-0.94-2.012-1.006C159.009,213.307,158.796,212.611,158.797,212.611z"/>
	<path id="Shirt_1_" fill="#ABFFC7" stroke="#87C99B" stroke-width="2" stroke-miterlimit="10" d="M128.914,110.485
		c2.194,3.199,8.592,11.792,20.932,11.883c12.34,0.091,17.001-4.296,17.001-4.296l-16.453,29.707L128.914,110.485z"/>
	<path id="collar" fill="#CCCCCC" d="M144.798,129.98l-3.349-2.256c-2.332-2.055-6.232-5.489-12.604-7.932
		c-2.588-1.097-4.661-1.441-6.327-1.72c-2.223-0.372-3.978-0.665-5.853-2.342c-1.068-0.956-1.592-2.094-1.557-3.38
		c0.063-2.296,1.852-4.32,2.789-5.07c0.722-0.577,1.434-0.709,2.188-0.849c1.081-0.2,2.199-0.408,3.446-1.968
		c1.242-1.552,4.22-2.259,6.462-2.259c1.356,0,2.061,0.248,2.359,0.396l0.628,0.311l-0.078,0.697
		c-0.15,1.339-0.296,2.229-0.414,2.944c-0.283,1.712-0.359,2.172,0.254,4.743c0.396,1.661,2.943,5.111,6.5,9.805
		c1.398,1.844,3.133,4.135,4.225,5.777L144.798,129.98z M159.865,129.294c-0.533,0-0.981-0.022-1.333-0.067l-1.557-0.201l0.84-1.326
		c0.581-0.917,2.132-2.334,3.806-3.829c2.04-1.82,4.149-3.702,3.982-4.618l-0.03-0.09c-0.542-1.382-1.782-2.21-2.876-2.939
		c-1.246-0.833-2.322-1.552-1.945-2.963c0.425-1.595,0.343-2.929,0.288-3.812l-0.063-1.264l0.883-0.142
		c2.979-0.478,11.119,0.902,15.362,5.752c5.769,6.594,7.846,9.236,6.749,10.844l-0.168,0.188
		C181.952,126.445,165.697,129.294,159.865,129.294z"/>
	<path id="sweatShirt" fill="#4B88EA" d="M115.108,112.352c0.063-2.296,1.852-4.32,2.789-5.07c0.722-0.577,1.434-0.709,2.188-0.849
		c0.817-0.151,1.663-0.309,2.568-1.061l1.362-1.13l0.265,1.75c0.26,1.714,1.172,3.661,2.958,6.312
		c1.183,1.755,3.172,4.206,5.912,7.283l3.388,3.807l8.302,8.554c1.814,3.155,3.524,6.823,5.038,11.087
		c0.088,0.25,0.324,0.416,0.586,0.416c0.392-0.052,0.615-0.301,0.627-0.599c0.175-4.304,2.34-9.413,6.743-13.353
		c0.528-0.473,5.896-0.458,7.833-0.667l3-0.167l0.473-0.26l2.494-2.31c1.612-1.493,3.061-3.099,4.306-4.771
		c1.113-1.494,1.605-2.981,1.504-4.547l-0.191-2.976l1.947,2.258c4.601,5.336,5.671,7.259,4.774,8.575l-0.168,0.188l-0.064,0.706
		c4.417,4.018,8.945,9.026,12.425,12.411c0.692,0.675,1.321,1.286,1.873,1.814c5.545,5.332,17.642,16.113,21.831,18.099
		c1.896,0.898,5.406,1.336,10.729,1.336c2.076,0,4.104-0.062,5.885-0.115l0.164,0.995l-0.026-1c1.272-0.039,2.394-0.072,3.235-0.072
		c2.832,0,3.906,1.186,4.615,1.969c0.127,0.141,0.264,0.282,0.409,0.419l0.488,0.456l-0.235,0.627
		c-0.048,0.123-0.094,0.251-0.141,0.383c0.048-0.135,0.095-0.265,0.143-0.392l0.229-0.601l0.642-0.043
		c0.785-0.053,2.362-0.434,4.866-1.052c0.958-0.237,2.126-0.525,3.116-0.75l2.027-0.459l-0.908,1.872
		c-0.17,0.349-0.346,0.702-0.504,1.021c-0.719,1.443-1.532,3.078-1.916,4.419c-0.612,2.145-0.409,5.515-0.232,7.334l0.105,1.096
		h-1.873c-1.416,0-2.961,0.764-4.729,2.332l-1.249,1.11l0.018,0.062l-0.703,0.726c-0.176,0.181-0.342,0.352-0.494,0.506
		c-1.235,1.238-3.371,1.766-7.141,1.766c-1.846,0-4.562,0.453-7.705,0.979c-2.91,0.485-5.9,0.984-8.596,1.19
		c-4.436,0.344-6.684-1.994-8.312-3.663c-0.354-0.36-0.674-0.688-0.979-0.952c-0.299-0.263-7.484-6.506-21.562-14.161
		c-8.047-4.376-14.069-8.234-17.667-10.54c-1.585-1.015-2.507-1.604-3.032-1.882l-0.775-0.412l0.308-0.822
		c0.938-2.506,2.599-6.104,5.181-9.058c-1.542,1.763-2.921,3.937-4.1,6.461l-1.545,3.309l-0.356-3.634
		c-0.108-1.104-0.271-2.183-0.489-3.232c0.563,2.728,0.661,5.184,0.629,6.878l-0.007,0.35l-0.222,0.269
		c-0.723,0.876-1.431,3.368-2.715,7.893c-0.441,1.555-0.938,3.304-1.499,5.206c-0.047,0.159-0.028,0.334,0.053,0.479
		c1.447,2.617,1.755,4.093,1,4.787l-0.182,0.133c-0.194,0.111-0.659,0.299-1.771,0.568c-2.366,0.49-12.429,1.629-14.17,1.694
		c1.443-0.055,8.568-0.841,12.377-1.396l1.279-0.188l-0.141,1.284c-0.465,4.248-0.37,8.631-0.285,12.499l0.063,3.194l-1.513-0.827
		c-5.026-2.749-8.621-4.491-10.396-5.039l-0.235-0.073l-0.174-0.173c-0.518-0.513-1.252-1.342-2.03-2.219
		c-2.571-2.901-4.835-5.366-6.587-6.243l-0.338-0.169l-0.142-0.351c-1.332-3.303-6.743-22.16-10.056-34.03
		c-0.091-0.324-0.44-0.526-0.773-0.433c-0.329,0.092-0.523,0.438-0.431,0.77c8.122,29.106,10.101,34.435,10.557,35.021
		c0.081,0.081,0.171,0.134,0.269,0.165c1.332,0.409,3.414,2.544,6.559,6.093c1.04,1.173,1.862,2.101,2.438,2.612
		c0.078,0.069,0.171,0.118,0.272,0.143c2.01,0.473,7.764,3.539,11.015,5.325l1.912,0.542l-2.453,0.5
		c-2.553,0.434-5.035,1.372-6.953,2.438c-3.76,2.088-3.288,6.699-3.271,9.069l0.008,1.555l-1.228-0.271
		c-3.159-0.722-11.766-3.26-17.352-5.046c-3.569-1.144-4.664-4.063-5.462-6.195c-0.229-0.613-0.427-1.141-0.662-1.563
		c-0.33-0.593-1.256-2.725-2.74-6.154c-2.367-5.467-5.608-12.953-7.857-17.201c-3.468-6.551-11.899-28.018-11.709-36.021
		c0.004-0.167-0.058-0.324-0.172-0.445c-0.115-0.121-0.271-0.189-0.438-0.194c-0.056-0.025-0.084,0.006-0.138,0.017l-0.815,0.174
		l0.591,3.968c1.535,10.302,8.811,27.86,11.577,33.086c2.226,4.205,5.456,11.666,7.812,17.113c1.547,3.57,2.439,5.623,2.795,6.264
		c0.189,0.341,0.381,0.854,0.583,1.396c0.839,2.238,2.105,5.62,6.252,6.946c0.049,0.016,5.632,1.778,10.769,3.265l8.383,2.427
		l-8.715-0.468c-4.395-0.234-9.161-0.453-14.239-0.453c-6.459,0-12.152,0.351-17.403,1.072
		c-14.286,1.964-17.747,10.725-20.273,17.115c-0.613,1.551-1.191,3.016-1.855,4.219c-0.183,0.331-0.346,0.612-0.491,0.854
		l-1.282,2.108l-0.544-2.405c-0.065-0.289-0.127-0.58-0.183-0.845c-0.236-1.104-0.504-2.354-0.91-3.514
		c-0.765-2.186-1.3-5-1.47-7.729L81.597,214l0.898,0.126c-0.356-0.073-0.7-0.188-1.035-0.348c-0.036-0.012-0.072-0.021-0.107-0.033
		l-0.266-0.146c-0.258-0.195-0.51-0.35-0.725-0.476c-0.913-0.531-1.206-0.901-1.259-2.175c-0.114-2.217,1.747-5.277,5.105-8.387
		c0.072-0.067,0.128-0.151,0.162-0.243l0.521-1.446l0.926,0.31c0.376,0.125,0.77,0.227,1.19,0.307
		c-0.99-0.189-1.852-0.509-2.708-0.985l-0.118-0.077c-0.245-0.186-0.509-0.315-0.758-0.431c-1.181-0.54-1.278-1.181-1.056-2.507
		c0.342-1.751,3.164-3.848,4.978-4.836c0.146-0.079,0.252-0.209,0.3-0.368c2.378-7.862,4.726-16.552,6.13-22.062
		c1.207-4.734,2.053-11.821,2.948-19.325c0.649-5.444,1.321-11.073,2.17-16.148l1.043-6.234l0.071,0.476
		c0.49-2.163,0.998-3.97,1.55-5.51c2.338-6.521,6.765-10.082,13.492-10.822L115.108,112.352z"/>
	<path id="collarBorder" fill="#979A9E" d="M137.151,125.484c1.51,1.117,2.703,2.167,3.637,2.99
		c1.531,1.349,2.456,2.163,3.434,2.164l0,0c0.283,0,0.549-0.069,0.792-0.206c0.317-0.18,0.534-0.479,0.61-0.846
		c0.257-1.238-1.24-3.355-5.584-9.088c-2.649-3.497-5.947-7.848-6.324-9.431c-0.566-2.377-0.51-2.716-0.241-4.348
		c0.122-0.741,0.29-1.756,0.453-3.283l0.006-0.107c0-0.638-0.384-2.124-3.94-2.124c-1.957,0-4.31,0.478-5.958,1.519
		c-0.504,0.317-0.943,0.689-1.285,1.116l1.56,1.249c0.237-0.296,0.574-0.56,0.977-0.789c1.261-0.716,3.171-1.095,4.706-1.095
		c1.093,0,1.682,0.177,1.916,0.292c-0.147,1.315-0.291,2.188-0.408,2.896c-0.31,1.877-0.365,2.478,0.269,5.136
		c0.441,1.854,2.93,5.233,6.675,10.176c1.39,1.834,3.114,4.109,4.189,5.729c-0.175-0.153-0.352-0.31-0.524-0.46
		c-1.132-0.998-2.627-2.314-4.588-3.691L137.151,125.484z M175.616,113.58c-3.63-3.371-9.332-4.619-12.508-4.619
		c-0.499,0-0.855,0.033-1.091,0.071c0.005,0.113,0.013,0.24,0.02,0.354c0.058,0.946,0.146,2.38-0.32,4.13
		c-0.17,0.637,0.155,0.953,1.534,1.874c1.157,0.771,2.597,1.732,3.284,3.5l0.052,0.183c0.255,1.399-1.383,2.94-4.3,5.543
		c-1.189,1.062-3.073,2.743-3.627,3.618c0.247,0.032,0.628,0.06,1.205,0.06c2.282,0,5.754-0.388,9.331-0.94l0.256,1.949
		c-4.02,0.604-7.741,0.991-9.586,0.991c-1.732,0-2.577-0.212-3.014-0.757c-1.285-1.603,1.094-3.725,4.105-6.413
		c1.261-1.125,3.335-2.976,3.631-3.708c-0.494-1.06-1.485-1.721-2.445-2.361c-1.299-0.868-2.917-1.948-2.356-4.054
		c0.382-1.435,0.309-2.624,0.256-3.492c-0.049-0.8-0.085-1.378,0.294-1.852l0.208-0.195c0.177-0.125,0.718-0.503,2.565-0.503
		c2.925,0,9.084,1.033,13.412,4.742L175.616,113.58z"/>
	<path id="sweatShirtBorder" fill="#164383" d="M156.851,129.537c0.349,0.437,0.968,0.656,2.083,0.729
		c-3.654,4.022-6.68,8.632-6.842,12.629c-0.031,0.777-0.61,1.424-1.38,1.541c-0.769,0.118-1.515-0.329-1.774-1.063
		c-1.945-5.478-4.213-9.936-6.602-13.587c0.709,0.545,1.289,0.854,1.887,0.854l0,0c0.283,0,0.549-0.069,0.792-0.206
		c0.317-0.18,0.534-0.479,0.61-0.846c0.045-0.219,0.033-0.467-0.037-0.755c1.601,2.542,3.138,5.424,4.556,8.712
		c1.391-3.254,3.763-6.575,6.462-9.581C156.417,128.535,156.468,129.06,156.851,129.537z M114.282,113.796
		c0.27,0.995,0.85,1.905,1.717,2.682c2.091,1.872,4.067,2.201,6.354,2.583c1.699,0.282,3.625,0.604,6.101,1.653
		c3.264,1.251,6.206,2.884,8.993,4.988c0.18,0.136,0.392,0.202,0.602,0.202c0.276,0,0.55-0.114,0.746-0.334
		c0.347-0.388,0.338-0.977-0.021-1.354c-2.385-2.511-8.202-8.753-10.707-12.471c-2.385-3.538-3.16-5.745-2.764-7.871
		c0.076-0.412-0.112-0.828-0.472-1.042c-0.359-0.213-0.815-0.182-1.141,0.083c-0.376,0.306-0.692,0.617-0.94,0.927
		c-1.015,1.27-1.824,1.42-2.848,1.609c-0.803,0.149-1.712,0.318-2.629,1.051c-0.864,0.691-2.191,2.15-2.817,3.973l0.003,0.002
		c-7.384,0.928-12.429,5.038-15.016,12.255c-2.43,6.777-3.711,17.521-4.951,27.911c-0.886,7.429-1.723,14.444-2.894,19.036
		c-1.362,5.345-3.615,13.689-5.917,21.349c-1.542,0.921-4.974,3.255-5.521,6.057c-0.458,2.72,0.5,3.929,1.692,4.638
		c-2.244,2.236-5.172,5.854-4.992,9.347c0.103,2.479,1.228,3.34,2.371,4.009c0.065,0.039,0.127,0.075,0.186,0.11
		c0.166,2.979,0.741,6.041,1.606,8.513c0.359,1.026,0.611,2.202,0.833,3.241c0.495,2.312,0.962,4.498,2.955,4.498
		c1.446,0,2.496-1.375,3.719-3.592c0.732-1.328,1.337-2.857,1.978-4.479c2.58-6.528,5.504-13.929,18.487-15.713
		c5.15-0.708,10.743-1.052,17.097-1.052c5.904,0,11.427,0.303,15.866,0.545c3.004,0.165,5.601,0.306,7.608,0.316
		c-0.042-0.502-0.086-1.043-0.126-1.62c-0.317-4.49-0.395-10.861,2.949-12.757c3.78-2.142,10.863-3.122,11.163-3.162l0.139-0.011
		c0.319-0.009,0.646-0.027,0.979-0.052c-0.338-0.193-0.76-0.434-1.249-0.709c-0.01-1.082-0.034-2.21-0.06-3.362
		c-0.082-3.75-0.174-7.958,0.236-11.929c0.587-0.175,1.017-0.347,1.341-0.532c2.997-1.712,1.343-5.494,0.359-7.359
		c0.487-1.662,0.923-3.198,1.316-4.583c0.664-2.336,1.343-4.732,1.823-6.061c0.539,0.337,1.221,0.774,1.922,1.224
		c3.625,2.321,9.693,6.21,17.805,10.621c13.821,7.517,20.864,13.622,21.157,13.879c0.263,0.229,0.541,0.518,0.85,0.832
		c1.712,1.748,4.639,4.752,10.096,4.332c2.795-0.215,5.979-0.745,8.785-1.214c2.922-0.486,5.684-0.947,7.34-0.947
		c3.118,0,6.596-0.288,8.732-2.427c0.182-0.182,0.379-0.385,0.59-0.603c1.26-1.298,3.367-3.471,4.977-3.471h2.604
		c0.476,0,0.922-0.206,1.229-0.563c0.31-0.356,0.443-0.833,0.377-1.3c-0.229-1.53-0.678-5.987-0.045-8.198
		c0.326-1.142,1.092-2.678,1.769-4.034c1.233-2.478,1.915-3.843,1.344-5.01c-0.259-0.527-0.737-0.896-1.317-1.012
		c-0.127-0.025-0.289-0.044-0.482-0.044c-0.938,0-2.826,0.454-5.824,1.195c-1.414,0.351-3.271,0.81-4.125,0.952
		c-0.021-0.023-0.045-0.05-0.064-0.076c-0.856-0.946-2.455-2.709-6.285-2.709c-0.885,0-2.057,0.035-3.396,0.076
		c-1.779,0.055-3.801,0.116-5.856,0.116c-4.911,0-8.195-0.376-9.767-1.119c-3.604-1.707-14.846-11.541-21.233-17.686
		c-0.55-0.527-1.175-1.136-1.86-1.805c-4.146-4.035-8.537-8.212-12.689-11.672l0.011,0.004c0.892-2.424-2.059-5.792-7.081-11.53
		c-0.499-0.57-1.069-1.147-1.697-1.717c-0.375-0.341-0.945-0.347-1.326-0.015c-0.382,0.331-0.457,0.896-0.174,1.315
		c2.105,3.124,2.212,5.519,0.358,8.009c-2.537,3.408-5.384,5.77-6.856,6.874c-0.366,0.274-0.499,0.764-0.322,1.186
		c0.157,0.376,0.524,0.614,0.922,0.614c0.049,0,0.099-0.003,0.149-0.011c1.825-0.274,9.233-1.435,13.23-2.797l-0.003-0.016
		c4.931,4.027,10.026,8.981,13.213,12.084c0.689,0.674,1.32,1.286,1.875,1.817c5.021,4.825,17.552,16.127,22.099,18.28
		c2.062,0.977,5.606,1.432,11.155,1.432c2.105,0,4.152-0.062,5.957-0.117c1.304-0.04,2.438-0.075,3.3-0.075
		c2.39,0,3.214,0.91,3.875,1.642c0.146,0.159,0.302,0.321,0.468,0.477c-0.949,2.515-1.839,6.688-1.604,10.047
		c0.183,2.585,0.656,4.853,0.992,6.198l0.035,0.146c-0.082,0.084-0.164,0.169-0.242,0.25c-0.197,0.204-0.387,0.396-0.559,0.566
		c-1.021,1.021-3.003,1.475-6.438,1.475c-1.928,0-4.684,0.46-7.875,0.991c-2.875,0.479-5.85,0.977-8.5,1.181
		c-3.918,0.299-5.936-1.742-7.521-3.366c-0.372-0.38-0.713-0.725-1.03-1.004c-0.306-0.267-7.608-6.602-21.744-14.288
		c-8.011-4.356-14.018-8.204-17.604-10.503c-1.697-1.087-2.557-1.633-3.102-1.923c0.85-2.27,2.477-5.887,5.038-8.796
		c0.365-0.415,0.325-1.046-0.09-1.411c-0.415-0.366-1.047-0.324-1.412,0.09c-1.899,2.159-3.308,4.627-4.298,6.747
		c-0.15-1.535-0.431-3.292-0.934-5.128c-0.146-0.533-0.697-0.85-1.229-0.7c-0.533,0.146-0.846,0.696-0.7,1.229
		c0.929,3.396,1.041,6.557,1.008,8.325c-0.854,1.033-1.528,3.397-2.907,8.255c-0.44,1.553-0.936,3.298-1.496,5.196
		c-0.123,0.417-0.074,0.866,0.136,1.246c1.585,2.868,1.265,3.506,1.199,3.567c-0.032,0.018-1.396,0.443-1.355,0.435
		c-1.991,0.453-12.419,1.636-14.135,1.698c-0.552,0.02-0.983,0.482-0.963,1.036c0.021,0.54,0.463,0.964,0.999,0.964
		c0.012,0,0.024,0,0.037,0c1.506-0.055,8.693-0.853,12.496-1.407c-0.467,4.262-0.377,8.69-0.291,12.629
		c0.011,0.496,0.021,0.984,0.03,1.468l-0.003-0.002c-3.683-2.014-8.286-4.406-10.577-5.114c-0.496-0.492-1.227-1.316-1.993-2.182
		c-2.709-3.057-4.981-5.515-6.881-6.465c-1.303-3.229-6.735-22.153-10.021-33.924c-0.242-0.864-1.135-1.368-2.002-1.128
		c-0.864,0.242-1.37,1.138-1.128,2.002c9.54,34.184,10.472,35.116,10.823,35.467c0.188,0.188,0.418,0.326,0.671,0.404
		c1.326,0.408,4.435,3.916,6.105,5.8c1.063,1.199,1.902,2.146,2.522,2.697c0.202,0.18,0.445,0.306,0.708,0.368
		c1.644,0.387,6.384,2.822,10.763,5.228c-2.18,0.371-4.711,1.069-7.057,2.373c-4.279,2.377-4.245,6.885-4.227,9.308
		c0.001,0.096,0.001,0.197,0.002,0.302c-3.215-0.733-11.881-3.3-17.269-5.024c-3.108-0.995-4.063-3.544-4.831-5.593
		c-0.244-0.652-0.455-1.214-0.724-1.698c-0.322-0.579-1.422-3.122-2.697-6.066c-2.374-5.481-5.625-12.99-7.891-17.271
		c-3.433-6.484-11.78-27.682-11.593-35.528c0.021-0.896-0.688-1.642-1.586-1.663c-0.086-0.002-0.37,0.039-0.37,0.039
		c0.479-2.172,1.01-4.146,1.614-5.831c2.087-5.822,5.965-9.124,11.786-10.035L114.282,113.796z M245.268,176.747
		c-0.268-1.253-0.553-2.913-0.679-4.719c-0.228-3.243,0.683-7.09,1.483-9.208c0.871-0.059,2.451-0.439,5.039-1.079
		c0.928-0.229,2.103-0.52,3.098-0.745c-0.168,0.346-0.343,0.698-0.499,1.012c-0.737,1.481-1.575,3.16-1.983,4.59
		c-0.642,2.244-0.47,5.605-0.267,7.705h-0.771c-2.025,0-3.873,1.235-5.396,2.584L245.268,176.747z M183.146,124.075
		c-0.645,0.563-5.017,1.729-10.833,2.756c1.378-1.275,2.952-2.924,4.428-4.906c1.382-1.855,1.802-3.614,1.7-5.208
		C181.429,120.182,183.776,123.152,183.146,124.075z M129.203,118.86c-2.662-1.129-4.801-1.486-6.521-1.773
		c-2.143-0.357-3.691-0.615-5.35-2.101c-0.851-0.762-1.251-1.615-1.224-2.608c0.049-1.789,1.471-3.562,2.414-4.315
		c0.525-0.42,1.063-0.521,1.745-0.646c0.877-0.163,1.918-0.355,3.024-1.272c0.289,1.903,1.277,3.988,3.118,6.72
		c1.396,2.071,3.705,4.818,5.994,7.39C131.365,119.744,130.3,119.281,129.203,118.86z M129.589,200.534
		c0.096,0.031,5.632,1.779,10.797,3.273h-0.002c-4.144-0.223-9.058-0.455-14.293-0.455c-6.504,0-12.242,0.354-17.54,1.083
		c-14.865,2.044-18.45,11.114-21.067,17.737c-0.601,1.521-1.169,2.958-1.801,4.104c-0.175,0.316-0.331,0.586-0.469,0.812
		c-0.064-0.281-0.125-0.568-0.181-0.828c-0.242-1.133-0.517-2.415-0.944-3.637c-0.741-2.115-1.252-4.842-1.415-7.45
		c0.278,0.039,0.563,0.06,0.854,0.06c1.069,0,2.231-0.26,3.505-0.775c0.512-0.208,0.757-0.791,0.549-1.307
		c-0.208-0.512-0.794-0.76-1.304-0.549c-2.435,0.989-3.717,0.612-4.469,0.239l-0.113-0.028c-0.295-0.228-0.581-0.396-0.826-0.541
		c-0.631-0.369-0.728-0.426-0.766-1.354c-0.098-1.899,1.691-4.747,4.786-7.61c0.189-0.176,0.333-0.393,0.422-0.635l0.192-0.531
		c1.204,0.4,2.53,0.578,4.175,0.578c0.552,0,1-0.448,1-1c0-0.553-0.448-1-1-1c-2.269,0-3.734-0.354-5.228-1.269
		c0.112,0.068,0.224,0.127,0.336,0.189c-0.332-0.251-0.676-0.419-0.946-0.542c-0.571-0.262-0.674-0.309-0.486-1.433
		c0.228-1.167,2.498-3.049,4.47-4.123c0.375-0.204,0.655-0.548,0.778-0.957c2.382-7.875,4.735-16.582,6.143-22.104
		c1.223-4.797,2.072-11.917,2.972-19.454c0.656-5.501,1.326-11.098,2.164-16.103l0.035,0.249
		c1.626,10.407,8.882,27.935,11.648,33.158c2.207,4.168,5.428,11.609,7.78,17.042c1.603,3.702,2.457,5.666,2.839,6.354
		c0.151,0.271,0.331,0.752,0.521,1.26C123.556,195.257,124.98,199.059,129.589,200.534z"/>
	<path id="holes" fill="#28A8C6" d="M140.86,40.658c-2.792,2.792-6.579,3.532-8.458,1.652c-1.879-1.879-1.14-5.666,1.652-8.458
		s6.58-3.532,8.459-1.653C144.393,34.079,143.652,37.866,140.86,40.658z M160.752,40.658c2.792,2.792,6.579,3.532,8.458,1.652
		c1.879-1.879,1.14-5.666-1.653-8.458s-6.579-3.532-8.458-1.653C157.22,34.079,157.96,37.866,160.752,40.658z"/>
	<path id="holesBorder" fill="#0E7B87" d="M184.643,67.024c0.004-0.314,0.021-0.609,0.021-0.93c0-3.128-0.184-6.091-0.54-8.887
		c3.467,1.471,5.464,3.188,5.464,5.022C189.585,63.973,187.785,65.607,184.643,67.024z M118.353,56.862
		c-3.995,1.543-6.326,3.387-6.326,5.369c0,1.895,2.128,3.663,5.803,5.163c-0.005-0.431-0.008-0.863-0.008-1.3
		C117.822,62.756,118.011,59.693,118.353,56.862z M166.454,45.35c-2.403,0-5.063-1.226-7.116-3.277
		c-3.627-3.627-4.354-8.585-1.654-11.287c1.063-1.062,2.505-1.625,4.17-1.625c2.403,0,5.064,1.226,7.117,3.278
		c1.629,1.628,2.74,3.618,3.127,5.602c0.443,2.272-0.081,4.291-1.475,5.685C169.562,44.788,168.119,45.35,166.454,45.35z
		 M135.159,45.35c-1.666,0-3.107-0.562-4.171-1.625c-1.35-1.351-1.893-3.289-1.529-5.461c0.343-2.049,1.473-4.117,3.182-5.825
		c2.052-2.053,4.713-3.278,7.117-3.278c1.666,0,3.108,0.562,4.171,1.625c1.395,1.396,1.918,3.414,1.474,5.687
		c-0.388,1.982-1.499,3.973-3.127,5.602C140.222,44.125,137.562,45.35,135.159,45.35z M161.854,32.16
		c-0.594,0-1.432,0.129-2.048,0.746c-1.461,1.462-0.704,4.688,1.653,7.045c1.502,1.502,3.369,2.398,4.995,2.398
		c0.594,0,1.432-0.129,2.049-0.747c0.667-0.666,0.898-1.728,0.651-2.988c-0.274-1.405-1.092-2.845-2.304-4.056
		C165.347,33.057,163.48,32.16,161.854,32.16z M139.757,32.16c-1.626,0-3.493,0.897-4.996,2.399
		c-2.357,2.356-3.113,5.583-1.652,7.044c0.617,0.617,1.455,0.747,2.05,0.747c1.625,0,3.492-0.896,4.994-2.398
		c1.211-1.211,2.03-2.652,2.304-4.057c0.247-1.262,0.015-2.322-0.651-2.988C141.189,32.29,140.351,32.16,139.757,32.16z"/>
	<path id="helmet" fill="#4AD9FF" d="M187.766,47.92c0-26.143-20.057-36.284-36.958-36.284c-16.903,0-37.186,9.015-37.187,41.018
		c0,6.31,0.226,10.818,0.226,10.818s2.254-8.114,37.412-8.114c34.707,0,36.736,7.663,36.736,7.663L187.766,47.92z M144.42,36.279
		c-0.35,1.791-1.363,3.597-2.853,5.086c-1.869,1.869-4.264,2.984-6.408,2.984c-1.395,0-2.592-0.461-3.464-1.333
		c-2.305-2.306-1.579-6.642,1.652-9.872c1.869-1.869,4.265-2.985,6.41-2.985c1.395,0,2.592,0.46,3.463,1.332
		C144.372,32.644,144.798,34.344,144.42,36.279z M169.917,43.017c-0.871,0.872-2.069,1.333-3.463,1.333
		c-2.145,0-4.54-1.116-6.409-2.984c-3.231-3.23-3.957-7.568-1.653-9.873c0.872-0.872,2.069-1.332,3.463-1.332
		c2.144,0,4.54,1.116,6.41,2.985c1.49,1.489,2.503,3.296,2.853,5.087C171.495,40.166,171.069,41.866,169.917,43.017z"/>
	<path id="helmetBorder" fill="#1B9AAF" d="M115.411,63.906l-3.189-0.354c-0.002-0.046-0.228-4.622-0.228-10.899
		c0.001-39.568,29.708-42.643,38.812-42.643c19.206,0,38.584,11.722,38.584,37.909l0.228,15.076l-3.196,0.44
		c0,0,0.006,0.046,0.041,0.126c-0.029-0.066-3.352-6.58-35.206-6.58C119.327,56.982,115.43,63.837,115.411,63.906z M150.806,13.26
		c-10.692,0-35.561,3.838-35.562,39.393c0,2.729,0.043,5.132,0.091,6.968c4.121-2.698,13.693-5.889,35.921-5.889
		c21.415,0,30.875,2.894,35.053,5.423l-0.168-11.21C186.141,23.977,168.394,13.26,150.806,13.26z"/>
</g>
</svg>
