<?xml version="1.0" encoding="utf-8"?>
<!-- Generator: Adobe Illustrator 15.0.0, SVG Export Plug-In . SVG Version: 6.00 Build 0)  -->
<!DOCTYPE svg PUBLIC "-//W3C//DTD SVG 1.1//EN" "http://www.w3.org/Graphics/SVG/1.1/DTD/svg11.dtd">
<svg version="1.1" id="Layer_1" xmlns="http://www.w3.org/2000/svg" xmlns:xlink="http://www.w3.org/1999/xlink" x="0px" y="0px"
	 width="151px" height="253px" viewBox="0 0 151 253" enable-background="new 0 0 151 253" xml:space="preserve">
<g id="Blue.svg">
	<path id="Body" fill="#65CEFC" d="M57.374,236.831L57.374,236.831c-0.087,0-0.175-0.002-0.263-0.007
		c-3.234-0.159-6.194-3.188-8.41-5.808c-0.157-0.189-0.274-0.328-0.367-0.43l-0.182-0.207c-1.802-2.025-2.953-3.431-3.516-4.291
		l-0.638-0.976l0.787-0.858c3.562-3.89,22.269-20.969,26.702-24.844l1.78-1.524l0.982,1.42c1.247,1.981,2.5,3.953,3.763,5.93
		l0.702,1.098l-0.989,0.849c-2.406,2.063-4.25,3.663-5.433,4.764c-1.549,1.441-3.582,3.238-5.375,4.824
		c-5.706,5.045-8.091,7.263-8.091,7.937c0,0.3,0.312,0.627,1.079,1.357c1.274,1.217,3.184,3.041,3.194,5.272
		c0.004,1.287-0.64,2.563-1.915,3.796C60.025,236.259,58.742,236.831,57.374,236.831z M74.724,177.739
		c2.922,4.728,6.439,10.392,9.977,16.043c11.951,19.103,17.496,27.541,18.539,28.216c0.092,0.021,0.169,0.032,0.253,0.032
		c0.594,0,1.536-0.593,2.627-1.278c2.502-1.572,4.529-2.607,6.376-2.607c1.36,0,2.552,0.558,3.543,1.659
		c1.211,1.345,1.771,2.767,1.665,4.224c-0.246,3.26-3.726,6.121-5.398,7.495c-2.691,2.216-7.51,5.224-9.278,5.937l-0.836,0.338
		l-0.689-0.579c-2.217-1.86-9.187-10.957-18.22-24.743c-7.996-12.203-16.669-26.309-22.537-35.993l-0.902-0.502l-5.783-4.061
		c-7.358-5.166-12.195-12.942-13.62-21.896c0.002,0.009,0.01,0.041,0.017,0.066c-0.771-3.513-0.884-9.975-1.003-16.815
		c-0.12-6.748-0.255-14.397-1.025-20.619l-0.112-0.909l-0.124-0.531c-8.1,5.466-16.452,10.231-16.577,10.302
		c-1.116,0.767-2.704,1.219-4.262,1.219c0,0,0,0,0,0c-1.713,0-3.022-0.53-3.684-1.493c-0.666-0.969-0.699-2.375-0.092-3.96
		c0.551-1.438,1.569-2.796,2.657-3.546c0.149-0.117,10.091-7.887,18.742-13.807l-0.158-0.5l-0.603-1.901
		c-2.496-7.878-7.854-27.808-3.712-42.68c3.774-18.84,20.463-32.502,39.688-32.505c15.278,0,29.105,8.48,36.086,22.132
		c4.975,9.057,9.402,31.622,10.797,48.181l0.009,0.112l0.623,0.773l2.866,3.475c6.046,7.331,13.363,17.586,15.462,20.554l0.085,0.12
		c1.752,2.205,2.194,6.44,0.296,7.958c-0.551,0.436-1.26,0.654-2.111,0.654l0,0c-1.926,0-4.285-1.133-5.52-2.644l-0.028-0.031
		c-0.577-0.613-5.395-5.749-10.488-11.819l-0.359-0.429l-0.512,0.07c-0.315,17.841-2.482,36.404-16.078,51.882l0.16,0.654
		l0.753,2.422c1.56,5.021,3.284,14.412-2.682,20.899c-2.377,2.575-5.695,5.76-10.146,9.736l-1.324,1.185l-0.945-1.505
		c-1.238-1.972-2.503-3.992-3.779-6.037l-0.648-1.038l0.888-0.843c5.447-5.177,8.104-8.82,7.895-10.831
		c-0.132-1.277-0.314-2.473-0.543-3.553l-0.212-1.004l-0.328-0.424l-0.262,0.155c-3.962,2.285-9.137,3.981-13.844,4.537
		l-0.949,0.112L74.724,177.739z"/>
	<path id="BodyBorder" fill="#3D94B2" d="M81.611,213.57c5.002,7.639,16.988,25.464,20.32,26.082
		c0.063,0.012,0.144,0.017,0.223,0.017c2.875,0,11.34-6.532,11.424-6.603c1.886-1.562,5.814-4.793,6.115-8.896
		c0.146-2.023-0.584-3.945-2.176-5.715c-4.166-4.616-9.547-1.229-12.438,0.583c-0.377,0.231-0.841,0.522-1.208,0.731
		c-3.805-4.963-22.854-35.547-34.653-54.773c-0.314-0.518-0.87-0.828-1.471-0.835c0,0-0.843-0.104-1.53,0.86
		c-0.687,0.974,0.523,2.623,0.523,2.623c1.959,3.188,9.291,15.104,16.688,26.931c17.738,28.354,18.469,28.573,19.391,28.854
		c1.267,0.378,2.459-0.382,4.123-1.428c3.834-2.406,6.123-3.258,7.979-1.197c0.938,1.041,1.36,2.062,1.283,3.108
		c-0.19,2.604-3.339,5.199-4.854,6.443c-2.576,2.119-7.285,5.062-8.885,5.703c-1.846-1.549-8.354-9.804-17.929-24.416
		c-10.935-16.688-23.133-36.936-27.425-44.109c0,0-1.49-2.664-2.037-3.137c-0.547-0.469-1.045-0.4-1.045-0.4
		c-0.665,0.021-1.22,0.327-1.536,0.874c-0.316,0.548-0.313,1.228,0.009,1.771c0.036,0.062,0.932,1.569,2.458,4.113l-0.042-0.064
		c-6.773-4.758-11.606-12.148-13-20.907c-0.005-0.034-0.012-0.066-0.019-0.101c-0.718-3.283-0.83-9.673-0.949-16.438
		c-0.123-6.96-0.259-14.512-1.036-20.777l-0.038,0.026c4.685-3.188,9.252-6.602,12.137-9.514c0.562-0.567,0.819-1.306,0.048-2.246
		c-0.771-0.941-1.961-0.718-1.961-0.716c-0.529,0.348-1.134,0.871-1.777,1.648c-8.366,7.642-27.249,18.436-27.448,18.55
		c-0.043,0.024-0.085,0.051-0.126,0.079c-1.763,1.213-5.041,1.271-5.845,0.102c-0.367-0.533-0.34-1.495,0.073-2.574
		c0.442-1.153,1.27-2.27,2.108-2.848c0.029-0.021,0.057-0.042,0.085-0.063c0.206-0.161,19.962-15.573,27.754-19.354
		c0.515-0.313,1.337-0.589,1.697-0.981c0.36-0.392,0.28-1.046,0.111-1.634s-0.408-1.099-1.23-1.104
		c-0.822-0.005-0.706-0.052-1.051,0.092c-3.313,1.301-8.808,5.145-8.808,5.145c-3.715-11.725-7.228-29.147-3.698-41.824
		c0.011-0.041,0.023-0.086,0.031-0.128C35.606,37,51.677,23.846,70.189,23.846c14.708,0,28.012,8.15,34.743,21.313
		c4.787,8.716,9.241,31.024,10.639,47.624c-0.004,0.075-0.002,0.15,0.009,0.226c0.333,3.977,0.479,7.426,0.438,10.259
		c-0.002,0.074-0.002,0.149-0.004,0.222v0.001c0,0.003,0,0.005,0,0.008c0,0.005,0,0.01,0,0.014c0,0.01,0,0.019,0,0.029
		c-0.023,1.23-0.039,2.502-0.058,3.814c-0.021,1.321-0.035,2.68-0.062,4.072c0,0.028,0,0.056,0.002,0.084
		c-0.282,15.597-1.688,34.873-15.709,50.832c-0.021,0.022-0.045,0.049-0.062,0.073c-2.427,2.75-5.229,5.399-8.462,7.917
		c-0.585,0.458-1.271,0.92-2.031,1.372c-0.088,0.042-0.17,0.089-0.243,0.146c-3.474,2-8.472,3.777-13.271,4.349
		c0.666,1.071,1.337,2.153,2.016,3.255c3.977-0.659,7.885-1.979,11.059-3.537c0.108,0.645,0.217,1.396,0.31,2.262
		c0.103,0.995-1.222,3.338-6.771,8.663c0.633,1.021,1.271,2.037,1.897,3.056c5.546-5.271,8.646-9.285,8.354-12.072
		c-0.141-1.369-0.334-2.611-0.573-3.709c0.521-0.338,0.989-0.676,1.422-1.01c2.569-2.002,4.89-4.098,6.968-6.248
		c1.604,5.164,2.995,13.623-2.354,19.435c-2.644,2.874-6.269,6.271-10.034,9.64c0.64,1.017,1.271,2.021,1.891,3.002
		c3.995-3.559,7.888-7.188,10.726-10.271c7.287-7.923,4.449-19.332,2.462-24.776c12.829-15.181,15.245-33.164,15.804-47.799
		c4.076,4.714,7.5,8.365,7.941,8.835c2.104,2.578,7.281,4.798,10.432,2.3c3.146-2.506,2.139-8.072,0.084-10.701
		c-0.775-1.103-11.646-16.538-18.729-24.389c-1.422-16.42-5.686-38.956-10.979-48.601c-7.312-14.3-21.812-23.181-37.839-23.181
		c-20.152,0-37.65,14.305-41.631,34.024c-3.814,13.788,0.113,32.588,4.071,44.754l0.015-0.006
		c-8.093,5.61-16.738,12.342-17.587,13.005c-1.406,0.985-2.654,2.642-3.345,4.446c-0.851,2.221-0.74,4.284,0.312,5.812
		c1.164,1.689,3.196,2.356,5.275,2.356c1.988,0,4.017-0.609,5.371-1.516c0.815-0.465,7.125-4.089,13.964-8.562l0.011-0.009
		c0.575,5.7,0.697,12.421,0.807,18.655c0.126,7.213,0.236,13.445,1.018,17.076c1.928,12.017,9.685,21.707,20.132,26.418l0.081,0.133
		c3.322,5.49,12.41,20.175,12.41,20.175c-0.356,0.308-0.67,0.571-0.927,0.802c-1.969,1.723-8.877,7.973-15.222,13.85
		c-12.806,11.864-12.806,12.272-12.806,13.268c0,1.246,1.014,2.748,4.522,6.689l0.164,0.188c0.089,0.1,0.203,0.231,0.34,0.396
		c1.593,1.887,5.322,6.297,9.852,6.521c0.12,0.01,0.24,0.013,0.359,0.013c1.905,0,3.654-0.765,5.201-2.269
		c1.68-1.631,2.527-3.393,2.519-5.233c-0.014-3.083-2.384-5.353-3.806-6.706c1.365-1.416,4.523-4.208,6.949-6.354
		c1.903-1.685,3.871-3.42,5.414-4.856c1.132-1.056,2.904-2.593,5-4.392c-0.634-0.981-1.27-1.981-1.898-2.979
		c-2.289,1.962-4.236,3.646-5.479,4.806c-1.51,1.402-3.461,3.131-5.348,4.803c-7.961,7.039-8.598,7.822-8.598,9.057
		c0,0.975,0.648,1.594,1.544,2.447c1.084,1.035,2.722,2.596,2.729,4.191c0.003,0.854-0.487,1.771-1.457,2.713
		c-0.936,0.904-1.906,1.326-2.952,1.271c-3.011-0.146-6.164-3.886-7.351-5.286c-0.16-0.188-0.292-0.352-0.396-0.463l-0.166-0.188
		c-1.739-1.955-2.873-3.338-3.386-4.121c3.39-3.701,21.904-20.641,26.583-24.729c0.149-0.131,0.321-0.278,0.506-0.438
		C72.98,200.104,78.752,209.207,81.611,213.57z M135.479,124.476c-1.115,0.882-4.229-0.128-5.562-1.802
		c-0.038-0.039-0.069-0.076-0.104-0.112c-0.051-0.054-5.076-5.378-10.396-11.717c0.021-1.211,0.033-2.389,0.047-3.532
		c0.015-1.281,0.031-2.526,0.052-3.729c0.002-0.053,0.002-0.105,0.002-0.157c0.026-1.633-0.009-3.456-0.103-5.456
		c6.86,8.318,15.383,20.454,15.487,20.597c0.021,0.029,0.043,0.057,0.065,0.084C136.299,120.327,136.583,123.594,135.479,124.476z"
		/>
	<path id="BellyBorder" fill="#E2A700" d="M89.516,171.938c-0.188,0.129-1.082,0.545-1.144,0.504
		c-0.431-0.271-0.788-0.889-1.166-1.351c-7.338-8.952-10.375-21.776-8.124-34.305c3.518-19.584,18.465-33.798,35.54-33.798
		c0.001,0,0.002,0,0.003,0c1.719-0.128,1.037,0.017,1.297-0.031c0.438-0.082,0.204,1.14,0.204,1.778c0,0.966,0.546,3-1.501,1.753
		l0,0c-15.133-0.001-28.932,13.29-32.098,30.917c-2.072,11.532,0.688,23.302,7.386,31.473c0.341,0.415,0.69,0.813,1.049,1.216
		c0.649,0.721,0.491,0.664-0.353,1.193C89.891,171.732,89.906,171.721,89.516,171.938z"/>
	<path id="Belly" fill="#FFDF24" d="M114.622,106.337c-15.203,0-29.063,13.345-32.242,31.042
		c-2.256,12.551,1.187,25.203,8.996,33.373c0.136-0.1,0.265-0.195,0.386-0.291c23.83-18.531,24.133-44.338,24.354-63.182
		l0.012-0.899C115.624,106.352,115.122,106.337,114.622,106.337z"/>
	
		<path id="Shoes" fill="#FF5122" stroke="#AD391E" stroke-width="3.5" stroke-linecap="round" stroke-linejoin="round" stroke-miterlimit="10" d="
		M96.785,212.383c3.561,5.491,6.117,9.245,6.535,9.372c1.634,0.489,8.326-7.185,12.896-2.122c4.572,5.062-0.979,9.795-3.754,12.083
		c-2.774,2.284-9.146,6.367-10.285,6.203c-1.429-0.265-7.465-8.106-14.493-18.413L96.785,212.383z M48.134,230.734
		c1.306,1.471,7.674,9.959,13.226,4.57c5.551-5.396-2.286-9.641-2.286-10.611c0-0.637,3.663-3.899,7.524-7.316l-6.739-7.771
		c-7.589,6.979-15.97,14.83-15.97,15.414C43.889,226,46.828,229.266,48.134,230.734z"/>
	<path id="EyesBorder" fill="#2D3442" d="M96.259,56.589c0-1.361,1.103-2.464,2.466-2.464h0.209c1.362,0,2.465,1.103,2.465,2.464
		v8.719c0,1.361-1.103,2.464-2.465,2.464h-0.209c-1.363,0-2.466-1.103-2.466-2.464V56.589z M82.158,65.308
		c0,1.361,1.104,2.464,2.464,2.464h0.212c1.359,0,2.464-1.103,2.464-2.464v-8.719c0-1.361-1.104-2.464-2.464-2.464h-0.212
		c-1.36,0-2.464,1.103-2.464,2.464V65.308z"/>
	
		<path id="Mouth" fill="none" stroke="#2D3442" stroke-width="1.8" stroke-linecap="round" stroke-linejoin="round" stroke-miterlimit="10" d="
		M104.311,82.923c-2.847,0-5.146-2.306-5.146-5.152c0-2.845,2.306-5.151,5.146-5.151 M81.241,82.923
		c2.847,0,5.153-2.306,5.153-5.152c0-2.845-2.312-5.151-5.153-5.151 M99.159,77.771H86.395"/>
	<path id="Hat" fill="#6CA346" d="M90.735,32.867c-1.979,0-3.926-0.327-5.788-0.972c-3.299-1.141-6.168-3.217-8.297-6.004
		l-0.494-0.647l0.273-0.767c1.67-4.687,3.931-9.688,9.657-9.688c1.371,0,2.853,0.282,4.528,0.861
		c9.059,3.135,7.702,9.72,5.72,15.647l-0.257,0.766l-0.78,0.208C93.812,32.667,92.277,32.867,90.735,32.867z"/>
	<path id="HatBorder" fill="#3A6618" d="M71.919,20.059c1.446,6.187,6.213,11.37,12.442,13.524
		c6.311,2.183,13.318,1.006,18.293-3.069c0.701-0.576,0.805-1.611,0.229-2.313c-0.572-0.7-1.609-0.804-2.312-0.229
		c-0.541,0.445-1.111,0.841-1.717,1.201c1.394-5.218,1.646-11.989-7.65-15.208c-9.359-3.238-13.339,2.335-15.458,7.32
		c-0.251-0.642-0.462-1.299-0.621-1.974c-0.205-0.885-1.088-1.433-1.972-1.227C72.263,18.291,71.713,19.175,71.919,20.059z
		 M85.438,30.478c-3.076-1.064-5.705-3.023-7.595-5.497c2.204-6.187,4.694-10.536,12.282-7.912
		c7.564,2.618,6.861,7.553,4.787,13.753C91.87,31.631,88.559,31.558,85.438,30.478z"/>
</g>
</svg>
