<svg xmlns="http://www.w3.org/2000/svg" xmlns:xlink="http://www.w3.org/1999/xlink" viewBox= "0 0 172 362" width="172px" height="362px"><g id="Cactus.svg"><path id="Cactus" fill="#5B7F03" d="M158.02099609375,125.38099670410156L158.02099609375,62.547996520996094C158.02099609375,54.625999450683594,151.57699584960938,48.180999755859375,143.6540069580078,48.180999755859375C135.72999572753906,48.180999755859375,129.28399658203125,54.625999450683594,129.28399658203125,62.547996520996094L129.28399658203125,106.78700256347656C129.28399658203125,118.0469970703125,128.74600219726562,123.46000671386719,116.62300109863281,123.46000671386719L106.18499755859375,123.46000671386719L106.18499755859375,30.564998626708984C106.18499755859375,22.551998138427734,99.66699981689453,16.034000396728516,91.65799713134766,16.034000396728516L90.05400085449219,16.034000396728516C82.04199981689453,16.034000396728516,75.52300262451172,22.553001403808594,75.52300262451172,30.564998626708984L75.52300262451172,189.0959930419922L56.01300048828125,189.0959930419922C43.88999938964844,189.0959930419922,43.35199737548828,183.6840057373047,43.35199737548828,172.42300415039062L43.35199737548828,102.53599548339844C43.35199737548828,94.61199951171875,36.90599822998047,88.16400146484375,28.983001708984375,88.16400146484375C21.060001373291016,88.16400146484375,14.615001678466797,94.61100006103516,14.615001678466797,102.53599548339844L14.610000610351562,191.13699340820312C14.599998474121094,191.25999450683594,13.724998474121094,203.593994140625,21.013999938964844,211.4770050048828C25.111000061035156,215.9080047607422,31.062000274658203,218.15499877929688,38.70199966430664,218.15499877929688L75.5250015258789,218.15499877929688L75.5250015258789,334.15899658203125C75.5250015258789,342.1709899902344,82.04399871826172,348.68798828125,90.05599975585938,348.68798828125L91.66000366210938,348.68798828125C99.6709976196289,348.68798828125,106.18699645996094,342.16900634765625,106.18699645996094,334.15899658203125L106.18699645996094,152.52000427246094L133.93499755859375,152.52000427246094C141.5760040283203,152.52000427246094,147.52699279785156,150.2729949951172,151.6230010986328,145.8419952392578C158.91200256347656,137.95899963378906,158.03700256347656,125.62399291992188,158.0260009765625,125.5L158.02099609375,125.38099670410156z"></path><path id="CactusBorder" fill="#334400" d="M161.02099609375,125.32400512695312L161.02099609375,62.547996520996094C161.02099609375,55.38099670410156,156.65899658203125,49.214996337890625,150.44900512695312,46.56500244140625L153.36500549316406,44.69999694824219L151.75,42.172996520996094L146.64300537109375,45.43800354003906C146.1739959716797,45.35600280761719,145.6999969482422,45.29399871826172,145.21800231933594,45.250999450683594L145.33900451660156,42.415000915527344L142.34100341796875,42.28700256347656L142.21499633789062,45.240997314453125C141.9600067138672,45.262001037597656,141.70599365234375,45.28900146484375,141.45399475097656,45.32099914550781L139.85000610351562,39.454002380371094L136.9550018310547,40.24500274658203L138.51699829101562,45.957000732421875C131.43899536132812,48.152000427246094,126.28500366210938,54.76000213623047,126.28500366210938,62.54900360107422L126.28500366210938,106.78799438476562C126.28500366210938,118.39500427246094,125.57000732421875,120.46099853515625,116.62399291992188,120.46099853515625L109.18699645996094,120.46099853515625L109.18699645996094,32.06500244140625L114.79600524902344,32.06500244140625L114.79600524902344,29.064998626708984L109.25199890136719,29.064998626708984L112.02299499511719,27.369998931884766L110.46000671386719,24.810001373291016L108.57400512695312,25.963001251220703C106.54800415039062,18.520999908447266,99.7300033569336,13.033000946044922,91.65799713134766,13.033000946044922L90.05400085449219,13.033000946044922C87.9469985961914,13.033000946044922,85.92400360107422,13.407001495361328,84.05000305175781,14.091999053955078L82.4280014038086,10.595001220703125L79.70600128173828,11.858001708984375L81.33100128173828,15.360000610351562C80.9010009765625,15.608001708984375,80.48200225830078,15.873001098632812,80.07599639892578,16.154998779296875L77.09400177001953,10.523998260498047L74.44300079345703,11.928001403808594L77.72000122070312,18.11600112915039C74.51200103759766,21.294998168945312,72.52300262451172,25.701000213623047,72.52300262451172,30.562999725341797L72.52300262451172,186.093994140625L56.01300048828125,186.093994140625C47.06700134277344,186.093994140625,46.35199737548828,184.0279998779297,46.35199737548828,172.42100524902344L46.35199737548828,102.53399658203125C46.35199737548828,102.24200439453125,46.345001220703125,101.95199584960938,46.33100128173828,101.66400146484375L51.02799987792969,99.16400146484375L49.61900329589844,96.51600646972656L45.88099670410156,98.5050048828125C45.73899841308594,97.90899658203125,45.56700134277344,97.32600402832031,45.36499786376953,96.7550048828125L45.71900177001953,97.17799377441406L53.097999572753906,91.01599884033203L51.17500305175781,88.71299743652344L44.339996337890625,94.41999816894531C41.4219970703125,88.91699981689453,35.632999420166016,85.16100311279297,28.98400115966797,85.16100311279297C19.407001495361328,85.16100311279297,11.61600112915039,92.9540023803711,11.61600112915039,102.53300476074219L11.61600112915039,190.95799255371094C11.540000915527344,192.01800537109375,10.922000885009766,203.03399658203125,17.172000885009766,211.52099609375L11.833999633789062,219.29100036621094L14.306999206542969,220.99000549316406L19.180999755859375,213.89599609375C20.044998168945312,214.78900146484375,20.974998474121094,215.5989990234375,21.967998504638672,216.32699584960938L20.494998931884766,219.51199340820312L23.217998504638672,220.77200317382812L24.525001525878906,217.9459991455078C28.45800018310547,220.0780029296875,33.20000076293945,221.1529998779297,38.70399856567383,221.1529998779297L72.5270004272461,221.1529998779297L72.5270004272461,334.1570129394531C72.5270004272461,343.822998046875,80.39099884033203,351.6860046386719,90.05799865722656,351.6860046386719L91.66200256347656,351.6860046386719C101.3270034790039,351.6860046386719,109.18899536132812,343.822998046875,109.18899536132812,334.1570129394531L109.18899536132812,155.52000427246094L133.93699645996094,155.52000427246094C142.45799255371094,155.52000427246094,149.156005859375,152.9429931640625,153.84500122070312,147.86099243164062C161.8179931640625,139.21499633789062,161.10400390625,126.46299743652344,161.02099609375,125.32400512695312zM151.6230010986328,145.84100341796875C147.52499389648438,150.27200317382812,141.57400512695312,152.5189971923828,133.93499755859375,152.5189971923828L106.18699645996094,152.5189971923828L106.18699645996094,334.1579895019531C106.18699645996094,342.1700134277344,99.66799926757812,348.68701171875,91.65899658203125,348.68701171875L90.05599975585938,348.68701171875C82.04299926757812,348.68701171875,75.52400207519531,342.1679992675781,75.52400207519531,334.1579895019531L75.52400207519531,218.1540069580078L38.70199966430664,218.1540069580078C31.062000274658203,218.1540069580078,25.111000061035156,215.90699768066406,21.013999938964844,211.4759979248047C13.724998474121094,203.5919952392578,14.599998474121094,191.25799560546875,14.610000610351562,191.13600158691406L14.615001678466797,102.53500366210938C14.615001678466797,94.61100006103516,21.060001373291016,88.16300201416016,28.983001708984375,88.16300201416016C36.90599822998047,88.16300201416016,43.35199737548828,94.61000061035156,43.35199737548828,102.53500366210938L43.35199737548828,172.4219970703125C43.35199737548828,183.68299865722656,43.88999938964844,189.09500122070312,56.01300048828125,189.09500122070312L75.52400207519531,189.09500122070312L75.52400207519531,30.564998626708984C75.52400207519531,22.551998138427734,82.04299926757812,16.034000396728516,90.05500030517578,16.034000396728516L91.65899658203125,16.034000396728516C99.66999816894531,16.034000396728516,106.18600463867188,22.553001403808594,106.18600463867188,30.564998626708984L106.18600463867188,123.46000671386719L116.62399291992188,123.46000671386719C128.7469940185547,123.46000671386719,129.28500366210938,118.0469970703125,129.28500366210938,106.78700256347656L129.28500366210938,62.547996520996094C129.28500366210938,54.625999450683594,135.7310028076172,48.180999755859375,143.65499877929688,48.180999755859375C151.5780029296875,48.180999755859375,158.02200317382812,54.625999450683594,158.02200317382812,62.547996520996094L158.02200317382812,125.38099670410156L158.0279998779297,125.5C158.03700256347656,125.62399291992188,158.91200256347656,137.95799255371094,151.6230010986328,145.84100341796875z"></path><path fill="#334400" d="M91.39600372314453,322.7550048828125L90.84300231933594,320.4460144042969C90.28800201416016,318.1310119628906,89.62300109863281,315.5140075683594,89.47000122070312,315.1440124511719L91.30000305175781,314.33599853515625C91.46600341796875,314.7120056152344,91.87300109863281,316.2699890136719,92.23100280761719,317.70001220703125C92.83599853515625,316.760009765625,93.53099822998047,315.69500732421875,94.00199890136719,315.0169982910156L95.6449966430664,316.1579895019531C94.68499755859375,317.5400085449219,92.68299865722656,320.7149963378906,92.66300201416016,320.7460021972656L91.39600372314453,322.7550048828125zM85.17400360107422,284.0889892578125C83.5479965209961,282.5899963378906,79.78299713134766,279.4179992675781,79.74600219726562,279.385986328125L77.93099975585938,277.8580017089844L80.29199981689453,277.62701416015625C83.4520034790039,277.3160095214844,87.0009994506836,276.9179992675781,87.47100067138672,276.7879943847656L88.01899719238281,278.7120056152344C87.45999908447266,278.8710021972656,84.85800170898438,279.1650085449219,82.8270034790039,279.3789978027344C84.0479965209961,280.4230041503906,85.60399627685547,281.7659912109375,86.52999877929688,282.6189880371094L85.17400360107422,284.0889892578125zM101.42900085449219,241.24700927734375C101.26300048828125,240.87298583984375,100.85600280761719,239.31500244140625,100.4990005493164,237.885009765625C99.89299774169922,238.82501220703125,99.1989974975586,239.8900146484375,98.72799682617188,240.5679931640625L97.08499908447266,239.427001953125C98.04499816894531,238.04501342773438,100.0469970703125,234.87100219726562,100.06700134277344,234.8389892578125L101.33300018310547,232.83099365234375L101.88600158691406,235.1400146484375C102.44100189208984,237.45599365234375,103.10600280761719,240.07400512695312,103.25800323486328,240.4429931640625L101.42900085449219,241.24700927734375zM26.78799819946289,204.66000366210938L27.334999084472656,202.3509979248047C27.884998321533203,200.03199768066406,28.47100067138672,197.39599609375,28.501998901367188,196.9980010986328L30.499000549316406,197.10499572753906C30.47800064086914,197.51400756835938,30.138999938964844,199.08700561523438,29.812000274658203,200.5260009765625C30.777999877929688,199.95899963378906,31.87799835205078,199.32200622558594,32.604000091552734,198.9290008544922L33.55400085449219,200.68899536132812C32.07500076293945,201.48800659179688,28.854999542236328,203.41799926757812,28.823001861572266,203.43800354003906L26.78799819946289,204.66000366210938zM65.80599975585938,202.52099609375L63.80999755859375,202.39599609375C63.8489990234375,201.78199768066406,64.48999786376953,199.03900146484375,64.99500274658203,196.9499969482422C63.527000427246094,197.7949981689453,61.60399627685547,198.88800048828125,60.41600036621094,199.51400756835938L59.48400115966797,197.74400329589844C61.529998779296875,196.66600036621094,65.97599792480469,194.06900024414062,66.02100372314453,194.04299926757812L68.06900024414062,192.8459930419922L67.49500274658203,195.1479949951172C66.69200134277344,198.3769989013672,65.83999633789062,202.01800537109375,65.80599975585938,202.52099609375zM95.45899963378906,187.67100524902344L93.86499786376953,186.46299743652344C94.21600341796875,185.99899291992188,96.12100219726562,184.20199584960938,97.61699676513672,182.81199645996094C96.01399993896484,182.7100067138672,93.96499633789062,182.57000732421875,92.71199798583984,182.4429931640625L92.91300201416016,180.4530029296875C95.11299896240234,180.67599487304688,100.02799987792969,180.9550018310547,100.0780029296875,180.95799255371094L102.4469985961914,181.0919952392578L100.69599914550781,182.69400024414062C98.35600280761719,184.8350067138672,95.75700378417969,187.2830047607422,95.45899963378906,187.67100524902344zM34.52899932861328,161.5290069580078L32.935001373291016,160.3209991455078C33.28900146484375,159.85400390625,35.1619987487793,158.08599853515625,36.6870002746582,156.67100524902344C35.08399963378906,156.56900024414062,33.034000396728516,156.42799377441406,31.78099822998047,156.30099487304688L31.983001708984375,154.31100463867188C34.18299865722656,154.53399658203125,39.0989990234375,154.81300354003906,39.14799880981445,154.81500244140625L41.51799774169922,154.94900512695312L39.768001556396484,156.552001953125C37.42599868774414,158.69400024414062,34.82699966430664,161.14199829101562,34.52899932861328,161.5290069580078zM82.14199829101562,151.1269989013672C81.09500122070312,149.81199645996094,78.62799835205078,146.9810028076172,78.60299682617188,146.9530029296875L77.04399871826172,145.16400146484375L79.41300201416016,145.2969970703125C81.79299926757812,145.43099975585938,84.49199676513672,145.5469970703125,84.88700103759766,145.5050048828125L85.13300323486328,147.49000549316406C84.72699737548828,147.54200744628906,83.11799621582031,147.48300170898438,81.64399719238281,147.4149932861328C82.37200164794922,148.26600646972656,83.19200134277344,149.23599243164062,83.70600128173828,149.88099670410156L82.14199829101562,151.1269989013672zM147.1719970703125,135.0050048828125L145.89100646972656,133.47000122070312C146.33700561523438,133.0970001220703,148.5970001220703,131.7740020751953,150.3679962158203,130.7550048828125C148.82899475097656,130.29600524902344,146.86199951171875,129.697998046875,145.6699981689453,129.29400634765625L146.31300354003906,127.39999389648438C148.4080047607422,128.11000061035156,153.13499450683594,129.48500061035156,153.18299865722656,129.49899291992188L155.46099853515625,130.16099548339844L153.39599609375,131.3300018310547C150.6320037841797,132.89300537109375,147.5500030517578,134.69500732421875,147.1719970703125,135.0050048828125zM21.814998626708984,130.2259979248047C20.766998291015625,128.91099548339844,18.30099868774414,126.08000183105469,18.2760009765625,126.052001953125L16.716999053955078,124.26300048828125L19.08599853515625,124.39599609375C21.46500015258789,124.52900695800781,24.160999298095703,124.64199829101562,24.560001373291016,124.60400390625L24.80500030517578,126.58900451660156C24.398998260498047,126.64199829101562,22.790000915527344,126.58299255371094,21.317001342773438,126.51400756835938C22.044998168945312,127.36500549316406,22.865001678466797,128.3350067138672,23.37900161743164,128.97999572753906L21.814998626708984,130.2259979248047zM91.40699768066406,113.19000244140625C90.35900115966797,111.875,87.89299774169922,109.04400634765625,87.86799621582031,109.01600646972656L86.30799865722656,107.22700500488281L88.6780014038086,107.36000061035156C91.05699920654297,107.49400329589844,93.75599670410156,107.60600280761719,94.1500015258789,107.5679931640625L94.39600372314453,109.55299377441406C93.98999786376953,109.60400390625,92.38099670410156,109.5469970703125,90.90899658203125,109.47799682617188C91.63800048828125,110.3280029296875,92.45800018310547,111.29800415039062,92.97100067138672,111.9429931640625L91.40699768066406,113.19000244140625zM36.007999420166016,106.66099548339844C35.849998474121094,106.26600646972656,35.5260009765625,104.61900329589844,35.23899841308594,103.06199645996094C34.435001373291016,104.19400024414062,33.47700119018555,105.53300476074219,32.93600082397461,106.25399780273438L31.334999084472656,105.05499267578125C32.347999572753906,103.7030029296875,34.95899963378906,99.99299621582031,34.98500061035156,99.95500183105469L36.375999450683594,97.97799682617188L36.78799819946289,100.36000061035156C37.20800018310547,102.78500366210938,37.72600173950195,105.52999877929688,37.867000579833984,105.92599487304688L36.007999420166016,106.66099548339844zM138.41600036621094,95.15299987792969C137.3679962158203,93.83799743652344,134.9010009765625,91.00700378417969,134.8769989013672,90.97899627685547L133.31700134277344,89.19000244140625L135.68699645996094,89.322998046875C138.06399536132812,89.45700073242188,140.76499938964844,89.57499694824219,141.16000366210938,89.53099822998047L141.406005859375,91.51599884033203C141.0019989013672,91.56800079345703,139.39199829101562,91.50900268554688,137.91799926757812,91.44100189208984C138.64599609375,92.29100036621094,139.46600341796875,93.26100158691406,139.97999572753906,93.90599822998047L138.41600036621094,95.15299987792969zM99.73200225830078,81.03199768066406L97.73999786376953,80.86599731445312C97.85299682617188,79.49299621582031,98.14399719238281,76.80400085449219,98.35800170898438,74.86599731445312C96.9739990234375,75.86199951171875,95.28500366210938,77.05400085449219,94.79199981689453,77.30000305175781L93.89900207519531,75.51000213623047C94.3219985961914,75.29900360107422,96.83200073242188,73.51799774169922,99.01300048828125,71.91799926757812L100.85800170898438,70.56500244140625L100.5979995727539,72.83699798583984C100.59200286865234,72.89700317382812,99.91699981689453,78.81800079345703,99.73200225830078,81.03199768066406zM152.89300537109375,64.41799926757812L150.9010009765625,64.2509994506836C150.97799682617188,63.323997497558594,151.16000366210938,61.61000061035156,151.31399536132812,60.204002380371094C150.34800720214844,60.89399719238281,149.33599853515625,61.597999572753906,148.99899291992188,61.766998291015625L148.10400390625,59.977996826171875C148.43099975585938,59.810997009277344,150.3260040283203,58.464996337890625,151.9669952392578,57.26100158691406L153.81199645996094,55.90899658203125L153.552001953125,58.18000030517578C153.5469970703125,58.22699737548828,153.0330047607422,62.73500061035156,152.89300537109375,64.41799926757812zM83.98899841308594,48.702003479003906C83.8479995727539,47.01799774169922,83.33599853515625,42.51000213623047,83.33000183105469,42.46399688720703L83.0719985961914,40.19300079345703L84.91500091552734,41.54499816894531C86.55599975585938,42.749000549316406,88.45099639892578,44.09400177001953,88.77899932861328,44.262001037597656L87.88300323486328,46.051002502441406C87.54499816894531,45.88200378417969,86.53399658203125,45.178001403808594,85.56800079345703,44.487998962402344C85.72200012207031,45.89399719238281,85.90399932861328,47.608001708984375,85.98200225830078,48.535003662109375L83.98899841308594,48.702003479003906z"></path></g></svg>