<?xml version="1.0" encoding="utf-8"?>
<!-- Generator: Adobe Illustrator 15.0.0, SVG Export Plug-In . SVG Version: 6.00 Build 0)  -->
<!DOCTYPE svg PUBLIC "-//W3C//DTD SVG 1.1//EN" "http://www.w3.org/Graphics/SVG/1.1/DTD/svg11.dtd">
<svg version="1.1" id="Layer_1" xmlns="http://www.w3.org/2000/svg" xmlns:xlink="http://www.w3.org/1999/xlink" x="0px" y="0px"
	 width="638px" height="415px" viewBox="0 0 638 415" enable-background="new 0 0 638 415" xml:space="preserve">
<g id="Car1.svg">
	<path fill="#114F99" d="M35.876,358.225l440.041,0.433l-0.748-104.009l-435.363-3.295L35.876,358.225z"/>
	<path id="TiresBorder" fill="#4F4F4F" d="M163.273,348.805c0,31.005-25.133,56.142-56.137,56.142
		c-31.006,0-56.141-25.137-56.141-56.142s25.135-56.139,56.141-56.139C138.141,292.666,163.273,317.8,163.273,348.805z
		 M387.137,292.666c-31.005,0-56.14,25.134-56.14,56.139s25.135,56.142,56.14,56.142s56.142-25.137,56.142-56.142
		C443.274,317.8,418.142,292.666,387.137,292.666z"/>
	<path id="Wheel" fill="#ADADAD" d="M147.568,348.807c0,22.334-18.111,40.43-40.432,40.43c-22.342,0-40.434-18.096-40.434-40.43
		c0-22.33,18.092-40.431,40.434-40.431C129.457,308.376,147.568,326.477,147.568,348.807z M387.137,308.376
		c-22.341,0-40.433,18.101-40.433,40.431c0,22.334,18.092,40.43,40.433,40.43c22.32,0,40.437-18.096,40.437-40.43
		C427.569,326.477,409.457,308.376,387.137,308.376z"/>
	<path id="Rims" fill="#DDDDDD" d="M142.018,355.541c2.568-1.668,2.395-11.954,0-13.473c-0.906,0.104-14.981,1.584-24.973,2.634
		l-0.115,0.093c7.86-6.361,19.059-15.425,19.633-15.893c0.638-2.994-6.758-10.146-9.524-9.522
		c-0.565,0.711-9.429,11.656-15.745,19.456l-0.051,0.063c1.059-10.056,2.553-24.24,2.631-24.977c-1.666-2.569-11.955-2.396-13.473,0
		c0.104,0.908,1.584,14.988,2.634,24.975l-0.114-0.146c-6.352-7.846-15.225-18.807-15.686-19.375
		c-2.993-0.639-10.144,6.759-9.523,9.523c0.714,0.565,11.717,9.479,19.521,15.797h-0.002c-10.049-1.062-24.24-2.554-24.974-2.629
		c-2.571,1.666-2.396,11.95,0,13.471c0.906-0.104,14.985-1.584,24.972-2.635l-0.672,0.545c-7.802,6.312-18.291,14.806-18.846,15.256
		c-0.641,2.994,6.758,10.144,9.523,9.521c0.567-0.714,9.479-11.718,15.798-19.521l-0.001,0.002
		c-1.059,10.053-2.555,24.241-2.633,24.974c1.668,2.572,11.953,2.396,13.474,0c-0.103-0.904-1.583-14.983-2.632-24.972l0.001-0.001
		c0,0,0,0,0,0.001c6.358,7.855,15.334,18.944,15.799,19.517c2.992,0.644,10.144-6.757,9.522-9.521
		c-0.713-0.568-11.717-9.479-19.521-15.797L142.018,355.541z M114.604,348.805c0,4.125-3.345,7.47-7.467,7.47
		c-4.125,0-7.467-3.345-7.467-7.47s3.342-7.468,7.467-7.468C111.259,341.337,114.604,344.68,114.604,348.805z M422.017,342.068
		c-0.902,0.104-14.979,1.584-24.973,2.634c0,0,18.954-15.341,19.521-15.8c0.637-2.994-6.762-10.146-9.525-9.522
		c-0.567,0.714-9.478,11.714-15.796,19.518c0,0.002,0,0.004,0,0.004l-0.039,0.047c0.013-0.019,0.025-0.032,0.039-0.051
		c1.059-10.055,2.553-24.237,2.631-24.974c-1.666-2.57-11.955-2.396-13.473,0c0.104,0.908,1.584,14.988,2.634,24.976
		c0,0-15.354-18.97-15.8-19.521c-2.993-0.64-10.146,6.759-9.523,9.524c0.714,0.564,11.717,9.478,19.521,15.797h-0.002
		c-10.053-1.062-24.24-2.556-24.977-2.631c-2.57,1.666-2.396,11.953,0,13.472c0.906-0.104,14.985-1.584,24.973-2.634l-19.519,15.8
		c-0.64,2.994,6.758,10.144,9.522,9.521c0.565-0.714,9.479-11.718,15.799-19.521l-0.001,0.002
		c-1.062,10.053-2.558,24.241-2.632,24.974c1.666,2.572,11.949,2.396,13.473,0c-0.104-0.904-1.583-14.983-2.632-24.972l0.001-0.001
		c0,0,0,0,0,0.001c6.355,7.856,15.334,18.944,15.799,19.517c2.992,0.644,10.143-6.757,9.521-9.521
		c-0.716-0.568-11.719-9.479-19.521-15.797c0,0,24.258,2.557,24.975,2.632C424.586,353.873,424.412,343.587,422.017,342.068z
		 M387.137,356.271c-4.125,0-7.467-3.346-7.467-7.47c0-4.125,3.342-7.468,7.467-7.468c4.122,0,7.467,3.343,7.467,7.468
		S391.259,356.271,387.137,356.271z"/>
	<path id="Car" fill="#3980FF" d="M321.898,367.191l-1.197-0.061c-0.217-0.011-22.716-1.058-110.48-1.058h-35.648l0.082-1.077
		c0.029-0.367,2.592-37.032-17.761-60.721l-2.909-3.141c-11.318-11.318-27.003-17.07-46.592-17.07
		c-39.114,0-55.691,23.753-62.709,43.68c-3.578,10.15-3.764,18.787-3.887,24.501c-0.093,4.34-0.148,6.958-1.646,7.986
		c-1.766,1.214-3.248,1.381-4.588,1.381c-0.566,0-1.172-0.035-1.842-0.074c-0.791-0.046-1.688-0.098-2.721-0.098
		c-2.061,0-3.919-1.14-5.524-3.384c-9.521-13.307-9.345-66.129,4.431-106.522l0.278-0.816l2.038,0.378
		c0.389,0.069,3.902,0.682,8.229,0.682c5.311,0,9.604-0.892,12.764-2.646c6.151-3.419,5.91-21.546,3.633-37.369l-0.58-4.029
		l0.353-0.354c25.488-25.615,82.437-66.966,93.221-72.251c13.288-8.646,36.183-15.369,56.999-16.734l0.002,0.03
		c0.32-0.034,0.74-0.034,1.287-0.034c11.631,0,103.375,0.146,104.301,0.147c94.401,0.475,149.043,2.309,182.712,6.129l5.434,0.728
		c27.298,4.697,67.635,25.448,91.867,47.247c1.985,1.708,3.943,3.547,5.803,5.451l1.319,1.353l-1.86,0.33
		c-0.162,0.029-0.393,0.109-0.567,0.327c-1.001,1.236,2.312,11.195,9.837,29.603l0.646,1.572l5.585-12.289l0.919,1.966
		c14.07,30.127,7.035,64.555-2.15,78.334c-11.032,16.548-21.329,28.234-32.682,40.727c-12.154,13.371-51.92,38.562-87.896,41.152
		c-20.611,1.487-29.305,1.801-32.966,1.801c-2.795,0-3.256-0.104-3.522-0.785l-0.085-0.217l0.019-0.229
		c0.027-0.341,2.494-34.387-17.896-56.474c-11.651-12.621-28.498-19.021-50.071-19.021c-21.128,0-37.418,6.367-48.419,18.928
		c-20.422,23.315-15.758,60.461-15.708,60.833L321.898,367.191z"/>
	<path id="Back" fill="#2A4566" d="M226.17,119.353c-0.013-0.532-0.237-1.037-0.624-1.403c-0.387-0.366-0.888-0.562-1.436-0.547
		c-0.032,0.001-3.252,0.097-5.175,0.098c-30.151,0.511-83.693,35.141-107.306,58.756c-8.556,8.555-11.633,14.73-9.685,19.435
		c2.492,6.016,12.499,6.788,20.938,6.788c2.016,0,3.973-0.049,5.621-0.097c8.169-0.238,16.962-0.492,25.361-0.734l0,0
		c0.192-0.005,0.385-0.011,0.577-0.017c20.846-0.602,39.112-1.124,39.113-1.124c0.452-0.013,0.888-0.179,1.233-0.472l31.954-27.008
		c0.463-0.391,0.724-0.971,0.708-1.577L226.17,119.353z"/>
	<path id="Chair" fill="#8E341C" d="M140.521,199.788c0-30.13,14.814-46.121,36.146-52.121S212.334,169,212.334,169
		s-7.467-33.372,21.267-48.019s40.39,5.126,45.706,11.626c5.778,15.02,9.645,41.595,15.42,67.181"/>
	<path id="ChairBorder" fill="#5B2011" d="M294.727,202.825c-1.585,0-3.018-0.663-3.381-2.273
		c-1.938-8.587-3.651-17.227-5.309-25.582c-3.146-15.869-6.121-30.873-9.775-40.618c-0.354-0.444-0.73-0.936-1.138-1.463
		c-6.031-7.84-16.127-20.965-39.949-8.82c-26.037,13.272-19.527,43.866-19.458,44.174c0.38,1.697-0.557,3.413-2.189,4.011
		c-1.628,0.599-3.455-0.104-4.263-1.645c-0.129-0.244-13.314-24.769-31.658-19.606c-22.308,6.275-33.619,22.688-33.619,48.784
		c0,1.915-1.552,3.466-3.466,3.466s-3.466-1.552-3.466-3.466c0-36.845,21.03-50.495,38.674-55.458
		c14.328-4.03,25.582,4.75,32.389,12.621c0.527-11.952,4.874-29.355,23.908-39.059c28.95-14.76,42.716,3.13,48.593,10.77
		c0.501,0.651,0.956,1.243,1.37,1.75c0.232,0.286,0.42,0.606,0.553,0.95c3.956,10.283,7.035,25.815,10.296,42.259
		c1.647,8.311,3.353,16.905,5.271,25.403c0.422,1.867-0.653,3.328-2.521,3.75C295.33,202.833,294.979,202.825,294.727,202.825z"/>
	<path id="headlights1" fill="#AECFFF" d="M447.314,268.659c30.364,0,62.321-18.65,72.763-15.185
		c10.438,3.467,22.932,14.408,25.475,17.508c-11.442,13.547-43.063,25.674-69.307,25.162
		C450.002,295.632,447.314,268.659,447.314,268.659z M596.704,180.562c-1.233,1.528,9.947,28.865,9.947,28.865l3.856-8.488
		C610.51,200.938,597.938,179.034,596.704,180.562z"/>
	<path id="Headlights" fill="#F4F4F4" d="M510.355,280.227c-0.902,5.123-3.049,9.491-5.926,12.354
		c-4.086,1.05-8.252,1.894-12.408,2.5c-5.719-2.812-9.849-10.83-9.849-20.302c0-4.953,1.142-9.502,3.034-13.127
		c6.585-2.029,12.693-4.129,18.018-5.748c0.772,0.613,1.502,1.33,2.184,2.138v0.001c0.459-1.186,1.02-2.275,1.665-3.255
		c5.637-1.541,10.137-2.265,13.004-1.312c1.079,0.357,2.181,0.812,3.29,1.313c1.891,2.872,3.059,6.729,3.059,10.987
		c0,8.855-5.017,16.035-11.206,16.035c-1.744,0-3.395-0.568-4.866-1.586"/>
	<path id="Wheel" fill="#212121" d="M405.513,145.334c6.354-3.934,9.938-4.759,11.825-4.759c1.567,0,1.977,0.585,2.17,0.866
		c1.146,1.648,1.333,6.179-0.644,12.559c3.109-1.868,6.234-3.716,9.354-5.528c0.451-4.145,0.085-8.39-2.143-11.596
		c-1.363-1.962-3.986-4.301-8.739-4.301c-4.312,0-9.561,1.949-16.036,5.958c-13.692,8.477-25.683,29.713-28.871,45.049
		c3.229-2.159,6.72-4.475,10.419-6.901C387.398,164.97,396.092,151.166,405.513,145.334z"/>
	<path id="Shirt" fill="#FFC95C" d="M319.941,184.101h0.467c1.348-3.148,1.701-6.8,0.958-9.226
		c-0.64-2.087-1.841-4.768-3.112-7.606c-1.789-3.988-3.816-8.509-5.088-13.07c-0.182-0.651,0.06-1.347,0.604-1.747
		c1.076-0.79,1.319-1.091,1.345-1.123c0.004-0.005,0.429-0.636-2.606-3.026c-0.341-0.268-0.56-0.662-0.607-1.093
		c-0.231-2.037-0.464-3.901-0.669-5.562c-0.466-3.749-0.763-6.172-0.736-7.742c-0.337-0.986,0.949-4.729,1.082-2.333
		c0.449,0.327,1.935,1.879,2.684,2.742c2.825,3.256,9.286,10.704,19.277,12.238l9.825-28.153c-2.146-0.996-6.19-3.661-9.854-5.664
		c-10.396-5.685-26.114-14.277-34.293-14.277c-1.107,0-2.021,0.163-2.712,0.485c-0.08,0.45-1.088,2.367-1.093,3.066
		c-0.034,4.566,0.901,12.066-10.905,16.79c-3.9,1.649-7.856,2.492-11.729,2.492c-12.765,0-21.159-8.913-23.69-12.01
		c-11.127,4.659-17.18,14.394-16.439,27.665c0.696,12.525,2.625,31.462,4.39,43.112c0.725,4.787,1.704,11.855,2.531,18.91
		c14.459-0.027,31.016-0.041,44.792-0.031c7.077-2.511,13.339-3.63,19.438-5.407c0.627-0.183,1.243-1.362,1.849-1.539
		C308.65,187.256,313.93,184.101,319.941,184.101z"/>
	<path id="ShirtBorder" fill="#F2A700" d="M289.663,146.096c-0.05-0.464-0.297-0.883-0.678-1.152
		c-13.005-9.183-28.185-19.991-28.336-20.1c-0.732-0.521-1.746-0.35-2.266,0.381c-0.521,0.731-0.351,1.746,0.381,2.266
		c0.146,0.104,14.194,10.107,26.842,19.045l-20.116,22.048c-5.659-4.541-11.114-8.414-11.173-8.455
		c-0.73-0.517-1.745-0.346-2.266,0.386c-0.519,0.732-0.346,1.747,0.387,2.266c0.062,0.043,6.221,4.417,12.193,9.289
		c0.301,0.246,0.665,0.366,1.026,0.366c0.441,0,0.882-0.18,1.201-0.53l22.389-24.54
		C289.563,147.022,289.714,146.559,289.663,146.096z M303.799,192.532c-6.1,1.777-13.36,3.896-20.438,6.407
		c3.488,0.002,6.927,0.006,10.301,0.012c3.549-1.106,6.986-2.115,10.146-3.036c0.444-1.395,1.069-2.709,1.84-3.922
		C305.042,192.169,304.426,192.349,303.799,192.532z M312.578,131.637c-0.137-2.378-0.135-6.736,1.21-10.773
		c0.283-0.852-0.177-1.771-1.028-2.055c-0.854-0.284-1.771,0.178-2.056,1.029c-0.726,2.175-1.105,4.406-1.288,6.433
		c-0.593-0.958-1.274-1.953-2.054-2.942c-0.556-0.706-1.576-0.826-2.281-0.271c-0.705,0.555-0.827,1.577-0.271,2.282
		c2.914,3.702,4.35,7.583,4.686,8.569l0,0c0.002,0.006,0.003,0.008,0.005,0.014c-0.002-0.004-0.004-0.009-0.005-0.013
		c-0.025,1.57,0.271,3.993,0.736,7.742c0.205,1.66,0.438,3.525,0.669,5.562c0.049,0.431,0.268,0.825,0.607,1.093
		c3.035,2.391,2.61,3.021,2.606,3.026c-0.024,0.032-0.27,0.333-1.345,1.123c-0.545,0.4-0.785,1.095-0.604,1.747
		c1.271,4.561,3.299,9.082,5.088,13.07c1.272,2.838,2.476,5.52,3.112,7.606c0.742,2.426,1.39,6.078,0.042,9.226h3.418
		c0.891-2.925,0.809-6.385-0.354-10.176c-0.695-2.281-1.938-5.052-3.255-7.986c-1.602-3.571-3.398-7.581-4.616-11.566
		c0.508-0.415,0.857-0.76,1.098-1.072c2.158-2.833-0.898-5.701-2.647-7.125c-0.207-1.79-0.411-3.439-0.596-4.925
		c-0.196-1.583-0.396-3.189-0.536-4.532c3.661,4.101,10.801,11.168,21.588,12.233c0.763,0.077,1.47-0.389,1.705-1.115L345.91,118
		c0.267-0.823-0.157-1.711-0.965-2.02c-1.892-0.724-5.594-2.748-9.879-5.091c-11.327-6.193-26.844-14.675-35.854-14.675
		c-1.546,0-2.89,0.252-3.999,0.75c-2.021,0.546-2.039,2.823-2.056,5.027c-0.032,4.334-0.082,10.884-9.893,14.808
		c-3.527,1.491-7.059,2.248-10.491,2.248c-13.404,0-21.747-11.545-21.827-11.66c-0.429-0.608-1.214-0.845-1.907-0.583
		c-13.211,5.034-19.482,15.238-18.64,30.328c0.7,12.611,2.643,31.683,4.421,43.418c0.707,4.675,1.659,11.54,2.472,18.43
		c1.09-0.002,2.181-0.004,3.272-0.006c-0.827-7.055-1.807-14.124-2.531-18.91c-1.765-11.65-3.693-30.587-4.39-43.112
		c-0.74-13.271,4.313-22.006,15.439-26.665c2.531,3.097,10.926,12.01,23.69,12.01c3.87,0,7.826-0.842,11.729-2.492
		c11.807-4.723,11.871-13.223,11.905-17.79c0.005-0.699,0.013-1.616,0.093-2.066c0.691-0.322,1.604-0.485,2.712-0.485
		c8.179,0,23.896,8.592,34.293,14.277c3.663,2.003,6.71,3.668,8.854,4.664l-8.825,27.153c-9.991-1.535-16.452-8.982-19.277-12.238
		c-0.749-0.863-1.233-1.415-1.684-1.742L312.578,131.637z"/>
	<path id="Body" fill="#FFFFFF" d="M283.462,116.926c9.811-3.924,9.667-10.605,9.699-14.939c0-0.045,0.001-0.09,0.002-0.135
		c-3.554-0.259-5.709-1.369-6.558-3.375c-0.249-0.59-0.485-1.243-0.715-1.918c-4.835,3.282-10.025,5.214-14.841,5.214
		c-4.346,0-8.773-1.598-12.922-4.164c0.519,5.063-1.879,10.675-2.742,12.153c-0.255,0.439-0.68,0.8-1.267,1.133
		c3.596,3.434,10.039,8.34,18.605,8.34C276.16,119.236,279.934,118.417,283.462,116.926z M367.467,182.661
		c0.473,1.034,1.572,1.75,2.975,2.254c5.619-3.774,12.15-8.099,19.24-12.683c-0.108-0.204-0.187-0.312-0.187-0.312
		s1.209-0.899,1.321-3.648c0.119-2.753-2.308-3.718-2.308-3.718s1.65-0.231,1.759-2.858c0.105-2.627-1.824-3.551-5.444-3.743
		c-3.623-0.191-6.185-1.045-13.378,0.835c-4.15,1.083-5.459,3.588-5.873,6.375l-1.422-0.589c-2.318,1.25-5.037,2.314-7.748,2.458
		c-7.004,0.371-15.674,1.089-23.321,1.723c-9.132,0.756-17.019,2.41-20.868,2.41c-1.172,0-1.909-0.059-2.392-0.19
		c-1.827-0.499-4.824-3.396-10.405-8.903c-3.844-3.793-8.475-8.361-12.772-11.854l-16.578,18.173
		c13.372,9.854,29.37,21.902,35.713,24.386c3.024-4.619,8.24-8.678,14.165-8.678h4.013h11.464h3.012
		c1.524,0,2.998,0.212,4.404,0.592c4.921-1.09,9.797-1.01,14.273-1.509c0.839-0.093,1.755-0.141,2.723-0.141
		c2.07,0,4.199,0.211,6.124,0.494L367.467,182.661z M352.939,144.267c6.307-1.483,34.959-6.588,36.177-6.805
		c0.235-0.03,0.438-0.04,0.682-0.04c0.797,0,2.062,0.1,3.521,0.215c1.738,0.137,3.711,0.292,5.131,0.292
		c0.882,0,1.241-0.061,1.358-0.089c0.337-0.245,1.044-0.818,1.789-1.422c3.088-2.501,5.552-4.446,6.805-4.833
		c0.219-0.067,0.439-0.16,0.669-0.252c0.642-0.259,1.438-0.582,2.345-0.582c1.52,0,2.81,0.867,3.943,2.649
		c0.768,1.304,0.937,2.758,0.516,4.246c-0.492,1.74-1.712,3.187-2.609,3.664c-0.37,0.196-0.805,0.327-1.264,0.465
		c-0.39,0.117-0.827,0.249-1.186,0.415c0.185,0.012,0.398,0.02,0.65,0.02c1.538,0,3.684-0.29,6.06-0.813
		c0.842-0.562,1.373-1.389,1.688-2.071c0.826-1.774,0.808-3.737,0.565-4.292l-2.947-5.355c-0.276-0.504-0.093-1.136,0.411-1.413
		c0.504-0.278,1.136-0.093,1.413,0.411l2.986,5.44c0.521,1.181,0.489,3.44-0.312,5.522c0.741-0.556,1.412-1.193,2.011-1.853
		c0.583-1.221,0.729-2.858,0.442-3.51l-2.786-5.42c-0.262-0.511-0.062-1.138,0.45-1.4c0.513-0.261,1.139-0.061,1.399,0.45
		l2.813,5.479c0.106,0.248,0.184,0.527,0.24,0.82c0.383-0.685,0.637-1.232,0.732-1.505c0.753-1.833-3.637-6.498-5.079-8.03
		l-0.541-0.578c-1.917-2.052-4.542-4.862-6.585-4.862l-0.142,0.005c-1.584,0.11-10.202,3.324-15.904,5.451
		c-4.688,1.749-7.387,2.749-8.282,2.951c-1.699,0.385-15.144,0.824-25.232,0.824c-4.869,0-11.266-0.099-14.082-0.568
		c-2.153-0.359-4.424-1.396-7.163-2.868l-5.212,16.037c5.895,1.888,11.111,3.27,13.755,3.27
		C352.573,144.333,352.812,144.297,352.939,144.267z"/>
	<path id="Face" fill="#FFFFFF" d="M271.051,99.523c-9.614,0-21.665-9.343-28.031-21.733c-3.667-7.139-4.419-13.799-4.419-21.603
		c0-26.364,10.918-39.732,32.45-39.732c20.926,0,32.45,14.11,32.45,39.732c0,8.506-1.273,14.703-4.395,21.389
		C293.266,90.088,281.204,99.523,271.051,99.523z"/>
	<path id="BodyBorder" fill="#212121" d="M425.91,134.258c-0.003-0.017-0.003-0.035-0.006-0.052
		c0.383-0.685,0.637-1.232,0.732-1.505c0.753-1.833-3.637-6.498-5.079-8.03l-0.541-0.578c-1.917-2.052-4.542-4.862-6.585-4.862
		l-0.142,0.005c-1.584,0.11-10.202,3.324-15.904,5.451c-4.688,1.749-7.387,2.749-8.28,2.951c-1.7,0.385-15.146,0.824-25.234,0.824
		c-4.869,0-11.266-0.099-14.082-0.568c-2.153-0.359-4.423-1.396-7.163-2.868l0.851-2.614c2.705,1.474,4.873,2.5,6.76,2.814
		c2.085,0.348,6.801,0.531,13.637,0.531c11.438,0,23.536-0.508,24.638-0.757c0.763-0.172,4.245-1.472,7.936-2.847
		c8.6-3.208,14.829-5.488,16.662-5.615c3.338-0.24,6.429,3.073,8.891,5.708l0.534,0.57c3.556,3.778,6.919,7.729,5.633,10.856
		c-0.633,1.763-4.377,8.855-10.745,10.297c-2.724,0.618-5.126,0.944-6.949,0.944c-1.903,0-3.066-0.363-3.657-1.143
		c-0.368-0.488-0.479-1.089-0.31-1.692c0.55-1.94,2.534-2.538,3.721-2.895c0.302-0.09,0.641-0.192,0.773-0.264
		c0.362-0.215,2.137-2.271,1.057-4.11c-0.861-1.355-1.443-1.355-1.637-1.355c-0.379,0-0.841,0.187-1.33,0.384
		c-0.302,0.123-0.598,0.24-0.886,0.329c-0.855,0.266-4.389,3.128-5.897,4.35c-0.964,0.781-1.659,1.345-2.038,1.604
		c-0.529,0.367-1.319,0.51-2.812,0.51c-1.526,0-3.555-0.16-5.342-0.301c-1.577-0.124-3.092-0.253-3.603-0.196
		c-0.214,0.041-29.714,5.296-35.946,6.763c-0.396,0.093-0.852,0.139-1.392,0.139c-2.899,0-8.428-1.449-14.588-3.412l0.833-2.563
		c5.895,1.888,11.111,3.27,13.755,3.27c0.404,0,0.644-0.036,0.771-0.066c6.307-1.483,34.959-6.588,36.177-6.805
		c0.237-0.03,0.438-0.04,0.682-0.04c0.798,0,2.062,0.1,3.521,0.215c1.739,0.137,3.71,0.292,5.13,0.292
		c0.882,0,1.241-0.061,1.359-0.089c0.337-0.245,1.045-0.818,1.788-1.422c3.09-2.501,5.552-4.446,6.805-4.833
		c0.219-0.067,0.439-0.16,0.669-0.252c0.642-0.259,1.438-0.582,2.345-0.582c1.521,0,2.81,0.867,3.943,2.649
		c0.768,1.304,0.937,2.758,0.516,4.246c-0.492,1.74-1.712,3.187-2.608,3.664c-0.369,0.196-0.806,0.327-1.265,0.465
		c-0.39,0.117-0.827,0.249-1.186,0.415c0.185,0.012,0.398,0.02,0.65,0.02c1.538,0,3.684-0.29,6.06-0.813h-0.001h0.001
		c0.842-0.562,1.373-1.388,1.688-2.071c0.826-1.774,0.809-3.737,0.565-4.292l-2.947-5.355c-0.276-0.504-0.093-1.136,0.411-1.413
		c0.504-0.278,1.136-0.093,1.413,0.411l2.988,5.44c0.52,1.181,0.5,3.442-0.308,5.525l-0.009-0.003
		c0.741-0.556,1.412-1.192,2.01-1.853c0,0.001-0.001,0.003-0.002,0.005c0.001-0.002,0.002-0.003,0.003-0.005c0,0,0,0-0.001,0
		c0.584-1.221,0.729-2.859,0.443-3.51l-2.786-5.42c-0.262-0.511-0.062-1.138,0.45-1.4c0.513-0.261,1.139-0.061,1.399,0.45
		l2.813,5.479C425.779,133.648,425.854,133.946,425.91,134.258z M268.233,170.4c10.524,7.767,28.154,20.355,36.266,23.738
		c0.368-0.821,0.79-1.613,1.278-2.359c-6.343-2.484-22.34-13.532-35.713-23.386L268.233,170.4z M365.954,182.537
		c-1.925-0.282-4.054-0.494-6.124-0.494c-0.969,0-1.884,0.047-2.723,0.141c-4.479,0.499-9.354,1.418-14.273,2.509
		c1.539,0.416,2.992,1.041,4.326,1.848c3.547-0.717,7.013-1.308,10.247-1.668c0.739-0.083,1.555-0.124,2.423-0.124
		c3.277,0,6.795,0.586,9.23,1.093c0.017-0.01,0.03-0.021,0.047-0.032c0.898-0.605,1.822-1.226,2.771-1.861
		c-1.554-0.392-2.784-0.973-3.184-1.85c-0.405-0.888-0.771-2.083-1.084-3.548c-0.156-0.729-0.872-1.197-1.605-1.039
		c-0.729,0.156-1.193,0.875-1.039,1.605c0.283,1.324,0.612,2.471,0.981,3.423L365.954,182.537z M388.51,172.911
		c0.001,0.001,0.001,0.002,0.002,0.003c0.008,0.016,0.021,0.039,0.027,0.057c1.031-0.668,2.078-1.344,3.133-2.023
		c0.252-0.674,0.452-1.532,0.497-2.616c0.073-1.697-0.583-2.952-1.389-3.803c0.45-0.641,0.788-1.541,0.84-2.777
		c0.192-4.782-4.833-5.048-6.728-5.148c-0.684-0.036-1.326-0.097-1.975-0.157c-2.842-0.266-5.784-0.542-11.816,1.034
		c-3.184,0.831-4.916,2.466-5.875,4.285c-2.412,1.61-5.766,3.397-8.968,3.567c-7.045,0.374-15.733,1.093-23.401,1.729
		c-8.694,0.72-16.907,1.401-20.646,1.401c-1.268,0-1.621-0.079-1.68-0.095c-1.229-0.335-5.474-4.523-9.217-8.219
		c-4.013-3.958-8.541-8.42-12.852-11.925l-1.822,1.998c4.299,3.491,8.93,8.06,12.772,11.853c5.581,5.507,8.578,8.404,10.405,8.903
		c0.481,0.131,1.22,0.19,2.392,0.19c3.85,0,11.736-0.653,20.868-1.41c7.647-0.634,16.317-1.352,23.321-1.723
		c2.709-0.144,5.426-1.207,7.742-2.455l0.006-0.003c-0.002,0.001-0.004,0.002-0.006,0.003c-0.094,0.887-0.107,1.718-0.117,2.41
		c-0.01,0.747,0.588,1.36,1.336,1.37c0.006,0,0.012,0,0.018,0c0.739,0,1.343-0.594,1.354-1.335c0.047-3.627,0.461-6.727,5.055-7.925
		c5.566-1.455,8.146-1.213,10.881-0.958c0.682,0.064,1.361,0.127,2.084,0.166c4.251,0.225,4.201,1.446,4.165,2.337
		c-0.045,1.114-0.442,1.522-0.594,1.574c-0.206,0.029-0.388,0.117-0.55,0.229l0,0c-1.131-0.382-4.779-1.437-8.391-0.498
		c-0.557,0.144-0.891,0.712-0.746,1.268c0.146,0.556,0.721,0.89,1.27,0.746c3.589-0.929,7.429,0.535,7.468,0.55
		c0.077,0.03,0.157,0.033,0.235,0.044c-0.002-0.002-0.002-0.004-0.006-0.006c0.004,0.001,0.004,0.004,0.006,0.006
		c0.11,0.104,0.24,0.191,0.387,0.253c0.158,0.067,1.544,0.709,1.47,2.411c-0.075,1.838-0.696,2.528-0.765,2.604
		c-0.006,0.005-0.016,0.015-0.016,0.015s0.01-0.01,0.016-0.015c-1.348-0.337-6.68-1.509-10.739,0.017
		c-0.538,0.202-0.81,0.802-0.606,1.34c0.203,0.538,0.802,0.808,1.34,0.607c3.938-1.481,9.701,0.105,9.762,0.122
		c0.02,0.005,0.038,0.004,0.057,0.008C388.511,172.913,388.511,172.912,388.51,172.911z M241.637,79.977
		c2.807,5.074,6.955,10.202,11.755,14.208l0.12,0.095l0.441,0.683c2.473,3.821-0.226,11.089-1.311,13.051
		c-0.169,0.122-0.473,0.261-0.864,0.409c0.534,0.631,1.321,1.5,2.342,2.474c0.587-0.333,1.012-0.693,1.267-1.133
		c0.863-1.478,3.261-7.09,2.742-12.153l0.068,0.051c4.129,2.539,8.532,4.112,12.854,4.112c4.785,0,9.944-1.901,14.754-5.145
		l0.087-0.07c0.229,0.675,0.466,1.328,0.715,1.918c0.849,2.007,3.004,3.116,6.558,3.375c0.009-1.159,0.041-2.319,0.364-3.236
		c-2.165-0.146-3.606-0.645-3.929-1.404c-0.338-0.801-0.659-1.72-0.956-2.691l0.073-0.055c4.525-3.681,8.578-8.533,11.482-14.035
		l0.199-0.39l1.491-3.19c1.883-4.414,2.996-8.716,3.51-13.635l0.255-3.307c0.059-1.2,0.097-2.43,0.097-3.722
		c0-26.68-12.647-41.982-34.7-41.982c-15.83,0-34.7,7.284-34.7,41.982c0,1.246,0.022,2.461,0.067,3.659l0.203,3.29
		c0.414,4.699,1.396,9.15,3.479,13.765L241.637,79.977z M302.501,56.188c0,8.349-1.246,14.423-4.301,20.966
		c-5.688,12.183-17.359,21.37-27.149,21.37c-9.267,0-20.935-9.11-27.142-21.19c-3.576-6.96-4.309-13.487-4.309-21.146
		c0-25.701,10.581-38.732,31.45-38.732C291.332,17.456,302.501,31.211,302.501,56.188z"/>
	<path id="Hair" fill="#6D553A" d="M301.974,66.446l-0.756-0.378c-0.547-0.273-0.908-0.454-3.781-15.785l-0.04-0.214l0.053-0.212
		c0.024-0.099,2.423-9.894-0.332-14.299c-0.64-1.023-1.494-1.635-2.616-1.874c-1.453-0.308-2.938-0.458-4.543-0.458
		c-2.645,0-5.285,0.409-8.079,0.842c-3.268,0.506-6.646,1.029-10.592,1.029c-3.597,0-6.913-0.482-9.839-0.908
		c-2.416-0.352-4.698-0.683-6.732-0.683c-2.026,0-3.619,0.324-5.013,1.021c-4.754,2.377-3.925,13.498-3.642,14.911
		c0.152,0.76-0.386,2.331-2.452,7.732c-1.129,2.95-2.533,6.62-2.635,7.638c-0.081,0.815-0.641,1.18-1.158,1.18
		c-0.375,0-0.726-0.182-1.041-0.539c-1.684-1.904-4.964-11.638-3.723-21.911l-0.916-9.98l1.273,0.205
		c0.281-0.002,1.216-0.116,2.089-1.571c0.946-1.577,0.058-5.392-0.328-6.604l-0.357-1.125l1.169-0.168
		c0.051-0.007,5.047-0.757,7.56-3.639l0.003-0.003l2.513-2.279c5.582-4.443,12.915-6.611,22.302-6.611
		c21.938,0,32.738,14.428,35.532,27.93c2.899,14.013,1.035,19.974-3.419,26.07L301.974,66.446z"/>
	<path id="HairBorder" fill="#563E27" d="M283.825,13.229c-3.934-1.329-8.405-2.091-13.467-2.091
		c-10.921,0-19.122,2.902-25.063,8.87c-0.08,0.069-0.155,0.147-0.223,0.233c-2.354,2.706-7.134,3.429-7.18,3.435
		c-0.473,0.067-0.893,0.34-1.146,0.744c-0.255,0.404-0.318,0.901-0.174,1.356c0.563,1.78,1.075,4.948,0.388,6.094
		c-0.737,1.229-1.457,1.265-1.454,1.275c-0.518-0.147-0.978-0.009-1.389,0.333c-0.412,0.342-0.536,0.886-0.487,1.42l0.792,8.63
		c-1.305,10.945,2.284,20.525,3.882,22.334c0.439,0.498,0.947,0.75,1.51,0.75c0.773,0,1.661-0.545,1.78-1.742
		c0.093-0.935,1.54-4.716,2.597-7.477c2.313-6.047,2.661-7.179,2.481-8.078c-0.405-2.018-0.833-12.158,3.308-14.229
		c1.304-0.652,2.808-0.956,4.733-0.956c1.988,0,4.249,0.329,6.642,0.677c2.947,0.429,6.287,0.915,9.93,0.915
		c3.993,0,7.396-0.527,10.688-1.037c2.771-0.429,5.388-0.834,7.983-0.834c1.56,0,3.003,0.146,4.414,0.445
		c0.959,0.203,1.663,0.709,2.215,1.592c2.169,3.467,0.92,11.149,0.256,13.817c-0.056,0.226-0.063,0.463-0.021,0.692
		c2.932,15.636,3.229,15.785,4.116,16.229c0.231,0.116,0.48,0.171,0.727,0.171c0.505,0,0.998-0.235,1.313-0.667
		c4.561-6.242,6.474-12.324,3.525-26.565c-1.421-6.871-4.878-13.977-10.769-19.365h0.001c-0.173-0.23-0.282-0.372-0.307-0.402
		c-0.199-0.257-0.465-0.44-0.758-0.54l0.001,0.014c-1.517-1.273-3.184-2.433-5.003-3.456l-0.004-0.006
		c-1.699-4.784-2.657-4.842-3.463-4.877c-0.681-0.02-1.534,0.33-1.933,1.422c-0.084,0.231-0.22,0.5-0.396,0.797L283.825,13.229z
		 M304.912,39.896c2.783,13.451,1.158,19.248-3.247,25.278c-0.464-0.232-3.246-15.074-3.246-15.074s3.941-15.769-3.711-17.393
		s-14.146,1.391-23.422,1.391c-9.276,0-16.466-3.247-22.031-0.464c-5.565,2.783-4.407,14.843-4.175,16.002
		c0.232,1.159-4.87,12.755-5.102,15.074c-0.216,2.164-5.479-8.599-3.92-21.166l-0.002,0.001c-0.232-2.551-0.807-8.795-0.807-8.795
		s1.714,0.275,3.105-2.043s-0.232-7.421-0.232-7.421s5.421-0.77,8.208-4.013c0.007-0.011,0.018-0.021,0.024-0.031
		c0,0-0.002,0.008-0.002,0.009c5.288-5.367,12.832-8.488,24.005-8.488c4.688,0,8.852,0.662,12.521,1.836h0.002
		c-0.772,1.024-1.736,2.146-2.638,3.127l-1.896-2.917c-0.46-0.708-1.388-0.946-2.133-0.545c0,0-6.036,3.251-10.68,5.805
		c-0.786,0.433-1.073,1.42-0.641,2.207c0.433,0.788,1.423,1.071,2.207,0.641c3.302-1.815,7.308-3.984,9.338-5.081l2.198,3.383
		c0.268,0.411,0.705,0.679,1.192,0.73c0.482,0.047,0.972-0.12,1.319-0.467c0.396-0.396,3.127-3.158,4.884-5.697
		c0.028-0.042,0.061-0.085,0.089-0.127c0.023,0.063,0.051,0.136,0.075,0.202c0.695,1.832,1.554,4.561,2.206,6.982
		c0.12,0.446,0.424,0.819,0.836,1.028c0.41,0.208,0.893,0.231,1.321,0.064l3.021-1.175c1.068,1.483,2.656,3.883,3.197,5.507
		c0.227,0.681,0.86,1.112,1.542,1.112c0.17,0,0.343-0.027,0.514-0.083c0.729-0.244,1.169-0.956,1.102-1.691
		C302.414,31.439,304.039,35.679,304.912,39.896z"/>
	<path id="Taillight" fill="#AA1D39" d="M40.265,231.42c-3.311,5.334-6.033,13.295-7.411,17.125c1.27,0.125,4.865,1.232,6.597,1.232
		c4.558,0,10.3-2.74,12.821-4.144c3.104-1.725,2.607-17.847,1.288-30.813C50.484,218.434,43.137,226.793,40.265,231.42z"/>
	<path id="CarBorder" fill="#1C66D1" d="M189.036,248.409c-15.487,0-20.877-0.497-21.53-10.278
		c-0.096-1.433,0.988-2.671,2.421-2.767c1.414-0.087,2.671,0.985,2.767,2.42c0.314,4.702,0.362,5.426,16.343,5.426
		c18.302,0,18.302-2.342,18.302-5.053c0-1.438,1.164-2.601,2.6-2.601s2.6,1.163,2.6,2.601
		C212.537,247.695,203.232,248.409,189.036,248.409z M509.255,274.837c0-7.085-2.431-13.55-6.389-17.123
		c-2.42,0.747-4.998,1.586-7.712,2.47c-2.847,0.924-5.779,1.879-8.845,2.83c-1.681,3.457-2.564,7.528-2.564,11.823
		c0,8.435,3.418,15.854,8.55,18.672c3.76-0.565,7.563-1.334,11.321-2.284C507.153,287.497,509.255,281.411,509.255,274.837z
		 M507.218,257.867C507.218,257.866,507.218,257.866,507.218,257.867c3.253,4.287,5.179,10.417,5.179,16.97
		c0,1.578-0.117,3.134-0.334,4.646c-0.003,0-0.007-0.002-0.01-0.004l0.01,0.004c0.991,0.521,2.053,0.815,3.157,0.815
		c5.313,0,9.637-6.489,9.637-14.466c0-3.126-0.682-6.12-1.935-8.613c-0.195-0.389-0.402-0.769-0.626-1.132
		c-1.014-0.446-1.904-0.796-2.713-1.063c-0.696-0.229-1.575-0.349-2.613-0.349c-2.16,0-4.998,0.485-8.896,1.524
		c-0.183,0.3-0.327,0.629-0.486,0.947L507.218,257.867z M482.107,265.105c-10.062,2.957-21.067,5.535-32.021,5.918
		c1.366,6.379,6.736,22.441,26.204,22.822c3.507,0.069,7.14-0.102,10.822-0.474c0.01,0.01,0.02,0.019,0.027,0.026
		c-4.028-4.229-6.538-11.071-6.538-18.563C480.604,271.423,481.126,268.131,482.107,265.105z M548.617,271.062l-1.268,1.498
		c-11.909,14.103-43.732,26.016-69.489,26.016c-0.559,0-1.109-0.008-1.661-0.018c-28.009-0.547-31.2-29.315-31.229-29.606
		l-0.258-2.591h2.604c16.188,0,33.066-5.496,46.631-9.913c9.772-3.185,17.494-5.699,23.017-5.699c1.481,0,2.744,0.181,3.857,0.551
		c11.123,3.693,23.985,15.122,26.554,18.247L548.617,271.062z M527.131,259.452c0.567,2.015,0.865,4.174,0.865,6.381
		c0,9.709-5.731,17.606-12.776,17.606c-1.312,0-2.58-0.274-3.771-0.785c0.001-0.004,0.002-0.008,0.003-0.014
		c-0.563,2.26-1.361,4.379-2.378,6.276c-0.001,0.001-0.001,0.002-0.001,0.002s0-0.001,0.001-0.002
		c13.84-4.19,26.312-10.656,33.277-17.854C539.486,268.24,533.492,263.188,527.131,259.452z M397.442,122.211
		c3.572-1.333,6.729-2.503,9.341-3.428c-18.1-0.505-38.344-0.891-60.801-1.16c-0.008,0.143-0.025,0.287-0.071,0.43l-1.155,3.554
		c18.83,0.221,36.098,0.524,51.865,0.91C396.895,122.416,397.167,122.314,397.442,122.211z M303.14,199.029
		c-69.104-0.186-173.735,0.424-175.099,0.432c-18.47,0-23.43-2.613-24.337-4.805c-1.423-3.434,5.184-10.602,10.276-15.694
		c25.809-25.811,78.41-57.348,104.985-57.799L233,121.19c0-1.333,0-2.667,0-4l-14.064-0.027c-0.265,0.005-0.531,0.012-0.8,0.022
		l-0.005-0.143l-0.03-0.837c-0.007,0-0.013,0-0.019,0.001v-0.001l-2.395,0.001L213,116.204c-22.337,0-49.723,7.249-65.151,17.24
		c-13.61,6.766-86.571,60.18-103.397,83.676C14.803,254.507,10.586,334.484,21.167,356.4c2.273,4.711,5.245,7.1,8.833,7.1
		c0.995,0,1.887,0.053,2.604,0.096c0.712,0.041,1.355,0.076,1.958,0.076c1.582,0,3.499-0.206,5.721-1.731
		c2.343-1.607,2.411-4.783,2.514-9.597c0.12-5.586,0.303-14.026,3.773-23.876c6.804-19.314,22.879-42.343,60.822-42.343
		c19.206,0,34.499,5.648,45.535,16.852l0.027-0.02l1.407,1.549c20.895,22.998,18.328,60.025,18.3,60.396l-0.247,3.229h37.808
		c88.076,0,110.168,1.045,110.383,1.057l3.595,0.175l-0.476-3.566c-0.049-0.362-4.574-36.644,15.229-59.252
		c10.604-12.106,26.388-18.245,46.914-18.245c20.986,0,37.336,6.18,48.593,18.366c19.744,21.376,17.41,54.637,17.384,54.969
		l-0.056,0.697l0.258,0.649c0.813,2.043,2.632,2.043,5.386,2.043c3.694,0,12.438-0.313,33.104-1.805
		c36.507-2.631,76.885-28.219,89.229-41.804c11.407-12.551,21.754-24.295,32.865-40.963c5.918-8.877,11.423-26.927,10.378-47.237
		c-0.886-17.191-6.853-41.907-30.232-62.005c-26.335-23.692-68.82-44.904-96.726-48.29l-1.798-0.219l0.001,0.002l-1.174-0.847
		c-11.694-8.435-52.279-36.841-83.567-48.222l-0.703-0.256l-0.747,0.058c-22.931,1.763-66.144,21.659-99.552,43.867
		c-0.983,0.654-1.956,1.312-2.922,1.968c-0.002,0-0.004,0-0.006,0c-11.427,7.778-21.558,15.781-29.117,23.339l-2.709,2.709
		l2.966,2.425c7.16,5.856,29.115,22.64,47.229,36.412h-4.013c-8.643,0-15.779,6.507-16.805,14.877L303.14,199.029z M52.56,217.881
		c1.319,12.967,0.816,26.089-2.288,27.812c-2.521,1.4-6.264,2.143-10.821,2.143c-1.731,0-3.327-0.105-4.597-0.23
		c1.378-3.83,4.101-10.791,7.411-16.125C45.137,226.852,49.484,221.491,52.56,217.881z M599.973,187.047
		c2.455,3.709,5.667,8.978,8.593,14.042l-1.819,4.002C604.086,198.449,601.55,191.729,599.973,187.047z M350.372,201.101
		c0,6.584-5.356,11.943-11.942,11.943h-18.486c-6.584,0-11.941-5.356-11.941-11.943c0-6.585,5.357-11.942,11.941-11.942h18.486
		C345.016,189.159,350.372,194.516,350.372,201.101z M355.662,203.489c0.057,0.003,0.109,0.013,0.169,0.01
		c0.487-0.01,49.576-1.053,112.899,13.733c33.454,7.812,50.397,21.571,50.564,21.711c0.323,0.268,0.714,0.396,1.104,0.396
		c0.497,0,0.991-0.214,1.336-0.629c0.607-0.735,0.508-1.828-0.229-2.438c-0.705-0.586-17.666-14.402-51.986-22.418
		c-52.17-12.182-94.818-13.691-108.857-13.832h0.001c23.047-15.865,104.502-70.721,130.549-71.893l9.562-0.431
		c26.906,5.121,65.781,25.3,89.348,46.5c1.876,1.613,3.71,3.33,5.456,5.104l-0.002-0.003c-0.078,0.069-0.151,0.146-0.218,0.229
		c-0.702,0.87-1.878,2.325,9.689,30.61l1.521,3.717l5.102-11.223h-0.005c13.271,29.245,6.498,62.317-2.358,75.6
		c-10.956,16.436-21.199,28.062-32.498,40.492c-11.96,13.159-51.112,37.949-86.559,40.504c-20.548,1.481-29.188,1.794-32.816,1.794
		c-0.71,0-1.206-0.014-1.549-0.027c0.246-5.778,0.569-36.396-18.465-57.022c-12.046-13.056-29.39-19.675-51.551-19.675
		c-21.729,0-38.526,6.599-49.923,19.609c-18.927,21.606-16.931,54.615-16.312,61.235c-5.556-0.205-32.339-1.013-109.413-1.013
		h-33.516c0.098-2.379,0.209-8.489-0.695-16.362l0.002,0.007l129.666,1.088l0.029-3.468l-129.956-1.09l-0.192-0.012
		c-0.368-2.533-0.845-5.202-1.457-7.953v-0.001h130.634l0.094-2.401c0.175-4.488,1.821-17.334,7.27-22.78l-3.534-3.535
		c-6.281,6.279-8.07,18.521-8.56,23.719H173.322l-0.458,0.034c-2.666-9.617-7.106-19.792-14.454-28.343l-0.053,0.001
		c-0.64-10.801-1.554-21.833-2.439-32.514c-2.584-31.162-5.025-60.595,1.091-67.188l-0.022-0.021h0.022
		c36.281-0.17,99.349-0.409,146.109-0.284c0.043,0,0.011,0.086,0.017,0.129c1.019,8.375,8.163,14.886,16.809,14.886h18.486
		c8.399,0,15.372-6.148,16.697-14.181c-0.001,0-0.001,0-0.001,0C355.273,203.76,355.457,203.631,355.662,203.489z M111.152,176.134
		c-8.256,8.255-13.31,14.825-11.144,20.053c2.111,5.099,10.495,7.274,28.044,7.274c0.406-0.002,9.883-0.057,24.816-0.129
		c-5.167,10.011-3.043,35.677-0.406,67.479c0.769,9.271,1.55,18.807,2.161,28.213l-0.003-0.004
		c-11.665-11.211-27.547-16.895-47.229-16.895c-40.283,0-57.362,24.479-64.596,45.016c-3.683,10.452-3.873,19.28-3.999,25.121
		c-0.063,2.918-0.128,5.935-0.779,6.381c-1.796,1.233-3.124,1.078-5.182,0.959c-0.818-0.047-1.746-0.102-2.837-0.102
		c-1.378,0-2.689-0.855-3.898-2.546c-9.257-12.938-8.902-64.834,4.696-104.714l0.047-0.139l0.194,0.037
		c0.153,0.025,3.809,0.695,8.411,0.695c5.482,0,9.94-0.932,13.249-2.771c8.301-4.61,5.266-30.547,4.138-38.387l-0.331-2.295
		l0.531-0.535c25.414-25.541,82.173-66.762,92.733-71.892l0.109-0.062c11.345-7.399,30.423-13.492,48.812-15.744l0.233-0.029
		C168.812,131.053,129.754,157.529,111.152,176.134z M354.521,195.831L354.521,195.831c-2.224-6.768-8.593-11.672-16.094-11.672
		h-3.012c-17.035-12.933-40.8-31.043-51.261-39.336c29.705-27.782,94.475-61.676,123.701-64.41
		c25.746,9.54,57.993,30.831,74.164,42.104c-16.071-1.381-36.722-2.492-62.151-3.334c1.121,0.979,2.171,2.101,3.125,3.122
		l0.534,0.57c0.14,0.148,0.276,0.298,0.418,0.447c19.203,0.673,35.559,1.506,49.156,2.5v-0.002
		C435.734,140.253,371.381,184.131,354.521,195.831z"/>
	<path id="Windsheild" opacity="0.5" fill="#B1D3FC" enable-background="new    " d="M407.858,80.355
		c-29.229,2.733-93.997,36.628-123.701,64.41c10.461,8.293,34.226,26.403,51.261,39.336h3.012c7.502,0,13.87,4.905,16.094,11.672
		c18.347-12.733,92.948-63.579,127.802-73.104C466.257,111.454,433.767,89.955,407.858,80.355z"/>
	<path id="Vents" fill="#1C66D1" d="M618.396,226.807c0,0-0.003,16.203-0.771,20.063c-0.77,3.856,0,11.573-23.92,37.81
		c-9.156,8.336-17.243,15.407-24.577,21.41l-0.556-26.677c0.658-0.56,1.317-1.116,1.982-1.679
		C611.453,240.695,611.453,233.75,618.396,226.807z M484.906,317.086c-10.803,0-9.26,21.605,0,21.605
		c29.289,0,46.611-3.854,74.869-25.227c0.529-6.987,1.374-17.906,2.246-28.529C540.875,302.652,521.008,317.086,484.906,317.086z
		 M561.199,262.732c9.477-6.608,33.599-27.314,38.769-40.092c5.169-12.776-6.892-29.077-6.892-29.077s-50.398,44.055-64.613,52.426
		C528.463,245.992,551.724,269.341,561.199,262.732z"/>
</g>
</svg>
