<svg xmlns="http://www.w3.org/2000/svg" xmlns:xlink="http://www.w3.org/1999/xlink" viewBox= "0 0 142 148" width="142px" height="148px"><g id="Chicken.svg"><path fill="#231F20" d="M55.518001556396484,132.13699340820312L48.334999084472656,129.89498901367188L52.51900100708008,116.30899810791016L49.768001556396484,115.45999908447266L45.58599853515625,129.03399658203125L43.10200119018555,128.2570037841797L46.85100173950195,137.73300170898438L48.63600158691406,137.0240020751953L47.03900146484375,132.98899841308594L50.68299865722656,136.0800018310547L51.92499923706055,134.61700439453125L48.95899963378906,132.10000610351562L54.944000244140625,133.97100830078125L55.518001556396484,132.13699340820312zM80.83799743652344,130.63699340820312L72.1500015258789,130.47299194335938L70.0510025024414,116.37899780273438L67.2030029296875,116.8010025024414L69.22799682617188,130.41799926757812L67.83200073242188,130.39300537109375L74.08399963378906,138.4340057373047L75.60299682617188,137.2570037841797L72.93699645996094,133.82901000976562L77.3010025024414,135.77499389648438L78.08399963378906,134.02099609375L74.52999877929688,132.43699645996094L80.8030014038086,132.55599975585938L80.83799743652344,130.63699340820312z"></path><path id="body" fill="#FF981D" d="M122.06199645996094,44.17599868774414L107.61100006103516,54.15700149536133C106.69300079345703,41.275001525878906,102.36699676513672,29.77199935913086,93.33100128173828,23.834999084472656C76.2699966430664,12.621000289916992,48.474998474121094,27.170000076293945,31.035999298095703,44.323001861572266C22.10099983215332,37.099998474121094,12.335000038146973,37.39800262451172,12.335000038146973,37.39800262451172C12.335000038146973,37.39800262451172,11.003000259399414,59.374000549316406,12.97599983215332,78.83200073242188C13.053999900817871,79.60299682617188,13.170999526977539,80.27100372314453,13.317999839782715,80.8479995727539C14.027999877929688,93.06099700927734,21.624000549316406,104.18599700927734,34.62200164794922,112.73100280761719C37.941001892089844,114.91600036621094,41.38399887084961,116.7040023803711,44.88199996948242,118.08699798583984C44.69200134277344,119.01200103759766,44.53799819946289,119.96399688720703,44.56700134277344,120.35600280761719C44.77799987792969,123.26200103759766,47.30799865722656,125.45500183105469,50.21500015258789,125.24400329589844C52.0880012512207,125.10399627685547,53.90599822998047,122.95700073242188,54.847999572753906,120.91500091552734C58.263999938964844,121.50700378417969,61.67399978637695,121.70999908447266,65.02000427246094,121.51899719238281C65.2969970703125,122.4280014038086,65.78500366210938,123.77899932861328,66.0469970703125,124.15599822998047C67.4010009765625,126.09200286865234,70.06300354003906,126.55799865722656,71.99299621582031,125.20600128173828C73.26499938964844,124.31199645996094,73.62300109863281,121.98400115966797,73.4000015258789,120.15899658203125C82.20700073242188,117.7490005493164,90.12899780273438,112.25599670410156,95.9219970703125,103.43499755859375C99.01300048828125,98.73600006103516,101.64199829101562,92.89600372314453,103.63800048828125,86.49700164794922C109.85700225830078,84.62999725341797,123.19999694824219,79.13999938964844,127.53399658203125,65.5989990234375C131.1219940185547,53.06399917602539,122.06199645996094,44.17599868774414,122.06199645996094,44.17599868774414z"></path><path fill="#231F20" d="M98.38899993896484,37.00199890136719C99.5770034790039,37.00199890136719,100.53800201416016,37.9640007019043,100.53800201416016,39.1510009765625C100.53800201416016,40.3380012512207,99.57599639892578,41.29999923706055,98.38899993896484,41.29999923706055C97.2020034790039,41.29999923706055,96.24099731445312,40.3380012512207,96.24099731445312,39.1510009765625C96.23999786376953,37.9640007019043,97.2020034790039,37.00199890136719,98.38899993896484,37.00199890136719zM84.01599884033203,36.96699905395508C85.2040023803711,36.96699905395508,86.16500091552734,37.92900085449219,86.16500091552734,39.115997314453125C86.16500091552734,40.303001403808594,85.2030029296875,41.26499938964844,84.01599884033203,41.26499938964844C82.8290023803711,41.26499938964844,81.86799621582031,40.303001403808594,81.86799621582031,39.115997314453125C81.86699676513672,37.92900085449219,82.8290023803711,36.96699905395508,84.01599884033203,36.96699905395508z"></path><path id="Wattle_x5F_inside" fill="#EA4634" d="M84.0199966430664,54.09199905395508C84.33100128173828,57.042999267578125,88.93599700927734,58.1150016784668,90.68199920654297,55.676998138427734C92.43000030517578,53.23899841308594,89.74700164794922,50.72100067138672,89.25800323486328,47.915000915527344C89.26200103759766,47.915000915527344,83.61599731445312,50.26499938964844,84.0199966430664,54.09199905395508z"></path><path fill="#231F20" d="M87.73600006103516,57.83000183105469C87.11100006103516,57.83000183105469,86.4990005493164,57.72600173950195,85.95800018310547,57.54399871826172C84.22699737548828,56.96099853515625,83.1760025024414,55.630001068115234,83.21900177001953,54.07099914550781L84.81900024414062,54.1150016784668C84.79000091552734,55.362998962402344,86.0780029296875,55.89500045776367,86.46800231933594,56.02799987792969C87.66200256347656,56.430999755859375,89.2699966430664,56.279998779296875,90.03099822998047,55.2140007019043C90.85700225830078,54.05699920654297,90.38600158691406,52.8849983215332,89.552001953125,51.069000244140625C89.11199951171875,50.1150016784668,88.65699768066406,49.12799835205078,88.47100067138672,48.05500030517578C88.31099700927734,47.137001037597656,88.19599914550781,45.854000091552734,89.02799987792969,45.31999969482422C89.58699798583984,44.96500015258789,90.25199890136719,45.154998779296875,90.6449966430664,45.43000030517578L90.85199737548828,45.6150016784668L94.52200317382812,49.858001708984375L94.52200317382812,44.60200119018555L96.1259994506836,44.60200119018555L96.1259994506836,54.15599822998047L89.96399688720703,47.02399826049805C89.97200012207031,47.20600128173828,89.98899841308594,47.45199966430664,90.052001953125,47.78200149536133C90.2030029296875,48.64899826049805,90.61399841308594,49.540000915527344,91.01100158691406,50.4010009765625C91.822998046875,52.16899871826172,92.74800109863281,54.17300033569336,91.33799743652344,56.145999908447266C90.46499633789062,57.354000091552734,89.0719985961914,57.83000183105469,87.73600006103516,57.83000183105469z"></path><path id="bodyBorder" fill="#BA4A0C" d="M47.00899887084961,83.46499633789062C34.26599884033203,83.46499633789062,23.031999588012695,76.59600067138672,21.215999603271484,75.4280014038086L20.121999740600586,74.7239990234375L20.843000411987305,73.64099884033203C21.01300048828125,73.38700103759766,25.04800033569336,67.40299987792969,29.714000701904297,66.68699645996094L30.10300064086914,69.21699523925781C27.722000122070312,69.58200073242188,25.173999786376953,72.21499633789062,23.766000747680664,73.98799896240234C29.315000534057617,77.25299835205078,50.16299819946289,87.88099670410156,65.79100036621094,73.7750015258789C73.29100036621094,65.04399871826172,66.68599700927734,55.34000015258789,66.61799621582031,55.24300003051758L68.71900177001953,53.77899932861328C68.7979965209961,53.893001556396484,76.5459976196289,65.2750015258789,67.6760025024414,75.50900268554688L67.56900024414062,75.61799621582031C61.09299850463867,81.49400329589844,53.83399963378906,83.46499633789062,47.00899887084961,83.46499633789062zM129.9250030517578,61.38999938964844C129.08099365234375,72.23899841308594,120.53399658203125,80.73799896240234,111.18599700927734,85.25900268554688C109.43599700927734,86.11199951171875,107.62999725341797,86.84600067138672,105.79000091552734,87.47699737548828C105.43900299072266,87.59600067138672,105.08999633789062,87.71499633789062,104.73600006103516,87.8280029296875C104.58200073242188,88.3010025024414,104.42500305175781,88.76799774169922,104.26499938964844,89.23699951171875C103.9489974975586,90.16799926757812,103.61599731445312,91.08999633789062,103.26100158691406,92.00299835205078C101.88600158691406,95.58999633789062,100.25199890136719,99.0989990234375,98.2750015258789,102.39900207519531C94.67500305175781,108.41500091552734,89.7959976196289,113.64299774169922,83.7770004272461,117.27999877929688C82.2750015258789,118.18800354003906,80.71299743652344,118.99600219726562,79.10299682617188,119.69000244140625C78.35900115966797,120.01399993896484,77.6050033569336,120.31300354003906,76.83899688720703,120.58699798583984C76.2020034790039,120.81800079345703,74.93099975585938,120.93199920654297,74.9000015258789,121.62999725341797C74.73400115966797,125.29499816894531,72.03800201416016,128.20899963378906,68.1500015258789,127.23400115966797C66.4010009765625,126.79399871826172,65.02799987792969,125.5780029296875,64.3479995727539,123.9219970703125C64.10299682617188,123.32499694824219,64.23799896240234,122.99099731445312,63.53099822998047,123.00299835205078C63.21900177001953,123.01899719238281,62.904998779296875,123.02100372314453,62.59299850463867,123.02100372314453C61.604000091552734,123.02100372314453,60.6150016784668,122.98400115966797,59.62799835205078,122.91899871826172C58.46200180053711,122.84100341796875,57.30099868774414,122.72599792480469,56.143001556396484,122.56400299072266C55.33000183105469,122.44100189208984,54.959999084472656,123.59700012207031,54.439998626708984,124.20999908447266C53.39899826049805,125.43800354003906,51.986000061035156,126.5479965209961,50.31999969482422,126.66699981689453C47.2239990234375,126.89099884033203,44.29800033569336,124.87100219726562,43.39899826049805,121.89600372314453C43.21699905395508,121.29900360107422,43.09600067138672,120.66100311279297,43.12900161743164,120.03299713134766C43.14799880981445,119.67500305175781,43.198001861572266,119.32499694824219,43.25199890136719,118.97100067138672C42.8129997253418,118.78700256347656,42.37200164794922,118.59400177001953,41.93600082397461,118.3949966430664C40.167999267578125,117.5979995727539,38.439998626708984,116.70899963378906,36.7599983215332,115.73500061035156C30.395000457763672,112.0530014038086,24.4950008392334,107.26000213623047,19.968000411987305,101.43800354003906C15.772000312805176,96.04399871826172,12.829999923706055,89.6719970703125,12.053000450134277,82.84200286865234C11.814000129699707,80.76599884033203,11.345999717712402,78.73799896240234,11.163000106811523,76.63600158691406C10.996000289916992,74.73699951171875,10.859999656677246,72.83799743652344,10.748000144958496,70.93600463867188C10.52400016784668,67.06999969482422,10.395999908447266,63.20000076293945,10.33899974822998,59.327999114990234C10.24899959564209,53.358001708984375,10.321999549865723,47.38600158691406,10.550000190734863,41.41999816894531C10.600000381469727,40.12699890136719,10.652999877929688,38.83399963378906,10.725000381469727,37.54100036621094C10.748000144958496,37.10099792480469,10.776000022888184,36.6609992980957,10.803000450134277,36.222999572753906C10.845000267028809,35.555999755859375,11.694999694824219,35.80400085449219,12.28600025177002,35.795997619628906C17.179000854492188,35.736000061035156,22.214000701904297,37.22999954223633,26.520999908447266,39.4640007019043C27.507999420166016,39.97800064086914,28.469999313354492,40.540000915527344,29.400999069213867,41.150001525878906C29.81999969482422,41.42599868774414,30.235000610351562,41.709999084472656,30.642000198364258,42.005001068115234C31.264999389648438,42.45600128173828,31.264999389648438,42.108001708984375,31.766000747680664,41.637001037597656C33.20800018310547,40.28499984741211,34.691001892089844,38.96800231933594,36.207000732421875,37.696998596191406C39.4109992980957,35.01000213623047,42.763999938964844,32.503997802734375,46.26499938964844,30.218000411987305C58.04600143432617,22.520999908447266,74.16600036621094,15.10300064086914,88.43699645996094,19.878000259399414C101.73400115966797,24.329999923706055,107.35900115966797,38.54399871826172,108.78199768066406,51.4010009765625C111.31800079345703,49.6510009765625,113.85299682617188,47.9010009765625,116.38600158691406,46.1510009765625C117.93299865722656,45.082000732421875,119.48400115966797,44.0099983215332,121.03099822998047,42.94200134277344C121.40899658203125,42.68199920654297,121.78800201416016,42.42100143432617,122.16600036621094,42.15999984741211C122.35900115966797,42.0260009765625,123.01599884033203,42.867000579833984,123.18399810791016,43.034000396728516C127.9000015258789,47.66400146484375,130.42999267578125,54.869998931884766,129.9250030517578,61.38999938964844zM13.770999908447266,67.35800170898438C16.663000106811523,58.606998443603516,22.36400032043457,51.10300064086914,28.750999450683594,44.5880012512207C24.42300033569336,41.46900177001953,19.174999237060547,39.490997314453125,13.85099983215332,39.05799865722656C13.784000396728516,40.45199966430664,13.927000045776367,40.30799865722656,15.092000007629395,40.91899871826172C16.048999786376953,41.41999816894531,17.003999710083008,41.91899871826172,17.958999633789062,42.41999816894531C18.5049991607666,42.707000732421875,19.18600082397461,42.744998931884766,18.868000030517578,43.35300064086914C18.486000061035156,44.08399963378906,18.104000091552734,44.816001892089844,17.7189998626709,45.54600143432617C16.374000549316406,44.84000015258789,15.027000427246094,44.1349983215332,13.678999900817871,43.42900085449219C13.619999885559082,45.27299880981445,13.57699966430664,47.117000579833984,13.545999526977539,48.96200180053711C14.081000328063965,48.900001525878906,16.23699951171875,48.30400085449219,16.619998931884766,48.60100173950195C16.964000701904297,48.867000579833984,16.897998809814453,50.974998474121094,16.95600128173828,51.46099853515625C15.807999610900879,51.595001220703125,14.657999992370605,51.73099899291992,13.510000228881836,51.86600112915039C13.470000267028809,57.029998779296875,13.541999816894531,62.198001861572266,13.770999908447266,67.35800170898438zM71.16699981689453,124.01799774169922C71.74700164794922,123.61000061035156,71.9000015258789,122.63899993896484,71.98200225830078,121.99800109863281C70.33599853515625,122.36499786376953,68.66999816894531,122.63099670410156,66.99400329589844,122.7979965209961C67.64700317382812,124.44100189208984,69.7030029296875,125.04299926757812,71.16699981689453,124.01799774169922C71.56099700927734,123.74099731445312,70.5469970703125,124.45099639892578,71.16699981689453,124.01799774169922zM106.23600006103516,54.91400146484375C105.71499633789062,46.04800033569336,103.5719985961914,36.68600082397461,97.73600006103516,29.72599983215332C93.85099792480469,25.083999633789062,88.5,22.19099998474121,82.46099853515625,21.51099967956543C75.48600006103516,20.72599983215332,68.38999938964844,22.538999557495117,61.9640007019043,25.139999389648438C47.869998931884766,30.843000411987305,34.819000244140625,40.91899871826172,25.312000274658203,52.75600051879883C16.48400115966797,63.74399948120117,11.425999641418457,78.05000305175781,17.4060001373291,91.65699768066406C20.135000228881836,97.86299896240234,24.65999984741211,103.13300323486328,29.854999542236328,107.42900085449219C32.902000427246094,109.947998046875,36.19599914550781,112.18699645996094,39.67499923706055,114.06199645996094C41.534000396728516,115.06600189208984,43.448001861572266,115.96099853515625,45.4119987487793,116.73799896240234C46.45800018310547,117.16000366210938,46.56999969482422,117.01699829101562,46.34000015258789,118.13200378417969C46.09000015258789,119.35600280761719,45.80400085449219,120.4540023803711,46.37200164794922,121.62799835205078C46.99100112915039,122.90699768066406,48.3120002746582,123.7699966430664,49.7400016784668,123.8010025024414C51.27799987792969,123.84200286865234,52.435001373291016,122.27200317382812,53.13199996948242,121.08200073242188C53.48899841308594,120.47100067138672,53.6619987487793,119.23400115966797,54.43299865722656,119.37000274658203C61.42499923706055,120.58100128173828,68.62799835205078,120.4000015258789,75.375,118.04199981689453C88.63099670410156,113.40699768066406,97.0479965209961,101.66300201416016,101.3550033569336,88.74099731445312C105.10900115966797,77.97200012207031,106.89600372314453,66.31300354003906,106.23600006103516,54.91400146484375zM126.01000213623047,65.1240005493164C126.40599822998047,63.733001708984375,126.6510009765625,62.30099868774414,126.74500274658203,60.854000091552734C125.6520004272461,62.35300064086914,124.15399932861328,64.24400329589844,122.21700286865234,64.60699462890625C122.14099884033203,64.21900177001953,122.06900024414062,63.832000732421875,121.99500274658203,63.44200134277344C121.9000015258789,62.930999755859375,121.95099639892578,63.0880012512207,122.41400146484375,62.87300109863281C123.48999786376953,62.37099838256836,124.34200286865234,61.34199905395508,125.05699920654297,60.42399978637695C125.57499694824219,59.7599983215332,126.0510025024414,59.06399917602539,126.49299621582031,58.3489990234375C126.88099670410156,57.72200012207031,126.56500244140625,56.784000396728516,126.43099975585938,56.082000732421875C126.15599822998047,54.62900161743164,125.70999908447266,53.20800018310547,125.13800048828125,51.845001220703125C124.19100189208984,53.305999755859375,123.0250015258789,54.80099868774414,121.46800231933594,55.65700149536133C121.27999877929688,55.310001373291016,121.08599853515625,54.965999603271484,120.9000015258789,54.619998931884766C120.5770034790039,54.0260009765625,121.12899780273438,54.02299880981445,121.59700012207031,53.62200164794922C122.64199829101562,52.722999572753906,123.45999908447266,51.55799865722656,124.16100311279297,50.380001068115234C124.63999938964844,49.57600021362305,122.39700317382812,47.02199935913086,121.80699920654297,46.297000885009766C121.68000030517578,46.29199981689453,121.3479995727539,46.61399841308594,121.24600219726562,46.68299865722656C118.42400360107422,48.630001068115234,115.60299682617188,50.57899856567383,112.78299713134766,52.5260009765625C111.6520004272461,53.30699920654297,110.52300262451172,54.0890007019043,109.39199829101562,54.867000579833984C108.83000183105469,55.257999420166016,109.13600158691406,55.86899948120117,109.16300201416016,56.53300094604492C109.23400115966797,58.334999084472656,109.24299621582031,60.138999938964844,109.19300079345703,61.939998626708984C108.99099731445312,69.39700317382812,107.8489990234375,76.84100341796875,105.87100219726562,84.02899932861328C114.7699966430664,80.70700073242188,123.00700378417969,74.46399688720703,126.01000213623047,65.1240005493164C126.43000030517578,63.64500045776367,122.45500183105469,76.1729965209961,126.01000213623047,65.1240005493164z"></path><path id="crest" fill="#EA4634" stroke="#A51D13" stroke-width="2.56" stroke-linecap="round" stroke-miterlimit="10" d="M82.38899993896484,21.869998931884766C82.38899993896484,21.869998931884766,80.14900207519531,12.90999984741211,82.70800018310547,12.590999603271484C85.2699966430664,12.270999908447266,85.90799713134766,15.471000671386719,87.50800323486328,16.750999450683594C89.11000061035156,18.029998779296875,90.70800018310547,14.830999374389648,93.2699966430664,15.791000366210938C95.83200073242188,16.750999450683594,93.91400146484375,21.229999542236328,94.5469970703125,22.51099967956543C95.18800354003906,23.791000366210938,98.71099853515625,23.47100067138672,99.98600006103516,24.430999755859375C101.26699829101562,25.391000747680664,96.46499633789062,30.83099937438965,94.86900329589844,30.83099937438965"></path></g></svg>