<svg xmlns="http://www.w3.org/2000/svg" xmlns:xlink="http://www.w3.org/1999/xlink" viewBox= "0 0 157 160" width="157px" height="160px"><g id="CrescentMoon2.svg"><path id="Moon" fill="#EFEFEF" d="M119.99099731445312,110.26799774169922C90.60800170898438,110.26799774169922,66.78900146484375,86.4530029296875,66.78900146484375,57.066001892089844C66.78900146484375,38.94499969482422,75.86900329589844,22.96500015258789,89.71299743652344,13.350000381469727C86.69100189208984,12.93899917602539,83.62799835205078,12.649999618530273,80.49199676513672,12.649999618530273C43.23400115966797,12.649999618530273,13.030000686645508,42.856998443603516,13.030000686645508,80.11499786376953C13.030000686645508,117.37300109863281,43.23400115966797,147.5800018310547,80.49199676513672,147.5800018310547C108.99600219726562,147.5800018310547,133.31700134277344,129.87399291992188,143.1999969482422,104.88999938964844C136.17999267578125,108.302001953125,128.32200622558594,110.26799774169922,119.99099731445312,110.26799774169922z"></path><path id="MoonBorder" fill="#00559B" d="M80.49199676513672,149.71800231933594C42.11399841308594,149.71800231933594,10.891000747680664,118.49400329589844,10.891000747680664,80.11399841308594C10.891000747680664,41.73500061035156,42.11399841308594,10.510000228881836,80.49199676513672,10.510000228881836C83.36499786376953,10.510000228881836,86.38700103759766,10.73900032043457,90.0009994506836,11.229999542236328L95.4469985961914,11.969999313354492L90.93199920654297,15.104999542236328C77.15399932861328,24.674999237060547,68.927001953125,40.36000061035156,68.927001953125,57.064002990722656C68.927001953125,85.22000122070312,91.83399963378906,108.12699890136719,119.99000549316406,108.12699890136719C127.72200012207031,108.12699890136719,135.2169952392578,106.38999938964844,142.26400756835938,102.96399688720703L147.2100067138672,100.55899810791016L145.18699645996094,105.67400360107422C134.60499572753906,132.42999267578125,109.21099853515625,149.71800231933594,80.49199676513672,149.71800231933594zM80.49199676513672,14.788000106811523C44.47200012207031,14.788000106811523,15.169000625610352,44.09299850463867,15.169000625610352,80.11399841308594C15.169000625610352,116.13499450683594,44.472999572753906,145.44000244140625,80.49199676513672,145.44000244140625C105.65399932861328,145.44000244140625,128.09800720214844,131.2989959716797,139.05099487304688,108.98699951171875C132.92999267578125,111.25800323486328,126.53999328613281,112.40599822998047,119.99099731445312,112.40599822998047C89.47599792480469,112.40599822998047,64.6500015258789,87.58000183105469,64.6500015258789,57.06500244140625C64.6500015258789,40.78099822998047,71.86000061035156,25.391998291015625,84.1729965209961,14.916999816894531C82.89099884033203,14.829999923706055,81.6760025024414,14.788000106811523,80.49199676513672,14.788000106811523z"></path><path id="Dark" fill="#E5E5E5" d="M84.17400360107422,14.917999267578125C83.06999969482422,14.841999053955078,82.02300262451172,14.806999206542969,80.99700164794922,14.797000885009766C67.44499969482422,26.355998992919922,59.51100158691406,43.31399917602539,59.51100158691406,61.25700378417969C59.51100158691406,94.93199920654297,86.90799713134766,122.32899475097656,120.58299255371094,122.32899475097656C124.13900756835938,122.32899475097656,127.6510009765625,122.01899719238281,131.1060028076172,121.40899658203125C134.1699981689453,117.62899780273438,136.8470001220703,113.47599792480469,139.0500030517578,108.98600006103516C132.9290008544922,111.25700378417969,126.53900146484375,112.40499877929688,119.99000549316406,112.40499877929688C89.4749984741211,112.40499877929688,64.6500015258789,87.58000183105469,64.6500015258789,57.06500244140625C64.6510009765625,40.78200149536133,71.86000061035156,25.393001556396484,84.17400360107422,14.917999267578125z"></path><path id="CratorShadow" opacity="0.25" fill="#707070" d="M65.24600219726562,110.73200225830078C60.496002197265625,106.3949966430664,53.36199951171875,106.47599792480469,49.310001373291016,110.91400146484375C47.60499954223633,112.78099822998047,46.72700119018555,115.1259994506836,46.625999450683594,117.53500366210938C45.96099853515625,114.23100280761719,46.75,110.76699829101562,49.095001220703125,108.1989974975586C53.14600372314453,103.76200103759766,60.279998779296875,103.68099975585938,65.02899932861328,108.01799774169922C67.77799987792969,110.52899932861328,69.11699676513672,113.96700286865234,68.97599792480469,117.281005859375C68.49299621582031,114.87799835205078,67.24500274658203,112.55899810791016,65.24600219726562,110.73200225830078zM65.1240005493164,64.18000030517578C64.97599792480469,63.03199768066406,64.86000061035156,61.874000549316406,64.78399658203125,60.70600128173828C59.44599914550781,59.97200012207031,53.8489990234375,61.782997131347656,49.939998626708984,66.06300354003906C46.362998962402344,69.9800033569336,44.972999572753906,75.11799621582031,45.69200134277344,79.98500061035156C45.90299987792969,76.2239990234375,47.358001708984375,72.50900268554688,50.09700012207031,69.51000213623047C54.05000305175781,65.18099975585938,59.730003356933594,63.378997802734375,65.1240005493164,64.18000030517578z"></path><path id="Crator" opacity="0.1" fill="#999999" d="M51.027000427246094,90.01799774169922C44.11199951171875,83.7030029296875,43.625,72.97799682617188,49.939998626708984,66.06300354003906C53.8489990234375,61.782997131347656,59.44599914550781,59.97200012207031,64.78399658203125,60.70600128173828C65.47100067138672,71.21900177001953,69.1050033569336,80.93499755859375,74.86799621582031,89.04399871826172C68.54000091552734,95.84600067138672,57.902000427246094,96.2959976196289,51.027000427246094,90.01799774169922zM50.358001708984375,124.08399963378906C55.10700225830078,128.4219970703125,62.23999786376953,128.33999633789062,66.29199981689453,123.90400695800781C70.34300231933594,119.46600341796875,69.77799987792969,112.3550033569336,65.02899932861328,108.01799774169922C60.279998779296875,103.68099975585938,53.14600372314453,103.76200103759766,49.095001220703125,108.1989974975586C45.042999267578125,112.63600158691406,45.60900115966797,119.74800109863281,50.358001708984375,124.08399963378906zM33.715999603271484,58.750999450683594C35.37300109863281,60.263999938964844,38.301998138427734,59.75199890136719,40.25899887084961,57.61000061035156C42.21699905395508,55.46600341796875,42.46099853515625,52.50299835205078,40.80400085449219,50.98899841308594C39.14699935913086,49.47600173950195,36.21799850463867,49.98699951171875,34.2599983215332,52.13099670410156C32.303001403808594,54.27300262451172,32.058998107910156,57.23699951171875,33.715999603271484,58.750999450683594zM51.53199768066406,37.90299987792969C54.647003173828125,40.74800109863281,59.477996826171875,40.52899932861328,62.322998046875,37.41400146484375C65.16799926757812,34.29899978637695,64.947998046875,29.467998504638672,61.83399963378906,26.624000549316406C58.71900177001953,23.77899932861328,53.88800048828125,23.998001098632812,51.042999267578125,27.112998962402344C48.198001861572266,30.22800064086914,48.41699981689453,35.058998107910156,51.53199768066406,37.90299987792969zM119.99099731445312,112.40499877929688C112.09300231933594,112.40499877929688,104.58100128173828,110.7300033569336,97.7760009765625,107.73500061035156C98.6259994506836,109.1709976196289,99.69100189208984,110.51100158691406,100.98799896240234,111.69499969482422C107.40799713134766,117.55900573730469,117.04600524902344,117.64500427246094,123.57099914550781,112.2770004272461C122.38400268554688,112.35399627685547,121.19000244140625,112.40499877929688,119.99099731445312,112.40499877929688z"></path><path id="Bright" fill="#FFFFFF" d="M26.290000915527344,80.11399841308594C26.290000915527344,46.74700164794922,51.441001892089844,19.15999984741211,83.7770004272461,15.27400016784668C83.91200256347656,15.156999588012695,84.03800201416016,15.033000946044922,84.17400360107422,14.917999267578125C82.88999938964844,14.829999923706055,81.67500305175781,14.788000106811523,80.49199676513672,14.788000106811523C44.47200012207031,14.788000106811523,15.169000625610352,44.09299850463867,15.169000625610352,80.11399841308594C15.169000625610352,116.13499450683594,44.472999572753906,145.44000244140625,80.49199676513672,145.44000244140625C82.38800048828125,145.44000244140625,84.26399993896484,145.35000610351562,86.125,145.19200134277344C52.66600036621094,142.39500427246094,26.290000915527344,114.28600311279297,26.290000915527344,80.11399841308594z"></path></g></svg>