<?xml version="1.0" encoding="utf-8"?>
<!-- Generator: Adobe Illustrator 15.0.0, SVG Export Plug-In . SVG Version: 6.00 Build 0)  -->
<!DOCTYPE svg PUBLIC "-//W3C//DTD SVG 1.1//EN" "http://www.w3.org/Graphics/SVG/1.1/DTD/svg11.dtd">
<svg version="1.1" id="Layer_1" xmlns="http://www.w3.org/2000/svg" xmlns:xlink="http://www.w3.org/1999/xlink" x="0px" y="0px"
	 width="91px" height="81px" viewBox="0 0 91 81" enable-background="new 0 0 91 81" xml:space="preserve">
<g>
	<path fill="#25BF6E" d="M52.139,51.548c-0.822,1.272-1.752,2.539-2.789,3.775c-7.048,8.403-18.556,12.698-18.556,12.698
		s-1.913-4.201-2.319-9.756h-0.001c-10.021-0.733-16.037-6.346-16.037-6.346s8.15-15.815,21.067-19.395
		c12.917-3.578,24.896-1.037,26.754,5.677C61.462,42.546,58.135,47.572,52.139,51.548L52.139,51.548z"/>
	<path id="LeafBorder_1_" fill="#0D924A" d="M53.225,52.628c-0.818,1.246-1.73,2.472-2.728,3.659
		c-7.218,8.607-18.694,12.959-19.179,13.14l-1.31,0.489l-0.58-1.271c-0.142-0.313-1.78-3.998-2.358-9.002h0.001
		c-9.634-1.108-15.391-6.375-15.658-6.625l-0.831-0.774l0.52-1.011c0.345-0.668,8.605-16.44,22-20.151
		c3.958-1.097,8.032-1.676,11.78-1.676c8.942,0,15.388,3.218,16.82,8.397c1.058,3.812-0.681,8.072-4.892,11.992
		C55.742,50.791,54.539,51.739,53.225,52.628z M29.919,44.408l1.149-1.661l0.81-1.063l1.256-1.428l1.469-1.597l1.867-1.725
		l1.944-1.618l1.575-1.128l1.448-0.916l1.403-0.808c-2.896,0.167-5.948,0.679-8.936,1.507C23.67,36.807,16.419,48.033,14.363,51.55
		c1.806,1.351,6.235,4.185,12.544,5.043l0.052-1.729l0.149-1.959l0.447-2.429l0.757-2.488c-3.439,1.201-5.863,2.269-5.903,2.285
		c-0.099,0.045-0.202,0.064-0.303,0.064c-0.288,0-0.562-0.166-0.686-0.445c-0.168-0.379,0.003-0.822,0.382-0.99
		c0.044-0.021,3.048-1.342,7.14-2.715L29.919,44.408z M57.96,40.277l-0.129,0.852l-0.384,2.193l-0.53,1.931
		c1.61-2.112,2.313-4.194,2.022-6.059l-0.002,0.003c-0.367,0.068-0.619,0.116-0.979,0.188L57.96,40.277L57.96,40.277z
		 M57.917,37.867c0.19-0.038,0.381-0.075,0.572-0.111l0.005,0.001c-0.209-0.434-0.48-0.848-0.812-1.237L57.917,37.867z
		 M53.855,35.29c-2.662,3.728-5.344,6.627-7.742,9.218c-1.683,1.82-3.274,3.54-4.66,5.328c-3.492,4.506-4.546,8.77-4.557,8.811
		c-0.083,0.345-0.39,0.576-0.729,0.576c-0.058,0-0.117-0.008-0.175-0.021c-0.402-0.096-0.651-0.5-0.555-0.902
		c0.044-0.188,1.129-4.604,4.83-9.38c1.426-1.841,3.039-3.584,4.746-5.429c2.396-2.59,5.083-5.493,7.725-9.218
		c-0.748-0.452-1.67-0.681-2.752-0.681c-4.421,0-10.57,3.791-15.303,9.433c-3.842,4.305-4.855,9.396-4.757,13.812
		c0.088,3.98,1.079,7.41,1.711,9.213c3.192-1.4,11.261-5.365,16.563-11.688c3.257-3.883,5.526-8.166,6.391-12.062
		c0.668-3.009,0.398-5.497-0.731-7.009L53.855,35.29L53.855,35.29z"/>
</g>
<g id="Daisy2.svg">
	<path fill="#B66EE0" d="M61.855,23.478c0.319-0.272,0.646-0.523,0.975-0.748c5.275-3.597,11.107-4.23,13.027-1.415
		s-0.801,8.014-6.074,11.611c-0.645,0.44-1.375,0.827-2.161,1.167l-0.002-0.004c0.317,0.032,0.627,0.077,0.928,0.133
		c6.272,1.187,10.847,4.863,10.213,8.209c-0.634,3.35-6.231,5.103-12.506,3.916c-0.343-0.064-0.69-0.149-1.041-0.253l-0.005-0.008
		c0.195,0.24,0.377,0.483,0.545,0.729c3.596,5.273,4.229,11.106,1.415,13.026c-2.638,1.798-7.364-0.474-10.908-5.102
		c-0.239-0.313-0.475-0.638-0.702-0.974l0.696,0.976c-1.188,6.272-4.862,10.846-8.211,10.212c-3.349-0.633-5.102-6.232-3.915-12.506
		c0.065-0.344,0.149-0.69,0.251-1.041l0.002,0.001c-0.238,0.192-0.479,0.373-0.723,0.539c-5.274,3.596-11.107,4.229-13.026,1.415
		c-1.919-2.815,0.8-8.016,6.074-11.61c0.377-0.257,0.783-0.496,1.212-0.718l0.001,0.002c-0.777-0.008-1.525-0.071-2.225-0.203
		c-6.273-1.187-10.845-4.863-10.212-8.211c0.633-3.348,6.232-5.101,12.505-3.915c0.391,0.074,0.787,0.173,1.188,0.294L39.175,29
		c-0.133-0.172-0.26-0.346-0.379-0.521c-3.597-5.274-4.23-11.107-1.415-13.026c2.815-1.92,8.014,0.8,11.611,6.075
		c0.195,0.288,0.382,0.594,0.559,0.914H49.55c0.032-0.305,0.075-0.603,0.13-0.893c1.188-6.272,4.863-10.845,8.211-10.211
		c3.349,0.633,5.101,6.232,3.914,12.505L61.855,23.478z"/>
	<path id="FlowerBorder" fill="#853EB7" d="M35.508,41.818c-3.192-0.604-6.082-1.846-8.136-3.499
		c-2.23-1.793-3.25-3.882-2.872-5.881c0.586-3.098,4.365-5.1,9.628-5.1c0.952,0,1.924,0.068,2.903,0.202l-0.002,0.004
		c-1.29-2.248-2.108-4.588-2.34-6.728c-0.309-2.845,0.446-5.043,2.127-6.189c0.768-0.524,1.676-0.79,2.698-0.79
		c3.021,0,6.657,2.334,9.515,6.04l-0.002,0.001c1.453-5.644,4.781-9.599,8.234-9.599c0.272,0,0.547,0.025,0.813,0.076
		c3.429,0.648,5.44,5.257,5.058,10.988l-0.003-0.001c2.88-1.78,5.955-2.787,8.563-2.787c2.255,0,4.027,0.779,4.992,2.194
		c2.266,3.322-0.52,9.032-6.338,13l0.025-0.141c6.029,1.603,10.059,5.376,9.371,9.006c-0.586,3.099-4.365,5.101-9.628,5.101
		c-0.894,0-1.804-0.06-2.72-0.178v-0.002c3.205,5.438,3.414,11.032,0.336,13.132c-0.769,0.523-1.676,0.789-2.697,0.789
		c-2.594,0-5.643-1.723-8.262-4.555h0.002c-1.518,5.382-4.752,9.109-8.104,9.109c-0.272,0-0.546-0.025-0.813-0.076
		c-2-0.377-3.57-2.09-4.425-4.82c-0.679-2.167-0.848-4.799-0.496-7.527h0.002c-2.757,1.621-5.659,2.532-8.14,2.532
		c-2.254,0-4.027-0.779-4.992-2.194c-2.118-3.105,0.178-8.3,5.24-12.203L35.508,41.818z M69.912,40.477c0.002,0.004-0.02,0-0.029,0
		c-2.453,0-7.232-0.999-11.013-1.914c-0.015,0.122-0.026,0.244-0.05,0.367c-0.041,0.21-0.111,0.405-0.172,0.606
		c3.84,0.927,8.707,1.94,11.235,1.94c0.278-0.004,0.528-0.217,0.527-0.502C70.411,40.699,70.188,40.477,69.912,40.477z
		 M47.624,40.752c-3.484,2.102-8.151,5.111-10.061,7.034c-0.195,0.196-0.194,0.513,0.002,0.707c0.098,0.097,0.225,0.146,0.353,0.146
		s0.257-0.049,0.354-0.146c1.865-1.878,6.494-4.854,9.933-6.924c-0.1-0.121-0.212-0.229-0.301-0.359
		C47.802,41.061,47.711,40.907,47.624,40.752z M46.959,36.687c-0.012,0.064-0.018,0.129-0.027,0.194
		c-3.911-0.993-9.762-2.299-12.572-2.299c-0.01,0-0.02,0.001-0.031,0c-0.275,0-0.499-0.223-0.5-0.499
		c-0.001-0.285,0.229-0.49,0.529-0.501c2.579,0,7.584,1.051,11.453,1.992l-0.009-0.002c-2.591-1.509-5.385-3.465-7.204-5.688
		l-0.796-0.191c-1.241-0.234-2.477-0.354-3.674-0.354c-4.125,0-7.276,1.428-7.663,3.472c-0.231,1.221,0.557,2.661,2.16,3.951
		c1.803,1.45,4.38,2.548,7.255,3.092c0.656,0.124,1.003,0.179,1.812,0.179l0,0c2.725-1.35,6.212-2.076,9.173-2.469
		c-0.029,0.678,0.052,1.35,0.246,1.993c-3.334,0.44-7.324,1.308-9.842,3.025c-5.219,3.558-7.218,8.157-5.812,10.222
		c0.745,1.092,2.227,1.32,3.339,1.32c2.441,0,5.543-1.121,8.297-2.999c2.572-1.754,4.882-5.262,6.517-8.248
		c0.5,0.323,1.054,0.558,1.638,0.718l0.519,0.146c0.152,0.028,0.308,0.026,0.461,0.044c-0.985,3.919-2.238,9.59-2.229,12.324
		c0.001,0.275-0.222,0.5-0.499,0.502h-0.001c-0.274,0-0.499-0.223-0.5-0.498c-0.009-2.565,1.043-7.577,1.985-11.456l-0.002-0.118
		c-1.494,2.624-3.467,5.525-5.724,7.443c-0.058,0.222-0.107,0.439-0.148,0.656c-0.544,2.877-0.462,5.676,0.229,7.885
		c0.615,1.963,1.668,3.223,2.891,3.453c0.146,0.027,0.293,0.041,0.441,0.041c2.314,0,5.496-3.615,6.602-9.455
		c0.601-3.176-0.336-7.485-1.334-10.809c0.345-0.061,0.679-0.15,1-0.27l0.914-0.42c2.029,3.326,4.707,7.416,6.442,9.142
		c0.195,0.194,0.197,0.511,0.002,0.707c-0.098,0.099-0.226,0.147-0.354,0.147c-0.127,0-0.254-0.05-0.353-0.146
		c-1.335-1.326-3.194-3.98-4.909-6.646c0.622,2.742,1.008,5.733,0.627,8.252l0.062,0.015c2.398,2.959,5.404,4.928,7.664,4.928
		c0.613,0,1.142-0.147,1.57-0.44c2.063-1.406,1.881-6.42-1.678-11.639c-1.559-2.285-4.505-4.363-7.238-5.945
		c0.401-0.53,0.717-1.128,0.928-1.782c2.613,1.511,5.357,3.366,7.208,5.61l0.218,0.019c0.134,0.03,0.268,0.06,0.398,0.084
		c1.24,0.233,2.478,0.354,3.675,0.354c4.125,0,7.276-1.429,7.663-3.473c0.464-2.453-3.209-5.868-9.416-7.042
		c-0.657-0.124-1.4-0.187-2.209-0.187c-2.401,0-5.096,0.544-7.452,1.19c-0.175-0.628-0.443-1.222-0.804-1.758l-0.6-0.75
		c3.479-2.055,8.872-5.452,10.918-7.511c0.193-0.195,0.512-0.198,0.707-0.002c0.195,0.194,0.197,0.511,0.002,0.707
		c-1.994,2.008-7.015,5.214-10.537,7.32c2.439-0.655,5.225-1.197,7.766-1.197c0.467,0,0.918,0.019,1.35,0.056l-0.039-0.002
		c0.637-0.289,1.229-0.611,1.756-0.971c5.219-3.559,7.219-8.159,5.812-10.221c-0.744-1.092-2.227-1.321-3.34-1.321
		c-2.44,0-5.543,1.121-8.299,2.999c-2.877,1.963-5.43,6.125-7.072,9.292c-0.45-0.312-0.945-0.565-1.48-0.748l-0.828-0.223
		c-0.049-0.009-0.099-0.006-0.146-0.014c0.955-3.876,2.076-9.093,2.066-11.677c0-0.276,0.223-0.5,0.498-0.501
		c0.002,0,0.002,0,0.002,0c0.275,0,0.5,0.223,0.5,0.499c0.008,2.373-0.895,6.853-1.775,10.585c1.469-2.667,3.471-5.744,5.785-7.819
		h0.002c0.91-5.851-0.881-10.183-3.239-10.629c-0.146-0.027-0.294-0.041-0.44-0.041c-2.314,0-5.496,3.615-6.602,9.456
		c-0.561,2.965,0.219,6.919,1.138,10.136c-0.628,0.115-1.226,0.329-1.774,0.627l-0.832,0.555c-2.07-3.443-5.061-8.093-6.938-9.96
		c-0.196-0.194-0.197-0.511-0.002-0.707c0.195-0.195,0.511-0.196,0.707-0.002c1.854,1.842,4.728,6.261,6.815,9.701v0.001
		c-0.812-2.932-1.49-6.422-1.252-9.41l0.006-0.008c-0.116-0.2-0.238-0.393-0.364-0.578c-2.511-3.682-6.068-6.254-8.65-6.254
		c-0.612,0-1.141,0.149-1.571,0.442c-1.027,0.7-1.488,2.275-1.266,4.321c0.25,2.3,1.295,4.898,2.944,7.316
		c1.761,2.583,5.285,4.898,8.276,6.533c-0.301,0.448-0.541,0.937-0.715,1.463L46.959,36.687z"/>
	<path id="path_1" fill="#FFF7C5" d="M47.855,37.809c0-2.781,2.254-5.035,5.035-5.035c2.78,0,5.034,2.254,5.034,5.035
		s-2.254,5.035-5.034,5.035C50.109,42.844,47.855,40.59,47.855,37.809"/>
	<path id="CenterBorder" fill="#FFDA66" d="M52.896,43.845c-0.377,0-0.756-0.036-1.129-0.105c-1.582-0.3-2.955-1.198-3.863-2.53
		s-1.244-2.937-0.944-4.521c0.539-2.848,3.031-4.915,5.925-4.915c0.376,0,0.756,0.036,1.127,0.106
		c3.271,0.619,5.428,3.782,4.809,7.051C58.282,41.777,55.791,43.845,52.896,43.845z M52.884,33.772c-1.934,0-3.6,1.382-3.96,3.287
		c-0.199,1.059,0.024,2.132,0.631,3.023c0.607,0.891,1.525,1.491,2.584,1.691c2.174,0.406,4.309-1.063,4.715-3.215
		c0.414-2.187-1.028-4.301-3.215-4.715C53.391,33.796,53.136,33.772,52.884,33.772z"/>
</g>
</svg>
