<svg xmlns="http://www.w3.org/2000/svg" xmlns:xlink="http://www.w3.org/1999/xlink" viewBox= "0 0 296 213" width="296px" height="213px"><g id="Dog.svg"><path id="body" fill="#FFFFFF" d="M282.3340148925781,63.78300094604492C282.197998046875,59.277000427246094,280.9119873046875,55.63600158691406,279.31298828125,52.731998443603516C279.5610046386719,48.84299850463867,280.0840148925781,38.92300033569336,279.4639892578125,32.733001708984375C278.67999267578125,24.90399932861328,264.59100341796875,16.295000076293945,260.4150085449219,14.729999542236328C257.27099609375,13.550999641418457,255.60899353027344,15.329999923706055,254.97999572753906,16.283000946044922C251.41400146484375,14.524999618530273,247.41200256347656,13.239999771118164,243.19500732421875,13.163999557495117C228.84100341796875,12.902999877929688,227.7989959716797,20.990999221801758,227.7989959716797,20.990999221801758L227.8070068359375,21.01300048828125C226.78599548339844,20.761999130249023,225.68800354003906,20.742000579833984,224.66700744628906,21.250999450683594C221.53700256347656,22.816999435424805,204.31300354003906,39.777000427246094,205.1020050048828,47.08300018310547C205.4980010986328,50.770999908447266,207.08799743652344,54.32600021362305,209.0399932861328,57.95000076293945C207.1020050048828,58.935001373291016,204.88299560546875,59.869998931884766,202.31100463867188,60.709999084472656C183.98300170898438,66.69599914550781,165.6529998779297,65.9469985961914,148.4429931640625,61.084999084472656C131.23599243164062,56.22100067138672,104.3030014038086,57.34400177001953,91.95899963378906,68.56600189208984C79.61199951171875,79.79000091552734,70.63500213623047,104.10399627685547,62.40599822998047,114.9540023803711C44.07500076293945,137.0189971923828,18.26300048828125,131.7830047607422,18.26300048828125,131.7830047607422C18.26300048828125,131.7830047607422,27.240999221801758,138.66000366210938,41.08100128173828,137.16299438476562C54.92100143432617,135.6649932861328,65.3949966430664,130.66200256347656,73.25199890136719,116.4469985961914C81.10700225830078,102.23100280761719,85.22200012207031,98.11599731445312,85.22200012207031,98.11599731445312C85.22200012207031,98.11599731445312,83.31400299072266,100.06600189208984,84.2969970703125,106.26599884033203C79.33999633789062,122.06600189208984,86.50599670410156,139.79800415039062,85.13500213623047,141.50900268554688C83.5989990234375,143.4320068359375,77.83899688720703,144.58299255371094,81.29499816894531,148.4219970703125C84.7509994506836,152.26199340820312,90.51100158691406,160.70899963378906,92.43099975585938,166.468994140625C94.35199737548828,172.23300170898438,93.58300018310547,190.08700561523438,95.11900329589844,191.23899841308594C95.93099975585938,191.8459930419922,99.63400268554688,192.02200317382812,102.95099639892578,192.0590057373047C104.10600280761719,195.57899475097656,105.11799621582031,198.03799438476562,105.80500030517578,198.6060028076172C108.94200134277344,201.22300720214844,120.38400268554688,200.54200744628906,120.38400268554688,200.54200744628906C120.38400268554688,200.54200744628906,131.61300659179688,200.8419952392578,131.6060028076172,196.43099975585938C131.60000610351562,183.18699645996094,117.00599670410156,184.33299255371094,117.00599670410156,184.33299255371094L117.39099884033203,161.63299560546875C117.39099884033203,161.63299560546875,136.18600463867188,147.43099975585938,135.43800354003906,124.23699951171875C135.43800354003906,124.23699951171875,160.4080047607422,129.9219970703125,172.00399780273438,133.66299438476562C180.92300415039062,136.5399932861328,193.5959930419922,137.4250030517578,198.97500610351562,137.68299865722656L199.31500244140625,138.70399475097656L199.43800354003906,144.88400268554688C199.43800354003906,144.88400268554688,203.14300537109375,142.90499877929688,205,145.1269989013672C206.85400390625,147.3560028076172,211.3000030517578,177.97799682617188,211.54800415039062,183.03799438476562C211.7969970703125,188.10000610351562,213.27699279785156,189.21800231933594,214.76600646972656,189.09500122070312C215.41200256347656,189.03799438476562,217.6280059814453,188.99099731445312,219.94200134277344,188.94700622558594C220.40899658203125,192.4409942626953,221.0449981689453,196.0540008544922,221.76600646972656,196.9669952392578C223.25900268554688,198.83799743652344,230.7449951171875,199.21299743652344,239.3419952392578,198.46499633789062C247.9459991455078,197.7169952392578,248.3209991455078,190.61099243164062,247.9459991455078,185.74400329589844C247.5709991455078,180.88499450683594,235.9770050048828,180.88499450683594,235.9770050048828,180.88499450683594L236.34800720214844,128.44400024414062C236.34800720214844,128.44400024414062,248.31900024414062,115.7249984741211,251.68600463867188,103.38200378417969C253.4980010986328,96.73200225830078,254.76800537109375,89.88400268554688,255.5500030517578,84.96199798583984C256.11199951171875,85.14099884033203,256.6709899902344,85.31999969482422,257.27899169921875,85.46600341796875C263.0039978027344,86.83899688720703,267.0169982910156,84.89800262451172,269.7669982910156,82.1969985961914L269.7099914550781,82.77100372314453C270.7510070800781,83.552001953125,280.5929870605469,78.63300323486328,280.760986328125,76.98899841308594L280.2820129394531,76.53900146484375C281.92498779296875,76.50299835205078,282.7699890136719,73.7300033569336,282.3340148925781,63.78300094604492z"></path><path fill="#B25618" d="M136.95399475097656,58.9109992980957C120.89199829101562,57.106998443603516,101.7979965209961,59.62200164794922,91.95999908447266,68.56500244140625C86.69100189208984,73.35399627685547,82.03800201416016,80.53299713134766,77.79399871826172,88.02899932861328C84.10800170898438,95.30699920654297,107.62699890136719,83.59500122070312,120.13400268554688,83.59500122070312L178.53199768066406,94.66200256347656C178.53199768066406,106.69999694824219,201.0019989013672,99.86199951171875,212.9290008544922,99.86199951171875C224.85499572753906,99.86199951171875,236.125,88.69999694824219,236.125,76.66200256347656C236.125,73.81099700927734,235.4290008544922,71.59300231933594,234.1999969482422,69.86699676513672C234.16000366210938,69.80999755859375,234.11900329589844,69.75299835205078,234.07699584960938,69.697998046875L234.21800231933594,69.73400115966797C236.71800231933594,69.93699645996094,249.53900146484375,83.39600372314453,251.8939971923828,83.05500030517578C248.73599243164062,81.09100341796875,246.2239990234375,79.00199890136719,244.93299865722656,77.19599914550781C239.5989990234375,69.72799682617188,240.66600036621094,60.66299819946289,245.46600341796875,54.26300048828125C250.26699829101562,47.862998962402344,256.0929870605469,43.58700180053711,255.0279998779297,37.720001220703125C253.95899963378906,31.85300064086914,258.22698974609375,32.91999816894531,259.8280029296875,37.720001220703125C261.1919860839844,41.81999969482422,270.6669921875,46.47700119018555,280.64300537109375,55.555999755859375C280.239990234375,54.54899978637695,279.78900146484375,53.60200119018555,279.3169860839844,52.72999954223633C279.5610046386719,48.840999603271484,280.0840148925781,38.922000885009766,279.4630126953125,32.731998443603516C278.6830139160156,24.902999877929688,264.59100341796875,16.29400062561035,260.4150085449219,14.727999687194824C257.2690124511719,13.548999786376953,255.60400390625,15.329000473022461,254.9770050048828,16.280000686645508C251.4149932861328,14.52400016784668,247.41099548339844,13.23900032043457,243.19400024414062,13.161999702453613C228.8419952392578,12.901000022888184,227.8000030517578,20.989999771118164,227.8000030517578,20.989999771118164L227.8070068359375,21.01099967956543C226.78599548339844,20.760000228881836,225.68600463867188,20.739999771118164,224.66700744628906,21.25C221.53799438476562,22.81599998474121,204.31399536132812,39.775001525878906,205.1020050048828,47.082000732421875C205.4980010986328,50.77000045776367,207.08799743652344,54.32500076293945,209.0399932861328,57.94900131225586C207.6269989013672,58.665000915527344,206.06199645996094,59.35499954223633,204.32899475097656,60.000999450683594C205.10000610351562,61.6619987487793,205.93299865722656,63.21699905395508,206.82899475097656,64.6500015258789L206.86099243164062,64.6969985961914L168.2570037841797,70.14800262451172L136.95399475097656,58.9109992980957z"></path><path fill="#301706" d="M136.95399475097656,58.9109992980957C140.80999755859375,63.13399887084961,143.06700134277344,68.23600006103516,143.06700134277344,73.7300033569336C143.06700134277344,88.30999755859375,139.7220001220703,83.59600067138672,120.13400268554688,83.59500122070312C118.26200103759766,83.59500122070312,116.14299774169922,83.85800170898438,113.87200164794922,84.27899932861328L113.89900207519531,84.35199737548828C122.39299774169922,95.13500213623047,137.81199645996094,105.79399871826172,163.33299255371094,108.66500091552734C186.89599609375,108.66300201416016,220.3979949951172,102.7959976196289,207.0659942626953,60.9640007019043C207.0659942626953,60.27899932861328,207.02099609375,59.60300064086914,206.95599365234375,58.930999755859375C205.54200744628906,59.55699920654297,204.01199340820312,60.15700149536133,202.31199645996094,60.70899963378906C183.98199462890625,66.69499969482422,165.65199279785156,65.94599914550781,148.43699645996094,61.08399963378906C144.90699768066406,60.08599853515625,140.968994140625,59.34199905395508,136.83299255371094,58.88600158691406M95.56300354003906,65.822998046875C89.45099639892578,69.74299621582031,85.0780029296875,76.0510025024414,81.29199981689453,82.11100006103516C77.18800354003906,88.68499755859375,73.68000030517578,95.60700225830078,70.00199890136719,102.4229965209961C66.73799896240234,108.47100067138672,63.45500183105469,114.52400207519531,58.37099838256836,119.25900268554688C55.41999816894531,122.01200103759766,52.21500015258789,124.43800354003906,48.67599868774414,126.39299774169922C53.297000885009766,127.06300354003906,57.96200180053711,127.39700317382812,62.619998931884766,127.6510009765625C63.81800079345703,127.71600341796875,64.39399719238281,127.89700317382812,65.28700256347656,127.0469970703125C65.97699737548828,126.38500213623047,66.64099884033203,125.69300079345703,67.28099822998047,124.98300170898438C68.74199676513672,123.34300231933594,70.06600189208984,121.59100341796875,71.26200103759766,119.75399780273438C75.23200225830078,113.66400146484375,78.38200378417969,107.10900115966797,82.70500183105469,101.23400115966797C83.57499694824219,100.0510025024414,86.00900268554688,100.92900085449219,86.58200073242188,99.57099914550781C87.77999877929688,96.73100280761719,88.15499877929688,92.03500366210938,89.7760009765625,89.41899871826172C97.45099639892578,77.04199981689453,108.22000122070312,66.65799713134766,120.31999969482422,58.64400100708008C111.80799865722656,59.31100082397461,102.8479995727539,61.14799880981445,95.56300354003906,65.822998046875z"></path><path id="Color_x5F_Patch6_1_" fill="#FFFAF0" d="M151.0659942626953,70.2040023803711C151.0659942626953,73.68399810791016,148.8000030517578,79.20999908447266,142.0590057373047,79.20999908447266C135.3179931640625,79.20999908447266,125.46600341796875,73.68499755859375,125.46600341796875,70.2040023803711C125.46600341796875,66.7249984741211,129.1540069580078,64.51499938964844,135.89700317382812,64.51499938964844C142.63800048828125,64.51499938964844,151.0659942626953,66.7249984741211,151.0659942626953,70.2040023803711z"></path><path id="Nose_1_" fill="#231F20" d="M276.93798828125,57.82500076293945C277.989990234375,61.04399871826172,274.6260070800781,65.85700225830078,273.2550048828125,66.302001953125C271.8909912109375,66.74600219726562,266.3320007324219,64.85299682617188,265.2770080566406,61.632999420166016C264.2300109863281,58.41299819946289,266.8389892578125,57.566001892089844,270.0580139160156,56.51499938964844C273.2770080566406,55.46200180053711,275.8890075683594,54.60499954223633,276.93798828125,57.82500076293945z"></path><path fill="#231F20" d="M247.906005859375,40.775001525878906C247.906005859375,42.64899826049805,245.59100341796875,43.430999755859375,243.71800231933594,43.430999755859375C241.84300231933594,43.430999755859375,239.82400512695312,41.9119987487793,239.82400512695312,40.03799819946289C239.82400512695312,38.165000915527344,241.84300231933594,36.645999908447266,243.71800231933594,36.645999908447266C245.59100341796875,36.64699935913086,247.906005859375,38.9010009765625,247.906005859375,40.775001525878906zM270.07000732421875,36.387001037597656C270.07000732421875,37.97100067138672,268.78399658203125,39.25699996948242,267.20001220703125,39.25699996948242C265.614013671875,39.25699996948242,264.14801025390625,38.7869987487793,264.14801025390625,37.20100021362305C264.14801025390625,35.6150016784668,265.614013671875,33.51599884033203,267.20001220703125,33.51599884033203S270.07000732421875,34.80099868774414,270.07000732421875,36.387001037597656z"></path><path id="bodyBorder" fill="#301706" d="M284.3330078125,63.722999572753906C284.1929931640625,59.14699935913086,282.9620056152344,55.37699890136719,281.343994140625,52.29399871826172C281.6059875488281,47.983001708984375,282.0589904785156,38.564998626708984,281.4540100097656,32.53300094604492C280.5249938964844,23.277000427246094,265.0010070800781,14.3100004196167,261.11700439453125,12.857000350952148C258.60101318359375,11.914999961853027,256.2359924316406,12.300999641418457,254.4969940185547,13.836000442504883C251.0500030517578,12.3100004196167,247.2469940185547,11.236000061035156,243.22999572753906,11.163999557495117C231.5189971923828,10.942999839782715,227.656005859375,15.984999656677246,226.39999389648438,18.840999603271484C225.53700256347656,18.85300064086914,224.64599609375,19.025999069213867,223.77099609375,19.46299934387207C220.59500122070312,21.05299949645996,202.1790008544922,38.643001556396484,203.10899353027344,47.297000885009766C203.46299743652344,50.665000915527344,204.6999969482422,53.8390007019043,206.2899932861328,57.012001037597656C204.84100341796875,57.65800094604492,203.3249969482422,58.275001525878906,201.68699645996094,58.808998107910156C185.07899475097656,64.2300033569336,167.3489990234375,64.3479995727539,148.97799682617188,59.15999984741211C130.76300048828125,54.013999938964844,103.26499938964844,55.57899856567383,90.6050033569336,67.08699798583984C82.73200225830078,74.24299621582031,76.26899719238281,86.39299774169922,70.56700134277344,97.11199951171875C67.11900329589844,103.59300231933594,63.861000061035156,109.71600341796875,60.861000061035156,113.67400360107422C43.54899978637695,134.51600646972656,18.899999618530273,129.8730010986328,18.65399932861328,129.8260040283203L10.206999778747559,128.13699340820312L17.042999267578125,133.3730010986328C17.43600082397461,133.67300415039062,26.815000534057617,140.70399475097656,41.29199981689453,139.1540069580078C57.46500015258789,137.40199279785156,67.54499816894531,130.9040069580078,74.9990005493164,117.41600036621094C77.91500091552734,112.13899993896484,80.30799865722656,108.2750015258789,82.1510009765625,105.51799774169922C82.17400360107422,105.72000122070312,82.20999908447266,105.93399810791016,82.23999786376953,106.1449966430664C78.90599822998047,117.30699920654297,81.18800354003906,129.02499389648438,82.56700134277344,136.06399536132812C82.9000015258789,137.76699829101562,83.27200317382812,139.66799926757812,83.31099700927734,140.5019989013672C82.98300170898438,140.76800537109375,82.46700286865234,141.0800018310547,82.03099822998047,141.3560028076172C80.48200225830078,142.31300354003906,78.55400085449219,143.5019989013672,78.24600219726562,145.65899658203125C78.0530014038086,147.01300048828125,78.5770034790039,148.39100646972656,79.80699920654297,149.75900268554688C83.01799774169922,153.3260040283203,88.68299865722656,161.55299377441406,90.53299713134766,167.10499572753906C91.43199920654297,169.80099487304688,91.71399688720703,176.08399963378906,91.94000244140625,181.12600708007812C92.3270034790039,189.70899963378906,92.55500030517578,191.82000732421875,93.91899871826172,192.84300231933594C94.60700225830078,193.36000061035156,95.84600067138672,193.91200256347656,101.58100128173828,194.0399932861328C102.70700073242188,197.2270050048828,103.73300170898438,199.48199462890625,104.52300262451172,200.1439971923828C107.0530014038086,202.25,113.00199890136719,202.63400268554688,116.97899627685547,202.63400268554688C118.53600311279297,202.63400268554688,119.78900146484375,202.57400512695312,120.41699981689453,202.53700256347656C122.04199981689453,202.56300354003906,129.2270050048828,202.56300354003906,132.19400024414062,199.66799926757812C133.11900329589844,198.77099609375,133.60499572753906,197.64599609375,133.60299682617188,196.4219970703125C133.6020050048828,192.15899658203125,132.25100708007812,188.7530059814453,129.58900451660156,186.29299926757812C126.25599670410156,183.21499633789062,121.70500183105469,182.4810028076172,119.03800201416016,182.33200073242188L119.37100219726562,162.59500122070312C122.89399719238281,159.64999389648438,136.91200256347656,146.68299865722656,137.4409942626953,126.74600219726562C144.00799560546875,128.27200317382812,162.12899780273438,132.56900024414062,171.3939971923828,135.55799865722656C179.80999755859375,138.2729949951172,191.2480010986328,139.25100708007812,197.33200073242188,139.58999633789062L197.51400756835938,148.12100219726562L200.3679962158203,146.63400268554688C200.82400512695312,146.40199279785156,202.80599975585938,145.61300659179688,203.38900756835938,146.2899932861328C204.9550018310547,149.01699829101562,209.2899932861328,177.91200256347656,209.54600524902344,183.1230010986328C209.72300720214844,186.63400268554688,210.45399475097656,188.8509979248047,211.86300659179688,190.08399963378906C212.6179962158203,190.7429962158203,213.53799438476562,191.08700561523438,214.54600524902344,191.08700561523438C214.66799926757812,191.08700561523438,214.79299926757812,191.08099365234375,214.92100524902344,191.06900024414062C215.3000030517578,191.0399932861328,216.48300170898438,191.00100708007812,218.19200134277344,190.96499633789062C218.70399475097656,194.25,219.36399841308594,197.15199279785156,220.20199584960938,198.19400024414062C222.62600708007812,201.22300720214844,232.04100036621094,201.0850067138672,239.51600646972656,200.4320068359375C247.14100646972656,199.77000427246094,250.64500427246094,194.76800537109375,249.94200134277344,185.56700134277344C249.54100036621094,180.3520050048828,241.96600341796875,179.1820068359375,237.99200439453125,178.92100524902344L238.3459930419922,129.19200134277344C240.78399658203125,126.49700164794922,250.53399658203125,115.17500305175781,253.6179962158203,103.8759994506836C255.21600341796875,98.02400207519531,256.3890075683594,92.01799774169922,257.16900634765625,87.44300079345703C258.260986328125,87.68299865722656,259.5060119628906,87.87200164794922,260.87298583984375,87.87200164794922C263.9620056152344,87.87200164794922,267.57000732421875,86.96199798583984,270.8609924316406,83.87699890136719C271.57000732421875,83.73400115966797,272.5450134277344,83.4209976196289,273.9649963378906,82.7969970703125C274.6109924316406,82.51399993896484,279.3630065917969,80.38899993896484,281.1940002441406,78.375C281.3970031738281,78.31300354003906,281.60198974609375,78.24400329589844,281.80499267578125,78.13300323486328C284.1109924316406,76.9000015258789,284.74798583984375,73.25599670410156,284.3330078125,63.722999572753906zM259.71600341796875,16.60300064086914C263.8840026855469,18.166000366210938,276.82501220703125,26.447999954223633,277.4750061035156,32.933998107910156C277.8710021972656,36.84600067138672,277.7869873046875,42.3380012512207,277.6210021972656,46.78099822998047C277.14599609375,46.21900177001953,276.68499755859375,45.694000244140625,276.2489929199219,45.2130012512207C274.14300537109375,42.9119987487793,274.1449890136719,41.775001525878906,274.1619873046875,38.4010009765625L274.1650085449219,37.43199920654297C274.1650085449219,32.875999450683594,271.4840087890625,26.93899917602539,271.37799072265625,26.690000534057617L271.0769958496094,26.22100067138672C270.7690124511719,25.86400032043457,266.3320007324219,20.75,259.6390075683594,16.577999114990234C259.6619873046875,16.584999084472656,259.6889953613281,16.593000411987305,259.71600341796875,16.60300064086914zM82.78700256347656,147.0850067138672C82.28199768066406,146.52499389648438,82.22100067138672,146.24099731445312,82.20899963378906,146.24099731445312C82.34700012207031,145.86900329589844,83.51300048828125,145.14599609375,84.14099884033203,144.75999450683594C85.0770034790039,144.1820068359375,86.04399871826172,143.58399963378906,86.7030029296875,142.76400756835938C87.71399688720703,141.4980010986328,87.35900115966797,139.6820068359375,86.5,135.29800415039062C85.51799774169922,130.2790069580078,84.0510025024414,122.75700378417969,84.67400360107422,114.98999786376953C84.85600280761719,115.46700286865234,85.04100036621094,115.95099639892578,85.24400329589844,116.45099639892578C88.59600067138672,124.71800231933594,92.97799682617188,133.0489959716797,96.1780014038086,139.1320037841797C97.85900115966797,142.32400512695312,99.45500183105469,145.36099243164062,99.97899627685547,146.69700622558594C99.3030014038086,147.0679931640625,97.84100341796875,147.48399353027344,96.90699768066406,147.75100708007812C94.18599700927734,148.52200317382812,91.61599731445312,149.25399780273438,91.23200225830078,151.55499267578125C91.1050033569336,152.31500244140625,91.98899841308594,157.1020050048828,93.37799835205078,163.4010009765625C90.81099700927734,157.57200622558594,85.86699676513672,150.5070037841797,82.78700256347656,147.0850067138672zM96.59200286865234,189.6540069580078C96.26599884033203,188.13800048828125,96.08100128173828,184.03199768066406,95.94400024414062,180.9429931640625C95.80799865722656,177.9219970703125,95.66999816894531,174.86900329589844,95.41999816894531,172.16299438476562C96.91999816894531,178.32400512695312,98.63600158691406,184.7989959716797,100.25199890136719,189.99400329589844C98.16500091552734,189.90699768066406,97.10099792480469,189.75999450683594,96.59200286865234,189.6540069580078zM214.52699279785156,187.0919952392578C214.5189971923828,187.0850067138672,213.7239990234375,186.5260009765625,213.54800415039062,182.92799377441406C213.375,179.35400390625,209.11700439453125,146.92599487304688,206.53900146484375,143.83200073242188C205.13900756835938,142.14999389648438,203.15199279785156,141.86900329589844,201.39100646972656,142.1439971923828L201.343994140625,139.76300048828125C201.42799377441406,139.76499938964844,201.4929962158203,139.76499938964844,201.52200317382812,139.76499938964844L201.6510009765625,139.7689971923828L210.36000061035156,138.83099365234375L217.1510009765625,181.7689971923828C217.2760009765625,183.27099609375,217.44900512695312,185.08599853515625,217.6719970703125,186.9720001220703C216.31199645996094,187.00900268554688,215.06399536132812,187.04600524902344,214.52699279785156,187.0919952392578zM257.75299072265625,83.49500274658203C246.26400756835938,80.73799896240234,244.71200561523438,71.4540023803711,244.65199279785156,71.06800079345703C244.4969940185547,69.9729995727539,243.46400451660156,69.21299743652344,242.38999938964844,69.37000274658203C241.28900146484375,69.5270004272461,240.53599548339844,70.53800201416016,240.6929931640625,71.63300323486328C240.7550048828125,72.09100341796875,242.3280029296875,81.9209976196289,253.31199645996094,86.25700378417969C252.54200744628906,90.79000091552734,251.37399291992188,96.9020004272461,249.75100708007812,102.82599639892578C246.56300354003906,114.53500366210938,235.00100708007812,126.9229965209961,234.89199829101562,127.0459976196289L234.35499572753906,127.61599731445312L233.95899963378906,182.85699462890625L235.9770050048828,182.85699462890625C240.04400634765625,182.85699462890625,245.81100463867188,184.0030059814453,245.95599365234375,185.87399291992188C246.1230010986328,188.06100463867188,246.00599670410156,189.83200073242188,245.6439971923828,191.30499267578125C245.57899475097656,189.16600036621094,245.25399780273438,186.65499877929688,244.30999755859375,185.55099487304688C243.9980010986328,185.1840057373047,243.4550018310547,185.14500427246094,243.08700561523438,185.45700073242188C242.72799682617188,185.76800537109375,242.68899536132812,186.31199645996094,242.99400329589844,186.6739959716797C243.89100646972656,187.7270050048828,244.07899475097656,192.31100463867188,243.82699584960938,194.29800415039062C243.8070068359375,194.41600036621094,243.82400512695312,194.5290069580078,243.85000610351562,194.64300537109375C243.39700317382812,195.06700134277344,242.86399841308594,195.41299438476562,242.25399780273438,195.67999267578125C242.34800720214844,193.85000610351562,241.9199981689453,189.8520050048828,240.62899780273438,187.91299438476562C240.36599731445312,187.51699829101562,239.82899475097656,187.4080047607422,239.4320068359375,187.6739959716797C239.03599548339844,187.94000244140625,238.92999267578125,188.4770050048828,239.19900512695312,188.8730010986328C240.30299377441406,190.53199768066406,240.68800354003906,194.68699645996094,240.51100158691406,195.93899536132812C240.49200439453125,196.03799438476562,240.5050048828125,196.1269989013672,240.531005859375,196.2220001220703C240.09300231933594,196.31399536132812,239.6580047607422,196.4040069580078,239.16600036621094,196.44900512695312C228.77099609375,197.35299682617188,223.98199462890625,196.30999755859375,223.35400390625,195.74600219726562C222.6230010986328,194.53500366210938,221.625,187.37899780273438,221.11000061035156,181.2949981689453L213.71299743652344,134.45700073242188L201.48399353027344,135.76800537109375C199.8800048828125,135.72500610351562,183.31399536132812,135.2050018310547,172.6300048828125,131.75100708007812C162.6529998779297,128.5330047607422,143.28399658203125,123.98799896240234,137.5240020751953,122.65699768066406C137.3780059814453,120.58399963378906,136.63099670410156,116.29100036621094,133.4600067138672,109.09200286865234C133.01499938964844,108.0790023803711,131.8350067138672,107.62200164794922,130.822998046875,108.06700134277344C129.81100463867188,108.51000213623047,129.35400390625,109.69200134277344,129.8000030517578,110.70899963378906C132.20599365234375,116.17400360107422,133.072998046875,119.7300033569336,133.38499450683594,121.72000122070312L133.36599731445312,121.71499633789062L133.447998046875,124.3030014038086C134.1510009765625,146.10499572753906,116.9219970703125,159.49000549316406,116.18900299072266,160.04299926757812L115.41699981689453,160.63099670410156L114.98300170898438,186.48500061035156L117.16699981689453,186.322998046875C117.22899627685547,186.3209991455078,123.30400085449219,185.90699768066406,126.9000015258789,189.2530059814453C128.697998046875,190.9239959716797,129.61199951171875,193.33799743652344,129.61300659179688,196.43499755859375C129.61300659179688,196.50999450683594,129.61300659179688,196.6219940185547,129.41200256347656,196.8179931640625C129.20199584960938,197.0189971923828,128.89199829101562,197.20199584960938,128.54200744628906,197.36500549316406L128.42999267578125,195.44700622558594C128.20399475097656,191.6199951171875,126.78399658203125,190.71800231933594,126.50199890136719,190.57899475097656C126.0770034790039,190.37399291992188,125.52999877929688,190.5229949951172,125.31500244140625,190.95199584960938C125.10299682617188,191.3800048828125,125.2490005493164,191.88299560546875,125.67500305175781,192.09800720214844C125.68299865722656,192.1060028076172,126.53700256347656,192.73300170898438,126.7040023803711,195.5500030517578L126.84500122070312,197.9459991455078C126.02100372314453,198.14100646972656,125.0999984741211,198.29800415039062,124.16300201416016,198.39500427246094L124.07499694824219,196.89700317382812C123.8489990234375,193.0709991455078,122.43000030517578,192.16799926757812,122.14600372314453,192.02999877929688C121.72000122070312,191.822998046875,121.17500305175781,191.9709930419922,120.96099853515625,192.4010009765625C120.74700164794922,192.8300018310547,120.89399719238281,193.33399963378906,121.31999969482422,193.5469970703125C121.3290023803711,193.5540008544922,122.18199920654297,194.17999267578125,122.3479995727539,196.99899291992188L122.43800354003906,198.52000427246094C121.7300033569336,198.5500030517578,121.04299926757812,198.56500244140625,120.44200134277344,198.54200744628906L120.3550033569336,198.5399932861328L120.2699966430664,198.5449981689453C115.97699737548828,198.80299377441406,108.81600189208984,198.51400756835938,107.16500091552734,197.1490020751953C106.61399841308594,196.50799560546875,105.78700256347656,194.3780059814453,104.81900024414062,191.36900329589844C104.80899810791016,191.34500122070312,104.8030014038086,191.31500244140625,104.79299926757812,191.28900146484375C101.15699768066406,179.96400451660156,95.56700134277344,156.3730010986328,95.1969985961914,152.54800415039062C95.80599975585938,152.23199462890625,97.14900207519531,151.8509979248047,98.0009994506836,151.60899353027344C100.74099731445312,150.83399963378906,104.88200378417969,149.65199279785156,104.00900268554688,146.17799377441406C103.66500091552734,144.81399536132812,102.37300109863281,142.32400512695312,99.71700286865234,137.28199768066406C96.55599975585938,131.27000427246094,92.22699737548828,123.05000305175781,88.9489974975586,114.96399688720703C84.14099884033203,103.1050033569336,86.65399932861328,99.5469970703125,86.63999938964844,99.5469970703125L86.63999938964844,99.5469970703125L83.80500030517578,96.70700073242188L83.80500030517578,96.70700073242188C83.79900360107422,96.71299743652344,83.79199981689453,96.72100067138672,83.78600311279297,96.72799682617188C83.4209976196289,97.0989990234375,79.20800018310547,101.53600311279297,71.4990005493164,115.48699951171875C64.66100311279297,127.86199951171875,55.784000396728516,133.56900024414062,40.86399841308594,135.1750030517578C36.106998443603516,135.6959991455078,31.947999954223633,135.1510009765625,28.591999053955078,134.2530059814453C38.17399978637695,133.6490020751953,52.42399978637695,130.09300231933594,63.994998931884766,116.15599822998047C67.24400329589844,111.8740005493164,70.5739974975586,105.61399841308594,74.0999984741211,98.98799896240234C79.6500015258789,88.55500030517578,85.94000244140625,76.73400115966797,93.29900360107422,70.04299926757812C104.57599639892578,59.79399871826172,130.6320037841797,58.12699890136719,147.89500427246094,63.007999420166016C167.03799438476562,68.41400146484375,185.5500030517578,68.28099822998047,202.92799377441406,62.61000061035156C204.79400634765625,62.000999450683594,206.52499389648438,61.29399871826172,208.1750030517578,60.54499816894531C208.55799865722656,61.22700119018555,208.94500732421875,61.9109992980957,209.33599853515625,62.60499954223633C210.66600036621094,64.94499969482422,212.03700256347656,67.36699676513672,213.1959991455078,69.85099792480469C215.3520050048828,74.46399688720703,217.41900634765625,76.90699768066406,219.8990020751953,77.77100372314453C220.593994140625,78.01200103759766,221.28399658203125,78.11499786376953,221.95599365234375,78.11499786376953C223.68299865722656,78.11499786376953,225.29400634765625,77.447998046875,226.6009979248047,76.7959976196289C231.88999938964844,74.1520004272461,234.5,70.05999755859375,233.1750030517578,56.03099822998047C231.88999938964844,42.37099838256836,230.84100341796875,29.823999404907227,230.83099365234375,29.697999954223633C230.73500061035156,28.597000122070312,229.78700256347656,27.781999588012695,228.6699981689453,27.871000289916992C227.56700134277344,27.961999893188477,226.7519989013672,28.93000030517578,226.84100341796875,30.0310001373291C226.85499572753906,30.1560001373291,227.9029998779297,42.724998474121094,229.19500732421875,56.404998779296875C230.50999450683594,70.36699676513672,227.61500549316406,71.81400299072266,224.81199645996094,73.21600341796875C223.13299560546875,74.05500030517578,222.05999755859375,74.28299713134766,221.21400451660156,73.99400329589844C219.89199829101562,73.53299713134766,218.41099548339844,71.56800079345703,216.8179931640625,68.15899658203125C215.58900451660156,65.52999877929688,214.18099975585938,63.040000915527344,212.81199645996094,60.63100051879883C210.11099243164062,55.874000549316406,207.56399536132812,51.38100051879883,207.08200073242188,46.87200164794922C206.8159942626953,44.40800094604492,209.75100708007812,39.340999603271484,214.92799377441406,33.321998596191406C219.77200317382812,27.690000534057617,224.49000549316406,23.577999114990234,225.5590057373047,23.042999267578125C227.12100219726562,22.260000228881836,229.64100646972656,23.944000244140625,230.4029998779297,24.59600067138672C231.24099731445312,25.316999435424805,232.50599670410156,25.225000381469727,233.21800231933594,24.391000747680664C233.94400024414062,23.555999755859375,233.85400390625,22.29199981689453,233.01800537109375,21.569000244140625C232.79299926757812,21.375999450683594,231.7779998779297,20.527999877929688,230.34800720214844,19.82699966430664C231.40499877929688,18.027000427246094,234.36199951171875,15.15999984741211,242.50100708007812,15.15999984741211C242.7169952392578,15.15999984741211,242.93600463867188,15.16100025177002,243.14999389648438,15.166000366210938C255.50100708007812,15.390999794006348,266.3179931640625,26.922000885009766,267.8380126953125,28.610000610351562C268.58099365234375,30.31399917602539,270.1499938964844,34.52799987792969,270.1499938964844,37.430999755859375L270.14599609375,38.37900161743164C270.125,42.040000915527344,270.1159973144531,44.457000732421875,273.2850036621094,47.91400146484375C276.4429931640625,51.35900115966797,280.0989990234375,56.28300094604492,280.3290100097656,63.87099838256836C280.635986328125,70.95600128173828,280.2250061035156,73.46800231933594,279.92498779296875,74.3499984741211C279.4289855957031,74.0780029296875,278.7070007324219,73.55699920654297,278.1839904785156,73.177001953125C277.5159912109375,72.69499969482422,276.8039855957031,72.18299865722656,276.06500244140625,71.73300170898438L274.21099853515625,70.59700012207031L273.2330017089844,72.54499816894531C273.1730041503906,72.66000366210938,273.0820007324219,72.89600372314453,272.9530029296875,73.22899627685547C269.6780090332031,81.67400360107422,264.57000732421875,85.13999938964844,257.75299072265625,83.49500274658203zM273.802001953125,80.34600067138672C274.5480041503906,79.21700286865234,275.2640075683594,77.9469985961914,275.9280090332031,76.47899627685547C276.66400146484375,77.01000213623047,277.40899658203125,77.54100036621094,278.1650085449219,77.92900085449219C276.99700927734375,78.70099639892578,275.33599853515625,79.61299896240234,273.802001953125,80.34600067138672z"></path></g></svg>