<?xml version="1.0" encoding="utf-8"?>
<!-- Generator: Adobe Illustrator 15.0.0, SVG Export Plug-In . SVG Version: 6.00 Build 0)  -->
<!DOCTYPE svg PUBLIC "-//W3C//DTD SVG 1.1//EN" "http://www.w3.org/Graphics/SVG/1.1/DTD/svg11.dtd">
<svg version="1.1" id="Layer_1" xmlns="http://www.w3.org/2000/svg" xmlns:xlink="http://www.w3.org/1999/xlink" x="0px" y="0px"
	 width="659px" height="448px" viewBox="0 0 659 448" enable-background="new 0 0 659 448" xml:space="preserve">
<g id="Elephant.svg">
	<path id="Elephant" fill="#D3CEC9" d="M435.061,308.507c1.404,1.138,2.896,2.331,4.454,3.579
		c15.989,12.808,40.15,32.161,52.728,55.909c13.084,24.714,16.584,41.072,15.604,47.572c-0.125,0.826-0.354,1.855-0.577,2.854
		c-0.974,4.396-2.307,10.414,0.753,14.228c1.86,2.315,5.148,3.491,9.771,3.491c0.427,0,0.866-0.01,1.323-0.025
		c14.833-0.643,38.325-3.656,42.238-9.349c0.614-0.894,0.771-1.83,0.469-2.786c-2.505-9.27-6.505-12.416-10.035-15.191
		c-2.713-2.14-5.048-3.979-6.242-8.225c-1.035-3.685-1.176-6.551-1.336-9.866c-0.269-5.501-0.602-12.348-5.446-25.911
		c-3.09-8.653-10.354-25.312-18.051-42.947l-0.062-0.146c-11.457-26.264-24.442-56.027-27.187-67.455
		c-4.78-19.922-7.584-49.757-3.918-54.892l1.217-1.713c7.597-10.709,13.73-18.926,18.244-24.42l0.858-1.046l1.128,0.748
		c4.396,2.876,6.937,3.659,9.215,2.829c2.165-0.786,3.722-3.125,5.044-7.584l0.506-1.703l1.625,0.68
		c3.597,1.768,8.2,3.579,14.778,3.232l14.043-0.739l0.134,1.437c0.355,3.88,1.982,13.368,9.355,17.668
		c7.422,4.33,15.25,5.219,18.271,5.401l0.89,0.053l0.381,0.805c2.041,4.336,8.752,19.992,9.396,39.409
		c0.748,22.431,2.305,69.08-3.062,102.054c-4.039,24.804-6.9,47.964,2.311,58.795c3.729,4.385,9.354,6.502,16.629,6.302
		c11.617-0.323,19.229-2.812,22.008-7.19c1.834-2.895,1.042-5.664,0.759-6.445l-0.051-0.155
		c-0.456-1.843-4.695-17.999-13.301-17.999c-1.146,0-2.328,0.3-3.512,0.894c-2.303,1.148-4.066,2.638-5.242,4.414l-3.115,4.713
		l0.367-5.64c0.303-4.643,1.419-10.271,3.316-16.727c0.496-1.688,1.048-3.541,1.646-5.555c8.838-29.687,27.223-91.424,22.182-137.5
		c-4.827-44.14-22.953-97.221-30.692-119.887c-0.927-2.711-1.723-5.043-2.356-6.944c-5.286-15.866-15.13-45.391-41.089-50.258
		c-5.577-1.045-29.552-1.793-29.552-1.793l-0.056-0.023l-0.087-0.038l-0.002,0.005c-18.601-7.217-59.843-18.127-79.622-18.127
		c-5.63,0-8.18,0.878-9.322,1.615c-3.281,2.111-10.328,8.398-17.273,17.594l0.018-0.001l-1.975,2.677l-1.066,0.582
		c-8.186,0.667-17.962,1.619-28.315,2.628c-23.366,2.277-49.854,4.859-66.321,4.859c-9.535,0-21.415-2.393-35.17-5.164
		c-17.461-3.518-37.25-7.503-57.383-7.503c-14.843,0-27.837,2.145-39.724,6.555c-11.984,4.446-23.529,10.611-34.314,18.326
		l-0.169,0.121l-0.353,0.354l-0.307,0.001c-24.527,10.938-72.952,52.458-75.014,99.909c-4.464,85.871-14.134,109.503-23.92,122.251
		c-9.195,11.979-22.808,17.637-23.381,17.871c-0.239,0.096-0.367,0.348-0.306,0.59c0.058,0.225,0.256,0.377,0.482,0.377
		c0.517-0.059,11.481-1.442,25.972-12.438c17.285-14.38,25.453-57.778,31.417-89.469c0.981-5.219,2.095-11.135,3.166-16.208
		l1.381,0.292l1.586-0.021c0.387,9.083,1.42,17.677,3.153,26.234l0.739,3.462l-0.044,0.688c-1.922,6.339-4.77,12.899-7.782,19.847
		c-4.701,10.839-10.028,23.117-12.561,36.441c-1.618,8.52-2.666,17.604-3.68,26.396c-2.104,18.262-4.094,35.509-10.747,46.257
		c-14.164,22.881-29.717,52.811-26.934,61.854c2.854,9.275,15.557,18.668,34.312,18.668c0.652,0,1.31-0.014,1.973-0.033
		c19.313-0.688,21.527-1.516,21.527-8.025c0-2.435-1.738-5.618-3.752-9.308c-3.304-6.059-7.046-12.913-4.729-18.936l0.458-1.188
		c15.006-39.127,26.249-61.318,33.415-65.957c5.75-3.72,12.374-7.288,16.919-9.626l1.974,0.562l0.211,0.4l0.527,1.015l-0.155,0.08
		c1.059,2.866,1.911,5.351,2.674,7.568c1.129,3.282,2.194,6.384,3.723,10.312c5.244,13.485,5.442,75.478,4.36,85.213
		c-0.5,4.507-0.438,7.527,1.354,9.646c1.941,2.296,5.63,3.354,13.157,3.771l0.107,0.006c5.138,0.286,12.85,0.716,20.254,0.716
		c16.458,0,24.458-2.099,24.458-6.414c0-9.059-4.035-14.13-8.308-19.501c-4.296-5.397-8.353-10.497-9.104-19.893
		c-2.066-25.834-3.116-76.334,3.654-81.75c1.891-1.515,3.345-3.09,4.752-4.615c3.718-4.031,6.653-7.213,15.199-7.213
		c1.725,0,3.671,0.14,5.784,0.414c4.676,0.606,14.488,1.633,27.678,1.633c19.479,0,48.256-2.287,74.729-13.188
		c8.681-3.575,17.137-6.754,25.131-9.44l1.623-0.547l0.422,1.646c0.878,4.512,2.349,10.521,4.591,19.371
		c4.354,17.193,9.771,38.58,8.521,50.023c-2.092,19.11-5.59,51.101-9.956,60.513c-4.72,10.161-8.679,23.038-5.646,28.7
		c0.903,1.688,2.368,2.695,4.354,3.004c4.487,0.688,17.727,2.114,29.979,2.114c6.613,0,11.864-0.416,15.607-1.235
		c4.706-1.031,7.094-2.762,7.094-5.14c-0.089-5.229-4.268-10.105-7.951-14.41c-3.965-4.626-7.38-8.611-5.188-11.898
		c3.292-4.938,4.62-11.245,7.83-26.487l0.021-0.106c1.339-6.357,3.006-14.271,5.274-24.262c2.725-11.984,7.214-27.76,13.349-46.896
		l0.863-2.758l1.88,1.387C428.917,302.211,433.017,306.847,435.061,308.507z"/>
	<path id="ElephantBorder" fill="#928270" d="M619.922,368.253c-1.384,0-2.79,0.354-4.183,1.049
		c-2.729,1.364-4.601,3.076-5.823,4.933c0.261-3.983,1.176-9.312,3.261-16.399c0.495-1.684,1.047-3.537,1.646-5.55
		c8.859-29.769,27.308-91.703,22.229-138.09c-4.847-44.305-23.009-97.496-30.766-120.209c-0.925-2.707-1.72-5.036-2.354-6.934
		c-5.385-16.155-15.403-46.228-42.232-51.258c-5.672-1.062-15.534-1.645-29.323-1.733c0.015,0.006,0.026,0.011,0.042,0.017
		c-0.05-0.019-0.099-0.038-0.146-0.057c-21.143-8.203-79.166-23.538-90.302-16.375c-4.104,2.638-12.271,10.277-19.562,20.55
		c-0.025,0.036-0.053,0.072-0.077,0.109c0.011-0.015,0.021-0.029,0.029-0.042c-8.171,0.666-17.869,1.609-28.341,2.63
		c-23.336,2.274-49.78,4.853-66.176,4.853c-9.384,0-21.195-2.379-34.874-5.134c-17.529-3.531-37.396-7.533-57.68-7.533
		c-15.022,0-28.188,2.174-40.246,6.648c-12.177,4.518-23.904,10.815-34.665,18.513c-0.09,0.062-0.18,0.128-0.271,0.193
		c-0.001,0-0.002,0.001-0.003,0.002c0.001,0,0.002-0.001,0.003-0.002c-23.076,10.142-74.052,51.973-76.197,101.345
		c-4.439,85.454-13.971,108.849-23.609,121.407c-9.035,11.771-22.623,17.342-22.759,17.396c-0.93,0.373-1.438,1.377-1.191,2.35
		c0.229,0.896,1.032,1.508,1.937,1.508c0.075,0,0.153-0.004,0.23-0.016c0.477-0.058,11.813-1.478,26.648-12.729
		c17.752-14.77,25.978-58.476,31.983-90.389c1.024-5.444,2.105-11.185,3.159-16.176c0-0.002,0-0.005,0-0.007
		c0.001,0.043,0.003,0.087,0.005,0.131c0.456,10.736,1.847,20.581,3.891,29.71c0.009,0.039,0.018,0.078,0.025,0.117
		c-0.003-0.013-0.006-0.025-0.009-0.04c-1.889,6.23-4.748,12.829-7.722,19.688c-4.731,10.905-10.095,23.271-12.658,36.76
		c-1.626,8.559-2.679,17.682-3.696,26.503c-2.086,18.094-4.057,35.18-10.532,45.641c-5.187,8.379-30.87,50.801-27.092,63.084
		c3.017,9.803,16.264,19.729,35.747,19.729c0.669,0,1.343-0.014,2.024-0.034c18.212-0.649,22.976-1.166,22.976-9.524
		c0-2.814-1.824-6.158-3.936-10.026c-3.146-5.767-6.713-12.302-4.646-17.675l0.458-1.188c18.547-48.36,28.09-62.169,32.83-65.235
		c5.5-3.56,11.812-6.99,16.79-9.552c0-0.003-0.001-0.003-0.002-0.006c0.001,0.003,0.001,0.003,0.002,0.006
		c0.013,0.034,0.026,0.067,0.04,0.104c1.215,3.236,2.157,5.976,3.086,8.679c1.137,3.31,2.211,6.433,3.743,10.367
		c5.178,13.315,5.343,74.827,4.268,84.502c-0.546,4.911-0.442,8.253,1.7,10.782c2.241,2.648,6.228,3.854,14.219,4.297l0.116,0.008
		c5.125,0.283,12.87,0.718,20.329,0.718c17.952,0,25.958-2.44,25.958-7.913c0-9.582-4.39-15.104-8.635-20.438
		c-4.148-5.213-8.067-10.139-8.782-19.074c-2.448-30.604-2.455-76.021,3.096-80.461c1.977-1.58,3.473-3.203,4.918-4.771
		c3.604-3.904,6.206-6.729,14.097-6.729c1.667,0,3.547,0.139,5.591,0.401c4.713,0.614,14.601,1.646,27.871,1.646
		c19.615,0,48.603-2.309,75.3-13.301c9.156-3.771,17.52-6.877,25.038-9.406c0.031-0.012,0.062-0.021,0.096-0.03
		c0.897,4.617,2.44,10.896,4.607,19.451c4.323,17.069,9.704,38.313,8.479,49.493c-2.08,19.021-5.562,50.855-9.825,60.043
		c-2.361,5.092-9.75,22.301-5.604,30.041c1.12,2.098,3.006,3.4,5.444,3.775c4.521,0.695,17.855,2.133,30.21,2.133h0.001
		c6.719,0,12.078-0.428,15.929-1.271c5.487-1.203,8.271-3.414,8.271-6.604c-0.101-5.799-4.469-10.896-8.32-15.396
		c-4.128-4.816-6.524-7.898-5.069-10.082c3.449-5.177,4.799-11.568,8.051-27.011c1.343-6.375,3.014-14.312,5.294-24.351
		c3.217-14.152,8.513-31.829,13.552-47.511c-0.003-0.004-0.005-0.008-0.008-0.01c0.037,0.045,0.074,0.092,0.108,0.137
		c1.878,2.312,3.934,4.435,6.181,6.253c1.403,1.141,2.896,2.334,4.461,3.584c15.894,12.729,39.908,31.97,52.337,55.44
		c12.913,24.392,16.393,40.373,15.446,46.646c-0.113,0.756-0.328,1.729-0.56,2.752c-1.039,4.691-2.464,11.117,1.046,15.49
		c2.16,2.688,5.845,4.055,10.941,4.055c0.445,0,0.907-0.01,1.387-0.026c1.537-0.065,37.729-1.731,43.414-9.993
		c0.88-1.277,1.106-2.691,0.659-4.095c-2.613-9.685-7.006-13.142-10.536-15.916c-2.604-2.056-4.662-3.674-5.728-7.45
		c-0.988-3.521-1.125-6.312-1.281-9.535c-0.271-5.599-0.61-12.564-5.531-26.343c-3.106-8.709-10.396-25.405-18.104-43.083
		c-11.45-26.249-24.435-55.999-27.146-67.312c-4.992-20.809-7.208-49.396-4.155-53.67l1.221-1.716
		c7.612-10.738,13.688-18.864,18.182-24.337c0.022,0.017,0.05,0.032,0.073,0.049c3.312,2.168,5.936,3.33,8.253,3.329
		c0.771,0,1.509-0.128,2.229-0.389c2.907-1.056,4.65-4.123,5.973-8.567c0.01-0.035,0.021-0.07,0.027-0.105
		c3.672,1.805,8.571,3.751,15.521,3.385l12.604-0.663c0.398,4.34,2.183,14.21,10.097,18.827c7.722,4.504,15.854,5.417,18.938,5.603
		c1.904,4.047,8.615,19.586,9.258,38.82c0.746,22.373,2.3,68.929-3.046,101.763c-4.099,25.164-6.979,48.688,2.646,60.008
		c4.037,4.748,9.983,7.046,17.812,6.828c12.312-0.342,20.129-2.996,23.231-7.889c2.222-3.503,1.215-6.9,0.896-7.769
		C634.062,384.899,629.587,368.253,619.922,368.253z M100.286,168.617c-2.066,4.183-3.885,13.062-7.062,29.941
		c-5.561,29.549-13.965,74.206-30.541,87.995c-1.79,1.356-3.527,2.562-5.196,3.633c2.075-1.938,4.116-4.127,5.992-6.567
		c10.032-13.067,19.937-37.095,24.433-123.65c1.497-34.421,28.721-65.773,51.716-83.854l-0.331,0.343
		c-2.68,2.78-5.258,5.647-7.694,8.616c-17.921,21.834-28.565,47.646-30.785,74.646c-0.245,2.97-0.415,5.874-0.523,8.721
		C100.29,168.496,100.288,168.556,100.286,168.617c0.008-0.016,0.016-0.036,0.023-0.052L100.286,168.617z M143.319,307.441
		c-5.13,2.632-11.744,6.213-17.513,9.941c-7.621,4.934-19.192,27.524-34.392,67.16l-0.456,1.188
		c-0.252,0.653-0.445,1.313-0.585,1.979c-0.005,0.026-0.007,0.053-0.013,0.079c-0.783,0.029-1.625,0.052-2.545,0.07
		c-2.245,0.051-5.039,0.11-8.371,0.371c-0.825,0.062-1.443,0.78-1.38,1.606c0.062,0.786,0.719,1.385,1.494,1.385
		c0.039,0,0.078-0.002,0.117-0.006c3.25-0.25,5.884-0.31,8.208-0.356c0.784-0.021,1.513-0.035,2.205-0.062
		c0,0.028-0.004,0.062-0.003,0.09c0.024,1.308,0.219,2.61,0.526,3.91c-2.717-0.457-5.907-1.127-9.403-1.877
		c-0.812-0.177-1.608,0.345-1.781,1.151c-0.173,0.81,0.342,1.604,1.152,1.781c4.173,0.895,7.924,1.678,11.01,2.137
		c1.146,3.088,2.77,6.063,4.239,8.758c1.771,3.248,3.445,6.314,3.445,8.111c0,4.01,0,4.846-19.119,5.524
		c-0.633,0.021-1.26,0.032-1.882,0.032c-17.356,0-29.401-8.709-31.923-16.9c-2.36-7.675,12.17-36.38,26.67-59.805
		c6.945-11.221,8.965-28.735,11.104-47.285c1.009-8.75,2.053-17.8,3.651-26.215c2.481-13.053,7.522-24.676,12.398-35.914
		c2.093-4.822,4.125-9.521,5.83-14.097c0.009,0.033,0.018,0.066,0.025,0.1c5.224,19.272,13.153,35.396,20.562,50.454
		c1.793,3.646,3.487,7.086,5.132,10.553c5.688,11.977,9.142,19.939,11.563,26.045L143.319,307.441z M424.952,299.375
		c-0.013-0.02-0.025-0.037-0.039-0.057c-5.323,16.428-11.098,35.479-14.53,50.592c-2.288,10.062-3.962,18.021-5.309,24.408
		c-0.036,0.172-0.067,0.321-0.104,0.492c-0.001,0-0.001,0-0.001,0c-1.896-1.673-3.717-4.058-5.434-7.146
		c-0.402-0.725-1.317-0.983-2.04-0.582c-0.492,0.273-0.771,0.785-0.771,1.312c0,0.245,0.062,0.495,0.188,0.729
		c2.246,4.046,4.72,7.048,7.362,8.974c-1.391,6.554-2.414,11.158-3.493,14.672c-3.1-2.676-6.905-4.746-10.829-5.815
		c-0.797-0.219-1.624,0.252-1.843,1.054c-0.036,0.131-0.057,0.264-0.057,0.396c0,0.657,0.438,1.267,1.104,1.444
		c3.89,1.062,7.656,3.219,10.55,5.992c-0.437,1.09-0.896,2.065-1.405,2.961c-1.905-1.363-4.562-2.586-8.271-3.824
		c-0.791-0.266-1.639,0.164-1.896,0.949c-0.053,0.155-0.077,0.315-0.077,0.478c0,0.629,0.397,1.215,1.025,1.424
		c3.616,1.205,6.128,2.384,7.771,3.64c-1.562,4.397,2.325,8.955,6.115,13.379c3.415,3.985,7.285,8.504,7.358,12.828
		c0,0.709-1.343,1.83-5.128,2.659c-3.568,0.783-8.645,1.181-15.072,1.181c-12.121,0-25.179-1.401-29.604-2.086
		c-1.193-0.185-2-0.729-2.524-1.713c-2.438-4.548,1.106-16.57,5.706-26.47c4.54-9.778,7.931-40.778,10.174-61.291
		c1.301-11.896-3.949-32.621-8.581-50.91c-1.677-6.621-3.597-14.201-4.65-19.73l0.063-0.021c18.091-5.83,30.81-8.114,37.244-8.114
		c2.216,0,3.264,0.271,3.688,0.433c4.521,1.692,8.225,3.849,9.682,4.744c0.881,3.902,4.887,20.004,13.504,32.852
		C424.87,299.252,424.911,299.314,424.952,299.375z M616.068,238.562c0.086,0.769,0.731,1.334,1.485,1.334
		c0.06,0,0.11-0.002,0.167-0.008c3.124-0.351,8.562-2.369,16.161-6.007c-0.025,2.015-0.101,4.041-0.188,6.08
		c-4.497,2.554-9.25,4.496-13.834,5.646c-0.808,0.201-1.292,1.017-1.093,1.815c0.172,0.685,0.78,1.14,1.452,1.14
		c0.12,0,0.243-0.019,0.364-0.045c4.278-1.069,8.689-2.804,12.924-5.037c-2.399,40.011-15.493,84.041-22.521,107.655
		c-0.604,2.02-1.154,3.875-1.65,5.562c-7.924,26.938,0.086,31.838,1.024,32.31c0.771,0.386,1.699,0.231,2.31-0.375
		c0.608-0.604,0.76-1.539,0.375-2.31c-0.185-0.367-4.381-9.019,4.481-13.446c0.831-0.416,1.636-0.628,2.394-0.628
		c5.688,0,9.879,12.003,10.896,16.207c0.021,0.097,0.062,0.218,0.104,0.308c0.034,0.091,0.85,2.151-0.562,4.312
		c-1.35,2.062-5.729,5.578-19.931,5.974c-6.591,0.172-11.396-1.588-14.651-5.422c-8.521-10.019-5.688-32.572-1.748-56.773
		c5.408-33.222,3.847-80.037,3.097-102.537c-0.771-23.229-9.824-40.827-10.21-41.563c-0.344-0.658-1.026-1.072-1.771-1.074
		c-0.098,0-9.587-0.082-18.194-5.104c-8.097-4.723-8.229-17.349-8.229-17.474c0-0.55-0.227-1.073-0.621-1.451
		c-0.396-0.377-0.933-0.578-1.48-0.546l-14.593,0.768c-6.438,0.346-10.826-1.596-14.312-3.362c0.011-0.045,0.021-0.09,0.028-0.136
		c0.072-0.332,0.146-0.668,0.217-1.012c4.582-22.153,5.381-33.59,5.411-34.066c0.074-1.102-0.76-2.055-1.861-2.128
		c-1.087-0.075-2.056,0.761-2.128,1.863c-0.009,0.114-0.812,11.637-5.341,33.521c-1.375,6.65-2.909,10.197-4.69,10.845
		c-2.93,1.063-9.648-4.256-18.946-11.622c-3.593-2.846-7.662-6.071-12.362-9.628c-8.513-6.441-17.342-11.911-25.879-17.201
		c-19.694-12.202-38.298-23.728-47.229-44.216c-12.813-29.406,19.729-63.625,29.202-69.715c9.344-5.998,73.041,10.009,90.993,18.557
		c0.992,0.475,2.188,0.052,2.664-0.946c0.06-0.122,0.099-0.246,0.128-0.372c0.01-0.041,0.021-0.081,0.024-0.122
		c10.626,0.191,18.354,0.727,23.02,1.601c24.519,4.597,34.054,33.215,39.178,48.59c0.639,1.905,1.438,4.244,2.361,6.961
		c7.714,22.588,25.776,75.486,30.573,119.352c0.222,2.021,0.381,4.081,0.514,6.159c-4.1,2.765-10.082,6.16-17.108,8.169
		c-0.8,0.229-1.261,1.06-1.029,1.854c0.188,0.658,0.789,1.088,1.438,1.088c0.14,0,0.274-0.021,0.413-0.061
		c6.573-1.877,12.273-4.898,16.477-7.581c0.084,2.07,0.113,4.175,0.125,6.29c-9.902,4.816-14.447,6.131-16.512,6.357
		C616.571,236.999,615.979,237.739,616.068,238.562z M559.438,424.718c0.049,0.135,0.099,0.285-0.14,0.627
		c-2.548,3.701-20.624,7.41-40.293,8.269c-4.533,0.194-7.532-0.662-9.034-2.533c-2.31-2.877-1.125-8.219-0.261-12.118
		c0.242-1.097,0.473-2.132,0.605-3.021c1.085-7.205-2.518-23.896-15.867-49.113c-7.521-14.204-19.032-26.799-30.524-37.399
		c0.001-0.002,0.003-0.002,0.004-0.002c-0.816-2.392-1.397-5.842-2.007-9.479c-1.035-6.219-2.209-13.263-5.021-18.883
		c-4.188-8.379-15.117-11.879-32.448-10.438c-0.938-1.787-1.821-3.586-2.607-5.364c0.001-0.002,0.001-0.002,0.002-0.002
		c7.767-2.193,14.785-1.378,14.861-1.367c0.82,0.103,1.569-0.479,1.673-1.308c0.104-0.817-0.479-1.567-1.303-1.672
		c-0.342-0.045-7.919-0.942-16.416,1.562c-3.526-8.681-5.264-16.228-5.558-17.562c-0.027-0.123-0.043-0.191-0.048-0.207
		c-0.021-0.103-0.038-0.203-0.062-0.306c-3.718-18.358-6.595-37.517-6.641-39.812c0.121-0.833-0.29-1.687-1.086-2.084
		c-0.988-0.494-2.188-0.093-2.687,0.896c-0.312,0.628-0.562,1.125,1.592,14.626c1.188,7.461,2.631,15.591,4.062,22.938l0.034,0.173
		c-1.913-1.021-4.404-2.228-7.229-3.283c-1.227-0.459-2.893-0.687-5.094-0.687c-9.834,0-33.49,5.017-67.801,19.144
		c-26.092,10.744-54.521,13-73.774,13c-13.044,0-22.737-1.015-27.354-1.612c-2.215-0.289-4.27-0.438-6.108-0.438
		c-9.644,0-13.234,3.896-17.037,8.021c-1.347,1.459-2.737,2.969-4.478,4.357c-2.473,1.979-5.799,8.041-6.126,37.73
		c-0.179,16.229,0.674,35.312,1.542,46.168c0.098,1.214,0.268,2.345,0.468,3.441c-0.005,0.002-0.011,0.004-0.017,0.008
		c-5.351,0.903-13.494,2.502-19.552,4.664c-0.78,0.274-1.188,1.137-0.908,1.916c0.219,0.61,0.796,0.996,1.413,0.996
		c0.167,0,0.338-0.027,0.504-0.089c5.921-2.112,13.989-3.685,19.224-4.562c0.003-0.002,0.005-0.006,0.009-0.008
		c0.238,0.844,0.496,1.666,0.788,2.442l0,0c-5.319-0.711-9.052,0.968-15.195,4.037c-0.741,0.371-1.041,1.271-0.671,2.017
		c0.263,0.521,0.792,0.827,1.343,0.827c0.226,0,0.455-0.053,0.67-0.157c6.59-3.295,9.753-4.697,15.32-3.408
		c1.821,3.554,4.104,6.435,6.245,9.123c4.167,5.236,7.765,9.758,7.765,17.942c0,0.156-0.25,3.912-21.958,3.912
		c-7.347,0-15.025-0.429-20.106-0.709l-0.116-0.008c-6.491-0.356-10.004-1.25-11.388-2.888c-1.207-1.426-1.191-4.022-0.776-7.758
		c0.915-8.229,1.206-71.685-4.517-86.396c-1.502-3.861-2.562-6.951-3.688-10.221c-2.859-8.312-5.815-16.912-16.339-39.067
		c-1.657-3.487-3.357-6.94-5.157-10.603c-13.79-28.024-29.42-59.79-25.379-108.959c4.188-50.944,41.013-97.79,91.636-116.569
		c11.606-4.305,24.316-6.397,38.854-6.397c19.886,0,39.545,3.96,56.891,7.454c13.888,2.797,25.882,5.213,35.664,5.213
		c16.589,0,43.141-2.588,66.562-4.872c8.874-0.865,17.502-1.705,25.091-2.355c0.011-0.017,0.021-0.032,0.033-0.05
		c-0.028,0.044-0.061,0.089-0.085,0.133c-9.134,14.381-15.586,32.737-8.185,49.723c9.431,21.633,28.548,33.478,48.786,46.018
		c8.46,5.241,17.208,10.661,25.571,16.99c4.666,3.531,8.719,6.742,12.294,9.574c3.415,2.707,6.331,5.012,8.883,6.895
		c0.022,0.019,0.049,0.035,0.072,0.053c-5.542,6.741-12.234,15.985-18.154,24.332l-1.211,1.704
		c-4.562,6.389-0.899,38.496,3.521,56.93c2.799,11.652,15.854,41.575,27.369,67.979c7.687,17.613,14.939,34.248,18.006,42.83
		c0.521,1.463,0.979,2.828,1.4,4.131c-2.871,1.33-7.195,2.851-11.461,2.484c-0.822-0.052-1.551,0.547-1.619,1.369
		c-0.064,0.823,0.546,1.553,1.369,1.618c0.51,0.043,1.018,0.062,1.521,0.062c4.2,0,8.229-1.375,11.08-2.654
		c0.598,2.031,1.062,3.855,1.437,5.525c-2.562,0.332-6.172,0.805-10.774,1.418c-0.819,0.106-1.396,0.862-1.289,1.687
		c0.103,0.754,0.744,1.306,1.482,1.306c0.064,0,0.135-0.007,0.2-0.018c4.732-0.633,8.403-1.107,10.978-1.439
		c0.693,3.922,0.845,6.905,0.979,9.698c0.162,3.325,0.312,6.472,1.427,10.429c1.416,5.03,4.31,7.309,7.104,9.51
		c3.392,2.668,6.896,5.428,9.161,13.861C559.413,424.643,559.425,424.68,559.438,424.718z M451.684,308.618
		c3.271,4.459,3.844,9.209,3.495,13.062c0,0,0,0,0,0.001c-5.026-4.28-9.853-8.146-14.102-11.552
		c-1.557-1.246-3.043-2.438-4.443-3.572c-1.765-1.429-3.397-3.078-4.927-4.875c0-0.002,0.002-0.002,0.002-0.002
		C439.663,299.402,446.689,301.807,451.684,308.618z M458.962,320.434c0.316,1.906,0.618,3.701,0.947,5.354
		c0,0-0.001,0.002-0.001,0.005c-0.672-0.597-1.343-1.188-2.011-1.771c0.804-4.705,0.629-11.143-3.799-17.176
		c-5.974-8.146-14.795-10.892-24.396-7.689h-0.001c-1.327-1.795-2.533-3.707-3.667-5.653c15.209-1.062,24.688,1.928,28.178,8.903
		C456.825,307.62,457.961,314.427,458.962,320.434z M583.261,104.479c3.675-0.667,6.163-0.479,7.612,0.576
		c1.258,0.915,1.694,2.455,1.966,4.484c0.066,0.502,0.495,0.868,0.989,0.868c0.044,0,0.088-0.003,0.134-0.009
		c0.548-0.073,0.933-0.576,0.858-1.124c-0.293-2.197-0.831-4.426-2.771-5.837c-1.917-1.396-4.908-1.698-9.146-0.926
		c-0.544,0.099-0.903,0.619-0.809,1.162C582.196,104.217,582.717,104.575,583.261,104.479z M589.804,106.687
		c-2.542-2.158-6.341-2.561-11.287-1.2c-0.528,0.146-0.845,0.697-0.694,1.229c0.146,0.532,0.692,0.846,1.229,0.699
		c4.21-1.158,7.481-0.883,9.462,0.797c1.658,1.407,2.476,3.925,2.181,6.733c-0.062,0.549,0.34,1.041,0.891,1.099
		c0.034,0.003,0.069,0.005,0.104,0.005c0.507,0,0.938-0.382,0.991-0.896C593.045,111.636,591.998,108.549,589.804,106.687z
		 M584.125,120.814c-4.283,1.353-7.961-4.686-8.425-6.08c-0.646-1.93-3.04-1.631-4.968-1.389c-0.659,0.082-1.346,0.167-1.896,0.167
		c-0.554,0-1,0.447-1,1c0,0.552,0.446,1,1,1c0.676,0,1.421-0.094,2.144-0.184c0.809-0.101,2.694-0.337,2.819,0.037
		c0.612,1.839,4.224,7.65,9.053,7.649c0.604,0,1.229-0.092,1.871-0.294c0.526-0.167,0.818-0.729,0.651-1.256
		C585.214,120.94,584.65,120.648,584.125,120.814z M577.467,133.646c5.021,2.976,4.478,8.21,3.896,13.752
		c-0.178,1.668-0.354,3.394-0.354,5.003c0,0.552,0.446,1,1,1s1-0.448,1-1c0-1.506,0.167-3.104,0.345-4.796
		c0.594-5.649,1.263-12.051-4.861-15.682c-5.824-3.449-10.639-1.759-16.206,0.201c-1.829,0.645-3.724,1.31-5.781,1.841
		c-0.534,0.139-0.854,0.684-0.72,1.219c0.141,0.535,0.687,0.857,1.22,0.718c2.146-0.553,4.076-1.233,5.945-1.891
		C568.25,132.144,572.445,130.67,577.467,133.646z M612.538,174.749c-0.866-0.685-2.124-0.541-2.811,0.326
		c-0.688,0.866-0.539,2.124,0.322,2.811c2.438,1.928,3.202,4.146,2.058,5.938c-0.613,0.955-1.702,1.508-2.321,1.193
		c-0.093-0.047-0.188-0.087-0.285-0.119c-0.146-0.125-0.436-0.524-0.649-0.819c-1.062-1.468-2.846-3.925-7.485-4.986
		c-5.279-1.208-8.793,0.436-10.25,1.36l-10.308-0.754c-8.521-0.624-9.111-5.86-9.646-17.646l-0.052-1.146
		c-0.616-13.249-10.698-13.726-10.805-13.729c-0.021,0-0.044-0.002-0.062-0.002c-1.074,0-1.963,0.854-1.997,1.938
		c-0.035,1.104,0.83,2.028,1.935,2.062c0.269,0.009,6.487,0.319,6.938,9.917l0.054,1.141c0.5,11.023,0.933,20.544,13.354,21.453
		l11.02,0.806c0.535,0.039,1.067-0.14,1.473-0.499c0.024-0.021,2.562-2.123,7.466-1.004c3.181,0.726,4.224,2.166,5.145,3.435
		c0.617,0.854,1.312,1.813,2.521,2.233c0.653,0.303,1.354,0.448,2.062,0.448c1.975,0,4.008-1.135,5.283-3.123
		C617.223,183.258,617.503,178.682,612.538,174.749z"/>
	<path fill="#665749" d="M49.598,291.584c-7.612,5.808-12.797,6.978-21.328,8.363c-8.531,1.389-17.619,5.402-16.582,14.062
		c5.014-6.687,14.038-7.112,14.038-7.112s-0.771,2.301-6.363,5.271c3.274,0.674,16.073-8.038,16.073-8.038s0.457,1.602-2.46,3.104
		c7.45,0.925,12.751-8.553,21.268-10.746C56.218,292.213,49.598,291.584,49.598,291.584z"/>
	<path fill="#FFFFFF" d="M619.146,234.625c12.799,12.174,22.452,16.599,25.537,17.201c-0.61-0.604-1.619-1.469-2.669-2.361
		c-3.016-2.573-7.567-6.467-13.844-13.118c-10.425-11.058-16.838-33.178-20.282-45.062c-0.34-1.174-0.674-2.326-0.981-3.371
		c-0.519-0.447-0.927-0.979-1.294-1.488c-0.921-1.27-1.964-2.709-5.146-3.435c-3.362-0.768-5.612-0.019-6.703,0.533
		c0.534,1.354,1.205,3.262,2.063,5.709C600.115,201.419,608.088,224.105,619.146,234.625z"/>
	<path fill="#C9B797" d="M643.968,247.184c-2.967-2.533-7.448-6.358-13.605-12.896c-9.932-10.53-16.209-32.198-19.584-43.838
		c-0.143-0.479-0.271-0.925-0.396-1.355c-0.062,0.002-0.127,0.014-0.188,0.014c-0.705,0-1.402-0.146-2.062-0.448
		c-0.484-0.17-0.876-0.44-1.227-0.745c0.312,1.045,0.646,2.196,0.981,3.371c3.445,11.884,9.857,34.005,20.282,45.062
		c6.271,6.649,10.828,10.543,13.844,13.116c1.051,0.896,2.059,1.757,2.673,2.363c-3.089-0.604-12.742-5.026-25.541-17.203
		c-11.062-10.52-19.03-33.205-23.313-45.393c-0.858-2.447-1.529-4.354-2.063-5.709c-0.497,0.252-0.753,0.464-0.761,0.471
		c-0.404,0.358-0.938,0.538-1.474,0.499l-0.628-0.046c0.523,1.321,1.246,3.363,2.097,5.78c4.365,12.425,12.493,35.554,24.075,46.57
		c13.125,12.486,24.412,18.104,28.235,18.104l0,0c0.61,0,1.107-0.127,1.519-0.385c0.871-0.555,1.343-1.238,1.396-2.041
		C648.342,250.92,647.062,249.827,643.968,247.184z"/>
	<path id="Eye" fill="#231F20" d="M588.992,116.931c0,0-2.911,1.344-5.509,1.344c-2.601,0-7.658-6.718-7.658-6.718
		s5.062-2.809,7.658-2.688C589.28,109.138,588.992,116.931,588.992,116.931z"/>
	<path id="nails" fill="#E8E5E3" d="M199.267,425.235c0,1.174-0.259,2.282-0.712,3.291c-4.719,0.188-9.826,0.127-14.598-0.031
		c-0.445-0.996-0.698-2.1-0.698-3.26c0-4.421,3.583-8.006,8.004-8.006C195.684,417.231,199.267,420.815,199.267,425.235z
		 M209.771,415.63c-4.715,0-8.538,3.821-8.538,8.539c0,1.502,0.392,2.911,1.073,4.139c7.899-0.606,13.92-2.164,13.92-5.573
		c0-1.646-0.139-3.16-0.39-4.57C214.289,416.598,212.144,415.63,209.771,415.63z M550.393,426.647c0,1.665,0.53,3.202,1.429,4.469
		c6.377-1.812,10.477-4.153,9.519-7.028c-0.521-1.938-1.113-3.603-1.752-5.052c-0.469-0.088-0.948-0.139-1.438-0.139
		C553.862,418.897,550.393,422.368,550.393,426.647z M549.234,431.149c0-3.892-3.151-7.039-7.039-7.039
		c-3.891,0-7.038,3.147-7.038,7.039c0,1.075,0.251,2.1,0.687,3.014c4.738-0.608,9.366-1.396,13.357-2.358
		C549.222,431.587,549.234,431.37,549.234,431.149z M394.643,425.397c-4.004,0-7.25,3.243-7.25,7.25c0,0.28,0.021,0.562,0.057,0.838
		c5.175,0.082,10.233-0.062,14.436-0.58c0.003-0.086,0.015-0.17,0.015-0.258C401.893,428.643,398.646,425.397,394.643,425.397z
		 M403.893,429.147c0,1.2,0.319,2.329,0.872,3.312c4.576-0.875,7.567-2.378,7.567-4.791c-0.029-1.798-0.564-3.548-1.396-5.255
		c-0.098-0.004-0.19-0.016-0.293-0.016C406.914,422.397,403.893,425.419,403.893,429.147z M89.393,418.897
		c0,1.065,0.214,2.088,0.594,3.021c9.798-0.73,11.287-2.199,11.287-7.05c0-0.979-0.312-2.108-0.818-3.362
		c-0.943-0.392-1.978-0.604-3.062-0.604C92.974,410.897,89.393,414.479,89.393,418.897z M80.226,422.397
		c2.246-0.08,4.25-0.16,6.049-0.257c0.073-0.401,0.117-0.815,0.117-1.243c0-3.865-3.134-7-7-7s-7,3.135-7,7
		c0,0.411,0.043,0.815,0.112,1.213C74.972,422.384,77.55,422.493,80.226,422.397z"/>
	<path id="nailsBorder" fill="#928270" d="M192.245,430.143L192.245,430.143c-2.544,0-5.35-0.051-8.338-0.147
		c-0.573-0.021-1.086-0.362-1.32-0.887c-0.55-1.229-0.829-2.533-0.829-3.871c0-5.24,4.264-9.504,9.504-9.504
		s9.504,4.264,9.504,9.504c0,1.353-0.284,2.666-0.845,3.903c-0.233,0.521-0.739,0.859-1.308,0.886
		C196.662,430.102,194.518,430.143,192.245,430.143z M185.012,427.026c2.58,0.075,5.009,0.114,7.232,0.114h0.001
		c1.854,0,3.616-0.024,5.257-0.079c0.176-0.597,0.265-1.203,0.265-1.826c0-3.586-2.918-6.504-6.504-6.504s-6.504,2.918-6.504,6.504
		C184.758,425.844,184.843,426.446,185.012,427.026z M202.306,429.807c-0.542,0-1.045-0.293-1.311-0.771
		c-0.826-1.485-1.263-3.17-1.263-4.868c0-5.535,4.503-10.037,10.038-10.037c2.698,0,5.23,1.059,7.13,2.978
		c0.215,0.217,0.358,0.489,0.411,0.793c0.274,1.536,0.414,3.163,0.414,4.832c0,5.276-8.733,6.563-15.304,7.069
		C202.383,429.807,202.344,429.807,202.306,429.807z M209.771,417.13c-3.881,0-7.038,3.157-7.038,7.039
		c0,0.875,0.166,1.745,0.483,2.559c10.66-0.961,11.51-3.289,11.51-3.993c0-1.32-0.096-2.604-0.287-3.828
		C213.15,417.757,211.51,417.13,209.771,417.13z M551.817,432.616c-0.479,0-0.938-0.229-1.229-0.633
		c-1.108-1.572-1.7-3.416-1.7-5.336c0-5.658,5.078-10.188,10.972-9.089c0.482,0.095,0.896,0.416,1.096,0.869
		c0.711,1.615,1.31,3.338,1.827,5.271c0.335,0.996,0.24,2.104-0.3,3.131c-1.182,2.229-4.533,4.104-10.259,5.729
		C552.092,432.596,551.953,432.616,551.817,432.616z M558.143,420.397c-3.442,0-6.25,2.805-6.25,6.25
		c0,0.94,0.211,1.856,0.616,2.696c5.636-1.733,6.996-3.304,7.321-3.92c0.158-0.302,0.184-0.562,0.081-0.865
		c-0.418-1.545-0.864-2.896-1.376-4.147C558.403,420.403,558.271,420.397,558.143,420.397z M535.842,435.526
		c-0.521,0-1.002-0.304-1.229-0.779c-0.542-1.141-0.816-2.354-0.816-3.598c0-4.638,3.771-8.402,8.399-8.402
		c4.633,0,8.397,3.771,8.397,8.402c0,0.266-0.016,0.522-0.039,0.78c-0.057,0.578-0.473,1.062-1.033,1.195
		c-3.817,0.92-8.361,1.723-13.508,2.387C535.957,435.522,535.9,435.526,535.842,435.526z M542.195,425.471
		c-3.13,0-5.68,2.547-5.68,5.681c0,0.519,0.071,1.022,0.215,1.521c4.157-0.562,7.896-1.215,11.125-1.951
		C547.636,427.79,545.182,425.471,542.195,425.471z M390.129,434.87C390.128,434.87,390.129,434.87,390.129,434.87
		c-0.896,0-1.8-0.008-2.706-0.022c-0.686-0.01-1.255-0.524-1.332-1.209c-0.036-0.321-0.062-0.651-0.062-0.985
		c0-4.75,3.862-8.613,8.61-8.613c4.747,0,8.609,3.863,8.609,8.613c0,0.082-0.005,0.16-0.01,0.239
		c-0.021,0.671-0.533,1.283-1.196,1.365C398.771,434.663,394.76,434.87,390.129,434.87z M388.775,432.137
		c0.451,0.004,0.9,0.006,1.354,0.006c3.935,0,7.396-0.147,10.314-0.444c-0.476-2.817-2.896-4.938-5.803-4.938
		C391.566,426.759,389.035,429.128,388.775,432.137z M404.765,433.821c-0.48,0-0.938-0.263-1.188-0.692
		c-0.688-1.214-1.048-2.591-1.048-3.979c0-4.478,3.641-8.113,8.108-8.113c0.095,0,0.186,0.007,0.271,0.013
		c0.501,0.021,1.023,0.317,1.246,0.771c1.001,2.055,1.504,3.961,1.535,5.823c0,4.496-6.529,5.744-8.679,6.154
		C404.935,433.812,404.85,433.821,404.765,433.821z M410.072,423.802c-2.74,0.312-4.816,2.592-4.816,5.349
		c0,0.598,0.104,1.188,0.296,1.756c3.461-0.791,5.42-1.951,5.42-3.235C410.949,426.459,410.655,425.18,410.072,423.802z
		 M89.986,423.28c-0.55,0-1.051-0.332-1.261-0.851c-0.461-1.131-0.695-2.317-0.695-3.532c0-5.162,4.2-9.361,9.362-9.361
		c1.235,0,2.44,0.24,3.583,0.713c0.338,0.14,0.605,0.408,0.742,0.748c0.626,1.552,0.918,2.781,0.918,3.873
		c0,6.343-3.288,7.716-12.547,8.406C90.054,423.28,90.02,423.28,89.986,423.28z M97.393,412.259c-3.66,0-6.638,2.979-6.638,6.642
		c0,0.53,0.063,1.062,0.19,1.573c8.967-0.771,8.966-2.233,8.966-5.604c0-0.604-0.166-1.36-0.508-2.297
		C98.754,412.364,98.08,412.259,97.393,412.259z M78.318,423.794c-1.99,0-3.997-0.111-5.964-0.33
		c-0.602-0.063-1.087-0.521-1.19-1.119c-0.089-0.51-0.133-0.979-0.133-1.444c0-4.611,3.752-8.361,8.362-8.361
		c4.611,0,8.362,3.75,8.362,8.361c0,0.479-0.045,0.969-0.139,1.485c-0.112,0.623-0.64,1.086-1.271,1.119
		c-1.805,0.092-3.816,0.174-6.07,0.254C79.616,423.782,78.964,423.794,78.318,423.794z M73.755,420.866
		c2.123,0.188,4.25,0.248,6.422,0.17c1.761-0.062,3.373-0.125,4.853-0.194c-0.029-3.082-2.547-5.58-5.637-5.58
		C76.294,415.259,73.771,417.772,73.755,420.866z"/>
</g>
</svg>
