<?xml version="1.0" encoding="utf-8"?>
<!-- Generator: Adobe Illustrator 15.0.0, SVG Export Plug-In . SVG Version: 6.00 Build 0)  -->
<!DOCTYPE svg PUBLIC "-//W3C//DTD SVG 1.1//EN" "http://www.w3.org/Graphics/SVG/1.1/DTD/svg11.dtd">
<svg version="1.1" id="Layer_1" xmlns="http://www.w3.org/2000/svg" xmlns:xlink="http://www.w3.org/1999/xlink" x="0px" y="0px"
	 width="235px" height="320px" viewBox="0 0 235 320" enable-background="new 0 0 235 320" xml:space="preserve">
<g id="Fairy.svg">
	<path fill="#F47A7A" d="M192.677,104.52l-8.946,64.757l2.477,0.344l8.921-65.006l-0.761-0.095H192.677z"/>
	<path id="Wand" fill="#FFF8C5" d="M202.891,107.495l-8.262-5.503l-9.215,3.687l2.678-9.559l-6.353-7.625l9.917-0.406l5.289-8.399
		l3.451,9.308l9.623,2.435l-7.787,6.157L202.891,107.495z"/>
	<path id="WandBorder" fill="#FCB76B" d="M223.197,120.666c-0.824,0-1.494,0.668-1.494,1.495c0,0.825,0.67,1.493,1.494,1.493
		s1.494-0.668,1.494-1.493C224.691,121.333,224.021,120.666,223.197,120.666z M213.143,109.837c0,0.825-0.67,1.495-1.494,1.495
		s-1.494-0.67-1.494-1.495c0-0.825,0.67-1.495,1.494-1.495S213.143,109.012,213.143,109.837z M208.812,122.83
		c0,0.826-0.672,1.495-1.496,1.495s-1.492-0.669-1.492-1.495c0-0.824,0.668-1.493,1.492-1.493
		C208.141,121.336,208.812,122.005,208.812,122.83z M219.639,135.823c0,0.826-0.668,1.495-1.494,1.495
		c-0.824,0-1.496-0.669-1.496-1.495c0-0.825,0.672-1.494,1.496-1.494C218.971,134.329,219.639,134.998,219.639,135.823z
		 M220.361,145.208c0,0.825-0.67,1.494-1.494,1.494c-0.826,0-1.494-0.669-1.494-1.494s0.668-1.495,1.494-1.495
		C219.691,143.713,220.361,144.382,220.361,145.208z M224.691,160.367c0,0.824-0.67,1.494-1.494,1.494s-1.494-0.67-1.494-1.494
		c0-0.826,0.67-1.496,1.494-1.496S224.691,159.541,224.691,160.367z M221.082,188.518c0,0.823-0.668,1.493-1.494,1.493
		c-0.824,0-1.494-0.67-1.494-1.493c0-0.824,0.67-1.496,1.494-1.496C220.414,187.021,221.082,187.693,221.082,188.518z
		 M214.992,90.37l-12.898-3.263l-4.623-12.474l-7.088,11.256l-13.291,0.543l8.518,10.22l-3.594,12.809l12.354-4.94l11.069,7.374
		l-0.881-13.273L214.992,90.37z M194.746,100.868l-7.822,3.13l2.273-8.113l-5.395-6.474l8.418-0.344l4.489-7.13l2.931,7.901
		l8.168,2.067l-6.607,5.227l0.559,8.407L194.746,100.868z"/>
	<path id="Wings" fill="#75CCEA" d="M100.743,207.734c1.411-0.937,2.791-2.133,4.118-3.635c14.161-16.021,8.943-14.904,8.943-14.904
		l-4.844-79.733c0,0-3.354-7.452-16.767-13.413C78.78,90.086,67.731,57.342,53.2,47.655c-14.531-9.688-27.571-30.552-34.65-30.181
		c-7.079,0.373-3.354,20.866,0,31.671c3.353,10.806,8.942,24.591,18.257,34.278s6.646,25.401,5.529,33.971
		c-3.363,12.818,18.117,25.735,15.207,46.838c-0.373,4.473-1.863,12.297,4.098,23.102c2.418,4.382,4.345,7.538,5.782,9.742h0.001
		c-0.45,0.688-0.898,1.379-1.34,2.074c-12.501,19.703-20.841,39.586-21.501,42.492c-0.661,2.905-8.471,22.147,9.529,10.188
		c18-11.957,33.112-28.011,36.728-32.156c1.995-2.284,6.103-7.227,9.947-11.973L100.743,207.734z"/>
	<path id="Wings1" fill="#00A1E8" d="M136.509,105.651c0.818-8.169-0.545-57.884-0.545-70.989s-5.461-24.573-8.737-15.836
		c-3.275,8.737-24.573,75.357-19.111,97.2C113.576,137.869,135.964,111.111,136.509,105.651z"/>
	<path id="Spots" fill="#FFFFFF" d="M42.37,43.836c1.64,2.831,1.027,6.251-1.367,7.638c-2.396,1.388-5.667,0.219-7.308-2.613
		c-1.64-2.83-1.027-6.25,1.368-7.638C37.458,39.835,40.73,41.005,42.37,43.836z M58.877,60.533
		c-4.063-4.779-10.412-6.055-14.181-2.852c-3.77,3.204-3.531,9.676,0.531,14.454c4.063,4.779,10.411,6.055,14.18,2.852
		C63.177,71.783,62.939,65.311,58.877,60.533z M54.497,236.85c-2.107-0.48-4.205,0.84-4.685,2.946
		c-0.479,2.106,0.842,4.207,2.949,4.687c2.109,0.479,4.206-0.844,4.685-2.949C57.926,239.423,56.605,237.328,54.497,236.85z
		 M69.934,222.205c-2.978-0.676-5.94,1.188-6.616,4.166c-0.677,2.979,1.188,5.939,4.166,6.615c2.978,0.68,5.939-1.188,6.617-4.166
		C74.776,225.843,72.91,222.88,69.934,222.205z"/>
	<path id="WingsBorder" fill="#006F9B" d="M105.602,107.429c-2.138-2.55-6.376-6.478-14.068-9.896
		c-7.382-3.282-13.708-13.546-20.405-24.414C65.184,63.472,59.036,53.497,52.3,49.006c-6.123-4.082-11.917-10.03-17.142-15.607
		l0.017-0.016c-4.818-2.44-10.793-3.014-5.98,13.318c7.44,25.242,28.179,47.803,28.976,59.76
		c0.798,11.957-2.239,22.723,3.075,34.149c5.313,11.426,2.143,29.438,6.661,39.003c1.703,3.604,3.027,6.266,4.018,8.184
		l-0.002-0.002c10.751-14.551,21.597-25.189,21.729-25.318c0.642-0.627,1.671-0.613,2.298,0.027
		c0.626,0.645,0.614,1.672-0.028,2.299c-0.161,0.156-16.215,15.91-28.464,35.217c-12.419,19.569-20.699,39.383-21.29,41.98
		c-0.089,0.395-0.258,0.938-0.491,1.689c-2.299,7.422-1.895,9.645-1.15,10.201c0.171,0.127,1.865,1.116,8.687-3.416
		c20.229-13.438,36.243-31.688,36.402-31.871c3.767-4.314,14.195-17.049,17.432-21.504c0.461-0.635,1.297-0.838,1.986-0.524
		l0.007,0.009c3.91-5.023,4.076-6.416,4.078-6.598c-0.002,0.104,0.081,0.391,0.346,0.606c0.149,0.123,0.389,0.253,0.68,0.191
		l-0.681-3.179c0.857-0.186,1.988,0.076,2.57,1.07c0.891,1.525,0.93,4.184-9.953,16.5c-1.292,1.463-2.679,2.678-4.14,3.688
		l-0.001-0.001c-3.786,4.671-7.817,9.522-9.875,11.88c-0.162,0.187-16.464,18.764-37.052,32.44c-4.19,2.783-7.368,4.148-9.721,4.148
		c-1.068,0-1.966-0.281-2.712-0.84c-3.199-2.395-1.681-8.359-0.007-13.766c0.197-0.638,0.357-1.142,0.427-1.449
		c0.798-3.514,9.504-23.76,21.713-43.002c0.256-0.404,0.514-0.808,0.773-1.207l0.004,0.002c-1.387-2.176-3.139-5.09-5.272-8.953
		c-5.658-10.254-4.88-18.066-4.416-22.731c0.045-0.456,0.088-0.888,0.122-1.29c1.51-10.97-3.925-19.724-8.719-27.448
		c-4.172-6.72-8.113-13.07-6.467-19.566l0.167-1.256c1.133-8.469,3.031-22.644-5.27-31.277c-7.643-7.95-13.914-19.7-18.637-34.923
		c-2.594-8.357-6.413-25.719-2.303-31.617c0.928-1.331,2.231-2.077,3.77-2.158c4.568-0.238,10.118,5.726,17.153,13.279
		c5.587,5.997,11.918,12.795,18.484,17.172c7.327,4.885,13.665,15.168,19.793,25.112c6.143,9.968,12.495,20.275,18.959,23.148
		c6.046,2.688,10.141,5.685,12.845,8.233l0.017,0.016c1.514-28.656,17.237-77.216,19.991-84.557
		c1.021-2.728,2.434-4.111,4.191-4.111c5.02,0,7.69,11.916,7.69,20.518c0,4.312,0.147,12.559,0.318,22.109
		c0.346,19.369,0.776,43.475,0.219,49.039c-0.494,4.94-12.763,20.29-22.229,20.29h-0.001c-3.166-0.001-7.36-1.681-9.36-9.683
		c-0.625-2.501-0.917-5.544-0.938-8.987H105.602z M134.341,34.661c0-9.934-3.131-16.948-4.461-17.268
		c0.013,0.023-0.504,0.33-1.131,2.003c-2.709,7.222-19.622,59.78-19.914,86.86l0.051,3.242c0.106,2.306,0.364,4.373,0.804,6.132
		c1.805,7.221,5.118,7.221,6.207,7.221c7.775,0.002,18.689-14.301,18.996-17.363c0.537-5.377,0.109-29.376-0.233-48.66
		C134.488,47.263,134.341,39.002,134.341,34.661z"/>
	<path id="Shoes" fill="#2ADDD8" d="M135.078,284.035c0.336,1.867,0.521,3.891,0.521,6.006c0,9.352-3.586,16.93-8.011,16.93
		c-4.422,0-8.008-7.578-8.008-16.93c0-2.115,0.185-4.139,0.521-6.006c1.146,6.383,4.065,10.92,7.487,10.92
		C131.014,294.955,133.932,290.417,135.078,284.035z M114.668,255.546c0-4.549,2.103-10.752,5.714-17.014
		c-0.569-0.236-1.163-0.492-1.799-0.765c-4.18-1.776-5.62,3.027-6.981,6.746c-2.133,8.654-14.304,10.049-12.629,14.242
		c1.676,4.195,4.61,2.475,14.551,0.312c0.495-0.12,0.983-0.262,1.466-0.411C114.785,257.639,114.668,256.602,114.668,255.546z"/>
	<path id="ShoesBorder" fill="#2BA088" d="M136.678,283.748c-0.14-0.773-0.812-1.338-1.601-1.338s-1.459,0.562-1.601,1.338
		c-0.996,5.553-3.475,9.582-5.889,9.582s-4.893-4.029-5.889-9.582c-0.141-0.773-0.813-1.338-1.6-1.338
		c-0.787,0-1.461,0.562-1.601,1.338c-0.36,2.01-0.545,4.129-0.545,6.293c0,10.578,4.142,18.555,9.634,18.555
		s9.635-7.977,9.635-18.555C137.227,287.886,137.041,285.768,136.678,283.748z M127.591,305.343c-2.772,0-5.838-5.303-6.319-13.155
		c1.694,2.789,3.903,4.393,6.319,4.393s4.625-1.604,6.32-4.396C133.432,300.041,130.365,305.343,127.591,305.343z M115.046,249.537
		c0.146,2.77,0.826,6.428,1.684,10.281l-1.258,0.395c-0.514,0.16-1.035,0.311-1.563,0.438c-1.828,0.398-3.387,0.771-4.752,1.103
		c-2.907,0.697-5.007,1.201-6.668,1.201c0,0,0,0-0.001,0c-2.45,0-4.046-1.142-5.025-3.593c-1.271-3.186,1.8-5.098,4.771-6.95
		c3.184-1.984,6.792-4.234,7.79-8.281l0.052-0.17l0.234-0.646c0.952-2.638,2.092-5.771,4.4-7.004
		c0.014,1.412,0.036,3.02,0.066,4.676c-0.538,1.022-0.998,2.293-1.41,3.434l-0.209,0.576c-1.342,5.273-5.883,8.104-9.205,10.176
		c-1.75,1.092-3.735,2.328-3.471,2.988c0.559,1.398,1.041,1.545,2.007,1.545l0,0c1.276,0,3.22-0.466,5.91-1.111
		c1.379-0.332,2.955-0.709,4.76-1.102c-0.077-0.658-0.116-1.309-0.116-1.941c0-2.627,0.663-5.773,1.871-9.15
		C114.952,247.5,114.995,248.562,115.046,249.537z"/>
	<path id="Body" fill="#FFF3F3" d="M137.136,237.471c-0.002,0-0.002,0-0.004,0c5.986-0.707,11.486-4.712,14.857-10.89
		c2.454,1.194,5.034,1.979,7.622,2.334c0.017,0.076,0.035,0.158,0.043,0.229c0.009,0.072,0.021,0.146,0.039,0.217
		c0.632,2.474,0.543,6.562-10.735,9.658c-0.08,0.021-0.176,0.529-0.25,0.563c-4.681,2.099-8.582,3.356-11.381,4.813l-3.013,0.211
		c0.068,1.686,0.095,3.455,0.019,5.224c-0.369,8.437-1.506,19.215-3.125,26.125c-0.104,0.442-0.004,0.752,0.25,1.127
		c1.172,1.737,1.435,4.176,1.961,6.955c-1.028,5.397-3.457,9.291-5.828,9.291c-2.37,0-4.799-3.892-5.83-9.287
		c0.457-2.412,0.419-4.399,1.386-6.084c0.237-0.418,0.354-1.112,0.188-1.563c-0.131-0.357-0.623-0.654-0.688-1
		c-0.377-2.006-0.828-4.519-1.625-7.75c-1.488-6.027-3.143-13.752-3.375-18.188c-0.285-5.438,0.301-13.789,0.287-16.934
		c1.231-0.4,2.441-0.904,3.612-1.531c3.404,3.887,7.716,6.148,12.335,6.523L137.136,237.471z M193.842,133.143l1.938,1.474
		l-0.519,1.61l0.491,0.136l1.338,1.228l-1.665,1.255l-0.297,2.319l0.242,0.737l-1.474,4.339l-2.511,0.818
		c-3.213,3.311-10.181,0.935-13.386,0.523c-2.666-0.584-12.229,0.833-17.75,0.833c-2.686,0-4.998,0.119-6.979,0.219
		c0.582-4.296,1.055-8.397,1.28-11.703c1.982,0.036,4.224,0.103,6.761,0.103c4.713,0,16.588,1.087,16.588,1.087
		s0.402-0.136,1.027-0.331h-0.001c0.788-0.86,2.654-2.901,3.462-3.813c1.034-1.173,6.663-3.033,7.768-1.516
		C191.193,133.887,193.842,133.143,193.842,133.143z M101.566,84.009c3.855,6.735,9.623,11.978,16.317,14.003l0.003,0.283
		c0.066,1.396-1.111,4.059-1.966,5.603c-1.143,2.063-3.193,3.422-6.09,4.046l-1.122-0.486c-5.723,1.565-15.09,6.463-19.19,16.153
		c-1.228,2.902-2.483,6.328-3.697,9.641c-2.898,7.91-5.635,15.38-8.627,18.1c-2.457,2.233-6.194,11.021-8.427,16.271
		c-1.817,4.273-2.331,5.412-2.817,5.896c-0.28,0.278-1.805,0.692-2.872,1.526c-2.934,2.295-8.038,7.065-9.618,10.488
		c-2.017,4.368-1.943,7.743-1.712,9.901c0.011,0.086,1.034,0.275,1.746,0.275l0,0c0.016,0,1.035-0.004,1.051-0.006
		c-0.396-1.816,0.137-5.092,0.164-5.254c0.394-2.355,0.102-3.537,0.923-4.357c0.352-0.352,0.391-0.424,0.743-0.07
		c0.351,0.351,0.529,0.674,0.177,1.025c-0.363,0.363-0.84,1.293-1.238,3.678c-0.293,1.762-0.199,4.957-0.012,5.644
		c0.322-0.103,0.644-0.222,0.962-0.356c-0.216-0.593,0.102-2.291,0.358-3.41c0.128-0.56,0.493-1.281,0.601-1.771
		c0.448-2.028,0.266-2.574,0.601-3.11c0.374-0.601,2.121-2.603,2.491-2.996c0.341-0.361,0.472-0.172,0.833,0.168
		c0.362,0.34,0.304,0.346-0.036,0.707c-1.029,1.094-2.076,2.457-2.263,2.758c-0.187,0.299-0.534,1.668-0.813,2.936
		c-0.109,0.494-0.19,1.1-0.318,1.662c-0.129,0.562-0.018,1.15,0.035,1.449c0.437-0.283,1.123-0.545,1.344-0.813
		c0.711-0.858,2.341-4.211,3.395-6.364c1.928-3.937,1.801-3.783,2.723-3.783c0.195,0,0.392-0.053,0.566,0.035
		c0.808,0.401,0.422,0.649,0.53,3.254c0.048,1.182,0.08,2.592,0.212,3.678c0.01,0.084,0.411,0.307,0.424,0.354
		c0.354-0.123,1.304-0.734,1.626-1.558c0.193-0.492,0.44-1.047,0.672-1.59c0.697-1.627,1.521-3.562,1.521-4.812
		c0-3.711,0.667-5.959,1.662-7.285c0.214-0.287,0.815-1.131,1.839-2.369c4.138-4.997,14.974-18.489,17.895-24.332
		c3.641-7.281,7.843-13.269,7.887-13.332c0.265-0.376,0.601-0.408,1.061-0.354c0.367,0.044,0.738-0.259,0.939,0.041
		c0.485-2.423,1.443-4.67,2.914-6.708c1.751-2.427,4.181-4.521,7.25-6.288l1.984-1.056c4.17-2.034,9.346-3.547,15.506-4.52
		c3.648-0.576,6.98-0.868,9.906-0.868c0.543,0,1.057,0.015,1.561,0.034c-0.059-0.002-0.109-0.006-0.17-0.008l2.277,0.148
		c-0.002,0-0.006,0-0.008,0c3.758,0.37,6.25,1.297,7.903,2.311c-0.024-0.261,0.3-0.537,0.275-0.825
		c-0.81-9.664-3.685-13.332-5.74-13.626c-1.44-0.206-3.328-0.291-4.875-0.313c-0.123-0.002-0.377,1.501-0.5,1.5l-0.937-0.217
		c-3.008-0.181-6.094-0.811-6.377-3.665c-0.094-0.932-0.608-2.829-0.61-3.62l0.039-0.332c5.653-2.444,10.503-7.196,13.885-13.097
		l0,0c0.293,0.184,1.008,0.188,2.75-0.637c3.28-1.555,9.494-14.169,8.537-14.952c-0.957-0.782-6.949,4.178-6.949,4.178l-0.071,0.172
		c0.528-2.507,0.825-5.075,0.825-7.651c0-17.034-12.297-30.843-27.469-30.843S96.484,48.102,96.484,65.136
		c0,3.475,0.512,6.938,1.456,10.25l0.009-0.001c-2.605-2.115-7.867-6.285-8.844-6.253c-1.738,0.059,3.811,13.739,6.92,14.947
		c2.009,0.782,4.228,0.339,5.55-0.072L101.566,84.009z"/>
	<path id="Mouth" fill="#FFFFFF" stroke="#F47A7A" stroke-width="1.6" stroke-linejoin="round" stroke-miterlimit="10" d="
		M118.624,87.424c5.681,0.225,8.034,0.374,13.894-0.093c0,0-1.5,3.344-7.019,3.344S118.624,87.424,118.624,87.424z"/>
	<path id="Eyes" fill="#006F9B" d="M115.195,67.062c1.638,0,2.966,1.328,2.966,2.966c0,1.638-1.328,2.965-2.966,2.965
		c-1.637,0-2.965-1.327-2.965-2.965C112.23,68.39,113.559,67.062,115.195,67.062z M135.113,67.062c-1.639,0-2.967,1.328-2.967,2.966
		c0,1.638,1.328,2.965,2.967,2.965c1.637,0,2.965-1.327,2.965-2.965C138.078,68.39,136.75,67.062,135.113,67.062z"/>
	<path id="EyeBrow" fill="#005068" d="M119.764,71.58c-0.326,0-0.591-0.264-0.591-0.59c0-1.929-2.107-3.498-4.697-3.498
		c-2.264,0-4.701,0.942-4.701,3.012c0,0.326-0.264,0.59-0.59,0.59c-0.326,0-0.59-0.264-0.59-0.59c0-2.468,2.418-4.191,5.881-4.191
		c3.24,0,5.877,2.099,5.877,4.678C120.354,71.315,120.088,71.58,119.764,71.58z M131.134,70.99c0-1.929,2.107-3.498,4.701-3.498
		c2.263,0,4.697,0.942,4.697,3.012c0,0.326,0.264,0.59,0.59,0.59c0.323,0,0.59-0.264,0.59-0.59c0-2.468-2.418-4.191-5.877-4.191
		c-3.242,0-5.881,2.099-5.881,4.678c0,0.326,0.265,0.59,0.59,0.59S131.134,71.315,131.134,70.99z"/>
	<path id="BodyBorder" fill="#E5C1C1" d="M123.908,277.785c-0.967,1.684-1.689,3.844-2.146,6.258
		c-0.02-0.102-0.041-0.195-0.06-0.297c-0.14-0.773-0.813-1.338-1.601-1.338c-0.759,0-1.401,0.531-1.572,1.264
		c0.471-2.574,1.213-4.93,2.207-6.855c-0.082-0.287-0.149-0.571-0.203-0.854c-0.358-1.916-1.037-4.666-1.823-7.851
		c-1.6-6.483-3.413-13.832-3.663-18.575c-0.267-5.099-0.339-12.611-0.359-16.214c1.092-0.178,2.177-0.448,3.246-0.797
		c0.013,3.144,0.074,11.402,0.359,16.841c0.232,4.436,2.085,11.938,3.573,17.969c0.797,3.229,1.485,6.021,1.862,8.026
		c0.062,0.345,0.162,0.699,0.293,1.058C124.188,276.869,124.145,277.371,123.908,277.785z M137.294,247.625
		c2.916-1.574,6.791-3.484,12.265-5.939c3.901-1.074,15.004-4.221,13.403-12.557c-0.082,0-0.157,0.01-0.239,0.01l0,0
		c-1.033,0-2.072-0.08-3.111-0.223c0.016,0.076,0.035,0.156,0.043,0.229c0.01,0.072,0.021,0.146,0.039,0.217
		c0.631,2.476,0.162,6.123-11.117,9.222c-0.08,0.022-0.158,0.051-0.234,0.084c-4.678,2.099-8.221,3.812-11.021,5.269h0.004
		c-0.018-2.455-0.1-4.685-0.189-6.463c-0.629,0.073-1.262,0.123-1.898,0.123c-0.457,0-0.905-0.041-1.356-0.076
		c0.162,3.086,0.3,7.614,0.099,12.227c-0.369,8.436-1.756,19.152-3.375,26.062c-0.104,0.441-0.021,0.904,0.233,1.279
		c1.174,1.738,2.058,4.174,2.584,6.953c0.021-0.1,0.041-0.191,0.06-0.291c0.141-0.775,0.812-1.338,1.6-1.338
		c0.771,0,1.428,0.545,1.586,1.295c-0.545-3.029-1.473-5.729-2.744-7.828c1.594-7.09,2.939-17.645,3.303-25.992
		c0.033-0.76,0.059-1.516,0.074-2.261L137.294,247.625z M56.267,195.016c-0.318,0.135-0.64,0.254-0.962,0.356l-0.011-0.001
		c-0.18-0.711-0.098-2.876,0.191-4.62c0.399-2.383,0.915-3.315,1.278-3.678c0.351-0.353,0.351-0.921,0-1.273
		c-0.352-0.352-0.921-0.354-1.273,0c-0.821,0.82-1.387,2.3-1.781,4.656c-0.027,0.161-0.562,3.433-0.169,5.252h0.008
		c-0.016,0-0.035,0.004-0.051,0.004l0,0c-0.712,0-0.735-0.188-0.746-0.274c-0.231-2.158-0.305-5.532,1.712-9.9
		c1.58-3.423,7.684-8.195,10.618-10.488c1.067-0.834,1.592-1.248,1.872-1.527c0.486-0.485,1-1.623,2.817-5.896
		c2.233-5.25,5.97-14.039,8.427-16.271c2.992-2.72,5.729-10.19,8.627-18.1c1.214-3.313,2.469-6.739,3.697-9.641
		c4.1-9.69,12.467-13.588,18.19-15.153l2.118-0.515c2.897-0.624,4.947-1.984,6.09-4.045c0.855-1.544,1.032-3.207,0.966-4.603
		l-0.002,0.012c1.971,0.563,4.004,0.863,6.073,0.863c2.881,0,5.731-0.593,8.457-1.705l-0.004-0.01
		c0.002,0.791,0.032,1.654,0.127,2.586c0.282,2.854,2.854,3.518,5.86,3.698l2.263,0.074c0.123,0.001,0.245,0.003,0.368,0.005
		c1.548,0.021,3.146,0.043,4.589,0.249c2.055,0.294,4.676,2.673,5.485,12.336c0.023,0.288,0.066,0.747,0.09,1.008
		c1.55,0.948,2.371,2.146,2.781,2.859c-0.041-0.457-0.113-1.262-0.158-1.709c-0.071-0.714-0.146-1.46-0.223-2.365
		c-0.283-3.383-1.146-13.677-7.623-14.604c-1.6-0.229-3.281-0.252-4.906-0.274c-0.35-0.005-0.674-0.012-0.998-0.019l-2.225-0.114
		c-1.689-0.159-2.73-0.517-2.816-1.393c-0.135-1.339-0.138-2.549-0.092-3.529l0.002,0.005c4.694-2.544,8.894-6.656,12.058-11.913
		l-0.002,0.014c0.827-0.061,1.758-0.438,2.629-0.85c3.514-1.665,8.998-12.694,9.325-15.379c0.093-0.744-0.088-1.306-0.532-1.671
		c-0.526-0.431-1.451-1.18-6.03,2.208l0.016-0.008c0.184-1.514,0.278-3.029,0.278-4.533c0-17.696-12.883-32.093-28.719-32.093
		c-15.838,0-28.723,14.397-28.723,32.093c0,2.37,0.219,4.703,0.628,6.971v-0.002c-5.472-4.264-6.435-4.229-6.799-4.222
		c-0.584,0.021-1.327,0.403-1.499,1.417c-0.484,2.842,4.601,14.62,8.008,15.945c0.967,0.376,1.963,0.514,2.905,0.514l2.435-0.285
		c3.598,5.921,8.645,10.543,14.374,12.922l0.001-0.006c0.188,1.169,0.244,2.865-0.561,4.308c-0.788,1.414-2.302,2.363-4.5,2.821
		c-0.005,0.001-0.009,0.002-0.014,0.003l-2.12,0.51c-9.371,2.525-16.384,8.357-19.874,16.604c-1.251,2.958-2.518,6.414-3.742,9.755
		c-2.667,7.277-5.424,14.803-7.961,17.11c-2.862,2.602-6.436,11.006-9.045,17.145c-0.944,2.22-2.014,4.734-2.284,5.104
		c-0.186,0.188-0.895,0.74-1.645,1.326c-3.325,2.602-9.515,7.439-11.347,11.411c-2.54,5.5-2.08,9.802-1.927,11.229
		c0.188,1.563,1.396,2.494,3.229,2.494l0,0c2.376,0,5.948-1.604,7.349-3.303c0.792-0.959,1.981-3.306,3.451-6.302
		c0.04,0.691,0.092,1.384,0.169,2.017c0.218,1.783,1.376,2.42,2.388,2.42c1.489,0,3.133-1.332,3.825-3.101
		c0.184-0.469,0.399-0.971,0.621-1.487c0.792-1.849,1.688-3.94,1.688-5.705c0-2.979,0.374-5.256,1-6.092
		c0.178-0.238,0.887-1.095,1.783-2.177c4.581-5.532,15.309-18.492,18.357-24.589c2.353-4.705,5.039-8.986,6.599-11.361l1.211,3.115
		c-0.232-2.142-0.08-4.31,0.305-6.232c-0.203-0.299-0.711-0.747-1.077-0.791c-0.46-0.054-0.905,0.145-1.17,0.521
		c-0.044,0.063-4.464,6.351-8.105,13.631c-2.921,5.842-13.91,19.117-18.047,24.115c-1.024,1.236-1.643,1.984-1.857,2.271
		c-0.995,1.325-1.5,3.881-1.5,7.592c0,1.25-0.79,3.095-1.486,4.722c-0.232,0.543-0.457,1.067-0.65,1.561
		c-0.322,0.822-1.014,1.361-1.368,1.484c-0.013-0.049-0.026-0.111-0.036-0.195c-0.132-1.088-0.188-2.426-0.237-3.605
		c-0.108-2.604-0.133-3.221-0.941-3.623c-0.174-0.088-0.374-0.135-0.568-0.135c-0.922,0-0.998,0.154-2.925,4.092
		c-1.054,2.152-2.646,5.408-3.357,6.268c-0.221,0.269-0.581,0.56-1.018,0.843h-0.008c-0.051-0.299-0.045-0.715,0.083-1.272
		c0.128-0.563,0.246-1.097,0.355-1.589c0.28-1.268,0.596-2.702,0.783-3c0.187-0.301,1.364-1.612,2.393-2.709
		c0.34-0.36,0.322-0.93-0.04-1.271c-0.361-0.34-0.931-0.322-1.272,0.039c-0.37,0.395-2.234,2.389-2.608,2.988
		c-0.335,0.536-0.565,1.534-1.013,3.563c-0.108,0.487-0.224,1.017-0.352,1.573c-0.256,1.119-0.175,1.938,0.04,2.531L56.267,195.016z
		 M103.508,84.568c0.464-0.349,0.634-0.985,0.376-1.53c-0.294-0.624-1.039-0.89-1.663-0.598c-0.032,0.015-3.189,1.469-5.744,0.477
		c-1.843-0.717-5.355-8.433-6.249-11.832c1.923,1.274,5.419,3.995,8.384,6.465c0.532,0.442,1.32,0.37,1.761-0.161
		c0.442-0.53,0.37-1.318-0.16-1.76c-0.409-0.34-0.802-0.666-1.181-0.978l0.001,0.005c-0.838-3.052-1.3-6.256-1.3-9.518
		c0-16.318,11.764-29.593,26.223-29.593c14.457,0,26.219,13.276,26.219,29.593c0,2.868-0.36,5.779-1.071,8.654
		c-0.166,0.67,0.242,1.348,0.912,1.514c0.672,0.163,1.349-0.243,1.514-0.913c0.088-0.347,0.15-0.696,0.229-1.044l0.018-0.019
		c1.449-1.18,3.125-2.4,4.3-3.111c-1.281,3.413-5.359,11.016-7.525,12.043c-0.678,0.321-1.125,0.476-1.401,0.55
		c-0.166-0.22-0.404-0.388-0.693-0.46c-0.673-0.169-1.35,0.24-1.518,0.909c-0.049,0.198-0.065,0.44-0.024,0.691h0.013
		c-5.041,8.459-12.896,13.72-20.967,13.72c-8.01,0-15.598-5.287-20.532-13.071C103.378,84.631,103.442,84.618,103.508,84.568z
		 M196.285,140.048l0.023,0.099c0.267,0.341,0.517,0.859,0.485,1.626c-0.047,1.149-0.81,2.088-1.915,2.757l-0.04,0.164
		c0.134,0.247,0.218,0.525,0.234,0.826c0.053,1.007-0.681,2.316-2.925,2.69c-0.643,0.106-1.262,0.161-1.844,0.161
		c-0.063,0-0.123-0.001-0.186-0.002c0.003-0.001,0.005-0.002,0.008-0.004l-0.016,0.004c0.003,0,0.006,0,0.008,0
		c-3.107,1.761-7.454,1.016-10.498,0.488c-0.648-0.113-1.24-0.216-1.75-0.281c-1.457-0.316-5.299,0.009-9.018,0.322
		c-3.039,0.255-6.183,0.52-8.605,0.52c-2.592,0-4.818,0.112-6.783,0.21c-0.113,0.006-1.219,0.011-1.33,0.016
		c0.094-0.677,0.184-1.348,0.271-2.016c1.979-0.1,5.217-0.211,7.842-0.211c2.342,0,5.439-0.261,8.439-0.513
		c4.217-0.354,7.858-0.66,9.522-0.297c0.447,0.054,1.069,0.161,1.752,0.279c2.158,0.376,4.824,0.835,7.065,0.461l-0.142-0.16
		c-0.312-0.436-0.396-0.954-0.228-1.461c0.08-0.238,0.217-0.447,0.396-0.632c-0.432-0.31-0.688-0.795-0.688-1.562
		c0-0.317,0.078-0.617,0.193-0.909h0.004c-0.906-0.382-1.051-1.208-1.07-1.513c-0.066-1.026,0.344-1.862,0.922-2.528l-0.002,0.001
		c-0.168-0.261-0.285-0.57-0.326-0.931c-0.012-0.11-0.012-0.214-0.014-0.318l-0.094,0.041c-0.74,0.377-0.905,0.937-0.961,1.494
		c-0.047,0.464-0.439,0.809-0.896,0.809c-0.03,0-0.063-0.001-0.092-0.004c-0.496-0.05-0.854-0.492-0.806-0.987
		c0.162-1.595,1.033-2.667,2.59-3.187c1.49-0.497,3.402-1.634,3.636-2.357c0.021-0.063,0.021-0.084-0.026-0.148
		c-0.033-0.045-0.234-0.17-0.765-0.195c-1.955-0.111-5.058,1.161-5.601,1.777c-0.767,0.865-2.479,2.742-3.334,3.673l-0.541,0.509
		c-0.328,0.104-0.653,0.209-0.969,0.315c-0.133,0.045-0.271,0.062-0.41,0.048c-0.119-0.011-11.885-1.083-16.498-1.083
		c-1.869,0-3.588-0.037-5.156-0.071c-0.584-0.013-2.137-0.024-2.676-0.034c0.056-0.701,0.099-1.362,0.133-1.997
		c0.519,0.009,2.035,0.019,2.589,0.031c1.553,0.034,3.256,0.071,5.11,0.071c4.416,0,14.808,0.922,16.469,1.072
		c0.222-0.073,0.49-0.161,0.787-0.256l0.021-0.022c0.892-0.973,2.419-2.647,3.127-3.448c1.056-1.194,4.854-2.47,7.035-2.384
		c1,0.048,1.719,0.362,2.135,0.935l0.343,0.794c0.051-0.039,0.104-0.077,0.156-0.114c0.653-0.449,1.518-0.774,2.594-0.589
		c1.286,0.221,2.207,1.091,2.344,2.216c0.024,0.206,0.021,0.427-0.016,0.654c-0.004,0.029-0.009,0.058-0.015,0.087l0.078,0.023
		c1.087,0.364,1.823,1.205,1.897,2.23C198.334,138.163,197.84,139.366,196.285,140.048z M192.507,145.507
		c-2.097,0-3.575,0.42-4.032,0.723c0.252,0.146,0.853,0.338,1.832,0.338c0.483,0,1.004-0.046,1.547-0.136
		c0.891-0.148,1.354-0.484,1.416-0.751c0.022-0.099-0.02-0.153-0.027-0.16C193.018,145.514,192.764,145.507,192.507,145.507z
		 M192.009,141.22c-2.829,0.833-3.837,1.74-3.837,2.312c0,0.06,0.001,0.104,0.004,0.135c0.189,0.072,0.715,0.17,2.152,0.206
		l0.176,0.002c2.439,0,4.451-1.189,4.49-2.173c0.014-0.339-0.098-0.456-0.135-0.494C194.514,140.848,193.329,140.833,192.009,141.22
		z M195.641,136.662c-0.119-0.027-0.263-0.04-0.426-0.04c-1.537,0-4.121,1.155-4.986,1.6c-0.039,0.02-0.082,0.038-0.123,0.052
		c-0.028,0.01-2.912,1.041-2.813,2.71c0.032,0.006,0.149,0.038,0.39,0.038c1.527,0,4.578-1.266,6.401-2.022
		c0.526-0.218,0.983-0.408,1.332-0.54c0.815-0.311,1.08-0.785,1.058-1.096C196.449,137.04,196.13,136.771,195.641,136.662z
		 M188.201,137.653c0.994,0,2.816-0.867,4.148-1.5c0.433-0.206,0.836-0.397,1.185-0.55c0.799-0.35,1.039-0.836,1.001-1.146
		c-0.039-0.322-0.369-0.575-0.862-0.66c-1.321-0.226-2.161,1.246-2.168,1.26c-0.138,0.255-0.391,0.428-0.678,0.465
		c-0.031,0.004-3.112,0.469-2.946,1.923c0.014,0.122,0.041,0.164,0.043,0.167C187.925,137.612,187.994,137.653,188.201,137.653z
		 M128.291,81.612c1.51-1.045,2.375-2.556,2.375-4.144c0-1.097-0.527-1.699-0.971-2.011c-1.617-1.144-4.635-0.157-5.223,0.052
		c-0.468,0.167-0.712,0.681-0.546,1.149c0.166,0.467,0.677,0.712,1.148,0.547c1.065-0.377,2.94-0.729,3.582-0.277
		c0.065,0.047,0.204,0.146,0.204,0.54c0,1.404-1.116,2.331-1.598,2.664c-0.922,0.637-1.75,0.752-1.969,0.669
		c-0.461-0.173-0.982,0.061-1.156,0.527c-0.176,0.465,0.062,0.984,0.525,1.159c0.242,0.09,0.518,0.134,0.812,0.134
		C126.326,82.621,127.352,82.264,128.291,81.612z"/>
	<path id="Tutu" fill="#00F9E6" d="M174.703,192.261c-0.027-0.028-0.057-0.059-0.082-0.09c1.35-2.194,2.117-4.688,2.117-7.34
		c0-8.748-8.313-15.836-18.566-15.836c-5.5,0-10.438,2.039-13.836,5.276c-0.24,0.06-0.48,0.115-0.729,0.183
		c-8.869,2.389-15.82,2.06-20.705,1.035c-6.708-7.406-19.919-7.517-30.496,0.057c-11.197,8.021-15.199,21.609-8.938,30.354
		c2.14,2.988,5.199,5.021,8.747,6.09c0.185,8.523,4.836,16.188,12.524,19.148c5.695,2.194,11.886,1.354,17.095-1.744
		c3.427,4.291,8.164,6.948,13.399,6.948c6.88,0,12.9-4.588,16.216-11.448c7.889,4.325,17.19,4.063,23.504-1.438
		C183.41,216.089,183.296,202.125,174.703,192.261z"/>
	<path id="Shirt" fill="#0BDDB4" d="M129.957,118.21c-20.535,3.242-28.343,12.309-26.386,24.14l12.37,31.378
		c0,0,11.286,8.008,22.571,5.824c11.284-2.185,8.735-4.007,8.735-4.007s5.825-31.307,5.825-42.229c0-5.938-0.108-8.861-0.266-10.996
		c-0.027-0.074-0.045-0.115-0.045-0.115S150.708,114.934,129.957,118.21z"/>
	<path id="TutuBorder" fill="#2BA088" d="M106.858,138.304c-0.817,0-1.481-0.665-1.481-1.481c0-0.816,0.665-1.48,1.481-1.48
		s1.48,0.664,1.48,1.48C108.339,137.64,107.675,138.304,106.858,138.304z M106.858,136.434c-0.215,0-0.39,0.174-0.39,0.389
		c0,0.215,0.175,0.39,0.39,0.39c0.214,0,0.389-0.175,0.389-0.39C107.247,136.608,107.073,136.434,106.858,136.434z M108.729,134.072
		c-0.817,0-1.481-0.664-1.481-1.48c0-0.817,0.665-1.481,1.481-1.481s1.48,0.665,1.48,1.481
		C110.209,133.408,109.545,134.072,108.729,134.072z M108.729,132.202c-0.215,0-0.39,0.175-0.39,0.39
		c0,0.214,0.175,0.389,0.39,0.389c0.214,0,0.389-0.174,0.389-0.389C109.117,132.376,108.943,132.202,108.729,132.202z
		 M111.68,131.021c-0.816,0-1.479-0.664-1.479-1.48c0-0.817,0.664-1.481,1.479-1.481c0.817,0,1.481,0.665,1.481,1.481
		S112.497,131.021,111.68,131.021z M111.68,129.151c-0.214,0-0.388,0.175-0.388,0.39c0,0.214,0.174,0.389,0.388,0.389
		c0.215,0,0.39-0.174,0.39-0.389C112.069,129.326,111.895,129.151,111.68,129.151z M115.617,128.364
		c-0.817,0-1.481-0.665-1.481-1.481c0-0.816,0.665-1.48,1.481-1.48c0.816,0,1.48,0.664,1.48,1.48
		C117.098,127.699,116.434,128.364,115.617,128.364z M115.617,126.494c-0.215,0-0.39,0.174-0.39,0.389c0,0.215,0.175,0.39,0.39,0.39
		c0.214,0,0.389-0.175,0.389-0.39C116.006,126.668,115.832,126.494,115.617,126.494z M119.652,126.494
		c-0.816,0-1.48-0.664-1.48-1.48s0.664-1.48,1.48-1.48c0.814,0,1.479,0.664,1.479,1.48S120.468,126.494,119.652,126.494z
		 M119.652,124.625c-0.215,0-0.389,0.174-0.389,0.389c0,0.215,0.174,0.389,0.389,0.389c0.214,0,0.388-0.174,0.388-0.389
		C120.04,124.799,119.866,124.625,119.652,124.625z M124.771,125.017c-0.816,0-1.48-0.664-1.48-1.48s0.664-1.48,1.48-1.48
		c0.815,0,1.479,0.664,1.479,1.48S125.587,125.017,124.771,125.017z M124.771,123.148c-0.215,0-0.392,0.174-0.392,0.389
		s0.177,0.389,0.392,0.389c0.213,0,0.389-0.174,0.389-0.389S124.984,123.148,124.771,123.148z M129.396,123.836
		c-0.816,0-1.48-0.665-1.48-1.481s0.664-1.48,1.48-1.48c0.815,0,1.479,0.664,1.479,1.48
		C130.876,123.172,130.212,123.836,129.396,123.836z M129.396,121.966c-0.215,0-0.39,0.174-0.39,0.389s0.175,0.39,0.39,0.39
		c0.213,0,0.389-0.175,0.389-0.39C129.785,122.141,129.609,121.966,129.396,121.966z M133.727,123.147
		c-0.816,0-1.48-0.664-1.48-1.48s0.664-1.48,1.48-1.48c0.815,0,1.479,0.664,1.479,1.48S134.542,123.147,133.727,123.147z
		 M133.727,121.278c-0.215,0-0.39,0.174-0.39,0.389s0.175,0.389,0.39,0.389s0.391-0.174,0.391-0.389
		S133.939,121.278,133.727,121.278z M137.958,122.754c-0.817,0-1.481-0.665-1.481-1.481s0.664-1.481,1.481-1.481
		c0.815,0,1.479,0.665,1.479,1.481S138.773,122.754,137.958,122.754z M137.958,120.883c-0.215,0-0.392,0.175-0.392,0.39
		s0.177,0.39,0.392,0.39c0.213,0,0.39-0.175,0.39-0.39S138.171,120.883,137.958,120.883z M142.091,122.754
		c-0.815,0-1.479-0.665-1.479-1.481s0.664-1.481,1.479-1.481c0.816,0,1.482,0.665,1.482,1.481S142.908,122.754,142.091,122.754z
		 M142.091,120.883c-0.215,0-0.389,0.175-0.389,0.39s0.174,0.39,0.389,0.39c0.216,0,0.392-0.175,0.392-0.39
		S142.307,120.883,142.091,120.883z M145.634,123.246c-0.815,0-1.479-0.665-1.479-1.481s0.664-1.48,1.479-1.48
		c0.816,0,1.48,0.664,1.48,1.48S146.451,123.246,145.634,123.246z M145.634,121.375c-0.213,0-0.389,0.174-0.389,0.389
		c0,0.215,0.176,0.39,0.389,0.39c0.216,0,0.39-0.175,0.39-0.39C146.023,121.55,145.85,121.375,145.634,121.375z M149.078,124.625
		c-0.814,0-1.479-0.665-1.479-1.481s0.664-1.48,1.479-1.48c0.816,0,1.482,0.664,1.482,1.48S149.896,124.625,149.078,124.625z
		 M149.078,122.754c-0.214,0-0.389,0.174-0.389,0.389c0,0.215,0.175,0.39,0.389,0.39c0.215,0,0.393-0.175,0.393-0.39
		C149.468,122.929,149.292,122.754,149.078,122.754z M143.277,115.911l-3.301-13.993c-0.138-0.586-0.728-0.95-1.313-0.812
		c-0.588,0.139-0.951,0.727-0.813,1.314l3.15,13.343h0.012c-0.453-0.015-0.918-0.026-1.402-0.026c-2.924,0-6.258,0.292-9.905,0.868
		c-6.16,0.973-11.335,2.486-15.506,4.519v0.001l-4.038-15.813c-0.15-0.585-0.746-0.94-1.329-0.788
		c-0.584,0.15-0.937,0.745-0.788,1.329l4.171,16.33v-0.001c-3.069,1.766-5.499,3.86-7.25,6.287c-2.88,3.99-3.888,8.75-2.995,14.146
		l10.329,26.279l-0.002-0.006c-1.045-0.142-2.112-0.236-3.216-0.236c-5.924,0-12.103,2.088-17.399,5.879
		c-5.641,4.039-9.72,9.568-11.487,15.568c-1.8,6.108-0.996,11.979,2.262,16.526c2.063,2.883,5.006,5.041,8.548,6.281
		c0.002,0.036,0.007,0.069,0.009,0.104l-0.022-0.104c0.141,2.466,0.644,4.89,1.51,7.192c2.171,5.775,6.359,10.109,11.793,12.203
		c2.271,0.877,4.664,1.309,7.078,1.309c3.452,0,6.944-0.896,10.188-2.635l0,0c3.6,4.104,8.403,6.615,13.678,6.615
		c6.965,0,13.115-4.379,16.744-11.023l0,0v0.002c3.512,1.718,7.18,2.574,10.719,2.574c4.855,0,9.465-1.598,13.076-4.746
		c4.369-3.807,6.746-9.352,6.695-15.612c-0.05-6.193-2.474-12.353-6.826-17.347l0.5,0.591c1.209-2.248,1.846-4.718,1.846-7.197
		c0-9.422-8.891-17.086-19.818-17.086c-2.838,0-5.607,0.537-8.146,1.524l0,0c1.713-9.835,4.675-28.002,4.675-35.955
		c0-6.556-0.136-9.297-0.269-11.115l-0.02-0.238l-0.115-0.3C154.016,120.82,152.207,116.793,143.277,115.911L143.277,115.911z
		 M104.974,140.482c-0.327-3.846,0.553-7.242,2.625-10.112c3.775-5.231,11.383-8.782,22.611-10.555
		c3.479-0.549,6.644-0.828,9.397-0.828c10.072,0,11.588,3.663,11.593,3.662l0.004,0.01c0.123,1.763,0.244,4.469,0.244,10.658
		c0,10.648-5.74,41.623-5.798,41.933l-0.114,0.615c-0.769,0.422-2.687,1.191-7.332,2.092c-1.192,0.23-2.447,0.35-3.729,0.35
		c-0.002,0-0.002,0-0.002,0c-8.021-0.002-15.455-4.508-17.205-5.646l-12.052-30.57l-0.001,0.002
		c0.271,0.302,0.664,0.493,1.101,0.493c0.817,0,1.482-0.664,1.481-1.481c0-0.815-0.664-1.479-1.481-1.479
		C105.721,139.624,105.208,139.976,104.974,140.482L104.974,140.482z M179.973,208.807c0.045,5.521-2.029,10.389-5.839,13.709
		c-5.479,4.774-13.643,5.436-21.063,1.803l0,0c1.494-3.478,2.346-7.437,2.346-11.639c0-0.689-0.561-1.25-1.25-1.25
		s-1.25,0.561-1.25,1.25c0,12.358-7.932,22.413-17.68,22.413c-9.75,0-17.68-10.055-17.68-22.413c0-4.439,1.025-8.734,2.965-12.416
		c0.321-0.611,0.088-1.367-0.522-1.688c-0.613-0.324-1.367-0.089-1.688,0.521c-2.128,4.04-3.253,8.736-3.253,13.584
		c0,6.229,1.866,11.928,4.938,16.301c-4.772,2.431-10.096,2.806-14.805,0.992c-4.759-1.834-8.435-5.652-10.351-10.75
		c-1.936-5.149-1.847-10.983,0.249-16.426c3.455-8.969,11.852-14.922,20.421-14.498c0.694,0.033,1.277-0.494,1.311-1.184
		c0.035-0.689-0.496-1.277-1.185-1.313c-9.626-0.495-19.042,6.132-22.88,16.097c-1.046,2.717-1.639,5.523-1.775,8.313
		c-2.672-1.101-4.9-2.817-6.494-5.043c-2.799-3.908-3.473-9.012-1.896-14.366c1.609-5.468,5.354-10.523,10.544-14.24
		c4.875-3.49,10.536-5.412,15.943-5.412c1.493,0,2.921,0.162,4.282,0.445l1.248,3.176l0.394,0.278
		c0.375,0.267,9.282,6.502,19.472,6.503c0,0,0,0,0.002,0c1.489,0,2.952-0.138,4.348-0.406c8.475-1.642,9.934-3.197,10.248-4.64
		c0.104-0.487,0.045-0.928-0.105-1.299c0.114-0.623,0.303-1.653,0.541-2.998c2.609-1.271,5.596-1.967,8.666-1.967
		c9.549,0,17.316,6.543,17.316,14.586c0,1.808-0.389,3.556-1.15,5.217l-0.209-0.243c-5.296-5.363-12.297-8.063-19.139-7.72
		c-0.689,0.033-1.221,0.621-1.188,1.312c0.032,0.688,0.635,1.268,1.311,1.188c6.717-0.332,13.719,2.844,18.646,8.5
		C177.721,197.628,179.927,203.212,179.973,208.807z M106.316,140.715c-0.214,0-0.389,0.174-0.389,0.388
		c0,0.215,0.174,0.39,0.389,0.39c0.215,0,0.39-0.175,0.39-0.39C106.706,140.889,106.531,140.715,106.316,140.715z"/>
	<path id="Buttons" fill="#3EEDFF" d="M107.252,141.103c0,0.518-0.419,0.936-0.936,0.936c-0.516,0-0.935-0.418-0.935-0.936
		c0-0.516,0.419-0.934,0.935-0.934C106.833,140.169,107.252,140.587,107.252,141.103z M106.858,135.888
		c-0.517,0-0.936,0.418-0.936,0.935c0,0.517,0.419,0.936,0.936,0.936s0.935-0.419,0.935-0.936
		C107.793,136.306,107.375,135.888,106.858,135.888z M108.729,131.656c-0.517,0-0.936,0.419-0.936,0.936
		c0,0.516,0.419,0.935,0.936,0.935s0.935-0.419,0.935-0.935C109.663,132.075,109.245,131.656,108.729,131.656z M111.68,128.605
		c-0.516,0-0.934,0.419-0.934,0.936c0,0.516,0.418,0.935,0.934,0.935c0.518,0,0.936-0.419,0.936-0.935
		C112.615,129.024,112.197,128.605,111.68,128.605z M115.617,125.948c-0.517,0-0.936,0.418-0.936,0.935
		c0,0.517,0.419,0.936,0.936,0.936c0.516,0,0.935-0.419,0.935-0.936C116.552,126.366,116.133,125.948,115.617,125.948z
		 M119.652,124.079c-0.517,0-0.936,0.418-0.936,0.935c0,0.516,0.419,0.935,0.936,0.935s0.934-0.419,0.934-0.935
		C120.586,124.497,120.169,124.079,119.652,124.079z M124.771,122.602c-0.519,0-0.937,0.419-0.937,0.935
		c0,0.516,0.418,0.935,0.937,0.935c0.516,0,0.936-0.419,0.936-0.935C125.707,123.021,125.287,122.602,124.771,122.602z
		 M129.396,121.42c-0.517,0-0.937,0.419-0.937,0.935c0,0.518,0.42,0.936,0.937,0.936c0.518,0,0.936-0.418,0.936-0.936
		C130.33,121.839,129.914,121.42,129.396,121.42z M133.727,120.732c-0.517,0-0.937,0.418-0.937,0.935s0.42,0.935,0.937,0.935
		c0.518,0,0.936-0.418,0.936-0.935S134.242,120.732,133.727,120.732z M137.958,120.337c-0.519,0-0.937,0.419-0.937,0.936
		s0.418,0.936,0.937,0.936c0.517,0,0.935-0.419,0.935-0.936S138.475,120.337,137.958,120.337z M142.091,120.337
		c-0.516,0-0.937,0.419-0.937,0.936s0.421,0.936,0.937,0.936c0.519,0,0.937-0.419,0.937-0.936S142.607,120.337,142.091,120.337z
		 M145.634,120.83c-0.516,0-0.934,0.419-0.934,0.935c0,0.518,0.418,0.936,0.934,0.936c0.519,0,0.937-0.418,0.937-0.936
		C146.568,121.249,146.152,120.83,145.634,120.83z M149.078,122.208c-0.516,0-0.934,0.418-0.934,0.935s0.418,0.936,0.934,0.936
		c0.52,0,0.938-0.419,0.938-0.936S149.596,122.208,149.078,122.208z"/>
	<path id="Hair" fill="#FF9C9C" d="M112.708,36.858c-3.888,1.47-7.088,3.726-9.574,6.758c-9.202,11.223-5.69,29.588-5.65,29.786
		c0.597,2.616,2.489,8.398,5.374,11.559l0.916,1.004l-0.047-1.359c-0.34-9.778,5.383-17.36,17.022-22.539
		c10.552-4.99,14.983-14.939,15.026-15.039c0.207-0.473,0.717-0.757,1.238-0.657c0.519,0.096,0.896,0.53,0.918,1.065
		c0.019,0.295,0.479,7.3,5.592,13.914c2.986,3.866,5.455,6.481,7,7.995l0.69,0.676l0.153-0.955c0.886-5.54,1.523-16.02-4.152-23.973
		c-3.193-4.474-7.979-7.527-14.283-9.122l0.117-2.282l-0.574-0.978c-1.924-3.268-5.459-5.298-9.227-5.298
		c-4.037,0-7.69,2.245-9.534,5.859l-0.522,1.024L112.708,36.858z"/>
	<path id="HairBorder" fill="#F47A7A" d="M150.873,68.988c-1.596-1.562-4.025-4.153-6.955-7.943
		c-5.096-6.592-5.482-13.573-5.486-13.639c-0.033-0.755-0.582-1.388-1.326-1.526c-0.741-0.137-1.483,0.255-1.787,0.948
		c-0.043,0.099-4.409,9.882-14.783,14.787c-11.848,5.273-17.656,13.003-17.308,23.009c-2.849-3.122-4.699-8.896-5.256-11.333
		c-0.036-0.182-3.525-18.289,5.55-29.358c4.691-5.722,12.01-8.624,21.75-8.624h0.146c9.922,0.705,17.119,4.095,21.391,10.076
		C152.486,53.342,151.664,64.041,150.873,68.988z M131.948,32.92c-1.995-0.414-4.115-0.7-6.358-0.857
		c-0.035-0.002-0.07-0.004-0.105-0.004h-0.213c-4.07,0-7.77,0.473-11.084,1.412l-0.028,0.029c1.69-3.31,5.125-5.586,9.087-5.587
		c3.746,0,7.02,2.035,8.795,5.052L131.948,32.92z M136.061,34.022c-1.738-5.421-6.822-9.359-12.813-9.359
		c-6.318,0-11.618,4.382-13.058,10.261l-0.046,0.01c-3.629,1.628-6.682,3.943-9.138,6.938c-10.04,12.246-6.383,31.252-6.214,32.097
		c0.303,1.333,3.151,13.087,9.857,15.546c0.182,0.066,0.372,0.099,0.56,0.099c0.373,0,0.741-0.128,1.037-0.374
		c0.445-0.369,0.661-0.947,0.566-1.518l-0.019-0.111c-0.628-3.758-2.538-15.194,15.097-23.042
		c7.146-3.379,11.658-8.705,14.104-12.378c0.787,2.95,2.332,6.934,5.354,10.842c5.562,7.196,9.391,10.243,9.551,10.369
		c0.433,0.338,1,0.437,1.519,0.265s0.916-0.593,1.058-1.12c0.186-0.696,4.469-17.138-4.011-29.034
		c-3.142-4.41-7.604-7.578-13.325-9.477L136.061,34.022z"/>
</g>
</svg>
