<?xml version="1.0" encoding="utf-8"?>
<!-- Generator: Adobe Illustrator 15.0.0, SVG Export Plug-In . SVG Version: 6.00 Build 0)  -->
<!DOCTYPE svg PUBLIC "-//W3C//DTD SVG 1.1//EN" "http://www.w3.org/Graphics/SVG/1.1/DTD/svg11.dtd">
<svg version="1.1" id="Layer_1" xmlns="http://www.w3.org/2000/svg" xmlns:xlink="http://www.w3.org/1999/xlink" x="0px" y="0px"
	 width="210px" height="446px" viewBox="0 0 210 446" enable-background="new 0 0 210 446" xml:space="preserve">
<g id="Father.svg">
	<path id="Shoes" fill="#6D4533" d="M159.547,403.562c4.043-0.884,7.96,2.399,14.023,3.284c6.064,0.886,10.811-2.692,15.359-3.197
		c4.547-0.506,8.322,2.764,8.701,6.176s-3.719,9.403-21.785,15.848c-18.068,6.444-31.846,7.66-35.18,5.327
		s-3.614-13.54-3.229-16.319C138.068,410.132,155.504,404.447,159.547,403.562z M18.793,411.958
		c-0.634,5.07-4.099,17.983,0.661,19.174c4.76,1.191,20.364-0.794,25.389-0.265c5.025,0.529,25.653,3.702,31.339,1.322
		c5.686-2.381,6.744-5.422,6.215-8.728c-0.834-5.919-12.536-4.109-15.431-5.077c-2.658-0.888-22.519-13.965-26.354-14.097
		S18.925,410.899,18.793,411.958z"/>
	<path id="ShoesBorder" fill="#3F2015" d="M18.626,426.517c1.387-0.122,2.782-0.251,4.175-0.38
		c5.823-0.539,11.844-1.096,16.871-1.096c2.703,0,4.925,0.156,6.794,0.478c7.276,1.25,22.804,3.214,31.92,3.659v-0.003
		c2.521-1.773,2.694-3.651,2.405-5.455c-0.418-2.967-6.115-3.181-9.884-3.321c-1.92-0.072-3.437-0.13-4.458-0.472
		c-1.025-0.342-3.369-1.716-7.693-4.293h0.002c-0.674,1.395-2.307,3.463-3.446,4.084c-0.152,0.083-0.316,0.122-0.478,0.122
		c-0.354,0-0.698-0.188-0.879-0.521c-0.265-0.484-0.085-1.093,0.399-1.356c0.723-0.395,2.274-2.361,2.672-3.36l0.001,0.003
		c-1.123-0.671-2.386-1.421-3.704-2.193l-0.005-0.002c-0.119,0.171-0.241,0.353-0.367,0.542c-0.89,1.333-2.11,3.158-4.133,3.749
		c-0.094,0.026-0.188,0.04-0.281,0.04c-0.433,0-0.832-0.283-0.959-0.72c-0.155-0.53,0.149-1.086,0.68-1.24
		c1.325-0.388,2.231-1.743,3.031-2.94c0.102-0.151,0.2-0.294,0.298-0.438h0.002c-1.4-0.812-2.817-1.617-4.155-2.354v0.001
		c-0.739,1.168-2.168,2.165-3.48,3.071l-0.569,0.396c-0.175,0.124-0.376,0.185-0.576,0.185c-0.314,0-0.623-0.147-0.818-0.423
		c-0.186-0.264-0.227-0.584-0.139-0.87c0.063-0.204,4.051-3.187,4.051-3.187c0.794-0.779,1.522-1.622,2.166-2.528
		c3.172,1.702,7.106,4.021,11.635,6.723c3.431,2.047,6.979,4.164,7.776,4.431c0.58,0.193,2.09,0.25,3.55,0.306
		c4.851,0.183,12.182,0.458,12.975,6.087c0.75,4.682-1.603,8.109-7.196,10.452c-1.609,0.674-4.157,1.001-7.79,1.001h-0.001
		c-6.739,0-15.68-1.129-21.022-1.804c-1.405-0.178-2.55-0.321-3.323-0.402c-0.522-0.056-1.23-0.083-2.106-0.083
		c-2.181,0-5.107,0.167-8.206,0.345c-3.435,0.196-6.987,0.398-9.943,0.398c-2.466,0-4.168-0.139-5.357-0.437
		c-4.206-1.052-4.056-7.068-3.211-12.9c0.127-0.043,0.24-0.079,0.376-0.127c0.864-0.296,1.886-0.643,3.091-0.985
		c-0.393,2.48-0.783,4.563-0.677,6.815L18.626,426.517z M76.276,431.059c-9.328-0.606-23.334-2.397-30.148-3.568
		c-1.756-0.303-3.868-0.448-6.456-0.448c-4.935,0-10.909,0.553-16.687,1.087c-1.549,0.145-3.101,0.287-4.641,0.422
		c0.424,1.38,1.1,1.549,1.352,1.612c0.948,0.236,2.536,0.355,4.72,0.355c2.881,0,6.395-0.199,9.793-0.395
		c3.137-0.18,6.101-0.349,8.356-0.349c0.981,0,1.76,0.031,2.381,0.098c0.785,0.082,1.949,0.229,3.376,0.409
		c5.281,0.666,14.121,1.782,20.694,1.782h0.001c3.233,0,5.512-0.27,6.776-0.799C75.959,431.198,76.12,431.129,76.276,431.059z
		 M195.992,409.863c-0.369-2.438-3.258-5.007-6.883-4.6c-1.529,0.17-3.184,0.767-4.934,1.396c-2.328,0.84-4.939,1.781-7.867,1.931
		v-0.01c0.52,1.713,0.537,3.138,0.371,3.796c-0.113,0.455-0.521,0.758-0.969,0.758c-0.08,0-0.162-0.01-0.243-0.029
		c-0.536-0.135-0.862-0.678-0.728-1.213c0.084-0.338,0.076-1.672-0.551-3.345v0.006c-0.287-0.024-0.571-0.058-0.854-0.099
		c-0.773-0.112-1.511-0.261-2.217-0.433l0.002-0.008c0.393,1.401,0.562,2.78,0.439,3.898c-0.058,0.512-0.49,0.89-0.994,0.89
		c-0.037,0-0.073-0.002-0.11-0.006c-0.549-0.062-0.944-0.556-0.884-1.104c0.13-1.168-0.178-2.806-0.785-4.354l-0.005,0.008
		c-0.925-0.305-1.793-0.629-2.617-0.937c-0.964-0.36-1.862-0.695-2.709-0.944c0.735-0.867,1.386-1.798,1.921-2.795
		c0.635,0.216,1.273,0.452,1.926,0.695c1.994,0.745,4.057,1.516,6.502,1.872c0.561,0.082,1.135,0.123,1.706,0.123
		c2.685,0,5.164-0.895,7.563-1.759c1.937-0.697,3.766-1.357,5.676-1.569c0.376-0.042,0.746-0.062,1.111-0.062
		c4.705,0,8.916,3.442,9.386,7.673c0.375,3.381-2.095,10.154-22.854,17.559c-11.615,4.143-22.513,6.519-29.896,6.519h-0.001
		c-3.214,0-5.426-0.455-6.762-1.391c-2.438-1.705-3.475-6.423-3.854-10.64c1.007-0.339,2.134-0.86,3.126-1.54
		c0.158,2.392,0.52,4.989,1.119,6.902l-0.001,0.003c1.844,0.106,3.597,0.159,5.323,0.159c8.676,0,16.781-1.371,24.781-4.191
		c12.391-4.368,21.383-9.625,25.767-13.158L195.992,409.863z M195.044,413.073c-4.999,3.505-13.319,8.02-24.149,11.838
		c-8.218,2.896-16.541,4.306-25.446,4.306c-1.667,0-3.356-0.048-5.123-0.145c0.346,0.61,0.668,0.936,0.915,1.107
		c0.488,0.343,1.82,0.916,5.257,0.916c6.991,0,17.837-2.38,29.014-6.364C188.666,420.039,193.413,415.85,195.044,413.073z"/>
	<path id="Pants" fill="#2D3E59" d="M84.083,295.865c6.263,9.607,11.93,18.324,17.917,24.468
		c8.989,9.226,13.355,35.268,16.667,47.333s9.692,25.605,12.769,29.391c3.076,3.786,1.77,7.179,1.77,12.383
		c0,5.203-0.678,11.076,0.507,11.076s5.181-1.431,6.126-3.56c0.946-2.129,3.702-3.714,7.96-4.423
		c4.259-0.709,14.203-4.867,16.87-12.2s-26.667-67.334-27.408-87.43c-0.74-20.097-23.227-64.708-25.592-71.569
		s-13.931-23.325-13.694-26.4c0,0-17.488,0.335-35.703,0.809c-18.215,0.474-24.316,4.678-21.714,25.259
		c0.835,6.607,3.495,11.527,7.072,15.667l-0.001-0.001c-8.876,16.312-12.839,61.645-14.576,65.987c-2,5-5.051,12.846-5.551,17.346
		s-1.625,19.065-4.125,25.565s-9.208,24.768-8.708,28.768S18,401.166,18,403.666S12,413,12,417s2.5,0.5,12-1s21.667-6,24.667-15
		S57,367.5,58,360s4.5-19.5,8-25s6.5-14.667,10-22.667c2.028-4.635,5.51-11.507,8.081-16.469L84.083,295.865z"/>
	<path id="Body" fill="#EFB47F" d="M65.354,78.019c-0.902-0.629-1.538-1.114-1.838-1.38c-1.082-0.962-2.748-5.205-4.329-11.498
		l1.79,0.253c-3.005,0-6.104-6.217-6.104-10.295c0-4.079,2.436-7.385,5.441-7.385c1.825,0,3.441,1.219,4.428,3.092l-1.872-2.227
		l-2.557-0.865l-3.889,0.784c0.652-24.475,12.696-31.355,27.458-31.355c15.18,0,27.486,6.548,27.486,33.478
		c0,20.503-6.156,38.143-21.049,38.449l0,0c-0.221,3.515-0.171,8.94,1.634,13.099c2.906,6.696,6.531,10.218,1.005,12.153
		c-5.525,1.935-40.243-4.839-32.338-24.662c0.941-1.276,3.329-6.705,4.737-11.639L65.354,78.019z M33.304,135.085
		c-1.912,6.281-10.413,44.325-9.284,51.337c1.129,7.012,11.469,26.214,13.653,33.587s4.095,13.382,3.549,15.292
		c-0.546,1.911-2.73,9.559-1.638,15.292c1.092,5.734,0.819,8.466,2.731,8.738s2.666-1.119,2.666-1.119s0.23,2.3,2.455,2.761
		s2.455-0.689,2.455-0.689s0.459,1.533,2.301,1.533c1.842,0,2.608-1.303,2.608-1.303s0.383,1.688,3.298,1.918
		c2.915,0.229,2.301-4.527,2.761-8.209s1.535-14.881-0.767-18.869C57.79,231.364,54.75,231.5,53.25,223s-8.5-40.5-6.75-44.25
		S57.5,153.5,60,148 M101.875,184.101c0,0,12.532,11.516,20.661,17.952c8.129,6.437,16.524,7.597,20.928,11.322
		c4.404,3.725,1.354,3.726,5.249,7.789c3.895,4.062,12.023,3.389,13.379,4.574c1.355,1.185-2.709,3.387-0.677,6.772
		s11.008-6.096,11.854-9.483c0.846-3.387-4.742-14.056-6.098-15.919c-1.355-1.863-9.652-2.371-15.919-4.064
		c-6.267-1.693-31.428-32.661-35.661-38.25c-4.232-5.589-7.281-22.863-8.129-27.774L101.875,184.101z"/>
	<path id="PantsBorder" fill="#122238" d="M82.204,295.959c-2.534,4.909-5.771,11.331-7.693,15.723
		c-1.166,2.664-2.28,5.467-3.358,8.177c-2.191,5.51-4.261,10.714-6.524,14.271c-3.646,5.729-7.205,17.894-8.24,25.657
		c-0.972,7.294-6.321,31.871-9.264,40.701c-2.651,7.95-13.814,12.397-23.378,13.907c-3.92,0.619-6.721,1.577-8.573,2.212
		c-0.534,0.183-1.113,0.38-1.547,0.503c0-0.034-0.001-0.07-0.001-0.108c0-1.783,1.826-4.825,3.292-7.269
		c1.679-2.798,2.708-4.588,2.708-6.065c0-1.58-0.752-3.061-1.547-4.627c-0.773-1.522-1.572-3.096-1.799-4.907
		c-0.346-2.771,4.07-16.174,8.612-27.982c2.214-5.757,3.353-17.253,3.965-23.431c0.101-1.021,0.187-1.888,0.259-2.539
		c0.509-4.584,3.967-13.229,5.444-16.922c0.554-1.384,1.123-5.164,2.255-12.899c1.832-12.517,5.114-34.907,9.977-47.892
		c-1.16-0.321-1.98-0.976-2.515-1.724c-0.092,0.033-0.192,0.058-0.29,0.085c-4.605,11.807-7.736,30.942-10.388,49.059
		c-0.87,5.942-1.622,11.075-2.057,12.164c-2.521,6.305-5.166,13.346-5.657,17.771c-0.073,0.662-0.161,1.54-0.263,2.578
		c-0.597,6.022-1.708,17.236-3.764,22.584c-2.213,5.753-9.387,24.887-8.804,29.552c0.297,2.376,1.311,4.372,2.125,5.977
		c0.615,1.21,1.195,2.354,1.195,3.155c-0.01,0.67-1.354,2.91-2.244,4.393c-1.761,2.934-3.756,6.258-3.756,8.941
		c0,3.025,1.671,3.479,2.667,3.479c0.852,0,1.779-0.317,3.183-0.798c1.851-0.634,4.386-1.5,8.028-2.074
		c5.099-0.807,22.039-4.346,25.955-16.093c3.054-9.159,8.392-33.714,9.403-41.299c0.969-7.269,4.395-19.054,7.76-24.343
		c2.428-3.814,4.553-9.157,6.802-14.813c1.068-2.685,2.172-5.46,3.315-8.073c1.684-3.851,4.409-9.311,6.759-13.895l0.002,0.003
		c5.621,8.608,10.992,16.632,16.586,22.373c6.812,6.993,10.98,24.656,14.025,37.555c0.795,3.367,1.545,6.549,2.238,9.074
		c3.242,11.815,9.69,25.821,13.074,29.985c1.919,2.363,1.776,4.494,1.561,7.721c-0.073,1.082-0.155,2.31-0.155,3.638
		c0,1.444-0.054,2.937-0.104,4.378c-0.166,4.715-0.195,6.669,0.812,7.711c0.382,0.396,0.888,0.612,1.426,0.612
		c1.71,0,6.358-1.709,7.61-4.523c0.72-1.618,3.177-2.887,6.742-3.48c4.438-0.738,15.168-5.101,18.131-13.247
		c1.393-3.829-3.098-15.838-11.152-36.732c-7.395-19.184-15.775-40.926-16.159-51.312c-0.585-15.844-14.185-46.11-21.491-62.372
		c-2.053-4.567-3.675-8.177-4.188-9.666c-1.177-3.416-4.386-8.855-7.487-14.117c-2.566-4.351-6.08-10.31-6.123-11.629
		c0.035-0.457-0.124-0.907-0.438-1.24c-0.315-0.333-0.77-0.549-1.213-0.509c-0.175,0.003-17.702,0.341-35.713,0.809
		c-3.262,0.084-6.234,0.284-8.9,0.707c0.224,1.133,0.436,2.207,0.632,3.208c2.324-0.364,5.073-0.581,8.352-0.666
		c15.1-0.392,29.859-0.693,34.327-0.782c0.701,2.176,2.684,5.663,6.277,11.754c2.88,4.884,6.145,10.419,7.215,13.524
		c0.562,1.63,2.128,5.115,4.296,9.939c7.216,16.06,20.647,45.95,21.208,61.159c0.403,10.931,8.889,32.94,16.375,52.361
		c5.707,14.803,12.176,31.581,11.131,34.453c-2.341,6.435-11.322,10.438-15.609,11.152c-4.801,0.8-7.975,2.654-9.18,5.365
		c-0.447,1.01-2.401,1.966-3.683,2.38c-0.073-1.17-0.002-3.175,0.054-4.744c0.053-1.47,0.106-2.989,0.106-4.492
		c0-1.22,0.075-2.338,0.147-3.419c0.229-3.411,0.444-6.634-2.279-9.987c-2.741-3.374-9.11-16.58-12.463-28.796
		c-0.68-2.472-1.422-5.624-2.211-8.962c-3.131-13.269-7.418-31.438-14.859-39.075c-5.838-5.991-11.55-14.757-17.598-24.035
		c-3.206-4.92-6.521-10.007-10.14-15.151c-4.184-5.951-9.753-10.23-15.139-14.371c-0.687-0.527-1.368-1.054-2.046-1.58
		c-0.088,0-0.178-0.002-0.271-0.01c-1.618-0.129-2.695-0.627-3.408-1.193c-0.583,0.32-1.336,0.561-2.272,0.578
		c1.959,1.658,3.995,3.229,6.017,4.783c5.193,3.99,10.563,8.116,14.461,13.661c3.347,4.761,6.445,9.489,9.438,14.08L82.204,295.959z
		"/>
	<path id="Shirt" fill="#92FFD0" d="M93.651,94.083C93.1,93,92.749,92.34,92.749,92.34l-0.697,11.27c0,0,0.169,0.172,0.459,0.463
		c0,0.001-0.511,5.261-0.511,5.261l-6.252-4.26l0.006,0.001l0.914-2.741L59,82.25l-7,9.5l1.878,1.62l0,0
		c-5.072,3.812-11.503,7.976-14.544,12.985c-7.759,7.937-9.642,36.452-9.034,33.372l13.654,3.823l14.092,8.628
		c0,0-11.814,24.858-11.821,29.08c-0.01,6.078,6.906,35.498,6.373,38.271c-1.365,7.099-0.071-2.668-0.344,1.155
		c-0.273,3.823,3.999-3.723,20.656-2.902c16.657,0.818,31.263,8.583,31.694,6.911c3.832-14.829,3.031-26.735,4.396-42.026
		s2.945-48.401-0.33-58.504c-3.276-10.103-5.733-11.469-6.826-17.203c-1.093-5.734-1.91-10.534-6.279-12.172
		c-1.125-0.482-1.669-0.647-1.91-0.704L93.651,94.083z"/>
	<path id="BodyBorder" fill="#A36333" d="M174.846,223.421c-0.807,3.229-7.904,11.435-12.125,11.435
		c-1.156,0-2.115-0.537-2.699-1.51c-1.67-2.783-0.352-5.123,0.356-6.38c0.022-0.042,0.049-0.087,0.075-0.133
		c-0.564-0.118-1.355-0.233-1.994-0.327c-3.182-0.463-7.99-1.163-10.919-4.219c-1.974-2.059-2.431-3.285-2.786-4.564
		c-0.238-0.857-0.411-1.476-2.34-3.108c-1.751-1.482-4.354-2.577-7.365-3.846c-3.922-1.651-8.802-3.706-13.521-7.443
		c-3.493-2.766-7.819-6.487-11.617-9.832c0.068-1.36,0.145-2.736,0.229-4.137c4.159,3.694,9.354,8.212,13.407,11.42
		c4.372,3.461,8.831,5.339,12.765,6.996c3.26,1.372,6.073,2.557,8.205,4.36c2.498,2.114,2.974,3.289,3.37,4.717
		c0.224,0.798,0.433,1.552,2.001,3.188c2.156,2.25,6.137,2.83,9.041,3.252c2.051,0.299,3.404,0.496,4.235,1.224
		c1.56,1.364,0.538,3.178,0.047,4.049c-0.687,1.219-1.05,1.971-0.44,3.041c2.229-0.09,8.32-6.553,8.926-8.971
		c0.613-2.455-4.301-12.46-5.836-14.569c-0.648-0.67-4.594-1.373-7.477-1.885c-2.525-0.45-5.14-0.915-7.552-1.566
		c-7.716-2.085-36.257-38.473-36.532-38.837c-0.833-1.1-1.622-2.606-2.367-4.391c0.123-3.174,0.219-6.449,0.267-9.704
		c1.979,7.58,3.674,10.79,4.69,12.133c6.7,8.845,29.709,36.288,34.791,37.662c2.273,0.615,4.815,1.067,7.272,1.504
		c5.455,0.971,8.356,1.553,9.536,3.173C169.445,207.47,175.943,219.025,174.846,223.421z M168.279,222.33
		c0.572-0.052,1.033-0.34,1.3-0.813c0.745-1.322-0.284-3.636-2.068-7.29c-0.221-0.453-0.433-0.886-0.618-1.279
		c-1.358-2.888-2.58-4.052-4.506-4.292c-0.554-0.068-1.048,0.321-1.115,0.868c-0.068,0.548,0.319,1.048,0.867,1.116
		c0.848,0.106,1.653,0.417,2.945,3.16c0.188,0.402,0.404,0.843,0.63,1.305c0.668,1.369,1.983,4.063,2.109,5.161
		c-0.89-0.412-2.64-2.479-3.345-3.312c-1.033-1.22-1.512-1.768-2.015-1.969c-0.31-0.124-0.702-0.146-1.354-0.185
		c-2.101-0.124-6.473-0.381-7.899-4.308c-0.188-0.519-0.76-0.786-1.28-0.598c-0.52,0.189-0.787,0.763-0.599,1.282
		c1.877,5.163,7.332,5.484,9.662,5.621c0.25,0.015,0.552,0.033,0.708,0.052c0.248,0.213,0.801,0.865,1.252,1.397
		c1.958,2.313,3.592,4.091,5.146,4.091C168.16,222.338,168.221,222.335,168.279,222.33z M61.5,234.541
		c-0.842-1.461-1.747-2.406-2.622-3.32c-1.663-1.736-3.099-3.236-4.028-8.503c-0.321-1.821-0.899-4.744-1.569-8.129
		c-1.916-9.688-6.402-32.373-5.309-35.152c0.907-1.944,3.729-8.424,6.715-15.284c1.339-3.075,2.698-6.197,3.881-8.901
		c-0.05-0.058-0.104-0.11-0.146-0.176c-0.015-0.023-0.716-1.063-2.221-2.52c-1.314,2.996-2.918,6.681-4.494,10.299
		c-2.847,6.54-5.792,13.301-6.681,15.208c-1.348,2.888,0.741,15.287,5.066,37.156c0.666,3.367,1.241,6.275,1.557,8.063
		c1.1,6.235,3.108,8.335,4.88,10.186c0.775,0.812,1.508,1.576,2.154,2.696c1.587,2.751,1.426,10.951,0.562,17.857
		c-0.113,0.9-0.164,1.84-0.213,2.746c-0.07,1.287-0.2,3.683-0.648,4.037c0,0-0.043,0.014-0.16,0.006
		c-1.175-0.094-1.701-0.484-1.846-0.72c-0.068-0.68-0.534-1.147-1.208-1.31c-0.695-0.164-1.384,0.248-1.746,0.863
		c-0.063,0.092-0.415,0.545-1.234,0.545c-0.395,0-0.651-0.144-0.744-0.375c-0.214-0.715-0.894-1.18-1.632-1.156
		c-0.558,0.025-1.049,0.334-1.322,0.794c-0.128,0.011-0.36,0.004-0.728-0.071c-0.969-0.201-1.145-1.165-1.167-1.332
		c-0.071-0.71-0.597-1.29-1.296-1.431c-0.695-0.138-1.409,0.19-1.749,0.817c-0.002,0.004-0.258,0.396-0.956,0.328
		c-0.292-0.32-0.539-1.992-0.756-3.467c-0.162-1.094-0.363-2.454-0.659-4.01c-0.465-2.443-0.564-6.948,1.604-14.542
		c0.595-2.084-0.594-6.267-2.927-14.094l-0.626-2.105c-0.973-3.283-3.438-8.677-6.047-14.389c-3.259-7.133-6.952-15.217-7.56-18.995
		c-0.846-5.257,4.522-31.266,7.59-44.188c-1.127-0.29-1.867-0.447-2.323-0.53c-0.162,0.07-0.316,0.106-0.443,0.124
		c-0.16,0.022-0.318,0.014-0.473-0.011c-3.114,13.095-8.546,38.996-7.56,45.122c0.678,4.212,4.305,12.151,7.813,19.829
		c2.561,5.604,4.979,10.898,5.887,13.961l0.628,2.111c1.537,5.158,3.28,11.004,2.917,12.273c-2.344,8.207-2.203,13.254-1.671,16.041
		c0.284,1.49,0.471,2.76,0.637,3.877c0.497,3.364,0.856,5.795,3.461,6.166c0.851,0.123,1.581,0.022,2.191-0.195
		c0.584,0.816,1.488,1.543,2.829,1.82c0.952,0.197,1.778,0.189,2.47-0.022c0.62,0.511,1.479,0.899,2.615,0.899
		c0.984,0,1.768-0.252,2.372-0.582c0.713,0.565,1.79,1.063,3.408,1.191c0.111,0.01,0.219,0.014,0.324,0.014
		c1.062,0,1.785-0.428,2.217-0.807c1.495-1.308,1.627-3.738,1.767-6.312c0.046-0.852,0.094-1.731,0.193-2.521
		C62.91,250.916,64.137,239.111,61.5,234.541z M91.879,90.603v-0.011c-0.031,0.967-0.027,2.028,0.022,3.125
		c-0.013,0.059-0.029,0.118-0.035,0.179l-0.961,9.903c-0.148-0.321-0.296-0.647-0.442-0.984c-1.686-3.886-1.953-8.695-1.841-12.305
		h0.001c-8.055-1.446-17.195-6.542-22.351-9.905l0,0H66.27c0,0,0.001,0.001,0.002,0.001c-0.793,2.424-1.733,4.795-2.573,6.659
		c-0.097,0.215-2.758-1.799-2.62-2.123c0.793-1.863,1.675-4.195,2.383-6.474c0,0,0.001,0,0.001,0.001l-0.001-0.002c0,0,0,0,0,0.001
		c-0.458-0.34-0.805-0.617-1.026-0.813c-1.94-1.725-3.856-8.457-4.826-12.316c-0.003-0.012-0.006-0.024-0.008-0.036
		c-2.622-2.434-4.354-7.257-4.354-10.402c0-2.231,0.631-4.307,1.71-5.903c-0.109-0.229-0.164-0.482-0.157-0.742
		c0.582-21.855,10.367-32.937,29.083-32.937c19.861,0,29.111,11.154,29.111,35.103C112.994,74.562,105.145,89.299,91.879,90.603z
		 M109.744,50.62c0-28.232-13.82-31.853-25.861-31.853c-16.5,0-24.721,8.825-25.751,27.729l0.127-0.026
		c1.824-0.697,3.871-0.4,5.496,0.745c0.046,0.03,0.09,0.062,0.133,0.096c0.905,0.67,1.692,1.598,2.292,2.737
		c0.387,0.734,0.158,1.643-0.531,2.106c-0.69,0.463-1.617,0.332-2.151-0.303l-1.579-1.879l-1.712-0.579l-0.991,0.2
		c-1.607,0.756-2.718,2.992-2.718,5.506c0,3.47,2.47,8.014,4.196,8.614l0.51,0.072c0.845,0.119,1.453,0.872,1.394,1.723
		c-0.051,0.723-0.57,1.309-1.248,1.468c1.631,5.911,2.899,8.13,3.247,8.449c1.911,1.699,15.094,10.532,25.44,12.023
		C108.322,87.334,109.744,59.242,109.744,50.62z M98.227,77.119c0.592-0.114,0.979-0.686,0.865-1.278
		c-0.114-0.592-0.689-0.978-1.277-0.866c-3.453,0.664-8.988,0.283-11.39-0.785c-0.55-0.245-1.196,0.004-1.44,0.554
		c-0.245,0.551,0.003,1.196,0.554,1.44c1.878,0.834,5.13,1.307,8.256,1.307C95.367,77.492,96.909,77.372,98.227,77.119z
		 M100.642,67.682c0.908-1.632-0.72-3.798-2.294-5.893c-0.843-1.121-1.798-2.392-1.875-3.032c-0.054-0.448-0.453-0.768-0.91-0.715
		c-0.449,0.054-0.769,0.461-0.715,0.91c0.129,1.077,1.085,2.349,2.191,3.821c1.021,1.358,2.563,3.41,2.173,4.112
		c-0.082,0.147-0.677,0.862-4.47,0.521c-0.451-0.04-0.848,0.292-0.888,0.742c-0.041,0.45,0.292,0.848,0.742,0.888
		c0.737,0.066,1.402,0.1,1.999,0.1C98.817,69.135,100.093,68.667,100.642,67.682z"/>
	<path id="ShirtBorder" fill="#44A579" d="M92.446,110.896c-0.459,0.131-0.959,0.053-1.361-0.22l-4.471-3.046v-0.001l-3.405,10.218
		c-0.171,0.514-0.587,0.909-1.11,1.053c-0.143,0.039-0.288,0.058-0.432,0.058c-0.385,0-0.763-0.137-1.061-0.395L53.803,95.45
		c-0.5,0.369-1.004,0.739-1.515,1.112c-4.305,3.147-9.184,6.715-11.565,10.636l-0.227,0.292c-5.739,5.871-8.237,25.206-8.625,30.836
		c1.793,0.361,5.431,1.292,12.597,3.681c7.719,2.573,12.374,6.454,14.74,8.938c0.885-2.421,2.504-6.681,5.358-13.74
		c0.335-0.833,1.281-1.237,2.115-0.897c0.832,0.336,1.234,1.283,0.897,2.115c-5.074,12.553-6.223,16.219-6.234,16.255
		c-0.187,0.604-0.708,1.045-1.334,1.13c-0.073,0.01-0.146,0.015-0.219,0.015c-0.549,0-1.067-0.278-1.368-0.749
		c-0.038-0.059-4.27-6.414-14.983-9.984c-7.912-2.637-11.291-3.417-12.549-3.646c-0.162,0.07-0.316,0.106-0.443,0.124
		c-0.692,0.095-1.37-0.269-1.682-0.889c-0.659-1.31,0.882-11.563,1.579-15.239c1.906-10.055,4.54-16.858,7.828-20.222
		c-0.044,0.045-0.087,0.098-0.131,0.145c2.741-4.411,7.83-8.136,12.33-11.425c0.306-0.224,0.607-0.444,0.908-0.666l-0.001-0.001
		l-0.338-0.292c-0.644-0.555-0.751-1.511-0.247-2.194l7-9.5c0.529-0.719,1.54-0.877,2.263-0.351l27.667,20.083
		c0.574,0.416,0.811,1.156,0.587,1.829l-0.526,1.578l0,0l2.965,2.021l0.233-2.399l-0.002-0.004c-0.06-0.161-0.086-0.335-0.075-0.511
		l0.697-11.271c0.035-0.559,0.436-1.026,0.983-1.145c0.544-0.119,1.106,0.141,1.369,0.635c0.039,0.073,0.19,0.36,0.426,0.814
		l0.002,0.003c0.404,0.117,0.998,0.327,1.924,0.723c5.054,1.894,6.078,7.273,7.161,12.969l0.075,0.393
		c0.504,2.646,1.32,4.279,2.45,6.54c1.182,2.36,2.649,5.297,4.325,10.466c3.638,11.219,1.454,47.371,0.402,59.15
		c-0.417,4.681-0.632,9.059-0.839,13.294c-0.469,9.552-0.91,18.575-3.604,28.995c-0.182,0.702-0.824,1.453-2.085,1.453
		c-1.091,0-2.736-0.529-6.058-1.631c-5.667-1.879-15.152-5.023-25.205-5.517c-6.655-0.33-12.943,0.929-18.163,2.305
		c-0.168-0.908-0.376-1.987-0.612-3.193c4.758-1.236,10.56-2.413,16.651-2.413c0.757,0,1.517,0.018,2.283,0.056
		c10.495,0.516,20.243,3.748,26.067,5.678c1.609,0.534,3.258,1.08,4.256,1.328c2.359-9.636,2.778-18.187,3.221-27.22
		c0.209-4.267,0.425-8.678,0.849-13.424c1.304-14.599,2.955-47.951-0.258-57.858c-1.601-4.937-3.009-7.752-4.14-10.016
		c-0.59-1.181-1.118-2.24-1.574-3.378l0.025-0.01c-0.215,0.493-0.695,0.811-1.257,0.811c-0.437,0-1.283,0-6.336-4.913l0.001-0.001
		l-0.186,1.917h0.002c1.144,1.756,3.645,5.916,4.575,10.001c0.122,0.539-0.216,1.074-0.754,1.197
		c-0.074,0.017-0.149,0.025-0.223,0.025c-0.457,0-0.869-0.314-0.974-0.778c-0.744-3.271-2.653-6.702-3.837-8.617V110.896z
		 M93.334,103.128c1.719,1.734,3.625,3.565,5.058,4.844c-1.018-3.181-3.005-7.547-4.679-10.971L93.334,103.128z M54.201,91.502
		l26.691,23.017l3.857-11.57L59.351,84.513L54.201,91.502z M96.615,97.258c0.987,2.062,2.076,4.456,2.981,6.73
		C98.901,100.789,98.143,98.57,96.615,97.258z M90.801,115.975c-1.151,0-2.088-0.937-2.088-2.088c0-1.151,0.937-2.088,2.088-2.088
		c1.151,0,2.088,0.937,2.088,2.088C92.889,115.038,91.952,115.975,90.801,115.975z M90.801,113.298
		c-0.324,0-0.588,0.264-0.588,0.588c0,0.324,0.264,0.588,0.588,0.588c0.324,0,0.588-0.264,0.588-0.588
		C91.389,113.562,91.125,113.298,90.801,113.298z"/>
	<path id="Eyes" fill="#4C250F" d="M86.08,52.363c0.445,0.502,0.716,1.162,0.716,1.885c0,1.572-1.273,2.843-2.843,2.843
		c-1.57,0-2.844-1.271-2.844-2.843c0-0.438,0.099-0.853,0.276-1.224c-1.147,0.573-1.948,1.423-2.118,2.387
		c-0.074,0.417-0.437,0.711-0.846,0.711c-0.049,0-0.1-0.004-0.15-0.013c-0.468-0.083-0.78-0.528-0.698-0.996
		c0.458-2.604,3.562-4.568,7.218-4.568c3.291,0,6.18,1.589,7.024,3.864c0.166,0.445-0.062,0.94-0.507,1.105
		c-0.445,0.163-0.941-0.062-1.105-0.507c-0.488-1.314-2.128-2.33-4.121-2.643L86.08,52.363z M105.629,52.83
		c1.576,0.437,2.762,1.55,2.963,2.922c0.062,0.428,0.43,0.736,0.85,0.736c0.041,0,0.084-0.003,0.127-0.009
		c0.47-0.069,0.795-0.506,0.726-0.976c-0.383-2.618-3.028-4.592-6.153-4.592c-2.82,0-5.286,1.607-5.997,3.91
		c-0.14,0.454,0.115,0.935,0.568,1.075c0.456,0.141,0.937-0.114,1.076-0.568c0.277-0.898,0.971-1.644,1.896-2.121
		c-0.197,0.415-0.31,0.895-0.31,1.407c0,1.571,1.061,2.843,2.365,2.843c1.307,0,2.366-1.272,2.366-2.843
		c0-0.693-0.207-1.328-0.549-1.821L105.629,52.83z"/>
	<path id="EyeBrows" fill="#60361A" d="M75.153,49.979c-0.676-2.228,1.126-4.146,4.544-5.608c3.419-1.463,10.3-0.175,10.756,1.039
		c0.456,1.215-0.108,1.536-1.36,1.908c-1.252,0.373-4.378-2.243-9.625-0.437C74.584,48.563,76.01,50.45,75.153,49.979z
		 M112.227,50.303c0.625-2.229-0.832-4.129-3.643-5.565c-2.812-1.437-8.583-0.1-8.996,1.115c-0.412,1.216,0.051,1.533,1.085,1.896
		c1.033,0.363,3.708-2.271,8.036-0.506C112.738,48.884,111.5,50.779,112.227,50.303z"/>
	<path id="Hair" fill="#60361A" d="M112.652,15.288c-4.229,3.861-38.699-5.164-47.843,2.474
		c-14.826,12.383-13.92,27.068-11.475,36c0.509-4.335,3.44-7.674,6.98-7.674c1.945,0,3.765,1.013,5.08,2.746
		c0.777-0.457,1.603-0.857,2.487-1.171c2.202-1.127-3.607-8.085,3.79-14.469c5.491-4.739,14.038-6.56,22.126-0.861
		c8.42-6.947,18.073,0.504,18.073,0.504S110.631,20.619,112.652,15.288z"/>
	<path id="HairBorder" fill="#3D1D0C" d="M113.566,13.944c-0.623-0.422-1.452-0.364-2.01,0.144c-0.064,0.06-0.74,0.583-4.297,0.583
		c-2.998,0-7.059-0.358-11.357-0.738c-5.188-0.458-11.067-0.978-16.358-0.978c-7.857,0-12.871,1.131-15.778,3.56
		c-19.6,16.371-13.003,37.013-9.258,45.128c0.162,0.352,0.446,0.61,0.78,0.771c-1.264-2.317-2.042-5.093-2.042-7.315
		c0-1.672,0.365-3.233,0.99-4.576c-1.869-9.341-0.672-21.252,11.613-31.513c2.228-1.861,6.835-2.804,13.695-2.804
		c5.147,0,10.952,0.513,16.072,0.965c6.056,0.535,11.624,0.989,14.744,0.586c-0.649,3.9-0.53,8.875-0.35,12.065
		c-2.006-1.006-4.906-2.076-8.161-2.076c-2.952,0-5.678,0.871-8.118,2.591c-3.331-2.108-6.865-3.176-10.522-3.176
		c-4.539,0-9.015,1.706-12.603,4.803c-5.537,4.779-4.564,10.117-4.041,12.985c0.082,0.45,0.187,1.022,0.216,1.392
		c-0.896,0.357-1.732,0.794-2.521,1.279c0.746,0.637,1.402,1.451,1.917,2.428c0.031,0.059,0.05,0.121,0.073,0.182
		c0.685-0.4,1.401-0.76,2.173-1.035c0.067-0.024,0.132-0.052,0.195-0.084c1.838-0.94,1.469-2.961,1.145-4.744
		c-0.519-2.841-1.163-6.377,2.967-9.942c2.998-2.588,6.72-4.013,10.479-4.013c3.341,0,6.587,1.093,9.648,3.25
		c0.598,0.42,1.404,0.392,1.97-0.075c2.083-1.719,4.446-2.591,7.021-2.591c4.878,0,8.986,3.099,9.024,3.128
		c0.517,0.397,1.217,0.45,1.782,0.134c0.566-0.315,0.894-0.938,0.828-1.584c-0.334-3.292-0.861-12.729,0.687-16.808
		C114.439,15.161,114.188,14.367,113.566,13.944z"/>
</g>
</svg>
