<?xml version="1.0" encoding="utf-8"?>
<!-- Generator: Adobe Illustrator 16.0.0, SVG Export Plug-In . SVG Version: 6.00 Build 0)  -->
<!DOCTYPE svg PUBLIC "-//W3C//DTD SVG 1.1//EN" "http://www.w3.org/Graphics/SVG/1.1/DTD/svg11.dtd">
<svg version="1.1" id="Layer_1" xmlns="http://www.w3.org/2000/svg" xmlns:xlink="http://www.w3.org/1999/xlink" x="0px" y="0px"
	 width="196px" height="109px" viewBox="0 0 196 109" enable-background="new 0 0 196 109" xml:space="preserve">
<g id="Fish1.svg">
	<path id="Fininner" fill="#73FF8D" d="M159.75,74.25C163,94.25,115.25,96,106,92c18.75-0.25,14.5-10.5,14.5-10.5
		S159,70.75,159.75,74.25z M72,64.5c0,0,5.5,3-9,15c10.5,3.5,19-0.5,48-1C112,74.5,72,64.5,72,64.5z M153.5,26.5
		c1-3.5-17.5-11-35-9.5s-39,8.5-44.5,9.5S53.5,28,53.5,28s3,14,10,15C68,44,152.5,30,153.5,26.5z"/>
	<path id="FinBorder" fill="#1DB54B" d="M120.088,95.236c-6.501,0-11.99-0.695-14.684-1.859l-6.436-2.783l7.012-0.094
		c8.327-0.111,11.478-2.229,12.653-3.985c1.392-2.079,0.515-4.354,0.477-4.45l-0.615-1.55l1.602-0.459
		c1.171-0.327,28.771-8.007,37.328-8.007c0.927,0,3.388,0,3.792,1.887c0.626,3.844-0.334,7.249-2.841,10.195
		C151.404,92.328,133.393,95.236,120.088,95.236z M115.543,92.112c1.432,0.081,2.958,0.124,4.545,0.124
		c13.666,0,30.099-3.107,36.003-10.049c1.801-2.117,2.543-4.441,2.261-7.088c-0.198-0.027-0.496-0.051-0.927-0.051
		c-7.096,0-29.298,5.924-35.116,7.51c0.217,1.408,0.198,3.529-1.149,5.575C120.006,89.887,118.127,91.215,115.543,92.112z
		 M72.479,82.422c0,0-0.001,0-0.001,0c-3.772,0-6.842-0.462-9.951-1.499l-2.565-0.854l2.083-1.724
		c8.663-7.169,9.515-10.609,9.479-11.756c-0.018-0.585-0.279-0.791-0.309-0.813l1.15-2.731c0.101,0.025,10.15,2.543,19.947,5.52
		c19.5,5.925,20.656,8.252,20.144,10.3l-0.279,1.115L111.025,80c-11.972,0.206-20.303,1-26.997,1.638
		C79.425,82.075,75.79,82.422,72.479,82.422z M66.119,78.804c1.954,0.423,4.001,0.618,6.358,0.618c0,0,0.001,0,0.001,0
		c3.168,0,6.742-0.34,11.266-0.771c6.025-0.573,13.367-1.272,23.48-1.564c-5.51-2.684-19.439-6.978-32.702-10.397
		C74.5,69.796,71.678,73.862,66.119,78.804z M64.241,44.551C64.24,44.551,64.24,44.551,64.241,44.551
		c-0.431,0-0.744-0.022-1.001-0.073c-7.774-1.165-10.877-14.629-11.207-16.164l-0.375-1.754l1.792-0.06
		c0.149-0.005,14.953-0.508,20.281-1.477c1.471-0.268,4.247-1.012,7.762-1.955c9.604-2.577,24.118-6.47,36.879-7.564
		c1.558-0.133,3.178-0.201,4.813-0.201c13.723,0,27.995,4.811,31.117,8.95c0.839,1.111,0.811,2.059,0.64,2.658
		c-0.346,1.21-0.924,3.234-42.626,10.608C92.772,40.976,69.447,44.551,64.241,44.551z M55.405,29.43
		c1.203,4.271,4.083,11.482,8.307,12.085l0.113,0.021c0.084,0.014,0.229,0.015,0.415,0.015c9.669,0,79.792-11.946,87.58-15.643
		c-1.86-2.241-14.044-7.604-28.635-7.604c-1.551,0-3.084,0.064-4.558,0.19c-12.496,1.071-26.855,4.923-36.357,7.472
		c-3.582,0.961-6.41,1.72-8.002,2.009C69.831,28.783,59.622,29.261,55.405,29.43z"/>
	<path id="Body_2_" fill="#BBFF39" d="M128.482,21.963C100,24.5,68.3,42.238,59.15,43.119C50,44,33.35,22.581,12.5,12
		C38.5,49,39,64,14,96c26.781-15.521,38.227-32.461,47.613-33.48c9.386-1.019,46.434,20.804,66.87,20.804
		C159.088,83.32,183,59.5,183,49.5S156.967,19.426,128.482,21.963z"/>
	<path id="BodyBorder" fill="#57BA00" d="M6.062,102.912l6.362-8.144c24.432-31.272,24.169-45.003-1.56-81.619L6.251,6.586
		l7.154,3.63c10.031,5.091,18.896,12.463,26.719,18.968c7.954,6.614,14.778,12.336,18.834,11.944
		c2.999-0.289,9.408-2.866,16.831-5.85c14.334-5.763,33.966-13.656,52.516-15.308c1.695-0.151,3.43-0.228,5.154-0.228
		C160.036,19.743,185,38.307,185,49.5c0,6.025-6.67,14.976-16.598,22.272c-6.885,5.06-21.226,13.549-39.92,13.551
		c-12.002,0-28.758-6.951-43.541-13.083c-9.613-3.988-18.694-7.755-22.645-7.755c-0.166,0-0.322,0.007-0.469,0.022
		c-4.022,0.437-9.018,4.702-15.931,10.604c-7.252,6.191-17.184,14.672-30.895,22.618L6.062,102.912z M165.534,65.426
		c-0.078,0-0.157-0.009-0.235-0.028c-7.729-1.866-12.76-8.599-11.212-15.006c0.13-0.538,0.678-0.865,1.206-0.737
		c0.537,0.13,0.867,0.67,0.737,1.207c-1.288,5.335,3.08,10.985,9.737,12.593c0.537,0.129,0.867,0.67,0.737,1.206
		C166.395,65.118,165.985,65.426,165.534,65.426z M180.898,50.584c0.067-0.38,0.102-0.743,0.102-1.084
		c0-8.262-22.493-25.757-47.541-25.757c-1.606,0-3.222,0.071-4.799,0.212c-17.962,1.6-37.276,9.365-51.38,15.035
		c-8.34,3.353-14.367,5.775-17.938,6.12c-5.605,0.54-12.72-5.32-21.775-12.851c-5.617-4.67-11.782-9.797-18.469-14.127
		c19.4,29.518,20.196,45.498,2.772,70.604c8.861-5.934,15.682-11.758,21.43-16.665c7.458-6.368,12.848-10.969,18.097-11.539
		c4.483-0.483,13.495,3.209,25.078,8.014c13.723,5.693,30.802,12.778,42.008,12.778c26.376-0.003,47.914-18.611,51.868-28.834
		l-0.094-0.026c-0.299-0.11-2.953-1.008-4.089,1.586c-0.164,0.375-0.531,0.599-0.917,0.6c-0.134,0-0.27-0.027-0.399-0.084
		c-0.506-0.221-0.737-0.811-0.516-1.317C175.874,49.729,179.277,49.964,180.898,50.584z"/>
	<circle id="Eye" fill="#F1FFD7" stroke="#57BA00" stroke-miterlimit="10" cx="166.5" cy="43.5" r="5"/>
	<circle id="Pupil" fill="#231F20" cx="166.5" cy="43.5" r="3.188"/>
	<path id="Fin" fill="#73FF8D" stroke="#1DB54B" stroke-width="3" stroke-miterlimit="10" d="M130.218,52.432
		c-11.286,0.898-26.258,4.095-25.94,8.083c0.316,3.985,15.965,9.262,27.25,8.363c14.5-1.154,15.58-4.154,15.314-9.243
		C146.576,54.55,145.907,51.519,130.218,52.432z"/>
	<path id="Lines_on_Fish" fill="#1DB54B" d="M121.715,64.57c-0.261,0-0.48-0.202-0.498-0.467c-0.019-0.275,0.19-0.514,0.466-0.532
		l18.97-1.274c0.253-0.017,0.514,0.189,0.532,0.466c0.019,0.275-0.19,0.514-0.466,0.532l-18.97,1.274
		C121.738,64.57,121.727,64.57,121.715,64.57z M112.09,60.891c-0.271,0-0.493-0.216-0.5-0.488c-0.007-0.276,0.212-0.505,0.488-0.512
		l30.152-0.709c0.293,0.018,0.505,0.212,0.512,0.488s-0.212,0.505-0.488,0.512l-30.152,0.709
		C112.098,60.891,112.094,60.891,112.09,60.891z M140.686,57.494c-0.001,0-0.003,0-0.005,0l-16.139-0.143
		c-0.275-0.003-0.497-0.229-0.495-0.505c0.003-0.274,0.226-0.495,0.5-0.495c0.001,0,0.003,0,0.005,0l16.139,0.143
		c0.275,0.003,0.497,0.229,0.495,0.505C141.183,57.273,140.96,57.494,140.686,57.494z"/>
</g>
</svg>
