<svg xmlns="http://www.w3.org/2000/svg" xmlns:xlink="http://www.w3.org/1999/xlink" viewBox= "0 0 109 93" width="109px" height="93px"><g id="Fly.svg"><path id="Legs" fill="none" stroke="#231F20" stroke-width="3" stroke-linecap="round" stroke-miterlimit="10" d="M88.54499816894531,71.44300079345703L85.33699798583984,65.56199645996094M59.9630012512207,70.64800262451172L59.099998474121094,78.60700225830078L61.75199890136719,81.79100036621094M22.267000198364258,71.3239974975586L26.511999130249023,71.3239974975586L38.23899841308594,62.566001892089844"></path><path fill="#F4F4F4" stroke="#777777" stroke-width="2.2293" stroke-miterlimit="10" d="M61.27299880981445,14.28600025177002C50.22600173950195,12.083000183105469,20.648000717163086,12.54699993133545,19.107999801635742,20.253999710083008C18.658000946044922,22.509000778198242,20.731000900268555,25.030000686645508,24.149999618530273,27.52400016784668C35.012001037597656,23.183000564575195,50.51900100708008,19.76300048828125,57.36800003051758,19.091999053955078C68.5780029296875,17.996000289916992,77.8479995727539,19.010000228881836,78.61799621582031,26.832000732421875C78.74500274658203,28.134000778198242,78.6240005493164,29.54199981689453,78.29000091552734,30.990999221801758C79.17900085449219,29.555999755859375,79.79399871826172,28.082000732421875,80.08000183105469,26.64699935913086C81.625,18.937999725341797,72.3219985961914,16.48900032043457,61.27299880981445,14.28600025177002z"></path><path id="Body" fill="#3C5166" d="M95.5,56.39099884033203L91.15699768066406,53.81700134277344C91.15699768066406,53.819000244140625,91.15699768066406,53.819000244140625,91.15699768066406,53.819000244140625L91.15699768066406,53.81700134277344L91.15699768066406,53.81700134277344C91.46499633789062,52.11899948120117,91.61799621582031,50.26599884033203,91.61799621582031,48.2599983215332C91.61799621582031,32.71699905395508,82.41799926757812,20.11400032043457,63.215999603271484,20.11400032043457C44.01300048828125,20.11400032043457,27,27.124000549316406,27,42.66699981689453C27,58.2140007019043,44.01300048828125,70.00199890136719,63.215999603271484,70.00299835205078C77.72100067138672,70.00299835205078,86.51599884033203,66.46800231933594,89.9540023803711,58.03900146484375C89.9540023803711,58.03799819946289,93.33599853515625,60.04199981689453,93.33599853515625,60.04199981689453C93.67500305175781,60.24300003051758,94.0469970703125,60.3390007019043,94.41500091552734,60.3390007019043C95.13899993896484,60.3390007019043,95.8479995727539,59.96799850463867,96.24299621582031,59.29800033569336C96.84200286865234,58.290000915527344,96.50800323486328,56.987998962402344,95.5,56.39099884033203z"></path><path id="BodyBorder" fill="#231F20" d="M98.5250015258789,57.165000915527344C98.24400329589844,56.06800079345703,97.54900360107422,55.145999908447266,96.58000183105469,54.56800079345703L93.46600341796875,52.7239990234375C93.6449966430664,51.31999969482422,93.73699951171875,49.82400131225586,93.73699951171875,48.255001068115234C93.73699951171875,39.65599822998047,91.125,32.27799987792969,86.17500305175781,26.917999267578125C80.78600311279297,21.07900047302246,72.8499984741211,17.993000030517578,63.21699905395508,17.993000030517578C52.71799850463867,17.993000030517578,43.611000061035156,19.9689998626709,36.880001068115234,23.707000732421875C29.031999588012695,28.065000534057617,24.884000778198242,34.62099838256836,24.884000778198242,42.66299819946289C24.884000778198242,58.90299987792969,42.08000183105469,72.11499786376953,63.21699905395508,72.11499786376953C77.75700378417969,72.11499786376953,86.62799835205078,68.5790023803711,90.86199951171875,61.03099822998047L92.25800323486328,61.85599899291992C92.91000366210938,62.24700164794922,93.65699768066406,62.45199966430664,94.41600036621094,62.45199966430664C95.90799713134766,62.45199966430664,97.30899810791016,61.654998779296875,98.06400299072266,60.37200164794922C98.64099884033203,59.404998779296875,98.80500030517578,58.263999938964844,98.5250015258789,57.165000915527344zM96.24299621582031,59.29800033569336C95.84700012207031,59.96799850463867,95.13899993896484,60.3390007019043,94.41500091552734,60.3390007019043C94.0469970703125,60.3390007019043,93.67500305175781,60.24300003051758,93.33599853515625,60.04199981689453C93.33599853515625,60.04199981689453,89.9540023803711,58.03799819946289,89.9540023803711,58.03900146484375C86.51599884033203,66.46800231933594,77.72100067138672,70.00299835205078,63.215999603271484,70.00299835205078C44.01300048828125,70.00199890136719,27,58.2140007019043,27,42.66699981689453C27,27.124000549316406,44.01300048828125,20.11400032043457,63.215999603271484,20.11400032043457C82.41799926757812,20.11400032043457,91.61799621582031,32.71699905395508,91.61799621582031,48.2599983215332C91.61799621582031,50.26599884033203,91.46499633789062,52.1150016784668,91.15699768066406,53.81700134277344L95.5,56.39099884033203C96.50800323486328,56.987998962402344,96.84200286865234,58.290000915527344,96.24299621582031,59.29800033569336z"></path><path id="Eye" fill="#D8583F" stroke="#721E0D" stroke-width="2.5533" stroke-miterlimit="10" d="M92.06400299072266,46.71900177001953C88.28099822998047,48.02199935913086,83.94499969482422,45.39400100708008,82.38099670410156,40.85100173950195C81.60299682617188,38.5880012512207,81.65799713134766,36.2760009765625,82.37899780273438,34.3650016784668C83.1050033569336,32.439998626708984,84.50399780273438,30.92099952697754,86.4010009765625,30.267000198364258C90.18599700927734,28.96500015258789,94.5199966430664,31.591999053955078,96.08499908447266,36.1349983215332S95.8499984741211,45.41699981689453,92.06400299072266,46.71900177001953z"></path><path fill="#F4F4F4" stroke="#777777" stroke-width="2.2293" stroke-miterlimit="10" d="M60.14500045776367,47.417999267578125C48.9370002746582,48.513999938964844,13.263999938964844,44.29199981689453,12.49899959564209,36.470001220703125C11.732999801635742,28.64900016784668,46.165000915527344,20.190000534057617,57.375999450683594,19.093000411987305C68.58599853515625,17.996999740600586,77.85600280761719,19.01099967956543,78.6259994506836,26.83300018310547C79.38899993896484,34.65299987792969,71.35399627685547,46.31999969482422,60.14500045776367,47.417999267578125z"></path><path id="Lines" fill="#BABABA" d="M32.57400131225586,36.387001037597656C32.380001068115234,36.387001037597656,32.183998107910156,36.32099914550781,32.02399826049805,36.185001373291016C31.666000366210938,35.88100051879883,31.621000289916992,35.345001220703125,31.924999237060547,34.986000061035156L33.66400146484375,32.933998107910156C31.582000732421875,33.564998626708984,29.41900062561035,34.257999420166016,27.173999786376953,35.01900100708008C26.72800064086914,35.167999267578125,26.246000289916992,34.930999755859375,26.094999313354492,34.486000061035156C25.94499969482422,34.04100036621094,26.183000564575195,33.55799865722656,26.628000259399414,33.40700149536133C37.72100067138672,29.649999618530273,46.808998107910156,27.506999969482422,54.07099914550781,26.336999893188477L50.694000244140625,25.097000122070312C50.25299835205078,24.934999465942383,50.027000427246094,24.445999145507812,50.18899917602539,24.0049991607666C50.35100173950195,23.56399917602539,50.84000015258789,23.33799934387207,51.28099822998047,23.5L57.61000061035156,25.823999404907227C70.82099914550781,24.1200008392334,77.09200286865234,25.617000579833984,77.3280029296875,25.95400047302246C77.73500061035156,26.54800033569336,77.68199920654297,27.145000457763672,77.5510025024414,27.594999313354492C77.41799926757812,28.045000076293945,77.25399780273438,27.56399917602539,76.84400177001953,27.584999084472656C76.79000091552734,27.58799934387207,74.88200378417969,27.04199981689453,70.927001953125,26.87299919128418L61.540000915527344,36.143001556396484C61.20500183105469,36.472999572753906,60.667999267578125,36.470001220703125,60.33700180053711,36.13600158691406C60.00699996948242,35.801998138427734,60.0099983215332,35.262001037597656,60.345001220703125,34.93199920654297L68.55799865722656,26.822999954223633C65.84200286865234,26.823999404907227,62.34000015258789,26.990999221801758,58.12799835205078,27.514999389648438C57.94200134277344,27.617000579833984,57.72800064086914,27.649999618530273,57.50899887084961,27.5939998626709C55.35100173950195,27.875999450683594,52.999000549316406,28.249000549316406,50.45199966430664,28.73699951171875L44.58100128173828,35.888999938964844C44.28300094604492,36.250999450683594,43.74599838256836,36.30500030517578,43.382999420166016,36.00699996948242C43.02000045776367,35.70899963378906,42.96699905395508,35.17300033569336,43.26499938964844,34.808998107910156L47.8129997253418,29.26799964904785C44.409000396728516,29.988000869750977,40.689998626708984,30.902000427246094,36.63999938964844,32.060001373291016L33.22600173950195,36.0880012512207C33.05500030517578,36.28499984741211,32.814998626708984,36.387001037597656,32.57400131225586,36.387001037597656z"></path></g></svg>