<svg xmlns="http://www.w3.org/2000/svg" xmlns:xlink="http://www.w3.org/1999/xlink" viewBox= "0 0 195 166" width="195px" height="166px"><g id="Frog.svg"><path id="Frog" fill="#28B219" d="M181.75,112.66699981689453C182.01600646972656,108.95999908447266,176.697998046875,107.92500305175781,169.281005859375,107.39600372314453C161.86300659179688,106.86699676513672,154,104.91699981689453,154,104.91699981689453L146.0659942626953,102.23799896240234L146.052001953125,101.85299682617188C145.96299743652344,99.9000015258789,145.7729949951172,98.08699798583984,145.4409942626953,96.57499694824219L143.01699829101562,89.08000183105469C151.1580047607422,79.96299743652344,161.30999755859375,67.68199920654297,156.49899291992188,64.41699981689453C150.74200439453125,60.5099983215332,139.80999755859375,64.7229995727539,132.7689971923828,69.81800079345703L132.33399963378906,69.90899658203125C131.5240020751953,68.0989990234375,130.41799926757812,66.36799621582031,128.93699645996094,64.78900146484375C145.16600036621094,53.500999450683594,147.29299926757812,45.560001373291016,137.16900634765625,42.87099838256836C140.64999389648438,40.016998291015625,143.60699462890625,36.2760009765625,143.60699462890625,29.96500015258789C143.60699462890625,21.524999618530273,141.4810028076172,14.592000007629395,133.74899291992188,13.090999603271484C123.72899627685547,11.26200008392334,119.40299987792969,21.297000885009766,117.11299896240234,22.933000564575195C114.822998046875,24.56800079345703,90.81999969482422,26.496000289916992,88.8219985961914,21.624000549316406C87.24199676513672,17.731000900268555,81.39099884033203,12.42300033569336,75.2490005493164,12.418000221252441C69.00299835205078,12.418000221252441,60.749000549316406,18.340999603271484,60.749000549316406,28.917999267578125C60.62900161743164,33.965999603271484,62.66600036621094,40.500999450683594,66.13400268554688,44.12799835205078C66.13400268554688,44.12799835205078,63.66999816894531,45.66600036621094,62.85600280761719,49.17499923706055C62.04100036621094,52.685001373291016,61.53200149536133,56.5369987487793,64.28199768066406,62.650001525878906C64.28199768066406,62.650001525878906,61.744998931884766,66.1510009765625,59.75600051879883,72.26000213623047L58.91999816894531,72.80400085449219C50.268001556396484,67.11399841308594,31.035999298095703,56.04399871826172,26.878000259399414,62.5C22.32699966430664,69.56500244140625,29.90999984741211,77.625,35.4109992980957,81.90399932861328C40.91299819946289,86.18399810791016,55.88999938964844,98.10399627685547,46.415000915527344,101.15899658203125C36.939998626708984,104.21399688720703,31.743000030517578,108.49299621582031,24.409000396728516,109.71600341796875C17.072999954223633,110.94000244140625,11.878000259399414,112.46800231933594,12.48900032043457,116.13600158691406C13.100000381469727,119.802001953125,23.492000579833984,117.66300201416016,23.492000579833984,117.66300201416016C23.492000579833984,117.66300201416016,10.350000381469727,126.22000122070312,18.29599952697754,128.97300720214844C26.243000030517578,131.72300720214844,33.88399887084961,116.74700164794922,33.88399887084961,116.74700164794922C33.88399887084961,116.74700164794922,32.965999603271484,127.4429931640625,38.77399826049805,127.13900756835938C44.582000732421875,126.83300018310547,41.83100128173828,116.13600158691406,41.83100128173828,116.13600158691406C41.83100128173828,116.13600158691406,51.91699981689453,123.16500091552734,54.972999572753906,118.58100128173828C58.029998779296875,113.99500274658203,45.80500030517578,109.71600341796875,45.80500030517578,109.71600341796875L52.96900177001953,106.96600341796875L52.97600173950195,106.99400329589844C55.321998596191406,114.7699966430664,58.9010009765625,123.99500274658203,58.9010009765625,123.99500274658203C59.055999755859375,126.48200225830078,39.143001556396484,127.47099304199219,40.99300003051758,134.4969940185547C42.75199890136719,141.1840057373047,55.70399856567383,132.91200256347656,56.96900177001953,132.08599853515625C57.034000396728516,132.04299926757812,57.07699966430664,132.01600646972656,57.07699966430664,132.01600646972656C57.07699966430664,132.01600646972656,57.03300094604492,132.04400634765625,56.96900177001953,132.08599853515625C55.43199920654297,133.09800720214844,36.388999938964844,145.85699462890625,45.7400016784668,150.71200561523438C55.47999954223633,155.76800537109375,60.4739990234375,136.5959930419922,60.4739990234375,136.5959930419922C60.4739990234375,136.5959930419922,58.68600082397461,152.25399780273438,68.11799621582031,149.97300720214844C77.55000305175781,147.69000244140625,69.5979995727539,134.6219940185547,69.5979995727539,134.6219940185547C69.5979995727539,134.6219940185547,78.66000366210938,146.08700561523438,83.83799743652344,139.92300415039062C89.01599884033203,133.75900268554688,72.18499755859375,125.74500274658203,72.18499755859375,125.74500274658203C72.18499755859375,125.74500274658203,66.06099700927734,112.63899993896484,62.342002868652344,103.54499816894531L61.30400085449219,99.22599792480469C65.88899993896484,105.9010009765625,75.11599731445312,111.78399658203125,91.9540023803711,112.16200256347656C110.33799743652344,112.16200256347656,120.11499786376953,108.71199798583984,125.73999786376953,103.38899993896484C125.9280014038086,103.21099853515625,134.24000549316406,105.87699890136719,134.24000549316406,105.87699890136719L133.52000427246094,121.69400024414062C132.72500610351562,129.41700744628906,116.16600036621094,130.77999877929688,119.9990005493164,137.61399841308594C123.83200073242188,144.447998046875,132.49899291992188,136.947998046875,132.49899291992188,136.947998046875C132.49899291992188,136.947998046875,128.33299255371094,150.11399841308594,137.49899291992188,151.11399841308594C146.6649932861328,152.11399841308594,142.16600036621094,139.11399841308594,142.16600036621094,139.11399841308594C142.16600036621094,139.11399841308594,158.83299255371094,151.447998046875,162.66600036621094,144.447998046875C166.49899291992188,137.447998046875,147.83299255371094,132.7779998779297,147.83299255371094,132.7779998779297C147.83299255371094,132.7779998779297,164.16600036621094,135.2779998779297,162.66600036621094,128.9459991455078C162.26300048828125,127.24400329589844,160.82400512695312,126.23999786376953,158.92599487304688,125.60700225830078L158.53900146484375,125.48899841308594C161.94200134277344,123.21800231933594,160.5070037841797,115.28299713134766,160.5070037841797,115.28299713134766C160.5070037841797,115.28299713134766,169.5189971923828,129.47500610351562,177.1699981689453,125.99199676513672C184.82400512695312,122.51000213623047,170.93899536132812,115.22100067138672,170.93899536132812,115.22100067138672S181.48399353027344,116.3759994506836,181.75,112.66699981689453zM152.98599243164062,124.5510025024414C148.91900634765625,124.14399719238281,145.0760040283203,123.96900177001953,144.83399963378906,122.11199951171875C144.83399963378906,122.11199951171875,144.9510040283203,121.28099822998047,145.11300659179688,119.89600372314453L145.1179962158203,119.85800170898438C148.76400756835938,118.61000061035156,152.53799438476562,115.41799926757812,152.53799438476562,115.41799926757812C152.53799438476562,115.41799926757812,151.54299926757812,121.68900299072266,153.5959930419922,124.61699676513672L152.98599243164062,124.5510025024414zM146.0229949951172,108.86399841308594L147.97999572753906,109.4000015258789C147.97999572753906,109.4000015258789,147.125,109.7959976196289,145.94500732421875,110.4520034790039L146.0229949951172,108.86399841308594z"></path><path id="Belly_1_" fill="#FFE6B3" d="M100.0009994506836,65.5C85.36499786376953,65.5,73.5009994506836,78.16400146484375,73.5009994506836,93.78199768066406C73.5009994506836,99.46199798583984,75.08799743652344,104.73600006103516,77.78900146484375,109.16699981689453C81.68499755859375,110.2959976196289,86.34600067138672,111.03399658203125,91.96700286865234,111.16100311279297C109.25199890136719,111.15899658203125,119.5999984741211,106.93199920654297,125.29499816894531,102.19300079345703C126.07200622558594,99.53600311279297,126.50199890136719,96.71399688720703,126.50199890136719,93.78199768066406C126.50199890136719,78.16400146484375,114.63700103759766,65.5,100.0009994506836,65.5z"></path><path id="FrogBorder" fill="#137F00" d="M55.775001525878906,119.9280014038086C55.777000427246094,119.93399810791016,55.779998779296875,119.94200134277344,55.78200149536133,119.9489974975586C55.0620002746582,120.75599670410156,54.11199951171875,121.3030014038086,52.972999572753906,121.5199966430664C50.08300018310547,122.06099700927734,46.404998779296875,120.50399780273438,43.87200164794922,119.13300323486328C44.12200164794922,121.54100036621094,44.06999969482422,124.6719970703125,42.60200119018555,126.6709976196289C41.71900177001953,127.87300109863281,40.42300033569336,128.55299377441406,38.85300064086914,128.63499450683594C37.28200149536133,128.72300720214844,35.88600158691406,128.1840057373047,34.82600021362305,127.08700561523438C33.52000045776367,125.73600006103516,32.87900161743164,123.69999694824219,32.57600021362305,121.7750015258789C29.868000030517578,125.68499755859375,25.351999282836914,130.80799865722656,20.283000946044922,130.80799865722656C19.469999313354492,130.80799865722656,18.643999099731445,130.67599487304688,17.80699920654297,130.38800048828125C15.139999389648438,129.46299743652344,14.413000106811523,127.90800476074219,14.27400016784668,126.76300048828125C13.984000205993652,124.4000015258789,16.091999053955078,121.8030014038086,18.299999237060547,119.78199768066406C16.145000457763672,119.84300231933594,13.897000312805176,119.60700225830078,12.50100040435791,118.6500015258789C11.680000305175781,118.08699798583984,11.164999961853027,117.3010025024414,11.01200008392334,116.37999725341797C10.732999801635742,114.7040023803711,11.170000076293945,112.35099792480469,14.839000701904297,110.64600372314453C16.858999252319336,109.70800018310547,19.648000717163086,108.98799896240234,24.165000915527344,108.23400115966797C28.034000396728516,107.58799743652344,31.316001892089844,106.02899932861328,35.117000579833984,104.2239990234375C38.180999755859375,102.76699829101562,41.65399932861328,101.11900329589844,45.957000732421875,99.7300033569336C47.78499984741211,99.13999938964844,47.917999267578125,98.37899780273438,47.96200180053711,98.12899780273438C48.22700119018555,96.62899780273438,46.827999114990234,92.68099975585938,34.492000579833984,83.08499908447266C25.040000915527344,75.73300170898438,21.722000122070312,67.73300170898438,25.618000030517578,61.685001373291016C26.45599937438965,60.382999420166016,27.75200080871582,59.55099868774414,29.47100067138672,59.209999084472656C36.96200180053711,57.72600173950195,51.691001892089844,66.38800048828125,58.435001373291016,70.70500183105469C58.435001373291016,70.70500183105469,58.435001373291016,70.70500183105469,58.435001373291016,70.70600128173828L58.4370002746582,70.70800018310547C58.63399887084961,70.39399719238281,58.83100128173828,70.08200073242188,59.03099822998047,69.78399658203125L59.03099822998047,69.78399658203125L59.02899932861328,69.78500366210938C60.388999938964844,66.16699981689453,61.840999603271484,63.65699768066406,62.58100128173828,62.494998931884766C60.00199890136719,56.3380012512207,60.61000061035156,52.222999572753906,61.395999908447266,48.83399963378906C61.933998107910156,46.516998291015625,63.0989990234375,44.92399978637695,64.0250015258789,43.96799850463867C61.04600143432617,40.119998931884766,59.125,34.16600036621094,59.250999450683594,28.881000518798828C59.250999450683594,17.172000885009766,68.54299926757812,10.916999816894531,75.2509994506836,10.916999816894531C82.23699951171875,10.92199993133545,88.53199768066406,16.91699981689453,90.21299743652344,21.059999465942383C90.56800079345703,21.926000595092773,93.98899841308594,23.224000930786133,101.9489974975586,23.224000930786133C109.0989990234375,23.224000930786133,115.37000274658203,22.22100067138672,116.26300048828125,21.69700050354004C116.58899688720703,21.464000701904297,117.24400329589844,20.61400032043457,117.87899780273438,19.792999267578125C120.31400299072266,16.64299964904785,124.38800048828125,11.369000434875488,131.37100219726562,11.369000434875488C132.2310028076172,11.369000434875488,133.1230010986328,11.45199966430664,134.01800537109375,11.614999771118164C141.48500061035156,13.0649995803833,145.1060028076172,19.06599998474121,145.1060028076172,29.96500015258789C145.1060028076172,35.9010009765625,142.58900451660156,39.72999954223633,140.05299377441406,42.2859992980957C143.36199951171875,43.755001068115234,144.44200134277344,45.827999114990234,144.72500610351562,47.446998596191406C145.53900146484375,52.07899856567383,140.97300720214844,58.00199890136719,131.14700317382812,65.06300354003906C131.43600463867188,65.42900085449219,131.7030029296875,65.8030014038086,131.95899963378906,66.18000030517578C131.91299438476562,66.12100219726562,131.86599731445312,66.05599975585938,131.82000732421875,65.99800109863281L131.8179931640625,65.99600219726562C132.25599670410156,66.55000305175781,132.69900512695312,67.14099884033203,133.14199829101562,67.75299835205078L133.14199829101562,67.75299835205078L133.1439971923828,67.75299835205078C140.35899353027344,62.941001892089844,151.0290069580078,58.891998291015625,157.33799743652344,63.17500305175781C158.39999389648438,63.89399719238281,159.04200744628906,64.97100067138672,159.19900512695312,66.28900146484375C159.8070068359375,71.37000274658203,153.1179962158203,79.93000030517578,144.74400329589844,89.38099670410156C144.7429962158203,89.37799835205078,144.74099731445312,89.375,144.74000549316406,89.37200164794922L144.73800659179688,89.37200164794922C145.70899963378906,91.89299774169922,146.46099853515625,94.2490005493164,146.8990020751953,96.25299835205078C147.21299743652344,97.68499755859375,147.40699768066406,99.36000061035156,147.50999450683594,101.15699768066406L147.51400756835938,101.15799713134766C147.51199340820312,101.15299987792969,147.51199340820312,101.14900207519531,147.51199340820312,101.14299774169922L154.41400146484375,103.4749984741211C155.14100646972656,103.6510009765625,162.51600646972656,105.40899658203125,169.38299560546875,105.89900207519531C173.9510040283203,106.2249984741211,176.79400634765625,106.68000030517578,178.89300537109375,107.42400360107422C182.70700073242188,108.7760009765625,183.36399841308594,111.0780029296875,183.24099731445312,112.77200317382812C183.1739959716797,113.70500183105469,182.73500061035156,114.53399658203125,181.97000122070312,115.1719970703125C180.66900634765625,116.25700378417969,178.44700622558594,116.697998046875,176.302001953125,116.84400177001953C178.6909942626953,118.64900207519531,181.03199768066406,121.03600311279297,180.96600341796875,123.41699981689453C180.93299865722656,124.56800079345703,180.35499572753906,126.18599700927734,177.78599548339844,127.35499572753906C176.74200439453125,127.83099365234375,175.68800354003906,128.04100036621094,174.64100646972656,128.04100036621094C169.843994140625,128.04100036621094,165.19200134277344,123.63300323486328,162.2760009765625,120.16500091552734C162.17300415039062,121.79000091552734,161.83799743652344,123.51200103759766,161.0469970703125,124.89099884033203L161.05099487304688,124.88899993896484L161.05099487304688,124.88899993896484C162.57200622558594,125.69200134277344,163.7100067138672,126.85600280761719,164.1230010986328,128.60000610351562C164.56199645996094,130.46099853515625,163.8699951171875,131.70399475097656,163.2100067138672,132.4199981689453C161.98599243164062,133.74600219726562,159.76400756835938,134.37899780273438,157.3560028076172,134.63699340820312C160.36000061035156,136.11599731445312,163.1840057373047,138.06700134277344,164.22900390625,140.45399475097656C164.90699768066406,142.00100708007812,164.82000732421875,143.6300048828125,163.97900390625,145.1649932861328C163.19000244140625,146.60499572753906,161.9010009765625,147.5590057373047,160.25,147.92100524902344C155.62899780273438,148.94000244140625,148.6540069580078,145.15899658203125,144.53799438476562,142.54200744628906C144.94400024414062,145.14300537109375,144.98300170898438,148.43800354003906,143.2740020751953,150.57899475097656C142.48699951171875,151.5659942626953,141.0290069580078,152.66400146484375,138.44000244140625,152.66400146484375C138.08999633789062,152.66400146484375,137.72300720214844,152.6439971923828,137.33299255371094,152.6020050048828C134.77200317382812,152.322998046875,132.83900451660156,151.20700073242188,131.58799743652344,149.2899932861328C129.86599731445312,146.64700317382812,129.8939971923828,143.0019989013672,130.25900268554688,140.2740020751953C128.3280029296875,141.33700561523438,125.79100036621094,142.3000030517578,123.38600158691406,141.87899780273438C121.41699981689453,141.53500366210938,119.79299926757812,140.31300354003906,118.68900299072266,138.3419952392578C115.94100189208984,133.44400024414062,120.90499877929688,130.60800170898438,124.89199829101562,128.3280029296875C128.2530059814453,126.40699768066406,131.72999572753906,124.4209976196289,132.02699279785156,121.53500366210938C132.02999877929688,121.44999694824219,132.39100646972656,113.86799621582031,132.69700622558594,106.82599639892578L132.6999969482422,106.76499938964844L125.90499877929688,104.90299987792969L125.90399932861328,104.90299987792969L125.90399932861328,104.90299987792969C120.06800079345703,109.41699981689453,109.83599853515625,113.65899658203125,91.9530029296875,113.65899658203125C91.94200134277344,113.65899658203125,91.93099975585938,113.65899658203125,91.91899871826172,113.65899658203125C79.16699981689453,113.37200164794922,70.37200164794922,109.9739990234375,64.66400146484375,105.21199798583984L64.66600036621094,105.21399688720703C67.0009994506836,110.77100372314453,70.18299865722656,117.89099884033203,73.3239974975586,124.62799835205078C75.79000091552734,125.85700225830078,85.02400207519531,130.78199768066406,86.19999694824219,136.197998046875C86.56600189208984,137.88600158691406,86.14700317382812,139.50599670410156,84.98899841308594,140.88600158691406C83.69300079345703,142.4290008544922,82.02100372314453,143.24000549316406,80.14800262451172,143.24000549316406C80.11599731445312,143.24000549316406,80.08399963378906,143.24000549316406,80.0510025024414,143.24000549316406C77.87000274658203,143.20700073242188,75.6729965209961,142.0959930419922,73.78199768066406,140.72300720214844C74.32599639892578,142.92799377441406,74.49299621582031,145.31900024414062,73.64900207519531,147.3520050048828C73.05500030517578,148.7830047607422,71.67400360107422,150.65199279785156,68.47200012207031,151.42599487304688C65.30799865722656,152.19000244140625,63.292999267578125,151.1580047607422,62.160003662109375,150.1580047607422C60.512001037597656,148.7010040283203,59.6510009765625,146.4199981689453,59.220001220703125,144.1269989013672C57.584999084472656,147.4510040283203,55.196998596191406,150.97500610351562,52.01599884033203,152.39100646972656C51.01100158691406,152.83799743652344,49.98699951171875,153.06100463867188,48.94900131225586,153.06100463867188C47.66600036621094,153.06100463867188,46.362998962402344,152.7209930419922,45.04999923706055,152.0399932861328C42.38100051879883,150.6540069580078,41.742000579833984,148.72900390625,41.67599868774414,147.35800170898438C41.53799819946289,144.47900390625,43.88999938964844,141.2169952392578,46.75199890136719,138.3459930419922C45.16999816894531,138.6540069580078,43.66699981689453,138.6739959716797,42.430999755859375,138.20599365234375C40.970001220703125,137.65199279785156,39.97200012207031,136.5,39.54399871826172,134.87399291992188C37.99300003051758,128.98199462890625,46.459999084472656,126.70800018310547,52.643001556396484,125.0469970703125C54.19599914550781,124.62999725341797,56.220001220703125,124.08699798583984,57.16999816894531,123.66200256347656C56.86399841308594,122.85700225830078,56.36899948120117,121.54499816894531,55.775001525878906,119.9280014038086L55.775001525878906,119.9280014038086zM51.141998291015625,106.06099700927734L51.141998291015625,106.06099700927734C50.58599853515625,104.13200378417969,50.12699890136719,102.33200073242188,49.83300018310547,100.81099700927734L49.83100128173828,100.80899810791016C49.83100128173828,100.81099700927734,49.832000732421875,100.81500244140625,49.832000732421875,100.81700134277344C49.21500015258789,101.49500274658203,48.2869987487793,102.12999725341797,46.875999450683594,102.58599853515625C42.76100158691406,103.91300201416016,39.52899932861328,105.4489974975586,36.40299987792969,106.93499755859375C32.564998626708984,108.75800323486328,28.940000534057617,110.48200225830078,24.6560001373291,111.19499969482422C21.843000411987305,111.66500091552734,18.32699966430664,112.33599853515625,16.10099983215332,113.37000274658203C13.732000350952148,114.47100067138672,13.892000198364258,115.43000030517578,13.968999862670898,115.89099884033203C13.977999687194824,115.947998046875,13.994000434875488,116.03900146484375,14.195999145507812,116.17900085449219C15.635000228881836,117.16600036621094,20.32200050354004,116.78299713134766,23.19099998474121,116.19599914550781C23.89900016784668,116.052001953125,24.604999542236328,116.427001953125,24.878999710083008,117.09400177001953C25.152999877929688,117.76000213623047,24.915000915527344,118.52799987792969,24.31100082397461,118.9209976196289C20.743000030517578,121.24800109863281,17.054000854492188,124.81099700927734,17.249000549316406,126.4020004272461C17.31800079345703,126.96399688720703,18.242000579833984,127.36700439453125,18.785999298095703,127.55400085449219C24.295000076293945,129.4499969482422,30.58700180053711,119.90599822998047,32.547000885009766,116.06600189208984C32.87300109863281,115.4260025024414,33.60300064086914,115.10700225830078,34.29399871826172,115.30599975585938C34.983001708984375,115.5009994506836,35.4379997253418,116.16000366210938,35.37699890136719,116.87300109863281C35.24700164794922,118.41899871826172,35.26300048828125,123.22899627685547,36.98099899291992,125.00199890136719C37.43899917602539,125.47599792480469,37.99100112915039,125.67400360107422,38.69300079345703,125.63999938964844C39.37099838256836,125.6050033569336,39.83000183105469,125.3740005493164,40.180999755859375,124.89600372314453C41.60200119018555,122.95899963378906,40.777000427246094,118.06999969482422,40.375999450683594,116.50900268554688C40.220001220703125,115.9020004272461,40.45800018310547,115.26100158691406,40.972999572753906,114.90399932861328C41.487998962402344,114.5469970703125,42.172000885009766,114.54900360107422,42.68600082397461,114.90399932861328C44.417999267578125,116.10900115966797,49.540000915527344,119.12300109863281,52.41400146484375,118.5719985961914C53.007999420166016,118.45899963378906,53.42399978637695,118.1969985961914,53.722999572753906,117.75C53.97100067138672,117.37799835205078,54.020999908447266,117.0719985961914,53.89500045776367,116.69499969482422C53.229000091552734,114.7040023803711,48.47200012207031,112.24299621582031,45.30699920654297,111.13200378417969C44.7130012512207,110.9229965209961,44.3129997253418,110.36599731445312,44.30400085449219,109.73600006103516C44.29499816894531,109.10700225830078,44.67900085449219,108.54100036621094,45.26599884033203,108.31400299072266L51.138999938964844,106.05999755859375L51.141998291015625,106.06099700927734zM154.47500610351562,123.20700073242188C155.718994140625,123.35299682617188,156.96800231933594,123.54900360107422,158.14500427246094,123.83999633789062L158.14500427246094,123.83999633789062L158.14700317382812,123.84200286865234C158.16200256347656,123.8239974975586,158.17799377441406,123.81300354003906,158.19400024414062,123.79399871826172C159.73699951171875,121.86699676513672,159.302001953125,117.07599639892578,159.0279998779297,115.55000305175781C158.9029998779297,114.84400177001953,159.29299926757812,114.14900207519531,159.96099853515625,113.88700103759766C160.62600708007812,113.6259994506836,161.38800048828125,113.8740005493164,161.7729949951172,114.47899627685547C164.08700561523438,118.11900329589844,171.2519989013672,127.03599548339844,176.5469970703125,124.62699890136719C177.072998046875,124.38899993896484,177.95399475097656,123.9020004272461,177.9720001220703,123.33599853515625C178.01699829101562,121.73200225830078,174.01100158691406,118.53299713134766,170.24099731445312,116.5510025024414C169.60299682617188,116.21600341796875,169.29400634765625,115.4749984741211,169.50399780273438,114.78500366210938C169.71400451660156,114.09500122070312,170.3820037841797,113.6500015258789,171.1020050048828,113.7300033569336C174.00900268554688,114.04499816894531,178.71299743652344,113.98999786376953,180.05499267578125,112.87000274658203C180.2429962158203,112.71199798583984,180.25,112.61799621582031,180.25399780273438,112.55999755859375C180.28799438476562,112.09400177001953,180.35800170898438,111.125,177.89500427246094,110.25199890136719C175.58200073242188,109.43299865722656,172.02000427246094,109.09400177001953,169.1750030517578,108.89199829101562C161.71400451660156,108.35900115966797,153.96499633789062,106.4540023803711,153.63900756835938,106.37200164794922C153.60000610351562,106.36199951171875,153.56100463867188,106.35099792480469,153.52200317382812,106.33699798583984L147.61700439453125,104.34300231933594L147.61399841308594,104.34200286865234L147.61399841308594,104.34200286865234C147.62100219726562,105.44300079345703,147.60400390625,106.56099700927734,147.57000732421875,107.6729965209961L147.572998046875,107.73200225830078L148.38099670410156,107.95500183105469C148.98899841308594,108.12100219726562,149.42799377441406,108.6500015258789,149.47999572753906,109.2770004272461C149.531005859375,109.90699768066406,149.18499755859375,110.5009994506836,148.61300659179688,110.76300048828125C148.22799682617188,110.94100189208984,147.82000732421875,111.14199829101562,147.40199279785156,111.36100006103516L147.3939971923828,111.4219970703125C147.2570037841797,113.62999725341797,147.072998046875,115.7030029296875,146.89599609375,117.43800354003906C146.8939971923828,117.43800354003906,146.8939971923828,117.43800354003906,146.8939971923828,117.43800354003906L146.90199279785156,117.43800354003906C148.85899353027344,116.38899993896484,150.69500732421875,115.01599884033203,151.57400512695312,114.27200317382812C152.05299377441406,113.86900329589844,152.73199462890625,113.80500030517578,153.2790069580078,114.11199951171875C153.82400512695312,114.41999816894531,154.1230010986328,115.03399658203125,154.02499389648438,115.65299987792969C153.69900512695312,117.71299743652344,153.60899353027344,121.26399993896484,154.51699829101562,123.21199798583984C154.5050048828125,123.21099853515625,154.49600219726562,123.20999908447266,154.48399353027344,123.20899963378906L154.47500610351562,123.20700073242188zM146.49600219726562,120.93399810791016L146.49600219726562,120.93399810791016C146.4409942626953,121.3740005493164,146.3939971923828,121.7249984741211,146.36300659179688,121.96399688720703C146.8820037841797,122.40599822998047,149.36099243164062,122.69200134277344,151.24200439453125,122.8759994506836L151.24200439453125,122.8759994506836C151.2449951171875,122.8759994506836,151.2469940185547,122.8759994506836,151.24899291992188,122.87699890136719L151.2550048828125,122.87799835205078C151.2530059814453,122.87699890136719,151.25100708007812,122.87699890136719,151.2480010986328,122.87699890136719C150.88499450683594,121.4540023803711,150.77499389648438,119.9219970703125,150.78900146484375,118.59400177001953C149.5749969482422,119.40699768066406,148.07000732421875,120.29199981689453,146.5019989013672,120.93599700927734L146.49600219726562,120.93399810791016zM132.83200073242188,103.70600128173828C132.98599243164062,100.01899719238281,133.10400390625,96.86399841308594,133.11700439453125,95.58200073242188L133.11700439453125,95.58200073242188L133.11700439453125,95.58399963378906C132.5800018310547,97.09100341796875,131.3280029296875,99.73600006103516,128.572998046875,102.5459976196289L128.57400512695312,102.5459976196289C128.57899475097656,102.54100036621094,128.5850067138672,102.53600311279297,128.58999633789062,102.53099822998047L132.83299255371094,103.69300079345703L132.83200073242188,103.70600128173828zM131.30499267578125,89.23100280761719C130.20899963378906,86.40799713134766,128.82699584960938,83.26699829101562,127.76100158691406,81.01899719238281C127.40699768066406,80.2699966430664,127.72700500488281,79.3759994506836,128.47500610351562,79.02100372314453C129.2270050048828,78.66699981689453,130.11900329589844,78.98600006103516,130.47300720214844,79.73400115966797C130.69000244140625,80.19100189208984,131.53500366210938,81.98999786376953,132.5070037841797,84.25199890136719C132.5070037841797,84.25299835205078,132.5070037841797,84.25399780273438,132.5070037841797,84.25599670410156C133.2169952392578,85.90699768066406,133.99400329589844,87.802001953125,134.64700317382812,89.60399627685547L134.64700317382812,89.60399627685547C135.48699951171875,91.9229965209961,136.1199951171875,94.08599853515625,136.1199951171875,95.35399627685547C136.1199951171875,98.71099853515625,135.06500244140625,120.82599639892578,135.02000427246094,121.76399993896484C134.5590057373047,126.26599884033203,130.21499633789062,128.7469940185547,126.38299560546875,130.93800354003906C121.52799987792969,133.71099853515625,120.19400024414062,134.89300537109375,121.30899810791016,136.87899780273438C121.9749984741211,138.0679931640625,122.82599639892578,138.73899841308594,123.90499877929688,138.92799377441406C126.6510009765625,139.40699768066406,130.3300018310547,136.84100341796875,131.51800537109375,135.81300354003906C132.0240020751953,135.375,132.76100158691406,135.3260040283203,133.32400512695312,135.69400024414062C133.88499450683594,136.06300354003906,134.13299560546875,136.75799560546875,133.92999267578125,137.3990020751953C133.33999633789062,139.2740020751953,132.22300720214844,144.7740020751953,134.10800170898438,147.6580047607422C134.85400390625,148.80099487304688,136.01600646972656,149.44200134277344,137.66400146484375,149.6230010986328C139.9969940185547,149.8820037841797,140.7050018310547,149,140.93499755859375,148.71299743652344C142.62399291992188,146.59500122070312,141.3350067138672,141.29400634765625,140.75,139.60499572753906C140.53500366210938,138.98399353027344,140.75,138.2949981689453,141.27999877929688,137.906005859375C141.8090057373047,137.5189971923828,142.53199768066406,137.52099609375,143.0590057373047,137.91000366210938C146.16900634765625,140.2100067138672,155.20799255371094,145.96499633789062,159.61199951171875,144.99600219726562C160.4239959716797,144.8179931640625,160.97500610351562,144.4149932861328,161.3520050048828,143.72799682617188C161.74899291992188,142.99899291992188,161.79100036621094,142.36300659179688,161.48500061035156,141.66200256347656C160.08299255371094,138.45599365234375,152.14500427246094,135.406005859375,147.468994140625,134.23599243164062C146.69400024414062,134.04299926757812,146.2050018310547,133.27099609375,146.36399841308594,132.48599243164062C146.52000427246094,131.7010040283203,147.2740020751953,131.1739959716797,148.06100463867188,131.29800415039062C152.4709930419922,131.97000122070312,159.4029998779297,132.13400268554688,161.00799560546875,130.38999938964844C161.19700622558594,130.18499755859375,161.35400390625,129.91099548339844,161.20599365234375,129.29400634765625C160.61099243164062,126.78500366210938,155.67100524902344,126.31500244140625,151.6999969482422,125.93699645996094C147.41799926757812,125.53099822998047,143.7209930419922,125.177001953125,143.3459930419922,122.30999755859375C143.3280029296875,122.17500305175781,143.32899475097656,122.03900146484375,143.34800720214844,121.90599822998047C143.37100219726562,121.73600006103516,145.71299743652344,104.8219985961914,143.9770050048828,96.9000015258789C142.86199951171875,91.81800079345703,139.50399780273438,84.12899780273438,135.66700744628906,77.33300018310547L135.66700744628906,77.33300018310547C135.66099548339844,77.322998046875,135.6540069580078,77.31199645996094,135.6479949951172,77.302001953125C134.94700622558594,76.05999755859375,134.23199462890625,74.85299682617188,133.5070037841797,73.69300079345703C133.41099548339844,73.54000091552734,132.83099365234375,72.62100219726562,132.63600158691406,72.32099914550781C132.3780059814453,71.92500305175781,131.60499572753906,70.77899932861328,131.4759979248047,70.59200286865234C131.23599243164062,70.24500274658203,130.9969940185547,69.90599822998047,130.7570037841797,69.57599639892578C130.6529998779297,69.43099975585938,129.45599365234375,67.83999633789062,129.43099975585938,67.80400085449219L129.43299865722656,67.80400085449219C128.96299743652344,67.11699676513672,128.43699645996094,66.45099639892578,127.84199523925781,65.81700134277344C127.54400634765625,65.4990005493164,127.39999389648438,65.06700134277344,127.44500732421875,64.63400268554688C127.49200439453125,64.20099639892578,127.7239990234375,63.808998107910156,128.08200073242188,63.55999755859375C137.39599609375,57.08100128173828,140.52099609375,52.80099868774414,141.45599365234375,50.266998291015625L136.30099487304688,49.34299850463867C131.1580047607422,48.301998138427734,124.75800323486328,47.00699996948242,115.91500091552734,47.45899963378906C108,47.8650016784668,97.54000091552734,50.319000244140625,89.13600158691406,52.29100036621094C83.77200317382812,53.54999923706055,79.53500366210938,54.54399871826172,76.98799896240234,54.7869987487793C76.5979995727539,54.82400131225586,76.20500183105469,54.84199905395508,75.81099700927734,54.84199905395508C71.31700134277344,54.84199905395508,66.677001953125,52.555999755859375,64.06199645996094,51.018001556396484L64.00800323486328,50.986000061035156C63.47200012207031,53.89699935913086,63.44300079345703,57.132999420166016,65.64900207519531,62.0359992980957C65.86900329589844,62.5260009765625,65.81099700927734,63.09600067138672,65.49600219726562,63.53099822998047C65.46900177001953,63.56999969482422,64.25700378417969,65.29199981689453,62.88200378417969,68.35600280761719L62.88200378417969,68.35600280761719L62.88099670410156,68.35600280761719C63.0780029296875,68.83999633789062,63.022003173828125,69.41200256347656,62.67400360107422,69.85099792480469C62.374000549316406,70.2300033569336,62.07599639892578,70.6449966430664,61.77899932861328,71.07099914550781C61.78099822998047,71.06400299072266,61.784000396728516,71.05599975585938,61.7869987487793,71.04900360107422C61.76100158691406,71.08699798583984,60.57699966430664,72.93699645996094,60.47100067138672,73.11499786376953C60.262001037597656,73.46900177001953,58.57500076293945,76.65599822998047,58.48699951171875,76.83899688720703C58.29899978637695,77.22799682617188,56.92599868774414,80.3270034790039,56.82699966430664,80.56800079345703C56.59600067138672,81.13400268554688,56.36899948120117,81.7040023803711,56.1510009765625,82.2760009765625L56.1510009765625,82.2760009765625C53.78799819946289,88.48100280761719,52.268001556396484,94.90799713134766,52.49700164794922,98.31099700927734C52.90299987792969,104.33200073242188,60.22700119018555,123.26300048828125,60.30099868774414,123.45500183105469C60.356998443603516,123.60099792480469,60.38999938964844,123.7509994506836,60.400001525878906,123.90499877929688C60.53200149536133,126.04199981689453,58.00600051879883,126.71900177001953,53.42100143432617,127.95199584960938C48.73500061035156,129.21099853515625,41.65399932861328,131.11199951171875,42.44499969482422,134.1179962158203C42.67599868774414,134.9969940185547,43.12699890136719,135.26800537109375,43.49399948120117,135.4080047607422C46.08700180053711,136.38900756835938,52.249000549316406,133.3560028076172,55.827999114990234,131.0449981689453C56.018001556396484,130.91799926757812,56.165000915527344,130.8209991455078,56.263999938964844,130.75799560546875C56.957000732421875,130.31399536132812,57.880001068115234,130.5050048828125,58.332000732421875,131.19500732421875C58.784000396728516,131.88299560546875,58.59700012207031,132.80799865722656,57.9119987487793,133.26499938964844C57.82699966430664,133.32400512695312,57.68600082397461,133.41400146484375,57.499000549316406,133.53599548339844C52.28200149536133,136.98500061035156,44.494998931884766,143.51499938964844,44.67300033569336,147.2239990234375C44.69900131225586,147.7729949951172,44.90999984741211,148.59500122070312,46.43199920654297,149.38499450683594C47.97999954223633,150.18699645996094,49.40599822998047,150.27699279785156,50.797000885009766,149.65699768066406C55.18299865722656,147.70700073242188,58.222999572753906,139.2969970703125,59.02399826049805,136.218994140625C59.22200012207031,135.45599365234375,59.97700119018555,134.9810028076172,60.75,135.1219940185547C61.52299880981445,135.26600646972656,62.05500030517578,135.98399353027344,61.965999603271484,136.76600646972656C61.702999114990234,139.10000610351562,61.58100128173828,145.6529998779297,64.14900207519531,147.91799926757812C65.02999877929688,148.69500732421875,66.21399688720703,148.89100646972656,67.76699829101562,148.51600646972656C69.37699890136719,148.12600708007812,70.3949966430664,147.37100219726562,70.87799835205078,146.20700073242188C72.21299743652344,142.98800659179688,69.48300170898438,137.3159942626953,68.31900024414062,135.40199279785156C67.90699768066406,134.7259979248047,68.09300231933594,133.84500122070312,68.74299621582031,133.39199829101562C69.39299774169922,132.93899536132812,70.28399658203125,133.07000732421875,70.7760009765625,133.6929931640625C72.20700073242188,135.49899291992188,76.6719970703125,140.19500732421875,80.09700012207031,140.2449951171875C81.15599822998047,140.2469940185547,81.94300079345703,139.8489990234375,82.69100189208984,138.9600067138672C83.25299835205078,138.29100036621094,83.43599700927734,137.61700439453125,83.26799774169922,136.83900451660156C82.53500366210938,133.46299743652344,75.68699645996094,129.07400512695312,71.54299926757812,127.10200500488281C71.22899627685547,126.9540023803711,70.97699737548828,126.697998046875,70.8290023803711,126.38200378417969C68.99500274658203,122.45600128173828,60.875,104.94499969482422,58.637001037597656,97.87999725341797L58.637001037597656,97.88099670410156C58.54899978637695,97.60199737548828,58.470001220703125,97.33999633789062,58.400001525878906,97.09400177001953C58.39699935913086,97.08200073242188,58.13800048828125,96.02799987792969,58.1150016784668,95.88500213623047C58.10900115966797,95.85199737548828,58.099998474121094,95.81300354003906,58.09600067138672,95.78099822998047C58.071998596191406,95.61799621582031,58.07899856567383,94.9229965209961,58.10900115966797,94.67900085449219C58.11600112915039,94.62699890136719,58.12099838256836,94.57599639892578,58.12900161743164,94.52300262451172C58.16299819946289,94.28600311279297,58.20899963378906,94.03099822998047,58.266998291015625,93.75800323486328C58.268001556396484,93.75199890136719,58.270999908447266,93.74199676513672,58.27399826049805,93.7300033569336C58.30500030517578,93.59300231933594,58.43299865722656,93.05500030517578,58.49599838256836,92.81999969482422C58.513999938964844,92.75299835205078,58.8849983215332,91.49600219726562,58.92399978637695,91.3759994506836C60.395999908447266,86.78199768066406,63.27799987792969,80.63899993896484,63.70600128173828,79.73600006103516C64.06099700927734,78.98699951171875,64.95600128173828,78.66899871826172,65.7040023803711,79.02300262451172C66.4530029296875,79.37699890136719,66.77200317382812,80.27200317382812,66.41699981689453,81.02100372314453C64.34600067138672,85.3949966430664,61.060001373291016,93.1520004272461,61.060001373291016,95.3550033569336L61.279998779296875,96.40899658203125C65.26699829101562,103.85900115966797,74.64800262451172,110.26899719238281,91.97000122070312,110.66300201416016C126.24099731445312,110.65699768066406,130.37100219726562,94.48200225830078,130.52999877929688,93.79499816894531C130.61500549316406,93.4280014038086,130.73500061035156,92.96499633789062,130.8769989013672,92.41799926757812C131.06199645996094,91.7040023803711,131.29100036621094,90.81600189208984,131.5240020751953,89.80500030517578L131.30499267578125,89.23100280761719zM141.36399841308594,46.97700119018555C140.4949951171875,45.59199905395508,138.49099731445312,44.77399826049805,136.78599548339844,44.32099914550781C136.24099731445312,44.17599868774414,135.82400512695312,43.73899841308594,135.7050018310547,43.18899917602539C135.58599853515625,42.638999938964844,135.78399658203125,42.06800079345703,136.2209930419922,41.71099853515625C139.1320037841797,39.32400131225586,142.11000061035156,36.0620002746582,142.11000061035156,29.96500015258789C142.11000061035156,20.60300064086914,139.36399841308594,15.708999633789062,133.46499633789062,14.564000129699707C132.76400756835938,14.435999870300293,132.05499267578125,14.369999885559082,131.3730010986328,14.369999885559082C125.86100006103516,14.369999885559082,122.48799896240234,18.738000869750977,120.25499725341797,21.628000259399414C119.38300323486328,22.756999969482422,118.69300079345703,23.64900016784668,117.98600006103516,24.15399932861328C116.09200286865234,25.5049991607666,107.45700073242188,26.225000381469727,101.9489974975586,26.225000381469727C89.08799743652344,26.225000381469727,87.84400177001953,23.19099998474121,87.43499755859375,22.19499969482422C86.03299713134766,18.73900032043457,80.72000122070312,13.923999786376953,75.2490005493164,13.918999671936035C69.80000305175781,13.918999671936035,62.25,19.131999969482422,62.25,28.91900062561035C62.128997802734375,34.0099983215332,64.21900177001953,39.95500183105469,67.21900177001953,43.09199905395508C67.53099822998047,43.417999267578125,67.67900085449219,43.867000579833984,67.62300109863281,44.316001892089844C67.56700134277344,44.763999938964844,67.31199645996094,45.1619987487793,66.92900085449219,45.4010009765625C66.8759994506836,45.435001373291016,65.7760009765625,46.172000885009766,64.96199798583984,47.755001068115234L64.9800033569336,47.766998291015625C67.21299743652344,49.15700149536133,72.33300018310547,51.9640007019043,76.68000030517578,51.54999923706055C79.00900268554688,51.327999114990234,83.35800170898438,50.30799865722656,88.39399719238281,49.125999450683594C96.92500305175781,47.125,107.54299926757812,44.632999420166016,115.75,44.21200180053711C124.99800109863281,43.7400016784668,131.9029998779297,45.13600158691406,136.9459991455078,46.15599822998047L141.36399841308594,46.97700119018555zM143.48199462890625,86.28900146484375L143.48199462890625,86.28900146484375C149.6439971923828,79.26899719238281,156.68699645996094,70.51799774169922,156.2239990234375,66.64600372314453C156.16700744628906,66.18599700927734,155.9980010986328,65.88999938964844,155.6580047607422,65.65799713134766C150.93699645996094,62.45600128173828,141.55799865722656,65.677001953125,134.82899475097656,70.18800354003906L134.82699584960938,70.18800354003906L134.82699584960938,70.18800354003906C136.427001953125,72.5999984741211,138.01400756835938,75.27899932861328,139.49600219726562,78.0479965209961L139.49600219726562,78.0479965209961L139.49899291992188,78.0479965209961C142.33700561523438,74.35800170898438,144.83799743652344,71.1780014038086,148.27000427246094,69.29199981689453C148.75100708007812,69.0250015258789,149.36199951171875,69.2020034790039,149.6269989013672,69.68599700927734C149.89500427246094,70.16999816894531,149.7169952392578,70.77799987792969,149.23199462890625,71.04399871826172C146.06199645996094,72.78700256347656,143.63499450683594,75.94499969482422,140.82699584960938,79.60199737548828C140.72799682617188,79.7300033569336,140.6199951171875,79.86799621582031,140.5189971923828,79.9990005493164C140.51300048828125,79.98500061035156,140.50399780273438,79.97100067138672,140.4980010986328,79.95700073242188L140.4949951171875,79.95700073242188C141.5800018310547,82.0780029296875,142.58700561523438,84.21199798583984,143.47999572753906,86.28900146484375L143.48199462890625,86.28900146484375zM52.00699996948242,108.93900299072266L49.81700134277344,109.77999877929688C50.78200149536133,110.25,51.832000732421875,110.81999969482422,52.823001861572266,111.47599792480469C52.82500076293945,111.48200225830078,52.82699966430664,111.48899841308594,52.82899856567383,111.49500274658203L52.832000732421875,111.49700164794922C52.55099868774414,110.64600372314453,52.275001525878906,109.79000091552734,52.0099983215332,108.94100189208984L52.0099983215332,108.94100189208984L52.00699996948242,108.93900299072266zM49.79999923706055,94.06600189208984C49.801998138427734,94.052001953125,49.803001403808594,94.04199981689453,49.80500030517578,94.02899932861328L49.80500030517578,94.02899932861328C50.49399948120117,89.5469970703125,52.24399948120117,83.68499755859375,54.5369987487793,78.32099914550781L54.53499984741211,78.32099914550781C54.534000396728516,78.3239974975586,54.53200149536133,78.3270034790039,54.53099822998047,78.33100128173828C50.680999755859375,75.6500015258789,42.22200012207031,70.05699920654297,34.430999755859375,66.94000244140625C33.917999267578125,66.73400115966797,33.66899871826172,66.15299987792969,33.874000549316406,65.63999938964844C34.07899856567383,65.12799835205078,34.65999984741211,64.87899780273438,35.17399978637695,65.08300018310547C43.0359992980957,68.22799682617188,51.32500076293945,73.66100311279297,55.35900115966797,76.46399688720703C55.35900115966797,76.46499633789062,55.358001708984375,76.46700286865234,55.356998443603516,76.46900177001953L55.35900115966797,76.46900177001953C55.8650016784668,75.37300109863281,56.38999938964844,74.30699920654297,56.935001373291016,73.29299926757812L56.935001373291016,73.29299926757812L56.93299865722656,73.29100036621094C48.10200119018555,67.58699798583984,35.604000091552734,61.058998107910156,30.054000854492188,62.15399932861328C29.152999877929688,62.332000732421875,28.527000427246094,62.71099853515625,28.141000747680664,63.30999755859375C23.746000289916992,70.13200378417969,33.30099868774414,78.35900115966797,36.33399963378906,80.71800231933594C43.49100112915039,86.28500366210938,47.86399841308594,90.58799743652344,49.803001403808594,94.02799987792969C49.80099868774414,94.04100036621094,49.79999923706055,94.0510025024414,49.79800033569336,94.06500244140625L49.79999923706055,94.06600189208984z"></path><path id="Cornea" fill="#FF7300" stroke="#FF4E00" stroke-width="1.6846" stroke-miterlimit="10" d="M133.18600463867188,15.665000915527344C138.33099365234375,15.665000915527344,142.5,21.597999572753906,142.5,28.916000366210938C142.5,36.23400115966797,138.32899475097656,42.16699981689453,133.18600463867188,42.16699981689453C128.0399932861328,42.16699981689453,123.87200164794922,36.23400115966797,123.87200164794922,28.916000366210938C123.87000274658203,21.597999572753906,128.0399932861328,15.665000915527344,133.18600463867188,15.665000915527344zM73.05000305175781,15.665000915527344C67.64700317382812,15.665000915527344,63.266998291015625,21.895999908447266,63.266998291015625,29.58300018310547C63.266998291015625,37.27000045776367,67.64700317382812,43.500999450683594,73.05000305175781,43.500999450683594C78.4530029296875,43.500999450683594,82.83399963378906,37.27000045776367,82.83399963378906,29.58300018310547S78.4530029296875,15.665000915527344,73.05000305175781,15.665000915527344z"></path><path id="Pupils" fill="#420016" d="M134.54800415039062,19.288000106811523C138.2429962158203,19.288000106811523,141.24000549316406,23.60700035095215,141.24000549316406,28.93400001525879C141.24000549316406,34.26100158691406,138.2429962158203,38.58000183105469,134.54800415039062,38.58000183105469C130.8520050048828,38.58000183105469,127.85600280761719,34.26100158691406,127.85600280761719,28.93400001525879C127.85499572753906,23.60700035095215,130.8520050048828,19.288000106811523,134.54800415039062,19.288000106811523zM73.66899871826172,19.469999313354492C69.78700256347656,19.469999313354492,66.63999938964844,24.006000518798828,66.63999938964844,29.601999282836914C66.63999938964844,35.196998596191406,69.78700256347656,39.733001708984375,73.66899871826172,39.733001708984375C77.5510025024414,39.733001708984375,80.6969985961914,35.196998596191406,80.6969985961914,29.601999282836914C80.6969985961914,24.006000518798828,77.5510025024414,19.469999313354492,73.66899871826172,19.469999313354492z"></path></g></svg>