<?xml version="1.0" encoding="utf-8"?>
<!-- Generator: Adobe Illustrator 16.0.0, SVG Export Plug-In . SVG Version: 6.00 Build 0)  -->
<!DOCTYPE svg PUBLIC "-//W3C//DTD SVG 1.1//EN" "http://www.w3.org/Graphics/SVG/1.1/DTD/svg11.dtd">
<svg version="1.1" id="Layer_1" xmlns="http://www.w3.org/2000/svg" xmlns:xlink="http://www.w3.org/1999/xlink" x="0px" y="0px"
	 width="471px" height="655px" viewBox="0 0 471 655" enable-background="new 0 0 471 655" xml:space="preserve">
<g id="Giraffe.svg">
	<path id="Mane" fill="#D1752D" stroke="#B75927" stroke-width="3.644" stroke-miterlimit="10" d="M392.893,41.071
		c-10.475-6.189-37.405-5.8-76.379,52.4c-38.976,58.201-43.133,83.143-59.761,101.332c-16.629,18.188-21.825,22.345-35.336,29.62
		c-13.511,7.275-26.502,18.706-22.864,32.737c3.637,14.031,57.681-26.501,86.78-68.593
		C314.434,146.476,392.893,41.071,392.893,41.071z"/>
	<path id="Girraffe" fill="#FFF7E4" d="M236.757,640.011c-4.231,0-8.305-0.26-11.175-0.714c-1.759-0.278-2.894-0.907-3.47-1.925
		c-1.29-2.282,0.124-6.201,2.106-11.087c0.637-1.57,1.221-3.012,1.62-4.311c1.427-4.64-0.283-8.95-1.791-12.758
		c-0.672-1.695-1.305-3.291-1.596-4.75c-0.359-1.795,0.156-6.851,1.024-14.949c1.136-10.58,2.69-25.049,2.404-38.477
		c-0.092-4.314-0.149-8.232-0.201-11.793c-0.228-15.593-0.354-24.183-2.808-29.5c-2.14-4.635-0.911-13.632,0.391-23.157l0.024-0.177
		c0.392-2.875,0.797-5.847,1.126-8.813c1.501-13.511-1.036-42.409-3.425-53.4c-2.387-10.981-2.414-25.96-2.414-26.11v-0.854
		l-0.852-0.07c-0.018-0.002-0.992-0.082-2.574-0.082c-2.445,0-6.229,0.186-10.366,1.072c-2.041,0.438-5.179,1.787-9.152,3.496
		c-9.679,4.163-24.361,10.495-38.373,10.124c-19.47-0.476-29.611-7.084-29.711-7.151l-0.909-0.604l-0.454,0.992
		c-0.016,0.036-2.472,5.421-14.097,26.735c-11.508,21.097-29.207,58.767-32.235,69.866c-3.092,11.332-2.38,78.769,1.93,102.717
		c2.92,16.221,10.453,21.387,14.954,24.474c2.17,1.489,3.088,2.191,3.432,3.159l0.394,1.108l-0.983,0.646
		c-1.087,0.716-4.402,1.916-14.382,1.916c-4.566,0-9.139-0.251-12.17-0.461l-2.003-0.139l0.701-1.881
		c1.094-2.938,2.271-7.329,1.664-11.58c-0.633-4.437-3.691-7.288-6.39-9.808c-1.652-1.54-3.212-2.992-3.911-4.564
		c-0.738-1.768-0.292-7.104,0.981-18.408c1.063-9.448,2.267-20.139,2.021-28.984c-0.464-16.739-8.067-60.659-11.79-68.106
		c-1.745-3.491,0.403-8.112,3.375-14.508c2.359-5.076,5.295-11.396,7.41-19.433c3.668-13.938,1.086-25.948-4.058-49.881
		c-1.825-8.489-3.892-18.106-6.159-29.938c-4.388-22.914-3.398-35.803,3.527-45.965c7.078-10.385,20.47-17.692,42.706-27.547
		c19.855-8.798,37.636-13.543,51.923-17.355c16.927-4.518,29.154-7.781,35.599-15.031c2.428-2.729,4.489-5.478,6.481-8.136
		c7.952-10.608,16.153-21.547,50.237-38.417c9.99-4.945,11.667-7.88,13.77-12.644c0.703-1.593,1.425-3.222,2.685-5.235
		c0.981-1.572,2.908-4.552,5.347-8.324c10.129-15.666,28.979-44.826,39.503-64.316l1.459-2.704
		c12.482-23.133,25.391-47.049,40.794-63.853c3.756-4.097,9.021-9.272,12.403-11.915c-1.121-0.997-3.188-2.805-4.514-3.956
		c-9.654-8.395-11.127-15.198-11.187-15.483l-0.323-1.599l1.629,0.071c0.196,0.009,4.926,0.232,13.45,2.081
		c6.239,1.354,11.351,6.423,15.216,11.121l1.532-1.014c3.659-1.553,7.397-2.785,11.766-3.877c0.676-0.168,1.305-0.322,1.907-0.467
		l0.78-0.167l-0.087-0.945l0.025-0.177c0.114-0.777,0.754-1.615,2.146-3.201c1.713-1.949,3.846-4.374,3.07-7.295
		c-0.456-1.724-1.945-3.768-3.671-6.136c-2.628-3.606-4.612-6.521-4.292-8.495c0.102-0.582,0.41-1.041,0.947-1.421
		c1.688-1.201,3.59-1.864,5.345-1.864c3.021,0,4.906,1.922,5.038,5.141c0.263,6.402,1.419,14.838,3.412,19.253
		c1.079,2.39,2.107,4.596,2.792,6.038l0.146,0.309l0.313,0.141c0.474,0.214,0.968,0.443,1.483,0.686
		c2.479,1.166,4.313,1.902,5.788,2.494c3.501,1.403,4.938,1.979,8.563,5.604c4.725,4.725,10.121,16.679,14.457,26.284l1.431,3.164
		c3.32,7.301,8.188,12.164,11.737,15.715c1.689,1.69,3.149,3.15,3.911,4.365c2.062,3.302,2.835,8.521,2.293,15.51
		c-0.027,0.36-0.079,0.682-0.153,0.954l-0.368,1.359l-1.38-0.282c-1.27-0.26-3.011-1.443-3.871-2.176l-0.229-0.195l-5.656-0.514
		c-3.591-0.326-6.29-3.121-9.416-6.356c-1.196-1.238-2.385-2.468-3.687-3.639c-2.771-2.493-7.439-3.066-12.85-3.729
		c-4.657-0.57-9.936-1.217-14.688-3.254c-2.171-0.931-4.341-1.903-6.472-2.861c-7.978-3.58-15.507-6.958-20.689-6.958
		c-3.249,0-8.063,6.543-14.719,20.004c-5.752,11.636-11.099,24.908-13.928,32.738c-4.121,11.41-10.192,37.99-15.554,61.441
		l-0.026,0.115c-2.803,12.274-5.449,23.867-7.339,31.086c-5.521,21.08-12.933,34.942-24.48,55.266
		c-9.224,16.233-6.496,31.188-4.306,43.205c0.734,4.031,1.427,7.821,1.548,11.121c0.455,12.32-14.332,31.822-24.522,38.959
		c-9.015,6.311-14.858,28.299-17.998,40.112l-0.038,0.146c-0.318,1.199-0.6,2.255-0.842,3.125
		c-0.762,2.744-7.428,27.322-6.854,44.613c0.09,2.685,0.229,5.487,0.377,8.361c0.604,12.018,1.227,24.404-2.193,30.103
		c-4.516,7.53-4.516,28.646-4.516,53.094c0,17.831,1.44,28.266,2.305,34.496c0.283,2.053,0.507,3.666,0.621,5.043
		c0.459,5.502-0.408,8.304-1.895,12.265c-1.01,2.689,1.914,7.031,6.488,13.349c1.729,2.382,3.512,4.846,4.387,6.562l0.667,1.313
		l-1.297,0.693C251.046,638.893,245.76,640.011,236.757,640.011z M144.057,635.752c0,0-0.001,0-0.002,0
		c-2.829,0-4.761-0.143-5.744-0.424c-2.823-0.807-2.307-4.24-1.808-7.562c0.472-3.141,1.06-7.05-0.79-8.897
		c-1.036-1.036-2.282-1.709-3.726-2.488c-4.03-2.177-9.046-4.886-11.304-17.304c-3.198-17.59-8.585-43.406-18.396-64.428
		c-2.724-5.839-5.529-10.679-8.004-14.946c-4.958-8.553-8.875-15.312-9.795-25.193l-0.033-0.356l0.133-0.335
		c6.1-15.324,19.713-43.912,29.132-61.18c7.913-14.509,11.56-21.604,13.029-24.542l0.672-1.343l1.342,0.673
		c2.518,1.264,6.817,3.051,13,4.405l1.271,0.278l-0.096,1.298c-0.672,9.053-2.442,16.101-10.683,31.667
		c-1.628,3.075-3.155,5.897-4.563,8.503c-5.948,10.995-9.877,18.26-9.877,23.436c0,1.858-0.036,4.765-0.079,8.203
		c-0.117,9.363-0.276,22.188,0.077,29.235c0.465,9.307,18.929,67.521,21.825,75.05c0.954,2.479,1.151,4.493,1.324,6.271
		c0.292,2.983,0.522,5.342,4.22,9.325l0.589,0.635c15.223,16.386,20.21,22.813,19.767,25.479
		C164.815,635.532,147.523,635.752,144.057,635.752z M259.87,632.73C259.869,632.73,259.869,632.73,259.87,632.73
		c-1.638,0-3.464-0.066-5.584-0.204l-0.729-0.048l-0.412-0.604c-0.766-1.12-1.631-2.32-2.555-3.594
		c-5.008-6.912-6.548-9.651-6.337-11.272l0.083-0.333c1.576-4.202,2.498-7.179,2.005-13.068c-0.116-1.404-0.338-3.007-0.616-5.031
		l-0.016-0.104c-0.911-6.581-2.288-16.525-2.288-34.252c0-23.167,0-45.049,4.252-52.136c3.712-6.188,3.103-18.308,2.456-31.141
		c-0.126-2.47-0.279-5.526-0.375-8.345c-0.462-13.839,4.048-34.201,6.785-44.055c0.255-0.913,0.55-2.022,0.886-3.291
		c4.364-16.408,9.821-33.855,17.267-39.064c1.638-1.146,3.404-2.614,5.252-4.364l5.783-5.478l-3.395,7.205
		c-5.232,11.106-7.059,15.498-8.645,25.018c-0.832,4.993-4.035,14.333-7.74,25.146c-5.01,14.613-10.688,31.176-11.242,39.503
		c-0.444,6.662-0.376,14.708-0.316,21.809c0.074,8.717,0.139,16.244-0.69,19.841c-0.364,1.577-0.788,2.867-1.197,4.116
		c-1.248,3.809-2.538,7.746-2.176,20.838c0.464,16.721,1.894,40.962,3.396,50.971c0.594,3.952,0.411,7.937,0.252,11.451
		c-0.238,5.284-0.445,9.849,1.86,12.67c1.763,2.153,4.877,4.341,7.624,6.271c4.521,3.177,8.093,5.685,6.686,8.5
		C269.087,631.791,265.92,632.73,259.87,632.73z M39.533,407.446l-2.938-0.579c0.506-3.648,0.989-7.718,1.499-12.026
		c0.828-6.979,1.767-14.896,3.138-23.889c1.645-10.783,3.958-19.427,7.07-26.421l4.825-10.842l-1.975,11.699
		c-0.883,5.23-0.972,11.262-0.271,18.434l0.028,0.289l-0.083,0.279c-2.409,8.168-5.587,20.657-8.66,32.737l-0.317,1.244
		C41.055,401.492,40.277,404.55,39.533,407.446z M418.206,47.445l-4.772-1.946c-0.975-0.397-2.492-1.031-4.421-1.938l-1.196-0.56
		l-0.231-0.492c-0.654-1.392-1.511-3.236-2.401-5.206c-1.88-4.168-3.001-12.544-3.246-18.562c-0.054-1.307-0.359-2.493-0.914-3.525
		l-0.959-1.786l1.985-0.396c1.097-0.218,2.019-0.323,2.82-0.323c1.623,0,2.881,0.446,3.738,1.327
		c0.854,0.876,1.265,2.126,1.223,3.715l-0.014,0.544c-0.13,4.808-0.323,12.074,1.154,17.247c0.721,2.516,2.555,5.303,4.252,7.697
		L418.206,47.445z"/>
	<path id="Headpatch" fill="#FFE3C2" d="M444.105,94.216c-0.253-0.295-0.508-0.593-0.761-0.901c-0.22-0.268-0.438-0.543-0.653-0.821
		c-0.304-0.382-0.603-0.775-0.898-1.177c-0.188-0.253-0.373-0.507-0.559-0.768c-0.366-0.515-0.729-1.048-1.082-1.596
		c-0.121-0.186-0.241-0.368-0.359-0.557c-0.419-0.667-0.828-1.36-1.225-2.079c-0.088-0.157-0.172-0.318-0.261-0.478
		c-0.418-0.782-0.824-1.585-1.212-2.431l-1.434-3.168c-4.286-9.493-9.619-21.307-14.149-25.837c-3.407-3.409-4.668-3.913-8.027-5.26
		c-1.501-0.601-3.367-1.348-5.9-2.541c-0.512-0.24-0.998-0.466-1.464-0.676l-0.815-0.368l-0.382-0.809
		c-0.683-1.448-1.72-3.663-2.803-6.062c-2.076-4.598-3.275-13.262-3.542-19.809c-0.126-3.059-1.994-3.701-3.54-3.701
		c-1.445,0-3.036,0.564-4.479,1.587c-0.297,0.211-0.316,0.347-0.332,0.438c-0.247,1.512,2.32,5.037,4.021,7.37
		c1.812,2.49,3.382,4.64,3.909,6.636c0.978,3.693-1.549,6.57-3.395,8.67c-0.645,0.733-1.723,1.961-1.791,2.428l0.192,2.095
		l-2.046,0.435c-0.601,0.144-1.226,0.297-1.896,0.464c-3.479,0.87-7.353,2.03-11.532,3.808c0.76,0.945,1.52,1.914,2.295,2.903
		c0.978,1.248,1.983,2.535,3.047,3.844c0.054,0.066,0.076,0.145,0.113,0.218c11.754,0.72,23.064,1.466,26.354,3.732
		c11.742,8.098,14.575,22.674,25.104,29.557c3.025,1.979,6.422,3.688,9.723,5.122C444.258,94.397,444.182,94.304,444.105,94.216z"/>
	<path id="GirraffeBorder" fill="#FED092" d="M49.386,363.967c-2.413,8.182-5.579,20.622-8.675,32.792
		c-0.903,3.548-1.789,7.033-2.632,10.313c0.504-3.63,0.979-7.636,1.503-12.057c0.828-6.976,1.765-14.882,3.131-23.841
		c1.686-11.055,4.014-19.422,6.957-26.038c0,0.004-0.001,0.006-0.001,0.012c0.381-2.26,0.908-4.377,1.581-6.383
		c0.002-0.008,0.004-0.015,0.007-0.021c0.225-0.667,0.465-1.321,0.722-1.964c0.013-0.032,0.027-0.064,0.04-0.1
		c0.502-1.242,1.066-2.44,1.692-3.604c0.042-0.077,0.083-0.156,0.126-0.232c0.297-0.541,0.607-1.072,0.932-1.599
		c0.057-0.091,0.115-0.183,0.172-0.271c0.336-0.533,0.682-1.062,1.047-1.578c0.384-0.543,0.787-1.078,1.201-1.604
		c0.053-0.065,0.104-0.135,0.157-0.202c0.4-0.502,0.816-0.997,1.245-1.483c0.07-0.079,0.139-0.159,0.209-0.237
		c0.435-0.488,0.883-0.969,1.348-1.444c0.061-0.062,0.124-0.125,0.185-0.187c0.491-0.496,0.995-0.986,1.52-1.473
		c0.007-0.006,0.015-0.013,0.021-0.02c0.557-0.513,1.133-1.021,1.73-1.521c0.007-0.007,0.014-0.013,0.021-0.019
		c0.581-0.488,1.183-0.971,1.803-1.451c0.046-0.035,0.091-0.07,0.136-0.104c0.613-0.474,1.246-0.94,1.897-1.405
		c0.046-0.033,0.092-0.065,0.138-0.099c0.67-0.478,1.358-0.949,2.071-1.422c0.001-0.002,0.002-0.002,0.003-0.003l0.186-0.659
		l-5.635,4.057c-12.927,9.308-21.839,20.974-26.315,50.323c-1.379,9.039-2.322,16.984-3.153,24
		c-1.748,14.732-3.011,25.382-6.759,31.628c-6.053,10.088-7.111,19.596-7.153,19.996l-0.652,6.198l4.676-4.126
		c0.359-0.313,8.855-7.938,13.387-23.046c1.709-5.697,4.359-16.112,7.165-27.142c1.813-7.129,3.823-15.026,5.671-21.965
		c-0.774-4.327-1.344-8.328-1.707-12.041C49.385,363.957,49.386,363.962,49.386,363.967z M402.354,14.503
		c3.169-0.628,6.075-0.526,5.979,3.21c-0.133,5.06-0.399,12.651,1.199,18.243c0.801,2.802,2.805,5.805,4.471,8.153
		c0.46,0.188,0.891,0.361,1.291,0.521c0.526,0.211,1.016,0.408,1.484,0.604c0.013,0.005,0.024,0.011,0.04,0.017
		c0.47,0.197,0.919,0.394,1.354,0.601c-0.384-0.621-0.886-1.327-1.514-2.202c-1.688-2.35-3.994-5.568-4.792-8.361
		c-1.439-5.036-1.248-12.216-1.121-16.966l0.015-0.545c0.048-1.85-0.452-3.326-1.484-4.39c-1.04-1.067-2.521-1.608-4.404-1.608
		c-1.341,0-2.778,0.274-4.168,0.604l0.001,0.001C401.359,12.982,401.919,13.689,402.354,14.503z M144.054,636.681
		c-2.915,0-4.933-0.151-5.999-0.459c-3.608-1.029-2.978-5.225-2.472-8.593c0.441-2.934,0.99-6.586-0.527-8.103
		c-0.94-0.94-2.131-1.583-3.511-2.328c-4.206-2.271-9.439-5.101-11.777-17.955c-3.188-17.537-8.557-43.272-18.324-64.201
		c-2.709-5.805-5.506-10.627-7.974-14.881c-5.89-10.155-10.543-18.176-10.087-31.842l0.015-0.449l0.175-0.414
		c6.958-16.5,18.649-40.757,27.196-56.425c11.458-21.008,14.025-26.585,14.049-26.642l1.184-2.594l2.374,1.579
		c0.04,0.026,4.737,3.066,13.752,5.097l1.996,0.449l-0.104,2.044c-0.549,10.813-2.191,18.004-10.947,34.543
		c-1.629,3.077-3.158,5.903-4.567,8.509c-5.881,10.872-9.766,18.057-9.766,22.995c0,1.86-0.036,4.771-0.079,8.213
		c-0.117,9.354-0.276,22.159,0.076,29.182c0.459,9.188,19.32,68.409,21.764,74.762c0.999,2.598,1.202,4.678,1.382,6.513
		c0.285,2.921,0.492,5.029,3.977,8.783l0.588,0.634c17.579,18.923,20.456,23.548,20.003,26.268
		c-0.397,2.381-2.945,3.594-9.398,4.474C153.236,636.357,148.254,636.681,144.054,636.681z M140.021,631.656
		c0.716,0.084,2.002,0.166,4.033,0.166c7.292,0,14.572-0.896,17.217-1.772c-2.357-4.396-14.256-17.206-18.38-21.646l-0.589-0.635
		c-4.601-4.955-4.932-8.345-5.252-11.616c-0.164-1.679-0.318-3.261-1.081-5.241c-2.302-5.984-21.565-65.938-22.082-76.264
		c-0.359-7.174-0.199-20.065-0.082-29.48c0.042-3.42,0.079-6.307,0.079-8.153c0-6.171,3.896-13.374,10.351-25.307
		c1.403-2.594,2.924-5.407,4.546-8.471c7.67-14.489,9.612-21.108,10.269-30.507c-5.109-1.313-8.771-2.875-10.958-3.969
		c-1.631,3.263-5.322,10.413-13.056,24.596c-8.408,15.414-19.884,39.207-26.808,55.565c-0.296,12.001,3.801,19.065,9.446,28.798
		c2.519,4.345,5.373,9.266,8.174,15.267c10.005,21.438,15.465,47.585,18.701,65.387c1.92,10.561,5.507,12.498,9.305,14.549
		c1.571,0.852,3.195,1.729,4.638,3.168c3.25,3.251,2.467,8.458,1.896,12.261C140.233,629.383,140.015,630.835,140.021,631.656z
		 M259.87,633.658C259.869,633.658,259.869,633.658,259.87,633.658c-2.412,0-5.298-0.146-8.822-0.446l-1.118-0.096l-0.652-0.915
		c-0.451-0.635-0.926-1.287-1.402-1.948c-5.008-6.912-7.956-11.354-6.684-14.758c1.406-3.748,2.244-6.313,1.806-11.611
		c-0.11-1.336-0.332-2.932-0.61-4.951c-0.867-6.271-2.32-16.768-2.32-34.713c0-24.672,0-45.979,4.729-53.862
		c3.188-5.313,2.573-17.483,1.979-29.258c-0.141-2.771-0.283-5.644-0.375-8.388c-0.586-17.538,6.139-42.3,6.906-45.063
		c0.25-0.901,0.543-2.001,0.875-3.258c3.188-11.999,9.125-34.333,18.586-40.954c2.887-2.021,6.323-5.258,9.68-9.109l11.476-13.186
		l-9.356,19.867c-6.166,13.041-8.241,17.436-9.955,27.712c-0.846,5.07-4.061,14.442-7.777,25.296
		c-4.99,14.561-10.646,31.062-11.193,39.266c-0.441,6.626-0.373,14.65-0.313,21.734c0.072,8.775,0.139,16.354-0.719,20.06
		c-0.375,1.618-0.805,2.93-1.219,4.198c-1.225,3.73-2.488,7.594-2.131,20.521c0.463,16.692,1.889,40.884,3.385,50.859
		c0.605,4.042,0.424,8.072,0.263,11.633c-0.229,5.093-0.431,9.49,1.651,12.036c1.681,2.056,4.739,4.205,7.439,6.102
		c4.691,3.297,8.745,6.146,6.979,9.677C269.725,632.594,266.404,633.658,259.87,633.658z M252.572,628.462
		c2.883,0.229,5.277,0.337,7.297,0.337h0.001c3.644,0,5.394-0.375,6.196-0.661c-1.01-1.025-3.271-2.612-4.867-3.735
		c-2.955-2.076-6.305-4.432-8.409-7.001c-3.259-3.984-3.009-9.497-2.744-15.333c0.159-3.499,0.323-7.117-0.213-10.691
		c-1.522-10.156-2.97-34.611-3.437-51.445c-0.383-13.771,1.017-18.041,2.369-22.169c0.397-1.221,0.775-2.373,1.103-3.776
		c0.228-0.983,0.377-2.412,0.474-4.159c-0.382,1.109-0.839,2.127-1.383,3.033c-4.038,6.729-4.038,29.422-4.038,51.362
		c0,17.611,1.368,27.502,2.274,34.047c0.289,2.096,0.519,3.746,0.641,5.216c0.518,6.189-0.494,9.45-2.096,13.722
		c-0.202,1.548,3.876,7.178,6.066,10.202C252.064,627.759,252.32,628.112,252.572,628.462z M276.533,386.703
		c-0.333,0.25-0.66,0.488-0.981,0.714c-8.008,5.604-14.081,28.462-16.677,38.223c-0.338,1.274-0.635,2.395-0.891,3.311
		c-2.508,9.021-6.518,26.928-6.752,40.369c1.562-9.352,6.541-23.871,10.998-36.875c3.498-10.206,6.803-19.848,7.582-24.521
		C271.229,399.438,272.941,394.577,276.533,386.703z M346.96,36.682c1.249,0.135,2.962,0.354,5.106,0.696
		c1.961,0.829,4.073,1.807,6.059,2.896c4.57,2.509,10.371,8.214,15.98,13.73c2.097,2.061,4.075,4.007,5.987,5.792
		c0.245,0.229,0.26,0.613,0.03,0.858c-0.12,0.128-0.282,0.193-0.442,0.193c-0.147,0-0.299-0.054-0.414-0.163
		c-1.929-1.796-3.911-3.748-6.015-5.814c-5.552-5.458-11.291-11.103-15.714-13.532C353.834,39.303,349.652,37.656,346.96,36.682z
		 M374.391,45.233c4.978-2.231,9.566-3.618,13.65-4.639c0.138-0.034,0.272-0.068,0.406-0.101c0.53-1.392,1.605-2.615,2.655-3.813
		c1.56-1.775,2.641-3.117,2.348-4.221c-0.295-1.115-1.807-3.188-3.141-5.018c-2.688-3.686-5.464-7.498-4.894-11.013
		c0.238-1.459,1.038-2.709,2.314-3.616c2.256-1.603,4.846-2.485,7.291-2.485c2.271,0,4.214,0.754,5.662,2.067
		c0.654,0.595,1.204,1.311,1.641,2.121c0.004-0.001,0.009-0.001,0.013-0.002c0.638,1.194,1.019,2.604,1.08,4.176
		c0.248,6.068,1.399,14.203,3.116,18.008c0.886,1.961,1.739,3.799,2.391,5.185c0.231,0.107,0.472,0.218,0.712,0.332
		c2.406,1.133,4.198,1.851,5.642,2.428c0.524,0.211,1.016,0.408,1.482,0.604c0.016,0.006,0.025,0.011,0.039,0.017
		c0.473,0.197,0.919,0.395,1.355,0.601l0,0c2.065,0.983,3.896,2.232,6.779,5.114c5.158,5.158,10.465,16.911,15.146,27.279
		l1.427,3.15c3.064,6.744,7.686,11.362,11.057,14.733c1.912,1.914,3.426,3.425,4.384,4.959c2.5,3.964,3.415,9.705,2.812,17.54
		c-0.371,4.815-3.698,5.189-4.711,5.189c-2.324,0-4.779-1.627-5.969-2.536l-4.63-0.42c-4.837-0.439-8.242-3.965-11.534-7.375
		c-1.122-1.161-2.282-2.362-3.512-3.469c-1.982-1.784-6.368-2.322-11.014-2.892c-4.881-0.599-10.411-1.278-15.603-3.502
		c-2.188-0.937-4.372-1.918-6.521-2.882c-7.599-3.411-14.775-6.633-19.248-6.665c-4.041,1.16-16.905,26.587-25.553,50.523
		c-4.059,11.236-10.117,37.761-15.464,61.164c-2.813,12.323-5.476,23.963-7.365,31.189c-5.625,21.473-13.125,35.509-24.81,56.074
		c-8.622,15.175-6.019,29.466-3.923,40.95c0.756,4.139,1.469,8.048,1.601,11.593c0.517,13.866-15.278,34.362-25.954,41.835
		c-8.008,5.604-14.082,28.463-16.677,38.224c-0.338,1.273-0.636,2.394-0.892,3.31c-2.715,9.77-7.188,29.943-6.73,43.603
		c0.092,2.703,0.232,5.551,0.373,8.309c0.658,13.069,1.279,25.42-2.667,31.999c-4.038,6.729-4.038,29.422-4.038,51.362
		c0,17.611,1.368,27.502,2.271,34.047c0.291,2.096,0.521,3.746,0.644,5.216c0.519,6.189-0.494,9.45-2.096,13.722
		c-0.201,1.548,3.872,7.175,6.062,10.198c2.293,3.166,4.273,5.897,5.122,8.021c0.503,1.257,0.366,2.56-0.383,3.665
		c-1.927,2.846-8.582,4.288-19.783,4.288c-4.396,0-8.661-0.274-11.699-0.755c-2.798-0.441-4.773-1.649-5.87-3.59
		c-2.19-3.876-0.007-9.258,1.919-14.004c0.597-1.475,1.162-2.862,1.521-4.032c1.081-3.513-0.335-7.083-1.705-10.536
		c-0.728-1.834-1.415-3.566-1.766-5.324c-0.457-2.287,0.022-7.055,0.981-15.984c1.124-10.476,2.664-24.816,2.383-38.026
		c-0.092-4.324-0.149-8.249-0.202-11.814c-0.213-14.637-0.343-23.472-2.499-28.144c-2.551-5.524-1.317-14.56,0.112-25.021
		c0.397-2.907,0.809-5.92,1.14-8.904c1.468-13.216-1.025-41.534-3.369-52.317c-1.913-8.8-2.357-19.732-2.46-24.472
		c-2.273-0.025-5.854,0.161-9.76,0.998c-1.726,0.368-4.892,1.729-8.559,3.309c-9.893,4.255-25.005,10.742-39.752,10.386
		c-15.12-0.367-24.86-4.252-29.086-6.366c-1.632,3.263-5.324,10.416-13.054,24.589c-11.185,20.506-29.024,58.439-31.943,69.145
		c-2.635,9.656-2.479,76.376,1.996,101.236c2.671,14.839,9.216,19.328,13.547,22.301c2.717,1.863,5.283,3.624,4.996,7.075
		c-0.344,4.123-5.857,5.882-18.435,5.882c-7.879,0-15.556-0.711-15.879-0.741l-1.916-3.562c0.033-0.063,3.508-6.715,2.662-12.644
		c-0.465-3.263-2.841-5.479-5.356-7.824c-1.91-1.781-3.714-3.468-4.689-5.659c-1.185-2.667-0.57-8.742,0.713-20.146
		c1.05-9.327,2.241-19.898,2.002-28.516c-0.479-17.271-8.206-60.237-11.437-66.7c-2.469-4.938-0.036-10.176,3.333-17.425
		c2.303-4.956,5.17-11.125,7.208-18.869c3.465-13.164,0.938-24.914-4.094-48.323c-1.828-8.504-3.9-18.143-6.173-30.011
		c-0.167-0.875-0.325-1.733-0.477-2.583l0,0c-0.986-5.518-1.638-10.492-1.954-15.027c0.068,0.979,0.148,1.969,0.247,2.986
		c-0.708-7.262-0.622-13.425,0.285-18.803c-0.008,0.049-0.014,0.099-0.021,0.146c0.382-2.312,0.916-4.479,1.602-6.524
		c0.002-0.01,0.004-0.016,0.007-0.021c0.224-0.667,0.465-1.32,0.722-1.964c0.013-0.032,0.027-0.063,0.04-0.099
		c0.501-1.243,1.067-2.44,1.692-3.604c0.042-0.076,0.083-0.156,0.126-0.232c0.297-0.541,0.608-1.071,0.932-1.599
		c0.057-0.091,0.115-0.182,0.172-0.271c0.336-0.533,0.682-1.063,1.047-1.578c0.384-0.544,0.787-1.078,1.201-1.605
		c0.053-0.064,0.104-0.135,0.157-0.201c0.4-0.502,0.816-0.998,1.245-1.483c0.07-0.08,0.139-0.159,0.209-0.237
		c0.435-0.488,0.883-0.969,1.348-1.444c0.061-0.062,0.124-0.125,0.185-0.187c0.491-0.496,0.995-0.986,1.52-1.472
		c0.007-0.006,0.015-0.014,0.021-0.021c0.557-0.513,1.133-1.02,1.73-1.521c0.007-0.008,0.014-0.014,0.021-0.02
		c0.581-0.488,1.183-0.971,1.803-1.451c0.046-0.034,0.091-0.069,0.136-0.104c0.613-0.474,1.246-0.94,1.897-1.405
		c0.046-0.033,0.092-0.064,0.138-0.099c0.67-0.478,1.358-0.949,2.071-1.421c7.428-4.921,17.195-9.665,30.067-15.369
		c20.095-8.905,38.017-13.688,52.418-17.53c16.36-4.366,28.18-7.52,33.954-14.016c2.343-2.636,4.277-5.216,6.326-7.948
		c7.787-10.386,16.613-22.159,51.414-39.384c9.385-4.646,10.439-7.034,12.188-10.991c0.711-1.61,1.519-3.434,2.905-5.658
		c0.996-1.593,2.832-4.435,5.375-8.367c10.105-15.637,28.92-44.743,39.367-64.089l1.459-2.702
		c12.577-23.311,25.586-47.415,41.271-64.528c4.027-4.393,7.973-8.02,11.795-11.033l0.013-0.01
		c-0.576-0.507-1.172-1.029-1.788-1.564c-11.287-9.813-13-17.726-13.066-18.058c-0.074-0.366,0.024-0.747,0.267-1.031
		c0.246-0.284,0.596-0.452,0.978-0.424c0.23,0.01,5.771,0.272,15.775,2.441c5.979,1.296,10.164,4.525,13.979,8.693L374.391,45.233z
		 M450.229,116.529l0.783,0.071l0.592,0.504c0.938,0.799,2.392,1.683,3.197,1.848c0.039-0.145,0.081-0.361,0.105-0.677
		c0.513-6.668-0.188-11.581-2.073-14.602c-0.666-1.065-2.071-2.471-3.7-4.099c-3.635-3.634-8.609-8.612-12.043-16.158l-1.431-3.162
		c-4.286-9.495-9.62-21.312-14.151-25.843c-3.406-3.409-4.668-3.914-8.029-5.261c-1.498-0.601-3.364-1.348-5.898-2.541
		c-0.511-0.24-0.998-0.465-1.464-0.676l-0.814-0.368l-0.382-0.808c-0.685-1.448-1.72-3.663-2.803-6.062
		c-2.075-4.597-3.275-13.261-3.544-19.809c-0.125-3.06-1.993-3.702-3.539-3.702c-1.446,0-3.037,0.564-4.479,1.588
		c-0.298,0.21-0.317,0.347-0.334,0.437c-0.245,1.512,2.321,5.037,4.021,7.37c1.813,2.49,3.382,4.641,3.91,6.637
		c0.978,3.693-1.548,6.569-3.396,8.669c-0.644,0.733-1.721,1.961-1.789,2.428l0.192,2.094l-2.046,0.436
		c-0.601,0.144-1.226,0.297-1.896,0.464c-3.48,0.871-7.356,2.027-11.543,3.803l2.315,2.9c0.978,1.248,1.984,2.534,3.047,3.844
		c0.423,0.521,0.343,1.286-0.18,1.71c-0.521,0.424-1.285,0.343-1.709-0.178c-1.07-1.321-2.086-2.618-3.071-3.877
		c-5.642-7.204-10.097-12.893-18.212-14.653c-6.569-1.425-11.226-2.012-13.588-2.245c1.063,2.673,4.055,8.421,11.746,15.109
		c1.632,1.419,3.121,2.742,4.493,3.962c7.718,6.856,11.593,10.295,16.557,9.283c0.653-0.132,1.299,0.292,1.433,0.948
		c0.135,0.658-0.291,1.299-0.947,1.433c-0.762,0.154-1.495,0.23-2.216,0.23c-4.847,0.001-8.956-3.441-15.421-9.176l-0.01,0.011
		c-3.851,2.963-7.838,6.579-11.921,11.033c-15.279,16.668-28.141,40.502-40.579,63.552l-1.459,2.704
		c-10.538,19.515-29.419,48.725-39.563,64.417c-2.436,3.768-4.356,6.744-5.334,8.305c-1.207,1.93-1.904,3.514-2.582,5.046
		c-2.18,4.933-4.043,8.218-14.478,13.382c-33.763,16.711-41.855,27.505-49.681,37.944c-2.018,2.691-4.104,5.475-6.582,8.261
		c-6.744,7.587-19.155,10.899-36.333,15.483c-14.237,3.799-31.955,8.526-51.702,17.277c-43.471,19.266-53.605,28.839-45.368,71.859
		c2.263,11.813,4.329,21.425,6.151,29.903c5.195,24.165,7.803,36.294,4.043,50.581c-2.147,8.16-5.115,14.549-7.5,19.681
		c-2.796,6.016-4.815,10.362-3.394,13.204c3.775,7.552,11.48,51.878,11.948,68.737c0.249,8.956-0.962,19.709-2.03,29.192
		c-0.801,7.112-1.797,15.965-1.101,17.631c0.573,1.288,2.025,2.646,3.563,4.078c2.737,2.556,6.144,5.732,6.852,10.691
		c0.657,4.6-0.616,9.291-1.743,12.313c2.972,0.206,7.531,0.457,12.067,0.457c10.162,0,12.917-1.247,13.558-1.669
		c-0.191-0.538-1.13-1.229-2.867-2.424c-4.694-3.22-12.55-8.609-15.581-25.445c-4.333-24.067-5.02-91.942-1.901-103.377
		c3.051-11.185,20.819-49.021,32.365-70.188c11.458-21.009,14.025-26.585,14.049-26.641l1.184-2.597l2.375,1.581
		c0.091,0.063,10.003,6.439,28.917,6.901c13.715,0.339,28.206-5.901,37.714-9.991c4.062-1.747,7.27-3.128,9.46-3.598
		c4.267-0.914,8.163-1.105,10.68-1.105c1.643,0,2.656,0.083,2.698,0.087l2.227,0.187v2.234c0,0.148,0.03,14.979,2.38,25.792
		c2.409,11.082,4.966,40.241,3.45,53.888c-0.338,3.048-0.754,6.087-1.155,9.026c-1.271,9.302-2.471,18.089-0.515,22.325
		c2.588,5.606,2.715,14.311,2.946,30.107c0.052,3.557,0.109,7.471,0.201,11.78c0.288,13.522-1.271,28.045-2.41,38.649
		c-0.709,6.607-1.379,12.853-1.047,14.515c0.265,1.327,0.874,2.862,1.518,4.486c1.521,3.837,3.415,8.611,1.832,13.757
		c-0.422,1.371-1.025,2.856-1.663,4.432c-1.362,3.354-3.227,7.951-2.191,9.784c0.331,0.585,1.137,0.982,2.398,1.185
		c2.799,0.439,6.787,0.692,10.941,0.692c8.479,0,13.748-1.027,15.373-1.897c-0.818-1.609-2.566-4.022-4.265-6.364
		c-5.007-6.911-7.953-11.354-6.679-14.755c1.403-3.748,2.244-6.313,1.804-11.611c-0.111-1.336-0.332-2.932-0.611-4.951
		c-0.868-6.271-2.319-16.768-2.319-34.713c0-24.672,0-45.979,4.729-53.863c3.188-5.313,2.571-17.482,1.979-29.257
		c-0.143-2.771-0.285-5.644-0.377-8.388c-0.584-17.539,6.139-42.3,6.905-45.063c0.251-0.9,0.543-2.001,0.876-3.254
		c3.188-11.999,9.125-34.335,18.587-40.956c9.691-6.787,24.315-26.021,23.886-37.676c-0.119-3.195-0.802-6.938-1.522-10.899
		c-2.233-12.258-5.019-27.514,4.478-44.223c11.488-20.22,18.858-34.005,24.333-54.904c1.871-7.153,4.522-18.756,7.328-31.041
		c5.379-23.539,11.474-50.217,15.631-61.732c2.841-7.858,8.207-21.188,13.994-32.893c9.077-18.364,13.213-20.839,16.063-20.839
		c5.508,0,13.182,3.444,21.307,7.09c2.123,0.954,4.284,1.923,6.445,2.85c4.554,1.952,9.722,2.586,14.278,3.145
		c5.659,0.694,10.551,1.294,13.671,4.103c1.354,1.22,2.573,2.484,3.756,3.706c2.921,3.024,5.439,5.635,8.479,5.911l1.118,0.102
		l0.007-0.007c-3.973-3.357-7.827-6.708-11.85-10.733c-0.477-0.475-0.477-1.244,0.001-1.718c0.473-0.475,1.243-0.475,1.718,0
		c4.806,4.809,9.398,8.667,14.254,12.746c0.024,0.02,0.049,0.04,0.072,0.06L450.229,116.529z"/>
	
		<path id="Hooves" fill="#B65927" stroke="#B65927" stroke-width="4.8587" stroke-linecap="round" stroke-linejoin="round" stroke-miterlimit="10" d="
		M164.057,630.963c-0.488,2.923-21.923,3.898-25.333,2.923c-1.993-0.567-0.826-4.468-0.385-8.48
		c5.336-0.503,10.57-1.505,18.478-5.181C160.989,625.128,164.297,629.523,164.057,630.963z M247.852,630.476
		c9.742,0.977,19.485,1.462,20.947-1.462c1.262-2.522-6.925-6.504-12.004-10.994c-4.984,2.446-10.168,4.222-14.513,5.448
		C243.957,627.586,245.818,630.271,247.852,630.476z M69.544,635.835c0,0,31.179,2.924,31.667-2.923
		c0.304-3.646-5.267-4.452-10.566-10.45c-3.563,0.842-9.209,1.919-18.093,3.152C72.093,631.052,69.544,635.835,69.544,635.835z
		 M221.812,629.958c-1.662,4.815-2.159,9.348,3.628,10.261c9.255,1.462,31.18,0.979,29.23-3.896
		c-0.882-2.204-3.557-5.703-6.087-9.235C240.496,630.32,230.492,631.84,221.812,629.958z"/>
	<path id="Tailbush" fill="#3B1B0E" d="M24.723,440.478c-4.793-0.868-12.666,12.183-11.692,22.896
		c0.974,10.718,2.436,21.923,0,25.82c-2.436,3.896,4.384-3.41,4.384-3.41s0.974,15.591-2.923,23.385
		c-3.897,7.795,5.358-4.384,5.358-4.384s-5.358,12.178,1.949,21.435c7.307,9.257,17.538,8.771,17.538,8.771
		s-11.692-3.899-7.795-12.181c3.897-8.28,8.769-19.485,6.333-26.309c-2.436-6.82-6.82-13.642-6.82-13.642l5.846,3.41
		c0,0-5.847-3.896-5.846-18.515S30.082,441.451,24.723,440.478z"/>
	<path id="Spots" fill="#E69D48" d="M348.473,102.052c0,7.253-11.205,17.238-16.418,17.238c-5.214,0-4.185-4.607-4.185-11.86
		c0-7.254,13.302-19.383,18.515-19.383S348.473,94.799,348.473,102.052z M355.839,87.069c-2.88,0-1.956,4.398-1.956,7.009
		c0,2.61,0.658,10.616,3.538,10.616c2.881,0,8.852-10.125,8.852-12.735C366.271,89.348,358.719,87.069,355.839,87.069z
		 M359.061,74.136c3.009-4.157,0.403-4.536-1.271-5.749c-1.68-1.214-9.945,6.611-12.953,10.769c-3.007,4.157,2.293,4.05,3.973,5.264
		C350.482,85.634,356.054,78.293,359.061,74.136z M355.962,113.814c-4.842-1.048-20.75,16.488-21.523,20.065
		c-0.772,3.578-3.933,10.261,0.911,11.31c2.129,0.46,6.082,1.75,9.908,2.746c0.573-1.87,1.121-3.539,1.642-4.973
		c2.308-6.388,6.284-16.393,10.804-26.201C357.37,115.091,356.82,114,355.962,113.814z M312.335,234.718
		c-3.468-1.174-8.938,5.833-10.528,10.527c-1.588,4.693-1.037,15.023,2.43,16.196c1.598,0.541,5.935,1.513,10.449,0.537
		c3.107-6.893,5.75-13.909,8.057-21.906C319.075,237.5,314.252,235.367,312.335,234.718z M335.818,153.741
		c-4.761-2.31-11.382-6.87-13.925-1.629c-2.545,5.241-8.422,22.339-3.663,24.649c4.758,2.31,10.411,5.24,12.956,0
		C333.73,171.521,340.576,156.052,335.818,153.741z M264.557,281.685c-10.51,0-17.813,0.241-17.813,10.527
		c0,10.287-8.081,34.821,2.43,34.821c10.512,0,38.869-18.866,38.869-29.152C288.04,287.595,275.066,281.685,264.557,281.685z
		 M280.752,242.006c-8.945,0-15.387,17.362-15.387,24.293c0,6.932,13.729,9.717,22.675,9.717c8.944,0,6.478-10.073,6.478-17.005
		C294.518,252.08,289.695,242.006,280.752,242.006z M237.598,343.41c-6.708,0-15.147,13.619-15.147,19.656
		c0,6.039,8.678,17.007,15.386,17.007s15.389-13.397,15.389-19.437C253.221,354.602,244.309,343.41,237.598,343.41z
		 M279.941,323.794c-8.498,0-24.293,10.214-24.293,17.815c0,7.604,9.314,22.674,17.813,22.674c8.497,0,14.576-8.592,14.576-16.195
		C288.04,340.486,288.438,323.794,279.941,323.794z M237.834,239.577c-6.932,0-15.386,7.505-15.386,13.766
		c0,6.262,18.979,13.766,25.913,13.766c6.932,0,12.957-21.271,12.957-27.532C261.318,233.316,244.766,239.577,237.834,239.577z
		 M216.78,265.49c-9.839,0-21.055,17.754-21.055,22.674c0,4.919,12.835,4.049,22.674,4.049c9.84,0,17.816-5.607,17.816-10.527
		S226.62,265.49,216.78,265.49z M320.271,199.275c0,13.816-7.173,26.94-1.541,26.94c1.747,0,4.262,1.329,6.896,2.75
		c1.64-6.767,3.599-15.338,5.64-24.28c1.649-7.221,3.367-14.738,5.075-22.021C329.846,183.741,320.271,187.846,320.271,199.275z
		 M277.514,198.277c-5.812,0-13.768,16.104-13.768,23.484c0,7.38,3.094,10.527,8.906,10.527c5.813,0,16.197-23.393,16.197-30.772
		C288.85,194.137,283.328,198.277,277.514,198.277z M262.126,368.332c-3.801,0-6.478,10.104-6.478,14.576
		c0,4.472,3.082,4.855,6.881,4.855c3.803,0,6.885-3.625,6.885-8.098S265.928,368.332,262.126,368.332z M307.311,154.984
		c-7.156,0-22.509,22.959-22.509,30.338c0,7.379,2.563,3.239,9.718,3.239c7.156,0,12.957-6.387,12.957-13.766
		S314.467,154.984,307.311,154.984z M313.954,186.132c-3.131,0-13.444,6.937-17.006,12.957c-3.563,6.02-6.37,32.065-3.239,32.065
		c3.132,0,14.962-10.018,14.962-13.148S317.086,186.132,313.954,186.132z M307.961,135.685c-0.745,1.379-1.535,2.81-2.355,4.277
		c3.263,2.894,7.054,5.202,9.345,5.202c4.647,0,13.249-12.417,13.249-17.068c0-2.985-4.932-8.334-9.689-11.785
		c-3.07,5.532-6.095,11.128-9.092,16.681L307.961,135.685z M181.958,285.734c-8.257,0-27.532,6.135-27.532,12.958
		c0,6.821,11.987,13.766,20.244,13.766s11.337-5.326,11.337-12.147C186.007,293.489,190.215,285.734,181.958,285.734z
		 M229.736,301.121c-4.472,0-17.816-2.213-17.816,4.048c0,6.261,4.859,20.245,8.098,22.674c3.24,2.431,15.386,7.88,15.386,1.619
		S234.208,301.121,229.736,301.121z M207.873,323.794c-4.85-8.122-6.532-19.891-9.717-20.244c-5.367,0-9.718,25.099-9.718,31.581
		c0,6.485,30.767,11.657,31.582,6.479C220.835,336.432,214.122,334.257,207.873,323.794z M162.59,318.472
		c-5.367,0-8.975,5.896-8.975,11.6c0,5.701,14.317,9.238,19.684,9.238c5.367,0,4.631-8.188,4.631-13.893
		S167.958,318.472,162.59,318.472z M136.831,296.764c-4.955,0-22.865,5.605-22.865,9.842c0,4.234,21.673,16.208,26.628,16.208
		c4.956,0,9.262-5.026,9.262-9.264C149.856,309.315,141.786,296.764,136.831,296.764z M98.529,307.224
		c-5.52,2.482-10.478,4.819-14.883,7.102c2.123,7.011,9.362,19.652,14.256,19.652c5.79,0,15.128-8.404,15.128-13.535
		C113.031,316.397,104.835,309.825,98.529,307.224z M198.224,348.839c-3.665,0,0,7.749,0,11.413c0,3.665,9.872,9.023,13.536,9.023
		c3.664,0,2.919-10.936,2.919-14.601C214.679,351.014,201.888,348.839,198.224,348.839z M179.646,346.98
		c-4.911,0-14.332-1.696-14.332,2.92c0,4.615,7.033,19.106,11.943,19.106c4.911,0,10.616-3.077,10.616-7.694
		S184.557,346.98,179.646,346.98z M139.571,331.589c-4.397,0-7.962,9.937-7.962,14.331c0,4.396,16.237,15.428,25.478,16.189
		c4.397,0-1.592-12.476-3.184-16.723C152.311,341.143,143.968,331.589,139.571,331.589z M119.908,326.426
		c-2.516,0-10.932,12.668-10.932,15.186c0,2.517,9.327,10.933,11.843,10.933c2.516,0,6.984-17.224,6.984-19.737
		C127.803,330.291,122.424,326.426,119.908,326.426z M246.184,385.504c-3.205,0-5.803,9.355-5.803,13.118
		c0,3.761,5.372,13.622,8.577,13.622c3.204,0,7.063-12.131,7.063-15.896C256.021,392.589,249.389,385.504,246.184,385.504z
		 M219.443,378.945c-2.508,0-0.252,10.564-0.252,12.863c0,2.301,7.078,8.829,9.585,8.829c2.508,0,6.307-9.306,6.307-11.604
		S221.951,378.945,219.443,378.945z M194.468,369.863c-3.065,0-14.379,2.773-14.631,7.062c-0.126,5.558,25.946,10.597,29.011,10.597
		s2.774-7.104,2.774-9.332C211.622,375.959,197.533,369.863,194.468,369.863z M162.714,368.618c-2.18,0-9.647-1.646-9.647,1.206
		s0.955,17.605,3.135,17.605c2.18,0,16.884-1.729,16.884-4.584C173.086,379.996,164.894,368.618,162.714,368.618z M227.993,408.977
		c-1.219,2.092-2.263,8.011,1.218,8.877c3.481,0.87,11.316-0.866,12.362-2.607c1.045-1.741-4.354-10.619-7.487-11.146
		C230.953,403.578,229.212,406.888,227.993,408.977z M180.196,388.004c-3.243,0-4.312,4.641-4.312,7.658
		c0,3.02,2.629,5.466,5.871,5.466c3.242,0,16.774-5.057,16.774-8.075C198.529,390.035,183.438,388.004,180.196,388.004z
		 M161.106,393.232c-2.292,0-2.024,2.309-2.024,4.653c0,2.35,9.854,6.684,12.147,6.684c2.292,0-2.43-8.382-2.43-10.729
		C168.799,391.493,163.397,393.232,161.106,393.232z M129.169,355.529c-1.877,0-3.398,4.994-3.398,7.726
		c0,2.729,6.773,12.978,8.65,12.978s4.017-10.558,4.017-13.284C138.438,360.215,131.047,355.529,129.169,355.529z M144.617,370.359
		c-2.815,0-8.033,14.709-8.033,17.607c0,2.901,3.363,5.563,6.179,5.563c2.815,0,8.341,1.976,8.341-0.928
		C151.104,389.702,147.433,370.359,144.617,370.359z M55.518,341.438c4.075-1.347,10.936-10.244,10.936-13.711
		c0-0.65-0.255-1.24-0.686-1.775C60.71,330.471,57.369,335.414,55.518,341.438z M76.649,322.783c-3.497,0-9.577,12.599-9.577,15.756
		c0,3.156,7.47,7.104,10.967,7.104c3.499,0,8.497-5.803,8.497-8.959C86.535,333.527,80.147,322.783,76.649,322.783z M62.129,347.189
		c-3.754,0-5.561,9.084-5.561,12.666c0,3.584,5.515,6.485,9.269,6.485c3.753,0,7.414-9.083,7.414-12.666
		C73.25,350.096,65.882,347.189,62.129,347.189z M98.893,340.702c-2.218,0-9.578,5.334-9.578,7.723c0,2.392,10.14,8.65,12.358,8.65
		c2.218,0,4.016-1.938,4.016-4.325S101.11,340.702,98.893,340.702z M113.722,356.458c-3.924,0-11.122,11.842-11.122,14.829
		c0,2.984,9.978,12.666,13.902,12.666s9.577-2.885,9.577-5.869C126.08,375.098,117.647,356.458,113.722,356.458z M82.21,355.84
		c-3.669,0-11.122,14.09-11.122,16.991c0,2.899,17.338,8.651,21.007,8.651c3.668,0,5.562-13.478,5.562-16.375
		C97.657,362.206,85.878,355.84,82.21,355.84z M245.486,419.95c-2.26,0-5.457,9.864-5.457,11.937c0,2.073,1.832,3.752,4.094,3.752
		c2.26,0,5.115-6.796,5.115-8.865C249.238,424.699,247.747,419.95,245.486,419.95z M100.88,382.434
		c-2.731,0-3.069,11.349-3.069,13.983s7.5,8.526,10.231,8.526s5.116-10.324,5.116-12.961S103.612,382.434,100.88,382.434z
		 M79.053,384.82c-2.731,0,0.341,8.771,0.341,11.597s7.841,10.914,10.573,10.914c2.731,0,1.364-14.569,1.364-17.396
		C91.331,387.111,81.784,384.82,79.053,384.82z M70.526,386.868c0-3.673-6.5-13.304-9.891-13.304c-1.656,0-2.914,3.153-3.769,6.81
		c1.057,5.437,2.068,10.401,3.031,15c3.665,2.419,8.606,4.453,10.629,4.453C73.917,399.827,70.526,390.541,70.526,386.868z
		 M149.652,398.805c-2.542,0-12.449,2.06-12.449,3.752c0,1.695,4.108,4.774,6.65,4.774c2.543,0,14.325,0.671,14.325-1.023
		C158.178,404.612,152.194,398.805,149.652,398.805z M128.166,384.82c-2.072,0-9.891,5.961-9.891,7.845s5.09,4.434,7.162,4.434
		s9.208,1.887,9.208,0C134.645,395.215,130.237,384.82,128.166,384.82z M97.314,406.64c-1.957,0-1.181,17.538-1.181,20.962
		c0,3.428,2.176,2.657,4.133,2.657s4.133-14.881,4.133-18.305C104.4,408.529,99.271,406.64,97.314,406.64z M75.981,405.79
		c-2.854,0-2.362,6.641-2.362,9.005c0,2.363,12.794,8.415,15.648,8.415c2.853,0,1.771-5.605,1.771-7.972
		S78.835,405.79,75.981,405.79z M65.647,405.495c-0.763,0-2.011,0.266-3.447,0.711c0.097,0.451,0.196,0.913,0.291,1.355
		c1.456,6.771,2.708,12.597,3.674,17.786c1.589-0.33,2.729-0.961,2.729-2.141C68.895,419.948,68.665,405.495,65.647,405.495z
		 M74.504,422.914c-2.69,0-3.838,9.956-3.838,12.4c0,2.443,2.181,4.43,4.872,4.43s9.005-9.659,9.005-12.105
		C84.542,425.194,77.194,422.914,74.504,422.914z M90.447,430.001c-1.549,0-5.61,6.555-5.61,8.267c0,1.716,4.061,3.543,5.61,3.543
		c1.549,0,6.79-4.78,6.79-6.493S91.996,430.001,90.447,430.001z M80.704,443.286c-2.608,0-9.743,2.95-9.743,5.312
		c0,2.364,5.363,4.432,7.971,4.432c2.609,0,10.629-2.654,10.629-5.021S83.313,443.286,80.704,443.286z M71.255,455.982
		c-1.549,0-2.362,3.256-2.362,4.723c0,1.468,3.47,4.43,5.02,4.43c1.55,0,5.61-4.729,5.61-6.2
		C79.523,457.467,72.805,455.982,71.255,455.982z M64.62,464.428c-1.313,3.814-2.742,7.171-4.093,10.153
		c0.533,0.188,1.113,0.297,1.724,0.297c2.527,0,7.824-2.815,7.824-5.019C70.075,468.346,67.224,465.846,64.62,464.428z
		 M118.2,400.181c-2.446,0-8.857,10.79-8.857,12.991s-0.97,9.448,1.476,9.448c1.01,0,3.404-1.092,5.863-2.521
		c2.836-5.297,4.746-8.96,5.997-11.401C121.537,404.739,119.728,400.181,118.2,400.181z M61.449,479.19
		c-1.097,0-2.731,3.661-2.731,4.967c0,1.302,1.883,1.489,2.98,1.489c1.097,0,1.986-1.06,1.986-2.359S62.546,479.19,61.449,479.19z
		 M45.646,369.675c1.2,0,1.144-6.389,1.144-7.776c0-0.461-0.618-1.957-1.485-3.76c-0.701,2.777-1.347,5.754-1.924,9.006
		C44.336,368.593,45.217,369.675,45.646,369.675z M41.206,381.854c1.383-0.979,2.838-2.854,2.838-3.938
		c0-0.634-0.816-1.854-1.874-3.063C41.821,377.266,41.502,379.596,41.206,381.854z M366.223,79.056c-1.41,0-6.43,1.892-6.43,3.202
		c0,1.31,9.17,5.836,10.58,5.836c1.411,0,1.275-4.892,1.275-6.201C371.648,80.583,367.632,79.056,366.223,79.056z M387.036,49.385
		c-1.345,0-2.438,0.892-2.438,1.993s3.082,2.657,4.431,2.657c1.345,0,3.543-1.556,3.543-2.657S388.381,49.385,387.036,49.385z
		 M393.457,57.134c-1.468,0-6.421,1.679-6.421,2.657c0,0.979,1.188,3.1,2.657,3.1c1.467,0,6.421-1.457,6.421-2.436
		C396.114,59.478,394.925,57.134,393.457,57.134z M369.543,68.206c-3.118,0-3.32,4.595-3.32,5.757s5.738,1.771,8.856,1.771
		s4.648-2.27,4.648-3.432C379.729,71.14,372.662,68.206,369.543,68.206z M376.852,79.056c-2.264,0-0.887,5.114-0.887,6.643
		c0,1.529,2.941,2.436,5.203,2.436c2.264,0,4.098-1.239,4.098-2.768C385.266,83.838,379.113,79.056,376.852,79.056z M365.216,60.144
		c-1.282,0-4.309,2.338-4.309,3.744c0,1.406,1.042,2.546,2.325,2.546c1.282,0,4.398-2.803,4.398-4.209
		C367.633,60.819,366.499,60.144,365.216,60.144z M390.8,85.255c-1.282,0-1.993,2.32-1.993,3.543c0,1.223,4.146,3.1,5.429,3.1
		c1.282,0,2.322-0.991,2.322-2.214S392.083,85.255,390.8,85.255z M385.413,67.743c-0.988,0-1.651,6.841-1.651,7.981
		s1.767,3.302,2.752,3.302c0.988,0,3.306-4.227,3.306-5.367C389.816,72.52,386.4,67.743,385.413,67.743z M400.274,90.997
		c-1.444,0-1.651,1.489-1.651,2.477c0,0.988,3.646,3.853,5.091,3.853s0.688-1.626,0.688-2.614
		C404.402,93.724,401.718,90.997,400.274,90.997z M393.943,78.75c-1.216,0-2.2,0.678-2.2,1.514c0,0.836,1.836,2.7,3.052,2.7
		s1.352-1.864,1.352-2.7C396.146,79.429,395.16,78.75,393.943,78.75z M421.932,96.532c-1.216,0-3.095,1.545-3.095,2.381
		c0,0.835,4.259,1.904,5.477,1.904c1.217,0,0.771-2.138,0.771-2.973C425.085,97.007,423.146,96.532,421.932,96.532z M414.909,90.105
		c-1.249,0-5.594-0.469-5.594,0.714c0,1.184,4.345,3.571,5.594,3.571s2.262-0.959,2.262-2.143
		C417.171,91.064,416.158,90.105,414.909,90.105z"/>
	<path id="Nose" fill="#B65927" d="M452.84,103.665c-0.579-0.926-1.72-2.112-3.079-3.478c-1.689,1.287-1.959,2.712,0.438,4.359
		c1.149,0.792,2.536,1.453,3.886,1.925C453.751,105.407,453.34,104.465,452.84,103.665z"/>
	<path id="Eye" d="M412.236,71.295c0,0-5.535,1.739-9.401,1.739c-3.864,0-6.997-2.169-6.997-4.845c0-2.676,3.682-2.563,7.107-2.112
		C406.37,66.528,412.236,71.295,412.236,71.295z"/>
	<path id="Horns" fill="#B65927" d="M410.759,17.778c-0.039,1.429-0.08,2.962-0.095,4.579c-0.007,0.646-0.271,1.264-0.732,1.715
		c-0.463,0.452-1.062,0.695-1.73,0.691c-1.304-0.02-4.325-0.035-4.325-0.035c0,0-0.026-0.333-0.065-0.85
		c-0.02-0.258-0.083-0.5-0.107-0.832c-0.047-0.619-0.153-1.284-0.203-1.969c-0.042-0.562-0.077-1.216-0.109-1.672
		c-0.028-0.402,0.038-0.735,0.024-0.955c-0.155-2.566-1.123-4.654-2.687-6.074c1.383-0.327,2.811-0.598,4.142-0.598
		c1.883,0,3.364,0.542,4.402,1.609C410.307,14.452,410.807,15.928,410.759,17.778z M395.03,10.321c-2.442,0-5.029,0.881-7.283,2.483
		c-1.52,1.079-3.708,3.632-1.313,8.604c0.409,0.849,1.268,1.375,2.188,1.375c0.112,0,0.228-0.008,0.343-0.024l12.365-1.755
		c1.253-0.178,2.159-1.289,2.083-2.552C403.113,13.513,399.823,10.321,395.03,10.321z"/>
</g>
</svg>
