<?xml version="1.0" encoding="utf-8"?>
<!-- Generator: Adobe Illustrator 15.0.0, SVG Export Plug-In . SVG Version: 6.00 Build 0)  -->
<!DOCTYPE svg PUBLIC "-//W3C//DTD SVG 1.1//EN" "http://www.w3.org/Graphics/SVG/1.1/DTD/svg11.dtd">
<svg version="1.1" id="Layer_1" xmlns="http://www.w3.org/2000/svg" xmlns:xlink="http://www.w3.org/1999/xlink" x="0px" y="0px"
	 width="156px" height="309px" viewBox="0 0 156 309" enable-background="new 0 0 156 309" xml:space="preserve">
<g id="Girl.svg">
	<path id="Body" fill="#FFFFFF" d="M79.059,91.658l9.354-2.871c0.664,3.326,2.083,6.74,5.075,7.652
		c6.289,1.918-5.807,13.238-15.235,13.238S58.302,96.984,65.011,94.989c2.952-0.878,4.465-2.879,5.142-5.277L79.059,91.658z
		 M99.707,143.988c0.904,3.287,2.057,6.193,3.391,8.529c3.362,5.884,7.381,20.265,9.902,26.148c0,0,2.18,7.249,2.089,8.935
		c-0.091,1.687,3.111,10.491,4.47,11.453c1.355,0.965,5.842,4.912,8.529,4.025c2.688-0.892,4.505-2.831,4.355-3.883
		c-0.147-1.051-2.984-8.18-2.735-8.357c0.246-0.179,3.783,1.966,4.707-0.491c0.925-2.457-5.058-5.794-7.099-6.383
		c-5.471-3.793-5.735-3.342-7.006-7.049c-1.271-3.707-0.578-13.109-2.26-20.677c-1.681-7.567-2.707-12.512-4.878-19.043
		c-1.7-5.115-0.58-23.318-2.838-32.284l-9.417,12.004L99.707,143.988z M55.386,142.796c-1.259,3.665-2.701,6.885-4.028,9.207
		c-3.362,5.885-7.52,20.337-9.698,26.357c-1.594,4.406,0.475,6.602,1.876,10.062c1.418,3.503,1.812,7.091,0.859,7.594
		c-3.011,1.467-4.811-4.484-5.315-4.394c-0.243,0.044,0.543,4.05,1.161,5.969c0.618,1.92,5.213,5.471,3.009,7.021
		c-2.579,1.863-9.313-7.163-10.029-9.169c-0.716-2.006-0.114-9.171-0.114-11.436c0-5.885,2.212-16.44,3.894-24.008
		c1.682-7.566,3.898-17.464,6-21.667c1.55-3.1,0.439-19.375,2.163-29.666l10.087,10.334L55.386,142.796z M76.109,208.555
		c0,0,24.599,1.074,24.448,3.64c-0.149,2.563-1.207,10.255-1.356,13.724c-0.151,3.47-1.659,11.613-1.509,14.328
		c0.151,2.715,0.604,6.636,0,9.803c-0.603,3.167-1.848,20.605-2.148,24.074c-0.302,3.468,6.391,6.331,9.104,8.142
		c2.715,1.81,6.752,4.577,7.168,7.167c0.416,2.589-1.043,5.673-6.021,6.879s-12.396-3.508-13.903-5.017s-9.845-4.726-10.486-7.312
		c-0.641-2.586,1.961-8.295,1.961-11.914c0-3.62-2.86-10.64-3.463-15.164c-0.604-4.524,0.146-11.078,0.295-11.982
		c0.152-0.904,0.453-3.316-1.055-8.145c-1.509-4.826-1.96-8.746-2.112-13.12L76.109,208.555z M77.707,208.604c0,0,0,4.644,0,9.588
		s-0.6,10.167-1.199,12.863c-0.599,2.695-0.599,6.441-0.299,8.988c0.299,2.546-1.797,14.381-2.247,17.826
		c-0.45,3.445-2.097,17.814-2.397,19.013c-0.299,1.198,2.247,5.543,2.097,8.39s-3.701,5.591-7.041,6.441
		c-3.34,0.852-8.083,4.698-12.427,5.599c-4.344,0.897-11.555-2.611-9.89-7.022c1.411-3.735,8.781-6.431,10.893-8.17
		c3.633-3.021,5.733-4.442,4.833-10.03c-0.45-2.695-2.847-18.264-3.296-20.96c-0.449-2.694,0.75-6.591,0.599-8.838
		s-1.947-9.139-2.996-13.333c-1.048-4.194-1.199-10.019-1.948-15.561L77.707,208.604z"/>
	<path id="Head" fill="#FFFFFF" d="M107.98,54.285c0,19.538-15.783,37.373-29.662,37.373c-13.607,0-29.665-17.835-29.665-37.373
		c0-2.871,0.287-14.394,0.829-16.786c3.143-13.887,14.86-19.863,28.836-19.863c13.957,0,25.664,5.962,28.824,19.81
		C107.691,39.852,107.98,51.391,107.98,54.285z"/>
	<path id="BodyBorder" fill="#262626" d="M42.438,206.113c-0.313,0-0.663-0.049-1.052-0.17c-3.553-1.104-8.637-8.104-9.343-10.081
		c-0.566-1.584-0.459-5.155-0.274-9.314c0.047-1.057,0.088-1.962,0.088-2.54c0-5.867,2.097-16.058,3.923-24.278
		c1.646-7.405,3.899-17.548,6.102-21.954c0.648-1.298,0.769-6.524,0.884-11.58c0.134-5.855,0.286-12.492,1.164-17.733
		c0.114-0.681,0.756-1.143,1.439-1.025c0.681,0.112,1.14,0.758,1.026,1.438c-0.849,5.065-0.999,11.607-1.13,17.379
		c-0.159,6.926-0.291,10.927-1.147,12.641c-2.065,4.132-4.372,14.511-5.898,21.38c-1.799,8.096-3.864,18.11-3.864,23.735
		c0,0.604-0.041,1.549-0.09,2.651c-0.118,2.659-0.315,7.111,0.131,8.363c0.521,1.458,5.141,7.729,7.73,8.533
		c0.23,0.072,0.361,0.063,0.39,0.042l0.084-0.07c0.083-0.471-1.158-2.03-1.755-2.779c-0.78-0.979-1.517-1.904-1.796-2.773
		c-0.019-0.058-1.75-5.832-1.063-6.979c0.185-0.31,0.516-0.54,0.87-0.604c1.028-0.179,1.492,0.667,2.031,1.652
		c1.022,1.869,1.893,3.085,2.736,2.923c0.166-0.77-0.085-3.205-1.248-6.076c-0.283-0.697-0.602-1.357-0.91-1.995
		c-1.188-2.456-2.417-4.996-0.982-8.96c0.599-1.656,1.342-3.938,2.204-6.576c2.269-6.958,5.093-15.618,7.584-19.978
		c1.362-2.384,2.758-5.576,3.932-8.992c0.225-0.652,0.935-0.998,1.588-0.776c0.653,0.225,1,0.936,0.776,1.589
		c-1.223,3.561-2.688,6.905-4.125,9.421c-2.364,4.138-5.262,13.022-7.378,19.512c-0.868,2.66-1.617,4.959-2.229,6.65
		c-1.076,2.975-0.254,4.672,0.882,7.022c0.326,0.674,0.664,1.371,0.977,2.145c1.075,2.655,2.518,7.988,0.285,9.168
		c-1.475,0.717-2.712,0.343-3.708-0.439c0.053,0.187,0.106,0.362,0.159,0.527c0.14,0.436,0.794,1.257,1.372,1.982
		c1.225,1.539,2.492,3.131,2.264,4.714c-0.1,0.696-0.479,1.294-1.098,1.729C43.636,205.874,43.128,206.113,42.438,206.113z
		 M121.49,198.952c-0.155-0.118-0.295-0.226-0.416-0.319c-0.32-0.246-0.59-0.453-0.77-0.58c-1.092-0.979-4.025-9.011-3.968-10.385
		c0.099-1.811-1.765-8.114-2.14-9.36c-0.014-0.045-0.03-0.089-0.049-0.133c-0.946-2.21-2.14-5.731-3.401-9.461
		c-2.077-6.132-4.431-13.083-6.563-16.815c-1.285-2.25-2.386-5.022-3.271-8.241c-0.183-0.666-0.871-1.057-1.537-0.873
		c-0.666,0.183-1.058,0.871-0.874,1.537c0.939,3.419,2.122,6.386,3.512,8.817c2.014,3.523,4.325,10.353,6.365,16.378
		c1.268,3.739,2.464,7.275,3.443,9.578c0.878,2.926,2.072,7.436,2.019,8.438c-0.106,1.991,3.208,11.276,4.992,12.539
		c0.183,0.13,0.425,0.317,0.714,0.54c1.814,1.399,4.984,3.843,7.708,3.843c0.421,0,0.832-0.059,1.226-0.188
		c3.131-1.039,5.463-3.394,5.199-5.243c-0.078-0.556-0.492-1.742-1.42-4.316c-0.221-0.613-0.492-1.366-0.73-2.051
		c1.438,0.285,3.275,0.205,4.055-1.868c0.204-0.541,0.333-1.413-0.21-2.494c-1.289-2.567-5.739-4.876-7.502-5.464
		c-0.923-0.638-1.696-1.153-2.349-1.59c-3.068-2.05-3.127-2.089-4.032-4.729c-0.552-1.605-0.705-4.594-0.884-8.052
		c-0.205-3.955-0.438-8.438-1.338-12.491l-0.424-1.915c-1.441-6.518-2.484-11.227-4.488-17.251c-0.74-2.229-0.918-7.55-1.106-13.184
		c-0.222-6.62-0.474-14.123-1.705-19.013c-0.168-0.669-0.851-1.077-1.517-0.906c-0.67,0.168-1.076,0.848-0.907,1.519
		c1.166,4.63,1.413,11.99,1.63,18.484c0.203,6.072,0.379,11.316,1.234,13.888c1.961,5.902,2.992,10.56,4.418,17.003l0.426,1.918
		c0.855,3.85,1.082,8.221,1.281,12.077c0.188,3.646,0.352,6.797,1.016,8.732c1.146,3.344,1.725,3.803,5.008,5.997
		c0.68,0.453,1.491,0.995,2.469,1.674c0.112,0.077,0.236,0.136,0.367,0.174c1.574,0.454,5.346,2.608,6.168,4.248
		c0.076,0.15,0.155,0.358,0.105,0.493c-0.137,0.364-0.439,0.659-2.463-0.072c-0.209-0.073-0.411-0.147-0.612-0.196l0.004,0.003
		l-2.827-1.452c-0.283-0.146-0.552-0.15-0.783,0.066c-0.424,0.184-2.601-0.071-3.92-0.778c-0.55-0.293-0.636-0.501-0.644-0.524
		c0.058-0.405-0.217-0.791-0.622-0.854c-0.404-0.07-0.788,0.197-0.857,0.604c-0.097,0.561,0.069,1.378,1.41,2.097
		c1.196,0.644,3.752,1.287,5.053,0.893l1.471,0.755c-0.166,0.61,0.248,1.762,1.454,5.109c0.519,1.439,1.229,3.412,1.294,3.746
		c-0.025,0.168-0.234,0.501-0.622,0.888v0.001c-0.742-1.423-2.308-4.604-2.956-6.413c-0.141-0.391-0.57-0.595-0.959-0.453
		c-0.391,0.14-0.594,0.569-0.453,0.959c0.664,1.854,2.365,5.349,3.163,6.839c-0.47,0.287-1.028,0.559-1.679,0.772
		c-0.104,0.034-0.215,0.056-0.332,0.064v0.01c-0.342-0.425-1.104-2.474-1.613-3.843c-0.502-1.35-0.977-2.625-1.361-3.379
		c-0.188-0.369-0.64-0.516-1.009-0.327c-0.368,0.188-0.515,0.642-0.327,1.01c0.346,0.677,0.826,1.97,1.291,3.22
		c0.461,1.24,0.812,2.159,1.104,2.839v0.001c-0.549-0.25-1.121-0.575-1.672-0.924v-0.001c-0.014-0.122-0.058-0.242-0.129-0.349
		c-0.244-0.354-1.092-2.705-1.6-4.11c-0.295-0.819-0.572-1.586-0.779-2.123c-0.148-0.387-0.584-0.578-0.969-0.431
		c-0.387,0.148-0.578,0.583-0.43,0.97c0.203,0.53,0.477,1.285,0.768,2.093c0.338,0.936,0.619,1.71,0.856,2.34h-0.003V198.952z
		 M89.812,89.337c10.328-6.22,19.418-19.839,19.418-35.052c0-2.729-0.27-14.485-0.869-17.119
		c-3.014-13.207-13.963-20.78-30.042-20.78c-16.104,0-27.059,7.596-30.056,20.838c-0.583,2.575-0.859,14.438-0.859,17.062
		c0,16.091,10.172,30.399,21.22,36.054l0.002-0.001c-0.754,1.746-2.076,2.892-3.971,3.454c-2.176,0.646-3.282,2.36-2.958,4.585
		c0.763,5.248,9.249,12.552,16.556,12.552c7.763,0,17.462-7.1,18.181-11.91c0.267-1.789-0.697-3.2-2.58-3.773
		C91.701,94.588,90.479,92.097,89.812,89.337L89.812,89.337z M105.924,37.723c0.49,2.149,0.809,13.215,0.809,16.562
		c0,19.454-15.623,36.123-28.413,36.123c-12.525,0-28.415-17.008-28.415-36.123c0-3.338,0.313-14.37,0.798-16.51
		c3.719-16.438,18.899-18.891,27.617-18.891C87.023,18.885,102.186,21.332,105.924,37.723z M93.96,98.649
		c-0.458,3.073-8.61,9.778-15.708,9.778c-6.357,0-13.526-6.588-14.083-10.411c-0.146-1.002,0.201-1.532,1.197-1.828
		c2.124-0.632,4.32-2.01,5.532-4.891l-0.031,0.064c2.506,1.004,5.025,1.545,7.45,1.545c3.003,0,6.151-0.83,9.242-2.342
		c0.871,3.153,2.508,6.137,5.563,7.067C94.068,97.923,94.008,98.325,93.96,98.649z M66.382,245.723
		c0.538-0.123,0.875-0.66,0.751-1.198c-0.123-0.538-0.66-0.875-1.198-0.751c-1.904,0.437-4.41,0.565-4.962,0.053
		c-0.404-0.376-1.038-0.352-1.413,0.053c-0.376,0.405-0.352,1.038,0.053,1.414c0.722,0.67,1.94,0.876,3.166,0.876
		C64.251,246.169,65.735,245.871,66.382,245.723z M75.06,207.833l-22.902,4.337c-0.653,0.124-1.095,0.737-1.006,1.396
		c0.276,2.043,0.472,4.142,0.66,6.172c0.326,3.498,0.633,6.803,1.313,9.524l0.429,1.706c1.016,4.032,2.408,9.557,2.532,11.406
		c0.056,0.834-0.12,2.041-0.306,3.32c-0.266,1.833-0.568,3.91-0.279,5.64c0.223,1.343,0.929,5.87,1.637,10.412
		c0.715,4.59,1.433,9.193,1.658,10.542c0.744,4.614-0.612,5.736-3.886,8.446l-0.507,0.42c-0.559,0.46-1.708,1.086-2.925,1.749
		c-3.209,1.749-7.203,3.925-8.343,6.944c-0.598,1.584-0.377,3.197,0.64,4.668c1.677,2.426,5.441,4.187,8.949,4.188c0,0,0,0,0.001,0
		c0.606,0,1.186-0.057,1.723-0.168c2.581-0.534,5.247-2.009,7.599-3.31c1.821-1.007,3.541-1.958,4.884-2.302
		c3.777-0.963,7.794-4.063,7.979-7.588c0.098-1.85-0.725-4.08-1.387-5.872c-0.313-0.85-0.742-2.013-0.746-2.277
		c0.205-0.819,0.829-5.951,1.688-13.112c0.314-2.62,0.589-4.916,0.736-6.042c0.118-0.897,0.348-2.37,0.618-4.1
		c1.024-6.56,1.854-12.143,1.631-14.035c-0.159-1.354-0.235-3.177-0.153-4.979h0.012c0.189,0.723,0.401,1.465,0.64,2.229
		c0.984,3.152,1.326,5.698,1.016,7.565c-0.143,0.854-0.937,7.595-0.302,12.354c0.284,2.126,1.032,4.737,1.756,7.264
		c0.834,2.91,1.696,5.919,1.696,7.735c0,1.499-0.527,3.521-1.037,5.479c-0.674,2.585-1.311,5.026-0.887,6.735
		c0.506,2.041,3.438,3.749,7.523,5.94c1.352,0.724,2.881,1.545,3.292,1.954c1.536,1.536,7.873,5.577,13.043,5.577l0,0
		c0.722,0,1.407-0.077,2.038-0.229c5.891-1.428,7.432-5.358,6.96-8.292c-0.478-2.967-4.229-5.689-7.708-8.009
		c-0.604-0.403-1.381-0.849-2.203-1.318c-2.439-1.396-6.519-3.729-6.35-5.674c0.07-0.809,0.191-2.371,0.344-4.335
		c0.467-6.028,1.338-17.25,1.788-19.614c0.526-2.764,0.302-5.986,0.12-8.576c-0.038-0.54-0.074-1.054-0.1-1.529
		c-0.078-1.402,0.373-4.729,0.77-7.667c0.346-2.549,0.671-4.955,0.74-6.537c0.083-1.928,0.461-5.26,0.794-8.199
		c0.265-2.342,0.495-4.363,0.562-5.505c0.02-0.323-0.048-0.81-0.474-1.281c-2.188-2.425-18.329-3.382-25.167-3.681
		c-0.363-0.024-0.698,0.118-0.946,0.373L75.06,207.833z M110.579,289.629c0.409,2.554-1.489,4.597-5.08,5.467
		c-0.438,0.105-0.927,0.159-1.449,0.159c-4.426,0-10.147-3.717-11.276-4.845c-0.639-0.639-1.89-1.325-3.877-2.391
		c-1.949-1.045-6.002-3.219-6.279-4.339c-0.271-1.093,0.34-3.437,0.879-5.505c0.55-2.107,1.117-4.289,1.117-6.108
		c0-2.167-0.87-5.207-1.793-8.425c-0.698-2.438-1.422-4.96-1.68-6.904c-0.586-4.391,0.162-10.848,0.289-11.612
		c0.377-2.257,0.008-5.19-1.095-8.723c-1.595-5.104-1.93-9.163-2.057-12.823l-0.836-13.712c9.466,0.472,19.855,1.565,21.839,2.666
		c-0.09,1.146-0.301,3.004-0.521,4.957c-0.338,2.98-0.721,6.358-0.808,8.372c-0.063,1.468-0.397,3.93-0.72,6.312
		c-0.451,3.344-0.879,6.5-0.787,8.142c0.027,0.487,0.063,1.013,0.103,1.564c0.171,2.445,0.384,5.488-0.083,7.936
		c-0.477,2.499-1.32,13.384-1.824,19.888c-0.152,1.953-0.272,3.508-0.343,4.312c-0.308,3.537,4.075,6.045,7.597,8.061
		c0.785,0.449,1.525,0.873,2.06,1.229C105.833,284.557,110.236,287.491,110.579,289.629z M53.779,214.407l22.678-4.294v8.079
		c0,4.812-0.588,9.978-1.169,12.592c-0.645,2.902-0.625,6.815-0.32,9.406c0.201,1.708-0.938,9.001-1.619,13.356
		c-0.274,1.756-0.507,3.25-0.626,4.161c-0.148,1.131-0.424,3.438-0.74,6.068c-0.576,4.805-1.447,12.063-1.63,12.804
		c-0.215,0.861,0.135,1.878,0.826,3.75c0.582,1.577,1.306,3.539,1.236,4.876c-0.106,2.021-2.958,4.495-6.102,5.297
		c-1.653,0.422-3.51,1.448-5.476,2.535c-2.304,1.274-4.687,2.592-6.896,3.05c-0.371,0.076-0.78,0.115-1.216,0.115l0,0
		c-2.661,0-5.688-1.366-6.894-3.108c-0.543-0.786-0.66-1.561-0.357-2.363c0.812-2.151,4.504-4.163,7.2-5.632
		c1.382-0.753,2.575-1.403,3.323-2.02l0.507-0.42c3.328-2.754,5.731-4.744,4.759-10.777c-0.226-1.352-0.941-5.942-1.655-10.521
		c-0.709-4.554-1.417-9.094-1.641-10.438c-0.224-1.346,0.036-3.138,0.288-4.87c0.206-1.413,0.399-2.748,0.326-3.846
		c-0.139-2.076-1.505-7.497-2.603-11.852l-0.427-1.701c-0.634-2.538-0.933-5.75-1.25-9.151
		C54.146,217.834,53.985,216.117,53.779,214.407z"/>
	<path id="Skirt" fill="#FFD731" d="M108,192.001c-3-15-8.549-29.288-9.264-29.169c-0.715,0.118-8.479,4.776-21.833,4.776
		s-21.881-7.942-21.881-7.942c-1.073,0.834-5.366,11.446-6.2,15.381c-0.323,1.521-1.783,7.743-3.444,14.86
		c0.833,2.749,1.368,6.279-0.399,7.213c-0.482,0.234-0.936,0.342-1.366,0.367c-0.165,0.708-0.328,1.413-0.489,2.109
		c1.113,1.411,2.15,2.862,1.942,4.308c-0.1,0.696-0.479,1.294-1.098,1.729c-0.333,0.24-0.841,0.479-1.531,0.479
		c-0.238,0-0.504-0.041-0.785-0.107c-1.18,5.192-2.016,9.035-1.978,9.378c0.119,1.073,0.733,7.876,10.629,8.948
		c9.896,1.073,14.616-2.038,18.865,0.511c4.249,2.55,7.988-1.869,7.988-1.869s2.835,2.413,11.897,2.89
		c9.062,0.478,11.326-5.079,15.775-3.729c4.449,1.351,7.693-0.43,8.052-1.025C113.238,220.511,111,207.001,108,192.001z"/>
	<path id="SkirtBorder" fill="#DDAA19" d="M53.366,194.363c-0.117,0-0.235-0.021-0.351-0.063c-0.517-0.193-0.779-0.771-0.585-1.287
		c0.464-1.237,3.008-11.301,3.521-19.158c0.036-0.55,0.524-0.946,1.063-0.934c0.551,0.036,0.969,0.513,0.933,1.063
		c-0.503,7.71-3.033,18.102-3.644,19.729C54.151,194.116,53.771,194.363,53.366,194.363z M44.979,197.12
		c-0.973,0.474-1.84,0.465-2.605,0.186c-0.081,0.349-0.161,0.691-0.238,1.027c0.213,0.282,0.442,0.575,0.667,0.857
		c0.454,0.57,0.913,1.146,1.3,1.729c0.289-1.253,0.584-2.527,0.88-3.802C44.981,197.118,44.98,197.119,44.979,197.12z
		 M109.227,191.756c-1.756-8.775-4.205-16.513-5.509-20.344c-3.346-9.831-4.136-9.831-4.973-9.831c-0.067,0-0.146,0.007-0.213,0.019
		c-0.275,0.046-0.534,0.163-1.158,0.446c-2.342,1.066-9.472,4.313-20.471,4.313c-12.669,0-20.948-7.532-21.03-7.608
		c-0.449-0.415-1.135-0.446-1.618-0.07c-1.59,1.236-5.951,12.782-6.656,16.108c-0.268,1.264-1.32,5.768-2.653,11.469
		c-0.118,0.508-0.231,0.991-0.346,1.481c0.03,0.073,0.063,0.139,0.093,0.214c0.497,1.228,1.067,3.022,1.322,4.718
		c0.484-2.075,0.949-4.064,1.365-5.844c1.335-5.717,2.391-10.23,2.664-11.52c0.735-3.467,3.837-11.147,5.227-13.805
		c2.772,2.167,10.566,7.355,21.631,7.355c11.387,0,18.84-3.324,21.405-4.491c1.543,3.036,5.936,15.224,8.467,27.879
		c2.982,14.916,4.764,25.951,4.89,28.271c-0.494,0.302-1.731,0.859-3.599,0.859c-0.943,0-1.91-0.147-2.873-0.439
		c-0.461-0.141-0.909-0.225-1.364-0.254l-0.042-0.104l-0.818-11.444c-0.039-0.552-0.504-0.962-1.068-0.927
		c-0.551,0.039-0.965,0.519-0.926,1.068l0.83,11.619h0.002c-1.072,0.289-2.084,0.816-3.135,1.366
		c-2.314,1.208-4.973,2.591-9.551,2.352c-6.93-0.364-10.021-1.897-10.887-2.419l0.038-0.102c0.248-2.933,0.384-10.101,0.438-13.475
		c0.009-0.552-0.432-1.007-0.984-1.016c-0.005,0-0.011,0-0.016,0c-0.545,0-0.991,0.438-1,0.983
		c-0.085,5.438-0.257,11.503-0.431,13.496l0.007-0.006c-0.027,0.026-0.053,0.054-0.078,0.083c-0.019,0.022-1.934,2.223-4.296,2.223
		c-0.723,0-1.409-0.2-2.097-0.613c-0.637-0.382-1.293-0.667-2.003-0.864l-0.013-0.002l0.163-6.022
		c0.015-0.553-0.42-1.012-0.973-1.026c-0.566-0.014-1.012,0.42-1.026,0.973l-0.155,5.758c0.003,0,0.006,0,0.009,0l-0.009,0.001
		v-0.001c-0.265-0.017-0.539-0.023-0.822-0.023c-1.232,0-2.513,0.146-3.996,0.312c-1.834,0.207-3.913,0.442-6.376,0.442
		c-1.399,0-2.763-0.074-4.171-0.229c-7.539-0.815-9.198-5.136-9.511-7.751c0.084-0.755,0.903-4.479,1.993-9.266
		c-0.149,0.026-0.31,0.041-0.482,0.041c-0.313,0-0.663-0.049-1.052-0.17c-0.293-0.091-0.599-0.234-0.909-0.399
		c-1.731,7.605-2.093,9.545-2.04,10.021c0.291,2.659,2.017,8.958,11.732,10.011c1.498,0.162,2.951,0.241,4.44,0.241
		c2.604,0,4.758-0.244,6.657-0.459c1.408-0.159,2.625-0.297,3.715-0.297c1.486,0,2.546,0.256,3.543,0.854
		c1.073,0.645,2.211,0.97,3.383,0.97c2.424,0,4.389-1.399,5.42-2.32c1.533,0.834,5,2.197,11.658,2.547
		c0.398,0.021,0.785,0.031,1.158,0.031c4.582,0,7.41-1.478,9.683-2.663c1.825-0.952,3.136-1.606,4.639-1.149
		c1.198,0.363,2.409,0.548,3.599,0.548c2.85,0,5.275-1.104,5.888-2.127C114.814,220.315,110.934,200.296,109.227,191.756z"/>
	<path id="Shirt" fill="#FFD2F7" d="M64.338,93.634c-4.417,0.475-11.069,1.761-14.855,4.915c-3.786,3.156-6.626,8.992-6.626,8.992
		s11.674,9.309,12.463,12.463c0.789,3.155,0.058,21.324,0.058,25.583c0,4.261-0.531,14.33-0.058,14.804
		c0.473,0.473,5.384,7.491,20.907,7.491s22.441-3.171,22.914-4.748c0.473-1.576,0.256-9.888,0.414-13.83
		c0.157-3.944,1.041-26.933,1.356-29.456c0.315-2.524,3.47-7.729,5.679-10.569c2.208-2.841,5.002-5.417,5.002-5.417
		s-5.669-8.1-16.99-9.097c-1.686,0.346-16.066,11.224-16.066,11.224L64.338,93.634z"/>
	<path id="ShirtBorder" fill="#D897CF" d="M76.227,169.132c-13.151,0-19.25-4.865-21.714-7.767l-0.092-0.107
		c-0.56-0.559-0.672-0.996-0.413-10.08c0.062-2.154,0.12-4.188,0.12-5.591c0-1.095,0.048-3.102,0.106-5.537
		c0.157-6.566,0.42-17.558-0.126-19.742c-0.473-1.894-7.319-8.033-12.029-11.788c-0.458-0.365-0.601-0.998-0.345-1.524
		c0.121-0.248,3.003-6.115,6.95-9.405c4.233-3.527,11.542-4.771,15.522-5.197c0.345-0.039,0.691,0.071,0.954,0.3l13.432,11.688
		c4.744-3.573,14.09-10.497,15.76-10.84c0.117-0.022,0.239-0.028,0.36-0.021c11.767,1.036,17.66,9.273,17.905,9.625
		c0.359,0.513,0.283,1.211-0.176,1.636c-0.027,0.025-2.748,2.544-4.863,5.266c-2.352,3.023-5.171,7.925-5.426,9.957
		c-0.279,2.237-1.037,21.47-1.287,27.788l-0.062,1.563c-0.055,1.374-0.062,3.276-0.072,5.292c-0.021,4.764-0.06,7.735-0.393,8.849
		C99.498,166.295,90.945,169.132,76.227,169.132z M99.876,118.73c-0.046-1.994-0.067-6.062,0.429-8.375
		c0.115-0.539,0.649-0.889,1.188-0.769c0.54,0.115,0.884,0.647,0.77,1.188c-0.193,0.895-0.298,2.119-0.353,3.377
		c1.175-2.112,2.591-4.223,3.694-5.644c1.517-1.949,3.274-3.755,4.293-4.756c-1.737-1.979-6.838-6.9-15.155-7.722
		c-1.447,0.641-8.89,5.987-15.452,10.952c-0.473,0.354-1.129,0.334-1.574-0.054L63.932,94.936
		c-3.786,0.445-10.096,1.609-13.649,4.57c-2.685,2.239-4.917,6.005-5.843,7.702c2.036,1.652,6.328,5.239,9.226,8.365
		c-0.21-1.432-0.479-2.988-0.78-4.109c-0.144-0.532,0.172-1.082,0.706-1.226c0.535-0.142,1.082,0.173,1.226,0.706
		c0.636,2.365,1.111,6.35,1.261,7.708l0.002,0.001c0.219,0.382,0.374,0.732,0.452,1.044c0.58,2.321,0.425,10.979,0.2,20.409
		c-0.058,2.409-0.105,4.396-0.105,5.478c0,1.438-0.059,3.489-0.121,5.661c-0.085,2.981-0.211,7.404-0.07,8.521
		c2.198,2.573,7.68,6.862,19.79,6.862c14.744,0,21.1-2.883,21.748-3.934c0.223-0.771,0.242-4.986,0.256-8.064
		c0.01-2.037,0.019-3.963,0.076-5.381l0.062-1.561c0.435-11.016,1.042-25.901,1.304-28.001c0.037-0.295,0.105-0.617,0.201-0.961
		h0.003V118.73z"/>
	<path id="Hair" fill="#99573A" d="M47.323,43.814c-1.074,7.277-0.306,13.13-0.306,13.13l11.124-12.689l33.575-12.99
		c0,0,0.343,5.388,6.425,13.261c6.084,7.871,10.252,11.151,10.252,11.151s0.946-5.914,0.061-13.176
		c7.148,1.813,3.372,10.832,9.262,17.086c6.784,7.203,12.448,1.115,12.448,1.115s-3.817,3.312-7.899,0.148
		c-8.92-7.804,23.59-26.645-1.488-43.76c-9.824-5.957-19.521-1.629-21.783,4.659l-0.275,0.436c-4.402-3.703-10.662-6.17-19.527-6.17
		c-9.54,0-16.309,2.643-21.099,6.584l-0.305-0.339c-1.908-6.56-11.861-11.286-21.95-5.17c-25.078,17.115,7.432,35.956-1.488,43.76
		c-4.082,3.163-7.899-0.148-7.899-0.148s5.664,6.088,12.448-1.115c5.63-5.978,2.428-14.48,8.377-16.804L47.323,43.814z"/>
	<path id="HairBorder" fill="#68341D" d="M58.538,20.671c5.378-3.923,12.298-5.904,20.649-5.904c7.73,0,14.115,1.832,19.056,5.457
		l0.028,0.021c1.129-2.286,3.138-4.261,5.77-5.583c5.186-2.603,11.684-2.094,17.382,1.361c16.497,11.256,9.466,23.456,4.333,32.363
		c-3.292,5.713-5.182,9.324-2.669,11.522c3.086,2.389,5.947,0.11,6.263-0.156c0.504-0.428,1.258-0.391,1.715,0.087
		c0.457,0.479,0.463,1.229,0.014,1.714c-0.105,0.113-2.641,2.79-6.471,2.802c-0.008,0-0.018,0-0.026,0
		c-2.716,0-5.332-1.315-7.776-3.911c-2.91-3.089-3.638-6.691-4.281-9.87c-0.557-2.751-0.983-4.855-2.588-6.049
		c0.484,6.18-0.246,10.955-0.309,11.348c-0.07,0.438-0.367,0.807-0.779,0.967c-0.412,0.161-0.88,0.092-1.228-0.182
		c-0.175-0.138-4.361-3.467-10.468-11.369c-4.342-5.62-5.87-10.052-6.403-12.311L58.878,45.31L47.957,57.769
		c-0.241,0.273-0.586,0.426-0.94,0.426c-0.121,0-0.243-0.018-0.363-0.054c-0.47-0.144-0.813-0.547-0.876-1.033
		c-0.053-0.403-0.667-5.353,0.058-11.747c-0.942,1.237-1.304,3.021-1.748,5.214c-0.643,3.179-1.372,6.781-4.28,9.87
		c-2.445,2.595-5.061,3.911-7.777,3.911c-0.009,0-0.017,0-0.026,0c-3.831-0.012-6.365-2.688-6.471-2.802
		c-0.453-0.486-0.446-1.242,0.016-1.721c0.46-0.479,1.216-0.511,1.718-0.076c0.31,0.266,3.171,2.541,6.314,0.104
		c2.455-2.15,0.565-5.763-2.727-11.476c-5.133-8.907-12.164-21.107,4.276-32.327c5.755-3.493,12.254-4.001,17.439-1.397
		c2.793,1.403,4.885,3.542,5.966,6.007L58.538,20.671z M100.271,21.886c0.758,0.691,1.475,1.435,2.149,2.227
		c4.423,5.187,6.392,11.676,7.192,17.437h0.002c3.925,1.414,4.648,5.02,5.359,8.53c0.604,2.99,1.229,6.082,3.649,8.65
		c0.476,0.505,0.952,0.948,1.433,1.331c-1.873-3.542,0.766-8.119,3.532-12.922c5.16-8.953,11.007-19.102-3.519-29.016
		c-4.977-3.017-10.43-3.476-14.908-1.228C102.812,18.077,101.088,19.863,100.271,21.886L100.271,21.886z M79.188,17.266
		c-10.083,0-17.874,3.049-23.154,9.062c-7.716,8.786-8.199,21.792-7.983,27.541l9.15-10.438c0.133-0.151,0.301-0.27,0.489-0.343
		l33.575-12.99c0.373-0.146,0.789-0.104,1.125,0.112s0.549,0.576,0.574,0.975c0.003,0.044,0.441,5.167,6.167,12.575
		c3.601,4.659,6.534,7.695,8.279,9.358c0.416-5.357,0.563-18.653-6.897-27.394C95.721,20.112,88.546,17.266,79.188,17.266z
		 M51.449,16.896c-4.478-2.248-9.932-1.788-14.965,1.264c-14.47,9.878-8.622,20.025-3.462,28.979
		c2.768,4.804,5.406,9.381,3.567,12.895c0.468-0.377,0.935-0.812,1.398-1.304c2.42-2.568,3.045-5.66,3.65-8.65
		c0.67-3.313,1.354-6.709,4.728-8.27c1.056-5.686,3.281-11.991,7.781-17.12c0.74-0.844,1.524-1.635,2.35-2.371
		C55.762,20.117,53.964,18.159,51.449,16.896z"/>
	<path id="Shoes" fill="#FFD2F7" d="M105.793,296.31c-4.977,1.206-12.395-3.508-13.902-5.017c-1.509-1.509-9.846-4.726-10.486-7.312
		c-0.379-1.523,0.369-4.132,1.048-6.759c5.11,4.68,16.045,10.788,19.044,8.217c1.529-1.312,1.186-3.175,0.32-4.853
		c1.086,0.628,2.103,1.19,2.83,1.677c2.715,1.81,6.75,4.577,7.166,7.167C112.229,292.019,110.77,295.104,105.793,296.31z
		 M56.142,286.31c-1.228-0.933-1.521-2.37-1.39-3.859c-2.547,1.743-9.124,4.332-10.448,7.84c-1.665,4.411,5.545,7.921,9.89,7.022
		c4.344-0.899,9.088-4.746,12.427-5.599c3.339-0.852,6.891-3.596,7.041-6.441c0.095-1.811-0.897-4.223-1.558-6.049
		C67.895,282.865,59.185,288.618,56.142,286.31z"/>
	<path id="ShoesBorder" fill="#D897CF" d="M104.05,297.755L104.05,297.755c-5.171,0-11.508-4.041-13.043-5.576
		c-0.409-0.41-1.94-1.231-3.292-1.955c-4.087-2.191-7.02-3.899-7.523-5.94c-0.424-1.709,0.213-4.154,0.888-6.742l0.164-0.63
		c0.11-0.425,0.435-0.761,0.854-0.886c0.422-0.126,0.877-0.021,1.2,0.275c4.292,3.931,12.282,8.498,16.149,8.498
		c0.574,0,1.002-0.105,1.238-0.309c0.33-0.282,1.207-1.034,0.021-3.329c-0.254-0.493-0.152-1.095,0.248-1.478
		s1.007-0.458,1.488-0.179l0.687,0.395c0.826,0.474,1.606,0.92,2.212,1.324c3.479,2.318,7.23,5.042,7.707,8.009
		c0.471,2.934-1.07,6.864-6.96,8.292C105.457,297.678,104.771,297.755,104.05,297.755z M83.163,279.471
		c-0.42,1.684-0.761,3.342-0.546,4.21c0.277,1.121,4.33,3.294,6.279,4.339c1.987,1.064,3.238,1.752,3.877,2.391
		c1.129,1.128,6.851,4.845,11.276,4.845l0,0c0.522,0,1.011-0.054,1.449-0.159c3.591-0.87,5.489-2.913,5.08-5.467
		c-0.343-2.138-4.746-5.071-6.625-6.324c-0.05-0.032-0.099-0.065-0.151-0.101c-0.015,1.604-0.839,2.625-1.49,3.186
		c-0.705,0.604-1.668,0.909-2.865,0.909C94.971,287.299,87.621,283.044,83.163,279.471z M52.724,298.704
		c-3.508,0-7.272-1.761-8.949-4.188c-1.017-1.471-1.238-3.084-0.64-4.668c1.14-3.021,5.133-5.195,8.341-6.943
		c1.004-0.547,1.952-1.063,2.57-1.486c0.399-0.272,0.92-0.292,1.337-0.048s0.656,0.708,0.614,1.189
		c-0.172,1.939,0.635,2.552,0.9,2.753c0.242,0.184,0.608,0.275,1.087,0.275c3.344,0,9.792-4.274,13.302-7.312
		c0.312-0.271,0.733-0.368,1.134-0.264c0.398,0.104,0.72,0.396,0.86,0.783l0.244,0.666c0.661,1.792,1.483,4.021,1.386,5.873
		c-0.186,3.523-4.203,6.625-7.979,7.588c-1.343,0.344-3.063,1.294-4.884,2.302c-2.352,1.301-5.018,2.774-7.599,3.31
		C53.911,298.647,53.331,298.704,52.724,298.704z M53.64,284.57c-0.307,0.17-0.63,0.347-0.967,0.53
		c-2.695,1.469-6.387,3.479-7.199,5.631c-0.303,0.804-0.187,1.577,0.357,2.364c1.205,1.741,4.233,3.107,6.893,3.107
		c0.438,0,0.847-0.039,1.217-0.115c2.209-0.458,4.592-1.774,6.896-3.05c1.965-1.087,3.822-2.113,5.476-2.535
		c3.144-0.802,5.995-3.276,6.102-5.297c0.056-1.069-0.396-2.541-0.877-3.894c-3.564,2.826-9.56,6.775-13.552,6.775
		c-1.038,0-1.912-0.264-2.598-0.783C54.708,286.79,53.963,285.938,53.64,284.57z"/>
	<path id="Hairclip" fill="#FF8DEA" d="M58.315,46.813c-0.396,0-0.787-0.188-1.029-0.539l-4.235-6.13
		c-0.393-0.568-0.25-1.348,0.318-1.739c0.567-0.394,1.346-0.25,1.739,0.317l4.235,6.13c0.393,0.567,0.25,1.347-0.318,1.738
		C58.808,46.74,58.561,46.813,58.315,46.813z"/>
</g>
</svg>
