<?xml version="1.0" encoding="utf-8"?>
<!-- Generator: Adobe Illustrator 15.0.0, SVG Export Plug-In . SVG Version: 6.00 Build 0)  -->
<!DOCTYPE svg PUBLIC "-//W3C//DTD SVG 1.1//EN" "http://www.w3.org/Graphics/SVG/1.1/DTD/svg11.dtd">
<svg version="1.1" id="Layer_1" xmlns="http://www.w3.org/2000/svg" xmlns:xlink="http://www.w3.org/1999/xlink" x="0px" y="0px"
	 width="480px" height="360px" viewBox="0 0 480 360" enable-background="new 0 0 480 360" xml:space="preserve">
<g id="fixed">
	<path id="Backwall2" fill="#FFFAEE" d="M0,0h480v96.787H0V0z"/>
	<path id="backWallBorder" fill="#EADBB9" d="M0,0v97.183h480V0H0z M0.254,96.32V0.396h479.138V96.32H0.254z"/>
	<path id="WoodFloor" fill="#F7CB5E" d="M0,96.751h479.822V360H0V96.751z"/>
	<path id="floorBorder" fill="#FFDA8F" d="M472.539,111.284H338.911v-2.05h133.628V111.284z M329.855,205.234h77.754v-2.051
		h-77.754V205.234z M62.808,218.186H0v2.051h62.808V218.186z M62.808,275.886H0v2.052h62.808V275.886z M114.092,315.848H0v2.055
		h114.092V315.848z M338.439,146.659h-131.55v2.051h131.55V146.659z M266.053,257.411H132.424v2.051h133.628L266.053,257.411
		L266.053,257.411z M349.68,287.325h130.146v-2.052H349.68V287.325z M240.055,341.439h186.249v-2.056H240.055V341.439z
		 M206.889,234.122h118.328v-2.052H206.889V234.122z M10.396,164.694h77.753v-2.051H10.396V164.694z M213.277,174.847H94.95v2.051
		h118.328L213.277,174.847L213.277,174.847z"/>
	<path id="Backwall" fill="#F4EBD9" d="M467.812,0v96.495L480,256.383V0H467.812z"/>
	<path id="sideWallBorder" fill="#EADBB9" d="M467.197,0v96.519l12.188,159.913l0.613-0.021V0H467.197z M479.385,240.217
		L468.428,96.472V0.615h10.957V240.217z"/>
</g>
<g>
	<path id="sidePanel" fill="#2C71AF" d="M443.41,105.703H338.423V82.755H443.41V105.703z M337.604,78.256h104.532V55.308H337.604
		V78.256z M336.783,50.809h104.078V27.86H336.783V50.809z"/>
	<path id="seat" fill="#E5E5E5" d="M337.604,78.256h104.532l1.274,4.499H338.424L337.604,78.256z M337.604,55.308h104.532
		l-1.271-4.5h-104.08L337.604,55.308z M440.861,27.859l-1.275-4.499H334.76l2.023,4.499H440.861z"/>
	<path id="seatBorder" fill="#AFAFAF" d="M443.418,83.473c-0.001,0-0.004,0-0.008,0H338.424c-0.347,0-0.645-0.248-0.706-0.589
		l-0.817-4.499c-0.038-0.209,0.021-0.425,0.151-0.588c0.14-0.164,0.339-0.258,0.554-0.258h104.53c0.321,0,0.604,0.213,0.69,0.522
		l1.246,4.399c0.041,0.09,0.062,0.19,0.062,0.295C444.137,83.151,443.814,83.473,443.418,83.473z M339.021,82.038H442.46
		l-0.868-3.064h-103.13L339.021,82.038z M442.136,56.025H337.604c-0.347,0-0.645-0.248-0.703-0.589l-0.818-4.5
		c-0.038-0.209,0.021-0.425,0.152-0.588c0.139-0.164,0.341-0.258,0.554-0.258h104.078c0.316,0,0.604,0.213,0.688,0.521l1.274,4.5
		c0.061,0.216,0.018,0.449-0.118,0.628C442.572,55.92,442.36,56.025,442.136,56.025z M338.201,54.59h102.98l-0.863-3.064H337.643
		L338.201,54.59z M440.861,28.577H336.783c-0.283,0-0.539-0.166-0.655-0.423l-2.021-4.5c-0.103-0.222-0.08-0.479,0.055-0.684
		c0.132-0.204,0.355-0.328,0.602-0.328H439.59c0.321,0,0.604,0.213,0.69,0.522l1.271,4.499c0.063,0.216,0.021,0.449-0.118,0.628
		C441.298,28.47,441.086,28.577,440.861,28.577z M337.247,27.142h102.665l-0.869-3.064H335.869L337.247,27.142z"/>
	<path id="sidePanelBorder" fill="#195683" d="M444.128,105.703c0,0.396-0.321,0.718-0.718,0.718H338.423
		c-0.065,0-0.131-0.012-0.19-0.029c0,0-0.367-0.147-0.475-0.424c-0.104-0.275-0.002-0.003-0.003-0.004l-3.653-9.388
		c-0.031-0.083-0.05-0.171-0.05-0.261l-0.009-72.955c0-0.338,0.236-0.631,0.566-0.701c0.33-0.073,0.666,0.098,0.806,0.407
		l1.832,4.076h103.614c0.396,0,0.718,0.321,0.718,0.717v22.949c0,0.396-0.321,0.717-0.718,0.717H337.643l0.562,3.064H442.14
		c0.396,0,0.723,0.321,0.723,0.717v22.949c0,0.396-0.321,0.717-0.723,0.717H338.463l0.561,3.064H443.41
		c0.396,0,0.718,0.321,0.718,0.717V105.703z M440.861,28.577c0.225,0,0.437-0.105,0.567-0.285c0.14-0.18,0.185-0.412,0.118-0.628
		l-0.146-0.52l-1.492-0.002H337.247l0.19,0.423c0.039,0.093,0.062,0.193,0.062,0.294v0.718v21.514h102.644V28.577H440.861z
		 M442.136,56.025c0.229,0,0.438-0.105,0.572-0.285c0.136-0.179,0.179-0.412,0.118-0.628l-0.151-0.531l-1.487,0.009H338.201
		l0.105,0.589c0.01,0.043,0.014,0.086,0.014,0.129v0.718V77.54h103.098V56.025H442.136z M443.41,83.473
		c0.226,0,0.438-0.105,0.572-0.285c0.137-0.179,0.18-0.412,0.113-0.628l-0.151-0.552l-1.483,0.03H339.021l0.104,0.589
		c0.008,0.042,0.014,0.085,0.014,0.128v0.718v21.513h103.556V83.473H443.41z"/>
</g>
<g>
	<path id="Stairs" fill="#00AF00" d="M338.396,106.298h-49.817c-0.329,0-0.595-0.266-0.595-0.595v-6.671
		c0-0.329,0.266-0.595,0.595-0.595h49.817c0.326,0,0.595,0.266,0.595,0.595v6.671C338.991,106.032,338.727,106.298,338.396,106.298z
		 M338.198,96.554v-6.671c0-0.328-0.27-0.595-0.597-0.595h-49.022c-0.329,0-0.595,0.267-0.595,0.595v6.671
		c0,0.329,0.266,0.594,0.595,0.594h49.022C337.934,97.148,338.198,96.883,338.198,96.554z M337.406,87.405v-6.672
		c0-0.328-0.271-0.595-0.598-0.595h-48.229c-0.329,0-0.595,0.267-0.595,0.595v6.672c0,0.328,0.266,0.595,0.595,0.595h48.229
		C337.141,88,337.406,87.733,337.406,87.405z M336.613,78.256v-6.672c0-0.328-0.271-0.594-0.598-0.594h-47.438
		c-0.329,0-0.597,0.266-0.597,0.594v6.672c0,0.328,0.268,0.595,0.597,0.595h47.438C336.348,78.851,336.613,78.584,336.613,78.256z
		 M335.82,69.106v-6.671c0-0.329-0.271-0.594-0.598-0.594h-46.646c-0.329,0-0.598,0.266-0.598,0.594v6.671
		c0,0.329,0.269,0.595,0.598,0.595h46.646C335.555,69.701,335.82,69.435,335.82,69.106z M335.027,59.958v-6.671
		c0-0.329-0.271-0.595-0.598-0.595h-45.854c-0.329,0-0.599,0.266-0.599,0.595v6.671c0,0.329,0.27,0.594,0.599,0.594h45.854
		C334.762,60.552,335.027,60.286,335.027,59.958z"/>
	<path id="StairsBorder" fill="#4FC14F" d="M338.877,99.383c-0.111,0.153-0.291,0.244-0.479,0.244H288.58
		c-0.328,0-0.596-0.266-0.596-0.594v-2.478c0-0.001,0-0.002,0-0.004v0.004c0,0.329,0.268,0.594,0.597,0.594h49.021
		c0.33,0,0.6-0.266,0.6-0.594v-0.093l0.765,2.39C339.021,99.031,338.988,99.229,338.877,99.383z M338.17,89.701l-0.764-2.39v0.094
		c0,0.328-0.271,0.595-0.598,0.595h-48.229c-0.329,0-0.595-0.267-0.595-0.595v2.478c0,0.328,0.266,0.594,0.595,0.594h49.022
		c0.188,0,0.365-0.09,0.479-0.244C338.195,90.08,338.229,89.882,338.17,89.701z M337.378,80.552l-0.765-2.39v0.094
		c0,0.328-0.271,0.595-0.598,0.595h-47.438c-0.329,0-0.597-0.267-0.597-0.595v2.478c0,0.328,0.268,0.595,0.597,0.595h48.229
		c0.188,0,0.366-0.091,0.479-0.244C337.402,80.931,337.436,80.733,337.378,80.552z M336.585,71.403l-0.765-2.39v0.093
		c0,0.329-0.271,0.595-0.598,0.595h-46.646c-0.329,0-0.598-0.266-0.598-0.595v2.478c0,0.328,0.269,0.595,0.598,0.595h47.438
		c0.188,0,0.367-0.091,0.479-0.244C336.609,71.781,336.643,71.584,336.585,71.403z M335.792,62.254l-0.765-2.39v0.093
		c0,0.329-0.271,0.594-0.599,0.594h-45.854c-0.329,0-0.599-0.266-0.599-0.594v2.477c0,0.329,0.27,0.595,0.599,0.595h46.646
		c0.188,0,0.366-0.091,0.479-0.244C335.816,62.632,335.85,62.435,335.792,62.254z M334.913,53.636
		c0.112-0.153,0.144-0.351,0.086-0.532l-0.792-2.478c-0.079-0.246-0.309-0.413-0.566-0.413h-45.062
		c-0.329,0-0.595,0.266-0.595,0.594v2.478c0,0.329,0.266,0.594,0.595,0.594h45.854C334.623,53.88,334.801,53.79,334.913,53.636z"/>
</g>
<g>
	<path id="back1" fill="#2C71AF" d="M180.284,82.755h108.679v22.948H180.284V82.755z M288.553,55.308H180.284v22.949h108.269V55.308
		L288.553,55.308z M288.143,27.859H180.284v22.948h107.858V27.859L288.143,27.859z"/>
	<path id="seats1" fill="#E5E5E5" d="M288.962,82.755H180.284v-4.5h108.269L288.962,82.755z M288.143,50.808H180.284v4.5h108.268
		L288.143,50.808z M287.732,23.36H180.284v4.499h107.858L287.732,23.36z"/>
	<path id="seats1Border" fill="#AFAFAF" d="M288.971,83.473c-0.002,0-0.006,0-0.009,0H180.284c-0.396,0-0.718-0.321-0.718-0.717
		v-4.5c0-0.396,0.321-0.717,0.718-0.717h108.269c0.371,0,0.682,0.283,0.715,0.653l0.399,4.393c0.015,0.055,0.021,0.112,0.021,0.171
		C289.688,83.151,289.366,83.473,288.971,83.473z M181.002,82.038h107.174l-0.277-3.064H181.002V82.038z M288.552,56.025H180.284
		c-0.396,0-0.718-0.321-0.718-0.718v-4.5c0-0.396,0.321-0.717,0.718-0.717h107.858c0.371,0,0.681,0.283,0.715,0.652l0.408,4.5
		c0.02,0.201-0.053,0.4-0.188,0.549S288.754,56.025,288.552,56.025z M181.001,54.59h106.765l-0.279-3.064H181.001V54.59z
		 M288.143,28.577H180.284c-0.396,0-0.717-0.321-0.717-0.718V23.36c0-0.396,0.321-0.718,0.717-0.718h107.448
		c0.371,0,0.682,0.283,0.715,0.652l0.41,4.5c0.019,0.201-0.049,0.4-0.188,0.549C288.536,28.492,288.344,28.577,288.143,28.577z
		 M181.001,27.142h106.354l-0.278-3.064H181.001V27.142z"/>
	<path id="back1Border" fill="#195683" d="M289.68,82.755v22.948c0,0.396-0.32,0.718-0.717,0.718H180.284
		c-0.396,0-0.717-0.321-0.717-0.718V82.755c0-0.001,0-0.002,0-0.004v0.004c0,0.396,0.321,0.717,0.718,0.717h0.717v21.513h107.244
		V83.473h0.717c0.202,0,0.395-0.084,0.53-0.233c0.13-0.143,0.194-0.331,0.184-0.522C289.677,82.729,289.68,82.742,289.68,82.755z
		 M181.002,56.025v21.514h106.833V56.025h0.717c0.202,0,0.396-0.085,0.53-0.234c0.13-0.142,0.193-0.331,0.184-0.522
		c0.002,0.013,0.004,0.025,0.004,0.038v22.949c0,0.396-0.315,0.717-0.717,0.717H180.284c-0.396,0-0.718-0.321-0.718-0.717V55.31
		c0.001,0.396,0.322,0.716,0.718,0.716L181.002,56.025L181.002,56.025z M288.855,27.824c0.01,0.191-0.06,0.378-0.188,0.52
		c-0.136,0.148-0.328,0.233-0.524,0.233h-0.723V50.09H181V28.577h-0.717c-0.396,0-0.717-0.321-0.717-0.718v22.948
		c0,0.396,0.321,0.718,0.717,0.718h107.857c0.396,0,0.717-0.321,0.717-0.718V27.859C288.859,27.848,288.855,27.836,288.855,27.824z"
		/>
</g>
<g>
	<path id="CourtOutline" fill="#00AF00" d="M466.507,347.779H0v-28.516h430.17L415.458,134.37H0v-18.35h444.223l0.074,0.769
		L466.507,347.779z"/>
</g>
<g>
	<path id="back2" fill="#2C71AF" d="M0,82.756h105.582v22.947H0V82.756z M0,78.256h106.432V55.308H0V78.256z M0,50.809h107.707
		V27.86H0V50.809z"/>
	<path id="step3" fill="#E5E5E5" d="M106.432,78.256l-0.85,4.499H0v-4.499H106.432z M0,50.808v4.5h106.432l1.275-4.5H0z M0,23.36
		v4.499h107.707l2.489-4.499H0z"/>
	<path id="step3Border" fill="#AFAFAF" d="M105.84,83.354H0c-0.331,0-0.599-0.269-0.599-0.599v-4.5c0-0.331,0.268-0.599,0.599-0.599
		h106.433c0.172,0,0.336,0.074,0.45,0.204c0.113,0.13,0.166,0.302,0.144,0.473l-0.592,4.5
		C106.395,83.132,106.141,83.354,105.84,83.354z M0.599,82.156h104.717l0.434-3.301H0.599V82.156z M106.816,55.908H0
		c-0.332,0-0.6-0.269-0.6-0.6v-4.5c0-0.332,0.269-0.6,0.6-0.6h107.707c0.18,0,0.35,0.081,0.464,0.219
		c0.114,0.139,0.16,0.321,0.125,0.498l-0.892,4.5C107.349,55.705,107.103,55.908,106.816,55.908z M0.6,54.708h105.724l0.653-3.3H0.6
		V54.708z M108.444,28.462H0c-0.333,0-0.603-0.27-0.603-0.603V23.36c0-0.332,0.27-0.602,0.603-0.602h110.196
		c0.199,0,0.385,0.098,0.497,0.262c0.112,0.164,0.137,0.373,0.064,0.559l-1.753,4.499C108.915,28.31,108.692,28.462,108.444,28.462z
		 M0.602,27.258h107.431l1.283-3.295H0.602V27.258z"/>
	<path id="back2Border" fill="#195683" d="M105.418,106.402c0.055,0.013,0.11,0.019,0.164,0.019c0.268,0,0.52-0.15,0.643-0.398
		l4.569-9.208c0.05-0.099,0.075-0.208,0.075-0.319l0.045-73.134c0-0.328-0.221-0.613-0.538-0.695s-0.649,0.061-0.808,0.347
		l-2.49,4.5c-0.059,0.106-0.09,0.226-0.09,0.347v22.348h0.118h-0.118H0.6V28.462H0c-0.325,0-0.587-0.258-0.6-0.579v22.926
		c0,0.331,0.269,0.6,0.6,0.6h106.791l-1.049,3.704c-0.019,0.063-0.027,0.129-0.027,0.195v22.35H0.599v-21.75H0
		c-0.327,0-0.591-0.261-0.599-0.586v22.935c0,0.331,0.268,0.599,0.599,0.599h105.589l-0.712,3.767
		c-0.008,0.044-0.012,0.088-0.012,0.133v22.351H0.599V83.354H0c-0.328,0-0.594-0.264-0.598-0.591v22.94
		c0,0.331,0.268,0.599,0.598,0.599h105.188L105.418,106.402z"/>
</g>
<g>
	<path id="Wall" fill="#B7AC95" d="M123.076,14.25h40.031v82.245h-40.031V14.25z"/>
	<path id="Floor" fill="#455B89" d="M123.076,78.068h40.169v18.427h-40.169V78.068z"/>
	<path id="DoorBorder" fill="#A3906F" d="M163.743,97.133h-41.305V13.612h41.305V97.133z M123.713,95.858h38.756V14.887h-38.756
		V95.858z"/>
</g>
<g>
	<path id="lockers" fill="#D6D6D6" d="M159.231,78.068h-10.235V26.54h10.235V78.068z M148.996,26.54h-10.235v51.528h10.235V26.54z"
		/>
	<path id="lockersBorder" fill="#ADADAD" d="M159.657,78.493h-21.321V26.115h21.321V78.493z M149.422,77.644h9.385V26.965h-9.385
		V77.644z M139.186,77.644h9.386V26.965h-9.386V77.644z M154.157,53.283h-2.513v-0.85h2.513V53.283z M143.878,53.283h-2.513v-0.85
		h2.513V53.283z M156.584,37.892h-4.939v-0.85h4.939V37.892z M146.305,37.892h-4.939v-0.85h4.939V37.892z M156.584,36.227h-4.939
		v-0.851h4.939V36.227z M146.305,36.227h-4.939v-0.851h4.939V36.227z M156.584,34.561h-4.939v-0.85h4.939V34.561z M146.305,34.561
		h-4.939v-0.85h4.939V34.561z"/>
</g>
<g>
	<path id="CourtLines" fill="#1B418C" d="M432.011,320.967H0v-1.699h19.01l22.748-91.274c-5.967-0.511-11.471-1.906-15.854-4.068
		c-5.789-2.854-8.976-6.721-8.976-10.885c0-4.165,3.188-8.03,8.976-10.89c5.597-2.76,13.021-4.275,20.902-4.275
		c0.821,0,1.637,0.021,2.445,0.049l15.836-63.545H0v-1.7h417.028l4.05,50.889l4.457,55.791h-0.021L432.011,320.967z M20.762,319.268
		H430.17l-1.488-18.711h-96.078c-27.908,0-54.158-8.312-73.908-23.404c-19.815-15.145-30.73-35.301-30.73-56.754
		c0-21.455,10.915-41.607,30.73-56.752c19.75-15.092,46-23.403,73.908-23.403h83.321l-0.467-5.864H66.839L50.98,198.02
		c6.303,0.438,12.131,1.867,16.729,4.138c5.788,2.854,8.976,6.721,8.976,10.886c0,4.164-3.188,8.027-8.976,10.885
		c-5.598,2.762-13.021,4.28-20.902,4.28c-1.119,0-2.229-0.03-3.326-0.092L20.762,319.268z M332.604,141.938
		c-56.764,0-102.938,35.196-102.938,78.458c0,43.262,46.181,78.459,102.938,78.459h95.942l-4.73-59.502H289.887v-0.004
		c-13.941-0.113-27.031-2.988-36.938-8.133c-10.285-5.33-15.949-12.488-15.949-20.15c0-7.664,5.665-14.82,15.949-20.156
		c9.906-5.139,22.996-8.016,36.938-8.128v-0.003H419.31l-3.249-40.841H332.604z M291.587,237.652h132.089l-4.229-53.174h-127.86
		V237.652L291.587,237.652z M289.887,184.482c-28.303,0.229-51.188,12.063-51.188,26.584c0,14.516,22.885,26.351,51.188,26.584
		V184.482z M43.898,226.43c0.956,0.047,1.926,0.07,2.907,0.07c15.538,0,28.179-6.04,28.179-13.465
		c0-6.816-10.654-12.467-24.422-13.346L43.898,226.43z M46.806,199.57c-15.537,0-28.178,6.039-28.178,13.465
		c0,6.671,10.204,12.225,23.546,13.283l6.657-26.715C48.162,199.582,47.486,199.57,46.806,199.57z M297.273,239.146l-0.106-1.695
		c1.423-0.09,2.856-0.213,4.263-0.363l0.182,1.689C300.182,238.932,298.723,239.057,297.273,239.146z M305.928,238.215l-0.259-1.681
		c1.413-0.218,2.829-0.47,4.207-0.75l0.339,1.666C308.811,237.736,307.367,237.993,305.928,238.215z M314.462,236.473l-0.424-1.646
		c1.396-0.359,2.772-0.757,4.101-1.181l0.521,1.621C317.299,235.699,315.889,236.104,314.462,236.473z M322.771,233.812
		l-0.616-1.584c1.351-0.524,2.663-1.096,3.903-1.685l0.729,1.535C325.512,232.689,324.16,233.271,322.771,233.812z M330.672,230.042
		l-0.854-1.469c1.259-0.732,2.447-1.509,3.541-2.306l1.002,1.375C333.22,228.473,331.979,229.28,330.672,230.042z M337.762,224.82
		l-1.17-1.231c1.053-0.999,1.988-2.042,2.779-3.1l1.361,1.019C339.883,222.643,338.884,223.758,337.762,224.82z M343.027,217.65
		l-1.555-0.694c0.569-1.274,0.959-2.585,1.149-3.894l1.685,0.248C344.094,214.773,343.662,216.234,343.027,217.65z M342.621,209.023
		c-0.197-1.311-0.589-2.615-1.164-3.896l1.549-0.694c0.643,1.416,1.076,2.875,1.296,4.336L342.621,209.023z M339.343,201.604
		c-0.794-1.056-1.729-2.097-2.786-3.094l1.168-1.234c1.123,1.063,2.125,2.18,2.979,3.312L339.343,201.604z M333.318,195.835
		c-1.096-0.795-2.286-1.569-3.545-2.3l0.854-1.471c1.311,0.761,2.55,1.562,3.689,2.396L333.318,195.835z M326.018,191.564
		c-1.244-0.59-2.562-1.154-3.903-1.683l0.612-1.585c1.386,0.538,2.735,1.118,4.021,1.729L326.018,191.564z M318.092,188.471
		c-1.324-0.422-2.705-0.818-4.101-1.178l0.423-1.646c1.427,0.367,2.838,0.771,4.193,1.203L318.092,188.471z M309.829,186.338
		c-1.38-0.279-2.796-0.531-4.208-0.748l0.258-1.681c1.439,0.221,2.882,0.478,4.288,0.763L309.829,186.338z M301.381,185.039
		c-1.4-0.148-2.836-0.271-4.262-0.361l0.105-1.695c1.447,0.095,2.906,0.219,4.336,0.367L301.381,185.039z"/>
</g>
<g>
	<path id="net" fill="#FFFFFF" d="M427.971,191.246c-0.648-0.001-1.181-0.531-1.181-1.186v-46.896c0,0,0.08-0.562,0.3-0.782
		c0.314-0.314,0.861-0.402,0.884-0.402h10.696c0.422,0,0.813,0.225,1.024,0.591l27.081,46.847l0.232,0.609l10.022,46.688
		c0.045,0.126,0.065,0.262,0.065,0.402c0,0.652-0.524,1.185-1.184,1.185H475.9h-0.003l-42.624-0.087
		c-0.654-0.002-1.187-0.531-1.187-1.186v-45.776L427.971,191.246z M444.426,185.407h-9.956v3.483l11.999,0.021L444.426,185.407z
		 M450.595,191.293l22.602,38.807l-8.323-38.772L450.595,191.293z M429.158,161.548v27.332l2.938,0.007v-4.589L429.158,161.548z
		 M445.105,183.038c0.422,0,0.812,0.224,1.021,0.587l3.084,5.297l14.56,0.029l-25.783-44.603h-8.665l5.006,38.689L445.105,183.038
		L445.105,183.038z M473.847,235.932l-25.997-44.645l-13.38-0.027v44.59L473.847,235.932z"/>
	<path id="netBorder" fill="#C1C1C1" d="M475.922,238.516l-42.639-0.086c-0.771-0.003-1.396-0.629-1.396-1.396v-45.563l-3.918-0.009
		c-0.769-0.002-1.394-0.628-1.394-1.396V143.15l0.005-0.035c0.001-0.052,0.008-0.104,0.016-0.155
		c0.013-0.052,0.018-0.085,0.021-0.118c0.011-0.048,0.022-0.095,0.044-0.143c0.014-0.039,0.023-0.079,0.046-0.117
		c0.021-0.042,0.042-0.083,0.066-0.124c0.021-0.042,0.045-0.075,0.062-0.106c0.028-0.04,0.062-0.075,0.089-0.109
		c0.034-0.038,0.063-0.066,0.087-0.092c0.035-0.033,0.071-0.062,0.109-0.091c0.034-0.026,0.066-0.051,0.104-0.074
		c0.036-0.024,0.077-0.046,0.119-0.066c0.04-0.02,0.08-0.04,0.122-0.056c0.042-0.017,0.087-0.029,0.131-0.041
		c0.046-0.013,0.095-0.024,0.143-0.032c0.051-0.008,0.103-0.013,0.151-0.016c0.024-0.001,0.055-0.002,0.075-0.002v-0.004h10.696
		c0.496,0,0.959,0.268,1.209,0.697l27.08,46.847c0.14,0.182,0.234,0.422,0.264,0.688l10.021,46.677
		c0.048,0.125,0.074,0.285,0.074,0.447C477.318,237.891,476.691,238.516,475.922,238.516z M432.314,191.255v45.776
		c0,0.535,0.435,0.972,0.97,0.973l42.624,0.087c0.549,0,0.98-0.436,0.98-0.972c0-0.112-0.02-0.225-0.059-0.33l-10.016-46.648H466.8
		c0-0.02-0.003-0.039-0.005-0.058l0.002-0.001l-0.027-0.146c-0.11-0.521-0.635-0.853-1.153-0.744
		c-0.254,0.058-0.472,0.203-0.612,0.426c-0.141,0.219-0.188,0.479-0.134,0.729l8.805,41.012l-27.729-47.625
		c-0.173-0.297-0.495-0.479-0.841-0.479H434.14l-0.021-0.188l-5.182-40.022c-0.062-0.503-0.51-0.868-1.019-0.842
		c-0.037,0.002-0.073,0.005-0.104,0.011c-0.033,0.006-0.064,0.014-0.102,0.023c-0.031,0.008-0.062,0.017-0.091,0.028
		c-0.028,0.011-0.057,0.025-0.084,0.039c-0.029,0.015-0.059,0.028-0.085,0.046c-0.025,0.016-0.048,0.033-0.07,0.05
		c-0.023,0.022-0.054,0.042-0.078,0.064c-0.018,0.018-0.03,0.037-0.052,0.056c-0.028,0.033-0.051,0.058-0.068,0.084
		c-0.017,0.021-0.024,0.043-0.039,0.066c-0.021,0.037-0.037,0.064-0.056,0.095c-0.013,0.026-0.021,0.053-0.03,0.08
		c-0.013,0.033-0.021,0.065-0.027,0.1c-0.005,0.021-0.008,0.042-0.012,0.063c-0.013,0.055-0.018,0.091-0.019,0.129v0.001l0,0
		c0,0.002,0,0.003,0,0.005v0.008c0,0.001,0,0.001,0,0.002c-0.002,0.047-0.002,0.093,0.004,0.14c0,0.001,0,0.002,0,0.003
		l5.306,40.979v6.981H432.314z M450.965,191.506l21.739,37.333l-8.008-37.304L450.965,191.506z M450.717,191.081l13.893,0.028
		l-0.146-0.676c-0.078-0.365-0.01-0.738,0.192-1.057c0.203-0.312,0.516-0.523,0.88-0.604c0.218-0.045,0.435-0.037,0.636,0.015
		l-26.657-46.11c-0.173-0.299-0.496-0.485-0.841-0.485h-9.696c0.204,0.209,0.35,0.483,0.39,0.793l0.146,1.15h8.604l0.062,0.106
		l25.971,44.923l-14.556-0.03L450.717,191.081z M427.002,146.54v43.521c0,0.535,0.438,0.977,0.969,0.977l3.918,0.009V189.1
		l-2.938-0.008v-27.536L427.002,146.54z M449.336,188.709l14.065,0.029l-25.539-44.178h-8.3l4.946,38.265h10.597
		c0.491,0,0.957,0.266,1.207,0.692L449.336,188.709z M429.37,188.668l2.519,0.006v-4.376l-2.519-19.461V188.668z M474.217,236.145
		l-39.959-0.082v-50.867h10.29l0.063,0.104L474.217,236.145z M434.683,235.639l38.794,0.079L447.729,191.5l-13.046-0.027V235.639z
		 M434.683,191.048l12.802,0.026l-1.138-1.946l-11.664-0.024V191.048z M434.683,188.68l11.417,0.023l-1.796-3.084h-9.621V188.68z"/>
	<path id="netFrameBorder" fill="#C1C1C1" d="M470.34,236.951l-0.425-0.012l0.196-7.106l0.426,0.012L470.34,236.951z
		 M452.545,236.759l-0.457-8.116c-1.354,0.008-2.719,0.008-4.059-0.004l0.396,7.704L448,236.364l-0.396-7.729
		c-1.552-0.015-3.063-0.042-4.49-0.083l0.184,7.993l-0.425,0.012l-0.185-8.018c-1.97-0.061-3.771-0.146-5.281-0.262l-0.031,8.076
		l-0.425-0.002l0.03-8.106c-1.843-0.147-3.199-0.341-3.844-0.576l0.147-0.397c0.592,0.222,1.905,0.396,3.69,0.537l0.022-6.201
		c-1.923-0.084-3.271-0.229-3.695-0.465l0.203-0.373c0.405,0.226,1.683,0.365,3.493,0.446l0.024-6.225
		c-1.823-0.095-3.188-0.272-3.725-0.56l0.201-0.375c0.5,0.27,1.775,0.438,3.521,0.522l0.023-7.101
		c-1.978-0.101-3.438-0.276-3.943-0.559l0.201-0.373c0.431,0.232,1.772,0.404,3.744,0.5l0.029-7.716
		c-2.042-0.069-3.619-0.226-4.17-0.5l0.188-0.38c0.507,0.252,2.018,0.396,3.98,0.459l0.021-6.07c-1.764-0.143-3.238-0.43-4.02-0.93
		l0.229-0.357c0.729,0.471,2.121,0.737,3.787,0.869l0.027-7.6l0.427,0.002l-0.027,7.627c1.354,0.087,2.854,0.091,4.312,0.044
		l-0.172-7.47l0.428-0.01l0.171,7.463c1.229-0.047,2.405-0.129,3.43-0.229l-0.271-5.247l0.426-0.021l0.271,5.229
		c1.438-0.149,2.487-0.326,2.774-0.471l0.188,0.38c-0.344,0.172-1.452,0.365-2.941,0.521l0.318,6.147
		c1.496-0.065,2.857-0.152,3.915-0.249l-0.216-3.84l0.424-0.022l0.216,3.824c0.841-0.084,1.438-0.174,1.668-0.262l0.149,0.396
		c-0.26,0.1-0.896,0.192-1.795,0.282l0.44,7.881c1.938-0.133,3.461-0.291,4.528-0.452l-0.105-2.568l0.424-0.021l0.104,2.521
		c0.782-0.137,1.246-0.271,1.369-0.396c0.287-0.86,0.037-5.032-0.456-10.433c-0.778-1.25-1.562-2.5-2.329-3.729
		c0.282,4.617,0.355,8.233-0.037,8.896l-0.363-0.22c0.369-0.616,0.261-4.467-0.066-9.433c-0.591-0.94-1.173-1.875-1.742-2.784
		c0.302,4.644,0.396,8.229,0.028,8.771l-0.354-0.238c0.32-0.476,0.196-4.192-0.153-9.29c-0.707-1.13-1.394-2.222-2.047-3.267
		c0.217,4.512,0.219,7.896-0.231,8.21l-0.253-0.342c0.337-0.381,0.281-3.834,0.021-8.608c-0.737-1.177-1.435-2.281-2.066-3.297
		c0.288,4.078,0.384,7.229,0.089,8.075l-0.4-0.143c0.301-0.854,0.165-4.3-0.166-8.701c-0.343-0.543-0.662-1.056-0.964-1.533
		c-1.243-1.983-2.158-3.442-2.595-4.138c0.681,5.192,1.108,9.285,0.956,10.405l-0.423-0.059c0.156-1.14-0.324-5.551-1.062-11.082
		c-0.675-0.684-1.809-1.082-3.11-1.313c0.719,5.637,1.16,10.24,0.91,11.571l-0.417-0.077c0.239-1.295-0.212-5.909-0.938-11.563
		c-1.186-0.173-2.479-0.225-3.682-0.239c0.887,6.854,1.474,12.391,1.146,12.94l-0.364-0.218c0.259-0.519-0.3-5.725-1.209-12.729
		c-0.43-0.002-0.843,0-1.229,0.001c-0.75,0.003-1.396,0.006-1.918-0.018l0.021-0.424c0.513,0.022,1.151,0.021,1.896,0.017
		c0.373-0.001,0.769-0.003,1.177-0.001c-0.306-2.341-0.646-4.873-1.015-7.49c-0.619-0.003-1.229,0.002-1.799,0.008
		c-0.445,0.005-0.881,0.009-1.289,0.009v-0.425c0.407,0,0.84-0.004,1.285-0.009c0.562-0.005,1.148-0.012,1.739-0.01
		c-0.321-2.326-0.664-4.717-1.01-7.097c-0.941-0.018-1.914-0.038-2.917-0.087l0.021-0.424c0.975,0.047,1.917,0.068,2.835,0.085
		c-0.348-2.375-0.69-4.736-1.031-7.011c-0.312,0-0.609,0-0.894,0.001c-0.851,0.002-1.58,0.004-2.076-0.023l0.021-0.424
		c0.483,0.027,1.212,0.024,2.054,0.022c0.27-0.001,0.538,0,0.827-0.002c-0.243-1.637-0.482-3.225-0.717-4.739l0.42-0.064
		c0.108,0.722,0.373,2.448,0.729,4.804c1.138,0.004,2.372,0.027,3.532,0.121c-0.463-2.902-0.771-4.777-0.782-4.858l0.419-0.069
		c0.055,0.318,0.357,2.188,0.806,4.967c1.157,0.113,2.214,0.307,2.976,0.633c-0.519-3.284-0.866-5.442-0.884-5.531l0.42-0.068
		c0.061,0.355,0.421,2.587,0.938,5.842c0.196,0.125,0.36,0.265,0.483,0.421c0.354,0.445,2.07,3.35,4.468,7.474
		c-0.23-2.035-0.39-3.315-0.396-3.378l0.422-0.051c0.033,0.28,0.229,1.92,0.509,4.351c0.822,1.419,1.715,2.961,2.646,4.583
		c-0.095-1.007-0.188-1.983-0.273-2.913l0.425-0.041c0.077,0.825,0.206,2.163,0.356,3.836c0.562,0.981,1.144,1.985,1.729,3.007
		c-0.094-0.898-0.187-1.773-0.272-2.62l0.423-0.045c0.062,0.549,0.191,1.824,0.371,3.569c0.585,1.021,1.178,2.054,1.771,3.09
		c-0.104-1.008-0.199-1.923-0.285-2.718l0.425-0.045c0.024,0.25,0.174,1.619,0.382,3.669c0.599,1.043,1.195,2.092,1.789,3.128
		c-0.158-1.299-0.313-2.523-0.452-3.645l0.421-0.053c0.038,0.295,0.261,2.054,0.571,4.644c0.359,0.633,0.722,1.263,1.075,1.886
		c-0.159-0.999-0.318-1.974-0.478-2.915l0.42-0.069c0.146,0.876,0.373,2.279,0.654,4.034c0.312,0.552,0.623,1.094,0.931,1.631
		c-0.089-0.495-0.142-0.778-0.146-0.808l0.418-0.076c0.031,0.176,0.161,0.886,0.355,1.99c0.771,1.352,1.508,2.645,2.192,3.854
		c-0.362-1.771-0.596-2.854-0.604-2.914l0.415-0.091c0.062,0.276,0.394,1.851,0.873,4.2c0.494,0.87,0.96,1.688,1.389,2.438
		c-0.271-1.228-0.516-2.336-0.729-3.303l0.414-0.095c0.069,0.313,0.454,2.047,1.019,4.631c1.234,2.175,2.05,3.604,2.217,3.897
		l-0.369,0.209c-0.036-0.062-0.604-1.062-1.544-2.717c0.28,1.308,0.596,2.771,0.93,4.34c1.474,2.453,2.447,4.082,2.635,4.392
		l-0.362,0.22c-0.041-0.065-0.785-1.312-1.998-3.332c0.438,2.071,0.896,4.289,1.354,6.537c1.744,2.748,2.857,4.498,2.909,4.579
		l-0.355,0.229c-0.048-0.072-0.915-1.438-2.312-3.646c0.562,2.797,1.117,5.607,1.604,8.219c1.921,3.166,3.074,5.152,3.136,5.438
		l-0.416,0.085c-0.063-0.255-1.004-1.871-2.501-4.352c1.056,5.782,1.725,10.352,1.379,11.131l-0.392-0.172
		c0.327-0.739-0.436-5.684-1.608-11.984c-0.63-1.035-1.336-2.189-2.104-3.436c0.719,4.771,1.116,8.662,0.812,10.086l-0.415-0.093
		c0.313-1.465-0.165-5.754-0.975-10.937c-0.888-1.438-1.837-2.979-2.831-4.582c0.722,5.087,1.168,9.25,0.912,10.396l-0.413-0.095
		c0.261-1.166-0.268-5.733-1.062-11.209c-0.479-0.772-0.971-1.562-1.466-2.356c0.664,5.317,1.016,9.401,0.596,9.821l-0.306-0.295
		c0.317-0.463-0.083-4.659-0.829-10.396c-0.711-1.146-1.436-2.303-2.155-3.461c0.442,5.021,0.663,9.002,0.35,9.822L457.79,206
		l0.173,0.124c-0.146,0.203-0.764,0.394-1.713,0.562l0.306,7.209c1.604-0.15,2.934-0.315,3.814-0.48
		c-0.053-1.066-0.096-1.75-0.125-1.896l0.417-0.084c0.03,0.152,0.074,0.84,0.128,1.896c0.366-0.083,0.614-0.165,0.72-0.244
		l0.255,0.34c-0.148,0.115-0.479,0.229-0.954,0.335c0.081,1.681,0.185,4.099,0.279,6.735c1.843-0.168,3.217-0.354,3.844-0.535
		l0.12,0.408c-0.64,0.188-2.054,0.37-3.948,0.542c0.093,2.321,0.182,4.8,0.262,7.075c1.65-0.067,3.142-0.157,4.363-0.27l-0.354-7.15
		l0.424-0.021l0.357,7.14c1.648-0.158,2.758-0.354,3.051-0.582l0.262,0.336c-0.328,0.256-1.521,0.474-3.293,0.646l0.413,8.255
		l-0.424,0.021l-0.412-8.234c-1.24,0.111-2.728,0.209-4.374,0.286c0.149,4.271,0.264,7.76,0.275,8.129l-0.429,0.015
		c-0.07-2.289-0.172-5.154-0.271-8.123c-1.191,0.053-2.461,0.096-3.776,0.131l0.33,7.779l-0.425,0.021l-0.33-7.788
		c-1.378,0.029-2.805,0.055-4.241,0.062l0.456,8.098L452.545,236.759z M448.006,228.189c1.339,0.013,2.701,0.015,4.06,0.008
		l-0.382-6.723c-1.324,0.053-2.684,0.098-4.021,0.133L448.006,228.189z M452.108,221.459l0.38,6.736
		c1.438-0.01,2.867-0.029,4.247-0.062l-0.292-6.892C455.067,221.326,453.605,221.396,452.108,221.459z M443.104,228.104
		c1.43,0.041,2.938,0.068,4.479,0.084l-0.342-6.564c-1.47,0.035-2.912,0.062-4.283,0.064L443.104,228.104z M456.867,221.221
		l0.293,6.907c1.315-0.03,2.59-0.069,3.78-0.118c-0.085-2.383-0.177-4.818-0.261-7.06
		C459.547,221.047,458.256,221.139,456.867,221.221z M437.407,227.84c1.501,0.108,3.302,0.192,5.271,0.252l-0.146-6.402
		c-1.898,0.014-3.646-0.012-5.104-0.062L437.407,227.84z M437.433,221.232c1.442,0.056,3.188,0.072,5.092,0.062l-0.146-6.228
		c-1.782,0.021-3.479,0.006-4.922-0.062L437.433,221.232z M442.804,215.068l0.146,6.226c1.362-0.011,2.807-0.035,4.271-0.071
		l-0.324-6.258C445.533,215.016,444.146,215.051,442.804,215.068z M447.316,214.949l0.321,6.262
		c1.341-0.036,2.689-0.082,4.021-0.137l-0.355-6.319c-1.134,0.065-2.277,0.124-3.396,0.171
		C447.71,214.934,447.514,214.941,447.316,214.949z M451.729,214.729l0.356,6.328c1.498-0.062,2.963-0.137,4.34-0.219l-0.271-6.443
		C454.789,214.521,453.277,214.634,451.729,214.729z M456.576,214.354l0.271,6.459c1.395-0.084,2.688-0.178,3.818-0.271
		c-0.103-2.672-0.198-5.043-0.275-6.688C459.453,214.033,458.123,214.202,456.576,214.354z M437.458,214.604
		c1.414,0.063,3.099,0.073,4.911,0.049l-0.163-7.069c-1.708,0.01-3.326-0.017-4.721-0.071L437.458,214.604z M442.631,207.575
		l0.163,7.069c1.316-0.021,2.692-0.063,4.075-0.115l-0.365-7.041C445.209,207.533,443.899,207.562,442.631,207.575z
		 M446.928,207.473l0.366,7.039c1.344-0.056,2.688-0.125,3.986-0.205l-0.396-7.041C449.632,207.352,448.293,207.421,446.928,207.473
		z M451.308,207.236l0.396,7.044c1.587-0.101,3.093-0.216,4.43-0.339l-0.304-7.178C454.655,206.949,453.082,207.107,451.308,207.236
		z M465.609,208.292c0.736,1.203,1.424,2.317,2.044,3.335c-0.493-2.602-1.048-5.395-1.617-8.195
		c-0.52-0.812-1.087-1.712-1.701-2.679C464.798,203.323,465.238,205.898,465.609,208.292z M462.214,202.8
		c0.998,1.607,1.938,3.127,2.813,4.542c-0.394-2.423-0.844-5.004-1.309-7.558c-0.811-1.276-1.685-2.652-2.601-4.097
		C461.507,198.091,461.884,200.521,462.214,202.8z M437.487,207.076c1.341,0.056,2.938,0.079,4.709,0.066l-0.184-7.773
		c-1.571,0.023-3.129,0.021-4.501-0.016L437.487,207.076z M442.442,199.361l0.179,7.777c1.061-0.014,2.181-0.031,3.342-0.068
		c0.174-0.004,0.348-0.01,0.521-0.02l-0.406-7.808C444.908,199.299,443.672,199.338,442.442,199.361z M446.5,199.229l0.406,7.813
		c1.455-0.056,2.771-0.119,3.953-0.194l-0.442-7.867C449.348,199.073,447.988,199.16,446.5,199.229z M464.134,199.645
		c0.592,0.937,1.149,1.813,1.663,2.619c-0.462-2.259-0.932-4.506-1.385-6.645c-0.459-0.766-0.967-1.611-1.514-2.521
		C463.302,195.172,463.724,197.396,464.134,199.645z M460.209,199.574c0.49,0.787,0.971,1.56,1.439,2.314
		c-0.347-2.31-0.729-4.738-1.112-7.121c-0.413-0.65-0.832-1.313-1.258-1.982C459.614,195.116,459.934,197.43,460.209,199.574z
		 M437.52,198.932c1.359,0.035,2.911,0.035,4.488,0.01l-0.139-6.006c-1.462,0.043-2.965,0.033-4.328-0.057L437.52,198.932z
		 M442.294,192.92l0.139,6.014c1.229-0.021,2.458-0.062,3.62-0.106l-0.313-6.132C444.703,192.795,443.52,192.875,442.294,192.92z
		 M457.56,195.322c0.723,1.15,1.424,2.277,2.105,3.378c-0.281-2.121-0.604-4.423-0.95-6.806c-0.583-0.918-1.176-1.854-1.771-2.791
		C457.168,191.229,457.379,193.343,457.56,195.322z M460.947,194.623c0.896,1.414,1.761,2.773,2.563,4.047
		c-0.427-2.312-0.855-4.575-1.268-6.656c-0.748-1.244-1.562-2.593-2.406-4.005C460.193,190.061,460.572,192.316,460.947,194.623z
		 M454.763,190.846c0.779,1.246,1.547,2.475,2.3,3.68c-0.186-1.967-0.396-4.067-0.628-6.226c-0.697-1.108-1.403-2.224-2.105-3.332
		C454.49,186.982,454.641,188.982,454.763,190.846z M462.659,191.873c0.521,0.876,1.021,1.702,1.479,2.468
		c-0.334-1.569-0.651-3.067-0.957-4.452c-0.425-0.748-0.896-1.582-1.417-2.49C462.037,188.73,462.34,190.244,462.659,191.873z
		 M459.129,191.757c0.416,0.655,0.827,1.304,1.232,1.942c-0.394-2.369-0.776-4.662-1.128-6.702
		c-0.357-0.595-0.727-1.201-1.095-1.813C458.467,187.286,458.804,189.521,459.129,191.757z M456.844,188.15
		c0.576,0.91,1.152,1.813,1.726,2.715c-0.321-2.188-0.66-4.432-1.007-6.649c-0.467-0.774-0.938-1.559-1.409-2.35
		C456.377,183.873,456.615,186.008,456.844,188.15z M459.645,186.854c0.825,1.375,1.618,2.693,2.361,3.937
		c-0.338-1.712-0.647-3.271-0.919-4.582c-0.695-1.226-1.45-2.546-2.247-3.944C459.064,183.523,459.34,185.094,459.645,186.854z
		 M452.545,187.305c0.585,0.938,1.167,1.862,1.741,2.78c-0.129-1.866-0.285-3.865-0.455-5.896c-0.585-0.924-1.166-1.842-1.737-2.746
		C452.263,183.46,452.418,185.451,452.545,187.305z M454.248,184.055c0.691,1.092,1.389,2.192,2.085,3.29
		c-0.228-2.114-0.468-4.259-0.709-6.349c-0.646-1.068-1.29-2.142-1.935-3.213C453.876,179.777,454.068,181.914,454.248,184.055z
		 M450.037,183.302c0.68,1.084,1.354,2.161,2.022,3.233c-0.133-1.832-0.286-3.815-0.467-5.875c-0.647-1.032-1.293-2.046-1.912-3.026
		C449.823,179.599,449.945,181.523,450.037,183.302z M457.972,184.072c0.357,0.594,0.713,1.186,1.063,1.766
		c-0.327-1.891-0.613-3.507-0.822-4.683c-0.312-0.556-0.637-1.118-0.964-1.69C457.469,180.855,457.715,182.413,457.972,184.072z
		 M452.016,180.525c0.57,0.898,1.151,1.816,1.738,2.748c-0.183-2.135-0.378-4.289-0.571-6.333c-0.59-0.979-1.176-1.95-1.755-2.91
		C451.624,176.103,451.827,178.318,452.016,180.525z M456.031,180.846c0.455,0.758,0.909,1.512,1.354,2.258
		c-0.247-1.59-0.495-3.163-0.734-4.687c-0.375-0.656-0.759-1.322-1.144-1.994C455.67,177.752,455.847,179.248,456.031,180.846z
		 M447.482,179.229c0.69,1.108,1.393,2.218,2.085,3.323c-0.104-1.769-0.229-3.694-0.373-5.695c-0.779-1.233-1.521-2.41-2.212-3.506
		C447.173,175.393,447.345,177.39,447.482,179.229z M453.597,176.804c0.641,1.054,1.273,2.114,1.909,3.169
		c-0.181-1.548-0.359-3.059-0.533-4.493c-0.601-1.051-1.207-2.112-1.812-3.177C453.289,173.624,453.439,175.154,453.597,176.804z
		 M449.621,176.738c0.613,0.97,1.247,1.973,1.896,3.002c-0.188-2.146-0.391-4.358-0.6-6.547c-0.616-1.021-1.223-2.023-1.812-2.996
		C449.287,172.306,449.463,174.535,449.621,176.738z M443.391,172.776c0.106,0.119,0.202,0.245,0.285,0.38
		c0.287,0.464,1.308,2.085,2.791,4.454c0.178,0.282,0.354,0.565,0.531,0.847c-0.147-1.864-0.326-3.87-0.521-5.908
		c-1.914-3.042-3.368-5.371-4.019-6.434C442.794,168.413,443.11,170.672,443.391,172.776z M451.335,173.054
		c0.577,0.957,1.163,1.929,1.754,2.909c-0.155-1.622-0.308-3.164-0.45-4.563c-0.592-1.035-1.184-2.068-1.771-3.093
		C451.008,169.698,451.168,171.313,451.335,173.054z M446.895,172.414c0.691,1.098,1.441,2.287,2.234,3.543
		c-0.159-2.157-0.335-4.386-0.519-6.589c-0.857-1.417-1.676-2.763-2.432-4.005C446.424,167.631,446.67,170.041,446.895,172.414z
		 M439.815,171.214c1.215,0.206,2.31,0.55,3.085,1.121c-0.308-2.245-0.646-4.655-0.998-7.092c-0.649-0.766-1.774-1.215-3.105-1.475
		C439.162,166.312,439.512,168.847,439.815,171.214z M449.031,169.242c0.582,0.962,1.184,1.956,1.796,2.971
		c-0.157-1.635-0.318-3.25-0.479-4.809c-0.59-1.029-1.172-2.042-1.739-3.035C448.738,165.825,448.883,167.481,449.031,169.242z
		 M442.311,165.071c0.082,0.107,0.157,0.22,0.229,0.338c0.329,0.575,1.781,2.905,3.853,6.199c-0.229-2.414-0.479-4.844-0.727-7.105
		c-2.271-3.732-3.891-6.368-4.247-6.874c-0.078-0.111-0.166-0.215-0.262-0.312C441.534,159.817,441.93,162.458,442.311,165.071z
		 M435.694,170.914c1.189,0.013,2.479,0.063,3.68,0.231c-0.306-2.37-0.657-4.911-1.023-7.457c-1.146-0.185-2.428-0.247-3.668-0.263
		C435.037,165.969,435.383,168.518,435.694,170.914z M446.078,164.369c0.755,1.242,1.579,2.602,2.452,4.044
		c-0.146-1.68-0.287-3.338-0.436-4.926c-0.918-1.594-1.799-3.122-2.619-4.541C445.66,160.537,445.865,162.387,446.078,164.369z
		 M438.73,163.313c1.229,0.225,2.312,0.603,3.064,1.231c-0.377-2.579-0.768-5.175-1.142-7.622c-0.732-0.467-1.765-0.708-3.001-0.84
		C438.01,158.395,438.377,160.853,438.73,163.313z M441.055,156.678c0.276,0.199,0.518,0.433,0.707,0.707
		c0.339,0.48,1.771,2.798,3.792,6.123c-0.222-2.049-0.431-3.927-0.604-5.484c-2.643-4.551-4.563-7.806-4.922-8.267
		c-0.021-0.021-0.035-0.043-0.059-0.063C440.291,151.731,440.663,154.12,441.055,156.678z M434.623,162.998
		c1.248,0.013,2.511,0.069,3.663,0.242c-0.354-2.451-0.72-4.9-1.07-7.199c-1.073-0.089-2.29-0.112-3.604-0.135
		C433.94,158.171,434.285,160.58,434.623,162.998z M437.591,155.649c1.188,0.119,2.201,0.333,2.985,0.737
		c-0.398-2.604-0.775-5.024-1.101-7.057c-0.681-0.363-1.766-0.576-2.98-0.7C436.812,150.622,437.19,153.034,437.591,155.649z
		 M433.551,155.48c1.308,0.023,2.521,0.044,3.604,0.13c-0.4-2.623-0.779-5.038-1.1-7.021c-1.163-0.096-2.416-0.122-3.54-0.127
		C432.814,150.459,433.171,152.868,433.551,155.48z"/>
</g>
<g>
	<g>
		<path id="beams" fill="#9B9B9B" d="M473.515,67.458H428.36v-3.747h45.149L473.515,67.458L473.515,67.458z M473.515,107.817H428.36
			v3.747h45.149L473.515,107.817L473.515,107.817z"/>
		<path id="beamsBorder" fill="#6D6D6D" d="M474.027,67.971h-46.185v-4.772h46.185V67.971z M428.873,66.945h44.129v-2.722h-44.129
			V66.945z M474.027,112.077h-46.185v-4.772h46.185V112.077z M428.873,111.052h44.129v-2.722h-44.129V111.052z"/>
		<path id="Side" fill="#C6C6C6" d="M421.604,40.614h8.278v94.263h-8.278V40.614z"/>
		<path id="backboard" fill="#FFFFFF" d="M416.541,39.476l5.062,1.138v94.264l-5.062-34.616V39.476z"/>
		<path id="BackboardBorder" fill="#E0E0E0" d="M424.797,39.476l5.085,1.139h-8.278l-5.062-1.139H424.797z M416.541,39.476v60.786
			l5.062,34.616h8.275V40.614l-5.085-1.139L416.541,39.476L416.541,39.476z M425.155,37.875l5.085,1.139l1.281,0.287v1.313v94.263
			v1.64h-1.645H421.6h-1.417l-0.2-1.402l-5.063-34.616l-0.018-0.118v-0.119V39.476v-1.641h1.641h8.256h0.183L425.155,37.875z"/>
	</g>
	<g>
		<path id="NetBorder" fill="#EFEFEF" d="M411.619,101.985c-1.093-1.064-3.796-2.149-7.319-2.972
			c-0.202-0.197-0.43-0.312-0.688-0.323c-0.16-0.007-0.315,0.02-0.466,0.069c-3.693-0.763-8.125-1.232-12.506-1.122h0.002
			c-10.18,0.257-22.312,1.439-22.312,5.616c0,1.287,1.581,3.557,4.374,7.457c1.442,2.014,3.011,4.204,4.334,6.329h-0.002
			c0.008,0.014,0.017,0.025,0.024,0.038c0.672,1.081,1.278,2.144,1.772,3.157c1.312,2.696,2.151,5.875,2.769,8.669
			c0.035,0.166,0.062,0.294,0.082,0.379c0.002,0.009,0.004,0.019,0.008,0.026c0.17,0.787,0.322,1.538,0.465,2.234
			c0.599,2.939,0.912,4.376,1.509,4.887c0.715,0.613,3.508,1.016,6.25,1.022c0.067,0.015,0.137,0.022,0.207,0.022
			c0.071,0,0.142-0.008,0.211-0.025c0.961-0.012,1.903-0.074,2.731-0.195c1.865-0.272,3.068-0.809,3.574-1.596
			c0.616-0.958,1.305-3.219,2.174-6.081c1.274-4.192,2.86-9.411,4.771-12.18c0.673-0.977,1.429-2.036,2.229-3.158
			c3.771-5.287,6.441-9.171,6.441-10.986C412.254,102.823,412.04,102.396,411.619,101.985z M373.623,110.053
			c-2.047-2.857-4.163-5.812-4.163-6.799c0-1.351,2.638-2.5,7.241-3.304c-1.434,1.633-2.432,4.265-3.061,5.927l1.122,0.425
			c0.718-1.896,2.398-6.338,4.433-6.599c1.089-0.146,2.838,3.797,3.772,7.563l1.165-0.289c-0.021-0.086-0.535-2.142-1.353-4.198
			c-0.626-1.573-1.257-2.702-1.898-3.405c2.687-0.29,5.781-0.491,9.208-0.59c-1.376,1.9-1.801,5.733-2.033,7.892
			c-0.023,0.212-0.045,0.4-0.062,0.557l1.191,0.141c0.02-0.161,0.039-0.352,0.062-0.568c0.583-5.391,1.539-8.068,2.871-7.95
			c0.951,0.083,2.542,2.795,3.098,8.566l1.194-0.114c-0.009-0.093-0.224-2.287-0.789-4.551c-0.452-1.809-0.991-3.124-1.625-3.967
			c2.893,0.109,5.64,0.442,8.056,0.899c-1.154,1.653-1.807,4.979-1.921,7.034l1.198,0.067c0.193-3.48,1.367-6.365,2.044-6.833
			c0.08,0.017,0.161,0.034,0.24,0.052c0.446,0.692,0.874,3.444,0.948,6.277l1.171-0.031c-0.817,0.724-1.744,2.489-2.903,5.614
			c-1.033-2.271-2.225-4.535-3.886-4.535c-1.427,0-2.393,3.349-4.283,12.026c-1.916-8.814-3.029-11.622-4.351-11.622
			c-0.018,0-0.035,0.001-0.052,0.001c-1.291,0.071-2.583,2.898-4.543,9.032c-1.377-7.716-1.852-9.098-2.771-9.168
			c-1.227-0.098-2.196,1.974-3.659,5.359c-0.011,0.023-0.021,0.048-0.031,0.071c-1.405-5.403-2.086-6.127-2.676-6.226
			c-0.373-0.062-0.746,0.031-1.079,0.269c-0.837,0.598-1.372,2.141-1.665,3.273C373.766,110.251,373.693,110.152,373.623,110.053z
			 M374.717,111.585c0.23-1.229,0.781-3.116,1.441-3.587c0.07-0.051,0.126-0.069,0.166-0.075c0.369,0.383,1.025,2.043,2.189,6.787
			c-0.269,0.581-0.527,1.099-0.729,1.398C376.829,114.593,375.764,113.06,374.717,111.585z M378.411,117.12
			c0.163-0.166,0.329-0.399,0.511-0.713c0.194,0.831,0.402,1.738,0.623,2.729C379.203,118.476,378.82,117.802,378.411,117.12z
			 M382.396,127.157c-1.103-5.433-1.979-9.415-2.691-12.335c0.186-0.412,0.391-0.88,0.619-1.41c0.645-1.491,1.812-4.195,2.431-4.628
			c0.578,1.004,1.464,5.927,2.229,10.336c-0.375,1.218-0.771,2.539-1.194,3.967c-0.476,1.608-0.962,3.249-1.331,4.375
			C382.439,127.363,382.419,127.262,382.396,127.157z M384.4,135.573c-0.334-0.302-0.762-2.401-1.139-4.255
			c-0.117-0.581-0.244-1.2-0.382-1.847c0.349-0.578,0.818-2.099,1.993-6.062c0.161-0.543,0.343-1.156,0.54-1.814
			c1.454,8.327,2.386,12.781,3.371,14.702C386.576,136.194,384.714,135.843,384.4,135.573z M390.122,136.318
			c-1.169-0.894-2.824-10.456-3.819-16.208c-0.055-0.314-0.106-0.621-0.16-0.92c1.409-4.571,3.199-9.896,4.15-10.309
			c1.043,0.647,2.628,7.57,3.789,13.166C392.925,127.449,391.191,135.523,390.122,136.318z M395.688,135.048
			c-0.307,0.479-1.322,0.875-2.787,1.089c-0.461,0.067-0.938,0.114-1.422,0.146c0.924-1.724,1.838-5.388,3.166-11.48
			c0.11,0.553,0.215,1.072,0.31,1.546c0.951,4.766,1.27,6.256,1.562,6.747C396.209,133.983,395.932,134.671,395.688,135.048z
			 M397.658,128.751c-0.224,0.8-0.434,1.554-0.608,2.175c-0.276-1.235-0.636-3.035-0.987-4.799
			c-0.291-1.459-0.565-2.812-0.826-4.065c1.183-5.516,2.776-12.917,3.761-13.593c1.117,0.085,2.399,2.957,3.172,4.683
			c0.038,0.087,0.076,0.172,0.113,0.254C401.037,116.981,399.539,121.988,397.658,128.751z M402.652,116.757
			c-0.207,0.301-0.411,0.627-0.61,0.976c0.256-0.812,0.515-1.614,0.774-2.394c0.053-0.16,0.104-0.317,0.157-0.471
			c0.169,0.318,0.323,0.562,0.479,0.74C403.177,116.002,402.908,116.385,402.652,116.757z M406.877,110.782
			c-0.664,0.95-1.343,1.901-1.985,2.802c-0.255,0.358-0.506,0.71-0.751,1.055c-0.183-0.3-0.418-0.792-0.643-1.284
			c2.026-5.69,2.917-6.297,3.108-6.358c0.187,0.007,0.304,0.071,0.399,0.213c0.509,0.75,0.071,2.961-0.166,3.558L406.877,110.782z
			 M408.375,108.59c0.023-0.742-0.075-1.488-0.433-2.015c-0.315-0.465-0.791-0.71-1.376-0.71h-0.002l-0.054,0.003
			c-0.241,0.022-0.489,0.144-0.749,0.366c-0.055-2.065-0.24-4.37-0.738-5.882c2.9,0.756,5.005,1.662,5.807,2.443
			c0.271,0.266,0.293,0.419,0.293,0.459C411.123,104.192,409.927,106.256,408.375,108.59z"/>
		<path id="RimBorder" fill="#EF5018" d="M390.473,99.59c-5.561,0-10.826,0.46-14.828,1.294c-4.56,0.952-5.783,2.043-5.853,2.351
			c0.069,0.287,1.293,1.379,5.853,2.33c4.002,0.834,9.269,1.294,14.828,1.294c5.561,0,10.826-0.46,14.827-1.294
			c4.561-0.951,5.783-2.043,5.854-2.351c-0.069-0.287-1.293-1.379-5.854-2.331C401.299,100.05,396.033,99.59,390.473,99.59z
			 M390.473,109.12c-8.521,0-22.938-1.242-22.938-5.895c0-4.654,14.419-5.896,22.938-5.896c7.529,0,19.659,0.972,22.379,4.41h4.907
			l1.399,2.891h-6.246C410.319,108.133,398.061,109.12,390.473,109.12z"/>
	</g>
</g>
</svg>
