<?xml version="1.0" encoding="utf-8"?>
<!-- Generator: Adobe Illustrator 15.0.0, SVG Export Plug-In . SVG Version: 6.00 Build 0)  -->
<!DOCTYPE svg PUBLIC "-//W3C//DTD SVG 1.1//EN" "http://www.w3.org/Graphics/SVG/1.1/DTD/svg11.dtd">
<svg version="1.1" id="Layer_1" xmlns="http://www.w3.org/2000/svg" xmlns:xlink="http://www.w3.org/1999/xlink" x="0px" y="0px"
	 width="286px" height="323px" viewBox="0 0 286 323" enable-background="new 0 0 286 323" xml:space="preserve">
<g id="House3.svg">
	<path id="Front" fill="#FFFFFF" d="M275.044,127.429v-11.443l-131.47-96.551L11.708,117.353v10.635l6.478-4.355l125.117-93.901
		l125.449,93.901L275.044,127.429z"/>
	<path fill="#BEA7CE" d="M259.161,311.579H27.441V117.702l115.861-87.97l115.859,87.97V311.579z"/>
	<path id="Windowsil" fill="#7C706D" d="M107.943,288.295H44.371v-3.443h63.572V288.295z M242.458,284.852h-63.572v3.443h63.572
		V284.852z"/>
	<path id="Windowdoor" fill="#8197A3" d="M155.119,231.277v42.268h-24.994v-42.268H155.119z M107.943,220.496H44.371v64.355h63.572
		V220.496z M242.458,284.852h-63.572v-64.354h63.572V284.852z M240.98,189.617h-83.571v-54.355h83.571V189.617z M129.193,189.617
		H45.621v-54.355h83.572V189.617z M161.602,93.794h-36.6v-37.05h36.6V93.794z"/>
	<path id="WindowdoorBorder" fill="#FFFFFF" d="M121.911,220.496v91.083h42.778v-91.083H121.911z M155.119,273.545h-24.994v-42.268
		h24.994V273.545z M107.943,220.496H44.371v64.355h63.572V220.496L107.943,220.496z M73.362,226.086v53.176H49.961v-53.176H73.362z
		 M102.353,279.262H78.952v-53.176h23.401V279.262z M242.458,220.496h-63.572v64.355h63.572V220.496L242.458,220.496z
		 M207.875,226.086v53.176h-23.4v-53.176C184.477,226.086,207.876,226.086,207.875,226.086z M236.868,279.262h-23.402v-53.176
		h23.402V279.262z M240.98,135.262h-83.571v54.355h83.571V135.262L240.98,135.262z M196.4,140.852v43.175H163v-43.175
		C162.999,140.852,196.398,140.852,196.4,140.852z M235.391,184.027h-33.4v-43.176h33.402v43.176H235.391z M129.193,135.262H45.621
		v54.355h83.572V135.262L129.193,135.262z M84.612,140.852v43.175H51.211v-43.175C51.211,140.852,84.613,140.852,84.612,140.852z
		 M123.603,184.027h-33.4c-0.001,0-0.001-43.176,0-43.176h33.4V184.027z M161.602,56.745h-36.6v37.05h36.6V56.745L161.602,56.745z
		 M156.01,88.204h-9.914c0,0,0-25.87,0-25.869h9.914V88.204z M140.506,62.334v25.87h-9.914V62.335
		C130.592,62.335,140.506,62.335,140.506,62.334z"/>
	<path id="path_1" fill="#C1C1C1" d="M153.457,280.643c0-1.436,1.164-2.6,2.6-2.6c1.435,0,2.598,1.164,2.598,2.6
		c0,1.435-1.163,2.599-2.598,2.599C154.621,283.241,153.457,282.077,153.457,280.643"/>
	<path id="KnobBorder" fill="#66524C" d="M156.057,284.079c-1.896,0-3.438-1.542-3.438-3.438c0-1.895,1.542-3.437,3.438-3.437
		s3.438,1.542,3.438,3.437C159.493,282.537,157.951,284.079,156.057,284.079z M156.057,278.883c-0.972,0-1.761,0.789-1.761,1.76
		s0.79,1.76,1.761,1.76c0.969,0,1.76-0.789,1.76-1.76S157.025,278.883,156.057,278.883z"/>
	<path fill="#40247C" d="M275.044,114.745v-5.575l-131.47-97.002L11.708,110.085v6.022L143.57,18.191L275.044,114.745z"/>
	<path fill="#40247C" d="M143.572,10.924L10.708,109.582v7.268l2-1.485v-4.777l130.868-97.176l130.468,96.263v4.335l2,1.469v-6.814
		L143.572,10.924z"/>
	<path id="HouseBorder" fill="#9E87AF" d="M260.66,118.82l7.574,5.669l7.811,4.71v-13.721L143.57,18.191L10.708,116.85v13.015
		l8.078-5.433l7.156-5.371v194.017h234.719C260.661,313.079,260.661,118.819,260.66,118.82z M123.911,222.496h38.778v87.083h-38.778
		V222.496z M48.733,103.455l-0.017-0.023l94.585-71.817l94.563,71.802l-0.034,0.038H48.733z M257.661,118.447v191.632h-92.972
		v-89.583h-42.778v89.583H28.942V118.447l12.633-9.592l-0.02-0.025h203.505l-0.021,0.035L257.661,118.447z M274.044,116.492v9.167
		l-4.694-2.827L143.9,28.931l-0.6-0.449l-125.674,94.32l-4.919,3.308v-8.254l130.87-97.178L274.044,116.492z"/>
</g>
</svg>
