<svg xmlns="http://www.w3.org/2000/svg" xmlns:xlink="http://www.w3.org/1999/xlink" viewBox= "0 0 387 235" width="387px" height="235px"><g id="Monkey.svg"><path id="Body" fill="#FFC200" d="M270.15399169921875,126.19099426269531C267.3630065917969,130.4040069580078,263.1300048828125,134.5540008544922,259.8330078125,136.6719970703125C254.8590087890625,139.86900329589844,249.1750030517578,144.13299560546875,239.93699645996094,155.85699462890625C230.7010040283203,167.58200073242188,214.0019989013672,192.8040008544922,210.80599975585938,197.4219970703125C207.60899353027344,202.0399932861328,213.11300659179688,208.83200073242188,212.39199829101562,213.43899536132812C211.6699981689453,218.04400634765625,205.0399932861328,216.8730010986328,197.5800018310547,217.58399963378906C190.1199951171875,218.2949981689453,196.593994140625,209.1479949951172,198.01499938964844,207.3719940185547C199.43699645996094,205.5959930419922,195.17300415039062,198.13499450683594,194.8179931640625,195.64599609375C194.46299743652344,193.15899658203125,198.37100219726562,182.14599609375,204.76699829101562,166.16099548339844C209.64999389648438,153.9530029296875,216.60499572753906,142.98599243164062,223.4149932861328,133.10499572753906L223.4149932861328,133.10699462890625C222.05599975585938,133.13099670410156,220.69200134277344,133.13600158691406,219.33200073242188,133.12100219726562C190.2010040283203,132.76600646972656,177.05499267578125,119.97599792480469,177.05499267578125,119.97599792480469C177.05499267578125,119.97599792480469,180.60800170898438,126.37100219726562,179.89700317382812,132.05499267578125C179.49099731445312,135.31100463867188,174.0780029296875,140.42599487304688,166.85800170898438,145.47300720214844L165.9980010986328,147.6649932861328C163.74600219726562,153.0570068359375,160.41200256347656,158.85299682617188,157.51600646972656,165.44900512695312C151.12100219726562,180.01300048828125,137.26600646972656,194.93499755859375,134.06900024414062,197.77699279785156C130.8719940185547,200.6199951171875,149.7010040283203,205.94900512695312,158.2270050048828,205.94900512695312C166.7530059814453,205.94900512695312,173.85800170898438,213.0540008544922,170.30599975585938,213.41000366210938C166.75399780273438,213.76499938964844,155.38499450683594,211.98899841308594,151.4770050048828,211.63400268554688C147.56900024414062,211.27999877929688,154.31900024414062,216.2519989013672,150.41099548339844,220.16000366210938C146.5030059814453,224.0679931640625,138.68800354003906,216.60699462890625,135.8459930419922,213.41000366210938C135.27999877929688,212.7729949951172,133.95199584960938,212.03799438476562,132.18299865722656,211.24600219726562L132.1790008544922,211.24400329589844C130.7969970703125,213.19500732421875,129.1999969482422,214.66700744628906,128.02999877929688,215.18499755859375C126.52900695800781,215.85299682617188,125.80999755859375,212.36900329589844,125.177001953125,208.48399353027344L111.25599670410156,203.51699829101562C108.01399993896484,204.125,106.177001953125,193.13800048828125,104.83200073242188,186.54800415039062L104.83300018310547,186.5469970703125C101.86100006103516,184.00399780273438,99.10700225830078,181.53799438476562,97.12100219726562,179.65699768066406C90.37100219726562,173.26100158691406,88.95099639892578,168.2899932861328,86.10800170898438,161.1840057373047C83.26499938964844,154.0780029296875,104.58200073242188,145.55099487304688,117.01599884033203,137.73699951171875C122.95700073242188,134.0030059814453,128.41200256347656,130.6739959716797,132.48800659179688,128.21600341796875L132.48699951171875,128.21499633789062C131.468994140625,126.49299621582031,130.4409942626953,124.57499694824219,129.4499969482422,122.46000671386719C127.76199340820312,118.85600280761719,126.53700256347656,115.36000061035156,125.67399597167969,111.97200012207031C124.52200317382812,107.4489974975586,124.01499938964844,103.11499786376953,123.91099548339844,98.97200012207031L123.91000366210938,98.97200012207031C123.74400329589844,98.74700164794922,123.57699584960938,98.5250015258789,123.41000366210938,98.3030014038086C114.88400268554688,86.93499755859375,117.72599792480469,63.13200378417969,131.93600463867188,51.053001403808594C132.25,50.78499984741211,132.5709991455078,50.52299880981445,132.89700317382812,50.263999938964844L132.90199279785156,50.266998291015625C127.20799255371094,47.35100173950195,114.25599670410156,41.8380012512207,94.98799896240234,40.03900146484375C68.34400177001953,37.553001403808594,44.24399948120117,51.393001556396484,33.0099983215332,68.74400329589844C21.775999069213867,86.09500122070312,27.029998779296875,111.64600372314453,48,112.0009994506836C65.63999938964844,112.30000305175781,63.73500061035156,88.60800170898438,48.59000015258789,88.60800170898438C41.74399948120117,88.10800170898438,41.99700164794922,93.76000213623047,44.8390007019043,94.47000122070312C47.680999755859375,95.18000030517578,53.56399917602539,93.93699645996094,52.499000549316406,101.39800262451172C51.433998107910156,108.85900115966797,36.54100036621094,103.91899871826172,34.279998779296875,97.10600280761719C32.01900100708008,90.29299926757812,35.44599914550781,79.01499938964844,50.01100158691406,79.72599792480469C64.57599639892578,80.43699645996094,71.24299621582031,89.51399993896484,70.24600219726562,104.42900085449219C68.64399719238281,128.39199829101562,26.64699935913086,125.34100341796875,18.854999542236328,101.1520004272461C13.513999938964844,84.5719985961914,19.51799964904785,61.621002197265625,46.534000396728516,41.415000915527344C88.18399810791016,10.263999938964844,134.7790069580078,32.58100128173828,153.60800170898438,40.75199890136719L153.4759979248047,40.694000244140625C166.7259979248047,37.33300018310547,182.5229949951172,37.15299987792969,197.66200256347656,40.39699935913086C222.531005859375,45.72600173950195,261.9649963378906,54.9630012512207,265.87298583984375,56.38500213623047C269.781005859375,57.80699920654297,293.93701171875,57.44999694824219,300.68701171875,57.805999755859375C307.43701171875,58.16200256347656,311.3450012207031,63.48999786376953,313.12298583984375,63.48999786376953C314.9010009765625,63.48999786376953,333.39801025390625,64.23999786376953,339.43701171875,74.18699645996094C345.47601318359375,84.13400268554688,338.656005859375,89.03099822998047,340.375,93.875C341.2250061035156,96.26799774169922,344.197998046875,97.13500213623047,345.6499938964844,100.22899627685547C347.1029968261719,103.322998046875,347.3869934082031,106.08100128173828,346.281005859375,109.875C342.7279968261719,122.30999755859375,315.6400146484375,120.05400085449219,310.6669921875,116.5009994506836L309.57000732421875,115.71499633789062C309.2149963378906,117.84700012207031,309.68499755859375,120.08200073242188,311.5539855957031,127.3280029296875C313.42401123046875,134.57400512695312,311.7869873046875,141.3489990234375,313.6579895019531,147.1929931640625C315.5270080566406,153.03599548339844,339.4119873046875,197.4239959716797,340.8340148925781,201.33299255371094C342.2560119628906,205.24200439453125,344.7409973144531,204.88600158691406,357.531005859375,207.01800537109375C370.32000732421875,209.1510009765625,373.87298583984375,211.9929962158203,374.5840148925781,214.83399963378906C374.5840148925781,214.83399963378906,347.5840148925781,216.96400451660156,340.47900390625,217.3179931640625C333.375,217.67300415039062,331.2430114746094,212.343994140625,321.6510009765625,204.5290069580078C312.0589904785156,196.71299743652344,298.4670104980469,176.64199829101562,291.0979919433594,161.54200744628906C283.72698974609375,146.4409942626953,278.3070068359375,123.88499450683594,278.3070068359375,123.88499450683594C278.3070068359375,123.88499450683594,275.2560119628906,124.86500549316406,270.1549987792969,126.18800354003906L270.1549987792969,126.19099426269531zM124.17100524902344,165.26600646972656C117.8030014038086,167.35400390625,112.79199981689453,168.90499877929688,111.33300018310547,169.71400451660156C110.01599884033203,170.44500732421875,113.03800201416016,174.552001953125,117.2969970703125,179.55099487304688L124.17100524902344,165.26600646972656z"></path><path fill="#FFE0D4" d="M328.7770080566406,86.33999633789062C325.7099914550781,96.05400085449219,337.8009948730469,99.0459976196289,337.8009948730469,99.0459976196289C337.8009948730469,99.0459976196289,328.2869873046875,101.50700378417969,329.0559997558594,109.33100128173828C329.67401123046875,115.62100219726562,334.6600036621094,118.80400085449219,336.6260070800781,118.16300201416016C343.3550109863281,115.77999877929688,345.4200134277344,112.88300323486328,346.27899169921875,109.875C347.4179992675781,105.97100067138672,347.2950134277344,102.52100372314453,344.9729919433594,99.12699890136719C342.65301513671875,95.73300170898438,341.1969909667969,96.1969985961914,340.3710021972656,93.875C339.3240051269531,90.92500305175781,341.4410095214844,87.9530029296875,341.8940124511719,83.83399963378906C339.32598876953125,79.88400268554688,330.8810119628906,79.05000305175781,328.7770080566406,86.33999633789062z"></path><path id="Back_x5F_Patch_3_" fill="#FFB000" d="M265.87298583984375,56.38600158691406C261.9649963378906,54.9640007019043,222.531005859375,45.72700119018555,197.66200256347656,40.39799880981445C185.03900146484375,37.69300079345703,171.96099853515625,37.37300109863281,160.281005859375,39.28799819946289C163.31700134277344,53.86199951171875,186.2310028076172,68.9520034790039,216.1269989013672,74.9209976196289C250.24700927734375,81.73300170898438,280.5369873046875,74.08300018310547,283.781005859375,57.834999084472656C283.802001953125,57.73100280761719,283.8059997558594,57.62699890136719,283.82598876953125,57.52400207519531C275.8909912109375,57.39900207519531,267.968994140625,57.14800262451172,265.87298583984375,56.38600158691406z"></path><path fill="#474445" d="M338.89801025390625,92.3759994506836C338.89801025390625,92.3759994506836,337.5320129394531,94.05400085449219,336.4150085449219,94.05400085449219C335.29901123046875,94.05400085449219,334.3940124511719,92.86000061035156,334.3940124511719,91.38700103759766C334.3940124511719,89.91400146484375,335.2980041503906,88.72100067138672,336.4150085449219,88.72100067138672C338.45098876953125,88.72100067138672,338.89801025390625,92.3759994506836,338.89801025390625,92.3759994506836z"></path><path id="BodyBorder" fill="#EA9000" d="M270.97698974609375,127.86799621582031C267.97698974609375,132.12899780273438,263.7829895019531,136.0659942626953,260.7120056152344,138.04100036621094C256.1369934082031,140.97999572753906,250.48098754882812,145.10299682617188,241.21499633789062,156.86399841308594C233.84100341796875,166.2220001220703,221.4340057373047,184.60699462890625,215.47000122070312,193.4429931640625C213.94000244140625,195.7100067138672,212.7779998779297,197.43299865722656,212.14300537109375,198.3470001220703C210.71099853515625,200.4149932861328,211.69000244140625,203.3679962158203,212.72300720214844,206.49400329589844C213.5260009765625,208.91600036621094,214.35400390625,211.42100524902344,213.9980010986328,213.68800354003906C213.24000549316406,218.52999877929688,208.1300048828125,218.71600341796875,202.72000122070312,218.91600036621094C201.11399841308594,218.9759979248047,199.4499969482422,219.03599548339844,197.73699951171875,219.19900512695312C197.40499877929688,219.2310028076172,197.093994140625,219.24600219726562,196.8070068359375,219.24600219726562C196.80499267578125,219.24600219726562,196.80499267578125,219.24600219726562,196.80499267578125,219.24600219726562C194.32400512695312,219.24600219726562,193.25900268554688,218.1179962158203,192.8040008544922,217.17100524902344C191.16000366210938,213.75100708007812,195.58599853515625,207.822998046875,196.67799377441406,206.44200134277344C196.86000061035156,205.46400451660156,195.4459991455078,202.02200317382812,194.75799560546875,200.3520050048828C194.01199340820312,198.53500366210938,193.36599731445312,196.96299743652344,193.21099853515625,195.8730010986328C192.94000244140625,193.9770050048828,193.9219970703125,188.89300537109375,203.25900268554688,165.55499267578125C207.78599548339844,154.23899841308594,214.0279998779297,144.03900146484375,220.32200622558594,134.75100708007812L220.3249969482422,134.7519989013672C219.98800659179688,134.75,219.64999389648438,134.7469940185547,219.31399536132812,134.74200439453125C199.52099609375,134.50100708007812,186.9810028076172,128.67999267578125,180.71800231933594,124.7239990234375C181.37100219726562,126.97999572753906,181.83299255371094,129.66200256347656,181.50900268554688,132.2519989013672C181.03599548339844,136.031005859375,175.70599365234375,141.1230010986328,168.97000122070312,145.95599365234375L168.20599365234375,146.5C166.92999267578125,149.88600158691406,165.1840057373047,153.36900329589844,163.35000610351562,157.0290069580078C161.89999389648438,159.92100524902344,160.40199279785156,162.91200256347656,159.0030059814453,166.0959930419922C152.5019989013672,180.9040069580078,139.0659942626953,195.2550048828125,135.6269989013672,198.54200744628906C138.1230010986328,200.56300354003906,150.69400024414062,204.31700134277344,158.2270050048828,204.31700134277344C165.80599975585938,204.31700134277344,172.7100067138672,209.41799926757812,172.86399841308594,212.5019989013672C172.9199981689453,213.6300048828125,172.2010040283203,214.84800720214844,170.46800231933594,215.02200317382812C167.8419952392578,215.28399658203125,161.34800720214844,214.47500610351562,156.26699829101562,213.83299255371094C154.74099731445312,213.63999938964844,153.3699951171875,213.46600341796875,152.3070068359375,213.3489990234375C153.11199951171875,215.2100067138672,154.39199829101562,218.4739990234375,151.55999755859375,221.30599975585938C150.5260009765625,222.33900451660156,149.18499755859375,222.88600158691406,147.6820068359375,222.88600158691406C142.5030059814453,222.88800048828125,136.38400268554688,216.45599365234375,134.6320037841797,214.48699951171875C134.33399963378906,214.15199279785156,133.63800048828125,213.73399353027344,132.68800354003906,213.26699829101562L132.7550048828125,213.1790008544922C131.39100646972656,214.86700439453125,129.90499877929688,216.1269989013672,128.6909942626953,216.66700744628906C128.35800170898438,216.81300354003906,128.01499938964844,216.88999938964844,127.66999816894531,216.88999938964844C125.27000427246094,216.88999938964844,124.46099853515625,213.9739990234375,123.72900390625,209.6790008544922L123.72700500488281,209.6790008544922C123.30799865722656,209.52499389648438,122.89700317382812,209.37399291992188,122.49899291992188,209.22999572753906C117.52999877929688,207.41600036621094,114.14700317382812,206.12899780273438,111.96700286865234,205.0189971923828L111.96600341796875,205.0189971923828C111.83200073242188,205.0540008544922,111.69499969482422,205.0850067138672,111.55599975585938,205.11300659179688C111.35099792480469,205.14999389648438,111.1520004272461,205.1699981689453,110.95800018310547,205.1699981689453C106.87899780273438,205.1699981689453,105.22899627685547,196.86099243164062,103.62899780273438,188.81500244140625C103.53199768066406,188.32699584960938,103.43699645996094,187.8459930419922,103.34300231933594,187.38099670410156L103.34500122070312,187.38099670410156C99.80999755859375,184.33399963378906,96.9469985961914,181.72900390625,96.00399780273438,180.83599853515625C89.73100280761719,174.89300537109375,87.85800170898438,170.10400390625,85.48799896240234,164.04100036621094C85.2030029296875,163.31199645996094,84.91000366210938,162.56199645996094,84.5999984741211,161.78700256347656C81.95999908447266,155.18699645996094,93.30699920654297,149.031005859375,105.31900024414062,142.51400756835938C109.0770034790039,140.47500610351562,112.96299743652344,138.36700439453125,116.1520004272461,136.36199951171875C121.44400024414062,133.03700256347656,126.375,130.01600646972656,130.28599548339844,127.64900207519531C129.50999450683594,126.26199340820312,128.73500061035156,124.76199340820312,127.97900390625,123.14900207519531C124.55900573730469,115.85199737548828,122.71400451660156,108.45700073242188,122.34199523925781,100.37200164794922L122.11099243164062,99.2770004272461C113.57599639892578,87.89900207519531,115.29100036621094,64.01499938964844,129.94200134277344,50.64400100708008L129.9459991455078,50.645999908447266C123.552001953125,47.67399978637695,111.58699798583984,43.220001220703125,94.83799743652344,41.65700149536133C92.82599639892578,41.46900177001953,90.77999877929688,41.374000549316406,88.75800323486328,41.374000549316406C63.82499694824219,41.374000549316406,43.47800064086914,55.5629997253418,34.374000549316406,69.6259994506836C28.187999725341797,79.18099975585938,27.11199951171875,91.94000244140625,31.756999969482422,100.65699768066406C34.073001861572266,105.00299835205078,38.7760009765625,110.21700286865234,48.027000427246094,110.37300109863281L48.32899856567383,110.3759994506836C56.18299865722656,110.375,58.96900177001953,105.1989974975586,58.96900177001953,100.76699829101562C58.96900177001953,95.66000366210938,55.33100128173828,90.23100280761719,48.590999603271484,90.23100280761719C48.55099868774414,90.23100280761719,48.512001037597656,90.2300033569336,48.472999572753906,90.22699737548828C46.21699905395508,90.06199645996094,44.72800064086914,90.677001953125,44.595001220703125,91.75800323486328C44.53799819946289,92.2229995727539,44.76100158691406,92.77400207519531,45.23400115966797,92.89199829101562C45.66600036621094,92.9990005493164,46.27299880981445,93.05799865722656,46.91400146484375,93.12100219726562C48.81700134277344,93.30599975585938,51.42300033569336,93.55799865722656,52.999000549316406,95.56199645996094C54.124000549316406,96.99299621582031,54.486000061035156,98.97599792480469,54.108001708984375,101.625C53.650001525878906,104.83300018310547,51.12099838256836,106.7490005493164,47.34299850463867,106.7490005493164C41.87900161743164,106.7490005493164,34.47200012207031,102.84300231933594,32.737998962402344,97.61499786376953C31.28499984741211,93.23600006103516,32.08300018310547,88.00199890136719,34.77000045776367,84.27999877929688C36.93299865722656,81.28299713134766,41.41600036621094,77.6780014038086,50.090999603271484,78.0999984741211C57.292999267578125,78.4520034790039,62.84400177001953,80.76300048828125,66.59200286865234,84.97100067138672C70.65599822998047,89.53399658203125,72.43099975585938,96.11599731445312,71.86799621582031,104.53399658203125C71.13600158691406,115.47599792480469,62.220001220703125,122.5469970703125,49.152000427246094,122.5469970703125C37.05799865722656,122.5469970703125,21.934999465942383,116.00700378417969,17.30900001525879,101.64700317382812C10.742000579833984,81.25800323486328,21.30299949645996,58.253997802734375,45.5620002746582,40.11000061035156C60.099998474121094,29.240001678466797,76.72699737548828,23.72599983215332,94.9800033569336,23.72599983215332C118.7770004272461,23.72599983215332,139.6009979248047,32.84400177001953,152.04200744628906,38.29199981689453L153.62899780273438,38.98500061035156L153.62899780273438,38.97999954223633C160.3780059814453,37.31700134277344,167.83200073242188,36.4379997253418,175.6719970703125,36.4379997253418C183.15699768066406,36.4379997253418,190.67100524902344,37.23500061035156,198.00399780273438,38.805999755859375C223.4320068359375,44.255001068115234,262.4419860839844,53.404998779296875,266.42999267578125,54.85599899291992C268.86199951171875,55.74100112915039,281.8760070800781,55.88399887084961,290.489013671875,55.979000091552734C294.864013671875,56.02799987792969,298.64300537109375,56.069000244140625,300.7760009765625,56.180999755859375C305.6669921875,56.439002990722656,309.1369934082031,58.99199676513672,311.4339904785156,60.680999755859375C312.0830078125,61.160003662109375,312.8869934082031,61.75,313.2099914550781,61.86399841308594C314.6860046386719,61.894996643066406,334.27301025390625,62.54399871826172,340.8269958496094,73.34200286865234C344.9939880371094,80.20500183105469,343.5270080566406,85.08699798583984,342.4590148925781,88.6520004272461C341.89300537109375,90.53900146484375,341.44500732421875,92.02899932861328,341.906005859375,93.33100128173828C342.1780090332031,94.09700012207031,342.885009765625,94.71499633789062,343.77899169921875,95.49700164794922C344.87298583984375,96.4530029296875,346.23199462890625,97.64299774169922,347.12298583984375,99.53800201416016C348.7959899902344,103.0999984741211,349.010986328125,106.32599639892578,347.8420104980469,110.3290023803711C345.11199951171875,119.89099884033203,331.375,120.92399597167969,325.5950012207031,120.92399597167969C325.593994140625,120.92399597167969,325.5929870605469,120.92399597167969,325.5920104980469,120.92399597167969C319.8800048828125,120.92399597167969,314.35400390625,120.02099609375,311.22198486328125,118.64600372314453C311.4649963378906,120.32200622558594,312.0589904785156,122.76800537109375,313.1300048828125,126.92100524902344C314.1090087890625,130.71800231933594,314.1719970703125,134.2790069580078,314.2330017089844,137.72500610351562C314.2909851074219,140.9499969482422,314.3420104980469,143.99600219726562,315.2090148925781,146.69900512695312C316.25201416015625,149.96099853515625,324.9419860839844,166.6999969482422,331.92498779296875,180.1490020751953C338.0050048828125,191.86199951171875,341.76300048828125,199.125,342.364013671875,200.7779998779297C343.1860046386719,203.04299926757812,344.2349853515625,203.28700256347656,352.19000244140625,204.52000427246094C353.79901123046875,204.77000427246094,355.6549987792969,205.0570068359375,357.79998779296875,205.41600036621094C369.5790100097656,207.37899780273438,375.0710144042969,210.0780029296875,376.1610107421875,214.44000244140625C376.2770080566406,214.9029998779297,376.1820068359375,215.39500427246094,375.90399169921875,215.78399658203125C375.625,216.1719970703125,375.1889953613281,216.41700744628906,374.7130126953125,216.4550018310547C374.4419860839844,216.4759979248047,347.6090087890625,218.59100341796875,340.5610046386719,218.94200134277344C340.3089904785156,218.95599365234375,340.06298828125,218.96200561523438,339.822998046875,218.96200561523438C334.69000244140625,218.96200561523438,331.9010009765625,216.25999450683594,327.677001953125,212.1699981689453C325.7430114746094,210.29800415039062,323.5530090332031,208.17599487304688,320.625,205.7899932861328C310.50299072265625,197.54200744628906,296.9209899902344,177.17799377441406,289.6390075683594,162.25599670410156C283.3529968261719,149.3769989013672,278.5539855957031,131.47999572753906,277.14599609375,125.93899536132812L270.97698974609375,127.86799621582031zM118.6989974975586,171.61099243164062C119.08899688720703,170.63499450683594,119.63500213623047,169.49600219726562,120.30000305175781,168.23399353027344C117.03700256347656,169.29600524902344,114.21700286865234,170.2239990234375,112.80000305175781,170.8159942626953C113.28500366210938,171.9600067138672,114.82499694824219,174.02099609375,116.79100036621094,176.41200256347656C117.38999938964844,174.89500427246094,118.0250015258789,173.2949981689453,118.6989974975586,171.61099243164062zM116.71600341796875,198C116.34400177001953,200.93800354003906,115.40599822998047,202.31199645996094,115.06800079345703,202.906005859375C116.18800354003906,204.01100158691406,118.8949966430664,204.45700073242188,123.13200378417969,206.00599670410156C122.79600524902344,203.97300720214844,122.34599304199219,201.55299377441406,121.88500213623047,200.77200317382812C120.15499877929688,200.40899658203125,120.38300323486328,200.78900146484375,116.71600341796875,198zM125.96600341796875,104.66600036621094C126.6929931640625,110.62799835205078,128.3260040283203,116.23400115966797,130.9219970703125,121.77299499511719C131.6269989013672,123.27699279785156,132.3509979248047,124.66900634765625,133.0760040283203,125.968994140625C135.00799560546875,124.80900573730469,136.5449981689453,123.89500427246094,137.55799865722656,123.29299926757812C135.80299377441406,120.20100402832031,131.2530059814453,112.36599731445312,125.96600341796875,104.66600036621094zM136.08399963378906,207.11399841308594C135.6959991455078,208.32400512695312,135.15699768066406,209.49099731445312,134.53199768066406,210.57699584960938C135.7030029296875,211.18699645996094,136.5540008544922,211.76400756835938,137.0590057373047,212.33099365234375C140.18899536132812,215.8520050048828,144.84800720214844,219.64300537109375,147.67999267578125,219.64300537109375C148.32899475097656,219.64300537109375,148.83099365234375,219.44200134277344,149.26100158691406,219.01199340820312C150.5330047607422,217.74099731445312,150.07899475097656,216.38299560546875,149.24200439453125,214.45799255371094C148.73800659179688,213.2989959716797,148.2169952392578,212.10000610351562,148.9340057373047,211.00599670410156C149.23699951171875,210.54400634765625,149.86199951171875,209.99200439453125,151.11300659179688,209.99200439453125C151.26600646972656,209.99200439453125,151.43600463867188,209.99899291992188,151.6230010986328,210.01499938964844C152.80099487304688,210.1219940185547,154.5959930419922,210.3489990234375,156.6739959716797,210.61399841308594C160.8509979248047,211.14199829101562,166.0240020751953,211.8000030517578,168.94500732421875,211.83200073242188C167.35400390625,210.23399353027344,163.2050018310547,207.5749969482422,158.22500610351562,207.5749969482422C153.0850067138672,207.5749969482422,142.72000122070312,205.5189971923828,136.71499633789062,202.78799438476562C136.7689971923828,204.16000366210938,136.56700134277344,205.60899353027344,136.08399963378906,207.11399841308594zM124.83999633789062,166.7550048828125C123.46200561523438,169.11900329589844,122.35800170898438,171.2169952392578,121.7229995727539,172.80499267578125C121.11100006103516,174.3350067138672,120.197998046875,176.61700439453125,119.1719970703125,179.23500061035156C121.25399780273438,181.65499877929688,123.50100708007812,184.16700744628906,125.38699340820312,186.27200317382812C128.73699951171875,190.01400756835938,131.75,193.38099670410156,133.71299743652344,195.89100646972656C137.9250030517578,191.82400512695312,150.22799682617188,178.00999450683594,156.0290069580078,164.7969970703125C157.46099853515625,161.53500366210938,158.97900390625,158.50799560546875,160.4459991455078,155.57899475097656C161.4550018310547,153.5659942626953,162.4149932861328,151.64199829101562,163.27999877929688,149.78399658203125C158.64199829101562,152.71499633789062,153.80999755859375,155.3679962158203,149.68800354003906,157.3260040283203C141.91099548339844,161.02000427246094,132.52699279785156,164.23199462890625,124.83999633789062,166.7550048828125zM206.27499389648438,166.76600646972656C197.33700561523438,189.10800170898438,196.2689971923828,194.3070068359375,196.42599487304688,195.41799926757812C196.52499389648438,196.1060028076172,197.18299865722656,197.70700073242188,197.76300048828125,199.11900329589844C199.64999389648438,203.71099853515625,200.6929931640625,206.62600708007812,199.28399658203125,208.38699340820312C198.63400268554688,209.1999969482422,198.02099609375,210.08700561523438,197.4949951171875,210.95799255371094L197.4969940185547,210.95799255371094C197.6840057373047,211.0019989013672,197.89300537109375,211.0399932861328,198.1280059814453,211.0679931640625C199.76400756835938,211.2689971923828,201.427001953125,210.87899780273438,202.08399963378906,210.13800048828125C203.45399475097656,208.59500122070312,204.01199340820312,202.45399475097656,203.0019989013672,200.031005859375C202.78900146484375,199.52099609375,203.0290069580078,198.93499755859375,203.5399932861328,198.7220001220703C204.0500030517578,198.50999450683594,204.63600158691406,198.75,204.84800720214844,199.25999450683594C206.08299255371094,202.2239990234375,205.62600708007812,209.16099548339844,203.5780029296875,211.46499633789062C202.5290069580078,212.64599609375,200.7030029296875,213.1179962158203,198.99200439453125,213.1179962158203C198.4980010986328,213.1179962158203,198.01300048828125,213.07899475097656,197.55999755859375,213.0050048828125C197.26300048828125,212.95700073242188,196.89199829101562,212.87899780273438,196.50900268554688,212.75599670410156L196.51100158691406,212.7570037841797C195.83999633789062,214.14599609375,195.5070037841797,215.2989959716797,195.72999572753906,215.76300048828125C195.76699829101562,215.83900451660156,196.0780029296875,215.99600219726562,196.802001953125,215.99600219726562L196.80299377441406,215.99600219726562C196.9949951171875,215.99600219726562,197.20199584960938,215.98500061035156,197.4250030517578,215.96499633789062C199.23399353027344,215.79200744628906,200.94500732421875,215.72999572753906,202.5989990234375,215.66900634765625C208.05099487304688,215.47000122070312,210.4739990234375,215.17300415039062,210.78599548339844,213.18699645996094C211.0189971923828,211.69700622558594,210.34800720214844,209.66600036621094,209.63600158691406,207.51499938964844C208.4550018310547,203.9459991455078,207.11500549316406,199.8979949951172,209.47000122070312,196.4969940185547C210.10000610351562,195.58700561523438,211.2550048828125,193.875,212.7760009765625,191.6230010986328C219.218994140625,182.0760040283203,231.21400451660156,164.30599975585938,238.66299438476562,154.8509979248047C248.23699951171875,142.697998046875,254.15701293945312,138.38999938964844,258.9549865722656,135.30599975585938C261.23699951171875,133.83799743652344,263.8330078125,131.46499633789062,266.0710144042969,128.85899353027344C255.62899780273438,131.33999633789062,240.0500030517578,134.32400512695312,224.28900146484375,134.71200561523438C217.66700744628906,144.35499572753906,210.99099731445312,154.97900390625,206.27499389648438,166.76600646972656zM132.70799255371094,48.361000061035156C137.10800170898438,45.04800033569336,142.531005859375,42.361000061035156,148.68699645996094,40.38100051879883L148.6909942626953,40.37699890136719C136.3159942626953,34.986000061035156,116.8489990234375,26.97800064086914,94.97899627685547,26.97800064086914C77.44300079345703,26.97800064086914,61.47100067138672,32.27399826049805,47.507999420166016,42.71699905395508C24.413000106811523,59.98899841308594,14.280000686645508,81.64800262451172,20.402000427246094,100.65399932861328C24.344999313354492,112.8949966430664,37.849998474121094,119.30000305175781,49.152000427246094,119.30000305175781C58.082000732421875,119.30000305175781,67.88700103759766,115.36499786376953,68.625,104.32099914550781C69.12699890136719,96.80400085449219,67.62699890136719,91.02200317382812,64.16500091552734,87.13500213623047C61.01899719238281,83.60299682617188,56.22999954223633,81.65599822998047,49.93299865722656,81.3489990234375C49.51900100708008,81.3280029296875,49.1150016784668,81.31900024414062,48.720001220703125,81.31900024414062C43.61600112915039,81.31900024414062,39.702999114990234,83.00199890136719,37.40599822998047,86.18499755859375C35.310001373291016,89.08799743652344,34.68899917602539,93.17400360107422,35.82400131225586,96.59400177001953C37.05799865722656,100.31400299072266,43.189998626708984,103.5009994506836,47.34400177001953,103.5009994506836C50.55799865722656,103.5009994506836,50.808998107910156,101.74500274658203,50.89099884033203,101.16799926757812C51.13399887084961,99.46800231933594,50.98400115966797,98.25800323486328,50.44499969482422,97.5719985961914C49.72800064086914,96.66000366210938,48.13800048828125,96.50599670410156,46.60100173950195,96.35700225830078C45.83599853515625,96.28299713134766,45.112998962402344,96.21199798583984,44.44599914550781,96.04499816894531C42.42599868774414,95.54100036621094,41.10300064086914,93.5270004272461,41.369998931884766,91.36199951171875C41.63600158691406,89.19300079345703,43.64799880981445,86.62999725341797,48.6510009765625,86.98100280761719C57.46500015258789,87.01200103759766,62.220001220703125,94.0979995727539,62.220001220703125,100.76599884033203C62.220001220703125,107.16699981689453,57.92599868774414,113.625,48.33100128173828,113.6259994506836L47.9739990234375,113.62300109863281C39.52199935913086,113.47899627685547,32.744998931884766,109.41799926757812,28.89099884033203,102.18499755859375C23.634000778198242,92.31999969482422,24.740999221801758,78.5260009765625,31.64699935913086,67.86000061035156C43.34199905395508,49.79899978637695,65.76000213623047,38.12699890136719,88.75900268554688,38.12699890136719C90.88099670410156,38.12699890136719,93.02799987792969,38.22700119018555,95.13999938964844,38.42399978637695C113.76300048828125,40.16299819946289,126.49899291992188,45.27000045776367,132.7220001220703,48.34600067138672L132.70799255371094,48.361000061035156zM358.1889953613281,211.31399536132812C357.63800048828125,211.2790069580078,357.2200012207031,210.802001953125,357.2550048828125,210.25100708007812C357.2900085449219,209.6999969482422,357.7489929199219,209.28700256347656,358.3169860839844,209.3159942626953C358.4639892578125,209.32699584960938,360.2659912109375,209.44500732421875,362.90301513671875,209.78599548339844L363.1199951171875,209.7949981689453C361.3909912109375,209.37399291992188,359.4360046386719,208.98300170898438,357.26300048828125,208.61900329589844C355.1319885253906,208.26499938964844,353.2879943847656,207.97799682617188,351.6889953613281,207.72999572753906C343.5580139160156,206.46800231933594,340.82000732421875,206.04299926757812,339.3059997558594,201.88600158691406C338.7460021972656,200.3470001220703,334.031005859375,191.26300048828125,329.0360107421875,181.6439971923828C321.6310119628906,167.37899780273438,313.23699951171875,151.2100067138672,312.1080017089844,147.68699645996094C311.0979919433594,144.52699279785156,311.0419921875,141.24899291992188,310.9809875488281,137.781005859375C310.9219970703125,134.52499389648438,310.864990234375,131.1580047607422,309.9809875488281,127.73199462890625C308.114990234375,120.50300598144531,307.5459899902344,117.95700073242188,307.9649963378906,115.44499969482422C307.9960021972656,115.25700378417969,308.0610046386719,115.08100128173828,308.1510009765625,114.91999816894531L308.1960144042969,114.43099975585938C308.5260009765625,110.21800231933594,309.0400085449219,95.78399658203125,308.0790100097656,87.46299743652344C307.031005859375,78.38700103759766,305.62298583984375,70.947998046875,305.6080017089844,70.8740005493164C305.4530029296875,70.06099700927734,305.98699951171875,69.2750015258789,306.79998779296875,69.12000274658203C307.6080017089844,68.97100067138672,308.4010009765625,69.49800109863281,308.55499267578125,70.31300354003906C308.57000732421875,70.38800048828125,309.99700927734375,77.93399810791016,311.0589904785156,87.11900329589844C312.03399658203125,95.55899810791016,311.55499267578125,110.3270034790039,311.16900634765625,114.85900115966797L311.16400146484375,114.85900115966797L311.6090087890625,115.1780014038086C313.32598876953125,116.40299987792969,319.0249938964844,117.6719970703125,325.5880126953125,117.6719970703125L325.5889892578125,117.6719970703125C326.8999938964844,117.6719970703125,329.2149963378906,117.60600280761719,331.802001953125,117.23500061035156L331.802001953125,117.2300033569336C329.9670104980469,115.54199981689453,328.39801025390625,112.85800170898438,328.05999755859375,109.42500305175781C327.5329895019531,104.05799865722656,331.4469909667969,100.70899963378906,334.88800048828125,99.06199645996094C332.781005859375,98.12999725341797,329.947998046875,96.44100189208984,328.39599609375,93.67500305175781C327.12701416015625,91.41400146484375,326.9330139160156,88.84300231933594,327.8219909667969,86.03500366210938C328.93701171875,82.16699981689453,331.9119873046875,79.84500122070312,335.77099609375,79.84500122070312C337.39599609375,79.84500122070312,338.9779968261719,80.27799987792969,340.2919921875,81.03299713134766C340.0880126953125,79.28299713134766,339.4410095214844,77.32499694824219,338.0469970703125,75.0270004272461C332.2850036621094,65.53700256347656,313.3110046386719,65.11100006103516,313.1210021972656,65.11100006103516C311.97100830078125,65.11100006103516,310.93499755859375,64.3499984741211,309.5050048828125,63.297996520996094C307.4010009765625,61.750999450683594,304.5220031738281,59.63200378417969,300.60198974609375,59.426002502441406C298.5369873046875,59.31700134277344,294.7900085449219,59.2760009765625,290.4519958496094,59.227996826171875C288.61700439453125,59.207000732421875,286.84100341796875,59.185997009277344,285.13800048828125,59.16200256347656C281.885986328125,71.26899719238281,264.5400085449219,79.03099822998047,240.4550018310547,79.03099822998047C240.4510040283203,79.03099822998047,240.45199584960938,79.03099822998047,240.44900512695312,79.03099822998047C232.47300720214844,79.02999877929688,224.1840057373047,78.18199920654297,215.8070068359375,76.51000213623047C186.4250030517578,70.64399719238281,163.48300170898438,56.25,159.07000732421875,41.13800048828125L159.07000732421875,41.13100051879883C148.4149932861328,43.07099914550781,139.31900024414062,46.90999984741211,132.98899841308594,52.290000915527344C119.15699768066406,64.0469970703125,116.8759994506836,86.88099670410156,124.71000671386719,97.3270034790039C133.20700073242188,108.65499877929688,141.09800720214844,122.95500183105469,141.17599487304688,123.09800720214844C141.60000610351562,123.86900329589844,141.33299255371094,124.83799743652344,140.57400512695312,125.28300476074219C140.4709930419922,125.343994140625,130.1490020751953,131.4010009765625,117.87999725341797,139.11300659179688C114.60199737548828,141.1739959716797,110.66999816894531,143.30499267578125,106.86699676513672,145.3699951171875C97.59200286865234,150.4010009765625,86.05000305175781,156.66600036621094,87.61599731445312,160.58099365234375C87.92900085449219,161.36399841308594,88.2249984741211,162.1219940185547,88.51300048828125,162.85800170898438C90.8219985961914,168.76400756835938,92.49099731445312,173.0330047607422,98.23699951171875,178.4770050048828C99.68099975585938,179.8459930419922,101.30400085449219,181.322998046875,103.00800323486328,182.82699584960938C103.21900177001953,182.57899475097656,103.50700378417969,182.39100646972656,103.84700012207031,182.3070068359375C104.71700286865234,182.08799743652344,105.5999984741211,182.6179962158203,105.81800079345703,183.48899841308594C106.12799835205078,184.7270050048828,106.44499969482422,186.3280029296875,106.81400299072266,188.17999267578125C107.58100128173828,192.03599548339844,109.36499786376953,201.01800537109375,111.02799987792969,201.9029998779297C111.68499755859375,201.7570037841797,112.20999908447266,201.3249969482422,112.63099670410156,200.58200073242188C113.66500091552734,198.76100158691406,113.72100067138672,195.68099975585938,112.76699829101562,193.09300231933594C112.45700073242188,192.25100708007812,112.88800048828125,191.3179931640625,113.7300033569336,191.0070037841797C114.572998046875,190.6959991455078,115.50599670410156,191.1269989013672,115.81700134277344,191.97000122070312C116.0250015258789,192.53500366210938,116.19599914550781,193.11700439453125,116.3290023803711,193.70599365234375L116.2770004272461,193.71600341796875C119.2509994506836,195.9409942626953,121.552001953125,197.4429931640625,122.406005859375,197.5760040283203C122.40699768066406,197.5760040283203,122.40800476074219,197.5760040283203,122.40899658203125,197.5760040283203C125.08500671386719,197.5760040283203,125.70500183105469,201.4810028076172,126.56399536132812,206.88699340820312C126.88400268554688,208.9040069580078,127.38999938964844,212.08999633789062,127.93499755859375,213.3719940185547C128.74899291992188,212.81100463867188,129.78199768066406,211.76800537109375,130.73399353027344,210.4530029296875C130.9239959716797,207.61000061035156,130.55299377441406,204.51600646972656,130.36399841308594,203.19000244140625C130.28599548339844,202.64300537109375,130.6649932861328,202.13499450683594,131.21200561523438,202.0570068359375C131.7570037841797,201.9810028076172,132.26499938964844,202.36000061035156,132.34300231933594,202.90699768066406C132.48199462890625,203.87600708007812,132.64999389648438,205.2740020751953,132.73399353027344,206.83099365234375C132.8260040283203,206.5959930419922,132.91099548339844,206.3560028076172,132.98699951171875,206.1179962158203C133.7519989013672,203.73300170898438,133.6439971923828,201.6820068359375,132.66600036621094,200.02000427246094C131.38600158691406,197.8419952392578,127.10299682617188,193.06100463867188,122.96299743652344,188.43600463867188C113.21399688720703,177.54600524902344,108.98799896240234,172.5,109.42900085449219,169.87899780273438C109.54499816894531,169.18800354003906,109.94000244140625,168.6219940185547,110.54100036621094,168.28799438476562C111.86199951171875,167.55499267578125,115.18800354003906,166.47300720214844,120.2239990234375,164.83700561523438C128.33299255371094,162.2010040283203,139.43800354003906,158.59100341796875,148.29100036621094,154.38600158691406C163.14100646972656,147.33200073242188,177.7169952392578,136.3800048828125,178.28399658203125,131.85000610351562C178.91900634765625,126.77400207519531,175.66600036621094,120.82000732421875,175.63299560546875,120.75999450683594L175.63400268554688,120.45399475097656C172.39100646972656,110.9010009765625,171.40899658203125,103.71499633789062,170.45899963378906,96.76599884033203C169.25399780273438,87.9540023803711,168.11700439453125,79.63099670410156,162.2100067138672,67.7030029296875C161.8419952392578,66.95999908447266,162.14599609375,66.05999755859375,162.88900756835938,65.69300079345703C163.63099670410156,65.32499694824219,164.53199768066406,65.62899780273438,164.8990020751953,66.37100219726562C171.0240020751953,78.73899841308594,172.1929931640625,87.2979965209961,173.4320068359375,96.35800170898438C174.34300231933594,103.01799774169922,175.2969970703125,109.91400146484375,178.28500366210938,118.8949966430664C179.468994140625,119.96299743652344,192.51499938964844,131.16400146484375,219.3509979248047,131.49099731445312C243.90699768066406,131.79800415039062,269.29998779296875,124.85499572753906,276.0679931640625,122.86099243164062C276.24700927734375,122.80900573730469,276.4119873046875,122.75900268554688,276.56201171875,122.71400451660156L276.5580139160156,122.70799255371094C275.9389953613281,119.41100311279297,274.3919982910156,111.1729965209961,273.27899169921875,105.33200073242188C272.697998046875,102.28099822998047,271.031005859375,99.95899963378906,268.7049865722656,98.96099853515625C266.6669921875,98.08599853515625,264.3739929199219,98.30599975585938,262.4200134277344,99.56300354003906C261.7250061035156,100.01000213623047,260.7959899902344,99.80899810791016,260.3479919433594,99.11299896240234C259.89898681640625,98.41600036621094,260.10198974609375,97.48799896240234,260.7969970703125,97.04000091552734C263.56298828125,95.26100158691406,266.9630126953125,94.947998046875,269.8890075683594,96.20500183105469C273.1470031738281,97.60299682617188,275.4549865722656,100.72599792480469,276.22698974609375,104.7699966430664C277.3500061035156,110.66600036621094,278.9159851074219,119.0009994506836,279.5260009765625,122.24200439453125L279.8869934082031,123.50100708007812C279.94000244140625,123.72500610351562,285.35198974609375,146.06300354003906,292.5570068359375,160.8249969482422C299.5329895019531,175.11599731445312,313.031005859375,195.4040069580078,322.67498779296875,203.26499938964844C325.71099853515625,205.73899841308594,328.0530090332031,208.00599670410156,329.9360046386719,209.8280029296875C334.0409851074219,213.80599975585938,336.2359924316406,215.90499877929688,340.3970031738281,215.69000244140625C346.0849914550781,215.406005859375,364.8380126953125,213.95899963378906,371.81298828125,213.4149932861328L371.5570068359375,213.39500427246094C364.89599609375,211.75999450683594,358.260009765625,211.3179931640625,358.1889953613281,211.31399536132812zM162.30999755859375,40.619998931884766C166.63099670410156,54.26499938964844,188.89999389648438,67.8270034790039,216.44500732421875,73.32599639892578C224.61099243164062,74.95700073242188,232.68899536132812,75.78299713134766,240.4499969482422,75.78399658203125C240.45199584960938,75.78399658203125,240.45399475097656,75.78399658203125,240.4550018310547,75.78399658203125C262.10699462890625,75.78399658203125,278.3299865722656,69.1520004272461,281.75799560546875,59.112998962402344C271.9440002441406,58.92500305175781,267.12701416015625,58.57099914550781,265.3190002441406,57.913002014160156C261.5069885253906,56.525001525878906,222.1060028076172,47.297000885009766,197.32400512695312,41.986000061035156C190.22300720214844,40.46500015258789,182.9459991455078,39.69300079345703,175.6929931640625,39.69300079345703C171.11500549316406,39.69300079345703,166.6230010986328,40.005001068115234,162.30999755859375,40.619998931884766zM320.3789978027344,96.74800109863281C320.3789978027344,95.85099792480469,319.6499938964844,95.12300109863281,318.7539978027344,95.12300109863281C317.30499267578125,95.12300109863281,316.1260070800781,94.08599853515625,316.1260070800781,92.80999755859375C316.1260070800781,91.53399658203125,317.30499267578125,90.49700164794922,318.7539978027344,90.49700164794922C319.6499938964844,90.49700164794922,320.3789978027344,89.76899719238281,320.3789978027344,88.87200164794922C320.3789978027344,87.9749984741211,319.6499938964844,87.24700164794922,318.7539978027344,87.24700164794922C315.5140075683594,87.24700164794922,312.8760070800781,89.74199676513672,312.8760070800781,92.80999755859375C312.8760070800781,95.87799835205078,315.5140075683594,98.37300109863281,318.7539978027344,98.37300109863281C319.6499938964844,98.37300109863281,320.3789978027344,97.64600372314453,320.3789978027344,96.74800109863281zM344.5639953613281,111.4749984741211C341.90399169921875,111.2509994506836,337.3399963378906,110.44200134277344,333.00201416015625,107.64900207519531C332.5369873046875,107.3499984741211,332.4020080566406,106.73100280761719,332.7019958496094,106.26699829101562C333.00201416015625,105.8030014038086,333.6210021972656,105.66799926757812,334.0840148925781,105.96700286865234C338.42999267578125,108.76499938964844,343.02899169921875,109.39600372314453,345.34100341796875,109.5250015258789L345.3420104980469,109.5250015258789C346.4729919433594,105.58599853515625,346.1059875488281,102.5510025024414,344.1510009765625,99.69200134277344C343.09600830078125,98.14900207519531,342.2659912109375,97.49400329589844,341.53399658203125,96.91500091552734C340.718994140625,96.27100372314453,339.9490051269531,95.66300201416016,339.4320068359375,94.21099853515625C338.6839904785156,92.0989990234375,339.29400634765625,90.05799865722656,339.9419860839844,87.89700317382812C340.3009948730469,86.6969985961914,340.6709899902344,85.45899963378906,340.8599853515625,84.0979995727539C339.8030090332031,82.74199676513672,337.8110046386719,81.8499984741211,335.77398681640625,81.8499984741211C334.3739929199219,81.8499984741211,330.9809875488281,82.31400299072266,329.739013671875,86.61900329589844C329.01800537109375,88.90299987792969,329.1570129394531,90.94200134277344,330.14300537109375,92.7020034790039C332.343994140625,96.62799835205078,337.98699951171875,98.06300354003906,338.0419921875,98.0770034790039C338.4859924316406,98.18599700927734,338.7980041503906,98.58399963378906,338.8009948730469,99.04100036621094C338.8039855957031,99.4990005493164,338.4960021972656,99.9000015258789,338.0539855957031,100.01599884033203C337.70001220703125,100.10900115966797,329.37701416015625,102.36699676513672,330.052001953125,109.23600006103516C330.56298828125,114.41899871826172,334.29400634765625,117.24700164794922,336.0690002441406,117.24700164794922C336.0710144042969,117.24700164794922,336.0710144042969,117.24700164794922,336.0710144042969,117.24700164794922C336.1940002441406,117.24700164794922,336.27398681640625,117.22899627685547,336.3190002441406,117.21499633789062C341.3370056152344,115.43900299072266,343.5,113.41400146484375,344.5610046386719,111.48600006103516L344.5639953613281,111.4749984741211zM343.14300537109375,100.22899627685547C342.66400146484375,100.22899627685547,342.2760009765625,100.9800033569336,342.2760009765625,101.90599822998047C342.2760009765625,102.83200073242188,342.6659851074219,103.58200073242188,343.14300537109375,103.58200073242188C343.62200927734375,103.58200073242188,344.010009765625,102.83200073242188,344.010009765625,101.90599822998047C344.010009765625,100.9800033569336,343.6210021972656,100.22899627685547,343.14300537109375,100.22899627685547z"></path></g></svg>