<?xml version="1.0" encoding="utf-8"?>
<!-- Generator: Adobe Illustrator 15.0.0, SVG Export Plug-In . SVG Version: 6.00 Build 0)  -->
<!DOCTYPE svg PUBLIC "-//W3C//DTD SVG 1.1//EN" "http://www.w3.org/Graphics/SVG/1.1/DTD/svg11.dtd">
<svg version="1.1" id="Layer_1" xmlns="http://www.w3.org/2000/svg" xmlns:xlink="http://www.w3.org/1999/xlink" x="0px" y="0px"
	 width="275px" height="211px" viewBox="0 0 275 211" enable-background="new 0 0 275 211" xml:space="preserve">
<g id="Pig.svg">
	<path id="Body" fill="#FFDBD7" d="M241.891,52.917c4.06-11.195,4.877-27.689,10.323-34.519c6.121-7.677-18.295-0.811-26.351,8.769
		l0.037,0.022c-1.904-1.324-4.037-2.584-6.424-3.771c-2.229-2.227-1.057-4.992-3.563-6.235c-2.505-1.242-7.124,6.235-12.47-2.227
		c-3.454-3.223-11.754,1.595-12.916,3.118c-1.162,1.521-4.954,1.722-7.354,1.205c-1.021-0.219-2.418,1.017-3.802,2.568l0.123,0.035
		c-9.602-2.663-20.076-4.382-30.984-5.229C70.027,11.177,31.518,21.989,22.77,67.537v-0.001
		c-4.077,15.264-11.086,38.45,7.407,65.595c0,0,1.628,7.128-1.491,16.036c2.602,10.886,8.554,35.765,13.502,38.198
		c2.256,1.127,7.846,3.273,11.405,2.266c1.188-0.336,0.54-2.87,1.818-3.796c1.276-0.927,5.547,2.653,5.547-0.13
		c0-2.723-10.819-40.566,0.53-52.075l0.087-0.053c-0.149,0.5-0.307,1.004-0.487,1.516c2.602,10.886,8.553,35.765,13.502,38.198
		c2.256,1.126,7.846,3.273,11.405,2.266c1.187-0.336,0.54-2.869,1.817-3.797c1.276-0.926,5.548,2.653,5.548-0.129
		c0-2.277-7.561-29.119-3.396-44.572l-0.011-0.004c16.41,3.062,33.324,4.829,47.717,5.997l0.725,0.058
		c0.812,2.185,11.084,30.024,10.771,42.285c-0.328,12.766,4.29,19.152,6.646,20.627c2.357,1.475,4.865,3.391,11.681,2.61
		c0.817-1.964-0.147-7.798,7.854-3.6c1.213,0.637-3.316-11.833-3.295-16.228c0.018-3.335,1.045-30.498,1.536-43.395l0.077,0.005
		c2.37,9.033,4.441,18.661,4.3,24.271c-0.327,12.765,4.292,19.152,6.649,20.627c2.357,1.474,6.049,3.242,12.863,2.461
		c1.787-0.828,0.526-5.961,6.564-4.45c1.213,0.636-3.211-10.831-3.188-15.226c0.012-2.383,0.539-18.076,1.019-31.947l-0.472-0.574
		c5.453-0.131,10.941-0.967,16.205-2.451c11.442-3.229,28.518-3.57,35.271-12.509c5.87-7.769,6.252-8.767,5.362-16.338
		c-5.926-10.042-3.258-5.107-10.934-20.459c-3.527-7.051-3.543-16.262-5.354-25.562L241.891,52.917z"/>
	<path id="Nose" fill="#FFEFEE" d="M236.33,109.28c0-10.383,10.798-19.438,16.086-19.438c5.289,0,9.518,8.702,9.518,17.161
		C261.932,115.461,236.33,119.663,236.33,109.28"/>
	<path id="BodyBorder" fill="#CC6B69" d="M203.546,132.25c-0.625,18.047-0.973,28.973-0.983,30.829
		c-0.01,2.067,1.227,6.391,2.127,9.546c1.401,4.9,1.733,6.064,0.571,7.01c-0.497,0.404-1.146,0.512-1.75,0.303
		c-2.491-0.604-2.731,0.061-3.303,1.625c-0.354,0.97-0.794,2.179-2.017,2.744l-0.252,0.116l-0.274,0.031
		c-7.217,0.83-11.256-1.015-13.97-2.711c-2.732-1.708-7.807-8.529-7.459-22.128c0.068-2.676-0.412-6.631-1.412-11.688
		c-0.491,13.097-1.051,28.438-1.062,30.862c-0.012,2.05,1.239,6.626,2.15,9.966c1.501,5.503,1.812,6.647,0.637,7.595
		c-0.57,0.461-1.34,0.529-2.011,0.178c-3.072-1.611-4.063-1.287-4.229-1.203c-0.441,0.216-0.646,1.344-0.795,2.168
		c-0.113,0.636-0.223,1.234-0.447,1.773l-0.387,0.933l-1.004,0.114c-1.154,0.133-2.197,0.19-3.148,0.19
		c-4.818,0-7.221-1.522-9.215-2.787l-0.422-0.266c-2.732-1.707-7.806-8.531-7.457-22.128c0.279-10.877-8.252-35.026-10.289-40.618
		c-12.601-1.027-29.188-2.652-45.902-5.687c-2.504,11.993,1.333,30.16,3.013,38.11c0.575,2.726,0.809,3.856,0.809,4.474
		c0,1.315-0.595,2.004-1.094,2.35c-1.26,0.876-2.799,0.299-4.155-0.211c-0.311-0.115-0.766-0.288-1.1-0.381
		c-0.064,0.229-0.125,0.564-0.168,0.795c-0.178,0.962-0.476,2.57-2.099,3.027c-4.972,1.412-12.33-2.228-12.641-2.382
		c-4.472-2.198-8.719-15.933-13.628-36.114c-4.914,11.371-0.08,34.233,1.672,42.516c0.576,2.729,0.811,3.859,0.811,4.479
		c0,1.312-0.595,2.002-1.095,2.348c-1.26,0.875-2.798,0.3-4.154-0.211c-0.311-0.116-0.766-0.286-1.1-0.381
		c-0.064,0.229-0.126,0.564-0.168,0.795c-0.178,0.961-0.476,2.568-2.1,3.026c-4.971,1.413-12.33-2.227-12.641-2.382
		c-4.706-2.312-9.163-17.398-14.404-39.336l-0.117-0.49l0.166-0.477c2.559-7.311,1.732-13.411,1.491-14.797
		c-18.147-26.871-11.93-50.017-7.812-65.35c0.119-0.44,0.235-0.873,0.349-1.3c1.896-9.83,5.193-18.004,9.81-24.755l0.229-0.257
		c-0.777-0.067-1.556-0.188-2.332-0.366c-4.365-0.998-8.082-3.636-10.464-7.428c-3.226-5.138-1.671-11.942,3.465-15.167
		c3.523-2.213,8.188-1.146,10.4,2.375c1.577,2.512,1.607,6.116-1.072,7.8c-1.509,0.949-4.417,1.758-6.244,0.098
		c-0.854-0.777-1.268-1.851-1.165-3.027c0.132-1.512,1.121-2.88,2.027-3.452l2.513,3.988c0.067-0.043,0.121-0.084,0.157-0.115
		c0.017-0.146,0.472-1.227,0.277-1.482c0.05-0.222-0.151-0.773-0.483-1.303c-0.83-1.321-2.58-1.72-3.903-0.891
		c-2.935,1.845-3.824,5.734-1.979,8.67c1.712,2.727,4.383,4.623,7.522,5.34c1.688,0.385,3.403,0.405,5.053,0.074l0.268-0.247
		C55.649,14.18,95.062,11.201,148.63,14.94c10.82,0.841,20.937,2.506,30.101,4.954l0.107,0.005c1.547-1.578,3.117-2.636,4.697-2.299
		c2.463,0.529,5.165,0.034,5.626-0.57c1.114-1.46,5.985-4.483,10.276-4.844c2.168-0.184,3.905,0.327,5.179,1.514l0.161,0.151
		l0.119,0.188c2.808,4.446,4.767,3.492,7.246,2.282c1.396-0.68,2.976-1.449,4.532-0.676c2.044,1.013,2.511,2.793,2.851,4.093
		c0.225,0.864,0.424,1.619,0.994,2.282c1.772,0.892,3.407,1.822,4.916,2.789l0.151,0.103c6.604-6.721,19.747-11.534,25.136-11.534
		c2.02,0,3.336,0.609,3.912,1.811c0.586,1.211,0.221,2.651-1.08,4.282c-3.037,3.809-4.646,11.509-6.201,18.956
		c-1.052,5.028-2.129,10.164-3.688,14.608l0.104,0.543c0.516,2.788,0.887,5.56,1.248,8.261c0.801,6,1.556,11.666,3.828,16.21
		c1.445,2.89,2.521,5.061,3.361,6.75c0.671,1.349,1.182,2.377,1.607,3.225c-0.02-0.003-0.035-0.011-0.053-0.015l0.053,0.016
		c0,0,0,0,0-0.001c6.086,1.232,10.082,10.388,10.082,18.98c0,3.061-2.258,5.838-6.356,7.819c-0.845,0.405-1.753,0.771-2.704,1.09
		l-0.04,0.013c-0.183,0.241-0.353,0.471-0.546,0.725c-5.314,7.033-15.854,9.019-26.04,10.935c-3.647,0.687-7.092,1.334-10.135,2.192
		c-4.837,1.365-9.706,2.179-14.488,2.457L203.546,132.25z M187.236,131.008c-3.754,1.094-7.739,1.998-11.871,2.694
		c-0.016,0.396-0.031,0.81-0.047,1.241c3.017,11.506,4.479,19.832,4.354,24.758c-0.317,12.432,4.228,18.113,5.845,19.126
		c2.168,1.354,5.394,2.821,11.182,2.271c0.094-0.201,0.199-0.496,0.279-0.714c0.513-1.405,1.486-4.081,5.092-4.081
		c0.025,0,0.054,0,0.078,0c-0.223-0.839-0.508-1.844-0.763-2.734c-1.063-3.727-2.271-7.948-2.26-10.506
		c0.013-2.383,0.522-17.639,0.979-30.756l-0.127,0.037c-0.041,0-0.084,0-0.127,0c-4.312,0-8.522-0.441-12.543-1.313L187.236,131.008
		z M140.014,17.837c-37.17-2.106-62.034,0.015-79.922,6.733c-18.944,7.116-30.094,19.751-34.845,39.606c0,0.001,0,0.002,0.001,0.005
		c0,0,0,0.003,0.001,0.005c0,0.002,0,0.003,0.001,0.005c0,0.001,0,0.003,0.001,0.005c0,0.001,0,0.003,0.001,0.005
		c0,0.003,0.001,0.004,0,0.005c0,0.001,0.001,0.003,0.001,0.005c0.001,0,0.001,0.002,0.001,0.004c0,0.001,0.001,0.002,0.001,0.005
		c0,0.001,0,0.003,0.001,0.005c0,0.002,0,0.003,0,0.005s0,0.003,0,0.005c0,0.001,0,0.003,0.001,0.004
		c0.001,0.003,0.001,0.003,0,0.005s0,0.003,0.001,0.005c0,0.001,0.001,0.003,0,0.005c0.001,0.002,0.001,0.003,0.001,0.005
		c0.001,0.002,0.001,0.004,0,0.004c-0.001,0.001,0,0.003,0.001,0.005c0,0.004,0.001,0.004,0,0.005c-0.001,0.002,0,0.004,0,0.005
		c0.001,0.002,0.001,0.003,0.001,0.005s0,0.004,0,0.005s0,0.003,0,0.005c0.001,0.001,0,0.003,0.001,0.005c0,0.001,0,0.003,0,0.005
		c0,0.004,0.001,0.004,0,0.005c0,0.002,0.001,0.004,0,0.005c0,0.002,0,0.003,0,0.004c0,0.002,0,0.003,0,0.005
		c0,0.002,0,0.003,0,0.005c0.001,0.002,0,0.003,0,0.005c0.001,0.002,0,0.003,0,0.005c0,0.001,0,0.003,0,0.005c0,0,0,0.002,0,0.004
		c0,0,0,0.001,0,0.002c0,0.002-0.001,0.002,0,0.006c0,0.001,0,0.002,0,0.005c0,0.001,0,0.003,0,0.005c0,0.002,0,0.004,0,0.004
		c0,0.001-0.001,0.003,0,0.006c0,0.001,0,0.001,0,0.005c0,0.001,0,0.001,0,0.003c0,0.001,0,0.003,0,0.005
		c0,0.002,0.001,0.004,0,0.005s0,0.002,0,0.004c0,0.001,0,0.003,0,0.005c0,0.001,0,0.003,0,0.005c0,0.001,0,0.003,0,0.005
		c0,0.001,0,0.003,0,0.005c0,0,0,0.003,0,0.004s0,0.003,0,0.005c0,0.001,0,0.003,0,0.005c0,0,0,0.001,0,0.002
		c0,0.003,0,0.004,0,0.005c0,0.003,0,0.004,0,0.006s0,0.003,0,0.004c0,0.002,0,0.003,0,0.005s0,0.003,0,0.005s0,0.003,0,0.005
		c0,0.001,0,0.002,0,0.003s0,0.002,0,0.005c0,0.001,0,0.002,0,0.005c0,0.001,0,0.002,0,0.005c0,0.001,0,0.004,0,0.005
		s0,0.003,0,0.005c0,0,0,0.001,0,0.002c0,0.003,0,0.004,0,0.005c-0.001,0.002,0,0.003,0,0.004c0,0.003,0,0.004,0,0.005
		s0,0.002,0,0.004v0.001c0,0.001,0,0.002,0,0.004v0.001c0,0.001,0,0.002,0,0.004v0.001c0,0.002-0.001,0.003,0,0.004
		c0,0.002-0.001,0.003,0,0.005c0,0.002-0.001,0.004,0,0.005c0,0.001,0,0.003,0,0.004s0,0.002,0,0.005v0.001c0,0.001,0,0.003,0,0.004
		v0.001c0,0.001,0,0.001,0,0.003c-0.001,0.001,0,0.003,0,0.005v0.001c0,0.001,0,0.003,0,0.004l0,0c0,0.002,0,0.003,0,0.005
		c0,0,0,0,0,0.001s0,0.003,0,0.004c0,0,0,0,0,0.001s0,0.003,0,0.003s0,0,0,0.001s0,0.003,0,0.004c0,0,0,0,0,0.001s0,0.003,0,0.005
		l0,0c0,0.001,0,0.003,0,0.005l0,0c0,0.001,0,0.003,0,0.005l0,0c0,0.001,0,0.003,0,0.005l0,0c0,0.001,0,0.002,0,0.004l0,0
		c0,0.002,0,0.003,0,0.005l0,0c0,0.002,0,0.003,0,0.005l0,0c0,0.004,0,0.007-0.001,0.011l0,0c-0.008,0.083-0.022,0.167-0.043,0.252
		c-0.093,0.368-0.188,0.742-0.286,1.122c-0.034,0.126-0.066,0.255-0.1,0.384l-0.005,0.02c-0.131,0.5-0.266,1.009-0.405,1.528
		l-0.001,0.004c-0.121,0.452-0.245,0.91-0.369,1.376c-3.972,14.782-9.973,37.123,7.533,62.819l0.183,0.269l0.073,0.315
		c0.069,0.306,1.645,7.462-1.379,16.503c5.489,22.897,9.685,35.2,12.474,36.571c2.46,1.231,6.952,2.771,9.745,2.255
		c0.033-0.145,0.062-0.312,0.087-0.445c0.171-0.925,0.43-2.322,1.621-3.188c1.276-0.927,2.847-0.338,4.233,0.182
		c0.131,0.05,0.291,0.108,0.455,0.169c-0.142-0.757-0.366-1.816-0.585-2.854c-4.016-18.995-7.346-41.865,2.598-50.292
		c15-14.584,15.645-27.855,15.649-27.987c0.035-0.947,0.839-1.689,1.773-1.659c0.947,0.031,1.69,0.819,1.662,1.767
		c-0.013,0.429-0.327,7.92-6.566,17.941c5.38,1.387,10.91,2.583,16.444,3.622c0.117,0.007,0.234,0.024,0.351,0.058
		c0.027,0.007,0.053,0.016,0.08,0.022c16.681,3.104,33.377,4.776,46.145,5.83c0.065-3.188,0.359-9.714,1.644-12.487
		c0.399-0.861,1.42-1.236,2.281-0.839c0.861,0.398,1.236,1.421,0.838,2.281c-0.965,2.086-1.33,8.604-1.344,12.452
		c0.076,0.21,0.188,0.512,0.331,0.898l0.552,1.488l-0.013-0.002c2.75,7.671,10.233,29.598,9.956,40.404
		c-0.318,12.432,4.227,18.113,5.843,19.125l0.438,0.277c1.98,1.254,4.022,2.547,8.959,2.193c0.007-0.042,0.014-0.085,0.021-0.127
		c0.263-1.458,0.66-3.664,2.668-4.646c1.19-0.584,2.65-0.586,4.491,0.014c-0.217-0.832-0.468-1.752-0.695-2.59
		c-1.07-3.922-2.285-8.368-2.271-10.889c0.018-3.357,1.053-30.757,1.548-43.664c0-0.025,0-0.053,0.002-0.078
		c0.04-1.047,0.076-1.994,0.108-2.828c0-0.022,0-0.049,0.002-0.073c0.012-0.272,0.021-0.534,0.029-0.78l0.106-2.788
		c0.038-0.948,0.849-1.683,1.785-1.651c0.946,0.039,1.687,0.839,1.649,1.787l-0.06,1.498c1.772-0.312,3.517-0.662,5.222-1.05
		l-0.064-0.015c-3.911-1.41-7.562-3.275-10.842-5.584c-0.776-0.547-0.963-1.618-0.416-2.395c0.547-0.774,1.617-0.961,2.394-0.416
		c11.771,8.281,28.728,10.428,45.353,5.734c3.19-0.9,6.707-1.562,10.433-2.264c7.97-1.499,16.153-3.051,21.271-6.993l-0.15,0.021
		c-0.907,0.094-1.812,0.143-2.693,0.143l0,0c-1.2,0-2.32-0.092-3.359-0.26c0.002-0.002,0.006-0.002,0.008-0.004l-0.129-0.011
		c0.039,0.007,0.082,0.009,0.121,0.015c-0.203,0.097-0.422,0.166-0.656,0.166c-0.088,0-0.18-0.008-0.271-0.023
		c-2.276-0.396-4.95-0.745-7.776-1.114c-12.305-1.608-20.482-2.975-22-7.146c-0.297-0.816,0.125-1.719,0.939-2.014
		c0.812-0.297,1.717,0.123,2.014,0.938c0.978,2.688,12.545,4.201,19.453,5.104c0.391,0.051,0.769,0.101,1.148,0.148
		c0.013,0.018,0.021,0.036,0.031,0.055l-0.023-0.054c-0.002,0-0.004-0.001-0.008-0.001c-0.732-1.113-1.125-2.423-1.125-3.896
		c0-10.355,9.343-19.128,15.724-21.022c0.003,0.001,0.003,0.002,0.003,0.003l0.035-0.016c-0.013,0.003-0.023,0.01-0.038,0.013
		c-0.282-0.568-0.599-1.203-0.96-1.931c-0.839-1.686-1.915-3.854-3.357-6.741c-2.528-5.057-3.322-11-4.16-17.292
		c-1.824-13.669-3.709-27.802-22.898-37.335l-0.253-0.125l-0.196-0.2c-1.365-1.364-1.752-2.841-2.062-4.027
		c-0.312-1.195-0.46-1.565-0.979-1.846c-0.31,0.032-1.063,0.4-1.572,0.648c-2.491,1.216-7.105,3.467-11.519-3.312
		c-0.521-0.401-1.299-0.568-2.325-0.492c-3.229,0.235-7.293,2.737-7.914,3.515c-1.789,2.339-6.398,2.386-8.97,1.865
		c-0.968,0.292-3.305,3.211-4.315,4.469c-1.422,1.777-2.202,2.724-2.993,3.158c-0.835,0.456-1.877,0.15-2.333-0.68
		c-0.456-0.832-0.151-1.876,0.679-2.332c0.302-0.214,1.263-1.416,1.966-2.293l0.393-0.489c-4.424-1.125-9.067-2.069-13.905-2.825
		c-4.519-0.706-9.207-1.249-14.038-1.625c-0.191-0.014-0.384-0.027-0.576-0.04l-0.234-0.073
		c8.983,2.429,22.238,10.013,28.365,18.144c0.57,0.758,0.42,1.835-0.338,2.407c-0.757,0.57-1.836,0.42-2.406-0.338
		c-8.367-11.101-28.733-19.098-31.646-17.542c0.021,0.18,0.123,0.611,0.592,1.393c1.997,3.338,1.815,8.319,1.606,14.086
		c-0.404,11.113-0.821,22.604,13.446,24.94c0.937,0.153,1.57,1.037,1.416,1.973c-0.136,0.842-0.864,1.442-1.692,1.441
		c-0.093,0-0.185-0.007-0.278-0.023c-17.258-2.825-16.721-17.639-16.326-28.457c0.183-5.004,0.353-9.731-1.121-12.198
		c-2.201-3.678-0.498-5.382,0.338-5.944c0.162-0.108,0.338-0.203,0.533-0.285 M243.989,37.723c0.968-4.629,1.905-9.115,3.177-12.943
		c-2.734,0.839-6.455,2.509-7.201,5.054c-0.74,2.522-1.929,4.47-3.025,5.864c2.365,3.444,3.963,7.062,5.103,10.729
		C242.755,43.613,243.377,40.649,243.989,37.723z M234.766,32.853c0.713-1.033,1.424-2.361,1.902-3.986
		c1.741-5.947,10.982-7.819,12.03-8.014c0.01-0.002,0.021-0.001,0.028-0.002c0.633-1.32,1.334-2.511,2.143-3.523
		c0.154-0.194,0.271-0.357,0.355-0.492c-0.136-0.013-0.303-0.021-0.502-0.021c-4.697,0-16.396,4.447-22.27,10.104
		C230.936,28.798,233.016,30.785,234.766,32.853z M259.969,107.003c0-7.67-3.74-15.197-7.553-15.197
		c-3.867,0-14.122,7.938-14.122,17.475c0,3.865,5.897,4.166,7.706,4.166c0,0,0,0,0.002,0c3.354,0,7.027-0.809,9.83-2.162
		C258.461,110.014,259.969,108.454,259.969,107.003z M62.877,135.175c5.489,22.896,9.684,35.203,12.474,36.573
		c2.461,1.23,6.952,2.77,9.745,2.254c0.032-0.145,0.062-0.312,0.087-0.445c0.171-0.926,0.43-2.324,1.622-3.188
		c1.276-0.928,2.847-0.337,4.232,0.182c0.132,0.051,0.291,0.109,0.455,0.169c-0.141-0.757-0.365-1.815-0.584-2.852
		c-1.72-8.147-5.644-26.72-3.027-39.454c-5.485-1.061-10.957-2.275-16.277-3.68c-2.136,3-4.806,6.173-8.136,9.408
		c-0.008,0.008-0.016,0.016-0.024,0.021l-0.077,0.069c-0.001,0.002-0.003,0.004-0.004,0.004c-0.091,0.078-0.178,0.16-0.262,0.244
		C63.027,134.711,62.955,134.943,62.877,135.175z M248.868,104.289c0-1.698-0.938-3.075-2.097-3.075
		c-1.157,0-2.098,1.377-2.098,3.075c0,1.697,0.939,3.072,2.098,3.072C247.932,107.361,248.868,105.986,248.868,104.289
		 M256.141,102.194c0-1.353-0.748-2.451-1.672-2.451c-0.921,0-1.67,1.099-1.67,2.451c0,1.354,0.749,2.451,1.67,2.451
		C255.393,104.646,256.141,103.548,256.141,102.194"/>
	<path id="hoofBorder" fill="#CC6B69" d="M93.362,171.63c0,2.782-4.271-0.798-5.548,0.13c-1.278,0.926-0.63,3.46-1.816,3.797
		c-3.56,1.008-9.15-1.14-11.406-2.268c-0.708-0.35-1.439-1.169-2.176-2.332c6.65-3.632,13.067-5.219,19.679-5.801
		C92.813,168.625,93.362,171.018,93.362,171.63 M185.169,179.977c-0.103,0.176-0.179,0.344-0.269,0.513
		c2.281,1.444,4.852,3.182,11.396,2.434c2.983-2.331-0.147-7.798,7.854-3.6c0.8,0.419-0.893-4.849-2.135-9.746
		C195.084,169.902,190.29,171.13,185.169,179.977 M156.367,195.688c-0.102,0.174-0.178,0.34-0.268,0.512
		c2.282,1.443,4.853,3.181,11.394,2.433c0.821-1.964-0.146-7.799,7.854-3.6c0.801,0.419-0.892-4.847-2.135-9.746
		C166.282,185.611,161.489,186.84,156.367,195.688 M60.959,185.704c0-0.612-0.548-3.005-1.268-6.474
		c-6.612,0.582-13.029,2.168-19.679,5.801c0.737,1.162,1.468,1.982,2.177,2.332c2.256,1.128,7.847,3.275,11.406,2.267
		c1.187-0.336,0.539-2.87,1.817-3.796C56.688,184.906,60.959,188.486,60.959,185.704"/>
	<path id="Eye" d="M197.121,78.389c-4.447,0-8.561-6.175-9.34-7.413l-0.862-1.37l1.181-1.109c0.477-0.448,4.779-4.37,9.021-4.37
		c4.511,0,8.369,6.494,9.096,7.797l0.75,1.343l-1.124,1.05C205.396,74.733,201.361,78.389,197.121,78.389"/>
	<path id="EyeBorder" fill="#FFEFEE" d="M197.121,66.091c3.588,0,7.382,6.792,7.382,6.792s-3.794,3.542-7.382,3.542
		s-7.68-6.495-7.68-6.495S193.533,66.091,197.121,66.091 M197.121,62.163c-4.895,0-9.493,4.084-10.365,4.903l-2.363,2.216
		l1.728,2.741c1.231,1.954,5.663,8.33,11.002,8.33c0.856,0,5.374-0.222,10.062-4.6l2.25-2.1l-1.502-2.687
		C206.777,68.9,202.588,62.163,197.121,62.163"/>
</g>
</svg>
