<svg xmlns="http://www.w3.org/2000/svg" xmlns:xlink="http://www.w3.org/1999/xlink" viewBox= "0 0 393 271" width="393px" height="271px"><g id="Planet.svg"><circle id="PlanetBorder" fill="#00284C" cx="198.8260040283203" cy="128.50299072265625" r="71.997"></circle><path id="Shadow2_1_" opacity="0.4" fill="#FFFFFF" enable-background="new    " d="M137.56199645996094,90.68199920654297C124.23500061035156,112.27400207519531,123.68699645996094,138.14599609375,133.8249969482422,159.47299194335938C125.44499969482422,138.4929962158203,126.76599884033203,113.9540023803711,139.5449981689453,93.2550048828125C158.65699768066406,62.295997619628906,196.93699645996094,50.395999908447266,229.60800170898438,63.415000915527344C196.88699340820312,47.893001556396484,157.02999877929688,59.14900207519531,137.56199645996094,90.68199920654297z"></path><path id="Shadow1_1_" opacity="0.16" fill="#FFFFFF" enable-background="new    " d="M149.05899047851562,101.68800354003906C169.50799560546875,68.56399536132812,212.93899536132812,58.288002014160156,246.06199645996094,78.73799896240234C250.88600158691406,81.71600341796875,255.22000122070312,85.18299865722656,259.04901123046875,89.03099822998047C253.44700622558594,80.47100067138672,245.9239959716797,72.97100067138672,236.64300537109375,67.24099731445312C233.02099609375,65.00499725341797,229.27699279785156,63.134002685546875,225.4550018310547,61.608001708984375C226.8509979248047,62.16400146484375,228.23500061035156,62.76599884033203,229.60499572753906,63.417999267578125C196.9340057373047,50.39699935913086,158.65399169921875,62.29899978637695,139.5419921875,93.25700378417969C126.79199981689453,113.91200256347656,125.44999694824219,138.38900756835938,133.77099609375,159.3389892578125C139.239990234375,170.91099548339844,147.84799194335938,181.1479949951172,159.27099609375,188.64999389648438C136.58700561523438,166.07598876953125,131.52499389648438,130.09300231933594,149.05899047851562,101.68800354003906z"></path><path id="ringBorder" opacity="0.7" fill="#0090A8" enable-background="new    " d="M267.9320068359375,148.7519989013672C277.5780029296875,155.57199096679688,286.7380065917969,162.26199340820312,295.2130126953125,168.67401123046875C304.8079833984375,178.44400024414062,309.343017578125,185.89700317382812,307.1029968261719,189.5330047607422C301.19598388671875,199.1009979248047,250.46400451660156,178.49400329589844,193.79100036621094,143.50599670410156C137.1199951171875,108.52400207519531,95.96600341796875,72.4020004272461,101.875,62.83399963378906C104.97000122070312,57.821998596191406,120.35900115966797,61.09199905395508,142.45401000976562,70.36299896240234C145.17401123046875,71.8489990234375,147.92800903320312,73.37300109863281,150.71200561523438,74.92500305175781L155.38999938964844,71.06900024414062C146.66500854492188,66.93499755859375,138.2139892578125,62.9010009765625,130.28298950195312,59.224998474121094C69.82499694824219,26.89099884033203,24.932998657226562,10.367000579833984,18.785999298095703,20.106000900268555C10.032001495361328,33.97700119018555,77.75800323486328,101.25399780273438,176.7220001220703,163.70899963378906C275.68402099609375,226.1719970703125,368.40399169921875,260.1619873046875,377.1600036621094,246.29100036621094C382.4830017089844,237.85499572753906,357.5220031738281,211.66799926757812,314.8840026855469,178.38499450683594C302.9179992675781,166.92800903320312,286.8590087890625,153.72698974609375,269.78997802734375,140.7779998779297L267.9320068359375,148.7519989013672M351.3659973144531,223.90199279785156C345.35198974609375,233.4290008544922,258.97100830078125,200.9980010986328,182.84600830078125,152.95098876953125C106.7229995727539,104.90800476074219,46.88199996948242,44.43600082397461,52.89299774169922,34.915000915527344C55.177001953125,31.29399871826172,67.70500183105469,34.52400207519531,86.53300476074219,42.555999755859375C81.65699768066406,41.81399917602539,78.302001953125,42.38600158691406,76.87699890136719,44.694000244140625C68.78199768066406,57.802001953125,122.13400268554688,108.08599853515625,189.37899780273438,149.60000610351562C256.62298583984375,191.11399841308594,326.70001220703125,221.94000244140625,334.7919921875,208.82899475097656C336.07598876953125,206.7469940185547,335.44000244140625,203.63999938964844,333.25799560546875,199.75100708007812C346.45599365234375,211.82000732421875,353.4519958496094,220.60400390625,351.3659973144531,223.90199279785156z"></path></g></svg>