<?xml version="1.0" encoding="utf-8"?>
<!-- Generator: Adobe Illustrator 15.0.0, SVG Export Plug-In . SVG Version: 6.00 Build 0)  -->
<!DOCTYPE svg PUBLIC "-//W3C//DTD SVG 1.1//EN" "http://www.w3.org/Graphics/SVG/1.1/DTD/svg11.dtd">
<svg version="1.1" id="Layer_1" xmlns="http://www.w3.org/2000/svg" xmlns:xlink="http://www.w3.org/1999/xlink" x="0px" y="0px"
	 width="190px" height="417px" viewBox="0 0 190 417" enable-background="new 0 0 190 417" xml:space="preserve">
<g id="FarmGirl.svg">
	<path id="Shoes_2_" fill="#474747" d="M113.521,375.859c8.312-1.164,5.551-4.42,7.652-5.473c3.352-1.071,6.854,3.457,10.871,6.14
		c4.021,2.677,11.238,0.172,15.954,7.539c2.267,3.541,1.022,8.937-4.026,10.34c-5.045,1.4-15.58-0.723-21.478-2.062
		c-5.894-1.342-12.86-2.009-18.087-4.152c-5.225-2.146-1.475-7.906-1.605-11.121c-0.135-3.22,2.416-4.05,2.416-4.05
		S105.393,377.224,113.521,375.859z M60.053,378.65c-1.234,4.932-13.57,13.567-14.556,16.897c-0.986,3.329-0.587,5.969,1.206,7.362
		c1.791,1.396,16.995,3.324,21.3-0.396c9.711-8.401,13.339-9.161,14.137-12.74c0.797-3.587,0.396-7.371-0.995-9.161
		C79.748,378.823,75.718,383.582,60.053,378.65z"/>
	<path id="Shoes1_2_" fill="#FFFFFF" d="M148.826,385.775c0.613,3.511-0.697,7.475-4.854,8.627
		c-5.045,1.399-15.58-0.723-21.478-2.062c-5.894-1.342-12.86-2.009-18.087-4.152c-2.917-1.197-3.033-3.521-2.594-5.9
		c8.147,2.985,24.629,6.312,32.768,6.93C142.378,389.808,146.089,388.601,148.826,385.775z M59.104,399.757
		c-4.888,0-11.863-1.256-14.422-3.042c-0.342,3.128,0.566,5.069,2.021,6.196c1.791,1.395,16.995,3.324,21.3-0.396
		c9.711-8.401,13.339-9.16,14.137-12.74c0.167-0.762,0.271-1.528,0.335-2.281c-0.754,0.425-1.837,1.055-3.405,1.997
		C73.13,393.049,66.865,399.757,59.104,399.757z"/>
	<path id="ShoesBorder_2_" fill="#1E1E1E" d="M58.311,406.454L58.311,406.454c-4.811,0-11.062-0.859-12.703-2.136
		c-2.395-1.864-3.04-5.158-1.82-9.276c0.547-1.845,2.844-4.079,6.544-7.572c3.136-2.956,7.432-7.013,7.993-9.252
		c0.118-0.479,0.429-0.884,0.858-1.122c0.427-0.237,0.936-0.293,1.404-0.145c4.711,1.484,8.91,2.233,12.478,2.233
		c2.281,0,3.9-0.301,5.082-0.52c0.775-0.147,1.389-0.259,1.978-0.259c1.032,0,1.849,0.373,2.422,1.111
		c1.719,2.211,2.255,6.482,1.33,10.64c-0.632,2.833-2.545,4.248-6.026,6.816c-2.084,1.539-4.939,3.647-8.682,6.886
		C67.177,405.581,63.524,406.454,58.311,406.454z M47.045,396.67c2.933,1.115,7.975,1.987,12.059,1.987
		c5.299,0,9.918-3.388,14.388-6.66c1.726-1.264,3.356-2.458,5.01-3.449c0.884-0.53,1.614-0.963,2.22-1.314
		c0.18-2.298-0.202-4.234-0.8-5.246c-0.296,0.027-0.686,0.104-1.121,0.184c-1.245,0.23-3.126,0.58-5.734,0.58
		c-3.521,0-7.549-0.648-11.986-1.929c-1.544,2.857-4.969,6.096-8.302,9.24c-2.225,2.1-5.271,4.975-5.572,5.991
		c-0.062,0.209-0.117,0.414-0.167,0.617L47.045,396.67L47.045,396.67z M45.722,398.499c0.099,1.576,0.651,2.765,1.652,3.544
		c0.725,0.537,5.722,1.531,10.936,1.531c4.313,0,7.585-0.689,8.976-1.896c3.826-3.311,6.734-5.457,8.857-7.02
		c3.177-2.352,4.507-3.329,4.915-5.086c-0.425,0.252-0.898,0.531-1.429,0.85c-1.566,0.94-3.157,2.107-4.843,3.342
		c-4.531,3.32-9.668,7.084-15.684,7.084C54.889,400.854,49.114,399.938,45.722,398.499z M139.712,396.644
		c-4.256,0-10.014-0.84-17.612-2.564c-1.884-0.429-3.85-0.782-5.929-1.155c-4.297-0.771-8.743-1.573-12.44-3.087
		c-5.148-2.115-3.93-7.019-3.201-9.951c0.255-1.021,0.521-2.078,0.49-2.747c-0.152-3.606,2.313-5.38,3.643-5.812
		c0.529-0.173,1.113-0.089,1.57,0.229c0.459,0.317,0.742,0.834,0.765,1.392c0.071,0.478,0.914,1.404,3.562,1.404
		c0.791,0,1.684-0.083,2.664-0.247c4.57-0.642,4.902-1.728,5.196-2.686c0.239-0.773,0.597-1.944,1.955-2.623
		c0.08-0.042,0.164-0.075,0.252-0.105c0.51-0.16,1.041-0.247,1.58-0.247c2.69,0,5.053,1.972,7.56,4.059
		c1.062,0.888,2.162,1.805,3.264,2.536c1.113,0.74,2.71,0.997,4.56,1.297c3.765,0.604,8.444,1.354,11.906,6.767
		c1.487,2.321,1.786,5.255,0.798,7.837c-0.982,2.565-3.059,4.408-5.848,5.183C143.18,396.473,141.626,396.644,139.712,396.644z
		 M102.73,383.771c-0.096,1.793,0.537,2.764,2.096,3.403c3.413,1.397,7.703,2.169,11.854,2.916c2.026,0.363,4.113,0.738,6.061,1.184
		c10.257,2.329,17.482,3.03,20.939,2.072c2.863-0.793,4-3.053,4.174-5.299c-3.029,2.109-6.978,2.75-13.354,2.263
		C126.904,389.736,111.568,386.76,102.73,383.771z M137.029,379.854c-2.17-0.349-4.215-0.677-5.973-1.852
		c-1.26-0.841-2.435-1.818-3.568-2.763c-2.024-1.688-4.11-3.433-5.528-3.217c-0.024,0.088-0.084,0.287-0.13,0.436
		c-0.655,2.129-1.816,4.286-8.062,5.161c-1.125,0.188-2.22,0.289-3.207,0.289c-2.957,0-4.777-0.921-5.836-2.03
		c-0.102,0.294-0.16,0.659-0.14,1.107c0.048,1.18-0.265,2.431-0.594,3.756c-0.093,0.374-0.177,0.724-0.249,1.05
		c8.558,2.834,23.597,5.771,30.92,6.329c6.124,0.465,9.68-0.113,12.306-2.147v-0.015c-0.124-0.33-0.282-0.646-0.472-0.938
		C143.896,380.955,140.561,380.42,137.029,379.854z"/>
	<path id="ShoeLaces_2_" fill="#FFFFFF" d="M124.07,380.771c-0.18,0-0.358-0.045-0.528-0.137c-0.526-0.296-0.722-0.959-0.433-1.487
		c0.07-0.126,1.716-3.087,4.017-4.934c0.476-0.381,1.164-0.3,1.541,0.17c0.38,0.475,0.302,1.164-0.17,1.541
		c-1.956,1.566-3.449,4.251-3.465,4.275C124.831,380.564,124.457,380.771,124.07,380.771z M132.031,382.417
		c0.166-0.593,0.835-2.245,1.881-2.769c0.541-0.271,0.763-0.931,0.49-1.473c-0.271-0.542-0.932-0.76-1.475-0.49
		c-2.101,1.052-2.924,3.827-3.009,4.142c-0.161,0.582,0.177,1.185,0.758,1.347c0.099,0.027,0.201,0.041,0.298,0.041
		C131.455,383.216,131.896,382.899,132.031,382.417z M62.178,390.393c0.356-0.485,0.249-1.173-0.241-1.529
		c-1.475-1.074-3.396-1.213-5.432-1.361c-0.58-0.041-1.179-0.086-1.784-0.153c-0.597-0.062-1.144,0.366-1.211,0.97
		c-0.066,0.603,0.366,1.145,0.968,1.21c0.635,0.07,1.261,0.115,1.868,0.161c1.787,0.129,3.332,0.241,4.299,0.945
		c0.195,0.143,0.422,0.207,0.645,0.207C61.63,390.844,61.964,390.688,62.178,390.393z M65.614,385.336
		c0.29-0.532,0.095-1.202-0.438-1.489c-0.183-0.101-1.924-0.991-6.381-1.438c-0.596-0.056-1.141,0.38-1.2,0.98
		c-0.061,0.604,0.379,1.142,0.982,1.201c4.002,0.4,5.544,1.181,5.549,1.183c0.166,0.092,0.347,0.134,0.524,0.134
		C65.039,385.906,65.416,385.7,65.614,385.336z"/>
	<path id="Pants_1_" fill="#3070A0" d="M63.012,219.113c-1.935,4.695-6.138,16.006-4.203,48.053
		c1.934,32.049,4.143,44.48,3.313,47.52c-0.827,3.039,0.276,11.053,1.382,15.195c1.105,4.146,0.553,21.272-0.553,23.76
		c-1.106,2.488-0.872,8.304-0.872,10.238c0,1.934-1.135,10.513-0.858,12.447c0.276,1.937,16.353,4.844,17.457,4.291
		c1.104-0.552,0.304-2.892,0.856-3.721c0.553-0.828,1.651,0.78,2.204-1.431c0.553-2.213-0.276-9.67,1.658-16.577
		c1.935-6.905,4.696-14.366,3.867-23.482c-0.829-9.117,0.83-16.301,3.592-31.495c2.763-15.196,8.29-35.917,8.29-42.827
		c0-6.907,0.275-1.657,0.275-1.657s0.277,14.919,1.658,27.901c1.382,12.986,3.59,27.074,1.936,29.285
		c-1.658,2.214-0.83,17.129,0.275,24.592c1.105,7.46,0.553,18.511,0.553,20.444c0,1.937,1.66,4.973,1.66,6.077
		c0,1.105-1.66,3.04-1.384,4.145c1.403,1.732,7.103,5.754,16.983-3.46c2.012-2.175,5.946-30.798,7.053-38.533
		c1.106-7.739-2.211-24.592,0-30.671c2.212-6.077,8.291-29.006,7.462-46.411s-4.146-31.774-5.525-32.052
		C128.71,220.469,63.012,219.113,63.012,219.113z"/>
	<path id="PantsBorder_1_" fill="#194F70" d="M78.098,382.469c-1.76,0-6.023-0.672-9.913-1.562
		c-7.742-1.771-8.546-3.059-8.728-4.329c-0.185-1.295,0.07-4.158,0.483-8.378c0.175-1.799,0.357-3.655,0.357-4.32l-0.008-0.877
		c-0.044-3.655-0.005-7.751,1.033-10.085c0.787-1.803,1.54-18.521,0.458-22.577c-0.964-3.616-2.409-12.341-1.378-16.122
		c0.338-1.241-0.083-5.811-0.721-12.726c-0.68-7.368-1.706-18.503-2.653-34.22c-2.017-33.416,2.598-44.618,4.334-48.838
		c0.28-0.681,0.952-1.115,1.685-1.104c19.8,0.411,66.003,1.395,67.389,1.671c0.998,0.2,2.364,0.476,4.371,11.015
		c0.75,3.935,2.08,12.11,2.586,22.697c0.846,17.748-5.25,40.739-7.564,47.108c-1.104,3.032-0.604,9.943-0.161,16.043
		c0.394,5.479,0.767,10.657,0.251,14.267l-0.253,1.795c-4.161,29.355-5.858,36.189-7.25,37.697c-0.026,0.03-0.063,0.065-0.095,0.096
		c-4.5,4.191-8.76,6.317-12.674,6.317l0,0c-3.279,0-5.723-1.569-6.914-3.037c-0.162-0.205-0.279-0.438-0.342-0.69
		c-0.312-1.254,0.297-2.464,0.84-3.538c0.183-0.36,0.457-0.906,0.492-1.107c-0.027-0.159-0.332-0.982-0.551-1.577
		c-0.521-1.414-1.113-3.016-1.113-4.435c0-0.329,0.019-0.917,0.037-1.701c0.098-3.714,0.329-12.411-0.57-18.48
		c-0.705-4.76-2.418-22.615,0.062-25.922c0.81-1.604-0.354-11.46-1.293-19.382c-0.337-2.845-0.683-5.773-0.987-8.646
		c-0.375-3.521-0.668-7.195-0.896-10.681c-0.574,2.701-1.212,5.597-1.879,8.603c-1.407,6.384-2.864,12.986-3.92,18.789
		c-0.323,1.771-0.631,3.439-0.922,5.01c-2.168,11.729-3.359,18.195-2.65,26.002c0.744,8.176-1.287,15.098-3.081,21.201
		c-0.289,0.986-0.575,1.962-0.846,2.926c-1.202,4.287-1.283,8.842-1.345,12.17c-0.035,1.971-0.062,3.396-0.301,4.361
		c-0.479,1.914-1.572,2.443-2.372,2.558c0,0.002,0,0.004,0,0.006c0.008,1.097,0.019,2.931-1.621,3.748
		C79.115,382.392,78.704,382.469,78.098,382.469z M62.956,375.593c2.051,1.146,11.025,3.084,14.575,3.293
		c0.002-0.142,0-0.287,0-0.396c-0.004-0.836-0.011-1.777,0.522-2.578c0.454-0.683,1.16-1.056,1.985-1.056c0.002,0,0.006,0,0.01,0
		c0.11-0.659,0.134-1.984,0.159-3.381c0.065-3.518,0.15-8.336,1.475-13.063c0.273-0.978,0.564-1.965,0.858-2.969
		c1.786-6.083,3.633-12.374,2.951-19.872c-0.755-8.295,0.47-14.931,2.694-26.974c0.29-1.569,0.598-3.231,0.919-5.003
		c1.068-5.867,2.534-12.496,3.949-18.917c2.217-10.04,4.312-19.528,4.312-23.589c0-4.215,0-5.348,1.879-5.348
		c1.77,0,1.85,1.508,1.959,3.598c0.004,0.207,0.294,15.055,1.65,27.809c0.305,2.857,0.647,5.775,0.982,8.604
		c1.686,14.258,2.172,19.844,0.604,21.938c-0.996,1.743-0.672,14.587,0.613,23.26c0.944,6.376,0.709,15.291,0.608,19.099
		c-0.021,0.742-0.035,1.296-0.035,1.606c0,0.783,0.493,2.126,0.892,3.202c0.428,1.165,0.768,2.083,0.768,2.877
		c0,0.922-0.442,1.801-0.871,2.646c-0.121,0.242-0.294,0.582-0.412,0.86c0.62,0.512,1.818,1.231,3.646,1.231
		c2.916,0,6.428-1.824,10.158-5.28c0.715-1.165,2.454-8.418,6.33-35.762l0.254-1.799c0.461-3.229,0.084-8.456-0.281-13.505
		c-0.51-7.08-0.993-13.77,0.369-17.521c2.162-5.938,8.162-28.727,7.354-45.721c-0.752-15.742-3.449-27.803-4.642-30.417
		c-5.067-0.246-40.473-1.032-64.988-1.544c-1.872,4.773-5.422,16.211-3.616,46.141c0.945,15.656,1.969,26.758,2.646,34.105
		c0.768,8.327,1.117,12.128,0.609,13.989c-0.659,2.418,0.21,9.866,1.384,14.269c1.17,4.392,0.718,21.873-0.646,24.943
		c-0.808,1.818-0.75,6.564-0.725,8.594c0.004,0.36,0.007,0.671,0.007,0.92c0,0.84-0.164,2.528-0.373,4.669
		C63.264,370.84,62.939,374.16,62.956,375.593z M99.527,247.342c1.324-0.201,5.742-0.926,7-1.824
		c2.017-1.438,2.674-14.763,2.582-17.091c-0.021-0.606-0.565-1.095-1.137-1.054c-0.606,0.023-1.076,0.532-1.054,1.138
		c0.163,4.335-0.935,13.847-1.749,15.274c-0.723,0.4-3.598,1.029-5.969,1.393c-0.602,0.09-1.012,0.647-0.92,1.246
		c0.08,0.545,0.549,0.936,1.08,0.936C99.416,247.354,99.473,247.35,99.527,247.342z M71.188,240.1
		c2.938-3.305,7.128-8.72,7.169-8.773c0.371-0.479,0.282-1.167-0.198-1.537c-0.479-0.369-1.165-0.282-1.536,0.197
		c-0.042,0.054-4.187,5.412-7.074,8.658c-0.402,0.453-0.362,1.146,0.092,1.547c0.209,0.188,0.469,0.278,0.728,0.278
		C70.671,240.469,70.971,240.345,71.188,240.1z"/>
	<path id="body" fill="#FFFFFF" d="M57.702,153.342c-0.828,1.657-18.786,38.127-19.062,38.954
		c-0.276,0.826,17.958,25.142,20.996,29.837c3.039,4.696,4.146,3.59,7.183,4.143c3.039,0.555,6.523,7.066,6.523,7.066
		s-0.366-0.324-1.786,1.823c-1.64,2.481-3.356,1.884-3.356,1.884s0.276,9.67-0.276,11.881c-0.553,2.213-7.361,10.326-9.279,10.067
		c-6.104-1.483-2.6-19.735-2.6-22.501s-20.72-22.93-24.312-27.35c-3.592-4.419-12.433-13.261-12.433-15.192
		c0-1.936,4.144-10.499,7.736-19.063c3.592-8.565,12.708-33.707,14.367-35.641C51.901,135.105,58.532,151.684,57.702,153.342z
		 M113.234,146.157c-0.275,7.735,6.908,68.237,12.156,68.237c8.688,0.035,28.479-44.621,31.518-49.315
		c3.898-4.067,14.562-11.947,16.22-14.709c1.658-2.764,3.629-13.616-0.791-16.654c-7.8-2.205-11.401,7.271-16.453,13.38
		c0,0,2.925-10.725-3.86-9.879c-1.303,2.589-0.938,7.556-2.043,9.766c-2.227,4.534-0.703,10.467-0.703,10.467
		s-16.188,25.953-18.157,25.46c-1.97-0.491-1.863-2.495-2.142-6.642c-0.276-4.145-0.174-38.707-1.935-45.033
		C125.668,126.266,113.511,138.422,113.234,146.157z M102.016,107.527c-4.173,2.908-8.667,4.602-12.986,4.602
		c-3.842,0-7.873-1.395-11.699-3.824c-0.384,6.434-2.947,13.408-6.643,16.574c-5.802,4.974,32.051,20.997,32.051,20.997
		s13.618-17.529,10.61-22.421C105.551,121.85,102.598,114.566,102.016,107.527z"/>
	<path id="face_1_" fill="#FFFFFF" d="M119.404,73.855c0,20.01-16.161,38.274-30.375,38.274c-13.935,0-30.38-18.265-30.38-38.274
		c0-2.94,0.293-14.738,0.848-17.189c3.219-14.222,15.219-20.342,29.532-20.342c14.292,0,26.282,6.104,29.519,20.284
		C119.105,59.074,119.404,70.893,119.404,73.855"/>
	<path id="bodyBorder" fill="#212121" d="M129.316,133.941c0.382,3.167,0.64,7.831,0.828,13.294
		c-1.123-3.956-2.81-6.989-3.998-8.798c-0.021-0.288-0.037-0.568-0.062-0.844C127.82,135.869,128.787,134.726,129.316,133.941z
		 M63.431,252.582c-0.438-1.373-0.361-4.064-0.291-6.479c0.037-1.299,0.075-2.639,0.041-3.822c-0.014-0.454-0.395-0.799-0.846-0.799
		c-0.454,0.015-0.812,0.395-0.799,0.849c0.034,1.135-0.004,2.451-0.041,3.724c-0.093,3.271-0.182,6.368,0.764,7.901v-0.004
		c-0.402,0.446-0.805,0.878-1.191,1.272v0.002c-1.264-2.125-1.062-8.32-0.974-11.076c0.016-0.455-0.343-0.834-0.796-0.848
		c-0.433,0.022-0.832,0.342-0.849,0.799c-0.155,4.803-0.177,10.051,1.418,12.281l-0.009-0.016c-0.425,0.365-0.8,0.64-1.094,0.787
		c-2.034-0.998-2.445-6.902-1.222-17.568c0.172-1.493,0.285-2.482,0.285-3.089c0-2.06-3.323-6.017-16.935-20.171
		c-3.558-3.7-6.629-6.893-7.777-8.304c-1.198-1.476-2.923-3.382-4.751-5.402c-2.525-2.792-6.71-7.418-7.271-8.782
		c0.191-1.315,2.326-6.171,4.215-10.472c1.084-2.466,2.254-5.128,3.37-7.79c1.325-3.161,3.379-8.512,5.552-14.174
		c2.089-5.444,4.682-12.2,6.495-16.585c-0.764-0.353-1.575-0.697-2.445-1.028l-0.336-0.131c-0.174-0.068-0.331-0.164-0.477-0.273
		c-1.507,3.611-3.626,9.082-6.565,16.74c-2.162,5.637-4.205,10.962-5.51,14.072c-1.108,2.645-2.271,5.286-3.346,7.734
		c-3.059,6.961-4.529,10.382-4.529,12.018c0,1.729,1.849,4.033,8.205,11.061c1.794,1.982,3.487,3.855,4.626,5.256
		c1.241,1.53,4.361,4.772,7.973,8.529c5.272,5.48,15.021,15.617,15.937,17.857c-0.023,0.486-0.137,1.481-0.257,2.525
		c-1.108,9.66-1.787,20.088,4.223,21.545c0.06,0.017,0.119,0.024,0.181,0.033c0.08,0.012,0.254,0.023,0.335,0.023
		c3.344,0,10.332-9.1,10.913-11.422c0.437-1.752,0.392-9.097,0.392-9.097s-0.746-0.225-0.765-1.028
		c0.268-0.596,2.453-2.9,2.812-3.444c1.343-2.032,2.71-3.497,2.71-3.497s-2.379-4.271-4.89-6.334
		c-1.441-0.545-2.753-1.083-3.907-1.593c-0.262-0.027-0.516-0.05-0.748-0.069c-1.345-0.105-2.012-0.159-3.402-2.079
		c-0.545-0.362-0.903-0.673-1.022-0.915c-0.144-0.287-0.209-0.57-0.213-0.912c-1.546-2.269-4.77-6.709-8.164-11.382
		c-4.462-6.145-10.435-14.365-11.855-16.724c1.813-3.83,11.057-22.648,15.854-32.394c-0.178,0.058-0.38,0.103-0.617,0.103
		c-1.251,0-1.745-0.926-2.369-2.098c-5.19,10.535-16.248,33.021-16.519,33.83c-0.423,1.269-0.458,1.371,12.622,19.375
		c3.804,5.234,7.396,10.18,8.568,11.994c2.685,4.147,4.375,4.562,6.842,4.756c0.477,0.034,0.968,0.073,1.518,0.172
		c1.238,0.226,3.527,3.059,5.02,5.694c-0.094,0.251-0.305,0.7-0.768,1.399c-0.404,0.613-0.737,0.615-0.881,0.615
		c-0.001,0-0.001,0-0.002,0c-0.314,0-0.634-0.148-0.705-0.19c-0.555-0.354-1.264-0.374-1.839-0.052
		c-0.575,0.324-0.923,0.941-0.904,1.603c0.104,3.644,0.136,9.96-0.224,11.398c-0.189,0.72-1.364,2.394-2.763,4.088L63.431,252.582z
		 M157.077,158.211c-0.24,0-0.481-0.078-0.687-0.24c-0.472-0.378-0.549-1.068-0.168-1.542c0.537-0.673,1.907-4.43,1.642-5.898
		c-0.11-0.595,0.284-1.166,0.881-1.274c0.608-0.104,1.167,0.286,1.274,0.883c0.418,2.291-1.287,6.663-2.088,7.662
		C157.717,158.07,157.396,158.211,157.077,158.211z M163.037,142.902c-0.188,0.413-0.006,0.9,0.408,1.089
		c0.109,0.051,0.226,0.073,0.342,0.073c0.311,0,0.611-0.179,0.75-0.481c0.385-0.841,4.355-5.876,6.429-8.054
		c0.079-0.082,0.138-0.176,0.173-0.275l-0.006,0.015c0.135,0.022,0.273,0.051,0.413,0.085c0.47,0.396,0.824,0.959,1.088,1.634
		l-0.002,0.007c-4.038,3.758-8.496,9.151-8.541,9.206c-0.288,0.351-0.239,0.869,0.111,1.158c0.157,0.126,0.343,0.188,0.526,0.188
		c0.237,0,0.474-0.102,0.635-0.3c0.041-0.049,3.965-4.798,7.738-8.427c0.121,0.816,0.166,1.701,0.154,2.603v-0.004
		c-0.127,0.035-0.249,0.102-0.349,0.199c-2.823,2.729-7.218,8.122-7.403,8.352c-0.286,0.353-0.234,0.869,0.117,1.156
		c0.154,0.124,0.338,0.185,0.521,0.185c0.238,0,0.478-0.104,0.639-0.304c0.039-0.05,3.591-4.41,6.314-7.243
		c-0.289,2.471-0.91,4.73-1.488,5.694c-0.785,1.31-4.92,4.773-8.248,7.557c-2.938,2.461-5.975,5.005-7.731,6.837
		c-0.078,0.081-0.149,0.17-0.209,0.266c-0.726,1.121-2.13,3.941-4.261,8.212c-4.02,8.064-14.68,29.446-21.606,37.318
		c0.403,1.324,0.804,2.571,1.185,3.724c6.031-5.691,13.785-19.737,23.613-39.452c1.84-3.692,3.312-6.643,3.975-7.728
		c1.646-1.687,4.531-4.104,7.326-6.443c4.927-4.126,7.992-6.754,9.015-8.454c1.981-3.302,4.161-15.277-1.31-19.039
		c-0.16-0.111-0.34-0.194-0.525-0.247c-0.923-0.261-1.84-0.393-2.721-0.393c-5.375,0-8.728,4.604-11.9,9.243
		c-0.159-1.29-0.535-2.542-1.288-3.523c-0.764-1.005-2.291-2.229-5.103-1.878c-0.59,0.073-1.104,0.436-1.369,0.968
		c-0.822,1.633-1.07,3.778-1.303,5.854c-0.178,1.543-0.358,3.139-0.754,3.928c-2.01,4.096-1.354,9.034-0.994,10.921
		c-6.342,10.136-13.615,20.941-16.183,23.612c-0.164-0.516-0.255-1.529-0.366-3.348l-0.076-1.233
		c-0.068-1.052-0.116-4.345-0.178-8.514c-0.043-2.945-0.089-5.891-0.143-8.765c-0.475,2.064-1.12,4.229-1.824,6.535
		c-0.52,1.705-1.052,3.486-1.552,5.333c0.044,2.794,0.082,4.79,0.142,5.647l0.075,1.211c0.211,3.509,0.38,6.281,3.41,7.04
		c0.142,0.035,0.343,0.062,0.487,0.062c1.041,0,3.203,0,19.609-26.308c0.258-0.413,0.338-0.914,0.215-1.387
		c-0.383-1.473-1.017-6.004,0.569-9.227c0.667-1.341,0.88-3.17,1.101-5.105c0.142-1.247,0.297-2.617,0.588-3.678
		c0.447,0.091,0.668,0.302,0.812,0.492c1.029,1.344,0.671,4.983,0.087,7.141c-0.218,0.811,0.159,1.664,0.9,2.048
		c0.747,0.389,1.659,0.2,2.192-0.445c1.239-1.501,2.389-3.183,3.495-4.808c2.587-3.792,5.05-7.396,8.185-8.121
		C166.881,137.636,163.527,141.824,163.037,142.902z M114.868,122.522c3.389,5.515-7.353,20.106-10.724,24.446
		c-0.348,0.445-0.871,0.688-1.41,0.688c-0.23,0-0.469-0.046-0.692-0.14c-7.647-3.238-32.679-14.312-33.698-20.873
		c-0.186-1.196,0.234-2.305,1.185-3.118c3.22-2.76,5.417-8.73,5.94-14.354c1.093,0.743,2.201,1.404,3.319,1.982
		c-0.857,5.987-3.331,11.958-6.907,15.048c0.586,2.728,14.177,10.568,30.283,17.491c5.451-7.237,10.27-15.779,9.859-18.724
		c-6.683-1.824-10.254-7.675-11.451-14.528c1.117-0.648,2.222-1.38,3.306-2.189c0.674,5.964,3.238,12.1,9.834,13.456
		C114.191,121.81,114.609,122.104,114.868,122.522z M121.188,73.855c0-2.028-0.25-14.767-0.901-17.644
		c-3.144-13.772-14.534-21.67-31.256-21.67c-16.746,0-28.144,7.921-31.271,21.73c-0.646,2.854-0.892,15.558-0.892,17.583
		c0,21.573,17.685,40.056,32.162,40.056C103.504,113.911,121.188,95.429,121.188,73.855z M116.809,57.003
		c0.494,2.174,0.815,13.44,0.815,16.853c0,19.652-15.724,36.492-28.595,36.492c-12.606,0-28.598-17.181-28.598-36.492
		c0-3.404,0.315-14.64,0.804-16.796c3.733-16.493,19.016-18.954,27.794-18.954C97.794,38.105,113.059,40.561,116.809,57.003z"/>
	<path id="Shirt_1_" fill="#FC6F68" d="M69.665,119.073c-2.15,2.15-2.627,4.061-9.078,5.733c-6.451,1.674-11.469,1.434-15.292,6.451
		c-3.82,5.018-7.883,10.273-6.688,10.752c1.194,0.478,9.467,3.276,13.527,9.965c4.062,6.691,3.197,6.521,4.152,6.043
		s3.105-3.345,3.105-3.345s8.841,16.723,8.363,35.12c-0.479,18.396-5.806,29.767-5.328,30.722
		c0.479,0.955,24.919,11.807,42.838,10.133c17.92-1.674,26.521-9.08,26.521-9.08s-8.146-20.126-8.579-35.468
		c-0.433-15.342,7.244-26.208,6.052-34.571c-1.195-8.361-5.833-13.829-5.833-13.829s4.778-4.53,4.778-5.485
		s-3.346-12.662-13.378-12.424c-3.72,0.407-10.632,18.558-10.632,18.558L69.665,119.073z"/>
	<path id="ShirtBorder_1_" fill="#DB4640" d="M101.342,232.604c-16.709,0-39.348-8.972-40.509-11.293
		c-0.449-0.896-0.201-1.732,0.621-4.502c1.357-4.565,4.182-14.07,4.52-27.062c0.356-13.68-4.644-26.541-6.984-31.774
		c-0.659,0.719-1.343,1.356-1.906,1.638l-0.106,0.057c-0.211,0.116-0.604,0.332-1.139,0.332c-1.251,0-1.745-0.927-2.371-2.099
		c-0.484-0.91-1.297-2.433-2.856-5.003c-1.59-2.619-5.02-6.326-12.329-9.105l-0.336-0.131c-0.615-0.246-1.071-0.756-1.249-1.399
		c-0.477-1.723,0.933-3.883,6.78-11.558l0.402-0.527c3.358-4.409,7.638-5.273,12.167-6.188c1.313-0.266,2.673-0.539,4.096-0.909
		c4.681-1.213,5.737-2.43,7.076-3.968c0.368-0.424,0.747-0.857,1.189-1.302c0.562-0.563,1.433-0.685,2.129-0.296l32.736,18.276
		c2.854-7.207,7.535-17.357,11.355-17.775c0.051-0.006,0.102-0.009,0.152-0.01l0.344-0.004c10.761,0,14.859,12.101,14.859,14.208
		c0,0.595,0,1.559-4.194,5.68c1.521,2.207,4.315,6.983,5.229,13.383c0.609,4.25-0.785,8.832-2.397,14.137
		c-1.806,5.936-3.856,12.663-3.632,20.638c0.417,14.834,8.369,34.653,8.451,34.85c0.283,0.711,0.086,1.523-0.491,2.021
		c-0.368,0.314-9.24,7.795-27.517,9.501C104.132,232.544,102.756,232.604,101.342,232.604z M64.345,219.639
		c3.935,2.036,21.923,9.401,36.997,9.401c1.305,0,2.568-0.058,3.758-0.167c13.808-1.289,21.871-6.062,24.533-7.915
		c-1.812-4.729-7.828-21.382-8.207-34.811c-0.242-8.555,1.897-15.578,3.782-21.775c1.49-4.897,2.778-9.128,2.283-12.594
		c-1.109-7.763-5.388-12.878-5.431-12.929c-0.61-0.722-0.553-1.796,0.135-2.447c1.63-1.544,3.531-3.531,4.146-4.4
		c-0.503-1.793-3.374-10.437-11.219-10.437l-0.128,0.001c-1.576,0.659-5.782,8.612-9.139,17.412
		c-0.186,0.483-0.57,0.863-1.057,1.041s-1.025,0.134-1.479-0.118l-33.297-18.587c-0.04,0.046-0.081,0.091-0.119,0.138
		c-1.535,1.764-3.122,3.589-8.872,5.078c-1.516,0.395-2.925,0.678-4.283,0.953c-4.351,0.878-7.493,1.513-10.037,4.854l-0.402,0.529
		c-1.939,2.542-4.696,6.161-5.738,8c7.562,3.101,11.284,7.218,13.084,10.184c1.314,2.164,2.117,3.611,2.64,4.584
		c0.497-0.548,1.12-1.299,1.67-2.032c0.367-0.487,0.957-0.758,1.566-0.706c0.608,0.048,1.149,0.403,1.436,0.943
		c0.369,0.699,9.053,17.35,8.569,35.999c-0.35,13.465-3.266,23.271-4.666,27.988C64.678,218.477,64.479,219.141,64.345,219.639z"/>
	<path id="Hair_3_" fill="#54311E" d="M117.234,88.53c-3.215,7.225-7.916,14.142-13.459,18.265v0.607
		c0.447,6.786,2.203,9.34,4.526,11.656c0.025-0.015,0.044-0.035,0.07-0.051c0.466-0.264,2.681,1.811,3.183,2.009
		c3.678,1.455,4.58,0.399,6.37,1.175l-0.229-0.013c0.029,3.74,0.267,7.058,1.701,12.385c3.289,11.24-3.838,12.61-4.111,20.013
		c4.66-6.854,14.211-1.699,15.221-10.814c1.01-9.115,4.742-10.592,5.217-14.229c0.479-3.638-3.871-6.56-4.029-9.248
		c-0.158-2.689,3.951-5.612,3.793-11.146c-0.156-5.535-0.602-8.128-1.865-11.606c-1.264-3.478,1.107-10.595,1.738-15.971
		c0.632-5.377-5.219-14.392-7.273-17.869c-2.057-3.479,1.182-9.449-0.738-14.384c-1.918-4.935-6.535-7.914-6.535-7.914
		s-2.057-5.376-8.855-11.069c-6.798-5.693-17.552-2.531-17.552-2.531s-7.433-5.693-24.353,0.317
		c-16.921,6.01-18.819,27.675-18.819,32.893c0,5.219-6.113,8.243-6.488,18.697c-0.375,10.455,2.843,13.734,4.107,20.534
		c1.266,6.8-2.411,10.418-3.359,16.427c-0.949,6.011,7.625,15.031,7.468,18.669c-0.158,3.637-1.854,10.796-0.747,12.694
		c1.107,1.897,0.76,5.33,3.924,8.019c3.163,2.688,5.376,11.386,5.691,9.805c0.316-1.582,2.214-9.805,1.897-12.495
		c-0.317-2.689,1.581-9.172,1.423-12.493c-0.158-3.321-2.847-6.482-3.004-9.962c-0.158-3.479,3.004-4.744,3.162-9.489
		c0.06-1.792,0.301-1.001,0.301-1.001c1.658-0.346,2.062-2.314,3.565-2.408l0.799-0.053c0.944-0.062,1.471,0.152,1.898,0.492
		c0.909,0.754,1.232,0.017,1.289-0.056c2.176-2.841,2.538-10.495,2.538-10.495s-5.512-4.828-5.995-5.304
		c-0.657-0.646-5.078-5.698-5.078-5.698l-0.058-0.195c-1.104-3.147-3.489-5.882-3.845-9.44c-0.475-4.743,1.299-3.553,1.931-8.613
		c0.634-5.061-1.158-7.461-0.822-13.158c0.336-5.698,7.537-7.757,8.877-11.106c0,0,4.282,2.06,8.12,2.06s3.289-6.031,9.595-6.031
		c6.305,0,6.854,3.29,10.143,5.758c3.291,2.467,3.563-0.549,8.772,1.097c9.868,0.822,9.321,15.625,8.772,23.85
		c-0.207,3.085,0.127,5.28,0.757,7.039L117.234,88.53z"/>
	<path id="HairBorder_4_" fill="#3A1D10" d="M61.711,167.819c-1.391,0-1.804-0.992-2.802-3.387c-0.892-2.139-2.384-5.72-3.928-7.032
		c-2.538-2.158-3.203-4.729-3.688-6.605c-0.193-0.748-0.375-1.454-0.62-1.873c-0.977-1.672-0.648-4.635,0.006-9.314
		c0.231-1.655,0.451-3.219,0.5-4.355c0.043-0.987-1.528-3.639-2.79-5.771c-2.488-4.2-5.31-8.962-4.656-13.098
		c0.381-2.419,1.148-4.42,1.89-6.354c1.171-3.055,2.182-5.69,1.479-9.469c-0.41-2.201-1.035-4.012-1.698-5.929
		c-1.325-3.832-2.695-7.793-2.438-14.994c0.232-6.509,2.527-10.33,4.37-13.401c1.183-1.971,2.116-3.526,2.116-5.233
		c0-1.121,0.229-27.547,20.005-34.57c5.341-1.896,10.326-2.857,14.819-2.857c5.567,0,8.985,1.497,10.424,2.307
		c1.196-0.278,3.622-0.743,6.499-0.743c4.867,0,8.876,1.286,11.9,3.821c5.906,4.944,8.424,9.691,9.146,11.263
		c1.311,0.953,5.012,3.938,6.764,8.441c1.124,2.896,0.754,5.943,0.424,8.632c-0.271,2.2-0.526,4.279,0.188,5.49
		c0.192,0.329,0.424,0.708,0.677,1.13c2.613,4.329,7.473,12.387,6.83,17.854c-0.21,1.812-0.615,3.805-1.001,5.729
		c-0.708,3.535-1.519,7.543-0.834,9.426c1.351,3.722,1.812,6.564,1.974,12.164c0.109,3.735-1.474,6.454-2.627,8.438
		c-0.617,1.064-1.205,2.07-1.168,2.653c0.037,0.651,0.778,1.703,1.491,2.721c1.287,1.828,2.888,4.104,2.527,6.863
		c-0.23,1.768-1.033,3.081-1.89,4.473c-1.222,1.999-2.746,4.487-3.324,9.722c-0.7,6.311-5.092,7.256-8.621,8.018
		c-2.678,0.579-5.211,1.123-6.896,3.603c-0.446,0.658-1.276,0.938-2.03,0.69c-0.756-0.247-1.258-0.965-1.227-1.758
		c0.124-3.34,1.479-5.654,2.674-7.696c1.771-3.025,3.301-5.639,1.51-11.749c-1.805-6.706-1.789-10.312-1.771-15.305l0.004-1.609
		c0-2.557,1.001-6.093,2.058-9.838c1.223-4.318,2.895-10.231,1.811-12.034c-0.507-0.848-1.053-1.594-1.63-2.384
		c-2.113-2.886-4.296-5.87-3.826-12.906c0.66-9.891,0.442-21.323-7.144-21.956c-0.131-0.012-0.263-0.036-0.388-0.076
		c-0.934-0.294-1.731-0.437-2.454-0.437c-0.619,0-1.107,0.104-1.623,0.215c-0.518,0.111-1.053,0.226-1.67,0.226
		c-1.193,0-2.291-0.424-3.555-1.374c-1.066-0.797-1.866-1.66-2.578-2.423c-1.665-1.792-2.765-2.976-6.499-2.976
		c-2.632,0-3.54,1.251-4.687,2.834c-1.032,1.424-2.315,3.196-4.908,3.196c-2.784,0-5.706-0.943-7.41-1.606
		c-0.833,1.029-1.972,1.916-3.157,2.837c-2.209,1.719-4.495,3.496-4.65,6.141c-0.15,2.55,0.163,4.414,0.467,6.217
		c0.346,2.057,0.704,4.182,0.345,7.058c-0.324,2.592-0.959,3.833-1.423,4.738c-0.458,0.898-0.711,1.393-0.503,3.476
		c0.187,1.863,1.078,3.543,2.022,5.321c1.221,2.3,2.482,4.679,2.384,7.686c-0.09,2.688-1.137,4.32-2.06,5.763
		c-0.942,1.472-1.688,2.634-1.551,5.026c0.131,2.276,0.891,3.36,1.771,4.615c0.995,1.421,2.125,3.029,2.026,5.983
		c-0.098,2.932-1.181,4.768-2.052,6.242c-0.744,1.259-1.161,2.025-1.111,3.105c0.064,1.436,0.705,2.913,1.384,4.478
		c0.75,1.729,1.525,3.518,1.619,5.481c0.089,1.832-0.352,4.34-0.775,6.766c-0.368,2.108-0.787,4.498-0.656,5.604
		c0.271,2.307-0.717,7.411-1.721,12.099c-0.089,0.415-0.158,0.743-0.199,0.951c-0.225,1.12-1.097,1.622-1.862,1.623
		C61.712,167.819,61.712,167.819,61.711,167.819z M72.544,53.224c1.408,0.558,3.977,1.43,6.281,1.43
		c0.677,0,1.039-0.367,2.022-1.725c1.244-1.712,3.122-4.307,7.573-4.307c5.288,0,7.318,2.187,9.109,4.114
		c0.664,0.716,1.297,1.393,2.103,1.999c0.882,0.661,1.271,0.68,1.42,0.66c0.244,0,0.544-0.064,0.927-0.146
		c0.611-0.13,1.373-0.293,2.367-0.293c1.036,0,2.131,0.179,3.338,0.544c11.84,1.188,10.653,18.997,10.205,25.725
		c-0.385,5.742,1.172,7.871,3.146,10.565c0.601,0.82,1.218,1.668,1.811,2.655c1.875,3.122,0.266,8.812-1.438,14.837
		c-0.945,3.346-1.924,6.806-1.924,8.868l-0.004,1.621c-0.021,4.889-0.031,8.121,1.638,14.327c2.211,7.548,0.045,11.248-1.864,14.512
		c-0.217,0.372-0.43,0.734-0.63,1.095c1.458-0.607,2.944-0.929,4.282-1.217c3.754-0.811,5.43-1.319,5.83-4.926
		c0.664-6.025,2.492-9.011,3.826-11.19c0.73-1.195,1.256-2.059,1.394-3.072c0.18-1.384-0.883-2.894-1.906-4.354
		c-1.002-1.425-2.036-2.897-2.136-4.561c-0.098-1.656,0.751-3.113,1.646-4.654c1.041-1.792,2.224-3.824,2.146-6.546
		c-0.147-5.223-0.544-7.701-1.759-11.049c-1.027-2.823-0.192-6.963,0.689-11.347c0.374-1.855,0.758-3.773,0.954-5.442
		c0.499-4.255-4.123-11.915-6.343-15.597c-0.262-0.432-0.494-0.821-0.697-1.158c-1.332-2.254-0.986-5.041-0.658-7.738
		c0.295-2.383,0.596-4.847-0.207-6.905c-1.674-4.311-5.802-7.037-5.844-7.064c-0.312-0.205-0.562-0.506-0.693-0.858
		c-0.021-0.044-2.029-5.058-8.336-10.339c-2.371-1.985-5.604-2.991-9.617-2.991c-3.488,0-6.266,0.796-6.292,0.804
		c-0.543,0.159-1.134,0.049-1.584-0.297c-0.013-0.01-2.9-2.071-9.045-2.071c-4.087,0-8.672,0.892-13.627,2.652
		C53.216,35.979,51.74,65.818,50.39,68.067c-1.717,2.861-3.663,6.105-3.864,11.694c-0.232,6.537,0.97,10.02,2.245,13.704
		c0.677,1.956,1.377,3.978,1.835,6.44c0.887,4.767-0.405,8.137-1.654,11.396c-0.707,1.845-1.375,3.587-1.698,5.636
		c-0.453,2.868,2.128,7.225,4.203,10.726c1.885,3.182,3.374,5.694,3.285,7.742c-0.058,1.307-0.287,2.951-0.531,4.693
		c-0.302,2.151-0.861,6.157-0.449,7.04c0.484,0.831,0.729,1.77,0.983,2.764c0.428,1.649,0.868,3.355,2.545,4.782
		c1.553,1.318,2.823,3.661,3.815,5.837c0.508-2.66,1-5.702,0.853-6.959c-0.191-1.623,0.234-4.059,0.685-6.635
		c0.392-2.233,0.796-4.544,0.727-5.981c-0.062-1.313-0.677-2.731-1.329-4.233c-0.775-1.791-1.579-3.643-1.675-5.733
		c-0.099-2.192,0.805-3.725,1.603-5.078c0.769-1.299,1.492-2.527,1.56-4.551c0.06-1.764-0.514-2.58-1.381-3.817
		c-0.991-1.412-2.225-3.169-2.413-6.458c-0.202-3.546,1.078-5.546,2.107-7.152c0.806-1.256,1.442-2.25,1.499-3.959
		c0.069-2.056-0.875-3.836-1.969-5.896c-1.064-2.004-2.165-4.076-2.42-6.637c-0.292-2.909,0.158-4.048,0.876-5.453
		c0.398-0.781,0.812-1.589,1.06-3.56c0.295-2.357,0.009-4.057-0.323-6.023c-0.319-1.906-0.684-4.065-0.51-7.018
		c0.25-4.256,3.45-6.744,6.021-8.744c1.17-0.91,2.376-1.848,2.855-2.666h-0.005c0.085-3.209,2.002-9.577,2.892-11.06
		c0.506-0.845,1.602-1.116,2.444-0.612c0.845,0.507,1.117,1.602,0.612,2.444c-0.587,0.978-2.014,5.78-2.326,8.483L72.544,53.224z"/>
	<path id="Hat" fill="#FFC34A" d="M133.672,69.822c-1.172-2.259-2.422-4.331-3.373-5.906c-0.252-0.422-0.48-0.801-0.676-1.13
		c-0.716-1.211-0.462-3.29-0.189-5.49c0.14-1.153,0.282-2.373,0.319-3.618c-0.204,0.214-0.438,0.449-0.696,0.694l0.62-2.636
		c10.238-3.439,34.61-19.495,38.593,0.572C171.182,66.995,146.906,69.523,133.672,69.822z M90.184,64.373
		c-24.788,0-36.463-8.784-39.94-12.04h0.072l-0.299,2.183c0,0-0.565,6.156-0.565,6.487c0,1.707-0.934,3.263-2.116,5.233
		c-0.733,1.222-1.537,2.567-2.256,4.151c-13.568-0.742-35.04-4.083-32.291-17.934c3.855-19.432,25.818-5.369,36.504-1.318h-0.207
		c-0.095-2.771,2.772-12.168,3.074-22.861c2.733-10.523,10.534-15.453,18.212-15.504c6.894,0,11.173,8.002,19.364,7.744
		c8.192-0.259,10.112-8.386,20.608-7.87c10.495,0.516,13.053,7.675,15.485,17.159c2.088,8.137,3.755,18.705,3.752,21.333
		C129.581,51.136,120.611,64.373,90.184,64.373z"/>
	<path id="HatBorder" fill="#D6963A" d="M53.718,52.911c5.043,3.744,16.236,9.687,36.466,9.687c20.2,0,30.639-6.014,35.132-9.687
		H53.718z M51.031,49.36h76.65c-0.423-4.032-1.887-12.543-3.572-19.117c-2.379-9.267-4.627-15.375-13.854-15.827
		c-5.102-0.25-7.861,1.737-10.796,3.849c-2.653,1.912-5.399,3.888-9.671,4.021c-4.847,0.168-8.509-2.268-11.693-4.396
		c-2.688-1.796-5.006-3.348-7.726-3.348c-6.161,0.041-13.704,3.741-16.445,13.985c-0.211,6.754-1.39,12.857-2.252,17.326
		C51.42,47.177,51.185,48.396,51.031,49.36z M167.659,61.938c-6.158,7.499-22.042,9.326-33.117,9.64
		c-0.646-1.356-1.347-2.67-2.031-3.892c0.071,0.129,0.144,0.252,0.216,0.381c9.101-0.147,26.438-1.378,32.188-8.381
		c1.63-1.986,2.158-4.284,1.613-7.03c-1.146-5.784-4.107-8.479-9.313-8.479c-5.954,0-13.606,3.449-19.757,6.222
		c-2.371,1.067-4.466,2.014-6.275,2.688l-1.964,8.365c-0.147-1.161,0.025-2.625,0.212-4.154c0.141-1.152,0.284-2.372,0.321-3.618
		c-0.755,0.795-1.874,1.832-3.403,2.967c-0.146,0.109-0.293,0.22-0.449,0.33c-0.192,0.139-0.396,0.278-0.604,0.419
		c-0.138,0.095-0.279,0.189-0.423,0.285c-0.228,0.15-0.46,0.302-0.702,0.453c-0.122,0.079-0.253,0.156-0.382,0.234
		c-0.894,0.548-1.884,1.102-2.974,1.647c-0.129,0.064-0.254,0.128-0.387,0.192c-0.342,0.167-0.695,0.334-1.059,0.499
		c-0.146,0.068-0.296,0.135-0.45,0.202c-0.378,0.169-0.763,0.337-1.165,0.502c-0.074,0.03-0.154,0.062-0.23,0.092
		c-0.858,0.349-1.768,0.688-2.725,1.017c-0.115,0.04-0.229,0.081-0.345,0.121c-0.427,0.143-0.869,0.279-1.315,0.417
		c-5.841,1.796-13.356,3.091-22.958,3.091c-17.871,0-29.172-4.522-35.547-8.366l0.016,0.04c-2.002-1.211-3.53-2.365-4.637-3.306
		c-0.05,0.328-0.091,0.639-0.132,0.949c0-0.001,0-0.003,0-0.004l-0.663-1.654c-0.381-0.349-0.687-0.65-0.923-0.896h-0.93
		l-0.014-0.398c-1.517-0.628-3.192-1.397-4.944-2.198c-5.871-2.691-13.177-6.039-18.823-6.039c-5.026,0-7.905,2.708-9.06,8.523
		c-0.55,2.77-0.006,5.104,1.661,7.134c5.294,6.447,20.262,8.24,29.751,8.715c0.172-0.316,0.344-0.616,0.516-0.915
		c-0.732,1.278-1.473,2.702-2.084,4.392c-10.531-0.633-25.092-2.832-30.926-9.938c-2.352-2.863-3.158-6.254-2.399-10.077
		c1.478-7.446,5.813-11.383,12.541-11.383c6.42,0,14.118,3.528,20.303,6.361c1.271,0.583,2.502,1.147,3.647,1.646
		c0.155-0.976,0.381-2.146,0.652-3.549c0.848-4.395,2.01-10.412,2.193-16.959l0.057-0.396c2.639-10.163,10.459-16.77,19.92-16.834
		c3.808,0,6.809,2.007,9.71,3.946c2.926,1.956,5.689,3.805,9.277,3.805l0.332-0.005c3.188-0.101,5.283-1.608,7.708-3.354
		c3.131-2.252,6.693-4.822,13.042-4.515c11.587,0.569,14.608,8.71,17.118,18.49c1.712,6.675,3.262,15.505,3.688,19.889
		c1.41-0.578,3.01-1.299,4.763-2.088c6.459-2.911,14.498-6.535,21.214-6.535c6.9,0,11.325,3.921,12.797,11.338
		C170.764,55.764,169.973,59.119,167.659,61.938z"/>
</g>
</svg>
