<?xml version="1.0" encoding="utf-8"?>
<!-- Generator: Adobe Illustrator 15.0.0, SVG Export Plug-In . SVG Version: 6.00 Build 0)  -->
<!DOCTYPE svg PUBLIC "-//W3C//DTD SVG 1.1//EN" "http://www.w3.org/Graphics/SVG/1.1/DTD/svg11.dtd">
<svg version="1.1" id="Layer_1" xmlns="http://www.w3.org/2000/svg" xmlns:xlink="http://www.w3.org/1999/xlink" x="0px" y="0px"
	 width="356px" height="393px" viewBox="0 0 356 393" enable-background="new 0 0 356 393" xml:space="preserve">
<g id="SailBoat.svg">
	<path id="Boat1" fill="#C1C1C1" d="M80.204,344.697c-7.2,0-14.866-0.117-22.788-0.349l-0.083-1.993
		c25.222-2.867,66.933-7.759,122.416-14.787c66.495-8.425,120.463-21.627,146.715-28.748l0.679,1.873
		C291.557,317.036,199.503,344.695,80.204,344.697z"/>
	<path id="Boat" fill="#00A1E8" d="M314.156,379.73l-0.605-0.003l-298.73-0.627l0.6-1.395c3.024-7.021,10.551-24.175,15.121-31.795
		l0.313-0.521l0.607,0.037c16.166,1.006,32.566,1.519,48.744,1.519c77.938-0.002,140.446-11.644,179.16-21.408
		c42.36-10.688,70.245-22.529,81.25-29.426l1.644-1.028l-0.115,1.937c-1.861,31.566-23.403,73.991-27.703,82.177L314.156,379.73z"/>
	<path id="Boat3" fill="#006688" d="M20.973,360.053c-4.204,10.241-7.851,20.17-7.851,20.17l301.707,0.636
		c0,0,8.278-16.375,15.922-37.039c-75.731,24.978-99.771,30.705-180.346,32.58C84.68,377.926,40.005,365.156,20.973,360.053z"/>
	<path id="BoatBorder" fill="#006688" d="M30.398,342.105c-0.77-0.058-1.506,0.32-1.923,0.973
		c-5.747,8.938-16.842,35.205-17.311,36.318c-0.276,0.653-0.207,1.403,0.186,1.997c0.393,0.595,1.056,0.949,1.768,0.953
		l301.707,0.636c0.001,0,0.003,0,0.004,0c0.778,0,1.495-0.427,1.867-1.109c1.177-2.163,28.825-53.387,28.825-89.066
		c0-0.814-0.47-1.562-1.205-1.916c-0.736-0.354-1.61-0.255-2.248,0.256c0.211-0.168,0.451-0.271,0.697-0.352l-0.009-0.018
		c-0.684,0.217-69.493,21.67-163.418,33.564c-94.109,11.923-148.76,17.714-149.301,17.771l-0.001,0.017
		C30.157,342.117,30.276,342.098,30.398,342.105z M341.145,296.961c-1.858,31.521-23.693,74.354-27.592,81.771l-297.214-0.625
		c2.971-6.896,10.509-24.089,15.06-31.677c16.189,1.008,32.602,1.521,48.806,1.521c78.039-0.001,140.635-11.659,179.404-21.439
		C300.129,316.286,328.912,304.625,341.145,296.961z M80.204,343.697c-7.555,0-15.156-0.111-22.758-0.334v-0.015
		c25.058-2.85,66.86-7.75,122.428-14.789c66.556-8.433,120.571-21.646,146.851-28.774l0.002,0.002
		C288.938,317.141,196.042,343.695,80.204,343.697z"/>
	<path id="Mast" fill="#56534A" d="M190.766,19.644c0.428,0.07,0.805,0.271,1.104,0.551l-0.325-9.219h-12.938
		c-1.38,0-2.5,1.119-2.5,2.5c0,1.381,1.119,2.5,2.5,2.5h8.109l0.309,8.729l1.41-3.719C188.792,20.042,189.768,19.476,190.766,19.644
		z M196.749,300.802c0,0,4.637-0.135,4.989-0.38l1.176,33.351c-1.648,0.271-3.305,0.534-4.975,0.797l-1.088-30.893H84.381
		c-1.104,0-2-0.896-2-2c0-0.829,0.505-1.54,1.225-1.844c0.01,0.017,0.015,0.035,0.026,0.051c0.397,0.575,1.051,0.918,1.749,0.918
		H196.749z"/>
	<path id="Sails" fill="#FFFCEE" d="M193.016,309.732c-2.062,0-4.121-0.03-6.123-0.093l-1.322-0.039l0.4-1.264
		c1.053-3.328,2.146-6.868,3.326-10.788H87.011L189.5,27.342l3.994,109.432h-31.931c-0.276,0-0.5,0.225-0.5,0.5s0.224,0.5,0.5,0.5
		h31.968l2.025,55.5h-52.604c-0.276,0-0.5,0.225-0.5,0.5s0.224,0.5,0.5,0.5h52.637l1.948,53.392l5.216-0.561
		c12.534-54.282,15.829-96.796,16.385-122.945c0.616-29.141-1.705-49.045-3.146-58.315l-0.562-3.608l2.32,2.819
		c86.246,104.792,117.357,194.189,122.718,211.047l0.283,0.89l-0.869,0.343C326.178,282.744,254.68,309.732,193.016,309.732z"/>
	<path id="SailsBorder" fill="#C6C0A7" d="M184.912,300.802h-99.53c-0.698,0-1.352-0.343-1.749-0.918
		c-0.396-0.573-0.485-1.308-0.238-1.961L187.988,22.161l-0.006,0.005c-0.185-0.617,0.047-1.305,0.609-1.678
		c0.062-0.04,0.124-0.075,0.188-0.105l0.003,0.006c0.471-0.57,1.218-0.873,1.979-0.745c0.998,0.164,1.742,1.009,1.779,2.02
		l0.081,2.207v0.001l21.208,32.117v0.002c0.459,0.093,0.887,0.336,1.205,0.716c98.815,117.698,128.838,219.342,129.129,220.354
		c0.299,1.041-0.229,2.142-1.231,2.555c-0.808,0.334-81.582,33.368-149.921,33.368c-3.075,0-6.122-0.065-9.061-0.197
		c-0.661-0.03-1.271-0.366-1.648-0.909c-0.377-0.543-0.479-1.229-0.278-1.86L184.912,300.802z M200.633,241.768
		c11.213-50.023,14.655-89.909,15.252-117.454c0.918-42.375-4.486-65.518-4.541-65.746c-0.074-0.31-0.068-0.62-0.009-0.916v-0.001
		l-18.501-28.02l0.002,0.003l7.75,212.351 M190.643,296.552c-1.197,3.988-2.428,8.011-3.719,12.091c2,0.062,4.04,0.091,6.092,0.091
		c61.862,0,134.254-27.491,146.502-32.326c-4.43-13.931-35.584-105.063-122.537-210.714c1.584,10.196,3.768,29.872,3.158,58.49
		c-0.701,33.082-5.453,83.785-22.688,148.381C195.369,280.357,193.1,288.359,190.643,296.552z M186.206,296.552
		c4.081-13.524,7.626-26.517,10.696-38.94v-0.036l-0.213-5.8h-71.947c-0.829,0-1.5-0.672-1.5-1.5c0-0.826,0.671-1.5,1.5-1.5h71.839
		l-1.953-53.5h-51.673c-0.829,0-1.5-0.672-1.5-1.5c0-0.828,0.671-1.5,1.5-1.5h51.562l-1.953-53.5h-31c-0.829,0-1.5-0.672-1.5-1.5
		c0-0.828,0.671-1.5,1.5-1.5h30.894L188.682,32.32L88.46,296.552h97.74"/>
</g>
</svg>
