<?xml version="1.0" encoding="utf-8"?>
<!-- Generator: Adobe Illustrator 15.0.0, SVG Export Plug-In . SVG Version: 6.00 Build 0)  -->
<!DOCTYPE svg PUBLIC "-//W3C//DTD SVG 1.1//EN" "http://www.w3.org/Graphics/SVG/1.1/DTD/svg11.dtd">
<svg version="1.1" id="Layer_1" xmlns="http://www.w3.org/2000/svg" xmlns:xlink="http://www.w3.org/1999/xlink" x="0px" y="0px"
	 width="395px" height="334px" viewBox="0 0 395 334" enable-background="new 0 0 395 334" xml:space="preserve">
<g id="School.svg">
	<path id="Border" fill="none" stroke="#F4EECE" stroke-width="3" d="M383.248,27.118V12H12v15.118h6.364V321.82h357.125V27.118
		H383.248z"/>
	<path fill="#F4EECE" d="M18.364,22.146h357.125V321.82H18.364V22.146z"/>
	<path fill="#D8D3B6" d="M12,16.312h371.248V31.43H12V16.312z M29.813,274.973h337.729v-11.848H29.813V274.973z"/>
	<path fill="#FCF8D9" d="M12,12h371.248v15.118H12V12z"/>
	<path fill="#FFFDF3" d="M29.813,260.127h337.729v11.848H29.813V260.127z"/>
	<path opacity="0.8" fill="#F9F7EA" stroke="#D8D3B6" stroke-width="2" stroke-miterlimit="10" enable-background="new    " d="
		M89.465,46.841c0,6.332-5.133,11.467-11.465,11.467c-6.333,0-11.466-5.135-11.466-11.467c0-6.333,5.133-11.466,11.466-11.466
		C84.332,35.375,89.465,40.508,89.465,46.841z M197.365,35.375c-6.333,0-11.466,5.133-11.466,11.466
		c0,6.332,5.133,11.467,11.466,11.467c6.33,0,11.465-5.135,11.465-11.467C208.83,40.508,203.695,35.375,197.365,35.375z
		 M317.417,35.375c-6.333,0-11.466,5.133-11.466,11.466c0,6.332,5.133,11.467,11.466,11.467c6.332,0,11.466-5.135,11.466-11.467
		C328.883,40.508,323.749,35.375,317.417,35.375z"/>
	<path id="Layer_2" fill="#7F7A58" d="M35.284,64.229h37.513v53.035H35.284V64.229z M82.498,64.229h37.513v53.035H82.498V64.229z
		 M154.29,64.229h37.513v53.035H154.29V64.229z M201.506,64.229h37.514v53.035h-37.514V64.229z M275.885,64.229h37.514v53.035
		h-37.514V64.229z M323.1,64.229h37.518v53.035H323.1V64.229z M35.284,124.685h37.513v26.442H35.284V124.685z M82.498,124.685
		h37.513v26.442H82.498V124.685z M275.885,124.685h37.514v26.442h-37.514V124.685z M323.1,124.685h37.518v26.442H323.1V124.685z
		 M35.284,172.885h37.513v53.037H35.284V172.885z M82.498,172.885h37.513v53.037H82.498V172.885z M275.885,172.885h37.514v53.037
		h-37.514V172.885z M323.1,172.885h37.518v53.037H323.1V172.885z M35.284,233.684h37.513v26.441H35.284V233.684z M82.498,233.684
		h37.513v26.441H82.498V233.684z M275.885,233.684h37.514v26.441h-37.514V233.684z M323.1,233.684h37.518v26.441H323.1V233.684z
		 M154.72,124.685h37.513v26.442H154.72V124.685z M201.936,124.685h37.517v26.442h-37.517V124.685z M155.282,208.904h84.717v104.048
		h-84.717V208.904z"/>
	<path id="DecorBorder" fill="#D8D3B6" d="M245.504,315.547V207.909v-3c0-26.443-21.513-47.954-47.954-47.954
		c-26.442,0-47.953,21.511-47.953,47.954v3v107.638h-15.761v6.273h127.609v-6.273H245.504z M239.999,312.952h-84.717V208.904h84.717
		V312.952z"/>
	<path id="Decor" fill="#F9F7EA" d="M227.695,303.542h-26.725v-36.026h26.725V303.542z M203.975,300.542H224.7v-30.026h-20.726
		V300.542L203.975,300.542z M193.851,303.542h-26.725v-36.026h26.725V303.542z M170.126,300.542h20.725v-30.026h-20.725V300.542z
		 M227.695,259.82h-26.725v-25.418c0-7.368,5.991-13.362,13.359-13.362s13.359,5.996,13.359,13.362v25.418H227.695z M203.975,256.82
		H224.7v-22.418c0-5.719-4.649-10.362-10.362-10.362s-10.361,4.649-10.361,10.362v22.418H203.975z M193.851,259.82h-26.725v-25.418
		c0-7.368,5.994-13.362,13.361-13.362c7.367,0,13.363,5.996,13.363,13.362L193.851,259.82L193.851,259.82z M170.126,256.82h20.725
		v-22.418c0-5.719-4.649-10.362-10.363-10.362c-5.713,0-10.361,4.649-10.361,10.362L170.126,256.82L170.126,256.82z M174.008,170.21
		l18.34,31.698H155.7C156.635,188.739,163.684,177.236,174.008,170.21z M215.9,167.199c-5.549-2.711-11.772-4.242-18.354-4.242
		c-6.578,0-12.803,1.531-18.352,4.243l18.354,31.719L215.9,167.199z M221.089,170.21l-18.338,31.698h36.646
		C238.462,188.739,231.415,177.238,221.089,170.21z"/>
</g>
</svg>
