<svg xmlns="http://www.w3.org/2000/svg" xmlns:xlink="http://www.w3.org/1999/xlink" viewBox= "0 0 474 304" width="474px" height="304px"><g id="Shopfront.svg"><path fill="#5CE5DE" d="M35.5,77.5L436.5,77.5L436.5,290.5L35.5,290.5L35.5,77.5z"></path><path id="WallBorder" fill="#076D6D" d="M436.0570068359375,51.83000183105469L436.0570068359375,290.12701416015625L37.474998474121094,290.12701416015625L37.474998474121094,51.83000183105469L436.0570068359375,51.83000183105469M439.0570068359375,48.83000183105469L436.0570068359375,48.83000183105469L37.474998474121094,48.83000183105469L34.474998474121094,48.83000183105469L34.474998474121094,51.83000183105469L34.474998474121094,290.12701416015625L34.474998474121094,293.12701416015625L37.474998474121094,293.12701416015625L436.0570068359375,293.12701416015625L439.0570068359375,293.12701416015625L439.0570068359375,290.12701416015625L439.0570068359375,51.83000183105469L439.0570068359375,48.83000183105469L439.0570068359375,48.83000183105469z"></path><path id="DarkBlueLines" fill="#43C9BF" d="M87.4749984741211,290.12701416015625L74.9749984741211,290.12701416015625L74.9749984741211,51.83000183105469L87.4749984741211,51.83000183105469L87.4749984741211,290.12701416015625zM62.474998474121094,51.83000183105469L49.974998474121094,51.83000183105469L49.974998474121094,290.12701416015625L62.474998474121094,290.12701416015625L62.474998474121094,51.83000183105469zM386.0570068359375,290.12701416015625L398.5570068359375,290.12701416015625L398.5570068359375,51.83000183105469L386.0570068359375,51.83000183105469L386.0570068359375,290.12701416015625zM411.0570068359375,290.12701416015625L423.5570068359375,290.12701416015625L423.5570068359375,51.83000183105469L411.0570068359375,51.83000183105469L411.0570068359375,290.12701416015625z"></path><polygon id="GlassBorder_1_" fill="#FFFFFF" points="87.475 119.915 87.475 273.075 186.833 273.075 186.833 290.128 191.593 290.128 191.73 290.128 191.849 290.128 281.646 290.128 281.8 290.128 281.979 290.128 286.7 290.128 286.7 273.075 386.058 273.075 386.058 119.915" transform=""></polygon><path id="Glass" fill="#91E0F2" d="M196.72999572753906,154.9149932861328L276.802001953125,154.9149932861328L276.802001953125,285.12701416015625L196.72999572753906,285.12701416015625L196.72999572753906,154.9149932861328zM196.72999572753906,144.9149932861328L276.802001953125,144.9149932861328L276.802001953125,124.91500091552734L196.72999572753906,124.91500091552734L196.72999572753906,144.9149932861328zM92.4749984741211,268.07501220703125L186.72999572753906,268.07501220703125L186.72999572753906,124.91500091552734L92.4749984741211,124.91500091552734L92.4749984741211,268.07501220703125zM286.802001953125,268.07501220703125L381.0580139160156,268.07501220703125L381.0580139160156,124.91500091552734L286.802001953125,124.91500091552734L286.802001953125,268.07501220703125z"></path><circle id="Knob" fill="#FFE91D" stroke="#A87B0C" stroke-width="2" stroke-linecap="round" stroke-miterlimit="10" cx="261.6000061035156" cy="228.5260009765625" r="4.124"></circle><path id="Outlines" fill="none" stroke="#076D6D" stroke-width="2" stroke-linecap="round" stroke-miterlimit="10" d="M87.4749984741211,51.83000183105469L87.4749984741211,290.12701416015625M386.0570068359375,51.83000183105469L386.0570068359375,290.12701416015625M87.4749984741211,119.91500091552734L386.0570068359375,119.91500091552734M74.9749984741211,51.83000183105469L74.9749984741211,104.33300018310547M62.474998474121094,51.83000183105469L62.474998474121094,161.33299255371094M49.974998474121094,51.83000183105469L49.974998474121094,218.33299255371094M398.5570068359375,51.125999450683594L398.5570068359375,103.62899780273438M411.0570068359375,51.125999450683594L411.0570068359375,160.6300048828125M423.5570068359375,51.125999450683594L423.5570068359375,217.6300048828125"></path><path id="reflection" fill="#4DBBCE" d="M148.66700744628906,240.33399963378906C148.27699279785156,240.33399963378906,147.906005859375,240.10499572753906,147.7449951171875,239.72300720214844L117.0780029296875,167.05599975585938C116.86299896240234,166.5469970703125,117.10199737548828,165.9600067138672,117.61100006103516,165.74600219726562C118.12100219726562,165.531005859375,118.70700073242188,165.7689971923828,118.9209976196289,166.2779998779297L149.58799743652344,238.94500732421875C149.80299377441406,239.45399475097656,149.56399536132812,240.04100036621094,149.05499267578125,240.2550048828125C148.9290008544922,240.3090057373047,148.7969970703125,240.33399963378906,148.66700744628906,240.33399963378906zM351.3330078125,227C350.9429931640625,227,350.572998046875,226.77099609375,350.4119873046875,226.38900756835938L319.7460021972656,153.7220001220703C319.531005859375,153.21299743652344,319.7690124511719,152.62600708007812,320.27801513671875,152.41200256347656C320.7850036621094,152.197998046875,321.37298583984375,152.43499755859375,321.5880126953125,152.94500732421875L352.2539978027344,225.61199951171875C352.468994140625,226.12100219726562,352.2309875488281,226.70799255371094,351.72198486328125,226.9219970703125C351.5950012207031,226.97500610351562,351.4630126953125,227,351.3330078125,227zM331.3349914550781,223.66600036621094C330.947998046875,223.66600036621094,330.5799865722656,223.44000244140625,330.4159851074219,223.06300354003906L313.0830078125,183.06399536132812C312.864013671875,182.5570068359375,313.09698486328125,181.96800231933594,313.60400390625,181.74899291992188C314.1099853515625,181.5290069580078,314.70001220703125,181.76499938964844,314.91900634765625,182.27000427246094L332.25201416015625,222.2689971923828C332.47100830078125,222.7760009765625,332.2380065917969,223.36500549316406,331.7309875488281,223.58399963378906C331.6029968261719,223.63999938964844,331.4670104980469,223.66600036621094,331.3349914550781,223.66600036621094zM145.33299255371094,197.66700744628906C144.9459991455078,197.66700744628906,144.57899475097656,197.4409942626953,144.4149932861328,197.06399536132812L127.08200073242188,157.06399536132812C126.86199951171875,156.5570068359375,127.09500122070312,155.96800231933594,127.60199737548828,155.74899291992188C128.10699462890625,155.531005859375,128.69700622558594,155.76300048828125,128.91700744628906,156.27000427246094L146.25,196.27000427246094C146.47000122070312,196.77699279785156,146.23699951171875,197.36599731445312,145.72999572753906,197.5850067138672C145.6009979248047,197.64100646972656,145.46600341796875,197.66700744628906,145.33299255371094,197.66700744628906z"></path><path id="BoardBorder" fill="#074944" d="M255.1699981689453,195.22500610351562L217.16400146484375,189.302001953125C216.97000122070312,189.27200317382812,216.76800537109375,189.3209991455078,216.6060028076172,189.43800354003906C216.44500732421875,189.55499267578125,216.33799743652344,189.73300170898438,216.3070068359375,189.92799377441406L212.9810028076172,211.2760009765625C212.91799926757812,211.68600463867188,213.19700622558594,212.06900024414062,213.60699462890625,212.1320037841797L251.61300659179688,218.05499267578125C251.64999389648438,218.06100463867188,251.68899536132812,218.06300354003906,251.72799682617188,218.06300354003906C251.88499450683594,218.06300354003906,252.0399932861328,218.01400756835938,252.16600036621094,217.91799926757812C252.3260040283203,217.80099487304688,252.43699645996094,217.625,252.46499633789062,217.42799377441406L255.79100036621094,196.0800018310547C255.85899353027344,195.67100524902344,255.5800018310547,195.28799438476562,255.1699981689453,195.22500610351562zM251.10400390625,216.45700073242188L214.58299255371094,210.76600646972656L217.67799377441406,190.9010009765625L254.20199584960938,196.5919952392578L251.10400390625,216.45700073242188zM223.83299255371094,190.34100341796875L222.71099853515625,190.16600036621094L233.7689971923828,175.53199768066406C233.86300659179688,175.40699768066406,234.00999450683594,175.33399963378906,234.16600036621094,175.33299255371094C234.3419952392578,175.33999633789062,234.47000122070312,175.4040069580078,234.56399536132812,175.5290069580078L248.92999267578125,194.25100708007812L247.4969940185547,194.02699279785156L234.1699981689453,176.6580047607422L223.83299255371094,190.34100341796875z"></path><polygon id="Board" fill="#E9FFFD" points="251.104 216.457 234.079 213.805 214.583 210.766 217.678 190.9 242.652 194.792 254.202 196.592" transform=""></polygon><path id="Smile" fill="#12B243" d="M234.38099670410156,196.00100708007812C230.2830047607422,196.0019989013672,226.96200561523438,199.322998046875,226.96099853515625,203.42100524902344C226.96200561523438,207.52000427246094,230.2830047607422,210.84100341796875,234.38099670410156,210.84100341796875C238.47900390625,210.84100341796875,241.80099487304688,207.52000427246094,241.80099487304688,203.42100524902344C241.80099487304688,199.32400512695312,238.47900390625,196.00100708007812,234.38099670410156,196.00100708007812zM238.88400268554688,207.9239959716797C237.72900390625,209.0780029296875,236.14100646972656,209.78900146484375,234.38099670410156,209.78900146484375C232.62100219726562,209.78900146484375,231.03199768066406,209.0780029296875,229.87899780273438,207.9239959716797C228.72500610351562,206.77200317382812,228.01400756835938,205.1820068359375,228.01400756835938,203.42100524902344C228.01400756835938,201.66099548339844,228.72500610351562,200.072998046875,229.87899780273438,198.91799926757812C231.0330047607422,197.76600646972656,232.6219940185547,197.05499267578125,234.38099670410156,197.05499267578125C236.14199829101562,197.05499267578125,237.7310028076172,197.76600646972656,238.88400268554688,198.91799926757812C240.03700256347656,200.072998046875,240.7480010986328,201.66099548339844,240.75,203.42100524902344C240.74899291992188,205.1820068359375,240.03799438476562,206.77099609375,238.88400268554688,207.9239959716797zM232.86500549316406,202.5590057373047C232.86500549316406,201.85800170898438,232.29600524902344,201.28799438476562,231.593994140625,201.28799438476562C230.89199829101562,201.28799438476562,230.322998046875,201.85699462890625,230.322998046875,202.5590057373047C230.322998046875,203.26100158691406,230.89199829101562,203.8300018310547,231.593994140625,203.8300018310547C232.29600524902344,203.83099365234375,232.86500549316406,203.26100158691406,232.86500549316406,202.5590057373047zM237.16900634765625,201.28799438476562C236.46600341796875,201.28799438476562,235.89700317382812,201.85699462890625,235.89700317382812,202.5590057373047C235.89700317382812,203.26100158691406,236.46600341796875,203.8300018310547,237.16900634765625,203.8300018310547C237.8699951171875,203.8300018310547,238.44000244140625,203.26100158691406,238.44000244140625,202.5590057373047C238.43899536132812,201.85699462890625,237.8699951171875,201.28799438476562,237.16900634765625,201.28799438476562zM234.38099670410156,208.4149932861328C236.02200317382812,208.4149932861328,237.375,207.29299926757812,237.59800720214844,205.83399963378906L231.1649932861328,205.83399963378906C231.38699340820312,207.29200744628906,232.74000549316406,208.4149932861328,234.38099670410156,208.4149932861328z"></path><path id="OnningWhite" fill="#FFFFFF" stroke="#722007" stroke-width="2" stroke-linecap="round" stroke-miterlimit="10" d="M268.9840087890625,80.39199829101562L268.9840087890625,90.0009994506836C268.9840087890625,95.93199920654297,264.1709899902344,100.73999786376953,258.2460021972656,100.73999786376953C252.31399536132812,100.73999786376953,247.50599670410156,95.93199920654297,247.50599670410156,90.0009994506836L247.50599670410156,80.39199829101562L268.9840087890625,80.39199829101562zM204.54800415039062,80.39199829101562L204.54800415039062,90.0009994506836C204.54800415039062,95.93199920654297,209.3560028076172,100.73999786376953,215.28700256347656,100.73999786376953C221.21800231933594,100.73999786376953,226.02699279785156,95.93199920654297,226.02699279785156,90.0009994506836L226.02699279785156,80.39199829101562L204.54800415039062,80.39199829101562zM161.58999633789062,80.39199829101562L161.58999633789062,90.0009994506836C161.58999633789062,95.93199920654297,166.3979949951172,100.73999786376953,172.32899475097656,100.73999786376953C178.25999450683594,100.73999786376953,183.0679931640625,95.93199920654297,183.0679931640625,90.0009994506836L183.0679931640625,80.39199829101562L161.58999633789062,80.39199829101562zM118.63200378417969,80.39199829101562L118.63200378417969,90.0009994506836C118.63200378417969,95.93199920654297,123.44100189208984,100.73999786376953,129.3719940185547,100.73999786376953C135.30299377441406,100.73999786376953,140.11099243164062,95.93199920654297,140.11099243164062,90.0009994506836L140.11099243164062,80.39199829101562L118.63200378417969,80.39199829101562zM75.67500305175781,80.39199829101562L75.67500305175781,90.0009994506836C75.67500305175781,95.93199920654297,80.48300170898438,100.73999786376953,86.41400146484375,100.73999786376953C92.34500122070312,100.73999786376953,97.15399932861328,95.93199920654297,97.15399932861328,90.0009994506836L97.15399932861328,80.39199829101562L75.67500305175781,80.39199829101562zM32.71699905395508,80.39199829101562L32.71699905395508,90.0009994506836C32.71699905395508,95.93199920654297,37.525001525878906,100.73999786376953,43.45600128173828,100.73999786376953C49.387001037597656,100.73999786376953,54.19499969482422,95.93199920654297,54.19499969482422,90.0009994506836L54.19499969482422,80.39199829101562L32.71699905395508,80.39199829101562zM419.33599853515625,80.39199829101562L419.33599853515625,90.0009994506836C419.33599853515625,95.93199920654297,424.1440124511719,100.73999786376953,430.07501220703125,100.73999786376953C436.0060119628906,100.73999786376953,440.8139953613281,95.93199920654297,440.8139953613281,90.0009994506836L440.8139953613281,80.39199829101562L419.33599853515625,80.39199829101562zM376.37799072265625,80.39199829101562L376.37799072265625,90.0009994506836C376.37799072265625,95.93199920654297,381.18798828125,100.73999786376953,387.1180114746094,100.73999786376953C393.0480041503906,100.73999786376953,397.8559875488281,95.93199920654297,397.8559875488281,90.0009994506836L397.8559875488281,80.39199829101562L376.37799072265625,80.39199829101562zM333.4209899902344,80.39199829101562L333.4209899902344,90.0009994506836C333.4209899902344,95.93199920654297,338.22900390625,100.73999786376953,344.15899658203125,100.73999786376953C350.09100341796875,100.73999786376953,354.89898681640625,95.93199920654297,354.89898681640625,90.0009994506836L354.89898681640625,80.39199829101562L333.4209899902344,80.39199829101562zM290.4630126953125,80.39199829101562L290.4630126953125,90.0009994506836C290.4630126953125,95.93199920654297,295.2720031738281,100.73999786376953,301.2019958496094,100.73999786376953C307.1319885253906,100.73999786376953,311.9410095214844,95.93199920654297,311.9410095214844,90.0009994506836L311.9410095214844,80.39199829101562L290.4630126953125,80.39199829101562zM263.7019958496094,11.333000183105469C265.4100036621094,34.39400100708008,267.1189880371094,57.45500183105469,268.8280029296875,80.51499938964844C261.67999267578125,80.51499938964844,254.531005859375,80.51499938964844,247.38299560546875,80.51499938964844C246.81300354003906,57.45399856567383,246.2429962158203,34.393001556396484,245.6739959716797,11.333000183105469L263.7019958496094,11.333000183105469zM209.6179962158203,11.333000183105469C207.90899658203125,34.39400100708008,206.2010040283203,57.45500183105469,204.49200439453125,80.51499938964844C211.63999938964844,80.51499938964844,218.78900146484375,80.51499938964844,225.93699645996094,80.51499938964844C226.50599670410156,57.45399856567383,227.0760040283203,34.393001556396484,227.64599609375,11.333000183105469L209.6179962158203,11.333000183105469zM173.56199645996094,11.333000183105469C169.5749969482422,34.39400100708008,165.58799743652344,57.45500183105469,161.6009979248047,80.51499938964844C168.74899291992188,80.51499938964844,175.8979949951172,80.51499938964844,183.04600524902344,80.51499938964844C185.8939971923828,57.45399856567383,188.74200439453125,34.393001556396484,191.58999633789062,11.333000183105469L173.56199645996094,11.333000183105469zM137.5070037841797,11.333000183105469C131.24099731445312,34.39400100708008,124.97599792480469,57.45500183105469,118.70999908447266,80.51499938964844C125.85800170898438,80.51499938964844,133.0070037841797,80.51499938964844,140.15499877929688,80.51499938964844C145.281005859375,57.45399856567383,150.4080047607422,34.393001556396484,155.53399658203125,11.333000183105469L137.5070037841797,11.333000183105469zM101.4520034790039,11.333000183105469C92.90799713134766,34.39400100708008,84.36399841308594,57.45500183105469,75.81999969482422,80.51499938964844C82.96800231933594,80.51499938964844,90.11699676513672,80.51499938964844,97.26499938964844,80.51499938964844C104.66999816894531,57.45399856567383,112.07499694824219,34.393001556396484,119.47899627685547,11.333000183105469L101.4520034790039,11.333000183105469zM65.39600372314453,11.333000183105469C54.57400131225586,34.39400100708008,43.750999450683594,57.45500183105469,32.92900085449219,80.51499938964844C40.07699966430664,80.51499938964844,47.22600173950195,80.51499938964844,54.374000549316406,80.51499938964844C64.05699920654297,57.45399856567383,73.74099731445312,34.393001556396484,83.42400360107422,11.333000183105469L65.39600372314453,11.333000183105469zM389.8949890136719,11.333000183105469C399.5830078125,34.39400100708008,409.260986328125,57.45500183105469,418.95098876953125,80.51499938964844C426.09698486328125,80.51499938964844,433.24798583984375,80.51499938964844,440.3900146484375,80.51499938964844C429.5740051269531,57.45399856567383,418.7449951171875,34.393001556396484,407.9219970703125,11.333000183105469L389.8949890136719,11.333000183105469zM353.8389892578125,11.333000183105469C361.2439880371094,34.39400100708008,368.6520080566406,57.45500183105469,376.0539855957031,80.51499938964844C383.2019958496094,80.51499938964844,390.35101318359375,80.51499938964844,397.4989929199219,80.51499938964844C388.9549865722656,57.45399856567383,380.4110107421875,34.393001556396484,371.86700439453125,11.333000183105469L353.8389892578125,11.333000183105469zM317.7850036621094,11.333000183105469C322.9110107421875,34.39400100708008,328.0379943847656,57.45500183105469,333.16400146484375,80.51499938964844C340.31201171875,80.51499938964844,347.46099853515625,80.51499938964844,354.6090087890625,80.51499938964844C348.3380126953125,57.45399856567383,342.0780029296875,34.393001556396484,335.81201171875,11.333000183105469L317.7850036621094,11.333000183105469zM281.72900390625,11.333000183105469C284.5830078125,34.39400100708008,287.42401123046875,57.45500183105469,290.27398681640625,80.51499938964844C297.4209899902344,80.51499938964844,304.5710144042969,80.51499938964844,311.7179870605469,80.51499938964844C307.73699951171875,57.45399856567383,303.7430114746094,34.393001556396484,299.7560119628906,11.333000183105469L281.72900390625,11.333000183105469z"></path><path id="OnningsRed" fill="#F95326" stroke="#722007" stroke-width="2" stroke-linecap="round" stroke-miterlimit="10" d="M247.5050048828125,80.39199829101562L247.5050048828125,90.0009994506836C247.5050048828125,95.93199920654297,242.69700622558594,100.73999786376953,236.76600646972656,100.73999786376953C230.8350067138672,100.73999786376953,226.02699279785156,95.93199920654297,226.02699279785156,90.0009994506836L226.02699279785156,80.39199829101562L247.5050048828125,80.39199829101562zM183.06900024414062,80.39199829101562L183.06900024414062,90.0009994506836C183.06900024414062,95.93199920654297,187.8780059814453,100.73999786376953,193.8090057373047,100.73999786376953C199.74000549316406,100.73999786376953,204.54800415039062,95.93199920654297,204.54800415039062,90.0009994506836L204.54800415039062,80.39199829101562L183.06900024414062,80.39199829101562zM140.11099243164062,80.39199829101562L140.11099243164062,90.0009994506836C140.11099243164062,95.93199920654297,144.91900634765625,100.73999786376953,150.85000610351562,100.73999786376953C156.781005859375,100.73999786376953,161.58999633789062,95.93199920654297,161.58999633789062,90.0009994506836L161.58999633789062,80.39199829101562L140.11099243164062,80.39199829101562zM97.15399932861328,80.39199829101562L97.15399932861328,90.0009994506836C97.15399932861328,95.93199920654297,101.96199798583984,100.73999786376953,107.89299774169922,100.73999786376953C113.8239974975586,100.73999786376953,118.63200378417969,95.93199920654297,118.63200378417969,90.0009994506836L118.63200378417969,80.39199829101562L97.15399932861328,80.39199829101562zM54.19599914550781,80.39199829101562L54.19599914550781,90.0009994506836C54.19599914550781,95.93199920654297,59.005001068115234,100.73999786376953,64.93599700927734,100.73999786376953C70.86699676513672,100.73999786376953,75.67500305175781,95.93199920654297,75.67500305175781,90.0009994506836L75.67500305175781,80.39199829101562L54.19599914550781,80.39199829101562zM397.85699462890625,80.39199829101562L397.85699462890625,90.0009994506836C397.85699462890625,95.93199920654297,402.6659851074219,100.73999786376953,408.59100341796875,100.73999786376953C414.52801513671875,100.73999786376953,419.3299865722656,95.93199920654297,419.3299865722656,90.0009994506836L419.3299865722656,80.39199829101562L397.85699462890625,80.39199829101562zM354.8999938964844,80.39199829101562L354.8999938964844,90.0009994506836C354.8999938964844,95.93199920654297,359.7090148925781,100.73999786376953,365.63299560546875,100.73999786376953C371.5690002441406,100.73999786376953,376.37200927734375,95.93199920654297,376.37200927734375,90.0009994506836L376.37200927734375,80.39199829101562L354.8999938964844,80.39199829101562zM311.9419860839844,80.39199829101562L311.9419860839844,90.0009994506836C311.9419860839844,95.93199920654297,316.7510070800781,100.73999786376953,322.67498779296875,100.73999786376953C328.6130065917969,100.73999786376953,333.4150085449219,95.93199920654297,333.4150085449219,90.0009994506836L333.4150085449219,80.39199829101562L311.9419860839844,80.39199829101562zM440.81500244140625,80.39199829101562L440.81500244140625,90.0009994506836C440.81500244140625,95.93199920654297,445.6239929199219,100.73999786376953,451.5480041503906,100.73999786376953C457.4859924316406,100.73999786376953,462.2879943847656,95.93199920654297,462.2879943847656,90.0009994506836L462.2879943847656,80.39199829101562L440.81500244140625,80.39199829101562zM268.9840087890625,80.39199829101562L268.9840087890625,90.0009994506836C268.9840087890625,95.93199920654297,273.7929992675781,100.73999786376953,279.7239990234375,100.73999786376953C285.65399169921875,100.73999786376953,290.4570007324219,95.93199920654297,290.4570007324219,90.0009994506836L290.4570007324219,80.39199829101562L268.9840087890625,80.39199829101562zM11.23799991607666,80.39199829101562L11.23799991607666,90.0009994506836C11.23799991607666,95.93199920654297,16.04599952697754,100.73999786376953,21.976999282836914,100.73999786376953C27.908000946044922,100.73999786376953,32.71699905395508,95.93199920654297,32.71699905395508,90.0009994506836L32.71699905395508,80.39199829101562L11.23799991607666,80.39199829101562zM245.67300415039062,11.333000183105469C246.24200439453125,34.39400100708008,246.81300354003906,57.45500183105469,247.3820037841797,80.51499938964844C240.23300170898438,80.51499938964844,233.0850067138672,80.51499938964844,225.93600463867188,80.51499938964844C226.5050048828125,57.45399856567383,227.0749969482422,34.393001556396484,227.64500427246094,11.333000183105469L245.67300415039062,11.333000183105469zM191.58999633789062,11.333000183105469C188.74200439453125,34.39400100708008,185.8939971923828,57.45500183105469,183.04600524902344,80.51499938964844C190.19400024414062,80.51499938964844,197.34300231933594,80.51499938964844,204.49099731445312,80.51499938964844C206.1999969482422,57.45399856567383,207.9080047607422,34.393001556396484,209.61700439453125,11.333000183105469L191.58999633789062,11.333000183105469zM155.53500366210938,11.333000183105469C150.40899658203125,34.39400100708008,145.28199768066406,57.45500183105469,140.156005859375,80.51499938964844C147.3040008544922,80.51499938964844,154.4530029296875,80.51499938964844,161.6009979248047,80.51499938964844C165.58799743652344,57.45399856567383,169.5760040283203,34.393001556396484,173.56199645996094,11.333000183105469L155.53500366210938,11.333000183105469zM119.47899627685547,11.333000183105469C112.0739974975586,34.39400100708008,104.66899871826172,57.45500183105469,97.26499938964844,80.51499938964844C104.41300201416016,80.51499938964844,111.56199645996094,80.51499938964844,118.70999908447266,80.51499938964844C124.97599792480469,57.45399856567383,131.24099731445312,34.393001556396484,137.5070037841797,11.333000183105469L119.47899627685547,11.333000183105469zM83.42400360107422,11.333000183105469C73.74099731445312,34.39400100708008,64.05699920654297,57.45500183105469,54.374000549316406,80.51499938964844C61.52199935913086,80.51499938964844,68.6709976196289,80.51499938964844,75.81900024414062,80.51499938964844C84.36299896240234,57.45399856567383,92.90699768066406,34.393001556396484,101.45099639892578,11.333000183105469L83.42400360107422,11.333000183105469zM371.8680114746094,11.333000183105469C380.4119873046875,34.39400100708008,388.95599365234375,57.45500183105469,397.5,80.51499938964844C404.64801025390625,80.51499938964844,411.7969970703125,80.51499938964844,418.94500732421875,80.51499938964844C409.2569885253906,57.45399856567383,399.5790100097656,34.393001556396484,389.8890075683594,11.333000183105469L371.8680114746094,11.333000183105469zM335.81298828125,11.333000183105469C342.08099365234375,34.39400100708008,348.3399963378906,57.45500183105469,354.61199951171875,80.51499938964844C361.75799560546875,80.51499938964844,368.90899658203125,80.51499938964844,376.0509948730469,80.51499938964844C368.6520080566406,57.45399856567383,361.2409973144531,34.393001556396484,353.83599853515625,11.333000183105469L335.81298828125,11.333000183105469zM299.7560119628906,11.333000183105469C303.7430114746094,34.39400100708008,307.7349853515625,57.45500183105469,311.7179870605469,80.51499938964844C318.8659973144531,80.51499938964844,326.0150146484375,80.51499938964844,333.1629943847656,80.51499938964844C328.0369873046875,57.45399856567383,322.9100036621094,34.393001556396484,317.78399658203125,11.333000183105469L299.7560119628906,11.333000183105469zM425.95098876953125,11.333000183105469L407.9230041503906,11.333000183105469C418.7460021972656,34.39400100708008,429.5690002441406,57.45500183105469,440.3909912109375,80.51499938964844C447.53900146484375,80.51499938964844,454.68798828125,80.51499938964844,461.83599853515625,80.51499938964844C449.8739929199219,57.45500183105469,437.9129943847656,34.39400100708008,425.95098876953125,11.333000183105469zM263.7019958496094,11.333000183105469C265.4100036621094,34.39400100708008,267.1189880371094,57.45500183105469,268.8280029296875,80.51499938964844C275.97601318359375,80.51499938964844,283.125,80.51499938964844,290.27301025390625,80.51499938964844C287.41900634765625,57.45399856567383,284.5769958496094,34.393001556396484,281.7279968261719,11.333000183105469L263.7019958496094,11.333000183105469zM47.36800003051758,11.333000183105469C35.40700149536133,34.39400100708008,23.44499969482422,57.45500183105469,11.482999801635742,80.51499938964844C18.631000518798828,80.51499938964844,25.780000686645508,80.51499938964844,32.928001403808594,80.51499938964844C43.75,57.45399856567383,54.573001861572266,34.393001556396484,65.3949966430664,11.333000183105469L47.36800003051758,11.333000183105469z"></path></g></svg>