<?xml version="1.0" encoding="utf-8"?>
<!-- Generator: Adobe Illustrator 15.0.0, SVG Export Plug-In . SVG Version: 6.00 Build 0)  -->
<!DOCTYPE svg PUBLIC "-//W3C//DTD SVG 1.1//EN" "http://www.w3.org/Graphics/SVG/1.1/DTD/svg11.dtd">
<svg version="1.1" id="Layer_1" xmlns="http://www.w3.org/2000/svg" xmlns:xlink="http://www.w3.org/1999/xlink" x="0px" y="0px"
	 width="480px" height="360px" viewBox="0 0 480 360" enable-background="new 0 0 480 360" xml:space="preserve">
<g id="fixed">
	<path fill="#2A005B" d="M-0.002-0.003h480v360h-480V-0.003L-0.002-0.003z"/>
	<g opacity="0.6">
		<path id="Aurora3" opacity="0.15" fill="#EF00D3" enable-background="new    " d="M398.723,189.197
			c-24.089-0.059-42.421,8.971-62.326,21.763c-18.989,12.205-34.791,20.698-56.756,25.571
			c-18.896,4.191-41.765,18.804-55.042,32.824c-12.814,13.524-23.86,23.343-42.465,28.838c-19.676,5.812-37.555,4.265-57.688,2.359
			c-18.143-1.72-39.117-5.885-57.04-0.979c-13.521,3.698-25.266,12.268-39.505,13.703c-10.087,1.018-19.209,0.14-27.898-2.479
			v49.193H232.85c1.131-0.539,2.251-1.121,3.357-1.758c17.797-10.24,38.676-20.845,59.398-21.886
			c19.021-0.956,42.812,3.062,60.572-4.721c10.99-4.812,42.016-15.08,49.021-24.84c4.428-6.167,9.086-8.253,11.199-15.2
			c5.782-19.02,34.962-1.139,54.396-2.396c4.461-0.289,7.317-1.27,9.199-2.695V189.42
			C453.213,187.893,425.773,189.262,398.723,189.197z"/>
		<path id="Aurora2" opacity="0.15" fill="#FFFF00" enable-background="new    " d="M479.998,316.304
			c-1.634-0.991-3.49-1.825-5.604-2.478c-15.189-4.674-34.571-0.926-50.22,0.935c-14.633,1.74-42.217,6.545-58.449,11.781
			c-2.979,1.918-6.154,3.611-9.548,5.098c-17.764,7.776-41.554,3.766-60.573,4.722c-20.726,1.042-41.604,11.644-59.396,21.884
			c-1.106,0.637-2.228,1.219-3.357,1.758H480L479.998,316.304L479.998,316.304z"/>
		<path id="Aurora1" opacity="0.15" fill="#00DB97" enable-background="new    " d="M479.438,224.578
			c-15.091-10.874-36.418-7.35-53.979-7.381c-26.776-0.051-53.592,2.246-80.312-0.848c-18.33-2.123-35.564-2.934-54.078-0.347
			c-24.885,3.479-48.959,3.588-73.948,5.146c-22.309,1.394-37.525,7.776-53.252,23.268c-19.223,18.934-43.199,28.555-69.879,31.396
			c-22.262,2.373-44.663-3.513-66.826-2.572c-9.33,0.393-18.319,0.008-27.161,2.324v52.056c0.399-0.013,0.785-0.021,1.149-0.021
			c12.694,0,25.431-0.297,38.122-0.019c17.313,0.379,33.429,3.797,50.673,2.374c22.132-1.825,40.642-13.484,60.882-21.421
			c11.283-4.426,25.352-10.146,37.358-11.393c10.855-1.132,22.866-0.264,33.792,0.061c24.686,0.725,49.066-0.426,73.622-0.799
			c23.688-0.358,48.858-2.027,72.396,0.951c13.359,1.69,25.553,6.698,39.132,7.041c12.988,0.323,26.236,0.877,38.912-2.004
			c13.414-3.05,25.127-9.658,33.96-19.832V225C479.812,224.863,479.63,224.717,479.438,224.578z"/>
	</g>
	<path id="_x35_0_x25_" opacity="0.5" fill="#FFFFFF" enable-background="new    " d="M162.515,249.663
		c0,0.677-0.549,1.226-1.227,1.226c-0.676,0-1.225-0.549-1.225-1.226s0.549-1.226,1.225-1.226
		C161.966,248.438,162.515,248.986,162.515,249.663z M175.289,251.697c-0.423,0-0.766,0.343-0.766,0.766
		c0,0.424,0.343,0.768,0.766,0.768c0.425,0,0.767-0.344,0.767-0.768C176.056,252.04,175.713,251.697,175.289,251.697z
		 M303.247,212.641c-0.679,0-1.228,0.549-1.228,1.229c0,0.677,0.549,1.226,1.228,1.226s1.229-0.549,1.229-1.226
		C304.475,213.188,303.925,212.641,303.247,212.641z M69.757,203.611c-0.678,0-1.227,0.55-1.227,1.226
		c0,0.679,0.549,1.228,1.227,1.228c0.677,0,1.226-0.549,1.226-1.228C70.982,204.161,70.434,203.611,69.757,203.611z
		 M376.798,312.798c-0.425,0-0.768,0.344-0.768,0.771c0,0.423,0.343,0.766,0.768,0.766s0.767-0.343,0.767-0.766
		C377.562,313.142,377.223,312.798,376.798,312.798z M9.328,170.685c-0.677,0-1.226,0.55-1.226,1.227
		c0,0.676,0.549,1.225,1.226,1.225c0.678,0,1.227-0.549,1.227-1.225C10.555,171.234,10.006,170.685,9.328,170.685z M442.888,102.408
		c-0.676,0-1.226,0.549-1.226,1.226c0,0.678,0.55,1.227,1.226,1.227c0.681,0,1.229-0.549,1.229-1.227
		C444.113,102.957,443.564,102.408,442.888,102.408z M303.398,136.865c-0.424,0-0.769,0.343-0.769,0.767
		c0,0.423,0.345,0.767,0.769,0.767c0.425,0,0.769-0.344,0.769-0.767C304.166,137.208,303.823,136.865,303.398,136.865z
		 M211.434,25.632c-0.422,0-0.767,0.344-0.767,0.766c0,0.424,0.344,0.767,0.767,0.767c0.424,0,0.766-0.343,0.766-0.767
		C212.199,25.976,211.856,25.632,211.434,25.632z"/>
	<path id="_x31_00_x25_" fill="#FFFFFF" d="M224.874,113.532c0,0.423-0.343,0.766-0.766,0.766c-0.424,0-0.766-0.343-0.766-0.766
		c0-0.424,0.342-0.768,0.766-0.768C224.531,112.767,224.874,113.108,224.874,113.532z M374.602,73.599
		c-0.425,0-0.769,0.342-0.769,0.766c0,0.424,0.344,0.767,0.769,0.767c0.424,0,0.769-0.343,0.769-0.767
		C375.367,73.941,375.021,73.599,374.602,73.599z M339.365,80.831c-0.424,0-0.768,0.343-0.768,0.766
		c0,0.424,0.344,0.767,0.768,0.767c0.423,0,0.768-0.343,0.768-0.767C340.132,81.174,339.788,80.831,339.365,80.831z M357.833,183.23
		c-0.423,0-0.767,0.344-0.767,0.767c0,0.424,0.344,0.767,0.767,0.767c0.425,0,0.769-0.343,0.769-0.767
		C358.602,183.574,358.257,183.23,357.833,183.23z M456.098,14.27c-0.423,0-0.767,0.344-0.767,0.767s0.344,0.767,0.767,0.767
		c0.428,0,0.771-0.344,0.771-0.767S456.521,14.27,456.098,14.27z M42.633,174.432c-0.424,0-0.767,0.344-0.767,0.767
		c0,0.423,0.343,0.767,0.767,0.767c0.424,0,0.767-0.343,0.767-0.767C43.4,174.775,43.057,174.432,42.633,174.432z M290.633,51.231
		c-0.423,0-0.767,0.343-0.767,0.766s0.344,0.766,0.767,0.766c0.426,0,0.768-0.343,0.768-0.766S291.059,51.231,290.633,51.231z
		 M289.033,68.831c-0.424,0-0.768,0.343-0.768,0.766c0,0.424,0.344,0.767,0.768,0.767s0.768-0.343,0.768-0.767
		C289.8,69.174,289.456,68.831,289.033,68.831z M452.199,153.665c-0.423,0-0.77,0.343-0.77,0.766c0,0.424,0.347,0.767,0.77,0.767
		c0.424,0,0.768-0.343,0.768-0.767C452.966,154.008,452.623,153.665,452.199,153.665z M218.89,288.438
		c-0.677,0-1.227,0.549-1.227,1.229c0,0.677,0.55,1.229,1.227,1.229c0.676,0,1.225-0.552,1.225-1.229
		C220.115,288.986,219.565,288.438,218.89,288.438z M389.991,283.686c-0.679,0-1.228,0.547-1.228,1.229
		c0,0.676,0.549,1.229,1.228,1.229c0.676,0,1.226-0.553,1.226-1.229C391.217,284.23,390.669,283.686,389.991,283.686z
		 M46.109,249.535c-0.677,0-1.226,0.549-1.226,1.227s0.549,1.229,1.226,1.229c0.677,0,1.227-0.552,1.227-1.229
		S46.787,249.535,46.109,249.535z M433.559,326.858c-0.677,0-1.227,0.549-1.227,1.225c0,0.678,0.55,1.228,1.227,1.228
		c0.68,0,1.229-0.55,1.229-1.228C434.784,327.407,434.235,326.858,433.559,326.858z M321.646,197.725
		c-0.681,0-1.229,0.551-1.229,1.229c0,0.677,0.549,1.228,1.229,1.228c0.678,0,1.227-0.551,1.227-1.228
		C322.873,198.275,322.324,197.725,321.646,197.725z M71.72,322.936c-0.678,0-1.227,0.552-1.227,1.229
		c0,0.676,0.549,1.225,1.227,1.225c0.677,0,1.226-0.549,1.226-1.225C72.944,323.482,72.396,322.936,71.72,322.936z M323.964,209.632
		c-0.424,0-0.767,0.343-0.767,0.767c0,0.427,0.343,0.77,0.767,0.77c0.425,0,0.767-0.343,0.767-0.77
		C324.73,209.975,324.389,209.632,323.964,209.632z M75.198,225.665c-0.424,0-0.767,0.344-0.767,0.767
		c0,0.424,0.343,0.771,0.767,0.771c0.423,0,0.767-0.347,0.767-0.771C75.965,226.009,75.621,225.665,75.198,225.665z
		 M207.198,194.466c-0.424,0-0.767,0.343-0.767,0.767c0,0.427,0.343,0.77,0.767,0.77c0.422,0,0.767-0.343,0.767-0.77
		C207.965,194.809,207.62,194.466,207.198,194.466z M142.765,214.831c-0.424,0-0.768,0.344-0.768,0.767
		c0,0.424,0.344,0.771,0.768,0.771c0.422,0,0.766-0.347,0.766-0.771C143.53,215.175,143.187,214.831,142.765,214.831z
		 M302.434,273.632c-0.425,0-0.769,0.345-0.769,0.767c0,0.427,0.344,0.77,0.769,0.77c0.422,0,0.769-0.343,0.769-0.77
		C303.199,273.977,302.854,273.632,302.434,273.632z M277.562,327.231c-0.424,0-0.769,0.343-0.769,0.766
		c0,0.424,0.345,0.767,0.769,0.767s0.768-0.343,0.768-0.767C278.33,327.574,277.986,327.231,277.562,327.231z M264.891,240.098
		c-0.425,0-0.769,0.344-0.769,0.771c0,0.423,0.344,0.766,0.769,0.766c0.424,0,0.769-0.343,0.769-0.766
		C265.656,240.441,265.312,240.098,264.891,240.098z M114.397,279.266c-0.423,0-0.766,0.344-0.766,0.771
		c0,0.423,0.343,0.767,0.766,0.767s0.766-0.344,0.766-0.767C115.163,279.609,114.82,279.266,114.397,279.266z M149.633,272.031
		c-0.424,0-0.767,0.343-0.767,0.767c0,0.423,0.343,0.767,0.767,0.767c0.422,0,0.766-0.344,0.766-0.767
		C150.397,272.374,150.055,272.031,149.633,272.031z M131.164,169.632c-0.423,0-0.766,0.343-0.766,0.767
		c0,0.423,0.343,0.766,0.766,0.766c0.424,0,0.767-0.343,0.767-0.766C131.931,169.975,131.587,169.632,131.164,169.632z
		 M26.433,351.231c-0.424,0-0.768,0.343-0.768,0.766c0,0.424,0.344,0.767,0.768,0.767c0.423,0,0.766-0.343,0.766-0.767
		C27.198,351.574,26.855,351.231,26.433,351.231z M446.364,178.432c-0.424,0-0.771,0.344-0.771,0.767
		c0,0.423,0.347,0.767,0.771,0.767c0.423,0,0.767-0.343,0.767-0.767C447.13,178.774,446.787,178.432,446.364,178.432z
		 M198.364,301.632c-0.423,0-0.767,0.345-0.767,0.767c0,0.427,0.343,0.77,0.767,0.77c0.423,0,0.767-0.343,0.767-0.77
		C199.131,301.977,198.787,301.632,198.364,301.632z M199.965,284.031c-0.423,0-0.767,0.343-0.767,0.767
		c0,0.423,0.344,0.767,0.767,0.767c0.422,0,0.766-0.344,0.766-0.767C200.73,284.374,200.387,284.031,199.965,284.031z
		 M36.798,199.197c-0.425,0-0.768,0.343-0.768,0.767c0,0.423,0.343,0.767,0.768,0.767c0.423,0,0.766-0.344,0.766-0.767
		C37.563,199.54,37.221,199.197,36.798,199.197z M327.708,103.506c-0.677,0-1.228,0.55-1.228,1.226c0,0.678,0.551,1.227,1.228,1.227
		c0.678,0,1.228-0.549,1.228-1.227C328.936,104.056,328.386,103.506,327.708,103.506z M313.708,101.166
		c-0.424,0-0.767,0.343-0.767,0.767c0,0.424,0.343,0.767,0.767,0.767c0.425,0,0.769-0.343,0.769-0.767
		C314.477,101.509,314.132,101.166,313.708,101.166z M270.107,63.506c-0.678,0-1.229,0.55-1.229,1.226
		c0,0.678,0.551,1.227,1.229,1.227c0.677,0,1.226-0.549,1.226-1.227C271.333,64.056,270.785,63.506,270.107,63.506z M331.6,10.372
		c-0.679,0-1.229,0.549-1.229,1.227c0,0.676,0.55,1.226,1.229,1.226c0.676,0,1.228-0.55,1.228-1.226
		C332.823,10.921,332.273,10.372,331.6,10.372z M99.007,68.261c-0.678,0-1.227,0.549-1.227,1.226c0,0.677,0.549,1.226,1.227,1.226
		c0.677,0,1.226-0.549,1.226-1.226C100.233,68.81,99.684,68.261,99.007,68.261z M30.048,141.679c-0.678,0-1.227,0.549-1.227,1.227
		c0,0.676,0.549,1.226,1.227,1.226c0.677,0,1.226-0.549,1.226-1.226C31.273,142.227,30.725,141.679,30.048,141.679z
		 M185.751,139.304c-0.677,0-1.226,0.55-1.226,1.227c0,0.677,0.549,1.226,1.226,1.226c0.677,0,1.226-0.549,1.226-1.226
		C186.977,139.854,186.427,139.304,185.751,139.304z M55.439,25.085c-0.677,0-1.226,0.549-1.226,1.227
		c0,0.677,0.549,1.226,1.226,1.226c0.677,0,1.226-0.549,1.226-1.226C56.665,25.634,56.116,25.085,55.439,25.085z M419.241,148.331
		c-0.679,0-1.229,0.549-1.229,1.226c0,0.678,0.551,1.227,1.229,1.227c0.676,0,1.226-0.549,1.226-1.227
		C420.467,148.88,419.919,148.331,419.241,148.331z M166.424,184.771c-0.678,0-1.227,0.549-1.227,1.226s0.549,1.228,1.227,1.228
		c0.676,0,1.225-0.551,1.225-1.228S167.101,184.771,166.424,184.771z M417.278,29.011c-0.681,0-1.229,0.549-1.229,1.226
		c0,0.677,0.549,1.226,1.229,1.226c0.677,0,1.225-0.549,1.225-1.226C418.504,29.56,417.956,29.011,417.278,29.011z M165.033,143.231
		c-0.423,0-0.766,0.343-0.766,0.766s0.343,0.766,0.766,0.766c0.424,0,0.768-0.343,0.768-0.766S165.456,143.231,165.033,143.231z
		 M112.199,40.065c-0.423,0-0.766,0.343-0.766,0.766s0.343,0.766,0.766,0.766c0.424,0,0.768-0.343,0.768-0.766
		S112.623,40.065,112.199,40.065z M413.8,127.197c-0.424,0-0.767,0.343-0.767,0.767c0,0.423,0.343,0.767,0.767,0.767
		c0.423,0,0.77-0.344,0.77-0.767C414.565,127.54,414.223,127.197,413.8,127.197z M281.8,158.397c-0.424,0-0.767,0.343-0.767,0.766
		s0.343,0.766,0.767,0.766c0.425,0,0.767-0.343,0.767-0.766S282.225,158.397,281.8,158.397z M186.565,79.231
		c-0.423,0-0.766,0.343-0.766,0.766s0.343,0.766,0.766,0.766s0.766-0.343,0.766-0.766S186.988,79.231,186.565,79.231z"/>
	<path id="Planet_2_" fill="#540068" d="M479.998,184.924c-61.679,38.34-106.482,101.262-120.717,175.073h120.717V184.924
		L479.998,184.924z"/>
	<path id="Shadow1_2_" opacity="0.3" fill="#FFFFFF" enable-background="new    " d="M359.281,359.997h10.4
		c13.422-69.595,54.021-129.508,110.312-168.261v-6.813C418.319,223.264,373.516,286.186,359.281,359.997z"/>
	<path id="Shadow2_2_" opacity="0.1" fill="#FFFDFF" enable-background="new    " d="M369.686,359.997h6.81
		c22.263-48.109,58.5-88.431,103.508-115.75v-52.511C423.702,230.489,383.104,290.402,369.686,359.997z"/>
</g>
<g>
	<circle id="Planet" fill="#595959" cx="358.709" cy="90.332" r="7.992"/>
	<path id="Shadow2" opacity="0.75" fill="#FFFFFF" enable-background="new    " d="M359.439,82.634c0.859,0,1.691,0.135,2.477,0.383
		c-0.084-0.037-0.171-0.072-0.257-0.105c-0.159-0.063-0.319-0.124-0.482-0.178c-0.075-0.024-0.155-0.047-0.229-0.068
		c-0.189-0.057-0.384-0.107-0.576-0.148c-0.049-0.01-0.101-0.018-0.146-0.026c-0.226-0.044-0.447-0.08-0.678-0.104
		c-0.021-0.002-0.042-0.002-0.062-0.004c-0.256-0.023-0.512-0.04-0.771-0.04c-4.413,0-7.99,3.578-7.99,7.992
		c0,0.271,0.016,0.541,0.041,0.806c0.014,0.133,0.038,0.262,0.062,0.393c0.021,0.129,0.03,0.26,0.062,0.387
		c0.033,0.18,0.084,0.354,0.133,0.527c0.021,0.072,0.033,0.148,0.06,0.222c0.062,0.206,0.138,0.407,0.217,0.604
		c0.017,0.037,0.025,0.076,0.041,0.11c0.093,0.222,0.193,0.438,0.308,0.646c0.006,0.013,0.01,0.024,0.018,0.037
		c0.354,0.664,0.798,1.271,1.312,1.809c0.002,0.001,0.004,0.003,0.004,0.005c-1.082-1.392-1.73-3.134-1.73-5.032
		C351.229,86.312,354.906,82.634,359.439,82.634z"/>
	<path id="Shadow1" opacity="0.6" fill="#FFFFFF" enable-background="new    " d="M360.868,84.427c1.604,0,3.095,0.475,4.351,1.281
		c-0.834-1.169-1.972-2.107-3.303-2.691c-0.78-0.248-1.611-0.381-2.477-0.381c-4.533,0-8.209,3.676-8.209,8.211
		c0,1.898,0.646,3.643,1.729,5.032c0.343,0.354,0.721,0.673,1.119,0.96c-0.809-1.255-1.277-2.744-1.277-4.348
		C352.803,88.037,356.414,84.427,360.868,84.427z"/>
</g>
<g>
	<circle id="Planet_1_" fill="#00284C" cx="110.332" cy="104.379" r="47.998"/>
	<path id="Shadow2_1_" opacity="0.4" fill="#FFFFFF" enable-background="new    " d="M69.49,79.166
		c-8.885,14.394-9.25,31.642-2.492,45.86c-5.586-13.986-4.706-30.346,3.813-44.145c12.742-20.639,38.262-28.572,60.042-19.893
		C109.039,50.64,82.469,58.144,69.49,79.166z"/>
	<path id="Shadow1_1_" opacity="0.16" fill="#FFFFFF" enable-background="new    " d="M77.155,86.503
		c13.633-22.083,42.586-28.934,64.669-15.3c3.215,1.985,6.105,4.297,8.658,6.862c-3.735-5.707-8.75-10.707-14.938-14.527
		c-2.415-1.491-4.911-2.738-7.459-3.755c0.93,0.37,1.853,0.772,2.767,1.206c-21.781-8.68-47.301-0.746-60.042,19.893
		c-8.5,13.77-9.395,30.088-3.848,44.053c3.646,7.715,9.385,14.54,17,19.542C68.839,129.429,65.465,105.44,77.155,86.503z"/>
	<path opacity="0.7" fill="#0090A8" enable-background="new    " d="M156.402,117.879c6.431,4.547,12.537,9.007,18.189,13.282
		c6.395,6.512,9.42,11.482,7.926,13.905c-3.938,6.379-37.759-7.358-75.541-30.684C69.195,91.06,41.76,66.979,45.698,60.601
		c2.063-3.342,12.323-1.162,27.053,5.019c1.813,0.991,3.649,2.006,5.505,3.041l3.118-2.571c-5.816-2.756-11.45-5.445-16.738-7.896
		C24.331,36.638-5.596,25.622-9.694,32.115c-5.836,9.247,39.314,54.099,105.29,95.737c65.975,41.641,127.788,64.3,133.624,55.053
		c3.55-5.623-13.091-23.083-41.516-45.271c-7.977-7.637-18.684-16.438-30.063-25.072L156.402,117.879 M212.026,167.981
		c-4.008,6.349-61.597-15.271-112.347-47.301C48.93,88.649,9.036,48.335,13.043,41.987c1.523-2.414,9.875-0.26,22.427,5.094
		c-3.251-0.495-5.488-0.113-6.438,1.425c-5.396,8.74,30.172,42.263,75.002,69.938c44.83,27.675,91.547,48.226,96.943,39.485
		c0.856-1.388,0.431-3.459-1.023-6.051C208.752,159.924,213.416,165.779,212.026,167.981z"/>
</g>
</svg>
