<svg xmlns="http://www.w3.org/2000/svg" xmlns:xlink="http://www.w3.org/1999/xlink" viewBox= "0 0 64 63" width="64px" height="63px"><g id="Star2.svg"><path d="M32.0260009765625,11.363000869750977L37.505001068115234,25.159000396728516L52.0260009765625,25.894001007080078L40.67900085449219,34.91999816894531L44.38800048828125,50.404998779296875L32.09400177001953,41.270999908447266L19.666000366210938,50.404998779296875L23.743000030517578,35.27299880981445L12.024999618530273,25.894001007080078L26.683998107910156,24.923999786376953L32.0260009765625,11.363000869750977z" points="41.026,21.363 46.505,35.159 61.026,35.894 49.679,44.92 53.388,60.405 41.094,51.271   28.666,60.405 32.743,45.273 21.025,35.894 35.684,34.924 " fill="#FFFAE3"></path><path d="M32.0260009765625,11.363000869750977L37.505001068115234,25.159000396728516L52.0260009765625,25.894001007080078L40.67900085449219,34.91999816894531L44.38800048828125,50.404998779296875L32.09400177001953,41.270999908447266L19.666000366210938,50.404998779296875L23.743000030517578,35.27299880981445L12.024999618530273,25.894001007080078L26.683998107910156,24.923999786376953L32.0260009765625,11.363000869750977z" points="  41.026,21.363 46.505,35.159 61.026,35.894 49.679,44.92 53.388,60.405 41.094,51.271 28.666,60.405 32.743,45.273 21.025,35.894   35.684,34.924 " fill="none" stroke="#00559B" stroke-width="2.5"></path></g></svg>