<?xml version="1.0" encoding="utf-8"?>
<!-- Generator: Adobe Illustrator 15.0.0, SVG Export Plug-In . SVG Version: 6.00 Build 0)  -->
<!DOCTYPE svg PUBLIC "-//W3C//DTD SVG 1.1//EN" "http://www.w3.org/Graphics/SVG/1.1/DTD/svg11.dtd">
<svg version="1.1" id="Layer_1" xmlns="http://www.w3.org/2000/svg" xmlns:xlink="http://www.w3.org/1999/xlink" x="0px" y="0px"
	 width="159px" height="182px" viewBox="0 0 159 182" enable-background="new 0 0 159 182" xml:space="preserve">
<g id="Stool.svg">
	<path id="Stool" fill="#EAC78B" d="M104.354,66.74c4.905-0.666,9.517-1.521,13.762-2.536c0,12.541,0,99.499,0,101.987
		c0,2.682-13.762,4.324-13.762,1.363C104.354,164.883,104.354,82.717,104.354,66.74z M54.911,66.9
		c-0.938-0.121-1.867-0.246-2.785-0.381c-0.193-0.028-0.384-0.059-0.575-0.087c-0.969-0.146-1.926-0.298-2.871-0.458
		c-0.107-0.018-0.216-0.036-0.324-0.055c-1.049-0.181-2.082-0.368-3.098-0.566c-0.01-0.001-0.02-0.002-0.029-0.005
		c0,28.994,0,64.12,0,65.847c0,2.961,13.762,1.318,13.762-1.364c0-1.505,0-34.112,0-62.452c-1.16-0.121-2.304-0.254-3.436-0.395
		C55.338,66.958,55.126,66.928,54.911,66.9z M131.811,59.838c-0.678,0.286-1.375,0.567-2.094,0.843
		c-0.098,0.038-0.193,0.075-0.291,0.112c-0.695,0.263-1.406,0.521-2.135,0.771c-0.113,0.039-0.223,0.078-0.335,0.117
		c-0.825,0.28-1.667,0.554-2.536,0.82c0,29.548,0,69.085,0,70.756c0,2.683,6.484,5.734,9.668,4.093c0-2.013,0-48.772,0-78.534
		c-0.002,0-0.003,0.001-0.004,0.001c-0.682,0.325-1.389,0.644-2.119,0.955C131.914,59.793,131.861,59.815,131.811,59.838z
		 M26.715,60.037c-0.033-0.013-0.064-0.027-0.097-0.041c-0.96-0.398-1.879-0.809-2.755-1.229c-0.028-0.013-0.057-0.026-0.085-0.04
		c-0.391-0.188-0.768-0.378-1.142-0.571c-0.123-0.063-0.245-0.127-0.367-0.19c-0.362-0.19-0.72-0.383-1.065-0.577
		c-0.064-0.037-0.127-0.074-0.191-0.112c-0.745-0.424-1.449-0.856-2.109-1.299c-0.021-0.015-0.044-0.028-0.065-0.042
		c0,17.829,0,98.32,0,100.705c0,2.135,5.5,5.416,8.926,5.799V60.456C27.41,60.318,27.057,60.18,26.715,60.037z M11.875,34.258V46.01
		c0,12.361,30.065,22.384,67.151,22.384c37.085,0,67.151-10.022,67.151-22.384V34.258 M79.026,11.875
		c-37.086,0-67.151,10.021-67.151,22.383c0,12.363,30.065,22.384,67.151,22.384c37.085,0,67.151-10.021,67.151-22.384
		C146.178,21.896,116.111,11.875,79.026,11.875z"/>
	<path fill="#E0B679" d="M100.734,67.191c1.692-0.193,3.355-0.406,4.984-0.642V167.95l-5.023-3.125v-97.63
		C100.709,67.194,100.721,67.192,100.734,67.191z M43.563,65.016v65.492l2.913,1.696V65.588c-0.031-0.006-0.059-0.012-0.088-0.017
		c-0.951-0.177-1.887-0.36-2.808-0.552C43.574,65.018,43.57,65.017,43.563,65.016z M132.616,59.496v78.271l4.202-1.783V57.406
		c-0.004,0.002-0.006,0.003-0.01,0.006c-1.283,0.72-2.677,1.414-4.186,2.08C132.621,59.493,132.619,59.494,132.616,59.496z
		 M33.531,62.469c-0.032-0.01-0.062-0.021-0.095-0.03c-0.81-0.25-1.599-0.507-2.372-0.769c-0.014-0.005-0.029-0.012-0.043-0.016
		c-0.475-0.162-0.925-0.33-1.383-0.496v100.713l3.893-2.501V62.469z"/>
	<path id="StoolBorder" fill="#C69F67" d="M79.026,10C40.32,10,10,20.655,10,34.258V46.01c0,3.899,2.494,7.56,6.963,10.793v99.838
		c0,2.783,3.718,5.049,5.316,5.895c1.357,0.718,5.999,2.92,8.713,1.066l3.659-2.729c0.475-0.354,0.755-0.911,0.755-1.503V64.946
		c2.002,0.566,4.099,1.094,6.282,1.579v61.986c0,0.351,0.098,0.692,0.282,0.988l1.665,2.685c0.18,0.289,0.435,0.522,0.737,0.68
		c2.997,1.539,11.6,1.646,14.785-0.299c1.484-0.906,1.707-2.102,1.707-2.733V69.453c5.768,0.532,11.854,0.815,18.161,0.815
		c6.534,0,12.829-0.304,18.78-0.874v94.898c0,0.613,0.299,1.187,0.803,1.538l4.676,3.263c1.021,0.709,3.902,1.103,6.943,1.103
		c3.037,0,6.229-0.394,7.867-1.25c1.648-0.861,1.896-2.096,1.896-2.754V65.66c0.868-0.221,1.718-0.449,2.555-0.685v68.281
		c0,1.612,1.077,3.195,3.035,4.456c2.438,1.571,6.383,2.659,9.345,1.313l2.73-1.364c0.638-0.317,1.039-0.968,1.039-1.679V58.384
		c5.966-3.604,9.357-7.823,9.357-12.374V34.258C148.053,20.655,117.732,10,79.026,10z M57.115,129.432
		c-1.517,0.892-8.015,1.193-10.603,0.276l-1.074-1.731V67.301c3.69,0.708,7.593,1.3,11.677,1.766V129.432z M79.026,54.767
		c-39.047,0-65.276-10.604-65.276-20.509c0-9.905,26.229-20.508,65.276-20.508c39.047,0,65.276,10.604,65.276,20.508
		C144.302,44.162,118.073,54.767,79.026,54.767z M79.026,58.517c30.641,0,56.026-6.679,65.276-16.21v3.703
		c0,3.263-2.848,6.602-8.06,9.611c-0.243,0.078-0.465,0.205-0.651,0.367c-3.046,1.682-6.835,3.252-11.282,4.642
		c-0.31,0.017-0.599,0.109-0.849,0.26c-1.683,0.507-3.452,0.987-5.31,1.439c-0.346,0.002-0.646,0.074-0.918,0.22
		c-5.184,1.217-11.006,2.205-17.381,2.893c-0.25-0.021-0.502,0.005-0.729,0.077c-6.214,0.644-12.938,1-20.097,1
		c-6.933,0-13.461-0.335-19.511-0.94c-0.212-0.062-0.443-0.085-0.676-0.068c-5.194-0.541-10.031-1.281-14.458-2.183
		c-0.269-0.13-0.591-0.2-0.896-0.186c-3.229-0.681-6.232-1.446-8.993-2.282c-0.251-0.15-0.54-0.243-0.85-0.262
		c-1.4-0.439-2.736-0.896-4.004-1.371l-1.875-0.732c-2.981-1.218-5.53-2.525-7.604-3.889c-0.166-0.166-0.364-0.299-0.582-0.393
		c-3.787-2.626-5.826-5.442-5.826-8.203v-3.703C23,51.838,48.386,58.517,79.026,58.517z M104.782,68.578v96.988l-3.226-2.252V68.995
		C102.648,68.867,103.718,68.725,104.782,68.578z M116.24,66.553v99.15c-1.553,0.789-6.897,0.883-9.583,0.541V68.305
		C109.998,67.804,113.209,67.223,116.24,66.553z M131.68,61.851v74.033c-1.115-0.048-2.443-0.414-3.596-1.043
		c-1.266-0.69-1.759-1.387-1.789-1.584V63.836C128.2,63.214,129.988,62.547,131.68,61.851z M134.943,134.826l-1.391,0.695V61.045
		c0.469-0.213,0.941-0.423,1.391-0.64V134.826z M31.656,158.43l-2.018,1.508V63.098c0.666,0.238,1.324,0.479,2.018,0.706V158.43z
		 M27.764,62.4v98.146c-0.647-0.093-1.555-0.326-2.697-0.828c-2.617-1.149-4.208-2.659-4.354-3.077V59.166
		C22.795,60.318,25.169,61.396,27.764,62.4z"/>
</g>
</svg>
