<?xml version="1.0" encoding="utf-8"?>
<!-- Generator: Adobe Illustrator 15.0.0, SVG Export Plug-In . SVG Version: 6.00 Build 0)  -->
<!DOCTYPE svg PUBLIC "-//W3C//DTD SVG 1.1//EN" "http://www.w3.org/Graphics/SVG/1.1/DTD/svg11.dtd">
<svg version="1.1" id="Layer_1" xmlns="http://www.w3.org/2000/svg" xmlns:xlink="http://www.w3.org/1999/xlink" x="0px" y="0px"
	 width="306px" height="197px" viewBox="0 0 306 197" enable-background="new 0 0 306 197" xml:space="preserve">
<g id="Tree4.svg">
	<path id="lime" fill="#7FA50C" d="M180.923,52.872c0,8.199-26.168,15.588-39.219,15.588c-13.05,0-23.63-6.647-23.63-14.846
		c0-8.199,10.58-14.846,23.63-14.846C154.755,38.769,180.923,44.673,180.923,52.872 M205.339,28.626
		c0-3.682-8.179-6.667-18.267-6.667s-18.268,2.985-18.268,6.667c0,3.683,8.178,6.667,18.268,6.667
		C197.16,35.293,205.339,32.309,205.339,28.626"/>
	<path id="limeBorder" fill="#698304" d="M141.704,69.061c-13.36,0-24.229-6.929-24.229-15.446
		c0-8.517,10.869-15.446,24.229-15.446c12.163,0,39.817,5.555,39.817,14.704c0,5.327-9.471,9.451-15.115,11.435
		C158.314,67.15,148.388,69.061,141.704,69.061z M141.704,39.368c-12.698,0-23.03,6.391-23.03,14.246
		c0,7.854,10.332,14.246,23.03,14.246c6.562,0,16.329-1.883,24.305-4.686c9.097-3.197,14.313-6.952,14.313-10.303
		c0-3.292-5.209-6.773-14.291-9.553C158.309,40.956,148.532,39.368,141.704,39.368z M187.072,35.893
		c-10.58,0-18.867-3.192-18.867-7.267c0-4.074,8.287-7.267,18.867-7.267c10.578,0,18.865,3.192,18.865,7.267
		S197.65,35.893,187.072,35.893z M187.072,22.56c-10.567,0-17.668,3.136-17.668,6.066s7.101,6.067,17.668,6.067
		c10.566,0,17.667-3.137,17.667-6.067C204.738,25.696,197.641,22.56,187.072,22.56z"/>
	<path id="trunk" fill="#7A720B" d="M198.677,94.33c-1.448-2.842-6.616-6.385-6.353-8.517c0.296-2.363,3.296-4.365,3.591-7.023
		c0.297-2.658-4.336-5.456-2.703-5.678c1.631-0.221,3.192,2.514,4.394,4.714c1.201,2.2-3.601,4.6-3.399,7.2s5.619,7.591,5.619,7.591
		c2.616-3.721,5.47-6.529,8.155-6.213c5.021,0.59,11.224,0,15.949-2.954c4.725-2.954,8.562-4.431,9.45-5.611
		c0.888-1.182-1.185-7.976,2.065-9.748c3.248-1.772,7.089-1.477,9.154-2.953c2.066-1.477,7.385-3.25,9.451-3.544
		c2.066-0.296,6.498-4.431,6.498-4.431s-3.145,4.463-7.943,6.064c-4.801,1.6-11.201,5-15.201,6.399c-4,1.4-1.6,7.2-1.6,8.601
		c0,1.399-6.4,4.2-10,6.6c-3.602,2.4-9.199,5-13.602,5c-4.4,0-5.199,0.6-7.4,3c-1.75,1.91-5.271,7.741-6.639,10.047
		c4.443-1.896,9.307-4.143,11.881-5.246c4.135-1.772,14.176-7.089,18.902-10.042c4.726-2.953,12.699-11.519,19.787-11.814
		c7.09-0.295,10.93-1.771,12.701-0.886c1.771,0.885,5.608,2.067,11.519,0.886s8.86-2.067,8.86-2.067s-5.021,2.658-10.633,3.84
		c-5.611,1.182-9.156,0-10.931-1.182c-1.771-1.182-3.248,1.772-6.496,1.182c-3.25-0.59-6.498-0.886-9.155,0.591
		c-2.658,1.477-7.681,7.679-11.521,9.747c-3.84,2.067-13.882,9.156-18.312,10.929c-4.432,1.771-16.541,10.042-19.494,13.292
		c-2.953,3.248-7.088,6.793-13.586,10.336c-6.498,3.545-14.473,18.902-14.473,18.902s0.59,3.84,0.295,10.635
		c-0.295,6.793-3.558,26.828-4.432,29.533c-0.873,2.706-9.962,4.006-12.404-0.591c-0.587-2.33,12.406-24.517,10.042-34.853
		c-2.362-10.338-7.976-21.855-25.696-33.672c-17.721-11.812-40.759-26.286-44.599-31.603c-3.839-5.316-17.426-7.68-24.81-7.975
		c-7.384-0.296-18.312-5.021-21.561-5.316c-3.249-0.296-12.701-2.954-12.701-2.954s30.717,5.612,35.443,5.907
		c4.726,0.296,18.903,2.067,23.333,5.612c4.43,3.544,19.493,14.768,21.266,15.949c0.088,0.059,0.264,0.168,0.513,0.321
		c-1.069-2.276-1.702-4.486-4.058-5.343c-3.249-1.182-16.288-13.569-21.266-13.882C81.603,72.799,65.61,59.82,65.61,59.82
		c0.886,0.296,10.042,4.431,13.586,7.384c3.545,2.954,7.68,1.772,12.7,5.907c5.021,4.135,8.271,7.68,13.882,9.747
		c5.612,2.067,7.384,3.249,8.86,7.679c1.478,4.431,9.747,9.451,17.426,13.292c2.034,1.017,4.172,1.93,6.32,2.801l0.181,0.072
		c-1.485-1.277-2.959-2.507-3.817-3.119c-2.217-1.583-3.325-6.493-5.859-7.284c-2.534-0.792-3.959-3.959-4.751-5.543
		s-4.774-4.943-4.774-4.943c0.886,0.295,4.726,2.363,6.498,4.43c1.772,2.067,4.135,3.249,5.612,3.84s3.249,4.726,3.839,6.793
		c0.586,2.052,10.063,6.356,12.519,9.599l0.045,0.018c2.483,1.107,4.757,2.294,6.634,3.677c0,0-4.727-6.793-5.316-11.226
		c-0.59-4.43,1.477-10.631-1.477-14.472c-2.953-3.839-11.519-6.793-15.358-11.519c-3.839-4.726-0.295-9.156-6.202-13.291
		c-5.907-4.135-10.338-10.633-6.498-14.177c3.84-3.544,9.452-8.271,9.452-8.271c-2.659,2.363-7.679,6.793-8.566,9.747
		c-0.886,2.954,0.591,6.202,5.316,9.451c4.725,3.249,4.726,4.135,5.612,9.156c0.886,5.021,14.768,12.109,18.903,15.949
		c2.923,2.715,3.632,6.61,4.005,10.957l0.129-0.029c3.248-1.771,6.203-1.772,6.203-5.316s-3.418-10.373-2.067-10.174
		c1.352,0.199,3.229,7.339,3.313,11.508c0.084,4.049-4.91,5.149-7.427,6.004l0.003,0.046c0.082,1.163,0.161,2.347,0.271,3.542
		c0.592,6.498,3.545,9.155,6.498,12.995c0,0,3.545-3.544,6.202-9.155c0.091-0.189,0.185-0.369,0.275-0.552
		c-0.064-0.177-0.128-0.353-0.188-0.521c-1.199-3.398-5.6-3.199-4.799-5.6c0.799-2.4,3.398-6.4,2.199-12
		c-1.193-5.598-12.394-11.598-12.794-17.598c-0.131-1.967-0.196-3.502-0.064-4.771c-1.119-0.393-2.393-0.846-3.823-1.489
		c-5.907-2.658-18.688-13.965-17.363-14.286c1.325-0.321,11.57,8.794,15.117,11.208c1.535,1.044,4.041,1.816,6.487,2.691
		c0.586-1.538,1.782-2.673,4.047-3.953c4.6-2.6,6-2.6,6-7.4s-0.703-7.164-0.703-7.164c2.362,3.25,2.067,9.451,1.184,12.11
		c-0.824,2.468-7.5,4.174-8.924,7.006c2.583,1.023,4.82,2.267,5.379,4.217c1.182,4.136,3.249,6.793,8.564,9.452
		c5.315,2.658,7.088,7.974,9.155,12.701c0,0,1.183-3.84,5.021-10.338c3.84-6.498,6.203-9.451,6.203-11.519
		c0-2.068-0.295-2.067-0.295-2.067c-1.182-3.545-7.088-3.249-10.043-7.385c-2.953-4.135-5.021-10.041-8.563-12.995
		c-3.545-2.954-1.183-7.089,0.295-8.86c0,0-1.183,2.953-1.183,5.316c0,2.362,7.385,8.27,9.156,12.7
		c1.771,4.43,9.156,5.907,11.812,8.27c1.422,1.264,1.576,1.936,1.412,2.288c-0.344,0.224-0.525,0.371-0.525,0.371
		s0.383-0.064,0.525-0.371c1.035-0.677,3.529-2.065,6.857-2.288c4.43-0.295,7.975-4.726,12.405-5.611
		c4.431-0.886,10.633,1.182,13.881,0.295c3.248-0.886,6.793,0.295,11.812-0.295c3.9-0.459,10.115-5.727,12.695-8.058
		c-1.146,1.373-2.291,3.495-2.947,4.809c-0.887,1.772-4.137,3.249-7.385,4.43c-3.248,1.182-8.861,0-10.635-0.295
		c-1.771-0.295-0.887,2.067-5.609,1.182c-4.727-0.887-7.385-0.887-10.633-0.296c-3.25,0.591-2.363,2.954-5.613,4.431
		c-3.248,1.477-11.223,2.954-13.586,4.431c-2.362,1.477-5.021,10.337-9.155,19.198c-2.627,5.629-7.757,14.595-11.604,21.827
		c1.434,2.896,4.734,4.122,5.088,9.789l0.019,0.282c-0.005-0.098-0.013-0.188-0.019-0.283c4.988-5.59,11.146-12.258,14.49-13.305
		c0.613-0.189,1.316-0.438,2.084-0.726l0.574-1.933c1.357-2.605,3.023-5.734,4.843-8.567L198.677,94.33z M166.925,118.895
		c-1.526,4.838-0.2,6.385,0.384,9.559c1.271-0.965,2.646-2.161,4.049-3.651c0.653-0.694,1.418-1.541,2.259-2.481
		c-0.005,0.07-0.009,0.109-0.009,0.109l0.009-0.109c0.051-0.668,0.259-4.299-1.009-6.29c-0.631-0.989-1.461-2.669-2.295-4.521
		C168.697,114.621,167.443,117.252,166.925,118.895z M158.064,74.885c0.107,0.124,0.229,0.244,0.355,0.364
		c-0.031-0.991-0.127-2.431-0.355-4.499c-0.369-3.323-1.777-4.338-4.224-5.281C153.902,68.597,155.982,72.543,158.064,74.885z
		 M154.814,118.6c-1.271-0.688-5.98-3.193-11.795-6.35c5.217,3.716,9.418,7.105,10.909,9.301c5.021,7.385,5.908,10.635,7.088,10.34
		c0.101-0.025,0.229-0.063,0.371-0.111c-0.147-1.069-0.371-2.694-0.666-4.91C160.132,122.438,158.654,120.665,154.814,118.6z
		 M174.014,92.901c0.295-5.316-1.182-7.975-4.431-10.633c-1.522-1.247-4.089-2.43-6.382-3.333c2.107,1.889,4.142,4.643,4.904,9.536
		c1.477,9.451-2.362,9.451,0.295,11.814c0.688,0.611,1.137,1.124,1.441,1.62C171.891,98.894,173.8,96.743,174.014,92.901z"/>
	<path id="trunkBorder" fill="#605709" d="M157.085,184.559c-3.272,0-5.8-1.226-6.935-3.356l-0.052-0.138
		c-0.231-0.918,0.686-3.08,2.78-7.887c3.507-8.045,8.81-20.199,7.259-26.979c-2.053-8.979-6.799-20.875-25.444-33.307
		c-3.444-2.297-7.163-4.742-10.759-7.104c-15.16-9.967-30.835-20.273-33.993-24.645c-3.659-5.066-16.876-7.427-24.348-7.726
		c-4.696-0.188-10.64-2.086-15.416-3.61c-2.694-0.86-5.021-1.604-6.175-1.708c-3.267-0.298-12.42-2.864-12.809-2.974l0.271-1.168
		c0.307,0.056,30.735,5.609,35.372,5.898c2.456,0.153,9.691,0.911,15.773,2.477c-6.612-3.343-16.838-11.613-17.37-12.045
		l-2.56-2.077l3.127,1.042c0.757,0.252,10.048,4.381,13.781,7.493c1.526,1.272,3.162,1.725,5.055,2.249
		c2.262,0.626,4.826,1.336,7.642,3.655c1.063,0.875,2.041,1.719,2.986,2.535c3.431,2.961,6.394,5.518,10.721,7.111
		c5.775,2.127,7.686,3.442,9.223,8.053c1.147,3.44,7.068,7.917,17.125,12.944c3,1.5,6.255,2.784,9.404,4.024
		c3.913,1.543,7.654,3.021,10.76,4.822c-1.465-2.418-3.509-6.214-3.896-9.119c-0.211-1.578-0.101-3.308,0.017-5.138
		c0.21-3.297,0.428-6.705-1.375-9.048c-1.35-1.755-4.011-3.363-6.828-5.065c-3.176-1.919-6.459-3.904-8.521-6.441
		c-1.781-2.192-2.063-4.287-2.336-6.313c-0.338-2.514-0.63-4.684-3.745-6.864c-4.74-3.318-7.95-7.636-8.177-11
		c-0.11-1.635,0.434-3.017,1.616-4.109c3.806-3.514,9.416-8.241,9.472-8.289l0.785,0.908l-0.119,0.106
		c-2.602,2.312-7.446,6.618-8.27,9.365c-1.088,3.625,2.163,6.778,5.082,8.785c4.763,3.274,4.957,4.377,5.771,9.02l0.093,0.526
		c0.549,3.11,6.996,7.417,12.176,10.877c2.76,1.843,5.143,3.436,6.544,4.737c2.921,2.712,3.722,6.466,4.118,10.492
		c0.625-0.305,1.229-0.556,1.779-0.784c2.142-0.888,3.433-1.424,3.433-3.657c0-1.626-0.804-4.117-1.451-6.119
		c-0.851-2.632-1.177-3.724-0.739-4.324c0.183-0.249,0.465-0.376,0.812-0.325c2.071,0.306,3.755,8.642,3.825,12.09
		c0.086,4.067-4.329,5.468-6.967,6.305c-0.146,0.047-0.289,0.093-0.429,0.136l0.002,0.031c0.07,1.005,0.144,2.045,0.237,3.081
		c0.486,5.353,2.604,7.979,5.061,11.024c0.291,0.361,0.586,0.727,0.883,1.102c1.035-1.152,3.601-4.229,5.619-8.488
		c0.055-0.117,0.108-0.227,0.166-0.336c-0.035-0.095-0.067-0.188-0.102-0.279c-0.518-1.465-1.748-2.188-2.834-2.823
		c-1.188-0.695-2.528-1.484-1.971-3.164c0.168-0.502,0.398-1.045,0.668-1.674c1.027-2.412,2.437-5.714,1.517-10.011
		c-0.526-2.458-3.31-5.186-6-7.823c-3.237-3.174-6.586-6.456-6.812-9.862c-0.121-1.812-0.181-3.216-0.104-4.399
		c-1.097-0.389-2.201-0.8-3.433-1.354c-2.518-1.133-6.64-4.004-11.027-7.68c-3.149-2.64-6.883-6.015-6.782-7.103
		c0.029-0.311,0.245-0.559,0.551-0.633c0.069-0.017,0.142-0.025,0.218-0.025c1.098,0,3.904,2.179,9.606,6.805
		c2.312,1.875,4.496,3.647,5.772,4.516c1.211,0.825,3.107,1.486,5.115,2.187c0.235,0.083,0.472,0.165,0.708,0.248
		c0.688-1.39,1.916-2.501,4.078-3.723c0.629-0.355,1.198-0.663,1.713-0.94c3.218-1.735,3.981-2.147,3.981-5.937
		c0-4.633-0.671-6.97-0.678-6.993l-0.978-3.322l2.037,2.799c2.625,3.608,2.107,10.125,1.266,12.652
		c-0.481,1.45-2.432,2.538-4.491,3.689c-1.604,0.896-3.255,1.817-4.101,2.847c2.246,0.947,4.451,2.223,5.057,4.332
		c1.218,4.265,3.379,6.641,8.257,9.08c4.957,2.479,6.909,7.066,8.797,11.503c0.017,0.036,0.03,0.073,0.047,0.109
		c0.668-1.686,2.048-4.785,4.55-9.018c1.108-1.878,2.08-3.436,2.938-4.809c1.984-3.184,3.182-5.104,3.182-6.404
		c0-0.796-0.045-1.236-0.086-1.468h-0.041l-0.138-0.41c-0.517-1.551-2.192-2.295-4.132-3.156c-2.008-0.892-4.282-1.903-5.829-4.068
		c-1.128-1.58-2.138-3.426-3.11-5.211c-1.584-2.9-3.224-5.899-5.351-7.673c-1.708-1.423-2.378-3.309-1.938-5.455
		c0.406-1.988,1.645-3.635,2.157-4.251l2.419-2.903l-1.4,3.51c-0.012,0.028-1.139,2.877-1.139,5.094
		c0,0.944,1.975,3.164,3.715,5.122c2.094,2.355,4.467,5.025,5.398,7.355c1.051,2.628,4.385,4.198,7.326,5.582
		c1.705,0.803,3.315,1.561,4.33,2.462c0.543,0.483,1.176,1.107,1.481,1.75c1.375-0.772,3.578-1.715,6.351-1.901
		c2.211-0.147,4.209-1.41,6.322-2.746c1.883-1.19,3.827-2.42,6.004-2.855c0.799-0.16,1.687-0.238,2.711-0.238
		c1.653,0,3.385,0.204,5.057,0.401c1.512,0.178,2.939,0.346,4.171,0.346c0.774,0,1.397-0.067,1.903-0.205
		c0.91-0.248,1.908-0.364,3.145-0.364c0.825,0,1.678,0.049,2.576,0.102c1.004,0.059,2.041,0.119,3.163,0.119
		c1.062,0,2.052-0.056,3.021-0.169c3.742-0.44,9.894-5.677,12.363-7.907l0.861,0.83c-1.139,1.359-2.288,3.523-2.873,4.692
		c-0.812,1.624-3.189,3.081-7.715,4.726c-1.008,0.365-2.306,0.551-3.854,0.551c-2.467,0-5.08-0.464-6.483-0.714
		c-0.229-0.041-0.433-0.077-0.599-0.104c-0.067-0.012-0.134-0.018-0.19-0.018c-0.228,0-0.336,0.091-0.619,0.352
		c-0.482,0.445-1.146,1.056-2.836,1.056c-0.566,0-1.232-0.07-1.978-0.21c-2.571-0.482-4.5-0.697-6.26-0.697
		c-1.347,0-2.628,0.124-4.156,0.402c-1.479,0.269-1.918,0.906-2.526,1.789c-0.564,0.818-1.267,1.835-2.944,2.598
		c-1.528,0.695-4.067,1.388-6.521,2.058c-2.847,0.776-5.787,1.58-6.996,2.335c-1.367,0.854-3.072,5.035-5.047,9.878
		c-1.136,2.78-2.421,5.932-3.884,9.065c-1.769,3.792-4.698,9.147-7.532,14.326c-1.332,2.434-2.707,4.943-3.937,7.249
		c0.428,0.764,1.006,1.428,1.614,2.127c1.295,1.485,2.744,3.147,3.244,6.259c5.396-6.004,10.709-11.488,13.861-12.475
		c0.504-0.158,1.1-0.363,1.773-0.611l0.531-1.752c1.438-2.76,3.004-5.674,4.709-8.359c-0.633-1.065-1.793-2.264-2.918-3.427
		c-1.89-1.951-3.521-3.637-3.332-5.142c0.162-1.294,1.004-2.446,1.819-3.562c0.806-1.1,1.636-2.236,1.771-3.453
		c0.133-1.187-1.07-2.563-1.95-3.569c-0.798-0.914-1.28-1.465-1.054-2.068c0.082-0.22,0.291-0.497,0.815-0.568
		c0.091-0.012,0.179-0.018,0.269-0.018c1.832,0,3.285,2.383,4.733,5.039c0.834,1.529-0.396,2.96-1.582,4.343
		c-0.896,1.044-1.821,2.124-1.748,3.098c0.136,1.751,3.25,5.115,4.925,6.744c3.11-4.274,5.842-6.207,8.321-5.916
		c1.14,0.134,2.304,0.202,3.463,0.202c3.279,0,8.041-0.532,12.099-3.068c2.104-1.315,4.043-2.345,5.602-3.171
		c1.828-0.972,3.273-1.739,3.688-2.292c0.18-0.252,0.123-1.508,0.082-2.425c-0.114-2.597-0.271-6.152,2.18-7.489
		c1.726-0.94,3.599-1.323,5.249-1.661c1.571-0.321,2.93-0.599,3.848-1.254c2.146-1.534,7.494-3.333,9.716-3.649
		c1.543-0.221,4.979-3.161,6.174-4.275l4.25-3.967l-3.353,4.751c-0.135,0.189-3.315,4.644-8.246,6.287
		c-2.567,0.855-5.59,2.229-8.51,3.554c-2.479,1.127-4.822,2.192-6.685,2.843c-2.455,0.859-2.062,3.695-1.447,6.525
		c0.142,0.643,0.248,1.15,0.248,1.508c0,1.208-2.022,2.388-5.905,4.542c-1.535,0.853-3.123,1.733-4.358,2.558
		c-3.529,2.353-9.298,5.101-13.935,5.101c-4.226,0-4.877,0.536-6.957,2.806c-1.394,1.519-3.955,5.614-5.61,8.354
		c2.028-0.883,4.067-1.797,5.916-2.624c1.702-0.763,3.174-1.422,4.258-1.887c4.196-1.799,14.224-7.125,18.821-9.999
		c1.312-0.819,2.938-2.128,4.656-3.514c4.522-3.641,10.149-8.172,15.426-8.391c3.125-0.13,5.595-0.49,7.576-0.778
		c1.487-0.216,2.664-0.388,3.617-0.388c0.76,0,1.33,0.109,1.799,0.343c0.983,0.493,3.14,1.32,6.479,1.32
		c1.479,0,3.045-0.163,4.653-0.485c5.806-1.161,8.775-2.045,8.808-2.054l0.453,1.105c-0.209,0.11-5.16,2.711-10.789,3.896
		c-1.584,0.333-3.107,0.502-4.53,0.502c-3.651,0-5.862-1.11-6.854-1.772c-0.186-0.123-0.359-0.181-0.553-0.181
		c-0.408,0-0.902,0.256-1.475,0.553c-0.851,0.44-1.906,0.989-3.279,0.989c-0.316,0-0.643-0.029-0.967-0.088
		c-1.215-0.221-2.807-0.474-4.35-0.474c-1.757,0-3.197,0.327-4.408,0.999c-1.125,0.625-2.795,2.242-4.564,3.954
		c-2.236,2.165-4.771,4.618-6.96,5.797c-1.433,0.771-3.813,2.298-6.337,3.916c-4.326,2.773-9.229,5.917-12.037,7.04
		c-4.305,1.724-16.373,9.949-19.271,13.138c-3.598,3.958-8.094,7.38-13.742,10.461c-5.905,3.222-13.25,16.812-14.139,18.484
		c0.115,0.878,0.533,4.557,0.272,10.551c-0.284,6.556-3.522,26.794-4.459,29.693C163.05,183.57,159.893,184.559,157.085,184.559z
		 M151.258,180.725c1.335,2.375,4.512,2.633,5.829,2.633c2.854,0,5.111-1.051,5.429-2.031c0.821-2.549,4.103-22.467,4.4-29.377
		c0.289-6.643-0.282-10.479-0.288-10.516l-0.03-0.193l0.092-0.174c0.328-0.635,8.134-15.562,14.717-19.153
		c5.529-3.017,9.924-6.356,13.43-10.214c3.043-3.348,15.204-11.641,19.715-13.445c2.703-1.081,7.555-4.192,11.834-6.937
		c2.652-1.701,4.943-3.17,6.416-3.962c2.043-1.1,4.516-3.492,6.694-5.603c1.907-1.846,3.556-3.439,4.815-4.141
		c1.395-0.774,3.024-1.15,4.989-1.15c1.642,0,3.302,0.264,4.564,0.494c0.253,0.046,0.506,0.069,0.751,0.069
		c1.08,0,1.918-0.435,2.728-0.855c0.683-0.354,1.324-0.688,2.025-0.688c0.43,0,0.838,0.129,1.219,0.383
		c0.881,0.586,2.854,1.57,6.188,1.57c1.341,0,2.779-0.161,4.281-0.477c1.102-0.231,2.18-0.522,3.201-0.838
		c-0.381,0.079-0.775,0.16-1.188,0.242c-1.688,0.337-3.334,0.509-4.893,0.509c-3.586,0-5.935-0.906-7.014-1.446
		c-0.291-0.146-0.705-0.217-1.264-0.217c-0.865,0-2.004,0.166-3.443,0.375c-2.012,0.292-4.516,0.657-7.701,0.79
		c-4.879,0.203-10.336,4.597-14.721,8.127c-1.75,1.408-3.402,2.739-4.775,3.597c-4.633,2.896-14.748,8.27-18.982,10.086
		c-1.074,0.461-2.541,1.117-4.239,1.878c-2.369,1.062-5.058,2.266-7.642,3.367l-1.688,0.721l0.938-1.578
		c1.426-2.403,4.934-8.204,6.713-10.146c2.373-2.59,3.382-3.195,7.843-3.195c4.368,0,9.877-2.639,13.269-4.899
		c1.275-0.852,2.889-1.745,4.442-2.609c2.049-1.136,5.144-2.852,5.29-3.51c-0.001-0.211-0.107-0.709-0.225-1.235
		c-0.502-2.317-1.438-6.631,2.226-7.912c1.812-0.634,4.131-1.688,6.584-2.803c2.948-1.339,5.996-2.724,8.624-3.6
		c0.254-0.084,0.5-0.177,0.742-0.276c-2.412,0.568-6.545,2.059-8.206,3.245c-1.125,0.804-2.669,1.119-4.304,1.453
		c-1.646,0.337-3.352,0.685-4.914,1.539c-1.795,0.979-1.655,4.102-1.557,6.382c0.066,1.519,0.115,2.616-0.318,3.198
		c-0.576,0.767-1.975,1.509-4.088,2.632c-1.539,0.818-3.457,1.836-5.524,3.129c-4.3,2.687-9.298,3.25-12.734,3.25
		c-1.207,0-2.418-0.07-3.604-0.209c-0.114-0.013-0.229-0.02-0.346-0.02c-2.023,0-4.473,2.027-7.276,6.026l-0.935,1.33l0.016,0.028
		l-0.188,0.29c-1.744,2.71-3.347,5.69-4.818,8.516l-0.643,2.163l-0.279,0.104c-0.812,0.305-1.522,0.553-2.115,0.736
		c-3.473,1.084-10.731,9.221-14.225,13.131l-0.957,1.071l-0.088-1.435c-0.226-3.607-1.688-5.286-3.102-6.909
		c-0.73-0.841-1.422-1.634-1.926-2.65l-0.138-0.276l0.146-0.271c1.27-2.387,2.703-5.008,4.091-7.542
		c2.825-5.162,5.746-10.501,7.499-14.257c1.449-3.107,2.729-6.244,3.857-9.011c2.224-5.447,3.828-9.383,5.522-10.442
		c1.358-0.849,4.252-1.639,7.315-2.476c2.408-0.657,4.898-1.337,6.341-1.992c1.375-0.625,1.923-1.419,2.452-2.187
		c0.654-0.949,1.332-1.93,3.301-2.288c1.604-0.292,2.951-0.421,4.372-0.421c1.835,0,3.833,0.221,6.479,0.717
		c0.673,0.126,1.265,0.19,1.757,0.19c1.224,0,1.631-0.375,2.022-0.738c0.129-0.119,0.271-0.248,0.437-0.361
		c-0.797,0.037-1.478,0.136-2.101,0.306c-0.608,0.166-1.336,0.247-2.222,0.247c-1.301,0-2.764-0.172-4.312-0.354
		c-1.638-0.193-3.329-0.393-4.916-0.393c-0.942,0-1.754,0.07-2.475,0.214c-1.958,0.392-3.81,1.562-5.599,2.693
		c-2.147,1.358-4.369,2.762-6.885,2.929c-3.236,0.216-5.674,1.604-6.57,2.191l-1.756,1.149l0.885-1.904l0,0
		c-0.004,0,0.019-0.445-1.268-1.587c-0.885-0.786-2.42-1.508-4.045-2.273c-3.142-1.479-6.701-3.155-7.929-6.222
		c-0.642-1.602-2.095-3.457-3.638-5.247c0.678,1.108,1.313,2.275,1.942,3.427c0.957,1.754,1.949,3.567,3.035,5.088
		c1.354,1.9,3.381,2.799,5.34,3.669c2.048,0.909,3.983,1.77,4.722,3.699c0.313,0.385,0.389,1.228,0.389,2.432
		c0,1.646-1.195,3.561-3.363,7.039c-0.854,1.368-1.82,2.919-2.922,4.785c-3.75,6.346-4.953,10.171-4.965,10.209l-0.477,1.542
		l-0.646-1.479c-0.217-0.496-0.432-0.999-0.646-1.505c-1.802-4.237-3.666-8.618-8.229-10.899c-5.16-2.58-7.564-5.242-8.874-9.823
		c-0.522-1.833-2.959-3.006-5.021-3.824l-0.609-0.241l0.294-0.585c0.797-1.586,2.907-2.766,4.95-3.906
		c1.771-0.989,3.604-2.011,3.939-3.021c0.188-0.564,0.352-1.312,0.463-2.166c-0.506,2.31-1.883,3.053-4.387,4.403
		c-0.509,0.274-1.07,0.577-1.691,0.929c-2.166,1.225-3.263,2.28-3.782,3.646l-0.209,0.55l-0.553-0.198
		c-0.41-0.146-0.821-0.29-1.229-0.432c-2.084-0.729-4.053-1.415-5.395-2.328c-1.318-0.896-3.521-2.684-5.854-4.576
		c-2.263-1.836-5.355-4.344-7.265-5.656c3.052,3.156,11.3,10.174,15.948,12.267c1.464,0.658,2.8,1.127,3.776,1.47l0.447,0.157
		l-0.049,0.471c-0.124,1.195-0.066,2.673,0.067,4.669c0.196,2.95,3.378,6.069,6.455,9.085c2.947,2.889,5.73,5.618,6.334,8.429
		c1,4.668-0.557,8.317-1.586,10.732c-0.258,0.604-0.479,1.127-0.633,1.583c-0.223,0.668,0.087,0.957,1.438,1.749
		c1.201,0.704,2.695,1.581,3.358,3.461c0.058,0.165,0.121,0.338,0.185,0.514l0.09,0.242l-0.203,0.403
		c-0.062,0.121-0.123,0.241-0.186,0.368c-2.672,5.641-6.172,9.175-6.318,9.322l-0.483,0.482l-0.417-0.541
		c-0.436-0.566-0.872-1.107-1.301-1.639c-2.469-3.062-4.801-5.955-5.319-11.668c-0.095-1.049-0.168-2.094-0.237-3.105l-0.068-0.958
		l0.438-0.148c0.271-0.093,0.569-0.188,0.888-0.288c2.617-0.83,6.196-1.966,6.131-5.137c-0.006-0.341-0.023-0.694-0.053-1.054
		c-0.121,2.795-2,3.574-4.166,4.473c-0.666,0.277-1.354,0.562-2.062,0.929l-0.041,0.434l-1.195-0.009
		c-0.34-4.369-0.892-8.521-3.875-11.291c-1.331-1.235-3.79-2.879-6.394-4.618c-5.65-3.774-12.054-8.052-12.691-11.667l-0.093-0.528
		c-0.798-4.549-0.92-5.249-5.268-8.237c-5.884-4.046-6.266-7.735-5.551-10.119c0.124-0.413,0.318-0.848,0.569-1.298
		c-0.161,0.146-0.319,0.292-0.475,0.435c-0.902,0.833-1.317,1.892-1.232,3.147c0.2,2.969,3.282,7.027,7.668,10.098
		c3.546,2.481,3.902,5.128,4.246,7.687c0.262,1.947,0.51,3.787,2.078,5.717c1.93,2.375,5.122,4.304,8.209,6.17
		c2.917,1.763,5.671,3.428,7.159,5.361c2.078,2.701,1.846,6.338,1.621,9.856c-0.113,1.77-0.22,3.441-0.024,4.903
		c0.564,4.237,5.167,10.894,5.213,10.96l2.07,2.977l-2.92-2.149c-3.338-2.462-7.962-4.284-12.858-6.216
		c-3.172-1.252-6.453-2.545-9.5-4.068c-10.495-5.248-16.46-9.836-17.727-13.638c-1.4-4.199-2.977-5.271-8.5-7.306
		c-4.532-1.669-7.571-4.292-11.09-7.329c-0.94-0.812-1.913-1.651-2.965-2.518c-2.619-2.156-4.948-2.801-7.199-3.425
		c-1.943-0.538-3.778-1.046-5.504-2.483c-2.012-1.677-5.828-3.72-8.881-5.215c5.831,4.446,13.668,9.872,16.687,10.062
		c3.265,0.205,9.288,4.91,14.602,9.061c2.922,2.282,5.682,4.438,6.831,4.856c2.244,0.817,3.07,2.681,3.945,4.655
		c0.145,0.328,0.293,0.662,0.451,0.997l0.854,1.817l-1.711-1.051c-0.258-0.158-0.439-0.272-0.531-0.333
		c-1.834-1.223-16.953-12.496-21.308-15.98c-4.103-3.282-17.51-5.139-22.996-5.481c-2.148-0.134-9.471-1.331-16.918-2.613
		c0.229,0.073,0.462,0.146,0.699,0.223c4.707,1.503,10.565,3.373,15.099,3.555c8.002,0.32,21.337,2.773,25.272,8.223
		c3.028,4.193,18.61,14.438,33.679,24.345c3.598,2.365,7.317,4.812,10.766,7.109c18.999,12.664,23.846,24.843,25.947,34.035
		c1.64,7.164-3.758,19.539-7.328,27.728C152.624,176.766,151.223,179.977,151.258,180.725z M193.729,84.005
		c-0.414,0.636-0.729,1.257-0.808,1.882c-0.116,0.935,1.539,2.646,3.002,4.158c1.11,1.149,2.257,2.331,2.974,3.464l0.225-0.705
		c-1.209-1.152-5.32-5.242-5.514-7.732C193.579,84.705,193.626,84.35,193.729,84.005z M87.345,73.854
		c1.273,0.523,2.361,1.104,3.162,1.744c3.801,3.041,15.818,12.028,19.974,15.034c-0.657-1.397-1.383-2.546-2.833-3.074
		c-1.328-0.482-3.901-2.493-7.159-5.038C96.217,79.184,90.499,74.717,87.345,73.854z M159.102,82.302
		c0.176,0.676,0.463,1.563,0.713,2.34c0.356,1.105,0.737,2.285,1.026,3.416C160.372,85.675,159.675,83.439,159.102,82.302z
		 M193.768,73.773c0.155,0.192,0.346,0.408,0.506,0.591c1.024,1.174,2.431,2.781,2.24,4.492c-0.08,0.707-0.318,1.357-0.643,1.974
		c0.997-1.177,1.586-2.022,1.208-2.717C196.316,76.717,194.962,74.232,193.768,73.773z M230.093,58.133
		c1.353,0.211,3.05,0.422,4.658,0.422c1.412,0,2.571-0.161,3.444-0.479c1.508-0.548,6.094-2.215,7.053-4.135
		c0.214-0.427,0.46-0.901,0.729-1.393c-3.134,2.523-7.019,5.171-9.865,5.506c-1.019,0.119-2.051,0.178-3.158,0.178
		C231.934,58.232,230.996,58.185,230.093,58.133z M160.872,132.507c-0.968,0-1.552-1.007-2.963-3.438
		c-0.994-1.713-2.354-4.062-4.476-7.178c-1.299-1.91-4.92-4.988-10.763-9.15l0.635-1.016c4.414,2.395,8.249,4.445,10.31,5.551
		c0.673,0.358,1.179,0.631,1.482,0.795c4.176,2.248,5.627,4.285,6.219,8.72c0.295,2.215,0.519,3.838,0.664,4.907l0.068,0.496
		l-0.476,0.156c-0.158,0.053-0.302,0.096-0.411,0.121C161.066,132.495,160.968,132.507,160.872,132.507z M149.667,116.52
		c2.37,1.94,3.942,3.494,4.757,4.694c2.145,3.154,3.52,5.521,4.521,7.252c0.703,1.212,1.373,2.367,1.754,2.729
		c-0.143-1.041-0.334-2.448-0.572-4.247c-0.543-4.065-1.746-5.747-5.598-7.82c-0.307-0.165-0.812-0.437-1.482-0.795
		C152.197,117.875,151.042,117.257,149.667,116.52z M166.893,129.52l-0.177-0.959c-0.136-0.736-0.313-1.392-0.487-2.022
		c-0.562-2.046-1.09-3.979,0.125-7.824c0.479-1.517,1.565-3.896,3.426-7.483l0.57-1.103l0.51,1.133
		c0.892,1.984,1.69,3.563,2.254,4.445c1.328,2.09,1.179,5.625,1.102,6.659l-0.017,0.203l-0.136,0.15
		c-0.989,1.107-1.689,1.876-2.271,2.493c-1.297,1.378-2.685,2.629-4.123,3.72L166.893,129.52z M170.279,112.878
		c-1.467,2.89-2.381,4.921-2.782,6.195c-1.106,3.508-0.668,5.112-0.111,7.146c0.104,0.376,0.21,0.762,0.308,1.168
		c1.119-0.904,2.201-1.91,3.227-2.998c0.545-0.58,1.201-1.3,2.111-2.313c0.05-0.89,0.143-4.04-0.93-5.726
		C171.525,115.445,170.854,114.104,170.279,112.878z M169.818,103.009l-0.486-0.79c-0.282-0.459-0.704-0.932-1.329-1.484
		c-1.53-1.361-1.244-2.301-0.849-3.603c0.445-1.465,1.123-3.679,0.357-8.569c-0.808-5.169-3.076-7.716-4.713-9.181l-2.492-2.232
		l3.113,1.227c3.014,1.188,5.213,2.34,6.541,3.426c3.111,2.546,4.975,5.296,4.648,11.131c-0.191,3.477-1.693,5.617-3.433,8.096
		c-0.274,0.392-0.558,0.793-0.842,1.211L169.818,103.009z M165.568,80.602c1.632,2.126,2.644,4.656,3.131,7.776
		c0.806,5.163,0.054,7.631-0.397,9.105c-0.379,1.245-0.456,1.502,0.5,2.354c0.41,0.365,0.748,0.704,1.026,1.034
		c0.125-0.18,0.248-0.354,0.37-0.529c1.7-2.425,3.043-4.34,3.217-7.474c0.299-5.352-1.317-7.769-4.211-10.136
		C168.391,82.067,167.154,81.345,165.568,80.602z M159.066,76.693l-1.061-1.011c-0.139-0.131-0.271-0.264-0.393-0.4
		c-2.059-2.315-4.307-6.372-4.374-9.802l-0.018-0.893l0.833,0.321c2.684,1.035,4.213,2.262,4.603,5.775
		c0.2,1.808,0.321,3.337,0.36,4.546L159.066,76.693z M154.521,66.403c0.338,2.393,1.707,5.123,3.203,7.114
		c-0.062-0.81-0.146-1.712-0.257-2.702C157.184,68.257,156.305,67.231,154.521,66.403z"/>
	<path id="green" fill="#699303" d="M260.434,80.589c0,2.541-4.144,6.207-9.994,6.207c-5.854,0-9.732-3.394-9.732-5.934
		c0-2.54,2.93-6.409,8.783-6.409C255.343,74.453,260.434,78.049,260.434,80.589z M282.48,56.414
		c0-7.237-12.562-19.456-29.432-21.885l-0.477-0.091c-3.842-5.461-15.002-9.412-28.168-9.412c-8.312,0-15.816,1.576-21.193,4.11
		l-0.064-0.018c-3.137-0.825-6.727-1.293-10.541-1.293c-5.492,0-10.516,0.973-14.391,2.579l0,0
		c-0.992-1.356-2.293-2.626-3.865-3.781c0,0-2.207-1.407-3.158-1.918c3.328-1.996,9.137-3.32,15.881-3.32
		c0.412,0,1.224,0.04,1.224,0.04l0.615-0.04c0,0,0.051-0.382,0.051-0.577c0-3.424-4.836-10.207-14.005-10.207
		c-9.168,0-16.952,6.399-16.952,9.823c0,0.013,0.002,0.025,0.002,0.038c-2.672-0.413-5.487-0.638-8.401-0.638
		c-10.355,0-22.985,2.908-31.283,7.276c-3.771-1.262-8.635-2.021-14.811-2.021c-19.772,0.003-40.706,9.367-40.706,16.547
		c0,0.904,0.254,1.786,0.737,2.637c-0.773-0.022-1.551-0.037-2.337-0.037c-18.557,0-49.2,9.2-49.6,17.2s31.043,10.4,49.6,10.4
		c11.496,0,21.638-2.372,27.696-5.988c5.251,3.805,13.773,6.389,20.504,6.389c10.494,0,18.555-10.312,18.555-17.712
		c0-0.565-0.046-1.104-0.133-1.619c6.535,2.572,13.912,4.23,20.546,4.23c7.284,0,14.198-2.06,19.728-5.142l0,0
		c0.539,8.083,9.271,15.348,21.574,15.348c8,0,20.613-2.414,28.854-6.299l0.049-0.024c5.287,4.337,15.531,7.217,28.829,7.217
		C267.177,68.227,282.48,64.477,282.48,56.414z M295.619,72.863c0,3.756-5.73,6.8-12.801,6.8c-7.068,0-9.596-3.117-9.596-6.872
		s2.524-6.728,9.596-6.728C289.889,66.064,295.619,69.108,295.619,72.863z M193.205,76.826c0,4.529-8.596,8.2-19.2,8.2
		c-5.81,0-11.011-1.104-14.53-2.844l0,0c-0.964,3.61-7.297,6.458-15.226,6.807c-1.069,3.56-12.59,6.164-18.766,6.164
		c-6.48,0-11.733-3.104-11.733-6.934c0-3.829,5.253-6.934,11.733-6.934c0.041,0,0.084,0.002,0.126,0.002
		c-0.001-0.021-0.004-0.041-0.004-0.062c0-4.309,12.667-8.672,22.056-8.672c3.648,0,6.262,0.661,8.098,1.72
		c2.515-3.279,9.73-5.648,18.248-5.648C184.609,68.626,193.205,72.298,193.205,76.826z"/>
	<path id="greenBorder" fill="#687C11" d="M250.438,87.396c-5.914,0-10.332-3.449-10.332-6.534c0-2.938,3.262-7.009,9.384-7.009
		c6.106,0,11.543,3.767,11.543,6.736C261.032,83.672,256.307,87.396,250.438,87.396z M249.489,75.053
		c-5.271,0-8.185,3.435-8.185,5.809c0,2.175,3.56,5.334,9.133,5.334c5.449,0,9.396-3.349,9.396-5.607
		C259.832,78.453,255.1,75.053,249.489,75.053z M282.818,80.264c-8.869,0-10.192-4.682-10.192-7.472
		c0-2.737,1.323-7.328,10.192-7.328c7.515,0,13.398,3.25,13.398,7.399C296.218,77.013,290.333,80.264,282.818,80.264z
		 M282.818,66.664c-5.885,0-8.993,2.119-8.993,6.128c0,4.103,3.108,6.272,8.993,6.272c6.611,0,12.199-2.839,12.199-6.2
		C295.02,69.503,289.432,66.664,282.818,66.664z M125.483,95.753c-6.801,0-12.333-3.379-12.333-7.534
		c0-4.066,5.302-7.391,11.906-7.528c0.906-4.87,13.973-8.737,22.605-8.737c3.255,0,5.927,0.524,7.95,1.558
		c2.941-3.298,10.217-5.485,18.396-5.485c11.103,0,19.8,3.865,19.8,8.8s-8.697,8.8-19.8,8.8c-5.368,0-10.487-0.949-14.188-2.618
		c-1.539,3.514-7.565,6.149-15.152,6.562C142.795,93.417,131.397,95.753,125.483,95.753z M125.483,81.887
		c-6.139,0-11.134,2.841-11.134,6.333c0,3.492,4.995,6.334,11.134,6.334c6.204,0,17.273-2.682,18.191-5.737
		c0.073-0.245,0.293-0.416,0.548-0.427c7.608-0.335,13.779-3.011,14.67-6.362c0.047-0.174,0.168-0.318,0.332-0.392
		c0.164-0.074,0.354-0.071,0.514,0.009c3.576,1.768,8.773,2.782,14.267,2.782c10.082,0,18.601-3.479,18.601-7.6
		c0-4.119-8.519-7.6-18.601-7.6c-8.021,0-15.328,2.226-17.771,5.413c-0.185,0.238-0.517,0.305-0.776,0.154
		c-1.888-1.088-4.511-1.64-7.798-1.64c-9.625,0-21.456,4.451-21.456,8.072l0.003,0.051c0.003,0.162-0.06,0.318-0.174,0.434
		c-0.114,0.116-0.271,0.183-0.432,0.178L125.483,81.887z M128.559,54.515c0-0.236-0.008-0.469-0.023-0.702
		c6.717,2.528,13.725,3.913,19.837,3.913c6.568,0,13.359-1.694,19.225-4.785c0.536,3.87,2.825,7.474,6.521,10.23
		c4.116,3.07,9.642,4.762,15.558,4.762c7.5,0,20.07-2.179,28.817-6.222c5.765,4.526,16.267,7.115,28.913,7.115
		c10.277,0,18.969-1.006,25.13-2.909c6.998-2.162,10.547-5.359,10.547-9.503c0-7.416-12.647-20.077-30.155-22.508
		c-4.187-5.68-15.586-9.479-28.521-9.479c-8.037,0-15.571,1.446-21.251,4.075c-3.23-0.834-6.873-1.275-10.549-1.275
		c-5.158,0-10.174,0.868-14.188,2.45c-0.875-1.12-1.955-2.183-3.223-3.168c-0.055-0.275-0.297-0.482-0.588-0.482l-0.252-0.002
		c-0.002,0-0.002,0-0.002,0c-0.26,0-0.489,0.166-0.57,0.412c-0.081,0.247,0.005,0.518,0.215,0.672
		c1.525,1.122,2.783,2.351,3.734,3.652c0.164,0.224,0.459,0.306,0.715,0.2c3.939-1.634,8.969-2.533,14.16-2.533
		c3.654,0,7.27,0.446,10.451,1.29c0.138,0.036,0.282,0.023,0.41-0.037c5.54-2.615,12.979-4.055,20.936-4.055
		c12.725,0,23.854,3.69,27.691,9.182c0.096,0.138,0.245,0.229,0.411,0.251c16.761,2.225,29.373,14.488,29.373,21.354
		c0,6.917-13.211,11.213-34.478,11.213c-12.594,0-22.963-2.581-28.447-7.081c-0.18-0.147-0.428-0.177-0.639-0.079
		c-8.602,4.069-21.178,6.266-28.646,6.266c-12.512,0-20.489-7.519-20.975-14.787c-0.015-0.206-0.132-0.39-0.312-0.487
		c-0.181-0.099-0.397-0.098-0.577,0.003c-5.865,3.266-12.77,5.064-19.438,5.064c-6.249,0-13.468-1.487-20.329-4.188
		c-0.201-0.08-0.43-0.044-0.598,0.092c-0.168,0.136-0.25,0.354-0.214,0.565c0.086,0.512,0.127,1.009,0.127,1.52
		c0.003,6.891-7.537,17.112-17.952,17.112c-6.767,0-15.054-2.581-20.151-6.275c-0.194-0.141-0.454-0.151-0.66-0.029
		c-6.193,3.697-16.432,5.904-27.389,5.904c-19.655,0-43.086-2.392-48.08-7.642c-0.657-0.69-0.958-1.387-0.921-2.129
		c0.166-3.309,6.902-7.547,17.58-11.06c10.442-3.434,22.482-5.569,31.421-5.569c0.702,0,1.461,0.012,2.321,0.037
		c0.225,0.009,0.419-0.105,0.531-0.291c0.112-0.187,0.115-0.417,0.008-0.605c-0.438-0.771-0.66-1.559-0.66-2.341
		c0-3.163,4.817-7.152,12.571-10.412c8.365-3.517,18.402-5.533,27.535-5.533c5.757,0,10.676,0.67,14.62,1.99
		c0.155,0.052,0.325,0.039,0.47-0.038c8.188-4.311,20.647-7.207,31.004-7.207c2.802,0,5.598,0.212,8.312,0.631
		c0.176,0.027,0.354-0.025,0.489-0.144c0.134-0.119,0.208-0.29,0.201-0.468c0-0.009,0-0.025-0.002-0.04
		c0.033-3.044,7.588-9.203,16.353-9.203c8.674,0,13.403,6.347,13.403,9.607c0,0.331-0.061,0.654-0.178,0.961
		c-0.119,0.31,0.033,0.657,0.344,0.776c0.31,0.119,0.656-0.035,0.775-0.344c0.172-0.445,0.26-0.914,0.26-1.393
		c0-3.771-5.018-10.807-14.604-10.807c-8.851,0-16.675,5.823-17.481,9.775c-2.578-0.366-5.222-0.552-7.87-0.552
		c-10.438,0-22.989,2.899-31.336,7.227c-4.024-1.308-8.988-1.971-14.758-1.971c-19.302,0.001-41.307,9.134-41.307,17.145
		c0,0.676,0.128,1.351,0.381,2.014c-0.489-0.009-0.946-0.014-1.381-0.014c-17.675,0-49.758,8.957-50.199,17.77
		c-0.054,1.073,0.367,2.088,1.25,3.016c6.018,6.326,33.601,8.015,48.949,8.015c10.969,0,21.266-2.191,27.665-5.875
		c5.305,3.706,13.679,6.274,20.535,6.274C120.516,72.826,128.559,61.889,128.559,54.515z"/>
</g>
</svg>
