<?xml version="1.0" encoding="utf-8"?>
<!-- Generator: Adobe Illustrator 15.0.0, SVG Export Plug-In . SVG Version: 6.00 Build 0)  -->
<!DOCTYPE svg PUBLIC "-//W3C//DTD SVG 1.1//EN" "http://www.w3.org/Graphics/SVG/1.1/DTD/svg11.dtd">
<svg version="1.1" id="Layer_1" xmlns="http://www.w3.org/2000/svg" xmlns:xlink="http://www.w3.org/1999/xlink" x="0px" y="0px"
	 width="752px" height="406px" viewBox="0 0 752 406" enable-background="new 0 0 752 406" xml:space="preserve">
<g id="Whale.svg">
	<path id="BackDorsalFin" fill="#92DDF7" stroke="#2888A3" stroke-width="6" stroke-miterlimit="10" d="M495.401,310.912
		c0.638,0.936,1.353,1.846,2.176,2.721c16.604,17.682,47.578,45.387,56.688,41.66c7.869-3.221,12.021-21.529,13.764-43.779
		c-11.42,1.781-23.184,2.762-35.211,2.762C521.271,314.275,508.688,313.09,495.401,310.912z"/>
	<path id="BackFin" fill="#92DDF7" stroke="#2888A3" stroke-width="6" stroke-miterlimit="10" d="M206.503,13.994
		c-19.199,25.199-49.197,20.399-63.597,27.599c-14.399,7.2-13.199,33.599-13.199,33.599s-35.998-9.6-51.598-3.6
		C62.51,77.591,57.71,96.791,13.312,106.39c2.03,4.059,85.602,18.419,129.482,12.589c8.002-1.063,14.684-2.799,19.311-5.389
		C192.104,96.791,210.102,30.793,206.503,13.994z"/>
	<path id="Body" fill="#92DDF7" d="M240.738,196.819c-8.679-6.81-76.232-61.631-96.631-76.467
		c-8.238-6.704-7.089-37.327-7.089-37.327s25.087,10.928,89.884,19.328c0,0,108.014,7.086,124.756,6.508l2.315-0.126
		c54.787-2.859,114.886-2.459,161.243-2.459c56.271,0,111.202,13.068,152.103,30.143c41.31,17.246,68.302,38.578,67.897,54.657
		c0.458,37.271-89.292,123.199-202.397,123.199c-84.65,0-224.964-63.639-290.213-115.94L240.738,196.819z"/>
	<path id="BodyBorder" fill="#2888A3" d="M723.011,165.478c3.525,3.169,6.479,6.318,8.813,9.411
		c0.551,1.346,0.842,2.771,0.671,4.248c-0.424,3.648-3.323,6.45-8.619,8.33c-6.217,2.707-15.832-1.406-30.334-7.604
		c-13.867-5.926-31.124-13.301-49.982-16.221c-38.045-5.894-66.46,18.56-76.764,43.77l-0.069,0.156
		c-3.287,6.894-7.856,9.674-11.11,10.793c-1.648,0.565-3.357,0.848-5.038,0.848c-2.211,0-4.375-0.484-6.299-1.447
		c-1.482-0.74-2.083-2.543-1.344-4.023c0.74-1.483,2.543-2.084,4.024-1.344c1.929,0.963,4.435,1.071,6.705,0.293
		c3.089-1.062,5.72-3.699,7.61-7.627c6.102-14.878,16.943-27.861,30.539-36.564c15.582-9.976,33.793-13.703,52.662-10.783
		c19.604,3.036,37.246,10.575,51.423,16.633c11.224,4.796,21.829,9.327,25.628,7.601l0.249-0.1c2.849-0.997,4.627-2.268,4.758-3.399
		c0.255-2.193-3.744-5.996-6.729-7.898c-1.396-0.891-1.808-2.745-0.917-4.142C719.774,165.014,721.615,164.603,723.011,165.478z
		 M731.824,174.889c0.551,1.346,0.842,2.771,0.671,4.248c-0.194,1.674-0.917,3.167-2.146,4.478c1.279,2.6,1.928,5.078,1.869,7.387
		l-0.001,0.112c0.15,12.25-10.517,30.453-28.534,48.693c-34.129,34.551-96.938,71.471-170.863,71.471
		c-81.39,0-221.829-61.971-288.323-115.271l-1.907-1.547c-2.125-1.667-7.748-6.188-15.53-12.444
		c-22.945-18.446-65.622-52.756-81.114-64.034c-4.509-3.784-6.005-19.319-6.005-30.628c9.474,3.358,35.875,11.404,86.575,17.977
		l0.189,0.019c4.075,0.267,100.062,6.548,122.575,6.548c0.966,0,1.795-0.012,2.54-0.038l2.31-0.125
		c41.668-2.174,86.583-2.474,128.913-2.474c5.771,0,11.42,0.005,16.922,0.01c5.226,0.005,10.315,0.009,15.252,0.009
		c50.396,0,105.414,10.902,150.946,29.912c28.669,11.969,50.447,26.098,60.288,38.425c-0.591-2.227-4.013-5.386-6.646-7.066
		c-1.396-0.891-1.808-2.745-0.917-4.142c0.887-1.391,2.728-1.802,4.122-0.927c-12.052-10.836-30.786-21.913-54.535-31.827
		c-46.236-19.303-102.098-30.375-153.258-30.375c-4.935,0-10.023-0.004-15.246-0.009c-5.504-0.005-11.154-0.01-16.928-0.01
		c-42.411,0-87.421,0.301-129.232,2.482l-2.257,0.124c-0.628,0.021-1.388,0.032-2.273,0.032c-22.015,0-118.521-6.295-122.088-6.529
		c-63.378-8.224-88.73-18.985-88.976-19.091l-4.031-1.756l-0.165,4.394c-0.123,3.287-0.941,32.333,8.193,39.766l0.129,0.1
		c15.313,11.137,58.016,45.468,80.958,63.912c7.798,6.27,13.433,10.799,15.547,12.458l1.882,1.527
		c32.932,26.396,84.727,55.56,138.553,78.011c59.658,24.885,114.185,38.588,153.537,38.588c75.774,0,140.151-37.84,175.133-73.254
		c19.381-19.618,30.408-38.904,30.266-52.924C738.328,186.024,736.1,180.549,731.824,174.889z M577.309,124.153
		c2.903-0.907,4.748-2.739,5.062-5.028c0.224-1.642-0.926-3.154-2.567-3.378c-1.528-0.206-2.954,0.779-3.315,2.249
		c-0.545,0.401-2.661,1.147-6.065,0.681c-3.408-0.465-5.243-1.75-5.661-2.282c0.043-1.512-1.061-2.845-2.593-3.055
		c-1.637-0.22-3.154,0.924-3.379,2.567c-0.313,2.289,0.974,4.548,3.527,6.2c1.921,1.242,4.511,2.136,7.293,2.516
		c0.979,0.133,1.949,0.199,2.894,0.199C574.244,124.82,575.893,124.595,577.309,124.153z"/>
	<path id="DorsalFin1" fill="#92DDF7" stroke="#2888A3" stroke-width="6" stroke-miterlimit="10" d="M489.92,269.17
		c1.475,15.725-34.587,123.143-56.984,123.586c-9.843,0.197-28.757-36.807-37.877-59.281c-11.634-28.676,43.32-53.768,49.403-57.638
		C470.811,258.545,488.444,258.387,489.92,269.17z"/>
	<path id="Callosities" fill="#FFFBEE" stroke="#2888A3" stroke-width="5" stroke-miterlimit="10" d="M720.019,164.675
		c-3.305,8.389-18.521,5.448-32.383-0.011c-13.857-5.458-29.617-15.083-26.312-23.472c3.303-8.389,21.636-10.775,35.496-5.317
		C710.678,141.333,723.322,156.287,720.019,164.675z M731.261,220.716c3.853-6.3,7.463-17.813,1.052-24.15
		c-6.788-6.513-13.302,8.4-18.199,13.3c-4.9,4.899-13.415,12.913-7,19.25C713.523,235.453,727.41,227.016,731.261,220.716z
		 M689.591,220.893c2.391-4.125,2.505-7.561-3.908-13.896c-6.789-6.515-16.38-2.077-21.278,2.821
		c-4.899,4.899-0.334,10.815,6.08,17.154C676.896,233.311,685.741,227.191,689.591,220.893z M656.35,253.768
		c3.853-6.301-3.284-12.638-8.75-16.771c-5.464-4.134-18.067-7.088-22.969-2.188c-4.898,4.9-0.217,12.985,6.197,19.322
		C637.242,260.469,652.499,260.066,656.35,253.768z M642.929,128.632c1.328-7.262-13.128-14.499-19.713-16.394
		c-6.583-1.896-26.461-0.251-29.271,6.082c-2.813,6.333,12.647,8.708,20.911,12.317
		C623.117,134.246,641.599,135.895,642.929,128.632z"/>
	<path id="Belly" fill="#FFFBEE" d="M381.924,274.158c7.707-2.852,13.313-7.45,15.899-13.73
		c8.266-20.057-17.406-49.654-57.338-66.108c-39.932-16.454-79.003-13.531-87.27,6.526c-0.284,0.69-0.525,1.393-0.729,2.104
		C285.1,227.342,332.473,253.504,381.924,274.158z"/>
	<path id="Eye" fill="#0F687C" d="M551.331,197.312c0,0-6.863,4.928-11.375,4.928s-11.619-7.508-11.619-7.508
		s7.107-5.292,11.619-5.292C544.468,189.441,551.331,197.312,551.331,197.312z"/>
</g>
</svg>
