<?xml version="1.0" encoding="utf-8"?>
<!-- Generator: Adobe Illustrator 16.0.0, SVG Export Plug-In . SVG Version: 6.00 Build 0)  -->
<!DOCTYPE svg PUBLIC "-//W3C//DTD SVG 1.1//EN" "http://www.w3.org/Graphics/SVG/1.1/DTD/svg11.dtd">
<svg version="1.1" id="work" xmlns="http://www.w3.org/2000/svg" xmlns:xlink="http://www.w3.org/1999/xlink" x="0px" y="0px"
	 width="411px" height="443px" viewBox="0 0 411 443" enable-background="new 0 0 411 443" xml:space="preserve">
<g id="Wizard.svg">
	
		<path id="HatShade" fill="#00243A" stroke="#00243A" stroke-width="1.4601" stroke-linecap="round" stroke-linejoin="round" stroke-miterlimit="10" d="
		M94.013,97.57c0,0,18.549,1.682,54.883,1.682s46.085,1.297,46.085,1.297s-5.26-13.826-51.87-13.826
		C96.501,86.722,94.013,97.57,94.013,97.57z"/>
	<path fill="#FFCB4A" d="M380.34,169.633l-2.373,2.415l-3.334-0.587l1.563,3.004l-1.588,2.991l3.341-0.559l2.354,2.435l0.5-3.349
		l3.043-1.486l-3.03-1.511L380.34,169.633z"/>
	<circle id="Purple" fill="#FFB0F9" cx="378.813" cy="188.242" r="2.335"/>
	<circle id="Blue" fill="#00FFDA" cx="398.655" cy="176.23" r="1.46"/>
	<path id="Magic" fill="#22E0F4" d="M355.668,190.834c-1.017,0-2.088-0.12-3.209-0.385c-2.605-0.635-4.57-1.855-6.472-3.038
		c-4.321-2.686-8.791-5.464-22.009-1.975c-0.674,0.18-1.354-0.223-1.527-0.89c-0.177-0.667,0.223-1.352,0.891-1.527
		c14.258-3.766,19.416-0.561,23.967,2.269c1.813,1.127,3.525,2.191,5.732,2.729c4.182,0.986,8.088-0.373,10.436-3.642
		c1.818-2.533,2.121-5.576,0.771-7.751c-1.834-2.944-6.041-3.651-8.892-2.618c-1.063,0.384-2.785,1.324-2.511,3.311
		c0.103,0.684-0.384,1.315-1.062,1.412c-0.675,0.098-1.316-0.379-1.412-1.063c-0.373-2.646,1.209-4.949,4.129-6.009
		c3.852-1.397,9.338-0.413,11.865,3.646c1.891,3.038,1.553,7.172-0.859,10.53C363.641,188.435,360.209,190.834,355.668,190.834z
		 M344.758,205.041c2.147-2.861,2.174-7.009,0.063-10.564c-2-3.367-6.358-6.64-12.606-5.731c-2.644,0.404-4.705,1.45-6.701,2.461
		c-4.541,2.3-9.229,4.68-22.098,0.051c-0.648-0.231-1.365,0.104-1.6,0.754c-0.233,0.65,0.104,1.365,0.752,1.6
		c13.879,4.992,19.294,2.247,24.07-0.174c1.899-0.965,3.698-1.876,5.938-2.22c5.021-0.729,8.502,1.863,10.088,4.535
		c1.592,2.683,1.627,5.739,0.088,7.788c-2.08,2.774-6.334,3.115-9.082,1.833c-1.021-0.474-2.658-1.561-2.209-3.515
		c0.156-0.672-0.264-1.344-0.938-1.5c-0.688-0.158-1.349,0.264-1.5,0.936c-0.604,2.604,0.771,5.035,3.593,6.346
		c1.318,0.615,2.879,0.947,4.465,0.947C339.95,208.588,342.911,207.503,344.758,205.041z M368.838,204.241
		c2.096-1.637,2.906-3.971,2.215-6.421c-1.514-5.104-5.959-4.309-9.875-3.608c-3.146,0.563-6.401,1.146-8.889-0.644
		c-0.563-0.403-1.343-0.277-1.744,0.284c-0.404,0.561-0.277,1.341,0.283,1.745c3.342,2.405,7.301,1.699,10.789,1.075
		c4.475-0.799,6.236-0.845,7.034,1.842c0.312,1.136,0.101,2.173-0.653,3.082c-0.83,1.001-2.02,1.472-2.418,1.481
		c-0.57-0.239-1.25-0.021-1.566,0.533c-0.344,0.6-0.135,1.363,0.465,1.706c0.313,0.179,0.687,0.258,1.066,0.258
		C366.625,205.574,367.905,204.97,368.838,204.241z"/>
	<path id="Shoes" fill="#EF4C26" d="M176.25,401.383c9.78,0.146,19.004,0.979,23.895,3.494c4.892,2.515,16.771,9.361,20.402,9.361
		c3.633,0,5.029,1.677,6.146,2.646c1.119,0.979,5.869-1.957,7.966-5.171c-0.142,2.521-0.14,14.673-13.832,15.79
		c-13.695,1.117-37.592,3.913-48.771-7.267C160.878,409.067,176.25,401.383,176.25,401.383z M54.574,406.487
		c-0.469,4.521-0.469,24.002,12.155,23.847c12.624-0.156,19.531-10.55,19.171-15.43C84.499,395.891,55.042,401.969,54.574,406.487z"
		/>
	<path id="ShoesBorder" fill="#A53216" d="M201.23,430.283c-14.423,0-24.341-2.906-30.32-8.887
		c-3.528-3.528-5.018-7.163-4.427-10.813c1.072-6.604,8.715-10.502,9.041-10.663l0.75-0.173c12.095,0.174,20.146,1.375,24.615,3.675
		c0.95,0.488,2.162,1.146,3.525,1.872c4.756,2.563,13.607,7.313,16.133,7.313c3.879,0,5.758,1.722,6.879,2.751
		c0.027,0.021,0.053,0.049,0.08,0.066c1.086-0.229,4.188-2.144,5.791-4.604l2.982,0.979l-0.016,0.326
		c-0.604,13.062-8.658,16.448-15.312,16.99l-2.521,0.212C213.525,429.763,207.409,430.283,201.23,430.283z M176.65,403.013
		c-1.328,0.749-6.268,3.8-6.96,8.109c-0.41,2.55,0.774,5.229,3.518,7.976c5.339,5.341,14.506,7.938,28.022,7.938
		c6.042,0,12.081-0.521,16.934-0.928l2.529-0.221c8.129-0.654,10.842-5.548,11.787-9.549c-1.813,1.403-3.775,2.364-5.16,2.364
		c-0.84,0-1.385-0.322-1.693-0.593c-0.127-0.112-0.258-0.231-0.396-0.357c-0.977-0.89-2.065-1.896-4.688-1.896
		c-3.09,0-9.832-3.486-17.671-7.697c-1.345-0.722-2.538-1.362-3.475-1.845C195.494,404.31,187.84,403.197,176.65,403.013z
		 M75.464,426.784c-0.001,0,0.059-0.005,0.172,0.031c-0.086-0.027-2.175-0.735-7.329-7.187l-2.321-0.224
		c-5.254,4.465-6.654,8.004-6.712,8.146l0.615,1.938c0.13,0.087,3.246,2.127,8.137,2.127c2.633,0,5.295-0.586,7.916-1.743
		L75.464,426.784z M68.026,428.38c-2.171,0-3.898-0.497-4.999-0.935c0.663-1.03,1.849-2.604,3.825-4.451
		c1.956,2.342,3.511,3.908,4.731,4.955C70.392,428.235,69.203,428.38,68.026,428.38z M68.722,400.224
		c-6.344,0-15.352,2.118-15.764,6.104c-0.419,4.051-0.319,15.879,5.106,21.896c2.24,2.482,5.105,3.743,8.516,3.743l0.17-0.001
		c8.562-0.104,13.888-4.534,16.3-7.164c2.975-3.242,4.688-7.077,4.471-10.009C86.85,405.668,79.822,400.224,68.722,400.224z
		 M80.656,422.598c-1.083,1.188-2.862,2.782-5.368,4.06c0.213,0.11,0.331,0.152,0.349,0.167c-0.113-0.036-0.173-0.031-0.172-0.031
		l0.478,3.103c-2.621,1.157-5.283,1.743-7.916,1.743c-4.892,0-8.007-2.04-8.137-2.127l-0.615-1.936
		c0.024-0.063,0.292-0.73,0.979-1.813c-4.341-5.175-4.409-15.594-4.071-19.021c0.595-1.023,5.807-3.269,12.54-3.269
		c5.493,0,14.817,1.501,15.559,11.56C84.4,416.639,83.316,419.697,80.656,422.598z"/>
	<path id="Sleeves" fill="#00497F" d="M42.706,275.434c-1.641,0-3.285-0.104-4.889-0.312l-5.069-0.651l4.941-1.308
		c0.659-0.175,1.346-0.372,2.058-0.593c11.152-3.43,11.307-11.225,11.644-28.299c0.065-3.306,0.139-7.049,0.3-11.192
		c0.658-16.964,10.447-22.983,18.629-22.983c5.095,0,9.965,2.231,13.36,6.125c3.373,3.87,4.799,9.538,4.126,16.393
		c-1.25,12.715-9.519,26.709-21.067,35.656l-0.086,0.06C57.16,274.201,48.391,275.434,42.706,275.434z M237.234,259.068l0.188-2.137
		c0.29-3.3,0.395-9.57,0.494-20.731l0.002-0.193c0.148-15.812,0.337-35.489,2.029-46.829c3.033-20.348,9.174-25.775,12.32-25.775
		c0.229,0,0.442,0.024,0.715,0.08c0.646,0.105,1.172,0.709,1.494,1.194c2.633,3.835,3.758,16.431-0.021,34.989
		c-0.885,4.342-1.739,8.978-2.646,13.886l-0.082,0.447c-3.574,19.332-7.254,39.231-12.566,43.709l-0.092,0.067
		c-0.008,0.012-0.045,0.039-0.077,0.062L237.234,259.068z"/>
	<path id="Robes" fill="#0062BA" d="M142.032,423.728l-0.189-0.895c-0.38-1.8-0.688-5.76-0.794-8.739
		c-0.01-0.271-0.205-0.519-0.473-0.585c-0.421-0.104-10.436-2.574-23.514-2.574c-12.631,0-24.579,3.657-27.938,4.777
		c-0.906,0.302-1.989,0.513-3.222,0.626l-0.824,0.074l-0.229-0.796c-1.168-4.082-2.842-6.521-4.477-6.521
		c-0.084,0-0.169,0.015-0.244,0.021l-0.146,0.012c-0.862,0-2.101-0.858-4.382-2.663c-2.22-1.757-4.33-3.42-6.065-3.188
		c-1.507,0.188-3.057,1.538-4.852,3.102c-2.148,1.869-4.583,3.987-7.671,4.954c-2.584,0.808-6.533,2.513-10.353,4.161
		c-2.75,1.188-6.099,2.632-8.156,3.354l-2.188,0.771l1.093-2.462c1.132-2.553,3.238-7.299,5.428-15.656l0.431-1.645
		c3.736-14.271,5.441-20.771,6.148-24.313c0.234-1.178,0.253-3.229,0.275-5.83c0.05-5.575,0.123-14.005,2.608-19.969
		c0.805-1.938,1.698-3.938,2.562-5.878c3.077-6.906,6.247-14.021,6.247-19.551c0-3.271,0.105-14.756,1.455-25.104
		c0.412-3.153,3.193-10.472,6.415-18.938c2.229-5.854,4.753-12.498,6.934-18.938l0.062-0.188L76.099,261
		c7.307-8.561,12.028-18.855,12.953-28.271c0.708-7.207-0.823-13.197-4.428-17.333c-0.804-0.92-1.715-1.779-2.71-2.552l-0.357-0.277
		l-0.027-0.452c-0.26-4.284-0.647-8.44-1.152-12.352c-0.041-0.312-0.299-0.547-0.603-0.547c-0.406,0.033-0.657,0.319-0.643,0.655
		c0.071,1.552,0.175,3.369,0.292,5.407l0.021,0.386c0.072,1.254,0.148,2.585,0.224,3.979l0.089,1.662l-1.509-0.702
		c-2.514-1.168-5.181-1.762-7.928-1.762c-3.55,0-7,1.059-9.979,3.062l-2.297,1.544l0.78-2.656
		c5.4-18.387,13.554-41.34,13.636-41.569c0.028-0.078,0.04-0.157,0.036-0.236l-0.01-0.201l0.069-0.188
		c2.86-7.82,10.465-28.598,31.659-28.598h0.152c15.807,0.965,58.521,7.832,58.951,7.901l0.096,1.008l0.033-1.001
		c0.467-0.026,0.944-0.039,1.438-0.039c6.262,0,15.409,2.136,20.027,6.094c3.687,3.161,10.812,3.928,17.1,4.604
		c2.712,0.292,5.273,0.566,7.261,1.009c4.033,0.896,17.152,1.837,28.729,2.667c3.25,0.233,6.289,0.452,8.793,0.646l2.111,0.163
		l-1.47,1.526c-3.881,4.034-6.979,12.705-8.729,24.414c-1.713,11.47-1.896,31.274-2.039,47.188
		c-0.078,8.668-0.158,17.619-0.535,21.286l-0.229,2.263l-1.514-1.698c-0.83-0.935-1.621-2.474-2.313-3.832
		c-1.246-2.427-2.656-5.175-4.896-6.521c-5.643-3.382-28.456-21.875-34.788-30.316c-2.563-3.418-6.33-5.226-10.891-5.226
		c-2.315,0-4.423,0.465-5.784,0.854l-1.632,0.467l0.383-1.654c2.287-9.875,3.5-20.511,3.551-20.959
		c0.02-0.166-0.027-0.328-0.132-0.459c-0.104-0.131-0.252-0.213-0.419-0.231c-0.385,0.03-0.655,0.233-0.69,0.551
		c-0.019,0.157-1.81,15.729-4.991,26.435c-0.021,0.072-0.029,0.151-0.021,0.234l0.021,0.21l-0.067,0.2
		c-2.417,7.262-7.063,20.393-11.029,26.738c-5.67,9.064-4.72,13.785-2.849,17.521c0.92,1.848,4.007,5.666,7.914,10.514
		c3.954,4.896,8.412,10.424,11.383,14.881c2.313,3.474,5.164,8.412,7.919,13.188c5.068,8.785,8.535,14.653,10.468,16.159
		c2.746,2.138,5.441,18.074,6.331,28.762c0.367,4.396-0.104,10.104-0.521,15.141c-0.47,5.692-0.73,9.271-0.179,10.93
		c1.04,3.115,1.793,9.682,1.793,12.57c0,1.729,0.888,3.688,1.828,5.771c0.75,1.659,1.517,3.354,1.833,4.938
		c0.699,3.521-2.641,9.655-5.771,10.604c-0.755,0.228-1.998,0.414-3.436,0.633c-5.356,0.813-14.298,2.163-18.441,8.38
		c-5.181,7.772-6.448,8.118-8.604,8.118c-0.62,0-1.392-0.414-2.588-1.102c-1.609-0.923-3.812-2.18-6.581-2.18
		c-1.249,0-2.539,0.256-3.833,0.764c-5.261,2.05-11.534,3.176-14.413,3.521L142.032,423.728z"/>
	<path id="RobesBorder" fill="#005068" d="M252.781,161.18c-0.172-0.018-0.342-0.027-0.514-0.027c-1.963,0-3.828,0.946-5.547,2.733
		c-2.51-0.195-5.541-0.413-8.787-0.646c-11.611-0.833-24.771-1.776-28.875-2.688c-1.932-0.43-4.468-0.702-7.15-0.991
		c-6.433-0.691-13.723-1.476-17.645-4.837c-4.436-3.804-13.293-5.854-19.376-5.854c-0.475,0-0.935,0.013-1.377,0.037
		c-0.118,0.007-0.234,0.001-0.349-0.018c-0.432-0.07-43.177-6.935-58.854-7.892l-0.09,0.003c-19.32,0-26.946,17.625-30.723,27.943
		c0.009,0.204-0.021,0.413-0.09,0.618c-0.105,0.298-8.22,23.139-13.618,41.517c-1.673,1.124-3.231,2.541-4.603,4.279
		c4.417-15.959,11.955-37.757,14.382-44.684c-0.015-0.218,0.014-0.441,0.092-0.659c3.738-10.473,11.52-32.263,34.562-32.263h0.199
		c15.415,0.939,56.103,7.422,59.091,7.901c6.873-0.333,17.436,1.945,22.872,6.604c3.156,2.707,9.914,3.434,15.876,4.074
		c2.78,0.299,5.405,0.581,7.509,1.049c3.868,0.86,17.471,1.835,28.401,2.619C245.014,160.49,250.531,160.887,252.781,161.18z
		 M256.675,200.104c-0.911,4.455-1.791,9.233-2.729,14.294c-3.635,19.677-7.396,40.024-13.336,45.028
		c-1.52,1.284-2.92,1.908-4.271,1.908c-0.023,0-0.123-0.001-0.146-0.002c-0.666-0.021-1.25-0.443-1.478-1.072
		c-0.183-0.507-0.101-1.054,0.201-1.486c0.567-1.786,0.666-12.362,0.758-22.594c0.146-15.949,0.326-35.795,2.052-47.337
		c2.59-17.341,8.028-27.692,14.547-27.692c0.377,0,0.752,0.039,1.117,0.117c1.09,0.18,2.104,0.895,2.94,2.11
		C259.934,168.621,260.068,183.38,256.675,200.104z M253.65,165.215c-0.299-0.441-0.621-0.719-0.86-0.76
		c-0.222-0.044-0.368-0.059-0.519-0.059c-2.631,0-8.389,5.209-11.334,24.923c-1.689,11.317-1.869,31.038-2.016,46.884
		c-0.104,11.523-0.211,17.543-0.498,20.813c0.029-0.023,0.061-0.058,0.092-0.076c5.049-4.252,8.863-24.906,12.23-43.13
		c0.938-5.075,1.822-9.868,2.734-14.352C257.036,181.988,256.256,169.011,253.65,165.215z M78.688,209.706
		c-0.006-0.003-0.013-0.005-0.02-0.009c0,0.001,0,0.002,0,0.003L78.688,209.706z M90.046,232.816
		c-1.311,13.332-9.945,27.961-21.998,37.269c-0.044,0.033-0.089,0.072-0.136,0.097c-9.971,6.188-19.209,7.485-25.205,7.485
		c-0.001,0-0.002,0-0.003,0c-6.555,0-11.642-1.517-14.271-2.959c-1.1-0.414-1.71-1.048-2.042-1.567
		c-0.917-1.135-0.702-2.238-0.179-2.914c0.456-0.584,1.252-0.777,1.929-0.488c0.621,0.277,1.004,0.896,0.979,1.557
		c0.131,0.105,0.338,0.256,0.65,0.443c0.314,0.094,0.826,0.186,1.605,0.186c1.867,0,4.462-0.507,7.712-1.507
		c9.596-2.953,9.721-9.272,10.055-26.188c0.065-3.316,0.139-7.08,0.301-11.233c0.675-17.37,10.972-25.146,20.877-25.146
		c2.91,0,5.753,0.645,8.349,1.851c0,0.001,0,0.002,0,0.003l0.02,0.006c-0.006-0.003-0.013-0.005-0.02-0.009
		c-0.082-1.523-0.166-2.973-0.243-4.329c-0.118-2.054-0.223-3.885-0.294-5.447c-0.04-0.869,0.614-1.616,1.481-1.691
		c0.873-0.087,1.642,0.546,1.754,1.41c0.525,4.071,0.906,8.256,1.158,12.419l0.009-0.002c1.021,0.794,1.976,1.692,2.843,2.688
		C89.167,219.088,90.781,225.344,90.046,232.816z M82.927,216.884c-3.207-3.676-7.802-5.783-12.607-5.783
		c-7.737,0-16.999,5.767-17.63,22.022c-0.16,4.124-0.233,7.863-0.299,11.173c-0.336,17.04-0.505,25.586-12.348,29.231
		c-0.727,0.225-1.425,0.426-2.098,0.604c1.457,0.196,3.052,0.303,4.759,0.303h0.002c5.559,0,14.128-1.207,23.421-6.955
		c11.343-8.787,19.459-22.502,20.684-34.963C87.457,225.938,86.114,220.533,82.927,216.884z M140.818,412.533
		c-0.118-0.029-1.01-0.25-2.521-0.55c-2.65-12.175-14.211-66.007-16.555-88.777c-3.226-31.328,4.156-94.283,5.01-101.358
		c1.521-12.635,4.446-26.163,6.798-37.035c2.167-10.021,4.213-19.485,3.625-21.884c-0.214-0.872,0.319-1.753,1.19-1.966
		c0.869-0.217,1.753,0.318,1.966,1.191c0.732,2.988-0.731,10.059-3.604,23.344c-2.337,10.803-5.245,24.253-6.749,36.732
		c-3.822,31.726-7.425,77.121-5.003,100.642c2.619,25.444,16.894,90.239,17.037,90.886c0.019,0.087,0.025,0.174,0.03,0.269
		C142.001,413.315,141.509,412.713,140.818,412.533z M234.713,260.264c-0.186-0.509-0.104-1.062,0.201-1.488
		c0.086-0.271,0.16-0.768,0.227-1.402c-0.729-0.824-1.463-2.234-2.178-3.626c-1.305-2.552-2.785-5.435-5.273-6.927
		c-5.594-3.354-28.224-21.688-34.498-30.062c-2.76-3.68-6.803-5.625-11.69-5.625c-2.343,0-4.484,0.441-6.06,0.893l0.013-0.052
		c2.276-9.85,3.497-20.487,3.558-21.022c0.101-0.891-0.54-1.696-1.432-1.797c-0.892-0.099-1.696,0.54-1.797,1.432
		c-0.019,0.155-1.79,15.611-4.956,26.262l-0.059,0.615c-2.146,6.448-6.932,20.129-10.929,26.521
		c-5.932,9.49-4.897,14.503-2.896,18.509c0.971,1.938,4.094,5.812,8.048,10.709c3.921,4.856,8.365,10.364,11.312,14.786
		c2.29,3.436,5.135,8.363,7.885,13.135c5.282,9.154,8.64,14.829,10.721,16.447c2.21,1.722,4.964,16.229,5.948,28.057
		c0.36,4.313-0.107,9.977-0.521,14.973c-0.495,5.998-0.746,9.479-0.131,11.322c1.01,3.031,1.742,9.43,1.742,12.264
		c0,1.94,0.932,4,1.918,6.188c0.721,1.596,1.467,3.242,1.763,4.723c0.602,3.002-2.438,8.647-5.079,9.44
		c-0.689,0.207-1.905,0.392-3.312,0.604c-5.507,0.833-14.721,2.229-19.109,8.813c-5.114,7.674-6.172,7.674-7.773,7.674
		c-0.398,0-1.299-0.515-2.093-0.967c-1.706-0.979-4.043-2.313-7.077-2.313c-1.375,0-2.786,0.278-4.194,0.826
		c-5.418,2.106-11.745,3.166-14.169,3.455c-0.344-1.622-0.66-5.389-0.773-8.568c-0.026-0.724-0.527-1.343-1.23-1.52
		c-0.425-0.105-10.565-2.604-23.755-2.604c-12.78,0-24.858,3.696-28.256,4.829c-1.021,0.348-2.157,0.501-2.996,0.578
		c-0.823-2.879-2.551-7.244-5.438-7.244c-0.135,0-0.271,0.019-0.391,0.027c-0.669,0-2.607-1.535-3.768-2.452
		c-2.222-1.759-4.321-3.419-6.365-3.419c-0.149,0-0.298,0.009-0.442,0.026c-1.806,0.227-3.462,1.668-5.382,3.339
		c-2.073,1.806-4.424,3.852-7.312,4.754c-2.636,0.823-6.611,2.54-10.456,4.2c-2.664,1.146-6.046,2.604-8.086,3.329
		c0.05-0.113,0.101-0.229,0.152-0.347c1.143-2.571,3.271-7.366,5.48-15.812l0.431-1.645c3.741-14.282,5.449-20.81,6.161-24.366
		c0.254-1.271,0.272-3.363,0.296-6.021c0.049-5.497,0.122-13.812,2.531-19.593c0.804-1.93,1.698-3.938,2.563-5.879
		c3.107-6.979,6.322-14.191,6.322-19.938c0-3.26,0.104-14.688,1.446-24.979c0.396-3.039,3.159-10.306,6.357-18.718
		c2.272-5.979,4.78-12.579,6.944-18.979c-1.68,1.971-3.484,3.834-5.398,5.563c-1.521,4.188-3.104,8.354-4.584,12.255
		c-3.406,8.958-6.097,16.032-6.542,19.448c-1.367,10.479-1.475,22.092-1.475,25.396c0,5.053-3.07,11.941-6.042,18.609
		c-0.873,1.959-1.774,3.98-2.594,5.951c-2.653,6.363-2.729,15.062-2.781,20.812c-0.021,2.39-0.039,4.44-0.231,5.409
		c-0.694,3.476-2.395,9.96-6.119,24.185l-0.43,1.646c-2.145,8.188-4.203,12.823-5.31,15.312c-0.953,2.146-1.388,3.128-0.833,4.194
		c0.209,0.404,0.649,0.929,1.556,1.104c0.14,0.022,0.304,0.048,0.489,0.048c1.479,0,4.481-1.229,10.982-4.037
		c3.768-1.627,7.664-3.313,10.138-4.082c3.539-1.104,6.277-3.489,8.479-5.403c1.391-1.212,2.828-2.464,3.688-2.563
		c0.914,0,2.899,1.567,4.349,2.719c2.138,1.688,3.984,3.15,5.783,3.15c0.124,0,0.245-0.008,0.335-0.021
		c0.737,0.418,2.02,3.312,2.677,6.062c0.175,0.729,0.829,1.248,1.581,1.248c0.114,0,2.847-0.016,5.259-0.812
		c3.28-1.095,14.937-4.663,27.228-4.663c10.238,0,18.761,1.603,21.787,2.241c0.466,10.534,1.715,10.533,3.034,10.533
		c1.357,0,9.616-1.165,16.285-3.763c1.047-0.405,2.034-0.604,3.018-0.604c2.172,0,3.923,0.998,5.467,1.879
		c1.312,0.747,2.442,1.396,3.703,1.396c3.576,0,5.535-1.704,10.479-9.119c3.592-5.396,11.917-6.646,16.891-7.398
		c1.593-0.24,2.852-0.434,3.761-0.704c4.542-1.358,8.188-8.908,7.331-13.188c-0.363-1.853-1.188-3.664-1.983-5.433
		c-0.801-1.771-1.629-3.603-1.629-4.843c0-3.084-0.744-9.794-1.909-13.29c-0.435-1.302-0.067-5.733,0.287-10.022
		c0.423-5.121,0.902-10.932,0.521-15.513c-0.021-0.267-2.262-26.517-7.191-30.353c-1.729-1.349-6.07-8.869-9.9-15.51
		c-2.777-4.812-5.647-9.789-7.997-13.312c-3.029-4.541-7.521-10.106-11.487-15.021c-3.525-4.365-6.855-8.492-7.669-10.117
		c-1.471-2.94-2.592-6.795,2.744-15.33c5.016-8.021,10.927-26.115,12.182-30.043c1.167-0.439,3.79-1.283,6.724-1.283
		c3.88,0,6.938,1.455,9.091,4.325c6.608,8.812,29.526,27.355,35.423,30.896c1.688,1.021,2.896,3.354,4.06,5.615
		c1.517,2.951,3.086,5.997,6.086,6.104C235.506,261.296,234.936,260.879,234.713,260.264z"/>
	<path id="Belt" fill="#FFD400" d="M125.066,321.87c-0.933-0.663-1.542-1.753-1.542-2.983c0-1.312,0.702-2.46,1.747-3.104v0.001
		v-0.001c0.797-3.402,2.824-7.842,7.138-14.184c8.896-13.074,4.164-21.095,0.333-26.964c-1.275,0.787-2.771,1.247-4.378,1.247
		c-1.602,0-3.099-0.453-4.372-1.234l0.003-0.006c-1.032,1.773-0.784,4.25-0.481,7.092c0.502,4.711,1.126,10.576-4.913,14.683
		c-2.732,1.858-4.456,3.563-5.488,5.185l-0.001,0.002c0-0.002,0.001-0.002,0.001-0.002c0.485,0.619,0.786,1.394,0.786,2.239
		c0,1.411-0.797,2.636-1.968,3.247l-0.001-0.029c0.202,1.295,0.666,2.582,1.223,3.896c0.395,0.929-0.038,1.999-0.966,2.396
		c-0.232,0.1-0.475,0.146-0.713,0.146c-0.711,0-1.386-0.416-1.681-1.11c-0.756-1.777-1.362-3.603-1.55-5.479l-0.015-0.006
		c-0.994-0.652-1.649-1.778-1.649-3.06c0-1.827,1.343-3.329,3.094-3.604c-0.002,0.004-0.004,0.007-0.005,0.01l0.005-0.01
		c1.263-2.218,3.429-4.49,6.875-6.837c4.229-2.875,3.814-6.766,3.335-11.271c-0.374-3.514-0.759-7.147,1.443-10.083l0.03-0.045
		c-0.011,0.016-0.021,0.03-0.031,0.046c-0.71-1.096-1.175-2.36-1.309-3.727l-1.354-0.859c-2.384-1.407-5.058-2.987-8.231-4.432
		c-1.393-0.634-2.831-1.314-4.296-2.011c-6.989-3.313-14.827-7.033-21.47-7.187c-0.424-0.004-0.84-0.032-1.241-0.062l-0.818-0.059
		c1.678-2.748,3.12-5.589,4.277-8.468c3.983,0.657,8.676,1.96,12.956,3.604c3.815,1.467,8.51,3.764,13.049,5.98l0.148,0.072
		c3.409,1.668,6.935,3.395,9.915,4.668l1.357,0.582c1.203-0.668,2.584-1.051,4.054-1.051c1.936,0,3.715,0.666,5.136,1.771
		l1.29-0.408c4.688-1.479,10.946-4.102,15.976-6.207l0.123-0.052c4.414-1.848,6.964-2.9,8.048-3.143
		c0.45-0.103,0.876-0.106,1.103-0.08h0.644l0.449,0.617c0.642,0.879,0.627,2.15-1.236,6.674c-1.006,2.447-5.291,4.312-10.787,6.49
		c-1.312,0.521-2.499,0.99-3.483,1.437c-1.938,0.868-4.834,1.907-7.948,2.849l-1.152,0.352c-0.223,0.953-0.609,1.842-1.126,2.64
		l0.002,0.003c0.014,0.021,0.03,0.033,0.042,0.055c3.938,6.006,10.527,16.055-0.017,31.555c-3.726,5.479-5.587,9.234-6.398,12.09
		l-0.001,0.005c0-0.002,0.001-0.003,0.001-0.005c1.083,0.637,1.818,1.8,1.818,3.146c0,1.401-0.789,2.62-1.948,3.233l-0.006-0.017
		c0.149,0.582,0.323,1.146,0.503,1.729c0.114,0.364,0.229,0.729,0.337,1.104c0.284,0.968-0.269,1.979-1.235,2.269
		c-0.172,0.052-0.346,0.072-0.517,0.072c-0.789,0-1.516-0.521-1.75-1.312c-0.104-0.354-0.211-0.693-0.318-1.041
		c-0.307-0.979-0.613-1.966-0.82-3.041L125.066,321.87z"/>
	<path id="BeltBorder" fill="#D89F00" d="M128.364,274.384c-3.798,0-6.888-3.09-6.888-6.889c0-3.797,3.09-6.888,6.888-6.888
		c3.799,0,6.888,3.091,6.888,6.888C135.251,271.294,132.162,274.384,128.364,274.384z M137.252,267.495
		c0-2.122-0.748-4.073-1.995-5.603l-0.016,0.012c4.681-1.479,10.816-4.041,16.103-6.252c3.701-1.551,6.897-2.889,7.912-3.106
		c0.184-0.041,0.345-0.062,0.476-0.062c0.128,0,0.189,0.021,0.188,0.017c0.312,0.435-0.163,2.188-1.412,5.222
		c-0.84,2.043-6.108,4.141-9.954,5.668c-1.293,0.516-2.516,1-3.545,1.465c-1.9,0.854-4.798,1.883-7.767,2.777L137.252,267.495z
		 M136.935,269.82c3.348-0.979,6.707-2.154,8.894-3.145c0.988-0.441,2.19-0.923,3.464-1.43c4.641-1.848,9.9-3.938,11.063-6.766
		c1.247-3.035,2.198-5.654,1.226-7.105c-0.275-0.411-0.82-0.898-1.851-0.898c-0.276,0-0.583,0.035-0.91,0.106
		c-1.188,0.269-4.15,1.504-8.251,3.224c-5.142,2.148-12.216,5.107-16.989,6.514l0.007-0.011c-1.468-1.07-3.273-1.702-5.224-1.702
		c-1.463,0-2.846,0.355-4.066,0.984l0.006,0.01c-3.182-1.293-7.151-3.229-11.047-5.144c-4.603-2.252-9.36-4.581-13.238-6.071
		c-4.394-1.688-9.039-2.974-12.948-3.621c-0.248,0.637-0.521,1.271-0.797,1.899c3.866,0.604,8.631,1.896,13.027,3.588
		c3.797,1.459,8.515,3.769,13.078,6.002c3.56,1.742,7.015,3.435,9.983,4.7l-0.007-0.006c-1.482,1.36-2.501,3.217-2.793,5.307h0.002
		c-0.055-0.031-0.105-0.064-0.161-0.095c-2.409-1.425-5.14-3.035-8.348-4.515c-1.41-0.638-2.866-1.332-4.348-2.033
		c-7.051-3.348-15.042-7.137-22.005-7.293c-0.44-0.002-0.85-0.035-1.245-0.063c-0.364,0.635-0.731,1.271-1.119,1.895
		c0.707,0.095,1.471,0.156,2.316,0.177c6.538,0.153,14.324,3.84,21.194,7.104c1.494,0.707,2.958,1.4,4.378,2.047
		c3.113,1.416,5.795,3,8.161,4.396c0.397,0.241,0.781,0.459,1.16,0.688l-0.007-0.001c0.529,4.397,4.284,7.82,8.824,7.82
		c4.055,0,7.484-2.727,8.546-6.445L136.935,269.82z"/>
	<path id="Magic_1_" opacity="0.3" fill="#00DBD5" enable-background="new    " d="M34.932,146.823
		c-9.004,0-16.33-7.326-16.33-16.33c0-9.005,7.326-16.331,16.33-16.331c9.005,0,16.331,7.326,16.331,16.331
		C51.263,139.498,43.937,146.823,34.932,146.823z M34.932,115.795c-8.104,0-14.697,6.595-14.697,14.698
		c0,8.104,6.594,14.697,14.697,14.697c8.104,0,14.698-6.593,14.698-14.697S43.037,115.795,34.932,115.795z M34.932,155.419
		c-13.744,0-24.925-11.182-24.925-24.926c0-13.745,11.181-24.926,24.925-24.926c13.744,0,24.926,11.182,24.926,24.926
		C59.858,144.237,48.676,155.419,34.932,155.419z M34.932,108.059c-12.37,0-22.433,10.063-22.433,22.434
		s10.062,22.435,22.433,22.435s22.435-10.062,22.435-22.435S47.302,108.059,34.932,108.059z"/>
	<path id="Staff" fill="#C14D36" stroke="#93311D" stroke-width="2" stroke-miterlimit="10" d="M132.84,384.135
		c1.02,2.521,6.792-0.267,5.912-2.353c-0.88-2.087-90.378-227.22-90.378-227.22l-5.912,2.352
		C42.462,156.913,131.82,381.618,132.84,384.135z"/>
	<path id="Crystal" fill="#00F2C3" d="M23.491,130.045l6.89-12.11l13.327,4.068L23.491,130.045z M34.916,158.767l13.326,4.068
		l6.891-12.11L34.916,158.767z M34.916,158.767l20.216-8.042l-11.424-28.722l-20.217,8.042L34.916,158.767z"/>
	<path id="CrystalBorder" fill="#00C1AE" d="M35.285,159.696l-1.3-0.56L22.56,130.414l0.561-1.299l20.217-8.042l1.299,0.56
		l11.424,28.722l-0.56,1.299L35.285,159.696z M24.79,130.605l10.686,26.863l18.358-7.303l-10.686-26.862L24.79,130.605z
		 M47.949,163.792l-13.326-4.068l-0.638-0.587L22.56,130.415l0.061-0.863l6.89-12.111l1.161-0.462L44,121.047l0.637,0.587
		l11.424,28.722l-0.06,0.864l-6.892,12.11L47.949,163.792z M35.667,157.951l12.101,3.695l6.257-10.998L42.957,122.82l-12.103-3.695
		l-6.257,10.998L35.667,157.951z M55.424,149.769l-12.868-3.931l0.178,0.447l-1.857,0.739l-0.179-0.447l-6.65,11.694l1.239,1.424
		l20.216-8.042L55.424,149.769z M37.193,156.784l5.084-8.938l9.836,3.004L37.193,156.784z M37.764,133.788l0.178,0.447l6.652-11.693
		l-1.239-1.424l-20.217,8.042l0.078,1.886l12.867,3.93l-0.179-0.447L37.764,133.788z M41.446,124.029l-5.085,8.938l-9.835-3.003
		L41.446,124.029z M37.764,133.788l-1.858,0.739l4.971,12.498l1.857-0.739L37.764,133.788z M23.86,130.975l-1.238-1.424l6.89-12.111
		l1.161-0.462L44,121.047l0.078,1.887L23.86,130.975z M30.854,119.125l-5.085,8.938l14.921-5.936L30.854,119.125z M47.949,163.792
		l-13.326-4.068l-0.078-1.887l20.216-8.042L56,151.219l-6.892,12.11L47.949,163.792z M37.933,158.643l9.835,3.003l5.085-8.938
		L37.933,158.643z M36.834,134.157l4.97,12.498"/>
	<path id="Body_1_" fill="#EFCEA8" d="M287.346,172.551c0.029,0.588,3.387,2.36,3.584,3.078c0.195,0.719,0.441,1.061,0.441,1.061
		c-0.33,0.424,0.396,1.587-2.279,2.264c-2.676,0.677-2.486,0.734-3.215,0.189s-0.369-2.828,0.979-2.574
		c0.738,0.055-0.252-1.26-0.541-1.665c-0.291-0.405-1.103-2.383-1.103-2.383 M287.346,172.551c0.049,0.95,3.334,2.128,3.584,3.078
		c0.75,2.842,1.504,4.533,1.504,4.533s-0.211,0.352-1.805,1.644c-1.59,1.292-0.135,3.81,0.578,3.929
		c0.713,0.119,4.43-2.375,4.904-3.578c0.477-1.204-0.191-5.387-0.104-6.471 M292.055,173.216c0.146,0.987,3.027,2.101,3.381,3.069
		c1.063,2.896,1.604,4.967,1.604,4.967s-0.188,0.387-1.728,1.891c-1.537,1.502,0.228,3.993,0.979,4.048
		c0.756,0.056,4.396-2.908,4.778-4.21c0.384-1.305-0.622-4.421-0.637-5.563 M251.723,177.599c4.842,0,11.119,0.359,13.521,2.073
		c0.688,0.492,1.33,0.998,1.971,1.505c2.229,1.762,4.332,3.425,8.498,4.447c1.076,0.265,2.223,0.541,3.379,0.819
		c5.645,1.362,8.881,2.17,10.285,2.729c0.115-0.386,0.209-1.021,0.104-1.741c-0.08-0.556-0.31-1.307-0.937-1.733
		c-1.217-0.83-3.278-1.681-4.942-1.889c-1.552-0.194-2-0.311-2.547-0.671c-1.095-0.727-4.414-3.707-4.515-4.972
		c-0.043-0.538,0.299-1.027,0.826-1.599c1.194-1.296,5.809-5.199,7.293-5.199l0.444,0.084c1.729,0.699,6.431,1.312,8.349,1.312
		c0.192,0,0.358-0.006,0.481-0.021c1.188-0.146,2.146,0.495,3.049,1.114c0.539,0.37,1.099,0.752,1.709,0.962
		c0.916,0.315,1.435,0.844,1.979,1.404c0.72,0.732,1.604,1.646,4.033,2.567c0.629,0.239,1.226,0.361,1.768,0.36
		c1.55,0,2.406-1.015,2.742-1.599c-0.342-0.25-0.867-0.596-1.258-0.851c-0.76-0.498-1.479-0.968-1.881-1.334
		c-0.41-0.37-1.918-1.648-3.992-2.515c-0.979-0.408-2.274-1.34-3.649-2.327c-1.354-0.975-3.05-2.188-3.834-2.372
		c-0.521-0.124-1.509-0.303-2.646-0.511l-0.73-0.169c-0.375-0.18-0.805-0.379-1.264-0.596c-1.711-0.805-3.843-1.806-5.595-2.796
		c-1.416-0.798-2.233-1.054-3.364-1.054c-1.141,0-2.614,0.257-5.063,0.683l-1.943,0.335c-4.229,0.718-16.784,2.043-27.641,2.937
		c-1.705,2.47-3.367,6.132-4.778,11.24l5.438-0.478C247.833,177.679,249.557,177.599,251.723,177.599z M82.502,223.878
		c0.001-0.001,0.003-0.001,0.004-0.001h0.001c1.293-0.453,2.709,0.23,3.165,1.521l0.435,1.23c0.455,1.293-0.224,2.713-1.518,3.169
		c0,0-0.977,0.219-2.37,0.614l0.035,0.208c1.115-0.392,2.338,0.196,2.731,1.31l0.374,1.062c0.393,1.114-0.192,2.34-1.307,2.745
		c0,0-10.752,5.466-12.133,5.815c-1.381,0.351-3.695,1.099-5.51-0.381c-1.815-1.468-1.397-2.34-2.085-3.985
		c-0.559-1.349-1.22-0.832-1.845-2.603s-0.238-2.75-0.477-3.354c-0.326-0.83-1.695-1.437-2.114-3.021
		c-0.419-1.585,0.767-2.835,0.533-3.665c-0.237-0.691-1.015-0.609-1.412-2.521c-1.162-3.853,5.112-5.681,7.529-6.716
		c1.56-0.669,6.531-2.192,9.863-3.189l0.22-0.078c-0.033-0.305,0.034-0.598,0.266-0.86c1.755-3.32,3.415-0.528,6.354-3.364
		c2.75-0.181,4.069,2.281,3.131,4.412c-0.527,1.197-1.843,2.175-3.078,2.787l-0.026,0.24c-0.17,0.826-0.756,1.546-1.609,1.847
		l-0.213,0.062c1.377-0.479,2.885,0.244,3.368,1.619l0.463,1.312c0.486,1.38-0.238,2.892-1.618,3.378l-1.151,0.405
		C82.506,223.876,82.504,223.876,82.502,223.878 M173.641,100.074c-0.365-1.095-1.217-4.867-0.487-6.327
		c0,0,0.731-21.416-23.117-22.875c-23.85-1.459-36.016,9.248-36.989,23.362c-0.973,14.114-0.184,51.59,38.935,51.59
		c19.286,0,20.929-24.821,20.929-24.821s0-0.607-0.365-4.137c-0.365-3.53,0-8.761,1.703-11.438
		C175.952,102.751,174.005,101.17,173.641,100.074z M159.664,122.024c-1.421,0.688-2.812,0.827-4.557,0.317
		c-1.747-1.167-1.952-0.488-2.646-0.441c-0.694,0.047-4.626-3.448,0-5.713c-4.626,2.265-0.694,5.759,0,5.713
		c0.693-0.046,0.898-0.726,2.646,0.441C156.852,122.852,158.243,122.713,159.664,122.024c1.42-0.688,3.035-1.966,3.121-3.687
		c0.086-1.72-1.979-2.15-2.926-3.011c-0.945-0.86-1.807-3.872-1.635-5.506c0.172-1.634-1.204-2.925-1.548-3.183
		c0.344,0.258,1.72,1.549,1.548,3.183c-0.172,1.634,0.689,4.646,1.635,5.506c0.946,0.86,3.012,1.291,2.926,3.011
		C162.699,120.058,161.084,121.336,159.664,122.024z"/>
	<path id="Shadow" opacity="0.5" fill="#BF7C3A" enable-background="new    " d="M247.676,178.678
		c2.084-8.104,6.578-11.214,11.979-13.893c-4.023,0.408-8.387,0.813-12.533,1.16c-2.08,2.572-4.145,6.85-5.82,13.282l5.795-0.508
		C247.258,178.706,247.456,178.692,247.676,178.678z"/>
	<path id="BodyBorder" fill="#AA8A6A" d="M295.146,178.732c-0.021-0.159-0.033-0.311-0.051-0.459
		c0.01,0.018,0.016,0.036,0.021,0.054c0.096,0.284,0.186,0.555,0.268,0.81c0.005,0.012,0.009,0.024,0.015,0.036
		c0.172,0.529,0.313,0.982,0.418,1.348c0.016,0.031,0.021,0.062,0.024,0.091c0.05,0.166,0.093,0.317,0.127,0.438
		c-0.047,0.056-0.104,0.124-0.174,0.198c-0.021,0.028-0.056,0.061-0.084,0.091c-0.045,0.05-0.094,0.104-0.146,0.16
		c-0.049,0.048-0.101,0.099-0.146,0.151c-0.047,0.05-0.104,0.106-0.154,0.162c-0.062,0.065-0.129,0.129-0.195,0.203
		c-0.002,0.001-0.002,0.001-0.004,0.002c0.063-0.078,0.117-0.157,0.146-0.219C295.418,181.261,295.256,179.739,295.146,178.732z
		 M291.855,165.619c-0.326-0.155-0.688-0.323-1.063-0.503c-1.684-0.791-3.773-1.775-5.467-2.729
		c-1.469-0.827-2.646-1.307-4.322-1.307c-1.305,0-2.847,0.269-5.398,0.711l-1.938,0.334c-3.963,0.672-15.28,1.883-25.594,2.763
		c-0.57,0.569-1.146,1.27-1.72,2.097c10.854-0.894,23.4-2.219,27.64-2.937l1.944-0.335c2.451-0.426,3.935-0.683,5.062-0.683
		c0.922,0,1.646,0.188,2.646,0.681c0.276,0.067,0.561,0.14,0.854,0.246C286.114,164.551,289.329,165.156,291.855,165.619z
		 M293.739,184.741c-0.032-0.786,0.21-1.509,0.716-2.096c0.002,0,0.002-0.001,0.002-0.002c-0.898,0.802-2.354,1.794-3.055,2.062
		c-0.197-0.237-0.484-0.755-0.512-1.291c-0.021-0.488,0.188-0.721,0.354-0.854c0.787-0.64,1.773-1.486,2.021-1.898l0.057-0.897
		c-0.008-0.015-0.551-1.25-1.158-3.333l0.01-0.3c-0.002-0.002-0.166-0.252-0.305-0.762c-0.072-0.261-0.232-0.5-0.475-0.751
		c-1.104-0.102-2.359-0.265-3.547-0.471l0.646,0.678c0.488,0.343,1.295,0.906,1.521,1.161c0.103,0.331,0.203,0.595,0.297,0.797
		c-0.018,0.081-0.021,0.157-0.024,0.227c-0.035,0.32-0.071,0.651-1.437,0.995l-0.886,0.228c-0.636,0.164-1.183,0.306-1.229,0.325
		c-0.063-0.033-0.125-0.085-0.214-0.131c-0.104-0.199-0.008-0.806,0.146-0.902l0.105,0.014c0.494,0.042,0.938-0.18,1.166-0.584
		c0.426-0.756-0.104-1.6-0.844-2.618c-0.039-0.059-0.104-0.19-0.188-0.361c-0.894-0.18-1.688-0.381-2.295-0.597
		c-0.024,0.012-0.062,0.03-0.093,0.043c0.306,0.717,0.736,1.697,0.986,2.047l0.063,0.082c0.062,0.089,0.119,0.17,0.172,0.244
		c-0.401,0.22-0.737,0.593-0.961,1.094c-0.436,0.982-0.36,2.386,0.563,3.079c0.48,0.363,0.814,0.517,1.271,0.517
		c0.43,0,0.963-0.138,1.834-0.363l0.875-0.225c0.678-0.172,1.202-0.469,1.604-0.804l0.073,0.109
		c0.104,0.293,0.198,0.545,0.276,0.746c-0.24,0.228-0.639,0.579-1.276,1.097c-0.782,0.638-1.146,1.564-1.052,2.605
		c0.24,0.128,0.477,0.264,0.691,0.413c0.852,0.579,1.432,1.506,1.688,2.62c0.637-0.055,1.574-0.508,2.521-1.137
		c-0.072-0.271-0.115-0.54-0.131-0.802C293.739,184.746,293.739,184.743,293.739,184.741z M299.497,177.842
		c0.049,0.458,0.155,1.015,0.285,1.643c0.213,1.047,0.528,2.629,0.354,3.222c-0.226,0.755-2.765,2.981-3.748,3.45
		c-0.23-0.222-0.605-0.752-0.693-1.338c-0.078-0.538,0.135-0.816,0.301-0.979c0.758-0.739,1.705-1.715,1.92-2.159l0.064-0.675
		c-0.021-0.086-0.566-2.147-1.631-5.053c-0.025-0.079-0.078-0.149-0.127-0.223c-0.119-0.082-0.24-0.163-0.354-0.242
		c-0.763-0.522-1.255-0.834-1.688-0.783c-0.455,0.058-1.281,0.037-2.271-0.04c0.379,0.341,0.846,0.658,1.332,0.981
		c0.437,0.29,1.161,0.774,1.276,0.974c0.217,0.591,0.4,1.143,0.576,1.653v-0.001c0.01,0.02,0.016,0.036,0.021,0.056
		c0.096,0.285,0.188,0.555,0.268,0.81c0.006,0.012,0.012,0.024,0.016,0.036c0.176,0.53,0.312,0.982,0.418,1.348
		c0.015,0.032,0.021,0.061,0.023,0.091c0.051,0.165,0.096,0.317,0.128,0.438c-0.048,0.056-0.104,0.123-0.175,0.198
		c-0.021,0.028-0.055,0.061-0.084,0.091c-0.045,0.051-0.094,0.103-0.146,0.16c-0.045,0.048-0.1,0.099-0.146,0.151
		c-0.049,0.051-0.104,0.105-0.153,0.162c-0.063,0.065-0.13,0.129-0.195,0.203c-0.002,0.001-0.002,0.001-0.002,0.002l0,0
		c-0.135,0.132-0.271,0.271-0.438,0.429c-0.062,0.062-0.119,0.133-0.178,0.201c-0.507,0.586-0.748,1.311-0.718,2.096
		c0,0.002,0,0.004,0,0.007c0.015,0.263,0.058,0.53,0.132,0.803l0,0c0.026,0.113,0.062,0.228,0.104,0.343
		c0.396,1.075,1.29,2.2,2.253,2.27c0.021,0.001,0.041,0.002,0.063,0.002c1.471,0,5.299-3.457,5.723-4.91
		c0.275-0.938,0.059-2.289-0.215-3.647C300.688,178.972,300.012,178.36,299.497,177.842z M246.1,178.803
		c-0.043-0.506,0.305-0.938,0.789-1.045l-5.312,0.467c-0.185,0.646-0.354,1.309-0.524,2.003l6.016-0.527
		C246.557,179.68,246.143,179.311,246.1,178.803z M311.325,177.123c-0.105-0.619-0.603-0.965-2.283-2.069
		c-0.633-0.414-1.35-0.884-1.641-1.146c-0.604-0.544-2.257-1.913-4.563-2.873c-0.771-0.321-2.032-1.229-3.262-2.109
		c-1.729-1.242-3.365-2.416-4.533-2.689c-0.562-0.133-1.512-0.306-2.709-0.524c-2.586-0.472-6.125-1.119-7.847-1.75
		c-2.896-1.063-5.03-0.023-6.918,0.895l-0.213,0.102c-0.494,0.241-0.7,0.839-0.467,1.336c0.239,0.497,0.842,0.703,1.336,0.464
		l0.219-0.104c1.75-0.851,3.263-1.584,5.354-0.815c1.883,0.691,5.521,1.355,8.178,1.842c1.123,0.206,2.098,0.383,2.606,0.504
		c0.78,0.183,2.472,1.395,3.824,2.367c1.377,0.988,2.676,1.922,3.651,2.33c2.07,0.864,3.576,2.143,3.98,2.512
		c0.405,0.366,1.123,0.838,1.889,1.336c0.381,0.249,0.896,0.586,1.23,0.833c-0.211,0.358-0.619,0.89-1.271,1.231
		c-0.875,0.456-1.945,0.45-3.188-0.021c-2.42-0.92-3.313-1.831-4.021-2.563c-0.552-0.562-1.063-1.093-1.99-1.41
		c-0.604-0.209-1.16-0.591-1.698-0.959c-0.908-0.624-1.854-1.269-3.062-1.117c-1.313,0.165-6.929-0.525-8.813-1.29
		c-0.521-0.209-1.158-0.228-3.734,1.666c-2.271,1.668-4.959,3.902-4.862,5.072c0.119,1.528,3.922,4.737,4.412,5.063
		c0.532,0.354,1.438,0.554,2.688,0.827c1.635,0.358,3.666,0.806,4.92,1.66c0.609,0.419,0.842,1.154,0.924,1.698
		c0.104,0.707,0.021,1.334-0.094,1.724c-1.428-0.561-4.654-1.368-10.27-2.722c-1.156-0.278-2.306-0.555-3.379-0.818
		c-4.158-1.021-6.265-2.684-8.488-4.443c-0.644-0.506-1.277-1.013-1.976-1.505c-3.944-2.818-18.104-1.94-18.243-1.929
		c-0.554,0.046-0.959,0.529-0.912,1.08c0.045,0.55,0.521,0.957,1.08,0.913c3.629-0.304,14.323-0.285,16.916,1.563
		c0.659,0.473,1.274,0.96,1.896,1.446c2.297,1.814,4.67,3.691,9.252,4.815c1.077,0.266,2.229,0.542,3.387,0.821
		c4.021,0.971,9.533,2.3,10.267,2.745c0.229,0.162,0.485,0.244,0.758,0.244c0.188,0,0.378-0.041,0.557-0.125
		c1.002-0.471,1.229-2.017,1.277-2.658c0.156-1.938-0.523-3.621-1.818-4.504c-1.57-1.073-3.814-1.565-5.615-1.961
		c-0.748-0.165-1.771-0.391-2.008-0.54c-0.865-0.576-2.979-2.676-3.443-3.408c0.873-1.123,4.879-4.302,6.035-4.776
		c2.414,0.86,8.026,1.514,9.557,1.323c0.438-0.052,0.935,0.261,1.688,0.783c0.619,0.424,1.317,0.904,2.188,1.202
		c0.453,0.155,0.718,0.407,1.209,0.916c0.813,0.826,1.91,1.957,4.742,3.034c2.922,1.11,4.828,0.064,5.703-0.657
		C310.709,179.152,311.452,177.842,311.325,177.123z M81.645,218.143l0.124-0.035c0.002,0,0.004-0.001,0.006-0.001l-9.025,3.181
		c-0.161,0.058-0.323,0.058-0.481,0.032C75.876,219.39,81.585,218.156,81.645,218.143z M87.021,208.597
		c-0.8-1.229-2.193-1.892-3.846-1.781l-0.628,0.278c-1.136,1.096-1.929,1.149-2.847,1.212c-1.104,0.074-2.477,0.168-3.646,2.309
		c-0.159,0.201-0.261,0.421-0.336,0.649c1.933-0.579,3.416-1.012,3.575-1.059c0.628-0.222,1.285-0.234,1.899-0.088
		c0.723-0.172,1.543-0.521,2.446-1.312c0.75,0.028,1.354,0.34,1.708,0.884c0.392,0.601,0.434,1.397,0.11,2.132
		c-0.263,0.595-0.797,1.124-1.406,1.566l0.069,0.195c0.246,0.699,0.245,1.421,0.057,2.085c1.298-0.725,2.558-1.782,3.112-3.042
		C87.884,211.273,87.784,209.766,87.021,208.597z M86.303,232.659l-0.375-1.062c-0.279-0.791-0.85-1.429-1.606-1.789
		c-0.724-0.35-1.534-0.404-2.293-0.164c-0.65,0.09-4.019,0.635-7.392,2.623c-0.476,0.276-0.635,0.896-0.354,1.365
		c0.28,0.479,0.895,0.637,1.368,0.354c3.301-1.938,6.688-2.361,6.722-2.365l0.215-0.059c0.287-0.102,0.596-0.086,0.871,0.049
		c0.274,0.139,0.482,0.361,0.584,0.646l0.374,1.063c0.102,0.289,0.085,0.6-0.047,0.873c-0.133,0.271-0.363,0.479-0.65,0.584
		l-0.121,0.054c-4.119,2.097-11,5.508-11.929,5.745l-0.271,0.07c-1.287,0.338-3.048,0.803-4.357-0.267
		c-1.005-0.812-1.121-1.276-1.331-2.131c-0.104-0.421-0.224-0.896-0.461-1.469c-0.353-0.851-0.788-1.201-1.106-1.462
		c-0.284-0.229-0.472-0.392-0.719-1.086c-0.33-0.938-0.33-1.604-0.33-2.146c0-0.434,0-0.841-0.161-1.248
		c-0.205-0.521-0.597-0.908-0.976-1.287c-0.473-0.479-0.917-0.924-1.103-1.617c-0.161-0.607,0.048-1.188,0.271-1.793
		c0.22-0.604,0.446-1.229,0.244-1.938c-0.161-0.477-0.452-0.758-0.665-0.965c-0.269-0.264-0.521-0.51-0.736-1.528
		c-0.69-2.283,2.659-3.808,5.851-5.057c0.42-0.164,0.8-0.313,1.115-0.448c2.334-1.002,12.814-4.055,12.972-4.102
		c0.771-0.271,1.622,0.135,1.895,0.908l0.435,1.231c0.272,0.772-0.135,1.622-0.906,1.896l-0.156,0.055
		c0.93-0.308,1.9-0.217,2.726,0.179c0.444-0.833,0.562-1.836,0.225-2.794l-0.435-1.23c-0.638-1.813-2.632-2.77-4.392-2.146
		c-0.437,0.126-10.704,3.118-13.149,4.167c-0.299,0.128-0.658,0.269-1.055,0.423c-2.907,1.139-8.319,3.255-7.059,7.412
		c0.294,1.414,0.792,1.994,1.275,2.468c0.061,0.063,0.139,0.139,0.146,0.104c-0.002,0.121-0.125,0.461-0.208,0.688
		c-0.272,0.748-0.646,1.771-0.324,2.989c0.322,1.217,1.071,1.969,1.619,2.521c0.225,0.229,0.479,0.479,0.529,0.604
		c0.023,0.074,0.022,0.316,0.022,0.521c0,0.611,0,1.555,0.443,2.812c0.399,1.136,0.862,1.58,1.341,1.971
		c0.244,0.198,0.366,0.302,0.523,0.683c0.181,0.438,0.275,0.812,0.367,1.188c0.24,0.964,0.487,1.961,2.011,3.199
		c1.043,0.847,2.191,1.104,3.269,1.104c1.089,0,2.104-0.27,2.861-0.469l0.26-0.064c1.401-0.354,10.354-4.895,12.285-5.871
		c0.76-0.287,1.37-0.852,1.722-1.582C86.535,234.305,86.582,233.45,86.303,232.659z M82.573,216.025
		c-0.032-0.002-0.066,0.003-0.1,0.002c-0.198-0.009-0.397-0.01-0.6,0.015c-0.161,0.021-0.321,0.065-0.481,0.108
		c-0.074,0.019-0.147,0.024-0.222,0.05h0.001H81.17c-0.711,0.155-6.812,1.525-10.49,3.716c-0.475,0.282-0.63,0.896-0.347,1.371
		s0.896,0.63,1.371,0.347c3.542-2.109,9.879-3.477,9.941-3.49l0.124-0.035c0.855-0.301,1.799,0.148,2.103,1.006l0.462,1.312
		c0.302,0.856-0.15,1.8-1.007,2.103l-10.245,3.611c-0.521,0.188-0.794,0.754-0.611,1.273c0.146,0.411,0.531,0.668,0.943,0.668
		c0.109,0,0.223-0.021,0.333-0.059l10.245-3.608c1.896-0.669,2.896-2.756,2.229-4.651l-0.462-1.312
		c-0.333-0.947-1.021-1.667-1.862-2.071l0,0C83.483,216.181,83.035,216.059,82.573,216.025z M84.322,229.809
		c0.385,0.188,0.72,0.438,0.994,0.75c1.545-0.771,2.323-2.589,1.735-4.263l-0.435-1.231c-0.235-0.666-0.655-1.217-1.182-1.607
		c-0.389,0.419-0.869,0.764-1.443,0.966l-1.151,0.406c0.771-0.271,1.617,0.137,1.889,0.901l0.436,1.229
		c0.266,0.756-0.119,1.587-0.86,1.877c-0.407,0.095-2.422,0.569-4.712,1.34c1.223-0.347,2.132-0.489,2.438-0.532
		C82.787,229.402,83.598,229.461,84.322,229.809z M133.704,107.388c-0.267,0-0.487-0.21-0.499-0.479
		c-0.013-0.276,0.202-0.509,0.478-0.521c1.276-0.057,2.799-0.155,3.033-0.221c0.265-0.072,0.542,0.074,0.621,0.333
		c0.079,0.26-0.054,0.531-0.312,0.617c-0.389,0.13-2.438,0.231-3.301,0.27C133.719,107.388,133.711,107.388,133.704,107.388z
		 M136.207,109.906l2.067-0.852c0.255-0.105,0.377-0.397,0.272-0.653c-0.105-0.255-0.397-0.375-0.653-0.272l-2.067,0.853
		c-0.256,0.104-0.377,0.396-0.272,0.652c0.08,0.193,0.266,0.311,0.462,0.311C136.08,109.943,136.145,109.931,136.207,109.906z
		 M170.26,111.212c-0.094,0-0.188-0.025-0.273-0.081l-1.458-0.95c-0.23-0.151-0.296-0.461-0.146-0.692
		c0.151-0.23,0.461-0.295,0.692-0.146l1.458,0.951c0.23,0.151,0.296,0.461,0.146,0.692
		C170.583,111.132,170.423,111.212,170.26,111.212z M171.458,108.493c0-0.276-0.225-0.5-0.5-0.5h-1.078c-0.276,0-0.5,0.224-0.5,0.5
		c0,0.276,0.224,0.5,0.5,0.5h1.078C171.235,108.993,171.458,108.77,171.458,108.493z M174.936,100.398
		c-0.146-0.243-0.298-0.494-0.347-0.642c-0.457-1.368-1.022-4.6-0.541-5.562l0.104-0.413c0.008-0.224,0.48-22.406-24.056-23.908
		c-1.465-0.09-2.917-0.135-4.317-0.135c-19.766,0-32.69,9.36-33.729,24.426c-0.715,10.357-0.221,29.546,11.118,41.695
		c6.79,7.274,16.484,10.964,28.813,10.964c19.99,0,21.909-25.498,21.929-25.821c0-0.066-0.011-0.76-0.371-4.239
		c-0.369-3.573,0.045-8.43,1.552-10.799C176.736,103.381,175.609,101.514,174.936,100.398z M173.405,104.892
		c-1.833,2.882-2.246,8.279-1.854,12.077c0.333,3.221,0.358,3.965,0.362,3.969l0,0c0,0.001,0,0.001,0,0.001l0,0
		c-0.021,0.318-1.821,23.886-19.931,23.886c-11.753,0-20.956-3.475-27.353-10.329c-10.823-11.596-11.277-30.159-10.585-40.191
		c0.975-14.13,12.838-22.564,31.734-22.564c1.359,0,2.771,0.044,4.195,0.131c21.68,1.327,22.199,19.495,22.184,21.661
		c-0.871,2.246,0.519,6.812,0.533,6.859c0.119,0.357,0.32,0.689,0.532,1.042C173.82,102.42,174.384,103.353,173.405,104.892z
		 M160.1,122.924c1.065-0.516,3.556-1.99,3.684-4.535c0.091-1.821-1.391-2.668-2.37-3.229c-0.351-0.2-0.681-0.389-0.881-0.571
		c-0.636-0.577-1.465-3.225-1.313-4.662c0.203-1.93-1.183-3.518-1.943-4.088c-0.442-0.332-1.068-0.24-1.399,0.201
		c-0.331,0.442-0.241,1.069,0.201,1.4c0.272,0.205,1.268,1.188,1.152,2.277c-0.192,1.84,0.689,5.197,1.957,6.351
		c0.363,0.33,0.806,0.583,1.233,0.828c0.971,0.555,1.393,0.854,1.366,1.393c-0.076,1.52-1.978,2.555-2.559,2.836
		c-1.204,0.583-2.317,0.674-3.7,0.298c-1.357-0.875-2.111-0.876-2.94-0.579c-0.022,0.009-0.045,0.017-0.066,0.023
		c-0.401-0.253-1.246-1.098-1.277-1.936c-0.026-0.674,0.531-1.294,1.657-1.847c0.496-0.243,0.701-0.842,0.458-1.338
		c-0.241-0.496-0.84-0.701-1.338-0.458c-2.967,1.453-2.939,3.432-2.66,4.48c0.418,1.564,2.08,3.224,3.167,3.128
		c0.314-0.021,0.559-0.108,0.736-0.172c0.216-0.076,0.4-0.146,1.288,0.448l0.276,0.128c0.782,0.229,1.524,0.344,2.245,0.344
		C158.112,123.646,159.104,123.406,160.1,122.924z"/>
	<path id="eyes" fill="#3A3A3A" d="M143.047,104.29c-0.577,0.457-0.947,1.162-0.947,1.956c0,1.378,1.117,2.494,2.494,2.494
		c1.378,0,2.495-1.116,2.495-2.494c0-0.305-0.056-0.596-0.155-0.865l-0.011-0.004c0.91,0.797,1.235,1.746,1.26,1.819
		c0.089,0.275,0.344,0.451,0.619,0.451c0.064,0,0.132-0.01,0.196-0.031c0.344-0.108,0.532-0.474,0.424-0.816
		c-0.445-1.4-2.271-3.994-6.041-3.814c-4.146,0.207-5.126,0.504-5.28,0.562c-0.331,0.123-0.497,0.486-0.381,0.819
		c0.115,0.333,0.482,0.512,0.818,0.404c0.035-0.011,0.885-0.27,4.505-0.465L143.047,104.29z M163.517,106.285
		c-0.158,0.317-0.247,0.677-0.247,1.056c0,1.311,1.062,2.373,2.373,2.373s2.373-1.062,2.373-2.373c0-0.757-0.355-1.433-0.908-1.867
		l-0.01,0.006c0.434,0.016,0.811,0.067,1.055,0.158c1.268,0.475,2.032,1.379,2.038,1.386c0.229,0.277,0.638,0.317,0.915,0.089
		c0.277-0.228,0.317-0.638,0.089-0.915c-0.039-0.048-0.98-1.176-2.585-1.776c-1.211-0.455-3.807-0.305-5.466,0.575
		c-0.869,0.46-1.422,1.092-1.6,1.826c-0.084,0.35,0.13,0.701,0.479,0.785c0.051,0.014,0.102,0.02,0.153,0.02
		c0.293,0,0.559-0.2,0.631-0.498c0.09-0.372,0.412-0.654,0.728-0.854L163.517,106.285z"/>
	<path id="Beard" fill="#FCF8F5" d="M150.236,121.438c0.688,0.876,1.604,1.521,2.292,1.46c0.052-0.003,0.09-0.017,0.138-0.023
		c0.629,0.196,1.301,0.307,2.043,0.372l0.119,0.057c0.782,0.229,1.524,0.343,2.244,0.343c1.04,0,2.032-0.239,3.027-0.722
		c0.332-0.16,0.803-0.426,1.294-0.776c0.612-0.327,1.141-0.669,1.58-0.963c0.423-0.281,0.991-0.664,1.245-0.648
		c0.068,0.076,0.139,0.432,0.186,0.667c0.146,0.729,0.366,1.83,1.447,2.662c0.726,0.557,1.694,0.786,2.679,0.701
		c-0.959,1.663-2.216,3.39-3.262,3.808c-0.751,0.301-1.401,0.447-1.989,0.447c-0.731,0-1.286-0.225-1.929-0.485l-0.206-0.083
		c-0.379-0.15-0.729-0.225-1.073-0.225c-1.016,0-1.664,0.609-2.417,1.312c-0.145,0.137-0.3,0.281-0.47,0.435
		c-0.701,0.63-1.812,0.278-2.917-0.728c-1.454-1.32-2.576-1.936-3.531-1.936c-0.313,0-0.607,0.067-0.873,0.2
		c-0.715,0.356-3.345,1.326-4.766,1.122c-0.616-0.088-1.409-0.433-2.108-0.736c-0.871-0.378-1.625-0.705-2.295-0.705
		c-0.348,0-0.655,0.087-0.896,0.249c-0.143,0.075-0.771,0.229-1.804,0.229c-1.062,0-3.173-0.166-5.396-1.278
		c-0.697-0.349-1.124-0.813-1.303-1.421c-0.147-0.499-0.116-1.06-0.008-1.583c0.466,0.462,1.102,0.882,1.959,1.096
		c0.374,0.093,0.715,0.139,1.043,0.139c1.37,0,2.167-0.788,3.01-1.623c0.284-0.28,0.599-0.593,0.977-0.917
		c0.548-0.469,0.997-0.994,1.433-1.502c0.97-1.133,1.736-2.028,3.271-2.028c2.958,0,4.835,0.331,6.289,2.074
		C149.598,120.822,149.918,121.146,150.236,121.438z M169.747,116.257c-1.978-1.506-4.153,0.87-6.065,2.737
		c-0.053,0.252-0.127,0.492-0.222,0.72c0.339-0.166,0.645-0.244,0.934-0.172c1.46,0.365,0.487,2.312,2.068,3.528
		c1.581,1.216,4.021-0.116,4.021-0.116s-2.409,5.372-4.843,6.345c-2.433,0.974-3.649,0.365-4.867-0.121
		c-1.217-0.486-1.704,0.243-2.92,1.338c-1.217,1.095-2.92,0.486-4.258-0.73c-1.338-1.216-2.555-1.947-3.285-1.582
		c-0.729,0.365-3.649,1.46-5.354,1.217s-3.894-1.824-4.623-1.338c-0.73,0.486-4.533,0.828-8.185-0.997
		c-3.649-1.825-1.073-6.136-1.073-6.136s0.466,1.877,2.412,2.364c1.947,0.486,2.434-0.73,4.137-2.19
		c0.716-0.614,1.286-1.373,1.909-2.053c-1.098-0.724-8.131-5.325-11.156-6.221c-2.323-0.688-6.81,1.788-10.096,2.953
		c-0.105,0.037-0.204,0.065-0.308,0.101c0,0.001,0.001,0.004,0.001,0.005l-0.024,0.003c-0.161,0.054-0.326,0.111-0.479,0.157
		c-1.005,0.298-1.85,0.414-2.416,0.188l0.365,4.016c-1.095-1.277-0.365-4.016-0.365-4.016l2.896-0.345
		c0.008-0.002,0.016-0.005,0.023-0.008c-0.089-0.4-0.275-2.62-0.294-3.003c-0.365-7.665,3.188-5.844,3.833-6.388
		c1.187-1.105-0.983-3.764,2.85-2.304c1.644-1.643-0.562-5.822-0.036-7.625c1.381-4.743,2.129-9.473,1.889-10.948
		c-0.459-2.821-15.115,2.514-15.115,2.514c-9.507,15.233-5.292,16.548-5.657,19.468c0.365,4.867-7.179,10.464-4.624,17.399
		c0.122,0.974,3.65-6.449,6.692-2.312c1.46,3.528-4.137,13.384-4.137,13.384c2.92-3.285,8.273-1.946,13.771,8.068
		c1.646-4.207,4.368-5.44,6.164-6.29c-0.001-0.002-0.001-0.004-0.002-0.005l-2.048-3.537c0.729,1.036,1.439,2.236,2.048,3.537
		l0.003,0.005l0,0c1.32,2.825,2.16,6.13,1.66,9.294c-0.729,4.624,1.598,10.699,2.571,13.376c0.973,2.677,3.49,4.46,5.559,10.3
		c2.069,5.841,0.007,11.053,0.372,13.363c0.364,4.295,5.733,11.63,5.369,15.038c-0.365,3.407-7.544,4.261-10.062,0.221
		c-2.663-4.274-0.801-5.101,2.552-5.902c-0.291-1.021-5.971-1.261-7.431,0.079c-1.46,1.339,0.532,7.441,3.209,11.822
		c1.151,2.071,12.68,2.603,17.06,0.169s6.658-13.02,8.118-17.644s6.021-7.848,6.021-11.498s-0.354-8.034-0.354-11.197
		c0-3.164,4.856-5.533,5.465-7.235c0.607-1.704,0.791-6.268,1.642-7.849c0.852-1.581,4.138-4.624,4.38-6.206
		c0.243-1.582-0.547-5.778,0.184-8.578c0.729-2.799,1.46-4.075,3.649-8.456C175.466,122.584,172.302,118.204,169.747,116.257z
		 M142.475,95.243c3.105,0.377,4.203,0.864,5.523,1.691c1.319,0.827,3.789,3.114,3.113,4.173c-1.433,1.39-2.938,2.666-5.77,0.419
		c-2.83-2.246-5.417-1.826-7.229-1.617s-6.781,2.251-8.91,0.782c3.007-0.469,3.312-1.545,5.078-3.219
		C136.048,95.8,139.371,94.866,142.475,95.243z M162.155,102.031c1.635,0.479,3.316-1.217,5.865-1.634
		c7.038-1.151,5.199,2.151,6.537,1.058c1.339-1.095,1.215-3.52-1.826-4.615c-3.042-1.095-12.099-0.116-12.346,2.106
		C160.264,100.041,160.521,101.55,162.155,102.031z"/>
	<path id="BeardBorder" fill="#9B9B9B" d="M174.617,127.636l-0.702,1.397c-1.625,3.232-2.232,4.442-2.838,6.765
		c-0.394,1.507-0.269,3.664-0.167,5.397c0.073,1.27,0.132,2.272,0.015,3.03c-0.195,1.271-1.268,2.623-2.881,4.538
		c-0.687,0.813-1.396,1.655-1.661,2.149c-0.357,0.664-0.636,2.598-0.839,4.008c-0.205,1.417-0.397,2.756-0.711,3.634
		c-0.36,1.008-1.322,1.857-2.438,2.843c-1.311,1.157-2.94,2.597-2.94,3.89c0,1.491,0.081,3.263,0.166,5.139
		c0.093,2.032,0.188,4.134,0.188,6.059c0,2.464-1.499,4.536-3.085,6.729c-1.186,1.64-2.411,3.333-3.007,5.221
		c-0.238,0.755-0.499,1.671-0.787,2.685c-1.619,5.691-3.835,13.486-8.033,15.818c-2.93,1.628-7.717,1.804-9.64,1.804
		c-2.417,0-8.178-0.249-9.459-2.555c-1.636-2.674-5.756-11.049-2.912-13.657c1.252-1.148,3.67-1.319,5-1.319
		c2.876,0,4.521,0.651,4.887,1.936c0.112,0.394,0.06,0.814-0.146,1.168c-0.207,0.354-0.548,0.606-0.946,0.702
		c-1.63,0.39-2.519,0.741-2.645,1.046c-0.024,0.06-0.205,0.643,1.018,2.604c0.776,1.246,2.309,1.99,4.1,1.99
		c1.67,0,3.104-0.708,3.198-1.577c0.145-1.349-1.227-4.202-2.437-6.72c-1.336-2.78-2.718-5.655-2.932-7.98
		c-0.139-0.958,0.009-2.078,0.194-3.489c0.349-2.655,0.783-5.958-0.49-9.552c-1.175-3.317-2.463-5.194-3.6-6.852
		c-0.806-1.173-1.5-2.188-1.955-3.438l-0.13-0.355c-1.063-2.907-3.273-8.955-2.514-13.768c0.392-2.479-0.151-4.944-0.937-7
		c-1.457,0.822-2.952,2.072-4.01,4.776c-0.212,0.542-0.72,0.913-1.3,0.951c-0.573,0.034-1.132-0.265-1.412-0.775
		c-4.047-7.372-8.689-10.771-11.336-7.793c-0.51,0.574-1.371,0.67-1.994,0.224c-0.624-0.447-0.811-1.293-0.433-1.96
		c2.058-3.625,4.72-9.803,4.11-11.912c-0.191-0.23-0.465-0.496-0.717-0.496c-0.827,0-2.178,1.696-2.688,2.334
		c-0.614,0.771-1.06,1.331-1.895,1.331c-0.715,0-1.314-0.477-1.502-1.161c-1.686-4.707,0.614-8.846,2.464-12.176
		c1.142-2.056,2.22-3.997,2.104-5.539c-0.008-0.101-0.005-0.199,0.008-0.298c0.044-0.354-0.044-0.719-0.202-1.333
		c-0.655-2.538-1.645-6.374,6.075-18.743c0.177-0.284,0.444-0.501,0.759-0.616c0.385-0.14,9.465-3.427,13.741-3.427
		c2.635,0,3.24,1.305,3.366,2.082c0.296,1.821-0.532,6.812-1.929,11.609c-0.107,0.367,0.133,1.522,0.292,2.286
		c0.41,1.973,0.92,4.426-0.635,5.98c-0.418,0.418-1.042,0.551-1.595,0.341c-0.153-0.059-0.288-0.106-0.406-0.146
		c-0.027,0.651-0.175,1.481-0.886,2.145c-0.579,0.489-1.18,0.517-1.66,0.54c-0.551,0.024-0.813,0.061-1.025,0.294
		c-0.252,0.276-0.821,1.257-0.672,4.385c0.007,0.152,0.038,0.545,0.077,0.991c0.399-0.164,0.812-0.336,1.235-0.514
		c2.434-1.021,4.949-2.075,6.975-2.075c0.483,0,0.935,0.061,1.339,0.181c2.927,0.867,8.853,4.639,10.995,6.038
		c-0.622,0.488-1.134,1.072-1.611,1.63c-0.17,0.199-0.336,0.389-0.504,0.575c-2.724-1.756-7.579-4.729-9.731-5.367
		c-0.128-0.038-0.292-0.057-0.487-0.057c-1.421,0-3.754,0.979-5.813,1.842c-1.008,0.423-1.961,0.822-2.867,1.144l-0.331,0.115
		c-0.189,0.063-0.374,0.122-0.555,0.175c-0.436,0.129-0.833,0.225-1.197,0.285l0.213,2.345c0.059,0.649-0.31,1.264-0.91,1.518
		c-0.603,0.253-1.298,0.09-1.724-0.405c-1.522-1.775-0.84-4.758-0.679-5.368c0.009-0.035,0.021-0.07,0.032-0.104
		c0.06-0.176,0.149-0.336,0.265-0.477c0.066-0.079,0.143-0.153,0.226-0.22c0.206-0.163,0.455-0.271,0.726-0.309c0,0,0.002,0,0.003,0
		c0,0,0.002,0,0.003,0c0.002,0,0.002,0,0.003,0s0.001-0.001,0.003,0c0.001,0,0.002,0,0.003,0c0.005,0,0.009-0.001,0.013-0.001
		l1.434-0.17c-0.069-0.748-0.124-1.481-0.131-1.625c-0.153-3.211,0.308-5.292,1.45-6.546c0.931-1.021,2.052-1.203,2.796-1.256
		c0-0.06,0-0.117-0.001-0.169c-0.006-0.57-0.017-1.435,0.636-2.095c0.365-0.369,1.115-0.802,2.423-0.531
		c-0.002-0.728-0.217-1.762-0.364-2.475c-0.283-1.363-0.552-2.651-0.235-3.735c1.295-4.446,1.882-8.308,1.878-9.833
		c-0.11-0.012-0.252-0.021-0.435-0.021c-2.932,0-9.409,2.075-12.229,3.072c-6.743,10.917-5.961,13.948-5.441,15.964
		c0.183,0.705,0.369,1.433,0.291,2.301c0.123,2.386-1.144,4.665-2.482,7.075c-1.271,2.289-2.574,4.634-2.665,7.091
		c0.97-0.983,2.204-1.876,3.663-1.876c0.855,0,2.116,0.326,3.256,1.876c0.072,0.098,0.131,0.203,0.177,0.314
		c1.09,2.633-0.646,7.401-2.248,10.856c2.466-0.039,6.18,1.372,10.409,8.06c1.298-1.979,2.842-3.085,4.156-3.81l-1.252-2.162
		c-0.402-0.694-0.187-1.583,0.489-2.015c0.675-0.434,1.572-0.257,2.035,0.399c0.452,0.643,1.283,1.91,2.082,3.583l0.041,0.071
		c0.056,0.095,0.1,0.196,0.132,0.299c1.224,2.671,2.298,6.271,1.712,9.98c-0.639,4.044,1.392,9.599,2.367,12.269l0.133,0.36
		c0.324,0.892,0.892,1.719,1.609,2.765c1.179,1.719,2.646,3.858,3.954,7.547c1.513,4.271,1.006,8.127,0.636,10.943
		c-0.145,1.104-0.281,2.146-0.196,2.687c0.006,0.036,0.01,0.071,0.013,0.107c0.151,1.785,1.421,4.429,2.649,6.985
		c1.519,3.157,2.951,6.141,2.717,8.338c-0.27,2.507-2.812,4.257-6.182,4.258c-2.833,0-5.317-1.272-6.646-3.403
		c-0.964-1.547-1.978-3.55-1.247-5.33c0.097-0.234,0.215-0.448,0.353-0.644c-0.897,0.103-1.453,0.299-1.648,0.425
		c-0.366,0.947,0.643,5.409,3.414,9.952c0.466,0.39,2.888,1.085,6.88,1.085c3.464,0,6.599-0.546,8.183-1.426
		c3.11-1.729,5.297-9.42,6.604-14.017c0.297-1.045,0.565-1.989,0.812-2.768c0.741-2.348,2.173-4.328,3.437-6.074
		c1.351-1.867,2.517-3.479,2.517-4.972c0-1.856-0.094-3.923-0.185-5.922c-0.087-1.911-0.169-3.717-0.169-5.275
		c0-2.646,2.192-4.582,3.955-6.138c0.584-0.517,1.466-1.295,1.601-1.608c0.21-0.589,0.39-1.838,0.563-3.047
		c0.287-1.99,0.559-3.871,1.167-5.002c0.414-0.769,1.188-1.688,2.009-2.661c0.735-0.874,2.105-2.5,2.211-3.062
		c0.067-0.442,0.01-1.438-0.045-2.398c-0.113-1.944-0.253-4.363,0.259-6.328c0.686-2.63,1.381-4.014,3.061-7.355l0.699-1.394
		c1.857-3.714-1.213-7.409-3.096-8.843c-0.198-0.151-0.333-0.17-0.43-0.17c-0.702,0-1.799,0.964-2.746,1.877
		c-0.241-0.256-0.564-0.47-1.026-0.585c-0.152-0.038-0.31-0.057-0.469-0.057c-0.143,0-0.278,0.03-0.415,0.058
		c0.006-0.064,0.026-0.12,0.031-0.186c0.025-0.52-0.086-0.952-0.268-1.329c1.436-1.393,3.043-2.778,4.893-2.778
		c0.809,0,1.564,0.264,2.247,0.784C174.23,117.787,176.994,122.882,174.617,127.636z M171.164,122.224
		c-0.314-0.292-0.78-0.352-1.156-0.148c-0.01,0.005-0.956,0.507-1.907,0.507c-0.426,0-0.762-0.1-1.029-0.305
		c-0.463-0.356-0.569-0.79-0.705-1.469c-0.151-0.757-0.381-1.9-1.73-2.237c-0.152-0.038-0.31-0.057-0.469-0.057
		c-0.143,0-0.278,0.03-0.415,0.058c-0.163,1.651-1.312,2.826-2.358,3.574c0.612-0.327,1.141-0.669,1.58-0.963
		c0.423-0.281,0.991-0.664,1.245-0.648c0.068,0.076,0.139,0.431,0.188,0.667c0.146,0.729,0.365,1.83,1.446,2.662
		c0.726,0.557,1.694,0.786,2.68,0.701c-0.959,1.663-2.217,3.39-3.263,3.808c-0.751,0.301-1.401,0.447-1.988,0.447
		c-0.732,0-1.287-0.225-1.93-0.485l-0.206-0.083c-0.379-0.15-0.729-0.225-1.072-0.225c-1.017,0-1.665,0.609-2.417,1.312
		c-0.146,0.137-0.301,0.281-0.471,0.435c-0.701,0.63-1.812,0.278-2.917-0.728c-1.454-1.32-2.576-1.936-3.531-1.936
		c-0.313,0-0.607,0.067-0.872,0.2c-0.716,0.356-3.346,1.326-4.767,1.122c-0.616-0.088-1.409-0.433-2.107-0.736
		c-0.872-0.378-1.625-0.705-2.296-0.705c-0.348,0-0.655,0.087-0.896,0.249c-0.142,0.075-0.771,0.229-1.804,0.229
		c-1.062,0-3.172-0.166-5.396-1.278c-0.697-0.349-1.124-0.813-1.303-1.421c-0.147-0.499-0.116-1.06-0.008-1.583
		c0.466,0.462,1.102,0.882,1.959,1.096c0.374,0.093,0.715,0.139,1.043,0.139c1.37,0,2.167-0.788,3.01-1.623
		c0.284-0.28,0.599-0.593,0.977-0.917c0.549-0.469,0.997-0.994,1.433-1.502c0.97-1.133,1.736-2.028,3.271-2.028
		c2.958,0,4.835,0.331,6.289,2.074c0.331,0.396,0.651,0.72,0.969,1.012c-0.398-0.508-0.723-1.094-0.875-1.668
		c-0.13-0.483-0.2-1.163,0.045-1.897c-1.927-1.361-4.209-1.521-6.428-1.521c-2.456,0-3.696,1.45-4.792,2.729
		c-0.402,0.472-0.782,0.916-1.214,1.284c-0.418,0.358-0.767,0.703-1.081,1.014c-1.052,1.04-1.289,1.185-2.162,0.967
		c-1.317-0.33-1.673-1.592-1.685-1.636c-0.098-0.393-0.423-0.688-0.824-0.748c-0.398-0.061-0.798,0.128-1.005,0.477
		c-0.062,0.104-1.519,2.58-0.844,4.888c0.338,1.158,1.122,2.051,2.33,2.655c2.592,1.295,5.054,1.489,6.291,1.489
		c0.585,0,1.976-0.049,2.762-0.475c0.295,0.039,0.951,0.323,1.438,0.535c0.815,0.354,1.739,0.755,2.622,0.881
		c1.946,0.277,5.132-0.907,5.923-1.301c0.063,0,0.671,0.04,2.186,1.416c1.107,1.007,2.333,1.562,3.45,1.562
		c0.805,0,1.548-0.286,2.149-0.827c0.182-0.163,0.347-0.318,0.5-0.463c0.527-0.493,0.835-0.772,1.05-0.772
		c0.082,0,0.196,0.028,0.33,0.082l0.197,0.08c0.73,0.296,1.559,0.632,2.681,0.632c0.847,0,1.739-0.193,2.731-0.589
		c2.729-1.092,5.12-6.277,5.384-6.865C171.571,122.974,171.477,122.516,171.164,122.224z M154.708,123.247
		c-0.743-0.065-1.415-0.176-2.043-0.372c0.244-0.034,0.449-0.096,0.599-0.148c0.216-0.076,0.4-0.146,1.288,0.448L154.708,123.247z
		 M148.148,103.75c-1.085,0-2.206-0.471-3.427-1.439c-1.353-1.074-2.758-1.574-4.423-1.574c-0.652,0-1.278,0.074-1.831,0.139
		l-0.239,0.028c-0.412,0.047-1.119,0.233-1.867,0.43c-1.503,0.396-3.374,0.887-5.017,0.887c-1.136,0-2.021-0.229-2.709-0.705
		c-0.337-0.233-0.498-0.647-0.407-1.046c0.091-0.399,0.417-0.702,0.821-0.767c2.019-0.313,2.521-0.85,3.521-1.916
		c0.3-0.317,0.625-0.665,1.022-1.041c1.686-1.596,4.555-2.587,7.49-2.587c0.51,0,1.019,0.03,1.513,0.09
		c3.167,0.384,4.438,0.898,5.934,1.837c1.031,0.646,3.277,2.504,3.643,4.125c0.149,0.668-0.034,1.148-0.216,1.434
		c-0.042,0.064-0.091,0.126-0.147,0.18C151.019,102.592,149.824,103.75,148.148,103.75z M140.297,98.736
		c2.111,0,3.965,0.657,5.667,2.007c0.842,0.667,1.577,1.006,2.184,1.006c0.731,0,1.354-0.491,2.062-1.162
		c-0.164-0.585-1.469-2.008-2.743-2.806c-1.139-0.714-2.052-1.174-5.112-1.546c-2.732-0.333-5.845,0.503-7.386,1.963
		c-0.365,0.346-0.665,0.666-0.939,0.958c-0.291,0.31-0.564,0.602-0.86,0.872c0.919-0.167,1.86-0.414,2.685-0.63
		c0.855-0.226,1.593-0.418,2.146-0.482l0.232-0.026C138.839,98.818,139.527,98.736,140.297,98.736z M162.758,103.116
		c-0.304,0-0.603-0.042-0.885-0.125c-1.757-0.517-2.708-2.109-2.481-4.155c0.378-3.406,9.605-3.445,9.699-3.445
		c1.17,0,2.81,0.088,3.979,0.51c1.819,0.655,3.006,1.86,3.254,3.306c0.197,1.151-0.227,2.282-1.134,3.023
		c-0.257,0.21-0.608,0.452-1.053,0.452l0,0c-0.67,0-0.996-0.498-1.152-0.737c-0.193-0.297-0.519-0.793-2.324-0.793
		c-0.694,0-1.528,0.079-2.479,0.234c-0.982,0.16-1.836,0.544-2.662,0.916C164.586,102.719,163.704,103.116,162.758,103.116z
		 M169.091,97.389c-3.981,0-7.427,1.028-7.718,1.696c-0.077,0.724,0.039,1.686,1.063,1.986c0.56,0.166,1.33-0.177,2.264-0.597
		c0.897-0.404,1.917-0.862,3.158-1.065c1.058-0.173,1.999-0.26,2.802-0.26c1.987,0,2.976,0.523,3.573,1.154
		c0.121-0.229,0.165-0.494,0.119-0.762c-0.123-0.716-0.837-1.358-1.96-1.763C171.702,97.531,170.499,97.389,169.091,97.389z"/>
	<path id="Hat" fill="#0062BA" d="M175.918,81.927c2.926,0.067,6.244,1.22,7.947,3.077c1.702,1.858,6.503,3.406,10.751,3.743
		c1.874-0.09,10.146,2.642,10.236,4.517s3.591,5.254,4.278,6.473c0.687,1.219-1.099,3.184-8.458,2.078
		c-7.359-1.106-20.771-6.512-28.674-5.922c-7.903,0.59-14.235-5.158-20.492-5.065c-6.257,0.094-10.521,2.596-18.276,1.926
		c-7.755-0.669-10.909-1.143-13.338,0.436c-2.43,1.578-6.05,0.083-11.911-0.26c-5.86-0.344-8.437,2.494-13.97,4.64
		c-5.532,2.146-11.866,0.688-15.245-0.146c-3.38-0.833,0.02-3.92,3.042-6.152c3.023-2.233,11.085-3.875,18.512-5.694
		c7.428-1.82,11.713,0.479,13.375-3.985c1.663-4.464,3.93-13.758,7.446-18.729c3.518-4.97,3.722-9.364,4.71-14.839
		c0.989-5.475,0.828-8.808,2.175-11.168c1.348-2.361,1.178-5.902,0.085-6.894c-1.092-0.989-3.69-2.953-3.364-4.847
		c0.325-1.894,2.556-3.254,2.298-4.286c-0.258-1.031-2.958-5.075-1.154-6.624c1.804-1.548,4.846-3.366,6.375-1.978
		c1.528,1.388,2.562,5.513,4.833,4.985c2.271-0.526,5.543-1.938,7.756,0.669c2.212,2.607,2.373,5.939,5.695,5.57
		c3.322-0.369,4.444,1.247,5.844,4.312c1.4,3.062,7.277,12.381,8.829,18.567c1.551,6.188,5.157,16.033,6.597,19.93
		C173.263,70.158,175.918,81.927,175.918,81.927z"/>
	<path id="HatBorder" fill="#005068" d="M210.547,98.941c-0.291-0.521-0.82-1.157-1.49-1.962c-0.76-0.913-2.535-3.05-2.58-3.793
		c-0.18-3.689-10.283-6.064-11.766-6.064l-0.044,0.001c-3.98-0.33-8.276-1.766-9.605-3.215c-1.891-2.062-5.092-3.195-7.829-3.514
		c-0.717-3.107-2.685-11.44-3.888-14.696c-3.283-8.882-5.485-15.531-6.545-19.761c-1.164-4.644-4.49-10.669-6.918-15.07
		c-0.879-1.593-1.638-2.968-2.008-3.778c-1.279-2.799-2.734-5.312-6.439-5.312c-0.332,0-0.686,0.021-1.062,0.062
		c-1.012,0.113-1.36-0.21-2.423-2.148c-0.486-0.888-1.037-1.896-1.854-2.857c-1.182-1.393-2.745-2.099-4.645-2.099
		c-1.353,0-2.632,0.346-3.76,0.649c-0.334,0.092-0.655,0.179-0.976,0.254c-0.394-0.095-1.182-1.453-1.562-2.104
		c-0.529-0.912-1.077-1.854-1.794-2.505c-0.66-0.599-1.519-0.916-2.481-0.916c-2.442,0-5.04,2.003-6.043,2.864
		c-2.328,1.998-0.646,5.521,0.257,7.417c0.087,0.182,0.193,0.403,0.271,0.578c-0.127,0.183-0.326,0.431-0.473,0.613
		c-0.635,0.791-1.504,1.874-1.742,3.257c-0.441,2.569,1.994,4.688,3.45,5.952c0.157,0.138,0.302,0.264,0.409,0.358
		c0.417,0.492,0.646,3.083-0.389,4.9c-1.034,1.813-1.304,3.984-1.644,6.734c-0.178,1.438-0.379,3.065-0.72,4.949
		c-0.158,0.877-0.297,1.728-0.433,2.557c-0.705,4.333-1.263,7.757-4.005,11.632c-2.74,3.874-4.672,9.951-6.224,14.834
		c-0.534,1.682-0.996,3.133-1.417,4.266c-0.625,1.676-1.453,1.873-5.037,2.054c-1.936,0.098-4.344,0.22-7.203,0.92
		c-1.147,0.281-2.311,0.559-3.468,0.833c-6.583,1.567-12.801,3.048-15.623,5.132c-3.911,2.89-5.422,4.903-5.056,6.737
		c0.16,0.798,0.737,1.845,2.59,2.301c2.759,0.682,5.772,1.312,9.113,1.312c2.617,0,5.009-0.413,7.107-1.228
		c1.805-0.7,3.322-1.477,4.66-2.162c2.848-1.458,5.049-2.576,8.627-2.371c1.904,0.112,3.581,0.353,5.06,0.563
		c1.537,0.22,2.865,0.41,4.084,0.41c1.535,0,2.727-0.31,3.748-0.973c1.656-1.076,4.231-0.896,10.177-0.367l2.137,0.188
		c0.92,0.08,1.843,0.12,2.744,0.12c3.401,0,6.125-0.556,8.758-1.093c2.294-0.468,4.461-0.91,6.938-0.947l0.126-0.001
		c2.475,0,5.135,1.083,7.951,2.229c3.647,1.484,7.834,3.179,12.512,2.832c4.738-0.361,11.844,1.652,18.08,3.402
		c3.813,1.071,7.417,2.082,10.231,2.505c1.52,0.229,2.904,0.345,4.116,0.345c3.878,0,5.391-1.188,5.973-2.186
		C211.002,100.756,211.014,99.769,210.547,98.941z M204.548,100.516c-1.051,0-2.274-0.104-3.633-0.309
		c-2.615-0.393-6.123-1.377-9.837-2.42c-5.953-1.671-12.7-3.564-17.816-3.564c-0.477,0-0.938,0.016-1.384,0.049
		c-3.943,0.296-7.55-1.179-11.043-2.602c-3.119-1.27-6.065-2.469-9.177-2.469l-0.176,0.001c-2.78,0.042-5.199,0.536-7.54,1.013
		c-2.475,0.506-5.033,1.027-8.107,1.027c-0.808,0-1.636-0.036-2.464-0.107l-2.128-0.188c-2.896-0.258-4.989-0.444-6.731-0.444
		c-2.431,0-4.077,0.396-5.504,1.323c-0.478,0.311-1.087,0.448-1.978,0.448c-0.987,0-2.209-0.175-3.623-0.377
		c-1.543-0.221-3.29-0.471-5.331-0.59c-4.475-0.256-7.293,1.183-10.3,2.723c-1.33,0.681-2.705,1.385-4.353,2.024
		c-1.723,0.668-3.719,1.007-5.934,1.007c-3.39,0-6.58-0.783-8.31-1.209c0.337-0.503,1.233-1.532,3.592-3.275
		c2.288-1.689,8.469-3.162,14.445-4.584c1.164-0.276,2.334-0.556,3.489-0.839c2.559-0.627,4.703-0.735,6.594-0.831
		c2.562-0.129,5.014-0.261,6.662-2.051l-0.26-0.364c0.021-0.059,2.279-5.916,2.938-7.977l0.277-0.247
		c0.155-0.031,0.303-0.057,0.457-0.086c1.359-4.2,3.006-8.85,5.093-11.798c3.176-4.489,3.848-8.617,4.56-12.987
		c0.133-0.812,0.269-1.645,0.423-2.501c0.355-1.974,0.563-3.649,0.746-5.127c0.308-2.483,0.529-4.277,1.241-5.524
		c1.648-2.89,1.532-7.299-0.234-8.901c-0.14-0.125-0.301-0.267-0.477-0.42c-0.621-0.539-2.511-2.183-2.379-2.947
		c0.096-0.557,0.615-1.204,1.074-1.775c0.712-0.888,1.52-1.895,1.199-3.181c-0.101-0.398-0.31-0.837-0.6-1.445
		c-1.403-2.944-1.177-3.462-1.073-3.551c1.427-1.226,3.042-2.08,3.927-2.08c0.219,0,0.278,0.055,0.298,0.072
		c0.343,0.312,0.782,1.065,1.168,1.731c0.964,1.659,2.164,3.724,4.365,3.724c0.251,0,0.507-0.03,0.76-0.088
		c0.338-0.079,0.697-0.176,1.071-0.276c0.979-0.265,1.99-0.538,2.911-0.538c0.939,0,1.607,0.293,2.167,0.952
		c0.603,0.71,1.049,1.524,1.479,2.313c1.011,1.847,2.254,4.193,5.633,3.819c0.25-0.028,0.483-0.042,0.703-0.042
		c1.564,0,2.215,0.638,3.483,3.414c0.422,0.922,1.171,2.279,2.119,3.998c2.21,4.005,5.55,10.058,6.61,14.29
		c1.088,4.344,3.326,11.104,6.649,20.098c0.557,1.505,1.312,4.271,2.018,7.052c0.051,0.005,0.107,0.01,0.158,0.014l0.328,0.274
		c0.987,3.932,1.578,7.359,1.584,7.395l-0.177,0.18c0.078,0.337,0.122,0.532,0.125,0.547l1.547,1.268
		c2.633,0.061,5.488,1.134,6.787,2.552c2.16,2.355,7.581,3.929,11.819,4.265l0.225,0.003c1.738,0,7.532,2.1,8.542,3.231
		c0.204,1.61,1.562,3.357,3.305,5.453c0.296,0.354,0.615,0.741,0.851,1.043C207.002,100.279,206.159,100.516,204.548,100.516z"/>
	<path id="RobeCircles" fill="#00FFDA" d="M227.875,166.986c1.941,0,3.521,1.576,3.521,3.521c0,1.945-1.576,3.521-3.521,3.521
		s-3.521-1.576-3.521-3.521C224.354,168.562,225.93,166.986,227.875,166.986z M153.941,216.275c0,1.944,1.577,3.521,3.521,3.521
		c1.943,0,3.521-1.576,3.521-3.521s-1.576-3.521-3.521-3.521C155.517,212.754,153.941,214.331,153.941,216.275z M94.972,154.225
		c0,1.943,1.576,3.52,3.521,3.52c1.943,0,3.521-1.576,3.521-3.52c0-1.945-1.577-3.521-3.521-3.521
		C96.548,150.704,94.972,152.28,94.972,154.225z M97.433,197.054c0,1.657,1.345,3.002,3.003,3.002c1.658,0,3.002-1.345,3.002-3.002
		c0-1.658-1.344-3.002-3.002-3.002C98.778,194.052,97.433,195.396,97.433,197.054z M75.168,292.85c0,1.941,1.577,3.521,3.521,3.521
		s3.521-1.577,3.521-3.521c0-1.938-1.577-3.521-3.521-3.521C76.745,289.327,75.168,290.904,75.168,292.85z M137.219,337.297
		c0,1.944,1.576,3.521,3.521,3.521c1.943,0,3.521-1.576,3.521-3.521c0-1.943-1.577-3.521-3.521-3.521
		C138.795,333.773,137.219,335.354,137.219,337.297z M174.186,311.331c0,1.944,1.576,3.521,3.521,3.521
		c1.942,0,3.521-1.57,3.521-3.521c0-1.942-1.577-3.521-3.521-3.521C175.762,307.813,174.186,309.389,174.186,311.331z
		 M182.107,390.547c0,1.941,1.576,3.521,3.521,3.521c1.942,0,3.521-1.576,3.521-3.521s-1.577-3.521-3.521-3.521
		C183.683,387.023,182.107,388.602,182.107,390.547z M115.215,398.468c0,1.943,1.576,3.521,3.521,3.521
		c1.943,0,3.521-1.576,3.521-3.521c0-1.938-1.577-3.521-3.521-3.521C116.792,394.945,115.215,396.522,115.215,398.468z
		 M59.325,374.702c0,1.944,1.576,3.521,3.521,3.521c1.943,0,3.521-1.568,3.521-3.521c0-1.942-1.577-3.521-3.521-3.521
		C60.902,371.182,59.325,372.76,59.325,374.702z"/>
	<path id="Band" fill="#00FFDA" d="M172.156,74.598c-1.113-0.085-2.356-0.21-4.068-0.382c-2.397-0.239-5.682-0.567-10.812-1.012
		c-2.612-0.226-5.4-0.34-8.288-0.34c-9.388,0-19.764,1.143-31.715,3.495c-0.601,1.822-2.123,5.82-2.679,7.271
		c1.411-0.128,5.884-0.619,17.808-2.462c6.441-0.84,13.27-1.265,20.303-1.265c10.727,0,18.825,1.004,20.874,1.284
		C173.383,80.135,172.883,77.527,172.156,74.598z M128.946,63.755c0,1.944,1.577,3.521,3.521,3.521c1.943,0,3.521-1.577,3.521-3.521
		c0-1.944-1.576-3.521-3.521-3.521C130.522,60.234,128.946,61.811,128.946,63.755z M131.386,22.28c0,0.821,0.666,1.488,1.488,1.488
		c0.82,0,1.487-0.667,1.487-1.488c0-0.822-0.667-1.488-1.487-1.488C132.052,20.792,131.386,21.458,131.386,22.28z M147.79,29.6
		c0,0.82,0.666,1.486,1.487,1.486c0.821,0,1.487-0.666,1.487-1.486c0-0.822-0.667-1.488-1.487-1.488
		C148.456,28.112,147.79,28.777,147.79,29.6z"/>
	<path id="BandBorder" fill="#00C1AE" d="M172.801,74.165l-0.328-0.274c-1.177-0.085-2.473-0.216-4.312-0.399
		c-2.399-0.24-5.687-0.569-10.822-1.013c-2.634-0.229-5.443-0.343-8.352-0.343c-9.49,0-19.979,1.16-32.066,3.55l-0.277,0.247
		c-0.659,2.061-2.917,7.917-2.938,7.977l0.354,0.496c0.117-0.004,3.039-0.133,18.445-2.513c6.4-0.834,13.197-1.259,20.199-1.259
		c12.34,0,21.179,1.333,21.267,1.348l0.415-0.422C174.379,81.524,173.788,78.096,172.801,74.165z M152.703,79.904
		c-7.034,0-13.861,0.425-20.303,1.265c-11.923,1.843-16.396,2.334-17.808,2.462c0.556-1.451,2.079-5.449,2.679-7.271
		c11.951-2.353,22.327-3.495,31.715-3.495c2.888,0,5.676,0.114,8.288,0.34c5.131,0.443,8.414,0.772,10.812,1.012
		c1.712,0.172,2.955,0.297,4.068,0.382c0.728,2.929,1.228,5.536,1.421,6.59C171.529,80.908,163.43,79.904,152.703,79.904z"/>
	<path id="RobeStars" fill="#FFF364" d="M208.643,200.362l2.258,0.328l-1.635,1.593l0.387,2.25l-2.021-1.062l-2.021,1.062
		l0.386-2.25l-1.635-1.593l2.259-0.328l1.01-2.046L208.643,200.362z M123.136,168.57l-1.474,2.988l-3.299,0.479l2.387,2.326
		l-0.563,3.284l2.949-1.55l2.95,1.55l-0.563-3.284l2.387-2.326l-3.299-0.479L123.136,168.57z M96.292,228.643l-1.281,2.594
		l-2.863,0.416l2.072,2.021l-0.489,2.854l2.562-1.35l2.561,1.35l-0.489-2.854l2.072-2.021l-2.863-0.416L96.292,228.643z
		 M170.665,349.18l-1.293,2.619l-2.893,0.421l2.093,2.039l-0.493,2.882l2.586-1.356l2.586,1.356l-0.494-2.882l2.093-2.039
		l-2.892-0.421L170.665,349.18z M53.604,397.01l-1.463,2.965l-3.271,0.479l2.367,2.31l-0.559,3.264l2.926-1.535l2.927,1.535
		l-0.559-3.264l2.368-2.31l-3.272-0.479L53.604,397.01z M98.933,334.52l-1.463,2.97l-3.272,0.479l2.368,2.313l-0.559,3.258
		l2.927-1.539l2.926,1.539l-0.559-3.258l2.368-2.313l-3.272-0.479L98.933,334.52z M149.981,277.212l-1.621,3.283l-3.624,0.526
		l2.622,2.557l-0.619,3.607l3.241-1.703l3.241,1.703l-0.619-3.607l2.622-2.557l-3.624-0.526L149.981,277.212z M173.746,156.65
		l-1.099,2.224l-2.454,0.357l1.775,1.73l-0.419,2.444l2.195-1.154l2.194,1.154l-0.419-2.444l1.775-1.73l-2.454-0.357L173.746,156.65
		z"/>
	<path id="HatStars" fill="#FFF364" d="M156.458,41.076L155.36,43.3l-2.454,0.357l1.776,1.731l-0.419,2.443l2.195-1.153l2.194,1.153
		l-0.419-2.443l1.775-1.731l-2.454-0.357L156.458,41.076z M138.586,40.923l-0.833,1.688l-1.863,0.271l1.349,1.314l-0.317,1.855
		l1.667-0.877l1.666,0.877l-0.318-1.855l1.349-1.314l-1.863-0.271L138.586,40.923z M156.051,60.723l-0.833,1.688l-1.863,0.271
		l1.349,1.313l-0.318,1.855l1.667-0.876l1.667,0.876l-0.318-1.855l1.349-1.313l-1.863-0.271L156.051,60.723z"/>
</g>
</svg>
