<svg xmlns="http://www.w3.org/2000/svg" xmlns:xlink="http://www.w3.org/1999/xlink" viewBox= "0 0 122 194" width="122px" height="194px">
<!--Created with Scratch Jr-->
<g id="layer1" style="pointer-events:visiblePainted">
<path d="M54.64460754394531,68.94076538085938L70.43205261230469,68.25436401367188L71.11846923828125,156.114990234375L53.27178955078125,154.74215698242188L54.64460754394531,68.94076538085938z" id="path 2" opacity="1" fill="rgb(255, 255, 255)" stroke="rgb(28, 28, 28)" stroke-width="1" stroke-linecap="round" style="pointer-events:visiblePainted;">
</path>
<path opacity="1" fill="rgb(255, 131, 0)" stroke="rgb(28, 28, 28)" stroke-width="1" d="M13.459930419921875,137.92510986328125C15.819961547851562,134.86343383789062,34.930908203125,149.4476318359375,42.2891845703125,151.31011962890625C49.6474609375,153.172607421875,67.94046020507812,154.3773193359375,75.92333984375,153.36935424804688C83.90621948242188,152.36138916015625,106.67311096191406,139.50222778320312,108.87109375,142.72991943359375C111.06915283203125,145.95761108398438,97.46900939941406,167.89328002929688,82.10104370117188,175.33453369140625C66.73307800292969,182.77578735351562,60.9149169921875,183.30581665039062,45.03485107421875,176.02090454101562C29.15478515625,168.73599243164062,11.099899291992188,140.98678588867188,13.459930419921875,137.92510986328125" id="path 1" stroke-miterlimit="null" style="pointer-events:visiblePainted;">
</path>
<path opacity="1" fill="rgb(255, 244, 46)" stroke="rgb(255, 244, 46)" stroke-width="1" d="M51.10870361328125,44.85755920410156C50.42742919921875,40.27250671386719,49.260345458984375,35.09446716308594,52.439453125,28.86956787109375C55.618560791015625,22.644668579101562,68.39468383789062,11.47747802734375,70.905517578125,13.014144897460938C73.41635131835938,14.550811767578125,63.733917236328125,32.594970703125,64.7713623046875,38.39875793457031C65.80880737304688,44.202545166015625,72.09951782226562,42.29322814941406,71.92422485351562,49.061614990234375C71.74893188476562,55.83000183105469,65.17864990234375,66.53756713867188,59.414459228515625,65.77046203613281C53.6502685546875,65.00335693359375,51.78997802734375,49.44261169433594,51.10870361328125,44.85755920410156" id="path 3" stroke-miterlimit="null" style="pointer-events:visiblePainted;">
</path>
</g>
</svg>