<svg xmlns="http://www.w3.org/2000/svg" xmlns:xlink="http://www.w3.org/1999/xlink" width="80.43537139892578" height="123.55328369140625" viewBox="-0.00036907196044921875 -0.053281307220458984 80.43537139892578 123.55328369140625" version="1.1" xml:space="preserve">
  <!-- Generator: Sketch 52.4 (67378) - http://www.bohemiancoding.com/sketch -->
  <g>
    <title>Slice 1</title>
    <desc>Created with Sketch.</desc>
    <g id="Page-1" stroke="none" fill-rule="evenodd">
      <g id="jordyn-d">
        <g id="Group">
          <g id="Group-3">
            <path d="M 17.8 87.4 C 17.5 88.2 14.9 98.5 14.8 99.4 L 21.6 99.2 C 22 98.6 26.6 89.4 26.6 88.6 C 25 88.6 19.4 87.4 17.8 87.4 Z " id="Shape_6_" stroke-width="1" fill="#DCAA78"/>
          </g>
          <g id="Path">
            <path d="M 10.7 117.6 C 10.7 117.6 5.1 119.4 4.2 119.8 L 4.6 120.6 C 4.6 120.6 13.4 120.5 14.9 120.4 C 14.9 120.4 15 120 15.3 119.3 L 10.7 117.6 Z " fill="#000000" stroke-width="1"/>
            <path d="M 14.2 98.4 L 10.7 117.5 L 15.3 119.3 C 16.6 115.7 20.9 103.9 23 98.4 L 14.2 98.4 Z " fill="#00A08C" stroke-width="1"/>
          </g>
          <polygon id="Rectangle-path_1_" fill="#008264" points="9.7 9.6 20.4 9.6 19.4 12.4 9 12.3" stroke-width="1" transform="matrix(1,0,0,1,4,87)"/>
        </g>
        <g id="Group">
          <g id="Group-4">
            <path d="M 61.5 87.2 C 60.1 87 54.3 88 52.9 88.2 C 52.9 89 55.5 98.7 55.9 99.4 L 62.4 99.4 C 62.3 98.2 61.6 88.5 61.5 87.2 Z " id="Shape" stroke-width="1" fill="#DCAA78"/>
          </g>
          <g id="Path">
            <path d="M 66.8 120.4 L 63.2 122.2 C 63.4 122.7 63.5 123 63.5 123 C 65.5 122.9 72.7 123 72.9 123 L 73 122 C 73.1 122 67.9 120.7 66.8 120.4 Z " fill="#000000" stroke-width="1"/>
            <path d="M 66.7 120.4 C 66.7 120.4 64.2 98 64.1 97.5 C 60.7 97.2 57.3 97.2 53.9 97.6 C 56 104.7 61.7 118.8 63.1 122.2 L 66.7 120.4 C 66.8 120.4 66.8 120.4 66.7 120.4 Z " fill="#00A08C" stroke-width="1"/>
          </g>
          <polygon id="Rectangle-path" fill="#008264" points="1.1 9.6 12.6 9.6 13 12.4 1.7 12.4" stroke-width="1" transform="matrix(1,0,0,1,52,87)"/>
        </g>
        <g id="Group-2">
          <path d="M 51.1 16.6 C 52 15.1 53 13 55.2 13.6 C 56.9 14 57.6 16.2 57.3 17.8 C 57 19.4 55.2 20.9 53.5 20.9 C 50.6 20.8 50.8 18.7 51.1 16.6 Z " id="Shape_11_" fill="#DCAA78" stroke-width="1"/>
          <path d="M 52.5 9.4 L 38.3 7.1 L 29.7 5.7 C 27.6 5.4 27.4 5.1 26.4 7.3 C 24.6 11.2 25.3 16.8 26.5 20.9 C 27.2 23.5 32 32 39.7 32 C 47.4 32 52.5 23.2 52.7 21.2 C 53.2 17.3 53.2 13.3 52.5 9.4 Z " id="Shape_12_" fill="#DCAA78" stroke-width="1"/>
          <path d="M 24.5 6.6 C 24.5 6.6 20.5 7.9 18.9 10.2 C 16.9 13.1 16.5 16.4 15.7 19.7 C 14.9 22.7 13.4 25.5 10.4 26.8 C 7.4 28.1 3.7 27.2 2.2 24.1 C -0.6 18.8 1.9 9.3 7 6 C 9.8 4.2 13.2 4.1 16.4 4.5 C 19.2 4.8 21.9 5.5 24.5 6.6 Z " id="Shape_13_" fill="#000000" stroke-width="1"/>
          <path d="M 26.3 6.9 C 29.3 1.3 36.7 -0.5 43.1 0.9 C 51.1 2.6 53.8 8.2 53.2 15 C 48.9 15.2 26.6 7.6 26.3 6.9 Z " id="Shape_14_" fill="#000000" stroke-width="1"/>
          <path d="M 27.6 14.3 C 27.6 14.3 29.7 18.7 29.8 20.6 C 28.7 20.6 25.7 21.4 24.4 21 C 23.3 20.7 22.1 19.9 21.8 18.7 C 21.6 17.6 21 15.4 21.4 14.5 C 23.1 10.8 27.6 14.3 27.6 14.3 Z " id="Shape_15_" fill="#DCAA78" stroke-width="1"/>
          <path d="M 25.4 10.8 C 24.1 9.9 23.7 8.3 24.3 6.9 C 25.3 4.4 27.8 5.4 27.8 5.4 L 25.4 10.8 Z " id="Shape_16_" fill="#F01446" stroke-width="1"/>
          <path d="M 39.5 14 C 39.9 14.7 40.2 15.4 40.4 16.1 C 40.5 16.7 40.8 17.4 40.2 18 C 39.9 18.4 39.3 18.5 38.8 18.3 C 38.4 18.1 38.3 17.8 38.2 17.3 C 38.2 16.4 38.4 15.4 38.9 14.6 C 39.1 14.4 39.3 14.2 39.5 14 Z " id="Shape_17_" fill="#BE8C64" stroke-width="1"/>
          <path d="M 41.4 21.5 C 40.5 21.4 39.6 21.2 38.8 21.1 C 38.1 21 37.1 20.7 36.5 20.7 C 34.9 20.8 35.4 22.8 36.1 23.7 C 37.7 25.7 42.7 24.6 43.3 22.1 C 42.7 21.8 42.1 21.6 41.4 21.5 Z " id="Shape_18_" fill="#000000" stroke-width="1"/>
          <path d="M 32.7 14.5 C 33.1 14.4 33.4 14.5 33.5 14.7 C 33.6 15.1 33.6 16.4 33.2 16.7 L 32.7 16.5 L 32.7 14.5 Z " id="Shape_19_" fill="#000000" stroke-width="1"/>
          <path d="M 46.3 16.6 C 45.8 16.5 45.5 15.6 45.8 15.1 C 45.9 14.9 46 14.8 46.2 14.8 C 46.3 14.8 46.5 15 46.5 15.2 C 46.6 15.6 46.6 16.2 46.3 16.6 Z " id="Shape_20_" fill="#000000" stroke-width="1"/>
          <path d="M 35.7 6.4 L 25.3 19 C 25.3 19 20.1 2.8 35.9 0.7 L 35.7 6.4 Z " id="Shape_21_" fill="#000000" stroke-width="1"/>
          <polyline id="Shape_22_" fill="#000000" points="29.5 5.3 27.5 20.7 33.7 6.8 29.5 5.3" stroke-width="1" transform="matrix(1,0,0,1,1,0)"/>
        </g>
        <path d="M17,74 L15.4,83 C15.4,83 15.8,85.2 16.6,86.2 L20.4,73.3 L17,74 Z" id="Shape_23_" fill="#DCAA78" stroke-width="1"/>
        <path d="M57.3,72.2 L61.2,87 C61.2,87 61.7,76.8 65.2,74 L65.2,71.9 L57.3,72.2 Z" id="Shape_24_" fill="#DCAA78" stroke-width="1"/>
        <path d="M29,91.1 L32.6,79.3 L45.4,79.2 L45.4,79 L49.7,91.1 L64,91.1 C62.2,82.8 59.8,70.7 58.8,68.4 L30.1,67.8 C28.2,67.8 22.1,66.7 20.8,67.9 C20.2,68.4 19.9,71 19.6,71.7 C19,73.7 18.3,75.8 17.6,77.8 C16.2,82.2 14.7,86.6 13.3,91 L29,91.1 Z" id="Shape_25_" fill="#F01446" stroke-width="1"/>
        <path d="M79.8,54.3 C78.9,47.3 74.3,42.2 68.6,39 C67,38.1 60.9,36.6 59.5,36.6 L58.9,44.8 C65.1,44.8 68.9,47.3 70.9,53.9 C72.9,60.5 69.7,64.1 68.2,66.1 C66.7,68.2 62.4,69.9 60.7,70.5 C59,71 56.1,70.3 54.7,71.4 C55.6,73.4 58.8,72 60.1,74 C61.4,76 61.2,76.5 62.3,78.7 C62.5,78.6 63.3,77.1 63.9,76.5 C65,75.3 66.6,75.4 68.1,75 C71,74.1 73.6,72.4 75.6,70.1 C79,66.1 80.4,59.7 79.8,54.3 Z" id="Shape_26_" fill="#DCAA78" stroke-width="1"/>
        <path d="M22.6,72.5 C21.8,71.7 19.6,72.6 18.7,72.6 C17.5,72.4 16.4,72 15.4,71.4 C13.4,70.2 11.6,67.8 10.4,65.6 C7.8,61 7.5,55.1 11.5,49.6 C15.5,44.1 19.4,45 19.7,44.8 L19.5,37.2 C17,37.6 14.5,37.7 12.1,38.9 C10.1,39.9 -1.5,45.6 0.8,58.2 C2,64.4 4.6,70.2 9.3,73.9 C10.7,75 13.7,75.7 14.8,77.2 C16.2,79 14.6,81 15.5,83 C16.5,80.2 16.8,78.5 17.9,75.9 C18.5,74.5 18.9,74.2 20.3,73.9 C20.9,73.7 24,74 22.6,72.5 Z" id="Shape_27_" fill="#DCAA78" stroke-width="1"/>
        <g id="Group">
          <path d="M 61.2 46.2 C 60.9 43.6 60.7 41 60.6 38.4 C 60.6 38 60.5 36 60.5 35.7 L 40.4 35.7 L 32.7 53.8 L 36.5 64.1 L 40.3 70.4 L 59.8 69.6 C 58.7 65 55.9 53.5 54 46.1 L 61.2 46.2 Z " id="Shape_28_" fill="#008264" stroke-width="1"/>
          <polygon id="Rectangle-path_2_" fill="#F01446" points="41 0.8 45.7 0.8 45.7 13 41 13" stroke-width="1" transform="matrix(1,0,0,1,17,34)"/>
          <path d="M 18.6 35.7 C 18.5 36.8 18.4 39.4 18.5 40.5 C 18.6 41.4 18.6 42.4 18.6 43.3 C 18.6 44 18.5 45.1 18.9 45.7 C 19.4 45.7 22 45.8 25.7 45.9 C 23.8 53 20.8 64 18.9 71.2 L 40.3 70.4 L 40.3 35.7 L 18.6 35.7 Z " id="Shape_29_" fill="#00A08C" stroke-width="1"/>
          <polygon id="Rectangle-path_3_" fill="#F01446" points="0.4 0.8 5.1 0.8 5.1 13 0.4 13" stroke-width="1" transform="matrix(1,0,0,1,17,34)"/>
          <path d="M 49.7 41.7 C 50.8 42.7 51.5 44.1 51.5 44.5 C 51.6 45.5 51.4 46.6 50.9 47.5 C 50.2 48.4 49.2 49.1 48.1 49.2 C 47 49.4 45.8 49 44.9 48.3 C 40.5 44.9 45.6 38.7 49.7 41.7 Z " id="Shape_30_" fill="#00A08C" stroke-width="1"/>
        </g>
      </g>
    </g>
  </g>
</svg>