<svg xmlns="http://www.w3.org/2000/svg" xmlns:xlink="http://www.w3.org/1999/xlink" version="1.1" width="198.64195251464844" height="19.066787719726562" viewBox="0.5342369079589844 0.4012128710746765 198.64195251464844 19.066787719726562">
  <!-- Exported by Scratch - http://scratch.mit.edu/ -->
  <g id="ID0.5555598153732717">
    <path id="ID0.9825037522241473" fill="#FFFFFF" stroke="#E3DEEE" d="M 11.3442 18.9067 C 17.5369 18.9067 151.0772 18.9067 163.6464 18.9067 C 176.2156 18.9067 199.4533 17.3739 198.6562 12.7141 C 197.9818 8.9126 176.89 10.6907 176.3995 10.5068 C 175.1733 10.0776 173.2726 6.0309 157.2698 5.2338 C 142.3094 4.4981 122.8117 9.0353 118.949 9.771 C 111.2849 8.1156 95.9565 1.6777 81.7319 1.0032 C 65.9744 0.2675 51.4431 3.6397 48.3775 7.0119 C 46.722 8.8513 48.3775 10.4455 48.2548 11.3652 C 48.1322 12.1009 41.5717 14.1243 33.417 15.044 C 23.9748 14.4921 6.01 7.1959 1.5954 11.3652 C -0.4279 13.3272 3.864 18.9067 11.3442 18.9067 Z " stroke-width="0.6131325385698929"/>
    <path id="ID0.10603649541735649" fill="#E3DEEE" d="M 119.3169 11.733 C 109.936 8.9739 97.7346 3.701 83.0808 2.5361 C 68.4269 1.3711 56.2256 4.3755 51.7497 6.2762 C 49.849 7.0732 48.7453 8.0543 48.3775 8.79 C 47.8256 9.8936 48.5001 10.936 48.1935 11.4265 C 48.0709 12.1622 41.5104 14.1856 33.3557 15.1053 C 25.4463 16.5155 16.8011 17.8644 11.8961 17.7417 C 6.991 17.6804 4.1093 15.9023 2.6991 13.9403 C 1.3502 11.917 2.6378 10.752 4.9677 10.2002 C 3.4962 10.3228 2.2699 10.6907 1.5341 11.4265 C -0.4892 13.3272 3.8027 18.968 11.2829 18.968 C 17.4756 18.968 151.0158 18.968 163.5851 18.968 C 166.4668 18.968 169.839 18.9067 173.4565 18.7228 C 149.6056 18.9067 128.7591 14.4308 119.3169 11.733 Z " stroke-width="0.6131325385698929"/>
  </g>
</svg>