<svg version="1.1" xmlns="http://www.w3.org/2000/svg" xmlns:xlink="http://www.w3.org/1999/xlink" width="81.08988" height="253.81094" viewBox="0,0,81.08988,253.81094"><g transform="translate(-190.11013,-55.23907)"><g data-paper-data="{&quot;isPaintingLayer&quot;:true}" fill-rule="nonzero" stroke-linejoin="miter" stroke-miterlimit="10" stroke-dasharray="" stroke-dashoffset="0" style="mix-blend-mode: normal"><g data-paper-data="{&quot;origPos&quot;:null}" fill="#000000" stroke="none" stroke-width="1" stroke-linecap="butt"><path d="M215.70002,99.35003c0.1,4.3 0.6,10.8 -2.7,10.1c-3.4,-0.9 -1.5,-5.3 -1.7,-9.6c-0.4,-9.3 -1.5,-9.2 -0.5,-18.5c3.2,-15.4 14.3,-21.9 14.9,-18c0.5,3.1 -7.4,5 -9.5,18.2c-1.8,11.5 -0.6,13.6 -0.5,17.8z" data-paper-data="{&quot;origPos&quot;:null}"/><path d="M218.10002,90.25003c-1,8.2 -1,15.8 -4.5,15.1c-2.5,-0.5 -0.8,-8.1 0.1,-15.4c1,-8.4 1.7,-19 4.3,-18.7c2.9,-0.1 1.1,10.5 0.1,19z" data-paper-data="{&quot;origPos&quot;:null}"/><path d="M247.70002,92.35003c0.6,8.3 2.1,14.8 -0.6,15.2c-2.7,0.4 -3.2,-7.3 -3.7,-14.7c-0.6,-8.4 -1.3,-15.2 0.6,-15.6c2.8,-0.6 3.1,6.7 3.7,15.1z" data-paper-data="{&quot;origPos&quot;:null}"/><path d="M221.20002,97.25003c-0.8,8.2 -0.6,15.8 -4.1,15.2c-2.6,-0.4 -1,-8.1 -0.3,-15.4c0.8,-8.4 1.1,-15.2 3.2,-15.3c2.9,-0.1 2,7.1 1.2,15.5z" data-paper-data="{&quot;origPos&quot;:null}"/><path d="M226.50002,98.35003c0,8.3 0.9,15.8 -2.6,15.5c-2.6,-0.2 -1.8,-8 -1.8,-15.3c0,-8.5 -0.3,-15.2 1.7,-15.5c2.9,-0.4 2.7,6.8 2.7,15.3z" data-paper-data="{&quot;origPos&quot;:null}"/><path d="M241.60002,97.65003c0.6,8.3 2,15.7 -1.5,15.7c-2.6,0 -2.3,-7.8 -2.9,-15.2c-0.6,-8.4 -1.4,-15.2 0.5,-15.6c3,-0.6 3.3,6.7 3.9,15.1z" data-paper-data="{&quot;origPos&quot;:null}"/></g><g data-paper-data="{&quot;origPos&quot;:null}" fill="#000000" stroke="none" stroke-width="1" stroke-linecap="butt"><path d="M218.80002,60.25003c-6.8,2.6 2.8,5.7 0.6,8c-3.9,4.1 -11.8,-5 -3.2,-11.5c6.8,-5.1 16.1,4.1 12.3,7.1c-2.8,2.3 -1.8,-6.7 -9.7,-3.6z"/><path d="M220.45002,68.15003c-3.3,2.35 -6.95,-4.6 -1.85,-8c6.5,-4.3 9.8,3.1 7.1,5c-1.8,1.3 -1.8,-3.5 -4.3,-0.8c-2.3,2.3 1.65,2.9 -0.95,3.8z"/></g><g stroke="none" stroke-width="1" stroke-linecap="butt"><path d="M239.50002,309.05001l0.7,-9.7l12.6,0.6l8.1,2.3l6.3,6.8z" fill="#ebebeb"/><path d="M240.90002,300.75003l-5.1,-50.4l-6.3,-62h25.6v62.3v50.1z" fill="#7194cc"/></g><g stroke="none" stroke-width="1" stroke-linecap="butt"><path d="M205.90002,309.05001l0.7,-9.7l12.6,0.6l8.1,2.3l6.3,6.8z" fill="#ebebeb"/><path d="M207.50002,300.75003v-52.3v-60.1h24.8l-5.8,61.8l-4.8,50.6z" fill="#7194cc"/></g><g fill="#72471e" stroke="none" stroke-width="1" stroke-linecap="butt"><path d="M267.90002,191.25003l-6.1,2.4l-6.6,-27.1c0,0 2.3,-4.2 5,-3.9c2,0.2 5.4,1 5.4,1z"/><path d="M264.80001,213.45003c-1.6,0 -0.7,-8.8 -2.2,-9.2c-1.1,-0.3 0.2,5.4 -0.2,6.3c-0.4,0.9 -2.7,-0.9 -2.7,-0.9c0,0 -2,-5.3 -2.3,-8c-0.8,-6.1 4.1,-11.3 4.1,-11.3l6.1,0.4c0,0 3.6,6.7 3.6,11c0,4 -2.7,9.1 -2.7,9.1c0,0 -2,2.6 -3.7,2.6z"/></g><g stroke="none" stroke-width="1" stroke-linecap="butt"><path d="M261.7,167.25001c-2.4,0.4 -6.4,-1.3 -6.4,-1.3c0,0 -6,-46.9 -0.8,-48.6c9.4,-3.4 11.1,46.6 11.1,46.6c0,0 -1.5,2.9 -3.9,3.3z" fill="#72471e"/><path d="M250.90002,148.95003c0,0 -6.8,-32.9 1.9,-35.1c7.6,-2 16.2,29 16.2,29z" fill="#a789d6"/></g><path d="M205.20002,191.25003l0.7,-76.2c0,0 11.4,-5.7 23.3,-5.9c12,-0.2 24.8,3.6 24.8,3.6l2.2,77.5z" data-paper-data="{&quot;origPos&quot;:null}" fill="#b598e2" stroke="none" stroke-width="1" stroke-linecap="butt"/><g fill="#72471e" stroke="none" stroke-width="1" stroke-linecap="butt"><path d="M218.40001,88.35002c0.8,2.4 0.3,4.7 -1,5.1c-1.4,0.5 -3.2,-1 -4,-3.4c-0.8,-2.4 -0.3,-4.7 1,-5.1c1.4,-0.5 3.2,1.1 4,3.4z" data-paper-data="{&quot;origPos&quot;:null}"/><path d="M224.80001,101.15002l13.6,1.7l-0.1,9.1c0,0 4.9,0.9 4.8,3.7c-0.1,4.5 -18.9,6.9 -22.8,0c-1.5,-3.4 3.9,-5 3.9,-5z" data-paper-data="{&quot;origPos&quot;:null}"/><path d="M249.90001,86.15002c0,12.8 -7.9,19.6 -14.7,19.9c-11.8,0.2 -19.4,-9.5 -19.4,-22.3c0,-12.8 2.2,-22.4 17.2,-23.1c11.4,-0.6 18.8625,11.5 16.8625,25.2z" data-paper-data="{&quot;origPos&quot;:null}"/></g><g data-paper-data="{&quot;origPos&quot;:null}" stroke="none" stroke-width="1" stroke-linecap="butt"><path d="M195.70002,169.75003c-2,-0.2 -5.2,-2.2 -5.2,-2.2c0,0 4.6,-50.6 16.5,-50.3c9.3,-0.3 -6,51.3 -6,51.3c0,0 -3.2,1.4 -5.3,1.2z" fill="#72471e"/><path d="M190.70002,143.85002c0,0 9.4,-29 15.2,-28.2c13.7,1.8 3.2,36.9 3.2,36.9z" fill="#a789d6"/></g><g data-paper-data="{&quot;origPos&quot;:null}"><path d="M224.20002,79.65003c0,0 2.9,-0.8 4.4,-0.8c1.7,-0.1 3.7,0.8 3.7,0.8" fill="none" stroke="#000000" stroke-width="1.46" stroke-linecap="round"/><g><path d="M224.10002,84.05003c0,0 2.2,-1.9 4.5,-1.7c2.5,0.2 2.9,1.5 2.9,1.5" fill="none" stroke="#000000" stroke-width="1.46" stroke-linecap="round"/><path d="M227.50002,84.75003c0,-1.2 0.9,-2.2 2.1,-2.2c1.2,0 2.1,1 2.1,2.2c0,1.2 -0.9,2.2 -2.1,2.2c-1.2,0 -2.1,-1 -2.1,-2.2z" fill="#000000" stroke="none" stroke-width="1" stroke-linecap="butt"/></g></g><path d="M241.70001,70.75002c-2.5,-0.5 -15,-0.1 -17.3,1c-5.7,2.9 -6.6,14.4 -6.6,14.4l-2.6,-0.8c0,0 -3.5,-24.9 17.9,-24.7c11.4,-0.6 16.3,10.2 16.8,16.7c0,-0.1 -0.1,-5 -8.2,-6.6z" data-paper-data="{&quot;origPos&quot;:null}" fill="#35210e" stroke="none" stroke-width="1" stroke-linecap="butt"/><g data-paper-data="{&quot;origPos&quot;:null}"><path d="M239.60002,79.65003c0,0 2.3,-0.8 4,-0.8c1.5,0.1 3.2,0.5 3.2,0.5" fill="none" stroke="#000000" stroke-width="1.46" stroke-linecap="round"/><g><path d="M239.70002,83.75002c0,0 0.5,-1.3 2.9,-1.5c2.3,-0.2 4.5,1.7 4.5,1.7" fill="none" stroke="#000000" stroke-width="1.46" stroke-linecap="round"/><path d="M244.30002,86.65003c-1.2,0 -2.1,-1 -2.1,-2.2c0,-1.2 0.9,-2.2 2.1,-2.2c1.2,0 2.1,1 2.1,2.2c0,1.2 -0.9,2.2 -2.1,2.2z" fill="#000000" stroke="none" stroke-width="1" stroke-linecap="butt"/></g></g><g data-paper-data="{&quot;origPos&quot;:null}" fill="none" stroke="#d20000" stroke-width="1.46"><path d="M222.20002,88.75003v-8.4h10.6v8.4z" stroke-linecap="butt"/><path d="M238.60002,88.75003v-8.4h10.9v8.4z" stroke-linecap="butt"/><path d="M237.70002,84.73185l-4.4,0.01818" data-paper-data="{&quot;origPos&quot;:null}" stroke-linecap="round"/><path d="M216.50002,84.75003l4.9,-0.4" stroke-linecap="round"/></g><g data-paper-data="{&quot;origPos&quot;:null}" fill="#000000" stroke="none" stroke-width="1" stroke-linecap="butt"><g data-paper-data="{&quot;origPos&quot;:null}"><path d="M236.00002,67.55003c-0.4,3.2 -7.1,1.2 -10.8,14.1c-3.1,11 -3.8,18.8 -7.7,16.9c-2.5,-1.2 0.3,-7.9 3.7,-19.6c4.3,-15.1 15.1,-14.6 14.8,-11.4z"/><path d="M250.90002,77.35003c1.5,10 2,13.8 -1.6,13.6c-2.8,-0.2 -0.8,-5.1 -2.4,-11.8c-2.6,-10.8 -10.8,-6 -11.1,-11.6c-0.4,-3.2 13.3,-2.5 15.1,9.8z"/><path d="M230.90002,69.55003c-0.4,4.5 -6.9,1.7 -10.4,7c-3.5,5.3 -3.63333,11 -6,9.2c-2.43333,-1.5 -2.3578,-3.3854 2.53333,-12.26667c4.89113,-8.88127 13.96667,-6.13333 13.86667,-3.93333z" data-paper-data="{&quot;origPos&quot;:null}"/><path d="M221.50002,81.85003c-1.8,2 -6.6,5.9 -8.3,2.8c-1.7,-3.1 4.2,-2.4 5.8,-5.4c1.6,-3 1.4,-8.1 4.4,-7c2.2,0.7 1,6.4 -1.9,9.6z"/></g><g data-paper-data="{&quot;origPos&quot;:null}"><path d="M245.30002,70.45001c-2.1,1.3 -3.9,-1.8 -5.3,-4.3c-1.6,-3 -3.2,-4.4 -1.2,-5.9c2.5,-1.7 3.7,1.2 5.2,3.5c2,3 3.7,5.2 1.3,6.7z"/><path d="M239.70002,69.65003c-2.1,1.3 -3.9,-1.8 -5.3,-4.3c-1.6,-3 -3.2,-4.4 -1.2,-5.9c2.5,-1.7 3.7,1.2 5.2,3.5c2,3.1 3.7,5.3 1.3,6.7z"/><path d="M234.40002,69.95001c-2.1,1.3 -3.9,-1.8 -5.3,-4.3c-1.6,-3 -3.2,-4.4 -1.2,-5.9c2.5,-1.7 3.7,1.2 5.2,3.5c2.1,3 3.7,5.2 1.3,6.7z"/><path d="M231.10002,69.65003c-1.6,1.9 -4.3,-0.5 -6.3,-2.5c-2.4,-2.3 -4.5,-3.2 -3,-5.3c1.9,-2.4 3.9,0 6,1.7c2.9,2.4 5.2,4 3.3,6.1z"/><path d="M228.10002,71.05003c-1,2.2 -4.2,0.8 -6.8,-0.6c-3,-1.5 -5.2,-1.8 -4.3,-4.2c1.1,-2.8 3.7,-1.1 6.3,-0.1c3.3,1.4 5.9,2.3 4.8,4.9z"/><path d="M220.10002,74.75002c-3.3,-0.6 -5.5,-0.2 -5.4,-2.7c0.2,-3 3.3,-2.1 6,-1.9c3.7,0.3 6.4,0.4 6.1,3.2c-0.4,2.7 -6.7,1.4 -6.7,1.4z" data-paper-data="{&quot;origPos&quot;:null}"/></g></g><g fill="#72471e" stroke="none" stroke-width="1" stroke-linecap="butt"><path d="M192.10002,194.45003l-1.8,-27.7c0,0 3.3,-1.2 5.3,-1.6c2.7,-0.6 5.6,3.3 5.6,3.3l-2.6,27.7z"/><path d="M194.20002,213.55003c0,0 -3.4,-4.8 -4,-8.8c-0.6,-4.3 2,-11.3 2,-11.3l6,-1.1c0,0 5.6,4.7 5.7,10.7c0,2.7 -1.1,8.2 -1.1,8.2c0,0 -2,2 -2.5,1.2c-0.5,-0.8 0,-6.6 -1.1,-6.2c-1.4,0.5 0.7,9.2 -0.9,9.3c-1.8,0.3 -4.1,-2 -4.1,-2z"/></g><path d="M238.30002,98.95003c0,0.7 -2,2.2 -3.7,2.2c-1.8,0 -3.5,-1.9 -3.5,-2.7c0,-0.7 2.2,0 4,0c1.8,0 3.2,-0.2 3.2,0.5z" fill="#000000" stroke="none" stroke-width="1" stroke-linecap="butt"/><path d="M235.60002,87.65003c0,0 2.3,1.9 2.2,3.5c0,0.7 -2.5,2.1 -2.5,2.1" fill="none" stroke="#000000" stroke-width="1.46" stroke-linecap="round"/></g></g></svg>