<svg xmlns="http://www.w3.org/2000/svg" xmlns:xlink="http://www.w3.org/1999/xlink" version="1.1" width="101.6992416381836" height="172.34803771972656" viewBox="-0.3652418255805969 -0.33003902435302734 101.6992416381836 172.34803771972656">
  <!-- Exported by Scratch - http://scratch.mit.edu/ -->
  <g id="ID0.13867441145703197">
    <g id="Page-1">
      <g id="pitcher-b-[baseball,sports,people,alex-eben-meyer]">
        <g id="Back-Arm">
          <path id="Shape" fill="#A0640A" stroke="none" stroke-width="1" d="M 32.303 11.169 C 32.303 11.639 43.034 15.182 51.59 20.095 C 56.658 23.002 61.03 27.767 61.771 28.873 C 63.217 27.646 66.637 25.347 66.826 23.277 C 65.719 22.24 60.078 18.576 53.937 16.22 C 44.555 12.613 33.56 10.32 32.303 11.169 Z "/>
          <path id="Shape" fill="#FFDC00" stroke="none" stroke-width="1" d="M 81.925 32.548 L 64.169 19.746 L 58.528 26.912 L 73.46 48.407 L 81.925 32.548 "/>
        </g>
        <g id="Group">
          <path id="Shape" fill="#BE0A3C" stroke="none" stroke-width="1" d="M 25.445 4.157 C 21.261 3.837 17.074 4.74 13.394 6.754 C 7.609 10.119 3.064 13.525 2.089 24.418 C 1.113 35.312 1.785 42.123 2.238 43.292 C 4.109 44.502 7.013 43.946 9.124 43.917 C 11.707 41.544 13.107 38.333 15.362 35.707 C 17.193 33.569 19.293 31.694 21.233 29.659 C 26.048 24.619 38.282 14.316 38.397 12.327 C 33.141 5.24 28.693 4.426 25.445 4.157 Z "/>
          <path id="Shape" fill="#6E1E3C" stroke="none" stroke-width="1" d="M 0.769 40.598 L 7.569 40.598 L 7.827 40.517 C 8.492 39.342 8.684 37.959 8.367 36.647 C 8.323 36.455 8.237 36.275 8.114 36.12 L 0.746 36.12 C 0.084 37.425 -0.046 38.936 0.384 40.334 L 0.769 40.598 Z "/>
        </g>
        <g id="Back-Foot">
          <path id="Shape" fill="#000000" stroke="none" stroke-width="1" d="M 62.482 98.992 C 62.408 100.305 63.217 132.434 63.228 134.131 L 76.898 132.411 C 77.007 131.838 79.939 111.198 80.043 110.252 C 80.071 110.023 80.479 107.959 80.456 107.643 L 62.482 98.992 Z "/>
          <path id="Shape" fill="#BE0A3C" stroke="none" stroke-width="1" d="M 75.434 170.355 C 74.583 170.359 73.733 170.277 72.898 170.108 C 72.531 168.893 77.391 133.988 78.906 124.734 L 61.891 124.413 C 62.241 134.131 68.336 171.518 68.336 171.518 L 75.434 171.26 L 75.434 170.355 Z "/>
          <path id="Shape" fill="#FFDC00" stroke="none" stroke-width="1" d="M 61.874 139.028 L 78.005 139.028 L 79.365 129.734 L 60.766 129.734 L 61.874 139.028 "/>
          <path id="Shape" fill="#FFC800" stroke="none" stroke-width="1" d="M 79.819 127.578 L 80.278 123.582 L 60.17 123.582 L 60.732 127.578 L 79.819 127.578 "/>
        </g>
        <path id="Shape" fill="#FFDC00" stroke="none" stroke-width="1" d="M 65.857 43.527 C 59.779 45.087 55.045 48.968 51.883 53.137 C 47.470 58.956 45.817 65.996 45.111 73.966 C 44.614 78.945 44.774 83.969 45.588 88.907 C 46.827 95.907 49.685 102.426 54.902 107.930 L 73.173 42.243 C 72.387 42.427 66.522 43.355 65.857 43.527 Z "/>
        <path id="Shape" fill="#3C3C32" stroke="none" stroke-width="1" d="M 75.618 32.588 C 74.074 33.953 67.808 45.775 67.148 47.180 C 66.293 48.986 65.346 50.746 64.491 52.546 C 62.767 56.035 61.387 59.683 60.370 63.439 C 58.316 71.787 55.567 80.020 54.471 88.666 C 53.905 92.949 53.673 97.270 53.777 101.589 C 53.909 105.436 53.662 108.274 57.472 110.137 C 64.313 113.474 74.378 112.127 80.427 107.643 C 82.281 97.220 83.870 86.745 85.689 76.316 C 87.279 67.344 89.442 58.274 90.418 49.215 L 75.618 32.588 Z "/>
        <g id="Front-Arm">
          <path id="Shape" fill="#A0640A" stroke="none" stroke-width="1" d="M 38.891 67.206 C 38.891 67.206 28.894 67.086 18.197 60.51 C 14.565 58.279 10.427 53.119 9.147 49.043 C 8.459 46.836 7.592 40.013 7.592 40.013 L 3.851 40.013 C 3.851 40.013 3.696 47.575 4.218 50.442 C 5.366 56.657 6.777 62.625 11.024 67.344 C 15.001 71.77 22.909 76.414 28.538 78.271 C 32.636 79.625 36.63 80.049 40.773 81.087 C 41.02 80.582 38.891 67.206 38.891 67.206 Z "/>
          <path id="Shape" fill="#FFDC00" stroke="none" stroke-width="1" d="M 35.838 65.801 L 35.838 82.268 C 39.281 82.583 51.034 83.414 51.206 83.363 C 51.659 77.687 51.43 71.323 51.883 65.641 C 51.573 65.612 38.506 65.796 35.838 65.801 Z "/>
        </g>
        <g id="Head">
          <path id="Shape" fill="#FAB414" stroke="none" stroke-width="1" d="M 39.757 0.252 C 34.42 4.839 36.4 25.657 36.532 27.159 C 38.501 28.162 43.068 28.42 45.341 28.598 C 46.07 27.767 45.473 7.958 45.008 5.504 C 44.4 2.293 43.413 -0.333 39.757 0.252 Z "/>
          <path id="Shape" fill="#E6781E" stroke="none" stroke-width="1" d="M 35.476 56.634 C 35.476 56.634 40.819 57.551 44.337 53.567 C 46.77 50.809 47.837 45.179 47.682 37.45 C 47.499 28.082 47.017 22.486 44.182 19.998 C 41.347 17.51 36.056 18.129 36.056 18.129 L 24.378 30.467 L 35.476 56.634 Z "/>
          <path id="Shape" fill="#A0640A" stroke="none" stroke-width="1" d="M 59.062 37.737 C 58.827 32.147 57.541 27.675 52.916 24.384 C 50.81 22.882 46.299 21.919 43.734 21.741 C 41.949 21.615 34.128 21.982 32.888 23.558 C 32.607 28.443 29.657 44.863 30.26 49.616 C 30.455 49.794 32.337 51.875 37.049 52.242 C 50.259 51.692 59.469 47.512 59.062 37.737 Z "/>
          <path id="Shape" fill="#000000" stroke="none" stroke-width="1" d="M 32.75 22.865 L 34.828 31.843 L 40.997 21.661 C 40.997 21.661 38.518 20.99 32.75 22.865 Z "/>
          <path id="Shape" fill="#000000" stroke="none" stroke-width="1" d="M 33.892 31.579 L 35.097 40.959 L 38.919 27.692 L 33.892 31.579 "/>
          <path id="Shape" fill="#3C3C32" stroke="none" stroke-width="1" d="M 16.118 38.734 C 17.658 37.743 16.769 35.765 16.744 34.578 C 15.016 34.486 14.34 34.979 13.563 35.443 C 13.288 36.258 13.1 38.803 16.118 38.734 Z "/>
          <path id="Shape" fill="#FFDC00" stroke="none" stroke-width="1" d="M 36.056 18.129 C 31.167 18.593 25.393 19.895 21.583 22.612 C 19.414 24.16 14.84 29.905 14.433 36.074 C 14.002 42.604 17.847 49.582 19.597 51.554 C 23.724 56.141 35.482 56.657 35.482 56.657 C 35.482 56.657 36.285 24.481 36.056 18.129 Z "/>
          <path id="Shape" fill="#A0640A" stroke="none" stroke-width="1" d="M 45.542 45.19 C 42.73 45.053 37.077 43.315 34.483 44.101 C 31.649 44.961 30.507 48.647 32.004 51.067 C 36.234 57.907 44.698 50.579 45.542 45.19 Z "/>
          <path id="Shape" fill="#000000" stroke="none" stroke-width="1" d="M 48.586 27.033 C 50.232 30.713 54.015 24.281 49.877 24.166 C 46.966 24.109 48.612 26.947 48.586 27.033 Z "/>
          <path id="Shape" fill="#824600" stroke="none" stroke-width="1" d="M 44.836 25.439 C 44.575 24.773 43.99 24.287 43.287 24.155 C 41.071 24.825 41.209 24.642 40.148 26.293 L 40.584 27.595 C 42.024 28.219 43.298 27.549 44.601 27.056 C 44.681 26.712 44.773 26.442 44.807 26.167 C 44.831 25.925 44.841 25.682 44.836 25.439 Z "/>
          <path id="Shape" fill="#000000" stroke="none" stroke-width="1" d="M 42.632 32.68 C 43.279 33.58 43.788 34.571 44.142 35.621 C 44.307 35.756 44.525 35.807 44.733 35.758 C 44.941 35.71 45.114 35.568 45.203 35.375 L 45.169 34.687 C 43.935 33.804 43.728 32.244 42.804 31.149 C 42.659 31.07 42.488 31.054 42.33 31.105 C 42.173 31.156 42.044 31.269 41.972 31.419 C 41.876 31.552 41.799 31.699 41.743 31.854 C 41.278 33.076 40.825 34.303 40.331 35.621 L 41.1 35.902 C 41.749 34.887 41.84 33.678 42.632 32.68 Z "/>
        </g>
        <g id="Front-Foot">
          <path id="Shape" fill="#3C3C32" stroke="none" stroke-width="1" d="M 98.854 56.651 C 97.953 48.802 96.994 41.555 92.909 34.647 C 91.353 32.021 89.345 29.326 86.269 28.34 C 81.988 26.987 78.235 29.303 75.618 32.577 C 76.192 38.992 79.606 65.257 80.008 67.315 L 98.28 67.189 C 98.977 63.722 99.17 60.173 98.854 56.651 Z "/>
          <path id="Shape" fill="#BE0A3C" stroke="none" stroke-width="1" d="M 79.274 65.228 C 79.847 69.815 85.047 106.078 85.712 111.095 C 86.315 115.607 86.453 120.268 87.663 124.654 C 88.392 124.969 93.861 121.787 95.456 121.054 C 95.755 120.796 95.892 120.397 95.812 120.01 C 94.337 119.391 92.541 122.023 91.061 121.879 C 92.272 112.849 94.171 103.739 95.812 94.772 C 97.545 85 98.767 75.144 99.474 65.245 L 79.274 65.228 Z "/>
          <path id="Shape" fill="#FFDC00" stroke="none" stroke-width="1" d="M 80.043 80.02 L 99.129 80.02 L 99.806 70.726 L 78.786 70.726 L 80.043 80.02 "/>
          <path id="Shape" fill="#FFC800" stroke="none" stroke-width="1" opacity="0.200000003" d="M 100.317 68.571 L 100.834 64.575 L 78.12 64.575 L 78.746 68.571 L 100.317 68.571 "/>
        </g>
      </g>
    </g>
  </g>
</svg>