<svg xmlns="http://www.w3.org/2000/svg" xmlns:xlink="http://www.w3.org/1999/xlink" width="133.72186279296875" height="265.2995910644531" viewBox="8.600000381469727 17.500391006469727 133.72186279296875 265.2995910644531" version="1.1" xml:space="preserve">
  <!-- Generator: Sketch 49.3 (51167) - http://www.bohemiancoding.com/sketch -->
  <defs/>
  <g>
    <title>princess-e</title>
    <desc>Created with Sketch.</desc>
    <g id="princess-e" stroke="none" fill-rule="evenodd">
      <g id="Princess-Angry">
        <g id="Group" fill-rule="nonzero">
          <g id="Shape">
            <g>
              <path d="M 101.1 94.3 C 98.3 90.6 85.1 76.2 84.5 89.1 C 83.9 101.5 111.2 131.1 114.4 124.6 C 117.6 118.1 107.6 102.7 101.1 94.3 Z " fill="#52B6CC" stroke-width="1"/>
              <path d="M 96.3 89 C 96.3 89 97.4 90 98.9 91.7 C 99.6 92.5 100.5 93.5 101.4 94.6 C 102.3 95.7 103.2 96.9 104.1 98.1 C 105 99.3 105.8 100.5 106.6 101.7 C 107.4 102.9 108 104 108.6 105 C 109.2 106 109.6 106.8 109.9 107.4 C 110.2 108 110.4 108.3 110.4 108.3 C 110.4 108.3 110.2 108 109.8 107.4 C 109.5 106.8 108.9 106.1 108.3 105.1 C 107.7 104.2 106.9 103.1 106.2 102 C 105.4 100.9 104.6 99.6 103.7 98.5 C 102.8 97.3 101.9 96.1 101.1 95 C 100.2 93.9 99.5 92.9 98.8 92 C 97.2 90.1 96.3 89 96.3 89 Z " fill="#2E83BF" stroke-width="1"/>
              <path d="M 86.2 84.3 C 86.2 84.3 86.1 84.4 85.9 84.6 C 85.7 84.8 85.5 85.2 85.3 85.6 C 85.1 86.1 84.9 86.7 84.8 87.4 C 84.7 87.7 84.7 88.1 84.7 88.5 C 84.7 88.7 84.7 88.9 84.7 89.1 C 84.7 89.3 84.7 89.5 84.8 89.7 C 84.8 90.6 85.1 91.5 85.3 92.5 C 85.4 93 85.6 93.5 85.8 94 C 86 94.5 86.1 95 86.4 95.5 C 86.9 96.5 87.3 97.6 87.8 98.6 C 88.4 99.6 88.9 100.7 89.5 101.7 C 90.1 102.7 90.7 103.8 91.4 104.7 C 92.1 105.7 92.7 106.6 93.4 107.5 C 94 108.4 94.7 109.3 95.3 110.1 C 95.9 110.9 96.5 111.7 97 112.4 C 99.3 115.2 100.7 117.1 100.7 117.1 C 100.7 117.1 99.1 115.3 96.7 112.7 C 96.1 112 95.5 111.2 94.9 110.5 C 94.3 109.7 93.5 108.9 92.9 108 C 92.3 107.1 91.6 106.1 90.9 105.2 C 90.2 104.2 89.6 103.2 89 102.2 C 88.3 101.2 87.8 100.1 87.3 99.1 C 86.7 98.1 86.3 97 85.9 95.9 C 85.7 95.4 85.5 94.8 85.4 94.3 C 85.3 93.8 85.1 93.3 85 92.8 C 84.8 91.8 84.6 90.8 84.6 89.9 C 84.6 89.7 84.6 89.5 84.6 89.2 C 84.6 89 84.6 88.8 84.6 88.6 C 84.6 88.2 84.6 87.8 84.7 87.4 C 84.8 86.7 85.1 86.1 85.3 85.6 C 85.5 85.1 85.8 84.8 86 84.6 C 86.1 84.4 86.2 84.3 86.2 84.3 Z " fill="#2E83BF" stroke-width="1"/>
            </g>
            <g>
              <g>
                <path d="M 88.3 83.3 C 85 84 82.8 86.3 83.6 93.8 C 84.4 101.3 86.2 102.4 88.8 109.4 C 90.2 113.2 98.4 114.3 104.2 108.6 C 110.1 102.9 111.2 97.8 105.6 93.4 C 100.1 89 92.8 82.3 88.3 83.3 Z " fill="#6FCED9" stroke-width="1"/>
                <path d="M 96 85.9 C 96 85.9 97.6 86.8 99.8 88.4 C 100.9 89.2 102.2 90.1 103.5 91.2 C 104.8 92.3 106.2 93.5 107.5 94.9 C 108.1 95.6 108.7 96.3 109.1 97.2 C 109.2 97.3 109.2 97.4 109.3 97.5 L 109.4 97.8 C 109.4 98 109.5 98.2 109.6 98.5 L 109.7 99.2 C 109.7 99.4 109.7 99.7 109.7 99.9 C 109.6 100.8 109.3 101.6 109 102.3 C 108.7 103 108.3 103.7 107.9 104.3 C 107.2 105.5 106.4 106.3 105.9 106.9 C 105.4 107.5 105 107.8 105 107.8 C 105 107.8 105.3 107.5 105.8 106.8 C 106.3 106.2 106.9 105.2 107.6 104.1 C 108.2 102.9 108.9 101.5 109.1 99.8 L 109.1 99.2 L 109 98.6 C 109 98.4 108.9 98.2 108.8 98 L 108.7 97.7 C 108.7 97.7 108.6 97.5 108.6 97.4 C 108.2 96.6 107.6 95.9 107.1 95.3 C 105.9 93.9 104.6 92.7 103.3 91.6 C 102 90.5 100.8 89.5 99.7 88.6 C 97.5 87 96 85.9 96 85.9 Z " fill="#3FADC4" stroke-width="1"/>
                <path d="M 87.1 83.8 C 87.1 83.8 86.5 83.9 85.8 84.6 C 85.4 84.9 85 85.4 84.7 86 C 84.4 86.6 84.1 87.3 83.9 88.1 C 83.7 88.9 83.6 89.8 83.6 90.8 C 83.6 91.8 83.7 92.8 83.8 93.8 C 84.1 95.9 84.6 98.1 85.4 100.2 C 85.8 101.3 86.2 102.3 86.7 103.3 C 86.9 103.8 87.1 104.3 87.4 104.8 C 87.5 105.1 87.6 105.3 87.7 105.6 C 87.8 105.9 87.8 106.1 87.9 106.4 C 88.2 107.4 88.5 108.4 89 109.2 C 89.5 110 90.1 110.7 90.8 111.2 C 91.5 111.7 92.2 112 92.8 112.2 C 93.1 112.3 93.4 112.3 93.7 112.4 C 94 112.4 94.3 112.4 94.5 112.5 C 95 112.6 95.4 112.5 95.6 112.5 C 95.9 112.5 96 112.5 96 112.5 C 96 112.5 95.9 112.5 95.6 112.5 C 95.3 112.5 94.9 112.6 94.4 112.6 C 94.1 112.6 93.9 112.6 93.6 112.6 C 93.3 112.6 93 112.5 92.6 112.5 C 91.9 112.3 91.1 112.1 90.4 111.6 C 89.7 111.1 89 110.4 88.4 109.6 C 87.8 108.8 87.4 107.8 87.1 106.7 C 87 106.4 87 106.2 86.9 105.9 C 86.8 105.7 86.7 105.4 86.6 105.2 C 86.4 104.7 86.2 104.2 85.9 103.7 C 85.4 102.7 85 101.6 84.6 100.5 C 83.8 98.3 83.3 96.1 83.1 93.9 C 83 92.8 82.9 91.8 83 90.8 C 83.1 89.8 83.2 88.9 83.4 88 C 83.6 87.2 84 86.4 84.4 85.8 C 84.8 85.2 85.2 84.8 85.6 84.5 C 86 84.2 86.4 84 86.6 83.9 C 87 83.9 87.1 83.8 87.1 83.8 Z " fill="#3FADC4" stroke-width="1"/>
              </g>
              <path d="M 99.8 111.8 C 99.8 111.8 94.4 111.7 91.1 104.6 C 89.3 100.7 87.4 98.2 87.4 98.2 C 87.4 98.2 89.5 104.3 90.6 107.6 C 91.7 110.9 95.6 112.4 99.8 111.8 Z " fill="#52B6CC" stroke-width="1"/>
              <path d="M 106.8 105.6 C 106.8 105.6 109.5 101 105.9 97 C 102.3 93 97.3 90.1 97.3 90.1 C 97.3 90.1 108.1 99.1 106.8 105.6 Z " fill="#52B6CC" stroke-width="1"/>
              <path d="M 102.4 110.5002 C 102.4 110.5002 97.7 110.6001 94.6 105.1001 C 92.3 101 91.5 96.4 91.5 96.4 C 91.5 96.4 96 104.6001 102.4 110.5002 Z " fill="#52B6CC" stroke-width="1"/>
              <path d="M 95.3 92.5 C 95.3 92.5 104.8 104.5 104.8 108 C 104.8 108 110.6 104.2 95.3 92.5 Z " fill="#52B6CC" stroke-width="1"/>
            </g>
          </g>
          <g id="Shape">
            <path d="M 138.9 87.8 C 137.7 89.5 135.7 92.3 133.1 93.2 L 129 91 C 129 91 127.3 86.5 128.2 84.7 C 128.9 83.6 129.5 83.1 130.2 81.1 C 130.8 79.3 134.8 77 135.9 78.3 C 135.9 78.3 137.7 77.2 138.4 79.4 C 138.4 79.4 140.4 79.4 141 81.3 C 141 81.3 142.2 81.6 141.7 84.3 C 141.5 85.8 140.6 88.1 138.9 87.8 Z " fill="#875137" stroke-width="1"/>
            <g>
              <path d="M 139.2 85 C 138.2 86.2 137.1 86.7 136.8 86.3 C 136 85.6 137.6 83.6 138.2 82.4 C 138.8 81.2 138.3 81 138.3 81 C 137.4 83.6 135.4 84.7 135.1 84.6 C 134.3 84.3 134.4 83.7 134.6 83.3 C 133.7 84.3 132.9 83.7 132.6 83.3 C 132 82.5 134.5 78.7 134.5 78.7 C 134.7 78.4 135 78.2 135.4 78 C 135.7 78 135.8 78.2 135.9 78.4 C 135.9 78.4 137.7 77.3 138.4 79.5 C 138.4 79.5 140.4 79.5 141 81.4 C 141 81.4 142.2 81.7 141.7 84.4 C 141.5 85.8 140.6 88 139.1 87.9 C 139 87.8 138.8 87.7 138.7 87.6 C 138.1 86.8 138.8 85.5 139.2 85 Z " fill="#875137" stroke-width="1"/>
              <path d="M 135.6 78 C 135.6 78 135.8 78 136 78.3 C 136.2 78.5 136.4 79.1 136.4 79.6 C 136.4 80.2 136.2 80.8 135.9 81.5 C 135.8 81.8 135.6 82.2 135.4 82.5 C 135.2 82.8 135.1 83.1 134.7 83.5 C 134.4 83.8 133.9 83.9 133.5 84 C 133.1 84 132.6 83.9 132.3 83.5 C 132.2 83.3 132.2 83 132.3 82.8 C 132.4 82.6 132.4 82.5 132.5 82.3 C 132.6 82 132.8 81.7 132.9 81.5 C 133.4 80.5 133.8 79.9 133.8 79.9 C 133.8 79.9 133.6 80.6 133.2 81.6 C 133.1 81.9 133 82.1 132.9 82.4 C 132.9 82.6 132.8 82.7 132.8 82.9 C 132.8 83 132.8 83.1 132.8 83.2 C 132.9 83.3 133.2 83.4 133.5 83.4 C 133.8 83.4 134.1 83.3 134.3 83.1 C 134.5 83 134.7 82.6 134.8 82.3 C 135 82 135.1 81.7 135.3 81.4 C 135.6 80.8 135.8 80.2 135.9 79.7 C 136 79.2 136 78.7 135.8 78.5 C 135.8 78.1 135.6 78 135.6 78 Z " fill="#613A27" stroke-width="1"/>
              <path d="M 134.5 83.3 C 134.5 83.3 134.5 83.5 134.5 83.7 C 134.5 83.9 134.7 84.3 135 84.3 C 135.3 84.4 135.7 84.1 136.1 83.8 C 136.3 83.6 136.5 83.4 136.6 83.2 C 136.8 83 136.9 82.8 137.1 82.5 C 137.3 82.3 137.4 82.1 137.5 81.8 C 137.6 81.6 137.7 81.3 137.9 81.1 C 138.1 80.6 138.2 80.2 138.2 79.7 C 138.2 79.3 138.1 78.9 138.1 78.7 C 138 78.5 137.9 78.3 137.9 78.3 C 137.9 78.3 138 78.4 138.1 78.6 C 138.2 78.8 138.4 79.2 138.4 79.6 C 138.5 80 138.4 80.6 138.3 81.1 C 138.2 81.4 138.1 81.6 138 81.9 C 137.9 82.2 137.7 82.4 137.6 82.7 C 137.3 83.2 136.9 83.7 136.4 84 C 136.2 84.2 135.9 84.3 135.7 84.4 C 135.4 84.5 135.1 84.5 134.8 84.4 C 134.5 84.3 134.4 84.1 134.3 83.9 C 134.2 83.7 134.2 83.5 134.2 83.4 C 134.4 83.5 134.5 83.3 134.5 83.3 Z " fill="#613A27" stroke-width="1"/>
              <path d="M 140.1 80 C 140.1 80 140.3 80.1 140.6 80.4 C 140.9 80.7 141.2 81.2 141.2 82 C 141.2 82.4 141.1 82.7 140.9 83.1 C 140.7 83.5 140.5 83.8 140.2 84.2 C 139.7 84.9 139.2 85.6 138.5 86.2 C 138.1 86.5 137.8 86.9 137.1 86.9 C 136.7 86.9 136.5 86.6 136.4 86.4 C 136.4 86.3 136.3 86.3 136.3 86.2 C 136.3 86.1 136.3 86.1 136.3 86 C 136.3 85.8 136.3 85.7 136.3 85.6 C 136.4 85.1 136.6 84.8 136.8 84.4 C 137 84.1 137.2 83.8 137.4 83.5 C 138.2 82.4 138.8 81.8 138.8 81.8 C 138.8 81.8 138.4 82.6 137.7 83.7 C 137.5 84 137.4 84.3 137.2 84.6 C 137 84.9 136.9 85.3 136.8 85.6 C 136.7 85.8 137 86.3 137.1 86.2 C 137.3 86.2 137.7 85.9 138 85.7 C 138.6 85.1 139.2 84.4 139.7 83.8 C 140 83.5 140.2 83.2 140.4 82.9 C 140.6 82.6 140.7 82.3 140.7 82 C 140.8 81.4 140.6 80.9 140.4 80.5 C 140.3 80.1 140.1 80 140.1 80 Z " fill="#613A27" stroke-width="1"/>
              <path d="M 139 85.6 C 139 85.6 139 85.8 138.9 86.1 C 138.9 86.4 138.8 86.8 138.8 87.2 C 138.8 87.3 138.8 87.4 138.8 87.4 C 138.8 87.5 138.8 87.5 138.9 87.5 C 139 87.6 139.2 87.6 139.3 87.6 C 139.5 87.6 139.6 87.6 139.7 87.6 C 139.8 87.6 139.9 87.6 139.9 87.6 C 139.9 87.6 139.9 87.6 139.8 87.7 C 139.7 87.8 139.6 87.9 139.4 87.9 C 139.3 87.9 139.2 88 139.1 88 C 139 88 138.8 88 138.7 88 C 138.6 88 138.4 87.8 138.4 87.7 C 138.3 87.6 138.3 87.4 138.2 87.3 C 138.1 86.8 138.2 86.3 138.2 86 C 138.3 85.7 138.4 85.4 138.4 85.4 L 139 85.6 Z " fill="#613A27" stroke-width="1"/>
            </g>
            <g>
              <path d="M 133.4 83.6 C 133.4 83.6 130.2 89.7 128.3 85.9 C 128 85.2 128.8 82.2 130.5 81 C 132 80 136.4 80.5 136 82.8 C 135.8 83.9 133.4 83.6 133.4 83.6 Z " fill="#875137" stroke-width="1"/>
              <path d="M 135.6 81.4 C 135.6 81.4 135.7 81.5 135.8 81.6 C 135.9 81.7 136.1 81.9 136.3 82.2 C 136.4 82.4 136.4 82.5 136.4 82.8 C 136.4 83 136.3 83.3 136.2 83.5 C 136.1 83.6 136.1 83.7 135.9 83.8 C 135.8 83.9 135.7 83.9 135.6 84 C 135.4 84.1 135.2 84.1 134.9 84.2 C 134 84.3 133.2 84.2 132.6 83.9 C 132.3 83.8 132.1 83.6 131.9 83.5 C 131.7 83.4 131.7 83.3 131.7 83.3 C 131.7 83.3 132.1 83.5 132.7 83.5 C 133.3 83.6 134.1 83.6 134.9 83.5 C 135.1 83.5 135.3 83.4 135.4 83.4 C 135.5 83.4 135.5 83.4 135.6 83.3 C 135.6 83.3 135.7 83.2 135.8 83.2 C 136 83 136.1 82.7 136 82.4 C 135.9 82.1 135.8 81.9 135.7 81.7 C 135.6 81.5 135.6 81.4 135.6 81.4 Z " fill="#613A27" stroke-width="1"/>
            </g>
            <path d="M 127.9 86.8 C 127.9 86.8 127.8 86.6 127.8 86.3 C 127.8 86 127.8 85.5 127.9 85 C 128 84.5 128.2 83.8 128.5 83.2 C 128.6 82.9 128.8 82.6 129 82.2 C 129.2 81.9 129.4 81.6 129.7 81.3 C 130 81 130.3 80.8 130.6 80.6 C 130.8 80.5 131 80.5 131.1 80.4 C 131.3 80.3 131.5 80.3 131.6 80.3 C 132 80.2 132.3 80.2 132.6 80.3 C 132.9 80.3 133.2 80.4 133.5 80.5 C 133.8 80.6 134 80.7 134.2 80.8 C 134.4 80.9 134.6 81 134.7 81.1 C 135 81.3 135.1 81.4 135.1 81.4 C 135.1 81.4 134.9 81.3 134.6 81.3 C 134.5 81.3 134.3 81.2 134.1 81.1 C 133.9 81 133.6 81 133.4 81 C 133.1 80.9 132.9 80.9 132.6 80.9 C 132.3 80.9 132 81 131.7 81 C 131.4 81.1 131.1 81.2 130.8 81.3 C 130.5 81.5 130.2 81.7 130 81.9 C 129.7 82.1 129.5 82.4 129.3 82.7 C 129.1 83 128.9 83.3 128.8 83.6 C 128.5 84.2 128.3 84.8 128.1 85.3 C 127.9 85.8 127.8 86.2 127.8 86.5 C 127.9 86.6 127.9 86.8 127.9 86.8 Z " fill="#613A27" stroke-width="1"/>
            <path d="M 133.1 83.5 C 133.1 83.5 133.2 83.5 133.3 83.6 C 133.4 83.7 133.5 83.8 133.6 83.9 C 133.8 84.2 134 84.7 134 85.2 C 134 85.7 133.9 86.1 133.8 86.5 C 133.7 86.8 133.5 87 133.5 87 C 133.5 87 133.4 86.8 133.4 86.4 C 133.4 86.1 133.4 85.6 133.3 85.2 C 133.3 84.8 133.3 84.4 133.2 84.1 C 133.2 83.7 133.1 83.5 133.1 83.5 Z " fill="#613A27" stroke-width="1"/>
          </g>
          <g id="Shape">
            <g>
              <path d="M 108.5 121.8 C 109.4 116.7 116.3 107.7 121.1 101.6 C 124.2 97.7 128.8 90.4 128.8 90.4 C 131 89.8 132.9 91.2 134 92.9 C 134 92.9 132.4 96.7 129.2 104 C 125.8 111.9 117.9 124.5 114.9 125.6 C 111.3 126.7 108.1 124.3 108.5 121.8 Z " fill="#52B6CC" stroke-width="1"/>
              <path d="M 109.5 118.6 C 109.5 118.6 110.1 117.2 111.2 115.2 C 111.8 114.2 112.4 113 113.1 111.8 C 113.9 110.6 114.7 109.3 115.5 108.1 C 116.4 106.9 117.3 105.6 118.2 104.5 C 118.6 103.9 119.1 103.4 119.5 102.9 C 119.9 102.4 120.3 101.9 120.7 101.5 C 121.4 100.6 122.1 100 122.6 99.5 C 123.1 99 123.3 98.8 123.3 98.8 C 123.3 98.8 122.4 100 121 101.8 C 120.3 102.7 119.5 103.8 118.7 104.9 C 117.9 106 117 107.3 116.1 108.5 C 115.2 109.7 114.4 111 113.6 112.2 C 112.8 113.4 112.1 114.5 111.5 115.5 C 110.3 117.3 109.5 118.6 109.5 118.6 Z " fill="#2E83BF" stroke-width="1"/>
            </g>
            <path d="M 133.8 93.1 C 133.8 93.1 133.7 93.6 133.4 94.4 C 133.1 95.2 132.7 96.5 132.1 97.9 C 131.5 99.3 130.9 101 130.1 102.7 C 129.3 104.4 128.4 106.3 127.5 108.1 C 126.6 109.9 125.5 111.7 124.6 113.3 C 124.1 114.1 123.6 114.9 123.1 115.6 C 122.6 116.3 122.2 117 121.7 117.7 C 120.8 119 120.1 120 119.5 120.7 C 118.9 121.4 118.6 121.8 118.6 121.8 C 118.6 121.8 118.9 121.4 119.4 120.6 C 119.6 120.2 119.9 119.8 120.3 119.3 C 120.6 118.8 121 118.2 121.4 117.5 C 122.2 116.2 123.1 114.7 124.1 113 C 125.1 111.3 126 109.6 127 107.7 C 128 105.9 128.9 104.1 129.7 102.3 C 130.5 100.6 131.3 99 131.9 97.5 C 133 95 133.8 93.1 133.8 93.1 Z " fill="#2E83BF" stroke-width="1"/>
          </g>
        </g>
        <g id="Group">
          <path d="M 45.6 84.3 C 49.8 81.9 49 78 49 78 C 48.5 83 42.8 79.7 42.8 79.7 C 45.2 80.5 46.4 78.6 46.1 75.7 C 45.2 76.5 43.8 76.3 43.8 76.3 C 45.5 76.1 45.4 73.8 44.9 71.9 C 44.7 71.6 44.6 71.2 44.4 70.9 C 41.5 65.6 47.7 64.1 47.7 64.1 C 45 64.4 45.5 59.8 45.5 59.8 C 45.5 59.8 46.3 62.8 48.8 61 C 51.3 59.2 52.2 48.9 52.2 48.9 C 54.9 41.8 60 42.9 73.6 42.1 C 87.2 41.3 89.6 60.4 89.9 63.6 C 90.5 70.3 95.8 69.8 95.8 69.8 C 94.4 72 91.2 70.8 91.2 70.8 C 91.2 70.8 94.2 72.7 92.4 76.9 C 92.4 76.9 92.6 75.5 92 74.3 C 91.9 75 91.7 75.8 91.5 76.6 C 90.9 79.1 95.3 80.9 95.3 80.9 C 92.3 82 90.1 79.2 90.1 79.2 C 90.1 79.2 91 81 92.6 83.8 C 93.4 84.9 94.6 85.1 95.7 85.6 C 95.7 85.6 94.6 86.3 93.5 85.9 C 93.9 88.5 91.6 90.8 91.6 90.8 C 92.7 87.7 88.6 84.6 88.6 84.6 C 88.6 84.6 90.8 87.6 89.4 89.6 C 88 91.6 90.1 93.5 90.1 93.5 C 85.4 92.6 85.5 89 85.5 89 C 83.1 91.7 86.2 96.2 86.2 96.2 C 82.8 95.2 82.9 90 82.9 90 C 82.9 90 82.3 93.7 83.3 96 C 84.3 98.3 81.6 99.9 81.6 99.9 C 81.6 99.9 83.2 98.1 80.6 96.7 C 78.9 95.8 78.3 93.9 78.1 92.7 C 78.3 96.6 74.9 98 74.9 98 C 76.5 96.2 74.8 91.8 74.8 91.8 C 74.8 91.8 75.2 94.9 73.6 96.9 C 72 98.9 74.2 101.6 74.2 101.6 C 71.7 100.6 71.2 98.5 71.2 98.5 C 70.6 100.6 71.8 103 71.8 103 C 71.8 103 67.4 100.4 68.4 96.6 C 69.4 92.8 66.4 90.4 66.4 90.4 C 66.4 90.4 67.6 93 65.4 96.4 C 63.3 99.8 65.7 101.5 65.7 101.5 C 61.5 100 60.7 95.5 60.7 95.5 C 60.4 103 53.6 100.2 53.6 100.2 C 55 100 57.8 96 54.6 95.2 C 53 94.8 52.5 94 52.4 93.4 C 52.5 95.7 54.6 97 54.6 97 C 45.5 97.1 47.2 90.6 47.2 90.6 C 43.7 92.9 46.7 95.6 46.7 95.6 C 41.6 95 41.3 86.7 45.6 84.3 Z " id="Shape" fill="#261C17" fill-rule="nonzero" stroke-width="1"/>
          <path d="M 50.8 56.9 C 50.8 56.9 50.7 57.5 50.5 58.3 C 50.3 59.1 49.8 60.2 49.1 61.1 C 48.9 61.3 48.7 61.5 48.4 61.7 C 48.1 61.9 47.8 62 47.5 61.9 C 47.2 61.9 46.9 61.7 46.7 61.6 C 46.5 61.4 46.3 61.2 46.2 61.1 C 45.9 60.7 45.8 60.4 45.7 60.2 C 45.6 60 45.6 59.8 45.6 59.8 C 45.6 59.8 45.7 59.9 45.8 60.1 C 45.9 60.3 46.2 60.6 46.5 60.8 C 46.8 61.1 47.2 61.3 47.6 61.3 C 48 61.3 48.4 61 48.7 60.6 C 49.4 59.8 49.9 58.8 50.3 58.1 C 50.6 57.4 50.8 56.9 50.8 56.9 Z " id="Shape" fill="#120D0B" fill-rule="nonzero" stroke-width="1"/>
          <path d="M 47.7 64.1 C 47.7 64.1 47.3 64.3 46.6 64.7 C 46 65 45.2 65.5 44.6 66.2 C 44.4 66.3 44.3 66.5 44.2 66.7 C 44.2 66.8 44 67 44 67.2 C 43.9 67.6 43.8 68 43.8 68.3 C 43.8 68.5 43.8 68.6 43.8 68.8 C 43.8 68.9 43.9 69.1 43.9 69.2 C 43.9 69.4 44 69.5 44 69.5 C 44 69.5 43.9 69.4 43.8 69.2 C 43.7 69 43.5 68.8 43.4 68.4 C 43.3 68.2 43.3 68 43.3 67.8 C 43.3 67.6 43.3 67.3 43.4 67.1 C 43.4 66.9 43.6 66.6 43.7 66.4 C 43.9 66.2 44 66 44.2 65.8 C 44.4 65.6 44.6 65.4 44.8 65.3 C 45 65.1 45.2 65 45.4 64.9 C 45.8 64.7 46.2 64.5 46.6 64.4 C 47.2 64.1 47.7 64.1 47.7 64.1 Z " id="Shape" fill="#120D0B" fill-rule="nonzero" stroke-width="1"/>
          <path d="M 42.8 79.7 C 42.8 79.7 42.9 79.7 43.1 79.7 C 43.3 79.7 43.5 79.8 43.8 79.7 C 44.1 79.7 44.4 79.6 44.7 79.5 C 44.8 79.4 45 79.3 45.1 79.2 L 45.3 79 L 45.4 78.8 C 45.5 78.7 45.5 78.5 45.6 78.3 C 45.7 78.1 45.7 77.9 45.7 77.8 C 45.8 77.4 45.8 77.1 45.9 76.8 C 46 76.2 46 75.8 46 75.8 C 46 75.8 46.1 76.2 46.2 76.8 C 46.2 77.1 46.3 77.5 46.2 77.9 C 46.2 78.1 46.2 78.3 46.1 78.5 C 46 78.7 46 78.9 45.9 79.1 L 45.7 79.4 L 45.5 79.7 C 45.3 79.9 45.1 80 44.9 80.1 C 44.7 80.2 44.5 80.2 44.3 80.2 C 44.1 80.2 43.9 80.2 43.8 80.2 C 43.5 80.1 43.2 80 43.1 79.9 C 42.9 79.8 42.8 79.7 42.8 79.7 Z " id="Shape" fill="#120D0B" fill-rule="nonzero" stroke-width="1"/>
          <path d="M 47.1 83.4 C 47.1 83.4 46.9 83.5 46.5 83.8 C 46.1 84 45.6 84.4 45.1 84.9 C 44.8 85.2 44.5 85.4 44.3 85.8 C 44 86.1 43.8 86.5 43.6 86.9 C 43.5 87.1 43.4 87.3 43.3 87.5 C 43.2 87.7 43.2 87.9 43.1 88.2 L 42.9 89 C 42.9 89.2 42.9 89.5 42.9 89.7 C 42.9 89.9 42.9 90.2 42.9 90.4 C 42.9 90.6 42.9 90.9 43 91.1 C 43.1 91.6 43.2 92 43.4 92.5 C 43.6 92.9 43.8 93.3 44 93.7 C 44.2 94.1 44.5 94.4 44.7 94.6 C 45.2 95.1 45.8 95.4 46.2 95.5 C 46.6 95.6 46.9 95.6 46.9 95.6 C 46.9 95.6 46.6 95.7 46.2 95.6 C 45.8 95.5 45.1 95.4 44.5 94.8 C 44.2 94.6 43.9 94.2 43.6 93.9 C 43.3 93.5 43.1 93.1 42.9 92.7 C 42.7 92.3 42.5 91.8 42.4 91.3 C 42.3 91.1 42.3 90.8 42.3 90.5 C 42.3 90.2 42.2 90 42.2 89.7 C 42.2 89.4 42.2 89.2 42.2 88.9 C 42.3 88.6 42.3 88.4 42.4 88.1 C 42.5 87.9 42.6 87.6 42.7 87.4 C 42.8 87.2 42.9 86.9 43 86.7 C 43.3 86.3 43.6 85.9 43.9 85.6 C 44.2 85.3 44.5 85 44.8 84.7 C 45.4 84.2 46 83.9 46.4 83.7 C 46.9 83.5 47.1 83.4 47.1 83.4 Z " id="Shape" fill="#120D0B" fill-rule="nonzero" stroke-width="1"/>
          <path d="M 54.9 97 C 54.9 97 54 97.2 52.6 97.1 C 52.3 97.1 51.9 97 51.5 96.9 C 51.1 96.8 50.7 96.7 50.3 96.5 C 50.1 96.4 49.9 96.3 49.7 96.2 C 49.5 96.1 49.3 96 49.1 95.8 L 48.5 95.3 C 48.3 95.1 48.2 94.9 48 94.7 L 47.8 94.4 C 47.7 94.3 47.7 94.2 47.7 94.1 L 47.4 93.4 C 47.3 92.9 47.2 92.5 47.2 92 C 47.2 91.6 47.2 91.1 47.3 90.7 C 47.4 90.3 47.5 89.9 47.6 89.6 C 47.7 89.3 47.8 89 47.9 88.7 C 48 88.4 48.1 88.2 48.2 88 C 48.4 87.6 48.5 87.4 48.5 87.4 C 48.5 87.4 48.4 87.6 48.3 88 C 48.2 88.4 48 88.9 47.9 89.6 C 47.8 89.9 47.8 90.3 47.7 90.7 C 47.7 91.1 47.7 91.5 47.7 91.9 C 47.7 92.3 47.8 92.7 47.9 93.1 L 48.2 93.7 C 48.2 93.8 48.3 93.9 48.3 94 L 48.5 94.3 C 48.6 94.5 48.7 94.7 48.9 94.8 L 49.4 95.2 C 49.6 95.3 49.8 95.4 49.9 95.5 C 50.1 95.6 50.3 95.7 50.5 95.8 C 50.9 96 51.3 96.1 51.6 96.2 C 52 96.3 52.3 96.4 52.7 96.5 C 53.9 97 54.9 97 54.9 97 Z " id="Shape" fill="#120D0B" fill-rule="nonzero" stroke-width="1"/>
          <path d="M 43.8 76.3 C 43.8 76.3 47.7 77.2 47.1 71.4 " id="Shape" stroke="#120D0B" stroke-width="0.1951" fill="none"/>
          <path d="M 47.8 88.4 C 47.8 88.4 47.9 87.8 48.2 87.2 C 48.4 86.6 48.8 86.1 48.8 86.1 C 48.8 86.1 48.7 86.7 48.4 87.3 C 48.1 87.9 47.8 88.4 47.8 88.4 Z " id="Shape" fill="#120D0B" fill-rule="nonzero" stroke-width="1"/>
          <path d="M 47.9 86.5 C 47.9 86.5 48 86 48.2 85.6 C 48.4 85.2 48.7 84.8 48.7 84.8 C 48.7 84.8 48.6 85.3 48.4 85.7 C 48.2 86.1 47.9 86.5 47.9 86.5 Z " id="Shape" fill="#120D0B" fill-rule="nonzero" stroke-width="1"/>
          <path d="M 47.6 71.8 C 47.6 71.8 47.5 71.4 47.4 71 C 47.3 70.6 47.4 70.2 47.4 70.2 C 47.4 70.2 47.5 70.6 47.6 71 C 47.7 71.3 47.6 71.8 47.6 71.8 Z " id="Shape" fill="#120D0B" fill-rule="nonzero" stroke-width="1"/>
          <path d="M 48.3 70.9 C 48.3 70.9 48.1 70.5 48 70.1 C 47.9 69.7 47.9 69.3 47.9 69.3 C 47.9 69.3 48.1 69.7 48.2 70.1 C 48.3 70.5 48.3 70.9 48.3 70.9 Z " id="Shape" fill="#120D0B" fill-rule="nonzero" stroke-width="1"/>
          <path d="M 50.3 63.5 C 50.3 63.5 50 63.8 49.5 64 C 49.2 64.1 48.9 64.3 48.6 64.4 C 48.2 64.5 47.8 64.5 47.4 64.5 C 47 64.4 46.6 64.3 46.3 64 C 46.1 63.9 46 63.7 46 63.6 C 45.9 63.5 45.9 63.3 45.8 63.2 C 45.7 62.9 45.7 62.7 45.7 62.5 C 45.7 62.3 45.7 62.2 45.7 62.2 C 45.7 62.2 45.7 62.3 45.8 62.4 C 45.8 62.5 45.9 62.6 45.9 62.7 C 45.9 62.8 46 62.9 46.1 63 C 46.2 63.2 46.4 63.5 46.7 63.6 C 46.8 63.7 47 63.7 47.1 63.8 C 47.2 63.9 47.4 63.9 47.5 63.9 C 47.8 64 48.2 63.9 48.5 63.9 C 48.8 63.9 49.1 63.8 49.4 63.8 C 49.9 63.6 50.3 63.5 50.3 63.5 Z " id="Shape" fill="#120D0B" fill-rule="nonzero" stroke-width="1"/>
          <path d="M 95.4 80.8 C 95.4 80.8 94.9 81.1 94 81.1 C 93.8 81.1 93.5 81.1 93.3 81.1 C 93 81.1 92.8 81 92.5 81 C 92.2 80.9 91.9 80.8 91.7 80.7 C 91.4 80.6 91.2 80.4 90.9 80.2 C 90.7 80 90.5 79.8 90.3 79.5 C 90.1 79.3 90 79 89.9 78.8 C 89.8 78.5 89.7 78.3 89.6 78.1 C 89.5 77.9 89.5 77.6 89.5 77.4 C 89.4 77 89.4 76.6 89.4 76.4 C 89.4 76.2 89.4 76 89.4 76 C 89.4 76 89.5 76.1 89.5 76.4 C 89.6 76.6 89.6 77 89.8 77.4 C 89.9 77.6 90 77.8 90 78 C 90.1 78.2 90.2 78.4 90.3 78.6 C 90.4 78.8 90.6 79 90.7 79.2 C 90.9 79.4 91 79.6 91.2 79.7 C 91.6 80 92.1 80.3 92.5 80.4 C 92.7 80.5 93 80.6 93.2 80.6 C 93.4 80.6 93.6 80.7 93.8 80.7 C 94.2 80.7 94.6 80.8 94.8 80.7 C 95.3 80.8 95.4 80.8 95.4 80.8 Z " id="Shape" fill="#120D0B" fill-rule="nonzero" stroke-width="1"/>
          <path d="M 92.4 76.8 C 92.4 76.8 92.5 76.3 92.6 75.5 C 92.6 75.1 92.7 74.7 92.6 74.2 C 92.6 73.7 92.5 73.3 92.3 72.8 C 92.2 72.6 92.1 72.4 92 72.2 C 91.9 72 91.7 71.8 91.6 71.6 C 91.5 71.4 91.3 71.3 91.2 71.1 C 91.1 70.9 90.9 70.8 90.7 70.7 C 90.4 70.4 90.1 70.3 90 70.2 C 89.8 70.1 89.7 70 89.7 70 C 89.7 70 89.8 70 90 70.1 C 90.2 70.2 90.5 70.2 90.9 70.4 C 91.1 70.5 91.3 70.6 91.5 70.7 C 91.7 70.8 91.9 71 92.1 71.2 C 92.3 71.4 92.5 71.6 92.6 71.8 C 92.7 72 92.9 72.3 93 72.5 C 93.2 73 93.3 73.6 93.2 74.1 C 93.2 74.6 93.1 75.1 93 75.4 C 92.8 76.4 92.4 76.8 92.4 76.8 Z " id="Shape" fill="#120D0B" fill-rule="nonzero" stroke-width="1"/>
          <path d="M 95.8 69.8 C 95.8 69.8 95.7 69.8 95.4 69.9 C 95.1 69.9 94.7 69.9 94.3 69.9 C 94.1 69.9 93.8 69.8 93.6 69.7 C 93.4 69.6 93.1 69.5 92.8 69.4 C 92.5 69.3 92.3 69.1 92 68.9 C 91.7 68.7 91.5 68.5 91.3 68.3 C 91.1 68 90.9 67.8 90.8 67.5 C 90.7 67.2 90.5 67 90.4 66.7 C 90.3 66.4 90.2 66.2 90.1 65.9 C 90.1 65.6 90 65.4 90 65.2 C 89.9 64.8 90 64.4 89.9 64.1 C 89.9 63.8 89.9 63.7 89.9 63.7 C 89.9 63.7 89.9 63.8 90 64.1 C 90.1 64.4 90.1 64.7 90.3 65.1 C 90.4 65.3 90.4 65.5 90.5 65.8 C 90.6 66 90.7 66.3 90.8 66.5 C 90.9 66.8 91.1 67 91.2 67.2 C 91.3 67.4 91.5 67.6 91.7 67.9 C 91.9 68.1 92.1 68.3 92.3 68.5 C 92.5 68.7 92.7 68.8 93 69 C 93.2 69.2 93.5 69.2 93.7 69.4 C 93.9 69.5 94.1 69.6 94.4 69.6 C 94.8 69.7 95.2 69.8 95.4 69.9 C 95.7 69.8 95.8 69.8 95.8 69.8 Z " id="Shape" fill="#120D0B" fill-rule="nonzero" stroke-width="1"/>
          <path d="M 95.7 85.6 C 95.7 85.6 95.4 85.9 94.7 86 C 94.5 86 94.4 86.1 94.2 86.1 C 94 86.1 93.8 86.1 93.6 86.1 C 93.4 86.1 93.2 86 93 85.9 C 92.8 85.8 92.6 85.7 92.4 85.6 C 92 85.3 91.7 85 91.5 84.7 C 91.3 84.4 91.1 84 91 83.7 C 90.9 83.4 90.9 83.1 90.8 83 C 90.8 82.8 90.8 82.7 90.8 82.7 C 90.8 82.7 90.9 82.8 91 82.9 C 91.1 83.1 91.2 83.3 91.4 83.5 C 91.5 83.6 91.6 83.8 91.7 83.9 C 91.8 84 91.9 84.2 92 84.3 C 92.1 84.4 92.3 84.6 92.4 84.7 C 92.5 84.8 92.7 84.9 92.8 85 C 93 85.1 93.1 85.2 93.3 85.3 C 93.5 85.4 93.6 85.4 93.8 85.5 C 94.1 85.6 94.5 85.6 94.8 85.6 C 95.1 85.6 95.4 85.6 95.5 85.6 C 95.6 85.7 95.7 85.6 95.7 85.6 Z " id="Shape" fill="#120D0B" fill-rule="nonzero" stroke-width="1"/>
          <path d="M 88.7 76.6 C 88.7 76.6 88.6 76.3 88.6 75.9 C 88.6 75.5 88.7 75.2 88.7 75.2 C 88.7 75.2 88.8 75.5 88.8 75.9 C 88.8 76.2 88.7 76.6 88.7 76.6 Z " id="Shape" fill="#120D0B" fill-rule="nonzero" stroke-width="1"/>
          <path d="M 87.8 74.4 C 87.8 74.4 87.9 74.7 87.9 75 C 87.9 75.3 87.8 75.6 87.8 75.6 C 87.8 75.6 87.7 75.3 87.7 75 C 87.7 74.7 87.8 74.4 87.8 74.4 Z " id="Shape" fill="#120D0B" fill-rule="nonzero" stroke-width="1"/>
          <path d="M 89.8 70.8 C 89.8 70.8 89.5 70.7 89.3 70.6 C 89.1 70.5 88.9 70.2 88.9 70.2 C 88.9 70.2 89.2 70.3 89.4 70.4 C 89.6 70.6 89.8 70.8 89.8 70.8 Z " id="Shape" fill="#120D0B" fill-rule="nonzero" stroke-width="1"/>
        </g>
        <g id="Group" fill-rule="nonzero">
          <g id="Shape">
            <path d="M 64.4 69.1 C 64.4 69.1 67.3 77.5 64.9 80.2 C 62.5 82.9 49.8 88.3 49.8 88.3 C 49.8 88.3 41.6 93.5 50 111.9 C 53.6 119.9 90.9 110.3 91.9 104.5 C 92.9 98.6 88.2 83.2 88.2 83.2 C 88.2 83.2 80.8 81.6 79 80.2 C 77.1 78.9 77 73.2 77 73.2 C 77 73.2 70.5 65.7 64.4 69.1 Z " fill="#875137" stroke-width="1"/>
            <path d="M 65.6 73.8 C 65.6 73.8 65.7 74.1 65.7 74.5 C 65.8 75 65.9 75.7 65.9 76.5 C 65.9 77.3 66 78.3 65.6 79.4 C 65.5 79.7 65.4 79.9 65.2 80.2 C 65 80.5 64.8 80.6 64.6 80.8 C 64.1 81.2 63.7 81.5 63.2 81.8 C 62.3 82.4 61.3 82.9 60.4 83.4 C 59.5 83.9 58.6 84.3 57.9 84.7 C 56.4 85.4 55.4 85.8 55.4 85.8 C 55.4 85.8 56.3 85.2 57.7 84.4 C 58.4 84 59.2 83.5 60.1 83 C 61 82.5 61.9 81.9 62.8 81.3 C 63.3 81 63.7 80.7 64.1 80.4 C 64.3 80.3 64.6 80 64.7 79.9 C 64.8 79.7 64.9 79.5 65 79.3 C 65.3 78.4 65.4 77.4 65.4 76.6 C 65.4 75.8 65.4 75.1 65.4 74.6 C 65.6 74.1 65.6 73.8 65.6 73.8 Z " fill="#613A27" stroke-width="1"/>
            <path d="M 71.4 86.1 C 71.4 86.1 70.9 86.1 70.1 86.1 C 69.3 86.1 68.3 86.1 67.4 86 C 66.4 85.9 65.4 85.9 64.7 85.8 C 64.3 85.8 64 85.7 63.8 85.7 C 63.6 85.7 63.5 85.7 63.5 85.7 C 63.5 85.7 64 85.6 64.8 85.5 C 65.6 85.4 66.6 85.4 67.6 85.5 C 68.6 85.6 69.6 85.7 70.3 85.9 C 70.9 86 71.4 86.1 71.4 86.1 Z " fill="#613A27" stroke-width="1"/>
            <path d="M 83.8 83.7 C 83.8 83.7 83.4 83.9 82.7 84.1 C 82 84.3 81.2 84.6 80.3 84.9 C 79.4 85.1 78.5 85.4 77.8 85.5 C 77.1 85.6 76.7 85.7 76.7 85.7 C 76.7 85.7 77.1 85.4 77.7 85.1 C 78.3 84.8 79.2 84.5 80.1 84.2 C 81 84 81.9 83.8 82.6 83.7 C 83.4 83.7 83.8 83.7 83.8 83.7 Z " fill="#613A27" stroke-width="1"/>
          </g>
          <g id="Shape">
            <g>
              <path d="M 89.7 96.9 C 89.7 96.9 81.8 96.3 77.8 101.3 C 77.8 101.3 71.7 97.2 60.9 99.5 C 60.9 99.5 60.9 85.6 53.4 86.3 C 51.9 86.7 49.9 87.9 49.2 88.5 C 48.5 89.1 45.7 91.2 45.8 98.3 C 45.9 106.3 50.5 113.2 49.4 111.3 C 48.3 109.4 55.5 122.2 56.9 127.9 C 56.9 127.9 75.6 136.6 89.5 127 C 89.5 127 92.7 120.2 94.4 113.4 C 95.6 108.6 93 100.5 91.9 93.7 C 90.2 83.1 88.3 83 88.3 83 L 84.8 82.2 C 84.7 82.3 87.8 82.8 89.7 96.9 Z " fill="#6FCED9" stroke-width="1"/>
              <path d="M 89.6 126.8 C 89.6 126.8 90.3 125 91.2 122.3 C 91.7 121 92.3 119.4 92.8 117.7 C 93.1 116.9 93.4 116 93.7 115.1 C 93.8 114.7 94 114.2 94.1 113.8 C 94.2 113.4 94.2 112.9 94.3 112.4 C 94.4 111.5 94.5 110.5 94.5 109.6 C 94.5 108.7 94.4 107.8 94.3 106.9 C 94.1 105.1 93.9 103.5 93.6 102.1 C 93.1 99.3 92.8 97.4 92.8 97.4 C 92.8 97.4 92.9 97.9 93.1 98.7 C 93.3 99.5 93.6 100.6 93.9 102 C 94.2 103.4 94.6 105 94.8 106.8 C 94.9 107.7 95 108.6 95 109.6 C 95 110.5 95 111.5 94.8 112.5 L 94.7 113.2 C 94.7 113.4 94.6 113.7 94.6 113.9 C 94.5 114.4 94.3 114.8 94.2 115.3 C 93.9 116.2 93.6 117.1 93.3 117.9 C 92.7 119.6 92 121.1 91.5 122.4 C 90.4 125.1 89.6 126.8 89.6 126.8 Z " fill="#3FADC4" stroke-width="1"/>
              <path d="M 56.7 126.7 C 56.7 126.7 56.3 126 55.8 125 C 55.3 124 54.6 122.6 54 121.1 C 53.4 119.7 52.8 118.3 52.3 117.2 C 51.9 116.1 51.5 115.4 51.5 115.4 C 51.5 115.4 52 116 52.6 117 C 53.2 118 53.9 119.4 54.5 120.8 C 55.1 122.2 55.7 123.7 56.1 124.8 C 56.5 125.9 56.7 126.7 56.7 126.7 Z " fill="#3FADC4" stroke-width="1"/>
              <path d="M 89.7 96.9 C 89.1 96.9 88.6 96.9 88.1 97 C 87.6 97 87 97.1 86.5 97.2 C 86 97.3 85.4 97.4 84.9 97.5 C 84.6 97.6 84.4 97.6 84.1 97.7 L 83.3 97.9 C 82.8 98.1 82.3 98.2 81.8 98.5 C 81.5 98.6 81.3 98.7 81.1 98.8 C 80.9 98.9 80.6 99 80.4 99.2 L 79.7 99.6 C 79.5 99.8 79.3 100 79.1 100.1 C 78.9 100.3 78.7 100.5 78.5 100.7 L 78 101.3 L 77.9 101.4 L 77.8 101.3 C 77.2 100.9 76.5 100.6 75.9 100.4 C 75.2 100.2 74.5 100 73.8 99.8 C 73.5 99.7 73.1 99.7 72.8 99.6 C 72.5 99.5 72.1 99.5 71.7 99.4 C 71.3 99.3 71 99.3 70.6 99.3 C 70.2 99.3 69.9 99.2 69.5 99.2 C 68.8 99.1 68.1 99.1 67.4 99.1 C 66.7 99.1 66 99.1 65.3 99.1 C 64.6 99.1 63.9 99.2 63.1 99.2 L 60.9 99.4 L 60.9 99.3 C 61.6 99.1 62.3 98.9 63 98.8 C 63.7 98.7 64.4 98.6 65.2 98.5 C 65.9 98.4 66.7 98.4 67.4 98.4 C 68.1 98.4 68.9 98.4 69.6 98.5 C 70 98.5 70.3 98.6 70.7 98.6 C 71.1 98.6 71.4 98.7 71.8 98.8 C 72.5 98.9 73.2 99.1 73.9 99.3 C 74.2 99.4 74.6 99.5 74.9 99.6 C 75.2 99.7 75.6 99.9 75.9 100 C 76.6 100.3 77.2 100.6 77.8 101 L 77.6 101 C 78 100.6 78.3 100.1 78.7 99.8 C 78.9 99.6 79.1 99.4 79.3 99.2 L 80 98.7 C 80.2 98.5 80.5 98.4 80.7 98.2 C 80.9 98 81.2 97.9 81.4 97.8 C 81.7 97.7 81.9 97.5 82.2 97.4 L 83 97.1 C 83.5 96.9 84.1 96.8 84.6 96.7 C 84.9 96.6 85.2 96.6 85.4 96.6 C 85.7 96.6 86 96.5 86.2 96.5 C 87.5 96.6 88.6 96.6 89.7 96.9 Z " fill="#3FADC4" stroke-width="1"/>
              <path d="M 60.8 97.3 C 60.8 97.3 60.7 96.4 60.4 95 C 60.1 93.6 59.7 91.8 58.9 90.2 C 58.7 89.8 58.5 89.4 58.3 89 C 58.1 88.6 57.8 88.3 57.5 88 C 57.2 87.7 56.9 87.4 56.6 87.2 C 56.3 87 56 86.8 55.7 86.7 C 55.4 86.6 55.1 86.5 54.8 86.4 C 54.5 86.3 54.3 86.3 54.1 86.3 C 53.7 86.3 53.5 86.3 53.5 86.3 C 53.5 86.3 53.7 86.3 54.1 86.2 C 54.3 86.2 54.6 86.2 54.8 86.2 C 55.1 86.2 55.4 86.3 55.8 86.4 C 56.1 86.5 56.5 86.7 56.9 86.9 C 57.3 87.1 57.6 87.4 57.9 87.7 C 58.6 88.3 59.1 89.2 59.5 90 C 60.3 91.7 60.6 93.6 60.8 95 C 60.9 96.4 60.8 97.3 60.8 97.3 Z " fill="#3FADC4" stroke-width="1"/>
            </g>
            <path d="M 65.5 128.8 C 65.5 128.8 65.2 127.5 64.7 125.5 C 64.4 124.5 64.1 123.4 63.8 122.1 C 63.5 120.9 63.1 119.6 62.7 118.3 C 62.5 117.6 62.3 117 62.1 116.4 C 61.9 115.8 61.7 115.2 61.5 114.6 C 61.1 113.4 60.7 112.3 60.2 111.4 C 60 110.9 59.8 110.5 59.6 110.1 C 59.4 109.7 59.3 109.4 59.1 109.2 C 58.8 108.7 58.6 108.4 58.6 108.4 C 58.6 108.4 58.8 108.7 59.2 109.2 C 59.4 109.4 59.6 109.7 59.8 110.1 C 60 110.5 60.3 110.8 60.5 111.3 C 61 112.2 61.5 113.3 61.9 114.5 C 62.1 115.1 62.4 115.7 62.6 116.3 C 62.8 116.9 63 117.6 63.2 118.2 C 63.6 119.5 63.9 120.8 64.2 122.1 C 64.5 123.3 64.7 124.5 64.9 125.5 C 65.3 127.4 65.5 128.8 65.5 128.8 Z " fill="#3FADC4" stroke-width="1"/>
            <path d="M 94.2 107.1 C 94.2 107.1 94 107.4 93.8 108 C 93.5 108.5 93.2 109.3 92.7 110.3 C 92.3 111.2 91.8 112.4 91.3 113.6 C 90.8 114.8 90.3 116.1 89.8 117.4 C 89.3 118.7 88.8 120 88.4 121.2 C 88 122.4 87.6 123.6 87.2 124.6 C 86.5 126.6 86.1 127.9 86.1 127.9 C 86.1 127.9 86.2 127.6 86.3 127 C 86.4 126.4 86.6 125.5 86.9 124.5 C 87.2 123.5 87.5 122.3 87.9 121.1 C 88.3 119.9 88.8 118.5 89.3 117.2 C 89.8 115.9 90.4 114.6 90.9 113.4 C 91.4 112.2 92 111.1 92.5 110.2 C 93.4 108.3 94.2 107.1 94.2 107.1 Z " fill="#3FADC4" stroke-width="1"/>
          </g>
        </g>
        <g id="Group" fill-rule="nonzero">
          <g id="Shape">
            <path d="M 9.1 258.6 C 9.1 258.6 21.6 155.2 56.1 128.3 C 56.9 128.8 65.8 133.6 79.1 132 C 89.2 130.8 90.3 127.6 90.3 127.6 C 90.3 127.6 90.3 127.5 90.3 127.4 C 94.2 132.1 102.9 145 113.9 176.4 C 128.9 219.5 131.9 255.8 131.9 255.8 C 131.9 255.8 123.5 264.3 113.2 264.8 C 113.2 264.8 114 269.4 114.2 273.6 C 114.4 277.8 71.2 287.2 57.5 279.1 C 54.6 277.4 56.3 273 48.3 273.1 C 29.6 273.3 23.9 269.2 23.9 269.2 L 24.5 264.2 C 24.3 264.3 14.5 264.3 9.1 258.6 Z " fill="#6FCED9" stroke-width="1"/>
            <g>
              <g>
                <path d="M 114.2 271.1 C 114.2 271.1 113.1 264.7 111.4 255 C 110.5 250.2 109.5 244.6 108.5 238.5 C 107.4 232.5 106.3 226.1 105 219.7 C 104.4 216.5 103.8 213.3 103.2 210.1 C 102.6 207 102 203.9 101.4 200.9 C 100.2 194.9 99.1 189.3 98 184.5 C 97.5 182.1 97 179.9 96.5 178 C 96 176.1 95.7 174.4 95.3 173 C 94.6 170.2 94.1 168.7 94.1 168.7 C 94.1 168.7 94.6 170.3 95.4 173 C 95.8 174.4 96.2 176.1 96.7 178 C 97.2 179.9 97.8 182.1 98.3 184.5 C 98.9 186.9 99.5 189.5 100.1 192.2 C 100.7 194.9 101.3 197.8 101.9 200.8 C 102.5 203.8 103.1 206.9 103.8 210 C 104.4 213.2 105 216.4 105.6 219.6 C 106.8 226 107.9 232.4 109 238.5 C 110 244.5 111 250.2 111.8 255 C 112.6 259.8 113.2 263.9 113.6 266.7 C 113.9 269.5 114.2 271.1 114.2 271.1 Z " stroke-width="1" fill="#3FADC4"/>
                <path d="M 24 266.9 C 24 266.9 24.1 265.8 24.3 263.9 C 24.5 262 24.8 259.3 25.2 256.1 C 25.6 252.9 26 249.1 26.6 245.1 C 27.2 241.1 27.7 236.8 28.3 232.5 C 29 228.2 29.6 223.9 30.2 219.9 C 30.8 215.9 31.5 212.1 32.1 208.9 C 32.7 205.7 33.2 203 33.6 201.2 C 34 199.3 34.2 198.3 34.2 198.3 C 34.2 198.3 34 199.4 33.7 201.2 C 33.4 203.1 33 205.8 32.5 209 C 32 212.2 31.4 216 30.8 220 C 30.2 224 29.6 228.3 29 232.6 C 26.5 249.7 24 266.9 24 266.9 Z " stroke-width="1" fill="#3FADC4"/>
                <path d="M 67.2 131.8 C 67.2 131.8 66.8 132.7 66.2 134.2 C 65.6 135.7 64.9 138 64.1 140.7 C 63.7 142.1 63.3 143.6 62.9 145.1 C 62.5 146.7 62.1 148.4 61.7 150.1 C 61.3 151.8 60.9 153.6 60.6 155.5 C 60.2 157.3 59.9 159.2 59.6 161.1 C 59.4 162 59.3 163 59.1 163.9 C 59 164.8 58.8 165.8 58.7 166.7 C 58.4 168.5 58.2 170.4 58 172.1 C 57.8 173.9 57.6 175.6 57.4 177.2 C 57.2 178.8 57.1 180.4 56.9 181.8 C 56.6 184.6 56.4 187 56.3 188.6 C 56.2 190.3 56.1 191.2 56.1 191.2 C 56.1 191.2 56.1 190.3 56.2 188.6 C 56.2 187.8 56.3 186.8 56.3 185.6 C 56.3 184.4 56.4 183.1 56.5 181.7 C 56.6 180.3 56.7 178.7 56.9 177.1 C 57 175.5 57.2 173.8 57.4 172 C 57.6 170.2 57.8 168.4 58.1 166.6 C 58.2 165.7 58.4 164.7 58.5 163.8 C 58.7 162.9 58.8 161.9 59 161 C 59.3 159.1 59.7 157.3 60 155.4 C 60.3 153.6 60.8 151.8 61.1 150 C 61.5 148.3 61.9 146.6 62.4 145 C 62.9 143.4 63.3 141.9 63.7 140.6 C 64.1 139.2 64.6 138 65 136.9 C 65.4 135.8 65.8 134.9 66.1 134.1 C 66.7 132.7 67.2 131.8 67.2 131.8 Z " stroke-width="1" fill="#3FADC4"/>
                <path d="M 82.5 131.5 C 82.5 131.5 82.8 131.7 83.3 132.2 C 83.8 132.7 84.3 133.4 84.9 134.4 C 85.5 135.4 86.1 136.6 86.6 137.9 C 86.9 138.6 87.1 139.2 87.4 139.9 C 87.6 140.6 87.9 141.3 88.1 142 C 88.5 143.4 88.9 144.9 89.3 146.3 C 89.5 147 89.6 147.6 89.8 148.3 C 89.9 148.9 90.1 149.5 90.2 150.1 C 90.6 152.3 90.9 153.8 90.9 153.8 C 90.9 153.8 90.5 152.4 89.9 150.2 C 89.6 149.1 89.2 147.9 88.9 146.5 C 88.5 145.1 88.1 143.7 87.6 142.3 C 87.4 141.6 87.1 140.9 86.9 140.2 C 86.7 139.5 86.4 138.8 86.2 138.2 C 85.7 136.9 85.2 135.7 84.7 134.7 C 84.2 133.7 83.7 132.9 83.3 132.4 C 82.8 131.7 82.5 131.5 82.5 131.5 Z " stroke-width="1" fill="#3FADC4"/>
                <path d="M 60.5 130.3 C 60.5 130.3 60 130.7 59.3 131.5 C 59 131.9 58.6 132.4 58.2 132.9 C 57.8 133.4 57.4 134 57 134.6 C 56.6 135.2 56.2 135.7 55.8 136.3 C 55.4 136.8 55.1 137.4 54.8 137.8 C 54.5 138.2 54.3 138.6 54.1 138.9 C 53.9 139.2 53.8 139.3 53.8 139.3 C 53.8 139.3 53.9 139.1 54 138.8 C 54.1 138.5 54.3 138.1 54.5 137.6 C 55 136.6 55.7 135.4 56.5 134.2 C 56.9 133.6 57.3 133.1 57.8 132.6 C 58.2 132.1 58.7 131.7 59.1 131.3 C 59.5 130.9 59.9 130.7 60.1 130.5 C 60.3 130.4 60.5 130.3 60.5 130.3 Z " stroke-width="1" fill="#3FADC4"/>
                <path d="M 77.8 132.3 C 77.8 132.3 78 133 78.5 134.2 C 78.9 135.4 79.5 137.1 80.1 139.2 C 80.7 141.3 81.4 143.7 82 146.3 C 82.6 148.9 83.2 151.7 83.8 154.6 C 84.1 156 84.3 157.4 84.5 158.8 C 84.7 160.2 84.9 161.6 85.1 162.9 C 85.3 164.2 85.4 165.5 85.5 166.8 C 85.6 168 85.7 169.2 85.8 170.3 C 86 172.5 86 174.3 86.1 175.5 C 86.1 176.8 86.2 177.5 86.2 177.5 C 86.2 177.5 86.1 176.8 86 175.5 C 85.9 174.9 85.9 174.1 85.8 173.2 C 85.7 172.3 85.6 171.3 85.5 170.3 C 85.4 169.2 85.3 168.1 85.1 166.8 C 84.9 165.6 84.8 164.3 84.6 163 C 84.4 161.7 84.2 160.3 84 158.9 C 83.8 157.5 83.5 156.1 83.2 154.7 C 82.7 151.9 82.1 149.1 81.5 146.4 C 80.9 143.8 80.3 141.3 79.8 139.2 C 79.3 137.1 78.8 135.4 78.4 134.2 C 78 133 77.8 132.3 77.8 132.3 Z " stroke-width="1" fill="#3FADC4"/>
              </g>
              <path d="M 94.7 133.6 C 94.7 133.6 94.9 134 95.3 134.7 C 95.7 135.4 96.4 136.5 97.2 137.8 C 98.8 140.5 101 144.4 103.2 149.3 C 105.5 154.2 107.9 160 110.3 166.3 C 112.7 172.6 115.1 179.4 117.3 186.2 C 119.5 193 121.5 200 123.2 206.5 C 124.9 213 126.2 219.2 127.2 224.5 C 128.2 229.8 128.9 234.2 129.3 237.3 C 129.5 238.9 129.7 240.1 129.8 240.9 C 129.9 241.3 129.9 241.6 129.9 241.8 C 129.9 242 130 242.1 130 242.1 C 130 242.1 130 242 129.9 241.8 C 129.9 241.6 129.8 241.3 129.7 240.9 C 129.6 240.1 129.4 238.9 129.1 237.3 C 128.6 234.2 127.8 229.8 126.7 224.5 C 125.6 219.2 124.2 213.1 122.5 206.6 C 120.8 200.1 118.8 193.2 116.6 186.4 C 115.5 183 114.4 179.6 113.2 176.2 C 112 172.9 110.8 169.6 109.7 166.5 C 107.3 160.2 105 154.4 102.8 149.5 C 100.6 144.6 98.6 140.6 97 137.9 C 96.2 136.5 95.6 135.5 95.2 134.7 C 94.9 134 94.7 133.6 94.7 133.6 Z " stroke-width="1" fill="#3FADC4"/>
              <path d="M 71.5 282.3 C 71.5 282.3 70.8 282.3 69.5 282.3 C 68.2 282.2 66.3 282.1 64.1 281.7 C 63 281.5 61.8 281.2 60.6 280.8 C 60 280.6 59.3 280.4 58.7 280.1 C 58.1 279.8 57.5 279.4 56.9 279 C 55.8 278.1 55 276.7 54.4 275.4 C 54.2 275.1 54.1 274.8 53.8 274.7 C 53.5 274.5 53.2 274.4 52.9 274.3 C 52.2 274.1 51.5 274 50.8 273.9 C 49.3 273.7 47.9 273.7 46.4 273.7 C 44.9 273.7 43.5 273.7 42.1 273.6 C 39.3 273.5 36.7 273 34.5 272.6 C 32.3 272.2 30.5 271.7 29.3 271.4 C 28 271.1 27.3 270.8 27.3 270.8 C 27.3 270.8 28 271 29.3 271.3 C 30.6 271.6 32.4 271.9 34.6 272.3 C 36.8 272.7 39.4 272.9 42.1 273.1 C 43.5 273.2 44.9 273.1 46.4 273.1 C 47.9 273.1 49.4 273.2 50.8 273.3 C 51.5 273.4 52.3 273.5 53 273.7 C 53.4 273.8 53.8 274 54.1 274.2 C 54.5 274.4 54.7 274.8 54.9 275.1 C 55.6 276.4 56.2 277.7 57.2 278.5 C 57.7 278.9 58.3 279.3 58.8 279.6 C 59.1 279.7 59.4 279.9 59.7 280 C 60 280.1 60.3 280.2 60.6 280.3 C 61.8 280.7 63 281 64 281.2 C 68.5 282.3 71.5 282.3 71.5 282.3 Z " stroke-width="1" fill="#3FADC4"/>
              <path d="M 56 128.2 C 56 128.2 55.8 128.4 55.5 128.7 C 55.1 129 54.6 129.5 54 130.1 C 52.7 131.3 50.9 133.1 49 135.4 C 47.1 137.7 45 140.6 43 143.8 C 42 145.4 41 147.1 40.1 148.9 C 39.1 150.6 38.2 152.4 37.3 154.2 C 35.5 157.8 33.8 161.5 32.3 165 C 31.6 166.7 30.8 168.4 30.2 170 C 29.5 171.6 28.9 173.1 28.4 174.6 C 27.3 177.4 26.5 179.8 26 181.5 C 25.7 182.3 25.5 183 25.4 183.5 C 25.3 184 25.2 184.2 25.2 184.2 C 25.2 184.2 25.3 184 25.4 183.5 C 25.5 183 25.7 182.4 25.9 181.5 C 26.4 179.8 27.1 177.4 28.1 174.5 C 29.1 171.6 30.4 168.3 31.8 164.8 C 33.3 161.3 34.9 157.6 36.7 154 C 37.6 152.2 38.5 150.4 39.5 148.7 C 40.5 146.9 41.5 145.3 42.5 143.6 C 44.5 140.4 46.7 137.6 48.7 135.3 C 50.7 133 52.6 131.3 53.9 130.1 C 54.6 129.5 55.1 129.1 55.5 128.8 C 55.8 128.4 56 128.2 56 128.2 Z " stroke-width="1" fill="#3FADC4"/>
            </g>
          </g>
          <g id="Shape">
            <path d="M 89.7 126.5 C 89.7 126.5 80.9 131.1 72.2 130.1 C 63.6 129.1 56.9 126.5 56.9 126.5 C 56.9 126.5 56 127 56.1 128.2 C 56.1 128.2 65.2 133.6 79.2 132 C 89.3 130.8 90.4 127.6 90.4 127.6 C 90.4 127.6 90.3 126.3 89.7 126.5 Z " fill="#D9A64A" stroke-width="1"/>
            <path d="M 86.6 130.3 C 86.6 130.3 86.1 130.5 85.3 130.7 C 84.5 130.9 83.3 131.3 81.8 131.6 C 81.1 131.8 80.3 131.9 79.4 132 C 78.6 132.1 77.7 132.2 76.7 132.3 C 75.8 132.3 74.8 132.4 73.8 132.4 C 72.8 132.4 71.8 132.4 70.8 132.4 L 69.3 132.3 C 68.8 132.2 68.3 132.2 67.8 132.1 C 66.8 132 65.9 131.8 65 131.6 C 64.1 131.4 63.2 131.2 62.4 130.9 C 62 130.8 61.6 130.7 61.2 130.5 C 60.8 130.4 60.5 130.2 60.1 130.1 C 59.4 129.8 58.8 129.6 58.2 129.3 C 57.7 129 57.2 128.8 56.8 128.6 C 56 128.2 55.6 128 55.6 128 C 55.6 128 56.1 128.2 56.9 128.5 C 57.3 128.7 57.8 128.9 58.3 129.1 C 58.9 129.3 59.5 129.5 60.2 129.7 C 60.5 129.8 60.9 129.9 61.3 130.1 C 61.7 130.2 62.1 130.3 62.5 130.4 C 63.3 130.6 64.2 130.8 65.1 131 C 66 131.2 66.9 131.3 67.9 131.4 C 68.4 131.5 68.9 131.5 69.3 131.6 L 70.8 131.7 C 71.8 131.8 72.7 131.8 73.7 131.8 C 74.7 131.8 75.6 131.7 76.5 131.7 C 77.4 131.6 78.3 131.6 79.1 131.5 C 79.9 131.4 80.7 131.3 81.4 131.2 C 82.9 131 84.1 130.7 84.9 130.5 C 86.2 130.5 86.6 130.3 86.6 130.3 Z " fill="#A67939" stroke-width="1"/>
            <path d="M 87.9 127.3 C 87.9 127.3 86.7 128 84.8 128.7 C 84.3 128.9 83.8 129 83.2 129.2 C 82.6 129.3 82 129.5 81.4 129.7 C 80.1 130 78.8 130.2 77.4 130.3 C 76.7 130.4 76 130.4 75.4 130.4 C 74.7 130.4 74.1 130.4 73.4 130.4 C 72.8 130.4 72.1 130.3 71.6 130.2 C 71 130.2 70.5 130 70 130 C 69.5 129.9 69 129.8 68.6 129.7 C 68.2 129.6 67.8 129.5 67.6 129.4 C 67 129.2 66.7 129.1 66.7 129.1 C 66.7 129.1 67 129.1 67.6 129.2 C 67.9 129.2 68.2 129.3 68.7 129.4 C 69.1 129.5 69.6 129.5 70.1 129.5 C 70.6 129.6 71.1 129.6 71.7 129.6 C 72.3 129.6 72.9 129.7 73.5 129.7 C 74.1 129.7 74.8 129.7 75.4 129.7 C 76.1 129.7 76.7 129.7 77.4 129.6 C 78.7 129.5 80.1 129.3 81.3 129.1 C 82.5 128.9 83.7 128.6 84.7 128.3 C 86.6 127.9 87.9 127.3 87.9 127.3 Z " fill="#A67939" stroke-width="1"/>
          </g>
        </g>
        <g id="Group" fill-rule="nonzero">
          <g id="Shape">
            <g>
              <path d="M 82.9 27.8 C 82.9 27.8 82.6 18.8 75.6 18.9 C 75.6 18.9 73.5 17.1 71.4 18.7 C 71.4 18.7 68.8 17 67.4 18.9 C 67.4 18.9 64.6 17.5 63.9 19.2 C 63.9 19.2 60.3 18 59.2 20.7 C 59.2 20.7 55 19.6 54.5 23.1 C 54.5 23.1 51.7 23.8 51.9 26.4 C 51.9 26.4 48.6 27.3 50 29.9 C 50 29.9 47 30.2 47.9 33.5 C 47.9 33.5 46 35.6 47.5 37 C 47.5 37 45.7 39.6 48.1 40.3 C 48.1 40.3 47.2 43.1 49.9 42.8 C 49.9 42.8 51.3 45.3 54.1 43.8 " fill="#261C17" stroke-width="1"/>
              <path d="M 71.5 18.7 C 71.5 18.7 72 18.8 72.7 19.1 C 73 19.3 73.4 19.5 73.8 19.9 C 74.2 20.2 74.5 20.6 74.8 21.1 C 75 21.5 75.3 22 75.4 22.5 C 75.6 23 75.7 23.4 75.7 23.8 C 75.8 24.2 75.8 24.5 75.8 24.7 C 75.8 24.9 75.8 25 75.8 25 C 75.8 25 75.7 24.9 75.7 24.7 C 75.6 24.5 75.5 24.2 75.4 23.9 C 75.3 23.6 75.1 23.2 74.9 22.8 C 74.7 22.4 74.5 22 74.2 21.6 C 73.7 20.8 73 20.1 72.5 19.6 C 72 19 71.5 18.7 71.5 18.7 Z " fill="#120D0B" stroke-width="1"/>
              <path d="M 67.5 18.9 C 67.5 18.9 67.6 18.8 67.7 18.9 C 67.9 18.9 68.1 19 68.3 19.2 C 68.7 19.5 69.2 20 69.6 20.6 C 70 21.2 70.2 21.8 70.4 22.3 C 70.5 22.8 70.6 23.1 70.6 23.1 C 70.6 23.1 70.4 22.8 70.1 22.4 C 69.8 22 69.4 21.4 69.1 20.9 C 68.8 20.3 68.4 19.8 68.1 19.4 C 68 19.2 67.8 19.1 67.7 19 C 67.6 18.9 67.5 18.9 67.5 18.9 Z " fill="#120D0B" stroke-width="1"/>
              <path d="M 64 19.2 C 64 19.2 64.1 19.2 64.3 19.2 C 64.5 19.3 64.8 19.3 65.1 19.5 C 65.7 19.8 66.4 20.5 66.9 21.4 C 67.1 21.8 67.4 22.2 67.5 22.6 C 67.7 23 67.8 23.4 67.9 23.7 C 68 24.1 68 24.4 68.1 24.6 C 68.1 24.8 68.1 24.9 68.1 24.9 C 68.1 24.9 68 24.9 67.9 24.7 C 67.8 24.5 67.7 24.3 67.5 24 C 67.3 23.7 67.2 23.3 67 23 C 66.8 22.6 66.6 22.2 66.4 21.9 C 65.9 21.1 65.4 20.5 64.9 20 C 64.5 19.4 64 19.2 64 19.2 Z " fill="#120D0B" stroke-width="1"/>
              <path d="M 75.7 18.9 C 75.7 18.9 75.9 18.9 76.1 19.1 C 76.3 19.2 76.6 19.4 76.8 19.7 C 77 20 77.1 20.3 77.2 20.5 C 77.3 20.8 77.2 20.9 77.2 20.9 C 77.2 20.9 77 20.8 76.8 20.7 C 76.6 20.5 76.4 20.3 76.2 20.1 C 76 19.9 75.9 19.6 75.8 19.4 C 75.7 19.1 75.7 18.9 75.7 18.9 Z " fill="#120D0B" stroke-width="1"/>
              <path d="M 59.3 20.7 C 59.3 20.7 59.8 20.7 60.6 21 C 61 21.2 61.4 21.4 61.8 21.7 C 62.2 22 62.6 22.4 62.9 22.8 C 63.6 23.6 64.1 24.5 64.3 25.3 C 64.4 25.7 64.5 26 64.6 26.2 C 64.7 26.4 64.7 26.5 64.7 26.5 C 64.7 26.5 64.6 26.4 64.5 26.2 C 64.4 26 64.2 25.7 64 25.4 C 63.8 25.1 63.6 24.7 63.3 24.3 C 63 24 62.7 23.6 62.4 23.3 C 61.8 22.5 61 21.9 60.4 21.4 C 59.8 21 59.3 20.7 59.3 20.7 Z " fill="#120D0B" stroke-width="1"/>
              <path d="M 54.6 23.2 C 54.6 23.2 54.8 23 55.1 22.9 C 55.5 22.8 56 22.9 56.4 23 C 56.8 23.2 57.2 23.5 57.4 23.8 C 57.6 24.1 57.7 24.3 57.7 24.3 C 57.7 24.3 57.6 24.3 57.5 24.3 C 57.4 24.3 57.3 24.2 57.1 24.2 C 56.8 24.1 56.4 23.9 56.1 23.7 C 55.7 23.5 55.4 23.4 55.1 23.3 C 54.9 23.2 54.6 23.2 54.6 23.2 Z " fill="#120D0B" stroke-width="1"/>
              <path d="M 58.2 23.4 C 58.2 23.4 58.4 23.4 58.7 23.5 C 59 23.6 59.3 23.8 59.6 24.1 C 59.9 24.4 60.1 24.7 60.1 25 C 60.2 25.3 60.1 25.5 60.1 25.5 C 60.1 25.5 60.1 25.5 60 25.4 C 59.9 25.3 59.8 25.3 59.7 25.2 C 59.5 25 59.3 24.8 59 24.5 C 58.8 24.2 58.5 24 58.4 23.8 C 58.3 23.6 58.2 23.4 58.2 23.4 Z " fill="#120D0B" stroke-width="1"/>
              <path d="M 52 26.4 C 52 26.4 52.4 26.5 53 26.8 C 53.6 27.1 54.4 27.5 55 28.1 C 55.3 28.4 55.6 28.7 55.9 29.1 C 56.1 29.4 56.3 29.8 56.5 30.1 C 56.6 30.4 56.7 30.7 56.7 30.9 C 56.7 31.1 56.7 31.2 56.7 31.2 C 56.7 31.2 56.6 31.1 56.5 30.9 C 56.4 30.7 56.3 30.5 56.1 30.2 C 55.9 29.9 55.7 29.7 55.4 29.4 C 55.1 29.1 54.8 28.8 54.5 28.5 C 53.9 27.9 53.2 27.4 52.7 27 C 52.3 26.7 52 26.4 52 26.4 Z " fill="#120D0B" stroke-width="1"/>
              <path d="M 50.1 29.9 C 50.1 29.9 50.5 30 51.1 30.3 C 51.6 30.6 52.3 31.2 52.8 31.8 C 53.1 32.1 53.3 32.5 53.5 32.8 C 53.7 33.1 53.9 33.5 54 33.8 C 54.2 34.4 54.3 34.8 54.3 34.8 C 54.3 34.8 54.2 34.7 54.1 34.6 C 54 34.5 53.8 34.2 53.7 34 C 53.3 33.5 52.9 32.9 52.4 32.3 C 51.9 31.7 51.4 31.1 50.9 30.7 C 50.4 30.2 50.1 29.9 50.1 29.9 Z " fill="#120D0B" stroke-width="1"/>
              <path d="M 52.2 30.3 C 52.2 30.3 52.4 30.3 52.7 30.4 C 53 30.5 53.3 30.7 53.5 30.9 C 53.7 31.2 53.9 31.5 54 31.7 C 54 32 54 32.2 54 32.2 C 54 32.2 54 32.2 53.9 32.1 C 53.8 32.1 53.7 32 53.6 31.9 C 53.4 31.7 53.2 31.5 52.9 31.3 C 52.7 31.1 52.5 30.8 52.3 30.6 C 52.3 30.4 52.2 30.3 52.2 30.3 Z " fill="#120D0B" stroke-width="1"/>
              <path d="M 70.7 21.4 C 70.7 21.4 70.9 21.5 71.1 21.7 C 71.3 21.9 71.6 22.2 71.8 22.6 C 72 23 72 23.4 72 23.7 C 72.1 24 72 24.2 72 24.2 C 72 24.2 72 24.2 71.9 24.1 C 71.9 24 71.8 23.9 71.7 23.8 C 71.6 23.5 71.4 23.2 71.2 22.9 C 71.1 22.6 70.9 22.2 70.8 21.9 C 70.8 21.6 70.7 21.4 70.7 21.4 Z " fill="#120D0B" stroke-width="1"/>
            </g>
            <g>
              <path d="M 51.6 43.7 C 51.6 43.7 58.4 27.3 73.7 27.4 C 79.2 27.4 83.8 28.5 83.8 28.5 C 83.8 28.5 80.8 24.4 70.6 25.2 C 62 25.9 53.4 29.5 51.6 43.7 Z " fill="#D9A64A" stroke-width="1"/>
              <g>
                <path d="M 73.2 28 C 73.2 28 74.3 26.7 74.3 25.9 C 74.3 25.9 73.3 24.3 72.5 24.2 C 72.5 24.2 71.4 25.6 71.3 26.4 C 71.3 26.5 72.2 27.8 73.2 28 Z " fill="#FFB83B" stroke-width="1"/>
                <path d="M 73 27.7 C 73 27.7 73.9 26.4 73.9 25.9 C 73.9 25.9 73 24.8 72.5 24.6 C 72.5 24.6 71.8 25.6 71.7 26.4 C 71.7 26.4 72.3 27.2 73 27.7 Z " fill="#D12A2A" stroke-width="1"/>
              </g>
            </g>
          </g>
          <g>
            <g id="Shape">
              <path d="M 90 45.1 C 90 45.1 88.5 53.3 91.7 55 C 94.9 56.7 94.9 59.6 93.4 60.3 C 93.4 60.3 94.6 58.7 93.3 57.7 C 93.3 57.7 93.9 59.9 90.8 60.8 C 87.7 61.7 90.6 66 93.4 64.1 C 93.4 64.1 92.8 65.3 91.6 65.3 C 91.6 65.3 94.6 65 94.9 66.8 C 95.2 68.5 93.4 71.5 88.6 68.9 C 88.6 68.9 90.9 69.4 91.8 68.7 C 91.8 68.7 90.7 68.9 90.3 68.4 C 90.3 68.4 95.4 68.1 93.5 66.8 C 91.6 65.4 86 66.6 87.1 63.2 C 88.2 59.8 92.5 60.2 92 58.6 C 91.5 57 88.3 56.4 88.3 53.6 C 88.3 53.6 87.2 56.5 90.7 58 C 90.7 58 86.6 58.2 87.5 52.8 C 88.4 47.4 90 45.1 90 45.1 Z " fill="#30231D" stroke-width="1"/>
              <path d="M 88.3 53.5 C 88.3 53.5 88.3 53.7 88.4 53.9 C 88.5 54.2 88.6 54.5 88.9 54.9 C 89.2 55.3 89.5 55.7 89.9 56 C 90.1 56.2 90.4 56.3 90.6 56.5 L 91 56.7 L 91.4 57 C 91.6 57.2 91.9 57.5 92.1 57.8 C 92.3 58.1 92.3 58.6 92.2 58.9 C 92.1 59.2 91.8 59.5 91.6 59.6 C 91.4 59.8 91.1 59.9 90.9 60 C 90.5 60.2 90.1 60.3 89.8 60.3 C 89.5 60.3 89.4 60.3 89.4 60.3 C 89.4 60.3 90 60.1 90.8 59.6 C 91.2 59.3 91.6 59 91.7 58.6 C 91.8 58.4 91.7 58.2 91.6 58 C 91.5 57.8 91.3 57.6 91.1 57.4 L 90.7 57.1 L 90.3 56.8 C 90 56.6 89.8 56.4 89.6 56.2 C 89.2 55.8 88.8 55.3 88.6 54.8 C 88.4 54.4 88.3 53.9 88.3 53.7 C 88.2 53.7 88.3 53.5 88.3 53.5 Z " fill="#120D0B" stroke-width="1"/>
              <path d="M 91.1 66 C 91.1 66 90.7 66.1 90.2 66.1 C 89.6 66.1 88.8 66.1 88.1 65.7 C 87.7 65.5 87.4 65.3 87.1 65 C 86.8 64.7 86.7 64.3 86.8 64 C 86.8 63.8 86.8 63.7 86.9 63.6 C 86.9 63.5 87 63.4 87 63.3 C 87.1 63.1 87.1 63.1 87.1 63.1 C 87.1 63.1 87.1 63.2 87.1 63.4 C 87.1 63.5 87.1 63.6 87.1 63.7 C 87.1 63.8 87.2 63.9 87.2 64 C 87.2 64.1 87.3 64.2 87.3 64.4 C 87.4 64.5 87.5 64.6 87.6 64.7 C 87.8 64.9 88.1 65.1 88.4 65.2 C 89 65.5 89.7 65.7 90.3 65.8 C 90.8 65.9 91.1 66 91.1 66 Z " fill="#120D0B" stroke-width="1"/>
              <path d="M 91.7 55 C 91.7 55 91.5 55 91.2 54.8 C 91.1 54.7 90.9 54.6 90.8 54.4 C 90.6 54.2 90.5 54 90.3 53.8 C 90.2 53.6 90 53.3 89.9 53 C 89.8 52.7 89.7 52.4 89.6 52 C 89.6 51.7 89.5 51.3 89.5 51 C 89.5 50.6 89.5 50.3 89.5 49.9 C 89.5 49.2 89.6 48.5 89.7 47.8 C 89.7 47.5 89.8 47.2 89.9 46.9 C 90 46.6 90 46.3 90.1 46.1 C 90.4 45.1 90.7 44.4 90.7 44.4 C 90.7 44.4 90.6 45.1 90.5 46.2 C 90.5 46.7 90.4 47.3 90.3 48 C 90.2 48.6 90.2 49.3 90.2 50 C 90.2 50.7 90.2 51.4 90.3 52 C 90.4 52.3 90.4 52.6 90.5 52.9 C 90.6 53.2 90.6 53.4 90.7 53.7 C 90.8 53.9 90.9 54.1 91 54.3 C 91.1 54.5 91.2 54.6 91.3 54.7 C 91.5 54.9 91.7 55 91.7 55 Z " fill="#120D0B" stroke-width="1"/>
            </g>
            <g>
              <g id="Shape">
                <path d="M 82.8 30.8 C 95.2 35.9 91.9 55.3 91.9 55.3 C 91.9 55.3 95.1 60.2 88.4 70.8 C 82.2 80.7 63.8 74.7 58.8 64.9 C 55.5 58.4 52.8 42.8 61.7 33.1 C 66.8 27.5 74.4 27.3 82.8 30.8 Z " fill="#875137" stroke-width="1"/>
                <path d="M 81.4 75.6 C 81.4 75.6 80.3 76 78.6 76.1 C 77.8 76.1 76.8 76.2 75.7 76 C 75.2 76 74.6 75.9 74.1 75.8 C 73.5 75.7 73 75.6 72.5 75.4 C 72 75.2 71.4 75 70.9 74.9 C 70.4 74.7 69.9 74.5 69.4 74.3 C 68.9 74.1 68.5 73.8 68 73.6 C 67.6 73.4 67.2 73.1 66.8 72.9 C 66.1 72.5 65.5 72 65.1 71.7 C 64.7 71.4 64.5 71.2 64.5 71.2 C 64.5 71.2 64.7 71.3 65.2 71.6 C 65.4 71.7 65.7 71.9 66 72 C 66.3 72.2 66.6 72.3 67 72.5 C 67.4 72.7 67.8 72.9 68.2 73.1 C 68.6 73.3 69.1 73.5 69.6 73.7 C 70.1 73.9 70.6 74.1 71.1 74.3 C 71.6 74.5 72.1 74.6 72.7 74.8 C 73.2 74.9 73.8 75.1 74.3 75.2 C 74.8 75.3 75.4 75.4 75.9 75.5 C 76.9 75.6 77.9 75.7 78.7 75.8 C 80.3 75.7 81.4 75.6 81.4 75.6 Z " fill="#613A27" stroke-width="1"/>
                <path d="M 91.9 55.3 C 91.9 55.3 92.1 55.5 92.3 55.9 C 92.5 56.3 92.7 56.9 92.8 57.7 C 92.9 58.1 92.9 58.5 92.9 59 C 92.9 59.4 92.9 59.9 92.9 60.4 C 92.8 60.9 92.8 61.4 92.7 61.9 C 92.6 62.4 92.5 62.9 92.3 63.4 C 92.2 63.9 92 64.4 91.8 64.9 C 91.6 65.4 91.4 65.8 91.2 66.3 C 90.8 67.2 90.3 68 89.9 68.6 C 89.5 69.3 89.1 69.8 88.9 70.2 C 88.6 70.6 88.5 70.8 88.5 70.8 C 88.5 70.8 88.6 70.6 88.8 70.2 C 89 69.8 89.3 69.2 89.6 68.5 C 89.8 68.2 89.9 67.8 90.1 67.4 C 90.3 67 90.4 66.6 90.6 66.1 C 90.8 65.7 91 65.2 91.1 64.7 C 91.3 64.2 91.4 63.8 91.6 63.3 C 91.8 62.8 91.9 62.3 92 61.8 C 92.1 61.3 92.2 60.8 92.3 60.4 C 92.4 59.5 92.5 58.6 92.4 57.8 C 92.4 57 92.3 56.4 92.1 56 C 92 55.5 91.9 55.3 91.9 55.3 Z " fill="#613A27" stroke-width="1"/>
              </g>
              <path d="M 82.4 53.3 C 82.4 53.3 82.8 53.9 83.4 54.9 C 83.9 55.9 84.6 57.2 85.2 58.5 C 85.3 58.8 85.5 59.2 85.6 59.5 C 85.7 59.9 85.8 60.2 85.9 60.6 C 85.9 61 85.8 61.4 85.7 61.7 C 85.5 62 85.3 62.2 85.1 62.4 C 84.7 62.8 84.2 63 83.9 63.1 C 83.6 63.2 83.4 63.3 83.4 63.3 C 83.4 63.3 83.6 63.2 83.8 63 C 84.1 62.8 84.4 62.5 84.8 62.1 C 85.1 61.7 85.4 61.2 85.3 60.6 C 85.3 60.3 85.1 60 85 59.7 C 84.9 59.4 84.7 59 84.6 58.7 C 84 57.4 83.5 56 83.1 55 C 82.7 54 82.4 53.3 82.4 53.3 Z " id="Shape" fill="#613A27" stroke-width="1"/>
              <path d="M 82.8 61.8 C 82.8 61.8 82.7 61.9 82.6 62.1 C 82.5 62.3 82.3 62.4 82.1 62.6 C 81.9 62.7 81.7 62.8 81.5 62.9 C 81.4 62.9 81.3 62.9 81.3 63 C 81.2 63 81.2 63 81.2 63 C 81.2 63 81.2 62.8 81.3 62.6 C 81.4 62.4 81.6 62.2 81.8 62 C 82 61.8 82.3 61.8 82.5 61.8 C 82.7 61.7 82.8 61.8 82.8 61.8 Z " id="Shape" fill="#613A27" stroke-width="1"/>
              <path d="M 78.7 50.8 C 78.7 50.8 78.6 50.8 78.3 50.8 C 78 50.8 77.7 50.8 77.2 50.8 C 76.3 50.7 75.2 50.5 74 50.2 C 72.9 49.9 71.8 49.5 71 49.1 C 70.2 48.7 69.7 48.5 69.7 48.5 C 69.7 48.5 70.3 48.6 71.1 48.8 C 72 49 73.1 49.3 74.2 49.6 C 75.3 49.9 76.4 50.2 77.3 50.5 C 78.1 50.7 78.7 50.8 78.7 50.8 Z " id="Shape" fill="#30231D" stroke-width="1"/>
              <g>
                <ellipse id="Oval" transform="matrix(0.005546296314577314,-0.9999846191803107,0.9999846191803107,0.005546296314577314,71.54651593580076,57.166529527735825)" cx="3.876452" cy="3.30848732" rx="2.40003691" ry="1.00001538" stroke-width="1" fill="#30231D"/>
                <path d="M 77.1 51.8 C 77.1 51.8 76.7 51.6 76.2 51.4 C 75.6 51.2 74.9 51 74.1 51.1 C 73.7 51.1 73.4 51.3 73 51.4 C 72.8 51.5 72.7 51.6 72.5 51.6 C 72.4 51.7 72.2 51.8 72.1 51.9 C 71.8 52 71.6 52.2 71.5 52.3 C 71.3 52.4 71.3 52.5 71.3 52.5 C 71.3 52.5 71.3 52.4 71.5 52.2 C 71.6 52.1 71.7 51.8 72 51.6 C 72.2 51.3 72.5 51.1 72.9 50.9 C 73.1 50.8 73.3 50.7 73.5 50.6 C 73.7 50.6 73.9 50.5 74.2 50.5 C 74.4 50.5 74.7 50.5 74.9 50.5 C 75.1 50.5 75.3 50.6 75.5 50.6 C 75.9 50.7 76.3 50.9 76.5 51.1 C 76.9 51.5 77.1 51.8 77.1 51.8 Z " id="Shape" stroke-width="1" fill="#30231D"/>
              </g>
              <g>
                <ellipse id="Oval" transform="matrix(0.005546296314577314,-0.9999846191803107,0.9999846191803107,0.005546296314577314,84.17875536169731,55.78828755659662)" cx="2.99961787" cy="2.80426877" rx="2.40003691" ry="1.00001538" stroke-width="1" fill="#30231D"/>
                <path d="M 89.3 51.6 C 89.3 51.6 89 51.4 88.5 51.2 C 88.3 51.1 88 51 87.6 50.9 C 87.3 50.8 87 50.8 86.6 50.9 C 86.3 50.9 85.9 51 85.6 51.2 C 85.5 51.3 85.3 51.3 85.2 51.4 C 85.1 51.5 84.9 51.6 84.8 51.6 C 84.6 51.7 84.4 51.9 84.2 52 C 84.1 52.1 84 52.1 84 52.1 C 84 52.1 84 52 84.1 51.9 C 84.2 51.8 84.3 51.5 84.5 51.3 C 84.7 51.1 85 50.8 85.3 50.6 C 85.5 50.5 85.6 50.4 85.8 50.3 C 86 50.2 86.2 50.2 86.4 50.2 C 86.8 50.2 87.2 50.2 87.6 50.3 C 88 50.4 88.3 50.6 88.5 50.8 C 89.1 51.2 89.3 51.6 89.3 51.6 Z " id="Shape" stroke-width="1" fill="#30231D"/>
              </g>
              <path d="M 90.1 48.6 C 90.1 48.6 90 48.7 89.9 48.8 C 89.7 48.9 89.5 49.1 89.2 49.3 C 88.6 49.6 87.8 50 86.9 50.3 C 86 50.6 85.1 50.7 84.5 50.8 C 83.8 50.9 83.4 50.9 83.4 50.9 C 83.4 50.9 83.8 50.7 84.5 50.5 C 85.1 50.3 86 50 86.8 49.7 C 87.7 49.5 88.5 49.2 89.1 49 C 89.7 48.7 90.1 48.6 90.1 48.6 Z " id="Shape" fill="#30231D" stroke-width="1"/>
            </g>
            <g id="Shape">
              <path d="M 92.1 46.6 C 92.1 46.6 90.7 33.6 79.1 38.7 C 79.1 38.7 63 31.2 64.4 54.5 C 64.4 54.5 57 52.2 58.7 64.8 C 58.7 64.8 48.8 57.7 51.6 43.7 C 54.2 31.2 64.1 25.3 72.1 27.5 C 72.1 27.5 77.2 25.8 83.1 28 C 88.4 30 92.9 35.5 92.1 46.6 Z " fill="#30231D" stroke-width="1"/>
              <path d="M 79.6 40.7 C 79.6 40.7 79.4 40.1 79.1 39.2 C 78.8 38.3 78.4 37.1 77.9 35.9 C 77.4 34.7 76.8 33.6 76.3 32.8 C 76.1 32.4 75.9 32 75.7 31.8 C 75.5 31.6 75.5 31.4 75.5 31.4 C 75.5 31.4 75.6 31.5 75.8 31.7 C 76 31.9 76.3 32.2 76.6 32.6 C 76.9 33 77.3 33.4 77.6 34 C 77.9 34.5 78.2 35.1 78.5 35.7 C 79 36.9 79.3 38.2 79.5 39.1 C 79.6 40.1 79.6 40.7 79.6 40.7 Z " fill="#875137" stroke-width="1"/>
              <path d="M 77.9 35.9 C 77.9 35.9 77.5 35.6 76.8 35.3 C 76.5 35.2 76.1 35 75.7 34.9 C 75.3 34.8 74.8 34.7 74.4 34.7 C 73.9 34.7 73.5 34.7 73.1 34.7 C 72.7 34.8 72.3 34.8 71.9 34.9 C 71.5 35 71.3 35.1 71.1 35.1 C 70.9 35.2 70.8 35.2 70.8 35.2 C 70.8 35.2 70.9 35.1 71.1 35 C 71.3 34.9 71.5 34.7 71.9 34.5 C 72.2 34.3 72.6 34.2 73.1 34.1 C 73.3 34.1 73.6 34 73.8 34 C 74.1 34 74.3 34 74.6 34 C 75.1 34 75.6 34.1 76.1 34.3 C 76.5 34.5 76.9 34.7 77.2 34.9 C 77.7 35.5 77.9 35.9 77.9 35.9 Z " fill="#120D0B" stroke-width="1"/>
              <path d="M 76.6 33.2 C 76.6 33.2 76.4 33.1 76.1 33.1 C 75.8 33 75.4 32.9 75 32.9 C 74.6 32.8 74.2 32.8 73.9 32.8 C 73.6 32.8 73.3 32.8 73.3 32.8 C 73.3 32.8 73.5 32.6 73.8 32.5 C 74 32.4 74.2 32.4 74.4 32.3 C 74.6 32.3 74.9 32.3 75.1 32.3 C 75.6 32.4 76 32.6 76.3 32.9 C 76.5 33 76.6 33.2 76.6 33.2 Z " fill="#120D0B" stroke-width="1"/>
              <path d="M 74.3 29 C 74.3 29 73.6 28.5 72.5 28 C 72.2 27.9 71.9 27.8 71.6 27.7 C 71.3 27.6 70.9 27.5 70.5 27.5 C 70.1 27.4 69.7 27.4 69.3 27.4 C 68.9 27.4 68.5 27.4 68.1 27.4 C 67.7 27.4 67.3 27.4 66.9 27.5 C 66.5 27.6 66.1 27.6 65.7 27.7 C 65.3 27.8 65 27.9 64.6 28 C 64.3 28.1 63.9 28.2 63.6 28.3 C 63 28.5 62.5 28.7 62.2 28.8 C 61.9 28.9 61.7 29 61.7 29 C 61.7 29 61.9 28.9 62.2 28.7 C 62.5 28.5 63 28.2 63.5 27.9 C 63.8 27.8 64.1 27.6 64.4 27.5 C 64.7 27.4 65.1 27.3 65.5 27.1 C 65.9 27 66.3 26.9 66.7 26.8 C 67.1 26.7 67.6 26.7 68 26.7 C 68.4 26.7 68.9 26.7 69.3 26.7 C 69.7 26.8 70.1 26.8 70.5 26.9 C 70.9 27 71.3 27.1 71.6 27.3 C 72 27.4 72.3 27.6 72.6 27.7 C 73.7 28.4 74.3 29 74.3 29 Z " fill="#120D0B" stroke-width="1"/>
              <path d="M 58.8 64.8 C 58.8 64.8 57.8 64.2 56.5 63 C 56.2 62.7 55.9 62.3 55.5 62 C 55.2 61.6 54.8 61.2 54.5 60.7 C 54.2 60.2 53.9 59.8 53.6 59.3 C 53.3 58.8 53 58.3 52.8 57.7 C 52.5 57.2 52.4 56.6 52.2 56.1 C 52 55.5 51.9 55 51.7 54.5 C 51.6 54 51.5 53.4 51.4 52.9 C 51.3 52.4 51.3 51.9 51.2 51.5 C 51.2 51.1 51.1 50.7 51.1 50.3 C 51.1 49.9 51.1 49.6 51.1 49.4 C 51.1 48.9 51.1 48.6 51.1 48.6 C 51.1 48.6 51.1 48.9 51.2 49.4 C 51.2 49.7 51.3 50 51.3 50.3 C 51.3 50.7 51.4 51 51.5 51.5 C 51.6 51.9 51.6 52.4 51.8 52.9 C 51.9 53.4 52.1 53.9 52.2 54.4 C 52.4 54.9 52.5 55.4 52.7 56 C 52.9 56.5 53.1 57.1 53.4 57.6 C 53.6 58.1 53.9 58.7 54.2 59.1 C 54.5 59.6 54.8 60.1 55 60.5 C 55.6 61.4 56.2 62.2 56.7 62.9 C 57.9 64.1 58.8 64.8 58.8 64.8 Z " fill="#120D0B" stroke-width="1"/>
              <path d="M 81.9 29.9 C 81.9 29.9 81.4 29.8 80.8 29.7 C 80.1 29.6 79.2 29.5 78.4 29.5 C 78 29.5 77.5 29.5 77.1 29.6 C 76.9 29.6 76.7 29.7 76.5 29.7 C 76.3 29.8 76.2 29.8 76 29.9 C 75.9 30 75.7 30 75.6 30.1 C 75.5 30.2 75.4 30.2 75.3 30.3 C 75.1 30.4 75 30.5 75 30.5 C 75 30.5 75.1 30.4 75.2 30.2 C 75.3 30.1 75.3 30 75.4 29.9 C 75.5 29.8 75.6 29.7 75.8 29.6 C 76.1 29.4 76.5 29.2 76.9 29.1 C 77.1 29.1 77.4 29 77.6 29 C 77.8 29 78.1 29 78.3 29 C 79.3 29 80.2 29.3 80.8 29.5 C 81.5 29.6 81.9 29.9 81.9 29.9 Z " fill="#120D0B" stroke-width="1"/>
              <path d="M 85.1 32.9 C 85.1 32.9 84.5 32.6 83.7 32.3 C 83.3 32.1 82.8 32 82.3 31.8 C 81.8 31.6 81.2 31.5 80.6 31.4 C 80.3 31.3 80 31.3 79.8 31.3 C 79.5 31.3 79.2 31.3 79 31.3 C 78.7 31.3 78.5 31.4 78.2 31.4 C 78 31.5 77.7 31.5 77.5 31.6 C 77.3 31.7 77.1 31.8 77 31.9 C 76.8 32 76.7 32.1 76.6 32.2 C 76.4 32.4 76.3 32.4 76.3 32.4 C 76.3 32.4 76.4 32.3 76.6 32.1 C 76.7 32 76.8 31.9 76.9 31.7 C 77 31.6 77.2 31.4 77.4 31.3 C 77.6 31.2 77.8 31.1 78.1 31 C 78.4 30.9 78.6 30.9 78.9 30.8 C 79.2 30.8 79.5 30.7 79.8 30.8 C 80.1 30.8 80.4 30.8 80.7 30.9 C 81.9 31.1 83.1 31.7 83.8 32.2 C 84.7 32.5 85.1 32.9 85.1 32.9 Z " fill="#120D0B" stroke-width="1"/>
              <path d="M 65.9 36.9 C 65.9 36.9 65.7 37.2 65.5 37.5 C 65.2 37.9 64.9 38.3 64.5 38.8 C 64.1 39.2 63.7 39.7 63.4 40 C 63.2 40.2 63.1 40.3 63 40.4 C 62.9 40.5 62.8 40.5 62.8 40.5 C 62.8 40.5 62.9 40.2 63.1 39.8 C 63.3 39.4 63.6 38.9 64 38.4 C 64.4 37.9 64.9 37.5 65.3 37.3 C 65.6 37 65.9 36.9 65.9 36.9 Z " fill="#452F26" stroke-width="1"/>
              <path d="M 64.1 37.2 C 64.1 37.2 64 37.3 63.9 37.5 C 63.8 37.7 63.6 37.9 63.5 38 C 63.3 38.2 63.1 38.3 63 38.4 C 62.8 38.5 62.7 38.6 62.7 38.6 C 62.7 38.6 62.7 38.4 62.7 38.2 C 62.7 38 62.9 37.7 63.1 37.5 C 63.3 37.3 63.6 37.2 63.8 37.1 C 63.9 37.2 64.1 37.2 64.1 37.2 Z " fill="#452F26" stroke-width="1"/>
              <path d="M 63.5 35.4 C 63.5 35.4 63.3 35.8 62.9 36.3 C 62.5 36.8 62 37.5 61.4 38.1 C 60.9 38.7 60.3 39.4 59.9 39.8 C 59.7 40 59.5 40.2 59.4 40.4 C 59.3 40.5 59.2 40.6 59.2 40.6 C 59.2 40.6 59.3 40.2 59.6 39.6 C 59.9 39 60.4 38.3 60.9 37.6 C 61.5 36.9 62.1 36.4 62.6 36 C 63.1 35.7 63.5 35.4 63.5 35.4 Z " fill="#452F26" stroke-width="1"/>
              <path d="M 60.5 36.8 C 60.5 36.8 60.5 37 60.4 37.2 C 60.3 37.4 60.2 37.7 60.1 37.9 C 59.9 38.1 59.7 38.3 59.5 38.5 C 59.3 38.6 59.1 38.7 59.1 38.7 C 59.1 38.7 59.1 38.5 59.2 38.3 C 59.3 38.1 59.4 37.8 59.5 37.6 C 59.7 37.4 59.9 37.2 60.1 37 C 60.4 36.8 60.5 36.8 60.5 36.8 Z " fill="#452F26" stroke-width="1"/>
              <path d="M 60.7 35.5 C 60.7 35.5 60.6 35.7 60.5 36 C 60.3 36.3 60.1 36.6 59.8 36.9 C 59.5 37.2 59.2 37.5 59 37.7 C 58.8 37.9 58.6 38 58.6 38 C 58.6 38 58.6 37.8 58.7 37.5 C 58.8 37.2 59 36.8 59.3 36.5 C 59.6 36.2 59.9 35.9 60.2 35.8 C 60.5 35.6 60.7 35.5 60.7 35.5 Z " fill="#452F26" stroke-width="1"/>
              <path d="M 60.9 33 C 60.9 33 60.6 33.3 60.1 33.7 C 59.7 34.1 59.1 34.7 58.6 35.3 C 58.3 35.6 58.1 35.9 57.8 36.2 C 57.6 36.5 57.3 36.8 57.1 37 C 56.9 37.2 56.7 37.4 56.6 37.6 C 56.5 37.7 56.4 37.8 56.4 37.8 C 56.4 37.8 56.5 37.4 56.8 36.8 C 57.1 36.2 57.5 35.5 58.1 34.8 C 58.7 34.1 59.3 33.6 59.9 33.3 C 60.5 33.1 60.9 33 60.9 33 Z " fill="#452F26" stroke-width="1"/>
              <path d="M 87 36.5 C 87 36.5 86.7 36.5 86.4 36.4 C 86 36.3 85.5 36.2 85.1 36 C 84.6 35.8 84.2 35.6 83.9 35.5 C 83.7 35.4 83.6 35.3 83.5 35.3 C 83.4 35.3 83.3 35.2 83.3 35.2 C 83.3 35.2 83.6 35.1 84 35.1 C 84.4 35.1 84.9 35.2 85.4 35.4 C 85.9 35.6 86.3 35.8 86.6 36.1 C 86.8 36.3 87 36.5 87 36.5 Z " fill="#452F26" stroke-width="1"/>
              <path d="M 86.7 34.8 C 86.7 34.8 86.5 34.8 86.3 34.8 C 86.1 34.8 85.8 34.8 85.6 34.7 C 85.1 34.6 84.7 34.2 84.7 34.2 C 84.7 34.2 84.8 34.1 85.1 34 C 85.3 33.9 85.6 34 85.9 34 C 86.2 34.1 86.4 34.2 86.6 34.4 C 86.6 34.7 86.7 34.8 86.7 34.8 Z " fill="#452F26" stroke-width="1"/>
              <path d="M 86.8 32.5 C 86.8 32.5 86.5 32.4 86.1 32.3 C 85.7 32.2 85.2 31.9 84.7 31.7 C 84.2 31.5 83.7 31.2 83.4 31.1 C 83.2 31 83.1 30.9 82.9 30.9 C 82.8 30.9 82.7 30.8 82.7 30.8 C 82.7 30.8 83 30.7 83.4 30.7 C 83.8 30.7 84.4 30.9 84.9 31.1 C 85.4 31.3 85.9 31.7 86.2 32 C 86.6 32.3 86.8 32.5 86.8 32.5 Z " fill="#452F26" stroke-width="1"/>
            </g>
            <g id="Shape">
              <path d="M 62.9 54.3 C 62.9 54.3 60.7 48.1 56.5 50.7 C 52.3 53.3 53.7 60.8 58.7 62.4 " fill="#875137" stroke-width="1"/>
              <path d="M 56.5 53.3 C 56.5 53.3 56.6 53.2 56.7 53 C 56.9 52.9 57.1 52.6 57.5 52.5 C 57.7 52.4 57.9 52.4 58.2 52.5 C 58.3 52.5 58.4 52.6 58.6 52.6 C 58.7 52.7 58.8 52.7 58.9 52.8 C 59.1 53 59.3 53.1 59.5 53.4 C 59.6 53.6 59.8 53.8 59.9 54.1 C 60 54.3 60.1 54.6 60.2 54.8 C 60.3 55 60.3 55.3 60.4 55.5 C 60.5 56 60.6 56.4 60.6 56.8 C 60.7 57.6 60.6 58.1 60.6 58.1 C 60.6 58.1 60.4 57.6 60.2 56.9 C 60.1 56.5 59.9 56.1 59.8 55.7 C 59.7 55.5 59.6 55.3 59.5 55 C 59.4 54.8 59.3 54.6 59.2 54.4 C 59.1 54.2 59 54 58.9 53.8 C 58.8 53.6 58.6 53.5 58.5 53.3 L 58.3 53.1 C 58.2 53.1 58.1 53 58.1 53 C 57.9 53 57.8 52.9 57.6 52.9 C 57.3 52.9 57 53 56.8 53.1 C 56.6 53.2 56.5 53.3 56.5 53.3 Z " fill="#613A27" stroke-width="1"/>
              <path d="M 59.9 54.9 C 59.9 54.9 59.6 55 59.3 55.2 C 59 55.4 58.6 55.6 58.2 56 C 58 56.2 57.9 56.4 57.7 56.5 C 57.6 56.7 57.4 56.9 57.3 57 C 57.2 57.2 57.1 57.3 57 57.4 C 56.9 57.5 56.9 57.6 56.9 57.6 C 56.9 57.6 56.9 57.5 56.9 57.4 C 56.9 57.3 56.9 57.1 56.9 56.9 C 57 56.5 57.2 55.9 57.6 55.5 C 57.8 55.3 58 55.1 58.3 55 C 58.5 54.9 58.8 54.8 59 54.8 C 59.7 54.8 59.9 54.9 59.9 54.9 Z " fill="#613A27" stroke-width="1"/>
            </g>
            <g id="Shape">
              <path d="M 64.5 45 C 64.5 45 63 53.2 66.2 54.9 C 69.4 56.6 69.4 59.5 67.9 60.2 C 67.9 60.2 69.1 58.6 67.8 57.6 C 67.8 57.6 68.4 59.8 65.3 60.7 C 62.2 61.6 65.1 65.9 67.9 64 C 67.9 64 67.3 65.2 66.1 65.2 C 66.1 65.2 69.1 64.9 69.4 66.7 C 69.7 68.4 67.9 71.4 63.1 68.8 C 63.1 68.8 65.4 69.3 66.3 68.6 C 66.3 68.6 65.2 68.8 64.8 68.3 C 64.8 68.3 69.9 68 68 66.7 C 66.1 65.3 60.5 66.5 61.6 63.1 C 62.7 59.7 67 60.1 66.5 58.5 C 65.9 56.8 62.8 56.3 62.8 53.5 C 62.8 53.5 61.7 56.4 65.2 57.9 C 65.2 57.9 61.1 58.1 62 52.7 C 62.9 47.1 64.5 45 64.5 45 Z " fill="#30231D" stroke-width="1"/>
              <path d="M 62.8 53.4 C 62.8 53.4 62.8 53.6 62.9 53.8 C 63 54.1 63.1 54.4 63.4 54.8 C 63.7 55.2 64 55.6 64.4 55.9 C 64.6 56.1 64.9 56.2 65.1 56.4 L 65.5 56.6 L 65.9 56.9 C 66.1 57.1 66.4 57.4 66.6 57.7 C 66.8 58 66.8 58.5 66.7 58.8 C 66.6 59.1 66.3 59.4 66.1 59.5 C 65.9 59.7 65.6 59.8 65.4 59.9 C 65 60.1 64.6 60.2 64.3 60.2 C 64 60.2 63.9 60.2 63.9 60.2 C 63.9 60.2 64.5 60 65.3 59.5 C 65.7 59.2 66.1 58.9 66.2 58.5 C 66.3 58.3 66.2 58.1 66.1 57.9 C 66 57.7 65.8 57.5 65.6 57.3 L 65.2 57 L 64.8 56.7 C 64.5 56.5 64.3 56.3 64.1 56.1 C 63.7 55.7 63.3 55.2 63.1 54.7 C 62.9 54.3 62.8 53.8 62.8 53.6 C 62.8 53.5 62.8 53.4 62.8 53.4 Z " fill="#120D0B" stroke-width="1"/>
              <path d="M 65.7 65.9 C 65.7 65.9 65.3 66 64.8 66 C 64.2 66 63.4 66 62.7 65.6 C 62.3 65.4 62 65.2 61.7 64.9 C 61.4 64.6 61.3 64.2 61.4 63.9 C 61.4 63.7 61.4 63.6 61.5 63.5 C 61.5 63.4 61.6 63.3 61.6 63.2 C 61.7 63 61.7 63 61.7 63 C 61.7 63 61.7 63.1 61.7 63.3 C 61.7 63.4 61.7 63.5 61.7 63.6 C 61.7 63.7 61.8 63.8 61.8 63.9 C 61.8 64 61.9 64.1 61.9 64.3 C 62 64.4 62.1 64.5 62.2 64.6 C 62.4 64.8 62.7 65 63 65.1 C 63.6 65.4 64.3 65.6 64.9 65.7 C 65.3 65.8 65.7 65.9 65.7 65.9 Z " fill="#120D0B" stroke-width="1"/>
              <path d="M 66.2 54.9 C 66.2 54.9 66 54.9 65.7 54.7 C 65.6 54.6 65.4 54.5 65.3 54.3 C 65.1 54.1 65 53.9 64.8 53.7 C 64.7 53.5 64.5 53.2 64.4 52.9 C 64.3 52.6 64.2 52.3 64.1 51.9 C 64.1 51.6 64 51.2 64 50.9 C 64 50.5 64 50.2 64 49.8 C 64 49.1 64.1 48.4 64.2 47.7 C 64.2 47.4 64.3 47.1 64.4 46.8 C 64.5 46.5 64.5 46.2 64.6 46 C 64.9 45 65.2 44.3 65.2 44.3 C 65.2 44.3 65.2 45 65.1 46 C 65.1 46.5 65 47.1 64.9 47.8 C 64.8 48.4 64.8 49.1 64.8 49.8 C 64.8 50.5 64.8 51.2 64.9 51.8 C 65 52.1 65 52.4 65.1 52.7 C 65.2 53 65.2 53.2 65.3 53.5 C 65.4 53.7 65.5 53.9 65.6 54.1 C 65.7 54.3 65.8 54.4 65.9 54.5 C 66 54.8 66.2 54.9 66.2 54.9 Z " fill="#120D0B" stroke-width="1"/>
            </g>
          </g>
        </g>
        <g id="Group" fill-rule="nonzero">
          <g id="Shape">
            <g>
              <path d="M 48.9 104.4 C 52.2 101.1 64.8 86.2 51.9 87.2 C 39.6 88.2 13.6 119.1 20.5 121.4 C 27.4 123.7 41.4 111.8 48.9 104.4 Z " fill="#52B6CC" stroke-width="1"/>
              <path d="M 53.6 98.9 C 53.6 98.9 52.7 100.1 51.3 101.8 C 50.6 102.6 49.7 103.6 48.8 104.7 C 47.8 105.7 46.8 106.8 45.7 107.8 C 44.6 108.8 43.5 109.8 42.4 110.7 C 41.3 111.6 40.3 112.4 39.4 113.1 C 38.5 113.8 37.7 114.3 37.2 114.7 C 36.7 115.1 36.3 115.3 36.3 115.3 C 36.3 115.3 36.6 115.1 37.1 114.6 C 37.6 114.2 38.3 113.6 39.2 112.9 C 40.1 112.2 41 111.3 42 110.4 C 43 109.5 44.1 108.5 45.2 107.4 C 46.3 106.4 47.3 105.3 48.3 104.4 C 49.3 103.4 50.2 102.5 51 101.7 C 52.6 99.9 53.6 98.9 53.6 98.9 Z " fill="#2E83BF" stroke-width="1"/>
              <path d="M 56.9 88.3 C 56.9 88.3 56.8 88.2 56.6 88 C 56.4 87.8 56 87.6 55.5 87.4 C 55 87.2 54.4 87.1 53.7 87.1 C 53.3 87 53 87.1 52.6 87.2 C 52.2 87.2 51.8 87.3 51.3 87.4 C 50.4 87.5 49.5 87.9 48.6 88.3 C 48.1 88.5 47.7 88.8 47.2 89 C 47 89.1 46.7 89.2 46.5 89.4 C 46.3 89.5 46 89.7 45.8 89.8 C 44.8 90.4 43.8 91 42.9 91.7 C 42.4 92 41.9 92.4 41.5 92.7 C 41 93.1 40.6 93.5 40.1 93.8 C 39.2 94.6 38.2 95.3 37.4 96.1 C 36.5 96.9 35.7 97.7 34.9 98.4 C 34.1 99.2 33.3 100 32.6 100.7 C 31.9 101.4 31.2 102.1 30.6 102.8 C 28.2 105.4 26.5 107.2 26.5 107.2 C 26.5 107.2 28 105.3 30.4 102.6 C 31 101.9 31.7 101.2 32.4 100.5 C 33.1 99.7 33.8 98.9 34.6 98.1 C 35.4 97.3 36.3 96.5 37.1 95.7 C 37.9 94.9 38.9 94.1 39.8 93.3 C 40.3 92.9 40.7 92.5 41.2 92.2 C 41.7 91.9 42.2 91.5 42.7 91.2 C 43.7 90.5 44.7 89.9 45.7 89.3 C 45.9 89.2 46.2 89 46.4 88.9 C 46.7 88.8 46.9 88.7 47.2 88.6 C 47.7 88.4 48.2 88.2 48.7 87.9 C 49.7 87.6 50.6 87.2 51.5 87.1 C 51.9 87 52.4 86.9 52.8 86.9 C 53.2 86.9 53.6 86.8 54 86.9 C 54.7 87 55.4 87.1 55.9 87.3 C 56.4 87.5 56.7 87.8 56.9 87.9 C 56.8 88.1 56.9 88.3 56.9 88.3 Z " fill="#2E83BF" stroke-width="1"/>
            </g>
            <g>
              <g>
                <path d="M 58.2 90.3 C 57 87.2 54.6 85.2 47.2 87 C 39.8 88.8 39 90.6 32.4 94 C 28.9 95.9 28.8 104.1 35.2 109.2 C 41.6 114.3 46.8 114.7 50.4 108.7 C 54 102.7 59.7 94.5 58.2 90.3 Z " fill="#6FCED9" stroke-width="1"/>
                <path d="M 56.6 98.2 C 56.6 98.2 55.9 99.9 54.6 102.3 C 54 103.5 53.2 104.9 52.3 106.4 C 51.4 107.9 50.4 109.4 49.2 110.8 C 48.6 111.5 47.9 112.2 47.1 112.7 C 47 112.8 46.9 112.8 46.8 112.9 L 46.5 113 C 46.3 113.1 46.1 113.2 45.9 113.2 L 45.2 113.4 C 45 113.4 44.7 113.4 44.5 113.4 C 43.6 113.4 42.8 113.3 42 113 C 41.2 112.8 40.5 112.5 39.9 112.2 C 38.6 111.6 37.7 111 37 110.5 C 36.3 110 36 109.8 36 109.8 C 36 109.8 36.4 110 37.1 110.4 C 37.8 110.8 38.8 111.3 40.1 111.8 C 41.3 112.3 42.9 112.8 44.5 112.7 L 45.1 112.7 L 45.7 112.6 C 45.9 112.6 46.1 112.4 46.3 112.4 L 46.6 112.3 C 46.6 112.3 46.8 112.2 46.8 112.1 C 47.5 111.6 48.1 111 48.7 110.3 C 49.9 109 50.9 107.5 51.8 106 C 52.7 104.6 53.6 103.2 54.3 102 C 55.7 99.8 56.6 98.2 56.6 98.2 Z " fill="#3FADC4" stroke-width="1"/>
                <path d="M 57.5 89.1 C 57.5 89.1 57.3 88.5 56.6 87.9 C 56.2 87.6 55.7 87.2 55.1 87 C 54.5 86.7 53.7 86.5 52.9 86.5 C 52.1 86.4 51.2 86.5 50.2 86.6 C 49.3 86.7 48.2 86.9 47.2 87.2 C 45.2 87.7 43 88.5 41 89.5 C 40 90 39 90.5 38.1 91.1 C 37.6 91.4 37.2 91.7 36.7 92 C 36.2 92.3 35.7 92.6 35.2 92.8 C 34.2 93.2 33.3 93.7 32.6 94.3 C 31.8 94.9 31.2 95.6 30.8 96.3 C 30 97.8 29.9 99.2 30 100.2 C 30 100.7 30.1 101.1 30.1 101.3 C 30.1 101.6 30.2 101.7 30.2 101.7 C 30.2 101.7 30.2 101.6 30.1 101.3 C 30 101 29.9 100.7 29.9 100.2 C 29.8 99.7 29.8 99.1 29.9 98.4 C 30 97.7 30.1 96.9 30.6 96.1 C 31 95.3 31.6 94.6 32.4 93.9 C 33.2 93.3 34.1 92.7 35.1 92.3 C 36.1 91.9 36.9 91.3 37.9 90.7 C 38.9 90.1 39.8 89.5 40.9 89 C 43 88 45.1 87.2 47.2 86.7 C 48.2 86.4 49.3 86.3 50.2 86.2 C 51.2 86.1 52.1 86.1 53 86.2 C 53.9 86.3 54.6 86.5 55.3 86.9 C 55.9 87.2 56.4 87.6 56.8 88 C 57.2 88.4 57.4 88.7 57.5 88.9 C 57.4 89 57.5 89.1 57.5 89.1 Z " fill="#3FADC4" stroke-width="1"/>
              </g>
              <path d="M 31.4 105.3 C 31.4 105.3 30.8 100 37.4 95.8 C 41 93.5 43.3 91.3 43.3 91.3 C 43.3 91.3 37.6 94.1 34.4 95.7 C 31.2 97.3 30.2 101.2 31.4 105.3 Z " fill="#52B6CC" stroke-width="1"/>
              <path d="M 38.8 111.5 C 38.8 111.5 43.3 113.5 46.8 109.5 C 50.3 105.5 52.5 100.1 52.5 100.1 C 52.5 100.1 45.5 111.9 38.8 111.5 Z " fill="#52B6CC" stroke-width="1"/>
              <path d="M 33 107.7 C 33 107.7 32.3 103 37.4 99.2 C 41.2 96.4 45.6 95 45.6 95 C 45.6 95 38 100.6 33 107.7 Z " fill="#52B6CC" stroke-width="1"/>
              <path d="M 49.9 98.4 C 49.9 98.4 39.2 109.3 35.8 109.8 C 35.8 109.8 40.3 115 49.9 98.4 Z " fill="#52B6CC" stroke-width="1"/>
            </g>
          </g>
          <g id="Shape">
            <path d="M 33.7 151.7 C 33.7 151.7 37.7 154.2 39.8 159.8 C 40.5 161.7 41 162.7 39.3 163.1 C 39.3 163.1 39.6 165.3 37.3 165 C 37.3 165 36.4 166.9 34.5 166.6 C 34.5 166.6 33.2 168.3 30.9 166.8 C 29.6 166 28.4 163.4 29.4 161.9 C 28.3 159.4 29.5 154.4 29.8 152.9 " fill="#875137" stroke-width="1"/>
            <path d="M 34.4 152.3 C 34.4 152.3 37.4 154.8 39.6 156.7 C 41.3 158.2 41.4 160.3 38.9 159.4 " fill="#875137" stroke-width="1"/>
            <path d="M 29.1 157.5 C 29.1 157.5 29.2 158 29.3 158.8 C 29.4 159.2 29.4 159.6 29.5 160.1 C 29.6 160.6 29.7 161.1 29.8 161.6 C 29.9 162.1 30.1 162.6 30.3 163 C 30.4 163.2 30.5 163.4 30.6 163.6 C 30.7 163.8 30.8 164 30.9 164.1 C 31 164.2 31.1 164.4 31.2 164.5 C 31.3 164.6 31.4 164.7 31.5 164.8 C 31.7 165 31.7 165.1 31.7 165.1 C 31.7 165.1 31.6 165 31.4 164.9 C 31.3 164.8 31.2 164.8 31 164.7 C 30.9 164.6 30.7 164.5 30.6 164.3 C 30.3 164 30 163.6 29.8 163.2 C 29.6 162.7 29.4 162.2 29.2 161.7 C 28.9 160.7 28.9 159.6 28.9 158.8 C 29 158 29.1 157.5 29.1 157.5 Z " fill="#613A27" stroke-width="1"/>
            <path d="M 34.3 164.2 C 34.3 164.2 34.4 164.4 34.6 164.7 C 34.7 165 34.8 165.4 34.8 165.9 C 34.8 166.1 34.7 166.4 34.7 166.6 C 34.6 166.8 34.5 167 34.3 167.1 C 34 167.3 33.8 167.3 33.8 167.3 C 33.8 167.3 33.8 167.2 33.9 167.2 C 34 167.1 34 167 34.1 166.9 C 34.2 166.6 34.2 166.3 34.3 165.9 C 34.3 165.5 34.3 165.1 34.4 164.8 C 34.2 164.4 34.3 164.2 34.3 164.2 Z " fill="#613A27" stroke-width="1"/>
            <path d="M 37 162.9 C 37 162.9 37.2 163.1 37.3 163.4 C 37.5 163.7 37.6 164.1 37.6 164.6 C 37.6 165.1 37.4 165.5 37.1 165.8 C 37 165.9 36.8 166 36.7 166 C 36.6 166 36.6 166.1 36.6 166.1 C 36.6 166.1 36.6 166 36.7 166 C 36.8 165.9 36.8 165.8 36.8 165.7 C 36.8 165.6 36.9 165.4 36.9 165.2 C 36.9 165 36.9 164.8 36.9 164.6 C 36.9 164.2 36.9 163.8 36.9 163.5 C 36.9 163.1 37 162.9 37 162.9 Z " fill="#613A27" stroke-width="1"/>
            <path d="M 38.9 161.2 C 38.9 161.2 39.1 161.4 39.2 161.7 C 39.4 162 39.5 162.4 39.6 162.9 C 39.7 163.3 39.6 163.8 39.5 164.2 C 39.4 164.4 39.3 164.5 39.2 164.6 C 39.1 164.7 39.1 164.7 39.1 164.7 L 39.1 164.6 C 39.1 164.5 39.1 164.4 39.1 164.2 C 39.1 163.9 39 163.5 39 163.1 C 38.9 162.7 38.9 162.3 38.9 161.9 C 38.9 161.4 38.9 161.2 38.9 161.2 Z " fill="#613A27" stroke-width="1"/>
            <path d="M 30.5 163.5 C 30.5 163.5 30.6 163.6 30.6 163.8 C 30.6 164 30.6 164.2 30.6 164.3 C 30.6 164.5 30.5 164.7 30.4 164.8 C 30.3 164.9 30.2 165 30.2 165 C 30.2 165 30.1 164.9 30 164.7 C 29.9 164.5 29.9 164.3 29.9 164.1 C 29.9 163.9 30 163.7 30.2 163.6 C 30.4 163.6 30.5 163.5 30.5 163.5 Z " fill="#613A27" stroke-width="1"/>
            <path d="M 40.4 161.6 C 40.4 161.6 40.2 161.2 40 160.7 C 39.7 160.2 39.4 159.5 39 158.8 C 38.6 158.1 38.3 157.4 38 156.9 C 37.8 156.4 37.6 156 37.6 156 C 37.6 156 37.9 156.3 38.3 156.7 C 38.7 157.2 39.1 157.8 39.5 158.5 C 39.9 159.2 40.2 159.9 40.3 160.5 C 40.4 160.8 40.4 161 40.4 161.2 C 40.4 161.5 40.4 161.6 40.4 161.6 Z " fill="#613A27" stroke-width="1"/>
          </g>
          <g id="Shape">
            <g>
              <path d="M 26.8 115.8 C 29.7 120 31.2 131.3 32 139 C 32.5 144 34.5 152.2 34.5 152.2 C 33.4 154.2 30.9 154.7 29 154.3 C 29 154.3 27.5 150.5 24.6 143 C 21.5 135 18.2 120.5 19.7 117.6 C 21.4 114.2 25.4 113.7 26.8 115.8 Z " fill="#52B6CC" stroke-width="1"/>
              <path d="M 28.3 118.8 C 28.3 118.8 28.8 120.3 29.4 122.5 C 29.7 123.6 30 124.9 30.3 126.4 C 30.6 127.8 30.9 129.4 31.1 130.9 C 31.3 132.4 31.5 134 31.7 135.4 C 31.9 136.8 32 138.2 32.1 139.4 C 32.2 140.6 32.2 141.5 32.3 142.2 C 32.3 142.9 32.3 143.3 32.3 143.3 C 32.3 143.3 32.2 142.9 32.1 142.2 C 32 141.5 31.9 140.6 31.7 139.4 C 31.5 138.3 31.3 136.9 31.1 135.5 C 30.9 134.1 30.7 132.5 30.4 131 C 30.2 129.5 29.9 127.9 29.7 126.5 C 29.4 125.1 29.2 123.7 29 122.6 C 28.6 120.3 28.3 118.8 28.3 118.8 Z " fill="#2E83BF" stroke-width="1"/>
            </g>
            <path d="M 28.9 153.9 C 28.9 153.9 28.7 153.5 28.3 152.6 C 27.9 151.8 27.3 150.6 26.7 149.2 C 26.1 147.8 25.4 146.1 24.7 144.3 C 24 142.5 23.4 140.6 22.8 138.6 C 22.2 136.6 21.7 134.7 21.2 132.8 C 21 131.9 20.8 131 20.6 130.1 C 20.4 129.2 20.3 128.4 20.1 127.7 C 19.8 126.2 19.7 124.9 19.6 124 C 19.5 123.1 19.4 122.6 19.4 122.6 C 19.4 122.6 19.5 123.1 19.7 124 C 19.8 124.4 19.9 125 20 125.6 C 20.1 126.2 20.3 126.9 20.5 127.6 C 20.8 129.1 21.3 130.8 21.7 132.7 C 22.2 134.6 22.7 136.5 23.4 138.5 C 24 140.5 24.6 142.4 25.3 144.2 C 25.9 146 26.5 147.7 27.1 149.1 C 28.1 152 28.9 153.9 28.9 153.9 Z " fill="#2E83BF" stroke-width="1"/>
          </g>
        </g>
        <g id="Group" fill-rule="nonzero">
          <path d="M 78.2 69.8 C 76.4 69.5 77.1 66.3 81.9 66.5 C 86.7 66.7 86.6 70.6 83.8 69.8 C 81.4 69.2 79.5 70 78.2 69.8 Z " id="Shape" fill="#872A2A" stroke-width="1"/>
          <path d="M 78.9 67 C 76.9 67.8 76.9 69.6 78.2 69.8 C 79.5 70 81.4 69.1 83.8 69.8 L 83.9 69.8 C 82.4 68 79.6 67.2 78.9 67 Z " id="Shape" fill="#B34B4B" stroke-width="1"/>
          <path d="M 84.2 67.1 C 83.6 66.8 82.9 66.6 81.9 66.6 C 80.5 66.5 79.4 66.8 78.7 67.1 C 80.1 67.3 82.5 67.5 84.2 67.1 Z " id="Shape" fill="#FFFFFF" stroke-width="1"/>
          <path d="M 77.5 69.5 C 77.5 69.5 77.4 69.4 77.2 69 C 77.1 68.8 77.1 68.6 77.1 68.4 C 77.1 68.2 77.3 67.9 77.5 67.7 C 77.8 67.2 78.4 66.8 79.1 66.6 C 79.8 66.4 80.6 66.3 81.3 66.3 C 82.1 66.3 82.8 66.4 83.5 66.6 C 84.2 66.8 84.8 67.2 85.2 67.7 C 85.4 67.9 85.5 68.2 85.6 68.4 C 85.7 68.6 85.6 68.9 85.6 69 C 85.5 69.3 85.4 69.5 85.4 69.5 C 85.4 69.5 85.5 69.3 85.5 69 C 85.5 68.8 85.5 68.7 85.4 68.5 C 85.3 68.3 85.2 68.1 85 67.9 C 84.2 67.2 82.8 66.9 81.4 66.9 C 80.7 66.9 80 66.9 79.3 67.1 C 78.7 67.3 78.1 67.6 77.8 68 C 77.6 68.2 77.5 68.4 77.4 68.6 C 77.3 68.8 77.3 69 77.3 69.1 C 77.4 69.3 77.5 69.5 77.5 69.5 Z " id="Shape" fill="#611E1E" stroke-width="1"/>
        </g>
      </g>
    </g>
  </g>
</svg>