<svg xmlns="http://www.w3.org/2000/svg" xmlns:xlink="http://www.w3.org/1999/xlink" width="117.61919952392579" height="140.549306640625" viewBox="-0.13110000371932984 -0.22679999947547913 117.61919952392579 140.549306640625" version="1.1" xml:space="preserve">
  <!-- Generator: Sketch 50.2 (55047) - http://www.bohemiancoding.com/sketch -->
  <defs/>
  <g>
    <title>Slice 1</title>
    <desc>Created with Sketch.</desc>
    <g id="Page-1" stroke="none" fill-rule="evenodd">
      <g id="rooster-a-[animals,chicken,farm,owen-davey]">
        <g id="Group-2" fill-rule="nonzero">
          <path d="M 0.4989 66.5467 C 0.4989 49.0311 14.708 34.8301 32.2347 34.8301 C 49.7613 34.8301 63.9704 49.0311 63.9704 66.5467 L 63.9704 97.1456 L 36.6473 97.1456 L 36.6473 66.9523 C 36.6473 64.5161 34.6724 62.5417 32.2347 62.5417 C 29.797 62.5417 27.822 64.5161 27.822 66.9523 L 27.822 97.1456 L 0.4989 97.1456 L 0.4989 66.5467 Z " id="Fill-1" fill="#005A61" stroke-width="1"/>
          <path d="M 32.2347 43.905 C 44.6335 43.905 54.7196 53.985 54.7196 66.3768 L 54.7196 89.4444 L 53.8818 89.4444 L 53.8818 66.3768 C 53.8818 54.448 44.1707 44.7426 32.2347 44.7426 C 20.2986 44.7426 10.5887 54.448 10.5887 66.3768 L 10.5887 97.1456 L 9.7497 97.1456 L 9.7497 66.3768 C 9.7497 53.985 19.8358 43.905 32.2347 43.905 " id="Fill-3" fill="#17242D" stroke-width="1"/>
          <path d="M 18.0496 97.1456 L 18.0496 67.1342 C 18.0496 59.3169 24.4131 52.9571 32.2347 52.9571 C 40.0562 52.9571 46.4209 59.3169 46.4209 67.1342 L 46.4209 89.4444 L 45.5819 89.4444 L 45.5819 67.1342 C 45.5819 59.7788 39.5946 53.7959 32.2347 53.7959 C 24.8747 53.7959 18.8874 59.7788 18.8874 67.1342 L 18.8874 97.1456 L 18.0496 97.1456 Z " id="Fill-5" fill="#17242D" stroke-width="1"/>
        </g>
        <g id="Group-4">
          <path d="M 76.7899 123.1701 L 96.3276 139.6925 " id="Stroke-7" stroke="#FFDB5D" stroke-width="1.26" fill="none"/>
          <path d="M 85.3183 139.6578 C 87.9134 139.6578 87.9134 137.1426 90.5086 137.1426 C 93.1026 137.1426 93.1026 139.6578 95.6965 139.6578 C 98.2917 139.6578 98.2917 137.1426 100.888 137.1426 C 103.4832 137.1426 103.4832 139.6578 106.0796 139.6578 " id="Stroke-9" stroke="#FFDB5D" stroke-width="1.26" fill="none"/>
          <path d="M 66.3516 114.295 C 64.4752 110.2745 66.2158 105.4942 70.2389 103.6179 C 74.2621 101.7429 79.0461 103.4827 80.9225 107.5032 C 81.4321 108.5957 81.6665 109.7421 81.6689 110.8728 L 81.6749 110.8716 L 81.8721 125.4316 C 81.8889 126.6605 80.4465 127.3342 79.5149 126.5337 L 68.4515 117.0292 C 67.5885 116.3017 66.8601 115.3863 66.3516 114.295 " id="Fill-11" fill="#751D18" fill-rule="nonzero" stroke-width="1"/>
        </g>
        <path d="M 36.6353 89.4839 C 36.6353 81.7552 42.9038 75.4887 50.6376 75.4887 L 53.9347 75.4875 C 53.9816 75.4851 54.0333 75.4768 54.0778 75.4768 L 104.5806 75.4768 C 104.5806 75.4768 104.5903 83.8887 104.5903 85.0039 C 104.5903 88.6978 103.0276 95.0468 97.9779 99.3414 C 86.7234 108.9116 73.4051 121.3046 73.4051 121.3046 L 36.6353 89.4839 Z " id="Fill-13" fill="#17242D" fill-rule="nonzero" stroke-width="1"/>
        <g id="Group-3">
          <path d="M 48.3465 139.6602 C 50.9417 139.6602 50.9417 137.145 53.5357 137.145 C 56.1308 137.145 56.1308 139.6602 58.7248 139.6602 C 61.3199 139.6602 61.3199 137.145 63.9163 137.145 C 66.5115 137.145 66.5115 139.6602 69.1066 139.6602 " id="Stroke-15" stroke="#FFDB5D" stroke-width="1.26" fill="none"/>
          <path d="M 58.8666 120.3162 L 58.8666 139.5762 " id="Stroke-17" stroke="#FFDB5D" stroke-width="1.26" fill="none"/>
          <path d="M 50.8275 108.2583 C 50.8275 103.8214 54.4276 100.2232 58.8666 100.2232 C 63.3057 100.2232 66.9045 103.8214 66.9045 108.2583 C 66.9045 109.4632 66.6329 110.6012 66.1569 111.6279 L 66.1629 111.6291 L 60.1828 124.9063 C 59.6792 126.0275 58.0865 126.0287 57.5805 124.9087 L 51.574 111.6219 C 51.1004 110.5976 50.8275 109.4609 50.8275 108.2583 " id="Fill-19" fill="#751D18" fill-rule="nonzero" stroke-width="1"/>
        </g>
        <g id="Group-6">
          <path d="M 25.8664 98.4044 C 31.0567 80.4103 49.8611 70.0287 67.8649 75.2159 L 68.5789 75.4205 L 65.3647 86.5643 C 60.0614 104.9521 40.8459 115.5622 22.4466 110.2614 L 25.8664 98.4044 Z " id="Fill-21" fill="#B85C39" fill-rule="nonzero" stroke-width="1"/>
          <path d="M 22.4466 110.2614 L 22.4514 110.2446 L 36.4261 96.4756 L 55.9205 102.0923 C 47.2948 110.2626 34.6928 113.7889 22.4466 110.2614 " id="Fill-23" fill="#AD2C24" fill-rule="nonzero" stroke-width="1"/>
          <path d="M 27.197 110.9243 L 40.4793 97.8732 " id="Stroke-25" stroke="#751D18" stroke-width="0.6" fill="none"/>
          <path d="M 32.0135 111.312 L 44.5097 99.0338 " id="Stroke-27" stroke="#751D18" stroke-width="0.6" fill="none"/>
          <path d="M 37.7435 110.8034 L 48.5401 100.1957 " id="Stroke-29" stroke="#751D18" stroke-width="0.6" fill="none"/>
          <path d="M 45.0073 108.7872 L 52.5704 101.3564 " id="Stroke-31" stroke="#751D18" stroke-width="0.6" fill="none"/>
          <path d="M 51.6725 86.7749 C 50.1856 89.3056 47.1289 90.6171 44.1779 89.7663 C 40.6837 88.76 38.6667 85.1116 39.674 81.62 C 40.1355 80.019 41.1585 78.7386 42.4602 77.9082 C 49.9837 73.8841 59.0193 72.6672 67.8649 75.2159 L 68.5789 75.4217 L 65.3647 86.5643 C 65.1315 87.3732 64.8623 88.1617 64.5762 88.9395 L 64.5317 88.9227 C 63.4716 92.3342 59.8751 94.2882 56.4253 93.295 C 53.4732 92.4443 51.5836 89.7089 51.6725 86.7749 " id="Fill-33" fill="#573A3C" fill-rule="nonzero" stroke-width="1"/>
        </g>
        <g id="Group" fill-rule="nonzero">
          <path d="M 104.5806 14.1699 L 104.5806 83.087 L 104.5806 85.2875 C 104.5806 95.2419 96.5067 103.3116 86.5467 103.3116 C 76.5856 103.3116 68.5116 95.2419 68.5116 85.2875 L 68.5116 50.2181 C 68.5116 30.3094 84.6596 14.1699 104.5806 14.1699 " id="Fill-35" fill="#DE7732" stroke-width="1"/>
          <path d="M 68.5345 86.1694 L 68.5345 49.335 C 68.7833 39.0097 73.369 29.7614 80.5499 23.3429 L 80.5499 68.3631 C 80.5499 76.5034 75.6059 83.4891 68.5561 86.4865 C 68.5489 86.38 68.5393 86.2759 68.5345 86.1694 " id="Fill-37" fill="#E8441D" stroke-width="1"/>
          <path d="M 80.5499 23.3429 C 84.0177 20.2438 88.0889 17.8075 92.5653 16.2268 L 92.5653 68.3631 C 92.5653 76.5118 87.6117 83.5034 80.5499 86.4961 L 80.5499 23.3429 Z " id="Fill-39" fill="#E8441D" stroke-width="1"/>
          <path d="M 92.5653 86.4961 L 92.5653 16.2268 C 96.324 14.8986 100.3664 14.1699 104.5806 14.1699 L 104.5806 68.3631 C 104.5806 76.5118 99.6271 83.5034 92.5653 86.4961 " id="Fill-41" fill="#E8441D" stroke-width="1"/>
        </g>
        <g id="Group-5">
          <g id="Group-45" fill-rule="nonzero">
            <path d="M 90.6504 3.932 C 92.9006 3.932 94.8791 5.0843 96.0319 6.8301 L 96.3348 7.2429 C 96.7639 7.8304 97.6931 7.5265 97.6931 6.8002 L 97.6931 2.6038 C 97.6931 1.3892 98.6787 0.4032 99.8952 0.4032 C 101.1104 0.4032 102.0973 1.3892 102.0973 2.6038 L 102.0973 6.294 C 102.0973 7.0239 103.0397 7.3183 103.4544 6.7176 L 106.2995 2.599 C 106.8741 1.7674 108.1783 2.1742 108.1783 3.1841 L 108.1783 10.0549 C 108.2468 10.0525 108.3153 10.0441 108.3838 10.0441 C 112.0308 10.0441 114.9853 12.9985 114.9853 16.6421 C 114.9853 20.2868 112.0308 23.24 108.3838 23.24 C 108.2612 23.24 108.141 23.2292 108.0196 23.2221 L 103.4856 23.2221 L 103.4856 21.055 C 103.4387 21.0024 103.3882 20.9521 103.3426 20.8983 L 94.7577 18.9515 L 93.4163 16.1909 C 92.5773 16.5906 91.6421 16.8215 90.6504 16.8215 C 87.0888 16.8215 84.2016 13.9354 84.2016 10.3768 C 84.2016 6.8169 87.0888 3.932 90.6504 3.932 " id="Fill-43" stroke-width="1" fill="#CE2235"/>
          </g>
          <path d="M 99.1667 34.5106 C 99.1667 38.7166 102.5769 42.1256 106.7852 42.1256 C 110.9934 42.1256 114.4048 38.7166 114.4048 34.5106 C 114.4048 30.3058 110.9934 26.8956 106.7852 26.8956 C 102.5769 26.8956 99.1667 30.3058 99.1667 34.5106 " id="Fill-46" fill="#CE2235" fill-rule="nonzero" stroke-width="1"/>
          <g id="Group-50" fill-rule="nonzero">
            <path d="M 116.8581 26.8621 L 95.1748 26.8621 C 95.7855 24.7704 97.7219 23.2292 100.0046 23.2292 L 112.0284 23.2292 C 114.311 23.2292 116.2475 24.7704 116.8581 26.8621 " id="Fill-48" stroke-width="1" fill="#FFDB5D"/>
          </g>
          <path d="M 88.4015 24.5215 C 88.4015 29.6908 92.5953 33.8824 97.7676 33.8824 C 102.9411 33.8824 107.1349 29.6908 107.1349 24.5215 C 107.1349 19.3511 102.9411 15.1595 97.7676 15.1595 C 92.5953 15.1595 88.4015 19.3511 88.4015 24.5215 " id="Fill-51" fill="#AD2C24" fill-rule="nonzero" stroke-width="1"/>
          <path d="M 93.266 24.5215 C 93.266 27.0056 95.2818 29.0195 97.7676 29.0195 C 100.2546 29.0195 102.2692 27.0056 102.2692 24.5215 C 102.2692 22.0362 100.2546 20.0224 97.7676 20.0224 C 95.2818 20.0224 93.266 22.0362 93.266 24.5215 " id="Fill-53" fill="#FFF4E3" fill-rule="nonzero" stroke-width="1"/>
          <path d="M 94.6952 24.5215 C 94.6952 26.2159 96.0715 27.5908 97.7676 27.5908 C 99.4648 27.5908 100.84 26.2159 100.84 24.5215 C 100.84 22.826 99.4648 21.4511 97.7676 21.4511 C 96.0715 21.4511 94.6952 22.826 94.6952 24.5215 " id="Fill-55" fill="#17242D" fill-rule="nonzero" stroke-width="1"/>
          <path d="M 103.1502 28.0838 L 96.8589 31.7513 " id="Stroke-57" stroke="#751D18" stroke-width="0.6" fill="none"/>
        </g>
      </g>
    </g>
  </g>
</svg>