<svg xmlns="http://www.w3.org/2000/svg" xmlns:xlink="http://www.w3.org/1999/xlink" version="1.1" width="84.85126177978516" height="113.20901934814454" viewBox="0.5736912860870361 -0.11501999950408937 84.85126177978516 113.20901934814454">
  <!-- Exported by Scratch - http://scratch.mit.edu/ -->
  <g id="ID0.7365661566145718">
    <g id="Page-1">
      <g id="hat-a-[people,fashion,hat].]">
        <g id="Right-Ear">
          <path id="Shape" fill="#C47814" stroke="none" stroke-width="1" d="M 67.252 5.181 C 71.524 3.546 76.204 5.794 78.148 10.398 C 78.577 5.932 75.619 1.845 71.248 0.866 C 65.248 -0.661 60.244 3.029 61.048 9.004 L 62.692 10.314 C 63.377 8.01 65.047 6.13 67.252 5.181 Z "/>
          <path id="Shape" fill="#E69724" stroke="none" stroke-width="1" d="M 67.252 5.181 C 65.047 6.13 63.377 8.01 62.692 10.314 L 70.804 16.746 C 73.346 16.948 75.791 15.721 77.152 13.56 C 77.72 12.596 78.06 11.514 78.148 10.398 C 76.204 5.794 71.524 3.606 67.252 5.181 Z "/>
          <path id="Shape" fill="none" stroke="#723E0A" stroke-width="0.96" stroke-linecap="round" stroke-linejoin="round" d="M 71.248 0.866 C 65.248 -0.661 60.244 3.029 61.048 9.004 L 62.692 10.314 L 70.804 16.746 C 73.346 16.948 75.791 15.721 77.152 13.56 C 77.72 12.596 78.06 11.514 78.148 10.398 C 78.577 5.932 75.619 1.845 71.248 0.866 Z "/>
          <path id="Shape" fill="none" stroke="#723E0A" stroke-width="1.272" stroke-linecap="round" stroke-linejoin="round" d="M 72.412 9.485 C 69.775 9.348 67.249 10.561 65.704 12.706 "/>
        </g>
        <g id="Left-Ear">
          <path id="Shape" fill="#C47814" stroke="none" stroke-width="1" d="M 18.748 5.181 C 14.476 3.546 9.796 5.794 7.852 10.398 C 7.423 5.932 10.381 1.845 14.752 0.866 C 20.752 -0.661 25.756 3.029 24.952 9.004 L 23.308 10.314 C 22.623 8.01 20.953 6.13 18.748 5.181 Z "/>
          <path id="Shape" fill="#E69724" stroke="none" stroke-width="1" d="M 18.748 5.181 C 20.953 6.13 22.623 8.01 23.308 10.314 L 15.196 16.746 C 12.654 16.948 10.209 15.721 8.848 13.56 C 8.28 12.596 7.94 11.514 7.852 10.398 C 9.796 5.794 14.476 3.606 18.748 5.181 Z "/>
          <path id="Shape" fill="none" stroke="#723E0A" stroke-width="0.96" stroke-linecap="round" stroke-linejoin="round" d="M 14.752 0.866 C 20.752 -0.661 25.756 3.029 24.952 9.004 L 23.308 10.314 L 15.196 16.746 C 12.654 16.948 10.209 15.721 8.848 13.56 C 8.28 12.596 7.94 11.514 7.852 10.398 C 7.423 5.932 10.381 1.845 14.752 0.866 Z "/>
          <path id="Shape" fill="none" stroke="#723E0A" stroke-width="1.272" stroke-linecap="round" stroke-linejoin="round" d="M 13.588 9.485 C 16.225 9.348 18.751 10.561 20.296 12.706 "/>
        </g>
        <g id="Back-of-Head">
          <path id="Shape" fill="#C47814" stroke="none" stroke-width="1" d="M 11.896 23.916 C 14.848 18.302 19.912 12.448 24.244 8 C 15.532 12.315 8.74 19.853 4.828 30.047 C -0.152 43.078 0.028 61.302 5.248 68.515 C 2.8 46.131 6.436 34.326 11.896 23.916 Z "/>
          <path id="Shape" fill="#E69724" stroke="none" stroke-width="1" d="M 74.02 25.106 C 69.887 17.857 64.395 11.477 57.844 6.317 C 53.081 4.614 48.057 3.759 43 3.792 C 36.507 3.724 30.087 5.164 24.244 8 C 19.912 12.448 14.848 18.302 11.896 23.916 C 6.436 34.326 2.8 46.131 5.248 68.515 C 6.041 69.694 7.14 70.634 8.428 71.232 C 14.128 73.636 17.716 68.515 17.44 62.3 C 17.26 58.008 17.116 54.414 19.972 50.11 C 21.892 47.237 25.192 45.302 29.572 44.1 C 27.563 40.845 26.879 36.941 27.664 33.196 C 29.092 24.95 36.436 22.053 43 22.053 C 49.564 22.053 56.908 24.95 58.336 33.196 C 59.117 36.94 58.438 40.841 56.44 44.1 C 60.82 45.302 64.108 47.261 66.04 50.11 C 68.896 54.414 68.752 58.008 68.572 62.3 C 68.308 68.515 71.884 73.648 77.584 71.232 C 78.504 70.81 79.322 70.195 79.984 69.429 C 82.06 52.37 80.908 37.464 74.02 25.106 Z "/>
          <path id="Shape" fill="#F8B547" stroke="none" stroke-width="1" d="M 81.172 30.047 C 76.696 18.362 68.44 10.188 57.844 6.317 C 64.395 11.477 69.887 17.857 74.02 25.106 C 80.908 37.464 82.06 52.37 80.02 69.477 C 85.936 62.973 86.38 43.703 81.172 30.047 Z "/>
        </g>
        <g id="Group">
          <path id="Shape" fill="#FFFFFF" stroke="#DB20A5" stroke-width="1.272" d="M 11.008 71.982 C 11.008 71.982 11.008 85.025 17.476 101.879 "/>
          <path id="Oval" fill="#723E0A" stroke="#723E0A" stroke-width="0.96" stroke-linecap="round" stroke-linejoin="round" d="M 19.084 100.797 C 20.69 100.797 22.145 101.45 23.198 102.506 C 24.252 103.561 24.904 105.019 24.904 106.627 C 24.904 108.236 24.252 109.693 23.198 110.749 C 22.145 111.804 20.69 112.458 19.084 112.458 C 17.478 112.458 16.023 111.804 14.97 110.749 C 13.916 109.693 13.264 108.236 13.264 106.627 C 13.264 105.019 13.916 103.561 14.97 102.506 C 16.023 101.45 17.478 100.797 19.084 100.797 Z "/>
        </g>
        <g id="Group-2">
          <path id="Shape" fill="#FFFFFF" stroke="#DB20A5" stroke-width="1.272" d="M 74.992 71.982 C 74.992 71.982 74.992 85.025 68.524 101.879 "/>
          <path id="Oval" fill="#723E0A" stroke="#723E0A" stroke-width="0.96" stroke-linecap="round" stroke-linejoin="round" d="M 66.916 100.797 C 68.522 100.797 69.977 101.45 71.03 102.506 C 72.084 103.561 72.736 105.019 72.736 106.627 C 72.736 108.236 72.084 109.693 71.03 110.749 C 69.977 111.804 68.522 112.458 66.916 112.458 C 65.31 112.458 63.855 111.804 62.802 110.749 C 61.748 109.693 61.096 108.236 61.096 106.627 C 61.096 105.019 61.748 103.561 62.802 102.506 C 63.855 101.45 65.31 100.797 66.916 100.797 Z "/>
        </g>
        <g id="Face">
          <path id="Shape" fill="#FFFFFF" stroke="none" stroke-width="1" d="M 58.348 33.292 C 57.568 28.406 54.013 24.427 49.252 23.11 C 52.11 25.423 54.177 28.57 55.168 32.114 C 56.296 36.261 55.084 41.009 54.16 43.678 L 54.46 43.678 C 55.148 43.822 55.808 43.979 56.44 44.147 C 58.437 40.906 59.12 37.022 58.348 33.292 Z "/>
          <path id="Shape" fill="#FFECBB" stroke="none" stroke-width="1" d="M 55.168 32.114 C 54.177 28.57 52.11 25.423 49.252 23.11 L 48.736 22.941 C 46.87 22.41 44.94 22.143 43 22.148 C 36.436 22.148 29.092 25.045 27.652 33.292 C 26.88 37.037 27.562 40.936 29.56 44.195 C 33.956 43.114 38.474 42.613 43 42.704 C 46.739 42.659 50.473 42.986 54.148 43.678 C 55.084 41.009 56.296 36.261 55.168 32.114 Z "/>
          <path id="Oval" fill="#723E0A" stroke="#723E0A" stroke-width="0.96" stroke-linecap="round" stroke-linejoin="round" d="M 35.008 11.774 C 35.799 11.774 36.516 12.229 37.035 12.965 C 37.555 13.7 37.876 14.716 37.876 15.837 C 37.876 16.958 37.555 17.974 37.035 18.709 C 36.516 19.445 35.799 19.9 35.008 19.9 C 34.217 19.9 33.5 19.445 32.981 18.709 C 32.461 17.974 32.14 16.958 32.14 15.837 C 32.14 14.716 32.461 13.7 32.981 12.965 C 33.5 12.229 34.217 11.774 35.008 11.774 Z "/>
          <path id="Oval" fill="#FFFFFF" stroke="#FFFFFF" stroke-width="0.5" d="M 34.24 13.541 C 34.571 13.541 34.871 13.676 35.088 13.893 C 35.306 14.111 35.44 14.411 35.44 14.743 C 35.44 15.075 35.306 15.375 35.088 15.593 C 34.871 15.81 34.571 15.945 34.24 15.945 C 33.909 15.945 33.609 15.81 33.392 15.593 C 33.174 15.375 33.04 15.075 33.04 14.743 C 33.04 14.411 33.174 14.111 33.392 13.893 C 33.609 13.676 33.909 13.541 34.24 13.541 Z "/>
          <path id="Oval" fill="#723E0A" stroke="#723E0A" stroke-width="0.96" stroke-linecap="round" stroke-linejoin="round" d="M 50.992 11.774 C 51.783 11.774 52.5 12.229 53.019 12.965 C 53.539 13.7 53.86 14.716 53.86 15.837 C 53.86 16.958 53.539 17.974 53.019 18.709 C 52.5 19.445 51.783 19.9 50.992 19.9 C 50.201 19.9 49.484 19.445 48.965 18.709 C 48.445 17.974 48.124 16.958 48.124 15.837 C 48.124 14.716 48.445 13.7 48.965 12.965 C 49.484 12.229 50.201 11.774 50.992 11.774 Z "/>
          <path id="Oval" fill="#FFFFFF" stroke="#FFFFFF" stroke-width="0.5" d="M 50.224 13.541 C 50.555 13.541 50.855 13.676 51.072 13.893 C 51.29 14.111 51.424 14.411 51.424 14.743 C 51.424 15.075 51.29 15.375 51.072 15.593 C 50.855 15.81 50.555 15.945 50.224 15.945 C 49.893 15.945 49.593 15.81 49.376 15.593 C 49.158 15.375 49.024 15.075 49.024 14.743 C 49.024 14.411 49.158 14.111 49.376 13.893 C 49.593 13.676 49.893 13.541 50.224 13.541 Z "/>
          <path id="Shape" fill="none" stroke="#723E0A" stroke-width="0.96" stroke-linecap="round" stroke-linejoin="round" d="M 35.956 35.973 C 35.956 35.973 37.516 39.651 43 39.651 C 48.484 39.651 50.044 35.949 50.044 35.949 "/>
          <path id="Shape" fill="none" stroke="#723E0A" stroke-width="0.96" stroke-linecap="round" stroke-linejoin="round" d="M 43 33.003 L 43 39.675 "/>
          <path id="Oval" fill="#5E154D" stroke="#5E154D" stroke-width="0.96" stroke-linecap="round" stroke-linejoin="round" d="M 43 25.214 C 44.394 25.214 45.657 25.65 46.571 26.355 C 47.486 27.06 48.052 28.034 48.052 29.108 C 48.052 30.183 47.486 31.157 46.571 31.862 C 45.657 32.567 44.394 33.003 43 33.003 C 41.606 33.003 40.343 32.567 39.429 31.862 C 38.514 31.157 37.948 30.183 37.948 29.108 C 37.948 28.034 38.514 27.06 39.429 26.355 C 40.343 25.65 41.606 25.214 43 25.214 Z "/>
          <path id="Shape" fill="none" stroke="#FFFFFF" stroke-width="0.96" stroke-linecap="round" stroke-linejoin="round" d="M 46.684 28.64 C 46.792 28.844 46.84 28.94 46.912 29.108 "/>
          <path id="Shape" fill="none" stroke="#FFFFFF" stroke-width="0.96" stroke-linecap="round" stroke-linejoin="round" d="M 43 26.524 C 43.953 26.56 44.874 26.873 45.652 27.425 "/>
        </g>
        <path id="Shape" fill="none" stroke="#723E0A" stroke-width="0.96" stroke-linecap="round" stroke-linejoin="round" d="M 81.172 30.197 C 74.776 13.452 60.652 3.907 43 3.907 C 25.348 3.907 11.224 13.452 4.828 30.197 C -1.016 45.501 0.256 67.92 8.428 71.394 C 14.128 73.799 17.704 68.678 17.44 62.463 C 17.26 58.171 17.116 54.577 19.972 50.273 C 21.892 47.4 25.192 45.464 29.572 44.262 C 33.963 43.175 38.477 42.666 43 42.748 C 47.526 42.657 52.044 43.158 56.44 44.238 C 60.808 45.44 64.108 47.4 66.04 50.249 C 68.884 54.577 68.74 58.171 68.56 62.511 C 68.296 68.726 71.872 73.871 77.572 71.442 C 85.744 67.92 87.016 45.501 81.172 30.197 Z "/>
      </g>
    </g>
  </g>
</svg>