<svg xmlns="http://www.w3.org/2000/svg" xmlns:xlink="http://www.w3.org/1999/xlink" version="1.1" width="42.45891833305359" height="165.36021304130554" viewBox="0.06828978657722473 0.16828978061676025 42.45891833305359 165.36021304130554">
  <!-- Exported by Scratch - http://scratch.mit.edu/ -->
  <g id="ID0.5977698415517807">
    <path id="Fill" fill="#FAEC00" d="M 40.3087 52.7138 L 26.0558 59.6997 L 36.3992 27.5078 L 21.9034 34.7504 L 27.451 3.2107 L 2.1534 3.2114 L 3.4146 54.8746 L 13.3705 48.5369 L 6.3714 82.938 L 17.8028 74.474 L 12.7754 116.5992 L 20.1003 109.0104 L 15.8378 157.111 L 36.77 89.1635 L 26.5056 96.4492 L 40.3087 52.7138 " stroke-width="0.6634204387664795"/>
    <path id="Outline" fill="#231F20" d="M 42.1955 50.4781 L 30.0323 55.5088 L 39.2101 24.6697 L 25.8309 30.4647 L 30.6964 2.0484 L 0.4 0.5 L 1.5053 59.3235 L 9.8657 53.1623 L 4.1589 86.5961 L 15.7144 79.8564 L 10.3513 121.8509 L 16.2153 116.6968 L 14.4638 165.1968 L 42.1955 82.7648 L 31.4149 90.1726 L 42.1955 50.4781 L 42.1955 50.4781 Z M 35.5613 90.836 L 17.0532 150.9133 L 20.9289 107.1979 L 13.6684 114.7191 L 18.6441 73.0251 L 7.3659 81.3756 L 14.3318 47.1385 L 4.0488 53.6844 L 2.8328 3.8748 L 26.6608 3.8742 L 21.0218 35.9326 L 35.2853 28.8062 L 24.9466 60.9821 L 39.2101 53.9916 L 25.2783 98.1336 L 35.5613 90.836 L 35.5613 90.836 Z " stroke-width="0.6634204387664795"/>
  </g>
</svg>