<svg xmlns="http://www.w3.org/2000/svg" xmlns:xlink="http://www.w3.org/1999/xlink" width="237.6302032470703" height="103.10496520996094" viewBox="6.727444171905518 34.55189895629883 237.6302032470703 103.10496520996094" version="1.1" xml:space="preserve">
  <defs/>
  <g>
    <title>panther-a</title>
    <desc>Created with Sketch.</desc>
    <g id="jungle" stroke="none" fill-rule="evenodd">
      <g id="panther-a">
        <g id="Group-157">
          <path d="M 79.2753 63.7804 C 79.2753 63.7804 62.2308 85.0496 39.6671 86.3996 C 17.1034 87.749 12.7744 70.3394 12.1524 68.0183 C 11.5303 65.6966 11.1245 62.1337 9.3389 62.3229 C 7.1624 62.5528 6.417 66.9384 8.3104 72.8768 C 10.2044 78.8145 17.4008 92.6884 39.7483 92.6884 C 62.0957 92.6884 81.007 74.4153 81.007 74.4153 C 81.007 74.4153 84.9568 61.243 79.2753 63.7804 " id="Fill-101" fill="#493C59" stroke-width="1"/>
          <path d="M 79.2753 63.7804 C 79.2753 63.7804 62.2308 85.0496 39.6671 86.3996 C 17.1034 87.749 12.7744 70.3394 12.1524 68.0183 C 11.5303 65.6966 11.1245 62.1337 9.3389 62.3229 C 7.1624 62.5528 6.417 66.9384 8.3104 72.8768 C 10.2044 78.8145 17.4008 92.6884 39.7483 92.6884 C 62.0957 92.6884 81.007 74.4153 81.007 74.4153 C 81.007 74.4153 84.9568 61.243 79.2753 63.7804 Z " id="Stroke-103" stroke="#2A0D37" stroke-width="0.5" fill="none"/>
          <g id="Group-108">
            <path d="M 205.2152 71.3243 C 205.2152 71.3243 194.2989 81.2033 194.0957 98.7347 C 194.0957 98.7347 193.8931 119.1805 199.3713 127.4801 C 199.3713 127.4801 200.0616 129.0996 203.6731 128.4116 C 207.2852 127.723 210.646 126.5207 211.8304 128.1687 C 213.5751 130.5979 208.4618 137.0895 208.4618 137.0895 L 194.4203 137.0895 C 194.4203 137.0895 193.284 136.752 190.1595 128.8975 C 187.3097 121.7347 176.2798 97.9651 176.2798 97.9651 C 176.2798 97.9651 178.9582 85.5351 175.3467 76.5475 " id="Fill-105" fill="#3A314F" stroke-width="1"/>
            <path d="M 205.2152 71.3243 C 205.2152 71.3243 194.2989 81.2033 194.0957 98.7347 C 194.0957 98.7347 193.8931 119.1805 199.3713 127.4801 C 199.3713 127.4801 200.0616 129.0996 203.6731 128.4116 C 207.2852 127.723 210.646 126.5207 211.8304 128.1687 C 213.5751 130.5979 208.4618 137.0895 208.4618 137.0895 L 194.4203 137.0895 C 194.4203 137.0895 193.284 136.752 190.1595 128.8975 C 187.3097 121.7347 176.2798 97.9651 176.2798 97.9651 C 176.2798 97.9651 178.9582 85.5351 175.3467 76.5475 " id="Stroke-107" stroke="#2A0D37" stroke-width="0.5" fill="none"/>
          </g>
          <path d="M 203.9977 131.2862 C 204.3854 131.0647 204.7918 130.88 205.2035 130.7045 C 205.6152 130.527 206.0405 130.3799 206.48 130.2627 C 206.6989 130.1999 206.9261 130.1603 207.1573 130.1254 C 207.3897 130.0962 207.63 130.0826 207.8839 130.1092 C 208.0157 130.1435 208.1423 130.1377 208.2773 130.2173 L 208.4754 130.3203 C 208.5332 130.3754 208.591 130.435 208.6455 130.4959 C 208.6754 130.5367 208.6916 130.5348 208.7306 130.6119 L 208.7669 130.6864 C 208.791 130.7388 208.8163 130.7796 208.839 130.8418 C 208.876 130.9733 208.9319 131.1294 208.9364 131.2461 C 209.0052 131.7487 208.9273 132.219 208.8312 132.6706 C 208.7332 133.124 208.5851 133.5567 208.4131 133.9772 C 208.078 134.8206 207.6436 135.6142 207.141 136.3643 L 207.1222 136.3935 L 207.117 136.3973 C 206.9716 136.5094 206.8391 136.6532 206.68 136.7271 C 206.5222 136.8048 206.369 136.8968 206.2047 136.9363 C 205.8814 137.0445 205.5548 137.0963 205.2314 137.1294 C 204.9068 137.1611 204.584 137.1585 204.2639 137.1546 C 203.9438 137.1488 203.625 137.1248 203.3081 137.0892 C 203.9412 137.0121 204.5743 136.9545 205.1782 136.8029 C 205.4801 136.7361 205.7781 136.6513 206.0444 136.525 C 206.1879 136.4777 206.3002 136.3902 206.4223 136.3196 C 206.5476 136.2503 206.619 136.1369 206.7222 136.054 L 206.6982 136.0871 C 207.1287 135.3343 207.5079 134.5479 207.8202 133.7453 C 207.9741 133.343 208.1079 132.9349 208.2085 132.5267 C 208.2572 132.322 208.3007 132.116 208.3202 131.9139 C 208.3462 131.7105 208.3494 131.5104 208.3332 131.3225 C 208.3332 131.2163 208.3033 131.1638 208.2975 131.0789 C 208.2864 131.0355 208.2572 130.9792 208.2377 130.9299 L 208.2053 130.8541 C 208.2215 130.88 208.191 130.8438 208.1871 130.8418 C 208.1449 130.7362 207.9676 130.687 207.7988 130.6378 C 207.6137 130.6021 207.4092 130.5944 207.2001 130.6028 C 206.9904 130.6164 206.7787 130.6384 206.5645 130.6708 C 205.7087 130.8036 204.8496 131.031 203.9977 131.2862 " id="Fill-109" fill="#2A0D37" stroke-width="1"/>
          <g id="Group-114">
            <path d="M 133.6871 76.3584 C 133.6871 76.3584 126.7343 90.5996 114.9836 98.4917 C 103.2888 106.3463 98.7956 107.9438 97.7618 108.4782 C 96.9411 108.9025 96.0769 109.5749 95.8581 110.6548 C 95.5912 111.9711 95.9334 113.8497 97.1976 117.3044 C 97.9612 119.3936 101.2045 126.7785 101.2045 126.7785 C 101.2045 126.7785 102.0636 128.9376 103.181 129.2078 C 104.2979 129.4779 108.9288 128.2859 108.9288 128.2859 C 108.9288 128.2859 113.0941 127.1024 114.3973 128.0203 C 115.9823 129.1358 115.9985 132.2343 113.8908 137.0928 L 97.0632 137.0928 L 83.1639 109.0185 C 83.1639 109.0185 81.9595 106.7006 82.2666 105.2411 C 82.5737 103.7817 85.332 101.5688 86.7501 99.4634 C 88.1682 97.3581 96.782 85.3971 95.1886 65.6606 " id="Fill-111" fill="#3A314F" stroke-width="1"/>
            <path d="M 133.6871 76.3584 C 133.6871 76.3584 126.7343 90.5996 114.9836 98.4917 C 103.2888 106.3463 98.7956 107.9438 97.7618 108.4782 C 96.9411 108.9025 96.0769 109.5749 95.8581 110.6548 C 95.5912 111.9711 95.9334 113.8497 97.1976 117.3044 C 97.9612 119.3936 101.2045 126.7785 101.2045 126.7785 C 101.2045 126.7785 102.0636 128.9376 103.181 129.2078 C 104.2979 129.4779 108.9288 128.2859 108.9288 128.2859 C 108.9288 128.2859 113.0941 127.1024 114.3973 128.0203 C 115.9823 129.1358 115.9985 132.2343 113.8908 137.0928 L 97.0632 137.0928 L 83.1639 109.0185 C 83.1639 109.0185 81.9595 106.7006 82.2666 105.2411 C 82.5737 103.7817 85.332 101.5688 86.7501 99.4634 C 88.1682 97.3581 96.782 85.3971 95.1886 65.6606 " id="Stroke-113" stroke="#2A0D37" stroke-width="0.5" fill="none"/>
          </g>
          <path d="M 108.1375 131.2324 C 108.1375 131.2324 108.2856 131.167 108.5531 131.0789 C 108.8212 130.9979 109.2043 130.8684 109.6816 130.7745 C 109.9199 130.7259 110.1816 130.6825 110.464 130.6578 C 110.7471 130.6371 111.051 130.6203 111.3815 130.6702 C 111.549 130.7019 111.7237 130.7434 111.9081 130.8386 C 112.0035 130.8969 112.0808 130.9526 112.1866 131.0666 L 112.3236 131.2551 C 112.523 131.568 112.6509 131.9619 112.6632 132.311 C 112.6873 133.0327 112.4775 133.6792 112.2503 134.2441 C 112.0198 134.8102 111.7548 135.3045 111.5198 135.7223 C 111.2893 136.1421 111.0705 136.477 110.9322 136.7193 C 110.7887 136.959 110.6984 137.0931 110.6984 137.0931 C 110.6984 137.0931 110.7361 136.9363 110.8166 136.6681 C 110.9042 136.4025 111.0166 136.0164 111.1809 135.5688 C 111.338 135.1192 111.536 134.6016 111.7133 134.0497 C 111.8802 133.4997 112.049 132.9018 112.0152 132.3486 C 112.0061 132.061 111.9308 131.8336 111.81 131.6134 L 111.6789 131.4203 C 111.673 131.4294 111.6347 131.3776 111.6016 131.3562 C 111.5152 131.3031 111.3977 131.2622 111.2744 131.2286 C 110.7517 131.1204 110.1919 131.1307 109.7244 131.1424 C 109.2543 131.1618 108.8544 131.1754 108.5771 131.202 C 108.2972 131.2214 108.1375 131.2324 108.1375 131.2324 " id="Fill-115" fill="#2A0D37" stroke-width="1"/>
          <path d="M 209.8415 54.5493 C 209.8415 54.5493 209.0026 61.6213 212.9531 65.913 C 215.5932 68.7808 220.5825 69.4214 224.505 70.2046 C 228.4282 70.9872 231.9994 72.0664 233.0818 72.067 C 234.1097 72.067 238.8445 71.7969 239.8354 70.8421 C 241.2677 69.4622 243.6059 66.1015 243.6059 66.1015 C 243.6059 66.1015 244.526 64.6465 242.8482 63.4306 C 241.171 62.2147 235.3544 57.7883 235.3544 57.7883 C 235.3544 57.7883 234.8947 52.5249 234.7863 51.9043 C 234.6778 51.2831 234.3194 50.6178 231.5053 48.5662 C 228.6918 46.5153 224.1758 43.0321 223.6395 42.6797 C 222.7791 42.1141 221.7415 41.5052 220.3851 41.5991 " id="Fill-117" fill="#493C59" stroke-width="1"/>
          <path d="M 210.112 47.9967 C 210.6529 44.2718 206.4869 37.7666 210.7613 35.5265 C 215.0357 33.2864 220.4692 41.6366 221.4477 42.9361 C 222.8821 44.8386 223.9638 44.4746 223.9638 44.4746 L 223.8288 45.8304 C 223.8288 45.8304 220.4822 49.085 220.4199 49.1776 C 214.7656 57.6482 210.8964 50.284 210.7886 50.2031 C 210.6801 50.1221 210.112 47.9967 210.112 47.9967 " id="Fill-119" fill="#493C59" stroke-width="1"/>
          <path d="M 225.8335 44.3629 C 225.8335 44.3629 222.9901 35.709 219.3377 35.9791 C 216.8411 36.1631 216.4703 42.5646 216.8762 44.0766 C 217.282 45.5879 223.342 47.072 224.1537 45.6416 C 224.9653 44.2113 225.8335 44.3629 225.8335 44.3629 " id="Fill-121" fill="#493C59" stroke-width="1"/>
          <path d="M 209.7173 44.3629 C 209.7173 44.3629 203.3488 48.5302 199.1821 48.5302 C 191.4981 48.5302 191.6066 45.2912 187.1698 45.2912 C 187.1698 45.2912 184.4375 45.3177 176.6723 48.1253 C 168.9078 50.9322 156.2728 53.1457 145.7214 53.1457 C 135.1701 53.1457 112.1804 46.0517 96.428 48.3954 C 90.2595 49.3127 83.4404 56.3439 83.4404 56.3439 C 83.4404 56.3439 78.0303 60.8649 77.4356 62.5388 C 77.0882 63.5157 73.6475 82.9445 85.9033 86.1835 C 98.3591 89.475 105.5067 82.2727 111.0915 85.6432 C 124.5109 93.7407 133.5474 100.4351 147.9401 100.4351 C 162.3335 100.4351 181.9616 88.6626 185.2894 86.7095 C 188.7385 84.6851 211.1399 67.3163 218.8973 69.0239 " id="Fill-123" fill="#493C59" stroke-width="1"/>
          <path d="M 218.5788 48.4281 C 216.3874 49.8202 212.8057 48.1223 210.5792 44.6359 C 208.3527 41.1481 208.3248 37.192 210.5156 35.7993 C 212.7077 34.4071 216.2887 36.1057 218.5152 39.5921 C 220.7417 43.0786 220.7702 47.036 218.5788 48.4281 " id="Fill-125" fill="#6C5E7F" stroke-width="1"/>
          <path d="M 209.8415 54.5493 C 209.8415 54.5493 209.0026 61.6213 212.9531 65.913 C 215.5932 68.7808 220.5825 69.4214 224.505 70.2046 C 228.4282 70.9872 231.9994 72.0664 233.0818 72.067 C 234.1097 72.067 238.8445 71.7969 239.8354 70.8421 C 241.2677 69.4622 243.6059 66.1015 243.6059 66.1015 C 243.6059 66.1015 244.526 64.6465 242.8482 63.4306 C 241.171 62.2147 235.3544 57.7883 235.3544 57.7883 C 235.3544 57.7883 234.8947 52.5249 234.7863 51.9043 C 234.6778 51.2831 234.3194 50.6178 231.5053 48.5662 C 228.6918 46.5153 224.1758 43.0321 223.6395 42.6797 C 222.7791 42.1141 221.7415 41.5052 220.3851 41.5991 " id="Stroke-127" stroke="#2A0D37" stroke-width="0.5" fill="none"/>
          <path d="M 210.3828 49.3128 C 210.3828 49.3128 210.3931 49.1904 210.4126 48.9597 C 210.4191 48.7291 210.4237 48.3903 210.3763 47.9621 C 210.299 47.1031 210.0237 45.9015 209.6594 44.4692 C 209.3166 43.0343 208.827 41.3624 208.7452 39.4831 C 208.7263 38.5548 208.8237 37.528 209.3822 36.6509 C 209.6601 36.2182 210.0497 35.8535 210.4925 35.5879 C 210.5925 35.5218 210.7275 35.4454 210.8347 35.3942 C 210.9496 35.3417 211.0412 35.2724 211.1795 35.2348 C 211.4385 35.1364 211.7022 35.0975 211.9632 35.0645 C 213.0261 34.9783 214.0442 35.345 214.902 35.8399 C 215.7701 36.3354 216.5266 36.9567 217.2103 37.5954 C 218.5745 38.8819 219.6602 40.2488 220.5491 41.4394 C 220.9952 42.0296 221.3802 42.6068 221.7367 43.0622 C 222.1042 43.526 222.4646 43.8616 222.8048 44.0825 C 222.9704 44.1984 223.1411 44.2412 223.2639 44.3403 C 223.3931 44.429 223.5158 44.4919 223.6203 44.5275 C 223.8307 44.6046 223.9645 44.6026 223.9645 44.6026 C 223.9645 44.6026 223.856 44.6875 223.6028 44.7199 C 223.4768 44.7387 223.3178 44.7406 223.1301 44.7186 C 222.9334 44.7115 222.7619 44.5722 222.5587 44.464 C 222.1717 44.2159 221.7601 43.824 221.3815 43.3453 C 220.9971 42.8536 220.6302 42.2997 220.1842 41.7089 C 219.3043 40.5306 218.2304 39.1812 216.8993 37.9258 C 216.2331 37.3032 215.4987 36.7021 214.6767 36.2337 C 213.8631 35.7628 212.9294 35.4402 212.006 35.516 C 211.7762 35.549 211.5535 35.595 211.3444 35.6585 C 211.2405 35.6766 211.1178 35.7362 211.0041 35.7751 C 210.8808 35.8146 210.8009 35.8574 210.6938 35.9247 C 210.2886 36.1541 209.9373 36.4656 209.6789 36.8453 C 209.1588 37.6129 209.0302 38.5775 209.0263 39.4786 C 209.0568 41.306 209.5003 42.9935 209.8062 44.4349 C 210.1328 45.8769 210.3665 47.0941 210.4185 47.9582 C 210.4529 48.3897 210.4366 48.7304 210.4237 48.961 C 210.397 49.1904 210.3828 49.3128 210.3828 49.3128 " id="Fill-129" fill="#2A0D37" stroke-width="1"/>
          <path d="M 218.5788 48.4281 C 216.3874 49.8202 212.8057 48.1223 210.5792 44.6359 C 208.3527 41.1481 208.3248 37.192 210.5156 35.7993 C 212.7077 34.4071 216.2887 36.1057 218.5152 39.5921 C 220.7417 43.0786 220.7702 47.036 218.5788 48.4281 Z " id="Stroke-131" stroke="#2A0D37" stroke-width="0.5" fill="none"/>
          <path d="M 231.9588 58.5303 C 231.9588 58.5303 232.4978 56.2015 230.5661 55.2356 C 228.7772 54.3404 229.1161 54.5373 228.3876 54.1441 C 227.9032 53.8824 227.1026 53.2942 226.8124 52.6593 C 226.8124 52.6593 226.1189 55.9929 228.6311 56.9782 C 230.3148 57.6389 230.9823 57.8126 231.9588 58.5303 " id="Fill-133" fill="#FCBE8D" stroke-width="1"/>
          <path d="M 217.3984 37.9172 C 217.3984 37.9172 218.0393 36.1811 219.3379 35.979 C 220.6365 35.7762 223.3448 37.1567 225.8337 44.3628 " id="Stroke-135" stroke="#2A0D37" stroke-width="0.5" fill="none"/>
          <path d="M 209.7173 44.3629 C 209.7173 44.3629 203.3488 48.5302 199.1821 48.5302 C 191.4981 48.5302 191.6066 45.2912 187.1698 45.2912 C 187.1698 45.2912 184.4375 45.3177 176.6723 48.1253 C 168.9078 50.9322 156.2728 53.1457 145.7214 53.1457 C 135.1701 53.1457 112.1804 46.0517 96.428 48.3954 C 90.2595 49.3127 83.4404 56.3439 83.4404 56.3439 C 83.4404 56.3439 78.0303 60.8649 77.4356 62.5388 C 77.0882 63.5157 73.6475 82.9445 85.9033 86.1835 C 98.3591 89.475 105.5067 82.2727 111.0915 85.6432 C 124.5109 93.7407 133.5474 100.4351 147.9401 100.4351 C 162.3335 100.4351 181.9616 88.6626 185.2894 86.7095 C 188.7385 84.6851 211.1399 67.3163 218.8973 69.0239 " id="Stroke-137" stroke="#2A0D37" stroke-width="0.5" fill="none"/>
          <path d="M 231.2658 56.6689 C 231.1054 57.3147 230.5983 57.7449 230.1327 57.6296 C 229.6671 57.5149 229.4198 56.8982 229.5801 56.2523 C 229.7405 55.6065 230.2483 55.1763 230.7132 55.2916 C 231.1788 55.4063 231.4261 56.023 231.2658 56.6689 " id="Fill-139" fill="#2A0D37" stroke-width="1"/>
          <path d="M 231.9588 58.5303 C 231.9588 58.5303 232.2426 56.0603 230.6803 55.2913 C 228.8856 54.4077 229.1161 54.5373 228.3876 54.1441 C 227.9032 53.8824 227.1026 53.2942 226.8124 52.6593 C 226.8124 52.6593 226.1189 55.9929 228.6311 56.9782 C 230.3148 57.6389 230.9823 57.8126 231.9588 58.5303 Z " id="Stroke-141" stroke="#2A0D37" stroke-width="0.5" fill="none"/>
          <path d="M 243.4278 63.9744 C 243.4278 63.9744 240.6688 63.2359 240.2513 64.617 C 239.7371 66.3174 242.4713 67.3436 242.6336 67.4511 C 242.6336 67.4511 243.581 66.0862 243.7277 65.4267 C 243.9167 64.5768 243.4278 63.9744 243.4278 63.9744 " id="Fill-143" fill="#2A0D37" stroke-width="1"/>
          <g id="Group-148">
            <path d="M 203.9977 73.3892 C 203.9977 73.3892 185.452 89.7863 178.0654 99.868 C 172.9786 106.8117 166.9997 120.5775 166.155 123.4116 C 165.331 126.1725 164.6635 128.7488 167.1692 128.776 C 170.9229 128.8162 176.0772 128.0271 177.3959 128.614 C 178.8452 129.2593 176.7414 132.8034 175.8337 134.3633 C 174.5961 136.4887 174.2506 137.0892 170.071 137.0892 L 159.0729 137.0892 C 159.0729 137.0892 157.4496 137.2784 156.1107 134.8893 C 155.1309 133.1415 155.3666 132.2579 156.2321 128.0472 C 157.0977 123.8365 159.5735 107.2367 159.195 96.7637 C 159.195 96.7637 169.2594 84.0241 170.7742 73.8213 " id="Fill-145" fill="#493C59" stroke-width="1"/>
            <path d="M 203.9977 73.3892 C 203.9977 73.3892 185.452 89.7863 178.0654 99.868 C 172.9786 106.8117 166.9997 120.5775 166.155 123.4116 C 165.331 126.1725 164.6635 128.7488 167.1692 128.776 C 170.9229 128.8162 176.0772 128.0271 177.3959 128.614 C 178.8452 129.2593 176.7414 132.8034 175.8337 134.3633 C 174.5961 136.4887 174.2506 137.0892 170.071 137.0892 L 159.0729 137.0892 C 159.0729 137.0892 157.4496 137.2784 156.1107 134.8893 C 155.1309 133.1415 155.3666 132.2579 156.2321 128.0472 C 157.0977 123.8365 159.5735 107.2367 159.195 96.7637 C 159.195 96.7637 169.2594 84.0241 170.7742 73.8213 " id="Stroke-147" stroke="#2A0D37" stroke-width="0.5" fill="none"/>
          </g>
          <path d="M 168.9889 130.8545 C 168.9889 130.8545 169.2292 130.7838 169.6499 130.6601 C 170.072 130.5455 170.6758 130.3816 171.3998 130.1846 C 171.7634 130.0933 172.1569 129.9935 172.5738 129.8886 C 172.9777 129.7804 173.4705 129.6683 173.9964 129.7331 C 174.2568 129.7668 174.5639 129.8562 174.7951 130.1095 C 175.0308 130.3641 175.0853 130.7132 175.0698 130.9957 C 175.0438 131.2716 175.0262 131.4932 174.9951 131.7497 L 174.8483 132.5141 L 174.6678 133.2526 C 174.5938 133.4936 174.5198 133.7339 174.4464 133.9717 C 174.2893 134.4446 174.1231 134.9064 173.9289 135.3418 C 173.7244 135.7881 173.5672 136.1768 173.2315 136.6004 C 172.7887 136.9684 172.368 136.9995 171.9855 137.074 C 171.2213 137.188 170.5901 137.1498 170.1512 137.142 C 169.7116 137.1232 169.4623 137.0895 169.4623 137.0895 C 169.4623 137.0895 169.711 137.061 170.146 137.0111 C 170.5784 136.9632 171.2005 136.8712 171.9082 136.6976 C 172.2433 136.605 172.666 136.4715 172.8692 136.2597 C 173.0348 135.9909 173.227 135.5335 173.3828 135.1209 C 173.54 134.6901 173.6939 134.2405 173.8393 133.7799 C 173.9783 133.3167 174.1088 132.8458 174.2295 132.3722 L 174.3776 131.6733 C 174.4146 131.4336 174.4516 131.1952 174.488 130.9581 C 174.5321 130.5416 174.3308 130.3317 173.9146 130.2539 C 173.5081 130.182 173.0919 130.2449 172.6653 130.3317 C 172.2407 130.3991 171.8394 130.4625 171.4693 130.5208 C 170.7258 130.6251 170.107 130.7119 169.6733 130.7728 C 169.2376 130.8247 168.9889 130.8545 168.9889 130.8545 " id="Fill-149" fill="#2A0D37" stroke-width="1"/>
          <g id="Group-154">
            <path d="M 114.1218 76.3584 C 114.1218 76.3584 105.4158 90.5996 92.6944 98.4917 C 80.0328 106.3463 75.3421 107.9438 74.2428 108.4782 C 73.3701 108.9025 72.4234 109.5749 72.0715 110.6548 C 71.643 111.9711 71.754 113.8497 72.5929 117.3044 C 73.0994 119.3936 75.4337 126.7785 75.4337 126.7785 C 75.4337 126.7785 76.0271 128.9376 77.1108 129.2078 C 78.1945 129.4779 82.9722 128.2859 82.9722 128.2859 C 82.9722 128.2859 87.2837 127.1024 88.4738 128.0203 C 89.9212 129.1358 89.5563 132.2343 86.8506 137.0928 L 70.0223 137.0928 L 59.5793 109.0185 C 59.5793 109.0185 58.6592 106.7006 59.1462 105.2411 C 59.6332 103.7817 62.6636 101.5688 64.3408 99.4634 C 66.0186 97.3581 76.1037 85.3971 76.9394 65.6606 " id="Fill-151" fill="#493C59" stroke-width="1"/>
            <path d="M 114.1218 76.3584 C 114.1218 76.3584 105.4158 90.5996 92.6944 98.4917 C 80.0328 106.3463 75.3421 107.9438 74.2428 108.4782 C 73.3701 108.9025 72.4234 109.5749 72.0715 110.6548 C 71.643 111.9711 71.754 113.8497 72.5929 117.3044 C 73.0994 119.3936 75.4337 126.7785 75.4337 126.7785 C 75.4337 126.7785 76.0271 128.9376 77.1108 129.2078 C 78.1945 129.4779 82.9722 128.2859 82.9722 128.2859 C 82.9722 128.2859 87.2837 127.1024 88.4738 128.0203 C 89.9212 129.1358 89.5563 132.2343 86.8506 137.0928 L 70.0223 137.0928 L 59.5793 109.0185 C 59.5793 109.0185 58.6592 106.7006 59.1462 105.2411 C 59.6332 103.7817 62.6636 101.5688 64.3408 99.4634 C 66.0186 97.3581 76.1037 85.3971 76.9394 65.6606 " id="Stroke-153" stroke="#2A0D37" stroke-width="0.5" fill="none"/>
          </g>
          <path d="M 81.8184 131.2324 C 81.8184 131.2324 81.9697 131.1677 82.2417 131.0796 C 82.5157 130.9986 82.906 130.869 83.3917 130.7751 C 83.6339 130.7265 83.9007 130.6825 84.1877 130.6578 C 84.476 130.6371 84.7851 130.6196 85.1247 130.676 L 85.3896 130.7414 C 85.4838 130.7861 85.5779 130.8166 85.6721 130.8833 C 85.7188 130.9228 85.7662 130.9649 85.8104 131.0083 L 85.8435 131.0413 L 85.8519 131.0498 C 85.8604 131.0627 85.8376 131.0264 85.8727 131.0802 L 85.8746 131.0835 L 85.8824 131.0958 L 85.9136 131.1456 C 85.9552 131.2156 85.9954 131.2752 86.035 131.3555 C 86.2188 131.7585 86.224 132.1238 86.196 132.4892 C 86.1545 132.8513 86.0428 133.1784 85.9292 133.4933 C 85.8104 133.8055 85.6597 134.0925 85.5149 134.3658 C 85.2182 134.9094 84.9026 135.3848 84.6234 135.7839 C 84.3487 136.1862 84.0949 136.5049 83.9312 136.7368 C 83.7631 136.9661 83.6579 137.0931 83.6579 137.0931 C 83.6579 137.0931 83.7124 136.9383 83.8209 136.6746 C 83.9371 136.4148 84.0897 136.0352 84.3007 135.598 C 84.5059 135.1633 84.7455 134.6561 85.0026 134.1126 C 85.1266 133.8431 85.2338 133.5587 85.3409 133.2763 C 85.437 132.9919 85.5253 132.6997 85.5513 132.4166 C 85.587 132.1433 85.5591 131.8446 85.4876 131.6587 C 85.4597 131.5959 85.4123 131.5227 85.3766 131.4546 L 85.3493 131.4022 L 85.3422 131.3892 L 85.3403 131.386 C 85.374 131.4372 85.3487 131.3996 85.3565 131.4106 L 85.3532 131.4093 L 85.3435 131.4022 C 85.3312 131.3918 85.3214 131.3808 85.3117 131.3659 C 85.2825 131.3393 85.2253 131.3186 85.1857 131.2895 L 85.0078 131.2324 C 84.4838 131.1171 83.9085 131.132 83.4345 131.1431 C 82.9553 131.1625 82.5488 131.1767 82.2657 131.2026 C 81.9813 131.2214 81.8184 131.2324 81.8184 131.2324 " id="Fill-155" fill="#2A0D37" stroke-width="1"/>
        </g>
      </g>
    </g>
  </g>
</svg>