<svg xmlns="http://www.w3.org/2000/svg" xmlns:xlink="http://www.w3.org/1999/xlink" version="1.1" width="123.28174591064453" height="194.98179626464844" viewBox="-0.36454886198043823 -0.00665619969367981 123.28174591064453 194.98179626464844">
  <!-- Exported by Scratch - http://scratch.mit.edu/ -->
  <g id="space">
    <g id="101-d">
      <g id="101-back">
        <g id="Group">
          <path id="Shape" fill="#AFD7F2" stroke="none" stroke-width="1" d="M 101.475 91.2 L 98.325 94.425 L 95.411 95.475 L 89.625 95.475 L 82.95 92.475 L 79.575 89.651 L 77.371 86.175 L 75.3 82.95 L 72.525 82.95 L 71.163 83.7 L 71.85 86.775 L 74.55 92.475 C 74.55 92.475 79.35 98.1 79.425 98.325 C 79.5 98.55 84.9 101.625 84.9 101.625 L 92.325 103.35 L 99.225 101.475 L 103.875 97.65 L 105.975 94.125 L 101.475 91.2 Z "/>
          <path id="Shape" fill="#EF463C" stroke="none" stroke-width="1" d="M 106.685 79.8 L 105.975 77.25 L 104.325 77.25 L 102.15 77.775 L 100.875 80.55 L 99.675 84 L 100.5 88.592 L 101.844 91.44 L 106.685 94.275 L 111.6 94.725 L 116.7 91.65 L 118.425 87.525 L 117.45 84 L 115.35 83.55 L 113.4 84 L 111.375 85.987 L 109.35 87.525 L 107.4 87.15 L 105.975 85.725 L 106.685 79.8 "/>
          <path id="Shape" fill="#30419A" stroke="none" stroke-width="1" d="M 76.765 87.331 C 76.803 87.414 76.849 87.492 76.901 87.563 C 77.124 87.863 77.265 88.165 77.45 88.496 C 77.804 89.128 78.193 89.82 78.722 90.325 C 79.024 90.613 79.61 91.265 79.996 91.358 C 79.896 91.973 79.121 92.843 78.712 93.311 C 78.44 93.624 77.9 94.146 77.431 94.046 C 77.02 93.958 76.6 93.261 76.394 92.941 C 75.826 92.061 75.298 91.046 74.98 90.046 C 74.835 89.591 74.649 89.15 74.494 88.699 C 74.35 88.281 74.284 87.826 74.083 87.463 C 73.7 86.772 73.079 86.378 72.343 86.11 C 72.063 86.008 71.791 85.982 71.557 86.183 C 71.119 86.56 71.152 87.074 71.173 87.614 C 71.213 88.663 71.716 89.668 72.143 90.6 C 72.659 91.73 73.192 92.878 73.964 93.861 C 74.357 94.361 74.774 94.843 75.197 95.318 C 75.585 95.753 75.93 96.202 76.283 96.652 C 76.51 96.94 76.811 97.204 77.071 97.463 C 77.567 97.958 78.156 98.305 78.698 98.737 C 79.517 99.389 80.381 99.946 81.263 100.504 C 81.779 100.831 82.294 101.163 82.833 101.451 C 83.149 101.62 83.459 101.797 83.77 101.975 C 84.263 102.256 84.794 102.473 85.316 102.696 C 86.959 103.397 88.696 103.904 90.49 103.977 C 90.994 103.997 91.501 103.985 92.003 103.937 C 95.2 103.637 98.393 103.517 101.132 101.572 C 101.825 101.08 102.473 100.507 103.073 99.901 C 104.149 98.816 105.158 97.664 106.226 96.571 C 106.566 96.223 107.15 95.63 107.374 95.726 C 109.158 96.491 111.692 95.935 113.387 95.151 C 115.12 94.349 116.641 93.107 117.788 91.615 C 119.02 90.015 119.983 88.183 119.551 86.013 C 119.15 83.998 118.183 82.441 115.962 82.079 C 114.236 81.798 113.145 82.78 112.158 84.014 C 111.623 84.683 111.076 85.441 110.358 85.836 C 109.623 86.24 108.673 86.354 107.815 86.363 C 107.588 86.365 107.141 85.502 107.159 85.049 C 107.227 83.287 107.368 81.518 107.621 79.773 C 107.881 77.98 107.486 76.832 106.079 75.995 C 104.851 75.264 102.862 75.432 101.738 76.339 C 100.401 77.419 99.596 78.831 99.226 80.476 C 98.777 82.473 98.242 84.502 98.897 86.537 C 99.366 87.995 100.025 89.392 100.643 90.928 C 99.996 91.533 99.309 92.275 98.518 92.881 C 97.993 93.282 97.304 93.462 96.715 93.788 C 94.604 94.959 92.4 95.096 90.052 94.661 C 87.257 94.143 84.935 92.74 82.759 91.054 C 81.988 90.456 81.25 89.86 80.557 89.181 C 80.138 88.77 79.653 88.418 79.298 87.945 C 78.949 87.478 79.018 86.938 78.653 86.464 C 78.379 86.108 78.011 85.524 77.531 85.499 C 76.801 85.462 76.504 86.024 76.588 86.684 C 76.616 86.897 76.67 87.128 76.765 87.331 Z M 102.437 79.031 C 103.099 77.948 104.128 77.65 105.193 78.289 C 105.483 78.464 105.707 79.069 105.658 79.436 C 105.397 81.401 104.968 83.344 104.735 85.311 C 104.392 88.213 106.492 89.825 109.375 89.357 C 111.687 88.982 112.665 87.167 114.072 85.801 C 114.672 85.217 115.186 84.617 116.072 84.805 C 117.047 85.012 117.179 85.909 117.269 86.681 C 117.511 88.737 116.531 90.234 114.934 91.412 C 114.33 91.858 113.82 92.5 113.152 92.779 C 110.665 93.819 108.104 94.195 105.646 92.742 C 104.58 92.111 103.605 91.279 102.709 90.415 C 101.061 88.825 101.149 86.605 100.777 85 C 100.786 82.555 101.402 80.723 102.437 79.031 Z M 98.412 95.375 C 98.71 94.769 99.697 94.226 100.225 93.793 C 100.588 93.494 101.45 92.393 101.956 92.431 C 102.142 92.445 102.587 93.086 102.748 93.23 C 103.42 93.83 104.011 94.538 104.846 94.91 C 104.668 95.641 103.768 96.593 103.256 97.12 C 102.536 97.863 101.65 98.362 100.89 99.019 C 100.672 99.208 100.525 99.441 100.303 99.62 C 100.006 99.862 99.644 99.97 99.398 100.285 C 99.283 99.661 99.292 98.955 99.181 98.302 C 99.134 98.024 99.065 97.757 98.956 97.508 C 98.667 96.856 98.038 96.137 98.412 95.375 Z M 89.005 97.006 C 89.977 96.964 90.963 96.999 91.938 97 C 93.001 97.001 93.979 96.839 95.037 96.8 C 95.445 96.785 96.024 96.592 96.377 96.809 C 96.515 96.893 96.799 97.414 96.889 97.595 C 97.308 98.443 97.818 99.765 97.601 100.712 C 97.44 101.412 96.059 101.69 95.356 101.795 C 94.036 101.992 92.668 102.051 91.331 102.051 C 90.52 102.051 89.833 101.805 89.044 101.662 C 88.522 101.568 88.076 101.507 87.601 101.251 L 87.451 101.001 C 87.998 100.37 88.585 99.379 88.774 98.563 C 88.885 98.086 88.897 97.511 89.005 97.006 Z M 81.611 92.992 C 82.147 92.869 83.05 93.697 83.479 93.959 C 84.277 94.447 85.091 94.907 85.909 95.376 C 86.41 95.664 86.951 95.942 87.491 96.158 C 87.542 96.334 87.555 96.524 87.539 96.721 C 87.476 97.522 86.945 98.447 86.636 99.086 C 86.217 99.956 85.502 100.66 84.526 100.268 C 83.561 99.88 82.719 99.252 81.887 98.641 C 81.037 98.018 79.952 97.447 79.369 96.537 C 78.937 95.864 79.576 95.551 79.967 95.021 C 80.303 94.562 81.01 93.131 81.611 92.992 Z "/>
        </g>
        <g id="Group">
          <path id="Shape" fill="#AFD7F2" stroke="none" stroke-width="1" d="M 46.425 86.775 L 44.325 90.375 L 39.075 93.6 L 32.85 95.7 L 25.5 94.725 L 20.7 92.625 L 16.425 96.15 L 18.525 98.775 L 24 101.7 L 30.525 102.825 L 36.975 101.475 L 43.875 98.25 L 50.297 92.25 L 52.5 88.592 L 52.5 86.311 L 51.375 84 L 49.35 84 C 49.35 84 47.325 84.758 47.25 84.754 C 47.175 84.75 46.425 86.775 46.425 86.775 Z "/>
          <path id="Shape" fill="#EF463C" stroke="none" stroke-width="1" d="M 22.275 89.762 L 20.063 93.15 L 16.425 95.475 C 16.425 95.475 12.6 96.375 12.3 96.45 C 12 96.525 7.8 95.1 7.8 95.1 L 4.425 90.15 L 4.425 85.875 L 6.225 85.125 L 9.15 86.7 L 11.475 89.1 L 14.025 89.762 L 16.425 89.25 L 17.775 87.15 L 16.875 81.975 C 16.875 81.975 16.275 78.375 16.425 78.075 C 16.575 77.775 18.6 76.425 18.6 76.425 L 21.15 77.025 L 23.25 80.925 L 23.25 84.754 L 22.275 89.762 Z "/>
          <path id="Shape" fill="#30419A" stroke="none" stroke-width="1" d="M 51.089 88.433 C 51.015 88.794 50.953 89.146 50.864 89.442 C 50.768 89.762 50.651 90.074 50.541 90.389 C 49.906 92.204 48.116 93.302 46.898 94.663 C 46.634 94.96 46.42 95.135 46.101 95.35 C 45.878 95.5 45.389 95.933 45.116 95.935 C 44.902 95.936 44.859 95.905 44.806 95.789 C 44.78 95.732 44.751 95.654 44.698 95.55 C 44.388 94.939 44.06 94.482 43.546 94.04 C 43.108 93.665 42.728 93.194 42.305 92.788 C 42.573 93.045 45.427 90.59 45.775 90.324 C 46.282 89.938 46.743 89.448 47.156 88.964 C 47.515 88.545 47.407 87.992 47.375 87.475 C 47.348 87.027 47.213 86.456 46.819 86.201 C 46.362 85.906 45.778 86.005 45.455 86.419 C 45.199 86.747 45.006 87.17 44.834 87.551 C 44.542 88.201 44.23 88.69 43.68 89.14 C 43.164 89.563 42.577 89.885 42.001 90.217 C 40.334 91.18 38.684 92.171 36.994 93.092 C 34.875 94.246 32.494 94.787 30.085 94.67 C 28.454 94.592 26.681 94.244 25.157 93.644 C 23.882 93.143 22.615 92.616 22.937 91.195 C 23.357 89.341 24.278 87.723 24.469 85.777 C 24.649 83.933 24.372 82.099 23.707 80.374 C 22.781 77.974 21.608 75.572 18.43 75.492 C 16.923 75.455 14.784 76.546 14.938 78.395 C 15.068 79.973 15.651 81.652 15.954 83.245 C 16.181 84.437 16.608 86.554 16.022 87.676 C 15.257 89.144 13.627 89.153 12.367 88.296 C 11.684 87.832 11.047 87.286 10.453 86.71 C 9.539 85.826 8.626 84.978 7.505 84.362 C 6.709 83.924 5.539 83.622 4.721 84.17 C 3.914 84.709 3.154 85.644 2.916 86.595 C 2.533 88.129 3.103 89.386 3.629 90.789 C 5.157 94.861 10.396 98.569 15.216 97.238 C 15.625 97.125 16.266 97.369 16.627 97.661 C 17.602 98.452 18.376 99.532 19.424 100.181 C 21.366 101.38 23.236 102.609 25.618 103.142 C 29.854 104.09 33.972 104.108 38.008 102.695 C 41.115 101.607 43.978 99.922 46.498 97.809 C 47.587 96.896 48.613 95.909 49.58 94.87 C 50.041 94.374 50.512 93.887 50.965 93.385 C 51.353 92.956 51.711 92.595 52.039 92.123 C 52.211 91.876 52.376 91.619 52.494 91.343 C 52.784 90.662 53.178 90.058 53.225 89.301 C 53.243 89.009 53.35 88.732 53.372 88.438 C 53.398 88.105 53.374 87.77 53.372 87.437 C 53.368 86.773 52.915 85.996 52.136 86.432 C 51.467 86.807 51.25 87.641 51.089 88.433 Z M 12.907 95.515 C 10.808 95.731 9.364 94.623 7.941 93.5 C 6.407 92.289 5.741 90.544 5.168 88.766 C 5.039 88.364 5.034 87.887 5.099 87.464 C 5.239 86.566 6.062 86.132 6.809 86.651 C 7.867 87.389 8.864 88.231 9.808 89.113 C 11.166 90.381 12.535 91.556 14.525 91.64 C 16.251 91.713 17.465 90.955 17.963 89.318 C 18.345 88.067 18.817 86.793 18.879 85.51 C 18.928 84.5 18.378 83.47 18.162 82.434 C 17.924 81.295 17.684 80.145 17.618 78.99 C 17.597 78.627 18.079 77.99 18.429 77.911 C 18.91 77.801 19.654 77.929 19.989 78.257 C 21.648 79.886 22.22 81.982 22.419 84.256 C 22.713 87.633 21.368 90.356 19.178 92.729 C 17.771 94.252 14.917 95.402 12.907 95.515 Z M 25.251 96.674 C 25.082 97.605 25.018 98.523 24.623 99.394 C 24.376 99.937 24.208 100.379 23.562 100.448 C 22.464 100.564 21.592 99.706 20.727 99.164 C 20.039 98.734 19.498 98.208 18.936 97.636 C 18.692 97.388 17.701 96.74 17.945 96.284 C 17.975 96.23 18.115 96.14 18.286 96.043 C 18.556 95.891 18.899 95.723 19.001 95.651 C 19.364 95.394 19.733 95.143 20.033 94.812 C 20.785 93.978 21.545 93.957 22.449 94.49 C 22.976 94.802 23.572 95.144 24.158 95.402 C 24.425 95.519 24.896 95.582 25.118 95.752 C 25.453 96.007 25.33 96.237 25.251 96.674 Z M 33.009 101.666 C 32.024 102.121 30.727 101.96 29.692 101.797 C 28.908 101.674 26.23 101.621 26.051 100.85 C 25.986 100.573 26.144 100.346 26.201 100.088 C 26.29 99.685 26.714 96.413 27.095 96.432 C 28.908 96.528 30.724 96.559 32.519 96.769 C 32.929 96.817 33.467 97.423 33.595 97.873 C 33.95 99.124 34.558 100.952 33.009 101.666 Z M 42.498 98.08 C 42.239 98.866 40.76 99.38 40.093 99.713 C 39.303 100.108 36.188 101.526 36.074 99.778 C 36.007 98.741 36.197 97.695 35.764 96.692 C 35.509 96.101 35.292 95.95 35.947 95.583 C 36.361 95.351 36.836 95.283 37.26 95.077 C 37.997 94.716 38.716 94.335 39.499 94.07 C 40.046 93.886 40.285 94.076 40.622 94.486 C 40.643 94.512 40.666 94.54 40.688 94.568 C 41.131 95.119 41.498 95.726 41.833 96.348 C 42.077 96.803 42.661 97.585 42.498 98.08 Z "/>
        </g>
        <g id="Group">
          <path id="Shape" fill="#AFD7F2" stroke="none" stroke-width="1" d="M 53.85 86.85 L 51.9 95.475 L 51.525 105.525 L 52.688 110.756 L 57.675 118.5 L 61.875 119.325 L 66.9 119.7 L 71.163 117.525 L 74.85 111.3 L 76.275 102.825 L 75.3 95.025 L 73.265 89.762 L 72.11 83.178 L 68.849 80.475 C 68.849 80.475 64.649 79.35 64.274 79.425 C 63.899 79.5 58.199 78.893 57.974 79.421 C 57.749 79.95 54.149 82.95 54.149 82.95 L 53.85 86.85 Z "/>
          <path id="Shape" fill="#EF463C" stroke="none" stroke-width="1" d="M 68.325 120.525 L 58.125 119.7 L 55.2 134.25 L 56.475 135.45 L 71.163 134.775 L 73.2 133.35 L 68.325 120.525 "/>
          <path id="Shape" fill="#30419A" stroke="none" stroke-width="1" d="M 71.787 87.753 C 72.061 88.307 72.223 88.874 72.402 89.474 C 72.61 90.168 72.712 90.887 72.864 91.594 C 73.131 92.836 73.399 94.117 73.708 95.358 C 74.052 96.74 74.43 98.131 74.578 99.541 C 74.791 101.557 74.899 103.593 74.876 105.619 C 74.859 107.111 73.514 108.455 71.985 108.929 C 67.888 110.198 63.745 110.246 59.57 109.428 C 57.98 109.116 56.407 108.715 54.813 108.421 C 53.389 108.158 53.095 107.134 52.879 105.932 C 52.16 101.918 52.394 97.957 53.398 94.02 C 53.723 92.747 54.049 91.474 54.344 90.193 C 54.467 89.659 54.572 89.189 54.808 88.702 C 55.024 88.256 54.941 87.63 54.819 87.165 C 54.738 86.858 54.643 86.318 54.327 86.179 C 54.068 86.066 53.583 86.126 53.327 86.227 C 52.853 86.413 52.715 86.856 52.54 87.287 C 52.234 88.033 52.013 88.8 51.853 89.591 C 51.71 90.296 51.585 91.01 51.449 91.718 C 51.357 92.203 51.257 92.703 51.187 93.189 C 51.133 93.56 51.164 93.938 51.097 94.309 C 50.9 95.401 50.6 96.482 50.483 97.582 C 49.877 103.272 50.778 108.676 52.842 113.966 C 53.212 114.916 53.755 115.849 54.456 116.602 C 55.219 117.422 56.231 118.61 57.244 119.103 C 57.292 119.748 57.021 120.509 56.89 121.144 C 56.684 122.145 56.454 123.14 56.239 124.139 C 55.864 125.888 55.618 127.702 55.09 129.407 C 54.68 130.733 54.656 132.117 54.153 133.397 C 53.722 134.495 54.044 135.567 55.22 135.95 C 56.409 136.337 57.633 136.79 58.903 136.756 C 63.037 136.642 67.169 136.4 71.299 136.16 C 72.991 136.062 74.465 134.888 74.398 133.63 C 74.345 132.661 74.079 131.675 73.745 130.756 C 72.456 127.211 71.102 123.689 69.755 120.112 C 69.73 120.047 71.09 118.975 71.227 118.792 C 71.572 118.334 71.932 118.096 72.365 117.711 C 72.953 117.19 73.438 116.68 73.909 116.042 C 74.531 115.199 75.185 114.392 75.589 113.42 C 76.478 111.274 77.213 109.229 77.296 106.87 C 77.36 105.017 77.431 103.159 77.282 101.309 C 77.206 100.352 77.036 99.405 76.812 98.472 C 76.745 98.192 76.636 97.92 76.586 97.635 C 76.55 97.426 76.605 97.235 76.577 97.031 C 76.498 96.461 76.271 95.927 76.083 95.387 C 75.927 94.94 75.937 94.514 75.796 94.064 C 75.641 93.568 75.533 93.068 75.404 92.566 C 75.217 91.829 74.951 91.115 74.686 90.403 C 74.461 89.798 74.441 89.132 74.255 88.504 C 73.918 87.365 73.533 85.918 72.553 85.144 C 72.338 84.974 71.963 84.664 71.676 84.778 C 71.379 84.896 71.063 85.405 71.003 85.706 C 70.864 86.396 71.363 86.975 71.674 87.537 C 71.713 87.61 71.751 87.681 71.787 87.753 Z M 60.069 123.503 C 59.868 125.774 59.643 128.044 59.394 130.312 C 59.297 131.198 59.201 132.086 59.077 132.969 C 59.04 133.229 59.033 133.563 58.89 133.798 C 58.851 133.863 58.801 133.92 58.738 133.966 C 58.343 134.254 57.266 134.123 56.914 133.853 C 56.447 133.497 56.476 132.93 56.501 132.397 C 56.521 131.979 56.645 131.698 56.739 131.317 C 56.862 130.823 56.794 130.307 56.839 129.805 C 56.915 128.948 57.084 128.021 57.301 127.186 C 57.557 126.199 57.786 125.257 58.1 124.29 C 58.382 123.422 58.57 122.54 58.822 121.671 C 59.067 120.83 59.523 121.198 60.245 121.158 C 60.241 121.937 60.137 122.726 60.069 123.503 Z M 65.01 133.376 C 64.872 133.679 64.584 133.828 64.032 133.862 C 63.365 133.904 62.01 134.184 61.488 133.675 C 61.193 133.387 61.18 133.172 61.199 132.775 C 61.256 131.545 61.309 130.303 61.351 129.064 C 61.4 127.597 61.761 126.191 61.802 124.714 C 61.82 124.046 61.864 123.379 61.964 122.719 C 62.004 122.458 62.007 121.953 62.153 121.733 C 62.348 121.441 62.524 121.49 62.906 121.492 C 63.116 121.493 63.42 121.43 63.616 121.507 C 63.966 121.646 63.952 121.866 64.009 122.275 C 64.105 122.951 64.08 123.64 64.216 124.312 C 64.455 125.496 64.384 126.71 64.603 127.888 C 64.884 129.406 65.086 130.979 65.122 132.524 C 65.129 132.889 65.105 133.169 65.01 133.376 Z M 70.261 128.717 C 70.595 129.629 70.977 130.493 71.386 131.372 C 71.6 131.833 71.823 132.404 71.575 132.811 C 71.507 132.923 71.403 133.024 71.254 133.105 C 70.718 133.398 69.611 133.451 69.024 133.428 C 68.144 133.394 67.861 132.836 67.561 132.087 C 67.381 131.633 67.157 131.155 67.028 130.678 C 66.653 129.294 66.334 127.929 66.067 126.529 C 65.807 125.159 65.592 123.782 65.347 122.41 C 65.25 121.864 65.066 121.498 65.642 121.284 C 65.995 121.153 66.758 121.159 67.109 121.304 C 67.526 121.477 67.754 122.205 67.907 122.574 C 68.744 124.602 69.508 126.658 70.261 128.717 Z M 65.433 118.405 C 60.037 119.039 56.574 116.092 54.79 110.929 C 61.026 112.532 67.19 113.507 73.459 111.274 C 72.031 115.205 69.365 117.943 65.433 118.405 Z "/>
        </g>
        <g id="Group">
          <path id="Shape" fill="#FFFFFF" stroke="none" stroke-width="1" d="M 82.425 161.4 L 69.975 145.8 L 69.15 147.225 L 75.3 170.7 L 71.4 169.5 L 67.725 169.35 L 64.8 171.225 L 63.45 174.3 L 64.725 177.825 L 67.2 181.35 L 70.425 182.85 L 70.65 186.15 L 71.925 189.75 L 74.625 192.225 L 78 193.425 L 80.7 192.75 L 84.437 190.35 L 87.975 191.625 C 87.975 191.625 91.65 191.625 91.875 191.625 C 92.1 191.625 96.3 189.075 96.3 189.075 L 97.8 186.375 L 98.175 181.95 L 100.35 180.375 L 104.55 176.4 L 105.375 172.35 L 105.375 169.125 L 102.975 166.575 L 100.95 165.225 L 96.075 164.625 L 95.025 160.5 L 92.625 157.95 L 89.325 156.825 L 86.55 157.05 L 83.55 158.85 L 82.425 161.4 Z "/>
          <path id="Shape" fill="#30419A" stroke="none" stroke-width="1" d="M 97.551 163.526 C 96.751 163.506 96.577 163.265 96.581 162.472 C 96.604 159.113 94.628 156.643 91.307 156.07 C 87.666 155.442 84.337 155.924 82.073 159.654 C 81.58 158.843 81.176 158.036 80.641 157.327 C 78.937 155.067 77.299 152.742 75.419 150.635 C 73.565 148.558 72.218 146.073 70.127 144.198 C 69.967 144.054 69.962 143.738 69.805 143.586 C 69.537 143.328 69.106 142.891 68.921 142.966 C 68.528 143.128 68.042 143.525 67.965 143.903 C 67.816 144.628 67.806 145.431 67.946 146.161 C 68.654 149.867 69.357 153.575 70.205 157.25 C 70.819 159.913 71.686 162.517 72.383 165.162 C 72.679 166.28 72.832 167.435 73.047 168.559 C 72.797 168.626 72.716 168.674 72.648 168.66 C 72.493 168.628 72.342 168.572 72.194 168.515 C 70.495 167.86 68.812 167.638 66.989 168.169 C 64.984 168.753 61.783 173.045 62.231 175.078 C 62.72 177.29 63.299 179.532 65.309 180.991 C 66.34 181.737 67.28 182.659 68.405 183.211 C 69.539 183.767 69.682 184.6 69.665 185.624 C 69.616 188.612 70.667 190.961 73.21 192.744 C 76.511 195.058 80.972 195.111 84.097 192.547 C 84.703 192.049 85.221 191.945 85.942 192.193 C 87.095 192.59 88.26 192.991 89.453 193.216 C 91.519 193.605 93.066 192.218 94.789 191.459 C 98.884 189.658 100.314 185.811 99.902 182.14 C 102.403 181.103 104.268 179.396 105.386 177.002 C 106.55 174.509 107.276 171.916 106.042 169.19 C 104.388 165.537 101.557 163.628 97.551 163.526 Z M 104.059 173.933 C 103.588 176.546 102.152 178.479 99.886 179.855 C 99.207 180.268 98.832 180.087 98.228 179.68 C 97.327 179.072 96.301 178.58 95.258 178.288 C 94.817 178.164 93.974 178.526 93.707 178.929 C 93.199 179.695 93.734 181.09 94.571 181.49 C 95.21 181.796 95.9 182.042 96.595 182.177 C 97.52 182.356 97.729 182.876 97.624 183.718 C 97.256 186.682 95.851 188.815 93.004 190.007 C 91.645 190.575 90.417 191.502 88.841 191.171 C 87.956 190.985 87.089 190.702 86.233 190.408 C 86.081 190.355 85.985 190.037 85.931 189.826 C 85.459 187.993 85.022 186.151 84.53 184.323 C 84.328 183.574 83.751 183.128 82.99 183.353 C 82.214 183.581 81.942 184.213 82.11 185.053 C 82.39 186.452 82.688 187.858 82.809 189.275 C 82.849 189.745 82.496 190.424 82.104 190.729 C 78.687 193.385 76.06 192.565 73.282 190.239 C 72.64 189.7 72.232 188.777 71.939 187.954 C 71.624 187.067 71.501 186.095 71.42 185.149 C 71.282 183.53 71.997 182.486 73.599 182.358 C 74.513 182.285 74.663 181.721 74.842 181.199 C 74.937 180.923 74.624 180.293 74.333 180.149 C 73.847 179.909 73.208 179.788 72.677 179.878 C 72.121 179.972 71.615 180.373 71.09 180.641 C 69.352 181.53 68.627 181.549 67.39 180.166 C 66.371 179.027 65.549 177.68 64.798 176.338 C 64.181 175.235 64.548 174.103 65.218 173.086 C 65.349 172.888 65.495 172.698 65.614 172.493 C 66.897 170.28 69.148 169.474 71.486 170.516 C 72.478 170.957 73.335 171.697 74.308 172.195 C 74.791 172.444 75.659 172.729 75.886 172.51 C 76.264 172.146 76.485 171.353 76.388 170.81 C 76.132 169.382 75.668 167.993 75.29 166.589 C 74.129 162.272 72.969 157.954 71.808 153.638 C 71.385 152.066 70.956 150.496 70.546 148.919 C 70.493 148.714 70.539 148.483 70.539 148.263 C 70.628 148.216 70.719 148.169 70.809 148.123 C 72.185 149.845 73.571 151.561 74.933 153.295 C 75.57 154.108 76.161 154.959 76.77 155.796 C 78.08 157.597 79.562 159.304 80.631 161.238 C 81.241 162.342 81.781 163.379 82.868 164.003 C 83.219 164.206 83.809 164.297 84.139 164.134 C 84.38 164.013 84.508 163.379 84.459 163.001 C 84.13 160.455 85.193 158.911 87.704 158.3 C 89.404 157.886 91.048 157.595 92.599 158.794 C 94.436 160.212 94.927 163.604 93.37 165.33 C 92.614 166.169 92.602 166.775 93.313 167.569 C 94.078 168.422 95.014 168.33 95.679 167.403 C 96.142 166.756 96.775 165.765 97.348 165.753 C 98.804 165.726 100.556 165.74 101.674 166.497 C 104.326 168.293 104.674 170.517 104.059 173.933 Z "/>
        </g>
        <g id="Group">
          <path id="Shape" fill="#AFD7F2" stroke="none" stroke-width="1" d="M 92.175 28.500 L 58.425 28.500 L 30.525 30.975 L 31.950 83.550 L 33.600 87.075 L 36.600 87.525 L 93.525 85.200 L 93.975 81.975 L 93.075 33.225 L 92.175 28.500 "/>
          <path id="Shape" fill="#F7EC1E" stroke="none" stroke-width="1" d="M 30.525 39.750 L 2.400 52.575 L 3.750 54.375 L 31.350 63.825 L 30.525 39.750 "/>
          <path id="Shape" fill="#F7EC1E" stroke="none" stroke-width="1" d="M 49.575 29.325 C 49.800 29.325 74.925 27.825 74.925 27.825 L 60.675 2.175 L 49.575 29.325 Z "/>
          <path id="Shape" fill="#F7EC1E" stroke="none" stroke-width="1" d="M 93.600 40.950 L 93.675 67.500 L 121.200 53.400 L 93.600 40.950 "/>
          <path id="Shape" fill="#30419A" stroke="none" stroke-width="1" d="M 95.405 67.466 C 98.688 65.891 101.972 64.315 105.295 62.826 C 108.191 61.529 111.194 60.459 114.044 59.072 C 116.667 57.796 119.468 56.773 121.534 54.524 C 122.854 53.087 122.725 51.835 120.940 50.878 C 120.219 50.491 119.373 50.341 118.653 49.954 C 116.645 48.874 114.666 47.797 112.419 47.210 C 110.564 46.724 108.807 45.872 106.995 45.216 C 105.845 44.800 104.659 44.483 103.517 44.049 C 101.369 43.231 99.261 42.302 97.098 41.528 C 95.043 40.793 95.024 40.853 94.910 38.749 C 94.892 38.431 94.818 38.115 94.808 37.797 C 94.734 35.342 94.542 32.881 94.646 30.432 C 94.712 28.892 92.944 26.926 91.840 26.876 C 89.309 26.763 86.776 26.680 84.243 26.608 C 82.556 26.560 80.894 26.570 79.206 26.503 C 78.256 26.466 75.766 26.801 75.122 26.278 C 74.669 25.911 74.669 25.240 74.482 24.698 C 73.802 22.730 72.429 20.822 71.526 18.936 C 70.474 16.741 69.410 14.551 68.314 12.377 C 66.779 9.332 65.113 6.351 63.401 3.400 C 62.831 2.416 62.008 1.547 61.166 0.769 C 60.848 0.475 60.109 0.431 59.649 0.567 C 59.345 0.657 59.168 1.259 58.990 1.657 C 58.817 2.044 58.759 2.483 58.576 2.864 C 57.978 4.104 57.200 5.277 56.755 6.567 C 55.430 10.408 53.326 13.912 52.186 17.853 C 51.202 21.253 49.649 24.490 48.299 27.778 C 48.179 28.069 47.713 28.361 47.382 28.396 C 46.375 28.502 45.350 28.433 44.339 28.521 C 39.947 28.905 35.556 29.321 31.165 29.726 C 29.391 29.890 29.219 30.424 29.195 32.412 C 29.179 33.718 29.250 35.023 29.249 36.328 C 29.249 36.982 29.506 37.853 29.285 38.482 C 29.000 39.295 28.159 39.547 27.398 39.935 C 25.621 40.840 23.762 41.578 21.897 42.280 C 16.765 44.212 11.949 46.555 6.953 48.776 C 4.959 49.663 3.021 50.689 1.114 51.753 C 0.653 52.010 0.212 52.629 0.139 53.136 C 0.088 53.488 0.597 54.086 1.002 54.312 C 6.022 57.112 11.533 58.709 16.880 60.707 C 20.115 61.916 23.367 63.079 26.621 64.234 C 27.808 64.655 29.021 64.996 30.472 65.452 C 30.472 67.196 30.396 69.064 30.490 70.924 C 30.712 75.309 30.958 79.586 30.999 83.977 C 31.017 85.895 32.308 88.613 34.597 88.591 C 36.872 88.569 39.148 88.481 41.423 88.447 C 41.885 88.439 42.307 88.382 42.763 88.343 C 43.258 88.303 43.706 88.382 44.195 88.274 C 44.852 88.130 45.623 88.220 46.295 88.220 C 47.768 88.220 49.241 88.248 50.714 88.249 C 52.161 88.250 53.585 88.178 55.025 88.121 C 55.465 88.104 55.907 88.141 56.348 88.125 C 57.464 88.085 58.582 88.090 59.698 88.091 C 61.102 88.093 62.507 88.087 63.911 88.062 C 64.823 88.046 65.735 88.033 66.647 88.003 C 67.457 87.976 68.405 88.043 69.186 87.818 C 69.931 87.604 70.708 87.650 71.484 87.619 C 72.367 87.581 73.248 87.537 74.131 87.522 C 75.236 87.503 76.370 87.350 77.472 87.235 C 78.193 87.160 78.922 87.053 79.647 87.028 C 80.375 87.004 81.072 86.891 81.804 86.867 C 82.610 86.842 83.417 86.814 84.223 86.784 C 85.819 86.725 87.415 86.661 89.012 86.609 C 90.331 86.566 91.683 86.689 92.957 86.426 C 93.788 86.254 95.046 85.631 95.165 85.024 C 95.470 83.471 95.277 81.812 95.222 80.198 C 95.135 77.606 94.982 75.017 94.894 72.425 C 94.847 71.045 94.849 69.661 94.898 68.282 C 94.910 67.999 95.155 67.586 95.405 67.466 Z M 28.669 61.879 C 27.241 61.463 25.836 60.970 24.422 60.507 C 21.833 59.659 19.234 58.835 16.654 57.958 C 13.841 57 11.032 56.027 8.246 54.992 C 6.965 54.517 5.746 53.877 4.518 53.117 C 12.396 48.485 21.027 45.860 29.413 42.160 C 29.666 48.872 29.909 55.307 30.157 61.897 C 29.563 61.897 29.084 61.999 28.669 61.879 Z M 53.840 20.338 C 54.985 17.362 56.137 14.388 57.341 11.435 C 58.240 9.234 59.325 7.109 60.244 4.916 C 60.628 4.000 61.033 4.042 61.453 4.755 C 62.453 6.457 63.440 8.173 64.319 9.939 C 65.763 12.838 67.146 15.769 68.498 18.712 C 69.107 20.038 69.536 21.445 70.124 22.781 C 70.677 24.039 71.332 25.252 71.938 26.487 C 71.971 26.554 71.965 26.640 71.985 26.770 C 71.958 26.599 61.619 27.313 60.662 27.363 C 58.114 27.497 55.490 27.398 52.965 27.705 C 52.222 27.795 51.615 27.861 50.891 27.964 C 51.497 25.369 52.884 22.822 53.840 20.338 Z M 92.308 82.909 C 92.294 83.648 92.039 84.145 91.244 84.190 C 86.791 84.445 82.340 84.788 77.884 84.901 C 75.596 84.958 73.342 84.961 71.044 85.252 C 67.963 85.643 64.805 85.407 61.681 85.479 C 58.744 85.546 55.809 85.670 52.873 85.759 C 48.278 85.897 43.631 86.050 39.023 86.100 C 37.817 86.113 35.352 86.387 34.244 85.751 C 32.975 85.022 33.068 82.646 33.005 81.391 C 32.877 78.861 32.780 76.294 32.666 73.741 C 32.570 71.620 32.533 69.497 32.459 67.376 C 32.369 64.814 32.247 62.252 32.178 59.689 C 32.102 56.914 32.096 54.137 32.012 51.362 C 31.937 48.888 31.735 46.417 31.700 43.942 C 31.646 40.045 31.686 36.146 31.686 31.944 C 34.633 31.731 37.440 31.542 40.244 31.319 C 41.620 31.209 42.988 30.991 44.366 30.901 C 46.186 30.782 48.016 30.796 49.833 30.654 C 52.711 30.428 55.579 30.084 58.457 29.865 C 59.759 29.766 61.076 29.887 62.384 29.837 C 65.615 29.714 68.843 29.506 72.074 29.416 C 75.735 29.314 79.399 29.242 83.060 29.276 C 85.546 29.299 88.029 29.570 90.517 29.645 C 91.518 29.675 91.820 30.285 91.894 31.036 C 92.111 33.274 92.291 35.516 92.404 37.761 C 92.495 39.617 92.513 41.479 92.486 43.337 C 92.446 46.023 92.271 48.709 92.270 51.394 C 92.269 55.436 92.380 59.477 92.424 63.519 C 92.465 67.238 92.513 70.957 92.497 74.676 C 92.482 77.420 92.360 80.164 92.308 82.909 Z M 94.737 42.937 C 96.830 43.811 98.726 44.647 100.655 45.397 C 104.341 46.832 108.068 48.158 111.732 49.645 C 113.902 50.525 116.319 51.239 118.325 52.478 C 119.738 53.350 118.808 53.552 117.809 54.126 C 117.040 54.569 116.384 55.192 115.596 55.618 C 113.891 56.540 112.207 57.514 110.438 58.298 C 108.565 59.128 106.595 59.737 104.684 60.486 C 101.471 61.746 98.271 63.041 94.910 64.383 C 94.102 57.173 95.127 50.165 94.737 42.937 Z "/>
        </g>
      </g>
    </g>
  </g>
</svg>