<svg version="1.1" xmlns="http://www.w3.org/2000/svg" xmlns:xlink="http://www.w3.org/1999/xlink" width="101.63333" height="256.75644" viewBox="0,0,101.63333,256.75644"><g transform="translate(-182.2,-52.09358)"><g data-paper-data="{&quot;isPaintingLayer&quot;:true}" fill-rule="nonzero" stroke-linejoin="miter" stroke-miterlimit="10" stroke-dasharray="" stroke-dashoffset="0" style="mix-blend-mode: normal"><g data-paper-data="{&quot;origPos&quot;:null}" stroke="none" stroke-width="1" stroke-linecap="butt"><path d="M241.2,308.85003l0.8,-9.7l13.7,0.6l8.7,2.3l6.9,6.8z" fill="#7489aa"/><path d="M240.3,300.55001l-4.2,-50.4l-8.2,-62h34.1l1.8,62.3l-1.2,50.1z" fill="#94c0de"/></g><g stroke="none" stroke-width="1" stroke-linecap="butt"><path d="M200.6,308.85003l0.8,-9.7l13.7,0.6l8.7,2.3l6.9,6.8z" fill="#7489aa"/><path d="M199.9,300.55001l0.6,-52.3l1.8,-60.1h33l-8.4,61.8l-6.3,50.6z" fill="#94c0de"/></g><g stroke="none" stroke-width="1" stroke-linecap="butt"><path d="M268.8,167.45003c-3.8,0.8 -10.5,-0.4 -10.5,-0.4c0,0 -11.1,-46.3 -2.6,-48.7c15.3,-4.7 19.3,45.3 19.3,45.3c0,0 -2.4,3 -6.2,3.8z" fill="#c5945b"/><path d="M250.5,154.35002c0,0 -11.7,-35.9 2.3,-39.4c12.3,-3.1 24.4,29.8 24.4,29.8z" fill="#d3c9c9"/></g><g fill="#c5945b" stroke="none" stroke-width="1" stroke-linecap="butt"><path d="M279.7,190.55003l-9.9,3.3l-11.5,-26.3c0,0 3.7,-4.6 8.1,-4.7c3.3,-0.1 8.9,0.2 8.9,0.2z" data-paper-data="{&quot;origPos&quot;:null}"/><path d="M275.43333,212.75003c-2.1,0 -1,-8.8 -3,-9.2c-1.5,-0.3 0.3,5.4 -0.3,6.3c-0.6,0.9 -3.6,-0.9 -3.6,-0.9c0,0 -2.6,-5.3 -3.1,-8c-1,-6.1 5.4,-11.3 5.4,-11.3l8.1,0.4c0,0 4.9,6.7 4.9,11c0,4 -3.6,9.1 -3.6,9.1c0,0 -2.5,2.6 -4.8,2.6z" data-paper-data="{&quot;origPos&quot;:null}"/></g><path d="M198.4,193.45003l0.9,-75.6c0,0 16.2,-8.6 31.5,-8.8c15.3,-0.2 26.8,4.9 29.7,6.2c2.7,1.2 4.4,80.4 4.4,80.4c0,0 -19.7,2.8 -33.3,2.7c-13.9,-0.2 -33.2,-4.9 -33.2,-4.9z" data-paper-data="{&quot;origPos&quot;:null}" fill="#e6dbdb" stroke="none" stroke-width="1" stroke-linecap="butt"/><g data-paper-data="{&quot;origPos&quot;:null}" stroke="none" stroke-width="1" stroke-linecap="butt"><path d="M190.9,170.25003c-3.3,-0.3 -8.5,-2.4 -8.5,-2.4c0,0 6.3,-50.7 25.4,-49.9c15,0.1 -8.4,51.3 -8.4,51.3c0,0 -5.2,1.3 -8.5,1z" fill="#c5945b"/><path d="M183.5,143.45003c0,0 13.1,-28.2 22.5,-27.2c22.2,2.4 3,37.1 3,37.1z" fill="#d3c9c9"/></g><path d="M254,80.05003c0.2,1.7 -2.5,2.5 -2.2,4.2c0.3,1.4 0.4,2.9 0,4.2c-0.5,1.3 -1.3,1.6 -1.7,2.9c-0.3,0.9 0.3,1.9 -0.3,2.6c-3.1,3.2 -25.4,12.4 -25.4,12.4c0,0 -4,-1 -5.9,-2c-0.9,-0.5 0.2,-1.9 -0.8,-2.2c-1.9,-0.5 -4.1,1.2 -5.6,0c-1.5,-1.2 0.1,-1.8 -0.7,-3.6c-1.1,-2.3 -2.1,1.5 -3.5,-2.8c-0.6,-2 -0.1,-1.6 -0.8,-3.6c-1.2,-3.4 -3.2,-5.4 -0.5,-7.7c1.2,-1 -2.9,0.8 -2.3,-3.7c0.1,-1.1 1.1,-2.2 1.3,-3.2c0.3,-1.2 -1.6,0.1 -0.7,-3.8c0.2,-1 2.3,-1 2.1,-2c-0.3,-1.4 -1.1,-3.1 -0.2,-4.2c1.1,-1.2 1.9,-1 2.6,-2.5c0.9,-1.8 -1,-0.8 0.3,-2.4c0.8,-1 2.3,-2.9 3.4,-2.2c1.5,0.9 -0.7,-1.2 0.5,-2.5c2.1,-2.3 5.2,-2.4 8.3,-2.4c0,0 2.7,-3.1 4.6,-3.4c2.8,-0.5 2.3,2.5 4.7,2c1.2,-0.2 8.2,-0.7 9.2,2.9c0.2,0.9 1,1.2 1.9,1.5c1.9,0.8 3.6,0.6 4.5,2.5c0.5757,1.27933 1.94603,1.06279 2.85907,2.1279c0.93724,1.09333 -0.79316,2.55185 0.18986,3.60421c1.40858,1.50792 2.43145,0.87529 2.97417,2.86611c0.30636,1.12382 -0.84018,1.78686 -0.801,2.95103c0.04256,1.2646 1.15428,0.93849 1.57197,2.13287c0.28127,0.80428 -0.37456,2.26965 -0.29408,3.11789z" data-paper-data="{&quot;origPos&quot;:null}" fill="#21150b" stroke="none" stroke-width="1" stroke-linecap="butt"/><g fill="#c5945b" stroke="none" stroke-width="1" stroke-linecap="butt"><path d="M222.6,99.25001l16.3,3.4l-0.1,9.1c0,0 5.2,0.9 5.2,3.7c-0.1,4.5 -20.3,6.9 -24.5,0c-1.6,-3.4 2.2,-4.6 2.2,-4.6z" data-paper-data="{&quot;origPos&quot;:null}"/><path d="M218,88.15001c0.8,2.4 0.3,4.7 -1,5.1c-1.4,0.5 -3.2,-1 -4,-3.4c-0.8,-2.4 -0.3,-4.7 1,-5.1c1.4,-0.4 3.2,1.1 4,3.4z" data-paper-data="{&quot;origPos&quot;:null}"/><path d="M249.5,85.95001c0,12.8 -7.9,19.6 -14.7,19.9c-11.8,0.2 -19.4,-9.5 -19.4,-22.3c0,-12.8 2.2,-22.4 17.2,-23.1c11.4,-0.6 18.93184,11.5 16.93184,25.2z" data-paper-data="{&quot;origPos&quot;:null}"/></g><path d="M237.9,98.75003c0,0.7 -2,2.2 -3.7,2.2c-1.8,0 -3.5,-1.9 -3.5,-2.7c0,-0.8 2.2,0 4,0c1.7,0 3.2,-0.3 3.2,0.5z" fill="#000000" stroke="none" stroke-width="1" stroke-linecap="butt"/><path d="M237.3,91.25003c0,0 -0.3,1 -2.2,1c-1.4,0 -2.2,-0.8 -2.2,-0.8" fill="none" stroke="#000000" stroke-width="1.2775" stroke-linecap="round"/><g data-paper-data="{&quot;origPos&quot;:null}" fill="#c5945b" stroke="none" stroke-width="1" stroke-linecap="butt"><path d="M185.7,194.85003l-3.5,-27.9c0,0 5.3,-1 8.4,-1.4c4.3,-0.5 9.1,3.6 9.1,3.6l-3.6,27.7z"/><path d="M189.4,213.35003c0,0 -4.9,-4.8 -5.7,-8.8c-0.9,-4.3 2.9,-11.3 2.9,-11.3l8.6,-1.1c0,0 8,4.7 8.2,10.7c0.1,2.7 -1.7,8.2 -1.7,8.2c0,0 -2.9,2 -3.7,1.2c-0.8,-0.8 -0.1,-6.6 -1.6,-6.2c-2.1,0.5 0.9,9.2 -1.3,9.3c-2.4,0.3 -5.7,-2 -5.7,-2z"/></g><g><path d="M223.8,79.45001c0,0 2.9,-0.8 4.4,-0.8c1.7,-0.1 3.7,0.8 3.7,0.8" fill="none" stroke="#000000" stroke-width="1.2775" stroke-linecap="round"/><g><path d="M223.7,83.75002c0,0 2.2,-1.9 4.5,-1.7c2.5,0.2 2.9,1.5 2.9,1.5" fill="none" stroke="#000000" stroke-width="1.2775" stroke-linecap="round"/><path d="M227,84.55003c0,-1.2 0.9,-2.2 2.1,-2.2c1.2,0 2.1,1 2.1,2.2c0,1.2 -0.9,2.2 -2.1,2.2c-1.1,0 -2.1,-1 -2.1,-2.2z" fill="#000000" stroke="none" stroke-width="1" stroke-linecap="butt"/></g></g><g><path d="M239.2,79.35003c0,0 2.3,-0.8 4,-0.8c1.5,0.1 3.2,0.5 3.2,0.5" fill="none" stroke="#000000" stroke-width="1.2775" stroke-linecap="round"/><g><path d="M239.2,83.55003c0,0 0.5,-1.3 2.9,-1.5c2.3,-0.2 4.5,0.7 4.5,0.7" fill="none" stroke="#000000" stroke-width="1.2775" stroke-linecap="round"/><path d="M244.1,86.45003c-1.2,0 -2.1,-1 -2.1,-2.2c0,-1.2 0.9,-2.2 2.1,-2.2c1.2,0 2.1,1 2.1,2.2c0.1,1.2 -0.9,2.2 -2.1,2.2z" fill="#000000" stroke="none" stroke-width="1" stroke-linecap="butt"/></g></g><g data-paper-data="{&quot;origPos&quot;:null}" fill="#21150b" stroke="none" stroke-width="1" stroke-linecap="butt"><path d="M251.9,67.05003c0.3,1.3 2.9,1.8 3.2,3.1c0.5,1.8 -0.9,1.6 -1.9,3.2c-0.5,0.8 0.7,2.4 0.8,3.3c0.1,1 -2.5,1.2 -3.3,1.8c-2.3,1.7 -2.2,-1.7 -3.5,-2.4c-1.4,-0.8 -2.6,0.1 -3.4,-1.3c-0.9,-1.6 0.1,-2.3 -0.4,-4.1c-0.7,-2.5 -2.7,-0.8 -4.3,-2.8c-0.8,-1.1 0.3,-2.5 -0.5,-3.7c-0.8,-1.4 -2.7,-1.5 -2.1,-3c0.5,-1.1 0.5,-1.6 0.3,-2.8c-0.1,-0.4 1.2,-1.6 1.7,-1.7c0,0 0.6,0.8 1.9,0.5c1.2,-0.3 2.1,-1.2 3.3,-0.9c1.7,0.4 1,1.9 2.3,3c1.4,1.3 3.5,1.2 4.8,2.7c1.3,1.6 -0.6,-1.2 1.1,5.1z" data-paper-data="{&quot;origPos&quot;:null}"/><path d="M222.6,58.65003c2,-0.7 -0.7,-2.6 4,-2.9c1.8,-0.1 2.8,2.9 4.5,2.4c2.2,-0.7 1.6,-2 3.8,-1.5c1.76731,0.32728 2.78357,-0.60699 4.53581,-0.20681c1.17532,0.26842 1.23865,1.33108 2.18375,2.07954c0.88987,0.70473 1.89595,0.45924 2.28044,1.52726c0.19961,0.5418 -0.73771,1.86387 -0.6369,2.4324c0.30243,1.70559 2.33371,4.26919 -0.0631,5.46759c-2.7,1.2 -2.7,2.8 -3.8,3.2c-1.9281,0.48202 -2.49772,-1.13768 -4.3,-0.3c-1.76534,0.82051 0.8,2.8 -2.2,3.8c-1.3,0.7 -2.6,-1.4 -4.6,-0.1c-1.25767,0.81748 -0.4,3.3 -1.6,4.1c-2.7,1.8 -3.3,-1.5 -4.7,-0.7c-0.73704,0.38607 -0.93944,2.22862 -1.6212,2.70558c-1.17753,0.82379 -1.95663,-0.20332 -3.0788,0.69442c-1.5,1.2 -0.8,4.2 -1.7,3.8c-4.2,-1.9 -2.7,-2.7 -3.4,-4.6c-0.3,-0.9 -1.7,-1.6 -1.8,-2.5c-0.2,-1.2 0.4,-1.2 0.6,-2.4c0.1,-0.8 -1.5,-1.7 -1.1,-3.9c0.2,-1.1 1.7,-1.4 1.2,-2.3c-0.4,-0.8 -0.6,-2.1 -0.1,-2.8c1.5,-2 2.8,0.4 2,-0.6c-0.8,-1.1 0.5,-1.9 1.3,-3c0.5,-0.6 2,-0.3 2.5,-0.9c0.9,-1.4 0.6,-2.6 2.1,-3.4c3.2,-1.9 3.7,-0.1 3.7,-0.1z" data-paper-data="{&quot;origPos&quot;:null}"/></g></g></g></svg>