<svg xmlns="http://www.w3.org/2000/svg" xmlns:xlink="http://www.w3.org/1999/xlink" version="1.1" width="109.39624786376953" height="213.9096221923828" viewBox="-0.20053339004516602 -0.41152770817279816 109.39624786376953 213.9096221923828">
  <!-- Exported by Scratch - http://scratch.mit.edu/ -->
  <g id="ID0.7967044962570071">
    <g id="Page-1">
      <g id="rocketship-b-[space,spaceship,wren-mcdonald]">
        <g id="Group-7">
          <path id="Shape" fill="#C1B4D8" stroke="none" stroke-width="1" d="M 65.081 6.7 L 61.787 8.9 L 56.497 10.4 L 49.908 11 L 41.624 9.8 L 35.535 7.1 L 30.965 11 L 27.15 15.9 L 23.757 23.9 L 20.962 32.7 L 19.464 42.8 L 18.666 55 L 18.666 62.5 L 18.666 72.3 L 25.753 93.2 L 30.544 99.6 L 36.633 103.3 L 43.121 104.8 L 51.391 105.5 L 62.785 105.1 L 70.171 103.5 L 80.652 96.6 L 86.641 68.6 L 85.643 62.6 L 81.85 40.8 L 77.758 24.5 L 71.464 13.1 L 67.376 8 L 65.081 6.7 "/>
          <path id="Shape" fill="#897AB8" stroke="none" stroke-width="1" d="M 73.765 89.6 L 70.071 91.201 L 58.892 92.2 L 43.82 91.7 L 35.235 90.4 L 35.136 102.391 L 40.126 104.6 L 50.347 105.5 L 64.182 104.798 L 71.464 103.3 L 73.365 102.7 L 73.565 95.8 L 74.046 89.6 L 73.765 89.6 "/>
          <path id="Shape" fill="#EF463C" stroke="none" stroke-width="1" d="M 26.152 19.6 L 29.446 20.8 L 32.84 24.2 L 34.437 28.7 L 34.437 35.1 L 30.294 41.1 L 26.651 42.7 L 21.161 42.2 L 19.664 41.5 L 21.261 32.1 L 24.356 22.4 L 26.152 19.6 "/>
          <path id="Shape" fill="#EF463C" stroke="none" stroke-width="1" d="M 35.635 6.7 L 38.23 8.9 L 44.518 10.5 L 52.434 10.771 L 59.791 9.6 L 64.182 7.1 L 64.182 6.1 L 61.487 3.9 L 54.625 1.5 L 46.231 1.2 L 40.426 3.6 L 35.635 6.7 "/>
          <path id="Shape" fill="#EF463C" stroke="none" stroke-width="1" d="M 33.938 62.2 L 25.353 60.667 L 18.765 63.1 L 14.274 69.5 L 13.276 81.5 L 16.27 95.5 L 22.658 112.601 L 28.781 125.9 L 29.873 127.901 L 29.873 122 L 29.873 112.501 L 30.965 106.2 L 33.938 102.4 L 35.136 101.3 L 35.136 85.1 L 34.437 64.1 L 33.938 62.2 "/>
          <path id="Shape" fill="#EF463C" stroke="none" stroke-width="1" d="M 81.551 63.601 L 78.057 63.1 L 75.562 64.1 L 75.162 65.2 L 74.563 76.801 L 74.104 89 L 72.784 102.4 L 76.659 103.9 L 79.155 107.201 L 80.353 114.001 L 80.053 123.901 L 80.253 129.5 L 87.739 115.501 L 92.53 98.701 L 93.928 96.301 L 95.625 85 L 95.225 73.6 L 90.534 66.8 L 85.942 64 L 81.551 63.601 "/>
          <path id="Shape" fill="#FFFFFF" stroke="none" stroke-width="1" d="M 20.362 37.1 L 22.558 37.6 L 27.051 36.6 L 29.873 33.3 L 29.873 28.7 L 27.948 25.8 L 23.756 23.9 L 22.259 28.6 L 20.562 34.2 L 20.362 37.1 "/>
          <path id="Shape" fill="#30419A" stroke="none" stroke-width="1" d="M 72.756 103.315 C 72.117 104.026 71.524 104.541 70.548 104.477 C 70.003 104.44 69.443 104.726 68.883 104.834 C 67.869 105.028 66.854 105.218 65.834 105.372 C 64.463 105.578 63.089 105.782 61.71 105.926 C 60.728 106.027 59.734 106.022 58.748 106.076 C 58.425 106.094 58.102 106.121 57.787 106.185 C 56.676 106.411 55.556 106.391 54.431 106.34 C 54.057 106.322 53.673 106.207 53.342 106.524 C 53.269 106.595 53.092 106.586 52.966 106.572 C 51.011 106.364 49.056 106.148 47.101 105.938 C 46.94 105.922 46.758 105.877 46.619 105.931 C 45.644 106.306 44.706 105.99 43.761 105.808 C 43.571 105.771 43.383 105.721 43.193 105.686 C 42.53 105.565 41.869 105.437 41.204 105.333 C 40.692 105.253 40.175 105.209 39.662 105.141 C 38.638 105.004 37.622 104.891 36.796 104.132 C 36.377 103.746 35.848 103.472 35.35 103.18 C 35.008 102.979 34.234 103.141 33.962 103.478 C 33.079 104.574 32.087 105.63 31.665 106.993 C 31.139 108.689 30.629 110.404 30.545 112.204 C 30.485 113.466 30.354 114.728 30.332 115.991 C 30.295 118.02 30.416 120.043 30.731 122.053 C 30.786 122.404 30.72 122.771 30.752 123.126 C 30.868 124.415 30.805 125.764 31.19 126.967 C 31.481 127.878 31.511 128.716 31.502 129.601 C 30.679 129.934 29.964 129.676 29.535 129.003 C 28.867 127.954 28.184 126.911 27.439 125.917 C 26.813 125.082 26.267 124.227 25.897 123.241 C 25.593 122.428 25.113 121.682 24.799 120.873 C 24.12 119.128 23.51 117.358 22.847 115.607 C 22.493 114.67 22.08 113.755 21.706 112.825 C 21.398 112.058 21.093 111.289 20.818 110.511 C 20.702 110.183 20.671 109.826 20.598 109.484 C 20.525 109.141 20.545 108.728 20.355 108.469 C 19.557 107.379 19.175 106.132 18.833 104.855 C 18.736 104.492 18.465 104.177 18.337 103.818 C 17.72 102.089 17.138 100.349 16.518 98.621 C 16.225 97.801 15.868 97.003 15.557 96.188 C 15.329 95.593 15.095 95.021 15.02 94.353 C 14.922 93.47 14.546 92.62 14.313 91.75 C 14.074 90.854 13.832 89.957 13.643 89.05 C 13.314 87.47 12.995 85.887 12.729 84.297 C 12.573 83.372 12.494 82.433 12.442 81.496 C 12.348 79.844 12.221 78.188 12.255 76.537 C 12.287 75.017 12.51 73.501 12.657 71.985 C 12.672 71.83 12.741 71.678 12.787 71.525 C 13.041 70.691 13.308 69.862 13.545 69.023 C 13.65 68.651 13.737 68.264 13.758 67.88 C 13.79 67.284 13.995 66.854 14.533 66.528 C 14.812 66.358 14.992 65.99 15.162 65.681 C 15.728 64.653 16.38 63.689 17.281 62.929 C 17.533 62.716 17.656 62.527 17.635 62.198 C 17.611 61.813 17.666 61.423 17.647 61.038 C 17.591 59.878 17.506 58.72 17.452 57.559 C 17.436 57.208 17.461 56.852 17.5 56.502 C 17.673 54.956 17.886 53.414 18.025 51.866 C 18.079 51.268 17.942 50.654 17.962 50.051 C 17.983 49.382 18.081 48.714 18.153 48.047 C 18.206 47.566 18.282 47.086 18.331 46.606 C 18.473 45.211 18.581 43.811 18.752 42.42 C 18.925 41.002 19.138 39.588 19.368 38.177 C 19.726 35.981 20.075 33.781 20.508 31.599 C 20.688 30.688 21.075 29.818 21.366 28.929 C 21.445 28.685 21.594 28.431 21.575 28.193 C 21.498 27.202 21.857 26.342 22.328 25.523 C 23.02 24.321 23.208 22.957 23.625 21.667 C 23.665 21.544 23.672 21.41 23.724 21.295 C 24.416 19.796 25.113 18.301 25.808 16.805 C 25.922 16.561 26.151 16.391 25.997 16.018 C 25.926 15.845 26.211 15.436 26.432 15.251 C 27.245 14.57 27.879 13.774 28.285 12.789 C 28.371 12.583 28.5 12.384 28.648 12.217 C 29.783 10.95 30.927 9.692 32.066 8.428 C 32.13 8.357 32.205 8.278 32.229 8.189 C 32.464 7.322 33.24 6.911 33.887 6.539 C 34.671 6.089 35.261 5.464 35.923 4.904 C 36.271 4.609 36.578 4.325 37.059 4.207 C 37.518 4.094 37.932 3.791 38.361 3.561 C 38.902 3.272 39.438 2.977 39.971 2.674 C 40.162 2.566 40.348 2.442 40.516 2.301 C 40.9 1.98 41.228 1.652 41.802 1.573 C 42.319 1.502 42.796 1.127 43.288 0.883 C 43.456 0.799 43.611 0.65 43.786 0.622 C 44.486 0.509 45.191 0.422 45.897 0.346 C 46.762 0.25 47.628 0.128 48.495 0.101 C 49.478 0.071 50.466 0.096 51.447 0.164 C 54.369 0.367 57.257 0.866 59.937 2.05 C 61.695 2.826 63.463 3.676 64.935 4.997 C 65.538 5.536 66.209 6.004 66.877 6.461 C 68.408 7.511 69.495 8.96 70.568 10.434 C 71.139 11.219 71.789 11.947 72.374 12.723 C 72.762 13.24 73.14 13.775 73.449 14.343 C 74.403 16.102 75.323 17.881 76.254 19.652 C 76.343 19.825 76.394 20.025 76.512 20.175 C 77.76 21.774 78.243 23.713 78.833 25.585 C 79.682 28.277 80.411 31.006 81.17 33.724 C 81.327 34.283 81.384 34.867 81.504 35.435 C 81.625 36.008 81.691 36.607 81.912 37.14 C 82.638 38.896 82.902 40.762 83.296 42.597 C 83.59 43.96 83.862 45.327 84.098 46.7 C 84.43 48.617 84.709 50.544 85.034 52.462 C 85.169 53.257 85.373 54.039 85.531 54.83 C 85.696 55.655 85.82 56.489 86.002 57.311 C 86.238 58.381 86.533 59.437 86.762 60.508 C 86.883 61.076 86.935 61.661 86.989 62.242 C 87.041 62.815 87.217 63.216 87.749 63.596 C 89.254 64.675 90.785 65.762 92.096 67.06 C 93.981 68.924 95.376 71.128 96.009 73.787 C 96.561 76.105 96.891 78.437 96.975 80.808 C 97.022 82.2 97.007 83.597 96.949 84.989 C 96.924 85.595 96.69 86.189 96.603 86.797 C 96.438 87.986 96.376 89.194 96.146 90.371 C 95.897 91.639 95.505 92.878 95.176 94.131 C 95.061 94.567 94.954 95.006 94.836 95.441 C 94.572 96.413 94.335 97.393 94.027 98.35 C 93.738 99.245 93.338 100.103 93.049 100.999 C 92.634 102.292 92.275 103.601 91.894 104.905 C 91.367 106.711 90.848 108.52 90.314 110.325 C 90.151 110.881 89.935 111.421 89.77 111.977 C 89.018 114.511 87.646 116.781 86.702 119.234 C 86.132 120.713 85.472 122.159 84.828 123.608 C 84.645 124.022 84.356 124.387 84.149 124.79 C 83.798 125.479 83.504 126.196 83.131 126.87 C 82.663 127.723 82.126 128.538 81.643 129.383 C 81.376 129.85 81.189 130.364 80.912 130.824 C 80.725 131.135 80.574 131.521 80.053 131.473 C 79.597 131.431 79.381 131.196 79.175 130.824 C 78.923 130.369 78.806 129.948 79.021 129.443 C 79.238 128.932 79.232 128.387 79.234 127.831 C 79.238 127.024 79.423 126.219 79.444 125.412 C 79.471 124.223 79.42 123.031 79.401 121.84 C 79.395 121.484 79.374 121.127 79.375 120.773 C 79.379 119.614 79.409 118.456 79.392 117.298 C 79.382 116.563 79.31 115.831 79.263 115.097 C 79.243 114.773 79.181 114.447 79.203 114.125 C 79.32 112.471 79.044 110.867 78.728 109.249 C 78.56 108.389 78.405 107.541 78.064 106.742 C 77.904 106.366 77.686 105.969 77.384 105.712 C 76.608 105.056 75.825 104.371 74.94 103.893 C 74.285 103.538 73.464 103.49 72.756 103.315 Z M 19.892 48.919 C 20.618 49.276 21.261 49.666 21.953 49.919 C 25.068 51.059 28.332 51.611 31.567 52.261 C 32.328 52.414 33.115 52.433 33.889 52.513 C 36.788 52.813 39.684 53.134 42.585 53.399 C 43.649 53.496 44.727 53.442 45.798 53.482 C 48.064 53.568 50.329 53.74 52.595 53.743 C 54.307 53.746 56.024 53.412 57.73 53.464 C 59.499 53.518 61.185 53.029 62.934 52.958 C 65.22 52.866 67.493 52.459 69.769 52.169 C 70.794 52.037 71.832 51.938 72.828 51.68 C 73.921 51.397 74.978 50.962 76.04 50.564 C 76.829 50.268 77.602 49.93 78.379 49.604 C 79.268 49.23 80.168 48.881 81.036 48.46 C 81.817 48.081 82.204 47.402 82.092 46.718 C 81.748 44.638 81.387 42.559 81.027 40.481 C 81.006 40.358 80.926 40.246 80.884 40.124 C 80.583 39.241 80.23 38.37 79.999 37.468 C 79.614 35.969 79.537 34.409 79 32.929 C 78.484 31.504 78.131 30.02 77.699 28.565 C 77.506 27.915 77.303 27.268 77.094 26.624 C 76.747 25.549 76.505 24.421 76.017 23.411 C 74.74 20.764 73.357 18.166 72.006 15.554 C 71.859 15.269 71.645 15.017 71.459 14.752 C 70.582 13.508 69.717 12.257 68.823 11.026 C 67.863 9.704 66.701 8.599 65.334 7.829 C 64.157 8.398 63.061 8.951 61.944 9.46 C 61.091 9.848 60.237 10.373 59.339 10.495 C 57.494 10.743 55.779 11.771 53.836 11.416 C 53.721 11.394 53.589 11.491 53.462 11.503 C 52.202 11.618 50.941 11.833 49.685 11.812 C 48.045 11.785 46.409 11.54 44.768 11.451 C 44.102 11.415 43.531 11.137 42.913 10.976 C 41.948 10.725 40.959 10.55 39.974 10.382 C 38.109 10.066 36.576 9.141 35.181 7.823 C 34.291 8.628 33.398 9.44 32.499 10.245 C 31.6 11.049 30.909 12.008 30.268 13.029 C 29.41 14.393 28.432 15.681 27.563 17.038 C 27.207 17.596 26.9 18.217 26.87 18.944 C 27.969 19.363 29.026 19.76 30.077 20.169 C 30.318 20.263 30.596 20.344 30.769 20.518 C 31.749 21.502 32.893 22.39 33.628 23.538 C 35.59 26.599 36.268 29.983 35.584 33.602 C 35.222 35.515 34.446 37.262 33.437 38.893 C 32.01 41.198 29.716 42.371 27.26 43.178 C 25.017 43.915 22.71 43.694 20.327 43.132 C 20.184 45.048 20.043 46.913 19.892 48.919 Z M 35.795 89.463 C 37.111 89.822 38.253 90.148 39.403 90.446 C 40.886 90.832 42.391 91.042 43.931 90.978 C 44.515 90.953 45.106 90.934 45.684 91.004 C 47.552 91.233 49.415 91.445 51.304 91.343 C 52.273 91.291 53.248 91.369 54.22 91.388 C 55.695 91.418 57.176 91.522 58.649 91.462 C 60.289 91.395 61.936 91.409 63.566 91.102 C 64.767 90.877 65.992 90.797 67.206 90.639 C 67.648 90.581 68.082 90.455 68.525 90.406 C 70.076 90.236 71.475 89.59 72.892 89.006 C 73.056 88.938 73.215 88.661 73.233 88.466 C 73.365 87.154 73.519 85.839 73.543 84.523 C 73.558 83.627 73.404 82.733 73.67 81.845 C 73.741 81.602 73.718 81.329 73.727 81.07 C 73.759 79.934 73.771 78.799 73.822 77.665 C 73.919 75.461 74.077 73.259 74.133 71.053 C 74.188 68.962 74.121 66.866 74.159 64.772 C 74.173 64.009 74.502 63.266 75.229 62.974 C 76.119 62.617 77.001 62.173 78.003 62.153 C 79.476 62.125 80.949 62.073 82.421 62.042 C 82.576 62.039 82.732 62.126 82.89 62.155 C 83.568 62.281 84.246 62.401 84.979 62.534 C 84.542 60.344 84.101 58.285 83.725 56.213 C 83.347 54.135 83.085 52.036 82.632 49.891 C 81.891 50.274 81.298 50.65 80.656 50.898 C 79.522 51.334 78.348 51.664 77.209 52.09 C 75.663 52.668 74.143 53.324 72.502 53.594 C 71.843 53.704 71.145 53.67 70.52 53.873 C 69.057 54.35 67.561 54.344 66.058 54.388 C 65.508 54.404 64.958 54.488 64.412 54.569 C 63.202 54.748 62 55.002 60.784 55.121 C 59.64 55.234 58.481 55.192 57.329 55.256 C 56.524 55.302 55.723 55.478 54.921 55.477 C 53.184 55.475 51.445 55.388 49.708 55.351 C 48.869 55.332 48.015 55.445 47.194 55.323 C 45.867 55.125 44.552 55.189 43.228 55.248 C 42.816 55.265 42.399 55.214 41.987 55.168 C 41.355 55.096 40.727 54.983 40.095 54.922 C 39.103 54.826 38.11 54.704 37.116 54.688 C 35.684 54.667 34.288 54.294 32.848 54.36 C 32.353 54.383 31.834 54.22 31.35 54.066 C 29.96 53.624 28.58 53.169 27.085 53.382 C 26.936 53.403 26.771 53.332 26.619 53.287 C 26.285 53.186 25.956 53.065 25.621 52.97 C 25.038 52.803 24.441 52.678 23.867 52.483 C 22.707 52.088 21.56 51.654 20.403 51.252 C 20.259 51.202 20.083 51.245 19.924 51.245 C 19.316 54.707 19.179 59.941 19.63 61.001 C 20.951 60.674 22.267 60.391 23.56 60.019 C 25.163 59.558 26.759 59.684 28.36 59.963 C 29.661 60.19 30.957 60.442 32.255 60.683 C 32.953 60.812 33.658 60.912 34.346 61.078 C 35.065 61.252 35.238 61.604 35.133 62.348 C 35.09 62.66 35.098 62.999 35.175 63.302 C 35.409 64.227 35.544 65.151 35.384 66.103 C 35.357 66.261 35.326 66.435 35.364 66.585 C 35.833 68.437 35.33 70.329 35.606 72.197 C 35.737 73.079 35.562 74.002 35.589 74.905 C 35.627 76.169 35.808 77.435 35.775 78.695 C 35.725 80.704 35.702 82.707 35.782 84.715 C 35.844 86.254 35.795 87.8 35.795 89.463 Z M 28.941 124.906 C 28.891 123.992 28.845 123.268 28.813 122.543 C 28.786 121.931 28.777 121.32 28.755 120.707 C 28.717 119.675 28.657 118.643 28.641 117.609 C 28.633 117.094 28.78 116.567 28.721 116.063 C 28.563 114.701 28.512 113.358 28.749 111.995 C 28.881 111.234 29.05 110.477 29.169 109.72 C 29.501 107.616 30.207 105.672 31.202 103.802 C 31.585 103.079 32.225 102.65 32.744 102.083 C 33.359 101.413 34.183 100.858 34.215 99.805 C 34.234 99.171 34.26 98.537 34.251 97.903 C 34.217 95.716 34.142 93.53 34.135 91.343 C 34.128 89.215 34.255 87.085 34.189 84.959 C 34.139 83.323 34.41 81.684 34.118 80.05 C 34.068 79.776 34.185 79.476 34.197 79.187 C 34.229 78.382 34.413 77.536 34.231 76.781 C 33.966 75.686 33.917 74.608 33.931 73.505 C 33.943 72.665 33.943 71.824 33.928 70.983 C 33.907 69.76 33.901 68.534 33.827 67.313 C 33.751 66.056 33.627 64.801 33.474 63.551 C 33.417 63.091 33.219 62.708 32.604 62.688 C 32.062 62.672 31.526 62.495 30.986 62.393 C 28.996 62.018 27.023 61.558 24.96 61.856 C 22.677 62.186 20.405 62.462 18.565 64.082 C 17.206 65.28 16.024 66.608 15.458 68.353 C 14.889 70.107 14.415 71.894 14.243 73.743 C 14.135 74.901 13.98 76.056 13.923 77.216 C 13.884 78.025 13.96 78.841 14.011 79.653 C 14.078 80.721 14.071 81.808 14.273 82.852 C 14.852 85.841 15.122 88.896 16.14 91.799 C 16.569 93.023 16.806 94.313 17.227 95.541 C 17.857 97.381 18.575 99.19 19.249 101.015 C 19.922 102.836 20.594 104.659 21.256 106.486 C 21.786 107.948 22.289 109.42 22.832 110.876 C 22.945 111.18 23.184 111.437 23.366 111.714 C 23.346 112.174 23.346 112.66 23.513 113.078 C 24.064 114.459 24.678 115.814 25.265 117.179 C 25.597 117.955 26.023 118.708 26.229 119.517 C 26.653 121.187 27.608 122.584 28.374 124.079 C 28.498 124.324 28.685 124.537 28.941 124.906 Z M 81.032 126.197 C 81.457 125.257 82.067 124.447 82.672 123.629 C 83.248 122.848 83.757 122.03 84.047 121.089 C 84.255 120.413 84.47 119.734 84.746 119.083 C 85.098 118.249 85.515 117.443 85.902 116.621 C 86.518 115.31 87.135 113.999 87.744 112.684 C 87.839 112.48 87.909 112.259 87.964 112.04 C 88.176 111.199 88.347 110.346 88.591 109.515 C 88.788 108.844 89.092 108.205 89.304 107.537 C 89.451 107.076 89.484 106.579 89.635 106.12 C 90.339 103.97 90.819 101.755 91.64 99.637 C 92.184 98.232 92.581 96.764 92.972 95.306 C 93.43 93.592 94.144 91.946 94.23 90.126 C 94.277 89.101 94.46 88.055 94.764 87.074 C 95.156 85.805 95.064 84.512 95.129 83.237 C 95.197 81.935 94.998 80.621 94.944 79.31 C 94.882 77.823 94.907 76.323 94.474 74.881 C 94.141 73.769 93.916 72.568 93.322 71.605 C 92.236 69.842 90.932 68.202 89.297 66.892 C 88.718 66.428 88.17 65.833 87.295 65.858 C 87.078 65.864 86.839 65.624 86.636 65.465 C 85.364 64.477 83.933 64.009 82.32 64.073 C 81.552 64.103 80.77 64.167 80.017 64.054 C 78.982 63.898 78.019 64.1 77.053 64.377 C 76.633 64.498 76.263 64.747 76.173 65.206 C 76.033 65.924 75.896 66.649 75.847 67.377 C 75.688 69.77 75.831 72.182 75.385 74.558 C 75.356 74.716 75.382 74.884 75.376 75.046 C 75.304 77.023 75.227 79 75.16 80.976 C 75.148 81.301 75.176 81.626 75.185 81.952 C 75.2 82.594 75.226 83.236 75.223 83.878 C 75.221 84.332 75.163 84.785 75.158 85.239 C 75.146 86.369 75.289 87.497 75.096 88.628 C 75.011 89.129 75.066 89.654 75.05 90.168 C 75.009 91.327 74.981 92.486 74.915 93.643 C 74.874 94.354 74.806 95.068 74.69 95.77 C 74.584 96.409 74.851 97.166 74.158 97.648 C 74.103 97.687 74.111 97.832 74.106 97.928 C 74.046 99.124 73.99 100.32 73.936 101.453 C 74.646 101.726 75.309 101.912 75.905 102.227 C 76.527 102.557 77.065 103.045 77.676 103.402 C 78.526 103.897 79.12 104.668 79.493 105.49 C 80.011 106.627 80.447 107.864 80.582 109.097 C 80.864 111.677 80.933 114.281 81.076 116.877 C 81.11 117.517 81.105 118.159 81.089 118.801 C 81.069 119.641 80.914 120.493 81.006 121.319 C 81.188 122.939 81.228 124.546 81.032 126.197 Z M 47.543 92.901 C 47.607 93.628 47.674 94.262 47.716 94.897 C 47.9 97.746 48.081 100.595 48.253 103.444 C 48.31 104.381 48.534 104.588 49.474 104.696 C 51.192 104.894 52.9 104.769 54.614 104.656 C 55.486 104.597 56.365 104.651 57.236 104.593 C 58.042 104.54 58.846 104.407 59.65 104.31 C 60.441 104.215 61.231 104.121 62.047 104.023 C 61.993 102.718 61.916 101.537 61.909 100.357 C 61.904 99.715 62.078 99.071 62.067 98.43 C 62.046 97.367 61.959 96.305 61.866 95.247 C 61.804 94.548 61.684 93.856 61.578 93.063 C 60.426 93.121 59.365 93.197 58.302 93.22 C 57.302 93.242 56.28 93.337 55.31 93.16 C 54.343 92.984 53.396 92.933 52.423 92.955 C 51.71 92.971 50.996 92.912 50.281 92.904 C 49.413 92.893 48.545 92.901 47.543 92.901 Z M 36.855 6.703 C 37.281 7.762 38.237 8.12 39.117 8.404 C 40.65 8.898 42.23 9.268 43.811 9.587 C 46.651 10.159 49.524 10.186 52.414 10.042 C 54.478 9.94 56.421 9.325 58.393 8.848 C 59.478 8.585 60.478 7.981 61.544 7.61 C 62.282 7.354 62.771 6.824 63.451 6.245 C 62.529 5.688 61.704 5.14 60.832 4.679 C 60.244 4.368 59.558 4.241 58.973 3.926 C 57.523 3.145 55.949 2.811 54.356 2.517 C 53.824 2.419 53.298 2.239 52.765 2.22 C 51.151 2.161 49.535 2.275 47.923 2.293 C 45.828 2.314 43.904 2.794 42.037 3.668 C 41.294 4.017 40.531 4.325 39.807 4.709 C 38.761 5.263 37.686 5.785 36.855 6.703 Z M 35.63 101.912 C 36.961 102.74 38.424 103.328 39.94 103.615 C 41.808 103.966 43.726 104.054 45.623 104.259 C 46.099 104.31 46.427 104.091 46.43 103.633 C 46.436 102.601 46.668 101.552 46.339 100.541 C 46.089 99.772 46.15 99.008 46.199 98.231 C 46.221 97.882 46.229 97.531 46.224 97.181 C 46.207 96.05 46.194 94.919 46.153 93.789 C 46.138 93.389 46.046 92.992 45.984 92.555 C 45.209 92.506 44.565 92.433 43.919 92.428 C 42.198 92.416 40.504 92.224 38.824 91.836 C 37.866 91.614 36.884 91.364 35.823 91.761 C 35.859 93.481 35.601 95.185 35.895 96.898 C 35.974 97.358 35.904 97.852 35.853 98.324 C 35.723 99.508 35.402 100.678 35.63 101.912 Z M 72.216 102.129 C 72.384 100.743 72.553 99.431 72.696 98.116 C 72.828 96.899 72.732 95.683 73.048 94.452 C 73.316 93.413 73.451 92.252 73.109 91.087 C 72.833 91.14 72.514 91.107 72.348 91.251 C 71.845 91.692 71.238 91.691 70.643 91.835 C 68.671 92.315 66.689 92.663 64.659 92.725 C 64.255 92.737 63.854 92.884 63.389 92.983 C 63.526 94.832 63.686 96.599 63.777 98.37 C 63.87 100.159 63.897 101.951 63.954 103.781 C 65.375 103.594 66.662 103.46 67.938 103.247 C 68.73 103.114 69.562 102.974 70.27 102.622 C 70.862 102.328 71.432 102.152 72.216 102.129 Z M 24.831 23.518 C 25.465 23.675 25.922 23.824 26.39 23.898 C 27.422 24.063 28.251 24.712 28.969 25.316 C 30.258 26.401 30.752 28.054 31.202 29.639 C 31.551 30.867 31.169 32.089 30.888 33.289 C 30.749 33.885 30.685 34.567 30.344 35.03 C 29.817 35.746 29.116 36.349 28.429 36.928 C 27.508 37.704 26.322 37.861 25.208 38.198 C 23.824 38.618 22.471 38.569 21.056 38.168 C 20.873 39.068 20.69 39.974 20.515 40.836 C 21.008 41.024 21.389 41.114 21.71 41.303 C 22.532 41.789 23.436 41.959 24.356 42.025 C 25.563 42.11 26.718 41.77 27.838 41.375 C 29.02 40.959 30.089 40.339 30.96 39.394 C 32.804 37.39 33.527 34.878 34.215 32.345 C 34.232 32.285 34.233 32.217 34.223 32.155 C 34.122 31.489 34.039 30.82 33.91 30.16 C 33.762 29.398 33.541 28.651 33.41 27.887 C 32.871 24.77 30.794 22.861 28.28 21.301 C 27.541 20.843 26.716 20.813 25.806 21.041 C 25.516 21.779 25.21 22.558 24.831 23.518 Z M 21.331 36.525 C 21.731 36.525 21.985 36.451 22.164 36.538 C 23.182 37.025 24.193 36.836 25.183 36.512 C 25.822 36.304 26.424 35.98 27.04 35.702 C 27.788 35.366 28.403 34.838 28.809 34.151 C 29.059 33.727 29.041 33.155 29.205 32.671 C 29.744 31.076 29.281 29.578 28.652 28.17 C 27.858 26.395 26.212 25.634 24.399 24.992 C 22.738 28.716 22.171 32.618 21.331 36.525 Z "/>
          <g id="Group-2">
            <path id="Shape" fill="#30419A" stroke="none" stroke-width="1" d="M 74.1 58.771 C 73.153 59.275 72.861 59.247 72.217 58.652 C 72.124 58.565 72.024 58.483 71.935 58.391 C 71.267 57.704 71.312 57.034 72.053 56.459 C 72.402 56.188 72.768 56.035 73.204 56.24 C 73.7 56.471 74.076 56.803 74.096 57.394 C 74.112 57.844 74.1 58.295 74.1 58.771 Z "/>
            <path id="Shape" fill="#30419A" stroke="none" stroke-width="1" d="M 51.383 57.763 C 51.775 58.381 52.389 58.533 52.428 59.274 C 52.457 59.825 52.398 60.326 51.989 60.541 C 51.615 60.737 51.079 60.649 50.617 60.633 C 50.519 60.629 50.343 60.393 50.348 60.269 C 50.37 59.66 50.367 59.032 50.527 58.455 C 50.598 58.195 51.031 58.034 51.383 57.763 Z "/>
            <path id="Shape" fill="#30419A" stroke="none" stroke-width="1" d="M 30.059 55.583 C 30.667 55.945 30.797 56.542 30.922 57.142 C 31.015 57.584 30.985 58.108 30.553 58.216 C 30.187 58.309 29.63 58.16 29.333 57.91 C 28.546 57.249 28.618 56.66 29.442 56.023 C 29.64 55.87 29.85 55.732 30.059 55.583 Z "/>
          </g>
        </g>
        <g id="Group">
          <g id="Group-6">
            <path id="Shape" fill="#F7EC1E" stroke="none" stroke-width="1" d="M 59.291 113.8 C 59.291 113.8 51.905 111.8 49.01 112.9 C 46.115 113.999 43.679 114.817 41.124 117.899 C 38.569 120.982 38.23 125.2 38.23 125.2 C 38.23 125.2 38.331 132.532 40.226 134.599 C 42.121 136.666 40.634 136.576 43.819 139.999 C 47.005 143.422 46.115 147.4 45.316 149.399 C 44.518 151.399 42.551 159.149 46.231 171.607 C 49.911 184.064 51.107 180.399 52.654 195.799 C 54.201 211.199 52.972 210.899 52.972 210.899 L 55.099 201.4 L 56.796 188.399 L 59.291 178.155 C 59.291 178.155 63.683 169.27 64.082 161.735 C 64.482 154.2 65.18 153.799 62.485 147.799 C 59.79 141.799 60.302 144.134 63.184 138.299 C 66.067 132.464 67.62 136.208 67.177 129.5 C 66.734 122.793 70.67 117.5 59.291 113.8 Z "/>
            <path id="Shape" fill="#FBF5A8" stroke="none" stroke-width="1" d="M 54.625 119.5 L 49.609 121.9 L 47.213 125.999 L 47.213 132.899 L 49.709 142.399 L 51.505 151.9 L 53.657 162.7 L 57.095 147.1 L 58.193 139.799 L 59.591 133.699 L 60.19 124.199 L 57.195 121 L 54.625 119.5 "/>
          </g>
          <g id="Group-3">
            <path id="Shape" fill="#30419A" stroke="none" stroke-width="1" d="M 51.325 192.017 C 51.314 189.889 51.068 188.384 50.662 186.899 C 50.25 185.393 49.872 183.88 49.46 182.374 C 49.395 182.134 49.217 181.925 49.127 181.689 C 48.757 180.724 48.422 179.745 48.035 178.789 C 47.661 177.858 47.202 176.963 46.847 176.026 C 46.532 175.192 46.307 174.324 46.046 173.468 C 45.809 172.695 45.572 171.923 45.341 171.148 C 44.888 169.631 44.428 168.118 43.992 166.597 C 43.544 165.041 43.236 163.46 43.23 161.831 C 43.229 161.314 43.255 160.794 43.224 160.279 C 43.159 159.211 43.026 158.147 42.999 157.079 C 42.984 156.505 43.145 155.927 43.204 155.35 C 43.309 154.321 43.331 153.28 43.514 152.265 C 43.647 151.526 43.793 150.77 44.185 150.085 C 44.42 149.674 44.518 149.185 44.664 148.725 C 44.711 148.574 44.674 148.388 44.747 148.259 C 45.234 147.404 45.17 146.459 45.28 145.528 C 45.419 144.353 45.117 143.425 44.326 142.544 C 43.271 141.368 42.31 140.105 41.34 138.857 C 41.069 138.508 40.906 138.076 40.692 137.681 C 40.079 136.548 39.313 135.469 38.888 134.27 C 38.375 132.818 38.145 131.265 37.8 129.755 C 37.721 129.406 37.72 129.034 37.601 128.702 C 37.164 127.483 37.355 126.277 37.595 125.057 C 37.743 124.306 37.818 123.541 37.948 122.786 C 38.006 122.443 38.072 122.091 38.212 121.777 C 38.673 120.742 39.138 119.707 39.665 118.705 C 39.993 118.078 40.407 117.487 40.833 116.918 C 41.299 116.3 41.855 115.747 42.316 115.124 C 42.836 114.422 43.501 113.924 44.271 113.56 C 45.267 113.091 46.258 112.598 47.29 112.227 C 48.164 111.913 49.094 111.757 50 111.532 C 50.03 111.525 50.074 111.551 50.095 111.537 C 50.837 111.066 51.536 111.35 52.277 111.586 C 52.757 111.738 53.312 111.766 53.816 111.704 C 54.747 111.588 55.612 111.821 56.489 112.041 C 56.615 112.073 56.743 112.114 56.87 112.109 C 58.713 112.046 60.288 112.864 61.883 113.624 C 62.35 113.847 62.832 114.037 63.302 114.254 C 65.859 115.434 67.441 117.43 68.043 120.159 C 68.329 121.45 68.55 122.778 68.587 124.094 C 68.641 126.026 68.571 127.967 68.419 129.894 C 68.328 131.072 67.994 132.232 67.745 133.395 C 67.693 133.64 67.543 133.867 67.422 134.095 C 67.04 134.812 66.657 135.528 66.264 136.238 C 66.094 136.55 65.931 136.874 65.714 137.152 C 65.095 137.94 64.479 138.733 63.808 139.475 C 62.855 140.528 62.255 141.784 61.628 143.031 C 61.324 143.636 61.571 144.177 61.782 144.711 C 61.922 145.069 62.132 145.413 62.367 145.721 C 64.409 148.379 65.346 151.412 65.562 154.732 C 65.69 156.687 65.667 158.611 65.389 160.558 C 65.215 161.77 65.289 163.024 64.935 164.22 C 64.185 166.762 63.728 169.387 62.652 171.838 C 61.844 173.677 61.196 175.583 60.457 177.452 C 59.567 179.695 59.018 182.023 58.543 184.388 C 58.036 186.912 57.565 189.43 57.323 192.001 C 57.155 193.777 56.746 195.532 56.446 197.296 C 56.403 197.552 56.367 197.809 56.345 198.067 C 56.297 198.609 56.286 199.158 56.213 199.699 C 55.809 202.665 55.374 205.63 54.986 208.598 C 54.868 209.5 54.864 210.418 54.807 211.327 C 54.799 211.458 54.799 211.59 54.778 211.717 C 54.651 212.501 54.16 213.006 53.54 212.998 C 52.985 212.99 52.528 212.499 52.457 211.711 C 52.273 209.669 52.092 207.626 51.971 205.58 C 51.81 202.85 51.707 200.114 51.579 197.381 C 51.486 195.399 51.391 193.415 51.325 192.017 Z M 53.806 203.642 C 53.884 203.65 53.962 203.657 54.038 203.664 C 54.163 202.776 54.295 201.889 54.407 200.999 C 54.577 199.646 54.704 198.286 54.901 196.937 C 55.18 195.038 55.521 193.149 55.805 191.252 C 55.988 190.03 56.056 188.786 56.283 187.574 C 56.725 185.209 57.191 182.845 57.75 180.506 C 58.081 179.12 58.551 177.761 59.061 176.429 C 59.708 174.74 60.569 173.128 61.137 171.416 C 61.847 169.277 62.395 167.08 62.934 164.89 C 63.596 162.207 63.892 159.476 63.902 156.706 C 63.911 154.301 63.303 152.053 62.418 149.851 C 62.263 149.467 62.21 149.018 61.98 148.69 C 61.147 147.496 60.326 146.313 59.784 144.936 C 59.57 144.393 59.38 143.861 59.517 143.349 C 59.737 142.518 60.09 141.716 60.449 140.93 C 60.673 140.438 61.002 139.991 61.301 139.533 C 61.493 139.237 61.676 138.92 61.931 138.684 C 63.048 137.645 63.768 136.296 64.723 135.13 C 65.893 133.701 66.254 131.884 66.662 130.12 C 66.705 129.933 66.684 129.732 66.689 129.538 C 66.717 128.596 66.742 127.656 66.77 126.716 C 66.819 125.036 66.906 123.362 66.575 121.691 C 66.209 119.843 65.408 118.244 63.891 117.113 C 63.133 116.549 62.255 116.116 61.38 115.75 C 60.193 115.254 58.965 114.841 57.733 114.464 C 56.746 114.161 55.727 113.952 54.716 113.732 C 54.373 113.657 54.011 113.669 53.657 113.649 C 52.832 113.606 51.979 113.911 51.185 113.423 C 51.072 113.354 50.863 113.401 50.713 113.443 C 49.438 113.803 48.108 113.993 46.948 114.705 C 46.761 114.82 46.51 114.826 46.31 114.924 C 45.443 115.348 44.416 115.618 43.761 116.264 C 42.734 117.277 41.841 118.476 41.107 119.724 C 39.86 121.841 39.367 124.229 39.074 126.653 C 39.05 126.846 39.046 127.046 39.071 127.238 C 39.381 129.625 39.799 131.981 40.803 134.2 C 41.339 135.384 41.914 136.536 42.774 137.521 C 43.769 138.661 44.78 139.787 45.76 140.943 C 46.37 141.665 46.968 142.461 47.005 143.421 C 47.056 144.669 47.49 145.936 46.972 147.183 C 46.938 147.265 46.988 147.377 46.974 147.472 C 46.906 147.913 46.882 148.371 46.745 148.79 C 46.434 149.743 46.047 150.673 45.728 151.623 C 45.503 152.291 45.339 152.98 45.152 153.66 C 44.813 154.896 44.785 156.158 44.805 157.425 C 44.837 159.488 44.776 161.536 45.137 163.6 C 45.604 166.263 46.426 168.816 47.166 171.396 C 48.062 174.516 49.308 177.512 50.547 180.509 C 50.819 181.164 51.081 181.83 51.264 182.513 C 51.491 183.357 51.593 184.236 51.816 185.081 C 52.292 186.875 52.805 188.658 52.892 190.531 C 52.946 191.701 53.006 192.873 53.105 194.041 C 53.161 194.706 53.099 195.404 53.574 195.99 C 53.696 196.141 53.675 196.427 53.684 196.652 C 53.73 197.921 53.78 199.19 53.803 200.461 C 53.821 201.521 53.806 202.582 53.806 203.642 Z "/>
            <path id="Shape" fill="#30419A" stroke="none" stroke-width="1" d="M 61.079 129.871 C 61.12 131.09 60.753 132.244 60.585 133.426 C 60.365 134.996 59.884 136.439 59.283 137.873 C 59.185 138.11 59.125 138.37 59.088 138.626 C 58.786 140.618 58.403 142.605 58.22 144.61 C 57.93 147.757 56.959 150.785 56.683 153.932 C 56.614 154.732 56.372 155.533 56.103 156.295 C 55.486 158.038 55.374 159.868 55.205 161.669 C 54.929 164.582 54.832 167.509 54.661 170.431 C 54.65 170.594 54.648 170.758 54.62 170.917 C 54.541 171.362 54.27 171.619 53.816 171.606 C 53.354 171.595 53.081 171.309 53.07 170.864 C 53.052 170.083 53.052 169.298 53.106 168.519 C 53.326 165.274 53.054 162.095 52.023 158.984 C 51.635 157.816 51.391 156.595 51.143 155.384 C 50.771 153.568 50.431 151.745 50.12 149.915 C 49.77 147.864 49.473 145.804 49.142 143.749 C 49.085 143.399 49.015 143.041 48.878 142.715 C 47.822 140.21 47.223 137.571 46.781 134.911 C 46.453 132.928 46.303 130.904 46.241 128.895 C 46.203 127.65 46.274 126.329 46.653 125.159 C 47.262 123.28 48.106 121.462 49.977 120.406 C 50.393 120.17 50.716 119.773 51.113 119.497 C 51.426 119.279 51.774 119.024 52.131 118.978 C 53.311 118.819 54.517 118.514 55.688 118.934 C 57.369 119.54 59.04 120.274 59.908 121.951 C 60.5 123.092 60.842 124.372 60.908 125.687 C 60.978 127.081 61.024 128.476 61.079 129.871 Z M 53.622 159.001 C 53.711 158.995 53.801 158.989 53.89 158.983 C 53.923 158.869 53.969 158.754 53.986 158.637 C 54.229 157.061 54.441 155.479 54.716 153.907 C 55.001 152.275 55.364 150.656 55.661 149.026 C 56.016 147.075 56.337 145.12 56.675 143.166 C 57.053 140.992 57.249 138.775 58.235 136.75 C 58.304 136.607 58.322 136.437 58.355 136.279 C 58.639 134.95 58.923 133.621 59.201 132.292 C 59.247 132.073 59.282 131.848 59.291 131.625 C 59.359 129.878 59.503 128.139 59.347 126.383 C 59.194 124.661 58.656 123.194 57.335 122.024 C 56.197 121.015 54.773 121.164 53.442 120.966 C 52.96 120.895 52.332 120.943 51.955 121.204 C 50.974 121.886 49.925 122.584 49.221 123.517 C 48.434 124.559 47.937 125.846 48.074 127.253 C 48.091 127.432 48.01 127.62 47.974 127.803 C 47.912 128.117 47.78 128.437 47.802 128.744 C 47.872 129.715 48.013 130.682 48.1 131.652 C 48.2 132.747 48.153 133.87 48.379 134.939 C 48.902 137.419 49.375 139.921 50.413 142.263 C 50.568 142.614 50.64 143.01 50.698 143.394 C 50.884 144.648 51.007 145.913 51.226 147.161 C 51.673 149.693 52.144 152.222 52.645 154.744 C 52.93 156.17 53.294 157.582 53.622 159.001 Z "/>
          </g>
          <g id="Group-5">
            <path id="Shape" fill="#FFFFFF" stroke="none" stroke-width="1" d="M 26.152 163.099 L 27.749 160.399 L 27.749 156.799 L 25.553 153.299 L 21.96 151.9 L 18.666 153.7 L 17.967 154.9 L 14.583 153.1 L 9.782 152.399 L 6.688 154.699 L 5.49 157.499 L 6.588 160.199 L 3.493 161.299 L 1.497 164.566 L 1.497 168.4 L 3.493 171.607 L 7.886 174.499 L 12.249 174.499 L 13.974 173.899 L 15.771 175.9 L 19.364 176.999 L 22.658 176.999 L 25.353 175 L 27.749 170.899 L 28.248 166.3 L 27.549 164.449 L 26.152 163.099 "/>
            <path id="Shape" fill="#30419A" stroke="none" stroke-width="1" d="M 13.668 174.941 C 11.788 176.105 9.779 175.747 7.82 175.625 C 5.727 175.493 4.199 174.306 2.977 172.682 C 2.547 172.111 2.164 171.503 1.74 170.926 C -0.228 168.244 -0.007 165.447 1.366 162.632 C 1.732 161.883 2.251 161.177 2.824 160.569 C 3.344 160.017 4.032 159.626 4.756 159.082 C 4.721 158.69 4.655 158.12 4.622 157.549 C 4.56 156.462 4.913 155.526 5.572 154.652 C 6.449 153.489 7.405 152.464 8.797 151.915 C 10.566 151.217 12.346 151.132 14.098 151.882 C 15.227 152.367 16.296 152.989 17.481 153.595 C 17.69 153.333 17.925 153.032 18.168 152.735 C 19.842 150.698 22.811 150.39 24.893 152.025 C 25.991 152.889 27.053 153.753 27.876 154.935 C 29.31 156.992 29.06 160.487 27.457 162.231 C 27.307 162.394 27.173 162.57 26.979 162.805 C 27.326 163.085 27.629 163.318 27.918 163.567 C 28.456 164.029 28.829 164.582 28.848 165.322 C 28.898 167.312 28.847 169.295 28.402 171.247 C 28.129 172.448 27.575 173.507 26.718 174.393 C 25.861 175.28 25.03 176.2 24.112 177.018 C 23.007 178.003 21.697 178.378 20.214 178.025 C 19.425 177.838 18.61 177.752 17.828 177.54 C 16.205 177.1 14.702 176.428 13.668 174.941 Z M 11.623 153.013 C 9.833 152.842 8.061 153.878 7.192 155.166 C 7.101 155.301 7.001 155.429 6.904 155.56 C 5.797 157.051 5.924 158.408 7.29 159.673 C 7.739 160.088 7.839 160.494 7.586 160.87 C 7.339 161.239 6.908 161.315 6.361 161.089 C 5.39 160.687 4.765 160.771 4.102 161.503 C 3.198 162.502 2.449 163.615 2.146 164.951 C 1.752 166.691 1.783 168.377 2.953 169.879 C 3.393 170.443 3.775 171.052 4.187 171.638 C 5.358 173.301 6.931 174.176 8.992 174.116 C 9.741 174.095 10.496 174.175 11.234 174.092 C 11.729 174.035 12.27 173.867 12.658 173.574 C 12.887 173.399 12.884 172.887 12.941 172.52 C 13.028 171.953 13.33 171.593 13.764 171.603 C 14.192 171.611 14.537 171.963 14.549 172.547 C 14.577 173.939 15.437 174.724 16.514 175.36 C 16.734 175.492 16.983 175.598 17.233 175.658 C 18.429 175.948 19.631 176.218 20.831 176.497 C 21.512 176.655 22.108 176.47 22.677 176.092 C 24.197 175.082 25.32 173.695 26.333 172.215 C 26.6 171.825 26.741 171.326 26.855 170.857 C 27.275 169.133 27.313 167.372 27.25 165.614 C 27.239 165.305 27.01 164.951 26.781 164.717 C 26.396 164.324 25.922 164.023 25.501 163.664 C 24.938 163.183 24.892 162.721 25.356 162.151 C 25.603 161.85 25.886 161.578 26.158 161.297 C 27.361 160.049 27.665 157.495 26.568 155.842 C 25.839 154.742 24.82 154.021 23.842 153.223 C 22.848 152.412 21.668 152.455 20.603 152.842 C 19.576 153.215 18.833 154.004 18.843 155.274 C 18.847 155.841 18.316 156.118 17.795 155.889 C 17.621 155.812 17.486 155.651 17.32 155.554 C 16.149 154.857 14.98 154.154 13.797 153.479 C 13.1 153.085 12.345 152.909 11.623 153.013 Z "/>
          </g>
          <g id="Group-4">
            <path id="Shape" fill="#FFFFFF" stroke="none" stroke-width="1" d="M 95.625 136.699 L 92.331 136.699 L 89.735 137.5 L 86.641 140.2 L 85.443 143.099 L 85.942 146.999 L 87.739 149.8 L 90.035 150.977 L 91.931 150.4 L 93.429 153.4 L 98.22 155.999 L 103.31 155.999 L 106.504 154 L 107.702 150.1 L 107.103 146.35 L 104.508 144.4 L 105.606 141.7 L 106.106 138.299 L 104.708 135.499 L 101.214 133.699 L 98.22 133.699 L 96.573 134.999 L 95.625 136.699 "/>
            <path id="Shape" fill="#30419A" stroke="none" stroke-width="1" d="M 94.935 135.805 C 95.313 134.785 96.184 133.994 97.018 133.172 C 97.505 132.692 98.085 132.511 98.767 132.436 C 100.91 132.2 102.795 132.941 104.429 134.149 C 105.918 135.248 106.971 136.769 106.922 138.778 C 106.903 139.555 106.839 140.335 106.736 141.104 C 106.589 142.183 106.247 143.195 105.487 144.075 C 105.759 144.23 106.014 144.319 106.195 144.488 C 106.71 144.972 107.355 145.406 107.666 146.008 C 108.785 148.18 109.022 150.493 108.229 152.827 C 107.419 155.212 104.59 157.21 102.078 157.255 C 100.454 157.286 98.838 157.292 97.235 156.873 C 94.386 156.128 92.656 154.189 91.328 151.63 C 91.211 151.63 90.987 151.603 90.774 151.636 C 89.578 151.819 88.534 151.493 87.568 150.781 C 85.559 149.296 84.66 147.231 84.501 144.818 C 84.441 143.92 84.52 142.989 84.69 142.105 C 84.924 140.896 85.546 139.856 86.485 139.036 C 87.244 138.374 87.995 137.695 88.792 137.078 C 89.882 136.233 91.049 135.487 92.491 135.505 C 93.252 135.516 94.012 135.686 94.935 135.805 Z M 94.774 137.267 C 94.453 137.267 94.148 137.339 93.895 137.255 C 92.312 136.733 91.03 137.362 89.832 138.288 C 89.164 138.805 88.554 139.399 87.89 139.921 C 86.77 140.801 86.205 141.961 86.071 143.355 C 85.944 144.679 86.157 145.961 86.656 147.182 C 87.127 148.336 87.946 149.216 89.033 149.816 C 90.181 150.451 91.025 150.12 91.504 148.903 C 91.61 148.631 91.663 148.295 91.858 148.114 C 92.062 147.92 92.444 147.735 92.676 147.802 C 92.912 147.868 93.131 148.222 93.222 148.495 C 93.293 148.711 93.123 148.997 93.124 149.253 C 93.129 150.089 93.161 150.925 93.184 151.762 C 94.16 153.209 95.243 154.53 96.975 155.125 C 98.8 155.753 100.684 155.793 102.569 155.61 C 104.439 155.426 106.524 153.546 106.906 151.727 C 107.242 150.129 107.089 148.55 106.433 147.04 C 106.177 146.448 105.761 146.008 105.164 145.75 C 104.398 145.418 104.263 145.453 103.671 146.104 C 103.54 146.246 103.409 146.403 103.245 146.495 C 102.694 146.804 102.103 146.489 102.023 145.861 C 101.929 145.127 102.379 144.341 103.024 144.01 C 103.36 143.84 103.675 143.613 103.958 143.365 C 104.997 142.454 105.151 141.163 105.353 139.914 C 105.646 138.106 104.975 136.568 103.593 135.513 C 102.278 134.506 100.733 133.795 98.968 134.075 C 98.609 134.131 98.251 134.316 97.94 134.515 C 97.674 134.687 97.474 134.965 97.244 135.195 C 96.641 135.798 96.273 136.492 96.366 137.38 C 96.382 137.54 96.378 137.705 96.362 137.867 C 96.309 138.414 96.048 138.718 95.622 138.737 C 95.186 138.758 94.902 138.483 94.821 137.938 C 94.787 137.716 94.789 137.489 94.774 137.267 Z "/>
          </g>
        </g>
      </g>
    </g>
  </g>
</svg>