<svg version="1.1" xmlns="http://www.w3.org/2000/svg" xmlns:xlink="http://www.w3.org/1999/xlink" width="244.04395" height="208.32338" viewBox="0,0,244.04395,208.32338"><g transform="translate(-115.87785,-73.74185)"><g data-paper-data="{&quot;isPaintingLayer&quot;:true}" fill="none" fill-rule="evenodd" stroke="none" stroke-width="1" stroke-linecap="butt" stroke-linejoin="miter" stroke-miterlimit="10" stroke-dasharray="" stroke-dashoffset="0" font-family="none" font-weight="none" font-size="none" text-anchor="none" style="mix-blend-mode: normal"><g id="Shape"><path d="M264.01529,182.67746c7.6422,11.72806 6.21865,35.25935 -4.64526,40.07086c-10.86391,4.81151 -23.75076,11.5777 -28.54587,13.75791c-4.72018,2.10504 -5.3945,4.28525 -9.44037,24.73417c-1.04893,5.11223 -7.79205,12.7054 -7.9419,1.65396c0,-2.18022 -0.37462,-18.94532 1.87309,-24.58381c4.19572,-10.29964 8.69113,-9.24712 12.06269,-12.10396c4.27064,-3.53345 8.69113,-10.0741 2.99694,-21.12554c-10.78899,-21.05036 14.68502,-51.42302 33.64067,-22.4036z" id="Path" fill="#69b229"/><path d="M221.30887,265.14976c0.52446,1.42842 3.52141,3.60863 4.79511,3.98453c1.2737,0.3759 1.72324,-0.90216 3.44648,-0.07518c1.64832,0.82698 1.42355,2.48094 0.37462,3.23273c-1.04893,0.7518 -1.34862,0.60144 -1.94801,0.45108c0,0 0,0.67662 -0.52446,1.35324c-0.67431,0.82698 -1.64832,0.7518 -2.39755,0.15036c-0.74924,-0.60144 -1.12385,-0.52626 -1.12385,-0.52626c0,0 0,1.35324 -0.89908,1.8795c-1.2737,0.7518 -2.09786,0.15036 -2.92202,-1.27806c-0.82416,-1.42842 -2.17278,-1.95468 -4.49541,-2.48094c-1.64832,-0.3759 -3.07187,-3.53345 -2.69725,-6.76619c0.52446,-4.66115 0.59939,-7.59317 3.44648,-8.1946c8.24159,-1.80432 4.04587,5.71367 4.94495,8.26978z" id="Path" fill="#69b229"/><path d="M227.75229,272.36703c0,-0.22554 -0.14985,-0.52626 -0.37462,-0.82698c-0.14985,-0.15036 -0.29969,-0.22554 -0.44954,-0.3759c-0.14985,-0.15036 -0.37462,-0.22554 -0.59939,-0.30072c-0.22477,0 -0.44954,-0.07518 -0.67431,-0.07518c-0.29969,0 -0.52446,0 -0.82416,0c-0.52446,-0.07518 -1.04893,-0.30072 -1.49847,-0.52626c-0.44954,-0.30072 -0.82416,-0.52626 -1.12385,-0.82698c-0.29969,-0.30072 -0.44954,-0.52626 -0.59939,-0.7518c-0.07492,-0.15036 -0.14985,-0.30072 -0.14985,-0.30072c0,0 0.07492,0.07518 0.22477,0.22554c0.14985,0.15036 0.44954,0.3759 0.74924,0.60144c0.29969,0.22554 0.67431,0.3759 1.12385,0.60144c0.44954,0.22554 0.97401,0.3759 1.42355,0.45108c0.22477,0.07518 0.44954,0.07518 0.74924,0.07518c0.29969,0 0.59939,0.07518 0.82416,0.15036c0.52446,0.15036 0.89908,0.52626 1.12385,0.90216c0.14985,0.15036 0.14985,0.3759 0.22477,0.52626c0.07492,0.22554 0.07492,0.30072 0.07492,0.45108c0,0.22554 0,0.3759 0,0.3759c0,0 0,-0.15036 -0.22477,-0.3759z" id="Path" fill="#519b3d"/><path d="M223.78135,273.49472c-0.07492,-0.22554 -0.14985,-0.45108 -0.29969,-0.67662c-0.22477,-0.52626 -0.82416,-0.97734 -1.57339,-1.27806c-0.67431,-0.30072 -1.49847,-0.60144 -2.02294,-0.90216c-0.29969,-0.15036 -0.44954,-0.30072 -0.59939,-0.45108c-0.07492,-0.15036 -0.14985,-0.22554 -0.14985,-0.22554c0,0 0.29969,0.22554 0.89908,0.45108c0.52446,0.15036 1.34862,0.3759 2.09786,0.67662c0.22477,0.07518 0.44954,0.15036 0.59939,0.30072c0.22477,0.07518 0.37462,0.22554 0.52446,0.3759c0.29969,0.22554 0.52446,0.60144 0.59939,0.90216c0.22477,0.60144 0.07492,1.05252 0.07492,1.05252c0,0 0,-0.07518 -0.14985,-0.22554z" id="Path" fill="#519b3d"/><path d="M222.58257,275.29904c-0.52446,-0.52626 -0.89908,-1.20288 0.07492,-1.35324c1.57339,-0.30072 0.82416,2.85684 0.82416,2.85684c-0.14985,-0.90216 -0.44954,-1.05252 -0.89908,-1.5036z" id="Path" fill="#a1af93"/><path d="M226.77829,274.17134c-0.59939,-0.45108 -1.12385,-0.97734 -0.14985,-1.35324c1.57339,-0.52626 1.34862,2.70648 1.34862,2.70648c-0.29969,-0.82698 -0.59939,-0.90216 -1.19878,-1.35324z" id="Path" fill="#a1af93"/><path d="M230,272.44221c-0.67431,-0.22554 -1.2737,-0.60144 -0.52446,-1.20288c1.19878,-1.05252 2.09786,2.10504 2.09786,2.10504c-0.52446,-0.67662 -0.82416,-0.67662 -1.57339,-0.90216z" id="Path" fill="#a1af93"/><path d="M232.62232,217.86163c0.07492,-0.45108 0.14985,-1.1277 0.14985,-1.95468c0.07492,-0.7518 0,-1.72914 -0.14985,-2.70647c-0.07492,-0.45108 -0.07492,-0.97734 -0.22477,-1.5036c-0.14985,-0.52626 -0.22477,-1.05252 -0.37462,-1.57878c-0.07492,-0.52626 -0.22477,-1.05252 -0.37462,-1.57878c-0.14985,-0.52626 -0.29969,-1.05252 -0.44954,-1.5036c-0.14985,-0.45108 -0.29969,-0.90216 -0.44954,-1.35324c-0.14985,-0.45108 -0.29969,-0.82698 -0.44954,-1.20288c-0.29969,-0.7518 -0.59939,-1.35324 -0.74924,-1.80432c-0.22477,-0.45108 -0.29969,-0.67662 -0.29969,-0.67662c0,0 0.14985,0.30072 0.37462,0.67662c0.22477,0.3759 0.59939,0.97734 0.89908,1.72914c0.14985,0.3759 0.29969,0.7518 0.52446,1.20288c0.14985,0.45108 0.37462,0.90216 0.52446,1.35324c0.22477,0.52626 0.37462,0.97734 0.52446,1.5036c0.14985,0.52626 0.29969,1.05252 0.44954,1.57878c0.07492,0.52626 0.22477,1.05252 0.29969,1.57878c0.14985,0.52626 0.14985,1.05252 0.22477,1.57878c0.07492,0.52626 0.07492,1.05252 0.07492,1.5036c0,0.52626 0,0.97734 -0.07492,1.35324c0,0.82698 -0.14985,1.5036 -0.29969,1.95468c-0.07492,0.45108 -0.22477,0.67662 -0.22477,0.67662c0,0 0.07492,-0.22554 0.07492,-0.82698z" id="Path" fill="#519b3d"/><path d="M232.5474,235.82962c-0.52446,0.30072 -1.34862,0.67662 -2.24771,1.20288c-0.44954,0.30072 -0.97401,0.52626 -1.42355,0.90216c-0.22477,0.22554 -0.52446,0.3759 -0.67431,0.60144c-0.14985,0.22554 -0.37462,0.52626 -0.52446,0.7518c-0.74924,1.05252 -1.2737,2.40576 -1.72324,3.68381c-0.44954,1.27806 -0.82416,2.63129 -1.19878,3.90935c-0.37462,1.27806 -0.74924,2.40576 -0.97401,3.45827c-0.52446,2.02986 -0.89908,3.38309 -0.89908,3.38309c0,0 0.07492,-0.3759 0.14985,-0.97734c0.07492,-0.60144 0.22477,-1.42842 0.44954,-2.48094c0.22477,-1.05252 0.52446,-2.2554 0.82416,-3.53345c0.37462,-1.27806 0.74924,-2.63129 1.19878,-3.98453c0.44954,-1.35324 1.04893,-2.63129 1.79817,-3.75899c0.22477,-0.30072 0.37462,-0.60144 0.59939,-0.82698c0.22477,-0.22554 0.52446,-0.45108 0.74924,-0.60144c0.52446,-0.30072 1.04893,-0.60144 1.49847,-0.82698c0.89908,-0.52626 1.72324,-0.82698 2.32263,-1.05252c0.59939,-0.22554 0.89908,-0.30072 0.89908,-0.30072c0,0 -0.37462,0.15036 -0.82416,0.45108z" id="Path" fill="#519b3d"/></g><g id="Shape"><path d="M237.19266,78.0271c47.42661,-8.26978 59.63914,21.35108 59.63914,21.35108c-20.60398,24.13273 -3.37156,71.42086 -3.37156,71.42086c-22.62691,-28.7187 -67.05657,-3.98453 -67.05657,-3.98453c3.37156,-32.70324 -26.97248,-19.92266 -26.97248,-19.92266c11.16361,-31.42518 -11.4633,-31.87626 -18.58104,-29.0946c0,0 34.09021,-35.78561 56.34251,-39.77014z" id="Path" fill="#a1c380"/><path d="M295.25841,176.36235c-2.69725,-11.50252 -11.01376,-16.68993 -13.78593,-33.75575c-2.5474,-15.26151 7.11774,-34.73309 7.11774,-34.73309c0,0 -13.33639,2.40576 -27.94648,9.09676c-15.20948,6.91655 -36.03823,54.20468 -36.03823,54.20468c0,0 6.29358,-24.50863 16.8578,-45.18309c10.56422,-20.67446 48.02599,-25.56115 48.02599,-25.56115c0,0 -29.51988,-6.84137 -43.08104,-2.33058c-13.56116,4.51079 -49.37462,52.77626 -49.37462,52.77626c17.15749,-35.40971 35.43884,-51.64856 46.52752,-59.84317c11.16361,-8.1946 47.27676,2.40576 47.27676,2.40576c-2.69725,-7.66835 -31.39297,-13.75791 -48.85015,-12.78058c-17.38226,0.97734 -65.78287,41.4241 -65.78287,41.4241c0,0 40.83333,-45.85971 64.13456,-47.96475c29.5948,-2.63129 59.71407,13.15647 59.71407,13.15647c1.34862,-7.89388 -7.86697,-9.77338 -7.86697,-9.77338c7.56728,-0.90216 13.41132,6.08957 15.05963,15.11115c1.64832,9.02158 -14.0107,26.23777 -17.08257,41.64964c-3.07187,15.41187 19.77982,40.2964 19.77982,40.2964c0.89908,6.23993 -12.96177,9.39748 -14.68501,1.80432z" id="Path" fill="#69b229"/><path d="M305.97248,170.12242c-1.19878,-1.42842 -2.84709,-3.53345 -4.72018,-6.08957c-1.87309,-2.55612 -3.97095,-5.63849 -5.91896,-9.09676c-1.94801,-3.45827 -3.8211,-7.29245 -4.94495,-11.42734c-0.52447,-2.02986 -0.82416,-4.21007 -0.67431,-6.31511c0.22477,-2.10504 0.74923,-4.13489 1.2737,-6.01439c1.12385,-3.83417 2.62232,-7.21727 4.04587,-10.0741c1.42355,-2.85683 2.69725,-5.18741 3.67125,-6.76619c0.89908,-1.57878 1.49847,-2.48094 1.49847,-2.48094c0,0 -2.24771,3.60863 -4.94495,9.3223c-1.34862,2.85683 -2.77217,6.31511 -3.89602,10.0741c-0.52447,1.8795 -0.97401,3.90935 -1.19878,5.93921c-0.14985,2.02986 0.14985,4.13489 0.67431,6.16475c1.12385,4.05971 2.92202,7.89388 4.87003,11.35216c1.87309,3.45827 3.97095,6.54065 5.76911,9.17194c3.67125,5.18741 6.44343,8.42014 6.44343,8.42014c0,0 -0.74924,-0.7518 -1.94801,-2.18022z" id="Path" fill="#519b3d"/><path d="M290.53823,100.28034c-1.04893,0.22554 -2.5474,0.45108 -4.27064,0.82698c-1.72324,0.3759 -3.74618,0.82698 -5.91896,1.35324c-2.17278,0.52626 -4.49541,1.1277 -6.74312,1.8795c-2.24771,0.67662 -4.49541,1.42842 -6.59327,2.2554c-2.02294,0.82698 -3.97095,1.57878 -5.61927,2.33058c-1.57339,0.7518 -2.99694,1.35324 -3.89602,1.80432c-0.97401,0.45108 -1.49847,0.7518 -1.49847,0.7518c0,0 0.52446,-0.30072 1.42355,-0.82698c0.89908,-0.45108 2.17278,-1.20288 3.8211,-1.95468c1.64832,-0.82698 3.52141,-1.65396 5.61927,-2.48094c2.02294,-0.82698 4.34557,-1.57878 6.59327,-2.33058c2.24771,-0.67662 4.57034,-1.27806 6.74312,-1.80432c2.17278,-0.52626 4.19572,-0.90216 5.99388,-1.20288c1.72324,-0.30072 3.22171,-0.45108 4.27064,-0.60144c1.04893,-0.07518 1.64832,-0.15036 1.64832,-0.22554c0,0.07518 -0.59939,0.15036 -1.57339,0.22554z" id="Path" fill="#519b3d"/><path d="M291.21254,93.73969c-1.04893,-0.30072 -2.5474,-0.7518 -4.42049,-1.20288c-1.79816,-0.45108 -3.97095,-0.97734 -6.29358,-1.42842c-2.32263,-0.45108 -4.87003,-0.90216 -7.34251,-1.27806c-1.2737,-0.22554 -2.5474,-0.3759 -3.74618,-0.52626c-1.2737,-0.22554 -2.47248,-0.30072 -3.67125,-0.45108c-1.12385,-0.15036 -2.32263,-0.22554 -3.37156,-0.30072c-1.12385,-0.15036 -2.09786,-0.15036 -3.07187,-0.22554c-0.97401,-0.07518 -1.87309,-0.07518 -2.62232,-0.15036c-0.82416,-0.07518 -1.49847,-0.07518 -2.02294,-0.07518c-1.12385,-0.07518 -1.72324,-0.07518 -1.72324,-0.07518c0,0 0.59939,-0.07518 1.72324,-0.07518c0.59939,-0.07518 1.2737,-0.07518 2.02294,-0.07518c0.82416,0 1.64832,0.07518 2.62232,0.07518c0.97401,0.07518 1.94801,0.07518 3.07187,0.15036c1.12385,0.07518 2.24771,0.07518 3.44648,0.22554c1.19878,0.07518 2.39755,0.22554 3.67125,0.3759c1.19878,0.15036 2.47248,0.30072 3.74618,0.52626c2.5474,0.3759 5.01988,0.82698 7.34251,1.35324c1.19878,0.22554 2.32263,0.52626 3.37156,0.7518c1.04893,0.30072 2.09786,0.52626 2.99694,0.82698c1.87309,0.52626 3.37156,0.97734 4.42049,1.35324c1.04893,0.3759 1.64832,0.60144 1.64832,0.60144c0,0 -0.59939,-0.22554 -1.79816,-0.3759z" id="Path" fill="#519b3d"/><path d="M297.73089,86.37206c-1.42355,-0.67662 -3.44648,-1.57878 -5.99388,-2.55612c-1.19878,-0.52626 -2.62232,-1.05252 -4.04587,-1.57878c-1.42355,-0.52626 -2.99694,-0.97734 -4.57034,-1.57878c-1.5734,-0.45108 -3.22171,-1.05252 -4.94495,-1.5036c-1.72324,-0.52626 -3.44648,-1.05252 -5.16972,-1.42842c-0.89908,-0.22554 -1.72324,-0.45108 -2.62232,-0.67662c-0.89908,-0.22554 -1.72324,-0.45108 -2.62232,-0.60144c-0.82416,-0.15036 -1.72324,-0.3759 -2.5474,-0.52626c-0.89908,-0.15036 -1.72324,-0.30072 -2.5474,-0.45108c-0.82416,-0.15036 -1.64832,-0.30072 -2.47248,-0.45108c-0.74924,-0.07518 -1.57339,-0.22554 -2.32263,-0.30072c-0.74924,-0.07518 -1.49847,-0.22554 -2.24771,-0.30072c-0.74924,-0.15036 -1.42355,-0.15036 -2.09786,-0.22554c-1.34862,-0.07518 -2.5474,-0.22554 -3.67125,-0.30072c-1.12385,0 -2.02294,-0.07518 -2.84709,-0.07518c-1.57339,-0.07518 -2.47248,-0.07518 -2.47248,-0.07518c0,0 0.89908,0 2.47248,0c0.82416,0 1.72324,0 2.84709,0c1.04893,0.07518 2.32263,0.15036 3.67125,0.22554c0.67431,0.07518 1.34862,0.07518 2.09786,0.15036c0.74924,0.07518 1.49847,0.15036 2.24771,0.22554c0.82416,0.15036 1.57339,0.22554 2.39755,0.30072c0.82416,0.07518 1.64832,0.22554 2.47248,0.3759c0.82416,0.15036 1.72324,0.30072 2.5474,0.45108c0.89908,0.15036 1.72324,0.3759 2.62232,0.52626c0.89908,0.15036 1.72324,0.3759 2.62232,0.52626c0.89908,0.22554 1.72324,0.45108 2.62232,0.67662c1.72324,0.3759 3.44648,0.90216 5.16972,1.42842c1.64832,0.52626 3.29664,1.05252 4.94495,1.57878c1.57339,0.52626 3.14679,1.05252 4.57034,1.65396c1.42355,0.60144 2.77217,1.1277 4.04587,1.65396c1.2737,0.52626 2.39755,1.05252 3.37156,1.5036c0.97401,0.45108 1.87309,0.82698 2.5474,1.20288c1.42355,0.67662 2.24771,1.1277 2.24771,1.1277c0,0 -0.82416,-0.45108 -2.32263,-0.97734z" id="Path" fill="#519b3d"/><path d="M294.2844,174.10695c0,-0.30072 -0.07492,-0.7518 -0.22477,-1.35324c-0.14985,-0.60144 -0.37462,-1.27806 -0.67431,-2.02986c-0.37462,-0.7518 -0.74924,-1.57878 -1.19878,-2.48094c-0.44954,-0.90216 -0.97401,-1.8795 -1.5734,-2.85683c-0.59939,-0.97734 -1.2737,-2.02986 -1.94801,-3.08237c-1.34862,-2.10504 -2.62232,-4.58597 -3.67125,-7.06691c-1.04893,-2.55612 -1.87309,-5.11223 -2.5474,-7.59317c-0.59939,-2.48094 -1.04893,-4.81151 -1.2737,-6.84137c-0.29969,-1.95468 -0.29969,-3.68381 -0.22477,-4.88669c0.07492,-0.60144 0.07492,-1.05252 0.14985,-1.35324c0.07492,-0.30072 0.07492,-0.45108 0.07492,-0.45108c0,0 -0.07492,0.15036 -0.07492,0.45108c0,0.30072 -0.07492,0.7518 -0.07492,1.35324c0,1.20288 0.07492,2.85683 0.37462,4.88669c0.29969,2.02986 0.74923,4.28525 1.42355,6.76619c0.59939,2.48094 1.49847,5.03705 2.5474,7.51799c1.04893,2.48094 2.24771,4.96187 3.59633,7.06691c0.67431,1.05252 1.2737,2.18022 1.87309,3.15755c0.59939,1.05252 1.12385,2.02986 1.57339,2.93201c0.89908,1.80432 1.49847,3.45827 1.72324,4.58597c0.14985,0.60144 0.22477,1.05252 0.22477,1.35324c0,0.30072 0,0.45108 0,0.45108c0,0 0,-0.15036 -0.07492,-0.52626z" id="Path" fill="#519b3d"/><path d="M289.86391,106.82098c-0.52447,0.82698 -1.12385,1.95468 -1.64832,3.15755c-0.59939,1.20288 -1.12385,2.40576 -1.49847,3.30791c-0.14985,0.45108 -0.29969,0.82698 -0.44954,1.05252c-0.14985,0.22554 -0.22477,0.3759 -0.22477,0.3759c0,0 0,-0.15036 0.07492,-0.45108c0.07492,-0.22554 0.14985,-0.67662 0.2997,-1.1277c0.22477,-0.97734 0.74923,-2.18022 1.2737,-3.38309c0.52447,-1.20288 1.19878,-2.33058 1.79817,-3.15755c0.29969,-0.3759 0.52446,-0.67662 0.74924,-0.90216c0.14985,-0.22554 0.29969,-0.30072 0.29969,-0.30072c0,0 -0.44954,0.60144 -0.67431,1.42842z" id="Path" fill="#519b3d"/><path d="M290.53823,92.68717c-0.14985,-0.15036 -0.29969,-0.3759 -0.52447,-0.60144c-0.22477,-0.22554 -0.44954,-0.52626 -0.74924,-0.7518c-0.29969,-0.22554 -0.59939,-0.52626 -0.97401,-0.7518c-0.29969,-0.22554 -0.74923,-0.45108 -1.12385,-0.7518c-0.37462,-0.22554 -0.82416,-0.52626 -1.2737,-0.7518c-0.44954,-0.22554 -0.89908,-0.45108 -1.34862,-0.67662c-0.44954,-0.22554 -0.89908,-0.45108 -1.34862,-0.67662c-0.44954,-0.22554 -0.89908,-0.3759 -1.34862,-0.60144c-0.89908,-0.3759 -1.72324,-0.67662 -2.47248,-0.97734c-1.42355,-0.60144 -2.39755,-0.97734 -2.39755,-0.97734c0,0 0.22477,0 0.67431,0.15036c0.44954,0.15036 1.04893,0.30072 1.79816,0.52626c0.67431,0.30072 1.57339,0.52626 2.47248,0.90216c0.44954,0.22554 0.97401,0.3759 1.42355,0.60144c0.44954,0.22554 0.97401,0.45108 1.42355,0.67662c0.44954,0.22554 0.89908,0.52626 1.34862,0.7518c0.44954,0.30072 0.89908,0.52626 1.2737,0.82698c0.37462,0.22554 0.74923,0.52626 1.12385,0.82698c0.37462,0.22554 0.67431,0.52626 0.97401,0.82698c0.22477,0.30072 0.52446,0.52626 0.67431,0.82698c0.22477,0.22554 0.37462,0.45108 0.44954,0.67662c0.22477,0.3759 0.22477,0.67662 0.22477,0.67662c0,0 -0.07492,-0.30072 -0.29969,-0.7518z" id="Path" fill="#519b3d"/><path d="M300.27829,84.56775c0.14985,0.45108 0.22477,0.97734 0.22477,1.57878c0,0.60144 -0.07492,1.27806 -0.37462,1.8795c-0.07492,0.07518 -0.14985,0.22554 -0.29969,0.3759c-0.07492,0.15036 -0.22477,0.30072 -0.29969,0.3759c-0.14985,0.15036 -0.29969,0.45108 -0.37462,0.67662c-0.14985,0.52626 -0.07492,1.05252 0.07492,1.42842c0.14985,0.3759 0.37462,0.67662 0.59939,0.82698c0.22477,0.22554 0.37462,0.22554 0.37462,0.22554c0,0 -0.22477,0.07518 -0.44954,-0.07518c-0.29969,-0.15036 -0.59939,-0.3759 -0.82416,-0.82698c-0.22477,-0.45108 -0.37462,-1.05252 -0.22477,-1.65396c0.07492,-0.30072 0.14985,-0.60144 0.37462,-0.90216c0.07492,-0.15036 0.22477,-0.22554 0.29969,-0.3759c0.07492,-0.07518 0.14985,-0.15036 0.22477,-0.30072c0.22477,-0.52626 0.37462,-1.1277 0.37462,-1.65396c0,-0.52626 0,-1.05252 -0.07492,-1.5036c-0.07492,-0.90216 -0.22477,-1.5036 -0.22477,-1.5036c0,0 0.29969,0.52626 0.59939,1.42842z" id="Path" fill="#519b3d"/><path d="M274.05505,158.244c-0.37462,-0.07518 -0.89908,-0.22554 -1.57339,-0.3759c-0.67431,-0.07518 -1.49847,-0.22554 -2.47248,-0.3759c-0.44954,-0.07518 -0.97401,-0.07518 -1.49847,-0.15036c-0.52446,-0.07518 -1.04893,-0.15036 -1.64832,-0.15036c-0.52446,0 -1.19878,-0.07518 -1.79817,-0.07518c-0.59939,0 -1.2737,0 -1.94801,0c-1.34862,-0.07518 -2.69725,0.07518 -4.19572,0.15036c-0.74924,0.07518 -1.49847,0.15036 -2.24771,0.22554c-0.74924,0.15036 -1.49847,0.15036 -2.24771,0.30072c-0.82416,0.15036 -1.57339,0.22554 -2.32263,0.3759l-1.12385,0.22554l-1.12385,0.22554c-1.57339,0.30072 -3.07187,0.60144 -4.57034,1.05252c-0.67431,0.22554 -1.42355,0.3759 -2.17278,0.60144c-0.29969,0.07518 -0.67431,0.22554 -1.04893,0.30072c-0.37462,0.15036 -0.67431,0.22554 -1.04893,0.3759c-1.42355,0.45108 -2.77217,0.90216 -4.04587,1.35324c-1.2737,0.45108 -2.39755,0.90216 -3.52141,1.35324c-0.52446,0.22554 -1.04893,0.3759 -1.57339,0.60144c-0.52446,0.22554 -0.97401,0.3759 -1.42355,0.60144c-0.82416,0.3759 -1.64832,0.67662 -2.24771,0.97734c-1.19878,0.60144 -1.94801,0.90216 -1.94801,0.90216c0,0 0.74924,-0.3759 1.94801,-0.97734c0.67431,-0.30072 1.42355,-0.60144 2.24771,-1.05252c0.37462,-0.22554 0.89908,-0.45108 1.34862,-0.67662c0.52446,-0.22554 1.04893,-0.45108 1.57339,-0.67662c1.12385,-0.45108 2.24771,-0.90216 3.52141,-1.42842c1.2737,-0.45108 2.62232,-0.97734 4.04587,-1.42842c0.37462,-0.15036 0.67431,-0.22554 1.04893,-0.3759c0.37462,-0.07518 0.74924,-0.22554 1.12385,-0.30072c0.74924,-0.15036 1.49847,-0.3759 2.24771,-0.60144c1.49847,-0.45108 3.07187,-0.7518 4.57034,-1.1277l1.12385,-0.22554l1.19878,-0.15036c0.74924,-0.15036 1.57339,-0.22554 2.32263,-0.3759c0.82416,-0.07518 1.57339,-0.15036 2.32263,-0.22554c0.74924,-0.07518 1.49847,-0.22554 2.24771,-0.22554c1.49847,0 2.92202,-0.15036 4.27064,-0.07518c0.67431,0.07518 1.34862,0 1.94801,0.07518c0.67431,0.07518 1.2737,0.07518 1.87309,0.15036c1.19878,0.07518 2.24771,0.22554 3.22171,0.3759c0.89908,0.15036 1.72324,0.3759 2.39755,0.52626c0.59939,0.22554 1.12385,0.30072 1.49847,0.45108c0.37462,0.07518 0.52446,0.15036 0.52446,0.15036c0,0 -0.22477,-0.07518 -0.82416,-0.30072z" id="Path" fill="#7d9950"/><path d="M261.54281,116.59436c-0.44954,0.15036 -1.04893,0.3759 -1.79817,0.82698c-1.49847,0.82698 -3.44648,2.40576 -5.54434,4.51079c-1.04893,1.05252 -2.17278,2.2554 -3.22171,3.60863c-1.04893,1.35324 -2.17278,2.78165 -3.22171,4.28525c-1.12385,1.5036 -2.17278,3.08237 -3.22171,4.73633c-0.52446,0.82698 -1.04893,1.65396 -1.57339,2.48094c-0.52446,0.82698 -1.04893,1.72914 -1.57339,2.55612c-1.04893,1.65396 -2.02294,3.38309 -2.99694,5.11223c-0.97401,1.72914 -1.87309,3.38309 -2.77217,5.03705c-1.79817,3.30791 -3.37156,6.39029 -4.79511,9.02158c-2.69725,5.26259 -4.57034,8.79604 -4.57034,8.79604c0,0 0.44954,-0.90216 1.19878,-2.48094c0.74924,-1.57878 1.79817,-3.75899 3.14679,-6.46547c1.34862,-2.70647 2.92202,-5.78885 4.72018,-9.09676c0.89908,-1.65396 1.79817,-3.30791 2.77217,-5.03705c0.97401,-1.65396 1.94801,-3.38309 2.99694,-5.11223c0.52446,-0.90216 1.04893,-1.72914 1.57339,-2.55612c0.52446,-0.82698 1.04893,-1.65396 1.57339,-2.48094c1.04893,-1.65396 2.09786,-3.23273 3.22171,-4.73633c1.04893,-1.57878 2.17278,-3.00719 3.29664,-4.28525c1.12385,-1.27806 2.24771,-2.48094 3.29664,-3.53345c1.04893,-1.05252 2.09786,-1.95468 3.07187,-2.70647c0.97401,-0.7518 1.87309,-1.35324 2.62232,-1.72914c0.82416,-0.45108 1.42355,-0.67662 1.87309,-0.82698c0.44954,-0.15036 0.67431,-0.15036 0.67431,-0.15036c0,0 -0.22477,0.07518 -0.74924,0.22554z" id="Path" fill="#519b3d"/><path d="M201.3792,125.69113c-0.14985,-0.30072 -0.29969,-0.67662 -0.52446,-1.05252c-0.22477,-0.3759 -0.44954,-0.82698 -0.74924,-1.27806c-0.22477,-0.45108 -0.67431,-0.90216 -1.04893,-1.42842c-0.44954,-0.45108 -0.89908,-0.97734 -1.42355,-1.42842c-0.52446,-0.52626 -1.12385,-0.90216 -1.72324,-1.27806c-0.29969,-0.22554 -0.67431,-0.3759 -0.97401,-0.52626c-0.29969,-0.15036 -0.59939,-0.30072 -0.97401,-0.45108l-1.04893,-0.3759c-0.37462,-0.15036 -0.67431,-0.22554 -1.04893,-0.30072c-0.37462,-0.07518 -0.67431,-0.15036 -1.04893,-0.22554l-0.52446,-0.07518c-0.14985,-0.07518 -0.37462,-0.07518 -0.52446,-0.07518c-0.74924,0 -1.34862,-0.15036 -2.02294,-0.15036c-0.59939,0 -1.2737,0 -1.79817,0c-0.29969,0 -0.59939,0 -0.82416,0c-0.29969,0 -0.52446,0.07518 -0.74924,0.07518c-0.44954,0.07518 -0.89908,0.15036 -1.19878,0.15036c-0.67431,0.07518 -1.04893,0.07518 -1.04893,0.07518c0,0 0.37462,-0.07518 1.04893,-0.22554c0.37462,-0.07518 0.74924,-0.15036 1.19878,-0.22554c0.22477,-0.07518 0.52446,-0.07518 0.74924,-0.15036c0.29969,-0.07518 0.52446,-0.07518 0.82416,-0.07518c0.52446,0 1.12385,0 1.79817,-0.07518c0.59939,0 1.34862,0 2.02294,0.07518c0.14985,0.07518 0.37462,0.07518 0.52446,0.07518l0.52446,0.07518c0.37462,0.07518 0.74924,0.15036 1.12385,0.22554c0.37462,0.07518 0.74924,0.15036 1.12385,0.30072l1.04893,0.3759c0.37462,0.15036 0.67431,0.3759 1.04893,0.52626c0.29969,0.15036 0.67431,0.30072 0.97401,0.52626c0.59939,0.45108 1.19878,0.82698 1.72324,1.35324c0.59939,0.45108 0.97401,1.05252 1.42355,1.5036c0.37462,0.52626 0.74924,0.97734 1.04893,1.5036c0.29969,0.45108 0.52446,0.90216 0.67431,1.35324c0.22477,0.45108 0.37462,0.82698 0.44954,1.1277c0.14985,0.60144 0.22477,0.97734 0.22477,0.97734c0,0 -0.07492,-0.3759 -0.29969,-0.90216z" id="Path" fill="#7d9950"/><path d="M225.20489,152.22962c-0.14985,-0.30072 -0.37462,-0.67662 -0.67431,-1.1277c-0.14985,-0.22554 -0.29969,-0.45108 -0.44954,-0.67662c-0.22477,-0.22554 -0.37462,-0.45108 -0.59939,-0.67662c-0.22477,-0.30072 -0.44954,-0.52626 -0.67431,-0.7518c-0.22477,-0.22554 -0.44954,-0.52626 -0.74924,-0.7518c-0.22477,-0.22554 -0.52446,-0.45108 -0.82416,-0.67662c-0.29969,-0.22554 -0.67431,-0.45108 -0.97401,-0.67662c-0.22477,-0.07518 -0.37462,-0.22554 -0.52446,-0.30072l-0.52446,-0.30072c-0.37462,-0.15036 -0.74924,-0.3759 -1.12385,-0.52626c-0.37462,-0.07518 -0.82416,-0.22554 -1.19878,-0.3759l-0.59939,-0.22554c-0.14985,-0.07518 -0.37462,-0.07518 -0.59939,-0.15036c-0.82416,-0.15036 -1.64832,-0.3759 -2.47248,-0.3759c-0.89908,-0.07518 -1.64832,-0.15036 -2.47248,-0.07518c-0.44954,0.07518 -0.82416,0.07518 -1.19878,0.07518c-0.37462,0 -0.74924,0 -1.12385,0.07518c-0.67431,0.15036 -1.42355,0.22554 -2.02294,0.30072c-0.67431,0.07518 -1.19878,0.15036 -1.72324,0.30072c-0.52446,0.15036 -0.97401,0.22554 -1.34862,0.30072c-0.67431,0.15036 -1.12385,0.22554 -1.12385,0.22554c0,0 0.37462,-0.15036 1.12385,-0.3759c0.29969,-0.07518 0.74924,-0.22554 1.2737,-0.3759c0.52446,-0.15036 1.04893,-0.3759 1.72324,-0.45108c0.59939,-0.15036 1.2737,-0.22554 2.02294,-0.3759c0.74924,-0.07518 1.49847,-0.07518 2.32263,-0.15036c0.82416,-0.07518 1.64832,0 2.47248,0.07518c0.82416,0 1.72324,0.22554 2.5474,0.3759c0.14985,0.07518 0.37462,0.07518 0.59939,0.15036l0.59939,0.22554c0.37462,0.15036 0.82416,0.30072 1.19878,0.45108c0.37462,0.22554 0.74924,0.3759 1.12385,0.60144c0.14985,0.07518 0.37462,0.22554 0.52446,0.30072c0.14985,0.15036 0.37462,0.22554 0.52446,0.3759c0.29969,0.22554 0.67431,0.45108 0.97401,0.67662c0.22477,0.22554 0.52446,0.52626 0.82416,0.7518c0.29969,0.22554 0.52446,0.52626 0.74924,0.7518c0.22477,0.22554 0.52446,0.45108 0.67431,0.7518c0.14985,0.22554 0.37462,0.52626 0.52446,0.7518c0.14985,0.30072 0.29969,0.52626 0.44954,0.7518c0.22477,0.45108 0.44954,0.82698 0.59939,1.20288c0.29969,0.67662 0.37462,1.1277 0.37462,1.1277c0,0 -0.14985,-0.45108 -0.22477,-1.20288z" id="Path" fill="#7d9950"/><path d="M251.87768,96.89724c-0.89908,0.15036 -2.17278,0.45108 -3.67125,0.82698c-0.74924,0.15036 -1.57339,0.45108 -2.39755,0.7518c-0.82416,0.30072 -1.64832,0.82698 -2.47248,1.27806c-1.64832,1.05252 -3.29664,2.33058 -4.87003,3.68381c-1.57339,1.35324 -3.07187,2.78165 -4.49541,4.13489c-1.34862,1.35324 -2.69725,2.6313 -3.8211,3.75899c-2.24771,2.18022 -3.74618,3.68381 -3.74618,3.68381c0,0 1.34862,-1.57878 3.52141,-3.83417c1.12385,-1.1277 2.32263,-2.48094 3.74618,-3.83417c1.42355,-1.35324 2.92202,-2.85683 4.49541,-4.21007c1.64832,-1.42842 3.29664,-2.70647 5.01988,-3.68381c0.82416,-0.52626 1.64832,-0.97734 2.5474,-1.27806c0.89908,-0.30072 1.72324,-0.52626 2.47248,-0.67662c1.49847,-0.30072 2.84709,-0.45108 3.74618,-0.60144c0.89908,-0.15036 1.42355,-0.15036 1.42355,-0.15036c0,0 -0.52446,0.07518 -1.49847,0.15036z" id="Path" fill="#519b3d"/><path d="M177.70336,120.65408c1.04893,-0.90216 2.5474,-2.18022 4.34557,-3.60863c1.79817,-1.42842 3.97095,-3.15755 6.21865,-4.96187c2.24771,-1.80432 4.72018,-3.68381 7.19266,-5.56331c2.47248,-1.8795 5.01988,-3.68381 7.34251,-5.41295c2.32263,-1.72914 4.57034,-3.23273 6.51835,-4.51079c0.97401,-0.67662 1.87309,-1.27806 2.69725,-1.72914c0.82416,-0.52626 1.49847,-0.97734 2.09786,-1.27806c1.19878,-0.67662 1.87309,-1.05252 1.87309,-1.05252c0,0 -0.59939,0.45108 -1.79817,1.1277c-0.52446,0.3759 -1.19878,0.82698 -2.02294,1.35324c-0.82416,0.52626 -1.64832,1.1277 -2.62232,1.80432c-1.94801,1.35324 -4.1208,2.93201 -6.44343,4.66115c-2.32263,1.72914 -4.79511,3.60863 -7.26758,5.48813c-2.47248,1.8795 -4.87003,3.75899 -7.19266,5.56331c-2.32263,1.80432 -4.42049,3.45827 -6.29358,4.88669c-3.67125,2.85683 -6.14373,4.73633 -6.14373,4.73633c0,0 0.59939,-0.52626 1.49847,-1.5036z" id="Path" fill="#519b3d"/></g><g id="Shape"><path d="M324.40367,194.17998c4.94495,7.14209 4.87003,23.23058 -3.89602,34.28201c-8.76606,11.05144 -1.72324,23.75683 1.72324,28.11727c4.34557,5.48813 6.89297,5.71367 7.49235,8.26978c0.67431,2.63129 -5.31957,6.84137 -14.16055,-5.48813c-7.49235,-10.45 -15.5841,-17.59209 -11.98777,-27.36547c3.89602,-10.67554 -2.24771,-16.01331 -3.89602,-26.16259c-1.64832,-9.99892 16.25841,-23.75683 24.72477,-11.65288z" id="Path" fill="#69b229"/><path d="M329.2737,263.42062c1.19878,0.90216 4.27064,2.70647 5.61927,2.78165c1.34862,0.07518 1.49847,-1.27806 3.29664,-0.90216c1.79817,0.45108 1.94801,2.10504 1.12385,3.08237c-0.82416,0.90216 -1.12385,0.90216 -1.79817,0.82698c0,0 0.14985,0.67662 -0.22477,1.42842c-0.44954,0.97734 -1.42355,1.05252 -2.32263,0.67662c-0.82416,-0.45108 -1.2737,-0.22554 -1.2737,-0.22554c0,0 0.29969,1.27806 -0.44954,2.02986c-1.04893,0.97734 -2.02294,0.67662 -3.14679,-0.52626c-1.12385,-1.20288 -2.62232,-1.42842 -4.94495,-1.42842c-1.72324,0 -2.5474,-0.97734 -3.52141,-1.8795c-0.67431,-0.60144 -1.49847,-0.97734 -2.09786,-0.60144c-0.89908,0.60144 -2.02294,1.05252 -2.47248,0.07518c-0.82416,-1.72914 2.09786,-1.72914 2.09786,-2.85683c0,-1.72914 -3.37156,-4.88669 -0.44954,-5.41295c2.92202,-0.3759 8.39144,1.27806 10.56422,2.93201z" id="Path" fill="#69b229"/><path d="M316.01223,269.66055c0,0 1.19878,-2.10504 1.72324,-1.20288c0.37462,0.52626 -0.07492,0.7518 -0.59939,0.7518c-0.37462,0 -0.59939,0 -1.12385,0.45108z" id="Path" fill="#a1af93"/><path d="M303.79969,230.26631c0.07492,-0.30072 0.14985,-0.52626 0.22477,-0.90216c0.07492,-0.30072 0.14985,-0.67662 0.22477,-1.1277c0.07492,-0.3759 0.14985,-0.82698 0.14985,-1.35324c0,-0.45108 0,-0.97734 0,-1.5036c0,-0.52626 -0.07492,-1.1277 -0.07492,-1.65396c-0.07492,-0.52626 -0.14985,-1.1277 -0.22477,-1.65396c-0.07492,-0.52626 -0.14985,-1.1277 -0.29969,-1.65396c-0.07492,-0.52626 -0.22477,-1.05252 -0.37462,-1.57878c-0.14985,-0.52626 -0.29969,-1.05252 -0.44954,-1.5036c-0.14985,-0.45108 -0.29969,-0.90216 -0.44954,-1.27806c-0.22477,-0.82698 -0.59939,-1.5036 -0.74924,-1.95468c-0.22477,-0.45108 -0.29969,-0.7518 -0.29969,-0.7518c0,0 0.14985,0.22554 0.37462,0.67662c0.14985,0.22554 0.29969,0.52626 0.44954,0.82698c0.22477,0.30072 0.37462,0.67662 0.52446,1.05252c0.14985,0.3759 0.29969,0.82698 0.52446,1.27806c0.14985,0.52626 0.37462,0.97734 0.52446,1.5036c0.14985,0.45108 0.29969,1.05252 0.44954,1.57878c0.14985,0.60144 0.22477,1.1277 0.37462,1.72914c0.14985,0.60144 0.14985,1.1277 0.22477,1.72914c0.07492,0.52626 0.07492,1.1277 0.07492,1.65396c0,0.52626 0,1.05252 -0.07492,1.57878c-0.07492,0.45108 -0.14985,0.90216 -0.22477,1.35324c-0.22477,0.90216 -0.44954,1.57878 -0.59939,2.02986c-0.14985,0.52626 -0.29969,0.7518 -0.29969,0.7518c0,0 0.07492,-0.30072 0,-0.82698z" id="Path" fill="#519b3d"/><path d="M320.88226,254.69976c-0.22477,-0.22554 -0.44954,-0.60144 -0.74924,-0.97734c-0.22477,-0.3759 -0.52446,-0.82698 -0.82416,-1.35324c-0.29969,-0.45108 -0.59939,-1.05252 -0.89908,-1.65396c-0.29969,-0.60144 -0.52446,-1.27806 -0.82416,-1.95468c-0.22477,-0.67662 -0.44954,-1.42842 -0.67431,-2.18022c-0.22477,-0.7518 -0.44954,-1.57878 -0.52446,-2.33058l-0.14985,-1.20288c0,-0.45108 -0.07492,-0.82698 -0.07492,-1.20288c-0.07492,-0.7518 0,-1.5036 0,-2.2554c0,-0.7518 0.22477,-1.42842 0.29969,-2.10504c0,-0.3759 0.07492,-0.67662 0.14985,-0.97734c0.07492,-0.30072 0.14985,-0.60144 0.22477,-0.90216c0.14985,-0.52626 0.22477,-1.05252 0.44954,-1.5036c0.22477,-0.45108 0.37462,-0.82698 0.52446,-1.1277c0.29969,-0.60144 0.44954,-0.97734 0.44954,-0.97734c0,0 -0.14985,0.30072 -0.37462,0.97734c-0.14985,0.30072 -0.29969,0.67662 -0.44954,1.1277c-0.14985,0.3759 -0.22477,0.97734 -0.37462,1.5036c-0.07492,0.30072 -0.14985,0.60144 -0.22477,0.90216c-0.07492,0.30072 -0.07492,0.67662 -0.14985,0.97734c-0.07492,0.67662 -0.22477,1.35324 -0.22477,2.10504c0,0.7518 -0.07492,1.5036 0,2.2554c0,0.3759 0.07492,0.7518 0.07492,1.1277l0.14985,1.1277c0.07492,0.7518 0.29969,1.5036 0.44954,2.2554c0.22477,0.67662 0.44954,1.42842 0.67431,2.10504c0.22477,0.67662 0.44954,1.35324 0.74924,1.95468c0.29969,0.67662 0.52446,1.20288 0.82416,1.72914c0.22477,0.52626 0.52446,0.97734 0.74924,1.42842c0.29969,0.3759 0.44954,0.7518 0.67431,1.05252c0.37462,0.60144 0.59939,0.90216 0.59939,0.90216c0,0 -0.29969,-0.30072 -0.52446,-0.82698z" id="Path" fill="#519b3d"/><path d="M318.7844,266.65336c0.07492,-0.15036 0.22477,-0.3759 0.22477,-0.60144c0.07492,-0.52626 -0.22477,-1.27806 -0.67431,-2.02986c-0.44954,-0.82698 -1.04893,-1.65396 -1.72324,-2.63129c-0.59939,-0.97734 -1.34862,-1.95468 -2.09786,-2.93201c-1.49847,-2.02986 -2.92202,-3.98453 -4.04587,-5.48813c-1.04893,-1.5036 -1.79817,-2.48094 -1.79817,-2.48094c0,0 0.82416,0.90216 2.02294,2.33058c0.59939,0.7518 1.2737,1.57878 2.02294,2.48094c0.67431,0.90216 1.42355,1.8795 2.17278,2.85683c0.74924,1.05252 1.42355,2.02986 2.09786,3.00719c0.59939,0.97734 1.19878,1.8795 1.64832,2.70647c0.44954,0.82698 0.67431,1.65396 0.52446,2.18022c-0.07492,0.30072 -0.22477,0.52626 -0.29969,0.60144c-0.07492,0.15036 -0.14985,0.15036 -0.14985,0.15036c0,0 0.07492,-0.07518 0.07492,-0.15036z" id="Path" fill="#519b3d"/><path d="M337.29052,269.05911c-0.14985,-0.15036 -0.29969,-0.45108 -0.59939,-0.67662c-0.14985,-0.15036 -0.37462,-0.22554 -0.52446,-0.30072c-0.14985,-0.07518 -0.37462,-0.15036 -0.59939,-0.15036c-0.22477,0 -0.44954,0 -0.67431,0.07518c-0.22477,0.07518 -0.44954,0.15036 -0.74924,0.15036c-0.52446,0.07518 -1.04893,0 -1.57339,-0.15036c-0.44954,-0.15036 -0.89908,-0.30072 -1.2737,-0.52626c-0.29969,-0.22554 -0.59939,-0.45108 -0.74924,-0.60144c-0.14985,-0.22554 -0.22477,-0.30072 -0.22477,-0.30072c0,0 0.07492,0.07518 0.29969,0.22554c0.14985,0.07518 0.44954,0.22554 0.82416,0.3759c0.37462,0.15036 0.82416,0.30072 1.2737,0.3759c0.44954,0.07518 0.97401,0.15036 1.42355,0.07518c0.22477,0 0.44954,-0.07518 0.74924,-0.15036c0.29969,0 0.52446,0 0.82416,0c0.52446,0 0.97401,0.30072 1.2737,0.60144c0.14985,0.15036 0.22477,0.30072 0.29969,0.45108c0.07492,0.15036 0.14985,0.30072 0.14985,0.3759c0.07492,0.22554 0.07492,0.3759 0.07492,0.3759c0,0 0,-0.15036 -0.22477,-0.22554z" id="Path" fill="#519b3d"/><path d="M333.61927,270.93861c-0.07492,-0.15036 -0.14985,-0.3759 -0.37462,-0.60144c-0.44954,-0.45108 -1.12385,-0.82698 -1.87309,-0.90216c-0.74924,-0.07518 -1.57339,-0.15036 -2.17278,-0.3759c-0.29969,-0.07518 -0.52446,-0.22554 -0.67431,-0.30072c-0.14985,-0.07518 -0.22477,-0.15036 -0.22477,-0.15036c0,0 0.37462,0.15036 0.97401,0.22554c0.52446,0.07518 1.34862,0.07518 2.17278,0.22554c0.14985,0.07518 0.37462,0.07518 0.59939,0.15036c0.22477,0 0.44954,0.15036 0.59939,0.22554c0.37462,0.22554 0.67431,0.45108 0.82416,0.7518c0.29969,0.52626 0.29969,0.97734 0.29969,0.97734c0,0 0,-0.07518 -0.14985,-0.22554z" id="Path" fill="#519b3d"/><path d="M332.87003,272.89328c-0.67431,-0.3759 -1.12385,-0.90216 -0.22477,-1.27806c1.49847,-0.60144 1.42355,2.63129 1.42355,2.63129c-0.37462,-0.82698 -0.67431,-0.90216 -1.19878,-1.35324z" id="Path" fill="#a1af93"/><path d="M336.76605,270.93861c-0.74924,-0.30072 -1.2737,-0.7518 -0.44954,-1.27806c1.34862,-0.90216 1.87309,2.33058 1.87309,2.33058c-0.52446,-0.7518 -0.82416,-0.7518 -1.42355,-1.05252z" id="Path" fill="#a1af93"/><path d="M339.4633,268.53285c-0.74924,0 -1.42355,-0.22554 -0.82416,-1.05252c0.97401,-1.27806 2.5474,1.57878 2.5474,1.57878c-0.74924,-0.52626 -1.04893,-0.45108 -1.72324,-0.52626z" id="Path" fill="#a1af93"/></g><g id="Shape"><g id="Group"><path d="M335.19266,204.93069c-18.20642,23.60647 -26.0734,27.59101 -48.85015,28.04209c-20.52905,0.45108 -31.31804,-26.68885 -51.69725,-22.17806c-20.3792,4.51079 -36.63761,3.00719 -37.76147,-12.17914c-1.42355,-18.6446 14.61009,-33.6054 33.11621,-40.82266c18.50612,-7.21727 46.90214,-4.36043 59.26453,6.23993c12.28746,10.60036 15.88379,8.26978 26.97248,11.5777c10.71407,3.15755 25.92355,20.29856 18.95566,29.32014z" id="Path" fill="#7cbf2e"/><path d="M282.8211,220.19221c18.05657,6.16475 40.0841,-13.68273 50.57339,-30.52302c3.52141,5.41295 4.94495,11.2018 1.72324,15.41187c-18.20642,23.5313 -26.07339,27.59101 -48.85015,28.04209c-20.52905,0.3759 -31.39297,-26.98957 -51.69725,-22.17806c-17.60703,4.13489 -23.52599,2.18022 -30.04434,0.07518c26.82263,-20.82482 57.84098,2.10504 78.29511,9.17194z" id="Path" fill="#b4d189"/><path d="M324.85321,217.10983c-0.37462,0.45108 -0.89908,1.1277 -1.64832,1.8795c-1.42355,1.5036 -3.59633,3.68381 -6.59327,5.93921c-1.49847,1.1277 -3.14679,2.2554 -5.01988,3.23273c-1.87309,0.97734 -3.97095,1.8795 -6.14373,2.55612c-2.17278,0.67662 -4.49541,1.27806 -6.89297,1.65396c-2.39755,0.3759 -4.87003,0.60144 -7.34251,0.7518c-2.47248,0.15036 -4.94495,0.15036 -7.34251,-0.07518c-2.39755,-0.22554 -4.79511,-0.82698 -6.96789,-1.57878c-2.17278,-0.7518 -4.19572,-1.80432 -5.99388,-2.93201c-1.79817,-1.1277 -3.37156,-2.2554 -4.87003,-3.38309c-2.92202,-2.2554 -5.31957,-4.21007 -6.96789,-5.56331c-1.64832,-1.35324 -2.62232,-2.10504 -2.62232,-2.10504c0,0 0.97401,0.7518 2.69725,2.02986c1.72324,1.35324 4.19572,3.23273 7.11774,5.41295c1.49847,1.05252 3.14679,2.18022 4.94495,3.30791c1.79817,1.05252 3.74618,2.10504 5.91896,2.85683c2.17278,0.7518 4.49541,1.27806 6.89297,1.5036c2.39755,0.22554 4.79511,0.22554 7.26758,0.07518c2.47248,-0.15036 4.87003,-0.3759 7.26758,-0.7518c2.39755,-0.3759 4.72018,-0.90216 6.89297,-1.57878c2.24771,-0.67662 4.27064,-1.5036 6.14373,-2.48094c1.87309,-0.97734 3.52141,-2.10504 5.01988,-3.15755c2.99694,-2.18022 5.24465,-4.28525 6.74312,-5.78885c0.74924,-0.7518 1.34862,-1.35324 1.72324,-1.80432c0.37462,-0.45108 0.59939,-0.67662 0.59939,-0.67662c0,0 -0.22477,0.22554 -0.82416,0.67662z" id="Path" fill="#7d9950"/></g><path d="M275.62844,157.04113c-2.24771,-0.7518 -5.54434,-1.57878 -9.59021,-2.2554c-4.04587,-0.67662 -8.76606,-1.05252 -13.86086,-0.90216c-5.0948,0.15036 -10.4893,0.82698 -15.73395,2.18022c-2.62232,0.60144 -5.24465,1.42842 -7.71713,2.40576c-2.47248,0.97734 -4.87003,2.10504 -7.11774,3.30791c-4.49541,2.48094 -8.31651,5.26259 -11.38838,7.96906c-2.99694,2.70647 -5.31957,5.26259 -6.74312,7.14209c-1.49847,1.8795 -2.17278,3.08237 -2.17278,3.08237c0,0 0.67431,-1.20288 2.09786,-3.15755c1.42355,-1.8795 3.67125,-4.51079 6.6682,-7.29245c3.07187,-2.78165 6.89297,-5.63849 11.38838,-8.11942c2.24771,-1.20288 4.64526,-2.33058 7.11774,-3.30791c2.47248,-0.97734 5.0948,-1.80432 7.71713,-2.48094c5.31957,-1.27806 10.78899,-1.95468 15.88379,-2.10504c5.16972,-0.15036 9.88991,0.3759 13.93578,1.05252c4.04587,0.67662 7.34251,1.65396 9.59021,2.40576c2.32263,0.7518 3.52141,1.35324 3.52141,1.35324c0,0 -1.2737,-0.52626 -3.59633,-1.27806z" id="Path" fill="#519b3d"/></g><g id="Shape"><g id="Group"><path d="M231.12385,189.74436c-0.52446,11.05144 -0.52446,15.86295 -20.07951,25.78669c-14.83486,7.51799 -16.5581,29.69604 -56.79205,33.75576c-40.23394,4.05971 -38.36086,-17.51691 -38.36086,-17.51691c0.89908,11.87842 19.92966,18.34388 41.20795,8.72086c21.42813,-9.62302 42.85627,-64.12842 54.61927,-69.09029c13.0367,-5.48813 20.07951,6.54065 19.4052,18.34388z" id="Path" fill="#7cbf2e"/><path d="M225.95413,203.95336l7.79205,5.41295c-2.77217,2.02986 -14.0107,4.73633 -18.88073,7.14209c-14.83486,7.51799 -20.3792,28.79388 -60.61315,32.77842c-4.87003,0.52626 -9.2156,0.60144 -12.88685,0.45108c14.23547,-2.02986 33.56575,-6.91655 44.12997,-18.79496c17.98165,-20.22338 40.45872,-26.98957 40.45872,-26.98957z" id="Path" fill="#b4d189"/></g><path d="M129.67737,244.17458c0.67431,0.15036 1.49847,0.30072 2.47248,0.3759c0.97401,0.07518 2.09786,0.15036 3.29664,0.22554c0.59939,0 1.19878,0 1.87309,0c0.67431,0 1.34862,0 2.02294,-0.07518c1.34862,-0.15036 2.77217,-0.22554 4.27064,-0.45108c1.42355,-0.15036 2.99694,-0.45108 4.49541,-0.82698c1.49847,-0.3759 3.07187,-0.82698 4.57034,-1.35324c1.49847,-0.52626 2.92202,-1.1277 4.34557,-1.8795c1.42355,-0.67662 2.77217,-1.5036 3.97095,-2.33058c1.2737,-0.82698 2.39755,-1.72914 3.44648,-2.63129c0.52446,-0.45108 1.04893,-0.90216 1.49847,-1.35324c0.44954,-0.45108 0.89908,-0.82698 1.34862,-1.27806c0.82416,-0.82698 1.57339,-1.57878 2.24771,-2.33058c0.67431,-0.67662 1.2737,-1.35324 1.72324,-1.8795c0.89908,-1.05252 1.42355,-1.65396 1.42355,-1.65396c0,0 -0.44954,0.60144 -1.34862,1.72914c-0.44954,0.52626 -0.97401,1.20288 -1.64832,1.95468c-0.37462,0.3759 -0.67431,0.82698 -1.04893,1.20288c-0.37462,0.45108 -0.74924,0.82698 -1.19878,1.27806c-0.44954,0.45108 -0.89908,0.90216 -1.34862,1.35324c-0.52446,0.45108 -0.97401,0.90216 -1.49847,1.35324c-1.04893,0.90216 -2.17278,1.8795 -3.44648,2.70647c-1.19878,0.90216 -2.5474,1.65396 -3.97095,2.40576c-1.42355,0.67662 -2.92202,1.35324 -4.42049,1.8795c-1.57339,0.60144 -3.07187,0.97734 -4.64526,1.35324c-1.57339,0.3759 -3.07187,0.60144 -4.57034,0.82698c-1.49847,0.22554 -2.99694,0.30072 -4.34557,0.3759c-0.67431,0 -1.34862,0 -2.02294,0c-0.67431,0 -1.2737,-0.07518 -1.87309,-0.07518c-1.19878,-0.07518 -2.32263,-0.15036 -3.29664,-0.30072c-0.97401,-0.15036 -1.79817,-0.30072 -2.47248,-0.45108c-1.42355,-0.30072 -2.17278,-0.52626 -2.17278,-0.52626c0,0 0.82416,0.22554 2.32263,0.3759z" id="Path" fill="#519b3d"/><path d="M194.93578,233.79976c-0.59939,0.52626 -1.2737,1.1277 -2.09786,1.72914c-0.44954,0.30072 -0.89908,0.60144 -1.34862,0.97734c-0.44954,0.30072 -0.97401,0.67662 -1.49847,1.05252c-0.52446,0.3759 -1.12385,0.67662 -1.72324,1.05252c-0.59939,0.3759 -1.19878,0.7518 -1.87309,1.1277c-1.2737,0.67662 -2.62232,1.5036 -4.1208,2.18022c-0.74924,0.3759 -1.49847,0.7518 -2.24771,1.05252c-0.74924,0.30072 -1.57339,0.67662 -2.32263,0.97734c-0.82416,0.30072 -1.57339,0.60144 -2.39755,0.90216c-0.74924,0.30072 -1.57339,0.60144 -2.39755,0.90216c-1.64832,0.52626 -3.29664,0.97734 -4.94495,1.42842c-1.64832,0.3759 -3.29664,0.7518 -4.87003,1.1277c-1.57339,0.30072 -3.14679,0.52626 -4.57034,0.7518c-0.67431,0.07518 -1.42355,0.15036 -2.09786,0.22554c-0.74924,0 -1.34862,0.07518 -2.02294,0.15036c-1.2737,0.07518 -2.47248,0.22554 -3.52141,0.22554c-1.04893,0.07518 -1.94801,0.07518 -2.69725,0.07518c-1.49847,0.07518 -2.32263,0.07518 -2.32263,0.07518c0,0 0.82416,-0.07518 2.32263,-0.15036c0.74924,-0.07518 1.64832,-0.07518 2.69725,-0.15036c1.04893,0 2.24771,-0.15036 3.52141,-0.30072c0.67431,-0.07518 1.34862,-0.15036 2.02294,-0.22554c0.67431,-0.07518 1.34862,-0.15036 2.09786,-0.30072c1.49847,-0.22554 2.99694,-0.45108 4.57034,-0.7518c1.57339,-0.3759 3.14679,-0.7518 4.79511,-1.1277c1.57339,-0.52626 3.22171,-0.97734 4.87003,-1.5036c0.82416,-0.22554 1.57339,-0.52626 2.39755,-0.82698c0.82416,-0.30072 1.64832,-0.52626 2.39755,-0.90216c0.82416,-0.30072 1.57339,-0.67662 2.32263,-0.97734c0.74924,-0.30072 1.42355,-0.7518 2.17278,-1.05252c1.49847,-0.67662 2.84709,-1.42842 4.1208,-2.10504c0.67431,-0.30072 1.2737,-0.67662 1.87309,-1.05252c0.59939,-0.3759 1.19878,-0.67662 1.72324,-1.05252c1.12385,-0.67662 2.09786,-1.35324 2.92202,-1.95468c0.89908,-0.60144 1.57339,-1.20288 2.17278,-1.65396c1.19878,-0.97734 1.79817,-1.57878 1.79817,-1.57878c0,0 -0.59939,0.60144 -1.72324,1.65396z" id="Path" fill="#7d9950"/></g><g id="Shape"><g id="Group"><g id="Path"><path d="M339.53823,124.63861c-4.27064,5.18741 2.24771,18.79496 4.49541,29.01942c2.24771,10.22446 6.3685,35.71043 -7.41743,51.4982c-17.53211,20.07302 -35.73853,4.36043 -39.33486,-6.54065c-3.59633,-10.90108 -4.79511,-19.47158 9.29052,-22.4036c13.56116,-2.85683 24.57492,-9.92374 17.00765,-31.12446c-5.61927,-15.86295 -0.44954,-35.10899 6.51835,-38.11619c10.03976,-4.36043 13.78593,12.3295 9.44037,17.66727z" fill="#7cbf2e"/><path d="M311.29205,213.27566c14.23547,-9.99892 26.07339,-27.06475 28.02141,-36.98849c3.22171,-16.31403 -7.9419,-42.5518 -3.52141,-43.52914c1.12385,-0.22554 2.02294,0.15036 2.77217,0.7518c1.12385,6.08957 4.1208,13.68273 5.46942,19.99784c2.24771,10.22446 6.3685,35.71043 -7.41743,51.4982c-8.99083,10.29964 -18.05657,11.27698 -25.32416,8.26978z" fill="#b4d189"/></g><path d="M316.38685,172.8289c0.37462,-0.15036 0.89908,-0.45108 1.57339,-0.90216c0.37462,-0.22554 0.74924,-0.45108 1.12385,-0.7518c0.37462,-0.30072 0.74924,-0.60144 1.19878,-0.97734c0.82416,-0.7518 1.72324,-1.65396 2.47248,-2.78165c0.82416,-1.1277 1.49847,-2.40576 2.02294,-3.90935c0.52446,-1.5036 0.82416,-3.08237 0.97401,-4.81151c0.14985,-1.72914 0.07492,-3.45827 -0.14985,-5.26259c-0.29969,-1.72914 -0.67431,-3.53345 -1.2737,-5.26259c-1.19878,-3.45827 -2.09786,-7.06691 -2.69725,-10.45c-0.59939,-3.38309 -0.82416,-6.61583 -0.67431,-9.39748c0.07492,-1.42842 0.29969,-2.63129 0.44954,-3.75899c0.14985,-1.1277 0.37462,-2.10504 0.52446,-2.85683c0.37462,-1.57878 0.59939,-2.48094 0.59939,-2.48094c0,0 -0.22477,0.90216 -0.52446,2.48094c-0.14985,0.7518 -0.29969,1.72914 -0.44954,2.85683c-0.14985,1.1277 -0.29969,2.40576 -0.37462,3.75899c-0.07492,2.70647 0.22477,5.93921 0.82416,9.3223c0.59939,3.38309 1.57339,6.91655 2.77217,10.37482c0.67431,1.80432 1.04893,3.60863 1.2737,5.41295c0.22477,1.80432 0.29969,3.60863 0.14985,5.33777c-0.14985,1.72914 -0.52446,3.38309 -1.04893,4.88669c-0.52446,1.42842 -1.2737,2.78165 -2.09786,3.90935c-0.82416,1.20288 -1.79817,2.02986 -2.62232,2.78165c-0.44954,0.3759 -0.89908,0.67662 -1.2737,0.97734c-0.37462,0.30072 -0.74924,0.52626 -1.12385,0.7518c-0.67431,0.45108 -1.2737,0.7518 -1.64832,0.90216c-0.37462,0.22554 -0.59939,0.30072 -0.59939,0.30072c0,0 0.22477,-0.07518 0.59939,-0.45108z" id="Path" fill="#519b3d"/></g><path d="M337.2156,204.40444c1.04893,-1.35324 2.47248,-3.30791 3.8211,-5.86403c1.34862,-2.55612 2.62232,-5.71367 3.52141,-9.17194c0.89908,-3.53345 1.42355,-7.36763 1.64832,-11.2018c0.07492,-1.8795 0.07492,-3.83417 0.07492,-5.71367c-0.07492,-1.8795 -0.14985,-3.75899 -0.29969,-5.56331c-0.14985,-1.80432 -0.29969,-3.53345 -0.52446,-5.18741c-0.22477,-1.57878 -0.44954,-3.15755 -0.74924,-4.58597c-0.52446,-2.85683 -1.12385,-5.18741 -1.49847,-6.84137c-0.44954,-1.65396 -0.67431,-2.55612 -0.67431,-2.55612c0,0 0.29969,0.90216 0.74924,2.55612c0.44954,1.65396 1.04893,3.98453 1.64832,6.84137c0.29969,1.35324 0.59939,2.93201 0.82416,4.58597c0.22477,1.65396 0.44954,3.38309 0.59939,5.18741c0.14985,1.80432 0.22477,3.68381 0.29969,5.56331c0.07492,1.8795 0.07492,3.83417 -0.07492,5.78885c-0.22477,3.90935 -0.74924,7.74353 -1.72324,11.27698c-0.89908,3.45827 -2.24771,6.61583 -3.67125,9.17194c-1.42355,2.55612 -2.92202,4.51079 -3.97095,5.78885c-1.12385,1.27806 -1.72324,2.02986 -1.72324,2.02986c0,0 0.59939,-0.7518 1.72324,-2.10504z" id="Path" fill="#7d9950"/></g><g id="Group"><g><path d="M334.89297,94.86739c1.2737,-1.20288 4.87003,2.55612 7.86697,3.38309c2.92202,0.82698 4.79511,6.23993 2.5474,7.44281c-7.49235,4.05971 -11.68807,-9.62302 -10.41437,-10.8259z" id="Shape" fill="#69b229"/><g id="Shape"><path d="M343.20948,104.79113c0,0 -2.09786,-7.89388 -8.54128,-11.80324c-3.8211,-2.33058 -4.64526,-7.74353 -4.64526,-7.74353c3.59633,5.33777 6.89297,4.36043 11.53823,6.91655c4.64526,2.63129 8.09174,10.8259 8.09174,10.8259c-3.37156,-1.1277 -6.44343,1.80432 -6.44343,1.80432z" id="Path" fill="#f1f2dc"/><path d="M342.53517,105.69328c-1.04893,-0.90216 -0.67431,-3.23273 -0.67431,-3.23273c1.64832,-2.6313 6.51835,-1.8795 6.51835,-1.8795c1.57339,0.52626 1.87309,3.08237 1.87309,3.08237" id="Path" fill="#7cbf2e"/><path d="M349.6529,101.70875c-0.07492,-0.07518 -0.14985,-0.22554 -0.29969,-0.3759c-0.14985,-0.15036 -0.29969,-0.30072 -0.52446,-0.3759c-0.22477,-0.07518 -0.44954,-0.15036 -0.74924,-0.22554c-0.22477,-0.07518 -0.52446,-0.07518 -0.82416,-0.07518c-0.29969,0 -0.59939,0 -0.89908,0.07518c-0.37462,0 -0.67431,0.07518 -0.97401,0.15036c-0.37462,0.07518 -0.67431,0.15036 -0.97401,0.22554c-0.29969,0.07518 -0.59939,0.15036 -0.89908,0.30072c-0.52446,0.22554 -0.97401,0.52626 -1.2737,0.90216c-0.29969,0.3759 -0.37462,0.7518 -0.37462,1.05252c0,0.30072 0.07492,0.45108 0.07492,0.45108c0,0 -0.07492,-0.15036 -0.14985,-0.45108c0,-0.30072 0,-0.7518 0.29969,-1.20288c0.29969,-0.45108 0.74924,-0.82698 1.34862,-1.1277c0.22477,-0.15036 0.59939,-0.30072 0.89908,-0.3759c0.29969,-0.07518 0.67431,-0.15036 0.97401,-0.22554c0.29969,-0.07518 0.67431,-0.15036 0.97401,-0.15036c0.29969,-0.07518 0.67431,-0.07518 0.97401,-0.07518c0.29969,0 0.59939,0.07518 0.89908,0.15036c0.22477,0.07518 0.52446,0.15036 0.74924,0.30072c0.22477,0.15036 0.37462,0.30072 0.52446,0.45108c0.07492,0.15036 0.14985,0.30072 0.22477,0.45108c0.07492,0.30072 0.07492,0.45108 0.07492,0.45108c0,0 -0.07492,-0.15036 -0.07492,-0.30072z" id="Path" fill="#519b3d"/><path d="M339.91284,98.47602c-0.59939,-0.7518 -1.42355,-1.72914 -2.32263,-2.63129c-0.44954,-0.45108 -0.89908,-0.90216 -1.34862,-1.27806c-0.37462,-0.3759 -0.82416,-0.7518 -1.19878,-1.05252c-0.37462,-0.30072 -0.67431,-0.52626 -0.89908,-0.67662c-0.22477,-0.15036 -0.37462,-0.22554 -0.37462,-0.22554c0,0 0.14985,0 0.37462,0.15036c0.29969,0.07518 0.67431,0.30072 1.04893,0.52626c0.22477,0.15036 0.44954,0.30072 0.67431,0.45108c0.22477,0.15036 0.44954,0.30072 0.67431,0.52626c0.52446,0.3759 0.97401,0.82698 1.42355,1.27806c0.89908,0.90216 1.64832,1.95468 2.17278,2.78165c0.52446,0.82698 0.74924,1.42842 0.74924,1.42842c0,0 -0.37462,-0.52626 -0.97401,-1.27806z" id="Path" fill="#c9bd9b"/><path d="M336.9159,90.50695c-0.44954,-0.07518 -0.97401,-0.30072 -1.57339,-0.52626c-0.52446,-0.30072 -1.12385,-0.60144 -1.72324,-0.90216c-0.29969,-0.15036 -0.59939,-0.30072 -0.82416,-0.52626c-0.22477,-0.22554 -0.52446,-0.3759 -0.74924,-0.60144c-0.22477,-0.15036 -0.52446,-0.3759 -0.67431,-0.60144c-0.14985,-0.22554 -0.37462,-0.3759 -0.52446,-0.60144c-0.29969,-0.3759 -0.52446,-0.7518 -0.67431,-0.97734c-0.14985,-0.22554 -0.22477,-0.3759 -0.22477,-0.3759c0,0 0.14985,0.15036 0.29969,0.3759c0.07492,0.07518 0.14985,0.22554 0.29969,0.3759c0.14985,0.15036 0.29969,0.30072 0.44954,0.45108c0.14985,0.15036 0.37462,0.30072 0.59939,0.52626c0.22477,0.15036 0.44954,0.30072 0.67431,0.52626c0.22477,0.15036 0.52446,0.30072 0.74924,0.52626c0.29969,0.22554 0.52446,0.3759 0.82416,0.52626c1.12385,0.67662 2.32263,1.20288 3.22171,1.57878c0.89908,0.3759 1.49847,0.60144 1.49847,0.60144c0,0 -0.59939,-0.07518 -1.64832,-0.3759z" id="Path" fill="#c9bd9b"/></g><path d="M341.18654,99.37818c5.99388,0.97734 9.51529,2.02986 11.68807,8.26978c2.17278,6.23993 1.19878,11.42734 5.01988,15.48705c3.8211,4.05971 1.2737,9.09676 0.14985,10.67554l-1.94801,-0.52626c0,0 -0.29969,1.05252 -1.57339,1.1277c-1.34862,0.07518 -6.81804,-3.75899 -9.88991,-4.88669c-3.07187,-1.1277 -16.48318,-2.78165 -17.98165,-13.15647c-1.49847,-10.37482 5.91896,-18.49424 14.53517,-16.99065z" id="Shape" fill="#7cbf2e"/><path d="M354.52294,127.42026c0.89908,0.30072 0.74924,1.80432 0.29969,1.65396c-0.97401,-0.30072 -1.2737,-2.02986 -0.29969,-1.65396z" id="Shape" fill="#46893d"/><path d="M354.97248,128.84868c0.07492,-0.15036 0.07492,-0.3759 0,-0.52626c0,-0.15036 -0.14985,-0.3759 -0.22477,-0.52626c-0.07492,-0.07518 -0.14985,-0.15036 -0.14985,-0.22554c-0.07492,-0.07518 -0.07492,-0.07518 -0.07492,-0.07518c0,0 0,0 0.07492,0c0,0 0.14985,0 0.22477,0.07518c0.14985,0.07518 0.44954,0.30072 0.52446,0.60144c0.07492,0.15036 0.07492,0.30072 0,0.45108c-0.07492,0.15036 -0.14985,0.22554 -0.22477,0.30072c-0.14985,0.15036 -0.29969,0.15036 -0.29969,0.15036c0,0 0,-0.15036 0.14985,-0.22554z" id="Shape" fill="#34662d"/><path d="M340.38483,117.61697c-0.0543,-0.82866 0.34845,-1.52969 0.89955,-1.5658c0.5511,-0.03611 1.04188,0.60638 1.09617,1.43504c0.0543,0.82866 -0.34845,1.52969 -0.89955,1.5658c-0.5511,0.03611 -1.04188,-0.60638 -1.09617,-1.43504z" id="Oval" fill="#283f1f"/><path d="M342.98471,127.04436c0,-0.45108 0.14985,-1.05252 0.37462,-1.5036c0.14985,-0.3759 0.67431,-0.3759 0.82416,0c0.29969,0.82698 0.37462,1.57878 0.37462,1.57878z" id="Shape" fill="#f1f2dc"/><path d="M353.47401,132.45731c-0.74924,-0.30072 -1.64832,-0.67662 -2.47248,-1.27806c-0.44954,-0.30072 -0.89908,-0.60144 -1.2737,-0.97734c-0.22477,-0.15036 -0.37462,-0.3759 -0.59939,-0.60144l-0.44954,-0.67662c-0.14985,-0.22554 -0.37462,-0.3759 -0.52446,-0.52626c-0.22477,-0.15036 -0.44954,-0.30072 -0.67431,-0.3759c-0.44954,-0.22554 -0.89908,-0.30072 -1.42355,-0.3759c-0.97401,-0.15036 -1.87309,-0.22554 -2.69725,-0.30072c-0.44954,-0.07518 -0.82416,-0.15036 -1.12385,-0.22554c-0.29969,-0.15036 -0.59939,-0.22554 -0.82416,-0.30072c-0.22477,-0.15036 -0.37462,-0.22554 -0.44954,-0.30072c-0.07492,-0.07518 -0.14985,-0.15036 -0.14985,-0.15036c0,0 0.07492,0 0.14985,0.07518c0.14985,0.07518 0.29969,0.15036 0.52446,0.22554c0.22477,0.07518 0.52446,0.07518 0.82416,0.15036c0.37462,0 0.74924,0.07518 1.12385,0.07518c0.82416,0 1.72324,0 2.77217,0.15036c0.52446,0.07518 1.04893,0.15036 1.57339,0.3759c0.22477,0.07518 0.52446,0.22554 0.74924,0.3759c0.22477,0.15036 0.44954,0.3759 0.59939,0.60144l0.44954,0.67662c0.14985,0.22554 0.29969,0.45108 0.52446,0.60144c0.37462,0.3759 0.82416,0.67662 1.19878,0.97734c0.82416,0.60144 1.57339,1.05252 2.32263,1.42842c1.42355,0.7518 2.39755,1.20288 2.39755,1.20288c0,0 -1.04893,-0.30072 -2.5474,-0.82698z" id="Shape" fill="#519b3d"/><path d="M343.20948,117.34616c-0.52446,-0.3759 -1.19878,-0.67662 -1.94801,-0.90216c-0.37462,-0.15036 -0.74924,-0.22554 -1.12385,-0.30072c-0.29969,-0.07518 -0.67431,-0.15036 -0.97401,-0.15036c-0.29969,-0.07518 -0.59939,-0.07518 -0.74924,-0.07518c-0.22477,0 -0.29969,0 -0.29969,0c0,0 0.14985,-0.07518 0.29969,-0.07518c0.22477,-0.07518 0.44954,-0.15036 0.74924,-0.15036c0.29969,0 0.67431,0 1.04893,0c0.37462,0 0.82416,0.15036 1.19878,0.22554c0.37462,0.07518 0.82416,0.22554 1.12385,0.45108c0.29969,0.15036 0.59939,0.3759 0.82416,0.60144c0.44954,0.45108 0.59939,0.82698 0.59939,0.82698c0,0 -0.29969,-0.22554 -0.74924,-0.45108z" id="Shape" fill="#519b3d"/><path d="M344.8578,115.99293c-0.07492,-0.30072 -0.14985,-0.67662 -0.37462,-1.05252c-0.07492,-0.15036 -0.22477,-0.30072 -0.37462,-0.45108c-0.14985,-0.15036 -0.29969,-0.30072 -0.44954,-0.3759c-0.07492,-0.07518 -0.22477,-0.15036 -0.29969,-0.22554c-0.07492,0 -0.14985,-0.07518 -0.14985,-0.07518c0,0 0.07492,0 0.14985,0c0.14985,0 0.29969,0 0.44954,0.07518c0.22477,0.07518 0.37462,0.15036 0.59939,0.30072c0.14985,0.07518 0.22477,0.15036 0.29969,0.22554c0.07492,0.07518 0.14985,0.15036 0.22477,0.30072c0.22477,0.45108 0.29969,0.97734 0.22477,1.35324c-0.07492,0.3759 -0.22477,0.60144 -0.22477,0.60144c0,0 0,-0.22554 -0.07492,-0.67662z" id="Shape" fill="#519b3d"/><g id="Shape"><path d="M335.11774,105.54293c0,0 -2.5474,-7.74353 -9.2156,-11.27698c-3.97095,-2.02986 -5.0948,-7.44281 -5.0948,-7.44281c3.89602,5.11223 7.11774,3.90935 11.91284,6.16475c4.79511,2.33058 8.76606,10.29964 8.76606,10.29964c-3.37156,-0.97734 -6.3685,2.2554 -6.3685,2.2554z" id="Path" fill="#f1f2dc"/><path d="M334.6682,106.29472c-1.12385,-0.82698 -0.89908,-3.15755 -0.89908,-3.15755c1.49847,-2.70647 6.3685,-2.2554 6.3685,-2.2554c1.57339,0.52626 2.02294,3.00719 2.02294,3.00719" id="Path" fill="#7cbf2e"/><path d="M341.11162,101.78393c-0.07492,-0.15036 -0.14985,-0.22554 -0.29969,-0.3759c-0.14985,-0.07518 -0.29969,-0.22554 -0.52446,-0.30072c-0.22477,-0.07518 -0.44954,-0.15036 -0.74924,-0.15036c-0.22477,0 -0.52446,0 -0.82416,0c-0.29969,0.07518 -0.59939,0.07518 -0.89908,0.15036c-0.37462,0.07518 -0.67431,0.15036 -0.97401,0.22554c-0.29969,0.07518 -0.59939,0.22554 -0.89908,0.30072c-0.29969,0.15036 -0.59939,0.22554 -0.82416,0.3759c-0.52446,0.22554 -0.97401,0.60144 -1.2737,0.97734c-0.22477,0.3759 -0.29969,0.7518 -0.29969,1.05252c0,0.30072 0.07492,0.45108 0.07492,0.45108c0,0 -0.07492,-0.15036 -0.14985,-0.45108c0,-0.22554 -0.07492,-0.7518 0.22477,-1.20288c0.22477,-0.45108 0.74924,-0.90216 1.2737,-1.20288c0.29969,-0.22554 0.59939,-0.30072 0.89908,-0.45108c0.29969,-0.07518 0.67431,-0.22554 0.97401,-0.30072c0.29969,-0.07518 0.67431,-0.15036 0.97401,-0.22554c0.29969,-0.07518 0.67431,-0.07518 0.97401,-0.07518c0.29969,0 0.59939,0 0.89908,0.07518c0.29969,0.07518 0.59939,0.15036 0.82416,0.30072c0.29969,0.15036 0.44954,0.30072 0.59939,0.45108c0.14985,0.15036 0.22477,0.30072 0.29969,0.45108c0.07492,0.30072 0.07492,0.45108 0.07492,0.45108c0,0 0,-0.15036 -0.37462,-0.52626z" id="Path" fill="#519b3d"/><path d="M331.67125,99.45336c-0.67431,-0.7518 -1.57339,-1.65396 -2.47248,-2.48094c-0.44954,-0.45108 -0.97401,-0.82698 -1.42355,-1.20288c-0.44954,-0.3759 -0.89908,-0.67662 -1.2737,-0.97734c-0.37462,-0.22554 -0.74924,-0.45108 -0.97401,-0.60144c-0.22477,-0.15036 -0.37462,-0.22554 -0.37462,-0.22554c0,0 0.14985,0.07518 0.37462,0.15036c0.22477,0.07518 0.59939,0.22554 1.04893,0.45108c0.22477,0.07518 0.44954,0.22554 0.67431,0.3759c0.29969,0.15036 0.52446,0.30072 0.74924,0.45108c0.52446,0.3759 1.04893,0.7518 1.49847,1.20288c0.97401,0.82698 1.79817,1.8795 2.32263,2.63129c0.52446,0.7518 0.82416,1.35324 0.82416,1.35324c0,0 -0.44954,-0.52626 -0.97401,-1.1277z" id="Path" fill="#c9bd9b"/><path d="M328.22477,91.63465c-0.52446,-0.07518 -1.04893,-0.22554 -1.64832,-0.45108c-0.59939,-0.22554 -1.19878,-0.45108 -1.79817,-0.7518c-0.29969,-0.22554 -0.59939,-0.3759 -0.89908,-0.52626c-0.29969,-0.15036 -0.59939,-0.30072 -0.82416,-0.52626c-0.22477,-0.22554 -0.44954,-0.3759 -0.67431,-0.60144c-0.22477,-0.22554 -0.44954,-0.3759 -0.59939,-0.60144c-0.37462,-0.3759 -0.59939,-0.7518 -0.74924,-0.97734c-0.14985,-0.22554 -0.22477,-0.3759 -0.22477,-0.3759c0,0 0.07492,0.07518 0.29969,0.30072c0.14985,0.07518 0.22477,0.22554 0.37462,0.3759c0.14985,0.15036 0.37462,0.30072 0.52446,0.45108c0.14985,0.22554 0.37462,0.3759 0.59939,0.52626c0.14985,0.22554 0.44954,0.3759 0.67431,0.52626c0.22477,0.22554 0.44954,0.3759 0.74924,0.52626c0.22477,0.15036 0.52446,0.30072 0.82416,0.45108c1.12385,0.60144 2.39755,1.05252 3.29664,1.35324c0.89908,0.3759 1.57339,0.52626 1.57339,0.52626c0,0 -0.67431,-0.07518 -1.49847,-0.22554z" id="Path" fill="#c9bd9b"/></g><path d="M349.27829,110.95587c-0.14985,-0.97734 -0.44954,-2.18022 -0.89908,-3.30791c-0.14985,-0.30072 -0.22477,-0.52626 -0.37462,-0.82698c-0.14985,-0.22554 -0.29969,-0.52626 -0.44954,-0.7518c-0.14985,-0.22554 -0.29969,-0.45108 -0.44954,-0.67662c-0.14985,-0.22554 -0.29969,-0.45108 -0.44954,-0.60144c-0.14985,-0.15036 -0.29969,-0.30072 -0.44954,-0.45108c-0.14985,-0.15036 -0.29969,-0.22554 -0.37462,-0.30072c-0.14985,-0.22554 -0.29969,-0.30072 -0.29969,-0.30072c0,0 0.14985,0.07518 0.37462,0.22554c0.29969,0.15036 0.59939,0.3759 0.97401,0.67662c0.14985,0.15036 0.29969,0.30072 0.52446,0.52626c0.22477,0.15036 0.37462,0.45108 0.52446,0.67662c0.37462,0.45108 0.67431,1.05252 0.89908,1.65396c0.07492,0.30072 0.22477,0.60144 0.29969,0.90216c0.07492,0.30072 0.14985,0.60144 0.22477,0.90216c0.14985,0.60144 0.14985,1.20288 0.22477,1.65396c0.07492,0.97734 0,1.57878 0,1.57878c0,0 -0.07492,-0.67662 -0.29969,-1.57878z" id="Shape" fill="#519b3d"/><path d="M338.03975,127.79616c-0.52446,-0.15036 -1.12385,-0.3759 -1.79817,-0.60144c-0.67431,-0.22554 -1.34862,-0.52626 -2.02294,-0.82698c-0.29969,-0.15036 -0.67431,-0.3759 -0.97401,-0.52626c-0.29969,-0.15036 -0.59939,-0.3759 -0.89908,-0.52626c-0.59939,-0.3759 -1.12385,-0.7518 -1.57339,-1.1277c-0.14985,-0.15036 -0.37462,-0.3759 -0.52446,-0.52626c-0.14985,-0.15036 -0.29969,-0.30072 -0.37462,-0.45108c-0.14985,-0.22554 -0.29969,-0.3759 -0.29969,-0.3759c0,0 0.14985,0.07518 0.37462,0.30072c0.14985,0.15036 0.29969,0.22554 0.44954,0.3759c0.14985,0.15036 0.37462,0.30072 0.59939,0.45108c0.44954,0.30072 0.97401,0.60144 1.57339,0.97734c0.29969,0.15036 0.59939,0.3759 0.89908,0.52626c0.29969,0.15036 0.67431,0.30072 0.97401,0.45108c0.67431,0.30072 1.34862,0.60144 1.94801,0.90216c0.59939,0.30072 1.19878,0.52626 1.72324,0.7518c1.04893,0.3759 1.72324,0.67662 1.72324,0.67662c0,0 -0.74924,-0.15036 -1.79817,-0.45108z" id="Shape" fill="#519b3d"/><path d="M359.76758,129.07422c0,-0.52626 0,-1.1277 -0.07492,-1.8795c-0.07492,-0.7518 -0.29969,-1.5036 -0.67431,-2.33058c-0.07492,-0.22554 -0.22477,-0.3759 -0.29969,-0.60144c-0.07492,-0.15036 -0.22477,-0.30072 -0.37462,-0.52626c-0.37462,-0.30072 -0.67431,-0.67662 -1.04893,-1.05252c-0.67431,-0.82698 -1.19878,-1.80432 -1.57339,-2.85683c-0.37462,-1.05252 -0.67431,-2.2554 -0.89908,-3.38309c-0.22477,-1.20288 -0.44954,-2.40576 -0.67431,-3.53345c-0.14985,-0.60144 -0.37462,-1.1277 -0.44954,-1.72914c-0.14985,-0.60144 -0.22477,-1.1277 -0.37462,-1.72914c-0.29969,-1.1277 -0.67431,-2.2554 -1.12385,-3.23273c-0.44954,-0.97734 -1.04893,-1.8795 -1.72324,-2.6313c-0.37462,-0.3759 -0.67431,-0.7518 -1.04893,-1.05252c-0.37462,-0.30072 -0.74924,-0.60144 -1.12385,-0.82698c-0.67431,-0.45108 -1.42355,-0.82698 -2.09786,-1.1277c-0.67431,-0.22554 -1.2737,-0.45108 -1.79817,-0.60144c-0.97401,-0.22554 -1.34862,-0.3759 -1.34862,-0.3759c0,0 0.52446,0.07518 1.57339,0.30072c0.52446,0.07518 1.12385,0.30072 1.79817,0.52626c0.67431,0.22554 1.42355,0.52626 2.17278,1.05252c0.37462,0.22554 0.74924,0.52626 1.12385,0.82698c0.44954,0.30072 0.74924,0.67662 1.12385,1.05252c0.29969,0.3759 0.67431,0.82698 0.97401,1.27806c0.29969,0.45108 0.59939,0.90216 0.82416,1.42842c0.52446,1.05252 0.89908,2.18022 1.19878,3.30791c0.14985,0.60144 0.22477,1.1277 0.37462,1.72914c0.14985,0.52626 0.29969,1.1277 0.44954,1.72914c0.22477,1.20288 0.37462,2.40576 0.59939,3.53345c0.22477,1.1277 0.44954,2.2554 0.82416,3.30791c0.37462,1.05252 0.82416,2.02986 1.42355,2.78165c0.29969,0.3759 0.67431,0.7518 0.97401,1.1277c0.14985,0.22554 0.29969,0.3759 0.44954,0.60144c0.07492,0.22554 0.22477,0.3759 0.29969,0.60144c0.37462,0.82698 0.52446,1.65396 0.59939,2.40576c0.07492,0.7518 0.07492,1.35324 0,1.8795c-0.14985,1.05252 -0.29969,1.65396 -0.29969,1.65396c0,0 0.14985,-0.60144 0.22477,-1.65396z" id="Shape" fill="#519b3d"/></g><g id="Shape"><path d="M320.88226,103.43789c-1.64832,-1.72914 -1.64832,-4.36043 -0.44954,-3.60863c1.19878,0.7518 3.59633,0.52626 8.01682,0.52626c4.42049,0 5.76911,4.36043 2.99694,6.76619c-3.29664,3.00719 -8.9159,-1.95468 -10.56422,-3.68381z" id="Path" fill="#7cbf2e"/><path d="M331.44648,106.59544c-0.37462,-0.07518 -0.89908,-0.22554 -1.42355,-0.60144c-0.52446,-0.3759 -0.97401,-0.97734 -1.42355,-1.65396l-0.07492,-0.07518l-0.07492,-0.15036c-0.07492,-0.07518 -0.14985,-0.15036 -0.22477,-0.15036c-0.07492,-0.07518 -0.29969,-0.15036 -0.44954,-0.22554c-0.37462,-0.07518 -0.82416,-0.15036 -1.19878,-0.22554c-0.82416,-0.15036 -1.72324,-0.22554 -2.47248,-0.3759c-0.37462,-0.07518 -0.74924,-0.15036 -1.12385,-0.30072c-0.37462,-0.07518 -0.67431,-0.22554 -0.97401,-0.3759c-0.29969,-0.15036 -0.52446,-0.30072 -0.74924,-0.45108c-0.22477,-0.15036 -0.37462,-0.30072 -0.52446,-0.45108c-0.22477,-0.30072 -0.37462,-0.45108 -0.37462,-0.45108c0,0 0.14985,0.15036 0.44954,0.3759c0.14985,0.15036 0.29969,0.22554 0.52446,0.3759c0.22477,0.15036 0.44954,0.22554 0.74924,0.3759c0.29969,0.07518 0.59939,0.22554 0.97401,0.30072c0.37462,0.07518 0.74924,0.15036 1.12385,0.22554c0.82416,0.15036 1.64832,0.22554 2.47248,0.30072c0.44954,0.07518 0.82416,0.15036 1.2737,0.30072c0.22477,0.07518 0.37462,0.15036 0.59939,0.30072c0.07492,0.07518 0.14985,0.15036 0.22477,0.22554l0.07492,0.15036c0.07492,0.07518 0.07492,0.07518 0.07492,0.15036c0.37462,0.67662 0.82416,1.27806 1.2737,1.65396c0.44954,0.3759 0.89908,0.60144 1.2737,0.67662c0.37462,0.15036 0.59939,0.15036 0.59939,0.15036c0,0 -0.22477,0 -0.59939,-0.07518z" id="Path" fill="#519b3d"/><path d="M329.42355,108.2494c-0.59939,0.07518 -1.42355,0 -2.24771,-0.22554c-0.22477,-0.07518 -0.37462,-0.15036 -0.59939,-0.22554c-0.14985,-0.07518 -0.37462,-0.15036 -0.52446,-0.22554c-0.14985,-0.07518 -0.29969,-0.22554 -0.44954,-0.30072c-0.14985,-0.07518 -0.22477,-0.22554 -0.37462,-0.30072c-0.22477,-0.22554 -0.37462,-0.3759 -0.52446,-0.52626c-0.14985,-0.15036 -0.22477,-0.22554 -0.22477,-0.22554c0,0 0.07492,0.07518 0.22477,0.15036c0.14985,0.15036 0.29969,0.22554 0.59939,0.3759c0.52446,0.30072 1.19878,0.60144 1.94801,0.82698c0.37462,0.07518 0.74924,0.15036 1.12385,0.22554c0.37462,0.07518 0.67431,0.15036 0.97401,0.15036c0.59939,0.07518 0.97401,0.07518 0.97401,0.07518c0,0 -0.37462,0.15036 -0.89908,0.22554z" id="Path" fill="#519b3d"/><path d="M332.57034,103.21235c-0.07492,-0.30072 -0.29969,-0.67662 -0.59939,-1.05252c-0.29969,-0.3759 -0.74924,-0.7518 -1.2737,-1.05252c-0.29969,-0.22554 -0.59939,-0.30072 -0.89908,-0.3759c-0.29969,-0.07518 -0.67431,-0.15036 -0.97401,-0.15036c-1.2737,-0.15036 -2.62232,0 -3.67125,-0.07518c-1.04893,0 -1.72324,-0.15036 -1.72324,-0.15036c0,0 0.74924,0 1.72324,-0.07518c0.97401,-0.07518 2.32263,-0.22554 3.74618,-0.15036c0.37462,0 0.67431,0.07518 1.04893,0.15036c0.37462,0.15036 0.67431,0.30072 0.97401,0.45108c0.59939,0.30072 1.04893,0.82698 1.2737,1.27806c0.29969,0.45108 0.37462,0.90216 0.44954,1.20288c0.07492,0.30072 0.07492,0.45108 0.07492,0.45108c0,0 0,-0.15036 -0.14985,-0.45108z" id="Path" fill="#519b3d"/></g></g><g id="Shape"><g id="Group"><path d="M303.79969,275.90048c0,0 1.19878,-2.10504 1.72324,-1.20288c0.37462,0.52626 -0.07492,0.7518 -0.59939,0.7518c-0.44954,0 -0.59939,0 -1.12385,0.45108z" id="Path" fill="#a1af93"/><path d="M312.19113,200.4199c4.94495,7.14209 4.87003,23.23058 -3.89602,34.28201c-8.76606,11.05144 -1.72324,23.75683 1.72324,28.11727c4.34557,5.48813 6.89297,5.71367 7.49235,8.26978c0.67431,2.63129 -5.31957,6.84137 -14.16055,-5.48813c-7.49235,-10.45 -15.5841,-17.59209 -11.98777,-27.36547c3.89602,-10.67554 -2.24771,-16.01331 -3.89602,-26.16259c-1.64832,-9.99892 16.25841,-23.75683 24.72477,-11.65288z" id="Path" fill="#7cbf2e"/><path d="M291.58716,236.50624c0.07492,-0.30072 0.14985,-0.52626 0.22477,-0.90216c0.07492,-0.30072 0.14985,-0.67662 0.22477,-1.1277c0.07492,-0.3759 0.14985,-0.82698 0.14985,-1.35324c0,-0.45108 0,-0.97734 0,-1.5036c0,-0.52626 -0.07492,-1.1277 -0.07492,-1.65396c-0.07492,-0.52626 -0.14985,-1.1277 -0.22477,-1.65396c-0.07492,-0.52626 -0.14985,-1.1277 -0.29969,-1.65396c-0.07492,-0.52626 -0.22477,-1.05252 -0.37462,-1.57878c-0.14985,-0.52626 -0.29969,-1.05252 -0.44954,-1.5036c-0.14985,-0.45108 -0.29969,-0.90216 -0.44954,-1.27806c-0.22477,-0.82698 -0.59939,-1.5036 -0.74924,-1.95468c-0.22477,-0.45108 -0.29969,-0.7518 -0.29969,-0.7518c0,0 0.14985,0.22554 0.37462,0.67662c0.14985,0.22554 0.29969,0.52626 0.44954,0.82698c0.22477,0.30072 0.37462,0.67662 0.52446,1.05252c0.14985,0.3759 0.29969,0.82698 0.52446,1.27806c0.14985,0.52626 0.37462,0.97734 0.52446,1.5036c0.14985,0.45108 0.29969,1.05252 0.44954,1.57878c0.14985,0.60144 0.22477,1.1277 0.37462,1.72914c0.14985,0.60144 0.14985,1.1277 0.22477,1.72914c0.07492,0.52626 0.07492,1.1277 0.07492,1.65396c0,0.52626 0,1.05252 -0.07492,1.57878c-0.07492,0.45108 -0.14985,0.90216 -0.22477,1.35324c-0.22477,0.90216 -0.44954,1.57878 -0.59939,2.02986c-0.14985,0.52626 -0.29969,0.7518 -0.29969,0.7518c0,0 0.07492,-0.30072 0,-0.82698z" id="Path" fill="#519b3d"/><path d="M308.66973,260.93969c-0.22477,-0.22554 -0.44954,-0.60144 -0.74924,-0.97734c-0.22477,-0.3759 -0.52446,-0.82698 -0.82416,-1.35324c-0.29969,-0.45108 -0.59939,-1.05252 -0.89908,-1.65396c-0.29969,-0.60144 -0.52446,-1.27806 -0.82416,-1.95468c-0.22477,-0.67662 -0.44954,-1.42842 -0.67431,-2.18022c-0.22477,-0.7518 -0.44954,-1.57878 -0.52446,-2.33058l-0.14985,-1.20288c0,-0.45108 -0.07492,-0.82698 -0.07492,-1.20288c-0.07492,-0.7518 0,-1.5036 0,-2.2554c0,-0.7518 0.22477,-1.42842 0.29969,-2.10504c0,-0.3759 0.07492,-0.67662 0.14985,-0.97734c0.07492,-0.30072 0.14985,-0.60144 0.22477,-0.90216c0.14985,-0.52626 0.22477,-1.05252 0.44954,-1.5036c0.22477,-0.45108 0.37462,-0.82698 0.52446,-1.1277c0.29969,-0.60144 0.44954,-0.97734 0.44954,-0.97734c0,0 -0.14985,0.30072 -0.37462,0.97734c-0.14985,0.30072 -0.29969,0.67662 -0.44954,1.1277c-0.14985,0.3759 -0.22477,0.97734 -0.37462,1.5036c-0.07492,0.30072 -0.14985,0.60144 -0.22477,0.90216c-0.07492,0.30072 -0.07492,0.67662 -0.14985,0.97734c-0.07492,0.67662 -0.22477,1.35324 -0.22477,2.10504c0,0.7518 -0.07492,1.5036 0,2.2554c0,0.3759 0.07492,0.7518 0.07492,1.1277l0.14985,1.1277c0.07492,0.7518 0.29969,1.5036 0.44954,2.2554c0.22477,0.67662 0.44954,1.42842 0.67431,2.10504c0.22477,0.67662 0.44954,1.35324 0.74924,1.95468c0.29969,0.67662 0.52446,1.20288 0.82416,1.72914c0.22477,0.52626 0.52446,0.97734 0.74924,1.42842c0.29969,0.3759 0.44954,0.7518 0.67431,1.05252c0.37462,0.60144 0.59939,0.90216 0.59939,0.90216c0,0 -0.29969,-0.30072 -0.52446,-0.82698z" id="Path" fill="#519b3d"/><path d="M317.06116,269.66055c1.19878,0.90216 4.27064,2.70647 5.61927,2.78165c1.34862,0.07518 1.49847,-1.27806 3.29664,-0.90216c1.79817,0.45108 1.94801,2.10504 1.12385,3.08237c-0.82416,0.90216 -1.12385,0.90216 -1.79817,0.82698c0,0 0.14985,0.67662 -0.22477,1.42842c-0.44954,0.97734 -1.42355,1.05252 -2.32263,0.67662c-0.89908,-0.3759 -1.2737,-0.22554 -1.2737,-0.22554c0,0 0.29969,1.27806 -0.44954,2.02986c-1.04893,0.97734 -2.02294,0.67662 -3.14679,-0.52626c-1.12385,-1.20288 -2.62232,-1.42842 -4.94495,-1.42842c-1.72324,0 -2.5474,-0.97734 -3.52141,-1.8795c-0.67431,-0.60144 -1.49847,-0.97734 -2.09786,-0.60144c-0.89908,0.60144 -2.02294,1.05252 -2.47248,0.07518c-0.82416,-1.72914 2.09786,-1.72914 2.09786,-2.85683c0,-1.72914 -3.37156,-4.88669 -0.44954,-5.41295c2.92202,-0.52626 8.39144,1.27806 10.56422,2.93201z" id="Path" fill="#7cbf2e"/><path d="M306.79664,272.89329c0.14985,-0.07518 0.22477,-0.30072 0.22477,-0.60144c0,-0.30072 -0.07492,-0.60144 -0.22477,-0.97734c-0.14985,-0.3759 -0.37462,-0.7518 -0.59939,-1.20288c-0.29969,-0.45108 -0.59939,-0.90216 -0.89908,-1.35324c-0.37462,-0.52626 -0.67431,-0.97734 -1.04893,-1.5036c-0.74924,-1.05252 -1.57339,-2.10504 -2.32263,-3.15755c-1.57339,-2.10504 -3.14679,-4.28525 -4.34557,-5.86403c-1.19878,-1.65396 -1.94801,-2.70647 -1.94801,-2.70647c0,0 0.89908,1.05252 2.17278,2.55612c0.67431,0.7518 1.42355,1.65396 2.17278,2.6313c0.74924,0.97734 1.57339,2.02986 2.39755,3.08237c0.74924,1.05252 1.49847,2.10504 2.24771,3.15755c0.29969,0.52626 0.67431,1.05252 0.97401,1.5036c0.29969,0.52626 0.59939,0.97734 0.82416,1.42842c0.22477,0.45108 0.44954,0.90216 0.52446,1.27806c0.07492,0.3759 0.14985,0.7518 0.07492,1.05252c-0.07492,0.30072 -0.14985,0.52626 -0.29969,0.60144c-0.14985,0.15036 -0.22477,0.15036 -0.22477,0.15036c0,0 0.07492,0 0.29969,-0.07518z" id="Path" fill="#519b3d"/><path d="M325.07798,275.29904c-0.14985,-0.15036 -0.29969,-0.45108 -0.59939,-0.67662c-0.14985,-0.15036 -0.37462,-0.22554 -0.52446,-0.30072c-0.14985,-0.07518 -0.37462,-0.15036 -0.59939,-0.15036c-0.22477,0 -0.44954,0 -0.67431,0.07518c-0.22477,0.07518 -0.44954,0.15036 -0.74924,0.15036c-0.52446,0.07518 -1.04893,0 -1.57339,-0.15036c-0.44954,-0.15036 -0.89908,-0.30072 -1.2737,-0.52626c-0.29969,-0.22554 -0.59939,-0.45108 -0.74924,-0.60144c-0.14985,-0.22554 -0.22477,-0.30072 -0.22477,-0.30072c0,0 0.07492,0.07518 0.29969,0.22554c0.14985,0.07518 0.44954,0.22554 0.82416,0.3759c0.37462,0.15036 0.82416,0.30072 1.2737,0.3759c0.44954,0.07518 0.97401,0.15036 1.42355,0.07518c0.22477,0 0.44954,-0.07518 0.74924,-0.15036c0.29969,0 0.52446,0 0.82416,0c0.52446,0 0.97401,0.30072 1.2737,0.60144c0.14985,0.15036 0.22477,0.30072 0.29969,0.45108c0.07492,0.15036 0.14985,0.30072 0.14985,0.3759c0.07492,0.22554 0.07492,0.3759 0.07492,0.3759c0,0 0,-0.15036 -0.22477,-0.22554z" id="Path" fill="#519b3d"/><path d="M321.40673,277.17854c-0.07492,-0.15036 -0.14985,-0.3759 -0.37462,-0.60144c-0.44954,-0.45108 -1.12385,-0.82698 -1.87309,-0.90216c-0.74924,-0.07518 -1.57339,-0.15036 -2.17278,-0.3759c-0.29969,-0.07518 -0.52446,-0.22554 -0.67431,-0.30072c-0.14985,-0.07518 -0.22477,-0.15036 -0.22477,-0.15036c0,0 0.37462,0.15036 0.97401,0.22554c0.52446,0.07518 1.34862,0.07518 2.17278,0.22554c0.14985,0.07518 0.37462,0.07518 0.59939,0.15036c0.22477,0 0.44954,0.15036 0.59939,0.22554c0.37462,0.22554 0.67431,0.45108 0.82416,0.7518c0.29969,0.52626 0.29969,0.97734 0.29969,0.97734c0,0 0,-0.07518 -0.14985,-0.22554z" id="Path" fill="#519b3d"/><path d="M320.65749,279.13321c-0.67431,-0.3759 -1.12385,-0.90216 -0.22477,-1.27806c1.49847,-0.60144 1.42355,2.63129 1.42355,2.63129c-0.37462,-0.82698 -0.67431,-0.90216 -1.19878,-1.35324z" id="Path" fill="#a1af93"/><path d="M324.47859,277.17854c-0.74924,-0.30072 -1.2737,-0.7518 -0.44954,-1.27806c1.34862,-0.90216 1.87309,2.33058 1.87309,2.33058c-0.44954,-0.7518 -0.74924,-0.7518 -1.42355,-1.05252z" id="Path" fill="#a1af93"/><path d="M327.25076,274.77278c-0.74924,0 -1.42355,-0.22554 -0.82416,-1.05252c0.97401,-1.27806 2.5474,1.57878 2.5474,1.57878c-0.74924,-0.52626 -0.97401,-0.52626 -1.72324,-0.52626z" id="Path" fill="#a1af93"/></g><path d="M315.33792,213.05012c0,-0.7518 -0.07492,-1.65396 -0.14985,-2.55612c-0.07492,-0.90216 -0.14985,-1.8795 -0.29969,-2.85683c-0.07492,-0.45108 -0.14985,-0.97734 -0.22477,-1.42842c-0.07492,-0.45108 -0.14985,-0.90216 -0.29969,-1.35324c-0.07492,-0.45108 -0.22477,-0.90216 -0.37462,-1.27806c-0.14985,-0.45108 -0.29969,-0.7518 -0.44954,-1.1277c-0.14985,-0.3759 -0.29969,-0.60144 -0.44954,-0.90216c-0.07492,-0.15036 -0.14985,-0.30072 -0.22477,-0.3759c-0.07492,-0.15036 -0.14985,-0.22554 -0.22477,-0.30072c-0.22477,-0.30072 -0.37462,-0.52626 -0.37462,-0.52626c0,0 0.14985,0.15036 0.44954,0.45108c0.07492,0.07518 0.14985,0.15036 0.22477,0.22554c0.07492,0.15036 0.14985,0.22554 0.22477,0.3759c0.14985,0.30072 0.37462,0.52626 0.52446,0.90216c0.14985,0.3759 0.37462,0.7518 0.52446,1.1277c0.14985,0.3759 0.37462,0.82698 0.44954,1.27806c0.14985,0.45108 0.29969,0.97734 0.37462,1.42842c0.14985,0.52626 0.22477,0.97734 0.29969,1.5036c0.14985,0.97734 0.22477,2.02986 0.29969,2.93201c0,0.90216 0,1.80432 0,2.55612c-0.07492,1.5036 -0.22477,2.48094 -0.22477,2.48094c0,0 0,-1.05252 -0.07492,-2.55612z" id="Path" fill="#519b3d"/></g><g id="Shape"><g id="Group"><g id="Path"><path d="M248.1315,186.51163c7.6422,11.72806 3.74618,37.43957 -6.06881,41.49928c-14.98471,6.16475 -23.75076,11.5777 -28.54587,13.75791c-4.72018,2.10504 -5.3945,4.28525 -9.44037,24.73417c-1.04893,5.11223 -7.79205,12.7054 -7.9419,1.65396c0,-2.18022 -0.37462,-18.94532 1.87309,-24.58381c4.19572,-10.29964 8.69113,-9.24712 12.06269,-12.10396c4.27064,-3.53345 8.69113,-10.60036 2.99694,-21.6518c-10.86391,-21.05036 16.10856,-52.40036 35.06422,-23.30576z" fill="#7cbf2e"/><path d="M203.92661,270.41235c0.52446,1.42842 3.52141,3.60863 4.79511,3.98453c1.2737,0.3759 1.72324,-0.90216 3.44648,-0.07518c1.64832,0.82698 1.42355,2.48094 0.37462,3.23273c-1.04893,0.7518 -1.34862,0.60144 -1.94801,0.45108c0,0 0,0.67662 -0.52446,1.35324c-0.67431,0.82698 -1.64832,0.7518 -2.39755,0.15036c-0.74924,-0.60144 -1.12385,-0.52626 -1.12385,-0.52626c0,0 0,1.35324 -0.89908,1.8795c-1.2737,0.7518 -2.09786,0.15036 -2.92202,-1.27806c-0.82416,-1.42842 -2.17278,-1.95468 -4.49541,-2.48094c-1.64832,-0.3759 -3.07187,-3.53345 -2.69725,-6.76619c0.52446,-4.66115 0.59939,-7.59317 3.44648,-8.1946c8.31651,-1.80432 4.04587,5.71367 4.94495,8.26978z" fill="#7cbf2e"/><path d="M210.37003,277.62962c0,-0.22554 -0.14985,-0.52626 -0.37462,-0.82698c-0.14985,-0.15036 -0.29969,-0.22554 -0.44954,-0.3759c-0.14985,-0.15036 -0.37462,-0.22554 -0.59939,-0.30072c-0.22477,0 -0.44954,-0.07518 -0.67431,-0.07518c-0.29969,0 -0.52446,0 -0.82416,0c-0.52446,-0.07518 -1.04893,-0.30072 -1.49847,-0.52626c-0.44954,-0.30072 -0.82416,-0.52626 -1.12385,-0.82698c-0.29969,-0.30072 -0.44954,-0.52626 -0.59939,-0.7518c-0.07492,-0.15036 -0.14985,-0.30072 -0.14985,-0.30072c0,0 0.07492,0.07518 0.22477,0.22554c0.14985,0.15036 0.44954,0.3759 0.74924,0.60144c0.29969,0.22554 0.67431,0.3759 1.12385,0.60144c0.44954,0.22554 0.97401,0.3759 1.42355,0.45108c0.22477,0.07518 0.44954,0.07518 0.74924,0.07518c0.29969,0 0.59939,0.07518 0.82416,0.15036c0.52446,0.15036 0.89908,0.52626 1.12385,0.90216c0.14985,0.15036 0.14985,0.3759 0.22477,0.52626c0.07492,0.22554 0.07492,0.30072 0.07492,0.45108c0,0.22554 0,0.3759 0,0.3759c0,0 0,-0.15036 -0.22477,-0.3759z" fill="#519b3d"/><path d="M206.39908,278.75731c-0.07492,-0.22554 -0.14985,-0.45108 -0.29969,-0.67662c-0.22477,-0.52626 -0.82416,-0.97734 -1.57339,-1.27806c-0.67431,-0.30072 -1.49847,-0.60144 -2.02294,-0.90216c-0.29969,-0.15036 -0.44954,-0.30072 -0.59939,-0.45108c-0.07492,-0.15036 -0.14985,-0.22554 -0.14985,-0.22554c0,0 0.29969,0.22554 0.89908,0.45108c0.52446,0.15036 1.34862,0.3759 2.09786,0.67662c0.22477,0.07518 0.44954,0.15036 0.59939,0.30072c0.22477,0.07518 0.37462,0.22554 0.52446,0.3759c0.29969,0.22554 0.52446,0.60144 0.59939,0.90216c0.22477,0.60144 0.07492,1.05252 0.07492,1.05252c0,0 0,-0.07518 -0.14985,-0.22554z" fill="#519b3d"/><path d="M205.20031,280.56163c-0.52446,-0.52626 -0.89908,-1.20288 0.07492,-1.35324c1.57339,-0.30072 0.82416,2.85683 0.82416,2.85683c-0.14985,-0.90216 -0.37462,-1.05252 -0.89908,-1.5036z" fill="#a1af93"/><path d="M209.39602,279.43393c-0.59939,-0.45108 -1.12385,-0.97734 -0.14985,-1.35324c1.57339,-0.52626 1.34862,2.70647 1.34862,2.70647c-0.29969,-0.82698 -0.52446,-0.90216 -1.19878,-1.35324z" fill="#a1af93"/><path d="M212.61774,277.77998c-0.67431,-0.22554 -1.2737,-0.60144 -0.52446,-1.20288c1.19878,-1.05252 2.09786,2.10504 2.09786,2.10504c-0.52446,-0.7518 -0.82416,-0.7518 -1.57339,-0.90216z" fill="#a1af93"/><path d="M215.24006,223.12422c0.07492,-0.45108 0.14985,-1.1277 0.14985,-1.95468c0.07492,-0.7518 0,-1.72914 -0.14985,-2.70647c-0.07492,-0.45108 -0.07492,-0.97734 -0.22477,-1.5036c-0.14985,-0.52626 -0.22477,-1.05252 -0.37462,-1.57878c-0.07492,-0.52626 -0.22477,-1.05252 -0.37462,-1.57878c-0.14985,-0.52626 -0.29969,-1.05252 -0.44954,-1.5036c-0.14985,-0.45108 -0.29969,-0.90216 -0.44954,-1.35324c-0.14985,-0.45108 -0.29969,-0.82698 -0.44954,-1.20288c-0.29969,-0.7518 -0.59939,-1.35324 -0.74924,-1.80432c-0.22477,-0.45108 -0.29969,-0.67662 -0.29969,-0.67662c0,0 0.14985,0.30072 0.37462,0.67662c0.22477,0.3759 0.59939,0.97734 0.89908,1.72914c0.14985,0.3759 0.29969,0.7518 0.52446,1.20288c0.14985,0.45108 0.37462,0.90216 0.52446,1.35324c0.22477,0.52626 0.37462,0.97734 0.52446,1.5036c0.14985,0.52626 0.29969,1.05252 0.44954,1.57878c0.07492,0.52626 0.22477,1.05252 0.29969,1.57878c0.14985,0.52626 0.14985,1.05252 0.22477,1.57878c0.07492,0.52626 0.07492,1.05252 0.07492,1.5036c0,0.52626 0,0.97734 -0.07492,1.35324c0,0.82698 -0.14985,1.5036 -0.29969,1.95468c-0.07492,0.45108 -0.22477,0.67662 -0.22477,0.67662c0,0 0.14985,-0.22554 0.07492,-0.82698z" fill="#519b3d"/><path d="M252.47706,204.10372c-0.14985,1.27806 -0.37462,3.08237 -0.67431,5.18741c-0.29969,2.10504 -0.74924,4.58597 -1.42355,7.21727c-0.37462,1.27806 -0.74924,2.63129 -1.2737,3.98453c-0.52446,1.35324 -1.12385,2.63129 -2.02294,3.83417c-0.89908,1.1277 -1.94801,2.18022 -3.14679,2.93201c-1.19878,0.7518 -2.47248,1.35324 -3.67125,1.8795c-2.47248,1.05252 -4.87003,1.95468 -6.81804,2.78165c-1.94801,0.82698 -3.59633,1.57878 -4.72018,2.10504c-1.04893,0.60144 -1.72324,0.90216 -1.72324,0.90216c0,0 0.59939,-0.3759 1.72324,-0.97734c1.12385,-0.60144 2.69725,-1.42842 4.64526,-2.33058c1.94801,-0.90216 4.27064,-1.8795 6.74312,-2.93201c1.19878,-0.52626 2.47248,-1.1277 3.59633,-1.8795c1.12385,-0.7518 2.17278,-1.72914 2.99694,-2.85683c0.82416,-1.1277 1.42355,-2.40576 1.94801,-3.68381c0.52446,-1.27806 0.89908,-2.63129 1.2737,-3.90935c0.67431,-2.55612 1.19878,-5.03705 1.57339,-7.14209c0.74924,-4.21007 1.12385,-7.06691 1.12385,-7.06691c0,0 -0.07492,0.67662 -0.14985,1.95468z" fill="#519b3d"/></g><g id="Path" fill="#89ce30"><path d="M217.63761,187.48897c-0.59939,-5.18741 7.41743,-8.04424 12.81193,-8.04424c5.46942,0 3.8211,5.11223 0.97401,8.9464c-2.84709,3.83417 -13.11162,4.13489 -13.78593,-0.90216z"/><path d="M224.08104,194.40552c4.1208,-0.90216 9.14067,1.80432 5.0948,3.23273c-6.3685,2.2554 -9.2156,-2.33058 -5.0948,-3.23273z"/><path d="M236.21865,189.9699c2.92202,-1.05252 2.5474,2.55612 0.67431,3.83417c-1.87309,1.27806 -4.19572,-2.55612 -0.67431,-3.83417z"/></g></g><path d="M215.16514,241.01703c-0.52446,0.30072 -1.34862,0.67662 -2.24771,1.20288c-0.44954,0.30072 -0.97401,0.52626 -1.42355,0.90216c-0.22477,0.22554 -0.52446,0.3759 -0.67431,0.60144c-0.14985,0.22554 -0.37462,0.52626 -0.52446,0.7518c-0.74924,1.05252 -1.2737,2.40576 -1.72324,3.68381c-0.44954,1.27806 -0.82416,2.6313 -1.19878,3.90935c-0.37462,1.27806 -0.74924,2.40576 -0.97401,3.45827c-0.52446,2.02986 -0.89908,3.38309 -0.89908,3.38309c0,0 0.07492,-0.3759 0.14985,-0.97734c0.07492,-0.60144 0.22477,-1.42842 0.44954,-2.48094c0.22477,-1.05252 0.52446,-2.2554 0.82416,-3.53345c0.37462,-1.27806 0.74924,-2.63129 1.19878,-3.98453c0.44954,-1.35324 1.04893,-2.6313 1.79817,-3.75899c0.22477,-0.30072 0.37462,-0.60144 0.59939,-0.82698c0.22477,-0.22554 0.52446,-0.45108 0.74924,-0.60144c0.52446,-0.30072 1.04893,-0.60144 1.49847,-0.82698c0.89908,-0.52626 1.72324,-0.82698 2.32263,-1.05252c0.59939,-0.22554 0.89908,-0.30072 0.89908,-0.30072c0,0 -0.37462,0.22554 -0.82416,0.45108z" id="Path" fill="#519b3d"/></g><g id="Shape"><path d="M219.43578,79.22998c46.90214,-11.12662 60.83792,17.74245 60.83792,17.74245c-19.1055,25.26043 0.89908,71.49604 0.89908,71.49604c-24.35015,-27.29029 -67.20642,0 -67.20642,0c1.42355,-32.8536 -28.09633,-18.34388 -28.09633,-18.34388c9.2156,-31.95144 -13.33639,-31.12446 -20.30428,-27.89173c0,0 31.84251,-37.81547 53.87003,-43.00288z" id="Path" fill="#b4d189"/><path d="M283.19572,174.10695c-3.29664,-11.42734 -11.91284,-16.08849 -15.73394,-32.92878c-3.44648,-15.11115 5.01988,-35.10899 5.01988,-35.10899c0,0 -13.11162,3.23273 -27.34709,10.75072c-14.75994,7.81871 -32.74159,56.23453 -32.74159,56.23453c0,0 4.87003,-24.88453 14.16055,-46.16043c9.29052,-21.35108 46.4526,-28.41799 46.4526,-28.41799c0,0 -29.81957,-5.11223 -43.08104,0.22554c-13.26147,5.33777 -46.15291,55.63309 -46.15291,55.63309c14.98471,-36.38705 32.21713,-53.67842 42.85627,-62.54964c10.56422,-8.87122 47.27676,-0.45108 47.27676,-0.45108c-3.14679,-7.44281 -32.1422,-11.80324 -49.52447,-9.77338c-17.30734,2.02986 -63.16055,45.33345 -63.16055,45.33345c0,0 37.98624,-48.26547 61.13761,-51.72374c29.37003,-4.43561 60.38838,9.54784 60.38838,9.54784c0.89908,-7.96906 -8.39144,-9.3223 -8.39144,-9.3223c7.49235,-1.35324 13.71101,5.33777 15.88379,14.20899c2.17278,8.87122 -12.36239,26.98957 -14.61009,42.5518c-2.24771,15.48705 22.10245,39.01835 22.10245,39.01835c1.34862,6.23993 -12.36239,10.14928 -14.53517,2.93201z" id="Path" fill="#7cbf2e"/><path d="M293.53517,166.96487c-1.2737,-1.35324 -3.07187,-3.30791 -5.0948,-5.78885c-2.02294,-2.48094 -4.27064,-5.41295 -6.44342,-8.72086c-2.17278,-3.30791 -4.27064,-7.06691 -5.61927,-11.12662c-0.67431,-2.02986 -1.04893,-4.21007 -1.04893,-6.31511c0.07492,-2.10504 0.44954,-4.13489 0.89908,-6.08957c0.89908,-3.83417 2.24771,-7.36763 3.44648,-10.29964c1.2737,-3.00719 2.47248,-5.33777 3.29664,-6.99173c0.82416,-1.65396 1.34862,-2.55612 1.34862,-2.55612c0,0 -2.02294,3.75899 -4.34557,9.62302c-1.19878,2.93201 -2.39755,6.46547 -3.29664,10.29964c-0.37462,1.95468 -0.74924,3.98453 -0.82416,6.01439c0,2.10504 0.37462,4.13489 1.04893,6.16475c1.2737,3.98453 3.37156,7.74353 5.46942,11.05144c2.09786,3.30791 4.34557,6.31511 6.29358,8.79604c3.97095,4.96187 6.89297,8.04424 6.89297,8.04424c0,0 -0.74924,-0.7518 -2.02294,-2.10504z" id="Path" fill="#519b3d"/><path d="M273.9052,98.47602c-1.04893,0.22554 -2.47248,0.60144 -4.19572,1.05252c-1.72324,0.45108 -3.74618,1.05252 -5.84404,1.72914c-2.09786,0.60144 -4.34557,1.42842 -6.59327,2.2554c-2.17278,0.82698 -4.42049,1.72914 -6.44343,2.63129c-2.02294,0.90216 -3.89602,1.80432 -5.46942,2.6313c-1.57339,0.82698 -2.92202,1.5036 -3.8211,2.02986c-0.89908,0.52626 -1.42355,0.82698 -1.42355,0.82698c0,0 0.44954,-0.30072 1.34862,-0.90216c0.89908,-0.52626 2.17278,-1.35324 3.74618,-2.18022c1.57339,-0.82698 3.44648,-1.8795 5.46942,-2.78165c2.02294,-0.90216 4.19572,-1.8795 6.44343,-2.70647c2.24771,-0.82698 4.49541,-1.57878 6.6682,-2.2554c2.17278,-0.67662 4.19572,-1.20288 5.91896,-1.57878c1.79816,-0.45108 3.22171,-0.67662 4.27064,-0.90216c0.97401,-0.22554 1.5734,-0.30072 1.5734,-0.3759c0,0 -0.59939,0.15036 -1.64832,0.52626z" id="Path" fill="#519b3d"/><path d="M274.42966,91.55947c-1.04893,-0.22554 -2.62232,-0.52626 -4.49541,-0.90216c-1.79816,-0.3759 -4.04587,-0.67662 -6.3685,-1.05252c-2.39755,-0.3759 -4.87003,-0.67662 -7.41743,-0.90216c-1.2737,-0.15036 -2.47248,-0.22554 -3.74618,-0.30072c-1.2737,-0.15036 -2.47248,-0.15036 -3.67125,-0.22554c-1.19878,-0.07518 -2.32263,-0.07518 -3.44648,-0.07518c-1.12385,0 -2.09786,0 -3.07187,0c-0.97401,0 -1.87309,0 -2.62232,0c-0.82416,0 -1.49847,0.07518 -2.02294,0.07518c-1.12385,0.07518 -1.72324,0.07518 -1.72324,0.07518c0,0 0.59939,-0.07518 1.72324,-0.15036c0.59939,0 1.2737,-0.07518 2.02294,-0.15036c0.82416,-0.07518 1.64832,-0.15036 2.62232,-0.15036c0.97401,-0.07518 1.94801,-0.07518 3.07187,-0.07518c1.12385,0.07518 2.24771,0 3.44648,0.07518c1.19878,0 2.39755,0.07518 3.67125,0.15036c1.19878,0.07518 2.47248,0.15036 3.74618,0.30072c2.5474,0.22554 5.0948,0.52626 7.41743,0.90216c1.19878,0.15036 2.32263,0.3759 3.37156,0.60144c1.04893,0.22554 2.09786,0.3759 2.99694,0.60144c1.87309,0.45108 3.44648,0.82698 4.49541,1.1277c1.04893,0.22554 1.64832,0.45108 1.64832,0.45108c0,0 -0.59939,-0.22554 -1.64832,-0.3759z" id="Path" fill="#519b3d"/><path d="M280.57339,83.66559c-1.42355,-0.60144 -3.59633,-1.35324 -6.14373,-2.18022c-1.34862,-0.3759 -2.69725,-0.82698 -4.19572,-1.27806c-1.49847,-0.52626 -3.07187,-0.90216 -4.72018,-1.35324c-1.57339,-0.3759 -3.29664,-0.82698 -5.01988,-1.20288c-1.72324,-0.3759 -3.44648,-0.7518 -5.24465,-1.05252c-0.82416,-0.22554 -1.72324,-0.3759 -2.62232,-0.52626c-0.89908,-0.07518 -1.72324,-0.22554 -2.62232,-0.3759c-0.89908,-0.15036 -1.79817,-0.30072 -2.62232,-0.3759c-0.82416,-0.07518 -1.72324,-0.22554 -2.5474,-0.30072c-0.82416,-0.15036 -1.64832,-0.22554 -2.47248,-0.30072c-0.82416,-0.07518 -1.64832,-0.07518 -2.39755,-0.15036c-0.74924,-0.07518 -1.49847,-0.07518 -2.24771,-0.15036c-0.74924,-0.07518 -1.42355,-0.07518 -2.09786,-0.07518c-1.34862,0 -2.5474,-0.07518 -3.67125,-0.07518c-1.12385,0 -2.02294,0.07518 -2.84709,0.07518c-1.57339,0.07518 -2.47248,0.07518 -2.47248,0.07518c0,0 0.89908,-0.07518 2.47248,-0.15036c0.82416,0 1.72324,-0.07518 2.84709,-0.15036c1.04893,0 2.32263,0 3.67125,0c0.67431,0 1.34862,-0.07518 2.09786,0c0.74924,0.07518 1.49847,0.07518 2.24771,0.15036c0.82416,0.07518 1.57339,0.07518 2.39755,0.15036c0.82416,0 1.64832,0.15036 2.47248,0.22554c0.82416,0.15036 1.64832,0.22554 2.5474,0.30072c0.89908,0.07518 1.72324,0.22554 2.62232,0.3759c0.82416,0.07518 1.72324,0.22554 2.62232,0.3759c0.89908,0.22554 1.79817,0.3759 2.69725,0.52626c1.72324,0.30072 3.52141,0.7518 5.24465,1.1277c1.79816,0.3759 3.44648,0.90216 5.0948,1.27806c1.5734,0.52626 3.14679,0.97734 4.64526,1.42842c1.42355,0.45108 2.84709,0.90216 4.1208,1.35324c1.2737,0.45108 2.39755,0.90216 3.44648,1.27806c0.97401,0.3759 1.87309,0.7518 2.62232,1.05252c1.42355,0.60144 2.24771,0.97734 2.24771,0.97734c0,0 -0.82416,-0.3759 -2.17278,-1.05252z" id="Path" fill="#519b3d"/><path d="M282.14679,171.7012c0,-0.30072 -0.07492,-0.82698 -0.29969,-1.35324c-0.22477,-0.52626 -0.44954,-1.20288 -0.82416,-1.95468c-0.37462,-0.7518 -0.82416,-1.5036 -1.34862,-2.40576c-0.52447,-0.90216 -1.12385,-1.80432 -1.79817,-2.78165c-0.59939,-0.90216 -1.34862,-1.8795 -2.09786,-2.93201c-1.49847,-2.02986 -2.92202,-4.43561 -4.1208,-6.84137c-1.19878,-2.48094 -2.17278,-5.03705 -2.99694,-7.44281c-0.82416,-2.40576 -1.34862,-4.73633 -1.72324,-6.76619c-0.29969,-2.02986 -0.44954,-3.68381 -0.44954,-4.88669c0,-0.60144 0.07492,-1.05252 0.07492,-1.35324c0.07492,-0.30072 0.07492,-0.45108 0.07492,-0.45108c0,0 0,0.15036 0,0.45108c0,0.30072 0,0.7518 0,1.35324c0.07492,1.20288 0.29969,2.93201 0.67431,4.88669c0.37462,2.02986 0.97401,4.28525 1.79817,6.69101c0.82416,2.40576 1.79816,4.96187 2.99694,7.36763c1.19878,2.48094 2.5474,4.81151 4.04587,6.84137c0.74924,0.97734 1.49847,2.02986 2.09786,3.00719c0.67431,0.97734 1.19878,1.8795 1.72324,2.78165c0.97401,1.80432 1.64832,3.38309 1.94801,4.51079c0.22477,0.60144 0.29969,1.05252 0.29969,1.35324c0,0.30072 0,0.45108 0,0.45108c0,0 0,-0.22554 -0.07492,-0.52626z" id="Path" fill="#519b3d"/><path d="M273.53058,104.71595c-0.44954,0.90216 -0.97401,2.10504 -1.42355,3.30791c-0.44954,1.20288 -0.89908,2.48094 -1.2737,3.38309c-0.22477,0.45108 -0.37462,0.82698 -0.44954,1.1277c-0.07492,0.30072 -0.14985,0.45108 -0.14985,0.45108c0,0 0,-0.15036 0.07492,-0.45108c0.07492,-0.30072 0.07492,-0.7518 0.22477,-1.20288c0.22477,-0.97734 0.59939,-2.2554 1.12385,-3.45827c0.52447,-1.20288 1.12385,-2.40576 1.64832,-3.23273c0.22477,-0.45108 0.52447,-0.7518 0.67431,-0.97734c0.14985,-0.22554 0.29969,-0.30072 0.29969,-0.30072c0,0 -0.37462,0.52626 -0.74923,1.35324z" id="Path" fill="#519b3d"/><path d="M273.6055,90.73249c-0.14985,-0.15036 -0.29969,-0.3759 -0.52446,-0.60144c-0.14985,-0.22554 -0.44954,-0.45108 -0.74924,-0.67662c-0.29969,-0.22554 -0.59939,-0.45108 -0.97401,-0.67662c-0.37462,-0.22554 -0.82416,-0.45108 -1.19878,-0.67662c-0.44954,-0.22554 -0.89908,-0.45108 -1.34862,-0.67662c-0.52446,-0.15036 -0.97401,-0.3759 -1.42355,-0.60144c-0.44954,-0.22554 -0.97401,-0.3759 -1.42355,-0.60144c-0.52446,-0.22554 -0.97401,-0.3759 -1.42355,-0.52626c-0.89908,-0.3759 -1.72324,-0.67662 -2.47248,-0.90216c-1.49847,-0.52626 -2.47248,-0.82698 -2.47248,-0.82698c0,0 0.22477,0.07518 0.67431,0.15036c0.37462,0.07518 1.04893,0.15036 1.79817,0.3759c0.74924,0.22554 1.64832,0.45108 2.5474,0.7518c0.44954,0.15036 0.97401,0.30072 1.42355,0.45108c0.44954,0.15036 0.97401,0.30072 1.42355,0.52626c0.52446,0.22554 0.97401,0.45108 1.42355,0.67662c0.44954,0.30072 0.89908,0.52626 1.34862,0.7518c0.44954,0.22554 0.82416,0.45108 1.19878,0.7518c0.37462,0.30072 0.67431,0.60144 0.97401,0.82698c0.29969,0.22554 0.52447,0.52626 0.74923,0.7518c0.14985,0.22554 0.29969,0.45108 0.44954,0.67662c0.22477,0.45108 0.29969,0.67662 0.29969,0.67662c0,0 -0.07492,-0.22554 -0.29969,-0.60144z" id="Path" fill="#519b3d"/><path d="M282.59633,81.86127c0.14985,0.45108 0.29969,0.97734 0.29969,1.57878c0,0.60144 0,1.27806 -0.29969,1.8795c-0.07492,0.15036 -0.22477,0.30072 -0.29969,0.45108c-0.07492,0.15036 -0.14985,0.22554 -0.22477,0.3759c-0.14985,0.22554 -0.22477,0.52626 -0.29969,0.7518c-0.14985,0.52626 0,1.05252 0.14985,1.42842c0.22477,0.3759 0.44954,0.67662 0.67431,0.82698c0.22477,0.15036 0.37462,0.15036 0.37462,0.15036c0,0 -0.22477,0 -0.44954,-0.07518c-0.22477,-0.07518 -0.59939,-0.30072 -0.82416,-0.7518c-0.22477,-0.45108 -0.37462,-1.05252 -0.29969,-1.65396c0.07492,-0.30072 0.22477,-0.60144 0.37462,-0.90216c0.14985,-0.15036 0.22477,-0.22554 0.29969,-0.3759c0.07492,-0.15036 0.14985,-0.22554 0.22477,-0.3759c0.22477,-0.52626 0.29969,-1.1277 0.29969,-1.65396c0,-0.52626 -0.07492,-1.05252 -0.14985,-1.5036c-0.14985,-0.90216 -0.29969,-1.5036 -0.29969,-1.5036c0,0 0.29969,0.52626 0.44954,1.35324z" id="Path" fill="#519b3d"/><path d="M261.01835,157.19149c-0.37462,-0.07518 -0.89908,-0.22554 -1.5734,-0.30072c-0.67431,-0.07518 -1.49847,-0.15036 -2.47248,-0.22554c-0.44954,-0.07518 -0.97401,-0.07518 -1.49847,-0.07518c-0.52446,-0.07518 -1.04893,-0.07518 -1.64832,-0.07518c-0.52446,0 -1.19878,0 -1.79817,0c-0.59939,0 -1.2737,0.07518 -1.94801,0.07518c-1.34862,0.07518 -2.77217,0.30072 -4.19572,0.45108c-0.67431,0.07518 -1.42355,0.22554 -2.17278,0.3759c-0.74924,0.07518 -1.49847,0.22554 -2.24771,0.3759c-0.74924,0.15036 -1.49847,0.3759 -2.24771,0.52626l-1.12385,0.22554l-1.12385,0.30072c-1.49847,0.45108 -3.07187,0.82698 -4.49541,1.35324c-0.74924,0.22554 -1.42355,0.52626 -2.17278,0.7518c-0.37462,0.15036 -0.67431,0.22554 -1.04893,0.3759c-0.37462,0.15036 -0.67431,0.30072 -1.04893,0.45108c-1.34862,0.52626 -2.62232,1.05252 -3.89602,1.57878c-1.19878,0.52626 -2.39755,1.05252 -3.44648,1.57878c-0.52446,0.22554 -0.97401,0.45108 -1.49847,0.67662c-0.44954,0.22554 -0.89908,0.45108 -1.34862,0.67662c-0.82416,0.45108 -1.57339,0.82698 -2.17278,1.1277c-1.2737,0.60144 -1.94801,0.97734 -1.94801,0.97734c0,0 0.67431,-0.3759 1.87309,-1.05252c0.59939,-0.30072 1.34862,-0.7518 2.17278,-1.20288c0.44954,-0.22554 0.89908,-0.45108 1.34862,-0.7518c0.44954,-0.22554 0.97401,-0.52626 1.49847,-0.7518c1.04893,-0.52626 2.24771,-1.05252 3.44648,-1.65396c1.19878,-0.52626 2.5474,-1.1277 3.89602,-1.65396c0.37462,-0.15036 0.67431,-0.30072 1.04893,-0.45108c0.29969,-0.15036 0.67431,-0.22554 1.04893,-0.3759c0.74924,-0.22554 1.42355,-0.52626 2.17278,-0.7518c1.42355,-0.52626 2.99694,-0.90216 4.49541,-1.35324l1.12385,-0.30072l1.12385,-0.22554c0.74924,-0.22554 1.49847,-0.3759 2.24771,-0.52626c0.74924,-0.15036 1.49847,-0.22554 2.24771,-0.3759c0.74924,-0.15036 1.49847,-0.30072 2.24771,-0.3759c1.49847,-0.15036 2.92202,-0.3759 4.27064,-0.3759c0.67431,0 1.34862,-0.07518 1.94801,-0.07518c0.67431,0 1.2737,0 1.87309,0c1.19878,0.07518 2.24771,0.07518 3.22171,0.22554c0.97401,0.15036 1.79817,0.22554 2.47248,0.3759c0.67431,0.15036 1.19878,0.30072 1.57339,0.3759c0.37462,0.07518 0.52446,0.15036 0.52446,0.15036c0,0 -0.14985,-0.07518 -0.74923,-0.07518z" id="Path" fill="#7d9950"/><path d="M246.18349,116.29365c-0.44954,0.15036 -1.04893,0.45108 -1.79817,0.97734c-0.74924,0.52626 -1.64832,1.20288 -2.5474,2.02986c-0.89908,0.90216 -1.87309,1.8795 -2.92202,3.08237c-2.02294,2.33058 -4.04587,5.33777 -6.06881,8.64568c-1.04893,1.65396 -2.02294,3.38309 -2.99694,5.18741c-1.04893,1.72914 -1.94801,3.60863 -2.92202,5.41295c-1.94801,3.68381 -3.74618,7.36763 -5.3945,10.90108c-1.72324,3.53345 -3.22171,6.76619 -4.49541,9.62302c-1.2737,2.85683 -2.32263,5.18741 -3.07187,6.84137c-0.67431,1.65396 -1.12385,2.63129 -1.12385,2.63129c0,0 0.37462,-0.97734 1.04893,-2.63129c0.67431,-1.65396 1.72324,-4.05971 2.92202,-6.91655c0.59939,-1.42842 1.2737,-2.93201 2.02294,-4.58597c0.74924,-1.65396 1.49847,-3.38309 2.32263,-5.11223c1.64832,-3.53345 3.44648,-7.29245 5.31957,-10.97626c0.44954,-0.97734 0.89908,-1.8795 1.42355,-2.78165c0.52446,-0.90216 0.97401,-1.80432 1.49847,-2.70647c0.97401,-1.80432 1.94801,-3.53345 2.99694,-5.18741c0.97401,-1.65396 2.02294,-3.23273 3.07187,-4.66115c1.04893,-1.42842 2.09786,-2.70647 3.14679,-3.90935c2.09786,-2.33058 4.04587,-3.98453 5.61927,-4.96187c0.74924,-0.52626 1.42355,-0.82698 1.87309,-0.97734c0.44954,-0.15036 0.67431,-0.22554 0.67431,-0.22554c0,0 -0.29969,0 -0.59939,0.30072z" id="Path" fill="#519b3d"/><path d="M186.61927,128.69832c-0.07492,-0.30072 -0.29969,-0.67662 -0.52446,-1.05252c-0.22477,-0.3759 -0.44954,-0.82698 -0.82416,-1.27806c-0.29969,-0.45108 -0.67431,-0.90216 -1.12385,-1.35324c-0.44954,-0.3759 -0.89908,-0.90216 -1.49847,-1.27806c-0.52446,-0.45108 -1.19878,-0.7518 -1.79817,-1.1277c-0.29969,-0.22554 -0.67431,-0.30072 -0.97401,-0.45108c-0.37462,-0.07518 -0.67431,-0.30072 -1.04893,-0.3759l-1.04893,-0.30072c-0.29969,-0.07518 -0.67431,-0.22554 -1.04893,-0.22554c-0.37462,-0.07518 -0.67431,-0.07518 -1.04893,-0.15036l-0.52446,-0.07518c-0.14985,0 -0.37462,0 -0.52446,0c-0.74924,0 -1.34862,-0.07518 -2.02294,-0.07518c-0.67431,0.07518 -1.2737,0.07518 -1.79817,0.15036c-0.29969,0 -0.59939,0.07518 -0.82416,0.07518c-0.29969,0.07518 -0.52446,0.07518 -0.74924,0.15036c-0.44954,0.07518 -0.89908,0.15036 -1.19878,0.22554c-0.67431,0.07518 -1.04893,0.15036 -1.04893,0.15036c0,0 0.37462,-0.07518 0.97401,-0.22554c0.29969,-0.07518 0.67431,-0.22554 1.12385,-0.30072c0.14985,0 0.44954,-0.07518 0.67431,-0.15036c0.29969,0 0.52446,0 0.82416,-0.07518c0.52446,-0.07518 1.12385,-0.15036 1.79817,-0.22554c0.59939,0 1.34862,0 2.02294,0c0.14985,0 0.37462,0 0.52446,0l0.52446,0.07518c0.37462,0.07518 0.74924,0.07518 1.12385,0.15036c0.37462,0 0.74924,0.15036 1.12385,0.22554l1.12385,0.30072c0.37462,0.15036 0.67431,0.30072 1.04893,0.45108c0.37462,0.15036 0.74924,0.22554 1.04893,0.45108c0.59939,0.3759 1.2737,0.7518 1.79817,1.20288c0.59939,0.45108 1.04893,0.97734 1.49847,1.42842c0.37462,0.45108 0.82416,0.97734 1.12385,1.42842c0.29969,0.45108 0.52446,0.97734 0.74924,1.35324c0.14985,0.3759 0.29969,0.7518 0.44954,1.05252c0.22477,0.60144 0.29969,0.97734 0.29969,0.97734c0,0 -0.07492,-0.3759 -0.22477,-1.1277z" id="Path" fill="#7d9950"/><path d="M211.41896,153.95875c-0.22477,-0.30072 -0.44954,-0.7518 -0.74924,-1.1277c-0.14985,-0.22554 -0.37462,-0.45108 -0.52446,-0.67662c-0.14985,-0.22554 -0.37462,-0.45108 -0.59939,-0.67662c-0.14985,-0.22554 -0.44954,-0.45108 -0.67431,-0.67662c-0.29969,-0.22554 -0.52446,-0.45108 -0.82416,-0.67662c-0.29969,-0.22554 -0.59939,-0.45108 -0.89908,-0.67662c-0.29969,-0.22554 -0.59939,-0.3759 -0.97401,-0.60144c-0.14985,-0.07518 -0.37462,-0.22554 -0.52446,-0.30072c-0.14985,-0.07518 -0.29969,-0.15036 -0.52446,-0.22554c-0.37462,-0.15036 -0.74924,-0.30072 -1.12385,-0.45108c-0.37462,-0.07518 -0.82416,-0.22554 -1.19878,-0.30072l-0.59939,-0.15036c-0.14985,0 -0.37462,-0.07518 -0.59939,-0.07518c-0.82416,-0.07518 -1.64832,-0.22554 -2.47248,-0.22554c-0.89908,0 -1.64832,-0.07518 -2.47248,0.07518c-0.44954,0.07518 -0.82416,0.15036 -1.19878,0.15036c-0.37462,0.07518 -0.74924,0.07518 -1.12385,0.15036c-0.74924,0.15036 -1.42355,0.22554 -2.02294,0.3759c-0.67431,0.15036 -1.19878,0.30072 -1.72324,0.45108c-0.44954,0.15036 -0.89908,0.30072 -1.2737,0.3759c-0.74924,0.15036 -1.12385,0.30072 -1.12385,0.30072c0,0 0.44954,-0.15036 1.12385,-0.3759c0.37462,-0.15036 0.74924,-0.30072 1.2737,-0.45108c0.44954,-0.15036 1.04893,-0.3759 1.64832,-0.52626c0.59939,-0.15036 1.2737,-0.30072 2.02294,-0.45108c0.74924,-0.15036 1.49847,-0.22554 2.32263,-0.30072c0.74924,-0.15036 1.64832,-0.07518 2.47248,-0.07518c0.82416,-0.07518 1.72324,0.15036 2.5474,0.22554c0.22477,0 0.44954,0 0.67431,0.07518l0.59939,0.15036c0.44954,0.15036 0.89908,0.22554 1.2737,0.3759c0.44954,0.22554 0.82416,0.3759 1.19878,0.52626c0.22477,0.07518 0.37462,0.15036 0.59939,0.22554c0.14985,0.07518 0.37462,0.22554 0.52446,0.30072c0.37462,0.15036 0.74924,0.3759 1.04893,0.60144c0.29969,0.22554 0.59939,0.45108 0.89908,0.67662c0.29969,0.22554 0.59939,0.52626 0.82416,0.7518c0.22477,0.30072 0.44954,0.52626 0.67431,0.7518c0.22477,0.30072 0.37462,0.52626 0.59939,0.7518c0.14985,0.22554 0.29969,0.45108 0.44954,0.67662c0.29969,0.45108 0.52446,0.90216 0.67431,1.20288c0.29969,0.67662 0.44954,1.05252 0.44954,1.05252c0,0 -0.14985,-0.45108 -0.67431,-1.20288z" id="Path" fill="#7d9950"/><path d="M235.31957,97.12278c-0.89908,0.22554 -2.17278,0.60144 -3.67125,1.05252c-0.74924,0.22554 -1.49847,0.52626 -2.32263,0.90216c-0.82416,0.3759 -1.57339,0.90216 -2.39755,1.42842c-1.57339,1.05252 -3.14679,2.40576 -4.64526,3.90935c-1.49847,1.42842 -2.92202,3.00719 -4.27064,4.43561c-1.2737,1.42842 -2.5474,2.85683 -3.59633,3.98453c-2.09786,2.33058 -3.52141,3.90935 -3.52141,3.90935c0,0 1.2737,-1.65396 3.29664,-4.05971c1.04893,-1.20288 2.17278,-2.63129 3.52141,-4.05971c1.2737,-1.5036 2.69725,-3.00719 4.19572,-4.51079c1.57339,-1.42842 3.14679,-2.78165 4.79511,-3.90935c0.82416,-0.52626 1.64832,-1.05252 2.47248,-1.42842c0.82416,-0.3759 1.64832,-0.60144 2.39755,-0.82698c1.49847,-0.45108 2.77217,-0.67662 3.67125,-0.82698c0.89908,-0.15036 1.42355,-0.22554 1.42355,-0.22554c0,0 -0.52446,0.07518 -1.34862,0.22554z" id="Path" fill="#519b3d"/><path d="M162.71865,125.31523c0.97401,-0.90216 2.39755,-2.2554 4.1208,-3.83417c1.72324,-1.57878 3.74618,-3.38309 5.91896,-5.33777c2.17278,-1.95468 4.49541,-3.98453 6.81804,-6.01439c2.32263,-2.02986 4.72018,-4.05971 6.96789,-5.86403c2.24771,-1.80432 4.42049,-3.45827 6.29358,-4.88669c0.89908,-0.67662 1.79817,-1.35324 2.5474,-1.8795c0.74924,-0.52626 1.42355,-0.97734 2.02294,-1.35324c1.12385,-0.7518 1.79817,-1.1277 1.79817,-1.1277c0,0 -0.67431,0.45108 -1.79817,1.20288c-0.52446,0.3759 -1.19878,0.90216 -1.94801,1.42842c-0.74924,0.60144 -1.57339,1.27806 -2.47248,1.95468c-1.79817,1.42842 -3.89602,3.15755 -6.14373,5.03705c-2.24771,1.80432 -4.64526,3.83417 -6.96789,5.86403c-2.39755,1.95468 -4.72018,4.05971 -6.89297,5.93921c-2.17278,1.95468 -4.27064,3.75899 -5.99388,5.26259c-3.52141,3.08237 -5.84404,5.11223 -5.84404,5.11223c0,0 0.59939,-0.52626 1.57339,-1.5036z" id="Path" fill="#519b3d"/></g></g></g></svg>