<svg xmlns="http://www.w3.org/2000/svg" xmlns:xlink="http://www.w3.org/1999/xlink" width="130.6446075439453" height="162.9487762451172" viewBox="17.197505950927734 2.681241750717163 130.6446075439453 162.9487762451172" version="1.1" xml:space="preserve">
  <defs/>
  <g>
    <title>rabbit-e</title>
    <desc>Created with Sketch.</desc>
    <g id="forest" stroke="none" fill-rule="evenodd">
      <g id="rabbit-e" fill-rule="nonzero">
        <g id="Rabbit5">
          <g id="tail">
            <ellipse id="Oval" fill="#B5C5C1" transform="matrix(0.5070944111392164,-0.8618905140395567,0.8618905140395567,0.5070944111392164,11.792955793773853,109.8878418553625)" cx="15.262539" cy="14.7698983" rx="10.660807" ry="10.6266363" stroke-width="1"/>
            <path d="M 30.0097 109.1751 C 30.5517 109.1751 31.0938 109.1751 31.6359 109.1751 C 32.449 109.1751 32.449 107.9144 31.6359 107.9144 C 31.0938 107.9144 30.5517 107.9144 30.0097 107.9144 C 29.1966 107.9144 29.1966 109.1751 30.0097 109.1751 Z " id="Shape" fill="#CBD7D4" stroke-width="1"/>
            <path d="M 29.829 112.5972 C 30.371 112.4171 30.9131 112.3271 31.4552 112.147 C 32.1779 111.8768 31.9069 110.7061 31.0938 110.9762 C 30.5517 111.1564 30.0097 111.3365 29.4676 111.4265 C 28.6545 111.6066 29.0159 112.7773 29.829 112.5972 Z " id="Shape" fill="#CBD7D4" stroke-width="1"/>
            <path d="M 29.0159 103.8619 C 29.7386 104.4022 30.7324 104.9425 31.6359 105.2127 C 32.449 105.3928 32.72 104.2221 31.9972 104.042 C 31.6359 103.9519 31.2745 103.7718 30.9131 103.5917 C 30.7324 103.5017 30.5517 103.4116 30.2807 103.2315 C 30.1903 103.1414 30.1 103.1414 30.0097 103.0514 C 30.0097 103.0514 29.829 102.8713 29.829 102.9613 C 29.5579 102.7812 29.1966 102.6912 28.9255 102.9613 C 28.8352 103.1414 28.7448 103.5917 29.0159 103.8619 Z " id="Shape" fill="#CBD7D4" stroke-width="1"/>
            <path d="M 31.8166 101.1602 C 32.3586 101.6105 32.991 102.1508 33.6234 102.6011 C 33.8945 102.7812 34.3462 102.6011 34.4366 102.421 C 34.6172 102.0608 34.4366 101.7906 34.2559 101.6105 C 33.7138 101.2503 33.2621 100.8 32.72 100.3497 C 32.449 100.1696 32.0876 100.0796 31.8166 100.3497 C 31.6359 100.5298 31.5455 100.9801 31.8166 101.1602 Z " id="Shape" fill="#CBD7D4" stroke-width="1"/>
            <path d="M 35.1593 98.4586 C 35.34 99.179 35.7917 99.8094 36.3338 100.3497 C 36.8759 100.8901 37.7793 99.9895 37.2372 99.4492 C 36.8759 99.089 36.5145 98.6387 36.4241 98.0983 C 36.1531 97.3779 34.9786 97.6481 35.1593 98.4586 Z " id="Shape" fill="#CBD7D4" stroke-width="1"/>
            <path d="M 38.7731 100.2597 C 38.9538 100.8 39.2248 101.3403 39.4959 101.8807 C 39.8572 102.6011 40.9414 101.9707 40.58 101.2503 C 40.309 100.8 40.1283 100.3497 39.9476 99.8994 C 39.7669 99.179 38.5924 99.5392 38.7731 100.2597 Z " id="Shape" fill="#CBD7D4" stroke-width="1"/>
            <path d="M 24.0469 105.3928 C 24.86 105.753 25.6731 105.9331 26.4862 106.2934 C 26.7572 106.3834 27.209 106.1133 27.209 105.8431 C 27.2993 105.4829 27.1186 105.2127 26.7572 105.1227 C 26.0345 104.8525 25.3117 104.6724 24.589 104.4022 C 23.9566 104.042 23.3241 105.0326 24.0469 105.3928 Z " id="Shape" fill="#CBD7D4" stroke-width="1"/>
            <path d="M 24.4986 101.1602 C 25.0407 101.5204 25.6731 101.9707 26.2152 102.421 C 26.4862 102.6011 26.8476 102.6912 27.1186 102.421 C 27.2993 102.2409 27.3897 101.7906 27.1186 101.5204 C 26.4862 101.0702 25.8538 100.5298 25.131 100.0796 C 24.86 99.8994 24.4083 99.9895 24.3179 100.2597 C 24.1372 100.6199 24.2276 100.8901 24.4986 101.1602 Z " id="Shape" fill="#CBD7D4" stroke-width="1"/>
            <path d="M 27.3897 98.0983 C 28.2028 98.9088 28.9255 99.7193 29.829 100.3497 C 30.4614 100.8 31.0938 99.7193 30.4614 99.2691 C 29.6483 98.7287 29.0159 97.9182 28.2931 97.1978 C 27.6607 96.6575 26.8476 97.468 27.3897 98.0983 Z " id="Shape" fill="#CBD7D4" stroke-width="1"/>
            <path d="M 31.0034 95.7569 C 31.1841 95.937 31.3648 96.1171 31.4552 96.2972 C 31.9972 96.8376 32.9007 96.0271 32.3586 95.3967 C 32.1779 95.2166 31.9972 95.0365 31.9069 94.8564 C 31.3648 94.316 30.4614 95.2166 31.0034 95.7569 Z " id="Shape" fill="#CBD7D4" stroke-width="1"/>
            <path d="M 24.3179 110.616 C 24.9503 110.616 25.6731 110.616 26.3055 110.616 C 27.1186 110.616 27.1186 109.3552 26.3055 109.3552 C 25.6731 109.3552 24.9503 109.3552 24.3179 109.3552 C 23.5048 109.3552 23.5048 110.616 24.3179 110.616 Z " id="Shape" fill="#CBD7D4" stroke-width="1"/>
            <path d="M 34.0752 108.8149 C 34.7076 108.8149 35.34 108.905 35.8821 108.995 C 36.2434 109.0851 36.5145 108.905 36.6048 108.5448 C 36.6952 108.2746 36.5145 107.8243 36.1531 107.8243 C 35.4303 107.7343 34.7076 107.6442 33.9848 107.5541 C 33.2621 107.5541 33.2621 108.7249 34.0752 108.8149 Z " id="Shape" fill="#CBD7D4" stroke-width="1"/>
            <path d="M 34.4366 112.237 C 34.7979 112.237 35.069 112.147 35.4303 112.0569 C 35.7014 111.9669 35.9724 111.6066 35.8821 111.3365 C 35.7917 111.0663 35.4303 110.7961 35.1593 110.8862 C 34.9786 110.9762 34.7076 111.0663 34.5269 111.0663 C 33.6234 111.0663 33.6234 112.3271 34.4366 112.237 Z " id="Shape" fill="#CBD7D4" stroke-width="1"/>
            <path d="M 34.4366 104.8525 C 34.8883 105.4829 35.4303 106.1133 36.0628 106.6536 C 36.6048 107.1939 37.5083 106.2934 36.9662 105.753 C 36.4241 105.3028 35.9724 104.7624 35.611 104.2221 C 35.4303 103.9519 35.069 103.8619 34.7979 104.042 C 34.3462 104.2221 34.1655 104.5823 34.4366 104.8525 Z " id="Shape" fill="#CBD7D4" stroke-width="1"/>
            <path d="M 37.2372 103.5017 C 37.4179 103.7718 37.5986 104.042 37.7793 104.3122 C 38.231 105.0326 39.2248 104.4022 38.8634 103.6818 C 38.6828 103.4116 38.5021 103.1414 38.3214 102.8713 C 37.8697 102.2409 36.7855 102.8713 37.2372 103.5017 Z " id="Shape" fill="#CBD7D4" stroke-width="1"/>
          </g>
          <g id="paw_front2">
            <path d="M 105.7186 120.1619 C 104.9959 116.3796 105.2669 112.5972 105.809 108.7249 C 106.9834 100.2597 126.4076 87.1116 128.6662 94.8564 C 131.0152 103.0514 130.1117 117.1 127.311 125.5652 C 125.9559 129.7077 130.1117 140.7845 130.1117 140.7845 L 136.7972 142.8558 C 138.2428 144.0265 139.6883 145.2873 139.9593 147.0884 C 140.2303 148.5293 137.52 149.5199 133.9062 147.2685 C 136.2552 150.0602 132.9124 150.0602 130.7441 149.7901 C 125.5041 149.2497 120.2641 143.126 119.3607 141.8652 C 116.6503 138.353 107.3448 128.2669 105.7186 120.1619 Z " id="Shape" stroke-width="1" fill="#B5C5C1"/>
          </g>
          <g id="paw_back2">
            <path d="M 65.6959 144.6569 C 60.9979 139.884 67.8641 139.0735 67.5931 134.4807 C 67.051 125.9254 50.789 123.1337 52.1441 112.237 C 53.409 102.0608 70.8455 99.7193 77.8924 100.1696 C 87.3786 100.8 96.3228 105.3928 103.8214 111.8768 C 109.3324 116.6497 110.4166 123.8541 104.9959 128.7171 C 99.9366 133.3099 95.1483 135.2912 89.9083 139.3436 C 93.7028 141.4149 100.3883 138.6232 104.8152 138.7133 C 106.2607 138.7133 108.7 137.9928 110.7779 138.4431 C 113.1269 138.8934 114.9338 140.6945 116.1986 141.9552 C 119.5414 145.1072 113.0366 145.2873 110.7779 145.5575 C 124.149 149.7 92.0766 149.7 88.011 148.7094 C 88.011 148.7994 67.5931 146.6381 65.6959 144.6569 Z " id="Shape" stroke-width="1" fill="#B5C5C1"/>
          </g>
          <path d="M 108.2483 133.6702 C 103.46 140.4243 85.4814 150.3304 77.7117 151.6812 C 65.0634 153.9326 37.689 146.9083 35.7014 123.4939 C 33.6234 99.3591 53.5897 81.258 76.8083 81.0779 C 100.0269 80.8978 101.4724 83.4193 104.0021 75.7646 C 104.7248 73.4232 109.1517 63.7873 109.9648 61.5359 C 111.32 57.7536 123.1552 63.7873 127.04 63.6972 C 136.1648 63.5171 132.0993 52.2602 140.3207 73.3331 C 147.729 92.2448 143.3924 111.1564 127.8531 125.205 L 108.2483 133.6702 Z " id="Shape" fill="#CBD7D4" stroke-width="1"/>
          <g id="pwa_front1">
            <path d="M 96.5938 129.9779 C 96.0517 126.1956 96.6841 122.3232 97.4069 118.5409 C 99.1234 110.1657 129.931 95.3066 131.5572 103.2315 C 133.3641 111.6066 121.6193 132.8597 118.0959 136.9122 C 115.2952 140.2442 120.4448 149.8801 120.4448 149.8801 L 127.6724 153.7525 C 129.0276 155.0133 129.5697 157.3547 128.8469 158.7055 C 128.2145 160.0564 126.3172 160.4166 122.8841 157.9851 C 125.0524 160.9569 121.7097 160.5967 119.5414 160.3265 C 114.0303 159.6961 109.4228 153.9326 108.6097 152.6718 C 106.4414 148.8895 97.6779 138.1729 96.5938 129.9779 Z " id="Shape" fill="#CBD7D4" stroke-width="1"/>
            <path d="M 123.7876 159.516 C 123.3359 157.5348 121.8903 155.7337 119.9931 154.9232 C 119.2703 154.563 118.6379 155.6436 119.3607 156.0039 C 120.9869 156.7243 122.2517 158.1652 122.6131 159.8762 C 122.7938 160.5967 123.9683 160.2365 123.7876 159.516 Z " id="Shape" fill="#B5C5C1" stroke-width="1"/>
          </g>
          <g id="head_x2B_ears">
            <g id="ears">
              <path d="M 126.6786 68.4702 C 116.7407 64.4177 105.8993 40.463 102.5566 29.9265 C 98.9428 18.5796 99.8462 3.3602 99.8462 3.3602 C 105.2669 1.0188 117.4634 22.2718 121.1676 30.9171 C 126.5883 43.5249 133.9062 57.7536 135.8034 71.6221 L 126.6786 68.4702 Z " id="Shape" fill="#B5C5C1" stroke-width="1"/>
              <path d="M 119.9028 61.1757 C 107.2545 67.8398 87.5593 62.4365 74.0979 57.3934 C 70.3034 55.9525 65.8766 53.3409 61.54 50.3691 C 55.5772 46.1365 49.7952 41.0934 46.2717 37.0409 C 40.851 30.9171 73.5559 34.3392 83.0421 37.5812 C 98.9428 43.0746 117.5538 50.3691 128.7566 62.0762 L 119.9028 61.1757 Z " id="Shape" fill="#C9D8D5" stroke-width="1"/>
            </g>
            <g id="head">
              <path d="M 138.6041 90.6238 C 131.8283 94.9464 122.6131 90.2635 114.7531 87.742 C 98.9428 82.6989 94.6966 53.521 115.9276 46.5867 C 135.3517 40.1928 147.4579 66.1287 145.651 79.3669 C 143.8441 92.605 138.6041 90.6238 138.6041 90.6238 Z " id="Shape" fill="#B5C5C1" stroke-width="1"/>
              <path d="M 113.0366 89.7232 C 101.3821 79.7271 97.5876 54.6917 117.2828 46.4967 C 136.8876 38.3917 149.2648 64.5077 147.0966 79.4569 C 147.0966 79.4569 145.9221 90.3536 136.1648 94.4061 C 125.4138 98.8188 122.071 97.468 113.0366 89.7232 Z " id="Shape" fill="#C9D8D5" stroke-width="1"/>
              <g id="face">
                <g id="Group">
                  <ellipse id="Oval" fill="#3C4F45" transform="matrix(0.9777877767700625,-0.20959738452342005,0.20959738452342005,0.9777877767700625,109.28865346502958,63.24658436154783)" cx="2.98721559" cy="8.28407425" rx="1.98761105" ry="2.52157848" stroke-width="1"/>
                  <g id="Shape">
                    <g>
                      <path d="M 130.9248 80.3575 C 131.7379 80.7177 132.9124 81.168 133.9062 80.8077 C 134.8097 80.4475 134.9 79.7271 135.171 78.9166 C 135.4421 78.1061 134.1772 77.7459 133.9062 78.5564 C 133.8159 78.9166 133.8159 79.3669 133.4545 79.547 C 133.0028 79.7271 132.0993 79.3669 131.6476 79.1867 C 130.8345 78.8265 130.1117 79.9972 130.9248 80.3575 Z " stroke-width="1" fill="#3C4F45"/>
                      <path d="M 132.7317 80.3575 C 133.0931 81.7983 133.2738 83.3293 133.1834 84.8602 C 133.0931 85.7608 134.4483 85.6707 134.5386 84.8602 C 134.7193 83.2392 134.4483 81.5282 134.0869 79.9972 C 133.8159 79.1867 132.4607 79.547 132.7317 80.3575 Z " stroke-width="1" fill="#3C4F45"/>
                      <path d="M 130.2924 84.7702 C 131.7379 86.3011 135.4421 85.8508 136.7069 84.3199 C 137.249 83.6895 136.2552 82.6989 135.8034 83.4193 C 134.9903 84.4099 132.28 84.9503 131.2862 83.8696 C 130.6538 83.1492 129.7503 84.1398 130.2924 84.7702 Z " stroke-width="1" fill="#3C4F45"/>
                    </g>
                    <path d="M 121.6193 78.1061 C 119.8124 78.2862 118.0959 78.9166 116.56 79.8171 C 115.8372 80.1773 116.4697 81.258 117.1924 80.8978 C 118.5476 80.0873 120.0834 79.547 121.6193 79.3669 C 122.4324 79.1867 122.4324 78.016 121.6193 78.1061 Z " fill="#B5C5C1" stroke-width="1"/>
                    <path d="M 119.6317 82.0685 C 118.4572 82.6088 117.3731 83.1492 116.289 83.9597 C 115.6566 84.4099 116.289 85.4906 116.9214 85.0403 C 117.9152 84.3199 119.0897 83.6895 120.2641 83.1492 C 120.8966 82.7889 120.2641 81.7083 119.6317 82.0685 Z " fill="#B5C5C1" stroke-width="1"/>
                    <path d="M 141.9469 75.3144 C 143.031 74.8641 144.2055 74.4138 145.2897 74.0536 C 146.0124 73.7834 145.7414 72.6127 144.9283 72.8829 C 143.7538 73.3331 142.489 73.7834 141.3145 74.3238 C 140.5917 74.5039 141.2241 75.5845 141.9469 75.3144 Z " fill="#B5C5C1" stroke-width="1"/>
                    <path d="M 142.76 77.5657 C 143.4828 77.5657 144.2959 77.4757 145.0186 77.4757 C 145.8317 77.4757 145.8317 76.2149 145.0186 76.2149 C 144.2959 76.2149 143.4828 76.305 142.76 76.305 C 141.9469 76.395 141.9469 77.5657 142.76 77.5657 Z " fill="#B5C5C1" stroke-width="1"/>
                    <path d="M 123.3359 82.6088 C 122.3421 83.6895 121.4386 84.6801 120.5352 85.7608 C 119.9931 86.3912 120.8966 87.2017 121.4386 86.6613 C 122.3421 85.5807 123.3359 84.5 124.2393 83.5094 C 124.7814 82.879 123.8779 82.0685 123.3359 82.6088 Z " fill="#B5C5C1" stroke-width="1"/>
                    <path d="M 142.3986 79.7271 C 143.3021 79.9072 144.2055 80.3575 145.1993 80.2674 C 146.0124 80.1773 146.0124 78.9166 145.1993 79.0066 C 144.2959 79.0967 143.5731 78.7365 142.76 78.5564 C 141.9469 78.3762 141.6759 79.547 142.3986 79.7271 Z " fill="#B5C5C1" stroke-width="1"/>
                  </g>
                  <path d="M 136.8876 65.9486 C 138.7848 66.2188 140.6821 65.7685 141.4952 63.8773 C 141.8566 63.0669 140.6821 62.4365 140.3207 63.247 C 139.7786 64.5077 138.5138 64.868 137.249 64.6878 C 136.3455 64.5978 135.9841 65.8586 136.8876 65.9486 Z " id="Shape" fill="#3C4F45" stroke-width="1"/>
                </g>
                <path d="M 110.1455 63.337 C 110.0552 62.8867 110.4166 62.3464 110.6876 61.9862 C 111.1393 61.4459 111.6814 61.1757 112.3138 61.1757 C 113.1269 61.1757 113.1269 60.005 112.3138 59.9149 C 110.5069 59.8249 108.7 61.8061 108.971 63.6072 C 109.1517 64.4177 110.3262 64.1475 110.1455 63.337 Z " id="Shape" fill="#B5C5C1" stroke-width="1"/>
                <path d="M 134.8097 57.3934 C 135.8938 56.763 136.6166 56.5829 137.8814 56.9431 C 138.6041 57.2133 138.9655 56.0425 138.2428 55.7724 C 136.7069 55.3221 135.5324 55.5923 134.2676 56.3127 C 133.5448 56.763 134.1772 57.8436 134.8097 57.3934 Z " id="Shape" fill="#B5C5C1" stroke-width="1"/>
              </g>
            </g>
          </g>
          <g id="paw_back1">
            <path d="M 49.8855 157.4448 C 45.549 152.3116 52.5055 152.0414 52.5959 147.4486 C 52.7766 138.8934 37.2372 130.4282 39.4055 119.6215 C 41.4834 109.5354 58.1069 110.4359 64.9731 111.5166 C 74.369 112.8674 85.8428 122.9536 92.7993 130.068 C 97.8586 135.2912 98.4007 142.4956 92.6186 146.9083 C 87.1979 151.0508 79.9703 150.5105 74.369 154.1127 C 77.9828 156.4541 84.849 154.2028 89.2759 154.7431 C 90.7214 154.9232 93.251 154.3829 95.2386 154.9232 C 97.4972 155.5536 99.1234 157.5348 100.3883 158.8856 C 103.46 162.3077 96.9552 162.0376 94.6966 162.0376 C 107.7062 167.1707 75.7241 164.6492 71.749 163.3884 C 71.8393 163.3884 51.6924 159.516 49.8855 157.4448 Z " id="Shape" fill="#CBD7D4" stroke-width="1"/>
            <g id="Group">
              <path d="M 65.0634 111.5166 C 73.6462 112.7773 84.1262 121.4227 91.1731 128.3569 C 84.4876 116.9199 71.0262 109.8055 61.1786 110.3459 C 57.5648 110.526 54.6738 110.7961 52.3248 111.2464 C 57.1131 110.616 61.9917 111.0663 65.0634 111.5166 Z " id="Shape" stroke-width="1" fill="#B5C5C1"/>
              <path d="M 92.6186 161.7674 C 94.4255 162.1276 95.7807 162.758 96.8648 164.1989 C 97.3166 164.8293 98.4007 164.1989 97.949 163.5685 C 97.3166 162.758 96.6841 161.9475 95.7807 161.4972 C 94.8772 161.047 93.8834 160.7768 92.98 160.5967 C 92.1669 160.4166 91.8959 161.6773 92.6186 161.7674 Z " id="Shape" stroke-width="1" fill="#B5C5C1"/>
            </g>
          </g>
        </g>
      </g>
    </g>
  </g>
</svg>