<svg xmlns="http://www.w3.org/2000/svg" xmlns:xlink="http://www.w3.org/1999/xlink" width="80.08220092773438" height="54.04515640258789" viewBox="0.45890001296997074 0.4571444177627564 80.08220092773438 54.04515640258789" version="1.1" xml:space="preserve">
  <!-- Generator: Sketch 50.2 (55047) - http://www.bohemiancoding.com/sketch -->
  <defs/>
  <g>
    <title>Slice 1</title>
    <desc>Created with Sketch.</desc>
    <g id="Page-1" stroke="none" fill-rule="evenodd">
      <g id="hat-d-[people,fashion,hat]">
        <g id="Brim">
          <path d="M 72.1 37.823 C 75.3198 31.6075 73.3688 25.7775 68.8442 21.4773 C 61.6624 17.8636 51.6558 15.563 40.5 15.563 C 18.9545 15.563 1.4189 24.067 1.4189 34.5466 C 1.4189 45.0261 18.9545 53.5423 40.5 53.5423 C 41.8526 53.5423 43.1812 53.5423 44.4979 53.4459 C 54.2532 51.3139 67.4079 46.845 72.1 37.823 Z " id="Shape" fill="#FFF2BB" fill-rule="nonzero" stroke-width="1"/>
          <path d="M 79.5811 34.5466 C 79.5811 29.4875 75.4994 24.9102 68.8083 21.4773 C 73.3329 25.8016 75.2839 31.6075 72.0641 37.823 C 67.372 46.845 54.2173 51.3139 44.462 53.482 C 64.2 52.4702 79.5811 44.3636 79.5811 34.5466 Z " id="Shape" fill="#FFFFFF" fill-rule="nonzero" stroke-width="1"/>
          <path d="M 68.8442 21.4773 C 61.6624 17.8636 51.6558 15.563 40.5 15.563 C 18.9545 15.563 1.4189 24.067 1.4189 34.5466 C 1.4189 45.0261 18.9545 53.5423 40.5 53.5423 C 41.8526 53.5423 43.1812 53.5423 44.4979 53.4459 C 64.2 52.4702 79.5811 44.3877 79.5811 34.5466 C 79.5811 29.4875 75.4994 24.8861 68.8442 21.4773 Z " id="Shape" stroke="#5E154D" stroke-width="0.96" stroke-linecap="round" stroke-linejoin="round" fill="none"/>
          <path d="M 24.9394 48.4952 C 25.885 48.712 26.8545 48.9168 27.872 49.0734 " id="Shape" stroke="#EFDC8F" stroke-width="1.92" stroke-linecap="round" stroke-linejoin="round" fill="none"/>
          <path d="M 9.0197 41.1234 C 12.6055 43.9116 16.6598 46.029 20.9894 47.375 " id="Shape" stroke="#EFDC8F" stroke-width="1.92" stroke-linecap="round" stroke-linejoin="round" fill="none"/>
        </g>
        <path d="M 40.5 34.5466 C 28.3867 34.5466 20.7261 30.7402 17.1471 28.3793 C 16.4529 32.1255 16.0818 34.7273 16.0818 34.7273 C 18.4333 36.9887 21.2601 38.6889 24.3529 39.702 C 29.5477 41.4245 33.4738 41.9545 40.5 41.9545 C 47.5262 41.9545 51.4523 41.4486 56.6471 39.7261 C 59.7421 38.7059 62.5691 36.9973 64.9182 34.7273 C 64.9182 34.7273 64.5471 32.1255 63.8768 28.3793 C 60.2979 30.7402 52.6373 34.5345 40.5 34.5466 Z " id="Shape" stroke="#5E154D" stroke-width="0.96" fill="#5E154D" fill-rule="nonzero" stroke-linecap="round" stroke-linejoin="round"/>
        <g id="Dome">
          <path d="M 34.9221 24.573 C 48.5197 27.5 55.8092 3.2164 55.8092 3.2164 C 53.1041 0.1086 49.4174 1.5661 46.9995 4.1318 C 45.2879 5.9989 43.0256 6.4205 40.5 6.4205 C 37.9744 6.4205 35.7121 5.9989 34.0005 4.1318 C 32.8434 2.8286 31.3125 1.9194 29.6195 1.53 C 27.5727 9.4318 25.4182 22.5252 34.9221 24.573 Z " id="Shape" fill="#FFFFFF" fill-rule="nonzero" stroke-width="1"/>
          <path d="M 53.6667 1.7107 C 51.7994 10.6364 46.0779 26.705 34.9221 23.8864 C 25.49 21.4773 27.848 10.7448 29.6195 1.4939 C 27.9472 1.1914 26.2452 1.8395 25.1908 3.1802 C 21.5998 7.2757 18.9665 18.6105 17.4703 26.5123 C 17.3386 27.1507 17.2309 27.7168 17.1232 28.3432 C 20.7141 30.7523 28.3627 34.4984 40.4761 34.5105 C 52.5894 34.5105 60.25 30.7041 63.8289 28.3432 C 63.7212 27.753 63.6135 27.1386 63.4938 26.5123 C 63.2424 24.9102 59.0291 2.9755 53.6667 1.7107 Z " id="Shape" fill="#FFF2BB" fill-rule="nonzero" stroke-width="1"/>
          <path d="M 63.5417 26.5484 C 63.2185 24.9102 62.8594 23.1275 62.4524 21.2966 C 60.8844 14.262 58.6221 6.4566 55.8092 3.2284 C 52.9964 0.0002 49.4174 1.5782 46.9995 4.1439 C 45.2879 5.9989 43.0256 6.4205 40.5 6.4205 C 37.9744 6.4205 35.7121 5.9989 34.0005 4.1318 C 32.8434 2.8286 31.3125 1.9194 29.6195 1.53 C 27.9472 1.2275 26.2452 1.8756 25.1908 3.2164 C 21.5998 7.3118 18.9665 18.6466 17.4703 26.5484 C 17.3386 27.1868 17.2309 27.753 17.1232 28.3793 C 20.7141 30.7884 28.3627 34.5345 40.4761 34.5466 C 52.5894 34.5466 60.25 30.7402 63.8289 28.3793 C 63.7691 27.7891 63.6614 27.1868 63.5417 26.5484 Z " id="Shape" stroke="#5E154D" stroke-width="0.96" stroke-linecap="round" stroke-linejoin="round" fill="none"/>
        </g>
      </g>
    </g>
  </g>
</svg>