<svg xmlns="http://www.w3.org/2000/svg" xmlns:xlink="http://www.w3.org/1999/xlink" version="1.1" width="150.8021697998047" height="191.08033752441406" viewBox="-0.2491830587387085 -0.08335632085800171 150.8021697998047 191.08033752441406">
  <!-- Exported by Scratch - http://scratch.mit.edu/ -->
  <g id="ID0.07685805298388004">
    <g id="Page-1">
      <g id="outfielder-d-[baseball,sports,people,alex-eben-meyer]">
        <g id="Group-2">
          <g id="Face">
            <path id="Shape" fill="#281446" stroke="none" stroke-width="1" d="M 37.514 88.289 C 37.514 88.289 47.362 99.54 65.452 84.955 C 83.542 70.371 66.497 52.932 66.497 52.932 L 36.902 67.969 L 37.514 88.289 Z "/>
            <path id="Shape" fill="#DCAA78" stroke="none" stroke-width="1" d="M 73.739 56.509 L 43.924 54.288 C 44.194 54.797 38.716 70.613 38.992 71.128 C 39.194 71.128 40.997 80.706 55.846 86.656 C 64.115 89.973 72.497 85.311 74.559 75.355 C 76.621 65.398 74.216 56.599 73.739 56.509 Z "/>
            <path id="Shape" fill="#BE8264" stroke="none" stroke-width="1" d="M 57.115 57.735 C 57.183 58.571 60.143 62.821 60.756 63.459 C 61.671 64.347 62.982 64.688 64.211 64.358 C 65.649 63.951 67.272 62.985 67.581 61.708 C 67.851 60.606 67.334 56.283 66.823 55.249 C 65.593 55.277 58.43 56.797 57.115 57.735 Z "/>
            <path id="Shape" fill="#000000" stroke="none" stroke-width="1" d="M 55.404 65.782 C 52.313 66.926 52.547 68.307 56.39 70.646 C 56.874 70.398 57.693 70.203 57.844 69.883 C 58.596 68.307 57.76 66.998 55.404 65.782 Z "/>
            <path id="Shape" fill="#A0640A" stroke="none" stroke-width="1" d="M 51.537 61.934 L 48.194 77.553 L 38.559 60.549 L 51.537 61.934 "/>
          </g>
          <g id="Hat">
            <path id="Shape" fill="#281446" stroke="none" stroke-width="1" d="M 36.393 56.079 C 36.811 57.189 36.233 57.98 35.59 58.72 C 35.091 59.283 34.392 59.675 34.062 60.4 C 33.966 60.622 33.556 60.726 33.307 60.874 C 32.587 60.773 31.976 60.332 31.699 59.712 C 31.876 57.033 34.127 55.679 36.393 56.079 Z "/>
            <path id="Shape" fill="#00A08C" stroke="none" stroke-width="1" d="M 33.958 57.164 C 31.118 62.096 29.838 67.78 30.289 73.462 C 30.338 74.891 30.504 76.314 30.784 77.717 C 32.902 86.346 38.677 89.188 38.817 89.357 C 39.098 89.278 40.02 85.21 41.413 80.576 L 33.958 57.164 Z "/>
            <path id="Shape" fill="#008264" stroke="none" stroke-width="1" d="M 61.199 48.891 C 61.199 48.891 55.486 45.422 42.98 49.7 C 38.104 51.395 34.346 56.068 33.537 57.577 C 32.733 63.177 32.003 69.947 41.402 80.593 C 41.402 80.593 41.435 80.627 41.452 80.644 C 42.825 75.975 44.582 71.429 46.705 67.053 C 47.553 65.358 49.666 62.533 52.02 59.623 C 52.149 59.656 61.199 48.891 61.199 48.891 Z "/>
            <path id="Shape" fill="#005A5A" stroke="none" stroke-width="1" d="M 86.02 46.71 C 85.098 43.789 83.048 42.139 80.222 41.314 C 79.435 41.088 78.654 40.828 77.857 40.658 C 76.325 40.386 74.756 40.411 73.233 40.732 C 69.548 41.37 66.312 43.043 63.211 45.06 C 60.907 46.563 59.076 48.581 57.138 50.491 C 54.839 52.781 52.826 55.345 51.143 58.125 C 49.514 60.775 46.548 67.483 46.548 67.483 C 46.548 67.483 53.048 62.239 57.261 61.403 C 69.188 59.024 79.171 64.064 79.351 64.138 C 79.593 63.94 85.076 56.481 85.992 52.966 C 86.907 49.451 86.469 48.117 86.02 46.71 Z "/>
          </g>
        </g>
        <path id="Shape" fill="#005A5A" stroke="none" stroke-width="1" d="M 65.02 142.402 C 67.666 145.228 84.121 169.052 84.683 168.679 C 84.924 168.521 96.037 160.497 96.301 160.203 C 93.969 153.478 84.902 129.524 82.098 123.144 L 65.02 142.402 Z "/>
        <g id="Front-Foot">
          <path id="Shape" fill="#F01446" stroke="none" stroke-width="1" d="M 111.486 180.026 C 110.222 181.721 109.733 183.84 108.677 185.677 C 105.306 182.439 103.885 175.782 101.935 171.584 C 99.93 167.249 97.924 162.915 96.065 158.513 C 95.862 158.722 95.666 158.937 95.469 159.152 C 95.503 159.259 95.531 159.355 95.57 159.468 C 92.576 162.734 89.593 166.249 86.267 169.199 C 86.066 169.587 85.845 169.965 85.604 170.329 L 85.632 170.391 C 87.379 171.018 89.003 173.737 90.289 175.048 C 92.098 176.895 93.885 178.766 95.694 180.614 C 99.115 184.117 102.548 188.022 106.817 190.497 C 109.098 187.768 110.458 183.309 111.952 180.094 L 111.486 180.026 Z "/>
          <path id="Shape" fill="#281446" stroke="none" stroke-width="1" d="M 96.16 154.416 L 79.042 165.571 C 80.728 167.266 84.267 171.154 84.34 171.222 C 84.413 171.29 96.947 163.311 99.199 161.858 C 98.194 159.389 97.132 156.919 96.16 154.416 Z "/>
          <path id="Shape" fill="#281446" stroke="none" stroke-width="1" d="M 99.57 162.819 L 85.278 172.086 C 85.874 172.652 86.458 173.217 87.031 173.782 L 100.43 165.096 C 100.156 164.324 99.87 163.565 99.57 162.819 Z "/>
          <path id="Shape" fill="#281446" stroke="none" stroke-width="1" d="M 100.975 166.639 L 88.183 174.94 C 88.744 175.505 89.239 176.121 89.722 176.748 L 101.705 168.962 C 101.48 168.193 101.239 167.413 100.975 166.639 Z "/>
        </g>
        <g id="Back-Arm">
          <path id="Shape" fill="#DCAA78" stroke="none" stroke-width="1" d="M 91.711 85.328 C 94.048 68.856 99.11 41.438 98.728 41.342 C 98.346 41.246 96.924 45.789 96.239 45.569 C 95.553 45.348 96.919 39.844 96.379 39.652 C 95.84 39.46 93.649 45.201 93.008 44.975 C 92.368 44.749 93.396 39.149 92.902 39.048 C 92.407 38.946 83.037 75.01 80.346 85.328 L 91.711 85.328 Z "/>
          <path id="Shape" fill="#005A5A" stroke="none" stroke-width="1" d="M 79.733 78.203 L 75.239 94.545 L 91.643 115.052 C 91.941 110.927 93.166 82.842 93.166 82.842 L 79.733 78.203 Z "/>
        </g>
        <path id="Rectangle-path" fill="#005A5A" stroke="none" stroke-width="0.9999999816611231" d="M 71.3375 137.1061 L 91.914 127.2784 L 95.2701 134.3051 L 74.6936 144.1328 L 71.3375 137.1061 "/>
        <g id="Torso">
          <path id="Shape" fill="#DCAA78" stroke="none" stroke-width="1" d="M 72.093 94.178 C 65.716 94.059 57.166 94.065 53.098 99.631 L 73.649 107.203 C 73.649 107.203 75.508 95.585 75.615 94.771 C 74.476 94.403 73.289 94.203 72.093 94.178 Z "/>
          <path id="Shape" fill="#FFFFFF" stroke="none" stroke-width="1" d="M 59.677 102.761 C 59.677 102.761 70.823 101.349 75.211 96.11 L 78.02 105.186 L 67.048 110.136 L 59.677 102.761 Z "/>
          <path id="Shape" fill="#00A08C" stroke="none" stroke-width="1" d="M 103.419 120.929 C 98.756 113.453 96.115 109.678 91.138 104.734 C 86.43 100.066 81.716 96.506 75.25 94.562 C 73.823 97.387 70.66 104.734 70.66 104.734 C 70.66 104.734 56.306 99.733 53.037 99.235 C 52.362 99.603 69.329 138.865 69.329 138.865 L 103.419 120.929 Z "/>
        </g>
        <g id="Front-Arm">
          <path id="Shape" fill="#DCAA78" stroke="none" stroke-width="1" d="M 29.126 36.883 C 28.042 37.205 27.739 37.55 26.576 38.166 C 29.829 48.535 48.761 99.8 50.115 100.659 C 51.11 101.298 53.795 100.094 55.267 99.874 C 56.739 99.653 59.407 97.274 60.61 96.376 C 59.525 93.635 29.638 37.064 29.126 36.883 Z "/>
          <path id="Shape" fill="#008264" stroke="none" stroke-width="1" d="M 44.902 92.019 C 44.907 92.185 44.932 92.35 44.975 92.511 C 46.581 96.065 63.115 140.707 63.115 140.707 L 83.463 132.231 L 86.553 126.128 C 86.553 126.128 56.823 85.865 56.711 85.69 C 55.374 85.99 46.458 90.815 44.902 92.019 Z "/>
        </g>
        <g id="Belt">
          <path id="Rectangle-path" fill="#281446" stroke="none" stroke-width="0.9999999816611231" d="M 59.6878 139.7748 L 103.3819 118.9057 L 105.7756 123.9174 L 62.0815 144.7865 L 59.6878 139.7748 "/>
          <path id="Rectangle-path" fill="#005A5A" stroke="none" stroke-width="0.9999999816611231" d="M 63.9211 136.7366 L 68.284 134.6528 L 71.5599 141.5116 L 67.197 143.5954 L 63.9211 136.7366 "/>
          <path id="Rectangle-path" fill="#005A5A" stroke="none" stroke-width="0.9999999816611231" d="M 71.1416 133.2611 L 75.5045 131.1773 L 78.78 138.0352 L 74.4171 140.119 L 71.1416 133.2611 "/>
          <path id="Rectangle-path" fill="#005A5A" stroke="none" stroke-width="0.9999999816611231" d="M 97.7518 120.5062 L 102.1156 118.4219 L 105.3915 125.2808 L 101.0277 127.365 L 97.7518 120.5062 "/>
          <path id="Rectangle-path" fill="#FFC800" stroke="none" stroke-width="0.9999999816611231" d="M 79.195 129.5186 L 86.5203 126.0198 L 89.5281 132.3174 L 82.2028 135.8161 L 79.195 129.5186 "/>
        </g>
        <path id="Shape" fill="#005A5A" stroke="none" stroke-width="1" d="M 137.671 110.305 C 140.302 111.245 142.876 112.34 145.379 113.583 C 147.154 107.316 147.138 100.218 143.756 94.828 C 138.98 87.21 125.93 79.751 110.733 93.087 C 100.621 101.948 84.452 136.746 84.452 136.746 C 84.452 136.746 80.413 138.645 83.761 139.888 C 85.907 140.684 101.615 134.587 109.39 126.653 C 117.166 118.719 121.666 100.326 129.402 98.568 C 137.89 96.63 138.385 103.914 137.671 110.305 Z "/>
        <g id="Bubble">
          <path id="Shape" fill="#F00A78" stroke="none" stroke-width="1" d="M 58.924 69.048 C 59.419 79.056 70.362 86.193 80.059 85.176 C 95.896 83.526 97.531 70.625 95.424 61.442 C 93.239 51.937 84.289 48.795 75.761 49.281 C 65.216 49.886 59.149 58.769 58.924 69.048 Z "/>
          <path id="Shape" fill="#F04650" stroke="none" stroke-width="1" d="M 78.43 62.278 C 78.632 66.375 83.11 69.291 87.076 68.879 C 93.559 68.201 94.228 62.923 93.362 59.17 C 92.469 55.283 88.806 53.994 85.306 54.192 C 81.003 54.435 78.52 58.069 78.43 62.278 Z "/>
          <path id="Shape" fill="#F04650" stroke="none" stroke-width="1" d="M 73.975 54.045 C 74.053 55.639 75.795 56.774 77.346 56.616 C 79.868 56.351 80.154 54.294 79.795 52.836 C 79.435 51.378 78.02 50.824 76.66 50.898 C 74.969 50.994 74.008 52.406 73.975 54.045 Z "/>
        </g>
        <g id="Right-Foot">
          <path id="Shape" fill="#F01446" stroke="none" stroke-width="1" d="M 136.576 106.649 C 135.34 110.876 128.334 135.576 127.638 139.215 C 129.638 140.571 132.272 143.838 134.559 144.329 C 134.149 142.9 132.874 142.148 131.789 141.278 C 133.93 137.769 146.396 111.328 147.778 110.469 C 147.761 110.452 137.239 107.096 136.576 106.649 Z "/>
          <path id="Shape" fill="#281446" stroke="none" stroke-width="1" d="M 132.525 113.216 L 131.902 114.866 L 144.643 120.11 L 145.379 118.454 L 132.525 113.216 "/>
          <path id="Shape" fill="#281446" stroke="none" stroke-width="1" d="M 131.447 116.177 L 130.823 117.827 L 143.57 123.071 L 144.306 121.421 L 131.447 116.177 "/>
        </g>
        <g id="Group">
          <path id="Shape" fill="#824600" stroke="none" stroke-width="1" d="M 22.84 3.956 C 22.89 5.029 17.295 27.441 16.767 28.367 L 32.138 37.516 C 32.07 36.985 40.003 30.543 40.003 30.006 C 40.003 29.712 40.199 13.28 40.222 12.907 C 40.003 12.76 37.413 10.279 37.177 10.138 C 36.402 9.731 35.621 9.324 34.823 8.94 C 34.025 8.555 33.138 8.177 32.323 7.81 C 31.508 7.442 30.801 7.086 30.031 6.736 C 29.514 6.482 23.48 3.758 22.84 3.956 Z "/>
          <path id="Shape" fill="#642800" stroke="none" stroke-width="1" d="M 24.233 26.135 L 40.076 26.717 L 38.531 32.933 L 23.463 33.905 L 24.233 26.135 "/>
          <path id="Shape" fill="#642800" stroke="none" stroke-width="1" d="M 21.143 17.97 L 40.851 20.886 L 41.042 17.196 L 21.919 11.946 L 21.143 17.97 "/>
          <path id="Shape" fill="#A0640A" stroke="none" stroke-width="1" d="M 21.188 0.672 C 12.199 -1.023 5.458 5.99 2.132 13.72 C -1.604 22.349 0.357 31.148 6.84 37.957 C 10.198 41.399 13.973 44.403 18.076 46.897 C 22.008 49.344 25.301 51.502 29.935 50.287 C 33.559 49.332 37.801 46.744 39.941 42.902 C 42.992 37.42 47.379 10.528 38.941 11.782 C 37.784 12.856 39.632 19.778 39.576 21.524 C 39.508 25.084 38.969 28.74 36.008 30.933 C 28.638 32.775 25.093 21.711 25.295 16.32 C 25.407 13.291 27.587 10.302 27.542 7.38 C 27.497 4.809 23.621 1.13 21.188 0.672 Z "/>
          <path id="Shape" fill="#824600" stroke="none" stroke-width="1" d="M 40.756 33.255 C 41.025 32.996 41.166 32.747 40.862 32.368 C 39.037 32.368 37.171 32.368 35.312 32.47 C 33.787 32.591 32.286 32.924 30.851 33.459 C 28.935 34.143 27.104 35.013 25.267 35.872 C 23.412 36.789 21.684 37.946 20.126 39.313 C 19.382 39.924 18.756 40.668 18.278 41.506 C 18.037 41.935 17.716 42.336 17.419 42.822 L 17.896 43.388 C 18.329 43.018 18.665 42.546 18.874 42.014 C 19.175 41.345 19.625 40.753 20.188 40.285 C 21.403 39.154 22.73 38.153 24.149 37.296 C 25.977 36.249 27.891 35.358 29.868 34.634 C 31.031 34.261 32.199 33.9 33.368 33.538 C 34.631 33.213 35.938 33.095 37.239 33.188 C 38.272 33.188 39.306 33.267 40.34 33.295 C 40.479 33.295 40.619 33.282 40.756 33.255 Z "/>
        </g>
        <path id="Shape" fill="#281446" stroke="none" stroke-width="1" d="M 135.435 103.592 L 133.154 111.424 L 146.256 116.77 L 150.053 108.746 L 135.435 103.592 "/>
      </g>
    </g>
  </g>
</svg>