<svg xmlns="http://www.w3.org/2000/svg" xmlns:xlink="http://www.w3.org/1999/xlink" width="143.77769470214844" height="134.44577026367188" viewBox="19.092296600341797 9.885246276855469 143.77769470214844 134.44577026367188" version="1.1" xml:space="preserve">
  <defs/>
  <g>
    <title>rabbit-b</title>
    <desc>Created with Sketch.</desc>
    <g id="forest" stroke="none" fill-rule="evenodd">
      <g id="rabbit-b" fill-rule="nonzero">
        <g id="Rabbit2(jumping)">
          <g id="taila">
            <ellipse id="Oval" fill="#B5C5C1" transform="matrix(0.9380884726686717,-0.3463957526387394,0.3463957526387394,0.9380884726686717,14.98513758937318,41.885126708053434)" cx="14.230944" cy="14.1338973" rx="10.6201305" ry="10.6122109" stroke-width="1"/>
            <path d="M 28.36 52.4483 C 28.81 52.8081 29.17 53.1678 29.62 53.5275 C 29.89 53.7074 30.25 53.7973 30.52 53.5275 C 30.7 53.3477 30.79 52.898 30.52 52.6282 C 30.07 52.2685 29.71 51.9087 29.26 51.549 C 28.99 51.3691 28.63 51.2792 28.36 51.549 C 28.09 51.8188 28.09 52.2685 28.36 52.4483 Z " id="Shape" fill="#CBD7D4" stroke-width="1"/>
            <path d="M 26.02 55.0564 C 26.56 55.3262 27.19 55.596 27.73 55.7758 C 28 55.8658 28.45 55.6859 28.45 55.3262 C 28.54 54.9664 28.36 54.6966 28 54.6067 C 27.55 54.4268 27.01 54.247 26.56 53.9772 C 26.29 53.7973 25.93 53.8872 25.75 54.157 C 25.66 54.4268 25.66 54.8765 26.02 55.0564 Z " id="Shape" fill="#CBD7D4" stroke-width="1"/>
            <path d="M 31.06 47.9517 C 31.24 48.7611 31.69 49.7503 32.14 50.4698 C 32.59 51.0993 33.67 50.4698 33.22 49.8403 C 32.77 49.2107 32.41 48.4013 32.23 47.5919 C 32.05 46.7826 30.88 47.1423 31.06 47.9517 Z " id="Shape" fill="#CBD7D4" stroke-width="1"/>
            <path d="M 34.84 47.6819 C 35.02 48.4013 35.11 49.0309 35.29 49.7503 C 35.47 50.5597 36.64 50.2 36.46 49.3906 C 36.28 48.6711 36.19 48.0416 36.01 47.3221 C 35.92 46.5128 34.75 46.8725 34.84 47.6819 Z " id="Shape" fill="#CBD7D4" stroke-width="1"/>
            <path d="M 39.16 47.5919 C 38.89 48.2215 38.8 48.9409 38.89 49.6604 C 38.89 50.0201 39.16 50.2899 39.52 50.2899 C 39.79 50.2899 40.15 50.0201 40.15 49.6604 C 40.06 49.0309 40.15 48.4913 40.42 47.9517 C 40.51 47.6819 40.24 47.2322 39.97 47.2322 C 39.52 47.0523 39.25 47.3221 39.16 47.5919 Z " id="Shape" fill="#CBD7D4" stroke-width="1"/>
            <path d="M 40.78 51.2792 C 40.6 51.8188 40.42 52.2685 40.33 52.8081 C 40.24 53.1678 40.42 53.4376 40.78 53.5275 C 41.05 53.6174 41.5 53.4376 41.5 53.0779 C 41.59 52.5383 41.77 51.9987 41.95 51.549 C 42.04 51.2792 41.86 50.8295 41.5 50.8295 C 41.23 50.7396 40.87 51.0094 40.78 51.2792 Z " id="Shape" fill="#CBD7D4" stroke-width="1"/>
            <path d="M 26.2 45.9732 C 26.56 46.6926 27.1 47.3221 27.46 48.0416 C 27.82 48.7611 28.9 48.1315 28.54 47.4121 C 28.18 46.6926 27.64 46.0631 27.28 45.3436 C 27.1 45.0738 26.74 44.9839 26.47 45.1638 C 26.11 45.3436 26.02 45.7034 26.2 45.9732 Z " id="Shape" fill="#CBD7D4" stroke-width="1"/>
            <path d="M 29.26 42.8255 C 29.44 43.545 29.71 44.2644 29.8 44.9839 C 29.98 45.7933 31.15 45.4336 30.97 44.6242 C 30.79 43.9047 30.61 43.1852 30.43 42.4658 C 30.16 41.7463 28.99 42.106 29.26 42.8255 Z " id="Shape" fill="#CBD7D4" stroke-width="1"/>
            <path d="M 33.4 42.2859 C 33.49 43.3651 33.58 44.5342 33.85 45.6134 C 34.03 46.4228 35.29 46.0631 35.02 45.2537 C 34.75 44.2644 34.75 43.2752 34.57 42.2859 C 34.57 41.4765 33.31 41.4765 33.4 42.2859 Z " id="Shape" fill="#CBD7D4" stroke-width="1"/>
            <path d="M 37.63 42.7356 C 37.63 43.0054 37.72 43.1852 37.72 43.455 C 37.72 43.8148 37.99 44.0846 38.35 44.0846 C 38.62 44.0846 38.98 43.8148 38.98 43.455 C 38.98 43.1852 38.89 43.0054 38.89 42.7356 C 38.89 42.3758 38.62 42.106 38.26 42.106 C 37.99 42.106 37.63 42.4658 37.63 42.7356 Z " id="Shape" fill="#CBD7D4" stroke-width="1"/>
            <path d="M 23.05 50.1101 C 23.59 50.5597 24.04 50.9195 24.58 51.3691 C 24.85 51.549 25.21 51.6389 25.48 51.3691 C 25.66 51.1893 25.75 50.7396 25.48 50.4698 C 24.94 50.0201 24.49 49.6604 23.95 49.2107 C 23.68 49.0309 23.32 48.9409 23.05 49.2107 C 22.87 49.3906 22.78 49.8403 23.05 50.1101 Z " id="Shape" fill="#CBD7D4" stroke-width="1"/>
            <path d="M 31.78 54.7866 C 32.32 55.2362 32.77 55.6859 33.22 56.2255 C 33.76 56.7651 34.66 55.9557 34.12 55.3262 C 33.67 54.8765 33.22 54.3369 32.68 53.8872 C 32.41 53.7074 32.05 53.6174 31.78 53.8872 C 31.51 54.157 31.51 54.6067 31.78 54.7866 Z " id="Shape" fill="#CBD7D4" stroke-width="1"/>
            <path d="M 29.8 57.7544 C 30.16 58.0242 30.43 58.204 30.79 58.294 C 31.15 58.3839 31.51 58.204 31.51 57.8443 C 31.6 57.4846 31.42 57.2148 31.06 57.1248 C 30.88 57.0349 30.7 57.0349 30.61 56.855 C 30.34 56.6752 29.98 56.5852 29.71 56.855 C 29.62 57.0349 29.53 57.4846 29.8 57.7544 Z " id="Shape" fill="#CBD7D4" stroke-width="1"/>
            <path d="M 34.48 52.0886 C 34.39 52.8081 34.48 53.5275 34.57 54.3369 C 34.57 54.6966 34.84 54.9664 35.2 54.9664 C 35.47 54.9664 35.83 54.6966 35.83 54.3369 C 35.74 53.6174 35.65 52.898 35.74 52.0886 C 35.74 51.2792 34.57 51.2792 34.48 52.0886 Z " id="Shape" fill="#CBD7D4" stroke-width="1"/>
            <path d="M 37.54 52.7181 C 37.45 53.0779 37.45 53.3477 37.36 53.7074 C 37.27 54.0671 37.45 54.3369 37.81 54.4268 C 38.08 54.5168 38.53 54.3369 38.53 53.9772 C 38.62 53.6174 38.62 53.3477 38.71 52.9879 C 38.8 52.6282 38.62 52.3584 38.26 52.2685 C 37.99 52.1785 37.54 52.3584 37.54 52.7181 Z " id="Shape" fill="#CBD7D4" stroke-width="1"/>
          </g>
          <g id="paw_back2">
            <path d="M 50.23 109.5557 C 47.71 103.3503 54.37 105.2389 55.81 100.9221 C 58.6 92.8282 46.45 80.0577 51.85 70.4349 C 56.89 61.5315 73.9 66.0282 80.11 69.0859 C 88.57 73.2228 93.34 85.004 97.75 93.8174 C 100.99 100.2926 99.28 107.3074 92.44 109.8255 C 85.96 112.1638 80.92 112.1638 74.53 113.9624 C 77.23 117.2899 84.43 117.2899 88.48 119.0886 C 89.74 119.6282 92.35 119.898 94.06 121.0671 C 96.04 122.4161 96.94 124.7544 97.75 126.3732 C 99.64 130.6 93.61 128.2617 91.36 127.6322 C 102.07 136.5356 72.55 124.3047 69.13 121.8765 C 69.13 121.8765 51.22 112.0738 50.23 109.5557 Z " id="Shape" stroke-width="1" fill="#B5C5C1"/>
          </g>
          <g id="paw_front2">
            <path d="M 121.24 90.9396 C 122.32 87.3423 124.48 84.1047 126.73 80.957 C 131.68 74.1221 154.99 76.3705 153.28 84.1946 C 151.48 92.4685 146.8 102.9007 139.87 109.106 C 136.63 111.9839 132.22 121.6067 132.22 121.6067 C 132.22 121.6067 126.73 129.8805 125.74 130.9597 C 120.7 136.1758 117.91 131.4094 120.25 128.7114 C 117.1 131.0497 118.54 127.0926 119.98 125.4738 C 119.98 125.4738 124.75 120.7074 124.57 119.1785 C 123.94 114.9517 118.81 98.7638 121.24 90.9396 Z " id="Shape" stroke-width="1" fill="#B5C5C1"/>
          </g>
          <g id="body">
            <path d="M 78.4 119.2685 C 69.58 120.7973 48.07 114.6819 40.96 109.7356 C 29.44 101.8215 14.68 80.8671 30.79 60.9919 C 44.11 44.6242 79.03 65.3087 92.71 69.0859 C 100.54 71.2443 111.88 75.2913 119.71 71.3342 C 122.14 70.0752 123.22 67.4671 125.56 66.3879 C 129.52 64.4993 142.48 58.4738 145.54 61.4416 C 152.65 68.2765 164.62 71.9638 154.72 94.6268 C 145.81 114.9517 111.16 117.5597 94.42 119.1785 L 78.4 119.2685 Z " id="Shape" stroke-width="1" fill="#CBD7D4"/>
          </g>
          <g id="head_x2B_ears">
            <path d="M 131.5 65.3987 C 118 68.5463 102.16 60.4523 91.81 53.7973 C 84.7 49.3007 76.78 38.6886 73.45 31.8537 C 70.57 25.7383 98.74 34.7315 106.12 39.1383 C 118.63 46.6027 130.06 57.3946 141.04 66.8376 L 131.5 65.3987 Z " id="Shape" fill="#C9D8D5" stroke-width="1"/>
            <path d="M 142.66 62.8805 C 132.76 61.8913 120.97 45.3436 116.29 37.6094 C 111.25 29.2456 108.37 10.7195 108.37 10.7195 C 113.05 7.5718 127.18 27.5369 131.95 33.6523 C 138.88 42.6456 147.88 52.4483 151.75 63.3302 L 142.66 62.8805 Z " id="Shape" fill="#B5C5C1" stroke-width="1"/>
            <g id="head">
              <path d="M 130.87 92.3785 C 118.36 85.1839 112.06 64.8591 128.98 53.7973 C 137.08 48.4913 145 50.9195 151.12 56.4953 C 153.55 58.7436 155.35 61.8013 157.51 64.4094 C 161.83 69.8054 162.19 74.5718 162.37 79.1584 C 162.37 79.1584 162.37 84.0148 160.57 88.3315 C 159.49 90.9396 157.69 93.3678 154.81 94.5369 C 146.17 97.8644 140.5 97.9544 130.87 92.3785 Z " id="Shape" fill="#C9D8D5" stroke-width="1"/>
              <path d="M 128.89 53.8872 C 129.43 53.5275 129.88 53.2577 130.42 52.9879 C 129.52 53.3477 128.53 53.7074 127.54 54.247 C 111.07 63.3302 116.56 85.1839 128.89 91.2094 C 117.73 83.1154 112.87 64.3195 128.89 53.8872 Z " id="Shape" fill="#B5C5C1" stroke-width="1"/>
              <g id="face">
                <g id="Group">
                  <g id="Shape">
                    <path d="M 157.42 82.396 C 158.23 82.5758 159.31 82.6658 160.12 82.1262 C 160.93 81.5866 160.84 80.8671 160.93 80.0577 C 161.02 79.2483 159.76 79.2483 159.67 80.0577 C 159.67 80.4175 159.85 80.957 159.4 81.1369 C 158.95 81.3168 158.32 81.2268 157.87 81.1369 C 156.97 80.957 156.61 82.2161 157.42 82.396 Z " stroke-width="1" fill="#3C4F45"/>
                    <path d="M 159.04 81.9463 C 159.76 83.2054 160.3 84.5544 160.48 85.9933 C 160.57 86.8027 161.83 86.443 161.74 85.6336 C 161.47 84.1047 160.93 82.6658 160.12 81.3168 C 159.76 80.5973 158.68 81.2268 159.04 81.9463 Z " stroke-width="1" fill="#3C4F45"/>
                    <path d="M 158.05 86.8926 C 159.4 87.5221 160.93 87.0725 161.83 85.8134 C 162.28 85.1839 161.2 84.4644 160.75 85.1839 C 160.3 85.8134 159.4 86.1732 158.68 85.8134 C 157.96 85.4537 157.33 86.5329 158.05 86.8926 Z " stroke-width="1" fill="#3C4F45"/>
                  </g>
                  <g id="Shape">
                    <path d="M 139.96 82.7557 C 138.16 83.0255 136.45 83.5651 134.83 84.4644 C 134.11 84.8242 134.74 85.9034 135.46 85.5436 C 136.81 84.7342 138.34 84.1946 139.96 84.0148 C 140.77 83.8349 140.77 82.6658 139.96 82.7557 Z " stroke-width="1" fill="#B5C5C1"/>
                    <path d="M 141.85 84.7342 C 139.42 85.9034 136.81 87.0725 134.56 88.6913 C 133.93 89.1409 134.56 90.2201 135.19 89.7705 C 137.35 88.1517 140.05 86.9826 142.48 85.8134 C 143.2 85.4537 142.57 84.3745 141.85 84.7342 Z " stroke-width="1" fill="#B5C5C1"/>
                    <path d="M 141.76 87.3423 C 140.77 88.4215 139.87 89.5007 138.88 90.5799 C 138.34 91.2094 139.24 92.1087 139.78 91.4792 C 140.68 90.4 141.67 89.3208 142.66 88.2416 C 143.11 87.6121 142.3 86.7128 141.76 87.3423 Z " stroke-width="1" fill="#B5C5C1"/>
                  </g>
                </g>
                <ellipse id="Oval" fill="#3C4F45" transform="matrix(0.8727906373548133,-0.4880947688162399,0.4880947688162399,0.8727906373548133,127.25764202700421,69.51283697836601)" cx="8.982288" cy="9.18876671" rx="1.98002124" ry="2.60808166" stroke-width="1"/>
                <path d="M 132.13 68.2765 C 132.58 67.1074 133.66 65.9383 135.01 66.0282 C 135.82 66.0282 135.82 64.8591 135.01 64.7691 C 133.12 64.6792 131.59 66.298 130.96 67.9168 C 130.69 68.6362 131.86 68.996 132.13 68.2765 Z " id="Shape" fill="#B5C5C1" stroke-width="1"/>
              </g>
            </g>
          </g>
          <g id="paw_back1">
            <path d="M 54.64 87.6121 C 63.01 89.7705 72.46 99.4832 78.76 107.0376 C 73.36 94.9866 60.76 86.5329 50.95 85.9933 C 47.35 85.8134 44.47 85.7235 42.04 85.9933 C 46.9 85.9034 51.67 86.8926 54.64 87.6121 Z " id="Shape" fill="#B5C5C1" stroke-width="1"/>
            <path d="M 34.84 131.6792 C 31.06 126.1034 37.99 126.643 38.53 122.0564 C 39.61 113.6027 25.03 103.5302 28.45 93.0081 C 31.6 83.2054 47.89 85.9034 54.64 87.6121 C 63.82 89.9503 74.17 101.1919 80.29 108.9262 C 84.79 114.5919 84.52 121.8765 78.31 125.6537 C 72.46 129.251 65.44 127.902 59.5 130.8698 C 62.83 133.5678 69.85 132.0389 74.17 133.0282 C 75.52 133.298 78.13 133.0282 80.02 133.8376 C 82.27 134.7369 83.62 136.8054 84.7 138.3342 C 87.4 142.1114 81.01 141.0322 78.67 140.8523 C 91 147.3275 59.59 141.4819 55.81 139.7732 C 55.9 139.7732 36.37 133.9275 34.84 131.6792 Z " id="Shape" fill="#CBD7D4" stroke-width="1"/>
            <path d="M 76.87 140.7624 C 78.67 141.2121 79.93 141.7517 81.1 143.2805 C 81.55 143.9101 82.63 143.2805 82.18 142.651 C 81.55 141.8416 80.92 141.0322 80.02 140.4926 C 79.12 139.953 78.22 139.7732 77.23 139.5034 C 76.42 139.4134 76.15 140.5826 76.87 140.7624 Z " id="Shape" fill="#B5C5C1" stroke-width="1"/>
          </g>
          <g id="paw_front1">
            <path d="M 108.01 101.7315 C 109.99 98.494 112.78 95.8859 115.75 93.4577 C 122.23 88.0617 150.58 94.2671 146.98 101.4617 C 143.2 109.0161 126.82 123.0456 121.6 123.945 C 117.37 124.7544 111.07 134.1973 111.07 134.1973 C 111.07 134.1973 103.69 140.8523 102.43 141.6617 C 96.22 145.5289 94.78 140.5825 97.75 138.604 C 94.06 140.1329 96.49 136.0859 98.2 134.9168 C 98.2 134.9168 104.05 131.4993 104.23 129.9705 C 104.68 125.7436 103.69 108.7463 108.01 101.7315 Z " id="Shape" fill="#CBD7D4" stroke-width="1"/>
            <path d="M 96.58 139.4134 C 98.65 139.2336 100.63 137.9745 101.71 136.1758 C 102.16 135.4564 101.08 134.8268 100.63 135.5463 C 99.82 136.9852 98.2 138.0644 96.58 138.2443 C 95.77 138.2443 95.77 139.5034 96.58 139.4134 Z " id="Shape" fill="#B5C5C1" stroke-width="1"/>
          </g>
        </g>
      </g>
    </g>
  </g>
</svg>