<svg xmlns="http://www.w3.org/2000/svg" xmlns:xlink="http://www.w3.org/1999/xlink" version="1.1" width="116.78450012207031" height="127.48699951171875" viewBox="0.4119396209716797 -0.3830000013113022 116.78450012207031 127.48699951171875">
  <!-- Exported by Scratch - http://scratch.mit.edu/ -->
  <g id="ID0.0467602894641459">
    <g id="Page-1">
      <g id="referee-d-[sports,soccer,football,alex-eben-meyer]">
        <g id="scratch_footie_player_ref04">
          <g id="Group-7">
            <path id="Shape" fill="#828278" stroke="none" stroke-width="1" d="M 68.838 69.625 C 84.577 70.413 96.908 71.242 104.414 71.647 C 111.92 72.052 116.633 72.21 116.696 72.957 C 116.745 73.543 112.719 73.223 110.828 73.381 C 110.864 73.606 110.729 74.092 110.684 74.696 C 110.526 76.808 106.549 77.335 103.683 77.506 C 97.757 77.857 81.616 78.046 65.656 78.15 C 65.656 78.15 58.669 78.213 58.885 73.268 C 59.102 68.323 68.838 69.625 68.838 69.625 Z "/>
            <path id="Shape" fill="#3C3C32" stroke="none" stroke-width="1" d="M 111.099 70.976 C 111.862 70.908 111.654 71.404 110.819 71.728 C 110.245 71.942 109.648 72.093 109.041 72.178 C 109.041 72.178 109.524 74.664 106.567 74.11 C 105.191 73.854 105.353 72.277 106.594 71.615 C 108.025 70.845 110.693 71.012 111.099 70.976 Z "/>
          </g>
          <g id="Group-6">
            <path id="Shape" fill="#828278" stroke="none" stroke-width="1" d="M 32.833 92.71 L 33.541 107.689 L 41.341 107.635 L 41.255 92.048 C 41.255 92.048 42.045 84.369 36.742 83.545 C 31.438 82.721 32.833 92.71 32.833 92.71 Z "/>
            <path id="Shape" fill="#000000" stroke="none" stroke-width="1" d="M 41.774 106.941 L 33.04 106.941 L 35.749 123.091 C 35.749 123.091 32.002 122.848 30.865 123.699 L 31.113 124.208 C 32.467 124.541 31.258 126.009 32.467 126.329 C 32.824 125.712 32.196 123.379 33.821 124.208 C 33.785 124.798 33.514 125.951 34.042 126.46 L 34.539 126.347 C 34.692 125.554 34.295 124.766 34.683 124.055 C 35.103 123.892 35.578 123.956 35.938 124.226 L 35.794 126.288 L 36.642 126.5 L 36.642 124.654 C 37.116 124.609 37.288 124.091 37.816 124.203 C 37.861 124.955 37.504 126.568 38.719 126.162 C 38.768 125.518 38.376 124.811 38.922 124.194 L 39.779 124.194 C 40.05 124.492 39.865 126.041 39.865 126.239 L 40.357 126.604 L 40.808 126.338 C 40.863 125.55 41.472 109.774 41.774 106.941 Z "/>
            <path id="Rectangle-path" fill="#FFFFFF" stroke="none" stroke-width="1" d="M 32.46 108.45 L 42.165 108.45 L 42.165 106.414 L 32.46 106.414 L 32.46 108.45 Z "/>
            <path id="Rectangle-path" fill="#FFFFFF" stroke="none" stroke-width="1" d="M 32.907 112.106 L 41.713 112.106 L 41.713 110.071 L 32.907 110.071 L 32.907 112.106 Z "/>
            <path id="Rectangle-path" fill="#FFFFFF" stroke="none" stroke-width="1" d="M 33.722 115.296 L 41.796 115.296 L 41.796 113.341 L 33.722 113.341 L 33.722 115.296 Z "/>
          </g>
          <g id="Group-5">
            <path id="Shape" fill="#828278" stroke="none" stroke-width="1" d="M 59.63 93.534 L 58.569 107.689 L 50.774 107.612 C 50.774 107.612 49.497 84.586 54.913 83.996 C 60.33 83.406 59.63 93.534 59.63 93.534 Z "/>
            <path id="Shape" fill="#000000" stroke="none" stroke-width="1" d="M 50.332 106.941 L 59.07 106.941 L 56.362 123.091 C 56.362 123.091 60.109 122.848 61.246 123.699 L 60.998 124.208 C 59.644 124.541 60.853 126.009 59.644 126.329 C 59.287 125.712 59.915 123.379 58.29 124.208 C 58.326 124.798 58.597 125.951 58.068 126.46 L 57.572 126.347 C 57.418 125.554 57.816 124.766 57.428 124.055 C 57.008 123.892 56.533 123.956 56.173 124.226 L 56.317 126.288 L 55.469 126.5 L 55.469 124.654 C 54.995 124.609 54.823 124.091 54.295 124.203 C 54.25 124.955 54.606 126.568 53.392 126.162 C 53.343 125.518 53.735 124.811 53.189 124.194 L 52.332 124.194 C 52.061 124.492 52.246 126.041 52.246 126.239 L 51.754 126.604 L 51.303 126.338 C 51.248 125.55 50.639 109.774 50.332 106.941 Z "/>
            <path id="Rectangle-path" fill="#FFFFFF" stroke="none" stroke-width="1" d="M 59.626 106.45 L 49.921 106.45 L 49.921 108.486 L 59.626 108.486 L 59.626 106.45 Z "/>
            <path id="Rectangle-path" fill="#FFFFFF" stroke="none" stroke-width="1" d="M 59.174 110.094 L 50.368 110.094 L 50.368 112.129 L 59.174 112.129 L 59.174 110.094 Z "/>
            <path id="Rectangle-path" fill="#FFFFFF" stroke="none" stroke-width="1" d="M 58.357 113.354 L 50.282 113.354 L 50.282 115.309 L 58.357 115.309 L 58.357 113.354 Z "/>
          </g>
          <g id="Group-4">
            <path id="Shape" fill="#000000" stroke="none" stroke-width="1" d="M 0.917 68.738 C 2.677 56.745 11.176 42.333 24.672 43.797 C 25.424 43.881 26.177 43.997 26.929 44.144 C 23.706 38.834 20.186 33.655 17.288 28.3 C 14.747 23.608 7.593 11.93 7.593 11.93 L 12.323 0.671 L 17.965 4.31 C 17.965 4.31 39.116 37.789 45.254 47.85 C 50.143 55.844 54.828 63.419 55.988 73.039 C 56.954 81.032 54.76 88.423 48.107 93.304 C 44.753 95.768 41.215 96.353 37.206 97.358 C 30.301 99.087 23.147 100.344 16.809 97.358 C 4.69 91.661 0.75 80.69 0.917 68.738 Z "/>
            <path id="Shape" fill="#000000" stroke="none" stroke-width="1" d="M 72.968 42.955 L 80.054 57.848 L 52.052 59.028 L 45.223 43.207 L 72.968 42.955 "/>
            <path id="Shape" fill="#A0640A" stroke="none" stroke-width="1" d="M 56.331 57.227 C 56.782 61.478 60.33 63.982 64.744 63.676 C 67.741 63.468 70.508 61.145 70.589 57.956 C 70.666 54.889 67.357 52.309 64.609 51.683 C 61.539 50.989 56.85 51.957 56.331 57.227 Z "/>
            <path id="Shape" fill="#828278" stroke="none" stroke-width="1" d="M 46.509 47.846 L 70.955 47.832 L 75.482 58.276 L 80.596 57.708 L 73.893 41.951 L 43.67 41.045 L 46.509 47.846 "/>
            <path id="Shape" fill="#3C3C32" stroke="none" stroke-width="1" d="M 49.226 1.351 C 53.108 7.206 59.224 16.429 63.038 22.365 C 63.837 23.599 73.636 37.424 77.879 45.661 C 84.649 58.812 86.685 68.972 86.328 75.835 C 86.224 77.799 85.078 86.446 81.557 90.476 C 76.168 96.646 67.633 98.344 67.633 98.344 L 28.649 98.952 C 28.649 98.952 43.679 95.205 47.926 88.643 C 50.548 84.407 52.053 79.578 52.3 74.606 C 52.548 65.536 47.814 56.74 43.512 49.089 C 38.998 41.032 15.609 4.413 12.607 1.275 L 49.226 1.351 Z M 51.713 55.601 L 76.809 55.65 C 76.809 55.65 73.514 47.742 72.489 46.157 L 46.762 46.184 L 51.713 55.601 Z "/>
            <path id="Shape" fill="#000000" stroke="none" stroke-width="1" d="M 11.741 0.117 C 12.643 0.194 49.574 0.239 50.495 0.342 C 51.077 0.36 51.632 0.596 52.047 1.004 L 52.259 1.554 L 52.178 2.135 C 51.736 2.583 51.112 2.804 50.486 2.734 C 49.583 2.617 14.774 2.617 13.853 2.657 L 11.741 0.117 Z "/>
            <path id="Shape" fill="#000000" stroke="none" stroke-width="1" d="M 13.839 2.657 L 8.577 13.704 C 8.577 13.704 7.272 14.087 6.735 13.281 C 6.409 12.779 6.235 12.194 6.234 11.597 L 11.741 0.117 L 13.839 2.657 Z "/>
            <path id="Shape" fill="#3C3C32" stroke="none" stroke-width="1" d="M 11.583 75.993 C 12.682 79.423 14.84 82.418 17.748 84.55 C 21.115 86.963 25.236 87.842 29.1 86.581 C 32.189 85.532 34.729 83.294 36.155 80.366 C 38.077 76.403 38.35 71.842 36.913 67.679 C 35.705 63.859 33.174 60.593 29.773 58.465 C 26.613 56.547 23.327 55.628 19.843 56.772 C 12.824 59.078 8.875 67.846 11.583 75.993 Z "/>
            <path id="Shape" fill="#828278" stroke="none" stroke-width="1" d="M 15.97 74.516 C 16.687 76.76 18.098 78.719 20.001 80.114 C 22.114 81.722 24.875 82.215 27.416 81.438 C 29.433 80.754 31.092 79.295 32.025 77.384 C 33.28 74.796 33.457 71.816 32.517 69.098 C 31.727 66.601 30.073 64.467 27.85 63.077 C 25.778 61.825 23.639 61.221 21.355 61.969 C 16.791 63.464 14.223 69.192 15.97 74.516 Z "/>
          </g>
          <g id="Group-3">
            <path id="Rectangle-path" fill="#000000" stroke="none" stroke-width="0.9999999900806734" d="M 97.5643 49.4783 L 90.65 50.5771 L 90.807 51.5647 L 97.7212 50.4659 L 97.5643 49.4783 Z "/>
            <path id="Rectangle-path" fill="#000000" stroke="none" stroke-width="0.9999999898452168" d="M 94.4855 56.7486 L 88.0749 53.9345 L 87.673 54.8502 L 94.0835 57.6642 L 94.4855 56.7486 Z "/>
            <path id="Rectangle-path" fill="#000000" stroke="none" stroke-width="0.9999999974307912" d="M 92.7694 42.4036 L 87.702 47.2343 L 88.392 47.9581 L 93.4594 43.1275 L 92.7694 42.4036 Z "/>
          </g>
          <g id="Group-2">
            <path id="Shape" fill="#3C3C32" stroke="none" stroke-width="1" d="M 23.196 112.377 C 23.196 112.377 24.329 116.881 24.352 117.718 C 24.374 118.556 23.991 118.556 23.67 117.651 C 23.364 116.944 22.952 116.287 22.447 115.705 L 23.196 112.377 Z "/>
            <path id="Shape" fill="#828278" stroke="none" stroke-width="1" d="M 20.199 72.957 C 20.199 72.957 19.351 68.454 24.058 68.454 C 28.766 68.454 28.121 73.205 28.121 73.205 C 27.719 77.88 22.957 120.159 22.528 120.092 C 22.099 120.024 22.145 116.939 21.625 116.939 C 21.106 116.939 20.966 120.47 20.447 120.515 C 19.928 120.56 20.177 116.939 19.698 116.849 C 19.22 116.759 19.03 119.776 18.795 119.767 C 18.227 119.709 20.199 72.957 20.199 72.957 Z "/>
            <g id="Group">
              <path id="Shape" fill="#F01446" stroke="none" stroke-width="1" d="M 18.236 112.048 L 18.236 110.639 C 19.071 110.558 21.458 110.535 22.298 110.449 C 22.339 110.648 22.194 111.841 22.226 112.08 C 22.108 112.057 19.775 112.057 18.236 112.048 Z "/>
              <path id="Shape" fill="#000000" stroke="none" stroke-width="1" d="M 20.502 109.301 C 19.806 110.774 19.436 112.584 20.953 113.597 C 21.438 113.95 22.045 114.095 22.638 114 C 23.231 113.906 23.762 113.579 24.112 113.093 C 25.263 111.526 25.015 109.864 23.72 109.193 C 22.677 108.788 21.514 108.827 20.502 109.301 Z "/>
              <path id="Shape" fill="#3C3C32" stroke="none" stroke-width="1" d="M 21.382 110.314 C 21.012 111.098 20.813 112.066 21.63 112.607 C 21.888 112.8 22.215 112.881 22.534 112.83 C 22.853 112.779 23.138 112.601 23.323 112.336 C 23.936 111.499 23.801 110.616 23.115 110.256 C 22.554 110.035 21.927 110.057 21.382 110.314 Z "/>
            </g>
          </g>
        </g>
      </g>
    </g>
  </g>
</svg>