<svg xmlns="http://www.w3.org/2000/svg" xmlns:xlink="http://www.w3.org/1999/xlink" version="1.1" width="51.364878833293915" height="191.6720764040947" viewBox="-0.17509803175926208 0.32459214329719543 51.364878833293915 191.6720764040947">
  <!-- Exported by Scratch - http://scratch.mit.edu/ -->
  <g id="ID0.9868399249389768">
    <g id="Shoes">
      <path id="Shoe_Left" fill="#0B1938" d="M 37.71 166.8628 C 38.337 165.5176 39.6727 166.7963 40.2038 167.03 C 41.1034 167.4309 42.1855 167.8983 43.1022 168.1881 C 43.9572 168.4569 44.646 168.8464 45.5437 169.0716 C 45.9294 169.1685 46.9146 169.3889 47.2955 169.4744 C 48.2256 169.6786 48.0118 169.938 48.1287 170.3987 C 48.7357 172.826 46.3569 174.2472 44.3401 174.3061 C 43.7872 174.3213 42.5256 174.1579 42.0021 174.0486 C 41.5879 173.9612 41.2545 174.1522 40.9818 173.833 C 40.4793 173.2411 40.2104 172.0831 39.2082 171.8047 C 36.722 171.1122 33.9575 170.4966 31.4704 170.2847 C 32.1734 169.8838 34.0848 168.8597 34.955 168.3629 C 36.0418 167.7406 36.6546 167.3939 37.71 166.8628 M 38.4026 174.3365 C 38.2686 174.0657 38.1518 173.7484 37.9922 173.49 C 37.8345 173.2326 38.0682 173.3304 37.8193 173.1898 C 37.615 173.073 36.9339 173.0169 36.7078 172.9371 C 35.754 172.6065 34.784 172.3652 33.8131 172.0593 C 33.0731 171.8237 32.2969 171.6081 31.5331 171.4057 C 30.9004 171.2385 30.262 171.1017 29.6293 171.2366 C 29.0783 171.3554 28.0115 171.8807 27.4396 171.8902 C 27.1147 173.4264 31.0857 172.8108 31.8685 172.9533 C 33.3049 173.2164 35.1289 174.0125 36.8189 174.2282 C 37.3443 174.2947 37.7224 174.2842 38.2287 174.3526 " stroke-width="0.949999988079071"/>
      <path id="Shoe_Trim_Left" fill="#A2C6DD" d="M 48.008 169.767 C 47.9501 169.9323 48.1657 170.2771 48.1306 170.5317 C 48.0897 170.8547 47.9729 171.0827 48.0394 171.4209 C 48.16 172.0422 47.9833 172.4726 47.7021 173.0131 C 47.4646 173.4625 46.6685 173.9147 46.1973 174.0743 C 45.2825 174.384 44.2584 174.3156 43.3084 174.2652 C 42.8666 174.2415 42.4344 174.0923 42.0021 174.0515 C 41.7817 174.0277 41.3248 174.0866 41.1224 173.9954 C 40.959 173.9232 41.0664 174.0106 40.9818 173.8339 C 40.6721 173.1822 40.3643 172.7243 39.8428 172.2123 C 39.572 171.9453 39.3877 171.9121 39.002 171.8076 C 38.5508 171.6831 38.2468 171.6869 37.7946 171.572 C 37.3956 171.4722 36.627 171.1597 36.2119 171.1027 C 35.7217 171.0362 35.4975 171.0248 35.013 170.906 C 34.4249 170.7616 33.8103 170.6239 33.208 170.5612 C 32.7311 170.5089 32.2076 170.355 31.7383 170.355 C 31.4486 170.3531 31.041 170.4177 30.814 170.5726 C 30.3855 170.868 29.9751 170.925 29.749 171.1407 C 30.3371 171.3877 30.9365 171.2927 31.5559 171.5102 C 32.2019 171.7382 32.8641 171.8446 33.5528 172.0023 C 34.2767 172.1676 34.8334 172.4441 35.5716 172.5552 C 35.8794 172.6018 36.2917 172.7557 36.6014 172.8279 C 36.9358 172.9077 37.5048 173.0378 37.7946 173.2155 C 38.0302 173.3637 38.414 174.1417 38.4016 174.4125 C 37.273 174.4714 36.2527 174.3108 35.1935 173.9156 C 34.4439 173.6354 33.4863 173.3741 32.7187 173.186 C 31.1066 172.7946 30.1727 173.3589 29.0175 172.9856 C 28.4884 172.8146 28.0419 172.8592 27.6429 172.4583 C 27.4291 172.2427 27.4776 171.9577 27.1584 171.9643 C 26.9304 171.97 26.3756 172.122 26.1675 172.2113 C 25.6526 172.427 26.1248 172.863 26.273 173.2544 C 26.4497 173.7123 26.7831 174.4068 27.2448 174.5626 C 27.7417 174.7336 28.401 174.7849 28.9425 174.6851 C 29.5733 174.5683 30.0112 174.5293 30.6658 174.5103 C 31.8685 174.4714 33.0018 175.0518 34.1428 175.4793 C 34.9256 175.7748 35.7179 176.0246 36.4826 176.3438 C 37.1229 176.6146 37.6587 176.6573 38.338 176.7599 C 39.1892 176.8863 40.3624 176.8958 41.225 176.9784 C 42.1342 177.0715 42.7393 177.0525 43.6589 176.9784 C 44.5073 176.9138 45.2378 177.138 46.0339 176.7951 C 46.3142 176.6744 47.0428 176.815 47.3183 176.6877 C 47.8475 176.4445 48.6483 176.0123 49.0996 175.6446 C 49.6857 175.1639 49.9916 174.9597 50.231 174.1028 C 50.4296 173.3941 50.574 172.654 50.517 171.9928 C 50.4685 171.4551 50.1104 170.9279 49.8624 170.4044 C 49.7437 170.1479 49.5508 170.0187 49.3095 169.8867 C 49.111 169.7793 48.0698 169.5494 47.9776 169.766 " stroke-width="0.949999988079071"/>
      <path id="Shoe_Right" fill="#0B1938" d="M 16.2818 178.3721 C 16.887 178.4405 17.5235 178.8281 18.0555 179.1197 C 18.6549 179.4484 18.9466 179.7657 19.4995 180.1286 C 19.8386 180.3471 20.2452 180.8003 20.5815 181.0321 C 20.9549 181.2867 21.3092 181.5498 21.7187 181.7503 C 22.4568 182.1103 22.7171 182.192 23.4904 182.3203 C 23.7783 182.3687 24.4699 182.2386 24.7131 182.4096 C 25.0095 182.6157 24.9677 182.8304 24.9952 183.18 C 25.0247 183.5325 25.1111 183.8555 24.9287 184.1709 C 24.7131 184.5461 24.2238 185.156 23.9122 185.4515 C 23.5522 185.7887 23.2605 185.8058 22.9043 186.1383 C 22.5718 186.4461 21.9581 186.771 21.5258 186.8765 C 20.4276 187.1491 20.2234 187.4427 19.1318 187.7543 C 18.3243 187.9842 16.7255 188.3072 15.8733 188.3053 C 15.2929 188.3034 14.7618 188.1941 14.2032 188.0716 C 13.5686 187.9329 12.9207 187.6545 12.3811 187.2926 C 11.8225 186.9192 11.7351 186.7435 11.6449 186.0956 C 11.6097 185.841 11.4292 185.6263 11.2943 185.4068 C 11.1604 185.1912 11.2611 184.7238 11.0416 184.624 C 10.5144 184.3846 10.0213 184.1101 9.5055 183.8507 C 8.9117 183.5486 8.3531 183.1943 7.7413 182.9321 C 7.159 182.6832 6.6488 182.325 6.0674 182.1065 C 5.715 181.9726 5.164 181.8358 5.088 181.414 C 5.0319 181.11 5.7169 179.4437 5.6874 179.1207 C 6.5168 179.3696 6.1064 179.8408 6.9338 180.1248 C 7.2863 180.2455 7.7964 180.7984 8.1793 180.8335 C 8.6058 180.8725 8.6951 180.9637 9.0751 180.787 C 9.4608 180.6074 10.0175 180.7946 10.4279 180.6331 C 10.9105 180.444 11.5917 180.0564 12.0344 179.8113 C 12.9673 179.2993 14.2051 179.1653 15.157 178.7036 C 15.3423 178.6124 16.3597 178.5288 16.3407 178.3436 M 8.4586 185.0762 C 8.375 184.7922 8.1603 184.8891 7.9038 184.7779 C 7.614 184.6611 7.6796 184.4388 7.4193 184.2773 C 6.9072 183.96 6.2356 183.7225 5.6922 183.465 C 5.1839 183.2237 5.0405 183.1126 4.5123 182.8323 C 4.3004 182.7212 3.8539 182.6148 3.7846 182.3725 C 3.7181 182.1426 3.796 181.4577 3.7285 181.2145 C 3.5746 180.691 4.4467 178.7967 4.7004 178.3426 C 4.2938 178.0624 3.5851 177.367 3.1006 177.2425 C 2.7386 177.1532 2.01 179.1577 1.9758 179.5026 C 1.9482 179.7752 1.9568 179.9111 1.8067 180.1524 C 1.6471 180.4051 1.82 180.5922 1.7991 180.9095 C 1.7791 181.2401 1.5872 181.7854 1.6176 182.1084 C 1.6699 182.6965 1.8105 183.0784 2.3225 183.4669 C 2.8175 183.8384 3.2184 184.2982 3.6972 184.6839 C 4.3166 185.1845 5.0481 185.404 5.7758 185.7175 C 6.152 185.879 6.4341 185.745 6.835 185.8581 C 7.2787 185.9882 8.0301 186.125 8.507 186.0215 C 8.7445 185.9673 8.4329 186.0471 8.488 185.7897 C 8.5232 185.6329 8.5982 185.1152 8.4586 185.0762 " stroke-width="0.949999988079071"/>
      <path id="Shoe_Trim_Right" fill="#A2C6DD" d="M 24.8461 182.3763 C 24.8128 182.7772 24.9962 183.5448 24.7701 183.9666 C 24.5364 184.4122 24.4661 184.7333 24.0481 185.0553 C 23.8011 185.2463 23.7156 185.5731 23.4914 185.7916 C 23.2349 186.0443 22.0702 186.5022 21.7158 186.6855 C 20.6917 187.2109 20.0733 187.3591 18.9732 187.6982 C 18.2664 187.9186 16.9563 188.0991 16.2229 188.216 C 14.7514 188.4459 13.8536 188.0136 12.4875 187.3477 C 11.4891 186.8613 11.7731 186.4537 11.3523 185.5626 C 11.1319 185.099 10.7566 184.6402 10.3092 184.4122 C 9.6594 184.0816 9.0362 183.7215 8.3759 183.4014 C 7.6853 183.067 6.76 182.4295 6.0598 182.1084 C 5.4974 181.8538 5.0652 181.9697 5.1193 181.2496 C 5.1364 181.0121 5.4499 180.6426 5.3739 180.5001 C 5.2979 180.3576 5.8195 179.1843 5.6798 179.1273 C 5.524 179.0627 4.8543 178.3502 4.6909 178.3483 C 4.2472 178.3445 3.6535 180.8554 3.6763 181.2183 C 3.7114 181.68 3.8226 182.2614 4.0344 182.667 C 4.1788 182.9473 4.5113 182.7601 4.7764 182.8988 C 5.1345 183.086 5.7558 183.5629 6.1254 183.7225 C 6.7172 183.9799 7.0174 184.2754 7.5912 184.5727 C 8.0235 184.7931 8.4111 185.1532 8.5631 185.6244 C 8.6315 185.8229 8.793 185.9141 8.5745 186.0405 C 8.4282 186.126 7.7242 185.9996 7.5257 186.0129 C 6.8616 186.0538 6.7001 186.0262 6.1026 185.7811 C 5.334 185.4657 4.3812 185.2168 3.7057 184.7323 C 3.1699 184.3466 2.3548 183.37 1.6756 183.237 C 1.648 183.484 1.8133 184.0996 1.8931 184.3314 C 1.9862 184.5908 2.2399 184.7656 2.2589 185.042 C 2.294 185.6206 2.2551 185.7859 2.7918 186.0348 C 4.005 186.5934 4.8343 187.0313 5.8499 187.1349 C 6.8873 187.246 8.1099 187.7676 9.1302 188.0592 C 9.8057 188.2502 10.3529 188.5437 10.9856 188.8325 C 11.661 189.1403 12.1303 189.5469 12.7317 189.9364 C 13.03 190.1312 13.1031 190.2281 13.3881 190.4447 C 13.6104 190.6157 14.0056 190.9254 14.2773 191.0194 C 14.6317 191.1439 14.8435 191.2379 15.1941 191.3291 C 15.4506 191.3956 16.0643 191.3814 16.3189 191.4051 C 17 191.4697 17.5653 191.388 18.2341 191.3253 C 19.2031 191.2303 20.2139 190.8503 21.0993 190.4532 C 21.9457 190.0732 22.6544 189.7464 23.4486 189.26 C 23.8144 189.032 24.2951 188.9408 24.6124 188.653 C 24.9354 188.3632 25.1729 188.1134 25.5415 187.892 C 26.9228 187.0475 28.1749 185.7764 27.6666 184.0939 C 27.488 183.5021 27.0149 182.8418 26.4183 182.6803 C 25.8464 182.5264 25.3116 182.344 24.715 182.4115 " stroke-width="0.949999988079071"/>
      <g id="Right_Shoe_Lines">
        <g id="ID0.419582181610167">
          <path id="ID0.4403289402835071" fill="#010101" d="M 3.3362 177.3337 C 3.4359 177.2226 2.9609 177.0421 2.8669 177.1542 C 0.4748 179.7819 0.4862 185.6747 4.251 186.9211 C 7.7727 188.0849 10.8858 189.3465 14.1985 191.103 C 15.3546 191.7167 16.6884 191.5191 17.9149 191.3595 C 19.7351 191.1201 30.5157 187.1453 27.754 183.7576 C 26.8411 182.6366 26.1637 182.4438 24.7663 182.2566 C 21.0442 181.7503 19.8861 179.6926 16.9867 178.4842 C 16.7825 178.3968 16.4747 178.4994 16.8034 178.6381 C 19.3902 179.7106 20.7611 182.0524 23.6538 182.4191 C 30.9869 183.3501 25.4968 187.7296 23.9084 188.6368 C 21.5353 189.9953 16.3664 192.6021 13.7159 190.515 C 11.5746 188.8287 9.2442 187.7932 6.5757 187.2014 C 3.6459 186.5516 1.5768 185.0268 1.8447 181.8225 C 1.9777 180.1666 2.1553 178.6324 3.3362 177.3337 L 3.3362 177.3337 Z " stroke-width="0.949999988079071"/>
          <path id="ID0.35521741211414337" fill="#010101" d="M 8.4833 186.1098 C 8.7464 186.0823 8.2904 185.8609 8.1641 185.8742 C 5.8166 186.106 3.4939 184.4625 1.9302 182.9055 C 1.8352 182.8086 1.3402 182.7611 1.4704 182.8884 C 3.2374 184.6516 5.8575 186.3673 8.4833 186.1098 L 8.4833 186.1098 Z " stroke-width="0.949999988079071"/>
          <path id="ID0.8785057663917542" fill="#010101" d="M 24.1136 182.2595 C 23.7631 182.1873 23.9816 182.4409 24.1934 182.4894 C 25.1035 182.6784 24.1602 184.3191 23.9578 184.6212 C 23.2415 185.6994 22.0284 186.4214 20.8428 186.8755 C 19.5736 187.36 18.217 187.8759 16.8594 188.0127 C 12.4191 188.4744 11.9365 187.3724 11.3855 184.7399 C 11.3561 184.5993 10.8545 184.5138 10.8849 184.662 C 11.2782 186.5364 11.7902 187.4968 13.713 188.026 C 15.9769 188.6473 18.3034 188.2188 20.4723 187.3895 C 22.2146 186.7235 24.7254 185.6396 25.0408 183.4907 C 25.1643 182.6423 24.8651 182.4191 24.1136 182.2595 L 24.1136 182.2595 Z " stroke-width="0.949999988079071"/>
          <path id="ID0.8026964832097292" fill="#010101" d="M 5.3511 181.6477 C 5.2124 181.585 4.7441 181.6087 5.0509 181.7493 C 6.0494 182.2129 7.0089 182.7326 7.9788 183.2541 C 8.8899 183.7443 10.009 184.1519 10.825 184.7865 C 10.9248 184.8663 11.434 184.9071 11.2183 184.7399 C 10.3538 184.0702 9.2404 183.6693 8.279 183.1496 C 7.3081 182.6271 6.3486 182.1113 5.3511 181.6477 L 5.3511 181.6477 Z " stroke-width="0.949999988079071"/>
          <path id="ID0.638680403586477" fill="#010101" d="M 4.2672 182.5863 C 4.1294 182.516 3.6696 182.5359 3.9708 182.6879 C 5.4461 183.4451 6.8787 184.2782 8.3085 185.1256 C 8.4443 185.2054 8.8984 185.1959 8.6068 185.024 C 7.177 184.1804 5.7482 183.3453 4.2672 182.5863 L 4.2672 182.5863 Z " stroke-width="0.949999988079071"/>
          <path id="ID0.4716231836937368" fill="#010101" d="M 3.8387 182.6566 C 3.9109 182.7972 4.3935 182.8399 4.3375 182.7326 C 3.701 181.5194 3.9128 179.3762 4.9312 178.4338 C 5.0348 178.3369 4.5693 178.1479 4.46 178.2524 C 3.4169 179.2223 3.1832 181.4007 3.8387 182.6566 L 3.8387 182.6566 Z " stroke-width="0.949999988079071"/>
          <path id="ID0.41779879201203585" fill="#010101" d="M 4.9607 181.6657 C 5.011 181.8101 5.506 181.8757 5.4594 181.7436 C 5.3255 181.3465 5.4889 180.8088 5.5839 180.4155 C 5.6827 180.0032 5.7919 179.59 5.9344 179.1891 C 5.9829 179.0608 5.4851 178.9088 5.4319 179.0532 C 5.2742 179.4912 5.1535 179.9453 5.0557 180.4003 C 4.9721 180.786 4.8296 181.2743 4.9607 181.6657 L 4.9607 181.6657 Z " stroke-width="0.949999988079071"/>
          <path id="ID0.9989668913185596" fill="#010101" d="M 8.2562 185.9502 C 8.2657 186.1212 8.7626 186.1934 8.7569 186.0861 C 8.7398 185.7859 8.698 185.479 8.755 185.1826 C 8.7863 185.0287 8.2781 184.9081 8.2524 185.0439 C 8.1954 185.3432 8.2382 185.6481 8.2562 185.9502 L 8.2562 185.9502 Z " stroke-width="0.949999988079071"/>
        </g>
      </g>
      <g id="Left_Shoe_Lines">
        <g id="ID0.027031132485717535">
          <path id="ID0.9186049276031554" fill="#010101" d="M 26.4155 172.2769 C 26.4079 172.1287 25.9072 172.0707 25.911 172.141 C 26.0089 173.8035 26.6378 174.9986 28.4808 174.8523 C 32.9448 174.4866 37.3167 176.834 41.9052 177.0117 C 45.6625 177.1618 50.8989 177.1561 50.7098 172.0926 C 50.6899 171.5672 50.2329 170.0795 49.6354 169.8658 C 45.9731 168.5462 42.29 168.1472 38.7788 166.1456 C 38.6895 166.0933 38.1812 166.0363 38.395 166.1589 C 40.5657 167.3967 42.8571 168.4389 45.2863 169.0754 C 46.3921 169.367 49.528 169.6729 49.8938 170.9108 C 50.6671 173.5214 49.662 176.169 46.6039 176.6326 C 41.2507 177.4439 37.1334 175.8698 31.9236 174.4752 C 30.2383 174.0249 26.6112 175.5525 26.4155 172.2769 L 26.4155 172.2769 Z " stroke-width="0.949999988079071"/>
          <path id="ID0.36077943071722984" fill="#010101" d="M 48.3833 169.7594 C 48.3681 169.6093 47.8731 169.5589 47.8788 169.6273 C 48.0194 171.1929 48.1106 172.8858 46.374 173.6686 C 44.6526 174.4438 42.8191 173.9745 41.0132 173.8928 C 40.6788 173.8776 41.1006 174.0857 41.2317 174.0933 C 42.8809 174.1674 44.8892 174.7222 46.4766 174.004 C 48.3899 173.1404 48.5533 171.6689 48.3833 169.7594 L 48.3833 169.7594 Z " stroke-width="0.949999988079071"/>
          <path id="ID0.3709067488089204" fill="#010101" d="M 39.8494 171.9615 C 39.7563 171.8446 39.3222 171.8313 39.3545 171.8703 C 39.8884 172.5438 40.447 173.1984 40.8745 173.9489 C 40.9467 174.0752 41.4074 174.1028 41.3713 174.0382 C 40.9438 173.2886 40.3843 172.635 39.8494 171.9615 L 39.8494 171.9615 Z " stroke-width="0.949999988079071"/>
          <path id="ID0.4922998952679336" fill="#010101" d="M 31.3612 170.1859 C 31.0306 170.147 31.4543 170.3693 31.5797 170.3845 C 34.2938 170.7151 37.083 171.2661 39.6917 172.0669 C 39.9853 172.1581 40.0223 172.0042 39.7326 171.9149 C 37.0327 171.0865 34.1665 170.526 31.3612 170.1859 L 31.3612 170.1859 Z " stroke-width="0.949999988079071"/>
          <path id="ID0.045774195343256" fill="#010101" d="M 29.7006 171.0476 C 29.3481 170.9792 29.5989 171.192 29.7956 171.2309 C 32.4622 171.762 35.0538 172.5277 37.691 173.1794 C 37.9846 173.2516 38.0283 173.0996 37.7319 173.0274 C 35.0491 172.3662 32.4109 171.5853 29.7006 171.0476 L 29.7006 171.0476 Z " stroke-width="0.949999988079071"/>
          <path id="ID0.4005035641603172" fill="#010101" d="M 38.5413 174.3925 C 38.7921 174.3735 38.3209 174.1807 38.2145 174.1921 C 36.0637 174.365 33.9224 173.32 31.8542 172.9115 C 30.7874 172.6977 28.0951 173.4292 27.6885 172.0356 C 27.6514 171.9092 27.1631 171.8484 27.1916 171.9463 C 27.5289 173.0986 29.2379 173.091 30.2012 173.0777 C 33.0512 173.0397 35.7122 174.6224 38.5413 174.3925 L 38.5413 174.3925 Z " stroke-width="0.949999988079071"/>
          <path id="ID0.8827786124311388" fill="#010101" d="M 38.1071 173.1471 C 38.0273 173.0245 37.5761 173.0046 37.6122 173.0578 C 37.8649 173.4435 38.0292 173.8719 38.243 174.2823 C 38.3076 174.4087 38.7759 174.4419 38.7379 174.3716 C 38.5251 173.9641 38.3598 173.5337 38.1071 173.1471 L 38.1071 173.1471 Z " stroke-width="0.949999988079071"/>
        </g>
      </g>
    </g>
    <g id="Pants">
      <path id="Pants_2_" fill="#244764" d="M 17.3107 168.5443 C 17.3829 168.5681 17.665 169.0526 18.045 169.691 C 17.9709 170.413 18.2825 170.9193 18.4345 171.5653 C 18.6036 172.2997 18.4811 172.9381 18.4953 173.7161 C 18.5067 174.44 18.6378 175.1155 18.6625 175.8422 C 18.6844 176.5101 19.0986 177.0782 19.1964 177.7052 C 19.3817 178.8832 15.6434 178.6048 14.6782 178.9041 C 13.1345 179.3867 11.4501 180.2863 9.9083 180.7129 C 8.6153 181.071 7.9171 180.7461 6.8056 180.0241 C 5.3568 179.0817 5.8945 179.4494 4.3859 178.0595 C 2.731 176.8739 3.0759 177.2729 2.009 175.8774 C 1.4286 175.1183 1.6119 174.8922 1.8067 173.9945 C 2.0869 172.7158 2.0423 172.0983 2.4603 170.8899 C 2.8441 169.7841 3.188 169.0155 3.7314 167.9325 C 4.2729 166.86 5.4015 164.6503 5.4423 163.3269 C 5.4813 162.0805 5.2362 159.7863 5.3492 158.4876 C 5.5677 155.9787 6.2042 154.7617 6.6574 152.3668 C 7.1419 149.7894 7.5314 148.4613 8.2306 145.9761 C 8.5849 144.7145 9.0134 143.1556 9.3516 141.8664 C 9.6879 140.5858 9.8931 140.1555 10.218 138.6953 C 10.3443 138.1206 10.7025 137.4518 10.9115 136.8419 C 11.1376 136.1816 10.9466 134.8488 11.4159 134.408 C 12.4362 133.4428 13.2694 132.0368 13.4404 130.703 C 13.6256 129.22 13.8299 127.3058 13.8954 125.7953 C 13.9695 124.1014 13.9125 122.7021 13.8717 120.8686 C 13.8109 118.2931 13.4822 117.8067 13.5753 114.97 C 13.562 114.5558 13.7738 113.1793 13.5164 112.2017 C 13.39 111.7248 13.5164 110.9344 13.5363 110.4376 C 13.5658 109.7175 13.0338 111.0095 13.6009 109.0772 C 13.7349 108.6221 13.3948 105.8472 13.9182 105.9431 C 13.77 106.2547 14.1405 103.1672 14.0113 102.8537 C 13.9144 102.6162 14.1557 102.4994 14.4493 102.7093 C 14.492 102.772 19.4349 105.0083 20.0191 104.9561 C 21.0622 105.0026 21.6664 105.1622 22.7152 105.186 C 24.2884 105.2192 25.2574 104.8668 26.7489 104.4678 C 29.2189 103.8161 38.5014 97.7161 41.2383 96.4146 C 41.6022 96.2417 42.3907 109.2805 41.301 113.6581 C 41.1196 114.382 40.7576 116.0606 40.5591 116.6639 C 40.2959 117.4695 40.2285 119.1035 40.086 119.9243 C 39.8295 121.3958 39.9653 122.8854 39.9378 124.3475 C 39.8912 126.8213 39.0343 136.7678 38.9992 138.3286 C 38.9697 139.6814 38.6258 151.7806 38.8225 154.547 C 38.9175 155.8647 36.7629 158.6624 37.1153 159.9487 C 38.2287 164.0214 39.592 164.6284 38.4976 166.0848 C 38.0558 166.669 29.5818 172.3187 25.3771 172.1762 C 24.1013 172.1334 22.5813 168.4246 23.3213 167.6912 C 24.8746 166.1551 22.4882 164.8118 23.613 164.2085 C 27.0178 162.3826 22.6335 152.5672 23.0287 151.9963 C 23.4002 151.4624 21.9581 154.3523 21.3833 155.1132 C 19.0197 158.2207 19.4092 158.2302 20.2519 162.9374 C 20.497 164.3178 17.8636 167.4984 16.9877 168.1349 " stroke-width="0.949999988079071"/>
      <g id="Pants_Lines_2_">
        <g id="ID0.6234929403290153">
          <path id="ID0.8592615588568151" fill="#010101" d="M 35.0405 107.8792 C 35.2258 107.8146 34.7698 107.6066 34.632 107.6512 C 33.7504 107.9552 32.7244 108.1728 32.0737 108.8967 C 31.0572 110.0177 30.6373 111.626 30.2107 113.0358 C 30.1642 113.1859 30.6667 113.3275 30.7133 113.1736 C 31.1256 111.8113 31.5407 109.9825 32.6465 108.9784 C 33.3182 108.3694 34.2017 108.1652 35.0405 107.8792 L 35.0405 107.8792 Z " stroke-width="0.949999988079071"/>
          <path id="ID0.5684274360537529" fill="#010101" d="M 32.4793 109.1446 C 32.5069 108.9812 32.0005 108.8644 31.9749 109.004 C 31.1655 113.7388 30.6857 118.5335 28.7278 122.9795 C 27.3246 126.1686 24.8442 129.7682 24.3882 133.2509 C 24.3663 133.4162 24.8727 133.5273 24.8907 133.3886 C 25.4256 129.3217 28.4722 125.5255 29.8079 121.677 C 31.231 117.5873 31.7545 113.394 32.4793 109.1446 L 32.4793 109.1446 Z " stroke-width="0.949999988079071"/>
          <path id="ID0.07213236205279827" fill="#010101" d="M 14.036 107.3377 C 14.0531 107.1705 13.5477 107.0632 13.5316 107.2019 C 12.8248 113.4567 14.0693 119.6763 13.6313 125.9216 C 13.4052 129.1963 13.2694 131.6121 11.2155 134.2436 C 10.2854 135.4349 9.7848 139.0326 9.4884 140.545 C 9.457 140.7046 9.9634 140.829 9.9909 140.6808 C 11.0502 135.3171 13.8859 131.6729 14.1358 126.0575 C 14.4151 119.8103 13.3311 113.5773 14.036 107.3377 L 14.036 107.3377 Z " stroke-width="0.949999988079071"/>
          <path id="ID0.7564879674464464" fill="#010101" d="M 26.7926 128.4382 C 26.8078 128.2672 26.3005 128.1655 26.2901 128.3023 C 26.0934 130.664 26.8021 133.1673 26.2787 135.4777 C 25.778 137.6893 24.8128 139.7508 24.4822 142.0013 C 24.4566 142.1666 24.9648 142.2797 24.9848 142.1372 C 25.3543 139.6235 26.8164 137.2589 26.8905 134.7044 C 26.9522 132.6096 26.6178 130.5329 26.7926 128.4382 L 26.7926 128.4382 Z " stroke-width="0.949999988079071"/>
          <path id="ID0.1437738207168877" fill="#010101" d="M 41.4901 96.4498 C 41.4749 96.3035 40.9723 96.2009 40.9894 96.3757 C 41.4255 100.7732 42.1209 105.3161 41.643 109.7374 C 41.2184 113.6761 39.9492 117.3963 39.7725 121.3749 C 39.7649 121.5497 40.2712 121.6438 40.2769 121.5108 C 40.4973 116.4786 42.3622 111.7771 42.2529 106.6984 C 42.1779 103.2613 41.8273 99.8698 41.4901 96.4498 L 41.4901 96.4498 Z " stroke-width="0.949999988079071"/>
          <path id="ID0.7655309536494315" fill="#010101" d="M 39.2785 154.6135 C 39.3364 154.4853 38.8443 154.3219 38.774 154.4758 C 37.7205 156.7843 37.3101 159.7359 35.6324 161.6787 C 33.8568 163.7326 32.5021 164.5505 29.6445 164.6826 C 29.3073 164.6997 29.6816 164.9438 29.8507 164.9372 C 32.562 164.8146 34.0905 164.1952 35.8461 162.1632 C 37.6863 160.0333 38.1166 157.15 39.2785 154.6135 L 39.2785 154.6135 Z " stroke-width="0.949999988079071"/>
          <path id="ID0.28207068191841245" fill="#010101" d="M 38.775 154.509 C 38.812 154.661 39.3146 154.7408 39.2756 154.5831 C 37.7803 148.3749 39.1588 140.6618 39.6689 134.3329 C 40.0546 129.5459 40.1401 124.7845 40.3368 119.9898 C 40.3444 119.815 39.8399 119.721 39.8342 119.854 C 39.5929 125.7639 39.3241 131.6197 38.9013 137.524 C 38.5118 142.939 37.4915 149.1805 38.775 154.509 L 38.775 154.509 Z " stroke-width="0.949999988079071"/>
          <path id="ID0.2182865059003234" fill="#010101" d="M 37.3015 159.8775 C 37.2664 159.7255 36.7638 159.6438 36.8009 159.7977 C 37.0213 160.7667 37.1315 162.071 37.7233 162.8928 C 39.6794 165.6164 37.749 166.5218 35.4804 167.7596 C 32.144 169.5779 28.9235 171.8712 25.0009 172.0812 C 24.6618 172.1011 25.037 172.3443 25.2052 172.3358 C 29.4422 172.1116 33.1272 169.5874 36.7239 167.5487 C 37.483 167.1165 39.5112 166.194 39.2452 164.9866 C 39.0191 163.9568 38.2971 163.4447 37.976 162.4501 C 37.7024 161.5989 37.5001 160.7439 37.3015 159.8775 L 37.3015 159.8775 Z " stroke-width="0.949999988079071"/>
          <path id="ID0.3547217482700944" fill="#010101" d="M 5.7758 169.7689 C 5.7758 169.9456 6.2821 170.0301 6.2802 169.9066 C 6.2802 164.3349 5.1355 159.4063 6.6973 153.8991 C 7.9408 149.5073 8.3009 144.7221 10.0023 140.4585 C 10.0546 140.3208 9.5606 140.165 9.4979 140.3208 C 7.6587 144.9368 6.6925 150.5057 5.6789 155.3536 C 4.6405 160.3449 5.7758 164.7975 5.7758 169.7689 L 5.7758 169.7689 Z " stroke-width="0.949999988079071"/>
          <path id="ID0.6217189715243876" fill="#010101" d="M 19.4805 177.5342 C 19.4824 177.3594 18.976 177.2729 18.9779 177.3936 C 18.9665 178.3588 14.1244 178.9668 13.3796 179.229 C 12.2462 179.628 11.1157 180.1904 9.9577 180.5134 C 7.8126 181.1109 6.6013 179.6821 5.2267 178.5545 C 1.9986 175.9087 1.6214 173.2687 3.2431 169.596 C 4.1636 167.5174 5.3673 165.6734 5.6922 163.3915 C 5.7178 163.2262 5.2115 163.1132 5.1915 163.2557 C 4.6291 167.1801 0.6923 170.8984 1.6119 175.0718 C 2.0185 176.9129 3.3713 177.4154 4.8334 178.6124 C 5.6741 179.305 6.6365 180.3547 7.6663 180.7632 C 9.7667 181.5964 11.8282 180.0488 13.7852 179.4589 C 14.4721 179.2518 19.4615 178.9088 19.4805 177.5342 L 19.4805 177.5342 Z " stroke-width="0.949999988079071"/>
          <path id="ID0.4656782392412424" fill="#010101" d="M 24.8983 141.9348 C 24.9173 141.7676 24.41 141.6603 24.3958 141.8028 C 24.0956 144.382 24.0528 147.1019 23.4106 149.6251 C 22.7608 152.1834 21.4346 154.0302 20.288 156.3587 C 19.1432 158.6852 19.661 159.5222 19.8709 161.9979 C 20.1493 165.2507 18.3329 165.8036 16.754 168.0427 C 16.6485 168.1833 17.1359 168.3467 17.2214 168.2261 C 18.0118 167.1032 19.9583 166.061 20.2737 164.656 C 20.7725 162.4368 19.166 159.7948 20.1768 157.7352 C 21.5315 154.985 23.3555 152.8665 23.9141 149.76 C 24.3787 147.1655 24.5943 144.5511 24.8983 141.9348 L 24.8983 141.9348 Z " stroke-width="0.949999988079071"/>
          <path id="ID0.10645968606695533" fill="#010101" d="M 16.678 165.7067 C 16.7169 165.5509 16.2125 165.4207 16.1754 165.5708 C 15.6805 167.6675 17.799 168.4674 18.0498 170.3655 C 18.3861 172.9096 18.1666 175.1953 18.9437 177.6672 C 18.9903 177.8192 19.489 177.8876 19.4425 177.7413 C 18.7452 175.5221 18.938 173.3922 18.6407 171.1359 C 18.3794 169.158 16.1982 167.7292 16.678 165.7067 L 16.678 165.7067 Z " stroke-width="0.949999988079071"/>
          <path id="ID0.4505338678136468" fill="#010101" d="M 23.2805 152.0324 C 23.2567 151.8823 22.7513 151.7892 22.7798 151.9583 C 23.4163 155.9397 25.4075 159.677 23.9483 163.7478 C 23.898 163.8903 24.3977 164.0375 24.4528 163.8865 C 25.9129 159.8081 23.9189 156.0309 23.2805 152.0324 L 23.2805 152.0324 Z " stroke-width="0.949999988079071"/>
          <path id="ID0.6645388244651258" fill="#010101" d="M 23.7308 167.0167 C 23.7811 167.1687 24.2799 167.2343 24.2314 167.087 C 24.0367 166.5123 23.803 165.9385 23.6823 165.3409 C 23.6082 164.9771 23.4952 164.5429 23.859 164.2912 C 24.0595 164.1506 24.2542 164.0147 24.4357 163.8532 C 24.5506 163.7516 24.0832 163.5616 23.9645 163.668 C 23.7365 163.8741 23.4781 164.0318 23.232 164.2133 C 23.0078 164.3862 23.061 164.56 23.1019 164.826 C 23.2187 165.5832 23.4857 166.2938 23.7308 167.0167 L 23.7308 167.0167 Z " stroke-width="0.949999988079071"/>
          <path id="ID0.6285690264776349" fill="#010101" d="M 25.9965 172.2161 C 26.1837 172.1306 25.7201 171.932 25.5909 171.99 C 24.5202 172.4707 23.65 169.5038 23.5218 168.8008 C 23.2102 167.0775 24.9211 166.6044 26.1618 166.0135 C 26.349 165.9242 25.8844 165.7276 25.7552 165.7893 C 24.9211 166.1864 23.3432 166.593 23.0648 167.6409 C 22.8444 168.4664 23.1133 169.2939 23.4325 170.0662 C 23.822 171.0115 24.6732 172.8079 25.9965 172.2161 L 25.9965 172.2161 Z " stroke-width="0.949999988079071"/>
          <path id="ID0.6392893409356475" fill="#010101" d="M 13.6674 105.8738 C 13.6484 106.0448 14.1576 106.1483 14.1681 106.0096 C 14.2716 104.8848 14.3058 103.7515 14.4797 102.6362 C 14.5072 102.4709 13.999 102.3559 13.979 102.5003 C 13.8042 103.6175 13.7672 104.7509 13.6674 105.8738 L 13.6674 105.8738 Z " stroke-width="0.949999988079071"/>
        </g>
      </g>
    </g>
    <g id="Face_1_">
      <path id="Face" fill="#D8AD8C" d="M 32.0157 42.4565 C 31.8305 42.4271 31.6557 42.3767 31.4476 42.3824 C 31.4125 41.858 31.6633 41.2453 31.6927 40.662 C 31.7241 40.0445 31.7801 39.3975 31.934 38.8028 C 32.2067 37.7331 32.5373 36.539 32.8508 35.4731 C 33.1054 34.6124 33.8008 34.1982 34.3204 33.4467 C 34.8477 32.6829 35.4063 31.3672 35.8385 30.5549 C 36.3658 29.5584 36.6327 28.9266 36.6289 27.7771 C 36.627 26.9734 36.7277 27.0133 37.4621 26.8765 C 38.0036 26.7768 38.3209 26.6124 38.6629 26.1773 C 39.6129 24.9737 40.7396 21.2449 38.7056 20.4279 C 37.3395 19.8807 37.5048 21.8719 37.3395 22.7136 C 37.1448 23.6959 36.7752 24.3191 36.5064 25.3185 C 36.2945 24.5747 35.9383 23.7814 35.9259 22.9701 C 35.9202 22.5531 35.9449 22.1066 36.0038 21.7218 C 36.0665 21.3067 36.2024 20.9324 36.171 20.4792 C 35.8015 21.0825 35.2856 22.4068 35.2856 23.2703 C 34.937 21.966 34.6843 20.5343 34.8923 19.1407 C 35.0149 18.3227 34.9142 17.539 34.9142 16.6982 C 34.9142 16.0798 34.7489 14.9806 34.3204 14.5645 C 34.0554 14.7498 34.0326 15.2932 33.8103 15.5991 C 33.5262 15.9867 33.2032 16.1843 32.7995 16.4484 C 32.1411 16.8778 31.3821 17.8914 30.6154 17.7432 C 30.1167 18.1859 28.8142 18.4538 28.0618 18.5355 C 29.2341 17.8772 30.3865 15.8746 30.1414 14.3859 C 27.0244 18.5393 21.295 17.3585 16.8157 18.679 C 16.8822 18.3474 16.5003 18.8842 16.4405 19.1891 C 16.3702 19.5501 16.4205 20.0375 16.4405 20.4061 C 16.4794 21.1898 16.4186 21.909 16.3645 22.7079 C 16.1621 22.4828 15.9303 22.2709 15.671 22.5597 C 15.1399 22.7526 15.0867 23.1753 14.6583 23.4309 C 14.4018 24.2127 14.6288 25.6453 14.9537 26.3806 C 15.1304 26.7796 15.3252 27.2185 15.5475 27.5862 C 15.9683 28.2787 16.1783 27.8322 16.7017 28.1619 C 17.0409 28.3766 16.9877 29.1926 17.0836 29.5698 C 17.21 30.079 17.3914 30.5625 17.6603 31.0461 C 17.9215 31.5163 18.0146 32.0825 18.2816 32.5233 C 18.5618 32.985 19.0625 33.5636 19.4301 33.973 C 20.1075 34.7292 20.4267 35.1586 21.2095 35.8531 C 22.2336 36.7632 21.9201 37.545 21.6997 38.7373 C 21.2912 40.9299 23.175 42.8318 24.411 44.5038 C 25.1178 45.4595 25.5358 46.5757 26.3129 47.5162 C 26.9532 48.2914 27.7208 49.458 28.5596 49.9748 C 30.2592 51.0189 33.1149 50.5752 33.8017 48.3361 C 34.0953 47.3785 33.6887 46.0551 33.4939 45.1469 C 33.3695 44.5722 33.2469 44.0449 32.9353 43.5443 C 32.7311 43.2203 31.9559 42.4157 31.8922 42.4546 " stroke-width="0.949999988079071"/>
      <g id="Face_Lines">
        <g id="ID0.5532046933658421">
          <path id="ID0.619843615218997" fill="#010101" d="M 33.0123 35.5662 C 33.0455 35.3866 32.5411 35.2641 32.5097 35.4313 C 32.2219 36.9798 31.7269 38.4846 31.4837 40.0445 C 31.307 41.1807 30.9888 42.7691 31.7877 43.7476 C 31.8875 43.8711 32.3948 43.9119 32.2551 43.7419 C 31.3574 42.6408 31.8713 40.6515 32.1326 39.3947 C 32.3995 38.1131 32.7748 36.8525 33.0123 35.5662 L 33.0123 35.5662 Z " stroke-width="0.949999988079071"/>
          <path id="ID0.5102072060108185" fill="#010101" d="M 22.9185 22.5398 C 22.7665 22.4315 22.3286 22.4866 22.6088 22.6813 C 23.7764 23.4898 24.6779 26.526 23.8353 27.7676 C 23.7222 27.9339 24.2105 28.0982 24.3027 27.9624 C 25.265 26.545 24.2447 23.4584 22.9185 22.5398 L 22.9185 22.5398 Z " stroke-width="0.949999988079071"/>
          <path id="ID0.332657678052783" fill="#010101" d="M 24.8708 30.839 C 25.0931 30.9378 25.3895 30.7829 25.0665 30.6414 C 24.8565 30.5473 24.639 30.4856 24.4091 30.4637 C 23.897 30.4143 23.4629 30.0894 23.5484 29.5061 C 23.6652 28.7119 24.2352 28.1229 24.6171 27.4465 C 24.6912 27.3145 24.2067 27.1444 24.1146 27.3107 C 23.612 28.197 22.7171 29.0416 23.1997 30.1303 C 23.5009 30.8114 24.3226 30.5958 24.8708 30.839 L 24.8708 30.839 Z " stroke-width="0.949999988079071"/>
          <path id="ID0.5862181512638927" fill="#010101" d="M 27.3712 29.0169 C 27.2562 28.9048 26.7584 28.8886 26.9684 29.0919 C 27.4063 29.5213 27.3075 30.3051 26.6178 30.3972 C 26.139 30.4628 25.6764 30.1046 25.208 30.0153 C 24.8622 29.9498 25.0456 30.2414 25.2793 30.2861 C 26.0326 30.4295 26.5808 30.9587 27.3598 30.5027 C 27.9592 30.1521 27.7873 29.4254 27.3712 29.0169 L 27.3712 29.0169 Z " stroke-width="0.949999988079071"/>
          <path id="ID0.31095556542277336" fill="#010101" d="M 29.8193 37.8984 C 30.0236 37.7816 29.5562 37.5802 29.4184 37.659 C 27.7208 38.6299 26.0412 39.0299 24.2124 38.0561 C 24.0528 37.9706 23.6035 38.0381 23.9027 38.1967 C 25.9348 39.2807 27.8557 39.0223 29.8193 37.8984 L 29.8193 37.8984 Z " stroke-width="0.949999988079071"/>
          <path id="ID0.3282556086778641" fill="#010101" d="M 23.9445 38.1967 C 24.1022 38.2946 24.5459 38.2357 24.2542 38.0552 C 21.6123 36.4031 18.8848 33.8695 17.875 30.8152 C 17.0399 28.2863 16.8319 25.4715 16.7027 22.8191 C 16.6951 22.6566 16.1906 22.5521 16.202 22.7545 C 16.5203 29.3418 18.1571 34.5782 23.9445 38.1967 L 23.9445 38.1967 Z " stroke-width="0.949999988079071"/>
          <path id="ID0.8891440383158624" fill="#010101" d="M 37.274 24.2498 C 37.293 24.0626 36.7857 23.9553 36.7695 24.1139 C 36.2575 29.8377 34.385 34.3882 29.4184 37.6581 C 29.2199 37.7892 29.6854 37.9849 29.8193 37.8975 C 34.8543 34.5848 36.7524 30.0885 37.274 24.2498 L 37.274 24.2498 Z " stroke-width="0.949999988079071"/>
          <path id="ID0.5408914615400136" fill="#010101" d="M 37.5951 20.7167 C 37.5485 20.8868 38.053 21.0226 38.0995 20.8516 C 38.3465 19.9453 39.2889 21.2506 39.3725 21.4862 C 39.4656 21.756 39.5416 22.0325 39.554 22.3203 C 39.5796 22.954 39.4932 23.5962 39.2889 24.1975 C 39.0495 24.8977 38.0568 27.2765 36.9339 26.6552 C 36.7724 26.5659 36.3249 26.6314 36.6223 26.7958 C 38.546 27.8617 39.8456 24.8036 40.0157 23.3625 C 40.142 22.3222 40.0043 21.3143 39.1654 20.6008 C 38.5954 20.1144 37.8497 19.7876 37.5951 20.7167 L 37.5951 20.7167 Z " stroke-width="0.949999988079071"/>
          <path id="ID0.06448117131367326" fill="#010101" d="M 16.8803 28.1609 C 17.0884 28.0564 16.621 27.8484 16.4794 27.9215 C 15.7004 28.3177 14.949 25.8116 14.8711 25.347 C 14.7818 24.8283 14.7172 24.2517 14.891 23.7425 C 14.9765 23.4926 15.7926 22.1579 15.9712 22.8153 C 16.0196 22.9806 16.5222 23.0575 16.4737 22.8799 C 16.3065 22.2652 15.7261 22.0401 15.2064 22.4828 C 14.4103 23.1611 14.1576 24.0351 14.3286 25.0639 C 14.4835 25.9721 15.3907 28.919 16.8803 28.1609 L 16.8803 28.1609 Z " stroke-width="0.949999988079071"/>
          <path id="ID0.21311503509059548" fill="#010101" d="M 22.1395 36.6739 C 22.1395 36.482 21.637 36.3889 21.637 36.538 C 21.6351 37.6239 21.5163 38.5919 21.1563 39.6208 C 21.0974 39.7823 21.5999 39.9286 21.6588 39.7566 C 22.0189 38.7278 22.1376 37.7597 22.1395 36.6739 L 22.1395 36.6739 Z " stroke-width="0.949999988079071"/>
          <path id="ID0.5705566462129354" fill="#010101" d="M 16.2087 22.9027 C 16.1954 23.0917 16.6989 23.1972 16.7112 23.0385 C 16.8205 21.6544 16.3768 20.2313 16.7093 18.8566 C 16.7521 18.6818 16.2476 18.5507 16.2068 18.7208 C 15.8752 20.0945 16.3189 21.5214 16.2087 22.9027 L 16.2087 22.9027 Z " stroke-width="0.949999988079071"/>
        </g>
      </g>
    </g>
    <g id="Eyes">
      <path id="Eye_Whites_2_" fill="#FFFFFF" d="M 22.7703 24.2897 C 22.947 24.3628 23.043 24.606 23.0354 24.7913 C 23.0164 25.2653 22.3096 25.689 21.9087 25.8135 C 21.4356 25.9579 20.8418 25.9275 20.3459 25.8809 C 19.6135 25.8097 19.0045 25.6805 18.3253 25.3432 C 17.7629 25.0611 17.5111 24.7447 17.2366 24.0845 C 17.1273 23.8261 17.4218 23.599 17.5349 23.3549 C 17.685 23.0395 17.6593 22.8305 17.9709 22.6129 C 18.3975 22.3165 18.8915 22.2386 19.4149 22.288 C 20.0277 22.346 20.8361 22.5293 21.352 22.8856 C 21.8897 23.2608 22.6098 23.7586 22.9157 24.3191 M 27.6828 23.8489 C 27.583 24.3172 28.097 24.5889 28.4827 24.7837 C 29.5885 25.3451 30.9669 25.1665 32.0955 24.8283 C 32.5591 24.6887 33.0493 24.3543 33.3628 23.9667 C 33.5709 23.7054 33.5424 23.6152 33.4854 23.276 C 33.4426 23.0072 33.5262 22.6167 33.398 22.3773 C 33.2754 22.1512 32.9211 21.9717 32.7187 21.8187 C 32.4499 21.6154 32.1582 21.5128 31.8077 21.4929 C 31.231 21.4596 30.5698 21.5565 30.0435 21.7655 C 29.1458 22.1227 27.8006 22.9188 27.7407 23.9961 " stroke-width="0.949999988079071"/>
      <path id="Right_Iris_2_" fill="#33512E" d="M 21.6864 23.1972 C 21.941 23.2694 21.3615 24.2146 21.256 24.3723 C 21.0318 24.7096 20.4875 24.7628 20.1369 24.6469 C 19.7455 24.5177 19.4558 24.2868 19.3427 23.8422 C 19.2458 23.4537 19.4168 22.9445 19.7598 22.7573 C 20.0324 22.6072 20.402 22.5911 20.6927 22.6196 C 21.1116 22.6623 21.3529 22.7877 21.6854 23.0252 " stroke-width="0.949999988079071"/>
      <path id="Left_Iris_2_" fill="#33512E" d="M 31.6965 22.6737 C 31.9578 22.7469 31.3602 23.7054 31.2548 23.866 C 31.0211 24.208 30.4606 24.2612 30.1005 24.1443 C 29.6977 24.0142 29.3994 23.7805 29.2826 23.3292 C 29.1828 22.9359 29.1401 22.3992 29.4944 22.2092 C 29.7766 22.0562 30.2535 21.7674 30.5499 21.7969 C 30.9821 21.8387 31.4885 22.3403 31.726 22.6576 " stroke-width="0.949999988079071"/>
      <g id="Irises_Lines_2_">
        <g id="ID0.11867089569568634">
          <path id="ID0.1478263670578599" fill="#010101" d="M 19.6325 23.1791 C 19.6657 23.0053 19.2876 22.9093 19.2563 23.0775 C 19.1062 23.9467 19.4862 24.8739 20.496 24.8388 C 21.465 24.8036 21.979 23.9382 21.8061 23.0404 C 21.7785 22.878 21.3919 22.8267 21.428 23.0091 C 21.5467 23.6484 21.3016 24.4493 20.5578 24.5557 C 19.718 24.6763 19.5194 23.846 19.6325 23.1791 L 19.6325 23.1791 Z " stroke-width="0.949999988079071"/>
          <path id="ID0.34266500314697623" fill="#010101" d="M 31.8191 22.5854 C 31.7896 22.4229 31.403 22.3716 31.4372 22.554 C 31.5673 23.2447 31.1826 23.961 30.4188 23.9838 C 29.5115 24.0104 29.3833 23.0414 29.5296 22.3498 C 29.5685 22.1778 29.1904 22.08 29.1534 22.2481 C 28.9472 23.2162 29.3225 24.2308 30.4397 24.2507 C 31.3716 24.2678 31.9901 23.4803 31.8191 22.5854 L 31.8191 22.5854 Z " stroke-width="0.949999988079071"/>
          <path id="ID0.9813915276899934" fill="#010101" d="M 29.3472 22.1028 C 29.1657 22.193 29.5011 22.384 29.6407 22.3137 C 29.9485 22.1598 30.32 21.9593 30.6762 21.9527 C 31.0971 21.946 31.2956 22.3023 31.4533 22.6386 C 31.5198 22.7839 31.9027 22.7925 31.8134 22.6015 C 31.6186 22.1883 31.3365 21.7893 30.8558 21.7076 C 30.3238 21.6164 29.8117 21.87 29.3472 22.1028 L 29.3472 22.1028 Z " stroke-width="0.949999988079071"/>
          <path id="ID0.980126641690731" fill="#010101" d="M 19.2506 23.124 C 19.2021 23.2922 19.5812 23.3938 19.6258 23.2257 C 19.8766 22.3422 20.8076 22.6671 21.37 23.0452 C 21.5201 23.144 21.8336 23.0252 21.6208 22.8818 C 20.8979 22.3982 19.5726 21.9783 19.2506 23.124 L 19.2506 23.124 Z " stroke-width="0.949999988079071"/>
        </g>
      </g>
      <g id="Eyes_Lines_2_">
        <g id="ID0.3358455407433212">
          <path id="ID0.38443158753216267" fill="#010101" d="M 28.1416 24.3248 C 28.0637 24.1909 27.5906 24.1548 27.6448 24.245 C 28.2623 25.309 29.845 25.4316 30.9384 25.2691 C 31.8628 25.1304 34.0107 24.5908 33.777 23.2437 C 33.1757 19.7772 28.0419 21.5242 27.4557 24.0902 C 27.4244 24.2317 27.9288 24.36 27.9602 24.226 C 28.1587 23.352 28.9662 22.611 29.7044 22.1588 C 30.2706 21.8121 30.9992 21.4416 31.6899 21.5052 C 32.4176 21.5727 33.3742 22.4733 33.2802 23.2884 C 33.0655 25.1209 29.008 25.8144 28.1416 24.3248 L 28.1416 24.3248 Z " stroke-width="0.949999988079071"/>
          <path id="ID0.74415472894907" fill="#010101" d="M 23.442 24.9262 C 23.4961 24.8416 23.0278 24.6516 22.9375 24.7894 C 21.9391 26.3065 16.9411 25.8819 17.6992 23.6551 C 18.5504 21.1509 22.4663 22.7972 22.9394 24.8179 C 22.9727 24.9575 23.4724 25.0373 23.4382 24.8977 C 23.1266 23.5658 21.3634 22.5635 20.1369 22.2614 C 18.9865 21.9774 17.0494 22.1949 17.1463 23.8527 C 17.2812 26.2543 22.3058 26.6495 23.442 24.9262 L 23.442 24.9262 Z " stroke-width="0.949999988079071"/>
        </g>
      </g>
    </g>
    <g id="Eyebrows">
      <g id="Eyebrows_Lines">
        <g id="ID0.17155854078009725">
          <path id="ID0.6449868394993246" fill="#010101" d="M 33.5965 20.882 C 33.7856 21.129 34.7954 21.224 34.5294 20.8763 C 33.6554 19.7325 32.6123 18.3949 31.1484 18.0007 C 29.5638 17.5732 28.2575 18.1498 27.0073 19.1264 C 26.7499 19.3278 27.6752 19.724 27.944 19.5121 C 29.1629 18.5602 30.6069 17.8639 31.9483 19.0381 C 32.5743 19.5872 33.0921 20.2227 33.5965 20.882 L 33.5965 20.882 Z " stroke-width="0.949999988079071"/>
          <path id="ID0.29044049559161067" fill="#010101" d="M 16.8917 20.9485 C 16.7435 21.1946 17.7059 21.5413 17.8997 21.2174 C 18.3044 20.5381 18.8345 19.6613 19.6163 19.3554 C 20.3953 19.0495 21.1952 19.2965 21.9562 19.5568 C 22.3979 19.7088 23.0135 19.4029 22.3438 19.173 C 21.3491 18.831 20.1968 18.4529 19.1451 18.7673 C 18.064 19.0913 17.4427 20.027 16.8917 20.9485 L 16.8917 20.9485 Z " stroke-width="0.949999988079071"/>
        </g>
      </g>
    </g>
    <g id="Hair_1_">
      <path id="Hair_3_" fill="#A15927" d="M 22.0483 36.7366 C 21.8422 37.2078 20.6138 36.7366 20.3507 37.1109 C 19.9108 36.7755 18.4602 33.5132 18.312 32.9955 C 18.178 32.53 17.8797 34.6969 17.837 34.2295 C 17.7809 34.6295 17.0523 31.4641 16.9107 31.8013 C 16.6029 31.1069 15.9883 33.7051 15.8733 32.9955 C 15.7489 32.2165 15.5503 28.7148 15.4971 27.931 C 15.8334 28.0564 16.4823 28.3395 16.8423 28.0593 C 17.0836 27.8721 17.1948 29.0359 17.2841 29.3171 C 17.5586 30.1977 18.5865 33.7564 21.7244 36.4725 M 15.0193 26.8908 C 14.7913 25.7508 13.6589 23.2627 15.6596 22.4372 C 16.0548 22.2738 16.2723 22.4885 16.3426 22.6737 C 16.4224 22.8808 16.335 21.6905 16.3236 21.4815 C 16.2771 20.6046 16.5535 19.6746 16.3141 18.8186 C 15.557 18.9013 14.7447 19.3497 13.9743 19.6385 C 13.2342 19.9159 12.2149 19.9748 12.2358 20.883 C 12.2529 21.7351 12.2025 22.7668 12.2158 23.6323 C 12.2234 24.5557 12.3289 25.5266 11.7275 26.24 C 12.4267 26.0453 13.1269 25.0487 13.6389 24.5671 C 13.7672 25.3556 13.6095 25.9427 13.39 26.6286 C 13.1744 27.3116 12.9796 28.2977 12.9673 29.0577 C 13.3881 28.3956 14.3296 26.8433 15.2121 26.8262 M 12.1788 20.3453 C 12.2434 20.1239 12.8191 20.0945 13.029 20.0213 C 13.2779 19.9311 13.4926 19.7753 13.7453 19.6689 C 14.3239 19.4238 14.9499 19.324 15.5066 19.0742 C 17.7515 18.071 20.8428 18.0216 23.6405 17.8164 C 24.4832 17.7556 24.1098 17.5817 24.9667 17.5409 C 25.7381 17.5048 26.1447 17.291 26.7983 16.8911 C 27.3199 16.5728 28.4589 16.0912 28.8408 15.6209 C 29.2417 15.125 29.635 14.612 30.13 14.2548 C 30.1499 14.6747 30.0521 15.0614 30.0302 15.4898 C 30.0084 15.9601 29.8801 16.2061 29.6702 16.6222 C 29.2845 17.3879 28.477 18.0586 27.7512 18.5194 C 28.0447 18.6714 28.7458 18.3959 29.0593 18.2838 C 29.6901 18.0586 30.5565 17.7774 31.156 17.4706 C 31.6509 17.215 32.0575 17.1105 32.5145 16.8018 C 32.7539 16.6403 32.9486 16.3724 33.1662 16.171 C 33.4189 15.9401 33.5889 15.942 33.7932 15.6703 C 33.9509 15.4594 34.1029 15.1811 34.233 14.9616 C 34.3632 14.7441 34.4183 14.4125 34.4116 14.1551 C 34.6197 14.4087 34.651 15.0671 34.6976 15.391 C 34.7622 15.8261 34.8296 16.2441 34.8296 16.6868 C 34.8296 17.7955 34.8059 18.9526 34.861 20.0527 C 34.8762 20.3339 34.8534 20.597 34.9332 20.8659 C 35.0054 21.1062 34.9427 21.5166 34.9607 21.7731 C 34.9921 22.212 34.823 22.8903 35.317 23.182 C 35.6656 22.934 35.5412 22.0287 35.6438 21.6477 C 35.7682 21.1784 36.0893 20.7623 36.1387 20.2484 C 36.3857 21.0084 35.9345 21.9422 35.8955 22.7222 C 35.849 23.6437 35.9734 24.4616 36.3534 25.2634 C 36.3772 25.0164 36.6318 24.5975 36.7819 24.3856 C 37.0346 24.0294 37.1676 23.9496 37.2141 23.505 C 37.2455 23.1953 37.3794 22.9473 37.4013 22.6243 C 37.425 22.3165 37.6407 22.1123 37.6312 21.8083 C 37.5827 20.4631 37.9561 20.37 38.4957 20.2759 C 38.9764 20.1942 39.5331 21.1233 39.7022 21.3912 C 39.9359 21.7579 39.8485 22.6538 39.8114 23.0841 C 39.7164 24.1244 39.4514 25.2758 38.7389 26.1042 C 38.3921 26.5089 38.0207 26.9107 37.5048 26.9867 C 37.2417 27.0257 36.6679 26.716 36.6603 27.0884 C 36.6546 27.3411 36.5415 27.7781 36.4817 28.0355 C 36.4019 28.3823 36.285 28.729 36.2309 29.0758 C 36.1729 29.4358 35.374 31.7396 35.2049 32.0616 C 34.9132 32.6231 33.0484 34.7957 32.8498 35.4759 C 32.6199 36.2701 33.0446 37.5175 33.3856 37.7825 C 33.645 37.9839 34.8163 34.7036 35.0966 34.2419 C 35.0909 33.9398 36.4323 35.9642 36.6736 35.9642 C 37.1638 35.9642 37.5419 33.5997 37.4716 33.1351 C 37.4155 32.7551 37.5827 31.5486 37.4602 31.1762 C 37.2654 30.5901 37.1001 30.3355 37.1581 29.6572 C 37.3604 29.8842 37.4193 29.509 37.4326 29.8073 C 37.4564 30.2652 37.444 29.6135 37.7148 29.9745 C 37.9637 30.3022 38.1309 29.9887 38.4216 30.2775 C 38.6182 30.4723 38.6353 30.326 38.8377 30.4048 C 39.0011 30.4172 39.2177 30.7582 39.2177 30.5008 C 39.2329 30.3241 39.3583 30.5635 39.4751 30.4599 C 39.5046 29.7436 39.4438 29.7759 39.4751 29.0615 C 39.5644 28.9979 39.5312 27.6888 39.5996 27.6023 C 39.5958 27.3297 39.6756 25.1181 40.1639 25.1485 C 40.1876 24.8578 40.4888 24.3875 40.5334 24.0997 C 40.7301 23.9211 40.7538 23.4451 40.8992 23.1601 C 41.1034 22.7611 41.4074 22.3061 41.4796 21.87 C 41.5499 21.4397 41.5186 21.4121 41.7751 21.0863 C 41.9774 20.8279 42.0164 20.5448 42.1389 20.2427 C 42.2672 19.9292 42.3593 19.8228 42.4581 19.4941 C 42.5493 19.1977 42.6234 19.0894 42.7479 18.792 C 42.993 18.2059 43.525 17.5295 43.5962 16.8892 C 43.6371 16.5168 43.6608 16.1586 43.7321 15.79 C 43.7824 15.5364 43.981 15.2799 43.9544 15.0642 C 43.9392 14.9445 44.0807 14.8961 44.0579 14.7745 C 44.0342 14.6329 43.8109 14.5066 43.8242 14.3812 C 43.8594 14.043 43.8242 13.6848 43.8242 13.3457 C 43.8261 12.6389 43.6589 11.9843 43.4271 11.3488 C 43.2951 10.9973 43.5012 10.7721 43.2637 10.4748 C 43.0889 10.2582 42.841 10.1442 42.6918 9.9143 C 42.5598 9.7119 42.3764 9.5514 42.2035 9.3851 C 42.061 9.2474 41.7656 9.0479 41.6801 8.8636 C 41.5765 8.6384 41.719 8.3287 41.7304 8.0903 C 41.7418 7.8613 41.6468 7.468 41.5433 7.2818 C 41.3485 6.9265 41.0797 6.8249 41.0198 6.3917 C 40.9695 6.0136 40.864 5.9537 40.6617 5.645 C 40.5021 5.3989 40.3814 5.2013 40.2332 4.9733 C 40.0717 4.7216 39.7658 4.4622 39.5283 4.2827 C 38.7826 3.7231 37.9656 3.3412 37.2236 2.8757 C 36.513 2.4283 35.8176 2.2164 35.0662 1.8526 C 34.0715 1.37 32.5838 1.2921 31.5113 1.0898 C 30.6373 0.9254 29.8003 0.9359 28.9007 0.9843 C 28.2585 1.0195 27.4424 0.9663 26.8078 1.048 C 25.1396 1.2608 23.5275 1.4565 21.902 1.9143 C 21.0945 2.1404 20.3155 2.4644 19.5622 2.8406 C 18.8924 3.1731 18.2759 3.6823 17.7847 4.2504 C 17.4028 4.694 17.1368 4.942 16.6751 5.3343 C 16.1612 5.7666 15.6919 6.1542 15.3318 6.7451 C 14.645 7.8718 13.1193 8.875 12.9245 10.262 C 12.8504 10.794 12.4419 11.1968 12.2139 11.6699 C 11.8966 12.3263 11.9137 13.0303 11.7579 13.7323 C 11.4387 15.163 10.6721 16.7495 10.9808 18.2515 C 11.3295 18.2049 11.5936 17.577 11.8843 17.4126 C 11.927 18.1869 11.7845 18.5374 11.2706 19.1027 C 11.0388 19.3582 10.8991 19.5938 10.788 19.8921 C 10.6787 20.1904 10.3576 20.4802 10.3301 20.7937 C 10.673 20.6787 11.0464 20.6607 11.3732 20.5381 C 11.6183 20.445 12.0448 20.1714 12.2823 20.3082 " stroke-width="0.949999988079071"/>
      <g id="Hair_Lines_2_">
        <g id="ID0.2748528756201267">
          <path id="ID0.9326276076026261" fill="#010101" d="M 22.4673 2.5071 C 22.6791 2.453 22.3504 2.2763 22.2374 2.3057 C 14.7656 4.2038 11.4644 11.3925 10.7481 18.4709 C 10.7367 18.5963 11.0416 18.6894 11.1119 18.5954 C 11.9004 17.5494 15.7688 13.4597 13.2342 16.3819 C 12.0097 17.7936 10.8963 19.1093 10.1391 20.8288 C 10.0802 20.9599 10.4156 20.9884 10.4764 20.9694 C 13.6066 20.0109 16.8718 18.2714 20.1768 18.1375 C 22.1937 18.0558 24.0044 17.9465 25.9462 17.3718 C 26.975 17.0678 28.3877 16.4104 29.1572 15.5962 C 31.3764 13.2564 28.3943 17.957 27.5821 18.5897 C 27.4595 18.6856 27.8414 18.774 27.9089 18.7531 C 30.7399 17.8458 34.5218 17.0554 34.5123 13.5081 C 34.5123 13.3647 34.1361 13.2944 34.1361 13.4065 C 34.1437 16.5282 31.1503 17.4402 28.6157 18.2515 C 29.9903 17.8116 30.4245 14.7659 30.5717 13.7304 C 30.5888 13.6088 30.2658 13.5072 30.206 13.606 C 27.0795 18.8652 20.8285 17.0127 15.9056 18.7958 C 14.7124 19.2271 13.5268 19.6822 12.3241 20.0916 C 9.7914 20.9561 11.6838 18.6723 12.4467 17.8183 C 13.4138 16.7353 14.3989 15.6494 15.2929 14.5075 C 15.3926 14.3783 15.0402 14.3147 14.9661 14.3441 C 13.6465 14.8676 12.7678 15.7891 11.908 16.9243 C 10.2256 19.1454 11.643 15.2466 11.8396 14.5028 C 13.2979 8.9662 16.5583 4.0081 22.4673 2.5071 L 22.4673 2.5071 Z " stroke-width="0.949999988079071"/>
          <path id="ID0.7514838585630059" fill="#010101" d="M 36.4522 19.723 C 36.4931 19.6005 36.1178 19.4922 36.076 19.6214 C 35.7369 20.6236 35.3436 21.6667 35.2486 22.7298 C 35.2913 22.2548 35.0614 20.3814 35.0795 19.5311 C 35.1203 17.5162 35.2153 15.5658 34.5133 13.6392 C 34.4686 13.5167 34.0924 13.4682 34.1371 13.5908 C 35.2951 16.7723 34.2093 20.1828 35.1906 23.4062 C 35.2182 23.5012 35.5564 23.6142 35.5668 23.4822 C 35.6837 22.1702 36.0314 20.9675 36.4522 19.723 L 36.4522 19.723 Z " stroke-width="0.949999988079071"/>
          <path id="ID0.24817309016361833" fill="#010101" d="M 15.1703 26.981 C 15.3185 26.8927 14.9718 26.7407 14.872 26.8005 C 13.79 27.438 12.8381 28.4792 12.5844 29.736 C 12.707 29.7702 12.8352 29.8035 12.9606 29.8377 C 13.2722 27.9785 13.7121 26.1507 14.1405 24.3172 C 14.1719 24.1785 13.8527 24.1272 13.7748 24.1928 C 12.9635 24.8796 12.1807 25.5655 11.4853 26.3721 C 11.6078 26.4139 11.7285 26.4547 11.851 26.4965 C 12.2795 25.4259 12.517 24.6317 12.478 23.5059 C 12.4429 22.4552 12.2852 21.3247 12.5018 20.2892 C 12.5312 20.1572 12.1512 20.0612 12.1256 20.1876 C 11.9603 20.9694 12.0458 21.8254 12.0714 22.6186 C 12.1218 24.0712 12.0192 25.025 11.4701 26.3958 C 11.4235 26.5155 11.7684 26.5991 11.8358 26.5203 C 12.5312 25.7137 13.315 25.0278 14.1253 24.341 C 14.0047 24.2992 13.8821 24.2583 13.7615 24.2165 C 13.3311 26.051 12.8932 27.8797 12.5797 29.737 C 12.5578 29.8709 12.9321 29.964 12.9578 29.8386 C 13.1953 28.6464 14.1386 27.5871 15.1703 26.981 L 15.1703 26.981 Z " stroke-width="0.949999988079071"/>
          <path id="ID0.820079789031297" fill="#010101" d="M 17.5672 4.4052 C 17.4703 4.5088 17.8303 4.6465 17.9158 4.5515 C 21.8289 0.2661 29.9542 0.5188 34.9769 1.9875 C 35.203 2.054 35.2495 1.8706 35.0253 1.806 C 29.8336 0.2861 21.579 0.0144 17.5672 4.4052 L 17.5672 4.4052 Z " stroke-width="0.949999988079071"/>
          <path id="ID0.49994486616924405" fill="#010101" d="M 35.1612 1.8222 C 34.994 1.7462 34.7736 1.8611 35.0149 1.9704 C 36.4693 2.6335 38.0891 3.2082 39.3193 4.258 C 40.7054 5.4407 41.3086 6.9493 41.4682 8.7363 C 41.4796 8.8598 41.8596 8.9348 41.8463 8.7866 C 41.4787 4.7149 38.5004 3.346 35.1612 1.8222 L 35.1612 1.8222 Z " stroke-width="0.949999988079071"/>
          <path id="ID0.7576102619059384" fill="#010101" d="M 41.8074 8.7325 C 41.7162 8.6555 41.3419 8.6479 41.5053 8.7895 C 47.97 14.4059 38.6942 23.6807 39.2918 30.5283 C 39.3032 30.6518 39.6832 30.7269 39.6699 30.5787 C 39.0571 23.5848 48.4735 14.5246 41.8074 8.7325 L 41.8074 8.7325 Z " stroke-width="0.949999988079071"/>
          <path id="ID0.9402813506312668" fill="#010101" d="M 37.673 17.4031 C 37.6578 17.2787 37.2778 17.2065 37.2968 17.3537 C 37.54 19.4665 37.7233 21.8054 36.9481 23.8432 C 36.7847 24.2745 36.1834 25.0497 36.3306 25.5342 C 36.457 25.5513 36.5833 25.5674 36.7087 25.5845 C 36.2081 24.398 35.9183 23.1031 36.1853 21.8168 C 36.3278 21.1328 36.4484 20.5077 36.3971 19.8123 C 36.3876 19.6888 36.0076 19.6128 36.019 19.762 C 36.0969 20.787 35.6105 21.738 35.6903 22.7421 C 35.7682 23.7292 35.9468 24.6193 36.3306 25.5342 C 36.3772 25.6434 36.7496 25.7213 36.7087 25.5845 C 36.5491 25.062 37.3262 24.0161 37.4678 23.5145 C 38.0235 21.5214 37.9067 19.4352 37.673 17.4031 L 37.673 17.4031 Z " stroke-width="0.949999988079071"/>
          <path id="ID0.6853775070048869" fill="#010101" d="M 18.6492 32.4806 C 18.7015 32.3789 18.3395 32.2535 18.2711 32.377 C 17.8199 33.2168 17.5919 34.2846 17.9244 35.2014 C 18.0469 35.2185 18.1752 35.2346 18.3006 35.2517 C 17.7885 33.9597 17.3658 32.6402 16.9364 31.3197 C 16.9031 31.2199 16.6039 31.1116 16.5602 31.2437 C 16.3075 31.9866 16.0776 32.719 15.9465 33.4923 C 16.069 33.517 16.1973 33.5427 16.3227 33.5683 C 16.1203 31.6208 15.7384 29.6971 15.7954 27.7296 C 15.8011 27.5871 15.4221 27.513 15.4192 27.628 C 15.3632 29.6182 15.7422 31.5515 15.9465 33.5189 C 15.9579 33.6272 16.3027 33.7175 16.3227 33.5949 C 16.4547 32.8207 16.6865 32.0882 16.9364 31.3463 C 16.8119 31.3216 16.6875 31.2959 16.5602 31.2703 C 16.9924 32.5917 17.4114 33.9122 17.9244 35.2023 C 17.969 35.3211 18.3452 35.3771 18.3006 35.2527 C 17.9776 34.3568 18.2056 33.2995 18.6492 32.4806 L 18.6492 32.4806 Z " stroke-width="0.949999988079071"/>
          <path id="ID0.33514932822436094" fill="#010101" d="M 35.2904 34.0376 C 35.3094 33.8999 34.9284 33.8134 34.9123 33.9369 C 34.8087 34.7245 34.614 35.4465 34.1722 36.1143 C 33.8084 36.6653 33.4559 37.203 33.1681 37.7987 C 33.2944 37.8234 33.4208 37.849 33.5462 37.8737 C 33.3695 37.2733 33.1158 36.6311 32.8004 36.0915 C 32.7415 35.988 32.3606 35.9452 32.4499 36.0953 C 32.7539 36.6169 32.999 37.2458 33.1681 37.8253 C 33.2013 37.9355 33.4873 38.0219 33.5462 37.9003 C 33.8711 37.223 34.3052 36.6283 34.6909 35.988 C 35.051 35.3895 35.2001 34.7226 35.2904 34.0376 L 35.2904 34.0376 Z " stroke-width="0.949999988079071"/>
          <path id="ID0.2123167417012155" fill="#010101" d="M 39.5084 30.6547 C 39.7677 30.705 39.629 30.4865 39.4523 30.4523 C 38.6249 30.2937 38.0036 30.0324 37.2778 29.6011 C 37.159 29.5299 36.8265 29.5764 37.046 29.7066 C 37.4431 29.9441 37.8516 30.2129 38.2914 30.3659 C 38.6876 30.5027 39.0961 30.5758 39.5084 30.6547 L 39.5084 30.6547 Z " stroke-width="0.949999988079071"/>
          <path id="ID0.634241396561265" fill="#010101" d="M 37.3519 29.679 C 37.3329 29.5536 36.9529 29.4843 36.9738 29.6287 C 37.2816 31.8251 37.6283 33.9616 36.4209 36.0241 C 36.5415 36.0412 36.6622 36.0564 36.7847 36.0735 C 36.2746 35.3163 35.8851 34.6304 35.2524 33.9569 C 35.1707 33.8695 34.8011 33.8543 34.9522 34.0148 C 35.5754 34.6789 35.9411 35.3439 36.4351 36.0773 C 36.494 36.1675 36.7334 36.2388 36.799 36.1267 C 38.0273 34.0281 37.6635 31.9001 37.3519 29.679 L 37.3519 29.679 Z " stroke-width="0.949999988079071"/>
          <path id="ID0.9508941625244915" fill="#010101" d="M 11.8358 17.8097 C 11.8634 17.9351 12.2443 17.9988 12.2139 17.8601 C 12.1693 17.6425 12.136 17.4288 12.1265 17.2065 C 12.1246 17.0858 11.7427 17.006 11.7503 17.158 C 11.7617 17.3803 11.7931 17.5922 11.8358 17.8097 L 11.8358 17.8097 Z " stroke-width="0.949999988079071"/>
          <path id="ID0.710912061855197" fill="#010101" d="M 20.1759 37.1118 C 20.2557 37.1992 20.6338 37.2258 20.5264 37.108 C 19.3684 35.8502 18.862 34.2894 18.502 32.6497 C 18.4744 32.5243 18.0954 32.4616 18.1258 32.5993 C 18.4934 34.2618 19.0055 35.8379 20.1759 37.1118 L 20.1759 37.1118 Z " stroke-width="0.949999988079071"/>
        </g>
      </g>
    </g>
    <g id="Mouth_1_">
      <path id="Teeth" fill="#FFFFFF" d="M 22.2687 32.0284 C 22.5157 32.5623 22.8387 32.4777 23.3859 32.5575 C 24.1336 32.6668 24.8926 32.7656 25.6602 32.7637 C 26.976 32.7608 28.2452 32.9926 29.5666 32.91 C 29.7595 32.8986 31.1512 32.6905 30.6278 32.4388 C 30.4406 32.3485 30.0901 32.4967 29.8915 32.4996 C 29.6189 32.5034 29.4203 32.4188 29.1553 32.3789 C 27.9991 32.206 26.8487 32.0198 25.6811 31.845 C 25.0959 31.7586 24.4623 31.7709 23.8666 31.7918 C 23.4287 31.8099 22.7646 31.8232 22.2687 32.0284 " stroke-width="0.949999988079071"/>
      <path id="Mouth" fill="#6B1818" d="M 30.4197 32.8824 C 30.4701 33.2548 30.0397 33.4828 29.8003 33.6842 C 29.483 33.9531 29.1676 34.1564 28.8598 34.4414 C 28.3649 34.9021 27.7426 35.3258 27.1432 35.6422 C 26.5865 35.9357 26.0355 36.0336 25.4246 35.9063 C 24.8385 35.7847 23.8049 35.4132 23.8049 34.7416 C 23.8049 34.3568 22.3096 32.453 22.7751 32.4996 C 23.4895 32.5699 26.0982 32.7371 27.0349 32.7941 C 27.6134 32.8283 28.2024 32.9119 28.7943 32.9119 C 29.3994 32.9119 29.9561 32.8235 30.566 32.8235 " stroke-width="0.949999988079071"/>
      <g id="Mouth_Lines">
        <g id="ID0.6258435747586191">
          <path id="ID0.40344471810385585" fill="#010101" d="M 30.5812 32.9442 C 30.5147 33.08 30.8852 33.195 30.9593 33.0458 C 31.0838 32.7893 31.0486 32.5984 30.9669 32.3314 C 30.9223 32.1842 30.5366 32.1357 30.5869 32.2944 C 30.6591 32.529 30.6943 32.7143 30.5812 32.9442 L 30.5812 32.9442 Z " stroke-width="0.949999988079071"/>
          <path id="ID0.006437159143388271" fill="#010101" d="M 21.8593 31.9543 C 21.6047 31.997 21.826 32.2317 21.9951 32.2022 C 24.049 31.8583 25.911 31.9153 27.9288 32.3732 C 28.9102 32.5965 29.8364 32.7124 30.8415 32.5889 C 31.0961 32.5575 30.871 32.32 30.7028 32.34 C 29.2854 32.5138 28.0438 32.0882 26.671 31.8593 C 25.0456 31.5876 23.4809 31.6826 21.8593 31.9543 L 21.8593 31.9543 Z " stroke-width="0.949999988079071"/>
          <path id="ID0.2035354427061975" fill="#010101" d="M 31.0192 32.6202 C 31.1379 32.4977 30.7779 32.3514 30.6705 32.4625 C 30.0264 33.1304 29.3586 33.7688 28.6717 34.391 C 27.6628 35.3059 25.3933 37.3949 24.0462 34.9553 C 23.5104 33.9844 23.2558 32.8796 22.4027 32.1224 C 22.2934 32.0255 21.9201 32.0616 22.093 32.2136 C 23.423 33.3926 23.3489 35.9091 25.5168 36.121 C 27.8832 36.3509 29.5258 34.1716 31.0192 32.6202 L 31.0192 32.6202 Z " stroke-width="0.949999988079071"/>
        </g>
      </g>
      <g id="Teeth_Lines">
        <g id="ID0.8499576221220195">
          <path id="ID0.8418437051586807" fill="#010101" d="M 30.7294 32.8273 C 30.947 32.7475 30.642 32.5499 30.5033 32.5984 C 29.4906 32.967 28.0742 32.7029 26.9893 32.6915 C 25.4721 32.6753 23.9911 32.5851 22.492 32.3314 C 22.2345 32.2877 22.3457 32.5385 22.5366 32.5708 C 24.0614 32.8292 25.5842 32.9233 27.1289 32.9328 C 28.268 32.9404 29.6274 33.2263 30.7294 32.8273 L 30.7294 32.8273 Z " stroke-width="0.949999988079071"/>
        </g>
      </g>
      <g id="Tongue_Lines">
        <g id="ID0.5117707918398082">
          <path id="ID0.2045809612609446" fill="#010101" d="M 26.4145 32.8463 C 26.5295 32.7741 26.3034 32.6554 26.2179 32.7095 C 25.3021 33.289 24.3236 33.764 23.6909 34.6789 C 23.6206 34.7796 23.8638 34.8717 23.9227 34.7862 C 24.5459 33.8828 25.5111 33.4173 26.4145 32.8463 L 26.4145 32.8463 Z " stroke-width="0.949999988079071"/>
        </g>
      </g>
    </g>
    <g id="Left_Arm">
      <path id="Skin_Arm_Left_2_" fill="#D8AD8C" d="M 40.8659 64.1925 C 40.9676 66.0878 41.1348 68.0818 41.4245 69.9353 C 41.6041 71.0952 41.6934 71.9873 41.9166 73.1472 C 42.0059 73.6089 42.176 74.6444 42.3337 75.0919 C 42.4714 75.4871 42.2501 75.7084 42.5047 76.059 C 43.2409 77.0774 43.8442 77.2379 44.2622 78.4929 C 44.513 79.2557 44.9984 81.0028 45.2682 81.7571 C 45.5371 82.5047 45.4126 83.6599 45.5333 84.4484 C 45.6283 85.0621 45.633 85.5105 45.6112 86.147 C 45.5817 86.9612 45.6691 87.1227 45.6758 87.9558 C 45.6872 89.0094 45.8278 89.9261 45.8648 90.9151 C 45.9038 91.9392 45.8762 92.5909 46.4937 93.4307 C 47.1074 94.2676 47.6537 95.3117 47.9871 96.3158 C 48.3196 97.3124 48.351 98.5949 48.2636 99.7415 C 48.1838 100.7656 47.4656 101.0791 47.2138 102.0586 C 46.9763 102.9772 47.4589 104.6806 47.0485 105.4909 C 46.8519 105.8842 46.5089 105.3332 46.2325 105.5555 C 45.9817 105.756 45.5276 106.6727 45.1894 106.7193 C 44.3059 107.2446 44.6678 107.3349 43.7406 107.4612 C 42.9911 107.5667 42.0411 107.2864 41.9983 106.5188 C 41.9204 105.072 42.1617 104.2255 41.5528 99.5924 C 41.4302 98.6538 41.6734 96.9561 41.9052 96.0147 C 41.9793 95.7164 42.2425 95.0314 42.271 94.7008 C 42.2928 94.4396 42.4192 94.0349 42.3821 93.7993 C 42.3004 93.2777 42.2966 92.8588 42.1389 92.3486 C 41.872 91.4822 41.0255 90.2463 41.0502 89.3637 C 41.0635 88.903 40.9505 88.5486 41.0616 88.0926 C 41.1994 87.5274 41.3067 87.3307 41.1205 86.7702 C 40.8289 85.8867 40.9049 85.7775 40.4641 84.9405 C 40.1658 84.3753 40.1819 84.6194 39.8485 83.9763 C 39.6015 83.5013 39.4789 83.088 39.2291 82.6083 C 38.698 81.5842 38.2439 80.2019 37.9152 79.0847 C 37.578 77.9286 37.2303 76.6261 36.8759 75.4519 C 36.7182 74.9323 36.6964 73.6536 36.5843 73.1377 C 36.4636 72.5848 36.2746 71.5275 36.2185 70.9746 C 36.115 69.9315 36.3449 69.0613 36.1055 68.0951 C 35.9867 67.6163 36.2499 66.1134 36.2983 65.6536 C 36.3686 64.9744 36.8313 65.3363 37.4763 65.1568 C 38.0406 65.001 38.185 65.1568 38.6876 64.8186 C 39.0942 64.5459 40.3482 63.8771 40.8061 63.8914 " stroke-width="0.949999988079071"/>
      <g id="Left_Arm_Lines_2_">
        <g id="ID0.5197582384571433">
          <path id="ID0.14484025724232197" fill="#010101" d="M 41.0426 63.7042 C 41.0312 63.5475 40.5344 63.4886 40.5401 63.5684 C 40.8669 67.8139 41.4065 71.9683 42.2102 76.1502 C 42.2339 76.2784 42.7317 76.3639 42.707 76.2357 C 41.9071 72.0766 41.3675 67.9279 41.0426 63.7042 L 41.0426 63.7042 Z " stroke-width="0.949999988079071"/>
          <path id="ID0.6261288621462882" fill="#010101" d="M 42.5303 75.318 C 42.4448 75.1935 41.9907 75.1717 42.0335 75.2325 C 44.0693 78.1347 45.082 80.7634 45.2597 84.3591 C 45.3974 87.1664 45.4193 89.9641 45.8724 92.7419 C 45.8924 92.8702 46.3921 92.9595 46.3693 92.8274 C 45.3309 86.4491 46.4234 80.8755 42.5303 75.318 L 42.5303 75.318 Z " stroke-width="0.949999988079071"/>
          <path id="ID0.02083563432097435" fill="#010101" d="M 47.2414 99.638 C 47.2765 99.5249 46.7778 99.3786 46.7369 99.504 C 46.299 100.8939 46.7778 102.3369 46.9507 103.7325 C 46.9934 104.0811 47.1302 104.7347 46.9801 105.0929 C 46.7388 105.661 46.0862 104.5732 46.0501 104.4839 C 45.7736 103.799 45.5456 103.133 45.4373 102.3987 C 45.4183 102.2723 44.9196 102.1802 44.9405 102.3132 C 45.0573 103.115 45.6976 105.9555 47.1226 105.5802 C 47.8389 105.3893 47.4884 104.0422 47.4029 103.513 C 47.1986 102.2429 46.8424 100.9034 47.2414 99.638 L 47.2414 99.638 Z " stroke-width="0.949999988079071"/>
          <path id="ID0.8306916817091405" fill="#010101" d="M 44.9395 102.2875 C 44.9528 102.4433 45.4497 102.5013 45.4421 102.4215 C 45.3794 101.689 44.9557 101.0079 44.702 100.3267 C 44.2793 99.1972 44.019 98.0629 44.4607 96.8982 C 44.5016 96.7908 44.0057 96.6341 43.9582 96.7623 C 43.5905 97.7313 43.676 98.725 44.0085 99.6959 C 44.2935 100.5262 44.8626 101.404 44.9395 102.2875 L 44.9395 102.2875 Z " stroke-width="0.949999988079071"/>
          <path id="ID0.4397914852015674" fill="#010101" d="M 46.6571 105.2952 C 46.7037 105.223 46.2363 105.0321 46.1527 105.1575 C 45.6891 105.8994 45.0953 106.6974 44.2859 107.1002 C 43.4955 107.4916 42.7289 107.3007 41.8938 107.2019 C 41.5613 107.1629 41.9736 107.3985 42.1095 107.4175 C 42.9018 107.5087 43.791 107.7586 44.5453 107.3824 C 45.4715 106.9226 46.1156 106.1578 46.6571 105.2952 L 46.6571 105.2952 Z " stroke-width="0.949999988079071"/>
          <path id="ID0.7837719591334462" fill="#010101" d="M 44.9006 102.3559 C 44.9452 102.2799 44.4759 102.089 44.3961 102.2201 C 43.9914 102.8841 43.6855 103.6061 43.277 104.2683 C 43.0414 104.6521 42.8429 105.0957 42.3289 105.0796 C 42.1133 105.072 41.9556 105.1356 41.7665 105.2354 C 41.6943 105.2724 42.1057 105.4786 42.2396 105.4102 C 42.4695 105.2895 42.9654 105.4007 43.1469 105.2373 C 43.3673 105.0387 43.5421 104.7917 43.6979 104.5362 C 44.1339 103.8275 44.4674 103.0646 44.9006 102.3559 L 44.9006 102.3559 Z " stroke-width="0.949999988079071"/>
          <path id="ID0.528677782509476" fill="#010101" d="M 43.297 101.4449 C 43.334 101.3299 42.8353 101.1855 42.7944 101.309 C 42.6624 101.7156 42.5066 102.1384 42.1893 102.4376 C 42.004 102.6162 41.7998 102.7701 41.6231 102.9535 C 41.5376 103.0466 42.0031 103.2299 42.0962 103.1321 C 42.3118 102.9041 42.5845 102.7312 42.7811 102.4861 C 43.0338 102.1773 43.1763 101.8211 43.297 101.4449 L 43.297 101.4449 Z " stroke-width="0.949999988079071"/>
          <path id="ID0.6360611985437572" fill="#010101" d="M 41.1946 89.0436 C 41.1595 88.9125 40.6655 88.8422 40.6997 88.9581 C 41.2469 90.9968 42.3384 92.6659 41.9594 94.8557 C 41.7067 96.3215 41.3951 97.7731 41.2279 99.2513 C 41.2127 99.3919 41.72 99.4945 41.7323 99.3872 C 41.9328 97.5945 42.8087 95.4589 42.6139 93.6777 C 42.4344 92.0427 41.6193 90.6158 41.1946 89.0436 L 41.1946 89.0436 Z " stroke-width="0.949999988079071"/>
          <path id="ID0.9711203705519438" fill="#010101" d="M 48.7167 98.5037 C 48.7319 98.3631 48.2246 98.2624 48.2123 98.3659 C 48.0413 99.9135 47.3145 101.0563 46.7464 102.4623 C 46.7056 102.564 47.1996 102.7255 47.2509 102.5982 C 47.8171 101.1903 48.5438 100.0493 48.7167 98.5037 L 48.7167 98.5037 Z " stroke-width="0.949999988079071"/>
          <path id="ID0.4278274942189455" fill="#010101" d="M 46.3693 92.8284 C 46.2952 92.7001 45.8297 92.6688 45.8724 92.7429 C 46.945 94.5811 47.9244 96.2474 48.2161 98.3925 C 48.2332 98.5189 48.7319 98.6129 48.7129 98.478 C 48.4232 96.3329 47.4418 94.6666 46.3693 92.8284 L 46.3693 92.8284 Z " stroke-width="0.949999988079071"/>
        </g>
      </g>
    </g>
    <g id="Right_Arm">
      <path id="Skin_Arm_Right" fill="#D8AD8C" d="M 13.1924 65.2394 C 12.5597 65.0542 12.6319 65.7904 12.3707 66.3357 C 11.8434 67.433 11.604 68.3469 11.1309 69.4403 C 10.6037 70.6516 10.6189 70.7599 10.1828 71.9635 C 10.0859 72.2238 10.6616 73.8445 10.578 74.0953 C 10.4868 74.3699 10.8763 74.7613 10.7547 75.0282 C 10.484 75.6229 10.6208 75.6334 10.8383 76.4143 C 10.9827 76.9349 10.5562 77.5248 10.6825 78.0863 C 10.8231 78.7085 10.3339 79.175 10.4488 79.7744 C 10.7053 81.0997 10.2579 82.1257 10.009 83.3521 C 9.5302 85.7148 9.172 87.8333 9.0371 90.2985 C 8.9744 91.5155 8.5716 93.2929 8.4434 94.527 C 8.3132 95.7867 8.2135 99.1516 7.861 97.9726 C 7.7204 97.5071 12.4685 101.9104 12.1674 101.557 C 11.49 100.759 13.6057 105.5964 13.9249 106.5948 C 14.2849 107.7196 13.0936 107.218 12.1807 106.99 C 11.6762 106.8618 9.7468 100.5196 10.598 106.9606 C 10.6683 107.5002 11.4568 110.3445 11.5698 110.829 C 11.7798 111.7201 13.2247 115.1372 11.9451 114.7924 C 11.643 115.1296 10.0669 114.5311 9.0428 114.1302 C 8.3151 113.8443 7.7974 113.184 7.0649 112.9893 C 6.5272 112.8449 6.4731 112.8819 6.0133 112.5903 C 5.5126 112.2711 4.6272 112.5589 4.2358 112.1191 C 3.6791 111.494 2.1278 108.0521 1.991 107.1354 C 1.8114 105.9365 1.4552 105.072 1.6461 103.8028 C 1.8352 102.5526 2.1506 102.7302 2.3197 101.4468 C 2.637 99.029 3.112 98.688 2.7776 96.3453 C 2.6161 95.2081 2.7092 93.6273 2.6009 92.4626 C 2.4802 91.1934 2.4745 89.8226 2.1591 88.5648 C 2.0128 87.9853 2.1202 87.421 1.9435 86.8405 C 1.7744 86.2772 1.7934 85.8316 1.6727 85.2379 C 1.4314 84.058 1.4352 82.4088 1.2386 81.2099 C 0.8747 78.9907 -0.0971 75.2125 0.6562 72.8575 C 1.0771 71.5474 0.8766 72.2913 1.3887 71.0525 C 1.9245 69.7576 2.0717 68.2357 2.6265 67.0235 C 3.1557 65.8664 3.1908 64.8442 3.4521 63.6662 C 3.6003 62.987 3.6269 62.6013 3.9622 62.0189 C 4.2795 61.4698 4.1722 61.7387 4.3128 61.6741 C 5.0861 62.5424 4.5389 62.2602 5.2333 62.6554 C 5.961 63.0715 7.2853 64.012 8.0634 64.279 C 8.8205 64.5412 9.3715 64.8414 10.1857 64.8841 C 10.5999 64.906 11.2041 65.0304 11.5907 64.9934 C 11.8434 64.9706 11.9508 65.1777 12.2082 65.1454 C 12.3716 65.1235 13.1288 65.2888 12.8647 65.2147 " stroke-width="0.949999988079071"/>
      <g id="Right_Arm_Lines">
        <g id="ID0.6422691652551293">
          <path id="ID0.590569575317204" fill="#010101" d="M 13.2067 65.1188 C 13.2998 64.924 12.802 64.7749 12.7041 64.9829 C 11.5299 67.4197 10.8079 69.8061 9.932 72.3549 C 9.8617 72.5677 10.3605 72.7074 10.4365 72.4908 C 11.3124 69.941 12.0325 67.5546 13.2067 65.1188 L 13.2067 65.1188 Z " stroke-width="0.949999988079071"/>
          <path id="ID0.8460732926614583" fill="#010101" d="M 1.9311 69.0556 C 1.8827 69.2807 2.3871 69.4118 2.4356 69.1914 C 3.016 66.6388 3.4825 64.2799 4.3669 61.8071 C 4.441 61.5952 3.9423 61.4537 3.8644 61.6712 C 2.9818 64.145 2.5116 66.5029 1.9311 69.0556 L 1.9311 69.0556 Z " stroke-width="0.949999988079071"/>
          <path id="ID0.47427193028852344" fill="#010101" d="M 9.9577 70.3561 C 9.9092 70.1443 9.3953 70.0759 9.4532 70.3115 C 10.6683 75.8015 10.3035 79.9701 9.4903 85.463 C 8.8747 89.6174 8.1042 93.7936 7.8088 97.9878 C 7.7917 98.2215 8.2971 98.3384 8.3113 98.1237 C 8.6343 93.5456 9.4969 88.9942 10.1572 84.4579 C 10.9267 79.1797 11.1214 75.6096 9.9577 70.3561 L 9.9577 70.3561 Z " stroke-width="0.949999988079071"/>
          <path id="ID0.47093902016058564" fill="#010101" d="M 2.7643 99.2741 C 2.77 99.4898 3.2801 99.5705 3.2725 99.3207 C 3.0977 94.0767 2.4897 89.0692 1.8437 83.8661 C 1.5283 81.3267 0.8329 78.7085 0.8177 76.1454 C 0.7987 73.2584 1.7753 71.6529 2.4375 69.0261 C 2.4935 68.8038 1.9919 68.6699 1.933 68.8903 C 1.4409 70.8425 0.2877 72.5421 0.3 74.6207 C 0.3152 77.1363 0.8006 79.5094 1.1075 81.9917 C 1.8314 87.8 2.5676 93.4193 2.7643 99.2741 L 2.7643 99.2741 Z " stroke-width="0.949999988079071"/>
          <path id="ID0.467072781175375" fill="#010101" d="M 1.8124 107.2038 C 1.8181 107.4156 2.3282 107.4992 2.3187 107.2484 C 2.2874 105.8329 1.9311 104.3072 2.2133 102.9031 C 2.4641 101.6615 2.9533 100.4949 3.206 99.2532 C 3.2545 99.0271 2.7481 98.897 2.7035 99.1174 C 2.4137 100.5443 1.8162 101.8686 1.648 103.324 C 1.4989 104.5989 1.7867 105.926 1.8124 107.2038 L 1.8124 107.2038 Z " stroke-width="0.949999988079071"/>
          <path id="ID0.5970852319151163" fill="#010101" d="M 8.1489 97.9432 C 7.9693 97.7855 7.5646 97.9299 7.8221 98.1569 C 9.2043 99.3558 10.5961 100.549 11.9356 101.7973 C 12.0876 101.9398 12.5778 101.8752 12.3517 101.6634 C 10.9818 100.3875 9.5606 99.1696 8.1489 97.9432 L 8.1489 97.9432 Z " stroke-width="0.949999988079071"/>
          <path id="ID0.7528074788860977" fill="#010101" d="M 14.1443 107.124 C 14.226 107.3149 14.7362 107.3339 14.6193 107.0755 C 13.8232 105.2705 12.9179 103.4997 12.4153 101.5836 C 12.3631 101.3717 11.8491 101.309 11.9071 101.537 C 12.4201 103.4893 13.333 105.2876 14.1443 107.124 L 14.1443 107.124 Z " stroke-width="0.949999988079071"/>
          <path id="ID0.40099156368523836" fill="#010101" d="M 14.3533 107.2446 C 14.6535 107.1477 14.2621 106.8551 14.0579 106.9197 C 13.4442 107.1145 12.7383 107.2446 12.3042 106.6547 C 12.0515 106.3098 11.9014 105.9032 11.7532 105.5061 C 11.4767 104.768 11.1946 104.0346 10.4659 103.6432 C 10.2227 103.5092 9.9463 103.7562 10.2484 103.9196 C 11.1784 104.4184 11.2563 105.8329 11.7921 106.6528 C 12.383 107.5534 13.4242 107.5401 14.3533 107.2446 L 14.3533 107.2446 Z " stroke-width="0.949999988079071"/>
          <path id="ID0.8206738266162574" fill="#010101" d="M 10.5999 103.8902 C 10.5961 103.6764 10.0859 103.5938 10.0916 103.8455 C 10.1733 106.1616 11.0901 108.3599 11.1119 110.6884 C 11.1138 110.9002 11.624 110.9848 11.6202 110.733 C 11.5964 108.4027 10.6816 106.2063 10.5999 103.8902 L 10.5999 103.8902 Z " stroke-width="0.949999988079071"/>
          <path id="ID0.08801772724837065" fill="#010101" d="M 7.2787 105.9184 C 7.1932 105.7294 6.6811 105.7123 6.7999 105.965 C 7.5342 107.5439 8.2448 109.1266 8.7056 110.81 C 8.7616 111.0199 9.2756 111.0826 9.2138 110.8546 C 8.7445 109.1427 8.0263 107.5268 7.2787 105.9184 L 7.2787 105.9184 Z " stroke-width="0.949999988079071"/>
          <path id="ID0.12323915911838412" fill="#010101" d="M 11.6259 110.5107 C 11.5166 110.334 11.0027 110.3255 11.1471 110.5573 C 11.8909 111.7818 12.2975 113.0434 12.1883 114.4893 C 12.1683 114.723 12.6728 114.8418 12.6908 114.6252 C 12.8058 113.1061 12.4087 111.7999 11.6259 110.5107 L 11.6259 110.5107 Z " stroke-width="0.949999988079071"/>
          <path id="ID0.06952123623341322" fill="#010101" d="M 12.0068 114.8522 C 12.1389 115.0213 12.6196 114.9672 12.4229 114.7164 C 11.3817 113.3807 9.8693 112.3452 9.115 110.7976 C 9.02 110.6105 8.5099 110.5934 8.6362 110.8461 C 9.4067 112.4288 10.939 113.4852 12.0068 114.8522 L 12.0068 114.8522 Z " stroke-width="0.949999988079071"/>
          <path id="ID0.7933958163484931" fill="#010101" d="M 7.2692 113.0206 C 7.3414 113.2154 7.8477 113.2382 7.748 112.9703 C 6.9775 110.9221 6.3876 108.814 5.6922 106.7373 C 5.6276 106.5388 5.1203 106.5169 5.2134 106.7858 C 5.9097 108.8596 6.4978 110.9705 7.2692 113.0206 L 7.2692 113.0206 Z " stroke-width="0.949999988079071"/>
          <path id="ID0.4918669266626239" fill="#010101" d="M 12.4818 114.6784 C 12.5284 114.4523 12.0258 114.3221 11.9774 114.5425 C 11.7807 115.5163 7.899 113.299 7.4592 112.8173 C 7.3167 112.6596 6.8303 112.7185 7.0421 112.9513 C 7.6112 113.5735 12.1531 116.2924 12.4818 114.6784 L 12.4818 114.6784 Z " stroke-width="0.949999988079071"/>
          <path id="ID0.35866865795105696" fill="#010101" d="M 5.7131 112.6017 C 5.8147 112.7812 6.3268 112.7907 6.1919 112.5551 C 5.1155 110.7178 4.2292 108.8017 3.8539 106.6936 C 3.815 106.4799 3.3029 106.4077 3.3457 106.649 C 3.7295 108.7884 4.6196 110.7387 5.7131 112.6017 L 5.7131 112.6017 Z " stroke-width="0.949999988079071"/>
          <path id="ID0.03446547267958522" fill="#010101" d="M 7.0374 113.1878 C 7.2882 113.3104 7.5684 113.0634 7.2559 112.9095 C 6.8806 112.7299 6.3838 112.6273 6.0874 112.3271 C 5.943 112.177 5.4528 112.2378 5.6713 112.4611 C 6.0389 112.8392 6.5776 112.9636 7.0374 113.1878 L 7.0374 113.1878 Z " stroke-width="0.949999988079071"/>
          <path id="ID0.9072102401405573" fill="#010101" d="M 4.1 112.2236 C 4.1798 112.4183 4.6842 112.4373 4.5788 112.1789 C 3.8881 110.5031 2.8498 108.9822 2.2893 107.2503 C 2.2247 107.0461 1.7107 106.9853 1.781 107.2057 C 2.3501 108.9689 3.397 110.5183 4.1 112.2236 L 4.1 112.2236 Z " stroke-width="0.949999988079071"/>
          <path id="ID0.5425228774547577" fill="#010101" d="M 5.5402 112.6226 C 5.885 112.6653 5.7625 112.3091 5.4917 112.272 C 5.1592 112.2312 4.84 112.1647 4.5636 111.9661 C 4.3707 111.8303 3.9527 111.9813 4.2311 112.1799 C 4.6196 112.4573 5.0766 112.5646 5.5402 112.6226 L 5.5402 112.6226 Z " stroke-width="0.949999988079071"/>
        </g>
      </g>
    </g>
    <g id="Shirt">
      <path id="Shirt_2_" fill="#555D7B" d="M 21.8887 36.7385 C 21.8887 37.85 21.2484 39.2199 21.408 39.6911 C 21.7643 40.7579 22.1709 40.624 22.6088 41.6785 C 23.0914 42.8451 24.2438 44.1209 24.6884 45.3018 C 25.1092 46.4218 26.2473 47.5875 26.9836 48.5508 C 28.0077 49.8846 28.5777 50.314 30.015 50.5021 C 31.5996 50.7101 32.6237 50.048 33.4512 48.7921 C 34.2691 47.5476 34.0744 46.6812 33.5737 45.4291 C 33.3562 44.8885 32.3672 43.2507 32.0281 42.7301 C 31.6386 42.1364 31.6072 42.0651 31.6015 41.0572 C 32.5012 41.4533 33.3163 41.9654 34.3584 42.5829 C 36.3249 43.7457 38.5517 44.8828 38.8063 47.5599 C 38.9289 48.8795 39.2034 50.4669 39.3649 51.7988 C 39.5207 53.0927 39.9843 53.6827 40.313 54.9357 C 40.6474 56.2021 41.5243 57.2433 42.1722 58.3291 C 42.7507 59.3029 43.8774 59.3162 43.7292 60.1037 C 43.5193 61.2219 42.2615 62.6687 41.2963 63.1969 C 40.7358 63.5057 39.5226 64.6523 38.9013 64.7407 C 38.0511 64.8613 37.6283 65.0399 36.9605 65.1007 C 35.45 65.2375 36.3107 69.4831 36.2128 70.6639 C 36.0646 72.4224 36.1568 72.0034 36.3572 73.4056 C 36.456 74.0858 37.0108 75.7825 37.1923 76.4523 C 37.4041 77.2446 37.7262 78.2421 37.9143 78.966 C 38.0815 79.6044 38.6676 80.5563 38.8814 81.1624 C 39.1037 81.7941 39.2025 82.158 39.4751 82.7802 C 40.0204 84.0371 40.6427 84.8683 41.0094 86.2116 C 41.1908 86.8709 41.3134 86.8776 41.1946 87.6148 C 41.0977 88.2256 40.7329 89.1044 40.6769 89.7247 C 40.5562 91.0775 41.3428 92.2688 41.6563 93.3737 C 41.8663 94.1118 42.3356 94.6315 42.1978 95.2889 C 42.0069 96.2056 41.7523 95.9121 40.8802 96.4431 C 39.63 97.2022 38.2487 97.8928 37.045 98.7089 C 35.7407 99.5924 34.4753 100.3904 33.1073 101.1542 C 31.8286 101.8705 30.7864 102.5925 29.4802 103.2679 C 28.4304 103.8075 26.6634 104.6407 25.5168 104.7689 C 22.7561 105.0729 19.6543 105.3 17.2993 104.1153 C 15.9503 103.4342 13.3824 102.7739 13.011 101.1684 C 12.707 99.8584 13.7995 99.181 13.8251 97.7874 C 13.8878 94.4196 13.2513 90.8657 13.5192 87.4941 C 13.7292 84.8655 13.8641 82.6985 13.2741 79.6424 C 13.0176 78.3133 12.7716 78.148 12.7231 76.7012 C 12.6766 75.3246 12.079 73.8312 11.9118 72.487 C 11.7133 70.8539 10.7595 70.3324 11.6876 68.2243 C 11.9137 67.528 12.3669 66.3405 12.8637 65.2138 C 13.0271 64.8404 11.4188 65.0209 11.0283 64.9839 C 10.1819 64.9012 7.0146 63.9465 5.9629 63.1874 C 5.2704 62.6906 1.1835 58.7699 1.3554 57.9406 C 1.4818 57.3307 2.8602 56.9706 3.1015 56.3123 C 3.3238 55.7043 3.9955 55.4953 4.2149 54.8759 C 4.6491 53.6532 5.1554 53.7064 5.2951 52.3565 C 5.5753 49.6832 6.8426 50.0157 7.4715 47.2711 C 7.7831 45.9145 10.1486 42.8964 10.9409 41.6975 C 11.852 40.32 13.5012 40.0302 14.6963 39.2683 C 17.0048 37.7996 16.7302 38.1207 19.1404 37.5013 " stroke-width="0.949999988079071"/>
      <g id="Shirt_Lines_2_">
        <g id="ID0.4893760085105896">
          <path id="ID0.8126672264188528" fill="#010101" d="M 21.9277 36.8449 C 22.1044 36.7964 21.6512 36.5922 21.5192 36.6292 C 15.7802 38.1986 11.3608 39.9856 8.299 45.1621 C 7.026 47.311 6.1871 49.7079 5.2096 51.9993 C 4.1256 54.5405 3.0445 55.9427 1.1521 57.8399 C 1.0467 57.9444 1.5179 58.1296 1.6214 58.0223 C 2.9761 56.6647 4.1228 55.8344 4.8875 54.0598 C 5.999 51.4815 6.9158 48.7113 8.261 46.2489 C 11.3732 40.548 15.7432 38.5368 21.9277 36.8449 L 21.9277 36.8449 Z " stroke-width="0.949999988079071"/>
          <path id="ID0.6057872413657606" fill="#010101" d="M 31.7507 41.004 C 31.612 40.9318 31.1493 40.9536 31.4505 41.1075 C 33.7694 42.3036 37.7167 44.12 38.3579 46.6289 C 38.9108 48.7835 38.7864 51.0854 39.4191 53.2086 C 40.1572 55.6824 41.4882 58.5201 43.6418 60.0391 C 43.7492 60.1123 44.2555 60.1465 44.037 59.9916 C 39.8456 57.0409 40.2152 51.9993 39.0999 47.6454 C 38.1423 43.9157 34.9921 42.676 31.7507 41.004 L 31.7507 41.004 Z " stroke-width="0.949999988079071"/>
          <path id="ID0.5471409005112946" fill="#010101" d="M 44.0912 60.0847 C 44.1472 59.9698 43.6589 59.8007 43.5886 59.9489 C 42.1826 62.853 39.4523 64.9478 36.1872 65.1273 C 35.9202 65.1425 36.3762 65.3715 36.5045 65.3648 C 39.8456 65.1796 42.6491 63.0649 44.0912 60.0847 L 44.0912 60.0847 Z " stroke-width="0.949999988079071"/>
          <path id="ID0.37690982408821583" fill="#010101" d="M 35.9345 70.9024 C 35.9497 71.0411 36.4503 71.1446 36.4351 70.9784 C 35.8604 65.0314 37.6445 59.0663 37.2996 53.0918 C 37.2901 52.9198 36.7895 52.8476 36.7971 52.9559 C 37.1438 58.9523 35.3597 64.9335 35.9345 70.9024 L 35.9345 70.9024 Z " stroke-width="0.949999988079071"/>
          <path id="ID0.4051677384413779" fill="#010101" d="M 36.3905 61.3805 C 36.3962 61.2133 35.8917 61.125 35.8879 61.2456 C 35.7264 66.5922 35.734 71.8904 37.0811 77.1135 C 37.8516 80.0965 39.6043 82.6368 40.4413 85.502 C 41.4112 88.8289 39.7069 90.6548 38.1014 93.3015 C 38.0406 93.4012 38.5156 93.5817 38.604 93.4392 C 39.6081 91.7805 41.985 89.1566 41.359 87.0144 C 40.5087 84.1064 38.7246 81.6241 37.958 78.6553 C 36.4836 72.9382 36.2128 67.2563 36.3905 61.3805 L 36.3905 61.3805 Z " stroke-width="0.949999988079071"/>
          <path id="ID0.8118530767969787" fill="#010101" d="M 13.6266 65.0912 C 13.8916 65.0684 13.4356 64.8433 13.3055 64.8537 C 8.1432 65.2869 3.9613 62.4084 1.6366 57.97 C 1.5625 57.8304 1.0799 57.7876 1.1379 57.894 C 3.6364 62.6621 8.2011 65.5472 13.6266 65.0912 L 13.6266 65.0912 Z " stroke-width="0.949999988079071"/>
          <path id="ID0.09669136442244053" fill="#010101" d="M 13.543 64.9345 C 13.5373 65.1036 14.0436 65.1891 14.0455 65.0703 C 14.0655 62.4483 14.7466 57.4817 17.7914 56.6989 C 17.9624 56.6543 17.5149 56.4462 17.3829 56.4814 C 14.2574 57.2832 13.561 62.2612 13.543 64.9345 L 13.543 64.9345 Z " stroke-width="0.949999988079071"/>
          <path id="ID0.03882122179493308" fill="#010101" d="M 31.7858 42.2209 C 31.6861 42.1297 31.194 42.087 31.3222 42.2067 C 32.7121 43.4835 34.0316 45.6219 33.5861 47.6217 C 32.714 51.5271 28.6119 50.5467 26.595 47.9067 C 24.2742 44.8667 22.5984 41.2405 20.5815 37.9849 C 20.5093 37.869 20.0134 37.7958 20.1198 37.9697 C 22.0939 41.1512 23.6747 45.0548 26.1352 47.8905 C 27.1783 49.0932 28.325 50.3491 29.9685 50.6028 C 35.3502 51.4331 34.5351 44.747 31.7858 42.2209 L 31.7858 42.2209 Z " stroke-width="0.949999988079071"/>
          <path id="ID0.796741412486881" fill="#010101" d="M 40.7662 89.8701 C 40.7681 89.701 40.2655 89.6155 40.2636 89.7342 C 40.2446 91.866 42.8628 94.6562 40.8688 96.4374 C 40.7614 96.5324 41.225 96.7215 41.34 96.6189 C 43.4081 94.774 40.7472 92.0475 40.7662 89.8701 L 40.7662 89.8701 Z " stroke-width="0.949999988079071"/>
          <path id="ID0.6079542157240212" fill="#010101" d="M 25.1026 102.3835 C 25.4398 102.3797 25.0532 102.1422 24.8926 102.1422 C 19.812 102.2106 16.3236 97.491 13.8992 93.5922 C 13.827 93.4753 13.3311 93.4031 13.4375 93.5751 C 16.0196 97.7304 19.7265 102.4576 25.1026 102.3835 L 25.1026 102.3835 Z " stroke-width="0.949999988079071"/>
          <path id="ID0.09658871218562126" fill="#010101" d="M 41.4597 96.3586 C 41.5613 96.294 41.1234 96.0916 40.9885 96.179 C 37.6055 98.2966 34.1732 100.4531 30.6905 102.3949 C 25.6051 105.2259 17.058 106.6898 13.1582 101.1979 C 13.0784 101.0829 12.5816 101.0183 12.6965 101.1789 C 14.6763 103.9662 19.5394 105.4482 22.8216 105.2363 C 29.6683 104.7974 35.8252 99.884 41.4597 96.3586 L 41.4597 96.3586 Z " stroke-width="0.949999988079071"/>
          <path id="ID0.9580045794136822" fill="#010101" d="M 11.338 70.0046 C 11.2991 69.8593 10.8003 69.7833 10.8393 69.9277 C 12.212 75.1498 13.3872 80.0946 13.2627 85.501 C 13.144 90.707 13.9173 96.0251 12.6785 101.1181 C 12.6433 101.2663 13.1478 101.3945 13.181 101.2539 C 14.6041 95.3953 14.0436 88.3396 13.8251 82.3375 C 13.6741 78.1879 12.3868 73.988 11.338 70.0046 L 11.338 70.0046 Z " stroke-width="0.949999988079071"/>
        </g>
      </g>
    </g>
  </g>
</svg>