<svg xmlns="http://www.w3.org/2000/svg" xmlns:xlink="http://www.w3.org/1999/xlink" version="1.1" id="Layer_1" x="0px" y="0px" width="71.00000762939453" height="62.884002685546875" viewBox="36.555999755859375 41.05799865722656 71.00000762939453 62.884002685546875" enable-background="new 0 0 144 144" xml:space="preserve">
  <g>
    <path fill="#115489" d="M102.738,41.558H41.373c-2.379,0-4.317,1.936-4.317,4.316v53.252c0,2.379,1.937,4.316,4.317,4.316h61.367&#13;&#10;&#9;c2.38,0,4.316-1.937,4.316-4.316V45.874C107.056,43.494,105.119,41.558,102.738,41.558z" stroke-width="1"/>
    <g>
      <polygon fill="#FBB040" points="72.752,46.056 43.383,71.458 53.458,71.458 53.458,95.394 67.188,95.394 67.188,78.797 &#13;&#10;&#9;&#9;78.314,78.797 78.314,95.394 92.045,95.394 92.045,71.458 102.12,71.458 &#9;" stroke-width="1"/>
    </g>
  </g>
</svg>