<?xml version="1.0" encoding="UTF-8"?>
<svg width="47px" height="57px" viewBox="0 0 47 57" version="1.1" xmlns="http://www.w3.org/2000/svg" xmlns:xlink="http://www.w3.org/1999/xlink">
    <!-- Generator: Sketch 52.4 (67378) - http://www.bohemiancoding.com/sketch -->
    <title>Slice 1</title>
    <desc>Created with Sketch.</desc>
    <g id="Page-1" stroke="none" stroke-width="1" fill="none" fill-rule="evenodd">
        <g id="Watermelon-b" transform="translate(1.000000, 1.000000)">
            <g id="g6991" transform="translate(0.567615, 0.945477)">
                <path d="M37.77746,53.357599 C17.195032,52.718634 0.795058,41.111989 0.795058,26.887515 C0.795058,12.663042 17.195032,1.0563972 37.77746,0.4174315" id="path4727-5" stroke="#231F20" stroke-width="2.72534895" fill="#4E9A06"></path>
                <path d="M37.804528,48.294346 C37.730628,48.297046 37.656646,48.299346 37.582568,48.301146 C36.119788,48.356346 34.655028,48.028566 33.219938,47.783086 C31.209168,47.399256 29.253398,46.842326 27.275858,46.310696 C26.254778,45.990456 25.197268,45.698126 24.222028,45.247306 C22.880328,44.526196 21.588768,43.722346 20.241128,43.011456 C18.135568,41.832316 16.059508,40.602156 14.106178,39.166896 C10.766968,36.252026 7.495048,33.198486 4.481138,29.923576 L2.354358,27.660466 C2.367058,27.953316 2.381858,28.242706 2.408858,28.532986 C2.412858,28.538986 2.404858,28.553786 2.408858,28.560186 C2.510498,28.714506 2.628478,28.862706 2.708788,29.023716 C3.970338,31.059916 5.295418,33.053496 6.826018,34.885996 C8.081748,36.489386 9.427868,38.007256 10.888718,39.412216 C12.375938,40.890916 13.811448,42.448316 15.496738,43.693046 C16.838548,44.729786 18.192828,45.737326 19.641238,46.610556 C21.238698,47.617496 22.860988,48.584406 24.549188,49.418996 C26.765878,50.360296 29.088358,51.030456 31.393058,51.709376 C33.461237,52.026273 35.59312,52.23228 37.774957,52.306069" id="path6968" fill="#356804"></path>
                <path d="M37.800498,34.347704 C36.534357,34.414844 35.257549,34.342304 34.010738,34.122595 C31.687668,33.821755 29.357588,33.676095 27.030538,33.413665 C25.732648,33.304065 24.434798,33.138575 23.158708,32.868345 C20.567078,32.192075 18.004608,31.427975 15.469578,30.550695 C13.548358,29.816955 11.678108,28.905155 9.743628,28.205785 C8.293168,27.636355 6.805708,27.221465 5.271938,26.978795 C4.666068,26.881595 4.067358,26.653425 3.472348,26.515265 L3.472278,26.515265 C3.361148,26.489465 3.257208,26.452165 3.145078,26.433465 C2.428168,26.624735 2.856688,27.660515 3.472278,27.578655 C4.266288,27.986185 5.072618,28.416545 5.817188,28.914715 C9.304578,30.996625 12.780888,33.078055 16.342028,35.022395 C17.975078,36.049855 19.752158,36.768345 21.549918,37.421835 C23.768148,38.101485 26.043318,38.632375 28.284718,39.221425 C30.450618,39.717115 32.626988,40.144095 34.828658,40.421145 C35.823162,40.453635 36.812283,40.437655 37.801633,40.406135" id="path6966" fill="#356804"></path>
                <path d="M37.796777,19.981206 C36.878578,20.063536 35.961249,20.142382 35.046788,20.216655 C31.446888,20.442035 27.847828,20.459675 24.249288,20.707455 C22.817918,20.840565 21.369088,21.022895 19.968458,21.361845 C18.883978,21.577805 17.777578,21.739545 16.751028,22.179845 C15.377638,22.638475 14.076168,23.270225 12.770128,23.897625 C10.974618,24.657835 9.079678,25.139965 7.153248,25.370015 C6.174128,25.472065 5.214628,25.661745 4.235738,25.751745 C3.795368,25.786845 2.923428,25.521175 2.845148,26.133475 C3.012128,26.380165 3.212958,26.475305 3.472278,26.515205 C3.904478,26.581705 4.456038,26.475905 4.862868,26.597005 C7.035218,26.834505 9.182818,27.037385 11.325008,27.496795 C13.103068,27.844905 14.851458,28.392895 16.614688,28.805585 C17.269618,28.919485 17.910368,29.051155 18.577878,29.050985 C19.664498,29.098485 20.781688,29.206595 21.849848,28.941915 C22.534768,28.733875 22.973358,28.112805 23.540358,27.714925 C24.138138,27.338145 24.883878,27.329415 25.558078,27.387735 C27.607318,27.525795 29.641518,27.751855 31.693018,27.851265 C33.735825,27.891845 35.77109,27.776715 37.811376,27.705891" id="path6960" fill="#356804"></path>
                <path d="M37.798258,4.6615443 C37.634586,4.6593643 37.470574,4.6659143 37.309998,4.6746853 L37.309908,4.6748653 C36.557168,4.7158653 35.824748,4.8863353 35.074058,4.9747953 C32.922868,5.3372353 30.766838,5.7661253 28.693718,6.4744453 C27.246118,6.9182753 25.828078,7.4048153 24.412888,7.9468353 C23.010188,8.5384853 21.599458,9.100385 20.268388,9.855485 C18.153428,10.979335 16.053088,12.151055 14.051648,13.481915 C12.391158,14.680395 10.785628,15.965755 9.225488,17.299215 C7.416498,18.858485 5.724048,20.553715 4.099408,22.316235 C3.727058,22.690095 3.076518,22.973305 3.036018,23.570495 C2.7148234,23.626615 35.746718,6.4898119 37.24693,7.6559677 M37.423707,9.998259 C35.16629,8.2130616 2.8359908,24.111678 3.036018,24.688415 C2.795978,24.829985 2.582488,25.009365 2.572488,25.342805 C2.757818,25.944355 3.597868,25.694775 4.017608,25.506405 C4.843118,25.136775 5.731948,25.069425 6.580648,24.770215 C8.333508,24.196975 10.050338,23.524835 11.706738,22.697965 C13.213188,21.998615 14.676348,21.141125 16.151158,20.380315 C17.985518,19.664435 19.842218,19.052515 21.768048,18.662535 C22.931598,18.396315 24.140678,18.254145 25.312678,18.035405 C28.187758,17.582525 31.070428,17.416645 33.956138,17.053815 C35.23554,16.900137 36.519813,16.73509 37.804077,16.600831" id="path6958" fill="#356804" fill-rule="nonzero"></path>
                <path d="M37.77781,1.4599485 C34.72041,1.5615104 31.760172,1.920009 28.939118,2.4935454 C27.344928,3.0680754 25.784638,3.6825654 24.222028,4.3476654 C22.779678,5.0668854 21.413008,5.9635954 20.050258,6.8289054 C18.198788,8.1758854 16.250868,9.398855 14.406108,10.755275 C12.266538,12.403655 10.276618,14.247485 8.325698,16.126755 C7.482588,16.936645 6.714828,17.804785 6.008058,18.744335 C4.849028,20.223265 3.739088,21.748095 2.708818,23.325095 C2.678618,23.471945 2.653518,23.613705 2.627018,23.761355 C3.728468,22.386155 4.871318,21.040335 5.980788,19.671395 C7.432928,17.988375 8.780938,16.194735 10.479748,14.763435 C11.790288,13.574955 13.146598,12.424365 14.624248,11.464205 C15.680408,10.757195 16.682068,9.961615 17.787148,9.337415 C19.782958,8.1498354 21.823448,6.9984754 23.867568,5.9018554 C24.701098,5.4863554 25.496438,4.9404254 26.403338,4.7021254 C29.059768,3.7623154 31.801518,3.1636554 34.528738,2.4935454 C35.597651,2.2005178 36.69917,2.0560492 37.803503,2.0449915" id="path6744" fill="#356804"></path>
                <path d="M17.44988,12.79034 C14.06592,14.71178 12.4975,17.65463 11.26972,16.20633 C10.0419,14.75798 11.79059,12.0278 15.17457,10.10636 C18.55758,8.18549 22.29469,7.80083 23.5225,9.24919 C24.75033,10.69752 20.83191,10.87004 17.44989,12.79037 L17.44988,12.79034 Z" id="Shine-2" fill="#BFEF90"></path>
            </g>
            <path d="M43.680229,27.8329964 C43.680229,42.4829956 41.0610831,54.3591672 37.8302033,54.3591672 C34.5993246,54.3591672 31.9801787,42.4829956 31.9801787,27.8329964 C31.9801787,13.1829966 34.5993246,1.30682538 37.8302033,1.30682538 C41.0610831,1.30682538 43.680229,13.1829966 43.680229,27.8329964 Z" id="path7000" stroke="#231F20" stroke-width="2.73857443" fill="#EE1717" stroke-linejoin="round"></path>
            <path d="M38.63702,10.79219 C38.63702,12.06139 38.16215,13.09028 37.57636,13.09028 C36.99058,13.09028 36.5157,12.06139 36.5157,10.79219 C36.5157,9.52298 36.99058,8.49409 37.57636,8.49409 C38.16215,8.49409 38.63702,9.52298 38.63702,10.79219 Z" id="path7002" fill="#231F20"></path>
            <path d="M39.52091,18.74715 C39.52091,20.01635 39.04604,21.04524 38.46025,21.04524 C37.87447,21.04524 37.39959,20.01635 37.39959,18.74715 C37.39959,17.47794 37.87447,16.44905 38.46025,16.44905 C39.04604,16.44905 39.52091,17.47794 39.52091,18.74715 Z" id="path7002-7" fill="#231F20"></path>
            <path d="M36.69248,24.40401 C36.69248,25.67321 36.21761,26.7021 35.63182,26.7021 C35.04604,26.7021 34.57116,25.67321 34.57116,24.40401 C34.57116,23.1348 35.04604,22.10591 35.63182,22.10591 C36.21761,22.10591 36.69248,23.1348 36.69248,24.40401 Z" id="path7002-2" fill="#231F20"></path>
            <path d="M40.58157,28.46987 C40.58157,29.73907 40.1067,30.76796 39.52091,30.76796 C38.93513,30.76796 38.46025,29.73907 38.46025,28.46987 C38.46025,27.20066 38.93513,26.17177 39.52091,26.17177 C40.1067,26.17177 40.58157,27.20066 40.58157,28.46987 Z" id="path7002-8" fill="#231F20"></path>
            <path d="M38.99057,46.32432 C38.99057,47.59352 38.5157,48.62241 37.92991,48.62241 C37.34413,48.62241 36.86925,47.59352 36.86925,46.32432 C36.86925,45.05511 37.34413,44.02622 37.92991,44.02622 C38.5157,44.02622 38.99057,45.05511 38.99057,46.32432 Z" id="path7002-5" fill="#231F20"></path>
            <path d="M40.4048,39.07646 C40.4048,40.34566 39.92993,41.37455 39.34414,41.37455 C38.75836,41.37455 38.28348,40.34566 38.28348,39.07646 C38.28348,37.80725 38.75836,36.77836 39.34414,36.77836 C39.92993,36.77836 40.4048,37.80725 40.4048,39.07646 Z" id="path7002-0" fill="#231F20"></path>
            <path d="M37.22281,34.83383 C37.22281,36.10303 36.74794,37.13192 36.16215,37.13192 C35.57637,37.13192 35.10149,36.10303 35.10149,34.83383 C35.10149,33.56462 35.57637,32.53573 36.16215,32.53573 C36.74794,32.53573 37.22281,33.56462 37.22281,34.83383 Z" id="path7002-3" fill="#231F20"></path>
        </g>
    </g>
</svg>