<svg xmlns="http://www.w3.org/2000/svg" xmlns:xlink="http://www.w3.org/1999/xlink" version="1.1" width="118.23833465576172" height="134.88442993164062" viewBox="0.42725712060928345 -0.500113844871521 118.23833465576172 134.88442993164062">
  <!-- Exported by Scratch - http://scratch.mit.edu/ -->
  <g id="ID0.9007874224334955">
    <g id="Page-1">
      <g id="dot-b-[space,dog,wren-mcdonald]">
        <g id="Group-2">
          <path id="Shape" fill="#FFFFFF" stroke="none" stroke-width="1" d="M 81.274 90.836 L 72.343 90.836 L 66.423 90.034 L 51.874 85.728 L 48.864 84.426 L 45.151 82.523 L 39.934 77.215 L 36.321 71.573 L 34.014 63.595 L 34.917 56.429 L 36.221 48.372 L 43.245 40.06 L 49.767 35.053 L 55.988 32.549 L 64.216 30.045 L 70.638 29.544 L 80.837 29.544 L 90.204 30.946 L 99.837 34.051 L 107.262 38.558 L 114.085 47.271 L 115.891 52.178 L 117.296 59.836 L 116.292 65.899 L 114.185 71.573 L 109.871 78.317 L 103.75 83.325 L 96.224 87.731 C 96.224 87.731 88.8 89.934 88.398 90.135 C 87.996 90.335 81.274 90.836 81.274 90.836 Z "/>
          <path id="Shape" fill="#EF463C" stroke="none" stroke-width="1" d="M 75.655 2.404 L 72.444 1.502 L 68.631 1.502 L 65.219 3.105 L 64.116 5.308 L 63.413 8.713 L 64.216 11.317 L 66.423 13.92 L 71.283 15.322 C 71.283 15.322 75.152 13.72 75.655 13.72 C 76.157 13.72 79.167 9.614 79.167 9.614 L 79.167 6.009 L 75.655 2.404 Z "/>
          <path id="Shape" fill="#FCB322" stroke="none" stroke-width="1" d="M 106.56 48.974 L 102.045 48.974 L 96.125 49.875 L 90.405 51.077 L 82.679 48.974 L 75.655 48.272 L 69.334 49.073 L 61.808 51.076 L 59.546 52.578 L 57.092 51.777 L 43.646 51.177 L 41.64 53.38 L 41.64 58.402 L 43.646 72.609 C 43.646 72.609 44.65 74.512 44.951 74.612 C 45.252 74.712 53.982 68.102 53.982 68.102 L 55.386 72.709 L 57.895 77.716 L 64.718 85.028 L 69.836 88.433 L 71.742 90.436 L 68.933 90.335 L 64.317 90.436 L 59.546 90.836 L 45.052 91.437 L 38.831 88.833 L 34.917 86.229 L 27.893 89.034 L 18.562 85.628 L 11.638 85.729 L 6.622 86.53 L 3.511 90.035 C 3.511 90.035 2.407 93.139 2.307 93.64 C 2.206 94.141 2.307 97.045 2.307 97.045 L 6.119 97.045 L 11.839 93.64 L 16.555 92.639 L 21.371 93.34 L 24.682 95.142 L 22.676 100.35 L 23.077 107.361 L 25.586 113.67 L 28.897 119.779 L 27.994 121.683 C 27.994 121.683 27.492 123.285 27.492 123.585 C 27.492 123.886 27.994 127.091 27.994 127.091 L 30.402 130.796 L 34.917 132.799 L 39.834 130.696 L 43.848 132.298 L 49.166 130.997 L 51.976 128.493 L 51.875 124.086 L 48.664 119.379 L 46.658 115.674 L 48.264 109.865 L 52.678 110.366 L 67.345 108.964 L 72.928 119.179 L 71.291 122.984 L 72.345 126.49 C 72.345 126.49 73.65 129.094 74.051 129.394 C 74.452 129.695 79.167 130.997 79.167 130.997 L 82.78 129.995 L 85.101 129.795 L 88.7 130.195 L 92.613 128.793 L 94.921 124.487 L 94.821 121.182 L 92.112 116.775 L 88.801 112.269 L 90.707 111.468 L 91.61 105.358 L 91.409 96.345 L 90.807 90.836 L 90.105 89.134 L 93.416 85.929 L 97.831 79.92 L 101.042 71.573 L 101.945 66 L 105.858 69.705 L 109.872 70.105 L 110.875 68.103 L 108.969 52.98 L 107.664 49.975 L 106.56 48.974 Z "/>
          <path id="Shape" fill="#71CBD2" stroke="none" stroke-width="1" d="M 55.587 76.715 L 37.024 76.715 L 34.014 81.122 L 34.616 85.529 L 38.931 89.334 L 45.955 91.437 L 44.801 95.143 L 44.801 99.85 L 47.259 107.061 L 49.065 109.765 L 61.808 109.264 L 59.099 104.657 L 57.795 100.051 L 57.795 91.037 L 71.283 89.953 L 70.638 88.233 L 61.909 82.625 L 57.092 77.417 L 55.587 76.715 "/>
          <path id="Shape" fill="#2A3D98" stroke="none" stroke-width="1" d="M 92.028 90.844 C 92.273 92.879 92.634 95.127 92.791 97.389 C 92.927 99.344 92.927 101.32 92.813 103.277 C 92.643 106.194 92.355 109.105 92.034 112.01 C 91.975 112.55 91.529 113.046 91.185 113.709 C 92.202 115.117 93.375 116.633 94.431 118.228 C 96.017 120.623 96.583 123.275 95.862 126.075 C 94.994 129.445 92.448 130.993 89.382 131.572 C 88.222 131.791 86.872 131.753 85.774 131.367 C 84.309 130.853 83.319 131.75 82.152 132.08 C 78.978 132.977 76.089 132.538 73.662 130.273 C 72.926 129.586 72.566 128.502 72.022 127.606 C 70.504 125.102 70.749 122.389 70.995 119.649 C 71.061 118.912 70.878 118.082 70.574 117.398 C 69.708 115.436 68.694 113.544 67.798 111.596 C 67.363 110.651 67.024 110.155 65.688 110.289 C 60.516 110.808 55.307 111.113 50.125 111.398 C 49.919 111.41 49.182 111.272 49.008 111.413 C 48.788 111.594 48.677 112.407 48.527 112.711 C 48.297 113.177 48.101 113.598 47.928 114.084 C 47.653 114.86 47.701 115.036 48.218 115.761 C 49.863 118.065 51.827 120.349 53.139 122.939 C 54.194 125.017 53.835 127.439 52.817 129.651 C 51.797 131.869 49.847 132.763 47.677 133.346 C 44.981 134.071 41.759 134.139 39.659 131.927 C 40.064 132.354 36.682 133.789 36.366 133.832 C 35.076 134.01 33.635 133.715 32.443 133.233 C 30.008 132.25 27.84 130.163 27.18 127.574 C 26.523 124.994 26.394 122.483 27.323 119.885 C 27.561 119.219 26.863 118.05 26.325 117.307 C 24.332 114.56 23.124 111.426 22.346 108.231 C 21.441 104.516 21.562 100.679 22.934 96.994 C 23.442 95.628 23.166 95.108 21.76 94.571 C 18.364 93.274 15 93.756 11.734 94.927 C 10.033 95.535 8.558 96.774 6.856 97.378 C 5.582 97.828 4.038 98.042 2.743 97.766 C 1.447 97.488 1.155 95.925 0.988 94.729 C 0.611 92.033 2.046 89.955 3.711 88.07 C 6.231 85.219 9.541 84.299 13.236 84.461 C 15.338 84.553 17.473 84.454 19.532 84.803 C 21.326 85.107 23.042 85.896 24.775 86.515 C 25.863 86.904 26.907 87.421 28.004 87.777 C 28.365 87.893 28.881 87.784 29.241 87.607 C 30.516 86.983 31.777 86.321 32.986 85.581 C 33.243 85.423 33.459 84.788 33.349 84.511 C 32.135 81.464 33.414 77.505 36.237 75.756 C 36.345 75.689 36.438 75.598 36.419 75.614 C 35.551 73.482 34.539 71.454 33.898 69.316 C 32.745 65.47 32.425 61.517 32.896 57.531 C 33.034 56.368 33.216 55.219 33.564 54.086 C 34.388 51.394 35.262 48.565 36.676 46.112 C 38.041 43.742 39.808 41.634 41.693 39.661 C 45.901 35.256 50.932 32.132 56.705 30.347 C 60.083 29.303 63.617 28.726 67.113 28.118 C 69.081 27.776 71.112 27.8 73.354 27.643 C 72.974 24.75 72.594 21.887 72.226 19.023 C 72.113 18.151 72.338 16.957 71.851 16.492 C 71.358 16.022 70.165 16.339 69.297 16.199 C 66.146 15.691 63.651 14.15 62.39 11.154 C 61.609 9.295 62.345 7.367 62.764 5.499 C 63.35 2.905 65.172 1.242 67.529 0.624 C 70.272 -0.094 73.199 -0.496 75.886 1.15 C 80.328 3.872 81.606 8.528 78.393 12.934 C 77.897 13.614 77.242 14.148 76.574 14.653 C 75.989 15.097 74.897 16.075 74.143 16.049 C 74.069 16.472 74.394 17.136 74.463 17.604 C 74.548 18.192 74.574 18.791 74.651 19.373 C 74.8 20.498 74.738 21.676 75.073 22.769 C 75.403 23.84 75.6 24.942 75.812 26.04 C 75.9 26.492 75.785 27.45 76.141 27.791 C 76.555 28.186 77.72 28.071 78.247 28.087 C 79.237 28.115 80.301 28.071 81.27 28.259 C 82.898 28.575 84.52 28.803 86.151 29.137 C 87.353 29.384 88.577 29.567 89.746 29.938 C 91.657 30.542 93.578 30.636 95.468 31.394 C 98.172 32.48 100.922 33.794 103.504 35.146 C 105.435 36.157 107.205 37.45 108.83 38.896 C 110.578 40.451 111.921 42.098 113.424 43.87 C 113.938 44.478 114.49 45.253 114.818 45.978 C 115.51 47.504 116.586 49.071 116.897 50.738 C 117.213 52.436 117.544 54.194 117.784 55.922 C 118.06 57.92 118.291 59.985 118.089 61.974 C 117.598 66.808 116.053 71.359 113.468 75.491 C 112.614 76.857 111.482 78.072 110.359 79.241 C 108.885 80.776 107.418 82.362 105.724 83.624 C 103.777 85.074 101.639 86.303 99.482 87.43 C 97.175 88.634 94.748 89.611 92.028 90.844 Z M 91.459 88.341 C 94.214 87.298 97.14 86.36 99.586 84.702 C 101.128 83.658 102.702 82.637 104.107 81.424 C 106.331 79.504 108.801 77.706 110.493 75.37 C 113.378 71.39 114.946 66.79 115.467 61.813 C 115.893 57.752 115.033 53.954 113.801 50.192 C 112.938 47.555 111.536 45.341 109.633 43.364 C 108.651 42.345 107.785 41.21 106.735 40.284 C 105.882 39.531 105.042 38.772 104.051 38.198 C 102.544 37.326 101.117 36.224 99.553 35.495 C 97.195 34.398 94.9 33.282 92.392 32.528 C 90.738 32.03 89.022 31.676 87.349 31.249 C 85.688 30.824 83.941 30.919 82.246 30.773 C 80.312 30.607 78.375 30.485 76.437 30.416 C 73.447 30.31 70.447 30.378 67.457 30.502 C 66.184 30.554 64.902 30.857 63.666 31.199 C 60.494 32.074 57.245 32.786 54.215 34.02 C 49.421 35.973 45.541 39.216 42.026 43.067 C 39.654 45.666 38.097 48.518 36.84 51.77 C 36.244 53.31 35.648 55.221 35.399 56.851 C 35.294 57.533 35.216 58.258 35.147 58.949 C 34.997 60.441 34.965 62.069 35.094 63.568 C 35.358 66.633 36.716 69.563 38 72.299 C 38.518 73.404 39.17 74.672 39.876 75.657 C 40.801 76.948 41.845 78.248 43.165 79.136 C 44.518 80.045 45.617 81.317 47.04 82.171 C 48.658 83.143 50.402 83.882 52.124 84.647 C 54.147 85.547 56.183 86.452 58.289 87.123 C 60.567 87.85 62.926 88.343 65.265 88.865 C 66.522 89.146 67.813 89.275 69.09 89.472 C 67.636 88.329 66.107 87.558 64.769 86.538 C 62.203 84.581 59.467 82.775 57.719 79.942 C 56.908 78.63 56.342 77.506 54.187 78.004 C 52.413 78.416 50.723 78.066 48.944 78.082 C 48.061 78.091 46.275 78.437 45.816 77.355 C 44.995 75.419 48.914 75.815 49.78 75.769 C 51.531 75.676 53.283 75.593 54.947 75.511 C 54.34 73.613 53.804 71.938 53.236 70.161 C 52.857 70.432 52.528 70.583 52.319 70.832 C 50.663 72.811 48.493 74.065 46.191 75.091 C 45.238 75.516 43.626 75.3 43.327 74.44 C 42.794 72.91 42.111 71.403 41.823 69.827 C 41.345 67.208 41.163 64.537 40.797 61.897 C 40.377 58.857 40.022 55.82 40.872 52.804 C 41.307 51.263 42.158 49.946 43.853 49.649 C 44.96 49.454 46.13 49.54 47.266 49.608 C 48.158 49.662 49.037 49.901 49.928 50.023 C 52.344 50.355 54.76 50.68 57.178 50.998 C 57.892 51.092 58.592 51.323 59.31 51.375 C 60.149 51.436 60.15 51.154 60.748 50.665 C 61.693 49.892 62.964 49.589 64.069 49.125 C 64.836 48.802 65.54 48.391 66.292 48.048 C 67.514 47.492 69.048 47.342 70.369 47.133 C 72.806 46.747 75.351 46.715 77.82 46.721 C 79.971 46.726 81.992 47.086 84.103 47.597 C 85.453 47.924 86.617 48.229 87.887 48.822 C 89.24 49.453 90.662 50.4 92.22 50.02 C 93.303 49.757 94.339 49.333 95.394 48.982 C 98.552 47.928 101.757 47.404 105.114 47.391 C 107.041 47.384 108.148 48.206 108.823 49.711 C 109.534 51.295 110.211 52.964 110.483 54.661 C 111.141 58.768 111.601 62.907 112.032 67.045 C 112.123 67.922 111.982 68.982 111.545 69.722 C 110.454 71.574 108.394 72.083 106.472 71.005 C 105.211 70.297 104.108 69.312 102.84 68.382 C 102.84 68.718 102.848 68.959 102.839 69.199 C 102.757 71.54 102.533 74.024 101.475 76.156 C 101.001 77.113 100.737 78.134 100.173 79.062 C 99.584 80.032 98.843 80.9 98.234 81.855 C 97.462 83.067 96.277 84.209 95.203 85.166 C 94.551 85.748 93.917 86.354 93.234 86.899 C 92.759 87.278 92.013 88.134 91.459 88.341 Z M 79.88 88.251 C 82.276 88.23 84.679 87.9 86.931 87.062 C 88.694 86.408 90.575 86.098 92.187 85.049 C 93.636 84.109 95.244 82.808 96.056 81.252 C 96.945 79.553 98.229 78.016 98.89 76.176 C 100.587 71.441 101.189 66.49 98.627 61.915 C 97.241 59.441 95.376 57.266 93.293 55.352 C 92.245 54.39 91.129 53.522 90.01 52.647 C 88.319 51.326 86.421 50.228 84.346 49.712 C 81.222 48.935 78.272 49.049 75.087 49.049 C 73.439 49.049 71.843 49.533 70.212 49.616 C 68.751 49.691 67.475 50.453 66.072 50.869 C 64.719 51.27 63.213 52.093 62.109 52.971 C 61.393 53.541 60.809 54.327 60.25 55.046 C 59.052 56.586 58.046 58.263 57.209 60.024 C 55.961 62.649 56.56 65.685 55.598 68.401 C 55.516 68.631 55.539 68.926 55.596 69.172 C 55.844 70.226 56.045 71.301 56.405 72.317 C 57.847 76.408 60.061 79.929 63.508 82.726 C 65.613 84.434 67.975 85.836 70.402 86.939 C 71.219 87.31 72.075 87.361 72.938 87.572 C 75.185 88.115 77.34 88.253 79.676 88.253 C 79.744 88.251 79.812 88.251 79.88 88.251 Z M 89.824 91.878 C 89.859 91.66 89.901 91.509 89.955 91.49 C 87.406 92.458 84.467 92.643 81.767 92.651 C 78.166 92.664 74.585 92.191 71.026 91.687 C 69.559 91.477 67.992 91.048 66.518 91.188 C 65.027 91.33 63.554 91.738 62.071 91.95 C 61.017 92.1 59.607 91.793 58.99 92.368 C 58.407 92.911 58.637 94.337 58.528 95.377 C 58.165 98.856 58.45 102.224 60.301 105.306 C 60.956 106.397 61.513 107.698 62.876 107.991 C 63.479 108.121 64.92 108.225 65.346 107.625 C 65.741 107.068 65.272 105.863 65.543 105.151 C 66.137 103.587 67.319 105.531 67.588 106.153 C 68.238 107.661 68.888 109.178 69.582 110.666 C 71.233 114.203 73.343 117.457 75.602 120.645 C 78.247 124.379 81.527 127.217 85.777 128.92 C 87.904 129.773 90.913 128.943 92.695 127.051 C 93.976 125.69 94.416 122.607 93.271 120.754 C 91.539 117.95 89.613 115.263 87.689 112.583 C 86.439 110.843 84.937 109.307 83.808 107.477 C 82.477 105.318 84.099 104.642 85.256 103.073 C 86.606 101.242 87.653 99.207 88.523 97.112 C 88.937 96.114 89.458 95.059 89.644 93.989 C 89.688 93.744 89.722 92.52 89.824 91.878 Z M 34.977 87.651 C 33.877 88.049 32.786 88.385 31.745 88.832 C 28.694 90.145 27.013 92.754 25.749 95.601 C 23.76 100.084 23.074 104.81 24.948 109.44 C 26.271 112.707 28.072 115.82 29.978 118.8 C 31.396 121.017 33.335 122.901 35.022 124.95 C 36.709 126.997 38.313 128.601 40.624 129.972 C 43.262 131.537 45.683 131.465 48.502 130.335 C 50.439 129.556 51.865 127.376 51.391 125.38 C 51.012 123.792 50.357 122.132 49.371 120.852 C 46.919 117.669 44.215 114.68 41.587 111.634 C 41.365 111.377 40.974 111.186 40.633 111.123 C 39.501 110.917 38.349 110.822 37.218 110.611 C 36.297 110.438 32.515 110.176 32.837 108.696 C 33.161 107.213 37.65 108.523 38.65 108.634 C 39.894 108.773 41.143 108.896 42.394 108.943 C 43.829 108.995 45.269 108.955 46.898 108.955 C 44.134 103.594 43.559 98.089 44.796 92.241 C 40.855 91.946 37.559 90.503 34.977 87.651 Z M 58.254 52.855 C 56.983 52.793 55.852 52.782 54.731 52.675 C 52.169 52.429 49.615 51.96 47.052 51.907 C 44.069 51.845 43.114 51.894 42.663 55.287 C 42.525 56.324 42.509 57.393 42.574 58.44 C 42.691 60.314 42.78 62.206 43.121 64.045 C 43.603 66.639 44.266 69.203 44.958 71.752 C 45.041 72.058 45.961 72.483 46.194 72.346 C 47.405 71.634 48.577 70.828 49.65 69.922 C 50.725 69.013 51.715 67.99 52.644 66.931 C 53.053 66.465 53.318 65.813 53.48 65.2 C 54.055 63.031 54.358 60.769 55.144 58.684 C 55.875 56.744 57.091 54.987 58.254 52.855 Z M 92.901 51.94 C 93.746 52.648 94.438 53.219 95.12 53.799 C 98.102 56.337 100.077 59.56 101.817 63.031 C 103.03 65.45 104.928 67.487 107.491 68.609 C 109.106 69.317 109.932 68.628 109.76 66.852 C 109.498 64.157 108.973 61.481 108.841 58.782 C 108.721 56.29 108.133 53.947 107.131 51.729 C 106.785 50.964 105.768 50.018 105.039 50.002 C 103.084 49.96 101.037 49.383 99.135 50.4 C 98.92 50.515 98.63 50.481 98.382 50.544 C 96.588 50.997 94.796 51.457 92.901 51.94 Z M 64.395 8.483 C 64.316 10.39 65.677 12.286 67.352 13.172 C 69.908 14.524 72.411 13.487 74.788 12.963 C 76.902 12.496 77.883 10.292 78.034 8.271 C 78.164 6.51 77.369 4.808 75.66 3.756 C 73.942 2.697 72.113 2.586 70.14 2.619 C 66.662 2.677 64.484 5.201 64.395 8.483 Z M 59.136 89.905 C 59.121 89.849 59.106 89.794 59.091 89.738 C 56.125 88.516 53.15 87.318 50.195 86.065 C 48.33 85.274 46.284 84.691 44.699 83.505 C 42.294 81.71 40.221 79.472 37.897 77.32 C 37.652 77.436 37.123 77.521 36.877 77.831 C 33.964 81.493 34.986 84.895 38.102 87.467 C 40.639 89.562 43.802 90.132 47.044 90.1 C 49.619 90.074 52.192 89.96 54.767 89.91 C 56.221 89.882 57.679 89.905 59.136 89.905 Z M 26.384 90.062 C 23.398 88.126 20.265 87.12 16.914 86.77 C 12.98 86.359 9.149 86.319 5.927 89.248 C 4.499 90.546 3.193 93.611 3.617 95.186 C 3.83 95.975 4.183 96.327 4.986 95.954 C 5.485 95.722 5.962 95.444 6.463 95.221 C 7.918 94.569 9.417 94.003 10.833 93.277 C 12.727 92.306 14.78 92.223 16.817 91.956 C 19.046 91.664 21.042 92.439 23.095 93.066 C 23.523 93.197 24.275 93.086 24.537 92.786 C 25.232 91.996 25.741 91.041 26.384 90.062 Z M 29.34 121.929 C 27.58 124.217 29.205 128.139 31.392 130.148 C 32.936 131.566 35.368 131.751 36.996 130.716 C 34.462 127.807 31.911 124.88 29.34 121.929 Z M 46.877 101.376 C 46.341 101.785 46.683 102.673 47.146 103.347 C 47.683 104.128 48.553 104.521 49.495 104.475 C 52.056 104.349 54.651 104.459 57.218 104.459 C 56.879 103.128 56.61 102.073 56.386 101.196 C 54.867 101.196 53.35 101.196 51.831 101.196 C 50.428 101.196 48.662 100.903 47.297 101.196 C 47.12 101.235 46.982 101.297 46.877 101.376 Z M 90.504 100.12 C 90.453 99.736 90.351 99.41 90.167 99.206 C 89.943 100.126 89.172 101.117 88.763 102.022 C 88.178 103.318 86.93 104.189 86.383 105.506 C 85.793 106.929 86.82 107.51 87.41 108.675 C 87.662 109.175 88.79 111.763 89.635 110.774 C 90.256 110.046 90.208 108.544 90.244 107.637 C 90.302 106.19 90.424 104.709 90.424 103.252 C 90.424 102.541 90.64 101.127 90.504 100.12 Z M 73.177 121.177 C 72.553 124.077 73.903 128.129 75.798 129.26 C 77.115 130.047 80.203 130.184 81.418 128.987 C 77.487 127.636 75.81 124.022 73.177 121.177 Z M 46.271 97.663 C 46.252 99.136 46.552 99.543 47.417 99.49 C 49.938 99.338 52.461 99.226 54.985 99.147 C 56.18 99.11 56.336 98.262 56.365 97.422 C 56.397 96.443 55.698 96.527 54.941 96.544 C 52.679 96.594 50.414 96.583 48.155 96.489 C 46.765 96.431 46.285 96.639 46.271 97.663 Z M 59.29 108.517 C 59.319 108.464 59.339 108.398 59.348 108.316 C 59.375 108.045 58.9 107.481 58.72 107.299 C 58.179 106.751 57.465 106.583 56.71 106.65 C 55.828 106.731 54.924 106.517 54.029 106.503 C 52.111 106.475 50.143 106.535 48.231 106.624 C 47.883 108.572 50.064 109.037 51.623 109.099 C 53.864 109.191 56.108 109.104 58.328 108.792 C 58.766 108.73 59.145 108.783 59.29 108.517 Z M 46.639 94.306 C 49.903 94.306 53.173 94.306 56.537 94.306 C 56.574 93.669 56.616 92.931 56.643 92.434 C 53.982 92.434 51.421 92.438 48.859 92.433 C 46.925 92.429 46.925 92.425 46.639 94.306 Z M 46.097 111.288 C 45.382 111.288 44.852 111.288 44.155 111.288 C 44.68 111.864 45.081 112.304 45.586 112.857 C 45.769 112.296 45.907 111.873 46.097 111.288 Z "/>
        </g>
        <g id="Group">
          <path id="Shape" fill="#2A3D98" stroke="none" stroke-width="1" d="M 78.276 64.664 C 77.776 64.776 77.278 65.043 76.88 64.937 C 76.323 64.787 75.582 64.472 75.388 64.026 C 75.101 63.362 75.592 62.727 76.385 62.719 C 78.703 62.699 81.018 61.234 83.354 62.767 C 84.205 63.326 84.411 63.902 83.742 64.623 C 83.496 64.89 82.967 64.986 82.565 64.991 C 82.216 64.995 81.866 64.759 81.481 64.614 C 81.403 65.929 82.09 67 83.309 67.415 C 85.082 68.022 86.992 68 88.691 67.174 C 90.678 66.204 91.312 64.803 91.987 62.774 C 92.257 61.966 92.451 61.21 93.427 61.721 C 93.589 62.208 94.008 62.47 94.193 62.999 C 94.853 64.884 92.984 66.885 91.648 68.026 C 89.986 69.45 87.751 70.478 85.518 70.256 C 83.642 70.069 82.111 69.441 80.862 68.882 C 79.719 69.727 78.839 70.539 77.818 71.096 C 75.759 72.221 72.69 71.144 70.785 70.068 C 69.493 69.339 67.043 68.085 67.372 66.341 C 67.802 64.054 69.152 66.331 69.914 67.009 C 71.396 68.327 73.313 68.814 75.214 69.184 C 77.874 69.704 79.294 67.079 78.276 64.664 Z "/>
          <path id="Shape" fill="#2A3D98" stroke="none" stroke-width="1" d="M 84.853 59.609 C 84.659 59.58 84.462 59.486 84.274 59.308 C 83.497 58.569 83.595 57.174 84.582 56.588 C 85.639 55.961 86.639 57.33 86.407 58.255 C 86.228 58.967 85.553 59.712 84.853 59.609 Z "/>
          <path id="Shape" fill="#2A3D98" stroke="none" stroke-width="1" d="M 74.563 58.398 C 74.593 58.623 74.55 58.861 74.415 59.099 C 73.706 60.347 71.181 59.953 71.287 58.334 C 71.435 56.076 74.382 56.994 74.563 58.398 Z "/>
        </g>
      </g>
    </g>
  </g>
</svg>