<svg xmlns="http://www.w3.org/2000/svg" xmlns:xlink="http://www.w3.org/1999/xlink" version="1.1" width="149.71517944335938" height="153.66758728027344" viewBox="0.0036787986755371094 -0.3035874366760254 149.71517944335938 153.66758728027344">
  <!-- Exported by Scratch - http://scratch.mit.edu/ -->
  <g id="ID0.7069312180392444">
    <g id="Page-1">
      <g id="jamal-b-[sports,basketball,people,alex-eben-meyer]">
        <path id="Shape" fill="#780046" stroke="none" stroke-width="1" d="M 78.399 66.799 L 56.053 77.413 C 56.053 77.413 61.36 80.906 68.133 80.906 C 74.906 80.906 73.653 82.235 80.842 81.326 C 88.032 80.417 92.858 74.205 92.858 74.205 L 78.399 66.799 Z "/>
        <g id="Left-Leg">
          <path id="Shape" fill="#824600" stroke="none" stroke-width="1" d="M 62.357 78.579 L 62.89 123.361 L 63.058 127.867 L 72.022 123.618 C 72.022 123.618 71.918 80.601 71.87 80.525 L 62.357 78.579 Z "/>
          <path id="Shape" fill="#FFDC00" stroke="none" stroke-width="1" d="M 59.93 76.172 L 59.606 104.136 C 59.826 103.96 74.75 104.136 74.75 104.136 L 74.682 76.172 L 59.93 76.172 Z "/>
          <path id="Shape" fill="#FAB414" stroke="none" stroke-width="1" d="M 63.026 138.341 L 62.89 123.365 L 72.022 123.622 L 71.758 138.545 L 63.026 138.341 "/>
          <path id="Shape" fill="#FFDC00" stroke="none" stroke-width="1" d="M 56.638 151.662 L 63.263 150.805 L 73.056 151.43 L 72.815 152.732 L 56.321 152.864 L 56.638 151.662 "/>
          <path id="Shape" fill="#AA3278" stroke="none" stroke-width="1" d="M 57.823 150.373 C 59.018 150.308 60.208 150.165 61.384 149.944 L 61.785 137.38 L 72.659 137.38 L 73.06 151.43 L 56.638 151.666 C 56.796 151.326 56.929 150.976 57.038 150.617 C 57.289 150.503 57.552 150.421 57.823 150.373 Z "/>
          <path id="Oval" fill="#FFDC00" stroke="none" stroke-width="1" d="M 67.929 139.194 C 68.779 139.194 69.549 139.539 70.106 140.097 C 70.664 140.654 71.009 141.424 71.009 142.274 C 71.009 143.124 70.664 143.894 70.106 144.451 C 69.549 145.009 68.779 145.354 67.929 145.354 C 67.079 145.354 66.309 145.009 65.751 144.451 C 65.194 143.894 64.849 143.124 64.849 142.274 C 64.849 141.424 65.194 140.654 65.751 140.097 C 66.309 139.539 67.079 139.194 67.929 139.194 Z "/>
          <path id="Oval" fill="#780046" stroke="none" stroke-width="1" d="M 67.929 140.812 C 68.332 140.812 68.698 140.976 68.962 141.241 C 69.227 141.505 69.391 141.871 69.391 142.274 C 69.391 142.677 69.227 143.043 68.962 143.307 C 68.698 143.572 68.332 143.736 67.929 143.736 C 67.526 143.736 67.16 143.572 66.895 143.307 C 66.631 143.043 66.467 142.677 66.467 142.274 C 66.467 141.871 66.631 141.505 66.895 141.241 C 67.16 140.976 67.526 140.812 67.929 140.812 Z "/>
          <path id="Shape" fill="#FFDC00" stroke="none" stroke-width="1" d="M 60.671 139.594 L 60.671 140.375 L 62.686 140.375 L 62.938 139.594 L 60.671 139.594 "/>
          <path id="Shape" fill="#FAB414" stroke="none" stroke-width="1" d="M 60.671 141.417 L 60.671 142.198 L 62.686 142.198 L 62.938 141.417 L 60.671 141.417 "/>
          <path id="Shape" fill="#FFDC00" stroke="none" stroke-width="1" d="M 60.671 143.239 L 60.671 144.024 L 62.686 144.024 L 62.938 143.239 L 60.671 143.239 "/>
          <path id="Shape" fill="#FAB414" stroke="none" stroke-width="1" d="M 60.671 145.062 L 60.671 145.847 L 62.686 145.847 L 62.938 145.062 L 60.671 145.062 "/>
          <path id="Shape" fill="#FFDC00" stroke="none" stroke-width="1" d="M 60.671 146.888 L 60.671 147.669 L 62.686 147.669 L 62.938 146.888 L 60.671 146.888 "/>
        </g>
        <g id="Right-Leg">
          <path id="Shape" fill="#824600" stroke="none" stroke-width="1" d="M 91.064 114.95 C 91.412 117.795 91.456 120.668 91.196 123.521 L 95.009 125.632 L 100.645 123.521 C 101.246 121.022 101.91 117.614 101.846 114.398 C 101.778 109.591 100 104.02 100 104.02 C 100 104.02 95.193 86.93 93.647 81.839 C 91.484 81.19 81.844 81.971 80.402 82.704 C 81.203 85.684 84.868 93.807 85.929 96.754 C 86.534 98.413 89.99 107.216 91.064 114.95 Z "/>
          <path id="Shape" fill="#FFDC00" stroke="none" stroke-width="1" d="M 100.453 98.801 C 99.399 94.395 91.456 73.019 91.456 73.019 C 91.456 73.019 81.844 71.762 74.774 70.877 L 85.32 102.35 C 85.32 102.35 95.906 99.378 100.453 98.801 Z "/>
          <path id="Shape" fill="#FAB414" stroke="none" stroke-width="1" d="M 91.196 123.533 C 91.061 125.036 90.827 126.528 90.495 127.999 C 90.139 129.537 89.666 131.039 89.249 132.561 C 88.364 135.765 85.312 142.338 83.966 145.378 C 86.582 145.827 88.136 146.455 90.747 146.011 C 92.306 143.608 95.43 138.777 97.613 133.727 C 98.475 131.683 99.158 129.568 99.655 127.407 C 99.888 126.369 100.268 125.047 100.645 123.521 L 91.196 123.533 Z "/>
          <path id="Shape" fill="#FFDC00" stroke="none" stroke-width="1" d="M 95.386 151.662 L 88.761 150.805 L 79.769 151.43 L 80.005 152.732 L 95.698 152.864 L 95.386 151.662 "/>
          <path id="Shape" fill="#AA3278" stroke="none" stroke-width="1" d="M 94.2 150.373 C 93.005 150.308 91.816 150.165 90.639 149.944 L 97.048 137.38 L 85.769 137.38 L 79.761 151.43 L 95.382 151.666 C 95.222 151.327 95.088 150.976 94.981 150.617 C 94.732 150.504 94.47 150.421 94.2 150.373 Z "/>
          <path id="Shape" fill="#FFDC00" stroke="none" stroke-width="1" d="M 93.679 140.375 L 96.74 140.375 L 96.992 139.594 L 93.82 139.594 L 93.679 140.375 "/>
          <path id="Shape" fill="#FAB414" stroke="none" stroke-width="1" d="M 92.73 142.198 L 95.794 142.198 L 96.047 141.417 L 92.87 141.417 L 92.73 142.198 "/>
          <path id="Shape" fill="#FFDC00" stroke="none" stroke-width="1" d="M 91.781 144.024 L 94.845 144.024 L 95.097 143.239 L 91.921 143.239 L 91.781 144.024 "/>
          <path id="Shape" fill="#FAB414" stroke="none" stroke-width="1" d="M 90.836 145.847 L 93.896 145.847 L 94.148 145.062 L 90.972 145.062 L 90.836 145.847 "/>
          <path id="Shape" fill="#FFDC00" stroke="none" stroke-width="1" d="M 89.886 147.669 L 92.95 147.669 L 93.203 146.888 L 90.027 146.888 L 89.886 147.669 "/>
          <path id="Oval" fill="#FFDC00" stroke="none" stroke-width="1" d="M 87.968 139.194 C 88.818 139.194 89.588 139.539 90.145 140.097 C 90.703 140.654 91.048 141.424 91.048 142.274 C 91.048 143.124 90.703 143.894 90.145 144.451 C 89.588 145.009 88.818 145.354 87.968 145.354 C 87.118 145.354 86.348 145.009 85.79 144.451 C 85.233 143.894 84.888 143.124 84.888 142.274 C 84.888 141.424 85.233 140.654 85.79 140.097 C 86.348 139.539 87.118 139.194 87.968 139.194 Z "/>
          <path id="Oval" fill="#780046" stroke="none" stroke-width="1" d="M 87.968 140.812 C 88.371 140.812 88.737 140.976 89.001 141.241 C 89.266 141.505 89.43 141.871 89.43 142.274 C 89.43 142.677 89.266 143.043 89.001 143.307 C 88.737 143.572 88.371 143.736 87.968 143.736 C 87.564 143.736 87.199 143.572 86.934 143.307 C 86.67 143.043 86.506 142.677 86.506 142.274 C 86.506 141.871 86.67 141.505 86.934 141.241 C 87.199 140.976 87.564 140.812 87.968 140.812 Z "/>
        </g>
        <path id="Shape" fill="#824600" stroke="none" stroke-width="1" d="M 90.487 75.106 C 90.487 75.106 90.299 70.028 90.515 69.823 C 93.119 71.193 97.396 74.846 98.822 77.433 C 98.242 77.501 90.487 75.106 90.487 75.106 Z "/>
        <path id="Shape" fill="#824600" stroke="none" stroke-width="1" d="M 59.73 75.907 C 59.73 75.907 62.181 71.153 61.965 70.945 C 59.361 72.319 52.821 75.647 51.395 78.222 C 51.975 78.302 59.73 75.907 59.73 75.907 Z "/>
        <g id="Torso">
          <path id="Shape" fill="#780046" stroke="none" stroke-width="1" d="M 92.213 41.883 L 60.607 41.526 L 58.424 47.806 L 60.607 54.579 L 78.431 54.607 L 92.213 54.507 L 95.602 48.099 L 92.213 41.883 "/>
          <path id="Rectangle-path" fill="#FFDC00" stroke="none" stroke-width="1" d="M 67.148 70.08 L 85.42 70.08 L 85.42 78.555 L 67.148 78.555 L 67.148 70.08 Z "/>
          <path id="Shape" fill="#AA3278" stroke="none" stroke-width="1" d="M 63.323 39.84 L 67.3 39.488 C 67.3 39.488 66.683 49.208 74.373 49.208 C 82.064 49.208 81.799 39.752 81.799 39.752 L 85.685 39.928 C 85.685 39.928 92.578 73.172 92.758 74.666 C 90.239 75.387 58.712 78.819 58.712 78.819 L 63.323 39.84 Z "/>
        </g>
        <g id="Right-Arm">
          <path id="Shape" fill="#A0640A" stroke="none" stroke-width="1" d="M 123.776 43.657 C 111.8 42.512 97.468 42.788 97.468 42.788 L 98.91 53.338 L 114.88 53.646 C 116.83 53.926 118.849 54.283 120.888 54.74 C 133.469 57.543 140.646 62.125 138.167 71.253 C 137.25 74.634 128.847 79.308 121.717 80.649 C 116.838 81.567 104.626 78.158 101.025 77.001 C 98.991 76.348 92.274 73.865 91.04 73.464 C 88.941 72.783 86.514 72.234 86.173 73.436 C 86.866 74.89 90.876 75.118 90.98 76.905 C 91.104 79.28 85.585 77.021 85.316 78.142 C 85.048 79.264 89.658 79.344 90.491 81.158 C 91.665 83.705 87.639 82.067 86.814 82.996 C 87.022 84.37 90.475 85.143 91.492 85.52 C 93.691 86.321 95.874 87.218 98.109 87.923 C 102.443 89.297 103.937 90.675 116.991 92.152 C 124.437 92.994 137.927 89.373 144.367 82.183 C 149.222 76.764 149.574 68.926 149.026 65.321 C 148.405 61.216 146.835 55.657 141.46 50.758 C 136.333 46.092 127.485 43.998 123.776 43.657 Z "/>
          <path id="Shape" fill="#780046" stroke="none" stroke-width="1" d="M 99.619 74.698 C 102.103 75.363 104.702 75.959 107.005 77.133 C 107.258 77.73 105.243 83.357 104.963 84.146 C 104.356 85.992 103.653 87.805 102.856 89.577 C 102.055 91.263 101.318 91.367 99.251 91.111 C 97.649 90.911 95.81 89.697 94.492 88.764 C 94.4 88.5 95.165 86.713 96.167 83.557 C 97.119 80.531 98.273 77.571 99.619 74.698 Z "/>
          <path id="Shape" fill="#780046" stroke="none" stroke-width="1" d="M 92.213 54.507 L 100.224 54.447 C 100.224 54.447 99.848 41.951 98.842 41.951 C 98.618 41.951 95.814 41.927 92.221 41.887 L 92.213 54.507 Z "/>
        </g>
        <g id="Left-Arm">
          <path id="Shape" fill="#A0640A" stroke="none" stroke-width="1" d="M 25.961 43.257 C 37.937 42.111 56.618 42.387 56.618 42.387 L 56.978 52.937 L 34.856 53.246 C 32.906 53.526 30.887 53.882 28.848 54.339 C 16.272 57.143 9.094 62.125 11.573 71.253 C 12.49 74.634 20.894 79.308 28.023 80.649 C 32.902 81.567 46.716 78.158 50.313 77.001 C 52.352 76.348 59.069 73.865 60.299 73.464 C 62.397 72.783 64.829 72.234 65.165 73.436 C 64.476 74.89 60.467 75.118 60.359 76.905 C 60.235 79.28 64.076 77.449 65.073 77.117 C 65.602 77.185 65.602 77.185 65.874 77.489 C 64.977 79.576 61.664 79.352 60.835 81.158 C 59.662 83.705 63.683 82.067 64.512 82.996 C 64.304 84.37 60.851 85.143 59.834 85.52 C 57.635 86.321 55.452 87.218 53.217 87.923 C 48.883 89.297 45.787 90.675 32.734 92.152 C 25.288 92.994 11.797 89.373 5.357 82.183 C 0.502 76.764 0.15 68.926 0.695 65.321 C 1.319 61.216 2.886 55.657 8.265 50.758 C 13.404 46.092 22.252 43.597 25.961 43.257 Z "/>
          <path id="Shape" fill="#780046" stroke="none" stroke-width="1" d="M 51.719 74.698 C 49.232 75.363 46.636 75.959 44.333 77.133 C 44.081 77.73 46.092 83.357 46.376 84.146 C 46.981 85.992 47.683 87.805 48.479 89.577 C 49.28 91.263 50.017 91.367 52.104 91.111 C 53.706 90.911 55.544 89.697 56.862 88.764 C 56.95 88.5 56.189 86.713 55.188 83.557 C 54.228 80.531 53.069 77.571 51.719 74.698 Z "/>
          <path id="Shape" fill="#780046" stroke="none" stroke-width="1" d="M 60.771 41.55 C 56.742 41.506 53.517 41.446 53.517 41.446 L 52.316 54.547 L 60.595 54.579 L 60.771 41.55 Z "/>
        </g>
        <g id="Head">
          <path id="Shape" fill="#000000" stroke="none" stroke-width="1" d="M 87.743 5.411 C 82.937 0.809 74.974 -1.097 68.73 1.121 C 61.765 3.597 57.655 10.225 58.284 17.543 C 58.528 20.383 59.085 23.715 60.923 26.01 C 62.662 28.157 67.036 30.696 69.879 30.127 L 84.731 28.477 C 91.228 28.205 93.575 10.978 87.743 5.411 Z "/>
          <path id="Shape" fill="#A0640A" stroke="none" stroke-width="1" d="M 85.625 25.389 C 85.625 25.085 85.108 19.762 82.677 16.718 C 80.482 13.97 76.412 13.462 75.11 13.402 C 69.619 13.153 65.417 16.842 64.977 19.938 C 64.312 24.58 65.574 29.35 68.714 33.692 C 70.436 36.075 72.936 36.824 75.211 36.82 C 81.535 36.812 85.897 31.493 85.625 25.389 Z "/>
          <path id="Shape" fill="#000000" stroke="none" stroke-width="1" d="M 65.389 24.396 L 65.097 14.13 L 62.229 16.81 L 64.336 22.93 L 65.389 24.396 "/>
          <path id="Shape" fill="#000000" stroke="none" stroke-width="1" d="M 85.681 22.93 L 87.792 16.81 L 83.354 13.726 L 84.175 23.391 L 85.681 22.93 "/>
          <path id="Shape" fill="#A0640A" stroke="none" stroke-width="1" d="M 83.057 29.062 C 83.057 29.062 85.861 27.892 87.463 25.662 C 88.496 24.22 88.873 21.76 88.228 20.815 C 87.391 19.578 85.921 19.193 84.739 20.262 C 83.83 21.088 82.881 25.834 82.765 26.951 C 82.781 26.971 83.057 29.062 83.057 29.062 Z "/>
          <path id="Shape" fill="#A0640A" stroke="none" stroke-width="1" d="M 67.965 28.685 C 67.965 28.685 64.949 28.505 62.698 26.927 C 61.244 25.91 60.074 23.723 60.367 22.61 C 60.767 21.164 62.009 20.315 63.475 20.935 C 64.608 21.412 67.08 25.573 67.56 26.591 C 67.54 26.619 67.965 28.685 67.965 28.685 Z "/>
          <path id="Shape" fill="#000000" stroke="none" stroke-width="1" d="M 70.604 29.238 C 71.618 28.992 72.68 29.036 73.669 29.366 C 74.265 30.692 70.016 30.644 70.604 29.238 Z "/>
          <path id="Shape" fill="#824600" stroke="none" stroke-width="1" d="M 77.017 26.755 C 75.98 27.18 74.934 26.939 73.901 26.683 C 73.552 25.794 74.918 23.447 75.855 23.415 C 76.753 24.34 77.366 25.337 77.017 26.755 Z "/>
          <path id="Shape" fill="#000000" stroke="none" stroke-width="1" d="M 69.903 23.367 C 70 24.019 70.076 24.6 69.699 25.133 C 68.75 25.217 69.038 23.531 69.483 23.15 L 69.903 23.367 Z "/>
          <path id="Shape" fill="#000000" stroke="none" stroke-width="1" d="M 81.135 23.423 C 81.207 24.035 81.535 24.624 81.046 25.221 L 80.37 25.077 C 80.406 24.452 80.161 23.831 80.634 23.282 L 81.135 23.423 Z "/>
        </g>
      </g>
    </g>
  </g>
</svg>