<svg xmlns="http://www.w3.org/2000/svg" xmlns:xlink="http://www.w3.org/1999/xlink" version="1.1" width="95.86817932128906" height="115.7239990234375" viewBox="-0.21399998664855957 -0.11399996280670166 95.86817932128906 115.7239990234375">
  <!-- Exported by Scratch - http://scratch.mit.edu/ -->
  <g id="ID0.17665959615260363">
    <g id="Page-1">
      <g id="takeout-c-[food,alex-eben-meyer]">
        <g id="scratch_fridge_takeout01">
          <path id="Shape" fill="#006482" stroke="none" stroke-width="1" d="M 73.047 66.323 C 77.649 70.124 82.668 73.626 86.319 76.306 L 86.319 79.432 C 81.782 77.572 75.324 74.265 69.303 70.628 C 57.434 63.44 53.799 55.949 55.747 51.549 C 57.695 47.148 66.83 61.188 73.047 66.323 Z "/>
          <g id="Group">
            <path id="Shape" fill="#008264" stroke="none" stroke-width="1" d="M 2.827 102.177 C 2.827 102.177 6.996 106.681 6.471 107.06 C 5.946 107.44 5.024 106.21 4.367 105.691 C 4.068 105.424 3.721 105.215 3.345 105.076 L 2.827 102.177 Z "/>
            <path id="Shape" fill="#00A08C" stroke="none" stroke-width="1" d="M 3.008 109.216 C 3.653 109.296 2.683 105.307 3.87 106.681 C 4.102 106.948 3.87 109.34 4.751 109.177 C 4.013 102.022 4.207 94.803 5.329 87.698 C 5.818 84.599 7.016 80.538 10.139 71.087 C 13.261 61.635 9.878 62.542 7.93 64.614 C 5.982 66.686 3.805 75.335 3.056 77.859 C 2.286 80.499 1.75 83.2 1.453 85.933 C 1.052 89.435 0.675 92.853 0.567 96.391 C 0.515 98.128 0.511 99.877 0.603 101.618 C 0.651 102.532 0.711 108.238 1.625 108.745 C 1.958 107.184 1.336 106.034 1.954 106.074 C 2.571 106.114 2.366 109.137 3.008 109.216 Z "/>
          </g>
          <path id="Shape" fill="#006482" stroke="none" stroke-width="1" d="M 28.373 92.853 C 27.652 97.285 26.529 103.035 26.084 104.804 C 25.708 106.306 25.259 107.811 24.854 109.304 C 24.421 110.902 23.25 112.499 23.19 114.192 C 23.956 114.415 25.72 113.96 25.72 113.96 C 25.72 113.96 26.349 114.543 25.88 114.759 C 25.327 115.022 23.615 114.931 22.962 114.939 C 22.393 114.939 20.885 114.839 20.885 114.839 C 20.885 114.839 18.709 88.449 24.164 87.546 C 29.62 86.644 28.373 92.853 28.373 92.853 Z "/>
          <path id="Shape" fill="#006482" stroke="none" stroke-width="1" d="M 50.977 92.853 C 49.033 98.02 46.912 103.518 46.275 105.064 C 45.072 107.975 43.068 110.766 42.21 113.777 C 42.739 113.976 45.076 113.625 45.108 114.208 C 45.169 115.258 42.768 114.655 42.258 114.647 C 41.176 114.647 39.493 115.206 39.132 114.38 C 38.859 113.749 42.299 99.541 43.701 92.849 C 43.701 92.849 43.253 88.189 48.708 87.41 C 54.164 86.632 50.977 92.853 50.977 92.853 Z "/>
          <path id="Shape" fill="#828278" stroke="none" stroke-width="1" d="M 51.678 24.017 L 54.757 36.575 L 57.122 36.455 L 51.855 20.718 L 51.678 24.017 "/>
          <g id="Group-2">
            <path id="Shape" fill="#008264" stroke="none" stroke-width="1" d="M 16.308 65.708 L 13.017 97.141 C 13.017 97.141 30.486 96.93 33.861 96.694 C 32.346 93.101 30.558 65.548 30.558 65.548 L 16.308 65.708 Z "/>
            <path id="Shape" fill="#00A08C" stroke="none" stroke-width="1" d="M 7.501 33.129 C 8.96 33.129 21.463 32.638 21.463 32.638 L 29.941 50.267 C 30.434 51.76 13.013 97.141 13.013 97.141 C 13.013 97.141 4.403 55.658 3.393 50.507 C 2.88 47.883 2.491 45.236 1.998 42.612 C 1.449 39.697 0.286 36.535 0.286 33.56 C 2.475 32.785 5.216 33.121 7.501 33.129 Z "/>
            <path id="Shape" fill="#78C8C8" stroke="none" stroke-width="1" d="M 13.161 43.139 L 21.467 32.638 L 38.972 32.378 L 42.126 38.739 L 33.877 96.694 C 33.877 96.694 32.153 93.771 31.66 92.933 C 30.899 91.631 30.221 90.293 29.588 88.94 C 28.449 86.488 27.183 84.108 26.068 81.636 C 24.104 77.244 21.992 72.828 20.332 68.316 C 18.464 63.22 16.428 58.141 14.833 52.954 C 14.103 50.586 13.053 48.219 12.56 45.791 C 12.311 44.573 12.404 44.21 13.161 43.139 Z "/>
            <path id="Shape" fill="#281446" stroke="none" stroke-width="1" d="M 15.506 46.378 C 15.506 47.488 16.143 48.374 16.929 48.374 C 17.715 48.374 18.352 47.476 18.352 46.378 C 18.373 45.759 18.145 45.158 17.719 44.709 C 17.506 44.496 17.218 44.376 16.917 44.373 C 16.516 44.373 15.963 44.928 15.715 45.292 C 15.466 45.655 15.506 45.823 15.506 46.378 Z "/>
          </g>
          <path id="Shape" fill="#828278" stroke="none" stroke-width="1" d="M 13.225 11.498 C 19.169 11.147 25.128 11.124 31.075 11.431 C 35.484 11.642 47.109 10.352 49.726 14.813 C 51.169 17.26 51.871 20.311 52.532 23.042 C 53.169 25.666 54.32 28.433 54.645 31.1 C 52.7 30.881 52.64 27.606 52.151 25.949 C 51.446 23.553 50.929 21.118 50.307 18.686 C 49.802 16.689 49.269 14.154 47.245 13.259 C 45.297 12.393 42.174 12.78 40.078 12.68 C 31.909 12.281 21.447 12.68 13.285 12.756 C 11.854 12.756 10.007 12.888 9.558 14.697 C 9.221 16.063 12.199 28.581 13.081 32.897 C 13.482 34.77 13.578 36.687 13.967 38.543 C 14.195 39.641 14.516 40.724 14.769 41.814 C 14.949 42.544 15.045 44.785 15.546 45.388 C 15.658 45.519 16.48 45.731 17.093 45.986 C 17.18 46.32 17.157 46.673 17.025 46.993 L 16.817 47.053 C 15.214 47.484 14.516 46.026 14.107 44.84 C 11.794 38.1 8.523 17.288 8.471 15.899 C 8.383 12.752 10.419 11.67 13.225 11.498 Z "/>
          <path id="Shape" fill="#00A0B4" stroke="none" stroke-width="1" d="M 38.968 32.378 L 72.903 32.47 C 72.903 32.47 71.544 37.901 71.231 39.206 C 70.51 42.193 69.628 45.152 69.067 48.171 C 67.864 54.46 65.828 60.685 64.257 66.798 C 62.685 72.912 60.741 78.929 59.206 85.043 C 58.545 87.674 56.228 95.66 56.228 95.66 C 56.228 95.66 52.055 95.984 50.736 96.095 C 47.678 96.359 44.664 96.555 41.597 96.63 C 39.97 96.67 38.342 96.746 36.719 96.734 C 35.095 96.722 33.869 96.694 33.869 96.694 L 38.968 32.378 Z "/>
          <g id="Group-3">
            <path id="Shape" fill="#006482" stroke="none" stroke-width="1" d="M 88.111 76.21 L 88.155 76.254 C 88.496 76.617 91.133 78.845 89.823 82.148 C 88.404 85.721 86.86 86.141 86.86 86.141 L 88.111 76.21 Z "/>
            <path id="Shape" fill="#828278" stroke="none" stroke-width="1" d="M 86.331 109.931 L 88.7 113.729 L 88.568 115.11 L 81.373 115.014 L 81.128 113.729 L 86.331 109.931 "/>
            <path id="Shape" fill="#C8C8BE" stroke="none" stroke-width="1" d="M 88.7 113.729 L 81.128 113.729 C 81.128 113.729 83.237 51.637 83.533 45.372 C 83.646 42.832 83.902 40.304 84.026 37.757 C 84.095 36.359 83.806 33.364 84.427 31.711 L 87.233 31.711 C 87.802 33.041 87.706 35.229 87.814 36.387 C 88.075 39.182 88.067 42.029 88.243 44.836 C 88.616 50.447 88.7 113.729 88.7 113.729 Z "/>
            <path id="Shape" fill="#C8C8BE" stroke="none" stroke-width="1" d="M 78.439 0.386 C 78.944 5.633 78.888 23.006 79.898 24.807 C 80.407 25.714 81.337 24.895 81.337 24.895 C 81.337 24.895 82.748 2.458 83.024 0.386 L 84.183 0.386 C 84.531 2.586 84.231 20.535 84.411 22.164 C 84.495 22.935 85.445 25.826 87.093 24.109 C 87.919 23.25 87.895 5.553 88.4 0.386 L 89.017 0.386 C 89.562 5.724 88.536 24.548 91.101 24.584 C 93.667 24.62 92.821 5.613 93.422 0.386 L 93.975 0.386 C 94.336 4.167 94.681 15.228 95.054 21.05 C 95.454 27.063 95.054 37.086 86.187 37.573 C 77.32 38.06 76.41 28.249 76.41 24.093 C 76.41 21.725 76.976 5.445 77.693 0.386 L 78.439 0.386 Z "/>
            <path id="Shape" fill="#828278" stroke="none" stroke-width="1" d="M 85.89 34.754 C 82.728 34.754 80.916 33.632 80.844 32.634 C 80.8 32.039 81.673 30.35 86.099 30.445 C 90.524 30.541 90.961 31.364 91.105 31.903 C 91.41 33.045 89.053 34.754 85.89 34.754 Z "/>
          </g>
        </g>
      </g>
    </g>
  </g>
</svg>