<svg xmlns="http://www.w3.org/2000/svg" xmlns:xlink="http://www.w3.org/1999/xlink" width="69.84459679451172" height="77.20458977546875" viewBox="1.081355367468872 0.11559322910217285 69.84459679451172 77.20458977546875" version="1.1" xml:space="preserve">
  <g>
    <title>Slice 1</title>
    <desc>Created with Sketch.</desc>
    <g id="Page-1" stroke="none" fill-rule="evenodd">
      <g id="Party-Hat-d-[fashion,winter]">
        <g id="Hat_Base">
          <path d="M 7.5091 62.7209 C 7.5091 62.7209 5.926 46.7305 24.732 36.7183 C 43.5345 26.7026 53.9823 16.6373 55.4202 14.7496 C 56.5145 13.3153 58.8166 8.0701 61.4445 10.8857 C 64.0865 13.6978 64.0865 24.4147 61.4445 35.4858 C 58.8166 46.5534 65.0003 53.41 64.2813 61.6691 C 64.2813 61.6655 37.7333 49.5425 7.5091 62.7209 Z " id="Fill_1_" fill="#458EF9" stroke-width="1"/>
          <g id="Stripes_3_">
            <path d="M 8.7911 54.2848 C 8.7911 54.2848 34.5635 40.1962 63.4455 54.2848 L 61.9297 49.1919 C 61.9297 49.1919 39.6776 37.5435 11.1074 49.1955 L 8.7911 54.2848 Z " id="ID0.4795656418427825" stroke-width="1" fill="#1F1287"/>
            <path d="M 20.0181 39.3037 C 20.0181 39.3037 44.4305 32.5392 59.9641 42.562 L 60.892 38.4183 C 60.892 38.4183 44.002 28.8453 26.9207 34.5154 L 20.0181 39.3037 Z " id="ID0.2848444706760347" stroke-width="1" fill="#1F1287"/>
            <path d="M 44.2676 25.548 C 44.2676 25.548 56.9927 25.6472 61.0797 33.0669 L 62.6557 29.3057 C 62.6557 29.3057 60.1518 22.0383 47.6144 22.1835 L 43.8391 25.8632 " id="ID0.9288907898589969" stroke-width="1" fill="#1F1287"/>
            <path d="M 55.4202 14.7496 C 55.4202 14.7496 61.6322 15.8404 63.2578 19.676 L 63.2578 13.1063 L 56.6172 11.3674 L 55.4202 14.7496 Z " id="ID0.18686081282794476" stroke-width="1" fill="#1F1287"/>
          </g>
          <path d="M 6.7476 64.0172 L 6.6272 62.8059 C 6.6095 62.643 5.207 46.1107 24.3141 35.9356 C 43.3255 25.8101 53.6139 15.6598 54.7118 14.2148 C 54.8996 13.9775 55.1121 13.6234 55.3635 13.2232 C 56.4154 11.5197 57.8674 9.1822 59.872 9.1822 C 60.6618 9.1822 61.4091 9.5505 62.0926 10.2801 C 65.3792 13.7792 64.6851 25.7109 62.3086 35.6912 C 60.8424 41.8678 62.213 46.6632 63.5411 51.3027 C 64.5363 54.7983 65.4855 58.0956 65.1667 61.7434 L 65.0569 62.9936 L 63.9165 62.4766 C 63.8067 62.427 52.7392 57.4652 37.071 57.4652 C 26.9278 57.4652 17.0998 59.5087 7.8632 63.532 L 6.7476 64.0172 Z M 59.8755 10.953 C 58.852 10.953 57.5664 13.0355 56.8652 14.1546 C 56.5818 14.6115 56.3339 15.0117 56.125 15.2844 C 54.9208 16.8675 44.6855 27.0886 25.1464 37.4975 C 9.8997 45.6149 8.4122 57.536 8.352 61.3964 C 17.4646 57.6104 27.1155 55.6908 37.0675 55.6908 C 50.3131 55.6908 60.1482 59.0589 63.4561 60.3622 C 63.4632 57.4864 62.6663 54.7098 61.8376 51.7879 C 60.5095 47.1555 59.0078 41.9068 60.5839 35.2804 C 63.4065 23.4478 62.893 13.719 60.7999 11.4913 C 60.4705 11.1336 60.1589 10.953 59.8755 10.953 Z " id="Outline_6_" fill="#000000" fill-rule="nonzero" stroke-width="1"/>
        </g>
        <path d="M 61.0797 1.001 C 62.8363 1.001 64.4301 1.681 65.5846 2.7754 C 66.7357 3.8697 67.4511 5.3856 67.4511 7.0537 C 67.4511 8.7218 66.7357 10.2376 65.5846 11.3319 C 64.4301 12.4263 62.8363 13.1063 61.0797 13.1063 C 59.323 13.1063 57.7293 12.4263 56.5747 11.3319 C 55.4237 10.2376 54.7083 8.7218 54.7083 7.0537 C 54.7083 5.3856 55.4237 3.8697 56.5747 2.7754 C 57.7293 1.681 59.323 1.001 61.0797 1.001 Z " id="Puff" stroke="#000000" stroke-width="1.77081292" fill="#4A3CED"/>
        <g id="Brim">
          <path d="M 4.9378 67.6403 C 4.9378 67.6403 2.4552 64.9911 4.9378 62.7174 C 7.4241 60.4472 20.9779 54.1112 35.7996 54.2848 C 50.6177 54.4583 55.4945 56.2185 59.2983 57.9752 C 63.0949 59.7318 70.5181 64.3005 67.3307 68.3415 C 67.3307 68.3415 71.8321 75.7718 67.8159 75.7718 C 66.9092 75.7718 64.1715 74.6668 64.1715 74.6668 C 64.1715 74.6668 41.668 62.0162 8.1005 74.6668 C 8.1005 74.6704 -2.28 78.9451 4.9378 67.6403 Z " id="Brim_Fill" fill="#4A3CED" stroke-width="1"/>
          <path d="M 68.3081 68.3521 C 68.9031 67.41 69.0696 66.3901 68.8146 65.3169 C 67.8477 61.2866 61.0549 57.9645 59.7055 57.3412 C 55.8027 55.5385 50.7559 53.7642 35.9235 53.5871 L 35.3108 53.5835 C 20.5564 53.5835 7.1726 59.831 4.5801 62.2039 C 3.7337 62.9795 3.2874 63.879 3.252 64.8742 C 3.206 66.0571 3.7656 67.0771 4.1622 67.6438 C 2.1612 70.2823 1.5237 72.6056 2.2675 74.5571 C 3.5247 77.8543 8.9718 75.145 8.9718 75.145 C 18.6227 71.5679 28.2736 69.7546 37.6695 69.7546 C 52.1654 69.7546 61.6711 74.1356 63.5872 75.1025 C 63.5872 75.1025 66.6507 76.4695 67.8052 76.4341 C 69.1192 76.3916 69.6646 75.5204 69.9302 74.3516 C 70.4579 72.0319 68.9563 69.3721 68.3081 68.3521 Z M 68.5561 74.0364 C 67.954 75.8497 64.6284 74.0577 64.6284 74.0577 C 64.214 73.8239 54.2727 68.345 37.666 68.345 C 27.9372 68.345 17.9427 70.2504 7.9659 74.0152 L 7.4595 74.2064 C 7.4595 74.2064 4.2614 75.8391 3.5779 74.0506 C 2.9864 72.4958 3.6664 70.4877 5.5966 68.0865 L 5.9791 67.6084 C 5.9791 67.6084 7.0239 66.2803 9.2232 65.2284 C 9.2232 65.2284 7.3745 65.2426 5.2566 66.7442 C 4.9768 66.3369 4.6191 65.6747 4.651 64.9274 C 4.6758 64.3111 4.9591 63.7586 5.5257 63.2416 C 7.6968 61.2512 20.7937 54.986 35.3073 54.986 L 35.9058 54.9896 C 50.4548 55.1631 55.3458 56.8773 59.1141 58.6162 C 62.8363 60.3339 66.8561 63.1743 67.444 65.6392 C 67.6034 66.2838 67.4511 66.8788 67.1323 67.4596 C 65.1419 66.1634 63.4384 66.1457 63.4384 66.1457 C 65.6378 67.1976 66.6825 68.5292 66.6825 68.5292 L 66.718 68.5257 L 66.8844 68.7594 C 67.49 69.5952 69.1652 72.216 68.5561 74.0364 Z " id="Brim_Outline" fill="#000000" fill-rule="nonzero" stroke-width="1"/>
        </g>
      </g>
    </g>
  </g>
</svg>