<svg xmlns="http://www.w3.org/2000/svg" xmlns:xlink="http://www.w3.org/1999/xlink" version="1.1" width="89.85348733337366" height="77.7263968792721" viewBox="12.047324021301451 9.530119736633482 89.85348733337366 77.7263968792721">
  <!-- Exported by Scratch - http://scratch.mit.edu/ -->
  <path id="ID0.7662904155440629" fill="#919191" stroke="#919191" stroke-width="3.0186484661861592" d="M 71.7597 63.0116 C 79.1823 62.9798 85.9035 64.2247 90.7671 66.2613 C 95.6315 68.2991 98.6368 71.1275 98.6269 74.2639 C 98.617 77.4003 95.5937 80.2545 90.7164 82.334 C 85.8397 84.4124 79.1105 85.7148 71.6878 85.7466 C 64.2652 85.7784 57.544 84.5335 52.6804 82.4969 C 47.816 80.459 44.8107 77.6307 44.8206 74.4943 C 44.8305 71.3578 47.8538 68.5037 52.7312 66.4241 C 57.6078 64.3458 64.3371 63.0434 71.7597 63.0116 Z "/>
  <path id="ID0.8972083395346999" fill="#A85B00" stroke="none" stroke-linecap="round" d="M 65.844 17.8124 C 77.4644 22.5287 87.0747 29.068 93.2138 35.8228 C 99.3528 42.5777 101.6235 48.6023 99.7566 55.1261 C 97.2181 63.9788 89.7161 72.3191 80.9922 75.9077 C 71.2964 80.1856 59.1976 80.5713 48.9623 76.8176 C 37.0605 72.4509 25.5406 63.979 19.1614 53.1246 C 13.4764 43.8213 11.848 30.9146 15.5188 20.9366 C 17.8646 14.569 24.5538 12.219 33.664 11.6534 C 42.7742 11.0878 54.2236 13.096 65.844 17.8124 Z " stroke-width="0.6910801836969137"/>
  <path id="ID0.10735392430797219" fill="#EF9300" stroke="#EAC28E" stroke-width="1.9026992387589352" stroke-linecap="round" d="M 65.9956 17.8923 C 77.0685 22.3865 86.3776 28.2419 92.474 34.071 C 98.5701 39.9007 101.4528 45.7038 99.6709 50.094 C 97.889 54.4843 91.7774 56.6368 83.3427 56.569 C 74.9083 56.5005 64.1516 54.2117 53.0787 49.7176 C 42.0058 45.2235 32.6966 39.368 26.6003 33.5389 C 20.5041 27.7092 17.6215 21.9061 19.4033 17.5159 C 21.1852 13.1257 27.2968 10.9731 35.7315 11.041 C 44.1659 11.1095 54.9227 13.3982 65.9956 17.8923 Z "/>
  <path id="ID0.4141157087869942" fill="none" stroke="#EAC28E" stroke-width="1.378791351498305" stroke-linecap="round" d="M 63.4928 17.5904 C 63.4928 17.5904 59.1879 30.1982 55.4133 35.5674 C 52.6218 39.5382 44.2588 44.9499 44.2588 44.9499 "/>
  <path id="ID0.011384283192455769" fill="none" stroke="#EAC28E" stroke-width="1.378791351498305" stroke-linecap="round" d="M 56.955 32.6877 L 92.251 34.2969 "/>
  <path id="ID0.8657065210863948" fill="none" stroke="#EAC28E" stroke-width="1.378791351498305" stroke-linecap="round" d="M 77.3849 55.6725 C 77.3849 55.6725 56.6821 33.3601 56.6821 33.3601 L 22.2758 14.3986 "/>
  <path id="ID0.9600630304776132" fill="none" stroke="#EAC28E" stroke-width="1.378791351498305" stroke-linecap="round" d="M 55.3694 32.8273 L 26.2603 32.2376 "/>
  <path id="ID0.13748089503496885" fill="none" stroke="#EAC28E" stroke-width="1.378791351498305" stroke-linecap="round" d="M 55.7689 33.7726 L 41.6498 11.41 "/>
  <path id="ID0.14989860635250807" fill="none" stroke="#EAC28E" stroke-width="1.378791351498305" stroke-linecap="round" d="M 56.6315 34.4956 L 98.6741 50.8135 "/>
</svg>