<svg xmlns="http://www.w3.org/2000/svg" xmlns:xlink="http://www.w3.org/1999/xlink" width="146.6999969482422" height="144.10000610351562" viewBox="-0.29999999701976776 0 146.6999969482422 144.10000610351562" version="1.1" xml:space="preserve">
  <!-- Generator: Sketch 52.4 (67378) - http://www.bohemiancoding.com/sketch -->
  <g>
    <title>Slice 1</title>
    <desc>Created with Sketch.</desc>
    <g id="Page-1" stroke="none" fill-rule="evenodd">
      <g id="heart-code-[food,sweethearts]">
        <g id="ID0.2657389142550528">
          <g id="Group">
            <path d="M 42.8 8 C 24 8 8.8 24.3 8.8 44.3 C 8.8 85.1 47.3 95.8 73.6 136.1 C 98.4 96 138.4 83.8 138.4 44.3 C 138.4 24.3 123.2 8 104.4 8 C 90.8 8 79.1 16.6 73.6 28.9 C 68.1 16.6 56.4 8 42.8 8 Z " id="ID0.2874125149101019_2_" stroke-width="1" fill="#FFD499"/>
            <path d="M 73.6 143.6 C 71.1 143.6 68.7 142.3 67.3 140.2 C 57.7 125.5 48.5 115 37.7 104.9 C 20 88.3 1.3 72.7 1.3 44.3 C 1.3 20.1 19.9 0.5 42.8 0.5 C 54.7 0.5 65.8 5.9 73.6 15 C 81.4 6 92.5 0.5 104.4 0.5 C 127.3 0.5 145.9 20.2 145.9 44.3 C 145.9 71.5 129.3 87.2 111.7 103.8 C 100.6 114.3 89.2 125.1 80 140 C 78.6 142.2 76.2 143.5 73.6 143.6 C 73.6 143.6 73.6 143.6 73.6 143.6 Z M 42.8 15.5 C 28.2 15.5 16.3 28.4 16.3 44.3 C 16.3 66.2 28.7 77.8 46 93.9 C 54.8 102.1 64.5 111.2 73.5 122.9 C 82.4 110.9 92.4 101.4 101.4 92.9 C 117.9 77.3 130.9 65 130.9 44.3 C 130.9 28.4 119 15.5 104.4 15.5 C 94.3 15.5 84.9 22 80.5 32 C 79.3 34.7 76.6 36.5 73.6 36.5 C 70.6 36.5 67.9 34.7 66.7 32 C 62.3 22 52.9 15.5 42.8 15.5 Z " id="Shape" fill-rule="nonzero" stroke-width="1" fill="#FFD499"/>
          </g>
          <path d="M97.7,1.5 C86.6,1.5 76.1,6.5 68.7,14.9 C61.3,6.5 50.9,1.5 39.7,1.5 C17.9,1.5 0.2,20.2 0.2,43.2 C0.2,70.1 16,84.9 32.7,100.5 C42.9,110 53.4,119.8 62.3,133.6 C63.7,135.7 66.1,137 68.6,137 C68.6,137 68.7,137 68.7,137 C71.3,137 73.6,135.6 75,133.5 C83.7,119.5 94.4,109.3 104.8,99.5 C121.4,83.8 137.1,68.9 137.1,43.2 C137.2,20.2 119.5,1.5 97.7,1.5 Z" id="Path" fill="#FFE9CC" stroke-width="1"/>
        </g>
        <g id="Group">
          <path d="M 34.1 46.2 C 35.3 47.4 36 48.8 36.2 50.3 L 33.8 50.3 C 33.5 49.1 33 48.2 32.2 47.5 C 31.4 46.8 30.3 46.5 28.9 46.5 C 27.2 46.5 25.8 47.1 24.7 48.4 C 23.6 49.7 23.1 51.6 23.1 54.1 C 23.1 56.2 23.6 57.9 24.5 59.2 C 25.4 60.5 26.9 61.2 28.8 61.2 C 30.6 61.2 31.9 60.5 32.8 59.1 C 33.3 58.4 33.7 57.4 33.9 56.2 L 36.3 56.2 C 36.1 58.1 35.4 59.7 34.2 61 C 32.8 62.5 30.9 63.3 28.5 63.3 C 26.4 63.3 24.7 62.7 23.3 61.4 C 21.5 59.7 20.5 57.1 20.5 53.6 C 20.5 50.9 21.2 48.8 22.6 47.1 C 24.1 45.3 26.2 44.3 28.8 44.3 C 31.2 44.4 32.9 45 34.1 46.2 Z " id="Path" stroke-width="1" fill="#FF9400"/>
          <path d="M 54.4 47.4 C 55.6 49 56.2 51 56.2 53.5 C 56.2 56.2 55.5 58.4 54.2 60.2 C 52.6 62.3 50.3 63.3 47.4 63.3 C 44.6 63.3 42.5 62.4 40.9 60.6 C 39.5 58.8 38.8 56.6 38.8 53.9 C 38.8 51.5 39.4 49.4 40.6 47.7 C 42.2 45.5 44.4 44.4 47.5 44.4 C 50.5 44.4 52.8 45.4 54.4 47.4 Z M 52.2 58.9 C 53.2 57.4 53.6 55.6 53.6 53.6 C 53.6 51.5 53 49.8 51.9 48.5 C 50.8 47.2 49.3 46.6 47.4 46.6 C 45.5 46.6 44 47.2 42.8 48.5 C 41.6 49.8 41 51.7 41 54.2 C 41 56.2 41.5 57.9 42.5 59.2 C 43.5 60.5 45.1 61.3 47.4 61.3 C 49.7 61.2 51.2 60.4 52.2 58.9 Z " id="Shape" fill-rule="nonzero" stroke-width="1" fill="#FF9400"/>
          <path d="M 59.2 44.9 L 66.4 44.9 C 68.8 44.9 70.7 45.8 72.1 47.5 C 73.3 49.1 73.9 51.1 73.9 53.6 C 73.9 55.5 73.5 57.2 72.8 58.8 C 71.6 61.5 69.4 62.9 66.4 62.9 L 59.2 62.9 L 59.2 44.9 Z M 65.9 60.8 C 66.7 60.8 67.4 60.7 67.9 60.5 C 68.8 60.2 69.6 59.6 70.2 58.7 C 70.7 58 71 57 71.2 55.9 C 71.3 55.2 71.4 54.6 71.4 54 C 71.4 51.8 71 50 70.1 48.8 C 69.2 47.6 67.8 47 65.8 47 L 61.6 47 L 61.6 60.8 L 65.9 60.8 Z " id="Shape" fill-rule="nonzero" stroke-width="1" fill="#FF9400"/>
          <polygon id="Path" points="57.4 0.9 70.5 0.9 70.5 3.1 59.8 3.1 59.8 8.6 69.7 8.6 69.7 10.7 59.8 10.7 59.8 16.8 70.7 16.8 70.7 18.9 57.5 18.9 57.5 0.9" stroke-width="1" fill="#FF9400" transform="matrix(1,0,0,1,20,44)"/>
          <polygon id="Path" points="81.4 0.9 83.9 0.9 83.9 18.9 81.4 18.9" stroke-width="1" fill="#FF9400" transform="matrix(1,0,0,1,20,44)"/>
          <polygon id="Path" points="100.9 0.9 100.9 3 94.8 3 94.8 18.8 92.3 18.8 92.3 3 86.2 3 86.2 0.9" stroke-width="1" fill="#FF9400" transform="matrix(1,0,0,1,20,44)"/>
        </g>
      </g>
    </g>
  </g>
</svg>