<svg xmlns="http://www.w3.org/2000/svg" xmlns:xlink="http://www.w3.org/1999/xlink" version="1.1" width="115.71299743652344" height="102.4969253540039" viewBox="0.28700000047683716 -0.0651576817035675 115.71299743652344 102.4969253540039">
  <!-- Exported by Scratch - http://scratch.mit.edu/ -->
  <g id="ID0.08603932848200202">
    <g id="Page-1">
      <g id="takeout-d-[food,alex-eben-meyer]">
        <g id="scratch_fridge_takeout02">
          <path id="Shape" fill="#00A08C" stroke="none" stroke-width="1" d="M 14.332 78.766 C 14.332 78.766 10.023 83.511 7.224 79.455 C 7.066 79.126 6.933 78.785 6.825 78.435 L 14.332 78.766 Z "/>
          <path id="Shape" fill="#006482" stroke="none" stroke-width="1" d="M 73.006 76.583 C 72.431 74.459 71.66 71.467 70.542 67.395 C 68.294 59.223 60.22 47.915 63.89 45.17 C 67.559 42.425 68.506 47.238 68.997 47.867 C 69.336 48.302 73.03 56.179 74.531 64 C 75.773 70.479 75.881 74.192 75.729 76.583 L 73.006 76.583 Z "/>
          <path id="Shape" fill="#006482" stroke="none" stroke-width="1" d="M 17.375 92.341 C 17.375 91.775 17.474 90.277 17.474 90.277 C 17.474 90.277 22.266 91.982 25.513 90.189 C 27.509 89.086 27.405 85.408 27.178 82.99 C 27.178 82.99 26.89 76.296 31.57 76.395 C 36.25 76.495 34.94 83.264 34.94 83.264 C 34.88 85.882 34.541 90.07 32.944 92.532 C 30.863 95.72 24.498 94.62 23.005 94.218 C 21.408 93.787 19.81 92.624 18.117 92.564 C 17.894 93.325 18.349 95.078 18.349 95.078 C 18.349 95.078 17.766 95.704 17.55 95.237 C 17.291 94.68 17.383 92.986 17.375 92.341 Z "/>
          <path id="Shape" fill="#006482" stroke="none" stroke-width="1" d="M 48.393 74.869 C 50.94 69.176 56.035 78.631 56.035 78.631 C 58.906 84.077 60.695 88.655 61.55 90.416 C 62.915 93.245 63.658 96.592 65.331 99.23 C 65.834 98.971 67.124 97.007 67.583 97.373 C 68.406 98.031 66.361 99.405 66.014 99.764 C 65.283 100.561 64.589 102.182 63.734 101.899 C 62.971 101.656 45.845 80.563 48.393 74.869 Z "/>
          <g id="Group-3">
            <path id="Shape" fill="#828278" stroke="none" stroke-width="1" d="M 58.519 13.207 L 61.586 25.738 L 63.942 25.619 L 58.695 9.916 L 58.519 13.207 "/>
            <path id="Shape" fill="#008264" stroke="none" stroke-width="1" d="M 23.284 54.808 L 20.006 86.173 C 20.006 86.173 37.408 85.962 40.77 85.727 C 39.261 82.141 37.48 54.649 37.48 54.649 L 23.284 54.808 Z "/>
            <path id="Shape" fill="#00A08C" stroke="none" stroke-width="1" d="M 14.512 22.3 C 15.965 22.3 28.419 21.809 28.419 21.809 L 36.865 39.4 C 37.356 40.891 20.002 86.173 20.002 86.173 C 20.002 86.173 11.425 44.779 10.419 39.64 C 9.908 37.022 9.52 34.38 9.029 31.762 C 8.482 28.854 7.324 25.698 7.324 22.73 C 9.504 21.957 12.236 22.292 14.512 22.3 Z "/>
            <path id="Shape" fill="#78C8C8" stroke="none" stroke-width="1" d="M 20.15 32.288 L 28.423 21.809 L 45.861 21.55 L 49.004 27.898 L 40.786 85.727 C 40.786 85.727 39.069 82.81 38.578 81.974 C 37.819 80.675 37.144 79.34 36.513 77.989 C 35.379 75.543 34.118 73.168 33.007 70.702 C 31.051 66.319 28.947 61.912 27.293 57.41 C 25.433 52.326 23.404 47.258 21.815 42.082 C 21.088 39.719 20.042 37.356 19.551 34.934 C 19.303 33.719 19.395 33.356 20.15 32.288 Z "/>
            <path id="Shape" fill="#281446" stroke="none" stroke-width="1" d="M 22.486 35.52 C 22.486 36.627 23.121 37.512 23.903 37.512 C 24.686 37.512 25.321 36.615 25.321 35.52 C 25.342 34.903 25.115 34.303 24.69 33.854 C 24.478 33.642 24.191 33.522 23.891 33.52 C 23.492 33.52 22.941 34.073 22.693 34.436 C 22.446 34.799 22.486 34.966 22.486 35.52 Z "/>
          </g>
          <path id="Shape" fill="#828278" stroke="none" stroke-width="1" d="M 20.214 0.716 C 26.135 0.365 32.071 0.343 37.995 0.648 C 42.387 0.86 53.967 -0.427 56.574 4.023 C 58.012 6.466 58.711 9.51 59.37 12.235 C 60.005 14.853 61.151 17.614 61.474 20.275 C 59.537 20.056 59.477 16.789 58.99 15.136 C 58.288 12.745 57.772 10.315 57.153 7.888 C 56.65 5.896 56.119 3.366 54.103 2.473 C 52.162 1.609 49.052 1.995 46.963 1.896 C 38.825 1.497 28.403 1.896 20.274 1.971 C 18.848 1.971 17.007 2.103 16.56 3.908 C 16.225 5.27 19.191 17.761 20.07 22.068 C 20.469 23.937 20.565 25.85 20.952 27.702 C 21.18 28.798 21.499 29.878 21.751 30.966 C 21.931 31.695 22.027 33.93 22.526 34.532 C 22.638 34.663 23.456 34.874 24.067 35.129 C 24.154 35.462 24.13 35.815 23.999 36.133 L 23.791 36.193 C 22.194 36.623 21.499 35.169 21.092 33.986 C 18.788 27.26 15.53 6.494 15.478 5.107 C 15.39 1.967 17.419 0.887 20.214 0.716 Z "/>
          <path id="Shape" fill="#00A0B4" stroke="none" stroke-width="1" d="M 45.857 21.55 L 79.662 21.642 C 79.662 21.642 78.309 27.061 77.997 28.364 C 77.278 31.344 76.4 34.296 75.841 37.309 C 74.643 43.584 72.615 49.796 71.049 55.896 C 69.484 61.996 67.547 68 66.018 74.1 C 65.359 76.726 63.051 84.695 63.051 84.695 C 63.051 84.695 58.894 85.018 57.581 85.129 C 54.534 85.392 51.531 85.587 48.477 85.663 C 46.855 85.703 45.234 85.779 43.617 85.767 C 42 85.755 40.778 85.727 40.778 85.727 L 45.857 21.55 Z "/>
          <g id="Group-2">
            <path id="Shape" fill="#828278" stroke="none" stroke-width="1" d="M 5.963 76.901 L 2.169 79.26 L 0.787 79.125 L 0.879 71.973 L 2.169 71.734 L 5.963 76.901 "/>
            <path id="Shape" fill="#C8C8BE" stroke="none" stroke-width="1" d="M 2.169 79.26 L 2.169 71.734 C 2.169 71.734 64.261 73.829 70.526 74.124 C 73.066 74.236 75.593 74.491 78.141 74.614 C 79.539 74.682 82.533 74.395 84.186 75.013 L 84.186 77.826 C 82.857 78.392 80.669 78.296 79.511 78.404 C 76.715 78.662 73.868 78.655 71.061 78.83 C 65.451 79.172 2.169 79.26 2.169 79.26 Z "/>
            <path id="Shape" fill="#C8C8BE" stroke="none" stroke-width="1" d="M 115.5 69.06 C 110.253 69.562 92.879 69.506 91.078 70.51 C 90.172 71.016 90.991 71.941 90.991 71.941 C 90.991 71.941 113.44 73.343 115.5 73.618 L 115.5 74.758 C 113.3 75.104 95.351 74.806 93.722 74.985 C 92.951 75.069 90.06 76.013 91.777 77.65 C 92.636 78.471 110.333 78.447 115.5 78.949 L 115.5 79.567 C 110.161 80.109 91.338 79.089 91.302 81.639 C 91.266 84.189 110.273 83.348 115.5 83.946 L 115.5 84.496 C 111.719 84.854 102.323 85.551 94.836 85.567 C 88.81 85.567 78.8 85.567 78.313 76.754 C 77.826 67.941 87.636 67.028 91.793 67.028 C 94.161 67.028 110.441 67.59 115.5 68.303 L 115.5 69.06 Z "/>
            <path id="Shape" fill="#828278" stroke="none" stroke-width="1" d="M 81.16 76.467 C 81.16 73.323 82.282 71.522 83.28 71.451 C 83.875 71.407 85.564 72.276 85.468 76.674 C 85.372 81.073 84.55 81.507 84.011 81.651 C 82.849 81.95 81.16 79.611 81.16 76.467 Z "/>
          </g>
          <path id="Shape" fill="#00A08C" stroke="none" stroke-width="1" d="M 7.109 79.24 L 10.331 80.388 C 10.331 80.388 9.78 74.845 11.828 67.395 C 14.076 59.223 21.895 47.202 17.818 45.17 C 13.741 43.138 9.345 56.179 7.835 64 C 5.559 75.889 7.109 79.24 7.109 79.24 Z "/>
          <g id="Group">
            <path id="Shape" fill="#281446" stroke="none" stroke-width="1" d="M 76.56 79.714 C 76.56 79.714 78.225 77.882 78.117 76.846 C 78.117 76.846 77.945 76.535 77.666 76.913 C 77.238 77.317 76.76 77.666 76.244 77.949 L 76.56 79.714 Z "/>
            <path id="Shape" fill="#006482" stroke="none" stroke-width="1" d="M 71.756 79.196 C 71.668 77.411 71.021 76.292 71.68 76.16 C 72.339 76.029 72.331 78.013 73.349 77.961 C 74.108 77.921 72.798 75.527 73.573 75.395 C 74.348 75.264 74.236 79.137 75.522 77.746 C 75.773 77.471 75.358 75.264 75.877 75.395 C 76.396 75.527 76.468 78.065 76.596 79.69 C 76.596 79.69 75.953 80.444 74.288 80.551 C 73.264 80.576 72.302 80.062 71.756 79.196 Z "/>
          </g>
        </g>
      </g>
    </g>
  </g>
</svg>