<svg xmlns="http://www.w3.org/2000/svg" xmlns:xlink="http://www.w3.org/1999/xlink" width="108.25271606445312" height="137.55409240722656" viewBox="-0.1064767837524414 -0.19229453802108765 108.25271606445312 137.55409240722656" version="1.1" xml:space="preserve">
  <g>
    <title>Slice 1</title>
    <desc>Created with Sketch.</desc>
    <g id="Page-1" stroke="none" fill-rule="evenodd">
      <g id="ben-a">
        <g id="Group">
          <g id="Path">
            <path d="M 65.2096 100.621 L 52.6564 100.621 C 54.1992 103.9134 57.9161 111.4789 57.9161 111.4789 C 57.9161 111.4789 64.6486 111.7591 67.3135 110.8484 C 67.1031 109.7276 65.9109 103.6332 65.2096 100.621 Z " fill="#A0640A" stroke-width="1"/>
            <path d="M 66.1213 96.9784 C 66.1213 96.9784 65.2798 89.4129 57.4252 88.4322 C 49.5707 87.4515 48.5187 91.7946 48.5187 91.7946 L 52.446 105.8048 L 67.6642 106.085 L 66.1213 96.9784 Z " fill="#000000" stroke-width="1"/>
          </g>
          <g id="Path_1_">
            <g id="Group">
              <path d="M 77.3244 134.2699 C 76.4828 134.2699 73.4673 133.9897 72.6958 133.8496 L 67.366 135.2506 C 67.5764 135.741 67.8569 136.4415 68.2075 136.8618 C 68.2075 136.8618 76.9738 135.1806 77.4647 135.0405 C 77.5348 134.9704 77.3244 134.41 77.3244 134.2699 Z " id="Path" fill="#000000" stroke-width="1"/>
              <path d="M 72.6958 133.8496 L 68.2075 110.3826 L 56.0049 110.3826 C 57.3374 113.1146 58.5296 115.7065 58.8101 116.407 C 61.1244 122.5714 66.8049 134.41 67.2958 135.2506 L 72.6958 133.8496 Z " id="Path" fill="#F01446" stroke-width="1"/>
            </g>
            <polygon id="Path" fill="#F5CFCF" points="1.89350649 4.13299492 13.6051948 4.06294416 13.1142857 1.8213198 0.841558442 1.68121827" stroke-width="1" transform="matrix(1,0,0,1,55.51401799999999,110.102412)"/>
            <polygon id="Path" fill="#F5CFCF" points="3.64675325 7.9857868 14.4467532 7.35532995 13.9558442 5.32385787 2.52467532 5.53401015" stroke-width="1" transform="matrix(1,0,0,1,55.51401799999999,110.102412)"/>
          </g>
        </g>
        <g id="Group_1_">
          <g id="Path_2_">
            <path d="M 28.5573 107.9666 C 29.6794 106.2854 29.7495 104.324 29.8897 102.5027 C 31.2923 101.3819 40.6196 103.4834 42.3729 104.1839 C 41.6716 107.6864 40.7599 111.3291 38.5157 114.3412 C 36.9729 114.2712 35.0092 112.0996 33.6768 111.3291 C 32.0638 110.2783 30.1703 109.2976 28.5573 107.9666 Z " id="Path" fill="#A0640A" stroke-width="1"/>
            <path d="M 40.3391 85.8306 C 31.7833 83.7991 29.8196 90.9443 29.8196 90.9443 L 27.1547 102.7829 L 44.8975 107.3362 L 47.0014 95.5676 C 47.0014 95.4976 49.0352 87.8621 40.3391 85.8306 Z " id="Path" fill="#000000" stroke-width="1"/>
          </g>
          <g id="Path_3_">
            <path d="M 7.7969 110.1362 L 6.7449 110.1362 C 6.0436 110.4164 4.1501 118.4722 3.9397 119.3128 L 4.7813 119.2428 C 5.2722 118.4021 6.3943 116.3006 7.0254 115.39 L 8.5683 110.5565 C 8.1475 110.2763 8.1475 110.2763 7.7969 110.1362 Z " id="Path" fill="#000000" stroke-width="1"/>
            <path d="M 22.9449 121.9747 C 25.2592 122.0448 27.5034 121.9047 29.8176 121.2742 C 32.0618 120.994 33.9553 120.4336 34.9371 119.7331 C 36.5501 118.6123 39.2852 115.39 40.4073 113.7788 L 28.3449 106.9839 C 28.1345 107.4042 27.4332 108.525 27.1527 108.8752 C 25.6099 110.9067 23.4358 112.3778 20.9813 113.2184 C 16.9138 114.3392 11.8644 112.7981 8.4982 110.4864 L 6.9553 115.3199 C 9.9709 117.4214 12.7761 118.9626 16.2125 120.3636 C 18.1761 121.2042 22.5943 121.9747 22.9449 121.9747 Z " id="Path" fill="#F01446" stroke-width="1"/>
          </g>
          <polygon id="Path_4_" fill="#F5CFCF" points="34.012987 32.9238579 22.5818182 24.377665 23.7038961 23.0467005 35.7662338 31.0324873" stroke-width="1" transform="matrix(1,0,0,1,3.729336,84.91993)"/>
          <polygon id="Path_5_" fill="#F5CFCF" points="28.9636364 36.1461929 20.6181818 26.2690355 22.0207792 25.1482234 32.1896104 34.8852792" stroke-width="1" transform="matrix(1,0,0,1,3.729336,84.91993)"/>
        </g>
        <path d="M66.1324675,97.0203046 L64.4493506,86.6527919 L32.3298701,80.4182741 L29.8753247,90.9258883 C29.8753247,90.8558376 65.0103896,96.8101523 66.1324675,97.0203046 Z" id="Path_6_" fill="#000000" stroke-width="1"/>
        <g id="Group_2_">
          <path d="M 68.8217 33.4142 C 68.8217 33.4142 74.6424 35.0254 76.3255 29.4914 C 78.0087 23.9574 69.8736 25.5685 68.8217 28.3005 C 68.2606 29.6315 68.8217 33.4142 68.8217 33.4142 Z " id="Path_7_" fill="#824600" stroke-width="1"/>
          <path d="M 71.1359 14.0802 C 70.645 13.3797 61.6684 11.4883 61.6684 11.4883 L 41.9619 22.2761 C 42.4528 24.5178 43.084 26.6893 43.7853 28.7909 C 46.0996 34.2548 50.0268 40.1391 54.1645 41.4701 C 56.4087 42.1706 64.9645 43.0812 69.3126 38.5279 C 71.8372 35.7959 74.3619 30.4721 74.2918 24.5178 C 74.2918 20.3848 71.8372 14.9208 71.1359 14.0802 Z " id="Path_8_" fill="#A0640A" stroke-width="1"/>
          <path d="M 39.9983 9.597 L 40.6294 9.1766 C 39.6476 6.7249 37.6139 2.9421 41.6113 2.1015 C 44.0658 1.6112 47.5723 4.3431 48.2736 6.5147 C 48.6944 6.7249 48.6944 6.7249 49.1152 6.4447 C 48.8346 4.6234 47.9931 2.3117 49.5359 0.9107 C 54.0944 -1.6812 56.2684 4.7635 58.9333 7.3553 L 59.5645 7.2853 C 60.0554 5.2538 58.6528 2.4518 61.6684 2.3817 C 63.7022 2.3117 64.6139 4.0629 65.5957 5.3939 C 68.0502 8.5462 71.4165 14.1503 71.4165 14.1503 C 71.4165 14.1503 71.4165 17.6528 66.1567 18.5635 C 63.5619 19.0538 59.0035 16.3218 52.0606 19.0538 C 45.1178 21.7858 45.1879 31.2426 45.1879 31.2426 C 45.1879 31.2426 37.5437 17.1624 36.632 15.131 C 35.9307 13.5898 34.0372 9.1766 35.6502 7.8457 C 36.8424 6.865 38.9463 8.9665 39.9983 9.597 Z " id="Path_9_" fill="#000000" stroke-width="1"/>
          <path d="M 46.2398 32.9239 C 46.2398 32.9239 40.4191 34.535 38.7359 29.001 C 37.0528 23.467 45.1879 25.0782 46.2398 27.8102 C 46.7307 29.1411 46.2398 32.9239 46.2398 32.9239 Z " id="Path_10_" fill="#A0640A" stroke-width="1"/>
          <path d="M 57.11 31.5228 C 60.1255 31.803 62.8606 32.9239 65.6658 34.1147 C 64.2632 38.8782 54.3048 35.866 57.11 31.5228 Z " id="Path_11_" fill="#000000" stroke-width="1"/>
          <path d="M 62.5801 30.0518 C 60.897 27.0396 67.4191 24.3076 68.2606 28.7208 C 68.8217 32.1533 64.6139 30.5421 62.5801 30.0518 Z " id="Path_12_" fill="#824600" stroke-width="1"/>
          <g id="Path_13_">
            <path d="M 56.9166 27.0304 L 56.4958 28.0111 L 55.7945 28.0111 C 55.5841 26.8202 56.4958 24.9989 56.9166 27.0304 Z " id="Path" stroke-width="1" fill="#000000"/>
            <path d="M 72.0647 29.5522 L 71.4335 29.4822 L 71.2231 28.0812 C 71.6439 27.5908 71.6439 27.5908 72.0647 27.7309 C 72.2751 28.2913 72.2751 28.9218 72.0647 29.5522 Z " id="Path" stroke-width="1" fill="#000000"/>
          </g>
        </g>
        <g id="Group_3_">
          <path d="M 104.2995 62.7542 C 103.6683 62.1238 107.4553 60.5126 107.1047 59.9522 C 106.8943 59.4618 103.4579 61.3532 103.0372 60.8629 C 102.6164 60.3725 106.0527 58.7613 105.9826 58.4111 C 105.7722 57.9908 104.4398 58.8314 101.6346 59.6019 C 100.6527 59.8822 98.4086 60.7228 97.2164 60.9329 C 95.6735 61.2131 94.0605 61.2131 92.4476 61.1431 C 92.5177 61.2131 84.2424 59.7421 81.8579 58.9014 C 80.4553 58.4111 75.6865 55.8893 71.5489 54.138 L 71.5489 66.7471 C 75.4761 67.6578 84.9437 69.6893 93.5696 68.2882 C 100.6527 67.0974 107.3852 62.474 107.5956 61.9136 C 108.0865 60.7228 104.8605 63.3847 104.2995 62.7542 Z " id="Path_14_" fill="#A0640A" stroke-width="1"/>
          <path d="M 61.8008 48.674 C 61.8008 48.674 53.5956 44.6111 50.7203 51.9664 C 47.845 59.3217 60.6787 64.9959 60.6787 64.9959 C 63.4839 66.3969 74.4943 69.8994 74.4943 69.8994 C 74.4943 69.8994 78.1411 55.469 78.1411 55.1888 C 77.2995 54.7684 61.6605 48.5339 61.8008 48.674 Z " id="Path_15_" fill="#BE0A3C" stroke-width="1"/>
          <path d="M 98.4086 63.0344 C 96.7255 62.9644 96.3047 61.2131 96.3047 61.2131 C 96.3047 61.2131 100.7229 57.0801 101.2839 57.5004 C 101.7748 57.9207 100.8631 59.0415 100.1618 60.3025 C 101.9151 61.5634 100.1618 63.1745 98.4086 63.0344 Z " id="Path_16_" fill="#824600" stroke-width="1"/>
        </g>
        <g id="Group_4_">
          <path d="M 9.3974 77.9358 C 7.1532 77.3054 10.3091 68.549 10.8 67.7785 C 11.2208 68.6891 10.3792 77.4455 9.3974 77.9358 Z " id="Path_17_" fill="#824600" stroke-width="1"/>
          <path d="M 19.7766 46.3429 C 16.0597 48.4444 12.9039 51.4566 10.5896 55.0292 C 6.1714 61.7541 -0.0701 77.4455 0.4208 78.146 C 0.9117 78.8465 2.0338 74.4333 3.3662 74.9236 C 4.6987 75.414 2.0338 79.6871 2.7351 80.2475 C 3.4364 80.8079 5.4701 75.484 6.0312 75.9043 C 6.5922 76.3247 4.4883 80.0373 4.9091 80.3175 C 5.3299 80.5977 11.6416 69.3196 15.4286 64.9764 C 17.1117 62.945 20.4078 59.1622 22.5818 57.6211 C 25.387 55.7297 29.5247 54.4688 33.1714 55.0993 L 35.626 42.4901 C 31.9792 42.1399 22.7922 44.5216 19.7766 46.3429 Z " id="Path_18_" fill="#A0640A" stroke-width="1"/>
          <path d="M 40.6753 41.5094 C 33.1013 40.879 30.3662 41.9297 30.3662 41.9297 L 31.2078 56.15 C 31.2078 56.15 37.6597 56.4302 43.3403 58.882 C 43.3403 58.882 52.4571 63.2252 57.8571 57.2008 C 63.2571 51.1764 60.1714 47.7439 60.1714 47.7439 C 59.961 47.6739 48.2494 42.1399 40.6753 41.5094 Z " id="Path_19_" fill="#F01446" stroke-width="1"/>
        </g>
        <path d="M69.7792208,65.0771574 C69.9896104,56.5309645 64.7298701,46.0233503 55.0519481,46.8639594 C51.825974,47.1441624 47.8987013,48.0548223 45.2337662,50.0162437 C44.9532468,50.2263959 39.7636364,55.9705584 38.9922078,57.6517766 C35.0649351,65.6375635 27.9818182,85.4619289 27.9818182,85.4619289 L65.7116883,88.7543147 C65.6415584,88.7543147 69.638961,69.6304569 69.7792208,65.0771574 Z" id="Path_20_" fill="#F01446" stroke-width="1"/>
      </g>
    </g>
  </g>
</svg>