<svg version="1.1" xmlns="http://www.w3.org/2000/svg" xmlns:xlink="http://www.w3.org/1999/xlink" width="168.67938" height="115.62825" viewBox="0,0,168.67938,115.62825"><g transform="translate(-176.72495,-124.47462)"><g data-paper-data="{&quot;isPaintingLayer&quot;:true}" fill-rule="nonzero" stroke="none" stroke-linejoin="miter" stroke-miterlimit="10" stroke-dasharray="" stroke-dashoffset="0" style="mix-blend-mode: normal"><path d="M305.14178,192.7368c-0.1941,-5.40453 -0.00003,0.00001 -0.00003,0.00001c-0.24267,-6.75658 11.78085,-4.24372 15.7929,-4.4701c4.01205,-0.22638 5.81749,-2.46027 11.29299,-2.29706c5.07549,0.15128 13.71283,3.21897 13.15055,6.63554c-0.61718,3.75009 -4.57259,5.39127 -9.55511,6.86439c-5.55418,1.64215 -9.53415,0.46002 -14.01392,0.03715c-7.40357,-0.69884 -16.47331,-1.36537 -16.66739,-6.7699z" data-paper-data="{&quot;origPos&quot;:null,&quot;index&quot;:null,&quot;origRot&quot;:0}" fill="#22383f" stroke-width="0" stroke-linecap="butt"/><path d="M272.83932,143.75897c-7.49762,2.42756 -53.23189,16.79459 -30.24043,-13.1197c4.72399,-4.9123 13.85812,-6.12175 25.66844,-4.06858c8.34593,1.31885 14.51377,-1.69555 13.67097,7.29476c-0.43503,4.64055 -1.60136,7.46596 -9.09897,9.89352z" data-paper-data="{&quot;origPos&quot;:null,&quot;origRot&quot;:0,&quot;index&quot;:null}" fill="#b0845d" stroke-width="0" stroke-linecap="butt"/><path d="M315.84272,134.58337c-3.02996,6.5981 -15.97149,4.9054 -25.51701,7.07591c-9.5455,2.1705 -24.97687,1.79529 -24.77238,-6.29942c0.19606,-7.75857 5.55235,-9.94814 24.89567,-6.97944c15.07759,2.47022 27.05703,2.58086 25.39371,6.20296z" data-paper-data="{&quot;origPos&quot;:null,&quot;origRot&quot;:0,&quot;index&quot;:null}" fill="#b0845d" stroke-width="0" stroke-linecap="butt"/><path d="M318.92285,139.56752c3.4378,2.87328 6.73919,3.46174 6.02824,4.43729c-1.13952,1.28862 -1.34912,0.84753 -5.23689,-0.18284c-5.21249,-1.38146 -4.70043,1.07456 -11.44993,-4.214c-5.45365,-4.30394 -5.86078,-11.36337 18.42829,-6.78738c2.13,2.34381 10.23345,7.99844 8.98143,9.50415c-1.8174,2.18565 -5.90195,-3.20938 -11.42025,-3.72698z" data-paper-data="{&quot;origPos&quot;:null,&quot;origRot&quot;:0,&quot;index&quot;:null}" fill="#b0845d" stroke-width="0" stroke-linecap="butt"/><path d="M296.06446,185.55618z" data-paper-data="{&quot;index&quot;:null,&quot;origPos&quot;:null}" fill="#e6b88e" stroke-width="0" stroke-linecap="butt"/><path d="M295.2872,185.23716c12.35673,0.04263 26.02202,4.14504 25.855,9.22537c-0.12918,3.92922 -14.11478,7.09333 -30.33722,9.4631c-7.96334,1.16328 -35.08613,7.7337 -33.23985,-6.38329c1.78201,-13.62555 25.36534,-12.34781 37.72207,-12.30518z" data-paper-data="{&quot;origPos&quot;:null,&quot;index&quot;:null,&quot;origRot&quot;:0}" fill="#b0845d" stroke-width="0" stroke-linecap="butt"/><path d="M210.22674,227.31774c1.25578,0.61908 2.38899,0.5991 13.02505,8.86072c6.52663,5.71456 -16.91916,4.8131 -18.87156,-0.28492c-1.28441,-3.5264 0.74335,-8.15642 2.46259,-8.02219c2.5095,0.19594 2.12813,-1.17269 3.38391,-0.55361z" data-paper-data="{&quot;origPos&quot;:null,&quot;origRot&quot;:0,&quot;index&quot;:null}" fill="#b0845d" stroke-width="0" stroke-linecap="butt"/><path d="M238.68702,234.92487c-9.72936,4.20776 -31.88105,8.6636 -29.40316,0.14317c3.48667,-16.31812 31.00329,-30.6863 41.95011,-26.64991c5.56302,2.05124 -0.20355,21.16846 -12.54695,26.50674z" data-paper-data="{&quot;origPos&quot;:null,&quot;index&quot;:null,&quot;origRot&quot;:0}" fill="#b0845d" stroke-width="0" stroke-linecap="butt"/><path d="M239.81397,140.21842c11.54837,1.57359 18.16449,3.59053 27.66643,10.3399c2.24561,1.59509 -3.91346,8.05965 -3.91346,8.05965c0,0 13.87837,0.36787 15.0662,1.41989c7.9012,6.99786 9.1874,9.19199 15.15995,17.89415c13.40759,19.53521 -14.47559,38.68636 -38.08187,40.71891c-9.22519,0.79432 -18.7031,0.1861 -39.14975,-12.95103c-28.40117,-18.24795 -10.19656,-70.03928 23.25251,-65.48149z" data-paper-data="{&quot;origPos&quot;:null,&quot;index&quot;:null,&quot;origRot&quot;:0}" fill="#98c2d3" stroke-width="0" stroke-linecap="butt"/><path d="M269.72116,146.5782c0,0 11.6832,13.73386 5.40337,39.42619c-6.72728,27.52294 -21.8873,33.37706 -21.8873,33.37706c0,0 -5.51621,13.00391 -15.4602,16.77018c-17.71157,6.70824 -25.09281,-34.28025 -19.20866,-62.74974c6.44495,-29.48765 27.15719,-52.59757 41.4034,-48.44274c9.99579,2.91521 9.74939,21.61906 9.74939,21.61906z" data-paper-data="{&quot;origPos&quot;:null,&quot;index&quot;:null,&quot;origRot&quot;:0}" fill="#913653" stroke-width="0" stroke-linecap="butt"/><g><path d="M272.533,157.58779c3.6209,3.95863 6.32979,8.51547 6.80329,15.74264c0.1963,2.99625 5.07198,3.50447 5.07198,6.41808c0,2.54122 -4.63588,4.19547 -4.83373,5.78341c-0.79449,6.37686 -3.09358,11.33748 -5.56552,14.52236c-6.20842,6.54396 -12.9447,6.53844 -21.7911,8.30185c-3.59957,2.54721 -10.84227,6.83467 -11.85427,4.41939c-1.012,-3.67919 8.80678,-6.02425 -4.27545,-2.82496c-8.05919,1.9709 -31.61294,-1.01956 -31.38117,-30.70766c0.23176,-29.68809 22.68662,-32.14085 30.49399,-30.40267c12.75948,2.84067 1.3552,-0.02642 4.8486,-2.25955c1.89905,-1.13426 5.84651,1.04815 11.07049,4.4838c5.79764,2.39203 16.04799,0.65806 21.41287,6.52334z" data-paper-data="{&quot;origPos&quot;:null,&quot;index&quot;:null}" fill="#b0845d" stroke-width="0" stroke-linecap="butt"/><g data-paper-data="{&quot;origPos&quot;:null,&quot;index&quot;:null}" fill="#000000"><path d="M267.943,198.73303c0,0 1.36035,-9.0299 1.3189,-11.90534c0.72458,-1.85426 3.68691,-2.25252 3.68691,-2.25252c0,0 -0.79469,0.91876 -1.66288,3.14074c-0.54865,14.07611 -7.31999,15.60601 -7.31999,15.60601z" data-paper-data="{&quot;origPos&quot;:null,&quot;index&quot;:null}" stroke-width="0.5" stroke-linecap="butt"/><path d="M264.11888,156.58254c0,0 6.77133,1.52984 7.31999,15.60594c0.8682,2.22199 1.66291,3.14077 1.66291,3.14077c0,0 -2.96239,-0.39826 -3.68694,-2.25252c0.04147,-2.87542 -1.3189,-11.90534 -1.3189,-11.90534z" data-paper-data="{&quot;origPos&quot;:null,&quot;index&quot;:null}" stroke-width="0.5" stroke-linecap="butt"/><path d="M269.8899,197.411c0,0 2.69249,-4.3087 2.75335,-6.42451c0.07848,-2.7296 -0.30591,-4.13003 -0.30591,-4.13003c0,0 2.53243,0.25573 2.44743,3.97708c-0.08499,3.72129 -4.89488,6.57746 -4.89488,6.57746z" data-paper-data="{&quot;origPos&quot;:null}" stroke-width="0" stroke-linecap="round"/><path d="M274.78478,169.11254c0.08499,3.72129 -2.44743,3.97709 -2.44743,3.97709c0,0 0.38441,-1.40044 0.30592,-4.13004c-0.06087,-2.11577 -2.75335,-6.42451 -2.75335,-6.42451c0,0 4.80989,2.85617 4.89488,6.57747z" data-paper-data="{&quot;origPos&quot;:null,&quot;index&quot;:null}" stroke-width="0" stroke-linecap="round"/></g></g><g data-paper-data="{&quot;origPos&quot;:null,&quot;index&quot;:null}"><g data-paper-data="{&quot;origPos&quot;:null,&quot;origRot&quot;:0}"><path d="M279.90853,193.78366c-0.52046,5.71774 -2.15557,6.95752 -2.15557,6.95752c0,0 -0.22278,-3.7269 0.03256,-7.17103c0.27982,-3.77442 0.7867,-6.62212 0.7867,-6.62212c0,0 1.79433,1.32619 1.33631,6.83563z" data-paper-data="{&quot;noHover&quot;:false,&quot;origItem&quot;:[&quot;Path&quot;,{&quot;applyMatrix&quot;:true,&quot;segments&quot;:[[[578.27643,391.05421],[0,0],[0.2114,-11.15892]],[574.88741,377.52559],[[574.25435,390.89083],[0.0778,-7.64064],[-0.071,6.97198]],[575.00367,405.22339],[[578.27643,391.05423],[-0.3085,11.58632],[0,0]]],&quot;closed&quot;:true,&quot;strokeWidth&quot;:null,&quot;strokeCap&quot;:null}],&quot;origRot&quot;:0,&quot;origPos&quot;:null}" fill="#cddfee" stroke-width="NaN" stroke-linecap="none"/><path d="M280.49352,194.2545c-0.45402,4.4317 -1.58697,7.34312 -3.25624,8.45317c0.07205,0.88332 -1.82614,1.7758 -1.6791,0.26022c0.11662,-1.20206 -0.80959,1.11825 -0.27587,-9.8989c0.55382,-11.43211 1.14764,-8.53108 1.44762,-10.08488c0.17847,-0.92449 1.49399,-0.42936 1.9535,0.24246c1.37848,2.01553 2.26414,6.59624 1.81014,11.02794zM279.85874,193.54078c0.45801,-5.50943 -1.28412,-6.7909 -1.28412,-6.7909c0,0 -0.46042,2.81273 -0.74025,6.58716c-0.25534,3.44412 -0.07315,7.10756 -0.07315,7.10756c0,0 1.57707,-1.18607 2.09752,-6.90381z" data-paper-data="{&quot;origPos&quot;:null,&quot;origRot&quot;:0,&quot;index&quot;:null}" fill="#4c2774" stroke-width="0" stroke-linecap="butt"/><path d="M277.66873,184.17358c-1.00182,0.03949 -0.90539,-1.57422 -0.93635,-4.49941c-0.04611,-4.35683 -0.03431,-4.44162 0.96758,-4.45535c1.3304,-0.01823 1.02992,1.64831 1.09722,4.54222c0.06729,2.8939 0.37814,4.35314 -1.12842,4.41253z" data-paper-data="{&quot;origPos&quot;:null}" fill="#4c2774" stroke-width="0.5" stroke-linecap="butt"/><path d="M277.18619,156.32449c1.68243,1.06046 2.85354,3.93975 3.36704,8.36088c0.51349,4.42113 -0.30917,9.03179 -1.65886,11.09033c-0.44989,0.68618 -1.75726,1.22132 -1.94804,0.30158c-0.32065,-1.54584 -0.87457,1.37512 -1.58251,-10.04832c-0.68224,-11.00879 0.27436,-8.71479 0.14161,-9.91419c-0.1674,-1.5122 1.74076,-0.67638 1.68076,0.20974zM277.46788,158.60873c0,0 0.15402,3.91653 0.45569,7.35539c0.33062,3.76864 0.42814,7.57869 0.42814,7.57869c0,0 2.10922,-2.62457 1.57713,-8.12408c-0.59729,-5.70607 -2.46096,-6.81 -2.46096,-6.81z" data-paper-data="{&quot;origPos&quot;:null,&quot;origRot&quot;:0,&quot;index&quot;:null}" fill="#4c2774" stroke-width="0" stroke-linecap="butt"/><path d="M279.97208,165.39303c0.53208,5.49951 -1.62398,8.19917 -1.62398,8.19917c0,0 -0.14435,-3.86278 -0.47496,-7.63144c-0.30167,-3.43884 -0.41465,-7.4007 -0.41465,-7.4007c0,0 1.9163,1.12689 2.51359,6.83297z" data-paper-data="{&quot;noHover&quot;:false,&quot;origItem&quot;:[&quot;Path&quot;,{&quot;applyMatrix&quot;:true,&quot;segments&quot;:[[573.08707,319.71313],[[573.28217,334.59151],[-0.2663,-6.96446],[0.29184,7.63238]],[573.40141,349.91765],[[577.29621,333.68195],[0.52396,11.1425],[-0.63296,-11.56534]]],&quot;closed&quot;:true,&quot;strokeWidth&quot;:null,&quot;strokeCap&quot;:null}],&quot;origPos&quot;:null,&quot;origRot&quot;:0}" fill="#cddfee" stroke-width="NaN" stroke-linecap="none"/></g><path d="M236.32299,149.44619c0.03311,-0.8875 7.18651,0.34051 20.19642,2.39004c19.37726,3.05262 19.75169,3.12291 19.60405,3.99218c-0.19608,1.15429 -7.54181,-0.28625 -20.4202,-2.28241c-12.8784,-1.99615 -19.42995,-2.76514 -19.38023,-4.0998z" data-paper-data="{&quot;origPos&quot;:null,&quot;origRot&quot;:0}" fill="#4c2774" stroke-width="0.5" stroke-linecap="butt"/><path d="M236.99713,209.87484c-0.0497,-1.33465 6.50183,-2.10363 19.38022,-4.09979c12.8784,-1.99615 20.22412,-3.4367 20.42021,-2.28241c0.14763,0.86927 -0.22678,0.93955 -19.60405,3.99217c-13.00991,2.04954 -20.16333,3.27755 -20.19643,2.39005z" data-paper-data="{&quot;origPos&quot;:null,&quot;origRot&quot;:0,&quot;index&quot;:null}" fill="#4c2774" stroke-width="0.5" stroke-linecap="butt"/></g><g data-paper-data="{&quot;origPos&quot;:null,&quot;index&quot;:null}" stroke-width="0"><path d="M237.00645,146.113c17.01651,-0.26986 38.90259,1.87288 21.95755,20.54591c19.16118,42.25566 -0.69805,47.71539 -17.7167,47.71539c-27.44709,-0.61344 -38.17629,-15.81965 -38.17629,-34.57741c0,-18.75775 12.91679,-33.35056 33.93544,-33.68389z" data-paper-data="{&quot;origPos&quot;:null}" fill="#000000" stroke-linecap="butt"/><path d="M212.95618,182.78813c2.62374,7.83567 2.63395,21.33846 -9.6735,24.65076c-11.76761,3.16702 -18.68947,-9.62327 -16.37865,-17.69489c-6.3934,-2.57521 -8.89651,-18.95771 3.41092,-22.27001c11.22779,-3.02175 19.03277,4.53772 22.64122,15.31414zM193.1728,189.39179c-1.67135,1.31591 -3.12966,-1.41984 -3.59025,-2.95305c-0.82378,-2.74239 0.23307,-4.96832 1.44693,-5.28967c1.84431,-0.48825 5.15806,1.31566 6.24401,4.72822c1.41772,5.35529 -1.42307,9.17055 -3.59618,9.75539c-3.71831,1.20996 -5.99702,-6.04127 -5.99702,-6.04127c0,0 2.65536,10.51114 8.0315,9.20913c2.83469,-0.76289 4.01118,-7.62779 2.5934,-12.7768c-1.1036,-4.00803 -4.40223,-9.31279 -8.29917,-7.865c-2.26244,0.84055 -1.80851,6.1241 -0.84796,8.3383c0.90637,2.08928 2.18005,5.06408 4.2609,4.94322c1.50189,-0.08723 1.18616,-3.2741 0.39495,-4.5537c-0.8953,-1.44796 -1.60932,-1.45892 -1.60932,-1.45892c0,0 3.00946,2.3571 0.96823,3.9642z" data-paper-data="{&quot;origPos&quot;:null,&quot;origRot&quot;:0}" fill="#000000" stroke-linecap="butt"/><path d="M194.58165,150.12969c9.55205,0.0476 16.90875,6.74355 18.28855,16.33768c1.3798,9.59411 -1.26082,15.78179 -1.26082,15.78179c0,0 -4.50562,-12.01304 -13.02319,-14.61075c-4.34251,-1.32439 -11.48626,13.51448 -18.91688,10.58978c-4.41646,-1.73833 -2.55485,-9.243 -2.55485,-9.243c0,0 0.03452,6.45486 4.24388,2.94393c-4.72438,1.4423 -2.02173,-7.09421 -2.02173,-7.09421c0,0 0.88281,4.31734 3.28031,2.01557c0,0 2.41268,-16.76839 11.96473,-16.72079z" data-paper-data="{&quot;origPos&quot;:null,&quot;origRot&quot;:0}" fill="#000000" stroke-linecap="butt"/><path d="M267.73526,209.18508c2.34047,-12.9684 -8.42049,-41.62044 -8.42049,-41.62044c0,0 13.60038,28.29971 11.16605,41.11221c-1.94268,9.08586 -12.51736,6.19443 -12.51736,6.19443c0,0 7.43133,7.2822 9.7718,-5.6862z" data-paper-data="{&quot;origPos&quot;:null}" fill="#d12a57" stroke-linecap="butt"/><path d="M202.71755,148.2615c9.84882,8.75546 9.16164,21.83258 9.16164,21.83258c0,0 -2.63106,-12.53746 -12.45744,-21.11236c-9.82637,-8.57489 -9.28018,1.42943 -9.28018,1.42943c0,0 2.72716,-10.90511 12.57598,-2.14965z" data-paper-data="{&quot;origPos&quot;:null,&quot;index&quot;:null,&quot;origRot&quot;:0}" fill="#d12a57" stroke-linecap="butt"/><path d="M257.35071,167.05209c0,0 4.95545,20.59065 4.41616,37.34019c-0.80892,25.12384 -21.92595,12.30344 -21.92595,12.30344c0,0 5.55674,12.4094 11.94443,-0.11502c6.38771,-12.52442 5.56536,-49.52861 5.56536,-49.52861z" data-paper-data="{&quot;origPos&quot;:null}" fill="#d12a57" stroke-linecap="round"/></g></g></g></svg>