<svg xmlns="http://www.w3.org/2000/svg" xmlns:xlink="http://www.w3.org/1999/xlink" version="1.1" width="60.65009307861328" height="45.633602142333984" viewBox="-0.35040509700775146 -0.44999999552965164 60.65009307861328 45.633602142333984">
  <!-- Exported by Scratch - http://scratch.mit.edu/ -->
  <g id="ID0.22597428411245346">
    <g id="Bowl">
      <g id="OutsideBowl_1_">
        <path id="ID0.22138935374096036" fill="#65CBEB" d="M 29.6457 43.7206 C 29.2291 43.7206 28.9953 43.7105 28.9839 43.7099 C 0.5401 40.9998 1.0689 22.986 1.1055 22.2203 C 1.2271 19.669 2.4775 17.0636 3.3989 15.4672 C 4.7685 17.356 7.3733 18.8226 11.1567 19.8323 C 14.5751 20.7449 19.7419 22.1245 28.5995 22.2026 L 29.1768 22.2052 C 29.4295 22.2052 52.7317 22.1194 56.8082 15.1754 C 58.1311 17.3251 58.7134 21.6524 58.772 24.3909 C 54.6143 42.7866 33.7883 43.7206 29.6457 43.7206 C 29.6463 43.7206 29.6457 43.7206 29.6457 43.7206 L 29.6457 43.7206 Z " stroke-width="0.6302494406700134"/>
        <path id="ID0.7706678751856089" d="M 56.6178 16.9482 C 57.3628 19.0016 57.7636 22.0772 57.8241 24.2957 C 53.7628 41.8815 33.6509 42.7746 29.6457 42.7746 C 29.3482 42.7746 29.1497 42.7696 29.0677 42.7664 C 18.2905 41.7315 10.5321 38.4202 6.0069 32.9219 C 1.9903 28.0425 2.0061 23.1883 2.0502 22.265 C 2.1372 20.4392 2.8607 18.5623 3.5868 17.109 C 5.1945 18.655 7.6481 19.8739 10.9134 20.7461 C 14.3785 21.6713 19.6146 23.0692 28.5919 23.1486 C 28.7829 23.1499 28.9776 23.1512 29.1774 23.1512 C 31.648 23.1512 50.7073 22.952 56.6178 16.9482 M 3.7046 13.3514 C 3.7046 13.3514 3.7046 13.352 3.7046 13.3514 L 3.6271 13.3514 C 3.6271 13.3514 0.3706 17.7632 0.1607 22.1749 C -0.0492 26.5867 2.4718 42.133 28.9423 44.654 C 28.9423 44.654 29.1919 44.6654 29.6457 44.6654 C 33.8331 44.6654 55.455 43.725 59.7193 24.486 C 59.7193 24.486 59.5762 15.5239 56.4445 13.3873 C 55.7065 19.4882 38.1162 21.2598 29.1768 21.2598 C 28.9827 21.2598 28.7936 21.2592 28.6077 21.2573 C 19.8699 21.1797 14.7554 19.8146 11.4006 18.919 C 8.0458 18.0235 5.0981 16.6079 3.8533 14.4304 C 3.6378 14.0548 3.6094 13.693 3.7046 13.3514 L 3.7046 13.3514 L 56.6178 16.9482 Z " stroke-width="0.6302494406700134" fill="undefined"/>
      </g>
      <g id="InsideBowl">
        <path id="ID0.219700216781348" fill="#4C8AC1" d="M 28.5156 22.2026 C 19.6751 22.1201 14.5178 20.6579 11.105 19.6905 C 7.4098 18.643 4.9304 17.1115 3.934 15.2611 C 3.8407 15.0878 3.8193 14.9422 3.8641 14.7739 C 4.0796 13.9502 5.671 12.9726 7.0588 12.4117 L 7.2164 12.3499 C 13.9014 9.9834 21.4279 8.7758 29.5461 8.7758 C 41.6998 8.7758 51.5172 11.4903 53.5328 12.4256 C 55.5237 13.3502 56.0096 14.3315 56.1136 14.6214 C 55.2237 19.8512 39.8488 22.2058 29.0923 22.2058 L 28.5156 22.2026 L 28.5156 22.2026 Z " stroke-width="0.6302494406700134"/>
        <path id="ID0.2999734110198915" d="M 29.5461 9.7205 C 41.6494 9.7205 51.4422 12.4974 53.1344 13.2827 C 54.4006 13.8707 54.9162 14.4411 55.1128 14.7336 C 54.5134 16.5411 51.1044 18.3045 45.8191 19.5108 C 40.1708 20.8003 33.4751 21.2598 29.0917 21.2598 C 28.8982 21.2598 28.7091 21.2592 28.5245 21.2573 C 19.8106 21.176 14.727 19.7346 11.3634 18.781 C 8.0016 17.8281 5.7472 16.497 4.829 14.9239 C 5.0773 14.5565 6.0088 13.86 7.3846 13.2997 L 7.4206 13.2865 L 7.4514 13.2733 L 7.4678 13.2663 L 7.5756 13.2266 C 14.1781 10.9004 21.569 9.7205 29.5461 9.7205 M 29.5461 7.8298 C 22.4514 7.8298 14.5493 8.75 6.8577 11.4745 C 6.8577 11.4745 6.8445 11.4796 6.8262 11.4871 C 6.8231 11.4884 6.8199 11.489 6.8161 11.4909 C 6.7916 11.4997 6.7582 11.5136 6.7134 11.5313 C 6.7109 11.5325 6.7071 11.5338 6.704 11.535 C 6.0346 11.8054 3.3567 12.9745 2.9489 14.5331 C 2.8512 14.9056 2.8802 15.2995 3.1008 15.7092 C 4.3783 18.0821 7.4035 19.6237 10.8466 20.5999 C 14.2896 21.5762 19.5384 23.0642 28.5062 23.148 C 28.6965 23.1499 28.8919 23.1505 29.0911 23.1505 C 38.2656 23.1505 56.3166 21.2201 57.0741 14.5722 C 57.0741 14.5722 56.9103 12.9512 53.9304 11.5672 C 52.029 10.6855 42.0408 7.8298 29.5461 7.8298 L 29.5461 7.8298 L 29.5461 9.7205 Z " stroke-width="0.6302494406700134" fill="undefined"/>
      </g>
    </g>
    <g id="Peach4">
      <g id="Outside_10_">
        <path id="ID0.6075540240854025" fill="#F37920" d="M 27.753 27.382 C 22.406 27.3827 22.157 23.2211 22.1489 23.044 C 22.1583 22.906 22.4715 18.9499 30.4108 18.3978 C 30.3982 18.4003 30.7417 18.4325 31.2831 18.4325 C 32.7389 18.4325 35.4849 18.2018 37.532 16.6539 C 38.6784 15.7867 39.3767 15.6039 39.7593 15.6039 C 40.254 15.6039 40.399 15.9052 40.4135 15.9392 C 40.4311 15.9783 41.5032 18.3064 40.4003 20.8892 C 39.3975 23.2381 36.9641 25.0734 33.1669 26.3434 C 31.1097 27.0329 29.2877 27.382 27.753 27.382 L 27.753 27.382 L 27.753 27.382 Z " stroke-width="0.6302494406700134"/>
        <path id="ID0.283581605181098" d="M 39.7599 15.9197 L 39.7599 15.9197 C 39.9982 15.9197 40.0895 16.0136 40.1122 16.0407 L 40.1362 16.0924 C 40.1469 16.1138 41.1603 18.2964 40.1154 20.7568 C 39.1524 23.0239 36.7807 24.803 33.0673 26.0459 C 31.0417 26.7234 29.2537 27.0669 27.753 27.0669 C 22.9285 27.0669 22.4993 23.4795 22.4659 23.0636 C 22.5068 22.6778 23.0823 19.2379 30.3862 18.7155 C 30.511 18.7262 30.8318 18.7476 31.2831 18.7476 C 32.778 18.7476 35.6022 18.5087 37.7223 16.9054 C 38.8561 16.0476 39.4858 15.9197 39.7599 15.9197 M 39.7593 15.2894 C 39.2475 15.2894 38.478 15.5434 37.3416 16.4031 C 35.357 17.9037 32.6614 18.118 31.2831 18.118 C 30.7322 18.118 30.3913 18.084 30.3913 18.084 C 22.0316 18.6644 21.8337 23.0585 21.8337 23.0585 C 21.8337 23.0585 22.043 27.6972 27.753 27.6972 C 29.2058 27.6972 31.0152 27.3965 33.2671 26.6434 C 44.1282 23.0094 40.7053 15.8214 40.7053 15.8214 C 40.7053 15.8214 40.5011 15.2894 39.7593 15.2894 L 39.7593 15.2894 L 39.7599 15.9197 Z " stroke-width="0.6302494406700134" fill="undefined"/>
      </g>
      <g id="Inside_11_">
        <path id="ID0.06357091525569558" fill="#FAAB18" d="M 27.0528 25.0085 C 23.7648 25.0085 22.3764 23.281 22.1369 22.9438 C 22.1142 22.7031 22.0909 21.7842 22.8755 20.7915 C 23.7352 19.7037 25.757 18.3367 30.5091 17.9989 C 30.5142 17.9989 30.5186 17.9989 30.5224 17.9989 C 31.2723 17.9989 34.7841 17.8993 37.3883 16.1346 C 38.0866 15.6613 38.7074 15.4212 39.2318 15.4212 C 40.1897 15.4212 40.5332 16.2487 40.5477 16.284 C 40.561 16.3174 41.6639 19.4629 33.3711 23.3541 C 31.0322 24.452 28.9058 25.0085 27.0528 25.0085 L 27.0528 25.0085 L 27.0528 25.0085 Z " stroke-width="0.6302494406700134"/>
        <path id="ID0.8631782946176827" d="M 39.2318 15.7369 L 39.2318 15.7369 C 39.9553 15.7369 40.2276 16.3363 40.2528 16.3955 C 40.2629 16.4245 41.1792 19.3426 33.2368 23.0692 C 30.9396 24.1463 28.8591 24.6928 27.0528 24.6928 C 24.102 24.6928 22.7671 23.2451 22.4457 22.8304 C 22.4369 22.5493 22.4835 21.8043 23.1094 21.0026 C 23.9236 19.9602 25.8686 18.648 30.5079 18.3146 L 30.5469 18.3146 C 31.2452 18.3146 34.8686 18.222 37.5654 16.3949 C 38.2013 15.9644 38.778 15.7369 39.2318 15.7369 M 39.2318 15.1067 C 38.715 15.1067 38.0513 15.3052 37.2118 15.8743 C 34.6316 17.6226 31.0499 17.6856 30.5469 17.6856 C 30.5079 17.6856 30.4871 17.6856 30.4871 17.6856 C 21.01 18.3587 21.8337 23.0585 21.8337 23.0585 C 21.8337 23.0585 23.2486 25.3243 27.0528 25.3243 C 28.7186 25.3243 30.8419 24.89 33.5047 23.6409 C 42.2494 19.5379 40.8408 16.1699 40.8408 16.1699 C 40.8408 16.1699 40.428 15.1067 39.2318 15.1067 L 39.2318 15.1067 L 39.2318 15.7369 Z " stroke-width="0.6302494406700134" fill="undefined"/>
      </g>
    </g>
    <g id="Peach3">
      <g id="Inside_3_">
        <path id="ID0.11538523342460394" fill="#FAAB18" d="M 6.6006 25.9684 C 6.3832 25.8562 5.5985 25.3797 5.1863 24.1854 C 4.7344 22.8751 4.6739 20.4348 6.9535 16.2512 C 7.0311 16.1377 9.1827 12.8712 9.0945 9.4533 C 9.068 8.4323 9.2653 7.6987 9.68 7.2733 C 10.014 6.9304 10.4256 6.8586 10.7117 6.8586 C 10.8321 6.8586 10.9128 6.8718 10.9247 6.8743 C 10.96 6.8813 14.2039 7.6489 13.0071 16.7308 C 11.86 25.4194 7.2334 25.9381 6.6006 25.9684 L 6.6006 25.9684 L 6.6006 25.9684 Z " stroke-width="0.6302494406700134"/>
        <path id="ID0.7468189257197082" d="M 10.7117 7.1737 L 10.7117 7.1737 C 10.7993 7.1737 10.8579 7.1825 10.8598 7.1825 L 10.8598 7.1825 C 10.9216 7.1983 13.834 8.0397 12.6945 16.6892 C 11.6205 24.8251 7.4836 25.5783 6.6731 25.6482 C 6.4235 25.5001 5.8109 25.0507 5.4769 24.0606 C 5.0552 22.8127 5.0162 20.4758 7.2176 16.4251 C 7.4414 16.0835 9.4972 12.8434 9.4096 9.4451 C 9.3857 8.5256 9.5577 7.8506 9.9063 7.4932 C 10.1628 7.2292 10.4861 7.1737 10.7117 7.1737 M 10.7117 6.5435 C 10.1061 6.5435 8.7113 6.8277 8.7794 9.4615 C 8.8663 12.8195 6.6769 16.1006 6.6769 16.1006 C 2.1309 24.4438 6.5325 26.2854 6.5325 26.2854 C 6.5325 26.2854 6.5332 26.2854 6.5351 26.2854 C 6.6762 26.2854 12.0718 26.223 13.3184 16.7724 C 14.5808 7.1958 10.9846 6.5655 10.9846 6.5655 C 10.9846 6.5655 10.8781 6.5435 10.7117 6.5435 L 10.7117 6.5435 L 10.7117 7.1737 Z " stroke-width="0.6302494406700134" fill="undefined"/>
      </g>
    </g>
    <g id="Peach1">
      <g id="Outside_2_">
        <path id="ID0.8783507249318063" fill="#F37920" d="M 39.8166 20.1001 C 38.5612 20.1001 37.6568 19.5852 37.6486 19.5795 C 37.537 19.497 34.3751 17.0982 38.1944 10.1138 C 38.2744 10.0205 40.8427 6.7344 40.566 3.1798 C 40.44 1.5607 40.7311 0.8781 40.9977 0.5901 C 41.178 0.3941 41.3708 0.3651 41.4692 0.3651 L 41.536 0.3708 C 41.5612 0.3739 44.0998 0.7269 45.6798 3.0494 C 47.1168 5.1613 47.3488 8.1998 46.3712 12.0827 C 44.7011 18.7092 41.8845 20.1001 39.8166 20.1001 L 39.8166 20.1001 L 39.8166 20.1001 Z " stroke-width="0.6302494406700134"/>
        <path id="ID0.045910890214145184" d="M 41.4692 0.6802 L 41.4975 0.684 C 41.5215 0.6872 43.9057 1.0111 45.4139 3.2183 C 46.8036 5.2527 47.0229 8.2086 46.0656 12.0052 C 44.783 17.0951 42.6219 19.785 39.8166 19.785 C 38.778 19.785 37.9851 19.4005 37.8326 19.3211 C 37.5648 19.1056 34.9398 16.7554 38.4471 10.3098 C 38.7805 9.8756 41.1528 6.6493 40.8805 3.1552 C 40.7526 1.5115 41.0809 0.9632 41.229 0.8044 C 41.3236 0.7017 41.4118 0.6802 41.4692 0.6802 L 41.4692 0.6802 M 41.4692 0.05 C 41.1162 0.05 40.024 0.2826 40.2515 3.2044 C 40.5219 6.6771 37.9177 9.9632 37.9177 9.9632 C 33.8967 17.3151 37.4898 19.8524 37.4898 19.8524 C 37.4898 19.8524 38.4616 20.4153 39.816 20.4153 C 41.9166 20.4153 44.9362 19.0615 46.6763 12.159 C 49.4752 1.0534 41.5757 0.0582 41.5757 0.0582 C 41.5757 0.0582 41.5366 0.05 41.4692 0.05 L 41.4692 0.05 L 41.4692 0.6802 Z " stroke-width="0.6302494406700134" fill="undefined"/>
      </g>
      <g id="Inside_2_">
        <path id="ID0.1936820289120078" fill="#FAAB18" d="M 37.5578 19.5354 C 37.3404 19.4232 36.5557 18.9468 36.1435 17.7531 C 35.6917 16.4428 35.6318 14.0025 37.9114 9.8189 C 37.9883 9.7054 40.14 6.4388 40.0517 3.021 C 40.0253 2 40.2225 1.2664 40.6372 0.841 C 40.9713 0.4981 41.3828 0.4263 41.6696 0.4263 C 41.79 0.4263 41.8706 0.4395 41.8826 0.442 C 41.9173 0.4489 45.1612 1.2166 43.9643 10.2985 C 42.8179 18.9871 38.1906 19.5058 37.5578 19.5354 L 37.5578 19.5354 L 37.5578 19.5354 Z " stroke-width="0.6302494406700134"/>
        <path id="ID0.9940452729351819" d="M 41.6689 0.7408 L 41.6689 0.7408 C 41.7565 0.7408 41.8145 0.7496 41.8164 0.7496 L 41.8164 0.7496 C 41.8788 0.7653 44.7912 1.6067 43.6511 10.2563 C 42.5771 18.3928 38.4389 19.1453 37.6297 19.2146 C 37.3889 19.0709 36.7851 18.6298 36.448 17.6693 C 36.0093 16.4214 35.9538 14.0762 38.1742 9.9916 C 38.3973 9.65 40.4532 6.4098 40.3662 3.0115 C 40.3423 2.0926 40.5137 1.417 40.8622 1.0597 C 41.12 0.7962 41.4433 0.7408 41.6689 0.7408 M 41.6689 0.1105 C 41.0633 0.1105 39.6679 0.3947 39.7366 3.0286 C 39.8236 6.3865 37.6341 9.6676 37.6341 9.6676 C 33.0881 18.0108 37.4898 19.8524 37.4898 19.8524 C 37.4898 19.8524 37.491 19.8524 37.4929 19.8524 C 37.6341 19.8524 43.029 19.79 44.2763 10.3395 C 45.5387 0.7622 41.9425 0.1319 41.9425 0.1319 C 41.9425 0.1319 41.836 0.1105 41.6689 0.1105 L 41.6689 0.1105 L 41.6689 0.7408 Z " stroke-width="0.6302494406700134" fill="undefined"/>
      </g>
    </g>
    <g id="Banana4">
      <g id="Banana_3_">
        <path id="Outside_6_" fill="#FFF4A0" stroke="#000000" d="M 16.33 11.9789 C 17.6097 12.1515 18.7215 12.664 19.4834 13.3525 C 20.2458 14.0411 20.6583 14.9057 20.5401 15.7819 C 20.4218 16.6582 19.795 17.3826 18.8773 17.8445 C 17.9603 18.3065 16.7524 18.506 15.4727 18.3333 C 14.1929 18.1607 13.0811 17.6482 12.3193 16.9597 C 11.5568 16.2711 11.1444 15.4066 11.2626 14.5303 C 11.3808 13.654 12.0076 12.9296 12.9253 12.4677 C 13.8423 12.0058 15.0502 11.8062 16.33 11.9789 Z " stroke-width="0.6302357902391402"/>
        <path id="Inside_7_" fill="#FFF4A0" stroke="#000000" d="M 16.3441 11.7966 C 17.6239 11.9692 18.7474 12.3954 19.5279 12.9451 C 20.3092 13.4943 20.7476 14.1671 20.658 14.8316 C 20.5684 15.4962 19.9675 16.0288 19.0687 16.3515 C 18.1704 16.675 16.9742 16.7884 15.6944 16.6159 C 14.4147 16.4434 13.2912 16.0172 12.5106 15.4674 C 11.7294 14.9182 11.291 14.2455 11.3805 13.5809 C 11.4701 12.9164 12.071 12.3837 12.9699 12.061 C 13.8682 11.7376 15.0644 11.6241 16.3441 11.7966 Z " stroke-width="0.6302273665742018"/>
      </g>
      <path id="Seed_11_" d="M 15.7518 14.3623 C 15.6598 14.3069 15.5571 14.3044 15.4688 14.373 C 15.2861 14.5155 15.1386 14.6655 15.0081 14.8577 C 14.9186 14.9926 15.0642 15.1987 15.2205 15.1111 C 15.4197 15.002 15.6018 14.8905 15.7663 14.7304 C 15.8407 14.6579 15.8772 14.552 15.8293 14.4537 C 15.8079 14.414 15.7903 14.3857 15.7518 14.3623 L 15.7518 14.3623 Z " stroke-width="0.6302494406700134" fill="undefined"/>
      <path id="Seed_10_" d="M 16.7073 14.6384 C 16.5642 14.5035 16.2705 14.6365 16.389 14.8407 C 16.5466 15.1161 16.7747 15.423 17.0974 15.4886 C 17.214 15.5119 17.3375 15.3714 17.3035 15.2604 C 17.214 14.963 16.9241 14.8394 16.7073 14.6384 L 16.7073 14.6384 Z " stroke-width="0.6302494406700134" fill="undefined"/>
      <path id="Seed_9_" d="M 16.5377 13.4756 C 16.4842 13.4207 16.4148 13.4151 16.3525 13.4586 C 16.1798 13.5821 16.2434 13.7541 16.2541 13.9363 C 16.2623 14.0724 16.4659 14.0731 16.5081 13.9583 C 16.5711 13.7781 16.6978 13.6394 16.5377 13.4756 L 16.5377 13.4756 Z " stroke-width="0.6302494406700134" fill="undefined"/>
    </g>
    <g id="Apple3">
      <path id="ID0.599953917786479" fill="#FFF4C7" d="M 23.3249 23.0402 C 20.427 23.0402 18.6371 20.6283 18.148 16.0659 C 18.1531 15.9184 18.1915 11.5105 15.2691 9.3726 C 14.5714 8.8621 14.2247 8.3176 14.2399 7.7535 C 14.2695 6.6355 15.6472 5.7229 15.6611 5.7141 C 15.6749 5.7052 16.7401 5.0075 18.4487 5.0075 C 20.2915 5.0075 23.1692 5.8319 26.4119 9.7577 C 32.1667 16.7277 26.2663 22.0608 25.7249 22.5253 C 25.5339 22.6117 24.5306 23.0402 23.3249 23.0402 L 23.3249 23.0402 L 23.3249 23.0402 Z " stroke-width="0.6302494406700134"/>
      <path id="ID0.22955454839393497" d="M 18.4493 5.3227 L 18.4493 5.3227 C 20.2247 5.3227 23.0054 6.1269 26.1692 9.9582 C 31.6303 16.572 26.2278 21.6644 25.5522 22.2575 C 25.3089 22.3646 24.4102 22.7251 23.3249 22.7251 C 19.9115 22.7251 18.7972 19.1138 18.4657 16.0678 C 18.4669 15.5655 18.3894 11.2647 15.4556 9.1187 C 14.8474 8.6737 14.5449 8.2187 14.5556 7.7649 C 14.5745 6.9796 15.4859 6.2082 15.8388 5.975 C 15.8483 5.968 16.8472 5.3227 18.4493 5.3227 M 18.4487 4.6924 C 16.6109 4.6924 15.489 5.45 15.489 5.45 C 15.489 5.45 12.2577 7.5607 15.0831 9.6266 C 17.9073 11.6926 17.8348 16.0993 17.8348 16.0993 C 18.4814 22.1358 21.218 23.3554 23.3249 23.3554 C 24.7549 23.3554 25.8957 22.7932 25.8957 22.7932 C 25.8957 22.7932 32.8284 17.0352 26.6545 9.5573 C 23.4068 5.6239 20.4875 4.6924 18.4487 4.6924 L 18.4487 4.6924 L 18.4493 5.3227 Z " stroke-width="0.6302494406700134" fill="undefined"/>
    </g>
    <g id="Apple1">
      <g id="Outside_8_">
        <path id="ID0.4186926884576678" fill="#F30D00" d="M 23.8776 17.0762 C 23.865 17.073 22.2907 16.8833 21.6484 15.527 C 21.1203 14.4102 21.0825 12.1792 23.9047 7.8916 C 27.2186 2.8584 30.3314 1.8021 32.3595 1.8021 C 33.7549 1.8021 34.6328 2.3094 34.6417 2.3145 C 34.67 2.3302 34.7419 2.38 34.7545 2.5111 C 34.774 2.716 34.6662 3.3267 33.2539 4.5758 C 30.7045 6.8321 30.0049 10.3042 29.9759 10.4504 C 27.5495 16.9407 23.9747 17.0743 23.8776 17.0762 L 23.8776 17.0762 L 23.8776 17.0762 Z " stroke-width="0.6302494406700134"/>
        <g id="ID0.520451879594475">
          <path id="ID0.8963607028126717" d="M 32.3595 2.1166 C 33.4965 2.1166 34.2641 2.4733 34.4406 2.5634 C 34.433 2.6851 34.3202 3.2132 33.0446 4.3401 C 30.5608 6.5397 29.7805 9.8529 29.6778 10.3363 C 27.4127 16.364 24.2066 16.7377 23.9041 16.7598 C 23.6747 16.7264 22.4545 16.4995 21.9308 15.3859 C 21.4405 14.3415 21.4304 12.2239 24.1682 8.0643 C 27.4045 3.1489 30.4089 2.1166 32.3595 2.1166 M 32.3595 1.4863 C 30.2576 1.4863 27.0352 2.5634 23.6419 7.7176 C 17.6798 16.7743 23.8745 17.3907 23.8745 17.3907 C 23.8745 17.3907 23.8751 17.3907 23.8757 17.3907 C 23.9665 17.3907 27.7329 17.3497 30.2854 10.5109 C 30.2854 10.5109 30.9642 7.0231 33.4625 4.8122 C 35.9639 2.6012 34.8024 2.0428 34.8024 2.0428 C 34.8024 2.0428 33.8702 1.4863 32.3595 1.4863 L 32.3595 1.4863 L 32.3595 2.1166 Z " stroke-width="0.6302494406700134" fill="undefined"/>
        </g>
      </g>
      <g id="Inside_9_">
        <path id="ID0.14779661688953638" fill="#FFF4C7" d="M 24.2482 17.1077 C 24.1493 17.1077 24.0717 17.1014 24.0201 17.0951 C 23.647 16.7088 21.5312 14.056 26.5285 7.8588 C 30.6982 2.6882 33.1102 2.1305 33.9541 2.1305 C 34.2503 2.1305 34.3959 2.1966 34.3978 2.1973 C 34.4104 2.2036 34.7337 2.3737 34.7904 2.7588 C 34.8421 3.1105 34.6889 3.7351 33.666 4.7176 C 31.319 6.9739 30.3868 10.2273 30.3478 10.364 C 28.002 16.6199 25.0858 17.1077 24.2482 17.1077 L 24.2482 17.1077 L 24.2482 17.1077 Z " stroke-width="0.6302494406700134"/>
        <g id="ID0.16473754029721022">
          <path id="ID0.5285196085460484" d="M 33.9541 2.4456 C 34.1412 2.4456 34.2452 2.4771 34.2515 2.4771 C 34.2522 2.4771 34.2522 2.4771 34.2522 2.4771 C 34.2837 2.4954 34.452 2.6012 34.4797 2.8118 C 34.5036 2.9952 34.452 3.5258 33.4473 4.4907 C 31.1261 6.7218 30.1549 9.8983 30.0522 10.2518 C 27.7707 16.3199 25.0329 16.7926 24.2476 16.7926 C 24.2199 16.7926 24.194 16.7919 24.1701 16.7913 C 23.7232 16.2455 22.2182 13.7056 26.773 8.0573 C 30.8583 2.9926 33.1562 2.4456 33.9541 2.4456 M 33.9541 1.8153 C 32.9097 1.8153 30.4316 2.5174 26.2833 7.6609 C 20.5764 14.738 23.8745 17.3907 23.8745 17.3907 C 23.8745 17.3907 24.0094 17.4228 24.2482 17.4228 C 25.2825 17.4228 28.2616 16.8247 30.6516 10.4497 C 30.6516 10.4497 31.5723 7.1674 33.8847 4.9451 C 36.199 2.7216 34.537 1.9149 34.537 1.9149 C 34.537 1.9149 34.3467 1.8153 33.9541 1.8153 L 33.9541 1.8153 L 33.9541 2.4456 Z " stroke-width="0.6302494406700134" fill="undefined"/>
        </g>
      </g>
    </g>
    <g id="Apple1_1_">
      <g id="Outside_11_">
        <path id="ID0.9804328079335392" fill="#F30D00" d="M 45.1322 23.6383 C 42.8147 23.6383 41.7433 21.4249 41.7326 21.4029 C 41.686 21.2718 40.4116 17.559 46.3681 13.6508 C 46.4601 13.6186 49.8464 12.1804 51.2393 9.0191 C 52.0233 7.2342 52.6239 7.0414 52.8464 7.0414 C 53.0097 7.0414 53.1092 7.1378 53.1136 7.1422 C 53.3361 7.3508 58.1979 12.0499 51.451 19.6451 C 49.0971 22.2947 46.9712 23.6383 45.1322 23.6383 L 45.1322 23.6383 L 45.1322 23.6383 Z " stroke-width="0.6302494406700134"/>
        <g id="ID0.5750450738705695">
          <path id="ID0.1977956579066813" d="M 52.8464 7.3559 L 52.8464 7.3559 C 52.8704 7.3559 52.8886 7.3659 52.8968 7.371 L 52.9113 7.3842 C 53.113 7.5714 57.7775 12.0474 51.2153 19.4346 C 48.9565 21.9776 46.8521 23.322 45.1322 23.322 C 43.1381 23.322 42.1593 21.544 42.0313 21.2932 C 41.9173 20.9384 41.0198 17.5583 46.496 13.9426 C 46.9832 13.7283 50.1679 12.2302 51.5273 9.1439 C 52.1494 7.7302 52.6618 7.3559 52.8464 7.3559 M 52.8464 6.7256 C 52.4153 6.7256 51.7372 7.1019 50.9506 8.8918 C 49.5931 11.9737 46.1954 13.3873 46.1954 13.3873 C 39.9282 17.4997 41.4477 21.5371 41.4477 21.5371 C 41.4477 21.5371 42.5885 23.9535 45.1322 23.9535 C 46.7368 23.9535 48.9004 22.9917 51.6868 19.8543 C 58.7342 11.9214 53.3399 6.9229 53.3399 6.9229 C 53.3399 6.9229 53.1578 6.7256 52.8464 6.7256 L 52.8464 6.7256 L 52.8464 7.3559 Z " stroke-width="0.6302494406700134" fill="undefined"/>
        </g>
      </g>
      <g id="Inside_12_">
        <path id="ID0.7382481112144887" fill="#FFF4C7" d="M 43.5817 21.8018 C 42.5538 21.8018 41.87 21.43 41.6834 21.3152 C 41.4244 20.83 39.9339 17.4373 46.2918 13.2512 C 46.3952 13.1989 49.4607 11.5577 50.9292 8.6126 C 51.4384 7.5928 52.005 7.0533 52.5691 7.0533 C 53.0166 7.0533 53.3424 7.3893 53.3449 7.3924 C 53.3689 7.4182 55.4342 9.7949 50.4697 16.8688 C 47.6078 20.9459 45.1441 21.8018 43.5817 21.8018 L 43.5817 21.8018 L 43.5817 21.8018 Z " stroke-width="0.6302494406700134"/>
        <g id="ID0.4212489970959723">
          <path id="ID0.5921349711716175" d="M 52.5691 7.3685 L 52.5691 7.3685 C 52.8754 7.3685 53.1181 7.6111 53.1256 7.6187 C 53.1458 7.6395 54.9243 9.9726 50.212 16.6873 C 47.4275 20.6541 45.0698 21.4867 43.5817 21.4867 C 42.7397 21.4867 42.1523 21.2169 41.9242 21.0915 C 41.6273 20.4543 40.6189 17.3737 46.4412 13.5298 C 46.7891 13.3413 49.7576 11.6693 51.2109 8.7531 C 51.6571 7.8601 52.1393 7.3685 52.5691 7.3685 M 52.5691 6.7382 C 52.0277 6.7382 51.3326 7.0987 50.6475 8.4714 C 49.2074 11.3598 46.1179 12.9878 46.1179 12.9878 C 39.0175 17.6623 41.4471 21.5371 41.4471 21.5371 C 41.4471 21.5371 42.2418 22.1169 43.5817 22.1169 C 45.267 22.1169 47.8158 21.198 50.7275 17.0497 C 55.9529 9.6046 53.5762 7.1775 53.5762 7.1775 C 53.5762 7.1775 53.1672 6.7382 52.5691 6.7382 L 52.5691 6.7382 L 52.5691 7.3685 Z " stroke-width="0.6302494406700134" fill="undefined"/>
        </g>
      </g>
    </g>
    <g id="Apple2">
      <g id="Outside_9_">
        <path id="ID0.43201102456077933" fill="#F30D00" d="M 28.3228 20.5659 C 25.9701 20.5659 24.6938 19.3186 24.6812 19.3054 C 24.6579 19.2827 24.6005 19.2171 24.6207 19.0861 C 24.6535 18.8831 24.91 18.3184 26.5902 17.4625 C 29.623 15.9146 31.1684 12.7287 31.232 12.5939 C 34.3505 8.1393 37.174 7.6533 38.2423 7.6533 C 38.5933 7.6533 38.7925 7.7037 38.7944 7.7044 L 38.7944 7.7044 C 38.7893 7.7044 40.2799 8.2804 40.5641 9.7621 C 40.7967 10.9754 40.2755 13.1453 36.4706 16.5909 C 33.5576 19.2291 30.816 20.5665 28.324 20.5665 C 28.3234 20.5659 28.3228 20.5659 28.3228 20.5659 L 28.3228 20.5659 Z " stroke-width="0.6302494406700134"/>
        <g id="ID0.7279054876416922">
          <path id="ID0.847284335643053" d="M 38.2423 7.9685 C 38.4767 7.9685 38.6324 7.993 38.6879 8.0037 C 38.9028 8.0932 40.0271 8.6182 40.2553 9.8277 C 40.4696 10.9615 39.9503 13.0149 36.2589 16.3571 C 33.4051 18.9411 30.7347 20.2508 28.3221 20.2508 C 26.2896 20.2508 25.1425 19.301 24.9371 19.115 C 24.9736 18.9997 25.2144 18.5169 26.7327 17.7436 C 29.6879 16.2354 31.2711 13.2222 31.491 12.7798 C 34.5402 8.4386 37.2269 7.9685 38.2423 7.9685 M 38.2423 7.3382 C 37.0101 7.3382 34.1312 7.9029 30.9478 12.4584 C 30.9478 12.4584 29.4188 15.6651 26.4472 17.1821 C 23.4724 18.6972 24.4575 19.5279 24.4575 19.5279 C 24.4575 19.5279 25.7955 20.881 28.3228 20.881 C 30.361 20.881 33.1725 20.0018 36.6824 16.8241 C 44.72 9.5453 38.875 7.3993 38.875 7.3993 C 38.875 7.3993 38.6475 7.3382 38.2423 7.3382 L 38.2423 7.3382 L 38.2423 7.9685 Z " stroke-width="0.6302494406700134" fill="undefined"/>
        </g>
      </g>
      <g id="Inside_10_">
        <path id="ID0.6080694450065494" fill="#FFF4C7" d="M 26.0009 19.7352 C 25.2081 19.7352 24.8904 19.4825 24.8873 19.48 C 24.8766 19.4705 24.6056 19.2247 24.6472 18.8377 C 24.685 18.4848 24.9894 17.9182 26.2253 17.2224 C 29.0614 15.6247 30.7782 12.7079 30.8501 12.5844 C 33.9547 8.1563 36.4719 7.492 37.6946 7.492 C 38.1881 7.492 38.5221 7.5972 38.6595 7.6502 C 38.9248 8.1185 40.3082 11.2155 33.9207 15.9657 C 29.7326 19.081 27.3024 19.7352 26.0009 19.7352 L 26.0009 19.7352 L 26.0009 19.7352 Z " stroke-width="0.6302494406700134"/>
        <g id="ID0.8514203899540007">
          <path id="ID0.939207780174911" d="M 37.6952 7.8071 C 38.0381 7.8071 38.2914 7.8626 38.4383 7.9067 C 38.7345 8.547 39.5563 11.3825 33.7341 15.713 C 29.3967 18.9386 27.027 19.4201 26.0009 19.4201 C 25.3726 19.4201 25.1041 19.2474 25.0997 19.2474 L 25.0997 19.2474 C 25.0795 19.2279 24.9346 19.081 24.961 18.8648 C 24.9837 18.6808 25.1671 18.1804 26.3804 17.4972 C 29.185 15.9172 30.9207 13.0848 31.1079 12.7678 C 34.1387 8.4525 36.5356 7.8071 37.6952 7.8071 M 37.6952 7.1769 C 36.2828 7.1769 33.7114 7.9558 30.5778 12.4262 C 30.5778 12.4262 28.8654 15.3739 26.0715 16.9476 C 23.2745 18.522 24.6818 19.7182 24.6818 19.7182 C 24.6818 19.7182 25.0493 20.0497 26.0009 20.0497 C 27.3415 20.0497 29.8429 19.3911 34.1097 16.2178 C 41.4049 10.792 38.875 7.3993 38.875 7.3993 C 38.875 7.3993 38.4509 7.1769 37.6952 7.1769 L 37.6952 7.1769 L 37.6952 7.8071 Z " stroke-width="0.6302494406700134" fill="undefined"/>
        </g>
      </g>
    </g>
    <g id="Banana5">
      <g id="Banana_4_">
        <path id="Outside_7_" fill="#FFF4A0" stroke="#000000" d="M 7.7879 12.6797 C 8.9167 12.4653 9.9985 12.5851 10.8353 12.9515 C 11.6722 13.3179 12.2634 13.9312 12.4101 14.7039 C 12.5569 15.4766 12.2317 16.2639 11.5875 16.9116 C 10.9433 17.5594 9.9807 18.0675 8.852 18.2818 C 7.7233 18.4962 6.6414 18.3765 5.8046 18.0101 C 4.9678 17.6436 4.3766 17.0304 4.2298 16.2577 C 4.0831 15.485 4.4082 14.6977 5.0524 14.0499 C 5.6966 13.4022 6.6592 12.8941 7.7879 12.6797 Z " stroke-width="0.6302271672809954"/>
        <path id="Inside_8_" fill="#FFF4A0" stroke="#000000" d="M 7.7265 12.5421 C 8.8552 12.3276 9.9227 12.3711 10.7364 12.6155 C 11.5499 12.8592 12.109 13.3028 12.2204 13.8891 C 12.3318 14.4755 11.9745 15.0932 11.307 15.6184 C 10.6397 16.1442 9.6627 16.5763 8.534 16.7908 C 7.4052 17.0053 6.3378 16.9618 5.5241 16.7174 C 4.7105 16.4736 4.1515 16.0301 4.0401 15.4438 C 3.9287 14.8574 4.286 14.2397 4.9534 13.7145 C 5.6207 13.1887 6.5978 12.7566 7.7265 12.5421 Z " stroke-width="0.6302389313919262"/>
      </g>
      <path id="Seed_14_" d="M 7.9311 14.8993 C 7.8384 14.8785 7.7502 14.905 7.6953 14.9882 C 7.5813 15.1596 7.4987 15.3285 7.4432 15.5264 C 7.4054 15.6657 7.5863 15.798 7.6935 15.6802 C 7.8315 15.5321 7.9537 15.3871 8.047 15.2056 C 8.0893 15.1237 8.0899 15.0241 8.0218 14.9541 C 7.9928 14.927 7.9695 14.9081 7.9311 14.8993 L 7.9311 14.8993 Z " stroke-width="0.6302494406700134" fill="undefined"/>
      <path id="Seed_13_" d="M 8.8153 14.8634 C 8.6565 14.7896 8.446 14.9844 8.6035 15.1237 C 8.814 15.3109 9.0926 15.5069 9.3838 15.4709 C 9.489 15.4577 9.5533 15.3046 9.4934 15.2207 C 9.334 14.9945 9.0542 14.9724 8.8153 14.8634 L 8.8153 14.8634 Z " stroke-width="0.6302494406700134" fill="undefined"/>
      <path id="Seed_12_" d="M 8.3445 13.9294 C 8.284 13.8985 8.2241 13.9136 8.1832 13.9672 C 8.0722 14.1197 8.1743 14.247 8.2355 14.3983 C 8.2802 14.5111 8.4523 14.4544 8.4554 14.3453 C 8.4579 14.1758 8.526 14.0233 8.3445 13.9294 L 8.3445 13.9294 Z " stroke-width="0.6302494406700134" fill="undefined"/>
    </g>
    <g id="Banana3">
      <g id="Banana_2_">
        <path id="Outside_5_" fill="#FFF4A0" stroke="#000000" d="M 46.3953 16.1597 C 47.599 15.6921 48.8199 15.6032 49.8197 15.8375 C 50.82 16.0716 51.599 16.629 51.9192 17.4532 C 52.2394 18.2774 52.0409 19.2145 51.461 20.0625 C 50.8816 20.9103 49.9208 21.6689 48.7171 22.1365 C 47.5134 22.6041 46.2924 22.6931 45.2927 22.4587 C 44.2924 22.2246 43.5133 21.6673 43.1931 20.8431 C 42.873 20.0189 43.0714 19.0817 43.6514 18.2337 C 44.2307 17.386 45.1916 16.6273 46.3953 16.1597 Z " stroke-width="0.6302263794198218"/>
        <path id="Inside_6_" fill="#FFF4A0" stroke="#000000" d="M 46.3135 15.9942 C 47.5172 15.5265 48.7067 15.3564 49.6558 15.4602 C 50.6053 15.5632 51.3143 15.9402 51.5572 16.5652 C 51.8001 17.1903 51.5316 17.9471 50.9008 18.6642 C 50.2709 19.3816 49.2786 20.0593 48.0749 20.5271 C 46.8712 20.9948 45.6817 21.1649 44.7326 21.0611 C 43.7831 20.9581 43.074 20.5811 42.8312 19.9561 C 42.5883 19.331 42.8567 18.5742 43.4875 17.8571 C 44.1175 17.1397 45.1098 16.462 46.3135 15.9942 Z " stroke-width="0.6302492013103452"/>
      </g>
      <path id="Seed_8_" d="M 47.0172 18.5718 C 46.9101 18.568 46.8187 18.6153 46.7746 18.718 C 46.6832 18.9304 46.6271 19.134 46.6051 19.3646 C 46.5918 19.526 46.8193 19.6356 46.9132 19.4837 C 47.0349 19.2915 47.1408 19.1062 47.2069 18.8863 C 47.2372 18.7873 47.2183 18.6764 47.1282 18.6134 C 47.0916 18.59 47.062 18.5737 47.0172 18.5718 L 47.0172 18.5718 Z " stroke-width="0.6302494406700134" fill="undefined"/>
      <path id="Seed_7_" d="M 47.9872 18.3512 C 47.7962 18.302 47.604 18.5611 47.8063 18.6821 C 48.0779 18.8466 48.4252 19.0054 48.7397 18.9064 C 48.8532 18.8705 48.8935 18.6877 48.8097 18.6071 C 48.5878 18.3909 48.274 18.423 47.9872 18.3512 L 47.9872 18.3512 Z " stroke-width="0.6302494406700134" fill="undefined"/>
      <path id="Seed_6_" d="M 47.2763 17.4153 C 47.2032 17.3932 47.1395 17.4216 47.1055 17.4896 C 47.0135 17.6812 47.1527 17.8016 47.2504 17.9554 C 47.3229 18.0707 47.5019 17.9724 47.483 17.8514 C 47.4515 17.6642 47.4962 17.4821 47.2763 17.4153 L 47.2763 17.4153 Z " stroke-width="0.6302494406700134" fill="undefined"/>
    </g>
    <g id="Banana2">
      <g id="Banana_1_">
        <path id="Outside_4_" fill="#FFF4A0" stroke="#000000" d="M 41.668 13.682 C 42.9319 13.9471 44.0036 14.539 44.7135 15.2809 C 45.4239 16.0231 45.7725 16.9153 45.591 17.7807 C 45.4095 18.6461 44.7317 19.3231 43.7829 19.7172 C 42.8347 20.1114 41.6155 20.2227 40.3516 19.9575 C 39.0878 19.6924 38.0161 19.1006 37.3062 18.3586 C 36.5958 17.6164 36.2471 16.7242 36.4287 15.8588 C 36.6102 14.9934 37.288 14.3164 38.2368 13.9224 C 39.185 13.5282 40.4042 13.4168 41.668 13.682 Z " stroke-width="0.6302499910172118"/>
        <path id="Inside_5_" fill="#FFF4A0" stroke="#000000" d="M 41.6936 13.5005 C 42.9575 13.7655 44.0471 14.2721 44.7857 14.8771 C 45.525 15.4816 45.9134 16.1844 45.7758 16.8407 C 45.6382 17.497 45.0002 17.9847 44.0803 18.2413 C 43.1609 18.4986 41.9596 18.5249 40.6957 18.2599 C 39.4319 17.9949 38.3423 17.4883 37.6037 16.8833 C 36.8643 16.2789 36.4759 15.576 36.6135 14.9197 C 36.7511 14.2634 37.3891 13.7758 38.309 13.5192 C 39.2284 13.2618 40.4297 13.2355 41.6936 13.5005 Z " stroke-width="0.6302370548068481"/>
      </g>
      <path id="Seed_5_" d="M 40.9221 16.0022 C 40.8345 15.9405 40.7318 15.9304 40.6391 15.9922 C 40.4463 16.1207 40.2881 16.26 40.1444 16.4422 C 40.0454 16.5701 40.1759 16.7863 40.3379 16.71 C 40.5446 16.6155 40.7349 16.5178 40.9101 16.369 C 40.9895 16.3029 41.0337 16.1995 40.9927 16.0974 C 40.9744 16.0577 40.9587 16.0281 40.9221 16.0022 L 40.9221 16.0022 Z " stroke-width="0.6302494406700134" fill="undefined"/>
      <path id="Seed_4_" d="M 41.8549 16.347 C 41.7213 16.202 41.4194 16.313 41.5227 16.526 C 41.6607 16.8121 41.8649 17.1348 42.1826 17.2237 C 42.2973 17.2552 42.4309 17.1247 42.4051 17.0113 C 42.337 16.7075 42.0565 16.5638 41.8549 16.347 L 41.8549 16.347 Z " stroke-width="0.6302494406700134" fill="undefined"/>
      <path id="Seed_3_" d="M 41.7704 15.1747 C 41.7213 15.1161 41.6519 15.1054 41.587 15.1445 C 41.4055 15.2548 41.4565 15.4319 41.454 15.614 C 41.4521 15.7501 41.6557 15.7659 41.7055 15.6543 C 41.7811 15.4785 41.9179 15.3506 41.7704 15.1747 L 41.7704 15.1747 Z " stroke-width="0.6302494406700134" fill="undefined"/>
    </g>
    <path id="Blueberry5" fill="#3F64FF" stroke="#000000" d="M 16.5756 17.6024 C 17.1321 17.6024 17.6356 17.8356 18.0006 18.2125 C 18.3661 18.5894 18.5917 19.11 18.5917 19.6842 C 18.5917 20.2583 18.3661 20.7789 18.0006 21.1558 C 17.6356 21.5327 17.1321 21.7659 16.5756 21.7659 C 16.0191 21.7659 15.5155 21.5327 15.1506 21.1558 C 14.785 20.7789 14.5594 20.2583 14.5594 19.6842 C 14.5594 19.11 14.785 18.5894 15.1506 18.2125 C 15.5155 17.8356 16.0191 17.6024 16.5756 17.6024 Z " stroke-width="0.6302494406700134"/>
    <path id="Blueberry4" fill="#3F64FF" stroke="#000000" d="M 8.0785 12.4388 C 8.635 12.4388 9.1386 12.672 9.5035 13.0489 C 9.8691 13.4258 10.0947 13.9464 10.0947 14.5205 C 10.0947 15.0947 9.8691 15.6153 9.5035 15.9922 C 9.1386 16.369 8.635 16.6022 8.0785 16.6022 C 7.522 16.6022 7.0185 16.369 6.6535 15.9922 C 6.288 15.6153 6.0624 15.0947 6.0624 14.5205 C 6.0624 13.9464 6.288 13.4258 6.6535 13.0489 C 7.0185 12.672 7.522 12.4388 8.0785 12.4388 Z " stroke-width="0.6302494406700134"/>
    <path id="Blueberry3" fill="#3F64FF" stroke="#000000" d="M 36.6383 17.4978 C 37.1948 17.4978 37.6984 17.731 38.0633 18.1079 C 38.4288 18.4848 38.6545 19.0054 38.6545 19.5795 C 38.6545 20.1537 38.4288 20.6743 38.0633 21.0512 C 37.6984 21.4281 37.1948 21.6613 36.6383 21.6613 C 36.0818 21.6613 35.5782 21.4281 35.2133 21.0512 C 34.8478 20.6743 34.6221 20.1537 34.6221 19.5795 C 34.6221 19.0054 34.8478 18.4848 35.2133 18.1079 C 35.5782 17.731 36.0818 17.4978 36.6383 17.4978 Z " stroke-width="0.6302494406700134"/>
    <path id="Blueberry2" fill="#3F64FF" stroke="#000000" d="M 46.4072 12.5605 C 46.9637 12.5605 47.4672 12.7936 47.8322 13.1705 C 48.1977 13.5474 48.4233 14.068 48.4233 14.6422 C 48.4233 15.2163 48.1977 15.7369 47.8322 16.1138 C 47.4672 16.4907 46.9637 16.7239 46.4072 16.7239 C 45.8506 16.7239 45.3471 16.4907 44.9822 16.1138 C 44.6166 15.7369 44.391 15.2163 44.391 14.6422 C 44.391 14.068 44.6166 13.5474 44.9822 13.1705 C 45.3471 12.7936 45.8506 12.5605 46.4072 12.5605 Z " stroke-width="0.6302494406700134"/>
    <path id="Blueberry1" fill="#3F64FF" stroke="#000000" d="M 34.7475 8.5691 C 35.3041 8.5691 35.8076 8.8023 36.1725 9.1792 C 36.5381 9.5561 36.7637 10.0766 36.7637 10.6508 C 36.7637 11.225 36.5381 11.7455 36.1725 12.1224 C 35.8076 12.4993 35.3041 12.7325 34.7475 12.7325 C 34.191 12.7325 33.6875 12.4993 33.3225 12.1224 C 32.957 11.7455 32.7314 11.225 32.7314 10.6508 C 32.7314 10.0766 32.957 9.5561 33.3225 9.1792 C 33.6875 8.8023 34.191 8.5691 34.7475 8.5691 Z " stroke-width="0.6302494406700134"/>
    <g id="Banana1">
      <g id="Banana">
        <path id="Outside_3_" fill="#FFF4A0" stroke="#000000" d="M 27.3673 8.7505 C 28.786 8.4435 30.1564 8.5603 31.2251 8.9965 C 32.2938 9.432 33.0603 10.1882 33.2706 11.1597 C 33.4808 12.1311 33.0954 13.1366 32.3025 13.975 C 31.5096 14.814 30.3101 15.4869 28.8914 15.7939 C 27.4728 16.1009 26.1023 15.9841 25.0336 15.5479 C 23.965 15.1124 23.1984 14.3561 22.9882 13.3847 C 22.778 12.4133 23.1633 11.4077 23.9563 10.5694 C 24.7491 9.7304 25.9486 9.0575 27.3673 8.7505 Z " stroke-width="0.6302629975589007"/>
        <path id="Inside_4_" fill="#FFF4A0" stroke="#000000" d="M 27.3218 8.5722 C 28.7404 8.2652 30.0902 8.2866 31.1256 8.5687 C 32.1609 8.8502 32.8814 9.3934 33.0408 10.1301 C 33.2002 10.8668 32.7688 11.6592 31.9425 12.3436 C 31.1163 13.0286 29.8961 13.606 28.4775 13.913 C 27.0588 14.22 25.709 14.1987 24.6736 13.9165 C 23.6383 13.635 22.9179 13.0919 22.7584 12.3551 C 22.599 11.6184 23.0305 10.826 23.8568 10.1416 C 24.6829 9.4566 25.9031 8.8792 27.3218 8.5722 Z " stroke-width="0.6302629975589007"/>
      </g>
      <path id="Seed_2_" d="M 27.6547 11.5331 C 27.5362 11.5098 27.4266 11.5464 27.3598 11.6523 C 27.2205 11.8728 27.1222 12.0878 27.0579 12.3411 C 27.0156 12.5176 27.2482 12.6796 27.3799 12.5277 C 27.5488 12.3355 27.6988 12.1483 27.811 11.9157 C 27.8621 11.8111 27.8602 11.685 27.7719 11.5993 C 27.7341 11.5665 27.7039 11.5432 27.6547 11.5331 L 27.6547 11.5331 Z " stroke-width="0.6302494406700134" fill="undefined"/>
      <path id="Seed_1_" d="M 28.7709 11.4594 C 28.5667 11.3718 28.3083 11.6245 28.5112 11.7953 C 28.7841 12.0254 29.1415 12.263 29.5083 12.2088 C 29.64 12.1892 29.7169 11.9932 29.6387 11.8886 C 29.4301 11.6088 29.0766 11.5899 28.7709 11.4594 L 28.7709 11.4594 Z " stroke-width="0.6302494406700134" fill="undefined"/>
      <path id="Seed" d="M 28.1457 10.2953 C 28.0688 10.2575 27.9925 10.2789 27.944 10.3483 C 27.8085 10.5449 27.9415 10.7025 28.0228 10.8903 C 28.0833 11.0315 28.2988 10.9539 28.2988 10.8166 C 28.2969 10.6029 28.3782 10.4081 28.1457 10.2953 L 28.1457 10.2953 Z " stroke-width="0.6302494406700134" fill="undefined"/>
    </g>
    <g id="Peach2">
      <g id="Outside_1_">
        <path id="ID0.4466899405233562" fill="#F37920" d="M 20.9394 30.8988 C 20.0873 30.8988 19.4905 30.7028 19.4842 30.7016 C 19.3392 30.6341 15.2955 28.6873 17.9615 20.1159 C 18.0308 19.9898 20.1213 15.817 19.0316 11.9806 C 18.4783 10.03 18.7632 9.2359 18.9819 8.9359 C 19.1987 8.639 19.4804 8.6264 19.4924 8.6264 C 19.5138 8.6258 19.5825 8.6208 19.7041 8.6208 C 20.4195 8.6208 22.9064 8.7808 24.8728 10.8437 C 26.807 12.8731 27.6812 16.1151 27.4719 20.4808 C 27.0371 29.545 23.1925 30.8988 20.9394 30.8988 L 20.9394 30.8988 L 20.9394 30.8988 Z " stroke-width="0.6302494406700134"/>
        <path id="ID0.5392054421827197" d="M 19.7047 8.9346 C 20.3886 8.9346 22.7652 9.0884 24.6453 11.0605 C 26.5177 13.0249 27.3629 16.1888 27.1574 20.465 C 26.7352 29.269 23.0804 30.5837 20.9394 30.5837 C 20.2518 30.5837 19.7426 30.4488 19.6159 30.4123 C 19.234 30.2163 15.7934 28.2026 18.2476 20.2577 C 18.5048 19.734 20.4062 15.6663 19.3354 11.8943 C 18.8066 10.0313 19.0833 9.3449 19.2264 9.1363 C 19.3455 8.9636 19.4848 8.9428 19.4892 8.9409 L 19.5125 8.9409 L 19.534 8.9397 C 19.5434 8.9384 19.6039 8.9346 19.7047 8.9346 M 19.7047 8.305 C 19.5655 8.305 19.4886 8.3107 19.4886 8.3107 L 19.4886 8.3107 C 19.4741 8.3107 17.6646 8.3182 18.7285 12.0663 C 19.7968 15.8283 17.6602 20.022 17.6602 20.022 C 14.8663 29.0043 19.3833 30.9997 19.3833 30.9997 C 19.3833 30.9997 20.0174 31.2139 20.9388 31.2139 C 23.2417 31.2139 27.3364 29.874 27.7864 20.4953 C 28.3461 8.8458 21.0629 8.305 19.7047 8.305 L 19.7047 8.305 L 19.7047 8.9346 Z " stroke-width="0.6302494406700134" fill="undefined"/>
      </g>
      <g id="Inside_1_">
        <path id="ID0.6806358592584729" fill="#FAAB18" d="M 19.3877 30.6757 C 19.1337 30.6058 18.1392 30.2585 17.405 29.0093 C 16.6121 27.6612 15.9989 24.9783 17.584 19.8524 C 17.6445 19.7081 19.2837 15.6468 18.4304 11.9163 C 18.1518 10.6981 18.2388 9.7949 18.6875 9.2315 C 19.1653 8.6321 19.9014 8.6252 19.909 8.6252 C 19.9512 8.6252 23.727 8.7443 24.4266 19.0457 C 25.1003 28.9589 20.052 30.515 19.3877 30.6757 L 19.3877 30.6757 L 19.3877 30.6757 Z " stroke-width="0.6302494406700134"/>
        <path id="ID0.20297497184947133" d="M 19.914 8.9409 C 20.0564 8.9504 23.4491 9.3058 24.1127 19.0671 C 24.7461 28.3892 20.243 30.1085 19.3959 30.348 C 19.1035 30.2484 18.298 29.8929 17.688 28.8682 C 16.9203 27.5774 16.331 24.9877 17.8777 19.9703 C 18.0403 19.565 19.5856 15.5535 18.7379 11.8457 C 18.4877 10.7504 18.5527 9.9178 18.9258 9.4388 C 19.2781 8.9869 19.8245 8.9447 19.914 8.9409 M 19.9134 8.31 C 19.9108 8.31 19.909 8.31 19.909 8.31 C 19.909 8.31 17.2827 8.31 18.1235 11.9863 C 18.9642 15.6625 17.2833 19.7592 17.2833 19.7592 C 14.1321 29.949 19.384 30.999 19.384 30.999 C 19.384 30.999 25.4766 29.8432 24.7411 19.0243 C 24.0201 8.4103 20.0627 8.31 19.9134 8.31 L 19.9134 8.31 L 19.914 8.9409 Z " stroke-width="0.6302494406700134" fill="undefined"/>
      </g>
    </g>
    <g id="Bowl_Front">
      <path id="ID0.31010090559720993" fill="#65CBEB" d="M 30.3301 44.0546 C 29.4805 44.0546 28.9896 44.0263 28.9789 44.0257 C 0.2143 41.2853 0.7538 22.9835 0.791 22.2052 C 0.9271 19.3445 2.4403 16.4314 3.3838 14.8754 C 4.6134 16.8997 7.2548 18.4646 11.238 19.5279 C 14.6413 20.4367 19.7848 21.81 28.602 21.8875 L 29.1768 21.89 C 29.4339 21.89 53.7748 21.8012 56.7937 14.5136 C 59.05 16.9029 59.3411 22.0697 59.0928 24.4199 C 57.1655 42.6372 36.5923 44.0546 30.3301 44.0546 C 30.3308 44.0546 30.3308 44.0546 30.3301 44.0546 L 30.3301 44.0546 Z " stroke-width="0.6302494406700134"/>
      <path id="ID0.6804001186974347" d="M 56.8813 15.6543 C 58.3435 17.9144 58.7279 21.8755 58.4657 24.3543 C 56.5939 42.0486 36.4574 43.4238 30.3301 43.4238 C 29.5971 43.4238 29.1345 43.4023 29.0362 43.3973 C 18.0718 42.3492 10.1596 38.9597 5.5197 33.3228 C 1.3563 28.265 1.3739 23.1997 1.42 22.2354 C 1.529 19.9508 2.5708 17.6132 3.4412 16.0331 C 4.9153 17.7985 7.476 19.1762 11.0754 20.1373 C 14.5096 21.0543 19.6991 22.4396 28.5963 22.5184 C 28.7854 22.5197 28.9782 22.5209 29.1761 22.5209 C 30.1997 22.5209 52.2508 22.4358 56.8813 15.6543 M 3.7046 13.3514 C 3.7046 13.3514 3.7046 13.352 3.7046 13.3514 L 3.6271 13.3514 C 3.6271 13.3514 0.3706 17.7632 0.1607 22.1749 C -0.0492 26.5867 2.4718 42.133 28.9423 44.654 C 28.9423 44.654 29.4484 44.6836 30.3301 44.6836 C 36.0667 44.6836 57.7164 43.4219 59.7193 24.486 C 60.0231 21.6089 59.5762 15.5239 56.4445 13.3873 C 55.7065 19.4882 38.1162 21.2598 29.1768 21.2598 C 28.9827 21.2598 28.7936 21.2592 28.6077 21.2573 C 19.8699 21.1797 14.7554 19.8146 11.4006 18.919 C 8.0458 18.0235 5.0981 16.6079 3.8533 14.4304 C 3.6378 14.0548 3.6094 13.693 3.7046 13.3514 L 3.7046 13.3514 L 56.8813 15.6543 Z " stroke-width="0.6302494406700134" fill="undefined"/>
    </g>
  </g>
</svg>