<svg width="103px" height="125px" viewBox="0 0 103 125" version="1.1" xml:space="preserve" xmlns="http://www.w3.org/2000/svg" xmlns:xlink="http://www.w3.org/1999/xlink">
  <!-- Generator: Sketch 52.4 (67378) - http://www.bohemiancoding.com/sketch -->
  <g>
    <title>Slice 1</title>
    <desc>Created with Sketch.</desc>
    <g id="Page-1" stroke="none" stroke-width="1" fill="none" fill-rule="evenodd">
      <g id="jordyn-a">
        <g id="Group" transform="translate(1.000000, 77.000000)">
          <g id="Group-4" transform="translate(23.000000, 0.000000)">
            <path d="M2.4,20.5 C3.2,18.7 4,16.9 4.6,15.1 C5.6,11.9 6.3,8.9 10.3,9.1 C17.6,9.4 15.6,21.3 11.8,26.8 C11,27.9 2.4,20.5 2.4,20.5 Z" id="Shape_7_" fill="#DCAA78"/>
            <path d="M2.1,8.1 C1.1,11.9 0.5,15.2 0.5,15.2 L16.2,20 L19.3,10.8 C19.3,10.8 22.3,2.8 13.4,1.2 C4.5,-0.4 2.1,8.1 2.1,8.1 Z" id="Shape_8_" fill="#F01446"/>
          </g>
          <g transform="translate(0.000000, 19.000000)" id="Path">
            <path d="M3,9.9 C3,9.9 3,9.9 3,9.9 L6.4,4.4 C5.5,3.9 4.7,3.4 3.9,2.9 C3.9,2.9 0.3,11.6 0.1,12.3 L1.6,12.4 C1.9,11.8 2.4,10.9 3,9.9 Z" fill="#000000"/>
            <path d="M3.9,8.5 C12.5,15.6 19,14.8 19.2,14.8 C23.5,15.3 33.1,11.3 36.3,6.8 L25.2,0.5 C23.7,3.6 20.8,5.8 17.4,6.4 C13.8,7 9.7,6.1 6.4,4.4 L3,9.9 C3.4,9.4 3.7,8.9 3.9,8.5 Z" fill="#00A08C"/>
            <path d="M3,10 C3,10 3,9.9 3,10 Z" fill="#000000"/>
          </g>
          <polygon id="Shape_10_" fill="#008264" points="23.5 20.5 36.1 27.8 37.6 26 24.8 18.5"/>
        </g>
        <g id="Group" transform="translate(46.000000, 78.000000)">
          <path d="M6.9,4.6 C0.4,6.2 8.5,22.8 8.5,22.8 C8.5,22.8 15.1,23.1 17.6,22.2 C17.5,21.1 13.4,3 6.9,4.6 Z" id="Shape" fill="#DCAA78"/>
          <path d="M0.4,7.1 L3.2,17.3 L18.1,17.6 L16.4,7.1 C16.4,7.1 14.9,0.8 7.2,1 C-0.6,1.1 0.4,7.1 0.4,7.1 Z" id="Shape_6_" fill="#F01446"/>
          <g transform="translate(6.000000, 21.000000)" id="Path">
            <path d="M22.1,24.4 C21.2,24.3 17.7,23.3 16.8,23.2 L11.2,24.2 C11.7,25.2 12,25.9 12.1,25.9 C13.5,26 21.6,25.2 22.1,25.2 C22.1,25.2 22.2,24.5 22.1,24.4 Z" fill="#000000"/>
            <path d="M12.6,0.8 L0.7,0.8 C1.9,3.5 3.2,6 3.5,6.8 C5.3,11.6 9.5,20.5 11.3,24.2 L16.9,23.2 L12.6,0.8 Z" fill="#00A08C"/>
          </g>
          <polygon id="Shape_2_" fill="#008264" points="5.1 21.1 6.5 23.8 19.7 23.5 19.2 20.6"/>
        </g>
        <path d="M62.2,84.6 L59.3,68 L32.4,68 C32.4,68 30.3,71.2 28.4,77 C27.7,79.2 26.8,82.9 26.1,85.5 L62.2,84.6 Z" id="Shape_14_" fill="#F01446"/>
        <g id="Group-3" transform="translate(17.000000, 0.000000)">
          <path d="M48.9,17.9 C49.8,16.4 50.7,14.3 52.9,14.9 C54.6,15.3 55.3,17.5 55,19.1 C54.7,20.7 52.9,22.2 51.2,22.2 C48.4,22.1 48.6,20 48.9,17.9 Z" id="Shape_15_" fill="#BE8C64"/>
          <path d="M52,9.5 L37.9,7.1 L29.3,5.7 C27.2,5.4 27,5.1 26,7.3 C24.2,11.2 24.9,16.8 26.1,20.9 C26.9,23.5 31.6,32 39.2,32 C46.8,32 52,23.2 52.2,21.3 C52.7,17.4 52.7,13.4 52,9.5 Z" id="Shape_16_" fill="#DCAA78"/>
          <path d="M24.2,6.7 C24.2,6.7 20.3,8 18.6,10.3 C16.6,13.2 16.3,16.5 15.4,19.8 C14.6,22.8 13.1,25.6 10.2,26.9 C7.2,28.2 3.6,27.3 2,24.2 C-0.8,18.8 1.8,9.3 6.8,6 C9.6,4.2 13,4.1 16.1,4.5 C18.9,4.8 21.6,5.6 24.2,6.7 Z" id="Shape_17_" fill="#000000"/>
          <path d="M26,6.9 C29,1.3 36.3,-0.5 42.7,0.9 C50.7,2.6 53.4,8.2 52.7,15 C48.4,15.2 26.2,7.6 26,6.9 Z" id="Shape_18_" fill="#000000"/>
          <path d="M25.1,10.8 C23.9,9.9 23.4,8.3 24,6.9 C25,4.4 27.5,5.4 27.5,5.4 L25.1,10.8 Z" id="Shape_19_" fill="#F01446"/>
          <path d="M44.3,14.8 C44.7,15.5 45,16.2 45.2,16.9 C45.3,17.5 45.6,18.2 45,18.8 C44.7,19.2 44.1,19.3 43.6,19.1 C43.2,18.9 43.1,18.6 43,18.1 C43,17.2 43.2,16.2 43.7,15.4 C43.9,15.2 44.1,15 44.3,14.8 Z" id="Shape_20_" fill="#BE8C64"/>
          <path d="M41.7,22.8 C40.9,22.5 40.1,22.1 39.2,21.8 C38.5,21.6 37.7,21 37,20.9 C35.4,20.6 35.5,22.7 36,23.8 C37.1,26.1 42.2,26.1 43.4,23.8 C42.9,23.4 42.3,23.1 41.7,22.8 Z" id="Shape_21_" fill="#000000"/>
          <path d="M38.8,15 C39.2,14.9 39.5,15 39.6,15.2 C39.7,15.6 39.7,16.9 39.3,17.2 L38.7,17 L38.8,15 Z" id="Shape_22_" fill="#000000"/>
          <path d="M49.2,17.3 C48.7,17.2 48.4,16.3 48.7,15.8 C48.8,15.6 48.9,15.5 49.1,15.5 C49.2,15.5 49.4,15.7 49.4,15.9 C49.5,16.3 49.4,16.8 49.2,17.3 Z" id="Shape_23_" fill="#000000"/>
          <path d="M35.4,6.5 L27.3,19.3 L25,19 C25,19 19.9,2.8 35.5,0.7 L35.4,6.5 Z" id="Shape_24_" fill="#000000"/>
          <polygon id="Shape_25_" fill="#000000" points="30.2 5.3 32.9 17.3 36.7 6.9"/>
          <path d="M27.3,14.3 C27.3,14.3 29.4,18.7 29.5,20.6 C28.4,20.6 25.5,21.4 24.1,21 C23,20.7 21.8,19.9 21.5,18.7 C21.3,17.6 20.7,15.4 21.1,14.5 C22.9,10.8 27.3,14.3 27.3,14.3 Z" id="Shape_26_" fill="#DCAA78"/>
        </g>
        <g id="Group-2" transform="translate(50.000000, 38.000000)">
          <path d="M49.6,14.9 C49,14.3 52.6,12.7 52.4,12.2 C52.2,11.7 48.9,13.6 48.5,13.1 C48.1,12.6 51.5,11 51.3,10.7 C51.1,10.3 49.8,11.1 47.1,11.9 C46.1,12.2 43.9,13 42.7,13.2 C41.2,13.5 39.6,13.5 38.1,13.4 C38.2,13.5 30.1,12 27.7,11.2 C26.3,10.7 21.6,8.2 17.6,6.6 L17.6,19 C21.5,19.9 30.7,21.9 39.1,20.5 C46,19.3 52.6,14.8 52.8,14.2 C53.4,12.8 50.2,15.4 49.6,14.9 Z" id="Shape_27_" fill="#DCAA78"/>
          <path d="M8,1 C8,1 3.9,-0.7 1.2,5.8 C-1.6,12.4 6.7,15.5 6.7,15.5 C9.5,16.9 17.4,18.5 17.4,18.5 L20.9,6.9 C20.9,6.9 7.9,0.9 8,1 Z" id="Shape_28_" fill="#008264"/>
          <polygon id="Shape_29_" fill="#F01446" points="19.2 5.2 15.5 19.4 18.2 20.4 22.4 7"/>
          <path d="M43.9,15.1 C42.2,15 41.8,13.3 41.8,13.3 C41.8,13.3 46.2,9.2 46.6,9.6 C47.1,10 46.2,11.1 45.5,12.3 C47.4,13.6 45.5,15.2 43.9,15.1 Z" id="Shape_30_" fill="#BE8C64"/>
        </g>
        <path d="M51.5,37.2 C48.4,37.5 40.6,36.4 35.8,47.7 C32.4,55.7 24.4,81.7 24.4,81.7 L62.7,78.7 C62.7,78.7 62.1,58.3 60.9,46.3 C60,37.6 55.5,36.9 51.5,37.2 Z" id="Shape_31_" fill="#00A08C"/>
        <g id="Group" transform="translate(0.000000, 32.000000)">
          <path d="M9.3,36.5 C7.1,35.9 10.2,27.3 10.7,26.5 C11.1,27.4 10.3,36.1 9.3,36.5 Z" id="Shape_32_" fill="#BE8C64"/>
          <path d="M19.9,4.5 C16.2,6.7 12.9,9.3 10.5,12.9 C6.1,19.6 -5.55111512e-17,35 0.5,35.7 C1,36.4 2.1,32.1 3.3,32.5 C4.5,32.9 2,37.2 2.7,37.8 C3.3,38.4 5.4,33.1 6,33.5 C6.6,33.9 4.6,37.6 4.9,37.8 C5.2,38.1 11.5,27 15.1,22.7 C16.8,20.7 20,17 22.2,15.5 C25,13.6 29.1,12.4 32.6,13 C32.6,13 39.2,14.5 39.7,8.6 C40.2,2.6 34.7,1.7 34.7,1.7 C31.1,1.3 22.9,2.7 19.9,4.5 Z" id="Shape_33_" fill="#DCAA78"/>
          <path d="M42.7,1 C38.4,0.6 34,0.8 29.7,1.3 L30.9,13.4 C30.9,13.4 37.4,13 42.4,17.6 C42.4,17.6 49.5,24.3 56.4,18.4 C63.3,12.5 58.6,6.4 54.8,4.5 C51.6,3.1 47,1.4 42.7,1 Z" id="Shape_34_" fill="#00A08C"/>
          <polygon id="Shape_35_" fill="#F01446" points="27.9 0.1 29.3 15.5 33.1 15.5 31.7 0"/>
        </g>
      </g>
    </g>
  </g>
</svg>