<svg xmlns="http://www.w3.org/2000/svg" xmlns:xlink="http://www.w3.org/1999/xlink" width="62.5435905456543" height="95.47918701171875" viewBox="-0.420925498008728 -0.15536391735076904 62.5435905456543 95.47918701171875" version="1.1" xml:space="preserve">
  <!-- Generator: Sketch 52.4 (67378) - http://www.bohemiancoding.com/sketch -->
  <g>
    <title>Slice 1</title>
    <desc>Created with Sketch.</desc>
    <g id="Page-1" stroke="none" fill-rule="evenodd">
      <g id="strawberry-a-[food,fruit,alex-eben-meyer]">
        <g id="Group-2">
          <path d="M 24.848 17.7053 C 23.272 13.5245 21.776 6.3414 23.98 2.1726 C 26.004 -1.6515 29.544 0.8137 31.232 6.8785 C 32.656 11.9812 32.4 20.3909 32.464 22.1667 C 32.536 24.1268 32.3 26.0468 32.216 27.9949 C 32.148 29.6384 32.736 32.3762 32.148 33.8593 C 29.2 28.7084 26.936 23.2489 24.848 17.7053 Z " id="Shape" fill="#82783C" stroke-width="1"/>
          <path d="M 32.184 33.7791 C 29.848 33.8994 26.944 31.5264 25.144 30.2316 C 24.184 29.5382 12.24 19.8859 8.988 15.0878 C 7.52 12.9232 6.14 10.7667 6.496 8.0489 C 6.972 4.4053 9.452 3.5755 12.664 5.1629 C 17.644 7.6241 21.808 13.1357 24.42 17.9217 C 25.72 20.2987 26.956 22.7319 28.272 25.0808 C 29.544 27.3616 32.244 31.0975 32.184 33.7791 Z " id="Shape" fill="#A0AA1E" stroke-width="1"/>
          <path d="M 31.744 33.6508 C 31.592 31.9633 32.716 29.7065 33.1 28.0631 C 33.5 26.3034 33.9 24.5717 34.468 22.8521 C 35.5407 19.317 36.8189 15.8478 38.296 12.4622 C 39.624 9.5401 41.044 6.2973 43.188 3.8561 C 45.016 1.7717 48.492 -0.4289 51.008 2.0884 C 53.18 4.265 51.808 8.7624 51.04 11.3078 C 49.976 14.723 48.112 17.5129 45.984 20.3268 C 44 22.9483 34.436 32.757 31.744 33.6508 Z " id="Shape" fill="#A0AA1E" stroke-width="1"/>
          <path d="M 32.092 33.7671 C 33.196 32.32 35.008 31.1175 36.348 29.8428 C 38.084 28.1914 39.856 26.584 41.62 24.9686 C 44.184 22.6236 46.924 20.2186 50.516 19.7576 C 51.816 19.5932 54.18 19.5131 54.628 21.1245 C 55.028 22.6076 53.08 24.3032 52.12 25.1008 C 50.6955 26.2382 49.1705 27.2432 47.564 28.1032 C 46.672 28.6162 36 32.6367 32.092 33.7671 Z " id="Shape" fill="#A0AA1E" stroke-width="1"/>
          <path d="M 31.836 33.8432 C 31.564 28.8768 32.14 24.0025 32.3 19.0681 C 32.316 16.4948 32.6002 13.9302 33.148 11.416 C 33.428 10.2696 34.852 6.2051 36.308 8.5139 C 37.148 9.8407 36.612 12.7549 36.56 14.234 C 36.484 16.3745 36.46 18.7194 35.732 20.7677 C 35.252 22.1025 32.1 33.8633 31.836 33.8432 Z " id="Shape" fill="#A0AA1E" stroke-width="1"/>
        </g>
        <g id="Group">
          <path d="M 31.444 94.8236 C 27.5034 94.8424 23.6508 93.6566 20.4 91.4245 C 18.24 89.9213 16.536 87.6565 15.076 85.492 C 12.896 82.2572 10.756 78.9542 8.744 75.6072 C 5.1011 69.584 2.4359 63.0192 0.848 56.1582 C -0.4 50.6025 -0.792 40.353 4.964 36.9177 C 7.912 35.15 12.28 34.1399 15.62 33.4504 C 18.512 32.8532 21.364 32.1036 24.336 31.847 C 26.032 31.7108 27.744 31.5544 29.424 31.819 C 30.716 32.0234 31.344 32.7369 32.276 32.7449 C 32.456 32.7449 33.628 32.0916 33.952 32.0114 C 34.6112 31.882 35.2804 31.8096 35.952 31.7949 C 38.088 31.6707 40.096 32.0114 42.192 32.3281 C 47.604 33.1297 53.312 35.1981 57.548 38.7696 C 62.832 43.223 61.972 50.0373 60.508 56.1662 C 58.908 62.9165 53.192 78.2608 47.708 85.7004 C 42.224 93.1401 34.692 94.8397 31.444 94.8236 Z " id="Shape" fill="#F01446" stroke-width="1"/>
          <path d="M 5.028 41.5996 C 5.028 41.5996 5.6 40.0884 8.128 38.7576 C 11.3209 37.1922 14.9049 36.6092 18.428 37.0821 C 26.616 38.3447 25.596 65.3857 15.836 65.3857 C 10.548 65.3857 6.972 63.1049 5.296 57.93 C 3.88 53.5527 2.864 46.8025 5.028 41.5996 Z " id="Shape" fill="#F00A78" stroke-width="1"/>
          <ellipse id="Oval" fill="#F04650" cx="26.208" cy="44.1862869" rx="1" ry="1.02616034" stroke-width="1" transform="matrix(1,0,0,1,0,31)"/>
          <ellipse id="Oval" fill="#F04650" cx="45.276" cy="15.814557" rx="1" ry="1.02616034" stroke-width="1" transform="matrix(1,0,0,1,0,31)"/>
          <ellipse id="Oval" fill="#F04650" cx="42.136" cy="11.0405063" rx="1" ry="1.02616034" stroke-width="1" transform="matrix(1,0,0,1,0,31)"/>
          <ellipse id="Oval" fill="#F04650" cx="49.168" cy="11.5175105" rx="1" ry="1.02616034" stroke-width="1" transform="matrix(1,0,0,1,0,31)"/>
          <ellipse id="Oval" fill="#F04650" cx="37.76" cy="6.2424051" rx="1" ry="1.02616034" stroke-width="1" transform="matrix(1,0,0,1,0,31)"/>
          <ellipse id="Oval" fill="#F04650" cx="29.572" cy="8.8158228" rx="1" ry="1.02616034" stroke-width="1" transform="matrix(1,0,0,1,0,31)"/>
          <ellipse id="Oval" fill="#F04650" cx="22.856" cy="8.1103376" rx="1" ry="1.02616034" stroke-width="1" transform="matrix(1,0,0,1,0,31)"/>
          <ellipse id="Oval" fill="#F04650" cx="14.348" cy="7.9179325" rx="1" ry="1.02616034" stroke-width="1" transform="matrix(1,0,0,1,0,31)"/>
          <ellipse id="Oval" fill="#F04650" cx="20.376" cy="16.3236287" rx="1" ry="1.02616034" stroke-width="1" transform="matrix(1,0,0,1,0,31)"/>
          <ellipse id="Oval" fill="#F04650" cx="11.768" cy="15.8265823" rx="1" ry="1.02616034" stroke-width="1" transform="matrix(1,0,0,1,0,31)"/>
          <ellipse id="Oval" fill="#F04650" cx="36.488" cy="46.5031646" rx="1" ry="1.02616034" stroke-width="1" transform="matrix(1,0,0,1,0,31)"/>
          <ellipse id="Oval" fill="#F04650" cx="33.332" cy="14.7563291" rx="1" ry="1.02616034" stroke-width="1" transform="matrix(1,0,0,1,0,31)"/>
          <ellipse id="Oval" fill="#F04650" cx="35.612" cy="21.3341772" rx="1" ry="1.02616034" stroke-width="1" transform="matrix(1,0,0,1,0,31)"/>
          <ellipse id="Oval" fill="#F04650" cx="27.86" cy="16.4037975" rx="1" ry="1.02616034" stroke-width="1" transform="matrix(1,0,0,1,0,31)"/>
          <ellipse id="Oval" fill="#F04650" cx="19.276" cy="50.1668776" rx="1" ry="1.02616034" stroke-width="1" transform="matrix(1,0,0,1,0,31)"/>
          <ellipse id="Oval" fill="#F04650" cx="26.208" cy="22.7732068" rx="1" ry="1.02616034" stroke-width="1" transform="matrix(1,0,0,1,0,31)"/>
          <ellipse id="Oval" fill="#F04650" cx="14.384" cy="39.7489451" rx="1" ry="1.02616034" stroke-width="1" transform="matrix(1,0,0,1,0,31)"/>
          <ellipse id="Oval" fill="#F04650" cx="21.228" cy="29.5194093" rx="1" ry="1.02616034" stroke-width="1" transform="matrix(1,0,0,1,0,31)"/>
          <ellipse id="Oval" fill="#F04650" cx="13.936" cy="29.2508439" rx="1" ry="1.02616034" stroke-width="1" transform="matrix(1,0,0,1,0,31)"/>
          <ellipse id="Oval" fill="#F04650" cx="46.44" cy="27.7637131" rx="1" ry="1.02616034" stroke-width="1" transform="matrix(1,0,0,1,0,31)"/>
          <ellipse id="Oval" fill="#F04650" cx="52.764" cy="16.3196203" rx="1" ry="1.02616034" stroke-width="1" transform="matrix(1,0,0,1,0,31)"/>
          <ellipse id="Oval" fill="#F04650" cx="53.388" cy="26.4248945" rx="1" ry="1.02616034" stroke-width="1" transform="matrix(1,0,0,1,0,31)"/>
          <ellipse id="Oval" fill="#F04650" cx="56.772" cy="21.0535865" rx="1" ry="1.02616034" stroke-width="1" transform="matrix(1,0,0,1,0,31)"/>
          <ellipse id="Oval" fill="#F04650" cx="56.968" cy="11.4373418" rx="1" ry="1.02616034" stroke-width="1" transform="matrix(1,0,0,1,0,31)"/>
          <ellipse id="Oval" fill="#F04650" cx="45.152" cy="5.0879747" rx="1" ry="1.02616034" stroke-width="1" transform="matrix(1,0,0,1,0,31)"/>
          <ellipse id="Oval" fill="#F04650" cx="5.8" cy="12.1628692" rx="1" ry="1.02616034" stroke-width="1" transform="matrix(1,0,0,1,0,31)"/>
          <ellipse id="Oval" fill="#F04650" cx="4.068" cy="25.9078059" rx="1" ry="1.02616034" stroke-width="1" transform="matrix(1,0,0,1,0,31)"/>
          <ellipse id="Oval" fill="#F04650" cx="2.328" cy="19.5824895" rx="1" ry="1.02616034" stroke-width="1" transform="matrix(1,0,0,1,0,31)"/>
          <ellipse id="Oval" fill="#F04650" cx="32.4" cy="26.1443038" rx="1" ry="1.02616034" stroke-width="1" transform="matrix(1,0,0,1,0,31)"/>
          <ellipse id="Oval" fill="#F04650" cx="49.808" cy="35.3116034" rx="1" ry="1.02616034" stroke-width="1" transform="matrix(1,0,0,1,0,31)"/>
          <ellipse id="Oval" fill="#F04650" transform="matrix(0.3665012267242973,-0.9304175679820246,0.9304175679820246,0.3665012267242973,-4.386055666660404,86.14779244561515)" cx="38.3046626" cy="30.7947894" rx="1.024" ry="1" stroke-width="1"/>
          <ellipse id="Oval" fill="#F04650" cx="41.496" cy="19.5824895" rx="1" ry="1.02616034" stroke-width="1" transform="matrix(1,0,0,1,0,31)"/>
          <ellipse id="Oval" fill="#F04650" cx="29.016" cy="34.9267932" rx="1" ry="1.02616034" stroke-width="1" transform="matrix(1,0,0,1,0,31)"/>
          <ellipse id="Oval" fill="#F04650" cx="48.828" cy="21.6308017" rx="1" ry="1.02616034" stroke-width="1" transform="matrix(1,0,0,1,0,31)"/>
          <ellipse id="Oval" fill="#F04650" cx="50.08" cy="43.9938819" rx="1" ry="1.02616034" stroke-width="1" transform="matrix(1,0,0,1,0,31)"/>
          <ellipse id="Oval" fill="#F04650" cx="41.724" cy="38.3981013" rx="1" ry="1.02616034" stroke-width="1" transform="matrix(1,0,0,1,0,31)"/>
          <ellipse id="Oval" fill="#F04650" cx="16.712" cy="22.8373418" rx="1" ry="1.02616034" stroke-width="1" transform="matrix(1,0,0,1,0,31)"/>
          <ellipse id="Oval" fill="#F04650" cx="9.728" cy="21.4223629" rx="1" ry="1.02616034" stroke-width="1" transform="matrix(1,0,0,1,0,31)"/>
        </g>
      </g>
    </g>
  </g>
</svg>