<svg xmlns="http://www.w3.org/2000/svg" xmlns:xlink="http://www.w3.org/1999/xlink" version="1.1" width="48.39193648099899" height="191.62005919218063" viewBox="0.1261671483516693 0.22442761063575745 48.39193648099899 191.62005919218063">
  <!-- Exported by Scratch - http://scratch.mit.edu/ -->
  <g id="ID0.5701931728981435">
    <g id="Face">
      <path id="Face_1_" fill="#D8AD8C" d="M 35.9058 19.5727 C 35.7462 19.6677 36.3304 19.5233 36.4235 19.6971 C 36.6297 20.079 36.6572 19.5917 37.0249 19.8453 C 37.5664 20.2158 36.9688 21.0509 37.0211 21.733 C 37.079 22.4664 36.2117 22.7998 36.3105 23.5237 C 36.3342 23.6871 36.3323 23.9275 36.4368 24.0633 C 36.5185 24.1688 35.7338 25.8246 35.7243 25.9206 C 35.6911 26.2939 35.9381 27.0292 35.921 27.261 C 35.826 28.5559 36.244 27.6838 35.9039 28.971 C 35.7348 29.6123 35.5258 30.0141 35.2674 30.6307 C 35.1249 30.9698 34.8294 31.2729 34.6869 31.612 C 34.4865 32.087 34.153 32.5839 33.9041 33.0209 C 33.4975 33.7315 33.6647 33.4009 33.1394 34.0602 C 32.9389 34.311 32.4079 35.2049 32.2378 35.4785 C 32.1248 35.66 32.1599 35.6353 31.9804 35.8139 C 31.893 35.9013 31.4797 36.3924 31.379 36.4466 C 30.125 37.1116 29.2045 37.7557 27.8089 38.1984 C 27.1591 38.4026 27.1591 38.4026 26.5027 38.263 C 26.2481 38.2079 25.8367 38.2554 25.6211 38.1461 C 25.2962 37.9789 24.844 37.541 24.6445 37.844 C 24.3224 38.3314 23.9225 38.9042 24.1809 39.2937 C 24.4944 39.7678 24.4193 39.6699 24.7642 40.1316 C 24.9732 40.4128 25.5223 40.6351 25.6211 40.9724 C 25.7284 41.3381 26.3146 41.6602 26.4742 42.0031 C 26.7582 42.614 26.7744 42.974 26.9824 43.602 C 27.2142 44.3002 28.3039 45.4355 28.112 46.1765 C 27.9742 46.7161 27.6151 48.1496 26.9967 48.4394 C 26.6927 48.5819 25.4729 49.3048 25.1527 49.2982 C 24.501 49.283 24.0365 49.0341 23.551 48.978 C 22.7331 48.884 21.6976 48.5781 21.2596 47.7744 C 21.1038 47.4903 20.284 46.5014 20.131 46.2107 C 19.4594 44.9282 19.0195 45.8677 18.5388 44.3439 C 18.307 43.6077 17.9764 43.2049 17.5261 42.5674 C 17.0939 41.9556 17.1091 41.7618 16.6132 41.2137 C 16.0897 40.6361 15.3164 39.8979 14.8025 39.2937 C 14.5963 39.0515 14.2382 38.1452 13.9826 37.9419 C 13.7489 37.7538 16.1534 35.6809 15.9976 35.0197 C 16.2313 34.5713 16.027 34.1599 16.2873 33.3268 C 16.6654 32.1184 16.1182 31.4448 16.4659 30.2146 C 16.6426 29.5857 16.1781 29.3064 16.2873 28.6537 C 16.3358 28.3583 16.0327 27.8947 16.0204 27.5878 C 16.009 27.3076 16.1201 27.014 15.989 26.7898 C 15.9615 26.6435 16.3567 26.8307 16.0061 26.1543 C 15.8133 25.779 16.654 24.7464 16.16 24.8518 C 15.6166 24.9696 14.3883 25.3278 13.8477 24.4205 C 13.4839 23.8097 13.0108 23.5361 12.8141 22.8796 C 12.6156 22.2118 12.4911 21.6351 12.3876 20.9084 C 12.1691 19.3665 13.1276 17.9073 13.8477 17.8332 C 14.5013 17.7639 15.4656 18.3548 15.9871 18.6873 C 16.4878 19.0093 16.939 20.7849 17.2991 21.2456 C 18.0486 22.2013 17.6848 22.4103 17.832 22.7134 C 17.89 22.3505 18.0106 23.1713 18.2101 23.4667 C 18.535 23.9921 18.2586 23.2691 18.3175 23.9151 C 18.3488 24.2467 18.3935 24.1403 18.3583 24.4585 C 18.3232 24.7625 18.6566 23.6064 18.6794 23.9151 C 18.8837 22.9832 18.7184 24.2543 18.9245 23.3043 C 19.0243 22.8568 19.0433 23.3366 19.0243 22.8568 C 19.0005 22.2574 19.2599 22.9072 19.219 22.3011 C 19.3045 22.6155 19.1544 19.6259 19.3938 20.4172 C 19.5591 20.9635 19.5572 18.1211 19.4936 18.6825 C 19.5971 18.2455 19.8242 22.7723 19.8517 22.302 C 19.8755 21.8878 20.5101 21.1212 20.4939 20.6984 C 20.436 19.3751 21.1485 18.7025 21.0174 17.3829 C 20.9509 16.7569 21.1266 16.3047 21.1618 15.6948 C 21.1874 15.1894 20.9499 14.7828 21.366 14.4037 C 21.4553 15.007 21.6406 11.8691 21.9379 12.3964 C 22.2258 12.9037 22.2476 14.8892 22.6894 15.2692 C 23.7429 16.1726 23.6223 17.0162 24.8991 17.5311 C 24.5096 17.3012 26.0258 18.1059 25.7968 17.8 C 25.546 17.4646 25.2107 16.8813 25.0264 16.5004 C 24.8516 16.1337 24.9684 16.033 24.7528 15.6767 C 24.4763 15.216 24.2996 15.1039 24.5115 14.6308 C 24.9143 15.1447 24.2626 13.0148 24.5333 13.601 C 24.8563 14.303 25.185 14.7951 25.8291 15.3129 C 26.4523 15.8135 27.4764 16.9431 28.1167 17.1074 C 28.8739 17.3012 29.518 17.9919 30.3749 18.122 C 31.1026 18.2313 32.0469 18.9001 32.748 18.8355 C 32.4288 19.0397 32.748 18.8355 33.6628 19.111 L 34.6907 19.433 C 35.8545 19.376 34.4475 19.4796 35.5866 19.4995 " stroke-width="0.949999988079071"/>
      <g id="Face_Lines">
        <g id="ID0.10531485360115767">
          <path id="ID0.6090669264085591" fill="#010101" d="M 15.1597 18.2161 C 15.2974 18.2864 15.7534 18.2674 15.458 18.1154 C 14.4842 17.6157 13.3034 17.4276 12.5576 18.4365 C 11.847 19.3979 12.018 20.459 12.2574 21.5867 C 12.5576 23.0221 12.9718 23.9579 14.1631 24.8699 C 15.0219 25.5282 15.8703 25.1729 16.5229 24.4424 C 16.6246 24.3293 16.1534 24.1545 16.0574 24.2628 C 15.059 25.3819 13.5751 24.3056 13.1818 23.2178 C 12.9642 22.6222 12.798 22.0028 12.6973 21.3767 C 12.5956 20.764 12.436 20.0524 12.5785 19.4359 C 12.8331 18.3348 14.0092 17.6233 15.1597 18.2161 L 15.1597 18.2161 Z " stroke-width="0.949999988079071"/>
          <path id="ID0.0664755660109222" fill="#010101" d="M 16.0878 23.8496 C 16.0299 23.9484 16.5039 24.126 16.5866 23.9835 C 16.9238 23.4021 16.3994 23.119 15.8741 23.0231 C 15.553 22.9642 15.23 22.9518 14.9041 22.9499 C 14.1432 22.9433 13.576 22.5272 13.3936 21.7909 C 13.3566 21.6494 12.8645 21.5715 12.8987 21.7149 C 13.0877 22.4787 13.7489 22.9936 14.5108 23.1323 C 14.9972 23.2216 16.5828 22.9984 16.0878 23.8496 L 16.0878 23.8496 Z " stroke-width="0.949999988079071"/>
          <path id="ID0.6626838762313128" fill="#010101" d="M 12.7125 19.7807 C 12.683 19.927 13.1837 20.0496 13.2112 19.9147 C 13.3984 19.0416 14.4861 19.1689 14.9317 19.7779 C 15.3696 20.3773 15.6442 21.0775 16.1002 21.6655 C 16.1819 21.7729 16.6721 21.8327 16.5552 21.6826 C 15.8741 20.8077 15.6185 19.5898 14.488 19.1775 C 13.8335 18.9371 12.8854 18.959 12.7125 19.7807 L 12.7125 19.7807 Z " stroke-width="0.949999988079071"/>
          <path id="ID0.341710327193141" fill="#010101" d="M 14.4016 17.8807 C 14.0691 17.8608 14.4557 18.1068 14.6077 18.1163 C 16.3092 18.2208 16.9656 20.6785 17.2297 22.0436 C 17.2573 22.1842 17.7551 22.2707 17.7247 22.1196 C 17.3751 20.3184 16.5353 18.0109 14.4016 17.8807 L 14.4016 17.8807 Z " stroke-width="0.949999988079071"/>
          <path id="ID0.3829536600969732" fill="#010101" d="M 37.4533 20.1835 C 37.4334 20.0448 36.9375 19.9498 36.9593 20.1075 C 37.1712 21.6294 36.3542 22.8188 35.9333 24.2163 C 35.7034 24.9734 35.2712 25.9462 35.3491 26.7537 C 35.3624 26.8896 35.8592 26.9922 35.844 26.8297 C 35.7471 25.8503 36.3466 24.5374 36.662 23.6292 C 37.0752 22.4426 37.6376 21.505 37.4533 20.1835 L 37.4533 20.1835 Z " stroke-width="0.949999988079071"/>
          <path id="ID0.21730650449171662" fill="#010101" d="M 26.7345 38.3808 C 27.0831 38.4159 26.8732 38.1794 26.6509 38.1585 C 20.3087 37.5277 15.5235 30.6763 16.4536 24.6827 C 16.4754 24.5288 15.9748 24.4177 15.9548 24.5488 C 14.9763 30.8748 20.227 37.7338 26.7345 38.3808 L 26.7345 38.3808 Z " stroke-width="0.949999988079071"/>
          <path id="ID0.5822489578276873" fill="#010101" d="M 31.0969 27.091 C 31.171 27.2287 31.646 27.2696 31.5918 27.166 C 30.8461 25.7904 32.1115 22.8863 33.3968 22.1852 C 33.4918 22.1348 33.0681 21.9306 32.9313 22.0056 C 31.5899 22.7371 30.3321 25.6774 31.0969 27.091 L 31.0969 27.091 Z " stroke-width="0.949999988079071"/>
          <path id="ID0.9758873996324837" fill="#010101" d="M 31.5975 27.889 C 31.5215 27.7531 31.0465 27.7142 31.1026 27.812 C 31.531 28.5787 32.31 29.6949 31.5662 30.5186 C 31.2508 30.8682 30.5791 30.7209 30.1412 30.9128 C 29.9645 30.9898 30.4214 31.1807 30.5459 31.1266 C 31.1159 30.8777 31.7685 31.1684 32.1362 30.5528 C 32.691 29.6246 32.0583 28.7145 31.5975 27.889 L 31.5975 27.889 Z " stroke-width="0.949999988079071"/>
          <path id="ID0.5614598542451859" fill="#010101" d="M 29.9911 30.6753 C 30.3217 30.7038 29.9331 30.453 29.7849 30.4388 C 29.3118 30.3979 28.5737 30.7162 28.2298 30.2725 C 27.8868 29.8289 28.1348 29.3311 28.5784 29.086 C 28.6734 29.0347 28.2497 28.8304 28.1129 28.9064 C 27.5344 29.2256 27.3377 30.0046 27.9495 30.4198 C 28.2279 30.6088 28.5632 30.7523 28.9052 30.7504 C 29.2672 30.7475 29.6291 30.6449 29.9911 30.6753 L 29.9911 30.6753 Z " stroke-width="0.949999988079071"/>
          <path id="ID0.14297197572886944" fill="#010101" d="M 35.7908 26.7708 C 35.692 26.6853 35.1971 26.6369 35.4013 26.8136 C 36.2012 27.5033 35.3101 29.5268 35.008 30.2716 C 34.5463 31.4097 34.0153 32.5981 33.223 33.55 C 33.1242 33.6707 33.5992 33.8388 33.6904 33.7296 C 34.6147 32.62 35.2693 31.1798 35.7243 29.8213 C 36.0008 28.9967 36.6097 27.4767 35.7908 26.7708 L 35.7908 26.7708 Z " stroke-width="0.949999988079071"/>
          <path id="ID0.22262887004762888" fill="#010101" d="M 16.7167 29.503 C 16.7129 29.3358 16.2161 29.2589 16.2199 29.37 C 16.2959 32.5031 16.2607 35.5384 13.6169 37.6683 C 13.5114 37.75 13.9636 37.9447 14.0824 37.8478 C 16.73 35.7141 16.7946 32.6684 16.7167 29.503 L 16.7167 29.503 Z " stroke-width="0.949999988079071"/>
          <path id="ID0.7726471880450845" fill="#010101" d="M 24.4526 42.4031 C 24.5428 42.5028 25.0311 42.557 24.9086 42.4202 C 23.7211 41.0921 24.4744 39.4467 24.7575 37.9238 C 24.7841 37.7737 24.2844 37.6559 24.2597 37.7899 C 23.9662 39.3783 23.228 41.0332 24.4526 42.4031 L 24.4526 42.4031 Z " stroke-width="0.949999988079071"/>
          <path id="ID0.33542889822274446" fill="#010101" d="M 31.0247 33.1415 C 31.3591 33.1567 30.9724 32.9126 30.8185 32.905 C 29.2672 32.8337 27.4764 33.0427 26.1075 32.1725 C 26.002 32.1051 25.4966 32.0756 25.718 32.2153 C 27.2969 33.2194 29.2358 33.0589 31.0247 33.1415 L 31.0247 33.1415 Z " stroke-width="0.949999988079071"/>
          <path id="ID0.787878300063312" fill="#010101" d="M 30.9297 33.1339 C 31.0313 33.0247 30.562 32.847 30.4642 32.9544 C 29.9911 33.4617 29.3546 33.7666 28.852 34.2435 C 28.7485 34.3423 29.2102 34.5257 29.3194 34.4231 C 29.8201 33.9481 30.4547 33.6422 30.9297 33.1339 L 30.9297 33.1339 Z " stroke-width="0.949999988079071"/>
          <path id="ID0.9444534494541585" fill="#010101" d="M 31.5899 32.5316 C 31.6099 32.3768 31.1092 32.2694 31.0931 32.3977 C 31.037 32.8185 30.7406 32.8926 30.3454 32.9278 C 30.0823 32.9506 30.5345 33.171 30.6608 33.1596 C 30.9449 33.1349 31.2042 33.037 31.4769 32.9572 C 31.5006 32.9515 31.5158 32.9382 31.5253 32.9173 C 31.5424 32.7872 31.5738 32.6627 31.5899 32.5316 L 31.5899 32.5316 Z " stroke-width="0.949999988079071"/>
          <path id="ID0.752304382622242" fill="#010101" d="M 25.4396 32.4262 C 25.4843 32.5687 25.9754 32.6371 25.9346 32.5022 C 25.8624 32.2732 25.851 32.106 26.1141 32.0329 C 26.2851 31.9844 25.8396 31.783 25.7094 31.8191 C 25.3817 31.9113 25.3446 32.1203 25.4396 32.4262 L 25.4396 32.4262 Z " stroke-width="0.949999988079071"/>
          <path id="ID0.7513119117356837" fill="#010101" d="M 29.8334 37.5172 C 29.9369 37.4156 29.4733 37.2322 29.3679 37.3367 C 28.5661 38.1309 27.466 38.1461 26.4048 38.1471 C 26.0704 38.1471 26.4552 38.3827 26.611 38.3827 C 27.7491 38.3827 28.9717 38.3722 29.8334 37.5172 L 29.8334 37.5172 Z " stroke-width="0.949999988079071"/>
        </g>
      </g>
    </g>
    <g id="Hair">
      <path id="Hair_1_" fill="#A15927" d="M 35.7072 26.1752 C 35.8374 25.475 35.939 25.3458 36.0834 24.8395 C 36.2487 24.2609 36.2468 24.2372 36.5195 23.4582 C 36.7199 22.8882 37.0961 22.0731 37.2063 21.4546 C 37.3213 20.8048 37.1398 20.6576 37.1617 19.9831 C 37.1208 19.9603 36.4691 19.6924 36.4235 19.6981 C 35.7367 19.5651 35.0574 19.396 34.7069 19.2991 C 34.0723 19.1243 33.1318 18.8488 32.5086 18.6787 C 31.3695 18.3671 30.3986 18.1714 29.3023 17.7126 C 28.1832 17.2471 27.1449 16.7436 26.25 15.8819 C 25.3465 15.0136 24.9162 14.399 24.4051 13.3568 C 24.2312 14.2185 24.5656 14.8958 24.7499 15.6758 C 24.8563 16.1213 25.0083 16.6695 25.3066 17.0381 C 25.566 17.3544 25.9973 17.7952 26.0818 18.1876 C 24.9941 17.8712 23.3781 16.8015 22.7568 15.7926 C 21.727 14.1273 21.9997 12.1456 22.2153 11.2583 C 21.9541 12.0145 21.5513 13.6038 21.3641 14.4047 C 21.1827 15.1818 21.1656 15.9009 21.0677 16.7274 C 20.873 18.4393 20.4255 21.4366 19.9391 22.3685 C 20.0769 21.4223 19.6798 19.6762 19.486 18.6844 C 19.4508 19.586 19.3872 20.0401 19.2133 22.3039 C 19.124 23.4724 18.8476 23.7403 18.3545 24.4614 C 18.4087 23.2159 18.2709 23.6567 17.8947 22.7561 C 17.6382 22.4759 17.6905 21.9353 17.6382 22.4759 C 17.6249 22.4369 17.6126 21.9743 17.5974 21.9467 C 17.4188 21.5572 17.3114 20.668 17.1338 20.2054 C 16.9542 19.738 16.1762 18.6379 15.8057 18.3757 C 15.0856 17.8646 14.9554 17.8009 14.2895 17.8009 C 11.543 17.8009 12.0446 20.7241 12.5586 22.3362 C 12.8854 23.3622 13.3784 24.7388 14.8034 25.0694 C 15.2585 25.1739 16.0907 24.4025 16.0764 24.7388 C 15.989 26.7917 16.0802 26.6302 16.0935 27.0226 C 16.1439 28.8504 16.3291 29.2142 16.4688 30.8178 C 16.0935 30.9204 12.6574 32.2723 12.2954 32.2694 C 13.1457 31.1617 13.4696 29.4897 13.7632 28.9967 C 14.0938 28.4409 11.8024 30.2317 12.7372 29.8146 C 11.8147 30.0521 10.9265 31.0287 9.6012 30.9005 C 9.7998 30.5651 11.0946 29.4897 11.3901 29.2332 C 11.8394 28.8399 11.9506 28.0258 12.1159 27.509 C 12.418 26.559 12.2194 26.5495 12.2546 25.4665 C 11.9686 26.4089 11.2438 28.6395 9.5813 28.6556 C 10.3365 27.5413 10.4382 24.9611 10.1636 23.7641 C 9.9071 22.6687 9.9461 21.4052 9.7627 20.2833 C 9.5974 19.2972 9.6886 18.502 9.4236 17.3839 C 9.1481 16.2334 8.9495 15.2179 8.9315 14 C 8.9201 13.4024 9.1965 12.8524 9.0949 12.27 C 8.978 11.6307 9.187 10.9638 9.3523 10.333 C 9.6269 9.3108 9.891 8.8424 10.518 8.1898 C 13.0716 5.5279 12.9671 6.3316 14.0976 5.9022 C 16.1439 5.1241 14.185 4.348 18.1797 2.1421 C 19.2618 1.5455 22.7093 0.9727 23.6736 0.8159 C 24.9855 0.6022 25.1337 0.9128 26.6404 1.156 C 27.9543 1.3669 28.8406 1.7621 30.0899 2.1715 C 31.3534 2.5857 31.9471 3.1111 33.3702 3.8825 C 33.3645 3.8768 34.172 4.5361 34.5615 4.9465 C 35.5761 5.4443 35.0717 5.4272 35.9086 6.1197 C 35.9276 6.1577 36.699 6.9652 36.9992 7.3414 C 37.973 8.2496 37.3089 7.9133 38.1278 8.9659 C 38.7159 9.7212 40.1247 11.6098 40.6415 12.3375 C 41.3094 13.4528 41.5858 14.1396 41.9145 15.14 C 42.2537 16.1707 42.4731 17.2642 42.3021 18.2797 C 41.6637 17.419 41.1089 16.755 39.3239 15.9703 C 39.663 17.2756 40.6111 18.2303 41.2533 19.1623 C 41.7454 19.8767 42.6242 20.6405 42.5482 21.5734 C 41.8395 21.4841 40.9341 20.9967 40.2311 20.8048 C 39.5851 20.6291 39.2849 20.4115 38.6912 20.2586 C 37.9863 20.2386 38.7206 22.1225 38.8802 23.2378 C 38.9752 23.8857 39.1025 24.279 39.0474 24.9753 C 38.9847 25.7686 39.112 26.3756 39.207 27.0739 C 39.0569 26.8335 38.9154 26.5305 38.7396 26.2873 C 38.4822 25.931 38.2314 25.4741 37.9587 25.114 C 37.972 25.8265 37.8884 26.14 37.9084 26.8715 C 37.9274 27.5641 37.7659 28.9663 37.7098 29.6626 C 37.611 29.3425 37.0192 28.2091 36.7152 27.8519 C 36.2288 27.2838 36.32 27.262 35.7728 26.8098 " stroke-width="0.949999988079071"/>
      <g id="Hair_Lines">
        <g id="ID0.3166307252831757">
          <path id="ID0.7305007590912282" fill="#010101" d="M 22.6618 11.1984 C 22.6989 11.054 22.3246 10.9543 22.2866 11.0968 C 21.3328 14.8084 23.1957 16.8053 26.3222 18.4754 C 26.4134 18.5248 26.6898 18.4954 26.5502 18.351 C 27.3577 19.1974 22.7986 12.1285 25.2943 14.9186 C 26.231 15.9674 27.2627 16.8794 28.5604 17.4713 C 33.0121 19.5033 37.9749 19.9166 42.5007 21.8204 C 42.5586 21.8451 42.7923 21.8859 42.7638 21.7548 C 42.5558 20.7516 42.1292 20.0676 41.4946 19.2392 C 41.1555 18.8013 40.8192 18.3605 40.4857 17.9168 C 39.645 16.8291 40.2112 17.0941 42.1872 18.7129 C 42.2461 18.8051 42.5472 18.8972 42.5491 18.7243 C 42.6422 14.0598 39.7713 9.6651 36.0492 7.0099 C 35.9229 6.9196 35.6056 6.9909 35.8117 7.1381 C 38.8432 9.2994 42.2727 13.7026 42.1948 17.6622 C 42.1967 17.5397 39.9233 16.204 39.4502 15.9988 C 39.4075 15.9798 39.1367 15.937 39.1871 16.0643 C 39.6602 17.2889 40.367 18.2009 41.1431 19.2573 C 42.0713 20.516 42.4256 21.4356 40.386 20.7469 C 35.274 19.0198 27.0214 18.9846 24.7452 13.1554 C 24.6996 13.0405 24.3709 12.9312 24.3699 13.1146 C 24.3585 14.5291 24.387 16.4776 25.4605 17.6043 C 23.2926 15.3328 21.7707 14.6621 22.6618 11.1984 L 22.6618 11.1984 Z " stroke-width="0.949999988079071"/>
          <path id="ID0.5642167287878692" fill="#010101" d="M 16.4365 30.9138 C 16.5961 30.8102 16.255 30.6506 16.1448 30.7209 C 14.9925 31.4619 13.234 31.9797 11.8831 32.2295 C 11.9686 32.297 12.0579 32.3663 12.1425 32.4338 C 13.1704 31.7488 13.9959 30.1481 13.9437 28.915 C 13.9399 28.7867 13.6577 28.7364 13.5836 28.8181 C 12.4978 30.0037 11.2029 30.4179 9.6886 30.814 C 8.8906 31.0249 9.5404 31.1769 10.062 30.8207 C 10.3641 30.6136 10.6709 30.4017 10.9189 30.1253 C 12.1881 28.7183 12.7723 26.8288 12.1672 24.9915 C 12.1263 24.8699 11.791 24.772 11.7919 24.9506 C 11.8014 26.7898 11.0718 28.2015 9.2944 28.877 C 9.1291 28.9397 9.4673 29.1145 9.5898 29.0679 C 11.4233 28.3716 12.1767 26.9057 12.1672 24.9915 C 12.0408 24.9772 11.9164 24.9649 11.7919 24.9506 C 12.5842 27.3598 11.2856 30.2298 8.8346 31.0449 C 8.617 31.118 8.9334 31.2976 9.0588 31.2624 C 10.8809 30.7599 12.5994 30.4188 13.9256 28.972 C 13.805 28.9387 13.6862 28.9064 13.5656 28.8751 C 13.6121 30.055 12.8217 31.5902 11.8423 32.2438 C 11.6732 32.3568 12.0152 32.4651 12.1016 32.448 C 13.4734 32.1953 15.2547 31.6738 16.4365 30.9138 L 16.4365 30.9138 Z " stroke-width="0.949999988079071"/>
          <path id="ID0.2972793853841722" fill="#010101" d="M 22.6153 11.2944 C 22.6761 11.1747 22.3132 11.0569 22.2438 11.1946 C 20.986 13.6542 21.0782 16.2553 20.6478 18.9134 C 20.5158 19.7294 20.0341 21.181 20.0541 21.7092 C 20.0018 20.4448 19.7909 19.2364 19.5306 17.9995 C 19.5012 17.8608 19.1221 17.8028 19.1554 17.9586 C 19.4689 19.4501 19.7026 20.8647 19.6541 22.3989 C 19.6503 22.5462 19.9657 22.6402 20.0294 22.4987 C 21.6244 18.9134 20.8207 14.8113 22.6153 11.2944 L 22.6153 11.2944 Z " stroke-width="0.949999988079071"/>
          <path id="ID0.1473966771736741" fill="#010101" d="M 38.3587 20.2804 C 38.3178 20.1446 37.9397 20.0933 37.9834 20.2415 C 38.5192 21.9752 38.676 23.5674 38.8888 25.3525 C 38.9781 26.1077 39.1614 26.6872 39.473 27.2449 C 39.0607 26.5058 38.6047 25.8037 38.1316 25.1036 C 38.0889 25.0399 37.7754 24.9136 37.7697 25.0627 C 37.7117 26.3937 37.6785 27.7313 37.5654 29.0594 C 37.4894 29.9571 38.1031 30.5556 37.6566 29.4555 C 37.25 28.4561 36.8178 27.6885 36.0587 26.9181 C 35.9637 26.8212 35.597 26.8345 35.7547 26.9941 C 36.7437 27.9944 37.4761 29.1487 37.4172 30.6326 C 37.4115 30.7817 37.7754 30.8739 37.7925 30.7323 C 37.9597 29.1458 38.0395 27.5574 38.1098 25.9643 C 38.1487 25.0523 38.7149 26.5257 38.8166 26.7091 C 39.0303 27.0615 39.2175 27.4282 39.3809 27.8073 C 39.4274 27.9051 39.7704 27.9811 39.7428 27.8187 C 39.3182 25.2945 39.1215 22.74 38.3587 20.2804 L 38.3587 20.2804 Z " stroke-width="0.949999988079071"/>
          <path id="ID0.16095514222979546" fill="#010101" d="M 23.6004 0.7 C 23.3477 0.7029 23.589 0.9309 23.741 0.9299 C 28.8729 0.8824 35.5552 4.0088 37.8818 8.8576 C 37.9407 8.9773 38.3159 9.0115 38.2323 8.8386 C 35.8203 3.8084 28.9499 0.6506 23.6004 0.7 L 23.6004 0.7 Z " stroke-width="0.949999988079071"/>
          <path id="ID0.12451788503676653" fill="#010101" d="M 14.1318 7.1647 C 14.1099 7.3158 14.4842 7.406 14.507 7.2654 C 15.2366 2.4622 19.7007 1.5645 23.7847 0.9242 C 24.0013 0.8891 23.6897 0.6867 23.5605 0.7067 C 19.4014 1.3584 14.8728 2.3017 14.1318 7.1647 L 14.1318 7.1647 Z " stroke-width="0.949999988079071"/>
          <path id="ID0.0286970566958189" fill="#010101" d="M 9.2583 28.9226 C 9.2079 29.0565 9.5775 29.1658 9.6316 29.0233 C 12.3743 21.8479 4.5159 9.0182 14.6001 5.9031 C 14.8158 5.8357 14.507 5.6447 14.3759 5.6856 C 4.1311 8.851 12.0038 21.7396 9.2583 28.9226 L 9.2583 28.9226 Z " stroke-width="0.949999988079071"/>
          <path id="ID0.4032960757613182" fill="#010101" d="M 19.58 18.1705 C 19.6152 18.0242 19.2409 17.9273 19.2067 18.0688 C 18.9891 18.9989 19.1915 19.8786 19.1991 20.8181 C 19.2086 22.1719 18.7459 23.5199 18.0581 24.6742 C 18.1769 24.7169 18.2975 24.7587 18.4163 24.8005 C 18.7763 23.8486 18.1588 22.7732 17.7057 21.9515 C 17.643 21.8337 17.2639 21.8042 17.357 21.9705 C 17.7893 22.7599 18.3906 23.784 18.0439 24.7008 C 17.9935 24.829 18.3403 24.9326 18.402 24.8271 C 18.9625 23.8914 19.4613 22.7618 19.5468 21.6608 C 19.6389 20.4932 19.3093 19.3238 19.58 18.1705 L 19.58 18.1705 Z " stroke-width="0.949999988079071"/>
        </g>
      </g>
    </g>
    <g id="Shoes">
      <path id="Shoe_Left" fill="#0B1938" d="M 35.0337 163.4711 C 35.5087 163.7827 36.2715 164.2463 36.7959 164.4819 C 37.687 164.879 38.6608 165.3777 39.568 165.6675 C 40.4145 165.9325 41.373 166.3021 42.2622 166.5187 C 42.6422 166.6137 43.8354 166.9718 44.2183 167.0288 C 44.8377 167.1219 44.4301 167.6729 44.5432 168.127 C 45.1445 170.5296 42.4247 171.5746 40.4297 171.6316 C 39.8825 171.6506 39.4208 171.5014 38.9049 171.3941 C 38.4945 171.3067 37.7212 171.5404 37.4543 171.2231 C 37.0163 170.6996 36.7959 169.6603 35.8193 169.3383 C 33.4291 168.5517 30.2381 167.9152 28.2564 167.5884 C 28.8691 166.8626 30.6941 166.2356 31.5538 165.7425 C 32.6292 165.1288 33.9896 163.9945 35.0337 163.4711 M 34.9301 171.7133 C 34.7981 171.4463 34.8304 171.0996 34.6736 170.8431 C 34.5159 170.5856 34.5397 170.5837 34.2955 170.4441 C 34.0913 170.3272 33.4833 170.2626 33.2562 170.1866 C 32.3138 169.8598 31.3173 169.6879 30.3578 169.3867 C 29.6253 169.1549 28.8957 169.0172 28.1386 168.8186 C 27.5135 168.6571 26.5891 168.4643 25.9621 168.6001 C 25.4149 168.7151 24.6511 169.0656 24.0878 169.0751 C 23.7676 170.5932 27.5135 170.3776 28.3001 170.4241 C 29.9844 170.5277 31.6118 171.4112 33.2857 171.623 C 33.8034 171.6895 34.2936 171.528 34.7924 171.5955 " stroke-width="0.949999988079071"/>
      <path id="Shoe_Trim_Left" fill="#A2C6DD" d="M 44.4083 167.1067 C 44.3522 167.2701 44.5641 167.6112 44.5308 167.8639 C 44.4881 168.1793 44.3731 168.4054 44.4396 168.7398 C 44.5603 169.3535 44.3836 169.7791 44.1033 170.313 C 43.8677 170.7566 43.0811 171.2041 42.6175 171.3618 C 41.7141 171.6677 40.6985 171.6012 39.7599 171.5508 C 39.3239 171.5252 38.8802 171.5024 38.4537 171.4596 C 38.2352 171.4397 37.8856 171.4891 37.6851 171.3988 C 37.5236 171.3285 37.5445 171.3038 37.4609 171.1281 C 37.1531 170.4859 36.8501 170.0299 36.3323 169.5235 C 36.0654 169.2642 35.883 169.2271 35.503 169.1245 C 35.0574 169.002 34.7553 169.0039 34.3079 168.8927 C 33.9127 168.7939 33.3816 168.5621 32.9703 168.5051 C 32.4858 168.4405 32.2407 168.3512 31.7609 168.2325 C 31.1824 168.0919 30.3673 167.956 29.7735 167.8952 C 29.3023 167.8449 28.7846 167.691 28.3229 167.691 C 28.035 167.6891 27.5524 167.8392 27.3301 167.9931 C 26.9074 168.2828 26.7383 168.4624 26.2376 168.5669 C 26.9967 168.6334 27.6389 168.6685 28.3865 168.8281 C 29.0487 168.9668 29.4353 169.1673 30.1155 169.3231 C 30.8318 169.4884 31.3847 169.7762 32.1153 169.8855 C 32.4193 169.9301 32.7945 170.0764 33.0985 170.1486 C 33.4291 170.2265 34.0229 170.3339 34.3098 170.5125 C 34.5435 170.6569 34.9225 171.4273 34.9092 171.6943 C 33.792 171.7503 32.6045 171.6297 31.5567 171.2383 C 30.8147 170.9637 29.6329 170.598 28.8739 170.4089 C 27.7016 170.1135 26.4504 170.4184 25.6306 170.2845 C 25.0853 170.1971 24.6635 170.16 24.2692 169.7629 C 24.0574 169.5492 24.0032 169.1435 23.6878 169.1502 C 23.4617 169.1559 23.0827 169.191 22.8765 169.2784 C 22.3683 169.4884 23.2214 170.0631 23.3686 170.4469 C 23.5453 170.902 23.4228 171.6867 23.8769 171.8425 C 24.3709 172.0097 25.0207 172.061 25.5565 171.9631 C 26.1797 171.8482 26.6119 171.8092 27.2617 171.7883 C 28.4511 171.7532 29.6424 172.4505 30.7701 172.8761 C 31.5453 173.1677 32.3433 173.4138 33.1004 173.7292 C 33.7331 173.9942 34.3934 174.0446 35.065 174.1453 C 35.9077 174.2735 36.6829 174.1586 37.535 174.2441 C 38.4347 174.3353 39.3866 174.4151 40.2957 174.341 C 41.1327 174.2745 42.1701 174.5433 42.9567 174.2023 C 43.235 174.0816 43.4554 174.0683 43.7271 173.9448 C 44.2506 173.7054 44.8367 173.4584 45.3763 173.2637 C 46.219 172.9597 46.3729 172.2377 46.6085 171.3874 C 46.8051 170.6844 46.7472 170.2408 46.6902 169.5872 C 46.6417 169.0561 46.4717 168.4367 46.2247 167.9133 C 46.1059 167.6606 45.8428 167.4516 45.6034 167.3195 C 45.4067 167.2141 44.47 166.8854 44.3788 167.101 " stroke-width="0.949999988079071"/>
      <path id="Shoe_Right" fill="#0B1938" d="M 22.1108 178.198 C 22.7065 178.2968 23.3173 178.7081 23.8294 179.0216 C 24.406 179.376 24.6758 179.7028 25.2059 180.0885 C 25.5289 180.3222 25.9089 180.7877 26.23 181.0328 C 26.5863 181.3016 26.9235 181.5781 27.3187 181.7956 C 28.0312 182.187 28.6972 182.055 29.4543 182.2184 C 29.7346 182.2792 30.011 182.4112 30.2447 182.5898 C 30.5269 182.8083 30.4765 183.0164 30.486 183.3612 C 30.4974 183.7137 30.5677 184.0329 30.373 184.3331 C 30.1412 184.6931 29.6291 185.2755 29.3061 185.5481 C 28.9347 185.8635 28.6478 185.8673 28.2782 186.1751 C 27.9372 186.4668 27.2874 186.9399 26.8532 187.0254 C 25.755 187.2439 25.5688 187.3389 24.4754 187.5973 C 23.6698 187.7825 22.2875 188.2148 21.4468 188.172 C 20.8701 188.1483 20.2517 187.9269 19.7045 187.7787 C 19.087 187.6115 18.6357 187.2923 18.118 186.9104 C 17.5841 186.5152 17.4853 186.1846 17.4254 185.5396 C 17.4055 185.2888 17.1528 184.9477 17.0302 184.7254 C 16.9115 184.505 16.8516 184.2286 16.6369 184.1184 C 16.1306 183.8571 15.5406 183.6918 15.0447 183.4116 C 14.4709 183.0867 13.956 182.7266 13.3623 182.4378 C 12.8018 182.1652 12.2783 181.7738 11.7131 181.5268 C 11.372 181.3805 11.1079 181.1259 11.049 180.705 C 11.0082 180.401 11.3036 180.2167 11.2884 179.8956 C 12.0959 180.1797 12.7723 180.7288 13.576 181.0499 C 13.919 181.1876 14.1992 181.3596 14.5745 181.4118 C 14.9953 181.4707 15.4637 181.4546 15.8456 181.2988 C 16.237 181.1411 16.5039 180.8475 16.9143 180.7088 C 17.4045 180.5435 17.8102 180.2652 18.2614 180.0448 C 19.2057 179.585 20.1614 179.0691 21.1266 178.6549 C 21.3119 178.5751 22.1783 178.3547 22.1716 178.1704 M 14.394 184.5829 C 14.3256 184.297 13.7689 184.1564 13.5181 184.0395 C 13.234 183.9094 13.0136 183.7374 12.759 183.5626 C 12.2688 183.2263 11.7777 182.8701 11.2485 182.5889 C 10.7602 182.3276 10.1313 182.2564 9.9204 181.713 C 9.8349 181.4945 9.8463 181.2636 9.7884 181.0195 C 9.738 180.7915 9.6212 180.5663 9.5661 180.3241 C 9.4416 179.7949 9.7428 179.3722 10.0154 178.9342 C 9.6278 178.6378 9.1842 178.3481 8.7111 178.2046 C 8.3586 178.1011 8.1639 178.2246 8.1135 178.5609 C 8.0727 178.8335 7.8855 178.9428 7.724 179.1746 C 7.5568 179.4159 7.7183 179.6087 7.6832 179.9203 C 7.6461 180.2433 7.7022 180.5749 7.7145 180.8941 C 7.7383 181.4764 7.3431 182.187 7.8295 182.5917 C 8.3007 182.985 8.9201 183.3337 9.377 183.7365 C 9.967 184.2599 10.6149 184.7197 11.316 185.0627 C 11.6836 185.2422 12.1254 185.1719 12.5149 185.3059 C 12.9471 185.4579 13.5038 185.7229 13.9807 185.6422 C 14.2163 185.6013 14.3588 185.4731 14.4282 185.2232 C 14.469 185.0712 14.4728 184.6038 14.3351 184.5573 " stroke-width="0.949999988079071"/>
      <path id="Shoe_Trim_Right" fill="#A2C6DD" d="M 30.3207 182.529 C 31.1092 182.7124 30.5915 184.0006 30.3426 184.4034 C 30.0832 184.8261 29.9939 185.1396 29.5636 185.4351 C 29.309 185.608 29.176 185.8635 28.9423 186.0697 C 28.6753 186.3053 28.3818 186.2701 28.0217 186.4297 C 26.9786 186.8895 25.6876 187.4538 24.5799 187.7246 C 23.8693 187.8994 23.0342 188.0495 22.3046 188.1179 C 20.8369 188.2566 19.8631 188.0067 18.555 187.2676 C 17.5974 186.7261 17.5366 185.6963 17.1727 184.7938 C 16.9799 184.3226 16.4735 184.2257 16.0441 183.9721 C 15.4228 183.6025 14.831 183.2073 14.1983 182.8511 C 13.5399 182.4796 12.9291 182.2687 12.2555 181.9106 C 11.7216 181.6227 11.0566 181.3301 11.1516 180.6262 C 11.183 180.3925 11.4784 179.9507 11.4091 179.8044 C 11.3445 179.66 10.9151 179.5688 10.7802 179.5023 C 10.6339 179.4301 10.3983 179.1907 10.2368 179.1774 C 9.7969 179.1461 9.6668 180.0239 9.6725 180.3849 C 9.6763 180.8428 9.9252 181.3833 10.1085 181.7947 C 10.2349 182.0768 10.309 182.2212 10.5636 182.3732 C 10.9084 182.5794 11.2153 182.8368 11.5696 183.0173 C 12.1415 183.3052 12.6251 183.6595 13.1742 183.9844 C 13.5884 184.2314 14.2876 184.5506 14.412 185.0237 C 14.4624 185.2242 14.5735 185.532 14.356 185.6412 C 14.204 185.7191 13.7014 185.5804 13.5048 185.5804 C 12.8502 185.5804 12.1463 185.3486 11.5715 185.0703 C 10.8353 184.7121 10.1522 184.4005 9.5119 183.8809 C 9.0094 183.4686 8.3054 182.8102 7.8276 182.5936 C 7.7867 182.8387 7.9169 183.1114 7.9815 183.3451 C 8.0537 183.6063 8.0651 183.8258 8.0651 184.1003 C 8.0651 184.6751 8.2057 185.0693 8.618 185.4845 C 9.3438 186.2245 10.6367 186.4497 11.6333 186.6159 C 12.6498 186.7869 13.6739 187.147 14.6628 187.4956 C 15.3174 187.7217 15.837 188.0485 16.4479 188.3715 C 17.092 188.7164 17.5318 189.1505 18.1009 189.5685 C 18.3868 189.7804 18.6813 189.9485 18.9511 190.1813 C 19.1592 190.3646 19.3539 190.4055 19.6152 190.5157 C 19.9543 190.6582 20.3315 190.8643 20.6706 190.9755 C 20.9214 191.0553 21.1494 191.1721 21.4002 191.2111 C 22.0681 191.3165 22.7673 191.1408 23.4323 191.1199 C 24.3918 191.0866 25.2449 190.7522 26.1436 190.4169 C 26.9986 190.0939 27.7909 189.8564 28.606 189.4241 C 28.9774 189.2256 29.5693 189.0622 29.9008 188.799 C 30.2371 188.534 30.7967 188.0419 31.1738 187.8452 C 32.5874 187.0976 33.8053 185.8844 33.4063 184.1953 C 33.2657 183.5997 32.7755 183.0971 32.1951 182.9043 C 31.6403 182.7171 30.8261 182.4426 30.2324 182.472 " stroke-width="0.949999988079071"/>
      <g id="Shoe_Right_Lines">
        <g id="ID0.805455737747252">
          <path id="ID0.00972522096708417" fill="#010101" d="M 8.6265 178.501 C 8.7377 178.3215 8.2532 178.16 8.1648 178.3101 C 6.699 180.7183 6.8804 185.741 10.2092 186.4839 C 12.4579 186.9826 15.286 187.5764 17.1395 188.9016 C 17.0711 188.8494 19.3435 190.6867 19.904 190.9242 C 21.4287 191.5759 23.1197 191.4324 24.6958 191.004 C 27.4755 190.2449 36.0464 187.3465 32.8753 183.2035 C 32.1799 182.2925 30.2552 182.4521 29.3907 182.3143 C 26.743 181.8935 25.0169 179.3655 22.6495 178.2968 C 22.4253 178.197 22.1355 178.3709 22.4509 178.5124 C 24.3557 179.3693 26.1122 182.0692 28.2868 182.4112 C 29.0639 182.5651 29.8476 182.6582 30.6399 182.6915 C 32.9332 184.7064 33.2059 186.2673 31.456 187.3636 C 29.4372 188.9501 26.9473 190.2639 24.3937 190.7237 C 20.2659 191.4714 17.301 188.2727 13.7328 187.146 C 9.7513 185.8892 5.8193 183.1152 8.6265 178.501 L 8.6265 178.501 Z " stroke-width="0.949999988079071"/>
          <path id="ID0.3988698124885559" fill="#010101" d="M 14.3009 185.7742 C 14.6381 185.7685 14.3009 185.4807 14.1118 185.4845 C 11.6922 185.5272 9.5347 184.0006 7.9558 182.3267 C 7.839 182.2022 7.3507 182.1984 7.553 182.4141 C 9.282 184.2485 11.6789 185.8208 14.3009 185.7742 L 14.3009 185.7742 Z " stroke-width="0.949999988079071"/>
          <path id="ID0.4998235604725778" fill="#010101" d="M 29.9968 182.4065 C 29.6985 182.3343 29.6253 182.5879 29.9265 182.6639 C 30.999 182.9233 29.7203 184.772 29.4961 185.0351 C 28.7646 185.8958 27.6151 186.5048 26.5511 186.8743 C 23.2613 188.021 18.0904 189.0432 17.2715 184.4718 C 17.244 184.2989 16.7386 184.2143 16.7766 184.4129 C 17.1091 186.2758 17.5356 187.2439 19.4651 187.8376 C 21.7194 188.5349 23.9082 188.0732 26.1227 187.4073 C 27.8726 186.8819 29.954 185.9338 30.6466 184.0899 C 30.9838 183.1817 30.9591 182.6383 29.9968 182.4065 L 29.9968 182.4065 Z " stroke-width="0.949999988079071"/>
          <path id="ID0.051066906191408634" fill="#010101" d="M 11.3492 181.1857 C 11.1269 181.0727 10.8429 181.2437 11.1507 181.3995 C 12.2327 181.9448 13.2663 182.5575 14.3142 183.1608 C 15.0827 183.6025 16.0289 183.9787 16.7091 184.543 C 16.8374 184.6466 17.3323 184.6399 17.11 184.4556 C 16.275 183.7631 15.1901 183.3327 14.2543 182.7912 C 13.2958 182.2336 12.3401 181.6845 11.3492 181.1857 L 11.3492 181.1857 Z " stroke-width="0.949999988079071"/>
          <path id="ID0.29027328873053193" fill="#010101" d="M 10.308 182.1101 C 10.1408 182.0189 9.7029 182.1025 9.9983 182.264 C 11.4347 183.0601 12.8265 183.9284 14.2144 184.8062 C 14.3778 184.9097 14.8101 184.8318 14.526 184.6523 C 13.1381 183.7735 11.7463 182.9052 10.308 182.1101 L 10.308 182.1101 Z " stroke-width="0.949999988079071"/>
          <path id="ID0.8385372925549746" fill="#010101" d="M 9.891 182.2526 C 9.967 182.3989 10.4676 182.453 10.3565 182.2355 C 9.9442 181.4356 9.644 180.0533 10.2102 179.2648 C 10.3308 179.0957 9.8482 178.9276 9.7485 179.0682 C 9.1262 179.9365 9.4397 181.3748 9.891 182.2526 L 9.891 182.2526 Z " stroke-width="0.949999988079071"/>
          <path id="ID0.5103147840127349" fill="#010101" d="M 11.0129 181.2693 C 11.0709 181.4403 11.5696 181.5068 11.5098 181.3282 C 11.3635 180.8846 11.3986 180.4675 11.5582 180.0334 C 11.6209 179.8662 11.1279 179.7199 11.0614 179.8994 C 10.8923 180.3564 10.8571 180.8019 11.0129 181.2693 L 11.0129 181.2693 Z " stroke-width="0.949999988079071"/>
          <path id="ID0.5206834953278303" fill="#010101" d="M 14.1394 185.6317 C 14.1432 185.8008 14.6419 185.9044 14.6362 185.6925 C 14.6305 185.4066 14.5992 185.1187 14.6581 184.8337 C 14.7027 184.6485 14.203 184.5202 14.1631 184.6979 C 14.0947 185.0038 14.1318 185.3211 14.1394 185.6317 L 14.1394 185.6317 Z " stroke-width="0.949999988079071"/>
        </g>
      </g>
      <g id="Shoe_Left_Lines">
        <g id="ID0.3930317051708698">
          <path id="ID0.36537556536495686" fill="#010101" d="M 23.5577 171.4501 C 23.4779 171.396 22.981 171.3162 23.1815 171.4463 C 23.4541 171.623 23.874 172.0163 24.2835 172.06 C 26.7221 172.3308 28.9138 172.1028 31.3296 173.1031 C 34.3449 174.3467 37.8295 174.5395 41.0538 174.3647 C 43.616 174.2327 48.2377 173.1145 47.1471 169.4295 C 46.9799 168.8633 46.7795 167.4981 46.086 167.2587 C 42.3876 165.9724 38.8346 165.5649 35.3519 163.5775 C 35.2721 163.5309 34.7715 163.4587 34.9767 163.5756 C 37.1256 164.802 39.3875 165.8261 41.7901 166.4569 C 42.8902 166.7448 45.9796 167.0412 46.3453 168.2771 C 46.9761 170.4032 46.5515 172.858 44.0872 173.6304 C 38.8137 175.2758 33.5944 173.1592 28.5718 171.814 C 27.0185 171.3941 24.9067 172.3317 23.5577 171.4501 L 23.5577 171.4501 Z " stroke-width="0.949999988079071"/>
          <path id="ID0.9793007900007069" fill="#010101" d="M 44.8472 167.14 C 44.8339 167.0022 44.3446 166.9604 44.3484 167.0079 C 44.4862 168.5555 44.5764 170.2313 42.8607 171.0065 C 41.1403 171.7836 39.3077 171.3143 37.5056 171.2326 C 37.2719 171.2212 37.7393 171.414 37.8324 171.4178 C 39.4407 171.4919 41.4139 172.0353 42.9643 171.3342 C 44.8567 170.4792 45.0163 169.0267 44.8472 167.14 L 44.8472 167.14 Z " stroke-width="0.949999988079071"/>
          <path id="ID0.12077416619285941" fill="#010101" d="M 36.4112 169.3202 C 36.3219 169.2072 35.9029 169.2034 35.921 169.2252 C 36.4501 169.8893 37.003 170.5372 37.4239 171.2753 C 37.4923 171.396 37.9397 171.4178 37.9141 171.3741 C 37.4923 170.6312 36.9394 169.9862 36.4112 169.3202 L 36.4112 169.3202 Z " stroke-width="0.949999988079071"/>
          <path id="ID0.4060809356160462" fill="#010101" d="M 28.0151 167.5703 C 27.6921 167.5314 28.1205 167.7375 28.2355 167.7489 C 30.8926 168.0719 33.64 168.6077 36.1917 169.3924 C 36.3732 169.4447 36.7 169.4057 36.3589 169.3031 C 33.6628 168.4738 30.8147 167.9076 28.0151 167.5703 L 28.0151 167.5703 Z " stroke-width="0.949999988079071"/>
          <path id="ID0.03009743755683303" fill="#010101" d="M 25.9574 168.4111 C 25.7199 168.4149 26.1892 168.5982 26.2842 168.5963 C 28.9062 168.5536 31.7543 169.8893 34.2794 170.5115 C 34.5672 170.5837 34.6043 170.4536 34.3145 170.3814 C 31.6811 169.7335 28.7086 168.3664 25.9574 168.4111 L 25.9574 168.4111 Z " stroke-width="0.949999988079071"/>
          <path id="ID0.1507524475455284" fill="#010101" d="M 35.1619 171.7095 C 35.2731 171.7019 34.8617 171.5223 34.7477 171.5309 C 32.6397 171.7057 30.5307 170.6683 28.5005 170.2655 C 27.2997 170.028 24.8079 170.6455 24.3842 169.1768 C 24.349 169.0599 23.8712 169.0001 23.894 169.0799 C 24.2578 170.3415 26.2509 170.3548 27.294 170.3747 C 29.9759 170.4298 32.4753 171.9308 35.1619 171.7095 L 35.1619 171.7095 Z " stroke-width="0.949999988079071"/>
          <path id="ID0.33529303036630154" fill="#010101" d="M 34.6869 170.4944 C 34.6109 170.3776 34.1749 170.3643 34.1967 170.3994 C 34.4475 170.7813 34.609 171.2069 34.8199 171.6088 C 34.8826 171.7294 35.3358 171.7532 35.3101 171.7038 C 35.1011 171.3038 34.9377 170.8744 34.6869 170.4944 L 34.6869 170.4944 Z " stroke-width="0.949999988079071"/>
        </g>
      </g>
    </g>
    <g id="Eyes">
      <path id="Eye_Whites" fill="#F5F6F6" d="M 27.5486 23.8059 C 28.016 24.5792 25.8529 24.9335 25.4111 24.9012 C 24.464 24.8347 23.2014 24.5165 22.5412 23.8002 C 22.1203 23.3461 21.7802 22.6982 22.1536 22.0693 C 22.5155 21.4527 23.6527 21.5601 24.2616 21.6237 C 25.6543 21.77 26.6936 22.5424 27.56 23.6928 M 31.9785 24.8604 C 31.455 24.6305 31.246 25.6945 31.5405 25.9348 C 31.7704 26.1248 32.4183 26.2521 32.728 26.2806 C 33.4329 26.3443 34.5558 25.9633 35.0793 25.4693 C 35.5562 25.02 35.7044 24.3968 35.0831 23.861 C 34.5748 23.423 33.8101 23.4012 33.2201 23.6007 C 32.8487 23.7251 31.8322 24.3607 31.7932 24.7958 " stroke-width="0.949999988079071"/>
      <path id="Left_Iris" fill="#33512E" d="M 33.7388 23.7061 C 33.7388 25.6508 32.6121 25.343 31.7809 25.114 C 30.9772 24.8927 32.4411 24.7635 32.3784 24.0852 C 32.8297 23.7109 32.7974 23.6624 33.2486 23.7337 " stroke-width="0.949999988079071"/>
      <path id="Right_Iris" fill="#33512E" d="M 25.2002 21.8745 C 25.3712 22.0265 25.3266 22.4274 25.2021 22.626 C 25.0273 22.9081 24.3756 23.4297 23.9966 23.4097 C 23.3259 23.3736 23.2822 23.3622 22.8604 23.043 C 22.4671 22.7485 22.2999 22.6915 22.1536 22.0702 C 22.0586 21.6836 22.7901 20.5768 25.2002 21.8745 " stroke-width="0.949999988079071"/>
      <g id="Eye_Lines">
        <g id="ID0.7769623710773885">
          <path id="ID0.6697850325144827" fill="#010101" d="M 27.2351 24.1735 C 27.2522 24.3977 27.7586 24.4709 27.7415 24.2125 C 27.6037 22.3353 22.2229 19.7152 21.7261 22.2317 C 21.2663 24.5592 26.1702 26.0051 27.5135 24.3939 C 27.6769 24.1992 27.2019 24.0016 27.0584 24.1754 C 26.04 25.3952 21.5845 24.184 22.2229 22.3647 C 22.9069 20.4182 27.1221 22.6079 27.2351 24.1735 L 27.2351 24.1735 Z " stroke-width="0.949999988079071"/>
          <path id="ID0.2517737289890647" fill="#010101" d="M 31.1007 25.5814 C 31.0731 25.8208 31.5738 25.9424 31.5975 25.7154 C 31.7011 24.8281 32.4772 24.1963 33.2857 23.9237 C 33.9165 23.7109 35.3263 23.4943 35.3101 24.5592 C 35.2883 25.9586 32.3746 26.4326 31.5567 25.5748 C 31.4047 25.4142 30.924 25.494 31.1406 25.7211 C 32.2055 26.8383 36.2763 26.4117 35.768 24.3474 C 35.5286 23.3746 34.2841 23.2615 33.4823 23.4506 C 32.4231 23.7004 31.2394 24.4006 31.1007 25.5814 L 31.1007 25.5814 Z " stroke-width="0.949999988079071"/>
        </g>
      </g>
      <g id="Iris_Lines">
        <g id="ID0.33216363098472357">
          <path id="ID0.5463177780620754" fill="#010101" d="M 31.8312 25.0637 C 31.7182 25.0162 31.5738 25.0988 31.7324 25.1672 C 32.2445 25.3867 32.9494 25.5881 33.4491 25.2166 C 33.8775 24.8984 34.0134 24.3607 33.9222 23.8524 C 33.907 23.7669 33.6552 23.7242 33.6733 23.8211 C 33.736 24.1745 33.6932 24.5982 33.4576 24.887 C 33.0339 25.4114 32.3974 25.305 31.8312 25.0637 L 31.8312 25.0637 Z " stroke-width="0.949999988079071"/>
          <path id="ID0.3722339170053601" fill="#010101" d="M 25.4966 22.0512 C 25.5166 21.961 25.2667 21.8973 25.2477 21.9847 C 25.1309 22.5082 24.8079 23.0364 24.2863 23.2406 C 23.3354 23.6149 22.6618 22.8397 22.2695 22.0674 C 22.2324 21.9942 21.9797 21.9657 22.0377 22.0731 C 22.4329 22.8549 23.0542 23.5285 23.9899 23.4876 C 24.7689 23.4534 25.3389 22.7628 25.4966 22.0512 L 25.4966 22.0512 Z " stroke-width="0.949999988079071"/>
        </g>
      </g>
    </g>
    <g id="Pants">
      <path id="Pants_2_" fill="#244764" d="M 22.6362 168.9896 C 22.7103 169.0067 22.7806 168.9801 22.8585 169.001 C 22.8756 169.7192 23.0941 170.3443 23.3221 170.9571 C 23.5795 171.6525 23.5358 172.2073 23.6451 172.9701 C 23.7467 173.6788 23.9225 174.3733 24.0384 175.0801 C 24.1448 175.7318 24.5865 176.1707 24.7632 176.7739 C 25.0891 177.9073 22.6865 177.9595 21.7774 178.3775 C 20.3248 179.0359 18.8476 179.9023 17.3874 180.5131 C 16.1629 181.0233 15.0903 181.8004 13.9123 181.2294 C 12.3724 180.4856 12.5301 180.6005 10.879 179.4244 C 9.1091 178.4668 8.6322 178.6131 7.7487 177.0903 C 7.2737 176.2723 7.4162 175.7508 7.496 174.8492 C 7.611 173.562 7.5521 172.3422 7.8133 171.1081 C 8.0527 169.9748 8.674 168.8737 9.0749 167.7461 C 9.472 166.6289 9.6516 165.5364 9.53 164.2358 C 9.4131 163.0094 9.0996 161.9625 9.0474 160.6771 C 8.9505 158.1872 9.207 155.5633 9.3514 153.1569 C 9.5091 150.5682 9.8672 148.1105 10.2453 145.5864 C 10.4382 144.3058 10.5408 143.143 10.7146 141.8348 C 10.8856 140.5381 11.3198 139.4304 11.4566 137.9588 C 11.5088 137.3803 11.3141 136.8084 11.4452 136.1852 C 11.5839 135.5059 12.0199 135.0053 12.4284 134.5094 C 13.31 133.4368 13.1115 132.1515 13.1115 130.8186 C 13.1115 129.3414 13.0763 127.9553 12.9519 126.4676 C 12.816 124.8032 12.6697 123.135 12.4028 121.3424 C 12.0247 118.8211 12.0598 116.3843 12.2764 113.8013 C 12.5101 113.4897 12.6403 113.3947 13.1656 113.5695 C 13.6254 113.7234 14.2733 113.3928 14.7312 113.5695 C 15.3193 113.7937 15.1131 114.9128 16.6626 113.9086 C 17.4254 113.4137 15.438 108.8119 15.9615 108.8394 C 15.8522 109.1605 15.8874 105.5458 15.6271 105.3358 C 13.3129 103.4881 11.9696 99.4135 12.2831 99.5817 C 12.3315 99.6406 14.8899 101.0656 17.681 101.6413 C 18.7108 101.5558 19.809 101.9196 20.8388 101.8142 C 22.3863 101.6527 22.5184 101.4836 23.989 101.076 C 27.2142 100.1868 34.6176 94.0242 37.6832 93.2499 C 38.466 93.0514 39.2137 107.0335 37.4419 111.1698 C 37.1522 111.849 37.1854 113.0508 37.0657 113.6654 C 36.9061 114.4872 36.7969 115.421 36.756 116.2428 C 36.6857 117.7162 36.8225 119.2334 36.6705 120.6698 C 36.5014 122.2506 36.2088 123.5996 36.3665 125.1338 C 36.5052 126.4619 36.1309 127.7834 36.1309 129.1153 C 36.1328 130.4215 35.882 131.8152 35.8858 133.1338 C 35.8991 138.3198 34.8617 143.4109 35.1154 148.5266 C 35.1781 149.7626 35.4697 151.0869 35.351 152.2915 C 35.2265 153.5474 34.5311 154.6475 34.1635 155.8654 C 33.7901 157.0975 33.9184 158.3069 34.3582 159.4668 C 34.7344 160.4634 35.6939 161.4314 35.4289 162.5933 C 35.2132 163.5338 34.0058 164.1855 33.2429 164.7384 C 32.1609 165.5269 30.3426 166.4617 29.1627 167.0507 C 26.9397 168.1603 25.4425 169.1549 22.8613 169.173 " stroke-width="0.949999988079071"/>
      <g id="Pants_Lines">
        <g id="ID0.521418830845505">
          <path id="ID0.45028172666206956" fill="#010101" d="M 33.0748 105.5144 C 33.2676 105.4498 32.8154 105.238 32.6758 105.2864 C 31.8018 105.5866 30.7891 105.8023 30.1431 106.5167 C 29.137 107.6263 28.7219 109.2185 28.2991 110.615 C 28.2526 110.7689 28.7485 110.9085 28.7979 110.7489 C 29.2045 109.3999 29.6139 107.5949 30.7093 106.6003 C 31.3733 105.998 32.2473 105.7975 33.0748 105.5144 L 33.0748 105.5144 Z " stroke-width="0.949999988079071"/>
          <path id="ID0.6126202144660056" fill="#010101" d="M 30.6418 106.8663 C 30.657 106.6896 30.1554 106.5879 30.145 106.7323 C 29.7612 111.7664 29.0278 117.2545 27.4717 122.0729 C 26.4086 125.3685 24.2303 129.2274 24.2303 132.7329 C 24.2303 132.9143 24.7281 133.0036 24.7281 132.8668 C 24.7281 128.7495 27.5287 124.7044 28.3799 120.7192 C 29.3603 116.1497 30.2856 111.5336 30.6418 106.8663 L 30.6418 106.8663 Z " stroke-width="0.949999988079071"/>
          <path id="ID0.35208251606673" fill="#010101" d="M 12.607 113.2379 C 12.627 113.0631 12.1263 112.9558 12.1121 113.1021 C 11.5402 117.93 12.4493 122.1879 12.741 126.9702 C 12.9585 130.4899 12.8265 132.1078 11.6 135.1307 C 10.8676 136.9338 10.6947 139.8417 10.5683 141.8082 C 10.555 141.9868 11.0547 142.0866 11.0652 141.9422 C 11.2077 139.6954 11.4024 136.2697 12.6773 134.4239 C 13.5105 133.2212 13.4402 131.5425 13.3898 130.1688 C 13.1799 124.4489 11.9297 118.975 12.607 113.2379 L 12.607 113.2379 Z " stroke-width="0.949999988079071"/>
          <path id="ID0.4035844667814672" fill="#010101" d="M 25.9517 127.7368 C 25.9422 127.5886 25.4453 127.4803 25.4548 127.6684 C 25.566 129.9788 26.5844 132.3557 26.3716 134.6709 C 26.1673 136.9053 25.4862 139.0494 25.4548 141.3009 C 25.451 141.4805 25.9498 141.5736 25.9517 141.4349 C 25.9887 138.8803 26.8865 136.4607 26.8589 133.9014 C 26.8342 131.8304 26.0495 129.8173 25.9517 127.7368 L 25.9517 127.7368 Z " stroke-width="0.949999988079071"/>
          <path id="ID0.3998723579570651" fill="#010101" d="M 38.0252 93.0694 C 38.0081 92.9155 37.5113 92.8167 37.5303 93.001 C 37.9606 97.2029 38.6418 101.5007 38.1848 105.7291 C 37.764 109.626 36.509 113.3016 36.3352 117.2365 C 36.3276 117.416 36.8273 117.511 36.8339 117.3704 C 37.0515 112.3962 38.8954 107.746 38.7881 102.7252 C 38.7168 99.4838 38.3549 96.2966 38.0252 93.0694 L 38.0252 93.0694 Z " stroke-width="0.949999988079071"/>
          <path id="ID0.08060981752350926" fill="#010101" d="M 35.8469 152.1642 C 35.9058 152.0283 35.4203 151.8706 35.3481 152.0321 C 34.3069 154.3102 33.9013 157.2334 32.2416 159.1533 C 30.4955 161.1721 29.119 161.99 26.3231 162.1183 C 25.9887 162.1316 26.3488 162.3852 26.5236 162.3776 C 29.2216 162.2551 30.7112 161.6461 32.4516 159.6312 C 34.2718 157.525 34.6983 154.675 35.8469 152.1642 L 35.8469 152.1642 Z " stroke-width="0.949999988079071"/>
          <path id="ID0.26791228353977203" fill="#010101" d="M 35.3472 152.5442 C 35.3823 152.7 35.883 152.7817 35.844 152.6126 C 34.3098 145.822 35.6284 137.4981 36.187 130.5973 C 36.586 125.6801 36.6914 120.7952 36.8938 115.8685 C 36.9014 115.6889 36.4017 115.5939 36.3969 115.7326 C 36.1442 121.8801 35.8108 127.9753 35.4061 134.117 C 35.0175 140.007 34.0362 146.733 35.3472 152.5442 L 35.3472 152.5442 Z " stroke-width="0.949999988079071"/>
          <path id="ID0.2938264459371567" fill="#010101" d="M 33.8908 157.3654 C 33.8557 157.2096 33.3569 157.1279 33.3959 157.297 C 33.6144 158.2565 33.7246 159.5362 34.3069 160.3589 C 35.8896 162.5952 34.8655 163.7114 32.709 164.84 C 29.4173 166.5671 26.4694 168.9165 22.6096 169.0951 C 22.2733 169.1103 22.6333 169.3639 22.8081 169.3544 C 27.029 169.1559 30.8166 166.4845 34.3402 164.3669 C 35.5856 163.6155 36.1385 162.6693 35.4593 161.344 C 34.7449 159.9475 34.2471 158.913 33.8908 157.3654 L 33.8908 157.3654 Z " stroke-width="0.949999988079071"/>
          <path id="ID0.02239962900057435" fill="#010101" d="M 10.707 170.9694 C 10.727 171.1214 11.2267 171.2164 11.202 171.0378 C 10.48 165.5734 8.7101 160.9963 9.5414 155.3296 C 10.1959 150.8598 9.9423 146.1336 11.0443 141.7237 C 11.0851 141.5641 10.5883 141.4301 10.5474 141.5878 C 9.3542 146.3597 9.1129 151.9286 8.7472 156.8173 C 8.3767 161.7867 10.0686 166.1358 10.707 170.9694 L 10.707 170.9694 Z " stroke-width="0.949999988079071"/>
          <path id="ID0.4201449337415397" fill="#010101" d="M 25.1261 176.8119 C 25.1062 176.658 24.6084 176.5611 24.6274 176.7378 C 24.7423 177.6688 20.5614 178.6711 19.8584 179.0093 C 18.6262 179.6011 17.452 180.3953 16.1971 180.9292 C 14.1223 181.8127 12.7771 180.5844 11.2523 179.6401 C 9.2079 178.3709 7.2984 177.3895 7.573 174.5471 C 7.686 173.391 7.857 172.2833 8.1857 171.1613 C 8.8165 169.0086 9.7608 167.0421 9.7836 164.7678 C 9.7855 164.5845 9.2887 164.4952 9.2868 164.6339 C 9.2478 168.5431 5.8649 172.7146 7.3051 176.678 C 7.8836 178.274 8.3463 178.1571 9.9214 179.1328 C 11.163 179.9032 12.5947 181.1382 14.0235 181.5211 C 16.5172 182.1889 19.0129 179.6638 21.2026 178.8345 C 22.0567 178.5086 25.2943 178.2018 25.1261 176.8119 L 25.1261 176.8119 Z " stroke-width="0.949999988079071"/>
          <path id="ID0.9555845097638667" fill="#010101" d="M 25.8386 141.2468 C 25.8367 141.0653 25.3399 140.9798 25.3418 141.1128 C 25.3826 143.6959 25.6904 146.3397 25.3883 148.9095 C 25.0748 151.5628 24.027 153.4571 23.1948 155.9138 C 22.3749 158.3411 22.9886 159.0982 23.514 161.4951 C 24.1856 164.5588 22.5013 165.544 21.2264 167.8496 C 21.1599 167.9703 21.6387 168.1413 21.7251 167.9836 C 22.8034 166.0294 24.0602 165.315 24.3357 163.0778 C 24.6359 160.6249 22.4196 158.76 23.6945 156.0497 C 26.0315 151.0679 25.9222 146.6333 25.8386 141.2468 L 25.8386 141.2468 Z " stroke-width="0.949999988079071"/>
          <path id="ID0.4508976424112916" fill="#010101" d="M 20.8549 165.6124 C 20.8749 165.4376 20.3742 165.3302 20.3581 165.4784 C 20.1111 167.5827 22.3284 168.1375 22.811 169.9387 C 23.4608 172.3507 23.5624 174.683 24.6312 176.9801 C 24.7005 177.1302 25.1879 177.1843 25.1271 177.0485 C 24.6103 175.9351 24.1657 174.8815 23.9852 173.6589 C 23.8189 172.5198 23.8018 171.0616 23.3088 170.0071 C 22.5839 168.4757 20.6336 167.4848 20.8549 165.6124 L 20.8549 165.6124 Z " stroke-width="0.949999988079071"/>
        </g>
      </g>
    </g>
    <g id="Shirt">
      <path id="Shirt_2_" fill="#555D7B" d="M 14.6866 36.9786 C 13.3917 37.4488 13.8534 37.7851 14.3911 38.4283 C 15.0903 39.2614 16.2579 40.6712 16.6977 41.683 C 17.1841 42.8021 18.4286 43.9335 18.878 45.0669 C 19.3045 46.1404 20.6668 46.7759 21.2701 47.7782 C 22.0776 49.1158 23.1815 49.1063 24.8126 49.2678 C 26.3488 49.4207 27.8184 47.3649 28.1243 46.1793 C 28.4825 44.7866 28.0132 45.3642 27.5068 44.1634 C 27.2883 43.6447 25.9707 41.4711 25.6325 40.9762 C 25.2449 40.409 24.653 40.2152 24.1904 39.2975 C 24.654 37.8478 28.8444 39.8941 29.7612 40.6209 C 31.6536 42.1219 34.3202 43.2581 34.61 45.8402 C 34.7506 47.1132 36.2183 49.302 36.8529 50.0544 C 37.6623 51.0177 38.1981 51.1773 38.8869 52.2223 C 39.5025 53.1561 39.0227 51.943 39.664 52.9813 C 40.2406 53.9133 39.0142 56.1439 39.0351 59.8441 C 39.0389 60.473 36.8643 62.2828 35.9419 62.8091 C 35.4061 63.115 34.3725 63.3914 33.7749 63.4883 C 32.9551 63.6185 32.2587 63.1634 32.3518 64.4659 C 32.4573 65.9251 32.1105 66.9919 32.5466 68.0493 C 33.0719 69.3204 32.8449 70.5202 33.0624 71.8692 C 33.1698 72.5247 33.3968 73.1365 33.5821 73.7825 C 33.8025 74.5425 34.1872 75.1534 34.3801 75.8488 C 34.553 76.4634 34.4798 77.0363 34.6974 77.6158 C 34.9216 78.2228 35.2892 78.7833 35.56 79.3809 C 36.111 80.5864 36.8814 81.4766 37.2595 82.7695 C 37.4448 83.4003 37.7602 83.9665 37.6585 84.6809 C 37.5768 85.2709 37.1446 85.8314 37.1018 86.4299 C 37.0068 87.739 37.8086 88.7887 38.1316 89.8508 C 38.3473 90.5633 38.4841 91.1732 38.3634 91.8097 C 38.1924 92.6999 38.0946 92.7274 37.2595 93.2547 C 36.0644 94.0099 35.1648 94.4792 34.0162 95.2915 C 32.7727 96.1693 31.4598 97.1364 30.1516 97.8973 C 28.9271 98.6079 27.4517 99.3499 26.1996 100.0215 C 25.1955 100.5611 23.4883 101.4076 22.3825 101.5463 C 19.7235 101.8835 17.6914 102.198 15.3962 101.0912 C 14.0824 100.4566 12.4037 100.1431 12.0209 98.5994 C 11.7074 97.3378 11.4015 95.89 11.4015 94.5429 C 11.4053 91.2901 11.1212 88.0202 11.3236 84.7588 C 11.4794 82.2176 11.8784 79.3001 10.8391 76.8529 C 10.327 75.6521 10.0952 74.8294 10.366 73.4643 C 10.6206 72.158 10.8277 70.6371 11.258 69.4049 C 12.0779 67.067 12.8759 64.5713 13.3737 62.1726 C 12.4816 62.62 10.8799 62.7967 9.8701 62.8927 C 8.7548 62.9972 7.5882 62.6514 6.5413 62.2391 C 5.3908 61.784 4.3924 61.1304 3.3626 60.4141 C 2.6852 59.9448 0.7577 58.3536 0.9116 57.548 C 1.0189 56.958 1.8853 56.5885 2.1029 55.9482 C 2.309 55.3582 2.6016 54.7293 2.804 54.1261 C 3.203 52.9386 3.8205 51.8765 3.9326 50.5702 C 4.1568 47.9843 4.1682 48.6322 4.7306 45.9722 C 5.0089 44.6555 6.1204 41.5889 6.8662 40.4195 C 7.7231 39.0743 8.5695 38.2136 9.8606 37.7585 C 12.0798 36.9767 11.0633 37.617 13.3784 36.9767 " stroke-width="0.949999988079071"/>
      <g id="Shirt_Lines">
        <g id="ID0.6298563573509455">
          <path id="ID0.3166353008709848" fill="#010101" d="M 39.4312 52.9623 C 39.511 53.0554 39.9898 53.12 39.8844 52.9956 C 37.858 50.6225 35.9381 48.9429 34.8579 45.9048 C 34.077 43.7065 33.0634 42.6909 31.2375 41.3657 C 29.3042 39.9635 26.9663 39.3099 24.7024 38.6164 C 24.4127 38.5271 24.3728 38.6895 24.6587 38.7779 C 27.6997 39.7108 32.292 40.9505 33.698 44.1406 C 34.4219 45.7813 34.7515 47.7373 35.8944 49.1623 C 36.9821 50.5161 38.3055 51.6409 39.4312 52.9623 L 39.4312 52.9623 Z " stroke-width="0.949999988079071"/>
          <path id="ID0.9185628267005086" fill="#010101" d="M 39.3904 59.8251 C 39.4331 59.7406 38.9562 59.5658 38.8916 59.6912 C 37.9302 61.6168 34.6945 63.7876 32.481 63.4408 C 32.1324 63.3857 32.3699 63.6004 32.5722 63.6318 C 34.9928 64.0118 38.3311 61.9446 39.3904 59.8251 L 39.3904 59.8251 Z " stroke-width="0.949999988079071"/>
          <path id="ID0.12254117103293538" fill="#010101" d="M 33.4405 50.3907 C 33.431 50.2387 32.938 50.1788 32.9437 50.2567 C 33.317 55.7154 31.5206 61.2558 32.1314 66.6338 C 32.1485 66.7877 32.6378 66.8371 32.6283 66.7687 C 32.0174 61.3898 33.8129 55.8494 33.4405 50.3907 L 33.4405 50.3907 Z " stroke-width="0.949999988079071"/>
          <path id="ID0.8404460097663105" fill="#010101" d="M 32.6235 66.7449 C 32.6045 66.6224 32.1134 66.5331 32.1333 66.6594 C 32.7565 70.6257 33.2952 74.9311 34.9634 78.6228 C 35.75 80.3613 37.9692 83.1172 37.2738 85.1474 C 36.6449 86.9771 35.6369 88.48 34.6575 90.1349 C 34.6128 90.2109 35.0783 90.398 35.1543 90.2707 C 36.4045 88.157 37.7336 86.4451 37.8134 83.9171 C 37.8694 82.1596 36.0521 80.2976 35.4555 78.7083 C 34.0001 74.8437 33.2638 70.8119 32.6235 66.7449 L 32.6235 66.7449 Z " stroke-width="0.949999988079071"/>
          <path id="ID0.354075635317713" fill="#010101" d="M 24.5818 39.7792 C 24.4915 39.6975 24.0194 39.6443 24.1315 39.7459 C 25.5299 41.0199 28.1832 44.019 27.7434 46.1936 C 27.009 49.8264 23.4427 49.7817 21.0953 47.3231 C 18.4144 44.513 16.4118 40.9192 14.0947 37.8003 C 14.0054 37.6806 13.5637 37.6626 13.6026 37.7148 C 15.7382 40.5914 17.5527 44.0504 20.0246 46.641 C 21.0468 47.7126 22.355 49.1338 23.9234 49.3305 C 25.5261 49.5319 27.6854 49.0683 28.0721 47.1616 C 28.6459 44.3259 26.5711 41.5908 24.5818 39.7792 L 24.5818 39.7792 Z " stroke-width="0.949999988079071"/>
          <path id="ID0.5037678750231862" fill="#010101" d="M 37.2548 86.7168 C 37.2548 86.5705 36.7579 86.4973 36.7579 86.5828 C 36.7617 88.6985 39.3856 91.4193 37.4258 93.2091 C 37.3422 93.2832 37.7934 93.4722 37.8932 93.3801 C 39.9119 91.538 37.2586 88.8638 37.2548 86.7168 L 37.2548 86.7168 Z " stroke-width="0.949999988079071"/>
          <path id="ID0.27832916798070073" fill="#010101" d="M 21.9569 99.2387 C 22.2058 99.2292 21.7432 99.025 21.6358 99.0307 C 16.9751 99.1979 14.0786 96.0828 11.7739 92.4738 C 11.6922 92.3493 11.2409 92.3256 11.2799 92.3883 C 13.7945 96.3222 17.034 99.4173 21.9569 99.2387 L 21.9569 99.2387 Z " stroke-width="0.949999988079071"/>
          <path id="ID0.5802103593014181" fill="#010101" d="M 38.01 93.1188 C 38.0841 93.0732 37.6652 92.8728 37.5426 92.9497 C 30.0357 97.7539 21.8192 104.9758 12.3733 99.5798 C 12.2783 99.5256 11.7758 99.4743 11.9895 99.5997 C 21.6824 105.1316 29.7773 98.3913 38.01 93.1188 L 38.01 93.1188 Z " stroke-width="0.949999988079071"/>
          <path id="ID0.77571508474648" fill="#010101" d="M 0.6038 57.6211 C 0.563 57.6753 1.0085 57.8786 1.1006 57.7551 C 3.9744 53.9807 4.457 49.2792 5.3015 44.7201 C 6.3161 39.2092 9.4445 37.7424 14.5488 37.1458 C 14.7996 37.1163 14.3351 36.9244 14.2258 36.9377 C 10.4334 37.3795 6.9973 37.9542 5.4659 42.0307 C 3.4927 47.2794 4.1463 52.9661 0.6038 57.6211 L 0.6038 57.6211 Z " stroke-width="0.949999988079071"/>
          <path id="ID0.17650616681203246" fill="#010101" d="M 14.622 61.6586 C 14.7018 61.5988 14.2638 61.4021 14.1546 61.4876 C 10.0354 64.6787 3.6989 61.2615 1.0997 57.7294 C 1.0123 57.6097 0.5687 57.5907 0.6076 57.6439 C 3.3388 61.3546 10.2092 65.0815 14.622 61.6586 L 14.622 61.6586 Z " stroke-width="0.949999988079071"/>
          <path id="ID0.8647219268605113" fill="#010101" d="M 14.1232 61.4107 C 14.1432 61.5342 14.6353 61.6216 14.6115 61.4971 C 14.1793 58.9293 14.0026 53.994 16.8383 52.6925 C 16.901 52.664 16.5058 52.4598 16.3728 52.5215 C 13.4772 53.8468 13.6815 58.8029 14.1232 61.4107 L 14.1232 61.4107 Z " stroke-width="0.949999988079071"/>
        </g>
      </g>
    </g>
    <g id="Right_Arm">
      <path id="Skin_Arm_Right" fill="#D8AD8C" d="M 13.6644 62.3673 C 13.0241 62.2505 12.6792 64.6929 12.4769 65.2582 C 12.0722 66.3896 11.7919 67.4774 11.4395 68.6022 C 11.0481 69.8476 11.2856 71.0684 10.9797 72.2958 C 10.9132 72.5627 10.6776 72.7955 10.6196 73.051 C 10.5569 73.3313 10.7032 73.6695 10.6101 73.944 C 10.4059 74.5577 9.9603 74.8313 10.252 75.5771 C 10.4486 76.0739 10.8106 76.5223 10.992 77.061 C 11.1925 77.6585 11.3312 78.2646 11.5098 78.8441 C 11.8974 80.119 11.5601 81.1726 11.4395 82.4047 C 11.2096 84.7778 11.2723 87.1566 11.3929 89.5924 C 11.4509 90.7999 11.5877 92.0102 11.5877 93.2366 C 11.5877 94.4916 11.9126 95.4387 11.961 96.6519 C 12.0389 98.7523 12.6536 101.5691 13.8705 103.3503 C 14.4529 104.2034 15.3307 104.6765 15.7468 105.6265 C 16.2199 106.6953 15.875 107.9027 16.0432 109.0446 C 16.1192 109.5529 16.1116 110.2749 16.2531 110.766 C 16.3975 111.2838 16.7557 111.64 16.9153 112.1036 C 17.2117 112.9586 16.9799 114.51 15.685 114.3 C 15.3459 114.3152 14.8462 113.4165 14.0425 113.4982 C 13.2777 113.5761 12.7771 113.3187 12.0389 113.1999 C 11.4917 113.1144 11.0186 112.9434 10.536 112.7031 C 10.0069 112.4399 9.5357 112.4361 8.9942 112.2186 C 8.1354 111.8823 7.6604 110.2331 7.4314 109.3467 C 7.1293 108.1868 6.9289 107.0477 6.9878 105.7823 C 7.0467 104.534 7.6423 103.4168 7.5074 102.1457 C 7.2585 99.7897 6.6562 97.9543 6.0919 95.6867 C 5.8155 94.5847 5.3091 93.2499 5.083 92.1166 C 4.8379 90.8816 4.3506 89.657 3.9107 88.4505 C 3.7084 87.8957 3.6808 87.3352 3.449 86.7814 C 3.2229 86.2456 3.1802 85.724 2.9997 85.1521 C 2.6434 84.0159 2.3337 82.894 2.0202 81.734 C 1.436 79.587 0.7824 76.8947 1.6288 74.6708 C 2.1114 73.3997 2.0041 72.4696 1.9442 71.1434 C 1.8853 69.7925 2.0962 68.3447 2.519 67.0917 C 2.9218 65.9042 2.8496 64.8924 2.9883 63.7078 C 3.0662 63.0238 3.0529 62.6428 3.3246 62.0339 C 3.5811 61.4601 3.7217 61.119 3.7407 60.5215 C 4.4342 60.739 5.0783 61.5494 5.8003 61.8667 C 6.5593 62.202 7.4552 62.4842 8.2475 62.6694 C 9.0227 62.8499 10.0268 62.7796 10.8343 62.7388 C 11.2428 62.7188 11.5877 62.6675 11.9639 62.5925 C 12.2071 62.544 12.4588 62.5013 12.7077 62.4424 C 12.8654 62.4053 13.4905 62.3426 13.2236 62.2942 " stroke-width="0.949999988079071"/>
      <g id="Right_Arm_Lines">
        <g id="ID0.5565653857775033">
          <path id="ID0.7390023171901703" fill="#010101" d="M 13.6273 62.3417 C 13.672 62.1954 13.1742 62.0557 13.1305 62.2077 C 11.8613 66.4865 10.7707 70.7691 9.9803 75.1648 C 9.9489 75.3263 10.4515 75.4431 10.4771 75.2987 C 11.2656 70.9031 12.3543 66.6205 13.6273 62.3417 L 13.6273 62.3417 Z " stroke-width="0.949999988079071"/>
          <path id="ID0.11225102422758937" fill="#010101" d="M 1.6526 73.2002 C 1.6412 73.3702 2.1409 73.4681 2.1475 73.3351 C 2.4439 69.0411 3.031 64.8316 3.8062 60.6013 C 3.8376 60.4398 3.335 60.321 3.3113 60.4664 C 2.5313 64.6977 1.949 68.9081 1.6526 73.2002 L 1.6526 73.2002 Z " stroke-width="0.949999988079071"/>
          <path id="ID0.15624535456299782" fill="#010101" d="M 14.4994 104.3098 C 14.5906 104.421 15.0837 104.4751 14.9611 104.3174 C 11.5269 99.955 11.1554 92.5042 11.5231 87.1139 C 11.6656 85.0068 12.0256 82.8218 11.905 80.709 C 11.7492 77.9682 10.6785 75.8241 9.6801 73.3056 C 9.6212 73.1574 9.1291 73.0976 9.1851 73.2344 C 10.6728 76.9945 11.6181 79.587 11.2647 83.7927 C 11.0462 86.4232 11.0253 88.8695 11.1906 91.4924 C 11.4803 96.0724 11.5544 100.5678 14.4994 104.3098 L 14.4994 104.3098 Z " stroke-width="0.949999988079071"/>
          <path id="ID0.6846040775999427" fill="#010101" d="M 7.2053 102.5542 C 7.2348 102.7043 7.7326 102.7898 7.7003 102.6264 C 6.7037 97.5373 5.3234 92.7426 3.8784 87.7665 C 3.1716 85.3355 2.082 82.8902 1.6649 80.3888 C 1.2365 77.8409 1.8264 75.6531 2.1228 73.1698 C 2.1428 73.0026 1.644 72.8962 1.626 73.0358 C 1.3182 75.6046 0.5183 77.7117 1.17 80.3157 C 1.7913 82.8037 2.6149 85.2452 3.3835 87.6924 C 4.9348 92.64 6.2107 97.4708 7.2053 102.5542 L 7.2053 102.5542 Z " stroke-width="0.949999988079071"/>
          <path id="ID0.49699828727170825" fill="#010101" d="M 15.3734 107.195 C 15.2993 107.0525 14.8167 107.0078 14.8747 107.1247 C 15.4665 108.2599 15.8418 109.4512 16.1477 110.6929 C 16.3092 111.3493 16.9248 112.7487 16.6654 113.4336 C 16.484 113.9105 16.0365 114.0996 15.5653 114.224 C 15.1293 114.3352 14.565 112.9102 14.4367 112.6299 C 13.9427 111.546 13.5551 110.4221 13.0763 109.3306 C 13.0155 109.1843 12.5272 109.1282 12.5823 109.2603 C 13.3594 111.0339 13.881 112.9159 15.1321 114.433 C 15.2271 114.5461 15.4257 114.5831 15.5625 114.548 C 16.674 114.2601 17.4036 113.8782 17.1062 112.6385 C 16.6607 110.7812 16.2626 108.9021 15.3734 107.195 L 15.3734 107.195 Z " stroke-width="0.949999988079071"/>
          <path id="ID0.7388878483325243" fill="#010101" d="M 14.8319 113.693 C 15.1663 113.693 14.7949 113.4403 14.6296 113.4403 C 13.9693 113.4403 13.3081 113.4403 12.6517 113.4403 C 12.3154 113.4403 12.6887 113.693 12.854 113.693 C 13.5105 113.693 14.1707 113.693 14.8319 113.693 L 14.8319 113.693 Z " stroke-width="0.949999988079071"/>
          <path id="ID0.9862808394245803" fill="#010101" d="M 12.5215 113.483 C 12.6051 113.6018 13.1001 113.6616 12.9813 113.4925 C 12.2745 112.4779 11.905 111.3379 11.4575 110.2008 C 11.3986 110.0526 10.9084 109.9927 10.9626 110.1305 C 11.4195 111.2904 11.8033 112.4494 12.5215 113.483 L 12.5215 113.483 Z " stroke-width="0.949999988079071"/>
          <path id="ID0.9836344607174397" fill="#010101" d="M 12.4588 113.2978 C 12.7932 113.3016 12.4218 113.047 12.2584 113.0451 C 11.6589 113.0394 11.0671 112.9824 10.4885 112.8275 C 10.1931 112.7477 10.1342 112.9615 10.4306 113.0413 C 11.0908 113.218 11.7739 113.2902 12.4588 113.2978 L 12.4588 113.2978 Z " stroke-width="0.949999988079071"/>
          <path id="ID0.7222945359535515" fill="#010101" d="M 10.3859 113.008 C 10.4752 113.1211 10.9702 113.1771 10.8457 113.0175 C 10.1589 112.1255 9.9831 111.0358 9.757 109.9633 C 9.7257 109.8132 9.2279 109.7277 9.2621 109.8911 C 9.4939 110.9912 9.6848 112.097 10.3859 113.008 L 10.3859 113.008 Z " stroke-width="0.949999988079071"/>
          <path id="ID0.9816707284189761" fill="#010101" d="M 10.3232 112.5853 C 10.6576 112.5853 10.2862 112.3345 10.1209 112.3345 C 9.6886 112.3326 9.1186 112.3924 8.7624 112.0913 C 8.3092 111.7056 8.1468 111.0767 8.0166 110.5162 C 7.9834 110.3661 7.4837 110.2863 7.5217 110.4459 C 7.6813 111.1346 7.9264 111.9725 8.618 112.3107 C 9.1538 112.5739 9.7342 112.5853 10.3232 112.5853 L 10.3232 112.5853 Z " stroke-width="0.949999988079071"/>
          <path id="ID0.2610876765102148" fill="#010101" d="M 7.5207 110.4459 C 7.5483 110.5941 8.0461 110.6834 8.0157 110.52 C 7.7858 109.2935 7.3051 108.0519 7.2471 106.8036 C 7.1882 105.3615 7.5625 103.9925 7.6224 102.5599 C 7.63 102.387 7.1284 102.293 7.1255 102.426 C 7.0733 103.6743 6.6762 104.9254 6.7303 106.1737 C 6.7959 107.6386 7.2557 109.0114 7.5207 110.4459 L 7.5207 110.4459 Z " stroke-width="0.949999988079071"/>
          <path id="ID0.9225743990391493" fill="#010101" d="M 15.039 104.1968 C 14.9611 104.078 14.4671 104.0115 14.5792 104.1892 C 15.0134 104.8703 15.6651 105.408 15.7629 106.2564 C 15.8579 107.0743 15.8171 107.9056 15.629 108.7131 C 15.59 108.8689 16.0907 108.9971 16.1239 108.847 C 16.313 108.049 16.3966 107.1456 16.2579 106.3295 C 16.103 105.4432 15.5055 104.9292 15.039 104.1968 L 15.039 104.1968 Z " stroke-width="0.949999988079071"/>
        </g>
      </g>
    </g>
    <g id="Left_Arm">
      <path id="ID0.7626921548508108" fill="#D8AD8C" d="M 32.5789 63.5843 C 32.6311 63.6052 32.5181 63.5786 32.5789 63.5843 C 33.9241 63.723 35.0432 63.2888 36.1822 62.658 C 36.4454 62.5127 36.9356 62.1241 37.1655 61.9398 C 37.4438 61.7137 37.7089 61.5817 37.9815 61.3261 C 38.3881 60.9471 39.0132 60.3087 39.1842 59.7596 C 39.3733 59.1516 39.1899 58.3137 39.2792 57.6962 C 39.378 57.0302 39.6241 56.4327 39.6241 55.7202 C 39.626 54.3104 39.7191 52.8331 39.5718 51.4661 C 39.4198 50.0572 39.075 48.7092 38.9372 47.2984 C 38.9021 46.9393 38.8726 46.6733 38.5943 46.4406 C 38.3178 46.2088 37.8666 46.128 37.5531 45.9779 C 37.2614 45.8373 37.0391 45.9475 36.7456 45.8411 C 36.3295 45.6891 36.035 45.3766 35.6692 45.0745 C 35.1458 44.6413 34.743 44.1245 34.2632 43.6457 C 33.7531 43.1365 33.1299 42.7612 32.5342 42.3679 C 31.8417 41.9129 31.5044 41.5177 31.4284 40.7149 C 31.3781 40.1782 31.646 39.0971 31.0741 38.8738 C 30.7568 38.7494 30.3616 38.9213 30.0851 38.661 C 29.7935 38.3846 29.9037 38.0093 29.8286 37.6711 C 29.7298 37.2151 29.5873 37.1648 29.1826 36.9843 C 28.8615 36.8418 28.5091 36.6451 28.6744 36.2547 C 28.7798 36.002 29.2548 35.7578 29.4496 35.5764 C 29.6757 35.3655 30.0395 35.2116 30.2618 35.013 C 30.7482 34.5751 31.1919 34.1647 31.7818 33.893 C 33.2049 33.2384 34.1331 34.12 35.3795 34.653 C 36.8472 35.279 38.4356 36.2452 39.5281 37.4137 C 40.1143 38.0388 40.6064 38.6287 41.0852 39.346 C 41.4956 39.9597 41.601 40.4869 41.8129 41.1956 C 41.9202 41.5576 42.1435 41.9205 42.2043 42.3014 C 42.2603 42.652 42.1283 43.0405 42.1986 43.3873 C 42.2613 43.696 42.5045 44.0884 42.6289 44.3734 C 42.779 44.7163 42.894 45.0507 43.0184 45.4041 C 43.2797 46.1508 43.6787 46.8282 43.976 47.5521 C 44.2411 48.2009 44.3475 48.8507 44.661 49.5186 C 44.9631 50.1598 45.268 50.8315 45.5122 51.5041 C 45.8181 52.3477 45.8428 53.3613 46.0261 54.2458 C 46.1762 54.9621 46.2826 55.6974 46.5534 56.4061 C 46.7168 56.8345 46.8878 57.2259 46.9296 57.6924 C 46.959 58.0543 47.2212 58.5331 47.2744 58.8837 C 47.397 59.6931 47.378 60.3904 47.5604 61.1808 C 47.8036 62.2305 47.7903 63.4218 47.7352 64.4801 C 47.6867 65.4225 47.7114 66.0609 47.5404 66.972 C 47.3941 67.7548 47.0227 68.4008 46.997 69.1855 C 46.9467 70.8014 44.0083 70.9724 42.5567 70.3929 C 40.4059 69.5341 39.6526 68.9812 37.669 67.8004 C 36.6629 67.2028 35.2313 66.0134 34.2509 65.3826 C 33.7588 65.0653 31.9747 64.2483 32.4525 63.5805 " stroke-width="0.949999988079071"/>
      <g id="Left_Arm_Lines">
        <g id="ID0.16565376473590732">
          <path id="ID0.1540714567527175" fill="#010101" d="M 42.1093 43.5079 C 42.1169 43.6438 42.4931 43.716 42.4845 43.5507 C 42.2271 38.0616 37.1018 34.9608 32.4554 33.3201 C 32.2806 33.2584 32.0583 33.4047 32.3034 33.4911 C 36.8634 35.1014 41.8547 38.1271 42.1093 43.5079 L 42.1093 43.5079 Z " stroke-width="0.949999988079071"/>
          <path id="ID0.42666460294276476" fill="#010101" d="M 28.8482 36.0628 C 28.7409 36.1739 29.0952 36.3145 29.1931 36.2129 C 30.163 35.2097 31.3866 34.5067 32.4164 33.5709 C 32.5276 33.4721 32.1751 33.3249 32.0716 33.4208 C 31.0408 34.3556 29.8182 35.0586 28.8482 36.0628 L 28.8482 36.0628 Z " stroke-width="0.949999988079071"/>
          <path id="ID0.23849423369392753" fill="#010101" d="M 32.0934 35.8908 C 32.2008 35.7768 31.8445 35.6372 31.7486 35.7407 C 31.1881 36.3459 29.2862 37.7614 29.0154 36.2889 C 28.9898 36.1502 28.6126 36.0903 28.6402 36.2461 C 28.9888 38.1471 31.3439 36.7012 32.0934 35.8908 L 32.0934 35.8908 Z " stroke-width="0.949999988079071"/>
          <path id="ID0.7982878955081105" fill="#010101" d="M 31.6384 35.7683 C 31.3838 35.7208 31.5025 35.9583 31.6868 35.9934 C 32.8857 36.2167 34.0818 36.5615 35.1952 37.0622 C 35.37 37.141 35.5847 36.9966 35.3472 36.8912 C 34.1711 36.3592 32.9057 36.0029 31.6384 35.7683 L 31.6384 35.7683 Z " stroke-width="0.949999988079071"/>
          <path id="ID0.4956959583796561" fill="#010101" d="M 31.2175 37.921 C 31.2289 38.0578 31.6051 38.1281 31.5928 37.9637 C 31.5405 37.2683 31.6431 36.458 32.3271 36.1036 C 32.4905 36.0191 32.1485 35.8538 32.0307 35.9146 C 31.2859 36.3003 31.1596 37.1562 31.2175 37.921 L 31.2175 37.921 Z " stroke-width="0.949999988079071"/>
          <path id="ID0.597209039144218" fill="#010101" d="M 34.9396 38.9954 C 35.1144 39.06 35.3348 38.9147 35.0916 38.8244 C 33.9355 38.3979 32.5513 38.6183 31.5234 37.8801 C 31.3971 37.7889 31.0817 37.8592 31.2878 38.0065 C 32.3737 38.7864 33.735 38.5508 34.9396 38.9954 L 34.9396 38.9954 Z " stroke-width="0.949999988079071"/>
          <path id="ID0.20498670684173703" fill="#010101" d="M 31.7391 40.4546 C 31.8692 40.5249 32.1951 40.447 31.9747 40.3283 C 31.3182 39.9758 31.3866 38.8501 31.5928 38.2497 C 31.6393 38.1138 31.2679 38.0084 31.2194 38.1499 C 30.9724 38.8681 30.9762 40.0471 31.7391 40.4546 L 31.7391 40.4546 Z " stroke-width="0.949999988079071"/>
          <path id="ID0.13908223807811737" fill="#010101" d="M 31.0247 38.9584 C 31.2774 38.9527 31.0361 38.7266 30.8841 38.7304 C 30.0025 38.7475 29.9122 37.7481 30.0471 37.0907 C 30.0766 36.9444 29.7023 36.8503 29.6719 36.9909 C 29.4619 37.9998 29.8885 38.9802 31.0247 38.9584 L 31.0247 38.9584 Z " stroke-width="0.949999988079071"/>
          <path id="ID0.2357101235538721" fill="#010101" d="M 31.8113 41.7533 C 31.8911 41.8568 32.2692 41.8768 32.1618 41.7362 C 31.8502 41.3324 31.6811 40.8907 31.722 40.3767 C 31.7334 40.2238 31.3581 40.1411 31.3467 40.277 C 31.3049 40.8346 31.4712 41.3153 31.8113 41.7533 L 31.8113 41.7533 Z " stroke-width="0.949999988079071"/>
          <path id="ID0.9606323847547174" fill="#010101" d="M 38.7634 46.7056 C 38.8935 46.7864 39.2146 46.7132 38.999 46.5793 C 38.5553 46.3038 38.1193 46.2183 37.6262 46.0634 C 36.6468 45.7566 35.9362 45.1989 35.2313 44.4788 C 34.211 43.4367 33.2771 42.3157 31.9747 41.6165 C 31.8445 41.5462 31.5168 41.6241 31.7391 41.7428 C 33.2809 42.5722 34.1806 44.0143 35.4868 45.1134 C 36.509 45.9751 37.6766 46.0311 38.7634 46.7056 L 38.7634 46.7056 Z " stroke-width="0.949999988079071"/>
          <path id="ID0.6485585644841194" fill="#010101" d="M 42.1368 66.3621 C 42.267 66.4333 42.5928 66.3554 42.3724 66.2367 C 37.9986 63.8959 39.6706 57.6496 39.8122 53.8335 C 39.9015 51.3986 39.473 49.0607 39.0683 46.6638 C 39.0446 46.5251 38.6674 46.4634 38.6931 46.6211 C 38.9866 48.3624 39.4189 50.1646 39.4702 51.9316 C 39.5443 54.4918 38.8318 57.0673 38.9505 59.6038 C 39.0674 62.1203 39.7504 65.0862 42.1368 66.3621 L 42.1368 66.3621 Z " stroke-width="0.949999988079071"/>
          <path id="ID0.4888677541166544" fill="#010101" d="M 42.4722 43.5193 C 42.4199 43.3968 42.0475 43.3588 42.1197 43.5364 C 45.3298 51.2865 49.7454 61.3945 46.5325 69.802 C 46.4821 69.9341 46.8536 70.0433 46.9077 69.9018 C 50.1577 61.3955 45.7231 51.372 42.4722 43.5193 L 42.4722 43.5193 Z " stroke-width="0.949999988079071"/>
          <path id="ID0.05895658303052187" fill="#010101" d="M 46.8925 69.9284 C 46.9999 69.8191 46.6474 69.6766 46.5477 69.7764 C 43.4754 72.88 34.6651 65.9688 32.4744 63.8797 C 32.3775 63.7866 32.0108 63.7999 32.1723 63.9538 C 34.7126 66.3773 37.9635 68.396 41.1783 69.7925 C 43.1258 70.639 45.1949 71.6431 46.8925 69.9284 L 46.8925 69.9284 Z " stroke-width="0.949999988079071"/>
          <path id="ID0.5479405275546014" fill="#010101" d="M 31.4474 40.2152 C 31.19 40.1991 31.3011 40.428 31.4921 40.4404 C 32.6074 40.5097 33.7189 40.6266 34.7933 40.9458 C 35.0194 41.0123 35.0717 40.8052 34.8494 40.7396 C 33.7426 40.4119 32.596 40.2865 31.4474 40.2152 L 31.4474 40.2152 Z " stroke-width="0.949999988079071"/>
        </g>
      </g>
    </g>
    <g id="Eyebrows">
      <g id="Eyebrow_Lines">
        <g id="ID0.1897554756142199">
          <path id="ID0.5683310334570706" fill="#010101" d="M 28.2079 20.0296 C 28.5271 20.232 29.3973 20.0914 28.8254 19.7313 C 26.2405 18.0992 23.9472 18.3025 21.5332 20.0752 C 21.2587 20.2785 22.1735 20.6766 22.4595 20.4666 C 24.3642 19.0663 26.0761 18.6835 28.2079 20.0296 L 28.2079 20.0296 Z " stroke-width="0.949999988079071"/>
          <path id="ID0.21590652968734503" fill="#010101" d="M 33.546 20.5901 C 32.8743 20.6528 33.5498 21.1924 33.9317 21.1582 C 34.8988 21.068 35.6911 21.2808 36.2402 22.1301 C 36.4169 22.4046 37.4201 22.4987 37.1683 22.1082 C 36.3751 20.8827 34.9453 20.459 33.546 20.5901 L 33.546 20.5901 Z " stroke-width="0.949999988079071"/>
        </g>
      </g>
    </g>
  </g>
</svg>