<svg xmlns="http://www.w3.org/2000/svg" xmlns:xlink="http://www.w3.org/1999/xlink" version="1.1" width="98.20011138916016" height="127.58982849121094" viewBox="-0.17053520679473877 0.7902994155883789 98.20011138916016 127.58982849121094">
  <!-- Exported by Scratch - http://scratch.mit.edu/ -->
  <g id="ID0.5262305648066103">
    <path id="R_Arm" fill="#1B75BB" stroke="#000000" d="M 67.3266 79.1617 C 63.9939 86.0452 64.9658 92.4204 65.9361 102.8819 C 67.1076 115.411 75.6246 122.9151 80.8515 119.3681 C 86.0722 115.8227 80.2364 106.5056 78.3669 104.0473 C 76.9261 102.153 72.6417 85.933 70.7475 78.5891 C 70.7475 78.5891 70.5649 77.5236 69.4328 77.5723 C 68.3 77.6219 67.3266 79.1632 67.3266 79.1617 L 67.3266 79.1617 L 67.3266 79.1617 Z " stroke-width="0.7737809419631958"/>
    <path id="R_Leg_1_" fill="#1B75BB" stroke="#000000" d="M 61.2308 121.2708 C 61.1704 124.024 61.8428 127.9989 64.5364 127.8774 C 66.3083 127.7977 66.0019 123.9636 66.1257 120.0467 C 66.2062 117.5079 66.747 115.3862 67.1192 114.2016 C 67.1192 114.2016 67.2059 113.995 67.2059 113.9215 C 67.2067 112.1774 66.241 111.5901 65.0146 111.4067 C 63.4763 111.1761 63.2898 112.507 63.2821 112.5418 C 62.9671 113.8944 62.4278 115.5936 62.4278 115.5936 C 61.702 117.9745 61.2664 119.6645 61.2308 121.2708 L 61.2308 121.2708 L 61.2308 121.2708 Z " stroke-width="0.7737809419631958"/>
    <path id="L_Leg" fill="#1B75BB" stroke="#000000" d="M 53.9959 121.2708 C 53.9363 124.024 54.6072 127.9989 57.3007 127.8774 C 59.0735 127.7977 58.7663 123.9636 58.8916 120.0467 C 58.9713 117.5079 59.5114 115.3862 59.8836 114.2016 C 59.8836 114.2016 59.971 113.995 59.971 113.9215 C 59.971 112.1774 59.0054 111.5901 57.7797 111.4067 C 56.2414 111.1761 56.0549 112.507 56.048 112.5418 C 55.7315 113.8944 55.1937 115.5936 55.1937 115.5936 C 54.4671 117.9745 54.0331 119.6645 53.9959 121.2708 L 53.9959 121.2708 L 53.9959 121.2708 Z " stroke-width="0.7737809419631958"/>
    <g id="Body_1_">
      <path id="Body" fill="#1B75BB" stroke="#000000" d="M 65.5345 113.923 C 66.6147 113.8093 67.7468 113.5841 68.9276 113.2204 C 77.3355 110.6344 74.1026 99.8 72.9706 95.5952 C 72.5156 93.8968 72.0838 91.4044 71.731 89.0367 L 71.6675 88.8881 L 70.9905 83.1737 C 70.6098 82.6909 70.8133 81.5689 69.511 80.8888 C 67.9681 80.0848 64.6888 79.6167 63.0414 79.6151 C 56.9827 79.6089 54.259 81.7763 54.259 81.7763 C 53.2461 83.997 54.2652 85.0362 52.5722 88.755 C 49.4879 95.5302 50.0566 96.5625 49.3292 96.718 C 49.2217 96.7397 49.2434 98.2029 49.0816 98.2331 C 49.0785 98.7492 49.1103 100.248 49.5227 102.2242 C 49.5227 102.2242 50.6532 106.9149 52.5969 109.1774 C 52.9366 109.5751 53.4055 110.0379 53.9859 110.5153 C 53.9859 110.5153 55.634 111.8415 57.1638 112.5759 C 58.6951 113.3086 61.3259 113.6777 62.5516 113.8603 C 63.7773 114.0445 65.5345 113.9215 65.5345 113.923 L 65.5345 113.923 L 65.5345 113.923 Z " stroke-width="0.7737809419631958"/>
      <path id="Belly" fill="#D0D2D3" stroke="#000000" d="M 74.5073 105.6536 C 74.7541 101.9317 73.5749 97.874 72.9775 95.661 C 72.3693 93.4124 71.8122 89.7772 71.4207 86.8778 L 71.2443 86.7331 C 70.3637 85.957 69.6271 84.4737 67.5634 84.8436 C 63.0445 85.6568 61.0118 90.0031 61.0118 96.3659 C 61.0118 102.7303 64.5193 108.4075 68.1344 108.4075 C 69.9435 108.4075 73.2708 107.879 74.4562 105.7929 L 74.5073 105.6536 L 74.5073 105.6536 L 74.5073 105.6536 Z " stroke-width="0.7737809419631958"/>
    </g>
    <path id="L_Arm" fill="#1B75BB" stroke="#000000" d="M 54.3635 81.3461 C 47.9457 85.5051 45.4735 91.4586 40.8788 100.9103 C 35.3818 112.2284 38.7756 123.0606 45.0827 122.7379 C 51.389 122.4129 51.2304 111.4183 50.9047 108.3472 C 50.6563 105.9817 55.3988 89.8894 57.5886 82.6282 C 57.5886 82.6282 57.9878 81.6215 56.992 81.0745 C 55.9969 80.5297 54.365 81.3461 54.3635 81.3461 L 54.3635 81.3461 L 54.3635 81.3461 Z " stroke-width="0.7737809419631958"/>
    <g id="Head_1_">
      <path id="Head" fill="#1B75BB" stroke="#000000" stroke-linecap="round" stroke-linejoin="round" d="M 95.924 54.6034 C 96.0161 54.93 98.192 62.8898 92.6927 70.2609 C 88.9677 75.2502 82.478 81.6262 65.8936 83.0569 C 57.7735 83.7556 50.5456 81.661 45.3497 78.4606 C 45.4263 78.5078 45.4983 78.5574 45.5756 78.6038 L 45.5013 78.5589 C 40.6737 76.3792 34.5523 73.0063 30.4877 67.3615 C 30.4877 67.3615 28.3002 71.9253 18.4925 72.1164 C 6.0989 72.3609 1.0956 65.4897 0.4549 60.3116 C -0.1958 55.0576 1.409 49.0361 11.8829 47.2595 C 20.6514 45.7761 25.4179 48.4248 26.7364 49.3247 L 26.8385 49.4415 C 27.805 46.4524 29.416 45.0751 29.416 45.0751 L 29.2837 45.0279 C 25.5927 43.642 20.7365 41.4306 14.7938 37.8959 C 2.3538 30.4955 2.4768 17.4395 5.9178 12.745 C 9.4795 7.8926 20.0308 1.7944 34.9361 10.0948 C 43.3239 14.7622 47.5689 21.9514 49.679 27.3393 L 50.1247 27.1628 C 50.6996 26.8317 51.3271 26.5051 51.9972 26.1964 L 52.0839 26.0432 C 48.8154 18.3626 43.8803 2.5698 57.9314 1.351 C 71.2946 0.1919 70.1447 16.2943 69.0668 23.1407 L 69.1729 23.157 C 70.8984 23.2784 72.6518 23.5315 74.4052 23.9431 C 74.3665 23.8627 72.3732 19.6796 74.9329 13.5861 C 76.9385 8.8165 85.9229 -2.6185 93.2196 3.4573 C 100.918 9.8688 96.7396 17.1207 92.7329 21.5684 C 89.2618 25.4195 85.269 26.9934 83.4576 27.6882 L 83.5079 27.7207 C 83.9536 28.0008 84.3993 28.2926 84.8396 28.6036 C 97.0932 37.2266 96.0424 55.0793 96.0424 55.0793 L 96.0161 54.9524 C 95.9673 54.7528 95.9341 54.6367 95.924 54.6034 L 95.924 54.6034 L 95.924 54.6034 Z M 81.616 26.6289 C 82.3565 27.0197 83.0808 27.4422 83.7849 27.8933 M 69.0336 23.5717 C 68.8749 24.4306 68.6947 25.2849 68.4981 26.1345 M 54.0369 30.1813 C 53.3011 28.7885 52.6402 27.354 52.0266 25.9031 M 26.1499 54.995 C 26.0717 53.2772 26.2319 51.5447 26.7023 49.8888 " stroke-width="0.7737809419631958"/>
      <path id="Hair1" fill="#F1F1F2" stroke="#000000" d="M 15.0585 71.9887 C 5.1603 71.0292 1.0329 64.9829 0.4549 60.3116 C -0.1958 55.0576 1.409 49.0361 11.8829 47.2595 C 13.4065 47.001 14.8093 46.8679 16.0915 46.8285 L 16.1905 46.8347 C 12.0152 54.9098 11.6206 64.4065 14.995 71.8889 L 15.0585 71.9887 L 15.0585 71.9887 L 15.0585 71.9887 Z " stroke-width="0.7737809419631958"/>
      <path id="Hair2" fill="#F1F1F2" stroke="#000000" d="M 12.8594 36.6308 C 2.377 29.088 2.6656 17.1818 5.917 12.7442 C 9.3093 8.1201 19.0551 2.367 32.8616 9.0169 L 32.7231 9.0625 C 24.7988 11.5433 17.9431 17.7838 14.725 26.4935 C 13.4916 29.8378 12.9035 33.2548 12.8942 36.5937 L 12.8594 36.6308 L 12.8594 36.6308 L 12.8594 36.6308 Z " stroke-width="0.7737809419631958"/>
      <path id="Hair3" fill="#F1F1F2" stroke="#000000" d="M 48.6112 13.7137 C 48.0277 7.6419 49.8005 2.0536 57.9329 1.3495 C 66.1381 0.6392 68.8734 6.4348 69.511 12.6003 L 69.4475 12.5368 C 62.5911 9.8766 55.0993 10.4476 48.6444 13.6178 L 48.6112 13.7137 L 48.6112 13.7137 L 48.6112 13.7137 Z " stroke-width="0.7737809419631958"/>
      <path id="Hair4" fill="#F1F1F2" stroke="#000000" d="M 85.447 2.415 C 87.9997 1.3495 90.7103 1.3673 93.2181 3.4573 C 98.1479 7.5668 98.2067 12.0184 96.5562 15.8579 L 96.4734 15.8641 C 94.4647 10.3215 90.6863 5.5256 85.4354 2.4429 L 85.447 2.415 L 85.447 2.415 L 85.447 2.415 Z " stroke-width="0.7737809419631958"/>
      <path id="Face_1_" fill="#E6E7E8" stroke="#000000" d="M 85.177 43.7488 C 80.4863 40.3264 73.147 30.665 73.147 30.665 C 73.147 30.665 72.9543 40.8557 59.0348 49.4346 C 45.1137 58.0189 37.8425 56.7081 37.0385 66.7402 C 36.4334 74.2768 49.313 84.4845 65.8943 83.0577 C 82.478 81.6262 88.9669 75.251 92.6927 70.2617 C 98.3073 62.7343 95.9209 54.5887 95.9209 54.5887 C 94.3068 48.9618 91.9251 48.6639 85.177 43.7488 L 85.177 43.7488 L 85.177 43.7488 Z " stroke-width="0.7737809419631958"/>
      <path id="Mouth_1_" fill="#FFFFFF" stroke="#231F20" stroke-linecap="round" d="M 76.2398 72.8368 C 66.4948 74.5004 63.9498 60.7589 63.9498 60.7589 C 63.9498 60.7589 68.2691 59.5866 76.2398 58.4213 C 84.2082 57.2575 86.0862 59.0287 86.0862 59.0287 C 86.0862 59.0287 85.9863 71.177 76.2398 72.8368 L 76.2398 72.8368 L 76.2398 72.8368 Z " stroke-width="0.7737809419631958"/>
      <path id="R_Eye" fill="#231F20" d="M 84.6841 54.7504 C 84.2995 54.7504 83.9559 54.4835 83.8716 54.0966 C 83.7153 53.3832 83.8492 52.6543 84.2422 52.043 C 84.6361 51.4286 85.2458 51.0069 85.9593 50.8521 C 86.6696 50.6974 87.4 50.8312 88.0121 51.2259 C 88.6218 51.6197 89.0428 52.2295 89.1991 52.9437 C 89.2308 53.0984 89.2494 53.2524 89.2548 53.4064 C 89.2734 53.866 88.9151 54.2529 88.4547 54.2699 C 88.0307 54.3009 87.6074 53.9302 87.5927 53.4698 C 87.5896 53.4095 87.5803 53.3491 87.571 53.2934 C 87.4472 52.7208 86.8808 52.3533 86.3106 52.4794 C 86.0328 52.5397 85.7952 52.7053 85.6397 52.9421 C 85.4872 53.1797 85.4385 53.4629 85.4965 53.7391 C 85.594 54.1895 85.3085 54.6321 84.8605 54.7311 C 84.8009 54.7435 84.7421 54.7504 84.6841 54.7504 L 84.6841 54.7504 L 84.6841 54.7504 L 84.6841 54.7504 Z " stroke-width="0.7737809419631958"/>
      <path id="L_Eye" fill="#231F20" d="M 60.9383 56.63 C 60.556 56.63 60.2117 56.3653 60.1266 55.9761 C 59.9741 55.265 60.1041 54.5361 60.4972 53.9248 C 60.8895 53.3128 61.5024 52.8903 62.2142 52.7347 C 62.9246 52.5753 63.6519 52.7108 64.2624 53.1046 C 64.8768 53.4985 65.2985 54.109 65.4556 54.824 C 65.4881 54.9779 65.5067 55.1327 65.5144 55.289 C 65.5291 55.7486 65.1732 56.1347 64.7128 56.1518 C 64.247 56.1719 63.8647 55.8121 63.8485 55.3509 C 63.8461 55.2929 63.8384 55.2317 63.826 55.1752 C 63.7664 54.8975 63.6009 54.6584 63.3618 54.5036 C 63.1258 54.3512 62.8433 54.3016 62.5686 54.3612 C 62.2908 54.4224 62.0525 54.5864 61.8985 54.8255 C 61.7453 55.063 61.6935 55.3447 61.7546 55.6209 C 61.8521 56.0697 61.5658 56.5131 61.117 56.6114 C 61.0567 56.6245 60.9971 56.63 60.9383 56.63 L 60.9383 56.63 L 60.9383 56.63 L 60.9383 56.63 Z " stroke-width="0.7737809419631958"/>
    </g>
  </g>
</svg>