<svg xmlns="http://www.w3.org/2000/svg" xmlns:xlink="http://www.w3.org/1999/xlink" width="226.09010314941406" height="158.5797119140625" viewBox="18.399999618530273 15.899999618530273 226.09010314941406 158.5797119140625" version="1.1" xml:space="preserve">
  <!-- Generator: Sketch 49.3 (51167) - http://www.bohemiancoding.com/sketch -->
  <defs/>
  <g>
    <title>bear-walk-h</title>
    <desc>Created with Sketch.</desc>
    <g id="bear-walk-h" stroke="none" fill-rule="evenodd">
      <g id="bear-walk15" fill-rule="nonzero">
        <g id="Group">
          <g id="Shape">
            <path d="M 168.4 88.7 C 170 111.5 165.3 118.4 165.9 124.9 C 166.6 131.4 172.4 154.8 174.4 157.3 C 176.4 159.8 181.1 161 182.5 164 C 183.9 167 159.7 170.8 156.5 169.6 C 153.3 168.4 129.6 132 125.8 109.3 C 120.8 62.6 166.8 65.9 168.4 88.7 Z " stroke-width="1" fill="#856045"/>
            <path d="M 128.5 87.4 C 128.5 87.4 123.8 99.3 121.5 99.8 C 121.5 99.8 124.2 100.9 125.4 98.9 C 125.4 98.9 121.7 101.9 121.9 106.4 L 124.4 104.6 C 124.4 104.6 122.3 111.8 123.9 115.9 L 125.7 112.1 C 125.7 112.1 124.3 119.2 129.4 121.5 " stroke-width="1" fill="#856045"/>
          </g>
          <path d="M 121.6 99.7 C 121.6 99.7 121.8 99.7 122.1 99.5 C 122.4 99.3 122.8 99 123.1 98.6 C 123.9 97.7 124.7 96.5 125.4 95.1 C 125.7 94.4 126.1 93.7 126.3 93.1 C 126.6 92.4 126.8 91.8 127 91.3 C 127.4 90.2 127.6 89.5 127.6 89.5 C 127.6 89.5 127.2 90.2 126.7 91.2 C 126.2 92.2 125.5 93.5 124.8 94.9 C 124.5 95.6 124.1 96.2 123.8 96.8 C 123.5 97.4 123.1 98 122.8 98.4 C 122.5 98.9 122.2 99.2 122 99.5 C 121.8 99.6 121.6 99.7 121.6 99.7 Z " id="Shape" fill="#59402F" stroke-width="1"/>
          <path d="M 122.1 106.3 C 122.1 106.3 122.2 105.8 122.3 105.2 C 122.5 104.6 122.7 103.7 123 102.9 C 123.1 102.5 123.3 102.1 123.5 101.7 C 123.7 101.3 123.9 101 124 100.7 C 124.2 100.4 124.3 100.2 124.4 100 C 124.5 99.8 124.6 99.7 124.6 99.7 C 124.6 99.7 124.5 99.8 124.3 99.9 C 124.1 100 123.9 100.2 123.6 100.4 C 123.3 100.6 123.1 101 122.8 101.3 C 122.6 101.7 122.4 102.1 122.2 102.5 C 122.1 102.9 121.9 103.4 121.9 103.8 C 121.8 104.2 121.8 104.6 121.8 105 C 121.9 105.9 122.1 106.3 122.1 106.3 Z " id="Shape" fill="#59402F" stroke-width="1"/>
          <path d="M 124 115.5 C 124 115.5 123.7 114.9 123.6 113.9 C 123.5 113.4 123.5 112.8 123.5 112.2 C 123.5 111.6 123.5 110.9 123.6 110.2 C 123.7 109.5 123.7 108.9 123.8 108.2 C 123.9 107.6 124 107 124.1 106.5 C 124.2 106 124.2 105.6 124.3 105.3 C 124.3 105 124.4 104.8 124.4 104.8 C 124.4 104.8 124.3 105 124.2 105.2 C 124.1 105.5 123.9 105.9 123.8 106.4 C 123.6 106.9 123.5 107.5 123.3 108.1 C 123.1 108.7 123.1 109.4 123 110.1 C 122.9 110.8 122.9 111.5 123 112.2 C 123 112.9 123.2 113.5 123.3 114 C 123.4 114.5 123.6 114.9 123.8 115.2 C 123.9 115.3 124 115.5 124 115.5 Z " id="Shape" fill="#59402F" stroke-width="1"/>
          <path d="M 157.6 169.6 C 157.6 169.6 157.4 169.7 156.9 169.6 C 156.5 169.5 155.9 169.1 155.3 168.6 C 154.7 168 154 167.2 153.4 166.2 C 152.8 165.2 152.1 164.1 151.3 162.8 C 149.7 160.3 147.9 157.5 146 154.4 C 144.1 151.3 142 148 140.1 144.6 C 139.1 142.9 138.2 141.2 137.3 139.5 C 136.4 137.8 135.6 136.1 134.8 134.5 C 134.1 132.8 133.4 131.2 132.8 129.7 C 132.2 128.1 131.6 126.7 131.1 125.3 C 130.1 122.6 129.2 120.3 128.7 118.7 C 128.2 117.1 127.9 116.1 127.9 116.1 C 127.9 116.1 128.1 117.1 128.6 118.7 C 129.1 120.3 129.8 122.7 130.8 125.4 C 131.3 126.8 131.8 128.3 132.4 129.8 C 133 131.4 133.6 133 134.3 134.7 C 135 136.4 135.9 138.1 136.7 139.8 C 137.6 141.5 138.5 143.2 139.5 144.9 C 141.4 148.3 143.5 151.6 145.5 154.7 C 147.5 157.8 149.4 160.6 151 163 C 151.8 164.2 152.5 165.3 153.2 166.3 C 153.9 167.3 154.6 168 155.2 168.6 C 155.9 169.2 156.5 169.5 156.9 169.6 C 157.3 169.7 157.6 169.6 157.6 169.6 Z " id="Shape" fill="#59402F" stroke-width="1"/>
          <path d="M 129.3 121.3 C 129.3 121.3 128.7 121 128.1 120.3 C 127.8 119.9 127.5 119.5 127.3 119 C 127.1 118.5 126.9 117.9 126.7 117.3 C 126.6 117 126.6 116.7 126.5 116.4 C 126.4 116.1 126.4 115.8 126.3 115.5 C 126.2 114.9 126.2 114.4 126.1 113.9 C 126 113.4 126 113 126 112.8 C 126 112.5 125.9 112.4 125.9 112.4 C 125.9 112.4 125.9 112.6 125.8 112.8 C 125.8 113.1 125.7 113.5 125.7 114 C 125.7 114.5 125.6 115 125.7 115.6 C 125.7 115.9 125.7 116.2 125.8 116.5 C 125.9 116.8 125.9 117.1 126 117.5 C 126.2 118.1 126.4 118.8 126.7 119.3 C 126.8 119.6 127 119.8 127.2 120 C 127.4 120.2 127.6 120.4 127.8 120.6 C 128.2 120.9 128.5 121.1 128.8 121.2 C 129.1 121.3 129.3 121.3 129.3 121.3 Z " id="Shape" fill="#59402F" stroke-width="1"/>
          <path d="M 175.7 167.1 C 175.7 167.1 175.7 166.8 175.5 166.3 C 175.3 165.8 174.9 165.3 174.4 164.8 C 173.9 164.3 173.3 164 172.9 163.8 C 172.4 163.6 172.1 163.6 172.1 163.6 C 172.1 163.6 172.2 163.7 172.3 163.8 C 172.4 163.9 172.6 164 172.7 164.2 C 173.1 164.5 173.5 164.9 174 165.3 C 174.4 165.7 174.9 166.2 175.2 166.5 C 175.5 166.8 175.7 167.1 175.7 167.1 Z " id="Shape" fill="#59402F" stroke-width="1"/>
          <path d="M 181.1 165.4 C 181.1 165.4 181 165 180.7 164.5 C 180.4 164 179.9 163.4 179.3 162.9 C 179 162.7 178.7 162.4 178.3 162.3 C 178 162.1 177.6 162 177.4 162 C 177.1 161.9 176.9 161.9 176.7 161.9 C 176.5 161.9 176.4 161.9 176.4 161.9 C 176.4 161.9 176.5 162 176.6 162 C 176.7 162.1 176.9 162.2 177.2 162.3 C 177.7 162.6 178.3 163 178.8 163.4 C 179.4 163.8 179.9 164.3 180.3 164.7 C 180.8 165.1 181.1 165.4 181.1 165.4 Z " id="Shape" fill="#59402F" stroke-width="1"/>
          <path d="M 178.2 160.2 C 178.2 160.2 178 160.1 177.6 159.9 C 177.2 159.7 176.6 159.4 176 158.8 C 175.4 158.3 174.6 157.5 174 156.5 C 173.4 155.5 173 154.3 172.7 152.8 C 172 150 171 146.7 170 143.2 C 169 139.7 168 136 167.3 132.2 C 166.9 130.3 166.6 128.4 166.5 126.5 C 166.4 124.6 166.4 122.7 166.6 120.9 C 166.9 117.3 167.5 113.9 167.9 111.1 C 168.3 108.2 168.6 105.8 168.6 104.1 C 168.6 103.2 168.6 102.6 168.6 102.1 C 168.6 101.6 168.6 101.4 168.6 101.4 C 168.6 101.4 168.6 101.6 168.6 102.1 C 168.6 102.6 168.6 103.2 168.5 104.1 C 168.4 104.9 168.3 106 168.2 107.1 C 168 108.3 167.8 109.6 167.6 111 C 167.1 113.9 166.4 117.2 166.1 120.8 C 165.9 122.6 165.8 124.5 166 126.4 C 166.1 128.3 166.4 130.3 166.8 132.2 C 167.6 136 168.6 139.8 169.6 143.3 C 170.6 146.8 171.7 150 172.5 152.8 C 172.7 153.5 172.9 154.2 173.1 154.8 C 173.3 155.4 173.6 156 174 156.5 C 174.7 157.5 175.4 158.2 176.1 158.8 C 176.8 159.3 177.4 159.6 177.8 159.8 C 178 160.1 178.2 160.2 178.2 160.2 Z " id="Shape" fill="#59402F" stroke-width="1"/>
          <path d="M 175 168.6 C 174.9 168 173.5 165.5 172.4 165.8 C 171.3 166.1 172.3 167 172.9 167.6 C 173.6 168.2 175.1 169 175 168.6 Z " id="Shape" fill="#6C5F57" stroke-width="1"/>
          <path d="M 180.3 167 C 180.2 166.4 178.8 163.9 177.7 164.2 C 176.6 164.5 177.6 165.4 178.2 166 C 178.9 166.6 180.4 167.4 180.3 167 Z " id="Shape" fill="#6C5F57" stroke-width="1"/>
          <path d="M 183.5 165.4 C 183.4 164.8 182 162.3 180.9 162.6 C 179.8 162.9 180.8 163.8 181.4 164.4 C 182.1 165 183.6 165.8 183.5 165.4 Z " id="Shape" fill="#6C5F57" stroke-width="1"/>
        </g>
        <g id="Group">
          <path d="M 94.7 87.4 C 94.7 87.4 107 112.3 92.9 139.3 C 85.8 152.8 78.6 159.6 80.6 162 C 82.5 164.5 85.3 165.8 83.9 167.5 C 82.5 169.2 75.1 171 59 166.3 C 57.1 165.7 53.4 152 58.4 136.4 C 62.3 124.1 59.4 116.8 57.8 107.7 C 56.2 98.6 47.8 81.4 50.5 74 C 53.2 66.6 58.6 53.3 75.4 58.4 C 92.2 63.5 94.5 81.1 94.7 87.4 Z " id="Shape" fill="#856045" stroke-width="1"/>
          <g id="Shape">
            <path d="M 75.8 169.1 C 75.8 169.1 75.8 168.8 75.7 168.3 C 75.6 167.8 75.3 167.2 74.8 166.7 C 74.4 166.2 73.8 165.8 73.4 165.5 C 73 165.3 72.6 165.2 72.6 165.2 C 72.6 165.2 72.6 165.3 72.7 165.4 C 72.8 165.5 72.9 165.7 73.1 165.8 C 73.4 166.2 73.8 166.6 74.2 167.1 C 74.6 167.6 75 168.1 75.2 168.5 C 75.6 168.8 75.8 169.1 75.8 169.1 Z " fill="#59402F" stroke-width="1"/>
            <path d="M 81.3 168.5 C 81.3 168.5 81.2 168.1 81 167.6 C 80.8 167.1 80.3 166.4 79.8 165.8 C 79.5 165.5 79.2 165.3 78.9 165.1 C 78.6 164.9 78.3 164.7 78 164.6 C 77.7 164.5 77.5 164.4 77.3 164.4 C 77.1 164.4 77 164.4 77 164.4 C 77 164.4 77.1 164.5 77.2 164.6 C 77.3 164.7 77.5 164.8 77.7 165 C 78.1 165.3 78.7 165.8 79.2 166.3 C 79.7 166.8 80.2 167.4 80.6 167.8 C 81.1 168.3 81.3 168.5 81.3 168.5 Z " fill="#59402F" stroke-width="1"/>
            <path d="M 75 170.5 C 74.9 169.9 73.8 167.3 72.7 167.4 C 71.6 167.5 72.4 168.6 73 169.2 C 73.6 169.9 75 170.9 75 170.5 Z " fill="#665A52" stroke-width="1"/>
            <path d="M 80.4 169.6 C 80.3 169 79.2 166.4 78.1 166.5 C 77 166.6 77.8 167.7 78.4 168.3 C 79 169 80.4 170 80.4 169.6 Z " fill="#665A52" stroke-width="1"/>
            <path d="M 83.8 169.1 C 83.7 168.5 82.6 165.9 81.5 166 C 80.4 166.1 81.2 167.2 81.8 167.8 C 82.4 168.4 83.8 169.4 83.8 169.1 Z " fill="#665A52" stroke-width="1"/>
          </g>
          <path d="M 57.6 137.7 C 57.6 137.7 57 139.8 56.5 143.1 C 56.2 144.7 56 146.7 55.8 148.7 C 55.6 150.8 55.5 153 55.6 155.2 C 55.6 156.3 55.7 157.4 55.8 158.5 C 55.9 159.6 56.1 160.7 56.4 161.7 C 56.7 162.7 57 163.7 57.5 164.5 C 57.7 164.9 58 165.3 58.3 165.7 C 58.7 165.9 59.1 166 59.5 166.2 C 61.1 166.7 62.4 167.1 63.4 167.3 C 64.3 167.5 64.9 167.7 64.9 167.7 C 64.9 167.7 64.4 167.5 63.4 167.3 C 62.5 167 61.1 166.6 59.6 166.1 C 59.2 166 58.8 165.8 58.4 165.6 C 58.2 165.3 57.9 164.9 57.7 164.5 C 57.3 163.6 57 162.7 56.8 161.7 C 56.4 159.7 56.2 157.5 56.2 155.3 C 56.2 153.1 56.2 150.9 56.4 148.8 C 56.5 146.7 56.7 144.8 56.9 143.2 C 57.3 139.9 57.6 137.7 57.6 137.7 Z " id="Shape" fill="#59402F" stroke-width="1"/>
          <path d="M 98.6 100.5 C 98.6 100.5 98.5 104.8 98 111.3 C 97.8 114.5 97.5 118.3 97 122.4 C 96.5 126.4 96 130.8 94.7 134.9 C 94.4 135.9 94 136.9 93.5 137.8 C 93 138.7 92.4 139.7 91.9 140.6 C 90.8 142.4 89.6 144.2 88.5 145.8 C 86.2 149.2 84 152.3 82.3 155.1 C 81.5 156.5 80.7 157.8 80.2 159.1 C 79.9 159.7 79.8 160.4 79.9 161 C 80 161.6 80.3 162.1 80.6 162.5 C 81.2 163.2 81.9 163.6 82.3 163.9 C 82.7 164.2 83 164.3 83 164.3 C 83 164.3 82.8 164.1 82.4 163.8 C 82 163.5 81.4 163.1 80.8 162.3 C 80.5 161.9 80.3 161.5 80.2 160.9 C 80.2 160.4 80.3 159.8 80.6 159.2 C 81.1 158 81.9 156.7 82.7 155.3 C 84.4 152.6 86.7 149.5 89 146.1 C 90.2 144.4 91.3 142.7 92.5 140.9 C 93.1 140 93.6 139 94.1 138.1 C 94.6 137.1 95 136.1 95.4 135 C 96 132.9 96.4 130.7 96.8 128.6 C 97.1 126.5 97.4 124.4 97.6 122.4 C 98 118.3 98.2 114.5 98.4 111.3 C 98.6 104.9 98.6 100.5 98.6 100.5 Z " id="Shape" fill="#59402F" stroke-width="1"/>
        </g>
        <g id="Group">
          <g id="Shape">
            <path d="M 41.1 53.8 C 41.1 53.8 30.7 50.1 20 65.6 C 20 65.6 23.1 63.1 25 63.1 C 25 63.1 20.1 64.8 18.9 73.1 C 18.9 73.1 20.8 69.8 22.2 69.5 C 22.2 69.5 15.3 78.8 25.4 80.6 C 35.4 82.4 43.5 56.1 41.1 53.8 Z " fill="#8D674A" stroke-width="1"/>
            <path d="M 19.9 65.6 C 19.9 65.6 20.1 65.3 20.5 64.8 C 20.9 64.3 21.5 63.6 22.2 62.8 C 22.9 62 23.8 61.1 24.8 60.1 C 25.3 59.6 25.8 59.2 26.3 58.7 C 26.8 58.2 27.4 57.8 28 57.4 C 28.6 57 29.2 56.6 29.8 56.2 C 30.4 55.9 31 55.5 31.6 55.2 C 32.2 55 32.8 54.6 33.4 54.5 C 34 54.3 34.5 54.1 35.1 54 C 35.6 53.9 36.1 53.8 36.5 53.7 C 36.9 53.6 37.3 53.7 37.6 53.6 C 38.2 53.6 38.6 53.6 38.6 53.6 C 38.6 53.6 38.2 53.6 37.6 53.5 C 37.3 53.5 36.9 53.4 36.4 53.4 C 36 53.4 35.5 53.5 34.9 53.5 C 34.4 53.6 33.8 53.8 33.2 53.9 C 32.6 54 32 54.3 31.3 54.6 C 30.7 54.9 30.1 55.2 29.4 55.6 C 28.8 56 28.2 56.4 27.6 56.8 C 27 57.3 26.4 57.7 25.9 58.2 C 25.4 58.7 24.8 59.2 24.4 59.7 C 23.4 60.7 22.6 61.7 22 62.5 C 20.6 64.3 19.9 65.6 19.9 65.6 Z " fill="#59402F" stroke-width="1"/>
            <path d="M 24.9 63.1 C 24.9 63.1 24.2 63.4 23.3 64.1 C 22.8 64.5 22.4 64.9 21.9 65.4 C 21.4 65.9 20.9 66.5 20.5 67.2 C 20.1 67.9 19.7 68.5 19.5 69.2 C 19.4 69.5 19.3 69.9 19.2 70.2 C 19.1 70.5 19 70.8 19 71.1 C 18.9 71.7 18.9 72.1 18.9 72.5 C 18.9 72.8 18.9 73 18.9 73 C 18.9 73 18.9 72.8 19 72.5 C 19 72.3 19.1 72.1 19.1 71.9 C 19.2 71.7 19.3 71.4 19.3 71.2 C 19.4 70.9 19.5 70.7 19.6 70.4 C 19.7 70.1 19.8 69.8 20 69.5 C 20.1 69.2 20.3 68.9 20.5 68.6 C 20.7 68.3 20.9 68 21.1 67.7 C 21.9 66.5 22.9 65.3 23.6 64.5 C 24.4 63.6 24.9 63.1 24.9 63.1 Z " fill="#59402F" stroke-width="1"/>
            <path d="M 22.1 69.5 C 22.1 69.5 21.6 69.9 21.1 70.6 C 20.8 71 20.5 71.4 20.3 71.9 C 20 72.4 19.8 73 19.7 73.6 C 19.6 74.2 19.5 74.8 19.6 75.4 C 19.6 75.7 19.7 76 19.8 76.2 C 19.9 76.5 19.9 76.7 20 76.9 C 20.2 77.3 20.4 77.7 20.5 77.9 C 20.6 78.1 20.7 78.2 20.7 78.2 C 20.7 78.2 20.7 78.1 20.6 77.8 C 20.6 77.7 20.5 77.5 20.4 77.4 C 20.4 77.2 20.3 77 20.3 76.8 C 20.2 76.6 20.2 76.4 20.2 76.1 C 20.2 75.9 20.1 75.6 20.1 75.3 C 20.1 75 20.1 74.8 20.1 74.5 C 20.1 74.2 20.2 73.9 20.2 73.7 C 20.3 73.1 20.5 72.6 20.7 72.1 C 20.9 71.6 21.1 71.1 21.3 70.7 C 21.7 70 22.1 69.5 22.1 69.5 Z " fill="#59402F" stroke-width="1"/>
          </g>
          <g id="Shape">
            <path d="M 184.4 84 C 184.4 84 184.4 91.8 180.9 94.9 L 180.7 92.1 C 180.7 92.1 179.6 100.9 173.1 103.4 L 173.9 100.8 C 173.9 100.8 166.5 105.3 166.5 108.7 L 165.3 106.7 C 165.3 106.7 158.5 112.4 155.5 110.4 " fill="#8D674A" stroke-width="1"/>
            <g>
              <path d="M 162.2 29 C 143.4 22.6 119.2 32 107.8 36.1 C 91.3 42 71.7 25.8 44.6 47.5 C 17.5 69.2 22.4 102.1 42.4 118.5 C 64.7 136.8 144.2 137.7 158.6 109.5 C 158.6 109.5 185 99.6 186.5 72.3 " fill="#8D674A" stroke-width="1"/>
              <path d="M 184.6 84.1 C 184.6 84.1 184.4 84.8 184.2 85.8 C 184 86.8 183.7 88.2 183.4 89.6 C 183.3 89.9 183.2 90.3 183.1 90.6 C 183 90.9 182.9 91.3 182.8 91.6 C 182.6 92.2 182.4 92.8 182.2 93.3 C 182.1 93.5 182 93.8 181.9 93.9 C 181.8 94.1 181.7 94.3 181.6 94.3 C 181.4 94.5 181.3 94.7 181.3 94.7 C 181.3 94.7 181.4 94.6 181.7 94.4 C 181.8 94.3 182 94.2 182.1 94 C 182.3 93.8 182.4 93.6 182.6 93.4 C 182.9 93 183.2 92.4 183.5 91.8 C 183.8 91.2 184 90.5 184.1 89.8 C 184.4 88.4 184.6 87 184.7 85.9 C 184.6 84.8 184.6 84.1 184.6 84.1 Z " fill="#59402F" stroke-width="1"/>
              <path d="M 180.7 92.1 C 180.7 92.1 180.5 93 180 94.2 C 179.8 94.8 179.5 95.6 179.2 96.3 C 179 96.7 178.8 97.1 178.7 97.4 C 178.5 97.8 178.3 98.2 178.1 98.5 C 177.9 98.9 177.6 99.2 177.4 99.6 C 177.1 99.9 176.9 100.3 176.6 100.6 C 176.3 100.9 176.1 101.2 175.8 101.5 C 175.5 101.7 175.3 102 175 102.2 C 174.7 102.4 174.5 102.6 174.3 102.8 C 174.1 102.9 173.9 103.1 173.7 103.2 C 173.4 103.4 173.2 103.5 173.2 103.5 C 173.2 103.5 173.4 103.4 173.8 103.3 C 174 103.2 174.2 103.1 174.5 103 C 174.7 102.9 175 102.7 175.3 102.6 C 175.6 102.4 175.9 102.2 176.2 102 C 176.5 101.8 176.8 101.5 177.1 101.2 C 177.4 100.9 177.7 100.6 178 100.2 C 178.3 99.9 178.5 99.5 178.8 99.1 C 179.3 98.3 179.7 97.5 180 96.7 C 180.3 95.9 180.5 95.1 180.7 94.5 C 180.7 93 180.7 92.1 180.7 92.1 Z " fill="#59402F" stroke-width="1"/>
              <path d="M 173.9 101 C 173.9 101 173.2 101.2 172.3 101.7 C 171.8 102 171.3 102.3 170.8 102.7 C 170.3 103.1 169.7 103.5 169.2 104 C 168.7 104.5 168.2 105 167.8 105.6 C 167.4 106.1 167.1 106.7 166.9 107.2 C 166.8 107.5 166.7 107.7 166.7 107.9 C 166.6 108.1 166.6 108.3 166.6 108.4 C 166.5 108.7 166.5 108.9 166.5 108.9 C 166.5 108.9 166.6 108.7 166.7 108.5 C 166.8 108.4 166.8 108.2 166.9 108 C 167 107.8 167.1 107.6 167.3 107.4 C 167.4 107.2 167.6 107 167.8 106.7 C 168 106.5 168.2 106.2 168.4 106 C 168.8 105.5 169.3 105 169.8 104.6 C 170.3 104.1 170.8 103.7 171.3 103.3 C 171.8 102.9 172.3 102.5 172.7 102.2 C 173.3 101.4 173.9 101 173.9 101 Z " fill="#59402F" stroke-width="1"/>
              <path d="M 165.3 106.9 C 165.3 106.9 164.7 107.3 163.8 107.9 C 163.3 108.2 162.8 108.5 162.2 108.8 C 161.6 109.1 161 109.5 160.4 109.8 C 159.8 110.1 159.1 110.4 158.5 110.6 C 158.2 110.7 157.9 110.8 157.6 110.9 C 157.3 111 157 111 156.8 111.1 C 156.5 111.1 156.3 111.2 156.1 111.2 C 155.9 111.2 155.7 111.2 155.5 111.2 C 155.2 111.2 155 111.2 155 111.2 C 155 111.2 155.2 111.2 155.5 111.3 C 155.7 111.3 155.8 111.4 156.1 111.4 C 156.3 111.4 156.6 111.4 156.8 111.4 C 157.3 111.4 158 111.3 158.6 111.1 C 159.3 110.9 159.9 110.7 160.6 110.4 C 161.2 110.1 161.9 109.7 162.4 109.3 C 163 108.9 163.5 108.5 163.9 108.2 C 164.8 107.4 165.3 106.9 165.3 106.9 Z " fill="#59402F" stroke-width="1"/>
              <path d="M 141.2 27.2 C 141.2 27.2 138.1 27.4 133.5 28.2 C 131.2 28.6 128.5 29.1 125.7 29.8 C 122.9 30.5 119.9 31.3 116.9 32.3 C 113.9 33.3 111.1 34.6 108.4 35.6 C 107 36.1 105.7 36.5 104.4 36.7 C 103.8 36.8 103.1 36.9 102.5 37 C 101.9 37.1 101.3 37.1 100.7 37.2 C 99.6 37.3 98.5 37.3 97.6 37.4 C 96.7 37.4 95.8 37.4 95.2 37.4 C 93.8 37.4 93.1 37.4 93.1 37.4 C 93.1 37.4 93.9 37.5 95.2 37.6 C 95.9 37.7 96.7 37.7 97.6 37.7 C 98.5 37.7 99.6 37.7 100.8 37.7 C 101.4 37.7 102 37.6 102.6 37.6 C 103.2 37.5 103.9 37.4 104.5 37.3 C 105.8 37.1 107.2 36.7 108.6 36.3 C 110 35.9 111.4 35.3 112.8 34.7 C 114.2 34.1 115.6 33.6 117.1 33.1 C 118.6 32.6 120 32.2 121.5 31.8 C 123 31.4 124.4 31 125.8 30.6 C 128.6 29.9 131.2 29.3 133.5 28.8 C 135.8 28.3 137.7 28 139 27.7 C 140.5 27.3 141.2 27.2 141.2 27.2 Z " fill="#59402F" stroke-width="1"/>
              <path d="M 67.2 36.4 C 67.2 36.4 66 36.6 64 37.2 C 62 37.8 59.1 38.8 55.7 40.3 C 52.4 41.8 48.6 43.8 44.9 46.6 C 41.2 49.3 37.6 52.8 34.8 56.8 C 33.4 58.8 32.2 61 31.1 63.1 C 30 65.2 29.1 67.4 28.3 69.6 C 27.5 71.8 26.8 73.9 26.4 75.9 C 26 78 25.7 80 25.7 81.8 C 25.6 85.5 26.2 88.5 26.6 90.6 C 27 92.7 27.2 93.9 27.2 93.9 C 27.2 93.9 27 92.7 26.8 90.6 C 26.5 88.5 26.1 85.5 26.2 81.8 C 26.3 80 26.5 78 27 76 C 27.5 74 28.2 71.9 29 69.8 C 29.9 67.7 30.8 65.5 31.9 63.4 C 32.9 61.2 34.1 59.2 35.5 57.2 C 38.3 53.2 41.8 49.8 45.4 47.1 C 49 44.4 52.7 42.2 56 40.7 C 59.3 39.1 62.1 38 64.2 37.4 C 66 36.7 67.2 36.4 67.2 36.4 Z " fill="#59402F" stroke-width="1"/>
              <path d="M 153.1 116.7 C 153.1 116.7 152.7 117 152.1 117.4 C 151.4 117.8 150.4 118.5 149.1 119.2 C 148.4 119.6 147.7 120 146.9 120.4 C 146.1 120.8 145.2 121.2 144.2 121.7 C 143.2 122.1 142.2 122.6 141.1 123.1 C 140 123.5 138.8 124 137.6 124.5 C 136.4 125 135.1 125.4 133.8 125.9 C 132.5 126.4 131.1 126.7 129.7 127.2 C 126.8 128 123.8 128.8 120.6 129.4 C 119.8 129.6 119 129.7 118.2 129.9 C 117.4 130 116.6 130.1 115.7 130.3 C 114.9 130.4 114 130.5 113.2 130.7 C 112.4 130.8 111.5 130.9 110.7 130.9 C 109.9 131 109 131 108.1 131.1 C 107.2 131.2 106.4 131.3 105.5 131.3 C 103.8 131.3 102 131.4 100.3 131.4 C 96.8 131.3 93.4 131.3 90 131 C 86.6 130.8 83.2 130.4 80 130.1 C 78.4 129.9 76.8 129.7 75.2 129.5 C 73.6 129.3 72.1 129 70.7 128.8 C 67.8 128.3 65 127.8 62.5 127.2 C 60 126.6 57.7 126 55.7 125.3 C 54.7 125 53.8 124.6 52.9 124.3 C 52.1 123.9 51.3 123.7 50.6 123.3 C 49.2 122.7 48.2 122.1 47.5 121.6 C 46.8 121.1 46.5 120.8 46.5 120.8 C 46.5 120.8 46.8 121.1 47.5 121.6 C 48.2 122.1 49.2 122.7 50.6 123.4 C 51.3 123.8 52.1 124.1 52.9 124.4 C 53.8 124.7 54.7 125.1 55.7 125.5 C 57.7 126.2 60 126.9 62.5 127.5 C 65 128.1 67.8 128.7 70.8 129.2 C 72.3 129.4 73.8 129.7 75.3 129.9 C 76.9 130.1 78.4 130.3 80.1 130.5 C 83.3 130.8 86.7 131.2 90.1 131.4 C 93.5 131.7 97 131.7 100.5 131.9 C 102.2 131.8 104 131.8 105.7 131.7 C 106.6 131.7 107.4 131.6 108.3 131.5 C 109.2 131.4 110 131.3 110.9 131.3 C 111.8 131.2 112.6 131.2 113.4 131 C 114.2 130.9 115.1 130.8 115.9 130.6 C 116.7 130.5 117.6 130.4 118.4 130.2 C 119.2 130.1 120 129.9 120.8 129.7 C 124 129.1 127.1 128.3 129.9 127.4 C 131.3 126.9 132.7 126.5 134 126.1 C 135.3 125.6 136.6 125.2 137.8 124.7 C 139 124.2 140.2 123.7 141.2 123.2 C 142.3 122.7 143.3 122.2 144.2 121.7 C 145.1 121.2 146 120.7 146.8 120.3 C 147.6 119.8 148.3 119.4 149 119 C 150.3 118.2 151.3 117.6 152 117.1 C 152.7 117 153.1 116.7 153.1 116.7 Z " fill="#59402F" stroke-width="1"/>
            </g>
          </g>
        </g>
        <g id="Group">
          <path d="M 69.5 108.3 C 69.5 108.3 60.6 117.6 58.3 117.1 C 58.3 117.1 60.3 119.2 62.3 117.8 C 62.3 117.8 57.7 119.1 56.2 123.5 L 59.2 122.8 C 59.2 122.8 54.5 128.7 54.5 133 L 57.7 130.2 C 57.7 130.2 53.7 136.2 57.6 140.3 " id="Shape" fill="#856045" stroke-width="1"/>
          <path d="M 58.5 117.1 C 58.5 117.1 58.7 117.1 59 117.1 C 59.3 117 59.8 116.9 60.3 116.6 C 61.4 116.1 62.6 115.2 63.8 114.3 C 64.4 113.8 64.9 113.3 65.4 112.8 C 65.9 112.3 66.4 111.8 66.7 111.4 C 67.4 110.5 67.9 109.9 67.9 109.9 C 67.9 109.9 67.3 110.4 66.4 111.1 C 65.5 111.8 64.4 112.8 63.2 113.8 C 62.6 114.3 62.1 114.8 61.5 115.2 C 61 115.6 60.4 116 60 116.3 C 59.5 116.6 59.1 116.9 58.8 117 C 58.7 117.1 58.5 117.1 58.5 117.1 Z " id="Shape" fill="#59402F" stroke-width="1"/>
          <path d="M 56.4 123.5 C 56.4 123.5 56.7 123.1 57 122.6 C 57.4 122.1 57.9 121.4 58.5 120.7 C 58.8 120.4 59.1 120.1 59.4 119.8 C 59.7 119.5 60 119.3 60.3 119.1 C 60.6 118.9 60.8 118.7 61 118.7 C 61.2 118.6 61.3 118.5 61.3 118.5 C 61.3 118.5 61.2 118.5 61 118.5 C 60.8 118.5 60.5 118.6 60.2 118.7 C 59.9 118.8 59.5 119 59.2 119.3 C 58.8 119.5 58.5 119.9 58.2 120.2 C 57.9 120.5 57.6 120.9 57.4 121.3 C 57.2 121.7 57 122 56.9 122.4 C 56.4 123 56.4 123.5 56.4 123.5 Z " id="Shape" fill="#59402F" stroke-width="1"/>
          <path d="M 54.7 132.6 C 54.7 132.6 54.7 131.9 55 130.9 C 55.1 130.4 55.3 129.9 55.6 129.3 C 55.8 128.7 56.1 128.1 56.4 127.5 C 56.7 126.9 57 126.3 57.4 125.8 C 57.7 125.2 58 124.7 58.3 124.3 C 58.6 123.9 58.8 123.5 58.9 123.2 C 59.1 122.9 59.1 122.8 59.1 122.8 C 59.1 122.8 59 122.9 58.8 123.1 C 58.6 123.3 58.3 123.6 57.9 124 C 57.6 124.4 57.2 124.9 56.8 125.4 C 56.4 125.9 56.1 126.5 55.7 127.2 C 55.4 127.8 55.1 128.5 54.9 129.1 C 54.7 129.7 54.6 130.3 54.5 130.9 C 54.4 131.4 54.5 131.9 54.5 132.2 C 54.7 132.5 54.7 132.6 54.7 132.6 Z " id="Shape" fill="#59402F" stroke-width="1"/>
          <path d="M 56.5 139 C 56.5 139 56.4 138.9 56.3 138.7 C 56.2 138.5 56.1 138.1 56.1 137.7 C 56 136.9 56.2 135.8 56.4 134.8 C 56.6 133.7 57 132.7 57.2 131.9 C 57.4 131.1 57.6 130.6 57.6 130.6 C 57.6 130.6 57.5 130.7 57.4 130.9 C 57.3 131.1 57.1 131.4 56.9 131.8 C 56.7 132.2 56.5 132.6 56.3 133.1 C 56.2 133.4 56.1 133.6 56 133.9 C 55.9 134.2 55.8 134.4 55.8 134.7 C 55.7 135.3 55.6 135.8 55.6 136.4 C 55.6 136.9 55.7 137.5 55.8 137.9 C 55.9 138.3 56.1 138.6 56.3 138.8 C 56.4 138.9 56.5 139 56.5 139 Z " id="Shape" fill="#59402F" stroke-width="1"/>
        </g>
        <path d="M 72.3 127.8 C 66.1 134.2 42.1 151.3 42.7 154.3 C 43.3 157.3 47.7 162.3 45.7 163.2 C 44.5 163.7 39.8 164.8 33.6 162.1 C 29.2 160.2 23 155.2 21.7 153.7 C 20.3 152.2 19.8 136.2 32.4 120.6 C 40.4 110.7 38.8 95.9 36.1 83.9 C 34.1 74.9 62.5 59.7 67.3 72.4 C 76.5 96.8 78.1 121.8 72.3 127.8 Z " id="Shape" fill="#8D674A" stroke-width="1"/>
        <g id="Group">
          <path d="M 46 99.1 C 46 99.1 35.7 106.7 33.4 105.9 C 33.4 105.9 35.1 108.3 37.2 107.3 C 37.2 107.3 32.5 107.8 30.2 111.8 L 33.3 111.7 C 33.3 111.7 27.7 116.7 26.9 121 L 30.5 118.8 C 30.5 118.8 25.6 124.1 28.7 128.7 " id="Shape" fill="#8D674A" stroke-width="1"/>
          <path d="M 33.6 105.8 C 33.6 105.8 33.8 105.9 34.1 105.9 C 34.4 105.9 34.9 105.8 35.5 105.7 C 36.6 105.4 38 104.7 39.3 104 C 40 103.6 40.6 103.2 41.2 102.8 C 41.8 102.4 42.3 102 42.8 101.6 C 43.7 100.9 44.2 100.4 44.2 100.4 C 44.2 100.4 43.5 100.7 42.5 101.3 C 41.5 101.9 40.2 102.6 38.9 103.4 C 38.3 103.8 37.6 104.1 37 104.5 C 36.4 104.8 35.8 105.1 35.3 105.4 C 34.8 105.6 34.4 105.8 34 105.9 C 33.8 105.9 33.6 105.8 33.6 105.8 Z " id="Shape" fill="#59402F" stroke-width="1"/>
          <path d="M 30.5 111.7 C 30.5 111.7 30.8 111.4 31.3 110.9 C 31.8 110.4 32.4 109.8 33.1 109.3 C 33.4 109 33.8 108.8 34.1 108.6 C 34.4 108.4 34.8 108.2 35.1 108.1 C 35.4 108 35.6 107.8 35.8 107.8 C 36 107.7 36.1 107.7 36.1 107.7 C 36.1 107.7 36 107.7 35.8 107.7 C 35.6 107.7 35.3 107.7 35 107.8 C 34.7 107.9 34.3 108 33.9 108.2 C 33.5 108.4 33.1 108.6 32.7 108.9 C 32.3 109.2 32 109.5 31.7 109.8 C 31.4 110.1 31.2 110.5 31 110.8 C 30.6 111.3 30.5 111.7 30.5 111.7 Z " id="Shape" fill="#59402F" stroke-width="1"/>
          <path d="M 27.3 120.5 C 27.3 120.5 27.4 119.8 27.9 118.9 C 28.1 118.4 28.4 117.9 28.7 117.4 C 29 116.9 29.4 116.3 29.8 115.8 C 30.2 115.3 30.6 114.7 31 114.2 C 31.4 113.7 31.8 113.3 32.1 112.9 C 32.4 112.5 32.7 112.2 32.9 112 C 33.1 111.8 33.2 111.6 33.2 111.6 C 33.2 111.6 33.1 111.7 32.8 111.9 C 32.6 112.1 32.2 112.3 31.8 112.7 C 31.4 113 30.9 113.4 30.5 113.9 C 30 114.4 29.6 114.9 29.2 115.4 C 28.8 116 28.4 116.5 28.1 117.1 C 27.8 117.7 27.6 118.3 27.4 118.8 C 27.2 119.3 27.2 119.8 27.2 120.1 C 27.2 120.3 27.3 120.5 27.3 120.5 Z " id="Shape" fill="#59402F" stroke-width="1"/>
          <path d="M 28 127 C 28 127 27.9 126.9 27.9 126.6 C 27.9 126.4 27.8 126 27.9 125.6 C 28 124.8 28.3 123.8 28.7 122.8 C 29.1 121.8 29.6 120.8 30 120.1 C 30.4 119.4 30.6 118.8 30.6 118.8 C 30.6 118.8 30.5 118.9 30.3 119.1 C 30.1 119.3 29.9 119.5 29.6 119.9 C 29.4 120.2 29 120.6 28.8 121.1 C 28.7 121.3 28.5 121.6 28.4 121.8 C 28.3 122.1 28.2 122.3 28 122.6 C 27.8 123.1 27.6 123.7 27.5 124.2 C 27.4 124.7 27.4 125.2 27.4 125.7 C 27.4 126.1 27.6 126.5 27.7 126.7 C 27.8 126.9 28 127 28 127 Z " id="Shape" fill="#59402F" stroke-width="1"/>
        </g>
        <path d="M 31.4 122 C 31.4 122 29.7 123.7 27.8 126.7 C 26.8 128.2 25.8 130 24.8 132 C 24.3 133 23.9 134.1 23.5 135.2 C 23.1 136.3 22.7 137.4 22.4 138.6 C 22.1 139.7 21.8 140.9 21.6 142.1 C 21.4 143.3 21.2 144.4 21.1 145.5 C 21 146.6 20.9 147.7 20.9 148.7 C 20.9 149.7 20.9 150.7 21 151.6 C 21 152 21.1 152.5 21.1 152.9 C 21.2 153.4 21.4 153.7 21.6 154 C 22.1 154.6 22.6 155 23 155.3 C 23.8 155.9 24.3 156.2 24.3 156.2 C 24.3 156.2 23.8 155.9 23 155.2 C 22.6 154.9 22.1 154.5 21.7 153.9 C 21.5 153.6 21.3 153.3 21.2 152.9 C 21.2 152.5 21.2 152.1 21.2 151.6 C 21.2 150.7 21.2 149.8 21.3 148.8 C 21.3 147.8 21.4 146.7 21.6 145.6 C 21.7 144.5 21.9 143.4 22.1 142.3 C 22.3 141.2 22.6 140 22.9 138.9 C 23.5 136.6 24.3 134.4 25.2 132.4 C 26.1 130.4 27 128.6 27.9 127 C 29.9 123.9 31.4 122 31.4 122 Z " id="Shape" fill="#59402F" stroke-width="1"/>
        <path d="M 74.1 93.8 C 74.1 93.8 74.7 98.7 75.1 106 C 75.3 109.7 75.4 114 74.9 118.5 C 74.7 120.8 74.3 123.1 73.5 125.4 C 73.1 126.5 72.5 127.5 71.6 128.3 C 70.8 129.2 69.9 130 69 130.8 C 65.3 134.1 61.4 137 57.8 139.8 C 54.1 142.6 50.7 145.2 47.9 147.6 C 46.5 148.8 45.3 150 44.2 151 C 43.7 151.5 43.2 152.1 42.9 152.7 C 42.6 153.3 42.5 153.9 42.6 154.5 C 42.8 155.6 43.2 156.3 43.5 156.8 C 43.8 157.3 43.9 157.6 43.9 157.6 C 43.9 157.6 43.8 157.3 43.5 156.8 C 43.3 156.3 42.9 155.5 42.7 154.5 C 42.7 154 42.7 153.4 43.1 152.8 C 43.4 152.3 43.9 151.8 44.4 151.3 C 45.5 150.3 46.7 149.1 48.1 148 C 50.9 145.7 54.4 143.1 58.1 140.4 C 59.9 139 61.8 137.6 63.7 136.1 C 65.6 134.6 67.5 133.1 69.4 131.4 C 70.3 130.6 71.2 129.7 72.1 128.8 C 73 127.9 73.7 126.8 74.1 125.6 C 75 123.3 75.3 120.9 75.5 118.6 C 75.7 116.3 75.7 114.1 75.7 111.9 C 75.7 109.8 75.6 107.8 75.5 105.9 C 75.3 102.2 74.9 99.2 74.6 97 C 74.3 95 74.1 93.8 74.1 93.8 Z " id="Shape" fill="#59402F" stroke-width="1"/>
        <g id="Group">
          <path d="M 38.1 164 C 38.1 164 38.2 163.7 38.1 163.2 C 38 162.7 37.8 162.1 37.4 161.5 C 37 160.9 36.6 160.5 36.1 160.2 C 35.7 159.9 35.4 159.8 35.4 159.8 C 35.4 159.8 35.4 159.9 35.5 160 C 35.6 160.1 35.7 160.3 35.8 160.5 C 36.1 160.9 36.4 161.4 36.8 161.9 C 37.1 162.4 37.4 163 37.7 163.4 C 38 163.7 38.1 164 38.1 164 Z " id="Shape" fill="#59402F" stroke-width="1"/>
          <path d="M 43.8 164.1 C 43.8 164.1 43.8 163.7 43.6 163.1 C 43.4 162.5 43.1 161.8 42.6 161.2 C 42.4 160.9 42.1 160.6 41.8 160.4 C 41.5 160.2 41.2 160 41 159.8 C 40.7 159.7 40.5 159.6 40.3 159.5 C 40.1 159.4 40 159.4 40 159.4 C 40 159.4 40.1 159.5 40.2 159.6 C 40.3 159.7 40.5 159.9 40.7 160.1 C 41.1 160.5 41.6 161 42 161.6 C 42.4 162.2 42.9 162.8 43.2 163.2 C 43.5 163.8 43.8 164.1 43.8 164.1 Z " id="Shape" fill="#59402F" stroke-width="1"/>
          <path d="M 37.2 165.3 C 37.2 164.7 36.4 162 35.3 161.9 C 34.2 161.9 34.9 163 35.4 163.8 C 35.9 164.6 37.2 165.7 37.2 165.3 Z " id="Shape" fill="#6C5F57" stroke-width="1"/>
          <path d="M 42.7 165 C 42.7 164.4 41.9 161.7 40.8 161.6 C 39.7 161.5 40.4 162.7 40.9 163.5 C 41.4 164.3 42.7 165.4 42.7 165 Z " id="Shape" fill="#6C5F57" stroke-width="1"/>
          <path d="M 46.1 165 C 46.1 164.4 45.3 161.7 44.2 161.6 C 43.1 161.6 43.8 162.7 44.3 163.5 C 44.8 164.2 46.1 165.3 46.1 165 Z " id="Shape" fill="#6C5F57" stroke-width="1"/>
        </g>
        <g id="Group">
          <g id="Shape">
            <path d="M 158.2 99.5 C 150.8 121.2 143.8 125.7 141.8 131.9 C 139.9 138.1 136.5 161.3 137.4 164.4 C 138.3 167.5 143.4 168.2 143.5 171.5 C 143.6 174.8 118 171.5 115.5 169.2 C 113 166.9 105 126.4 110.9 102 C 124.5 56.9 165.6 77.8 158.2 99.5 Z " stroke-width="1" fill="#8D674A"/>
            <path d="M 121.5 82.2 C 121.5 82.2 112.5 91.4 110.2 90.9 C 110.2 90.9 112.2 93 114.2 91.6 C 114.2 91.6 109.6 92.9 108.1 97.2 L 111.1 96.6 C 111.1 96.6 106.4 102.5 106.3 106.8 L 109.5 104 C 109.5 104 105.5 110 109.3 114.1 " stroke-width="1" fill="#8D674A"/>
          </g>
          <g id="Shape">
            <path d="M 109.5 91.2 C 109.5 91.2 109.7 91.2 110 91.2 C 110.3 91.1 110.8 91 111.3 90.7 C 112.3 90.2 113.6 89.3 114.7 88.3 C 115.3 87.8 115.8 87.3 116.3 86.8 C 116.8 86.3 117.2 85.8 117.6 85.4 C 118.3 84.5 118.8 83.9 118.8 83.9 C 118.8 83.9 118.2 84.4 117.3 85.1 C 116.4 85.8 115.3 86.9 114.2 87.8 C 113.6 88.3 113.1 88.8 112.5 89.2 C 112 89.6 111.4 90 111 90.4 C 110.5 90.7 110.1 91 109.8 91.1 C 109.7 91.2 109.5 91.2 109.5 91.2 Z " stroke-width="1" fill="#59402F"/>
            <path d="M 107.5 97.5 C 107.5 97.5 107.7 97.1 108.1 96.6 C 108.5 96.1 109 95.3 109.5 94.7 C 109.8 94.4 110.1 94.1 110.4 93.8 C 110.7 93.5 111 93.3 111.2 93.1 C 111.5 92.9 111.7 92.7 111.9 92.6 C 112.1 92.5 112.2 92.4 112.2 92.4 C 112.2 92.4 112.1 92.4 111.9 92.5 C 111.7 92.5 111.4 92.6 111.1 92.7 C 110.8 92.8 110.4 93 110.1 93.3 C 109.7 93.5 109.4 93.9 109.1 94.2 C 108.8 94.6 108.5 94.9 108.3 95.3 C 108.1 95.7 107.9 96 107.8 96.4 C 107.5 97.1 107.5 97.5 107.5 97.5 Z " stroke-width="1" fill="#59402F"/>
            <path d="M 106 106.7 C 106 106.7 106 106 106.2 105 C 106.3 104.5 106.5 104 106.7 103.4 C 106.9 102.8 107.2 102.2 107.5 101.6 C 107.8 101 108.1 100.4 108.4 99.8 C 108.7 99.2 109 98.7 109.3 98.3 C 109.6 97.9 109.8 97.5 109.9 97.2 C 110 96.9 110.1 96.8 110.1 96.8 C 110.1 96.8 110 96.9 109.8 97.1 C 109.6 97.3 109.3 97.6 109 98 C 108.7 98.4 108.3 98.9 107.9 99.4 C 107.5 99.9 107.2 100.5 106.9 101.2 C 106.6 101.8 106.3 102.5 106.1 103.1 C 105.9 103.7 105.8 104.3 105.7 104.9 C 105.6 105.4 105.7 105.9 105.7 106.2 C 105.9 106.6 106 106.7 106 106.7 Z " stroke-width="1" fill="#59402F"/>
            <path d="M 108.7 114.1 C 108.7 114.1 108.3 113.6 108 112.7 C 107.9 112.3 107.8 111.7 107.7 111.2 C 107.7 110.6 107.7 110 107.8 109.4 C 107.8 109.1 107.9 108.8 107.9 108.5 C 107.9 108.2 108 107.9 108.1 107.6 C 108.2 107 108.4 106.5 108.5 106 C 108.6 105.5 108.7 105.2 108.8 104.9 C 108.9 104.6 108.9 104.5 108.9 104.5 C 108.9 104.5 108.8 104.6 108.7 104.9 C 108.6 105.1 108.3 105.5 108.1 105.9 C 107.9 106.3 107.7 106.9 107.5 107.4 C 107.4 107.7 107.3 108 107.3 108.3 C 107.2 108.6 107.2 108.9 107.1 109.3 C 107 110 107 110.6 107.1 111.2 C 107.1 111.5 107.2 111.8 107.3 112.1 C 107.4 112.4 107.5 112.6 107.6 112.8 C 107.8 113.2 108.1 113.6 108.3 113.8 C 108.6 114.1 108.7 114.1 108.7 114.1 Z " stroke-width="1" fill="#59402F"/>
          </g>
        </g>
        <path d="M 141.3 168.1 C 141.3 168.1 141.1 168 140.7 167.7 C 140.3 167.4 139.8 167.1 139.2 166.5 C 138.6 165.9 138 165.1 137.5 164 C 137.3 163.5 137.2 162.9 137.2 162.2 C 137.2 161.6 137.3 160.9 137.4 160.2 C 137.7 157.3 138.2 154 138.7 150.4 C 139.2 146.8 139.8 143 140.6 139.3 C 141 137.4 141.5 135.6 142 133.8 C 142.6 132 143.3 130.3 144.1 128.7 C 145.7 125.5 147.4 122.6 148.9 120.1 C 150.4 117.6 151.5 115.4 152.1 113.9 C 152.4 113.1 152.7 112.5 152.9 112.1 C 153.1 111.7 153.2 111.5 153.2 111.5 C 153.2 111.5 153.1 111.7 152.9 112.1 C 152.7 112.5 152.4 113.1 152.1 113.9 C 151.7 114.7 151.2 115.6 150.7 116.6 C 150.1 117.6 149.4 118.7 148.7 120 C 147.2 122.5 145.3 125.3 143.7 128.6 C 142.9 130.2 142.1 132 141.5 133.8 C 140.9 135.6 140.4 137.5 140 139.4 C 139.2 143.2 138.6 147 138.1 150.6 C 137.6 154.2 137.3 157.5 137 160.4 C 136.9 161.1 136.8 161.8 136.9 162.5 C 136.9 163.2 137.1 163.8 137.3 164.4 C 137.8 165.5 138.5 166.3 139.1 166.9 C 139.7 167.5 140.3 167.8 140.7 168.1 C 141.1 168 141.3 168.1 141.3 168.1 Z " id="Shape" fill="#59402F" stroke-width="1"/>
        <g id="Group">
          <path d="M 135.6 172.6 C 135.6 172.6 135.7 172.3 135.6 171.8 C 135.5 171.3 135.3 170.7 135 170.1 C 134.6 169.5 134.2 169 133.8 168.7 C 133.4 168.4 133.1 168.3 133.1 168.3 C 133.1 168.3 133.1 168.4 133.2 168.5 C 133.3 168.6 133.4 168.8 133.5 169 C 133.8 169.4 134.1 169.9 134.4 170.4 C 134.7 170.9 135 171.5 135.3 171.9 C 135.4 172.3 135.6 172.6 135.6 172.6 Z " id="Shape" fill="#59402F" stroke-width="1"/>
          <path d="M 141.2 172.3 C 141.2 172.3 141.2 171.9 141 171.3 C 140.8 170.7 140.5 170 140 169.4 C 139.8 169.1 139.5 168.8 139.2 168.6 C 138.9 168.4 138.6 168.2 138.4 168 C 138.1 167.9 137.9 167.8 137.8 167.7 C 137.6 167.6 137.5 167.6 137.5 167.6 C 137.5 167.6 137.6 167.7 137.7 167.8 C 137.8 167.9 138 168.1 138.2 168.3 C 138.6 168.7 139.1 169.2 139.5 169.8 C 139.9 170.4 140.3 171 140.6 171.5 C 141 172 141.2 172.3 141.2 172.3 Z " id="Shape" fill="#59402F" stroke-width="1"/>
          <path d="M 134.6 173.9 C 134.6 173.3 133.9 170.6 132.8 170.5 C 131.7 170.4 132.3 171.6 132.8 172.4 C 133.3 173.1 134.5 174.3 134.6 173.9 Z " id="Shape" fill="#6C5F57" stroke-width="1"/>
          <path d="M 140.1 173.7 C 140.1 173.1 139.4 170.4 138.3 170.3 C 137.2 170.2 137.8 171.4 138.3 172.2 C 138.8 172.9 140.1 174.1 140.1 173.7 Z " id="Shape" fill="#6C5F57" stroke-width="1"/>
          <path d="M 143.6 173 C 143.6 172.4 142.9 169.7 141.8 169.6 C 140.7 169.5 141.3 170.7 141.8 171.5 C 142.3 172.2 143.5 173.4 143.6 173 Z " id="Shape" fill="#6C5F57" stroke-width="1"/>
        </g>
        <path d="M 116.5 169.6 C 116.5 169.6 116.4 169.6 116.3 169.6 C 116.2 169.6 116 169.5 115.9 169.3 C 115.6 169 115.2 168.4 114.8 167.7 C 114.1 166.2 113.5 163.8 113 160.9 C 112.4 158 111.8 154.7 111.3 151.1 C 110.7 147.5 110.2 143.6 109.8 139.7 C 109.6 137.8 109.4 135.8 109.3 133.9 C 109.2 132 109.1 130.1 109 128.3 C 109 126.5 109 124.7 109 123 C 109 121.3 109.1 119.7 109.1 118.3 C 109.2 115.4 109.3 112.9 109.5 111.2 C 109.6 109.5 109.8 108.5 109.8 108.5 C 109.8 108.5 109.6 109.5 109.4 111.2 C 109.2 112.9 109 115.3 108.8 118.3 C 108.7 119.8 108.6 121.4 108.5 123 C 108.4 124.7 108.3 126.5 108.4 128.3 C 108.4 130.1 108.5 132 108.6 134 C 108.7 135.9 108.9 137.9 109.1 139.8 C 109.5 143.7 110.1 147.6 110.7 151.2 C 111.3 154.8 112 158.2 112.7 161 C 113.3 163.9 114 166.2 114.8 167.8 C 115.2 168.6 115.6 169.1 116 169.4 C 116.2 169.5 116.3 169.6 116.5 169.6 C 116.5 169.6 116.5 169.6 116.5 169.6 Z " id="Shape" fill="#59402F" stroke-width="1"/>
        <g id="Group">
          <g>
            <path d="M 173.2 23.7 C 193.5 20.9 216.3 32.8 219.4 38.4 C 222.5 44 223.1 57.2 223.1 57.2 C 223.1 57.2 243.6 67.9 243.2 72.2 C 242.8 76.5 236.2 86.3 227.9 86.9 C 219.6 87.5 212.5 88.4 202.8 87.9 C 193.1 87.4 175.7 89.5 166.9 79.7 C 166.9 79.7 168.1 84 169.8 85.2 C 169.8 85.2 158.4 82.6 161.4 71.7 C 161.4 71.7 159.4 73.5 160 79.2 C 160 79.2 153.9 73 157.8 64 C 157.8 64 155.1 68.9 152.4 68.9 C 152.4 68.9 155 65.1 154.9 58.6 C 155 52.2 156.2 26.1 173.2 23.7 Z " id="Shape" fill="#8D674A" stroke-width="1"/>
            <path d="M 176.3 22.8 C 196.7 20.8 216.4 32.7 219.5 38.4 C 222.6 44.1 223.2 57.2 223.2 57.2 C 223.2 57.2 243.6 67.9 243.2 72.2 C 242.8 76.5 236.2 86.3 227.9 86.9 C 219.6 87.5 211 90.4 201.4 89.8 C 191.8 89.2 175.8 89.6 167 79.8 C 167 79.8 168.2 84.1 169.9 85.3 C 169.9 85.3 158.5 82.7 161.5 71.8 C 161.5 71.8 159.5 73.6 160.1 79.3 C 160.1 79.3 154 73.1 157.9 64.1 C 157.9 64.1 155.2 69 152.5 69 C 152.5 69 148 53.8 147.9 47.3 C 147.8 40.8 161.9 24.2 176.3 22.8 Z " id="Shape" fill="#8D674A" stroke-width="1"/>
            <path d="M 243.2 72.2 C 242.8 76.2 237.1 84.9 229.6 86.6 C 227.1 85.2 224.3 83.2 224.1 80.5 C 224.1 80.5 208 69.4 223 57.2 C 223.1 57.2 243.6 67.9 243.2 72.2 Z " id="Shape" fill="#9E7B5C" stroke-width="1"/>
            <path d="M 242.3 75.4 C 243.2 73.8 244.6 72.2 243.7 70.8 C 243.2 70 242 68.5 241 68.5 C 240 68.5 238.5 71.5 241.5 73 C 241.1 74.6 241.7 75.1 242.3 75.4 Z " id="Shape" fill="#332721" stroke-width="1"/>
            <path d="M 236.9 82.2 C 236.9 82.2 236.4 81.9 235.6 81.5 C 235.2 81.3 234.7 81.2 234.2 81 C 233.7 80.9 233.1 80.7 232.5 80.7 C 231.9 80.6 231.3 80.6 230.7 80.6 C 230.1 80.6 229.6 80.7 229.2 80.8 C 228.8 80.9 228.4 81 228.2 81.1 C 228 81.2 227.8 81.3 227.8 81.3 C 227.8 81.3 228 81.3 228.2 81.3 C 228.5 81.3 228.8 81.2 229.2 81.2 C 229.4 81.2 229.6 81.2 229.9 81.2 C 230.1 81.2 230.4 81.2 230.7 81.2 C 231.2 81.2 231.8 81.3 232.4 81.3 C 233.5 81.4 234.7 81.6 235.5 81.8 C 236.3 82.1 236.9 82.2 236.9 82.2 Z " id="Shape" fill="#59402F" stroke-width="1"/>
            <ellipse id="Oval" fill="#332010" transform="matrix(-0.99578304896693,-0.09173941023423098,-0.09173941023423098,0.99578304896693,247.04393983700572,24.980716338296066)" cx="30.9006448" cy="34.6006837" rx="1.70002894" ry="2.60004426" stroke-width="1"/>
            <path d="M 209.9 49.8 C 209.8 50.9 212.9 51.6 214.3 51.7 C 215.7 51.8 217 51.1 217.1 50 C 217.2 48.9 216.1 48 214.7 47.8 C 213.2 47.7 210 48.7 209.9 49.8 Z " id="Shape" fill="#9E7B5C" stroke-width="1"/>
            <path d="M 223.1 57.2 C 223.1 57.2 223.1 56.4 223.1 54.9 C 223 53.5 223 51.4 222.7 48.9 C 222.6 47.7 222.4 46.3 222.1 44.9 C 221.8 43.5 221.5 42 220.9 40.6 C 220.6 39.9 220.3 39.1 219.9 38.4 C 219.4 37.7 219 37.1 218.4 36.4 C 217.3 35.2 216.1 34 214.8 33 C 213.5 32 212.1 31.1 210.7 30.3 C 209.3 29.5 207.9 28.7 206.5 28.1 C 205.1 27.4 203.7 26.9 202.4 26.4 C 201.1 25.9 199.8 25.5 198.6 25.1 C 197.4 24.7 196.3 24.4 195.3 24.2 C 194.3 24 193.5 23.7 192.8 23.6 C 191.4 23.3 190.6 23.1 190.6 23.1 C 190.6 23.1 191.4 23.3 192.8 23.7 C 194.2 24.1 196.2 24.7 198.5 25.4 C 199.7 25.8 200.9 26.2 202.2 26.8 C 203.5 27.3 204.9 27.9 206.3 28.6 C 207.7 29.3 209.1 30 210.5 30.8 C 211.9 31.6 213.2 32.6 214.5 33.5 C 215.8 34.5 217 35.6 218.1 36.8 C 218.6 37.4 219.1 38 219.5 38.7 C 219.9 39.4 220.2 40.1 220.5 40.8 C 221.6 43.7 222.1 46.5 222.4 48.9 C 223 53.9 223.1 57.2 223.1 57.2 Z " id="Shape" fill="#59402F" stroke-width="1"/>
            <path d="M 169.9 85.3 C 169.9 85.3 169.6 85.2 169.2 85.1 C 168.7 85 168.1 84.7 167.3 84.3 C 166.9 84.1 166.5 83.9 166.1 83.6 C 165.7 83.4 165.3 83 164.9 82.7 C 164.5 82.4 164.1 82 163.7 81.6 C 163.3 81.2 163 80.8 162.7 80.3 C 162.4 79.9 162.2 79.3 161.9 78.9 C 161.7 78.4 161.6 77.9 161.4 77.4 C 161.3 76.9 161.3 76.4 161.2 75.9 C 161.1 75.4 161.2 75 161.2 74.5 C 161.2 74.1 161.2 73.7 161.3 73.3 C 161.3 73 161.4 72.7 161.4 72.4 C 161.5 71.9 161.5 71.6 161.5 71.6 C 161.5 71.6 161.4 71.9 161.3 72.4 C 161.2 72.6 161.1 72.9 161.1 73.3 C 161 73.6 160.9 74 160.9 74.5 C 160.9 74.9 160.8 75.4 160.8 75.9 C 160.8 76.4 160.8 76.9 160.9 77.5 C 161.1 78 161.1 78.6 161.4 79.1 C 161.6 79.6 161.8 80.2 162.2 80.7 C 162.5 81.2 162.9 81.6 163.3 82.1 C 163.7 82.5 164.2 82.9 164.6 83.2 C 165.5 83.8 166.4 84.3 167.2 84.6 C 168.7 85.2 169.9 85.3 169.9 85.3 Z " id="Shape" fill="#59402F" stroke-width="1"/>
            <path d="M 160.1 79.3 C 160.1 79.3 159.4 78.6 158.6 77.2 C 158.4 76.9 158.2 76.5 158 76.1 C 157.8 75.7 157.6 75.3 157.5 74.8 C 157.4 74.6 157.3 74.4 157.3 74.1 C 157.2 73.9 157.2 73.6 157.1 73.4 C 157 72.9 156.9 72.4 156.8 71.9 C 156.7 71.4 156.7 70.9 156.7 70.4 C 156.7 69.9 156.7 69.4 156.8 68.9 C 156.9 68.4 156.9 68 157 67.5 C 157.1 67.1 157.2 66.7 157.3 66.3 C 157.4 65.9 157.5 65.6 157.6 65.3 C 157.7 65 157.8 64.7 157.8 64.5 C 157.9 64.1 158 63.8 158 63.8 C 158 63.8 157.9 64 157.7 64.4 C 157.6 64.6 157.5 64.9 157.3 65.1 C 157.1 65.4 157 65.7 156.9 66.1 C 156.8 66.5 156.6 66.9 156.5 67.3 C 156.4 67.7 156.3 68.2 156.2 68.7 C 156.2 69.2 156.1 69.7 156.1 70.2 C 156.1 70.7 156.1 71.2 156.2 71.8 C 156.3 72.3 156.4 72.8 156.5 73.3 C 156.6 73.5 156.6 73.8 156.7 74 C 156.8 74.2 156.9 74.5 157 74.7 C 157.2 75.2 157.4 75.6 157.6 76 C 157.8 76.4 158.1 76.7 158.3 77.1 C 158.8 77.7 159.2 78.2 159.6 78.5 C 159.9 79.1 160.1 79.3 160.1 79.3 Z " id="Shape" fill="#59402F" stroke-width="1"/>
            <path d="M 152.6 68.9 C 152.6 68.9 152.8 68.7 153 68.4 C 153.2 68 153.6 67.5 153.9 66.8 C 154.2 66.1 154.5 65.3 154.7 64.4 C 154.9 63.5 155.1 62.5 155.2 61.6 C 155.3 61.1 155.3 60.6 155.3 60.1 C 155.3 59.6 155.4 59.1 155.4 58.7 C 155.5 57.8 155.4 56.9 155.4 56.2 C 155.4 55.5 155.3 54.9 155.3 54.4 C 155.3 54 155.2 53.7 155.2 53.7 C 155.2 53.7 155.2 53.9 155.1 54.4 C 155.1 54.8 155 55.4 155 56.2 C 155 56.9 154.9 57.8 154.8 58.7 C 154.7 59.6 154.6 60.6 154.5 61.5 C 154.4 62.5 154.3 63.4 154.1 64.3 C 153.9 65.2 153.7 66 153.5 66.7 C 153.3 67.4 153.1 67.9 152.9 68.3 C 152.7 68.7 152.6 68.9 152.6 68.9 Z " id="Shape" fill="#59402F" stroke-width="1"/>
            <path d="M 179 22.8 C 179 22.8 178.6 22.7 177.9 22.6 C 177.6 22.6 177.1 22.6 176.7 22.6 C 176.2 22.6 175.7 22.7 175.1 22.8 C 174.5 22.9 173.9 23 173.2 23.2 C 172.6 23.4 171.9 23.5 171.2 23.8 C 170.5 24 169.8 24.3 169.1 24.6 C 168.4 24.9 167.7 25.3 167 25.6 C 166.3 25.9 165.6 26.4 165 26.7 C 164.3 27.1 163.7 27.5 163.1 27.9 C 161.9 28.7 160.8 29.5 159.9 30.2 C 159.4 30.5 159 30.9 158.7 31.2 C 158.3 31.5 158 31.8 157.8 32 C 157.3 32.4 157 32.7 157 32.7 C 157 32.7 157.3 32.5 157.9 32.1 C 158.2 31.9 158.5 31.7 158.9 31.4 C 159.3 31.1 159.7 30.8 160.2 30.5 C 160.7 30.2 161.2 29.8 161.8 29.5 C 162.3 29.1 163 28.8 163.6 28.4 C 164.2 28 164.8 27.6 165.5 27.3 C 166.2 26.9 166.8 26.5 167.5 26.2 C 168.2 25.9 168.9 25.5 169.6 25.2 C 170.3 24.9 171 24.6 171.6 24.3 C 172.9 23.8 174.2 23.4 175.4 23.1 C 176 23 176.5 22.9 177 22.8 C 177.5 22.7 177.9 22.7 178.2 22.7 C 178.6 22.7 179 22.8 179 22.8 Z " id="Shape" fill="#59402F" stroke-width="1"/>
          </g>
          <g id="Shape">
            <path d="M 192 25.6 C 192 25.6 190.3 17.4 185.7 16.8 C 181.1 16.2 170.4 20.7 178.5 33.4 " fill="#8D674A" stroke-width="1"/>
            <path d="M 185.5 19.3 C 185.5 19.3 185.1 19.9 184.8 20.8 C 184.6 21.3 184.4 21.8 184.3 22.4 C 184.1 23 184 23.7 184 24.4 C 184 24.7 184 25.1 184 25.4 C 184.1 25.7 184.1 26.1 184.2 26.4 C 184.3 26.7 184.4 27 184.5 27.3 C 184.6 27.6 184.7 27.8 184.9 28 C 185.2 28.4 185.4 28.7 185.7 28.9 C 185.9 29.1 186 29.2 186 29.2 C 186 29.2 185.9 29.1 185.8 28.8 C 185.7 28.7 185.6 28.5 185.5 28.4 C 185.4 28.2 185.3 28 185.2 27.8 C 185.1 27.6 185 27.3 185 27.1 C 184.9 26.8 184.9 26.6 184.8 26.3 C 184.7 26 184.7 25.7 184.7 25.4 C 184.7 25.1 184.7 24.8 184.7 24.5 C 184.7 23.9 184.8 23.2 184.9 22.7 C 185 22.1 185.1 21.6 185.2 21.1 C 185.3 20 185.5 19.3 185.5 19.3 Z " fill="#59402F" stroke-width="1"/>
            <g>
              <path d="M 183.2 28.4 C 183.2 28.4 183.2 28.6 183.3 28.7 C 183.4 28.9 183.5 29.1 183.7 29.3 C 183.9 29.5 184.1 29.7 184.3 29.8 C 184.5 29.9 184.6 29.9 184.6 29.9 C 184.6 29.9 184.6 29.7 184.5 29.6 C 184.4 29.4 184.3 29.2 184.1 29 C 183.9 28.8 183.7 28.6 183.5 28.5 C 183.4 28.4 183.2 28.4 183.2 28.4 Z " stroke-width="1" fill="#59402F"/>
              <path d="M 182 29.7 C 182 29.7 182 29.8 182.1 30 C 182.2 30.2 182.3 30.3 182.4 30.5 C 182.5 30.6 182.7 30.8 182.9 30.8 C 183.1 30.9 183.2 30.9 183.2 30.9 C 183.2 30.9 183.2 30.8 183.1 30.6 C 183 30.4 182.9 30.3 182.8 30.1 C 182.7 30 182.5 29.8 182.3 29.8 C 182.2 29.7 182 29.7 182 29.7 Z " stroke-width="1" fill="#59402F"/>
            </g>
            <path d="M 179.1 18.5 C 179.1 18.5 179.4 18.4 179.8 18.1 C 180.3 17.9 181 17.6 181.8 17.4 C 182 17.3 182.2 17.3 182.5 17.2 C 182.7 17.2 183 17.1 183.2 17.1 C 183.4 17.1 183.7 17.1 184 17.1 C 184.3 17.1 184.5 17.1 184.8 17.1 C 185.1 17.1 185.3 17.2 185.6 17.2 C 185.9 17.3 186.1 17.4 186.4 17.4 C 186.7 17.5 186.9 17.6 187.2 17.7 C 187.4 17.8 187.7 17.9 187.9 18.1 C 188.2 18.7 188.7 19 189 19.4 C 189.4 19.8 189.7 20.2 190 20.7 C 190.2 21.2 190.6 21.6 190.7 22.1 C 190.9 22.6 191.1 23 191.3 23.4 C 191.5 23.8 191.6 24.2 191.7 24.5 C 191.8 24.8 191.9 25.1 192 25.4 C 192.2 25.9 192.3 26.2 192.3 26.2 C 192.3 26.2 192.3 25.9 192.2 25.4 C 192.2 25.1 192.1 24.8 192 24.5 C 191.9 24.1 191.9 23.7 191.7 23.3 C 191.6 22.9 191.4 22.4 191.2 21.9 C 191.1 21.4 190.8 20.9 190.5 20.4 C 190.3 19.9 189.9 19.4 189.5 18.9 C 189.2 18.4 188.6 18 188.2 17.6 C 188 17.4 187.7 17.3 187.4 17.1 C 187.1 17 186.9 16.8 186.6 16.7 C 186.3 16.6 186 16.5 185.7 16.5 C 185.4 16.5 185.1 16.4 184.8 16.4 C 184.5 16.4 184.2 16.4 184 16.4 C 183.7 16.4 183.5 16.4 183.2 16.5 C 182.9 16.6 182.7 16.6 182.5 16.7 C 182.1 17 181.9 17 181.7 17.1 C 181.3 17.2 180.9 17.4 180.6 17.6 C 180.3 17.8 180 17.9 179.8 18.1 C 179.3 18.3 179.1 18.5 179.1 18.5 Z " fill="#59402F" stroke-width="1"/>
          </g>
        </g>
        <g id="Group">
          <g>
            <path d="M 173.2 23.7 C 193.5 20.9 216.3 32.8 219.4 38.4 C 222.5 44 223.1 57.2 223.1 57.2 C 223.1 57.2 243.6 68 243.2 72.2 C 242.8 76.4 236.2 86.3 227.9 86.9 C 219.6 87.5 212.5 88.4 202.8 87.9 C 193.2 87.4 175.7 89.5 166.9 79.7 C 166.9 79.7 168.1 84 169.8 85.2 C 169.8 85.2 158.4 82.6 161.4 71.7 C 161.4 71.7 159.4 73.5 160 79.2 C 160 79.2 153.9 73 157.8 64 C 157.8 64 155.1 68.9 152.4 68.9 C 152.4 68.9 155 65.1 154.9 58.6 C 155 52.2 156.2 26.1 173.2 23.7 Z " id="Shape" fill="#8D674A" stroke-width="1"/>
            <path d="M 176.3 22.8 C 196.7 20.8 216.4 32.7 219.5 38.4 C 222.6 44.1 223.2 57.2 223.2 57.2 C 223.2 57.2 243.6 68 243.2 72.2 C 242.8 76.4 236.2 86.3 227.9 86.9 C 219.6 87.5 211 90.4 201.4 89.8 C 191.8 89.2 175.8 89.6 167 79.8 C 167 79.8 168.2 84.1 169.9 85.3 C 169.9 85.3 158.5 82.7 161.5 71.8 C 161.5 71.8 159.5 73.6 160.1 79.3 C 160.1 79.3 154 73.1 157.9 64.1 C 157.9 64.1 155.2 69 152.5 69 C 152.5 69 148 53.8 147.9 47.3 C 147.8 40.8 161.9 24.2 176.3 22.8 Z " id="Shape" fill="#8D674A" stroke-width="1"/>
            <path d="M 243.2 72.2 C 242.8 76.2 237.1 84.9 229.6 86.6 C 227.1 85.2 224.3 83.2 224.1 80.5 C 224.1 80.5 208 69.4 223 57.2 C 223.1 57.2 243.6 68 243.2 72.2 Z " id="Shape" fill="#9E7B5C" stroke-width="1"/>
            <path d="M 242.3 75.4 C 243.2 73.8 244.6 72.2 243.7 70.8 C 243.2 70 242 68.5 241 68.5 C 240 68.5 238.5 71.5 241.5 73 C 241.1 74.6 241.7 75.1 242.3 75.4 Z " id="Shape" fill="#332721" stroke-width="1"/>
            <path d="M 236.9 82.2 C 236.9 82.2 236.4 81.9 235.6 81.5 C 235.2 81.3 234.7 81.2 234.2 81 C 233.7 80.9 233.1 80.7 232.5 80.7 C 231.9 80.6 231.3 80.6 230.7 80.6 C 230.1 80.6 229.6 80.7 229.2 80.8 C 228.8 80.9 228.4 81 228.2 81.1 C 228 81.2 227.8 81.3 227.8 81.3 C 227.8 81.3 228 81.3 228.2 81.3 C 228.5 81.3 228.8 81.2 229.2 81.2 C 229.4 81.2 229.6 81.2 229.9 81.2 C 230.1 81.2 230.4 81.2 230.7 81.2 C 231.2 81.2 231.8 81.3 232.4 81.3 C 233.5 81.4 234.7 81.6 235.5 81.8 C 236.3 82.1 236.9 82.2 236.9 82.2 Z " id="Shape" fill="#59402F" stroke-width="1"/>
            <ellipse id="Oval" fill="#332010" transform="matrix(-0.99578304896693,-0.09173941023423098,-0.09173941023423098,0.99578304896693,247.04393066306469,24.98071591660096)" cx="30.9006448" cy="34.6005837" rx="1.70002894" ry="2.60004426" stroke-width="1"/>
            <path d="M 209.9 49.8 C 209.8 50.9 212.9 51.6 214.3 51.7 C 215.7 51.8 217 51.1 217.1 50 C 217.2 48.9 216.1 48 214.7 47.8 C 213.2 47.7 210 48.7 209.9 49.8 Z " id="Shape" fill="#9E7B5C" stroke-width="1"/>
            <path d="M 223.1 57.2 C 223.1 57.2 223.1 56.4 223.1 54.9 C 223 53.5 223 51.4 222.7 48.9 C 222.6 47.7 222.4 46.3 222.1 44.9 C 221.8 43.5 221.5 42 220.9 40.6 C 220.6 39.9 220.3 39.1 219.9 38.4 C 219.4 37.7 219 37.1 218.4 36.4 C 217.3 35.2 216.1 34 214.8 33 C 213.5 32 212.1 31.1 210.7 30.3 C 209.3 29.5 207.9 28.7 206.5 28.1 C 205.1 27.4 203.7 26.9 202.4 26.4 C 201.1 25.9 199.8 25.5 198.6 25.1 C 197.4 24.7 196.3 24.4 195.3 24.2 C 194.3 24 193.5 23.7 192.8 23.6 C 191.4 23.3 190.6 23.1 190.6 23.1 C 190.6 23.1 191.4 23.3 192.8 23.7 C 194.2 24.1 196.2 24.7 198.5 25.4 C 199.7 25.8 200.9 26.2 202.2 26.8 C 203.5 27.3 204.9 27.9 206.3 28.6 C 207.7 29.3 209.1 30 210.5 30.8 C 211.9 31.6 213.2 32.6 214.5 33.5 C 215.8 34.5 217 35.6 218.1 36.8 C 218.6 37.4 219.1 38 219.5 38.7 C 219.9 39.4 220.2 40.1 220.5 40.8 C 221.6 43.7 222.1 46.5 222.4 48.9 C 223 53.9 223.1 57.2 223.1 57.2 Z " id="Shape" fill="#59402F" stroke-width="1"/>
            <path d="M 169.9 85.3 C 169.9 85.3 169.6 85.2 169.2 85.1 C 168.7 85 168.1 84.7 167.3 84.3 C 166.9 84.1 166.5 83.9 166.1 83.6 C 165.7 83.4 165.3 83 164.9 82.7 C 164.5 82.4 164.1 82 163.7 81.6 C 163.3 81.2 163 80.8 162.7 80.3 C 162.4 79.9 162.2 79.3 161.9 78.9 C 161.7 78.4 161.6 77.9 161.4 77.4 C 161.3 76.9 161.3 76.4 161.2 75.9 C 161.1 75.4 161.2 75 161.2 74.5 C 161.2 74.1 161.2 73.7 161.3 73.3 C 161.3 73 161.4 72.7 161.4 72.4 C 161.5 71.9 161.5 71.6 161.5 71.6 C 161.5 71.6 161.4 71.9 161.3 72.4 C 161.2 72.6 161.1 72.9 161.1 73.3 C 161 73.6 160.9 74 160.9 74.5 C 160.9 74.9 160.8 75.4 160.8 75.9 C 160.8 76.4 160.8 76.9 160.9 77.5 C 161.1 78 161.1 78.6 161.4 79.1 C 161.6 79.6 161.8 80.2 162.2 80.7 C 162.5 81.2 162.9 81.6 163.3 82.1 C 163.7 82.5 164.2 82.9 164.6 83.2 C 165.5 83.8 166.4 84.3 167.2 84.6 C 168.7 85.3 169.9 85.3 169.9 85.3 Z " id="Shape" fill="#59402F" stroke-width="1"/>
            <path d="M 160.1 79.3 C 160.1 79.3 159.4 78.6 158.6 77.2 C 158.4 76.9 158.2 76.5 158 76.1 C 157.8 75.7 157.6 75.3 157.5 74.8 C 157.4 74.6 157.3 74.4 157.3 74.1 C 157.2 73.9 157.2 73.6 157.1 73.4 C 157 72.9 156.9 72.4 156.8 71.9 C 156.7 71.4 156.7 70.9 156.7 70.4 C 156.7 69.9 156.7 69.4 156.8 68.9 C 156.9 68.4 156.9 68 157 67.5 C 157.1 67.1 157.2 66.7 157.3 66.3 C 157.4 65.9 157.5 65.6 157.6 65.3 C 157.7 65 157.8 64.7 157.8 64.5 C 157.9 64.1 158 63.8 158 63.8 C 158 63.8 157.9 64 157.7 64.4 C 157.6 64.6 157.5 64.9 157.3 65.1 C 157.1 65.4 157 65.7 156.9 66.1 C 156.8 66.5 156.6 66.9 156.5 67.3 C 156.4 67.7 156.3 68.2 156.2 68.7 C 156.2 69.2 156.1 69.7 156.1 70.2 C 156.1 70.7 156.1 71.2 156.2 71.8 C 156.3 72.3 156.4 72.8 156.5 73.3 C 156.6 73.5 156.6 73.8 156.7 74 C 156.8 74.2 156.9 74.5 157 74.7 C 157.2 75.2 157.4 75.6 157.6 76 C 157.8 76.4 158.1 76.7 158.3 77.1 C 158.8 77.7 159.2 78.2 159.6 78.5 C 159.9 79.1 160.1 79.3 160.1 79.3 Z " id="Shape" fill="#59402F" stroke-width="1"/>
            <path d="M 152.6 69 C 152.6 69 152.8 68.8 153 68.5 C 153.2 68.1 153.6 67.6 153.9 66.9 C 154.2 66.2 154.5 65.4 154.7 64.5 C 154.9 63.6 155.1 62.6 155.2 61.7 C 155.3 61.2 155.3 60.7 155.3 60.2 C 155.3 59.7 155.4 59.2 155.4 58.8 C 155.5 57.9 155.4 57 155.4 56.3 C 155.4 55.6 155.3 55 155.3 54.5 C 155.3 54.1 155.2 53.8 155.2 53.8 C 155.2 53.8 155.2 54 155.1 54.5 C 155.1 54.9 155 55.5 155 56.3 C 155 57 154.9 57.9 154.8 58.8 C 154.7 59.7 154.6 60.7 154.5 61.6 C 154.4 62.6 154.3 63.5 154.1 64.4 C 153.9 65.3 153.7 66.1 153.5 66.8 C 153.3 67.5 153.1 68 152.9 68.4 C 152.7 68.8 152.6 69 152.6 69 Z " id="Shape" fill="#59402F" stroke-width="1"/>
            <path d="M 179 22.8 C 179 22.8 178.6 22.7 177.9 22.6 C 177.6 22.6 177.1 22.6 176.7 22.6 C 176.2 22.6 175.7 22.7 175.1 22.8 C 174.5 22.9 173.9 23 173.2 23.2 C 172.6 23.4 171.9 23.5 171.2 23.8 C 170.5 24 169.8 24.3 169.1 24.6 C 168.4 24.9 167.7 25.3 167 25.6 C 166.3 25.9 165.6 26.4 165 26.7 C 164.3 27.1 163.7 27.5 163.1 27.9 C 161.9 28.7 160.8 29.5 159.9 30.2 C 159.4 30.5 159 30.9 158.7 31.2 C 158.3 31.5 158 31.8 157.8 32 C 157.3 32.4 157 32.7 157 32.7 C 157 32.7 157.3 32.5 157.9 32.1 C 158.2 31.9 158.5 31.7 158.9 31.4 C 159.3 31.1 159.7 30.8 160.2 30.5 C 160.7 30.2 161.2 29.8 161.8 29.5 C 162.3 29.1 163 28.8 163.6 28.4 C 164.2 28 164.8 27.6 165.5 27.3 C 166.2 26.9 166.8 26.5 167.5 26.2 C 168.2 25.9 168.9 25.5 169.6 25.2 C 170.3 24.9 171 24.6 171.6 24.3 C 172.9 23.8 174.2 23.4 175.4 23.1 C 176 23 176.5 22.9 177 22.8 C 177.5 22.7 177.9 22.7 178.2 22.7 C 178.6 22.7 179 22.8 179 22.8 Z " id="Shape" fill="#59402F" stroke-width="1"/>
          </g>
          <g id="Shape">
            <path d="M 192 25.6 C 192 25.6 190.3 17.4 185.7 16.8 C 181.1 16.2 170.4 20.7 178.5 33.4 " fill="#8D674A" stroke-width="1"/>
            <path d="M 185.5 19.4 C 185.5 19.4 185.1 20 184.8 20.9 C 184.6 21.4 184.4 21.9 184.3 22.5 C 184.1 23.1 184 23.7 184 24.4 C 184 24.7 184 25.1 184 25.4 C 184.1 25.7 184.1 26.1 184.2 26.4 C 184.3 26.7 184.4 27 184.5 27.3 C 184.6 27.6 184.7 27.8 184.9 28 C 185.2 28.4 185.4 28.7 185.7 28.9 C 185.9 29.1 186 29.2 186 29.2 C 186 29.2 185.9 29.1 185.8 28.8 C 185.7 28.7 185.6 28.5 185.5 28.4 C 185.4 28.2 185.3 28 185.2 27.8 C 185.1 27.6 185 27.3 185 27.1 C 184.9 26.8 184.9 26.6 184.8 26.3 C 184.7 26 184.7 25.7 184.7 25.4 C 184.7 25.1 184.7 24.8 184.7 24.5 C 184.7 23.9 184.8 23.2 184.9 22.7 C 184.9 22 185 21.4 185.1 20.9 C 185.3 20 185.5 19.4 185.5 19.4 Z " fill="#59402F" stroke-width="1"/>
            <g>
              <path d="M 183.2 28.4 C 183.2 28.4 183.2 28.6 183.3 28.7 C 183.4 28.9 183.5 29.1 183.7 29.3 C 183.9 29.5 184.1 29.7 184.3 29.8 C 184.5 29.9 184.6 29.9 184.6 29.9 C 184.6 29.9 184.6 29.7 184.5 29.6 C 184.4 29.4 184.3 29.2 184.1 29 C 183.9 28.8 183.7 28.6 183.5 28.5 C 183.4 28.4 183.2 28.4 183.2 28.4 Z " stroke-width="1" fill="#59402F"/>
              <path d="M 182 29.7 C 182 29.7 182 29.8 182.1 30 C 182.2 30.2 182.3 30.3 182.4 30.5 C 182.5 30.6 182.7 30.8 182.9 30.8 C 183.1 30.9 183.2 30.9 183.2 30.9 C 183.2 30.9 183.2 30.8 183.1 30.6 C 183 30.4 182.9 30.3 182.8 30.1 C 182.7 30 182.5 29.8 182.3 29.8 C 182.2 29.7 182 29.7 182 29.7 Z " stroke-width="1" fill="#59402F"/>
            </g>
            <path d="M 179.1 18.5 C 179.1 18.5 179.4 18.4 179.8 18.1 C 180.3 17.9 181 17.6 181.8 17.4 C 182 17.3 182.2 17.3 182.5 17.2 C 182.7 17.2 183 17.1 183.2 17.1 C 183.4 17.1 183.7 17.1 184 17.1 C 184.3 17.1 184.5 17.1 184.8 17.1 C 185.1 17.1 185.3 17.2 185.6 17.2 C 185.9 17.3 186.1 17.4 186.4 17.4 C 186.7 17.5 186.9 17.6 187.2 17.7 C 187.4 17.8 187.7 17.9 187.9 18.1 C 188.2 18.7 188.7 19 189 19.4 C 189.4 19.8 189.7 20.2 190 20.7 C 190.2 21.2 190.6 21.6 190.7 22.1 C 190.9 22.6 191.1 23 191.3 23.4 C 191.5 23.8 191.6 24.2 191.7 24.5 C 191.8 24.8 191.9 25.1 192 25.4 C 192.2 25.9 192.3 26.2 192.3 26.2 C 192.3 26.2 192.3 25.9 192.2 25.4 C 192.2 25.1 192.1 24.8 192 24.5 C 191.9 24.1 191.9 23.7 191.7 23.3 C 191.6 22.9 191.4 22.4 191.2 21.9 C 191.1 21.4 190.8 20.9 190.5 20.4 C 190.3 19.9 189.9 19.4 189.5 18.9 C 189.2 18.4 188.6 18 188.2 17.6 C 188 17.4 187.7 17.3 187.4 17.1 C 187.1 17 186.9 16.8 186.6 16.7 C 186.3 16.6 186 16.5 185.7 16.5 C 185.4 16.5 185.1 16.4 184.8 16.4 C 184.5 16.4 184.2 16.4 184 16.4 C 183.7 16.4 183.5 16.4 183.2 16.5 C 182.9 16.6 182.7 16.6 182.5 16.7 C 182.1 17 181.9 17 181.7 17.1 C 181.3 17.2 180.9 17.4 180.6 17.6 C 180.3 17.8 180 17.9 179.8 18.1 C 179.3 18.3 179.1 18.5 179.1 18.5 Z " fill="#59402F" stroke-width="1"/>
          </g>
        </g>
      </g>
    </g>
  </g>
</svg>