<svg version="1.1" xmlns="http://www.w3.org/2000/svg" xmlns:xlink="http://www.w3.org/1999/xlink" width="113.34476" height="190.33068" viewBox="0,0,113.34476,190.33068"><g transform="translate(-184.55746,-83.4112)"><g data-paper-data="{&quot;isPaintingLayer&quot;:true}" fill="none" fill-rule="nonzero" stroke="none" stroke-width="1" stroke-linecap="butt" stroke-linejoin="miter" stroke-miterlimit="10" stroke-dasharray="" stroke-dashoffset="0" font-family="none" font-weight="none" font-size="none" text-anchor="none" style="mix-blend-mode: normal"><g id="Group"><path d="M222.55,234.65201l-0.75,2.478l-1.95,7.508l0.225,3.829l0.75,0.976h3.375l2.925,0.525l2.174,0.826l0.9,3.228l-0.6,4.205l-2.625,4.955l-5.925,4.355l-3.525,0.826l-2.025,-1.127l-1.275,-1.501l-5.85,5.255l-3.525,1.352l-3.525,-0.526l-2.55,-1.276l-2.175,-2.027l-0.6,-1.802v-2.853l-2.025,0.826h-3.15l-2.842,-2.103l-1.733,-3.153l-0.675,-3.003l0.6,-2.703l2.775,-3.679l0.825,-0.976c0,0 -2.7,-2.552 -2.7,-2.778c0,-0.225 0,-2.552 0,-2.552l2.175,-3.529l4.725,-2.703l3.45,-0.375l3.225,1.051l2.063,-2.703l3.413,-1.426l3.525,0.75l3.825,6.457l0.975,1.051l7.35,-7.508z" id="Shape" fill="#ffffff"/><path d="M214.002,267.24701c-0.161,0.106 -0.33,0.184 -0.457,0.306c-1.397,1.343 -2.693,2.811 -4.202,4.01c-1.58,1.254 -3.43,2.063 -5.517,2.169c-2.737,0.138 -4.773,-1.186 -6.651,-3c-1.357,-1.312 -2.434,-2.715 -2.604,-4.711c-1.162,-0.062 -2.312,-0.056 -3.441,-0.201c-1.642,-0.212 -2.909,-1.085 -3.898,-2.419c-1.143,-1.542 -2.292,-3.077 -2.566,-5.046c-0.281,-2.02 -0.023,-3.973 0.851,-5.823c0.283,-0.597 0.632,-1.17 1.011,-1.713c0.484,-0.695 1.258,-0.925 1.746,-1.566c-1.882,-0.559 -2.977,-3.107 -2.586,-4.908c0.685,-3.151 2.504,-5.502 5.43,-6.812c1.779,-0.796 3.561,-1.848 5.645,-1.589c1.042,0.128 2.065,0.406 3.109,0.618c1.106,-0.876 2.288,-1.961 3.617,-2.821c1.423,-0.922 3.106,-0.795 4.69,-0.524c1.955,0.334 3.48,3.044 4.351,4.569c0.571,1 1.156,2.269 1.925,3.125c1.038,-0.587 1.735,-1.779 2.577,-2.606c0.903,-0.888 1.857,-1.743 2.753,-2.65c0.664,-0.674 1.249,-1.406 2.067,-1.868c0.14,-0.08 1.933,-0.927 1.96,-0.397c0.062,1.214 -0.553,2.301 -1.024,3.376c-0.446,1.018 -0.788,2.124 -1.137,3.186c-0.788,2.399 -1.152,4.947 -0.515,7.427c0.194,0.752 0.312,1.478 1.601,1.365c1.77,-0.156 3.648,-0.075 5.361,0.366c1.827,0.471 2.882,2.004 2.961,3.945c0.145,3.554 -1.067,6.695 -2.706,9.832c-0.979,1.873 -2.755,2.495 -4.031,3.823c-0.102,0.106 -0.286,0.14 -0.37,0.254c-1.28,1.708 -3.35,1.81 -5.126,2.396c-2.295,0.757 -3.423,-0.049 -4.558,-1.864c-0.054,-0.085 -0.152,-0.145 -0.266,-0.249zM220.525,237.80101c-1.651,1.74 -3.082,3.356 -4.634,4.847c-1.26,1.212 -2.459,0.832 -3.111,-0.756c-0.561,-1.365 -1.092,-2.783 -1.908,-3.992c-1.046,-1.552 -2.127,-3.12 -4.497,-2.95c-1.755,0.127 -4.03,1.839 -4.269,3.564c-0.06,0.436 -0.459,0.946 -0.848,1.175c-0.32,0.188 -1.032,0.192 -1.265,-0.036c-1.234,-1.208 -2.492,-1.87 -4.349,-1.471c-3.252,0.697 -6.038,1.873 -7.398,5.214c-0.549,1.347 -0.505,2.597 0.16,3.887c0.533,1.036 1.517,0.782 2.356,0.956c0.325,0.067 0.665,0.063 0.995,0.115c1.064,0.17 1.383,0.8 0.954,1.763c-0.43,0.962 -1.332,0.722 -2.058,0.796c-1.208,0.124 -2.18,0.471 -2.874,1.577c-1.786,2.846 -1.543,5.716 0.183,8.351c1.605,2.45 3.068,4.273 6.985,2.682c0.65,-0.263 1.152,-0.876 1.79,-1.188c0.408,-0.199 1.031,-0.328 1.398,-0.153c0.516,0.246 0.738,0.778 0.2,1.374c-0.333,0.371 -0.464,0.919 -0.778,1.314c-1.184,1.486 -0.56,2.62 0.392,3.63c0.587,0.622 1.22,1.216 1.903,1.729c1.386,1.041 3.015,1.54 4.684,1.168c1.068,-0.237 2.064,-0.931 3.011,-1.546c2.232,-1.448 4.284,-3.071 5.402,-5.635c0.223,-0.513 0.924,-0.988 1.487,-1.114c0.319,-0.071 0.936,0.526 1.184,0.957c0.362,0.628 0.414,1.436 0.779,2.061c0.438,0.751 1.082,1.447 2.094,1.214c2.856,-0.659 5.225,-2.212 7.271,-4.251c1.639,-1.634 2.496,-3.725 3.007,-5.943c0.307,-1.33 0.657,-2.702 0.621,-4.047c-0.04,-1.567 -1.408,-2.63 -2.961,-2.465c-1.102,0.117 -2.179,0.5 -3.26,0.79c-1.123,0.302 -2.546,-0.226 -3.068,-1.242c-1.109,-2.154 -1.425,-4.453 -0.954,-6.816c0.355,-1.784 0.868,-3.537 1.376,-5.559z" id="Shape" fill="#30419a"/></g><path d="M239.725,209.88301l1.875,9.31l-0.45,1.351l-13.65,-0.676l-2.1,-0.976l-0.75,-1.426l6.421,-9.16l8.654,1.577" id="Shape" fill="#ef463c"/><g><path d="M276.84999,117.38601l1.575,2.252l1.05,42.42l-0.75,3.904l-24.525,7.358l-0.825,2.402l2.475,2.328l3.283,2.552l4.742,2.027l4.275,0.901l2.85,0.526l3.3,0.375l1.204,3.679l-0.529,2.252l-3.975,0.826l-6.675,-1.201l-5.706,-2.478l-4.044,-2.552l-1.95,7.733l-2.475,6.682l-5.1,7.658l-5.475,2.327l-5.025,-0.45l-3.6,-1.802l-3.375,-4.655l-0.9,-6.081l0.75,-4.28l0.15,-2.027l-6.9,2.102l-9.375,1.652l-2.925,-1.276l3.525,-5.481h3.45l7.05,-1.201l7.875,-5.256l1.8,-3.078l0.15,-1.577l-16.35,-7.658l-2.475,-1.501l-0.6,-1.051v-26.536v-20.313l16.35,-5.106l27.75,-3.604l19.95,7.208" id="Shape" fill="#afd7f2"/><path d="M189.775,155.601l1.05,-2.177l10.575,-7.303l11.175,-7.338l5.025,-1.801l6.375,1.201l3.375,4.054l1.35,7.808l-2.175,6.907l-4.575,3.154h-8.7l-20.85,-3.078l-2.625,-1.427" id="Shape" fill="#f7ec1e"/><path d="M241.15,86.15301l1.793,-1.501l12.607,22.824l3.256,7.432l-2.206,2.403l-6.45,2.327l-7.207,0.901c0,0 -6.668,-1.952 -6.743,-1.952c-0.075,0 -2.325,-2.477 -2.85,-3.604c-0.525,-1.126 0.675,-4.805 0.675,-4.805z" id="Shape" fill="#f7ec1e"/><path d="M278.575,127.89701l9.15,1.051l9.15,2.778l-2.55,3.454l-14.85,12.162l-0.9,-19.445" id="Shape" fill="#f7ec1e"/><path d="M254.05,183.15501v4.204l-1.5,2.928l-3,0.601l-2.7,-0.901l-1.8,-3.078v-3.078l2.85,-2.328l3.375,-0.976l2.775,2.628" id="Shape" fill="#f7ec1e"/><path d="M253.75,141.05001l-3.45,2.764c0,0 -5.1,1.426 -6.32,1.426c-1.221,0 -2.68,-2.778 -3.28,-3.604c-0.6,-0.825 -0.15,-3.904 0,-4.654c0.15,-0.751 11.175,-3.304 11.175,-3.304z" id="Shape" fill="#ffffff"/><path d="M273.325,136.53101c0,0 -5.55,3.078 -5.775,2.928c-0.225,-0.15 -3.825,0.601 -3.825,0.601l-1.777,-1.277l-0.773,-2.777l0.773,-2.929l3.727,-2.552l4.575,-0.751z" id="Shape" fill="#ffffff"/><path d="M272.65,162.28301l-24.6,6.832c0,0 -1.575,-0.375 -1.575,-0.6c0,-0.226 -1.425,-13.59 -1.425,-13.59l27,-7.057z" id="Shape" fill="#fcf6b6"/><path d="M211.45,183.00501v3.528l-0.825,3.304l-2.25,2.177l-3.9,1.727h-4.8l-3.675,-0.676l-2.025,-3.078c0,0 0,-1.951 0,-1.99c0,-0.039 1.575,-1.389 1.575,-1.389h1.95c0,0 6.15,1.652 6.45,1.352c0.3,-0.3 1.2,0 1.2,0l0.9,-1.276c0,0 -0.225,-1.427 -0.45,-1.652c-0.225,-0.225 -1.725,-1.802 -1.725,-1.802c0,0 -3.75,-3.304 -3.9,-3.529c-0.15,-0.225 -0.825,-2.477 -0.825,-2.477l0.975,-1.727h3.75l5.85,3.453z" id="Shape" fill="#ef463c"/><path d="M281.5,185.70801l0.975,2.552l2.175,1.051l3.075,0.451l2.925,0.45l2.175,2.102l-0.75,2.328l-2.325,1.201h-4.35l-3.9,-0.976l-3.375,-2.327l-2.621,-4.205v-4.955l1.121,-2.778l4.05,-3.078l4.425,-0.601l2.625,1.727l0.375,1.877l-3.15,1.952c0,0 -2.55,1.502 -2.85,1.802z" id="Shape" fill="#ef463c"/><path d="M212.776,185.71701c7.547,1.031 16.221,-3.177 18.718,-8.754c-1.41,-0.718 -2.81,-1.473 -4.244,-2.15c-1.438,-0.68 -2.926,-1.254 -4.368,-1.925c-1.714,-0.796 -3.419,-1.614 -5.097,-2.482c-1.128,-0.583 -2.197,-1.281 -3.305,-1.905c-0.487,-0.274 -1.019,-0.465 -1.505,-0.74c-1.09,-0.618 -0.847,-1.768 -1.016,-2.734c-0.252,-1.447 -0.294,-2.901 -0.371,-4.37c-3.056,-0.432 -6.325,-0.727 -9.436,-1.009c-1.553,-0.14 -2.982,-0.374 -4.503,-0.687c-1.127,-0.233 -12.465,-1.961 -9.016,-4.719c1.498,-1.199 3.026,-2.4 4.449,-3.687c1.149,-1.038 2.484,-1.675 3.712,-2.6c3.36,-2.53 7.016,-4.767 10.625,-6.929c1.101,-0.66 2.213,-1.281 3.265,-1.986c0.326,-0.219 1.125,-0.505 1.313,-0.839c0.244,-0.435 -0.147,-0.938 -0.166,-1.384c-0.022,-0.502 0.116,-1.024 0.083,-1.559c-0.093,-1.484 -0.179,-2.969 -0.256,-4.454c-0.121,-2.347 -0.14,-4.7 -0.276,-7.047c-0.08,-1.364 -0.3,-2.72 -0.464,-4.08c-0.174,-1.435 0.323,-1.991 1.743,-2.334c3.219,-0.777 6.416,-1.651 9.626,-2.468c0.538,-0.137 1.113,-0.131 1.643,-0.288c2.885,-0.859 5.754,-2.123 8.734,-2.617c-0.204,0.034 0.494,-2.77 0.574,-3.018c0.349,-1.076 0.318,-2.238 0.688,-3.311c1.483,-4.295 2.6,-8.787 4.204,-13.017c0.429,-1.13 0.62,-2.343 1.008,-3.499c0.391,-1.173 0.74,-2.345 1.099,-3.518c0.279,-0.908 0.867,-1.766 1.791,-2.114c0.348,-0.131 0.873,-0.103 1.199,0.072c1.09,0.587 1.711,1.553 2.22,2.701c0.613,1.376 1.477,2.647 2.285,3.93c1.89,3.001 3.193,6.209 4.823,9.344c0.995,1.915 2.009,3.82 2.947,5.765c0.598,1.238 1.371,3.413 2.502,4.195c0.806,0.557 1.894,0.687 2.792,1.053c1.161,0.473 2.292,0.905 3.476,1.257c3.934,1.171 7.77,2.831 11.633,4.243c0.803,0.294 1.813,0.356 2.371,0.895c0.633,0.609 1.131,1.61 1.216,2.486c0.203,2.086 0.128,4.198 0.163,6.3c0.007,0.409 0.001,0.819 0.001,1.058c0.804,0.101 1.515,0.185 2.225,0.28c1.977,0.262 3.965,0.457 5.926,0.814c1.54,0.281 3.046,0.761 4.567,1.155c1.29,0.334 2.579,0.672 3.869,1.011c1.812,0.478 2.149,1.736 0.966,3.229c-1.026,1.294 -2.178,2.413 -3.279,3.63c-1.089,1.206 -2.196,2.329 -3.453,3.375c-2.807,2.334 -5.708,4.555 -8.591,6.795c-0.412,0.32 -0.951,0.478 -1.574,0.78c0,2.345 0.016,4.856 -0.008,7.368c-0.01,1.044 -0.138,2.086 -0.146,3.128c-0.006,0.746 0.137,1.492 0.146,2.238c0.017,1.293 -0.029,2.59 -0.002,3.882c0.015,0.773 0.313,1.719 -0.526,2.16c-0.485,0.255 -0.837,0.404 -1.295,0.696c-0.568,0.363 -1.254,0.619 -1.875,0.882c-3.619,1.538 -7.474,2.517 -11.319,3.462c-1.251,0.308 -2.476,0.642 -3.75,0.854c-1.191,0.198 -2.347,0.51 -3.515,0.793c-0.757,0.184 -1.933,0.281 -2.598,0.674c-0.622,0.367 -0.541,0.716 -0.4,1.497c0.175,0.973 1.211,1.766 1.912,2.377c0.694,0.606 1.487,1.132 2.257,1.633c1.498,0.975 3.097,1.799 4.785,2.393c3.228,1.136 6.981,1.585 10.387,1.394c0.161,-1.532 1.914,-3.219 2.897,-4.293c1.477,-1.612 3.067,-3.008 5.347,-3.493c2.868,-0.61 6.222,1.305 6.837,4.168c0.091,0.424 -0.064,1.139 -0.368,1.364c-0.88,0.651 -1.864,1.183 -2.861,1.647c-1.384,0.642 -2.943,1.016 -3.407,2.779c-0.271,1.03 0.437,2.527 1.441,2.798c0.748,0.202 1.539,0.261 2.315,0.333c1.589,0.148 3.21,0.119 4.763,0.436c1.085,0.222 1.941,0.924 2.271,2.22c0.288,1.134 0.57,2.087 -0.252,3.136c-0.714,0.911 -1.507,1.525 -2.604,1.959c-2.243,0.889 -4.527,1.091 -6.812,0.551c-1.561,-0.367 -3.184,-0.802 -4.411,-1.993c-0.698,-0.677 -1.399,-1.394 -2.137,-2.026c-0.157,-0.135 -1.735,-1.443 -1.664,-1.483c-1.524,0.853 -4.223,0.728 -5.912,0.645c-2.191,-0.108 -4.357,-0.545 -6.445,-1.208c-1.886,-0.599 -3.602,-1.744 -5.373,-2.684c-0.788,-0.417 -1.521,-0.933 -2.492,-1.538c-0.208,0.833 -0.469,1.52 -0.542,2.227c-0.347,3.372 -1.356,6.639 -2.797,9.698c-0.628,1.335 -1.471,2.473 -2.174,3.735c-0.832,1.491 -1.57,2.849 -2.852,4.027c-1.011,0.929 -1.935,2.045 -3.186,2.664c-0.386,0.19 -3.778,1.597 -3.813,1.476c0.747,2.581 1.471,5.194 2.308,7.776c0.647,1.993 -0.271,3.614 -2.318,3.674c-2.699,0.079 -5.402,0.136 -8.08,-0.52c-1.125,-0.275 -2.352,-0.151 -3.533,-0.178c-1.763,-0.04 -3.206,-0.628 -4.443,-1.983c-0.781,-0.854 -0.487,-1.647 -0.203,-2.366c0.322,-0.817 0.961,-1.519 1.509,-2.236c1.272,-1.659 2.57,-3.298 3.861,-4.943c0.137,-0.176 0.272,-0.369 0.449,-0.498c0.753,-0.553 0.658,-0.982 0.074,-1.711c-0.966,-1.207 -1.931,-2.502 -2.5,-3.919c-0.684,-1.705 -1.106,-3.555 -1.36,-5.381c-0.273,-1.963 0.076,-3.928 0.785,-5.805c0.074,-0.195 0.064,-0.422 0.099,-0.671c-1.323,0.417 -2.58,0.864 -3.865,1.207c-1.792,0.478 -3.589,0.964 -5.412,1.289c-2.689,0.478 -5.474,0.795 -8.073,-0.072c-1.143,-0.382 -1.911,-0.091 -2.876,0.084c-1.597,0.29 -3.213,0.486 -4.827,0.668c-2.395,0.269 -4.578,-0.35 -6.648,-1.571c-2.443,-1.44 -2.822,-5.367 -0.615,-7.106c0.878,-0.693 1.901,-0.842 2.944,-0.5c1.406,0.461 2.756,1.122 4.187,1.459c0.774,0.182 1.713,0.009 2.489,-0.259c1.053,-0.363 1.273,-1.166 0.462,-1.963c-1.24,-1.216 -2.554,-2.432 -4.038,-3.308c-2.163,-1.277 -3.056,-5.24 -1.147,-6.813c0.775,-0.639 2.192,-0.951 3.191,-0.758c1.503,0.289 2.963,1.031 4.322,1.795c3.757,2.113 5.542,5.384 5.9,9.889zM237.048,129.24901c0.1,8.1 0.079,15.75 0.322,23.393c0.246,7.72 0.755,15.43 1.156,23.274c0.449,-0.065 1.009,-0.083 1.531,-0.234c1.704,-0.493 3.377,-1.108 5.096,-1.54c3.585,-0.901 7.191,-1.713 10.788,-2.565c4.422,-1.049 8.862,-2.034 13.259,-3.182c2.444,-0.638 4.868,-1.429 7.202,-2.391c1.288,-0.53 2.142,-1.687 2.004,-3.282c-0.061,-0.698 -0.113,-1.401 -0.098,-2.1c0.034,-1.507 0.188,-3.014 0.158,-4.518c-0.063,-3.06 -0.241,-6.119 -0.319,-9.179c-0.047,-1.835 0.004,-3.672 0.019,-5.508c0.008,-0.939 0.111,-1.884 0.033,-2.814c-0.14,-1.667 -0.579,-3.329 -0.55,-4.987c0.08,-4.71 -0.198,-9.397 -0.644,-14.076c-0.027,-0.282 -0.588,-0.771 -0.829,-0.732c-1.467,0.239 -2.924,0.564 -4.363,0.938c-1.857,0.483 -3.68,1.101 -5.544,1.549c-2.663,0.64 -5.319,1.202 -7.972,1.868c-0.94,0.236 -1.868,0.49 -2.804,0.736c-1.938,0.511 -3.76,1.318 -5.683,1.868c-2.118,0.607 -4.26,1.128 -6.391,1.685c-0.574,0.15 -1.154,0.281 -1.725,0.445c-1.668,0.478 -3.333,0.969 -4.646,1.352zM213.817,161.37201c0,1.154 -0.025,2.198 0.007,3.241c0.031,1.049 0.322,1.888 1.419,2.414c2.835,1.361 5.564,2.951 8.43,4.239c4.041,1.817 8.169,3.446 12.478,5.247c0,-2.641 0.063,-4.974 -0.018,-7.302c-0.072,-2.109 -0.358,-4.21 -0.442,-6.319c-0.104,-2.586 -0.087,-5.176 -0.138,-7.765c-0.036,-1.861 -0.082,-3.721 -0.153,-5.58c-0.056,-1.444 -0.206,-2.886 -0.224,-4.33c-0.016,-1.36 0.158,-2.724 0.117,-4.082c-0.072,-2.439 -0.303,-4.874 -0.352,-7.313c-0.05,-2.466 -0.254,-2.808 -2.454,-3.814c-4.213,-1.924 -8.412,-3.879 -12.594,-5.869c-1.346,-0.64 -2.613,-1.447 -3.933,-2.144c-0.784,-0.414 -1.602,-0.764 -2.606,-1.236c0.147,5.617 0.285,10.903 0.429,16.421c1.605,-0.66 3.059,-1.424 4.838,-1.318c2.278,0.136 4.581,0.42 6.3,1.941c1.341,1.186 2.463,2.592 3.411,4.107c1.047,1.669 1.288,3.277 1.492,5.238c0.131,1.253 0.283,2.587 0.158,3.854c-0.138,1.399 -0.723,2.765 -1.223,4.067c-0.568,1.48 -1.466,2.763 -2.541,3.919c-1.098,1.181 -2.017,1.704 -3.511,2.25c-2.79,1.02 -5.989,0.373 -8.89,0.134zM191.125,154.96301c0.041,0.147 0.083,0.293 0.125,0.44c1.202,0.348 2.391,0.355 3.618,0.623c1.356,0.295 2.673,0.755 4.044,0.981c1.678,0.276 3.402,0.633 5.099,0.713c1.025,0.049 2.022,0.209 3.018,0.367c1.493,0.237 2.903,0.605 4.413,0.715c2.561,0.19 5.119,0.47 7.683,0.566c4.283,0.159 7.739,-2.974 8.28,-7.185c0.191,-1.483 0.171,-2.958 0.171,-4.467c-0.001,-3.408 -1.49,-7.674 -4.668,-9.367c-2.875,-1.533 -6.352,-0.176 -9.081,1.035c-0.84,0.373 -1.519,1.112 -2.361,1.481c-2.651,1.162 -5.173,2.522 -7.49,4.271c-1.966,1.483 -4.008,2.868 -5.963,4.366c-2.326,1.782 -4.595,3.638 -6.888,5.461zM243.126,86.04201c-0.16,-0.002 -0.319,-0.005 -0.478,-0.007c-0.464,0.965 -1.04,1.894 -1.371,2.902c-0.686,2.084 -1.339,4.178 -1.988,6.273c-1.043,3.366 -1.965,6.774 -2.667,10.229c-0.589,2.905 -1.839,5.67 -1.937,8.668c-0.086,2.612 2.502,3.571 4.586,4.525c3.07,1.406 6.292,1.282 9.494,0.449c1.516,-0.395 3.018,-0.868 4.491,-1.401c1.338,-0.485 2.758,-0.817 3.829,-1.895c0.543,-0.547 0.578,-1.101 0.297,-1.715c-0.401,-0.879 -0.871,-1.727 -1.284,-2.603c-1.305,-2.766 -2.605,-5.534 -3.889,-8.31c-1.388,-2.999 -2.626,-6.077 -4.169,-8.993c-1.477,-2.792 -3.264,-5.421 -4.914,-8.122zM214.773,119.13301c0.074,0.137 0.091,0.23 0.145,0.262c3.548,2.075 7.164,3.954 11.101,5.262c2.607,0.866 5.029,2.297 7.519,3.505c0.774,0.376 1.441,0.65 2.096,-0.223c0.22,-0.294 0.663,-0.477 1.039,-0.586c1.655,-0.474 3.332,-0.866 4.982,-1.355c3.099,-0.917 6.172,-1.926 9.282,-2.809c1.973,-0.561 4.007,-0.907 5.984,-1.456c1.912,-0.531 3.775,-1.23 5.677,-1.794c1.623,-0.482 3.27,-0.884 4.909,-1.311c1.552,-0.404 3.108,-0.795 4.662,-1.192c-0.009,-0.112 -0.017,-0.224 -0.025,-0.336c-4.438,-1.688 -8.57,-4.147 -13.522,-5.472c0.221,0.059 0.782,1.585 0.883,1.852c0.3,0.792 0.312,1.415 0.021,2.216c-0.507,1.403 -0.971,2.152 -2.336,2.792c-5.138,2.409 -10.985,4.102 -16.656,2.729c-1.629,-0.394 -3.461,-1.28 -4.943,-2.088c-1.532,-0.836 -3.16,-1.79 -3.398,-3.863c-0.028,-0.242 -0.1,-0.48 -0.17,-0.803c-5.784,1.566 -11.482,3.109 -17.25,4.67zM240.147,178.66401c-0.037,0.116 -0.067,0.263 -0.093,0.449c-0.121,0.867 -0.357,1.685 -0.755,2.468c-1.193,2.347 -2.933,3.843 -4.921,5.48c-0.456,0.375 -0.907,0.832 -1.394,1.185c-0.887,0.641 -1.818,1.211 -2.833,1.621c-1.039,0.42 -1.994,0.9 -1.425,2.171c0.95,2.125 2.613,3.661 4.425,4.97c2.019,1.462 4.421,2.236 6.874,2.517c0.86,0.099 1.805,-0.026 2.659,-0.083c1.351,-0.09 2.579,-0.252 3.888,-0.617c1.935,-0.54 3.943,-1.588 4.665,-3.598c0.34,-0.949 0.97,-2.118 0.818,-3.141c-0.976,-0.019 -1.942,0.447 -2.951,0.404c-2.784,-0.118 -4.196,-2.068 -5.138,-4.369c-0.525,-1.281 -0.614,-2.683 0.079,-4.008c1.163,-2.222 2.848,-3.794 5.311,-4.52c1.056,-0.311 1.981,-0.208 2.89,0.332c0.375,0.221 0.723,0.487 1.107,0.749c-0.196,-0.134 0,-2.086 0,-2.387c0,-0.783 0.063,-1.595 0,-2.376c-0.072,-0.884 -0.085,-0.838 -0.892,-0.726c-0.597,0.082 -1.199,0.219 -1.798,0.311c-1.703,0.26 -3.328,0.893 -5.007,1.351c-1.359,0.371 -2.719,0.836 -4.033,1.188c-0.897,0.24 -1.281,0.016 -1.476,0.629zM279.619,128.67001c0.217,5.517 0.43,10.945 0.655,16.648c5.809,-3.751 10.789,-7.924 15.537,-12.879c-5.226,-2.189 -10.584,-2.69 -16.192,-3.769zM248.798,200.39001c-8.431,3.22 -15.275,1.45 -20.849,-5.415c0,1.446 -0.209,2.842 0.041,4.152c0.628,3.29 2.152,6.055 5.066,7.978c2.558,1.689 5.248,1.717 7.999,0.891c2.931,-0.88 4.888,-3.027 6.499,-5.521c0.41,-0.635 0.777,-1.298 1.244,-2.085zM289.382,195.39401c1.044,-0.26 1.812,-0.894 2.02,-2.104c0.322,-1.868 -1.073,-2 -2.429,-2.145c-1.837,-0.196 -3.664,0.016 -5.522,-0.648c-2.532,-0.906 -3.35,-4.57 -2.249,-6.444c0.614,-1.043 1.502,-1.858 2.526,-2.489c0.91,-0.559 2.278,-0.734 3.084,-1.355c1.817,-1.402 -2.308,-2.503 -3.285,-2.37c-1.651,0.225 -3.042,1.107 -4.305,2.146c-0.936,0.77 -2.262,1.5 -2.763,2.664c-0.406,0.939 -0.19,2.716 -0.066,3.729c0.336,2.721 1.904,5.381 4.22,6.872c1.468,0.946 6.052,2.818 8.769,2.144zM201.148,192.74201c1.39,-0.253 2.811,-0.394 4.161,-0.784c2.417,-0.697 4.133,-2.34 4.835,-4.719c1,-3.391 -0.21,-6.254 -2.737,-8.573c-1.428,-1.311 -3.141,-2.167 -5.059,-2.517c-0.857,-0.157 -1.791,-0.21 -2.163,0.877c-0.338,0.987 0.079,1.75 0.87,2.322c0.577,0.418 1.147,0.896 1.796,1.151c2.085,0.819 3.09,2.524 3.833,4.461c0.636,1.656 -0.066,3.288 -1.652,4.052c-1.275,0.613 -2.611,0.562 -3.897,0.241c-1.476,-0.369 -2.892,-0.974 -4.345,-1.439c-0.774,-0.247 -1.487,-0.223 -1.859,0.701c-0.387,0.962 -0.136,2.046 0.676,2.559c1.681,1.06 3.472,1.747 5.541,1.668zM245.726,186.25701c0.459,0.881 0.792,1.864 1.405,2.62c1.108,1.367 3.206,2.166 4.939,0.287c2.066,-2.242 1.216,-5.421 -0.643,-7.15c-0.267,-0.249 -0.766,-0.411 -1.129,-0.368c-1.717,0.203 -4.542,2.516 -4.572,4.611zM233.27,177.67901c-0.636,1.261 -1.176,2.654 -1.998,3.854c-0.572,0.836 -0.258,1.323 0.236,1.828c1.689,1.732 2.063,1.747 3.591,-0.093c1.055,-1.271 2.012,-2.641 2.228,-3.997c-1.417,-0.557 -2.639,-1.035 -4.057,-1.592zM219.384,191.46801c0.93,0.297 2.532,-0.43 3.221,-0.599c0.9,-0.221 2.358,-0.491 3.093,-1.057c-0.467,-0.479 -1.304,-3.471 -2.099,-3.391c-1.816,0.538 -3.51,1.039 -5.248,1.553c-0.206,0.062 0.35,2.852 0.528,3.121c0.123,0.188 0.297,0.306 0.505,0.373zM269.40299,189.40901c0.285,-0.127 0.45,-0.413 0.493,-1.009c0.099,-1.354 -0.059,-3.414 -1.688,-3.751c-1.052,-0.218 -2.343,-0.264 -3.423,-0.206c0.07,-0.004 -0.362,2.219 -0.417,2.419c-0.267,0.969 -0.908,1.604 0.201,1.933c1.141,0.34 2.322,0.537 3.507,0.645c0.577,0.053 1.021,0.104 1.327,-0.031zM210.184,191.94601c2.188,0.771 4.363,0.406 6.562,-0.107c-0.137,-1.284 -0.275,-2.57 -0.399,-3.725c-1.361,0 -2.654,0 -3.896,0c-0.766,1.294 -1.485,2.51 -2.267,3.832zM227.748,219.04801c0.654,0.037 0.765,-0.25 1.019,-0.821c0.865,-1.951 2.015,-3.826 3.027,-5.721c0.265,-0.498 1.362,-1.853 1.041,-2.415c-0.585,-1.026 -1.512,0.547 -1.837,0.923c-0.863,0.999 -1.715,2.008 -2.511,3.062c-0.56,0.742 -2.543,3.291 -2.217,4.165c0.175,0.471 0.821,0.731 1.279,0.789c0.072,0.008 0.138,0.015 0.199,0.018zM262.179,187.75701c0.03,-0.004 0.059,-0.012 0.087,-0.021c0.573,-0.194 0.687,-1.644 0.77,-2.179c0.078,-0.505 0.105,-1.313 -0.184,-1.526c-0.973,-0.719 -2.096,-1.234 -3.11,-1.797c-0.145,-0.031 -1.897,2.431 -1.885,2.668c0.032,0.621 1.597,1.539 2.077,1.844c0.431,0.275 1.64,1.1 2.245,1.011zM235.168,210.97701c-0.461,-0.333 -1.12,0.548 -1.283,0.903c-0.582,1.259 -1.113,2.591 -1.726,3.871c-0.398,0.831 -0.743,1.692 -1.03,2.567c-0.066,0.205 0.171,0.727 0.324,0.751c1.065,0.166 2.146,0.239 3.146,0.336c-0.066,-0.716 -0.215,-1.291 -0.152,-1.844c0.146,-1.263 0.354,-2.517 0.515,-3.778c0.066,-0.518 0.669,-2.388 0.249,-2.772c-0.014,-0.013 -0.028,-0.024 -0.043,-0.034zM237.255,219.16301c0.107,0.485 0.24,0.592 0.96,0.663c0.982,0.096 2.115,0.011 2.138,-1.218c0.025,-1.411 -0.886,-3.354 -1.316,-4.703c-0.32,-1.001 -0.736,-1.971 -1.11,-2.954c-0.442,0.336 -0.71,0.674 -0.737,1.03c-0.109,1.426 -0.299,2.957 -0.275,4.429c0.013,0.802 0.118,1.569 0.264,2.356c0.028,0.155 0.051,0.286 0.076,0.397zM231.258,186.62801c0.09,-0.703 -0.748,-1.187 -1.168,-1.702c-0.416,-0.509 -0.831,-1.018 -1.247,-1.527c-1.095,0.775 -2.113,1.495 -3.145,2.226c0.384,0.777 0.644,1.495 1.072,2.093c0.2,0.28 0.884,1.113 1.195,1.202c0.42,0.121 1.022,-0.386 1.367,-0.57c0.595,-0.318 1.752,-0.901 1.914,-1.649c0.005,-0.025 0.009,-0.049 0.012,-0.073zM271.169,185.88401c0.218,1.366 0.108,3.411 1.145,3.854c0.69,0.293 1.857,-0.092 2.177,-0.761c0.317,-0.663 -0.023,-1.564 -0.1,-2.246c-0.23,-2.012 -1.796,-1.772 -3.459,-1.688c0.112,0.219 0.184,0.51 0.237,0.841zM255.624,184.11801c2.387,-2.742 2.339,-3.73 0,-4.574c0,1.542 0,3.058 0,4.574z" data-paper-data="{&quot;origPos&quot;:null}" id="Shape" fill="#30419a"/><path d="M244.626,166.19401c-0.068,-0.895 -0.11,-1.799 -0.21,-2.742c-0.187,-1.774 -0.126,-3.594 -0.116,-5.391c0.005,-0.926 -0.37,-1.825 -0.314,-2.759c0.077,-1.313 0.826,-1.377 1.926,-1.689c3.22,-0.914 6.429,-1.868 9.648,-2.784c1.93,-0.549 3.862,-1.094 5.812,-1.568c2.057,-0.501 4.144,-0.874 6.198,-1.383c1.151,-0.286 2.249,-0.777 3.394,-1.09c0.628,-0.171 1.331,-0.3 1.946,-0.177c1.028,0.207 0.574,5.356 0.594,6.26c0.042,1.919 0.045,3.823 0.046,5.755c0,0.767 0.067,1.508 0.075,2.271c0.017,1.703 0.114,2.339 -1.549,2.849c-1.875,0.574 -3.775,1.048 -5.662,1.577c-2.588,0.725 -5.153,1.536 -7.761,2.175c-2.76,0.674 -5.568,1.144 -8.334,1.795c-1.22,0.287 -2.414,0.735 -3.568,1.229c-0.908,0.39 -1.315,-0.107 -1.519,-0.762c-0.379,-1.221 -0.517,-2.386 -0.606,-3.566zM254.797,153.28901c0.074,0.569 0.221,1.089 0.194,1.597c-0.196,3.544 0.602,6.983 1.092,10.452c0.029,0.209 0.373,0.56 0.52,0.535c0.899,-0.148 1.783,-0.386 2.674,-0.593c-0.282,-4.399 -0.555,-8.651 -0.838,-13.064c-1.346,0.396 -2.468,0.727 -3.642,1.073zM265.607,163.64701c0.24,-0.052 0.521,-0.152 0.843,-0.272c1.149,-0.426 1.196,-0.924 1.095,-2.165c-0.149,-1.827 -0.2,-3.661 -0.358,-5.487c-0.157,-1.811 -0.392,-3.615 -0.6,-5.485c-0.449,0.102 -0.663,0.172 -0.883,0.198c-1.071,0.125 -1.762,0.517 -1.548,1.801c0.11,0.65 0.035,1.335 0.011,2.003c-0.051,1.438 -0.024,2.851 0.283,4.23c0.296,1.324 0.03,2.629 0.1,3.968c0.059,1.136 0.409,1.349 1.057,1.209zM248.714,155.20601c-0.132,-0.165 -0.296,-0.266 -0.5,-0.28c-0.643,-0.047 -1.673,0.19 -2.176,0.462c-0.084,1.48 0.232,2.912 0.36,4.374c0.181,2.063 0.335,4.128 0.483,6.193c0.162,2.259 0.376,2.396 2.526,1.406c0.331,-0.152 -0.276,-5.569 -0.306,-6.181c-0.046,-0.925 0.489,-4.88 -0.387,-5.974zM253.14,153.97c-0.618,0.029 -1.277,-0.011 -1.903,0.116c-0.351,0.071 -0.933,0.436 -0.92,0.639c0.105,1.741 0.314,3.477 0.51,5.212c0.092,0.816 0.222,1.627 0.335,2.44c0.216,1.573 0.433,3.145 0.674,4.894c0.863,-0.35 1.454,-0.59 1.876,-0.762c-0.198,-4.332 -0.385,-8.438 -0.572,-12.539zM270.032,162.14201c0.295,-0.072 0.556,-0.138 0.622,-0.172c0.49,-0.256 0.7,-0.536 0.671,-1.12c-0.033,-0.692 0.159,-1.392 0.163,-2.09c0.02,-3.137 0.009,-6.274 0.009,-9.708c-1.069,0.326 -1.939,0.57 -2.79,0.871c-0.148,0.053 -0.309,0.352 -0.297,0.526c0.263,3.95 0.785,8.01 0.571,11.972c0.002,-0.035 0.573,-0.164 1.051,-0.279zM262.447,151.33201c-1.862,0.268 -2.313,0.648 -2.26,1.558c0.234,3.924 0.201,7.699 0.999,11.559c0.011,0.053 1.148,-0.165 1.244,-0.225c0.516,-0.319 0.427,-0.515 0.355,-1.165c-0.154,-1.389 -0.29,-2.763 -0.322,-4.162c-0.057,-2.481 -0.016,-4.963 -0.016,-7.565z" id="Shape" fill="#30419a"/><path d="M252.852,132.30301c1.88,-0.164 3.225,0.622 4.201,2.125c0.956,1.472 2.168,2.98 1.226,4.84c-0.537,1.058 -1.36,2.08 -2.296,2.804c-2.202,1.706 -4.769,2.716 -7.464,3.429c-1.539,0.408 -3.018,0.746 -4.668,0.573c-1.727,-0.179 -2.885,-1.007 -3.615,-2.39c-1.013,-1.917 -1.575,-3.967 -0.671,-6.134c0.496,-1.187 1.209,-2.045 2.57,-2.398c1.674,-0.435 3.261,-1.206 4.933,-1.65c1.899,-0.504 3.853,-0.808 5.784,-1.199zM250.337,142.90301c-2.135,-2.865 -1.196,-5.395 -0.047,-7.934c-0.213,-0.085 -0.365,-0.21 -0.471,-0.179c-2.023,0.593 -4.039,1.206 -6.058,1.811c-2.127,0.638 -2.609,2.111 -2.208,4.61c0.226,1.409 2.352,2.97 3.784,2.743c1.577,-0.251 3.13,-0.651 5,-1.051z" id="Shape" fill="#30419a"/><path d="M264.27799,141.05001c-1.946,0.004 -3.321,-1.195 -3.782,-3.162c-0.335,-1.424 -0.538,-2.719 0.048,-4.128c0.876,-2.105 2.462,-3.526 4.463,-4.294c1.735,-0.665 3.646,-0.912 5.5,-1.21c1.762,-0.285 4.029,1.492 4.626,3.343c0.668,2.068 0.463,4.049 -0.871,5.689c-0.764,0.939 -1.974,1.554 -3.063,2.174c-0.864,0.491 -1.823,0.906 -2.79,1.108c-1.352,0.281 -2.753,0.331 -4.131,0.48zM268.68199,130.732c-0.089,-0.061 -0.178,-0.123 -0.266,-0.184c-0.766,0.258 -1.537,0.502 -2.296,0.776c-2.255,0.81 -3.69,2.334 -4.122,4.74c-0.255,1.429 0.981,3.179 2.386,3.048c1.619,-0.151 3.209,-0.617 5.039,-0.994c-1.807,-2.485 -2.145,-4.865 -0.741,-7.386z" id="Shape" fill="#30419a"/><path d="M260.373,146.87701c-0.604,-0.138 -1.166,-0.571 -1.234,-1.219c-0.089,-0.865 0.69,-1.474 1.539,-1.34c0.502,0.079 1.204,0.848 1.26,1.37c0.113,1.038 -0.763,1.373 -1.565,1.189z" id="Shape" fill="#30419a"/></g></g></g></svg>