<svg xmlns="http://www.w3.org/2000/svg" xmlns:xlink="http://www.w3.org/1999/xlink" version="1.1" width="98.68085479736328" height="149.4749298095703" viewBox="-0.4956998825073242 -0.11093807220458984 98.68085479736328 149.4749298095703">
  <!-- Exported by Scratch - http://scratch.mit.edu/ -->
  <g id="ID0.4228116939775646">
    <g id="Page-1">
      <g id="jamal-a-[sports,basketball,people,alex-eben-meyer]">
        <path id="Shape" fill="#780046" stroke="none" stroke-width="1" d="M 58.605 63.027 L 36.380 73.613 C 36.380 73.613 41.658 77.097 48.394 77.097 C 55.131 77.097 53.884 78.423 61.035 77.516 C 68.186 76.609 72.986 70.413 72.986 70.413 L 58.605 63.027 Z "/>
        <g id="Right-Leg">
          <path id="Shape" fill="#824600" stroke="none" stroke-width="1" d="M 71.201 111.051 C 71.547 113.888 71.591 116.753 71.333 119.599 L 75.125 121.705 L 80.73 119.599 C 81.328 117.107 81.989 113.707 81.926 110.5 C 81.858 105.706 80.089 100.15 80.089 100.15 C 80.089 100.15 75.309 83.104 73.771 78.027 C 71.62 77.38 62.031 78.159 60.597 78.89 C 61.393 81.862 65.039 89.963 66.094 92.903 C 66.696 94.557 70.134 103.337 71.201 111.051 Z "/>
          <path id="Shape" fill="#FFDC00" stroke="none" stroke-width="1" d="M 81.268 97.07 C 80.221 92.676 71.592 69.231 71.592 69.231 C 71.592 69.231 62.031 67.977 55 67.094 L 65.333 97.07 C 65.333 97.07 76.747 97.649 81.268 97.07 Z "/>
          <path id="Shape" fill="#FAB414" stroke="none" stroke-width="1" d="M 71.333 119.611 C 71.199 121.11 70.966 122.598 70.636 124.065 C 70.281 125.599 69.811 127.097 69.397 128.615 C 68.516 131.811 65.481 138.366 64.142 141.398 C 66.744 141.846 68.289 142.473 70.887 142.029 C 72.436 139.633 75.544 134.815 77.715 129.778 C 78.572 127.739 79.252 125.63 79.747 123.474 C 79.978 122.44 80.356 121.121 80.73 119.599 L 71.333 119.611 Z "/>
          <path id="Shape" fill="#FFDC00" stroke="none" stroke-width="1" d="M 75.5 147.666 L 68.911 146.811 L 59.967 147.434 L 60.202 148.732 L 75.811 148.864 L 75.5 147.666 "/>
          <path id="Shape" fill="#AA3278" stroke="none" stroke-width="1" d="M 74.321 146.38 C 73.132 146.315 71.949 146.172 70.779 145.952 L 77.153 133.421 L 65.935 133.421 L 59.959 147.434 L 75.496 147.67 C 75.337 147.331 75.204 146.982 75.097 146.623 C 74.85 146.51 74.589 146.428 74.321 146.38 Z "/>
          <path id="Shape" fill="#FFDC00" stroke="none" stroke-width="1" d="M 73.803 136.409 L 76.846 136.409 L 77.101 135.63 L 73.942 135.63 L 73.803 136.409 "/>
          <path id="Shape" fill="#FAB414" stroke="none" stroke-width="1" d="M 72.859 138.226 L 75.906 138.226 L 76.157 137.448 L 72.998 137.448 L 72.859 138.226 "/>
          <path id="Shape" fill="#FFDC00" stroke="none" stroke-width="1" d="M 71.914 140.048 L 74.962 140.048 L 75.213 139.265 L 72.054 139.265 L 71.914 140.048 "/>
          <path id="Shape" fill="#FAB414" stroke="none" stroke-width="1" d="M 70.974 141.866 L 74.018 141.866 L 74.269 141.083 L 71.11 141.083 L 70.974 141.866 "/>
          <path id="Shape" fill="#FFDC00" stroke="none" stroke-width="1" d="M 70.03 143.683 L 73.078 143.683 L 73.329 142.904 L 70.17 142.904 L 70.03 143.683 "/>
          <path id="Oval" fill="#FFDC00" stroke="none" stroke-width="1" d="M 68.122 135.23 C 68.967 135.23 69.733 135.575 70.288 136.131 C 70.842 136.687 71.185 137.455 71.185 138.302 C 71.185 139.15 70.842 139.918 70.288 140.474 C 69.733 141.03 68.967 141.374 68.122 141.374 C 67.277 141.374 66.511 141.03 65.956 140.474 C 65.402 139.918 65.058 139.15 65.058 138.302 C 65.058 137.455 65.402 136.687 65.956 136.131 C 66.511 135.575 67.277 135.23 68.122 135.23 Z "/>
          <path id="Oval" fill="#780046" stroke="none" stroke-width="1" d="M 68.122 136.844 C 68.523 136.844 68.887 137.008 69.15 137.272 C 69.413 137.536 69.576 137.9 69.576 138.302 C 69.576 138.705 69.413 139.069 69.15 139.333 C 68.887 139.597 68.523 139.76 68.122 139.76 C 67.721 139.76 67.357 139.597 67.094 139.333 C 66.831 139.069 66.668 138.705 66.668 138.302 C 66.668 137.9 66.831 137.536 67.094 137.272 C 67.357 137.008 67.721 136.844 68.122 136.844 Z "/>
        </g>
        <g id="Left-Leg">
          <path id="Shape" fill="#824600" stroke="none" stroke-width="1" d="M 38.845 75.567 L 20.871 119.44 L 22.632 123.934 L 32.344 119.695 C 32.344 119.695 54.115 76.953 54.067 76.873 L 38.845 75.567 Z "/>
          <path id="Shape" fill="#FFDC00" stroke="none" stroke-width="1" d="M 27.886 99.067 C 28.137 98.891 45.016 99.866 45.016 99.866 L 59.262 66.647 C 52.147 65.752 41.945 65.5 41.897 65.404 L 27.886 99.067 Z "/>
          <path id="Shape" fill="#FAB414" stroke="none" stroke-width="1" d="M 14.632 134.38 L 20.871 119.444 L 32.344 119.699 L 24.795 134.583 L 14.632 134.38 "/>
          <path id="Shape" fill="#FFDC00" stroke="none" stroke-width="1" d="M 3.111 147.666 L 9.7 146.811 L 19.441 147.434 L 19.202 148.732 L 2.797 148.864 L 3.111 147.666 "/>
          <path id="Shape" fill="#AA3278" stroke="none" stroke-width="1" d="M 4.29 146.38 C 5.479 146.315 6.662 146.172 7.832 145.952 L 14.206 133.421 L 25.819 133.421 L 19.445 147.434 L 3.111 147.67 C 3.268 147.331 3.401 146.981 3.51 146.623 C 3.759 146.51 4.021 146.428 4.29 146.38 Z "/>
          <path id="Oval" fill="#FFDC00" stroke="none" stroke-width="1" d="M 19.122 135.23 C 19.967 135.23 20.733 135.575 21.288 136.131 C 21.842 136.687 22.185 137.455 22.185 138.302 C 22.185 139.15 21.842 139.918 21.288 140.474 C 20.733 141.03 19.967 141.374 19.122 141.374 C 18.277 141.374 17.511 141.03 16.956 140.474 C 16.402 139.918 16.058 139.15 16.058 138.302 C 16.058 137.455 16.402 136.687 16.956 136.131 C 17.511 135.575 18.277 135.23 19.122 135.23 Z "/>
          <path id="Oval" fill="#780046" stroke="none" stroke-width="1" d="M 19.122 136.844 C 19.523 136.844 19.887 137.008 20.15 137.272 C 20.413 137.536 20.576 137.9 20.576 138.302 C 20.576 138.705 20.413 139.069 20.15 139.333 C 19.887 139.597 19.523 139.76 19.122 139.76 C 18.721 139.76 18.357 139.597 18.094 139.333 C 17.831 139.069 17.668 138.705 17.668 138.302 C 17.668 137.9 17.831 137.536 18.094 137.272 C 18.357 137.008 18.721 136.844 19.122 136.844 Z "/>
          <path id="Shape" fill="#FFDC00" stroke="none" stroke-width="1" d="M 12.055 136.409 L 15.098 136.409 L 15.349 135.63 L 12.194 135.63 L 12.055 136.409 "/>
          <path id="Shape" fill="#FAB414" stroke="none" stroke-width="1" d="M 11.298 138.226 L 14.341 138.226 L 14.592 137.448 L 11.433 137.448 L 11.298 138.226 "/>
          <path id="Shape" fill="#FFDC00" stroke="none" stroke-width="1" d="M 10.139 140.048 L 13.186 140.048 L 13.437 139.265 L 10.278 139.265 L 10.139 140.048 "/>
          <path id="Shape" fill="#FAB414" stroke="none" stroke-width="1" d="M 9.382 141.866 L 12.429 141.866 L 12.68 141.083 L 9.521 141.083 L 9.382 141.866 "/>
          <path id="Shape" fill="#FFDC00" stroke="none" stroke-width="1" d="M 8.226 143.683 L 11.274 143.683 L 11.525 142.904 L 8.366 142.904 L 8.226 143.683 "/>
        </g>
        <g id="Torso">
          <path id="Rectangle-path" fill="#FFDC00" stroke="none" stroke-width="1" d="M 47.414 66.299 L 65.588 66.299 L 65.588 74.752 L 47.414 74.752 L 47.414 66.299 Z "/>
          <path id="Shape" fill="#780046" stroke="none" stroke-width="1" d="M 71.815 49.605 C 65.09 45.024 51.566 36.978 44.299 32.069 L 42.2 39 L 44.299 46.006 L 58.597 56.324 L 71.847 65.704 L 74.345 62.967 L 71.815 49.605 Z "/>
          <path id="Shape" fill="#AA3278" stroke="none" stroke-width="1" d="M 49.729 34.138 L 52.765 36.303 C 52.765 36.303 49.446 44.552 55.031 47.352 C 60.617 50.153 63.485 43.418 63.485 43.418 L 64.995 44.404 C 64.995 44.404 72.803 68.931 72.962 70.409 C 70.456 71.129 41.395 75.019 36.36 73.605 C 38.395 68.372 49.729 34.138 49.729 34.138 Z "/>
        </g>
        <path id="Shape" fill="#824600" stroke="none" stroke-width="1" d="M 35.750 74.895 C 35.750 74.895 38.539 70.673 38.837 70.629 C 40.144 73.254 41.487 78.702 41.148 81.614 C 40.634 81.347 35.750 74.895 35.750 74.895 Z "/>
        <path id="Shape" fill="#824600" stroke="none" stroke-width="1" d="M 27.775 59.304 C 26.930 59.908 21.691 59.560 20.656 59.304 C 20.257 58.505 19.807 57.671 19.373 56.832 C 20.265 55.282 26.982 57.990 27.775 59.304 Z "/>
        <g id="Ball">
          <path id="Shape" fill="#E6781E" stroke="none" stroke-width="1" d="M 40.634 72.958 C 40.041 62.88 34.153 60.627 31.95 59.568 C 31.256 59.236 27.129 57.683 24.293 57.95 C 21.982 58.17 16.481 59.912 13.967 63.175 C 11.019 67.002 11.222 72.427 11.222 72.427 C 10.987 79.338 16.429 83.987 22.683 85.565 C 25.272 86.23 27.972 86.334 30.603 85.869 C 31.248 85.745 33.635 85.405 36.2 82.701 C 38.244 80.556 40.901 77.42 40.634 72.958 Z "/>
          <path id="Shape" fill="none" stroke="#824600" stroke-width="0.5" stroke-linecap="round" d="M 32.109 59.292 C 28.077 67.741 23.898 76.509 20.01 85.026 "/>
          <path id="Shape" fill="none" stroke="#824600" stroke-width="0.5" stroke-linecap="round" d="M 40.005 78.291 L 12.385 65.308 "/>
          <path id="Shape" fill="none" stroke="#824600" stroke-width="0.5" stroke-linecap="round" d="M 29.296 86.172 C 26.221 80.528 28.352 72.926 32.368 68.312 C 33.966 66.418 36.106 65.061 38.499 64.426 "/>
          <path id="Shape" fill="none" stroke="#824600" stroke-width="0.5" stroke-linecap="round" d="M 12.437 78.323 C 19.042 77.772 23.871 71.232 25.185 65.141 C 25.725 62.676 25.578 60.109 24.759 57.723 "/>
        </g>
        <g id="Right-Arm">
          <path id="Shape" fill="#A0640A" stroke="none" stroke-width="1" d="M 97.315 83.412 C 96.056 75.223 90.188 67.246 84.511 61.266 C 81.94 58.619 79.197 56.147 76.301 53.864 L 76.301 68.856 C 77.711 70.218 79.137 71.68 80.523 73.25 C 89.068 82.837 88.029 96.562 80.738 102.518 C 78.033 104.727 68.536 103.629 61.995 100.573 C 57.517 98.484 45.419 85.593 43.176 82.565 C 41.909 80.851 37.921 74.935 37.156 73.897 C 35.858 72.123 34.212 70.266 33.24 71.041 C 32.957 72.638 36.065 75.139 35.105 76.633 C 33.826 78.63 31.786 74.911 31.173 74.061 C 30.703 73.813 30.703 73.813 30.3 73.893 C 29.81 76.106 32.619 77.848 32.244 79.793 C 31.715 82.541 29.412 78.878 28.205 79.15 C 27.579 80.384 29.918 83.017 30.523 83.911 C 31.834 85.845 33.081 87.834 34.475 89.712 C 37.18 93.347 41.797 98.356 51.494 107.14 C 57.023 112.153 70.022 117.055 79.4 114.974 C 86.463 113.404 91.291 107.256 92.945 104.012 C 96.594 96.814 98.55 91.441 97.315 83.412 Z "/>
          <path id="Shape" fill="#780046" stroke="none" stroke-width="1" d="M 43.367 79.893 C 44.992 81.89 46.745 83.887 47.924 86.16 C 47.805 86.772 42.897 90.159 42.228 90.638 C 40.666 91.786 39.047 92.853 37.375 93.834 C 35.746 94.725 35.097 94.389 33.559 92.967 C 32.364 91.873 31.595 89.823 31.073 88.301 C 31.153 88.034 32.806 87.031 35.455 85.062 C 37.976 83.166 40.619 81.439 43.367 79.893 Z "/>
          <path id="Shape" fill="#780046" stroke="none" stroke-width="1" d="M 71.815 49.605 L 71.847 65.704 L 76.301 69.451 L 76.301 52.765 C 76.201 52.685 71.815 49.605 71.815 49.605 Z "/>
        </g>
        <g id="Left-Arm">
          <path id="Shape" fill="#A0640A" stroke="none" stroke-width="1" d="M 14.74 41.672 C 13.182 37.578 12.326 32.389 12.573 31.749 C 14.345 27.184 22.241 29.912 25.93 32.221 C 27.994 33.511 34.22 37.414 40.005 41.576 L 40.22 29.624 C 37.738 27.919 34.738 25.598 32.312 24.204 C 26.305 20.752 19.564 16.046 12.302 16.937 C 5.024 17.738 -0.364 24.098 0.024 31.43 C 0.239 35.053 1.038 38.617 2.39 41.984 C 3.661 45.271 13.067 65.368 13.067 65.368 C 14.76 68.184 16.927 71.109 17.907 70.186 C 17.939 68.987 15.19 65.64 17.046 64.993 C 18.608 64.434 20.146 67.581 21.209 68.428 C 23.476 67.629 18.516 63.147 20.731 61.673 C 22.305 60.627 24.185 64.206 25.452 64.745 C 26.647 64.166 22.938 58.793 22.397 57.954 C 22.345 57.695 17.648 49.302 14.74 41.672 Z "/>
          <path id="Shape" fill="#780046" stroke="none" stroke-width="1" d="M 19.214 48.671 C 20.528 50.868 21.97 53.097 22.799 55.537 C 22.568 56.137 17.222 58.777 16.489 59.133 C 14.779 60.034 13.024 60.846 11.23 61.565 C 9.485 62.212 8.892 61.781 7.581 60.151 C 6.569 58.897 5.848 56.796 5.553 55.214 C 5.673 54.962 7.701 54.167 10.589 52.605 C 13.372 51.101 16.254 49.787 19.214 48.671 Z "/>
          <path id="Shape" fill="#780046" stroke="none" stroke-width="1" d="M 44.299 32.069 C 42.116 30.591 40.164 28.717 39.519 28.274 L 39.559 42.587 L 44.295 46.006 L 44.299 32.069 Z "/>
        </g>
        <g id="Head">
          <path id="Shape" fill="#824600" stroke="none" stroke-width="1" d="M 71.189 31.414 C 71.189 31.414 73.978 30.247 75.572 28.018 C 76.599 26.58 76.97 24.128 76.332 23.185 C 75.496 21.951 74.034 21.567 72.863 22.634 C 71.958 23.457 71.01 28.194 70.895 29.309 C 70.911 29.325 71.189 31.414 71.189 31.414 Z "/>
          <path id="Shape" fill="#000000" stroke="none" stroke-width="1" d="M 73.874 5.592 C 69.094 0.999 61.174 -0.903 54.964 1.314 C 48.036 3.783 43.949 10.394 44.574 17.692 C 44.817 20.528 45.371 23.852 47.199 26.137 C 48.928 28.278 53.279 30.811 56.103 30.243 L 74.253 24.495 C 77.285 20.269 79.675 11.125 73.874 5.592 Z "/>
          <path id="Shape" fill="#A0640A" stroke="none" stroke-width="1" d="M 57.366 29.417 C 57.366 29.417 54.362 29.237 52.123 27.667 C 50.677 26.648 49.518 24.471 49.809 23.357 C 50.207 21.915 51.442 21.068 52.9 21.687 C 54.023 22.162 56.485 26.313 56.963 27.327 C 56.916 27.355 57.366 29.417 57.366 29.417 Z "/>
          <path id="Shape" fill="#A0640A" stroke="none" stroke-width="1" d="M 74.894 26.129 C 74.894 25.825 74.38 20.516 71.962 17.481 C 69.783 14.74 65.736 14.233 64.441 14.173 C 58.975 13.925 54.8 17.604 54.358 20.692 C 53.701 25.322 54.956 30.08 58.075 34.41 C 59.792 36.787 62.278 37.534 64.537 37.53 C 70.843 37.522 75.181 32.217 74.894 26.129 Z "/>
          <path id="Shape" fill="#000000" stroke="none" stroke-width="1" d="M 63.62 29.56 C 66.016 29.339 68.429 29.732 70.632 30.703 C 71.667 33.607 61.903 32.297 63.62 29.56 Z "/>
          <path id="Shape" fill="#824600" stroke="none" stroke-width="1" d="M 71.787 27.563 C 70.755 27.986 69.715 27.743 68.688 27.491 C 68.341 26.604 69.7 24.263 70.636 24.231 C 71.508 25.166 72.138 26.141 71.787 27.563 Z "/>
          <path id="Shape" fill="#000000" stroke="none" stroke-width="1" d="M 64.863 24.152 C 64.955 24.803 65.031 25.386 64.656 25.913 C 63.712 26.001 63.999 24.315 64.445 23.94 L 64.863 24.152 Z "/>
          <path id="Shape" fill="#000000" stroke="none" stroke-width="1" d="M 74.098 24.815 C 74.157 25.29 74.412 25.737 74.03 26.213 L 73.508 26.101 C 73.536 25.614 73.345 25.134 73.711 24.707 L 74.098 24.815 Z "/>
          <path id="Shape" fill="#000000" stroke="none" stroke-width="1" d="M 51.637 17.576 L 53.573 24.048 L 55.075 23.445 L 56.617 12.643 L 51.637 17.576 "/>
        </g>
      </g>
    </g>
  </g>
</svg>