<svg xmlns="http://www.w3.org/2000/svg" xmlns:xlink="http://www.w3.org/1999/xlink" version="1.1" width="134.0273895263672" height="168.3223419189453" viewBox="-0.4213879108428955 -0.39588192105293274 134.0273895263672 168.3223419189453">
  <!-- Exported by Scratch - http://scratch.mit.edu/ -->
  <g id="ID0.05282016936689615">
    <g id="Page-1">
      <g id="skeleton-e-[fantasy,spooky,halloween,bones,monster,alex-eben-meyer]">
        <g id="RIGHT-RADIUS-+-ULNA-+-HAND">
          <path id="Shape" fill="#C8BEA0" stroke="none" stroke-width="1" d="M 123.778 141.352 C 123.122 139.979 121.676 139.064 120.166 139.064 C 119.509 139.064 116.159 139.849 115.436 141.352 C 114.123 144.098 115.962 148.347 118.326 148.347 C 119.706 148.347 121.808 147.758 122.727 146.32 C 123.647 144.882 123.581 142.529 123.778 141.352 Z "/>
          <path id="Shape" fill="#C8BEA0" stroke="none" stroke-width="1" d="M 122.662 148.085 L 123.713 149.523 L 126.669 153.38 C 127.523 154.491 128.574 155.472 129.69 156.322 C 130.675 157.041 131.332 156.91 132.252 155.93 C 132.383 155.537 132.121 155.211 131.858 154.949 C 130.873 153.511 129.69 152.204 128.311 151.158 C 127.391 150.504 126.603 149.719 125.683 149.066 C 125.224 148.739 124.764 148.412 124.238 148.085 C 123.713 147.758 123.122 147.758 122.662 148.085 Z "/>
          <path id="Shape" fill="#C8BEA0" stroke="none" stroke-width="1" d="M 127.194 157.891 C 126.8 156.06 122.859 150.504 120.954 149 C 120.757 149 120.56 149.066 120.363 149.066 C 120.166 149.131 119.969 149.262 119.772 149.393 C 119.837 149.654 119.903 149.981 119.969 150.242 C 120.166 150.635 120.363 150.961 120.625 151.288 C 121.545 152.661 122.399 154.034 123.319 155.276 C 123.975 156.06 124.698 156.845 125.486 157.498 C 126.012 158.021 126.669 158.152 127.194 157.891 Z "/>
          <path id="Shape" fill="#C8BEA0" stroke="none" stroke-width="1" d="M 124.501 142.66 L 124.107 143.967 C 124.961 145.144 125.946 146.255 127.063 147.235 C 128.179 148.216 129.296 149.327 130.347 150.439 C 131.07 151.223 131.989 151.681 133.04 151.746 C 133.106 151.484 133.106 151.223 133.106 150.896 C 132.975 150.569 132.777 150.242 132.515 149.981 C 130.15 147.432 127.523 145.144 124.895 142.856 C 124.764 142.725 124.632 142.725 124.501 142.66 Z "/>
          <path id="Shape" fill="#C8BEA0" stroke="none" stroke-width="1" d="M 130.807 142.79 C 130.873 142.202 130.61 141.614 130.15 141.287 C 129.559 140.895 129.033 140.437 128.442 140.045 C 127.72 139.587 126.997 139.26 126.275 138.868 C 125.486 138.476 124.632 138.214 123.778 138.149 C 123.384 138.149 123.056 138.149 122.662 138.214 C 122.727 138.541 122.793 138.803 122.99 139.064 C 124.501 140.764 126.34 142.202 128.376 143.248 C 129.165 143.705 130.216 143.509 130.807 142.79 Z "/>
          <path id="Shape" fill="#C8BEA0" stroke="none" stroke-width="1" d="M 113.794 141.156 L 112.546 141.483 C 104.138 135.534 102.299 123.31 100.197 113.897 C 98.949 108.079 96.913 102.457 94.023 97.162 C 93.234 95.724 86.206 87.226 94.548 82.323 C 102.825 77.421 104.532 93.371 105.386 96.182 C 107.028 101.346 108.539 106.575 109.984 111.805 C 112.546 120.826 119.575 132.266 113.794 141.156 Z M 98.686 96.966 C 97.767 98.404 99.606 103.634 99.934 105.203 C 100.657 108.471 101.642 111.609 102.89 114.747 C 104.204 118.081 105.518 121.349 106.634 124.814 C 107.554 127.559 108.145 131.416 109.59 133.835 L 111.035 134.619 C 111.626 134.684 112.152 134.554 112.677 134.227 C 113.072 127.102 109.919 121.153 107.882 114.551 C 106.831 111.086 105.583 107.621 104.532 104.157 C 103.81 101.934 103.087 96.051 99.54 96.378 L 98.686 96.966 Z "/>
        </g>
        <g id="RIGHT-HUMERUS">
          <path id="Shape" fill="#AAA082" stroke="none" stroke-width="1" d="M 89.227 38.395 C 90.673 38.395 93.628 41.925 94.745 43.363 C 97.438 54.541 99.475 67.027 99.606 69.446 C 99.869 73.564 100.92 86.376 96.716 88.86 C 94.679 88.207 95.008 83.892 95.074 82.193 C 95.599 66.569 89.753 44.932 89.096 43.886 C 88.439 42.84 87.06 42.382 86.403 41.206 C 86.075 39.441 88.045 38.918 89.227 38.395 Z "/>
          <path id="Shape" fill="#AAA082" stroke="none" stroke-width="1" d="M 100.197 86.638 C 100.591 89.056 99.146 90.691 97.044 91.148 C 95.205 91.54 93.366 90.429 92.972 88.599 C 92.972 88.533 92.972 88.468 92.906 88.403 C 92.775 87.161 93.234 85.984 94.154 85.2 C 94.417 85.004 94.679 84.807 94.942 84.677 C 95.336 84.481 95.73 84.35 96.125 84.35 C 97.307 84.35 99.146 84.415 100.197 86.638 Z "/>
          <path id="Shape" fill="#C8BEA0" stroke="none" stroke-width="1" d="M 79.703 40.356 C 79.375 40.618 75.762 40.356 72.937 41.794 C 71.558 45.324 77.338 47.351 79.703 46.893 C 82.068 46.435 84.104 45.259 84.17 43.951 C 84.301 42.513 82.068 40.944 79.703 40.356 Z "/>
        </g>
        <g id="RIGHT-FEMUR">
          <path id="Shape" fill="#AAA082" stroke="none" stroke-width="1" d="M 95.271 117.231 C 93.431 119.192 92.84 119.78 88.899 117.688 C 85.812 116.054 83.184 111.74 81.345 108.863 C 79.375 105.922 77.535 102.784 74.054 101.673 C 70.31 100.496 68.799 98.012 68.602 94.874 C 68.471 93.24 71.886 89.318 76.55 90.102 C 80.754 90.821 86.14 96.051 88.374 98.666 C 91.789 102.915 97.11 115.27 95.271 117.231 Z "/>
          <path id="Shape" fill="#DCD2B4" stroke="none" stroke-width="1" d="M 75.433 92.586 C 77.535 93.044 77.864 95.005 77.141 96.639 C 76.55 98.012 74.908 98.666 73.528 98.077 C 73.463 98.077 73.463 98.012 73.397 98.012 C 72.543 97.489 72.018 96.639 71.952 95.659 C 71.952 95.397 71.952 95.136 72.018 94.874 C 72.083 94.547 72.215 94.221 72.346 93.959 C 72.806 93.175 73.331 92.063 75.433 92.586 Z "/>
        </g>
        <g id="RIGHT-TIB-+-FIB">
          <path id="Shape" fill="#AAA082" stroke="none" stroke-width="1" d="M 99.343 166.454 L 97.898 166.258 C 97.898 166.258 100.657 124.16 102.89 122.983 C 103.941 123.441 105.058 123.898 105.386 125.99 C 107.028 136.188 99.343 166.454 99.343 166.454 Z "/>
          <path id="Shape" fill="#AAA082" stroke="none" stroke-width="1" d="M 95.074 123.441 L 95.862 123.768 C 97.701 129.651 95.205 140.568 95.468 146.647 L 96.256 165.931 L 94.351 166.389 L 92.709 163.643 C 92.775 163.643 89.622 126.579 95.074 123.441 Z "/>
          <path id="Shape" fill="#AAA082" stroke="none" stroke-width="1" d="M 105.124 165.67 L 105.518 166.912 C 105.518 166.912 97.767 167.631 97.175 167.369 C 95.927 167.435 94.679 167.239 93.497 166.846 L 92.84 163.643 C 93.76 163.251 94.679 162.924 95.665 162.597 C 95.665 162.597 95.402 165.866 95.468 165.67 C 96.125 165.67 105.124 165.67 105.124 165.67 Z M 100.657 115.139 C 102.956 116.25 103.81 118.538 102.759 120.695 C 101.971 122.395 99.672 123.637 97.767 122.656 C 96.65 122.068 95.993 120.891 95.927 119.649 C 95.927 119.323 95.927 118.996 95.993 118.669 C 96.059 118.211 96.256 117.819 96.519 117.427 C 97.307 116.381 98.818 114.551 100.657 115.139 Z M 93.563 119.846 C 94.22 119.584 94.942 119.911 95.205 120.499 C 95.205 120.499 95.205 120.565 95.205 120.565 C 95.468 121.153 95.139 121.872 94.548 122.068 C 94.154 122.199 93.76 122.068 93.497 121.807 C 93.3 121.611 93.169 121.414 93.103 121.218 C 93.103 120.826 93.037 120.107 93.563 119.846 Z "/>
        </g>
        <g id="PELVIS">
          <path id="Shape" fill="#DCD2B4" stroke="none" stroke-width="1" d="M 66.697 97.751 C 66.303 102.392 59.866 101.607 56.516 101.607 C 52.903 101.607 47.714 101.673 44.758 99.189 C 41.408 96.312 44.232 91.606 41.605 88.468 C 38.583 84.873 33.723 87.291 30.044 86.376 C 29.716 80.428 44.626 83.696 47.779 83.892 C 54.742 84.219 61.639 83.565 68.536 82.912 C 71.098 82.65 74.514 81.931 77.01 82.585 C 79.506 83.239 81.411 86.703 78.192 88.076 C 76.287 88.86 72.872 87.095 70.638 87.488 C 66.828 88.141 66.631 90.56 66.697 97.751 Z M 48.108 89.056 C 47.714 90.233 48.042 94.482 49.684 95.92 C 50.67 96.77 52.64 96.835 54.348 97.162 C 57.961 97.751 60.325 97.228 61.114 94.286 C 61.639 92.325 61.442 91.671 61.508 89.449 C 61.574 87.226 59.143 87.422 58.289 87.749 C 57.435 88.076 58.158 89.449 57.304 90.102 C 56.647 90.56 53.625 91.018 52.772 90.102 C 51.918 89.187 52.837 88.337 51.195 87.945 C 49.553 87.553 48.502 87.88 48.108 89.056 Z "/>
          <path id="Shape" fill="#DCD2B4" stroke="none" stroke-width="1" d="M 46.597 83.892 C 46.728 82.846 47.057 82.193 47.648 81.996 C 48.174 81.8 48.699 81.67 49.29 81.604 C 50.867 81.408 52.509 81.604 54.085 81.539 C 55.53 81.474 56.975 81.474 58.486 81.474 L 59.209 81.474 C 60.063 82.846 59.537 84.938 58.815 85.461 C 58.683 85.592 58.486 85.657 58.289 85.723 C 57.304 86.049 56.253 86.246 55.268 86.18 C 53.428 86.246 51.589 86.18 49.684 86.049 C 49.093 86.049 48.502 85.984 47.911 85.788 C 47.188 85.526 46.794 85.069 46.597 83.892 Z "/>
        </g>
        <g id="RIB-CAGE">
          <path id="Shape" fill="#C8BEA0" stroke="none" stroke-width="1" d="M 25.709 48.743 C 25.709 48.743 27.22 72.407 33.197 73.387 L 38.058 72.145 L 35.299 49.658 L 25.709 48.743 Z "/>
          <path id="Shape" fill="#AAA082" stroke="none" stroke-width="1" d="M 72.018 49.769 L 71.361 71.668 L 78.783 72.387 C 78.783 72.387 84.761 55.26 81.411 48.854 L 72.018 49.769 Z "/>
          <path id="Shape" fill="#DCD2B4" stroke="none" stroke-width="1" d="M 25.183 58.79 C 24.592 57.483 24.264 56.306 24.921 54.999 C 31.883 53.626 40.554 52.907 47.648 53.626 C 48.699 54.933 48.765 55.13 48.699 56.306 C 41.802 59.771 32.54 61.274 25.183 58.79 Z "/>
          <path id="Shape" fill="#DCD2B4" stroke="none" stroke-width="1" d="M 46.794 42.121 C 47.057 41.075 47.451 40.487 48.042 40.421 C 48.568 40.291 49.159 40.225 49.684 40.225 C 51.261 40.225 52.837 40.683 54.414 40.814 C 55.859 40.944 57.304 41.14 58.749 41.271 L 59.472 41.337 C 60.128 42.84 59.406 44.801 58.552 45.259 C 58.355 45.324 58.224 45.389 58.026 45.455 C 57.041 45.651 55.99 45.716 54.939 45.52 C 53.1 45.324 51.261 45.063 49.422 44.736 C 48.83 44.67 48.239 44.474 47.714 44.213 C 47.188 43.821 46.794 43.298 46.794 42.121 Z "/>
          <path id="Shape" fill="#DCD2B4" stroke="none" stroke-width="1" d="M 23.738 50.488 C 23.41 49.181 23.607 47.808 24.264 46.632 C 26.497 44.344 34.117 46.239 36.81 46.501 C 40.882 46.828 44.955 47.351 49.027 48.135 C 49.422 48.527 49.553 49.116 49.356 49.639 C 46.334 51.6 41.079 51.207 37.532 51.404 C 33.723 51.6 26.891 53.168 23.738 50.488 Z "/>
          <path id="Shape" fill="#DCD2B4" stroke="none" stroke-width="1" d="M 28.008 65.066 C 32.146 63.954 36.284 63.17 40.554 62.647 C 42.722 62.32 48.108 60.032 49.947 61.601 C 50.275 64.151 38.189 67.419 36.416 68.007 C 34.642 68.596 30.832 69.772 28.993 69.184 C 26.76 68.465 27.482 66.961 28.008 65.066 Z "/>
          <path id="Shape" fill="#DCD2B4" stroke="none" stroke-width="1" d="M 31.095 73.695 C 34.117 71.864 37.992 71.211 41.342 69.968 C 44.232 68.923 47.32 67.092 50.473 67.223 C 49.225 70.426 32.146 78.728 31.095 73.695 Z "/>
          <path id="Shape" fill="#DCD2B4" stroke="none" stroke-width="1" d="M 26.891 47.939 L 23.673 49.9 C 23.673 49.9 25.643 70.165 31.489 74.283 L 34.051 74.61 C 31.883 69.249 30.044 63.758 28.468 58.202 C 27.679 54.803 27.154 51.404 26.891 47.939 Z "/>
          <path id="Shape" fill="#DCD2B4" stroke="none" stroke-width="1" d="M 60.785 57.679 L 60.063 56.372 C 60.194 55.914 60.391 55.456 60.588 54.999 C 63.019 53.103 69.85 54.933 72.675 55.13 C 75.827 55.326 78.849 55.456 81.936 56.241 C 82.527 57.156 82.856 58.202 82.987 59.313 C 81.608 62.516 75.171 60.817 72.609 60.555 C 68.536 60.228 64.595 59.248 60.785 57.679 Z "/>
          <path id="Shape" fill="#DCD2B4" stroke="none" stroke-width="1" d="M 60.457 49.9 C 61.376 46.697 67.617 47.874 69.916 47.939 C 73.857 48.07 77.732 48.135 81.674 48.266 C 85.615 52.449 75.039 52.58 73.725 52.58 C 71.164 52.515 61.048 53.626 60.457 49.9 Z "/>
          <path id="Shape" fill="#DCD2B4" stroke="none" stroke-width="1" d="M 61.836 61.797 C 68.536 62.32 75.499 64.216 82.133 65.654 L 82.79 66.635 C 82.856 67.484 82.659 68.334 82.265 69.119 C 79.834 69.38 59.537 64.739 61.836 61.797 Z "/>
          <path id="Shape" fill="#DCD2B4" stroke="none" stroke-width="1" d="M 62.099 68.792 C 62.756 65.916 77.732 71.93 80.097 72.714 L 80.557 74.021 C 79.44 78.336 63.873 71.472 62.099 68.792 Z "/>
          <path id="Shape" fill="#DCD2B4" stroke="none" stroke-width="1" d="M 76.944 74.806 L 79.966 74.871 C 79.966 74.871 82.068 72.583 83.184 67.092 C 84.301 61.34 83.973 51.926 82.068 48.985 L 78.98 48.919 C 79.834 50.423 80.425 52.123 80.623 53.822 C 81.017 56.11 80.688 58.986 80.36 62.386 C 79.966 66.373 77.338 73.302 76.944 74.806 Z "/>
        </g>
        <g id="SPINE">
          <path id="Shape" fill="#C8BEA0" stroke="none" stroke-width="1" d="M 55.005 49.246 C 54.348 53.691 53.888 58.202 53.691 62.712 C 53.494 65.523 53.428 68.334 53.231 71.145 C 53.034 73.368 52.575 75.982 53.166 78.009 C 53.888 78.532 54.414 78.27 55.136 77.094 C 56.45 68.204 56.647 58.529 56.647 49.442 L 55.005 49.246 Z "/>
          <path id="Shape" fill="#C8BEA0" stroke="none" stroke-width="1" d="M 49.159 77.028 C 49.75 73.433 55.793 75.394 58.289 75.721 C 60.457 82.193 49.225 80.951 49.159 77.028 Z "/>
          <path id="Shape" fill="#C8BEA0" stroke="none" stroke-width="1" d="M 50.604 69.838 C 51.129 66.242 56.45 68.204 58.683 68.53 C 60.523 75.002 50.604 73.76 50.604 69.838 Z "/>
          <path id="Shape" fill="#C8BEA0" stroke="none" stroke-width="1" d="M 51.721 63.366 C 52.246 59.771 57.304 59.836 58.355 62.712 C 60.063 67.223 51.786 67.288 51.721 63.366 Z "/>
          <path id="Shape" fill="#C8BEA0" stroke="none" stroke-width="1" d="M 51.524 56.437 C 52.049 52.842 57.107 52.907 58.158 55.783 C 59.866 60.294 51.524 60.359 51.524 56.437 Z "/>
          <path id="Shape" fill="#C8BEA0" stroke="none" stroke-width="1" d="M 52.443 50.358 C 52.903 47.481 56.975 47.547 57.829 49.835 C 59.209 53.495 52.509 53.561 52.443 50.358 Z "/>
          <path id="Shape" fill="#DCD2B4" stroke="none" stroke-width="1" d="M 55.399 77.159 C 55.465 77.878 55.005 78.467 54.282 78.597 C 54.282 78.597 54.217 78.597 54.217 78.597 C 53.56 78.663 52.969 78.205 52.903 77.551 C 52.903 77.159 53.1 76.767 53.428 76.571 C 53.494 76.505 53.625 76.505 53.691 76.44 C 53.823 76.375 53.954 76.375 54.085 76.375 C 54.545 76.44 55.268 76.571 55.399 77.159 Z "/>
          <path id="Shape" fill="#DCD2B4" stroke="none" stroke-width="1" d="M 55.99 69.968 C 56.056 70.688 55.596 71.276 54.939 71.407 C 54.939 71.407 54.874 71.407 54.874 71.407 C 54.217 71.472 53.625 71.014 53.56 70.361 C 53.56 69.968 53.757 69.642 54.085 69.446 C 54.151 69.38 54.282 69.38 54.348 69.315 C 54.479 69.249 54.611 69.249 54.742 69.249 C 55.136 69.249 55.859 69.38 55.99 69.968 Z "/>
          <path id="Shape" fill="#DCD2B4" stroke="none" stroke-width="1" d="M 56.45 63.17 C 56.516 63.889 56.056 64.477 55.399 64.608 C 55.399 64.608 55.333 64.608 55.333 64.608 C 54.676 64.674 54.085 64.216 54.02 63.562 C 54.02 63.17 54.217 62.778 54.545 62.582 C 54.611 62.516 54.742 62.516 54.808 62.451 C 54.939 62.386 55.071 62.386 55.202 62.386 C 55.596 62.386 56.319 62.516 56.45 63.17 Z "/>
          <path id="Shape" fill="#DCD2B4" stroke="none" stroke-width="1" d="M 56.516 56.175 C 56.581 56.895 56.122 57.483 55.399 57.614 C 55.399 57.614 55.333 57.614 55.333 57.614 C 54.676 57.679 54.085 57.221 54.02 56.568 C 54.02 56.175 54.217 55.783 54.545 55.587 C 54.611 55.522 54.742 55.522 54.808 55.456 C 54.939 55.391 55.071 55.391 55.202 55.391 C 55.662 55.456 56.384 55.587 56.516 56.175 Z "/>
          <path id="Shape" fill="#DCD2B4" stroke="none" stroke-width="1" d="M 56.713 50.161 C 56.778 50.881 56.319 51.469 55.662 51.6 C 55.662 51.6 55.596 51.6 55.596 51.6 C 54.939 51.665 54.348 51.207 54.282 50.554 C 54.282 50.161 54.479 49.769 54.808 49.573 C 54.874 49.508 55.005 49.508 55.071 49.442 C 55.202 49.377 55.333 49.377 55.465 49.377 C 55.859 49.442 56.581 49.573 56.713 50.161 Z "/>
        </g>
        <g id="LEFT-FEMUR">
          <path id="Shape" fill="#C8BEA0" stroke="none" stroke-width="1" d="M 39.831 90.495 C 37.073 88.207 32.277 88.599 29.716 91.148 C 27.482 93.305 28.205 98.862 31.095 99.646 C 34.314 101.215 33.328 103.699 32.803 106.641 C 32.212 109.844 32.212 113.112 31.883 116.381 C 31.621 118.865 31.095 122.003 32.08 124.421 C 32.737 126.121 34.182 126.709 35.825 126.775 C 36.219 126.775 38.649 125.598 40.094 122.787 C 42.262 118.473 43.575 111.478 43.641 108.406 C 43.641 101.804 42.59 92.717 39.831 90.495 Z "/>
          <path id="Shape" fill="#F0E6D2" stroke="none" stroke-width="1" d="M 32.146 93.24 C 31.489 95.136 32.08 96.835 33.723 97.489 C 35.102 98.077 36.744 97.424 37.335 96.051 C 37.335 95.986 37.401 95.986 37.401 95.92 C 37.664 95.005 37.467 93.959 36.81 93.175 C 36.678 92.979 36.481 92.782 36.284 92.652 C 36.022 92.456 35.693 92.325 35.365 92.194 C 34.314 91.933 32.606 92.26 32.146 93.24 Z "/>
        </g>
        <g id="LEFT-TIB-+-FIB">
          <path id="Shape" fill="#C8BEA0" stroke="none" stroke-width="1" d="M 31.095 126.971 C 30.898 127.625 31.358 128.344 32.015 128.474 C 32.015 128.474 32.08 128.474 32.08 128.474 C 32.737 128.605 33.328 128.213 33.46 127.559 C 33.525 127.036 33.197 126.579 32.737 126.382 C 32.606 126.317 32.475 126.317 32.343 126.317 C 32.08 126.382 31.292 126.448 31.095 126.971 Z "/>
          <path id="Shape" fill="#C8BEA0" stroke="none" stroke-width="1" d="M 39.766 133.05 C 39.766 132.854 39.831 132.527 39.831 132.266 C 39.897 129.847 39.109 128.932 36.613 128.344 C 35.43 128.082 34.248 128.278 33.263 128.997 C 31.358 130.697 32.737 133.9 34.971 134.423 L 36.678 134.815 C 37.861 134.619 39.043 134.292 39.766 133.05 Z "/>
          <path id="Shape" fill="#C8BEA0" stroke="none" stroke-width="1" d="M 35.496 138.411 C 35.759 137.691 36.087 137.168 35.825 136.58 C 35.365 136.057 34.774 136.123 34.117 135.992 C 23.935 141.156 11.915 152.269 2.981 159.329 L 3.901 160.113 C 8.499 158.544 17.038 151.223 20.914 148.347 C 26.497 144.294 30.175 143.052 35.496 138.411 Z "/>
          <path id="Shape" fill="#C8BEA0" stroke="none" stroke-width="1" d="M 5.74 161.486 C 6.266 162.009 7.382 162.859 7.514 163.643 L 7.054 163.905 C 5.477 163.512 3.573 161.421 2.325 160.44 C 0.879 159.263 -0.04 158.218 0.091 157.76 C 0.42 157.041 0.945 156.518 1.668 156.256 C 1.536 156.322 2.85 158.675 2.85 158.675 C 2.85 158.675 5.609 161.355 5.74 161.486 Z "/>
          <path id="Shape" fill="#C8BEA0" stroke="none" stroke-width="1" d="M 29.847 131.154 C 29.059 129.912 24.526 134.554 22.359 136.515 C 19.797 138.737 19.469 138.476 17.038 140.829 C 14.476 143.313 1.668 156.322 1.668 156.322 L 1.142 158.348 L 2.325 159.263 L 27.942 135.207 C 28.008 135.207 30.635 132.396 29.847 131.154 Z "/>
        </g>
        <g id="HEAD">
          <path id="Shape" fill="#C8BEA0" stroke="none" stroke-width="1" d="M 70.638 31.335 C 72.477 31.335 75.959 30.747 77.798 30.747 C 77.864 31.139 78.126 38.068 75.762 38.787 C 75.039 39.441 73.331 38.722 72.477 38.526 C 71.098 37.414 70.31 33.361 70.638 31.335 Z "/>
          <path id="Shape" fill="#F0E6D2" stroke="none" stroke-width="1" d="M 60.128 37.153 C 59.275 36.107 59.34 30.093 59.472 28.916 C 60.588 29.047 64.135 32.054 64.989 32.381 C 65.383 32.969 64.989 37.088 64.661 37.545 C 62.69 38.133 61.771 38.068 60.128 37.153 Z "/>
          <path id="Shape" fill="#AAA082" stroke="none" stroke-width="1" d="M 78.783 32.316 C 78.586 33.95 78.586 35.584 78.783 37.153 C 80.294 37.937 81.082 38.003 82.462 37.284 C 82.856 36.761 83.184 30.616 83.25 28.393 L 78.783 32.316 Z "/>
          <path id="Shape" fill="#F0E6D2" stroke="none" stroke-width="1" d="M 70.441 32.773 C 70.835 33.492 70.047 37.218 69.784 37.872 C 69.522 38.722 68.602 39.245 67.682 38.983 C 67.551 38.918 67.42 38.853 67.223 38.787 C 67.091 38.722 66.96 38.591 66.828 38.526 C 66.369 37.48 65.58 32.904 65.975 31.923 C 66.96 31.596 69.522 32.446 70.441 32.773 Z "/>
          <path id="Shape" fill="#DCD2B4" stroke="none" stroke-width="1" d="M 79.966 4.076 C 75.959 1.526 70.638 1.134 66.04 0.35 C 59.143 -0.827 41.342 2.246 36.613 9.044 C 34.445 12.116 34.117 17.673 36.087 20.876 C 38.518 24.798 42.656 26.105 46.925 26.955 C 52.246 28.001 56.187 27.347 59.603 32.054 C 61.376 34.538 64.004 35.584 66.828 35.846 C 68.471 35.976 74.645 35.976 76.025 35.649 C 79.177 34.93 81.871 32.839 83.316 29.962 C 89.95 16.235 83.71 6.429 79.966 4.076 Z "/>
          <path id="Shape" fill="#C8BEA0" stroke="none" stroke-width="1" d="M 77.141 16.365 C 76.353 16.3 75.63 16.758 75.433 17.477 C 74.842 18.653 74.448 19.961 74.185 21.203 C 73.988 22.575 73.594 23.883 73.266 25.19 C 73.069 26.105 72.543 28.067 74.12 28.067 C 75.696 28.067 76.025 25.975 77.01 25.844 C 77.995 25.713 77.798 27.217 79.243 28.067 C 80.688 28.916 80.82 27.609 80.951 27.347 C 81.214 24.471 79.703 16.758 77.141 16.365 Z "/>
          <path id="Shape" fill="#FFFFFF" stroke="none" stroke-width="1" d="M 70.113 15.777 C 72.149 19.046 69.916 22.837 66.5 24.144 C 63.741 25.19 59.866 24.079 58.88 20.614 C 58.355 18.784 58.88 16.235 60.194 14.927 C 60.523 14.535 60.917 14.143 61.376 13.881 C 61.968 13.489 62.625 13.162 63.281 13.032 C 65.186 12.639 68.076 12.509 70.113 15.777 Z "/>
          <path id="Shape" fill="#000000" stroke="none" stroke-width="1" d="M 67.814 17.281 C 68.339 17.477 68.668 17.934 68.733 18.457 C 68.602 19.176 68.536 20.091 67.42 20.222 C 66.631 19.699 66.828 18.915 66.894 18.196 C 66.894 17.673 67.288 17.281 67.814 17.281 Z "/>
          <path id="Shape" fill="#FFFFFF" stroke="none" stroke-width="1" d="M 94.088 15.777 C 96.125 19.046 93.891 22.837 90.475 24.144 C 87.717 25.19 83.841 24.079 82.856 20.614 C 82.33 18.784 82.856 16.235 84.17 14.927 C 84.498 14.535 84.892 14.143 85.352 13.881 C 85.943 13.489 86.6 13.162 87.257 13.032 C 89.096 12.639 92.052 12.509 94.088 15.777 Z "/>
          <path id="Shape" fill="#000000" stroke="none" stroke-width="1" d="M 90.738 17.281 C 91.264 17.477 91.592 17.934 91.658 18.457 C 91.526 19.176 91.461 20.091 90.344 20.157 C 89.49 19.634 89.753 18.849 89.819 18.13 C 89.819 17.673 90.213 17.281 90.738 17.281 Z "/>
        </g>
        <g id="LEFT-RADIUS-+-ULNA-+-HAND">
          <path id="Shape" fill="#C8BEA0" stroke="none" stroke-width="1" d="M 16.71 83.042 C 17.564 84.677 16.973 86.768 15.396 87.684 C 14.082 88.403 12.375 87.88 11.652 86.572 C 11.652 86.507 11.586 86.507 11.586 86.442 C 11.192 85.526 11.324 84.481 11.915 83.696 C 12.046 83.5 12.243 83.304 12.44 83.108 C 12.703 82.912 12.966 82.716 13.294 82.585 C 14.411 82.389 15.593 82.519 16.71 83.042 Z "/>
          <path id="Shape" fill="#AAA082" stroke="none" stroke-width="1" d="M 24.067 146.386 C 23.541 145.47 23.278 144.49 23.278 143.444 C 23.278 142.267 23.738 141.156 24.592 140.306 C 25.249 139.587 26.234 139.522 27.154 139.456 C 27.482 139.456 27.811 139.653 28.008 139.849 C 28.599 140.502 29.19 141.156 29.65 141.875 C 30.373 143.248 30.241 144.947 29.256 146.189 C 29.19 146.255 29.059 146.386 28.993 146.451 C 28.008 146.974 26.957 147.366 25.84 147.562 C 25.052 147.628 24.526 147.235 24.067 146.386 Z "/>
          <path id="Shape" fill="#C8BEA0" stroke="none" stroke-width="1" d="M 39.503 156.453 L 38.124 157.106 C 37.598 156.975 37.073 156.649 36.744 156.191 C 35.299 154.295 33.854 152.465 32.409 150.635 C 31.752 149.85 31.226 148.935 30.767 148.02 C 30.504 147.628 30.438 147.105 30.635 146.647 C 30.964 146.32 31.226 146.451 31.555 146.582 C 32.54 146.974 33.394 147.628 34.117 148.477 C 34.971 149.654 36.022 150.635 36.941 151.811 C 37.664 152.857 38.386 153.968 38.977 155.08 C 39.24 155.472 39.372 155.93 39.503 156.453 Z "/>
          <path id="Shape" fill="#C8BEA0" stroke="none" stroke-width="1" d="M 35.759 160.505 C 35.036 160.505 34.314 160.179 33.985 159.525 C 33.46 158.806 32.934 158.021 32.343 157.302 C 31.161 155.733 30.044 154.165 29.059 152.465 C 28.665 151.681 28.271 150.896 27.876 150.112 C 27.548 149.654 27.614 149 28.074 148.608 C 28.205 148.674 28.402 148.739 28.468 148.87 C 28.796 149.327 29.256 149.719 29.781 149.981 C 29.978 150.112 30.175 150.308 30.307 150.504 C 31.489 152.073 32.934 153.511 33.985 155.211 C 34.642 156.256 35.233 157.368 35.627 158.544 C 35.956 159.133 36.022 159.852 35.759 160.505 Z "/>
          <path id="Shape" fill="#C8BEA0" stroke="none" stroke-width="1" d="M 31.818 159.656 C 29.716 158.414 25.709 152.269 25.315 149.785 C 26.037 149.785 26.694 150.177 27.023 150.831 C 27.811 152.073 28.533 153.315 29.322 154.491 C 29.781 155.211 30.241 155.93 30.767 156.649 C 31.489 157.498 31.883 158.544 31.818 159.656 Z "/>
          <path id="Shape" fill="#C8BEA0" stroke="none" stroke-width="1" d="M 37.795 145.274 C 37.073 145.47 36.284 145.34 35.693 144.882 C 35.365 144.686 35.036 144.49 34.774 144.228 C 33.197 142.79 31.555 141.483 29.781 140.306 C 29.65 140.175 29.519 140.045 29.387 139.914 C 29.584 139.718 29.781 139.587 29.978 139.456 C 30.832 139.13 31.818 139.13 32.672 139.522 C 34.379 140.502 36.219 141.352 37.664 142.79 C 38.583 143.705 38.583 144.098 37.795 145.274 Z "/>
          <path id="Shape" fill="#DCD2B4" stroke="none" stroke-width="1" d="M 25.183 138.476 C 20.717 136.646 20.191 131.874 18.746 127.559 C 17.235 122.787 16.184 117.819 15.725 112.851 C 15.265 108.34 14.805 103.961 13.951 99.516 C 13.557 97.293 13.294 94.874 12.177 92.848 C 10.995 90.756 6.266 83.565 13.688 80.362 C 21.111 77.159 20.191 93.175 20.323 94.94 C 20.848 100.235 22.425 105.791 23.41 111.086 C 24.329 116.25 26.366 121.153 27.482 126.252 C 28.599 131.285 30.175 135.665 25.183 138.476 Z M 15.527 90.364 C 13.623 91.737 15.002 98.6 15.265 100.692 C 15.79 104.484 16.644 108.21 17.432 111.936 C 18.089 115.074 18.615 118.277 19.14 121.48 C 19.666 124.291 19.863 130.109 22.622 131.808 L 24.921 131.547 C 25.906 128.474 24.001 124.356 23.41 121.284 C 22.753 117.623 22.293 113.832 21.636 110.171 C 21.045 106.968 19.009 90.102 15.527 90.364 Z "/>
        </g>
        <g id="LEFT-HUMERUS">
          <path id="Shape" fill="#DCD2B4" stroke="none" stroke-width="1" d="M 25.118 43.363 C 24.855 43.102 21.242 42.579 18.746 40.683 C 18.024 36.957 24.067 36.042 26.366 36.891 C 28.665 37.741 30.373 39.31 30.175 40.618 C 29.978 42.121 27.548 43.298 25.118 43.363 Z "/>
          <path id="Shape" fill="#C8BEA0" stroke="none" stroke-width="1" d="M 14.608 85.134 L 13.82 85.069 C 11.521 79.839 13.623 72.322 14.345 66.961 C 14.871 63.039 15.33 59.117 15.856 55.195 C 16.25 52.319 16.775 48.07 18.418 45.52 C 18.877 44.867 21.374 42.84 21.571 44.997 C 22.162 52.384 18.812 75.786 14.608 85.134 Z "/>
          <path id="Shape" fill="#C8BEA0" stroke="none" stroke-width="1" d="M 17.447 84.361 C 17.768 86.327 16.593 87.656 14.883 88.029 C 13.388 88.348 11.892 87.444 11.571 85.955 C 11.571 85.902 11.571 85.849 11.518 85.796 C 11.411 84.786 11.785 83.829 12.533 83.191 C 12.747 83.032 12.96 82.872 13.174 82.766 C 13.494 82.606 13.815 82.5 14.135 82.5 C 15.097 82.5 16.593 82.553 17.447 84.361 Z "/>
        </g>
      </g>
    </g>
  </g>
</svg>