<svg xmlns="http://www.w3.org/2000/svg" xmlns:xlink="http://www.w3.org/1999/xlink" width="61.6855583190918" height="150.79600524902344" viewBox="5.607219219207764 5 61.6855583190918 150.79600524902344" version="1.1" xml:space="preserve">
  <!-- Generator: Sketch 49.3 (51167) - http://www.bohemiancoding.com/sketch -->
  <defs/>
  <g>
    <title>brownie-a</title>
    <desc>Created with Sketch.</desc>
    <g id="brownie-a" stroke="none" fill-rule="evenodd">
      <g id="Brownie-Neutral" fill-rule="nonzero">
        <g id="Group">
          <g id="Shape">
            <path d="M 55.8 92.2 C 55.8 92.2 58.4 92.4 60.5 94.9 C 61.9 96.6 63.8 97.6 63.1 98 C 61.9 98.8 59.8 96.1 59.8 96.1 C 59.8 96.1 60.8 98.8 61.1 99.7 C 61.3 100.6 61.6 102.4 61.1 102.6 C 60.3 103.1 60.1 102 59.6 100.2 C 59.6 100.2 59.9 101.8 59.6 102.7 C 59.3 103.5 58.5 103.9 58.1 103 C 58.1 103 57.8 104.6 56.4 103.1 C 56.4 103.1 55.2 104.2 54.5 100.2 C 54.2 98.5 48.7 92.9 55.8 92.2 Z " fill="#A2B04A" stroke-width="1"/>
            <path d="M 56.4 103.1 C 56.4 103.1 56.6 102.8 56.6 102.4 C 56.7 101.9 56.7 101.3 56.6 100.7 C 56.5 100.1 56.3 99.5 56.1 99.1 C 55.9 98.7 55.7 98.5 55.7 98.5 C 55.7 98.5 55.7 98.8 55.8 99.2 C 55.9 99.6 55.9 100.2 56 100.8 C 56.1 101.4 56.2 101.9 56.3 102.3 C 56.3 102.8 56.4 103.1 56.4 103.1 Z " fill="#698237" stroke-width="1"/>
            <path d="M 58.2 103.2 C 58.2 103.2 58.3 102.9 58.4 102.4 C 58.5 101.9 58.5 101.3 58.4 100.6 C 58.3 100 58 99.4 57.8 98.9 C 57.6 98.5 57.3 98.2 57.3 98.2 C 57.3 98.2 57.3 98.3 57.3 98.4 C 57.3 98.5 57.4 98.7 57.4 99 C 57.5 99.4 57.6 100 57.7 100.6 C 57.8 101.2 57.9 101.8 58 102.2 C 58.1 102.9 58.2 103.2 58.2 103.2 Z " fill="#698237" stroke-width="1"/>
            <path d="M 59.8 101.4 C 59.8 101.4 59.9 101.2 59.9 100.8 C 59.9 100.4 59.9 99.9 59.8 99.5 C 59.7 99 59.5 98.6 59.3 98.2 C 59.1 97.9 58.9 97.7 58.9 97.7 C 58.9 97.7 58.9 97.8 58.9 97.9 C 58.9 98 58.9 98.2 59 98.3 C 59 98.7 59.1 99.1 59.2 99.6 C 59.3 100.1 59.4 100.5 59.5 100.8 C 59.7 101.1 59.8 101.4 59.8 101.4 Z " fill="#698237" stroke-width="1"/>
            <path d="M 56.7 92.4 C 56.7 92.4 57 92.5 57.3 92.7 C 57.7 92.9 58.1 93.2 58.6 93.6 C 59.1 93.9 59.5 94.3 59.9 94.5 C 60.3 94.7 60.6 94.9 60.6 94.9 C 60.6 94.9 60.5 94.6 60.2 94.3 C 59.9 93.9 59.5 93.5 59 93.2 C 58.5 92.8 58 92.6 57.5 92.5 C 57 92.3 56.6 92.4 56.7 92.4 Z " fill="#698237" stroke-width="1"/>
            <path d="M 59.8 96.1 C 59.8 96.1 59.5 96.1 59.1 96 C 58.7 95.9 58.2 95.8 57.8 95.7 C 57.3 95.6 56.9 95.4 56.5 95.2 C 56.3 95.1 56.2 95.1 56.1 95 C 56 95 55.9 94.9 55.9 94.9 C 55.9 94.9 56 95.2 56.3 95.5 C 56.4 95.7 56.6 95.8 56.9 95.9 C 57.1 96 57.4 96.1 57.7 96.2 C 58.2 96.4 58.8 96.3 59.2 96.2 C 59.6 96.2 59.8 96.1 59.8 96.1 Z " fill="#698237" stroke-width="1"/>
          </g>
          <g id="Shape">
            <path d="M 48.4 75 C 49.9 74.8 51.9 75.9 53.3 78 C 53.8 78.7 53.8 80.1 54.6 80.8 C 57.7 83.6 57 88.8 56.7 90.4 C 56.1 93.3 50.2 93.9 48.1 89.5 C 47.5 88.2 45.9 84.7 44.7 82.6 C 42.8 79.2 44.1 75.7 48.4 75 Z " fill="#D1C1B4" stroke-width="1"/>
            <path d="M 55.8 89.7 L 57.2 92.1 C 57.2 92.1 54.4 94.1 52 93.7 L 50.7 90.7 " fill="#D1C1B4" stroke-width="1"/>
            <path d="M 53.1 92.3 C 53.1 92.3 52.9 92.3 52.5 92.3 C 52.1 92.3 51.6 92.3 51 92 C 50.4 91.8 49.9 91.3 49.4 90.7 C 49.2 90.4 48.9 90 48.7 89.7 C 48.5 89.4 48.3 89 48.1 88.6 C 47.3 87.1 46.6 85.5 45.9 84.4 C 45.6 83.8 45.3 83.4 45.1 83.1 C 44.9 82.8 44.7 82.6 44.7 82.6 C 44.7 82.6 45.1 83.4 45.6 84.6 C 46.1 85.8 46.7 87.4 47.5 89 C 47.7 89.4 47.9 89.8 48.2 90.1 C 48.4 90.5 48.7 90.8 49 91.1 C 49.5 91.7 50.2 92.3 50.9 92.4 C 51.6 92.6 52.1 92.5 52.5 92.4 C 52.9 92.4 53.1 92.3 53.1 92.3 Z " fill="#9E8B7B" stroke-width="1"/>
            <path d="M 53.6 78.8 C 53.6 78.8 53.6 79 53.6 79.4 C 53.6 79.8 53.8 80.4 54.4 80.9 C 54.6 81.1 54.8 81.4 55 81.7 C 55.2 82 55.4 82.4 55.5 82.7 C 55.8 83.5 56.1 84.3 56.3 85.1 C 56.4 85.5 56.4 85.9 56.4 86.4 C 56.4 86.9 56.5 87.3 56.5 87.7 C 56.6 88.5 56.7 89.3 56.5 89.9 C 56.4 90.5 56 90.9 55.7 91.1 C 55.4 91.3 55.1 91.3 55.1 91.3 C 55.1 91.3 55.2 91.3 55.3 91.3 C 55.4 91.3 55.6 91.3 55.8 91.2 C 56.2 91.1 56.7 90.7 56.9 90 C 57.1 89.3 57.1 88.5 57.1 87.6 C 57.1 87.2 57.1 86.8 57 86.3 C 57 85.9 57 85.4 56.9 84.9 C 56.7 84 56.4 83.1 56 82.3 C 55.8 81.9 55.6 81.6 55.3 81.2 C 55.1 80.9 54.8 80.6 54.5 80.4 C 54 80.1 53.7 79.6 53.6 79.2 C 53.7 79 53.6 78.8 53.6 78.8 Z " fill="#9E8B7B" stroke-width="1"/>
          </g>
          <g id="Shape">
            <path d="M 52.1 66.8 C 52 62.8 48.5 54.1 44.5 54.8 C 40.5 55.5 38.8 58.7 40 66.6 C 40.6 70.5 41.4 73.7 42.4 76 C 42.7 76.8 42.5 78 42.9 78.6 C 44.2 80.5 46.3 80.9 47.8 80.6 C 50 80.2 52 79.3 52.7 77.5 C 53.6 75.2 52.3 74.7 52.1 66.8 Z " fill="#D1C1B4" stroke-width="1"/>
            <path d="M 41.1 56.5 C 41.1 56.5 41.1 56.6 41 56.7 C 40.9 56.9 40.8 57.1 40.6 57.4 C 40.3 58 39.9 58.9 39.6 60.1 C 39.3 61.3 39.2 62.7 39.3 64.2 C 39.4 65.7 39.6 67.3 40 68.8 C 40.3 70.3 40.7 71.9 41.2 73.3 C 41.4 74 41.7 74.7 42 75.3 C 42.1 75.6 42.3 75.9 42.3 76.2 C 42.4 76.5 42.4 76.8 42.4 77.1 C 42.5 77.7 42.6 78.2 42.8 78.7 C 43 79.1 43.3 79.5 43.6 79.7 C 43.9 79.9 44.2 80 44.4 80 C 44.6 80 44.7 80.1 44.7 80.1 C 44.7 80.1 44.6 80.1 44.4 80 C 44.2 80 44 79.8 43.7 79.6 C 43.4 79.4 43.2 79.1 43 78.6 C 42.8 78.2 42.8 77.6 42.7 77.1 C 42.7 76.8 42.7 76.5 42.6 76.2 C 42.6 75.9 42.4 75.5 42.3 75.2 C 42.1 74.6 41.9 73.9 41.7 73.2 C 41.3 71.8 41 70.3 40.6 68.7 C 40.3 67.2 40 65.6 39.9 64.2 C 39.8 62.8 39.8 61.4 40 60.3 C 40.2 59.2 40.5 58.2 40.7 57.6 C 41 56.8 41.1 56.5 41.1 56.5 Z " fill="#9E8B7B" stroke-width="1"/>
            <path d="M 51.5 79.2 C 51.5 79.2 51.7 79.1 52.1 78.8 C 52.4 78.5 52.8 78 53.1 77.2 C 53.2 76.8 53.3 76.4 53.3 76 C 53.3 75.6 53.3 75.1 53.2 74.6 C 53 73.7 52.9 72.7 52.8 71.7 C 52.7 70.7 52.5 69.7 52.5 68.8 C 52.4 67.9 52.3 67 52.2 66.3 C 52.1 65.6 52 64.9 51.9 64.5 C 51.8 64.1 51.7 63.8 51.7 63.8 C 51.7 63.8 51.7 64 51.7 64.5 C 51.7 64.9 51.7 65.6 51.7 66.3 C 51.7 67 51.7 67.9 51.8 68.9 C 51.9 69.8 52 70.8 52.1 71.8 C 52.2 72.3 52.2 72.8 52.3 73.3 C 52.4 73.8 52.5 74.3 52.6 74.7 C 52.7 75.1 52.7 75.6 52.7 76 C 52.7 76.4 52.7 76.8 52.6 77.2 C 52.4 77.9 52.1 78.4 51.9 78.8 C 51.7 79.1 51.5 79.2 51.5 79.2 Z " fill="#9E8B7B" stroke-width="1"/>
          </g>
        </g>
        <g id="Group">
          <g id="Shape">
            <g>
              <path d="M 45.7 118.7 C 48.4 119.6 46.3 133.4 45.9 135.6 C 45.5 137.9 38.1 140.1 37.6 132.4 C 37 124.6 36.9 115.6 45.7 118.7 Z " fill="#A2B04A" stroke-width="1"/>
              <path d="M 38.3 121.2 C 38.3 121.2 38.1 121.4 38 121.8 C 37.8 122.2 37.6 122.7 37.5 123.4 C 37.3 124.1 37.2 124.9 37.2 125.8 C 37.2 126.7 37.2 127.6 37.2 128.6 C 37.3 129.5 37.3 130.5 37.4 131.4 C 37.5 132.3 37.7 133.1 37.8 133.8 C 37.9 134.5 38.1 135.1 38.2 135.5 C 38.3 135.9 38.4 136.1 38.4 136.1 C 38.4 136.1 38.4 135.2 38.3 133.8 C 38.2 132.4 38 130.5 38 128.7 C 37.9 127.8 37.9 126.8 37.9 126 C 37.9 125.6 37.9 125.1 37.9 124.7 C 37.9 124.3 37.9 123.9 38 123.6 C 38.1 122.9 38.2 122.3 38.3 121.9 C 38.2 121.4 38.3 121.2 38.3 121.2 Z " fill="#778C3A" stroke-width="1"/>
            </g>
            <path d="M 54.3 149.9 L 54.2 150.8 C 54.2 150.8 50.1 152.2 47 151.5 C 43.9 150.8 42.4 150.3 41.6 150.3 L 41.5 150.7 C 41.5 150.7 39 150.7 37.5 149.8 L 37.4 147 C 38.2 146.8 50.8 143.7 54.3 149.9 Z " fill="#17110B" stroke-width="1"/>
            <path d="M 46.3 133 C 46.3 133 43.3 135.6 37.5 132.9 C 37.5 132.9 37.7 142.6 37.7 144.4 C 37.7 146.2 35.9 148.5 40.2 149 C 44.5 149.5 42.9 150.3 47.4 150.5 C 51.9 150.7 54.2 149.9 54.2 149.9 C 54.2 149.9 54.5 147.3 52.6 146.3 C 50.7 145.3 48.6 145.2 47 143.2 C 45.5 141.3 46.3 133 46.3 133 Z " fill="#4F3B26" stroke-width="1"/>
            <path d="M 54.3 149.9 C 54.3 149.9 54.4 149.6 54.4 149 C 54.4 148.7 54.4 148.4 54.3 147.9 C 54.2 147.5 54 147 53.6 146.7 C 53.2 146.3 52.7 146.1 52.1 145.9 C 51.6 145.7 51 145.5 50.4 145.3 C 49.3 144.9 48.1 144.3 47.4 143.3 C 47 142.8 46.9 142.2 46.8 141.6 C 46.7 141 46.7 140.3 46.6 139.7 C 46.5 138.5 46.5 137.3 46.4 136.3 C 46.3 134.3 46.3 133 46.3 133 C 46.3 133 46.2 134.3 46.1 136.3 C 46.1 137.3 46.1 138.4 46.1 139.7 C 46.1 140.3 46.2 141 46.3 141.6 C 46.4 142.2 46.6 143 47 143.6 C 47.4 144.2 47.9 144.7 48.5 145 C 49.1 145.3 49.7 145.6 50.3 145.8 C 50.9 146 51.5 146.2 52 146.3 C 52.5 146.5 53 146.6 53.4 146.9 C 53.7 147.2 53.9 147.6 54.1 148 C 54.2 148.4 54.3 148.7 54.3 149 C 54.3 149.6 54.3 149.9 54.3 149.9 Z " fill="#1F180E" stroke-width="1"/>
            <path d="M 45.6 133.4 C 45.6 133.4 45.5 133.4 45.3 133.5 C 45.1 133.6 44.8 133.6 44.5 133.7 C 44.2 133.8 43.7 133.8 43.3 133.8 C 42.9 133.8 42.4 133.8 41.9 133.8 C 41.4 133.8 41 133.7 40.5 133.7 C 40.1 133.6 39.7 133.6 39.3 133.5 C 38.9 133.4 38.7 133.4 38.5 133.3 C 38.3 133.3 38.2 133.2 38.2 133.2 C 38.2 133.2 38.3 133.3 38.5 133.4 C 38.7 133.5 39 133.7 39.3 133.8 C 39.6 133.9 40 134.1 40.5 134.2 C 40.9 134.3 41.4 134.4 41.9 134.4 C 42.4 134.4 42.9 134.4 43.3 134.3 C 43.8 134.2 44.2 134.1 44.5 134 C 45.2 133.7 45.6 133.4 45.6 133.4 Z " fill="#1F180E" stroke-width="1"/>
            <path d="M 37.6 134.2 C 37.6 134.2 37.5 135.2 37.5 136.8 C 37.5 137.6 37.5 138.5 37.5 139.5 C 37.5 140.5 37.5 141.5 37.5 142.6 C 37.5 143.1 37.5 143.6 37.5 144.1 C 37.5 144.6 37.4 145.1 37.3 145.6 C 37.2 146.1 37.2 146.6 37.2 147.1 C 37.2 147.6 37.4 148 37.8 148.3 C 38.1 148.6 38.5 148.8 38.8 148.8 C 39.1 148.9 39.4 148.9 39.6 149 C 40.1 149 40.3 149 40.3 149 C 40.3 149 40 149 39.6 148.9 C 39.4 148.8 39.1 148.8 38.8 148.6 C 38.5 148.5 38.2 148.3 38 148 C 37.8 147.7 37.6 147.4 37.6 146.9 C 37.6 146.5 37.7 146 37.8 145.6 C 37.9 145.1 38 144.6 38 144.1 C 38 143.6 38 143.1 38 142.5 C 38 141.5 38 140.4 37.9 139.4 C 37.9 138.4 37.8 137.5 37.8 136.7 C 37.8 135.3 37.6 134.2 37.6 134.2 Z " fill="#1F180E" stroke-width="1"/>
            <path d="M 50 145.5 C 50 145.5 49.8 145.5 49.5 145.6 C 49.2 145.7 48.9 145.9 48.6 146.1 C 48.3 146.3 48.1 146.6 47.9 146.9 C 47.8 147.1 47.7 147.3 47.7 147.3 C 47.7 147.3 47.9 147.2 48.1 147.1 C 48.2 147 48.4 147 48.5 146.9 C 48.6 146.8 48.8 146.7 48.9 146.6 C 49.2 146.4 49.4 146.1 49.6 145.9 C 49.9 145.7 50 145.5 50 145.5 Z " fill="#1F180E" stroke-width="1"/>
            <path d="M 47.1 143.3 C 47.1 143.3 46.9 143.2 46.7 143.2 C 46.4 143.2 46.1 143.2 45.8 143.3 C 45.6 143.4 45.5 143.4 45.4 143.5 C 45.3 143.6 45.2 143.7 45.1 143.8 C 44.9 144 44.9 144.2 44.9 144.2 C 44.9 144.2 45.6 144.1 46.1 143.9 C 46.2 143.8 46.4 143.8 46.5 143.8 C 46.6 143.8 46.8 143.7 46.9 143.6 C 46.9 143.4 47.1 143.3 47.1 143.3 Z " fill="#1F180E" stroke-width="1"/>
            <path d="M 46.3 139.8 C 46.3 139.8 46.1 139.8 45.8 139.8 C 45.5 139.8 45.2 139.8 44.8 139.8 C 44.1 139.8 43.4 139.9 43.4 139.9 C 43.4 139.9 43.6 140 43.8 140.2 C 44.1 140.3 44.4 140.4 44.8 140.4 C 45 140.4 45.2 140.4 45.4 140.3 C 45.6 140.3 45.7 140.2 45.9 140.1 C 46.2 140 46.3 139.8 46.3 139.8 Z " fill="#1F180E" stroke-width="1"/>
            <path d="M 46.2 135.8 C 46.2 135.8 46 135.8 45.7 135.8 C 45.6 135.8 45.4 135.8 45.3 135.8 C 45.1 135.8 45 135.8 44.8 135.9 C 44.5 135.9 44.1 136 43.9 136 C 43.8 136 43.7 136 43.6 136 C 43.5 136 43.5 136 43.5 136 C 43.5 136 43.6 136.2 43.9 136.3 C 44 136.4 44.2 136.4 44.4 136.4 C 44.6 136.4 44.8 136.4 45 136.4 C 45.4 136.4 45.7 136.2 46 136 C 46.1 135.9 46.2 135.8 46.2 135.8 Z " fill="#1F180E" stroke-width="1"/>
            <path d="M 41.5 149 C 41.5 149 41.6 148.6 41.6 148 C 41.6 147.7 41.5 147.3 41.4 146.9 C 41.3 146.5 41.1 146.1 40.8 145.8 C 40.7 145.6 40.5 145.5 40.4 145.3 C 40.3 145.1 40.1 145 39.9 144.9 C 39.7 144.8 39.5 144.7 39.4 144.6 C 39.2 144.5 39.1 144.5 38.9 144.4 C 38.6 144.3 38.3 144.3 38.1 144.3 C 37.9 144.3 37.8 144.3 37.8 144.3 C 37.8 144.3 38.2 144.4 38.7 144.7 C 38.8 144.8 39 144.8 39.1 144.9 C 39.2 145 39.4 145.1 39.5 145.2 C 39.8 145.4 40.1 145.7 40.3 146 C 40.5 146.3 40.7 146.6 40.9 146.9 C 41.1 147.2 41.2 147.5 41.3 147.8 C 41.4 148.6 41.5 149 41.5 149 Z " fill="#1F180E" stroke-width="1"/>
          </g>
          <g id="Shape">
            <g>
              <path d="M 48.8 109.4 C 48.2 114.1 48.2 123.4 44.7 123.3 C 36.4 123.2 35.2 110.8 37.9 104.8 C 40.5 98.8 49.8 100.5 48.8 109.4 Z " fill="#A2B04A" stroke-width="1"/>
              <path d="M 36.3 111.4 C 36.3 111.4 36.2 111.9 36.3 112.7 C 36.3 113.5 36.4 114.5 36.7 115.6 C 36.9 116.6 37.3 117.6 37.7 118.3 C 37.8 118.5 37.9 118.6 38 118.8 C 38.1 118.9 38.2 119 38.3 119.1 C 38.5 119.3 38.5 119.4 38.5 119.4 C 38.5 119.4 38.5 119.3 38.4 119.1 C 38.3 119 38.3 118.9 38.2 118.7 C 38.2 118.5 38.1 118.4 38 118.2 C 37.8 117.5 37.5 116.5 37.3 115.5 C 37.1 114.5 36.8 113.5 36.7 112.7 C 36.4 111.9 36.3 111.4 36.3 111.4 Z " fill="#778C3A" stroke-width="1"/>
              <path d="M 48.6 110.7 C 48.6 110.7 48.5 111.4 48.3 112.4 C 48.1 113.4 48 114.8 47.8 116.2 C 47.7 116.9 47.6 117.6 47.5 118.2 C 47.4 118.8 47.3 119.4 47.2 119.9 C 47.1 120.4 47 120.8 46.9 121.1 C 46.8 121.4 46.7 121.5 46.7 121.5 C 46.7 121.5 46.8 121.4 47 121.1 C 47.2 120.8 47.4 120.4 47.6 119.9 C 48 118.9 48.2 117.5 48.4 116.2 C 48.6 114.8 48.6 113.4 48.6 112.4 C 48.7 111.4 48.6 110.7 48.6 110.7 Z " fill="#778C3A" stroke-width="1"/>
            </g>
            <g>
              <path d="M 52.5 113 C 53.3 102 51.9 90.7 46.7 89 C 35.9 85.6 32.9 94.9 32.3 112.4 C 37.7 114.2 47 114.5 52.5 113 Z " fill="#4F3B26" stroke-width="1"/>
              <path d="M 52.5 113 C 52.5 113 51.2 113.2 49.3 113.4 C 48.4 113.5 47.2 113.5 46.1 113.6 C 44.9 113.7 43.6 113.7 42.4 113.6 C 41.8 113.6 41.1 113.5 40.5 113.5 C 39.9 113.5 39.3 113.4 38.7 113.3 C 38.1 113.2 37.5 113.2 37 113.1 C 36.5 113 35.9 113 35.5 112.9 C 34.6 112.8 33.8 112.6 33.2 112.5 C 32.6 112.4 32.3 112.3 32.3 112.3 C 32.3 112.3 32.6 112.4 33.1 112.6 C 33.6 112.8 34.4 113 35.3 113.2 C 35.8 113.3 36.3 113.4 36.8 113.5 C 37.3 113.6 37.9 113.7 38.5 113.8 C 39.1 113.9 39.7 114 40.3 114 C 40.9 114 41.6 114.1 42.2 114.1 C 43.5 114.1 44.8 114.1 46 114 C 47.2 113.9 48.3 113.8 49.3 113.6 C 51.3 113.4 52.5 113 52.5 113 Z " fill="#1F180E" stroke-width="1"/>
              <path d="M 52.5 110.1 C 52.5 110.1 51.3 110.4 49.4 110.6 C 48.5 110.7 47.4 110.8 46.2 110.9 C 45 111 43.8 111 42.5 110.9 C 41.9 110.9 41.2 110.8 40.6 110.8 C 40 110.8 39.4 110.7 38.8 110.6 C 38.2 110.5 37.7 110.4 37.1 110.4 C 36.6 110.3 36.1 110.2 35.6 110.1 C 35.1 110 34.7 109.9 34.3 109.9 C 33.9 109.8 33.6 109.7 33.3 109.7 C 32.8 109.6 32.4 109.5 32.4 109.5 C 32.4 109.5 32.7 109.6 33.2 109.8 C 33.7 110 34.5 110.3 35.4 110.5 C 35.9 110.6 36.4 110.8 36.9 110.9 C 37.4 111 38 111.1 38.6 111.2 C 39.2 111.3 39.8 111.4 40.4 111.4 C 41 111.4 41.7 111.5 42.3 111.5 C 43.6 111.5 44.9 111.5 46.1 111.4 C 46.7 111.4 47.3 111.3 47.8 111.2 C 48.3 111.1 48.9 111 49.3 110.9 C 51.3 110.6 52.5 110.1 52.5 110.1 Z " fill="#1F180E" stroke-width="1"/>
              <path d="M 34.3 96.3 C 34.3 96.3 34 97.2 33.7 98.5 C 33.4 99.9 33 101.7 32.7 103.5 C 32.4 105.3 32.3 107.2 32.3 108.6 C 32.3 110 32.4 110.9 32.4 110.9 C 32.4 110.9 32.5 110 32.7 108.6 C 32.9 107.2 33.1 105.4 33.4 103.6 C 33.7 101.8 33.9 99.9 34.1 98.6 C 34.1 97.2 34.3 96.3 34.3 96.3 Z " fill="#25592D" stroke-width="1"/>
              <path d="M 52.5 112 C 52.5 112 52.6 111.4 52.7 110.6 C 52.8 109.7 52.9 108.6 52.8 107.5 C 52.8 106.9 52.8 106.4 52.7 105.8 C 52.7 105.3 52.6 104.8 52.5 104.3 C 52.3 103.4 52.1 102.9 52.1 102.9 C 52.1 102.9 52.2 103.5 52.2 104.3 C 52.2 105.1 52.2 106.3 52.2 107.4 C 52.2 108 52.2 108.5 52.2 109.1 C 52.2 109.6 52.3 110.1 52.3 110.6 C 52.5 111.4 52.5 112 52.5 112 Z " fill="#1F180E" stroke-width="1"/>
            </g>
          </g>
        </g>
        <g id="Group">
          <g id="Shape">
            <path d="M 48.1 82.5 C 50.3 86.2 53.3 95 50.4 99.6 C 44.7 108.8 19.8 109.7 17.2 99.2 C 14.7 88.6 20.6 81.4 20.6 81.4 C 20.6 81.4 43.4 74.4 48.1 82.5 Z " fill="#4F3B26" stroke-width="1"/>
            <path d="M 45.4 103.8 C 45.4 103.8 44.5 104.2 43.1 104.6 C 42.4 104.8 41.6 105.1 40.7 105.3 C 39.8 105.5 38.9 105.8 37.9 105.9 C 36.9 106.1 36 106.3 35 106.4 C 34.1 106.5 33.2 106.6 32.5 106.6 C 31.8 106.6 31.1 106.7 30.7 106.7 C 30.3 106.7 30 106.7 30 106.7 C 30 106.7 30.2 106.7 30.7 106.8 C 31.1 106.9 31.8 106.9 32.5 107 C 32.9 107 33.3 107 33.7 107 C 34.1 107 34.6 107 35.1 106.9 C 36 106.8 37 106.7 38 106.5 C 39 106.3 39.9 106 40.8 105.8 C 41.7 105.5 42.5 105.2 43.2 104.9 C 43.9 104.6 44.4 104.3 44.8 104.1 C 45.2 103.9 45.4 103.8 45.4 103.8 Z " fill="#1F180E" stroke-width="1"/>
            <path d="M 50.1 87.3 C 50.1 87.3 49.6 87.6 48.8 87.9 C 48 88.3 46.7 88.7 45.2 89.1 C 43.7 89.5 41.9 89.9 39.9 90.2 C 38 90.5 35.9 90.8 33.8 90.8 C 31.7 90.9 29.6 90.8 27.7 90.5 C 26.7 90.4 25.8 90.1 24.9 89.9 C 24 89.6 23.2 89.4 22.5 89 C 21.8 88.7 21.2 88.3 20.6 88 C 20.3 87.8 20.1 87.6 19.9 87.5 C 19.7 87.3 19.5 87.2 19.3 87 C 18.9 86.7 18.7 86.4 18.5 86.2 C 18.3 86 18.2 85.9 18.2 85.9 C 18.2 85.9 18.3 86 18.4 86.2 C 18.6 86.4 18.8 86.7 19.1 87 C 19.3 87.2 19.4 87.3 19.6 87.5 C 19.8 87.7 20.1 87.9 20.3 88.1 C 20.8 88.5 21.4 88.9 22.1 89.3 C 22.8 89.7 23.6 90 24.5 90.3 C 25.4 90.6 26.3 90.8 27.3 91 C 29.3 91.3 31.4 91.4 33.5 91.4 C 35.6 91.3 37.7 91 39.7 90.7 C 41.7 90.3 43.4 89.8 45 89.4 C 46.5 88.9 47.7 88.4 48.6 88 C 49.7 87.6 50.1 87.3 50.1 87.3 Z " fill="#1F180E" stroke-width="1"/>
          </g>
          <g id="Shape">
            <path d="M 47.6 68.2 C 47.8 74.8 51.4 79.6 49.3 83.8 C 47.2 88 26 91.2 19.9 84.8 C 13.8 78.4 17.6 59.9 21.3 56.2 C 26.1 51.4 47 49.4 47.6 68.2 Z " fill="#D1C1B4" stroke-width="1"/>
            <path d="M 24.6 87.4 C 24.6 87.4 24.3 87.3 23.7 87 C 23.4 86.9 23 86.7 22.7 86.5 C 22.5 86.4 22.3 86.3 22.1 86.2 C 21.9 86.1 21.7 86 21.4 85.8 C 21 85.5 20.5 85.1 20.1 84.7 C 19.7 84.3 19.3 83.7 19 83.2 C 18.9 82.9 18.7 82.6 18.6 82.3 C 18.5 82 18.4 81.6 18.3 81.3 C 18.2 81 18.1 80.6 18.1 80.3 C 18 79.9 18 79.6 17.9 79.2 C 17.9 78.5 17.7 77.8 17.8 77.1 C 17.8 76.4 17.8 75.7 17.9 75 C 18 74.3 18 73.7 18.1 73.1 C 18.2 72.5 18.3 71.9 18.3 71.4 C 18.4 70.3 18.6 69.4 18.7 68.8 C 18.8 68.2 18.9 67.8 18.9 67.8 C 18.9 67.8 18.8 68.1 18.6 68.8 C 18.5 69.4 18.1 70.3 17.9 71.4 C 17.8 71.9 17.7 72.5 17.6 73.1 C 17.5 73.7 17.4 74.4 17.3 75.1 C 17.2 75.8 17.2 76.5 17.2 77.2 C 17.2 77.9 17.3 78.7 17.3 79.4 C 17.3 79.8 17.4 80.1 17.5 80.5 C 17.6 80.9 17.6 81.2 17.8 81.6 C 17.9 81.9 18 82.3 18.2 82.6 C 18.4 82.9 18.5 83.2 18.7 83.6 C 19.1 84.2 19.5 84.8 19.9 85.2 C 20.4 85.6 20.9 86 21.3 86.3 C 21.8 86.6 22.3 86.8 22.7 86.9 C 23.1 87.1 23.5 87.2 23.8 87.3 C 24.2 87.4 24.6 87.4 24.6 87.4 Z " fill="#9E8B7B" stroke-width="1"/>
          </g>
          <path d="M 31.2 90.5 C 31.2 90.5 34.2 58.7 27 53.6 L 24.9 54.3 C 24.9 54.3 32.1 63.2 28.8 90.3 L 31.2 90.5 Z " id="Shape" fill="#4F3B26" stroke-width="1"/>
          <path d="M 49.1 86.9 C 49.1 86.9 51.2 61.4 43.4 57.3 C 43.4 57.3 47.6 62.6 46.5 87.7 L 49.1 86.9 Z " id="Shape" fill="#4F3B26" stroke-width="1"/>
        </g>
        <g id="Group">
          <g id="Shape">
            <g>
              <path d="M 29.1 122.1 C 31.9 123.1 29.3 136.9 28.9 139.2 C 28.5 141.5 21.1 143.7 20.6 136 C 20.1 128.2 19.7 118.8 29.1 122.1 Z " fill="#A2B04A" stroke-width="1"/>
              <path d="M 21.4 124.3 C 21.4 124.3 21.2 124.5 21.1 124.9 C 20.9 125.3 20.7 125.9 20.6 126.6 C 20.5 127.3 20.3 128.2 20.3 129.1 C 20.2 130 20.2 131 20.3 132 C 20.4 133 20.4 133.9 20.5 134.8 C 20.6 135.7 20.8 136.5 20.9 137.3 C 21 138 21.2 138.6 21.3 139 C 21.4 139.4 21.5 139.6 21.5 139.6 C 21.5 139.6 21.5 138.6 21.3 137.2 C 21.2 135.8 21 133.8 21 131.9 C 21 130.9 20.9 130 21 129.1 C 21 128.2 21 127.4 21.1 126.7 C 21.2 126.3 21.2 126 21.2 125.7 C 21.2 125.4 21.3 125.2 21.4 125 C 21.3 124.5 21.4 124.3 21.4 124.3 Z " fill="#778C3A" stroke-width="1"/>
            </g>
            <path d="M 37.3 153.5 L 37.2 154.4 C 37.2 154.4 33.1 155.8 30 155.1 C 26.9 154.4 25.4 153.9 24.6 153.9 L 24.5 154.3 C 24.5 154.3 22 154.3 20.5 153.4 L 20.4 150.6 C 21.2 150.4 33.8 147.3 37.3 153.5 Z " fill="#17110B" stroke-width="1"/>
            <path d="M 29.3 136.6 C 29.3 136.6 26.3 139.2 20.5 136.5 C 20.5 136.5 20.7 146.2 20.7 148 C 20.7 149.8 18.9 152.1 23.2 152.6 C 27.5 153.1 25.9 153.9 30.4 154.1 C 34.9 154.3 37.2 153.5 37.2 153.5 C 37.2 153.5 37.5 150.9 35.6 149.9 C 33.7 148.9 31.6 148.8 30 146.8 C 28.5 144.9 29.3 136.6 29.3 136.6 Z " fill="#4F3B26" stroke-width="1"/>
            <path d="M 37.3 153.5 C 37.3 153.5 37.4 153.2 37.4 152.6 C 37.4 152.3 37.4 152 37.3 151.5 C 37.2 151.1 37 150.6 36.6 150.3 C 36.2 149.9 35.7 149.7 35.1 149.5 C 34.6 149.3 34 149.1 33.4 148.9 C 32.3 148.5 31.1 147.9 30.4 146.9 C 30 146.4 29.9 145.8 29.8 145.2 C 29.7 144.6 29.7 143.9 29.6 143.3 C 29.5 142.1 29.5 140.9 29.4 139.9 C 29.3 137.9 29.3 136.6 29.3 136.6 C 29.3 136.6 29.2 137.9 29.1 139.9 C 29.1 140.9 29 142 29.1 143.3 C 29.1 143.9 29.2 144.6 29.3 145.2 C 29.4 145.8 29.6 146.6 30 147.2 C 30.4 147.8 30.9 148.3 31.5 148.6 C 32.1 148.9 32.7 149.2 33.3 149.4 C 33.9 149.6 34.5 149.8 35 149.9 C 35.5 150.1 36 150.2 36.4 150.5 C 36.7 150.8 36.9 151.2 37.1 151.6 C 37.2 152 37.3 152.3 37.3 152.6 C 37.3 153.2 37.3 153.5 37.3 153.5 Z " fill="#1F180E" stroke-width="1"/>
            <path d="M 28.6 137 C 28.6 137 28.5 137 28.3 137.1 C 28.1 137.2 27.8 137.2 27.5 137.3 C 27.2 137.4 26.7 137.4 26.3 137.4 C 25.9 137.4 25.4 137.4 24.9 137.4 C 24.4 137.4 24 137.3 23.5 137.3 C 23.1 137.2 22.7 137.2 22.3 137.1 C 21.9 137 21.7 137 21.5 136.9 C 21.3 136.9 21.2 136.8 21.2 136.8 C 21.2 136.8 21.3 136.9 21.5 137 C 21.7 137.1 21.9 137.3 22.3 137.4 C 22.6 137.5 23 137.7 23.5 137.8 C 23.9 137.9 24.4 138 24.9 138 C 25.4 138 25.9 138 26.3 137.9 C 26.8 137.8 27.2 137.7 27.5 137.6 C 28.2 137.3 28.6 137 28.6 137 Z " fill="#1F180E" stroke-width="1"/>
            <path d="M 20.6 137.8 C 20.6 137.8 20.5 138.8 20.5 140.4 C 20.5 141.2 20.5 142.1 20.5 143.1 C 20.5 144.1 20.5 145.1 20.5 146.2 C 20.5 146.7 20.5 147.2 20.5 147.7 C 20.5 148.2 20.4 148.7 20.3 149.2 C 20.2 149.7 20.2 150.2 20.2 150.7 C 20.2 151.2 20.4 151.6 20.7 151.9 C 21 152.2 21.4 152.4 21.7 152.4 C 22 152.5 22.3 152.5 22.5 152.6 C 23 152.6 23.2 152.6 23.2 152.6 C 23.2 152.6 22.9 152.6 22.5 152.5 C 22.3 152.4 22 152.4 21.7 152.2 C 21.4 152.1 21.1 151.9 20.9 151.6 C 20.7 151.3 20.5 151 20.5 150.5 C 20.5 150.1 20.6 149.6 20.7 149.2 C 20.8 148.7 20.9 148.2 20.9 147.7 C 20.9 147.2 20.9 146.7 20.9 146.1 C 20.9 145.1 20.9 144 20.8 143 C 20.8 142 20.7 141.1 20.7 140.3 C 20.8 138.8 20.6 137.8 20.6 137.8 Z " fill="#1F180E" stroke-width="1"/>
            <path d="M 33 149.1 C 33 149.1 32.8 149.1 32.5 149.2 C 32.2 149.3 31.9 149.5 31.6 149.7 C 31.3 149.9 31.1 150.2 30.9 150.5 C 30.8 150.7 30.7 150.9 30.7 150.9 C 30.7 150.9 30.9 150.8 31.1 150.7 C 31.2 150.6 31.4 150.6 31.5 150.5 C 31.6 150.4 31.8 150.3 31.9 150.2 C 32.2 150 32.4 149.7 32.6 149.5 C 32.9 149.2 33 149.1 33 149.1 Z " fill="#1F180E" stroke-width="1"/>
            <path d="M 30.1 146.8 C 30.1 146.8 29.9 146.7 29.7 146.7 C 29.4 146.7 29.1 146.7 28.8 146.8 C 28.6 146.9 28.5 146.9 28.4 147 C 28.3 147.1 28.2 147.2 28.1 147.3 C 27.9 147.5 27.9 147.7 27.9 147.7 C 27.9 147.7 28.6 147.6 29.1 147.4 C 29.2 147.3 29.4 147.3 29.5 147.3 C 29.6 147.3 29.8 147.2 29.9 147.1 C 29.9 146.9 30.1 146.8 30.1 146.8 Z " fill="#1F180E" stroke-width="1"/>
            <path d="M 29.3 143.4 C 29.3 143.4 29.1 143.4 28.8 143.4 C 28.5 143.4 28.2 143.4 27.8 143.4 C 27.1 143.4 26.4 143.5 26.4 143.5 C 26.4 143.5 26.6 143.6 26.8 143.8 C 27.1 143.9 27.4 144 27.8 144 C 28 144 28.2 144 28.4 143.9 C 28.6 143.9 28.7 143.8 28.9 143.7 C 29.2 143.6 29.3 143.4 29.3 143.4 Z " fill="#1F180E" stroke-width="1"/>
            <path d="M 29.2 139.4 C 29.2 139.4 29 139.4 28.7 139.4 C 28.6 139.4 28.4 139.4 28.3 139.4 C 28.1 139.4 28 139.4 27.8 139.5 C 27.5 139.5 27.1 139.6 26.9 139.6 C 26.8 139.6 26.7 139.6 26.6 139.6 C 26.5 139.6 26.5 139.6 26.5 139.6 C 26.5 139.6 26.6 139.8 26.9 139.9 C 27 140 27.2 140 27.4 140 C 27.6 140 27.8 140 28 140 C 28.4 140 28.7 139.8 29 139.6 C 29.1 139.5 29.2 139.4 29.2 139.4 Z " fill="#1F180E" stroke-width="1"/>
            <path d="M 24.5 152.6 C 24.5 152.6 24.6 152.2 24.6 151.6 C 24.6 151.3 24.5 150.9 24.4 150.5 C 24.3 150.1 24.1 149.7 23.8 149.4 C 23.7 149.2 23.5 149.1 23.4 148.9 C 23.3 148.7 23.1 148.6 22.9 148.5 C 22.7 148.4 22.5 148.3 22.4 148.2 C 22.2 148.1 22.1 148.1 21.9 148 C 21.6 147.9 21.3 147.9 21.1 147.9 C 20.9 147.9 20.8 147.9 20.8 147.9 C 20.8 147.9 21.2 148 21.7 148.3 C 21.8 148.4 22 148.4 22.1 148.5 C 22.2 148.6 22.4 148.7 22.5 148.8 C 22.8 149 23.1 149.3 23.3 149.6 C 23.5 149.9 23.7 150.2 23.9 150.6 C 24 150.9 24.2 151.2 24.3 151.5 C 24.4 152.2 24.5 152.6 24.5 152.6 Z " fill="#1F180E" stroke-width="1"/>
          </g>
          <g id="Shape">
            <g>
              <path d="M 31.8 113 C 31.2 117.7 31.2 127 27.7 126.9 C 19.4 126.8 18.2 114.4 20.9 108.4 C 23.5 102.3 32.9 104.1 31.8 113 Z " fill="#A2B04A" stroke-width="1"/>
              <path d="M 19.3 114.9 C 19.3 114.9 19.2 115.4 19.3 116.2 C 19.3 117 19.4 118 19.7 119.1 C 19.9 120.1 20.3 121.1 20.7 121.8 C 20.8 122 20.9 122.1 21 122.3 C 21.1 122.4 21.2 122.5 21.3 122.6 C 21.5 122.8 21.5 122.9 21.5 122.9 C 21.5 122.9 21.5 122.8 21.4 122.6 C 21.3 122.5 21.3 122.4 21.2 122.2 C 21.2 122 21.1 121.9 21 121.7 C 20.8 121 20.5 120 20.3 119 C 20.1 118 19.8 117 19.7 116.2 C 19.5 115.5 19.3 114.9 19.3 114.9 Z " fill="#778C3A" stroke-width="1"/>
              <path d="M 31.7 114.2 C 31.7 114.2 31.6 114.9 31.4 115.8 C 31.3 116.8 31.1 118.1 30.9 119.4 C 30.8 120 30.7 120.7 30.7 121.3 C 30.6 121.9 30.5 122.5 30.4 122.9 C 30.3 123.4 30.2 123.8 30.1 124 C 30 124.3 29.9 124.4 29.9 124.4 C 29.9 124.4 30 124.3 30.2 124.1 C 30.4 123.9 30.6 123.5 30.7 123 C 31.1 122.1 31.3 120.7 31.5 119.4 C 31.7 118.1 31.7 116.8 31.7 115.8 C 31.7 114.9 31.7 114.2 31.7 114.2 Z " fill="#778C3A" stroke-width="1"/>
            </g>
            <g>
              <path d="M 35.5 116.6 C 36.3 105.6 32.8 93.7 27.6 92 C 16.8 88.6 15.9 98.5 15.3 116 C 20.7 117.7 30 118.1 35.5 116.6 Z " fill="#4F3B26" stroke-width="1"/>
              <path d="M 35.5 116.6 C 35.5 116.6 34.2 116.8 32.3 117 C 31.4 117.1 30.2 117.1 29.1 117.2 C 27.9 117.2 26.6 117.2 25.4 117.2 C 24.8 117.2 24.1 117.1 23.5 117.1 C 22.9 117.1 22.3 117 21.7 116.9 C 21.1 116.8 20.5 116.8 20 116.7 C 19.5 116.6 18.9 116.6 18.5 116.5 C 17.6 116.4 16.8 116.2 16.2 116.1 C 15.6 116 15.3 115.9 15.3 115.9 C 15.3 115.9 15.6 116 16.1 116.2 C 16.6 116.4 17.4 116.6 18.3 116.8 C 18.8 116.9 19.3 117 19.8 117.1 C 20.3 117.2 20.9 117.3 21.5 117.4 C 22.1 117.5 22.7 117.6 23.3 117.6 C 23.9 117.6 24.6 117.7 25.2 117.7 C 26.5 117.7 27.8 117.7 29 117.6 C 30.2 117.5 31.3 117.4 32.3 117.2 C 34.3 117 35.5 116.6 35.5 116.6 Z " fill="#1F180E" stroke-width="1"/>
              <path d="M 35.6 113.7 C 35.6 113.7 34.4 114 32.5 114.2 C 31.6 114.3 30.5 114.4 29.3 114.5 C 28.1 114.6 26.9 114.6 25.6 114.5 C 25 114.5 24.3 114.4 23.7 114.4 C 23.1 114.4 22.5 114.3 21.9 114.2 C 21.3 114.1 20.8 114 20.2 114 C 19.7 113.9 19.2 113.8 18.7 113.7 C 18.2 113.6 17.8 113.5 17.4 113.5 C 17 113.4 16.7 113.3 16.4 113.3 C 15.9 113.2 15.5 113.1 15.5 113.1 C 15.5 113.1 15.8 113.2 16.3 113.4 C 16.8 113.6 17.6 113.9 18.5 114.1 C 19 114.2 19.5 114.4 20 114.5 C 20.5 114.6 21.1 114.7 21.7 114.8 C 22.3 114.9 22.9 115 23.5 115 C 24.1 115 24.8 115.1 25.4 115.1 C 26.7 115.1 28 115.1 29.2 115 C 29.8 115 30.4 114.9 30.9 114.8 C 31.4 114.7 32 114.6 32.4 114.5 C 34.4 114.2 35.6 113.7 35.6 113.7 Z " fill="#1F180E" stroke-width="1"/>
              <path d="M 16.7 99.6 C 16.7 99.6 16.5 100.5 16.2 101.9 C 16.1 102.6 15.9 103.4 15.8 104.3 C 15.7 105.2 15.6 106.1 15.5 107 C 15.4 107.9 15.4 108.9 15.3 109.8 C 15.2 110.7 15.2 111.5 15.2 112.2 C 15.2 113.6 15.3 114.6 15.3 114.6 C 15.3 114.6 15.3 114.4 15.4 114 C 15.4 113.6 15.5 113 15.6 112.3 C 15.7 110.9 15.9 109 16.1 107.2 C 16.2 106.3 16.3 105.3 16.3 104.5 C 16.4 103.6 16.4 102.8 16.5 102.1 C 16.6 100.5 16.7 99.6 16.7 99.6 Z " fill="#1F180E" stroke-width="1"/>
              <path d="M 35.6 115.6 C 35.6 115.6 35.7 115 35.8 114.2 C 35.9 113.3 36 112.2 35.9 111.1 C 35.9 110.5 35.9 110 35.8 109.4 C 35.8 108.9 35.7 108.4 35.6 107.9 C 35.4 107 35.2 106.5 35.2 106.5 C 35.2 106.5 35.3 107.1 35.3 107.9 C 35.3 108.7 35.3 109.9 35.3 111 C 35.3 111.6 35.3 112.1 35.3 112.7 C 35.3 113.2 35.4 113.7 35.4 114.2 C 35.5 115 35.6 115.6 35.6 115.6 Z " fill="#1F180E" stroke-width="1"/>
            </g>
          </g>
        </g>
        <g id="Group">
          <g id="Shape">
            <g>
              <path d="M 14 95.7 C 14 95.7 15.9 97.1 15.8 100.3 C 15.7 102.4 16.4 104.1 15.7 104.2 C 14.2 104.3 14.4 101 14.4 101 C 14.4 101 13.2 103.9 13.7 105.1 C 14.1 106 13.7 107.5 13.2 107.6 C 12.6 107.7 12.1 105.6 11.8 104.2 C 11.8 104.2 11.9 105.8 11.8 106.8 C 11.6 107.8 11.2 108.1 10.6 107 C 10.6 107 9.5 108.5 8.9 105.2 C 8.9 105.2 8 105.4 7.9 103.7 C 7.6 101.9 7.9 93 14 95.7 Z " fill="#A2B04A" stroke-width="1"/>
              <path d="M 12.7 107.2 C 12.7 107.2 12.6 106.9 12.5 106.3 C 12.4 105.8 12.3 105.1 12.2 104.4 C 12.2 104.1 12.2 103.7 12.1 103.4 C 12.1 103.1 12.1 102.8 12.1 102.5 C 12.1 102.2 12.1 102 12.1 101.8 C 12.1 101.6 12.1 101.5 12.1 101.5 C 12.1 101.5 11.9 101.8 11.8 102.4 C 11.6 102.9 11.5 103.7 11.6 104.4 C 11.6 104.8 11.7 105.1 11.8 105.5 C 11.9 105.8 12 106.1 12.2 106.4 C 12.4 107 12.7 107.2 12.7 107.2 Z " fill="#698237" stroke-width="1"/>
              <path d="M 10.4 107 C 10.4 107 10.3 106.7 10.3 106.2 C 10.2 105.7 10.2 105.1 10.2 104.4 C 10.2 103.8 10.2 103.1 10.2 102.6 C 10.2 102.3 10.2 102.1 10.2 102 C 10.2 101.9 10.2 101.8 10.2 101.8 C 10.2 101.8 10 102.1 9.9 102.6 C 9.7 103.1 9.6 103.8 9.6 104.5 C 9.6 105.2 9.8 105.9 10 106.3 C 10.2 106.7 10.4 107 10.4 107 Z " fill="#698237" stroke-width="1"/>
              <path d="M 8.7 105.2 C 8.7 105.2 8.8 104.9 8.8 104.6 C 8.9 104.2 8.9 103.7 8.9 103.2 C 8.9 102.7 8.9 102.2 8.9 101.9 C 8.9 101.7 8.9 101.6 8.9 101.4 C 8.9 101.3 8.9 101.2 8.9 101.2 C 8.9 101.2 8.7 101.4 8.6 101.8 C 8.5 102.2 8.4 102.7 8.4 103.2 C 8.4 103.7 8.5 104.2 8.6 104.6 C 8.6 105 8.7 105.2 8.7 105.2 Z " fill="#698237" stroke-width="1"/>
            </g>
            <path d="M 14.5 96.3 C 14.5 96.3 14.6 96.3 14.5 96.3 C 14.7 96.5 14.7 96.6 14.8 96.8 C 14.9 97.2 15 97.6 15.2 98.1 C 15.3 98.6 15.4 99.1 15.6 99.5 C 15.7 99.9 15.8 100.1 15.8 100.1 C 15.8 100.1 15.9 99.8 15.9 99.4 C 15.9 99 15.9 98.4 15.8 97.9 C 15.7 97.4 15.4 96.8 15.1 96.5 C 14.8 96.3 14.5 96.3 14.5 96.3 Z " fill="#698237" stroke-width="1"/>
          </g>
          <g id="Shape">
            <path d="M 17.2 76.2 C 18.6 76.7 19.7 78.8 19.7 81.5 C 19.7 82.4 19 83.7 19.3 84.8 C 20.4 89 16.9 93.5 15.8 94.8 C 13.7 97.2 8.3 94.7 9 89.5 C 9.2 88 9.8 83.9 10 81.3 C 10.1 77.2 13.1 74.7 17.2 76.2 Z " fill="#D1C1B4" stroke-width="1"/>
            <path d="M 15.3 93.7 L 15.1 96.7 C 15.1 96.7 11.5 97.1 9.7 95.5 L 10.2 92 " fill="#D1C1B4" stroke-width="1"/>
            <path d="M 11.6 94.7 C 11.6 94.7 11.4 94.6 11.1 94.4 C 10.8 94.2 10.3 93.9 9.9 93.3 C 9.6 92.8 9.4 92 9.3 91.2 C 9.3 90.8 9.3 90.3 9.3 89.9 C 9.3 89.5 9.4 89 9.4 88.6 C 9.6 86.8 9.8 85 9.9 83.6 C 10 82.9 9.9 82.3 9.9 81.9 C 9.9 81.5 9.8 81.3 9.8 81.3 C 9.8 81.3 9.7 82.2 9.5 83.5 C 9.3 84.8 8.9 86.6 8.7 88.5 C 8.7 89 8.6 89.4 8.6 89.9 C 8.6 90.4 8.6 90.8 8.6 91.2 C 8.7 92.1 9 92.9 9.4 93.5 C 9.9 94.1 10.4 94.3 10.8 94.5 C 11.4 94.6 11.6 94.7 11.6 94.7 Z " fill="#9E8B7B" stroke-width="1"/>
            <path d="M 19.6 82.5 C 19.6 82.5 19.5 82.7 19.3 83.1 C 19.1 83.5 18.9 84.1 19.2 84.9 C 19.3 85.2 19.3 85.6 19.3 86 C 19.3 86.4 19.2 86.8 19.2 87.3 C 19.1 88.2 18.8 89.1 18.5 89.9 C 18.3 90.3 18.1 90.7 17.9 91.2 C 17.7 91.6 17.5 92.1 17.3 92.5 C 16.9 93.3 16.6 94.1 16.1 94.6 C 15.7 95.1 15.1 95.4 14.7 95.3 C 14.3 95.3 14.1 95.2 14.1 95.2 C 14.1 95.2 14.2 95.2 14.3 95.3 C 14.4 95.3 14.6 95.4 14.8 95.4 C 15.2 95.5 15.9 95.3 16.5 94.8 C 17 94.3 17.5 93.5 17.9 92.7 C 18.1 92.3 18.3 91.9 18.6 91.5 C 18.8 91.1 19.1 90.6 19.3 90.2 C 19.6 89.3 19.8 88.3 20 87.4 C 20.1 86.9 20.1 86.5 20 86.1 C 20 85.7 19.9 85.2 19.8 84.9 C 19.5 84.3 19.6 83.7 19.7 83.3 C 19.5 82.7 19.6 82.5 19.6 82.5 Z " fill="#9E8B7B" stroke-width="1"/>
          </g>
          <g id="Shape">
            <path d="M 25 70.5 C 27.2 66.7 29 56.9 25.2 55.5 C 21.4 54.1 18.2 56.2 14.7 64.1 C 13 68 11.9 71.4 11.5 74.1 C 11.4 75 10.4 76 10.4 76.7 C 10.4 79.1 12 80.6 13.5 81.2 C 15.6 82 17.8 82.1 19.4 80.8 C 21.6 79.1 20.7 77.9 25 70.5 Z " fill="#D1C1B4" stroke-width="1"/>
            <path d="M 21.3 55.3 C 21.3 55.3 21.2 55.4 21 55.5 C 20.8 55.6 20.6 55.8 20.3 56 C 19.7 56.4 18.8 57.1 18 58 C 17.1 58.9 16.2 60.1 15.5 61.6 C 14.7 63 14.1 64.6 13.5 66.2 C 12.9 67.8 12.4 69.4 12 70.9 C 11.8 71.7 11.6 72.4 11.5 73.1 C 11.4 73.5 11.4 73.8 11.3 74.1 C 11.2 74.4 11 74.7 10.9 75 C 10.6 75.6 10.4 76.1 10.4 76.7 C 10.3 77.2 10.4 77.7 10.5 78.1 C 10.8 78.8 11.2 79 11.2 79 C 11.2 79 10.8 78.7 10.6 78 C 10.5 77.7 10.5 77.2 10.6 76.7 C 10.7 76.2 11 75.7 11.2 75.1 C 11.3 74.8 11.5 74.5 11.6 74.2 C 11.7 73.9 11.8 73.5 11.9 73.1 C 12 72.4 12.3 71.7 12.5 70.9 C 12.9 69.4 13.5 67.8 14.1 66.2 C 14.7 64.6 15.3 63.1 16 61.7 C 16.7 60.3 17.5 59.1 18.3 58.1 C 19.1 57.2 19.9 56.4 20.4 55.9 C 21 55.5 21.3 55.3 21.3 55.3 Z " fill="#9E8B7B" stroke-width="1"/>
            <path d="M 17.5 81.7 C 17.5 81.7 17.8 81.7 18.2 81.6 C 18.7 81.5 19.3 81.2 19.9 80.6 C 20.2 80.3 20.5 80 20.8 79.6 C 21.1 79.2 21.3 78.8 21.5 78.3 C 21.9 77.3 22.3 76.4 22.7 75.4 C 23.1 74.4 23.6 73.4 24 72.5 C 24.4 71.6 24.8 70.7 25.2 70 C 25.5 69.3 25.8 68.6 26 68.2 C 26.2 67.8 26.2 67.5 26.2 67.5 C 26.2 67.5 26.1 67.7 25.9 68.2 C 25.7 68.6 25.3 69.2 24.9 69.9 C 24.5 70.6 24 71.4 23.6 72.3 C 23.1 73.2 22.7 74.2 22.2 75.1 C 21.8 76.1 21.4 77.1 21 78 C 20.8 78.5 20.6 78.9 20.4 79.3 C 20.2 79.7 19.9 80 19.7 80.3 C 19.2 80.9 18.6 81.2 18.2 81.4 C 17.8 81.7 17.5 81.7 17.5 81.7 Z " fill="#9E8B7B" stroke-width="1"/>
          </g>
        </g>
        <g id="Group">
          <g id="Shape">
            <path d="M 40 56.6 C 40 56.6 33.5 63.9 30.7 75.9 C 30.7 75.9 18.7 74.7 7.9 66.7 C 7.9 66.7 16.4 51.9 25.8 51.3 C 25.7 51.3 31.1 52.7 40 56.6 Z " fill="#7D543D" stroke-width="1"/>
            <path d="M 24.1 51.6 C 24.1 51.6 23.7 51.6 23.1 51.8 C 22.8 51.9 22.4 52 22 52.2 C 21.6 52.4 21.1 52.6 20.7 52.8 C 20.2 53 19.7 53.4 19.2 53.7 C 18.7 54.1 18.1 54.4 17.6 54.8 C 17.1 55.2 16.5 55.7 16 56.1 C 15.5 56.6 15 57.1 14.5 57.6 C 14 58.1 13.5 58.7 13.1 59.2 C 12.6 59.7 12.2 60.3 11.8 60.8 C 10.9 61.8 10.3 62.9 9.7 63.8 C 9.1 64.7 8.7 65.5 8.3 66 C 8 66.5 7.8 66.8 7.8 66.8 C 7.8 66.8 8 66.5 8.4 66 C 8.8 65.5 9.3 64.8 9.9 63.9 C 10.2 63.5 10.6 63 11 62.5 C 11.4 62 11.8 61.5 12.2 61 C 12.6 60.5 13.1 60 13.5 59.5 C 14 59 14.5 58.5 15 58 C 15.5 57.5 16 57 16.5 56.5 C 17 56 17.5 55.6 18 55.2 C 18.5 54.8 19 54.4 19.5 54 C 20 53.7 20.5 53.3 20.9 53.1 C 21.8 52.5 22.6 52.2 23.2 51.9 C 23.7 51.6 24.1 51.6 24.1 51.6 Z " fill="#523219" stroke-width="1"/>
            <path d="M 38.6 58.3 C 38.6 58.3 38.4 58.5 38 58.9 C 37.7 59.3 37.2 59.9 36.7 60.7 C 36.2 61.5 35.6 62.4 35.1 63.4 C 34.6 64.4 34 65.5 33.5 66.6 C 33 67.7 32.6 68.9 32.2 70 C 31.8 71.1 31.6 72.1 31.3 73 C 31 73.9 30.9 74.6 30.8 75.2 C 30.7 75.7 30.6 76 30.6 76 C 30.6 76 30.7 75.7 30.9 75.2 C 31.1 74.7 31.3 74 31.6 73.1 C 31.9 72.2 32.3 71.2 32.7 70.2 C 32.9 69.7 33.1 69.1 33.3 68.6 C 33.5 68 33.8 67.5 34 66.9 C 34.5 65.8 35 64.7 35.5 63.7 C 36 62.7 36.5 61.7 37 61 C 37.5 60.2 37.8 59.6 38.1 59.1 C 38.4 58.5 38.6 58.3 38.6 58.3 Z " fill="#523219" stroke-width="1"/>
          </g>
          <g id="Shape">
            <path d="M 39.8 56.5 C 39.8 56.5 44 66.6 46.8 73.9 C 46.8 73.9 55.9 69.9 57.9 65.8 C 57.9 65.8 51.3 54.2 46.9 54.6 C 46.9 54.7 41.5 56.5 39.8 56.5 Z " fill="#7D543D" stroke-width="1"/>
            <path d="M 46.8 73.9 C 46.8 73.9 46.6 73 46.2 71.7 C 45.8 70.4 45.2 68.6 44.5 66.9 C 43.8 65.2 43.1 63.5 42.4 62.3 C 42.1 61.7 41.8 61.2 41.5 60.9 C 41.4 60.7 41.3 60.6 41.2 60.5 C 41.1 60.4 41.1 60.4 41.1 60.4 C 41.1 60.4 41.2 60.6 41.4 61 C 41.6 61.4 41.8 61.9 42 62.5 C 42.5 63.8 43.2 65.5 43.8 67.2 C 44.5 68.9 45.2 70.6 45.7 71.9 C 46.4 73.1 46.8 73.9 46.8 73.9 Z " fill="#523219" stroke-width="1"/>
            <path d="M 57.8 65.8 C 57.8 65.8 57.4 64.9 56.7 63.5 C 56.3 62.8 55.9 62.1 55.3 61.3 C 54.8 60.5 54.1 59.7 53.5 58.9 C 52.8 58.1 52.1 57.4 51.4 56.8 C 51.1 56.5 50.7 56.2 50.3 56 C 49.9 55.7 49.6 55.5 49.2 55.4 C 48.9 55.2 48.5 55.1 48.2 55 C 47.9 54.9 47.6 54.8 47.4 54.8 C 47 54.8 46.7 54.7 46.7 54.7 C 46.7 54.7 46.9 54.8 47.4 54.9 C 47.6 54.9 47.9 55 48.1 55.2 C 48.4 55.3 48.7 55.5 49 55.7 C 49.3 55.9 49.7 56.1 50 56.4 C 50.3 56.7 50.7 57 51 57.3 C 51.7 57.9 52.4 58.7 53 59.4 C 53.7 60.2 54.3 60.9 54.8 61.7 C 55.4 62.5 55.9 63.2 56.3 63.8 C 57.3 65 57.8 65.8 57.8 65.8 Z " fill="#523219" stroke-width="1"/>
          </g>
        </g>
        <g id="Group">
          <g id="Shape">
            <path d="M 46.3 30.9 C 48.6 27.1 54.3 27.4 57.9 27.4 C 61.5 27.4 64.7 25.1 66.4 25.5 C 68.1 25.9 63.9 27.4 61.1 30.2 C 58.3 33 54.6 38.1 47.9 36.4 C 45.1 35.7 45.3 32.6 46.3 30.9 Z " fill="#A2B04A" stroke-width="1"/>
            <path d="M 47.7 34.1 C 47.7 34.1 48 34.1 48.5 34.1 C 49 34.1 49.7 34 50.5 33.6 C 50.9 33.4 51.3 33.2 51.7 32.9 C 51.9 32.7 52.1 32.6 52.2 32.4 C 52.4 32.2 52.5 32 52.7 31.8 C 53 31.4 53.4 31.2 53.9 30.9 C 54.4 30.7 54.8 30.4 55.4 30.3 C 56.4 29.9 57.5 29.6 58.5 29.4 C 59.5 29.1 60.4 28.9 61.2 28.6 C 62 28.4 62.6 28.1 63.1 27.9 C 63.5 27.7 63.8 27.6 63.8 27.6 C 63.8 27.6 63.5 27.7 63.1 27.8 C 62.6 27.9 62 28.1 61.2 28.3 C 60.4 28.5 59.5 28.7 58.5 28.9 C 57.5 29.1 56.4 29.4 55.4 29.8 C 54.9 30 54.4 30.2 53.9 30.5 C 53.7 30.6 53.4 30.8 53.2 31 C 53 31.2 52.7 31.4 52.6 31.6 L 52.3 31.9 L 52.1 32.2 C 52 32.4 51.8 32.6 51.6 32.7 C 51.3 33 50.9 33.3 50.6 33.5 C 49.9 33.9 49.2 34.1 48.8 34.2 C 47.9 34.1 47.7 34.1 47.7 34.1 Z " fill="#698237" stroke-width="1"/>
            <path d="M 46.3 31 C 46.3 31 46.6 30.4 47.3 29.9 C 47.7 29.6 48.1 29.3 48.6 29.1 C 49.1 28.9 49.7 28.6 50.2 28.4 C 50.8 28.2 51.4 28.1 51.9 28 C 52.5 27.9 53 27.8 53.5 27.7 C 54 27.6 54.3 27.6 54.6 27.5 C 54.9 27.5 55 27.4 55 27.4 C 55 27.4 54.8 27.4 54.6 27.4 C 54.3 27.4 53.9 27.3 53.5 27.3 C 53 27.3 52.5 27.3 51.9 27.4 C 51.3 27.5 50.7 27.6 50.1 27.8 C 49.5 28 48.9 28.3 48.4 28.6 C 47.9 28.9 47.4 29.3 47.1 29.6 C 46.8 30 46.6 30.3 46.4 30.6 C 46.3 30.8 46.3 31 46.3 31 Z " fill="#698237" stroke-width="1"/>
          </g>
          <path d="M 58.3 22.1 C 61 27.3 62.2 43.2 57.6 48.7 C 53 54.2 43.4 58.1 39.3 57 C 35.2 56 20.1 43.2 24.1 26.3 C 28.1 9.4 54 13.8 58.3 22.1 Z " id="Shape" fill="#5C3E2C" stroke-width="1"/>
          <path d="M 29.3 48.5 C 30.7 43.9 39.9 42.6 41.5 50 C 41.5 50 41.3 55.4 42.7 57 C 41.4 57.2 40.2 57.2 39.4 57 C 37.4 56.6 32.9 53.5 29.3 48.5 Z " id="Shape" fill="#A2B04A" stroke-width="1"/>
          <g>
            <path d="M 24.1 20.6 C 28.5 8.6 42 6.9 49.3 12.4 C 57.4 18.5 56.4 32.1 56.4 32.1 C 56.4 32.1 60.6 38.5 54.7 46.1 C 51.7 49.9 47.6 52.2 41.9 52.4 C 37.2 52.6 25.9 47.6 23.4 37.4 C 22.4 32.8 22.5 25 24.1 20.6 Z " id="Shape" fill="#A2B04A" stroke-width="1"/>
            <ellipse id="Oval" fill="#382C18" cx="20.4" cy="23.9" rx="1.1" ry="2.5" stroke-width="1" transform="matrix(-1,0,0,1,58,9)"/>
            <ellipse id="Oval" fill="#382C18" cx="7.8" cy="23.3" rx="1.1" ry="2.5" stroke-width="1" transform="matrix(-1,0,0,1,58,9)"/>
            <path d="M 44.7 33.1 C 44.7 33.1 45.2 34.1 46.1 35.6 C 46.3 36 46.6 36.4 46.8 36.8 C 47.1 37.2 47.3 37.7 47.7 38.1 C 48.2 38.5 48.7 38.7 49.2 39 C 49.7 39.2 50.2 39.5 50.7 39.7 C 50.9 39.8 51.2 40 51.3 40.1 C 51.4 40.3 51.5 40.4 51.4 40.6 C 51.3 40.7 51.3 40.8 51.2 40.9 C 51.1 41 51 41.1 50.9 41.2 C 50.7 41.3 50.5 41.5 50.3 41.5 C 49.4 41.8 48.3 41.9 47.5 41.9 C 46.6 41.9 45.9 42 45.4 42.1 C 44.9 42.2 44.6 42.3 44.6 42.3 C 44.6 42.3 44.9 42.2 45.4 42.2 C 45.9 42.2 46.6 42.2 47.5 42.3 C 47.9 42.3 48.4 42.3 48.9 42.3 C 49.4 42.3 49.9 42.2 50.5 42 C 50.8 41.9 51 41.8 51.3 41.6 C 51.5 41.5 51.5 41.4 51.6 41.3 C 51.7 41.2 51.8 41 51.9 40.9 C 52.1 40.5 52 40.1 51.7 39.8 C 51.5 39.5 51.2 39.4 50.9 39.2 C 50.4 38.9 49.8 38.7 49.3 38.5 C 48.8 38.3 48.3 38 47.9 37.8 C 47.6 37.5 47.3 37 47 36.6 C 46.7 36.2 46.4 35.8 46.2 35.5 C 45.4 34.1 44.7 33.1 44.7 33.1 Z " id="Shape" fill="#546626" stroke-width="1"/>
            <path d="M 44.6 41.5 C 44.6 41.5 44.5 41.5 44.3 41.5 C 44.1 41.5 43.9 41.5 43.7 41.6 C 43.6 41.7 43.5 41.7 43.4 41.8 C 43.3 41.9 43.3 41.9 43.2 42 C 43.1 42.1 43.1 42.3 43.1 42.3 C 43.1 42.3 43.2 42.3 43.4 42.2 C 43.6 42.2 43.7 42.1 43.9 42 C 44 41.9 44.1 41.9 44.2 41.9 C 44.3 41.9 44.4 41.8 44.4 41.8 C 44.6 41.6 44.6 41.5 44.6 41.5 Z " id="Shape" fill="#546626" stroke-width="1"/>
            <path d="M 48.3 45.6 C 48.3 45.6 47.7 45.9 46.8 46 C 45.9 46.2 44.7 46.3 43.5 46.3 C 42.9 46.3 42.3 46.2 41.7 46.2 C 41.1 46.1 40.6 46 40.1 45.9 C 39.6 45.8 39.3 45.7 39 45.7 C 38.7 45.6 38.6 45.6 38.6 45.6 C 38.6 45.6 38.7 45.7 39 45.8 C 39.3 45.9 39.6 46.1 40 46.3 C 40.4 46.5 41 46.6 41.6 46.8 C 42.2 46.9 42.8 47 43.5 47 C 44.1 47 44.8 47 45.4 46.9 C 46 46.8 46.5 46.6 47 46.4 C 47.8 46 48.3 45.6 48.3 45.6 Z " id="Shape" fill="#546626" stroke-width="1"/>
            <path d="M 53 28 C 53 28 52.7 27.8 52.3 27.6 C 51.9 27.4 51.3 27.2 50.7 27.2 C 50.1 27.1 49.5 27.1 49 27.2 C 48.5 27.3 48.2 27.4 48.2 27.4 C 48.2 27.4 48.3 27.4 48.4 27.5 C 48.5 27.5 48.7 27.6 48.9 27.6 C 49.3 27.7 49.9 27.8 50.5 27.9 C 51.1 28 51.7 28 52.1 28.1 C 52.7 28 53 28 53 28 Z " id="Shape" fill="#546626" stroke-width="1"/>
            <path d="M 35 28.6 C 35 28.6 35.4 28.5 35.9 28.5 C 36.4 28.4 37.1 28.3 37.8 28.2 C 38.5 28.1 39.2 28 39.7 27.9 C 40 27.8 40.2 27.8 40.3 27.8 C 40.5 27.8 40.5 27.7 40.5 27.7 C 40.5 27.7 40.1 27.6 39.6 27.5 C 39.1 27.4 38.3 27.5 37.6 27.6 C 36.9 27.7 36.2 28 35.7 28.2 C 35.3 28.3 35 28.6 35 28.6 Z " id="Shape" fill="#546626" stroke-width="1"/>
            <path d="M 53.1 48.1 C 53.1 48.1 52.8 48.3 52.4 48.6 C 51.9 48.9 51.3 49.3 50.5 49.8 C 50.1 50 49.6 50.3 49.2 50.5 C 48.7 50.7 48.2 50.9 47.7 51.1 C 47.2 51.3 46.6 51.5 46 51.6 C 45.4 51.7 44.8 51.9 44.2 51.9 L 43.3 52 C 43 52 42.7 52 42.4 52 C 41.8 52 41.2 52 40.6 51.9 C 40 51.8 39.5 51.8 39 51.6 C 38.5 51.5 38 51.4 37.6 51.2 C 37.2 51 36.8 50.9 36.4 50.8 C 36 50.7 35.8 50.5 35.5 50.4 C 35 50.2 34.7 50 34.7 50 C 34.7 50 35 50.2 35.4 50.5 C 35.6 50.6 35.9 50.8 36.3 51 C 36.6 51.2 37 51.4 37.5 51.5 C 37.9 51.7 38.4 51.8 39 52 C 39.5 52.2 40.1 52.3 40.7 52.4 C 41.3 52.4 41.9 52.5 42.5 52.5 C 42.8 52.5 43.1 52.5 43.5 52.5 C 43.8 52.5 44.1 52.4 44.5 52.4 C 45.1 52.3 45.8 52.1 46.4 52 C 47 51.8 47.6 51.6 48.1 51.4 C 48.7 51.2 49.2 50.9 49.7 50.7 C 50.2 50.4 50.6 50.2 51 49.9 C 51.8 49.4 52.4 48.9 52.8 48.5 C 52.9 48.3 53.1 48.1 53.1 48.1 Z " id="Shape" fill="#698237" stroke-width="1"/>
          </g>
          <g id="Shape">
            <g>
              <g>
                <path d="M 58.3 22.1 C 55.6 17.4 46.8 17 43.7 17.6 C 40.6 18.2 31.9 22.9 30.2 30.6 C 28.5 38.2 31.8 54.2 39.3 57.1 C 39.3 57.1 20.1 51 18.1 48.2 C 15.6 44.5 15.1 31.4 15.2 27 C 15.2 25 18.5 16.5 18.5 16.5 C 18.5 16.5 17.7 9.1 15.7 7.8 C 15.7 7.8 20.7 6.4 25.9 7 C 31.1 7.6 36.2 4 43.4 6.5 C 55.2 10.5 58.3 22.1 58.3 22.1 Z " fill="#7D543D" stroke-width="1"/>
                <path d="M 20.9 13.3 C 20.9 13.3 20.5 13.6 20 14.3 C 19.5 15 18.7 16 18 17.3 C 17.6 18 17.3 18.7 16.9 19.5 C 16.5 20.3 16.2 21.1 15.9 22 C 15.6 22.9 15.4 23.8 15.2 24.8 C 15 25.8 14.9 26.8 14.8 27.8 C 14.7 28.8 14.7 29.8 14.8 30.8 C 14.8 31.8 14.9 32.7 15 33.7 C 15.2 35.6 15.4 37.3 15.7 38.8 C 16.2 41.7 16.7 43.7 16.7 43.7 C 16.7 43.7 16.4 41.7 16.1 38.8 C 15.9 37.3 15.8 35.6 15.6 33.7 C 15.5 32.8 15.5 31.8 15.5 30.8 C 15.5 29.8 15.5 28.9 15.6 27.9 C 15.7 26.9 15.8 26 16 25 C 16.2 24 16.4 23.1 16.7 22.2 C 17.2 20.4 17.9 18.8 18.5 17.5 C 19.6 14.9 20.9 13.3 20.9 13.3 Z " fill="#523219" stroke-width="1"/>
                <path d="M 53.5 18.4 C 53.5 18.4 52.8 18.2 51.7 17.9 C 50.5 17.6 48.8 17.2 46.7 17.1 C 45.7 17.1 44.5 17.1 43.3 17.4 C 42.1 17.6 40.9 18.1 39.8 18.7 C 37.5 19.9 35.3 21.7 33.4 23.8 C 32.5 24.9 31.7 26 31 27.2 C 30.9 27.5 30.7 27.8 30.6 28.1 C 30.5 28.4 30.4 28.8 30.3 29.1 C 30.1 29.8 29.9 30.4 29.8 31.1 C 29.6 32.4 29.5 33.7 29.5 34.9 C 29.5 36.1 29.6 37.2 29.6 38.3 C 29.8 40.4 30.1 42.1 30.4 43.2 C 30.7 44.4 30.9 45 30.9 45 C 30.9 45 30.7 44.3 30.5 43.2 C 30.3 42 30.1 40.3 30 38.2 C 29.9 36.1 29.9 33.7 30.4 31.2 C 30.5 30.6 30.7 29.9 30.9 29.3 C 31 29 31.1 28.7 31.2 28.4 C 31.3 28.1 31.5 27.8 31.6 27.5 C 32.2 26.4 33.1 25.2 33.9 24.2 C 35.7 22.1 37.8 20.4 40.1 19.2 C 41.2 18.6 42.3 18.1 43.5 17.8 C 44.6 17.5 45.7 17.4 46.8 17.4 C 48.8 17.4 50.6 17.7 51.7 17.9 C 52.8 18.3 53.5 18.4 53.5 18.4 Z " fill="#523219" stroke-width="1"/>
                <path d="M 40.2 5.8 C 40.2 5.8 39.8 5.8 39.1 5.7 C 38.4 5.7 37.5 5.5 36.3 5.5 C 35.1 5.5 33.7 5.6 32.3 5.9 C 31.6 6 30.9 6.2 30.1 6.4 C 29.4 6.5 28.6 6.6 27.9 6.6 C 26.4 6.6 24.8 6.5 23.4 6.5 C 22.7 6.5 22 6.5 21.3 6.6 C 20.6 6.7 20 6.7 19.4 6.8 C 18.8 6.9 18.3 7 17.8 7.1 C 17.3 7.2 16.9 7.3 16.6 7.4 C 16 7.6 15.6 7.7 15.6 7.7 C 15.6 7.7 16 7.6 16.6 7.5 C 17.3 7.4 18.2 7.2 19.4 7.1 C 20 7 20.6 7 21.3 7 C 22 7 22.7 7 23.4 7 C 24.8 7 26.4 7.2 28 7.2 C 28.8 7.2 29.6 7.1 30.3 6.9 C 31 6.8 31.8 6.5 32.5 6.4 C 33.9 6.1 35.2 5.8 36.4 5.8 C 37.6 5.7 38.5 5.7 39.2 5.7 C 39.9 5.8 40.2 5.8 40.2 5.8 Z " fill="#523219" stroke-width="1"/>
              </g>
              <path d="M 18.1 48.2 C 18.1 48.2 18.4 48.5 18.8 48.9 C 19 49.1 19.4 49.3 19.7 49.6 C 20 49.9 20.5 50.1 20.9 50.4 C 21.8 51 23 51.6 24.2 52.1 C 25.4 52.7 26.8 53.2 28.1 53.8 C 29.5 54.3 30.8 54.8 32.1 55.2 C 33.4 55.6 34.6 56 35.7 56.2 C 37.8 56.8 39.2 57 39.2 57 C 39.2 57 37.8 56.5 35.8 55.8 C 34.8 55.4 33.6 55 32.3 54.6 C 31 54.2 29.7 53.7 28.3 53.1 C 26.9 52.6 25.6 52.1 24.4 51.5 C 23.2 51 22 50.5 21.1 50 C 20.6 49.7 20.2 49.5 19.8 49.3 C 19.4 49.1 19.1 48.9 18.8 48.7 C 18.4 48.4 18.1 48.2 18.1 48.2 Z " fill="#523219" stroke-width="1"/>
            </g>
            <g>
              <path d="M 25.8 17.4 C 25.8 17.4 25.4 17.7 24.9 18.2 C 24.4 18.7 23.8 19.5 23.4 20.3 C 22.9 21.1 22.6 22 22.4 22.7 C 22.2 23.4 22.2 23.9 22.2 23.9 C 22.2 23.9 22.3 23.8 22.4 23.6 C 22.5 23.4 22.6 23.2 22.8 22.8 C 23.1 22.2 23.6 21.4 24 20.6 C 24.5 19.8 24.9 19 25.3 18.4 C 25.6 17.8 25.8 17.4 25.8 17.4 Z " stroke-width="1" fill="#523219"/>
              <path d="M 23 16.3 C 23 16.3 22.6 16.6 22.1 17.1 C 21.6 17.6 21 18.4 20.6 19.2 C 20.1 20 19.8 20.9 19.6 21.6 C 19.4 22.3 19.4 22.8 19.4 22.8 C 19.4 22.8 19.5 22.7 19.6 22.5 C 19.7 22.3 19.8 22.1 20 21.7 C 20.3 21.1 20.8 20.3 21.2 19.5 C 21.7 18.7 22.1 17.9 22.5 17.3 C 22.8 16.7 23 16.3 23 16.3 Z " stroke-width="1" fill="#523219"/>
              <path d="M 26.9 21.5 C 26.9 21.5 26.6 21.1 26.1 20.6 C 25.6 20.1 24.8 19.5 24 19.1 C 23.2 18.6 22.3 18.3 21.6 18.1 C 20.9 17.9 20.4 17.9 20.4 17.9 C 20.4 17.9 20.5 18 20.7 18.1 C 20.9 18.2 21.1 18.3 21.5 18.5 C 22.1 18.8 22.9 19.3 23.7 19.7 C 24.5 20.2 25.3 20.6 25.9 21 C 26.4 21.3 26.9 21.5 26.9 21.5 Z " stroke-width="1" fill="#523219"/>
              <path d="M 25.4 23.6 C 25.4 23.6 25.1 23.2 24.6 22.7 C 24.1 22.2 23.3 21.6 22.5 21.2 C 21.7 20.7 20.8 20.4 20.1 20.2 C 19.4 20 18.9 20 18.9 20 C 18.9 20 19 20.1 19.2 20.2 C 19.4 20.3 19.6 20.4 20 20.6 C 20.6 20.9 21.4 21.4 22.2 21.8 C 23 22.3 23.8 22.7 24.4 23.1 C 25 23.4 25.4 23.6 25.4 23.6 Z " stroke-width="1" fill="#523219"/>
            </g>
          </g>
          <g id="Shape">
            <path d="M 26.6 34.5 C 24.3 30.7 18.6 31 15 31 C 11.4 31 8.2 28.7 6.5 29.1 C 4.8 29.5 9 31 11.8 33.8 C 14.6 36.6 18.3 41.7 25 40 C 27.9 39.3 27.6 36.2 26.6 34.5 Z " fill="#A2B04A" stroke-width="1"/>
            <path d="M 25.3 37.7 C 25.3 37.7 25 37.7 24.6 37.6 C 24.1 37.5 23.5 37.3 22.8 36.9 C 22.5 36.7 22.1 36.5 21.8 36.1 C 21.6 35.9 21.5 35.8 21.3 35.6 L 21.1 35.3 L 20.8 35 C 20.7 34.8 20.4 34.6 20.2 34.4 C 20 34.2 19.7 34.1 19.5 33.9 C 19 33.6 18.5 33.4 18 33.2 C 16.9 32.8 15.9 32.6 14.9 32.3 C 13.9 32.1 12.9 31.9 12.2 31.7 C 11.4 31.5 10.7 31.3 10.3 31.2 C 9.8 31.1 9.6 31 9.6 31 C 9.6 31 9.8 31.1 10.3 31.3 C 10.7 31.5 11.4 31.8 12.2 32 C 13 32.3 13.9 32.5 14.9 32.8 C 15.9 33.1 17 33.3 18 33.7 C 18.5 33.9 19 34.1 19.5 34.3 C 20 34.6 20.3 34.8 20.7 35.2 C 20.9 35.4 21 35.6 21.2 35.8 C 21.4 36 21.6 36.2 21.7 36.3 C 22.1 36.6 22.5 36.9 22.9 37 C 23.7 37.4 24.4 37.4 24.9 37.5 C 25 37.7 25.3 37.7 25.3 37.7 Z " fill="#698237" stroke-width="1"/>
            <path d="M 26.7 34.6 C 26.7 34.6 26.7 34.4 26.5 34.2 C 26.4 33.9 26.2 33.6 25.8 33.2 C 25.5 32.8 25 32.5 24.5 32.2 C 24 31.9 23.4 31.6 22.8 31.4 C 22.2 31.2 21.6 31.1 21 31 C 20.4 30.9 19.9 30.9 19.4 30.9 C 18.9 30.9 18.5 31 18.3 31 C 18 31 17.9 31 17.9 31 C 17.9 31 18.1 31 18.3 31.1 C 18.6 31.1 19 31.2 19.4 31.3 C 19.9 31.4 20.4 31.5 21 31.6 C 21.6 31.7 22.2 31.9 22.7 32 C 23.3 32.2 23.8 32.4 24.4 32.6 C 24.9 32.9 25.4 33.1 25.7 33.4 C 26.4 34 26.7 34.6 26.7 34.6 Z " fill="#698237" stroke-width="1"/>
          </g>
          <g>
            <circle id="Oval" fill="#518237" cx="3.5" cy="3.9" r="3.4" stroke-width="1" transform="matrix(-1,0,0,1,45,54)"/>
            <path d="M 43.7 58.9 C 43.7 58.9 43.8 58.8 43.8 58.7 C 43.9 58.6 44 58.4 44.1 58.1 C 44.3 57.6 44.2 56.8 43.7 56.2 C 43.3 55.6 42.6 55.3 42 55.2 C 41.7 55.2 41.5 55.2 41.4 55.2 C 41.3 55.2 41.2 55.2 41.2 55.2 C 41.2 55.2 41.3 55.2 41.4 55.3 C 41.5 55.3 41.7 55.4 41.9 55.5 C 42.3 55.7 42.8 56 43.1 56.5 C 43.4 57 43.6 57.5 43.6 58 C 43.6 58.2 43.6 58.4 43.6 58.6 C 43.7 58.8 43.7 58.9 43.7 58.9 Z " id="Shape" fill="#1E4730" stroke-width="1"/>
            <path d="M 39.5 56.6 C 39.5 56.6 39.4 56.7 39.4 56.8 C 39.3 56.9 39.2 57.1 39.1 57.4 C 38.9 57.9 39 58.7 39.5 59.3 C 39.9 59.9 40.6 60.2 41.2 60.3 C 41.5 60.3 41.7 60.3 41.8 60.3 C 41.9 60.3 42 60.3 42 60.3 C 42 60.3 41.9 60.3 41.8 60.2 C 41.7 60.2 41.5 60.1 41.3 60 C 40.9 59.8 40.4 59.5 40.1 59 C 39.8 58.5 39.6 58 39.6 57.5 C 39.6 57.3 39.6 57.1 39.6 56.9 C 39.5 56.6 39.5 56.6 39.5 56.6 Z " id="Shape" fill="#1E4730" stroke-width="1"/>
            <circle id="Oval" fill="#1E4730" cx="4" cy="2.8" r="1" stroke-width="1" transform="matrix(-1,0,0,1,45,54)"/>
            <circle id="Oval" fill="#1E4730" cx="2.7" cy="4.6" r="1" stroke-width="1" transform="matrix(-1,0,0,1,45,54)"/>
          </g>
        </g>
      </g>
    </g>
  </g>
</svg>