<svg xmlns="http://www.w3.org/2000/svg" xmlns:xlink="http://www.w3.org/1999/xlink" version="1.1" width="141.78210510094544" height="104.69164718468568" viewBox="-22.059792822994698 -23.936173095204342 141.78210510094544 104.69164718468568">
  <!-- Exported by Scratch - http://scratch.mit.edu/ -->
  <g id="ID0.031039465684443712">
    <path id="L_Leg_3" fill="#74BF44" stroke="#000000" stroke-width="2.3213427341756976" d="M 26.9662 9.8215 C 26.9662 9.8215 24.6503 3.7991 20.6606 3.6552 C 16.671 3.5105 9.4532 8.3142 11.6592 10.3291 C 13.8676 12.344 19.1069 8.4403 20.0741 8.513 C 21.0413 8.5858 24.2138 13.2323 24.2138 13.2323 L 26.9662 9.8215 L 26.9662 9.8215 L 26.9662 9.8215 L 26.9662 9.8215 L 26.9662 9.8215 L 26.9662 9.8215 L 26.9662 9.8215 L 26.9662 9.8215 L 26.9662 9.8215 L 26.9662 9.8215 L 26.9662 9.8215 L 26.9662 9.8215 L 26.9662 9.8215 Z "/>
    <path id="L_Leg_2" fill="#74BF44" stroke="#000000" stroke-width="2.3213427341756976" d="M 20.6606 20.146 C 20.6606 20.146 14.7033 13.8877 11.2484 14.6816 C 7.7934 15.4747 -0.4311 28.126 4.405 29.3834 C 9.2412 30.6408 10.8855 21.0653 12.3363 21.0653 C 13.7871 21.0653 19.1069 25.7505 19.1069 25.7505 L 20.6606 20.146 L 20.6606 20.146 L 20.6606 20.146 L 20.6606 20.146 L 20.6606 20.146 L 20.6606 20.146 L 20.6606 20.146 L 20.6606 20.146 L 20.6606 20.146 L 20.6606 20.146 L 20.6606 20.146 L 20.6606 20.146 L 20.6606 20.146 Z "/>
    <path id="L_Leg_1" fill="#74BF44" stroke="#000000" stroke-width="2.3213427341756976" d="M 22.4457 34.3349 C 22.4457 34.3349 18.3207 30.7484 14.3682 31.3875 C 10.4158 32.0251 -1.3705 43.8648 2.9202 46.6697 C 7.2108 49.4747 13.8846 37.9647 15.9158 37.8679 C 17.947 37.7712 26.967 43.2589 26.967 43.2589 L 26.5553 39.212 L 22.4457 34.3349 L 22.4457 34.3349 L 22.4457 34.3349 L 22.4457 34.3349 L 22.4457 34.3349 L 22.4457 34.3349 L 22.4457 34.3349 L 22.4457 34.3349 L 22.4457 34.3349 L 22.4457 34.3349 L 22.4457 34.3349 L 22.4457 34.3349 L 22.4457 34.3349 Z "/>
    <path id="R_Leg_3" fill="#74BF44" stroke="#000000" stroke-width="2.3213427341756976" d="M 70.6956 9.8215 C 70.6956 9.8215 73.0116 3.7991 77.0012 3.6552 C 80.9892 3.5105 88.2086 8.3142 86.0026 10.3291 C 83.7942 12.344 78.5549 8.4403 77.5877 8.513 C 76.6205 8.5858 73.4464 13.2323 73.4464 13.2323 L 70.6956 9.8215 L 70.6956 9.8215 L 70.6956 9.8215 L 70.6956 9.8215 L 70.6956 9.8215 L 70.6956 9.8215 L 70.6956 9.8215 L 70.6956 9.8215 L 70.6956 9.8215 L 70.6956 9.8215 L 70.6956 9.8215 L 70.6956 9.8215 L 70.6956 9.8215 Z "/>
    <path id="R_Leg_2" fill="#74BF44" stroke="#000000" stroke-width="2.3213427341756976" d="M 77.0019 20.146 C 77.0019 20.146 82.9577 13.8877 86.4142 14.6816 C 89.8691 15.4747 98.0937 28.126 93.2575 29.3834 C 88.4214 30.6408 86.7771 21.0653 85.3263 21.0653 C 83.8754 21.0653 78.5557 25.7505 78.5557 25.7505 L 77.0019 20.146 L 77.0019 20.146 L 77.0019 20.146 L 77.0019 20.146 L 77.0019 20.146 L 77.0019 20.146 L 77.0019 20.146 L 77.0019 20.146 L 77.0019 20.146 L 77.0019 20.146 L 77.0019 20.146 L 77.0019 20.146 L 77.0019 20.146 Z "/>
    <path id="R_Leg_1" fill="#74BF44" stroke="#000000" stroke-width="2.3213427341756976" d="M 75.2168 34.5554 C 75.2168 34.5554 79.3419 30.9689 83.2943 31.6081 C 87.246 32.2457 99.033 44.0853 94.7424 46.8902 C 90.4518 49.6952 83.7779 38.1852 81.7468 38.0885 C 79.7156 37.9918 70.6956 43.4794 70.6956 43.4794 L 71.1073 39.4325 L 75.2168 34.5554 L 75.2168 34.5554 L 75.2168 34.5554 L 75.2168 34.5554 L 75.2168 34.5554 L 75.2168 34.5554 L 75.2168 34.5554 L 75.2168 34.5554 L 75.2168 34.5554 L 75.2168 34.5554 L 75.2168 34.5554 L 75.2168 34.5554 L 75.2168 34.5554 Z "/>
    <g id="R_Wing">
      <g id="Wing_1_">
        <path id="ID0.5016931747086346" fill="#A6479A" d="M 49.1115 25.7838 L 48.2302 1.3045 L 49.4597 1.3316 C 50.673 1.3579 51.9373 1.4677 53.2172 1.6589 C 55.4712 1.9947 57.7097 2.5866 59.8717 3.4161 C 63.8373 4.9389 67.5027 7.2525 70.4733 10.107 C 72.4472 12.0043 74.0752 14.0974 75.3148 16.3282 C 77.0953 19.534 77.9975 22.8574 77.9975 26.2071 C 77.9975 26.6342 77.9789 27.09 77.9387 27.5999 C 77.7646 29.8477 77.1742 32.0236 76.1814 34.0679 C 75.3055 35.8724 74.1178 37.5824 72.6507 39.1517 C 72.1911 39.6848 71.4242 40.4183 70.3889 41.3105 C 70.392 41.4134 70.3943 41.5171 70.3943 41.62 C 70.3943 42.4069 70.3038 43.1885 70.1243 43.9452 L 70.0276 44.3515 L 69.6941 44.6037 C 69.2561 44.9341 68.7686 45.2777 68.2014 45.653 C 64.536 48.085 60.1897 49.7935 55.6337 50.5928 C 53.8857 50.9 52.0921 51.0795 50.3016 51.1251 L 49.1115 51.1561 L 49.1115 25.7838 L 49.1115 25.7838 L 49.1115 25.7838 L 49.1115 25.7838 L 49.1115 25.7838 L 49.1115 25.7838 L 49.1115 25.7838 L 49.1115 25.7838 L 49.1115 25.7838 L 49.1115 25.7838 L 49.1115 25.7838 L 49.1115 25.7838 L 49.1115 25.7838 Z " stroke-width="0.7737809113918992"/>
        <path id="ID0.10186179494485259" d="M 49.4342 2.4915 C 50.6482 2.5178 51.8538 2.6284 53.0462 2.8064 C 55.2499 3.1352 57.401 3.7109 59.4546 4.4994 C 63.3181 5.9828 66.828 8.2143 69.6685 10.9435 C 71.5326 12.7355 73.1049 14.7412 74.2988 16.8907 C 75.9106 19.7932 76.8353 22.9541 76.8353 26.2063 C 76.8353 26.6458 76.8136 27.0791 76.7803 27.5101 C 76.614 29.6597 76.046 31.6862 75.1361 33.5603 C 74.2942 35.2951 73.1645 36.9007 71.8011 38.3585 C 71.1627 39.0983 70.0376 40.0902 69.1919 40.8037 C 69.2159 41.0745 69.2321 41.3453 69.2321 41.62 C 69.2321 42.3272 69.1509 43.0144 68.993 43.6775 C 68.5295 44.0272 68.0482 44.3615 67.5584 44.6865 C 64.078 46.9955 59.9491 48.6576 55.4317 49.4499 C 53.7596 49.7439 52.0348 49.9196 50.2706 49.9652 L 50.2706 25.7838 L 49.4342 2.4915 M 47.0261 0.1175 L 47.1144 2.575 L 47.9508 25.8248 L 47.9508 49.9652 L 47.9508 52.3477 L 50.3317 52.2866 C 52.1788 52.2386 54.0296 52.0537 55.8349 51.7372 C 60.5472 50.91 65.0444 49.1412 68.8429 46.6217 C 69.4294 46.2325 69.9363 45.8758 70.3936 45.5307 L 71.0598 45.0277 L 71.2525 44.2137 C 71.4358 43.4392 71.5364 42.6406 71.5519 41.8367 C 72.4108 41.0791 73.0732 40.4346 73.5274 39.9138 C 75.061 38.268 76.3052 36.472 77.2253 34.5755 C 78.2807 32.4004 78.9106 30.0837 79.0955 27.6912 C 79.1373 27.1503 79.1574 26.6651 79.1574 26.2086 C 79.1574 22.6593 78.2064 19.1463 76.3292 15.7657 C 75.0339 13.4335 73.3347 11.2491 71.278 9.2721 C 68.1968 6.3108 64.396 3.9121 60.2872 2.3344 C 58.0463 1.4739 55.7258 0.8611 53.3889 0.5121 C 52.0604 0.314 50.7473 0.2003 49.4852 0.1732 L 47.0261 0.1175 L 47.0261 0.1175 L 49.4342 2.4915 L 49.4342 2.4915 L 49.4342 2.4915 L 49.4342 2.4915 L 49.4342 2.4915 L 49.4342 2.4915 L 49.4342 2.4915 L 49.4342 2.4915 L 49.4342 2.4915 L 49.4342 2.4915 L 49.4342 2.4915 L 49.4342 2.4915 Z " stroke-width="0.7737809113918992" fill="undefined"/>
      </g>
      <path id="Spot_13_" fill="#F4EB43" d="M 54.6456 11.4727 C 55.3907 11.4727 56.0655 11.7915 56.5545 12.3061 C 57.0435 12.8207 57.3461 13.5318 57.3461 14.3164 C 57.3461 15.101 57.0435 15.8121 56.5545 16.3267 C 56.0655 16.8412 55.3907 17.16 54.6456 17.16 C 53.9004 17.16 53.2257 16.8412 52.7367 16.3267 C 52.2476 15.8121 51.9451 15.101 51.9451 14.3164 C 51.9451 13.5318 52.2476 12.8207 52.7367 12.3061 C 53.2257 11.7915 53.9004 11.4727 54.6456 11.4727 L 54.6456 11.4727 L 54.6456 11.4727 L 54.6456 11.4727 L 54.6456 11.4727 L 54.6456 11.4727 L 54.6456 11.4727 L 54.6456 11.4727 L 54.6456 11.4727 L 54.6456 11.4727 L 54.6456 11.4727 L 54.6456 11.4727 Z " stroke-width="0.7737809113918992"/>
      <path id="Spot_12_" fill="#F4EB43" d="M 65.8352 22.6918 C 66.5804 22.6918 67.2551 23.0106 67.7441 23.5251 C 68.2332 24.0397 68.5357 24.7508 68.5357 25.5354 C 68.5357 26.32 68.2332 27.0311 67.7441 27.5457 C 67.2551 28.0603 66.5804 28.3791 65.8352 28.3791 C 65.0901 28.3791 64.4153 28.0603 63.9263 27.5457 C 63.4373 27.0311 63.1347 26.32 63.1347 25.5354 C 63.1347 24.7508 63.4373 24.0397 63.9263 23.5251 C 64.4153 23.0106 65.0901 22.6918 65.8352 22.6918 L 65.8352 22.6918 L 65.8352 22.6918 L 65.8352 22.6918 L 65.8352 22.6918 L 65.8352 22.6918 L 65.8352 22.6918 L 65.8352 22.6918 L 65.8352 22.6918 L 65.8352 22.6918 L 65.8352 22.6918 L 65.8352 22.6918 Z " stroke-width="0.7737809113918992"/>
      <path id="Spot_11_" fill="#F4EB43" d="M 55.814 9.4586 C 57.897 9.4586 59.5862 7.6797 59.5862 5.4868 C 59.5862 5.144 59.532 4.8167 59.4546 4.4994 C 57.401 3.7102 55.2491 3.1345 53.0462 2.8064 C 52.4279 3.5144 52.0418 4.4499 52.0418 5.4868 C 52.0418 7.6797 53.731 9.4586 55.814 9.4586 L 55.814 9.4586 L 55.814 9.4586 L 55.814 9.4586 L 55.814 9.4586 L 55.814 9.4586 L 55.814 9.4586 L 55.814 9.4586 L 55.814 9.4586 L 55.814 9.4586 L 55.814 9.4586 L 55.814 9.4586 L 55.814 9.4586 Z " stroke-width="0.7737809113918992"/>
      <path id="Spot_10_" fill="#F4EB43" d="M 62.9985 16.2346 C 62.9985 19.2051 65.5381 21.6131 68.6719 21.6131 C 71.5705 21.6131 73.9568 19.5518 74.2988 16.8915 C 73.1049 14.742 71.5326 12.7363 69.6685 10.9442 C 69.3443 10.8901 69.0124 10.856 68.6719 10.856 C 65.5389 10.856 62.9985 13.264 62.9985 16.2346 L 62.9985 16.2346 L 62.9985 16.2346 L 62.9985 16.2346 L 62.9985 16.2346 L 62.9985 16.2346 L 62.9985 16.2346 L 62.9985 16.2346 L 62.9985 16.2346 L 62.9985 16.2346 L 62.9985 16.2346 L 62.9985 16.2346 L 62.9985 16.2346 Z " stroke-width="0.7737809113918992"/>
      <path id="Spot_9_" fill="#F4EB43" d="M 59.5854 34.8734 C 55.0263 34.8734 51.3322 38.3763 51.3322 42.6963 C 51.3322 45.581 52.9827 48.0942 55.4333 49.4507 C 59.9506 48.6583 64.0795 46.9962 67.56 44.6873 C 67.7364 44.0512 67.8393 43.3858 67.8393 42.6971 C 67.8393 38.3763 64.1437 34.8734 59.5854 34.8734 L 59.5854 34.8734 L 59.5854 34.8734 L 59.5854 34.8734 L 59.5854 34.8734 L 59.5854 34.8734 L 59.5854 34.8734 L 59.5854 34.8734 L 59.5854 34.8734 L 59.5854 34.8734 L 59.5854 34.8734 L 59.5854 34.8734 L 59.5854 34.8734 Z " stroke-width="0.7737809113918992"/>
      <path id="Spot_8_" fill="#F4EB43" d="M 73.2836 25.8032 C 70.9058 25.8032 68.9799 27.6293 68.9799 29.8833 C 68.9799 32.1358 70.9058 33.9627 73.2836 33.9627 C 73.9475 33.9627 74.5751 33.8164 75.1368 33.5603 C 76.0468 31.6862 76.6148 29.6597 76.7811 27.5101 C 75.9996 26.4779 74.7267 25.8032 73.2836 25.8032 L 73.2836 25.8032 L 73.2836 25.8032 L 73.2836 25.8032 L 73.2836 25.8032 L 73.2836 25.8032 L 73.2836 25.8032 L 73.2836 25.8032 L 73.2836 25.8032 L 73.2836 25.8032 L 73.2836 25.8032 L 73.2836 25.8032 L 73.2836 25.8032 Z " stroke-width="0.7737809113918992"/>
      <path id="Spot_7_" fill="#F4EB43" d="M 56.3463 19.2786 C 57.5341 19.2786 58.6096 19.7359 59.3888 20.4741 C 60.168 21.2123 60.6501 22.2322 60.6501 23.358 C 60.6501 24.4839 60.168 25.5037 59.3888 26.2419 C 58.6096 26.9801 57.5341 27.4374 56.3463 27.4374 C 55.1586 27.4374 54.083 26.9801 53.3038 26.2419 C 52.5246 25.5037 52.0426 24.4839 52.0426 23.358 C 52.0426 22.2322 52.5246 21.2123 53.3038 20.4741 C 54.083 19.7359 55.1586 19.2786 56.3463 19.2786 L 56.3463 19.2786 L 56.3463 19.2786 L 56.3463 19.2786 L 56.3463 19.2786 L 56.3463 19.2786 L 56.3463 19.2786 L 56.3463 19.2786 L 56.3463 19.2786 L 56.3463 19.2786 L 56.3463 19.2786 L 56.3463 19.2786 Z " stroke-width="0.7737809113918992"/>
    </g>
    <g id="L_Wing">
      <g id="Wing">
        <path id="ID0.11360358074307442" fill="#A6479A" d="M 47.1445 51.0725 C 39.8091 50.6315 32.9209 47.9712 27.7482 43.5839 L 27.4007 43.2898 L 27.3466 42.8379 C 27.2932 42.3946 27.2669 41.9961 27.2669 41.6208 C 27.2669 41.473 27.2707 41.3213 27.2793 41.1619 C 26.9984 40.9035 26.709 40.6327 26.4235 40.3642 L 26.3407 40.6195 L 25.009 39.1524 C 24.7002 38.822 24.4062 38.4823 24.1215 38.138 C 22.1475 35.7563 20.8104 33.11 20.1458 30.2702 C 19.8247 28.8998 19.6622 27.5333 19.6622 26.2078 C 19.6622 21.1226 21.7212 16.117 25.6156 11.7343 C 29.4017 7.4723 34.6371 4.2123 40.3562 2.5534 C 42.9553 1.7997 45.5947 1.3896 48.2 1.3323 L 49.4295 1.3053 L 48.5466 25.8256 L 48.3671 51.1453 L 47.1445 51.0725 L 47.1445 51.0725 L 47.1445 51.0725 L 47.1445 51.0725 L 47.1445 51.0725 L 47.1445 51.0725 L 47.1445 51.0725 L 47.1445 51.0725 L 47.1445 51.0725 L 47.1445 51.0725 L 47.1445 51.0725 L 47.1445 51.0725 L 47.1445 51.0725 Z " stroke-width="0.7737809113918992"/>
        <path id="ID0.5329429218545556" d="M 48.2255 2.493 L 47.7465 15.7835 L 47.4896 22.9084 L 47.386 25.7838 L 47.3442 31.6251 L 47.2304 47.6601 L 47.2142 49.9134 C 39.8973 49.4731 33.3302 46.7966 28.4987 42.6987 C 28.4562 42.3443 28.4275 41.986 28.4275 41.62 C 28.4275 41.3066 28.4492 40.9956 28.4809 40.6861 C 27.978 40.2326 27.4193 39.7088 26.8947 39.2105 C 26.5349 38.8692 26.1882 38.5365 25.8973 38.2556 C 25.8857 38.2904 25.8687 38.3245 25.857 38.3593 C 25.5638 38.0459 25.2852 37.7233 25.0144 37.3967 L 25.0136 37.3959 C 23.2038 35.2123 21.9123 32.7262 21.2755 30.0056 C 20.9892 28.7845 20.8228 27.521 20.8228 26.2078 C 20.8228 21.2247 22.9786 16.4489 26.483 12.505 C 30.0819 8.4542 35.1045 5.2848 40.6788 3.6684 C 43.1139 2.9627 45.6527 2.5495 48.2255 2.493 M 50.6335 0.119 L 48.1744 0.1724 C 45.4678 0.2312 42.7286 0.6568 40.0327 1.4383 C 34.1056 3.1569 28.6775 6.5399 24.7482 10.9628 C 20.6619 15.5622 18.5023 20.8332 18.5023 26.2078 C 18.5023 27.6223 18.6756 29.0786 19.0168 30.5356 C 19.7225 33.5503 21.1393 36.3568 23.227 38.877 L 23.292 38.9559 L 23.2943 38.9582 C 23.6069 39.3327 23.8839 39.6484 24.1617 39.9448 L 26.1155 42.0348 C 26.1279 42.3327 26.1542 42.6437 26.1944 42.9765 L 26.3035 43.8802 L 26.9976 44.4698 C 32.3599 49.0181 39.4903 51.7743 47.0749 52.2309 L 49.5177 52.3779 L 49.5355 49.9304 L 49.5518 47.6772 L 49.6655 31.6421 L 49.7065 25.8341 L 49.8087 22.992 L 50.0656 15.867 L 50.5438 2.5766 L 50.6335 0.119 L 50.6335 0.119 L 48.2255 2.493 L 48.2255 2.493 L 48.2255 2.493 L 48.2255 2.493 L 48.2255 2.493 L 48.2255 2.493 L 48.2255 2.493 L 48.2255 2.493 L 48.2255 2.493 L 48.2255 2.493 L 48.2255 2.493 L 48.2255 2.493 Z " stroke-width="0.7737809113918992" fill="undefined"/>
      </g>
      <path id="Spot_6_" fill="#F4EB43" d="M 45.5328 15.1985 C 43.1549 15.1985 41.229 17.0246 41.229 19.2786 C 41.229 21.5311 43.1549 23.358 45.5328 23.358 C 46.2384 23.358 46.9023 23.194 47.4896 22.9084 L 47.7465 15.7835 C 47.0989 15.4151 46.3437 15.1985 45.5328 15.1985 L 45.5328 15.1985 L 45.5328 15.1985 L 45.5328 15.1985 L 45.5328 15.1985 L 45.5328 15.1985 L 45.5328 15.1985 L 45.5328 15.1985 L 45.5328 15.1985 L 45.5328 15.1985 L 45.5328 15.1985 L 45.5328 15.1985 L 45.5328 15.1985 Z " stroke-width="0.7737809113918992"/>
      <path id="Spot_5_" fill="#F4EB43" d="M 39.6396 24.5945 C 40.3848 24.5945 41.0595 24.9133 41.5486 25.4279 C 42.0376 25.9424 42.3401 26.6535 42.3401 27.4382 C 42.3401 28.2228 42.0376 28.9339 41.5486 29.4484 C 41.0595 29.963 40.3848 30.2818 39.6396 30.2818 C 38.8945 30.2818 38.2197 29.963 37.7307 29.4484 C 37.2417 28.9339 36.9391 28.2228 36.9391 27.4382 C 36.9391 26.6535 37.2417 25.9424 37.7307 25.4279 C 38.2197 24.9133 38.8945 24.5945 39.6396 24.5945 L 39.6396 24.5945 L 39.6396 24.5945 L 39.6396 24.5945 L 39.6396 24.5945 L 39.6396 24.5945 L 39.6396 24.5945 L 39.6396 24.5945 L 39.6396 24.5945 L 39.6396 24.5945 L 39.6396 24.5945 L 39.6396 24.5945 Z " stroke-width="0.7737809113918992"/>
      <path id="Spot_4_" fill="#F4EB43" d="M 33.8285 37.4749 C 34.5737 37.4749 35.2484 37.7937 35.7375 38.3082 C 36.2265 38.8228 36.529 39.5339 36.529 40.3185 C 36.529 41.1031 36.2265 41.8142 35.7375 42.3288 C 35.2484 42.8434 34.5737 43.1622 33.8285 43.1622 C 33.0834 43.1622 32.4087 42.8434 31.9196 42.3288 C 31.4306 41.8142 31.128 41.1031 31.128 40.3185 C 31.128 39.5339 31.4306 38.8228 31.9196 38.3082 C 32.4087 37.7937 33.0834 37.4749 33.8285 37.4749 L 33.8285 37.4749 L 33.8285 37.4749 L 33.8285 37.4749 L 33.8285 37.4749 L 33.8285 37.4749 L 33.8285 37.4749 L 33.8285 37.4749 L 33.8285 37.4749 L 33.8285 37.4749 L 33.8285 37.4749 L 33.8285 37.4749 Z " stroke-width="0.7737809113918992"/>
      <path id="Spot_3_" fill="#F4EB43" d="M 29.6215 19.2794 C 30.8092 19.2794 31.8848 19.7367 32.664 20.4749 C 33.4432 21.2131 33.9253 22.2329 33.9253 23.3588 C 33.9253 24.4846 33.4432 25.5045 32.664 26.2427 C 31.8848 26.9809 30.8092 27.4382 29.6215 27.4382 C 28.4337 27.4382 27.3582 26.9809 26.579 26.2427 C 25.7998 25.5045 25.3177 24.4846 25.3177 23.3588 C 25.3177 22.2329 25.7998 21.2131 26.579 20.4749 C 27.3582 19.7367 28.4337 19.2794 29.6215 19.2794 L 29.6215 19.2794 L 29.6215 19.2794 L 29.6215 19.2794 L 29.6215 19.2794 L 29.6215 19.2794 L 29.6215 19.2794 L 29.6215 19.2794 L 29.6215 19.2794 L 29.6215 19.2794 L 29.6215 19.2794 L 29.6215 19.2794 Z " stroke-width="0.7737809113918992"/>
      <g id="Spot_2_">
        <path id="ID0.05397807341068983" fill="#F4EB43" d="M 28.6519 33.8505 C 28.0144 30.9008 25.2179 29.0012 22.406 29.6109 C 22.0059 29.6968 21.6291 29.833 21.277 30.0063 C 21.9139 32.7269 23.2053 35.2131 25.0152 37.3967 L 25.0159 37.3975 C 25.2868 37.724 25.5653 38.0467 25.8586 38.3601 C 25.8702 38.3253 25.8872 38.2912 25.8988 38.2564 C 26.1898 38.5373 26.5364 38.87 26.8962 39.2112 C 28.3564 37.9701 29.1015 35.9281 28.6519 33.8505 L 28.6519 33.8505 L 28.6519 33.8505 L 28.6519 33.8505 L 28.6519 33.8505 L 28.6519 33.8505 L 28.6519 33.8505 L 28.6519 33.8505 L 28.6519 33.8505 L 28.6519 33.8505 L 28.6519 33.8505 L 28.6519 33.8505 L 28.6519 33.8505 Z " stroke-width="0.7737809113918992"/>
      </g>
      <g id="Spot_1_">
        <path id="ID0.24636078719049692" fill="#F4EB43" d="M 33.8285 16.5108 C 38.5293 16.5108 42.3401 12.8988 42.3401 8.4418 C 42.3401 6.6529 41.7188 5.0062 40.6796 3.6684 C 35.1053 5.2848 30.0827 8.4542 26.4838 12.505 C 27.9602 14.899 30.6924 16.5108 33.8285 16.5108 L 33.8285 16.5108 L 33.8285 16.5108 L 33.8285 16.5108 L 33.8285 16.5108 L 33.8285 16.5108 L 33.8285 16.5108 L 33.8285 16.5108 L 33.8285 16.5108 L 33.8285 16.5108 L 33.8285 16.5108 L 33.8285 16.5108 L 33.8285 16.5108 Z " stroke-width="0.7737809113918992"/>
      </g>
      <g id="Spot">
        <path id="ID0.8482278920710087" fill="#F4EB43" d="M 39.7139 39.6515 C 39.7139 43.7889 42.9994 47.1928 47.2312 47.6609 L 47.3449 31.6259 C 43.0574 32.0437 39.7139 35.477 39.7139 39.6515 L 39.7139 39.6515 L 39.7139 39.6515 L 39.7139 39.6515 L 39.7139 39.6515 L 39.7139 39.6515 L 39.7139 39.6515 L 39.7139 39.6515 L 39.7139 39.6515 L 39.7139 39.6515 L 39.7139 39.6515 L 39.7139 39.6515 L 39.7139 39.6515 Z " stroke-width="0.7737809113918992"/>
      </g>
    </g>
    <path id="L_Antenna" fill="#74BF44" stroke="#000000" stroke-width="2.3213427341756976" d="M 39.0673 28.6344 C 39.0673 28.6344 36.9038 24.0645 37.194 20.389 C 37.4842 16.7136 36.8358 13.5519 34.355 13.8274 C 31.8743 14.1028 29.3695 17.752 30.3267 22.4697 C 31.2839 27.1875 34.5933 30.3576 34.5933 30.3576 L 39.0673 28.6344 L 39.0673 28.6344 L 39.0673 28.6344 L 39.0673 28.6344 L 39.0673 28.6344 L 39.0673 28.6344 L 39.0673 28.6344 L 39.0673 28.6344 L 39.0673 28.6344 L 39.0673 28.6344 L 39.0673 28.6344 L 39.0673 28.6344 L 39.0673 28.6344 Z "/>
    <path id="R_Antenna" fill="#74BF44" stroke="#000000" stroke-width="2.3213427341756976" d="M 58.5945 28.6344 C 58.5945 28.6344 60.758 24.0645 60.4678 20.389 C 60.1776 16.7136 60.8261 13.5519 63.3068 13.8274 C 65.7875 14.1028 68.2923 17.752 67.3351 22.4697 C 66.3779 27.1875 63.0692 30.3569 63.0692 30.3569 L 58.5945 28.6344 L 58.5945 28.6344 L 58.5945 28.6344 L 58.5945 28.6344 L 58.5945 28.6344 L 58.5945 28.6344 L 58.5945 28.6344 L 58.5945 28.6344 L 58.5945 28.6344 L 58.5945 28.6344 L 58.5945 28.6344 L 58.5945 28.6344 L 58.5945 28.6344 Z "/>
    <g id="Head">
      <path id="ID0.16291373409330845" fill="#74BF44" d="M 48.8298 55.5411 C 36.5375 55.5411 27.2677 49.5567 27.2677 41.6208 C 27.2677 33.3475 36.9399 26.6164 48.8298 26.6164 C 60.7197 26.6164 70.3936 33.3467 70.3936 41.6208 C 70.3936 49.5567 61.1237 55.5411 48.8298 55.5411 L 48.8298 55.5411 L 48.8298 55.5411 L 48.8298 55.5411 L 48.8298 55.5411 L 48.8298 55.5411 L 48.8298 55.5411 L 48.8298 55.5411 L 48.8298 55.5411 L 48.8298 55.5411 L 48.8298 55.5411 L 48.8298 55.5411 L 48.8298 55.5411 L 48.8298 55.5411 Z " stroke-width="0.7737809113918992"/>
      <path id="ID0.31059188302606344" d="M 48.8298 27.7771 C 59.9522 27.7771 69.2329 34.0749 69.2329 41.6208 C 69.2329 49.1644 59.9522 54.3804 48.8298 54.3804 C 37.7075 54.3804 28.4283 49.1652 28.4283 41.6208 C 28.4283 34.0749 37.7075 27.7771 48.8298 27.7771 M 48.8298 25.4557 C 36.3008 25.4557 26.107 32.7068 26.107 41.6208 C 26.107 50.2183 35.876 56.7018 48.8298 56.7018 C 61.7845 56.7018 71.5542 50.2183 71.5542 41.6208 C 71.5542 32.7068 61.3597 25.4557 48.8298 25.4557 L 48.8298 25.4557 L 48.8298 27.7771 L 48.8298 27.7771 L 48.8298 27.7771 L 48.8298 27.7771 L 48.8298 27.7771 L 48.8298 27.7771 L 48.8298 27.7771 L 48.8298 27.7771 L 48.8298 27.7771 L 48.8298 27.7771 L 48.8298 27.7771 L 48.8298 27.7771 Z " stroke-width="0.7737809113918992" fill="undefined"/>
    </g>
    <g id="L_Eye">
      <path id="White" fill="#FFFFFF" d="M 41.578 32.5281 C 39.1816 32.1683 36.8834 34.2258 36.5236 36.6307 C 36.1661 39.034 37.7578 41.6881 40.155 42.0456 C 42.5521 42.4039 44.8503 40.3332 45.2101 37.9291 C 45.5699 35.5234 43.9759 32.8848 41.578 32.5281 L 41.578 32.5281 L 41.578 32.5281 L 41.578 32.5281 L 41.578 32.5281 L 41.578 32.5281 L 41.578 32.5281 L 41.578 32.5281 L 41.578 32.5281 L 41.578 32.5281 L 41.578 32.5281 L 41.578 32.5281 L 41.578 32.5281 Z " stroke-width="0.7737809113918992"/>
      <path id="Pupil" fill="#231F20" d="M 40.8405 35.5737 C 41.3427 35.5737 41.7977 35.7903 42.1273 36.1409 C 42.4562 36.4906 42.6605 36.9742 42.6605 37.5081 C 42.6605 38.0421 42.4562 38.5257 42.1273 38.8754 C 41.7977 39.2259 41.3427 39.4426 40.8405 39.4426 C 40.3384 39.4426 39.8834 39.2259 39.5537 38.8754 C 39.2249 38.5257 39.0206 38.0421 39.0206 37.5081 C 39.0206 36.9742 39.2249 36.4906 39.5537 36.1409 C 39.8834 35.7903 40.3384 35.5737 40.8405 35.5737 L 40.8405 35.5737 L 40.8405 35.5737 L 40.8405 35.5737 L 40.8405 35.5737 L 40.8405 35.5737 L 40.8405 35.5737 L 40.8405 35.5737 L 40.8405 35.5737 L 40.8405 35.5737 L 40.8405 35.5737 L 40.8405 35.5737 Z " stroke-width="0.7737809113918992"/>
      <path id="Outline" fill="#231F20" d="M 41.7753 30.4296 C 38.1106 29.8825 34.6789 32.4971 34.1164 36.2709 C 33.5531 40.0461 36.0671 43.5506 39.7309 44.0977 C 43.3956 44.6447 46.8242 42.0301 47.3883 38.2548 C 47.9531 34.4811 45.4414 30.9767 41.7753 30.4296 L 41.7753 30.4296 L 41.7753 30.4296 L 41.7753 30.4296 L 41.7753 30.4296 L 41.7753 30.4296 L 41.7753 30.4296 L 41.7753 30.4296 L 41.7753 30.4296 L 41.7753 30.4296 L 41.7753 30.4296 L 41.7753 30.4296 L 41.7753 30.4296 Z M 45.2101 37.9283 C 44.8503 40.3324 42.5514 42.4031 40.155 42.0448 C 37.757 41.6873 36.1661 39.0333 36.5236 36.6299 C 36.8834 34.2258 39.1823 32.1675 41.578 32.5273 C 43.9759 32.8848 45.5699 35.5234 45.2101 37.9283 L 45.2101 37.9283 L 45.2101 37.9283 L 45.2101 37.9283 L 45.2101 37.9283 L 45.2101 37.9283 L 45.2101 37.9283 L 45.2101 37.9283 L 45.2101 37.9283 L 45.2101 37.9283 L 45.2101 37.9283 L 45.2101 37.9283 L 45.2101 37.9283 Z " stroke-width="0.7737809113918992"/>
    </g>
    <g id="R_Eye">
      <path id="White_1_" fill="#FFFFFF" d="M 57.7322 32.5281 C 55.3358 32.1683 53.0377 34.2258 52.6778 36.6307 C 52.3204 39.034 53.912 41.6881 56.3092 42.0456 C 58.7064 42.4039 61.0045 40.3332 61.3643 37.9291 C 61.7241 35.5234 60.1301 32.8848 57.7322 32.5281 L 57.7322 32.5281 L 57.7322 32.5281 L 57.7322 32.5281 L 57.7322 32.5281 L 57.7322 32.5281 L 57.7322 32.5281 L 57.7322 32.5281 L 57.7322 32.5281 L 57.7322 32.5281 L 57.7322 32.5281 L 57.7322 32.5281 L 57.7322 32.5281 Z " stroke-width="0.7737809113918992"/>
      <path id="Pupil_1_" fill="#231F20" d="M 56.9948 35.5737 C 57.497 35.5737 57.9519 35.7903 58.2816 36.1409 C 58.6104 36.4906 58.8147 36.9742 58.8147 37.5081 C 58.8147 38.0421 58.6104 38.5257 58.2816 38.8754 C 57.9519 39.2259 57.497 39.4426 56.9948 39.4426 C 56.4926 39.4426 56.0376 39.2259 55.708 38.8754 C 55.3791 38.5257 55.1748 38.0421 55.1748 37.5081 C 55.1748 36.9742 55.3791 36.4906 55.708 36.1409 C 56.0376 35.7903 56.4926 35.5737 56.9948 35.5737 L 56.9948 35.5737 L 56.9948 35.5737 L 56.9948 35.5737 L 56.9948 35.5737 L 56.9948 35.5737 L 56.9948 35.5737 L 56.9948 35.5737 L 56.9948 35.5737 L 56.9948 35.5737 L 56.9948 35.5737 L 56.9948 35.5737 Z " stroke-width="0.7737809113918992"/>
      <path id="Outline_1_" fill="#231F20" d="M 57.9295 30.4296 C 54.2649 29.8825 50.8331 32.4971 50.2706 36.2709 C 49.7073 40.0461 52.2213 43.5506 55.8852 44.0977 C 59.5498 44.6447 62.9784 42.0301 63.5425 38.2548 C 64.1074 34.4811 61.5957 30.9767 57.9295 30.4296 L 57.9295 30.4296 L 57.9295 30.4296 L 57.9295 30.4296 L 57.9295 30.4296 L 57.9295 30.4296 L 57.9295 30.4296 L 57.9295 30.4296 L 57.9295 30.4296 L 57.9295 30.4296 L 57.9295 30.4296 L 57.9295 30.4296 L 57.9295 30.4296 Z M 61.3643 37.9283 C 61.0045 40.3324 58.7056 42.4031 56.3092 42.0448 C 53.9112 41.6873 52.3204 39.0333 52.6778 36.6299 C 53.0377 34.2258 55.3366 32.1675 57.7322 32.5273 C 60.1301 32.8848 61.7241 35.5234 61.3643 37.9283 L 61.3643 37.9283 L 61.3643 37.9283 L 61.3643 37.9283 L 61.3643 37.9283 L 61.3643 37.9283 L 61.3643 37.9283 L 61.3643 37.9283 L 61.3643 37.9283 L 61.3643 37.9283 L 61.3643 37.9283 L 61.3643 37.9283 L 61.3643 37.9283 Z " stroke-width="0.7737809113918992"/>
    </g>
    <path id="ID0.910000785253942" fill="#231F20" stroke="none" stroke-width="48.10734618981264" d="M 48.7213 45.7313 C 50.7695 45.7313 52.6246 46.0686 53.9688 46.6082 C 55.3131 47.1554 56.1448 47.9049 56.1448 48.7294 C 56.1448 49.5539 55.3131 50.3034 53.9688 50.8505 C 52.6246 51.3902 50.7695 51.7275 48.7213 51.7275 C 46.673 51.7275 44.8179 51.3902 43.4737 50.8505 C 42.1294 50.3034 41.2977 49.5539 41.2977 48.7294 C 41.2977 47.9049 42.1294 47.1554 43.4737 46.6082 C 44.8179 46.0686 46.673 45.7313 48.7213 45.7313 L 48.7213 45.7313 L 48.7213 45.7313 L 48.7213 45.7313 L 48.7213 45.7313 L 48.7213 45.7313 L 48.7213 45.7313 L 48.7213 45.7313 L 48.7213 45.7313 Z "/>
  </g>
</svg>