<svg xmlns="http://www.w3.org/2000/svg" xmlns:xlink="http://www.w3.org/1999/xlink" width="107.36808776855469" height="109.31755065917969" viewBox="0.24131131172180176 -0.09475743770599365 107.36808776855469 109.31755065917969" version="1.1" xml:space="preserve">
  <!-- Generator: Sketch 52.4 (67378) - http://www.bohemiancoding.com/sketch -->
  <g>
    <title>Slice 1</title>
    <desc>Created with Sketch.</desc>
    <g id="Page-1" stroke="none" fill-rule="evenodd">
      <g id="sun">
        <path d="M107.1,54 C107,51.5 106.1,49 104.5,47.1 C102,44 98.3,42.8 97.9,38.3 C97.3,32.3 101.7,25.7 96.9,20.7 C95.2,19 91.9,17.9 89.5,17.8 C87.5,17.7 86.8,17.6 85.3,16 C84.2,14.8 83.7,13.7 83.3,12.1 C82.3,7.9 78.2,5.1 73.3,5.7 C69.3,6.2 65.3,9.9 62,5.6 C60.4,3.5 60,1.3 57.2,0.6 C54.3,-0.1 50.8,1.2 48.4,2.7 C46.2,4 44.9,6 42.2,6.3 C39.6,6.6 37.7,5.4 35.2,4.6 C28.6,2.6 24.6,5.9 23.4,12.3 C23,14.4 23,15 21.1,16.3 C19.6,17.3 17.3,17.2 15.6,17 C9.9,16.4 10.7,24.7 10.5,27.3 C10,34.1 2.4,37.7 1.7,40.3 C0.6,44.4 5.5,46.5 3.5,50.7 C0.8,56.4 -1,61.8 3.4,67.3 C5.1,69.5 6.6,71.3 8.1,73.7 C10.1,76.9 9.6,80.7 9.7,84.2 C9.7,89.6 13.2,94.2 18.4,94.5 C23,94.8 26.4,94.5 29.4,98.6 C31.4,101.3 32.7,104.1 35.3,106.4 C40.2,110.7 47.1,108.4 51.8,104.6 C55.3,101.7 54.7,101.2 59.6,102.2 C62.9,102.9 65.4,103.9 68.8,104.6 C75.1,105.7 77.7,103 79.3,101.4 C81.9,98.9 82.4,94.5 84.9,91.9 C87.9,89 87.7,89 91.3,88.6 C93.9,88.3 96.6,87.2 98.6,85.4 C102.8,81.7 104.1,75.7 102.1,70.5 C101.2,68.1 101.2,66.2 102.8,64.1 C103.5,63.2 104.5,62.5 105.1,61.6 C106.5,59.4 107.2,56.7 107.1,54 Z" id="Path" fill="#DF6530" stroke-width="1"/>
        <path d="M104,49.8 C103.3,47.6 101.6,46 100.6,43.9 C99.4,41.3 100.4,38.6 99.7,35.8 C98.4,30 93.6,29.5 90,25.3 C86.4,21 84.2,12.2 79.3,11 C76.7,10.4 75.2,11.3 72.7,10.5 C70.1,9.7 67.7,8 65.1,7 C59.4,4.8 54.6,7.4 48.8,7.2 C43.6,7 38.6,3.5 34.6,7.5 C28.4,13.6 20.3,16.4 20.1,16.5 C17.5,17.7 16,19.7 14.9,22.2 C14,24.2 13.7,26.5 12.5,28.4 C11.4,30.1 9.6,30.9 8.2,32.2 C6,34.4 5,36.7 4.9,39.8 C4.7,44.2 5.7,47.6 4.9,51.9 C4.2,55.3 2.7,58.5 3.7,61.8 C4.2,63.7 4.4,64.9 4.4,66.7 C4.4,68.4 5,69.6 5.1,71.3 C5.5,77.1 8.2,78.1 10.4,80.3 C11.3,81.2 12.1,81.4 13.1,82.1 C15.1,83.4 15.3,84.9 16.3,86.9 C17.4,89.3 18.7,91 20.9,92.4 C23.7,94.2 25.3,97.3 28.3,98.9 C31.1,100.4 34.3,100 37.2,101.1 C40,102.2 41.9,104.7 45.2,104.4 C47.4,104.1 48.3,102.9 50.9,103.2 C52.6,103.4 54.3,104.3 56,104.6 C59.8,105.2 62.7,103 66.4,102.7 C71.3,102.3 77.1,101.5 78.5,96.5 C78.7,95.2 80.3,94.9 80.6,94.9 C83.8,94.7 89.2,94.3 90.9,91.7 C93.9,87.1 91.5,81.9 94.8,78.3 C96.1,76.9 97.9,77 99.2,75.2 C101.4,72.1 101.1,68.3 100.3,64.8 C99.4,61.4 105.5,54.7 104,49.8 Z" id="Path" fill="#EA9B1F" stroke-width="1"/>
        <g id="Page-1_1_">
          <g id="Asset-17">
            <g id="Page-1">
              <g id="earth-b-_space_">
                <path d="M 53.1 9.4 C 58.2 9.4 64 12.7 68.6 14.4 C 73.5 16.1 77.7 15.7 81.7 18.9 C 85.4 21.9 85 25.8 87.6 29.9 C 89.4 32.7 94.3 34.9 96 38.5 C 98.4 43.5 97.4 50 97.4 55 C 97.4 58.4 98.8 64.9 98.1 68.1 C 96.4 75.5 88.8 77.8 84 83.3 C 80.1 87.7 77.6 92.4 72.3 94.9 C 66.5 97.7 61.6 101.7 54.7 101.7 C 51 101.7 45.8 96.7 42.4 95.8 C 37.8 94.7 28.8 96.9 26.6 92.8 C 19.2 78.8 16.8 80.7 13.3 75.5 C 8.6 68.5 10.2 63.6 10.2 54.5 C 10.2 49.8 7.6 45.3 9 41.1 C 10.7 35.8 15.4 31.4 18.8 27.2 C 23.6 21.2 32.5 18.7 39.7 15.8 C 44.5 13.9 47.4 9.4 53.1 9.4 Z " id="Oval" stroke-width="1" fill="#F3BB1B"/>
              </g>
            </g>
          </g>
        </g>
        <g id="Page-1_2_">
          <g id="Asset-17_1_">
            <g id="Page-1_3_">
              <g id="earth-b-_space__1_">
                <circle id="Oval_1_" cx="40.1" cy="40" r="39.9" stroke-width="1" fill="#F9D20D" transform="matrix(1,0,0,1,13,15)"/>
              </g>
            </g>
          </g>
        </g>
      </g>
    </g>
  </g>
</svg>