<svg xmlns="http://www.w3.org/2000/svg" xmlns:xlink="http://www.w3.org/1999/xlink" version="1.1" width="109.04972806545496" height="125.25560727688074" viewBox="-0.28519402430653606 0.006046876448392524 109.04972806545496 125.25560727688074">
  <!-- Exported by Scratch - http://scratch.mit.edu/ -->
  <g id="ID0.5260870358906686">
    <g id="R_Foot">
      <path id="ID0.4096909505315125" fill="#F7941E" d="M 74.0258 122.4019 C 73.6291 122.4019 73.2178 122.292 72.7698 122.0655 C 70.7507 121.0474 69.1273 119.2034 67.9479 116.5847 L 67.4372 115.4517 L 68.5776 114.9598 C 69.0312 114.7651 69.4849 114.5574 69.9435 114.331 C 73.6104 112.5065 76.8529 109.681 79.5799 105.9342 L 80.1281 105.1816 L 80.9988 105.5099 C 83.8341 106.5785 86.3981 107.7563 88.6185 109.009 C 90.0056 109.7917 90.794 110.8881 90.8356 112.0952 C 90.8763 113.2721 90.2076 114.3766 88.9532 115.2025 C 88.1876 115.7059 87.2802 115.9616 86.258 115.9616 C 85.1348 115.9616 83.9905 115.6546 82.9072 115.2383 C 83.3527 115.7425 83.7233 116.2671 84.0711 116.7786 C 84.6681 117.655 84.7577 118.6381 84.3154 119.4754 C 83.8276 120.3958 82.7516 120.9904 81.5738 120.9904 L 81.5738 120.9904 C 80.9776 120.9904 80.3993 120.8364 79.8992 120.5432 C 78.2971 119.6041 76.9262 118.305 75.7574 117.0466 C 76.1728 119.1659 76.2559 120.7688 75.4992 121.7039 C 75.136 122.1543 74.6122 122.4019 74.0258 122.4019 L 74.0258 122.4019 Z " stroke-width="0.8145062026619918"/>
      <path id="ID0.8810942587442696" d="M 80.5687 106.6543 C 83.1189 107.6162 85.6561 108.741 88.019 110.0744 C 90.0846 111.2391 90.1196 112.9732 88.2821 114.1836 C 87.6737 114.5843 86.9797 114.7415 86.2597 114.7415 C 84.629 114.7415 82.8575 113.9384 81.6048 113.3316 C 81.4492 113.2558 81.2985 113.2224 81.1576 113.2224 C 80.3488 113.2224 79.8715 114.3277 80.6925 114.8906 C 81.7098 115.587 82.372 116.452 83.0619 117.4668 C 83.9375 118.7529 82.8053 119.7703 81.5746 119.7703 C 81.2154 119.7703 80.8465 119.6839 80.5182 119.4909 C 78.7605 118.4597 77.2814 116.9439 75.9431 115.4306 C 75.7525 115.2147 75.5359 115.1243 75.3257 115.1243 C 74.7776 115.1243 74.2718 115.7393 74.3695 116.3469 C 74.4729 116.992 75.588 121.181 74.0258 121.181 C 73.8336 121.181 73.6006 121.1175 73.3204 120.9757 C 71.3167 119.9657 69.959 118.0745 69.0614 116.0838 C 69.5338 115.8802 70.0078 115.6635 70.4851 115.4273 C 74.5446 113.4073 77.9199 110.2943 80.5687 106.6543 M 79.6882 103.7115 L 78.5919 105.2167 C 75.9822 108.8029 72.8887 111.5022 69.3969 113.2404 C 68.9921 113.4399 68.5653 113.637 68.0937 113.8398 L 65.8123 114.823 L 66.8329 117.0873 C 68.1312 119.9674 69.9427 122.0093 72.2192 123.157 C 72.8325 123.4665 73.4402 123.6237 74.025 123.6237 C 74.9731 123.6237 75.856 123.2042 76.4489 122.4744 C 76.9678 121.8334 77.2081 121.0499 77.2765 120.1865 C 77.9004 120.6996 78.5675 121.1794 79.2818 121.598 C 79.9692 122.0004 80.7609 122.213 81.5738 122.213 C 83.1988 122.213 84.6991 121.3626 85.3955 120.0472 C 85.8679 119.1529 85.9355 118.1282 85.613 117.1573 C 85.828 117.1744 86.0422 117.1842 86.2589 117.1842 C 87.5246 117.1842 88.6559 116.8617 89.6244 116.2239 C 91.2265 115.1691 92.1127 113.6492 92.0565 112.0536 C 92.0239 111.0982 91.611 109.2941 89.2188 107.9453 C 86.9447 106.6624 84.3236 105.4586 81.4305 104.3671 L 79.6882 103.7115 L 79.6882 103.7115 Z " stroke-width="0.8145062026619918" fill="undefined"/>
    </g>
    <g id="L_Foot">
      <path id="ID0.7786169820465147" fill="#F7941E" d="M 31.037 123.6351 C 30.5206 123.6343 30.0506 123.416 29.7134 123.021 C 28.9868 122.1674 29.061 120.5848 29.2516 119.4062 C 29.3021 119.0893 29.3672 118.7798 29.4405 118.4768 C 27.8832 120.0032 26.132 121.4066 23.9939 122.1812 C 23.484 122.3669 23.041 122.4565 22.641 122.4565 C 21.8624 122.4565 21.2213 122.0973 20.8817 121.471 C 19.91 119.6774 22.0904 116.2402 22.1124 116.206 C 22.3494 115.8443 22.5987 115.5022 22.8601 115.1797 C 21.5928 115.6611 19.9564 116.1669 18.7208 116.1669 C 17.7972 116.1669 17.1008 115.8948 16.6487 115.3589 C 16.3612 115.0176 16.0533 114.4149 16.2146 113.479 C 16.4858 111.9062 18.0391 110.6429 19.607 109.4839 L 19.8742 109.2859 C 21.2906 108.2214 22.8276 107.3523 24.314 106.5109 C 24.8948 106.1827 25.4763 105.8528 26.0497 105.5131 L 27.0109 104.943 L 27.6641 105.8495 C 30.0701 109.1882 33.1636 111.9054 36.8599 113.9254 L 37.7575 114.4165 L 37.4325 115.3858 C 36.5585 117.9906 35.419 120.0342 33.8478 121.8171 C 32.7385 123.0739 31.8718 123.6351 31.037 123.6351 L 31.037 123.6351 Z " stroke-width="0.8145062026619918"/>
      <path id="ID0.8209071131423116" d="M 26.6728 106.5647 C 29.2279 110.1102 32.5202 112.9463 36.2734 114.9981 C 35.5257 117.2282 34.5002 119.2294 32.9307 121.0091 C 32.025 122.0362 31.4263 122.4133 31.0361 122.4133 C 30.0563 122.4133 30.3862 120.0382 30.457 119.6017 C 30.576 118.8507 30.7999 118.1119 30.9922 117.3789 C 31.1412 116.8112 30.659 116.3216 30.1581 116.3216 C 29.9626 116.3216 29.7647 116.3958 29.6002 116.5693 C 27.8848 118.3766 25.9544 120.1726 23.5769 121.0336 C 23.1916 121.1737 22.8838 121.2356 22.641 121.2356 C 20.6976 121.2356 22.8895 117.2534 23.1363 116.8747 C 23.6958 116.0186 24.3751 115.2261 25.1684 114.5835 C 25.7834 114.0858 25.2189 113.1817 24.56 113.1817 C 24.4321 113.1817 24.301 113.2159 24.1739 113.2941 C 23.9776 113.413 20.6398 114.9468 18.7216 114.9468 C 17.8395 114.9468 17.258 114.6226 17.4192 113.6883 C 17.6514 112.3452 19.6974 110.9492 20.6088 110.2633 C 22.4993 108.842 24.6358 107.7726 26.6728 106.5647 M 27.3489 103.3221 L 25.4266 104.4624 C 24.8606 104.798 24.2863 105.123 23.7129 105.4472 C 22.1922 106.3081 20.6202 107.1967 19.1411 108.3085 L 18.8813 108.5016 C 17.5756 109.4676 15.3895 111.0844 15.0124 113.2705 C 14.7582 114.7431 15.3439 115.7034 15.7161 116.1449 C 16.1934 116.7118 17.1032 117.3878 18.7224 117.3878 C 19.1786 117.3878 19.673 117.3316 20.1804 117.2371 C 19.5655 118.6259 19.0091 120.5766 19.8082 122.0509 C 20.3596 123.069 21.4193 123.6766 22.6418 123.6766 C 23.1859 123.6766 23.7651 123.5626 24.4118 123.328 C 25.6987 122.8613 26.8618 122.1812 27.919 121.3985 C 27.9907 122.4101 28.2799 123.2181 28.784 123.811 C 29.3485 124.4732 30.1703 124.8544 31.0378 124.8544 C 32.5878 124.8544 33.7916 123.7263 34.765 122.6235 C 36.4257 120.7403 37.6768 118.5004 38.5915 115.7735 L 39.2423 113.8333 L 37.4471 112.8527 C 33.913 110.9198 30.9547 108.3224 28.657 105.1336 L 27.3489 103.3221 L 27.3489 103.3221 Z " stroke-width="0.8145062026619918" fill="undefined"/>
    </g>
    <g id="Body_1_">
      <g id="Body">
        <path id="ID0.08855116786435246" fill="#898DC5" d="M 55.5544 117.6468 C 54.9468 117.6468 54.3367 117.6306 53.7267 117.598 L 53.3927 117.5801 C 48.4112 117.3137 43.7066 117.0612 38.787 114.8629 C 38.3097 114.6495 37.8519 114.4076 37.395 114.1665 C 32.8696 111.7702 28.9942 107.9534 26.1173 103.0949 C 19.2902 91.5607 21.0422 77.7507 30.9229 65.2049 L 31.0704 65.0183 L 31.3514 64.8587 C 31.4059 64.8106 31.3823 64.7178 31.309 64.6355 C 31.2626 64.5826 31.2064 64.5467 31.1697 64.5467 C 31.1445 64.5467 31.1046 64.5598 31.0622 64.5826 C 26.0628 67.2305 21.9544 71.075 18.1344 76.6813 L 18.013 76.8596 C 16.2268 79.4799 14.3787 82.1898 12.1249 84.6048 C 10.5228 86.3217 7.5181 88.1479 5.1055 88.1479 C 4.0589 88.1479 3.1621 87.8017 2.5121 87.1468 C 1.7237 86.3519 1.3303 85.148 1.3425 83.5679 C 1.3914 77.6969 5.8549 71.5564 10.2149 66.3232 C 13.7287 62.1073 17.9193 58.6505 21.9715 55.3078 C 24.0021 53.6324 26.1002 51.9015 28.0811 50.0998 L 28.077 50.0502 C 27.3025 49.0312 26.4912 48.0172 25.7044 47.034 C 22.9171 43.5496 20.0354 39.9462 18.2859 35.5886 C 15.8831 29.6044 16.7978 22.6428 20.863 15.9867 C 26.3519 6.9994 37.9138 1.6351 51.7938 1.6351 C 52.0757 1.6351 52.3567 1.6375 52.6377 1.6416 C 63.5578 1.82 75.9024 3.3635 84.6616 13.4642 C 89.4924 19.0346 91.4546 26.4107 89.9111 33.1964 C 88.4417 39.6554 83.6492 44.9733 78.6896 49.7578 C 78.6009 49.8441 78.6049 49.8832 78.6058 49.9035 L 78.6245 50.0836 L 78.6033 50.1984 C 80.3219 51.4218 82.2572 52.6835 84.304 54.0176 C 94.0178 60.3496 106.1059 68.2308 107.1086 80.1861 C 107.2405 81.7564 106.8927 83.0026 106.0758 83.8913 C 105.2768 84.7603 104.0566 85.2205 102.549 85.2205 C 102.549 85.2205 102.549 85.2205 102.5482 85.2205 C 100.4777 85.2205 98.2516 84.3792 96.9729 83.6583 C 93.9486 81.9527 91.5344 79.3968 89.1992 76.924 L 89.1129 76.8328 C 88.3823 76.059 87.6574 75.2648 86.9284 74.4674 C 83.7689 71.0074 80.506 67.4334 76.4229 65.2839 C 86.201 77.7075 88.1477 90.0644 82.223 102.0433 C 79.6426 107.2619 75.4821 111.4623 70.1895 114.1917 C 65.8058 116.452 60.7453 117.6468 55.5544 117.6468 L 55.5544 117.6468 Z " stroke-width="0.8145062026619918"/>
        <path id="ID0.3412396004423499" d="M 51.7938 2.8569 C 52.0691 2.8569 52.3436 2.8593 52.6173 2.8634 C 64.3771 3.0556 75.6051 4.8858 83.7388 14.2648 C 88.1632 19.3669 90.2206 26.326 88.7195 32.9252 C 87.2737 39.284 82.3818 44.4985 77.8417 48.8781 C 77.4736 49.2348 77.3498 49.6421 77.3913 50.0322 C 77.3164 50.4248 77.4296 50.8622 77.8385 51.153 C 87.7217 58.2017 104.7335 66.4804 105.8909 80.2887 C 106.1271 83.0947 104.516 83.9996 102.549 83.9996 C 100.8312 83.9996 98.8413 83.3097 97.574 82.5946 C 94.6735 80.959 92.2667 78.3925 90.0015 75.9938 C 85.8826 71.6346 81.968 66.6384 76.4856 63.9448 C 76.2934 63.8503 76.106 63.808 75.9325 63.808 C 75.0635 63.8088 74.5177 64.8603 75.1604 65.6618 C 83.7111 76.3351 87.4969 88.6211 81.1275 101.5009 C 78.5455 106.7235 74.4697 110.6095 69.6291 113.1052 C 65.3668 115.3027 60.5107 116.4243 55.5536 116.4243 C 54.9672 116.4243 54.3799 116.4088 53.791 116.377 C 48.6409 116.1001 44.1016 115.8989 39.2847 113.747 C 38.809 113.5336 38.3529 113.29 37.8967 113.049 C 33.3664 110.6494 29.7737 106.8726 27.1681 102.4718 C 19.8456 90.1011 23.5451 76.546 31.8824 65.9607 C 31.8938 65.9542 31.9052 65.9461 31.9166 65.942 C 33.2956 65.2187 32.4501 63.3242 31.1697 63.3242 C 30.9531 63.3242 30.7242 63.3779 30.4912 63.5017 C 24.8296 66.5007 20.7009 70.7451 17.1252 75.9922 C 15.2836 78.6923 13.4713 81.3712 11.2322 83.7699 C 9.8859 85.2132 7.1467 86.9245 5.1063 86.9245 C 3.6476 86.9245 2.5455 86.0497 2.5659 83.5769 C 2.6148 77.7255 7.6891 71.2648 11.1549 67.1043 C 16.3881 60.8261 23.0801 56.3276 29.0569 50.8647 C 29.2687 50.6708 29.3363 50.4387 29.3175 50.2114 C 29.4079 50.0184 29.4185 49.7952 29.2719 49.6022 C 25.7467 44.9188 21.6367 40.6516 19.4213 35.1325 C 16.8955 28.8437 18.496 22.2087 21.9072 16.622 C 28.0396 6.58 40.6489 2.8569 51.7938 2.8569 M 51.7938 0.4133 L 51.7938 0.4133 C 37.4846 0.4133 25.5325 5.996 19.8212 15.3481 C 15.5499 22.3423 14.6027 29.6916 17.1537 36.0423 C 18.9701 40.5669 21.9096 44.2419 24.7522 47.7956 C 25.3118 48.4953 25.8836 49.2104 26.4431 49.928 C 24.7278 51.4495 22.9367 52.927 21.1953 54.363 C 17.0999 57.7415 12.8645 61.2358 9.2782 65.5388 C 4.7797 70.9382 0.1745 77.3011 0.1224 83.5557 C 0.1069 85.4738 0.62 86.9709 1.6463 88.0061 C 2.5301 88.8972 3.7274 89.368 5.1072 89.368 C 8.2218 89.368 11.5458 87.0165 13.0201 85.4364 C 15.3374 82.9546 17.2115 80.2048 19.0238 77.5463 L 19.1444 77.3687 C 21.5659 73.815 24.1006 70.9944 26.9115 68.7545 C 19.4685 80.5217 18.7461 93.039 25.0666 103.7172 C 28.0583 108.7704 32.0999 112.7435 36.754 115.209 L 36.8232 115.2457 C 37.2842 115.49 37.7607 115.7425 38.2869 115.9779 C 43.415 118.2691 48.2304 118.5273 53.3276 118.8002 L 53.6607 118.8181 C 54.2895 118.8515 54.9264 118.8686 55.5544 118.8686 C 60.9383 118.8686 66.1935 117.6273 70.7498 115.2774 C 76.2755 112.4283 80.6225 108.0389 83.3193 102.5842 C 88.4197 92.2709 87.7812 81.3345 81.5363 70.6034 C 83.0986 72.0826 84.5736 73.6993 86.0283 75.2917 C 86.7451 76.0769 87.4863 76.8881 88.2267 77.6725 L 88.3122 77.7629 C 90.5985 80.1836 93.1887 82.9269 96.3742 84.7229 C 97.8485 85.5545 100.2447 86.4423 102.5498 86.4423 C 104.898 86.4423 106.2534 85.5048 106.9766 84.718 C 107.704 83.9271 108.5283 82.4814 108.3263 80.0834 C 107.2739 67.5343 94.9081 59.4724 84.9719 52.9946 C 83.3209 51.9186 81.7432 50.8899 80.3016 49.8954 C 85.1177 45.1713 89.6399 39.9006 91.1035 33.4676 C 92.7325 26.3049 90.6702 18.5271 85.5861 12.6643 C 76.51 2.2004 63.8477 0.6031 52.6572 0.4207 C 52.3705 0.4158 52.083 0.4133 51.7938 0.4133 L 51.7938 0.4133 L 51.7938 0.4133 Z " stroke-width="0.8145062026619918" fill="undefined"/>
      </g>
      <path id="Belly" fill="#FFFFFF" d="M 77.9688 13.6955 C 67.2817 2.7534 53.7943 14.4896 53.7943 14.4896 C 53.7943 14.4896 40.3077 2.7526 29.6197 13.6955 C 13.6953 29.9986 38.1305 50.3515 38.1305 56.058 C 38.1305 61.7644 28.1528 72.2821 28.1528 90.4757 C 28.1528 102.3659 33.9089 109.5189 37.8975 113.0498 C 38.3545 113.2917 38.8098 113.5352 39.2855 113.7478 C 44.1025 115.9005 48.6417 116.1017 53.7918 116.3778 C 59.3541 116.6751 64.8626 115.5633 69.6299 113.1052 C 73.6202 109.5938 79.4365 102.427 79.4365 90.4749 C 79.4365 72.2813 69.4588 61.7636 69.4588 56.0571 C 69.4588 50.3507 93.894 29.9986 77.9688 13.6955 Z " stroke-width="0.8145062026619918"/>
    </g>
    <g id="Beak_1_">
      <g id="Beak">
        <path id="ID0.08505663182586432" fill="#F7941E" d="M 52.9618 56.475 C 45.0676 56.475 36.2808 45.976 36.2808 38.8613 C 36.2808 32.8673 44.6865 24.5276 52.9618 24.5276 C 61.5704 24.5276 69.6755 32.6026 69.6755 38.8613 C 69.6763 45.0206 61.0849 56.475 52.9618 56.475 L 52.9618 56.475 Z " stroke-width="0.8145062026619918"/>
        <path id="ID0.6856351788155735" d="M 52.9618 25.7494 C 60.7151 25.7494 68.4537 33.1003 68.4537 38.8613 C 68.4537 44.6223 60.1751 55.2532 52.9618 55.2532 C 45.7486 55.2532 37.5025 45.1281 37.5025 38.8613 C 37.5033 33.7706 45.2086 25.7494 52.9618 25.7494 M 52.9618 23.3058 C 44.0805 23.3058 35.059 32.3558 35.059 38.8613 C 35.059 46.4696 44.4893 57.6967 52.9618 57.6967 C 61.8571 57.6967 70.8973 45.6127 70.8973 38.8613 C 70.8981 31.301 61.6787 23.3058 52.9618 23.3058 L 52.9618 23.3058 Z " stroke-width="0.8145062026619918" fill="undefined"/>
      </g>
      <path id="Mouth" fill="#231F20" d="M 43.9705 47.267 C 46.6844 49.524 49.7372 51.2678 53.3096 51.5 C 56.439 51.7036 59.7255 49.269 61.9613 47.346 C 63.0308 46.4264 61.5858 44.6972 60.5042 45.4588 C 58.5819 46.8117 56.9269 48.5979 54.735 49.3464 C 51.2098 50.5511 48.1391 47.0243 45.4065 45.3904 C 44.4429 44.8145 42.9328 46.4036 43.9705 47.267 L 43.9705 47.267 Z " stroke-width="0.8145062026619918"/>
    </g>
    <path id="L_Eye" fill="#231F20" d="M 36.1455 20.5015 C 36.9975 20.5015 37.7689 20.943 38.3276 21.6548 C 38.8864 22.3675 39.2325 23.3523 39.2325 24.438 C 39.2325 25.5237 38.8864 26.5085 38.3276 27.2212 C 37.7689 27.9331 36.9975 28.3745 36.1455 28.3745 C 35.2936 28.3745 34.5222 27.9331 33.9635 27.2212 C 33.4047 26.5085 33.0586 25.5237 33.0586 24.438 C 33.0586 23.3523 33.4047 22.3675 33.9635 21.6548 C 34.5222 20.943 35.2936 20.5015 36.1455 20.5015 Z " stroke-width="0.8145062026619918"/>
    <path id="R_Eye" fill="#231F20" d="M 69.1835 20.5015 C 70.0355 20.5015 70.8077 20.943 71.3672 21.6548 C 71.926 22.3675 72.2722 23.3523 72.2722 24.438 C 72.2722 25.5237 71.926 26.5085 71.3672 27.2212 C 70.8077 27.9331 70.0355 28.3745 69.1835 28.3745 C 68.3316 28.3745 67.5594 27.9331 66.9999 27.2212 C 66.4411 26.5085 66.0949 25.5237 66.0949 24.438 C 66.0949 23.3523 66.4411 22.3675 66.9999 21.6548 C 67.5594 20.943 68.3316 20.5015 69.1835 20.5015 Z " stroke-width="0.8145062026619918"/>
  </g>
</svg>