<svg xmlns="http://www.w3.org/2000/svg" xmlns:xlink="http://www.w3.org/1999/xlink" version="1.1" width="67.95114636421204" height="80.9808247089386" viewBox="-0.41936585307121277 -0.44581030309200287 67.95114636421204 80.9808247089386">
  <!-- Exported by Scratch - http://scratch.mit.edu/ -->
  <g id="ID0.7389192478731275">
    <path id="ID0.0158006614074111" d="M 36.1897 0.2852 C 38.312 0.2852 40.5 -0.1658 42.5565 0.2852 C 48.3301 2.2748 56.4212 2.1772 60.0652 7.4478 C 62.5588 10.8073 58.864 16.2265 56.3512 19.6508 C 54.6385 21.9842 49.6958 22.813 48.3927 23.0995 C 47.7242 23.3924 52.2754 20.3925 51.8414 20.9772 C 51.1177 21.9301 48.3863 26.0929 45.7399 26.8134 C 44.0368 27.2793 42.8823 22.8607 41.4954 23.6301 C 24.3984 23.2587 16.4219 54.8698 34.0674 58.6474 C 41.5336 54.4411 52.7784 54.0134 58.4735 48.0361 C 64.4052 48.8256 65.6945 55.0778 66.9625 59.7085 C 67.4549 61.5443 63.1042 61.7958 62.1874 63.6878 C 61.1953 66.3767 63.9383 70.4801 61.6569 72.4421 C 56.73 76.676 48.589 76.5561 43.6176 79.87 C 37.6371 80.1725 31.5918 79.87 25.5784 79.87 C 9.9246 77.1313 1.149 67.5132 0.1112 50.1583 C 0.1112 46.9749 0.1112 43.7916 0.1112 40.6082 C 7.6697 22.6994 16.1131 5.6757 36.1897 0.2852 Z M 23.4561 8.7742 C 16.0908 13.5504 13.6375 23.4836 8.6003 27.8746 C 5.9039 58.3015 19.9841 76.6453 46.801 68.1976 C 52.9078 66.2748 61.3003 60.8737 62.718 56.5251 C 59.6036 48.7364 54.8635 55.7176 49.9844 57.5863 C 39.0346 56.8933 37.7071 63.9414 28.7618 60.7697 C 15.8563 56.193 15.1379 26.789 23.4561 18.3244 C 32.7867 8.8304 42.2795 16.425 55.2901 15.141 C 54.4995 11.8748 58.2029 13.1015 57.4123 9.8353 C 52.078 0.9006 32.1691 3.1237 23.4561 8.7742 Z " stroke-width="1.0611317157745361" fill="undefined"/>
    <path id="ID0.7828714372590184" fill="#FF9400" d="M 57.4123 9.8353 C 58.2029 13.1015 54.4995 11.8748 55.2901 15.141 C 42.2795 16.425 32.7867 8.8304 23.4561 18.3244 C 15.1379 26.789 15.8563 56.193 28.7618 60.7697 C 37.7071 63.9414 39.0346 56.8933 49.9844 57.5863 C 54.8635 55.7176 59.6036 48.7364 62.718 56.5251 C 61.3003 60.8737 52.9078 66.2748 46.801 68.1976 C 19.9841 76.6453 5.9039 58.3015 8.6003 27.8746 C 13.6375 23.4836 16.0908 13.5504 23.4561 8.7742 C 32.1691 3.1237 52.078 0.9006 57.4123 9.8353 Z " stroke-width="1.0611317157745361"/>
  </g>
</svg>