<svg xmlns="http://www.w3.org/2000/svg" xmlns:xlink="http://www.w3.org/1999/xlink" width="67.43586730957031" height="116.22274780273438" viewBox="19.791393280029297 3.840473175048828 67.43586730957031 116.22274780273438" version="1.1" xml:space="preserve">
  <defs/>
  <g>
    <title>saxophone-a</title>
    <desc>Created with Sketch.</desc>
    <g id="music" stroke="none" fill-rule="evenodd">
      <g id="saxophone-a" fill-rule="nonzero">
        <g id="Group">
          <path d="M 54.65 80.15 C 54.6 79.05 54.55 78 54.55 76.95 C 54.25 76.45 53.65 76.25 53.4 75.7 C 52.85 74.4 52.75 73.1 53.5 71.9 C 54.05 71 54.3 70.15 54.2 69.1 C 54.1 68.3 54.1 67.5 54.1 66.7 C 53.75 66.3 53.4 66 53.15 65.6 C 52.25 64.1 52.2 62.55 53.1 61.05 C 53.5 60.4 53.6 59.85 53.55 59.15 C 53.45 58.35 53.4 57.55 53.35 56.8 C 53.25 56.7 53.25 56.6 53.2 56.55 C 51.7 55.3 51.65 53.6 52.35 52 C 52.65 51.25 52.85 50.6 52.7 49.8 C 52.65 49.45 52.65 49.1 52.65 48.75 C 52.6 47.95 52.4 47.25 51.85 46.6 C 50.8 45.4 50.8 43.95 51.55 42.6 C 51.85 42.05 52 41.55 51.9 40.9 C 51.75 39.9 51.7 38.9 51.6 37.85 C 50.5 37.2 49.9 36.2 49.85 34.95 C 49.8 33.65 50.05 32.8 51 31.85 C 50.95 30.8 50.9 29.65 50.8 28.6 C 50.65 28.5 50.55 28.4 50.5 28.3 C 49.1 27.15 48.8 25.4 49.85 23.95 C 50.3 23.35 50.5 22.8 50.45 22.1 C 50.4 21.75 50.45 21.4 50.5 21 C 50.55 20.4 50.4 19.9 50.05 19.35 C 49.1 17.95 49.4 16.25 50.7 15.15 C 51.15 14.75 51.4 14.35 51.55 13.8 C 52 12 52.65 10.3 53.6 8.7 C 54.1 7.85 54.75 7.05 55.45 6.35 C 56.75 5 58.35 4.45 60.15 4.35 C 62.1 4.25 63.75 4.95 65.35 5.85 C 66.7 6.6 67.9 7.5 69.05 8.5 C 69.5 8.9 70.05 9.2 70.55 9.45 C 70.95 9.65 71.4 9.9 71.85 9.4 C 72 9.25 72.3 9.3 72.55 9.3 C 73.55 9.3 74.55 9.3 75.55 9.3 C 76 9.3 76.4 9.3 76.8 9.65 C 77 9.85 77.35 9.8 77.6 9.8 C 79.35 9.8 81.1 9.85 82.85 9.85 C 83.95 9.85 85.1 9.9 86.2 10.05 C 86.4 10.1 86.6 10.1 86.7 10.3 C 86.8 10.55 86.6 10.65 86.5 10.85 C 86 11.65 85.4 12.35 84.75 13 C 84.25 13.5 83.7 14 83.3 14.6 C 82.95 15.1 82.4 15.35 81.8 15.55 C 80.95 15.8 80.1 15.85 79.2 15.85 C 78.4 15.85 77.6 15.85 76.85 15.85 C 76.5 16 76.45 16.4 76.2 16.6 C 75.9 16.9 75.6 17.1 75.15 16.9 C 74.9 16.8 74.6 16.9 74.35 16.9 C 73.65 16.95 73 17 72.3 17 C 71.8 17 71.25 16.95 70.85 16.6 C 70.7 16.5 70.5 16.4 70.3 16.35 C 68.25 15.95 66.35 15.1 64.5 14.2 C 64.3 14.1 64.05 14 63.85 13.9 C 63.25 13.6 62.6 13.6 62 13.55 C 61.35 13.5 60.85 13.8 60.6 14.4 C 60.25 15.25 59.9 16.1 59.85 17.05 C 59.75 19.7 59.85 22.4 60.05 25.05 C 60.3 28.5 60.85 31.85 61.3 35.3 C 61.55 37.05 61.85 38.75 62.1 40.5 C 62.45 42.85 62.85 45.25 63.25 47.6 C 63.55 49.45 63.85 51.3 64.15 53.15 C 64.45 55.2 64.7 57.25 65 59.3 C 65.25 61.2 65.5 63.1 65.8 65 C 66.1 67 66.35 69.05 66.65 71.05 C 66.95 73.05 67.25 75 67.45 77 C 67.65 78.85 68.15 80.7 68.4 82.55 C 68.75 85.45 69.1 88.35 69.25 91.25 C 69.35 92.75 69.4 94.3 69.55 95.8 C 69.75 98.35 69.55 100.9 69.25 103.45 C 69.25 103.55 69.25 103.6 69.2 103.7 C 68.65 105.35 68.4 107.1 67.75 108.75 C 66.85 110.95 65.5 112.85 63.75 114.5 C 62.45 115.75 60.95 116.6 59.3 117.25 C 58.6 117.5 57.95 117.9 57.2 118.15 C 56.45 118.4 55.65 118.6 54.9 118.8 C 54.15 119 53.35 119.1 52.55 119.3 C 50.95 119.65 49.35 119.55 47.75 119.55 C 44.5 119.5 41.45 118.55 38.6 117.1 C 38.2 116.9 37.8 116.55 37.45 116.25 C 35.75 114.8 34.5 113 33.6 110.95 C 32.75 109 32.1 107 31.7 104.9 C 31.3 102.95 31 100.95 30.8 99 C 30.6 96.35 30.35 93.65 29.9 91.05 C 29.65 89.5 29.25 88 28.8 86.5 C 28.45 85.2 27.7 84.1 26.9 83.05 C 25.8 82.85 24.75 82.7 23.75 82.15 C 21.85 81.15 20.8 79.55 20.4 77.45 C 20.1 75.9 20.45 74.55 21.1 73.15 C 21.65 71.95 22.45 70.9 23.2 69.8 C 24.7 67.7 26.4 65.85 28.55 64.35 C 30.9 62.7 33.3 61.15 36 60 C 37.9 59.2 39.85 58.6 41.85 58.3 C 44.25 57.95 46.65 58.1 48.95 58.9 C 49.3 59 49.6 59.15 49.85 59.4 C 50.85 60.5 51.7 61.7 51.95 63.25 C 52.1 64.3 52.1 65.3 51.7 66.3 C 51.3 67.2 51.35 68.15 51.45 69.1 C 51.7 71.2 51.85 73.3 51.75 75.45 C 51.65 77.5 51.7 79.6 51.6 81.65 C 51.55 83.35 51.4 85.05 51.35 86.8 C 51.3 88.3 51.25 89.85 51.2 91.35 C 51.2 91.9 51.1 92.45 51.05 93 C 50.85 94.65 50.85 96.25 51.55 97.85 C 51.85 98.5 52.15 98.6 52.75 98.2 C 53.25 97.9 53.4 97.4 53.6 96.95 C 53.55 96.6 53.3 96.4 53.1 96.15 C 52.1 94.75 52.05 93.3 52.75 91.75 C 53.05 91.15 53.4 90.6 53.9 90.25 C 54.25 89.95 54.35 89.65 54.4 89.25 C 54.5 88.45 54.55 87.65 54.55 86.8 C 53.95 86.2 53.35 85.55 53.2 84.65 C 53.1 83.8 52.95 83 53.2 82.15 C 53.4 81.4 54 80.75 54.65 80.15 Z M 70.05 13.25 C 69.9 13.15 69.8 13 69.9 12.85 C 70 12.7 70.15 12.65 70.3 12.65 C 70.8 12.65 71.25 13 71.85 12.9 C 72.1 12.2 71.85 11.55 71.65 10.9 C 69.95 10.6 68.6 9.7 67.35 8.65 C 66.9 8.25 66.45 7.9 65.95 7.55 C 64 6.25 62 5.35 59.6 5.45 C 58.7 5.5 57.95 5.7 57.25 6.2 C 56.85 6.45 56.5 6.8 56.15 7.1 C 54.7 8.5 53.9 10.25 53.15 12.05 C 52.8 12.9 52.55 13.75 52.5 14.65 C 53.85 15.6 54.25 16.5 54.05 18.05 C 53.85 19.5 52.9 20.15 51.6 20.4 C 51.55 21.2 51.5 22 51.55 22.85 C 52.75 23.4 53.65 24.2 53.7 25.6 C 53.7 26.9 53.3 28.05 52 28.6 C 52 29.6 52 30.55 52.15 31.45 C 53.15 32.1 54.1 32.7 54.25 33.95 C 54.45 35.5 53.95 36.85 52.75 37.9 C 52.75 39 52.9 40.05 53.1 41.1 C 54.85 41.6 55.6 42.65 55.5 44.35 C 55.5 44.65 55.45 45 55.45 45.3 C 55.4 46.05 55 46.65 54.4 47.1 C 54.2 47.25 53.85 47.3 53.7 47.65 C 53.7 48.6 53.75 49.55 54 50.5 C 54.3 50.75 54.65 50.75 54.95 50.85 C 55.85 51.1 56.5 51.6 56.9 52.5 C 57.25 53.25 57.25 54 57.05 54.7 C 56.75 55.8 56.2 56.7 54.9 56.85 C 54.8 56.85 54.7 56.95 54.6 57.05 C 54.65 58 54.65 58.95 54.85 59.85 C 56.8 60.55 57.75 61.65 57.8 63.1 C 57.85 65 57.15 66 55.2 66.8 C 55.25 67.75 55.3 68.7 55.4 69.65 C 55.4 69.9 55.35 70.15 55.5 70.35 C 55.7 70.55 55.95 70.5 56.15 70.55 C 57.7 71 59 72.65 58.55 74.7 C 58.25 76.2 57.45 76.85 55.85 76.9 C 55.75 77.9 55.8 78.85 55.85 79.85 C 56.35 80.15 56.9 80.15 57.3 80.45 C 58.95 81.65 59.4 84.7 57.8 86.45 C 57.45 86.85 57.05 87.2 56.5 87.2 C 56.25 87.2 56.05 87.3 55.8 87.35 C 55.5 88.2 55.55 89.05 55.55 89.9 C 56.3 89.75 56.9 90 57.4 90.55 C 57.65 90.85 57.85 91.2 58 91.55 C 58.75 93.4 58.35 95.05 57.1 96.6 C 56.6 97.2 55.95 97.6 55.1 97.35 C 55 97.3 54.85 97.35 54.75 97.4 C 54.35 98.3 53.9 98.85 53.45 99.2 C 52.6 99.8 51.55 99.75 50.8 99.05 C 50.5 98.75 50.3 98.35 50.2 97.9 C 49.9 96.75 49.9 95.6 49.95 94.45 C 50 91.85 50.15 89.25 50.25 86.65 C 50.4 83.85 50.75 81.1 50.7 78.3 C 50.65 76.05 50.7 73.8 50.65 71.6 C 50.65 70.95 50.55 70.3 50.25 69.4 C 50.1 69.7 50 69.85 49.9 69.95 C 49.7 70.25 49.45 70.5 49.15 70.7 C 49 70.8 48.85 70.8 48.7 70.75 C 48.5 70.65 48.45 70.4 48.55 70.2 C 48.6 70 48.75 69.85 48.85 69.7 C 49.1 69.3 49.4 68.9 49.65 68.5 C 50.5 67 51.15 65.4 50.95 63.6 C 50.95 63.5 51 63.25 50.75 63.25 C 50.5 63.35 50.55 63.55 50.5 63.75 C 50.25 65.1 49.75 66.35 48.95 67.45 C 48.1 68.6 47.2 69.7 46.2 70.8 C 43.95 73.3 41.3 75.3 38.35 76.8 C 37.05 77.45 35.75 78.05 34.45 78.65 C 32.8 79.4 31.1 80 29.35 80.3 C 28.6 80.45 27.85 80.55 27.1 80.6 C 26.7 80.65 26.3 80.65 25.9 80.55 C 24.8 80.3 23.7 80.2 22.7 79.6 C 22.6 79.55 22.45 79.4 22.3 79.55 C 23.4 81.05 24.95 81.65 26.75 81.8 C 27.65 81.85 28.6 81.85 29.5 81.75 C 29.85 81.7 30.2 81.65 30.55 81.95 C 30.15 82.95 29.2 82.8 28.45 83.1 C 28.45 83.4 28.65 83.55 28.75 83.75 C 29.45 84.9 29.9 86.1 30.25 87.4 C 31.05 90.2 31.4 93.1 31.7 96 C 31.9 98.4 32.15 100.75 32.55 103.15 C 32.75 104.5 33.1 105.8 33.4 107.1 C 34 109.55 35.25 111.7 36.7 113.7 C 37.6 114.9 38.7 115.9 40.1 116.45 C 41.2 116.9 42.35 117.3 43.45 117.75 C 43.9 117.9 44.35 118 44.85 118.1 C 46.4 118.35 47.95 118.35 49.5 118.35 C 50.8 118.35 52.1 118.15 53.4 117.9 C 55.4 117.5 57.35 116.85 59.15 116 C 61.75 114.75 63.95 113.1 65.3 110.5 C 66.1 108.95 66.9 107.35 67.25 105.65 C 67.45 104.6 67.65 103.55 67.85 102.5 C 68.45 99 68.3 95.5 68.1 92 C 68 90 67.75 88.05 67.55 86.05 C 67.25 83.45 66.8 80.85 66.4 78.25 C 66.05 76.2 65.7 74.15 65.4 72.1 C 65.15 70.3 64.95 68.55 64.7 66.75 C 64.4 64.4 64 62.1 63.75 59.75 C 63.4 56.85 62.95 54 62.5 51.1 C 62.35 50.15 62.15 49.2 62 48.25 C 61.4 44.3 60.75 40.35 60.15 36.4 C 59.75 33.65 59.35 30.9 59.05 28.1 C 58.95 27 58.9 25.85 58.8 24.75 C 58.5 22.3 58.55 19.8 58.6 17.35 C 58.65 15.8 59.15 14.35 60.15 13.15 C 60.45 12.75 60.85 12.55 61.35 12.5 C 62.85 12.3 64.2 12.7 65.5 13.4 C 66.8 14.05 68.1 14.55 69.5 15 C 70.1 15.2 70.65 15.3 71.3 15.1 C 71.05 14.85 70.75 14.75 70.45 14.7 C 70 14.6 69.6 14.5 69.2 14.3 C 68.8 14.15 68.4 13.9 68.3 13.5 C 68.4 13.25 68.55 13.2 68.7 13.25 C 69 13.35 69.3 13.45 69.6 13.5 C 70.15 13.85 70.85 13.95 71.45 14.15 C 71.6 14.2 71.75 14.05 71.7 13.75 C 71.1 13.7 70.6 13.4 70.05 13.25 Z M 48.65 65.85 C 47.95 65.5 47.3 65.25 46.55 65.3 C 46.35 65.3 46.15 65.3 45.95 65.3 C 45.8 65.3 45.65 65.2 45.6 65 C 45.55 64.85 45.65 64.7 45.8 64.6 C 46 64.45 46.25 64.4 46.45 64.4 C 47.3 64.35 48.1 64.6 48.9 64.95 C 48.95 65 49.05 64.95 49.15 64.95 C 49.2 64.85 49.25 64.75 49.25 64.6 C 49.25 64.45 49.4 64.3 49.2 64.1 C 48.8 63.9 48.25 63.7 47.7 63.6 C 46.85 63.45 46.05 63.4 45.2 63.4 C 44.9 63.4 44.65 63.35 44.55 63.05 C 44.6 62.85 44.75 62.7 44.95 62.65 C 45.7 62.45 46.45 62.45 47.2 62.6 C 47.85 62.7 48.5 62.85 49.15 62.95 C 49.35 62.75 49.45 62.55 49.25 62.4 C 49.15 62.3 49 62.25 48.85 62.2 C 47.35 61.65 45.85 61.3 44.3 61.65 C 44.05 61.7 43.75 61.85 43.55 61.55 C 43.5 61.35 43.6 61.25 43.7 61.1 C 43.95 60.75 44.35 60.7 44.75 60.65 C 45.95 60.5 47.15 60.6 48.3 60.95 C 48.6 61.05 48.85 61.3 49.15 61.15 C 49.25 60.95 49.15 60.8 49.05 60.7 C 48.6 60.1 48 59.8 47.35 59.7 C 46.55 59.55 45.8 59.4 45 59.35 C 41.8 59.15 38.85 60.1 35.95 61.3 C 34.05 62.1 32.3 63.25 30.55 64.35 C 28.9 65.4 27.35 66.6 26.05 68.1 C 25.25 69 24.45 70 23.7 71 C 23 71.95 22.35 73 21.85 74.05 C 21.45 74.95 21.3 75.9 21.45 76.85 C 21.55 77.55 21.7 77.7 22.35 78 C 22.35 77.85 22.35 77.7 22.35 77.5 C 22.15 75.75 22.75 74.2 23.7 72.75 C 23.95 72.4 24.2 72.05 24.6 71.85 C 24.65 71.8 24.8 71.8 24.8 71.85 C 24.9 71.95 24.95 72.05 24.95 72.15 C 24.95 72.3 24.85 72.45 24.8 72.6 C 24.5 73.15 24.25 73.65 23.95 74.2 C 23.25 75.55 23.1 77 23.4 78.5 C 23.5 78.9 23.7 79.15 24.1 79.1 C 24.15 79 24.2 78.95 24.2 78.9 C 23.85 77.45 24.3 76.15 24.9 74.85 C 25.05 74.5 25.25 74.25 25.6 74.1 C 25.75 74.05 25.9 74 26.05 74.2 C 26.15 74.5 25.9 74.8 25.8 75.05 C 25.5 75.75 25.25 76.45 25.1 77.2 C 24.95 77.95 24.95 78.7 25.4 79.4 C 25.65 79.5 25.9 79.55 26.1 79.3 C 26.05 79.15 26 79.05 26 78.85 C 25.95 77.85 26.1 76.95 26.7 76.15 C 26.85 76 27 75.85 27.2 75.9 C 27.45 76 27.4 76.2 27.35 76.4 C 27.25 76.75 27.1 77.1 27.05 77.4 C 26.9 78.05 26.85 78.75 27.05 79.35 C 27.35 79.45 27.65 79.55 27.85 79.25 C 27.65 77.7 27.7 77.5 28.75 77 C 28.7 77.8 28.45 78.55 28.65 79.25 C 29.2 79.4 29.65 79 30.15 79 C 31.25 79 32.25 78.6 33.25 78.15 C 35 77.3 36.75 76.45 38.5 75.55 C 39.35 75.1 40.15 74.55 40.9 73.95 C 41.6 73.35 42.35 72.8 43.05 72.2 C 43.5 71.8 43.95 71.4 44.4 71 C 45.35 70 46.3 68.95 47.25 67.95 C 47.45 67.7 47.75 67.55 47.8 67.2 C 47.75 67 47.55 66.95 47.45 66.9 C 47.2 66.8 46.9 66.8 46.65 66.7 C 46.45 66.65 46.4 66.5 46.4 66.35 C 46.4 66.25 46.5 66.15 46.6 66.1 C 46.75 66.05 46.9 66 47.05 66 C 47.55 65.9 47.95 66.25 48.3 66.45 C 48.5 66.3 48.55 66.15 48.65 65.85 Z M 53.25 94.1 C 53.15 94.9 53.55 95.6 54.35 96.05 C 54.85 96.35 55.35 96.25 55.75 95.8 C 56.75 94.65 56.7 93 56.1 91.75 C 55.95 91.4 55.65 91.2 55.2 91.25 C 54.55 91.35 53.95 91.6 53.65 92.25 C 53.45 92.8 53.25 93.35 53.25 94.1 Z M 57.05 83.65 C 57.05 83.1 56.85 82.55 56.55 82.05 C 56.05 81.15 55.15 81.1 54.6 82 C 54.5 82.15 54.45 82.35 54.35 82.55 C 54.15 83.25 54.15 83.95 54.25 84.7 C 54.4 85.5 55 86.05 55.8 86.15 C 56.1 86.2 56.35 86.1 56.5 85.8 C 56.85 85.15 56.9 84.45 57.05 83.65 Z M 75.5 15.85 C 76.2 14.45 76.25 13.05 76.15 11.65 C 76.05 10.45 75.85 10.3 74.65 10.3 C 74.5 10.3 74.35 10.3 74.25 10.5 C 74.7 12.3 74.5 14.05 73.9 15.8 C 74.4 16 74.9 15.8 75.5 15.85 Z M 56.85 74.05 C 56.9 73.35 56.7 72.8 56.25 72.3 C 55.75 71.7 55 71.8 54.5 72.3 C 53.7 73.15 53.85 74.9 54.8 75.6 C 55.4 76.05 56.2 75.9 56.55 75.25 C 56.8 74.9 56.9 74.5 56.85 74.05 Z M 53.5 63.3 C 53.5 63.5 53.5 63.7 53.5 63.85 C 53.55 64.7 54 65.25 54.8 65.5 C 55.3 65.7 55.75 65.45 55.9 64.9 C 56 64.6 56.05 64.3 56.05 63.95 C 56.05 63.15 56 62.35 55.55 61.65 C 55.3 61.25 54.95 61.15 54.55 61.35 C 54.3 61.45 54.1 61.65 53.9 61.9 C 53.6 62.35 53.45 62.85 53.5 63.3 Z M 54.85 55.75 C 55.2 55.05 55.25 54.3 55.35 53.55 C 55.4 53.3 55.3 53.1 55.25 52.85 C 55.15 52.4 54.65 51.95 54.15 51.95 C 53.75 51.95 53.4 52.15 53.2 52.5 C 53.1 52.75 52.95 53 52.85 53.25 C 52.7 53.9 52.75 54.5 53.2 55.05 C 53.6 55.5 54.05 55.95 54.85 55.75 Z M 51.5 32.7 C 50.4 33.5 50.6 34.65 50.75 35.75 C 50.8 36.2 51.15 36.65 51.65 36.75 C 52.05 36.85 52.65 36.25 52.8 35.7 C 52.85 35.5 52.85 35.3 52.9 35.1 C 52.9 34.8 52.85 34.55 52.85 34.25 C 52.8 33.4 52.4 32.85 51.5 32.7 Z M 53.15 42.35 C 52.5 42.45 52.15 42.85 51.95 43.35 C 51.7 43.9 51.75 44.55 51.95 45.1 C 52.1 45.55 52.3 46 52.7 46.3 C 53.2 46.65 53.6 46.55 53.85 46 C 53.9 45.9 53.95 45.8 53.95 45.65 C 54.05 44.45 54 43.35 53.15 42.35 Z M 51.45 24.25 C 50.75 24.25 50.35 24.65 50.1 25.25 C 49.85 25.9 50.05 26.5 50.35 27.05 C 50.55 27.4 51 27.45 51.4 27.4 C 51.8 27.35 51.9 27.05 52 26.75 C 52.3 25.8 52.15 24.95 51.45 24.25 Z M 52.25 17.45 C 52.25 17.05 52.15 16.6 51.95 16.2 C 51.7 15.7 51.25 15.6 50.9 16 C 50.35 16.65 50.15 17.4 50.35 18.2 C 50.4 18.4 50.55 18.65 50.7 18.85 C 51 19.25 51.5 19.2 51.8 18.8 C 52.1 18.45 52.3 18 52.25 17.45 Z M 72.8 10.4 C 72.85 11 72.85 11.65 72.9 12.25 C 72.95 12.95 72.75 13.6 72.65 14.25 C 72.55 14.85 72 15.3 72.05 16 C 72.7 15.95 72.8 15.45 72.95 15.05 C 73.7 13.45 73.7 11.7 72.8 10.4 Z " id="Shape" fill="#010001" stroke-width="1"/>
          <path d="M 69.55 13.5 C 69.25 13.4 68.95 13.3 68.65 13.25 C 68.5 13.2 68.35 13.25 68.25 13.5 C 68.4 13.9 68.75 14.15 69.15 14.3 C 69.55 14.45 70 14.6 70.4 14.7 C 70.7 14.75 71 14.85 71.25 15.1 C 70.6 15.25 70.05 15.2 69.45 15 C 68.1 14.55 66.75 14.05 65.45 13.4 C 64.15 12.75 62.8 12.35 61.3 12.5 C 60.8 12.55 60.4 12.75 60.1 13.15 C 59.1 14.4 58.6 15.8 58.55 17.35 C 58.45 19.8 58.45 22.3 58.75 24.75 C 58.9 25.85 58.9 27 59 28.1 C 59.3 30.9 59.7 33.65 60.1 36.4 C 60.7 40.35 61.3 44.3 61.95 48.25 C 62.1 49.2 62.3 50.15 62.45 51.1 C 62.9 54 63.35 56.85 63.7 59.75 C 64 62.1 64.35 64.4 64.65 66.75 C 64.9 68.55 65.1 70.3 65.35 72.1 C 65.65 74.15 66 76.2 66.35 78.25 C 66.8 80.85 67.25 83.45 67.5 86.05 C 67.7 88.05 67.95 90 68.05 92 C 68.25 95.5 68.4 99 67.8 102.5 C 67.6 103.55 67.4 104.6 67.2 105.65 C 66.85 107.4 66.05 108.95 65.25 110.5 C 63.9 113.1 61.7 114.75 59.1 116 C 57.25 116.9 55.35 117.5 53.35 117.9 C 52.05 118.15 50.75 118.35 49.45 118.35 C 47.9 118.35 46.35 118.4 44.8 118.1 C 44.35 118 43.85 117.95 43.4 117.75 C 42.3 117.35 41.15 116.9 40.05 116.45 C 38.65 115.9 37.55 114.9 36.65 113.7 C 35.15 111.7 33.95 109.55 33.35 107.1 C 33 105.8 32.7 104.45 32.5 103.15 C 32.1 100.8 31.9 98.4 31.65 96 C 31.4 93.1 31.05 90.2 30.2 87.4 C 29.85 86.15 29.4 84.9 28.7 83.75 C 28.6 83.55 28.4 83.4 28.4 83.1 C 29.1 82.8 30.1 82.95 30.5 81.95 C 30.15 81.65 29.8 81.7 29.45 81.75 C 28.55 81.85 27.6 81.85 26.7 81.8 C 24.9 81.65 23.35 81.05 22.25 79.55 C 22.4 79.4 22.55 79.55 22.65 79.6 C 23.65 80.2 24.75 80.3 25.85 80.55 C 26.25 80.65 26.65 80.6 27.05 80.6 C 27.8 80.5 28.55 80.4 29.3 80.3 C 31.1 80 32.8 79.4 34.4 78.65 C 35.7 78.05 37 77.45 38.3 76.8 C 41.3 75.3 43.9 73.3 46.15 70.8 C 47.1 69.75 48.05 68.65 48.9 67.45 C 49.7 66.3 50.2 65.1 50.45 63.75 C 50.5 63.55 50.45 63.35 50.7 63.25 C 50.95 63.25 50.85 63.45 50.9 63.6 C 51.15 65.4 50.5 66.95 49.6 68.5 C 49.35 68.9 49.05 69.3 48.8 69.7 C 48.7 69.85 48.6 70.05 48.5 70.2 C 48.45 70.4 48.5 70.6 48.65 70.75 C 48.8 70.85 48.95 70.8 49.1 70.7 C 49.4 70.5 49.65 70.25 49.85 69.95 C 49.95 69.8 50 69.7 50.2 69.4 C 50.5 70.25 50.6 70.9 50.6 71.6 C 50.6 73.85 50.6 76.1 50.65 78.3 C 50.7 81.1 50.35 83.9 50.2 86.65 C 50.1 89.25 49.95 91.85 49.9 94.45 C 49.85 95.6 49.85 96.75 50.15 97.9 C 50.25 98.35 50.45 98.75 50.75 99.05 C 51.5 99.75 52.55 99.85 53.4 99.2 C 53.9 98.85 54.3 98.25 54.7 97.4 C 54.8 97.4 54.95 97.35 55.05 97.35 C 55.9 97.6 56.55 97.25 57.05 96.6 C 58.3 95.1 58.7 93.45 57.95 91.55 C 57.8 91.15 57.6 90.8 57.35 90.55 C 56.85 90 56.25 89.75 55.5 89.9 C 55.5 89 55.45 88.2 55.75 87.35 C 56 87.3 56.2 87.2 56.45 87.2 C 57.05 87.2 57.4 86.85 57.75 86.45 C 59.35 84.7 58.9 81.65 57.25 80.45 C 56.8 80.15 56.25 80.15 55.8 79.85 C 55.75 78.9 55.7 77.9 55.8 76.9 C 57.4 76.9 58.2 76.2 58.5 74.7 C 58.95 72.65 57.65 71 56.1 70.55 C 55.9 70.5 55.6 70.55 55.45 70.35 C 55.3 70.15 55.35 69.9 55.35 69.65 C 55.3 68.7 55.2 67.75 55.15 66.8 C 57.15 65.95 57.85 64.95 57.75 63.1 C 57.7 61.6 56.7 60.5 54.8 59.85 C 54.6 58.95 54.6 58 54.55 57.05 C 54.65 57 54.75 56.9 54.85 56.85 C 56.15 56.7 56.7 55.8 57 54.7 C 57.2 53.95 57.2 53.25 56.85 52.5 C 56.45 51.6 55.8 51.1 54.9 50.85 C 54.6 50.75 54.25 50.75 53.95 50.5 C 53.7 49.6 53.65 48.6 53.65 47.65 C 53.8 47.3 54.1 47.3 54.35 47.1 C 54.95 46.65 55.3 46.05 55.4 45.3 C 55.45 45 55.45 44.65 55.45 44.35 C 55.55 42.65 54.8 41.55 53.05 41.1 C 52.85 40.05 52.7 39 52.7 37.9 C 53.9 36.85 54.4 35.5 54.2 33.95 C 54.05 32.7 53.05 32.1 52.1 31.45 C 51.95 30.55 51.95 29.6 51.95 28.6 C 53.25 28 53.7 26.9 53.65 25.6 C 53.6 24.2 52.7 23.4 51.5 22.85 C 51.4 22 51.45 21.2 51.55 20.4 C 52.9 20.15 53.85 19.5 54 18.05 C 54.2 16.5 53.8 15.6 52.45 14.65 C 52.55 13.75 52.8 12.9 53.1 12.05 C 53.85 10.25 54.65 8.45 56.1 7.1 C 56.45 6.75 56.8 6.45 57.2 6.2 C 57.9 5.7 58.7 5.5 59.55 5.45 C 61.95 5.35 64 6.25 65.9 7.55 C 66.4 7.9 66.85 8.25 67.3 8.65 C 68.55 9.75 69.9 10.6 71.6 10.9 C 71.8 11.55 72.05 12.2 71.8 12.9 C 71.25 13 70.75 12.65 70.25 12.65 C 70.1 12.65 69.95 12.65 69.85 12.85 C 69.75 13.05 69.85 13.15 70 13.25 C 69.95 13.5 69.7 13.4 69.55 13.5 Z M 35.7 80.2 C 36.45 80.15 37.15 79.9 37.8 79.6 C 40.1 78.65 42.1 77.25 44.1 75.75 C 44.65 75.35 45.15 74.9 45.5 74.3 C 45.55 74.2 45.55 74.05 45.5 74 C 45.4 73.95 45.3 73.9 45.2 73.9 C 44.9 73.9 44.7 74.15 44.5 74.3 C 43.6 74.95 42.7 75.65 41.8 76.25 C 39.95 77.55 38 78.75 35.8 79.35 C 35.65 79.4 35.5 79.45 35.35 79.5 C 35.2 79.6 35.2 79.9 35.35 80 C 35.45 80.1 35.6 80.15 35.7 80.2 Z M 52.6 101.95 C 52.55 102.3 52.65 102.45 52.9 102.5 C 54.55 102.75 56.55 101 56.55 99.35 C 56.55 99.05 56.35 98.85 56 98.8 C 55.95 98.85 55.9 98.85 55.9 98.85 C 55.65 99.05 55.7 99.35 55.6 99.6 C 55.25 100.4 54.8 101.05 53.9 101.35 C 53.45 101.5 53.05 101.75 52.6 101.95 Z M 49.55 112.85 C 49.35 113.05 49.35 113.25 49.4 113.45 C 49.95 114.75 50.65 115.95 51.75 116.85 C 51.85 116.95 52 117 52.15 117.05 C 52.35 117.1 52.55 117 52.65 116.85 C 52.8 116.65 52.75 116.45 52.6 116.3 C 51.55 115.55 50.95 114.5 50.3 113.45 C 50.15 113.2 50 112.9 49.55 112.85 Z M 47.55 113.05 C 47.45 113.1 47.35 113.15 47.3 113.25 C 47.1 113.5 47.15 113.75 47.25 114.05 C 47.7 115.2 48.45 116.2 49.2 117.2 C 49.4 117.45 49.7 117.45 49.95 117.35 C 50.15 117.2 50.2 116.9 49.95 116.6 C 49.9 116.5 49.8 116.4 49.75 116.3 C 49.05 115.5 48.45 114.55 48 113.6 C 47.95 113.45 47.85 113.3 47.75 113.2 C 47.75 113.1 47.65 113.1 47.55 113.05 Z M 39.95 112.05 C 39.95 112.15 39.95 112.25 39.95 112.3 C 40.2 113.45 40.6 114.6 41.1 115.65 C 41.2 115.9 41.4 116.1 41.65 116.25 C 41.75 116.3 41.9 116.3 42 116.25 C 42.1 116.2 42.15 116.05 42.2 115.95 C 42.2 115.85 42.2 115.7 42.15 115.6 C 41.55 114.45 41.15 113.25 40.75 112.05 C 40.7 111.9 40.6 111.75 40.5 111.65 C 40.4 111.5 40.1 111.55 40 111.7 C 40.05 111.85 40 111.95 39.95 112.05 Z M 44.35 116.85 C 44.75 116.55 44.65 116.2 44.45 115.85 C 43.9 114.8 43.4 113.7 42.95 112.6 C 42.9 112.45 42.75 112.35 42.6 112.35 C 42.2 112.6 42.2 113 42.35 113.4 C 42.7 114.3 43.05 115.2 43.55 116 C 43.75 116.35 43.9 116.65 44.35 116.85 Z M 45 113.35 C 44.75 113.6 44.8 113.95 44.9 114.25 C 45.3 115.25 45.7 116.25 46.4 117.05 C 46.45 117.15 46.55 117.2 46.65 117.3 C 46.8 117.4 46.95 117.4 47.1 117.3 C 47.3 117.2 47.35 116.95 47.25 116.75 C 47.2 116.6 47.1 116.45 47 116.35 C 46.55 115.75 46.2 115.05 45.9 114.4 C 45.75 114.1 45.65 113.8 45.5 113.55 C 45.4 113.35 45.2 113.3 45 113.35 Z M 39.2 114.6 C 39.6 114.35 39.5 114.05 39.4 113.75 C 38.95 112.7 38.6 111.65 38.4 110.55 C 38.35 110.35 38.2 110.3 38.05 110.3 C 37.7 110.6 37.65 111 37.75 111.4 C 37.95 112.3 38.2 113.2 38.6 114 C 38.7 114.25 38.8 114.5 39.2 114.6 Z M 54.95 115.95 C 54.95 115.75 54.85 115.65 54.7 115.55 C 53.85 115.1 53.4 114.3 52.8 113.6 C 52.65 113.45 52.55 113.3 52.4 113.15 C 52.35 113.1 52.25 113.05 52.2 113.1 C 52.1 113.15 52 113.25 52 113.35 C 52 113.5 52 113.65 52.1 113.8 C 52.55 114.7 53.15 115.5 53.95 116.1 C 54.15 116.25 54.35 116.35 54.6 116.35 C 54.8 116.4 55 116.15 54.95 115.95 Z M 59.4 115.1 C 59.65 114.85 59.65 114.6 59.45 114.35 C 58.9 113.7 58.25 113.1 57.55 112.55 C 57.4 112.45 57.25 112.45 57.1 112.55 C 56.95 112.7 56.9 112.9 57 113.1 C 57 113.15 57.05 113.2 57.05 113.2 C 57.6 113.8 58.15 114.45 58.85 114.9 C 59 115.05 59.15 115.15 59.4 115.1 Z M 54.3 113.25 C 54.75 114 56 115.35 56.5 115.6 C 56.7 115.7 56.9 115.7 57.05 115.55 C 57.2 115.4 57.25 115.15 57.1 115 C 56.4 114.25 55.7 113.6 54.85 113.05 C 54.65 112.95 54.45 113 54.3 113.25 Z M 59.3 112.1 C 59.45 112.85 60.05 113.35 60.65 113.75 C 60.75 113.85 60.95 113.8 61.1 113.65 C 61.2 113.5 61.2 113.35 61.1 113.2 C 60.75 112.7 60.35 112.25 59.85 111.95 C 59.7 111.8 59.5 111.85 59.3 112.1 Z M 36.75 112.3 C 36.8 111.4 36.6 110.65 36.15 110 C 36.15 109.95 36 110 35.9 110 C 35.6 110.4 35.7 110.85 35.85 111.25 C 36 111.65 36.1 112.1 36.75 112.3 Z M 61 111.3 C 61.25 111.95 61.8 112.2 62.3 112.5 C 62.45 112.6 62.7 112.45 62.7 112.25 C 62.7 112.2 62.7 112.15 62.7 112.15 C 62.7 111.7 62.35 111.5 62.05 111.25 C 61.7 111.05 61.4 110.95 61 111.3 Z M 63.85 110.7 C 63.85 110.25 63.55 110 63.25 109.8 C 63.05 109.7 62.9 109.65 62.7 109.85 C 62.55 110 62.55 110.2 62.65 110.4 C 62.8 110.7 63.05 110.85 63.35 111 C 63.6 111.1 63.85 110.9 63.85 110.7 Z M 46.3 73.05 C 46.3 73.25 46.55 73.35 46.75 73.3 C 47.05 73.2 47.25 73.05 47.4 72.8 C 47.5 72.65 47.55 72.5 47.4 72.35 C 47.3 72.2 47.15 72.15 46.95 72.2 C 46.55 72.3 46.25 72.65 46.3 73.05 Z M 33.4 80.15 C 33.05 80.2 32.7 80.3 32.5 80.7 C 32.45 80.75 32.55 80.95 32.65 81 C 33.05 81.25 33.4 81 33.7 80.8 C 33.85 80.7 33.9 80.55 33.8 80.4 C 33.75 80.25 33.65 80.2 33.4 80.15 Z " id="Shape" fill="#FFC941" stroke-width="1"/>
          <path d="M 48.65 65.85 C 48.6 66.15 48.5 66.35 48.25 66.5 C 47.9 66.3 47.5 65.95 47 66.05 C 46.85 66.05 46.7 66.1 46.55 66.15 C 46.45 66.2 46.35 66.3 46.35 66.4 C 46.3 66.55 46.4 66.7 46.6 66.75 C 46.85 66.8 47.15 66.85 47.4 66.95 C 47.55 67 47.7 67.05 47.75 67.25 C 47.7 67.6 47.4 67.75 47.2 68 C 46.25 69.05 45.3 70.05 44.35 71.05 C 43.95 71.5 43.5 71.85 43 72.25 C 42.3 72.85 41.55 73.4 40.85 74 C 40.1 74.6 39.35 75.15 38.45 75.6 C 36.7 76.5 34.95 77.35 33.2 78.2 C 32.25 78.65 31.2 79.05 30.1 79.05 C 29.6 79.05 29.15 79.5 28.6 79.3 C 28.4 78.6 28.65 77.85 28.7 77.05 C 27.65 77.55 27.6 77.75 27.8 79.3 C 27.6 79.6 27.3 79.45 27 79.4 C 26.75 78.75 26.85 78.1 27 77.45 C 27.1 77.1 27.2 76.75 27.3 76.45 C 27.35 76.25 27.4 76.05 27.15 75.95 C 26.95 75.85 26.8 76 26.65 76.2 C 26.05 77 25.9 77.95 25.95 78.9 C 25.95 79.05 26 79.2 26.05 79.35 C 25.8 79.6 25.6 79.5 25.35 79.45 C 24.9 78.8 24.9 78.05 25.05 77.25 C 25.2 76.5 25.4 75.8 25.75 75.1 C 25.9 74.8 26.1 74.55 26 74.25 C 25.85 74.05 25.7 74.1 25.55 74.15 C 25.2 74.3 25 74.6 24.85 74.9 C 24.25 76.2 23.8 77.5 24.15 78.95 C 24.15 79 24.1 79.1 24.05 79.15 C 23.6 79.15 23.4 78.95 23.35 78.55 C 23.05 77.05 23.2 75.6 23.9 74.25 C 24.2 73.7 24.45 73.2 24.75 72.65 C 24.8 72.5 24.9 72.35 24.9 72.2 C 24.9 72.1 24.8 72 24.75 71.9 C 24.7 71.85 24.6 71.85 24.55 71.9 C 24.15 72.1 23.85 72.45 23.65 72.8 C 22.65 74.2 22.1 75.75 22.3 77.55 C 22.3 77.7 22.3 77.85 22.3 78.05 C 21.65 77.75 21.5 77.6 21.4 76.9 C 21.25 75.95 21.35 75 21.8 74.1 C 22.3 73 22.95 72 23.65 71.05 C 24.35 70.05 25.15 69.1 26 68.15 C 27.3 66.7 28.85 65.5 30.5 64.4 C 32.25 63.3 34 62.15 35.9 61.35 C 38.8 60.15 41.75 59.2 44.95 59.4 C 45.75 59.45 46.55 59.6 47.3 59.75 C 47.95 59.9 48.6 60.2 49 60.75 C 49.1 60.85 49.2 61 49.1 61.2 C 48.8 61.3 48.5 61.1 48.25 61 C 47.1 60.65 45.9 60.55 44.7 60.7 C 44.3 60.75 43.9 60.8 43.65 61.15 C 43.55 61.3 43.45 61.4 43.5 61.6 C 43.7 61.9 44 61.75 44.25 61.7 C 45.85 61.35 47.35 61.65 48.8 62.25 C 48.95 62.3 49.1 62.35 49.2 62.45 C 49.4 62.65 49.25 62.8 49.1 63 C 48.45 62.9 47.8 62.75 47.15 62.65 C 46.4 62.5 45.65 62.55 44.9 62.7 C 44.7 62.75 44.55 62.85 44.5 63.1 C 44.6 63.45 44.9 63.45 45.15 63.45 C 46 63.45 46.8 63.55 47.65 63.65 C 48.2 63.75 48.75 63.9 49.15 64.15 C 49.4 64.35 49.25 64.5 49.2 64.65 C 49.2 64.75 49.15 64.85 49.1 65 C 49 65 48.95 65 48.85 65 C 48.1 64.65 47.3 64.4 46.4 64.45 C 46.15 64.45 45.9 64.5 45.75 64.65 C 45.6 64.75 45.55 64.9 45.55 65.05 C 45.6 65.2 45.7 65.3 45.9 65.35 C 46.1 65.35 46.3 65.4 46.5 65.35 C 47.25 65.25 47.95 65.5 48.65 65.85 Z M 26.95 69.5 C 27.35 69.75 27.7 69.6 28 69.3 C 29 68.3 30.1 67.45 31.2 66.6 C 32.95 65.25 34.75 64.05 36.8 63.15 C 37.65 62.8 38.5 62.5 39.35 62.15 C 39.65 62.05 39.95 61.95 40.05 61.6 C 39.95 61.35 39.75 61.25 39.5 61.2 C 39.15 61.15 38.8 61.25 38.45 61.35 C 36.55 61.95 34.85 62.8 33.2 63.85 C 31.7 64.8 30.3 65.95 28.9 67.05 C 28.3 67.5 27.8 68.1 27.25 68.6 C 27 68.9 26.75 69.15 26.95 69.5 Z " id="Shape" fill="#FFC941" stroke-width="1"/>
          <path d="M 53.25 94.1 C 53.25 93.35 53.4 92.8 53.7 92.25 C 54 91.6 54.6 91.35 55.25 91.25 C 55.65 91.2 55.95 91.45 56.15 91.75 C 56.75 93 56.8 94.65 55.8 95.8 C 55.4 96.25 54.9 96.35 54.4 96.05 C 53.55 95.6 53.15 94.95 53.25 94.1 Z " id="Shape" fill="#FCC741" stroke-width="1"/>
          <path d="M 57.05 83.65 C 56.95 84.45 56.85 85.15 56.5 85.8 C 56.35 86.1 56.1 86.2 55.8 86.15 C 55.05 86.05 54.4 85.5 54.25 84.7 C 54.15 84 54.15 83.25 54.35 82.55 C 54.4 82.35 54.5 82.15 54.6 82 C 55.15 81.1 56.05 81.1 56.55 82.05 C 56.85 82.55 57.05 83.1 57.05 83.65 Z " id="Shape" fill="#FCC741" stroke-width="1"/>
          <path d="M 75.5 15.85 C 74.95 15.85 74.45 16.05 73.9 15.8 C 74.55 14.05 74.7 12.3 74.25 10.5 C 74.35 10.35 74.5 10.3 74.65 10.3 C 75.85 10.25 76 10.4 76.15 11.65 C 76.25 13.05 76.2 14.45 75.5 15.85 Z " id="Shape" fill="#FAC540" stroke-width="1"/>
          <path d="M 56.85 74.05 C 56.9 74.5 56.75 74.9 56.55 75.3 C 56.15 75.9 55.35 76.05 54.8 75.65 C 53.85 74.95 53.7 73.2 54.5 72.35 C 55 71.8 55.75 71.75 56.25 72.35 C 56.7 72.8 56.9 73.35 56.85 74.05 Z " id="Shape" fill="#FAC640" stroke-width="1"/>
          <path d="M 53.5 63.3 C 53.5 62.8 53.65 62.35 53.95 61.9 C 54.1 61.65 54.3 61.5 54.6 61.35 C 55 61.15 55.4 61.25 55.6 61.65 C 56 62.35 56.1 63.15 56.1 63.95 C 56.1 64.25 56 64.6 55.95 64.9 C 55.8 65.45 55.35 65.65 54.85 65.5 C 54.05 65.2 53.6 64.7 53.55 63.85 C 53.45 63.7 53.5 63.55 53.5 63.3 Z " id="Shape" fill="#FCC741" stroke-width="1"/>
          <path d="M 54.85 55.75 C 54.05 55.95 53.6 55.55 53.25 55.05 C 52.8 54.5 52.8 53.9 52.9 53.25 C 52.95 53 53.1 52.75 53.25 52.5 C 53.45 52.1 53.8 51.9 54.2 51.95 C 54.7 51.95 55.2 52.4 55.3 52.85 C 55.35 53.1 55.4 53.35 55.4 53.55 C 55.25 54.25 55.2 55.05 54.85 55.75 Z " id="Shape" fill="#F8C440" stroke-width="1"/>
          <path d="M 51.5 32.7 C 52.4 32.85 52.8 33.4 52.85 34.25 C 52.85 34.55 52.9 34.8 52.9 35.1 C 52.9 35.3 52.85 35.5 52.8 35.7 C 52.65 36.25 52.05 36.85 51.65 36.75 C 51.15 36.65 50.8 36.2 50.75 35.75 C 50.6 34.65 50.35 33.5 51.5 32.7 Z " id="Shape" fill="#F9C540" stroke-width="1"/>
          <path d="M 53.15 42.35 C 54 43.35 54.05 44.5 53.95 45.65 C 53.95 45.75 53.9 45.9 53.85 46 C 53.65 46.55 53.2 46.65 52.7 46.3 C 52.3 46 52.1 45.55 51.95 45.1 C 51.75 44.5 51.75 43.9 51.95 43.35 C 52.15 42.85 52.5 42.45 53.15 42.35 Z " id="Shape" fill="#F7C340" stroke-width="1"/>
          <path d="M 51.45 24.25 C 52.15 24.95 52.3 25.8 52.05 26.75 C 51.95 27.05 51.85 27.4 51.45 27.4 C 51.05 27.45 50.6 27.4 50.4 27.05 C 50.05 26.5 49.9 25.9 50.15 25.25 C 50.35 24.65 50.75 24.25 51.45 24.25 Z " id="Shape" fill="#F9C540" stroke-width="1"/>
          <path d="M 52.25 17.45 C 52.25 18 52.1 18.45 51.8 18.85 C 51.5 19.25 51 19.3 50.7 18.9 C 50.55 18.7 50.45 18.5 50.35 18.25 C 50.15 17.4 50.35 16.65 50.9 16.05 C 51.25 15.65 51.7 15.75 51.95 16.25 C 52.15 16.65 52.3 17.05 52.25 17.45 Z " id="Shape" fill="#F6C340" stroke-width="1"/>
          <path d="M 72.8 10.4 C 73.65 11.65 73.7 13.45 73 15.05 C 72.85 15.45 72.75 16 72.1 16 C 72.05 15.3 72.6 14.85 72.7 14.25 C 72.8 13.6 73 12.95 72.95 12.25 C 72.9 11.65 72.85 11.05 72.8 10.4 Z " id="Shape" fill="#E6B73F" stroke-width="1"/>
          <path d="M 69.55 13.5 C 69.7 13.4 69.95 13.5 70.05 13.25 C 70.6 13.4 71.1 13.7 71.65 13.75 C 71.7 14.05 71.55 14.2 71.4 14.15 C 70.8 13.95 70.1 13.85 69.55 13.5 Z " id="Shape" fill="#A98836" stroke-width="1"/>
          <path d="M 35.7 80.2 C 35.6 80.15 35.45 80.1 35.3 80.05 C 35.15 79.95 35.1 79.65 35.3 79.55 C 35.45 79.5 35.6 79.4 35.75 79.4 C 37.95 78.8 39.9 77.6 41.75 76.3 C 42.65 75.65 43.55 75 44.45 74.35 C 44.65 74.2 44.9 73.95 45.15 73.95 C 45.25 73.95 45.4 74 45.45 74.05 C 45.55 74.15 45.55 74.25 45.45 74.35 C 45.1 74.95 44.6 75.4 44.05 75.8 C 42.1 77.3 40.05 78.7 37.75 79.65 C 37.15 79.9 36.5 80.15 35.7 80.2 Z " id="Shape" fill="#060503" stroke-width="1"/>
          <path d="M 52.6 101.95 C 53.05 101.75 53.45 101.5 53.9 101.35 C 54.8 101.05 55.25 100.4 55.6 99.6 C 55.7 99.35 55.7 99.05 55.9 98.85 C 55.95 98.8 55.95 98.8 56 98.8 C 56.35 98.8 56.5 99.05 56.55 99.35 C 56.55 101.05 54.55 102.75 52.9 102.5 C 52.65 102.45 52.55 102.3 52.6 101.95 Z " id="Shape" fill="#FEFCF5" stroke-width="1"/>
          <path d="M 49.55 112.85 C 50 112.9 50.15 113.2 50.3 113.45 C 50.95 114.5 51.55 115.6 52.6 116.3 C 52.8 116.45 52.8 116.65 52.65 116.85 C 52.5 117 52.35 117.1 52.15 117.05 C 52 117 51.85 116.95 51.75 116.85 C 50.65 115.95 49.95 114.7 49.4 113.45 C 49.35 113.3 49.35 113.05 49.55 112.85 Z " id="Shape" fill="#0E0B07" stroke-width="1"/>
          <path d="M 47.55 113.05 C 47.65 113.1 47.75 113.1 47.8 113.15 C 47.9 113.25 48 113.4 48.05 113.55 C 48.5 114.55 49.05 115.45 49.8 116.25 C 49.9 116.35 49.95 116.45 50 116.55 C 50.2 116.85 50.2 117.15 50 117.3 C 49.75 117.45 49.45 117.4 49.25 117.15 C 48.45 116.2 47.75 115.2 47.3 114 C 47.2 113.75 47.15 113.45 47.35 113.2 C 47.35 113.15 47.45 113.1 47.55 113.05 Z " id="Shape" fill="#100E08" stroke-width="1"/>
          <path d="M 39.95 112.05 C 40 111.95 40 111.85 40.05 111.75 C 40.1 111.55 40.45 111.5 40.55 111.7 C 40.65 111.85 40.75 111.95 40.8 112.1 C 41.2 113.3 41.6 114.5 42.2 115.65 C 42.25 115.75 42.3 115.9 42.25 116 C 42.25 116.1 42.15 116.25 42.05 116.3 C 41.95 116.35 41.8 116.35 41.7 116.3 C 41.45 116.2 41.25 115.95 41.15 115.7 C 40.65 114.65 40.2 113.5 40 112.35 C 40 112.25 40 112.15 39.95 112.05 Z " id="Shape" fill="#0B0A06" stroke-width="1"/>
          <path d="M 44.35 116.85 C 43.9 116.7 43.75 116.35 43.55 116.05 C 43.05 115.2 42.7 114.35 42.35 113.45 C 42.2 113.05 42.2 112.65 42.6 112.4 C 42.8 112.4 42.9 112.45 42.95 112.65 C 43.4 113.75 43.85 114.85 44.45 115.9 C 44.65 116.15 44.8 116.5 44.35 116.85 Z " id="Shape" fill="#141109" stroke-width="1"/>
          <path d="M 45 113.35 C 45.25 113.3 45.4 113.35 45.5 113.55 C 45.65 113.8 45.8 114.1 45.9 114.4 C 46.2 115.1 46.5 115.75 47 116.35 C 47.1 116.45 47.2 116.6 47.25 116.75 C 47.35 116.95 47.3 117.15 47.1 117.3 C 46.95 117.4 46.8 117.4 46.65 117.3 C 46.55 117.25 46.45 117.15 46.4 117.05 C 45.7 116.2 45.25 115.25 44.9 114.25 C 44.75 113.95 44.75 113.6 45 113.35 Z " id="Shape" fill="#100D08" stroke-width="1"/>
          <path d="M 39.2 114.6 C 38.8 114.5 38.7 114.25 38.55 114 C 38.15 113.2 37.9 112.3 37.7 111.4 C 37.6 111 37.65 110.6 38 110.3 C 38.15 110.3 38.35 110.35 38.35 110.55 C 38.55 111.65 38.9 112.7 39.35 113.75 C 39.5 114.05 39.6 114.35 39.2 114.6 Z " id="Shape" fill="#15120A" stroke-width="1"/>
          <path d="M 54.95 115.95 C 55 116.1 54.8 116.35 54.6 116.35 C 54.35 116.35 54.15 116.25 53.95 116.1 C 53.15 115.5 52.55 114.7 52.1 113.8 C 52.05 113.65 52 113.5 52 113.35 C 52 113.25 52.1 113.15 52.2 113.1 C 52.25 113.05 52.35 113.1 52.4 113.15 C 52.55 113.3 52.65 113.45 52.8 113.6 C 53.4 114.3 53.85 115.1 54.7 115.55 C 54.85 115.65 54.95 115.8 54.95 115.95 Z " id="Shape" fill="#120F09" stroke-width="1"/>
          <path d="M 59.4 115.1 C 59.2 115.15 59 115.05 58.85 114.95 C 58.15 114.45 57.6 113.85 57.05 113.25 C 57 113.2 57 113.2 57 113.15 C 56.9 112.95 56.95 112.75 57.1 112.6 C 57.25 112.5 57.4 112.5 57.55 112.6 C 58.25 113.15 58.9 113.75 59.45 114.4 C 59.65 114.6 59.65 114.9 59.4 115.1 Z " id="Shape" fill="#16130A" stroke-width="1"/>
          <path d="M 54.3 113.25 C 54.5 113 54.7 112.95 54.9 113.05 C 55.75 113.6 56.45 114.3 57.15 115 C 57.3 115.15 57.3 115.35 57.1 115.55 C 56.95 115.7 56.75 115.7 56.55 115.6 C 56 115.35 54.75 114 54.3 113.25 Z " id="Shape" fill="#0D0B07" stroke-width="1"/>
          <path d="M 59.3 112.1 C 59.5 111.85 59.65 111.85 59.85 111.95 C 60.35 112.3 60.75 112.7 61.1 113.2 C 61.2 113.35 61.2 113.5 61.1 113.65 C 61 113.8 60.8 113.85 60.65 113.75 C 60.05 113.35 59.45 112.85 59.3 112.1 Z " id="Shape" fill="#201B0F" stroke-width="1"/>
          <path d="M 36.75 112.3 C 36.1 112.1 36 111.65 35.85 111.25 C 35.7 110.85 35.65 110.4 35.9 110 C 36 110 36.1 109.95 36.15 110 C 36.6 110.65 36.8 111.4 36.75 112.3 Z " id="Shape" fill="#1D180E" stroke-width="1"/>
          <path d="M 61 111.3 C 61.4 110.95 61.7 111 62.05 111.25 C 62.35 111.5 62.7 111.65 62.7 112.15 C 62.7 112.2 62.7 112.25 62.7 112.25 C 62.7 112.45 62.45 112.6 62.3 112.5 C 61.8 112.2 61.25 111.95 61 111.3 Z " id="Shape" fill="#17130B" stroke-width="1"/>
          <path d="M 63.85 110.7 C 63.85 110.9 63.6 111.1 63.35 111 C 63.05 110.85 62.8 110.7 62.65 110.4 C 62.55 110.2 62.55 110 62.7 109.85 C 62.85 109.7 63.05 109.7 63.25 109.8 C 63.55 110 63.8 110.25 63.85 110.7 Z " id="Shape" fill="#382E16" stroke-width="1"/>
          <path d="M 46.3 73.05 C 46.25 72.65 46.55 72.35 47 72.25 C 47.15 72.2 47.35 72.25 47.45 72.4 C 47.55 72.55 47.5 72.7 47.45 72.85 C 47.3 73.1 47.1 73.25 46.8 73.35 C 46.55 73.35 46.35 73.2 46.3 73.05 Z " id="Shape" fill="#201B0F" stroke-width="1"/>
          <path d="M 33.4 80.15 C 33.6 80.15 33.75 80.2 33.8 80.4 C 33.85 80.55 33.8 80.75 33.7 80.8 C 33.35 81 33.05 81.25 32.65 81 C 32.55 80.95 32.5 80.8 32.5 80.7 C 32.7 80.35 33.05 80.25 33.4 80.15 Z " id="Shape" fill="#3D3219" stroke-width="1"/>
          <path d="M 26.95 69.5 C 26.75 69.15 27 68.9 27.2 68.65 C 27.75 68.1 28.25 67.55 28.85 67.1 C 30.25 66 31.65 64.85 33.15 63.9 C 34.8 62.85 36.55 62 38.4 61.4 C 38.75 61.3 39.1 61.2 39.45 61.25 C 39.7 61.25 39.9 61.4 40 61.65 C 39.9 62.05 39.6 62.1 39.3 62.2 C 38.45 62.55 37.6 62.85 36.75 63.2 C 34.75 64.1 32.9 65.25 31.15 66.65 C 30.05 67.5 28.95 68.35 27.95 69.35 C 27.7 69.6 27.35 69.75 26.95 69.5 Z " id="Shape" fill="#FEFEFA" stroke-width="1"/>
        </g>
      </g>
    </g>
  </g>
</svg>