<svg xmlns="http://www.w3.org/2000/svg" xmlns:xlink="http://www.w3.org/1999/xlink" version="1.1" width="84.9449075918837" height="75.56204931551652" viewBox="0.09082952829978552 0.5267551312126884 84.9449075918837 75.56204931551652">
  <!-- Exported by Scratch - http://scratch.mit.edu/ -->
  <g id="ID0.4356587138026953">
    <g id="Lime_Green_Leg">
      <path id="ID0.014040753711014986" fill="#D4FC6A" d="M 4.3611 71.0654 C 3.4064 71.0654 2.4986 70.7141 1.9343 70.1254 C 1.6334 69.8119 1.4748 69.469 1.4874 69.1589 C 1.7947 66.6386 3.2158 59.9933 4.2011 59.5191 C 4.2354 59.5121 4.3066 59.5058 4.3953 59.5058 C 4.8834 59.5058 5.8786 59.7021 7.0301 59.9297 C 8.7808 60.2768 10.9541 60.707 12.5798 60.707 C 13.0924 60.707 13.5253 60.663 13.8654 60.5757 C 16.1832 59.9828 19.9375 57.084 20.6658 56.5086 C 21.3195 56.0351 21.8872 55.799 22.3858 55.799 C 23.5968 55.799 23.9068 57.2404 23.9096 57.2558 L 23.9096 57.2565 C 23.7972 57.4506 21.3837 61.5408 16.95 62.376 C 15.8773 62.5785 14.6085 62.6819 13.1783 62.6819 C 10.7634 62.6819 8.4456 62.39 7.2794 62.2161 L 6.2438 62.0617 L 6.4994 63.0771 C 7.3178 66.3307 7.623 70.0458 6.0266 70.7162 C 5.477 70.9488 4.9162 71.0654 4.3611 71.0654 L 4.3611 71.0654 L 4.3611 71.0654 L 4.3611 71.0654 Z " stroke-width="0.6983372798285714"/>
      <path id="ID0.06063009100034833" d="M 22.3865 56.4988 C 22.8042 56.4988 23.0367 56.8926 23.1463 57.1594 C 22.5562 58.0484 20.3439 61.0275 16.8194 61.6909 C 15.7901 61.8851 14.5652 61.9842 13.1776 61.9842 C 10.8074 61.9842 8.5294 61.6972 7.3828 61.5261 L 5.3115 61.2174 L 5.8227 63.2489 C 6.8381 67.2846 6.558 69.7372 5.7584 70.0731 C 5.2926 70.2672 4.8234 70.3664 4.3611 70.3664 C 3.6041 70.3664 2.8673 70.0891 2.4385 69.6415 C 2.2591 69.4543 2.1976 69.3 2.1878 69.2134 C 2.4972 66.8691 3.6334 61.399 4.5042 60.2077 C 4.9735 60.2356 5.9093 60.4206 6.8995 60.6162 C 8.6754 60.9681 10.8863 61.406 12.5805 61.406 C 13.1594 61.406 13.6364 61.3564 14.0393 61.2531 C 16.4737 60.6301 20.2908 57.6943 21.0807 57.0721 C 21.6107 56.6922 22.0499 56.4988 22.3865 56.4988 M 22.3865 55.1021 C 21.7357 55.1021 21.0422 55.3759 20.2399 55.9576 C 20.198 55.9904 16.024 59.3047 13.6936 59.9004 C 13.4101 59.973 13.0351 60.0093 12.5805 60.0093 C 11.0274 60.0093 8.8891 59.5868 7.1712 59.246 C 5.9323 59.0009 4.9533 58.8075 4.396 58.8075 C 4.2507 58.8075 4.1278 58.8201 4.021 58.8459 C 2.2479 59.2705 0.794 69.0346 0.7905 69.1303 C 0.7695 69.6317 0.9972 70.1569 1.4308 70.6087 C 2.1243 71.3315 3.22 71.763 4.3611 71.763 C 5.0112 71.763 5.6621 71.6276 6.2976 71.3615 C 8.718 70.3454 7.785 65.3237 7.1775 62.9081 C 8.4764 63.1016 10.7711 63.3816 13.1783 63.3816 C 13.179 63.3816 13.179 63.3816 13.179 63.3816 C 14.6504 63.3816 15.9625 63.2754 17.0799 63.0638 C 21.8321 62.1693 24.4082 57.7935 24.5158 57.607 L 24.6485 57.378 L 24.5947 57.1175 C 24.4515 56.4206 23.8049 55.1021 22.3865 55.1021 L 22.3865 55.1021 L 22.3865 56.4988 L 22.3865 56.4988 Z " stroke-width="0.6983372798285714" fill="undefined"/>
    </g>
    <path id="Pink_Leg" fill="#FF1557" stroke="#000000" stroke-width="1.3966745596571428" d="M 39.2025 60.1965 C 39.5007 59.3885 39.7332 56.7935 39.7332 56.7935 L 45.1887 54.9017 C 45.1887 54.9017 44.1195 61.4633 40.1585 63.8285 C 36.199 66.1959 31.9789 66.9766 31.9789 66.9766 C 31.9789 66.9766 38.1906 72.1373 35.3393 74.8232 C 32.4873 77.5104 27.9306 69.8356 27.9369 68.7811 C 27.9432 67.7266 27.6408 65.8006 31.4503 64.8383 C 35.2611 63.8774 38.1117 63.1511 39.2025 60.1965 L 39.2025 60.1965 L 39.2025 60.1965 Z "/>
    <path id="Light_Blue_Leg" fill="#59C9EE" stroke="#000000" stroke-width="1.3966745596571428" d="M 59.4885 52.1321 L 56.5234 52.1321 C 56.5234 52.1321 61.2029 56.6552 63.4593 59.7167 C 65.7128 62.7803 65.9209 68.3447 66.3001 69.5381 C 66.6779 70.7316 71.6961 72.5892 74.1438 73.5138 C 76.5915 74.4384 77.7912 70.4397 76.4281 68.6687 C 75.0642 66.8991 68.8777 66.1624 68.8777 66.1624 C 68.8777 66.1624 67.5585 61.633 65.4775 57.6999 C 63.3957 53.7683 59.4885 52.1321 59.4885 52.1321 L 59.4885 52.1321 L 59.4885 52.1321 L 59.4885 52.1321 Z "/>
    <path id="Blue_Leg_1_" fill="#35ABBF" stroke="#000000" stroke-width="1.3966745596571428" d="M 20.6749 20.1126 C 20.6749 20.1126 16.369 16.6796 13.8661 16.0399 C 11.3633 15.3988 5.1369 17.3193 4.1837 17.0916 C 3.2319 16.8626 1.5335 8.5537 1.4881 7.4566 C 1.442 6.3603 3.5671 4.8665 6.0273 5.898 C 8.4868 6.9287 6.2172 14.572 6.2172 14.572 C 6.2172 14.572 12.4611 13.3897 16.95 14.2354 C 21.4417 15.0825 23.9103 19.3556 23.9103 19.3556 "/>
    <path id="Yellow_Leg" fill="#FFC300" stroke="#000000" stroke-width="1.3966745596571428" d="M 39.2025 16.4205 C 39.5007 17.2278 39.7332 19.8221 39.7332 19.8221 L 45.1887 21.7139 C 45.1887 21.7139 44.1195 15.1523 40.1585 12.7857 C 36.199 10.4204 31.9789 9.639 31.9789 9.639 C 31.9789 9.639 38.1906 4.4796 35.3393 1.7924 C 32.4873 -0.8948 27.9306 6.7793 27.9369 7.8344 C 27.9432 8.8896 27.6408 10.8157 31.4503 11.7773 C 35.2611 12.7396 38.1117 13.4651 39.2025 16.4205 L 39.2025 16.4205 L 39.2025 16.4205 Z "/>
    <path id="Dark_Green_Leg_1_" fill="#80C34F" stroke="#000000" stroke-width="1.3966745596571428" d="M 59.4885 24.4856 L 56.5234 24.4856 C 56.5234 24.4856 61.2029 19.9639 63.4593 16.8996 C 65.7128 13.836 65.9209 8.2716 66.3001 7.0782 C 66.6779 5.8847 71.6961 4.0271 74.1438 3.1011 C 76.5922 2.1765 77.7912 6.1766 76.4281 7.9469 C 75.0642 9.7186 68.8777 10.4539 68.8777 10.4539 C 68.8777 10.4539 67.5585 14.9847 65.4775 18.9171 C 63.3964 22.8494 59.4885 24.4856 59.4885 24.4856 L 59.4885 24.4856 L 59.4885 24.4856 L 59.4885 24.4856 Z "/>
    <path id="Top_Antenna" fill="#FF6D00" stroke="#000000" stroke-width="1.3966745596571428" d="M 68.1779 28.1435 C 68.1779 28.1435 70.2569 22.79 74.3931 19.0937 C 77.0503 16.7208 80.9756 15.0636 81.5308 14.9226 C 82.0846 14.7822 80.505 4.7178 80.7068 5.0097 C 83.755 9.4043 84.3374 16.9701 84.3374 16.9701 C 84.3374 16.9701 80.1474 17.7844 75.1487 21.568 C 70.15 25.3501 70.2548 29.6289 70.2548 29.6289 L 68.1779 28.1435 L 68.1779 28.1435 L 68.1779 28.1435 Z "/>
    <path id="Bottom_Antenna" fill="#FF6D00" stroke="#000000" stroke-width="1.3966745596571428" d="M 68.1779 48.4735 C 68.1779 48.4735 70.2569 53.8269 74.3931 57.5218 C 77.0503 59.8934 80.9756 61.5519 81.5308 61.6951 C 82.0846 61.8355 80.505 71.8978 80.7068 71.6073 C 83.755 67.2113 84.3374 59.6455 84.3374 59.6455 C 84.3374 59.6455 80.1474 58.8312 75.1487 55.049 C 70.15 51.2654 70.2548 46.9881 70.2548 46.9881 L 68.1779 48.4735 L 68.1779 48.4735 L 68.1779 48.4735 Z "/>
    <g id="Body">
      <path id="Wing_Fill_1_" fill="#8761D4" d="M 51.0226 44.9448 C 49.2299 39.4195 44.984 38.967 44.8549 38.9559 L 3.7123 38.9559 C 4.5894 50.5657 24.4927 59.7495 40.6516 55.2641 C 44.1837 54.2858 47.5686 52.6887 50.8298 51.9617 C 51.2858 50.7466 52.0247 48.0279 51.0226 44.9448 L 51.0226 44.9448 L 51.0226 44.9448 Z " stroke-width="0.6983372798285714"/>
      <path id="Wing_Fill" fill="#8761D4" d="M 3.7179 37.2533 L 44.8423 37.2533 C 44.8423 37.2533 49.2013 36.8727 51.0226 31.2644 C 51.9472 28.42 51.3892 25.8844 50.9395 24.5547 C 47.688 23.7768 44.2724 22.1413 40.6537 21.0589 C 24.6708 16.2766 4.7228 25.6805 3.7179 37.2533 L 3.7179 37.2533 L 3.7179 37.2533 Z " stroke-width="0.6983372798285714"/>
      <path id="Head_Fill" fill="#FF6D00" d="M 72.1396 38.1618 C 72.1396 30.6191 65.1597 24.9968 54.3034 24.9968 C 53.9793 24.9968 53.6532 24.9779 53.3278 24.9507 C 53.6043 26.1281 53.832 28.3488 52.936 31.6226 C 51.9199 35.342 49.5044 37.1932 47.5749 38.1039 C 49.5044 39.0145 51.9199 40.8672 52.936 44.5872 C 53.8487 47.9267 53.5282 50.3332 53.1951 51.6041 C 53.464 51.5853 53.7314 51.5755 53.9968 51.5755 C 65.3071 51.5755 72.1396 45.706 72.1396 38.1618 L 72.1396 38.1618 L 72.1396 38.1618 Z " stroke-width="0.6983372798285714"/>
      <path id="Outline" fill="#231F20" d="M 55.5136 23.332 C 50.9541 23.332 46.1049 20.6713 40.8541 19.1 C 23.2462 13.8318 1.1417 25.2999 1.1417 38.166 C 1.1417 51.0322 23.1079 62.1581 40.8555 57.2313 C 45.8891 55.8333 50.6524 53.269 55.1875 53.269 C 67.3322 53.269 74.6676 46.2653 74.6676 38.166 C 74.6676 30.066 67.1716 23.332 55.5136 23.332 L 55.5136 23.332 L 55.5136 23.332 Z M 53.1951 51.6041 C 53.5282 50.3332 53.8487 47.9267 52.936 44.5872 C 51.9199 40.8672 49.5044 39.0152 47.5749 38.1039 C 49.5044 37.1932 51.9199 35.3413 52.936 31.6226 C 53.8306 28.3488 53.6043 26.1281 53.3278 24.9507 C 53.6546 24.9779 53.9807 24.9968 54.3034 24.9968 C 65.1597 24.9968 72.1396 30.6191 72.1396 38.1618 C 72.1396 45.706 65.3071 51.5755 53.9975 51.5755 C 53.7307 51.5755 53.464 51.5846 53.1951 51.6041 L 53.1951 51.6041 L 53.1951 51.6041 Z M 40.6523 21.0589 C 44.2724 22.1413 47.6866 23.7775 50.9388 24.5547 C 51.3892 25.8844 51.9458 28.42 51.0219 31.2644 C 49.2013 36.8727 44.8409 37.2533 44.8409 37.2533 L 3.7179 37.2533 C 4.7228 25.6805 24.6708 16.2766 40.6523 21.0589 L 40.6523 21.0589 L 40.6523 21.0589 Z M 40.6516 55.2641 C 24.492 59.7495 4.5894 50.5657 3.7123 38.9559 L 44.8549 38.9559 C 44.984 38.9684 49.2299 39.4195 51.0226 44.9448 C 52.0261 48.0259 51.2858 50.7466 50.8312 51.9596 C 47.5686 52.688 44.1837 54.2851 40.6516 55.2641 L 40.6516 55.2641 L 40.6516 55.2641 Z " stroke-width="0.6983372798285714"/>
    </g>
    <g id="Eye">
      <g id="White_1_">
        <path id="ID0.4698791243135929" fill="#FFFFFF" d="M 64.6583 36.9565 C 64.5277 36.9565 64.3985 36.9474 64.27 36.9279 C 63.506 36.814 62.7882 36.349 62.2993 35.652 C 61.8 34.9404 61.594 34.0836 61.7211 33.2386 C 61.955 31.6631 63.3308 30.4278 64.8524 30.4278 C 64.9823 30.4278 65.1101 30.4375 65.2379 30.4564 C 66.0026 30.5709 66.7212 31.0367 67.2093 31.7343 C 67.7065 32.446 67.9105 33.3021 67.7834 34.1464 C 67.5494 35.7219 66.1758 36.9565 64.6583 36.9565 L 64.6583 36.9565 L 64.6583 36.9565 L 64.6583 36.9565 Z " stroke-width="0.6983372798285714"/>
        <path id="ID0.5066214520484209" d="M 64.8524 31.1261 C 64.9474 31.1261 65.0417 31.1331 65.1346 31.147 C 66.3169 31.3237 67.3029 32.638 67.0934 34.0423 C 66.9 35.3357 65.7624 36.2582 64.6583 36.2582 C 64.5619 36.2582 64.4684 36.2512 64.3741 36.2372 C 63.1932 36.0612 62.2015 34.7477 62.4117 33.3419 C 62.6038 32.0493 63.7505 31.1261 64.8524 31.1261 M 64.8524 29.7294 C 62.9928 29.7294 61.3133 31.2267 61.029 33.1373 C 60.8761 34.1569 61.1247 35.1932 61.7274 36.0522 C 62.3252 36.9055 63.2155 37.4761 64.1667 37.6178 C 64.3266 37.6423 64.4921 37.6541 64.6569 37.6541 C 66.5103 37.6541 68.1884 36.1583 68.4733 34.2484 C 68.6276 33.2267 68.3804 32.1918 67.7806 31.3328 C 67.1835 30.4787 66.2938 29.9068 65.3406 29.765 C 65.1814 29.742 65.0179 29.7294 64.8524 29.7294 L 64.8524 29.7294 L 64.8524 31.1261 L 64.8524 31.1261 Z " stroke-width="0.6983372798285714" fill="undefined"/>
      </g>
      <path id="Pupil_1_" d="M 66.1674 32.4906 C 66.5054 32.4906 66.8113 32.6366 67.0333 32.8726 C 67.2547 33.108 67.3923 33.4334 67.3923 33.793 C 67.3923 34.1527 67.2547 34.4781 67.0333 34.7135 C 66.8113 34.9495 66.5054 35.0954 66.1674 35.0954 C 65.8294 35.0954 65.5235 34.9495 65.3015 34.7135 C 65.0801 34.4781 64.9425 34.1527 64.9425 33.793 C 64.9425 33.4334 65.0801 33.108 65.3015 32.8726 C 65.5235 32.6366 65.8294 32.4906 66.1674 32.4906 L 66.1674 32.4906 Z " stroke-width="0.6983372798285714" fill="undefined"/>
    </g>
    <g id="Eye_1_">
      <g id="White">
        <path id="ID0.23315615905448794" fill="#FFFFFF" d="M 64.7128 46.4427 C 64.5822 46.4427 64.453 46.4329 64.3245 46.4141 C 63.5605 46.2996 62.8419 45.8345 62.3538 45.1375 C 61.8545 44.4252 61.6485 43.5691 61.7756 42.7248 C 62.0095 41.1493 63.3852 39.914 64.9069 39.914 C 65.0368 39.914 65.1646 39.9244 65.2924 39.9426 C 66.0571 40.0571 66.7757 40.5222 67.2638 41.2206 C 67.7603 41.9322 67.9649 42.7876 67.8378 43.6319 C 67.6039 45.2081 66.2303 46.4427 64.7128 46.4427 L 64.7128 46.4427 L 64.7128 46.4427 L 64.7128 46.4427 Z " stroke-width="0.6983372798285714"/>
        <path id="ID0.6588016310706735" d="M 64.9069 40.6116 C 65.0019 40.6116 65.0962 40.6186 65.189 40.6319 C 66.3713 40.8092 67.3574 42.1228 67.1479 43.5272 C 66.9544 44.8219 65.8168 45.7437 64.7128 45.7437 C 64.6164 45.7437 64.5228 45.7367 64.4285 45.7234 C 63.2477 45.5461 62.256 44.2325 62.4655 42.8281 C 62.6583 41.5355 63.8049 40.6116 64.9069 40.6116 M 64.9069 39.2149 C 63.0465 39.2149 61.3677 40.7129 61.0835 42.6235 C 60.9306 43.6438 61.1792 44.6787 61.7812 45.5384 C 62.3789 46.3924 63.27 46.9623 64.2211 47.104 C 64.3811 47.1285 64.5466 47.1411 64.7114 47.1411 C 66.5648 47.1411 68.2429 45.6445 68.5278 43.7353 C 68.6821 42.7136 68.4349 41.6787 67.835 40.819 C 67.238 39.9649 66.3476 39.3937 65.395 39.2519 C 65.2358 39.2275 65.0724 39.2149 64.9069 39.2149 L 64.9069 39.2149 L 64.9069 40.6116 L 64.9069 40.6116 Z " stroke-width="0.6983372798285714" fill="undefined"/>
      </g>
      <path id="Pupil" d="M 66.2219 41.9762 C 66.5599 41.9762 66.8657 42.1221 67.0878 42.3581 C 67.3092 42.5935 67.4468 42.9189 67.4468 43.2786 C 67.4468 43.6382 67.3092 43.9636 67.0878 44.199 C 66.8657 44.435 66.5599 44.581 66.2219 44.581 C 65.8839 44.581 65.578 44.435 65.3559 44.199 C 65.1346 43.9636 64.997 43.6382 64.997 43.2786 C 64.997 42.9189 65.1346 42.5935 65.3559 42.3581 C 65.578 42.1221 65.8839 41.9762 66.2219 41.9762 L 66.2219 41.9762 Z " stroke-width="0.6983372798285714" fill="undefined"/>
    </g>
  </g>
</svg>