<svg xmlns="http://www.w3.org/2000/svg" xmlns:xlink="http://www.w3.org/1999/xlink" width="133.2154998779297" height="89.00938415527344" viewBox="-1.7502000000094995 9.424099922180176 133.2154998779297 89.00938415527344" version="1.1" xml:space="preserve">
  <defs/>
  <g>
    <title>butterfly-b</title>
    <desc>Created with Sketch.</desc>
    <g id="butterfly-b" stroke="none" fill-rule="evenodd">
      <g id="Group-3">
        <path d="M 11.4331 45.3986 L 14.7359 48.3553 C 16.3152 49.7693 17.216 51.78 17.216 53.8889 L 17.216 61.3531 C 17.216 64.454 19.1523 67.2311 22.0791 68.3282 L 24.8161 69.3543 C 26.1038 69.8372 27.2071 70.6491 28.0356 71.6787 L 61.2523 50.4022 L 60.7776 49.935 C 50.0544 39.3807 35.5538 33.4575 20.44 33.4575 L 11.2863 33.4575 L 9.7375 36.5496 C 8.2383 39.5426 8.9315 43.1584 11.4331 45.3986 " id="Fill-1" fill="#00B27B" stroke-width="1"/>
        <path d="M -0.0002 41.4421 C -0.0002 44.3943 1.6614 47.1004 4.3074 48.4576 L 8.2439 50.4766 C 10.2969 51.5292 11.1155 54.0208 10.0815 56.0698 L 9.1406 57.9353 C 8.0134 60.1696 9.097 62.8781 11.4627 63.7401 C 13.4749 64.4731 14.6143 66.5827 14.1143 68.6484 L 13.5089 71.1501 C 12.4918 75.354 17.1707 78.6376 20.835 76.2906 L 28.0356 71.6786 C 27.2071 70.6494 26.1038 69.8371 24.8161 69.3545 L 22.0791 68.3284 C 19.1523 67.231 17.216 64.4539 17.216 61.3534 L 17.216 53.8888 C 17.216 51.7799 16.3152 49.7695 14.7359 48.3552 L 11.4331 45.3985 C 8.9315 43.1583 8.2383 39.5425 9.7375 36.5495 L 11.2863 33.4574 L 8.0577 33.4574 C 3.6075 33.4574 -0.0002 37.0321 -0.0002 41.4421 " id="Fill-3" fill="#19242D" stroke-width="1"/>
        <path d="M 38.0707 81.7014 L 41.7402 81.2112 C 45.8911 80.6569 50.0943 81.7596 53.4244 84.2762 L 56.9189 86.9168 L 56.9189 84.3452 C 56.9189 81.8839 58.9325 79.8885 61.4162 79.8885 L 61.2525 50.0538 L 27.9648 71.5963 C 28.8347 72.645 29.4172 73.9259 29.6094 75.32 C 30.1712 79.3955 33.9571 82.2509 38.0707 81.7014 " id="Fill-6" fill="#F2F253" stroke-width="1"/>
        <path d="M 29.0817 87.1929 L 35.9461 87.1929 C 38.5039 87.1929 40.3256 89.6541 39.5569 92.0719 L 39.039 93.701 C 38.6841 94.8162 39.24 96.016 40.3242 96.4763 L 40.3903 96.5045 C 41.5501 96.9969 42.8909 96.437 43.3455 95.2706 C 44.2316 92.9946 47.04 92.1492 49.0543 93.5523 L 49.7668 94.0488 C 52.7758 96.1445 56.9189 94.0119 56.9189 90.3676 L 56.9189 86.9168 L 53.4244 84.2762 C 50.0943 81.7595 45.8911 80.6569 41.7402 81.2112 L 38.0707 81.7014 C 33.9571 82.2508 30.1712 79.3954 29.6094 75.32 C 29.4172 73.9259 28.8347 72.6449 27.9648 71.5962 L 24.9783 73.529 C 18.7305 77.5724 21.6197 87.1929 29.0817 87.1929 " id="Fill-8" fill="#19242D" stroke-width="1"/>
        <path d="M 39.0101 48.0859 C 39.0101 52.3118 35.5532 55.7375 31.2888 55.7375 C 27.0248 55.7375 23.5679 52.3118 23.5679 48.0859 C 23.5679 43.8601 27.0248 40.4344 31.2888 40.4344 C 35.5532 40.4344 39.0101 43.8601 39.0101 48.0859 " id="Fill-10" fill="#19242D" stroke-width="1"/>
        <path d="M 39.0101 48.0859 C 39.0101 52.3118 35.5532 55.7375 31.2888 55.7375 C 27.0248 55.7375 23.5679 52.3118 23.5679 48.0859 C 23.5679 43.8601 27.0248 40.4344 31.2888 40.4344 C 35.5532 40.4344 39.0101 43.8601 39.0101 48.0859 Z " id="Stroke-12" stroke="#F2F253" stroke-width="3.5" fill="none"/>
      </g>
      <g id="Group-2">
        <path d="M 104.8995 69.3543 L 107.6365 68.3283 C 110.5629 67.2312 112.4992 64.4541 112.4992 61.3532 L 112.4992 53.889 C 112.4992 51.7797 113.4004 49.7693 114.9794 48.3554 L 118.2821 45.3986 C 120.7841 43.1585 121.477 39.5426 119.9777 36.5497 L 118.429 33.4575 L 109.2752 33.4575 C 94.1615 33.4575 79.6612 39.3807 68.9373 49.9351 L 68.4633 50.402 L 101.6797 71.6784 C 102.5082 70.6492 103.6114 69.8373 104.8995 69.3543 " id="Fill-14" fill="#00B27B" stroke-width="1"/>
        <path d="M 116.2062 71.15 L 115.6008 68.6483 C 115.1008 66.5826 116.241 64.473 118.2528 63.7401 C 120.6185 62.8783 121.702 60.1695 120.5752 57.9352 L 119.6336 56.0697 C 118.5996 54.021 119.4186 51.5291 121.4712 50.4766 L 125.4077 48.4575 C 128.0541 47.1006 129.7153 44.3946 129.7153 41.4421 C 129.7153 37.0324 126.108 33.4576 121.6581 33.4576 L 118.4288 33.4576 L 119.9776 36.5498 C 121.4768 39.5427 120.7839 43.1582 118.282 45.3987 L 114.9796 48.3555 C 113.4007 49.7694 112.4991 51.7798 112.4991 53.8887 L 112.4991 61.3533 C 112.4991 64.4542 110.5628 67.2313 107.6364 68.3284 L 104.8994 69.3544 C 103.6113 69.837 102.5084 70.6493 101.6796 71.6785 L 108.8802 76.2909 C 112.5444 78.6376 117.2237 75.3543 116.2062 71.15 " id="Fill-16" fill="#19242D" stroke-width="1"/>
        <path d="M 87.9749 81.2113 L 91.6444 81.7015 C 95.758 82.2506 99.5442 79.3955 100.106 75.3201 C 100.2982 73.926 100.8807 72.645 101.7503 71.5963 L 68.4633 50.0539 L 68.2992 79.8885 C 70.7829 79.8885 72.7965 81.884 72.7965 84.3449 L 72.7965 86.9169 L 76.2911 84.2759 C 79.6215 81.7593 83.8244 80.657 87.9749 81.2113 " id="Fill-18" fill="#F2F253" stroke-width="1"/>
        <path d="M 79.9484 94.0488 L 80.6609 93.5523 C 82.6752 92.1492 85.4836 92.9946 86.37 95.2706 C 86.8243 96.437 88.1654 96.9969 89.3249 96.5045 L 89.391 96.4763 C 90.4752 96.016 91.0311 94.8162 90.6765 93.701 L 90.1587 92.0719 C 89.3899 89.6541 91.2117 87.1929 93.7691 87.1929 L 100.6335 87.1929 C 108.0955 87.1929 110.985 77.5724 104.7373 73.529 L 101.7504 71.5962 C 100.8808 72.6449 100.2983 73.9262 100.1061 75.32 C 99.544 79.3958 95.7581 82.2508 91.6445 81.7014 L 87.975 81.2112 C 83.8241 80.6569 79.6213 81.7595 76.2912 84.2762 L 72.7966 86.9168 L 72.7966 90.3676 C 72.7966 94.0123 76.9398 96.1449 79.9484 94.0488 " id="Fill-20" fill="#19242D" stroke-width="1"/>
        <path d="M 90.7051 48.0859 C 90.7051 52.3118 94.162 55.7375 98.4264 55.7375 C 102.6904 55.7375 106.1473 52.3118 106.1473 48.0859 C 106.1473 43.8601 102.6904 40.4344 98.4264 40.4344 C 94.162 40.4344 90.7051 43.8601 90.7051 48.0859 " id="Fill-22" fill="#19242D" stroke-width="1"/>
        <path d="M 90.7051 48.0859 C 90.7051 52.3118 94.162 55.7375 98.4264 55.7375 C 102.6904 55.7375 106.1473 52.3118 106.1473 48.0859 C 106.1473 43.8601 102.6904 40.4344 98.4264 40.4344 C 94.162 40.4344 90.7051 43.8601 90.7051 48.0859 Z " id="Stroke-24" stroke="#F2F253" stroke-width="3.5" fill="none"/>
      </g>
      <g id="Group">
        <path d="M 46.6369 11.1741 L 50.8384 14.1858 C 58.6507 19.7866 63.5959 28.4973 64.3696 38.0225 L 64.8471 43.9028 " id="Stroke-26" stroke="#19242D" stroke-width="1.05" stroke-linecap="round" fill="none"/>
        <path d="M 83.0574 12.1112 L 78.8559 15.1229 C 71.0436 20.7237 66.0983 29.4348 65.3246 38.9595 L 64.8472 44.8399 " id="Stroke-28" stroke="#19242D" stroke-width="1.05" stroke-linecap="round" fill="none"/>
        <path d="M 64.8564 47.2685 C 63.9193 47.2685 63.1531 46.5088 63.1531 45.5805 L 63.1531 37.9453 C 63.1531 37.0171 63.9193 36.2574 64.8564 36.2574 C 65.7931 36.2574 66.5598 37.0171 66.5598 37.9453 L 66.5598 45.5805 C 66.5598 46.5088 65.7931 47.2685 64.8564 47.2685 " id="Fill-30" fill="#19242D" stroke-width="1"/>
        <path d="M 69.8625 51.3849 C 69.8625 65.8371 67.6212 94.9615 64.8564 94.9615 C 62.0917 94.9615 59.8504 65.8371 59.8504 51.3849 C 59.8504 46.8043 62.0917 42.6262 64.8564 42.6262 C 67.6212 42.6262 69.8625 47.5007 69.8625 51.3849 " id="Fill-32" fill="#19242D" stroke-width="1"/>
        <path d="M 70.535 52.0269 C 70.535 57.4111 67.9926 61.7759 64.8564 61.7759 C 61.7199 61.7759 59.1775 57.4111 59.1775 52.0269 C 59.1775 46.6426 61.7199 42.2779 64.8564 42.2779 C 67.9926 42.2779 70.535 46.6426 70.535 52.0269 " id="Fill-34" fill="#19242D" stroke-width="1"/>
        <path d="M 63.8651 41.1308 C 63.8651 42.228 62.9678 43.1176 61.8607 43.1176 C 60.7536 43.1176 59.8562 42.228 59.8562 41.1308 C 59.8562 40.0337 60.7536 39.1441 61.8607 39.1441 C 62.9678 39.1441 63.8651 40.0337 63.8651 41.1308 " id="Fill-36" fill="#FCF6ED" stroke-width="1"/>
        <path d="M 69.8381 41.1308 C 69.8381 42.228 68.9408 43.1176 67.8336 43.1176 C 66.7265 43.1176 65.8292 42.228 65.8292 41.1308 C 65.8292 40.0337 66.7265 39.1441 67.8336 39.1441 C 68.9408 39.1441 69.8381 40.0337 69.8381 41.1308 " id="Fill-38" fill="#FCF6ED" stroke-width="1"/>
        <path d="M 62.9912 41.1308 C 62.9912 41.7496 62.4853 42.2513 61.8606 42.2513 C 61.2362 42.2513 60.7299 41.7496 60.7299 41.1308 C 60.7299 40.5121 61.2362 40.0104 61.8606 40.0104 C 62.4853 40.0104 62.9912 40.5121 62.9912 41.1308 " id="Fill-40" fill="#19242D" stroke-width="1"/>
        <path d="M 68.9642 41.1308 C 68.9642 41.7496 68.4582 42.2513 67.8335 42.2513 C 67.2092 42.2513 66.7029 41.7496 66.7029 41.1308 C 66.7029 40.5121 67.2092 40.0104 67.8335 40.0104 C 68.4582 40.0104 68.9642 40.5121 68.9642 41.1308 " id="Fill-42" fill="#19242D" stroke-width="1"/>
        <polyline id="Stroke-44" stroke="#19242D" stroke-width="1.05" stroke-linecap="round" stroke-linejoin="round" points="23.3969432 48.2806437 12.0226459 37.0090729 12.0226459 48.4547328 0.0637 56.2016964" fill="none" transform="matrix(1,0,0,1,41.459459,11)"/>
        <polyline id="Stroke-46" stroke="#19242D" stroke-width="1.05" stroke-linecap="round" stroke-linejoin="round" points="23.3969432 52.5451644 14.9655649 44.1899336 14.9504568 50.4742008 0.0637 60.1180389" fill="none" transform="matrix(1,0,0,1,41.459459,11)"/>
        <polyline id="Stroke-48" stroke="#19242D" stroke-width="1.05" stroke-linecap="round" stroke-linejoin="round" points="23.3969432 48.2806437 34.7712405 37.0090729 34.7712405 48.4547328 46.7298351 56.2016964" fill="none" transform="matrix(1,0,0,1,41.459459,11)"/>
        <polyline id="Stroke-50" stroke="#19242D" stroke-width="1.05" stroke-linecap="round" stroke-linejoin="round" points="23.3969432 52.5451644 31.8283216 44.1899336 31.8434297 50.4742008 46.7298351 60.1180389" fill="none" transform="matrix(1,0,0,1,41.459459,11)"/>
        <polyline id="Stroke-52" stroke="#19242D" stroke-width="1.05" stroke-linecap="round" stroke-linejoin="round" points="23.3969432 49.2830138 15.1992135 54.9694591 15.1992135 64.6756211 11.9643216 67.8812972" fill="none" transform="matrix(1,0,0,1,41.459459,11)"/>
        <polyline id="Stroke-54" stroke="#19242D" stroke-width="1.05" stroke-linecap="round" stroke-linejoin="round" points="23.3876676 49.2830138 31.5987486 54.9694591 31.5987486 64.6756211 34.8385595 67.8812972" fill="none" transform="matrix(1,0,0,1,41.459459,11)"/>
      </g>
    </g>
  </g>
</svg>