<svg xmlns="http://www.w3.org/2000/svg" xmlns:xlink="http://www.w3.org/1999/xlink" width="133.63455200195312" height="132.59783935546875" viewBox="62.81714630126953 5.692652702331543 133.63455200195312 132.59783935546875" version="1.1" xml:space="preserve">
  <defs/>
  <g>
    <title>panther-b</title>
    <desc>Created with Sketch.</desc>
    <g id="jungle" stroke="none" fill-rule="evenodd">
      <g id="panther-b">
        <g id="Group-100">
          <g id="Group-57">
            <path d="M 100.581 121.5072 C 100.581 121.5072 99.3586 126.0179 94.1833 126.0589 C 82.1227 126.1538 70.804 104.4694 69.1885 81.0053 C 67.8846 62.0668 73.5318 49.4878 76.7564 42.7864 C 79.2965 37.5083 82.3281 33.9638 80.8051 33.101 C 78.7945 31.963 75.5731 36.8932 74.1682 39.3115 C 71.3993 44.0804 59.1118 65.2895 64.8047 94.8471 C 69.1644 117.4834 77.7122 137.4811 99.0235 137.4811 " id="Fill-54" fill="#493C59" stroke-width="1"/>
            <path d="M 100.581 121.5072 C 100.581 121.5072 99.3586 126.0179 94.1833 126.0589 C 82.1227 126.1538 70.804 104.4694 69.1885 81.0053 C 67.8846 62.0668 73.5318 49.4878 76.7564 42.7864 C 79.2965 37.5083 82.3281 33.9638 80.8051 33.101 C 78.7945 31.963 75.5731 36.8932 74.1682 39.3115 C 71.3993 44.0804 59.1118 65.2895 64.8047 94.8471 C 69.1644 117.4834 77.7122 137.4811 99.0235 137.4811 " id="Stroke-56" stroke="#2A0D37" stroke-width="0.5" fill="none"/>
          </g>
          <path d="M 174.3628 37.9978 C 164.4191 39.4407 177.9636 62.5336 175.2853 71.8991 C 172.3776 82.065 153.1552 103.3209 145.6752 113.0272 C 140.0794 120.2885 136.8196 125.5444 124.0516 136.1109 C 124.0516 136.1109 120.3576 137.7905 113.349 137.7905 C 106.3405 137.7905 97.539 137.4654 97.539 137.4654 C 97.539 137.4654 91.1276 125.0567 113.2943 81.4902 C 125.4038 57.6905 128.7757 53.7793 130.2453 51.6329 C 132.0225 49.0371 137.3119 47.1696 145.8923 34.0762 C 152.1948 24.4597 151.9777 19.4457 157.3564 16.303 C 160.7251 14.3341 162.3087 13.7209 162.3087 13.7209 C 162.3087 13.7209 178.0588 18.6192 174.3628 37.9978 " id="Fill-58" fill="#493C59" stroke-width="1"/>
          <path d="M 174.3628 37.9978 C 164.4191 39.4407 177.9636 62.5336 175.2853 71.8991 C 172.3776 82.065 153.1552 103.3209 145.6752 113.0272 C 140.0794 120.2885 136.8196 125.5444 124.0516 136.1109 C 124.0516 136.1109 127.1895 137.5161 120.1809 137.5161 C 113.1724 137.5161 97.539 137.4654 97.539 137.4654 C 97.539 137.4654 91.1276 125.0567 113.2943 81.4902 C 125.4038 57.6905 128.7757 53.7793 130.2453 51.6329 C 132.0225 49.0371 137.3119 47.1696 145.8923 34.0762 C 152.1948 24.4597 151.9777 19.4457 157.3564 16.303 C 160.7251 14.3341 162.3087 13.7209 162.3087 13.7209 C 162.3087 13.7209 178.0588 18.6192 174.3628 37.9978 " id="Stroke-60" stroke="#2A0D37" stroke-width="0.5" fill="none"/>
          <path d="M 160.0772 27.0481 C 160.0772 27.0481 161.4698 34.0597 166.574 36.939 C 169.9864 38.8631 174.9504 37.9345 178.9411 37.4715 C 182.9304 37.0079 186.6766 36.9357 187.7106 36.6022 C 188.6924 36.2855 193.131 34.5649 193.7816 33.3483 C 194.7218 31.5881 195.9129 27.6574 195.9129 27.6574 C 195.9129 27.6574 196.3399 25.9843 194.3606 25.3405 C 192.3806 24.6974 185.4515 22.2662 185.4515 22.2662 C 185.4515 22.2662 183.3803 17.3815 183.0836 16.8223 C 182.7876 16.2631 182.2387 15.7383 178.915 14.6485 C 175.5906 13.5574 170.1963 11.6262 169.575 11.4545 C 168.5781 11.1801 167.3981 10.9194 166.132 11.4272 " id="Fill-62" fill="#493C59" stroke-width="1"/>
          <path d="M 158.3028 20.7075 C 157.6646 16.9836 151.6672 12.058 155.0548 8.5993 C 158.443 5.1406 166.2235 11.437 167.5613 12.3759 C 169.5218 13.7499 170.4417 13.0678 170.4417 13.0678 L 170.7331 14.4053 C 170.7331 14.4053 168.5458 18.5461 168.5158 18.6541 C 165.7424 28.4871 159.7619 22.6498 159.6341 22.6056 C 159.5051 22.562 158.3028 20.7075 158.3028 20.7075 " id="Fill-64" fill="#493C59" stroke-width="1"/>
          <path d="M 172.1929 12.3848 C 172.1929 12.3848 166.7927 4.9987 163.3876 6.3837 C 161.0601 7.3305 162.6913 13.5579 163.5479 14.8766 C 164.4046 16.1946 170.653 15.7414 170.9849 14.1242 C 171.316 12.5084 172.1929 12.3848 172.1929 12.3848 " id="Fill-66" fill="#493C59" stroke-width="1"/>
          <path d="M 166.5243 18.506 C 164.8631 20.512 160.9148 19.9964 157.7071 17.3538 C 154.4982 14.7112 153.2438 10.9417 154.905 8.9357 C 156.5675 6.9297 160.5145 7.446 163.7234 10.0886 C 166.9311 12.7299 168.1861 16.5 166.5243 18.506 " id="Fill-68" fill="#6C5E7F" stroke-width="1"/>
          <path d="M 160.0772 27.0481 C 160.0772 27.0481 161.4698 34.0597 166.574 36.939 C 169.9864 38.8631 174.9504 37.9345 178.9411 37.4715 C 182.9304 37.0079 186.6766 36.9357 187.7106 36.6022 C 188.6924 36.2855 193.131 34.5649 193.7816 33.3483 C 194.7218 31.5881 195.9129 27.6574 195.9129 27.6574 C 195.9129 27.6574 196.3399 25.9843 194.3606 25.3405 C 192.3806 24.6974 185.4515 22.2662 185.4515 22.2662 C 185.4515 22.2662 183.3803 17.3815 183.0836 16.8223 C 182.7876 16.2631 182.2387 15.7383 178.915 14.6485 C 175.5906 13.5574 170.1963 11.6262 169.575 11.4545 C 168.5781 11.1801 167.3981 10.9194 166.132 11.4272 " id="Stroke-70" stroke="#2A0D37" stroke-width="0.5" fill="none"/>
          <path d="M 158.9697 21.8807 C 158.9697 21.8807 158.9417 21.7604 158.8889 21.5341 C 158.823 21.3117 158.7233 20.9873 158.5447 20.5932 C 158.2043 19.7967 157.5693 18.7342 156.7765 17.4785 C 156.004 16.2138 155.0175 14.769 154.3558 12.9996 C 154.0507 12.1192 153.8251 11.1087 154.0865 10.0982 C 154.2176 9.5995 154.4764 9.1313 154.8174 8.7405 C 154.8924 8.6462 154.998 8.5318 155.084 8.4499 C 155.1773 8.364 155.2438 8.2697 155.3637 8.1917 C 155.5808 8.0175 155.8208 7.8991 156.06 7.7873 C 157.0484 7.3763 158.1346 7.4127 159.1073 7.6202 C 160.0905 7.8256 161.0058 8.1859 161.8573 8.5845 C 163.5595 9.3921 165.0199 10.3622 166.2384 11.2245 C 166.8474 11.651 167.3944 12.0834 167.8768 12.4073 C 168.371 12.7369 168.8196 12.9463 169.2127 13.0517 C 169.407 13.1121 169.5837 13.1004 169.7317 13.1564 C 169.8823 13.2012 170.0185 13.2233 170.13 13.2253 C 170.3549 13.2337 170.4821 13.1908 170.4821 13.1908 C 170.4821 13.1908 170.4051 13.3053 170.1737 13.4145 C 170.0589 13.4711 169.907 13.5224 169.7212 13.5589 C 169.5315 13.6135 169.3242 13.5335 169.0966 13.4919 C 168.65 13.3748 168.135 13.1277 167.6252 12.7877 C 167.1056 12.4372 166.5827 12.021 165.9737 11.5951 C 164.7676 10.7413 163.3235 9.7842 161.6623 8.9961 C 160.833 8.6072 159.9451 8.2593 159.0147 8.0662 C 158.0915 7.8679 157.0993 7.8477 156.24 8.2054 C 156.0313 8.3075 155.8325 8.42 155.6539 8.5455 C 155.5593 8.5942 155.4602 8.6892 155.3644 8.7613 C 155.2588 8.8374 155.1955 8.9024 155.114 9 C 154.7985 9.344 154.5592 9.7504 154.4308 10.1925 C 154.1713 11.086 154.348 12.047 154.6238 12.9086 C 155.2203 14.6435 156.167 16.1189 156.9063 17.4005 C 157.6658 18.6769 158.2656 19.7674 158.5838 20.5763 C 158.7507 20.9775 158.8413 21.3078 158.9 21.5315 C 158.9456 21.7591 158.9697 21.8807 158.9697 21.8807 " id="Fill-72" fill="#2A0D37" stroke-width="1"/>
          <path d="M 166.5243 18.506 C 164.8631 20.512 160.9148 19.9964 157.7071 17.3538 C 154.4982 14.7112 153.2438 10.9417 154.905 8.9357 C 156.5675 6.9297 160.5145 7.446 163.7234 10.0886 C 166.9311 12.7299 168.1861 16.5 166.5243 18.506 Z " id="Stroke-74" stroke="#2A0D37" stroke-width="0.5" fill="none"/>
          <path d="M 182.4388 24.0229 C 182.4388 24.0229 182.2308 21.6326 180.0865 21.3062 C 178.1 21.0038 178.4846 21.0877 177.6664 20.9362 C 177.1233 20.8361 176.176 20.5214 175.702 20.0057 C 175.702 20.0057 176.0737 23.4026 178.7787 23.5684 C 180.5918 23.679 181.2828 23.6393 182.4388 24.0229 " id="Fill-76" fill="#FCBE8D" stroke-width="1"/>
          <path d="M 162.1362 8.8336 C 162.1362 8.8336 162.2099 6.9778 163.3874 6.3835 C 164.5654 5.7898 167.5801 6.2716 172.1927 12.3846 " id="Stroke-78" stroke="#2A0D37" stroke-width="0.5" fill="none"/>
          <path d="M 181.1991 22.4596 C 181.2467 23.1254 180.8953 23.6924 180.4148 23.7262 C 179.935 23.76 179.5066 23.2477 179.4603 22.5812 C 179.4127 21.9153 179.7642 21.3483 180.2446 21.3145 C 180.7245 21.2807 181.1522 21.7931 181.1991 22.4596 " id="Fill-80" fill="#2A0D37" stroke-width="1"/>
          <path d="M 182.4388 24.0229 C 182.4388 24.0229 181.9439 21.5767 180.213 21.3244 C 178.2245 21.0344 178.4846 21.0877 177.6664 20.9362 C 177.1233 20.8361 176.176 20.5214 175.702 20.0057 C 175.702 20.0057 176.0737 23.4026 178.7787 23.5684 C 180.5918 23.679 181.2828 23.6393 182.4388 24.0229 Z " id="Stroke-82" stroke="#2A0D37" stroke-width="0.5" fill="none"/>
          <path d="M 195.0826 25.6816 C 195.0826 25.6816 192.2178 25.8279 192.2472 27.276 C 192.2843 29.0583 195.2136 29.1936 195.4027 29.2469 C 195.4027 29.2469 195.8838 27.6505 195.8199 26.9756 C 195.7365 26.1056 195.0826 25.6816 195.0826 25.6816 " id="Fill-84" fill="#2A0D37" stroke-width="1"/>
          <path d="M 168.1679 73.5248 C 168.1679 73.5248 169.1458 120.1774 169.3629 127.1136 C 169.3629 128.5753 169.3629 129.1755 171.9166 128.7958 C 174.4704 128.416 182.348 126.3027 183.4348 127.7658 C 184.521 129.2288 184.6299 131.2342 181.8049 137.4655 C 181.4248 137.5741 162.6803 137.4655 162.6803 137.4655 C 162.6803 137.4655 152.5208 102.1344 148.0112 90.5931 C 148.0112 90.5931 152.8194 77.1278 150.3745 70.7067 " id="Fill-86" fill="#493C59" stroke-width="1"/>
          <path d="M 168.1679 73.5248 C 168.1679 73.5248 169.1458 120.1774 169.3629 127.1136 C 169.3629 128.5753 169.3629 129.1755 171.9166 128.7958 C 174.4704 128.416 182.348 126.3027 183.4348 127.7658 C 184.521 129.2288 184.6299 131.2342 181.8049 137.4655 C 181.4248 137.5741 162.6803 137.4655 162.6803 137.4655 C 162.6803 137.4655 152.5208 102.1344 148.0112 90.5931 C 148.0112 90.5931 152.6564 76.884 150.3745 70.7067 " id="Stroke-88" stroke="#2A0D37" stroke-width="0.5" fill="none"/>
          <path d="M 174.6871 130.8011 C 174.6871 130.8011 174.9355 130.673 175.3913 130.4897 C 175.8483 130.3186 176.5022 130.0527 177.3354 129.8791 C 177.752 129.7913 178.2116 129.7191 178.7163 129.7126 C 179.2052 129.7243 179.8207 129.7575 180.3025 130.2445 C 180.4179 130.3622 180.5059 130.5098 180.5704 130.6626 C 180.6356 130.8317 180.6585 130.9273 180.7047 131.0645 C 180.7797 131.3577 180.826 131.6562 180.8306 131.9482 C 180.8456 132.5379 180.7445 133.1277 180.5737 133.6804 C 180.4003 134.2325 180.1727 134.754 179.9459 135.2553 C 179.8305 135.5018 179.7164 135.7462 179.6029 135.9881 C 179.5169 136.1969 179.3604 136.5467 179.1276 136.7457 C 178.6693 137.1566 178.1386 137.3133 177.6594 137.4297 C 177.1737 137.539 176.7141 137.5858 176.291 137.6125 C 175.4441 137.6554 174.7452 137.6007 174.2575 137.5741 C 173.7705 137.5338 173.4921 137.5097 173.4921 137.5097 C 173.4921 137.5097 173.7705 137.4909 174.2582 137.457 C 174.7439 137.431 175.4402 137.3849 176.2571 137.2691 C 176.6652 137.2139 177.1046 137.1352 177.5453 137.0019 C 177.9802 136.8679 178.4372 136.6715 178.7384 136.3549 C 178.8982 136.1982 178.9555 136.046 179.0657 135.7599 C 179.1687 135.5109 179.2724 135.2586 179.3773 135.005 C 179.5912 134.5049 179.8024 134.0029 179.9537 133.4918 C 180.1043 132.982 180.2079 132.4671 180.2008 131.9618 C 180.1982 131.7063 180.163 131.4657 180.1225 131.2361 C 180.0456 130.9513 180.0097 130.768 179.8774 130.6282 C 179.6251 130.3381 179.1433 130.2205 178.7 130.1853 C 178.2468 130.1541 177.8035 130.1866 177.3967 130.2393 C 176.583 130.3492 175.8998 130.489 175.4297 130.61 C 174.9571 130.7322 174.6871 130.8011 174.6871 130.8011 " id="Fill-90" fill="#2A0D37" stroke-width="1"/>
          <path d="M 118.4829 129.1749 C 118.4829 129.1749 114.0222 134.6649 115.6534 136.2443 C 117.2846 137.8238 116.5544 137.5136 125.4915 137.5136 C 134.4286 137.5136 165.0746 137.5162 165.0746 137.5162 C 165.0746 137.5162 165.5512 135.7807 164.9266 133.9113 C 164.3021 132.0418 163.579 128.4368 161.3109 127.8243 C 159.0433 127.2111 155.0468 128.745 148.7671 130.1496 C 145.9963 130.7693 144.6422 130.5209 144.6422 130.5209 C 144.6422 130.5209 162.8704 116.9827 151.7329 103.68 C 141.4991 91.456 127.9904 100.2122 122.5577 104.3302 C 117.2096 108.3832 117.1516 123.5125 118.4829 129.1749 " id="Fill-92" fill="#493C59" stroke-width="1"/>
          <path d="M 144.4706 130.6436 C 144.4706 130.6436 163.3748 117.5899 151.1486 103.1376 C 140.1468 90.1326 123.6033 103.4224 123.6033 103.4224 " id="Stroke-94" stroke="#2A0D37" stroke-width="0.5" fill="none"/>
          <path d="M 122.0957 125.9776 C 122.0957 125.9776 114.4756 134.2279 115.4946 136.0161 C 116.5495 137.8673 120.9959 137.5162 122.7477 137.5162 L 149.1932 137.5162 L 165.075 137.5162 C 165.075 137.5162 165.6141 135.5694 164.5273 132.5887 C 163.4411 129.6079 163.2234 128.3894 161.0504 127.7391 C 158.6271 127.0141 152.3578 129.5546 149.4155 130.0351 C 147.4903 130.3499 146.3539 130.8544 134.157 130.8544 " id="Stroke-96" stroke="#2A0D37" stroke-width="0.5" fill="none"/>
          <path d="M 154.4222 130.8544 C 154.4222 130.8544 154.6257 130.725 155.0175 130.5651 C 155.4106 130.4168 155.9889 130.199 156.7465 130.1769 C 157.1233 130.1821 157.5484 130.2322 157.9663 130.4324 C 158.3783 130.6438 158.7363 131.0066 158.9742 131.4475 C 159.0609 131.6718 159.175 131.9091 159.2337 132.1393 C 159.295 132.3604 159.3563 132.5847 159.4189 132.811 C 159.5258 133.2799 159.6255 133.7669 159.6705 134.265 C 159.6947 134.5134 159.6725 134.7741 159.6738 135.0271 C 159.6177 135.2833 159.6158 135.5466 159.5069 135.7911 L 159.3641 136.1572 C 159.297 136.269 159.222 136.375 159.1503 136.4823 C 159.0218 136.7106 158.8152 136.8562 158.6509 137.037 C 158.5276 137.1469 158.4898 137.1768 158.3327 137.2568 C 158.1906 137.3322 158.0824 137.3582 157.9683 137.394 C 157.7433 137.4564 157.5275 137.4948 157.3176 137.5273 C 156.8997 137.5884 156.5066 137.6105 156.1447 137.6242 C 155.421 137.6528 154.8199 137.6144 154.4014 137.5968 C 153.9815 137.5728 153.7429 137.5429 153.7429 137.5429 C 153.7429 137.5429 153.9815 137.5169 154.3981 137.4707 C 154.8141 137.4323 155.4067 137.3517 156.1102 137.2529 C 156.4603 137.1989 156.8397 137.1345 157.2283 137.0493 C 157.4219 137.0038 157.6182 136.9525 157.8033 136.8842 C 157.8926 136.8484 157.993 136.8107 158.0445 136.7795 C 158.0889 136.773 158.2277 136.6605 158.2629 136.615 C 158.542 136.3185 158.8041 135.994 158.9097 135.5928 C 158.9957 135.4062 158.9873 135.1805 159.0349 134.9764 C 159.027 134.7553 159.0453 134.5381 159.0205 134.3131 C 158.9866 133.8605 158.9032 133.4125 158.8093 132.9651 C 158.7545 132.7376 158.7004 132.5113 158.647 132.2876 C 158.602 132.0698 158.5192 131.8935 158.4585 131.6972 C 158.2799 131.3454 158.0426 131.0515 157.7349 130.857 C 157.4187 130.6789 157.0672 130.5917 156.7315 130.5482 C 156.3925 130.53 156.0724 130.5241 155.7894 130.5618 C 155.5045 130.5891 155.2581 130.6405 155.0559 130.6847 C 154.6504 130.7771 154.4222 130.8544 154.4222 130.8544 " id="Fill-98" fill="#2A0D37" stroke-width="1"/>
        </g>
      </g>
    </g>
  </g>
</svg>