<svg xmlns="http://www.w3.org/2000/svg" xmlns:xlink="http://www.w3.org/1999/xlink" width="29.640323638916016" height="16.178600311279297" viewBox="0.6799352169036865 0.4107000231742859 29.640323638916016 16.178600311279297" version="1.1" xml:space="preserve">
  <g>
    <title>bowtie [fashion]</title>
    <desc>Created with Sketch.</desc>
    <g id="Page-1" stroke="none" fill-rule="evenodd">
      <g id="Group-5">
        <path d="M 19.6731 7.2129 L 19.6731 10.9286 C 19.6912 11.0452 19.6912 11.1641 19.6731 11.2807 C 20.2692 11.9 24.4423 16.065 28.52 16.065 C 29.4635 13.6626 29.9021 11.0856 29.8077 8.5 C 29.8184 6.8062 29.6464 5.1163 29.295 3.4607 C 25.9795 4.4022 22.7581 5.6584 19.6731 7.2129 Z " id="Shape" fill="#14E148" stroke-width="1"/>
        <path d="M 19.6731 7.2129 C 22.7313 5.6633 25.9246 4.4072 29.2115 3.4607 C 29.0415 2.584 28.7776 1.7289 28.4246 0.9107 C 24.3588 0.9107 20.1738 5.0757 19.5777 5.695 C 19.5958 5.8117 19.5958 5.9305 19.5777 6.0471 L 19.6731 7.2129 Z " id="Shape" fill="#ACFF74" stroke-width="1"/>
        <path d="M 28.4604 0.9107 C 24.0727 0.9107 19.53 5.7679 19.53 5.7679 L 19.53 11.2321 C 19.53 11.2321 24.0727 16.0893 28.4604 16.0893 C 29.4275 13.6839 29.8866 11.098 29.8077 8.5 C 29.8866 5.902 29.4275 3.3161 28.4604 0.9107 Z " id="Shape" stroke="#149948" stroke-width="0.96" fill="none"/>
        <g id="Group" stroke-linecap="round" stroke-linejoin="round" stroke="#00B82B">
          <path d="M 24.6927 12.9929 C 23.5098 12.358 22.3916 11.6055 21.3542 10.7464 " id="Shape" stroke-width="0.768" fill="none"/>
          <path d="M 26.97 14.0371 C 26.97 14.0371 26.5885 13.9036 25.9923 13.6607 " id="Shape" stroke-width="0.768" fill="none"/>
        </g>
      </g>
      <g id="Group-4">
        <path d="M 11.3269 6.0714 C 11.3088 5.9548 11.3088 5.8359 11.3269 5.7193 C 10.7308 5.1 6.5577 0.935 2.48 0.935 C 2.1436 1.7165 1.884 2.53 1.705 3.3636 C 5.036 4.2111 8.243 5.5012 11.2435 7.2007 L 11.3269 6.0714 Z " id="Shape" fill="#ACFF74" stroke-width="1"/>
        <path d="M 11.3269 7.2007 C 8.3264 5.5012 5.1194 4.2111 1.7885 3.3636 C 1.4068 5.0485 1.2069 6.7709 1.1923 8.5 C 1.0983 11.0946 1.5411 13.6803 2.4919 16.0893 C 6.5577 16.0893 10.7427 11.9243 11.3388 11.305 C 11.3208 11.1883 11.3208 11.0695 11.3388 10.9529 L 11.3269 7.2007 Z " id="Shape" fill="#14E148" stroke-width="1"/>
        <path d="M 2.5396 0.9107 C 6.9273 0.9107 11.47 5.7679 11.47 5.7679 L 11.47 11.2321 C 11.47 11.2321 6.9273 16.0893 2.5396 16.0893 C 1.5725 13.6839 1.1134 11.098 1.1923 8.5 C 1.1134 5.902 1.5725 3.3161 2.5396 0.9107 Z " id="Shape" stroke="#149948" stroke-width="0.96" fill="none"/>
        <g id="Group-2" stroke-linecap="round" stroke-linejoin="round" stroke="#00B82B">
          <path d="M 8.4654 11.6693 C 8.7847 11.4313 9.0912 11.176 9.3835 10.9043 " id="Shape" stroke-width="0.768" fill="none"/>
          <path d="M 3.9227 14.0371 C 5.127 13.6118 6.2855 13.0625 7.3804 12.3979 " id="Shape" stroke-width="0.768" fill="none"/>
        </g>
      </g>
      <g id="Group-3">
        <path d="M 19.53 11.2321 L 19.53 7.2857 L 11.47 7.2857 L 11.47 11.2321 L 11.3865 11.305 C 11.5339 11.7404 11.9359 12.0328 12.3881 12.0336 L 18.6119 12.0336 C 19.0641 12.0328 19.4661 11.7404 19.6135 11.305 L 19.53 11.2321 Z " id="Shape" fill="#14E148" stroke-width="1"/>
        <path d="M 11.47 5.7679 L 11.47 7.2857 L 19.53 7.2857 L 19.53 5.7679 L 19.6135 5.695 C 19.4661 5.2596 19.0641 4.9672 18.6119 4.9664 L 12.3881 4.9664 C 11.9359 4.9672 11.5339 5.2596 11.3865 5.695 L 11.47 5.7679 Z " id="Shape" fill="#ACFF74" stroke-width="1"/>
        <rect id="Rectangle-path" stroke="#149948" stroke-width="0.96" x="0.3269231" y="0.96642857" width="8.35807692" height="7.06714286" rx="0.924" fill="none" transform="matrix(1,0,0,1,11,4)"/>
      </g>
    </g>
  </g>
</svg>