<svg xmlns="http://www.w3.org/2000/svg" xmlns:xlink="http://www.w3.org/1999/xlink" width="69.86310028076171" height="58.01154922485352" viewBox="0.5529999780654907 0.4667999792098999 69.86310028076171 58.01154922485352" version="1.1" xml:space="preserve">
  <!-- Generator: Sketch 50.2 (55047) - http://www.bohemiancoding.com/sketch -->
  <defs/>
  <g>
    <title>Slice 1</title>
    <desc>Created with Sketch.</desc>
    <g id="Page-1" stroke="none" fill-rule="evenodd">
      <g id="shorts-c-[people,fashion,-pants,shorts,clothing]">
        <g id="Color" fill-rule="nonzero">
          <path d="M 6.3128 19.0042 C 7.5011 13.238 8.9849 7.5374 10.758 1.9253 C 9.2146 1.5837 8.3657 1.3353 8.3657 1.3353 C 8.3657 1.3353 7.3007 4.1455 6.0504 8.6482 C 4.7171 13.5512 3.7268 18.5422 3.087 23.5845 L 3.087 23.9571 C 2.1759 33.2429 1.8974 42.5805 2.2535 51.9045 L 4.6304 52.1684 C 4.507 43.6134 4.6304 27.7611 6.3128 19.0042 Z " id="Shape" fill="#24CE48" stroke-width="1"/>
          <path d="M 68.052 23.6311 L 68.052 23.2429 C 67.3753 18.2378 66.3437 13.2878 64.965 8.4308 C 63.6839 3.8971 62.5726 1.0868 62.5726 1.0868 C 61.8331 1.3947 61.0689 1.6388 60.2883 1.8166 C 62.0716 7.465 63.5656 13.2017 64.7643 19.0042 C 66.3696 27.6679 66.493 43.2718 66.3696 51.8889 L 69.1633 51.5629 C 69.4252 42.2377 69.0539 32.9054 68.052 23.6311 Z " id="Shape" fill="#4BF970" stroke-width="1"/>
          <path d="M 64.6872 19.0042 C 63.4834 13.2015 61.9842 7.4647 60.1957 1.8166 C 58.1923 2.2916 56.1612 2.639 54.1143 2.8568 C 49.0363 3.4624 40.8096 3.9282 35.4228 3.9592 C 29.1857 4.0767 22.9475 3.7914 16.7467 3.1053 C 14.2463 2.7326 12.1163 2.3134 10.758 2.0029 C 8.9849 7.6151 7.5011 13.3156 6.3128 19.0818 C 4.6304 27.7611 4.507 43.6134 4.6304 52.1684 C 13.8914 53.2219 23.2013 53.7817 32.5211 53.8453 C 32.3607 49.7763 32.4381 45.7014 32.7526 41.6416 C 33.123 38.2258 33.5089 34.9963 35.5926 34.9808 C 37.6763 34.9653 37.9696 38.2103 38.3709 41.6105 C 38.7234 45.6681 38.8368 49.7431 38.7104 53.8142 C 47.9575 53.6637 57.1901 53.021 66.3696 51.8889 C 66.493 43.2718 66.3696 27.6679 64.6872 19.0042 Z " id="Shape" fill="#14E148" stroke-width="1"/>
        </g>
        <path d="M 68.0057 23.2895 C 65.4002 23.1773 62.9625 21.9654 61.2915 19.9513 C 58.8683 16.8461 58.2046 10.1232 58.2046 10.1232 L 64.8261 8.4308 C 63.545 3.8971 62.4337 1.0868 62.4337 1.0868 C 59.7444 2.0788 56.9267 2.6749 54.068 2.8568 C 48.99 3.4624 40.7633 3.9282 35.3765 3.9592 C 29.1548 4.0747 22.9322 3.7895 16.7467 3.1053 C 13.9236 2.7002 11.1255 2.1352 8.3657 1.4129 C 8.3657 1.4129 7.3007 4.2232 6.0504 8.7258 L 13.0115 10.3716 C 13.0115 10.3716 12.3478 17.0789 10.0017 20.1842 C 8.2964 22.2731 5.7731 23.5139 3.087 23.5845 L 3.087 23.9571 C 2.1759 33.2429 1.8974 42.5805 2.2535 51.9045 C 12.3213 53.1003 22.4456 53.7533 32.5828 53.8608 C 32.4225 49.7918 32.4998 45.7169 32.8143 41.6571 C 33.1848 38.2413 33.5707 35.0118 35.6543 34.9963 C 37.738 34.9808 38.0313 38.2258 38.4326 41.6261 C 38.7852 45.6836 38.8986 49.7587 38.7722 53.8297 C 48.9554 53.6174 59.1204 52.866 69.225 51.5784 C 69.4877 42.248 69.1164 32.9105 68.1137 23.6311 L 68.0057 23.2895 Z " id="Shape" stroke="#149948" stroke-width="1.24" stroke-linecap="round" stroke-linejoin="round" fill="none"/>
        <path d="M 1.173 50.0879 L 1.173 55.1961 C 1.173 55.1961 5.6028 56.7487 16.3146 57.4163 C 27.8752 58.0529 33.4317 57.7424 33.4317 57.7424 L 33.4317 52.1839 C 33.4317 52.1839 24.6339 52.4634 16.3146 51.9511 C 11.2293 51.6988 6.1688 51.0761 1.173 50.0879 Z " id="Shape" stroke="#149948" stroke-width="1.24" fill="#FFFFFF" fill-rule="nonzero" stroke-linecap="round" stroke-linejoin="round"/>
        <path d="M 69.7961 49.6842 L 69.7961 54.7924 C 64.8232 55.9788 59.7658 56.773 54.67 57.1679 C 49.14 57.8401 43.5621 58.022 38.0004 57.7113 L 38.0004 52.0908 C 38.0004 52.0908 46.3661 52.215 54.67 51.6095 C 59.7486 51.3031 64.8016 50.66 69.7961 49.6842 Z " id="Shape" stroke="#149948" stroke-width="1.24" fill="#FFFFFF" fill-rule="nonzero" stroke-linecap="round" stroke-linejoin="round"/>
        <g id="Details" stroke-linecap="round" stroke-linejoin="round" stroke="#149948">
          <path d="M 35.5926 34.9808 L 35.4383 3.9282 L 40.0687 3.9282 C 40.0687 3.9282 40.3465 19.0197 39.9452 24.3763 C 39.5439 29.7329 35.5926 30.8042 35.5926 30.8042 " id="Shape" stroke-width="1.24" fill="#14E148" fill-rule="nonzero"/>
          <path d="M 10.0017 20.1842 C 12.3941 17.0789 13.0887 10.3405 13.0887 10.3405 L 6.1276 8.6947 C 4.7703 13.5806 3.7543 18.556 3.087 23.5845 C 5.7731 23.5139 8.2964 22.2731 10.0017 20.1842 Z " id="Shape" stroke-width="1.24" fill="none"/>
          <path d="M 61.2915 19.9047 C 62.954 21.9362 65.3929 23.1657 68.0057 23.2895 C 67.329 18.2844 66.2974 13.3344 64.9187 8.4774 L 58.2354 10.1232 C 58.2354 10.1232 58.8683 16.7995 61.2915 19.9047 Z " id="Shape" stroke-width="1.24" fill="none"/>
          <path d="M 15.0489 12.8247 C 15.0489 12.8247 14.3389 25.6961 3.0715 25.8358 " id="Shape" stroke-width="0.8215" stroke-dasharray="1.642999911308289" fill="none"/>
          <path d="M 56.1826 12.685 C 56.1826 12.685 56.8926 25.5563 68.16 25.6961 " id="Shape" stroke-width="0.8215" stroke-dasharray="1.642999911308289" fill="none"/>
        </g>
        <g id="Belt" stroke-linecap="round" stroke-linejoin="round" fill-rule="nonzero" stroke="#149948">
          <path d="M 64.2859 3.2605 C 59.5302 4.5938 54.6635 5.4877 49.7463 5.9311 C 45.7796 6.3347 39.6674 6.4124 35.4537 6.4434 C 31.24 6.4745 25.1278 6.4434 21.1611 6.0708 C 16.2371 5.6807 11.3596 4.8335 6.5907 3.54 L 4.7076 9.3158 C 10.0264 10.747 15.4513 11.7439 20.9296 12.2968 C 28.647 12.9024 35.4846 12.7471 35.4846 12.7471 C 35.4846 12.7471 42.3993 12.8403 50.0396 12.1416 C 55.5106 11.5447 60.9251 10.5062 66.2307 9.0363 L 64.2859 3.2605 Z " id="Shape" stroke-width="1.24" fill="#149948"/>
          <path d="M 16.4226 2.1737 C 16.4226 2.1737 15.5583 8.0116 15.0489 12.8247 L 18.568 13.1818 C 18.568 13.1818 19.6639 4.5958 19.8028 2.3134 L 16.4226 2.1737 Z " id="Shape" stroke-width="0.992" fill="#ACFF74"/>
          <path d="M 54.7009 1.9874 C 54.7009 1.9874 55.627 7.8097 56.2443 12.6229 L 52.7407 13.0111 C 52.7407 13.0111 51.5522 4.4405 51.3978 2.2358 L 54.7009 1.9874 Z " id="Shape" stroke-width="0.992" fill="#ACFF74"/>
        </g>
        <g id="Pattern" stroke-linecap="round" stroke-linejoin="round" stroke="#24CE48">
          <path d="M 15.265 28.9566 L 17.3178 30.1987 " id="Shape" stroke-width="0.8215" fill="none"/>
          <path d="M 17.4259 38.35 L 19.5713 37.3097 " id="Shape" stroke-width="0.8215" fill="none"/>
          <path d="M 23.8467 42.8216 L 25.9613 43.9239 " id="Shape" stroke-width="0.8215" fill="none"/>
          <path d="M 26.7485 32.745 L 27.7054 34.9497 " id="Shape" stroke-width="0.8215" fill="none"/>
          <path d="M 24.958 25.3389 L 24.2789 27.6368 " id="Shape" stroke-width="0.8215" fill="none"/>
          <path d="M 22.0717 18.9887 L 19.7102 19.3924 " id="Shape" stroke-width="0.8215" fill="none"/>
          <path d="M 29.9743 18.3987 L 31.1628 20.4792 " id="Shape" stroke-width="0.8215" fill="none"/>
          <path d="M 12.9035 45.8337 L 13.1196 43.4426 " id="Shape" stroke-width="0.8215" fill="none"/>
          <path d="M 8.5046 37.2787 L 9.6159 35.1516 " id="Shape" stroke-width="0.8215" fill="none"/>
          <path d="M 56.337 29.7484 L 54.2996 30.975 " id="Shape" stroke-width="0.8215" fill="none"/>
          <path d="M 53.3272 38.7226 L 51.1663 37.6824 " id="Shape" stroke-width="0.8215" fill="none"/>
          <path d="M 47.7707 43.5979 L 45.6561 44.7158 " id="Shape" stroke-width="0.8215" fill="none"/>
          <path d="M 44.0046 33.5679 L 43.0476 35.7726 " id="Shape" stroke-width="0.8215" fill="none"/>
          <path d="M 46.6439 26.1153 L 47.323 28.4287 " id="Shape" stroke-width="0.8215" fill="none"/>
          <path d="M 52.2622 22.3424 L 54.6083 22.7461 " id="Shape" stroke-width="0.8215" fill="none"/>
          <path d="M 45.6407 16.815 L 44.4522 18.8955 " id="Shape" stroke-width="0.8215" fill="none"/>
          <path d="M 58.7139 46.6255 L 58.4978 44.2345 " id="Shape" stroke-width="0.8215" fill="none"/>
          <path d="M 63.0974 38.0705 L 61.9861 35.9434 " id="Shape" stroke-width="0.8215" fill="none"/>
        </g>
      </g>
    </g>
  </g>
</svg>