<svg xmlns="http://www.w3.org/2000/svg" xmlns:xlink="http://www.w3.org/1999/xlink" version="1.1" width="98.65277829738855" height="187.6772533950448" viewBox="-0.2865591792881492 0.1788468809306618 98.65277829738855 187.6772533950448">
  <!-- Exported by Scratch - http://scratch.mit.edu/ -->
  <g id="ID0.550294317305088">
    <path id="ID0.3859007330611348" fill="#00A3A6" d="M 0.5695 104.7615 C 1.7913 117.7936 7.8186 147.8489 46.3447 146.3827 C 70.0469 145.4868 83.4048 127.4047 87.3959 111.2775 C 91.3869 95.1503 90.6539 59.312 89.8394 48.5605 C 88.2918 27.6277 70.6985 9.7086 47.3222 9.7086 C 25.7377 9.7086 4.8049 21.9262 2.0356 47.8275 C -0.5708 72.0998 0.0808 99.7115 0.5695 104.7615 Z " stroke-width="0.8145062026619918"/>
    <path id="ID0.7298086956143379" fill="#597933" d="M 79.0879 102.8067 C 78.8435 102.8067 78.5992 102.7252 78.4363 102.4809 C 78.1105 102.1551 78.1919 101.5849 78.5177 101.3405 C 78.5992 101.2591 90.0837 91.485 96.4369 81.8739 C 96.6812 81.4666 97.1699 81.3851 97.5772 81.6295 C 97.9844 81.8739 98.0659 82.3626 97.8215 82.7698 C 91.3869 92.5439 79.7395 102.4809 79.6581 102.5623 C 79.4951 102.7252 79.2508 102.8067 79.0879 102.8067 Z " stroke-width="0.8145062026619918"/>
    <path id="ID0.947684551589191" fill="#597933" d="M 50.4173 24.3697 C 50.0915 24.3697 49.7657 24.2068 49.6842 23.881 C 45.2044 13.3739 44.3085 1.5635 44.3085 1.4821 C 44.3085 0.9934 44.6343 0.6676 45.0415 0.5861 C 45.5302 0.5861 45.856 0.9119 45.9375 1.3192 C 45.9375 1.4006 46.8335 12.9666 51.2318 23.2294 C 51.3947 23.6367 51.2318 24.1254 50.8245 24.2883 C 50.5802 24.2883 50.4987 24.3697 50.4173 24.3697 Z " stroke-width="0.8145062026619918"/>
    <g id="ID0.05148568330332637">
      <path id="ID0.24444019235670567" fill="#008994" d="M 43.9012 124.554 C 26.6337 124.554 11.2395 117.142 0.5695 105.4131 C 1.9542 118.771 8.3888 147.8489 46.2633 146.4642 C 69.9654 145.5682 83.3233 127.4862 87.3144 111.359 C 87.8846 109.1598 88.2918 106.5534 88.6991 103.7026 C 78.1105 116.4089 61.9833 124.554 43.9012 124.554 Z " stroke-width="0.8145062026619918"/>
      <path id="ID0.6204115836881101" fill="#658542" d="M 45.4488 9.7901 C 46.2633 13.944 47.5665 18.994 49.6028 23.881 C 49.7657 24.2068 50.01 24.3697 50.3358 24.3697 C 50.4173 24.3697 50.5802 24.3697 50.6616 24.2883 C 51.0689 24.1254 51.2318 23.6367 51.0689 23.2294 C 49.1141 18.5867 47.8109 13.6997 47.0778 9.7901 C 46.5891 9.7086 46.0189 9.7086 45.4488 9.7901 Z " stroke-width="0.8145062026619918"/>
      <path id="ID0.6880362373776734" fill="#658542" d="M 89.7579 92.7882 C 89.8394 91.9737 89.8394 91.0778 89.9208 90.1818 C 84.3822 96.3721 78.5992 101.2591 78.5177 101.3405 C 78.1919 101.6664 78.1105 102.1551 78.4363 102.4809 C 78.5992 102.6438 78.8435 102.8067 79.0879 102.8067 C 79.2508 102.8067 79.4951 102.7252 79.5766 102.6438 C 79.6581 102.5623 84.6265 98.4083 89.7579 92.7882 Z " stroke-width="0.8145062026619918"/>
      <path id="ID0.22185335354879498" fill="#658542" d="M 90.4095 68.7603 C 90.4095 68.353 90.4095 67.9458 90.4095 67.62 C 85.8483 72.4256 81.2871 75.928 81.2871 76.0094 C 81.1242 76.1723 81.0427 76.4167 81.2056 76.5796 C 81.2871 76.661 81.3685 76.7425 81.5314 76.7425 C 81.6129 76.7425 81.6943 76.7425 81.7758 76.661 C 81.8572 76.5796 86.0112 73.3215 90.4095 68.7603 Z " stroke-width="0.8145062026619918"/>
    </g>
    <path id="ID0.6895963493734598" fill="#668543" d="M 32.9054 101.2591 L 41.9464 99.7115 C 41.9464 99.7115 40.236 119.4226 41.865 133.8393 C 48.8697 122.8435 60.843 118.9339 65.4856 96.0463 L 72.7347 96.535 C 71.9202 116.4904 56.2817 126.8346 49.8471 140.5183 C 43.4125 154.202 46.1004 186.375 46.1004 186.375 C 46.1004 186.375 42.4351 187.5968 36.4078 187.4339 C 31.2764 162.0213 29.8917 121.3774 32.9054 101.2591 Z " stroke-width="0.8145062026619918"/>
    <path id="ID0.32222417602315545" fill="#658542" d="M 27.8555 56.5427 C 27.774 56.5427 27.774 56.5427 27.6926 56.5427 C 19.7918 52.796 12.3798 43.5921 12.2984 43.5106 C 12.1355 43.3477 12.2169 43.1034 12.3798 42.9405 C 12.5427 42.7776 12.7871 42.859 12.95 43.0219 C 13.0314 43.1034 20.362 52.2258 28.0998 55.8911 C 28.2627 55.9726 28.4256 56.2169 28.2627 56.4613 C 28.1813 56.3798 28.0184 56.5427 27.8555 56.5427 Z " stroke-width="0.8145062026619918"/>
    <path id="ID0.7736222739331424" fill="#658542" d="M 52.3721 47.5017 C 52.2092 47.5017 51.9648 47.4202 51.8019 47.2573 C 51.4761 46.9315 51.4761 46.4428 51.7205 46.117 C 57.9922 39.1937 62.5534 26.9761 62.5534 26.8947 C 62.7163 26.4874 63.205 26.2431 63.6123 26.406 C 64.0195 26.5689 64.2639 27.0576 64.101 27.4648 C 63.9381 27.9535 59.3768 40.0082 52.9422 47.1759 C 52.7793 47.3388 52.535 47.5017 52.3721 47.5017 Z " stroke-width="0.8145062026619918"/>
    <path id="ID0.05090508842840791" fill="#00D9F9" d="M 18.5701 56.7056 C 19.3113 56.7056 19.9833 57.007 20.4703 57.4932 C 20.9566 57.9803 21.258 58.6523 21.258 59.3935 C 21.258 60.1347 20.9566 60.8066 20.4703 61.2937 C 19.9833 61.78 19.3113 62.0813 18.5701 62.0813 C 17.8289 62.0813 17.1569 61.78 16.6698 61.2937 C 16.1836 60.8066 15.8822 60.1347 15.8822 59.3935 C 15.8822 58.6523 16.1836 57.9803 16.6698 57.4932 C 17.1569 57.007 17.8289 56.7056 18.5701 56.7056 Z " stroke-width="0.8145062026619918"/>
    <path id="ID0.632450308650732" fill="#00D9F9" d="M 14.4161 62.733 C 15.0905 62.733 15.7014 63.0066 16.1437 63.4489 C 16.5859 63.8912 16.8596 64.5021 16.8596 65.1765 C 16.8596 65.8509 16.5859 66.4618 16.1437 66.904 C 15.7014 67.3463 15.0905 67.62 14.4161 67.62 C 13.7417 67.62 13.1308 67.3463 12.6885 66.904 C 12.2463 66.4618 11.9726 65.8509 11.9726 65.1765 C 11.9726 64.5021 12.2463 63.8912 12.6885 63.4489 C 13.1308 63.0066 13.7417 62.733 14.4161 62.733 Z " stroke-width="0.8145062026619918"/>
    <path id="ID0.5379299973137677" fill="#00D9F9" d="M 20.7693 63.7918 C 21.4437 63.7918 22.0545 64.0655 22.4968 64.5078 C 22.9391 64.95 23.2128 65.5609 23.2128 66.2353 C 23.2128 66.9097 22.9391 67.5206 22.4968 67.9629 C 22.0545 68.4052 21.4437 68.6789 20.7693 68.6789 C 20.0948 68.6789 19.484 68.4052 19.0417 67.9629 C 18.5994 67.5206 18.3257 66.9097 18.3257 66.2353 C 18.3257 65.5609 18.5994 64.95 19.0417 64.5078 C 19.484 64.0655 20.0948 63.7918 20.7693 63.7918 Z " stroke-width="0.8145062026619918"/>
    <path id="ID0.361918181180954" fill="#00D9F9" d="M 62.3091 44.4066 C 62.9835 44.4066 63.5944 44.6802 64.0366 45.1225 C 64.4789 45.5648 64.7526 46.1757 64.7526 46.8501 C 64.7526 47.5245 64.4789 48.1354 64.0366 48.5777 C 63.5944 49.0199 62.9835 49.2936 62.3091 49.2936 C 61.6347 49.2936 61.0238 49.0199 60.5815 48.5777 C 60.1392 48.1354 59.8656 47.5245 59.8656 46.8501 C 59.8656 46.1757 60.1392 45.5648 60.5815 45.1225 C 61.0238 44.6802 61.6347 44.4066 62.3091 44.4066 Z " stroke-width="0.8145062026619918"/>
    <path id="ID0.18709017150104046" fill="#00D9F9" d="M 69.884 46.3614 C 70.5584 46.3614 71.1693 46.6351 71.6115 47.0773 C 72.0538 47.5196 72.3275 48.1305 72.3275 48.8049 C 72.3275 49.4793 72.0538 50.0902 71.6115 50.5325 C 71.1693 50.9747 70.5584 51.2484 69.884 51.2484 C 69.2096 51.2484 68.5987 50.9747 68.1564 50.5325 C 67.7141 50.0902 67.4405 49.4793 67.4405 48.8049 C 67.4405 48.1305 67.7141 47.5196 68.1564 47.0773 C 68.5987 46.6351 69.2096 46.3614 69.884 46.3614 Z " stroke-width="0.8145062026619918"/>
    <path id="ID0.17630170844495296" fill="#00D9F9" d="M 63.6123 52.2258 C 64.2411 52.2258 64.8112 52.4816 65.2242 52.8945 C 65.6371 53.3075 65.8929 53.8776 65.8929 54.5064 C 65.8929 55.1352 65.6371 55.7054 65.2242 56.1183 C 64.8112 56.5313 64.2411 56.7871 63.6123 56.7871 C 62.9835 56.7871 62.4133 56.5313 62.0004 56.1183 C 61.5874 55.7054 61.3317 55.1352 61.3317 54.5064 C 61.3317 53.8776 61.5874 53.3075 62.0004 52.8945 C 62.4133 52.4816 62.9835 52.2258 63.6123 52.2258 Z " stroke-width="0.8145062026619918"/>
    <path id="ID0.502802615519613" fill="#00D9F9" d="M 22.9684 9.7086 C 23.5972 9.7086 24.1674 9.9644 24.5803 10.3773 C 24.9933 10.7903 25.249 11.3604 25.249 11.9892 C 25.249 12.618 24.9933 13.1882 24.5803 13.6011 C 24.1674 14.0141 23.5972 14.2698 22.9684 14.2698 C 22.3396 14.2698 21.7695 14.0141 21.3565 13.6011 C 20.9436 13.1882 20.6878 12.618 20.6878 11.9892 C 20.6878 11.3604 20.9436 10.7903 21.3565 10.3773 C 21.7695 9.9644 22.3396 9.7086 22.9684 9.7086 Z " stroke-width="0.8145062026619918"/>
    <path id="ID0.693880258128047" fill="#00D9F9" d="M 29.6474 10.7675 C 30.3218 10.7675 30.9327 11.0411 31.3749 11.4834 C 31.8172 11.9257 32.0909 12.5366 32.0909 13.211 C 32.0909 13.8854 31.8172 14.4963 31.3749 14.9385 C 30.9327 15.3808 30.3218 15.6545 29.6474 15.6545 C 28.973 15.6545 28.3621 15.3808 27.9198 14.9385 C 27.4775 14.4963 27.2039 13.8854 27.2039 13.211 C 27.2039 12.5366 27.4775 11.9257 27.9198 11.4834 C 28.3621 11.0411 28.973 10.7675 29.6474 10.7675 Z " stroke-width="0.8145062026619918"/>
    <path id="ID0.7145482078194618" fill="#00D9F9" d="M 25.4934 17.2021 C 26.145 17.2021 26.7355 17.4668 27.1631 17.8944 C 27.5907 18.322 27.8555 18.9125 27.8555 19.5641 C 27.8555 20.2157 27.5907 20.8062 27.1631 21.2339 C 26.7355 21.6615 26.145 21.9262 25.4934 21.9262 C 24.8418 21.9262 24.2513 21.6615 23.8237 21.2339 C 23.396 20.8062 23.1313 20.2157 23.1313 19.5641 C 23.1313 18.9125 23.396 18.322 23.8237 17.8944 C 24.2513 17.4668 24.8418 17.2021 25.4934 17.2021 Z " stroke-width="0.8145062026619918"/>
    <path id="ID0.8779263910837471" fill="#658542" d="M 64.9155 85.6206 C 64.7526 85.6206 64.5897 85.5391 64.4268 85.4577 C 56.5261 79.7561 49.1141 64.9321 48.7883 64.362 C 48.6254 63.9547 48.7883 63.466 49.1955 63.3031 C 49.6028 63.1402 50.0915 63.3031 50.2544 63.7104 C 50.3358 63.8733 57.7478 78.6973 65.4042 84.2359 C 65.73 84.4803 65.8114 84.969 65.5671 85.3762 C 65.4042 85.4577 65.1598 85.6206 64.9155 85.6206 Z " stroke-width="0.8145062026619918"/>
    <path id="ID0.06188164837658405" fill="#597933" d="M 81.5314 76.7425 C 81.45 76.7425 81.2871 76.661 81.2056 76.5796 C 81.0427 76.4167 81.1242 76.1723 81.2871 76.0094 C 81.3685 75.928 90.491 68.8418 95.9482 60.941 C 96.1111 60.7781 96.3554 60.6967 96.5183 60.8596 C 96.6812 61.0225 96.7627 61.2668 96.5998 61.4297 C 91.0611 69.4119 81.8572 76.5796 81.7758 76.661 C 81.6943 76.661 81.6129 76.7425 81.5314 76.7425 Z " stroke-width="0.8145062026619918"/>
    <path id="ID0.8177636587060988" fill="#658542" d="M 26.3893 104.2728 C 26.2264 104.2728 26.145 104.2728 26.0635 104.1913 C 17.9999 100.1188 7.8186 84.969 7.3299 84.3174 C 7.0855 83.9101 7.167 83.4214 7.5743 83.1771 C 7.9815 82.9327 8.4702 83.0142 8.7146 83.4214 C 8.796 83.5843 19.0588 98.897 26.7966 102.7252 C 27.2039 102.8881 27.3668 103.3768 27.1224 103.7841 C 27.041 104.1099 26.7151 104.2728 26.3893 104.2728 Z " stroke-width="0.8145062026619918"/>
    <path id="ID0.11684365104883909" fill="#658542" d="M 17.3483 96.2092 C 17.104 96.2092 16.9411 96.0463 16.9411 95.8019 C 16.4524 89.5302 13.8459 83.4214 13.8459 83.34 C 13.7645 83.0956 13.8459 82.9327 14.0903 82.7698 C 14.3347 82.6069 14.4976 82.7698 14.6605 83.0142 C 14.6605 83.0956 17.3483 89.2859 17.837 95.7205 C 17.7556 95.9648 17.5927 96.2092 17.3483 96.2092 C 17.3483 96.2092 17.3483 96.2092 17.3483 96.2092 Z " stroke-width="0.8145062026619918"/>
    <path id="ID0.11691076727584004" fill="#658542" d="M 22.8055 115.4315 C 22.7241 115.4315 22.7241 115.4315 22.6426 115.4315 C 14.8234 112.3364 6.6783 106.6348 6.5968 106.5534 C 6.4339 106.3905 6.3525 106.1461 6.5154 105.9832 C 6.6783 105.8203 6.9226 105.7389 7.0855 105.9018 C 7.167 105.9832 15.2306 111.6033 22.9684 114.6985 C 23.2128 114.7799 23.2942 115.0243 23.2128 115.1872 C 23.1313 115.3501 22.9684 115.4315 22.8055 115.4315 Z " stroke-width="0.8145062026619918"/>
    <path id="ID0.7919257855974138" fill="#6F7138" d="M 36.815 177.9041 C 36.6521 177.9041 36.5707 177.8227 36.4892 177.6598 C 35.0231 167.7228 34.0457 149.8851 34.0457 149.7222 C 34.0457 149.5593 34.1272 149.3964 34.3715 149.3964 C 34.5344 149.3964 34.6973 149.4779 34.6973 149.7222 C 34.6973 149.8851 35.6747 167.7228 37.1408 177.6598 C 37.1408 177.7412 37.0594 177.9041 36.815 177.9041 C 36.815 177.9041 36.815 177.9041 36.815 177.9041 Z " stroke-width="0.8145062026619918"/>
    <path id="ID0.15677868807688355" fill="#6F7138" d="M 38.7698 166.9897 C 38.7698 166.8268 38.6069 166.6639 38.444 166.7454 C 38.2811 166.7454 38.1182 166.9083 38.1997 167.0712 C 38.1997 167.2341 39.1771 181.1622 40.236 187.4339 C 40.4803 187.4339 40.6432 187.4339 40.8876 187.3524 C 39.7472 181.1622 38.7698 167.1527 38.7698 166.9897 Z " stroke-width="0.8145062026619918"/>
    <path id="ID0.2363038375042379" fill="#6F7138" d="M 62.8792 111.359 C 62.9607 111.359 62.9607 111.359 63.0421 111.359 C 63.1236 111.359 63.2865 111.2775 63.2865 111.1961 C 63.3679 111.1146 67.359 103.8655 67.9292 96.1277 L 67.359 96.1277 C 66.7889 103.7026 62.7978 110.8703 62.7978 110.9517 C 62.6349 111.1146 62.7163 111.2775 62.8792 111.359 Z " stroke-width="0.8145062026619918"/>
    <path id="ID0.13449593726545572" fill="#6F7138" d="M 41.9464 142.5546 C 41.9464 142.5546 41.865 142.5546 41.865 142.5546 C 41.7021 142.4731 41.6206 142.3102 41.7021 142.1473 C 46.4262 130.7442 54.6527 124.8798 54.7342 124.7983 C 54.8971 124.7169 55.06 124.7169 55.1414 124.8798 C 55.2229 125.0427 55.2229 125.2056 55.06 125.287 C 54.9785 125.3685 46.9149 131.1515 42.1908 142.3917 C 42.1908 142.4731 42.1093 142.5546 41.9464 142.5546 Z " stroke-width="0.8145062026619918"/>
    <path id="ID0.9665087992325425" fill="#6F7138" d="M 52.8608 130.9071 C 52.7793 130.9071 52.6979 130.9071 52.6164 130.8257 C 52.535 130.7442 52.4535 130.4999 52.6164 130.4184 C 66.7889 115.6759 68.255 105.0058 68.3364 104.9244 C 68.3364 104.7615 68.4993 104.5986 68.6622 104.68 C 68.8251 104.68 68.988 104.8429 68.9066 105.0058 C 68.9066 105.0873 67.359 116.0017 53.0237 130.9071 C 53.0237 130.8257 52.9422 130.9071 52.8608 130.9071 Z " stroke-width="0.8145062026619918"/>
    <path id="ID0.47477131709456444" fill="#6F7138" d="M 35.9191 100.6889 C 35.1046 108.101 35.1046 117.9565 35.1046 118.1194 C 35.1046 118.2823 35.2675 118.4452 35.4304 118.4452 C 35.5933 118.4452 35.7562 118.2823 35.7562 118.1194 C 35.7562 118.0379 35.7562 108.0195 36.5707 100.6075 L 35.9191 100.6889 Z " stroke-width="0.8145062026619918"/>
    <path id="ID0.817719716578722" fill="#6F7138" d="M 38.0368 111.6848 C 38.0368 111.6848 38.1182 111.6848 38.0368 111.6848 C 38.1997 111.6848 38.3626 111.5219 38.3626 111.359 C 38.3626 111.2775 38.6884 105.1687 39.1771 100.1188 L 38.5255 100.2002 C 38.0368 105.2502 37.711 111.2775 37.711 111.359 C 37.7924 111.6033 37.8739 111.6848 38.0368 111.6848 Z " stroke-width="0.8145062026619918"/>
    <path id="ID0.8305955952964723" fill="#6F7138" d="M 38.2811 158.4374 C 38.1182 158.4374 37.9553 158.2745 37.9553 158.1116 C 37.8739 153.0617 37.1408 148.1747 36.2449 142.9618 C 35.186 136.6087 34.1272 130.0112 34.2901 122.5177 C 34.2901 122.3548 34.453 122.1919 34.6159 122.1919 C 34.7788 122.1919 34.9417 122.3548 34.9417 122.5177 C 34.7788 130.0112 35.8376 136.5272 36.8965 142.8804 C 37.711 148.0932 38.5255 153.0617 38.6069 158.1116 C 38.6069 158.2745 38.444 158.4374 38.2811 158.4374 C 38.2811 158.4374 38.2811 158.4374 38.2811 158.4374 Z " stroke-width="0.8145062026619918"/>
    <path id="ID0.6774556548334658" fill="#6F7138" d="M 42.8424 169.8405 C 42.6795 169.8405 42.5166 169.7591 42.5166 169.5962 C 40.3989 150.048 45.123 140.7626 45.2044 140.6812 C 45.2859 140.5183 45.4488 140.4368 45.6117 140.5183 C 45.7746 140.5997 45.856 140.7626 45.7746 140.9256 C 45.6931 141.007 41.0505 150.1295 43.1682 169.4333 C 43.1682 169.6776 43.0867 169.8405 42.8424 169.8405 C 42.8424 169.8405 42.8424 169.8405 42.8424 169.8405 Z " stroke-width="0.8145062026619918"/>
  </g>
</svg>