<svg xmlns="http://www.w3.org/2000/svg" xmlns:xlink="http://www.w3.org/1999/xlink" version="1.1" width="124.6006076335907" height="77.29911684989929" viewBox="-0.18101990222930908 -0.18171021342277527 124.6006076335907 77.29911684989929">
  <!-- Exported by Scratch - http://scratch.mit.edu/ -->
  <g id="ID0.9941649297252297">
    <g id="Large_Rock">
      <g id="Rock_1_">
        <path id="ID0.9607255985029042" fill="#91B6C5" d="M 101.3176 65.6993 C 95.5041 65.6993 88.2118 65.6163 81.1589 65.5367 C 75.3865 65.471 69.9332 65.4093 65.9275 65.4014 C 65.3669 65.4226 64.596 65.4332 63.6825 65.4332 C 53.7172 65.4332 26.4208 64.2032 26.1461 64.1906 C 24.7934 64.1979 23.0685 64.3426 21.2428 64.4965 C 19.0449 64.6809 16.5531 64.8912 14.1648 64.8912 C 9.2654 64.8912 2.5921 64.1289 1.2121 57.5345 C 0.8944 56.0153 1.7216 53.6801 2.679 50.9766 C 3.3948 48.9565 4.1345 46.8681 4.161 45.595 C 4.1862 44.4114 4.0396 42.9818 3.8844 41.4685 C 3.5056 37.7772 3.0763 33.593 4.9598 30.8538 C 6.9919 27.8962 10.5279 25.8118 13.6473 23.9728 C 15.9169 22.6346 18.0604 21.3708 19.1497 20.0453 C 20.2934 18.6535 21.2249 17.1243 22.1258 15.6448 C 24.0816 12.4339 25.9285 9.4007 29.6039 8.1475 C 31.0216 7.6639 32.4095 7.429 33.8451 7.429 C 35.8354 7.429 37.6843 7.8775 39.6414 8.3519 C 42.0118 8.9264 44.4638 9.5208 47.692 9.5208 C 49.0985 9.5208 50.5116 9.4087 52.0116 9.1772 C 58.0746 8.2431 59.9899 6.8711 62.0179 5.4182 C 64.1409 3.8977 66.3361 2.3247 72.9272 1.4311 C 74.3277 1.2407 75.7129 1.1445 77.0444 1.1445 C 89.8564 1.1445 99.0076 10.2274 100.3603 24.2846 C 100.909 29.996 105.2172 31.8914 110.2055 34.0853 C 114.0347 35.7697 117.9947 37.5118 120.5462 41.1879 C 124.3596 46.6836 123.2218 51.5518 121.5964 54.6679 C 118.3244 60.9372 110.1517 65.6794 102.5848 65.6966 L 101.3176 65.6993 L 101.3176 65.6993 Z " stroke-width="0.6634204387664795"/>
        <path id="ID0.9454199550673366" d="M 77.0464 2.1403 C 90.5583 2.1403 98.2055 12.2568 99.3712 24.3801 C 100.4207 35.298 114.0858 33.6229 119.7302 41.7557 C 127.7934 53.3762 113.6387 64.6763 102.5834 64.7021 C 102.1708 64.7035 101.7489 64.7035 101.3183 64.7035 C 90.6936 64.7035 74.7755 64.4228 65.9295 64.4056 C 65.3397 64.4268 64.5814 64.4374 63.6825 64.4374 C 53.6243 64.4374 26.1912 63.1962 26.1912 63.1962 C 23.0234 63.2101 18.471 63.8954 14.1648 63.8954 C 8.5283 63.8954 3.3145 62.7205 2.186 57.3302 C 1.6971 54.9883 5.0918 48.6779 5.1568 45.6149 C 5.2451 41.4824 3.3815 34.9053 5.7798 31.4177 C 9.1566 26.505 17.1574 24.0371 19.9186 20.6776 C 23.5402 16.2705 24.9633 10.7813 29.9256 9.0896 C 31.3341 8.6093 32.6138 8.4248 33.8458 8.4248 C 37.9888 8.4248 41.5879 10.5166 47.6934 10.5166 C 49.0487 10.5166 50.5288 10.4131 52.1648 10.161 C 64.8434 8.2086 60.4549 4.1279 73.0626 2.4176 C 74.4431 2.2305 75.77 2.1403 77.0464 2.1403 M 77.0464 0.15 C 75.6705 0.15 74.2408 0.2495 72.7952 0.4452 C 65.96 1.3727 63.6626 3.018 61.4408 4.6095 C 59.5122 5.9914 57.6898 7.2964 51.8623 8.194 C 50.4121 8.4175 49.0487 8.5257 47.694 8.5257 C 44.5839 8.5257 42.1916 7.9452 39.8776 7.3846 C 37.8608 6.8957 35.9561 6.4339 33.8471 6.4339 C 32.3 6.4339 30.8073 6.686 29.2848 7.2055 C 25.2678 8.5748 23.239 11.9051 21.2773 15.1267 C 20.3943 16.577 19.4807 18.0756 18.3821 19.4131 C 17.4042 20.6026 15.3344 21.8226 13.1431 23.115 C 9.9341 25.007 6.2973 27.1512 4.1398 30.2905 C 2.0494 33.3303 2.4985 37.7076 2.8952 41.5693 C 3.0472 43.0514 3.1911 44.4512 3.1672 45.5724 C 3.144 46.6863 2.399 48.7893 1.7422 50.6443 C 0.7345 53.489 -0.1353 55.9456 0.2396 57.7375 C 1.9446 65.8857 11.1429 65.8857 14.1654 65.8857 C 16.5955 65.8857 19.1092 65.6747 21.3264 65.4876 C 23.111 65.337 24.7974 65.1957 26.1521 65.1864 C 27.4862 65.2468 53.899 66.4277 63.6825 66.4277 C 64.6073 66.4277 65.3742 66.4164 65.9633 66.3958 C 69.9611 66.4045 75.3958 66.4655 81.149 66.5312 C 88.2045 66.6108 95.5001 66.6937 101.3183 66.6937 L 102.5881 66.6924 C 110.4987 66.6738 119.0495 61.7028 122.4794 55.129 C 124.9573 50.3802 124.5619 45.2274 121.3649 40.6213 C 118.6535 36.7138 114.3791 34.8336 110.6075 33.1744 C 105.1748 30.7848 101.8212 29.0718 101.3521 24.189 C 100.7046 17.4633 98.2659 11.6438 94.298 7.3607 C 89.9287 2.6438 83.9632 0.15 77.0464 0.15 L 77.0464 0.15 L 77.0464 2.1403 Z " stroke-width="0.6634204387664795" fill="undefined"/>
      </g>
      <path id="Line_6_" fill="#231F20" d="M 31.275 24.4438 C 32.7949 24.8007 33.4338 22.5119 31.9219 22.1052 C 23.2171 19.7607 17.4911 26.9515 11.3333 31.8681 C 10.837 32.2642 11.4706 32.8818 11.9556 32.6742 C 14.9383 31.3918 17.3691 28.8409 19.9697 26.9515 C 23.5044 24.3821 26.9721 23.4308 31.275 24.4438 L 31.275 24.4438 Z " stroke-width="0.6634204387664795"/>
      <path id="Line_5_" fill="#231F20" d="M 18.329 30.8743 C 21.1366 30.6269 23.5548 29.8328 26.1786 28.823 C 29.8261 27.4212 33.2467 27.3847 36.9486 28.6273 C 38.2754 29.0731 38.834 26.9907 37.5225 26.5429 C 30.3443 24.0909 25.007 28.6479 18.2468 30.2779 C 17.921 30.3582 17.9847 30.9048 18.329 30.8743 L 18.329 30.8743 Z " stroke-width="0.6634204387664795"/>
      <path id="Line_4_" fill="#231F20" d="M 89.871 46.0534 C 89.2633 46.5821 90.1443 47.4492 90.7507 46.9331 C 94.7312 43.541 98.3734 39.1306 97.7299 33.5977 C 97.4088 30.8173 94.6476 29.314 94.304 26.6563 C 94.1069 25.1245 94.4088 22.4476 93.4641 21.1274 C 93.0534 20.5522 92.193 20.4613 91.7989 21.1274 C 90.5211 23.2967 91.8765 28.2386 93.2956 30.0776 C 94.3345 31.4263 95.4921 32.0194 96.1045 33.8179 C 96.7706 35.7684 96.4143 37.9039 95.6235 39.7476 C 94.5355 42.2918 91.9117 44.2801 89.871 46.0534 L 89.871 46.0534 Z " stroke-width="0.6634204387664795"/>
      <path id="Line_3_" fill="#231F20" d="M 87.754 51.1584 C 91.3677 50.1268 94.2834 48.1352 97.0552 45.5983 C 98.9366 43.8774 101.3608 40.3838 99.959 37.7965 C 99.6299 37.1914 98.6593 37.3221 98.4948 37.9869 C 98.2679 38.9097 98.3873 39.7814 98.3561 40.7274 C 98.2991 42.4948 96.9802 44.1733 95.867 45.4138 C 93.7626 47.7564 90.2498 49.1363 87.4734 50.4877 C 87.0946 50.6741 87.3626 51.2699 87.754 51.1584 L 87.754 51.1584 Z " stroke-width="0.6634204387664795"/>
      <path id="Line_2_" fill="#231F20" d="M 72.5637 6.8877 C 73.3657 6.8505 73.3425 5.7347 72.5637 5.659 C 69.8775 5.401 67.6789 6.8831 65.554 8.3578 C 62.422 10.5292 59.1347 12.8227 55.4706 14.0228 C 55.4136 14.0407 55.4342 14.1263 55.4939 14.1123 C 58.4069 13.4151 60.7999 12.5752 63.3799 11.0168 C 66.504 9.132 68.7178 7.0655 72.5637 6.8877 L 72.5637 6.8877 Z " stroke-width="0.6634204387664795"/>
    </g>
    <g id="Small_Rock">
      <g id="Rock">
        <path id="ID0.07369212992489338" fill="#5F8BA5" d="M 53.5328 75.7905 C 53.217 75.7905 52.9085 75.7819 52.6067 75.766 C 50.4313 75.6459 48.2838 74.8525 46.2073 74.0856 C 43.9145 73.2377 41.5435 72.3613 39.0981 72.3613 C 38.9866 72.3613 38.8745 72.3627 38.7624 72.3666 C 37.407 72.4111 35.8832 72.7116 34.409 73.0015 C 32.7472 73.3293 31.0282 73.6683 29.4466 73.6683 C 26.7684 73.6683 24.9095 72.6685 23.7631 70.6132 C 21.5387 66.6241 23.3412 64.9874 26.6138 62.0146 C 27.6189 61.1018 28.758 60.0668 30.0643 58.7386 C 30.3575 58.4408 30.7828 57.583 31.2339 56.6741 C 32.9707 53.1726 36.2036 46.6538 44.2927 46.6538 C 50.5182 46.6538 55.6398 51.8663 59.0292 55.3161 C 59.8068 56.1069 60.4788 56.7908 61.0294 57.2725 C 64.1004 59.9593 68.4398 67.868 66.0787 71.2017 C 64.0453 74.0736 58.1024 75.7905 53.5328 75.7905 L 53.5328 75.7905 L 53.5328 75.7905 Z " stroke-width="0.6634204387664795"/>
        <path id="ID0.917163701262325" d="M 44.292 47.6482 C 51.5001 47.6482 57.3919 55.4123 60.3733 58.0208 C 63.3547 60.6294 67.1628 67.9476 65.266 70.6258 C 63.4907 73.1335 57.9014 74.7954 53.5321 74.7954 C 53.2356 74.7954 52.9443 74.7875 52.6611 74.7722 C 48.3064 74.5334 44.0021 71.3662 39.0974 71.3662 C 38.9747 71.3662 38.852 71.3682 38.7292 71.3722 C 35.7505 71.4697 32.312 72.6731 29.446 72.6731 C 27.4451 72.6731 25.7235 72.0867 24.6315 70.1283 C 22.2266 65.816 25.1318 65.1732 30.7735 59.4359 C 32.5296 57.6513 34.5828 47.6482 44.292 47.6482 M 44.292 45.658 C 35.5859 45.658 32.1746 52.5357 30.3423 56.2316 C 29.9907 56.9401 29.5528 57.8225 29.3511 58.044 C 28.0681 59.349 26.9402 60.3733 25.9445 61.2776 C 22.6585 64.2623 20.2841 66.4184 22.8934 71.0975 C 24.2129 73.4633 26.4175 74.6634 29.446 74.6634 C 31.1244 74.6634 32.8918 74.3151 34.6008 73.9781 C 36.1021 73.6829 37.5191 73.4036 38.7942 73.3611 C 38.8957 73.3578 38.9966 73.3565 39.0974 73.3565 C 41.365 73.3565 43.549 74.1638 45.8617 75.0183 C 48.0078 75.8118 50.227 76.6318 52.5516 76.7591 C 52.8687 76.7764 53.1984 76.7857 53.5321 76.7857 C 58.2889 76.7857 64.5874 75.0303 66.8901 71.7755 C 69.8012 67.6663 64.7028 59.1639 61.6836 56.5228 C 61.1615 56.0657 60.502 55.395 59.7384 54.6175 C 56.2329 51.0496 50.9355 45.658 44.292 45.658 L 44.292 45.658 L 44.292 47.6482 Z " stroke-width="0.6634204387664795" fill="undefined"/>
      </g>
      <path id="Line_1_" fill="#231F20" d="M 39.7774 59.6946 C 38.0048 59.1904 36.3529 58.4859 34.618 57.8921 C 34.5052 57.853 34.4143 57.9896 34.4687 58.0865 C 36.1273 60.975 40.7805 60.4927 43.1556 62.6336 C 43.7944 63.2108 44.7451 62.2243 44.0897 61.6995 C 42.8033 60.6705 41.3471 60.1405 39.7774 59.6946 L 39.7774 59.6946 Z " stroke-width="0.6634204387664795"/>
      <path id="Line" fill="#231F20" d="M 41.1852 62.2952 C 40.0654 61.6126 38.7219 61.519 37.4641 61.2729 C 35.7578 60.9372 34.695 60.3481 33.6209 58.9835 C 33.4411 58.7539 33.0829 59.004 33.1532 59.2555 C 33.9957 62.3145 38.5355 61.7021 40.754 63.0336 C 41.2277 63.3176 41.6542 62.5818 41.1852 62.2952 L 41.1852 62.2952 Z " stroke-width="0.6634204387664795"/>
    </g>
  </g>
</svg>