<svg xmlns="http://www.w3.org/2000/svg" xmlns:xlink="http://www.w3.org/1999/xlink" version="1.1" width="149.24806806445122" height="155.6126615703106" viewBox="-0.34443287551403046 0.10696877539157867 149.24806806445122 155.6126615703106">
  <defs>
    <linearGradient id="grad_1" x1="1261.3057" y1="-1383.2051" x2="1268.8572" y2="-1432.0247" gradientUnits="userSpaceOnUse">
      <stop offset="0" stop-color="#FF9900"/>
      <stop offset="1" stop-color="#FFCC99"/>
    </linearGradient>
  <linearGradient id="grad_1-.8573749661445618,0,0,0.8573749661445618,0.3,0.75" x1="1081.7119" y1="-1185.1754" x2="1088.1864" y2="-1227.0321" gradientUnits="userSpaceOnUse">
      <stop offset="0" stop-color="#FF9900"/>
      <stop offset="1" stop-color="#FFCC99"/>
    </linearGradient></defs>
  <!-- Exported by Scratch - http://scratch.mit.edu/ -->
  <g id="ID0.8221628447063267">
    <g id="color">
      <path id="path3914" fill="#FF9900" d="M 121.9889 60.726 C 117.985 67.7444 119.2942 75.1967 119.9055 82.5924 C 118.9015 87.8019 117.3651 92.4771 116.0542 97.3779 C 116.518 104.9759 121.153 108.8358 124.1744 114.1421 C 122.7966 123.1343 121.1084 132.0193 116.1571 139.7553 L 117.7192 145.6918 C 109.984 151.1387 103.5322 147.0053 100.1225 144.4409 L 96.5824 99.5642 C 88.7725 100.6299 80.9636 100.3427 73.1537 99.2512 C 67.7968 107.7178 62.7821 116.4167 61.9307 124.5395 C 60.8272 135.0741 64.8629 144.3423 65.0318 147.7735 C 63.143 150.8198 60.1551 150.5677 57.3274 150.7932 L 55.767 153.3953 C 50.6296 155.6236 45.4922 154.7371 40.3557 152.6657 C 34.7828 141.5052 40.2665 99.1535 49.6231 102.8959 C 44.3682 90.3303 44.1084 77.0898 54.1003 65.8265 C 50.5782 64.2489 44.604 63.1515 43.3762 83.3204 L 42.2299 81.1323 C 40.9018 89.0296 41.2319 97.3684 37.2331 104.6638 L 35.9831 102.7879 C 33.4607 105.6112 28.4896 120.9368 10.1607 112.1607 L 13.1795 111.7449 C 1.4892 106.665 1.5406 100.3701 0.8933 94.1499 C 4.0176 98.6339 16.3912 107.1682 25.5711 98.4187 L 20.5726 98.5225 C 25.2076 97.4122 30.7823 89.3691 33.3964 70.9639 L 30.5679 71.0342 C 39.6175 56.3165 49.0418 55.5731 58.6804 62.8068 C 63.227 60.9969 67.7728 61.1443 72.3204 61.2447 C 78.5638 63.3967 84.7549 66.4464 91.3764 62.1826 L 90.7513 59.788 L 89.0863 61.8705 C 88.271 53.1588 89.2115 44.4478 92.8339 35.736 L 89.2938 37.8186 C 91.3069 32.4377 93.2626 27.02 96.8962 22.7202 C 96.9862 15.8261 96.1057 9.8896 103.9764 1.0629 C 106.7868 2.6225 108.6971 5.6182 110.1203 9.3932 L 118.971 3.9789 L 117.9301 6.6856 C 123.9095 5.1526 127.7462 1.111 142.8154 10.122 L 139.5866 10.0182 C 147.3432 17.462 147.0826 25.2143 147.916 32.9256 L 141.2533 30.6338 C 141.6957 36.8146 142.2376 42.9697 140.5228 49.689 C 148.072 60.3436 127.3107 61.0552 121.9889 60.726 L 121.9889 60.726 Z " stroke-width="0.8573749661445618"/>
      <path id="path3920" fill="#FFFFFF" d="M 125.4767 39.5376 C 125.2907 34.0033 122.5497 31.2263 118.9178 30.687 C 115.3726 30.1597 110.5053 33.5403 110.2755 37.0898 C 109.8785 43.2029 114.6498 48.8993 121.0004 47.7101 C 125.3241 46.9008 125.6174 43.7276 125.4767 39.5376 L 125.4767 39.5376 Z " stroke-width="0.8573749661445618"/>
      <path id="path3922" fill="#FFFFFF" d="M 141.8843 53.9364 C 139.2736 59.7811 132.9942 61.4221 124.7034 60.7568 C 119.9827 59.5599 107.3784 61.7608 109.6573 51.9576 C 111.1732 45.4407 127.0697 44.3072 134.751 51.9053 L 141.8843 53.9364 L 141.8843 53.9364 Z " stroke-width="0.8573749661445618"/>
      <path id="path3942" fill="#FFFFFF" d="M 99.7589 98.5765 C 98.9616 94.7937 98.8304 90.7615 93.7727 88.5795 C 85.6877 85.9654 78.7069 86.9179 74.354 87.5378 C 73.6673 91.2399 71.6413 94.6094 69.3041 97.8983 C 80.1199 100.6993 90.0423 100.0383 99.7589 98.5765 L 99.7589 98.5765 Z " stroke-width="0.8573749661445618"/>
      <path id="path3944" fill="#FFFFFF" d="M 32.5227 107.6321 C 28.6851 111.5631 23.5503 118.1812 10.285 112.123 L 13.0114 111.9018 C 6.0881 108.5117 0.3343 104.104 0.7887 94.3068 C 4.6289 99.6465 18.1806 106.2388 25.2333 98.4307 L 20.9156 98.7411 L 26.2639 94.3796 L 28.0318 94.3796 L 27.8655 96.0549 L 30.6073 94.3068 L 28.4733 101.3741 L 34.2898 98.7968 L 32.5227 107.6321 L 32.5227 107.6321 Z " stroke-width="0.8573749661445618"/>
      <path id="path4112" fill="#FFFFFF" d="M 141.4651 32.0279 C 139.7752 31.793 137.113 33.2308 136.7409 37.9361 C 136.5918 44.3252 137.4354 48.8925 141.075 47.555 C 142.0455 42.379 142.2136 37.203 141.4651 32.0279 Z " stroke-width="0.8573749661445618"/>
    </g>
    <g id="face">
      <path id="path3947" d="M 112.9865 32.3288 C 111.505 33.5352 110.3672 35.1385 109.8648 36.7109 L 110.4615 36.8969 C 110.9177 35.4694 111.9842 33.951 113.3758 32.8175 C 114.7673 31.6841 116.4666 30.9425 118.1796 31.0076 C 119.7169 31.0651 121.3116 31.5015 122.5814 32.7584 C 123.852 34.0153 124.8286 36.121 125.0566 39.5865 C 125.2675 42.4776 124.8243 44.3835 124.0586 45.5924 C 122.0241 49.4961 115.4866 47.7582 112.6418 44.6665 C 113.8593 46.3401 116.0542 47.5035 117.2219 47.8327 C 118.3905 48.162 119.7761 48.3677 121.1058 48.1551 C 122.4365 47.9433 123.7243 47.29 124.5885 45.9251 C 125.4527 44.5593 125.89 42.5213 125.6739 39.5462 C 125.4399 35.9804 124.4282 33.7075 123.0229 32.3168 C 121.6177 30.927 119.8515 30.4426 118.2105 30.38 C 116.3037 30.308 114.4663 31.1208 112.9865 32.3288 Z " stroke-width="0.8573749661445618" fill="undefined"/>
      <path id="path3955" d="M 120.5974 43.7885 C 120.6137 43.1695 121.1187 42.6748 121.7394 42.6748 C 122.3688 42.6748 122.8798 43.1866 122.8798 43.8168 C 122.8798 44.447 122.3688 44.958 121.7394 44.958 C 121.1093 44.958 120.5974 44.447 120.5974 43.8168 " stroke-width="0.8573749661445618" fill="undefined"/>
      <path id="path3955-1" d="M 138.4334 43.1806 C 138.4488 42.5625 138.9547 42.0678 139.5728 42.0678 C 140.2039 42.0678 140.7149 42.5796 140.7149 43.2089 C 140.7149 43.84 140.2039 44.3509 139.5728 44.3509 C 138.9435 44.3509 138.4334 43.84 138.4334 43.2089 " stroke-width="0.8573749661445618" fill="undefined"/>
      <path id="path3975" d="M 140.2673 31.6909 C 139.7392 31.7304 139.199 31.9224 138.7112 32.2877 C 137.7363 33.0199 136.9793 34.4234 136.7264 36.6603 L 136.7264 36.6706 L 136.7152 36.6809 C 136.4151 39.6234 136.0147 42.6276 137.2142 45.7879 L 137.2254 45.7982 L 137.2365 45.8171 C 137.6943 46.7662 138.2131 47.5344 138.9281 47.9296 C 139.6449 48.3257 140.5005 47.9253 141.4462 47.2952 C 139.0996 48.2237 138.3279 47.3886 137.6112 45.469 C 136.5669 42.5102 137.0024 39.7203 137.3437 36.7289 C 137.3454 36.7229 137.3437 36.716 137.3437 36.7092 C 137.588 34.5949 138.3082 33.3783 139.0953 32.7858 C 139.8858 32.1925 140.7629 32.1831 141.4917 32.5518 L 141.7746 31.9945 C 141.315 31.7613 140.7963 31.6524 140.2673 31.6909 L 140.2673 31.6909 Z " stroke-width="0.8573749661445618" fill="undefined"/>
      <path id="path3981" d="M 137.7381 55.5191 C 139.3945 55.3759 141.2542 55.0664 142.2924 52.4471 C 142.4982 50.7461 140.0135 50.8867 137.6592 50.9373 C 134.8041 50.741 132.9308 51.1131 132.8433 52.5775 C 132.8013 54.2673 135.8596 55.2499 137.7381 55.5191 L 137.7381 55.5191 Z " stroke-width="0.8573749661445618" fill="undefined"/>
      <path id="path3983" fill="none" stroke="#000000" stroke-width="0.4286874830722809" d="M 127.7677 58.904 C 125.1201 58.2044 125.4519 56.0773 125.529 54.7912 C 125.529 54.7912 133.0791 56.4571 133.5987 56.5608 C 132.3057 58.5774 130.4487 59.5231 127.7677 58.904 Z "/>
      <path id="path3985" fill="none" stroke="#000000" stroke-linecap="round" d="M 114.8564 51.2494 C 114.8564 51.2494 121.5208 53.3842 121.8843 53.3842 " stroke-width="0.8573749661445618"/>
      <path id="path3985-7" fill="none" stroke="#000000" stroke-linecap="round" d="M 113.633 57.3676 C 113.633 57.3676 121.652 56.2753 122.0155 56.2753 " stroke-width="0.8573749661445618"/>
      <path id="path3985-7-4" fill="none" stroke="#000000" stroke-linecap="round" d="M 141.2259 55.8578 L 145.7039 57.4199 " stroke-width="0.8573749661445618"/>
      <path id="path3985-7-4-0" fill="none" stroke="#000000" stroke-linecap="round" d="M 142.0841 53.073 L 146.4061 52.2388 " stroke-width="0.8573749661445618"/>
      <path id="path4074" d="M 110.1452 36.3808 C 108.8317 37.011 107.4453 36.692 106.2921 35.6777 C 106.7671 36.6346 108.1955 37.9541 110.4633 36.8909 L 110.1452 36.3808 Z " stroke-width="0.8573749661445618" fill="undefined"/>
      <path id="path4074-9" d="M 110.9005 35.033 C 109.437 35.129 107.9494 34.6 106.7611 33.9407 C 107.5748 34.8915 108.9371 35.6332 110.5884 35.6975 L 110.9005 35.033 Z " stroke-width="0.8573749661445618" fill="undefined"/>
      <path id="path4074-4" d="M 111.7587 33.7315 C 110.3184 33.5866 109.0529 32.6786 108.2967 31.6232 C 108.7554 33.6749 110.0783 33.9767 111.3686 34.3308 L 111.7587 33.7315 Z " stroke-width="0.8573749661445618" fill="undefined"/>
      <path id="path4108" d="M 141.8389 33.5103 C 143.6214 33.404 144.736 33.3397 145.5196 31.8341 C 144.0878 32.6246 143.6822 33.0919 141.6546 32.6812 L 141.8389 33.5103 Z " stroke-width="0.8573749661445618" fill="undefined"/>
      <path id="path4110" d="M 140.9181 31.7432 C 142.4519 31.9584 143.8666 31.3446 144.8586 30.0131 C 144.1152 32.1136 142.8317 32.4017 141.4153 32.442 L 140.9181 31.7432 Z " stroke-width="0.8573749661445618" fill="undefined"/>
    </g>
    <g id="outline">
      <path id="path3026" d="M 121.7695 60.4413 C 118.5406 64.7899 118.117 70.7281 119.1768 78.6451 C 119.8301 83.5347 118.9864 86.9942 117.9636 89.7978 C 116.9399 92.6006 115.6872 94.7363 115.6838 97.0066 C 115.6778 101.561 117.6626 105.3429 119.6063 108.3531 C 120.5786 109.8604 121.5371 111.1722 122.247 112.2971 C 122.9586 113.4202 123.389 114.3565 123.3925 114.9764 C 123.4396 122.4012 121.0707 129.8715 118.1093 135.471 C 116.6286 138.2695 114.9971 140.6041 113.4726 142.2194 C 111.9491 143.8356 110.5087 144.6827 109.5896 144.6947 C 107.1615 144.7264 105.3241 142.9979 104.0818 140.7919 C 102.8395 138.5859 102.265 135.9237 102.3602 134.5305 C 102.4022 133.9201 102.9098 132.6494 103.6806 131.1936 C 104.4531 129.7386 105.4682 128.0505 106.4799 126.3906 C 107.4916 124.7307 108.5024 123.0966 109.2578 121.7256 C 109.6359 121.0389 109.9531 120.4207 110.1769 119.8857 C 110.4007 119.3507 110.5498 118.9194 110.5387 118.4959 C 110.5267 118.0869 110.3252 117.7843 110.0577 117.4104 C 109.7919 117.0358 109.4318 116.6131 109.0023 116.1475 C 108.1441 115.2164 107.008 114.0993 105.8334 112.8792 C 103.4842 110.4434 101.003 107.5781 100.3651 105.318 C 99.9878 103.9822 100.3377 102.5221 100.3359 100.4001 C 100.3359 98.2755 99.6775 94.9815 97.4732 91.1782 C 98.4326 93.5411 99.5592 97.0324 99.3971 100.4001 C 99.3997 102.4098 99.0053 103.9385 99.4657 105.5744 C 100.2133 108.2254 102.7889 111.0787 105.1587 113.5368 C 106.3444 114.7663 107.477 115.88 108.3087 116.7846 C 108.7254 117.2364 109.0734 117.6428 109.2972 117.9583 C 109.5227 118.2738 109.6007 118.525 109.6007 118.525 C 109.6042 118.6571 109.5107 119.0412 109.3058 119.523 C 109.1026 120.0049 108.8051 120.6042 108.4347 121.2738 C 107.6982 122.6138 106.6891 124.2386 105.6765 125.9002 C 104.6631 127.5635 103.6394 129.2628 102.848 130.7529 C 102.0593 132.2447 101.4883 133.4914 101.4214 134.4602 C 101.3039 136.1681 101.9247 138.8774 103.2604 141.2498 C 104.5971 143.6221 106.72 145.6695 109.6007 145.6309 C 111.0188 145.6138 112.5544 144.5635 114.1585 142.8625 C 115.7618 141.1649 117.4191 138.7685 118.9315 135.9083 C 121.9564 130.1879 124.3793 122.5933 124.3313 114.9661 C 124.3261 113.9732 123.7774 112.9615 123.0401 111.7963 C 122.3036 110.6295 121.3433 109.3211 120.3891 107.8447 C 118.4814 104.8911 116.6175 101.2952 116.6226 97.0152 C 116.6261 95.1033 117.7912 92.9993 118.8432 90.1185 C 119.8952 87.2377 120.7912 83.5716 120.1139 78.5173 C 119.0679 70.6929 119.5128 65.0591 122.5222 61.0072 L 121.7695 60.4413 L 121.7695 60.4413 Z " stroke-width="0.8573749661445618" fill="undefined"/>
      <path id="path3798" fill="none" stroke="#000000" stroke-width="1.2860624492168427" d="M 96.2643 99.7922 L 100.1387 144.2737 C 100.3016 146.1865 109.2303 149.7712 116.5232 146.8973 C 118.4806 145.8641 117.6601 143.4884 116.0542 140.0691 "/>
      <path id="path3802" fill="none" stroke="#000000" stroke-width="1.2860624492168427" d="M 69.3358 97.4722 C 70.5867 99.8788 92.9274 101.4847 100.1113 98.5036 "/>
      <path id="path3804" fill="none" stroke="#000000" stroke-width="1.2860624492168427" d="M 56.7676 150.7015 C 58.4669 150.7666 60.1551 150.8644 61.9958 150.4065 C 63.2588 149.8261 66.4336 148.9318 64.7206 143.9256 C 56.9528 123.743 65.1304 113.5668 73.1872 98.7925 "/>
      <path id="path47" d="M 68.4956 60.6274 C 58.1848 60.2878 51.2821 65.9962 47.8654 73.7966 C 44.0656 82.4647 44.4857 93.6637 48.8737 102.1946 C 47.4736 102.1646 46.2116 102.559 45.1956 103.4567 C 43.9833 104.5284 43.1113 106.2243 42.5437 108.5529 C 39.4272 121.0028 35.214 134.6677 38.4163 149.7652 L 38.4163 149.7755 C 38.6349 150.7315 38.8664 151.5202 39.2488 152.1916 C 39.6312 152.862 40.1817 153.4013 40.9704 153.7854 C 42.5489 154.5536 45.0112 154.8229 49.4524 155.0766 L 49.4722 155.0766 L 49.4902 155.0766 C 50.9477 155.0535 53.0166 155.0278 54.6936 154.3127 C 55.5321 153.9543 56.2772 153.4022 56.7479 152.58 C 57.2177 151.762 57.3883 150.6997 57.1585 149.382 C 57.1585 149.3802 57.1585 149.3751 57.1585 149.3717 C 56.2411 143.3666 51.1638 134.3213 54.5461 121.7376 C 56.4401 114.6968 62.3156 107.1211 70.5396 96.7537 C 70.5464 96.7477 70.5533 96.7417 70.5593 96.734 C 74.3258 92.4891 74.7913 86.9633 75.1274 81.5919 C 74.6044 85.9842 73.3235 92.7755 69.8357 96.1287 L 69.8254 96.1381 L 69.8254 96.1484 C 61.5886 106.5295 55.6118 114.1447 53.6356 121.4941 C 50.1598 134.4208 55.3718 143.9033 56.2274 149.52 L 56.2274 149.532 C 56.4315 150.6955 56.2797 151.51 55.9342 152.1144 C 55.5878 152.718 55.0288 153.1415 54.3198 153.4459 C 52.9094 154.0478 50.9529 154.1181 49.5056 154.1395 C 49.4936 154.1395 49.4799 154.1395 49.467 154.1395 C 45.0781 153.89 42.6646 153.5737 41.376 152.9469 C 40.7295 152.6323 40.3574 152.261 40.0565 151.7329 C 39.7555 151.2056 39.5429 150.5025 39.332 149.5791 C 39.332 149.5766 39.3329 149.5723 39.332 149.5697 C 36.1923 134.7526 40.3231 121.2601 43.45 108.7775 C 43.9901 106.5621 44.8003 105.0411 45.8077 104.1511 C 46.8152 103.2603 48.0249 102.9465 49.5545 103.1626 L 50.4839 103.2989 L 50.0346 102.4681 C 45.4519 94.1473 44.9512 82.7854 48.7237 74.1782 C 52.4944 65.571 60.4097 59.6911 72.9445 62.0763 C 72.9488 62.0763 72.9522 62.0763 72.9557 62.0763 C 76.2574 62.7511 85.2341 67.356 91.7973 62.4278 L 91.2392 61.6854 C 85.2298 66.196 76.8756 61.9186 73.1314 61.1564 L 73.1211 61.1564 C 71.511 60.8486 69.9703 60.6762 68.4956 60.6274 L 68.4956 60.6274 Z " stroke-width="0.8573749661445618" fill="undefined"/>
      <path id="path3829" d="M 104.279 0.75 C 104.2713 0.75 104.2661 0.7603 104.2601 0.7586 C 103.6163 0.7363 103.0444 1.1307 102.4305 1.7368 C 101.8098 2.349 101.147 3.2184 100.4937 4.309 C 99.1862 6.491 97.8993 9.5638 97.1174 13.1425 C 96.506 15.9513 96.2334 19.0815 96.4923 22.3378 C 92.8845 26.3118 90.717 32.0142 88.7056 38.0878 L 88.2169 39.5745 L 89.4498 38.6065 L 91.6404 36.8738 C 90.5439 39.5659 89.4318 43.6436 88.7734 48.2992 C 88.1123 53.4365 87.8954 62.0617 90.2001 66.8956 C 90.0226 64.9048 90.0792 64.0286 90.1915 62.3172 C 90.2181 61.5653 90.3561 60.936 90.6022 60.4867 C 92.0254 64.7316 94.8316 70.2968 101.5285 73.8395 L 102.6346 74.4277 L 102.1939 73.2642 C 100.4971 68.7981 99.2754 64.2772 99.5832 59.4322 C 100.8144 60.9129 101.9778 61.5019 103.0461 62.2589 L 104.0329 62.9543 L 103.7689 61.7702 C 102.9484 57.9875 100.4645 54.4671 99.6097 50.7753 C 100.9738 52.3794 102.2633 53.7701 103.4542 54.7372 C 104.964 55.9632 106.3641 56.6697 107.6896 56.6646 L 108.5119 56.6646 L 108.09 55.9615 C 104.6957 50.2728 101.3888 44.609 100.2459 37.4036 L 102.8772 37.8143 L 104.081 38.0098 L 103.3162 37.0607 C 96.9767 29.2003 96.5163 20.293 98.033 13.3388 C 98.7909 9.8622 100.053 6.8802 101.3013 4.7985 C 101.9255 3.7585 102.5437 2.9432 103.0813 2.4125 C 103.6205 1.8809 104.0844 1.682 104.2267 1.688 L 104.237 1.688 L 104.2473 1.688 C 104.3236 1.688 104.6065 1.7849 104.952 2.0601 C 105.2967 2.3353 105.7168 2.7597 106.1541 3.3024 C 107.0329 4.3878 108.0069 5.9526 108.8737 7.7633 C 110.9751 12.4206 111.7673 15.556 111.1063 22.4733 C 113.8593 16.1622 111.1432 10.9288 109.7251 7.3526 C 108.83 5.4836 107.8174 3.8768 106.8786 2.716 C 106.4113 2.1355 105.9655 1.6648 105.5393 1.3262 C 105.1209 0.9935 104.7291 0.7689 104.2773 0.7594 L 104.2773 0.75 L 104.279 0.75 Z M 101.9204 36.71 L 99.7401 36.3679 L 99.1236 36.2702 L 99.2008 36.8961 C 100.2193 44.2506 103.4576 49.9899 106.7825 55.58 C 105.9843 55.3485 105.0695 54.8384 104.0535 54.0144 C 102.6303 52.857 101.0261 51.1311 99.2591 48.9276 L 98.2911 47.7247 L 98.418 49.2603 C 98.7747 53.4614 101.3656 57.1516 102.5154 60.7645 C 101.5577 60.1447 100.63 59.505 99.5917 57.918 L 98.8878 56.842 L 98.7309 58.1238 C 98.1411 63.1823 99.2668 67.8465 100.8829 72.3562 C 94.9113 68.7398 92.4464 63.401 91.2186 59.4433 L 91.0223 58.8363 L 90.5044 59.1981 C 89.9171 59.5994 89.6385 60.2355 89.467 60.9394 C 88.9629 56.8892 89.1292 52.4797 89.7019 48.4286 C 90.3269 44.1177 91.5521 38.2507 94.0754 33.8395 C 92.9094 34.9018 91.012 36.3319 90.1229 36.8755 C 91.8762 31.7458 93.8122 27.0388 96.6475 23.6205 C 97.1902 27.9605 98.7661 32.4609 101.9204 36.71 Z " stroke-width="0.8573749661445618" fill="undefined"/>
      <path id="path3849" d="M 118.8055 3.4319 C 115.5723 4.8423 112.6684 6.9077 109.8931 9.2029 L 110.5001 9.9265 C 112.9205 7.9228 115.4257 6.1497 118.1205 4.82 L 117.3085 6.924 L 116.8095 8.2057 L 117.9833 7.501 C 121.5114 5.3807 126.329 4.8165 130.9545 5.4956 C 134.7124 6.0469 138.2859 7.4435 140.9815 9.3983 C 140.4594 9.346 139.9149 9.3349 139.3191 9.4275 L 138.3897 9.5741 L 139.0661 10.23 C 145.4313 16.4108 147.1743 24.3158 147.2935 32.2105 C 137.5846 28.8325 131.8342 27.8739 124.8294 21.6502 C 127.5782 24.7316 131.0257 28.1886 134.156 31.282 C 129.3169 30.6861 124.6674 27.7556 120.0984 22.7228 L 119.2865 21.8226 L 119.2865 23.0366 L 119.2865 25.4227 C 116.6355 23.0846 114.0016 20.5365 112.2535 17.1464 L 111.4209 17.5768 C 113.4358 21.483 116.5215 24.2867 119.4417 26.8211 L 120.2245 27.4967 L 120.2245 26.4687 L 120.2245 24.1992 C 125.0455 29.2414 130.0723 32.1659 135.4069 32.358 L 136.6012 32.3966 L 135.7507 31.5555 L 130.5558 26.3512 C 132.9668 28.5821 141.3802 31.3746 147.6347 33.3062 L 148.2606 33.5214 L 148.2503 32.8656 C 148.2195 24.9185 146.5673 16.7512 140.3745 10.278 C 141.676 10.1948 143.1575 10.6613 144.4642 11.4852 C 144.2713 11.1525 143.9815 10.7513 143.3976 10.1503 C 140.4602 7.2326 135.8818 5.2684 131.0908 4.5645 C 126.7559 3.9283 122.253 4.3433 118.6289 6.1103 L 119.4314 4.0269 L 119.8421 2.98 L 118.8055 3.4319 Z " stroke-width="0.8573749661445618" fill="undefined"/>
      <path id="path3853" fill="none" stroke="#000000" stroke-width="1.2860624492168427" d="M 140.4577 49.9633 C 141.9161 45.5316 142.9766 39.5771 141.1573 30.5455 "/>
      <path id="path3855" d="M 137.8804 47.7924 C 139.7057 49.466 140.3239 50.0688 141.285 51.9704 C 141.664 52.7026 141.7137 53.3508 141.568 53.9758 C 141.2816 55.2147 140.119 56.4031 138.9187 57.3702 C 138.911 57.3736 138.905 57.3753 138.899 57.3796 C 138.8955 57.3839 138.8921 57.3873 138.8887 57.3908 C 135.1908 59.8797 130.6201 60.4113 126.1035 60.3444 C 122.644 60.2758 115.3529 59.7434 110.8242 58.5156 C 116.1056 60.3573 120.4062 61.2001 126.0958 61.2841 C 130.7076 61.3527 135.5003 60.8168 139.4477 58.1444 L 139.4571 58.1341 L 139.4768 58.1238 C 140.7397 57.1104 142.109 55.8252 142.4896 54.1799 C 142.6791 53.3577 142.5899 52.4489 142.1175 51.5392 C 141.6451 50.6286 140.8006 49.7181 139.4948 48.7801 L 137.8804 47.7924 Z " stroke-width="0.8573749661445618" fill="undefined"/>
      <path id="path3875" d="M 47.6691 57.7611 C 43.8332 57.678 39.7941 58.8329 36.735 62.0686 L 36.7247 62.0866 L 36.7144 62.0969 C 34.5093 64.8482 32.2535 68.5461 29.6711 71.811 C 30.6614 71.6721 31.6525 71.5366 32.6453 71.4097 C 31.1518 78.2464 30.0329 84.3218 28.3499 88.9302 C 26.6103 93.6946 24.3194 96.8789 20.3874 98.0766 L 19.1931 98.4384 L 20.3274 98.9563 C 21.6726 99.565 22.9201 99.6868 24.1222 99.2598 C 23.2699 100.0469 22.4786 100.5845 21.7258 100.9223 C 20.1002 101.6527 18.5749 101.5807 16.7273 101.5387 C 9.834 101.4315 4.5654 98.6322 1.2414 93.4305 L 0.4783 92.2353 L 0.3694 93.6449 C -0.1038 100.0546 1.8441 104.4761 4.7429 107.4177 C 6.66 109.3605 8.9749 110.6192 11.259 111.4765 L 10.0166 111.438 L 8.4631 111.3797 L 9.7337 112.2893 C 15.4833 116.3799 22.2668 116.1321 26.9789 113.5034 C 30.9572 111.2836 33.8722 107.1254 35.8999 103.3401 L 36.8105 105.2374 L 37.1731 106.0014 L 37.6327 105.288 C 40.8813 100.1823 42.0996 92.388 41.8664 87.933 L 41.8664 87.9219 L 41.8664 87.9116 C 41.5895 84.6261 41.9719 83.1515 42.3371 81.886 C 42.56 82.2641 42.7383 82.661 42.8069 83.1283 L 43.0221 84.5464 L 43.6866 83.2835 C 44.7832 81.2001 44.562 78.8277 44.8218 76.1527 C 45.0798 73.4768 45.7597 70.47 48.5282 66.9565 L 48.5393 66.9462 L 48.5496 66.9359 C 49.3916 65.7519 50.4384 65.4604 51.463 65.5075 C 52.4884 65.5547 53.4821 65.9979 53.8997 66.2715 L 54.4089 65.4887 C 53.8328 65.1114 52.7542 64.6253 51.5033 64.5687 C 50.2558 64.513 48.8188 64.9442 47.796 66.3692 C 47.7909 66.3752 47.7891 66.3821 47.7857 66.3872 C 44.9101 70.043 44.159 73.2985 43.8907 76.0618 C 43.6797 78.2533 43.7132 80.1018 43.2845 81.657 C 43.0581 81.2164 42.7855 80.8211 42.482 80.4627 L 41.9041 79.7897 L 41.6701 80.6385 C 41.2988 82.0086 40.5752 83.7885 40.9267 87.9768 C 40.9284 87.9793 40.9267 87.9845 40.9267 87.9879 C 40.9284 87.9913 40.9267 87.9939 40.9267 87.999 C 41.1325 92.015 40.0025 99.1732 37.2597 104.0114 L 36.35 102.1243 L 35.9385 101.2618 L 35.5064 102.114 C 33.5181 106.0125 30.489 110.4614 26.5185 112.6777 C 22.5154 114.912 16.8696 115.2962 11.7785 112.4325 C 13.6056 112.4925 15.208 112.4711 17.2306 112.2885 C 12.6196 111.3119 9.1678 110.1588 5.4185 106.761 C 2.9056 104.2086 1.1617 100.4936 1.2723 95.0604 C 4.7892 99.7785 10.0904 102.3704 16.7084 102.4741 C 16.7119 102.4741 16.7153 102.4741 16.7187 102.4741 C 18.5467 102.517 20.2665 102.6061 22.1073 101.7796 C 24.5217 100.5887 28.3302 96.7606 29.4156 93.4828 C 27.8766 95.592 26.4294 97.2604 23.9858 98.3253 C 23.3077 98.6065 22.6415 98.6451 21.9016 98.483 C 25.4322 96.9115 27.6254 93.6311 29.2287 89.2388 C 31.2469 83.5793 32.1609 76.6851 33.8551 70.3003 C 33.1469 70.3937 32.4387 70.4889 31.7305 70.584 C 33.5687 68.0574 35.3169 65.306 37.4149 62.7091 C 37.42 62.7039 37.4269 62.6962 37.4329 62.6902 C 40.6987 59.2616 45.1261 58.339 49.1918 58.7969 C 53.2661 59.2556 56.9416 61.1538 58.514 63.1498 L 59.2574 62.5719 C 57.4338 60.2587 53.591 58.3502 49.3007 57.8675 C 48.7665 57.8083 48.2178 57.7732 47.6691 57.7611 L 47.6691 57.7611 Z " stroke-width="0.8573749661445618" fill="undefined"/>
      <path id="path3877" d="M 116.0756 94.7089 L 116.9562 95.0312 C 119.5231 88.0642 116.9964 82.198 115.2431 78.8028 C 116.4392 81.7471 118.7446 90.4794 116.0756 94.7089 Z " stroke-width="0.8573749661445618" fill="undefined"/>
      <path id="path3909" d="M 102.614 11.8444 C 100.8101 15.5071 101.3656 19.7306 102.5771 23.7722 C 100.4826 19.8455 99.6398 15.7712 102.614 11.8444 Z " stroke-width="0.8573749661445618" fill="undefined"/>
    </g>
    <g id="scratch_S">
      <path id="path4044" fill="#FFFFFF" d="M 57.9165 91.9147 C 57.1174 95.0998 52.1155 94.696 51.5616 91.7372 C 51.4596 88.294 51.9431 84.134 53.3475 81.086 C 54.1166 79.4193 53.8628 77.1876 54.21 74.4568 C 54.505 73.5368 54.2417 65.0351 61.147 67.627 C 62.2968 68.2606 63.588 67.7624 64.5903 67.8627 C 71.8539 68.5949 68.2513 77.0307 68.2873 80.5159 C 68.1124 81.2644 68.5239 81.609 69.2192 82.4433 C 71.9345 85.6884 71.1526 95.3502 57.9165 91.9147 L 57.9165 91.9147 Z " stroke-width="0.8573749661445618"/>
      <path id="path4046" fill="url(#grad_1-.8573749661445618,0,0,0.8573749661445618,0.3,0.75)" d="M 57.324 89.2731 C 57.4603 89.49 57.1157 92.7103 55.3366 92.2842 C 54.8659 92.1719 54.0831 92.201 53.8131 91.8675 C 53.1966 91.1096 53.4581 89.7618 53.4581 89.7618 L 54.9225 82.8745 C 55.2106 81.4907 55.9051 81.3441 56.7213 81.5653 C 57.841 81.8071 58.6375 82.4398 58.4892 84.2112 C 58.7567 89.8887 65.2744 88.5486 65.8909 86.4618 C 65.9346 85.6241 66.8194 84.206 61.1891 81.9623 C 58.6066 80.8434 54.8008 80.1815 55.755 74.7912 C 56.1245 73.2668 56.5301 71.7689 57.0274 70.3294 C 57.5315 68.0162 63.2605 69.5561 64.1676 71.5563 C 64.3691 70.4614 64.7986 69.6109 66.2853 69.9144 C 66.9215 70.0439 67.5379 71.2794 67.4565 72.514 C 67.4565 72.514 67.5962 80.6222 66.6651 80.6162 C 65.6543 80.6093 64.3468 80.3787 64.0818 79.5239 C 63.5451 77.8117 62.8961 74.8915 62.0267 73.1545 C 61.8415 72.7686 60.4414 71.0916 59.7024 73.2942 C 59.1116 74.9738 58.7824 78.0604 59.2171 78.2335 L 66.0032 80.9283 C 67.7051 81.5893 71.4433 87.4632 67.4933 89.5963 C 65.103 90.6518 59.3817 92.2028 57.324 89.2731 L 57.324 89.2731 Z " stroke-width="0.8573749661445618"/>
    </g>
  </g>
</svg>