<svg xmlns="http://www.w3.org/2000/svg" xmlns:xlink="http://www.w3.org/1999/xlink" version="1.1" width="81.00004577636719" height="187.00001525878906" viewBox="-0.49993324279785156 -0.5000108480453491 81.00004577636719 187.00001525878906">
  <!-- Exported by Scratch - http://scratch.mit.edu/ -->
  <g id="ID0.4002469410188496">
    <g id="Page-1">
      <g id="batter-d-[baseball,sports,people,alex-eben-meyer]">
        <g id="Back-Arm">
          <path id="Shape" fill="#824600" stroke="none" stroke-width="1" d="M 59.768 85.924 C 57.424 89.53 42.981 93.975 39.494 96.414 L 47.467 111.196 C 50.565 110.34 53.399 108.73 55.712 106.513 C 58.168 104.269 62.325 98.705 62.548 98.314 C 63.516 96.641 64.563 95.004 65.126 93.135 C 65.259 92.697 65.366 92.254 65.483 91.81 C 65.6 91.367 65.722 90.871 65.823 90.469 C 65.307 89.783 61.278 86.631 59.768 85.924 Z "/>
          <path id="Shape" fill="#F01446" stroke="none" stroke-width="1" d="M 58.734 86.804 C 58.734 86.257 65.78 70.914 65.917 70.761 C 65.917 70.996 69.873 77.138 69.873 77.138 C 69.873 77.138 66.356 90.186 65.774 91.989 C 65.134 91.94 59.956 87.689 58.734 86.804 Z "/>
          <path id="Shape" fill="#F01446" stroke="none" stroke-width="1" d="M 51.088 93 C 51.088 93 46.256 95.203 45.57 95.612 L 45.674 111.196 L 51.646 111.04 L 51.088 93 Z "/>
        </g>
        <g id="Back-Leg">
          <path id="Shape" fill="#BE0A3C" stroke="none" stroke-width="1" d="M 56.286 151.689 C 54.718 148.393 53.324 145.014 52.111 141.567 C 51.481 139.624 42.468 112.143 42.212 111.196 L 32.405 154.688 C 33.221 155.77 46.847 168.361 47.721 168.815 L 58.734 157.638 C 58.569 157.291 56.665 152.539 56.286 151.689 Z "/>
          <path id="Shape" fill="#6E1E3C" stroke="none" stroke-width="1" d="M 79.147 180.946 L 79.953 180.946 C 79.953 180.566 79.921 180.187 79.953 179.808 C 80.059 176.421 79.953 172.998 79.953 169.606 C 76.869 168.57 73.668 168.65 70.526 167.373 C 67.574 166.177 62.296 163.452 60.569 160.728 C 60.177 161.065 54.83 166.139 51.693 168.634 C 51.348 169.12 51.041 169.536 50.633 169.99 C 59.546 174.189 69.296 177.757 78.988 176.859 C 79.449 177.986 79.158 179.706 79.147 180.946 Z "/>
          <path id="Shape" fill="#F0E6D2" stroke="none" stroke-width="1" d="M 59.236 156.685 L 62.785 162.216 L 52.933 172.859 C 52.933 172.859 47.767 170.163 46.582 169.085 C 48.509 166.551 57.368 157.553 59.236 156.685 Z "/>
          <path id="Shape" fill="#F0E6D2" stroke="none" stroke-width="1" d="M 55.684 173.385 L 64.516 162.793 L 65.81 163.844 L 57.514 173.913 L 55.684 173.385 "/>
        </g>
        <path id="Shape" fill="#BE0A3C" stroke="none" stroke-width="1" d="M 49.530 115.239 C 49.769 114.130 49.600 106.395 48.204 98.655 C 47.155 92.859 44.785 86.391 44.845 86.353 C 41.856 79.647 35.796 76.900 28.633 78.117 C 25.133 78.710 20.823 81.769 18.084 85.373 C 17.244 86.463 16.592 87.684 16.155 88.987 L 16.264 103.406 L 12.383 107.041 C 12.383 107.041 11.927 113.893 12.296 115.239 L 49.530 115.239 Z "/>
        <g id="Bat">
          <path id="Shape" fill="#FFC800" stroke="none" stroke-width="1" d="M 73.907 79.969 C 73.977 80.435 73.831 80.909 73.515 81.238 C 72.919 81.945 72.119 82.418 71.244 82.58 C 70.787 82.609 70.334 82.678 69.887 82.788 C 69.273 82.977 68.614 82.905 68.048 82.586 C 67.936 82.49 67.864 82.348 67.851 82.194 C 67.837 82.04 67.881 81.887 67.974 81.769 C 68.224 81.409 68.522 81.093 68.86 80.829 C 69.245 80.561 69.675 80.374 70.126 80.28 C 71.165 80.091 72.215 79.981 73.26 79.859 C 73.479 79.867 73.696 79.903 73.907 79.969 Z "/>
          <path id="Shape" fill="#FFC800" stroke="none" stroke-width="1" d="M 70.886 76.805 C 69.651 72.395 68.417 67.981 67.185 63.564 C 66.031 59.401 49.968 5.415 48.218 1.091 C 45.508 -0.846 39.916 -0.605 38.501 5.136 C 37.694 6.654 61.148 60.715 62.346 63.612 C 64.192 68.005 66.022 72.409 67.835 76.826 L 70.886 76.805 Z "/>
        </g>
        <path id="Shape" fill="#824600" stroke="none" stroke-width="1" d="M 73.924 75.379 C 73.237 78.901 72.281 80.092 68.579 80.744 C 65.299 81.324 64.084 79.876 63.826 76.719 C 63.604 74.028 64.692 72.431 67.185 71.425 C 71.310 69.761 73.206 71.276 73.924 75.379 Z "/>
        <g id="Front-Arm">
          <path id="Shape" fill="#824600" stroke="none" stroke-width="1" d="M 65.823 72.463 C 65.823 72.463 63.235 69.788 63.102 69.75 C 62.128 70.993 48.95 85.043 39.02 88.696 C 36.358 89.667 25.23 90.139 25.23 90.139 L 24.304 105.009 C 25.901 105.666 36.763 103.506 40 102.111 C 47.502 98.855 54.679 93.428 59.167 86.27 C 61.015 84.164 65.823 72.463 65.823 72.463 Z "/>
          <path id="Shape" fill="#824600" stroke="none" stroke-width="1" d="M 71.42 71.489 L 65.498 73.793 C 63.147 73.208 61.254 71.556 60.445 69.383 C 59.312 66.725 59.537 65.145 61.275 62.815 C 61.678 62.685 62.068 62.521 62.441 62.325 C 63.942 61.548 65.399 61.752 66.729 61.663 C 70.545 63.091 72.981 67.642 71.42 71.489 Z "/>
          <path id="Shape" fill="#6E1E3C" stroke="none" stroke-width="1" d="M 33.418 107.138 C 33.418 107.138 12.288 107.17 12.171 107.138 C 11.895 104.109 14.641 91.916 15.889 89.069 C 16.203 89.069 32.966 88.957 32.966 88.957 L 33.418 107.138 Z "/>
        </g>
        <g id="Face">
          <path id="Shape" fill="#000000" stroke="none" stroke-width="1" d="M 1.895 94.693 C -2.55 90.649 1.895 83.315 4.354 79.438 C 7.603 74.299 21.936 62.647 22.256 62.674 C 22.64 63.181 18.027 80.678 15.276 85.618 C 13.164 89.435 7.094 96.645 1.895 94.693 Z "/>
          <path id="Shape" fill="#824600" stroke="none" stroke-width="1" d="M 44.105 50.309 L 18.447 46.5 C 16.717 51.886 14.433 58.689 18.393 66.483 C 20.709 71.048 24.932 74.239 27.384 74.612 C 34.026 75.613 38.524 72.604 41.928 67.942 C 43.895 65.241 43.792 62.833 43.959 59.658 C 44.083 57.069 45.144 52.802 44.105 50.309 Z "/>
          <path id="Shape" fill="#642800" stroke="none" stroke-width="1" d="M 25.316 57.728 C 27.341 57.543 29.377 57.595 31.392 57.884 C 31.145 58.931 30.789 59.941 30.332 60.889 C 29.673 61.688 28.64 61.892 27.79 61.391 C 27.188 61.022 25.506 58.64 25.316 57.728 Z "/>
          <path id="Shape" fill="#000000" stroke="none" stroke-width="1" d="M 28.588 64.017 C 30.46 62.549 36.456 61.949 36.456 63.971 C 36.456 65.993 30.012 68.429 28.354 65.005 L 28.588 64.017 Z "/>
          <path id="Shape" fill="#000000" stroke="none" stroke-width="1" d="M 37.33 60.574 C 37.058 60.717 36.75 60.661 36.517 60.425 C 36.48 59.871 36.33 59.262 36.701 58.664 L 37.117 58.63 C 37.49 59.154 37.575 59.932 37.33 60.574 Z "/>
          <path id="Shape" fill="#000000" stroke="none" stroke-width="1" d="M 22.76 61.663 C 22.19 61.17 22.16 60.952 22.492 59.871 C 22.568 59.801 22.647 59.739 22.731 59.686 C 22.8 59.658 22.871 59.643 22.943 59.641 C 23.271 59.804 23.254 60.201 23.28 60.509 C 23.322 61.025 23.267 61.478 22.76 61.663 Z "/>
        </g>
        <g id="Hat">
          <path id="Shape" fill="#BE0A3C" stroke="none" stroke-width="1" d="M 13.863 52.565 C 13.863 52.565 4.871 57.136 11.633 58.963 C 18.395 60.789 36.543 58.372 43.544 58.184 L 28.499 52.662 L 13.863 52.565 Z "/>
          <path id="Shape" fill="#F01446" stroke="none" stroke-width="1" d="M 48.602 56.856 C 48.417 46.377 44.515 42.165 38.635 39.578 C 34.83 37.889 25.15 37.705 20.014 41.278 C 15.59 44.352 14.27 51.021 14.177 52.683 C 18.737 53.224 37.814 57.078 42.33 58.475 C 42.934 61.798 44.14 69.75 44.14 69.75 C 44.14 69.75 48.787 67.341 48.602 56.856 Z "/>
          <path id="Shape" fill="#BE0A3C" stroke="none" stroke-width="1" d="M 25.596 52.565 C 23.723 52.565 22.452 51.942 21.652 50.43 C 21.354 49.892 21.223 49.272 21.278 48.654 C 21.374 46.452 23.042 44.668 25.169 44.495 C 26.178 44.368 26.946 44.997 27.683 45.598 C 28.105 45.967 28.465 46.405 28.75 46.894 C 29.725 48.369 29.527 50.356 28.281 51.594 C 27.976 51.894 27.612 52.12 27.213 52.256 C 26.681 52.395 26.141 52.498 25.596 52.565 Z "/>
          <path id="Shape" fill="#6E1E3C" stroke="none" stroke-width="1" d="M 47.484 60.163 C 47.622 58.983 47.631 57.791 47.511 56.609 C 45.906 56.771 44.657 58.082 44.567 59.698 C 44.523 60.168 44.625 60.641 44.858 61.051 C 45.334 61.858 46.11 62.441 47.015 62.674 C 47.217 61.846 47.374 61.008 47.484 60.163 Z "/>
        </g>
        <g id="Front-Leg">
          <path id="Shape" fill="#F01446" stroke="none" stroke-width="1" d="M 49.493 114.669 L 13.165 114.228 C 13.791 121.507 20.644 153.015 20.644 153.015 L 43.796 153.652 C 43.796 153.652 48.797 120.445 49.077 118.42 C 49.218 117.407 49.898 115.655 49.493 114.669 Z "/>
          <path id="Shape" fill="#FFC800" stroke="none" stroke-width="1" d="M 28.511 117.261 L 31.879 117.261 C 32.95 123.228 32.065 129.967 32.004 136.025 C 31.939 142.459 32.266 149.144 31.502 155.535 L 29.566 155.674 C 28.35 154.677 29.038 149.031 28.993 147.461 C 28.888 144.019 28.817 140.582 28.822 137.14 C 28.817 130.605 28.028 123.737 28.511 117.261 Z "/>
          <path id="Shape" fill="#6E1E3C" stroke="none" stroke-width="1" d="M 22.278 157.534 L 31.39 184.886 L 28.261 185.167 L 28.19 186 L 36.955 185.794 C 36.955 185.794 41.162 166.048 42.532 155.674 L 22.278 157.534 Z "/>
          <path id="Shape" fill="#F0E6D2" stroke="none" stroke-width="1" d="M 18.228 150.62 C 18.808 152.763 20.213 157.906 20.92 159.458 L 42.482 159.717 C 42.742 158.823 44.211 152.912 44.557 150.957 L 18.228 150.62 Z "/>
          <path id="Shape" fill="#F0E6D2" stroke="none" stroke-width="1" d="M 21.266 161.739 C 21.454 162.809 21.803 163.835 22.298 164.772 L 42.002 164.772 C 42.241 163.815 42.418 162.839 42.532 161.853 L 21.266 161.739 Z "/>
        </g>
        <g id="Belt">
          <path id="Rectangle-path" fill="#6E1E3C" stroke="none" stroke-width="1" d="M 11.139 114.228 L 50.633 114.228 L 50.633 118.272 L 11.139 118.272 L 11.139 114.228 "/>
          <path id="Rectangle-path" fill="#F01446" stroke="none" stroke-width="1" d="M 36.456 114.228 L 39.494 114.228 L 39.494 119.283 L 36.456 119.283 L 36.456 114.228 "/>
          <path id="Rectangle-path" fill="#F01446" stroke="none" stroke-width="1" d="M 15.19 114.228 L 25.316 114.228 L 25.316 119.283 L 15.19 119.283 L 15.19 114.228 "/>
        </g>
      </g>
    </g>
  </g>
</svg>