<svg xmlns="http://www.w3.org/2000/svg" xmlns:xlink="http://www.w3.org/1999/xlink" width="114.31321716308594" height="152.81588745117188" viewBox="41.79990768432617 6.275242328643799 114.31321716308594 152.81588745117188" version="1.1" xml:space="preserve">
  <defs/>
  <g>
    <title>jellyfish-b</title>
    <desc>Created with Sketch.</desc>
    <g id="ocean" stroke="none" fill-rule="evenodd">
      <g id="jellyfish-b" fill-rule="nonzero">
        <g id="tentacles">
          <path d="M 140.9 19.5 C 146.9 22.9 150.5 29.2 151.8 35.9 C 152.4 39.3 152.5 42.8 151.8 46.1 C 151 50 148.9 53.4 147.6 57.1 C 144.9 64.4 143.9 72.1 142.9 79.8 C 142.6 82.1 142.4 84.7 141.5 86.9 C 140.7 88.8 139.1 88.9 137.2 88.3 C 133.2 87 131 82 129.7 78.3 C 128.1 73.9 127.1 69.2 126.3 64.6 C 124.5 53.9 121.8 43.5 117.5 33.4 C 115.3 28.3 112.6 23.4 109.6 18.7 C 107.8 15.9 105.6 13.1 104.3 10 C 103.5 8.1 100.3 8.9 101.1 10.9 C 102.4 14 104.4 16.8 106.2 19.6 C 109.1 24 111.7 28.6 113.8 33.3 C 117.4 41.2 120.1 49.6 121.9 58.1 C 122.7 61.8 123 65.5 123.8 69.2 C 125.4 76.8 128.4 90.9 138.1 91.8 C 143.1 92.3 144.7 88.7 145.5 84.4 C 147 76.5 147.5 68.5 149.9 60.8 C 151.4 56.1 154 51.9 155 47.1 C 155.8 43.3 155.8 39.4 155.1 35.6 C 153.7 28 149.5 20.7 142.7 16.8 C 140.7 15.7 139.1 18.5 140.9 19.5 Z " id="Shape" fill="#C65B12" stroke-width="1"/>
          <path d="M 48.6 27.4 C 44 34.7 40.5 44.8 43.3 53.5 C 45.9 61.5 55.1 65.4 57.4 73.6 C 58.2 76.5 56.2 79 54.7 81.3 C 52.8 84.3 50.7 87.1 49.1 90.3 C 46.2 96.3 46.4 102.7 52.7 106.4 C 64.6 113.4 66.4 92.1 67.3 85.2 C 67.6 82.5 68.3 80.1 68.9 77.5 C 69.4 75.3 69.8 73 70.9 71 C 71.9 69.2 73.4 68.3 74.9 67.1 C 79.3 63.5 82.2 57.7 84.9 52.8 C 89 45.2 92.7 37.4 96.4 29.6 C 98 26.3 99.5 23.1 101.2 19.9 C 101.9 18.5 103.1 15.8 104.2 15.1 C 105.9 13.9 104.3 11 102.5 12.3 C 99.6 14.4 98 18.9 96.4 22.1 C 93.3 28.4 90.4 34.7 87.3 41 C 84.3 47.2 81.2 53.4 77.3 59.2 C 76 61.1 74.6 63.2 72.8 64.7 C 70 67 68.1 68.6 66.8 72.2 C 65 77.5 64.2 82.9 63.5 88.4 C 62.9 92.9 62.5 100.6 58.8 103.8 C 56.6 105.6 53.8 103.9 52.2 102.1 C 49.8 99.6 50.1 96.4 51.2 93.4 C 53.5 87.6 58.7 83.1 60.4 77.2 C 62.6 69.8 53.8 63.1 49.7 58.2 C 42.4 49.7 45.8 37.7 51.2 29.1 C 52.6 27.3 49.7 25.6 48.6 27.4 Z " id="Shape" fill="#C65B12" stroke-width="1"/>
          <path d="M 100.9 10.9 C 109.8 27.3 100.5 47.2 91.7 61.5 C 88.2 67.1 83.6 72.1 80.5 77.8 C 78 82.3 76.9 87.5 77 92.7 C 77.1 98.6 79.1 103.9 80.4 109.5 C 82.1 116.8 82.3 124.9 79.2 131.9 C 76.6 137.7 71.4 141.6 66.8 145.9 C 65.3 147.3 67.6 149.7 69.1 148.2 C 73 144.6 77.2 141.3 80.2 136.8 C 83.5 131.9 84.8 125.8 84.9 120 C 85.1 107.2 77 95.2 81.9 82.4 C 83.3 78.6 85.9 75.6 88.2 72.4 C 90.3 69.5 92.4 66.5 94.3 63.4 C 99.1 55.6 103.4 47.3 105.8 38.4 C 108.5 28.6 108.7 18.2 103.7 9.1 C 102.7 7.4 99.9 9 100.9 10.9 Z " id="Shape" fill="#96440C" stroke-width="1"/>
          <path d="M 100.7 9.6 C 100.1 11.3 100.6 13.7 100.8 15.5 C 101.1 19.5 101.4 23.5 101.6 27.5 C 102.1 37.4 102.5 47.8 100.1 57.5 C 98.9 62.6 95.9 66.8 93.8 71.5 C 91.1 77.5 89.1 84.1 89.4 90.8 C 89.7 98 93.7 104 95.1 110.9 C 96.6 118.1 96.4 126.1 94.8 133.3 C 93.4 139.3 91.1 146.1 85.6 149.4 C 83.3 150.7 80.9 151.9 78.4 152.7 C 77.2 153.1 73.1 154.6 72.1 153.1 C 71 151.3 68.1 153 69.3 154.8 C 71.5 158.2 76.5 156.9 79.7 155.8 C 83.4 154.5 87.7 152.8 90.6 150 C 95.1 145.6 97.4 138.5 98.5 132.4 C 99.9 125.1 100 117.3 98.4 110.1 C 96.7 102.3 92.3 95.9 92.8 87.6 C 93.4 79.3 97.3 72.3 100.9 65.1 C 105.3 56.4 105.3 45.4 105.1 35.8 C 105 30.2 104.7 24.6 104.3 19 C 104.1 16.7 103.3 12.3 103.9 10.5 C 104.6 8.5 101.4 7.6 100.7 9.6 Z " id="Shape" fill="#562A0D" stroke-width="1"/>
          <path d="M 102.6 8.9 C 88.3 6.1 100.3 41.9 101.7 47 C 103 51.4 104.3 55.9 105.5 60.3 C 106.2 62.9 107.2 65.7 107.2 68.4 C 107.2 71.6 106.3 75 106.2 78.3 C 106.1 82.4 106.3 86.5 106.9 90.5 C 108.2 99.6 111.6 107.9 114.7 116.5 C 118 125.6 120.4 136.5 114.5 145.1 C 111.3 149.8 103.6 158.1 97.2 155.7 C 95.7 155.1 95.1 157.5 96.5 158.1 C 101.5 159.9 106.7 156.4 110.3 153.3 C 115.1 149.2 118.7 144.2 119.9 137.9 C 121.5 129.5 119.1 121.3 116.1 113.6 C 112.8 105 109.8 96.3 108.8 87 C 108.4 83 108.4 78.9 108.7 74.9 C 108.9 72.4 109.6 69.9 109.4 67.4 C 109.1 64.4 108.2 61.5 107.4 58.6 C 104.8 49.1 101.9 39.8 99.8 30.2 C 99.2 27.4 94.7 9.8 101.8 11.2 C 103.5 11.5 104.2 9.2 102.6 8.9 Z " id="Shape" fill="#E2B981" stroke-width="1"/>
          <path d="M 102.6 8.9 C 84.3 5 85.2 31 84.8 42.5 C 84.6 49.5 85.3 58.8 81 64.7 C 73.2 75.5 74.6 89.8 79.5 101.6 C 82.7 109.5 88.2 116.5 90.4 124.9 C 92.2 131.8 90.3 145.3 80 142.7 C 78.5 142.3 77.8 144.7 79.3 145.1 C 84.8 146.5 89.5 143.6 91.9 138.6 C 94.6 132.8 93.7 126.1 91.4 120.3 C 88.7 113.3 84.2 107.1 81.5 100.2 C 79 93.7 77.5 86.5 78 79.5 C 78.3 75.8 79.2 72.1 81.1 68.8 C 82.1 67 83.6 65.6 84.4 63.7 C 85.8 60.7 86.3 57.2 86.6 53.9 C 87.5 45 87.1 35.9 88.1 27 C 89.1 18.9 91.7 9 101.9 11.1 C 103.5 11.6 104.2 9.2 102.6 8.9 Z " id="Shape" fill="#E2B981" stroke-width="1"/>
          <path d="M 103.3 9 C 101.4 7.9 100.1 9.6 100.6 11.4 C 101.3 13.9 103.1 16.3 104.3 18.6 C 109.2 28.2 113.6 38.5 114.3 49.4 C 114.8 56 113 62.3 112.2 68.9 C 111.4 75.5 111.2 82.1 112.7 88.6 C 115.6 101.4 121.7 114.9 118.5 128.3 C 117.2 133.5 113.6 134.9 108.6 135.2 C 105.6 135.4 98.5 135.4 99.5 130.7 C 99.9 128.6 96.8 127.8 96.3 129.8 C 94.4 138.7 106 139.1 111.9 138 C 115.4 137.3 118.5 136.1 120.2 132.8 C 122.7 128.2 122.5 122.2 122.2 117.2 C 121.8 109.7 120.2 102.7 118 95.5 C 115.7 87.9 114.2 80.7 114.9 72.7 C 115.5 65.8 117.6 59.1 117.5 52.2 C 117.5 46.1 116.2 40.1 114.3 34.4 C 112.5 28.8 110.1 23.5 107.5 18.2 C 106.5 16.3 105.5 14.4 104.5 12.5 C 104.2 12 104 11.1 103.6 10.7 C 103.6 10.7 103.4 10.4 103.5 10.5 C 102.8 10 100.5 11.4 101.4 11.9 C 103.5 13 105.1 10.1 103.3 9 Z " id="Shape" fill="#96440C" stroke-width="1"/>
          <path d="M 102.7 8.2 C 94.3 9.4 91.9 17.3 91.8 24.7 C 91.6 34.4 94.1 43.9 94.7 53.5 C 94.8 55.5 94.9 57.5 94.7 59.5 C 94.5 61.5 93.6 63.3 93.3 65.3 C 92.4 71.6 95.3 77.8 97.3 83.6 C 99.3 89.5 100.5 95.8 101.1 102 C 101.9 109.4 101.2 116.9 97.5 123.5 C 92.3 132.5 81.2 135.6 71.4 133.4 C 69.3 132.9 68.5 136.1 70.5 136.6 C 77.5 138.1 85.7 137.4 92 133.8 C 104 126.9 105.8 111.4 104 99 C 103.1 92.9 101.9 86.9 99.8 81 C 98.7 78 97.6 75 96.9 71.9 C 96.1 68.3 96.6 65.7 97.4 62.3 C 99.5 53.9 96.7 44.2 95.7 35.9 C 94.7 28 92.4 13.1 103.5 11.5 C 105.7 11.1 104.8 7.9 102.7 8.2 Z " id="Shape" fill="#C65B12" stroke-width="1"/>
        </g>
        <g id="head_2_">
          <g id="group">
            <g id="head">
              <path d="M 128.4 13.7 C 121.2 10.2 114 8.6 106.2 7.4 C 89.3 4.7 73.9 11 60.2 21.5 C 53.2 26.9 47.9 41.7 54 49.8 C 54 49.8 59.8 61.8 89.7 65.5 C 102.8 67.1 116.2 62.7 128.8 58.7 C 136.2 56.4 146.6 50.4 148.5 42.7 C 150.1 36.2 142.9 20.9 128.4 13.7 Z " id="Shape" fill="#E2620C" opacity="0.9" stroke-width="1"/>
              <path d="M 146.7 41.8 C 145 38.1 142 35.2 139.5 32 C 135.3 26.6 132.1 21 126.4 17 C 122.2 14 117.9 11.2 113.3 8.9 C 113.2 8.8 113 8.8 112.9 8.7 C 110.7 8.2 108.4 7.8 106.1 7.5 C 101 6.7 96.1 6.7 91.3 7.4 C 89.8 7.8 88.3 8.2 86.9 8.8 C 83 10.4 79.8 13.5 76.3 15.8 C 72.6 18.2 68.7 20.4 64.9 22.6 C 61.1 24.7 57.4 26.5 54.3 29 C 52.9 31.8 51.8 35 51.4 38.1 C 52.2 36.5 53 35.1 53.5 34.3 C 57 29 64.2 26.8 69.5 23.7 C 72.4 22 75.3 20.4 78.1 18.6 C 81 16.7 83.7 14.2 86.7 12.5 C 87.6 12 88.5 11.7 89.5 11.4 C 85.4 14.9 80.5 17.6 76.7 21.4 C 71.1 27 66.1 33 61.2 39.5 C 58.2 43.6 56.3 47.6 56 52.4 C 56.8 53.2 57.8 54.2 59.2 55.2 C 59.2 54.2 59.2 53.2 59.2 52.2 C 59.5 45.8 64.2 40.5 68 35.6 C 72 30.4 76.7 25.4 81.5 21 C 84.1 18.6 87.1 16.8 89.9 14.7 C 87.1 19.7 85.5 25.9 84.4 29.8 C 82.8 35.3 81.7 41 79.4 46.3 C 77.1 51.8 72.6 55.8 69.6 60.7 C 70.6 61.1 71.6 61.4 72.7 61.8 C 75.6 57.4 79.6 53.7 81.9 48.8 C 84 44.2 85.2 39.3 86.5 34.4 C 87.9 28.9 89.4 23.4 91.9 18.3 C 92.8 16.5 93.9 14.4 95.3 12.8 C 92.4 19.2 93.6 28.3 94.3 34.3 C 95.4 44.3 97.8 57.7 89.9 65.3 C 91.2 65.5 92.6 65.6 93.9 65.6 C 99.2 58.6 99.1 48.5 98.2 39.8 C 97.6 34.2 96.8 28.5 96.9 22.9 C 97 19.3 97.4 15.1 99.5 12.2 C 104.6 19.3 102.9 28.9 102.9 37.3 C 102.9 42.6 102.9 48 104.6 53 C 105.9 56.9 108.4 60.2 110.1 63.9 C 111.2 63.7 112.2 63.4 113.3 63.1 C 111.5 58.9 108.6 55.2 107.4 50.8 C 105.8 45.2 106.1 39 106.3 33.3 C 106.6 25.2 107 16.9 102.2 10.3 C 102.3 10.3 102.4 10.3 102.5 10.2 C 105.8 11.8 108.5 15.2 110.4 17.9 C 114 23.2 114.7 28.7 115.1 35 C 115.7 44.4 117.8 53.2 123.7 60.1 C 124.8 59.7 126 59.4 127.1 59 C 123.6 55.4 121.2 51 119.9 45.9 C 118.2 39.2 118.6 32.3 117.3 25.6 C 116.5 21.8 114.3 16.9 111.1 13 C 113.9 15 116.3 17.7 118.6 20.3 C 123.5 26.1 124 33.6 127.2 40.2 C 128.4 42.6 130 44.5 132.3 46 C 134.7 47.5 137.7 48.3 139.7 50.2 C 140.3 50.8 140.8 51.4 141.2 52.1 C 142.1 51.4 142.9 50.7 143.7 50 C 143.6 49.8 143.4 49.5 143.3 49.3 C 141.7 47 139.1 45.7 136.6 44.5 C 132.5 42.5 130.4 40.1 128.9 35.7 C 127.6 32 126.7 28.1 125.1 24.5 C 123.6 21.2 121.4 18.5 119 15.8 C 118.7 15.5 118.4 15.2 118.1 14.9 C 120.6 16.4 123.1 18.1 125.5 19.8 C 130.9 23.7 134 29.7 138.1 34.8 C 140.3 37.6 142.9 40.1 144.2 43.4 C 144.8 44.9 145.3 46.4 145.7 47.9 C 146.6 46.8 147.4 45.5 147.9 44.3 C 147.5 43.6 147.2 42.7 146.7 41.8 Z " id="Shape" fill="#EF8C48" opacity="0.7" stroke-width="1"/>
              <path d="M 128.4 13.7 C 121.2 10.2 114 8.6 106.2 7.4 C 89.3 4.7 73.9 11 60.2 21.5 C 57.8 23.3 55.6 26.3 54 29.7 C 54.1 36.4 56.9 44.2 60.9 47.8 C 65.3 51.8 83.2 58.2 108.6 54.7 C 130.1 51.8 142.5 39.4 144.8 33.4 C 145.2 32.3 145.3 31 145.1 29.5 C 141.8 23.6 136.1 17.5 128.4 13.7 Z " id="Shape" fill="#EA8039" opacity="0.6" stroke-width="1"/>
            </g>
          </g>
          <g id="face">
            <g id="Group">
              <path d="M 97 56.2 C 93 53.1 95.6 34.7 101.8 44.4 C 103.3 46.8 102.8 49.4 102.7 52.1 C 102.5 53.6 100.9 59.3 97 56.2 Z " id="Shape" fill="#F47621" stroke-width="1"/>
              <path d="M 102.2 42.9 C 101.3 41.7 100.1 40.4 98.5 40.4 C 95.3 40.4 94.4 44.8 94.1 47.2 C 93.7 50.2 93.6 54.8 96.2 57 C 96.3 57 96.3 57.1 96.4 57.1 C 96.4 57.1 96.5 57.2 96.5 57.2 C 100.5 60.1 103.5 56.2 104 52.3 C 104.2 49 104.3 45.7 102.2 42.9 Z M 97.7 55.2 C 96.3 53.9 96.2 51.3 96.2 49.6 C 96.2 47.8 96.3 44.6 97.7 43.2 C 98.2 42.7 98.5 42.7 99.1 43.1 C 100.9 44.3 101.5 46.9 101.5 48.8 C 101.6 51 101.3 57.5 97.7 55.2 Z " id="Shape" fill="#CE5B0D" stroke-width="1"/>
            </g>
            <g id="Group">
              <g>
                <ellipse id="Oval" fill="#E2B981" transform="matrix(0.9980242881987557,-0.06282929384743358,0.06282929384743358,0.9980242881987557,73.58943726743087,23.346120445655565)" cx="5.29817888" cy="6.70118028" rx="4.49989049" ry="6.09985155" stroke-width="1"/>
                <path d="M 80 29.5 C 79.7 28.1 78.6 27.1 77.6 27.3 C 77 27.4 76.6 27.9 76.4 28.6 C 76.4 28.6 76.5 28.6 76.5 28.6 C 77.2 28.6 77.8 29.1 77.9 29.8 C 77.9 30.5 77.4 31.1 76.7 31.2 C 77.2 32.1 78 32.6 78.8 32.5 C 79.8 32.3 80.4 31 80 29.5 Z " id="Shape" fill="#323A3D" stroke-width="1"/>
              </g>
              <path d="M 73.8 19.7 C 75.7 17.4 78 16.3 80.8 17.9 C 82.2 18.7 83.4 16.6 82 15.8 C 78.3 13.6 74.7 14.9 72.1 17.9 C 71 19.2 72.8 20.9 73.8 19.7 Z " id="Shape" fill="#C65B12" stroke-width="1"/>
            </g>
            <g id="Group">
              <g>
                <ellipse id="Oval" fill="#E2B981" transform="matrix(0.9980242881987557,-0.06282929384743358,0.06282929384743358,0.9980242881987557,110.55278606301087,20.3784993771964)" cx="5.79469223" cy="7.3001389" rx="4.49989049" ry="6.09985155" stroke-width="1"/>
                <path d="M 117.5 27.2 C 117.2 25.8 116.1 24.8 115.1 25 C 114.5 25.1 114.1 25.6 113.9 26.3 C 113.9 26.3 114 26.3 114 26.3 C 114.7 26.3 115.3 26.8 115.4 27.5 C 115.4 28.2 114.9 28.8 114.2 28.9 C 114.7 29.8 115.5 30.3 116.3 30.2 C 117.3 29.9 117.8 28.6 117.5 27.2 Z " id="Shape" fill="#323A3D" stroke-width="1"/>
              </g>
              <path d="M 112.1 17.8 C 112.9 16.9 113.8 16 115 15.7 C 116.4 15.3 117.8 16 119.1 16.7 C 120.5 17.5 121.7 15.4 120.3 14.6 C 118.6 13.7 116.7 12.9 114.7 13.2 C 112.9 13.6 111.5 14.8 110.3 16 C 109.3 17.2 111.1 18.9 112.1 17.8 Z " id="Shape" fill="#C65B12" stroke-width="1"/>
            </g>
          </g>
        </g>
      </g>
    </g>
  </g>
</svg>