<svg xmlns="http://www.w3.org/2000/svg" xmlns:xlink="http://www.w3.org/1999/xlink" version="1.1" width="115.78423309726861" height="124.6798858682647" viewBox="0.1619396189682316 -0.38300000331475026 115.78423309726861 124.6798858682647">
  <!-- Exported by Scratch - http://scratch.mit.edu/ -->
  <g id="ID0.687575941439718">
    <g id="Page-1">
      <g id="referee-c-[sports,soccer,football,alex-eben-meyer]">
        <g id="scratch_footie_player_ref03">
          <g id="Group-7">
            <path id="Shape" fill="#828278" stroke="none" stroke-width="1" d="M 67.322 63.474 C 83.016 64.732 95.734 65.859 103.22 66.484 C 110.706 67.108 115.396 67.409 115.446 68.169 C 115.477 68.757 111.468 68.317 109.583 68.416 C 109.615 68.64 109.461 69.121 109.398 69.723 C 109.177 71.826 105.186 72.23 102.322 72.315 C 96.392 72.491 81.794 72.365 65.847 71.987 C 65.847 71.987 58.397 72.351 58.153 67.243 C 57.91 62.135 67.322 63.474 67.322 63.474 Z "/>
            <path id="Shape" fill="#3C3C32" stroke="none" stroke-width="1" d="M 109.921 66.012 C 110.688 65.967 110.463 66.461 109.619 66.753 C 109.034 66.948 108.429 67.077 107.815 67.14 C 107.815 67.14 108.221 69.633 105.285 68.991 C 103.932 68.694 104.126 67.126 105.389 66.502 C 106.85 65.792 109.511 66.043 109.921 66.012 Z "/>
          </g>
          <g id="Group-6">
            <path id="Shape" fill="#828278" stroke="none" stroke-width="1" d="M 69.888 82.936 C 72.801 90.214 77.645 102.808 77.645 102.808 C 77.645 102.808 74.321 105.009 72.183 106.213 C 68.183 100.822 61.22 88.656 61.22 88.656 C 61.22 88.656 55.235 79.778 60.733 75.627 C 66.23 71.475 69.888 82.936 69.888 82.936 Z "/>
            <path id="Shape" fill="#000000" stroke="none" stroke-width="1" d="M 77.64 100.188 C 77.812 100.305 83.715 117.53 83.985 118.326 C 84.053 118.532 84.152 118.73 84.265 119 C 84.426 118.89 84.577 118.767 84.716 118.631 C 85.131 118.119 85.541 117.602 85.938 117.072 C 86.184 116.685 86.588 116.425 87.043 116.362 L 87.201 116.933 C 87.231 117.142 87.29 117.347 87.377 117.539 C 87.616 117.917 87.909 118.258 88.166 118.627 C 88.423 118.995 88.617 119.238 88.423 119.647 C 87.909 119.647 87.729 119.57 87.553 119.036 C 87.333 118.572 87.027 118.155 86.651 117.804 L 85.974 118.357 C 86.095 118.648 86.232 118.931 86.385 119.206 C 86.568 119.471 86.766 119.726 86.975 119.97 L 87.075 119.871 C 87.323 120.487 87.296 120.568 86.736 120.806 C 86.543 120.532 86.353 120.231 86.132 119.957 C 85.911 119.682 85.681 119.435 85.424 119.161 L 84.806 119.647 C 85.302 120.5 85.92 121.143 86.222 121.965 C 86.023 122.222 85.658 122.281 85.388 122.1 C 85.124 121.423 84.754 120.792 84.292 120.231 L 83.557 120.815 C 83.841 121.241 84.094 121.605 84.328 121.983 C 84.522 122.288 84.865 122.535 84.712 123.057 L 84.112 123.173 C 83.755 122.607 83.661 121.915 82.917 121.659 L 82.705 122.252 L 83.007 122.468 L 83.295 122.666 C 83.323 122.832 83.359 123.007 83.377 123.182 C 83.444 123.775 83.192 123.937 82.574 123.677 C 82.335 123.142 82.272 122.45 81.672 122.239 C 81.397 121.821 81.171 121.48 80.95 121.138 C 80.499 120.415 80.048 119.682 79.597 118.959 C 79.223 118.371 78.799 117.813 78.461 117.202 C 77.965 116.304 70.465 105.36 70.253 105.072 C 70.551 104.789 77.536 100.341 77.64 100.188 Z "/>
            <path id="Rectangle-path" fill="#FFFFFF" stroke="none" stroke-width="0.9999999902572938" d="M 77.5008 99.2116 L 69.2829 104.4936 L 70.3805 106.2012 L 78.5984 100.9193 L 77.5008 99.2116 Z "/>
            <path id="Rectangle-path" fill="#FFFFFF" stroke="none" stroke-width="1.0000000040068961" d="M 79.3228 102.2959 L 71.1179 107.5704 L 72.2146 109.2763 L 80.4195 104.0018 L 79.3228 102.2959 Z "/>
            <path id="Rectangle-path" fill="#FFFFFF" stroke="none" stroke-width="1.0000000040068961" d="M 80.8734 105.5936 L 72.6686 110.8681 L 73.7652 112.574 L 81.9701 107.2995 L 80.8734 105.5936 Z "/>
          </g>
          <g id="Group-5">
            <path id="Shape" fill="#828278" stroke="none" stroke-width="1" d="M 24.465 82.33 C 21.552 89.608 16.659 102.547 16.659 102.547 C 16.659 102.547 19.982 104.749 22.12 105.953 C 26.12 100.561 31.545 91.221 31.545 91.221 C 31.545 91.221 38.996 80.393 33.62 75.649 C 28.244 70.905 24.465 82.33 24.465 82.33 Z "/>
            <path id="Shape" fill="#000000" stroke="none" stroke-width="1" d="M 16.663 99.932 C 16.492 100.049 10.588 117.274 10.318 118.07 C 10.25 118.276 10.151 118.474 10.038 118.743 C 9.878 118.634 9.727 118.51 9.587 118.375 C 9.172 117.863 8.762 117.346 8.365 116.816 C 8.122 116.414 7.709 116.143 7.242 116.079 L 7.084 116.65 C 7.055 116.859 6.995 117.063 6.908 117.256 C 6.669 117.634 6.376 117.975 6.119 118.344 C 5.862 118.712 5.668 118.955 5.862 119.363 C 6.376 119.363 6.557 119.287 6.733 118.752 C 6.953 118.289 7.259 117.872 7.635 117.521 L 8.311 118.074 C 8.19 118.364 8.053 118.648 7.901 118.923 C 7.717 119.188 7.52 119.443 7.31 119.687 L 7.211 119.588 C 6.963 120.204 6.99 120.284 7.549 120.523 C 7.743 120.249 7.932 119.948 8.153 119.673 C 8.374 119.399 8.604 119.152 8.861 118.878 L 9.52 119.368 C 9.024 120.222 8.406 120.864 8.104 121.686 C 8.302 121.943 8.668 122.002 8.938 121.821 C 9.202 121.144 9.572 120.514 10.034 119.952 L 10.769 120.536 C 10.485 120.963 10.232 121.327 9.998 121.704 C 9.804 122.01 9.461 122.257 9.614 122.778 L 10.214 122.895 C 10.57 122.329 10.665 121.637 11.409 121.381 L 11.621 121.974 L 11.319 122.189 L 11.03 122.387 C 11.003 122.553 10.967 122.729 10.949 122.904 C 10.882 123.497 11.134 123.659 11.752 123.398 C 11.991 122.863 12.054 122.171 12.654 121.96 C 12.929 121.542 13.155 121.201 13.375 120.86 C 13.826 120.136 14.277 119.404 14.728 118.681 C 15.103 118.092 15.527 117.535 15.865 116.924 C 16.361 116.025 23.861 105.081 24.073 104.793 C 23.753 104.515 16.767 100.072 16.663 99.932 Z "/>
            <path id="Rectangle-path" fill="#FFFFFF" stroke="none" stroke-width="0.9999999902572938" d="M 15.7071 100.6384 L 23.9251 105.9203 L 25.0227 104.2126 L 16.8047 98.9307 L 15.7071 100.6384 Z "/>
            <path id="Rectangle-path" fill="#FFFFFF" stroke="none" stroke-width="0.9999999902572938" d="M 13.8643 103.9459 L 22.0814 109.2273 L 23.1795 107.5188 L 14.9624 102.2374 L 13.8643 103.9459 Z "/>
            <path id="Rectangle-path" fill="#FFFFFF" stroke="none" stroke-width="0.9999999902572938" d="M 12.2682 107.2037 L 20.4861 112.4856 L 21.5843 110.7771 L 13.3663 105.4952 L 12.2682 107.2037 Z "/>
          </g>
          <g id="Group-4">
            <path id="Shape" fill="#000000" stroke="none" stroke-width="1" d="M 0.667 68.573 C 2.426 56.609 10.918 42.232 24.402 43.692 C 25.154 43.776 25.905 43.891 26.657 44.038 C 23.437 38.741 19.919 33.574 17.024 28.232 C 14.485 23.551 7.337 11.901 7.337 11.901 L 12.063 0.669 L 17.7 4.3 C 17.7 4.3 38.833 37.699 44.967 47.736 C 49.851 55.71 54.532 63.267 55.691 72.863 C 56.656 80.838 54.464 88.211 47.817 93.081 C 44.466 95.538 40.93 96.122 36.926 97.124 C 30.026 98.85 22.878 100.103 16.546 97.124 C 4.437 91.441 0.5 80.497 0.667 68.573 Z "/>
            <path id="Shape" fill="#000000" stroke="none" stroke-width="1" d="M 72.657 42.852 L 79.737 57.709 L 51.758 58.887 L 44.935 43.103 L 72.657 42.852 "/>
            <path id="Shape" fill="#824600" stroke="none" stroke-width="1" d="M 52.268 44.451 C 52.719 48.692 56.264 51.19 60.674 50.885 C 63.669 50.678 66.433 48.36 66.515 45.179 C 66.591 42.12 63.285 39.545 60.539 38.921 C 57.472 38.224 52.787 39.195 52.268 44.451 Z "/>
            <path id="Shape" fill="#A0640A" stroke="none" stroke-width="1" d="M 50.672 56.263 C 50.996 59.354 53.58 61.169 56.796 60.949 C 58.979 60.796 60.99 59.111 61.049 56.793 C 61.103 54.547 58.695 52.691 56.697 52.237 C 54.464 51.73 51.05 52.43 50.672 56.263 Z "/>
            <path id="Shape" fill="#824600" stroke="none" stroke-width="1" d="M 64.774 52.417 C 64.9 53.603 65.892 54.299 67.123 54.214 C 67.997 54.177 68.701 53.489 68.756 52.619 C 68.756 51.766 67.854 51.047 67.087 50.871 C 66.226 50.678 64.918 50.948 64.774 52.417 Z "/>
            <path id="Shape" fill="#A0640A" stroke="none" stroke-width="1" d="M 47.673 50.287 C 47.799 51.473 48.791 52.17 50.022 52.084 C 50.896 52.047 51.6 51.359 51.655 50.49 C 51.655 49.636 50.753 48.917 49.986 48.742 C 49.125 48.549 47.817 48.818 47.673 50.287 Z "/>
            <path id="Shape" fill="#A0640A" stroke="none" stroke-width="1" d="M 68.81 55.966 C 68.936 57.152 69.928 57.849 71.16 57.763 C 72.036 57.726 72.742 57.032 72.792 56.159 C 72.792 55.306 71.89 54.587 71.124 54.412 C 70.267 54.228 68.954 54.497 68.81 55.966 Z "/>
            <path id="Shape" fill="#A0640A" stroke="none" stroke-width="1" d="M 69.554 49.506 C 69.766 51.509 71.444 52.691 73.527 52.547 C 75.003 52.482 76.192 51.32 76.287 49.852 C 76.323 48.405 74.763 47.192 73.464 46.895 C 72.016 46.567 69.802 47.021 69.554 49.506 Z "/>
            <path id="Shape" fill="#828278" stroke="none" stroke-width="1" d="M 46.22 47.731 L 70.645 47.718 L 75.169 58.136 L 80.278 57.57 L 73.581 41.85 L 43.384 40.947 L 46.22 47.731 "/>
            <path id="Shape" fill="#3C3C32" stroke="none" stroke-width="1" d="M 48.935 1.348 C 52.814 7.188 58.925 16.39 62.735 22.311 C 63.534 23.542 73.324 37.335 77.564 45.552 C 84.328 58.671 86.362 68.807 86.006 75.653 C 85.902 77.612 84.757 86.238 81.239 90.259 C 75.854 96.414 67.326 98.108 67.326 98.108 L 28.375 98.715 C 28.375 98.715 43.393 94.977 47.636 88.431 C 50.256 84.205 51.759 79.388 52.006 74.427 C 52.255 65.379 47.524 56.604 43.226 48.971 C 38.716 40.933 15.346 4.403 12.347 1.271 L 48.935 1.348 Z M 51.42 55.468 L 76.495 55.517 C 76.495 55.517 73.203 47.628 72.179 46.046 L 46.473 46.073 L 51.42 55.468 Z "/>
            <path id="Shape" fill="#000000" stroke="none" stroke-width="1" d="M 11.481 0.117 C 12.383 0.193 49.283 0.238 50.203 0.341 C 50.785 0.359 51.339 0.595 51.754 1.002 L 51.966 1.55 L 51.885 2.13 C 51.443 2.577 50.819 2.797 50.194 2.727 C 49.292 2.61 14.512 2.61 13.592 2.651 L 11.481 0.117 Z "/>
            <path id="Shape" fill="#000000" stroke="none" stroke-width="1" d="M 13.578 2.651 L 8.32 13.671 C 8.32 13.671 7.017 14.053 6.48 13.249 C 6.155 12.749 5.981 12.165 5.979 11.569 L 11.481 0.117 L 13.578 2.651 Z "/>
            <path id="Shape" fill="#3C3C32" stroke="none" stroke-width="1" d="M 11.324 75.811 C 12.422 79.232 14.578 82.22 17.484 84.347 C 20.848 86.755 24.966 87.631 28.826 86.373 C 31.912 85.327 34.45 83.094 35.875 80.173 C 37.796 76.22 38.068 71.67 36.633 67.517 C 35.426 63.706 32.896 60.448 29.498 58.325 C 26.341 56.411 23.058 55.494 19.576 56.636 C 12.564 58.936 8.618 67.683 11.324 75.811 Z "/>
            <path id="Shape" fill="#828278" stroke="none" stroke-width="1" d="M 15.707 74.337 C 16.424 76.576 17.834 78.531 19.734 79.922 C 21.846 81.526 24.605 82.018 27.144 81.242 C 29.159 80.56 30.816 79.105 31.748 77.199 C 33.002 74.616 33.179 71.644 32.24 68.932 C 31.451 66.442 29.798 64.312 27.577 62.926 C 25.507 61.677 23.369 61.074 21.087 61.82 C 16.528 63.312 13.962 69.027 15.707 74.337 Z "/>
          </g>
          <g id="Group-3">
            <path id="Rectangle-path" fill="#000000" stroke="none" stroke-width="0.9999999900806734" d="M 97.2144 49.3727 L 90.3061 50.4705 L 90.4631 51.4581 L 97.3714 50.3603 L 97.2144 49.3727 Z "/>
            <path id="Rectangle-path" fill="#000000" stroke="none" stroke-width="0.9999999898452168" d="M 94.1657 56.5946 L 87.7615 53.7834 L 87.3596 54.6991 L 93.7637 57.5103 L 94.1657 56.5946 Z "/>
            <path id="Rectangle-path" fill="#000000" stroke="none" stroke-width="0.9999999974307912" d="M 92.4384 42.2807 L 87.3761 47.1066 L 88.0661 47.8304 L 93.1284 43.0045 L 92.4384 42.2807 Z "/>
          </g>
          <g id="Group-2">
            <path id="Shape" fill="#3C3C32" stroke="none" stroke-width="1" d="M 94.412 75.312 C 94.412 75.312 98.922 74.023 99.716 73.964 C 100.509 73.906 100.568 74.297 99.671 74.643 C 98.974 74.972 98.332 75.405 97.767 75.928 L 94.412 75.312 Z "/>
            <path id="Shape" fill="#828278" stroke="none" stroke-width="1" d="M 28.492 78.43 C 28.492 78.43 22.63 79.162 21.66 73.569 C 20.69 67.975 28.375 69.678 28.375 69.678 C 31.645 69.84 79.787 73.551 94.471 74.782 C 100.852 75.317 104.843 75.568 104.87 76.215 C 104.897 76.862 99.982 76.826 99.982 76.826 C 99.83 78.108 98.895 79.161 97.637 79.468 C 97.637 79.468 97.637 79.49 97.578 79.504 C 96.295 79.657 95.005 79.734 93.713 79.733 C 82.506 80.07 28.492 78.43 28.492 78.43 Z "/>
            <g id="Group">
              <path id="Shape" fill="#F01446" stroke="none" stroke-width="1" d="M 94.259 80.259 L 92.847 80.308 C 92.739 79.481 92.626 77.105 92.514 76.264 C 92.707 76.215 93.912 76.318 94.146 76.264 C 94.133 76.404 94.214 78.727 94.259 80.259 Z "/>
              <path id="Shape" fill="#000000" stroke="none" stroke-width="1" d="M 91.427 78.102 C 92.924 78.744 94.75 79.046 95.711 77.482 C 96.053 76.985 96.18 76.372 96.064 75.781 C 95.948 75.189 95.598 74.669 95.093 74.337 C 93.483 73.25 91.828 73.555 91.206 74.867 C 90.826 75.929 90.907 77.101 91.427 78.102 Z "/>
              <path id="Shape" fill="#3C3C32" stroke="none" stroke-width="1" d="M 92.41 77.19 C 93.208 77.531 94.182 77.693 94.692 76.858 C 94.877 76.594 94.947 76.266 94.885 75.95 C 94.822 75.634 94.634 75.357 94.363 75.182 C 93.506 74.602 92.622 74.764 92.288 75.465 C 92.087 76.032 92.131 76.657 92.41 77.19 Z "/>
            </g>
          </g>
        </g>
      </g>
    </g>
  </g>
</svg>