<svg version="1.1" xmlns="http://www.w3.org/2000/svg" xmlns:xlink="http://www.w3.org/1999/xlink" width="89.05198" height="138.40322" viewBox="0,0,89.05198,138.40322"><g transform="translate(-203.59901,-102.0484)"><g data-paper-data="{&quot;isPaintingLayer&quot;:true}" fill="none" fill-rule="nonzero" stroke="none" stroke-width="1" stroke-linecap="butt" stroke-linejoin="miter" stroke-miterlimit="10" stroke-dasharray="" stroke-dashoffset="0" font-family="none" font-weight="none" font-size="none" text-anchor="none" style="mix-blend-mode: normal"><g data-paper-data="{&quot;origPos&quot;:null}"><path d="M233.27166,187.13488c2.04585,0.66577 2.83234,3.29922 2.18358,5.48007c-1.63685,5.37177 -1.50162,8.77929 -2.31962,14.36993c-0.81884,5.59292 -2.21759,9.92499 -0.5459,15.25914c0.78482,2.55934 3.27619,2.96404 2.45652,5.48121c-0.7168,2.29714 -3.07128,2.5924 -5.32288,2.37124c-1.09096,-11.70456 -4.811,-16.1837 -3.41143,-28.8892c0.34099,-3.26045 -1.19382,-8.92634 0.40901,-11.70228c1.43276,-2.48296 3.99133,-3.22056 6.55073,-2.3701z" data-paper-data="{&quot;origPos&quot;:null}" fill="#ff9cd1"/><path d="M228.01847,190.68832c-0.13356,2.5981 -0.91923,6.59044 -1.11087,9.19311c-0.68528,9.31167 1.08846,17.38984 3.0074,26.34924c0.1709,0.79801 -0.14518,2.11359 0.79396,2.40202c1.79696,0.55633 3.22808,-3.07234 2.71536,-4.58059c-4.47002,-2.42026 0.00084,-27.69674 1.02708,-32.27848c0.62223,-0.35569 1.21126,0.11857 1.79614,0.31806c-1.04035,3.62754 -4.98772,27.03211 -3.03229,30.4191c1.25688,0.62473 4.24852,0.97586 4.66664,2.61748c1.77374,6.96208 -5.93848,17.20288 -10.18283,15.02544c-1.37552,-0.70795 0.99805,-9.62289 1.13658,-11.17104c0.50608,-5.63168 -1.8509,-9.79389 -2.64071,-15.40735c-0.87525,-6.22221 -1.11252,-12.89132 -0.42973,-22.30103c0.20823,-1.75563 -0.51271,-1.36005 2.25326,-0.58598z" data-paper-data="{&quot;origPos&quot;:null}" fill="#272525"/><path d="M228.80579,239.05928c-0.32107,-1.01006 0.39323,-2.72579 0.52266,-3.70962c2.50713,1.4273 5.16941,-4.65355 0.87775,-5.21672v-0.63613c2.51874,0.96788 5.36271,-1.52648 4.51235,-5.03432c0.60729,0.11514 2.03674,0.82081 2.20681,1.5584c0.76741,3.33227 -1.77291,12.07393 -8.11955,13.03839z" data-paper-data="{&quot;origPos&quot;:null}" fill="#ff5ba1"/><path d="M229.62213,234.16747l0.5011,-2.63003c1.73724,-0.51415 1.72727,2.95721 -0.5011,2.63003z" data-paper-data="{&quot;origPos&quot;:null}" fill="#ff9cd1"/></g><g><path d="M253.06238,183.87899c2.4225,-0.11514 3.75156,1.40564 5.45811,3.25589c4.26594,4.63075 5.79826,8.11465 9.9638,12.8879c2.45653,2.81357 8.12038,9.11102 10.98757,10.81422c3.7051,2.2048 4.91221,4.85191 2.86553,5.48235c-2.28728,0.70339 -4.64175,0.8858 -7.16631,-0.44347c0.88937,-3.33683 -3.51347,-5.81637 -6.55072,-8.74165c-2.49054,-2.37124 -13.85061,-13.55596 -21.1538,-17.33398c-1.26352,-2.74061 2.83069,-5.77875 5.59583,-5.92125z" data-paper-data="{&quot;origPos&quot;:null}" fill="#ff9cd1"/><path d="M258.46906,186.41325c4.51566,5.20532 18.64584,24.59361 24.8921,25.90463c2.41089,0.50389 6.65525,2.05089 8.83635,4.16449c2.73361,2.64712 -7.36626,8.72228 -17.54743,2.40316c-1.56219,-0.96901 -0.50524,-3.83274 -0.29368,-5.66931c-5.37515,-5.56898 -20.08939,-19.1181 -26.20872,-22.67951c1.00384,-0.30439 1.54476,-1.2449 2.59008,-0.54493c5.61658,3.75864 18.64998,16.08224 23.40872,21.13479c0.7027,0.74443 2.37605,1.63706 2.12965,2.85688c2.35281,1.35206 4.0718,3.55116 5.09888,-0.67945c-0.54092,-0.49933 -1.20129,-0.69427 -1.79614,-1.08871c-6.89087,-4.58401 -16.97995,-19.70977 -23.49253,-25.39846c0.00083,0.00456 1.59454,-0.20292 2.38268,-0.40357z" data-paper-data="{&quot;origPos&quot;:null}" fill="#272525"/><path d="M284.59232,217.88801c2.86221,0.79688 2.79418,-1.35206 3.21812,-2.26521c1.07768,0.47083 3.92414,1.2164 3.29942,1.87989c-5.32288,5.62826 -11.25969,2.51603 -14.74577,0.61219c-0.51768,-0.79459 -0.70103,-1.75905 -0.58488,-2.72236c2.30553,1.89586 6.71415,2.67334 6.89418,-1.72257c1.6211,0.86413 -1.67833,3.2137 1.91893,4.21807z" data-paper-data="{&quot;origPos&quot;:null}" fill="#ff5ba1"/><path d="M286.84144,215.13258c-0.68194,1.99845 -1.57047,1.77728 -2.45568,1.25858c-0.62803,-0.72734 -0.08546,-1.31558 -0.08546,-2.17744z" data-paper-data="{&quot;origPos&quot;:null}" fill="#ff9cd1"/></g><path d="M231.36352,147.43148c0,-2.77594 3.30937,-3.07349 5.86794,-3.25817c2.9684,-0.22116 4.6401,-0.59281 7.60933,-0.59281v19.59006c3.44544,1.22323 5.96999,0.37051 8.90354,2.63003c1.87827,1.44327 2.69463,2.85118 4.91471,3.55572c2.83069,0.88922 5.05076,1.88901 6.00483,4.88954c0.92005,2.85118 -1.87827,4.36855 -2.18441,7.40556c-0.61641,5.99991 -8.36014,3.44399 -12.28509,7.7031c-1.94298,2.11359 -4.80933,-1.1081 -7.57281,-0.73873c-2.8672,0.37164 -3.4471,2.70298 -6.21059,3.48275c-2.5594,0.73988 -3.61635,-1.70433 -6.27778,-1.70433c-2.7303,0 -4.26594,0.74101 -6.96056,0.29641c-2.86635,-0.44233 -2.69628,-4.40617 -4.77781,-6.66568c-2.0807,-2.26065 -5.35607,-0.14935 -7.09662,-2.66764c-2.22341,-3.21713 -1.55969,-8.2811 1.22784,-11.18471c1.19218,-1.24147 3.41142,-1.4558 4.91304,-2.00073c1.1175,-0.40129 2.72201,-0.25081 3.61718,-0.88694c1.50744,-1.07389 2.1703,-3.02104 3.61717,-3.70505c1.65842,-0.78319 3.59975,-0.4446 5.86878,-0.4446c0,-6.1105 0.81968,-9.59211 0.82133,-15.70375z" data-paper-data="{&quot;origPos&quot;:null}" fill="#ff5ba1"/><path d="M230.81597,151.58c-3.34339,-0.36937 -6.14171,-4.55438 -7.91628,-9.03693c-1.97949,-4.92488 -4.12905,-6.81389 -5.11797,-12.0728c-0.57991,-3.00052 -1.22785,-4.70257 -1.43276,-7.7772c-0.10287,-1.62909 0.06886,-3.037 -0.81968,-4.29558c-1.53481,-2.18656 -2.38766,-2.74175 -3.27453,-5.33301c-0.3418,-1.03628 -0.88687,-3.33227 0.13689,-3.33227c0.95574,0 1.15983,0.81397 1.91063,1.40677c0.95574,-2.11246 0.20492,-4.29673 1.91145,-5.77761c1.02292,0.88922 1.63852,2.03721 1.84343,3.48161c0.98974,-0.77864 2.25243,-2.23558 2.25243,-0.88922c0,0.88922 -0.13771,2.85118 -0.61558,4.14739c0.9018,0 2.33622,-0.20634 2.3885,0.5187c0.12444,1.71459 -2.1844,4.79264 -2.1844,7.11144c0,3.85098 0.44386,6.2587 2.1844,9.62859c3.61635,7.03619 7.47245,12.8879 14.87685,12.8879c7.3704,0 12.72728,-6.11049 13.92029,-13.99942c0.54507,-3.62981 0.6131,-6.96208 0.20493,-10.666c-0.27212,-2.55592 -3.00324,-1.63023 -4.43602,-3.62982c-0.37333,-0.51757 0.12943,-1.48203 1.09262,-1.77729c0.62056,-0.19039 1.64348,0.14934 2.04669,0.22344c0.54507,-1.77729 -1.43359,-3.51923 -1.77458,-5.333c-0.20409,-1.07389 0.10205,-2.11132 1.09096,-1.85139c0.71513,0.18583 0.85203,0.92569 1.22785,1.62909c0,-1.66557 -0.03484,-4.22263 1.50245,-3.99804c1.33072,0.18469 1.74056,2.25838 1.84261,3.70278c1.09178,-0.92569 0.95574,-1.9255 2.3885,-1.9255c0.34014,4.77781 -2.18441,7.07382 -2.04669,11.85163c0.13606,4.85078 0.68029,7.59253 0.68029,12.44444c0,9.77793 -1.97783,17.33283 -9.55314,22.81403c0.64794,-2.18541 0.13771,-3.5922 -0.13606,-5.88933c-1.68249,0.51757 -1.8708,2.51488 -2.66144,4.03795c-0.91093,1.75221 -2.41006,3.02674 -4.43601,3.18521c-2.67721,0.20976 -3.89012,-2.81469 -4.77615,-6.14697c-0.59153,-0.92228 -1.21043,-0.98156 -2.31962,-1.11266c0.64628,2.14323 -0.00084,3.5124 -0.00084,5.77306z" data-paper-data="{&quot;origPos&quot;:null}" fill="#cf8c6e"/><path d="M253.98078,105.10032c0.35177,-0.71707 1.26518,-1.96197 2.28978,-0.85159c1.03206,1.12178 -0.5459,7.88778 -2.20516,10.73782c1.71899,9.29 2.34122,30.59239 -7.68731,36.91493c-0.06803,3.07463 0.65457,14.2981 -0.5011,16.4174c-0.21819,0.40243 -0.77155,0.4446 -1.12746,0.63385c-1.3606,-0.27816 -0.79644,-2.37808 -0.71017,-3.44514c0.62969,-7.8399 1.01381,-13.82272 0.50026,-21.7675c0.26466,-0.51415 0.77403,-0.24282 0.91923,0.18126c0.13108,0.38077 0.66619,5.00239 0.71016,5.66817c7.78105,-5.04572 8.87201,-25.1944 6.96305,-34.89709c0.95407,-2.33362 3.47448,-8.09641 2.14541,-8.63906c-1.32741,-0.54493 -0.68029,2.99256 -2.07655,4.8257c-0.0448,-2.3359 0.25221,-7.344 -1.30748,-7.32006c-1.55887,0.02394 0.84705,7.10573 -0.33268,8.07133c-0.37582,-0.33972 -0.85368,-5.90985 -2.5063,-5.44131c-1.65178,0.46741 2.05167,4.60225 1.63021,7.16501c-1.08846,0.38988 -3.03394,-1.84455 -3.30108,0.31806c0.26382,0.71137 1.05777,0.99181 1.67252,1.22551c1.22701,0.46627 1.62772,-1.12064 2.23584,0.75925c2.2989,7.08978 -0.76325,19.91953 -5.2449,25.68005l-0.5011,-0.22572c-0.31609,-2.58328 7.88145,-12.34981 4.82594,-24.78627c-2.28977,-0.63841 -5.42493,-1.55612 -3.82209,-4.46545c0.30448,-0.55291 0.95656,-0.79346 2.33872,-0.22687c0.2099,-2.17516 -2.53285,-4.07101 -1.00384,-6.43883c0.77902,-1.20614 1.70156,-0.56203 2.38185,0.31693c0.03402,-1.15256 0.39823,-3.23309 1.71235,-3.44628c1.61776,-0.26563 1.68166,2.85688 2.00189,3.03586z" data-paper-data="{&quot;origPos&quot;:null}" fill="#272525"/><path d="M218.19155,108.17495c0.57991,-1.55612 2.26903,-1.57209 2.61415,-0.58141c0.21487,0.61105 -0.1709,2.65282 -0.66868,3.8031c0.61392,-0.47995 1.11751,-0.94051 1.67252,-0.627c2.67803,1.51053 -1.41203,6.20626 -1.50412,7.70994c-0.34512,5.63511 2.58926,12.39313 6.01561,16.41626c1.28676,1.51166 2.9626,2.72236 4.0942,4.35373c0.04978,0.47767 0.03235,1.0568 -0.41647,1.31444c-0.61807,-0.15048 -1.38215,-0.88807 -1.88158,-1.31444c-6.06125,-5.19392 -9.16073,-14.13508 -9.14912,-22.31243c0.91923,-1.02488 3.22973,-3.672 2.13047,-4.21693c-1.09925,-0.54607 -1.47259,1.81376 -2.2151,2.72008c-1.27597,-0.21546 2.10227,-7.6005 0.58489,-7.20947c-1.51738,0.38875 -2.28147,4.84736 -2.36941,5.72289c0,0 0.87691,-8.36887 -0.72178,-7.12853c-1.59869,1.24148 -0.24889,6.93244 -0.58572,7.61874c0,0 -2.13131,-4.91348 -2.95678,-3.786c-0.82714,1.12634 2.19105,6.21082 4.12739,7.686c0.28622,10.267 5.80074,28.49704 13.36942,31.92621c0.25968,-2.65282 0.26797,-5.31818 0.37749,-7.98012c0.22068,-0.16416 0.30116,-0.56317 0.62637,-0.40813c1.34067,4.44493 0.64877,20.75745 -0.711,25.44064c-1.15318,-0.11172 -1.28176,-0.78434 -1.12829,-1.81491c0.56083,-3.74838 0.97065,-8.86819 0.83543,-12.65305c-8.11291,-5.54505 -14.59892,-23.28373 -14.45623,-33.51425c-2.67057,-2.25951 -4.80768,-5.72744 -4.21948,-9.5693c0.21902,-1.43984 1.26352,-2.56846 2.29806,-0.99752l0.62056,1.14116c0.03484,-1.85139 0.53925,-3.8202 1.00965,-4.40617c0.63052,-0.78775 1.97368,-0.67147 2.29806,0.36253c0.16841,0.5381 0.41148,1.19246 0.30945,2.30398z" data-paper-data="{&quot;origPos&quot;:null}" fill="#272525"/><path d="M243.86931,145.00893c-0.25387,3.34367 -0.6297,6.94613 -3.92746,8.29933c-1.3971,0.57343 -3.77147,0.25765 -5.01343,-0.67945c-1.92557,-1.45352 -2.2433,-5.30792 -2.13297,-7.5663c0.16012,-0.3477 1.09345,-0.75924 1.29589,-0.07295c-1.66423,6.11278 7.62841,12.02263 8.65133,-0.29641c0.39823,-0.10602 0.79312,0.1026 1.12664,0.31578z" data-paper-data="{&quot;origPos&quot;:null}" fill="#272525"/><path d="M228.70208,162.87643c0.11946,2.31424 -2.52455,0.13681 -3.80134,1.85937c-3.81795,5.14604 -6.31346,2.32677 -10.23593,5.12438c-1.70156,1.21412 -3.10115,3.20345 -3.30108,5.44245c-0.22234,2.5012 0.71432,5.12895 2.71536,6.53117c1.51407,1.06136 4.13734,0.01938 5.22332,1.9517c1.04117,1.85139 2.89622,5.85856 5.09722,5.9851c2.64567,0.15048 5.17106,-2.20252 7.72881,-0.45145c1.87164,1.27568 2.87631,2.28688 5.22332,1.5413c2.32628,-0.73874 3.94488,-4.09495 6.60217,-2.85688c1.89736,0.88465 3.50434,1.77045 5.43073,0.36139c1.13575,-0.82879 1.74968,-2.23558 3.09285,-2.72122c2.71039,-0.97586 8.22739,0.38076 8.31451,-2.72236c0.07134,-2.54566 2.6183,-3.37787 3.00739,-5.98737c0.38743,-2.58556 -0.50357,-4.40503 -2.38019,-5.98509c-2.1645,-1.82175 -5.3851,-0.67945 -7.32891,-2.63573c-0.43308,-0.43663 -0.55917,-0.95192 -0.90098,-1.40109c-1.0387,-1.36118 -4.07512,-2.23899 -5.64146,-2.17629c-0.38163,-0.42864 0.0307,-0.99295 0.20907,-1.40564c1.80111,-0.99523 4.26095,-0.0969 5.93266,0.86185c1.86252,1.06934 0.80805,3.23879 6.01644,4.21807c3.12022,0.58711 7.0734,3.09401 6.89419,7.30067c-0.13606,3.19205 -3.66528,3.21827 -3.80134,7.29953c-0.04646,1.38854 -1.29754,3.47592 -2.59092,3.81108c-2.92028,0.75583 -5.59997,-0.37393 -8.2498,1.97793c-0.58572,0.52327 -0.89351,1.2107 -1.40206,1.73852c-2.31383,2.40658 -5.78995,-2.69158 -8.39747,-0.99638c-1.45184,0.94507 -2.10642,2.07825 -3.80218,2.63116c-3.45124,1.12177 -3.69516,0.08094 -6.72661,-1.08871c-1.96042,-0.75698 -9.05785,3.19775 -12.65926,-2.40202c-0.857,-1.33268 0.35341,-3.96384 -1.58791,-4.67179c-1.90151,-0.69199 -3.88016,1.01576 -5.80821,-0.68401c-4.87074,-4.28077 -2.23915,-14.49647 3.72004,-16.09591c1.68165,-0.45259 3.36662,0.34543 4.88899,0c1.73474,-0.39445 1.97285,-3.77802 4.13568,-4.58173c0.74915,-0.27702 3.9623,-0.56545 4.38291,0.228z" data-paper-data="{&quot;origPos&quot;:null}" fill="#272525"/><path d="M223.79817,134.98704c-0.78815,-0.70453 -1.22205,-1.83316 -0.92337,-3.03701c0.31194,-1.2221 1.69575,-0.59281 2.06411,-1.77615c0.29784,-0.96446 0.01328,-1.74195 0.37997,-2.66764c0.52929,-1.31444 1.58873,-1.6667 2.6606,-1.33268c2.10476,0.66692 1.43856,-2.05659 3.47613,-3.037c1.84592,-0.88807 2.60668,0.90746 3.47529,1.03742c1.12747,0.16645 1.52071,-1.70433 3.4753,-1.70433c1.95543,0 2.25408,1.87077 3.38155,1.70433c0.86861,-0.12996 1.62938,-1.9255 3.4753,-1.03742c2.03757,0.98042 1.37138,3.70392 3.47696,3.037c1.07105,-0.33289 2.12882,0.01824 2.65978,1.33268c0.36504,0.92683 0.08131,1.70433 0.37997,2.66764c0.36586,1.18447 1.75134,0.55518 2.0641,1.77615c0.29701,1.20386 -0.13606,2.33248 -0.92255,3.03701z" data-paper-data="{&quot;origPos&quot;:null}" fill="#272525"/><path d="M251.78311,139.27122c-0.62554,-1.04768 -0.23562,-2.52742 0.86944,-3.30719c1.10672,-0.77977 2.51045,-0.56317 3.13599,0.48223c0.62719,1.04768 0.23645,2.52742 -0.86861,3.30719c-1.10672,0.77977 -2.51045,0.56317 -3.13681,-0.48223z" data-paper-data="{&quot;origPos&quot;:null}" fill="#272525"/><path d="M251.78311,139.27122c-0.62554,-1.04768 -0.23562,-2.52742 0.86944,-3.30719c1.10672,-0.77977 2.51045,-0.56317 3.13599,0.48223c0.62719,1.04768 0.23645,2.52742 -0.86861,3.30719c-1.10672,0.77977 -2.51045,0.56317 -3.13681,-0.48223z" data-paper-data="{&quot;origPos&quot;:null}" fill="none"/><path d="M221.80872,139.75345c-1.10672,-0.77977 -1.49581,-2.25951 -0.87027,-3.30719c0.62719,-1.0454 2.0301,-1.262 3.13681,-0.48223c1.10589,0.77977 1.49498,2.25951 0.87027,3.30719c-0.62637,1.0454 -2.03092,1.262 -3.13681,0.48223z" data-paper-data="{&quot;origPos&quot;:null}" fill="none"/><path d="M221.80872,139.75345c-1.10672,-0.77977 -1.49581,-2.25951 -0.87027,-3.30719c0.62719,-1.0454 2.0301,-1.262 3.13681,-0.48223c1.10589,0.77977 1.49498,2.25951 0.87027,3.30719c-0.62637,1.0454 -2.03092,1.262 -3.13681,0.48223z" data-paper-data="{&quot;origPos&quot;:null}" fill="none"/><g><path d="M251.42554,129.69278c0.19082,-0.92798 2.49967,-2.05774 3.20983,-1.86393c0.90263,0.24283 2.22174,3.7461 1.54891,4.65584c-0.56166,0.76153 -3.14593,1.02829 -3.72834,0.71252c-0.89018,-0.48337 -1.10506,-3.14417 -1.0304,-3.50441z" data-paper-data="{&quot;origPos&quot;:null}" fill="#272525"/><path d="M255.24597,128.76596c1.70655,-2.96291 3.42884,0.18469 5.18599,-1.11038c1.00634,-0.74101 2.06411,-1.01918 3.13847,-0.37051c0.80141,0.48223 1.05695,1.22324 1.97949,1.40792c2.3885,0.51757 3.04971,-1.37371 5.05076,0.07411c1.02292,0.73988 1.41451,3.81336 0.47705,4.36968c-0.9383,0.55518 -2.18523,0.68629 -2.18523,1.85139c0,0.92569 0.29202,1.63022 -0.20409,2.37123c-0.92005,1.3703 -2.79667,1.59146 -4.02534,0.51984c-1.2461,-1.09442 -0.87028,-2.96404 -2.32046,-3.70392c-0.71763,-0.35113 -4.09503,4.29445 -6.07452,-0.22345c-0.29949,-0.68743 0.3078,-1.18448 0.13606,-1.9255c-0.15348,-0.70339 -1.92557,-1.27795 -2.18275,-1.92549c-0.2547,-0.61218 0.41067,-1.18676 1.02459,-1.33496z" data-paper-data="{&quot;origPos&quot;:null}" fill="#272525"/><path d="M251.91999,129.91395c0.06803,-0.33289 1.84176,-1.33268 2.2516,-1.22096c0.40984,0.11059 1.40041,2.92528 1.1258,3.29579c-0.27377,0.37051 -2.4225,0.66691 -2.76266,0.48223c-0.3418,-0.18696 -0.6836,-2.22417 -0.61475,-2.55705z" data-paper-data="{&quot;origPos&quot;:null}" fill="#ff9cd1"/></g><g><path d="M219.62598,131.87593c0.20492,1.2221 0.85203,2.40658 -0.06886,3.10997c-1.55222,1.18562 -3.00242,0 -4.91305,0c-2.49136,0 -3.03643,3.48162 -5.5278,3.48162c-0.6836,0 -1.39957,-0.18469 -1.56965,-0.88807c-0.18833,-0.77749 0.18667,-1.46151 -0.27378,-2.0737c-0.44302,-0.57343 -1.07354,-0.14706 -1.77374,-0.14706c-1.17724,-0.25993 -2.15038,-1.46265 -1.8426,-2.74174c0.30696,-1.27682 1.29669,-1.70204 2.45652,-2.07255c1.21207,-0.38875 2.11638,0.16645 3.20734,-0.51871c1.14323,-0.72277 1.42944,-1.64163 2.32046,-2.66536c1.15982,-1.33382 2.4391,-1.33382 3.82126,-0.66692c0.78482,0.37051 1.19383,0.88807 2.04752,0.81398c1.85836,-0.14706 4.06019,-0.05472 4.43519,1.92549c0.20492,1.12976 -2.50879,1.31445 -2.31881,2.44306z" data-paper-data="{&quot;origPos&quot;:null}" fill="#272525"/><path d="M224.20634,133.1972c-0.58322,0.31578 -3.16752,0.04901 -3.72917,-0.71252c-0.672,-0.90974 0.6471,-4.41301 1.54809,-4.65584c0.71348,-0.1938 3.02067,0.93595 3.21065,1.86393c0.07466,0.36024 -0.14103,3.02104 -1.02956,3.50441z" data-paper-data="{&quot;origPos&quot;:null}" fill="#272525"/><path d="M224.12752,132.47101c-0.34099,0.18469 -2.49136,-0.11171 -2.76432,-0.48223c-0.27212,-0.37051 0.71763,-3.18521 1.12664,-3.29579c0.40984,-0.11172 2.18357,0.88807 2.2516,1.22096c0.06803,0.33289 -0.27294,2.37009 -0.61392,2.55705z" data-paper-data="{&quot;origPos&quot;:null}" fill="#ff9cd1"/></g><g><path d="M252.60277,136.96952c0.72759,-0.513 1.6269,-0.41269 2.00439,0.22116c0.3808,0.63499 0.09872,1.56524 -0.62719,2.07711c-0.72925,0.513 -1.62523,0.41383 -2.00438,-0.22116c-0.37997,-0.63613 -0.09873,-1.56524 0.62719,-2.07711z" data-paper-data="{&quot;origPos&quot;:null}" fill="#cf8c6e"/><path d="M251.78311,139.27122c-0.62554,-1.04768 -0.23562,-2.52742 0.86944,-3.30719c1.10672,-0.77977 2.51045,-0.56317 3.13599,0.48223c0.62719,1.04768 0.23645,2.52742 -0.86861,3.30719c-1.10672,0.77977 -2.51045,0.56317 -3.13681,-0.48223z" data-paper-data="{&quot;origPos&quot;:null}" fill="none"/></g><g><path d="M221.80872,139.75345c-1.10672,-0.77977 -1.49581,-2.25951 -0.87027,-3.30719c0.62719,-1.0454 2.0301,-1.262 3.13681,-0.48223c1.10589,0.77977 1.49498,2.25951 0.87027,3.30719c-0.62637,1.0454 -2.03092,1.262 -3.13681,0.48223z" data-paper-data="{&quot;origPos&quot;:null}" fill="#272525"/><path d="M224.75389,139.04664c-0.37913,0.63499 -1.27679,0.73417 -2.00354,0.22116c-0.72675,-0.51187 -1.00883,-1.44212 -0.62969,-2.07711c0.37997,-0.63385 1.27845,-0.73417 2.00438,-0.22116c0.72675,0.51187 1.00799,1.44098 0.62885,2.07711z" data-paper-data="{&quot;origPos&quot;:null}" fill="#cf8c6e"/></g><path d="M223.30868,137.58057c0,-5.4405 6.75234,-9.85089 15.08177,-9.85089c8.32943,0 15.08177,4.41039 15.08177,9.85089c0,5.4405 -6.75233,9.8509 -15.08177,9.8509c-8.32943,0 -15.08177,-4.4104 -15.08177,-9.8509z" data-paper-data="{&quot;origPos&quot;:null}" fill="#272525"/><path d="M251.90008,137.58057c0,3.82134 -5.25153,8.81348 -13.50962,8.81348c-8.25561,0 -13.5088,-4.99214 -13.5088,-8.81348c0,-3.82134 5.25319,-8.14542 13.5088,-8.14542c8.25644,0 13.50962,4.32409 13.50962,8.14543z" data-paper-data="{&quot;origPos&quot;:null}" fill="#cf8c6e"/><g data-paper-data="{&quot;origPos&quot;:null}" fill="#272525"><path d="M238.18139,137.38108h-0.04231c-1.22785,0.0171 -1.4676,0.82082 -1.54974,1.17422c-0.08296,0.35796 -0.90596,0.46854 -0.97149,-0.00912c-0.03484,-0.24624 0.47454,-2.00416 2.52372,-2.02695h0.03734c2.05251,0.02166 2.55773,1.78071 2.52372,2.02695c-0.06554,0.47767 -0.89019,0.36709 -0.97233,0.00912c-0.08296,-0.35454 -0.32273,-1.15827 -1.5489,-1.17422z" data-paper-data="{&quot;origPos&quot;:null}"/><path d="M233.79764,140.18552c2.6855,1.94145 5.88704,1.99503 8.52607,0.14364c0.18087,-0.12654 0.53925,0.33517 0.39823,0.62359c-1.44189,2.94011 -7.67736,2.59354 -9.31089,0.0342c-0.18252,-0.285 0.17505,-0.95419 0.3866,-0.80143z" data-paper-data="{&quot;origPos&quot;:null}"/><path d="M247.23012,134.41703c-1.37138,1.64048 -3.92247,2.46699 -5.24406,0.77522c-0.5882,-0.75354 0.45132,-1.71117 1.04117,-0.95762c0.9466,1.2107 2.8033,0.94964 3.78476,-0.22687c0.25137,-0.30324 0.66868,0.10602 0.41814,0.40928z" data-paper-data="{&quot;origPos&quot;:null}"/><path d="M229.57734,134.00776c0.98227,1.17536 2.83816,1.43757 3.78475,0.22687c0.5882,-0.75241 1.62938,0.20407 1.03953,0.95762c-1.31994,1.69179 -3.87187,0.86527 -5.24157,-0.77522c-0.25303,-0.30324 0.16509,-0.71252 0.4173,-0.40928z" data-paper-data="{&quot;origPos&quot;:null}"/></g><g fill="#272525"><path d="M242.96584,164.81333c0.36338,0.01595 0.57826,0.21089 0.40237,0.87667c-1.72147,1.8628 -9.50835,0.35454 -11.65708,-0.54378c-0.1709,-0.24739 -0.23562,-0.5814 -0.08379,-0.86185c2.47311,0.56088 9.35569,1.148 11.3385,0.52898z" data-paper-data="{&quot;origPos&quot;:null}"/><path d="M242.74183,168.86267c0.4173,0 0.9607,-0.04675 1.12829,0.45258c0.04148,0.63385 -0.46045,0.95192 -0.91923,1.17878c-4.17799,0.40699 -8.69033,0.49933 -12.11668,-1.72257c0,-0.36139 0,-0.81625 0.37582,-0.90746c3.50932,1.54358 7.60436,1.54358 11.5318,0.99866z" data-paper-data="{&quot;origPos&quot;:null}"/><path d="M228.70208,169.49766c-0.74832,0.65095 -1.90151,0.12654 -2.59008,0.90746c-1.63852,1.86051 -1.15567,5.84031 -4.42937,5.98624c-1.52816,0.06725 -2.62577,-1.85481 -4.21948,-1.22438c-1.51159,0.59394 -2.22837,5.06851 -4.09503,3.58421c-0.45713,-0.36481 -0.5011,-1.46264 -0.20824,-1.9517c3.2654,-5.45157 8.01833,-1.10696 9.81779,-3.90115c2.85641,-4.43125 4.78114,-5.39228 5.72442,-3.40067z" data-paper-data="{&quot;origPos&quot;:null}"/><path d="M247.25334,169.95139c2.9377,-0.78319 2.2574,4.72879 4.01124,5.35124c1.48753,0.52669 3.17581,-0.47539 5.30628,0.40584c3.39814,1.40678 2.36774,7.6176 0,5.03432c-0.65125,-0.71137 0.2464,-3.03016 -1.16977,-3.62754c-1.72894,-0.73075 -6.14089,1.65416 -6.93567,-1.17992c-0.47206,-1.68267 1.04782,-3.7632 -1.21208,-5.98396z" data-paper-data="{&quot;origPos&quot;:null}"/><path d="M222.47823,185.28235c0.95324,-3.38699 6.05295,-3.62412 6.51754,-6.9393c0.2099,-1.50824 0.18168,-5.80041 5.0126,-6.75802c-0.66868,0.2166 -2.81409,2.53769 -3.30024,4.26253c-0.52681,1.86165 1.10092,4.10862 -0.87858,5.44359c-1.42529,0.96218 -3.12521,0.75583 -4.01041,2.5867c-0.45545,0.93368 -0.41482,2.43393 -1.50328,2.85461c-0.52929,0.2052 -2.23502,-0.04446 -1.83762,-1.4501z" data-paper-data="{&quot;origPos&quot;:null}"/><path d="M242.53194,186.50445c-2.08235,-1.14572 1.20296,-2.79646 -0.16674,-4.03566c-0.96817,-0.87895 -3.86688,-2.27206 -2.92444,-4.12573c0.70601,-1.38854 1.53481,-3.34709 0.91923,-5.03546c-0.11864,-0.32034 -0.36504,-0.46513 -0.41814,-0.86185c0.15348,-0.28159 0.45545,-0.25194 0.71016,-0.31578c5.27975,3.20232 -1.55721,6.62236 2.50629,8.9309c2.73611,1.56068 2.65481,5.19507 -0.62637,5.44359z" data-paper-data="{&quot;origPos&quot;:null}"/></g></g></g></svg>