<svg xmlns="http://www.w3.org/2000/svg" xmlns:xlink="http://www.w3.org/1999/xlink" version="1.1" width="64.71181792020798" height="191.04733580350876" viewBox="-0.2970704138278961 -0.4751320481300354 64.71181792020798 191.04733580350876">
  <!-- Exported by Scratch - http://scratch.mit.edu/ -->
  <g id="ID0.4707334293052554">
    <g id="R_Shoe">
      <path id="Fill_8_" fill="#EAA06D" d="M 51.5652 172.2844 C 51.0532 172.8715 50.5164 173.0292 49.8001 173.4063 C 49.0021 173.8272 48.3162 174.1407 47.4679 174.4893 C 45.6828 175.2237 43.7239 175.9884 41.8258 175.8896 C 40.5424 175.8222 36.9799 175.8592 35.7344 176.148 C 34.3094 176.4786 38.8058 178.2105 39.6085 178.3064 C 42.1792 179.5975 44.482 179.6706 47.2627 180.1988 C 48.5708 180.4515 51.6897 180.3575 53.0719 180.2919 C 54.6964 180.214 54.5995 179.9357 56.1803 179.6108 C 57.6908 179.303 59.1291 178.7795 60.4572 178.0794 C 61.4148 177.5749 62.2651 176.833 63.2597 176.4454 C 63.2939 176.3067 63.3129 176.0312 63.2787 175.8906 C 63.1239 175.256 62.0361 174.04 61.4395 173.7816 C 60.5104 173.3778 59.3305 173.2097 58.2741 173.2182 C 57.0847 173.2239 55.255 173.6581 54.0248 173.5184 C 53.5602 173.4633 51.6821 173.071 51.9566 172.4772 " stroke-width="0.949999988079071"/>
      <path id="Trim_1_" fill="#BC7240" d="M 63.4611 176.396 C 63.7053 177.3089 63.7547 178.2551 63.7851 179.2498 C 63.7984 179.7371 63.6777 180.101 63.6188 180.5161 C 63.558 180.9712 63.7252 181.4063 63.6625 181.8604 C 62.6508 182.2594 61.7692 182.8693 60.7137 183.216 C 59.5747 183.5913 58.391 183.8801 57.2424 184.2401 C 54.5444 185.0894 51.4883 184.927 48.7646 184.2952 C 47.6807 184.0444 46.6547 183.6559 45.6268 183.2398 C 44.635 182.837 43.8987 182.2993 42.7967 182.2071 C 41.6738 182.1102 40.5899 182.4418 39.4546 182.362 C 38.3963 182.2898 37.1917 182.2166 36.2066 181.8395 C 34.108 181.0339 35.5596 177.8647 35.5007 176.3266 C 35.9235 176.5784 36.7538 177.0325 37.1699 177.3232 C 38.0676 177.9407 38.8067 178.0765 39.8479 178.372 C 40.9585 178.6893 41.8562 179.0797 42.963 179.3818 C 45.356 180.0364 47.8517 180.2682 50.3454 180.4059 C 52.7451 180.5389 55.0546 180.4021 57.2776 179.5481 C 58.5164 179.0731 59.7058 178.467 60.8828 177.8523 C 61.6029 177.4761 62.5995 176.2877 63.3965 176.2763 " stroke-width="0.949999988079071"/>
      <path id="Outline_13_" d="M 63.0536 176.1138 C 63.1049 176.2677 63.5818 176.3333 63.5305 176.1756 C 62.8531 174.0837 61.2562 172.9741 59.0712 172.937 C 57.9673 172.9171 56.8786 173.0748 55.7889 173.2154 C 55.217 173.2885 54.6366 173.3778 54.0618 173.3712 C 53.0453 173.3636 52.462 172.994 51.7856 172.2815 C 51.6868 172.178 51.2099 172.1438 51.3429 172.2844 C 52.0013 172.9769 52.4706 173.4339 53.4415 173.5726 C 54.3221 173.698 55.2094 173.5821 56.0825 173.4652 C 58.9458 173.0843 61.9791 172.7879 63.0536 176.1138 L 63.0536 176.1138 L 63.0536 176.1138 Z M 63.6787 176.1756 C 63.654 176.0188 63.1733 175.9343 63.2018 176.1129 C 63.5219 178.049 63.4222 180.0012 63.4611 181.9516 C 63.4649 182.0988 63.9437 182.2052 63.938 182.0143 C 63.8972 180.0611 63.9998 178.1088 63.6787 176.1756 L 63.6787 176.1756 L 63.6787 176.1756 Z M 53.5669 184.8709 C 53.8918 184.8633 53.5479 184.6097 53.3769 184.6135 C 51.2964 184.66 49.2254 184.5451 47.2494 183.8354 C 45.7132 183.2835 44.2179 182.2983 42.5773 182.0893 C 41.8315 181.9943 41.1171 182.0903 40.3752 182.2052 C 38.896 182.4342 37.4653 182.1758 36.046 181.7445 C 34.4538 181.259 35.7895 177.6899 35.7382 176.357 C 35.7306 176.2098 35.2537 176.1081 35.2613 176.2972 C 35.3316 178.0832 34.5678 179.7723 34.9127 181.5573 C 34.9326 181.6409 35.058 181.6799 35.1236 181.6989 C 36.7756 182.2252 38.4248 182.6631 40.1719 182.5263 C 41.2644 182.4418 42.2324 182.1596 43.3268 182.4959 C 44.159 182.7553 44.9133 183.1571 45.7151 183.4925 C 48.2792 184.5603 50.7967 184.9327 53.5669 184.8709 L 53.5669 184.8709 L 53.5669 184.8709 Z M 63.8924 182.0931 C 64.0834 182.0067 63.6435 181.8091 63.5124 181.8708 C 60.2359 183.3509 56.9745 184.47 53.3797 184.6163 C 53.0577 184.6287 53.3959 184.8804 53.5678 184.8738 C 57.2367 184.7256 60.5475 183.6017 63.8924 182.0931 L 63.8924 182.0931 L 63.8924 182.0931 Z M 63.5153 176.2373 C 63.6369 176.1338 63.1942 175.9495 63.0678 176.0521 C 59.4901 179.1377 54.2936 180.5598 49.6548 180.2986 C 46.9815 180.1456 44.3243 179.6526 41.7489 178.9211 C 40.4388 178.5506 38.8381 178.2181 37.6838 177.4628 C 37.0017 177.0144 36.3833 176.5128 35.6423 176.1632 C 35.4371 176.0644 35.1597 176.2022 35.4589 176.3428 C 36.7376 176.9479 37.6876 177.8143 39.0442 178.2988 C 40.2023 178.7149 41.3727 179.0826 42.5659 179.3818 C 45.0986 180.0145 47.6883 180.518 50.3046 180.5798 C 54.9244 180.6824 59.9509 179.3153 63.5153 176.2373 L 63.5153 176.2373 L 63.5153 176.2373 Z " stroke-width="0.949999988079071" fill="undefined"/>
    </g>
    <g id="L_Shoe">
      <path id="Fill_6_" fill="#EAA06D" d="M 28.9087 182.5482 C 28.9163 183.2379 28.4451 184.5726 27.9102 184.9203 C 27.1863 185.3868 25.8715 185.8884 25.0355 186.0584 C 21.3742 186.808 16.1112 186.8374 12.4651 185.9197 C 11.6301 185.7098 10.8121 185.2604 10.6003 184.5935 C 10.4901 184.2411 10.2307 182.7999 10.283 182.4788 C 10.3761 181.8851 11.6491 181.1279 12.0253 180.5988 C 12.429 180.0316 13.2726 179.5747 13.8341 179.1234 C 14.9655 178.2086 16.705 177.9312 18.129 177.7184 C 19.7564 177.4733 21.1966 177.6956 22.8771 178.1744 C 24.1805 178.5506 25.2398 179.1396 26.4035 179.8046 C 26.964 180.1276 27.4742 180.3793 27.8114 180.9778 C 28.0907 181.4709 28.3862 182.2527 28.9087 182.5482 " stroke-width="0.949999988079071"/>
      <path id="Trim" fill="#BC7240" d="M 28.5705 183.9095 C 28.5249 183.8639 28.3938 184.4472 28.3111 184.4263 C 28.0774 184.755 27.8399 184.9327 27.4894 185.25 C 27.1388 185.5654 26.4007 185.6803 25.9865 185.8532 C 24.5862 186.4384 22.9959 186.4869 21.474 186.6921 C 18.7798 187.0569 16.4513 186.9419 13.6773 186.218 C 12.6181 185.9425 10.8435 185.6689 10.5993 184.5878 C 10.4492 183.919 10.5794 182.21 9.7291 182.5558 C 8.8637 182.9101 9.0907 184.2791 9.2095 185.0847 C 9.3681 186.1677 9.7728 187.1804 10.5357 188.0724 C 11.1703 188.8153 12.1744 188.9635 13.1026 189.1592 C 14.2226 189.3929 15.413 189.6532 16.5606 189.7007 C 17.9504 189.7596 18.9669 189.886 20.353 189.886 C 21.8768 189.886 23.4148 189.6656 24.8807 189.3112 C 25.6245 189.1317 26.4026 189.107 27.0552 188.6975 C 27.5055 188.4125 28.4185 188.2615 28.5534 187.7523 C 28.8308 186.7016 29.3922 184.8823 29.0141 183.8934 " stroke-width="0.949999988079071"/>
      <path id="Outline_12_" d="M 28.6427 182.5263 C 28.6674 182.6812 29.1481 182.7676 29.1186 182.5881 C 28.9201 181.3664 26.4767 180.2919 25.5466 179.797 C 24.0941 179.0256 22.4487 178.6247 20.808 178.6114 C 18.8976 178.6009 16.6841 178.6456 14.8506 179.2184 C 12.904 179.8283 11.3593 180.9883 9.9818 182.4674 C 9.8631 182.5919 10.3181 182.7648 10.4293 182.6479 C 11.5892 181.4044 12.9306 180.2492 14.5561 179.6687 C 16.2737 179.055 18.1889 178.9429 20.0024 178.885 C 21.7219 178.828 23.4063 179.0161 24.97 179.7865 C 25.8649 180.2292 28.4574 181.3977 28.6427 182.5263 L 28.6427 182.5263 L 28.6427 182.5263 Z M 10.5186 182.6707 C 10.51 182.5168 10.0312 182.4199 10.0502 182.6118 C 10.1091 183.4393 10.0151 184.5878 10.7038 185.2015 C 11.2311 185.6689 11.8742 185.9596 12.5563 186.1363 C 14.4117 186.6313 16.4361 186.8792 18.3551 186.9106 C 20.7691 186.9533 23.2961 186.7728 25.6321 186.1202 C 26.489 185.8789 27.4362 185.5977 28.1259 184.9944 C 28.9277 184.2962 28.864 183.5913 29.1224 182.6251 C 28.9628 182.589 28.8051 182.5596 28.6455 182.5263 C 28.8707 183.8734 28.8213 185.3022 28.5068 186.6351 C 28.3415 187.3314 28.466 187.6953 27.7383 188.119 C 27.3896 188.3213 27.0305 188.5379 26.6496 188.6757 C 24.0703 189.5905 21.1956 189.8546 18.4777 189.8043 C 17.0679 189.7786 15.6476 189.6912 14.2635 189.4224 C 12.8404 189.1459 11.0962 188.8457 10.2849 187.4958 C 9.6598 186.4584 8.5217 182.7135 10.5509 182.3943 C 10.8169 182.3525 10.3979 182.1235 10.2545 182.1425 C 8.1787 182.4693 8.9805 186.0708 9.6873 187.2459 C 11.0943 189.5905 14.444 189.7995 16.8883 189.9943 C 20.1316 190.2508 23.7454 190.0693 26.8339 188.974 C 27.3773 188.7802 27.9444 188.5104 28.4052 188.1608 C 28.8954 187.7846 28.77 187.6411 28.9039 187.0768 C 29.2516 185.6081 29.3618 184.0853 29.1177 182.5928 C 29.0958 182.456 28.6816 182.3392 28.6408 182.494 C 28.4099 183.3481 28.4755 184.2259 27.6756 184.8101 C 26.8785 185.3896 25.957 185.7316 25.0004 185.9482 C 23.0624 186.3862 21.0683 186.6493 19.0828 186.6503 C 17.3025 186.6531 15.5127 186.484 13.76 186.1591 C 12.9287 186.0071 11.4049 185.7981 10.947 184.9773 C 10.5499 184.261 10.5746 183.4668 10.5186 182.6707 L 10.5186 182.6707 L 10.5186 182.6707 Z " stroke-width="0.949999988079071" fill="undefined"/>
    </g>
    <g id="Pants_3_">
      <path id="Fill_7_" fill="#3D6767" d="M 53.6619 173.1717 C 54.4789 171.969 54.9928 170.4832 55.2142 169.0515 C 55.5087 167.1591 54.1046 166.5967 52.7689 165.7531 C 51.5899 165.0121 51.6422 163.9557 52.1257 162.7359 C 52.3822 162.0937 52.6872 161.5076 52.8002 160.8179 C 52.9294 160.0313 52.5437 159.4081 51.9652 158.9606 C 51.8977 158.9122 51.8274 158.8637 51.7619 158.8181 C 51.1529 158.421 50.391 158.1959 49.7526 158.1826 C 49.6519 158.1835 49.2073 157.984 49.4429 157.9888 C 49.7811 157.9954 50.1165 158.041 50.4471 158.1113 C 49.3441 157.034 49.3118 155.2395 49.2624 153.7945 C 49.1712 151.259 48.8311 148.788 48.4521 146.28 C 48.0768 143.7948 47.6598 141.2916 47.4394 138.7845 C 47.2028 136.1283 47.3396 133.5766 46.7772 130.9375 C 46.7763 130.9337 46.7848 130.9337 46.7858 130.9309 C 46.7839 130.9252 46.7725 130.9204 46.7725 130.9147 C 46.9729 123.0991 46.4485 115.3005 46.4409 107.4877 C 46.4409 107.483 46.4561 107.483 46.4599 107.4792 L 45.3076 91.9429 C 45.3076 91.9429 32.1263 91.8241 16.154 94.4965 L 15.0387 107.3509 C 15.0387 107.3509 15.1707 107.6188 15.0178 107.5704 C 14.0526 117.8038 13.0836 128.0448 12.1184 138.281 C 12.1184 138.282 12.1212 138.2829 12.1212 138.2848 C 11.7194 144.8237 10.3998 151.3378 8.7972 157.68 C 8.0704 160.55 6.8848 163.6707 7.47 166.6604 C 7.5907 167.2788 7.8263 167.4014 7.2154 167.884 C 6.2398 168.6582 6.9931 169.0591 7.7816 169.6776 C 7.7978 169.6918 7.8025 169.7051 7.8016 169.727 C 7.1898 170.7131 6.3614 171.5215 5.6688 172.443 C 5.3496 172.8667 5.1197 173.3341 4.9354 173.8291 C 4.5991 174.723 5.0418 175.3529 5.5092 176.0815 C 6.3215 177.3431 7.3009 178.4888 8.4162 179.4901 C 9.3919 180.3698 8.3117 181.4604 10.5281 181.4899 C 10.5936 181.4937 10.8321 181.5925 10.8843 181.6495 C 12.2713 180.6444 13.3477 178.3473 15.4671 178.1535 C 17.8279 177.5151 19.3545 177.5778 21.4502 177.8818 C 23.45 178.1744 23.8661 178.1782 25.5381 179.2469 C 26.3494 179.5528 28.2551 181.4832 28.7016 181.4329 C 29.4388 181.3483 30.194 180.3679 29.4017 177.8865 C 28.9875 176.5907 29.6269 177.1246 30.5968 175.8906 C 31.1127 177.1484 33.4725 178.7463 35.4675 177.4999 C 35.3839 177.1123 34.6571 175.8906 37.415 175.8906 C 40.0009 175.9134 41.5503 175.9048 44.254 175.6673 C 45.7161 175.5381 47.4916 174.5311 48.8672 173.9735 C 50.0671 173.4842 49.8837 172.9247 51.0912 172.5694 C 51.7866 172.2977 53.2401 173.8272 53.8414 173.2952 C 53.7331 173.2562 53.6429 173.2002 53.6619 173.1717 L 53.6619 173.1717 Z " stroke-width="0.949999988079071"/>
      <path id="Outline_11_" d="M 55.6379 167.941 C 55.0698 166.1968 51.9338 166.021 52.2749 163.9975 C 52.5171 162.5697 54.1074 160.683 52.7765 159.3463 C 52.2939 158.8599 51.703 158.5255 51.0693 158.3013 C 51.0465 158.2928 51.0228 158.2823 51 158.2747 C 50.9468 158.2291 50.9126 158.1731 50.8641 158.1246 C 49.5427 156.8079 49.7792 154.4614 49.7032 152.7495 C 49.5883 150.1494 49.0857 147.5853 48.7333 145.0137 C 48.377 142.404 47.8412 139.7877 47.8289 137.1458 C 47.8184 135.0729 47.6816 133.0741 47.2494 131.0401 C 47.4498 123.2283 46.9254 115.4326 46.9169 107.6217 L 45.7816 91.4707 C 33.6102 91.0546 15.7379 94.0243 15.7379 94.0243 L 14.5608 107.2255 C 14.1058 112.0439 13.6507 116.8642 13.1947 121.6845 C 13.1168 122.5091 13.0389 123.3337 12.961 124.1593 C 12.5202 128.8266 12.0794 133.493 11.6386 138.1604 C 11.6386 138.1613 11.6405 138.1623 11.6405 138.1632 C 11.2795 144.0656 10.1623 149.967 8.7734 155.7059 C 8.1246 158.3792 7.1556 161.0848 6.9 163.8379 C 6.806 164.8098 6.7214 165.87 7.1176 166.7696 C 7.4073 167.428 6.7832 167.6265 6.4013 168.0103 C 6.1134 168.302 6.0802 168.6259 6.4013 168.9242 C 6.8145 169.3071 7.4463 169.5047 6.9751 170.1374 C 6.6644 170.5544 6.3262 170.9439 5.989 171.3372 C 5.4541 171.9623 4.8604 172.6264 4.5687 173.4082 C 4.4709 173.6619 4.1032 174.4836 4.2552 174.7392 C 4.507 175.1657 4.7587 175.5942 5.0352 176.0074 C 5.685 176.985 6.3956 177.9321 7.2325 178.7596 C 7.8681 179.3856 8.0847 179.7466 8.44 180.5133 C 8.5958 180.8467 8.8105 181.0833 9.0613 181.2571 C 9.067 181.2609 9.0727 181.2666 9.0793 181.2704 C 9.5315 181.5773 10.1063 181.6723 10.7133 181.6894 C 10.7523 181.6903 10.7903 181.6932 10.8292 181.6941 C 10.833 181.6941 10.833 181.6932 10.8359 181.6932 C 10.8957 181.6922 10.9033 181.677 10.8824 181.6542 C 10.8653 181.6362 10.8292 181.6143 10.7865 181.5934 C 10.8387 181.5763 10.8938 181.5573 10.9499 181.5374 C 10.9727 181.6162 11.3517 181.7578 11.4192 181.6485 C 14.6045 175.845 24.5168 176.9213 28.2617 181.5545 C 28.332 181.64 28.6037 181.7141 28.7035 181.6533 C 29.2155 181.3284 30.2225 180.9009 30.1874 180.1428 C 30.1351 179.0199 29.5129 178.2228 29.6867 177.0638 C 30.024 176.7997 30.3327 176.49 30.6225 176.1575 C 31.943 177.8096 33.558 178.3492 35.666 177.574 C 35.8095 177.5217 35.382 177.3479 35.2756 177.3878 C 34.3455 177.7336 33.2169 178.0537 32.3059 177.4467 C 31.7017 177.0439 31.258 176.5138 30.841 175.9267 C 30.8391 175.9229 30.8305 175.9219 30.8277 175.9191 C 32.0997 174.3288 32.7942 172.1599 32.3562 170.1839 C 32.1377 169.1836 31.6437 168.6639 30.8324 168.0816 C 30.4714 167.8213 29.5357 167.2874 29.7979 166.6917 C 29.9347 166.3896 30.1114 166.1597 30.2843 165.8804 C 30.6966 165.2154 30.537 164.5628 30.4258 163.8579 C 32.0978 165.8339 34.2838 167.7614 37.0103 167.4812 C 37.2497 167.4565 36.8032 167.2712 36.6996 167.2845 C 34.0073 167.5619 31.9135 165.2382 30.3764 163.3059 C 30.2121 155.1549 29.5205 146.9536 30.8001 138.8567 C 30.8153 138.8501 30.84 138.8501 30.8438 138.8368 C 32.1482 134.1856 32.874 129.4109 33.4364 124.621 C 33.6995 122.3828 34.052 120.1189 34.1394 117.8627 C 34.2182 115.862 34.2866 113.9876 35.1274 112.1304 C 35.1663 112.0477 34.7018 111.8862 34.6533 111.9983 C 33.7451 113.9981 33.7831 115.9912 33.6444 118.1344 C 33.5019 120.4134 33.1818 122.6877 32.9063 124.9544 C 32.3524 129.4926 31.6513 134.0127 30.4353 138.4264 C 30.3954 138.4302 30.3622 138.4397 30.3574 138.4615 C 29.0227 146.6287 29.7285 154.9003 29.8957 163.1207 C 29.8596 163.1292 29.8425 163.1463 29.8691 163.1796 C 29.8786 163.1919 29.8891 163.2033 29.8986 163.2157 C 29.8986 163.2527 29.9005 163.2888 29.9014 163.3259 C 29.9005 163.3287 29.891 163.3278 29.891 163.3306 C 29.8938 163.3648 29.9005 163.399 29.9043 163.4332 C 29.9043 163.4418 29.9043 163.4503 29.9043 163.457 C 29.9043 163.4579 29.9071 163.4589 29.9071 163.4608 C 30.0059 164.2436 30.2966 165.0606 29.8026 165.755 C 29.4293 166.288 29.1072 166.7022 29.5053 167.294 C 30.0962 168.1756 31.3464 168.4074 31.7169 169.4942 C 32.5861 172.0507 31.3777 175.1154 29.3561 176.7874 C 28.3273 175.56 26.0587 175.1781 24.6432 174.8361 C 22.1561 174.2357 19.6452 173.7056 17.1011 173.4177 C 16.7886 173.3826 17.1838 173.5982 17.3054 173.6115 C 19.3289 173.8405 21.3296 174.2319 23.3141 174.6869 C 24.1777 174.8836 25.0469 175.0755 25.8972 175.3329 C 26.4482 175.502 26.9735 175.7006 27.5141 175.8887 C 27.8694 175.9998 28.2066 176.1547 28.523 176.3542 C 28.4755 176.585 28.4251 176.8149 28.3767 177.0439 C 25.1505 177.0334 22.0801 175.7823 18.8539 175.8649 C 18.6164 175.8725 19.0629 176.0654 19.1617 176.0635 C 21.2545 176.0055 23.2191 176.5907 25.2654 176.9185 C 26.5052 177.1189 27.9349 177.4087 29.1946 177.1474 C 29.1196 178.03 29.4578 178.5544 29.6402 179.4825 C 29.8397 180.5009 29.2089 180.8904 28.4698 181.3483 C 24.4997 176.8235 14.5314 175.6246 11.1076 181.2628 L 10.5271 181.4927 C 8.3108 181.4633 9.3919 180.3717 8.4153 179.493 C 7.3 178.4917 6.3215 177.346 5.5083 176.0844 C 5.0418 175.3557 4.5982 174.7259 4.9345 173.8319 C 5.1188 173.337 5.3496 172.8696 5.6679 172.4459 C 6.3604 171.5234 7.1898 170.7159 7.8006 169.7298 C 7.8016 169.7089 7.7959 169.6947 7.7807 169.6804 C 6.9922 169.0629 6.2388 168.662 7.2145 167.8868 C 7.8253 167.4042 7.5897 167.2817 7.4691 166.6632 C 7.4672 166.6528 7.4672 166.6433 7.4653 166.6338 C 9.9875 167.4118 12.22 169.0078 14.9123 169.194 C 17.6607 169.385 20.3292 167.9562 22.9455 167.238 C 23.0852 167.199 22.6643 167.0204 22.5494 167.0518 C 20.1155 167.7206 17.6103 169.0211 15.0377 169.0012 C 12.3112 168.9812 9.9904 167.2389 7.4444 166.4637 C 6.9485 163.5339 8.0866 160.4882 8.7972 157.6829 C 10.3998 151.3407 11.7194 144.8265 12.1212 138.2877 C 12.1212 138.2858 12.1184 138.2848 12.1184 138.2839 C 13.0836 128.0476 14.0526 117.8066 15.0178 107.5732 C 15.1707 107.6217 15.0387 107.3538 15.0387 107.3538 L 16.154 94.4993 C 32.1254 91.8279 45.3076 91.9457 45.3076 91.9457 L 46.4599 107.482 C 46.4561 107.4858 46.4409 107.4858 46.4409 107.4906 C 46.4485 115.3043 46.9729 123.1029 46.7725 130.9176 C 46.7725 130.9233 46.7839 130.928 46.7858 130.9337 C 46.7848 130.9366 46.7763 130.9366 46.7772 130.9404 C 47.3396 133.5785 47.2028 136.1312 47.4394 138.7874 C 47.6598 141.2944 48.0778 143.7967 48.4521 146.2829 C 48.8302 148.7918 49.1712 151.2618 49.2624 153.7974 C 49.3118 155.2423 49.3441 157.0369 50.4471 158.1142 C 50.1165 158.0439 49.7821 157.9983 49.4429 157.9916 C 49.2073 157.9869 49.6519 158.1864 49.7526 158.1854 C 50.391 158.1987 51.1539 158.4239 51.7619 158.821 C 51.8322 158.8666 51.9006 158.9141 51.9652 158.9635 C 52.5437 159.4109 52.9294 160.0341 52.8002 160.8207 C 52.6872 161.5104 52.3822 162.0966 52.1257 162.7388 C 51.6422 163.9586 51.5899 165.015 52.7689 165.756 C 54.1046 166.5996 55.5087 167.161 55.2142 169.0544 C 54.9938 170.486 54.4798 171.9718 53.6619 173.1745 L 53.3807 173.3702 L 53.3835 173.3788 C 53.3284 173.3607 53.2809 173.3503 53.2543 173.3522 C 52.9608 173.3759 52.291 172.4174 51.9519 172.254 C 51.7619 172.1656 51.5671 172.1352 51.3686 172.1951 C 50.5867 172.4155 49.727 173.261 48.9955 173.6524 C 47.9467 174.2119 46.8656 174.7287 45.7313 175.0973 C 43.4294 175.845 41.2283 175.8583 38.8352 175.8459 C 37.0796 175.8374 35.325 175.8953 33.7014 176.6392 C 33.6425 176.6648 34.0225 176.8624 34.1508 176.7997 C 36.2047 175.8583 38.5037 176.0464 40.7029 176.0606 C 42.7169 176.073 44.615 175.8583 46.5169 175.142 C 48.2849 174.4779 49.9664 173.6058 51.5282 172.5437 C 52.0174 172.2103 52.7337 173.431 53.4272 173.5317 L 53.4415 173.5773 C 53.4415 173.5773 53.9877 173.4804 54.0428 173.3351 C 54.0818 173.3332 54.1217 173.3303 54.1388 173.3056 C 55.0204 172.0041 56.1594 169.5484 55.6379 167.941 L 55.6379 167.941 Z " stroke-width="0.949999988079071" fill="undefined"/>
    </g>
    <g id="Undershirt">
      <path id="Fill_5_" fill="#C0E1E1" d="M 14.6235 106.4684 C 14.9598 107.4659 15.7654 108.0672 16.7506 108.4539 C 17.5087 108.7161 18.3542 108.8966 19.1693 109.0362 C 20.0376 109.1616 20.8831 109.2338 21.5642 109.3383 C 25.3395 109.9226 29.1243 110.3909 32.9528 110.2332 C 32.9509 110.2247 32.9395 110.218 32.9414 110.2095 C 33.0345 109.4324 33.3005 108.6885 33.4003 107.9038 C 33.5105 107.0374 33.6577 106.1767 33.7831 105.3113 C 34.0111 103.7343 34.4681 102.2095 34.7056 100.6449 C 34.7293 100.4919 35.0438 100.5869 35.0656 100.7076 C 35.3924 102.6275 35.7468 104.5646 35.685 106.5216 C 35.6613 107.3015 35.3174 109.3773 36.0014 109.9976 C 39.1449 109.667 42.2647 109.173 45.2297 108.0387 C 45.546 107.92 49.6994 105.8879 49.9949 104.6995 C 49.9977 104.6719 50.0044 104.6434 50.0063 104.6168 C 50.0139 104.538 50.0025 104.4629 49.9692 104.3945 C 49.9122 104.3717 49.8628 104.3394 49.8514 104.2929 C 49.8457 104.2691 49.841 104.2444 49.8343 104.2207 C 49.8343 104.2197 49.8343 104.2197 49.8334 104.2188 C 49.7583 104.1599 49.7688 104.1143 49.803 104.0801 C 49.2482 101.7963 48.9024 99.4783 48.5851 97.147 C 48.4388 96.0744 48.2497 95 48.1623 93.9208 C 48.0939 93.0895 48.111 92.1519 47.8194 91.3596 C 45.2829 92.2222 42.7312 94.1089 40.1994 94.9772 C 37.0084 96.0697 34.7056 97.0111 31.3397 97.4177 C 28.447 97.7673 25.7756 97.7996 22.8638 97.7996 C 21.6089 97.7996 19.9055 97.4206 18.6971 97.128 C 18.1528 96.9988 17.1762 96.7261 16.6385 96.5542 C 16.268 96.4383 16.1416 95.8873 15.926 96.1381 C 15.6552 96.4535 15.5944 96.0117 15.6239 96.329 C 15.5916 96.9484 15.5393 97.4453 15.4405 97.9602 C 15.2239 100.7997 14.6558 103.6098 14.6216 106.4655 C 14.6226 106.4674 14.6235 106.4674 14.6235 106.4684 L 14.6235 106.4684 Z " stroke-width="0.949999988079071"/>
      <path id="Outline_10_" d="M 50.1858 104.2045 C 49.5446 101.5939 49.1864 98.9349 48.8226 96.2739 C 48.6079 94.7188 48.7162 92.7475 48.1414 91.2769 C 48.0892 91.143 47.731 91.1221 47.8042 91.3045 C 47.8108 91.3225 47.8137 91.3415 47.8203 91.3596 C 48.1129 92.1519 48.0949 93.0895 48.1633 93.9208 C 48.2516 95.0009 48.4397 96.0754 48.586 97.147 C 48.9033 99.4783 49.2491 101.7963 49.8039 104.0801 C 49.7697 104.1133 49.7593 104.1589 49.8343 104.2188 C 49.8353 104.2197 49.8353 104.2197 49.8353 104.2207 C 49.8419 104.2444 49.8467 104.2691 49.8524 104.2929 C 49.8638 104.3404 49.9132 104.3717 49.9702 104.3945 C 50.0034 104.4629 50.0148 104.538 50.0072 104.6168 C 50.0044 104.6434 50.0025 104.671 49.9958 104.6995 C 49.7004 105.8879 45.547 107.92 45.2306 108.0387 C 42.2657 109.1721 39.1459 109.667 36.0023 109.9976 C 35.3183 109.3773 35.6622 107.3015 35.686 106.5216 C 35.7468 104.5636 35.3924 102.6275 35.0666 100.7076 C 35.0457 100.5869 34.7303 100.491 34.7065 100.6449 C 34.469 102.2095 34.013 103.7343 33.7841 105.3113 C 33.6587 106.1767 33.5114 107.0374 33.4012 107.9038 C 33.3015 108.6885 33.0345 109.4314 32.9424 110.2095 C 32.9405 110.219 32.9519 110.2256 32.9538 110.2332 C 29.1253 110.3909 25.3405 109.9226 21.5652 109.3383 C 20.884 109.2338 20.0385 109.1607 19.1702 109.0362 C 18.3418 108.9175 17.4963 108.7455 16.7515 108.4539 C 15.7664 108.0672 14.9598 107.4659 14.6245 106.4684 C 14.6245 106.4674 14.6235 106.4674 14.6226 106.4665 C 14.6568 103.6108 15.2249 100.8007 15.4415 97.9611 C 15.4975 97.2296 15.5355 96.4962 15.5279 95.76 C 15.526 95.6156 15.1622 95.5519 15.1641 95.7258 C 15.1821 97.4063 14.994 99.0698 14.785 100.7313 C 14.5941 102.2485 14.3917 103.7647 14.3053 105.2904 C 14.2834 105.6723 14.2654 106.0542 14.2606 106.437 C 14.2606 106.4389 14.2635 106.4399 14.2635 106.4427 C 15.0501 108.7617 18.1461 109.0961 20.2181 109.3782 C 24.5719 109.9701 28.8621 110.6769 33.2739 110.4679 C 33.4326 110.4603 33.3917 110.3615 33.3034 110.2931 C 33.3955 109.5198 33.6596 108.7807 33.7584 108.0017 C 33.8696 107.1353 34.0111 106.2746 34.1403 105.4091 C 34.3237 104.2017 34.6267 103.0218 34.8661 101.8343 C 34.8699 101.8153 34.8737 101.7972 34.8775 101.7792 C 34.8794 101.7991 34.8832 101.8191 34.887 101.8381 C 35.1597 103.6564 35.3354 105.45 35.2974 107.3129 C 35.2822 108.0539 35.1055 109.4409 35.6955 110.0689 C 35.6537 110.1439 35.8028 110.275 35.9263 110.2608 C 39.7529 109.8675 43.9681 109.3459 47.3529 107.368 C 48.0179 106.9823 51.0589 105.2362 50.1858 104.2045 L 50.1858 104.2045 Z " stroke-width="0.949999988079071" fill="undefined"/>
    </g>
    <g id="Sweater">
      <path id="Fill_4_" fill="#302D63" d="M 49.4306 92.5604 C 50.258 96.71 56.2687 96.121 59.2374 95.038 C 60.1998 94.6884 60.9018 94.0766 61.4528 93.2016 C 62.5624 91.4394 60.9579 90.3725 59.9689 89.1556 C 58.4499 87.2841 58.9819 84.1139 58.7919 81.8985 C 58.505 78.6315 57.3137 75.6523 56.5622 72.4916 C 55.7348 69.0089 55.54 65.3562 54.8712 61.8326 C 54.2148 58.3689 53.4557 54.9252 52.881 51.4463 C 52.595 49.7125 52.3452 47.9731 52.0716 46.2374 C 51.798 44.4875 51.6783 42.5818 50.7672 41.0295 C 49.4581 40.1802 48.1832 39.2692 46.858 38.4455 C 45.6448 37.6922 44.2863 37.1649 42.9801 36.5997 L 38.5493 36.0696 C 38.5493 36.0696 38.3916 40.0273 33.6805 39.9484 C 28.9695 39.8696 26.1195 35.5946 26.1195 35.5946 L 22.6757 36.7422 C 22.6757 36.7422 22.5009 36.7745 22.2929 36.7982 C 22.2691 36.8144 22.2577 36.8372 22.214 36.8438 C 19.7887 37.2124 17.4165 37.7587 15.1802 38.7828 C 13.2403 39.6739 11.4838 40.9412 9.7348 42.1581 C 8.9872 43.6696 8.9691 45.4641 8.7943 47.1152 C 8.5986 48.9563 8.4286 50.8012 8.2205 52.6414 C 7.793 56.4385 7.1214 60.2043 6.6264 63.992 C 6.141 67.7331 6.1239 71.4751 5.209 75.1507 C 4.7692 76.912 4.3151 78.6077 4.1327 80.4203 C 3.9512 82.2291 4.2847 84.151 3.9189 85.9246 C 3.6767 87.1131 2.74 88.1049 2.0474 89.0501 C 1.0205 90.4552 0.4429 92.0768 0.801 93.8134 C 1.2798 96.1438 3.0763 97.8709 5.1796 98.7819 C 8.8181 100.3589 14.462 99.6037 14.9389 94.9781 C 14.8401 94.4309 15.299 93.7944 15.5355 93.3185 C 15.8509 92.6877 15.7759 92.1167 15.754 91.4185 C 15.7531 91.3672 15.7816 91.3377 15.812 91.3102 C 15.5916 90.8266 15.413 90.3269 15.2638 89.8177 C 14.9427 88.7167 14.9589 87.6451 15.1194 86.5222 C 15.5441 83.5743 15.9535 80.7072 16.0495 77.7242 C 16.2167 72.7282 16.7021 67.7796 17.4631 62.8406 C 17.4203 61.8032 17.1885 60.7848 17.0432 59.7588 C 16.0324 58.748 15.0254 57.8379 14.2929 56.582 C 14.1542 56.3445 14.6416 56.3293 14.7527 56.5212 C 15.4282 57.6811 16.3639 58.5371 17.2987 59.4643 C 17.3985 59.4909 17.4935 59.5469 17.5049 59.641 C 17.5077 59.6609 17.5115 59.6809 17.5144 59.7008 C 17.5153 59.7027 17.5144 59.7046 17.5153 59.7065 C 17.6588 60.7667 17.9105 61.8212 17.9504 62.8909 C 17.9504 62.9033 17.939 62.9052 17.9371 62.9156 C 17.9371 62.9242 17.9466 62.9299 17.9457 62.9384 C 17.1448 68.1226 16.6727 73.3115 16.5112 78.5555 C 16.4266 81.2867 16.0495 83.9591 15.5973 86.6504 C 15.3474 88.1343 15.5612 89.4634 16.0932 90.8637 C 16.4494 91.7937 17.293 92.5433 17.1876 93.5807 C 17.1657 93.8115 16.6869 93.6909 16.7107 93.4534 C 16.7591 92.9831 16.4979 92.5385 16.2395 92.1196 C 16.2072 92.8596 16.0533 93.3099 15.6771 94.1592 C 15.1517 95.3429 16.0533 95.6555 16.99 96.044 C 17.8412 96.4003 18.7807 96.6416 19.6937 96.7603 C 24.2565 97.3522 28.7529 97.241 33.329 96.7033 C 37.8862 96.1694 42.126 93.7545 46.4362 92.3295 C 47.3415 92.0331 48.2269 91.6949 49.0819 91.2798 C 49.8144 90.9235 51.8331 90.0372 51.5405 89.0435 C 51.3154 88.2778 50.5459 87.3629 50.468 86.487 C 49.8989 87.0893 49.2957 87.6964 48.7409 88.3661 C 48.5965 88.5428 48.1414 88.3462 48.3029 88.1505 C 49.1969 87.0675 50.2789 86.164 51.1786 85.0867 C 52.6283 83.3558 52.4126 81.4739 51.6089 79.496 C 50.1212 75.829 48.4378 72.2503 47.3339 68.4361 C 46.4248 65.2944 46.1797 62.1946 46.5226 58.956 C 46.5492 58.7024 46.5787 58.4506 46.6062 58.1979 C 46.5948 58.1599 46.5948 58.12 46.6205 58.0773 C 46.99 54.7722 47.4308 51.5261 47.1838 48.1754 C 47.1667 47.9227 47.6569 47.9845 47.674 48.2115 C 47.8916 51.1784 47.6056 54.0806 47.2532 57.0085 C 48.1376 55.4743 48.8653 53.8659 48.5965 52.0296 C 48.5613 51.7759 49.0515 51.8367 49.0829 52.0628 C 49.4192 54.3495 48.2478 56.3217 47.1078 58.2093 C 47.1002 58.2673 47.0936 58.3243 47.0869 58.3822 C 46.6043 62.3114 47.0033 65.9176 48.1965 69.6977 C 48.7998 71.6024 49.555 73.4587 50.3226 75.3017 C 51.0551 77.064 52.0298 78.8462 52.5304 80.6939 C 53.1489 82.9739 52.2758 84.4597 51.037 85.8676 C 51.0399 85.8895 51.057 85.9075 51.0465 85.9322 C 50.4547 87.2185 52.3509 88.425 52.0725 89.737 C 51.9424 90.3469 50.5582 90.9444 50.0737 91.2323 C 49.7108 91.4479 49.3327 91.6341 48.9489 91.8089 C 48.9508 91.8773 48.9546 91.9438 48.9641 91.9533 C 49.0487 92.0502 49.1209 92.2013 49.1893 92.3761 C 49.2985 92.4008 49.4087 92.4606 49.4306 92.5604 L 49.4306 92.5604 Z " stroke-width="0.949999988079071"/>
      <path id="Outline_9_" fill="#010101" d="M 60.5646 89.2401 C 59.6535 88.1191 59.5091 86.8091 59.4664 85.4107 C 59.4084 83.5382 59.3324 81.6582 59.0066 79.8104 C 58.7206 78.1869 58.2257 76.6697 57.7507 75.0965 C 56.5831 71.2357 56.3513 67.2391 55.6274 63.2861 C 54.9026 59.3455 54.0115 55.4344 53.3731 51.4805 C 53.0415 49.4313 52.7518 47.3746 52.4126 45.3264 C 52.1628 43.814 52.0165 42.3016 51.228 40.9602 C 51.2318 40.9184 51.208 40.8718 51.1358 40.8253 C 50.9392 40.698 50.7463 40.5631 50.5516 40.4329 C 50.2656 40.2429 49.9806 40.0529 49.6975 39.8591 C 48.834 39.272 47.9704 38.6849 47.0774 38.1463 C 46.1464 37.5858 45.1499 37.1402 44.1514 36.7099 C 43.8332 36.5721 43.5149 36.4372 43.1986 36.2995 C 42.7806 36.1361 38.1541 35.6316 38.1541 35.6316 C 38.1541 35.6316 38.1541 39.709 33.6815 39.5105 C 29.2089 39.3119 26.3978 35.1956 26.3978 35.1956 L 22.2055 36.5085 C 22.158 36.4866 22.1057 36.4705 22.0506 36.479 C 21.9756 36.4904 21.9005 36.5028 21.8264 36.5151 C 21.7732 36.5237 21.7191 36.5332 21.6659 36.5408 L 21.6478 36.5417 C 21.6469 36.5427 21.6478 36.5427 21.6469 36.5436 C 19.2415 36.9274 16.8389 37.4851 14.6444 38.5709 C 12.8812 39.444 11.2634 40.5555 9.6512 41.6755 C 9.5486 41.648 9.4375 41.6584 9.39 41.7449 C 9.3605 41.799 9.3463 41.8551 9.3187 41.9092 C 9.2741 41.9396 9.2294 41.97 9.1857 42.0014 C 9.086 42.0707 9.1107 42.1562 9.1829 42.2218 C 8.7193 43.2972 8.5996 44.4277 8.4666 45.6085 C 8.2756 47.2948 8.1179 48.9886 7.9393 50.6758 C 7.528 54.6155 6.8706 58.5162 6.3367 62.4368 C 5.8075 66.3043 5.8455 70.3171 4.9468 74.119 C 4.4946 76.0332 3.8942 77.8933 3.6976 79.8598 C 3.5304 81.5147 3.5788 83.1516 3.5513 84.8103 C 3.5209 86.45 2.5034 87.6983 1.5943 88.9979 C 1.3102 89.4035 1.0385 89.8158 0.8086 90.2443 C 0.3982 91.0119 0.1256 91.8355 0.1864 92.7979 C 0.3393 95.2242 1.7368 97.127 3.6406 98.3525 C 3.6947 98.3877 3.7498 98.4219 3.8049 98.4561 C 5.1055 99.2541 6.6245 99.7462 8.1455 99.8706 C 11.3707 100.1347 14.6691 98.856 15.3436 95.6213 C 16.1084 96.3452 17.6778 96.7071 18.4777 96.8981 C 23.0491 97.9877 27.6965 97.5213 32.3249 97.1859 C 37.4606 96.8154 42.241 94.2267 47.0461 92.5623 C 47.6892 92.34 48.3286 92.0958 48.9489 91.8137 C 49.3318 91.6389 49.7108 91.4527 50.0737 91.237 C 50.2799 91.1145 50.6475 90.934 51.0123 90.7221 C 51.0209 90.7316 51.0247 90.7402 51.0342 90.7497 C 53.1185 92.6563 56.5993 94.3055 59.0246 92.0531 C 59.0588 92.0208 59.0721 91.9875 59.0759 91.9543 C 59.0778 91.9467 59.0778 91.9381 59.0769 91.9296 C 59.0759 91.9144 59.074 91.9011 59.0683 91.8868 C 59.0645 91.8773 59.0588 91.8669 59.0522 91.8574 C 59.0436 91.8441 59.0341 91.8317 59.0227 91.8194 C 59.0151 91.8108 59.0123 91.8023 59.0028 91.7937 C 58.105 90.9872 56.3276 91.7016 55.2607 91.5781 C 54.9358 91.5401 55.0289 91.9134 55.2997 91.9476 C 55.8431 92.0084 56.396 91.9343 56.9365 91.8887 C 57.3526 91.8536 58.0252 91.7358 58.467 91.9239 C 56.2269 93.7659 53.2249 92.2279 51.3562 90.5188 C 51.3543 90.5169 51.3505 90.516 51.3486 90.5141 C 51.7096 90.2756 52.0146 90.0096 52.0725 89.7408 C 52.3509 88.4288 50.4547 87.2233 51.0465 85.936 C 51.0579 85.9113 51.0399 85.8933 51.037 85.8714 C 52.2768 84.4635 53.1498 82.9777 52.5304 80.6977 C 52.0298 78.8509 51.0551 77.0687 50.3226 75.3055 C 49.5541 73.4625 48.7988 71.6053 48.1965 69.7015 C 47.0033 65.9214 46.6043 62.3152 47.0869 58.386 C 47.0945 58.3281 47.1012 58.2711 47.1078 58.2131 C 48.2478 56.3255 49.4201 54.3533 49.0829 52.0666 C 49.0515 51.8405 48.5613 51.7797 48.5965 52.0334 C 48.8653 53.8707 48.1376 55.4781 47.2532 57.0123 C 47.6056 54.0844 47.8925 51.1822 47.674 48.2153 C 47.6569 47.9883 47.1677 47.9265 47.1838 48.1792 C 47.4308 51.5289 46.99 54.776 46.6205 58.0811 C 46.5958 58.1238 46.5958 58.1647 46.6062 58.2017 C 46.5787 58.4544 46.5492 58.7071 46.5226 58.9598 C 46.1797 62.1984 46.4238 65.2992 47.3339 68.4399 C 48.4378 72.2541 50.1212 75.8318 51.6089 79.4998 C 52.4126 81.4777 52.6283 83.3587 51.1786 85.0905 C 50.2789 86.1678 49.1969 87.0713 48.3029 88.1543 C 48.1414 88.349 48.5965 88.5457 48.7409 88.3699 C 49.2957 87.7002 49.8999 87.0931 50.468 86.4908 C 50.5459 87.3667 51.3154 88.2816 51.5405 89.0473 C 51.8341 90.0419 49.8153 90.9273 49.0819 91.2836 C 48.2269 91.6997 47.3415 92.0369 46.4362 92.3333 C 42.126 93.7583 37.8862 96.1742 33.329 96.7071 C 28.7538 97.2439 24.2575 97.356 19.6937 96.7641 C 18.7807 96.6454 17.8412 96.4041 16.99 96.0478 C 16.0533 95.6593 15.1517 95.3467 15.6771 94.163 C 16.0533 93.3137 16.2081 92.8634 16.2395 92.1234 C 16.4969 92.5423 16.7582 92.9869 16.7107 93.4572 C 16.6869 93.6947 17.1657 93.8153 17.1876 93.5845 C 17.293 92.5461 16.4494 91.7975 16.0932 90.8675 C 15.5612 89.4672 15.3474 88.1391 15.5973 86.6542 C 15.7265 85.8828 15.8471 85.1124 15.9592 84.3419 C 21.3723 92.3761 33.538 93.9616 41.6966 89.4824 C 41.936 89.3503 41.5218 89.0929 41.3309 89.1974 C 33.3556 93.5721 21.4835 91.9695 16.2765 84.0721 C 16.2205 83.9895 16.1065 83.961 16.0077 83.9733 C 16.2604 82.1788 16.4542 80.3814 16.5102 78.5574 C 16.6717 73.3124 17.1439 68.1245 17.9447 62.9403 C 17.9457 62.9308 17.9362 62.9251 17.9362 62.9175 C 17.9381 62.9071 17.9495 62.9042 17.9495 62.8928 C 17.9096 61.8231 17.6578 60.7696 17.5144 59.7084 C 17.5134 59.7065 17.5144 59.7046 17.5134 59.7027 C 17.5106 59.6828 17.5068 59.6628 17.5039 59.6429 C 17.4916 59.5488 17.3975 59.4928 17.2978 59.4662 C 16.363 58.539 15.4272 57.683 14.7518 56.5231 C 14.6406 56.3321 14.1533 56.3464 14.292 56.5839 C 15.0244 57.8388 16.0314 58.7489 17.0422 59.7607 C 17.1885 60.7867 17.4194 61.8051 17.4621 62.8425 C 16.7012 67.7815 16.2157 72.7301 16.0485 77.7261 C 15.9526 80.7091 15.5431 83.5762 15.1185 86.5241 C 14.9883 87.4361 14.9636 88.3148 15.127 89.2021 C 15.1147 89.2335 15.0966 89.261 15.1118 89.3057 C 16.2689 92.7456 10.5528 94.2058 8.1977 93.1313 C 7.9479 93.0154 7.6857 93.2919 7.9821 93.4277 C 10.2003 94.4423 14.9484 93.5142 15.6429 90.9026 C 15.698 91.0394 15.7483 91.1772 15.8101 91.3111 C 15.7806 91.3387 15.7512 91.3681 15.7521 91.4194 C 15.774 92.1177 15.849 92.6886 15.5336 93.3194 C 15.2971 93.7954 14.8392 94.4319 14.937 94.9791 C 14.4611 99.6046 8.8162 100.3599 5.1777 98.7829 C 3.0744 97.8718 1.2779 96.1447 0.7991 93.8144 C 0.441 92.0778 1.0186 90.4571 2.0455 89.0511 C 2.7381 88.1058 3.6748 87.114 3.917 85.9256 C 4.2828 84.1519 3.9493 82.2301 4.1308 80.4213 C 4.3132 78.6087 4.7673 76.9139 5.2071 75.1516 C 6.122 71.4761 6.1391 67.7331 6.6245 63.9929 C 7.1195 60.2053 7.7911 56.4395 8.2186 52.6423 C 8.4267 50.8012 8.5967 48.9563 8.7924 47.1162 C 8.9672 45.466 8.9853 43.6715 9.7329 42.1591 C 11.4819 40.9431 13.2384 39.6748 15.1783 38.7837 C 17.4146 37.7596 19.7868 37.2134 22.2121 36.8448 C 22.2558 36.8381 22.2672 36.8153 22.291 36.7992 C 22.499 36.7754 22.6738 36.7431 22.6738 36.7431 L 26.1176 35.5955 C 26.1176 35.5955 28.9676 39.8705 33.6786 39.9494 C 38.3897 40.0282 38.5474 36.0705 38.5474 36.0705 L 42.9782 36.6006 C 44.2844 37.1668 45.6429 37.6931 46.8561 38.4465 C 48.1823 39.2701 49.4562 40.1812 50.7653 41.0305 C 51.6764 42.5837 51.7961 44.4894 52.0697 46.2384 C 52.3423 47.974 52.5931 49.7135 52.8791 51.4472 C 53.4529 54.9252 54.2119 58.3689 54.8693 61.8336 C 55.5381 65.3571 55.7329 69.0099 56.5603 72.4926 C 57.3118 75.6532 58.5031 78.6324 58.79 81.8995 C 58.98 84.1149 58.4489 87.285 59.967 89.1565 C 60.956 90.3735 62.5596 91.4394 61.4509 93.2026 C 60.8999 94.0775 60.1979 94.6884 59.2355 95.0389 C 56.2668 96.1219 50.2561 96.7109 49.4287 92.5613 C 49.4078 92.4616 49.2966 92.4017 49.1864 92.3808 C 49.0496 92.3542 48.9138 92.3913 48.9394 92.5281 C 49.0031 92.8473 49.0781 93.1769 49.2159 93.4724 C 50.7739 96.7385 55.6388 96.4877 58.5601 95.6754 C 60.3413 95.1805 62.0304 94.163 62.3002 92.15 C 62.4845 90.7725 61.3056 90.1512 60.5646 89.2401 L 60.5646 89.2401 Z " stroke-width="0.949999988079071"/>
    </g>
    <g id="Neck">
      <path id="Fill_1_" fill="#A86C35" d="M 33.8791 39.8306 C 38.0154 39.6235 38.7839 36.8058 38.9711 35.7675 C 38.5341 35.8663 36.6493 36.1636 36.6274 33.9815 C 36.0413 34.3387 35.4209 34.6294 34.774 34.7823 C 34.774 34.7823 34.7721 34.7823 34.7721 34.7823 C 34.7521 34.7871 34.7236 34.7909 34.6828 34.7899 C 32.0741 34.7386 29.1367 33.4903 26.8244 32.3636 C 26.7636 32.3342 26.7047 32.3009 26.6448 32.2686 L 26.5755 33.1911 L 26.3665 35.9271 C 27.154 36.9607 29.6649 40.0415 33.8791 39.8306 L 33.8791 39.8306 Z " stroke-width="0.949999988079071"/>
      <path id="L_Side" d="M 26.5755 33.1901 L 26.6448 32.2677 L 26.6648 32.0026 L 26.4273 31.9437 L 26.2791 32.8339 L 26.0416 35.586 L 26.1632 35.7618 L 26.3579 36.0411 L 26.5755 33.1901 " stroke-width="0.949999988079071" fill="undefined"/>
      <path id="R_Side" d="M 39.0642 35.7447 L 39.0604 35.7095 L 39.0433 35.5271 C 36.6094 35.9822 36.8668 33.686 36.8668 33.686 L 36.6293 33.686 C 36.6227 33.7924 36.6274 33.8836 36.6274 33.9805 C 36.6512 36.4496 39.0642 35.7447 39.0642 35.7447 L 39.0642 35.7447 Z " stroke-width="0.949999988079071" fill="undefined"/>
    </g>
    <g id="Collar_3_">
      <path id="R_Fill" fill="#C0E1E1" d="M 37.6449 34.7234 C 37.0882 35.4245 36.6398 36.2054 36.1752 36.9721 C 36.103 37.0918 36.028 37.2096 35.9539 37.3283 C 35.5511 37.9743 35.1226 38.6004 34.5878 39.1485 C 33.8952 39.861 34.1641 40.1365 34.7702 40.7616 C 35.1901 41.1929 35.5995 41.6337 36.0099 42.0745 C 36.8089 42.9362 37.6021 43.8045 38.4058 44.6604 C 39.3739 41.6461 40.9319 38.7676 42.24 35.8938 C 40.8274 34.7529 38.8514 34.1363 37.1328 33.6908 C 37.0834 33.6784 37.0597 33.6528 37.0312 33.63 L 37.0141 33.6404 C 36.5077 33.8437 37.1015 35.2488 37.0977 34.5705 C 37.0977 34.5382 37.0977 34.6341 37.0958 34.6664 C 37.1328 34.617 37.1661 34.5648 37.2041 34.5163 C 37.3352 34.3548 37.7883 34.5363 37.6449 34.7234 L 37.6449 34.7234 Z " stroke-width="0.949999988079071"/>
      <path id="L_Fill" fill="#C0E1E1" d="M 27.4675 43.1357 C 28.39 43.9175 29.3504 44.6652 30.2358 45.4508 C 30.8942 44.4201 31.2675 43.2345 31.8651 42.1667 C 32.2375 41.5026 32.6308 40.85 33.0241 40.2002 C 33.5713 39.2901 32.7733 39.0298 32.0874 38.5519 C 30.7973 37.6589 29.5043 36.6937 28.3406 35.6041 C 28.2494 35.5186 28.1553 35.4369 28.0651 35.3495 C 27.6756 34.9714 27.3089 34.5724 26.9583 34.161 C 26.7132 33.8732 26.4786 33.5768 26.2572 33.2709 C 26.2506 33.2623 26.2439 33.2538 26.2373 33.2452 C 24.8417 34.0698 23.2628 34.9296 22.3328 36.2767 C 22.3233 36.2909 22.309 36.2985 22.2948 36.308 C 21.721 36.7555 24.8028 40.4443 25.1685 40.8908 C 25.7461 41.5919 26.4244 42.2227 27.1274 42.8345 C 27.136 42.8383 27.1426 42.844 27.1512 42.8488 C 27.306 42.9229 27.3906 43.0236 27.4675 43.1357 L 27.4675 43.1357 Z " stroke-width="0.949999988079071"/>
      <path id="Outline_6_" d="M 42.7492 35.9271 C 42.753 35.9052 42.7502 35.8805 42.735 35.853 C 42.7226 35.8292 42.7084 35.8112 42.6818 35.7931 C 42.677 35.7884 42.6761 35.7846 42.6704 35.7798 C 41.4914 34.7833 39.9078 34.162 38.3802 33.706 C 38.3004 33.6822 38.2206 33.6585 38.1417 33.6357 C 37.8292 33.5454 37.5195 33.459 37.2174 33.3811 C 36.9704 33.3184 36.8858 33.516 37.0302 33.629 C 37.0587 33.6518 37.0834 33.6775 37.1319 33.6898 C 38.8504 34.1363 40.8264 34.7519 42.2391 35.8929 C 40.9309 38.7666 39.372 41.6442 38.4049 44.6595 C 37.6002 43.8045 36.807 42.9352 36.009 42.0736 C 35.5986 41.6328 35.1901 41.192 34.7692 40.7607 C 34.1622 40.1356 33.8943 39.8601 34.5868 39.1476 C 35.1207 38.5994 35.5501 37.9734 35.9529 37.3274 C 36.027 37.2086 36.1021 37.0899 36.1743 36.9711 C 36.6388 36.2045 37.0872 35.4245 37.6439 34.7225 C 37.7864 34.5363 37.3342 34.3539 37.2041 34.5154 C 37.1661 34.5638 37.1328 34.6161 37.0958 34.6655 C 36.997 34.7985 36.8982 34.9315 36.8041 35.0683 C 36.2873 35.8169 35.8484 36.6158 35.3544 37.3777 C 35.0495 37.8413 34.7436 38.3334 34.355 38.7334 C 34.203 38.8873 33.9342 39.0972 33.7679 39.3309 C 31.1849 37.3958 28.3795 35.6753 26.5156 32.9593 C 26.5137 32.9564 26.5118 32.9536 26.5099 32.9507 C 26.4254 32.8263 26.2354 32.7598 26.0967 32.8424 C 24.6175 33.724 22.8942 34.618 21.892 36.0686 C 21.8853 36.0791 21.8863 36.0886 21.8815 36.0981 C 21.2346 36.8372 23.7502 39.7223 24.1511 40.2315 C 25.8392 42.389 28.1211 43.9907 30.1342 45.8327 C 30.2244 45.9173 30.4543 46.0085 30.5503 45.8717 C 31.164 44.9958 31.4623 44.0049 31.9382 43.0597 C 32.4569 42.0251 33.0716 41.0371 33.6777 40.0491 C 33.9009 40.7616 34.8547 41.381 35.3117 41.8731 C 36.3168 42.959 37.3067 44.0562 38.327 45.125 C 38.4106 45.2276 38.6082 45.2627 38.7089 45.1839 C 38.7412 45.1696 38.763 45.1497 38.7716 45.124 C 39.7349 41.9596 41.3879 38.9519 42.7521 35.947 C 42.7568 35.9404 42.7473 35.9347 42.7492 35.9271 L 42.7492 35.9271 Z M 25.1695 40.8889 C 24.8037 40.4434 21.721 36.7536 22.2957 36.3061 C 22.31 36.2966 22.3242 36.289 22.3337 36.2748 C 23.2638 34.9286 24.8427 34.0679 26.2382 33.2433 C 26.2449 33.2519 26.2515 33.2604 26.2582 33.269 C 26.4795 33.5749 26.7132 33.8713 26.9593 34.1591 C 27.3098 34.5705 27.6765 34.9695 28.066 35.3476 C 28.1563 35.435 28.2503 35.5167 28.3415 35.6022 C 29.5062 36.6909 30.7982 37.6561 32.0883 38.55 C 32.7752 39.0279 33.5722 39.2882 33.025 40.1983 C 32.6317 40.849 32.2384 41.5007 31.866 42.1648 C 31.2685 43.2326 30.8951 44.4182 30.2368 45.4489 C 29.3514 44.6633 28.3909 43.9156 27.4685 43.1338 C 27.3526 43.035 27.2433 42.9314 27.1284 42.8317 C 26.4244 42.2208 25.7471 41.59 25.1695 40.8889 L 25.1695 40.8889 Z " stroke-width="0.949999988079071" fill="undefined"/>
    </g>
    <g id="Head">
      <g id="Head_1_">
        <path id="R_Ear" fill="#A86C35" d="M 43.5073 18.2504 C 43.5045 18.2561 43.4912 18.2542 43.4874 18.259 C 43.4589 18.6798 43.456 19.0931 43.5121 19.4664 C 43.514 19.4778 43.4959 19.4788 43.4921 19.4873 C 43.6916 20.406 43.8066 21.337 43.8313 22.2651 C 44.0545 21.7455 44.2844 21.2268 44.4763 20.6929 C 44.6407 20.234 44.7034 19.7628 44.7281 19.2802 C 44.7309 19.0342 44.71 18.79 44.6692 18.5478 C 44.6169 18.0319 44.2303 17.9331 43.5073 18.2504 L 43.5073 18.2504 Z " stroke-width="0.949999988079071"/>
        <path id="Head_Fill" fill="#A86C35" d="M 39.6199 30.9519 C 39.8631 30.6793 40.1092 30.4123 40.36 30.1501 C 40.8796 29.5526 41.3698 28.9313 41.8087 28.29 C 43.6099 25.6462 43.6755 22.1264 42.9582 19.1035 C 42.9506 19.0712 42.9763 19.0532 43.0181 19.0446 C 42.925 17.9303 43.1501 16.605 43.6536 15.655 C 43.6555 15.6512 43.6641 15.6531 43.666 15.6503 C 43.9035 14.7753 46.8931 2.8177 33.2426 1.8971 C 19.1408 0.9471 17.4479 9.1722 18.3171 18.676 C 18.4017 18.7254 18.4843 18.7625 18.5727 18.8233 C 18.776 18.9639 18.2962 18.9183 18.1984 18.8518 C 17.7785 18.5582 17.4156 18.4632 17.103 18.506 C 17.084 18.5088 17.066 18.5126 17.0479 18.5164 C 15.7008 18.7758 15.336 21.6875 15.5887 22.6964 C 15.7863 23.4859 16.3193 24.1594 16.8627 24.7351 C 17.1885 25.08 17.5752 25.3631 17.9514 25.6509 C 19.0002 26.4622 19.7526 26.03 20.3349 25.1693 C 20.4204 25.041 20.8603 25.2263 20.8099 25.2975 C 20.7406 25.4001 20.6655 25.4961 20.5895 25.5911 C 20.5952 25.6158 20.6057 25.6452 20.6123 25.6709 C 20.7083 25.6927 20.8004 25.7288 20.8194 25.783 C 21.835 28.7289 24.1444 30.7382 26.8453 32.1461 C 29.0018 33.2747 31.9553 34.5068 34.4301 34.5705 C 35.8408 34.2237 37.0502 33.2338 38.1503 32.3275 C 38.6633 31.9038 39.1487 31.4374 39.6199 30.9519 L 39.6199 30.9519 Z " stroke-width="0.949999988079071"/>
        <g id="Outline_5_">
          <path id="Outline_4_" d="M 44.9741 18.1488 C 44.7423 17.6158 44.1153 17.4923 43.6147 17.6643 C 43.5919 17.6719 43.5643 17.6719 43.5425 17.6814 C 43.646 16.9974 43.8446 16.3238 44.1305 15.7842 C 44.1343 15.7776 44.1182 15.7681 44.1163 15.7605 C 44.1324 15.7472 44.1429 15.7377 44.1429 15.7377 C 45.3237 11.9994 44.387 3.9491 37.6477 2.3161 C 37.4577 2.2705 37.2744 2.2315 37.0882 2.1878 C 34.28 1.5409 31.8356 1.2407 29.5746 1.3784 C 26.6543 1.557 24.0352 2.4633 21.3191 4.3044 C 16.6109 7.4974 17.8887 17.5142 18.0293 18.5155 C 17.9419 18.4765 17.8602 18.4594 17.7756 18.4328 C 15.431 17.7023 14.3005 21.6153 15.5308 23.559 C 16.2566 24.7095 17.3985 25.8001 18.6829 26.3045 C 19.3963 26.5857 19.9521 26.2988 20.3976 25.8238 C 21.3989 28.595 23.5811 30.6099 26.1223 31.9922 C 26.1147 31.9931 26.11 31.996 26.1024 31.9979 C 26.2591 32.0568 26.4035 32.129 26.5327 32.2192 C 26.5318 32.2154 26.5308 32.2116 26.5299 32.2078 C 26.6287 32.2582 26.7227 32.3142 26.8225 32.3627 C 29.1357 33.4894 32.0722 34.7377 34.6809 34.789 C 34.7217 34.7899 34.7493 34.7871 34.7702 34.7814 C 34.7702 34.7814 34.7721 34.7814 34.7721 34.7814 C 35.4352 34.6246 36.0688 34.3244 36.6683 33.9558 C 36.8051 33.8456 36.958 33.7544 37.1281 33.6822 C 37.1205 33.6794 37.1148 33.6746 37.1062 33.6718 C 37.6373 33.307 38.1379 32.8994 38.5977 32.4966 C 39.8688 31.3842 41.1086 30.1416 42.0624 28.7384 C 43.1511 27.1424 43.6774 25.3403 43.8037 23.4868 C 43.8389 23.4802 43.874 23.4726 43.8826 23.4469 C 44.4545 21.7854 45.7626 19.9519 44.9741 18.1488 L 44.9741 18.1488 Z M 41.8087 28.29 C 41.3698 28.9322 40.8787 29.5535 40.36 30.1501 C 40.1215 30.4256 39.8736 30.6907 39.6199 30.9519 C 39.1497 31.4364 38.6633 31.9038 38.1512 32.3275 C 37.0511 33.2348 35.8418 34.2237 34.431 34.5705 C 31.9563 34.5068 29.0027 33.2756 26.8462 32.1461 C 24.1454 30.7382 21.8369 28.728 20.8204 25.783 C 20.8014 25.7288 20.7092 25.6927 20.6133 25.6709 C 20.5895 25.6652 20.5677 25.6557 20.5439 25.6528 C 20.5601 25.6329 20.5743 25.611 20.5905 25.5911 C 20.6665 25.4961 20.7415 25.4001 20.8109 25.2975 C 21.0465 24.6715 20.6788 24.1974 20.1041 24.1566 C 18.9536 24.073 17.6474 24.6905 17.0356 23.2645 C 16.9767 23.1325 16.5197 23.0869 16.5625 23.1866 C 16.9045 23.9884 17.6436 24.3798 18.4824 24.4796 C 19.0211 24.5461 20.7149 24.1604 20.334 25.1702 C 20.334 25.1712 20.3349 25.1712 20.3349 25.1721 C 19.7535 26.0319 19.0011 26.4622 17.9533 25.6519 C 17.5771 25.364 17.1904 25.0809 16.8646 24.7361 C 16.3212 24.1604 15.7882 23.4868 15.5906 22.6974 C 15.3379 21.6885 15.7027 18.7767 17.0498 18.5174 C 17.0679 18.5145 17.0859 18.5098 17.1049 18.5069 C 17.4175 18.4642 17.7804 18.5601 18.2003 18.8527 C 18.2981 18.9183 18.7769 18.9648 18.5746 18.8242 C 18.4872 18.7634 18.4045 18.7264 18.319 18.677 C 17.4479 9.1732 19.1408 0.9481 33.2435 1.8971 C 46.8941 2.8177 43.9035 14.7753 43.666 15.6503 C 43.6641 15.6531 43.6555 15.6512 43.6536 15.655 C 43.1501 16.605 42.925 17.9303 43.0181 19.0446 C 42.9753 19.0532 42.9506 19.0712 42.9582 19.1035 C 43.6755 22.1264 43.6099 25.6462 41.8087 28.29 L 41.8087 28.29 Z M 44.4763 20.6929 C 44.2844 21.2268 44.0555 21.7455 43.8313 22.2651 C 43.8066 21.337 43.6916 20.406 43.4921 19.4873 C 43.4969 19.4788 43.514 19.4778 43.5121 19.4664 C 43.4551 19.0931 43.4579 18.6798 43.4874 18.259 C 43.4921 18.2542 43.5054 18.2561 43.5073 18.2504 C 44.2303 17.9331 44.6169 18.0329 44.6682 18.5468 C 44.71 18.79 44.73 19.0342 44.7271 19.2793 C 44.7034 19.7628 44.6407 20.234 44.4763 20.6929 L 44.4763 20.6929 Z " stroke-width="0.949999988079071" fill="undefined"/>
          <path id="L_Ear" d="M 15.9345 20.8658 C 15.9279 21.0121 16.4057 21.0976 16.4114 20.995 C 16.4599 20.006 17.7433 19.8483 18.3713 20.4772 C 18.9489 21.0577 19.3754 21.7683 19.9749 22.3316 C 20.0651 22.4152 20.524 22.4637 20.41 22.3554 C 19.5322 21.5308 19.0249 20.2739 17.7756 19.9566 C 17.0223 19.7676 15.983 19.9319 15.9345 20.8658 L 15.9345 20.8658 Z " stroke-width="0.949999988079071" fill="undefined"/>
        </g>
      </g>
      <g id="Mouth_3_">
        <path id="Mouth" fill="#700F10" d="M 29.6829 28.025 C 29.5167 28.6947 29.795 29.1593 30.3052 29.4766 C 30.3964 29.6485 30.4828 29.8252 30.6035 29.9915 C 31.0034 30.5263 31.6076 30.7524 32.1767 31.045 C 32.8464 31.387 33.6064 31.577 34.3778 31.4706 C 34.8566 31.4079 35.6385 31.1999 35.9387 30.8208 C 36.2816 30.3857 36.3149 29.9601 36.3149 29.4329 C 36.3149 29.4129 36.3168 29.3835 36.3168 29.3607 C 36.3481 29.3236 36.3842 29.2875 36.3909 29.2505 C 36.5505 28.3793 37.6183 27.6868 37.6183 27.6868 C 31.3255 29.1536 29.6829 28.025 29.6829 28.025 L 29.6829 28.025 Z " stroke-width="0.949999988079071"/>
        <path id="Teeth" fill="#FFFFFF" d="M 29.7466 28.1884 C 29.7513 28.233 29.7542 28.2777 29.7627 28.3223 C 31.8081 29.2562 35.002 29.4405 36.8469 28.0259 C 36.8516 28.0231 36.8583 28.024 36.8649 28.0231 C 36.8839 28.0041 36.8991 27.9822 36.9191 27.9642 C 34.6096 28.4857 31.9848 28.9607 29.7466 28.1884 L 29.7466 28.1884 Z " stroke-width="0.949999988079071"/>
        <path id="Outline_1_" d="M 37.4501 27.2783 C 37.3912 27.2868 37.3219 27.3239 37.3342 27.3904 C 37.3361 27.4018 37.3466 27.4065 37.3513 27.416 C 37.3276 27.436 37.3038 27.4569 37.3086 27.4939 C 37.3143 27.5319 37.3409 27.5557 37.3694 27.5766 C 35.0333 28.1152 32.1757 28.785 29.8492 27.968 C 29.8644 27.9661 29.8777 27.9613 29.8929 27.9604 C 29.9518 27.9537 30.0211 27.9157 30.0116 27.8483 C 29.9983 27.7732 29.9214 27.7352 29.8615 27.7124 C 29.7466 27.6735 29.6316 27.6735 29.5214 27.6925 C 29.2241 27.6801 28.9248 27.8711 29.0084 28.1846 C 28.9932 28.2178 28.9723 28.2482 28.9628 28.2834 C 28.9638 28.2834 28.9657 28.2843 28.9676 28.2843 C 28.9676 28.2853 28.9666 28.2853 28.9666 28.2862 C 28.94 28.4506 29.2782 28.5437 29.3267 28.3831 C 29.3295 28.3727 29.34 28.367 29.3438 28.3565 C 29.3628 28.3432 29.3818 28.3309 29.3837 28.3014 C 29.3837 28.2976 29.3856 28.2938 29.3865 28.29 C 29.3922 28.2777 29.4008 28.2682 29.4074 28.2568 C 29.6373 29.9079 31.7207 31.5029 33.291 31.577 C 34.28 31.6236 35.3126 31.5181 36.1325 30.9196 C 36.4944 30.6555 36.3728 30.1292 36.4498 29.7321 C 36.6179 28.8866 36.921 28.2729 37.6601 27.8103 C 37.6677 27.8312 37.68 27.853 37.6829 27.872 C 37.7 28.0012 37.9764 28.0782 38.0306 27.948 C 38.0733 27.9385 38.1075 27.9157 38.1151 27.8711 C 38.193 27.4521 37.8339 27.2355 37.4501 27.2783 L 37.4501 27.2783 Z M 35.6632 30.8579 C 35.191 31.121 34.6685 31.2778 34.128 31.3129 C 32.9652 31.388 31.9943 31.1448 31.1431 30.3202 C 30.6054 29.7958 29.9556 29.1631 29.777 28.4021 C 29.9841 28.4952 30.194 28.5845 30.4201 28.6615 C 30.536 28.7014 30.6586 28.7308 30.7783 28.765 C 31.9876 29.1165 33.3737 29.2239 34.6372 28.9997 C 34.8861 29.1526 35.1682 29.2942 35.3734 29.506 C 35.6033 29.7416 35.8019 30.0133 36.0156 30.267 C 35.9548 30.5244 35.856 30.7515 35.6632 30.8579 L 35.6632 30.8579 Z M 36.5999 28.31 C 36.3842 28.6007 36.2341 28.9379 36.1562 29.3284 C 36.1192 29.5193 36.1021 29.8005 36.0574 30.0741 C 35.9083 29.8851 35.7582 29.696 35.5891 29.5288 C 35.3611 29.3094 35.0618 29.1555 34.7958 28.9883 C 34.7892 28.9845 34.774 28.9807 34.7597 28.9769 C 35.3791 28.8553 35.9691 28.6605 36.4859 28.3613 C 36.5372 28.3318 36.5866 28.3014 36.6369 28.2701 C 36.6255 28.2834 36.6113 28.2948 36.5999 28.31 L 36.5999 28.31 Z M 36.8649 28.0221 C 36.8583 28.0231 36.8516 28.0221 36.8469 28.025 C 35.002 29.4395 31.8081 29.2552 29.7627 28.3214 C 29.7542 28.2777 29.7513 28.2321 29.7466 28.1874 C 31.9848 28.9588 34.6096 28.4838 36.9181 27.9623 C 36.8991 27.9813 36.8839 28.0031 36.8649 28.0221 L 36.8649 28.0221 Z " stroke-width="0.949999988079071" fill="undefined"/>
      </g>
      <g id="Nose">
        <path id="Outline_3_" d="M 31.3977 26.0395 C 31.7359 25.8229 32.1244 25.7792 32.5025 25.6775 C 32.5491 25.725 32.6317 25.7763 32.7191 25.7896 C 33.6007 25.9293 34.3313 26.2827 35.2547 26.1744 C 36.066 26.0803 36.8203 25.4229 36.9647 24.6202 C 36.9884 24.4862 36.5096 24.3751 36.4878 24.4938 C 36.3405 25.3108 35.5378 25.9777 34.697 25.9929 C 33.9703 26.0053 33.3737 25.7212 32.6925 25.6015 C 32.6963 25.5293 32.3724 25.402 32.2745 25.4353 C 31.8214 25.5844 31.3587 25.6082 30.9474 25.8666 C 30.8619 25.9236 31.2732 26.1164 31.3977 26.0395 L 31.3977 26.0395 Z " stroke-width="0.949999988079071" fill="undefined"/>
        <path id="Outline_2_" d="M 32.5614 23.9951 C 33.7214 23.54 34.9811 23.2636 36.1999 23.6635 C 36.3918 23.7262 36.6949 23.6379 36.3719 23.5315 C 34.9564 23.0679 33.5447 23.2607 32.1738 23.7975 C 32.0142 23.8592 32.4484 24.0388 32.5614 23.9951 L 32.5614 23.9951 Z " stroke-width="0.949999988079071" fill="undefined"/>
      </g>
      <path id="L_Eye" fill="#010101" d="M 29.8254 18.7539 C 30.1779 18.8736 30.7992 18.7824 30.1503 18.563 C 28.6161 18.0433 24.3392 16.7893 23.8765 19.2736 C 23.8357 19.4911 24.8028 19.7106 24.836 19.531 C 25.2274 17.4268 28.4527 18.2884 29.8254 18.7539 L 29.8254 18.7539 L 29.8254 18.7539 Z " stroke-width="0.949999988079071"/>
      <path id="R_Eye" fill="#010101" d="M 36.8184 18.5544 C 36.7272 18.6 37.4786 18.9971 37.7199 18.8717 C 38.3564 18.5468 39.01 18.2229 39.7016 18.0262 C 40.5737 17.7821 41.3347 17.6776 41.6577 18.6798 C 41.7337 18.9145 42.6542 19.0171 42.602 18.8575 C 41.7983 16.3732 38.3536 17.7745 36.8184 18.5544 L 36.8184 18.5544 L 36.8184 18.5544 Z " stroke-width="0.949999988079071"/>
      <path id="L_Eyebrow" d="M 23.2391 16.0236 C 24.0732 13.9194 26.5413 13.6277 28.5097 14.0638 C 28.7899 14.1255 28.8422 13.9564 28.5562 13.8918 C 26.4453 13.4225 23.6751 13.5869 22.7612 15.8963 C 22.7175 16.0027 23.1868 16.1538 23.2391 16.0236 L 23.2391 16.0236 Z " stroke-width="0.949999988079071" fill="undefined"/>
      <path id="R_Eyebrow" d="M 36.7462 13.7911 C 38.5607 13.1062 40.9594 12.8953 42.07 14.8295 C 42.1422 14.9549 42.5896 14.9881 42.5431 14.9074 C 41.2881 12.7224 38.4391 12.8088 36.3557 13.5926 C 36.1961 13.6534 36.6303 13.8329 36.7462 13.7911 L 36.7462 13.7911 Z " stroke-width="0.949999988079071" fill="undefined"/>
      <g id="Hair">
        <path id="Fill" fill="#301113" d="M 44.654 14.155 C 44.6198 14.1046 44.6036 14.0467 44.6369 13.9821 C 44.9542 13.3665 44.8934 12.5609 44.6245 11.9405 C 44.5884 11.8569 44.6169 11.8018 44.6711 11.7676 C 44.6701 11.7496 44.653 11.7372 44.6587 11.7182 C 44.9371 10.7416 44.8449 9.6083 44.4203 8.6858 C 44.3842 8.6041 44.4089 8.55 44.4602 8.5167 C 44.9 7.4746 44.084 6.4182 43.3819 5.6924 C 43.3192 5.6591 43.267 5.6135 43.2537 5.548 C 43.114 4.8393 42.5925 4.3168 42.1403 3.7867 C 42.107 3.7477 42.0966 3.7154 42.0947 3.685 C 42.0861 3.6755 42.0757 3.6679 42.07 3.6584 C 41.6805 3.0039 41.1808 2.3094 40.4008 2.1346 C 40.2802 2.184 40.0693 2.1413 40.0113 2.0121 C 39.6351 1.1827 38.2776 1.1343 37.4976 1.0516 C 37.4853 1.0507 37.4796 1.0412 37.4691 1.0383 C 37.4549 1.0374 37.4482 1.045 37.433 1.0421 C 36.7842 0.8987 35.8712 0.2679 35.2347 0.6792 C 35.1549 0.7315 35.0371 0.7144 34.9431 0.6669 C 34.9089 0.6878 34.8709 0.7058 34.8044 0.6982 C 34.3626 0.6469 33.919 0.608 33.4753 0.5728 C 33.4164 0.5909 33.349 0.5918 33.2787 0.5538 C 33.2749 0.5538 33.272 0.5529 33.2682 0.5529 C 33.2559 0.5519 33.2502 0.5424 33.2388 0.5405 C 32.6887 0.2726 32.0152 0.3933 31.4376 0.4788 C 30.9417 0.5519 30.4572 0.5633 29.9565 0.532 C 29.9214 0.5301 29.8986 0.5092 29.871 0.4968 C 29.852 0.5016 29.8511 0.5158 29.8264 0.5168 C 29.1091 0.5605 28.3985 0.6346 27.6889 0.7362 C 27.6613 0.7524 27.6224 0.7495 27.5825 0.7495 C 27.5692 0.7514 27.5559 0.7524 27.5426 0.7543 C 27.535 0.7552 27.5293 0.7495 27.5217 0.7505 C 27.5122 0.7486 27.5074 0.7543 27.4979 0.7505 C 26.7085 0.5044 26.0454 0.6412 25.4849 1.2663 C 25.4108 1.3499 25.2673 1.3461 25.1581 1.2996 C 24.5615 1.4839 23.9791 1.7043 23.4053 1.9551 C 23.4186 2.0102 23.3949 2.0615 23.3008 2.089 C 22.5304 2.3094 21.0075 2.2895 21.0132 3.3953 C 21.0142 3.5539 20.8422 3.5834 20.7016 3.5387 C 20.1734 3.9463 19.6794 4.3909 19.231 4.8849 C 19.2263 4.8906 19.2196 4.8963 19.213 4.9029 L 19.213 4.9029 C 19.213 4.9029 19.212 4.9029 19.212 4.9039 C 19.1959 4.92 19.1797 4.9362 19.1531 4.9495 C 18.8197 5.1195 18.262 5.3665 18.1832 5.7693 C 18.1556 5.9042 18.1851 6.0515 18.1642 6.1883 C 18.1509 6.2956 18.0834 6.3764 18.0046 6.4467 C 18.0008 6.4638 17.9989 6.4809 17.9875 6.498 C 17.6835 6.9701 17.4175 7.4603 17.1771 7.9667 C 17.1876 7.9942 17.2094 8.0189 17.2018 8.0522 C 17.1201 8.4417 16.7705 8.6792 16.7069 9.0744 C 16.6508 9.4268 16.7496 9.7888 16.4827 10.0757 C 16.4608 10.0985 16.4333 10.1137 16.4029 10.1232 C 16.2765 10.6267 16.1834 11.1349 16.1255 11.6508 C 16.1635 11.6916 16.1844 11.7439 16.172 11.8028 C 16.0884 12.2331 15.7474 12.6445 15.9336 13.0473 C 16.0086 13.0805 16.0723 13.129 16.078 13.2069 C 16.0789 13.2306 16.0837 13.2544 16.0846 13.2791 C 16.1027 13.3152 16.1074 13.3475 16.0941 13.375 C 16.1274 13.812 16.1872 14.2462 16.2822 14.6756 C 16.4713 14.9454 16.4941 15.2494 16.5796 15.5724 C 16.629 15.7529 16.6774 16.0008 16.8247 16.13 C 16.9254 16.2212 16.9681 16.3143 16.9634 16.4502 C 16.9624 16.4673 16.9463 16.4711 16.9415 16.4853 C 17.3358 17.2434 17.8431 17.9255 18.4729 18.5022 C 18.4995 18.5259 18.5147 18.5487 18.528 18.5715 C 18.6069 18.5753 18.6867 18.6 18.7351 18.6561 C 19.5018 19.5272 20.0119 20.4497 20.5002 21.4757 C 20.9106 21.2144 21.3885 20.8686 21.2032 20.3794 C 21.0427 19.9623 20.7349 19.5823 20.5477 19.1719 C 20.0138 18.03 19.4457 16.8501 18.984 15.6788 C 18.2212 13.7484 18.7389 11.171 19.5844 9.3613 C 20.4385 7.5249 22.6149 6.194 24.4057 5.4188 C 27.1426 4.2351 30.3394 4.2275 33.2692 4.3709 C 34.8576 4.4488 36.4526 4.674 38.0325 4.8811 C 39.049 5.015 40.0351 5.2981 40.9205 5.8273 C 44.2255 7.7919 44.3785 12.3538 44.1438 15.7348 C 44.1248 15.9315 43.8474 15.9419 43.7173 15.8384 C 43.5824 16.8682 43.4332 17.6757 43.3848 17.8248 L 43.4769 17.7289 C 43.685 17.4401 43.9244 17.1741 44.1457 16.8834 C 44.711 16.1376 44.6559 15.0518 44.654 14.155 L 44.654 14.155 Z " stroke-width="0.949999988079071"/>
        <path id="Outline" d="M 45.09 11.893 C 45.1052 11.8759 45.1299 11.8712 45.1375 11.8455 C 45.4235 10.8309 45.3332 9.6596 44.9057 8.6934 C 44.9114 8.6849 44.9247 8.6849 44.9285 8.6744 C 45.4482 7.5088 44.5172 6.2804 43.7382 5.4843 C 43.7268 5.4729 43.7125 5.4663 43.6992 5.4577 C 43.514 4.7357 43.0209 4.1895 42.5431 3.6299 C 42.5421 3.629 42.5412 3.629 42.5402 3.628 C 42.5355 3.6166 42.5364 3.6062 42.5288 3.5929 C 42.0434 2.774 41.4097 1.9323 40.4113 1.7613 C 40.3894 1.7575 40.3771 1.7689 40.3562 1.7689 C 39.8014 0.9025 38.4448 0.7828 37.5119 0.6849 C 36.6635 0.494 35.7325 -0.1387 34.8899 0.3819 C 34.8547 0.3572 34.8186 0.3306 34.7683 0.3249 C 34.2942 0.2707 33.8211 0.227 33.3461 0.1938 C 32.3002 -0.2565 31.0091 0.228 29.9204 0.1586 C 29.8663 0.1558 29.8397 0.1757 29.8064 0.19 C 29.7618 0.1681 29.7152 0.1482 29.6658 0.151 C 29.1614 0.1795 28.6579 0.2299 28.1563 0.2897 C 27.9321 0.3163 27.7079 0.3429 27.4846 0.3762 C 27.4039 0.3534 27.3231 0.3306 27.2433 0.3154 C 26.5327 0.1767 25.8858 0.3173 25.3348 0.779 C 25.3044 0.8046 25.2749 0.835 25.2445 0.8626 C 25.2208 0.8616 25.1961 0.8626 25.1733 0.8683 C 24.9918 0.9205 24.817 0.988 24.6384 1.0469 C 23.9706 1.2644 23.3141 1.5105 22.6795 1.8154 C 22.6586 1.8259 22.6472 1.8382 22.633 1.8496 C 22.0088 1.9836 21.2821 2.1061 20.866 2.5156 C 20.8175 2.564 20.7738 2.6163 20.7349 2.6733 C 20.6589 2.7835 20.6066 2.9136 20.5734 3.0618 C 20.5724 3.0628 20.5696 3.0628 20.5686 3.0637 C 19.9255 3.5311 19.345 4.0669 18.8102 4.6521 C 18.4672 4.8231 17.9932 5.0435 17.8079 5.377 C 17.711 5.5508 17.7205 5.7627 17.6873 5.9479 C 17.6749 6.0182 17.6493 6.0828 17.6141 6.1408 C 17.5837 6.1902 17.5543 6.2396 17.4944 6.2738 C 17.4051 6.326 17.4061 6.3954 17.4536 6.4552 C 17.1448 6.9568 16.8665 7.4698 16.6223 8.0056 C 16.5995 8.056 16.6119 8.1016 16.6413 8.1396 C 16.5112 8.3761 16.2936 8.5699 16.249 8.8483 C 16.211 9.0896 16.249 9.3822 16.1787 9.6225 C 16.1749 9.6368 16.1682 9.6491 16.1625 9.6624 C 16.1578 9.6767 16.1454 9.6881 16.1397 9.7023 C 16.0618 9.709 15.9915 9.7356 15.9716 9.8144 C 15.8034 10.4414 15.6856 11.076 15.6248 11.722 C 15.622 11.7572 15.6457 11.7819 15.6609 11.8113 C 15.5811 12.0707 15.4358 12.3148 15.3959 12.5827 C 15.3579 12.8687 15.4377 13.0919 15.6058 13.3076 C 15.6391 13.7379 15.6989 14.1616 15.7892 14.5844 C 15.7607 14.6252 15.7607 14.6794 15.8196 14.744 C 16.0476 14.9995 16.0609 15.3976 16.1464 15.7187 C 16.1796 15.8507 16.2224 15.9799 16.287 16.0996 C 16.3259 16.169 16.4228 16.264 16.4618 16.3514 C 16.4295 16.3856 16.4209 16.4331 16.4542 16.4977 C 16.8855 17.3479 17.4536 18.0994 18.1585 18.7406 C 18.2069 18.7862 18.2687 18.8052 18.3285 18.8071 C 18.3314 18.81 18.3314 18.8128 18.3342 18.8157 C 18.5337 19.0437 18.7171 19.2755 18.8862 19.512 C 18.9213 19.5614 18.9508 19.6127 18.985 19.6621 C 19.4505 20.3395 19.8229 21.0548 20.181 21.8281 C 20.2494 21.9735 20.4632 22.0267 20.5971 21.9393 C 20.8698 21.7559 21.2298 21.5422 21.4749 21.2686 C 21.4968 21.2439 21.5205 21.2201 21.5405 21.1945 C 21.6944 20.9978 21.7837 20.7708 21.7362 20.5019 C 21.6117 19.8141 20.9638 19.0028 20.6893 18.3549 C 20.2561 17.3194 19.5293 16.2497 19.3089 15.1468 C 19.0904 14.0581 19.0971 12.919 19.3146 11.8294 C 19.8172 9.31 21.2118 7.6142 23.4538 6.3507 C 26.1774 4.8174 29.3951 4.5951 32.4617 4.7063 C 34.2268 4.769 35.9719 5.0141 37.7275 5.2117 C 38.6576 5.3162 39.6019 5.5128 40.4284 5.9736 C 43.7733 7.8403 43.8892 12.35 43.6536 15.7035 C 43.6498 15.7595 43.6774 15.8051 43.7192 15.8393 C 43.8493 15.9419 44.1277 15.9315 44.1457 15.7358 C 44.3804 12.3547 44.2284 7.7938 40.9224 5.8282 C 40.037 5.2991 39.0509 5.016 38.0344 4.882 C 36.4545 4.6749 34.8595 4.4498 33.2711 4.3719 C 30.3413 4.2284 27.1445 4.2351 24.4076 5.4197 C 22.6168 6.1949 20.4404 7.5268 19.5863 9.3622 C 18.7408 11.172 18.2231 13.7493 18.9859 15.6797 C 19.4476 16.8501 20.0157 18.031 20.5496 19.1729 C 20.7368 19.5833 21.0446 19.9623 21.2051 20.3803 C 21.3904 20.8705 20.9125 21.2154 20.5021 21.4766 C 20.0138 20.4506 19.5037 19.5291 18.737 18.657 C 18.6876 18.601 18.6088 18.5772 18.5299 18.5725 C 18.5166 18.5497 18.5014 18.5269 18.4748 18.5031 C 17.845 17.9265 17.3377 17.2444 16.9434 16.4863 C 16.9482 16.472 16.9643 16.4673 16.9653 16.4511 C 16.971 16.3153 16.9282 16.2222 16.8266 16.131 C 16.6793 16.0018 16.6309 15.7548 16.5815 15.5733 C 16.496 15.2503 16.4732 14.9454 16.2841 14.6765 C 16.1891 14.2471 16.1283 13.813 16.096 13.376 C 16.1093 13.3494 16.1046 13.3171 16.0865 13.28 C 16.0856 13.2563 16.0808 13.2325 16.0799 13.2078 C 16.0742 13.1299 16.0096 13.0815 15.9355 13.0482 C 15.7493 12.6464 16.0903 12.235 16.1739 11.8037 C 16.1863 11.7448 16.1654 11.6935 16.1274 11.6517 C 16.1853 11.1359 16.2784 10.6276 16.4048 10.1241 C 16.4352 10.1137 16.4627 10.0994 16.4846 10.0766 C 16.7515 9.7897 16.6537 9.4278 16.7088 9.0753 C 16.7715 8.6801 17.122 8.4426 17.2037 8.0531 C 17.2113 8.0199 17.1895 7.9952 17.179 7.9676 C 17.4184 7.4613 17.6854 6.9711 17.9894 6.4989 C 18.0008 6.4809 18.0027 6.4647 18.0065 6.4476 C 18.0853 6.3773 18.1528 6.2966 18.1661 6.1892 C 18.186 6.0515 18.1566 5.9042 18.1851 5.7703 C 18.2639 5.3675 18.8216 5.1195 19.155 4.9504 C 19.1816 4.9371 19.1978 4.921 19.2139 4.9048 C 19.2139 4.9048 19.2149 4.9048 19.2149 4.9039 L 19.2149 4.9039 C 19.2206 4.8982 19.2282 4.8925 19.2329 4.8858 C 19.6813 4.3918 20.1753 3.9472 20.7035 3.5397 C 20.8441 3.5834 21.0161 3.5549 21.0151 3.3962 C 21.0094 2.2904 22.5332 2.3104 23.3027 2.09 C 23.3968 2.0634 23.4205 2.0111 23.4072 1.956 C 23.981 1.7043 24.5634 1.4839 25.16 1.3005 C 25.2692 1.3471 25.4127 1.3509 25.4868 1.2673 C 26.0473 0.6422 26.7104 0.5054 27.4998 0.7514 C 27.5093 0.7543 27.5141 0.7495 27.5236 0.7514 C 27.5312 0.7514 27.5369 0.7562 27.5445 0.7552 C 27.5578 0.7533 27.5711 0.7524 27.5844 0.7505 C 27.6243 0.7505 27.6632 0.7533 27.6908 0.7372 C 28.4004 0.6346 29.111 0.5605 29.8283 0.5177 C 29.853 0.5168 29.8549 0.5025 29.8729 0.4978 C 29.9014 0.5101 29.9233 0.531 29.9584 0.5329 C 30.4581 0.5643 30.9426 0.5529 31.4395 0.4797 C 32.0161 0.3942 32.6897 0.2736 33.2407 0.5415 C 33.253 0.5434 33.2587 0.5529 33.2701 0.5538 C 33.2739 0.5538 33.2768 0.5548 33.2806 0.5548 C 33.3509 0.5928 33.4183 0.5909 33.4772 0.5738 C 33.9218 0.6089 34.3655 0.6479 34.8063 0.6992 C 34.8728 0.7068 34.9108 0.6887 34.945 0.6678 C 35.039 0.7144 35.1568 0.7324 35.2366 0.6802 C 35.8741 0.2679 36.787 0.8987 37.4349 1.0431 C 37.4501 1.0459 37.4568 1.0383 37.471 1.0393 C 37.4824 1.0412 37.4881 1.0507 37.4995 1.0526 C 38.2785 1.1352 39.637 1.1837 40.0132 2.013 C 40.0721 2.1422 40.2821 2.185 40.4027 2.1356 C 41.1827 2.3104 41.6824 3.0039 42.0719 3.6594 C 42.0785 3.6698 42.089 3.6774 42.0966 3.686 C 42.0985 3.7164 42.1089 3.7496 42.1422 3.7876 C 42.5944 4.3177 43.115 4.8393 43.2556 5.5489 C 43.2689 5.6135 43.3202 5.6601 43.3838 5.6933 C 44.0849 6.4191 44.9019 7.4755 44.4621 8.5177 C 44.4089 8.55 44.3842 8.6041 44.4212 8.6839 C 44.8459 9.6073 44.938 10.7397 44.6597 11.7163 C 44.654 11.7353 44.6711 11.7486 44.672 11.7657 C 44.6179 11.7999 44.5894 11.855 44.6255 11.9386 C 44.8934 12.559 44.9551 13.3646 44.6378 13.9802 C 44.6046 14.0448 44.6198 14.1027 44.6549 14.1531 C 44.6568 15.0499 44.7119 16.1357 44.1467 16.8843 C 43.9253 17.175 43.6859 17.441 43.4779 17.7298 C 43.3658 17.8866 43.2603 18.0471 43.1767 18.2267 C 43.0779 18.4423 43.5529 18.5772 43.6536 18.3568 C 43.9415 17.7308 44.559 17.3261 44.8221 16.6886 C 45.1565 15.8783 45.1394 14.9634 45.1404 14.1037 C 45.1404 14.0885 45.1242 14.0809 45.1204 14.0666 C 45.4178 13.3855 45.3769 12.5732 45.09 11.893 L 45.09 11.893 Z " stroke-width="0.949999988079071" fill="undefined"/>
      </g>
    </g>
    <g id="R_Hand">
      <path id="Fill_2_" fill="#A86C35" d="M 58.9952 95.4617 C 57.7773 95.6764 56.5831 95.836 55.3396 95.8939 C 54.2395 95.9471 53.7787 96.0108 52.7546 95.7676 C 52.1333 95.6184 51.7058 95.3914 51.2688 95.8312 C 50.8774 96.2283 50.5307 96.6359 50.144 97.033 C 49.4515 97.7455 49.2501 98.6546 49.1085 99.5904 C 49.0325 100.0891 49.0088 100.5993 48.8549 101.0743 C 48.72 101.5046 48.3096 101.9644 48.3998 102.4565 C 48.3998 102.4565 49.0135 102.5981 49.498 102.4765 C 50.0471 102.3378 50.2153 102.276 50.4281 101.8086 C 50.6732 101.2738 50.7378 99.5296 51.5548 99.541 C 51.6127 100.6287 51.494 101.6595 51.3258 102.7073 C 51.1643 103.7077 51.1083 104.8382 50.8461 105.8195 C 50.7273 106.2755 50.429 106.6508 50.3122 107.0773 C 50.1915 107.5229 50.2409 108.0577 50.3084 108.5156 C 50.3768 108.9792 50.4062 109.4333 50.9078 109.5321 C 51.3562 109.6214 52.273 109.3592 52.6482 109.1255 C 53.4994 108.5973 54.1359 107.9656 55.0413 107.5409 C 55.4507 107.3452 55.807 107.0289 56.1955 106.8493 C 56.6164 106.6546 57.193 106.6061 57.668 106.5235 C 57.6091 106.0323 57.9853 105.525 58.2029 105.1089 C 58.4442 104.6396 58.4613 104.2777 58.5629 103.7799 C 58.7453 102.8584 59.2118 102.0452 59.3571 101.0857 C 59.4189 100.6639 59.4531 100.2079 59.474 99.7671 C 59.4968 99.2664 59.3676 98.8665 59.3001 98.4494 C 59.1861 97.7113 58.8004 95.9984 59.0531 95.3942 " stroke-width="0.949999988079071"/>
      <path id="Outline_7_" fill="#010101" d="M 59.1139 101.8485 C 59.1272 102.0062 59.6079 102.106 59.5927 101.9084 C 59.454 99.7642 59.6773 97.5365 59.2365 95.4218 C 59.2051 95.2622 58.7206 95.1824 58.7577 95.3619 C 59.1975 97.4757 58.9762 99.7053 59.1139 101.8485 L 59.1139 101.8485 L 59.1139 101.8485 Z M 49.5341 97.4177 C 49.4135 97.5507 49.8704 97.7265 49.9816 97.602 C 50.2504 97.3075 50.4822 97.0016 50.7074 96.6729 C 51.0076 96.2312 51.3809 95.8483 51.7562 95.4702 C 51.8825 95.3448 51.4275 95.1681 51.3106 95.2869 C 50.9354 95.664 50.5573 96.044 50.2618 96.4877 C 50.0367 96.8202 49.803 97.1242 49.5341 97.4177 L 49.5341 97.4177 L 49.5341 97.4177 Z M 49.9702 97.4196 C 50.0034 97.2477 49.5189 97.1308 49.4914 97.2895 C 49.1665 99.0707 48.5803 100.7836 47.9828 102.4888 C 47.9267 102.6427 48.4017 102.7833 48.4616 102.618 C 49.061 100.9128 49.6453 99.2009 49.9702 97.4196 L 49.9702 97.4196 L 49.9702 97.4196 Z M 51.7239 99.3871 C 51.9129 99.2655 51.4712 99.0755 51.342 99.1572 C 49.8847 100.0777 50.6722 103.0189 48.2545 102.4356 C 47.9685 102.3672 47.902 102.6009 48.1946 102.6712 C 49.1057 102.8926 50.0699 102.8536 50.5107 101.8998 C 50.8831 101.0942 50.905 99.901 51.7239 99.3871 L 51.7239 99.3871 L 51.7239 99.3871 Z M 50.8233 105.659 C 50.8347 105.8167 51.3154 105.9136 51.3002 105.7188 C 51.17 103.5813 51.8645 101.5065 51.7847 99.3785 C 51.7771 99.2246 51.2983 99.123 51.3059 99.3196 C 51.3857 101.4457 50.6903 103.5234 50.8233 105.659 L 50.8233 105.659 L 50.8233 105.659 Z M 53.0377 105.5763 C 53.0045 105.7492 53.488 105.8689 53.5165 105.7074 C 53.8319 104.119 54.381 102.6076 54.9558 101.0971 C 55.0128 100.9451 54.5378 100.8016 54.4751 100.9669 C 53.9022 102.4774 53.355 103.9879 53.0377 105.5763 L 53.0377 105.5763 L 53.0377 105.5763 Z M 50.0889 109.078 C 50.1127 109.2386 50.5972 109.325 50.5677 109.1369 C 50.3711 107.8307 50.6751 106.7467 51.2745 105.5944 C 51.341 105.4595 50.8793 105.3037 50.7938 105.4652 C 50.1858 106.6403 49.8904 107.7556 50.0889 109.078 L 50.0889 109.078 L 50.0889 109.078 Z M 53.5954 105.6913 C 53.6543 105.544 53.1802 105.3977 53.1166 105.564 C 52.5228 107.0327 51.2023 108.0872 50.3302 109.3849 C 50.2257 109.5464 50.6912 109.7022 50.7786 109.5711 C 51.6659 108.2534 52.995 107.1866 53.5954 105.6913 L 53.5954 105.6913 L 53.5954 105.6913 Z M 56.4625 101.7459 C 56.5033 101.5806 56.0245 101.4524 55.9818 101.6167 C 55.4792 103.5642 55.0821 105.5355 54.5121 107.463 C 54.4637 107.6245 54.9406 107.7594 54.9909 107.5932 C 55.5619 105.6647 55.9618 103.6934 56.4625 101.7459 L 56.4625 101.7459 L 56.4625 101.7459 Z M 55.2009 107.5029 C 55.3158 107.3538 54.8579 107.1894 54.7553 107.3148 C 54.4475 107.7053 50.9553 110.0261 50.7682 109.3516 C 50.7235 109.192 50.2428 109.1217 50.2894 109.2918 C 50.7406 110.9134 54.6926 108.1489 55.2009 107.5029 L 55.2009 107.5029 L 55.2009 107.5029 Z M 58.1563 101.5369 C 58.1753 101.3583 57.6927 101.2538 57.6756 101.4087 C 57.4676 103.3771 56.7836 105.2087 55.9115 106.9757 C 55.845 107.1144 56.3105 107.2683 56.3922 107.1068 C 57.2643 105.3388 57.9464 103.5072 58.1563 101.5369 L 58.1563 101.5369 L 58.1563 101.5369 Z M 56.4254 106.9624 C 56.5404 106.8151 56.0806 106.6498 55.9837 106.7762 C 55.7243 107.1087 55.2474 107.2312 54.8959 107.4402 C 54.7012 107.5542 55.1429 107.7471 55.275 107.6692 C 55.6502 107.4478 56.149 107.3148 56.4254 106.9624 L 56.4254 106.9624 L 56.4254 106.9624 Z M 59.626 101.9464 C 59.6668 101.7792 59.188 101.6538 59.1472 101.8181 C 58.7406 103.4559 57.8932 104.9284 57.3659 106.5263 C 57.3118 106.6821 57.7887 106.8199 57.8447 106.6555 C 58.372 105.0586 59.2194 103.5842 59.626 101.9464 L 59.626 101.9464 L 59.626 101.9464 Z M 57.763 106.57 C 57.8894 106.457 57.4419 106.2736 57.3175 106.3848 C 57.0619 106.6109 56.7199 106.7106 56.3931 106.7686 C 56.2943 106.7876 56.2744 106.8683 56.3494 106.9339 C 56.4359 107.008 56.5736 107.045 56.6857 107.026 C 57.0714 106.9529 57.4666 106.8303 57.763 106.57 L 57.763 106.57 L 57.763 106.57 Z " stroke-width="0.949999988079071"/>
    </g>
    <g id="L_Hand">
      <path id="Fill_3_" fill="#A86C35" d="M 12.9962 98.6936 C 11.4315 99.2398 10.2934 99.844 8.5122 99.6882 C 7.4577 99.5961 6.52 99.427 5.5206 99.0536 C 5.0903 98.8921 4.6305 98.6375 4.2049 98.5007 C 3.595 98.3079 3.5921 98.6812 3.5332 99.293 C 3.3622 101.0353 2.4882 103.9338 3.5798 105.5269 C 3.842 105.9117 4.0956 106.3382 4.3721 106.7078 C 4.6732 107.1106 5.1045 107.2683 5.4636 107.6036 C 5.8446 107.9542 5.8484 108.1736 6.4668 108.1565 C 6.9637 108.1442 7.2705 108.0093 7.7873 108.0378 C 8.9197 108.1005 9.7348 108.0093 10.6639 108.6828 C 11.194 109.0676 12.5307 110.4964 13.228 110.0043 C 12.9183 108.8633 12.4214 107.8611 11.6776 106.9035 C 11.1437 106.2166 10.1129 106.0209 10.1538 105.05 C 10.1737 104.5199 10.4397 103.7466 10.7675 103.3695 C 10.9898 104.4924 12.2058 107.1495 13.6678 106.5596 C 13.8987 105.867 13.5738 105.0234 13.3543 104.442 C 13.0836 103.7295 12.9781 103.2241 13.056 102.467 C 13.1947 101.1113 14.0478 99.8421 12.9971 98.6356 " stroke-width="0.949999988079071"/>
      <path id="Outline_8_" fill="#010101" d="M 10.5841 103.9851 C 10.5993 103.8445 10.1167 103.7476 10.1015 103.853 C 10.0977 103.8825 10.0949 103.9119 10.092 103.9423 C 10.0778 104.0763 10.5081 104.1817 10.5708 104.0706 C 10.7865 103.6991 10.757 102.9999 10.8302 102.5753 C 10.6715 102.5401 10.5129 102.5069 10.3533 102.4736 C 10.6962 103.5348 10.9223 105.468 11.9825 106.1064 C 12.2599 106.2774 13.684 106.9728 13.8588 106.3031 C 13.9994 105.7692 13.7419 105.1897 13.5491 104.6995 C 13.2004 103.8312 13.0057 103.0759 13.1805 102.1487 C 13.3714 101.1522 13.9091 99.6417 13.3952 98.6765 C 13.3287 98.5501 12.8736 98.515 12.9202 98.5986 C 13.7828 100.2107 12.0813 102.2656 12.8138 103.9889 C 13.0313 104.5085 13.3268 105.0785 13.399 105.6457 C 13.5567 106.8588 12.1022 105.9782 11.7916 105.3322 C 11.365 104.4411 11.1323 103.4863 10.8311 102.5477 C 10.7998 102.4527 10.3732 102.3226 10.3523 102.4451 C 10.2811 102.8717 10.3115 103.568 10.0949 103.9423 C 10.2554 103.9851 10.415 104.0278 10.5756 104.0706 C 10.5784 104.043 10.5803 104.0136 10.5841 103.9851 L 10.5841 103.9851 L 10.5841 103.9851 Z M 12.8499 109.0837 C 12.8869 109.211 13.3581 109.2794 13.3249 109.1645 C 13.0351 108.1651 12.562 107.4203 11.7716 106.7505 C 11.517 106.5368 11.2615 106.3981 10.9774 106.2347 C 10.1329 105.7464 10.4245 104.8914 10.5632 104.0867 C 10.5851 103.9518 10.1053 103.8426 10.0844 103.9575 C 9.9315 104.8296 9.6199 105.6903 10.5005 106.1986 C 11.6994 106.8911 12.4632 107.7423 12.8499 109.0837 L 12.8499 109.0837 L 12.8499 109.0837 Z M 13.3391 109.0714 C 13.3173 108.945 12.8442 108.8605 12.866 108.9878 C 12.9449 109.4457 12.8461 110.2874 12.1564 109.7487 C 11.8296 109.4913 11.5246 109.212 11.2168 108.9298 C 10.9328 108.6705 10.6544 108.4159 10.3058 108.2373 C 9.484 107.8117 8.6746 107.4896 8.2889 106.5729 C 7.9925 105.8708 7.7655 105.1564 7.5223 104.4354 C 7.4776 104.3033 7.0102 104.2473 7.0473 104.3575 C 7.3798 105.3445 7.6116 106.8085 8.5093 107.4649 C 9.3947 108.1128 10.3276 108.5166 11.1598 109.2557 C 11.8733 109.8884 13.6849 111.0388 13.3391 109.0714 L 13.3391 109.0714 L 13.3391 109.0714 Z M 10.3077 108.4738 C 10.4967 108.5555 10.7922 108.4814 10.4777 108.3456 C 9.4603 107.9076 7.8272 108.2848 7.0758 107.4212 C 6.2844 106.5102 5.9605 105.3246 5.552 104.2112 C 5.5026 104.082 5.0399 104.0278 5.077 104.1333 C 5.5558 105.4405 5.9291 106.7942 7.0083 107.7404 C 7.8738 108.4985 9.3168 108.0482 10.3077 108.4738 L 10.3077 108.4738 L 10.3077 108.4738 Z M 7.6771 108.0511 C 7.8301 108.0102 7.4045 107.8259 7.2867 107.8554 C 7.0796 107.9095 6.1923 108.2601 6.0032 108.0672 C 5.7353 107.7965 5.5482 107.4516 5.3829 107.1115 C 5.057 106.4456 4.8167 105.7293 4.4424 105.089 C 4.3721 104.9636 3.9246 104.9313 3.9693 105.0092 C 4.507 105.9392 4.7245 107.1875 5.495 107.9675 C 6.0925 108.5736 6.9637 108.2401 7.6771 108.0511 L 7.6771 108.0511 L 7.6771 108.0511 Z M 5.2309 107.5827 C 5.3259 107.6369 5.8113 107.6749 5.6042 107.5533 C 2.2232 105.583 3.3071 101.5977 3.9892 98.4817 C 4.0177 98.3525 3.5351 98.2328 3.5104 98.3516 C 2.8055 101.5711 1.7805 105.5678 5.2309 107.5827 L 5.2309 107.5827 L 5.2309 107.5827 Z " stroke-width="0.949999988079071"/>
    </g>
  </g>
</svg>