<svg xmlns="http://www.w3.org/2000/svg" xmlns:xlink="http://www.w3.org/1999/xlink" version="1.1" width="124.19290161132812" height="178.2390899658203" viewBox="-0.04199254512786865 -0.20006012916564941 124.19290161132812 178.2390899658203">
  <!-- Exported by Scratch - http://scratch.mit.edu/ -->
  <g id="space">
    <g id="monet-e">
      <g id="monet-puppet-back">
        <g id="Group">
          <path id="Shape" fill="#70CBD2" stroke="none" stroke-width="1" d="M 48.793 141.84 L 41.243 141.44 L 35.651 139.742 L 34.631 138.843 L 35.651 135.948 L 36.216 133.45 L 38.51 132.151 L 42.404 131.35 L 47.702 133.15 L 50.491 133.349 L 52.288 134.623 L 52.288 136.859 C 52.288 136.859 51.09 139.243 51.19 139.542 C 51.29 139.842 50.092 141.84 50.092 141.84 L 48.793 141.84 Z "/>
          <path id="Shape" fill="#BDDD9D" stroke="none" stroke-width="1" d="M 48.993 141.64 L 33.753 139.742 L 30.89 151.529 L 28.327 151.03 L 19.44 154.445 L 15.946 158.821 L 15.148 162.317 L 15.148 167.211 L 17.444 171.806 L 24.033 175.402 L 33.753 176.002 L 40.4 175.502 L 45.399 160.719 L 50.391 142.839 L 48.993 141.64 "/>
          <path id="Shape" fill="#32429B" stroke="none" stroke-width="1" d="M 50.318 139.02 C 50.21 139.337 49.813 139.75 49.518 139.777 C 47.948 139.92 46.357 140.104 44.795 139.994 C 42.342 139.82 39.902 139.45 37.465 139.099 C 36.806 139.005 36.18 138.683 35.292 138.382 C 35.284 138.38 36.463 134.755 36.568 134.425 C 36.839 133.58 37.066 132.142 36.216 131.51 C 34.94 130.561 34.313 134.117 34.095 134.766 C 33.406 136.814 32.702 138.857 32.094 140.931 C 31.346 143.482 30.836 146.102 30.16 148.675 C 30.123 148.816 30.06 148.967 29.98 149.112 C 30.027 149.479 29.943 149.87 29.519 149.957 C 29.332 149.996 29.141 149.969 28.954 149.915 C 28.395 150.064 27.783 150.085 27.207 150.209 C 25.313 150.616 23.347 150.843 21.556 151.523 C 19.149 152.439 17.237 153.712 15.875 155.898 C 15.762 156.08 15.62 156.241 15.472 156.398 C 15.349 156.634 15.233 156.865 15.112 157.1 C 14.446 158.623 13.853 160.206 13.582 161.841 C 13.343 163.283 13.366 164.722 13.237 166.165 C 13.588 169.055 15.32 171.526 17.506 173.396 C 19.291 174.922 21.849 175.735 24.194 176.359 C 26.697 177.025 29.355 177.133 31.954 177.395 C 33.398 177.541 34.86 177.538 36.313 177.539 C 37.53 177.541 38.725 177.451 39.938 177.371 C 40.662 177.324 41.506 177.35 42.017 176.742 C 42.427 176.256 42.525 175.507 42.712 174.918 C 43.027 173.922 43.318 172.929 43.575 171.916 C 44.574 167.98 45.448 163.974 46.567 160.063 C 47.768 155.859 49.16 151.709 50.478 147.539 C 50.726 146.752 51.035 145.983 51.271 145.193 C 51.99 142.791 52.707 140.389 53.418 137.984 C 53.692 137.055 55.244 133.526 53.313 133.2 C 52.061 132.988 51.8 133.996 51.593 134.956 C 51.3 136.321 50.769 137.699 50.318 139.02 Z M 47.355 150.325 C 46.038 154.549 44.485 158.699 43.198 162.93 C 42.298 165.886 41.691 168.931 40.916 171.926 C 40.736 172.623 40.442 173.301 40.117 173.945 C 40.012 174.152 39.64 174.338 39.389 174.339 C 37.408 174.342 35.418 174.406 33.448 174.241 C 31.14 174.049 28.856 173.547 26.547 173.359 C 24.462 173.19 22.437 172.798 20.636 171.785 C 17.278 169.899 15.44 167.388 15.946 163.788 C 15.886 162.306 16.237 160.821 16.916 159.497 C 17.412 157.784 18.412 156.421 19.993 155.244 C 22.242 153.571 24.621 152.579 27.36 152.358 C 28.016 152.304 28.685 152.409 29.626 152.454 C 29.081 153.645 28.434 154.709 28.126 155.863 C 28.02 156.26 28.109 156.71 28.223 157.165 C 28.367 157.3 28.498 157.432 28.612 157.533 C 28.793 157.695 29.006 157.781 29.234 157.812 C 29.682 157.664 30.048 157.543 30.404 157.425 C 30.417 157.435 30.43 157.445 30.442 157.456 C 30.578 157.294 30.712 157.134 30.845 156.97 C 31.263 155.248 31.691 153.528 32.081 151.799 C 32.781 148.69 33.395 145.561 34.153 142.467 C 34.504 141.035 34.763 141.09 36.127 141.555 C 38.8 142.466 41.491 143.326 44.375 143.353 C 45.845 143.366 47.312 143.573 48.956 143.706 C 48.416 145.978 48.02 148.194 47.355 150.325 Z "/>
        </g>
        <g id="Group">
          <path id="Shape" fill="#70CBD2" stroke="none" stroke-width="1" d="M 80.953 141.839 L 74.934 142.638 L 71.24 142.638 C 71.24 142.638 69.742 142.538 69.443 142.238 C 69.143 141.938 67.924 140.14 67.924 140.14 C 67.924 140.14 67.147 137.743 67.147 137.443 C 67.147 137.144 67.147 135.931 67.147 135.931 L 68.744 134.041 L 75.833 132.849 L 80.525 132.15 L 83.62 132.15 L 85.684 134.035 C 85.684 134.035 86.5 136.203 86.608 136.474 C 86.715 136.744 86.724 139.242 86.724 139.242 L 86.724 140.84 L 83.719 141.839 L 80.953 141.839 L 80.953 141.839 Z "/>
          <path id="Shape" fill="#BDDD9D" stroke="none" stroke-width="1" d="M 86.725 140.84 L 79.926 141.839 C 79.926 141.839 74.934 142.537 74.535 142.437 C 74.135 142.338 70.741 142.538 70.441 142.538 C 70.142 142.538 70.94 147.033 70.94 147.033 L 72.038 151.128 L 72.903 158.719 L 74.435 163.814 L 76.132 171.804 L 77.53 173.003 L 83.92 173.602 L 92.905 173.602 L 100.492 170.706 L 104.886 166.311 L 105.684 160.218 L 102.19 154.443 L 99.195 151.827 L 95.501 151.727 L 92.224 151.827 L 89.511 151.827 L 88.029 151.628 L 86.725 140.84 Z "/>
          <path id="Shape" fill="#32429B" stroke="none" stroke-width="1" d="M 85.09 135.486 C 85.32 136.773 85.465 138.076 85.678 139.6 C 85.607 139.561 85.537 139.535 85.466 139.501 C 85.42 139.555 85.36 139.601 85.271 139.621 C 81.371 140.511 77.672 140.791 73.714 140.744 C 73.216 140.803 72.719 140.862 72.221 140.916 C 71.563 140.987 70.878 140.791 69.887 140.684 C 69.453 139.352 68.887 137.695 68.377 136.02 C 68.191 135.413 68.084 134.149 67.633 133.696 C 67.274 133.334 66.675 133.285 66.188 133.297 C 64.361 133.34 65.534 135.534 65.876 136.543 C 66.542 138.506 67.277 140.447 67.941 142.411 C 68.752 144.808 69.73 147.176 70.251 149.639 C 71.582 155.929 72.703 162.263 73.891 168.583 C 73.903 168.648 73.903 168.72 73.909 168.787 C 74.241 170.092 74.521 171.644 75.219 172.849 C 75.576 173.118 75.939 173.372 76.311 173.607 C 76.463 173.572 76.631 173.582 76.804 173.664 C 79.01 174.696 81.502 174.558 83.868 174.856 C 85.771 174.887 87.675 174.952 89.548 174.727 C 92.729 174.347 95.864 173.504 98.98 172.708 C 100.139 172.412 101.231 171.755 102.268 171.122 C 103.045 170.649 103.72 169.988 104.385 169.351 C 104.842 168.609 105.241 167.827 105.793 167.147 C 106.296 165.275 106.851 163.38 106.905 161.482 C 107.026 157.25 104.562 154.256 101.304 151.954 C 98.865 150.229 95.959 149.982 93.048 150.106 C 92.086 150.148 91.13 150.36 90.047 150.511 C 90.035 150.468 89.932 150.169 89.877 149.86 C 89.23 146.201 88.593 142.539 87.949 138.88 C 87.596 136.875 87.251 134.869 86.868 132.87 C 86.722 132.109 86.355 130.626 85.407 130.551 C 83.831 130.426 84.959 134.752 85.09 135.486 Z M 86.814 146.482 C 87.309 149.136 87.806 151.789 88.27 154.449 C 88.422 155.321 88.415 156.224 88.605 157.085 C 88.66 157.33 89.179 157.675 89.439 157.639 C 90.783 157.453 91.247 156.609 90.927 155.289 C 90.739 154.515 90.679 153.708 90.587 153.082 C 92.141 153.082 93.625 152.995 95.095 153.098 C 99.75 153.423 103.81 156.206 104.756 161.223 C 105.65 165.965 102.715 170.056 97.92 170.915 C 95.114 171.418 92.35 172.166 89.534 172.587 C 86.647 173.019 83.714 173.131 80.81 172.637 C 79.665 172.442 78.53 172.134 77.435 171.751 C 77.13 171.644 76.874 171.112 76.781 170.73 C 76.237 168.49 75.693 166.248 75.251 163.986 C 74.333 159.291 73.528 154.574 72.579 149.887 C 72.183 147.929 71.539 146.022 70.988 144.022 C 76.05 144.067 80.968 143.336 86.039 142.513 C 86.27 143.695 86.553 145.087 86.814 146.482 Z "/>
        </g>
        <g id="Group">
          <path id="Shape" fill="#70CBD2" stroke="none" stroke-width="1" d="M 44.694 104.346 L 51.696 105.459 L 60.487 105.744 L 66.564 105.459 L 74.246 105.045 L 76.598 105.045 L 77.949 107.211 L 77.949 109.847 L 78.422 111.371 C 78.422 111.371 77.94 113.436 77.74 113.835 C 77.541 114.234 76.142 115.903 75.943 115.918 C 75.743 115.933 72.948 118.031 72.948 118.031 C 72.948 118.031 69.154 119.711 68.855 119.669 C 68.555 119.627 65.64 119.91 65.2 119.669 C 64.761 119.428 63.042 118.965 62.804 118.825 C 62.566 118.685 60.008 117.176 60.008 117.176 C 60.008 117.176 58.87 117.334 58.671 118.031 C 58.472 118.729 57.213 120.145 57.213 120.145 C 57.213 120.145 55.876 120.263 55.376 120.145 C 54.877 120.028 51.81 119.528 51.696 119.328 C 51.582 119.129 49.286 117.344 49.286 117.344 L 46.163 114.134 C 46.163 114.134 45.082 111.568 44.693 111.038 C 44.304 110.507 44.993 107.841 44.693 107.542 C 44.394 107.242 44.694 104.346 44.694 104.346 Z "/>
          <path id="Shape" fill="#70CBD2" stroke="none" stroke-width="1" d="M 78.14 98.253 L 71.55 99.551 L 64.661 99.951 L 54.777 99.951 L 47.696 99.951 C 47.696 99.951 44.893 98.253 44.993 97.553 C 45.093 96.854 43.263 86.466 43.263 86.466 L 42.152 78.579 L 41.238 75.179 L 42.398 67.987 L 43.263 64.522 L 45.682 61.75 L 49.886 66.189 L 55.612 60.121 L 59.071 56.4 L 70.352 68.686 L 71.75 69.286 L 77.341 57.499 L 83.73 66.089 L 85.628 68.586 L 85.628 71.983 L 84.429 75.836 L 82.732 77.208 L 81.003 78.175 L 79.537 89.263 L 78.14 98.253 Z "/>
          <path id="Shape" fill="#32429B" stroke="none" stroke-width="1" d="M 88.793 95.203 C 87.575 93.661 86.23 92.396 84.195 92.21 C 83.116 92.112 82.021 92.193 81.109 92.193 C 81.642 87.751 82.172 83.325 82.727 78.695 C 82.205 77.705 81.703 76.795 81.265 75.869 C 81.148 75.883 81.04 75.911 80.951 75.954 C 80.647 76.104 80.413 76.693 80.404 77.094 C 80.381 78.156 80.355 79.219 80.299 80.281 C 80.252 81.177 79.916 81.964 79.8 82.851 C 79.602 84.35 79.449 85.858 79.271 87.359 C 79.108 88.731 78.938 90.06 78.691 91.41 C 78.503 92.435 78.56 94.063 78.101 95.248 C 78.128 95.711 78.17 96.326 77.703 96.529 C 77.202 96.748 76.603 96.82 76.005 96.845 C 75.81 96.885 75.615 96.921 75.427 96.957 C 74.349 97.161 73.266 97.348 72.178 97.5 C 71.325 97.618 70.445 97.538 69.578 97.562 C 66.796 97.636 64.014 97.701 61.233 97.799 C 58.475 97.896 55.717 98.131 52.96 98.109 C 51.327 98.096 49.694 97.852 48.069 97.614 C 47.787 97.666 47.496 97.702 47.224 97.631 C 46.762 97.511 46.553 97.118 46.59 96.658 C 46.593 96.622 46.606 96.595 46.616 96.565 C 46.281 95.106 46.033 93.629 45.724 92.164 C 45.218 89.765 44.652 87.377 44.18 84.972 C 43.878 83.435 43.689 81.874 43.47 80.321 C 43.369 79.602 43.403 78.854 43.212 78.165 C 43.151 77.942 42.945 77.692 42.716 77.52 C 42.275 78.42 41.766 79.25 41.236 80.06 C 41.368 81.179 41.455 82.074 41.599 82.945 C 42.052 85.679 42.571 88.402 42.997 91.139 C 43.361 93.47 43.687 95.81 43.92 98.157 C 44.016 99.123 43.865 100.123 43.751 101.099 C 43.571 102.653 43.418 104.214 43.196 105.761 C 44.047 106.208 45.018 106.534 45.916 106.934 C 46.147 106.85 46.403 106.865 46.657 106.922 C 46.83 106.875 47.001 106.849 47.15 106.856 C 49.084 106.942 51.008 107.235 52.941 107.348 C 55.343 107.488 57.75 107.568 60.155 107.598 C 62.51 107.628 64.867 107.612 67.22 107.529 C 69.625 107.444 72.025 107.243 74.429 107.112 C 75.354 107.061 76.178 107.198 77.033 107.292 C 77.578 107.352 78.141 107.056 78.682 107.273 C 79.289 107.517 79.584 108.302 79.886 108.827 C 80.34 109.616 80.492 110.395 80.783 111.243 C 81.091 112.136 81.535 111.944 82.344 111.958 C 84.944 112.005 86.942 110.891 88.264 108.65 C 89.046 107.325 89.933 106.019 90.437 104.587 C 90.969 103.075 91.673 101.564 91.087 99.772 C 90.544 98.102 89.886 96.587 88.793 95.203 Z "/>
          <path id="Shape" fill="#32429B" stroke="none" stroke-width="1" d="M 61.79 117.594 C 61.256 116.972 60.665 116.435 60.435 116.253 C 59.764 115.721 59.138 115.889 58.706 116.302 C 58.026 116.952 56.247 118.954 57.889 119.717 C 58.957 120.213 59.506 118.728 60.505 118.785 C 61.348 118.833 61.569 120.631 62.504 120.018 C 63.205 119.558 62.556 118.487 61.79 117.594 Z "/>
        </g>
        <g id="Group">
          <path id="Shape" fill="#70CBD2" stroke="none" stroke-width="1" d="M 92.25 67.996 L 89.953 66.786 L 88.458 66.786 L 87.849 67.996 L 86.075 69.495 L 83.546 69.495 L 81.681 71.245 C 81.681 71.245 80.787 73.889 81.018 74.188 C 81.25 74.488 82.748 77.585 82.748 77.585 L 86.752 81.972 L 90.467 85.447 C 90.467 85.447 91.017 87.174 91.325 87.174 C 91.634 87.174 92.533 87.574 93.231 87.174 C 93.93 86.774 98.223 84.377 98.223 84.377 L 100.519 82.479 L 100.519 79.782 L 99.122 75.844 L 97.025 72.428 L 93.431 68.594 L 92.25 67.996 Z "/>
          <path id="Shape" fill="#32429B" stroke="none" stroke-width="1" d="M 89.525 83.485 C 87.221 80.914 85.169 78.092 82.294 76.09 C 81.123 75.273 80.718 76.694 81.245 77.507 C 81.592 78.04 82.083 78.418 82.573 78.803 C 82.938 79.089 83.302 79.379 83.604 79.741 C 84.512 80.828 85.622 81.741 86.431 82.913 C 86.49 82.999 86.543 83.087 86.597 83.174 C 86.652 83.201 86.704 83.238 86.743 83.303 C 86.883 83.532 87.03 83.755 87.181 83.975 C 87.505 84.272 87.779 84.616 88.086 84.93 C 88.139 84.984 88.162 85.043 88.174 85.102 C 88.718 85.604 89.229 86.156 89.588 86.799 C 89.616 86.849 89.63 86.897 89.634 86.943 C 90.614 87.752 91.911 88.626 92.181 87.703 C 92.661 86.065 90.473 84.543 89.525 83.485 Z "/>
          <path id="Shape" fill="#32429B" stroke="none" stroke-width="1" d="M 98.046 71.767 C 96.171 69.272 94.028 67.139 91.333 65.582 C 90.648 65.185 88.648 63.823 87.986 64.996 C 87.308 66.199 89.327 67.664 90.164 68.145 C 91.513 68.92 92.789 69.827 93.947 70.867 C 96.204 72.894 97.955 75.417 99.124 78.214 C 99.286 78.601 99.412 79.188 99.636 79.522 C 99.94 79.973 100.919 80.706 101.416 80.094 C 102.377 78.908 101.014 77.198 100.504 76.178 C 99.751 74.672 99.063 73.119 98.046 71.767 Z "/>
        </g>
        <g id="Group">
          <path id="Shape" fill="#70CBD2" stroke="none" stroke-width="1" d="M 40.422 62.997 L 38.531 64.095 L 35.536 65.793 L 32.641 67.891 L 29.546 71.24 L 27.149 73.439 C 27.149 73.439 27.149 74.584 27.149 74.883 C 27.149 75.183 27.666 77.063 27.666 77.063 L 30.544 80.389 L 31.642 81.967 L 32.74 83.566 L 34.238 83.566 L 35.635 82.774 L 38.431 79.778 L 40.422 78.579 L 42.07 78.179 C 42.07 78.179 42.506 78.479 43.014 77.78 C 43.523 77.081 44.587 75.083 44.587 75.083 C 44.587 75.083 46.161 71.286 46.19 70.787 C 46.219 70.289 46.817 65.594 46.817 65.594 C 46.817 65.594 46.118 62.797 45.818 62.997 C 45.519 63.196 44.588 62.297 44.588 62.297 L 42.624 62.297 L 40.422 62.997 Z "/>
          <path id="Shape" fill="#32429B" stroke="none" stroke-width="1" d="M 41.334 79.684 C 41.599 79.6 41.866 79.547 42.13 79.529 C 42.831 79.483 43.386 79.226 43.278 78.422 C 43.215 77.954 42.866 77.43 42.379 77.331 C 40.236 76.896 38.566 77.675 37.16 79.345 C 36.521 80.104 35.643 80.677 35.306 81.614 C 35.113 82.15 34.64 83.193 35.395 83.519 C 36.229 83.879 37.897 82.066 38.41 81.578 C 39.178 80.845 40.247 80.024 41.334 79.684 Z "/>
          <path id="Shape" fill="#32429B" stroke="none" stroke-width="1" d="M 42.736 60.674 C 39.451 61.715 36.811 63.841 34.104 65.852 C 33.43 66.352 32.717 66.81 32.09 67.364 C 31.005 68.322 29.928 69.29 28.868 70.276 C 28.379 70.73 27.995 70.994 27.841 71.631 C 27.737 72.06 27.524 72.729 27.81 73.13 C 28.823 74.55 31.979 70.644 32.591 70.095 C 35.141 67.809 37.645 65.454 40.743 63.877 C 42.284 63.091 43.861 62.74 45.576 62.646 C 46.425 62.599 48.049 62.327 47.666 61.103 C 47.146 59.436 43.831 60.328 42.736 60.674 Z "/>
        </g>
        <g id="Group">
          <path id="Shape" fill="#BDDD9D" stroke="none" stroke-width="1" d="M 33.781 84.285 L 29.453 78.791 L 26.158 75.885 L 25.197 76.394 L 22.464 80.085 L 20.667 83.578 L 19.064 83.578 L 15.874 81.979 L 12.38 81.388 L 5.491 84.285 L 3.993 86.582 L 2.097 90.296 L 2.097 95.972 L 3.993 100.966 L 9.185 105.475 L 16.273 108.058 L 22.064 106.66 L 24.76 103.064 L 27.156 99.967 L 27.672 95.272 L 27.156 93.275 L 27.156 91.576 L 29.253 89.179 L 33.781 84.285 "/>
          <path id="Shape" fill="#70CBD2" stroke="none" stroke-width="1" d="M 26.158 74.895 L 29.053 79.59 L 32.647 83.286 L 33.781 83.577 L 34.987 81.862 L 35.68 80.177 L 35.643 77.224 C 35.643 77.224 33.917 75.395 33.781 75.395 C 33.645 75.395 30.85 73.45 30.85 73.45 L 28.255 73.297 L 26.158 74.895 Z "/>
          <path id="Shape" fill="#32429B" stroke="none" stroke-width="1" d="M 27.91 71.296 C 27.693 71.428 27.511 71.565 27.396 71.675 C 27.231 71.835 27.06 71.995 26.887 72.156 C 26.196 73.13 25.426 74.042 24.722 75.005 C 23.478 77.486 21.792 79.642 20.116 81.82 C 19.686 82.378 19.294 82.404 18.598 82.012 C 17.11 81.173 15.557 80.354 13.928 79.885 C 10.947 79.026 8.367 80.147 6.134 82.102 C 5.412 82.733 4.835 83.545 4.258 84.324 C 3.567 85.255 2.72 86.157 2.343 87.216 C 1.507 89.563 0.142 91.802 0.524 94.472 C 0.679 95.555 0.526 96.725 0.872 97.731 C 2.122 101.374 4.43 104.167 7.586 106.468 C 10.363 108.492 13.209 109.992 16.657 109.771 C 18.593 109.647 20.588 109.503 22.328 108.29 C 23.95 107.16 25.23 105.758 26.263 104.118 C 27.704 101.833 29.422 99.632 29.153 96.686 C 29.054 95.601 28.896 94.52 28.697 93.449 C 28.517 92.478 28.552 91.634 29.327 90.875 C 30.347 89.878 31.265 88.777 32.263 87.757 C 33.384 86.612 34.507 85.468 35.64 84.334 C 36.279 83.694 37.908 82.629 37.641 81.549 C 37.429 80.687 36.67 80.949 36.03 81.037 C 35.554 81.102 35.417 81.143 35.04 81.49 C 34.946 81.576 33.904 82.512 33.921 82.532 C 32.779 81.131 31.718 79.832 30.66 78.53 C 29.899 77.595 29.193 76.609 28.367 75.736 C 27.746 75.08 27.944 74.607 28.464 74.099 C 28.975 73.6 30.804 71.794 29.841 70.961 C 29.409 70.589 28.521 70.925 27.91 71.296 Z M 31.706 84.318 C 31.604 84.573 31.556 84.923 31.36 85.137 C 30.007 86.618 28.567 88.021 27.275 89.551 C 26.715 90.215 26.347 91.048 25.955 91.846 C 25.956 92.146 25.927 92.444 25.89 92.74 C 25.896 92.753 25.901 92.768 25.908 92.779 C 27.611 95.446 26.979 98.062 25.574 100.538 C 24.693 102.092 23.492 103.463 22.431 104.914 C 21.258 106.518 19.439 106.764 17.698 107.024 C 14.482 107.502 11.658 106.587 9.273 104.334 C 8.312 103.426 7.275 102.599 6.284 101.723 C 4.392 100.047 3.219 97.782 2.99 95.443 C 2.606 91.515 3.818 87.869 6.715 84.989 C 7.596 84.113 8.525 83.241 9.568 82.581 C 12.171 80.933 14.398 82.334 16.575 83.678 C 17.159 84.039 17.656 84.535 18.206 84.952 C 19.491 85.926 20.539 85.529 21.378 84.143 C 22.811 81.777 24.431 79.524 25.973 77.224 C 26.151 77.193 26.328 77.162 26.506 77.13 C 28.225 79.505 29.943 81.88 31.706 84.318 Z "/>
        </g>
        <g id="Group">
          <path id="Shape" fill="#70CBD2" stroke="none" stroke-width="1" d="M 96.04 85.89 L 92.745 88.112 L 92.241 87.001 L 91.339 83.992 L 93.045 80.995 L 96.04 79.197 L 99.235 79.597 L 101.531 80.342 L 101.765 81.595 L 98.236 84.391 L 96.04 85.89 "/>
          <path id="Shape" fill="#BDDD9D" stroke="none" stroke-width="1" d="M 93.145 89.387 L 96.552 93.482 L 97.538 95.081 L 97.538 99.576 L 98.637 104.369 L 101.332 109.8 L 104.926 113.56 L 109.219 114.758 L 112.514 114.758 L 115.31 113.36 L 117.606 111.987 L 120.601 109.8 L 121.499 106.768 L 122.797 100.574 L 122.098 96.607 L 119.203 92.384 L 115.909 89.387 L 112.614 88.112 L 109.419 88.787 L 106.125 89.885 L 105.325 89.387 L 104.726 86.79 L 103.129 83.584 L 101.765 82.494 L 98.337 85.391 L 92.264 88.887 L 93.145 89.387 "/>
          <path id="Shape" fill="#32429B" stroke="none" stroke-width="1" d="M 123.546 99.674 C 122.525 95.112 121.133 90.672 116.515 88.287 C 116.411 88.234 116.336 88.127 116.241 88.055 C 116.103 87.95 115.962 87.853 115.822 87.756 C 114.168 87.294 112.504 86.936 110.766 86.841 C 110.699 86.838 110.644 86.815 110.597 86.785 C 110.289 86.823 109.982 86.868 109.674 86.925 C 108.566 87.343 107.474 87.806 106.368 88.25 C 106.16 87.64 106.002 87.009 105.735 86.427 C 104.889 84.578 104.094 82.703 103.163 80.893 C 102.79 80.169 101.395 76.816 100.231 77.098 C 98.904 77.42 99.928 80.365 100.11 81.018 C 97.628 82.844 95.088 84.711 92.435 86.663 C 92.481 86.628 91.532 85.819 91.401 85.743 C 91.01 85.518 90.509 85.407 90.06 85.457 C 89.929 85.471 89.969 86.575 89.994 86.709 C 90.066 87.085 90.229 87.478 90.44 87.789 C 91.076 88.723 92.001 89.577 92.746 90.431 C 94.025 91.894 95.235 93.419 96.436 94.948 C 96.637 95.204 96.753 95.627 96.717 95.952 C 96.312 99.588 96.511 103.139 98.181 106.473 C 98.916 107.939 99.648 109.43 100.589 110.762 C 101.274 111.731 102.255 112.512 103.181 113.285 C 104.905 114.722 106.636 116.192 109.092 116.13 C 111.479 116.07 113.796 115.704 115.902 114.497 C 117.144 113.785 118.344 112.998 119.587 112.288 C 121.263 111.33 121.903 109.607 122.552 108.004 C 123.053 106.768 123.088 105.332 123.249 103.975 C 123.419 102.543 123.848 101.019 123.546 99.674 Z M 121.276 102.919 C 120.997 104.783 120.917 106.635 120.024 108.397 C 119.15 110.119 117.549 110.894 116.16 111.949 C 115.435 112.501 114.569 112.944 113.698 113.213 C 110.182 114.297 107.02 113.924 104.264 111.128 C 102.727 109.568 101.072 108.189 100.108 106.139 C 99.157 104.117 98.61 102.081 98.799 99.823 C 98.915 98.437 98.477 96.947 98.831 95.652 C 99.333 93.816 97.82 93.236 97.122 92.212 C 96.266 90.958 95.077 89.932 93.749 88.503 C 95.973 87.107 97.938 85.871 99.909 84.645 C 100.038 84.564 100.238 84.597 100.365 84.514 C 102.095 83.389 102.469 83.463 103.235 85.393 C 103.665 86.476 103.888 87.64 104.205 88.766 C 104.249 88.919 104.308 89.069 104.344 89.224 C 104.892 91.599 106.075 92.097 108.05 90.724 C 109.834 89.485 112.395 89.115 114.301 90.082 C 114.997 90.208 115.649 90.583 116.179 91.069 C 116.936 91.482 117.624 92.01 118.057 92.618 C 118.243 92.784 118.416 92.96 118.554 93.161 C 120.543 96.049 121.826 99.239 121.276 102.919 Z "/>
        </g>
        <g id="Group">
          <path id="Shape" fill="#70CBD2" stroke="none" stroke-width="1" d="M 57.202 121.233 L 57.862 118.036 L 57.202 115.922 L 55.067 113.342 L 49.177 109.246 L 45.175 108.046 L 43.986 108.847 L 41.228 117.18 L 38.695 124.03 L 37.658 126.812 L 36.201 131.48 L 37.627 134.012 C 37.627 134.012 37.995 135.72 38.694 135.918 C 39.393 136.117 42.421 136.074 43.253 136.445 C 44.085 136.816 46.584 136.716 47.032 136.816 C 47.48 136.916 49.377 136.458 50.276 136.445 C 51.175 136.431 51.969 133.7 51.969 133.7 L 54.251 130.52 L 57.202 121.233 Z "/>
          <path id="Shape" fill="#32429B" stroke="none" stroke-width="1" d="M 42.847 107.802 C 42.535 109.359 41.856 110.843 41.344 112.359 C 40.064 116.147 38.79 119.937 37.505 123.723 C 37.029 125.125 36.486 126.506 36.055 127.922 C 35.659 129.222 35.435 130.574 35.026 131.869 C 34.827 132.497 34.149 134.15 35.147 134.52 C 36.827 135.14 37.44 131.639 37.733 130.734 C 38.373 128.753 39.017 126.773 39.669 124.796 C 40.325 122.809 41.13 120.87 41.766 118.877 C 42.652 116.103 43.408 113.287 44.295 110.512 C 44.438 110.065 44.607 109.621 44.795 109.185 C 44.77 109.105 44.775 109.014 44.831 108.92 C 45.165 108.358 45.221 107.651 45.521 107.064 C 45.819 106.478 46.34 105.945 46.084 105.236 C 45.875 104.655 45.196 104.743 44.674 104.791 C 43.04 104.94 43.096 106.559 42.847 107.802 Z "/>
          <path id="Shape" fill="#32429B" stroke="none" stroke-width="1" d="M 57.667 117.468 C 57.334 117.73 57.122 118.14 56.972 118.573 C 55.235 123.591 53.612 128.649 51.968 133.699 C 51.685 134.569 51.247 136.716 52.781 136.415 C 54.003 136.176 54.331 134.802 54.618 133.815 C 55.167 131.92 55.853 130.034 56.114 128.095 C 56.386 126.08 56.955 124.113 57.796 122.263 C 58.165 121.452 58.567 120.375 59.144 119.691 C 59.628 119.118 60.502 118.978 60.023 118.014 C 59.74 117.445 58.959 117.122 58.352 117.189 C 58.079 117.221 57.853 117.321 57.667 117.468 Z "/>
        </g>
        <g id="Group">
          <path id="Shape" fill="#70CBD2" stroke="none" stroke-width="1" d="M 61.099 117.806 L 63.465 122.439 L 65.792 130.52 L 65.792 132.221 L 67.956 135.044 L 69.486 136.83 L 73.38 137.415 C 73.38 137.415 77.274 136.943 77.573 136.83 C 77.873 136.716 82.465 135.118 82.465 135.118 L 83.763 135.018 L 84.794 132.981 L 84.794 129.924 L 82.265 121.034 C 82.265 121.034 79.969 112.294 79.969 111.969 C 79.969 111.644 78.871 109.147 78.871 109.147 L 74.877 109.147 L 67.49 110.545 C 67.49 110.545 64.893 112.643 64.694 112.943 C 64.494 113.242 61.523 116.114 61.523 116.114 L 61.099 117.806 Z "/>
          <path id="Shape" fill="#32429B" stroke="none" stroke-width="1" d="M 86.058 128.96 C 84.576 123.68 83.064 118.409 81.531 113.142 C 81.486 112.987 81.46 112.855 81.445 112.733 C 81.415 112.695 81.39 112.648 81.379 112.587 C 81.227 111.775 80.917 111.001 80.807 110.183 C 80.303 109.032 79.871 107.643 79.08 106.65 C 78.667 106.131 77.554 105.044 76.861 105.637 C 76.339 106.083 76.836 106.617 77.015 107.084 C 77.237 107.661 77.395 108.269 77.621 108.858 C 78.158 110.262 78.585 111.708 78.907 113.176 C 78.947 113.218 78.98 113.27 78.999 113.339 C 79.069 113.6 79.145 113.86 79.217 114.12 C 79.497 115.006 79.747 115.897 79.982 116.792 C 80.482 118.487 80.997 120.176 81.514 121.866 C 82.02 123.523 82.664 125.162 82.977 126.866 C 83.294 127.925 83.603 128.983 84 130.018 C 84.365 130.968 84.369 132.092 84.793 132.981 C 84.957 133.324 85.3 133.943 85.727 134.007 C 86.333 134.098 86.583 133.217 86.693 132.758 C 86.977 131.569 86.376 130.092 86.058 128.96 Z "/>
          <path id="Shape" fill="#32429B" stroke="none" stroke-width="1" d="M 66.054 127.056 C 65.465 124.968 64.91 122.848 63.988 120.876 C 63.537 119.911 62.998 118.986 62.338 118.148 C 61.964 117.672 60.835 116.776 60.549 117.872 C 60.393 118.465 60.895 119.038 61.115 119.547 C 61.417 120.249 61.572 121.027 61.775 121.762 C 62.275 123.574 62.758 125.391 63.254 127.205 C 63.744 129.001 64.206 130.805 64.71 132.598 C 65.078 133.906 65.181 135.862 66.893 135.917 C 68.609 135.973 67.817 133.851 67.574 132.915 C 67.065 130.962 66.602 128.998 66.054 127.056 Z "/>
        </g>
        <g id="Group">
          <path id="Shape" fill="#DB6FAB" stroke="none" stroke-width="1" d="M 55.96 2.697 L 47.721 4.895 L 40.825 7.192 L 34.977 11.387 L 31.34 18.179 L 28.345 26.171 L 26.149 43.451 L 27.663 56.736 L 28.644 63.828 L 29.743 63.828 L 42.222 55.438 L 44.02 56.836 L 50.609 66.814 L 58.596 56.237 L 60.033 56.037 L 70.976 69.522 L 71.575 69.522 L 76.623 57.136 L 77.965 57.236 L 85.852 68.923 L 86.761 68.623 L 94.81 53.54 L 105.021 68.923 L 105.92 65.526 L 106.805 53.64 L 106.12 41.553 L 104.122 28.568 L 98.831 16.282 L 89.963 6.892 L 77.965 2.098 L 62.091 2.098 L 55.96 2.697 "/>
          <path id="Shape" fill="#32429B" stroke="none" stroke-width="1" d="M 107.048 37.936 C 106.569 33.97 106.109 30.024 104.987 26.188 C 104.414 24.225 103.943 22.171 102.989 20.394 C 101.345 17.33 99.696 14.156 97.44 11.559 C 93.776 7.342 89.097 4.373 83.799 2.418 C 79.216 0.728 74.522 0.041 69.664 0.387 C 65.366 0.693 61.048 0.829 56.777 1.355 C 52.022 1.94 47.315 2.837 42.842 4.741 C 41.371 5.368 39.897 5.885 38.713 6.989 C 38.526 7.163 38.425 7.438 38.223 7.583 C 37.165 8.344 35.91 8.916 35.053 9.855 C 32.939 12.171 31.371 14.814 30.257 17.816 C 29.213 20.625 27.513 23.181 26.907 26.189 C 26.55 27.96 25.917 29.691 25.723 31.474 C 25.418 34.259 25.315 37.072 25.247 39.876 C 25.172 43.019 25.164 46.167 25.257 49.309 C 25.307 50.991 25.63 52.665 25.829 54.343 C 25.967 55.504 26.073 56.668 26.249 57.822 C 26.379 58.672 26.643 59.501 26.773 60.35 C 27.015 61.925 27.192 63.51 27.425 65.087 C 27.447 65.237 27.652 65.424 27.811 65.48 C 28.818 65.829 29.704 66.036 30.735 65.204 C 33.992 62.576 37.358 60.078 40.698 57.553 C 41.863 56.673 42.667 56.883 43.353 58.148 C 43.67 58.732 43.999 59.315 44.363 59.964 C 44.79 60.404 45.092 60.938 45.451 61.442 C 46.025 62.25 46.7 62.999 47.312 63.779 C 47.42 63.916 47.408 64.075 47.341 64.197 C 47.898 65.163 48.444 66.135 48.887 67.152 C 49.379 68.283 50.65 68.792 51.407 67.869 C 52.553 66.47 53.538 64.938 54.671 63.527 C 56.213 61.608 57.83 59.749 59.523 57.737 C 59.975 58.087 60.592 58.422 61.021 58.92 C 62.923 61.127 64.781 63.372 66.628 65.626 C 66.981 66.057 67.227 66.581 67.487 67.081 C 68.297 68.638 69.465 69.865 70.983 71.135 C 71.421 71.216 71.87 71.125 72.296 70.936 C 74.118 66.97 75.867 63.162 77.767 59.028 C 78.826 60.673 79.754 62.137 80.706 63.585 C 81.716 65.12 82.77 66.626 83.762 68.172 C 84.391 69.155 84.619 70.365 85.821 71.005 C 86.65 71.446 87.024 71.368 87.422 70.554 C 87.727 69.931 88.077 69.323 88.447 68.686 C 88.44 68.638 88.442 68.586 88.46 68.528 C 88.963 66.968 89.991 65.678 90.844 64.298 C 90.878 64.221 90.91 64.147 90.957 64.061 C 91.972 62.228 92.871 60.331 93.835 58.469 C 94.223 57.716 94.658 56.987 95.219 55.984 C 96.496 58.19 97.629 60.032 98.648 61.936 C 99.109 62.796 99.548 63.668 99.982 64.543 C 100.02 64.568 100.054 64.604 100.083 64.65 C 101.329 66.659 102.69 68.601 104.421 70.222 C 104.521 70.316 104.539 70.423 104.515 70.523 C 104.848 70.592 105.161 70.666 105.47 70.713 C 105.598 70.613 105.705 70.495 105.746 70.389 C 106.188 69.244 106.609 68.075 106.862 66.878 C 107.64 63.202 107.922 59.468 107.975 55.716 C 108.059 49.77 107.76 43.853 107.048 37.936 Z M 105.57 56.312 C 105.47 59.643 104.996 62.963 104.659 66.591 C 102.213 63.807 100.484 61.033 99.115 57.991 C 98.194 55.943 97.026 54.005 95.918 52.047 C 95.774 51.793 95.207 51.49 95.058 51.58 C 94.53 51.897 93.931 52.288 93.663 52.807 C 92.926 54.234 92.407 55.773 91.684 57.209 C 90.344 59.873 88.923 62.496 87.528 65.132 C 87.213 65.729 86.868 66.311 86.487 66.987 C 84.958 66.043 84.187 64.579 83.306 63.198 C 82.399 61.776 81.437 60.39 80.511 58.98 C 79.913 58.069 79.405 57.088 78.725 56.246 C 78.332 55.758 77.652 55.16 77.146 55.198 C 76.628 55.238 75.959 55.904 75.717 56.454 C 75.026 58.03 74.565 59.707 73.925 61.308 C 73.088 63.399 72.163 65.455 71.092 67.96 C 70.217 66.651 69.56 65.55 68.785 64.539 C 68.084 63.627 67.233 62.832 66.486 61.952 C 65.508 60.8 64.602 59.584 63.601 58.455 C 62.479 57.191 61.274 56.003 60.124 54.765 C 58.829 53.371 58.227 53.849 57.383 55.226 C 56.826 56.134 56.359 57.101 55.744 57.967 C 54.458 59.777 53.111 61.545 51.767 63.314 C 51.453 63.727 51.052 64.074 50.59 64.556 C 48.56 60.858 45.325 58.103 44.009 54.089 C 43.529 52.622 42.753 52.567 41.596 53.52 C 40.042 54.801 38.388 55.96 36.771 57.164 C 34.381 58.945 31.986 60.72 29.589 62.492 C 29.536 62.531 29.44 62.513 29.156 62.547 C 28.844 60.336 28.448 58.13 28.236 55.907 C 27.835 51.704 27.371 47.495 27.258 43.281 C 27.177 40.21 27.602 37.125 27.832 34.048 C 27.919 32.893 27.986 31.719 28.248 30.598 C 28.766 28.38 29.227 26.119 30.052 24.009 C 31.221 21.021 32.609 18.108 34.073 15.252 C 35.179 13.095 36.672 11.09 38.766 9.85 C 40.824 8.632 43.069 7.64 45.347 6.908 C 48.316 5.954 51.366 5.145 54.441 4.655 C 58.541 4.001 62.697 3.702 66.831 3.274 C 68.528 3.099 70.251 2.756 71.929 2.891 C 75.186 3.152 78.486 3.31 81.601 4.494 C 83.357 5.161 85.18 5.692 86.85 6.531 C 88.41 7.315 89.789 8.454 91.283 9.382 C 93.441 10.723 94.839 12.775 96.507 14.606 C 99.154 17.511 100.455 21.095 101.986 24.53 C 102.999 26.802 103.289 29.411 103.809 31.889 C 104.756 36.407 105.277 40.978 105.344 45.6 C 105.398 49.172 105.676 52.747 105.57 56.312 Z "/>
        </g>
      </g>
    </g>
  </g>
</svg>