<svg xmlns="http://www.w3.org/2000/svg" xmlns:xlink="http://www.w3.org/1999/xlink" version="1.1" width="92.86445379257202" height="108.5896201133728" viewBox="0.9463855028152466 0.8383083343505859 92.86445379257202 108.5896201133728">
  <!-- Exported by Scratch - http://scratch.mit.edu/ -->
  <g id="ID0.7388451900333166">
    <path id="R_Leg" fill="#FFC93E" stroke="#603813" stroke-width="1.326840877532959" d="M 47.2879 97.629 C 47.2879 96.2643 47.6707 94.3039 49.7883 93.8614 C 52.8434 93.2205 56.3389 96.3141 57.2896 97.2243 C 57.2193 97.5865 58.4081 104.8948 58.4081 105.5277 C 58.4081 107.6705 57.8356 107.7554 57.6134 107.7906 C 55.5216 108.0951 49.9469 102.2331 47.3881 98.8225 C 47.3529 98.6374 47.2879 98.2254 47.2879 97.629 L 47.2879 97.629 L 47.2879 97.629 L 47.2879 97.629 Z "/>
    <path id="Center_Leg" fill="#FFC93E" stroke="#603813" stroke-width="1.326840877532959" d="M 38.8173 107.8695 C 37.3008 106.2243 37.0845 101.7654 37.0845 99.8687 C 37.0845 99.064 37.1256 98.5286 37.1276 98.512 L 37.1303 98.4709 C 37.1303 98.4709 37.1256 98.299 37.1256 98.236 C 37.1256 94.6635 40.4142 93.4242 40.9715 93.2378 C 42.8755 93.261 46.1667 94.1619 46.9522 95.5206 C 47.0318 95.658 47.1061 95.8304 47.1061 96.0514 C 47.1061 96.2451 47.0484 96.4799 46.8839 96.7632 C 46.8076 96.8932 45.4555 100.0883 44.3118 102.5383 L 43.4945 104.8039 C 42.8828 106.7835 41.9202 108.7645 40.8726 108.7645 C 40.0447 108.7658 39.3726 108.4726 38.8173 107.8695 L 38.8173 107.8695 L 38.8173 107.8695 L 38.8173 107.8695 Z "/>
    <path id="R_Arm" fill="#FFC93E" stroke="#603813" stroke-width="1.326840877532959" d="M 81.7081 81.9749 L 80.2294 79.3657 C 78.61 76.5455 76.7391 73.9634 75.0892 71.6906 C 72.9682 68.7629 71.1226 65.7337 70.5116 63.5935 C 70.2913 62.8226 70.3975 62.0869 70.7146 61.6802 C 70.7451 61.5707 71.0649 61.3963 71.2904 61.3498 C 74.0078 60.7627 85.2561 67.2204 88.0624 70.6716 C 92.1736 75.7275 93.8175 82.8188 92.9007 86.3906 C 92.5245 87.8502 91.6833 88.8844 90.4646 89.3767 C 87.3519 90.6345 85.3039 88.3643 81.7081 81.9749 L 81.7081 81.9749 L 81.7081 81.9749 L 81.7081 81.9749 Z "/>
    <path id="Body" fill="#FFC93E" stroke="#603813" stroke-width="1.326840877532959" stroke-linecap="round" stroke-linejoin="round" d="M 37.4301 32.1401 C 41.4233 29.97 37.3021 21.7987 33.3149 13.8954 C 31.1356 9.5738 27.2493 2.2749 28.5124 1.5909 C 30.9558 0.2667 42.6287 14.042 47.3609 19.5941 L 52.1846 25.0879 C 52.1846 25.0879 55.6331 29.3192 58.2721 32.1089 C 58.3186 32.158 60.8137 31.7706 62.5373 30.3382 C 63.9424 29.166 63.7566 27.8544 64.2038 25.0959 C 64.6144 22.5616 65.0603 17.9754 66.4203 17.9522 C 68.4689 17.921 69.8157 26.365 70.3404 29.493 L 70.6303 31.1662 C 71.3183 34.8867 74.9074 46.0726 75.0613 46.5469 C 75.1104 46.6624 75.1914 46.8123 75.1914 46.8123 L 75.2212 46.8727 L 75.2623 46.9231 C 80.8046 53.7968 84.927 62.1313 84.927 69.9398 C 84.927 86.4749 70.4326 98.1146 51.0316 98.1146 C 47.4332 98.1146 43.9137 97.6104 40.5708 96.6193 L 40.391 96.5675 C 40.391 96.5675 35.1433 96.1263 28.4302 104.9505 C 27.0834 106.7218 27.2035 108.3731 25.3055 107.8649 C 24.6726 107.6957 24.2075 107.2307 23.828 106.3861 C 22.9205 104.372 23.5905 99.6 24.6998 96.5509 L 24.8742 96.0719 L 24.4735 95.7548 C 24.3753 95.6765 13.4873 87.7427 12.3873 76.3736 C 11.4287 66.4635 16.4349 60.8211 18.512 57.7203 L 19.7055 55.7326 C 21.2121 52.0666 18.3767 46.9695 15.8743 42.4715 C 14.3802 39.786 11.9687 35.8672 12.5134 34.9464 C 13.1178 33.926 15.2779 35.0114 17.4592 36.0523 C 19.2279 36.8975 20.9295 38.0916 22.1111 37.3042 C 23.3397 36.4862 22.5337 34.4309 21.4171 31.5875 C 20.367 28.9165 18.3787 24.6972 19.1423 22.9557 C 19.3526 22.4767 19.7214 22.1404 20.2701 21.9274 C 22.2988 21.1419 25.1993 24.5592 27.5472 27.2321 C 30.4105 30.4955 33.6586 34.1934 37.4301 32.1401 L 37.4301 32.1401 L 37.4301 32.1401 L 37.4301 32.1401 Z "/>
    <g id="L_Eye">
      <path id="White_1_" fill="#FFFFFF" d="M 40.7784 71.1505 C 40.7784 74.1326 43.1979 76.5508 46.1813 76.5508 C 49.1654 76.5508 51.5835 74.1326 51.5835 71.1505 C 51.5835 68.1665 49.1647 65.745 46.1813 65.745 C 43.1972 65.7463 40.7784 68.1665 40.7784 71.1505 L 40.7784 71.1505 L 40.7784 71.1505 L 40.7784 71.1505 Z " stroke-width="0.6634204387664795"/>
      <path id="Pupil_1_" fill="#603813" d="M 46.9091 67.2019 C 47.9579 67.2019 48.9086 67.6278 49.5966 68.3164 C 50.2852 69.0044 50.7111 69.9551 50.7111 71.0039 C 50.7111 72.0528 50.2852 73.0035 49.5966 73.6914 C 48.9086 74.3801 47.9579 74.806 46.9091 74.806 C 45.8602 74.806 44.9095 74.3801 44.2216 73.6914 C 43.5329 73.0035 43.107 72.0528 43.107 71.0039 C 43.107 69.9551 43.5329 69.0044 44.2216 68.3164 C 44.9095 67.6278 45.8602 67.2019 46.9091 67.2019 L 46.9091 67.2019 L 46.9091 67.2019 Z " stroke-width="0.6634204387664795"/>
    </g>
    <g id="R_Eye">
      <path id="White" fill="#FFFFFF" d="M 66.8057 71.1505 C 66.8057 74.1326 69.2246 76.5508 72.2099 76.5508 C 75.192 76.5508 77.6122 74.1326 77.6122 71.1505 C 77.6122 68.1665 75.1933 65.745 72.2099 65.745 C 69.2246 65.7463 66.8057 68.1665 66.8057 71.1505 L 66.8057 71.1505 L 66.8057 71.1505 L 66.8057 71.1505 Z " stroke-width="0.6634204387664795"/>
      <path id="Pupil" fill="#603813" d="M 69.1337 71.0039 C 69.1337 73.103 70.8347 74.8047 72.9351 74.8047 C 75.0341 74.8047 76.7371 73.105 76.7371 71.0039 C 76.7371 68.9055 75.0341 67.2019 72.9351 67.2019 C 70.8347 67.2019 69.1337 68.9049 69.1337 71.0039 L 69.1337 71.0039 L 69.1337 71.0039 L 69.1337 71.0039 Z " stroke-width="0.6634204387664795"/>
    </g>
    <path id="L_Arm" fill="#FFC93E" stroke="#603813" stroke-width="1.326840877532959" d="M 3.473 92.0078 C 2.3657 91.3006 1.7275 90.133 1.6247 88.627 C 1.3746 84.9444 4.289 78.275 9.2533 74.057 C 12.6434 71.1764 24.8835 66.8854 27.447 67.9582 C 27.6586 68.0471 27.9426 68.2753 27.9512 68.3907 C 28.1907 68.8465 28.1588 69.5882 27.8012 70.306 C 26.8101 72.2989 24.4417 74.9413 21.8198 77.4285 C 19.7818 79.3683 17.4724 81.5589 15.3661 84.0381 L 13.4342 86.3269 C 8.7325 91.9541 6.3011 93.8156 3.473 92.0078 L 3.473 92.0078 L 3.473 92.0078 L 3.473 92.0078 Z "/>
    <path id="Mouth" fill="#603813" d="M 56.9553 84.3951 L 56.9513 85.0286 C 56.9473 85.1998 57.015 87.1708 58.8666 89.0383 C 59.4962 89.6752 60.2624 89.9937 61.1434 89.9937 C 65.1876 89.9937 66.0123 85.0412 66.0494 84.7407 L 66.145 83.9526 L 56.9553 84.3951 L 56.9553 84.3951 L 56.9553 84.3951 L 56.9553 84.3951 Z " stroke-width="0.6634204387664795"/>
  </g>
</svg>