<svg xmlns="http://www.w3.org/2000/svg" xmlns:xlink="http://www.w3.org/1999/xlink" version="1.1" width="212.61485293452034" height="147.23982241694222" viewBox="0.23536489931697435 0.010173484960742663 212.61485293452034 147.23982241694222">
  <!-- Exported by Scratch - http://scratch.mit.edu/ -->
  <g id="ID0.8105592420324683">
    <g id="Page-1">
      <g id="Dragonfly-1">
        <g id="Group-5">
          <path id="Path" fill="#FCF6EC" stroke="none" stroke-width="1" d="M 112.95 37.2 L 200.75 1.2 C 210.15 -2.7 216.55 11 207.55 15.7 L 144.55 48.9 C 134.65 54.1 122.55 51.1 116.25 41.9 L 112.95 37.2 Z "/>
          <path id="Shape" fill="#E1D9CA" stroke="none" stroke-width="1" d="M 124.65 44.3 L 124.05 48.9 L 124.55 49.1 L 125.25 44.3 L 132.15 41.5 L 138.05 46.1 L 137.35 51.2 C 137.55 51.2 137.65 51.2 137.85 51.1 L 138.55 46.1 L 145.55 43.3 L 149.45 46.4 L 149.95 46.1 L 145.75 43 L 146.75 35.5 L 153.65 32.7 L 159.55 37.3 L 159.05 41.3 L 159.55 41 L 160.05 37.3 L 167.05 34.4 L 169.05 35.9 L 169.55 35.6 L 167.45 33.9 L 168.45 26.4 L 175.35 23.6 L 181.25 28.2 L 181.05 29.5 L 181.55 29.2 L 181.65 28.3 L 188.85 25.3 L 189.95 17.6 L 196.95 14.7 L 201.85 18.5 L 202.35 18.2 L 197.25 14.2 L 198.15 7.3 L 205.45 4.3 L 205.45 4.5 L 211.05 8.8 L 210.65 13 C 210.95 12.6 211.15 12.2 211.35 11.7 L 211.75 8.6 L 205.75 3.9 L 206.15 1 L 205.65 0.9 L 205.25 3.7 L 198.15 6.6 L 194.85 4 L 193.95 4.4 L 197.85 7.4 L 196.85 14.5 L 189.95 17.3 L 184.15 12.8 L 184.75 8.1 L 184.05 8.4 L 183.45 12.6 L 176.45 15.5 L 173.05 12.9 L 172.15 13.3 L 176.05 16.3 L 175.05 23.4 L 168.05 26.2 L 162.15 21.6 L 162.75 17.1 L 150.75 22 L 154.35 24.8 L 153.35 32.3 L 146.45 35.1 L 140.75 30.5 L 141.35 25.8 L 140.75 26.1 L 140.15 30.4 L 133.15 33.3 L 129.75 30.7 L 128.85 31.1 L 132.75 34.2 L 131.75 41.3 L 124.85 44.1 L 118.95 39.5 L 119.55 34.9 L 119.05 35 L 118.45 39.6 L 124.65 44.3 Z M 176.65 16.5 L 183.95 13.5 L 183.95 13.4 L 189.55 17.7 L 188.55 25.2 L 181.65 28 L 175.75 23.4 L 176.65 16.5 Z M 155.05 24.8 L 161.95 22 L 167.85 26.6 L 166.85 34.1 L 159.95 36.9 L 154.05 32.3 L 155.05 24.8 Z M 133.35 34.2 L 140.65 31.2 L 140.65 31.1 L 146.25 35.4 L 145.25 42.9 L 138.35 45.7 L 132.45 41.1 L 133.35 34.2 Z "/>
          <path id="Path_1_" fill="#758A72" stroke="none" stroke-width="1" d="M 112.95 37.2 L 200.75 1.2 C 204.25 -0.2 207.35 0.8 209.35 2.9 L 115.75 41.2 L 112.95 37.2 Z "/>
          <path id="Rectangle" fill="#1A252E" stroke="none" stroke-width="1" d="M 198.35 7.3 L 197.85 7.6 L 195.95 3.2 L 196.45 3 L 198.35 7.3 "/>
          <path id="Rectangle_1_" fill="#1A252E" stroke="none" stroke-width="1" d="M 185.85 12.5 L 185.35 12.7 L 183.45 8.3 L 183.95 8.1 L 185.85 12.5 "/>
        </g>
        <g id="Group-4">
          <path id="Path_2_" fill="#FCF6EC" stroke="none" stroke-width="1" d="M 102.65 36.6 L 10.85 12.6 C 0.95 10 -3.55 24.4 6.05 27.9 L 72.85 52.4 C 83.35 56.2 94.95 51.6 100.05 41.6 L 102.65 36.6 Z "/>
          <path id="Shape_1_" fill="#E1D9CA" stroke="none" stroke-width="1" d="M 78.95 48.8 L 84.25 43.4 L 91.55 45.3 L 92.75 50 L 93.15 49.7 L 91.95 45.2 L 97.45 39.6 L 96.15 35 L 95.55 34.9 L 96.85 39.5 L 91.55 44.8 L 84.35 43 L 82.45 36.1 L 86.05 32.4 L 85.15 32.2 L 82.05 35.4 L 74.75 33.5 L 73.55 29.2 L 72.85 29 L 74.15 33.7 L 69.05 39 L 61.75 37.1 L 59.75 29.8 L 63.05 26.4 L 50.35 23.1 L 51.65 27.7 L 46.35 33 L 39.15 31.1 L 37.25 24.2 L 40.85 20.5 L 39.95 20.3 L 36.75 23.5 L 29.45 21.6 L 28.25 17.3 L 27.55 17.1 L 28.85 21.8 L 23.75 27.1 L 16.55 25.2 L 14.65 18.3 L 18.25 14.7 L 17.35 14.5 L 14.25 17.7 L 6.75 15.7 L 5.95 12.9 C 5.85 13 5.65 13 5.45 13.1 L 6.25 16 L 0.95 21.4 L 1.75 24.5 C 1.95 24.9 2.25 25.3 2.55 25.7 L 1.45 21.6 L 6.45 16.6 L 6.45 16.7 L 14.15 18.7 L 15.95 25.4 L 11.45 30 L 11.95 30.2 L 16.25 25.8 L 23.55 27.7 L 25.65 35.2 L 33.15 37.2 L 33.35 38.1 L 33.95 38.3 L 33.65 37 L 38.95 31.6 L 46.25 33.5 L 48.25 40.8 L 46.35 42.7 L 46.85 42.9 L 48.65 41.1 L 55.95 43 L 56.95 46.6 L 57.55 46.8 L 56.45 42.9 L 61.75 37.5 L 69.05 39.4 L 71.05 46.7 L 67.35 50.4 L 67.85 50.6 L 71.35 47.1 L 78.65 49 L 79.95 53.9 L 80.45 53.9 L 78.95 48.8 Z M 33.35 36.6 L 26.05 34.7 L 24.05 27.4 L 29.05 22.4 L 29.05 22.5 L 36.75 24.5 L 38.55 31.2 L 33.35 36.6 Z M 55.95 42.5 L 48.75 40.7 L 46.75 33.4 L 52.05 28.1 L 59.35 30 L 61.35 37.3 L 55.95 42.5 Z M 71.35 46.6 L 69.35 39.3 L 74.35 34.3 L 74.35 34.4 L 82.05 36.4 L 83.85 43.1 L 78.55 48.5 L 71.35 46.6 Z "/>
          <path id="Path_3_" fill="#758A72" stroke="none" stroke-width="1" d="M 102.65 36.6 L 10.85 12.6 C 7.15 11.6 4.25 13.1 2.45 15.4 L 100.45 41 L 102.65 36.6 Z "/>
          <path id="Rectangle_2_" fill="#1A252E" stroke="none" stroke-width="1" d="M 15.35 13.7 L 15.85 13.9 L 14.55 18.5 L 14.05 18.3 L 15.35 13.7 "/>
          <path id="Rectangle_3_" fill="#1A252E" stroke="none" stroke-width="1" d="M 28.35 17.1 L 28.85 17.3 L 27.55 21.9 L 27.05 21.7 L 28.35 17.1 "/>
        </g>
        <g id="Group-3">
          <path id="Path_4_" fill="#FBF4E9" stroke="none" stroke-width="1" d="M 112.25 74.85 L 113.85 57.15 L 205.85 65.45 C 214.45 66.25 214.55 78.85 205.95 79.75 L 125.45 88.05 C 121.85 88.45 118.35 87.15 115.75 84.65 C 113.15 82.15 111.85 78.45 112.25 74.85 Z "/>
          <path id="Shape_2_" fill="#E1D9CA" stroke="none" stroke-width="1" d="M 209.85 67.05 C 209.75 66.95 209.55 66.85 209.45 66.75 L 207.05 70.15 L 199.55 69.45 L 197.35 64.65 L 196.75 64.65 L 199.05 69.65 L 194.75 75.85 L 187.35 75.15 L 184.15 68.35 L 187.35 63.85 L 186.75 63.85 L 183.75 68.15 L 176.25 67.45 L 174.05 62.65 L 173.45 62.55 L 175.75 67.55 L 171.45 73.75 L 163.95 73.05 L 160.75 66.25 L 163.95 61.75 L 163.35 61.65 L 160.35 65.95 L 152.85 65.25 L 150.75 60.45 L 150.15 60.35 L 152.45 65.35 L 148.15 71.55 L 140.75 70.95 L 137.55 64.15 L 140.75 59.55 L 140.15 59.45 L 137.15 63.75 L 129.65 63.15 L 127.95 59.35 L 127.45 59.35 L 129.25 63.25 L 124.95 69.45 L 117.45 68.75 L 114.25 62.05 L 115.55 60.25 L 114.95 60.25 L 113.75 61.95 L 117.05 69.05 L 112.55 75.45 L 115.75 82.55 L 114.95 83.75 L 115.35 84.15 L 116.25 82.85 L 123.75 83.55 L 125.85 88.05 L 126.35 87.95 L 126.35 87.85 L 124.25 83.25 L 128.55 77.05 L 136.05 77.75 L 139.25 84.55 L 137.75 86.65 L 138.45 86.55 L 139.65 84.85 L 147.15 85.55 L 147.25 85.75 L 147.75 85.65 L 147.65 85.35 L 151.95 79.15 L 159.45 79.85 L 161.45 84.25 L 161.95 84.15 L 161.95 84.05 L 159.85 79.55 L 164.15 73.35 L 171.65 74.05 L 174.85 80.85 L 173.45 82.85 L 174.15 82.75 L 174.15 82.65 L 175.25 81.05 L 182.75 81.75 L 182.75 81.85 L 183.25 81.75 L 183.25 81.65 L 183.15 81.45 L 187.45 75.25 L 194.95 75.95 L 196.95 80.15 L 197.45 80.05 L 195.45 75.65 L 199.75 69.45 L 207.25 70.15 L 210.45 76.95 L 210.15 77.45 C 210.45 77.25 210.65 76.95 210.85 76.65 L 207.75 69.95 L 209.85 67.05 Z M 128.05 76.85 L 123.75 83.05 L 116.35 82.35 L 113.15 75.55 L 117.45 69.35 L 124.95 70.05 L 128.05 76.85 Z M 140.25 71.15 L 135.95 77.35 L 128.45 76.65 L 125.35 69.85 L 129.65 63.65 L 137.15 64.35 L 140.25 71.15 Z M 151.25 78.95 L 146.95 85.15 L 139.45 84.45 L 136.25 77.65 L 140.55 71.45 L 148.05 72.15 L 151.25 78.95 Z M 163.55 73.25 L 159.25 79.45 L 151.75 78.75 L 148.55 71.95 L 152.85 65.75 L 160.35 66.45 L 163.55 73.25 Z M 186.85 75.35 L 182.55 81.55 L 175.05 80.85 L 171.85 74.05 L 176.25 67.85 L 183.75 68.55 L 186.85 75.35 Z "/>
          <path id="Path_5_" fill="#758A72" stroke="none" stroke-width="1" d="M 205.75 65.35 L 113.75 57.15 L 113.35 62.15 L 212.15 71.05 C 211.55 67.95 208.95 65.55 205.75 65.35 Z "/>
          <path id="Rectangle_4_" fill="#1A252E" stroke="none" stroke-width="1" d="M 197.75 64.65 L 198.15 64.65 L 197.75 69.65 L 197.25 69.65 L 197.75 64.65 "/>
          <path id="Rectangle_5_" fill="#1A252E" stroke="none" stroke-width="1" d="M 182.85 63.35 L 183.35 63.35 L 182.85 68.35 L 182.45 68.35 L 182.85 63.35 "/>
        </g>
        <g id="Group-2">
          <path id="Path_6_" fill="#FBF4E9" stroke="none" stroke-width="1" d="M 103.55 74.85 L 101.95 57.15 L 9.95 65.45 C 1.35 66.15 1.25 78.75 9.85 79.65 L 90.25 87.95 C 93.85 88.35 97.35 87.05 99.95 84.55 C 102.55 82.05 103.85 78.45 103.55 74.85 Z "/>
          <path id="Shape_3_" fill="#E1D9CA" stroke="none" stroke-width="1" d="M 8.25 70.45 L 5.15 77.15 C 5.35 77.45 5.65 77.65 5.85 77.95 L 5.55 77.45 L 8.75 70.65 L 16.25 69.95 L 20.55 76.15 L 18.55 80.55 L 19.05 80.65 L 21.05 76.45 L 28.55 75.75 L 32.85 81.95 L 32.75 82.15 L 32.75 82.25 L 33.25 82.35 L 33.25 82.25 L 40.75 81.55 L 41.85 83.15 L 41.85 83.25 L 42.55 83.35 L 41.15 81.35 L 44.35 74.55 L 51.85 73.85 L 56.15 80.05 L 54.05 84.55 L 54.05 84.65 L 54.55 84.75 L 56.55 80.35 L 64.05 79.65 L 68.35 85.85 L 68.15 86.15 L 68.65 86.25 L 68.75 86.05 L 76.25 85.35 L 77.45 87.05 L 78.15 87.15 L 76.65 84.65 L 79.85 77.85 L 87.35 77.15 L 91.65 83.35 L 89.55 87.95 L 89.55 88.05 L 90.05 88.15 L 92.15 83.65 L 99.65 82.95 L 100.55 84.25 L 100.85 83.85 L 100.05 82.65 L 103.35 75.55 L 98.85 69.15 L 102.15 62.05 L 100.95 60.35 L 100.35 60.35 L 101.65 62.15 L 98.25 68.85 L 90.75 69.55 L 86.45 63.35 L 88.25 59.45 L 87.75 59.45 L 86.05 63.25 L 78.55 63.95 L 75.55 59.65 L 74.95 59.75 L 78.15 64.25 L 74.95 71.05 L 67.55 71.65 L 63.25 65.45 L 65.55 60.45 L 64.95 60.55 L 62.75 65.35 L 55.25 66.05 L 52.25 61.75 L 51.65 61.85 L 54.85 66.35 L 51.65 73.15 L 44.25 73.75 L 39.95 67.55 L 42.25 62.55 L 41.65 62.65 L 39.45 67.45 L 31.95 68.15 L 28.95 63.85 L 28.35 63.95 L 31.55 68.45 L 28.35 75.25 L 20.85 75.95 L 16.65 69.65 L 18.95 64.65 L 18.45 64.65 L 16.25 69.45 L 8.75 70.15 L 6.35 66.75 C 6.25 66.85 6.05 66.95 5.95 67.05 L 8.25 70.45 Z M 90.85 70.05 L 98.35 69.35 L 102.65 75.55 L 99.45 82.35 L 91.95 83.05 L 87.65 76.85 L 90.85 70.05 Z M 78.65 64.35 L 86.15 63.65 L 90.45 69.85 L 87.25 76.65 L 79.75 77.35 L 75.45 71.15 L 78.65 64.35 Z M 67.55 72.15 L 75.05 71.45 L 79.35 77.65 L 76.25 84.45 L 68.75 85.15 L 64.45 78.95 L 67.55 72.15 Z M 55.35 66.45 L 62.85 65.75 L 67.15 71.95 L 63.95 78.75 L 56.45 79.45 L 52.15 73.25 L 55.35 66.45 Z M 32.05 68.55 L 39.55 67.85 L 43.85 74.05 L 40.65 80.85 L 33.15 81.55 L 28.85 75.35 L 32.05 68.55 Z "/>
          <path id="Path_7_" fill="#758A72" stroke="none" stroke-width="1" d="M 9.95 65.35 L 101.95 57.05 L 102.35 62.05 L 3.65 70.95 C 4.15 67.85 6.85 65.55 9.95 65.35 Z "/>
          <path id="Rectangle_6_" fill="#1A252E" stroke="none" stroke-width="1" d="M 18.45 69.65 L 18.05 69.65 L 17.55 64.65 L 17.95 64.65 L 18.45 69.65 "/>
          <path id="Rectangle_7_" fill="#1A252E" stroke="none" stroke-width="1" d="M 33.25 68.35 L 32.85 68.35 L 32.45 63.35 L 32.85 63.35 L 33.25 68.35 "/>
        </g>
        <g id="Abdomen">
          <path id="Path" fill="#0C5A43" stroke="none" stroke-width="1" d="M 107.95 47.45 C 104.65 47.45 101.95 50.15 101.95 53.45 L 101.95 140.75 C 101.95 144.05 104.65 146.75 107.95 146.75 C 107.95 146.75 113.95 146.75 113.95 140.75 L 113.95 53.45 C 113.95 50.15 111.25 47.45 107.95 47.45 Z "/>
          <g id="Group">
            <path id="Rectangle_9_" fill="#5CBCC5" stroke="none" stroke-width="1" d="M 101.95 128.9 L 113.95 128.9 L 113.95 140.4 L 101.95 140.4 L 101.95 128.9 Z "/>
            <path id="Rectangle_10_" fill="#EEE75A" stroke="none" stroke-width="1" d="M 101.95 99.3 L 113.95 99.3 L 113.95 117.2 L 101.95 117.2 L 101.95 99.3 Z "/>
            <path id="Rectangle_11_" fill="#EEE75A" stroke="none" stroke-width="1" d="M 101.95 72.4 L 113.95 72.4 L 113.95 85.9 L 101.95 85.9 L 101.95 72.4 Z "/>
          </g>
        </g>
        <g id="Body">
          <g id="Head">
            <path id="Path_8_" fill="#1C252E" stroke="none" stroke-width="1" d="M 108.05 12.2 C 109.35 12.2 110.45 13.3 110.45 14.6 L 110.45 27.6 L 105.65 27.6 L 105.65 14.6 C 105.65 13.3 106.75 12.2 108.05 12.2 Z "/>
            <path id="Path_9_" fill="#758A72" stroke="none" stroke-width="1" d="M 108.05 22.6 L 105.55 26.3 L 110.55 26.3 L 108.05 22.6 "/>
            <path id="Oval" fill="#FCF6EC" stroke="none" stroke-width="1" d="M 104.25 15.6 C 105.243 15.6 106.143 16.003 106.795 16.655 C 107.447 17.307 107.85 18.207 107.85 19.2 C 107.85 20.193 107.447 21.093 106.795 21.745 C 106.143 22.397 105.243 22.8 104.25 22.8 C 103.257 22.8 102.357 22.397 101.705 21.745 C 101.053 21.093 100.65 20.193 100.65 19.2 C 100.65 18.207 101.053 17.307 101.705 16.655 C 102.357 16.003 103.257 15.6 104.25 15.6 Z "/>
            <path id="Oval_1_" fill="#1C252E" stroke="none" stroke-width="1" d="M 104.25 17.3 C 104.774 17.3 105.249 17.513 105.593 17.857 C 105.937 18.201 106.15 18.676 106.15 19.2 C 106.15 19.724 105.937 20.199 105.593 20.543 C 105.249 20.887 104.774 21.1 104.25 21.1 C 103.726 21.1 103.251 20.887 102.907 20.543 C 102.563 20.199 102.35 19.724 102.35 19.2 C 102.35 18.676 102.563 18.201 102.907 17.857 C 103.251 17.513 103.726 17.3 104.25 17.3 Z "/>
            <path id="Oval_2_" fill="#FCF6EC" stroke="none" stroke-width="1" d="M 111.85 15.6 C 112.843 15.6 113.743 16.003 114.395 16.655 C 115.047 17.307 115.45 18.207 115.45 19.2 C 115.45 20.193 115.047 21.093 114.395 21.745 C 113.743 22.397 112.843 22.8 111.85 22.8 C 110.857 22.8 109.957 22.397 109.305 21.745 C 108.653 21.093 108.25 20.193 108.25 19.2 C 108.25 18.207 108.653 17.307 109.305 16.655 C 109.957 16.003 110.857 15.6 111.85 15.6 Z "/>
            <path id="Oval_3_" fill="#1C252E" stroke="none" stroke-width="1" d="M 111.85 17.3 C 112.374 17.3 112.849 17.513 113.193 17.857 C 113.537 18.201 113.75 18.676 113.75 19.2 C 113.75 19.724 113.537 20.199 113.193 20.543 C 112.849 20.887 112.374 21.1 111.85 21.1 C 111.326 21.1 110.851 20.887 110.507 20.543 C 110.163 20.199 109.95 19.724 109.95 19.2 C 109.95 18.676 110.163 18.201 110.507 17.857 C 110.851 17.513 111.326 17.3 111.85 17.3 Z "/>
          </g>
          <g id="Group_1_">
            <path id="Oval_4_" fill="#115C40" stroke="none" stroke-width="1" d="M 107.95 40.7 C 110.737 40.7 113.262 41.832 115.09 43.66 C 116.918 45.488 118.05 48.013 118.05 50.8 C 118.05 53.587 116.918 56.112 115.09 57.94 C 113.262 59.768 110.737 60.9 107.95 60.9 C 105.163 60.9 102.638 59.768 100.81 57.94 C 98.982 56.112 97.85 53.587 97.85 50.8 C 97.85 48.013 98.982 45.488 100.81 43.66 C 102.638 41.832 105.163 40.7 107.95 40.7 Z "/>
            <path id="Oval_5_" fill="#1C252E" stroke="none" stroke-width="1.0000000292469107" d="M 101.9447 49.8526 C 102.6309 48.1961 103.9253 46.9734 105.4632 46.3364 C 107.0006 45.7004 108.7809 45.6487 110.4374 46.3349 C 112.0948 47.0214 113.3172 48.3168 113.9536 49.8533 C 114.5906 51.3912 114.6413 53.1711 113.9551 54.8276 C 113.2686 56.485 111.9741 57.7077 110.4363 58.3447 C 108.8998 58.9811 107.1195 59.0328 105.4621 58.3462 C 103.8055 57.66 102.5832 56.3647 101.9459 54.8278 C 101.3089 53.2899 101.2582 51.51 101.9447 49.8526 Z "/>
            <path id="Path_10_" fill="#008E77" stroke="none" stroke-width="1" d="M 107.85 52 L 102.85 56.6 L 112.95 56.6 L 107.85 52 "/>
          </g>
          <path id="Oval_6_" fill="#1C252E" stroke="none" stroke-width="1.0000000144527652" d="M 106.3238 25.7578 C 109.0748 25.3113 111.7485 26.0242 113.8457 27.5357 C 115.9441 29.0481 117.465 31.3593 117.9113 34.1093 C 118.3578 36.8603 117.6459 39.5339 116.1334 41.6313 C 114.622 43.7295 112.3108 45.2504 109.5598 45.6969 C 106.8097 46.1432 104.1362 45.4313 102.0378 43.9189 C 99.9406 42.4074 98.4187 40.0963 97.9722 37.3453 C 97.5259 34.5953 98.2388 31.9216 99.7502 29.8233 C 101.2627 27.7259 103.5737 26.2041 106.3238 25.7578 Z "/>
          <path id="Path_11_" fill="#1C252E" stroke="none" stroke-width="1" d="M 107.95 40.7 C 102.75 40.7 98.35 44.7 97.95 50 L 118.05 50 C 117.55 44.7 113.15 40.7 107.95 40.7 Z "/>
        </g>
      </g>
    </g>
  </g>
</svg>