<svg version="1.1" xmlns="http://www.w3.org/2000/svg" xmlns:xlink="http://www.w3.org/1999/xlink" width="123.537" height="110.61961" viewBox="0,0,123.537,110.61961"><g transform="translate(-179.33381,-126.02352)"><g data-paper-data="{&quot;isPaintingLayer&quot;:true}" fill-rule="nonzero" stroke-miterlimit="10" stroke-dasharray="" stroke-dashoffset="0" style="mix-blend-mode: normal"><g data-paper-data="{&quot;index&quot;:null,&quot;origPos&quot;:null,&quot;origRot&quot;:0}" stroke-linejoin="round"><path d="M291.27542,176.1808c-4.84515,0.12063 -4.13422,-1.78551 -11.96253,-2.15021c-5.36111,-0.24976 -15.17031,2.20481 -15.21118,-5.50825c-0.16808,-8.29738 8.86564,-6.75588 15.96146,-6.93256c3.22577,-0.41625 6.8009,-1.67936 10.35959,-1.52585c10.48949,0.45249 12.46078,5.47744 12.29888,9.19898c-0.1932,4.44101 -6.60107,6.79725 -11.44622,6.91788z" data-paper-data="{&quot;origPos&quot;:null,&quot;index&quot;:null,&quot;origRot&quot;:0}" fill="#ffffff" stroke="#627191" stroke-width="0.25" stroke-linecap="butt"/><path d="M279.10217,173.57957c-5.34781,-0.5288 -15.09554,2.02776 -15.00047,-5.05722c-0.18785,-6.86874 8.86564,-6.75588 15.96146,-6.93256c3.22577,-0.41625 6.86085,-0.78494 10.41954,-0.63142c8.03015,0.48991 11.58481,4.11676 11.42291,7.8383c-0.1932,4.44101 -6.20525,6.27216 -11.05039,6.39279c-4.84515,0.12063 -6.8914,-1.12917 -11.75305,-1.6099z" data-paper-data="{&quot;origPos&quot;:null,&quot;index&quot;:null,&quot;origRot&quot;:0}" fill="#627191" stroke="none" stroke-width="0" stroke-linecap="butt"/><path d="M288.41206,163.95826l-2.91955,8.48283l-1.92306,-8.80343l-3.01204,8.5954l-1.98131,-8.66229c0,0 0.83634,2.14376 0.69896,4.30877c-0.14176,2.234 -1.11833,4.20328 -1.11833,4.20328l3.14837,-8.45964l1.49408,8.61399l3.16701,-8.52329l2.19738,8.76691l2.70271,-8.36566c0,0 1.08417,2.32236 0.9647,4.12385c-0.11948,1.80149 -1.21776,4.17123 -1.21776,4.17123z" data-paper-data="{&quot;origPos&quot;:null,&quot;origRot&quot;:0}" fill="none" stroke="#ffffff" stroke-width="1" stroke-linecap="round"/><path d="M296.26603,168.08671c0.05783,-2.05157 0.27573,-5.25689 0.27573,-5.25689c0,0 4.8624,2.51217 4.86054,5.54426c-0.00252,4.1033 -5.15787,5.004 -5.15787,5.004c0,0 -0.03661,-3.22635 0.0216,-5.29137z" data-paper-data="{&quot;origPos&quot;:null,&quot;origRot&quot;:0}" fill="#ffffff" stroke="none" stroke-width="0" stroke-linecap="round"/></g><g data-paper-data="{&quot;origPos&quot;:null,&quot;origRot&quot;:0,&quot;index&quot;:null}" stroke-linejoin="round"><path d="M291.2907,186.43925c4.84515,0.12063 11.25303,2.47687 11.44622,6.91788c0.1619,3.72154 -1.80939,8.74648 -12.29887,9.19898c-3.55869,0.15351 -7.13383,-1.1096 -10.3596,-1.52585c-7.09582,-0.17667 -16.12954,1.36482 -15.96146,-6.93256c0.04087,-7.71306 9.85008,-5.25848 15.21119,-5.50824c7.82831,-0.3647 7.11738,-2.27084 11.96252,-2.15021z" data-paper-data="{&quot;origPos&quot;:null,&quot;index&quot;:null,&quot;origRot&quot;:0}" fill="#ffffff" stroke="#627191" stroke-width="0.25" stroke-linecap="butt"/><path d="M290.87048,187.43059c4.84515,0.12063 10.8572,1.95178 11.05039,6.39279c0.1619,3.72154 -3.39276,7.34839 -11.4229,7.83831c-3.55869,0.15351 -7.19377,-0.21518 -10.41955,-0.63142c-7.09582,-0.17667 -16.1493,-0.06382 -15.96146,-6.93256c-0.09508,-7.08498 9.65266,-4.52842 15.00047,-5.05722c4.86165,-0.48073 6.9079,-1.73053 11.75304,-1.60989z" data-paper-data="{&quot;origPos&quot;:null,&quot;index&quot;:null,&quot;origRot&quot;:0}" fill="#627191" stroke="none" stroke-width="0" stroke-linecap="butt"/><path d="M290.62845,190.20982c0,0 1.09828,2.36975 1.21776,4.17124c0.11947,1.80149 -0.9647,4.12385 -0.9647,4.12385l-2.70271,-8.36567l-2.19737,8.76691l-3.16701,-8.52328l-1.49409,8.61399l-3.14837,-8.45963c0,0 0.97658,1.96928 1.11833,4.20328c0.13738,2.165 -0.69896,4.30876 -0.69896,4.30876l1.9813,-8.66229l3.01205,8.5954l1.92306,-8.80343l2.91954,8.48283z" data-paper-data="{&quot;origPos&quot;:null,&quot;origRot&quot;:0}" fill="none" stroke="#ffffff" stroke-width="1" stroke-linecap="round"/><path d="M296.25972,189.24198c0,0 5.15535,0.9007 5.15787,5.004c0.00187,3.03209 -4.86053,5.54426 -4.86053,5.54426c0,0 -0.2179,-3.20532 -0.27573,-5.25689c-0.05821,-2.06502 -0.02161,-5.29137 -0.02161,-5.29137z" data-paper-data="{&quot;origPos&quot;:null,&quot;origRot&quot;:0}" fill="#ffffff" stroke="none" stroke-width="0" stroke-linecap="round"/></g><g data-paper-data="{&quot;origPos&quot;:null,&quot;origRot&quot;:0,&quot;index&quot;:null}" stroke="none" stroke-width="0" stroke-linecap="butt" stroke-linejoin="miter"><path d="M269.15711,211.46576l-0.9571,-58.70477l15.48152,10.34441c0,0 8.23255,5.55619 0.53702,11.04813c-3.35459,0.50454 -6.18142,-0.68739 -6.18142,-0.68739l-0.15383,18.06384c0,0 4.21635,-2.00798 6.37791,-2.05632c6.35296,4.63015 0.11146,10.8209 0.11146,10.8209z" data-paper-data="{&quot;origPos&quot;:null}" fill="#5083ab"/><path d="M283.18061,162.43696c0,0 11.70117,6.01359 1.29527,12.28709c-0.79075,0.11893 -1.09979,-0.93316 -3.43017,-0.56165c4.605,-4.80692 4.85062,-7.67995 0.14939,-13.78146z" data-paper-data="{&quot;origPos&quot;:null}" fill="#cddce7"/><path d="M283.69923,188.76075c9.28788,5.29582 0.53179,12.14786 0.53179,12.14786l-2.95805,2.47935c3.48413,-5.48842 4.56811,-8.90446 -0.25569,-14.14266c2.5899,0.32367 2.12291,-0.47205 2.68195,-0.48455z" data-paper-data="{&quot;origPos&quot;:null}" fill="#cddce7"/></g><path d="M267.41035,176.38435c-0.01434,0.00986 -0.01267,0.00858 0.00044,-0.00153c-0.00015,0.00051 -0.00029,0.00101 -0.00044,0.00153z" data-paper-data="{&quot;origPos&quot;:null,&quot;origRot&quot;:0,&quot;index&quot;:null}" fill="#9383d1" stroke="none" stroke-width="0.5" stroke-linecap="butt" stroke-linejoin="miter"/><path d="M274.51131,150.62635c2.71778,0.2576 12.21402,10.08689 11.42886,34.60992c-1.26211,18.51969 -5.58227,26.64725 -11.07117,27.90882c-5.96357,0.04829 4.5086,-0.47936 3.6704,9.14861c-0.8382,9.62797 -7.01746,12.21007 -10.83031,10.58349c-3.11009,1.22751 -11.04873,3.71669 -14.3815,3.76262c-6.93868,0.10464 -27.33398,-1.92798 -28.04905,-54.25276c-0.77055,-56.38455 23.62469,-56.73524 30.20255,-56.30273c3.11641,0.32355 8.59266,1.60628 11.49169,2.82122c5.24764,-2.21 9.74955,5.26685 9.97099,9.57407c0.40227,7.82457 -6.87818,13.89142 -2.43247,11.69528zM251.40489,159.00726c-11.64196,0 -20.59913,11.28764 -20.59913,22.33334c0,11.04569 10.55878,23 22.20075,23c11.64198,0 10.28305,-18.62097 22.93084,-23c-11.11289,-2.71237 -12.89049,-22.33334 -24.53245,-22.33334z" data-paper-data="{&quot;origPos&quot;:null,&quot;index&quot;:null,&quot;origRot&quot;:0}" fill="#a69bd1" stroke="none" stroke-width="NaN" stroke-linecap="butt" stroke-linejoin="miter"/><g data-paper-data="{&quot;origPos&quot;:null,&quot;origRot&quot;:0,&quot;index&quot;:null}" fill="#9383d1" stroke="none" stroke-width="0.5" stroke-linecap="butt" stroke-linejoin="miter"><path d="M276.93937,176.58859c-0.27097,0 -0.49066,-0.72499 -0.49066,-1.61932c0,-0.89433 0.21969,-1.61931 0.49066,-1.61931c0.27097,0 0.49066,0.72498 0.49066,1.61931c0,0.89433 -0.21969,1.61932 -0.49066,1.61932z" data-paper-data="{&quot;origPos&quot;:null}"/><path d="M277.3078,176.07291c-2.06198,-0.14032 -5.43613,-0.36995 -7.49809,-0.51028c0,0 -0.98413,-0.06697 -0.96604,-1.5643c0.01808,-1.49732 0.99601,-0.91698 0.99601,-0.91698c2.4873,0.16927 4.86772,0.46465 7.37736,1.18712c1.30089,0.37448 2.15273,1.94476 0.09077,1.80443z" data-paper-data="{&quot;origPos&quot;:null,&quot;origRot&quot;:0}"/></g><g data-paper-data="{&quot;origPos&quot;:null,&quot;origRot&quot;:0,&quot;index&quot;:null}" fill="#9383d1" stroke="none" stroke-width="0.5" stroke-linecap="butt" stroke-linejoin="miter"><path d="M277.02803,189.36991c-0.2559,0 -0.46336,-0.80237 -0.46336,-1.79214c0,-0.98977 0.20746,-1.79214 0.46336,-1.79214c0.2559,0 0.46335,0.80237 0.46335,1.79214c0,0.98977 -0.20745,1.79214 -0.46335,1.79214z" data-paper-data="{&quot;origPos&quot;:null}"/><path d="M277.32916,188.45346c-1.70598,0.93546 -4.75491,2.09843 -6.52948,2.26411c0,0 -0.74812,0.2353 -0.76582,-1.21071c-0.01768,-1.44601 0.82925,-1.52508 0.82925,-1.52508c2.40965,-0.22499 5.39129,-0.97382 6.16933,-1.06874c0.25934,-0.03164 0.40524,-0.04674 0.66467,-0.06569c1.01783,-0.07433 0.72297,1.0079 -0.36797,1.6061z" data-paper-data="{&quot;origPos&quot;:null,&quot;origRot&quot;:0}"/></g><g data-paper-data="{&quot;origPos&quot;:null,&quot;origRot&quot;:0,&quot;index&quot;:null}" stroke="none" stroke-linecap="butt" stroke-linejoin="miter"><path d="M281.50304,215.66108c-2.56363,7.91614 -8.57265,16.55781 -13.65951,10.09385c-4.06062,-5.1599 -3.12399,-7.91618 0.78876,-14.47663c3.91275,-6.56044 11.93659,-18.13461 14.35834,-15.38108c4.41148,5.01591 1.19897,11.46817 -1.48758,19.76386z" data-paper-data="{&quot;origPos&quot;:null,&quot;origRot&quot;:0,&quot;index&quot;:null}" fill="#f6dbc4" stroke-width="0"/><g data-paper-data="{&quot;origPos&quot;:null,&quot;origRot&quot;:0}" stroke-width="0.5"><path d="M269.03989,216.0937c-0.33288,-0.1473 -0.47124,-0.5638 -0.30906,-0.93031c0.16218,-0.36649 0.5635,-0.54417 0.89637,-0.39687c0.33288,0.1473 0.47124,0.5638 0.30906,0.93031c-0.16218,0.36649 -0.56349,0.54417 -0.89636,0.39687z" data-paper-data="{&quot;origPos&quot;:null}" fill="#d1b29b"/><path d="M274.00847,222.27694c-0.28697,-0.12699 -0.40624,-0.48605 -0.26643,-0.80199c0.13981,-0.31594 0.48576,-0.46912 0.77274,-0.34214c0.28697,0.12699 0.40624,0.48605 0.26643,0.80199c-0.13981,0.31594 -0.48577,0.46912 -0.77274,0.34214z" data-paper-data="{&quot;origPos&quot;:null}" fill="#d1b29b"/><path d="M268.45804,222.78093c-0.33287,-0.1473 -0.47124,-0.56381 -0.30906,-0.9303c0.16218,-0.36649 0.5635,-0.54418 0.89637,-0.39688c0.33287,0.1473 0.47124,0.56381 0.30906,0.93032c-0.16218,0.36649 -0.56349,0.54417 -0.89636,0.39687z" data-paper-data="{&quot;origPos&quot;:null}" fill="#d1b29b"/><path d="M276.74109,210.36339c-0.198,-0.08762 -0.28031,-0.33537 -0.18384,-0.55337c0.09647,-0.21798 0.33519,-0.32371 0.53319,-0.23609c0.198,0.08762 0.28031,0.33539 0.18384,0.55338c-0.09647,0.21798 -0.33519,0.32368 -0.53319,0.23606z" data-paper-data="{&quot;origPos&quot;:null}" fill="#d1b29b"/><path d="M270.10262,217.41745c-0.198,-0.08762 -0.28031,-0.33538 -0.18384,-0.55337c0.09647,-0.21798 0.33519,-0.32371 0.53319,-0.23609c0.198,0.08762 0.2803,0.33538 0.18383,0.55339c-0.09647,0.21798 -0.33519,0.32369 -0.53319,0.23607z" data-paper-data="{&quot;origPos&quot;:null}" fill="#d1b29b"/><path d="M267.47404,217.12877c-0.198,-0.08762 -0.2803,-0.33539 -0.18383,-0.55337c0.09647,-0.21798 0.33519,-0.3237 0.53319,-0.23609c0.198,0.08762 0.2803,0.3354 0.18383,0.55338c-0.09647,0.21798 -0.33519,0.32369 -0.53319,0.23607z" data-paper-data="{&quot;origPos&quot;:null}" fill="#d1b29b"/><path d="M274.22521,215.34264c-0.198,-0.08762 -0.28031,-0.33537 -0.18384,-0.55337c0.09647,-0.21798 0.33519,-0.32371 0.53319,-0.23609c0.198,0.08762 0.28031,0.3354 0.18384,0.55339c-0.09647,0.21798 -0.33519,0.32368 -0.53319,0.23606z" data-paper-data="{&quot;origPos&quot;:null}" fill="#d1b29b"/><path d="M272.34301,217.47788c-0.198,-0.08762 -0.28031,-0.33537 -0.18384,-0.55336c0.09647,-0.21798 0.33519,-0.32371 0.53319,-0.23609c0.198,0.08762 0.28031,0.33539 0.18384,0.55339c-0.09647,0.21798 -0.33519,0.32368 -0.53319,0.23606z" data-paper-data="{&quot;origPos&quot;:null}" fill="#d1b29b"/><path d="M267.72716,218.92367c-0.24692,-0.10927 -0.34956,-0.41823 -0.22926,-0.69008c0.1203,-0.27186 0.41799,-0.40366 0.66492,-0.29439c0.24692,0.10927 0.34956,0.41822 0.22926,0.69008c-0.1203,0.27186 -0.41798,0.40364 -0.6649,0.29438z" data-paper-data="{&quot;origPos&quot;:null}" fill="#bda18b"/><path d="M270.0779,221.04159c-0.37312,-0.16512 -0.52823,-0.632 -0.34644,-1.04281c0.18179,-0.41081 0.63165,-0.60998 1.00477,-0.44487c0.37312,0.16512 0.52822,0.63201 0.34643,1.04282c-0.18179,0.41081 -0.63164,0.60998 -1.00476,0.44486z" data-paper-data="{&quot;origPos&quot;:null}" fill="#bda18b"/><path d="M273.31588,212.98548c-0.35589,-0.15748 -0.50381,-0.60279 -0.33042,-0.9946c0.17339,-0.39182 0.60244,-0.58181 0.95832,-0.42432c0.35589,0.15748 0.50381,0.6028 0.33042,0.99462c-0.17339,0.39182 -0.60244,0.58178 -0.95832,0.4243z" data-paper-data="{&quot;origPos&quot;:null}" fill="#bda18b"/><path d="M266.76315,222.05595c-0.17203,0.00114 -0.30238,-0.14702 -0.29118,-0.33089c0.01121,-0.18389 0.15973,-0.33387 0.33175,-0.335c0.17203,-0.00114 0.30238,0.14702 0.29118,0.33091c-0.01121,0.18389 -0.15973,0.33385 -0.33175,0.33499z" data-paper-data="{&quot;origPos&quot;:null,&quot;origRot&quot;:0}" fill="#d1b29b"/><path d="M274.98492,206.54965c-0.17203,0.00114 -0.30238,-0.14703 -0.29118,-0.33089c0.01121,-0.18389 0.15973,-0.33387 0.33175,-0.335c0.17203,-0.00114 0.30237,0.14702 0.29117,0.33089c-0.01121,0.18389 -0.15973,0.33386 -0.33175,0.335z" data-paper-data="{&quot;origPos&quot;:null,&quot;origRot&quot;:0}" fill="#d1b29b"/><path d="M273.60431,205.28087c-0.17203,0.00114 -0.30238,-0.14703 -0.29117,-0.33089c0.01121,-0.18389 0.15973,-0.33387 0.33176,-0.335c0.17203,-0.00114 0.30237,0.14702 0.29116,0.3309c-0.01121,0.18389 -0.15973,0.33385 -0.33175,0.33499z" data-paper-data="{&quot;origPos&quot;:null,&quot;origRot&quot;:0}" fill="#d1b29b"/><path d="M271.93185,209.84383c-0.17203,0.00114 -0.30237,-0.14702 -0.29118,-0.33089c0.01121,-0.18389 0.15973,-0.33387 0.33176,-0.335c0.17203,-0.00114 0.30237,0.14702 0.29116,0.3309c-0.01121,0.18389 -0.15974,0.33387 -0.33175,0.33499z" data-paper-data="{&quot;origPos&quot;:null,&quot;origRot&quot;:0}" fill="#d1b29b"/><path d="M276.54771,204.38785c-0.30993,-0.13716 -0.43874,-0.52492 -0.28773,-0.86615c0.151,-0.34122 0.52464,-0.50666 0.83455,-0.36952c0.30993,0.13716 0.43874,0.52492 0.28774,0.86615c-0.151,0.34122 -0.52463,0.50666 -0.83455,0.36952z" data-paper-data="{&quot;origPos&quot;:null}" fill="#d1b29b"/><path d="M268.17089,220.42332c-0.26416,-0.1169 -0.37397,-0.44743 -0.24527,-0.73828c0.12871,-0.29084 0.44718,-0.43186 0.71135,-0.31496c0.26416,0.1169 0.37396,0.44743 0.24526,0.73827c-0.12871,0.29084 -0.44717,0.43185 -0.71133,0.31495z" data-paper-data="{&quot;origPos&quot;:null}" fill="#bda18b"/></g></g><g data-paper-data="{&quot;origPos&quot;:null,&quot;origRot&quot;:0,&quot;index&quot;:null}" stroke="none" stroke-linecap="butt" stroke-linejoin="miter"><path d="M284.76623,165.88431c-2.18509,2.94485 -10.4393,-6.61186 -14.88254,-12.82529c-4.44324,-6.21341 -5.6532,-10.94226 -1.89869,-15.92273c3.67573,-4.87598 10.04622,-0.64043 13.25741,7.03589c3.36516,8.04436 7.50421,16.34771 3.52384,21.71213z" data-paper-data="{&quot;origPos&quot;:null,&quot;origRot&quot;:0,&quot;index&quot;:null}" fill="#f6dbc4" stroke-width="0"/><g data-paper-data="{&quot;origPos&quot;:null,&quot;origRot&quot;:0}" stroke-width="0.5"><path d="M269.5689,138.29029c-0.32707,0.15976 -0.73481,-0.00265 -0.91071,-0.36276c-0.17589,-0.36012 -0.05335,-0.78154 0.27373,-0.9413c0.32707,-0.15976 0.73481,0.00265 0.9107,0.36275c0.17589,0.36012 0.05335,0.78155 -0.27372,0.94131z" data-paper-data="{&quot;origPos&quot;:null}" fill="#d1b29b"/><path d="M279.7794,159.63647c-0.32707,0.15976 -0.73481,-0.00264 -0.91071,-0.36276c-0.17589,-0.36012 -0.05334,-0.78154 0.27373,-0.9413c0.32707,-0.15976 0.73482,0.00264 0.91071,0.36276c0.17589,0.36012 0.05334,0.78154 -0.27373,0.9413z" data-paper-data="{&quot;origPos&quot;:null}" fill="#d1b29b"/><path d="M276.16109,155.29448c-0.28197,0.13773 -0.63346,-0.0023 -0.7851,-0.31273c-0.15164,-0.31045 -0.046,-0.67374 0.23597,-0.81146c0.28197,-0.13773 0.63347,0.0023 0.7851,0.31273c0.15164,0.31045 0.04598,0.67374 -0.23597,0.81147z" data-paper-data="{&quot;origPos&quot;:null}" fill="#d1b29b"/><path d="M276.83387,159.40769c-0.32706,0.15975 -0.73482,-0.00266 -0.91071,-0.36276c-0.17589,-0.36012 -0.05334,-0.78155 0.27372,-0.94131c0.32706,-0.15975 0.73483,0.00265 0.91072,0.36276c0.17589,0.36012 0.05333,0.78155 -0.27373,0.94131z" data-paper-data="{&quot;origPos&quot;:null}" fill="#d1b29b"/><path d="M272.66974,145.07367c-0.19455,0.09503 -0.43708,-0.00159 -0.54171,-0.21578c-0.10463,-0.21419 -0.03175,-0.4649 0.1628,-0.55993c0.19455,-0.09503 0.4371,0.0016 0.54173,0.2158c0.10463,0.21419 0.03172,0.46488 -0.16282,0.55991z" data-paper-data="{&quot;origPos&quot;:null}" fill="#d1b29b"/><path d="M270.98762,151.58444c-0.19455,0.09503 -0.43709,-0.00158 -0.54171,-0.21577c-0.10463,-0.21419 -0.03174,-0.4649 0.16282,-0.55993c0.19455,-0.09503 0.43709,0.00158 0.54172,0.21579c0.10463,0.21419 0.03172,0.46489 -0.16282,0.55991z" data-paper-data="{&quot;origPos&quot;:null}" fill="#d1b29b"/><path d="M274.43124,148.02899c-0.19455,0.09503 -0.43709,-0.00158 -0.54171,-0.21578c-0.10463,-0.21419 -0.03173,-0.46488 0.16282,-0.55991c0.19455,-0.09503 0.43709,0.00158 0.54172,0.21577c0.10463,0.21419 0.03172,0.46489 -0.16282,0.55991z" data-paper-data="{&quot;origPos&quot;:null}" fill="#d1b29b"/><path d="M274.85829,150.20521c-0.19455,0.09503 -0.43708,-0.00159 -0.54171,-0.21579c-0.10463,-0.21419 -0.03174,-0.46489 0.16281,-0.55992c0.19455,-0.09503 0.43709,0.00159 0.54172,0.21579c0.10463,0.21419 0.03172,0.46488 -0.16282,0.55991z" data-paper-data="{&quot;origPos&quot;:null}" fill="#d1b29b"/><path d="M275.27938,153.02029c-0.19455,0.09503 -0.43708,-0.00158 -0.54171,-0.21577c-0.10463,-0.21419 -0.03174,-0.46489 0.16281,-0.55992c0.19455,-0.09503 0.43709,0.00158 0.54172,0.21578c0.10463,0.21419 0.03172,0.46488 -0.16283,0.55991z" data-paper-data="{&quot;origPos&quot;:null}" fill="#d1b29b"/><path d="M278.98848,156.46616c-0.24262,0.1185 -0.54507,-0.00196 -0.67554,-0.26908c-0.13049,-0.26712 -0.03957,-0.57974 0.20306,-0.69824c0.24262,-0.1185 0.54506,0.00196 0.67554,0.26909c0.13049,0.26712 0.03957,0.57973 -0.20305,0.69824z" data-paper-data="{&quot;origPos&quot;:null}" fill="#bda18b"/><path d="M276.5421,150.99642c-0.36663,0.17908 -0.82368,-0.00297 -1.02085,-0.40663c-0.19716,-0.40366 -0.0598,-0.87606 0.30683,-1.05514c0.36663,-0.17908 0.82368,0.00298 1.02085,0.40663c0.19716,0.40366 0.0598,0.87605 -0.30683,1.05513z" data-paper-data="{&quot;origPos&quot;:null}" fill="#bda18b"/><path d="M269.73928,144.36558c-0.34968,0.17081 -0.7856,-0.00284 -0.97364,-0.38784c-0.18805,-0.385 -0.05704,-0.83557 0.29264,-1.00637c0.34968,-0.17081 0.78561,0.00283 0.97366,0.38784c0.18805,0.385 0.05703,0.83556 -0.29265,1.00636z" data-paper-data="{&quot;origPos&quot;:null}" fill="#bda18b"/><path d="M276.9687,152.72789c-0.10992,0.13232 -0.30722,0.13662 -0.44065,0.00962c-0.13344,-0.12701 -0.15252,-0.33723 -0.04259,-0.46955c0.10992,-0.13232 0.30722,-0.13662 0.44066,-0.00961c0.13344,0.12701 0.15251,0.33722 0.04258,0.46954z" data-paper-data="{&quot;origPos&quot;:null,&quot;origRot&quot;:0}" fill="#d1b29b"/><path d="M267.72269,143.88914c-0.10992,0.13232 -0.30722,0.13662 -0.44065,0.00962c-0.13344,-0.12701 -0.15251,-0.33723 -0.04259,-0.46954c0.10992,-0.13232 0.30721,-0.13662 0.44065,-0.0096c0.13344,0.12701 0.1525,0.33722 0.04259,0.46954z" data-paper-data="{&quot;origPos&quot;:null,&quot;origRot&quot;:0}" fill="#d1b29b"/><path d="M267.97409,141.37294c-0.30452,0.14874 -0.68413,-0.00247 -0.8479,-0.33775c-0.16377,-0.33528 -0.04966,-0.72765 0.25485,-0.8764c0.30452,-0.14874 0.68412,0.00247 0.84789,0.33775c0.16377,0.33528 0.04968,0.72765 -0.25484,0.8764z" data-paper-data="{&quot;origPos&quot;:null}" fill="#d1b29b"/><path d="M268.07655,146.09891c-0.25376,0.12395 -0.57011,-0.00205 -0.70659,-0.28145c-0.13647,-0.2794 -0.04138,-0.60638 0.21238,-0.73032c0.25376,-0.12395 0.57011,0.00206 0.70659,0.28146c0.13647,0.2794 0.04139,0.60637 -0.21238,0.73033z" data-paper-data="{&quot;origPos&quot;:null}" fill="#d1b29b"/><path d="M273.06235,149.0634c-0.25957,0.12678 -0.58313,-0.00209 -0.72272,-0.28787c-0.13959,-0.28578 -0.04233,-0.62024 0.21722,-0.74702c0.25957,-0.12678 0.58312,0.00212 0.72271,0.2879c0.13959,0.28578 0.04235,0.62022 -0.21722,0.74699z" data-paper-data="{&quot;origPos&quot;:null}" fill="#bda18b"/></g></g><path d="M290.25424,182.80408c-0.08511,16.92892 -7.75421,29.76877 -7.75421,29.76877c0,0 0.03404,-6.01766 -2.13101,-8.16248c-3.17974,-3.15001 -5.26436,-3.25483 -5.26436,-3.25483c0,0 4.11964,-13.5161 4.10021,-20.57762c-0.01495,-5.43228 -3.35497,-16.03622 -3.35497,-16.03622c0,0 0.74704,-0.07263 4.8308,-4.48076c1.60293,-1.53399 4.02396,-6.01398 4.02396,-6.01398c0,0 5.66892,9.16179 5.54958,28.75712z" data-paper-data="{&quot;origPos&quot;:null,&quot;origRot&quot;:0,&quot;index&quot;:null}" fill="#9383d1" stroke="none" stroke-width="0" stroke-linecap="butt" stroke-linejoin="miter"/><g stroke="none" stroke-linejoin="miter"><path d="M231.16021,222.5996c-36.27604,-0.10092 -55.2917,-32.80669 -45.24064,-47.61421c-6.75281,-16.74192 25.12325,-33.60744 47.90129,-33.53371c26.27592,0.06887 20.61826,7.73355 32.66559,13.86841c6.81779,3.47182 13.15825,2.26139 13.40712,16.09395c-1.20275,-1.8812 -5.11031,-3.23391 -5.11031,-3.23391c0,0 5.82388,4.39342 5.03795,8.84383c-3.80092,-12.81181 -45.06702,-24.4887 -45.14076,6.88788c-0.05833,24.82436 43.53397,23.37832 44.39525,8.22751c0.49383,2.18317 -3.23091,7.58426 -3.23091,7.58426c0,0 1.96103,-1.04548 3.03081,-3.23886c-0.38963,5.14267 -5.35825,8.48945 -5.35825,8.48945c0,0 3.34193,-1.75974 4.97168,-4.95508c-1.54796,11.69295 -8.36241,10.08777 -17.35368,12.95741c-8.99127,2.86964 -7.39251,9.6859 -29.97514,9.62307z" data-paper-data="{&quot;origPos&quot;:null,&quot;index&quot;:null}" fill="#ab7b70" stroke-width="0" stroke-linecap="butt"/><path d="M266.91692,200.40943c-4.61809,6.16656 -11.8619,6.74145 -19.27128,8.28178c-5.91594,3.11496 -12.95878,7.79735 -15.34637,5.83117c-2.59073,-2.13346 8.38223,-5.69909 -1.09935,-3.4086c-9.48158,2.29049 -42.88986,6.74284 -42.6692,-29.81948c0.70725,-37.31221 32.86712,-33.01257 40.12367,-30.89204c16.09818,3.35733 3.20838,1.63437 6.3106,-2.7093c2.64275,-0.98577 8.73833,2.27915 13.4864,6.49728c6.36839,1.04597 14.60216,3.38768 18.54707,8.64487c4.14738,5.52702 2.47197,13.08932 4.40471,14.57103c2.06158,1.58048 3.94022,4.75356 0.83195,6.70628c-2.41254,1.51564 -1.08624,10.64605 -5.3182,16.29701z" data-paper-data="{&quot;origPos&quot;:null,&quot;index&quot;:null}" fill="#f6dbc4" stroke-width="0" stroke-linecap="butt"/><g data-paper-data="{&quot;origPos&quot;:null,&quot;index&quot;:null}" stroke-width="0.5" stroke-linecap="butt"><path d="M266.7362,172.03383c-0.36401,0 -0.65909,-0.32489 -0.65909,-0.72567c0,-0.40078 0.29508,-0.72566 0.65909,-0.72566c0.36401,0 0.65909,0.32488 0.65909,0.72566c0,0.40078 -0.29508,0.72567 -0.65909,0.72567z" data-paper-data="{&quot;origPos&quot;:null}" fill="#d1b29b"/><path d="M265.87635,167.47573c-0.30334,0 -0.54924,-0.27074 -0.54924,-0.60473c0,-0.33398 0.2459,-0.60471 0.54924,-0.60471c0.30334,0 0.54924,0.27073 0.54924,0.60471c0,0.33398 -0.2459,0.60473 -0.54924,0.60473z" data-paper-data="{&quot;origPos&quot;:null}" fill="#d1b29b"/><path d="M265.39533,197.64915c-0.31381,0 -0.56818,-0.28008 -0.56818,-0.62557c0,-0.3455 0.25437,-0.62557 0.56818,-0.62557c0.31381,0 0.56818,0.28008 0.56818,0.62557c0,0.3455 -0.25438,0.62557 -0.56818,0.62557z" data-paper-data="{&quot;origPos&quot;:null}" fill="#d1b29b"/><path d="M264.0279,201.64031c-0.364,0 -0.65909,-0.32489 -0.65909,-0.72566c0,-0.40078 0.29509,-0.72567 0.65909,-0.72567c0.364,0 0.65909,0.32489 0.65909,0.72567c0,0.40078 -0.29509,0.72566 -0.65909,0.72566z" data-paper-data="{&quot;origPos&quot;:null}" fill="#d1b29b"/><path d="M266.74408,186.93302c-0.21652,0 -0.39204,-0.19326 -0.39204,-0.43164c0,-0.23838 0.17552,-0.43166 0.39204,-0.43166c0.21652,0 0.39205,0.19327 0.39205,0.43166c0,0.23838 -0.17553,0.43164 -0.39205,0.43164z" data-paper-data="{&quot;origPos&quot;:null}" fill="#d1b29b"/><path d="M267.02979,190.36159c-0.21652,0 -0.39204,-0.19326 -0.39204,-0.43164c0,-0.23838 0.17552,-0.43165 0.39204,-0.43165c0.21652,0 0.39205,0.19327 0.39205,0.43165c0,0.23838 -0.17553,0.43164 -0.39205,0.43164z" data-paper-data="{&quot;origPos&quot;:null}" fill="#d1b29b"/><path d="M266.2917,192.50445c-0.21652,0 -0.39204,-0.19326 -0.39204,-0.43164c0,-0.23838 0.17552,-0.43166 0.39204,-0.43166c0.21652,0 0.39205,0.19327 0.39205,0.43166c0,0.23838 -0.17553,0.43164 -0.39205,0.43164z" data-paper-data="{&quot;origPos&quot;:null}" fill="#d1b29b"/><path d="M265.60123,195.21873c-0.21652,0 -0.39204,-0.19326 -0.39204,-0.43164c0,-0.23838 0.17552,-0.43166 0.39204,-0.43166c0.21652,0 0.39205,0.19327 0.39205,0.43166c0,0.23838 -0.17553,0.43164 -0.39205,0.43164z" data-paper-data="{&quot;origPos&quot;:null}" fill="#d1b29b"/><path d="M262.77409,177.12894c-0.3389,0 -0.61363,-0.30248 -0.61363,-0.67561c0,-0.37313 0.27473,-0.67562 0.61363,-0.67562c0.3389,0 0.61364,0.30249 0.61364,0.67562c0,0.37313 -0.27474,0.67561 -0.61364,0.67561z" data-paper-data="{&quot;origPos&quot;:null}" fill="#d1b29b"/><path d="M267.29073,194.12109c-0.40803,0 -0.7388,-0.36418 -0.7388,-0.81341c0,-0.44924 0.33077,-0.81342 0.7388,-0.81342c0.40803,0 0.73879,0.36419 0.73879,0.81342c0,0.44924 -0.33076,0.81341 -0.73879,0.81341z" data-paper-data="{&quot;origPos&quot;:null}" fill="#bda18b"/><path d="M266.50113,169.1904c-0.19674,0 -0.35623,-0.17559 -0.35623,-0.39221c0,-0.21662 0.15949,-0.39222 0.35623,-0.39222c0.19674,0 0.35623,0.1756 0.35623,0.39222c0,0.21662 -0.15949,0.39221 -0.35623,0.39221z" data-paper-data="{&quot;origPos&quot;:null}" fill="#bda18b"/><path d="M266.73922,166.04755c-0.19674,0 -0.35623,-0.17559 -0.35623,-0.39221c0,-0.21662 0.15949,-0.39222 0.35623,-0.39222c0.19674,0 0.35623,0.1756 0.35623,0.39222c0,0.21662 -0.15949,0.39221 -0.35623,0.39221z" data-paper-data="{&quot;origPos&quot;:null}" fill="#bda18b"/><path d="M267.14398,167.61894c-0.19674,0 -0.35623,-0.1756 -0.35623,-0.39222c0,-0.21662 0.15949,-0.39222 0.35623,-0.39222c0.19674,0 0.35623,0.1756 0.35623,0.39222c0,0.21662 -0.15949,0.39222 -0.35623,0.39222z" data-paper-data="{&quot;origPos&quot;:null}" fill="#bda18b"/><path d="M264.42174,185.01061c-0.38917,0 -0.70464,-0.34735 -0.70464,-0.77582c0,-0.42847 0.31547,-0.77583 0.70464,-0.77583c0.38917,0 0.70465,0.34735 0.70465,0.77583c0,0.42847 -0.31548,0.77582 -0.70465,0.77582z" data-paper-data="{&quot;origPos&quot;:null}" fill="#bda18b"/><path d="M263.63378,162.62538c-0.38293,0 -0.69334,-0.34177 -0.69334,-0.76337c0,-0.4216 0.31042,-0.76337 0.69334,-0.76337c0.38293,0 0.69333,0.34177 0.69333,0.76337c0,0.4216 -0.31041,0.76337 -0.69333,0.76337z" data-paper-data="{&quot;origPos&quot;:null}" fill="#bda18b"/><path d="M259.02033,183.33601c-0.31381,0 -0.56818,-0.28007 -0.56818,-0.62557c0,-0.3455 0.25438,-0.62557 0.56818,-0.62557c0.31381,0 0.56818,0.28008 0.56818,0.62557c0,0.3455 -0.25438,0.62557 -0.56818,0.62557z" data-paper-data="{&quot;origPos&quot;:null}" fill="#d1b29b"/><path d="M260.39031,179.98317c-0.15685,0.07065 -0.33601,-0.01208 -0.40017,-0.18476c-0.06417,-0.17269 0.01096,-0.36995 0.16781,-0.4406c0.15685,-0.07065 0.33601,0.01208 0.40018,0.18477c0.06417,0.17269 -0.01097,0.36995 -0.16782,0.44059z" data-paper-data="{&quot;origPos&quot;:null,&quot;origRot&quot;:0}" fill="#d1b29b"/><path d="M260.39031,175.98317c-0.15685,0.07065 -0.33601,-0.01208 -0.40017,-0.18476c-0.06417,-0.17269 0.01096,-0.36995 0.16781,-0.4406c0.15685,-0.07065 0.33601,0.01208 0.40018,0.18477c0.06417,0.17269 -0.01097,0.36995 -0.16782,0.44059z" data-paper-data="{&quot;origPos&quot;:null,&quot;origRot&quot;:0}" fill="#d1b29b"/><path d="M265.24741,178.5546c-0.15685,0.07065 -0.33601,-0.01208 -0.40017,-0.18476c-0.06417,-0.17269 0.01096,-0.36995 0.16781,-0.4406c0.15685,-0.07065 0.33601,0.01208 0.40018,0.18477c0.06417,0.17269 -0.01097,0.36994 -0.16782,0.44059z" data-paper-data="{&quot;origPos&quot;:null,&quot;origRot&quot;:0}" fill="#d1b29b"/><path d="M265.67602,169.41174c-0.15685,0.07065 -0.336,-0.01208 -0.40017,-0.18476c-0.06417,-0.17269 0.01096,-0.36995 0.16781,-0.4406c0.15685,-0.07065 0.33601,0.01208 0.40017,0.18477c0.06417,0.17269 -0.01097,0.36995 -0.16781,0.44059z" data-paper-data="{&quot;origPos&quot;:null,&quot;origRot&quot;:0}" fill="#bda18b"/><path d="M267.24741,195.69745c-0.15685,0.07065 -0.33601,-0.01208 -0.40017,-0.18476c-0.06417,-0.17269 0.01096,-0.36995 0.16781,-0.4406c0.15685,-0.07065 0.33601,0.01208 0.40018,0.18477c0.06417,0.17269 -0.01097,0.36994 -0.16782,0.44059z" data-paper-data="{&quot;origPos&quot;:null,&quot;origRot&quot;:0}" fill="#d1b29b"/><path d="M260.81885,182.26888c-0.15685,0.07065 -0.33601,-0.01208 -0.40017,-0.18476c-0.06417,-0.17269 0.01096,-0.36995 0.16781,-0.4406c0.15685,-0.07065 0.33601,0.01208 0.40017,0.18477c0.06417,0.17269 -0.01097,0.36995 -0.16781,0.44059z" data-paper-data="{&quot;origPos&quot;:null,&quot;origRot&quot;:0}" fill="#d1b29b"/><path d="M262.81885,183.69745c-0.15685,0.07065 -0.33601,-0.01208 -0.40017,-0.18476c-0.06417,-0.17269 0.01096,-0.36995 0.16781,-0.4406c0.15685,-0.07065 0.33601,0.01208 0.40017,0.18477c0.06417,0.17269 -0.01097,0.36994 -0.16781,0.44059z" data-paper-data="{&quot;origPos&quot;:null,&quot;origRot&quot;:0}" fill="#d1b29b"/><path d="M261.81885,183.5546c-0.15685,0.07065 -0.33601,-0.01208 -0.40017,-0.18476c-0.06417,-0.17269 0.01096,-0.36995 0.16781,-0.4406c0.15685,-0.07065 0.33601,0.01208 0.40017,0.18477c0.06417,0.17269 -0.01097,0.36994 -0.16781,0.44059z" data-paper-data="{&quot;origPos&quot;:null,&quot;origRot&quot;:0}" fill="#d1b29b"/><path d="M265.24741,164.69744c-0.15685,0.07065 -0.33601,-0.01207 -0.40017,-0.18476c-0.06417,-0.17269 0.01096,-0.36995 0.16781,-0.4406c0.15685,-0.07065 0.33601,0.01208 0.40018,0.18477c0.06417,0.17269 -0.01097,0.36994 -0.16782,0.44059z" data-paper-data="{&quot;origPos&quot;:null,&quot;origRot&quot;:0}" fill="#d1b29b"/><path d="M267.67602,191.84031c-0.15685,0.07065 -0.336,-0.01208 -0.40017,-0.18476c-0.06417,-0.17269 0.01096,-0.36995 0.16781,-0.4406c0.15685,-0.07065 0.33601,0.01208 0.40017,0.18477c0.06417,0.17269 -0.01097,0.36995 -0.16781,0.44059z" data-paper-data="{&quot;origPos&quot;:null,&quot;origRot&quot;:0}" fill="#d1b29b"/><path d="M264.14909,181.54687c-0.33891,0 -0.61363,-0.30248 -0.61363,-0.67562c0,-0.37314 0.27473,-0.67562 0.61363,-0.67562c0.33891,0 0.61364,0.30248 0.61364,0.67562c0,0.37314 -0.27473,0.67562 -0.61364,0.67562z" data-paper-data="{&quot;origPos&quot;:null}" fill="#d1b29b"/><path d="M262.16697,185.8383c-0.28242,0 -0.51136,-0.25206 -0.51136,-0.56301c0,-0.31095 0.22895,-0.56302 0.51136,-0.56302c0.28242,0 0.51136,0.25207 0.51136,0.56302c0,0.31095 -0.22894,0.56301 -0.51136,0.56301z" data-paper-data="{&quot;origPos&quot;:null}" fill="#d1b29b"/><path d="M261.81957,179.82365c-0.30334,0 -0.54924,-0.27073 -0.54924,-0.60471c0,-0.33399 0.2459,-0.60471 0.54924,-0.60471c0.30334,0 0.54924,0.27073 0.54924,0.60471c0,0.33399 -0.2459,0.60471 -0.54924,0.60471z" data-paper-data="{&quot;origPos&quot;:null}" fill="#d1b29b"/><path d="M262.02391,181.70998c-0.35157,0 -0.63658,-0.31378 -0.63658,-0.70087c0,-0.38709 0.285,-0.70087 0.63658,-0.70087c0.35157,0 0.63656,0.31378 0.63656,0.70087c0,0.38709 -0.28499,0.70087 -0.63656,0.70087z" data-paper-data="{&quot;origPos&quot;:null}" fill="#bda18b"/><path d="M265.34578,190.69027c-0.28887,0 -0.52304,-0.25782 -0.52304,-0.57587c0,-0.31805 0.23417,-0.57588 0.52304,-0.57588c0.28887,0 0.52303,0.25783 0.52303,0.57588c0,0.31805 -0.23416,0.57587 -0.52303,0.57587z" data-paper-data="{&quot;origPos&quot;:null}" fill="#bda18b"/></g><path d="M222.89887,178.65918c9.1185,2.45239 29.26194,3.42142 33.82035,-4.44911c1.06787,8.90349 0.82355,15.41246 -0.20816,19.89255c-5.22311,8.71883 -23.08438,5.47951 -23.08438,5.47951c0,0 16.79516,4.28526 21.72522,-0.07987c-1.76908,6.27507 -6.6687,16.42226 -16.82502,17.84735c-39.7593,2.02195 -57.45837,-16.80669 -51.90731,-40.19754c-1.16948,-27.24192 27.54023,-33.98783 51.56796,-31.20037c7.39611,0.85802 12.84439,2.37045 14.91678,9.52194c2.15637,12.90331 -25.00645,16.76587 -25.00645,16.76587c0,0 11.63224,-0.53878 19.22014,-3.77266c4.38541,-1.86901 7.56789,-3.36388 7.44251,-8.1293c0.89483,4.21446 2.59683,7.28591 1.08838,11.32162c-3.74877,10.02944 -32.75002,7.00001 -32.75002,7.00001z" data-paper-data="{&quot;origPos&quot;:null,&quot;index&quot;:null}" fill="#ab7b70" stroke-width="0" stroke-linecap="butt"/><g data-paper-data="{&quot;origPos&quot;:null,&quot;index&quot;:null}" fill="#ab7b70"><g data-paper-data="{&quot;origPos&quot;:null}"><path d="M263.58344,169.28906c0.09821,4.29964 -2.56078,4.84516 -2.56078,4.84516c0,0 -0.05583,-1.61808 -0.14652,-4.77188c-0.3203,-3.69461 -3.93125,-7.17294 -3.93125,-7.17294c0,0 6.54034,2.80002 6.63855,7.09966z" data-paper-data="{&quot;origPos&quot;:null,&quot;index&quot;:null}" stroke-width="0" stroke-linecap="round"/><path d="M260.39225,175.10318c0,0 -3.46007,0.13681 -4.29726,-2.00563c-0.43458,-5.03743 -0.68108,-6.46754 -1.93252,-10.82948c-0.47431,-1.65323 -1.09134,-4.22364 -1.09134,-4.22364c0,0 2.90083,2.22361 3.61457,4.42404c0.84939,2.61864 2.14074,8.67424 2.14074,8.67424z" data-paper-data="{&quot;origPos&quot;:null,&quot;index&quot;:null}" stroke-width="0.5" stroke-linecap="butt"/></g><g data-paper-data="{&quot;origPos&quot;:null}"><path d="M257.19489,200.46341c0,0 3.61095,-3.47833 3.93125,-7.17294c0.09069,-3.1538 0.14652,-4.77188 0.14652,-4.77188c0,0 2.65899,0.54552 2.56078,4.84516c-0.09821,4.29964 -6.63855,7.09966 -6.63855,7.09966z" data-paper-data="{&quot;origPos&quot;:null}" stroke-width="0" stroke-linecap="round"/><path d="M253.07112,204.35837c0,0 0.45036,-2.57041 0.92467,-4.22364c1.25144,-4.36193 1.66462,-5.79204 2.0992,-10.82948c0.83719,-2.14244 4.29726,-2.00563 4.29726,-2.00563l-1.56582,3.96046c0,0 -1.29135,6.0556 -2.14074,8.67424c-0.84939,2.61864 -3.61457,4.42405 -3.61457,4.42405z" data-paper-data="{&quot;origPos&quot;:null,&quot;index&quot;:null}" stroke-width="0.5" stroke-linecap="butt"/></g></g></g><path d="M236.32688,224.3496c-31.27155,-0.67049 -57.28196,-21.80628 -56.99064,-43.78087c0.36113,-30.39919 36.12325,-40.52411 58.90129,-40.45038c3.19954,0.01036 4.63854,1.84573 4.63854,1.84573c0,0 -13.31999,12.03775 -13.36228,38.28108c-0.53251,22.33539 13.3604,41.72361 13.3604,41.72361c0,0 -0.04868,2.52014 -6.54731,2.38081z" data-paper-data="{&quot;origPos&quot;:null,&quot;index&quot;:null}" fill="#a69bd1" stroke="none" stroke-width="0" stroke-linecap="butt" stroke-linejoin="miter"/><g fill="#9383d1" stroke="none" stroke-width="0" stroke-linecap="butt" stroke-linejoin="miter"><path d="M225.09928,194.78581c0,0 1.40434,8.49481 4.38826,14.64286c2.35765,4.85769 5.76127,8.12964 5.76127,8.12964c0,0 -12.80503,4.93937 -14.08724,1.08441c-2.11788,-6.36744 3.93771,-23.85691 3.93771,-23.85691z" data-paper-data="{&quot;origPos&quot;:null,&quot;origRot&quot;:0,&quot;index&quot;:null}"/><path d="M220.9712,144.56302c1.28221,-3.85496 14.08724,1.08441 14.08724,1.08441c0,0 -4.6675,4.26127 -6.64442,8.18947c-3.05033,6.06111 -3.50511,14.58303 -3.50511,14.58303c0,0 -6.05559,-17.48948 -3.93771,-23.85691z" data-paper-data="{&quot;origPos&quot;:null,&quot;index&quot;:null,&quot;origRot&quot;:0}"/></g></g></g></svg>