<svg xmlns="http://www.w3.org/2000/svg" xmlns:xlink="http://www.w3.org/1999/xlink" width="128.0235595703125" height="150.82290649414062" viewBox="13.935057640075684 12.612399101257324 128.0235595703125 150.82290649414062" version="1.1" xml:space="preserve">
  <defs/>
  <g>
    <title>octopus-e</title>
    <desc>Created with Sketch.</desc>
    <g id="ocean" stroke="none" fill-rule="evenodd">
      <g id="octopus-e" fill-rule="nonzero">
        <g id="head">
          <path d="M 72.802 71.8362 C 73.0619 67.9569 74.4264 64.2716 75.2061 60.4569 C 76.0508 55.9957 75.8558 51.5991 76.1157 47.1379 C 76.3756 41.6422 77.2853 38.2155 80.2091 30.2629 C 83.133 22.3103 87.8761 15.9095 97.4924 13.6466 C 102.4954 12.4828 109.4477 13.1293 113.4112 16.4914 C 122.1827 23.9914 123.9371 35.5647 119.3888 45.069 C 117.0497 49.9828 111.4619 56.1897 109.5777 61.2974 C 108.603 63.819 107.6284 70.4784 105.3543 72.2241 C 105.3543 72.2241 102.6904 76.4267 89.4355 76.4267 C 76.1807 76.4267 72.802 71.8362 72.802 71.8362 Z " id="Shape" stroke-width="1" fill="#DC6629"/>
        </g>
        <g id="face">
          <g id="Group">
            <path d="M 82.0284 46.2328 C 78.3249 47.2672 75.6609 39.444 80.7939 38.5388 C 84.3025 37.8922 85.2122 40.931 84.9523 42.806 C 84.6924 45.1983 82.0284 46.2328 82.0284 46.2328 Z " id="Shape" fill="#D25D24" stroke-width="1"/>
            <path d="M 82.0284 46.2328 C 78.7797 47.1379 76.1807 40.8017 80.664 39.8966 C 83.5878 39.3147 84.5624 42.1595 84.3675 43.7759 C 84.2376 45.3922 82.0284 46.2328 82.0284 46.2328 Z " id="Shape" fill="#F2B9A0" stroke-width="1"/>
            <path d="M 82.2883 42.806 C 81.5736 43 80.9239 41.9009 81.3787 41.319 C 80.0142 41.7716 80.9888 44.0991 82.1584 43.7759 C 82.1584 43.7759 82.9381 43.3233 83.003 42.6767 C 83.003 42.5474 83.003 42.3534 83.003 42.1595 C 82.8081 42.6121 82.2883 42.806 82.2883 42.806 Z " id="Shape" fill="#C95320" stroke-width="1"/>
          </g>
          <g id="Group">
            <path d="M 104.0548 39.056 C 108.9279 38.3448 110.9421 44.4871 106.0041 46.6853 C 101.1959 48.8836 99.1817 39.7672 104.0548 39.056 Z " id="Shape" fill="#D25D24" stroke-width="1"/>
            <path d="M 104.3147 40.1552 C 107.1736 39.5733 110.8772 44.4871 106.0041 46.6853 C 101.1959 48.8836 99.9614 41.0603 104.3147 40.1552 Z " id="Shape" fill="#F2B9A0" stroke-width="1"/>
            <path d="M 106.069 42.6121 C 106.0041 43.0647 105.4193 43.2586 105.4193 43.2586 C 104.7695 43.4526 104.2497 42.6121 104.3797 42.0302 C 103.2102 42.6121 104.1198 44.6164 105.2244 44.2931 C 105.2244 44.2931 106.069 43.9698 106.134 43.3879 C 106.134 43.1293 106.134 42.806 106.069 42.6121 Z " id="Shape" fill="#C95320" stroke-width="1"/>
          </g>
          <path d="M 88.5259 53.7328 C 89.7604 56.6422 94.9584 55.7371 96.3878 53.4741 C 96.7777 52.8922 95.868 52.375 95.4782 52.9569 C 94.4386 54.6379 90.3452 55.2845 89.4355 53.2155 C 89.1756 52.6336 88.266 53.1509 88.5259 53.7328 Z " id="Shape" fill="#C34A17" stroke-width="1"/>
        </g>
        <g id="tentacles_with_instruments">
          <path d="M 89.2406 100.1552 C 89.2406 98.3448 89.2406 96.5991 89.2406 94.7888 C 92.1645 94.5302 91.1249 92.7845 90.9949 91.6853 C 90.865 90.6509 91.3848 88.7112 89.1756 89.3578 C 89.1107 87.6121 89.0457 85.8017 88.9807 84.1207 C 88.9807 83.8621 88.9807 83.6034 88.9807 83.3448 C 91.4497 83.4741 90.6051 81.5991 90.5401 80.3707 C 90.5401 79.2069 91.3198 77.8491 89.3056 77.7198 C 89.4355 76.2328 89.4355 74.7457 89.3056 73.2586 C 87.5513 67.5043 82.8731 66.9871 80.1442 73 C 78.4548 76.8147 80.7289 84.3793 79.8843 89.4224 C 77.935 100.931 79.8193 109.3362 78.8447 120.9741 C 78.2599 127.9569 72.932 137.1379 72.2822 144.056 C 72.0873 146.4483 72.4772 148.5819 73.1919 150.8448 C 73.7117 152.5259 78 160.931 79.4294 160.8017 C 80.4041 160.6724 79.6893 156.5991 79.1695 153.3664 C 80.0142 153.1724 80.3391 153.2371 80.4041 152.3319 C 80.4041 151.4267 80.2741 149.9397 80.0792 149.4224 C 79.9492 148.9698 79.2345 149.0991 78.7147 149.2931 C 78.8447 147.6121 79.6244 145.3491 80.4041 143.1509 C 81.3787 143.1509 81.7685 142.9569 82.1584 141.3405 C 82.4832 140.1767 83.198 140.1767 82.5482 139.0776 C 82.4183 138.8836 82.2234 138.7543 82.0284 138.5603 C 82.0934 138.2371 82.2234 137.9784 82.2883 137.7198 C 83.003 135.0043 83.6528 132.9353 84.3025 131.2543 C 86.4467 131.8362 86.2518 130.4784 86.8365 129.1853 C 87.5513 127.6983 88.5259 126.9871 86.2518 126.0819 C 86.9015 124.2069 87.4863 122.2026 87.9411 119.0991 C 90.4751 119.3578 90.0853 117.0948 90.2152 115.931 C 90.3452 114.7672 91.0599 112.8276 88.5909 112.569 C 88.7208 110.694 88.8508 108.819 88.9807 106.8793 C 89.8254 106.75 90.865 106.4267 91.0599 105.9095 C 91.1898 105.5216 90.865 104.8103 90.8 103.4526 C 90.8 102.2241 90.9949 100.0259 89.2406 100.1552 Z " id="Shape" fill="#C44D16" stroke-width="1"/>
          <path d="M 85.2772 71.4483 C 84.8873 68.7328 82.0934 65.8233 80.9239 63.431 C 80.3391 65.4353 79.5594 67.2457 78.6497 68.9914 C 76.9604 68.1509 76.8954 69.7026 76.2457 70.6078 C 75.5959 71.5776 74.0365 72.6121 75.531 73.7112 C 73.7766 75.8448 71.7624 77.7845 69.4234 79.6595 C 68.3188 77.5905 67.2792 79.3362 66.4345 79.9181 C 65.6548 80.5 63.9005 80.9526 65.0701 82.8276 C 62.9259 84.25 60.6518 85.1552 58.3777 86.1897 C 57.598 84.3793 55.7137 85.8017 54.6091 86.4483 C 53.4396 87.1595 52.6599 87.2888 52.4 87.6121 C 52.1401 87.9353 52.2051 88.6466 52.465 89.3578 C 52.335 89.4871 52.1401 89.5517 52.0102 89.681 C 50.0609 91.1034 48.3066 92.8491 46.7472 94.8534 C 45.0579 93.819 44.2782 95.5 43.5635 96.4052 C 42.8487 97.375 40.9645 98.7974 43.1086 100.3491 L 43.8234 99.444 C 42.9137 101.319 42.199 103.3233 41.8091 105.2629 C 41.6142 106.3621 41.4843 107.3966 41.4193 108.431 C 39.665 108.431 40.1198 109.4655 40.1198 110.9526 C 40.0548 112.4397 39.2751 113.5388 41.6142 113.9267 C 41.9391 116.8362 42.6538 119.681 43.4985 122.5259 C 43.1086 122.6552 42.7838 122.8491 42.5888 123.1078 C 41.7442 124.1422 42.5239 124.2069 42.6538 125.4353 C 42.9137 127.5043 43.3685 127.4397 44.9929 127.569 C 45.1228 128.0862 45.3178 128.6681 45.4477 129.1853 C 46.2924 132.0948 47.0721 133.8405 47.7218 135.9095 C 47.267 135.8448 46.2274 135.9095 46.1624 136.4267 C 46.0975 137.0086 46.4223 138.4957 46.6822 139.3362 C 47.0071 140.3707 47.397 139.9828 48.5015 139.9828 C 48.5015 140.2414 48.5665 140.5 48.5665 140.8233 C 48.8914 145.8664 44.8629 150.5862 47.8518 149.2284 C 50.8406 147.9353 52.0102 145.8664 52.6599 142.8276 C 53.3746 139.5302 53.3746 136.1681 52.9848 133.4526 C 52.2701 128.0216 50.6457 123.819 50.1909 118.3879 C 49.5411 109.6595 51.3604 101.5776 58.0528 95.694 C 64.8102 89.7457 75.336 86.1897 81.6386 79.6595 C 83.5228 77.5259 85.667 74.0991 85.2772 71.4483 Z " id="Shape" fill="#DA6629" stroke-width="1"/>
          <path d="M 133.1635 134.4871 C 132.7086 133.3879 133.3584 132.9353 132.1239 132.4181 C 131.864 132.2888 131.5391 132.2888 131.2142 132.3534 C 130.6294 129.9612 129.6548 127.6336 128.4203 125.3707 C 130.4345 123.9483 129.2 123.3017 128.4853 122.0086 C 127.6406 120.5216 127.7056 119.2284 125.4964 120.7155 C 123.9371 118.5819 122.2477 116.5776 120.4934 114.8319 C 122.1827 112.9569 120.1036 111.9224 119.2589 111.1466 C 118.4142 110.3707 117.2447 108.7543 115.6853 110.4353 C 113.931 108.8836 112.0467 107.2672 110.3574 105.6509 C 110.8772 104.9397 111.5269 103.8405 111.202 103.3233 C 111.0071 102.9353 110.2274 102.6767 109.2528 101.7716 C 108.4081 100.9957 106.9137 99.3147 105.8091 100.6078 C 105.4843 100.2198 105.2244 99.7672 104.9645 99.3793 C 103.665 97.375 102.8853 95.1767 102.4305 92.8491 C 104.7695 92.7845 104.0548 91.0388 104.1198 90.0043 C 104.1198 88.9052 105.0944 86.8362 102.0406 87.5474 L 102.0406 87.6767 C 102.0406 86.4483 102.1056 85.2845 102.2355 84.056 C 102.3655 82.3103 102.8203 80.5 103.3401 78.819 C 105.6792 79.9181 105.5492 77.7845 105.9391 76.6207 C 106.3289 75.4569 107.6934 74.4224 105.4843 73.5819 C 105.8741 72.7414 106.264 71.9655 106.6538 71.1897 C 107.6284 69.3147 106.264 66.4052 105.0944 64.0129 C 103.9249 61.6207 101.7157 60.3276 100.2863 61.3621 C 97.6223 63.3017 95.0883 71.6422 94.3086 74.5517 C 91.7746 83.8621 91.2548 93.3017 96.5178 102.1595 C 102.4954 112.181 116.2701 118.2586 122.7025 127.6983 C 125.9513 132.4828 127.6406 135.9741 126.9259 141.5991 C 126.601 144.25 122.0528 151.1034 122.5726 152.9138 C 123.0924 154.7241 126.3411 150.1336 127.5756 148.8405 C 127.8355 148.5172 128.1604 148.194 128.4203 147.806 C 129.2 148.0647 129.4599 148.3879 129.9797 147.5474 C 130.4995 146.7716 131.1492 145.4784 131.2792 144.8966 C 131.3442 144.5086 130.8893 144.25 130.4345 144.1207 C 131.2792 142.0517 131.799 139.8534 131.864 137.6552 C 133.4233 136.6207 134.0081 136.556 133.1635 134.4871 Z " id="Shape" fill="#DA6629" stroke-width="1"/>
          <path d="M 120.1036 102.6121 C 113.4112 104.4224 110.3574 112.181 105.9391 107.7198 C 103.4051 105.069 105.9391 77.7845 105.9391 77.7845 C 103.0152 69.5733 92.7492 71.319 92.7492 71.319 C 89.3706 80.7586 90.8 94.9181 90.9949 105.9095 C 91.1249 113.4741 99.4416 122.9784 106.7188 120.3922 C 111.332 118.7759 112.8914 117.1595 114.1259 115.5431 C 114.2558 115.9957 114.5807 116.0603 115.1655 115.8017 C 115.8802 115.4784 116.7898 114.3147 116.2701 113.6034 C 116.1401 113.4741 116.0102 113.4095 115.8152 113.4095 C 116.9848 112.1164 118.7391 110.7586 122.3777 109.2716 C 122.8325 109.0776 123.2223 108.9483 123.6122 108.7543 C 123.6772 108.9483 123.8721 109.0776 124.2619 109.0776 C 124.9117 109.1422 126.0812 108.6897 125.9513 107.9138 C 125.9513 107.8491 125.9513 107.8491 125.8863 107.7845 C 130.1096 106.1681 128.0305 107.3966 130.5645 109.0776 C 135.8924 112.5043 135.3076 98.5388 120.1036 102.6121 Z " id="Shape" fill="#D15A22" stroke-width="1"/>
          <path d="M 100.4162 137.3319 C 99.9614 134.2284 99.3117 130.6078 97.1675 127.9569 C 94.8934 125.0474 92.0345 121.6207 89.3056 119.2284 C 86.5766 116.8362 82.7431 114.1853 81.6386 110.4353 C 80.2091 105.5862 82.0934 100.3491 83.8477 96.0172 C 85.0173 93.3017 88.9807 86.6422 91.7746 81.6638 C 94.3086 77.1379 99.5066 72.2888 97.3624 73.6466 L 90.6701 70.6078 C 89.6305 71.2543 88.8508 72.5474 86.5117 75.3276 C 84.5624 73.7759 84.3675 75.4569 83.5878 76.4267 C 82.8081 77.3319 80.9888 78.3017 82.7431 79.6595 C 81.1838 81.5345 79.8193 83.7974 78.6497 86.1897 C 77.1553 85.2845 76.8954 87.0302 76.4406 87.8707 C 75.9208 88.7759 74.3614 89.875 76.5056 91.2328 C 75.531 93.7543 74.8162 96.2112 74.2964 98.2155 C 71.6975 97.569 72.0873 100.1552 72.1523 101.5129 C 72.2173 102.8707 71.9574 103.5819 72.0873 104.0345 C 72.2173 104.4224 72.867 104.6164 73.5168 104.8103 C 73.6467 107.5905 74.2964 110.2414 75.336 112.8276 C 74.2315 113.8621 75.2711 115.1552 75.7259 116.0603 C 76.1807 117.0302 76.6355 119.0345 78.5198 118.4526 C 80.1442 120.6509 82.2234 122.3319 84.4325 123.9483 C 83.8477 124.9181 84.8223 125.306 85.797 126.2112 C 86.8365 127.1164 87.1614 128.4095 88.7858 127.2457 C 90.5401 128.6681 92.1645 130.2845 93.334 132.3534 C 93.2041 132.4181 93.0741 132.5474 93.0091 132.6767 C 92.2294 133.7112 93.0091 133.7759 93.2041 135.0043 C 93.5289 136.8793 93.9838 136.944 95.2832 136.944 C 95.998 139.9181 95.2832 142.4397 94.1137 146.6422 C 93.5939 148.3879 93.9188 151.8147 95.868 151.1034 C 95.868 151.1034 99.4416 149.4871 100.2863 144.7026 C 100.8711 141.1466 100.8711 140.694 100.4162 137.3319 Z " id="Shape" fill="#D15A22" stroke-width="1"/>
          <path d="M 92.6193 58 C 91.5797 59.9397 88.3959 62.0733 86.3817 63.0431 C 85.2772 60.6509 84.3675 62.1379 83.198 62.6552 C 82.0934 63.1724 80.0792 63.2371 81.0538 65.1121 C 78.9746 65.7586 76.8954 66.2112 74.7513 66.6638 C 74.4914 64.7888 72.932 65.8879 71.9574 66.0819 C 71.0477 66.2759 69.4234 66.0172 69.4234 67.7629 C 67.2142 68.2155 64.9401 68.6681 62.666 69.25 C 62.536 66.8578 60.197 67.8922 58.9624 68.2802 C 57.6629 68.6681 56.8832 68.6034 56.5584 68.8621 C 56.1036 69.1853 56.1685 70.2198 56.2985 71.0603 C 54.4142 71.7069 52.5949 72.4181 50.9056 73.194 C 50.3208 73.4526 49.801 73.7759 49.2162 74.0991 C 47.9817 72.4828 46.6173 73.8405 45.7076 74.4871 C 44.733 75.1336 42.5888 75.8448 43.8883 77.8491 C 42.5888 78.9483 41.2893 80.0474 39.9898 81.1466 C 39.2751 81.7931 38.5604 82.375 37.9107 83.0862 C 36.1563 81.7931 36.0264 82.9569 35.1168 84.3147 C 34.3371 85.4138 33.1675 85.9957 34.402 87.2888 C 32.9076 89.2931 31.6081 91.4267 30.3736 93.5603 C 29.9838 93.431 29.5939 93.3017 29.269 93.3664 C 27.9695 93.5603 28.4893 94.1422 27.7746 95.1767 C 26.735 96.7284 26.9299 97.0517 27.8396 97.9569 C 26.2802 100.6724 24.6558 103.3233 22.7066 105.8448 C 20.8873 108.1724 25.5655 109.7888 27.5797 108.1078 C 33.0376 103.5819 35.3766 96.1466 39.4051 90.5216 C 43.8234 84.3793 48.5665 80.1121 56.2335 78.3664 C 61.7563 77.0733 67.6041 77.7845 73.2569 77.6552 C 81.9635 77.4612 96.1929 67.181 96.1929 67.181 C 98.467 61.2328 92.6193 58 92.6193 58 Z " id="Shape" fill="#DC6629" stroke-width="1"/>
          <g id="Group">
            <g id="Shape">
              <path d="M 129.3299 68.9914 C 128.2904 64.5302 126.4061 58.8405 126.2761 54.25 C 126.2112 51.9871 129.2 49.1422 128.4853 47.0733 C 127.7706 45.0043 122.9624 47.2672 121.9228 50.3707 C 120.4284 54.7026 120.6883 61.3621 120.8832 63.431 C 121.3381 69.7672 121.8579 76.8147 120.4284 83.0862 C 119.9736 85.1552 118.4142 88.9052 115.6853 87.806 C 107.8233 84.6379 107.9533 66.3405 110.8772 58.5819 C 110.8772 58.5819 108.8629 57.5474 102.8203 56.7716 C 96.7777 55.9957 90.9949 59.0345 89.8254 60.9741 C 89.8254 60.9741 95.6731 79.0776 95.803 79.5948 C 95.6731 79.7888 95.5431 80.1121 95.6081 80.5647 C 95.7381 82.375 96.0629 84.1207 97.4274 84.3147 C 98.532 86.7716 100.8711 89.3578 102.6904 91.8147 C 102.4305 92.0733 102.4305 92.5259 102.6904 93.1078 C 103.535 94.8534 104.5096 96.5991 106.0041 96.0172 C 106.069 96.0172 106.134 95.9526 106.134 95.9526 C 107.8233 97.6983 109.6426 98.3448 111.5269 99.444 C 121.6629 105.3276 128.8102 93.6897 130.1096 85.7371 C 131.0843 80.0474 130.5645 74.6164 129.3299 68.9914 Z " fill="#DC6629" stroke-width="1"/>
              <g>
                <path d="M 126.7959 57.2241 C 127.0558 56.1897 126.601 54.1207 125.6264 53.4095 C 125.6264 53.4095 125.3665 53.3448 125.0416 53.3448 C 123.3523 53.2802 123.6122 57.806 125.0416 58.4526 C 125.4964 58.6466 125.9513 58.5819 126.2761 58.5819 C 126.666 58.4526 126.601 58 126.7959 57.2241 Z " fill="#E58961" stroke-width="1"/>
                <path d="M 127.3157 57.2241 C 127.6406 55.931 127.0558 53.3448 125.3665 53.3448 C 123.6772 53.2802 124.197 57.6121 125.3665 58.194 C 126.536 58.8405 126.9909 58.5172 127.3157 57.2241 Z " fill="#ED996D" stroke-width="1"/>
                <path d="M 126.666 56.6422 C 126.8609 55.931 126.536 54.5086 125.6264 54.5086 C 124.7168 54.5086 124.9766 56.8362 125.6264 57.1595 C 126.2761 57.4828 126.4711 57.3534 126.666 56.6422 Z " fill="#DC6629" stroke-width="1"/>
              </g>
              <g>
                <path d="M 129.3949 69.444 C 129.8497 68.2802 129.7198 65.9526 128.3553 65.4353 C 128.3553 65.4353 127.9655 65.3707 127.8355 65.3707 C 126.1462 65.1767 126.2112 69.5733 127.3157 70.2845 C 127.7056 70.5431 128.6802 70.6078 128.6802 70.6078 C 129.135 70.6724 129.0701 70.2198 129.3949 69.444 Z " fill="#E58961" stroke-width="1"/>
                <path d="M 129.8497 69.5086 C 130.3046 68.2802 129.9797 65.6293 128.3553 65.4353 C 126.666 65.2414 126.731 69.5733 127.8355 70.2845 C 128.9401 71.0603 129.3949 70.7371 129.8497 69.5086 Z " fill="#ED996D" stroke-width="1"/>
                <path d="M 129.265 68.8621 C 129.5249 68.1509 129.3299 66.7284 128.4203 66.6638 C 127.5107 66.5345 127.5107 68.9267 128.0954 69.3147 C 128.6802 69.7026 129.0051 69.5733 129.265 68.8621 Z " fill="#DC6629" stroke-width="1"/>
              </g>
              <g>
                <path d="M 130.4345 82.8276 C 131.1492 81.7931 131.4741 79.4009 130.3695 78.5603 C 130.2396 78.4957 130.0447 78.4957 129.8497 78.4957 C 128.1604 78.2371 127.3807 82.1164 128.2254 83.0862 C 128.6802 83.5388 129.2 83.7974 129.5249 83.7328 C 129.9147 83.7328 130.0447 83.4095 130.4345 82.8276 Z " fill="#E58961" stroke-width="1"/>
                <path d="M 130.7594 82.8922 C 131.5391 81.7931 131.864 79.2069 130.3046 78.625 C 128.7452 78.0431 127.6406 82.2457 128.5503 83.2155 C 129.4599 84.1207 129.9797 83.9914 130.7594 82.8922 Z " fill="#ED996D" stroke-width="1"/>
                <path d="M 130.3695 82.1164 C 130.7594 81.5345 130.9543 80.1121 130.1096 79.7888 C 129.265 79.4655 128.6802 81.7931 129.135 82.3103 C 129.6548 82.7629 129.9147 82.6983 130.3695 82.1164 Z " fill="#DC6629" stroke-width="1"/>
              </g>
              <g>
                <path d="M 125.8213 96.0172 C 126.7959 95.2414 127.9005 92.9784 127.1208 91.8793 C 127.0558 91.75 126.9259 91.6853 126.7959 91.6853 C 125.4315 91.0388 123.1574 94.4655 123.6772 95.6293 C 123.8721 96.1466 124.3919 96.5345 124.7168 96.6638 C 125.0416 96.7931 125.2365 96.4698 125.8213 96.0172 Z " fill="#E58961" stroke-width="1"/>
                <path d="M 126.1462 96.0819 C 127.2508 95.2414 128.4203 92.8491 127.1208 91.8793 C 125.8213 90.8448 123.4173 94.5302 124.002 95.694 C 124.5218 96.9224 125.1066 96.9224 126.1462 96.0819 Z " fill="#ED996D" stroke-width="1"/>
                <path d="M 126.0162 95.2414 C 126.601 94.7888 127.2508 93.4957 126.536 92.9138 C 125.8213 92.3319 124.5218 94.4009 124.7817 95.0474 C 125.0416 95.694 125.4315 95.694 126.0162 95.2414 Z " fill="#DC6629" stroke-width="1"/>
              </g>
              <g>
                <path d="M 113.3462 100.931 C 114.5807 101.5776 117.3096 101.7069 117.8294 100.1552 C 118.2843 98.6034 113.801 97.9569 112.8914 98.8621 C 112.3066 99.3793 112.0467 99.9612 112.3066 100.3491 C 112.4365 100.6078 112.8264 100.6724 113.3462 100.931 Z " fill="#E58961" stroke-width="1"/>
                <path d="M 113.2812 101.2543 C 114.5157 101.9009 117.2447 102.0302 117.7645 100.4784 C 118.2193 98.9267 113.736 98.2802 112.8264 99.1853 C 111.8518 100.0905 112.0467 100.6078 113.2812 101.2543 Z " fill="#ED996D" stroke-width="1"/>
                <path d="M 114.0609 100.8017 C 114.7107 101.125 116.2701 101.1897 116.5299 100.4138 C 116.7898 99.5733 114.3208 99.1853 113.801 99.7026 C 113.2812 100.2198 113.4112 100.4138 114.0609 100.8017 Z " fill="#DC6629" stroke-width="1"/>
              </g>
            </g>
            <g>
              <g id="maracas1">
                <path d="M 124.7168 40.1552 C 125.6264 36.7931 124.3269 29.4224 125.3665 24.9612 C 126.2112 21.4052 128.4853 17.2672 131.9939 15.7155 C 135.5675 14.1638 138.8162 16.0388 140.3756 19.2069 C 143.5594 25.5431 139.1411 31.0388 134.6579 35.306 C 132.3838 37.4397 130.6294 39.7672 129.0051 42.4181 C 126.8609 45.9095 125.8863 49.8534 124.3919 53.6034 C 123.2223 56.5776 122.4426 60.3922 120.7533 63.1078 C 120.1036 64.1422 118.4142 65.306 117.5695 63.8836 C 116.8548 62.6552 117.8944 59.2284 118.2193 57.9353 C 118.869 55.4138 119.8437 53.2155 121.1431 50.9526 C 122.3127 48.6897 123.8071 43.5172 124.7168 40.1552 Z " id="Shape" fill="#ECC985" stroke-width="1"/>
                <path d="M 136.1523 33.819 C 137.7117 32.2026 139.1411 30.4569 140.1157 28.5819 C 136.6071 25.2198 130.3046 24.5086 125.3015 25.1552 C 124.9117 26.8362 124.9117 28.9698 124.9117 31.1034 C 125.4964 31.1681 125.9513 31.2974 126.2761 31.2974 C 129.135 31.75 132.0589 32.4612 134.7878 33.2371 C 135.3076 33.431 135.7624 33.625 136.1523 33.819 Z " id="Shape" fill="#F8F8F8" stroke-width="1"/>
                <path d="M 141.3503 22.181 C 137.7117 19.5948 131.9939 19.1422 127.5107 19.7888 C 126.4711 21.4052 125.7563 23.2802 125.3015 24.9612 C 125.2365 25.0905 125.2365 25.2845 125.1716 25.4784 C 126.601 25.5431 127.9655 25.8017 128.6802 25.931 C 131.5391 26.3836 134.4629 27.0948 137.1919 27.8707 C 138.1665 28.194 138.9462 28.5819 139.7259 29.0991 C 141.0254 26.9655 141.7401 24.6379 141.3503 22.181 Z " id="Shape" fill="#FBDF00" stroke-width="1"/>
              </g>
              <path d="M 129.0051 45.5216 C 127.8355 42.1595 125.9513 42.5474 124.7817 44.0991 C 123.3523 45.9741 123.4173 49.4009 126.601 49.5948 C 129.7848 49.7888 129.0051 45.5216 129.0051 45.5216 Z " id="Shape" fill="#DC6629" stroke-width="1"/>
            </g>
          </g>
          <g id="drums">
            <path d="M 71.7624 137.8491 C 85.1472 137.8491 95.998 143.1509 95.998 149.7457 C 95.998 156.3405 85.1472 161.6422 71.7624 161.6422 C 58.3777 161.6422 47.5269 156.3405 47.5269 149.7457 C 47.4619 143.1509 58.3127 137.8491 71.7624 137.8491 Z M 71.7624 136.556 C 57.468 136.556 46.2274 142.3103 46.2274 149.7457 C 46.2274 157.1164 57.468 162.9353 71.7624 162.9353 C 86.0569 162.9353 97.2975 157.181 97.2975 149.7457 C 97.2325 142.375 86.0569 136.556 71.7624 136.556 Z " id="Shape" fill="#FBDF00" stroke-width="1"/>
            <path d="M 71.7624 118.5172 C 58.3777 118.5172 47.5269 123.6897 47.5269 130.0259 L 47.5269 131.4483 L 47.5269 148.9698 L 47.5269 150.3922 C 47.5269 156.7284 58.3777 161.9009 71.7624 161.9009 C 85.1472 161.9009 95.998 156.7284 95.998 150.3922 L 95.998 148.9698 L 95.998 131.4483 L 95.998 130.0259 C 95.998 123.625 85.1472 118.5172 71.7624 118.5172 Z " id="Shape" fill="#B4E4FC" stroke-width="1"/>
            <polygon id="Shape" fill="#FBDF00" points="10.8507614 43.125 8.57664975 42.2844828 8.57664975 22.8232759 10.8507614 22.8232759" stroke-width="1" transform="matrix(1,0,0,1,45.837563,117.094827)"/>
            <polygon id="Shape" fill="#FBDF00" points="43.7928934 41.7025862 41.5187817 42.9310345 41.5187817 23.4698276 43.7928934 22.2413793" stroke-width="1" transform="matrix(1,0,0,1,45.837563,117.094827)"/>
            <ellipse id="Oval" fill="#FFFFFF" cx="25.9248731" cy="13.4482759" rx="24.235533" ry="11.8965517" stroke-width="1" transform="matrix(1,0,0,1,45.837563,117.094827)"/>
            <path d="M 71.7624 118.6466 C 85.1472 118.6466 95.998 123.9483 95.998 130.5431 C 95.998 137.1379 85.1472 142.4397 71.7624 142.4397 C 58.3777 142.4397 47.5269 137.1379 47.5269 130.5431 C 47.4619 123.9483 58.3127 118.6466 71.7624 118.6466 Z M 71.7624 117.3534 C 57.468 117.3534 46.2274 123.1078 46.2274 130.5431 C 46.2274 137.9138 57.468 143.7328 71.7624 143.7328 C 86.0569 143.7328 97.2975 137.9784 97.2975 130.5431 C 97.2325 123.1724 86.0569 117.3534 71.7624 117.3534 Z " id="Shape" fill="#FBDF00" stroke-width="1"/>
          </g>
          <path d="M 47.0071 135.6509 C 47.397 138.431 44.0832 141.4052 46.3574 144.6379 C 46.9421 145.5431 50.3208 147.8707 51.5553 146.2543 C 52.1401 145.4138 50.2558 141.7931 49.801 140.694 L 47.0071 135.6509 Z " id="Shape" fill="#DC6629" stroke-width="1"/>
          <path d="M 96.6477 138.9483 C 97.4924 143.2155 92.4244 145.5431 92.3594 149.3578 C 92.3594 150.8448 93.5289 151.556 94.8934 151.3621 C 97.1025 151.0388 98.7269 148.8405 99.5066 146.9655 L 96.6477 138.9483 Z " id="Shape" fill="#D15A22" stroke-width="1"/>
          <g id="Group">
            <path d="M 137.3218 98.2155 C 135.5025 99.8319 133.3584 101.1897 131.3442 102.6121 C 127.5756 105.2629 123.7421 107.8491 119.8437 110.3707 C 111.5919 115.8664 103.2751 121.2974 94.6335 126.2112 C 93.1391 127.0517 91.5797 127.8922 90.0203 128.6681 C 89.9553 128.6681 89.9553 128.6681 89.8904 128.7328 C 89.5655 128.4741 89.1107 128.2802 88.5909 128.2155 C 87.2914 128.0862 86.1218 129.056 85.9919 130.4138 C 85.8619 131.7069 86.8365 132.8707 88.201 133 C 89.5005 133.1293 90.6701 132.1595 90.8 130.8017 C 90.8 130.8017 90.8 130.7371 90.8 130.7371 C 91.5797 130.3491 92.2294 129.9612 92.6843 129.7026 C 96.5827 127.6983 100.4162 125.3707 104.1198 123.0431 C 113.1513 117.4181 122.1178 111.5991 130.8893 105.5216 C 133.5533 103.7112 136.3472 101.9655 138.7513 99.8319 C 139.8558 98.7974 138.3614 97.3103 137.3218 98.2155 Z " id="Shape" stroke-width="1" fill="#ECC985"/>
            <path d="M 68.5787 127.8276 C 68.0589 126.5345 66.6944 125.9526 65.4599 126.4052 C 65.4599 126.4052 65.3949 126.4052 65.3949 126.4698 C 64.6802 125.9526 64.0305 125.5 63.6406 125.1767 C 60.067 122.4612 56.2985 120.069 52.5949 117.6121 C 43.4335 111.7284 34.1421 106.1034 24.7208 100.6724 C 21.9269 99.056 19.068 97.2457 16.0792 95.9526 C 14.8447 95.4353 13.7401 97.2457 14.9746 97.8276 C 17.3137 98.7974 19.4579 100.1552 21.667 101.4483 C 25.7604 103.7759 29.8538 106.1681 33.8822 108.625 C 42.6538 113.8621 51.4254 119.1638 59.7421 124.9828 C 61.1716 126.0172 62.601 126.9871 63.9655 128.1509 C 64.0305 128.1509 64.0305 128.2155 64.0954 128.2155 C 64.0305 128.6681 64.0305 129.1207 64.2254 129.5733 C 64.7452 130.8664 66.1096 131.4483 67.3442 130.9957 C 68.5137 130.5431 69.0985 129.1207 68.5787 127.8276 Z " id="Shape" stroke-width="1" fill="#ECC985"/>
          </g>
          <path d="M 129.9147 107.4612 C 130.3046 105.7155 132.1888 102.8707 133.8782 103.3233 C 135.5025 103.7759 135.9574 107.7845 133.3584 109.2069 C 130.7594 110.5647 129.9147 107.4612 129.9147 107.4612 Z " id="Shape" fill="#D15A22" stroke-width="1"/>
          <g id="Group">
            <g id="Shape">
              <path d="M 96.1279 67.181 C 96.1279 67.181 85.2772 63.5603 79.7543 67.6336 C 79.7543 67.6336 70.268 92.0086 66.6294 91.2974 C 60.4569 90.0043 65.9147 68.6681 63.9005 62.0733 C 59.2873 47.1379 50.5807 47.0733 52.1401 52.0517 C 53.6995 57.0948 57.3381 53.8621 59.0274 63.3017 C 61.0416 74.2284 52.465 84.1853 54.869 94.7241 C 56.5584 102.2241 64.7452 106.3621 71.1777 102.4181 C 72.932 101.3836 74.5563 99.8966 76.0508 98.2155 C 76.1157 98.3448 76.2457 98.4095 76.3756 98.4741 C 77.935 99.056 78.8447 97.2457 79.6893 95.3707 C 80.0142 94.5948 79.8843 94.0776 79.4294 93.819 C 80.7289 91.8793 82.0284 89.7457 83.198 87.6121 C 84.1076 87.0302 84.8223 85.6078 85.0173 84.6379 C 85.0173 84.5086 85.0822 84.3793 85.0822 84.25 C 85.1472 84.3147 92.3594 75.1983 96.1279 67.181 Z " fill="#DC6629" stroke-width="1"/>
              <g>
                <path d="M 58.2477 62.1379 C 57.6629 61.3621 57.2731 59.6164 57.7929 58.7112 C 57.7929 58.7112 57.9878 58.5819 58.1827 58.4526 C 59.4822 57.8707 60.7817 61.556 60.002 62.5259 C 59.7421 62.8491 59.3523 62.9784 59.0924 63.0431 C 58.7675 63.1724 58.6376 62.7198 58.2477 62.1379 Z " fill="#E58961" stroke-width="1"/>
                <path d="M 57.8579 62.3966 C 57.1431 61.4914 56.7533 59.2284 57.9878 58.6466 C 59.2873 58.0647 60.3919 61.6853 59.6772 62.5259 C 58.9624 63.3664 58.5726 63.3017 57.8579 62.3966 Z " fill="#ED996D" stroke-width="1"/>
                <path d="M 58.1827 61.6853 C 57.7929 61.1681 57.533 59.9397 58.2477 59.6164 C 58.9624 59.2931 59.5472 61.2974 59.2223 61.75 C 58.8325 62.2672 58.5726 62.2026 58.1827 61.6853 Z " fill="#DC6629" stroke-width="1"/>
              </g>
              <g>
                <path d="M 57.0782 73.4526 C 56.8832 72.2241 57.533 69.8319 58.9624 69.5733 C 58.9624 69.5733 59.3523 69.6379 59.4822 69.6379 C 61.1716 69.7672 60.197 74.2931 58.9624 74.8103 C 58.5076 75.0043 57.533 74.875 57.533 74.875 C 57.0782 74.7457 57.2081 74.2931 57.0782 73.4526 Z " fill="#E58961" stroke-width="1"/>
                <path d="M 56.6233 73.3879 C 56.4284 72.0302 57.3381 69.3793 59.0274 69.5086 C 60.7168 69.6379 59.7421 74.0345 58.5076 74.6164 C 57.2081 75.1336 56.7533 74.8103 56.6233 73.3879 Z " fill="#ED996D" stroke-width="1"/>
                <path d="M 57.3381 72.8707 C 57.2081 72.0948 57.7279 70.6724 58.6376 70.7371 C 59.5472 70.8017 59.0274 73.2586 58.3127 73.5172 C 57.6629 73.8405 57.403 73.6466 57.3381 72.8707 Z " fill="#DC6629" stroke-width="1"/>
              </g>
              <g>
                <path d="M 54.0893 85.9957 C 53.8944 84.7672 54.6091 82.3103 56.0386 81.9871 C 56.1685 81.9871 56.3635 82.0517 56.5584 82.1164 C 58.1827 82.569 57.2081 86.6422 55.9736 87.1595 C 55.3888 87.4181 54.7391 87.4181 54.4792 87.2241 C 54.2193 87.0948 54.2193 86.7069 54.0893 85.9957 Z " fill="#E58961" stroke-width="1"/>
                <path d="M 53.7645 85.931 C 53.5695 84.5733 54.4142 81.9224 56.0386 81.9871 C 57.7279 82.0517 56.8832 86.5129 55.6487 87.0948 C 54.4142 87.6767 53.9594 87.2888 53.7645 85.931 Z " fill="#ED996D" stroke-width="1"/>
                <path d="M 54.4792 85.3491 C 54.3492 84.5733 54.8041 83.1509 55.7137 83.2155 C 56.6234 83.2802 56.1685 85.7371 55.5188 85.9957 C 54.869 86.319 54.6091 86.125 54.4792 85.3491 Z " fill="#DC6629" stroke-width="1"/>
              </g>
              <g>
                <path d="M 56.4934 99.3793 C 55.5188 98.5388 54.5442 96.1466 55.3888 94.9828 C 55.4538 94.8534 55.6487 94.8534 55.7787 94.7888 C 57.1431 94.1422 59.2873 97.8922 58.7025 99.056 C 58.4426 99.5733 57.9228 99.9612 57.6629 100.0905 C 57.2081 100.2198 57.0782 99.8966 56.4934 99.3793 Z " fill="#E58961" stroke-width="1"/>
                <path d="M 56.1685 99.444 C 55.1289 98.5388 54.0893 95.9526 55.3888 94.9828 C 56.7533 93.9483 58.9624 97.9569 58.3777 99.1207 C 57.7929 100.2845 57.2081 100.3491 56.1685 99.444 Z " fill="#ED996D" stroke-width="1"/>
                <path d="M 56.3635 98.6034 C 55.7787 98.0862 55.1939 96.7284 55.9086 96.1466 C 56.6234 95.5647 57.8579 97.7629 57.533 98.4095 C 57.2731 99.056 56.9482 99.056 56.3635 98.6034 Z " fill="#DC6629" stroke-width="1"/>
              </g>
              <g>
                <path d="M 69.8782 104.1638 C 68.6437 104.8103 65.8497 104.8103 65.4599 103.194 C 65.0701 101.5776 69.5533 101.0603 70.4629 102.0302 C 70.9827 102.6121 71.2426 103.194 70.9827 103.5819 C 70.7878 103.8405 70.333 103.9052 69.8782 104.1638 Z " fill="#E58961" stroke-width="1"/>
                <path d="M 69.8782 104.4871 C 68.6437 105.1336 65.8497 105.1336 65.4599 103.5172 C 65.0701 101.9009 69.5533 101.3836 70.4629 102.3534 C 71.3076 103.3233 71.1127 103.8405 69.8782 104.4871 Z " fill="#ED996D" stroke-width="1"/>
                <path d="M 69.0985 103.9698 C 68.4487 104.2931 66.8893 104.2931 66.6944 103.4526 C 66.4345 102.5474 68.9685 102.2888 69.4234 102.806 C 69.9431 103.3233 69.8132 103.6466 69.0985 103.9698 Z " fill="#DC6629" stroke-width="1"/>
              </g>
            </g>
            <g>
              <g id="maracas1_1_">
                <path d="M 52.9198 44.3578 C 51.8802 40.9957 46.8772 35.4353 45.3827 31.1034 C 44.2132 27.6121 43.8883 22.8922 46.0975 19.7241 C 48.3066 16.4914 52.0102 16.4267 55.064 18.3017 C 61.1066 21.9871 60.2619 28.9698 58.7675 34.9828 C 57.9878 38.0216 57.7279 40.8664 57.7279 43.9698 C 57.7279 48.1078 59.0274 51.9224 59.7421 55.931 C 60.3269 59.0991 61.6914 62.7198 61.6914 65.8879 C 61.6914 67.1164 60.9117 68.9914 59.3523 68.2155 C 58.0528 67.569 57.1431 64.0776 56.7533 62.8491 C 55.9736 60.3922 55.6487 58 55.5188 55.4138 C 55.4538 52.8276 53.9594 47.6552 52.9198 44.3578 Z " id="Shape" fill="#ECC985" stroke-width="1"/>
                <path d="M 59.2873 32.9138 C 59.7421 30.7155 60.002 28.5172 59.8721 26.3836 C 55.1289 25.3491 49.4112 28.0647 45.4477 31.2974 C 46.0325 32.9138 47.1371 34.7241 48.3066 36.5345 C 48.8264 36.3405 49.2812 36.1466 49.6061 36.0172 C 52.2701 34.9181 55.1289 33.9483 57.8579 33.1724 C 58.3777 33.0431 58.8325 32.9784 59.2873 32.9138 Z " id="Shape" fill="#F8F8F8" stroke-width="1"/>
                <path d="M 57.533 20.306 C 53.0497 20.0474 47.9817 22.6336 44.4731 25.5431 C 44.4731 27.4828 44.798 29.4224 45.3827 31.1034 C 45.4477 31.2328 45.5127 31.4267 45.5777 31.556 C 46.8122 30.9095 48.1766 30.3922 48.8264 30.069 C 51.4904 28.9698 54.3492 28 57.0782 27.2241 C 58.0528 26.9655 58.9624 26.9009 59.8721 26.9009 C 59.8071 24.5086 59.1574 22.181 57.533 20.306 Z " id="Shape" fill="#FBDF00" stroke-width="1"/>
              </g>
              <path d="M 52.2701 50.5647 C 52.0751 48.1724 57.0132 46.3621 57.0132 48.819 C 57.0782 52.181 55.2589 54.3793 53.2447 53.3448 C 51.2305 52.3103 52.2701 50.5647 52.2701 50.5647 Z " id="Shape" fill="#DC6629" stroke-width="1"/>
            </g>
          </g>
        </g>
      </g>
    </g>
  </g>
</svg>