<svg version="1.1" xmlns="http://www.w3.org/2000/svg" xmlns:xlink="http://www.w3.org/1999/xlink" width="101.18706" height="253.69987" viewBox="0,0,101.18706,253.69987"><g transform="translate(-180.33766,-55.35016)"><g data-paper-data="{&quot;isPaintingLayer&quot;:true}" fill-rule="nonzero" stroke-linejoin="miter" stroke-miterlimit="10" stroke-dasharray="" stroke-dashoffset="0" style="mix-blend-mode: normal"><path d="M241.7,309.05003l0.7,-11l12.6,0.7l8.1,2.6l4,7.7z" data-paper-data="{&quot;origPos&quot;:null}" fill="#464646" stroke="none" stroke-width="1" stroke-linecap="butt"/><path d="M200.8,309.05003l0.7,-11l12.6,0.7l8.1,2.6l4.1,7.7z" data-paper-data="{&quot;origPos&quot;:null}" fill="#464646" stroke="none" stroke-width="1" stroke-linecap="butt"/><path d="M189.3,300.75005l6.1,-54.7l6.6,-59.2l56.4,-0.7l7.9,61.8l4.9,51.3z" data-paper-data="{&quot;origPos&quot;:null}" fill="#262f46" stroke="none" stroke-width="1" stroke-linecap="butt"/><path d="M263.7,170.25014c-2.7,-0.2 -9.7,-2.5 -9.7,-2.5l-3,-25.6c0,0 -3,-24.3 2.5,-26.4c4.7,-1.8 9.3,3.6 12.7,15c3.4,11.4 4.8,38.3 4.8,38.3c0,0 -4.6,1.4 -7.3,1.2z" data-paper-data="{&quot;origPos&quot;:null}" fill="#b33939" stroke="none" stroke-width="1" stroke-linecap="butt"/><g data-paper-data="{&quot;origPos&quot;:null}" stroke="none" stroke-width="1" stroke-linecap="butt"><path d="M279.5,195.95017l-16.6,3.4l-9,-30.7c0,0 5.2,-5.3 8.8,-5.3c2.7,0 7.3,0.4 7.3,0.4z" data-paper-data="{&quot;origPos&quot;:null}" fill="#b33939"/><path d="M274.95093,219.14726c-1.9514,0.44948 -2.04346,-8.67146 -4.07672,-8.5106c-1.52494,0.12064 0.99231,5.33154 0.56443,6.38838c-0.42788,1.05684 -3.64005,-0.00711 -3.64005,-0.00711c0,0 -3.23233,-4.80021 -4.06521,-7.37049c-1.85674,-5.81399 3.70588,-12.58874 3.70588,-12.58874l7.88746,-1.50929c0,0 5.53843,5.60141 6.13441,9.90197c0.51413,4.01194 -2.25852,9.99545 -2.25852,9.99545c0,0 -2.13515,3.10018 -4.25168,3.70043z" data-paper-data="{&quot;origPos&quot;:null,&quot;index&quot;:null,&quot;origRot&quot;:0}" fill="#88521f"/></g><path d="M200,193.65012l0.2,-76.3c0,0 15.8,-7.9 29.3,-8.1c13.5,-0.2 25.3,4.9 27.9,6.2c2.4,1.2 2.6,80.4 2.6,80.4c0,0 -17.8,2.8 -29.8,2.7c-12.3,-0.2 -30.2,-4.9 -30.2,-4.9z" data-paper-data="{&quot;origPos&quot;:null}" fill="#813333" stroke="none" stroke-width="1" stroke-linecap="butt"/><g data-paper-data="{&quot;origPos&quot;:null}" fill="#88521f" stroke="none" stroke-width="1" stroke-linecap="butt"><path d="M223,99.45003l15.2,3.4l-0.1,9.1c0,0 4.9,0.9 4.8,3.7c-0.1,4.5 -18.9,6.9 -22.8,0c-1.5,-3.4 2,-4.6 2,-4.6z" data-paper-data="{&quot;origPos&quot;:null}"/><path d="M218.4,88.35003c0.8,2.4 0.3,4.7 -1,5.1c-1.4,0.5 -3.2,-1 -4,-3.4c-0.8,-2.4 -0.3,-4.7 1,-5.1c1.4,-0.5 3.2,1.1 4,3.4z" data-paper-data="{&quot;origPos&quot;:null}"/><path d="M249.9,86.15006c0,12.8 -7.9,19.6 -14.7,19.9c-11.8,0.2 -19.4,-9.5 -19.4,-22.3c0,-12.8 2.2,-22.4 17.2,-23.1c11.4,-0.6 18.89824,11.5 16.89824,25.2z" data-paper-data="{&quot;origPos&quot;:null}"/></g><g><path d="M224.2,79.6501c0,0 2.9,-0.8 4.4,-0.8c1.7,-0.1 3.7,0.8 3.7,0.8" fill="none" stroke="#000000" stroke-width="1.46" stroke-linecap="round"/><g><path d="M224.1,83.95014c0,0 2.2,-1.9 4.5,-1.7c2.5,0.2 2.9,1.5 2.9,1.5" fill="none" stroke="#000000" stroke-width="1.46" stroke-linecap="round"/><path d="M227.4,84.75017c0,-1.2 0.9,-2.2 2.1,-2.2c1.2,0 2.1,1 2.1,2.2c0,1.2 -0.9,2.2 -2.1,2.2c-1.2,0 -2.1,-1 -2.1,-2.2z" fill="#000000" stroke="none" stroke-width="1" stroke-linecap="butt"/></g></g><g><path d="M239.6,79.55014c0,0 2.3,-0.8 4,-0.8c1.5,0.1 3.2,0.5 3.2,0.5" fill="none" stroke="#000000" stroke-width="1.46" stroke-linecap="round"/><g><path d="M239.6,83.6501c0,0 0.5,-1.3 2.9,-1.5c2.3,-0.2 4.5,1.7 4.5,1.7" fill="none" stroke="#000000" stroke-width="1.46" stroke-linecap="round"/><path d="M244.3,86.65015c-1.2,0 -2.1,-1 -2.1,-2.2c0,-1.2 0.9,-2.2 2.1,-2.2c1.2,0 2.1,1 2.1,2.2c0,1.2 -1,2.2 -2.1,2.2z" fill="#000000" stroke="none" stroke-width="1" stroke-linecap="butt"/></g></g><path d="M189.6,168.35017c-2.7,-0.1 -7,-1.9 -7,-1.9c0,0 4.7,-26.6 9.4,-37.6c4.7,-11 8.6,-11.8 13,-9.6c5.2,2.6 0.6,22.4 0.6,22.4l-6.1,25.1c0.1,0 -7.1,1.7 -9.9,1.6z" data-paper-data="{&quot;origPos&quot;:null}" fill="#b33939" stroke="none" stroke-width="1" stroke-linecap="butt"/><path d="M238.3,98.85017c0,0.7 -2,2.2 -3.7,2.2c-1.7,0 -3.5,-1.9 -3.5,-2.7c0,-0.7 2.2,0 4,0c1.8,0 3.2,-0.2 3.2,0.5z" fill="#000000" stroke="none" stroke-width="1" stroke-linecap="butt"/><path d="M235.6,87.65015c0,0 2.3,1.9 2.2,3.5c0,0.7 -2.5,2.1 -2.5,2.1" fill="none" stroke="#000000" stroke-width="1.46" stroke-linecap="round"/><g data-paper-data="{&quot;origPos&quot;:null}" stroke="none" stroke-width="1" stroke-linecap="butt"><path d="M182.6019,164.75009c0,0 4.4,-1.2 7.1,-1.5c3.6,-0.5 9.9,3.9 9.9,3.9l-2.1,31.6l-17.1,-0.8z" data-paper-data="{&quot;origPos&quot;:null}" fill="#b33939"/><path d="M185.3019,216.95017c0,0 -4.3,-5 -4.9,-9c-0.6,-4.3 3.2,-11.2 3.2,-11.2l8,-0.7c0,0 7.2,5 7,11.1c-0.1,2.7 -1.9,8.2 -1.9,8.2c0,0 -2.8,1.9 -3.5,1c-0.7,-0.9 0.3,-6.6 -1.2,-6.3c-2,0.4 0.4,9.2 -1.6,9.3c-2.2,0 -5.1,-2.4 -5.1,-2.4z" data-paper-data="{&quot;origPos&quot;:null}" fill="#88521f"/></g><path d="M241.7,68.75002c-2.5,-0.5 -15,-0.1 -17.3,1c-5.7,2.9 -6.6,16.3 -6.6,16.3l-2.6,-0.8c0,0 -3.5,-24.9 17.9,-24.7c11.4,-0.6 16.12353,10.2 16.62353,16.7c0,0 0.07647,-6.9 -8.02353,-8.5z" data-paper-data="{&quot;origPos&quot;:null}" fill="#2c1b0c" stroke="none" stroke-width="1" stroke-linecap="butt"/><g data-paper-data="{&quot;origPos&quot;:null}" fill="#ee9d88" stroke="none" stroke-width="1" stroke-linecap="butt"><path d="M214.4,130.95009v-19.5h14.9v19.6h-14.9z" data-paper-data="{&quot;origPos&quot;:null}"/><path d="M255,94.75017c0,6.5 1.6,11.5 -1.6,17.1c-4.3,7.7 -13.4,13.5 -21,9c-4.7,-2.8 -8.2,-9.1 -8.2,-9.1c0,0 9.5,-1.6 12.3,-2.9c0.9,-0.4 0.7,-3 1.6,-3.5c5.3,-2.7 10.2,-7.3 11,-14.5c1.3,-11.4 -6.73333,-26.33333 -16.93333,-21.03333c-8.8,4.6 -14.70833,15.325 -12.60833,25.025c2.3,11 18.44167,17.70833 20.84167,24.00833c0.8,2.1 -4.7,3.6 -6.9,3.6c-9,0 -20.3,-0.1 -25.6,-7.4c-6,-8.3 -1.3,-18 -1.3,-28.2c0,-19.7 11.3,-31.5 26.2,-31.5c0,0 6.9,0.5 12.4,5.2c8.4,7.2 9.8,14.6 9.8,34.2z" data-paper-data="{&quot;origPos&quot;:null}"/></g></g></g></svg>