<svg xmlns="http://www.w3.org/2000/svg" xmlns:xlink="http://www.w3.org/1999/xlink" version="1.1" width="155.5880889892578" height="120.76100158691406" viewBox="-0.154043048620224 0.4610000252723694 155.5880889892578 120.76100158691406">
  <!-- Exported by Scratch - http://scratch.mit.edu/ -->
  <g id="ID0.9362249937839806">
    <g id="Page-1">
      <g id="dorian-d-[sports,basketball,people,alex-eben-meyer]">
        <g id="Right-Arm">
          <path id="Shape" fill="#E6BE6E" stroke="none" stroke-width="1" d="M 154.932 48.212 C 154.804 46.852 148.636 47.813 148.656 45.68 C 148.676 43.547 154.225 44.086 153.45 43.312 C 153.007 42.858 124.144 42.726 99.643 42.543 L 99.643 52.948 C 119.402 53.295 140.523 53.55 140.854 53.554 C 143.683 53.554 153.274 53.53 153.007 52.808 C 152.739 52.087 148.472 52.083 148.8 50.365 C 149.128 48.646 155.06 49.575 154.932 48.212 Z "/>
          <path id="Shape" fill="#BE965A" stroke="none" stroke-width="1" d="M 144.482 43.105 C 144.765 42.686 145.149 42.706 145.512 42.511 C 146.926 41.713 148.476 40.769 148.468 40.119 C 148.468 39.321 138.25 41.191 139.68 47.016 C 140.842 51.76 145.348 49.599 145.077 45.17 C 145.037 44.604 144.214 43.527 144.482 43.105 Z "/>
        </g>
        <g id="Left-Arm">
          <path id="Shape" fill="#E6BE6E" stroke="none" stroke-width="1" d="M 60.957 41.705 C 35.538 41.913 2.313 42.028 1.834 42.503 C 1.067 43.3 6.627 42.722 6.627 44.871 C 6.627 47.02 0.475 46.043 0.348 47.402 C 0.22 48.762 6.148 47.833 6.476 49.555 C 6.803 51.278 2.533 51.274 2.265 51.999 C 1.997 52.725 11.589 52.757 14.417 52.745 C 14.781 52.745 39.861 52.434 60.941 52.043 L 60.957 41.705 Z "/>
          <path id="Shape" fill="#BE965A" stroke="none" stroke-width="1" d="M 10.818 42.307 C 10.534 41.889 10.147 41.909 9.783 41.713 C 8.373 40.916 6.819 39.971 6.827 39.321 C 6.827 38.524 17.046 40.394 15.616 46.218 C 14.453 50.963 9.951 48.802 10.219 44.373 C 10.259 43.806 11.098 42.73 10.818 42.307 Z "/>
        </g>
        <path id="Shape" fill="#006482" stroke="none" stroke-width="1" d="M 65.404 72.878 L 58.325 76.864 C 59.064 82.047 71.839 85.204 82.649 85.894 C 93.459 86.584 103.65 80.923 103.65 80.923 L 65.404 72.878 Z "/>
        <path id="Rectangle-path" fill="#281446" stroke="none" stroke-width="1" d="M 67.589 70.521 L 93.368 70.521 L 93.368 82.486 L 67.589 82.486 L 67.589 70.521 Z "/>
        <g id="Right-Leg">
          <path id="Shape" fill="#E6BE6E" stroke="none" stroke-width="1" d="M 108.66 94.509 L 114.884 92.161 C 114.884 92.161 113.893 87.29 110.258 84.399 C 106.622 81.509 98.785 78.451 98.785 78.451 L 86.025 81.836 L 103.57 92.632 L 108.66 94.509 Z "/>
          <path id="Shape" fill="#FAF0E6" stroke="none" stroke-width="1" d="M 104.593 106.063 L 115.263 91.934 L 103.067 92.369 L 95.301 105.88 L 100.61 107.367 L 104.593 106.063 "/>
          <path id="Shape" fill="#281446" stroke="none" stroke-width="1" d="M 108.208 79.97 L 90.999 71.379 L 81.611 81.577 L 98.896 93.066 L 108.208 79.97 "/>
          <path id="Shape" fill="#00A0DC" stroke="none" stroke-width="1" d="M 105.28 119.53 L 98.673 118.673 L 87.307 119.295 L 87.543 120.591 L 105.592 120.722 L 105.28 119.53 "/>
          <path id="Shape" fill="#281446" stroke="none" stroke-width="1" d="M 104.098 118.242 C 102.904 118.178 101.717 118.036 100.542 117.816 L 105.736 105.309 L 94.49 105.309 L 87.299 119.295 L 105.276 119.53 C 105.118 119.192 104.985 118.843 104.877 118.486 C 104.628 118.372 104.367 118.29 104.098 118.242 Z "/>
          <path id="Oval" fill="#00A0DC" stroke="none" stroke-width="1" d="M 96.931 107.849 C 97.778 107.849 98.546 108.193 99.103 108.748 C 99.659 109.303 100.003 110.069 100.003 110.915 C 100.003 111.761 99.659 112.527 99.103 113.082 C 98.546 113.637 97.778 113.981 96.931 113.981 C 96.083 113.981 95.315 113.637 94.759 113.082 C 94.203 112.527 93.859 111.761 93.859 110.915 C 93.859 110.069 94.203 109.303 94.759 108.748 C 95.315 108.193 96.083 107.849 96.931 107.849 Z "/>
          <path id="Shape" fill="#006482" stroke="none" stroke-width="1" d="M 102.032 108.292 L 105.084 108.292 L 105.34 107.514 L 102.172 107.514 L 102.032 108.292 "/>
          <path id="Shape" fill="#00A0DC" stroke="none" stroke-width="1" d="M 101.685 110.109 L 104.741 110.109 L 104.993 109.328 L 101.825 109.328 L 101.685 110.109 "/>
          <path id="Shape" fill="#006482" stroke="none" stroke-width="1" d="M 101.337 111.923 L 104.393 111.923 L 104.645 111.142 L 101.477 111.142 L 101.337 111.923 "/>
          <path id="Shape" fill="#00A0DC" stroke="none" stroke-width="1" d="M 100.994 113.737 L 104.046 113.737 L 104.297 112.956 L 101.134 112.956 L 100.994 113.737 "/>
          <path id="Shape" fill="#006482" stroke="none" stroke-width="1" d="M 100.646 115.551 L 103.702 115.551 L 103.954 114.774 L 100.786 114.774 L 100.646 115.551 "/>
        </g>
        <g id="Left-Leg">
          <path id="Shape" fill="#E6BE6E" stroke="none" stroke-width="1" d="M 52.672 94.509 L 46.448 92.161 C 46.448 92.161 47.906 87.29 51.526 84.399 C 55.145 81.509 62.523 78.451 62.523 78.451 L 75.283 81.836 L 57.734 92.632 L 52.672 94.509 Z "/>
          <path id="Shape" fill="#FAF0E6" stroke="none" stroke-width="1" d="M 56.731 106.063 L 46.057 91.934 L 58.253 92.369 L 66.019 105.88 L 60.714 107.367 L 56.731 106.063 "/>
          <path id="Shape" fill="#281446" stroke="none" stroke-width="1" d="M 53.115 79.97 L 71.156 71.143 L 79.709 81.577 L 62.423 93.066 L 53.115 79.97 "/>
          <path id="Shape" fill="#00A0DC" stroke="none" stroke-width="1" d="M 56.044 119.53 L 62.651 118.673 L 74.016 119.295 L 73.777 120.591 L 55.728 120.722 L 56.044 119.53 "/>
          <path id="Shape" fill="#281446" stroke="none" stroke-width="1" d="M 57.226 118.242 C 58.418 118.178 59.604 118.035 60.778 117.816 L 55.584 105.309 L 66.834 105.309 L 74.024 119.295 L 56.048 119.53 C 56.205 119.192 56.339 118.843 56.447 118.486 C 56.696 118.373 56.957 118.291 57.226 118.242 Z "/>
          <path id="Oval" fill="#00A0DC" stroke="none" stroke-width="1" d="M 64.393 107.849 C 65.24 107.849 66.008 108.193 66.565 108.748 C 67.121 109.303 67.465 110.069 67.465 110.915 C 67.465 111.761 67.121 112.527 66.565 113.082 C 66.008 113.637 65.24 113.981 64.393 113.981 C 63.545 113.981 62.777 113.637 62.221 113.082 C 61.665 112.527 61.321 111.761 61.321 110.915 C 61.321 110.069 61.665 109.303 62.221 108.748 C 62.777 108.193 63.545 107.849 64.393 107.849 Z "/>
          <path id="Shape" fill="#006482" stroke="none" stroke-width="1" d="M 59.291 108.292 L 56.235 108.292 L 55.984 107.514 L 59.152 107.514 L 59.291 108.292 "/>
          <path id="Shape" fill="#00A0DC" stroke="none" stroke-width="1" d="M 59.635 110.109 L 56.583 110.109 L 56.331 109.328 L 59.499 109.328 L 59.635 110.109 "/>
          <path id="Shape" fill="#006482" stroke="none" stroke-width="1" d="M 59.983 111.923 L 56.931 111.923 L 56.675 111.142 L 59.843 111.142 L 59.983 111.923 "/>
          <path id="Shape" fill="#00A0DC" stroke="none" stroke-width="1" d="M 60.33 113.737 L 57.274 113.737 L 57.022 112.956 L 60.19 112.956 L 60.33 113.737 "/>
          <path id="Shape" fill="#006482" stroke="none" stroke-width="1" d="M 60.678 115.551 L 57.622 115.551 L 57.37 114.774 L 60.538 114.774 L 60.678 115.551 "/>
        </g>
        <path id="Shape" fill="#00A0DC" stroke="none" stroke-width="1" d="M 106.994 41.223 C 106.994 41.223 56.152 40.717 52.88 40.793 L 52.88 53.04 C 55.524 53.215 59.739 53.231 63.738 53.191 C 61.281 63.341 58.325 76.852 58.325 76.852 C 60.893 77.821 64.836 77.251 67.581 77.307 C 71.508 77.375 75.443 77.307 79.362 77.426 C 87.016 77.682 96.212 77.921 103.866 77.506 C 103.355 76.31 98.705 62.684 95.836 54.26 C 99.516 54.387 103.758 54.583 106.994 54.571 L 106.994 41.223 Z "/>
        <g id="Head">
          <path id="Shape" fill="#642800" stroke="none" stroke-width="1" d="M 70.309 30.535 C 70.309 30.535 68.356 29.462 67.361 25.236 C 66.646 22.187 66.474 16.274 67.685 13.727 C 70.577 7.643 73.505 4.438 73.505 4.438 L 77.931 20.285 L 70.309 30.535 Z "/>
          <path id="Shape" fill="#642800" stroke="none" stroke-width="1" d="M 91.055 30.539 C 91.055 30.539 94.182 18.806 91.454 13.077 C 88.726 7.348 85.665 6.375 85.665 6.375 L 82.617 15.68 L 91.055 30.539 Z "/>
          <path id="Shape" fill="#E6BE6E" stroke="none" stroke-width="1" d="M 89.413 33.186 C 89.85 31.013 90.117 28.81 90.212 26.596 C 92.405 23.183 98.153 21.852 97.598 27.557 C 97.187 31.651 93.611 34.657 89.413 33.186 Z "/>
          <path id="Shape" fill="#E6BE6E" stroke="none" stroke-width="1" d="M 71.256 33.206 C 69.528 33.308 67.795 33.118 66.131 32.644 C 64.747 32.155 63.603 31.157 62.935 29.853 C 62.24 28.633 61.892 26.189 64.193 24.834 C 66.494 23.478 68.987 25.105 69.786 26.428 C 70.517 27.66 71 31.739 71.256 33.206 Z "/>
          <path id="Shape" fill="#E6BE6E" stroke="none" stroke-width="1" d="M 86.88 17.371 L 72.666 17.315 C 71.376 19.001 69.071 22.581 68.771 25.687 C 68.771 25.822 68.508 31.125 70.461 34.804 C 71.552 36.858 74.016 37.994 75.934 38.44 C 80.484 39.525 86.652 38.644 89.644 34.549 C 90.807 32.955 90.931 31.384 91.039 30.064 C 91.798 20.684 88.57 18.591 86.88 17.371 Z "/>
          <path id="Shape" fill="#642800" stroke="none" stroke-width="1" d="M 89.485 19.488 C 87.711 20.078 71.995 20.739 70.153 20.468 C 69.754 17.957 79.741 0.961 79.741 0.961 C 79.741 0.961 89.485 17.008 89.485 19.488 Z "/>
          <path id="Shape" fill="#BE965A" stroke="none" stroke-width="1" d="M 80.444 28.334 C 81.415 29.492 82.108 30.856 82.474 32.321 C 80.98 32.831 78.782 33.05 77.28 32.548 C 77.264 31.077 77.999 28.29 80.444 28.334 Z "/>
          <path id="Shape" fill="#000000" stroke="none" stroke-width="1" d="M 78.511 35.434 C 78.571 35.608 78.667 35.767 78.794 35.901 C 79.509 35.889 80.225 35.922 80.936 36 C 80.96 35.987 80.983 35.971 81.003 35.953 C 81.159 35.829 81.232 35.629 81.191 35.434 C 80.32 35.402 79.394 35.434 78.511 35.434 Z "/>
          <path id="Shape" fill="#000000" stroke="none" stroke-width="1" d="M 73.365 29.203 C 72.383 29.203 72.766 27.812 73.014 27.298 C 73.13 27.208 73.277 27.169 73.422 27.189 C 73.567 27.209 73.698 27.287 73.785 27.405 C 73.934 28.037 73.778 28.702 73.365 29.203 Z "/>
          <path id="Shape" fill="#000000" stroke="none" stroke-width="1" d="M 86.456 29.339 C 85.482 29.466 85.657 28.047 85.837 27.501 C 85.94 27.397 86.08 27.338 86.227 27.338 C 86.373 27.338 86.513 27.397 86.616 27.501 C 86.855 28.105 86.796 28.785 86.456 29.339 Z "/>
        </g>
      </g>
    </g>
  </g>
</svg>