<svg xmlns="http://www.w3.org/2000/svg" xmlns:xlink="http://www.w3.org/1999/xlink" version="1.1" width="79.71255493164062" height="139.3155975341797" viewBox="-0.3059143126010895 -0.09389850497245789 79.71255493164062 139.3155975341797">
  <!-- Exported by Scratch - http://scratch.mit.edu/ -->
  <g id="ID0.048281502444297075">
    <path id="ID0.10931513691321015" fill="#764E2A" stroke="#000000" d="M 47.5997 134.0018 C 47.5997 135.8417 49.0919 137.3339 50.9318 137.3339 L 53.8059 137.3339 C 55.6458 137.3339 57.138 135.8417 57.138 134.0018 L 57.138 108.9316 C 57.138 107.0906 55.6458 105.5995 53.8059 105.5995 L 50.9318 105.5995 C 49.0919 105.5995 47.5997 107.0906 47.5997 108.9316 L 47.5997 134.0018 Z " stroke-width="0.2776699960231781"/>
    <path id="ID0.7591547076590359" fill="#010101" stroke="#010101" d="M 52.3693 131.6416 C 54.3096 131.6416 56.0695 132.0381 57.3429 132.6787 C 58.6163 133.3204 59.4043 134.2051 59.4043 135.1816 C 59.4043 136.1582 58.6163 137.0429 57.3429 137.6835 C 56.0695 138.3251 54.3096 138.7217 52.3693 138.7217 C 50.4278 138.7217 48.669 138.3251 47.3956 137.6835 C 46.1222 137.0429 45.3331 136.1579 45.3331 135.1816 C 45.3331 134.2051 46.1222 133.3204 47.3956 132.6787 C 48.669 132.0381 50.4278 131.6416 52.3693 131.6416 Z " stroke-width="0.2776699960231781"/>
    <path id="ID0.0989027488976717" fill="#764E2A" stroke="#000000" d="M 31.8225 134.0018 C 31.8225 135.8417 30.3309 137.3339 28.4905 137.3339 L 25.6163 137.3339 C 23.7765 137.3339 22.2843 135.8417 22.2843 134.0018 L 22.2843 108.9316 C 22.2843 107.0906 23.7765 105.5995 25.6163 105.5995 L 28.4905 105.5995 C 30.3309 105.5995 31.8225 107.0906 31.8225 108.9316 L 31.8225 134.0018 Z " stroke-width="0.2776699960231781"/>
    <path id="ID0.4515355387702584" fill="#010101" stroke="#010101" d="M 27.0535 131.6416 C 28.9944 131.6416 30.7532 132.0381 32.0272 132.6787 C 33.3011 133.3204 34.0891 134.2051 34.0891 135.1816 C 34.0891 136.1582 33.3011 137.0429 32.0272 137.6835 C 30.7532 138.3251 28.9944 138.7217 27.0535 138.7217 C 25.1126 138.7217 23.3539 138.3251 22.0799 137.6835 C 20.806 137.0429 20.0179 136.1579 20.0179 135.1816 C 20.0179 134.2051 20.806 133.3204 22.0799 132.6787 C 23.3536 132.0381 25.1126 131.6416 27.0535 131.6416 Z " stroke-width="0.2776699960231781"/>
    <g id="ID0.8780540516600013">
      <path id="ID0.3386278133839369" fill="#603A17" stroke="#010101" d="M 13.7948 96.6288 C 14.2654 98.575 13.3935 100.6092 11.6484 101.1971 C 10.9114 101.445 10.5438 101.568 9.806 101.8163 C 8.0623 102.4041 5.995 100.9988 5.4266 98.6503 C 1.7508 80.6084 6.6581 63.8046 19.4701 50.5795 C 21.2133 48.9062 23.7112 48.8349 24.8655 50.2685 C 25.3528 50.8744 25.5966 51.1768 26.0847 51.7826 C 27.2382 53.2162 26.8783 55.4004 25.4333 56.7876 C 14.8149 67.9155 10.834 81.5341 13.7948 96.6288 Z " stroke-width="0.2776699960231781"/>
    </g>
    <g id="ID0.878742640838027">
      <path id="ID0.49854832142591476" fill="#603A17" stroke="#010101" d="M 65.3075 96.6288 C 64.8358 98.575 65.7079 100.6092 67.452 101.1971 C 68.1884 101.445 68.5566 101.568 69.2938 101.8163 C 71.037 102.4041 73.1042 100.9988 73.6726 98.6503 C 77.3515 80.6073 72.4403 63.8066 59.6306 50.5795 C 57.8865 48.9062 55.3883 48.8349 54.2352 50.2685 C 53.7479 50.8744 53.5038 51.1768 53.0165 51.7826 C 51.863 53.2162 52.2226 55.4004 53.6679 56.7876 C 64.2891 67.9175 68.2617 81.5322 65.3075 96.6288 Z " stroke-width="0.2776699960231781"/>
    </g>
    <g id="ID0.1720329625532031">
      <path id="ID0.45218329411000013" fill="#010101" d="M 29.4481 16.5199 C 28.29 15.7441 27.8948 14.7845 27.7563 13.3881 C 27.6177 11.995 27.5033 10.6167 27.3065 9.2294 C 27.0057 7.1094 25.5027 4.1864 22.8246 5.211 C 20.6199 6.0537 21.5326 8.7965 22.0452 10.4492 C 22.0935 10.605 22.2037 11.004 22.2648 11.2139 C 22.2243 11.2789 22.181 11.7668 22.1612 11.8351 C 22.0802 12.1241 21.9835 12.4099 21.858 12.6828 C 21.2708 13.9618 19.7466 12.8522 19.8077 11.7482 C 19.8985 10.0996 20.0509 8.9287 19.4445 7.3316 C 19.0891 6.395 18.7034 5.3271 17.967 4.6123 C 16.366 3.0565 15.016 5.0499 14.695 6.5108 C 14.447 7.64 14.4123 8.9962 14.1363 10.2035 C 11.1066 7.3974 10.2389 2.0233 5.9972 0.7694 C 4.1505 0.2235 1.8239 0.0746 0.6643 1.912 C -0.2645 3.3836 0.3714 5.4712 0.9567 6.9389 C 1.6134 8.5844 2.4894 10.1582 3.564 11.5674 C 5.1959 13.706 7.6227 15.296 9.8913 16.6857 C 15.6638 20.2238 22.4831 22.4254 29.2296 22.9333 C 29.8083 22.9771 30.1965 22.715 30.3992 22.3371 C 30.6207 22.2855 30.8409 22.1686 31.0442 21.9723 C 33.27 19.8173 31.4435 17.8555 29.4481 16.5199 Z " stroke-width="0.2776699960231781"/>
      <path id="ID0.6435688906349242" fill="#010101" d="M 49.6522 16.5199 C 50.8104 15.7441 51.2061 14.7845 51.3446 13.3881 C 51.4832 11.995 51.5976 10.6167 51.7947 9.2294 C 52.0955 7.1094 53.5974 4.1864 56.2752 5.211 C 58.4802 6.0537 57.5672 8.7965 57.0546 10.4492 C 57.0069 10.605 56.8964 11.004 56.835 11.2139 C 56.8761 11.2789 56.92 11.7668 56.9386 11.8351 C 57.0197 12.1241 57.1163 12.4099 57.2423 12.6828 C 57.8293 13.9618 59.3537 12.8522 59.2932 11.7482 C 59.2013 10.0996 59.0491 8.9287 59.6564 7.3316 C 60.011 6.395 60.3967 5.3271 61.1331 4.6123 C 62.7347 3.0565 64.0841 5.0499 64.4065 6.5108 C 64.6545 7.64 64.6897 8.9962 64.9652 10.2035 C 67.9946 7.3974 68.8617 2.0233 73.104 0.7694 C 74.9496 0.2235 77.2779 0.0746 78.4361 1.912 C 79.3657 3.3836 78.729 5.4712 78.1431 6.9389 C 77.487 8.5844 76.6118 10.1582 75.5358 11.5674 C 73.905 13.706 71.4771 15.296 69.2096 16.6857 C 63.4372 20.2238 56.6179 22.4254 49.8719 22.9333 C 49.2918 22.9771 48.905 22.715 48.702 22.3371 C 48.4794 22.2855 48.2606 22.1686 48.0576 21.9723 C 45.8309 19.8173 47.6572 17.8555 49.6522 16.5199 Z " stroke-width="0.2776699960231781"/>
    </g>
    <path id="ID0.6784169343300164" fill="#764E2A" stroke="#000000" d="M 39.5598 41.9539 C 47.8988 41.9539 55.4544 46.2806 60.927 53.2704 C 66.3977 60.261 69.7856 69.9139 69.7856 80.5673 C 69.7856 91.2207 66.398 100.8739 60.927 107.8631 C 55.4544 114.8534 47.8988 119.1804 39.5598 119.1804 C 31.2211 119.1804 23.6643 114.8531 18.1925 107.8631 C 12.7213 100.8739 9.334 91.2204 9.334 80.5673 C 9.334 69.9139 12.7213 60.2613 18.1925 53.2704 C 23.6643 46.2809 31.2208 41.9539 39.5598 41.9539 Z " stroke-width="0.2776699960231781"/>
    <path id="ID0.4672161932103336" fill="#C2B59C" d="M 20.0426 97.3438 C 20.0426 103.2774 21.3752 108.7736 23.6426 113.2754 C 28.2975 117.0156 33.8056 119.1806 39.7111 119.1806 C 45.6166 119.1806 51.1242 117.0156 55.7796 113.2754 C 58.0473 108.7736 59.3801 103.2774 59.3801 97.3438 C 59.3801 82.0881 50.5736 69.7207 39.7111 69.7207 C 28.8487 69.7207 20.0426 82.0878 20.0426 97.3438 Z " stroke-width="0.2776699960231781"/>
    <path id="ID0.3050416838377714" fill="#764E2A" stroke="#000000" d="M 52.2229 29.8817 C 52.2679 29.2861 52.2923 28.6819 52.2923 28.0702 C 52.2923 23.5975 51.0659 19.5204 49.0511 16.4433 C 49.971 16.2217 50.9262 15.6952 51.7445 14.8886 C 53.5716 13.0863 54.0208 10.5795 52.7483 9.2891 C 51.4757 7.9982 48.9622 8.4128 47.136 10.2149 C 46.3644 10.9746 45.8432 11.8595 45.5883 12.7256 C 43.8334 11.4444 41.8345 10.7158 39.7114 10.7158 C 37.4859 10.7158 35.3964 11.516 33.5829 12.9144 C 33.3519 11.9886 32.8105 11.0296 31.9838 10.2146 C 30.1568 8.4122 27.6436 7.9977 26.371 9.2888 C 25.0982 10.5795 25.5477 13.0863 27.3753 14.8883 C 28.2728 15.7736 29.3363 16.322 30.3359 16.4997 C 28.3427 19.5704 27.1293 23.6241 27.1293 28.0699 C 27.1293 28.6816 27.1538 29.2858 27.1982 29.8814 C 24.5986 32.0239 23.0079 34.8292 23.0079 37.9072 C 23.0079 41.2598 24.8794 44.2978 27.9035 46.4969 C 30.927 48.6966 35.1032 50.058 39.7117 50.058 C 44.3202 50.058 48.4958 48.6966 51.5193 46.4969 C 54.5429 44.2978 56.4149 41.2595 56.4149 37.9072 C 56.4144 34.8292 54.8225 32.0245 52.2229 29.8817 Z " stroke-width="0.2776699960231781"/>
    <path id="ID0.1214322866871953" fill="#010101" d="M 34.6497 20.2607 C 35.0882 20.2607 35.4861 20.4551 35.7738 20.7694 C 36.0617 21.0834 36.24 21.5174 36.24 21.9964 C 36.24 22.4746 36.0617 22.9091 35.7738 23.2226 C 35.4861 23.5375 35.0882 23.7313 34.6497 23.7313 C 34.2102 23.7313 33.8128 23.5369 33.5246 23.2226 C 33.237 22.9086 33.0587 22.4746 33.0587 21.9964 C 33.0587 21.5174 33.237 21.0834 33.5246 20.7694 C 33.8126 20.4551 34.2102 20.2607 34.6497 20.2607 Z " stroke-width="0.2776699960231781"/>
    <path id="ID0.11229029856622219" fill="#010101" d="M 45.4964 20.2607 C 45.9348 20.2607 46.3333 20.4551 46.6204 20.7694 C 46.9094 21.0834 47.0871 21.5174 47.0871 21.9964 C 47.0871 22.4746 46.9094 22.9091 46.6204 23.2226 C 46.3333 23.5375 45.9348 23.7313 45.4964 23.7313 C 45.0579 23.7313 44.6595 23.5369 44.3724 23.2226 C 44.0833 22.9086 43.9056 22.4746 43.9056 21.9964 C 43.9056 21.5174 44.0833 21.0834 44.3724 20.7694 C 44.6595 20.4551 45.0579 20.2607 45.4964 20.2607 Z " stroke-width="0.2776699960231781"/>
    <path id="ID0.12470964528620243" fill="#C2B59C" d="M 39.7111 35.8608 C 32.7205 35.8608 27.0535 40.1424 27.0535 45.4248 C 27.0535 45.5634 27.0599 45.7008 27.0671 45.838 C 30.1301 48.4181 34.657 50.0527 39.7111 50.0527 C 44.7658 50.0527 49.2921 48.4175 52.3557 45.838 C 52.3634 45.7008 52.3693 45.5637 52.3693 45.4248 C 52.3693 40.1424 46.7023 35.8608 39.7111 35.8608 Z " stroke-width="0.2776699960231781"/>
    <path id="ID0.37403157306835055" fill="#EC2227" stroke="#ED1C24" d="M 39.7111 29.5166 C 40.7493 29.5166 41.6906 29.9864 42.3723 30.7455 C 43.054 31.5047 43.4749 32.5531 43.4749 33.7105 C 43.4749 34.8678 43.054 35.916 42.3723 36.6754 C 41.6906 37.4351 40.7493 37.9044 39.7111 37.9044 C 38.6729 37.9044 37.7322 37.4346 37.0505 36.6754 C 36.3694 35.9163 35.9476 34.8678 35.9476 33.7105 C 35.9476 32.5531 36.3694 31.5049 37.0505 30.7455 C 37.7322 29.9864 38.6729 29.5166 39.7111 29.5166 Z " stroke-width="0.2776699960231781"/>
    <path id="ID0.9377652462571859" fill="#FFFFFF" stroke="#010101" d="M 47.5997 43.1138 C 47.5997 45.7255 44.0675 47.8419 39.7111 47.8419 C 35.3542 47.8419 31.8225 45.7258 31.8225 43.1138 C 31.8225 40.5017 35.3542 40.8827 39.7111 40.8827 C 44.0675 40.8827 47.5997 40.502 47.5997 43.1138 Z " stroke-width="0.2776699960231781"/>
  </g>
</svg>