<svg xmlns="http://www.w3.org/2000/svg" xmlns:xlink="http://www.w3.org/1999/xlink" width="89.91659545898438" height="58.22669982910156" viewBox="0.541700005531311 0.8746000528335571 89.91659545898438 58.22669982910156" version="1.1" xml:space="preserve">
  <!-- Generator: Sketch 50.2 (55047) - http://www.bohemiancoding.com/sketch -->
  <defs/>
  <g>
    <title>Slice 1</title>
    <desc>Created with Sketch.</desc>
    <g id="Page-1" stroke="none" fill-rule="evenodd">
      <g id="hat-b-[people,fashion,hat].]">
        <g id="Brim">
          <path d="M 9.0282 35.4012 C 10.2255 26.7375 19.6129 21.9404 34.3405 19.1371 C 42.6503 17.5542 56.9229 16.4546 65.6158 15.8867 C 59.0221 14.3329 52.271 13.5623 45.5 13.5908 C 20.9539 13.5908 1.0417 23.0883 1.0417 34.7971 C 1.0417 42.7237 10.1896 49.6354 23.7199 53.2725 C 13.8176 48.4875 8.0343 42.4337 9.0282 35.4012 Z " id="Shape" fill="#EFE930" fill-rule="nonzero" stroke-width="1"/>
          <path d="M 65.6158 15.8867 C 56.9229 16.4546 42.6503 17.5542 34.3405 19.1371 C 19.6129 21.9404 10.2614 26.7375 9.0282 35.4012 C 8.0343 42.4337 13.8176 48.4875 23.7199 53.2725 C 30.8335 55.1232 38.1539 56.041 45.5 56.0033 C 70.0461 56.0033 89.9583 46.5058 89.9583 34.7971 C 89.9583 26.5442 80.0561 19.3908 65.6158 15.8867 Z " id="Shape" fill="#FFFF4F" fill-rule="nonzero" stroke-width="1"/>
          <path d="M 65.6158 15.8867 C 59.0221 14.3329 52.271 13.5623 45.5 13.5908 C 20.9539 13.5908 1.0417 23.0883 1.0417 34.7971 C 1.0417 42.7237 10.1896 49.6354 23.7199 53.2725 C 30.8335 55.1232 38.1539 56.041 45.5 56.0033 C 70.0461 56.0033 89.9583 46.5058 89.9583 34.7971 C 89.9583 26.5442 80.0561 19.3908 65.6158 15.8867 Z " id="Shape" stroke="#DB20A5" stroke-width="0.96" fill="none"/>
        </g>
        <path d="M 45.5 34.0479 C 30.8442 34.0479 22.3429 29.6254 18.7268 27.1604 C 18.1848 29.2461 17.927 31.3966 17.9605 33.5525 C 25.1447 39.5942 34.4243 41.3704 45.5 41.3704 C 56.5757 41.3704 65.8553 39.5458 73.0395 33.5525 C 73.0855 31.3989 72.8439 29.2489 72.3211 27.1604 C 68.6571 29.6254 60.1558 34.0479 45.5 34.0479 Z " id="Shape" stroke="#DB20A5" stroke-width="0.96" fill="#DB20A5" fill-rule="nonzero"/>
        <g id="Group">
          <path d="M 57.5695 4.2867 C 55.1321 2.9699 52.4864 2.0909 49.7507 1.6887 C 48.3899 1.4973 47.0176 1.4005 45.6437 1.3987 C 41.4269 1.3195 37.2588 2.3171 33.5263 4.2988 C 37.276 6.0488 41.3693 6.9204 45.5 6.8483 C 49.6641 6.9343 53.7925 6.0581 57.5695 4.2867 Z " id="Shape" fill="#FFFFFF" fill-rule="nonzero" stroke-width="1"/>
          <path d="M 72.2851 27.1604 C 72.1774 26.6288 72.0457 26.085 71.9139 25.5292 C 70.2376 18.6054 66.2863 9.0233 57.5455 4.2867 C 53.7758 6.0545 49.656 6.9306 45.5 6.8483 C 41.3693 6.9204 37.276 6.0488 33.5263 4.2988 C 24.7975 9.0596 20.8701 18.6296 19.1579 25.5292 C 19.0262 26.085 18.8945 26.6288 18.7867 27.1604 C 22.3788 29.5771 30.9161 34.0479 45.5718 34.0479 C 56.1326 34.0479 63.5324 31.7521 68.1303 29.5408 C 69.5739 28.8566 70.963 28.0607 72.2851 27.1604 Z " id="Shape" fill="#FFFF4F" fill-rule="nonzero" stroke-width="1"/>
          <path d="M 71.9139 25.5292 C 69.7946 16.7808 64.0472 3.7792 49.607 1.6646 C 48.2462 1.4729 46.874 1.376 45.5 1.3746 C 28.0064 1.3746 21.397 15.9954 19.0861 25.5413 C 18.9543 26.0971 18.8226 26.6408 18.7268 27.1725 C 22.3189 29.5892 30.8442 34.06 45.5 34.06 C 56.0608 34.06 63.4605 31.7642 68.0584 29.5529 C 69.5279 28.8604 70.9411 28.0523 72.2851 27.1363 C 72.1774 26.6288 72.0457 26.085 71.9139 25.5292 Z " id="Shape" stroke="#DB20A5" stroke-width="0.96" fill="none"/>
        </g>
        <g id="Bow">
          <path d="M 65.6278 35.4013 C 66.7844 37.9595 68.3408 40.3135 70.2376 42.3733 C 73.2611 45.0934 76.5099 47.5472 79.9483 49.7079 L 73.9614 53.3329 C 70.6628 51.8527 67.7245 49.6629 65.3524 46.9167 C 62.9193 43.9518 60.8823 40.6774 59.2937 37.1775 L 65.6278 35.4013 Z " id="Shape" stroke="#DB20A5" stroke-width="0.768" fill="#FF7BD0" fill-rule="nonzero"/>
          <path d="M 57.6413 37.5883 C 57.7744 40.4245 57.5531 43.2663 56.9828 46.0467 C 55.6537 51.8104 51.3432 58.6013 51.3432 58.6013 L 59.2937 57.8883 C 61.4313 54.6987 62.9096 51.1069 63.6401 47.3275 C 64.2448 43.5278 64.3535 39.6645 63.9634 35.8363 L 57.6413 37.5883 Z " id="Shape" stroke="#DB20A5" stroke-width="0.768" fill="#FFC0EC" fill-rule="nonzero"/>
          <path d="M 72.4647 21.7592 C 67.9387 24.5263 63.1971 31.7642 63.1971 31.7642 L 63.8437 34.1808 L 64.4903 36.5975 C 64.4903 36.5975 72.2133 40.4158 77.5057 40.4763 C 78.703 40.4763 77.5775 34.9421 76.44 30.7492 C 75.3025 26.5563 73.5184 21.1188 72.4647 21.7592 Z " id="Shape" stroke="#DB20A5" stroke-width="0.768" fill="#FFC0EC" fill-rule="nonzero"/>
          <path d="M 44.4583 29.4563 C 49.7507 29.5288 57.4737 33.3471 57.4737 33.3471 L 58.1083 35.7638 L 58.7549 38.1804 C 58.7549 38.1804 53.9654 45.4304 49.4872 48.1854 C 48.4455 48.8258 46.6495 43.4488 45.5239 39.2558 C 44.3984 35.0629 43.237 29.4442 44.4583 29.4563 Z " id="Shape" stroke="#DB20A5" stroke-width="0.768" fill="#FFC0EC" fill-rule="nonzero"/>
          <path d="M 53.8696 34.8696 L 56.875 35.0146 " id="Shape" stroke="#FF7BD0" stroke-width="0.96" fill="none"/>
          <path d="M 54.8395 38.5913 L 57.4018 36.9721 " id="Shape" stroke="#FF7BD0" stroke-width="0.96" fill="none"/>
          <path d="M 64.9572 32.7913 L 67.6154 30.9788 " id="Shape" stroke="#FF7BD0" stroke-width="0.96" fill="none"/>
          <path d="M 65.4841 34.7488 L 68.5613 34.7971 " id="Shape" stroke="#FF7BD0" stroke-width="0.96" fill="none"/>
          <rect id="Rectangle-path" stroke="#DB20A5" stroke-width="0.763841542" fill="#FF7BD0" fill-rule="nonzero" transform="matrix(0.9652263721494978,-0.26141547488073297,0.26141547488073297,0.9652263721494978,40.264419127500275,26.53584497250114)" x="13.1896408" y="9.60598604" width="8.3242867" height="7.13863628" rx="2.304"/>
        </g>
      </g>
    </g>
  </g>
</svg>