<svg xmlns="http://www.w3.org/2000/svg" xmlns:xlink="http://www.w3.org/1999/xlink" version="1.1" width="75.22827911376953" height="139.35516357421875" viewBox="1.1667156219482422 1.486236572265625 75.22827911376953 139.35516357421875">
  <defs>
    <linearGradient id="grad_1" y2="1" x2="0">
      <stop offset="0" stop-color="#7F3F98" stop-opacity="1"/>
      <stop offset="1" stop-color="#6600CC" stop-opacity="1"/>
    </linearGradient>
    <radialGradient id="grad_2" cx="0.52" cy="0.29309999999999997" r="0.9189700000000001">
      <stop offset="0" stop-color="#DB50F0" stop-opacity="1"/>
      <stop offset="1" stop-color="#7F3F98" stop-opacity="1"/>
    </radialGradient>
  <linearGradient id="grad_1-.9998088479042053,0.01955297589302063,-0.01955297589302063,0.9998088479042053,-45.55,-96.7" y2="139.6356" x2="28.9891" x1="29.9733" y1="89.3123" gradientUnits="userSpaceOnUse">
      <stop offset="0" stop-color="#7F3F98" stop-opacity="1"/>
      <stop offset="1" stop-color="#6600CC" stop-opacity="1"/>
    </linearGradient><radialGradient id="grad_2-.9989224076271057,-0.04641130566596985,0.04641130566596985,0.9989224076271057,-427.55,-137" cx="39.4809" cy="29.5286" r="76.5" gradientUnits="userSpaceOnUse">
      <stop offset="0" stop-color="#DB50F0" stop-opacity="1"/>
      <stop offset="1" stop-color="#7F3F98" stop-opacity="1"/>
    </radialGradient></defs>
  <!-- Exported by Scratch - http://scratch.mit.edu/ -->
  <g id="ID0.07485470175743103">
    <g id="ID0.8842033431865275">
      <g id="ID0.9813417503610253">
        <g id="ID0.6985900145955384">
          <path id="ID0.020438293926417828" fill="url(#grad_1-.9998088479042053,0.01955297589302063,-0.01955297589302063,0.9998088479042053,-45.55,-96.7)" d="M 33.8266 89.3876 C 30.256 93.4756 29.2237 98.1833 30.0121 103.4907 C 30.6539 107.8021 37.641 109.7581 37.9465 104.318 C 38.0499 102.4577 38.0656 100.5787 38.022 98.7164 C 37.9136 94.1344 33.8512 101.4784 33.6766 103.4534 C 33.1798 109.0597 32.9379 115.3942 37.9126 119.1402 C 37.9248 119.0274 37.9311 118.9125 37.9323 118.7985 C 37.9719 117.6451 38.0802 116.811 38.6447 115.8199 C 39.1626 114.9108 38.0019 111.3555 38.7425 110.8208 C 29.9813 117.1387 33.3772 133.0282 39.5082 139.8414 C 38.7123 138.9566 40.437 135.7658 39.6059 134.8423 C 34.2552 128.8966 31.3596 121.0735 38.6447 115.8199 C 38.6773 114.1532 38.7099 112.4875 38.7425 110.8208 C 38.2049 111.7645 38.0527 112.6957 38.0156 113.7742 C 37.9991 114.257 35.7723 111.978 35.7362 111.9323 C 35.0389 111.0695 34.6328 109.9973 34.2346 108.9794 C 33.3858 106.8133 33.6801 107.2082 34.5685 105.1551 C 35.0241 104.1019 35.8372 103.2856 36.6388 102.4981 C 38.2205 100.9428 37.9062 103.156 37.9335 104.3178 C 37.9675 102.6801 38.0015 101.0445 38.0365 99.4079 C 37.7238 102.5073 35.2019 103.4522 32.5801 102.0327 C 31.2401 101.3073 30.4985 99.8966 30.1109 98.4917 C 30.7899 100.9545 29.9909 100.4327 30.8097 98.5074 C 31.4682 96.957 32.6372 95.6386 33.7298 94.3867 C 34.5842 93.4072 33.003 90.3307 33.8266 89.3876 L 33.8266 89.3876 Z " stroke-width="1.0000000256069035"/>
        </g>
      </g>
      <path id="ID0.444075814448297" fill="none" stroke="#6600CC" stroke-width="2" stroke-linecap="round" d="M 39.35 111.85 C 39.35 111.85 39.459 114.866 39.25 116.35 C 39.154 117.03 38.45 118.25 38.45 118.25 "/>
    </g>
    <path id="ID0.790923397988081" fill="url(#grad_2-.9989224076271057,-0.04641130566596985,0.04641130566596985,0.9989224076271057,-427.55,-137)" d="M 74.8678 52.6385 C 71.4631 77.4382 41.8549 95.2726 32.9149 94.9632 C 23.1658 94.6263 -0.91 67.5034 2.4936 42.7018 C 5.8993 17.902 24.8608 0.0207 44.8457 2.7641 C 64.8305 5.5075 78.2724 27.8387 74.8678 52.6385 Z " stroke-width="0.9999999928765768"/>
  </g>
</svg>