<svg xmlns="http://www.w3.org/2000/svg" xmlns:xlink="http://www.w3.org/1999/xlink" width="106.91110015869141" height="141.85330749511718" viewBox="-0.3630999970436096 1.2725000333786012 106.91110015869141 141.85330749511718" version="1.1" xml:space="preserve">
  <!-- Generator: Sketch 50.2 (55047) - http://www.bohemiancoding.com/sketch -->
  <defs/>
  <g>
    <title>Slice 1</title>
    <desc>Created with Sketch.</desc>
    <g id="Page-1" stroke="none" fill-rule="evenodd">
      <g id="rooster-c-[animals,chicken,farm,owen-davey]">
        <g id="Group" fill-rule="nonzero">
          <path d="M 0.2669 68.7292 C 0.2669 51.0598 14.4907 36.7359 32.0351 36.7359 C 49.5795 36.7359 63.8021 51.0598 63.8021 68.7292 L 63.8021 91.8246 L 36.4521 91.8246 L 36.4521 69.1383 C 36.4521 66.681 34.4744 64.6894 32.0351 64.6894 C 29.5957 64.6894 27.618 66.681 27.618 69.1383 L 27.618 99.5949 L 0.2669 99.5949 L 0.2669 68.7292 Z " id="Fill-1" fill="#005A61" stroke-width="1"/>
          <path d="M 32.0351 45.8901 C 44.4459 45.8901 54.5423 56.0587 54.5423 68.5571 L 54.5423 91.8258 L 53.7032 91.8258 L 53.7032 68.5571 C 53.7032 56.5244 43.983 46.7348 32.0351 46.7348 C 20.0871 46.7348 10.367 56.5244 10.367 68.5571 L 10.367 99.5949 L 9.5266 99.5949 L 9.5266 68.5571 C 9.5266 56.0587 19.6243 45.8901 32.0351 45.8901 " id="Fill-4" fill="#17242D" stroke-width="1"/>
          <path d="M 17.8353 99.5949 L 17.8353 69.3213 C 17.8353 61.4354 24.2048 55.0214 32.0351 55.0214 C 39.8653 55.0214 46.2348 61.4354 46.2348 69.3213 L 46.2348 91.8258 L 45.3945 91.8258 L 45.3945 69.3213 C 45.3945 61.9024 39.4012 55.8662 32.0351 55.8662 C 24.6677 55.8662 18.6745 61.9024 18.6745 69.3213 L 18.6745 99.5949 L 17.8353 99.5949 Z " id="Fill-6" fill="#17242D" stroke-width="1"/>
        </g>
        <g id="Group-2">
          <path d="M 56.7641 120.0802 L 70.9013 132.1274 C 73.8192 134.6136 74.0043 139.0806 71.3005 141.8014 " id="Stroke-8" stroke="#FFDB5D" stroke-width="1.26" fill="none"/>
          <path d="M 75.2907 120.2872 C 79.3375 118.4388 81.13 113.6349 79.2942 109.559 C 77.4584 105.4831 72.6891 103.678 68.6411 105.5276 C 67.5422 106.0295 66.6165 106.7551 65.8771 107.6191 L 65.8735 107.6143 L 56.2351 118.6374 C 55.4212 119.5676 56.0788 121.0297 57.3087 121.0273 L 71.9124 121.0044 C 73.0425 121.0129 74.1931 120.789 75.2907 120.2872 " id="Fill-10" fill="#751D18" fill-rule="nonzero" stroke-width="1"/>
        </g>
        <path d="M 36.4317 91.8487 C 36.4317 84.0532 42.7062 77.7317 50.4487 77.7317 L 53.7477 77.7305 C 53.7946 77.7281 53.8475 77.7197 53.8919 77.7197 L 104.4464 77.7197 C 104.4464 77.7197 104.4548 86.2048 104.4548 87.33 C 104.4548 91.0557 102.8907 97.4601 97.8365 101.7923 C 86.5702 111.4459 73.2385 123.9467 73.2385 123.9467 L 36.4317 91.8487 Z " id="Fill-17" fill="#17242D" fill-rule="nonzero" stroke-width="1"/>
        <g id="Group-3">
          <path d="M 76.6 125.8288 L 96.1569 142.4958 " id="Stroke-12" stroke="#FFDB5D" stroke-width="1.26" fill="none"/>
          <path d="M 85.1359 142.4597 C 87.734 142.4597 87.734 139.9229 90.3308 139.9229 C 92.9277 139.9229 92.9277 142.4597 95.5246 142.4597 C 98.1226 142.4597 98.1226 139.9229 100.7207 139.9229 C 103.3199 139.9229 103.3199 142.4597 105.918 142.4597 " id="Stroke-14" stroke="#FFDB5D" stroke-width="1.26" fill="none"/>
          <path d="M 63.3741 114.3774 C 61.626 110.263 63.5219 105.5 67.6072 103.7394 C 71.6924 101.9788 76.422 103.8874 78.1701 108.003 C 78.645 109.1198 78.8422 110.2846 78.8085 111.4243 L 78.8145 111.4231 L 78.5428 126.1092 C 78.52 127.3487 77.0556 127.9805 76.1479 127.1429 L 65.3854 117.2017 C 64.5462 116.44 63.8477 115.4929 63.3741 114.3774 " id="Fill-19" fill="#751D18" fill-rule="nonzero" stroke-width="1"/>
        </g>
        <g id="Group-4" fill-rule="nonzero">
          <path d="M 80.244 25.3626 C 80.2752 25.3325 80.3089 25.3037 80.3414 25.2748 C 80.7429 24.9065 81.1541 24.5479 81.5725 24.1989 C 81.5821 24.1917 81.5905 24.1845 81.5989 24.1761 C 82.0101 23.8355 82.4297 23.5058 82.8565 23.1821 C 82.9406 23.1183 83.0272 23.0545 83.1126 22.9907 C 83.4732 22.7224 83.8399 22.4601 84.2114 22.2037 C 84.2859 22.1532 84.3581 22.1002 84.4326 22.0497 C 84.8426 21.7729 85.2586 21.5046 85.6806 21.2446 C 85.814 21.1616 85.9499 21.081 86.0857 20.9991 C 86.2216 20.9173 86.3598 20.8415 86.4969 20.7609 C 97.281 27.051 104.5402 38.7876 104.5402 52.2403 L 104.5402 85.3961 L 104.5402 87.6164 C 104.5402 97.6551 96.4635 105.7924 86.4969 105.7972 C 76.5302 105.7924 68.4536 97.6551 68.4536 87.6164 L 68.4536 52.2403 C 68.4536 41.5915 72.9992 32.0126 80.244 25.3626 " id="Fill-21" fill="#DE7732" stroke-width="1"/>
          <path d="M 92.5129 88.8354 L 92.5129 25.1629 C 99.8923 31.8188 104.5402 41.4796 104.5402 52.2415 L 104.5402 70.5439 C 104.5402 78.7643 99.5821 85.8161 92.5129 88.8354 " id="Fill-23" fill="#E8441D" stroke-width="1"/>
          <path d="M 80.4856 25.1424 C 82.3275 23.4841 84.3364 22.01 86.4885 20.7561 C 88.6489 22.016 90.6651 23.4962 92.5129 25.1629 L 92.5129 70.5439 C 92.5129 78.7643 87.5549 85.8161 80.4856 88.8354 L 80.4856 25.1424 Z " id="Fill-25" fill="#E8441D" stroke-width="1"/>
          <path d="M 68.4572 88.5057 L 68.4572 50.9611 C 68.8106 40.7034 73.3876 31.5348 80.4856 25.1436 L 80.4856 70.5439 C 80.4856 78.7558 75.536 85.8017 68.48 88.8258 C 68.4728 88.7187 68.4632 88.6128 68.4572 88.5057 " id="Fill-27" fill="#E8441D" stroke-width="1"/>
        </g>
        <g id="Group-5">
          <path d="M 77.1193 26.3205 C 77.1193 31.5348 81.3164 35.7623 86.4957 35.7623 C 91.6738 35.7623 95.872 31.5348 95.872 26.3205 C 95.872 21.105 91.6738 16.8775 86.4957 16.8775 C 81.3164 16.8775 77.1193 21.105 77.1193 26.3205 " id="Fill-29" fill="#AD2C24" fill-rule="nonzero" stroke-width="1"/>
          <path d="M 77.7806 29.3832 L 78.8157 27.9764 L 81.8249 27.3061 L 89.2416 27.3061 L 92.3831 28.7249 C 96.5176 28.8152 99.8418 32.2123 99.8418 36.3977 C 99.8418 40.6397 96.4274 44.0777 92.216 44.0777 C 89.9618 44.0777 87.9432 43.0886 86.5474 41.5242 C 85.1516 43.0886 83.133 44.0777 80.88 44.0777 C 76.6673 44.0777 73.2529 40.6397 73.2529 36.3977 C 73.2529 33.2665 75.114 30.5793 77.7806 29.3832 " id="Fill-31" fill="#CE2235" fill-rule="nonzero" stroke-width="1"/>
          <path d="M 88.2341 26.3554 C 88.2341 28.8621 90.2515 30.8934 92.7401 30.8934 C 95.2288 30.8934 97.2462 28.8621 97.2462 26.3554 C 97.2462 23.8488 95.2288 21.8174 92.7401 21.8174 C 90.2515 21.8174 88.2341 23.8488 88.2341 26.3554 " id="Fill-33" fill="#FFF4E3" fill-rule="nonzero" stroke-width="1"/>
          <path d="M 89.6648 26.3554 C 89.6648 28.0654 91.0414 29.4529 92.7401 29.4529 C 94.4377 29.4529 95.8155 28.0654 95.8155 26.3554 C 95.8155 24.6442 94.4377 23.2579 92.7401 23.2579 C 91.0414 23.2579 89.6648 24.6442 89.6648 26.3554 " id="Fill-35" fill="#17242D" fill-rule="nonzero" stroke-width="1"/>
          <path d="M 75.7788 26.3903 C 75.7788 28.897 77.7962 30.9283 80.2849 30.9283 C 82.7735 30.9283 84.7909 28.897 84.7909 26.3903 C 84.7909 23.8837 82.7735 21.8523 80.2849 21.8523 C 77.7962 21.8523 75.7788 23.8837 75.7788 26.3903 " id="Fill-37" fill="#FFF4E3" fill-rule="nonzero" stroke-width="1"/>
          <path d="M 77.2095 26.3903 C 77.2095 28.1015 78.5861 29.4878 80.2849 29.4878 C 81.9836 29.4878 83.3602 28.1015 83.3602 26.3903 C 83.3602 24.6803 81.9836 23.2928 80.2849 23.2928 C 78.5861 23.2928 77.2095 24.6803 77.2095 26.3903 " id="Fill-39" fill="#17242D" fill-rule="nonzero" stroke-width="1"/>
          <path d="M 88.3327 28.7514 L 84.6586 28.7514 L 84.6586 26.9018 C 84.6586 25.8801 85.481 25.0509 86.4957 25.0509 C 87.5104 25.0509 88.3327 25.8801 88.3327 26.9018 L 88.3327 28.7514 Z " id="Fill-43" fill="#FFDB5D" fill-rule="nonzero" stroke-width="1"/>
          <path d="M 86.5125 1.9025 L 86.5125 18.8102 " id="Stroke-41" stroke="#CE2235" stroke-width="1.26" stroke-linecap="round" fill="none"/>
        </g>
        <g id="Group-6">
          <path d="M 34.4372 42.819 C 53.1946 42.8106 68.4055 58.1189 68.4127 77.0085 L 68.4139 77.757 L 56.7978 77.7618 C 37.6303 77.7703 22.0853 62.1274 22.0781 42.8238 L 34.4372 42.819 Z " id="Fill-45" fill="#B85C39" fill-rule="nonzero" stroke-width="1"/>
          <path d="M 22.0781 42.8238 L 22.0949 42.8238 L 39.2257 52.5063 L 39.2329 72.9603 C 28.9754 66.8904 22.0829 55.6712 22.0781 42.8238 " id="Fill-47" fill="#AD2C24" fill-rule="nonzero" stroke-width="1"/>
          <path d="M 22.7585 47.6097 L 39.0057 56.8241 " id="Stroke-49" stroke="#751D18" stroke-width="0.6" fill="none"/>
          <path d="M 23.7227 52.3847 L 39.0069 61.0516 " id="Stroke-51" stroke="#751D18" stroke-width="0.6" fill="none"/>
          <path d="M 25.8026 57.7904 L 39.0093 65.2803 " id="Stroke-53" stroke="#751D18" stroke-width="0.6" fill="none"/>
          <path d="M 29.7604 64.2622 L 39.0105 69.5078 " id="Stroke-55" stroke="#751D18" stroke-width="0.6" fill="none"/>
          <path d="M 52.7931 64.5594 C 49.945 63.8278 47.835 61.2345 47.8338 58.1369 C 47.8326 54.4702 50.7829 51.4966 54.4233 51.4954 C 56.0908 51.4954 57.6069 52.1272 58.767 53.1561 C 64.7302 59.3163 68.4091 67.7268 68.4127 77.0085 L 68.4127 77.757 L 56.7978 77.7618 C 55.955 77.763 55.1218 77.7221 54.2935 77.6619 L 54.2971 77.615 C 50.7204 77.5428 47.8398 74.6053 47.8386 70.9867 C 47.8374 67.8892 49.9462 65.2935 52.7931 64.5594 " id="Fill-57" fill="#573A3C" fill-rule="nonzero" stroke-width="1"/>
        </g>
      </g>
    </g>
  </g>
</svg>