<svg xmlns="http://www.w3.org/2000/svg" xmlns:xlink="http://www.w3.org/1999/xlink" width="72.7520751953125" height="282.0168151855469" viewBox="0.3590680956840515 0.3869737386703491 72.7520751953125 282.0168151855469" version="1.1" xml:space="preserve">
  <g>
    <title>Slice 1</title>
    <desc>Created with Sketch.</desc>
    <g id="Page-1" stroke="none" fill-rule="evenodd">
      <g id="Group">
        <g>
          <g id="Path">
            <path d="M 65.5 177.6 C 63.4 177.1 62.9 175.6 63.1 174 C 62.9 177.1 62.8 180 63.1 182.4 C 63.1 182.7 63.1 182.9 63.1 183.2 C 63 184.4 62.3 185.4 61 185.6 C 60.6 185.7 60.2 185.5 59.9 185.3 C 59.9 185.4 59.9 185.6 59.9 185.7 C 59.8 186.9 58.8 187.9 57.6 187.9 C 56.8 187.9 56.2 187.4 56 186.7 C 55.8 186.2 55.6 185.6 55.5 185.1 C 55.5 185.1 55.5 185.1 55.5 185.1 C 54.5 186.1 52.8 185.6 52.5 184.2 C 51.9 181.6 50.9 176.2 51 174.1 C 51.2 169.8 54.5 165.2 54.5 165.2 L 53.6 159.4 L 62.6 160.2 L 61.7 163.1 C 65.3 165.5 66.5 167.5 66.6 171.4 C 66.6 171.4 68.2 174.3 68.3 175.7 C 68.2 177.6 66.2 177.9 65.5 177.6 Z " fill="#C38F4E" stroke-width="1"/>
            <path d="M 61.8 171.5 L 61.8 171.1 C 62.1 173.3 62.1 177.1 65.4 177.6 C 66.1 177.9 68.2 177.5 67.9 175.9 C 67.7 174.5 66.2 171.6 66.2 171.6 C 66.1 167.7 64.9 165.7 61.3 163.3 L 61.6 161.1 " stroke="#000000" stroke-linecap="round" stroke-linejoin="round" stroke-width="1" fill="none"/>
            <path d="M 55.3 185.2 C 55.3 185.2 55.3 185.2 55.3 185.2 C 54.3 186.2 52.6 185.7 52.2 184.4 C 51.6 181.8 50.6 176.4 50.7 174.3 C 50.9 170 54.2 165.4 54.2 165.4 L 53.3 159.6 " stroke="#000000" stroke-linecap="round" stroke-linejoin="round" stroke-width="1" fill="none"/>
            <path d="M 54.6 175.9 C 54 179.3 54.5 183.3 55.9 186.8 C 56.2 187.5 56.8 188.1 57.5 188 C 58.9 187.9 60 186.7 59.8 185.3 " stroke="#000000" stroke-linecap="round" stroke-linejoin="round" stroke-width="1" fill="none"/>
            <path d="M 58.2 175.7 C 58.2 178.8 58.4 181.7 59 184.2 C 59.2 185.1 60.1 185.8 61 185.6 C 62.5 185.4 63.3 183.9 63.1 182.4 C 62.9 180.5 62.8 178.3 63 176 " stroke="#000000" stroke-linecap="round" stroke-linejoin="round" stroke-width="1" fill="none"/>
          </g>
          <g>
            <path d="M 57.3 126.3 C 60.6 131.3 59.8 140.3 60.6 145.6 C 61.4 150.9 61.8 161 61.8 161 C 61.8 161 57.5 165.3 53.7 161.6 C 53.7 161.6 49.3 142.1 48.1 137.6 C 46.8 133.2 46.9 130.3 48.3 127.4 C 49.8 124.5 53.5 120.5 57.3 126.3 Z " id="Shape_61_" fill="#C38F4E" stroke-width="1"/>
            <path d="M 58.9 130.1 C 60.3 135.1 59.9 141.4 60.5 145.6 C 61.3 150.9 61.6 161.4 61.6 161.4 " id="Shape_60_" stroke="#000000" stroke-linecap="round" stroke-width="1" fill="none"/>
            <path d="M 53.9 162.1 C 52.5 159.5 49.1 142 48 137.6 C 47.4 135.3 47.1 133.4 47.1 131.8 " id="Shape_59_" stroke="#000000" stroke-linecap="round" stroke-width="1" fill="none"/>
          </g>
          <g id="Path">
            <path d="M 46.4 125 C 46.2 126.5 46.5 132.6 47.4 134.2 C 48.6 136.3 54.9 136.2 56.2 136.2 C 60.6 136 59.3 130.7 59.6 128.3 C 59.7 127.5 59.6 126.3 59.7 125.4 C 61.1 110.4 58.5 93.8 56.1 88.4 C 53.2 82.3 48.1 86.9 45.1 94.6 C 42.9 99.9 47.5 111.3 46.4 125 Z " fill="#C38F4E" stroke-width="1"/>
            <path d="M 59.2 134 C 59.9 132.2 59.5 129.7 59.6 128.2 C 59.7 127.4 59.6 126.2 59.7 125.3 C 61.1 110.3 58.5 93.7 56.1 88.3 C 55.2 86.4 54.1 85.5 52.9 85.5 " stroke="#000000" stroke-linecap="round" stroke-width="1" fill="none"/>
            <path d="M 52.6 85.4 C 50 85.6 47.1 89.3 45.1 94.4 C 42.9 99.9 46.5 107.2 46.6 121.5 C 46.4 123 46.9 129.7 47.1 133.9 " stroke="#000000" stroke-linecap="round" stroke-width="1" fill="none"/>
          </g>
        </g>
        <path d="M 58.3 90.5 C 58.7 91.9 59.1 93.2 59.6 94.6 C 62.1 101.6 64.2 109.2 63.1 116.7 C 62.6 120.4 57.7 121 54.4 122 C 51.7 122.8 47 124.6 45.9 121.6 C 42.3 112.2 42.8 83.1 44.2 81.8 C 47.6 78.5 56.2 83.9 58.3 90.5 Z " id="ID0.8950433996506035_13_" stroke="#000000" fill="#540096" stroke-linecap="round" stroke-linejoin="round" stroke-width="1"/>
      </g>
      <path d="M39.2,80.3 L40.1,83.7 L33.8,84.5 L32.8,84.6 L31.8,84.5 L25.5,83.7 L26.4,80.3 C27.8,75 27.2,69.3 24.9,64.4 L32.9,65 L40.9,64.4 C38.3,69.7 37.1,75.6 39.2,80.3 Z" id="Path" stroke="#000000" fill="#C38F4E" stroke-width="1"/>
      <path d="M9.7,171.6 C-2.7,149.7 9.9,84.9 14.6,81.5 C17.9,79.2 21.8,78.8 23.9,78.8 C24.7,78.8 25.5,79.1 26.1,79.6 C29,82 38.3,83.4 40.5,80.5 C40.5,80.5 40.7,80.4 40.9,80.4 C44,79.6 47.3,80.7 49.3,83.2 C49.3,83.3 49.4,83.3 49.4,83.3 C54.3,90.2 57.5,99.4 56.8,106.3 C54.7,126.4 60,143.5 56.7,168.4 C55.2,172.9 12.3,176.7 9.7,171.6 Z" id="Path" stroke="#000000" fill="#C38F4E" stroke-linecap="round" stroke-width="1"/>
      <g id="Group">
        <g>
          <path d="M 39.5 12.5 C 32.8 12.9 23.8 15.6 19.1 20.6 C 14.4 25.6 13.4 32.7 13.4 40.3 C 13.4 47.9 16.7 54.6 21.1 60 C 25 64.9 30.7 69.1 36.8 69.6 C 44 70.2 53.8 69.1 57.3 62.9 C 63 52.4 63.6 41.4 63.7 29.7 C 63.8 25.3 62.4 21 59.5 17.7 C 58.4 16.4 57.3 15.4 56.4 15 C 50.8 12.4 45.8 12 39.5 12.5 Z " id="ID0.2304357774555683_6_" stroke="#000000" fill="#C38F4E" stroke-width="1"/>
          <g>
            <path d="M 42.4 41.2 C 42.5 43.6 41.6 45 40 45.7 C 38.9 46.2 37.6 46.4 36 46.5 C 33.9 46.6 32.2 46.5 31 46 C 29.7 45.5 28.9 44.7 28.4 43.4 C 28.4 43.4 28.4 43.3 28.4 43.3 C 28.2 42.7 28 42 27.9 41.1 C 27.5 37 31.1 35.2 35 35.2 C 35.5 35.2 36.1 35.2 36.6 35.2 L 36.7 35.2 C 39.8 35.6 42.2 36.5 42.4 41.2 Z " id="Path" stroke="#000000" fill="#FFFFFF" stroke-width="1"/>
            <path d="M 39 39.7 C 39.1 43 36.7 43.9 33.2 44.1 C 31.1 44.2 29.6 44.1 28.5 43.6 C 28.5 43.6 28.5 43.5 28.5 43.5 C 28.3 42.9 28.1 42.2 28 41.3 C 27.6 37.2 31.2 35.4 35.1 35.4 C 35.6 35.4 36.2 35.4 36.7 35.4 C 38 36 38.9 37.2 39 39.7 Z " id="Path" fill="#000000" stroke-width="1"/>
            <ellipse id="Oval" fill="#FFFFFF" cx="4" cy="4" rx="1.3" ry="1.6" stroke-width="1" transform="matrix(1,0,0,1,27,35)"/>
          </g>
          <g>
            <path d="M 61.6 41.1 C 61.7 45.1 59.9 46.1 57.2 46.3 C 54.1 46.6 52.6 45.7 51.9 43.3 C 51.9 43.3 51.9 43.2 51.9 43.2 C 51.7 42.6 51.6 41.9 51.6 41.1 C 51.3 37 53.8 35.3 56.5 35.3 C 56.9 35.3 57.3 35.3 57.6 35.3 L 57.7 35.3 C 59.8 35.6 61.5 36.5 61.6 41.1 Z " id="Path" stroke="#000000" fill="#FFFFFF" stroke-width="1"/>
            <path d="M 59.3 39.6 C 59.4 42.9 57.7 43.7 55.3 43.9 C 53.9 44 52.8 43.9 52 43.5 C 52 43.5 52 43.4 52 43.4 C 51.8 42.8 51.7 42.1 51.7 41.3 C 51.4 37.2 53.9 35.5 56.6 35.5 C 57 35.5 57.4 35.5 57.7 35.5 C 58.6 36 59.2 37.2 59.3 39.6 Z " id="Path" fill="#000000" stroke-width="1"/>
            <ellipse id="Oval" fill="#FFFFFF" cx="2.9" cy="4" rx="1.2" ry="1.6" stroke-width="1" transform="matrix(1,0,0,1,51,35)"/>
          </g>
          <path d="M 46.3 61.4 C 42.7 61.2 38.1 59.5 35.4 57.1 " id="Path" stroke="#000000" stroke-width="0.8715" stroke-linecap="round" stroke-linejoin="round" fill="none"/>
          <path d="M 41.1 32.8 C 35.2 32.2 29.9 33 25.2 35.4 C 23.7 33.4 34.5 29.4 39 30.2 C 42.8 30.8 41.4 32.6 41.1 32.8 Z " id="Path" fill="#000000" stroke-width="1"/>
          <path d="M 50.6 33.3 C 55.5 32.7 58.3 32 62.7 34.1 C 62.6 31.1 56.1 29.9 52.4 30.7 C 49.3 31.3 50.4 33.1 50.6 33.3 Z " id="Path" fill="#000000" stroke-width="1"/>
          <g id="Path" stroke="#000000" stroke-linecap="round" stroke-linejoin="round">
            <path d="M 47.8 41.3 L 48.5 47.2 " stroke-width="1" fill="none"/>
            <path d="M 47.5 47 C 49.3 46.9 50.9 48.4 50.9 50.2 C 51 52.1 49.5 53.5 47.7 53.7 C 46.9 53.8 46.2 53.6 45.5 53.3 " stroke-width="0.9916" fill="none"/>
          </g>
          <path d="M 15.8 36.3 C 14.8 35.7 13.4 35.4 11.6 36.1 C 6.6 38 10.6 47 10.6 47 C 10.6 47 9.9 50.5 13.5 51.3 C 17.1 52.1 16.7 50.9 16.7 50.9 " id="Path" stroke="#000000" fill="#C38F4E" stroke-width="1"/>
        </g>
        <g id="Path" stroke="#000000" stroke-linecap="round">
          <path d="M 70.1 48.1 C 70.2 44.1 68.2 42.3 67.1 40.1 C 70.3 57.8 60.6 65.7 57.7 71.5 C 57.4 72 57.3 72.6 57.3 73.2 C 57.3 74 57.6 74.8 58.1 75.5 C 51.2 76.4 44.6 76 38.1 74.9 C 38.1 73.3 38.3 71.6 38.8 69.9 C 45.7 70.1 54.1 68.7 57.3 63.1 C 63 52.6 63.6 41.6 63.7 29.9 C 63.7 27.6 63.3 25.2 62.5 23.1 L 66.2 23.4 C 66.1 30.1 73 35.7 70.1 48.1 Z " stroke-width="1" fill="#000000"/>
          <path d="M 27 72.9 C 22.9 71.1 18.2 69.3 15.3 67 C 5.6 59.1 1.9 47.1 1.9 34.6 C 1.9 31.4 2.3 28.3 3 25.1 C 5.4 16.7 10.6 12.6 17.7 11.4 L 20.6 21.6 C 20.5 31.5 18.8 41.7 16 52.3 C 17.3 55.1 19 57.7 20.9 60.1 C 22.1 61.7 24.6 64.4 24.6 64.4 C 26.1 67.1 26.8 70 27 72.9 Z " stroke-width="1" fill="#000000"/>
          <path d="M 14.5 15 C 14.2 14 13.4 12.8 12.5 11.6 C 12.4 11.4 12.6 11.2 12.8 11.3 C 14.1 11.8 15.3 12.5 16.2 13.3 C 15.2 11.9 14.8 10.3 14.7 8.7 C 14.7 8.5 15 8.4 15.1 8.6 C 15.7 9.4 16.4 10.1 17.2 10.6 C 18.9 7 22.2 3.1 28.6 1.6 C 39.6 -1.1 70.7 3.1 69.5 27.6 C 69.4 29.5 69.9 31.3 71.1 32.7 L 71.1 32.8 C 69.7 32.6 67.5 32 66.3 31.3 C 60.3 27.6 50.3 25.9 43.2 25.8 C 33.7 25.7 24.7 24.7 16.1 21.7 " stroke-width="1" fill="#000000"/>
          <path d="M 15.2 54.7 L 16.1 52.3 " stroke-width="1" fill="#000000"/>
        </g>
      </g>
      <g id="Group">
        <g id="Path">
          <g>
            <path d="M 39.7 164.4 C 42.5 160.6 47.5 158.3 51.4 162.4 C 63.1 174.7 59.1 211.1 50.7 220.4 C 49.8 221.4 44.8 224.2 42.4 221.7 C 34.7 213.7 34.7 171.3 39.7 164.4 Z " fill="#C38F4E" stroke-width="1"/>
            <path d="M 38.8 213 C 34.9 196.1 35.7 170 39.8 164.4 C 42.6 160.6 47.6 158.3 51.5 162.4 C 61.6 173.1 60 200 53.9 215 " stroke="#000000" stroke-linecap="round" stroke-width="1" fill="none"/>
          </g>
          <g>
            <path d="M 53.7 214.1 L 53.6 215.4 L 49.9 248.7 C 49.7 250.5 49.8 252.4 50.2 254.2 C 50.8 256.8 49.5 259.6 47 260.6 C 47 260.6 46.9 260.6 46.9 260.6 C 43 262.1 39 258.8 39.4 254.7 L 39.8 250.7 C 39.9 249.4 39.9 248.2 39.8 246.9 L 37.4 221.8 C 37.3 218.9 37.7 216.1 38.6 213.4 C 38.6 213.3 38.7 213.2 38.7 213.1 C 39.4 211.3 40.3 209.5 41.4 207.9 C 42.4 206.4 44 205.4 45.8 205.2 C 49.4 204.7 52.7 207.2 53.2 210.8 L 53.7 214.1 Z " fill="#C38F4E" stroke-width="1"/>
            <path d="M 53.6 215.1 L 49.9 248.6 C 49.7 250.4 49.8 252.3 50.2 254.1 " stroke="#000000" stroke-linecap="round" stroke-width="1" fill="none"/>
            <path d="M 39.4 255.6 C 39.4 255.3 39.4 255 39.4 254.7 L 39.8 250.7 C 39.9 249.4 39.9 248.2 39.8 246.9 L 37.4 221.8 C 37.2 218.8 37.7 215.8 38.7 213 " stroke="#000000" stroke-linecap="round" stroke-width="1" fill="none"/>
          </g>
          <g>
            <path d="M 39.8 258.5 C 42.8 265.8 48.8 271.2 60.4 273 C 63.4 273.3 65.8 272.8 67.1 270.9 C 68.4 269 67.9 266.4 66.3 264.8 C 61.6 260.2 56.2 256.7 50.3 254.1 L 41.3 255.9 C 40.1 256.2 39.4 257.4 39.8 258.5 Z " fill="#C38F4E" stroke-width="1"/>
            <path d="M 39.4 255.9 C 40.9 264.4 48.8 271.2 60.4 273.1 C 63.4 273.4 65.8 272.9 67.1 271 C 68.4 269.1 67.9 266.5 66.3 264.9 C 61.6 260.3 56.2 256.8 50.3 254.2 " stroke="#000000" stroke-linecap="round" stroke-width="1" fill="none"/>
          </g>
        </g>
        <path d="M 34.5 173.1 C 35.5 173.1 36.4 180.9 36.2 183.7 C 43.5 185.9 51.3 185.9 59.5 183.7 L 58.5 154.4 L 34.8 155.7 " id="Path" stroke="#000000" fill="#CCD8FF" stroke-linecap="round" stroke-width="1"/>
        <path d="M 36.1 150.7 C 33.7 173.8 33.9 196.1 36.8 210.5 C 34.4 219.5 35.7 235.6 38.2 252.1 C 38.2 252.3 38.5 252.5 38.7 252.5 L 50 251.8 C 50.2 251.8 50.4 251.6 50.4 251.4 C 52.7 238.4 55 225.9 55.2 215 C 60.5 195.4 59.1 173 57.2 149 L 36.1 150.7 Z " id="Path" stroke="#000000" fill="#333333" stroke-linecap="round" stroke-width="1"/>
        <g>
          <path d="M 58.5 271.2 C 50.6 268.5 44 263.9 38.4 258 L 37.4 252.2 C 37.3 251.5 38 250.9 38.7 251.2 L 40.8 252.2 C 42.5 249.9 46 247.7 49.5 248.1 C 54.2 248.5 50.5 251.8 50.5 251.8 L 66.4 261.7 L 65.6 267.5 L 58.9 271.7 " id="Path" stroke="#000000" fill="#000000" stroke-linecap="round" stroke-linejoin="round" stroke-width="1"/>
          <polygon id="Path" stroke="#000000" fill="#000000" stroke-linecap="round" stroke-linejoin="round" points="29.4 13.7 27.8 15.3 17 7 13.5 3.8" stroke-width="1" transform="matrix(1,0,0,1,37,248)"/>
          <path d="M 62.3 266.3 L 58.9 270.7 C 51.6 268 43.6 263.6 38.3 258.1 L 37.3 252.3 C 37.2 251.6 37.9 251 38.6 251.3 L 40.7 252.3 L 42.6 256.3 C 47.3 260.8 55.5 263.5 62.3 266.3 Z " id="Path" stroke="#000000" fill="#000000" stroke-linecap="round" stroke-linejoin="round" stroke-width="1"/>
          <path d="M 57 273.4 C 57.1 272.8 57.4 271.8 57.7 271.2 C 57.9 270.8 58.5 271.4 58.7 271 C 60.2 267.9 62.9 263.3 66.4 261.7 C 66.4 261.7 74.5 265.4 72.2 271.5 C 71.2 274.1 68.6 276 65.3 275.9 C 61.7 275.9 57.2 273.9 57 273.4 Z " id="Path" stroke="#000000" fill="#FFFFFF" stroke-linecap="round" stroke-linejoin="round" stroke-width="1"/>
          <path d="M 59 270.7 C 59.5 267 61.7 263.9 66.4 261.7 C 66.4 261.7 75 265.6 70.6 270.7 C 66.2 275.8 59 270.7 59 270.7 Z " id="Path" stroke="#000000" fill="#FFFFFF" stroke-linecap="round" stroke-linejoin="round" stroke-width="1"/>
          <path d="M 37.7 261.1 C 41.8 266.1 50.5 270.8 57.8 273.8 C 57.8 273.8 59.1 270.9 58.8 270.7 C 51.5 267.6 42.5 263 38.3 257.9 L 37.7 261.1 Z " id="Path" stroke="#000000" fill="#FFFFFF" stroke-linecap="round" stroke-linejoin="round" stroke-width="1"/>
          <g>
            <g id="Oval">
              <circle cx="1.1" cy="6.7" r="1" stroke-width="1" fill="#000000" transform="matrix(1,0,0,1,45,253)"/>
              <circle cx="9.1" cy="1.9" r="1" stroke-width="1" fill="#000000" transform="matrix(1,0,0,1,45,253)"/>
              <circle cx="16.6" cy="6.5" r="1" stroke-width="1" fill="#000000" transform="matrix(1,0,0,1,45,253)"/>
              <circle cx="12.6" cy="4.2" r="1" stroke-width="1" fill="#000000" transform="matrix(1,0,0,1,45,253)"/>
              <circle cx="9.6" cy="11.2" r="1" stroke-width="1" fill="#000000" transform="matrix(1,0,0,1,45,253)"/>
              <circle cx="5.1" cy="8.9" r="1" stroke-width="1" fill="#000000" transform="matrix(1,0,0,1,45,253)"/>
            </g>
            <g id="Path" stroke="#FFFFFF" stroke-linecap="round" stroke-linejoin="round">
              <path d="M 46.2 259.7 C 50.3 258 53 256.4 54 255 " stroke-width="1" fill="none"/>
              <path d="M 54.7 264.2 C 57.8 263 60.4 261.6 61.4 259.7 " stroke-width="1" fill="none"/>
              <path d="M 50.2 261.8 C 53.8 260 56.9 258.4 57.4 257.3 " stroke-width="1" fill="none"/>
            </g>
          </g>
        </g>
      </g>
      <g id="Group">
        <g id="Path">
          <g>
            <path d="M 14.7 163.4 C 17.5 159.6 22.5 157.3 26.4 161.4 C 38.1 173.7 34.1 217.1 25.7 226.4 C 24.8 227.4 19.8 230.2 17.4 227.7 C 9.7 219.7 9.7 170.3 14.7 163.4 Z " fill="#C38F4E" stroke-width="1"/>
            <path d="M 13.7 219 C 9.8 202.1 10.6 169 14.7 163.4 C 17.5 159.6 22.5 157.3 26.4 161.4 C 36.5 172.1 34.9 206.1 28.8 221 " stroke="#000000" stroke-linecap="round" stroke-width="1" fill="none"/>
          </g>
          <g>
            <path d="M 28.7 220.1 L 28.6 221.4 L 24.9 254.7 C 24.7 256.5 24.8 258.4 25.2 260.2 C 25.8 262.8 24.5 265.6 22 266.6 C 22 266.6 21.9 266.6 21.9 266.6 C 18 268.1 14 264.8 14.4 260.7 L 14.8 256.7 C 14.9 255.4 14.9 254.2 14.8 252.9 L 12.4 227.8 C 12.3 224.9 12.7 222.1 13.6 219.4 C 13.6 219.3 13.7 219.2 13.7 219.1 C 14.4 217.3 15.3 215.5 16.4 213.9 C 17.4 212.4 19 211.4 20.8 211.2 C 24.4 210.7 27.7 213.2 28.2 216.8 L 28.7 220.1 Z " fill="#C38F4E" stroke-width="1"/>
            <path d="M 28.6 221.1 L 24.9 254.6 C 24.7 256.4 24.8 258.3 25.2 260.1 " stroke="#000000" stroke-linecap="round" stroke-width="1" fill="none"/>
            <path d="M 14.4 261.6 C 14.4 261.3 14.4 261 14.4 260.7 L 14.8 256.7 C 14.9 255.4 14.9 254.2 14.8 252.9 L 12.4 227.8 C 12.2 224.8 12.7 221.8 13.7 219 " stroke="#000000" stroke-linecap="round" stroke-width="1" fill="none"/>
          </g>
          <g>
            <path d="M 14.8 264.5 C 17.8 271.8 23.8 277.2 35.4 279 C 38.4 279.3 40.8 278.8 42.1 276.9 C 43.4 275 42.9 272.4 41.3 270.8 C 36.6 266.2 31.2 262.7 25.3 260.1 L 16.3 261.9 C 15 262.2 14.4 263.4 14.8 264.5 Z " fill="#C38F4E" stroke-width="1"/>
            <path d="M 14.4 261.9 C 15.9 270.4 23.8 277.2 35.4 279.1 C 38.4 279.4 40.8 278.9 42.1 277 C 43.4 275.1 42.9 272.5 41.3 270.9 C 36.6 266.3 31.2 262.8 25.3 260.2 " stroke="#000000" stroke-linecap="round" stroke-width="1" fill="none"/>
          </g>
        </g>
        <path d="M 34.8 155.7 L 11.2 156.8 L 10.2 183.8 C 17.9 186.3 25.7 186.5 33.9 184.1 C 33.3 181.3 33.6 173.2 34.6 173.1 " id="Path" stroke="#000000" fill="#CCD8FF" stroke-linecap="round" stroke-width="1"/>
        <path d="M 11.1 156.7 C 8.7 179.8 8.9 202.1 11.8 216.5 C 9.4 225.5 10.7 241.6 13.2 258.1 C 13.2 258.3 13.5 258.5 13.7 258.5 L 25 257.8 C 25.2 257.8 25.4 257.6 25.4 257.4 C 27.7 244.4 30 231.9 30.2 221 C 35.5 201.4 36.1 179 34.2 155 L 11.1 156.7 Z " id="Path" stroke="#000000" fill="#333333" stroke-linecap="round" stroke-width="1"/>
        <g>
          <path d="M 33.5 277.2 C 25.6 274.5 19 269.9 13.4 264 L 12.4 258.2 C 12.3 257.5 13 256.9 13.7 257.2 L 15.8 258.2 C 17.5 255.9 21 253.7 24.5 254.1 C 29.2 254.5 25.5 257.8 25.5 257.8 L 41.4 267.7 L 40.6 273.5 L 33.9 277.7 " id="Path" stroke="#000000" fill="#000000" stroke-linecap="round" stroke-linejoin="round" stroke-width="1"/>
          <polygon id="Path" stroke="#000000" fill="#000000" stroke-linecap="round" stroke-linejoin="round" points="29.4 13.7 27.8 15.3 17 7 13.5 3.8" stroke-width="1" transform="matrix(1,0,0,1,12,254)"/>
          <path d="M 37.3 272.3 L 33.9 276.7 C 26.6 274 18.6 269.6 13.3 264.1 L 12.3 258.3 C 12.2 257.6 12.9 257 13.6 257.3 L 15.7 258.3 L 17.6 262.3 C 22.3 266.8 30.5 269.5 37.3 272.3 Z " id="Path" stroke="#000000" fill="#000000" stroke-linecap="round" stroke-linejoin="round" stroke-width="1"/>
          <path d="M 32 279.4 C 32.1 278.8 32.4 277.8 32.7 277.2 C 32.9 276.8 33.5 277.4 33.7 277 C 35.2 273.9 37.9 269.3 41.4 267.7 C 41.4 267.7 49.5 271.4 47.2 277.5 C 46.2 280.1 43.6 282 40.3 281.9 C 36.7 281.9 32.2 279.9 32 279.4 Z " id="Path" stroke="#000000" fill="#FFFFFF" stroke-linecap="round" stroke-linejoin="round" stroke-width="1"/>
          <path d="M 34 276.7 C 34.5 273 36.7 269.9 41.4 267.7 C 41.4 267.7 50 271.6 45.6 276.7 C 41.2 281.8 34 276.7 34 276.7 Z " id="Path" stroke="#000000" fill="#FFFFFF" stroke-linecap="round" stroke-linejoin="round" stroke-width="1"/>
          <path d="M 12.7 267.2 C 16.8 272.2 25.5 276.9 32.8 279.9 C 32.8 279.9 34.1 277 33.8 276.8 C 26.5 273.7 17.5 269.1 13.3 264 L 12.7 267.2 Z " id="Path" stroke="#000000" fill="#FFFFFF" stroke-linecap="round" stroke-linejoin="round" stroke-width="1"/>
          <g>
            <g id="Oval">
              <circle cx="1.1" cy="6.7" r="1" stroke-width="1" fill="#000000" transform="matrix(1,0,0,1,20,259)"/>
              <circle cx="9.2" cy="1.9" r="1" stroke-width="1" fill="#000000" transform="matrix(1,0,0,1,20,259)"/>
              <circle cx="16.6" cy="6.5" r="1" stroke-width="1" fill="#000000" transform="matrix(1,0,0,1,20,259)"/>
              <circle cx="12.6" cy="4.2" r="1" stroke-width="1" fill="#000000" transform="matrix(1,0,0,1,20,259)"/>
              <circle cx="9.6" cy="11.2" r="1" stroke-width="1" fill="#000000" transform="matrix(1,0,0,1,20,259)"/>
              <circle cx="5.1" cy="8.9" r="1" stroke-width="1" fill="#000000" transform="matrix(1,0,0,1,20,259)"/>
            </g>
            <g id="Path" stroke="#FFFFFF" stroke-linecap="round" stroke-linejoin="round">
              <path d="M 21.2 265.7 C 25.3 264 28 262.4 29 261 " stroke-width="1" fill="none"/>
              <path d="M 29.7 270.2 C 32.8 269 35.4 267.6 36.4 265.7 " stroke-width="1" fill="none"/>
              <path d="M 25.2 267.8 C 28.8 266 31.9 264.4 32.4 263.3 " stroke-width="1" fill="none"/>
            </g>
          </g>
        </g>
      </g>
      <path d="M60.7,168.3 C60.1,170.1 52.7,171.8 43.6,172.8 C42.7,172.9 41.7,173 40.7,173.1 C39.9,173.2 39.1,173.3 38.3,173.3 C37.4,173.4 36.4,173.4 35.5,173.5 C23.3,174.4 10.9,174 9.6,171.5 C-2.8,149.6 9.8,84.8 14.5,81.4 C17.8,79.1 21.7,78.7 23.8,78.7 C24.6,78.7 25.4,79 26,79.5 C28.9,81.9 38.2,83.3 40.4,80.4 C40.4,80.4 40.6,80.3 40.8,80.3 C43.9,79.5 47.2,80.6 49.3,83.1 C49.3,83.1 49.4,83.2 49.4,83.2 C54.3,90.1 57.5,99.3 56.8,106.2 C54.7,126.3 64,143.4 60.7,168.3 Z" id="Path" stroke="#000000" fill="#540096" stroke-linecap="round" stroke-linejoin="round" stroke-width="1"/>
      <g id="Group-2">
        <g id="Group">
          <g id="Path">
            <path d="M 19.3 185 C 17.1 184.9 16.1 181.7 14.5 180 L 14.1 180.4 C 14 184.1 14.1 187.5 14.6 190.4 C 14.6 190.6 14.7 190.8 14.7 191 C 14.7 192.3 14.1 193.4 12.8 193.7 C 12.4 193.8 12 193.7 11.7 193.5 C 11.7 193.6 11.7 193.7 11.7 193.8 C 11.7 195 10.8 196.1 9.5 196.3 C 8.7 196.4 8.1 195.9 7.8 195.2 C 7.6 194.7 7.3 194.2 7.1 193.6 C 7.1 193.6 7.1 193.6 7.1 193.6 C 6.2 194.7 4.4 194.3 4 192.9 C 3.2 190.4 1.9 185 1.9 182.9 C 1.9 179.3 4 175.3 4.6 174.1 L 4.7 174.6 L 4.8 173.8 L 3.5 168.1 C 6.1 165.4 8.8 164.7 11.6 168.9 L 11.7 172.1 L 13.5 172.5 L 13.8 173 C 16.4 174.3 17.6 175.9 18.5 179 C 18.5 179 20.7 181.4 21.3 182.7 C 22 184.3 20.1 185.1 19.3 185 Z " fill="#C38F4E" stroke-width="1"/>
            <g stroke="#000000" stroke-linecap="round" stroke-linejoin="round">
              <path d="M 14.3 180.1 L 14.2 179.7 C 16 181.3 17 185 19.4 185.1 C 20.2 185.2 22 184.3 21.4 182.8 C 20.9 181.5 18.6 179.1 18.6 179.1 C 17.5 175.3 15.8 173.7 11.8 172.3 L 11.7 169.1 " stroke-width="1" fill="none"/>
              <path d="M 7.2 193.6 C 7.1 193.6 7.1 193.6 7.2 193.6 C 6.2 194.7 4.5 194.3 4.1 193 C 3.3 190.5 2 185.1 2 183 C 2 178.7 4.9 173.9 4.9 173.9 L 3.6 168.2 " stroke-width="1" fill="none"/>
              <path d="M 5.8 184.4 C 5.4 187.8 6.2 191.8 7.8 195.2 C 8.1 195.9 8.8 196.4 9.5 196.3 C 10.9 196.2 11.9 194.8 11.6 193.4 " stroke-width="1" fill="none"/>
              <path d="M 9.4 184 C 9.6 187.1 9.9 190 10.7 192.4 C 11 193.3 11.9 193.9 12.8 193.7 C 14.3 193.4 15 191.9 14.7 190.4 C 14.1 187.4 14.1 183.6 14.2 179.7 " stroke-width="1" fill="none"/>
            </g>
          </g>
          <g>
            <path d="M 13.1 134 C 15.5 139.4 13.2 148.2 13.1 153.6 C 13 159 11.7 168.9 11.7 168.9 C 11.7 168.9 6.7 172.4 3.6 168.1 C 3.6 168.1 2.6 148.1 2.1 143.5 C 1.6 138.9 2.1 136.1 4 133.4 C 6 131 10.3 127.7 13.1 134 Z " id="Shape_58_" fill="#C38F4E" stroke-width="1"/>
            <path d="M 14.1 138.1 C 14.6 143.2 13.2 149.5 13.1 153.7 C 13 159.1 11.7 169.3 11.7 169.3 " id="Shape_57_" stroke="#000000" stroke-linecap="round" stroke-width="1" fill="none"/>
            <path d="M 3.7 168.7 C 2.8 165.9 2.4 148.1 2 143.6 C 1.8 141.2 1.8 139.4 2.1 137.7 " id="Shape_56_" stroke="#000000" stroke-linecap="round" stroke-width="1" fill="none"/>
          </g>
          <g id="Path">
            <path d="M 19.9 93.5 C 17.5 85.7 12.8 80.6 9.4 86.5 C 6.5 91.7 2.1 114 2.3 129.1 C 2.3 130 2.2 131.2 2.2 132 C 2.3 134.4 0.6 139.5 4.9 140.1 C 6.2 140.3 12.5 140.9 13.9 138.9 C 15 137.4 15.7 131.4 15.7 129.9 C 15.7 116.1 21.7 99.2 19.9 93.5 Z " fill="#C38F4E" stroke-width="1"/>
            <path d="M 12.9 83.9 C 11.7 83.8 10.5 84.6 9.4 86.5 C 6.5 91.7 2.1 114 2.3 129.1 C 2.3 130 2.2 131.2 2.2 132 C 2.2 133.5 1.6 136 2.1 137.8 " stroke="#000000" stroke-linecap="round" stroke-width="1" fill="none"/>
            <path d="M 14.1 138.7 C 14.7 134.5 15.7 127.8 15.7 126.3 C 17 112.1 21.7 99.1 19.9 93.5 C 18.3 88.3 15.7 84.3 13.1 83.9 " stroke="#000000" stroke-linecap="round" stroke-width="1" fill="none"/>
          </g>
        </g>
        <path d="M 13.5 81.4 C 16.9 81 20.4 86 20.9 90 C 22.3 99.9 22.1 110.7 18.7 120.2 C 17.6 123.2 12.9 121.6 10.2 120.9 C 6.8 120 1.9 119.6 1.3 115.9 C -0.2 107.5 2.4 98.9 5 91.2 C 6.7 86.6 9.7 81.8 13.5 81.4 Z " id="ID0.8950433996506035_12_" stroke="#000000" fill="#540096" stroke-linecap="round" stroke-linejoin="round" stroke-width="1"/>
      </g>
    </g>
  </g>
</svg>