<?xml version="1.0" encoding="UTF-8"?>
<svg width="43px" height="32px" viewBox="0 0 43 32" version="1.1" xmlns="http://www.w3.org/2000/svg" xmlns:xlink="http://www.w3.org/1999/xlink">
    <!-- Generator: Sketch 52.4 (67378) - http://www.bohemiancoding.com/sketch -->
    <title>Slice 1</title>
    <desc>Created with Sketch.</desc>
    <g id="Page-1" stroke="none" stroke-width="1" fill="none" fill-rule="evenodd">
        <g id="Watermelon-c">
            <g id="Page-1">
                <g id="Watermelon-c">
                    <path d="M0.1,22.3 C11.9,34.1 31.1,34.1 42.9,22.3 L38,17.4 C28.9,26.5 14.2,26.5 5.1,17.4 L0.1,22.3 Z" id="path3015-6" fill="#DAEAD4"></path>
                    <path d="M4.5,17.9 C13.9,27.3 29.1,27.3 38.4,17.9 L21.4,0.9 L4.5,17.9 Z" id="path3015" fill="#EE1717"></path>
                    <path d="M18.8,19.2 C19.7,19.6 20.2,20.3 20,20.9 C19.8,21.5 18.9,21.6 18,21.3 C17.1,20.9 16.6,20.2 16.8,19.6 C17,19 17.9,18.9 18.8,19.2 Z" id="path7002-5-0" fill="#231F20"></path>
                    <g id="use4049" transform="translate(15.455315, 13.353866) rotate(-48.949534) translate(-15.455315, -13.353866) translate(13.455315, 11.853866)" fill="#231F20">
                        <path d="M2.4,0.4 C3.2,0.7 3.7,1.4 3.4,1.8 C3.2,2.3 2.4,2.4 1.6,2.1 C0.8,1.8 0.3,1.1 0.6,0.7 C0.8,0.2 1.6,0.1 2.4,0.4 Z" id="path7002-5-0_1_"></path>
                    </g>
                    <g id="use4051" transform="translate(11.434274, 18.599616) rotate(-34.425109) translate(-11.434274, -18.599616) translate(9.434274, 17.099616)" fill="#231F20">
                        <path d="M2.5,0.4 C3.3,0.7 3.8,1.4 3.6,1.9 C3.3,2.3 2.5,2.5 1.7,2.2 C0.9,1.9 0.4,1.2 0.6,0.7 C0.8,0.2 1.7,0.1 2.5,0.4 Z" id="path7002-5-0_2_"></path>
                    </g>
                    <g id="use4053" transform="translate(31.836449, 16.895641) rotate(-20.297637) translate(-31.836449, -16.895641) translate(29.836449, 15.395641)" fill="#231F20">
                        <path d="M2.3,0.3 C3.1,0.6 3.5,1.2 3.3,1.7 C3.1,2.2 2.3,2.3 1.5,2 C0.7,1.7 0.3,1.1 0.5,0.6 C0.8,0.2 1.6,0 2.3,0.3 Z" id="path7002-5-0_3_"></path>
                    </g>
                    <g id="use4055" transform="translate(20.761312, 8.105666) rotate(-21.131326) translate(-20.761312, -8.105666) translate(18.761312, 6.605666)" fill="#231F20">
                        <path d="M2.3,0.3 C3.1,0.6 3.5,1.2 3.3,1.7 C3.1,2.2 2.4,2.3 1.6,2 C0.8,1.7 0.4,1.1 0.6,0.6 C0.8,0.2 1.6,2.77555756e-17 2.3,0.3 Z" id="path7002-5-0_4_"></path>
                    </g>
                    <g id="use4059" transform="translate(27.349871, 11.792674) rotate(36.941358) translate(-27.349871, -11.792674) translate(25.349871, 10.292674)" fill="#231F20">
                        <path d="M2.2,0.3 C3,0.7 3.4,1.4 3.2,1.9 C3,2.4 2.2,2.6 1.4,2.3 C0.6,1.9 0.2,1.2 0.4,0.7 C0.7,0.1 1.5,0 2.2,0.3 Z" id="path7002-5-0_5_"></path>
                    </g>
                    <path d="M22.4,13.6 C23,14.1 23.3,14.8 23,15.3 C22.7,15.7 21.9,15.6 21.2,15.2 C20.6,14.7 20.3,14 20.6,13.5 C21,13.1 21.7,13.1 22.4,13.6 Z" id="path7002-5-0-1" fill="#231F20"></path>
                    <path d="M26.9,20.1 C26.8,21 26.2,21.7 25.6,21.7 C25,21.6 24.6,20.8 24.7,19.8 C24.8,18.9 25.4,18.2 26,18.2 C26.7,18.3 27.1,19.1 26.9,20.1 Z" id="path7002-5-0-14" fill="#231F20"></path>
                </g>
            </g>
            <path d="M2.2,20.2 L0.1,22.3 C11.9,34.1 31.1,34.1 42.9,22.3 L41.1,20.5 C30.2,31.2 12.9,31.2 2.2,20.2 Z" id="Path" fill="#99C566"></path>
        </g>
    </g>
</svg>