<svg version="1.1" xmlns="http://www.w3.org/2000/svg" xmlns:xlink="http://www.w3.org/1999/xlink" width="95.06618" height="245.79699"><defs><linearGradient x1="239.21385" y1="58.83829" x2="239.21385" y2="70.8907" gradientUnits="userSpaceOnUse" id="color-1"><stop offset="0" stop-color="#1d140d"/><stop offset="1" stop-color="#1d140d" stop-opacity="0"/></linearGradient></defs><g transform="translate(-191.99191,-57.55)"><g data-paper-data="{&quot;isPaintingLayer&quot;:true}" fill-rule="nonzero" stroke-linejoin="miter" stroke-miterlimit="10" stroke-dasharray="" stroke-dashoffset="0" style="mix-blend-mode: normal"><g fill="#000000" stroke="none" stroke-width="1" stroke-linecap="butt"><path d="M228.23722,86.3706c0.87249,0.00341 1.56741,0.61511 1.65583,1.52411c0.08842,0.909 -0.06916,14.78858 -0.06916,14.78858c-0.00392,0.83816 -0.75161,1.51472 -1.67003,1.51116c-0.87249,-0.00341 -1.58517,-0.61941 -1.6509,-1.39961l-0.00493,-0.1245l0.06916,-14.78858c0.00392,-0.83816 0.75161,-1.51472 1.67003,-1.51116z" data-paper-data="{&quot;origPos&quot;:null}" id="Path"/><path d="M250.65359,86.68851c0.87249,0.00341 1.56741,0.61511 1.65583,1.52411c0.08842,0.909 -0.06915,14.78858 -0.06915,14.78858c-0.00392,0.83816 -0.75162,1.51472 -1.67003,1.51116c-0.87249,-0.00341 -1.58518,-0.61941 -1.65091,-1.39961l-0.00493,-0.1245l0.06916,-14.78858c0.00392,-0.83816 0.75161,-1.51472 1.67003,-1.51116z" data-paper-data="{&quot;origPos&quot;:null}" id="Path"/></g><g stroke="none" stroke-width="0"><g data-paper-data="{&quot;origPos&quot;:null}" stroke-linecap="butt"><path d="M253.15586,109.48003c-4.72232,8.22842 -20.89894,8.58573 -27.52893,0.4508c2.74564,-0.96689 6.58908,-2.37226 6.58908,-2.37226l0.63746,-8.21227l12.99013,-0.18749l0.76898,7.87867c0,0 5.86611,2.11469 6.54328,2.44254z" data-paper-data="{&quot;origPos&quot;:null}" fill="#755135"/><path d="M232.94526,99.37227l12.99013,-0.1875l0.6947,7.79293c-3.52326,0.04049 -11.58124,-0.28246 -14.1566,-2.28764z" data-paper-data="{&quot;origPos&quot;:null}" fill="#4c392b"/></g><path d="M255.18513,77.76717c0.07108,-0.00668 1.81177,-1.45494 2.65144,0.69293c0.65265,1.66944 -0.98403,6.63648 -2.8792,7.97335c-1.54443,10.44219 -2.78418,17.54028 -15.36151,17.40482c-12.00871,0.22269 -13.79335,-7.71297 -15.77778,-16.7831c-2.04757,-2.85949 -2.63549,-4.3362 -3.07469,-6.62933c-0.39543,-1.85783 0.95883,-3.76708 2.80642,-2.70183c0.22206,-13.18639 6.57626,-18.40216 16.41651,-18.78523c9.84025,-0.38307 15.76581,8.88175 15.21881,18.82839z" data-paper-data="{&quot;origPos&quot;:null}" fill="#755135" stroke-linecap="round"/></g><g data-paper-data="{&quot;origPos&quot;:null}" stroke="none" stroke-width="0" stroke-linecap="butt"><path d="M257.67757,109.63007c2.80731,0.50774 3.92531,0.07726 6.89014,3.03767c8.82354,8.81143 11.85318,36.0817 12.99256,40.61049c-0.05555,2.11321 0.38277,5.75008 -2.96401,6.52766c-3.3054,0.76795 -6.10134,-0.80642 -7.19232,-3.26031c-1.01418,-3.53863 -4.49127,-16.61103 -5.90575,-20.88556" data-paper-data="{&quot;origPos&quot;:null,&quot;origRot&quot;:0,&quot;index&quot;:null}" fill="#755135"/><path d="M256.763,109.64468c3.2596,0.48152 6.01185,0.16919 9.59436,3.63744c7.17142,6.94347 9.51423,16.27853 11.27396,25.41931c-2.35793,1.1315 -14.72036,4.40469 -17.21916,5.30165" data-paper-data="{&quot;origPos&quot;:null,&quot;index&quot;:null}" fill="#eba15b"/></g><g data-paper-data="{&quot;origPos&quot;:null}" stroke="none" stroke-width="0" stroke-linecap="butt"><path d="M217.55198,135.74154c-1.41448,4.27454 -4.89157,17.34694 -5.90575,20.88556c-1.09097,2.45389 -3.88692,4.02826 -7.19232,3.26031c-3.34678,-0.77759 -2.90846,-4.41447 -2.96401,-6.52766c1.13938,-4.52879 4.16903,-31.79905 12.99256,-40.61049c2.96483,-2.96041 4.08283,-2.52994 6.89014,-3.03767" data-paper-data="{&quot;origPos&quot;:null,&quot;origRot&quot;:0,&quot;index&quot;:null}" fill="#755135"/><path d="M219.69784,144.07342c-2.4988,-0.89696 -15.49465,-4.45166 -17.85257,-5.58317c1.75973,-9.14078 4.10255,-18.47585 11.27397,-25.41931c3.5825,-3.46826 6.33475,-3.15592 9.59435,-3.63744" data-paper-data="{&quot;origPos&quot;:null,&quot;index&quot;:null}" fill="#eba15b"/></g><path d="M212.75957,196.14397c1.15815,-17.16954 4.54257,-27.07992 4.54257,-27.07992l23.53859,0.24689c0,0 1.29768,11.10731 -1.12927,26.72553c-1.11514,7.1763 -4.28717,34.99522 -4.28717,34.99522c-0.68227,6.6317 -4.74846,11.77144 -12.14931,11.38869c-9.64059,-0.49859 -10.54922,-8.27747 -10.72404,-12.27588c0.10032,-7.71996 -0.70238,-20.49483 0.20864,-34.00053z" data-paper-data="{&quot;origPos&quot;:null,&quot;origRot&quot;:0}" fill="#47646d" stroke="none" stroke-width="0" stroke-linecap="butt"/><path d="M265.36656,195.4862c1.13167,13.489 1.1008,26.26366 1.3273,33.98095c-0.10943,4.00073 -1.4583,11.52356 -11.08946,12.17968c-7.39361,0.50368 -10.9849,-4.8596 -11.7617,-10.63483c0,0 -4.1939,-28.03562 -5.4262,-35.19274c-2.68192,-15.57646 -2.1401,-26.51216 -2.1401,-26.51216l25.49841,-0.84569c0,0 2.15308,9.87649 3.59173,27.02479z" data-paper-data="{&quot;origPos&quot;:null,&quot;origRot&quot;:0,&quot;index&quot;:null}" fill="#47646d" stroke="none" stroke-width="0" stroke-linecap="butt"/><path d="M227.03476,74.57121c2.7189,-0.7006 6.35095,-0.34118 8.40576,0.52416" data-paper-data="{&quot;origPos&quot;:null,&quot;origRot&quot;:0}" fill="none" stroke="#000000" stroke-width="2" stroke-linecap="round"/><path d="M243.36235,75.09009c2.02289,-0.9375 5.63996,-1.42519 8.38196,-0.8212" data-paper-data="{&quot;origPos&quot;:null,&quot;origRot&quot;:0,&quot;index&quot;:null}" fill="none" stroke="#000000" stroke-width="2" stroke-linecap="round"/><g data-paper-data="{&quot;origPos&quot;:null}"><path d="M237.768,91.37556c0.74936,0.08607 1.45108,0.38993 2.00654,0.86888c0.55721,-0.48011 1.26144,-0.78407 2.0131,-0.86888c1.04477,0.1482 2.06024,0.44103 3.01311,0.86888c0,0 -0.17256,2.69846 -2.1791,3.56734c-1.60455,0.64549 -3.3354,0.73114 -4.93992,0.08564c-1.25678,-0.57684 -2.22004,-1.65624 -2.93341,-2.7841c0,0 2.01311,-1.73776 3.01968,-1.73776z" data-paper-data="{&quot;origPos&quot;:null}" fill="#523825" stroke="none" stroke-width="1" stroke-linecap="butt"/><path d="M245.52497,92.89337c-2.92675,1.03732 -7.79339,1.36821 -11.02109,0.10688" data-paper-data="{&quot;origPos&quot;:null,&quot;origRot&quot;:0,&quot;index&quot;:null}" fill="none" stroke="#241b15" stroke-width="1.5" stroke-linecap="round"/></g><g data-paper-data="{&quot;origPos&quot;:null}" fill="none" stroke="#4c392b" stroke-width="1.5" stroke-linecap="round"><path d="M236.88614,86.98437c0,0 1.73567,-0.42459 2.0996,0.45925" data-paper-data="{&quot;origPos&quot;:null}"/><path d="M241.08099,87.4782c0.23096,-0.8665 1.71467,-0.64121 1.71467,-0.64121" data-paper-data="{&quot;origPos&quot;:null}"/></g><path d="M240.78021,181.71575c-12.97253,0.138 -25.9492,-4.3794 -25.9492,-4.3794l1.92414,-66.95971c0,0 8.86279,-2.11327 12.56196,-2.36908c2.37596,8.85069 18.17406,9.31741 21.09539,-0.08769c1.29066,0.46771 11.25302,2.09335 11.25302,2.09335l2.59295,66.15651c0,0 -12.64115,5.34221 -23.47828,5.54601z" data-paper-data="{&quot;origPos&quot;:null}" fill="#f2dbc6" stroke="none" stroke-width="0" stroke-linecap="butt"/><g><path d="M230.4071,81.92772c-2.28157,-0.33758 -3.84145,-2.07392 -3.54273,-3.24236c0.29871,-1.16844 2.34289,-1.32651 4.62447,-0.98894c2.28157,0.33758 3.93661,1.65161 3.63792,2.82004c-0.29869,1.16843 -2.4381,1.74885 -4.71966,1.41126z" data-paper-data="{&quot;origPos&quot;:null,&quot;origRot&quot;:0}" fill="#ffffff" stroke="none" stroke-width="0" stroke-linecap="butt"/><path d="M230.06132,80.22142c-0.11142,-1.60557 0.84529,-2.31414 2.33664,-2.2784c3.01091,0.51205 3.92248,3.27058 0.92802,3.95957c-1.65255,0.37511 -3.15521,0.1827 -3.26467,-1.68116z" data-paper-data="{&quot;origPos&quot;:null,&quot;origRot&quot;:0}" fill="#000000" stroke="none" stroke-width="1" stroke-linecap="butt"/><path d="M226.877,78.22912c2.63444,-1.00566 6.28138,-0.36272 8.10832,1.01619" data-paper-data="{&quot;origPos&quot;:null,&quot;origRot&quot;:0}" fill="none" stroke="#000000" stroke-width="1.5" stroke-linecap="round"/></g><g><path d="M251.98315,78.59771c0.40679,1.10591 -1.26881,2.68289 -3.51822,3.16338c-2.24943,0.48049 -4.39142,0.00424 -4.78427,-1.06376c-0.39285,-1.06799 1.11218,-2.32329 3.36162,-2.8038c2.24943,-0.48049 4.54803,-0.36381 4.94087,0.70418z" data-paper-data="{&quot;origPos&quot;:null,&quot;origRot&quot;:0}" fill="#ffffff" stroke="none" stroke-width="0" stroke-linecap="butt"/><path d="M249.17467,77.46555c3.07408,-0.10782 3.83802,1.87257 1.52742,3.44151c-1.27806,0.8616 -2.72971,0.90648 -3.41149,-0.65299c-1.05103,-2.40414 0.41453,-2.69107 1.88405,-2.78853z" data-paper-data="{&quot;origPos&quot;:null,&quot;origRot&quot;:0}" fill="#000000" stroke="none" stroke-width="1" stroke-linecap="butt"/><path d="M243.48658,79.45485c2.05632,-1.75504 5.83734,-2.10347 8.10892,-1.40267" data-paper-data="{&quot;origPos&quot;:null,&quot;origRot&quot;:0}" fill="none" stroke="#000000" stroke-width="1.5" stroke-linecap="round"/></g><g><g data-paper-data="{&quot;origPos&quot;:null,&quot;origRot&quot;:0,&quot;index&quot;:null}" stroke-linecap="round"><path d="M226.27949,285.35011c0,0 3.46356,5.16292 6.32938,7.30429c2.86583,2.14136 11.66702,1.13861 7.7829,6.34819c-2.65484,3.56081 -7.30772,2.85117 -11.83426,2.22314c-3.82437,-0.53061 -4.17651,-4.48898 -8.0374,-4.51793c-4.09555,-0.03069 -7.97456,0.55571 -10.3086,-2.10048c-0.82968,-0.94419 2.93083,-10.04716 2.93083,-10.04716c0,0 4.12871,1.98346 6.28132,2.03671c2.66135,0.06585 6.85583,-1.24676 6.85583,-1.24676z" data-paper-data="{&quot;origPos&quot;:null}" fill="#ffffff" stroke="none" stroke-width="0"/><path d="M211.59424,297.87738c-1.95484,-1.03241 -1.85861,-1.74106 -1.53458,-3.43267c2.95386,1.84535 2.40005,2.32886 10.27695,1.80599c2.81927,0.28148 4.41042,3.33956 7.93363,4.46063c9.36529,1.90708 11.79865,-1.67373 13.13197,-3.09463c-0.03114,1.09679 -0.30195,2.23809 -0.79085,2.89384c-2.65484,3.5608 -7.17566,3.00013 -11.70221,2.37208c-6.44326,-1.53416 -5.03643,-4.25865 -8.89732,-4.2876c-4.09555,-0.03069 -5.73945,0.69673 -8.41759,-0.71768z" data-paper-data="{&quot;origPos&quot;:null}" fill="#a5a5a5" stroke="none" stroke-width="0"/><path d="M229.82048,294.37985l2.29813,-2.03743" data-paper-data="{&quot;origPos&quot;:null}" fill="none" stroke="#000000" stroke-width="1.5"/><path d="M230.18711,290.29241l-2.1777,2.04467" data-paper-data="{&quot;origPos&quot;:null}" fill="none" stroke="#000000" stroke-width="1.5"/><path d="M228.37606,288.24962l-2.29089,1.917" data-paper-data="{&quot;origPos&quot;:null}" fill="none" stroke="#000000" stroke-width="1.5"/></g><path d="M212.50625,232.34816c0.92775,-8.9465 5.51805,-14.55666 11.9486,-13.95651c6.46263,-0.45539 10.47167,4.19137 10.71927,14.34822l-2.09495,55.65334c0,0 -6.2776,2.32315 -10.52836,2.01457c-3.94052,-0.28604 -12.38088,-2.92461 -12.38088,-2.92461c0,0 2.20725,-54.81103 2.33633,-55.13501z" data-paper-data="{&quot;origPos&quot;:null,&quot;origRot&quot;:0}" fill="#47646d" stroke="none" stroke-width="0" stroke-linecap="butt"/></g><g><g data-paper-data="{&quot;origPos&quot;:null,&quot;origRot&quot;:0}" stroke-linecap="round"><path d="M274.03613,292.66972c2.93472,2.04593 11.69815,0.75419 7.98751,6.08873c-2.53627,3.64622 -7.20995,3.09004 -11.75471,2.61124c-3.83976,-0.40452 -4.32193,-4.34916 -8.18167,-4.25108c-4.09435,0.10405 -7.95196,0.81775 -10.37211,-1.76023c-0.86029,-0.91639 2.59873,-10.13814 2.59873,-10.13814c0,0 3.54856,1.6489 7.24985,1.74943c1.23376,0.03351 5.90615,-1.39209 5.90615,-1.39209c0,0 3.63153,5.0462 6.56625,7.09214z" data-paper-data="{&quot;origPos&quot;:null,&quot;index&quot;:null}" fill="#ffffff" stroke="none" stroke-width="0"/><path d="M251.558,295.20082c3.01298,1.74719 2.47537,2.24866 10.3308,1.46693c2.82699,0.18858 4.51789,3.19267 8.07607,4.19724c9.42297,1.59796 11.73723,-2.06096 13.02307,-3.52494c0.00496,1.09723 -0.22816,2.24682 -0.69524,2.91831c-2.53627,3.64622 -7.07308,3.23455 -11.61783,2.75577c-6.49023,-1.32137 -5.17378,-4.09067 -9.03355,-3.9926c-4.09435,0.10405 -5.71345,0.88518 -8.43665,-0.44038c-1.98775,-0.96756 -1.91488,-1.67897 -1.64667,-3.38033z" data-paper-data="{&quot;origPos&quot;:null,&quot;index&quot;:null}" fill="#a5a5a5" stroke="none" stroke-width="0"/><path d="M273.53583,292.37413l-2.22985,2.11192" data-paper-data="{&quot;origPos&quot;:null,&quot;index&quot;:null}" fill="none" stroke="#000000" stroke-width="1.5"/><path d="M269.42872,292.50397l2.10926,-2.11519" data-paper-data="{&quot;origPos&quot;:null,&quot;index&quot;:null}" fill="none" stroke="#000000" stroke-width="1.5"/><path d="M267.43415,290.39799l2.22658,-1.99133" data-paper-data="{&quot;origPos&quot;:null,&quot;index&quot;:null}" fill="none" stroke="#000000" stroke-width="1.5"/></g><path d="M259.0584,291.1296c-4.23078,0.51453 -11.73963,-1.4857 -11.73963,-1.4857l-3.105,-55.52025c-0.24567,-10.15688 4.37697,-14.73551 10.85409,-14.59434c6.39382,-0.91158 10.12566,4.21643 11.48656,13.10735c0.14467,0.31734 4.44837,54.68041 4.44837,54.68041c0,0 -8.02241,3.33557 -11.9444,3.81254z" data-paper-data="{&quot;origPos&quot;:null,&quot;origRot&quot;:0,&quot;index&quot;:null}" fill="#47646d" stroke="none" stroke-width="0" stroke-linecap="butt"/></g><g stroke="none" stroke-linecap="butt"><g data-paper-data="{&quot;origPos&quot;:null,&quot;origRot&quot;:0}"><path d="M246.08674,60.26887c0.39907,-0.71305 1.28852,-0.95918 1.98664,-0.54971c0,0 2.9524,2.10229 3.78289,2.87855c1.2482,1.16669 2.27773,2.4033 3.00845,3.7108c1.66345,2.97643 3.1005,7.5883 4.36028,13.44107c0.78199,3.63316 2.64884,16.51908 2.64884,16.51908c0.00504,0.04632 0.00898,0.08325 0.01184,0.11047c0.08587,0.81773 -0.49265,1.55049 -1.29219,1.63671c-0.75956,0.0819 -1.44533,-0.44919 -1.58564,-1.20359l-0.0222,-0.16466c0,0 -1.83949,-12.70894 -2.60456,-16.26339c-1.20095,-5.57949 -2.56406,-9.95405 -4.04398,-12.60211c-0.56284,-1.0071 -1.40221,-2.01529 -2.44329,-2.98839c-0.72358,-0.67633 -3.26562,-2.49233 -3.26562,-2.49233c-0.69812,-0.40945 -0.94054,-1.31943 -0.54148,-2.03246z" data-paper-data="{&quot;origPos&quot;:null,&quot;origRot&quot;:0}" id="Path" fill="#000000" stroke-width="1"/><path d="M258.46756,92.9183c0,0 -0.80117,-1.15773 -0.90211,-1.95122c-0.08096,-0.63644 0.34109,-1.90713 0.34109,-1.90713l2.78908,-0.40617c0,0 0.81591,0.97094 0.99474,1.81883c0.13693,0.64914 -0.32187,2.09325 -0.32187,2.09325z" data-paper-data="{&quot;origPos&quot;:null,&quot;origRot&quot;:0,&quot;index&quot;:null}" fill="#bd8838" stroke-width="0"/></g><g data-paper-data="{&quot;origPos&quot;:null}"><path d="M248.46646,60.06936c0.90448,0.91884 1.80711,1.97493 2.65093,3.15732c1.41409,1.98149 3.31185,6.79678 3.31185,6.79678c0.82047,3.02689 1.50604,8.48562 2.09139,15.77583c0.01963,0.24444 1.04998,17.89641 1.04998,17.89641c0.03061,0.82642 -0.59823,1.5218 -1.40456,1.55318c-0.80633,0.03138 -1.48482,-0.61312 -1.51543,-1.43954l-1.16263,-19.21983c-0.56876,-6.67068 -1.23315,-11.62594 -1.96908,-14.09883c-0.57287,-1.92497 -1.52758,-3.76898 -2.76004,-5.49593c-0.74722,-1.04702 -1.54927,-1.98544 -2.34947,-2.79834c-0.27801,-0.28242 -1.02284,-0.96294 -1.02284,-0.96294c-0.62911,-0.51788 -0.81875,-1.54165 -0.22419,-2.10519c1.43387,-1.35907 2.86458,0.4946 3.30409,0.94108z" data-paper-data="{&quot;origPos&quot;:null}" id="Path" fill="#000000" stroke-width="1"/><path d="M254.38062,100.70742c0,0 -0.65851,-1.2399 -0.66479,-2.03966c-0.00505,-0.64146 0.56457,-1.85696 0.56457,-1.85696l2.81781,-0.092c0,0 0.69527,1.05594 0.77246,1.91845c0.05911,0.66032 -0.5675,2.04406 -0.5675,2.04406z" data-paper-data="{&quot;origPos&quot;:null,&quot;origRot&quot;:0,&quot;index&quot;:null}" fill="#bd8838" stroke-width="0"/></g><g data-paper-data="{&quot;origPos&quot;:null}"><path d="M234.27598,59.98108c0.2281,0.76893 -0.21683,1.02751 -1.26224,1.99159c-1.45813,1.3447 -3.11056,2.55072 -4.25656,4.16969c-3.46494,4.89494 -3.99173,10.55331 -4.31181,13.18491c-0.78102,6.4214 0.4141,23.4793 0.4141,23.4793c0.09766,0.8125 -0.50011,1.54794 -1.33517,1.64267c-0.83505,0.09472 -1.59116,-0.48715 -1.68882,-1.29966c0,0 -1.22008,-17.54086 -0.41361,-24.1715c0.33421,-2.74782 0.6218,-7.89616 4.14166,-13.27021c1.52205,-2.32385 3.50217,-4.75693 6.32394,-6.18462c1.34002,-0.678 2.12028,-0.44636 2.38851,0.45782z" data-paper-data="{&quot;origPos&quot;:null,&quot;origRot&quot;:0}" id="Path" fill="#000000" stroke-width="1"/><path d="M221.59199,99.73438c0,0 -0.71416,-1.34976 -0.69764,-2.01241c0.02158,-0.86554 0.64744,-1.9563 0.64744,-1.9563l2.81746,-0.05395c0,0 0.64647,1.18468 0.68267,1.82569c0.04515,0.79921 -0.5322,2.0718 -0.5322,2.0718z" data-paper-data="{&quot;origPos&quot;:null,&quot;origRot&quot;:0}" fill="#bd8838" stroke-width="0"/></g><g data-paper-data="{&quot;origPos&quot;:null,&quot;origRot&quot;:0}"><path d="M233.6981,59.7722c0.60026,0.83762 0.01386,1.71614 -0.58076,2.20218c-0.67723,0.55358 -5.35327,4.35394 -7.48853,8.04333c-2.13526,3.68937 -3.24578,6.30728 -4.21114,11.14204c-0.65509,3.28087 -1.22239,6.81018 -1.69913,10.34516l-0.20182,1.54081c-0.04199,0.33056 -0.08205,0.65287 -0.12021,0.96626l-0.16721,1.42233l-0.08505,0.77841c-0.08398,0.81833 -0.81878,1.41361 -1.64122,1.32963c-0.78132,-0.0798 -1.36065,-0.74393 -1.34463,-1.51175l0.01212,-0.16624l0.14337,-1.28411l0.17009,-1.4117c0.0814,-0.65439 0.17053,-1.34336 0.26736,-2.06136c0.48446,-3.59215 1.06123,-7.18048 1.72992,-10.52942c0.94802,-4.74796 1.90465,-7.95164 4.4927,-12.28032c2.58804,-4.32867 7.75762,-8.47908 8.53338,-8.76248c0,0 1.43277,-0.82053 2.19078,0.23719z" data-paper-data="{&quot;origPos&quot;:null,&quot;origRot&quot;:0}" id="Path" fill="#000000" stroke-width="1"/><path d="M216.50754,93.29046c0,0 -0.50288,-1.43267 -0.38608,-2.08532c0.15257,-0.85248 0.93784,-1.84408 0.93784,-1.84408l2.79919,0.33581c0,0 0.46085,1.26015 0.39955,1.89869c-0.07642,0.79612 -0.84122,1.97414 -0.84122,1.97414z" data-paper-data="{&quot;origPos&quot;:null,&quot;origRot&quot;:0}" fill="#bd8838" stroke-width="4"/></g><path d="M240.13041,58.83829c6.86215,0.14502 10.752,3.50125 12.70233,7.96849c-8.71827,-0.02054 -19.04748,-0.04772 -26.84627,0.01145c2.31591,-4.41949 6.72088,-7.67215 14.14392,-7.97998z" data-paper-data="{&quot;origPos&quot;:null}" fill="url(#color-1)" stroke-width="0"/><path d="M236.87589,58.14043c0.93233,0.60145 0.67303,1.412 0.17945,1.94384c-0.49358,0.53184 -1.04316,1.45293 -1.39511,2.68919c-0.20918,0.73479 -0.6179,3.28015 -0.6179,3.28015c-0.08045,0.79206 -0.76523,1.36657 -1.5295,1.28319c-0.76427,-0.08337 -1.31862,-0.79306 -1.23816,-1.58512c0,0 0.47227,-2.86891 0.71636,-3.72632c0.4905,-1.72295 0.94419,-2.46495 1.85046,-3.28024c0.90627,-0.81529 1.37453,-1.03037 2.03438,-0.60469z" data-paper-data="{&quot;origPos&quot;:null}" id="Path" fill="#000000" stroke-width="1"/><path d="M239.49229,57.55c0.75753,0 1.3788,0.56044 1.43903,1.27325l0.00479,0.11375v7.15816c0,0.76602 -0.64642,1.387 -1.44382,1.387c-0.75753,0 -1.3788,-0.56044 -1.43903,-1.27324l-0.00479,-0.11375v-7.15816c0,-0.76602 0.64642,-1.387 1.44382,-1.387z" data-paper-data="{&quot;origPos&quot;:null}" id="Path" fill="#000000" stroke-width="1"/><path d="M243.9519,58.25991c0.80734,0.77999 1.39762,2.08993 1.91044,3.859c0.24097,0.83128 0.82283,3.7418 0.82866,3.78109c0.11773,0.79242 -0.40246,1.5344 -1.16187,1.65724c-0.75941,0.12284 -1.47047,-0.41996 -1.58819,-1.21238l-0.87713,-3.82873c-0.31827,-0.99876 -0.43868,-1.66389 -1.00258,-2.20867c-0.5639,-0.54478 -0.59779,-1.46343 -0.0757,-2.05185c0.52209,-0.58842 1.40247,-0.54048 1.96637,0.0043z" data-paper-data="{&quot;origPos&quot;:null}" id="Path" fill="#000000" stroke-width="1"/></g><path d="M285.82869,188.84772c0,0 1.18086,3.03098 1.2294,4.2403c-0.0509,0.38442 0.16175,3.44348 -1.06993,3.23391c-1.09992,-0.07938 -0.67056,-1.33526 -0.9461,-2.44127c-0.26951,-1.0818 -0.99619,-3.26378 -0.99619,-3.26378c0,0 0.45403,2.61642 0.48789,4.16534c-0.21968,1.52627 0.18475,4.61586 -1.35668,4.40934c-1.2844,-0.39958 -0.71039,-2.92282 -0.83524,-3.50068c-0.28483,-1.31816 -0.45128,-3.44619 -0.98899,-3.63092c0.17718,1.32749 0.32901,2.97181 0.32658,4.2985c-0.00206,1.11289 -0.2049,3.45376 -0.85156,4.40735c-0.51501,0.75943 -1.5281,0.83766 -1.82996,-0.01372c-0.24031,-0.49902 0.24028,-3.03015 0.20558,-3.56709c-0.10411,-1.61087 -0.0789,-3.34624 -0.65141,-4.22511c0.05625,1.43638 0.03419,3.36074 -0.24737,5.4318c-0.2623,1.92935 -1.1134,4.68894 -1.98157,4.40244c-2.33882,-0.38734 -0.3186,-3.34014 -0.45656,-5.71683c-0.15468,-2.66453 -0.64316,-3.34214 -1.48629,-5.87701c-0.57432,1.30739 0.08341,3.01486 -0.97295,4.22419c-1.36578,1.2417 -1.95964,0.00504 -1.94581,-0.51491c0.0556,-1.83043 -0.86371,-5.11801 -0.21784,-6.8691c0.55343,-1.81634 1.04905,-4.17177 1.79414,-6.12302c-0.15859,-2.0481 -5.04248,-18.58072 -5.74876,-25.52928c-0.00488,-0.0485 0.09639,-5.01648 3.86925,-5.50098c3.76644,-0.72616 6.05959,2.43221 6.38492,3.67999c2.70913,5.75576 3.66121,26.18504 3.66121,26.18504z" data-paper-data="{&quot;origPos&quot;:null,&quot;origRot&quot;:0,&quot;index&quot;:null}" fill="#755135" stroke="none" stroke-width="0" stroke-linecap="butt"/><path d="M197.84555,180.83374c0,0 0.95208,-20.4293 3.66121,-26.18504c0.32533,-1.24778 2.61848,-4.40615 6.38492,-3.67999c3.77286,0.4845 3.87413,5.45248 3.86925,5.50098c-0.70628,6.94857 -5.59017,23.48118 -5.74876,25.52928c0.74508,1.95126 1.24072,4.30668 1.79414,6.12302c0.64587,1.7511 -0.27344,5.03867 -0.21784,6.8691c0.01384,0.51995 -0.58003,1.7566 -1.94581,0.51491c-1.05637,-1.20933 -0.39863,-2.91679 -0.97295,-4.22419c-0.84313,2.53487 -1.33161,3.21248 -1.48629,5.87701c-0.13796,2.37668 1.88225,5.32949 -0.45656,5.71683c-0.86817,0.2865 -1.71927,-2.4731 -1.98157,-4.40244c-0.28156,-2.07106 -0.30361,-3.99543 -0.24737,-5.4318c-0.57251,0.87886 -0.5473,2.61423 -0.65141,4.22511c-0.0347,0.53694 0.44589,3.06807 0.20558,3.56709c-0.30186,0.85137 -1.31495,0.77315 -1.82996,0.01372c-0.64666,-0.9536 -0.84951,-3.29445 -0.85156,-4.40735c-0.00244,-1.32668 0.14939,-2.97101 0.32658,-4.2985c-0.53772,0.18473 -0.70416,2.31276 -0.98899,3.63092c-0.12485,0.57786 0.44916,3.10112 -0.83524,3.50068c-1.54144,0.20652 -1.13701,-2.88307 -1.35668,-4.40934c0.03387,-1.54892 0.48789,-4.16534 0.48789,-4.16534c0,0 -0.72668,2.18198 -0.99619,3.26378c-0.27554,1.10603 0.15382,2.3619 -0.9461,2.44127c-1.23168,0.20957 -1.01904,-2.84949 -1.06993,-3.23391c0.04855,-1.20932 1.2294,-4.2403 1.2294,-4.2403z" data-paper-data="{&quot;origPos&quot;:null,&quot;origRot&quot;:0,&quot;index&quot;:null}" fill="#755135" stroke="none" stroke-width="0" stroke-linecap="butt"/></g></g></svg>