<svg xmlns="http://www.w3.org/2000/svg" xmlns:xlink="http://www.w3.org/1999/xlink" version="1.1" width="64.25029838085175" height="80.31517112255096" viewBox="0.13960057497024536 0.11923426389694214 64.25029838085175 80.31517112255096">
  <!-- Exported by Scratch - http://scratch.mit.edu/ -->
  <g id="ID0.9514507986605167">
    <path id="ID0.33620395278558135" fill="#FF9400" d="M 51.2862 57.1859 C 53.7235 60.9479 59.0182 61.8533 58.8948 68.1761 C 56.7788 68.0324 56.2478 69.4746 55.5132 70.7123 C 51.1941 70.5229 51.7571 65.4505 48.75 63.9491 C 39.749 62.9828 39.7102 68.6402 33.5328 69.0215 C 23.8792 69.6175 13.5662 60.6749 10.7071 52.1135 C 5.7403 37.2404 12.5652 14.0072 22.5426 7.3074 C 28.993 2.9755 41.2014 1.9129 48.75 7.3074 C 54.5773 11.471 58.1542 24.9035 58.0494 34.3601 C 57.9386 44.2876 55.7026 49.4978 51.2862 57.1859 Z M 34.3782 60.5675 C 36.6194 60.2665 39.339 58.8192 40.296 55.4951 C 39.4684 52.3773 36.594 51.307 35.2236 48.7319 C 40.4845 42.2477 41.7433 50.0025 47.9046 51.2681 C 52.7631 40.5569 50.1779 23.1172 45.3684 13.2252 C 14.617 -5.9121 7.722 64.1494 34.3782 60.5675 Z " stroke-width="0.8453987836837769"/>
    <path id="ID0.25073340628296137" d="M 45.3684 13.2252 C 50.1779 23.1172 52.7631 40.5569 47.9046 51.2681 C 41.7433 50.0025 40.4845 42.2477 35.2236 48.7319 C 36.594 51.307 39.4684 52.3773 40.296 55.4951 C 39.339 58.8192 36.6194 60.2665 34.3782 60.5675 C 7.722 64.1494 14.617 -5.9121 45.3684 13.2252 Z M 32.6874 56.3405 C 26.9142 52.718 38.0608 35.9731 43.6776 43.6595 C 43.0106 30.3597 40.5454 15.8467 25.9242 19.1429 C 17.783 29.6301 18.6208 55.2119 32.6874 56.3405 Z " stroke-width="0.8453987836837769" fill="undefined"/>
    <path id="ID0.5218712696805596" d="M 63.9672 66.4853 C 63.9672 69.0215 63.9672 71.5577 63.9672 74.0939 C 59.6354 74.5529 58.5439 78.2515 55.5132 80.0117 C 54.1039 80.0117 52.6955 80.0117 51.2862 80.0117 C 50.4924 76.297 47.6408 74.6392 44.523 73.2485 C 25.548 86.0487 2.379 69.6496 0.5623 49.5773 C 0.5623 44.2234 0.5623 38.8686 0.5623 33.5147 C 6.0354 17.0075 15.9942 4.9867 33.5328 0.5442 C 34.3782 0.5442 35.2236 0.5442 36.069 0.5442 C 61.3929 0.2145 64.9462 35.9376 55.5132 55.4951 C 58.0367 59.4533 60.3954 63.5754 63.9672 66.4853 Z M 58.0494 34.3601 C 58.1542 24.9035 54.5773 11.471 48.75 7.3074 C 41.2014 1.9129 28.993 2.9755 22.5426 7.3074 C 12.5652 14.0072 5.7403 37.2404 10.7071 52.1135 C 13.5662 60.6749 23.8792 69.6175 33.5328 69.0215 C 39.7102 68.6402 39.749 62.9828 48.75 63.9491 C 51.7571 65.4505 51.1941 70.5229 55.5132 70.7123 C 56.2478 69.4746 56.7788 68.0324 58.8948 68.1761 C 59.0182 61.8533 53.7235 60.9479 51.2862 57.1859 C 55.7026 49.4978 57.9386 44.2876 58.0494 34.3601 Z " stroke-width="0.8453987836837769" fill="undefined"/>
  </g>
</svg>