<svg xmlns="http://www.w3.org/2000/svg" xmlns:xlink="http://www.w3.org/1999/xlink" version="1.1" width="106.46233367919922" height="202.79844665527344" viewBox="0.01683109998703003 -0.4344410374760628 106.46233367919922 202.79844665527344">
  <!-- Exported by Scratch - http://scratch.mit.edu/ -->
  <g id="ID0.10655032144859433">
    <g id="Page-1">
      <g id="jamal-c-[sports,basketball,people,alex-eben-meyer]">
        <g id="Left-Arm">
          <path id="Shape" fill="#A0640A" stroke="none" stroke-width="1" d="M 9.05 0.068 C 11.018 -0.084 9.67 6.916 11.918 6.136 C 13.606 5.552 13.29 0.536 14.562 0.536 C 15.834 0.536 15.306 3.048 15.234 5.252 C 15.194 6.54 14.674 13.652 14.61 15.808 C 14.502 19.584 15.058 73.784 17.29 78.208 C 20.558 84.68 27.45 90.644 30.87 91.408 C 33.018 91.876 41.994 92.08 41.994 92.08 L 41.686 102.708 C 41.686 102.708 28.186 103.316 22.086 100.376 C 13.402 96.188 6.186 84.252 4.93 76.876 C 2.73 63.94 3.19 20.588 3.33 16.048 C 3.354 15.152 2.602 2.82 3.146 2.472 C 4.03 1.916 5.594 8.696 7.718 6.872 C 9.198 5.548 7.078 0.22 9.05 0.068 Z "/>
          <path id="Shape" fill="#824600" stroke="none" stroke-width="1" d="M 9.734 19.2 C 8.006 16.74 8.43 13.388 9.99 11.388 C 11.55 9.388 12.722 11.2 14.738 9.6 C 16.754 8 17.406 6.248 18.386 6.58 C 19.026 6.796 16.43 17.584 14.858 18.944 C 13.286 20.304 11.45 21.672 9.734 19.2 Z "/>
          <path id="Shape" fill="#780046" stroke="none" stroke-width="1" d="M 16.418 17.828 C 16.466 20.396 16.614 23.052 16.126 25.592 C 15.626 25.992 9.666 25.628 8.83 25.592 C 6.895 25.517 4.966 25.339 3.05 25.06 C 1.21 24.752 0.906 24.08 0.574 22.012 C 0.318 20.412 0.974 18.316 1.506 16.812 C 1.734 16.652 3.658 16.888 6.954 16.976 C 10.124 17.049 13.286 17.334 16.418 17.828 Z "/>
        </g>
        <g id="Right-Arm">
          <path id="Shape" fill="#A0640A" stroke="none" stroke-width="1" d="M 103.05 11.776 C 103.282 8.064 103.898 3.204 103.354 2.856 C 102.47 2.3 100.906 9.08 98.786 7.256 C 97.282 5.956 99.402 0.628 97.434 0.456 C 95.466 0.284 96.814 7.3 94.57 6.524 C 92.882 5.94 93.194 0.924 91.926 0.924 C 90.658 0.924 91.178 3.436 91.25 5.64 C 91.294 6.928 91.81 14.04 91.874 16.196 C 91.942 18.596 93.586 45.74 93.222 61.676 C 93.014 70.952 93.074 74.224 91.438 77.86 C 86.99 87.74 83.466 90.288 80.046 91.032 C 79.11 91.236 72.446 92.132 70.234 92.232 L 70.234 102.416 C 74.686 102.296 83.034 102.36 86.61 100.636 C 95.298 96.448 98.674 93.956 103.122 77.484 C 107.57 61.012 103.306 20.948 103.186 16.408 C 103.032 14.869 102.987 13.321 103.05 11.776 Z "/>
          <path id="Shape" fill="#824600" stroke="none" stroke-width="1" d="M 97.234 19.2 C 98.958 16.74 98.538 13.388 96.978 11.388 C 95.418 9.388 94.25 11.2 92.25 9.6 C 90.25 8 89.582 6.248 88.602 6.58 C 87.962 6.796 90.558 17.584 92.13 18.944 C 93.702 20.304 95.506 21.672 97.234 19.2 Z "/>
          <path id="Shape" fill="#780046" stroke="none" stroke-width="1" d="M 90.082 18.228 C 90.03 20.796 89.882 23.452 90.37 25.992 C 90.87 26.392 96.83 26.028 97.666 25.992 C 99.602 25.917 101.533 25.739 103.45 25.46 C 105.286 25.152 105.59 24.48 105.922 22.412 C 106.178 20.812 105.522 18.716 104.99 17.212 C 104.762 17.052 102.838 17.288 99.542 17.376 C 96.373 17.449 93.213 17.733 90.082 18.228 Z "/>
        </g>
        <path id="Shape" fill="#780046" stroke="none" stroke-width="1" d="M 57.494 115.912 L 37.85 127.912 C 37.85 127.912 40.478 129.992 47.242 129.992 C 54.006 129.992 52.754 131.32 59.934 130.412 C 67.114 129.504 71.85 123.768 71.85 123.768 L 57.494 115.912 Z "/>
        <g id="Left-Leg">
          <path id="Shape" fill="#824600" stroke="none" stroke-width="1" d="M 41.474 127.676 L 42.006 172.4 L 42.174 176.9 L 51.126 172.656 C 51.126 172.656 51.022 129.696 50.974 129.62 L 41.474 127.676 Z "/>
          <path id="Shape" fill="#FAB414" stroke="none" stroke-width="1" d="M 42.142 187.36 L 42.006 172.404 L 51.126 172.66 L 50.862 187.564 L 42.142 187.36 "/>
          <path id="Shape" fill="#FFDC00" stroke="none" stroke-width="1" d="M 39.05 125.272 L 38.726 153.2 C 38.946 153.024 53.85 153.2 53.85 153.2 L 53.782 125.272 L 39.05 125.272 Z "/>
          <path id="Shape" fill="#FFDC00" stroke="none" stroke-width="1" d="M 35.762 200.664 L 42.378 199.808 L 52.158 200.432 L 51.918 201.732 L 35.446 201.864 L 35.762 200.664 "/>
          <path id="Shape" fill="#AA3278" stroke="none" stroke-width="1" d="M 36.946 199.376 C 38.139 199.311 39.327 199.168 40.502 198.948 L 40.902 186.4 L 51.762 186.4 L 52.162 200.432 L 35.762 200.668 C 35.92 200.328 36.053 199.978 36.162 199.62 C 36.412 199.506 36.676 199.424 36.946 199.376 Z "/>
          <path id="Oval" fill="#FFDC00" stroke="none" stroke-width="1" d="M 47.038 188.212 C 47.887 188.212 48.656 188.557 49.212 189.114 C 49.769 189.67 50.114 190.439 50.114 191.288 C 50.114 192.137 49.769 192.906 49.212 193.462 C 48.656 194.019 47.887 194.364 47.038 194.364 C 46.189 194.364 45.42 194.019 44.864 193.462 C 44.307 192.906 43.962 192.137 43.962 191.288 C 43.962 190.439 44.307 189.67 44.864 189.114 C 45.42 188.557 46.189 188.212 47.038 188.212 Z "/>
          <path id="Oval" fill="#780046" stroke="none" stroke-width="1" d="M 47.038 189.828 C 47.441 189.828 47.806 189.992 48.07 190.256 C 48.334 190.52 48.498 190.885 48.498 191.288 C 48.498 191.691 48.334 192.056 48.07 192.32 C 47.806 192.584 47.441 192.748 47.038 192.748 C 46.635 192.748 46.27 192.584 46.006 192.32 C 45.742 192.056 45.578 191.691 45.578 191.288 C 45.578 190.885 45.742 190.52 46.006 190.256 C 46.27 189.992 46.635 189.828 47.038 189.828 Z "/>
          <path id="Shape" fill="#FFDC00" stroke="none" stroke-width="1" d="M 39.79 188.612 L 39.79 189.392 L 41.802 189.392 L 42.054 188.612 L 39.79 188.612 "/>
          <path id="Shape" fill="#FAB414" stroke="none" stroke-width="1" d="M 39.79 190.432 L 39.79 191.212 L 41.802 191.212 L 42.054 190.432 L 39.79 190.432 "/>
          <path id="Shape" fill="#FFDC00" stroke="none" stroke-width="1" d="M 39.79 192.252 L 39.79 193.036 L 41.802 193.036 L 42.054 192.252 L 39.79 192.252 "/>
          <path id="Shape" fill="#FAB414" stroke="none" stroke-width="1" d="M 39.79 194.072 L 39.79 194.856 L 41.802 194.856 L 42.054 194.072 L 39.79 194.072 "/>
          <path id="Shape" fill="#FFDC00" stroke="none" stroke-width="1" d="M 39.79 195.896 L 39.79 196.676 L 41.802 196.676 L 42.054 195.896 L 39.79 195.896 "/>
        </g>
        <g id="Right-Leg">
          <path id="Shape" fill="#824600" stroke="none" stroke-width="1" d="M 67.822 127.676 L 67.29 172.4 L 67.122 176.9 L 58.17 172.66 C 58.17 172.66 58.274 129.7 58.322 129.624 L 67.822 127.676 Z "/>
          <path id="Shape" fill="#FAB414" stroke="none" stroke-width="1" d="M 67.158 187.36 L 67.29 172.404 L 58.17 172.66 L 58.438 187.564 L 67.158 187.36 "/>
          <path id="Shape" fill="#FFDC00" stroke="none" stroke-width="1" d="M 69.77 122.108 L 70.57 153.2 C 70.354 153.024 55.446 153.2 55.446 153.2 L 55.514 125.272 L 69.77 122.108 Z "/>
          <path id="Shape" fill="#FFDC00" stroke="none" stroke-width="1" d="M 73.538 200.664 L 66.922 199.808 L 57.142 200.432 L 57.378 201.732 L 73.85 201.864 L 73.538 200.664 "/>
          <path id="Shape" fill="#AA3278" stroke="none" stroke-width="1" d="M 72.354 199.376 C 71.159 199.312 69.97 199.169 68.794 198.948 L 68.394 186.4 L 57.534 186.4 L 57.134 200.432 L 73.534 200.668 C 73.376 200.329 73.242 199.978 73.134 199.62 C 72.885 199.506 72.623 199.424 72.354 199.376 Z "/>
          <path id="Oval" fill="#FFDC00" stroke="none" stroke-width="1" d="M 62.258 188.212 C 63.107 188.212 63.876 188.557 64.432 189.114 C 64.989 189.67 65.334 190.439 65.334 191.288 C 65.334 192.137 64.989 192.906 64.432 193.462 C 63.876 194.019 63.107 194.364 62.258 194.364 C 61.409 194.364 60.64 194.019 60.084 193.462 C 59.527 192.906 59.182 192.137 59.182 191.288 C 59.182 190.439 59.527 189.67 60.084 189.114 C 60.64 188.557 61.409 188.212 62.258 188.212 Z "/>
          <path id="Oval" fill="#780046" stroke="none" stroke-width="1" d="M 62.258 189.828 C 62.661 189.828 63.026 189.992 63.29 190.256 C 63.554 190.52 63.718 190.885 63.718 191.288 C 63.718 191.691 63.554 192.056 63.29 192.32 C 63.026 192.584 62.661 192.748 62.258 192.748 C 61.855 192.748 61.49 192.584 61.226 192.32 C 60.962 192.056 60.798 191.691 60.798 191.288 C 60.798 190.885 60.962 190.52 61.226 190.256 C 61.49 189.992 61.855 189.828 62.258 189.828 Z "/>
          <path id="Shape" fill="#FFDC00" stroke="none" stroke-width="1" d="M 69.51 188.612 L 69.51 189.392 L 67.498 189.392 L 67.246 188.612 L 69.51 188.612 "/>
          <path id="Shape" fill="#FAB414" stroke="none" stroke-width="1" d="M 69.51 190.432 L 69.51 191.212 L 67.498 191.212 L 67.246 190.432 L 69.51 190.432 "/>
          <path id="Shape" fill="#FFDC00" stroke="none" stroke-width="1" d="M 69.51 192.252 L 69.51 193.036 L 67.498 193.036 L 67.246 192.252 L 69.51 192.252 "/>
          <path id="Shape" fill="#FAB414" stroke="none" stroke-width="1" d="M 69.51 194.072 L 69.51 194.856 L 67.498 194.856 L 67.246 194.072 L 69.51 194.072 "/>
          <path id="Shape" fill="#FFDC00" stroke="none" stroke-width="1" d="M 69.51 195.896 L 69.51 196.676 L 67.498 196.676 L 67.246 195.896 L 69.51 195.896 "/>
        </g>
        <g id="Torso">
          <path id="Rectangle-path" fill="#FFDC00" stroke="none" stroke-width="1" d="M 46.258 119.188 L 64.506 119.188 L 64.506 127.652 L 46.258 127.652 L 46.258 119.188 Z "/>
          <path id="Shape" fill="#780046" stroke="none" stroke-width="1" d="M 71.162 90.76 L 35.986 90.76 L 31.858 104.076 L 75.362 104.004 L 71.162 90.76 "/>
          <path id="Shape" fill="#AA3278" stroke="none" stroke-width="1" d="M 42.438 88.988 L 46.41 88.636 C 46.41 88.636 45.794 98.344 53.474 98.344 C 61.154 98.344 60.89 88.9 60.89 88.9 L 64.77 89.076 C 64.77 89.076 71.654 122.276 71.834 123.768 C 69.318 124.488 37.834 127.916 37.834 127.916 L 42.438 88.988 Z "/>
        </g>
        <g id="Head">
          <path id="Shape" fill="#000000" stroke="none" stroke-width="1" d="M 66.826 54.604 C 62.026 50.008 54.074 48.104 47.838 50.32 C 40.882 52.792 36.778 59.412 37.406 66.72 C 37.65 69.556 38.206 72.884 40.042 75.176 C 41.778 77.32 46.466 81.176 54.746 80.604 C 63.026 80.032 66.242 76.86 67.174 75.684 C 70.914 70.968 71.478 59.056 66.826 54.604 Z "/>
          <path id="Shape" fill="#A0640A" stroke="none" stroke-width="1" d="M 64.71 74.556 C 64.71 74.252 64.194 68.936 61.766 65.896 C 59.574 63.152 55.51 62.644 54.21 62.584 C 48.726 62.336 44.53 66.02 44.09 69.112 C 43.426 73.748 44.686 78.512 47.822 82.848 C 49.542 85.228 52.038 85.976 54.31 85.972 C 60.626 85.964 64.982 80.652 64.71 74.556 Z "/>
          <path id="Shape" fill="#000000" stroke="none" stroke-width="1" d="M 44.502 73.564 L 44.21 63.312 L 41.346 65.988 L 43.45 72.1 L 44.502 73.564 "/>
          <path id="Shape" fill="#000000" stroke="none" stroke-width="1" d="M 64.766 72.1 L 66.874 65.988 L 62.442 62.908 L 63.262 72.56 L 64.766 72.1 "/>
          <path id="Shape" fill="#A0640A" stroke="none" stroke-width="1" d="M 62.146 78.224 C 62.146 78.224 64.946 77.056 66.546 74.828 C 67.578 73.388 67.954 70.932 67.31 69.988 C 66.474 68.752 65.006 68.368 63.826 69.436 C 62.918 70.26 61.97 75 61.854 76.116 C 61.87 76.136 62.146 78.224 62.146 78.224 Z "/>
          <path id="Shape" fill="#A0640A" stroke="none" stroke-width="1" d="M 47.074 77.848 C 47.074 77.848 44.062 77.668 41.814 76.092 C 40.362 75.076 39.194 72.892 39.486 71.78 C 39.886 70.336 41.126 69.488 42.59 70.108 C 43.722 70.584 46.19 74.74 46.67 75.756 C 46.65 75.784 47.074 77.848 47.074 77.848 Z "/>
          <path id="Shape" fill="#000000" stroke="none" stroke-width="1" d="M 52.054 78.8 C 53.648 78.413 55.319 78.484 56.874 79.004 C 57.814 81.076 51.126 81.004 52.054 78.8 Z "/>
          <path id="Shape" fill="#824600" stroke="none" stroke-width="1" d="M 55.714 75.92 C 54.678 76.344 53.634 76.104 52.602 75.848 C 52.254 74.96 53.618 72.616 54.554 72.584 C 55.45 73.508 56.062 74.504 55.714 75.92 Z "/>
          <path id="Shape" fill="#000000" stroke="none" stroke-width="1" d="M 49.01 72.536 C 49.106 73.188 49.182 73.768 48.806 74.3 C 47.858 74.384 48.146 72.7 48.59 72.32 L 49.01 72.536 Z "/>
          <path id="Shape" fill="#000000" stroke="none" stroke-width="1" d="M 60.226 72.592 C 60.298 73.204 60.626 73.792 60.138 74.388 L 59.462 74.244 C 59.498 73.62 59.254 73 59.726 72.452 L 60.226 72.592 Z "/>
        </g>
      </g>
    </g>
  </g>
</svg>