<svg xmlns="http://www.w3.org/2000/svg" xmlns:xlink="http://www.w3.org/1999/xlink" version="1.1" width="61.56288951635361" height="80.59445613622665" viewBox="-0.008479297161102295 -0.1936793029308319 61.56288951635361 80.59445613622665">
  <!-- Exported by Scratch - http://scratch.mit.edu/ -->
  <g id="ID0.4960558828897774">
    <path id="ID0.6435030931606889" fill="#FF9400" d="M 57.4328 2.8341 C 57.2433 7.2164 57.4471 11.2054 58.2714 14.5739 C 53.2232 16.2351 45.3458 15.0653 38.9845 15.4125 C 38.2541 29.5422 39.9799 48.6814 40.6616 68.2416 C 36.5737 65.9532 30.6342 70.8068 27.2447 69.0802 C 27.0334 50.4617 26.9613 39.2334 26.4061 17.9281 C 21.3815 14.5085 15.5267 19.482 8.7964 16.251 C 7.6392 12.0213 8.8476 6.0868 7.9579 3.6726 C 22.2427 3.1276 42.7169 2.3158 57.4328 2.8341 Z " stroke-width="0.8385586142539978"/>
    <path id="ID0.8345532864332199" d="M 5.4422 0.3184 C 14.7208 0.3947 19.2868 0.8391 23.0519 0.3184 C 35.6227 0.3184 48.2187 0.1096 60.787 0.3184 C 61.5703 0.9993 60.787 1.9955 60.787 2.8341 C 60.5078 2.8341 60.2277 2.8341 59.9485 2.8341 C 59.9485 7.8654 59.9485 12.8968 59.9485 17.9281 C 58.0039 17.6606 56.7293 18.0631 55.7557 18.7667 C 55.2366 21.0425 56.8207 25.4215 54.9171 26.3137 C 51.1797 25.6009 46.9835 26.1049 41.5002 25.4752 C 42.3882 38.5231 41.8021 57.1685 44.8544 71.5959 C 42.7874 71.4852 40.8143 71.4693 39.8231 72.4344 C 38.9451 74.8067 41.2067 78.187 39.8231 78.3043 C 34.4311 78.5022 27.8468 77.5086 24.729 79.9815 C 23.3311 79.9815 21.9341 79.9815 20.5362 79.9815 C 16.1229 64.3432 21.4318 42.4283 18.0206 27.1523 C 13.629 24.7196 8.7553 26.1821 2.0879 26.3137 C 3.059 21.7939 1.5286 13.0393 0.4108 7.8654 C 0.4108 7.3061 0.4108 6.7476 0.4108 6.1883 C 1.8087 6.1883 3.2057 6.1883 4.6036 6.1883 C 4.612 3.9611 4.0091 1.2752 5.4422 0.3184 Z M 7.9579 3.6726 C 8.8476 6.0868 7.6392 12.0213 8.7964 16.251 C 15.5267 19.482 21.3815 14.5085 26.4061 17.9281 C 26.9613 39.2334 27.0334 50.4617 27.2447 69.0802 C 30.6342 70.8068 36.5737 65.9532 40.6616 68.2416 C 39.9799 48.6814 38.2541 29.5422 38.9845 15.4125 C 45.3458 15.0653 53.2232 16.2351 58.2714 14.5739 C 57.4471 11.2054 57.2433 7.2164 57.4328 2.8341 C 42.7169 2.3158 22.2427 3.1276 7.9579 3.6726 Z " stroke-width="0.8385586142539978" fill="undefined"/>
  </g>
</svg>