<svg xmlns="http://www.w3.org/2000/svg" xmlns:xlink="http://www.w3.org/1999/xlink" version="1.1" width="75.76951652765274" height="80.38971763849258" viewBox="0.4771903455257416 0.06679031252861023 75.76951652765274 80.38971763849258">
  <!-- Exported by Scratch - http://scratch.mit.edu/ -->
  <g id="ID0.43227694323286414">
    <path id="ID0.1628495492041111" fill="#FF9400" d="M 64.6965 4.2249 C 68.8851 21.4366 68.838 45.5526 72.0887 66.1342 C 67.6358 63.9933 63.8335 67.5914 58.2284 67.0582 C 58.8345 55.7011 59.5636 47.8396 56.3803 37.4896 C 52.5789 38.0006 51.5237 41.2578 51.7602 45.8058 C 48.0466 52.5641 43.8414 58.8317 41.596 67.0582 C 35.4402 59.6615 34.1595 47.3905 25.8877 42.1097 C 23.9084 48.6675 26.6371 60.883 27.7357 69.8303 C 22.0512 69.3812 18.0307 72.3649 12.9514 70.7543 C 12.0052 61.1039 11.5737 47.0625 9.2553 37.4896 C 11.6365 27.4779 6.9628 15.5192 9.2553 6.073 C 11.8352 4.236 16.6447 4.8375 20.3436 4.2249 C 26.2259 14.0509 28.462 27.5231 34.2039 37.4896 C 43.2001 30.4689 43.5041 14.7569 48.9882 4.2249 C 53.5159 1.6229 58.6811 5.3402 64.6965 4.2249 Z " stroke-width="0.9240193963050842"/>
    <path id="ID0.9830254283733666" d="M 47.1401 0.5288 C 54.2246 0.5288 61.3081 0.5288 68.3926 0.5288 C 69.7823 22.2886 71.5102 45.3466 75.7847 65.2102 C 75.7847 66.1342 75.7847 67.0582 75.7847 67.9823 C 71.2561 67.766 71.4696 72.291 70.2406 75.3744 C 63.1682 74.7701 58.0094 76.0794 52.6842 77.2225 C 49.9362 67.3844 52.3516 63.1293 50.8362 53.198 C 47.1956 62.1859 42.8462 70.4642 36.9759 77.2225 C 31.3616 75.1259 33.7723 60.1115 28.6597 60.5901 C 30.0929 64.0847 29.5246 69.5817 32.3558 71.6783 C 29.6928 73.3674 29.4655 73.1771 25.8877 72.6024 C 25.7297 75.2164 26.6823 78.9411 24.0396 79.0705 C 19.4482 78.5688 12.3111 76.7503 9.2553 79.9945 C 8.639 79.9945 8.0236 79.9945 7.4073 79.9945 C 5.3809 66.0261 7.8194 50.6726 1.8632 39.3377 C 4.431 31.9862 3.8415 19.6348 0.9392 12.5411 C 0.9392 11.6171 0.9392 10.6931 0.9392 9.769 C 7.4461 11.0405 6.547 4.905 9.2553 2.3769 C 14.5952 2.7881 18.7238 1.9888 23.1156 1.4529 C 25.3656 11.2151 30.773 17.82 33.2798 27.3254 C 37.6625 21.2102 38.6632 12.907 39.748 6.073 C 41.2883 6.073 42.8277 6.073 44.3681 6.073 C 45.2524 4.1852 46.2558 2.4166 47.1401 0.5288 Z M 48.9882 4.2249 C 43.5041 14.7569 43.2001 30.4689 34.2039 37.4896 C 28.462 27.5231 26.2259 14.0509 20.3436 4.2249 C 16.6447 4.8375 12.3009 4.8071 9.2553 6.073 C 7.301 15.3594 14.6146 27.9103 9.2553 37.4896 C 13.2563 45.5083 13.5326 61.1122 12.9514 70.7543 C 18.9076 71.4741 22.0512 69.3812 27.7357 69.8303 C 26.6371 60.883 23.9084 48.6675 25.8877 42.1097 C 34.1595 47.3905 35.4402 59.6615 41.596 67.0582 C 43.8414 58.8317 48.0466 52.5641 51.7602 45.8058 C 51.5237 41.2578 52.5789 38.0006 56.3803 37.4896 C 59.5636 47.8396 58.8345 55.7011 58.2284 67.0582 C 63.8335 67.5914 67.6358 63.9933 72.0887 66.1342 C 68.838 45.5526 68.8851 21.4366 64.6965 4.2249 C 58.6811 5.3402 53.5159 1.6229 48.9882 4.2249 Z " stroke-width="0.9240193963050842" fill="undefined"/>
  </g>
</svg>