<svg xmlns="http://www.w3.org/2000/svg" xmlns:xlink="http://www.w3.org/1999/xlink" width="69.59196472167969" height="92.43470001220703" viewBox="0.6873290538787842 0.6883000135421753 69.59196472167969 92.43470001220703" version="1.1" xml:space="preserve">
  <defs/>
  <g>
    <title>Slice 1</title>
    <desc>Created with Sketch.</desc>
    <g id="Page-1" stroke="none" fill-rule="evenodd">
      <g id="penguin-c-[animals,bird,cold,north-pole,south-pole,ice,antarctica,arctic,robert-hunter]">
        <g id="Group-4">
          <path d="M 37.3556 34.7201 C 37.3556 34.7201 36.2811 37.6279 38.2022 41.2395 C 39.6936 44.0448 52.6542 63.9796 52.6542 63.9796 C 52.6542 63.9796 55.3261 67.5611 57.3772 68.3368 C 59.4287 69.1125 63.2172 71.3125 65.4181 73.9981 C 67.6197 76.6847 68.2091 77.7113 69.1217 77.5997 C 70.0346 77.4891 69.6872 62.2729 63.9596 52.6923 C 58.2326 43.1112 49.8661 33.7725 44.7167 30.1659 " id="Fill-1" fill="#3E5766" fill-rule="nonzero" stroke-width="1"/>
          <path d="M 37.3556 34.7201 C 37.3556 34.7201 36.2811 37.6279 38.2022 41.2395 C 39.6936 44.0448 52.6542 63.9796 52.6542 63.9796 C 52.6542 63.9796 55.3261 67.5611 57.3772 68.3368 C 59.4287 69.1125 63.2172 71.3125 65.4181 73.9981 C 67.6197 76.6847 68.2091 77.7113 69.1217 77.5997 C 70.0346 77.4891 69.6872 62.2729 63.9596 52.6923 C 58.2326 43.1112 49.8661 33.7725 44.7167 30.1659 " id="Stroke-3" stroke="#2E374A" stroke-width="0.5" fill="none"/>
        </g>
        <g id="Body" fill-rule="nonzero">
          <path d="M 53.288 4.6446 C 51.5995 2.5331 47.16 1.1883 44.993 1.1883 C 42.8265 1.1883 39.4455 2.2309 37.5475 4.3927 C 34.816 7.5036 34.522 13.7641 33.986 15.3035 C 33.4505 16.8434 26.785 29.7932 22.8935 36.6183 C 19.5425 42.4963 14.621 55.1691 13.5795 68.3241 C 12.538 81.4791 15.1465 92.6227 15.3965 92.6227 L 47.9795 92.6227 C 50.317 90.193 49.937 90.571 50.3535 90.57 C 50.812 90.5675 51.6295 90.1281 52.6375 90.2518 C 52.6375 90.2518 52.085 90.1965 51.874 89.0241 C 51.874 89.0241 53.0805 90.0573 52.813 87.9116 C 52.813 87.9116 48.0045 85.6146 47.854 84.7464 C 47.763 84.223 46.8105 58.9396 46.8805 58.2695 C 46.9295 57.803 50.4805 30.0431 51.854 16.6649 C 50.148 15.8615 51.8455 13.0653 51.8455 13.0653 C 51.8455 13.0653 56.328 8.4462 53.288 4.6446 " id="Fill-5" fill="#3E5766" stroke-width="1"/>
          <path d="M 52.3598 17.3916 C 52.3598 17.3916 46.7933 22.3249 45.8728 30.2349 C 42.4038 60.0484 38.8123 60.9503 35.3123 68.4078 C 33.5628 72.1351 20.7378 86.3614 30.8128 87.9118 C 30.8128 87.9118 33.7603 88.8942 35.2188 89.8157 C 35.9923 90.3043 42.5068 87.1391 43.2078 87.0929 C 43.2078 87.0929 44.9788 86.3393 45.7288 86.5696 C 46.4788 86.7998 48.0118 87.1447 48.4963 86.7686 L 47.4373 85.6269 C 47.4373 85.2077 50.6758 85.7521 51.0213 85.7521 C 51.0213 85.7521 47.3283 84.265 47.9293 83.3792 C 52.3138 76.9186 53.9748 69.3314 56.4508 56.6374 C 59.1358 42.8731 58.0878 31.3731 55.3978 23.623 C 54.1583 20.2345 52.3598 17.3916 52.3598 17.3916 " id="Fill-7" fill="#FBF8EA" stroke-width="1"/>
          <path d="M 46.4018 27.2736 C 46.3858 27.3868 50.0833 19.3169 53.2808 18.9082 L 51.8543 16.665 C 51.8543 16.665 47.7078 17.9671 46.4018 27.2736 " id="Fill-9" fill="#F0C579" stroke-width="1"/>
        </g>
        <g id="Beak">
          <path d="M 48.8288 12.6254 C 48.7293 12.6395 53.3183 10.1987 53.8508 8.2265 C 54.2588 6.7183 52.8078 5.0528 53.2878 4.6446 C 53.6083 4.3721 54.1083 5.822 55.3163 6.467 C 56.6103 7.1577 58.4203 8.1637 61.5303 8.6036 C 64.6408 9.0435 67.2708 9.8921 68.2988 11.1172 C 69.3273 12.3429 69.7793 13.6937 69.7793 13.6937 C 69.7793 13.6937 68.5508 11.3998 59.7088 12.2801 C 52.9538 12.6254 52.3373 13.6415 51.2703 14.2804 C 50.2038 14.9189 51.6838 12.2172 48.8288 12.6254 " id="Fill-11" fill="#E3A066" fill-rule="nonzero" stroke-width="1"/>
          <path d="M 51.1018 12.4055 C 51.1018 12.4055 51.3807 12.3095 51.8753 12.1818 C 52.1238 12.1204 52.4258 12.0465 52.7722 11.9611 C 52.9462 11.9209 53.1313 11.8781 53.3263 11.8329 C 53.5217 11.7896 53.7323 11.7791 53.9483 11.7439 C 55.6842 11.5081 58.0097 11.2613 60.3498 11.212 C 61.5187 11.1879 62.6912 11.213 63.7873 11.307 C 64.3358 11.3518 64.8642 11.4201 65.3637 11.5006 C 65.8632 11.5825 66.3317 11.6866 66.7608 11.7997 C 66.9733 11.8645 67.1817 11.9138 67.3702 11.9897 C 67.5577 12.0702 67.7302 12.1591 67.8937 12.2356 C 68.2138 12.408 68.4887 12.5618 68.6953 12.7217 C 68.9117 12.864 69.0567 13.0093 69.1568 13.1038 C 69.2572 13.1973 69.3107 13.2471 69.3107 13.2471 C 69.3107 13.2471 69.2488 13.2078 69.1333 13.1334 C 69.0192 13.058 68.8522 12.9499 68.6227 12.8424 C 68.4027 12.7197 68.1132 12.6131 67.7858 12.4965 C 67.4513 12.3974 67.0743 12.2858 66.6628 12.1642 C 66.2473 12.0541 65.7913 11.953 65.3028 11.8726 C 64.8143 11.7937 64.2952 11.7268 63.7553 11.6831 C 62.6758 11.5901 61.5168 11.5654 60.3577 11.589 C 58.0382 11.6378 55.7242 11.8831 53.9988 12.1174 C 53.7828 12.1431 53.5787 12.1893 53.3803 12.2044 C 53.1818 12.2185 52.9933 12.232 52.8162 12.2451 C 52.4622 12.2753 52.1538 12.3019 51.8997 12.3235 C 51.6457 12.3477 51.4457 12.3663 51.3098 12.3793 C 51.1758 12.3919 51.1018 12.4055 51.1018 12.4055 " id="Fill-13" fill="#8D6A4A" fill-rule="nonzero" stroke-width="1"/>
          <path d="M 48.8288 12.6254 C 48.7293 12.6395 53.3183 10.1987 53.8508 8.2265 C 54.2588 6.7183 52.8078 5.0528 53.2878 4.6446 C 53.6083 4.3721 54.1083 5.822 55.3163 6.467 C 56.6103 7.1577 58.4203 8.1637 61.5303 8.6036 C 64.6408 9.0435 67.2708 9.8921 68.2988 11.1172 C 69.3273 12.3429 69.7793 13.6937 69.7793 13.6937 C 69.7793 13.6937 68.5508 11.3998 59.7088 12.2801 C 52.9538 12.6254 52.3373 13.6415 51.2703 14.2804 C 50.2038 14.9189 51.6838 12.2172 48.8288 12.6254 Z " id="Stroke-15" stroke="#8D6A4A" stroke-width="0.5" fill="none"/>
        </g>
        <g id="Eye">
          <path d="M 45.9901 6.8956 C 46.1371 6.236 47.1527 5.6388 48.6151 5.7016 C 50.5517 5.8585 50.7522 6.8483 50.7041 7.241 C 50.6461 7.7166 50.4442 8.4038 48.2096 8.4038 C 46.3017 8.4038 45.8582 7.4883 45.9901 6.8956 " id="Fill-17" fill="#E2E3E4" fill-rule="nonzero" stroke-width="1"/>
          <path d="M 48.6003 8.3836 C 48.6003 8.3836 47.8837 7.9126 48.1337 7.0167 C 48.3828 6.1238 49.3208 5.9268 49.6628 5.9584 C 50.0053 5.9896 50.2518 6.2857 50.2518 6.2857 C 50.2518 6.2857 50.9333 6.8438 50.6818 7.4566 C 50.4303 8.0694 49.4748 8.3424 49.4748 8.3424 C 49.4748 8.3424 48.7167 8.4465 48.6003 8.3836 " id="Fill-19" fill="#2E374A" fill-rule="nonzero" stroke-width="1"/>
          <path d="M 45.9858 6.9383 C 46.1328 6.2787 47.1482 5.6814 48.6108 5.7443 C 50.5472 5.9011 50.7473 6.891 50.6998 7.2837 C 50.6418 7.7592 50.4398 8.4465 48.2052 8.4465 C 46.2968 8.4465 45.8537 7.531 45.9858 6.9383 Z " id="Stroke-23" stroke="#2E374A" stroke-width="0.5" fill="none"/>
        </g>
        <path d="M 52.8129 87.9118 C 52.9079 88.7936 55.0629 89.7744 55.0629 89.7744 C 53.7264 89.6065 51.8744 89.0243 51.8744 89.0243 C 52.0849 90.1967 52.8964 90.3606 52.8964 90.3606 C 51.8884 90.2369 50.9164 91.1122 50.4579 91.1152 C 50.4579 91.1152 50.3169 90.1927 47.9794 92.6229 L 15.3964 92.6229 C 15.1464 92.6229 12.5379 81.4793 13.5794 68.3238 C 14.6209 55.1693 19.5424 42.496 22.8939 36.6185 C 26.7849 29.7934 33.4504 16.8431 33.9864 15.3037 C 34.5219 13.7638 34.8159 7.5033 37.5474 4.3929 C 39.4454 2.2311 42.8264 1.1885 44.9929 1.1885 C 47.1599 1.1885 51.6824 2.4659 53.2879 4.6448 " id="Stroke-21" stroke="#2E374A" stroke-width="0.5" fill="none"/>
        <g id="Back-Foot">
          <path d="M 46.486 92.623 L 60.3505 92.623 C 60.3505 92.623 59.563 90.5703 52.563 87.9118 C 52.563 87.9118 49.8975 89.4809 46.486 92.623 " id="Fill-25" fill="#E3A066" fill-rule="nonzero" stroke-width="1"/>
          <path d="M 52.7998 87.9118 C 52.7998 87.9118 49.8747 86.8631 48.4378 85.4841 " id="Stroke-27" stroke="#2E374A" stroke-width="0.5" fill="none"/>
          <path d="M 46.2255 92.623 L 60.3505 92.623 C 60.3505 92.623 57.688 89.3969 52.813 87.9118 " id="Stroke-29" stroke="#8D6A4A" stroke-width="0.5" fill="none"/>
        </g>
        <path d="M 51.2704 14.2802 C 51.2704 14.2802 50.7174 15.266 51.2289 15.8723 C 51.8655 16.6264 61.5975 27.8253 56.687 55.3373 C 52.6645 77.8758 48.4475 82.4527 47.929 83.3792 C 47.584 83.9961 49.1165 84.7466 51.0215 85.7521 C 51.0215 85.7521 47.3064 85.2192 47.437 85.6269 C 47.437 85.6269 47.8494 86.0713 48.4965 86.7681 C 46.309 86.7184 46.3329 86.7671 45.3135 86.5288 C 45.3135 86.5288 43.868 86.74 41.4455 87.7414 C 39.0224 88.7429 36.324 89.9203 35.2405 89.9776 " id="Stroke-31" stroke="#D1C1B5" stroke-width="0.5" fill="none"/>
        <g id="Back-foot">
          <path d="M 24.736 92.623 L 38.6005 92.623 C 38.6005 92.623 37.813 90.5703 30.813 87.9118 C 30.813 87.9118 28.1475 89.4809 24.736 92.623 " id="Fill-33" fill="#E3A066" fill-rule="nonzero" stroke-width="1"/>
          <path d="M 24.4755 92.623 L 38.6005 92.623 C 38.6005 92.623 35.312 88.9364 29.8955 87.9118 " id="Stroke-35" stroke="#8D6A4A" stroke-width="0.5" fill="none"/>
        </g>
        <g id="Group-40">
          <path d="M 36.4862 23.4337 C 36.4862 23.4337 33.4258 23.0028 30.2997 25.6829 C 27.8723 27.7632 11.1122 44.8827 11.1122 44.8827 C 11.1122 44.8827 8.1732 48.2978 7.8433 50.4922 C 7.5122 52.6862 6.1528 56.9041 3.9882 59.6606 C 1.8247 62.4165 0.9457 63.2209 1.2437 64.0982 C 1.5423 64.9759 16.3188 61.3362 24.4782 53.6021 C 32.6377 45.8701 40.0123 35.5842 42.4618 29.7168 " id="Fill-37" fill="#3E5766" fill-rule="nonzero" stroke-width="1"/>
          <path d="M 36.4862 23.4337 C 36.4862 23.4337 33.4258 23.0028 30.2997 25.6829 C 27.8723 27.7632 11.1122 44.8827 11.1122 44.8827 C 11.1122 44.8827 8.1732 48.2978 7.8433 50.4922 C 7.5122 52.6862 6.1528 56.9041 3.9882 59.6606 C 1.8247 62.4165 0.9457 63.2209 1.2437 64.0982 C 1.5423 64.9759 16.3188 61.3362 24.4782 53.6021 C 32.6377 45.8701 40.0123 35.5842 42.4618 29.7168 " id="Stroke-39" stroke="#2E374A" stroke-width="0.5" fill="none"/>
        </g>
      </g>
    </g>
  </g>
</svg>