<svg xmlns="http://www.w3.org/2000/svg" xmlns:xlink="http://www.w3.org/1999/xlink" width="119.76261901855469" height="60.85773468017578" viewBox="5.546962261199951 15.642265319824219 119.76261901855469 60.85773468017578" version="1.1" xml:space="preserve">
  <defs/>
  <g>
    <title>keyboard-b</title>
    <desc>Created with Sketch.</desc>
    <g id="music" stroke="none" fill-rule="evenodd">
      <g id="keyboard-b" fill-rule="nonzero">
        <g id="Group">
          <path d="M 71.5 16.3529 C 71.8 17.3109 71.75 18.3193 71.8 19.3277 C 71.85 20.5882 72.1 21.8992 71.95 23.1597 C 71.9 23.8151 71.85 24.521 72 25.1765 C 72.05 25.5798 72.05 25.9832 71.8 26.3361 C 71.7 26.5378 71.55 26.6387 71.3 26.6387 C 71.1 26.6387 70.95 26.5378 70.85 26.3361 C 70.7 26.0336 70.6 25.7815 70.6 25.4286 C 70.6 23.8655 70.55 22.3025 70.5 20.7395 C 70.45 19.8319 70.4 18.8739 70.35 17.9664 C 70.35 17.6134 70.3 17.2605 70.35 16.8571 C 70.4 16.2521 70.55 16.1008 71.2 16.1513 C 71.3 16.2521 71.4 16.3025 71.5 16.3529 Z " id="Shape" fill="#060606" stroke-width="1"/>
          <path d="M 83.5 21.4454 C 83.7 22.1008 83.4 22.5546 83.1 23.0084 C 82.25 24.3697 81.35 25.6807 80.55 27.042 C 80.15 27.7479 79.65 28.3529 79.15 29.0084 C 79.05 29.1597 78.9 29.3109 78.7 29.4118 C 78.5 29.5126 78.2 29.5126 78.05 29.3109 C 77.9 29.1597 77.8 28.958 77.9 28.7563 C 78.05 28.4034 78.15 28.0504 78.35 27.7479 C 79.5 25.9832 80.6 24.1681 81.75 22.4034 C 82.15 21.8487 82.65 21.3445 83.5 21.4454 Z " id="Shape" fill="#050505" stroke-width="1"/>
          <path d="M 63 28.9076 C 63 29.0084 62.95 29.1597 62.95 29.2605 C 62.9 29.5126 62.6 29.6134 62.4 29.563 C 62.1 29.4622 61.95 29.2605 61.8 29.0084 C 60.9 27.1933 59.6 25.6807 58.55 23.9664 C 58.35 23.6639 58.1 23.4118 57.9 23.1092 C 57.7 22.8571 57.55 22.605 57.45 22.2521 C 57.4 22 57.4 21.7479 57.6 21.5966 C 57.8 21.395 58.05 21.5462 58.25 21.6975 C 58.5 21.9496 58.8 22.2017 59 22.4538 C 59.75 23.4622 60.55 24.521 61.25 25.5798 C 61.75 26.3361 62.2 27.1429 62.65 27.9496 C 62.85 28.2017 63.05 28.5042 63 28.9076 Z " id="Shape" fill="#050505" stroke-width="1"/>
        </g>
        <g id="Group">
          <path d="M 123.55 36.3193 C 124.2 37.0756 124.15 38.0336 124.35 38.8908 C 124.45 39.2941 124.5 39.6975 124.5 40.1008 C 124.6 41.563 124.7 42.9748 124.8 44.437 C 124.85 44.9916 124.7 45.4454 124.45 45.9496 C 122.65 49.5294 120.9 53.1597 119.05 56.7395 C 117.7 59.3109 116.45 61.8824 115.15 64.5042 C 114.35 66.1176 113.4 67.6807 112.6 69.2941 C 111.65 71.1092 110.65 72.9244 109.8 74.7395 C 109.35 75.6471 108.7 75.9496 107.8 76 C 107.25 76 106.7 76 106.15 76 C 103.5 75.8487 100.8 75.6975 98.15 75.5462 C 95.8 75.395 93.45 75.1429 91.1 74.9916 C 88.8 74.8403 86.45 74.7395 84.15 74.5882 C 80.45 74.3361 76.75 74.084 73.05 73.8319 C 69.85 73.6303 66.65 73.3782 63.5 73.126 C 61.1 72.9244 58.75 72.7731 56.35 72.521 C 54.55 72.3193 52.75 72.2689 50.95 72.1681 C 49.85 72.1176 48.8 72.0168 47.7 71.916 C 45.25 71.7143 42.75 71.563 40.3 71.3613 C 36.45 71.0588 32.55 70.7563 28.7 70.4538 C 24.85 70.1513 21 69.8487 17.1 69.5462 C 14.6 69.3445 12.1 69.1429 9.6 68.7899 C 7.8 68.5378 7.75 68.5882 7.4 66.8235 C 6.95 64.5546 6.55 62.2353 6.3 59.916 C 6.25 59.6639 6.3 59.4118 6.2 59.2101 C 5.85 58.5042 6.15 58 6.6 57.4454 C 8.2 55.4286 9.75 53.4118 11.3 51.3445 C 12.4 49.8824 13.6 48.4706 14.75 47.0084 C 17.65 43.479 20.6 40 23.5 36.4706 C 24.6 35.1597 25.65 33.7983 26.85 32.4874 C 27 32.3361 27.1 32.1849 27.25 32.0336 C 27.6 31.6303 28 31.479 28.5 31.479 C 29.95 31.5294 31.4 31.5294 32.8 31.5798 C 37.05 31.7311 41.35 31.8824 45.6 32.084 C 50.75 32.3361 55.9 32.6387 61.05 32.8908 C 64.3 33.0924 67.6 33.2437 70.85 33.4454 C 74.7 33.6975 78.5 33.9496 82.35 34.1513 C 87.25 34.4538 92.15 34.7059 97.05 34.958 C 99.95 35.1092 102.9 35.2605 105.8 35.4118 C 109.45 35.6134 113.15 35.8151 116.8 36.0168 C 118.3 36.1176 119.85 36.1176 121.35 36.1681 C 122 36.1681 122.75 36.2185 123.55 36.3193 Z M 122.35 37.2773 C 120.85 37.1765 119.45 37.0756 118.05 37.0252 C 114.6 36.8739 111.2 36.7227 107.75 36.6218 C 102.9 36.4706 98.1 36.1681 93.25 35.8655 C 91.2 35.7143 89.2 35.6639 87.15 35.563 C 83.55 35.3613 79.95 35.1092 76.4 34.9076 C 74.2 34.7563 72 34.6555 69.8 34.5546 C 65.3 34.3025 60.8 34 56.3 33.6975 C 53.85 33.5462 51.45 33.4958 49 33.395 C 46.15 33.2437 43.35 33.1429 40.5 32.9916 C 37.5 32.8403 34.5 32.6891 31.5 32.5882 C 30.45 32.5378 29.45 32.3361 28.35 32.4874 C 28 32.8908 27.6 33.2941 27.25 33.7479 C 24.9 36.7731 22.4 39.6471 19.95 42.5714 C 16.4 46.7059 12.95 50.9412 9.6 55.2773 C 8.95 56.084 8.35 56.9412 7.75 57.7479 C 7.9 58 8.1 58.0504 8.3 58.0504 C 10.4 58.3025 12.5 58.5042 14.6 58.7059 C 16.55 58.9076 16.55 58.9076 17.85 57.3445 C 19.85 54.9244 21.75 52.3529 23.85 49.9832 C 24.4 49.3277 24.95 48.9748 25.8 49.0756 C 26 49.0756 26.2 49.0756 26.4 49.126 C 28.65 49.2773 30.95 49.4286 33.2 49.5798 C 36.3 49.7311 39.45 49.7815 42.55 49.9328 C 45.9 50.084 49.25 50.2353 52.6 50.3866 C 54.85 50.4874 57.05 50.6387 59.3 50.7395 C 61 50.8403 62.75 50.9916 64.45 51.042 C 67.3 51.1933 70.1 51.2941 72.95 51.395 C 75.5 51.4958 78.05 51.6471 80.6 51.7983 C 82.85 51.9496 85.05 52.1513 87.3 52.2017 C 90.6 52.3025 93.9 52.5546 97.25 52.7563 C 99.95 52.9076 102.65 53.1597 105.35 53.4118 C 105.7 53.4118 106 53.5126 106.25 53.6639 C 106.6 53.8655 106.75 54.1681 106.6 54.5714 C 106.5 54.8739 106.35 55.1765 106.25 55.479 C 105.85 56.4874 105.15 57.3445 104.65 58.3025 C 103.55 60.3697 102.6 62.4874 101.4 64.5042 C 101.3 64.6555 101.25 64.8067 101.35 64.958 C 102.8 65.2101 106.25 65.3613 107.1 65.2101 C 107.9 63.7983 108.75 62.3866 109.55 60.9748 C 110.95 58.3529 112.3 55.7311 113.7 53.0588 C 114.8 50.9916 115.85 48.9244 117 46.9076 C 118.45 44.2353 119.9 41.563 121.5 38.9412 C 121.8 38.3361 122.2 37.9328 122.35 37.2773 Z M 37.95 50.8403 C 37.4 50.7899 36.8 50.7899 36.25 50.7395 C 35.75 50.6891 35.4 50.8403 35.1 51.2437 C 34.3 52.3025 33.45 53.3109 32.75 54.4202 C 32.3 55.126 31.75 55.7815 31.2 56.437 C 31.05 56.6387 30.85 56.8908 30.55 56.8908 C 29.85 56.8908 29.1 56.9916 28.45 56.7395 C 28.45 56.084 28.45 56.0336 28.65 55.7815 C 29 55.2773 29.4 54.7227 29.8 54.2185 C 30.55 53.2101 31.3 52.2017 32.05 51.2437 C 32.15 51.0924 32.3 50.9412 32.25 50.6387 C 31.8 50.5378 31.35 50.4874 31 50.5882 C 29.9 51.7983 29.05 53.0588 28.2 54.3193 C 27.75 54.9748 27.2 55.5798 26.7 56.1849 C 26.55 56.3866 26.4 56.5882 26.15 56.5882 C 25.4 56.6387 24.65 56.6891 24 56.437 C 23.85 55.9832 24.05 55.7311 24.2 55.479 C 24.6 54.8739 25.05 54.3193 25.5 53.7143 C 26.1 52.8571 26.75 52.0504 27.4 51.1933 C 27.5 51.042 27.6 50.8403 27.55 50.5882 C 27.2 50.5378 26.8 50.5378 26.4 50.437 C 25.95 50.2857 25.65 50.4874 25.35 50.8403 C 24.9 51.4454 24.4 52.0504 23.9 52.605 C 22.6 54.1681 21.5 55.9328 20.05 57.395 C 19.85 57.5966 19.7 57.8487 19.7 58.2017 C 20.35 58.4034 21 58.4034 21.65 58.4538 C 23.65 58.605 25.65 58.7059 27.65 58.8571 C 30.5 59.0588 33.3 59.2605 36.15 59.5126 C 39.45 59.7647 42.75 60.0168 46.05 60.2689 C 48.1 60.4202 50.1 60.5714 52.15 60.6723 C 53.85 60.7731 55.6 60.8739 57.3 61.0252 C 58.85 61.126 60.4 61.2773 61.95 61.3782 C 63.8 61.479 65.6 61.5798 67.45 61.7311 C 70.5 61.9328 73.5 62.1849 76.55 62.3866 C 78.4 62.5378 80.3 62.6387 82.15 62.7395 C 85.05 62.9412 87.95 63.1933 90.85 63.395 C 92.5 63.5462 94.2 63.6975 95.85 63.7983 C 97.35 63.8992 98.85 64.1513 100.4 64.0504 C 102 61.2773 103.6 58.5546 105.15 55.7815 C 105.35 55.4286 105.6 55.0252 105.6 54.5714 C 104.8 54.4202 104.05 54.4202 103.35 54.3697 C 102.3 55.4286 101.5 56.6891 100.7 57.8487 C 100.2 58.605 99.65 59.2605 99.05 59.916 C 98.85 60.1176 98.7 60.3697 98.35 60.3697 C 97.65 60.3697 96.9 60.4706 96.3 60.1176 C 96.2 59.6639 96.35 59.3613 96.6 59.0588 C 97.05 58.5042 97.45 57.8992 97.9 57.3445 C 98.5 56.5378 99.1 55.7311 99.7 54.9244 C 99.9 54.6723 100.05 54.3697 99.9 54.0672 C 99.65 53.916 99.35 53.916 99.1 54.0168 C 98.05 55.0756 97.3 56.3866 96.4 57.5462 C 95.9 58.2521 95.4 58.9076 94.85 59.563 C 94.7 59.7647 94.5 60.0168 94.2 60.0168 C 93.5 60.0168 92.75 60.1176 92.1 59.8151 C 91.95 59.2605 92.25 58.958 92.5 58.605 C 93.45 57.2941 94.4 56.0336 95.4 54.7227 C 95.55 54.4706 95.75 54.2689 95.8 53.9664 C 95.8 53.916 95.75 53.8151 95.7 53.7143 C 95.4 53.6639 95.1 53.6134 94.8 53.7143 C 93.75 54.8235 93 56.084 92.1 57.2941 C 91.6 58 91.1 58.6555 90.55 59.3109 C 90.4 59.5126 90.2 59.7647 89.9 59.7647 C 89.2 59.7647 88.45 59.8655 87.8 59.6134 C 87.6 59.2101 87.8 58.9076 87.95 58.6555 C 88.35 58.0504 88.8 57.4958 89.25 56.8908 C 89.85 56.0336 90.5 55.2269 91.15 54.3697 C 91.35 54.1176 91.55 53.8655 91.4 53.4622 C 90.45 53.4118 89.5 53.3613 88.6 53.3613 C 87.55 54.4706 86.75 55.6807 85.95 56.8908 C 85.45 57.6471 84.95 58.3529 84.3 58.958 C 84.15 59.1092 83.95 59.3613 83.75 59.4118 C 82.95 59.5126 82.2 59.6134 81.5 59.1597 C 81.45 58.7563 81.6 58.4538 81.8 58.2017 C 82.15 57.6975 82.55 57.1429 82.95 56.6387 C 83.6 55.7815 84.25 54.9244 84.9 54.0168 C 85.05 53.7647 85.2 53.563 85.2 53.2605 C 84.85 53.0588 84.5 53.1597 84.2 53.2101 C 83.15 54.2689 82.4 55.5294 81.6 56.6891 C 81.1 57.4454 80.55 58.1008 79.95 58.7563 C 79.8 58.9076 79.65 59.1597 79.4 59.1597 C 78.65 59.2101 77.9 59.3109 77.25 58.9076 C 77.15 58.5042 77.35 58.2017 77.5 57.9496 C 77.85 57.4454 78.25 56.8908 78.65 56.3866 C 79.3 55.5294 79.95 54.6723 80.6 53.7647 C 80.75 53.5126 80.95 53.3109 80.9 52.9076 C 79.6 52.8067 78.25 52.605 76.95 52.7059 C 75.9 53.8151 75.1 55.0252 74.3 56.2353 C 73.8 56.9412 73.25 57.6471 72.65 58.3025 C 72.45 58.5546 72.2 58.7563 71.85 58.7563 C 71.2 58.7059 70.55 58.8067 69.95 58.605 C 69.9 57.8992 69.9 57.8992 70.15 57.5966 C 70.55 56.9916 71 56.437 71.45 55.8319 C 72.1 54.9748 72.75 54.1176 73.4 53.2101 C 73.55 53.0084 73.65 52.8067 73.5 52.5546 C 73.05 52.3529 72.65 52.4034 72.35 52.8571 C 72.15 53.1092 71.95 53.3613 71.75 53.6134 C 71.2 54.4202 70.65 55.1765 70.1 55.9832 C 69.6 56.6891 69.1 57.3445 68.55 57.9496 C 68.4 58.1008 68.2 58.3529 68 58.4034 C 67.2 58.5042 66.45 58.605 65.65 58.1008 C 66.05 56.9916 66.85 56.1849 67.5 55.2773 C 68.15 54.3697 68.9 53.5126 69.4 52.5042 C 68.9 52.2017 68.45 52.1513 68.1 52.605 C 67.9 52.8571 67.65 53.1092 67.5 53.3613 C 66.9 54.1681 66.35 54.9748 65.75 55.8319 C 65.25 56.5378 64.75 57.1933 64.2 57.7983 C 64.05 57.9496 63.9 58.2017 63.65 58.2017 C 62.9 58.2521 62.15 58.3529 61.5 57.9496 C 61.4 57.5966 61.5 57.3445 61.7 57.0924 C 62 56.6387 62.3 56.2353 62.6 55.8319 C 63.35 54.8235 64.15 53.7647 64.9 52.7563 C 65 52.605 65.15 52.4538 65.05 52.2521 C 64.2 52.0504 62.05 51.8992 61.05 52 C 60.05 53.0588 59.25 54.2689 58.45 55.479 C 57.85 56.3866 57.2 57.2437 56.35 57.9496 C 55.55 57.9496 54.75 58.1008 54.05 57.6471 C 54.05 57.4958 54.05 57.3445 54.1 57.2437 C 54.15 57.042 54.25 56.8908 54.4 56.6891 C 54.75 56.1849 55.15 55.6303 55.55 55.126 C 56.2 54.2689 56.85 53.4118 57.5 52.5042 C 57.65 52.2521 57.8 52.0504 57.8 51.7479 C 57.45 51.5462 57.15 51.5966 56.8 51.6471 C 55.75 52.7059 55 53.916 54.2 55.126 C 53.7 55.8319 53.15 56.5378 52.55 57.1933 C 52.4 57.3445 52.25 57.5966 52 57.5966 C 51.25 57.6471 50.5 57.7479 49.85 57.3445 C 49.75 56.9412 49.9 56.6387 50.1 56.3866 C 50.55 55.7815 51 55.1765 51.45 54.5714 C 52.05 53.7143 52.7 52.9076 53.3 52.0504 C 53.4 51.8992 53.6 51.6471 53.4 51.395 C 52.3 51.3445 51.2 51.2437 50.05 51.1933 C 49.45 52.1008 48.85 52.958 48.3 53.8151 C 47.6 54.8739 46.95 55.8824 46.1 56.8403 C 45.9 57.042 45.75 57.3445 45.45 57.395 C 44.65 57.4958 43.9 57.5966 43.2 57.1429 C 43.15 56.5882 43.45 56.2353 43.7 55.8824 C 44.65 54.521 45.65 53.1092 46.6 51.7479 C 46.7 51.5966 46.9 51.4454 46.75 51.1933 C 46.3 50.9916 45.95 51.0924 45.6 51.4454 C 44.8 52.4034 44.1 53.4622 43.4 54.4706 C 42.9 55.2269 42.35 55.8824 41.8 56.5378 C 41.6 56.7395 41.45 56.9916 41.1 56.9916 C 40.4 56.9916 39.65 57.0924 39 56.7899 C 38.85 56.2353 39.15 55.9328 39.4 55.5798 C 40.35 54.2689 41.3 53.0084 42.3 51.6975 C 42.45 51.4958 42.65 51.2437 42.65 50.9412 C 42.3 50.7899 41.95 50.7899 41.55 50.9412 C 41.25 51.2941 40.95 51.6471 40.65 52 C 40.1 52.7563 39.55 53.6134 39 54.3697 C 38.5 55.0252 37.95 55.6807 37.45 56.3361 C 37.25 56.5378 37.05 56.7395 36.75 56.7395 C 36.1 56.7395 35.4 56.7899 34.75 56.5378 C 34.55 55.9832 34.85 55.6303 35.15 55.3277 C 36.15 54.0168 37.1 52.7059 38.1 51.3445 C 37.9 51.3445 38 51.1933 37.95 50.8403 Z M 101.15 70.605 C 100.9 70.605 100.7 70.605 100.5 70.605 C 98.85 70.5042 97.25 70.4034 95.6 70.3025 C 95.5 70.3025 95.45 70.3025 95.35 70.3025 C 93.85 70 92.35 70.1008 90.85 69.8992 C 89.35 69.7479 87.85 69.6975 86.3 69.5966 C 83.5 69.395 80.75 69.1429 77.95 68.9412 C 76.1 68.7899 74.2 68.7395 72.35 68.6387 C 72.25 68.6387 72.1 68.6387 72 68.6387 C 70.65 68.2857 69.3 68.437 67.95 68.2857 C 66.15 68.084 64.3 68.0336 62.45 67.9328 C 62.3 67.9328 62.15 67.9328 61.95 67.8824 C 60.4 67.5294 58.75 67.6807 57.2 67.5294 C 55.4 67.3782 53.55 67.126 51.7 67.1765 C 51.55 67.1765 51.4 67.1765 51.2 67.1765 C 49.85 66.8739 48.5 66.9748 47.15 66.8235 C 45.25 66.6218 43.35 66.5714 41.4 66.4706 C 41.3 66.4706 41.25 66.4706 41.15 66.4706 C 39.55 66.2689 37.9 66.1176 36.25 66.0168 C 35.1 65.916 33.95 65.916 32.8 65.7647 C 31.25 65.563 29.7 65.6134 28.15 65.4118 C 26.25 65.2101 24.35 65.2101 22.4 65.0588 C 21.4 64.958 20.4 64.8571 19.4 64.8571 C 19.15 64.8571 18.95 64.7563 18.7 64.7059 C 18.15 64.6555 17.85 64.3025 17.7 63.7983 C 17.5 63.042 17.35 62.2353 17.2 61.4286 C 17.1 60.9748 17.05 60.4706 16.85 60.0672 C 16.45 59.9664 16.1 59.8655 15.75 59.8655 C 14.65 59.8151 13.5 59.7647 12.4 59.6134 C 11.2 59.4118 9.95 59.3109 8.75 59.1597 C 8.25 59.1092 7.75 59.0084 7.2 59.1597 C 7.2 60.1681 7.5 61.0756 7.6 62.0336 C 7.7 62.9412 7.95 63.8487 8.05 64.7563 C 8.15 65.7143 8.45 66.6218 8.65 67.5294 C 8.9 67.6303 9.1 67.6807 9.3 67.7311 C 10.9 67.9328 12.55 68.084 14.15 68.2353 C 15.85 68.3866 17.55 68.6387 19.25 68.6891 C 21.5 68.7395 23.8 68.9916 26.05 69.1429 C 28.15 69.2941 30.25 69.4958 32.35 69.5966 C 33.8 69.6975 35.3 69.7983 36.75 69.9496 C 38.35 70.1008 39.95 70.1513 41.55 70.2521 C 41.65 70.2521 41.8 70.2521 41.9 70.3025 C 43 70.605 44.1 70.5042 45.2 70.6555 C 47.2 70.8571 49.25 70.9076 51.3 71.0084 C 51.45 71.0084 51.6 71.0084 51.8 71.0588 C 53.25 71.1597 54.65 71.3109 56.1 71.4118 C 58 71.563 59.95 71.6134 61.85 71.7143 C 61.95 71.7143 62 71.7143 62.1 71.7143 C 63.7 71.8655 65.3 72.0168 66.85 72.1176 C 68.75 72.2185 70.65 72.3193 72.6 72.4202 C 72.7 72.4202 72.75 72.4202 72.85 72.4202 C 74.4 72.7731 75.95 72.6723 77.5 72.7731 C 79.55 72.9748 81.65 73.126 83.7 73.2269 C 85.95 73.3782 88.15 73.5294 90.35 73.7311 C 91.55 73.8319 92.75 73.8824 93.95 73.9832 C 95.55 74.084 97.15 74.2857 98.7 74.3361 C 99.15 74.3361 99.6 74.3361 100 74.3866 C 102.1 74.5882 104.2 74.7899 106.3 74.7899 C 106.8 74.7899 107.3 74.7395 107.95 74.6891 C 107.7 73.2269 107.4 71.8655 107.2 70.4538 C 107 69.0924 106.9 67.6807 106.6 66.3193 C 106.35 66.3193 106.2 66.3193 106.05 66.3193 C 104.8 66.2185 103.6 66.3193 102.35 66.1176 C 101.85 66.0168 101.25 65.916 100.7 66.2185 C 100.65 67.6303 101.25 69.042 101.15 70.605 Z M 99.75 65.3109 C 99.35 65.2605 99 65.1597 98.65 65.1092 C 97.2 65.0084 95.8 64.9076 94.35 64.8067 C 90.75 64.5546 87.2 64.3025 83.6 64.0504 C 81.4 63.8992 79.2 63.7479 77.05 63.5966 C 75.4 63.4958 73.8 63.395 72.15 63.2941 C 69.35 63.0924 66.6 62.8908 63.8 62.6891 C 62.1 62.5882 60.35 62.4874 58.65 62.3361 C 55.05 62.084 51.5 61.8319 47.9 61.5798 C 44.75 61.3277 41.6 61.126 38.45 60.8739 C 34.85 60.5714 31.2 60.2689 27.6 60.0168 C 25.55 59.8655 23.45 59.7143 21.4 59.563 C 20.7 59.5126 20 59.4622 19.2 59.5126 C 19.3 60.7227 19.6 61.8319 19.8 62.9412 C 20 62.9916 20.1 63.042 20.2 63.042 C 22.85 63.2437 25.55 63.4454 28.2 63.6471 C 30.85 63.8487 33.55 64 36.2 64.2017 C 39.25 64.4034 42.25 64.6555 45.3 64.9076 C 46.7 65.0084 48.1 65.1092 49.5 65.2101 C 52.2 65.4118 54.9 65.6134 57.6 65.8151 C 59.15 65.916 60.7 66.0168 62.25 66.1176 C 65.35 66.3193 68.45 66.5714 71.55 66.8235 C 73 66.9244 74.5 67.0252 75.95 67.126 C 78.6 67.3277 81.2 67.5294 83.85 67.7311 C 86.6 67.9328 89.35 68.084 92.1 68.2857 C 93.7 68.3866 95.3 68.5378 96.9 68.6891 C 97.9 68.7395 98.95 68.7899 99.95 68.8403 C 100 67.5798 99.55 66.5714 99.75 65.3109 Z M 122.8 38.8908 C 122.65 39.1429 122.5 39.2941 122.4 39.4454 C 119.95 43.5294 117.75 47.6639 115.55 51.8487 C 113.25 56.1849 111.15 60.5714 108.55 64.7563 C 108 65.6134 107.7 66.4706 107.95 67.5798 C 108.35 69.2437 108.5 71.0084 108.75 72.7227 C 108.8 73.0252 108.9 73.2773 109.1 73.6303 C 109.25 73.4286 109.35 73.2773 109.45 73.1765 C 110.2 71.6639 111 70.2017 111.75 68.6891 C 113.5 65.1092 115.3 61.5798 117.2 58.1008 C 117.95 56.7395 118.7 55.4286 119.35 54.0672 C 120.55 51.4958 122 49.0252 123.1 46.4034 C 123.45 45.5462 123.75 44.7395 123.6 43.8319 C 123.4 42.3193 123.2 40.8067 123 39.2941 C 123 39.0924 122.95 39.042 122.8 38.8908 Z " id="Shape" fill="#000000" stroke-width="1"/>
          <path d="M 122.35 37.2773 C 122.2 37.9328 121.8 38.3866 121.5 38.8403 C 119.9 41.4622 118.45 44.1345 117 46.8067 C 115.9 48.8739 114.8 50.8908 113.7 52.958 C 112.3 55.5798 110.95 58.2521 109.55 60.8739 C 108.75 62.3361 107.9 63.7479 107.1 65.1092 C 106.25 65.2605 102.8 65.1092 101.35 64.8571 C 101.25 64.7059 101.3 64.5546 101.4 64.4034 C 102.6 62.3866 103.55 60.2689 104.65 58.2017 C 105.15 57.2437 105.85 56.3866 106.25 55.3782 C 106.35 55.0756 106.5 54.7731 106.6 54.4706 C 106.75 54.0672 106.6 53.7647 106.25 53.563 C 105.95 53.4118 105.65 53.3613 105.35 53.3109 C 102.65 53.1092 99.95 52.8571 97.25 52.6555 C 93.95 52.4538 90.65 52.2017 87.3 52.1008 C 85.05 52.0504 82.85 51.7983 80.6 51.6975 C 78.05 51.5462 75.5 51.395 72.95 51.2941 C 70.1 51.1429 67.3 51.042 64.45 50.9412 C 62.75 50.8403 61 50.7395 59.3 50.6387 C 57.05 50.4874 54.85 50.3866 52.6 50.2857 C 49.25 50.1345 45.9 49.9832 42.55 49.8319 C 39.45 49.6807 36.3 49.6303 33.2 49.479 C 30.95 49.3782 28.65 49.1765 26.4 49.0252 C 26.2 49.0252 26 49.0252 25.8 48.9748 C 24.95 48.8739 24.45 49.2269 23.85 49.8824 C 21.75 52.2521 19.9 54.8235 17.85 57.2437 C 16.55 58.8067 16.55 58.8067 14.6 58.605 C 12.5 58.4034 10.4 58.1513 8.3 57.9496 C 8.1 57.9496 7.9 57.8992 7.75 57.6471 C 8.35 56.8403 8.95 55.9832 9.6 55.1765 C 12.95 50.8908 16.4 46.605 19.95 42.4706 C 22.45 39.5462 24.9 36.6723 27.25 33.6471 C 27.6 33.1933 28 32.7899 28.35 32.3866 C 29.4 32.2353 30.45 32.437 31.5 32.4874 C 34.5 32.5882 37.5 32.7395 40.5 32.8908 C 43.35 33.042 46.15 33.1429 49 33.2941 C 51.45 33.395 53.85 33.4958 56.3 33.5966 C 60.8 33.8487 65.3 34.1513 69.8 34.4538 C 72 34.605 74.2 34.7059 76.4 34.8067 C 80 35.0084 83.6 35.2605 87.15 35.4622 C 89.2 35.563 91.2 35.6639 93.25 35.7647 C 98.1 36.0672 102.9 36.3697 107.75 36.521 C 111.2 36.6218 114.6 36.7731 118.05 36.9244 C 119.45 37.0756 120.85 37.1765 122.35 37.2773 Z M 86.2 36.9244 C 86.05 36.6218 85.9 36.4202 85.65 36.4202 C 85.2 36.3697 84.8 36.3193 84.35 36.2689 C 82.9 36.2185 81.5 36.2185 80.05 36.1176 C 77.9 36.0168 75.75 35.916 73.6 35.8151 C 70.8 35.7143 68 35.6134 65.25 35.5126 C 62.7 35.4118 60.15 35.3613 57.6 35.2605 C 57.3 35.2605 56.95 35.2101 56.65 35.3613 C 55.7 36.6218 54.8 37.9832 54 39.3445 C 53.05 40.8571 52.15 42.3697 51.3 43.8824 C 50.75 44.8403 50.05 45.7479 49.7 46.8067 C 49.6 47.0084 49.45 47.2605 49.7 47.563 C 50 47.8151 50.45 47.8151 50.85 47.8655 C 52.75 48.0168 54.65 48.1681 56.55 48.3697 C 59.35 48.7227 62.1 48.8235 64.9 48.9244 C 68.55 49.126 72.25 49.1765 75.9 49.3277 C 76.2 49.3277 76.55 49.3782 76.85 49.3782 C 77.5 49.4286 78.15 49.4286 78.75 49.4286 C 79.2 49.4286 79.5 49.2773 79.65 48.8235 C 79.75 48.4706 79.95 48.1681 80.1 47.8655 C 81.05 45.9496 82.2 44.1849 83.3 42.3697 C 84.35 40.6555 85.25 38.7395 86.2 36.9244 Z M 21.3 49.6303 C 21.15 49.3782 21 49.3277 20.85 49.3277 C 20.15 49.2773 19.4 49.2773 18.7 49.126 C 17.85 48.9748 17.25 49.3277 16.75 49.9832 C 15.3 51.8487 13.85 53.7143 12.4 55.5798 C 12.25 55.7815 12.05 56.0336 12.15 56.3866 C 12.5 56.6891 12.95 56.7395 13.45 56.7899 C 14 56.8403 14.55 56.8403 15.1 56.9412 C 15.75 57.042 16.2 56.8908 16.6 56.2857 C 18 54.3697 19.25 52.3529 20.75 50.5378 C 21 50.2857 21.25 49.9832 21.3 49.6303 Z M 41.85 47.3109 C 42.4 47.3613 42.9 47.1597 43.35 46.958 C 44.45 46.4034 44.7 44.9916 43.85 44.1345 C 42.75 43.0252 40.15 43.5798 39.6 45.0924 C 39.3 46 39.65 46.8067 40.55 47.1092 C 41 47.2605 41.45 47.3613 41.85 47.3109 Z M 44.25 42.7731 C 45 42.7731 45.8 42.4706 46.25 42.0672 C 47.1 41.3109 47.05 40.2521 46.15 39.5966 C 46 39.4958 45.85 39.4454 45.75 39.395 C 44.9 39.042 44.05 39.1933 43.2 39.4454 C 42.6 39.6471 42.1 40.4034 42.1 41.0588 C 42.1 41.7143 42.4 42.2185 43 42.4706 C 43.4 42.6218 43.8 42.8235 44.25 42.7731 Z M 25.45 42.7227 C 24.65 42.7227 24 42.9244 23.55 43.2773 C 22.6 44.084 22.7 45.395 23.85 45.9496 C 24.6 46.3025 25.45 46.4034 26.3 46 C 27.15 45.6471 27.6 44.6891 27.4 43.8319 C 27.25 43.2269 26.55 42.7731 25.75 42.7227 C 25.65 42.7227 25.55 42.7227 25.45 42.7227 Z M 33.75 46.4538 C 34.6 46.5546 35.3 46.2521 35.85 45.5966 C 36.45 44.8908 36.4 44.084 35.65 43.5294 C 34.5 42.6218 32.4 43.0756 31.7 44.3866 C 31.4 44.9412 31.45 45.3445 31.9 45.7983 C 32.4 46.2521 33 46.5546 33.75 46.4538 Z M 33.7 35.3613 C 33.7 34.7059 33.5 34.3025 33.05 34.0504 C 32.35 33.5966 30.35 33.7983 29.7 34.5546 C 29 35.3109 29.1 36.3697 30 36.8739 C 30.95 37.3782 32.35 37.2269 33.1 36.4706 C 33.4 36.1176 33.7 35.7647 33.7 35.3613 Z M 27.5 41.6134 C 28.35 41.6134 29.35 41.2605 29.85 40.8571 C 30.4 40.4034 30.5 39.4958 30 38.9412 C 29 37.7815 26.65 37.9328 25.75 39.6471 C 25.45 40.2017 25.65 40.8571 26.2 41.2101 C 26.65 41.563 27.15 41.6134 27.5 41.6134 Z M 46.9 38.1345 C 47.45 38.0336 47.95 38.0336 48.45 37.8319 C 49.65 37.4286 49.85 36.0168 48.9 35.2101 C 48.65 35.0084 48.35 34.8571 48.05 34.8067 C 47.3 34.7059 46.6 34.8067 45.95 35.0588 C 45.65 35.1597 45.4 35.4118 45.2 35.6639 C 44.75 36.2689 44.8 37.0252 45.4 37.5294 C 45.85 37.8824 46.4 38.0336 46.9 38.1345 Z M 39 37.7311 C 39.75 37.7815 40.4 37.479 40.9 36.8235 C 41.45 36.1176 41.35 35.5126 40.7 34.9076 C 40.45 34.7059 40.2 34.5546 39.85 34.4538 C 38.95 34.2521 38.1 34.5042 37.35 35.0084 C 37.2 35.1092 37.05 35.3109 36.95 35.4622 C 36.55 36.1176 36.65 36.6723 37.2 37.1765 C 37.75 37.6807 38.3 37.7815 39 37.7311 Z M 36.65 38.5882 C 35.85 38.5378 35.2 38.7899 34.6 39.395 C 33.8 40.2017 34 41.3109 35.05 41.7647 C 36.15 42.2689 37.65 41.916 38.4 40.958 C 38.95 40.2521 38.8 39.3445 38 38.9412 C 37.6 38.6891 37.15 38.5882 36.65 38.5882 Z M 84.75 46.8571 C 84.95 47.3109 85.35 47.3613 85.75 47.4118 C 87.25 47.563 88.75 47.6134 90.3 47.6134 C 90.65 47.6134 91.05 47.6134 91.3 47.2605 C 91.25 46.9076 91.05 46.7563 90.7 46.6555 C 90.25 46.5042 89.85 46.605 89.4 46.5546 C 88.15 46.4538 86.95 46.4538 85.7 46.4538 C 85.3 46.4034 84.95 46.4538 84.75 46.8571 Z M 101.8 45.042 C 101.75 44.6891 101.55 44.5378 101.2 44.437 C 100.75 44.2857 100.35 44.3866 99.9 44.3361 C 98.65 44.2353 97.45 44.2353 96.2 44.2353 C 95.85 44.2353 95.5 44.2857 95.3 44.6891 C 95.5 45.1429 95.9 45.1933 96.3 45.2437 C 97.8 45.395 99.3 45.4454 100.85 45.4454 C 101.2 45.4454 101.55 45.395 101.8 45.042 Z M 113.25 42.6723 C 113.3 42.4202 113.25 42.2185 113.05 42.1176 C 112.75 41.9664 112.45 41.8655 112.15 41.8655 C 110.75 41.8151 109.35 41.7143 108 41.6134 C 107.7 41.6134 107.35 41.563 107.05 41.7143 C 106.85 41.8151 106.65 41.8655 106.65 42.1176 C 106.75 42.4202 107 42.4706 107.3 42.521 C 108.85 42.8235 110.45 42.7227 112.05 42.9244 C 112.45 43.0252 112.85 42.8739 113.25 42.6723 Z M 100.75 47.7647 C 100.8 47.4118 100.65 47.2605 100.45 47.1597 C 100.05 46.958 99.6 46.958 99.15 46.9076 C 98.05 46.8571 96.9 46.8571 95.8 46.7059 C 95.4 46.6555 95 46.7059 94.6 46.7563 C 94.4 46.8067 94.1 46.8571 94.05 47.1597 C 94.15 47.563 94.45 47.563 94.75 47.6134 C 96.3 47.916 97.85 47.8151 99.4 48.0168 C 99.95 48.1176 100.35 47.9664 100.75 47.7647 Z M 91.7 44.9412 C 92.05 44.9412 92.3 44.8908 92.6 44.8908 C 92.75 44.8908 92.9 44.7395 92.9 44.5882 C 92.9 44.437 92.8 44.2857 92.65 44.2353 C 92.15 43.9832 91.6 43.8824 91.05 43.8319 C 89.8 43.7815 88.6 43.7311 87.35 43.5798 C 87.1 43.5294 86.85 43.5798 86.65 43.6303 C 86.55 43.6303 86.45 43.7815 86.4 43.8824 C 86.35 44.0336 86.4 44.1849 86.55 44.2857 C 86.75 44.437 87 44.4874 87.2 44.5378 C 88.75 44.6891 90.25 44.8403 91.7 44.9412 Z M 114.25 39.6975 C 114.05 39.2941 113.75 39.1933 113.45 39.1933 C 111.8 39.0924 110.1 38.9916 108.45 38.9412 C 108.25 38.9412 108.05 38.9916 107.85 39.042 C 107.7 39.0924 107.55 39.1933 107.55 39.395 C 107.55 39.5966 107.7 39.6975 107.85 39.7479 C 108.15 39.8487 108.45 39.8992 108.8 39.9496 C 109.65 40.0504 110.55 40.1008 111.4 40.1513 C 112.05 40.2017 112.65 40.2017 113.3 40.2017 C 113.65 40.1513 114.05 40.1008 114.25 39.6975 Z M 103.95 41.8151 C 103.65 41.3613 103.2 41.3109 102.75 41.2605 C 101.9 41.2101 101.1 41.1092 100.25 41.1092 C 99.6 41.0588 98.9 41.0588 98.25 41.0588 C 97.95 41.0588 97.7 41.0588 97.45 41.2101 C 97.35 41.2605 97.25 41.4118 97.25 41.4622 C 97.25 41.563 97.35 41.7143 97.4 41.7647 C 97.7 41.8655 98 41.9664 98.3 42.0168 C 99.2 42.1176 100.1 42.2185 101 42.2689 C 101.65 42.3193 102.25 42.3193 102.9 42.3193 C 103.35 42.3193 103.7 42.3193 103.95 41.8151 Z M 110.2 48.3697 C 109.6 47.916 109.6 47.8655 109.1 47.8655 C 108.45 47.8151 107.85 47.8655 107.2 47.7647 C 106.35 47.6639 105.45 47.6134 104.6 47.6134 C 104.35 47.6134 104.05 47.6639 103.8 47.7143 C 103.65 47.7647 103.5 47.8655 103.5 48.0672 C 103.5 48.2689 103.65 48.3697 103.8 48.4202 C 104.05 48.4706 104.35 48.5714 104.6 48.6218 C 105.5 48.7227 106.4 48.7731 107.3 48.8739 C 107.95 48.9244 108.55 48.9244 109.2 48.9244 C 109.6 48.8235 109.95 48.8235 110.2 48.3697 Z M 104.9 45.2437 C 105.25 45.5966 105.65 45.6471 106.05 45.6471 C 107.45 45.7479 108.9 45.8487 110.3 45.9496 C 110.55 45.9496 110.85 45.9496 111.15 45.8992 C 111.4 45.8487 111.6 45.7479 111.55 45.4454 C 110.95 45.042 110.95 45.042 110.4 44.9916 C 109.6 44.9412 108.8 44.8403 108.05 44.8403 C 107.25 44.7899 106.45 44.7899 105.65 44.7899 C 105.35 44.6891 105 44.7395 104.9 45.2437 Z M 89.6 38.084 C 89.5 38.3361 89.5 38.5882 89.8 38.6891 C 90.05 38.7899 90.3 38.8908 90.6 38.9412 C 92.15 39.0924 93.7 39.1933 95.25 39.2941 C 95.5 39.2941 95.8 39.2941 96.05 39.0924 C 96.1 38.8908 96.05 38.6891 95.85 38.5882 C 95.5 38.3866 95.1 38.2857 94.7 38.2353 C 93.25 38.1345 91.75 38.0336 90.3 37.9328 C 90.05 37.8319 89.8 37.8824 89.6 38.084 Z M 98.45 38.8908 C 98.5 39.1429 98.6 39.2941 98.75 39.3445 C 99.1 39.4958 99.5 39.5966 99.9 39.5966 C 101.25 39.6471 102.6 39.6471 103.95 39.6975 C 104.2 39.6975 104.45 39.6471 104.65 39.5966 C 104.75 39.5966 104.85 39.4454 104.9 39.3445 C 105 39.1933 104.9 39.042 104.75 38.9412 C 104.4 38.6891 104.05 38.6387 103.6 38.6387 C 102.25 38.5882 100.9 38.5378 99.55 38.4874 C 99.15 38.5378 98.8 38.5882 98.45 38.8908 Z M 87.8 41.1597 C 88.2 41.7143 88.75 41.7647 89.25 41.8151 C 90.65 41.8655 92 41.8655 93.4 41.916 C 93.65 41.916 93.85 41.8655 94.1 41.8151 C 94.2 41.7647 94.3 41.6639 94.3 41.563 C 94.3 41.4622 94.25 41.3109 94.2 41.2605 C 93.9 40.958 93.5 40.958 93.1 40.9076 C 91.7 40.8571 90.3 40.958 88.95 40.7563 C 88.55 40.6555 88.2 40.7563 87.8 41.1597 Z " id="Shape" fill="#87D7DC" stroke-width="1"/>
          <path d="M 37.95 50.8403 C 38 51.1933 37.9 51.3445 37.75 51.5462 C 36.75 52.8571 35.8 54.1681 34.8 55.5294 C 34.55 55.8824 34.2 56.2353 34.4 56.7395 C 35.05 56.9916 35.7 56.8908 36.4 56.9412 C 36.7 56.9412 36.95 56.7899 37.1 56.5378 C 37.65 55.8824 38.15 55.2269 38.65 54.5714 C 39.2 53.8151 39.75 53.0084 40.3 52.2017 C 40.6 51.7983 40.9 51.4454 41.2 51.1429 C 41.6 51.042 41.95 50.9916 42.3 51.1429 C 42.3 51.4454 42.15 51.6471 41.95 51.8992 C 41 53.1597 40.05 54.4706 39.05 55.7815 C 38.8 56.1345 38.5 56.4874 38.65 56.9916 C 39.35 57.2437 40.05 57.1933 40.75 57.1933 C 41.05 57.1933 41.25 56.9412 41.45 56.7395 C 42.05 56.084 42.6 55.3782 43.05 54.6723 C 43.75 53.6639 44.45 52.605 45.25 51.6471 C 45.6 51.2437 45.95 51.1933 46.4 51.395 C 46.5 51.6471 46.35 51.7983 46.25 51.9496 C 45.3 53.3109 44.3 54.7227 43.35 56.084 C 43.1 56.437 42.8 56.7899 42.85 57.3445 C 43.55 57.7983 44.35 57.6975 45.1 57.5966 C 45.4 57.5462 45.55 57.2437 45.75 57.042 C 46.6 56.1345 47.3 55.0756 47.95 54.0168 C 48.5 53.1597 49.1 52.3025 49.7 51.395 C 50.85 51.4454 51.95 51.5462 53.05 51.5966 C 53.25 51.8992 53.05 52.1008 52.95 52.2521 C 52.35 53.1092 51.7 53.916 51.1 54.7731 C 50.65 55.3782 50.2 55.9832 49.75 56.5882 C 49.55 56.8403 49.4 57.1429 49.5 57.5462 C 50.15 57.9496 50.95 57.8487 51.65 57.7983 C 51.9 57.7983 52.05 57.5462 52.2 57.395 C 52.8 56.7395 53.35 56.0336 53.85 55.3277 C 54.65 54.1176 55.45 52.9076 56.45 51.8487 C 56.8 51.7479 57.1 51.7479 57.45 51.9496 C 57.45 52.2521 57.3 52.5042 57.15 52.7059 C 56.5 53.563 55.85 54.4202 55.2 55.3277 C 54.8 55.8319 54.45 56.3361 54.05 56.8908 C 53.95 57.042 53.85 57.2437 53.75 57.4454 C 53.7 57.5462 53.75 57.6975 53.7 57.8487 C 54.45 58.3025 55.25 58.1513 56 58.1513 C 56.85 57.4454 57.45 56.5378 58.1 55.6807 C 58.9 54.4706 59.7 53.2605 60.7 52.2017 C 61.7 52.1008 63.85 52.2017 64.7 52.4538 C 64.8 52.6555 64.7 52.8067 64.55 52.958 C 63.8 53.9664 63 55.0252 62.25 56.0336 C 61.95 56.437 61.65 56.8908 61.35 57.2941 C 61.2 57.5462 61.05 57.7983 61.15 58.1513 C 61.8 58.5042 62.6 58.4538 63.3 58.4034 C 63.55 58.4034 63.7 58.1513 63.85 58 C 64.45 57.395 64.95 56.7395 65.4 56.0336 C 65.95 55.2269 66.55 54.3697 67.15 53.563 C 67.35 53.3109 67.55 53.0588 67.75 52.8067 C 68.15 52.3529 68.55 52.4034 69.05 52.7059 C 68.5 53.7647 67.8 54.6218 67.15 55.479 C 66.5 56.3866 65.7 57.1933 65.3 58.3025 C 66.1 58.8067 66.9 58.7059 67.65 58.605 C 67.85 58.605 68.05 58.3529 68.2 58.1513 C 68.8 57.5462 69.3 56.8403 69.75 56.1849 C 70.3 55.3782 70.85 54.6218 71.4 53.8151 C 71.6 53.563 71.8 53.3109 72 53.0588 C 72.3 52.6555 72.7 52.605 73.15 52.7563 C 73.35 53.0084 73.2 53.2101 73.05 53.4118 C 72.4 54.2689 71.75 55.1765 71.1 56.0336 C 70.65 56.6387 70.25 57.1933 69.8 57.7983 C 69.55 58.1513 69.6 58.1513 69.6 58.8067 C 70.2 59.0084 70.85 58.958 71.5 58.958 C 71.85 58.958 72.1 58.7563 72.3 58.5042 C 72.9 57.8487 73.45 57.1429 73.95 56.437 C 74.75 55.2269 75.55 54.0168 76.6 52.9076 C 77.9 52.8067 79.2 53.0084 80.55 53.1092 C 80.55 53.5126 80.4 53.7647 80.25 53.9664 C 79.6 54.8235 78.95 55.6807 78.3 56.5882 C 77.9 57.0924 77.55 57.5966 77.15 58.1513 C 76.95 58.4034 76.8 58.7059 76.9 59.1092 C 77.55 59.5126 78.35 59.4118 79.05 59.3613 C 79.3 59.3613 79.45 59.1092 79.6 58.958 C 80.2 58.3025 80.75 57.5966 81.25 56.8908 C 82.05 55.6807 82.85 54.4706 83.85 53.4118 C 84.15 53.3613 84.5 53.2605 84.85 53.4622 C 84.85 53.7647 84.7 54.0168 84.55 54.2185 C 83.9 55.0756 83.25 55.9328 82.6 56.8403 C 82.2 57.3445 81.85 57.8487 81.45 58.4034 C 81.25 58.6555 81.1 58.958 81.15 59.3613 C 81.85 59.8151 82.65 59.7143 83.4 59.6134 C 83.6 59.6134 83.8 59.3613 83.95 59.1597 C 84.55 58.5042 85.1 57.7983 85.6 57.0924 C 86.4 55.8824 87.2 54.6723 88.25 53.563 C 89.15 53.6134 90.1 53.6639 91.05 53.6639 C 91.2 54.0672 90.95 54.3193 90.8 54.5714 C 90.2 55.4286 89.55 56.2353 88.9 57.0924 C 88.45 57.6471 88.05 58.2521 87.6 58.8571 C 87.4 59.1092 87.25 59.4118 87.45 59.8151 C 88.1 60.0672 88.8 60.0168 89.55 59.9664 C 89.85 59.9664 90.05 59.7143 90.2 59.5126 C 90.75 58.8571 91.25 58.2017 91.75 57.4958 C 92.6 56.2857 93.4 55.0252 94.45 53.916 C 94.75 53.8151 95.05 53.8655 95.35 53.916 C 95.4 54.0168 95.45 54.1176 95.45 54.1681 C 95.4 54.4706 95.25 54.6723 95.05 54.9244 C 94.1 56.1849 93.15 57.4958 92.15 58.8067 C 91.9 59.1597 91.6 59.5126 91.75 60.0168 C 92.45 60.2689 93.15 60.2185 93.85 60.2185 C 94.15 60.2185 94.35 59.9664 94.5 59.7647 C 95.05 59.1092 95.55 58.4538 96.05 57.7479 C 96.9 56.5378 97.7 55.2773 98.75 54.2185 C 99 54.1176 99.3 54.1176 99.55 54.2689 C 99.7 54.6218 99.5 54.8739 99.35 55.126 C 98.75 55.9328 98.15 56.7395 97.55 57.5462 C 97.1 58.1008 96.7 58.7059 96.25 59.2605 C 96.05 59.563 95.85 59.8655 95.95 60.3193 C 96.6 60.6723 97.3 60.5714 98 60.5714 C 98.3 60.5714 98.5 60.3193 98.7 60.1176 C 99.3 59.4622 99.85 58.7563 100.35 58.0504 C 101.15 56.8403 101.95 55.6303 103 54.5714 C 103.7 54.6218 104.45 54.5714 105.25 54.7731 C 105.25 55.2773 105 55.6303 104.8 55.9832 C 103.25 58.7563 101.65 61.479 100.05 64.2521 C 98.5 64.3529 97 64.0504 95.5 64 C 93.85 63.8992 92.15 63.7479 90.5 63.5966 C 87.6 63.395 84.7 63.1429 81.8 62.9412 C 79.95 62.7899 78.05 62.6891 76.2 62.5882 C 73.15 62.3866 70.15 62.1345 67.1 61.9328 C 65.25 61.8319 63.45 61.7311 61.6 61.5798 C 60.05 61.479 58.5 61.3277 56.95 61.2269 C 55.25 61.126 53.5 61.0252 51.8 60.8739 C 49.75 60.7227 47.75 60.6218 45.7 60.4706 C 42.4 60.2185 39.1 59.9664 35.8 59.7143 C 32.95 59.5126 30.15 59.2605 27.3 59.0588 C 25.3 58.9076 23.3 58.8067 21.3 58.6555 C 20.65 58.605 19.95 58.605 19.35 58.4034 C 19.35 58.0504 19.5 57.7983 19.7 57.5966 C 21.15 56.1345 22.3 54.4202 23.55 52.8067 C 24.05 52.2017 24.5 51.6471 25 51.042 C 25.25 50.6891 25.55 50.4874 26.05 50.6387 C 26.4 50.7395 26.8 50.7395 27.2 50.7899 C 27.25 51.042 27.2 51.2437 27.05 51.395 C 26.4 52.2521 25.8 53.0588 25.15 53.916 C 24.7 54.4706 24.3 55.0756 23.85 55.6807 C 23.65 55.9328 23.5 56.2353 23.65 56.6387 C 24.3 56.8908 25.05 56.8403 25.8 56.7899 C 26.05 56.7899 26.2 56.5882 26.35 56.3866 C 26.85 55.7815 27.4 55.1765 27.85 54.521 C 28.75 53.2605 29.55 51.9496 30.65 50.7899 C 31 50.6891 31.45 50.7395 31.9 50.8403 C 32 51.1429 31.85 51.2941 31.7 51.4454 C 30.95 52.4538 30.2 53.4622 29.45 54.4202 C 29.05 54.9244 28.7 55.4286 28.3 55.9832 C 28.1 56.2353 28.15 56.2353 28.1 56.9412 C 28.8 57.1933 29.5 57.1429 30.2 57.0924 C 30.5 57.0924 30.7 56.8403 30.85 56.6387 C 31.4 55.9832 31.9 55.3277 32.4 54.6218 C 33.15 53.5126 33.95 52.4538 34.75 51.4454 C 35.05 51.042 35.4 50.8908 35.9 50.9412 C 36.85 50.7395 37.4 50.7899 37.95 50.8403 Z " id="Shape" fill="#FFFFFF" stroke-width="1"/>
          <path d="M 101.15 70.605 C 101.25 69.042 100.7 67.6303 100.9 66.1681 C 101.45 65.8655 102 66.0168 102.55 66.0672 C 103.8 66.2689 105 66.1681 106.25 66.2689 C 106.4 66.2689 106.55 66.2689 106.8 66.2689 C 107.1 67.6807 107.25 69.042 107.4 70.4034 C 107.6 71.7647 107.85 73.126 108.15 74.6387 C 107.55 74.6891 107.05 74.6891 106.5 74.7395 C 104.4 74.7395 102.3 74.5378 100.2 74.3361 C 99.75 74.2857 99.3 74.2857 98.9 74.2857 C 97.3 74.2353 95.7 74.0336 94.15 73.9328 C 92.95 73.8824 91.75 73.8319 90.55 73.6807 C 88.35 73.479 86.1 73.3277 83.9 73.1765 C 81.85 73.0252 79.75 72.8739 77.7 72.7227 C 76.15 72.5714 74.6 72.6723 73.05 72.3697 C 72.95 72.3697 72.9 72.3697 72.8 72.3697 C 70.9 72.2689 68.95 72.1681 67.05 72.0672 C 65.45 71.9664 63.85 71.8151 62.3 71.6639 C 62.2 71.6639 62.15 71.6639 62.05 71.6639 C 60.15 71.563 58.2 71.4622 56.3 71.3613 C 54.85 71.2605 53.45 71.1092 52 71.0084 C 51.85 71.0084 51.7 71.0084 51.5 70.958 C 49.45 70.8571 47.45 70.8067 45.4 70.605 C 44.3 70.5042 43.15 70.5546 42.1 70.2521 C 42 70.2017 41.85 70.2521 41.75 70.2017 C 40.15 70.1008 38.55 70.0504 36.95 69.8992 C 35.5 69.7479 34 69.6471 32.55 69.5462 C 30.45 69.395 28.35 69.1933 26.25 69.0924 C 24 68.9412 21.75 68.7395 19.45 68.6387 C 17.75 68.5882 16.05 68.3866 14.35 68.1849 C 12.7 68.0336 11.1 67.8319 9.5 67.6807 C 9.3 67.6807 9.1 67.5798 8.85 67.479 C 8.65 66.5714 8.4 65.6639 8.25 64.7059 C 8.15 63.7983 7.9 62.8908 7.8 61.9832 C 7.7 61.0252 7.35 60.1176 7.4 59.1092 C 7.95 58.958 8.45 59.0588 8.95 59.1092 C 10.2 59.2605 11.4 59.4118 12.6 59.563 C 13.7 59.7143 14.8 59.7647 15.95 59.8151 C 16.3 59.8151 16.65 59.9664 17.05 60.0168 C 17.25 60.4706 17.35 60.9244 17.4 61.3782 C 17.55 62.1849 17.7 62.9412 17.9 63.7479 C 18 64.2521 18.3 64.605 18.9 64.6555 C 19.15 64.6555 19.35 64.7563 19.6 64.8067 C 20.6 64.8571 21.6 64.958 22.6 65.0084 C 24.5 65.1597 26.45 65.1597 28.35 65.3613 C 29.9 65.563 31.45 65.5126 33 65.7143 C 34.15 65.8655 35.3 65.916 36.45 65.9664 C 38.1 66.0672 39.7 66.2185 41.35 66.4202 C 41.45 66.4202 41.5 66.4202 41.6 66.4202 C 43.5 66.521 45.45 66.5714 47.35 66.7731 C 48.7 66.9244 50.05 66.8235 51.4 67.126 C 51.55 67.1765 51.7 67.1765 51.9 67.126 C 53.75 67.0756 55.55 67.2773 57.4 67.479 C 59 67.6303 60.6 67.5294 62.15 67.8319 C 62.3 67.8824 62.45 67.8319 62.65 67.8824 C 64.5 67.9832 66.35 67.9832 68.15 68.2353 C 69.5 68.3866 70.85 68.2857 72.2 68.5882 C 72.3 68.6387 72.45 68.5882 72.55 68.5882 C 74.4 68.6891 76.3 68.7899 78.15 68.8908 C 80.95 69.0924 83.7 69.3445 86.5 69.5462 C 88 69.6471 89.55 69.6975 91.05 69.8487 C 92.55 70 94.1 69.9496 95.55 70.2521 C 95.65 70.2521 95.7 70.2521 95.8 70.2521 C 97.45 70.3529 99.05 70.4538 100.7 70.5546 C 100.65 70.605 100.85 70.605 101.15 70.605 Z " id="Shape" fill="#498D91" stroke-width="1"/>
          <path d="M 99.75 65.3109 C 99.5 66.5714 100 67.5798 99.95 68.7899 C 98.95 68.7395 97.9 68.7395 96.9 68.6387 C 95.3 68.5378 93.7 68.3866 92.1 68.2353 C 89.35 68.0336 86.6 67.8824 83.85 67.6807 C 81.2 67.479 78.6 67.2773 75.95 67.0756 C 74.5 66.9748 73 66.8739 71.55 66.7731 C 68.45 66.521 65.35 66.3193 62.25 66.0672 C 60.7 65.9664 59.15 65.8655 57.6 65.7647 C 54.9 65.563 52.2 65.3613 49.5 65.1597 C 48.1 65.0588 46.7 64.958 45.3 64.8571 C 42.25 64.6555 39.25 64.4034 36.2 64.1513 C 33.55 63.9496 30.85 63.7983 28.2 63.5966 C 25.55 63.395 22.85 63.1933 20.2 62.9916 C 20.1 62.9916 19.95 62.9412 19.8 62.8908 C 19.6 61.7815 19.3 60.6723 19.2 59.4622 C 20 59.4118 20.7 59.4622 21.4 59.5126 C 23.45 59.6639 25.55 59.8151 27.6 59.9664 C 31.2 60.2689 34.85 60.5714 38.45 60.8235 C 41.6 61.0756 44.75 61.3277 47.9 61.5294 C 51.5 61.7815 55.05 62.0336 58.65 62.2857 C 60.35 62.3866 62.1 62.4874 63.8 62.6387 C 66.6 62.8403 69.35 63.042 72.15 63.2437 C 73.8 63.3445 75.4 63.4454 77.05 63.5462 C 79.25 63.6975 81.45 63.8487 83.6 64 C 87.2 64.2521 90.75 64.5042 94.35 64.7563 C 95.8 64.8571 97.2 64.958 98.65 65.0588 C 99 65.1597 99.35 65.2605 99.75 65.3109 Z " id="Shape" fill="#D0E9EA" stroke-width="1"/>
          <path d="M 122.8 38.8908 C 122.95 39.0924 123 39.1429 123 39.1933 C 123.2 40.7059 123.4 42.2185 123.6 43.7311 C 123.7 44.6387 123.45 45.4454 123.1 46.3025 C 122.05 48.9748 120.55 51.395 119.35 53.9664 C 118.7 55.3277 117.95 56.6891 117.2 58 C 115.3 61.479 113.5 65.0084 111.75 68.5882 C 111 70.1008 110.2 71.6134 109.45 73.0756 C 109.4 73.2269 109.25 73.3277 109.1 73.5294 C 108.9 73.2269 108.8 72.9244 108.75 72.6218 C 108.5 70.9076 108.3 69.1933 107.95 67.479 C 107.7 66.3697 108 65.563 108.55 64.6555 C 111.1 60.4706 113.25 56.084 115.55 51.7479 C 117.75 47.563 120 43.3782 122.4 39.3445 C 122.5 39.2437 122.65 39.0924 122.8 38.8908 Z " id="Shape" fill="#61AFB4" stroke-width="1"/>
          <path d="M 86.2 36.9244 C 85.25 38.7395 84.35 40.605 83.3 42.3697 C 82.2 44.1849 81.05 46 80.1 47.8655 C 79.95 48.1681 79.75 48.521 79.65 48.8235 C 79.5 49.2773 79.2 49.479 78.75 49.4286 C 78.1 49.4286 77.45 49.3782 76.85 49.3782 C 76.55 49.3782 76.2 49.3277 75.9 49.3277 C 72.25 49.2269 68.55 49.126 64.9 48.9244 C 62.1 48.7731 59.3 48.6723 56.55 48.3697 C 54.65 48.1681 52.75 48.0168 50.85 47.8655 C 50.4 47.8151 49.95 47.8151 49.7 47.563 C 49.5 47.2101 49.65 47.0084 49.7 46.8067 C 50.1 45.7479 50.75 44.8403 51.3 43.8824 C 52.15 42.3193 53.1 40.8571 54 39.3445 C 54.85 37.9832 55.7 36.6218 56.65 35.3613 C 56.95 35.1597 57.3 35.2101 57.6 35.2605 C 60.15 35.3613 62.7 35.4118 65.25 35.5126 C 68.05 35.6134 70.85 35.7143 73.6 35.8151 C 75.75 35.916 77.9 36.0168 80.05 36.1176 C 81.5 36.1681 82.9 36.2185 84.35 36.2689 C 84.8 36.2689 85.2 36.3697 85.65 36.4202 C 85.9 36.4706 86.05 36.6218 86.2 36.9244 Z M 62.6 47.7647 C 63.6 47.916 64.55 47.916 65.55 47.8655 C 65.85 47.8655 66.2 47.916 66.5 47.916 C 68.2 48.0168 69.95 48.0168 71.65 48.2185 C 73.65 48.4202 75.65 48.2689 77.6 48.4706 C 78.05 48.521 78.55 48.3697 78.75 47.8151 C 78.95 47.3613 79.25 47.0084 79.5 46.605 C 80.9 44.1849 82.25 41.8151 83.65 39.395 C 83.95 38.8403 84.4 38.2857 84.5 37.479 C 82.9 37.5294 81.45 37.126 79.9 37.2773 C 78.7 37.0756 77.5 37.2269 76.25 37.126 C 75.3 36.9748 74.4 37.0252 73.45 37.0756 C 72 37.0252 70.5 36.9244 69.05 36.8739 C 68.95 36.8739 68.8 36.8235 68.7 36.8235 C 66 36.7227 63.3 36.6218 60.55 36.521 C 60.25 36.521 59.9 36.4706 59.6 36.4202 C 58.8 36.3193 58 36.2689 57.25 36.3193 C 55.5 38.7899 51.45 45.4958 50.85 46.9076 C 52.2 47.2605 53.55 47.1597 54.9 47.2101 C 55 47.2605 55.1 47.3613 55.2 47.3613 C 56.5 47.4622 57.75 47.5126 59.05 47.6134 C 60.3 47.6134 61.45 47.6639 62.6 47.7647 Z " id="Shape" fill="#010201" stroke-width="1"/>
          <path d="M 21.3 49.6303 C 21.2 49.9832 21 50.2857 20.8 50.5882 C 19.3 52.4034 18.05 54.4202 16.65 56.3361 C 16.2 56.8908 15.8 57.0924 15.15 56.9916 C 14.6 56.8908 14.05 56.8908 13.5 56.8403 C 13 56.7899 12.55 56.7395 12.2 56.437 C 12.1 56.0336 12.3 55.8319 12.45 55.6303 C 13.9 53.7647 15.35 51.8992 16.8 50.0336 C 17.3 49.3782 17.9 49.0252 18.75 49.1765 C 19.45 49.2773 20.2 49.3277 20.9 49.3782 C 21 49.3277 21.15 49.3782 21.3 49.6303 Z M 18.35 52.2017 C 18.75 51.4958 19.4 51.042 19.7 50.2353 C 19.3 49.9832 18.95 50.0336 18.6 50.1345 C 18.2 50.6387 17.8 51.0924 17.4 51.5462 C 17.35 51.6471 17.35 51.7479 17.3 51.8992 C 17.65 52 17.95 52.0504 18.35 52.2017 Z M 17.55 53.0084 C 17 52.958 16.5 52.8571 15.95 52.8067 C 15.6 53.1092 15.35 53.4118 15.15 53.8655 C 15.8 53.916 16.4 54.0168 17.05 54.0672 C 17.25 53.7143 17.55 53.4622 17.55 53.0084 Z M 16 55.2269 C 14.75 55.0756 14.75 55.0756 14.5 55.8319 C 15.1 55.8824 15.7 56.084 16 55.2269 Z " id="Shape" fill="#020202" stroke-width="1"/>
          <path d="M 41.85 47.3109 C 41.45 47.3613 41 47.2605 40.6 47.1092 C 39.7 46.8067 39.35 46 39.65 45.0924 C 40.2 43.5798 42.8 43.0252 43.9 44.1345 C 44.75 44.9916 44.5 46.4034 43.4 46.958 C 42.9 47.2101 42.4 47.3613 41.85 47.3109 Z M 42 46.2017 C 42.5 46.2017 42.8 46.1008 43.05 45.7983 C 43.3 45.5462 43.25 45.1933 43 44.9916 C 42.55 44.5378 41.2 44.7899 40.9 45.1429 C 40.65 45.395 40.7 45.7983 41 45.9496 C 41.3 46.1008 41.65 46.2017 42 46.2017 Z " id="Shape" fill="#030606" stroke-width="1"/>
          <path d="M 44.25 42.7731 C 43.85 42.8235 43.45 42.6218 43.05 42.4706 C 42.45 42.2185 42.15 41.7143 42.15 41.0588 C 42.15 40.4034 42.65 39.6471 43.25 39.4454 C 44.1 39.1933 44.95 38.9916 45.8 39.395 C 45.95 39.4454 46.1 39.4958 46.2 39.5966 C 47.1 40.2521 47.1 41.3109 46.3 42.0672 C 45.8 42.4706 44.95 42.7731 44.25 42.7731 Z M 43.35 41.5126 C 43.6 41.6134 43.9 41.7143 44.2 41.7647 C 44.7 41.8655 45.15 41.7143 45.5 41.3613 C 45.8 41.1092 45.7 40.6555 45.4 40.4538 C 44.85 40.1008 44.3 40.1513 43.7 40.4034 C 43.25 40.605 43.2 40.7059 43.35 41.5126 Z " id="Shape" fill="#040605" stroke-width="1"/>
          <path d="M 25.45 42.7227 C 25.55 42.7227 25.6 42.7227 25.7 42.7227 C 26.55 42.7731 27.25 43.2269 27.35 43.8319 C 27.55 44.7395 27.1 45.6471 26.25 46 C 25.45 46.3529 24.6 46.3025 23.8 45.9496 C 22.7 45.395 22.55 44.084 23.5 43.2773 C 24 42.9244 24.65 42.7227 25.45 42.7227 Z M 25.2 45.1429 C 25.45 45.1429 25.75 44.9916 26 44.7899 C 26.35 44.4874 26.3 43.9832 25.85 43.8319 C 25.6 43.7311 25.3 43.6807 25.05 43.6807 C 24.5 43.7311 24.05 44.1345 24.05 44.5378 C 24.1 44.8908 24.65 45.1933 25.2 45.1429 Z " id="Shape" fill="#040505" stroke-width="1"/>
          <path d="M 33.75 46.4538 C 33 46.5546 32.4 46.2521 31.9 45.7479 C 31.45 45.3445 31.4 44.8908 31.7 44.3361 C 32.4 43.0252 34.5 42.5714 35.65 43.479 C 36.35 44.0336 36.45 44.8403 35.85 45.5462 C 35.25 46.2521 34.55 46.5546 33.75 46.4538 Z M 35.05 44.7395 C 34.8 44.2353 34.45 44.0336 34 44.0336 C 33.5 44.0336 33.05 44.1849 32.75 44.5882 C 32.55 44.8403 32.7 45.2941 33 45.3445 C 33.75 45.5462 34.5 45.5462 35.05 44.7395 Z " id="Shape" fill="#030604" stroke-width="1"/>
          <path d="M 33.7 35.3613 C 33.75 35.7647 33.45 36.1176 33.1 36.4706 C 32.3 37.2269 30.9 37.3782 30 36.8739 C 29.1 36.3697 29 35.3109 29.7 34.5546 C 30.35 33.8487 32.35 33.6471 33.05 34.0504 C 33.45 34.3025 33.65 34.7059 33.7 35.3613 Z M 32.5 35.2101 C 32.25 34.7563 31.85 34.8067 31.45 34.8067 C 31.05 34.8067 30.75 34.9076 30.45 35.1597 C 30.35 35.2605 30.3 35.3613 30.25 35.4622 C 30.2 35.6134 30.25 35.8151 30.4 35.8655 C 30.8 36.1176 31.25 36.0168 31.65 35.9664 C 32.1 35.916 32.4 35.6639 32.5 35.2101 Z " id="Shape" fill="#030506" stroke-width="1"/>
          <path d="M 27.5 41.6134 C 27.15 41.6134 26.65 41.5126 26.2 41.2101 C 25.65 40.8067 25.45 40.2017 25.75 39.6471 C 26.65 37.9328 29 37.7815 30 38.9412 C 30.5 39.4958 30.4 40.4034 29.85 40.8571 C 29.35 41.2605 28.35 41.6134 27.5 41.6134 Z M 26.7 40.1513 C 27.7 40.8571 28.3 40.7563 29.2 39.7479 C 28.8 39.1429 28.7 39.0924 28.1 39.0924 C 27.4 39.1429 26.95 39.4454 26.7 40.1513 Z " id="Shape" fill="#050504" stroke-width="1"/>
          <path d="M 46.9 38.1345 C 46.35 38.0336 45.8 37.8824 45.4 37.479 C 44.85 37.0252 44.75 36.2185 45.2 35.6134 C 45.4 35.3613 45.65 35.1597 45.95 35.0084 C 46.65 34.7563 47.35 34.6555 48.05 34.7563 C 48.35 34.8067 48.65 34.958 48.9 35.1597 C 49.85 35.9664 49.6 37.3782 48.45 37.7815 C 47.95 38.0336 47.45 38.0336 46.9 38.1345 Z M 45.9 36.521 C 46.6 37.0756 47.15 37.126 47.9 36.8235 C 48.1 36.7227 48.35 36.6218 48.3 36.3193 C 48.3 36.0672 48.1 35.8655 47.85 35.8151 C 47.45 35.6639 47.05 35.7143 46.7 35.8151 C 46.35 35.916 46 36.0672 45.9 36.521 Z " id="Shape" fill="#050304" stroke-width="1"/>
          <path d="M 39 37.7311 C 38.3 37.7311 37.75 37.6303 37.25 37.2269 C 36.7 36.7227 36.6 36.1681 37 35.5126 C 37.1 35.3613 37.25 35.1597 37.4 35.0588 C 38.15 34.5546 38.95 34.3025 39.9 34.5042 C 40.2 34.605 40.5 34.7563 40.75 34.958 C 41.4 35.5126 41.5 36.1681 40.95 36.8739 C 40.4 37.5294 39.75 37.7815 39 37.7311 Z M 37.75 36.1681 C 38.25 36.6723 38.35 36.6723 38.75 36.7227 C 39.15 36.7227 39.55 36.6218 39.85 36.4202 C 40.15 36.2185 40.05 35.8151 39.75 35.6639 C 39.35 35.4622 38.95 35.563 38.6 35.6639 C 38.25 35.7143 37.85 35.7647 37.75 36.1681 Z " id="Shape" fill="#040405" stroke-width="1"/>
          <path d="M 36.65 38.5882 C 37.15 38.5378 37.6 38.6891 38.05 38.9412 C 38.85 39.3445 39 40.2521 38.45 40.958 C 37.7 41.916 36.2 42.2689 35.1 41.7647 C 34.05 41.3109 33.85 40.2017 34.65 39.395 C 35.15 38.8403 35.85 38.5882 36.65 38.5882 Z M 37.65 40.0504 C 37.05 39.5966 36.95 39.5966 36.45 39.5966 C 36 39.5966 35.6 39.7983 35.3 40.1008 C 35.05 40.3529 35.1 40.7059 35.4 40.9076 C 35.8 41.1597 36.25 41.1597 36.65 41.0588 C 37.1 40.8571 37.5 40.6555 37.65 40.0504 Z " id="Shape" fill="#040506" stroke-width="1"/>
          <path d="M 84.75 46.8571 C 84.95 46.4538 85.3 46.4034 85.65 46.4034 C 86.9 46.4538 88.1 46.4538 89.35 46.5042 C 89.8 46.5546 90.2 46.4538 90.65 46.605 C 91 46.7059 91.2 46.8571 91.25 47.2101 C 91 47.563 90.6 47.563 90.25 47.563 C 88.75 47.563 87.2 47.5126 85.7 47.3613 C 85.35 47.3613 84.95 47.3109 84.75 46.8571 Z " id="Shape" fill="#0C1212" stroke-width="1"/>
          <path d="M 101.8 45.042 C 101.55 45.395 101.15 45.395 100.8 45.395 C 99.3 45.395 97.75 45.395 96.25 45.1933 C 95.85 45.1429 95.45 45.0924 95.25 44.6387 C 95.45 44.2353 95.8 44.1849 96.15 44.1849 C 97.4 44.2353 98.6 44.2353 99.85 44.2857 C 100.3 44.3361 100.7 44.2353 101.15 44.3866 C 101.55 44.5378 101.8 44.6891 101.8 45.042 Z " id="Shape" fill="#0D1313" stroke-width="1"/>
          <path d="M 113.25 42.6723 C 112.9 42.8739 112.45 43.0252 112.05 42.9748 C 110.45 42.7731 108.85 42.8739 107.3 42.5714 C 107 42.521 106.75 42.4706 106.65 42.1681 C 106.65 41.916 106.85 41.8655 107.05 41.7647 C 107.35 41.6134 107.7 41.6639 108 41.6639 C 109.4 41.7143 110.8 41.8151 112.15 41.916 C 112.5 41.916 112.75 42.0168 113.05 42.1681 C 113.2 42.2185 113.3 42.3697 113.25 42.6723 Z " id="Shape" fill="#090C0D" stroke-width="1"/>
          <path d="M 100.75 47.7647 C 100.35 47.9664 99.9 48.1176 99.45 48.0672 C 97.9 47.8655 96.35 47.9664 94.8 47.6639 C 94.5 47.6134 94.15 47.6134 94.1 47.2101 C 94.15 46.9076 94.45 46.8571 94.65 46.8067 C 95.05 46.7563 95.45 46.7059 95.85 46.7563 C 96.95 46.9076 98.05 46.9076 99.2 46.958 C 99.65 46.958 100.05 47.0084 100.5 47.2101 C 100.65 47.2605 100.8 47.4118 100.75 47.7647 Z " id="Shape" fill="#090D0E" stroke-width="1"/>
          <path d="M 91.7 44.9412 C 90.25 44.7899 88.75 44.6387 87.25 44.4874 C 87 44.4874 86.75 44.437 86.6 44.2353 C 86.45 44.1345 86.4 43.9832 86.45 43.8319 C 86.5 43.7311 86.6 43.5798 86.7 43.5798 C 86.95 43.5294 87.2 43.479 87.4 43.5294 C 88.65 43.7311 89.85 43.7311 91.1 43.7815 C 91.65 43.8319 92.2 43.9328 92.7 44.1849 C 92.85 44.2857 92.95 44.3866 92.95 44.5378 C 92.95 44.6891 92.8 44.8403 92.65 44.8403 C 92.3 44.9412 92.05 44.9412 91.7 44.9412 Z " id="Shape" fill="#080B0B" stroke-width="1"/>
          <path d="M 114.25 39.6975 C 114.05 40.1513 113.65 40.1513 113.3 40.1513 C 112.65 40.1513 112.05 40.1513 111.4 40.1008 C 110.55 40.0504 109.65 39.9496 108.8 39.8992 C 108.5 39.8487 108.2 39.7983 107.85 39.6975 C 107.7 39.6471 107.55 39.5462 107.55 39.3445 C 107.55 39.1933 107.7 39.042 107.85 38.9916 C 108.05 38.9412 108.25 38.8908 108.45 38.8908 C 110.1 38.9916 111.8 39.042 113.45 39.1429 C 113.75 39.1429 114.05 39.2941 114.25 39.6975 Z " id="Shape" fill="#07090A" stroke-width="1"/>
          <path d="M 103.95 41.8151 C 103.7 42.2689 103.35 42.2689 103 42.2689 C 102.35 42.2689 101.75 42.2689 101.1 42.2185 C 100.2 42.1681 99.3 42.0672 98.4 41.9664 C 98.1 41.916 97.8 41.8151 97.5 41.7143 C 97.4 41.6639 97.35 41.5126 97.35 41.4118 C 97.35 41.3109 97.45 41.2101 97.55 41.1597 C 97.8 41.0084 98.05 41.0084 98.35 41.0084 C 99 41.0084 99.7 41.0588 100.35 41.0588 C 101.2 41.1092 102 41.2101 102.85 41.2101 C 103.2 41.3109 103.65 41.3613 103.95 41.8151 Z " id="Shape" fill="#07090A" stroke-width="1"/>
          <path d="M 110.2 48.3697 C 109.95 48.8235 109.6 48.8739 109.25 48.8739 C 108.6 48.8739 108 48.8739 107.35 48.8235 C 106.45 48.7731 105.55 48.6723 104.65 48.5714 C 104.4 48.521 104.1 48.4706 103.85 48.3697 C 103.7 48.3193 103.55 48.2185 103.55 48.0168 C 103.55 47.8151 103.7 47.7143 103.85 47.6639 C 104.1 47.6134 104.4 47.563 104.65 47.563 C 105.5 47.563 106.4 47.6134 107.25 47.7143 C 107.9 47.8151 108.5 47.7647 109.15 47.8151 C 109.55 47.8655 109.55 47.8655 110.2 48.3697 Z " id="Shape" fill="#060909" stroke-width="1"/>
          <path d="M 104.9 45.2437 C 105 44.7395 105.35 44.6891 105.65 44.6891 C 106.45 44.6891 107.25 44.6891 108.05 44.7395 C 108.85 44.7899 109.65 44.8403 110.4 44.8908 C 110.95 44.9412 110.95 44.9412 111.55 45.3445 C 111.6 45.6471 111.35 45.7479 111.15 45.7983 C 110.9 45.8487 110.6 45.8992 110.3 45.8487 C 108.9 45.7479 107.45 45.6975 106.05 45.5462 C 105.65 45.5966 105.25 45.5462 104.9 45.2437 Z " id="Shape" fill="#060909" stroke-width="1"/>
          <path d="M 89.6 38.084 C 89.8 37.8824 90.05 37.8824 90.3 37.8824 C 91.75 37.9832 93.25 38.084 94.7 38.1849 C 95.1 38.2353 95.5 38.2857 95.85 38.5378 C 96.05 38.6387 96.1 38.8403 96.05 39.042 C 95.85 39.2437 95.55 39.2437 95.25 39.2437 C 93.7 39.1429 92.15 39.042 90.6 38.8908 C 90.35 38.8908 90.05 38.7899 89.8 38.6387 C 89.5 38.5378 89.5 38.2857 89.6 38.084 Z " id="Shape" fill="#070909" stroke-width="1"/>
          <path d="M 98.45 38.8908 C 98.8 38.5882 99.15 38.5378 99.6 38.5378 C 100.95 38.5882 102.3 38.6387 103.65 38.6891 C 104.05 38.6891 104.45 38.7395 104.8 38.9916 C 104.9 39.0924 105 39.2437 104.95 39.395 C 104.9 39.4958 104.8 39.5966 104.7 39.6471 C 104.45 39.6975 104.25 39.7479 104 39.7479 C 102.65 39.7479 101.3 39.6975 99.95 39.6471 C 99.55 39.6471 99.15 39.5462 98.8 39.395 C 98.6 39.2941 98.5 39.1429 98.45 38.8908 Z " id="Shape" fill="#050606" stroke-width="1"/>
          <path d="M 87.8 41.1597 C 88.15 40.8067 88.55 40.7059 88.95 40.7563 C 90.35 40.9076 91.7 40.8067 93.1 40.9076 C 93.5 40.9076 93.9 40.958 94.2 41.2605 C 94.25 41.3109 94.35 41.4622 94.3 41.563 C 94.3 41.6639 94.2 41.7647 94.1 41.8151 C 93.85 41.8655 93.65 41.916 93.4 41.916 C 92 41.916 90.65 41.8655 89.25 41.8151 C 88.75 41.7647 88.25 41.7143 87.8 41.1597 Z " id="Shape" fill="#050606" stroke-width="1"/>
          <path d="M 79.95 37.2773 C 81.45 37.126 82.95 37.5294 84.55 37.479 C 84.4 38.2353 84 38.7899 83.7 39.395 C 82.35 41.8151 80.95 44.1849 79.55 46.605 C 79.3 47.0084 78.95 47.4118 78.8 47.8151 C 78.55 48.3697 78.1 48.521 77.65 48.4706 C 75.65 48.2689 73.65 48.4202 71.7 48.2185 C 70 48.0672 68.3 48.0168 66.55 47.916 C 66.25 47.916 65.9 47.8655 65.6 47.8655 C 65.65 47.7647 65.75 47.6639 65.8 47.6134 C 67.1 46.6555 68.45 45.6975 69.75 44.6891 C 73 42.2689 76.3 39.8992 79.65 37.6303 C 79.75 37.5294 79.8 37.3782 79.95 37.2773 Z " id="Shape" fill="#00FF00" stroke-width="1"/>
          <path d="M 55 47.1597 C 53.65 47.1092 52.3 47.2101 50.95 46.8571 C 51.55 45.395 55.6 38.6891 57.35 36.2689 C 58.1 36.2185 58.9 36.2689 59.7 36.3697 C 60 36.4202 60.35 36.4706 60.65 36.4706 C 63.35 36.5714 66.05 36.6723 68.8 36.7731 C 68.9 36.7731 69.05 36.8235 69.15 36.8235 C 66.1 39.1429 62.95 41.3109 59.8 43.5294 C 58.15 44.6891 56.6 45.9496 55 47.1597 Z " id="Shape" fill="#00FF00" stroke-width="1"/>
          <path d="M 55 47.1597 C 56.6 45.9496 58.15 44.7395 59.75 43.5798 C 62.85 41.3613 66.05 39.1933 69.1 36.8739 C 70.55 36.9244 72.05 37.0252 73.5 37.0756 C 72.75 37.6303 72.05 38.1849 71.3 38.6891 C 68.95 40.4034 66.6 42.0672 64.25 43.7815 C 62.55 45.042 60.85 46.3025 59.2 47.563 C 57.9 47.5126 56.65 47.4118 55.35 47.3109 C 55.2 47.2605 55.1 47.2101 55 47.1597 Z " id="Shape" fill="#87FF87" stroke-width="1"/>
          <path d="M 79.95 37.2773 C 79.85 37.3782 79.75 37.5294 79.65 37.6303 C 76.3 39.8992 73 42.2689 69.75 44.6891 C 68.45 45.6471 67.15 46.605 65.8 47.6134 C 65.7 47.6639 65.65 47.8151 65.6 47.8655 C 64.6 47.916 63.65 47.916 62.65 47.7647 C 63 47.1092 63.7 46.7563 64.25 46.3529 C 66.25 44.6891 68.3 43.0756 70.35 41.5126 C 72.3 40 74.35 38.5882 76.35 37.126 C 77.5 37.2269 78.7 37.0756 79.95 37.2773 Z " id="Shape" fill="#86FF86" stroke-width="1"/>
          <path d="M 76.3 37.0756 C 74.3 38.5378 72.3 39.9496 70.3 41.4622 C 68.25 43.0252 66.2 44.6387 64.2 46.3025 C 63.65 46.7563 63 47.0588 62.6 47.7143 C 61.45 47.6134 60.3 47.563 59.15 47.4622 C 60.85 46.2017 62.5 44.9412 64.2 43.6807 C 66.55 41.9664 68.9 40.3025 71.25 38.5882 C 72 38.0336 72.7 37.479 73.45 36.9748 C 74.45 36.9748 75.35 36.9244 76.3 37.0756 Z " id="Shape" fill="#01FF01" stroke-width="1"/>
          <path d="M 18.35 52.2017 C 17.95 52.1008 17.65 52 17.3 51.8992 C 17.35 51.7479 17.35 51.6471 17.4 51.5462 C 17.8 51.0924 18.15 50.6387 18.6 50.1345 C 18.95 50.0336 19.35 49.9832 19.7 50.2353 C 19.4 50.9916 18.75 51.4454 18.35 52.2017 Z " id="Shape" fill="#589CA0" stroke-width="1"/>
          <path d="M 17.55 53.0084 C 17.55 53.5126 17.25 53.7143 17.05 54.0672 C 16.45 54.0168 15.85 53.916 15.15 53.8655 C 15.35 53.3613 15.6 53.0588 15.95 52.8067 C 16.45 52.8571 16.95 52.9076 17.55 53.0084 Z " id="Shape" fill="#5BA3A7" stroke-width="1"/>
          <path d="M 16 55.2269 C 15.7 56.1345 15.1 55.8824 14.5 55.8319 C 14.75 55.0756 14.75 55.0756 16 55.2269 Z " id="Shape" fill="#56999D" stroke-width="1"/>
          <path d="M 42 46.2017 C 41.65 46.2017 41.3 46.1008 41 45.9496 C 40.7 45.7983 40.7 45.3445 40.9 45.1429 C 41.25 44.7899 42.55 44.5882 43 44.9916 C 43.25 45.2437 43.3 45.5462 43.05 45.7983 C 42.8 46.1008 42.5 46.2017 42 46.2017 Z " id="Shape" fill="#01F4F4" stroke-width="1"/>
          <path d="M 43.35 41.5126 C 43.2 40.7059 43.25 40.605 43.7 40.4034 C 44.25 40.1513 44.85 40.1008 45.4 40.4538 C 45.75 40.6555 45.8 41.1092 45.5 41.3613 C 45.15 41.7143 44.7 41.8655 44.2 41.7647 C 43.9 41.7143 43.6 41.563 43.35 41.5126 Z " id="Shape" fill="#35A76D" stroke-width="1"/>
          <path d="M 25.2 45.1429 C 24.65 45.1429 24.1 44.8403 24.05 44.5378 C 24 44.1345 24.5 43.7311 25.05 43.6807 C 25.35 43.6807 25.6 43.7311 25.85 43.8319 C 26.25 44.0336 26.35 44.4874 26 44.7899 C 25.75 45.042 25.45 45.1429 25.2 45.1429 Z " id="Shape" fill="#DA6694" stroke-width="1"/>
          <path d="M 35.05 44.7395 C 34.5 45.5966 33.75 45.5966 33 45.3445 C 32.65 45.2437 32.5 44.7899 32.75 44.5882 C 33.1 44.1849 33.55 44.0336 34 44.0336 C 34.5 43.9832 34.85 44.2353 35.05 44.7395 Z " id="Shape" fill="#01F001" stroke-width="1"/>
          <path d="M 32.5 35.2101 C 32.4 35.6134 32.1 35.916 31.7 35.9664 C 31.3 36.0168 30.85 36.1176 30.45 35.8655 C 30.3 35.7647 30.25 35.6134 30.3 35.4622 C 30.35 35.3613 30.4 35.2605 30.5 35.1597 C 30.75 34.9076 31.1 34.8067 31.5 34.8067 C 31.8 34.8067 32.2 34.8067 32.5 35.2101 Z " id="Shape" fill="#008BDA" stroke-width="1"/>
          <path d="M 26.7 40.1513 C 26.95 39.4454 27.4 39.0924 28.1 39.0924 C 28.7 39.0924 28.8 39.1429 29.2 39.7479 C 28.3 40.7563 27.7 40.8571 26.7 40.1513 Z " id="Shape" fill="#EBE502" stroke-width="1"/>
          <path d="M 45.9 36.521 C 46.05 36.0168 46.35 35.8655 46.7 35.8151 C 47.1 35.7143 47.5 35.6639 47.85 35.8151 C 48.1 35.916 48.25 36.0672 48.3 36.3193 C 48.3 36.6218 48.1 36.7227 47.9 36.8235 C 47.15 37.1765 46.6 37.0756 45.9 36.521 Z " id="Shape" fill="#F30001" stroke-width="1"/>
          <path d="M 37.75 36.1681 C 37.85 35.7143 38.25 35.6639 38.55 35.6134 C 38.95 35.5126 39.35 35.4622 39.7 35.6134 C 40.05 35.7647 40.1 36.1681 39.8 36.3697 C 39.45 36.6218 39.1 36.7227 38.7 36.6723 C 38.35 36.7227 38.3 36.6723 37.75 36.1681 Z " id="Shape" fill="#DE93AD" stroke-width="1"/>
          <path d="M 37.65 40.0504 C 37.5 40.7059 37.1 40.9076 36.65 41.0588 C 36.25 41.2101 35.8 41.1597 35.4 40.9076 C 35.1 40.7059 35.05 40.4034 35.3 40.1008 C 35.65 39.7983 36 39.5966 36.45 39.5966 C 36.95 39.5462 37.05 39.5966 37.65 40.0504 Z " id="Shape" fill="#865492" stroke-width="1"/>
        </g>
      </g>
    </g>
  </g>
</svg>