<svg xmlns="http://www.w3.org/2000/svg" xmlns:xlink="http://www.w3.org/1999/xlink" version="1.1" width="46.32646759909556" height="56.28962906760142" viewBox="0.28053470173396056 0.07608445206202452 46.32646759909556 56.28962906760142">
  <defs>
    <linearGradient id="grad_1" x1="352.5928" y1="1042.4482" x2="352.5928" y2="1139.9414" gradientUnits="userSpaceOnUse">
      <stop offset="0" stop-color="#EE2A7B"/>
      <stop offset="1" stop-color="#811150"/>
    </linearGradient>
  <linearGradient id="grad_1-.00033818339579738677,-0.46329107880592346,-0.46329107880592346,-0.00033818339579738677,56.4,60.95" x1="-426.4377" y1="-102.7556" x2="-471.6054" y2="-102.7886" gradientUnits="userSpaceOnUse">
      <stop offset="0" stop-color="#EE2A7B"/>
      <stop offset="1" stop-color="#811150"/>
    </linearGradient></defs>
  <!-- Exported by Scratch - http://scratch.mit.edu/ -->
  <g id="ID0.16137408139184117">
    <path id="ID0.6278323931619525" fill="url(#grad_1-.00033818339579738677,-0.46329107880592346,-0.46329107880592346,-0.00033818339579738677,56.4,60.95)" stroke="#FFFFFF" stroke-width="1.158228005589696" d="M 18.4432 17.5073 C 18.4432 17.5073 18.4167 40.4328 18.4091 50.8448 C 18.4072 53.5721 20.6168 55.7846 23.3438 55.7866 C 26.0712 55.7886 28.2831 53.5794 28.2851 50.852 C 28.2915 42.1226 28.3196 17.5413 28.3196 17.5413 C 28.3196 17.5413 29.9886 19.1928 37.5958 26.8116 C 39.5231 28.7417 42.6494 28.744 44.579 26.8167 C 46.5086 24.8885 46.5114 21.7627 44.5841 19.8331 C 38.4162 13.6552 26.8803 2.1039 26.8803 2.1039 C 24.9531 0.1743 21.8263 0.172 19.8971 2.0988 C 19.8971 2.0988 9.9282 12.0527 2.3094 19.6604 C 0.3784 21.5886 0.3761 24.7149 2.3043 26.6441 C 4.2311 28.5742 7.3583 28.5765 9.2865 26.6492 C 15.4662 20.4803 18.4432 17.5073 18.4432 17.5073 Z "/>
  </g>
</svg>