<svg xmlns="http://www.w3.org/2000/svg" xmlns:xlink="http://www.w3.org/1999/xlink" version="1.1" width="179.99010289432033" height="120.34179509402736" viewBox="-0.6058988010954067 -1.185098770863931 179.99010289432033 120.34179509402736">
  <!-- Exported by Scratch - http://scratch.mit.edu/ -->
  <g id="ID0.5926007409580052">
    <g id="ID0.033163967076689005">
      <g id="ID0.3478451701812446">
        <g id="Wing_4_">
          <g id="Feathers_2_">
            <path id="Outline_4_" d="M 102.5422 54.9479 C 101.2083 57.3323 97.9763 59.6277 95.678 59.9279 C 94.8027 62.4345 93.2047 64.5688 91.2011 65.811 C 90.4146 66.2973 89.7449 66.8726 89.1363 67.395 C 87.9747 68.3955 86.8742 69.3376 85.3735 69.1708 C 85.3235 69.1653 85.2707 69.1597 85.2179 69.1486 C 84.034 71.4135 80.9549 76.1183 75.9305 76.3656 L 75.0912 76.4073 L 74.6188 75.6987 C 74.5549 75.607 74.2798 75.1874 73.8796 74.5315 C 71.8426 77.5523 68.8691 80.901 65.3119 81.7152 L 64.1614 81.9792 L 63.6279 80.8843 C 63.5723 80.7676 63.1777 79.945 62.6608 78.6111 C 59.8234 82.6934 53.8736 89.6048 46.3008 89.2574 L 43.7525 89.1407 L 45.1281 86.7591 C 35.3821 92.7117 26.7617 91.9975 26.3726 91.9614 L 21.1898 91.5001 L 25.2694 89.2824 C 14.209 93.5176 11.7079 93.5399 11.1715 93.4148 L 6.2388 92.2448 L 10.9714 90.3996 C 10.9964 90.3885 12.7416 89.6882 15.8041 87.8596 C 8.5676 89.5909 5.8108 88.7072 5.4746 88.5793 L 0.7836 86.8286 L 5.6163 85.5669 C 5.783 85.5224 22.4765 80.9315 40.6205 61.1979 L 55.1519 54.1559 L 54.9129 55.248 L 57.2556 53.8335 C 57.6058 53.5834 57.9448 53.3806 58.2144 53.2499 L 60.0318 52.1773 L 59.8762 52.8303 C 59.9735 52.8387 60.0652 52.8553 60.1569 52.8803 C 60.4709 52.4802 60.7655 52.1133 61.0239 51.8076 C 62.5024 50.068 63.8224 49.2148 65.0424 49.2204 C 68.5745 44.8907 70.3058 43.7291 71.8287 44.6156 C 72.2428 44.8518 72.5346 45.2159 72.7069 45.6939 C 73.4822 45.0408 74.6327 44.3433 76.0917 44.007 C 77.1949 43.7486 78.4705 43.7736 79.7488 44.0709 C 79.7877 43.9737 79.8322 43.8819 79.8822 43.7875 C 80.4686 42.7426 82.9475 39.5439 90.4202 42.2229 C 99.6159 47.3029 103.8622 51.2018 103.0396 53.8169 C 102.9229 54.1892 102.7562 54.57 102.5422 54.9479 L 102.5422 54.9479 Z M 81.1967 44.5767 C 81.1328 44.6906 81.0939 44.8518 81.0077 45.2186 L 80.8132 46.0134 L 80.0573 45.7772 C 78.3343 45.2381 77.0449 45.3965 76.4279 45.541 C 74.4576 45.9968 73.1848 47.2584 73.0987 47.717 L 73.0792 48.6813 L 71.0923 48.8758 L 71.2868 47.7892 C 71.4591 46.8166 71.3896 46.1635 71.095 45.9912 C 70.4364 45.6049 68.7079 47.1389 65.9539 50.5488 L 65.6704 50.8961 L 65.2369 50.8155 C 64.4755 50.6738 63.4111 51.3741 62.1633 52.847 C 61.8187 53.2527 61.4102 53.7724 60.9739 54.3476 L 60.4126 54.8812 L 59.8206 54.4199 C 59.7595 54.3977 59.5705 54.3615 59.1398 54.5366 L 58.9258 54.6422 C 58.6646 54.7728 58.3978 54.9312 58.0671 55.1647 L 52.6508 58.4411 L 52.9843 56.9405 L 41.4932 62.4568 C 23.199 82.4294 6.1554 87.0509 5.9887 87.0954 L 5.9887 87.0954 L 5.9887 87.0954 C 6.0248 87.1093 9.6681 88.3737 20.3617 84.9389 L 21.0064 86.345 C 15.2344 90.3523 11.6995 91.8002 11.5105 91.8752 C 11.8524 91.8975 15.0593 91.8558 31.5277 85.1028 L 32.2446 86.4784 C 29.5824 88.4404 27.3425 89.9299 26.5005 90.3885 C 26.909 90.4246 36.5799 91.2249 46.9122 83.6883 L 48.0099 84.7193 C 47.5986 85.4835 47.2262 86.1672 46.9678 86.6313 C 46.9678 86.634 46.965 86.6368 46.965 86.6368 L 46.362 87.6817 L 46.3703 87.6789 C 54.007 88.0319 60.0013 79.9783 62.2245 76.499 L 63.0526 75.2012 L 63.5695 76.663 C 64.3087 78.7667 64.959 80.1229 64.9812 80.1757 L 64.9812 80.1757 C 68.6273 79.3392 71.7398 75.1012 73.2682 72.6529 L 73.9241 71.5997 L 74.5521 72.6696 C 75.2469 73.8618 75.7638 74.6454 75.861 74.7927 C 80.5381 74.5649 83.2643 69.6933 84.1508 67.8703 L 84.4592 67.2311 L 85.0984 67.4867 C 85.2568 67.5507 85.4013 67.5896 85.5347 67.6062 C 86.3601 67.698 87.0715 67.1255 88.1886 66.1667 C 88.8195 65.6248 89.5365 65.0079 90.423 64.4604 C 92.2432 63.3321 93.6855 61.284 94.3969 58.9441 L 94.5692 58.3772 L 95.1445 58.3911 C 96.9453 58.4411 100.8664 55.7205 101.6001 53.3278 C 102.0197 51.9938 98.5071 48.4756 89.8227 43.6652 C 83.5505 41.4225 81.6358 43.7958 81.1967 44.5767 L 81.1967 44.5767 Z " stroke-width="2.7789975476406426" fill="undefined"/>
            <g id="ID0.2004116573370993">
              <path id="ID0.3882799567654729" fill="#E5E5E5" d="M 39.7368 76.7519 C 13.4614 89.8771 5.9859 87.0926 5.9859 87.0926 C 5.9859 87.0926 22.96 82.6851 41.2625 62.6263 L 52.9788 56.9488 C 52.9815 56.946 49.7218 71.7636 39.7368 76.7519 Z " stroke-width="2.7789975476406426"/>
              <path id="ID0.511943340767175" fill="#CCCCCC" d="M 49.6106 67.5951 C 46.9789 72.2916 43.7664 75.6125 40.0647 77.4661 C 13.806 90.583 6.047 87.9541 5.7302 87.8346 L 3.3848 86.9592 L 5.8025 86.3284 C 5.972 86.2839 22.8016 81.718 40.9457 61.9121 L 54.0709 55.551 L 53.7235 57.1211 C 53.6763 57.3351 52.548 62.3512 49.6106 67.5951 C 49.6106 67.5951 49.6134 67.5924 49.6106 67.5951 L 49.6106 67.5951 Z M 51.8116 58.3772 L 41.8127 63.171 C 28.7792 77.455 16.2654 83.9078 10.1155 86.4451 C 14.6341 86.0199 23.5825 83.9523 39.4061 76.0461 C 42.8271 74.337 45.8228 71.2245 48.2989 66.8003 C 50.147 63.5072 51.2613 60.2475 51.8116 58.3772 L 51.8116 58.3772 Z " stroke-width="2.7789975476406426"/>
            </g>
            <g id="ID0.8505742172710598">
              <path id="ID0.4439243171364069" fill="#E5E5E5" d="M 42.4408 80.4786 C 14.6036 92.6089 11.505 91.8752 11.505 91.8752 C 11.505 91.8752 26.9062 85.9226 46.5176 62.1511 L 57.6919 55.3898 C 57.6919 55.387 52.6592 76.0238 42.4408 80.4786 Z " stroke-width="2.7789975476406426"/>
              <path id="ID0.9440637868829072" fill="#CCCCCC" d="M 52.3451 71.1022 C 49.4327 76.299 46.2008 79.6949 42.7354 81.2067 C 15.4567 93.0924 11.6773 92.7228 11.3355 92.6422 L 8.8677 92.0559 L 11.2382 91.136 C 11.3938 91.0749 26.7117 84.9416 46.1369 61.4674 L 58.8702 53.7613 L 58.4256 55.576 C 58.345 55.9178 56.3663 63.9241 52.3451 71.1022 C 52.3451 71.1022 52.3451 71.1022 52.3451 71.1022 L 52.3451 71.1022 Z M 56.4469 57.0461 L 47.0956 62.6624 C 34.5901 77.8218 23.8715 85.7475 17.6132 89.5548 C 22.0152 88.093 29.5185 85.2584 42.149 79.7532 C 45.3059 78.3804 48.2934 75.2012 51.0362 70.3102 L 51.0362 70.3102 C 53.8152 65.3469 55.6244 59.8445 56.4469 57.0461 L 56.4469 57.0461 Z " stroke-width="2.7789975476406426"/>
            </g>
            <g id="ID0.21888319356366992">
              <path id="ID0.9848222574219108" fill="#E5E5E5" d="M 55.352 57.6936 C 55.4354 57.6686 48.335 68.1176 45.5255 73.7895 C 42.7159 79.4587 28.8126 89.1296 26.4977 90.3885 C 26.4977 90.3885 39.3089 91.5362 51.0779 80.1923 C 62.847 68.8485 60.2514 57.474 60.1374 55.048 C 60.0235 52.6163 55.352 57.6936 55.352 57.6936 Z " stroke-width="2.7789975476406426"/>
              <path id="ID0.4156116615049541" fill="#CCCCCC" d="M 57.7336 72.9475 C 56.1941 75.6959 54.1265 78.3276 51.5948 80.7704 C 39.7174 92.2198 26.9729 91.2222 26.4365 91.1721 L 23.8465 90.9415 L 26.1475 89.6909 C 28.3957 88.4654 41.6015 79.2475 44.6779 73.7562 L 44.8502 73.4255 C 47.0706 68.9596 51.9839 61.4535 53.8791 58.5578 C 54.1042 58.2188 54.2849 57.9381 54.4238 57.7297 L 54.3544 57.6352 L 54.8046 57.1461 C 56.5109 55.2953 58.8119 53.186 60.0874 53.6807 C 60.3709 53.7919 60.8544 54.1087 60.8933 55.0063 C 60.9045 55.2286 60.9378 55.5259 60.9767 55.8956 C 61.2768 58.7246 61.9883 65.3525 57.7336 72.9475 L 57.7336 72.9475 Z M 59.3871 55.2425 C 58.7118 55.5426 57.2501 56.7821 55.9634 58.1688 C 55.855 58.3411 55.5604 58.7913 55.1325 59.4471 C 53.2567 62.3095 48.3906 69.7322 46.198 74.1508 L 45.9868 74.5482 C 43.3245 79.2947 33.9815 86.3534 29.2572 89.5492 C 33.5702 89.2185 42.3602 87.5122 50.561 79.6087 C 52.9843 77.2744 54.9546 74.7649 56.4191 72.1499 C 60.4237 65.0051 59.7539 58.7412 59.4677 56.0651 C 59.4371 55.7622 59.4094 55.5009 59.3871 55.2425 L 59.3871 55.2425 Z " stroke-width="2.7789975476406426"/>
            </g>
            <g id="ID0.40606336295604706">
              <path id="ID0.2814771174453199" fill="#E5E5E5" d="M 63.4667 74.3926 C 63.4667 74.3926 56.4191 88.143 46.3675 87.6762 C 46.3675 87.6762 53.4567 75.5486 54.2376 69.332 C 55.0158 63.1154 58.9258 56.6626 62.1606 52.847 C 65.3981 49.0314 66.1123 51.6659 66.1123 51.6659 C 66.1123 51.6659 66.5986 68.1537 63.4667 74.3926 Z " stroke-width="2.7789975476406426"/>
              <path id="ID0.9155179779045284" fill="#CCCCCC" d="M 63.8557 75.2791 C 62.5774 77.5578 55.73 88.8989 46.3342 88.4682 L 45.0558 88.4098 L 46.3119 86.2311 C 47.8348 83.5104 52.8565 74.2481 53.4873 69.232 C 53.8958 65.9555 55.2019 62.2817 57.2612 58.6079 C 58.8619 55.751 60.5015 53.6168 61.5936 52.3273 C 63.111 50.5349 64.3754 49.7845 65.4537 50.0402 C 66.4986 50.2875 66.8126 51.3352 66.8737 51.6409 C 66.8932 52.3245 67.3295 68.4094 64.1392 74.7622 L 63.8557 75.2791 L 63.8557 75.2791 L 63.8557 75.2791 Z M 65.3814 51.8827 L 65.3814 51.8827 C 65.3814 51.8799 65.2869 51.6187 65.1119 51.5798 C 65.0396 51.5631 64.3449 51.4631 62.7247 53.375 C 61.6798 54.6061 60.1097 56.657 58.5673 59.4026 C 56.6081 62.8986 55.3715 66.3668 54.9852 69.4376 C 54.3488 74.5287 49.7551 83.2048 47.707 86.8647 C 55.5771 86.2033 61.4047 76.5157 62.5413 74.4843 L 62.5413 74.4843 L 62.7914 74.0285 C 65.7927 68.0564 65.362 51.9188 65.3814 51.8827 L 65.3814 51.8827 Z " stroke-width="2.7789975476406426"/>
            </g>
            <g id="ID0.9062185175716877">
              <path id="ID0.8334762509912252" fill="#E5E5E5" d="M 74.5243 70.4464 C 74.5243 70.4464 70.3503 78.939 64.9785 80.1729 C 64.9785 80.1729 56.4608 62.6235 65.1869 51.4881 C 73.9157 40.3554 70.8727 49.3844 70.8727 49.3844 L 74.5243 70.4464 Z " stroke-width="2.7789975476406426"/>
              <path id="ID0.6013795086182654" fill="#CCCCCC" d="M 74.7022 71.7414 C 73.3488 74.1591 69.7028 79.9005 65.1452 80.9454 L 64.5699 81.0788 L 64.3032 80.5314 C 63.9919 79.8866 56.7193 64.6244 63.0748 53.2861 C 63.5223 52.4857 64.0364 51.7132 64.6005 50.9934 C 68.9413 45.4549 70.4448 44.7073 71.4619 45.302 C 72.5179 45.9134 72.1677 47.8531 71.6564 49.4455 L 75.3163 70.5714 L 75.1996 70.8077 C 75.1996 70.8077 75.0273 71.1634 74.7022 71.7414 L 74.7022 71.7414 L 74.7022 71.7414 Z M 73.7323 70.3185 L 70.1252 49.5261 L 70.1585 49.1231 C 70.4475 48.27 70.6365 47.3057 70.6337 46.8082 C 70.1502 47.0722 68.8357 48.0838 65.776 51.9883 C 58.3255 61.4925 64.0586 76.1489 65.3981 79.2391 C 69.2303 77.9274 72.4623 72.6112 73.3933 70.9494 L 73.3933 70.9494 C 73.5406 70.6826 73.6545 70.4658 73.7323 70.3185 L 73.7323 70.3185 Z " stroke-width="2.7789975476406426"/>
            </g>
            <g id="ID0.1098977536894381">
              <path id="ID0.1552460314705968" fill="#E5E5E5" d="M 84.487 67.1171 C 84.487 67.1171 81.608 74.5093 75.8582 74.7872 C 75.8582 74.7872 65.3925 59.2137 70.0001 50.6016 C 74.6077 41.9894 83.9173 64.705 84.487 67.1171 Z " stroke-width="2.7789975476406426"/>
              <path id="ID0.7738596326671541" fill="#CCCCCC" d="M 84.3064 69.2236 C 83.0281 71.508 80.2352 75.3652 75.8944 75.5764 L 75.4775 75.5986 L 75.2385 75.2402 C 74.7994 74.5899 64.5561 59.1581 69.4137 50.0791 C 70.567 48.0227 71.9649 47.7642 72.9292 47.9059 C 78.5372 48.748 84.9595 65.8082 85.2262 66.9282 L 85.1929 67.4117 C 85.1901 67.4145 84.8955 68.1704 84.3064 69.2236 L 84.3064 69.2236 Z M 83.6839 67.0588 C 82.8446 64.2409 76.7864 50.0819 72.7124 49.465 C 72.2344 49.3983 71.5119 49.465 70.6643 50.9795 C 70.6615 50.9823 70.6615 50.9823 70.6615 50.9851 C 66.7181 58.355 74.7244 71.5886 76.239 73.9674 C 80.6909 73.4338 83.1753 68.2148 83.6839 67.0588 L 83.6839 67.0588 Z " stroke-width="2.7789975476406426"/>
            </g>
            <g id="ID0.17911422392353415">
              <path id="ID0.17240391904488206" fill="#E5E5E5" d="M 94.5776 58.266 C 94.5776 58.266 93.7772 62.3845 90.4202 64.4576 C 87.0632 66.5308 86.1127 69.6016 83.2865 65.836 C 80.4575 62.0733 72.6846 48.3534 72.9347 47.7086 C 73.1848 47.0639 77.2672 43.165 82.7696 47.1167 C 88.2748 51.0684 94.5776 58.266 94.5776 58.266 Z " stroke-width="2.7789975476406426"/>
              <path id="ID0.21024813316762447" fill="#CCCCCC" d="M 94.0912 61.6036 C 93.2353 63.1293 92.1348 64.3159 90.812 65.1329 C 89.9672 65.6554 89.2725 66.2557 88.6555 66.7837 C 87.5745 67.7146 86.6407 68.5205 85.4541 68.3871 C 84.5398 68.2815 83.6867 67.6479 82.6918 66.3223 C 81.3051 64.4771 71.6758 48.8508 72.3122 47.2529 C 72.6318 46.686 74.063 45.2826 76.2612 44.7712 C 77.8397 44.4044 80.3269 44.4016 83.2031 46.472 C 88.7167 50.4265 94.8833 57.4379 95.1417 57.738 L 95.4029 58.0298 L 95.3251 58.4272 C 95.3112 58.4828 95.0166 59.9501 94.0912 61.6036 L 94.0912 61.6036 L 94.0912 61.6036 Z M 93.7439 58.4856 C 92.4739 57.0683 87.0687 51.1574 82.3416 47.767 C 80.4102 46.3803 78.4955 45.8856 76.6447 46.2969 C 75.1301 46.6359 74.0908 47.4974 73.749 47.8698 C 74.5049 49.8957 81.1133 61.6536 83.8895 65.3497 C 84.5815 66.2751 85.1651 66.767 85.6209 66.8198 C 86.1711 66.8809 86.8408 66.3029 87.694 65.5692 C 88.3498 65.0051 89.0946 64.3632 90.0395 63.7796 C 91.1399 63.1015 92.0626 62.1011 92.7851 60.8088 L 92.7851 60.8088 C 93.3131 59.8584 93.6077 58.9663 93.7439 58.4856 L 93.7439 58.4856 Z " stroke-width="2.7789975476406426"/>
            </g>
            <g id="ID0.540474924724549">
              <path id="ID0.6901027490384877" fill="#E5E5E5" d="M 89.7088 43.6152 C 89.7088 43.6152 102.4421 50.6432 101.5973 53.325 C 100.7525 56.0067 96.509 58.6829 94.9138 58.3994 C 93.3187 58.116 81.7025 48.1144 80.9994 46.4358 C 80.2963 44.7546 82.3972 41.0085 89.7088 43.6152 Z " stroke-width="2.7789975476406426"/>
              <path id="ID0.217529755551368" fill="#CCCCCC" d="M 101.8863 54.5533 C 100.4857 57.0516 96.7035 59.5138 94.786 59.1775 C 92.9129 58.8413 81.1356 48.7424 80.3046 46.7471 C 79.9795 45.9829 80.0684 45.0186 80.5381 44.1821 C 81.0522 43.2678 83.242 40.4777 90.0645 42.9176 C 94.0607 45.1242 103.2592 50.5821 102.3171 53.5695 C 102.217 53.8919 102.0697 54.2226 101.8863 54.5533 L 101.8863 54.5533 L 101.8863 54.5533 Z M 81.8498 44.9741 C 81.5802 45.4521 81.5969 45.8912 81.6914 46.119 C 82.3305 47.5669 93.566 57.2406 95.0417 57.6185 C 96.0004 57.788 99.2991 56.0317 100.5746 53.7557 C 100.7053 53.5223 100.8081 53.2916 100.8748 53.0749 C 101.1805 52.105 96.3172 48.1533 89.4614 44.3544 C 84.9984 42.7676 82.6001 43.6346 81.8498 44.9741 L 81.8498 44.9741 Z " stroke-width="2.7789975476406426"/>
            </g>
          </g>
          <g id="Wing_5_">
            <path id="ID0.10736031271517277" fill="#FFFFFF" d="M 74.5243 30.9207 C 74.5243 30.9207 81.7108 27.3386 87.0076 32.3686 C 92.3016 37.4013 92.51 45.2659 88.1914 45.6355 C 83.8701 46.0051 54.7212 57.3101 47.5152 63.321 C 40.3093 69.332 14.6064 86.031 3.3153 82.4989 C 3.3153 82.4989 18.8888 78.5916 30.2994 68.401 C 41.7127 58.2105 54.132 48.9703 59.0342 44.5267 C 63.9363 40.0886 74.5243 30.9207 74.5243 30.9207 Z " stroke-width="2.7789975476406426"/>
            <path id="ID0.5356002384796739" d="M 6.8557 83.3354 C 5.4996 83.3354 4.274 83.1659 3.2097 82.8324 L 2.0342 82.4655 L 3.2291 82.1654 C 3.3848 82.1265 18.8527 78.1581 30.0687 68.1454 C 36.7828 62.1483 43.8442 56.4847 49.5189 51.9299 C 53.4206 48.8008 56.7888 46.0968 58.8008 44.2738 C 63.6501 39.8802 74.1908 30.7512 74.2964 30.6595 C 74.4743 30.5594 76.9587 29.3395 80.124 29.3395 C 82.9058 29.3395 85.3041 30.2732 87.2438 32.1184 C 91.1288 35.8145 92.196 40.7445 91.2289 43.5096 C 90.712 44.9852 89.6448 45.8634 88.2192 45.9856 C 83.6228 46.3775 54.8129 57.688 47.7348 63.5934 C 40.7706 69.4015 19.1111 83.3354 6.8557 83.3354 L 6.8557 83.3354 Z M 4.6964 82.4711 C 5.3662 82.5823 6.0859 82.6406 6.8557 82.6406 C 18.9305 82.6406 40.3816 68.8207 47.2929 63.057 C 54.4322 57.1016 83.5199 45.6883 88.1636 45.2909 C 89.6171 45.1658 90.2785 44.1265 90.5758 43.2761 C 91.4845 40.6805 90.309 35.984 86.7686 32.6214 C 84.9595 30.9012 82.7224 30.0314 80.124 30.0314 C 77.1282 30.0314 74.7022 31.2181 74.6799 31.2319 C 74.6466 31.2764 64.1114 40.3999 59.2676 44.7879 C 57.239 46.6276 53.8625 49.3343 49.9524 52.4718 C 44.2833 57.0183 37.2302 62.6791 30.53 68.6623 C 21.0925 77.0882 8.6926 81.2761 4.6964 82.4711 L 4.6964 82.4711 Z " stroke-width="2.7789975476406426" fill="undefined"/>
          </g>
        </g>
        <g id="Wing_12_">
          <g id="Feathers_6_">
            <path id="Outline_9_" d="M 76.2362 54.0753 C 76.025 53.6946 75.8555 53.3166 75.736 52.9415 C 74.9106 50.3264 79.1597 46.4275 88.3554 41.3475 C 95.8253 38.6685 98.3042 41.8672 98.8906 42.9121 C 98.9461 43.0038 98.9878 43.0983 99.0267 43.1955 C 100.3079 42.8982 101.5834 42.8732 102.6839 43.1316 C 104.1401 43.4679 105.2934 44.1682 106.0687 44.8185 C 106.241 44.3405 106.5328 43.9764 106.9469 43.7402 C 108.4726 42.8537 110.2011 44.0181 113.7332 48.345 C 114.9532 48.3395 116.2732 49.1898 117.7516 50.9323 C 118.0101 51.238 118.3046 51.6076 118.6187 52.005 C 118.7104 51.9827 118.8021 51.966 118.9021 51.9549 L 118.7437 51.3019 L 120.5612 52.3746 C 120.8335 52.5052 121.1698 52.708 121.5227 52.9582 L 123.8626 54.3727 L 123.6236 53.2805 L 138.155 60.3225 C 156.2991 80.0534 172.9953 84.6443 173.1621 84.6915 L 177.9947 85.9532 L 173.3038 87.704 C 172.9647 87.8318 170.2108 88.7155 162.9715 86.9842 C 166.0367 88.8128 167.7764 89.5131 167.8042 89.5242 L 172.5423 91.3639 L 167.6096 92.5339 C 167.0733 92.6589 164.5694 92.6395 153.509 88.4015 L 157.5913 90.6191 L 152.4085 91.0804 C 152.0167 91.1166 143.399 91.8335 133.653 85.8782 L 135.0287 88.2598 L 132.4775 88.3765 C 124.9048 88.7238 118.9577 81.8125 116.1176 77.7301 C 115.6007 79.0641 115.2061 79.8894 115.1505 80.0034 L 114.6197 81.0983 L 113.4664 80.8343 C 109.9093 80.0172 106.9358 76.6713 104.8988 73.6506 C 104.4958 74.3064 104.2262 74.726 104.1595 74.8177 L 103.6871 75.5264 L 102.8451 75.4847 C 97.8207 75.2402 94.7443 70.5353 93.5577 68.2676 C 93.5049 68.2788 93.4548 68.2843 93.4048 68.2899 C 91.9014 68.4594 90.8009 67.5145 89.6393 66.5141 C 89.0307 65.9916 88.3609 65.4136 87.5773 64.9301 C 85.5708 63.6879 83.9729 61.5536 83.1003 59.0469 C 80.7993 58.7551 77.5701 56.4597 76.2362 54.0753 L 76.2362 54.0753 Z M 97.5817 43.7041 C 97.1426 42.9232 95.2251 40.5471 88.9557 42.787 C 80.2713 47.5947 76.7559 51.1157 77.1783 52.4496 C 77.9147 54.8395 81.8331 57.5629 83.6339 57.5129 L 84.2063 57.499 L 84.3786 58.0659 C 85.0901 60.4059 86.5296 62.4568 88.3526 63.5823 C 89.2363 64.1297 89.9533 64.7467 90.5869 65.2886 C 91.7013 66.2473 92.4155 66.8198 93.2409 66.7281 C 93.3743 66.7114 93.5188 66.6725 93.6772 66.6086 L 94.3163 66.3529 L 94.6248 66.9921 C 95.5113 68.8151 98.2403 73.6867 102.9118 73.9146 C 103.009 73.7701 103.5259 72.9836 104.2207 71.7914 L 104.8515 70.7215 L 105.5074 71.7747 C 107.033 74.223 110.1455 78.461 113.7916 79.2975 L 113.7916 79.2975 C 113.8166 79.2447 114.4669 77.8913 115.2033 75.7848 L 115.7202 74.3231 L 116.5483 75.6209 C 118.7715 79.0974 124.7686 87.1537 132.4025 86.8008 L 132.4108 86.8036 L 131.8078 85.7587 C 131.8078 85.7587 131.8078 85.7559 131.805 85.7531 C 131.5466 85.289 131.1714 84.6082 130.7601 83.8412 L 131.8578 82.8101 C 142.1901 90.344 151.861 89.5464 152.2723 89.5103 C 151.4275 89.0518 149.1904 87.5622 146.5254 85.6003 L 147.2423 84.2247 C 163.7135 90.9748 166.9204 91.0165 167.2595 90.9971 C 167.0733 90.922 163.5356 89.477 157.7664 85.4669 L 158.4111 84.0607 C 169.1047 87.4955 172.748 86.2339 172.7841 86.2172 L 172.7841 86.2172 L 172.7841 86.2172 C 172.6146 86.1727 155.5766 81.5513 137.2824 61.5786 L 125.7913 56.0623 L 126.122 57.5629 L 120.7057 54.2865 C 120.3806 54.0559 120.111 53.8947 119.847 53.7641 L 119.6358 53.6585 C 119.2023 53.4834 119.0133 53.5167 118.9522 53.5417 L 118.3602 54.0031 L 117.8016 53.4695 C 117.3681 52.897 116.9541 52.3773 116.6122 51.9688 C 115.3645 50.496 114.3001 49.7957 113.5387 49.9374 L 113.1051 50.018 L 112.8217 49.6706 C 110.0677 46.2608 108.3392 44.7268 107.6805 45.113 C 107.386 45.2853 107.3165 45.9384 107.4888 46.9111 L 107.6805 47.9976 L 105.6936 47.8031 L 105.6713 46.8388 C 105.5852 46.3803 104.3152 45.1186 102.3449 44.6628 C 101.7251 44.5211 100.4357 44.3627 98.7127 44.8991 L 97.9568 45.1353 L 97.7623 44.3405 C 97.6845 43.9792 97.6484 43.818 97.5817 43.7041 L 97.5817 43.7041 Z " stroke-width="2.7789975476406426" fill="undefined"/>
            <g id="ID0.1434289854951203">
              <path id="ID0.9425094961188734" fill="#E5E5E5" d="M 139.0387 75.8793 C 165.3142 89.0045 172.7897 86.22 172.7897 86.22 C 172.7897 86.22 155.8183 81.8125 137.5159 61.7537 L 125.7968 56.0762 C 125.7968 56.0762 129.0566 70.891 139.0387 75.8793 Z " stroke-width="2.7789975476406426"/>
              <path id="ID0.5984413656406105" fill="#CCCCCC" d="M 129.1677 66.7225 C 129.1677 66.7197 129.1677 66.7225 129.1677 66.7225 C 126.2303 61.4786 125.1021 56.4625 125.0576 56.2513 L 124.7102 54.6811 L 137.8354 61.0423 C 155.9795 80.8482 172.8063 85.4168 172.9786 85.4585 L 175.3964 86.0894 L 173.0481 86.9647 C 172.7313 87.0842 164.9724 89.7132 138.7164 76.5935 C 135.012 74.7399 131.7995 71.419 129.1677 66.7225 L 129.1677 66.7225 Z M 126.9668 57.5046 C 127.517 59.3749 128.6314 62.6346 130.4767 65.925 C 132.9555 70.3491 135.9485 73.4616 139.3722 75.1707 C 155.1931 83.0769 164.1414 85.1417 168.6601 85.5697 C 162.5129 83.0325 149.9991 76.5796 136.9656 62.2956 L 126.9668 57.5046 L 126.9668 57.5046 Z " stroke-width="2.7789975476406426"/>
            </g>
            <g id="ID0.6772148041054606">
              <path id="ID0.8873821794986725" fill="#E5E5E5" d="M 136.3376 79.606 C 164.1776 91.7363 167.2761 91.0026 167.2761 91.0026 C 167.2761 91.0026 151.8722 85.05 132.2608 61.2785 L 121.0864 54.5172 C 121.0836 54.5144 126.1164 75.1512 136.3376 79.606 Z " stroke-width="2.7789975476406426"/>
              <path id="ID0.6329370583407581" fill="#CCCCCC" d="M 126.4304 70.2296 C 126.4304 70.2296 126.4304 70.2296 126.4304 70.2296 C 122.412 63.0515 120.4334 55.048 120.35 54.7089 L 119.9053 52.8942 L 132.6387 60.6004 C 152.0639 84.0746 167.3817 90.2078 167.5401 90.269 L 169.9079 91.1888 L 167.4429 91.7752 C 167.1011 91.8558 163.3216 92.2254 136.043 80.3368 C 132.5776 78.8223 129.3456 75.4236 126.4304 70.2296 L 126.4304 70.2296 Z M 122.3342 56.1735 C 123.154 58.9719 124.9631 64.4743 127.7449 69.4348 L 127.7449 69.4348 C 130.485 74.3259 133.4752 77.505 136.6294 78.8779 C 149.2627 84.3831 156.7632 87.2176 161.1679 88.6794 C 154.9096 84.8722 144.191 76.9465 131.6855 61.787 L 122.3342 56.1735 L 122.3342 56.1735 Z " stroke-width="2.7789975476406426"/>
            </g>
            <g id="ID0.2458489015698433">
              <path id="ID0.9377228138037026" fill="#E5E5E5" d="M 123.4263 56.821 C 123.343 56.7959 130.4405 67.245 133.2529 72.9169 C 136.0652 78.5861 149.9658 88.257 152.2807 89.5159 C 152.2807 89.5159 139.4695 90.6636 127.7004 79.3197 C 115.9314 67.9759 118.527 56.6014 118.6409 54.1754 C 118.7576 51.7437 123.4263 56.821 123.4263 56.821 Z " stroke-width="2.7789975476406426"/>
              <path id="ID0.620105295907706" fill="#CCCCCC" d="M 121.0475 72.0749 C 116.7929 64.4799 117.5015 57.852 117.8016 55.0229 C 117.8433 54.6533 117.8739 54.356 117.8878 54.1337 C 117.9267 53.2361 118.4102 52.9192 118.6909 52.8081 C 119.9665 52.3134 122.2675 54.4227 123.9738 56.2735 L 124.4212 56.7626 L 124.3545 56.8571 C 124.4935 57.0683 124.6741 57.3462 124.8992 57.6852 C 126.7945 60.5809 131.705 68.0842 133.9254 72.5529 L 134.0977 72.8836 C 137.174 78.3749 150.3798 87.5928 152.628 88.8183 L 154.9291 90.0689 L 152.339 90.2995 C 151.8055 90.3496 139.061 91.3444 127.1808 79.8978 C 124.6547 77.455 122.5843 74.8233 121.0475 72.0749 L 121.0475 72.0749 Z M 119.3912 54.3699 C 119.369 54.6311 119.3412 54.8923 119.3106 55.1952 C 119.0216 57.8714 118.3519 64.1353 122.3564 71.2801 C 123.8237 73.8951 125.794 76.4046 128.2173 78.7389 C 136.4126 86.6396 145.2053 88.3487 149.5183 88.6794 C 144.7941 85.4808 135.4511 78.4221 132.7888 73.6784 L 132.5804 73.2782 C 130.3877 68.8596 125.5217 61.4397 123.6459 58.5745 C 123.2151 57.9187 122.9206 57.4712 122.8122 57.2962 C 121.5283 55.9067 120.0638 54.67 119.3912 54.3699 L 119.3912 54.3699 Z " stroke-width="2.7789975476406426"/>
            </g>
            <g id="ID0.8200301979668438">
              <path id="ID0.8776469402946532" fill="#E5E5E5" d="M 115.3089 73.52 C 115.3089 73.52 122.3592 87.2704 132.4081 86.8036 C 132.4081 86.8036 125.3161 74.676 124.5407 68.4594 C 123.7626 62.2428 119.8498 55.7899 116.615 51.9744 C 113.3803 48.1588 112.6633 50.7933 112.6633 50.7933 C 112.6633 50.7933 112.1797 67.2811 115.3089 73.52 Z " stroke-width="2.7789975476406426"/>
              <path id="ID0.25267151929438114" fill="#CCCCCC" d="M 114.9226 74.4065 L 114.9226 74.4065 L 114.6419 73.8896 C 111.4544 67.5368 111.8879 51.4519 111.9074 50.7683 C 111.9685 50.4626 112.2826 49.4149 113.3275 49.1676 C 114.4029 48.9119 115.6674 49.6623 117.1875 51.4547 C 118.2796 52.7414 119.9165 54.8757 121.5199 57.7352 C 123.5792 61.4091 124.8853 65.0857 125.291 68.3594 C 125.9219 73.3754 130.9407 82.6378 132.4664 85.3585 L 133.7225 87.5372 L 132.4442 87.5956 C 123.0456 88.0263 116.2009 76.6852 114.9226 74.4065 L 114.9226 74.4065 Z M 113.3969 51.0101 C 113.4164 51.049 112.9884 67.1838 115.9842 73.1559 L 116.2343 73.6117 L 116.2343 73.6117 C 117.3737 75.6431 123.2012 85.3307 131.0686 85.9921 C 129.0232 82.3322 124.4296 73.6561 123.7932 68.565 C 123.4069 65.4942 122.1702 62.026 120.211 58.53 C 118.6715 55.7816 117.0986 53.7335 116.0564 52.5024 C 114.4335 50.5904 113.7415 50.6905 113.6693 50.7072 C 113.4914 50.7461 113.3969 51.0073 113.3969 51.0101 L 113.3969 51.0101 L 113.3969 51.0101 Z " stroke-width="2.7789975476406426"/>
            </g>
            <g id="ID0.32671078760176897">
              <path id="ID0.8998256591148674" fill="#E5E5E5" d="M 104.254 69.5738 C 104.254 69.5738 108.4281 78.0664 113.7999 79.3003 C 113.7999 79.3003 122.3175 61.7509 113.5915 50.6155 C 104.8626 39.4828 107.9084 48.5118 107.9084 48.5118 L 104.254 69.5738 Z " stroke-width="2.7789975476406426"/>
              <path id="ID0.16586111299693584" fill="#CCCCCC" d="M 104.0762 70.8688 L 104.0762 70.8688 C 103.751 70.2908 103.576 69.935 103.576 69.935 L 103.4592 69.6988 L 107.1192 48.5729 C 106.6051 46.9805 106.2577 45.0408 107.3137 44.4294 C 108.3308 43.8347 109.8343 44.5823 114.1751 50.1208 C 114.7392 50.8406 115.2533 51.6131 115.7035 52.4135 C 122.0563 63.7518 114.7864 79.014 114.4752 79.6588 L 114.2056 80.2062 L 113.6304 80.0728 C 109.0784 79.0251 105.4323 73.2865 104.0762 70.8688 L 104.0762 70.8688 Z M 105.046 69.4487 C 105.1211 69.596 105.235 69.81 105.3879 70.0768 L 105.3879 70.0768 C 106.3188 71.7386 109.5508 77.0548 113.3803 78.3665 C 114.7197 75.2791 120.4528 60.6198 113.0023 51.1157 C 109.9426 47.214 108.6282 46.1996 108.1446 45.9356 C 108.1391 46.4303 108.3308 47.3974 108.6198 48.2505 L 108.6532 48.6535 L 105.046 69.4487 L 105.046 69.4487 Z " stroke-width="2.7789975476406426"/>
            </g>
            <g id="ID0.12312101200222969">
              <path id="ID0.23527594096958637" fill="#E5E5E5" d="M 94.2913 66.2445 C 94.2913 66.2445 97.1704 73.6367 102.9173 73.9146 C 102.9173 73.9146 113.3858 58.3411 108.7782 49.729 C 104.1734 41.1168 94.861 63.8324 94.2913 66.2445 Z " stroke-width="2.7789975476406426"/>
              <path id="ID0.44904191233217716" fill="#CCCCCC" d="M 94.472 68.351 C 93.88 67.2978 93.5882 66.5419 93.5882 66.5419 L 93.5549 66.0583 C 93.8217 64.9384 100.2412 47.8781 105.8492 47.0361 C 106.8163 46.8944 108.2141 47.1528 109.3674 49.2093 C 114.2251 58.2883 103.9817 73.7173 103.5426 74.3703 L 103.3036 74.7288 L 102.8868 74.7066 C 98.5432 74.4926 95.7531 70.6354 94.472 68.351 L 94.472 68.351 Z M 95.0945 66.1862 C 95.603 67.3422 98.0874 72.5612 102.5394 73.0948 C 104.0539 70.7159 112.063 57.4851 108.1196 50.1125 C 108.1168 50.1097 108.1168 50.1097 108.1141 50.1069 C 107.2665 48.5923 106.5467 48.5256 106.0687 48.5923 C 101.9892 49.2093 95.9337 63.3711 95.0945 66.1862 L 95.0945 66.1862 Z " stroke-width="2.7789975476406426"/>
            </g>
            <g id="ID0.46491005225107074">
              <path id="ID0.3745363890193403" fill="#E5E5E5" d="M 84.198 57.3934 C 84.198 57.3934 85.0011 61.5119 88.3554 63.585 C 91.7096 65.6582 92.6656 68.729 95.4863 64.9634 C 98.3153 61.2007 106.091 47.4807 105.8381 46.836 C 105.588 46.1913 101.5056 42.2924 96.0032 46.2441 C 90.5063 50.1958 84.198 57.3934 84.198 57.3934 Z " stroke-width="2.7789975476406426"/>
              <path id="ID0.5550412507727742" fill="#CCCCCC" d="M 84.6871 60.731 L 84.6871 60.731 C 83.7617 59.0747 83.4699 57.6102 83.456 57.5491 L 83.381 57.1517 L 83.6422 56.8599 C 83.9007 56.5625 90.0673 49.5483 95.5808 45.5938 C 98.4543 43.5235 100.9442 43.5262 102.5199 43.8931 C 104.7209 44.4044 106.1521 45.8078 106.4717 46.3747 C 107.1081 47.9754 97.4788 63.6017 96.0921 65.4442 C 95.0972 66.7698 94.2441 67.4034 93.3298 67.509 C 92.1432 67.6424 91.2094 66.8365 90.1312 65.9055 C 89.5115 65.3775 88.8167 64.7772 87.9747 64.2548 C 86.6463 63.4433 85.543 62.2595 84.6871 60.731 L 84.6871 60.731 Z M 85.0345 57.613 C 85.1707 58.0937 85.4625 58.9858 85.9988 59.9362 L 85.9988 59.9362 C 86.7241 61.2284 87.6467 62.2289 88.7444 62.907 C 89.6865 63.4906 90.4341 64.1325 91.0899 64.6966 C 91.9431 65.4303 92.6128 66.0083 93.1603 65.9472 C 93.616 65.8944 94.2024 65.4025 94.8916 64.4771 C 97.6706 60.781 104.2763 49.0231 105.0322 46.9972 C 104.6876 46.622 103.651 45.7605 102.1364 45.4243 C 100.2856 45.0158 98.3709 45.5077 96.4367 46.8944 C 91.7096 50.2848 86.3045 56.1929 85.0345 57.613 L 85.0345 57.613 Z " stroke-width="2.7789975476406426"/>
            </g>
            <g id="ID0.2916699103079736">
              <path id="ID0.6915789665654302" fill="#E5E5E5" d="M 89.0668 42.7426 C 89.0668 42.7426 76.3362 49.7706 77.181 52.4524 C 78.0259 55.1341 82.2666 57.8103 83.8618 57.5268 C 85.4569 57.2434 97.0731 47.2418 97.779 45.5632 C 98.4821 43.8819 96.3839 40.1359 89.0668 42.7426 Z " stroke-width="2.7789975476406426"/>
              <path id="ID0.9924181248061359" fill="#CCCCCC" d="M 76.892 53.6807 L 76.892 53.6807 C 76.7086 53.35 76.5613 53.0193 76.4585 52.6969 C 75.5192 49.7095 84.7149 44.2516 88.7139 42.045 C 95.5335 39.6051 97.7234 42.3952 98.2403 43.3095 C 98.7072 44.1487 98.7961 45.1103 98.4737 45.8745 C 97.6428 47.867 85.8654 57.9687 83.9924 58.3049 C 82.0749 58.6412 78.2926 56.179 76.892 53.6807 L 76.892 53.6807 Z M 96.9258 44.1015 C 96.1755 42.762 93.78 41.895 89.3169 43.4845 C 82.4584 47.2807 77.5951 51.2352 77.9036 52.205 C 77.9675 52.4218 78.0731 52.6525 78.2009 52.8859 C 79.4765 55.1591 82.7752 56.9154 83.7367 56.7487 C 85.2096 56.3708 96.4451 46.6971 97.0842 45.2492 C 97.1815 45.0186 97.1982 44.5823 96.9258 44.1015 L 96.9258 44.1015 Z " stroke-width="2.7789975476406426"/>
            </g>
          </g>
          <g id="Wing_13_">
            <path id="ID0.1571521614678204" fill="#FFFFFF" d="M 105.8464 30.9179 C 105.8464 30.9179 96.5507 28.0333 91.2567 33.0661 C 85.9627 38.0989 86.2711 44.3933 90.5869 44.7657 C 94.9083 45.1353 124.0572 56.4402 131.2631 62.4512 C 138.4718 68.4622 164.1748 85.1612 175.4658 81.6291 C 175.4658 81.6291 159.8923 77.7218 148.479 67.5312 C 137.0657 57.3406 124.6463 48.1005 119.7442 43.6568 C 114.842 39.216 105.8464 30.9179 105.8464 30.9179 Z " stroke-width="2.7789975476406426"/>
            <path id="ID0.11245627142488956" d="M 171.9226 82.4628 L 171.9226 82.4628 C 159.6672 82.4628 138.0077 68.5289 131.038 62.7208 C 123.9627 56.8154 95.1528 45.5049 90.5564 45.113 C 88.9501 44.9741 87.7774 44.0765 87.2521 42.5842 C 86.4407 40.272 87.291 36.3564 91.0149 32.816 C 93.1547 30.7818 96.1505 29.7507 99.916 29.7507 C 103.2091 29.7507 105.8381 30.5539 105.9464 30.5872 C 106.0798 30.665 115.0755 38.9631 119.9748 43.4012 C 121.9896 45.227 125.3605 47.9337 129.2678 51.0684 C 134.9397 55.6204 141.9956 61.2812 148.7069 67.2755 C 159.9285 77.2911 175.3936 81.2567 175.5464 81.2956 L 176.7442 81.5957 L 175.5659 81.9625 C 174.5043 82.2932 173.2788 82.4628 171.9226 82.4628 L 171.9226 82.4628 Z M 99.916 30.4427 C 96.3339 30.4427 93.5021 31.4098 91.4929 33.319 C 87.9941 36.6454 87.1715 40.2526 87.908 42.3535 C 88.3332 43.5707 89.2975 44.3071 90.6147 44.4211 C 95.2584 44.8185 124.3462 56.2318 131.4827 62.1872 C 138.394 67.9508 159.8451 81.768 171.9226 81.7708 L 171.9226 81.7708 C 172.6896 81.7708 173.4122 81.7124 174.0791 81.6013 C 170.0829 80.4063 157.6858 76.2184 148.2456 67.7924 C 141.5482 61.812 134.4979 56.154 128.8343 51.6103 C 124.9214 48.4701 121.5394 45.7578 119.5107 43.9181 C 114.6614 39.5245 105.8019 31.3542 105.613 31.1791 C 105.5963 31.1958 103.0424 30.4427 99.916 30.4427 L 99.916 30.4427 Z " stroke-width="2.7789975476406426" fill="undefined"/>
          </g>
        </g>
        <g id="Tail_1_">
          <g id="Tail_Base_1_">
            <path id="ID0.009507717099040747" fill="#FFFFFF" d="M 80.1629 110.6696 L 79.9378 110.7029 L 69.0163 110.1055 L 67.424 102.6883 L 62.0661 100.8403 L 61.5464 92.6089 L 62.0216 91.9197 C 67.5991 85.7003 74.7522 71.1912 79.7683 60.1141 C 82.7863 48.0449 84.9483 38.1655 84.9678 38.0738 L 85.0262 37.7987 L 88.3054 37.8098 L 88.3498 38.0127 L 88.8917 38.0071 L 89.2113 37.8098 L 92.2043 37.782 L 92.2654 38.0544 C 92.2821 38.1266 94.0635 45.8523 96.7035 56.129 C 101.2249 66.3835 109.8009 84.7499 116.2287 91.9197 L 116.6178 92.3532 L 116.6734 93.1869 L 116.1954 100.8347 L 110.3789 102.8384 L 108.8199 110.0971 L 98.5515 110.6613 L 90.598 117.3364 L 80.1629 110.6696 Z " stroke-width="2.7789975476406426"/>
            <g id="ID0.2639526310376823">
              <path id="ID0.31777719827368855" d="M 91.9292 38.1322 C 91.9736 38.3212 93.7633 46.0579 96.37 56.2179 C 101.2166 67.2227 109.6036 85.0472 115.9758 92.1531 L 116.3649 92.5867 L 116.3288 93.1675 L 115.923 99.6592 L 115.8647 100.5846 L 114.9893 100.8847 L 110.0844 102.5744 L 108.7643 108.7271 L 108.542 109.7664 L 107.4832 109.8248 L 98.5376 110.3167 L 90.5758 116.9112 L 80.3519 110.375 L 79.9573 110.3528 L 70.3586 109.8276 L 69.2998 109.7692 L 69.0775 108.7299 L 67.7213 102.4187 L 63.2749 100.8847 L 62.3996 100.5846 L 62.3412 99.6592 L 61.9299 93.1675 L 61.8938 92.5867 L 62.2828 92.1531 C 67.9214 85.8643 75.1385 71.18 80.0879 60.2586 C 83.1142 48.1866 85.2651 38.3629 85.3096 38.1489 L 88.0275 38.1572 C 88.0414 38.2239 88.0525 38.2989 88.0664 38.3656 L 89.1808 38.3517 C 89.1919 38.2878 89.203 38.2183 89.2169 38.1572 L 91.9292 38.1322 M 92.4822 37.4319 L 91.9236 37.4374 L 89.2085 37.4625 L 88.6527 37.468 L 88.6194 37.6236 L 88.5833 37.4625 L 88.0275 37.4625 L 85.3096 37.4541 L 84.7455 37.4541 L 84.626 38.0044 C 84.6065 38.0961 82.4472 47.9671 79.4098 60.0918 C 74.4437 71.0272 67.31 85.503 61.7632 91.6918 L 61.3741 92.1253 L 61.1796 92.3421 L 61.1962 92.6311 L 61.2324 93.2119 L 61.6437 99.7037 L 61.702 100.6291 L 61.7326 101.0932 L 62.1689 101.2432 L 63.0443 101.5434 L 67.1211 102.9495 L 68.3939 108.8771 L 68.6162 109.9137 L 68.7273 110.4334 L 69.2581 110.4612 L 70.3169 110.5195 L 79.9156 111.0448 L 80.1268 111.0559 L 90.1951 117.492 L 90.6231 117.7672 L 91.0149 117.442 L 98.7989 110.9947 L 107.5138 110.5167 L 108.5726 110.4584 L 109.1034 110.4306 L 109.2145 109.9109 L 109.4369 108.8716 L 110.6735 103.1024 L 115.2061 101.5406 L 116.0814 101.2405 L 116.5205 101.0904 L 116.5511 100.6263 L 116.6095 99.7009 L 117.0152 93.2092 L 117.0541 92.6283 L 117.0708 92.3393 L 116.879 92.1226 L 116.49 91.689 C 110.0927 84.5526 101.5362 66.2251 97.0036 55.9372 C 94.4025 45.7689 92.6212 38.0488 92.6045 37.9766 L 92.4822 37.4319 L 92.4822 37.4319 Z " stroke-width="2.7789975476406426" fill="undefined"/>
            </g>
          </g>
          <g id="Feather_9_">
            <path id="ID0.7267776341177523" fill="#E5E5E5" d="M 63.0637 100.0788 L 62.6024 92.834 L 62.7969 92.6172 C 72.3456 81.9681 86.3156 47.6253 86.4546 47.2807 L 87.7913 47.5002 C 89.0168 67.9675 74.2103 101.6156 73.5795 103.0385 L 73.321 103.6193 L 63.0637 100.0788 Z " stroke-width="2.7789975476406426"/>
            <path id="ID0.4625955354422331" fill="#CCCCCC" d="M 87.1021 47.5391 C 88.3304 68.0731 72.9486 102.7522 72.9486 102.7522 L 63.7279 99.5731 L 63.3166 93.0813 C 73.057 82.2182 87.1021 47.5391 87.1021 47.5391 M 85.8154 47.0194 C 85.6764 47.364 71.7481 81.5957 62.2828 92.1531 L 61.8938 92.5867 L 61.9299 93.1675 L 62.3412 99.6592 L 62.3996 100.5846 L 63.2749 100.8847 L 72.4957 104.0639 L 73.7017 104.478 L 74.2186 103.3136 C 74.8522 101.8852 89.7254 68.087 88.4888 47.453 L 85.8154 47.0194 L 85.8154 47.0194 Z " stroke-width="2.7789975476406426"/>
          </g>
          <g id="Feather_8_">
            <path id="ID0.9070141585543752" fill="#E5E5E5" d="M 69.8667 109.105 L 68.1354 101.0431 L 68.2382 100.8292 C 75.6998 85.3363 85.8876 38.7658 85.9877 38.2962 L 87.3466 38.2989 C 92.2182 61.3118 80.8215 108.6548 80.7048 109.13 L 80.5686 109.6914 L 69.8667 109.105 Z " stroke-width="2.7789975476406426"/>
            <path id="ID0.9196023144759238" fill="#CCCCCC" d="M 86.6685 38.4434 C 91.5651 61.5675 80.0323 108.9661 80.0323 108.9661 L 70.4336 108.4408 L 68.8635 101.1321 C 76.4474 85.3835 86.6685 38.4434 86.6685 38.4434 M 85.3096 38.1489 C 85.2068 38.6157 75.0384 85.1084 67.613 100.529 L 67.4073 100.957 L 67.5073 101.4211 L 69.0775 108.7299 L 69.2998 109.7692 L 70.3586 109.8276 L 79.9573 110.3528 L 81.1105 110.4167 L 81.3829 109.294 C 81.8553 107.3459 92.9324 61.3229 88.0275 38.1544 L 85.3096 38.1489 L 85.3096 38.1489 Z " stroke-width="2.7789975476406426"/>
          </g>
          <g id="Feather_7_">
            <path id="ID0.21736259572207928" fill="#E5E5E5" d="M 104.6792 103.0357 C 104.0484 101.6128 89.2419 67.9647 90.4674 47.4974 L 91.8041 47.2779 C 91.9431 47.6253 105.9131 81.9681 115.459 92.6144 L 115.6507 92.8312 L 115.1977 100.0761 L 104.9377 103.6137 L 104.6792 103.0357 Z " stroke-width="2.7789975476406426"/>
            <path id="ID0.9339159978553653" fill="#CCCCCC" d="M 91.1594 47.5391 C 91.1594 47.5391 105.2017 82.2182 114.9421 93.0813 L 114.5363 99.5731 L 105.3156 102.7522 C 105.3128 102.7522 89.9283 68.0731 91.1594 47.5391 M 92.4461 47.0194 L 89.7727 47.4585 C 88.536 68.0926 103.4092 101.888 104.0428 103.3191 L 104.5597 104.4835 L 105.7658 104.0695 L 114.9865 100.8903 L 115.8619 100.5902 L 115.9203 99.6648 L 116.326 93.173 L 116.3621 92.5922 L 115.9731 92.1587 C 106.5078 81.5957 92.5878 47.364 92.4461 47.0194 L 92.4461 47.0194 Z " stroke-width="2.7789975476406426"/>
          </g>
          <g id="Feather_6_">
            <path id="ID0.21161378594115376" fill="#E5E5E5" d="M 97.1342 109.1384 C 97.012 108.6632 85.0234 61.3174 89.895 38.2989 L 91.2511 38.2878 C 91.3595 38.7547 102.1364 85.3335 109.5953 100.8292 L 109.6981 101.0431 L 107.9696 109.105 L 97.2732 109.6914 L 97.1342 109.1384 Z " stroke-width="2.7789975476406426"/>
            <path id="ID0.24702424881979823" fill="#CCCCCC" d="M 90.5758 38.4434 C 90.5758 38.4434 101.3917 85.3835 108.9728 101.1293 L 107.4054 108.4381 L 97.8095 108.9633 C 97.8068 108.9661 85.6792 61.5703 90.5758 38.4434 M 91.9292 38.1322 L 89.2141 38.1572 C 84.3064 61.334 95.9615 107.3626 96.4589 109.3107 L 96.7424 110.4167 L 97.8818 110.3528 L 107.4777 109.8276 L 108.5365 109.7692 L 108.7588 108.7299 L 110.3261 101.4211 L 110.4262 100.957 L 110.2205 100.529 C 102.7951 85.1 92.0376 38.5991 91.9292 38.1322 L 91.9292 38.1322 Z " stroke-width="2.7789975476406426"/>
          </g>
          <g id="Feather_5_">
            <path id="ID0.5348126203753054" fill="#E5E5E5" d="M 80.7298 109.7942 L 90.5202 116.0525 L 98.4821 109.4579 L 88.6833 38.4434 L 80.7298 109.7942 " stroke-width="2.7789975476406426"/>
            <path id="ID0.49125430919229984" fill="#CCCCCC" d="M 90.573 116.9112 L 79.9906 110.1444 L 87.9913 38.3656 L 89.3697 38.349 L 99.2213 109.747 L 90.573 116.9112 L 90.573 116.9112 Z M 81.469 109.4413 L 90.4674 115.1938 L 97.7428 109.1717 L 88.7583 44.057 L 81.469 109.4413 L 81.469 109.4413 Z " stroke-width="2.7789975476406426"/>
          </g>
        </g>
        <g id="Leg_6_">
          <g id="Foot_3_">
            <path id="ID0.31120520178228617" fill="#FFD18F" d="M 81.8998 85.8587 C 81.5357 85.8587 81.1633 85.6697 80.9049 85.3529 C 80.6631 85.0584 80.5603 84.6971 80.627 84.3692 C 80.9244 82.9241 81.6747 81.9209 82.4723 80.8537 C 82.4723 80.8537 82.8363 80.3646 82.8419 80.3535 C 82.8113 80.373 82.7835 80.3952 82.7557 80.4146 C 82.5445 80.5619 82.3305 80.7676 82.1082 80.9816 C 81.5552 81.5096 80.9299 82.1071 80.1657 82.1348 C 80.1657 82.1348 80.1657 82.1348 80.1657 82.1348 C 79.5877 82.1348 79.2153 81.768 79.1986 81.2233 C 79.1569 79.4642 81.1105 78.0803 82.7974 77.4272 L 83.1198 77.3077 C 83.7367 77.0826 84.4342 76.8297 84.7399 76.349 C 85.0178 75.9099 84.8983 75.6598 84.6037 75.1401 L 84.412 74.79 C 84.0591 74.0869 83.8562 73.5644 84.2591 72.7363 C 84.3981 72.4473 84.6899 72.2638 85.0011 72.2638 C 85.2985 72.2638 85.5597 72.4306 85.6931 72.7113 C 85.8098 72.9586 85.9404 73.2087 86.0738 73.4616 C 86.3712 74.0341 86.6741 74.6204 86.852 75.1985 C 87.141 75.7432 87.2994 76.4296 87.2688 77.0715 C 87.4216 77.883 87.3772 78.9168 87.1299 80.0673 C 87.0465 80.4813 86.9214 80.8982 86.7992 81.315 C 86.7936 81.7097 86.7297 82.0765 86.5852 82.4461 C 86.5907 82.4405 86.5935 82.435 86.5963 82.435 C 86.6213 82.435 86.6241 82.585 86.5768 82.749 C 86.5185 83.0241 86.4685 83.327 86.4268 83.6299 L 86.4212 83.6827 L 86.3545 83.8662 C 86.3184 84.4609 85.8821 84.8694 85.2763 84.8694 C 84.9094 84.8694 84.5482 84.711 84.3092 84.4442 C 84.0646 84.233 83.9396 83.8856 83.9812 83.4966 C 83.984 83.3743 83.9924 83.2576 84.0007 83.1464 C 83.8312 83.5549 83.6644 83.9662 83.5338 84.3858 C 83.3087 85.1195 83.0142 85.5919 82.1805 85.8226 L 81.8998 85.8587 Z " stroke-width="2.7789975476406426"/>
            <path id="ID0.9248233349062502" d="M 85.0011 72.6112 C 85.1512 72.6112 85.2957 72.689 85.3791 72.8586 C 85.7542 73.6506 86.2684 74.4787 86.5185 75.2985 C 86.8019 75.8432 86.9492 76.4601 86.9214 77.0548 C 87.0937 78.0192 86.9909 79.0529 86.7908 79.995 C 86.6991 80.448 86.5602 80.8954 86.4268 81.3428 C 86.4434 81.6902 86.3823 82.0098 86.26 82.3183 C 86.2711 82.4239 86.2739 82.5322 86.2406 82.6517 C 86.1739 82.9574 86.1239 83.2715 86.0794 83.5827 C 86.0683 83.6716 86.0294 83.7355 85.9988 83.8078 L 85.9988 83.8078 L 85.9988 83.8078 C 86.0016 83.8022 86.0044 83.8022 86.0044 83.7995 C 85.996 84.2941 85.6459 84.522 85.2707 84.522 C 85.0123 84.522 84.7455 84.4136 84.5621 84.2135 C 84.3898 84.0635 84.2869 83.8412 84.3203 83.5355 C 84.3258 83.4966 84.3314 83.4604 84.337 83.4187 C 84.337 83.416 84.337 83.4132 84.337 83.4132 C 84.3425 82.9491 84.412 82.56 84.5509 82.1404 C 84.6927 81.5513 84.8677 80.9732 85.0428 80.3785 C 85.0706 80.2813 85.0845 80.184 85.1095 80.0839 C 84.751 80.6203 84.4037 81.1427 84.2258 81.6374 C 83.909 82.5239 83.4755 83.3826 83.1948 84.2802 C 82.9919 84.9361 82.7613 85.2973 82.0804 85.4863 C 82.0193 85.503 81.9554 85.5113 81.8942 85.5113 C 81.3745 85.5113 80.8577 84.95 80.9633 84.4359 C 81.2856 82.8685 82.1805 81.8375 83.0975 80.5869 C 83.4282 80.1423 83.7395 79.6671 84.0313 79.1863 C 83.5338 79.4892 83.0336 79.7866 82.5473 80.1312 C 81.8386 80.6342 81.0661 81.7541 80.1462 81.7875 C 80.1379 81.7875 80.1296 81.7875 80.1184 81.7875 C 79.7683 81.7875 79.546 81.5763 79.5376 81.215 C 79.4959 79.5309 81.5552 78.2776 82.9141 77.7524 C 83.62 77.48 84.5954 77.2132 85.0262 76.5352 C 85.5153 75.7626 85.0456 75.2902 84.7149 74.6343 C 84.3786 73.9674 84.2341 73.5672 84.5621 72.8891 C 84.6565 72.7113 84.8288 72.6112 85.0011 72.6112 M 86.0071 83.7995 L 86.0071 83.7995 L 86.0071 83.7995 M 85.0011 71.9165 C 84.5565 71.9165 84.1424 72.1805 83.9451 72.589 C 83.4782 73.5561 83.7256 74.2036 84.1035 74.9484 C 84.1674 75.0762 84.2369 75.1985 84.3036 75.3152 C 84.5954 75.8293 84.6093 75.9099 84.4481 76.1656 C 84.2063 76.5463 83.5672 76.7797 83.003 76.9826 L 82.6751 77.1049 C 80.7937 77.8302 78.804 79.2947 78.8512 81.2317 C 78.8734 81.9709 79.3987 82.4822 80.1268 82.4822 C 80.4908 82.4711 80.8132 82.3683 81.1078 82.2154 C 80.7465 82.8296 80.4519 83.4938 80.288 84.2969 C 80.199 84.7332 80.3269 85.1973 80.6353 85.5725 C 80.9605 85.9699 81.4329 86.2061 81.8998 86.2061 C 82.0276 86.2061 82.1527 86.1894 82.2749 86.1533 C 83.2504 85.8837 83.6144 85.2918 83.8645 84.4831 C 83.8673 84.4775 83.8673 84.472 83.8701 84.4664 C 83.9368 84.5637 84.0146 84.6526 84.1063 84.7332 C 84.3509 85.0139 84.8094 85.2168 85.2735 85.2168 C 86.0349 85.2168 86.6102 84.6971 86.6908 83.9606 C 86.7213 83.8828 86.7519 83.7883 86.7658 83.68 C 86.8075 83.3854 86.852 83.0908 86.9159 82.8046 C 86.9548 82.674 86.9631 82.5378 86.9603 82.4183 C 87.0715 82.0959 87.1215 81.7736 87.1215 81.4373 C 87.2716 80.9343 87.3855 80.5369 87.4689 80.134 C 87.7162 78.9751 87.7635 77.9219 87.6134 77.0076 C 87.6301 76.3295 87.4606 75.6125 87.1299 74.9789 C 86.9881 74.4731 86.6769 73.8784 86.3767 73.3004 C 86.2461 73.0531 86.1183 72.8058 86.0044 72.5612 C 85.8154 72.1638 85.4291 71.9165 85.0011 71.9165 L 85.0011 71.9165 Z " stroke-width="2.7789975476406426" fill="undefined"/>
          </g>
          <g id="Leg_7_">
            <path id="ID0.47637104569002986" fill="#FFFFFF" d="M 77.1338 62.5874 C 77.1338 62.5874 81.5135 74.9706 84.4926 75.179 C 87.4717 75.3874 85.996 72.0193 85.9015 70.8938 C 85.8126 69.7683 81.1633 60.6588 77.1338 62.5874 Z " stroke-width="2.7789975476406426"/>
            <path id="ID0.5983541067689657" d="M 84.7483 75.5347 C 84.7483 75.5347 84.7483 75.5347 84.7483 75.5347 L 84.4676 75.5236 C 81.3495 75.3068 77.2616 63.9936 76.8059 62.7013 L 76.7003 62.4067 L 76.981 62.2734 C 77.3978 62.0733 77.8397 61.9732 78.2954 61.9732 C 82.3083 61.9732 86.1683 69.8684 86.2489 70.866 C 86.2656 71.0717 86.3323 71.3523 86.4073 71.6775 C 86.6407 72.6946 86.9631 74.0869 86.3073 74.9122 C 85.9793 75.3263 85.4541 75.5347 84.7483 75.5347 L 84.7483 75.5347 Z M 77.5729 62.7847 C 79.3292 67.6702 82.5417 74.6955 84.5176 74.8316 L 84.7483 75.1874 L 84.7483 74.84 C 84.7483 74.84 84.7483 74.84 84.7483 74.84 C 85.2374 74.84 85.5708 74.7205 85.7654 74.4787 C 86.2128 73.9146 85.9349 72.7113 85.732 71.8303 C 85.6486 71.4691 85.5764 71.1495 85.5597 70.9216 C 85.4819 69.9823 81.0966 61.6147 77.5729 62.7847 L 77.5729 62.7847 Z " stroke-width="2.7789975476406426" fill="undefined"/>
          </g>
        </g>
        <g id="Leg_4_">
          <g id="Foot_2_">
            <path id="ID0.013497544452548027" fill="#FFD18F" d="M 97.4927 85.2001 C 96.6535 85.0111 96.3283 84.5331 96.0754 83.8245 C 95.9254 83.4104 95.7392 83.0075 95.5502 82.6017 C 95.5613 82.6879 95.5669 82.7768 95.5752 82.8685 C 95.6503 83.3437 95.5391 83.6966 95.2779 83.9523 C 95.0639 84.2163 94.6915 84.3914 94.3024 84.3914 C 93.7161 84.3914 93.2937 84.0079 93.2353 83.4271 L 93.1547 83.2131 C 93.0991 82.9046 93.038 82.6017 92.9602 82.3071 C 92.9046 82.1487 92.9074 81.9848 92.9157 81.8625 C 92.7796 81.6652 92.7017 81.3039 92.7017 80.9204 C 92.5322 80.4952 92.3905 80.0867 92.2877 79.6727 C 91.9903 78.536 91.8986 77.505 92.0153 76.613 C 91.957 76.0461 92.082 75.3541 92.3683 74.7399 C 92.4961 74.2147 92.7712 73.62 93.0436 73.0336 C 93.1631 72.7752 93.2853 72.5167 93.3909 72.2638 C 93.5132 71.9693 93.7856 71.7859 94.094 71.7859 C 94.3969 71.7859 94.6776 71.9554 94.8249 72.2305 C 95.264 73.0392 95.0861 73.5672 94.7638 74.2842 L 94.5859 74.6454 C 94.3136 75.1762 94.2052 75.4319 94.5053 75.8571 C 94.8332 76.324 95.5447 76.5491 96.1755 76.7436 L 96.4951 76.8464 C 98.2125 77.4217 100.2273 78.7167 100.2634 80.473 C 100.2717 81.0371 99.8993 81.4179 99.338 81.429 C 98.5626 81.429 97.9151 80.8648 97.3427 80.3674 C 97.112 80.1645 96.8869 79.9672 96.6702 79.8283 C 96.6396 79.8088 96.609 79.7894 96.5784 79.7699 C 96.584 79.7783 96.9703 80.2479 96.9703 80.2479 C 97.8151 81.2761 98.6127 82.2488 98.9739 83.6772 C 99.0601 84.0162 98.9684 84.3886 98.7238 84.6999 C 98.4682 85.0278 98.093 85.2251 97.7234 85.2251 L 97.4927 85.2001 Z " stroke-width="2.7789975476406426"/>
            <path id="ID0.03094875207170844" d="M 94.0968 72.1332 C 94.2608 72.1332 94.4303 72.2249 94.5192 72.3945 C 94.8777 73.0559 94.7526 73.4616 94.447 74.1424 C 94.1468 74.815 93.6938 75.3068 94.2191 76.0572 C 94.6776 76.713 95.6669 76.9381 96.3839 77.1771 C 97.7679 77.6412 99.8771 78.7973 99.916 80.4813 C 99.9216 80.8509 99.702 81.076 99.3324 81.0816 C 99.3297 81.0816 99.3241 81.0816 99.3213 81.0816 C 98.407 81.0816 97.59 80.0034 96.8619 79.5365 C 96.3617 79.2113 95.8476 78.939 95.339 78.6583 C 95.653 79.1252 95.9837 79.5837 96.3339 80.0145 C 97.3065 81.2233 98.2486 82.2127 98.6405 83.7633 C 98.7711 84.283 98.257 84.8777 97.7262 84.8777 C 97.6734 84.8777 97.6206 84.8722 97.5705 84.861 C 96.8814 84.7054 96.634 84.3553 96.4034 83.7078 C 96.081 82.824 95.6114 81.9848 95.2556 81.1122 C 95.0556 80.6259 94.6832 80.1201 94.3024 79.6004 C 94.333 79.7004 94.3497 79.7977 94.383 79.8922 C 94.5859 80.4786 94.786 81.051 94.9527 81.6318 C 95.1111 82.0459 95.1973 82.4322 95.2251 82.8907 C 95.2251 82.8907 95.2251 82.8963 95.2251 82.8991 C 95.2334 82.938 95.2362 82.9741 95.2473 83.0158 C 95.2945 83.3187 95.2001 83.5438 95.0361 83.705 C 94.8555 83.9273 94.572 84.0468 94.3024 84.0468 C 93.9412 84.0468 93.6077 83.8328 93.5771 83.3548 C 93.5771 83.3576 93.5827 83.3604 93.5855 83.3659 C 93.5493 83.2965 93.5132 83.2326 93.4938 83.1464 C 93.4382 82.8352 93.3743 82.5239 93.2937 82.221 C 93.2548 82.1043 93.252 81.9931 93.2603 81.8903 C 93.1269 81.5902 93.0491 81.2734 93.0519 80.926 C 92.8991 80.4841 92.7406 80.0423 92.6267 79.5948 C 92.3849 78.6639 92.2349 77.6356 92.3627 76.663 C 92.3099 76.0739 92.4266 75.4486 92.6851 74.89 C 92.8991 74.0591 93.377 73.2087 93.7133 72.4 C 93.7883 72.2166 93.9412 72.1332 94.0968 72.1332 M 94.0968 71.4385 L 94.0968 71.4385 C 93.6438 71.4385 93.252 71.7025 93.0713 72.1305 C 92.9657 72.3806 92.849 72.6335 92.7295 72.8891 C 92.4544 73.4783 92.171 74.0869 92.0098 74.7149 C 91.7513 75.2429 91.6152 75.9627 91.6624 76.6435 C 91.554 77.5634 91.6513 78.6111 91.9514 79.7671 C 92.057 80.184 92.1987 80.6008 92.346 81.0177 L 92.3571 81.0483 C 92.3683 81.3817 92.435 81.7013 92.56 82.0237 C 92.5628 82.1432 92.5795 82.2905 92.6323 82.4433 C 92.6962 82.6851 92.7545 82.9769 92.8073 83.2687 C 92.8296 83.3854 92.8657 83.4771 92.8963 83.5494 C 93.0074 84.258 93.5632 84.7415 94.2997 84.7415 C 94.7888 84.7415 95.264 84.5192 95.5697 84.1468 C 95.6336 84.0857 95.6919 84.0162 95.742 83.9356 C 95.7447 83.9412 95.7447 83.944 95.7475 83.9495 C 96.031 84.7415 96.4228 85.3168 97.4149 85.5419 C 97.5122 85.5641 97.6178 85.578 97.7234 85.578 C 98.1986 85.578 98.6738 85.3335 98.9962 84.9194 C 99.3046 84.522 99.4186 84.0412 99.3102 83.5994 C 99.1101 82.8074 98.7877 82.1571 98.4015 81.5652 C 98.6849 81.6958 98.9878 81.7819 99.3158 81.7819 C 100.0967 81.768 100.6163 81.2317 100.6052 80.4758 C 100.5635 78.536 98.5098 77.1632 96.6007 76.5213 L 96.2728 76.4157 C 95.6947 76.235 95.0444 76.0322 94.7832 75.6626 C 94.6192 75.4097 94.6276 75.3291 94.8971 74.8039 C 94.9583 74.6844 95.0222 74.5565 95.0806 74.4259 C 95.4224 73.6645 95.6419 73.0086 95.1306 72.061 C 94.9249 71.6775 94.5275 71.4385 94.0968 71.4385 L 94.0968 71.4385 Z " stroke-width="2.7789975476406426" fill="undefined"/>
          </g>
          <g id="Leg_5_">
            <path id="ID0.5497956392355263" fill="#FFFFFF" d="M 101.4834 61.7648 C 101.4834 61.7648 97.6678 74.3314 94.6998 74.676 C 91.7319 75.0206 93.0575 71.5886 93.0964 70.4603 C 93.138 69.3292 97.3705 60.0196 101.4834 61.7648 Z " stroke-width="2.7789975476406426"/>
            <path id="ID0.005922409705817699" d="M 94.308 75.0456 C 93.6661 75.0456 93.1742 74.8483 92.8546 74.4648 C 92.1904 73.6645 92.4461 72.2777 92.6295 71.2662 C 92.6906 70.9383 92.7462 70.652 92.7518 70.4464 C 92.7907 69.407 96.3589 61.2007 100.4357 61.2007 C 100.8414 61.2007 101.2416 61.284 101.6223 61.4452 L 101.9113 61.5675 L 101.8196 61.8648 C 101.4222 63.1737 97.8484 74.6621 94.7415 75.0178 C 94.5859 75.0373 94.4414 75.0456 94.308 75.0456 L 94.308 75.0456 Z M 100.4329 61.8954 C 96.9175 61.8954 93.4771 69.5627 93.4437 70.4714 C 93.4354 70.7021 93.3798 71.0244 93.3103 71.3912 C 93.1492 72.2694 92.9296 73.4727 93.3854 74.0202 C 93.6188 74.3009 94.0329 74.4009 94.6582 74.3314 C 96.6257 74.1035 99.5186 66.9421 101.0526 61.9816 C 100.8498 61.9232 100.6413 61.8954 100.4329 61.8954 L 100.4329 61.8954 Z " stroke-width="2.7789975476406426" fill="undefined"/>
          </g>
        </g>
        <g id="Body_1_">
          <path id="ID0.31340072909370065" fill="#FFFFFF" d="M 89.9283 70.3769 C 84.8483 70.3769 80.9605 68.6234 78.3732 65.1663 C 72.6485 57.5185 74.9717 43.5207 76.2362 39.2216 C 76.6725 37.7376 77.3172 35.8229 78.0453 33.6552 C 80.2018 27.2385 83.1587 18.4541 83.6756 11.9902 C 84.2564 4.7064 88.1525 3.0835 89.567 2.7305 C 89.3725 2.2248 89.4281 1.7107 89.5754 1.3466 C 89.7532 0.9075 90.0784 0.613 90.4396 0.5574 L 90.5869 0.5574 L 90.9593 0.7352 C 91.126 0.9047 91.2233 1.1965 91.2817 1.505 C 91.4095 1.3911 91.5596 1.316 91.7235 1.316 L 91.9236 1.316 L 92.2265 1.6356 C 92.4572 2.033 92.4016 2.4638 92.3071 2.7667 C 96.5701 4.2534 96.723 9.239 96.8341 12.9045 L 96.8758 14.0828 C 97.0203 17.2591 100.08 33.1217 101.2305 39.0937 L 101.6779 41.4253 C 102.7172 46.9138 104.4541 59.8862 99.0128 66.453 C 96.8591 69.0569 93.8022 70.3769 89.9283 70.3769 L 89.9283 70.3769 Z " stroke-width="2.7789975476406426"/>
          <path id="ID0.9079328528605402" d="M 90.5313 0.8992 C 91.0538 0.8992 91.0149 2.6388 91.0149 2.6388 C 91.0844 2.3609 91.4317 1.6662 91.7235 1.6662 C 91.7958 1.6662 91.8653 1.7107 91.9264 1.8135 C 92.2321 2.3332 91.8403 2.9862 91.8403 2.9862 C 96.7035 4.3757 96.3561 10.2811 96.5312 14.1022 C 96.7063 17.9233 100.9915 39.5801 101.3389 41.492 C 101.6862 43.404 107.2331 70.0295 89.9311 70.0295 C 70.9227 70.0295 74.8356 45.227 76.5724 39.3216 C 78.3093 33.4162 83.331 20.7023 84.0257 12.018 C 84.7205 3.3336 90.1062 2.9862 90.1062 2.9862 C 89.4559 2.1192 89.9339 0.9881 90.498 0.902 C 90.5091 0.8992 90.5202 0.8992 90.5313 0.8992 M 90.5313 0.2044 L 90.4785 0.2044 L 90.3896 0.2128 C 89.9061 0.2878 89.4837 0.663 89.2586 1.2132 C 89.0946 1.6162 89.0585 2.0553 89.1391 2.4749 C 87.4272 2.989 83.8979 4.9009 83.3337 11.9596 C 82.8196 18.3819 79.8711 27.144 77.7202 33.5413 C 76.9837 35.7339 76.3473 37.6292 75.9083 39.1215 C 74.6299 43.4623 72.29 57.6102 78.1009 65.3719 C 80.7576 68.9207 84.7371 70.7215 89.9339 70.7215 C 93.9162 70.7215 97.062 69.3598 99.2852 66.6753 C 104.8209 59.9946 103.073 46.8972 102.0642 41.5782 L 102.0253 41.3642 C 101.9669 41.0529 101.8085 40.222 101.5779 39.027 C 100.4274 33.0633 97.3705 17.2175 97.2287 14.0689 C 97.2121 13.6965 97.2009 13.3019 97.187 12.8961 C 97.0731 9.2084 96.923 4.2284 92.7212 2.5499 C 92.7712 2.2248 92.7518 1.8357 92.5322 1.4633 C 92.3516 1.1521 92.057 0.9714 91.7291 0.9714 C 91.6541 0.9714 91.579 0.9798 91.5096 0.9992 C 91.4373 0.8019 91.34 0.6268 91.215 0.4962 C 91.026 0.3073 90.7842 0.2044 90.5313 0.2044 L 90.5313 0.2044 Z " stroke-width="2.7789975476406426" fill="undefined"/>
        </g>
        <g id="Olive_Branch_1_">
          <path id="Highlight_19_" fill="#597A54" d="M 134.3561 32.3463 C 134.3561 32.3463 131.9301 22.2363 124.788 23.5397 C 124.2962 22.9255 123.8043 22.3086 123.2846 21.7528 C 128.1506 23.0061 133.3863 17.8511 133.3863 17.8511 C 126.7389 13.2018 121.6283 17.3925 120.1499 18.8654 C 118.338 17.4509 116.3871 16.3504 114.364 15.4611 C 118.8855 14.5996 122.0035 8.9499 122.0035 8.9499 C 114.1361 6.3099 110.4262 12.1013 109.5341 13.7937 C 106.9358 13.1629 104.2374 12.8767 101.4973 12.8628 C 105.1266 10.9258 105.0433 4.837 105.0433 4.837 C 98.7349 6.0792 98.3542 11.3204 98.3876 12.935 C 87.9886 13.652 77.2644 18.1206 69.1386 23.7537 C 69.0803 23.7954 69.147 23.8732 69.2053 23.8398 C 76.3251 19.4101 84.8983 15.8363 93.4548 14.5524 C 93.5577 14.8331 95.5891 20.1271 101.5667 18.5236 C 101.5667 18.5236 99.9827 15.1832 97.3871 14.1272 C 99.6826 13.9827 101.953 14.0411 104.1846 14.294 C 103.701 16.6505 103.2508 22.6838 110.2789 25.7629 C 110.2789 25.7629 112.0019 18.4652 108.2586 15.0026 C 110.5512 15.5612 112.7689 16.3949 114.8809 17.5093 C 113.8972 19.6936 112.113 25.4961 118.3102 30.0509 C 118.3102 30.0509 120.9252 24.6429 119.3996 20.4967 C 120.9475 21.7528 122.4009 23.2229 123.7654 24.9042 C 124.4101 27.2552 126.7445 32.7632 134.3561 32.3463 Z " stroke-width="2.7789975476406426"/>
          <path id="Highlight_18_" fill="#7CA075" d="M 100.4412 12.6682 C 100.4412 12.6682 103.6677 9.4807 104.3207 6.1737 C 104.3207 6.1709 105.16 9.6725 100.4412 12.6682 Z " stroke-width="2.7789975476406426"/>
          <path id="Highlight_17_" fill="#7CA075" d="M 113.9611 14.658 C 113.9611 14.658 118.1379 12.8878 119.9665 10.0532 C 119.9665 10.0532 119.4552 13.6187 113.9611 14.658 Z " stroke-width="2.7789975476406426"/>
          <path id="Highlight_16_" fill="#7CA075" d="M 123.3402 21.436 C 123.3402 21.436 127.8561 20.9997 130.4489 18.8432 C 130.4489 18.846 128.8898 22.0918 123.3402 21.436 Z " stroke-width="2.7789975476406426"/>
          <path id="Highlight_15_" fill="#7CA075" d="M 126.7278 24.0899 C 126.7278 24.0899 130.5267 26.5688 131.8245 29.6813 C 131.8245 29.6785 131.9523 26.0797 126.7278 24.0899 Z " stroke-width="2.7789975476406426"/>
          <path id="Highlight_14_" fill="#7CA075" d="M 118.0351 20.2327 C 118.0351 20.2327 119.4774 24.5346 118.5659 27.7804 C 118.5659 27.7804 120.8975 25.032 118.0351 20.2327 Z " stroke-width="2.7789975476406426"/>
          <path id="Highlight_13_" fill="#7CA075" d="M 107.7778 15.0665 C 107.7778 15.0665 109.9121 19.0711 109.5536 22.4225 C 109.5536 22.4225 111.3961 19.3267 107.7778 15.0665 Z " stroke-width="2.7789975476406426"/>
          <path id="Highlight_12_" fill="#7CA075" d="M 100.3607 17.7538 C 100.3607 17.7538 98.8378 15.35 96.898 14.5079 C 96.9008 14.5052 99.1574 14.4607 100.3607 17.7538 Z " stroke-width="2.7789975476406426"/>
          <path id="Outline_3_" d="M 105.0405 4.837 C 105.0405 4.837 105.1239 10.9258 101.4945 12.8628 C 104.2346 12.8794 106.933 13.1629 109.5314 13.7937 C 110.2317 12.4654 112.6661 8.6109 117.4876 8.2913 C 118.8104 8.2052 120.3111 8.383 122.0007 8.9499 C 122.0007 8.9499 118.8827 14.6024 114.3612 15.4611 C 116.3871 16.3504 118.3352 17.4509 120.1471 18.8654 C 121.0725 17.9428 123.4208 15.9558 126.6833 15.739 C 128.6258 15.6112 130.8991 16.1142 133.3835 17.8511 C 133.3835 17.8511 129.5179 21.6583 125.3411 21.9334 C 124.6602 21.9807 123.9655 21.9306 123.2818 21.7556 C 123.8043 22.3086 124.2934 22.9283 124.7853 23.5425 C 125.0632 23.4924 125.3355 23.4591 125.5967 23.4396 C 132.1135 23.0089 134.3534 32.3491 134.3534 32.3491 C 126.7417 32.7632 124.4073 27.258 123.7598 24.9069 C 122.3953 23.2257 120.9391 21.7556 119.394 20.4995 C 120.9225 24.6457 118.3046 30.0537 118.3046 30.0537 C 112.1075 25.4989 113.8888 19.6936 114.8754 17.512 C 112.7633 16.3977 110.5457 15.564 108.253 15.0054 C 111.9935 18.468 110.2733 25.7657 110.2733 25.7657 C 103.2453 22.6865 103.6955 16.6533 104.179 14.2967 C 101.9475 14.0438 99.677 13.9855 97.3816 14.13 C 99.9772 15.186 101.5612 18.5264 101.5612 18.5264 C 100.9637 18.6876 100.4051 18.7765 99.8855 18.8126 C 95.1945 19.1239 93.541 14.8081 93.4493 14.5552 C 84.8928 15.8391 76.3196 19.4157 69.1998 23.8426 C 69.1914 23.8482 69.1831 23.8509 69.1747 23.8509 C 69.1247 23.8537 69.083 23.7926 69.1331 23.7564 C 77.2589 18.1234 87.983 13.6548 98.382 12.9378 C 98.3542 11.3204 98.7349 6.0765 105.0405 4.837 M 105.7269 3.995 L 104.9099 4.1562 C 98.785 5.3623 97.8151 10.081 97.7039 12.2903 C 88.1275 13.0879 77.609 17.0368 68.744 23.1812 C 68.744 23.1812 68.2799 23.5564 67.5379 24.3623 C 66.4819 25.5072 66.5041 25.8268 66.5041 25.8268 C 66.5041 25.8268 67.6407 25.3155 68.0159 25.1459 C 68.3605 24.9903 69.0608 24.7013 69.3971 24.5262 C 69.6833 24.3762 70.5059 23.8565 70.5059 23.8565 C 77.9814 19.2072 85.3541 16.5561 93.038 15.3138 C 93.6772 16.6061 95.6892 19.7769 99.9383 19.4962 C 100.5191 19.4573 101.1277 19.3545 101.7474 19.1878 L 102.5533 18.971 L 102.1976 18.2179 C 102.1448 18.1067 101.2194 16.192 99.6048 14.7358 C 100.8664 14.7303 102.1253 14.7858 103.3731 14.8998 C 102.9562 17.8205 103.1841 23.4063 110.001 26.3909 L 110.7624 26.7272 L 110.9542 25.9157 C 111.0181 25.6462 112.2798 20.1299 110.101 16.2393 C 111.4377 16.6728 112.7383 17.2036 113.9916 17.8261 C 112.9273 20.5523 111.8268 26.138 117.8989 30.6039 L 118.5687 31.0986 L 118.9355 30.3454 C 119.03 30.1509 120.8891 26.2436 120.5251 22.4059 C 121.431 23.2646 122.3064 24.2066 123.1345 25.2265 C 123.8877 27.8332 126.4416 33.469 134.395 33.0355 L 135.2287 32.9911 L 135.0342 32.1796 C 134.9369 31.7739 132.5748 22.2752 125.5551 22.7421 C 125.3994 22.7504 125.2438 22.7671 125.0798 22.7894 C 125.0409 22.7393 125.002 22.6893 124.9603 22.6393 C 125.1076 22.6393 125.2494 22.6337 125.3911 22.6226 C 129.7736 22.3336 133.7059 18.5069 133.8726 18.343 L 134.4673 17.7566 L 133.7837 17.2786 C 131.4354 15.6362 129.0344 14.8831 126.6416 15.0415 C 123.5792 15.2444 121.2643 16.9118 120.1027 17.9511 C 118.916 17.0702 117.6432 16.2837 116.2454 15.5779 C 120.0471 13.8604 122.4954 9.4919 122.6121 9.2806 L 123.0178 8.5498 L 122.2286 8.2858 C 120.5612 7.7272 118.9522 7.4938 117.4487 7.591 C 112.7522 7.9023 110.1538 11.3593 109.184 12.9906 C 107.361 12.5821 105.4212 12.3209 103.3981 12.2125 C 105.7686 9.5558 105.7408 5.051 105.7352 4.8259 L 105.7269 3.995 L 105.7269 3.995 Z " stroke-width="2.7789975476406426" fill="undefined"/>
        </g>
        <g id="Beak_1_">
          <path id="ID0.9666426465846598" fill="#FFD18F" d="M 88.5972 11.162 C 88.5972 11.162 91.0288 8.8443 92.7657 11.162 C 92.7657 11.162 90.7981 15.8363 90.2173 16.8006 C 90.2201 16.8006 89.2919 15.7918 88.5972 11.162 Z " stroke-width="2.7789975476406426"/>
          <path id="ID0.780627575237304" d="M 90.2785 17.3759 L 89.9644 17.034 C 89.8616 16.9229 88.9445 15.8168 88.2553 11.212 L 88.2276 11.0342 L 88.3582 10.9119 C 88.4082 10.8647 89.5559 9.7864 90.9148 9.7864 C 91.7458 9.7864 92.4627 10.181 93.0463 10.9536 L 93.1658 11.1148 L 93.088 11.2982 C 93.0074 11.4899 91.1038 16.0058 90.5174 16.9812 L 90.2785 17.3759 L 90.2785 17.3759 Z M 88.9695 11.2982 C 89.3947 14.0411 89.8977 15.4389 90.2034 16.0864 C 90.8537 14.7664 92.0459 11.9707 92.3655 11.2176 C 91.3011 9.9643 89.4753 10.8869 88.9695 11.2982 L 88.9695 11.2982 Z " stroke-width="2.7789975476406426" fill="undefined"/>
        </g>
        <g id="Eye_6_">
          <path id="Eye_7_" d="M 86.7325 6.8129 C 87.027 6.8129 87.2938 6.9852 87.4856 7.2659 C 87.6801 7.5466 87.7996 7.9328 87.7996 8.3608 C 87.7996 8.7888 87.6801 9.175 87.4856 9.4557 C 87.2938 9.7364 87.027 9.9087 86.7325 9.9087 C 86.4379 9.9087 86.1711 9.7364 85.9793 9.4557 C 85.7848 9.175 85.6653 8.7888 85.6653 8.3608 C 85.6653 7.9328 85.7848 7.5466 85.9793 7.2659 C 86.1711 6.9852 86.4379 6.8129 86.7325 6.8129 Z " stroke-width="2.7789975476406426" fill="undefined"/>
          <path id="Highlight_11_" fill="#FFFFFF" d="M 86.4685 7.466 C 86.5935 7.466 86.7047 7.5188 86.788 7.6021 C 86.8686 7.6855 86.9186 7.8022 86.9186 7.9301 C 86.9186 8.0579 86.8686 8.1746 86.788 8.258 C 86.7047 8.3413 86.5935 8.3941 86.4685 8.3941 C 86.3434 8.3941 86.2322 8.3413 86.1489 8.258 C 86.0683 8.1746 86.0183 8.0579 86.0183 7.9301 C 86.0183 7.8022 86.0683 7.6855 86.1489 7.6021 C 86.2322 7.5188 86.3434 7.466 86.4685 7.466 Z " stroke-width="2.7789975476406426"/>
        </g>
        <g id="Eye_4_">
          <path id="Eye_5_" d="M 94.4303 6.8129 C 94.7249 6.8129 94.9916 6.9852 95.1834 7.2659 C 95.3779 7.5466 95.4974 7.9328 95.4974 8.3608 C 95.4974 8.7888 95.3779 9.175 95.1834 9.4557 C 94.9916 9.7364 94.7249 9.9087 94.4303 9.9087 C 94.1357 9.9087 93.8689 9.7364 93.6772 9.4557 C 93.4826 9.175 93.3631 8.7888 93.3631 8.3608 C 93.3631 7.9328 93.4826 7.5466 93.6772 7.2659 C 93.8689 6.9852 94.1357 6.8129 94.4303 6.8129 Z " stroke-width="2.7789975476406426" fill="undefined"/>
          <path id="Highlight_10_" fill="#FFFFFF" d="M 94.1663 7.466 C 94.2913 7.466 94.4025 7.5188 94.4859 7.6021 C 94.5664 7.6855 94.6165 7.8022 94.6165 7.9301 C 94.6165 8.0579 94.5664 8.1746 94.4859 8.258 C 94.4025 8.3413 94.2913 8.3941 94.1663 8.3941 C 94.0412 8.3941 93.9301 8.3413 93.8467 8.258 C 93.7661 8.1746 93.7161 8.0579 93.7161 7.9301 C 93.7161 7.8022 93.7661 7.6855 93.8467 7.6021 C 93.9301 7.5188 94.0412 7.466 94.1663 7.466 Z " stroke-width="2.7789975476406426"/>
        </g>
      </g>
    </g>
  </g>
</svg>