<svg xmlns="http://www.w3.org/2000/svg" xmlns:xlink="http://www.w3.org/1999/xlink" width="126.54509735107422" height="135.52285766601562" viewBox="-0.41081803292036057 -0.14747333526611328 126.54509735107422 135.52285766601562" version="1.1" xml:space="preserve">
  <!-- Generator: Sketch 50.2 (55047) - http://www.bohemiancoding.com/sketch -->
  <defs/>
  <g>
    <title>dinosaur2-a [animals,dinosaur,triceratops,alex eben meyer]</title>
    <desc>Created with Sketch.</desc>
    <g id="Page-1" stroke="none" fill-rule="evenodd">
      <g id="dinosaur2-a-[animals,dinosaur,triceratops,alex-eben-meyer]" fill-rule="nonzero">
        <path d="M104.222222,99.4499871 C103.697222,96.3743328 101.702222,92.7234608 98.7116667,91.2325902 C94.675,89.2095454 81.1416667,87.0730222 74.1027778,87.0808055 L74.41,100.823466 C81.4838889,99.9978136 92.6294444,98.4130299 93.4305556,103.562599 C93.4111111,108.172167 89.4055556,110.754777 89.4055556,110.754777 C89.4055556,110.754777 93.3488889,116.201738 95.445,118.35 C100.675556,114.746084 105.361667,105.996513 104.222222,99.4499871 Z" id="Shape" fill="#BE0A3C" stroke-width="1"/>
        <path d="M64.5944444,133.646087 L64.4194444,134.307391 C60.8844444,134.107826 55.0472222,134.01 52.0955556,134.064783 C49.9294444,134.103913 48.9261111,130.37087 48.9261111,130.37087 L39.76,105.037826 L54.0555556,105.546522 C54.0555556,105.546522 61.32,125.874783 64.5944444,133.646087 Z" id="Shape" fill="#BE0A3C" stroke-width="1"/>
        <path d="M0.882777778,132.296087 C-0.198333333,130.91087 0.159444444,127.115217 0.105,125.428696 C0.0445020083,123.095203 0.157595427,120.760426 0.443333333,118.443913 C0.995555556,113.783478 1.87444444,109.13087 2.77666667,104.525217 C3.675,99.8569565 5.11,95.2630435 6.61888889,90.7630435 C7.33833333,88.6343478 8.03444444,86.49 8.78888889,84.3691304 C9.17777778,83.2304348 13.4555556,73.2834783 14.6222222,72.8295652 C14.0155556,77.8265217 20.2727778,90.8295652 20.3155556,93.2008696 C20.3505556,95.126087 11.6433333,112.335652 10.7216667,113.94 C9.48111111,116.131304 8.51666667,118.451739 7.33444444,120.670435 C5.30833333,124.505217 3.75277778,129.00913 0.882777778,132.296087 Z" id="Shape" fill="#BE0A3C" stroke-width="1"/>
        <path d="M90.16,85.8952174 C91.0583333,83.4573913 92.2911111,79.2704348 92.2911111,79.2704348 C92.2911111,79.2704348 96.11,68.756087 87.5,61.4347826 C83.7588889,58.2534783 76.6461111,51.1826087 68.4444444,50.4782609 C68.4444444,50.4782609 52.6905556,50.4782609 47.8333333,50.0869565 C38.8888889,49.3904348 34.7472222,52.2078261 34.7472222,52.2078261 C32.4138889,52.5991304 27.3583333,56.2930435 25.6316667,57.8073913 C23.7905449,59.4395312 22.0587974,61.1924926 20.4477778,63.0547826 C16.8583333,67.1947826 13.4477778,71.6908696 12.1761111,77.1417391 C10.9705556,82.263913 10.9472222,87.8165217 11.3983333,93.0247826 C11.6588889,95.9869565 11.8455556,98.9921739 12.3433333,101.923043 C12.5805556,103.327826 17.7022222,117.723913 19.5261111,122.063478 C20.3622222,124.047391 21.4044444,125.827826 22.3688889,127.737391 C23.0494444,129.083478 26.4716667,134.260435 27.3311111,134.483478 C28.7583333,134.851304 37.7144444,135.211304 39.7755556,134.311304 C38.745,126.234783 34.405,118.623913 33.6972222,110.48087 C43.4777778,110.633478 59.5311111,110.089565 67.9855556,110.089565 C76.44,110.089565 83.1522222,100.905652 85.3961111,96.0456522 C85.2483333,95.8265217 88.9077778,89.3073913 90.16,85.8952174 Z" id="Shape" fill="#F01446" stroke-width="1"/>
        <path d="M75.7361111,102.130435 C74.06,102.345652 63.9138889,104.016522 62.1988889,104.294348 C64.3144444,107.616522 71.3144444,123.108261 74.8144444,130.022609 C75.7438889,131.857826 77.8866667,134.326957 77.8866667,134.326957 C77.8866667,134.326957 86.9244444,134.432609 90.51,134.111739 C90.3466667,133.79087 77.2955556,103.613478 75.7361111,102.130435 Z" id="Shape" fill="#F01446" stroke-width="1"/>
        <g id="Group">
          <path d="M 62.7706 10.5261 C 60.13 8.28 58.1389 -0.223 63.3617 0.5948 C 66.0294 2.2578 70.2178 5.3648 71.6878 8.233 C 69.2222 8.8983 65.3022 10.0565 62.7706 10.5261 Z " id="Shape" fill="#BE0A3C" stroke-width="1"/>
          <path d="M 42.9839 22.0304 C 41.6617 23.6974 40.7167 25.5522 39.3789 27.2348 C 37.6483 25.513 31.4806 20.6491 34.2689 17.9296 C 36.6878 15.57 41.5489 20.0543 42.9839 22.0304 Z " id="Shape" fill="#A0640A" stroke-width="1"/>
          <path d="M 56.175 13.3043 C 54.4872 14.4783 52.4922 16.5913 50.7306 17.6478 C 48.6111 16.1687 44.3333 8.2174 48.2222 7.1452 C 50.5556 6.5035 55.8328 11.0387 56.175 13.3043 Z " id="Shape" fill="#BE0A3C" stroke-width="1"/>
          <path d="M 85.8278 8.7574 C 83.1833 8.3661 79.6406 8.6439 77.0039 8.3661 C 74.7522 6.4448 73.8928 -0.9078 78.1317 0.54 C 80.7061 1.4283 84.7156 6.4096 85.8278 8.7574 Z " id="Shape" fill="#BE0A3C" stroke-width="1"/>
          <path d="M 32.83 53.5852 C 30.6911 52.7009 21.1633 46.5143 26.005 43.9513 C 27.3661 43.2313 32.6783 45.4461 33.2111 46.9487 C 33.5067 47.79 32.83 52.3878 32.83 53.5852 Z " id="Shape" fill="#A0640A" stroke-width="1"/>
          <path d="M 33.6389 39.7409 C 31.745 38.3048 26.2189 34.2391 27.1911 31.3278 C 28.3306 27.8961 34.58 31.5157 36.0111 32.8657 C 34.8857 35.0262 34.0862 37.3434 33.6389 39.7409 Z " id="Shape" fill="#BE0A3C" stroke-width="1"/>
          <path d="M 111.8094 37.487 C 110.2539 34.8926 108.2822 31.2535 106.7539 28.7257 C 108.2394 26.5422 114.8039 14.0204 115.9122 11.5787 C 118.5528 10.7335 117.0361 20.97 116.8689 22.05 C 116.305 25.7674 114.0611 34.3526 111.8094 37.487 Z " id="Shape" fill="#E6781E" stroke-width="1"/>
          <path d="M 123.5617 64.6748 C 122.5233 60.1552 119.3344 51.3704 119.3344 51.3704 L 115.5622 48.8426 L 90.3894 48.5217 L 92.2911 79.2822 C 92.2911 79.2822 103.3861 79.2509 108.535 79.2822 C 111.5761 79.3057 114.6133 79.4896 117.6428 79.6735 C 119.9528 79.8183 123.2156 80.1235 125.4439 79.2822 C 126.1828 74.5983 124.6039 69.2296 123.5617 64.6748 Z " id="Shape" fill="#C8C8BE" stroke-width="1"/>
          <path d="M 107.4422 24.7891 C 105.294 21.7382 102.8545 18.9061 100.1583 16.333 C 97.3187 13.6341 94.0893 11.3834 90.58 9.6574 C 89.2817 8.9937 87.9004 8.5094 86.4733 8.2174 C 85.225 7.9983 82.46 7.1609 81.2039 7.5913 C 77.1244 6.7187 72.5667 7.38 68.4717 7.9043 C 65.6586 8.2428 62.8968 8.9234 60.2467 9.9313 C 58.7456 10.5104 54.3239 12.7683 53.9156 12.9952 C 49.035 15.707 40.7906 23.3726 40.2811 23.9517 C 36.5556 28.1739 33.2072 34.0435 32.7678 39.33 C 31.6594 43.9772 31.4927 48.8014 32.2778 53.5148 C 32.2778 57.1304 34.58 60.7187 36.9172 63.2974 C 39.4022 66.013 42.6378 69.2296 46.6394 69.0691 C 50.9989 68.893 50.1394 64.7257 52.0061 62.1117 C 53.7328 59.6974 57.19 57.6548 59.8811 59.8148 C 65.2906 64.1583 62.6033 75.3926 69.8989 78.1513 C 73.3056 79.4387 77.7272 78.9887 81.3089 79.11 C 84.8906 79.2313 92.2911 79.2861 92.2911 79.2861 C 92.2911 79.2861 96.1022 67.5783 98.6883 62.0687 C 100.5044 58.2104 102.7833 55.2757 105.9917 53.3387 C 107.9547 52.2579 110.1002 51.5533 112.3189 51.2609 C 114.6485 51.0315 116.9962 51.063 119.3189 51.3548 C 119.3189 51.3548 116.3906 41.9635 112.8867 34.1374 C 111.0589 29.9974 107.8272 25.3291 107.4422 24.7891 Z " id="Shape" fill="#F04650" stroke-width="1"/>
          <path d="M 88.9428 20.9661 C 88.9428 20.9661 92.8006 27.1252 96.2694 31.8209 C 97.1911 33.0691 99.4233 35.7339 101.64 36.6652 C 104.5606 37.9096 107.4228 37.0565 106.8706 34.7087 C 106.2094 31.9226 100.7222 25.0435 97.3 20.9465 C 96.845 20.4065 95.7444 18.9235 94.465 18.2348 C 91.2567 16.5052 86.9322 16.0826 88.9428 20.9661 Z " id="Shape" fill="#F01446" stroke-width="1"/>
          <path d="M 116.5811 48.4787 C 115.8057 48.9775 114.9257 49.2883 114.0106 49.3865 C 112.3728 49.5466 110.72 49.4262 109.1222 49.0304 C 107.2711 48.3809 107.4306 44.7261 108.2706 43.2704 C 109.4606 41.2239 111.7939 39.4904 113.3572 37.7061 C 114.7883 36.0704 116.4411 33.4291 118.3233 32.2943 C 119.315 35.1078 119.1011 38.2461 118.6578 41.1417 C 118.3 43.4661 117.8022 47.5278 116.5811 48.4787 Z " id="Shape" fill="#FFC800" stroke-width="1"/>
          <path d="M 78.0383 42.5309 C 78.0383 42.5309 66.6322 42.887 66.9006 40.453 C 67.27 37.08 69.1522 33.2648 70.4006 30.1539 C 71.8083 26.6322 77.6728 11.61 79.6639 11.3713 C 80.8383 12.1304 78.0383 42.5309 78.0383 42.5309 Z " id="Shape" fill="#FFC800" stroke-width="1"/>
          <path d="M 118.9106 75.0013 C 118.8094 75.4709 118.0511 76.4726 113.3183 76.4726 C 108.5856 76.4726 107.0961 75.3378 106.9639 74.5591 C 106.8317 73.7804 109.55 73.4126 113.575 73.4126 C 117.6 73.4126 119 74.5278 118.9106 75.0013 Z " id="Shape" fill="#000000" stroke-width="1"/>
          <path d="M 76.4244 56.1013 L 77.2022 55.71 C 77.8361 56.4104 78.4233 58.9578 76.9533 59.1104 C 75.4833 59.263 76.1056 56.8057 76.4244 56.1013 Z " id="Shape" fill="#000000" stroke-width="1"/>
          <path d="M 123.165 54.3913 L 123.9428 54 C 124.5767 54.7004 125.1639 57.2478 123.6939 57.4004 C 122.2239 57.553 122.8422 55.1113 123.165 54.3913 Z " id="Shape" fill="#000000" stroke-width="1"/>
          <path d="M 116.7056 67.4061 L 117.4833 67.0148 C 118.1133 67.7152 118.7006 70.2626 117.2306 70.4152 C 115.7606 70.5678 116.3867 68.1104 116.7056 67.4061 Z " id="Shape" fill="#828278" stroke-width="1"/>
          <path d="M 109.9467 67.2222 L 110.7244 66.8309 C 111.3544 67.5313 111.9417 70.0787 110.4717 70.2313 C 109.0017 70.3839 109.6278 67.9265 109.9467 67.2222 Z " id="Shape" fill="#828278" stroke-width="1"/>
        </g>
      </g>
    </g>
  </g>
</svg>