<svg xmlns="http://www.w3.org/2000/svg" xmlns:xlink="http://www.w3.org/1999/xlink" version="1.1" width="86.6961669921875" height="127.79300689697266" viewBox="-0.3380470275878906 -0.3830000013113022 86.6961669921875 127.79300689697266">
  <!-- Exported by Scratch - http://scratch.mit.edu/ -->
  <g id="ID0.3356157084926963">
    <g id="Page-1">
      <g id="referee-b-[sports,soccer,football,alex-eben-meyer]">
        <g id="scratch_footie_player_ref02">
          <g id="Group-6">
            <path id="Shape" fill="#828278" stroke="none" stroke-width="1" d="M 50.242 93.998 C 50.242 93.998 48.056 88.549 54.388 88.549 C 60.721 88.549 60.182 98.074 59.657 101.429 C 59.268 103.716 58.61 105.95 57.697 108.085 L 50.781 108.085 C 52.433 100.902 50.242 93.998 50.242 93.998 Z "/>
            <path id="Shape" fill="#000000" stroke="none" stroke-width="1" d="M 50.242 107.68 L 58.163 107.68 C 55.773 116.52 50.292 123.388 50.088 123.96 C 50.763 124.028 51.383 124.091 52.003 124.145 C 52.623 124.199 53.284 124.235 53.913 124.28 L 54.058 125.023 L 53.32 125.473 C 52.926 125.685 53.32 126.32 52.741 126.496 L 52.401 126.297 L 52.098 125.122 L 51.645 125.036 C 51.193 125.388 51.645 126.099 50.926 126.356 L 50.428 126.117 C 50.45 125.617 50.613 125.181 50.315 124.807 L 49.133 124.717 C 49.092 124.933 49.043 125.167 49.011 125.361 C 49.004 125.557 48.985 125.753 48.952 125.946 C 48.857 126.279 48.699 126.342 48.269 126.257 C 48.11 125.748 48.423 125.131 47.897 124.604 L 46.938 124.383 C 46.677 124.915 46.611 125.52 46.752 126.095 C 46.871 126.409 46.73 126.762 46.426 126.91 C 46.033 126.887 45.938 126.662 45.947 126.32 C 45.947 125.716 45.947 125.113 45.947 124.401 L 45.159 124.681 L 44.29 124.681 C 44.34 125.005 44.367 125.266 44.426 125.527 C 44.485 125.789 44.566 126.036 44.648 126.329 L 44.027 126.649 C 43.64 125.821 43.461 124.912 43.507 124.001 C 43.878 123.667 49.568 112.237 50.242 107.68 Z "/>
            <path id="Rectangle-path" fill="#FFFFFF" stroke="none" stroke-width="1" d="M 59.096 106.617 L 49.292 106.617 L 49.292 108.653 L 59.096 108.653 L 59.096 106.617 Z "/>
            <path id="Rectangle-path" fill="#FFFFFF" stroke="none" stroke-width="1" d="M 57.955 110.265 L 48.341 110.265 L 48.341 112.3 L 57.955 112.3 L 57.955 110.265 Z "/>
            <path id="Rectangle-path" fill="#FFFFFF" stroke="none" stroke-width="1" d="M 56.86 113.485 L 47.246 113.485 L 47.246 115.52 L 56.86 115.52 L 56.86 113.485 Z "/>
          </g>
          <g id="Group-5">
            <path id="Shape" fill="#828278" stroke="none" stroke-width="1" d="M 36.595 107.689 L 28.778 107.612 C 28.893 105.391 28.817 103.164 28.552 100.956 C 28.154 98.042 26.352 93.669 26.221 93.025 C 26.221 93.025 24.641 90.12 30.412 89.224 C 33.685 88.715 35.45 92.949 36.179 98.231 C 36.529 101.371 36.669 104.531 36.595 107.689 Z "/>
            <path id="Shape" fill="#000000" stroke="none" stroke-width="1" d="M 28.516 115.376 C 28.757 112.567 28.704 109.74 28.357 106.941 L 37.116 106.941 C 36.912 112.575 34.925 118.236 32.137 123.091 C 33.495 123.149 35.894 122.848 37.034 123.699 L 36.785 124.208 C 35.427 124.541 36.641 126.009 35.427 126.329 C 35.07 125.712 35.699 123.379 34.07 124.208 C 34.106 124.798 34.377 125.951 33.848 126.46 L 33.35 126.347 C 33.196 125.554 33.594 124.766 33.205 124.055 C 32.784 123.892 32.308 123.956 31.947 124.226 L 32.092 126.288 L 31.241 126.5 L 31.241 124.654 C 30.765 124.609 30.593 124.091 30.064 124.203 C 30.019 124.955 30.376 126.568 29.159 126.162 C 29.109 125.518 29.503 124.811 28.955 124.194 L 28.095 124.194 C 27.823 124.492 28.009 126.041 28.009 126.239 L 27.515 126.604 L 27.063 126.338 C 26.99 125.55 28.335 117.056 28.516 115.376 Z "/>
            <path id="Rectangle-path" fill="#FFFFFF" stroke="none" stroke-width="1" d="M 37.659 106.45 L 27.927 106.45 L 27.927 108.486 L 37.659 108.486 L 37.659 106.45 Z "/>
            <path id="Rectangle-path" fill="#FFFFFF" stroke="none" stroke-width="1" d="M 37.206 110.094 L 28.375 110.094 L 28.375 112.129 L 37.206 112.129 L 37.206 110.094 Z "/>
            <path id="Rectangle-path" fill="#FFFFFF" stroke="none" stroke-width="1" d="M 36.387 113.354 L 28.289 113.354 L 28.289 115.309 L 36.387 115.309 L 36.387 113.354 Z "/>
          </g>
          <g id="Group-4">
            <path id="Shape" fill="#3C3C32" stroke="none" stroke-width="1" d="M 64.038 112.093 C 64.038 112.093 62.341 116.439 62.228 117.245 C 62.115 118.051 62.481 118.119 62.911 117.245 C 63.304 116.582 63.797 115.982 64.373 115.466 L 64.038 112.093 Z "/>
            <path id="Shape" fill="#828278" stroke="none" stroke-width="1" d="M 70.013 94.273 C 70.013 94.273 71.421 80.555 66.917 80.555 C 62.413 80.555 63.296 119.821 63.726 119.808 C 64.156 119.794 64.509 116.714 65.03 116.777 C 65.55 116.84 65.238 120.38 65.754 120.47 C 66.27 120.56 66.473 116.957 66.958 116.926 C 67.442 116.894 67.257 119.911 67.469 119.934 C 68.058 119.983 70.013 94.273 70.013 94.273 Z "/>
          </g>
          <g id="Group-3">
            <path id="Shape" fill="#000000" stroke="none" stroke-width="1" d="M 0.167 68.738 C 1.933 56.745 10.456 42.333 23.989 43.797 C 24.744 43.881 25.498 43.997 26.253 44.144 C 23.021 38.834 19.49 33.655 16.584 28.3 C 14.036 23.608 6.862 11.93 6.862 11.93 L 11.605 0.671 L 17.263 4.31 C 17.263 4.31 38.474 37.789 44.629 47.85 C 49.531 55.844 54.23 63.419 55.393 73.039 C 56.362 81.032 54.162 88.423 47.49 93.304 C 44.127 95.768 40.578 96.353 36.559 97.358 C 29.634 99.087 22.46 100.344 16.105 97.358 C 3.951 91.661 0 80.69 0.167 68.738 Z "/>
            <path id="Shape" fill="#000000" stroke="none" stroke-width="1" d="M 72.421 42.955 L 79.527 57.848 L 51.446 59.028 L 44.598 43.207 L 72.421 42.955 "/>
            <path id="Shape" fill="#A0640A" stroke="none" stroke-width="1" d="M 55.737 57.227 C 56.19 61.478 59.747 63.982 64.174 63.676 C 67.18 63.468 69.954 61.145 70.036 57.956 C 70.113 54.889 66.795 52.309 64.038 51.683 C 60.96 50.989 56.258 51.957 55.737 57.227 Z "/>
            <path id="Shape" fill="#828278" stroke="none" stroke-width="1" d="M 45.888 47.846 L 70.402 47.832 L 74.942 58.276 L 80.071 57.708 L 73.349 41.951 L 43.041 41.045 L 45.888 47.846 "/>
            <path id="Shape" fill="#3C3C32" stroke="none" stroke-width="1" d="M 48.613 1.351 C 52.505 7.206 58.638 16.429 62.463 22.365 C 63.264 23.599 73.091 37.424 77.346 45.661 C 84.135 58.812 86.177 68.972 85.819 75.835 C 85.715 77.799 84.565 86.446 81.035 90.476 C 75.63 96.646 67.071 98.344 67.071 98.344 L 27.977 98.952 C 27.977 98.952 43.05 95.205 47.309 88.643 C 49.938 84.407 51.447 79.578 51.695 74.606 C 51.944 65.536 47.196 56.74 42.882 49.089 C 38.356 41.032 14.901 4.413 11.891 1.275 L 48.613 1.351 Z M 51.107 55.601 L 76.273 55.65 C 76.273 55.65 72.969 47.742 71.941 46.157 L 46.141 46.184 L 51.107 55.601 Z "/>
            <path id="Shape" fill="#000000" stroke="none" stroke-width="1" d="M 11.022 0.117 C 11.927 0.194 48.961 0.239 49.885 0.342 C 50.469 0.36 51.025 0.596 51.442 1.004 L 51.654 1.554 L 51.573 2.135 C 51.129 2.583 50.504 2.804 49.875 2.734 C 48.97 2.617 14.063 2.617 13.14 2.657 L 11.022 0.117 Z "/>
            <path id="Shape" fill="#000000" stroke="none" stroke-width="1" d="M 13.126 2.657 L 7.849 13.704 C 7.849 13.704 6.541 14.087 6.002 13.281 C 5.675 12.779 5.501 12.194 5.499 11.597 L 11.022 0.117 L 13.126 2.657 Z "/>
            <path id="Shape" fill="#3C3C32" stroke="none" stroke-width="1" d="M 10.863 75.993 C 11.965 79.423 14.13 82.418 17.046 84.55 C 20.423 86.963 24.555 87.842 28.43 86.581 C 31.527 85.532 34.074 83.294 35.504 80.366 C 37.432 76.403 37.706 71.842 36.265 67.679 C 35.053 63.859 32.515 60.593 29.104 58.465 C 25.936 56.547 22.641 55.628 19.146 56.772 C 12.108 59.078 8.147 67.846 10.863 75.993 Z "/>
            <path id="Shape" fill="#828278" stroke="none" stroke-width="1" d="M 15.263 74.516 C 15.982 76.76 17.397 78.719 19.305 80.114 C 21.424 81.722 24.193 82.215 26.741 81.438 C 28.764 80.754 30.427 79.295 31.363 77.384 C 32.621 74.796 32.799 71.816 31.856 69.098 C 31.064 66.601 29.405 64.467 27.176 63.077 C 25.098 61.825 22.953 61.221 20.663 61.969 C 16.087 63.464 13.511 69.192 15.263 74.516 Z "/>
          </g>
          <g id="Group-2">
            <path id="Shape" fill="#3C3C32" stroke="none" stroke-width="1" d="M 22.509 112.377 C 22.509 112.377 23.645 116.881 23.668 117.718 C 23.691 118.556 23.306 118.556 22.985 117.651 C 22.678 116.944 22.264 116.287 21.758 115.705 L 22.509 112.377 Z "/>
            <path id="Shape" fill="#828278" stroke="none" stroke-width="1" d="M 19.504 72.957 C 19.504 72.957 18.653 68.454 23.374 68.454 C 28.095 68.454 27.448 73.205 27.448 73.205 C 27.045 77.88 22.269 120.159 21.839 120.092 C 21.409 120.024 21.455 116.939 20.934 116.939 C 20.414 116.939 20.273 120.47 19.753 120.515 C 19.232 120.56 19.481 116.939 19.001 116.849 C 18.522 116.759 18.332 119.776 18.096 119.767 C 17.526 119.709 19.504 72.957 19.504 72.957 Z "/>
          </g>
          <g id="Group">
            <path id="Shape" fill="#F01446" stroke="none" stroke-width="1" d="M 17.535 112.048 L 17.535 110.639 C 18.372 110.558 20.767 110.535 21.609 110.449 C 21.649 110.648 21.505 111.841 21.536 112.08 C 21.419 112.057 19.078 112.057 17.535 112.048 Z "/>
            <path id="Shape" fill="#000000" stroke="none" stroke-width="1" d="M 19.807 109.301 C 19.11 110.774 18.739 112.584 20.26 113.597 C 20.747 113.95 21.355 114.095 21.949 114 C 22.544 113.906 23.076 113.579 23.428 113.093 C 24.582 111.526 24.333 109.864 23.034 109.193 C 21.989 108.788 20.823 108.827 19.807 109.301 Z "/>
            <path id="Shape" fill="#3C3C32" stroke="none" stroke-width="1" d="M 20.69 110.314 C 20.319 111.098 20.119 112.066 20.939 112.607 C 21.198 112.8 21.525 112.881 21.845 112.83 C 22.165 112.779 22.451 112.601 22.636 112.336 C 23.252 111.499 23.116 110.616 22.428 110.256 C 21.865 110.035 21.236 110.057 20.69 110.314 Z "/>
          </g>
        </g>
      </g>
    </g>
  </g>
</svg>