<svg xmlns="http://www.w3.org/2000/svg" xmlns:xlink="http://www.w3.org/1999/xlink" version="1.1" width="119.0158920288086" height="187.51507568359375" viewBox="-0.14638766646385193 -0.0681120753288269 119.0158920288086 187.51507568359375">
  <!-- Exported by Scratch - http://scratch.mit.edu/ -->
  <g id="space">
    <g id="jez-f">
      <g id="jez-puppet-back">
        <g id="Group">
          <path id="Shape" fill="#FFFFFF" stroke="none" stroke-width="1" d="M 70.549 86.52 L 63.966 85.917 L 57.587 84.787 L 48.272 84.787 L 43.93 83.915 L 39.925 81.575 L 32.674 74.459 L 30.534 71.553 L 27.003 60.83 L 27.003 52.813 L 29.107 45.798 L 33.416 39.685 L 38.622 34.574 L 45.05 31.367 L 55.033 28.862 L 66.269 28.862 L 73.591 29.463 L 83.097 32.244 L 91.612 36.678 L 96.22 41.689 L 99.425 48.404 L 101.028 54.517 L 100.527 63.335 L 97.221 71.252 L 93.215 77.366 L 86.316 82.977 L 79.191 86.52 L 72.867 86.956 L 70.549 86.52 "/>
          <path id="Shape" fill="#FBAE5A" stroke="none" stroke-width="1" d="M 70.351 85.377 L 66.895 86.63 L 59.307 84.781 L 51.769 84.855 L 42.78 78.242 C 42.78 78.242 37.693 71.854 38.17 71.403 C 38.648 70.952 36.92 59.828 37.145 59.678 C 37.37 59.527 45.935 58.625 46.461 58.701 C 46.987 58.776 75.159 60.58 75.159 60.58 L 80.418 64.713 L 77.842 76.363 L 74.257 82 L 70.351 85.377 Z "/>
          <path id="Shape" fill="#79C8A2" stroke="none" stroke-width="1" d="M 53.372 35.476 L 46.386 32.244 L 41.803 32.244 C 41.803 32.244 34.741 38.783 34.516 38.858 C 34.29 38.933 31.298 45.021 31.298 45.021 C 31.298 45.021 32.112 49.005 32.112 49.23 C 32.112 49.456 39.155 54.191 39.155 54.191 L 38.723 59.152 L 42.391 68.471 L 51.419 76.514 L 64.716 79.595 L 74.257 77.34 L 80.042 72.663 L 80.418 59.678 L 88.611 59.377 L 94.842 55.92 L 98.072 47.652 L 96.72 41.865 L 89.658 35.326 L 83.798 33.447 L 78.615 35.701 L 75.459 38.482 L 73.957 41.338 L 73.469 44.298 L 73.469 46.299 L 73.469 47.877 L 73.469 49.756 L 71.328 48.103 L 66.67 45.998 L 62.463 44.946 L 58.406 44.721 L 54.875 44.645 C 54.875 44.645 55.852 41.038 55.852 40.812 C 55.852 40.587 53.372 35.476 53.372 35.476 Z "/>
          <path id="Shape" fill="#EF463C" stroke="none" stroke-width="1" d="M 70.201 3.833 L 64.685 1.729 L 60.735 2.781 C 60.735 2.781 58.331 6.764 58.406 7.215 C 58.481 7.666 59.458 13.379 59.458 13.379 L 62.688 15.258 L 68.247 14.581 L 72.304 12.552 L 72.68 8.117 L 70.201 3.833 Z "/>
          <path id="Shape" fill="#30419A" stroke="none" stroke-width="1" d="M 48.687 82.025 C 46.746 80.595 44.78 79.129 43.129 77.389 C 41.367 75.532 40.267 73.233 39.394 70.741 C 38.455 68.056 37.962 65.405 38.021 62.607 C 38.029 62.245 38.118 61.884 38.256 61.514 C 40.532 69.792 45.743 75.442 53.617 78.499 C 61.354 81.503 69.056 81.361 76.579 77.38 C 75.503 78.679 74.451 79.999 73.345 81.272 C 72.281 82.494 71.033 83.591 69.61 84.375 C 68.906 84.763 68.155 85.072 67.37 85.252 C 67.038 85.327 66.692 85.341 66.876 85.778 C 66.987 86.042 67.269 86.169 67.496 86.315 C 67.789 86.505 67.959 86.686 68.285 86.791 C 68.634 86.905 68.963 87.057 69.323 87.146 C 70.461 87.426 71.624 87.998 72.798 88.111 C 73.165 88.146 73.536 88.171 73.906 88.165 C 74.391 88.156 74.855 87.979 75.34 87.99 C 75.776 88.001 76.228 87.901 76.674 87.821 C 77.589 87.659 78.508 87.49 79.389 87.186 C 82.564 86.093 85.924 85.387 88.512 82.972 C 89.776 81.792 91.29 80.865 92.464 79.61 C 94.917 76.99 97.801 73.887 99.046 70.491 C 99.695 68.717 100.693 67.137 101.244 65.306 C 101.798 63.465 102.12 61.557 102.231 59.639 C 102.222 59.428 102.217 59.222 102.218 59.024 C 102.225 57.743 102.221 56.464 102.187 55.185 C 102.104 53.998 101.978 52.813 101.816 51.608 C 101.538 49.556 100.577 47.937 99.885 46.046 C 99.11 43.929 97.818 42.027 96.47 40.237 C 95.357 38.76 94.344 37.523 92.876 36.386 C 91.927 35.651 91.114 34.883 90.021 34.374 C 87.825 33.354 85.802 32.025 83.541 31.11 C 80.986 30.077 78.382 29.075 75.708 28.457 C 72.698 27.761 69.588 27.496 66.516 27.086 C 65.875 27 65.519 26.856 65.59 26.109 C 65.866 23.21 66.064 20.302 66.408 17.411 C 66.455 17.024 67.116 16.558 67.583 16.405 C 68.451 16.122 69.453 16.199 70.282 15.848 C 72.625 14.854 73.638 12.804 73.976 10.441 C 74.578 6.214 71.032 1.261 66.83 0.568 C 64.05 0.109 60.916 0.785 59.078 2.991 C 57.986 4.301 57.261 5.714 57.035 7.457 C 56.814 9.158 57.129 11.069 57.722 12.702 C 58.548 14.98 60.704 15.956 62.907 16.624 C 63.838 16.907 64.343 17.227 64.115 18.387 C 63.856 19.713 63.913 21.099 63.797 22.456 C 63.669 23.926 63.501 25.392 63.377 26.598 C 59.708 27.018 56.167 27.383 52.638 27.838 C 49.113 28.293 45.839 29.624 42.621 31.038 C 40.849 31.818 39.124 32.785 37.543 33.902 C 36.762 34.453 36.029 35.068 35.313 35.701 C 34.846 36.113 34.309 36.464 33.873 36.908 C 33.497 37.29 33.23 37.778 32.887 38.203 C 31.511 39.906 30.203 41.684 29.19 43.631 C 28.261 45.413 27.477 47.279 26.934 49.216 C 26.591 50.439 26.536 51.762 26.159 52.959 C 25.624 54.659 25.676 56.562 25.75 58.324 C 25.824 60.077 25.996 61.696 26.373 63.422 C 26.855 65.633 27.364 67.855 28.286 69.933 C 28.908 71.335 29.636 72.703 30.4 74.025 C 31.323 75.622 32.342 77.167 33.657 78.491 C 35.368 80.213 37.641 81.389 39.693 82.751 C 40.264 83.13 40.882 83.428 41.507 83.705 C 41.831 83.849 42.157 83.986 42.483 84.127 C 42.712 84.226 42.95 84.333 43.179 84.426 C 44.023 84.768 44.78 85.315 45.674 85.568 C 46.377 85.767 47.184 85.709 47.906 85.709 C 48.67 85.709 49.602 85.835 50.333 85.567 C 50.666 85.445 50.992 85.254 51.319 85.129 C 51.503 85.058 51.616 84.979 51.77 84.856 C 51.998 84.675 52.194 84.575 52.265 84.279 C 52.346 83.938 52.177 83.778 51.882 83.689 C 51.512 83.578 51.15 83.45 50.793 83.285 C 50.049 82.94 49.346 82.511 48.687 82.025 Z M 72.495 76.772 C 65.066 79.041 56.045 78.3 49.507 73.941 C 46.991 72.264 45.007 70.02 43.112 67.687 C 41.196 65.331 40.275 62.589 39.943 59.639 C 39.825 58.587 39.926 57.484 40.112 56.436 C 40.237 55.731 40.651 55.071 41.636 55.262 C 42.046 55.342 42.486 55.276 42.912 55.276 C 47.042 55.426 50.421 53.674 53.326 50.954 C 54.181 50.153 54.882 49.019 55.243 47.904 C 55.723 46.417 56.684 46.051 57.975 46.17 C 60.133 46.368 62.37 46.381 64.41 47.006 C 66.972 47.791 71.412 48.758 72.656 51.412 C 73.536 53.288 74.426 55.213 75.782 56.802 C 76.503 57.648 77.325 58.239 78.222 58.877 C 79.333 59.667 79.204 60.288 79.416 61.677 C 80.067 65.948 80.11 69.753 77.588 73.496 C 76.312 75.39 74.699 76.098 72.495 76.772 Z M 97.393 53.331 C 97.969 52.116 98.165 50.77 98.332 49.466 C 98.799 49.769 98.932 50.682 99.156 51.237 C 99.879 53.029 99.489 54.911 99.599 56.773 C 99.708 58.6 99.684 60.44 99.409 62.271 C 98.971 65.18 97.351 68.155 95.971 70.706 C 95.74 71.134 95.506 71.56 95.268 71.985 C 94.751 72.908 94.254 73.899 93.585 74.722 C 93.019 75.419 92.4 76.074 91.85 76.777 C 91.571 77.135 91.379 77.535 91.056 77.865 C 90.71 78.218 90.297 78.496 89.937 78.834 C 89.263 79.468 88.549 79.912 87.825 80.474 C 86.709 81.341 85.841 82.367 84.59 83.025 C 83.759 83.462 82.874 83.798 82.03 84.219 C 80.842 84.813 79.69 85.101 78.411 85.422 C 76.833 85.817 75.247 86.018 73.626 86.089 C 73.212 86.108 71.276 86.307 71.293 85.798 C 71.304 85.484 71.826 85.292 72.027 85.126 C 72.373 84.84 72.654 84.484 72.978 84.175 C 73.513 83.665 73.958 83.271 74.429 82.709 C 74.946 82.092 75.476 81.471 76.053 80.91 C 76.857 80.127 77.695 79.319 78.208 78.316 C 78.724 77.307 79.454 76.369 79.832 75.296 C 80.844 72.427 81.6 69.483 81.595 66.424 C 81.593 65.535 81.607 64.649 81.558 63.762 C 81.528 63.205 81.568 62.647 81.53 62.091 C 81.504 61.718 81.295 61.258 81.327 60.898 C 81.42 59.851 82.915 60.607 83.53 60.659 C 84.324 60.726 85.096 60.832 85.9 60.832 C 88.489 60.832 91.441 60.723 93.549 59.002 C 95.336 57.542 96.424 55.377 97.393 53.331 Z M 83.711 34.943 C 84.056 34.85 84.41 34.807 84.768 34.806 C 87.646 34.804 90.847 37.556 92.669 39.354 C 93.764 40.436 95.135 41.774 95.757 43.208 C 96.198 44.225 96.092 45.348 96.352 46.398 C 96.631 47.529 96.358 48.404 96.174 49.551 C 95.697 52.52 94.54 56.074 91.712 57.633 C 90.289 58.416 88.589 58.58 87.004 58.67 C 85.645 58.749 84.187 58.487 82.883 58.051 C 81.914 57.728 80.995 57.266 80.15 56.695 C 79.114 55.995 77.756 55.342 77.157 54.181 C 76.857 53.597 76.629 52.999 76.318 52.401 C 75.962 51.715 75.703 50.982 75.511 50.235 C 75.037 48.398 74.952 46.485 74.928 44.597 C 74.917 43.759 74.911 42.792 75.119 41.976 C 75.307 41.236 75.78 40.521 76.117 39.839 C 77.645 36.748 80.602 35.78 83.711 34.943 Z M 60.807 13.534 C 59.66 12.564 59.239 11.037 59.207 9.584 C 59.165 7.69 59.324 5.755 60.858 4.39 C 61.498 3.821 62.39 3.37 63.23 3.217 C 67.887 2.369 69.464 3.757 71.56 7.945 C 72.23 9.283 71.697 11.043 70.708 12.305 C 69.133 14.318 67.213 14.066 64.921 14.28 C 64.77 14.294 64.621 14.308 64.475 14.322 C 63.13 14.448 61.952 14.502 60.807 13.534 Z M 50.492 31.253 C 52.059 30.944 53.555 30.28 55.163 30.184 C 58.803 29.968 62.451 29.754 66.094 29.791 C 68.02 29.811 69.941 30.348 71.864 30.663 C 73.709 30.964 75.57 31.203 77.389 31.623 C 78.47 31.872 79.483 32.415 80.522 32.968 C 73.223 35.362 71.927 40.874 72.689 47.722 C 67.53 44.412 62.034 43.308 56.193 43.569 C 56.392 43.56 56.566 40.766 56.57 40.479 C 56.606 37.961 55.564 35.925 53.471 34.575 C 52.645 34.042 52.029 33.239 51.17 32.775 C 50.774 32.561 49.526 32.343 49.348 31.887 C 49.139 31.354 50.188 31.313 50.492 31.253 Z M 33.382 42.296 C 35.054 40.264 36.192 38.072 38.342 36.398 C 40.677 34.581 43.049 32.753 46.249 33.399 C 47.42 33.635 48.484 34.367 49.556 34.861 C 51.03 35.54 52.478 36.344 53.388 37.744 C 54.886 40.05 54.264 42.414 53.738 44.922 C 53.351 46.768 52.322 48.327 50.76 49.482 C 47.409 51.964 44.541 52.972 39.72 52.972 C 37.48 52.941 34.912 51.632 33.142 48.841 C 32.174 47.312 32.234 43.692 33.382 42.296 Z M 44.611 83.089 C 43.836 82.802 43.087 82.445 42.364 82.045 C 41.489 81.561 40.419 81.033 39.715 80.314 C 39.094 79.681 38.476 79.272 37.767 78.726 C 37.104 78.218 36.474 77.662 35.934 77.023 C 35.872 76.948 35.813 76.873 35.751 76.797 C 34.494 75.691 33.426 74.365 32.6 72.922 C 32.011 72.304 31.57 71.528 31.381 70.749 C 31.287 70.581 31.192 70.414 31.104 70.239 C 31.094 70.217 31.093 70.194 31.084 70.171 C 30.707 69.462 30.377 68.722 30.12 67.938 C 29.339 65.55 28.538 63.184 28.017 60.723 C 27.587 58.691 27.924 56.547 27.912 54.492 C 27.911 54.3 27.966 54.143 28.054 54.021 C 28.062 53.175 28.116 52.333 28.263 51.503 C 28.358 50.967 28.533 50.414 28.701 49.897 C 28.882 49.34 29.069 48.82 29.229 48.263 C 29.533 47.207 30.221 46.467 30.673 45.502 C 30.791 45.862 30.558 46.635 30.559 47.066 C 30.559 47.103 30.559 47.14 30.56 47.177 C 30.576 48.17 30.768 49.173 31.239 50.07 C 31.674 50.898 32.271 51.636 32.954 52.273 C 33.612 52.886 34.355 53.403 35.133 53.85 C 35.334 53.965 37.567 55.042 37.574 55.019 C 37.09 56.689 36.347 58.411 36.137 60.196 C 35.897 62.228 36.064 64.32 36.188 66.378 C 36.253 67.455 36.59 68.517 36.833 69.579 C 37.418 72.147 38.435 74.619 39.974 76.764 C 40.99 78.181 42.249 79.399 43.553 80.548 C 44.205 81.123 44.871 81.683 45.532 82.249 C 45.949 82.606 46.806 83.07 46.925 83.643 C 46.378 83.86 45.157 83.291 44.611 83.089 Z "/>
        </g>
        <g id="Group">
          <path id="Shape" fill="#65B8E7" stroke="none" stroke-width="1" d="M 45.076 85.88 L 41.304 86.602 C 41.304 86.602 39.538 88.004 39.463 88.295 C 39.389 88.586 39.608 90.69 39.457 90.991 C 39.307 91.292 40.427 97.443 40.427 97.443 C 40.427 97.443 40.929 98.796 40.929 99.328 C 40.929 99.86 43.183 111.284 43.183 111.284 C 43.51 112.582 43.838 113.879 44.166 115.178 C 44.91 118.123 43.892 121.087 45.294 123.892 C 46.205 125.713 48.524 127.45 50.503 127.949 C 52.328 128.409 54.22 128.477 56.09 128.342 C 57.822 128.218 59.456 129.007 61.23 129.101 C 62.822 129.186 63.914 128.679 65.381 128.18 C 66.415 127.83 67.481 127.559 68.432 127.001 C 69.45 126.405 70.263 125.509 71.163 124.758 C 72.074 123.996 73.059 123.05 73.443 121.89 C 73.755 120.949 73.287 120.382 73.18 119.477 C 73.037 118.266 73.63 116.984 73.763 115.782 C 73.921 114.357 73.889 112.919 73.99 111.491 C 74.144 109.328 74.291 107.166 74.434 105.003 L 74.885 101.664 C 74.885 101.664 76.12 96.628 76.045 96.327 C 75.97 96.027 75.073 88.999 75.073 88.999 L 70.077 86.932 L 66.171 85.879 L 58.798 84.757 L 52.197 84.757 L 45.076 85.88 Z "/>
          <path id="Shape" fill="#EF463C" stroke="none" stroke-width="1" d="M 48.892 85.348 L 41.83 86.256 C 41.83 86.256 47.013 93.922 47.239 93.922 C 47.464 93.922 47.464 100.131 47.464 100.221 C 47.464 100.311 47.539 101.664 47.539 101.664 L 41.078 98.507 L 42.418 106.517 L 48.892 107.977 C 48.892 107.977 59.184 107.902 59.484 107.977 C 59.785 108.052 68.424 108.353 68.424 108.353 C 68.424 108.353 70.678 107.601 70.904 107.601 C 71.129 107.601 74.81 105.722 74.81 105.722 L 73.91 100.638 L 70.979 102.252 L 68.875 103.092 L 67.147 96.069 L 73.495 88.295 L 66.17 86.105 L 64.367 90.916 L 62.94 91.066 L 57.944 89.262 C 57.944 89.262 54.525 89.187 54.301 89.262 C 54.076 89.337 50.995 90.089 50.995 90.089 L 48.892 85.348 Z "/>
          <path id="Shape" fill="#EF463C" stroke="none" stroke-width="1" d="M 73.495 113.239 L 58.798 114.216 L 43.376 112.054 C 43.376 112.054 44.458 117.673 44.684 117.898 C 44.909 118.124 60.986 119.327 62.038 119.402 C 63.09 119.477 73.617 118.45 73.617 118.45 L 73.495 113.239 Z "/>
          <path id="Shape" fill="#30419A" stroke="none" stroke-width="1" d="M 57.458 127.057 C 56.888 126.98 56.414 127.467 56.009 127.784 C 55.592 128.112 55.298 128.379 55.12 128.904 C 55.005 129.243 55.048 129.715 55.304 130.007 C 55.526 130.262 55.921 130.253 56.223 130.189 C 56.396 130.153 56.598 129.992 56.776 130.014 C 56.995 130.04 56.999 130.215 57.118 130.351 C 57.348 130.611 57.743 130.715 58.077 130.759 C 58.496 130.814 58.629 130.656 58.765 130.265 C 59.01 129.56 58.669 128.952 58.531 128.274 C 58.424 127.751 58.055 127.139 57.458 127.057 Z "/>
          <path id="Shape" fill="#30419A" stroke="none" stroke-width="1" d="M 71.075 101.527 C 70.878 101.616 69.189 102.531 69.226 102.765 C 68.971 101.127 68.949 99.625 68.478 98.28 C 67.804 96.348 68.539 95.244 69.971 94.074 C 71.038 93.201 71.779 91.93 72.669 90.839 C 73.239 90.139 73.856 89.91 74.622 90.093 C 74.73 90.118 75.411 89.217 75.498 89.12 C 75.659 88.941 75.969 88.681 75.808 88.421 C 75.672 88.203 75.181 88.1 74.968 87.949 C 74.678 87.743 74.407 87.716 74.077 87.61 C 72.91 87.236 71.757 86.819 70.576 86.491 C 69.488 86.188 68.431 85.811 67.334 85.525 C 66.136 85.212 64.9 84.941 63.688 84.693 C 62.29 84.406 60.859 84.374 59.442 84.229 C 58.411 84.123 57.374 83.939 56.338 83.904 C 54.956 83.857 53.554 83.911 52.172 83.934 C 50.765 83.956 49.357 84.024 47.963 84.22 C 46.625 84.409 45.255 84.591 43.904 84.646 C 43.166 84.676 42.415 84.715 41.692 84.88 C 41.193 84.994 40.681 85.056 40.262 85.375 C 39.777 85.743 39.757 86.362 39.834 86.926 C 39.863 87.143 39.906 87.39 40.05 87.564 C 40.2 87.744 40.423 87.768 40.605 87.9 C 41.095 88.256 41.492 88.877 41.889 89.333 C 42.896 90.491 43.889 91.664 44.889 92.828 C 45.501 93.541 46.111 94.255 46.82 95.083 C 46.738 96.602 46.643 98.343 46.533 100.337 C 46.547 100.08 45.531 99.825 45.331 99.733 C 44.782 99.48 44.3 99.073 43.763 98.794 C 43.478 98.646 43.207 98.473 42.918 98.333 C 42.642 98.199 42.261 98.191 42.015 98.055 C 41.722 97.894 41.571 97.591 41.22 97.473 C 40.889 97.361 40.534 97.383 40.21 97.509 C 39.751 97.688 39.367 98.028 39.245 98.526 C 39.179 98.794 39.167 99.102 39.209 99.374 C 39.254 99.668 39.402 99.789 39.58 100.01 C 39.931 100.444 40.159 100.975 40.351 101.495 C 40.716 102.485 40.918 103.517 41.161 104.54 C 41.711 106.858 41.686 109.254 42.197 111.569 C 42.573 113.268 42.927 114.972 43.275 116.678 C 43.326 116.929 43.387 117.25 43.281 117.452 C 43.059 117.871 42.83 118.159 42.807 118.666 C 42.785 119.144 42.99 119.572 43.46 119.743 C 44.217 120.02 44.697 119.141 45.409 119.349 C 45.737 119.446 46.015 119.607 46.362 119.663 C 46.838 119.74 47.321 119.754 47.798 119.819 C 48.588 119.925 49.407 119.98 50.202 119.978 C 53.206 119.971 56.203 120.274 59.224 120.274 C 63.254 120.266 67.284 120.105 71.315 120.041 C 71.661 120.035 71.894 120.411 72.148 120.596 C 72.47 120.832 72.82 120.922 73.21 120.804 C 73.65 120.67 74.369 120.223 74.591 119.797 C 74.77 119.454 74.683 119.001 74.73 118.632 C 74.794 118.123 74.847 117.612 74.895 117.101 C 74.992 116.076 75.065 115.05 75.125 114.023 C 75.246 111.964 75.317 109.904 75.438 107.847 C 75.445 107.744 75.451 107.641 75.457 107.538 C 75.54 106.193 75.747 104.812 75.651 103.467 C 75.612 102.921 75.879 102.613 76.012 102.109 C 76.153 101.58 75.85 101.096 75.381 100.866 C 74.743 100.552 73.838 100.596 73.162 100.738 C 72.463 100.883 71.731 101.229 71.075 101.527 Z M 66.293 89.595 C 66.529 88.751 67.3 87.047 68.46 87.384 C 69.2 87.6 70.944 88.483 70.686 89.391 C 70.676 89.423 70.666 89.455 70.651 89.486 C 70.479 89.875 67.401 93.208 67.488 93.29 C 66.812 92.653 66.147 92.026 65.508 91.424 C 65.769 90.83 66.114 90.236 66.293 89.595 Z M 66.644 100.087 C 66.644 102.247 66.674 104.193 66.608 106.136 C 66.599 106.392 66.107 106.835 65.826 106.846 C 62.906 106.952 59.982 107.022 57.059 107.03 C 55.025 107.035 52.99 106.905 50.955 106.879 C 50.005 106.866 49.522 106.414 49.428 105.507 C 49.279 104.063 49.149 102.615 49.006 101.115 C 54.885 100.772 60.666 100.435 66.644 100.087 Z M 52.696 91.768 C 56.619 90.362 60.316 90.751 63.702 93.238 C 64.963 94.165 65.52 95.57 65.803 97.059 C 65.841 97.259 65.446 97.742 65.226 97.758 C 62.493 97.962 59.756 98.159 57.017 98.243 C 54.498 98.321 51.974 98.26 49.328 98.26 C 48.295 96.292 50.301 92.626 52.696 91.768 Z M 50.607 86.195 C 50.812 86.052 51.511 86.099 51.78 86.042 C 52.194 85.954 52.602 85.819 53.023 85.774 C 53.912 85.679 54.821 85.787 55.713 85.758 C 56.894 85.719 58.082 85.682 59.261 85.651 C 60.426 85.62 61.575 86.001 62.684 86.303 C 63.33 86.479 64.461 86.781 64.42 87.584 C 64.405 87.893 63.408 90.004 63.482 90.041 C 61.252 88.925 58.963 88.043 56.468 88.181 C 55.092 88.257 53.697 88.612 52.386 89.063 C 51.535 89.355 51.24 89.068 51.009 88.409 C 50.85 87.954 50.16 86.507 50.607 86.195 Z M 43.039 86.972 C 43.23 87.192 45.502 86.677 45.88 86.65 C 46.796 86.586 47.323 86.5 47.852 87.316 C 48.554 88.4 49.212 89.542 49.174 90.872 C 49.158 91.408 48.36 91.921 47.855 92.513 C 46.323 90.75 44.772 88.966 43.039 86.972 Z M 42.267 102.784 C 42.214 101.792 42.142 100.808 42.053 99.821 C 43.38 100.687 44.867 101.447 46.27 102.204 C 47.459 102.845 46.979 104.446 46.979 105.521 C 46.979 105.8 47.141 106.071 46.841 106.217 C 46.624 106.324 45.851 106.038 45.612 105.983 C 44.872 105.81 44.143 105.584 43.431 105.315 C 42.217 104.858 42.327 103.922 42.267 102.784 Z M 71.179 117.455 C 69.041 117.434 66.901 117.719 64.762 117.87 C 62.959 117.996 61.156 118.209 59.353 118.217 C 57.176 118.227 54.982 118.197 52.826 117.936 C 50.473 117.652 48.155 117.084 45.78 116.633 C 45.53 115.694 45.287 114.778 44.936 113.454 C 54.214 115.463 63.34 115.945 72.639 114.787 C 72.665 115.197 72.693 115.425 72.692 115.653 C 72.69 116.668 72.652 117.47 71.179 117.455 Z M 72.326 112.045 C 70.211 112.342 68.108 112.76 65.985 112.966 C 63.707 113.187 61.411 113.232 59.121 113.332 C 58.449 113.361 57.764 113.377 57.099 113.293 C 53.88 112.879 50.665 112.429 47.449 111.993 C 46.849 111.911 46.183 111.967 45.667 111.715 C 45.142 111.459 44.546 110.976 44.372 110.459 C 44.023 109.428 43.94 108.306 43.704 106.979 C 44.834 107.429 45.877 107.832 46.909 108.26 C 48.98 109.121 51.11 109.54 53.374 109.474 C 57.577 109.352 61.799 109.551 65.979 109.209 C 68.16 109.03 70.586 109.319 72.513 107.744 C 72.625 107.653 72.793 107.613 72.94 107.585 C 73.043 107.565 73.157 107.606 73.216 107.613 C 73.265 108.657 73.357 109.669 73.345 110.68 C 73.338 111.326 73.159 111.928 72.326 112.045 Z M 73.564 102.753 C 73.72 103.301 73.873 104.202 73.367 104.62 C 72.13 105.644 70.679 106.41 69.141 107.383 C 69.346 107.253 69.11 105.618 69.167 105.323 C 69.425 103.983 71.086 102.909 72.209 102.332 C 72.904 101.975 73.323 101.909 73.564 102.753 Z "/>
        </g>
        <g id="Group">
          <path id="Shape" fill="#65B8E7" stroke="none" stroke-width="1" d="M 40.154 86.925 L 34.031 87.832 C 34.031 87.832 31.498 88.905 31.45 89.233 C 31.402 89.56 30.575 90.688 30.575 91.289 C 30.575 91.89 32.003 96.848 32.003 96.848 C 32.003 96.848 31.777 99.394 32.904 99.325 C 34.031 99.256 34.506 99.106 35.508 98.955 C 36.511 98.805 39.197 97.678 39.197 97.678 L 41.845 96.848 L 40.154 86.925 Z "/>
          <path id="Shape" fill="#30419A" stroke="none" stroke-width="1" d="M 42.047 98.106 C 42.308 97.913 42.519 97.719 42.398 97.314 C 42.281 96.921 41.953 96.502 41.605 96.285 C 41.189 96.025 40.81 96.039 40.315 96.111 C 39.945 96.165 39.628 96.31 39.288 96.447 C 38.469 96.777 37.747 97.289 36.885 97.519 C 36.368 97.657 35.838 97.736 35.309 97.806 C 34.845 97.866 34.516 97.844 34.186 98.18 C 33.803 98.57 33.069 99.313 33.712 99.81 C 34.711 100.583 36.182 100.085 37.236 99.744 C 37.56 99.638 37.774 99.543 38.114 99.528 C 38.48 99.511 38.833 99.421 39.191 99.354 C 39.701 99.258 40.148 99.022 40.64 98.879 C 41.038 98.764 41.39 98.654 41.712 98.366 C 41.818 98.268 41.937 98.187 42.047 98.106 Z "/>
          <path id="Shape" fill="#30419A" stroke="none" stroke-width="1" d="M 39.422 87.793 C 39.838 87.66 40.164 87.693 40.441 87.832 L 40.289 85.345 C 39.642 85.5 38.996 85.651 38.357 85.826 C 36.855 86.237 35.358 86.664 33.862 87.097 C 33.036 87.336 30.821 87.865 31.45 89.233 C 31.693 89.759 32.363 89.746 32.84 89.634 C 33.458 89.488 34.073 89.383 34.686 89.21 C 36.273 88.765 37.853 88.295 39.422 87.793 Z "/>
        </g>
        <g id="Group">
          <path id="Shape" fill="#65B8E7" stroke="none" stroke-width="1" d="M 32.455 99.816 C 32.417 99.703 30.088 89.692 30.088 89.692 L 32.98 89.856 L 35.891 89.692 C 35.891 89.692 37.6 90.758 37.676 91.059 C 37.751 91.36 37.915 93.915 37.946 94.253 C 37.977 94.591 37.167 96.245 37.167 96.245 L 34.186 98.175 L 32.455 99.816 Z "/>
          <path id="Shape" fill="#FFFFFF" stroke="none" stroke-width="1" d="M 29.449 89.693 L 21.261 91.849 L 17.542 88.13 C 17.542 88.13 14.236 87.98 13.86 88.13 C 13.485 88.279 9.503 88.843 9.316 88.881 C 9.128 88.918 2.892 95.269 2.892 95.269 C 2.892 95.269 1.577 101.92 1.69 101.996 C 1.803 102.072 5.597 109.024 5.747 109.098 C 5.897 109.173 11.644 111.052 11.757 111.052 C 11.87 111.052 18.856 108.948 19.006 108.911 C 19.157 108.873 23.777 103.913 23.777 103.913 L 23.814 101.545 L 31.854 99.558 L 32.058 98.139 L 29.449 89.693 Z "/>
          <path id="Shape" fill="#30419A" stroke="none" stroke-width="1" d="M 33.658 98.036 C 33.025 95.626 32.417 93.259 31.774 90.9 C 31.576 90.178 31.978 89.905 32.608 89.65 C 33.27 89.383 33.997 89.092 34.462 88.523 C 34.686 88.248 34.831 87.763 34.512 87.566 C 33.709 87.068 32.375 87.526 31.568 87.762 C 30.339 88.122 29.11 88.481 27.88 88.837 C 26.633 89.197 25.36 89.479 24.142 89.919 C 22.266 90.595 22.138 90.579 20.878 89.039 C 19.941 87.894 18.848 87.083 17.283 86.773 C 15.166 86.354 13.161 86.73 11.223 87.325 C 7.769 88.386 4.713 90.147 3.005 93.542 C 1.85 95.838 0.594 98.058 0.383 100.779 C 0.174 103.489 1.097 105.65 2.603 107.706 C 3.099 108.383 3.562 109.185 4.24 109.608 C 5.953 110.675 7.744 111.517 9.831 111.832 C 14.966 112.607 19.265 111.345 22.544 107.204 C 23.13 106.464 23.56 105.593 24.009 104.755 C 24.309 104.195 24.746 103.572 24.712 103.001 C 24.657 102.043 25.131 102.067 25.801 101.981 C 27.776 101.726 29.758 101.475 31.707 101.073 C 32.567 100.896 33.479 100.553 34.35 100.479 C 35.009 100.424 35.474 100.066 35.892 99.535 C 36.291 99.027 36.007 98.521 35.508 98.234 C 34.917 97.891 34.306 97.913 33.658 98.036 Z M 29.841 98.932 C 27.924 99.312 25.984 99.586 24.051 99.888 C 22.993 100.052 22.451 100.671 22.449 101.761 C 22.442 104.59 20.628 107.186 17.933 108.188 C 16.488 108.726 15.059 109.535 13.57 109.682 C 10.874 109.948 8.093 109.601 6.023 107.677 C 3.49 105.323 2.593 102.248 3.369 98.829 C 3.85 96.708 4.703 94.711 6.195 93.073 C 8.873 90.133 12.184 88.707 16.181 89.136 C 17.489 89.276 18.604 89.888 19.331 91.057 C 19.393 91.156 19.459 91.251 19.527 91.345 C 20.969 93.352 20.954 93.304 23.3 92.563 C 25.202 91.963 27.145 91.5 29.288 90.917 C 29.606 91.99 29.941 92.995 30.197 94.02 C 30.491 95.2 30.672 96.407 30.983 97.582 C 31.264 98.643 30.46 98.809 29.841 98.932 Z "/>
        </g>
        <g id="Group">
          <path id="Shape" fill="#65B8E7" stroke="none" stroke-width="1" d="M 85.248 93.349 L 79.501 90.944 L 75.632 89.741 C 75.632 89.741 74.054 90.643 73.866 90.756 C 73.678 90.869 73.566 92.034 73.491 92.147 C 73.415 92.259 73.265 95.379 73.19 95.792 C 73.115 96.205 72.89 98.911 72.89 98.911 L 74.806 100.676 L 77.623 101.88 C 77.623 101.88 82.394 103.534 82.544 103.609 C 82.694 103.684 84.213 103.84 84.543 103.781 C 84.873 103.721 86.826 102.594 86.826 102.594 L 88.254 97.22 L 88.254 95.145 L 85.248 93.349 Z "/>
          <path id="Shape" fill="#30419A" stroke="none" stroke-width="1" d="M 75.267 90.307 C 75.444 90.393 75.622 90.479 75.805 90.559 C 77.241 91.189 78.733 91.678 80.181 92.277 C 81.483 92.816 82.78 93.365 84.076 93.917 C 84.758 94.208 85.44 94.499 86.123 94.791 C 86.655 95.018 87.139 95.287 87.722 95.062 C 88.148 94.898 88.587 94.689 88.631 94.202 C 88.676 93.688 88.198 93.188 87.737 93.03 C 87.127 92.822 86.519 92.608 85.912 92.361 C 84.615 91.832 83.315 91.31 82.009 90.8 C 80.82 90.336 79.619 89.903 78.427 89.447 C 77.394 89.052 76.38 88.509 75.284 88.327 C 74.663 88.224 74.147 88.303 73.697 88.749 C 73.212 89.229 73.673 89.609 74.153 89.797 C 74.536 89.945 74.898 90.128 75.267 90.307 Z "/>
          <path id="Shape" fill="#30419A" stroke="none" stroke-width="1" d="M 77.913 101.019 C 76.852 100.69 75.779 100.392 74.724 100.046 C 74.177 99.866 73.555 99.453 72.96 99.496 C 72.648 99.518 72.368 99.66 72.17 99.906 C 71.791 100.375 72.308 100.975 72.676 101.303 C 72.835 101.446 73.042 101.553 73.22 101.672 C 73.542 101.889 73.839 102.088 74.21 102.211 C 74.945 102.454 75.605 102.753 76.381 102.849 C 76.99 102.925 77.513 103.246 78.097 103.432 C 78.938 103.697 79.772 103.988 80.611 104.265 C 81.548 104.575 82.649 105.124 83.66 104.965 C 83.8 104.943 83.937 104.903 84.064 104.838 C 84.529 104.6 84.659 104.308 84.543 103.781 C 84.451 103.363 84.104 102.971 83.706 102.837 C 83.085 102.629 82.441 102.451 81.813 102.25 C 80.515 101.835 79.215 101.423 77.913 101.019 Z "/>
        </g>
        <g id="Group">
          <path id="Shape" fill="#65B8E7" stroke="none" stroke-width="1" d="M 89.176 95.37 C 89.176 95.37 86.585 103.337 86.547 103.45 C 86.509 103.563 85.382 104.089 85.382 104.089 L 82.715 101.984 C 82.715 101.984 81.25 99.579 81.325 99.278 C 81.401 98.978 82.377 96.385 82.865 96.309 C 83.353 96.234 85.645 95.332 85.757 95.37 C 85.87 95.408 89.176 95.37 89.176 95.37 Z "/>
          <path id="Shape" fill="#FFFFFF" stroke="none" stroke-width="1" d="M 103.825 94.505 L 99.431 96.759 C 99.431 96.759 98.154 97.926 98.079 97.963 C 98.003 98 89.176 95.52 89.176 95.52 L 86.322 104.727 L 95.073 107.246 L 97.214 112.582 C 97.214 112.582 101.459 115.062 101.572 115.062 C 101.685 115.062 105.365 115.062 105.892 115.062 C 106.418 115.062 113.217 112.807 113.217 112.807 C 113.217 112.807 117.086 106.193 117.086 106.08 C 117.086 105.967 116.673 101.684 116.673 101.684 L 112.39 96.272 L 106.606 94.694 L 103.825 94.505 Z "/>
          <path id="Shape" fill="#30419A" stroke="none" stroke-width="1" d="M 118.188 102.726 C 117.679 101.127 117.117 99.49 116.243 98.077 C 115.48 96.842 114.43 95.585 113.196 94.891 C 111.504 93.938 109.536 93.455 107.656 92.863 C 103.902 91.681 100.579 92.892 98.368 96.127 C 98.127 96.479 97.64 96.961 97.331 96.918 C 96.05 96.743 94.715 96.571 93.546 96.064 C 92.35 95.544 91.217 94.895 90.072 94.274 C 89.491 93.959 88.908 93.647 88.309 93.369 C 87.885 93.172 87.14 92.89 86.685 93.082 C 86.343 93.227 85.956 93.59 86.013 93.978 C 86.071 94.375 86.411 94.823 86.74 95.045 C 86.865 95.13 87.889 95.511 87.88 95.537 C 87.066 97.883 86.267 100.104 85.529 102.344 C 85.262 103.157 84.718 103.178 83.987 102.949 C 83.396 102.764 82.596 102.772 82.096 103.213 C 81.809 103.468 81.702 103.975 81.902 104.302 C 82.182 104.758 82.769 104.94 83.246 105.091 C 83.925 105.305 84.607 105.516 85.29 105.716 C 86.835 106.17 88.396 106.578 89.978 106.88 C 90.689 107.016 91.407 107.153 92.127 107.193 C 92.214 107.197 92.309 107.195 92.41 107.191 C 92.845 107.175 93.374 107.117 93.7 107.364 C 94.213 107.754 94.253 109.209 94.488 109.808 C 95.326 111.941 97.512 113.73 99.439 114.873 C 101.78 116.262 104.545 116.502 107.192 116.096 C 109.164 115.795 110.813 114.881 112.586 114.144 C 114.139 113.499 115.123 112.252 115.868 111.037 C 116.948 109.275 117.545 107.196 118.188 105.2 C 118.432 104.445 118.428 103.483 118.188 102.726 Z M 116.246 105.724 C 115.453 109.631 113.353 112.719 109.373 113.894 C 104.604 115.302 97.166 114.193 96.666 107.998 C 96.444 105.247 94.259 106.004 92.234 105.416 C 90.958 105.045 89.676 104.649 88.4 104.263 C 88.218 104.207 87.988 103.778 88.035 103.582 C 88.49 101.651 88.989 99.729 89.501 97.813 C 89.608 97.408 89.817 97.031 90.033 96.513 C 92.708 97.575 95.365 98.61 98.005 99.689 C 98.96 100.079 99.21 99.367 99.545 98.799 C 100.566 97.074 102.036 95.801 103.95 95.391 C 105.24 95.113 106.69 95.267 108.011 95.52 C 110.036 95.909 112.062 96.557 113.595 97.989 C 115.809 100.056 116.856 102.721 116.246 105.724 Z "/>
        </g>
        <g id="Group">
          <path id="Shape" fill="#65B8E7" stroke="none" stroke-width="1" d="M 43.39 119.003 L 36.409 131.856 L 32.803 138.724 C 32.803 138.724 32.603 141.703 32.803 141.853 C 33.003 142.003 35.157 144.057 35.357 144.158 C 35.557 144.258 38.212 145.108 38.713 145.234 C 39.213 145.36 42.469 145.811 42.819 145.811 C 43.17 145.811 47.277 145.01 47.277 145.01 L 51.284 138.724 L 56.848 125.818 L 47.678 120.884 L 43.39 119.003 Z "/>
          <path id="Shape" fill="#30419A" stroke="none" stroke-width="1" d="M 53.885 130.414 C 52.493 132.404 51.458 134.612 50.413 136.796 C 49.208 139.314 47.882 141.773 46.557 144.23 C 46.352 144.61 45.907 145.23 46.097 145.687 C 46.239 146.032 46.758 146.126 47.077 146.138 C 47.814 146.163 48.304 145.24 48.632 144.713 C 49.15 143.88 49.634 143.028 50.1 142.165 C 51.032 140.441 51.888 138.678 52.798 136.942 C 52.907 136.733 53.017 136.526 53.128 136.319 C 53.844 134.98 54.605 133.665 55.367 132.352 C 55.745 131.701 56.095 131.021 56.504 130.39 C 56.813 129.914 57.179 129.687 57.144 129.05 C 57.12 128.625 56.869 128.219 56.497 128.012 C 56.017 127.748 55.844 127.966 55.522 128.313 C 54.919 128.965 54.394 129.686 53.885 130.414 Z "/>
          <path id="Shape" fill="#30419A" stroke="none" stroke-width="1" d="M 35.943 135.784 C 37.392 133.055 38.496 130.137 40.008 127.447 C 41.101 125.502 42.322 123.631 43.558 121.775 C 43.868 121.311 44.179 120.847 44.489 120.383 C 44.623 120.182 44.708 119.963 44.851 119.771 C 45.005 119.563 44.993 119.453 45.028 119.186 C 45.059 118.954 45.123 118.683 45.068 118.445 C 44.978 118.047 44.449 117.612 44.067 117.522 C 43.832 117.466 43.533 117.554 43.322 117.662 C 43.107 117.773 43.075 117.884 42.955 118.108 C 42.694 118.596 42.429 119.084 42.164 119.57 C 41.642 120.526 41.114 121.477 40.585 122.428 C 39.664 124.085 38.692 125.716 37.808 127.394 C 36.457 129.957 35.218 132.58 33.828 135.121 C 33.343 136.008 32.829 136.879 32.308 137.745 C 31.899 138.424 31.108 139.266 31.39 140.13 C 31.507 140.489 31.856 140.697 32.225 140.645 C 32.527 140.604 32.804 140.475 33.064 140.335 C 33.18 140.273 33.325 140.231 33.424 140.142 C 33.652 139.937 33.804 139.504 33.961 139.244 C 34.19 138.864 34.417 138.484 34.642 138.102 C 35.09 137.338 35.528 136.567 35.943 135.784 Z "/>
        </g>
        <g id="Group">
          <path id="Shape" fill="#65B8E7" stroke="none" stroke-width="1" d="M 57.716 128.481 C 57.716 128.481 66.868 147.612 66.968 147.963 C 67.067 148.314 68.87 151.521 68.87 151.521 C 68.87 151.521 72.276 151.521 72.577 151.521 C 72.877 151.521 77.293 150.268 77.84 150.268 C 78.387 150.268 81.314 148.865 81.314 148.865 L 83.095 145.809 L 74.43 123.611 L 71.325 121.757 L 57.716 128.481 Z "/>
          <path id="Shape" fill="#30419A" stroke="none" stroke-width="1" d="M 64.197 141.175 C 63.4 139.362 62.731 137.498 62.005 135.657 C 61.708 134.904 61.617 134.112 61.257 133.395 C 60.849 132.586 60.289 131.856 59.838 131.071 C 59.533 130.538 59.355 129.926 59.126 129.359 C 58.917 128.844 58.67 128.042 58.136 127.754 C 57.874 127.614 57.371 127.663 57.136 127.835 C 56.699 128.154 56.821 129.068 56.825 129.521 C 56.827 129.755 56.809 130.064 56.946 130.268 C 57.117 130.521 57.355 130.699 57.505 130.993 C 58.517 132.963 59.575 134.911 60.501 136.921 C 61.675 139.469 62.617 142.129 63.872 144.633 C 64.493 145.873 65.124 147.108 65.758 148.341 C 66.076 148.959 67.066 150.306 67.891 149.541 C 68.283 149.178 67.885 148.41 67.701 148.042 C 67.313 147.268 66.881 146.516 66.472 145.753 C 65.669 144.25 64.883 142.736 64.197 141.175 Z "/>
          <path id="Shape" fill="#30419A" stroke="none" stroke-width="1" d="M 71.922 120.52 C 72.001 120.71 72.099 120.899 72.185 121.084 C 72.573 121.91 72.959 122.738 73.344 123.566 C 74.103 125.204 74.855 126.845 75.606 128.487 C 75.876 129.079 76.101 129.693 76.34 130.3 C 77.446 133.105 78.554 135.908 79.653 138.716 C 80.114 139.895 80.56 141.081 81.016 142.262 C 81.371 143.179 81.648 144.57 82.584 145.08 C 82.829 145.214 83.239 145.289 83.504 145.179 C 83.948 144.995 83.975 144.514 83.815 144.11 C 83.614 143.608 83.357 143.123 83.154 142.619 C 82.207 140.266 81.228 137.926 80.285 135.572 C 79.601 133.863 78.948 132.141 78.287 130.423 C 77.336 127.951 76.468 125.442 75.41 123.016 C 75.01 122.1 74.64 121.145 74.604 120.132 C 74.589 119.711 74.805 119.434 74.541 119.04 C 74.337 118.737 73.963 118.481 73.589 118.477 C 72.969 118.472 72.549 118.793 72.106 119.202 C 71.66 119.614 71.736 120.069 71.922 120.52 Z "/>
        </g>
        <g id="Group">
          <path id="Shape" fill="#65B8E7" stroke="none" stroke-width="1" d="M 43.619 148.171 L 36.708 146.919 L 31.649 144.714 C 31.649 144.714 30.898 143.411 30.898 143.211 C 30.898 143.01 32.054 140.956 32.054 140.956 L 33.903 140.608 C 33.903 140.608 38.361 140.411 38.711 140.608 C 39.061 140.805 42.017 142.108 42.217 142.259 C 42.417 142.409 44.52 143.812 44.52 143.812 L 46.424 145.115 L 46.424 147.269 L 44.52 148.171 L 43.619 148.171 Z "/>
          <path id="Shape" fill="#FFFFFF" stroke="none" stroke-width="1" d="M 43.97 148.372 L 29.646 144.063 L 22.885 156.84 L 19.229 154.485 L 11.365 154.735 L 5.505 159.079 L 3.552 164.556 L 3.552 169.367 L 8.21 173.476 L 28.244 177.785 L 43.97 149.728 L 43.97 148.372 "/>
          <path id="Shape" fill="#30419A" stroke="none" stroke-width="1" d="M 44.93 146.555 C 44.767 146.765 44.391 146.881 44.101 146.906 C 41.828 147.099 39.674 146.475 37.487 145.982 C 35.299 145.489 33.322 144.684 31.613 143.066 C 31.525 142.984 33.244 140.379 33.403 140.118 C 33.601 139.792 33.865 139.484 33.745 139.078 C 33.634 138.702 33.261 138.477 32.89 138.43 C 32.321 138.358 31.591 138.687 31.275 139.166 C 31.189 139.297 31.174 139.419 31.127 139.56 C 31.058 139.772 30.941 139.958 30.822 140.156 C 30.553 140.606 30.287 141.057 30.026 141.513 C 29.191 142.974 28.444 144.485 27.673 145.983 C 27.009 147.274 26.416 148.604 25.702 149.866 C 24.786 151.482 23.78 153.048 22.847 154.578 C 21.981 154.293 21.268 153.983 20.523 153.829 C 18.578 153.426 16.626 152.851 14.663 152.79 C 11.999 152.706 9.656 154.026 7.75 155.731 C 5.561 157.69 3.5 159.74 2.477 162.775 C 1.224 166.489 1.881 170.393 5.059 172.793 C 6.619 173.971 8.278 175.153 10.08 175.843 C 12.641 176.824 15.361 177.409 18.037 178.06 C 20.138 178.57 22.257 179.068 24.39 179.425 C 25.493 179.609 26.661 179.828 27.782 179.701 C 28.956 179.569 29.414 179.177 29.951 178.16 C 32.183 173.936 34.498 169.783 36.747 165.538 C 38.147 162.896 39.415 160.183 40.827 157.548 C 41.735 155.853 42.814 154.251 43.791 152.593 C 44.943 150.638 45.905 148.546 47.242 146.731 C 47.719 146.084 48.726 144.992 48.126 144.129 C 47.742 143.576 46.811 143.982 46.441 144.345 C 46.174 144.609 46.039 145.045 45.82 145.36 C 45.536 145.766 45.235 146.162 44.93 146.555 Z M 40.7 153.749 C 39.437 156.073 38.192 158.405 36.943 160.736 C 35.264 163.871 33.604 167.017 31.903 170.142 C 31.148 171.53 30.279 172.856 29.524 174.244 C 28.408 176.297 27.494 176.744 25.176 176.518 C 20.436 176.055 15.825 174.985 11.273 173.642 C 9.013 172.976 7.016 171.721 5.509 169.958 C 4.301 168.546 3.732 166.733 4.227 164.781 C 5.312 160.506 7.924 157.584 11.937 155.764 C 15.307 154.235 18.342 154.882 21.455 156.874 C 21.08 157.477 20.733 158.138 20.285 158.72 C 19.86 159.273 19.556 159.705 19.815 160.517 C 20.104 161.427 20.482 161.758 21.28 161.342 C 21.513 161.157 21.748 160.976 21.977 160.785 C 22.205 160.594 22.511 160.437 22.635 160.19 C 23.784 157.897 24.849 155.559 26.042 153.289 C 27.289 150.916 28.659 148.608 29.955 146.26 C 30.224 145.773 30.417 145.63 31.02 145.908 C 33.036 146.839 35.065 147.767 37.162 148.482 C 38.792 149.038 40.531 149.271 42.22 149.658 C 42.403 149.699 42.57 149.811 42.844 149.936 C 42.109 151.241 41.388 152.487 40.7 153.749 Z "/>
        </g>
        <g id="Group">
          <path id="Shape" fill="#65B8E7" stroke="none" stroke-width="1" d="M 78.17 154.025 L 71.81 154.276 L 69.606 153.323 L 68.554 151.519 L 69.706 149.769 C 69.706 149.769 72.521 147.661 72.912 147.711 C 73.302 147.761 79.122 145.807 79.122 145.807 L 81.527 145.23 L 84.181 147.11 L 85.182 149.769 C 85.182 149.769 83.23 151.57 83.129 151.77 C 83.029 151.97 78.17 154.025 78.17 154.025 Z "/>
          <path id="Shape" fill="#FFFFFF" stroke="none" stroke-width="1" d="M 85.182 150.467 L 77.519 153.574 L 69.306 153.574 L 81.476 176.072 L 87.736 185.692 C 87.736 185.692 92.945 185.191 93.095 185.191 C 93.246 185.191 107.319 179.779 107.319 179.779 L 109.523 173.716 L 106.968 166.1 L 100.458 161.441 L 94.798 160.965 L 90.691 160.965 L 89.74 160.588 L 85.182 150.467 Z "/>
          <path id="Shape" fill="#30419A" stroke="none" stroke-width="1" d="M 82.144 145.003 C 82.722 146.378 83.444 147.693 84.127 149.083 C 79.843 151.903 75.374 153.244 70.416 152.642 C 70.189 152.614 69.894 152.376 69.797 152.16 C 69.45 151.391 69.08 150.631 68.697 149.88 C 68.359 149.216 68.079 148.491 67.686 147.865 C 67.486 147.547 67.167 147.424 66.801 147.409 C 66.4 147.393 65.877 147.493 65.797 147.954 C 65.71 148.454 66.125 148.985 66.34 149.402 C 68.244 153.078 70.185 156.734 72.089 160.411 C 74.795 165.631 77.381 170.917 80.213 176.069 C 81.984 179.29 84.15 182.294 86.06 185.442 C 86.835 186.72 88.014 187.031 89.265 186.929 C 91.119 186.779 92.981 186.497 94.79 186.064 C 97.332 185.456 99.888 184.814 102.332 183.902 C 105.225 182.822 108.067 181.42 109.772 178.707 C 110.522 177.512 110.928 175.887 110.892 174.472 C 110.854 172.961 110.084 171.474 109.683 169.964 C 109.279 168.445 108.663 167.066 107.466 165.996 C 104.704 163.527 102.467 160.836 98.714 160.071 C 97.207 159.763 95.661 159.862 94.118 159.862 C 93.121 159.862 91.916 160.126 90.959 160.01 C 90.059 159.9 89.634 158.245 89.231 157.527 C 88.414 156.067 87.906 154.371 87.284 152.819 C 86.535 150.952 85.786 149.084 85.036 147.217 C 84.657 146.274 84.278 145.331 83.899 144.387 C 83.649 143.766 83.103 142.926 82.354 142.873 C 81.992 142.848 81.821 143.048 81.799 143.387 C 81.76 144.032 81.903 144.427 82.144 145.003 Z M 86.713 156.231 C 87.611 159.163 88.471 162.102 89.801 164.877 C 89.949 165.189 90.036 165.532 90.128 165.867 C 90.566 167.456 90.747 167.557 92.561 167.033 C 92.649 167.007 91.443 163.585 91.621 163.164 C 91.985 162.302 94.138 162.331 94.931 162.311 C 97.492 162.247 100.195 162.937 102.287 164.448 C 105 166.406 107.287 168.702 108.082 172.196 C 108.763 175.187 108.25 177.504 105.783 179.475 C 104.343 180.627 102.093 181.279 100.38 181.958 C 98.422 182.734 96.414 183.403 94.347 183.816 C 92.738 184.137 91.263 184.671 89.607 184.745 C 88.44 184.796 87.889 184.846 87.246 183.881 C 86.464 182.708 85.757 181.494 85.055 180.269 C 83.601 177.729 82.182 175.17 80.7 172.646 C 79.395 170.423 77.852 168.334 76.638 166.066 C 74.75 162.54 73.052 158.913 71.278 155.326 C 71.229 155.227 71.239 155.099 71.202 154.861 C 76.162 155.737 80.547 154.383 84.963 152.04 C 85.531 153.38 86.262 154.763 86.713 156.231 Z "/>
        </g>
      </g>
    </g>
  </g>
</svg>