<svg xmlns="http://www.w3.org/2000/svg" xmlns:xlink="http://www.w3.org/1999/xlink" version="1.1" width="185.52761840820312" height="139.4540252685547" viewBox="-0.11046484112739563 -0.43190717697143555 185.52761840820312 139.4540252685547">
  <!-- Exported by Scratch - http://scratch.mit.edu/ -->
  <g id="ID0.8851484144106507">
    <g id="Page-1">
      <g id="dinosaur1-b-[animals,dinosaur,alex-eben-meyer,sauropod]">
        <path id="Shape" fill="#008264" stroke="none" stroke-width="1" d="M 125.25 92.5 C 125.25 92.5 120.525 127.555 119.655 136.67 C 121.155 137.125 131.215 136.855 132.735 136.72 C 134.785 131.605 141.655 90.89 141.655 90.89 L 125.25 92.5 Z "/>
        <path id="Shape" fill="#008264" stroke="none" stroke-width="1" d="M 76.55 92.5 C 76.55 92.5 73.915 127.885 73.05 137 C 74.55 137.45 84.13 136.85 85.65 136.715 C 87.705 131.595 91.39 91.1 91.39 91.1 L 76.55 92.5 Z "/>
        <path id="Shape" fill="#005A5A" stroke="none" stroke-width="1" d="M 2.783 44.32 C 8.488 43.165 15.103 43.4 18.603 48.78 C 22.033 54.045 21.818 62.105 21.533 68.105 C 21.233 74.325 20.623 80.43 19.823 86.605 C 19.513 88.98 18.188 102.225 19.823 111.28 C 21.083 118.225 24.943 121.78 27.218 121.78 C 32.458 121.78 37.748 118.75 39.408 114.705 C 41.068 110.66 41.408 106.45 41.623 102.16 C 41.823 98.03 42.123 93.94 42.288 89.815 C 42.453 85.69 43.763 71.03 44.323 66.925 C 44.448 70.89 53.798 82.425 59.733 87.11 C 58.538 97.41 58.343 129.555 47.668 135.25 C 38.813 139.975 23.098 139.79 15.353 133.335 C 7.438 126.74 6.028 116.27 6.583 105.965 C 7.291 93.67 8.723 81.427 10.873 69.3 C 11.673 64.67 12.688 57.915 10.228 53.655 C 8.678 50.97 6.228 49.93 3.418 49.23 C 2.043 48.89 0.633 48.88 0.418 47.375 C 0.178 46 1.498 44.58 2.783 44.32 Z "/>
        <path id="Shape" fill="#00A08C" stroke="none" stroke-width="1" d="M 54.513 46.025 C 62.648 37.71 73.098 31.92 84.928 32.265 C 98.358 32.655 111.993 38.19 114.763 36.03 C 119.073 32.67 120.103 20.375 121.443 19.17 L 138.243 31.965 C 140.453 50.555 143.358 74.5 143.388 77.2 C 143.543 85.07 142.188 96.595 137.343 102.115 C 132.498 107.635 127.108 107.835 124.148 108.845 C 120.678 110.03 86.858 110.72 80.928 110.025 C 80.788 109.905 59.403 111.27 51.863 101.305 C 44.323 91.34 43.303 79.7 43.308 75.61 C 43.323 64.69 46.733 54 54.513 46.025 Z "/>
        <path id="Shape" fill="#00A08C" stroke="none" stroke-width="1" d="M 101.48 92.5 C 101.48 92.5 98.845 127.885 97.98 137 C 99.48 137.45 109.06 136.85 110.58 136.715 C 112.63 131.6 116.315 91.105 116.315 91.105 L 101.48 92.5 Z "/>
        <path id="Shape" fill="#00A08C" stroke="none" stroke-width="1" d="M 53.84 92.5 C 53.84 92.5 51.205 127.885 50.34 137 C 51.84 137.45 61.42 136.85 62.94 136.715 C 64.995 131.6 68.675 91.105 68.675 91.105 L 53.84 92.5 Z "/>
        <g id="Group-2">
          <path id="Shape" fill="#00A08C" stroke="none" stroke-width="1" d="M 152.32 117.09 C 152.215 117.345 151.705 119.735 151.655 119.86 C 152.83 127.24 161.205 126.755 167.08 125.68 C 174.545 124.315 179.01 119.12 181.905 112.42 L 152.32 117.09 Z "/>
          <path id="Shape" fill="#000000" stroke="none" stroke-width="1" d="M 153.051 116.185 C 153.141 116.8 151.886 119.865 154.881 121.435 C 157.578 122.842 160.739 123.063 163.606 122.045 C 166.516 120.985 168.871 118.22 170.026 115.26 L 153.051 116.185 Z "/>
          <path id="Shape" fill="#FFFFFF" stroke="none" stroke-width="1" d="M 152.038 116.875 C 152.038 116.875 152.538 118.955 153.063 119.57 C 153.797 120.392 155.031 120.529 155.928 119.89 C 157.218 118.985 157.013 116.965 157.013 116.965 L 152.038 116.875 Z "/>
          <path id="Shape" fill="#00A08C" stroke="none" stroke-width="1" d="M 163.298 85.85 C 163.089 88.046 162.532 90.194 161.648 92.215 C 160.393 95.05 157.983 98.3 155.253 99.885 C 152.713 101.385 149.523 101.165 147.653 103.75 C 144.318 108.37 146.558 116.25 151.828 118.325 C 154.188 119.255 157.193 119.46 159.693 119.27 C 161.413 119.135 167.548 118.62 173.078 116.115 C 176.958 114.36 178.688 114.31 181.943 112.42 C 185.233 104.615 185.323 94.635 184.443 85.85 L 163.298 85.85 Z "/>
        </g>
        <path id="Shape" fill="#00A08C" stroke="none" stroke-width="1" d="M 142.57 75.58 L 119.295 75.58 C 120.445 74.325 121.295 72.555 121.795 70.13 C 122.945 64.91 122.25 58.8 121.765 53.51 C 121.22 47.6 120.075 42.745 119.955 36.81 C 119.835 30.875 119.79 24.995 121.455 19.17 C 123.24 12.93 128.225 6.81 133.75 3.67 C 144.355 -2.395 157.325 -0.465 166.75 6.945 C 175.84 14.085 181.525 26.35 183.075 37.65 C 183.933 43.878 184.292 50.165 184.15 56.45 C 184.015 61.95 184.515 91.64 184.85 95.765 L 163.625 93.89 C 163.775 92.47 162.355 59.22 162.165 48.13 C 162.07 42.675 161.325 36.395 159.105 31.355 C 157.2 27.02 152.065 22.565 147.35 25.925 C 143.465 28.695 141.73 34.49 140.88 38.925 C 139.7 45.11 139.74 51.35 140.425 57.595 C 140.895 61.445 141.675 68.05 142.57 75.58 Z "/>
        <g id="Group">
          <path id="Shape" fill="#005A5A" stroke="none" stroke-width="1" d="M 159.646 113.385 C 159.376 111.415 161.396 110.135 162.096 112.845 C 162.831 115.715 159.916 115.36 159.646 113.385 Z "/>
          <path id="Shape" fill="#005A5A" stroke="none" stroke-width="1" d="M 148.639 111.705 C 148.374 109.735 150.394 108.45 151.089 111.165 C 151.829 114.035 148.909 113.675 148.639 111.705 Z "/>
          <path id="Shape" fill="#000000" stroke="none" stroke-width="1" d="M 143.754 108.65 L 142.974 108.47 C 142.42 107.337 142.486 105.998 143.149 104.925 L 143.724 105.04 C 144.619 105.79 144.644 107.795 143.754 108.65 Z "/>
          <path id="Shape" fill="#000000" stroke="none" stroke-width="1" d="M 177.86 108.47 L 177.075 108.29 C 176.523 107.156 176.589 105.819 177.25 104.745 L 177.825 104.86 C 178.715 105.61 178.74 107.615 177.86 108.47 Z "/>
        </g>
      </g>
    </g>
  </g>
</svg>