<svg width="270px" height="50px" viewBox="0 0 270 50" version="1.1" xml:space="preserve" xmlns="http://www.w3.org/2000/svg" xmlns:xlink="http://www.w3.org/1999/xlink">
  <!-- Generator: Sketch 49.3 (51167) - http://www.bohemiancoding.com/sketch -->
  <defs/>
  <g>
    <title>broom</title>
    <desc>Created with Sketch.</desc>
    <g id="broom" stroke="none" stroke-width="1" fill="none" fill-rule="evenodd">
      <g id="Broom" transform="translate(135.000000, 25.000000) scale(-1, 1) translate(-135.000000, -25.000000) translate(3.000000, 3.000000)" fill-rule="nonzero">
        <g id="Group" transform="translate(161.000000, 0.000000)">
          <path d="M98.7,15.4 C96.4,14.6 83.4,13.1 83.4,13.1 C89.1,12.1 99,13.4 99,13.4 C90.2,5.1 73.9,6.1 73.9,6.1 C79.6,4 94.6,7.1 94.6,7.1 C74.4,-1.7 50.8,6.3 50.8,6.3 C59.3,3 70.1,1 70.1,1 C35.6,3.6 28.7,12.8 28.7,12.8 C19.1,5 9.8,12.3 9.8,12.3 C11.6,8.9 19.6,6.6 19.6,6.6 C3.5,8.9 0.4,22.2 0.4,22.2 C-0.1,28.9 8.7,42.2 26.6,34.1 C26.6,34.1 45.8,49.4 80.8,40.8 C80.8,40.8 73.3,41.8 67.3,40.3 C67.3,40.3 89.1,39.3 97.6,32.5 C97.6,32.5 87,37.4 72.2,37.2 C72.2,37.2 92.2,34.3 99.4,27.6 C99.4,27.6 95.5,29.2 91.4,29.2 C91.4,29.2 98.9,26.9 102,23 C102,23 94.7,24.8 90.3,24.8 C90.3,24.8 99.4,22.7 101.4,20.7 C101.4,20.7 91.6,18.6 85.6,19.7 C85.6,19.7 97.3,18.4 100.4,18.4 C100.4,18.4 95.2,17.1 92.6,17.1 L98.7,15.4 Z" id="Shape" fill="#F2C063"/>
          <path d="M26.7,34.1 C26.7,34.1 26.3,34.3 25.6,34.7 C24.9,35.1 23.9,35.5 22.6,36 C22,36.2 21.2,36.4 20.5,36.6 C19.7,36.8 18.9,36.9 18.1,37 C17.2,37.1 16.4,37.1 15.5,37.1 C14.6,37.1 13.7,37 12.8,36.8 L11.5,36.4 C11.1,36.2 10.7,36.1 10.2,35.9 C9.8,35.7 9.4,35.5 9,35.3 C8.6,35.1 8.2,34.9 7.9,34.7 C7.2,34.2 6.5,33.7 5.9,33.2 C5.3,32.7 4.8,32.1 4.3,31.6 C3.8,31.1 3.5,30.6 3.2,30.1 C2.9,29.6 2.7,29.2 2.5,28.9 C2.1,28.2 2,27.8 2,27.8 C2,27.8 2.2,28.2 2.6,28.9 C3,29.6 3.7,30.5 4.6,31.4 C5.1,31.9 5.6,32.4 6.2,32.9 C6.8,33.4 7.5,33.8 8.2,34.3 C8.6,34.5 8.9,34.7 9.3,34.9 C9.7,35.1 10.1,35.2 10.5,35.4 C10.9,35.5 11.3,35.7 11.8,35.8 L13.1,36.1 C14,36.3 14.8,36.4 15.7,36.4 C16.6,36.4 17.4,36.4 18.3,36.4 C20,36.3 21.5,36 22.8,35.6 C25,34.9 26.7,34.1 26.7,34.1 Z" id="Shape" fill="#D18B44"/>
          <path d="M9.8,12.3 C9.8,12.3 10,12.1 10.5,11.7 C11,11.4 11.6,10.9 12.5,10.5 C12.9,10.3 13.4,10.1 13.9,9.9 C14.4,9.7 15,9.5 15.6,9.4 C16.2,9.3 16.8,9.2 17.4,9.1 C18,9 18.7,9 19.3,9 C19.9,9 20.6,9.1 21.2,9.2 C21.8,9.3 22.4,9.5 23,9.6 C23.6,9.8 24.1,10 24.6,10.2 C25.1,10.4 25.6,10.7 26,10.9 C26.4,11.1 26.8,11.3 27.1,11.6 C27.4,11.8 27.7,12 27.9,12.2 C28.3,12.5 28.6,12.7 28.6,12.7 C28.6,12.7 28.3,12.6 27.8,12.3 C27.6,12.2 27.3,12 26.9,11.8 C26.6,11.6 26.2,11.4 25.7,11.2 C25.3,11 24.8,10.8 24.3,10.6 C23.8,10.4 23.3,10.3 22.7,10.1 C22.1,10 21.5,9.8 20.9,9.7 C20.3,9.7 19.7,9.5 19.1,9.5 C18.5,9.5 17.9,9.4 17.3,9.5 C16.7,9.5 16.1,9.6 15.5,9.7 C14.9,9.8 14.4,10 13.9,10.1 C13.4,10.3 12.9,10.4 12.5,10.6 C11.6,10.9 10.9,11.3 10.4,11.6 C10.1,12.1 9.8,12.3 9.8,12.3 Z" id="Shape" fill="#D18B44"/>
          <path d="M19.7,6.6 C19.7,6.6 18.2,6.7 16.2,7.4 C15.7,7.5 15.1,7.8 14.5,8 C13.9,8.2 13.3,8.5 12.7,8.8 C12.1,9.1 11.5,9.4 10.9,9.8 C10.3,10.1 9.7,10.6 9.1,11 C8.5,11.4 8,11.9 7.4,12.3 C6.9,12.8 6.4,13.3 5.9,13.7 C5.4,14.2 5,14.7 4.6,15.1 C4.2,15.5 3.9,16.1 3.5,16.5 C3.2,16.9 2.9,17.3 2.6,17.7 C2.4,18.1 2.2,18.4 2,18.7 C1.7,19.2 1.5,19.5 1.5,19.5 C1.5,19.5 1.7,19.2 1.9,18.6 C2,18.3 2.2,18 2.4,17.6 C2.6,17.2 2.9,16.8 3.2,16.3 C3.5,15.8 3.8,15.3 4.2,14.8 C4.6,14.3 5,13.8 5.5,13.3 C6,12.8 6.5,12.3 7,11.8 C7.6,11.3 8.1,10.8 8.7,10.4 C9.3,10 9.9,9.6 10.6,9.2 C11.2,8.8 11.9,8.5 12.5,8.2 C13.1,7.9 13.8,7.7 14.4,7.5 C15,7.3 15.6,7.1 16.1,7 C17.2,6.7 18.1,6.6 18.7,6.6 C19.3,6.6 19.7,6.6 19.7,6.6 Z" id="Shape" fill="#D18B44"/>
          <path d="M30.9,11.1 C30.9,11.1 31.1,11 31.3,10.8 C31.5,10.6 31.9,10.3 32.3,10 C32.8,9.7 33.3,9.3 34,8.9 C34.7,8.5 35.5,8.1 36.3,7.7 C37.2,7.3 38.1,6.9 39.2,6.5 C40.2,6.1 41.3,5.8 42.5,5.4 C43.7,5.1 44.9,4.7 46.1,4.4 C47.3,4.1 48.6,3.8 49.8,3.5 C51.1,3.3 52.3,3 53.6,2.8 C54.8,2.6 56.1,2.4 57.3,2.2 C59.7,1.8 61.9,1.7 63.8,1.4 C65.7,1.2 67.3,1.1 68.4,1 C69.5,0.9 70.2,0.9 70.2,0.9 C70.2,0.9 67.7,1.3 63.8,1.7 C61.9,2 59.7,2.3 57.3,2.7 C56.1,2.9 54.9,3.1 53.7,3.3 C52.5,3.5 51.2,3.8 50,4 C48.8,4.3 47.5,4.5 46.3,4.8 C45.1,5.1 43.9,5.4 42.7,5.7 C41.6,6.1 40.4,6.3 39.4,6.7 C38.4,7 37.4,7.4 36.5,7.8 C35.6,8.2 34.8,8.5 34.1,8.9 C33.4,9.2 32.8,9.6 32.4,9.9 C31.9,10.2 31.6,10.5 31.3,10.7 C31,11 30.9,11.1 30.9,11.1 Z" id="Shape" fill="#D18B44"/>
          <path d="M4.3,20.2 C4.3,20.2 4.4,20 4.6,19.6 C4.8,19.2 5.1,18.7 5.6,18.1 C5.8,17.8 6.1,17.5 6.4,17.2 C6.7,16.9 7,16.6 7.4,16.3 C7.8,16 8.2,15.8 8.6,15.5 C9,15.3 9.5,15 9.9,14.8 C10.4,14.6 10.8,14.4 11.3,14.3 C11.8,14.2 12.2,14 12.7,14 C13.2,13.9 13.6,13.9 14,13.8 C14.4,13.8 14.8,13.8 15.2,13.7 C15.9,13.6 16.6,13.8 17,13.8 C17.4,13.8 17.7,13.9 17.7,13.9 C17.7,13.9 17.5,13.9 17,14 C16.6,14 16,14.1 15.2,14.2 C14.8,14.2 14.5,14.3 14,14.4 C13.6,14.5 13.2,14.6 12.7,14.7 C12.3,14.8 11.8,14.9 11.4,15.1 C10.9,15.2 10.5,15.4 10.1,15.6 C9.7,15.8 9.2,16 8.8,16.2 C8.4,16.4 8,16.7 7.6,16.9 C7.2,17.2 6.9,17.4 6.6,17.7 C6.3,18 6,18.2 5.7,18.5 C5.2,19 4.8,19.5 4.6,19.8 C4.5,20 4.3,20.2 4.3,20.2 Z" id="Shape" fill="#D18B44"/>
          <path d="M13.2,17 C13.2,17 13.5,16.8 14,16.6 C14.5,16.4 15.3,16.1 16.2,15.8 C16.7,15.7 17.2,15.6 17.7,15.5 C18.2,15.4 18.8,15.3 19.4,15.3 C20,15.3 20.6,15.2 21.3,15.3 C21.9,15.3 22.6,15.3 23.2,15.4 C23.5,15.5 23.8,15.5 24.2,15.6 C24.5,15.7 24.8,15.8 25.1,15.8 C25.7,15.9 26.3,16.2 26.9,16.4 C27.5,16.6 28,16.9 28.5,17.2 C29,17.4 29.4,17.7 29.8,18 C30.2,18.3 30.6,18.5 30.9,18.8 C31.2,19.1 31.4,19.3 31.6,19.5 C32,19.9 32.2,20.1 32.2,20.1 C32.2,20.1 31.9,19.9 31.5,19.6 C31.3,19.4 31,19.2 30.7,19 C30.4,18.8 30,18.6 29.6,18.3 C29.2,18 28.8,17.8 28.3,17.6 C27.8,17.4 27.3,17.1 26.7,16.9 C26.1,16.7 25.6,16.5 25,16.4 C24.7,16.3 24.4,16.3 24.1,16.2 L23.2,16.1 C22.6,16 22,16 21.3,15.9 C20.7,15.9 20.1,15.9 19.5,15.9 C18.9,16 18.3,16 17.8,16 C17.3,16.1 16.8,16.1 16.3,16.2 C15.4,16.4 14.6,16.6 14.1,16.7 C13.5,16.9 13.2,17 13.2,17 Z" id="Shape" fill="#D18B44"/>
          <path d="M29.2,29.6 C29.2,29.6 29.1,29.8 28.8,30.1 C28.5,30.4 28.1,30.9 27.6,31.3 C27.3,31.5 27,31.7 26.6,31.9 C26.3,32.1 25.9,32.3 25.5,32.5 C25.1,32.7 24.7,32.9 24.2,33 C23.8,33.1 23.3,33.3 22.8,33.4 C22.3,33.5 21.9,33.6 21.4,33.6 C20.9,33.7 20.5,33.7 20,33.7 C19.6,33.7 19.1,33.7 18.7,33.7 C18.3,33.7 17.9,33.7 17.6,33.6 C16.9,33.6 16.3,33.4 15.9,33.4 C15.5,33.3 15.3,33.3 15.3,33.3 C15.3,33.3 15.5,33.3 15.9,33.3 C16.3,33.3 16.9,33.3 17.6,33.3 C17.9,33.3 18.3,33.3 18.7,33.3 C19.1,33.3 19.5,33.2 19.9,33.2 C20.3,33.2 20.8,33.1 21.2,33 C21.7,32.9 22.1,32.9 22.5,32.8 C23,32.7 23.4,32.6 23.8,32.5 C24.2,32.4 24.6,32.2 25.1,32.1 C25.5,31.9 25.9,31.8 26.2,31.6 C26.6,31.4 26.9,31.3 27.2,31.1 C28.6,30.4 29.2,29.6 29.2,29.6 Z" id="Shape" fill="#D18B44"/>
          <path d="M4.9,24.6 C4.9,24.6 5.1,24.7 5.5,25 C5.9,25.2 6.5,25.5 7.2,25.8 C7.9,26.1 8.7,26.4 9.7,26.7 C10.6,27 11.6,27.2 12.6,27.4 C13.1,27.5 13.6,27.6 14.1,27.6 C14.6,27.6 15.1,27.7 15.6,27.7 C16.1,27.7 16.5,27.7 17,27.7 C17.4,27.7 17.9,27.7 18.2,27.7 C19,27.7 19.6,27.6 20.1,27.6 C20.6,27.6 20.8,27.6 20.8,27.6 C20.8,27.6 20.5,27.7 20.1,27.8 C19.7,27.9 19,28.1 18.2,28.2 C17.4,28.3 16.5,28.4 15.5,28.4 C15,28.4 14.5,28.4 14,28.3 C13.5,28.3 13,28.2 12.4,28.1 C11.4,27.9 10.3,27.7 9.4,27.3 C8.9,27.2 8.5,27 8.1,26.8 C7.7,26.6 7.3,26.4 7,26.2 C6.3,25.8 5.8,25.4 5.4,25.1 C5.1,24.8 4.9,24.6 4.9,24.6 Z" id="Shape" fill="#D18B44"/>
          <path d="M12.8,24.4 C12.8,24.4 14,24.5 15.9,24.5 C16.8,24.5 17.9,24.6 19,24.6 C20.1,24.7 21.4,24.7 22.6,24.7 C23.8,24.7 25,24.8 26.2,24.7 C27.3,24.7 28.4,24.6 29.3,24.5 C29.8,24.4 30.2,24.4 30.5,24.3 C30.9,24.2 31.2,24.2 31.4,24.1 C31.9,24 32.2,23.9 32.2,23.9 C32.2,23.9 31.9,24 31.4,24.2 C31.2,24.3 30.8,24.4 30.5,24.5 C30.1,24.6 29.7,24.7 29.3,24.8 C28.4,25 27.3,25.1 26.2,25.2 C25,25.3 23.8,25.3 22.6,25.3 C21.4,25.3 20.1,25.2 19,25.1 C17.9,25 16.8,24.9 15.9,24.8 C14.1,24.7 12.8,24.4 12.8,24.4 Z" id="Shape" fill="#D18B44"/>
          <path d="M30.9,28.6 C30.9,28.6 32.5,29.1 34.8,29.6 C36,29.9 37.4,30.2 38.9,30.5 C40.4,30.8 42,31.1 43.6,31.3 C44.4,31.4 45.2,31.5 46,31.6 C46.8,31.7 47.6,31.7 48.3,31.8 C49.1,31.9 49.8,31.9 50.5,31.9 C51.2,32 51.9,32 52.5,32 C53.7,32 54.7,32 55.5,32 C56.2,32 56.6,32 56.6,32 C56.6,32 56.2,32 55.5,32.1 C54.8,32.2 53.8,32.3 52.5,32.3 C51.9,32.3 51.2,32.3 50.5,32.3 C49.8,32.3 49,32.3 48.3,32.2 C47.5,32.1 46.7,32.1 45.9,32 C45.1,31.9 44.3,31.9 43.5,31.7 C41.9,31.5 40.3,31.2 38.8,30.9 C37.3,30.6 35.9,30.2 34.7,29.8 C32.4,29.2 30.9,28.6 30.9,28.6 Z" id="Shape" fill="#D18B44"/>
          <path d="M28.5,35.4 C28.5,35.4 29.2,35.9 30.5,36.5 C31.2,36.8 32,37.3 32.9,37.7 C33.8,38.1 34.9,38.6 36.1,39 C37.3,39.5 38.6,39.9 40,40.3 C41.4,40.7 42.8,41.1 44.4,41.5 C45.2,41.7 45.9,41.9 46.7,42 C47.5,42.1 48.3,42.3 49.1,42.4 L50.3,42.6 L51.5,42.7 C52.3,42.8 53.2,42.9 54,43 C55.7,43.2 57.4,43.2 59,43.3 C60.7,43.3 62.3,43.3 63.9,43.2 C65.5,43.1 67,43 68.4,42.8 C69.1,42.8 69.8,42.7 70.5,42.6 C71.2,42.5 71.8,42.4 72.4,42.3 C73.6,42.1 74.8,42 75.8,41.7 C76.8,41.5 77.7,41.3 78.4,41.1 C79.8,40.8 80.7,40.6 80.7,40.6 C80.7,40.6 79.9,40.8 78.5,41.2 C77.8,41.4 76.9,41.6 75.9,41.9 C74.9,42.2 73.8,42.4 72.5,42.6 C71.9,42.7 71.2,42.8 70.5,42.9 C69.8,43 69.1,43.1 68.4,43.2 C67,43.3 65.4,43.5 63.8,43.6 C62.2,43.6 60.6,43.7 58.9,43.7 C57.2,43.6 55.5,43.6 53.8,43.4 C53,43.3 52.1,43.2 51.3,43.1 L50,43 L48.8,42.8 C48,42.7 47.2,42.5 46.4,42.4 C45.6,42.2 44.8,42 44,41.8 C42.4,41.5 41,41 39.6,40.5 C38.2,40 36.9,39.6 35.8,39.1 C35.2,38.8 34.7,38.6 34.1,38.4 C33.6,38.1 33.1,37.9 32.6,37.7 C31.7,37.3 30.9,36.8 30.2,36.4 C29.2,35.9 28.5,35.4 28.5,35.4 Z" id="Shape" fill="#D18B44"/>
          <path d="M97.7,32.5 C97.7,32.5 97.1,33 96,33.7 C95.4,34 94.7,34.5 93.9,34.9 C93.1,35.4 92.1,35.8 91.1,36.3 C90,36.7 88.9,37.2 87.6,37.6 C86.4,38 85,38.4 83.6,38.7 C82.2,39 80.7,39.3 79.2,39.5 C77.7,39.7 76.2,39.9 74.6,40 C73.8,40 73.1,40.1 72.3,40.1 L71.2,40.2 L70.1,40.2 C68.6,40.2 67.1,40.2 65.7,40.1 C64.3,40 62.9,39.9 61.6,39.7 C60.3,39.5 59.1,39.3 57.9,39.1 C57.3,39 56.8,38.9 56.3,38.8 C55.8,38.7 55.3,38.6 54.8,38.5 C53.9,38.3 53.1,38.1 52.4,38 C51.1,37.7 50.4,37.5 50.4,37.5 C50.4,37.5 51.2,37.6 52.5,37.9 C53.2,38 54,38.2 54.9,38.3 C55.4,38.4 55.8,38.5 56.4,38.5 C56.9,38.6 57.5,38.6 58,38.7 C59.1,38.8 60.4,39 61.7,39.2 C63,39.3 64.4,39.4 65.8,39.5 C67.2,39.6 68.7,39.5 70.2,39.6 L71.3,39.6 L72.4,39.5 C73.2,39.5 73.9,39.4 74.7,39.4 C76.2,39.3 77.7,39.1 79.2,39 C80.7,38.7 82.1,38.5 83.5,38.2 C84.9,37.9 86.2,37.6 87.5,37.2 C88.8,36.9 89.9,36.4 91,36 C92,35.6 93,35.2 93.9,34.8 C94.7,34.4 95.5,34 96,33.7 C97,33 97.7,32.5 97.7,32.5 Z" id="Shape" fill="#D18B44"/>
          <path d="M99.5,27.6 C99.5,27.6 98.2,28.1 96.2,28.7 C95.2,29 94,29.3 92.8,29.6 C91.5,29.9 90.2,30.2 88.8,30.5 C87.4,30.8 86.1,31 84.8,31.2 C83.5,31.4 82.3,31.5 81.2,31.6 C80.7,31.7 80.2,31.6 79.8,31.7 C79.4,31.7 79,31.7 78.7,31.7 C78.1,31.7 77.7,31.6 77.7,31.6 C77.7,31.6 78,31.6 78.7,31.5 C79,31.5 79.4,31.5 79.8,31.4 C80.2,31.3 80.7,31.3 81.2,31.2 C81.7,31.1 82.3,31.1 82.9,31 C83.5,30.9 84.1,30.8 84.7,30.7 C86,30.5 87.3,30.2 88.7,29.9 C90.1,29.6 91.4,29.3 92.7,29.1 C94,28.8 95.2,28.6 96.2,28.3 C98.1,27.9 99.5,27.6 99.5,27.6 Z" id="Shape" fill="#D18B44"/>
          <path d="M102.1,22.9 C102.1,22.9 100,23.4 96.9,24 C95.3,24.3 93.5,24.6 91.6,24.9 C89.6,25.2 87.5,25.5 85.4,25.8 C83.3,26 81.2,26.3 79.2,26.4 C77.2,26.6 75.4,26.6 73.8,26.7 C73,26.7 72.3,26.7 71.6,26.7 C71,26.7 70.4,26.7 69.9,26.6 C69,26.5 68.4,26.5 68.4,26.5 C68.4,26.5 68.9,26.5 69.9,26.5 C70.4,26.5 70.9,26.5 71.6,26.4 C72.2,26.4 73,26.3 73.8,26.3 C75.4,26.2 77.2,26 79.2,25.8 C81.2,25.6 83.3,25.4 85.4,25.1 C87.5,24.9 89.6,24.6 91.6,24.3 C93.6,24 95.4,23.8 97,23.6 C100,23.2 102.1,22.9 102.1,22.9 Z" id="Shape" fill="#D18B44"/>
          <path d="M101.6,20.6 C101.6,20.6 98.3,20.1 93.4,19.7 C90.9,19.5 88,19.3 84.9,19.2 C83.3,19.2 81.7,19.1 80.1,19.1 C78.5,19.1 76.8,19.1 75.2,19.1 C73.5,19.1 71.9,19.2 70.3,19.2 C68.7,19.2 67.1,19.4 65.5,19.5 C63.9,19.6 62.5,19.7 61,19.8 C60.3,19.9 59.6,19.9 58.9,20 C58.2,20.1 57.6,20.2 57,20.2 C55.8,20.3 54.6,20.5 53.6,20.6 C52.6,20.8 51.7,20.9 51,21 C49.6,21.2 48.7,21.3 48.7,21.3 C48.7,21.3 49.5,21.1 50.9,20.9 C51.6,20.8 52.5,20.6 53.5,20.4 C54.5,20.2 55.6,20.1 56.9,19.9 C57.5,19.8 58.2,19.7 58.8,19.6 C59.5,19.5 60.2,19.4 60.9,19.4 C62.3,19.2 63.8,19 65.4,19 C67,18.9 68.6,18.8 70.2,18.7 C71.8,18.6 73.5,18.6 75.2,18.5 C76.9,18.5 78.5,18.5 80.2,18.5 C81.8,18.5 83.4,18.6 85,18.7 C88.1,18.9 91,19.1 93.5,19.4 C96,19.7 98,20 99.5,20.2 C100.7,20.4 101.6,20.6 101.6,20.6 Z" id="Shape" fill="#D18B44"/>
          <path d="M98.7,15.4 C98.7,15.4 96.4,14.9 92.9,14.4 C91.2,14.1 89.1,13.9 87,13.7 C84.8,13.5 82.5,13.3 80.2,13.2 C79,13.1 77.9,13.1 76.7,13.1 C75.6,13.1 74.4,13.1 73.3,13.1 C72.2,13.1 71.1,13.2 70.1,13.2 C69.1,13.2 68.1,13.3 67.3,13.3 C66.4,13.4 65.6,13.4 64.9,13.5 C64.2,13.6 63.6,13.6 63.1,13.7 C62.1,13.8 61.5,13.8 61.5,13.8 C61.5,13.8 62.1,13.7 63.1,13.5 C63.6,13.4 64.2,13.3 64.9,13.2 C65.6,13.1 66.4,13 67.3,12.9 C68.2,12.8 69.1,12.7 70.1,12.6 C71.1,12.5 72.2,12.4 73.3,12.4 C74.4,12.4 75.5,12.3 76.7,12.4 C77.9,12.4 79,12.4 80.2,12.5 C82.5,12.6 84.9,12.8 87.1,13.1 C89.3,13.4 91.3,13.7 93,14 C96.5,14.7 98.7,15.4 98.7,15.4 Z" id="Shape" fill="#D18B44"/>
          <path d="M99,13.4 C99,13.4 98.9,13.2 98.6,13 C98.3,12.7 97.9,12.3 97.3,11.9 C96.7,11.4 95.9,11 95,10.5 C94.1,10.1 93,9.5 91.8,9.1 C90.6,8.6 89.3,8.3 87.9,7.8 C87.2,7.7 86.5,7.5 85.7,7.3 C85.3,7.2 85,7.1 84.6,7.1 C84.2,7 83.8,7 83.4,6.9 C82.6,6.8 81.8,6.7 81,6.6 C80.2,6.6 79.4,6.5 78.5,6.5 C76.8,6.4 75.1,6.5 73.4,6.5 C71.7,6.5 70,6.7 68.3,6.8 C66.6,6.9 65,7.2 63.4,7.4 C61.8,7.7 60.3,7.8 58.9,8.2 C57.5,8.5 56.1,8.8 54.9,9 C53.6,9.2 52.5,9.6 51.5,9.8 C50.5,10.1 49.6,10.3 48.9,10.5 C47.5,10.9 46.6,11.1 46.6,11.1 C46.6,11.1 47.4,10.8 48.8,10.4 C49.5,10.2 50.4,9.9 51.4,9.6 C52.4,9.3 53.5,8.9 54.8,8.6 C56,8.3 57.4,8 58.8,7.6 C60.2,7.2 61.8,7 63.3,6.7 C64.9,6.4 66.5,6.1 68.2,6 C69.9,5.9 71.6,5.6 73.3,5.6 C75,5.6 76.7,5.5 78.4,5.7 C79.2,5.8 80.1,5.8 80.9,5.9 C81.7,6 82.5,6.1 83.3,6.2 C83.7,6.3 84.1,6.3 84.5,6.4 C84.9,6.5 85.3,6.6 85.6,6.7 C86.4,6.9 87.1,7.1 87.8,7.2 C89.2,7.7 90.5,8 91.7,8.6 C92.9,9.1 93.9,9.7 94.8,10.2 C95.7,10.8 96.4,11.3 97,11.7 C97.6,12.2 98,12.6 98.3,12.9 C98.8,13.2 99,13.4 99,13.4 Z" id="Shape" fill="#D18B44"/>
          <path d="M31.8,16.1 C31.8,16.1 32.2,15.6 33,15.1 C33.8,14.5 34.9,13.9 36,13.4 C36.6,13.2 37.2,12.9 37.8,12.8 C38.4,12.6 38.9,12.5 39.4,12.5 C39.9,12.4 40.3,12.4 40.5,12.4 C40.8,12.4 40.9,12.4 40.9,12.4 C40.9,12.4 40.7,12.5 40.5,12.5 C40.2,12.6 39.9,12.7 39.4,12.8 C38.5,13.1 37.3,13.5 36.2,14 C35.1,14.5 33.9,15 33.1,15.4 C32.3,15.8 31.8,16.1 31.8,16.1 Z" id="Shape" fill="#D18B44"/>
          <path d="M35.7,18.8 C35.7,18.8 36.8,18.3 38.5,17.8 C39.4,17.5 40.4,17.2 41.4,16.9 C42.5,16.6 43.6,16.3 44.8,16 C46,15.7 47.1,15.5 48.2,15.2 C49.3,15 50.3,14.8 51.2,14.6 C53,14.3 54.2,14.2 54.2,14.2 C54.2,14.2 53,14.5 51.3,15 C50.4,15.2 49.4,15.5 48.3,15.7 C47.2,16 46.1,16.2 44.9,16.5 C42.6,17 40.3,17.6 38.5,18 C36.9,18.6 35.7,18.8 35.7,18.8 Z" id="Shape" fill="#D18B44"/>
          <path d="M26.7,34.1 C30.8,30 35,19.8 28.8,12.8 C36.9,19.7 33.2,29 26.7,34.1 Z" id="Shape" fill="#DB4570"/>
        </g>
        <g id="Group" transform="translate(0.000000, 20.000000)">
          <path d="M166.6,6.2 C166.6,6.2 154.7,7.2 138.3,7.5 C105.5,8.1 55.7,8.1 50.1,7.8 C42.7,7.4 31,7.2 25,6.7 C19,6.1 1.4,5.6 1.4,5.6 C1.4,5.6 0.3,1 1.7,0.8 C3.1,0.5 27,1.9 29.9,1.9 C32.8,1.9 47.8,0.7 52.3,1.7 C55.1,2.3 92.9,1.4 123.3,1.1 C129.8,1 133.2,1.8 138.9,1.7 C154.5,1.5 166,1.4 166,1.4 C166,1.4 167.7,3.9 166.6,6.2 Z" id="Shape" fill="#694932"/>
          <path d="M75,4.7 C75,4.7 74.3,4.8 73.2,5 C72.1,5.2 70.4,5.4 68.5,5.6 C66.5,5.8 64.2,6.1 61.8,6.3 C59.3,6.5 56.7,6.8 54,6.7 C48.7,6.5 43.5,6.2 39.5,6 C35.6,5.7 32.9,5.5 32.9,5.5 C32.9,5.5 43.4,5.9 54,6.2 C55.3,6.2 56.6,6.2 57.9,6.1 C59.2,6 60.5,5.9 61.7,5.8 C64.2,5.6 66.5,5.4 68.4,5.2 C72.3,4.9 75,4.7 75,4.7 Z" id="Shape" fill="#4F3726"/>
          <path d="M63.5,4.7 C63.5,4.7 62.8,4.8 61.8,5 C60.8,5.1 59.4,5.2 58.1,5.2 C56.7,5.2 55.4,5.1 54.4,4.9 C53.4,4.7 52.7,4.5 52.7,4.5 C52.7,4.5 53.4,4.5 54.4,4.6 C55.4,4.6 56.7,4.7 58.1,4.7 C59.4,4.7 60.8,4.7 61.8,4.7 C62.8,4.7 63.5,4.7 63.5,4.7 Z" id="Shape" fill="#4F3726"/>
          <path d="M48.5,3.4 C48.5,3.4 47.5,3.4 46,3.5 C45.3,3.5 44.4,3.5 43.5,3.5 C42.6,3.5 41.6,3.5 40.6,3.5 C36.7,3.5 32.7,3.4 32.7,3.4 C32.7,3.4 33.7,3.2 35.2,3.1 C35.9,3.1 36.8,3 37.7,3 C38.6,3 39.6,3 40.6,3 C41.6,3 42.6,3 43.5,3.1 C44.4,3.1 45.3,3.2 46,3.2 C47.5,3.3 48.5,3.4 48.5,3.4 Z" id="Shape" fill="#4F3726"/>
          <path d="M37.4,4.3 C37.4,4.3 35.6,4.4 32.9,4.6 C30.2,4.7 26.5,4.8 22.9,4.6 C21.1,4.5 19.3,4.4 17.6,4.3 C15.9,4.2 14.3,4.2 13,4.1 C10.3,4 8.5,3.9 8.5,3.9 C8.5,3.9 10.3,3.8 13,3.8 C15.7,3.8 19.4,3.8 23,4 C24.8,4.1 26.6,4.2 28.3,4.2 C30,4.2 31.6,4.2 32.9,4.2 C35.6,4.3 37.4,4.3 37.4,4.3 Z" id="Shape" fill="#4F3726"/>
          <path d="M4.7,2.3 C4.7,2.3 5.8,2.2 7.4,2.2 C8.2,2.2 9.2,2.2 10.2,2.2 C11.2,2.2 12.3,2.2 13.4,2.2 C14.5,2.2 15.6,2.3 16.6,2.3 C17.6,2.3 18.6,2.4 19.4,2.5 C20.2,2.6 20.9,2.7 21.4,2.7 C21.9,2.8 22.1,2.8 22.1,2.8 C22.1,2.8 21.8,2.8 21.3,2.8 C20.8,2.8 20.1,2.8 19.3,2.8 C18.5,2.8 17.5,2.8 16.5,2.8 C15.5,2.8 14.4,2.8 13.3,2.7 C12.2,2.7 11.1,2.6 10.1,2.6 C9.1,2.6 8.1,2.5 7.3,2.5 C5.8,2.4 4.7,2.3 4.7,2.3 Z" id="Shape" fill="#4F3726"/>
          <path d="M27.1,5.6 C27.1,5.6 27.3,5.6 27.7,5.5 C28,5.5 28.5,5.4 28.9,5.4 C29.4,5.4 29.8,5.4 30.1,5.5 C30.4,5.5 30.7,5.6 30.7,5.6 C30.7,5.6 30.5,5.7 30.1,5.7 C29.8,5.7 29.3,5.8 28.9,5.8 C28.4,5.8 28,5.8 27.7,5.7 C27.3,5.6 27.1,5.6 27.1,5.6 Z" id="Shape" fill="#4F3726"/>
          <path d="M25.4,3 C25.4,3 25.6,3 25.9,2.9 C26.2,2.9 26.5,2.8 26.9,2.8 C27.3,2.8 27.6,2.8 27.9,2.9 C28.2,2.9 28.4,3 28.4,3 C28.4,3 28.2,3.1 27.9,3.1 C27.6,3.1 27.3,3.2 26.9,3.2 C26.5,3.2 26.2,3.2 25.9,3.1 C25.6,3.1 25.4,3 25.4,3 Z" id="Shape" fill="#4F3726"/>
          <path d="M45.9,4.7 C45.9,4.7 46.2,4.7 46.6,4.6 C47,4.6 47.6,4.5 48.2,4.5 C48.8,4.5 49.4,4.5 49.8,4.6 C50.2,4.6 50.5,4.7 50.5,4.7 C50.5,4.7 50.2,4.8 49.8,4.8 C49.4,4.8 48.8,4.9 48.2,4.9 C47.6,4.9 47,4.9 46.6,4.8 C46.2,4.7 45.9,4.7 45.9,4.7 Z" id="Shape" fill="#4F3726"/>
          <path d="M66.4,4.5 C66.4,4.5 66.6,4.4 66.8,4.4 C67,4.3 67.3,4.3 67.7,4.2 C68,4.2 68.3,4.1 68.6,4.1 C68.8,4.1 69,4.1 69,4.1 C69,4.1 68.8,4.2 68.6,4.2 C68.4,4.3 68.1,4.3 67.7,4.4 C67.4,4.4 67.1,4.5 66.8,4.5 C66.6,4.5 66.4,4.5 66.4,4.5 Z" id="Shape" fill="#4F3726"/>
          <path d="M75.3,3.4 C75.3,3.4 75.1,3.5 74.8,3.6 C74.5,3.7 74.1,3.8 73.6,3.9 C73.2,4 72.7,4 72.4,4 C72.1,4 71.8,4 71.8,4 C71.8,4 72,3.9 72.3,3.8 C72.6,3.7 73,3.6 73.5,3.5 C73.9,3.4 74.4,3.4 74.7,3.4 C75.1,3.4 75.3,3.4 75.3,3.4 Z" id="Shape" fill="#4F3726"/>
          <path d="M3.7,4.1 C3.7,4.1 3.8,4.1 4.1,4 C4.2,4 4.5,4 4.8,4 C5.1,4 5.4,4 5.6,4.1 C5.8,4.1 6,4.2 6,4.2 C6,4.2 5.9,4.3 5.6,4.3 C5.4,4.3 5.1,4.4 4.8,4.4 C4.5,4.4 4.2,4.4 4,4.3 C3.8,4.2 3.7,4.1 3.7,4.1 Z" id="Shape" fill="#4F3726"/>
          <path d="M63.9,3.4 C63.9,3.4 63,3.6 61.7,3.7 C60.4,3.8 58.6,3.9 56.8,3.8 C55.9,3.7 55,3.6 54.2,3.5 C53.4,3.4 52.6,3.2 52,3.1 C51.3,3 50.8,2.8 50.4,2.7 C50,2.6 49.8,2.5 49.8,2.5 C49.8,2.5 50,2.5 50.4,2.6 C50.8,2.7 51.3,2.7 52,2.8 C53.3,3 55.1,3.2 56.8,3.3 C58.6,3.4 60.3,3.5 61.6,3.5 C63,3.4 63.9,3.4 63.9,3.4 Z" id="Shape" fill="#4F3726"/>
          <path d="M39.8,1.4 C39.8,1.4 38.2,1.5 35.9,1.6 C34.7,1.6 33.3,1.7 31.9,1.7 C30.4,1.7 28.8,1.7 27.3,1.8 C25.7,1.8 24.1,1.8 22.7,1.7 C21.2,1.7 19.8,1.6 18.7,1.5 C18.1,1.5 17.6,1.4 17.1,1.3 C16.6,1.2 16.2,1.2 15.9,1.1 C15,1.1 14.6,1 14.6,1 C14.6,1 15,1 15.7,1.1 C16.4,1.1 17.4,1.2 18.5,1.2 C19.7,1.2 21.1,1.2 22.5,1.3 C24,1.3 25.5,1.3 27.1,1.3 C30.2,1.3 33.4,1.3 35.8,1.3 C38.2,1.4 39.8,1.4 39.8,1.4 Z" id="Shape" fill="#4F3726"/>
          <path d="M73.2,6.7 C73.2,6.7 74.1,6.6 75.7,6.4 C77.3,6.2 79.6,5.9 82.3,5.6 C85,5.3 88.2,5.1 91.7,5 C93.4,4.9 95.2,5 97,5.1 C98.8,5.2 100.6,5.2 102.5,5.2 C106.2,5.2 109.8,5.1 113.3,5.1 C116.7,5 120,5 122.7,4.9 C128.2,4.8 131.9,4.7 131.9,4.7 C131.9,4.7 128.2,4.9 122.7,5.2 C117.2,5.4 109.9,5.7 102.5,5.7 C100.7,5.7 98.8,5.7 97,5.6 C95.2,5.5 93.4,5.4 91.7,5.4 C88.3,5.5 85.1,5.7 82.3,5.9 C76.8,6.3 73.2,6.7 73.2,6.7 Z" id="Shape" fill="#4F3726"/>
          <path d="M116.7,4.1 C116.7,4.1 119.3,3.9 123.1,3.6 C127,3.4 132.1,3.2 137.3,3.4 C138.6,3.5 139.9,3.6 141.2,3.8 C142.5,4 143.7,4.5 144.8,4.6 C147.2,5 149.4,5 151.3,5 C155.2,5 157.7,4.7 157.7,4.7 C157.7,4.7 157.1,4.8 155.9,4.9 C154.8,5 153.2,5.2 151.2,5.2 C149.3,5.3 147,5.3 144.6,4.9 C143.4,4.7 142.2,4.3 141,4.1 C139.8,3.9 138.5,3.8 137.2,3.8 C135.9,3.7 134.6,3.7 133.4,3.7 C132.1,3.7 130.9,3.7 129.7,3.7 C127.3,3.7 125,3.8 123.1,3.8 C119.3,4 116.7,4.1 116.7,4.1 Z" id="Shape" fill="#4F3726"/>
          <path d="M135.3,5.5 C135.3,5.5 135.8,5.5 136.5,5.5 C136.9,5.5 137.3,5.5 137.8,5.5 C138.3,5.5 138.8,5.6 139.2,5.6 C139.7,5.6 140.2,5.7 140.6,5.7 C141.1,5.7 141.5,5.8 141.9,5.9 C142.6,6 143.1,6.1 143.1,6.1 C143.1,6.1 142.6,6.2 141.9,6.2 C141.5,6.2 141.1,6.2 140.6,6.2 C140.1,6.2 139.6,6.1 139.1,6.1 C138.6,6 138.1,6 137.7,5.9 C137.2,5.8 136.8,5.8 136.4,5.7 C135.8,5.6 135.3,5.5 135.3,5.5 Z" id="Shape" fill="#4F3726"/>
          <path d="M146.2,3.2 C146.2,3.2 147.4,3.1 149.2,3 C150.1,3 151.1,2.9 152.2,2.9 C153.3,2.9 154.5,2.9 155.7,2.9 C156.9,2.9 158.1,3 159.2,3 C160.3,3 161.4,3.1 162.2,3.2 C163.1,3.3 163.8,3.4 164.3,3.5 C164.8,3.6 165.1,3.7 165.1,3.7 C165.1,3.7 164.8,3.7 164.3,3.6 C163.8,3.6 163,3.5 162.2,3.5 C161.3,3.5 160.3,3.5 159.2,3.5 C158.1,3.5 156.9,3.5 155.7,3.5 C154.5,3.5 153.3,3.5 152.2,3.5 C151.1,3.5 150,3.5 149.2,3.5 C147.4,3.3 146.2,3.2 146.2,3.2 Z" id="Shape" fill="#4F3726"/>
          <path d="M114.9,2.2 C114.9,2.2 113.9,2.3 112.4,2.5 C111.6,2.6 110.8,2.7 109.8,2.7 C108.9,2.8 107.8,2.8 106.8,2.9 C105.8,2.9 104.8,3 103.8,3 C102.9,3 102,3 101.2,3 C99.7,3 98.7,2.9 98.7,2.9 C98.7,2.9 99.7,2.8 101.2,2.7 C102,2.7 102.8,2.6 103.8,2.6 C104.7,2.6 105.8,2.5 106.8,2.5 C107.8,2.5 108.8,2.4 109.8,2.4 C110.7,2.4 111.6,2.4 112.4,2.3 C113.8,2.2 114.9,2.2 114.9,2.2 Z" id="Shape" fill="#4F3726"/>
          <path d="M100.1,4.1 C100.1,4.1 99.1,4.1 97.6,4 C96.9,4 96,3.9 95.1,3.9 C94.2,3.8 93.2,3.8 92.2,3.8 C91.2,3.8 90.2,3.7 89.3,3.7 C88.4,3.7 87.5,3.7 86.8,3.7 C86.4,3.7 86.1,3.7 85.8,3.7 C85.5,3.7 85.2,3.7 85,3.8 C84.6,3.9 84.3,3.9 84.3,3.9 C84.3,3.9 84.5,3.8 85,3.7 C85.2,3.6 85.5,3.6 85.8,3.6 C86.1,3.5 86.4,3.5 86.8,3.5 C87.5,3.4 88.4,3.4 89.3,3.4 C90.2,3.4 91.2,3.4 92.2,3.4 C93.2,3.5 94.2,3.5 95.1,3.6 C96,3.7 96.9,3.8 97.6,3.9 C99.1,3.9 100.1,4.1 100.1,4.1 Z" id="Shape" fill="#4F3726"/>
          <path d="M93.5,2.6 C93.5,2.6 93.7,2.6 94,2.5 C94.3,2.5 94.7,2.4 95,2.4 C95.4,2.4 95.8,2.4 96,2.5 C96.3,2.5 96.5,2.6 96.5,2.6 C96.5,2.6 96.3,2.6 96,2.7 C95.7,2.7 95.3,2.8 95,2.8 C94.6,2.8 94.2,2.8 94,2.7 C93.7,2.6 93.5,2.6 93.5,2.6 Z" id="Shape" fill="#4F3726"/>
          <path d="M93,6.9 C93,6.9 93.2,6.9 93.5,6.8 C93.8,6.8 94.2,6.7 94.6,6.7 C95,6.7 95.4,6.7 95.7,6.8 C96,6.8 96.2,6.9 96.2,6.9 C96.2,6.9 96,6.9 95.7,7 C95.4,7 95,7 94.6,7 C94.2,7 93.8,7 93.5,6.9 C93.2,6.9 93,6.9 93,6.9 Z" id="Shape" fill="#4F3726"/>
          <path d="M110,3.9 C110,3.9 110.2,3.9 110.5,3.8 C110.8,3.8 111.2,3.7 111.5,3.7 C111.9,3.7 112.3,3.7 112.5,3.8 C112.8,3.8 113,3.9 113,3.9 C113,3.9 112.8,3.9 112.5,4 C112.2,4 111.8,4.1 111.5,4.1 C111.1,4.1 110.7,4.1 110.5,4 C110.2,3.9 110,3.9 110,3.9 Z" id="Shape" fill="#4F3726"/>
          <path d="M141.4,2.9 C141.4,2.9 141.6,2.9 141.9,2.8 C142.2,2.8 142.6,2.7 142.9,2.7 C143.3,2.7 143.7,2.7 143.9,2.8 C144.2,2.8 144.4,2.9 144.4,2.9 C144.4,2.9 144.2,2.9 143.9,3 C143.6,3 143.2,3.1 142.9,3.1 C142.5,3.1 142.1,3.1 141.9,3 C141.6,2.9 141.4,2.9 141.4,2.9 Z" id="Shape" fill="#4F3726"/>
          <path d="M113.2,6.9 C113.2,6.9 114.4,6.7 116.2,6.6 C117.1,6.5 118.1,6.4 119.3,6.4 C120.4,6.3 121.6,6.3 122.8,6.2 C124,6.2 125.2,6.1 126.3,6.1 C127.4,6.1 128.5,6.1 129.4,6.1 C131.2,6.1 132.4,6.2 132.4,6.2 C132.4,6.2 127.6,6.4 122.8,6.7 C121.6,6.7 120.4,6.8 119.3,6.8 C118.2,6.8 117.1,6.9 116.2,6.9 C114.4,6.9 113.2,6.9 113.2,6.9 Z" id="Shape" fill="#4F3726"/>
          <path d="M77,3.9 C77,3.9 77.6,3.6 78.7,3.4 C79.7,3.1 81.1,2.8 82.5,2.6 C83.2,2.5 83.9,2.4 84.5,2.4 C85.2,2.4 85.8,2.4 86.3,2.3 C87.3,2.3 88,2.4 88,2.4 C88,2.4 87.8,2.4 87.5,2.5 C87.2,2.5 86.8,2.6 86.2,2.6 C85.2,2.7 83.8,2.9 82.4,3.1 C79.8,3.5 77,3.9 77,3.9 Z" id="Shape" fill="#4F3726"/>
          <path d="M116.7,2.9 C116.7,2.9 117.4,2.8 118.4,2.6 C119.4,2.5 120.8,2.3 122.1,2.3 C123.5,2.2 124.8,2.2 125.9,2.3 C126.9,2.4 127.6,2.5 127.6,2.5 C127.6,2.5 126.9,2.6 125.9,2.6 C124.9,2.7 123.5,2.8 122.2,2.8 C120.8,2.9 119.5,2.9 118.5,2.9 C117.4,2.9 116.7,2.9 116.7,2.9 Z" id="Shape" fill="#4F3726"/>
          <path d="M155.1,6.1 C155.1,6.1 155.7,5.9 156.6,5.8 C157.5,5.6 158.6,5.4 159.8,5.3 C161,5.2 162.2,5.1 163.1,5.1 C164,5.1 164.6,5.1 164.6,5.1 C164.6,5.1 164,5.2 163.1,5.3 C162.2,5.4 161.1,5.6 159.9,5.7 C158.7,5.8 157.5,5.9 156.7,6 C155.7,6.1 155.1,6.1 155.1,6.1 Z" id="Shape" fill="#4F3726"/>
        </g>
      </g>
    </g>
  </g>
</svg>