<svg xmlns="http://www.w3.org/2000/svg" xmlns:xlink="http://www.w3.org/1999/xlink" version="1.1" width="34.944699823856354" height="80.21409755945206" viewBox="0.44950070977211 0.2956007421016693 34.944699823856354 80.21409755945206">
  <!-- Exported by Scratch - http://scratch.mit.edu/ -->
  <g id="ID0.35889380099251866">
    <path id="ID0.9205659148283303" d="M 22.29 0.6927 C 23.0842 0.6927 23.8784 0.6927 24.6726 0.6927 C 24.9736 5.9519 27.7151 8.7689 28.6435 13.3999 C 27.102 18.945 23.3018 19.6836 19.9074 24.5187 C 25.6971 30.9064 34.1624 34.6193 34.9971 45.962 C 34.9971 47.0207 34.9971 48.0802 34.9971 49.1388 C 31.7227 62.5425 27.0448 74.5428 15.9364 80.1126 C 14.6124 80.1126 13.2893 80.1126 11.9654 80.1126 C 8.0587 76.0772 4.8803 71.3136 2.435 65.817 C 7.498 60.7294 15.9149 58.0267 15.9364 50.7272 C 15.9626 41.8894 1.4422 39.1232 0.8466 29.2839 C 0.8466 27.9599 0.8466 26.6368 0.8466 25.3129 C 4.7263 13.8375 10.2658 4.0228 22.29 0.6927 Z M 7.2002 14.9883 C 6.9722 24.718 5.2997 28.3531 10.377 34.049 C 13.8008 37.8906 19.4086 39.0533 20.7016 42.7852 C 23.3184 50.3396 18.1466 58.5739 11.1712 62.6402 C 12.0591 66.5175 12.943 70.3987 16.7306 71.3764 C 24.5955 63.1326 36.0081 54.5513 31.8203 41.1968 C 29.217 32.8951 15.6775 30.742 15.1422 22.9303 C 14.7403 17.0699 20.6507 13.6858 25.4667 13.3999 C 24.0769 10.289 23.8561 6.0099 21.4958 3.8695 C 16.204 7.0495 10.5263 9.8427 7.2002 14.9883 Z " stroke-width="0.7941985726356506" fill="undefined"/>
    <path id="ID0.5772864166647196" fill="#FF9400" d="M 21.4958 3.8695 C 23.8561 6.0099 24.0769 10.289 25.4667 13.3999 C 20.6507 13.6858 14.7403 17.0699 15.1422 22.9303 C 15.6775 30.742 29.217 32.8951 31.8203 41.1968 C 36.0081 54.5513 24.5955 63.1326 16.7306 71.3764 C 12.943 70.3987 12.0591 66.5175 11.1712 62.6402 C 18.1466 58.5739 23.3184 50.3396 20.7016 42.7852 C 19.4086 39.0533 13.8008 37.8906 10.377 34.049 C 5.2997 28.3531 6.9722 24.718 7.2002 14.9883 C 10.5263 9.8427 16.204 7.0495 21.4958 3.8695 Z " stroke-width="0.7941985726356506"/>
  </g>
</svg>