<svg xmlns="http://www.w3.org/2000/svg" xmlns:xlink="http://www.w3.org/1999/xlink" width="97.20958709716797" height="85" viewBox="14.402222633361816 3.0999999046325684 97.20958709716797 85" version="1.1" xml:space="preserve">
  <defs/>
  <g>
    <title>fish-d</title>
    <desc>Created with Sketch.</desc>
    <g id="ocean" stroke="none" fill-rule="evenodd">
      <g id="fish-d">
        <g id="Yellow-tang">
          <g id="flippers_x2F_fins">
            <g id="Group" fill-rule="nonzero">
              <path d="M 88.3 29.4 C 88.6 28.6 88.7 27.6 89 26.9 C 89.5 25.8 90.7 25.1 90.9 24 C 91.1 22.9 90.1 21.8 90 20.7 C 89.9 19.6 90.5 18.3 90.1 17.3 C 89.7 16.3 88.3 15.7 87.7 14.8 C 87.1 13.9 87.2 12.4 86.5 11.6 C 85.8 10.8 84.3 10.7 83.5 9.9 C 82.7 9.1 82.4 7.7 81.5 7.1 C 80.5 6.4 79.1 6.7 78.2 6.3 C 77.1 5.8 76.4 4.5 75.4 4.3 C 74.6 4.1 73.6 5 72.7 4.9 C 71.9 4.8 71 3.8 70.1 3.8 C 69.3 3.8 68.4 4.8 67.5 4.9 C 66.6 5 65.7 4 64.8 4.1 C 63.9 4.2 63.2 5.3 62.3 5.4 C 61.4 5.5 60.4 4.7 59.5 4.9 C 58.6 5.1 58 6.2 57.1 6.4 C 56.2 6.6 55.1 5.9 54.3 6.1 C 53.4 6.3 52.9 7.5 52.1 7.8 C 51.2 8.1 50.1 7.5 49.3 7.8 C 48.8 8 48.4 9.4 47.5 10.2 C 46.9 10.7 45.5 10.6 44.8 11.3 C 44.2 11.9 44.2 13.3 43.5 14 C 42.9 14.7 41.5 14.7 40.9 15.4 C 40.3 16.1 40.5 17.5 39.9 18.2 C 39.3 19 38 19.2 37.5 19.9 C 37 20.7 37.3 22 36.9 22.8 C 36.4 23.7 35.2 24.1 34.9 25 C 34.6 25.9 35.3 27.1 35.2 27.9 C 35.1 28.7 34.9 29.7 34.9 30.4 C 35 30.5 35 30.5 35.1 30.6 L 38.3 30.6 C 38.8 30.4 39.4 30.2 40.3 30.1 C 41.8 29.9 42.4 30.2 43.2 30.6 L 48.3 30.5 C 49 30.2 49.6 30 50.9 30 C 52.2 30 52.9 30.2 53.5 30.5 L 58.8 30.4 C 59.5 30.1 60.1 29.9 61.4 29.9 C 62.7 29.9 63.4 30.1 64 30.4 L 69.3 30.3 C 70 30 70.6 29.8 71.9 29.8 C 73.2 29.8 73.9 30 74.5 30.3 L 79.8 30.2 C 80.5 29.9 81.1 29.7 82.4 29.7 C 83.5 29.7 84.2 29.9 84.8 30.2 L 87.7 30.2 C 87.9 29.8 88.1 29.6 88.3 29.4 Z " id="Shape" fill="#CEC800" stroke-width="1"/>
              <path d="M 90.8 23.7 C 90.8 23.2 90.6 22.7 90.4 22.2 C 89.4 23.6 88.2 24.9 86.9 26.1 C 86.3 25.8 85.7 25.5 85.1 25.2 C 87.1 23 88.8 20.4 90.1 17.8 C 90.1 17.6 90.1 17.4 90 17.3 C 89.9 17 89.7 16.7 89.4 16.5 C 87.9 19.5 86.1 22.3 83.9 24.8 C 83.3 24.5 82.7 24.3 82 24 C 81.8 23.9 81.6 23.9 81.4 23.8 C 83.7 20.1 85.7 16.3 86.8 12.2 C 86.7 12 86.6 11.7 86.4 11.6 C 86.2 11.4 86 11.3 85.8 11.1 C 84.7 15.4 82.7 19.5 80.2 23.4 C 79.2 23.1 78.3 22.8 77.3 22.5 C 79.5 17.8 81 12.9 81.9 7.7 C 81.7 7.5 81.6 7.3 81.3 7.1 C 81.1 7 81 6.9 80.8 6.8 C 79.9 12.2 78.3 17.3 76.1 22.1 C 75.3 21.9 74.5 21.7 73.7 21.5 C 73.9 20.7 74.1 19.9 74.3 19.1 C 75.4 14.7 76.7 9.3 76 4.5 C 75.8 4.3 75.5 4.2 75.3 4.1 C 75.1 4.1 74.9 4.1 74.7 4.1 C 75.7 9.1 74.1 15.1 72.8 19.8 C 72.7 20.2 72.6 20.7 72.4 21.1 C 71.8 21 71.2 20.9 70.5 20.8 C 71.3 15.2 71 9.3 70.6 3.8 C 70.4 3.7 70.1 3.6 69.8 3.6 C 69.6 3.6 69.5 3.6 69.3 3.7 C 69.7 9.2 70.1 15.1 69.3 20.6 C 68.2 20.5 67.2 20.4 66.1 20.3 C 66.3 17.8 66.4 15.2 66.3 12.7 C 66.2 9.9 65.9 6.6 64.8 3.9 C 64.7 3.9 64.5 3.9 64.4 3.9 C 64.1 3.9 63.9 4.1 63.6 4.2 C 65.2 7.7 65.1 12.4 65 15.7 C 65 17.2 64.9 18.7 64.8 20.2 C 63.9 20.2 63 20.2 62 20.2 C 62 17.4 61.8 14.5 61.4 11.7 C 61 9.2 60.1 6.9 59.3 4.6 C 59.2 4.6 59.2 4.6 59.1 4.6 C 58.8 4.7 58.5 4.8 58.3 5 C 59 6.7 59.7 8.3 60 10.1 C 60.6 13.4 60.9 16.8 60.8 20.2 C 59.8 20.2 58.8 20.3 57.7 20.4 C 57.2 15.4 55.9 10.5 53.8 5.8 C 53.4 5.9 53.1 6.2 52.8 6.6 C 54.8 11.1 56 15.7 56.5 20.5 C 56 20.5 55.5 20.6 55 20.6 C 54.4 20.7 53.9 20.7 53.3 20.8 C 53.1 19.3 52.8 17.9 52.4 16.4 C 51.7 13.6 50.8 10.2 49.2 7.3 C 49.1 7.3 48.9 7.3 48.8 7.4 C 48.6 7.5 48.4 7.7 48.3 8 C 50.4 11.6 51.3 16.5 51.9 20 C 52 20.3 52 20.6 52.1 20.9 C 51.3 21 50.6 21.1 49.8 21.2 C 48.8 17.3 47.2 13.6 44.8 10.5 C 44.6 10.6 44.4 10.7 44.2 10.9 C 44.1 11 44 11.2 43.9 11.3 C 46.1 14.2 47.6 17.7 48.6 21.4 C 47.7 21.6 46.8 21.8 45.9 22.1 C 45.7 21.7 45.5 21.3 45.3 20.9 C 44.1 18.7 42.6 16.3 40.7 14.6 C 40.6 14.7 40.4 14.8 40.3 14.9 C 40.1 15.1 40 15.3 40 15.6 C 42 17.4 43.6 20 44.8 22.4 C 43.7 22.8 42.6 23.3 41.5 23.9 C 40.5 21.9 39.3 20.1 37.5 18.9 C 37.3 19 37.1 19.2 37 19.4 C 36.9 19.6 36.8 19.7 36.8 19.9 C 38.4 21 39.6 22.7 40.5 24.5 C 39.5 25.2 38.5 26 37.5 26.9 C 36.6 26 35.5 25.2 34.4 24.5 C 34.3 25 34.3 25.4 34.5 25.9 C 35.3 26.4 36 27.1 36.7 27.7 C 36.4 28 35.6 29.1 34.9 30.1 L 37.9 30.1 C 38.4 29.9 39 29.7 39.9 29.6 C 41.4 29.4 42 29.7 42.8 30.1 L 47.9 30 C 48.6 29.7 49.2 29.5 50.5 29.5 C 51.8 29.5 52.5 29.7 53.1 30 L 58.4 29.9 C 59.1 29.6 59.7 29.4 61 29.4 C 62.3 29.4 63 29.6 63.6 29.9 L 68.9 29.8 C 69.6 29.5 70.2 29.3 71.5 29.3 C 72.8 29.3 73.5 29.5 74.1 29.8 L 79.4 29.7 C 80.1 29.4 80.7 29.2 82 29.2 C 83.1 29.2 83.8 29.4 84.4 29.7 L 87.3 29.7 C 87.5 29.5 87.7 29.3 87.9 29.1 C 88.1 28.4 88.2 27.7 88.4 27.1 C 88.1 26.9 87.8 26.7 87.6 26.5 C 89 25.8 89.9 24.8 90.8 23.7 Z " id="Shape" fill="#FBDF00" stroke-width="1"/>
            </g>
            <g id="Group" fill-rule="nonzero">
              <path d="M 32.7 48.5 C 29.7 48.7 26.1 51.5 23.5 52.9 C 20.6 54.5 18.1 55.4 15 56.2 C 14 52.2 21 43.9 21 43.9 C 21 43.9 14.8 31.2 19.6 28.2 C 22 29.7 24 32.2 26.4 33.8 C 28.7 35.3 31.6 36.2 33.6 37.7 L 32.7 48.5 Z " id="Shape" fill="#CEC800" stroke-width="1"/>
              <path d="M 33.6 38.4 C 29 36.4 21.8 34.3 18 30.5 C 17.9 31 17.8 31.5 17.8 32 C 22 35.9 29.2 38.5 33.5 39.3 L 33.5 39.4 C 28.6 40.3 23.2 39 18.5 37.2 C 18.6 37.7 18.8 38.2 18.9 38.7 C 23.5 40.4 28.6 41.5 33.4 40.7 L 33.3 41.4 C 30.1 41.8 26.9 42.5 23.6 42.5 C 22.7 42.5 21.6 42.6 20.3 42.6 C 20.5 43.1 20.7 43.5 20.8 43.7 C 21 43.7 21.3 43.7 21.5 43.7 C 25.5 43.8 29.3 43.1 33.1 42.6 L 33.1 42.8 C 33.1 42.8 33.1 42.8 33 42.8 C 28.6 45.4 23.6 46.5 18.6 47 C 18.3 47.4 18 47.8 17.7 48.3 C 23 48 28.2 46.8 32.9 44.3 L 33 45.1 C 30.3 46.8 27.4 48.3 24.6 49.3 C 21.6 50.3 18.7 51.6 15.6 52.5 C 15.4 53 15.3 53.5 15.1 53.9 C 18.8 52.9 22.3 51.3 25.9 50 C 28.2 49.2 30.5 48.3 32.7 47.2 L 34 46.6 L 34.3 43.6 L 34.8 38.8 L 33.6 38.4 Z " id="Shape" fill="#FBDF00" stroke-width="1"/>
            </g>
            <g id="Group" fill-rule="nonzero">
              <path d="M 33.2 55.3 C 32 55.2 31.1 54.6 30.6 55 C 29.9 55.5 30.5 56.7 30.5 57.8 C 30.5 58.6 29.7 59.6 29.9 60.6 C 30.1 61.4 31.3 62 31.6 62.9 C 31.9 63.7 31.3 64.9 31.6 65.8 C 32 66.9 33.4 67.5 33.9 68.6 C 34.4 69.6 34.2 71.2 34.8 72.1 C 35.4 73.1 36.9 73.4 37.7 74.3 C 38.5 75.2 38.6 76.7 39.5 77.5 C 40.4 78.2 41.9 78.1 42.9 78.7 C 43.9 79.3 44.5 80.6 45.6 81.1 C 46.7 81.5 48.1 81 49.2 81.3 C 50.3 81.6 51.2 82.9 52.3 83.1 C 53.5 83.4 54.8 82.6 55.9 82.7 C 57.2 82.9 58.3 83.9 59.3 84 C 60.1 84 60.9 82.8 61.9 82.4 C 62.7 82 64.1 82.4 64.9 81.7 C 65.7 81.1 65.8 79.7 66.4 79 C 67.1 78.2 68.5 78 68.9 77.2 C 69.4 76.3 68.6 74.3 68.6 73.3 C 67.6 72.2 67 71.7 65.1 70.8 C 63.6 70.1 61.6 70.4 59.9 69.8 C 58.3 69.2 56.9 67.8 55.2 67.3 C 53.5 66.8 51.5 67.2 49.9 66.8 C 48 66.2 46.7 64.8 45.4 64.2 C 44.1 63.3 43.6 64 42.4 63.1 C 41.2 62.1 41.8 61.4 40.6 60.4 C 39.4 59.4 38.8 60.2 37.6 59.2 C 36.4 58.2 37 57.4 35.8 56.5 C 34.9 55.5 34.6 56.1 33.2 55.3 Z " id="Shape" fill="#CEC800" stroke-width="1"/>
              <path d="M 32.7 55.2 C 32.6 55.2 32.5 55.2 32.4 55.1 C 32.4 55.1 32.4 55.1 32.3 55.1 C 32.1 55.1 31.9 55 31.8 55 C 31.8 55 31.8 55 31.8 55 C 31.9 55.3 32 55.6 32.1 55.8 C 31.5 55.7 30.9 55.5 30.4 55.2 C 30.2 55.5 30.3 56 30.3 56.5 C 31 56.8 31.8 57 32.5 57.1 C 32.7 57.7 33 58.2 33.3 58.8 C 32.2 59.2 31 59.6 29.8 59.9 C 29.8 60.1 29.8 60.3 29.8 60.5 C 29.9 60.7 30 60.9 30.1 61.1 C 31.4 60.8 32.6 60.4 33.8 59.9 C 34.3 60.7 34.8 61.6 35.4 62.4 C 35.1 62.7 34.8 62.9 34.5 63.1 C 33.5 63.9 32.5 64.5 31.5 65.1 C 31.5 65.3 31.5 65.4 31.6 65.6 C 31.7 65.8 31.8 66 32 66.2 C 33.2 65.6 34.3 64.9 35.4 64 C 35.6 63.8 35.9 63.6 36.1 63.4 C 37.1 64.7 38.2 66 39.6 67.1 C 38.1 68.7 36.4 70.2 34.6 71.4 C 34.7 71.6 34.7 71.8 34.8 71.9 C 34.9 72.1 35.1 72.3 35.3 72.4 C 37.2 71.2 39 69.6 40.5 67.9 C 41.6 68.8 42.9 69.6 44.3 70.4 C 44.1 70.7 44 71 43.8 71.2 C 42.5 73.1 40.8 74.8 39 76.4 C 39.2 76.7 39.3 77 39.6 77.2 C 39.7 77.3 39.7 77.3 39.8 77.3 C 41.3 76 42.6 74.7 43.8 73.2 C 44.4 72.5 44.9 71.7 45.4 70.9 C 45.7 71.1 46 71.2 46.4 71.4 C 47.6 71.9 48.9 72.4 50.2 72.9 C 48.8 75.6 47.2 78.2 45.4 80.6 C 45.5 80.7 45.6 80.7 45.8 80.8 C 46.1 80.9 46.4 81 46.7 81 C 48.5 78.5 50 76 51.4 73.3 C 52.9 73.8 54.5 74.2 56.1 74.5 C 55.3 77.4 54 80.2 52.4 82.8 C 52.5 82.8 52.6 82.9 52.7 82.9 C 53.1 83 53.5 83 53.8 82.9 C 55.3 80.4 56.5 77.6 57.4 74.8 C 58.3 75 59.2 75.1 60.1 75.3 C 60 77.4 59.9 79.6 59.4 81.7 C 59.3 82.3 59.1 83 59 83.7 C 59.2 83.8 59.5 83.9 59.7 83.9 C 59.9 83.9 60 83.8 60.2 83.8 C 60.9 81.1 61.1 78.3 61.3 75.6 C 62.3 75.7 63.2 75.8 64.2 75.9 C 64.4 77.9 64.6 80 64.7 82 C 65 81.9 65.2 81.8 65.4 81.7 C 65.6 81.6 65.7 81.4 65.9 81.2 C 65.8 79.5 65.6 77.7 65.5 76 C 66.2 76 66.9 76.1 67.6 76.1 C 67.8 76.8 68.1 77.5 68.3 78.2 C 68.7 78 69.1 77.8 69.4 77.5 C 69.3 77.1 69.1 76.6 69 76.2 C 69.2 76.2 69.5 76.2 69.7 76.2 C 69.6 75.4 69.4 74.5 69.3 73.9 C 69.3 73.9 69.3 73.8 69.3 73.8 C 69.3 73.7 69.3 73.5 69.3 73.4 C 69.2 73.3 69.1 73.2 69 73.1 C 69 73 68.9 73 68.9 73 C 68.8 72.9 68.8 72.9 68.7 72.8 C 68.6 72.7 68.6 72.7 68.5 72.6 C 68.5 72.6 68.4 72.5 68.4 72.5 C 68.3 72.4 68.2 72.4 68.2 72.3 C 68.2 72.3 68.2 72.3 68.2 72.3 C 67.8 72 67.4 71.7 66.8 71.4 C 66.5 71.3 66.3 71.1 65.9 71 C 65.6 70.8 65.2 70.7 64.9 70.7 C 64 70.5 63.1 70.5 62.1 70.4 C 62.1 70.4 62 70.4 62 70.4 C 61.8 70.4 61.7 70.3 61.5 70.3 C 61.4 70.3 61.4 70.3 61.3 70.3 C 61.1 70.3 60.9 70.2 60.7 70.1 C 59.1 69.5 57.7 68.1 56 67.6 C 55.8 67.5 55.5 67.5 55.3 67.4 C 55.3 67.4 55.2 67.4 55.2 67.4 C 55 67.4 54.8 67.3 54.6 67.3 C 53.9 67.3 53.3 67.3 52.6 67.2 C 52.5 67.2 52.4 67.2 52.3 67.2 C 52.2 67.2 52.1 67.2 51.9 67.2 C 51.8 67.2 51.6 67.2 51.5 67.2 C 51.4 67.2 51.3 67.2 51.2 67.2 C 51 67.2 50.8 67.1 50.6 67.1 C 50.4 67 50.2 67 49.9 66.9 C 49.8 66.9 49.7 66.8 49.6 66.8 C 49.5 66.7 49.4 66.7 49.3 66.6 C 49.2 66.5 49.1 66.5 48.9 66.4 C 48.8 66.4 48.8 66.3 48.7 66.3 C 48.2 66 47.7 65.6 47.2 65.3 C 47 65.2 46.8 65.1 46.7 64.9 C 46.7 64.9 46.6 64.8 46.6 64.8 C 46.4 64.7 46.2 64.6 46 64.5 C 45.9 64.4 45.8 64.4 45.7 64.3 C 45.7 64.3 45.6 64.3 45.6 64.3 C 45.5 64.3 45.5 64.2 45.4 64.2 C 45.4 64.2 45.3 64.2 45.3 64.2 C 45.3 64.2 45.2 64.2 45.2 64.1 C 45.2 64.1 45.1 64.1 45.1 64.1 C 45.1 64.1 45 64.1 45 64.1 C 45 64.1 44.9 64.1 44.9 64.1 C 44.9 64.1 44.8 64.1 44.8 64.1 C 44.6 64.1 44.3 64 44.1 64 C 44.1 64 44.1 64 44.1 64 C 43.8 63.9 43.4 63.8 43 63.5 C 43 63.5 43 63.5 42.9 63.4 C 41.7 62.4 42.3 61.7 41.1 60.7 C 41 60.6 40.9 60.5 40.7 60.5 C 40.7 60.5 40.7 60.5 40.7 60.5 C 40.6 60.4 40.5 60.4 40.4 60.4 C 40.4 60.4 40.4 60.4 40.3 60.4 C 40.2 60.4 40.1 60.3 40 60.3 C 40 60.3 40 60.3 40 60.3 C 39.9 60.3 39.8 60.3 39.7 60.3 C 39.2 60.2 38.7 60.2 38 59.7 C 37.9 59.6 37.8 59.6 37.8 59.5 C 37.8 59.5 37.8 59.5 37.8 59.5 C 37.8 59.5 37.7 59.4 37.7 59.4 C 37.7 59.4 37.7 59.4 37.7 59.4 C 37.7 59.3 37.6 59.3 37.6 59.2 C 37.6 59.2 37.6 59.2 37.6 59.2 C 37.3 58.7 37.3 58.3 37 57.9 C 37 57.8 36.9 57.8 36.9 57.7 C 36.8 57.5 36.6 57.3 36.3 57.1 C 36.1 56.9 35.9 56.8 35.7 56.8 C 35.2 56.5 34.8 56.6 34.2 56.4 C 34.2 56.4 34.2 56.4 34.1 56.4 C 34 56.4 33.9 56.3 33.8 56.3 C 33.8 56.3 33.7 56.3 33.7 56.3 C 33.6 56.2 33.4 56.2 33.3 56.1 C 33.2 56.1 33 56.1 32.9 56 C 32.8 55.2 32.8 55.2 32.7 55.2 Z " id="Shape" fill="#FBDF00" stroke-width="1"/>
            </g>
            <g id="Group">
              <path d="M 75.9 73.5 C 75.6 74.6 74.8 74.6 74.2 75.3 C 72.9 76.8 73.2 79.1 73.3 80.9 C 73.3 83.5 72.1 84.4 74.1 87.6 C 78.5 83.2 79.3 77.7 79.4 72.6 L 75.9 73.5 Z " id="Shape" fill="#D8D213" fill-rule="nonzero" stroke-width="1"/>
              <path d="M 78.4 73 C 78.4 73 74.8 74.6 74.2 75.3 C 72.9 76.8 73.2 79.1 73.3 80.9 C 73.3 83.5 72.1 84.4 74.1 87.6 C 78.5 83.2 79.3 77.7 79.4 72.6 L 78.4 73 Z " id="Shape" stroke-width="1" fill="none"/>
              <path d="M 78.4 73 C 78.4 73 78.1 73.1 77.6 73.4 C 76.5 75.1 74.9 76.6 73.2 77.9 C 73.2 78.4 73.2 78.9 73.2 79.4 C 74.7 78.4 76.1 77.2 77.2 75.9 C 76.6 77.7 75.9 79.5 74.9 81.1 C 74.3 82 73.7 83 72.9 84 C 72.9 84.5 72.9 85 73.1 85.6 C 73.9 84.7 74.5 83.7 75.2 82.8 C 77.3 79.9 78.2 76.6 79.3 73.3 C 79.3 73 79.3 72.8 79.3 72.5 L 78.4 73 Z " id="Shape" fill="#FBDF00" fill-rule="nonzero" stroke-width="1"/>
            </g>
          </g>
          <g id="fish" fill-rule="nonzero">
            <g id="body">
              <path d="M 107.9 51.6 C 104.9 48.6 101 45.1 98.7 41.4 C 96.2 37.4 94.9 35 92.1 31.1 C 89.3 27.1 86.2 25.8 81.9 24.1 C 73 20.6 64.6 20 55.2 21 C 47.5 21.8 40.7 22.9 34.8 30.8 C 34 31.8 33.7 32.9 32.9 34 C 32.1 35.2 30.2 35.9 27 34.3 C 27 34.3 27.9 38.2 27.8 42.4 C 27.7 46.5 23.8 50.4 25.1 52.2 C 27.4 50.7 29.8 49.4 31.7 54.7 C 33.1 59.8 37.3 67.6 46.4 71.7 C 55 75.5 66.3 76.9 75.7 75.6 C 84.1 74.4 87.5 69.2 97 67 C 99.6 66.4 108 65.3 108.2 60.6 C 107 61.1 101 61.4 101 58.3 C 106.4 59.7 109.2 58.5 110.9 55.9 C 111.9 54.2 109.1 52.7 107.9 51.6 Z " id="Shape" stroke-width="1" fill="#FBDF00"/>
            </g>
            <g id="eye">
              <path d="M 95.4 43.7 C 95.1 39.9 88.9 37.5 85.9 37.5 C 82.7 37.4 79.3 38.2 76.8 40.2 C 76.2 40.7 74.9 41.6 74.9 42.5 C 74.9 43.6 77 45.4 77.7 46 C 80 48 82.9 48.9 85.9 49.1 C 88.7 48.9 95.8 48.1 95.4 43.7 Z M 85.9 47.9 C 82.9 47.8 77.1 46 76 42.4 C 76 42.4 76 42.4 76.1 42.3 C 76.5 41.8 76.9 41.4 77.4 41.1 C 79.5 39.5 82.2 38.8 84.8 38.7 C 87.6 38.6 90.3 39.3 92.4 41.3 C 92.9 41.8 94.3 43.4 94.3 43.8 C 94.7 47 88.2 47.8 85.9 47.9 Z " id="Shape" fill="#CEC800" stroke-width="1"/>
              <path d="M 90.7 34.8 C 86.6 32.6 81.4 33 77.4 35.2 C 76.8 35.5 77.3 36.5 78 36.2 C 81.6 34.2 86.4 33.7 90.1 35.8 C 90.8 36.1 91.3 35.2 90.7 34.8 Z " id="Shape" fill="#CEC800" stroke-width="1"/>
              <path d="M 85.6 46.4 C 91.1 46.4 91.1 43.4 91.1 43.4 C 91.1 43.4 89.5 40 85.6 40 C 80.7 40 79.1 42.6 79.1 42.6 C 79.1 42.6 81 46.4 85.6 46.4 Z " id="Shape" fill="#FFFFFF" stroke-width="1"/>
              <path d="M 85.6 40 C 85.5 40 85.5 40 85.4 40 C 85 40.4 84.7 40.9 84.5 41.5 C 85.2 41.6 85.7 42.2 85.7 43 C 85.7 43.7 85.2 44.3 84.5 44.5 C 84.8 45.3 85.2 45.9 85.9 46.5 C 91.1 46.4 91.2 43.5 91.2 43.5 C 91.2 43.5 89.6 40 85.6 40 Z " id="Shape" fill="#748706" stroke-width="1"/>
              <path d="M 87.7 40.4 C 86.9 41 86.4 42 86.4 43.1 C 86.4 44.5 87.2 45.6 88.4 46.2 C 91.2 45.4 91.2 43.5 91.2 43.5 C 91.2 43.5 90.1 41.3 87.7 40.4 Z " id="Shape" fill="#302F38" stroke-width="1"/>
            </g>
            <path d="M 61.8 51.8 C 61.8 49.5 61.8 47.3 61.8 45 C 61.8 44.8 61.8 44.6 61.5 44.5 C 58.1 43 55.3 40.3 51.9 39 C 49.2 37.9 46.7 38.3 44 39.2 C 40 40.6 35.6 43.2 37.6 48.1 C 40.4 54.8 54.5 61.9 60.8 56.3 C 62.2 55 61.8 53.6 61.8 51.8 Z M 50.8 39.7 C 54.1 40.7 56.8 43.2 59.8 44.8 C 55.1 43.4 50.6 41.6 46.2 39.6 C 47.8 39.3 49.3 39.2 50.8 39.7 Z M 40.6 41.9 C 41.8 41.1 43.1 40.5 44.5 40 C 49.7 42.5 55.1 44.6 60.7 46.2 C 60.7 46.2 60.7 46.3 60.7 46.3 C 53.8 46 47.1 44.6 40.6 41.9 Z M 39.5 42.7 C 45.7 45.6 52.1 47.7 58.8 48.4 C 56.3 48.5 53.7 48.6 51.4 48.3 C 47.2 47.8 42.6 47.4 38.3 46.2 C 38 45.1 38.3 43.9 39.5 42.7 Z M 38.6 47.6 C 42.4 48.5 46.4 48.9 50.1 49.4 C 53.6 49.9 57.2 50.1 60.7 50.1 C 60.7 50.1 60.7 50.2 60.7 50.2 C 57.9 50.9 55 51.3 52.1 51.6 C 49 51.8 45.6 52 42.3 51.9 C 40.7 50.6 39.3 49.1 38.6 47.6 Z M 43.8 53 C 47 53 50.2 52.8 53.2 52.5 C 55.8 52.2 58.3 51.8 60.8 51.2 C 60.8 51.3 60.8 51.4 60.8 51.4 C 57 53.2 53.1 54.6 49 55.6 C 47.9 55.2 46.7 54.7 45.7 54.1 C 45.1 53.9 44.5 53.5 43.8 53 Z M 60.6 54.9 C 59.6 56.8 55.9 57 54.1 56.8 C 53.1 56.7 52.1 56.5 51 56.3 C 54.4 55.4 57.6 54.2 60.8 52.7 C 60.9 53.6 60.9 54.4 60.6 54.9 Z " id="fin" fill="#CEC800" stroke-width="1"/>
          </g>
        </g>
      </g>
    </g>
  </g>
</svg>