<svg xmlns="http://www.w3.org/2000/svg" xmlns:xlink="http://www.w3.org/1999/xlink" version="1.1" width="126.55648040771484" height="96.4056625366211" viewBox="0.1695142388343811 -0.2476673722267151 126.55648040771484 96.4056625366211">
  <!-- Exported by Scratch - http://scratch.mit.edu/ -->
  <g id="ID0.5266943816095591">
    <g id="Page-1">
      <g id="catcher-d-[baseball,sports,people,alex-eben-meyer]">
        <g id="Head">
          <path id="Shape" fill="#000000" stroke="none" stroke-width="1" d="M 81.796 16.943 L 93.325 14.794 C 94.811 17.95 95.859 21.671 99.762 23.045 C 112.536 27.564 114.216 46.527 115.868 47.525 C 115.972 48.114 109.917 48.532 109.639 49.041 L 104.136 51.659 C 98.138 45.956 90.517 39.911 88.809 38.481 C 78.535 29.86 82.655 20.859 81.796 16.943 Z "/>
          <path id="Shape" fill="#BE8264" stroke="none" stroke-width="1" d="M 75.019 26.894 C 71.716 22.051 72.381 18.848 72.853 13.297 C 72.853 13.297 74.576 3.17 82.598 3.146 L 88.327 9.8 C 88.327 9.8 93.669 14.951 90.215 25.749 C 89.205 28.905 85.217 31.105 83.363 31.476 C 77.978 32.55 75.982 28.31 75.019 26.894 Z "/>
          <path id="Shape" fill="#A06446" stroke="none" stroke-width="1" d="M 74.641 20.911 C 74.897 14.557 73.495 15.949 72.205 16.158 C 71.581 17.456 71.591 19.138 71.827 21.044 C 72.036 21.182 72.236 21.434 72.415 21.405 C 73.172 21.296 73.919 21.091 74.641 20.911 Z "/>
          <path id="Shape" fill="#000000" stroke="none" stroke-width="1" d="M 81.093 16.287 C 81.093 16.287 81.537 25.739 94.618 29.275 L 98.61 25.35 L 89.979 15.255 L 81.093 16.287 Z "/>
        </g>
        <g id="Mask">
          <path id="Shape" fill="#008264" stroke="none" stroke-width="1" d="M 71.947 13.497 C 75.789 13.587 89.998 15.764 93.924 15.726 C 95.137 9.329 90.196 1.269 81.815 1.378 C 70.9 1.526 71.98 13.497 71.947 13.497 Z "/>
          <path id="Shape" fill="#008264" stroke="none" stroke-width="1" d="M 87.837 16.187 L 96.836 19.856 L 94.047 16.063 L 87.837 16.187 "/>
          <path id="Shape" fill="#BE0A3C" stroke="none" stroke-width="1" d="M 74.387 12.941 L 94.679 12.157 C 94.679 12.157 95.057 15.959 94.764 16.819 C 92.56 17.294 75.076 17.508 74.118 17.232 L 74.387 12.941 Z "/>
          <path id="Shape" fill="#F01446" stroke="none" stroke-width="1" d="M 71.98 32.136 C 71.306 28.334 71.103 10.379 71.098 9.087 C 71.098 7.038 71.235 1.288 71.73 0.841 C 73.953 -0.185 76.992 0.442 76.992 0.442 C 76.992 0.442 77.554 7.918 77.643 10.455 C 77.747 13.416 77.766 24.599 77.554 26.918 C 77.384 28.819 77.804 31.913 76.463 33.329 C 75.303 33.895 74.104 33.643 72.915 33.495 C 72.43 33.192 72.092 32.7 71.98 32.136 Z "/>
          <path id="Shape" fill="#F0E6D2" stroke="none" stroke-width="1" d="M 67.724 26.552 C 67.673 23.377 67.681 18.43 67.681 18.43 L 70.674 18.43 L 70.392 26.552 L 67.724 26.552 Z "/>
          <path id="Shape" fill="#F0E6D2" stroke="none" stroke-width="1" d="M 67.753 12.779 C 67.701 9.605 67.71 4.657 67.71 4.657 L 70.702 4.657 L 70.42 12.784 L 67.753 12.779 Z "/>
          <path id="Shape" fill="#F0E6D2" stroke="none" stroke-width="1" d="M 63.859 19.176 C 73.165 19.262 67.091 19.324 75.524 19.176 L 75.524 11.249 L 63.868 11.059 L 63.859 19.176 Z M 73.91 13.141 C 73.91 14.31 73.958 17.337 73.958 17.337 L 65.411 17.518 L 65.525 13.145 C 65.525 13.145 68.332 13.259 73.91 13.141 Z "/>
        </g>
        <path id="Shape" fill="#BE8264" stroke="none" stroke-width="1" d="M 81.253 21.386 C 78.969 20.07 78.422 18.644 81.362 15.312 C 83.103 13.326 85.699 14.2 86.001 16.486 C 86.378 19.338 83.83 21.22 81.253 21.386 Z "/>
        <g id="Left-Arm">
          <path id="Shape" fill="#BE8264" stroke="none" stroke-width="1" d="M 65.945 51.469 L 60.702 45.624 C 55.439 50.347 49.639 54.428 43.425 57.781 C 40.971 59.064 35.091 61.136 30.358 62.438 C 26.908 63.389 23.945 63.764 23.954 63.921 C 23.954 64.291 26.427 63.583 26.62 64.272 C 26.814 64.962 24.143 65.014 23.751 65.109 L 23.751 65.218 L 26.191 65.442 C 26.432 65.622 26.578 65.808 26.441 66.145 C 25.695 66.44 24.898 66.145 24.081 66.245 C 24.171 66.349 24.214 66.43 24.28 66.468 C 25.384 67.102 26.485 67.724 27.583 68.336 C 27.751 68.416 27.922 68.487 28.097 68.55 C 29.513 69.153 31.061 69.168 32.571 69.096 C 39.5 69.008 46.313 67.291 52.467 64.082 C 65.798 57.12 64.779 51.902 65.945 51.469 Z "/>
          <path id="Shape" fill="#BE0A3C" stroke="none" stroke-width="1" d="M 69.578 37.017 C 69.578 37.017 60.994 42.15 56.62 46.161 L 64.675 56.616 L 69.578 37.017 Z "/>
        </g>
        <g id="Torso">
          <path id="Shape" fill="#F01446" stroke="none" stroke-width="1" d="M 103.65 40.705 C 103.65 40.705 74.09 34.156 71.655 35.32 C 70.028 36.098 68.595 37.235 67.464 38.647 C 67.068 39.122 61.41 67.937 61.735 68.217 L 82.631 65.646 L 98.469 57.98 L 108.379 50.243 L 103.65 40.705 Z "/>
          <path id="Shape" fill="#6E1E3C" stroke="none" stroke-width="1" d="M 95.392 35.135 C 92.037 32.735 87.308 31.499 82.65 31.566 C 78.158 31.632 73.731 32.911 70.678 35.53 C 70.607 36.442 66.511 62.305 66.431 63.17 L 101.909 63.455 C 101.876 62.97 97.737 37.511 95.392 35.135 Z "/>
        </g>
        <g id="Left-Leg">
          <path id="Shape" fill="#00A08C" stroke="none" stroke-width="1" d="M 41.415 81.543 L 41.217 79.29 L 58.753 72.651 L 55.813 85.117 L 41.415 81.543 "/>
          <path id="Shape" fill="#F01446" stroke="none" stroke-width="1" d="M 95.666 94.194 C 93.061 93.947 87.171 87.907 87.171 87.907 L 63.292 82.204 L 62.438 94.028 C 62.438 94.028 82.178 93.833 92.046 93.833 C 92.249 93.709 94.774 94.821 95.349 95.026 L 95.741 94.793 L 95.666 94.194 Z "/>
          <path id="Shape" fill="#00A08C" stroke="none" stroke-width="1" d="M 41.415 81.543 C 41.575 81.885 41.014 84.371 44.18 87.674 C 47.347 90.977 51.103 92.64 60.046 93.79 L 62.797 81.709 C 62.797 81.709 41.91 81.586 41.415 81.543 Z "/>
          <path id="Shape" fill="#6E1E3C" stroke="none" stroke-width="1" d="M 64.595 95.658 L 68.097 81.172 L 61.815 80.901 L 57.979 95.178 L 64.595 95.658 "/>
          <path id="Shape" fill="#6E1E3C" stroke="none" stroke-width="1" d="M 72.707 81.305 L 70.248 81.201 L 66.412 95.477 L 68.852 95.653 L 72.707 81.305 "/>
          <path id="Shape" fill="#6E1E3C" stroke="none" stroke-width="1" d="M 76.869 81.296 L 74.411 81.191 L 70.574 95.468 L 73.014 95.644 L 76.869 81.296 "/>
        </g>
        <path id="Shape" fill="#008264" stroke="none" stroke-width="1" d="M 118.468 54.701 L 116.005 42.962 C 113.414 42.487 109.492 45.999 107.591 47.449 C 106.071 48.604 98.87 53.627 93.117 57.533 C 91.701 58.484 89.252 59.107 86.765 59.354 C 83.212 59.311 79.635 59.263 76.124 59.401 C 71.579 59.587 66.926 58.964 62.438 59.99 C 56.648 61.312 50.169 64.591 45.752 69.339 C 41.91 73.45 41.207 79.29 41.207 79.29 L 84.151 78.972 C 112.319 78.972 114.532 67.808 115.939 66.411 C 119.171 63.208 115.557 58.147 118.468 54.701 Z "/>
        <g id="Right-Leg">
          <path id="Shape" fill="#00A08C" stroke="none" stroke-width="1" d="M 125.57 53.532 C 124.726 48.038 121.706 43.894 116.005 42.962 C 114.764 47.682 110.125 64.938 109.747 68.73 L 124.249 67.637 C 125.198 63.17 126.274 58.09 125.57 53.532 Z "/>
          <path id="Shape" fill="#F01446" stroke="none" stroke-width="1" d="M 109.974 65.109 L 109.705 65.755 C 107.44 75.217 105.123 84.794 101.97 93.961 C 104.014 93.961 105.307 94.137 106.902 93.961 C 107.902 93.857 109.238 93.961 110.399 93.804 C 110.399 93.543 110.465 93.282 110.507 93.02 L 108.081 93.02 C 109.077 90.977 111.725 89.175 113.107 87.317 C 114.948 84.841 116.727 82.27 118.412 79.67 C 121.276 75.255 123.131 70.242 124.48 65.09 L 109.974 65.109 Z "/>
          <path id="Shape" fill="#6E1E3C" stroke="none" stroke-width="1" d="M 124.797 69.947 L 108.086 69.567 L 109.643 63.389 L 126.226 63.389 L 124.797 69.947 "/>
          <path id="Shape" fill="#6E1E3C" stroke="none" stroke-width="1" d="M 106.416 74.677 L 107.034 71.663 L 123.777 71.663 L 123.249 74.677 L 106.416 74.677 "/>
          <path id="Shape" fill="#6E1E3C" stroke="none" stroke-width="1" d="M 105.17 78.726 L 105.783 75.712 L 122.531 75.712 L 121.998 78.726 L 105.17 78.726 "/>
        </g>
        <g id="Arm">
          <path id="Shape" fill="#BE8264" stroke="none" stroke-width="1" d="M 20.906 31.96 L 90.182 29.746 L 90.026 39.864 L 19.872 38.98 L 20.906 31.96 "/>
          <path id="Shape" fill="#BE0A3C" stroke="none" stroke-width="1" d="M 103.65 40.705 C 98.237 40.881 89.757 40.957 84.363 40.743 C 83.891 39.697 85.024 28.653 85.024 28.653 C 85.024 28.653 92.461 28.116 96.911 30.739 C 101.8 33.629 103.735 39.745 103.65 40.705 Z "/>
          <g id="Glove">
            <path id="Shape" fill="#824600" stroke="none" stroke-width="1" d="M 14.152 24.713 C 13.983 24.238 8.291 22.669 8.018 21.994 C 7.263 22.826 4.596 24.808 4.091 25.625 C 3.789 26.101 3.464 26.576 3.148 27.051 L 2.558 27.935 C 1.982 28.814 1.774 29.836 1.439 30.81 C 0.796 32.77 0.552 34.841 0.722 36.898 C 0.83 38.657 1.505 40.287 2.1 41.922 C 2.236 42.248 2.394 42.566 2.572 42.872 C 2.657 43.029 2.751 43.176 2.831 43.347 C 3.261 44.165 3.676 44.987 4.11 45.8 C 4.186 45.937 7.055 48.143 7.225 48.328 L 15.059 38.253 C 15.059 38.253 14.407 25.321 14.152 24.713 Z "/>
            <path id="Shape" fill="#642800" stroke="none" stroke-width="1" d="M 11.576 26.661 C 10.094 28.144 8.225 32.074 7.744 33.956 C 7.126 36.356 7.744 38.614 8.792 40.829 C 8.994 41.009 10.467 43.832 10.755 44.089 C 11.024 44.089 17.947 44.911 17.947 44.911 L 21.014 28.163 L 11.576 26.661 Z "/>
            <path id="Shape" fill="#A0640A" stroke="none" stroke-width="1" d="M 7.017 23.43 C 7.186 22.854 7.531 22.347 8.003 21.98 C 13.888 19.808 21.283 20.754 25.068 25.782 C 28.442 30.245 30.391 35.069 28.371 40.401 C 24.917 49.43 14.289 50.956 7.664 49.098 C 6.361 47.853 5.856 47.14 5.583 46.156 C 5.987 44.57 7.049 43.235 8.499 42.492 C 8.806 42.558 10.943 42.05 11.024 42.069 C 15.087 41.332 19.046 38.932 17.72 33.838 C 16.418 28.795 7.881 28.353 7.017 23.43 Z "/>
          </g>
        </g>
      </g>
    </g>
  </g>
</svg>