<svg xmlns="http://www.w3.org/2000/svg" xmlns:xlink="http://www.w3.org/1999/xlink" version="1.1" width="119.35839080810547" height="181.2637176513672" viewBox="-0.4491390585899353 0.05666321516036987 119.35839080810547 181.2637176513672">
  <!-- Exported by Scratch - http://scratch.mit.edu/ -->
  <g id="space">
    <g id="ripley-f">
      <g id="mike-puppet-back">
        <g id="Group">
          <path id="Shape" fill="#FFFFFF" stroke="none" stroke-width="1" d="M 49.013 79.029 L 43.153 77.315 L 36.252 72.82 L 31.953 68.1 L 28.729 63.53 L 27.903 55.364 L 29.105 46.898 L 32.635 39.481 L 39.52 34.462 L 47.51 31.54 L 57.577 30.491 L 68.396 30.941 L 77.61 32.364 L 87.327 35.661 L 93.863 40.38 L 98.671 46.823 L 100.562 52.966 L 100.562 59.859 L 98.371 67.425 L 94.014 72.745 L 88.204 76.715 L 79.815 80.667 L 73.053 82.259 L 65.09 81.06 L 49.013 79.029 "/>
          <path id="Shape" fill="#FCF6B6" stroke="none" stroke-width="1" d="M 72.027 82.259 L 62.11 80.667 L 53.295 80.262 L 47.936 79.029 L 43.379 73.469 C 43.379 73.469 42.477 67.725 42.477 67.575 C 42.477 67.425 42.728 63.33 42.728 63.33 L 39.673 63.58 C 39.673 63.58 35.766 61.732 35.516 61.433 C 35.265 61.133 32.961 56.987 32.961 56.738 C 32.961 56.489 32.961 51.044 32.961 51.044 L 35.273 48.298 C 35.273 48.298 38.834 47.848 38.928 47.898 C 39.022 47.948 42.528 47.998 42.778 48.097 C 43.029 48.197 45.833 49.246 45.833 49.246 L 50.691 44.901 C 50.691 44.901 54.046 42.354 54.347 42.304 C 54.647 42.255 62.11 40.706 62.11 40.706 L 69.473 41.932 L 75.483 45.251 L 79.64 49.147 L 82.503 53.242 L 86.301 52.043 C 86.301 52.043 88.755 52.343 89.005 52.443 C 89.256 52.543 92.812 54.89 92.812 54.89 C 92.812 54.89 94.014 58.087 94.114 58.236 C 94.214 58.386 94.415 63.281 94.415 63.281 L 92.712 66.526 L 89.957 67.875 L 85.55 68.425 L 83.396 68.375 L 82.503 72.47 C 82.503 72.47 79.94 75.916 79.84 76.066 C 79.74 76.216 76.836 80.012 76.635 80.212 C 76.434 80.412 73.329 82.26 73.329 82.26 L 72.027 82.26 L 72.027 82.259 Z "/>
          <path id="Shape" fill="#EF453E" stroke="none" stroke-width="1" d="M 66.718 17.131 L 63.012 16.332 L 59.656 12.486 L 59.005 7.342 L 60.457 3.896 L 64.063 1.998 L 68.17 2.297 L 71.726 4.295 L 74.431 7.791 L 74.431 10.788 L 73.83 13.835 L 69.973 18.38 L 67.469 18.38 L 66.718 17.131 "/>
          <path id="Shape" fill="#30419A" stroke="none" stroke-width="1" d="M 48.782 77.757 C 46.626 77.042 45.474 75.453 44.846 73.366 C 44.524 72.295 44.024 71.271 43.766 70.188 C 43.164 67.651 43.415 65.093 43.726 62.537 C 43.767 62.194 43.655 61.587 43.454 61.509 C 42.99 61.328 42.347 61.211 41.917 61.395 C 39.8 62.299 37.82 61.967 36.313 60.096 C 34.743 58.147 33.847 55.892 33.824 53.329 C 33.808 51.423 35.992 49.136 37.768 48.694 C 39.679 48.219 41.279 48.618 42.978 49.098 C 43.94 49.37 44.51 50.28 44.327 51.15 C 44.151 51.99 44.084 52.865 45.082 53.127 C 46.015 53.372 46.669 52.667 47.08 51.937 C 47.605 51.002 47.959 49.972 48.43 49.004 C 49.423 46.962 51.023 45.502 53.012 44.464 C 54.126 43.881 55.267 43.342 56.428 42.86 C 58.498 42.001 60.679 41.567 62.91 41.78 C 64.639 41.946 66.397 42.188 68.048 42.699 C 71.169 43.665 74.014 45.242 76.625 47.218 C 79.111 49.099 80.696 51.53 81.031 54.654 C 81.139 55.666 81.635 56.074 82.539 56.08 C 83.386 56.085 83.804 55.596 83.88 54.745 C 83.975 53.686 84.906 53.527 85.652 53.45 C 88.596 53.144 91.01 54.305 92.395 56.838 C 94.169 60.08 93.906 64.705 90.304 66.844 C 88.959 67.644 85.761 67.831 84.4 67.198 C 84.507 66.395 84.632 65.578 84.718 64.758 C 84.755 64.401 84.827 63.974 84.676 63.689 C 84.572 63.492 84.42 63.32 84.256 63.155 C 83.966 63.12 83.677 63.097 83.391 63.105 C 83.206 63.342 83.04 63.58 83.041 63.817 C 83.042 66.066 82.157 68.092 81.504 70.163 C 80.585 73.08 78.981 75.672 77.134 78.078 C 76.31 79.152 75.237 80.139 74.07 80.809 C 73.395 81.197 72.287 81.002 71.417 80.836 C 71.118 80.779 68.932 80.11 69.654 81.188 C 70.017 81.729 71.071 81.941 71.638 82.191 C 72.625 82.625 73.678 83.144 74.766 83.275 C 75.914 83.413 77.05 83.056 78.114 82.687 C 79.297 82.277 80.481 81.867 81.678 81.499 C 85.584 80.297 88.945 78.084 92.151 75.68 C 95.342 73.287 98.324 70.603 99.944 66.821 C 100.777 64.876 101.887 62.875 102.014 60.845 C 102.207 57.751 102.586 54.594 101.638 51.465 C 100.938 49.155 99.907 47.044 98.74 44.977 C 97.72 43.173 96.218 41.731 94.918 40.141 C 93.546 38.464 91.819 37.349 90.236 36.01 C 89.333 35.248 88.296 34.549 87.202 34.124 C 84.539 33.092 81.816 32.206 79.095 31.329 C 78.324 31.081 77.464 31.121 76.666 30.938 C 74.78 30.509 72.916 29.979 71.023 29.582 C 69.849 29.335 68.639 29.256 67.236 29.074 C 67.353 27.701 67.4 26.338 67.602 24.998 C 67.845 23.393 68.266 21.815 68.512 20.211 C 68.608 19.589 68.902 19.381 69.432 19.226 C 71.713 18.563 73.386 17.012 74.529 15.078 C 76.189 12.27 76.246 9.216 74.987 6.194 C 74.759 5.648 74.344 5.146 73.916 4.722 C 72.847 3.661 71.854 2.439 70.59 1.678 C 69.37 0.943 67.93 0.648 66.52 0.587 C 65.284 0.533 63.461 0.489 62.318 1.034 C 61.223 1.556 60.087 2.863 59.372 3.816 C 58.224 5.345 57.888 7.256 57.775 9.127 C 57.719 10.053 57.812 10.992 58.097 11.878 C 58.382 12.764 58.944 13.453 59.34 14.272 C 60.138 15.921 61.789 17.132 63.426 17.903 C 63.994 18.171 64.604 18.386 65.234 18.444 C 65.909 18.506 66.102 18.846 66.05 19.455 C 65.781 22.587 65.516 25.719 65.263 28.709 C 63.341 28.709 61.605 28.597 59.89 28.733 C 57.41 28.932 54.919 28.931 52.436 29.106 C 51.308 29.185 50.141 29.236 49.03 29.46 C 47.816 29.705 46.649 30.131 45.457 30.46 C 44.73 30.662 44.009 30.858 43.339 31.203 C 41.882 31.953 40.363 32.549 38.92 33.406 C 37.316 34.36 35.788 35.438 34.329 36.601 C 32.654 37.935 31.296 39.753 30.078 41.545 C 29.085 43.005 28.312 44.689 27.796 46.38 C 26.884 49.366 26.457 52.471 26.655 55.602 C 26.802 57.933 26.95 60.3 27.492 62.557 C 27.975 64.568 28.895 66.495 30.326 68.111 C 31.404 69.328 32.264 70.771 33.47 71.832 C 35.08 73.249 36.922 74.406 38.682 75.65 C 39.86 76.482 41.045 77.303 42.232 78.122 C 42.824 78.532 43.42 78.937 44.013 79.343 C 44.444 79.638 44.849 79.951 45.373 80.081 C 45.837 80.196 46.391 80.124 46.869 80.124 C 47.629 80.124 48.39 80.124 49.15 80.124 C 49.768 80.124 50.389 80.137 51.007 80.124 C 51.535 80.113 52.308 80.2 52.798 80.015 C 53.609 79.708 52.414 79.036 52.066 78.891 C 51.016 78.455 49.865 78.117 48.782 77.757 Z M 60.861 12.57 C 60.854 12.547 60.848 12.524 60.841 12.5 C 60.161 11.407 60.034 9.996 59.906 8.541 C 59.898 8.458 59.924 8.396 59.965 8.349 C 60.233 5.6 61.823 3.543 63.968 2.895 C 64.172 2.833 64.395 2.829 64.622 2.84 C 65.362 2.782 66.063 2.835 66.723 2.991 C 66.968 3.009 67.209 3.063 67.442 3.159 C 67.962 3.277 68.473 3.452 69.001 3.608 C 69.089 3.634 69.144 3.687 69.177 3.749 C 69.186 3.752 69.193 3.755 69.202 3.758 C 69.255 3.779 69.293 3.811 69.325 3.848 C 70.747 4.532 71.926 5.625 72.828 7.257 C 74.02 9.413 73.759 11.419 72.933 13.532 C 72.334 15.064 71.416 16.285 69.866 16.951 C 69.231 17.225 68.688 17.357 68.228 16.547 C 68.045 16.224 67.325 15.922 66.97 16.025 C 64.815 16.653 61.579 14.85 60.861 12.57 Z M 41.497 75.29 C 39.753 74.069 37.827 73.017 36.347 71.528 C 33.63 68.796 30.75 66.09 29.698 62.163 C 28.772 58.706 28.409 55.206 29.223 51.668 C 29.742 49.414 30.18 47.129 30.909 44.942 C 31.295 43.785 32.164 42.762 32.922 41.758 C 34.948 39.077 37.511 37.035 40.579 35.635 C 42.186 34.902 43.749 34.041 45.413 33.473 C 45.781 33.348 46.157 33.245 46.537 33.152 C 47.78 32.617 49.16 32.262 50.474 32.033 C 50.502 32.028 50.531 32.024 50.559 32.019 C 50.906 31.96 51.244 31.909 51.575 31.866 C 53.005 31.544 54.435 31.67 55.869 31.609 C 58.208 31.511 60.556 31.368 62.89 31.47 C 65.993 31.607 69.109 31.822 72.18 32.271 C 74.263 32.575 76.288 33.308 78.322 33.905 C 80.85 34.644 83.432 35.266 85.859 36.259 C 88.605 37.383 91.19 38.802 93.203 41.179 C 95.141 43.463 96.784 45.891 98.167 48.524 C 99.057 50.221 99.584 51.994 99.563 53.929 C 99.545 55.69 99.732 57.467 99.566 59.211 C 99.137 63.74 97.114 67.345 94.27 70.797 C 92.926 72.429 90.893 73.899 89.121 75.033 C 86.823 76.505 84.654 78.031 82.052 78.948 C 80.995 79.321 79.911 79.615 78.52 80.044 C 80.804 76.572 82.929 73.333 83.891 69.843 C 85.128 69.777 86.197 69.728 87.265 69.656 C 87.701 69.627 88.132 69.542 88.567 69.488 C 91.716 69.104 93.945 67.181 94.862 64.159 C 95.779 61.135 95.792 58.199 94.341 55.313 C 93.403 53.45 91.791 52.35 89.992 51.565 C 88.603 50.958 87.079 50.468 85.521 50.937 C 84.664 51.194 83.87 51.663 83.183 51.975 C 82.188 50.368 81.355 48.707 80.216 47.29 C 79.282 46.127 78.098 45.068 76.823 44.294 C 74.606 42.949 72.296 41.721 69.91 40.714 C 68.343 40.052 66.586 39.808 64.894 39.478 C 62.44 38.999 59.983 39.202 57.557 39.717 C 55.227 40.211 53.026 41.037 51.123 42.523 C 50.922 42.679 50.739 42.875 50.513 42.978 C 49.099 43.625 47.843 44.786 46.948 46.041 C 46.721 46.358 46.209 47.81 45.933 47.936 C 45.525 48.121 44.109 46.881 43.693 46.645 C 40.167 44.642 35.015 46.02 32.935 49.575 C 30.748 53.315 31.705 56.768 33.706 60.271 C 35.262 62.993 37.739 63.934 40.515 64.601 C 40.792 64.667 41.161 65.183 41.151 65.479 C 41.054 68.405 41.526 71.225 42.547 73.965 C 42.782 74.595 42.922 75.259 43.192 76.212 C 42.504 75.843 41.965 75.617 41.497 75.29 Z "/>
        </g>
        <g id="Group">
          <path id="Shape" fill="#EF453E" stroke="none" stroke-width="1" d="M 42.766 145.635 L 30.791 139.542 L 24.837 149.131 L 19.928 146.135 L 14.519 146.035 L 10.112 147.633 L 6.907 151.229 L 5.104 156.323 L 5.104 161.818 L 11.114 168.71 L 20.753 173.604 L 27.14 175.303 L 29.044 172.306 L 42.766 145.635 "/>
          <path id="Shape" fill="#FABFBD" stroke="none" stroke-width="1" d="M 41.965 144.936 L 35.312 141.842 L 30.791 139.242 L 31.993 135.646 C 31.993 135.646 32.551 133.411 33.001 133.68 C 33.451 133.948 35.481 133.414 35.481 133.414 C 35.481 133.414 38.421 133.411 38.641 133.68 C 38.86 133.948 41.564 134.669 41.564 134.669 L 42.766 136.046 L 43.768 137.818 L 45.277 139.163 L 45.277 140.841 L 44.442 142.69 L 43.367 144.936 L 41.965 144.936 Z "/>
          <path id="Shape" fill="#30419A" stroke="none" stroke-width="1" d="M 43.887 141.856 C 42.809 143.944 42.721 144.098 40.574 143.157 C 38.127 142.081 35.82 140.684 33.458 139.416 C 33.044 139.193 32.664 138.911 32.087 138.541 C 32.017 138.496 33.477 135.755 33.606 135.497 C 33.965 134.783 34.509 133.665 33.991 132.91 C 33.62 132.368 33.078 132.783 32.665 133.072 C 32.354 133.288 32.046 133.454 31.891 133.828 C 31.681 134.334 31.506 134.849 31.259 135.356 C 29.916 138.113 28.515 140.84 27.113 143.567 C 26.474 144.813 25.776 146.03 25.086 147.297 C 24.04 146.764 23.117 146.222 22.137 145.816 C 21.108 145.389 20.046 144.892 18.962 144.783 C 16.83 144.568 14.728 144.612 12.641 145.517 C 10.924 146.263 9.333 147.054 8.16 148.526 C 7.596 149.234 7.132 150.023 6.563 150.727 C 4.82 152.881 3.733 155.469 3.603 158.075 C 3.441 161.319 4.07 164.645 6.605 167.144 C 7.658 168.183 8.725 169.247 9.943 170.066 C 11.333 171.001 13.01 171.521 14.36 172.5 C 16.067 173.737 18.013 174.368 19.912 175.108 C 21.569 175.755 23.301 176.295 25.05 176.601 C 27.287 176.992 27.94 177.016 29.097 174.729 C 30.059 172.828 30.976 170.904 31.981 169.026 C 33.523 166.146 35.158 163.316 36.693 160.432 C 38.822 156.436 40.879 152.404 43.006 148.407 C 43.44 147.594 44.133 146.917 44.556 146.1 C 45.213 144.828 45.707 143.48 46.319 142.187 C 46.7 141.383 47.507 140.093 46.856 139.231 C 46.399 138.624 45.552 139.113 45.157 139.534 C 44.58 140.147 44.27 141.115 43.887 141.856 Z M 37.681 153.611 C 35.743 157.238 33.729 160.823 31.785 164.445 C 30.734 166.405 29.764 168.411 28.75 170.392 C 28.131 171.603 27.545 172.836 26.837 173.994 C 26.668 174.271 25.844 174.523 25.708 174.39 C 24.632 173.342 23.157 173.481 21.896 173.026 C 19.347 172.107 16.784 171.288 14.534 169.681 C 13.131 168.679 11.523 167.968 10.072 167.025 C 7.705 165.487 6.506 163.221 5.853 160.495 C 5.184 157.703 6.197 155.384 7.409 153.066 C 7.891 152.144 8.553 151.315 9.132 150.442 C 10.764 147.978 15.88 145.708 19.123 147.015 C 20.441 147.547 21.716 148.203 22.958 148.898 C 23.664 149.292 23.907 149.875 23.34 150.697 C 22.705 151.614 22.184 152.621 21.708 153.634 C 21.41 154.267 21.262 155.029 22.175 155.347 C 22.987 155.628 23.648 155.412 24.066 154.569 C 25.757 151.146 27.47 147.734 29.179 144.32 C 29.6 143.482 30.108 142.679 30.44 141.808 C 30.732 141.043 31.155 140.982 31.775 141.3 C 34.254 142.578 36.726 143.872 39.208 145.145 C 39.917 145.509 40.648 145.827 41.465 146.21 C 40.169 148.752 38.966 151.203 37.681 153.611 Z "/>
        </g>
        <g id="Group">
          <path id="Shape" fill="#FABFBD" stroke="none" stroke-width="1" d="M 49.08 133.408 L 49.08 130.297 L 46.576 129.148 C 46.576 129.148 43.671 127.749 42.77 127.749 C 41.868 127.749 39.486 127.549 39.174 127.749 C 38.863 127.95 35.488 128.149 35.488 128.149 C 35.488 128.149 34.255 130.148 34.255 130.297 C 34.255 130.447 33.476 132.941 33.476 132.941 C 33.476 132.941 34.155 134.842 34.355 135.341 C 34.555 135.841 36.294 137.813 36.294 137.813 C 36.294 137.813 38.793 139.348 39.564 139.437 C 40.441 139.537 44.418 139.962 44.445 140.186 C 44.472 140.409 46.676 138.238 46.676 138.238 L 49.08 135.341 L 49.08 133.408 Z "/>
          <path id="Shape" fill="#30419A" stroke="none" stroke-width="1" d="M 47.567 134.294 C 47.418 134.912 47.204 135.334 46.911 135.913 C 46.364 136.993 45.828 138.078 45.279 139.157 C 44.82 140.062 43.607 142.202 45.373 142.501 C 45.988 142.605 46.416 142.267 46.627 141.713 C 46.84 141.153 46.979 140.695 47.277 140.17 C 48.193 138.556 48.92 136.809 49.755 135.15 C 49.928 134.803 50.309 134.34 50.621 134.319 C 51.597 134.253 50.696 133.335 50.244 133.12 C 49.727 132.873 48.877 132.642 48.33 132.927 C 47.876 133.163 47.68 133.812 47.572 134.27 C 47.571 134.278 47.569 134.286 47.567 134.294 Z "/>
          <path id="Shape" fill="#30419A" stroke="none" stroke-width="1" d="M 34.016 134.535 C 34.247 134.166 34.488 133.799 34.658 133.398 C 34.895 132.841 34.988 132.248 35.261 131.729 C 35.521 131.232 35.643 130.566 35.112 130.177 C 34.534 129.755 33.607 130.076 33.125 130.489 C 32.671 130.879 32.774 131.454 32.635 131.977 C 32.346 133.063 31.609 134.034 31.495 135.141 C 31.43 135.778 31.401 136.95 32.35 136.829 C 33.073 136.738 33.301 135.974 33.54 135.407 C 33.668 135.105 33.839 134.819 34.016 134.535 Z "/>
        </g>
        <g id="Group">
          <path id="Shape" fill="#EF453E" stroke="none" stroke-width="1" d="M 71.66 147.634 L 80.748 146.135 L 84.961 144.237 L 86.636 143.838 L 90.841 153.128 L 96.651 153.128 L 101.135 154.126 L 104.565 156.524 L 106.668 161.418 L 107.369 165.314 L 105.265 171.008 L 102.287 174.404 L 96.851 176.8 L 89.515 179.199 L 85.733 179.199 L 82.855 176.8 L 77.318 165.014 L 72.611 151.429 L 71.66 147.634 "/>
          <path id="Shape" fill="#FABFBD" stroke="none" stroke-width="1" d="M 71.008 147.434 L 69.317 143.838 L 68.303 140.941 L 69.656 137.819 C 69.656 137.819 70.306 136.346 71.008 136.346 C 71.709 136.346 74.514 135.347 74.514 135.347 L 78.421 135.347 L 81.125 135.347 L 84.03 135.847 L 85.733 140.741 L 86.636 143.139 L 84.961 144.937 L 80.397 146.193 L 74.714 147.434 L 71.008 147.434 Z "/>
          <path id="Shape" fill="#30419A" stroke="none" stroke-width="1" d="M 83.38 137.514 C 84.232 139.221 85.117 140.907 85.043 142.955 C 80.809 144.791 76.444 146.418 71.611 146.605 C 71.457 146.611 70.635 144.307 70.53 144.06 C 70.173 143.22 69.89 142.256 69.423 141.472 C 69.267 141.21 69.05 141.027 68.928 140.741 C 68.801 140.446 68.755 140.111 68.656 139.806 C 68.482 139.27 68.222 138.673 67.604 138.556 C 67.032 138.448 66.603 138.794 66.52 139.342 C 66.356 140.419 67.167 141.626 67.524 142.605 C 67.977 143.849 68.411 145.101 68.906 146.33 C 70.253 149.675 71.665 152.995 73.05 156.326 C 73.355 157.059 73.67 157.789 73.964 158.527 C 74.981 161.078 75.942 163.653 77.022 166.177 C 77.785 167.963 78.866 169.622 79.519 171.441 C 80.386 173.854 81.053 176.332 82.616 178.431 C 82.697 178.541 82.726 178.693 82.769 178.829 C 83.21 180.236 84.484 181.016 85.883 180.778 C 86.418 180.687 86.968 180.634 87.508 180.65 C 90.175 180.732 92.674 179.958 95.119 179.062 C 96.935 178.396 98.623 177.383 100.442 176.73 C 102.44 176.012 104.036 174.977 105.39 173.258 C 109.528 167.996 109.441 163.795 107.014 158.116 C 106.626 157.206 105.975 156.339 105.252 155.653 C 102.3 152.853 98.57 151.873 94.656 151.522 C 93.454 151.414 92.213 151.733 91.011 151.854 C 90.31 150.195 89.785 148.561 88.957 147.096 C 88.12 145.616 88.5 143.78 87.378 142.429 C 87.248 142.271 87.236 142.02 87.158 141.818 C 86.483 140.079 85.811 138.339 85.131 136.602 C 84.75 135.628 84.592 134.056 83.341 133.683 C 82.531 133.443 82.361 134.274 82.395 134.891 C 82.449 135.845 82.963 136.679 83.38 137.514 Z M 86.727 146.818 C 87.559 149.03 88.34 151.264 89.214 153.461 C 89.961 155.335 90.818 157.165 91.6 159.025 C 91.748 159.376 91.805 159.776 91.845 160.16 C 91.925 160.922 92.196 161.514 93.054 161.587 C 93.829 161.653 94.053 161.36 94.255 160.508 C 94.431 159.767 94.292 159.345 94.025 158.763 C 93.42 157.451 92.859 156.115 92.347 154.764 C 92.277 154.58 92.536 154.077 92.725 154.027 C 93.34 153.865 93.994 153.843 94.34 153.804 C 97.062 154.051 99.441 154.279 101.603 155.58 C 104.078 157.07 105.374 159.252 105.844 162.025 C 105.981 162.835 106.313 163.619 106.394 164.431 C 106.672 167.215 105.101 169.285 103.617 171.4 C 102.402 173.132 100.581 173.831 98.724 174.537 C 97.677 174.935 96.693 175.497 95.655 175.92 C 93.92 176.625 92.206 177.442 90.403 177.897 C 88.922 178.271 87.29 178.423 85.793 178.205 C 85.034 178.095 84.183 177.065 83.793 176.251 C 82.095 172.696 80.506 169.088 78.959 165.463 C 77.087 161.079 75.292 156.66 73.477 152.252 C 73.259 151.722 73.147 151.148 72.954 150.606 C 72.328 148.859 72.529 148.543 74.406 148.315 C 76.314 148.081 78.25 147.967 80.119 147.552 C 81.698 147.2 83.195 146.489 84.733 145.945 C 86.193 145.429 86.206 145.433 86.727 146.818 Z "/>
        </g>
        <g id="Group">
          <path id="Shape" fill="#FABFBD" stroke="none" stroke-width="1" d="M 81.93 131.545 L 79.126 128.948 L 75.37 127.66 C 75.37 127.66 71.112 127.771 70.962 127.66 C 70.812 127.549 67.206 127.899 67.106 128.049 C 67.006 128.199 65.704 130.047 65.603 130.297 C 65.503 130.546 64.931 132.313 65.052 132.64 C 65.173 132.967 66.054 135.441 66.204 135.99 C 66.355 136.539 67.556 139.686 67.656 139.986 C 67.757 140.285 70.562 141.384 70.562 141.384 C 70.562 141.384 71.614 141.334 71.864 141.384 C 72.114 141.434 75.27 141.384 75.571 141.384 C 75.871 141.384 79.728 139.902 79.878 139.836 C 80.028 139.77 81.923 138.606 81.923 138.606 L 82.482 137.051 L 82.76 133.408 L 81.93 131.545 Z "/>
          <path id="Shape" fill="#30419A" stroke="none" stroke-width="1" d="M 82.563 135.987 C 82.642 136.136 82.73 136.273 82.832 136.381 C 83.213 136.786 84.134 137.288 84.679 136.926 C 85.095 136.651 84.985 136.201 84.803 135.816 C 84.604 135.397 84.453 135.103 84.346 134.656 C 84.158 133.864 83.778 133.081 83.506 132.311 C 83.245 131.574 83.041 130.752 82.252 130.407 C 81.174 129.936 80.58 131.051 80.796 131.973 C 81.037 132.997 81.674 134.038 82.123 134.982 C 82.265 135.281 82.393 135.665 82.563 135.987 Z "/>
          <path id="Shape" fill="#30419A" stroke="none" stroke-width="1" d="M 66.429 134.256 C 66.142 133.653 65.758 133.121 65.173 132.967 C 64.796 132.867 64.372 133.064 64.148 133.353 C 63.422 134.291 64.656 135.887 65.056 136.736 C 65.633 137.963 66.197 139.195 66.712 140.448 C 66.983 141.107 67.14 141.755 67.697 142.238 C 68.093 142.582 68.836 142.974 69.194 142.366 C 69.408 142.003 69.306 141.347 69.22 140.973 C 69.116 140.516 68.807 140.044 68.62 139.606 C 68.408 139.109 68.199 138.611 67.991 138.113 C 67.684 137.378 67.385 136.642 67.075 135.909 C 66.888 135.471 66.703 134.831 66.429 134.256 Z "/>
        </g>
        <g id="Group">
          <path id="Shape" fill="#EF453E" stroke="none" stroke-width="1" d="M 27.546 84.363 L 20.758 86.293 L 18.731 84.363 L 15.426 82.029 L 10.016 82.039 L 5.71 84.161 L 1.803 87.991 L 1.803 95.138 L 4.207 101.376 L 10.016 105.072 L 14.674 105.072 L 20.758 103.174 L 22.938 99.678 L 23.539 95.583 L 30.796 93.709 L 28.748 84.363 L 27.546 84.363 "/>
          <path id="Shape" fill="#FABFBD" stroke="none" stroke-width="1" d="M 30.689 93.219 L 27.947 84.795 L 29.85 84.363 L 32.555 83.796 L 34.358 84.795 L 35.318 87.492 L 35.487 89.889 C 35.487 89.889 35.546 91.797 35.213 92.275 C 34.88 92.754 33.007 93.821 33.007 93.821 L 30.689 93.219 Z "/>
          <path id="Shape" fill="#30419A" stroke="none" stroke-width="1" d="M 33.102 92.687 C 31.415 93.179 31.162 92.995 30.764 91.249 C 30.313 89.27 29.799 87.306 29.273 85.174 C 30.214 84.963 31.148 84.772 32.036 84.417 C 32.711 84.147 33.431 84.162 33.735 83.369 C 33.91 82.913 33.72 82.458 33.264 82.227 C 32.64 81.911 31.523 82.239 30.896 82.407 C 29.971 82.654 29.05 82.916 28.127 83.172 C 26.307 83.676 24.477 84.159 22.611 84.464 C 21.193 84.696 20.58 84.793 19.622 83.445 C 18.141 81.36 15.83 80.367 13.104 80.73 C 12.087 80.866 10.965 80.584 10.027 80.898 C 7.666 81.685 5.296 82.586 3.532 84.449 C 2.471 85.569 1.111 86.715 0.716 88.086 C 0 90.582 -0.264 93.256 0.565 95.859 C 0.728 96.372 1.049 96.84 1.179 97.358 C 2.423 102.328 5.788 105.169 10.587 106.32 C 13.22 106.951 15.97 107.015 18.541 105.796 C 20.767 104.74 23.091 103.744 24.073 101.219 C 24.445 100.263 24.861 99.203 24.792 98.223 C 24.685 96.688 24.67 96.47 26.193 96.21 C 28.114 95.882 30.035 95.554 31.956 95.226 C 32.75 95.09 35.19 94.769 35.309 93.633 C 35.434 92.456 33.91 92.451 33.102 92.687 Z M 28.229 93.642 C 26.639 93.982 25.034 94.256 23.426 94.506 C 22.371 94.67 21.656 95.707 22.102 96.691 C 23.045 98.775 22.48 101.344 19.832 102.455 C 18.933 102.832 18.098 103.487 17.171 103.641 C 15.343 103.947 13.449 104.237 11.624 104.075 C 9.818 103.912 8.172 103.051 6.717 101.8 C 4.298 99.719 3.131 96.839 2.715 94.01 C 2.113 89.91 2.922 86.939 7.303 84.495 C 9.775 83.114 12.376 82.6 15.172 83.049 C 16.596 83.277 17.866 84.469 18.21 85.909 C 18.561 87.376 19.383 87.742 20.831 87.33 C 22.285 86.916 23.799 86.715 25.28 86.388 C 25.983 86.233 26.669 86.002 27.671 85.719 C 27.871 87.108 28.051 88.427 28.252 89.743 C 28.409 90.776 28.633 91.801 28.732 92.839 C 28.756 93.099 28.454 93.594 28.229 93.642 Z "/>
        </g>
        <g id="Group">
          <path id="Shape" fill="#EF453E" stroke="none" stroke-width="1" d="M 108.146 90.395 L 104.34 90.395 L 101.11 91.286 L 97.929 92.893 L 95.024 92.282 L 88.513 89.297 L 87.574 93.716 L 86.109 98.858 L 93.021 102.282 L 93.021 104.879 L 94.424 109.075 L 99.131 111.772 L 102.263 112.371 L 108.675 111.173 L 112.453 108.675 L 115.559 105.778 L 117.261 102.182 L 117.261 99.285 L 114.357 93.716 L 109.749 90.795 L 108.146 90.395 "/>
          <g id="Shape">
            <path id="ID0.31293948739767075" fill="#FABFBD" stroke="none" stroke-width="1" d="M 88.213 88.883 L 85.283 88.797 L 82.512 88.883 L 81.501 90.495 L 80.724 92.893 C 80.724 92.893 80.404 94.689 80.724 94.917 C 81.043 95.146 81.581 97.81 81.581 97.81 L 84.937 98.858 L 86.612 98.858 L 88.213 88.883 Z "/>
            <path id="ID0.8056447994895279" fill="#30419A" stroke="none" stroke-width="1" d="M 118.246 99.512 C 118.041 98.396 117.602 97.298 117.108 96.268 C 116.621 95.251 116.095 94.159 115.299 93.399 C 112.912 91.122 110.033 89.865 106.739 89.245 C 103.823 88.696 101.397 89.266 99.077 90.963 C 98.334 91.506 97.531 92.353 96.591 91.666 C 96.02 91.532 95.529 91.216 95.008 90.916 C 94.693 90.835 94.386 90.728 94.096 90.567 C 94.076 90.555 94.064 90.54 94.049 90.527 C 93.592 90.353 93.137 90.175 92.694 89.973 C 91.382 89.376 90.141 88.621 88.818 88.055 C 88.075 87.737 87.322 87.44 86.567 87.15 C 85.986 86.928 85.127 86.587 84.515 86.933 C 84.123 87.156 83.916 87.565 84.152 87.953 C 84.461 88.459 85.066 88.694 85.573 88.934 C 86.07 89.17 86.562 89.478 87.016 89.787 C 87.186 89.903 87.288 90.308 87.233 90.534 C 86.908 91.853 86.517 93.156 86.169 94.471 C 85.901 95.485 85.663 96.51 85.377 97.677 C 84.827 97.34 84.337 97.001 83.683 97.273 C 83.49 97.354 83.233 97.553 83.089 97.707 C 82.848 97.966 82.659 98.381 82.76 98.746 C 82.914 99.306 83.39 99.502 83.919 99.578 C 84.555 99.67 85.082 100.001 85.707 100.136 C 88.049 100.642 90.303 101.321 92.157 103.05 C 92.219 103.765 92.295 104.624 92.366 105.484 C 92.583 108.158 93.82 110.271 96.1 111.644 C 98.608 113.156 101.367 114.063 104.331 113.751 C 106.086 113.567 107.887 113.228 109.513 112.575 C 111.02 111.968 112.48 111.024 113.682 109.925 C 116.713 107.156 119.061 103.968 118.246 99.512 Z M 113.365 106.902 C 112.342 107.707 111.442 108.695 110.343 109.369 C 107.005 111.412 103.412 111.959 99.652 110.703 C 98.53 110.329 97.434 109.818 96.412 109.221 C 94.452 108.079 93.921 106.218 94.129 104.09 C 94.153 103.85 94.439 103.642 94.585 103.408 C 94.831 103.011 95.231 102.618 95.263 102.2 C 95.326 101.396 95.176 100.77 93.997 100.731 C 93.008 100.697 92.015 100.173 91.066 99.77 C 89.808 99.237 88.591 98.61 87.497 98.089 C 87.998 95.816 88.522 93.442 89.09 90.864 C 89.643 91.051 90.178 91.176 90.664 91.405 C 92.781 92.407 94.851 93.521 97.01 94.424 C 98.001 94.839 99.062 94.345 99.782 93.592 C 101.119 92.195 102.685 91.17 104.604 91.209 C 106.166 91.24 107.773 91.59 109.261 92.091 C 112.032 93.024 114.287 94.619 115.47 97.487 C 116.944 101.055 116.513 104.43 113.365 106.902 Z "/>
          </g>
        </g>
        <g id="Group">
          <path id="Shape" fill="#FABFBD" stroke="none" stroke-width="1" d="M 44.574 81.298 L 38.113 82.247 L 33.477 83.096 C 33.477 83.096 32.719 84.794 32.453 85.044 C 32.187 85.294 32.04 86.056 31.996 86.142 C 31.952 86.229 31.99 87.641 31.996 87.89 C 32.002 88.14 33.004 91.279 33.004 91.279 C 33.004 91.279 33.782 92.329 34.133 92.478 C 34.483 92.628 35.067 92.736 35.488 92.885 C 35.909 93.035 38.262 92.685 38.463 92.736 C 38.664 92.786 40.37 91.986 40.593 92.036 C 40.817 92.086 43.421 90.938 43.772 90.887 C 44.122 90.837 46.376 88.44 46.376 88.29 C 46.376 88.14 47.214 86.17 47.146 85.457 C 47.077 84.745 46.469 81.93 46.469 81.93 L 44.574 81.298 Z "/>
          <path id="Shape" fill="#30419A" stroke="none" stroke-width="1" d="M 40.418 91.546 C 40.106 91.131 39.509 91.312 39.05 91.349 C 39.008 91.353 38.969 91.354 38.93 91.354 C 38.897 91.38 38.857 91.402 38.806 91.413 C 37.24 91.748 35.714 92.229 34.133 92.478 C 34.121 92.482 34.11 92.487 34.098 92.492 C 33.411 92.754 32.253 92.617 32.044 93.519 C 31.532 95.743 35.197 94.671 36.129 94.51 C 36.797 94.394 37.48 94.169 38.131 93.983 C 38.781 93.797 39.711 93.721 40.186 93.186 C 40.534 92.795 40.773 92.018 40.418 91.546 Z "/>
          <path id="Shape" fill="#30419A" stroke="none" stroke-width="1" d="M 44.96 82.081 C 45.128 82.06 45.302 82.051 45.52 82.052 C 45.899 82.054 46.388 82.027 46.716 81.811 C 47.689 81.173 46.834 79.795 45.917 79.714 C 44.743 79.61 43.549 79.951 42.404 80.154 C 39.69 80.634 36.968 81.073 34.263 81.602 C 33.396 81.772 32.137 81.84 31.461 82.445 C 30.976 82.881 30.379 83.737 31.204 84.167 C 31.799 84.477 32.737 84.359 33.359 84.211 C 34.223 84.005 35.088 83.8 35.955 83.605 C 37.688 83.213 39.431 82.855 41.189 82.586 C 42.218 82.429 43.281 82.489 44.293 82.22 C 44.555 82.151 44.753 82.106 44.96 82.081 Z "/>
        </g>
        <g id="Group">
          <path id="Shape" fill="#FABFBD" stroke="none" stroke-width="1" d="M 74.308 83.548 L 72.305 83.296 C 72.305 83.296 70.902 83.498 70.602 83.798 C 70.301 84.098 69.9 85.496 69.85 85.945 C 69.8 86.395 70.351 90.141 70.401 90.34 C 70.451 90.54 73.206 93.56 73.357 93.823 C 73.507 94.086 76.211 95.784 76.211 95.784 C 76.211 95.784 79.166 96.084 79.417 96.084 C 79.667 96.084 82.171 96.733 82.171 96.733 C 82.171 96.733 83.323 95.734 83.473 95.734 C 83.624 95.734 84.663 94.059 84.669 93.823 C 84.675 93.587 85.427 90.014 85.427 90.014 L 84.876 88.193 L 82.53 86.295 L 77.637 84.365 L 74.308 83.548 Z "/>
          <path id="Shape" fill="#30419A" stroke="none" stroke-width="1" d="M 74.962 84.945 C 75.437 85.064 75.944 85.041 76.411 85.226 C 78.505 86.055 80.591 86.905 82.673 87.764 C 83.364 88.049 87.17 90.081 86.565 87.83 C 86.258 86.69 84.333 86.296 83.418 85.938 C 81.472 85.176 79.533 84.399 77.591 83.623 C 76.485 83.18 75.339 82.781 74.191 82.436 C 73.722 82.295 72.264 81.778 71.84 82.208 C 71.186 82.87 72.435 83.897 72.906 84.143 C 73.443 84.422 74.065 84.569 74.619 84.826 C 74.73 84.878 74.845 84.916 74.962 84.945 Z "/>
          <path id="Shape" fill="#30419A" stroke="none" stroke-width="1" d="M 81.061 95.14 C 81.233 95.151 81.388 95.278 81.563 95.386 C 82.016 95.667 82.468 95.947 82.921 96.227 L 83.823 96.802 C 84.201 96.971 84.588 97.092 84.658 97.551 C 84.714 97.923 84.563 98.371 84.299 98.64 C 83.986 98.959 83.512 98.85 83.13 98.756 C 82.652 98.64 82.213 98.376 81.846 98.054 C 81.688 97.916 81.559 97.731 81.382 97.618 C 81.203 97.504 81.013 97.456 80.855 97.294 C 80.574 97.005 80.402 96.576 80.392 96.175 C 80.384 95.86 80.515 95.427 80.781 95.234 C 80.882 95.161 80.974 95.136 81.061 95.14 Z "/>
        </g>
        <g id="Group">
          <path id="Shape" fill="#F7EC1E" stroke="none" stroke-width="1" d="M 71.072 81.496 L 59.766 80.448 L 49.048 80.448 L 46.769 81.297 L 43.915 87.109 L 38.505 94.909 L 31.684 106.145 L 26.11 116.933 L 21.827 125.174 L 26.617 127.946 L 44.413 132.637 L 60.292 133.671 L 79.9 130.942 C 79.9 130.942 94.625 128.47 94.925 128.32 C 95.226 128.17 99.508 125.923 99.508 125.923 L 97.029 121.353 L 82.513 98.849 L 73.871 86.216 L 71.072 81.496 Z "/>
          <path id="Shape" fill="#30419A" stroke="none" stroke-width="1" d="M 101.111 124.93 C 99.303 122.778 97.943 120.274 96.4 117.933 C 94.684 115.331 92.943 112.745 91.196 110.162 C 89.597 107.797 87.964 105.451 86.372 103.081 C 85.604 101.939 84.891 100.761 84.169 99.601 L 81.51 95.259 C 80.831 94.657 80.25 93.912 79.863 92.901 C 79.354 91.578 78.163 90.521 77.312 89.321 C 76.448 88.103 75.613 86.864 74.77 85.631 L 73.193 83.382 C 73.18 83.372 73.165 83.369 73.152 83.356 C 72.148 82.405 71.219 81.421 69.963 80.81 C 69.806 80.762 69.652 80.71 69.491 80.666 C 69.462 80.685 69.433 80.695 69.403 80.716 C 69.339 80.764 69.193 80.709 69.088 80.692 C 67.218 80.383 65.355 80.015 63.476 79.775 C 61.647 79.542 59.832 79.244 57.996 79.143 C 56.667 79.069 55.317 79.099 53.986 79.099 C 53.074 79.099 52.104 79.202 51.204 79.015 C 51.19 79.017 51.18 79.024 51.166 79.024 C 49.72 79.052 48.247 79.295 46.96 79.994 C 46.244 80.383 45.871 80.895 45.46 81.442 C 45.457 81.448 45.457 81.454 45.453 81.46 C 45.238 81.769 45.083 82.109 44.9 82.433 C 44.867 82.54 44.827 82.648 44.769 82.762 C 44.42 83.449 44.246 84.203 43.816 84.854 C 42.991 86.101 42.131 87.325 41.262 88.541 C 40.819 89.16 40.349 89.766 39.927 90.4 C 39.583 90.916 39.099 91.4 38.837 91.965 C 38.652 92.363 38.466 92.728 38.245 93.098 C 37.881 93.708 37.617 94.384 37.245 94.98 C 36.846 95.62 36.413 96.242 36.023 96.891 C 34.548 99.346 33.139 101.841 31.646 104.286 C 30.493 106.173 29.126 107.939 28.082 109.881 C 26.476 112.866 25.061 115.954 23.574 119.003 C 22.798 120.591 21.987 122.168 21.287 123.787 C 21.032 124.377 20.624 125.16 20.747 125.823 C 20.927 126.783 22.024 126.668 22.695 127.055 C 22.978 127.217 23.276 127.359 23.579 127.482 C 25.177 128.131 26.667 129.009 28.256 129.676 C 29.036 130.003 29.87 130.174 30.645 130.484 C 31.46 130.81 32.274 131.121 33.136 131.329 C 33.867 131.506 34.67 131.76 35.417 131.843 C 36.055 131.915 36.67 132.061 37.308 132.188 C 39.421 132.608 41.496 133.255 43.623 133.6 C 45.666 133.93 47.614 134.2 49.697 134.2 C 51.41 134.2 53.121 134.19 54.826 134.268 C 56.381 134.339 57.928 134.588 59.483 134.647 C 60.719 134.692 61.96 134.594 63.2 134.569 C 63.218 134.561 63.233 134.551 63.256 134.548 C 64.212 134.391 65.172 134.312 66.137 134.286 C 66.228 134.28 66.32 134.271 66.41 134.266 C 71.041 133.587 75.564 132.923 80.062 132.263 C 80.09 132.247 80.12 132.232 80.159 132.225 C 81.272 132.035 82.384 131.849 83.507 131.728 C 83.52 131.726 83.53 131.731 83.543 131.731 C 83.69 131.619 83.954 131.544 84.373 131.459 C 86.499 131.028 88.631 130.626 90.758 130.198 C 93.073 129.731 95.412 129.334 97.707 128.774 C 98.499 128.581 99.174 128.264 99.976 128.114 C 100.794 127.297 101.075 126.283 101.111 124.93 Z M 95.542 126.955 C 92.609 127.724 89.643 128.385 86.668 128.98 C 84.604 129.393 82.507 129.635 80.422 129.941 C 77.822 130.322 75.2 130.582 72.624 131.085 C 68.209 131.945 63.769 132.432 59.275 132.303 C 57.33 132.248 55.39 132.033 53.445 131.941 C 50.988 131.825 48.501 131.951 46.075 131.624 C 43.371 131.26 40.712 130.537 38.047 129.911 C 36.131 129.461 34.218 128.977 32.34 128.392 C 29.731 127.579 27.016 127.027 24.665 125.52 C 24.364 125.327 24.057 125.143 23.628 124.879 C 24.674 122.654 25.86 120.466 26.756 118.165 C 28.933 112.58 32.155 107.595 35.391 102.599 C 36.768 100.473 37.783 98.117 39.094 95.946 C 40.124 94.241 41.396 92.686 42.487 91.017 C 44.058 88.616 46.109 86.5 46.859 83.603 C 47.2 82.285 48.12 81.728 49.548 81.662 C 52.087 81.545 54.633 81.182 57.16 81.293 C 60.318 81.432 63.47 81.88 66.603 82.329 C 67.903 82.514 69.251 82.866 70.387 83.488 C 71.111 83.886 71.489 84.915 72.015 85.667 C 73.606 87.943 75.195 90.219 76.781 92.498 C 77.21 93.115 77.68 93.712 78.038 94.369 C 78.81 95.79 79.646 97.139 80.642 98.442 C 82.138 100.403 83.231 102.665 84.602 104.729 C 85.882 106.656 87.349 108.458 88.645 110.375 C 89.878 112.198 90.986 114.105 92.17 115.963 C 92.458 116.412 92.818 116.819 93.161 117.232 C 93.526 117.674 93.991 118.054 94.274 118.542 C 95.58 120.793 96.838 123.072 98.219 125.529 C 97.305 126.031 96.481 126.709 95.542 126.955 Z "/>
        </g>
      </g>
    </g>
  </g>
</svg>