<svg xmlns="http://www.w3.org/2000/svg" xmlns:xlink="http://www.w3.org/1999/xlink" width="190.0703582763672" height="85.38145446777344" viewBox="-0.23795342445373535 0.19894766807556152 190.0703582763672 85.38145446777344" version="1.1" xml:space="preserve">
  <defs>
    <polygon id="path-1" points="0.200827206 0.657235772 9.07634191 0.657235772 9.07634191 11.6234244 0.200827206 11.6234244" stroke-width="1"/>
  </defs>
  <g>
    <title>Slice 1</title>
    <desc>Created with Sketch.</desc>
    <g id="Page-1" stroke="none" fill-rule="evenodd">
      <g id="lion-c-[cat,animals,africa,savanna,robert-hunter]">
        <g id="Group-4">
          <path d="M 90.8933 32.8448 C 90.8933 32.8448 91.2454 45.5553 74.158 52.8737 C 56.9811 60.2299 53.8147 62.2589 52.8179 63.939 C 51.761 65.7213 52.3729 68.4145 53.5374 72.2601 L 55.2683 77.1264 C 55.2683 77.1264 55.7915 78.9911 57.6552 78.5248 C 63.3419 77.1026 64.8396 77.0628 65.3824 77.6508 C 66.9191 79.317 65.9314 80.8852 63.826 85.0797 L 51.3244 85.0797 C 51.3244 85.0797 50.5826 85.2111 49.2289 81.4089 C 47.8758 77.6074 42.1563 61.6569 42.1563 61.6569 C 42.1563 61.6569 41.6324 60.6522 42.1563 59.3412 C 42.6801 58.0302 46.4669 55.0405 48.1811 52.6549 C 49.9714 50.1644 55.0714 41.8175 56.9525 28.0959 " id="Fill-1" fill="#BB8E5D" stroke-width="1"/>
          <path d="M 90.894 32.8448 C 90.894 32.8448 91.2461 45.5553 74.158 52.8737 C 56.9811 60.2299 53.8147 62.2589 52.8186 63.939 C 51.7617 65.7213 52.3736 68.4145 53.5374 72.2601 L 55.269 77.1264 C 55.269 77.1264 55.7922 78.9911 57.6552 78.5248 C 63.3419 77.1026 64.8396 77.0628 65.3831 77.6508 C 66.9191 79.317 66.1752 80.9635 63.826 85.0797 L 51.3251 85.0797 C 51.3251 85.0797 50.5826 85.2111 49.2296 81.4089 C 47.8758 77.6074 42.1569 61.6569 42.1569 61.6569 C 42.1569 61.6569 41.6331 60.6522 42.1569 59.3412 C 42.6808 58.0302 46.4676 55.0405 48.1818 52.6549 C 49.9714 50.1644 55.0714 41.8175 56.9525 28.0959 " id="Stroke-3" stroke="#784E3D" stroke-width="0.525" fill="none"/>
          <path d="M 60.2747 80.1857 C 60.2747 80.1857 60.399 80.0913 60.631 79.9487 C 60.7476 79.8795 60.8901 79.7928 61.0606 79.7089 C 61.2324 79.6347 61.4189 79.5005 61.6543 79.476 C 62.1125 79.3844 62.6609 79.2754 63.2931 79.383 C 63.6004 79.4404 63.9622 79.5802 64.1969 79.892 C 64.3115 80.0396 64.3946 80.2242 64.4303 80.3885 C 64.4729 80.5248 64.5043 80.6905 64.526 80.8681 C 64.5993 81.5379 64.4268 82.1889 64.1788 82.7272 C 63.9336 83.2726 63.62 83.7222 63.3419 84.0935 C 63.2693 84.1837 63.2029 84.2731 63.1415 84.3591 C 63.0639 84.4319 62.9787 84.4906 62.9054 84.5507 C 62.7524 84.664 62.619 84.7626 62.5093 84.8444 C 62.2865 85.0003 62.1524 85.08 62.1524 85.08 C 62.1524 85.08 62.2264 84.9444 62.3563 84.7059 C 62.4206 84.5885 62.4988 84.4451 62.5875 84.2815 C 62.6308 84.2004 62.6714 84.1081 62.7251 84.0221 C 62.7908 83.9459 62.8572 83.8641 62.9242 83.776 C 63.189 83.4243 63.4831 83.0006 63.7017 82.5112 C 63.9259 82.0267 64.0649 81.4673 64.0056 80.9289 C 63.9909 80.8059 63.9706 80.6744 63.9245 80.5227 C 63.8959 80.3934 63.847 80.3011 63.782 80.213 C 63.657 80.0403 63.4356 79.9431 63.196 79.8983 C 62.7063 79.8116 62.1887 79.8983 61.7689 79.9899 C 61.5628 80.064 61.3483 80.0396 61.1681 80.0703 C 60.9858 80.0927 60.8258 80.1116 60.6938 80.127 C 60.4277 80.1647 60.2747 80.1857 60.2747 80.1857 " id="Fill-5" fill="#784E3D" stroke-width="1"/>
        </g>
        <g id="Group-3">
          <path d="M 136.72 37.142 C 139.6888 42.5607 134.2312 50.6447 134.2312 50.6447 C 137.4185 55.0146 139.5574 62.0918 143.7493 71.14 C 147.7673 79.8155 151.1705 85.0804 151.1705 85.0804 L 162.7402 85.0804 C 165.0105 81.1181 166.0031 79.1659 165.1879 78.1759 C 164.3727 77.1851 163.0169 77.3599 159.1749 78.292 C 155.333 79.2247 155.1947 77.5781 154.8091 77.0103 C 154.1441 75.6833 152.015 71.5916 150.9672 60.1718 C 149.9194 48.7513 155.0997 37.9139 155.0997 37.9139 C 155.0997 37.9139 154.1274 36.4561 153.3101 35.394 C 146.2375 26.2025 134.739 33.5258 136.72 37.142 " id="Fill-7" fill="#BB8E5D" stroke-width="1"/>
          <path d="M 136.72 37.142 C 139.4708 43.7843 134.2312 50.6447 134.2312 50.6447 C 137.4185 55.0146 139.5574 62.0918 143.7493 71.14 C 147.7673 79.8155 151.1705 85.0804 151.1705 85.0804 L 162.7402 85.0804 C 165.0105 81.1181 166.0031 79.1659 165.1879 78.1759 C 164.3727 77.1851 163.0169 77.3599 159.1749 78.292 C 155.333 79.2247 155.1947 77.5781 154.8091 77.0103 C 154.1441 75.6833 152.015 71.5916 150.9672 60.1718 C 149.9194 48.7513 155.0997 37.9139 155.0997 37.9139 " id="Stroke-9" stroke="#784E3D" stroke-width="0.525" fill="none"/>
          <path d="M 158.5491 80.5353 C 158.5491 80.5353 158.6825 80.4304 158.934 80.2738 C 159.0618 80.1983 159.2162 80.1067 159.3936 80.0018 C 159.4851 79.9522 159.5822 79.899 159.6835 79.8431 C 159.789 79.7956 159.9105 79.7816 160.0292 79.7403 C 160.5147 79.604 161.0882 79.4571 161.7441 79.4187 C 162.071 79.4082 162.4294 79.4131 162.8017 79.5788 C 162.9861 79.6578 163.1684 79.8158 163.2732 80.0137 C 163.3787 80.2102 163.4157 80.4304 163.4038 80.622 C 163.3983 80.8359 163.3689 80.9632 163.3528 81.1373 C 163.327 81.3044 163.2991 81.4778 163.2648 81.6428 C 163.1922 81.9721 163.1042 82.2944 162.9861 82.5958 C 162.7556 83.202 162.4224 83.7243 162.0885 84.1172 C 161.9411 84.3326 161.7358 84.4647 161.5611 84.5794 C 161.3872 84.6955 161.2342 84.7884 161.1057 84.8626 C 160.8493 85.0094 160.6949 85.08 160.6949 85.08 C 160.6949 85.08 160.799 84.9479 160.9799 84.7164 C 161.0708 84.6032 161.1783 84.464 161.2929 84.3011 C 161.4102 84.1382 161.5164 83.9424 161.6869 83.7802 C 161.9914 83.4208 162.289 82.9573 162.4972 82.4077 C 162.6047 82.1343 162.6858 81.8393 162.7528 81.5351 C 162.7835 81.382 162.8073 81.2324 162.8331 81.0758 C 162.8471 80.9233 162.882 80.7248 162.8799 80.6094 C 162.8897 80.3332 162.7968 80.1535 162.5768 80.0522 C 162.354 79.9501 162.0536 79.9291 161.7686 79.9431 C 161.1902 79.9759 160.6377 80.113 160.1738 80.2444 C 160.0565 80.2724 159.9517 80.3248 159.8427 80.3465 C 159.7303 80.3605 159.6241 80.3738 159.5242 80.3864 C 159.3237 80.4164 159.1491 80.4423 159.0059 80.464 C 158.7153 80.5094 158.5491 80.5353 158.5491 80.5353 " id="Fill-11" fill="#784E3D" stroke-width="1"/>
        </g>
        <g id="Group-16">
          <path d="M 174.5498 10.1117 C 174.5498 10.1117 179.7545 12.7728 182.2867 15.5696 L 181.9088 14.1712 C 181.9088 14.1712 184.5283 15.1326 185.8087 16.1814 C 185.8087 16.1814 185.1681 12.1317 181.7921 9.4517 C 181.7921 9.4517 182.7519 9.3643 183.7424 9.9761 C 183.7424 9.9761 175.7247 2.2235 168.3748 2.1976 C 163.0192 2.178 159.9338 4.1784 159.2352 4.4986 C 158.5367 4.8196 156.0632 6.1886 154.2002 6.1012 C 152.3373 6.0138 147.4475 4.3238 142.4999 6.334 C 142.4999 6.334 144.1009 6.5382 144.5661 7.0045 C 144.5661 7.0045 142.5578 6.7416 138.2214 9.0727 C 138.2214 9.0727 140.4623 8.8686 140.7535 9.5097 C 140.7535 9.5097 135.6312 10.7039 131.2654 13.2678 C 131.2654 13.2678 132.4878 12.9763 133.477 13.035 C 133.3338 13.0301 131.3003 14.4725 129.6937 15.0158 C 125.1232 16.5596 119.3611 18.4824 97.532 15.5696 C 75.703 12.6561 72.7342 13.1804 71.5698 13.2385 C 70.406 13.2965 69.0118 13.8789 67.6119 14.7536 C 65.5163 16.2107 57.5412 20.3618 55.9116 29.4946 C 52.4769 53.9081 77.0421 38.2344 83.2122 42.7791 C 98.1726 55.8309 112.4924 55.598 112.4924 55.598 C 124.7754 55.4813 132.8078 48.6062 140.1423 45.8094 C 147.4769 43.0127 154.2296 40.9144 163.2518 44.1775 L 165.8713 42.5463 C 165.8713 42.5463 167.6763 43.8866 167.8509 44.6439 C 167.8509 44.6439 169.3066 43.3622 169.3639 42.1967 C 169.3639 42.1967 170.2957 42.4295 170.5863 43.1287 C 170.5863 43.1287 171.8088 42.1967 171.1102 41.0899 C 171.1102 41.0899 173.4391 41.7891 173.7884 44.411 C 173.7884 44.411 176.4079 41.3227 176.2912 36.1956 C 176.2912 36.1956 177.0477 36.5445 177.1644 37.5352 C 177.1644 37.5352 177.5912 35.3684 179.9194 33.1541 L 175.7883 31.6285 C 180.3581 32.4151 182.4327 35.5544 183.0439 34.4763 C 184.2139 32.4137 186.7112 29.582 188.3702 27.5718 C 190.0292 25.5616 189.0394 24.9212 189.0394 24.9212 L 184.4989 20.6093 C 184.4989 17.8126 183.178 14.6928 183.178 14.6928 " id="Fill-13" fill="#DCB285" stroke-width="1"/>
          <path d="M 174.5498 10.1117 C 174.5498 10.1117 179.7545 12.7728 182.2867 15.5696 L 181.9088 14.1712 C 181.9088 14.1712 184.5283 15.1326 185.8087 16.1814 C 185.8087 16.1814 185.1681 12.1317 181.7921 9.4517 C 181.7921 9.4517 182.7519 9.3643 183.7424 9.9761 C 183.7424 9.9761 175.7247 2.2235 168.3748 2.1976 C 163.0192 2.178 159.9338 4.1784 159.2352 4.4986 C 158.5367 4.8196 156.0632 6.1886 154.2002 6.1012 C 152.3373 6.0138 147.4475 4.3238 142.4999 6.334 C 142.4999 6.334 144.1009 6.5382 144.5661 7.0045 C 144.5661 7.0045 142.5578 6.7416 138.2214 9.0727 C 138.2214 9.0727 140.4623 8.8686 140.7535 9.5097 C 140.7535 9.5097 135.6312 10.7039 131.2654 13.2678 C 131.2654 13.2678 132.4878 12.9763 133.477 13.035 C 133.3338 13.0301 131.3003 14.4725 129.6937 15.0158 C 125.1232 16.5596 119.3611 18.4824 97.532 15.5696 C 75.703 12.6561 72.7342 13.1804 71.5698 13.2385 C 70.406 13.2965 69.0118 13.8789 67.6119 14.7536 C 65.5163 16.2107 57.5412 20.3618 55.9116 29.4946 C 52.4769 53.9081 77.0421 38.2344 83.2122 42.7791 C 98.1726 55.8309 112.4924 55.598 112.4924 55.598 C 124.7754 55.4813 132.8078 48.6062 140.1423 45.8094 C 147.4769 43.0127 154.2296 40.9144 163.2518 44.1775 L 165.8713 42.5463 C 165.8713 42.5463 167.6763 43.8866 167.8509 44.6439 C 167.8509 44.6439 169.3066 43.3622 169.3639 42.1967 C 169.3639 42.1967 170.2957 42.4295 170.5863 43.1287 C 170.5863 43.1287 171.8088 42.1967 171.1102 41.0899 C 171.1102 41.0899 173.4391 41.7891 173.7884 44.411 C 173.7884 44.411 176.4079 41.3227 176.2912 36.1956 C 176.2912 36.1956 177.0477 36.5445 177.1644 37.5352 C 177.1644 37.5352 177.5912 35.3684 179.9194 33.1541 L 175.7883 31.6285 C 180.3581 32.4151 182.4327 35.5544 183.0439 34.4763 C 184.2139 32.4137 186.7112 29.582 188.3702 27.5718 C 190.0292 25.5616 189.0394 24.9212 189.0394 24.9212 L 184.4989 20.6093 C 184.4989 17.8126 183.178 14.6928 183.178 14.6928 " id="Stroke-15" stroke="#784E3D" stroke-width="0.525" fill="none"/>
          <g id="Group-2">
            <path d="M 175.7381 31.765 C 175.7968 31.6776 179.3293 32.5369 179.7833 33.3137 C 179.7833 33.3137 177.6346 35.0372 177.4418 36.4754 C 177.029 39.5693 177.1701 36.6376 176.056 36.1153 C 176.056 36.1153 176.8201 39.9168 173.7746 44.328 C 173.7746 44.328 172.6255 41.0166 170.6752 40.8999 C 170.6752 40.8999 172.089 41.7263 170.4677 43.2596 C 170.4677 43.2596 170.2456 41.927 169.2565 42.1892 C 169.2565 42.1892 168.6341 43.7994 167.7896 44.7314 C 167.7896 44.7314 166.5273 42.659 165.8113 42.6338 L 163.1918 44.265 C 163.1918 44.265 157.3375 42.1892 152.7872 42.6464 C 152.7872 42.6464 160.0485 32.3096 158.1561 25.2884 L 157.2718 27.6705 C 157.2718 27.6705 157.5561 22.9615 155.9844 19.9242 L 155.3837 21.782 C 155.3837 21.782 155.3117 18.1217 153.4194 16.0242 C 153.4194 16.0242 153.4578 18.0287 153.2448 18.7881 C 153.2448 18.7881 152.3388 15.8389 151.9022 15.1502 C 151.4656 14.4622 150.6798 13.4022 150.1231 12.9764 L 149.8178 13.5882 C 149.8178 13.5882 147.8528 10.4635 143.9348 11.1522 C 139.5075 11.9297 134.2245 14.6566 132.0269 15.0852 C 129.5604 15.5655 129.0142 15.4669 129.0142 15.4669 C 129.0142 15.4669 132.7143 13.6756 133.2927 13.2386 C 133.2927 13.2386 132.627 12.9324 132.1143 12.9764 C 132.1143 12.9764 138.2047 9.8266 140.6929 9.5966 C 140.6286 9.6035 140.0489 9.0868 138.6958 8.9344 C 138.6958 8.9344 142.0487 6.8669 144.4608 7.0529 C 144.4608 7.0529 143.8691 6.6292 142.9631 6.3558 C 142.9086 6.3558 146.3915 5.2064 148.9237 5.479 C 151.4558 5.7524 154.2926 6.6397 155.9844 5.9957 C 157.6762 5.3511 164.825 1.0902 170.926 2.6963 C 177.0276 4.3023 183.2774 9.6888 183.2774 9.6888 C 183.2774 9.6888 182.0591 9.4078 181.7315 9.5385 C 181.7315 9.5385 185.4204 12.8778 185.6496 16.0899 C 185.6496 16.0899 182.1136 14.2545 181.7643 14.1888 L 182.1981 15.5529 C 182.1981 15.5529 178.6971 12.5171 174.4731 10.0154 C 174.4242 9.986 174.4514 8.9365 174.1252 8.803 C 173.3659 8.4925 171.9779 9.0274 170.5278 8.5534 C 169.9753 8.3723 168.4965 6.2202 167.9572 6.0719 C 167.4515 5.9328 167.4661 7.6353 167.0191 7.6011 C 164.7049 7.4263 164.0601 7.757 168.0627 11.0648 C 175.4447 16.6031 175.3302 20.4577 175.6138 21.4408 C 175.6138 21.4408 174.1567 20.4927 173.4365 21.2247 C 173.4365 21.2247 176.8746 25.0591 175.9505 30.045 C 175.9505 30.045 174.7902 29.0577 174.5387 28.9375 L 175.7381 31.765 " id="Fill-17" fill="#AC612A" stroke-width="1"/>
            <path d="M 174.4898 10.1991 C 174.4898 10.1991 179.6945 12.8602 182.2267 15.657 L 181.8474 14.2586 C 181.8474 14.2586 184.4669 15.22 185.748 16.2688 C 185.748 16.2688 185.1081 12.2191 181.7314 9.5391 C 181.7314 9.5391 182.6919 9.4517 183.681 10.0635 C 183.681 10.0635 175.6633 2.3109 168.3141 2.285 C 162.9585 2.2654 159.8738 4.2658 159.1752 4.586 C 158.4767 4.907 156.0018 6.276 154.1395 6.1886 C 152.2772 6.1012 147.3868 4.4112 142.4392 6.4214 C 142.4392 6.4214 144.0402 6.6256 144.5061 7.0919 C 144.5061 7.0919 142.4978 6.829 138.1607 9.1601 C 138.1607 9.1601 140.4022 8.956 140.6928 9.5971 C 140.6928 9.5971 135.5698 10.7913 131.204 13.3552 C 131.204 13.3552 132.4264 13.0637 133.417 13.1224 C 133.2724 13.1175 131.2396 14.5599 129.6323 15.1032 C 125.0632 16.647 119.3004 18.5698 97.4713 15.657 C 75.6423 12.7435 72.6735 13.2678 71.5098 13.3259 C 70.3453 13.3839 68.9504 13.9663 67.5512 14.841 C 65.4556 16.2981 57.4805 20.4492 55.8502 29.582 C 54.0878 51.7812 76.9814 38.3218 83.1515 42.8665 C 98.1112 55.9182 112.4317 55.6854 112.4317 55.6854 C 124.714 55.5687 132.7471 48.6935 140.0816 45.8968 C 147.4162 43.1001 154.1689 41.0018 163.1918 44.2649 L 165.8113 42.6337 C 165.8113 42.6337 167.6149 43.974 167.7895 44.7313 C 167.7895 44.7313 169.2452 43.4496 169.3039 42.2841 C 169.3039 42.2841 170.235 42.5169 170.5263 43.2161 C 170.5263 43.2161 171.7488 42.2841 171.0502 41.1773 C 171.0502 41.1773 173.3777 41.8765 173.727 44.4984 C 173.727 44.4984 176.3465 41.4101 176.2305 36.283 C 176.2305 36.283 176.9877 36.6319 177.1037 37.6226 C 177.1037 37.6226 177.5312 35.4558 179.8594 33.2415 L 175.7283 31.7159 C 180.2974 32.5025 182.3713 35.6418 182.9832 34.5637 C 184.1532 32.5011 186.6505 29.6694 188.3095 27.6592 C 189.9685 25.649 188.9787 25.0086 188.9787 25.0086 L 184.4382 20.6967 C 184.4382 17.9 183.1173 14.7802 183.1173 14.7802 " id="Stroke-19" stroke="#784E3D" stroke-width="0.525" fill="none"/>
          </g>
        </g>
        <g id="Group">
          <path d="M 85.902 85.08 L 73.3285 85.08 C 66.8014 72.0849 67.1563 73.663 64.4222 68.7365 C 63.3304 66.7704 60.3617 62.7934 60.5363 60.4337 C 60.7109 58.0739 62.4971 52.2035 56.9528 39.4874 C 51.4079 26.7706 74.289 17.1274 79.1347 19.8368 C 83.981 22.5461 93.5858 33.1213 88.8708 41.8178 C 84.1557 50.5136 78.8727 55.4079 76.5592 57.5495 C 74.2456 59.6904 71.9216 62.3222 71.4075 63.8863 C 70.9227 65.3594 71.0827 65.3343 76.1659 76.3835 C 77.3883 79.0055 77.0831 78.6559 78.4361 78.5251 C 79.7899 78.3937 84.5909 77.9008 84.5909 77.9008 C 84.5909 77.9008 88.4342 77.1268 88.2162 79.8361 C 88.0248 82.2029 87.1244 84.0753 85.902 85.08 " id="Fill-23" fill="#DCB285" stroke-width="1"/>
          <path d="M 85.902 85.08 L 73.3285 85.08 C 66.8014 72.0849 67.1563 73.663 64.4222 68.7365 C 63.3304 66.7704 60.3617 62.7934 60.5363 60.4337 C 60.7109 58.0739 62.4971 52.2035 56.9528 39.4874 C 54.5269 33.924 64.096 25.3275 72.0159 25.6631 C 82.1984 26.0938 94.4848 28.8975 88.8708 41.8178 C 84.9276 50.8912 78.8727 55.4079 76.5592 57.5495 C 74.2456 59.6904 71.9216 62.3222 71.4075 63.8863 C 70.9227 65.3594 71.0827 65.3343 76.1659 76.3835 C 77.3883 79.0055 77.0831 78.6559 78.4361 78.5251 C 79.7899 78.3937 84.5909 77.9008 84.5909 77.9008 C 84.5909 77.9008 88.4342 77.1268 88.2162 79.8361 C 88.0248 82.2029 87.1244 84.0753 85.902 85.08 Z " id="Stroke-25" stroke="#784E3D" stroke-width="0.525" fill="none"/>
          <path d="M 81.7981 80.7538 C 81.7981 80.7538 81.9141 80.6594 82.1327 80.5168 C 82.2424 80.4461 82.3772 80.3622 82.5379 80.2762 C 82.6196 80.2343 82.7055 80.1895 82.797 80.142 C 82.8885 80.0945 82.9996 80.0973 83.1058 80.0637 C 83.3223 80.0134 83.5591 79.9644 83.8176 79.9364 C 84.0726 79.9022 84.3492 79.8854 84.6412 79.9078 C 84.9317 79.9211 85.2426 79.9924 85.5416 80.1329 C 85.8335 80.2916 86.1081 80.5475 86.2373 80.8678 C 86.2597 80.9188 86.2708 80.9153 86.3002 81.0111 L 86.3246 81.116 L 86.3756 81.325 C 86.4203 81.4516 86.407 81.6418 86.414 81.8019 C 86.4259 81.9746 86.3994 82.1235 86.3707 82.2703 C 86.3442 82.4186 86.3246 82.5682 86.2715 82.701 C 86.2261 82.8367 86.1814 82.9702 86.1374 83.101 C 86.0794 83.224 86.0222 83.3443 85.9663 83.4617 C 85.8636 83.7023 85.7204 83.8973 85.6086 84.0917 C 85.5129 84.2987 85.3425 84.428 85.2049 84.549 C 85.0722 84.6734 84.9415 84.7664 84.8381 84.8447 C 84.6286 85 84.5049 85.0797 84.5049 85.0797 C 84.5049 85.0797 84.5692 84.9426 84.6894 84.7175 C 84.7494 84.6056 84.8256 84.4742 84.8926 84.3099 C 84.9276 84.2308 84.9646 84.1455 85.0044 84.0561 C 85.0414 83.9659 85.1245 83.9022 85.1678 83.8078 C 85.2705 83.6288 85.4067 83.4457 85.4969 83.2296 C 85.5472 83.1233 85.5988 83.0143 85.6526 82.9038 C 85.6903 82.7884 85.7302 82.671 85.77 82.5514 C 85.8189 82.4332 85.8308 82.3088 85.8545 82.1836 C 85.8797 82.0578 85.902 81.9312 85.8908 81.8187 C 85.8817 81.6984 85.916 81.597 85.865 81.4481 L 85.8161 81.239 L 85.7909 81.1341 C 85.8 81.1614 85.7693 81.0985 85.7602 81.0852 C 85.6729 80.8657 85.501 80.7146 85.3034 80.6 C 85.0903 80.5035 84.8521 80.4406 84.6048 80.4308 C 84.3603 80.4119 84.1131 80.4252 83.8798 80.4566 C 83.6472 80.4811 83.4257 80.528 83.2238 80.5748 C 83.1205 80.5916 83.0303 80.637 82.9333 80.6461 C 82.8355 80.6524 82.744 80.6587 82.6566 80.665 C 82.4806 80.6818 82.3276 80.6965 82.2005 80.709 C 81.9448 80.7377 81.7981 80.7538 81.7981 80.7538 " id="Fill-27" fill="#784E3D" stroke-width="1"/>
        </g>
        <path d="M167.789629,10.9952049 C168.824849,11.4643593 169.785327,12.0908309 170.708085,12.7711398 C171.177496,13.1032537 171.566577,13.5297577 171.975217,13.9303919 C172.376173,14.3401154 172.756871,14.7708146 173.11382,15.2210911 C173.829114,16.1195463 174.454298,17.0963106 174.939776,18.1429935 C175.435732,19.1847821 175.771724,20.3020829 175.965217,21.4410585 L176.046246,21.9200016 L175.592202,21.7186358 C174.960732,21.438961 174.178379,21.2250098 173.589518,21.4361642 L173.685915,21.0131561 C173.970217,21.3333837 174.204923,21.6557089 174.433342,21.9955138 C174.65757,22.3353187 174.863636,22.6863106 175.052937,23.0456927 C175.24154,23.405774 175.40779,23.7770423 175.563562,24.1532049 L175.771724,24.7265382 C175.846467,24.9160179 175.889776,25.1159854 175.949849,25.3103593 C176.008526,25.5054325 176.060915,25.7019041 176.098636,25.9025707 C176.137754,26.101839 176.186651,26.3004081 176.218085,26.5010748 C176.269077,26.9052049 176.335437,27.3086358 176.341026,27.716961 C176.346614,27.9204244 176.371062,28.1238878 176.359187,28.3273512 L176.335437,28.9384407 C176.321467,29.3460667 176.241835,29.7474 176.197827,30.1515301 L176.128673,30.7780016 L175.731908,30.2661967 C175.586614,30.0781154 175.397312,29.8998228 175.217092,29.736213 C175.120695,29.6627984 175.034077,29.5733024 174.936982,29.5068797 C174.843379,29.4278715 174.742092,29.3817252 174.642901,29.3222943 L174.906945,29.0062618 C175.245732,29.6970585 175.51746,30.3997415 175.699776,31.1373837 C175.788489,31.5044569 175.861136,31.8792211 175.86882,32.2588797 C175.879996,32.446961 175.867423,32.6385382 175.843673,32.824522 C175.822717,33.0126033 175.767533,33.1929935 175.706761,33.3691886 C175.747974,33.1860016 175.782202,33.0049122 175.782901,32.8196276 C175.785695,32.6357415 175.778011,32.4511561 175.746577,32.2693675 C175.695585,31.9057902 175.598489,31.5492049 175.477643,31.2031073 C175.238048,30.5109122 174.903452,29.8417902 174.526945,29.2258065 L174.190952,28.674148 L174.792386,28.909774 C174.931393,28.9636114 175.079482,29.014652 175.200327,29.0915626 C175.334445,29.1586846 175.447607,29.2446846 175.560768,29.3334813 C175.779408,29.5187659 175.961026,29.7215301 176.147533,29.9466683 L175.682312,30.061335 C175.722827,29.6753837 175.799665,29.2929285 175.812239,28.9055789 L175.83529,28.3238553 C175.847165,28.1301805 175.822717,27.9365057 175.817827,27.7428309 C175.813636,27.3547821 175.748673,26.9716276 175.701173,26.5863756 C175.671136,26.3947984 175.623636,26.2067171 175.586614,26.0165382 C175.550989,25.824961 175.502092,25.6375789 175.444812,25.4522943 C175.387533,25.2670098 175.347018,25.0761317 175.275768,24.8950423 L175.076687,24.3475789 C174.927901,23.9881967 174.769335,23.6337089 174.589114,23.2890098 C174.408195,22.9457089 174.21121,22.6100992 173.99746,22.2863756 C173.783011,21.9668472 173.546908,21.6459203 173.30382,21.3711398 L173.043967,21.0774813 L173.400217,20.9474325 C173.831908,20.7894163 174.26779,20.8089935 174.668048,20.878213 C175.072496,20.9537252 175.444114,21.0746846 175.82132,21.2473837 L175.448305,21.524961 C175.261798,20.4349285 174.941871,19.3658715 174.465474,18.365335 C173.998857,17.3599041 173.396724,16.4174 172.703783,15.5476114 C172.35871,15.1120179 171.990585,14.6946033 171.600107,14.2960667 C171.219408,13.8877415 170.782827,13.5402455 170.394445,13.1368146 C169.596026,12.353026 168.724261,11.6363593 167.789629,10.9952049" id="Fill-21" fill="#784E3D" stroke-width="1"/>
        <path d="M147.765515,11.6653756 C148.162279,11.9198797 148.540882,12.2023512 148.906213,12.5037008 C149.08364,12.6610179 149.265956,12.8127415 149.429412,12.9875382 C149.603346,13.151148 149.74864,13.3434244 149.90511,13.5266114 L149.722096,13.5405951 L149.992426,12.9113268 L150.065772,12.740026 L150.21875,12.8658797 C150.69375,13.259522 151.103787,13.6993106 151.487279,14.1726602 C151.683566,14.4047902 151.851912,14.6599935 152.004191,14.9221886 C152.151581,15.1871805 152.305956,15.4493756 152.436581,15.7234569 C152.704118,16.2681236 152.936029,16.8323675 153.105074,17.4168878 C153.199375,17.7063512 153.26364,18.0035057 153.330699,18.299961 C153.399154,18.5964163 153.431287,18.8998634 153.482978,19.1991154 L152.988419,19.115213 C153.026838,19.0264163 153.071544,18.9082537 153.104375,18.7984813 C153.143493,18.6880098 153.166544,18.5698472 153.196581,18.4551805 C153.246176,18.2223512 153.291581,17.9867252 153.30625,17.7469041 C153.336287,17.5084813 153.328603,17.2672618 153.329301,17.0267415 C153.32511,16.7862211 153.286691,16.5464 153.269228,16.3065789 L153.203566,15.4360911 L153.729559,16.1010179 C153.837831,16.2373593 153.911875,16.3569203 153.994301,16.4876683 C154.07114,16.6170179 154.147279,16.7463675 154.21364,16.879213 C154.354044,17.1421073 154.472096,17.4133919 154.583162,17.686774 C154.8025,18.2356358 154.968051,18.801278 155.102169,19.3718146 C155.237684,19.9430504 155.323603,20.5226764 155.390662,21.1030016 C155.454926,21.684026 155.481471,22.267148 155.493346,22.8495707 L154.978529,22.7810504 L155.764375,19.9843024 L155.969044,19.257148 L156.25614,19.9493431 C156.546029,20.6471317 156.752794,21.3421236 156.928125,22.0573919 C157.099963,22.7705626 157.234081,23.4928228 157.315809,24.2213756 C157.398934,24.9499285 157.446434,25.6833756 157.435956,26.417522 C157.441544,26.7852943 157.412206,27.1509691 157.39614,27.5180423 C157.384963,27.8851154 157.301838,28.2465951 157.24386,28.6080748 L156.814963,28.4857171 C157.072721,27.9871967 157.322096,27.4781886 157.554007,26.9656846 C157.777537,26.4489854 158.02761,25.939278 158.15614,25.3869203 C158.131691,25.6693919 158.076507,25.950465 158.010147,26.2280423 C157.938199,26.503522 157.862059,26.7790016 157.775441,27.049587 C157.607794,27.5942537 157.423382,28.1312293 157.227096,28.6682049 L156.757684,29.9477171 L156.798199,28.5458472 C156.818456,27.8305789 156.923235,27.1271967 156.912059,26.414026 C156.922537,25.7022537 156.876434,24.9904813 156.794706,24.2829041 C156.715772,23.5753268 156.586544,22.8733431 156.419596,22.1818472 C156.25125,21.4938472 156.043088,20.7995545 155.778346,20.1625951 L156.269412,20.1269366 L155.483566,22.9236846 L155.005074,24.6241073 L154.969449,22.854465 C154.957574,22.2881236 154.931728,21.7217821 154.870257,21.1596358 C154.805294,20.5974894 154.722169,20.0381398 154.591544,19.4899772 C154.463015,18.9418146 154.304449,18.4013431 154.096985,17.8818472 C153.990809,17.623148 153.880441,17.3665463 153.749118,17.1225301 C153.625478,16.8799122 153.475294,16.6296033 153.327206,16.4359285 L153.787537,16.2310667 C153.808493,16.490465 153.84761,16.7498634 153.8525,17.0113593 C153.853199,17.2728553 153.860184,17.5343512 153.827353,17.795148 C153.810588,18.0566439 153.761691,18.3160423 153.707206,18.5733431 C153.673676,18.7012943 153.648529,18.8306439 153.603125,18.9578959 C153.56261,19.0872455 153.521397,19.2061073 153.457132,19.3459447 L153.110662,20.1122537 L152.962574,19.2620423 C152.912978,18.9774732 152.882941,18.6887089 152.817279,18.4076358 C152.753713,18.1258634 152.69364,17.8426927 152.603529,17.5679122 C152.443566,17.0120585 152.222132,16.4750829 151.967868,15.9562862 C151.724779,15.4290992 151.388088,14.957148 151.086324,14.4621236 C150.777574,13.9740911 150.423419,13.4986439 150.027353,13.0868228 L150.253676,13.0413756 L149.912794,13.6356846 L149.828971,13.7818146 L149.730478,13.6489691 C149.592169,13.4650829 149.466434,13.2714081 149.306471,13.1008065 C149.158382,12.9211154 148.993529,12.7561073 148.830074,12.5876033 C148.494081,12.2610829 148.140625,11.9506439 147.765515,11.6653756" id="Fill-29" fill="#784E3D" stroke-width="1"/>
        <g id="Group-45">
          <g id="Fill-43-Clipped">
            <mask id="mask-2" fill="white">
              <use xlink:href="#path-1"/>
            </mask>
            <g id="path-1"/>
            <path d="M 174.6152 11.6654 C 174.6152 11.6654 174.5468 11.3312 174.428 10.7473 C 174.3735 10.4551 174.3072 10.0992 174.2303 9.6916 C 174.1919 9.4881 174.1507 9.2714 174.1074 9.0427 C 174.0669 8.8134 174.0697 8.5673 174.0383 8.3142 C 173.9433 7.299 173.8322 6.1152 173.7134 4.8462 C 173.6373 4.2295 173.5158 3.5898 173.2978 2.992 C 173.0792 2.3997 172.7432 1.8278 172.2367 1.5104 C 171.9846 1.3559 171.7017 1.2503 171.3992 1.237 C 171.3322 1.2342 171.2302 1.2188 171.1924 1.2237 L 170.9403 1.2461 C 170.7691 1.2636 170.6699 1.3104 170.5274 1.3524 C 169.9819 1.574 169.5579 2.0453 169.2533 2.5662 C 168.9397 3.0857 168.7238 3.6499 168.5408 4.1932 C 168.45 4.4721 168.3613 4.7427 168.2761 5.0049 C 168.1874 5.2622 168.121 5.5013 168.054 5.7489 C 167.9436 6.2425 167.7906 6.6928 167.6006 7.0857 C 167.5035 7.2815 167.4134 7.4703 167.2381 7.6255 C 167.1668 7.7122 166.9817 7.7436 166.9244 7.7317 C 166.8427 7.7331 166.7638 7.7345 166.6883 7.7359 C 166.3719 7.7045 166.1358 7.6395 165.9856 7.5905 C 165.8319 7.5472 165.7523 7.5143 165.7523 7.5143 C 165.7523 7.5143 165.8375 7.5297 165.9968 7.5388 C 166.1574 7.5563 166.3866 7.5577 166.6618 7.5423 C 166.7994 7.4989 167.009 7.5087 167.0418 7.4171 C 167.1207 7.3171 167.1829 7.1367 167.2332 6.9487 C 167.3268 6.5634 167.3924 6.1026 167.5482 5.6125 C 167.6139 5.3685 167.69 5.0951 167.7815 4.8336 C 167.866 4.5728 167.9534 4.3036 168.0442 4.0261 C 168.2342 3.4653 168.4584 2.8696 168.8049 2.2963 C 169.1395 1.7271 169.6284 1.1538 170.3353 0.865 C 170.5079 0.8042 170.7307 0.7371 170.8935 0.7238 L 171.1449 0.7014 C 171.2756 0.6923 171.3419 0.7112 171.4439 0.7147 C 171.8183 0.7322 172.1941 0.8664 172.5169 1.0671 C 173.1728 1.4838 173.5472 2.1627 173.7896 2.8102 C 174.0292 3.4709 174.1528 4.1351 174.2331 4.7812 C 174.3519 6.0495 174.463 7.2339 174.558 8.2491 C 174.5747 8.5037 174.6236 8.7435 174.625 8.9777 C 174.6257 9.2112 174.6264 9.4336 174.6264 9.6419 C 174.6264 10.0593 174.6278 10.4229 174.6278 10.7222 C 174.6194 11.3228 174.6152 11.6654 174.6152 11.6654 " id="Fill-43" fill="#784E3D" mask="url(#mask-2)" stroke-width="1"/>
          </g>
          <path d="M 168.2808 4.7364 C 168.5979 3.1583 169.6534 0.7405 171.3997 0.9594 C 172.4426 1.0894 173.9605 2.1976 174.1247 6.6836 C 174.2462 10.0019 173.4659 11.2017 170.6439 11.1934 C 169.5228 11.1899 167.3859 9.1937 168.2808 4.7364 " id="Fill-31" fill="#BB8E5D" stroke-width="1"/>
          <path d="M 182.8448 20.9733 L 180.0507 20.4489 L 177.6932 16.7565 L 181.7914 17.936 C 181.7914 17.936 182.7861 20.1287 182.8448 20.9733 " id="Fill-33" fill="#FBF3ED" stroke-width="1"/>
          <path d="M 186.9705 27.2223 C 186.9705 27.2223 185.9227 26.3924 186.1413 24.7835 C 186.3257 23.4201 186.9488 22.8524 189.0514 25.0737 C 189.8037 25.868 188.8502 27.0125 188.4507 27.4915 C 188.0511 27.9704 187.625 27.7026 186.9705 27.2223 " id="Fill-35" fill="#311A14" stroke-width="1"/>
          <path d="M 182.8448 20.9733 L 182.212 18.264 C 182.212 18.264 182.2462 18.0074 180.7925 17.5648 C 179.2865 17.1061 177.6932 16.7565 177.6932 16.7565 L 180.0507 20.4489 L 182.8448 20.9733 Z " id="Stroke-37" stroke="#311A14" stroke-width="0.5" fill="none"/>
          <path d="M 181.1203 20.5254 C 181.1203 20.5254 180.4001 20.0451 180.5531 18.9306 C 180.6278 18.3838 181.2216 17.786 181.7916 17.9356 C 182.4999 18.1216 182.845 20.9736 182.845 20.9736 L 180.6313 20.5576 " id="Fill-39" fill="#311A14" stroke-width="1"/>
          <path d="M 177.861 26.2025 C 177.861 26.2025 177.8679 26.3703 177.9553 26.6332 C 177.9958 26.7647 178.0642 26.9171 178.1474 27.0828 C 178.2312 27.2513 178.3709 27.4107 178.4533 27.6198 C 178.5588 27.8169 178.6915 28.0253 178.8599 28.2267 C 179.0191 28.4329 179.214 28.635 179.4278 28.8294 C 179.8539 29.2286 180.3631 29.574 180.9128 29.9117 C 181.4577 30.2515 182.0018 30.5892 182.5201 30.8808 C 183.0371 31.1702 183.5337 31.4136 183.9549 31.5156 C 184.0569 31.538 184.1589 31.5513 184.2476 31.552 C 184.337 31.5744 184.4229 31.5919 184.5054 31.5919 C 184.6702 31.5995 184.8211 31.5548 184.9433 31.4996 C 185.0621 31.4394 185.1606 31.3863 185.2207 31.3387 C 185.2849 31.2954 185.3192 31.2716 185.3192 31.2716 C 185.308 31.2646 185.2675 31.4317 185.0649 31.6625 C 184.9622 31.7743 184.8106 31.9065 184.5913 31.9932 C 184.4816 32.0372 184.3594 32.0743 184.2287 32.0834 C 184.0974 32.0855 183.9703 32.0477 183.8383 32.0267 C 183.3179 31.8988 182.7982 31.6359 182.2645 31.3381 C 181.7315 31.0388 181.1818 30.6969 180.6355 30.3564 C 180.0893 30.0215 179.5283 29.6432 179.0722 29.2153 C 178.841 29.0049 178.6293 28.7839 178.4505 28.5539 C 178.2647 28.3301 178.1131 28.0959 177.9916 27.8687 C 177.8379 27.6568 177.8176 27.4002 177.7785 27.1968 C 177.7506 26.987 177.7506 26.8031 177.7625 26.6542 C 177.7897 26.3549 177.861 26.2025 177.861 26.2025 " id="Fill-41" fill="#23110A" stroke-width="1"/>
          <path d="M 168.6396 3.1928 C 168.6396 3.1928 166.2332 10.9951 171.2535 11.2719 C 174.2704 11.4383 174.1992 6.9482 174.086 5.7728 " id="Stroke-46" stroke="#784E3D" stroke-width="0.525" fill="none"/>
        </g>
        <g id="Group-51">
          <path d="M 56.9526 25.8475 C 56.9526 25.8475 42.1564 44.527 24.9544 44.2655 C 6.706 43.1286 4.3925 29.8881 4.1305 28.0961 C 3.8686 26.3047 3.694 24.2946 2.1223 24.4694 C 0.5506 24.6442 -1.3753 30.7271 2.6853 37.5875 C 6.7451 44.4486 17.4026 49.1954 24.9991 49.1591 C 33.8614 49.0283 45.4667 46.319 56.9526 36.0493 " id="Fill-48" fill="#DCB285" stroke-width="1"/>
          <path d="M 56.9526 25.8475 C 56.9526 25.8475 42.1564 44.527 24.9544 44.2655 C 6.706 43.1286 4.3925 29.8881 4.1305 28.0961 C 3.8686 26.3047 3.694 24.2946 2.1223 24.4694 C 0.5506 24.6442 -1.3753 30.7271 2.6853 37.5875 C 6.7451 44.4486 17.4026 49.1954 24.9991 49.1591 C 33.8614 49.0283 45.4667 46.319 56.9526 36.0493 " id="Stroke-50" stroke="#784E3D" stroke-width="0.525" fill="none"/>
        </g>
        <g id="Group-55">
          <path d="M 131.8808 37.142 C 131.1034 43.7843 122.2195 50.6447 122.2195 50.6447 C 123.0849 55.0146 121.7535 62.0743 120.8496 71.14 C 120.4054 75.5924 119.616 79.9294 119.4749 81.5404 C 119.243 84.1805 122.0071 85.0804 122.0071 85.0804 L 132.4361 85.0804 C 135.5411 85.0804 137.9769 82.0529 137.5061 79.2247 C 137.2441 77.6515 136.8131 77.5235 133.0963 78.1318 C 128.5558 78.8751 128.1164 77.1698 128.0319 76.6027 C 128.0731 75.275 128.8757 71.5916 133.8947 60.1718 C 138.9129 48.7513 149.8505 37.9139 149.8505 37.9139 " id="Fill-52" fill="#DCB285" stroke-width="1"/>
          <path d="M 131.8808 37.142 C 131.1034 43.7843 122.2195 50.6447 122.2195 50.6447 C 123.0849 55.0146 121.7535 62.0743 120.8496 71.14 C 120.4054 75.5924 119.616 79.9294 119.4749 81.5404 C 119.243 84.1805 122.0071 85.0804 122.0071 85.0804 L 132.4361 85.0804 C 135.5411 85.0804 137.9769 82.0529 137.5061 79.2247 C 137.2441 77.6515 136.8131 77.5235 133.0963 78.1318 C 128.5558 78.8751 128.1164 77.1698 128.0319 76.6027 C 128.0731 75.275 128.8757 71.5916 133.8947 60.1718 C 138.9129 48.7513 149.8505 37.9139 149.8505 37.9139 " id="Stroke-54" stroke="#784E3D" stroke-width="0.525" fill="none"/>
          <path d="M 132.8344 79.6763 C 132.8344 79.6763 132.9693 79.5875 133.2221 79.4596 C 133.3472 79.3953 133.5029 79.3212 133.6887 79.2498 C 133.8711 79.1687 134.0876 79.096 134.3363 79.096 C 134.5815 79.0729 134.8539 79.066 135.1522 79.1072 C 135.4421 79.1589 135.8088 79.2547 136.0554 79.5945 C 136.3096 79.9511 136.2321 80.3448 136.1783 80.6811 C 136.0973 80.9817 136.0421 81.2789 135.9366 81.59 C 135.8444 81.9012 135.7375 82.2081 135.5978 82.4997 C 135.4868 82.8017 135.2863 83.0611 135.134 83.3296 C 134.9286 83.5603 134.7617 83.8183 134.5424 83.9966 C 134.3286 84.1777 134.1428 84.3777 133.9332 84.5007 C 133.7446 84.6553 133.5358 84.7468 133.3493 84.814 C 133.1607 84.872 132.9951 84.9223 132.8603 84.9636 C 132.59 85.044 132.4363 85.0804 132.4363 85.0804 C 132.4363 85.0804 132.5564 84.9692 132.7681 84.7909 C 132.8743 84.7035 133.0014 84.5979 133.1481 84.4763 C 133.2822 84.3385 133.4254 84.1833 133.6259 84.0763 C 133.8229 83.9617 133.9842 83.782 134.1798 83.6184 C 134.3803 83.4575 134.5207 83.2282 134.7079 83.0254 C 134.8399 82.7828 135.0215 82.5605 135.1221 82.2808 C 135.2493 82.0165 135.3478 81.7334 135.4337 81.4453 C 135.5301 81.1642 135.5915 80.8454 135.6712 80.5517 C 135.7103 80.3007 135.7466 80.0294 135.6251 79.8938 C 135.5231 79.7449 135.3017 79.6638 135.0746 79.6253 C 134.8413 79.5938 134.6024 79.5966 134.3824 79.6183 C 134.2713 79.6169 134.1679 79.6617 134.0653 79.6554 C 133.9598 79.647 133.8606 79.6505 133.7663 79.6477 C 133.5756 79.6512 133.4093 79.654 133.2724 79.6568 C 132.9944 79.6694 132.8344 79.6763 132.8344 79.6763 " id="Fill-56" fill="#784E3D" stroke-width="1"/>
        </g>
        <path d="M57.3468897,39.3706602 C57.3468897,39.3706602 54.3334338,36.2306114 56.0923309,33.0667902 C57.8519265,29.9036683 69.5264485,24.4584 69.5264485,24.4584 L89.3129926,23.0565301 L96.5804926,28.0829854 C96.5804926,28.0829854 91.6907868,34.6951967 87.1503456,37.141652 C82.6099044,39.5888065 57.3468897,39.3706602 57.3468897,39.3706602" id="Fill-58" fill="#DCB285" stroke-width="1"/>
      </g>
    </g>
  </g>
</svg>