<svg version="1.1" xmlns="http://www.w3.org/2000/svg" xmlns:xlink="http://www.w3.org/1999/xlink" width="155.32968" height="117.68235" viewBox="0,0,155.32968,117.68235"><g transform="translate(-190.25463,-118.7451)"><g data-paper-data="{&quot;isPaintingLayer&quot;:true}" fill-rule="nonzero" stroke-miterlimit="10" stroke-dasharray="" stroke-dashoffset="0" style="mix-blend-mode: normal"><g data-paper-data="{&quot;index&quot;:null,&quot;origPos&quot;:null,&quot;origRot&quot;:0}" stroke-linejoin="round"><path d="M334.00419,174.60922c-4.84515,0.12063 -4.13422,-1.78551 -11.96253,-2.15021c-5.36111,-0.24976 -15.17031,2.20481 -15.21118,-5.50825c-0.16808,-8.29738 8.86564,-6.75588 15.96146,-6.93256c3.22577,-0.41625 6.8009,-1.67936 10.35959,-1.52585c10.48949,0.45249 12.46078,5.47744 12.29888,9.19898c-0.1932,4.44101 -6.60107,6.79725 -11.44622,6.91788z" data-paper-data="{&quot;origPos&quot;:null,&quot;index&quot;:null,&quot;origRot&quot;:0}" fill="#ffffff" stroke="#627191" stroke-width="0.25" stroke-linecap="butt"/><path d="M321.83094,172.00799c-5.34781,-0.5288 -15.09554,2.02776 -15.00047,-5.05722c-0.18785,-6.86874 8.86564,-6.75588 15.96146,-6.93256c3.22577,-0.41625 6.86085,-0.78494 10.41954,-0.63142c8.03015,0.48991 11.58481,4.11676 11.42291,7.8383c-0.1932,4.44101 -6.20525,6.27216 -11.05039,6.39279c-4.84515,0.12063 -6.8914,-1.12917 -11.75305,-1.6099z" data-paper-data="{&quot;origPos&quot;:null,&quot;index&quot;:null,&quot;origRot&quot;:0}" fill="#627191" stroke="none" stroke-width="0" stroke-linecap="butt"/><path d="M331.14084,162.38668l-2.91955,8.48283l-1.92306,-8.80343l-3.01204,8.5954l-1.98131,-8.66229c0,0 0.83634,2.14376 0.69896,4.30877c-0.14176,2.234 -1.11833,4.20328 -1.11833,4.20328l3.14837,-8.45964l1.49408,8.61399l3.16701,-8.52329l2.19738,8.76691l2.70271,-8.36566c0,0 1.08417,2.32236 0.9647,4.12385c-0.11948,1.80149 -1.21776,4.17123 -1.21776,4.17123z" data-paper-data="{&quot;origPos&quot;:null,&quot;origRot&quot;:0}" fill="none" stroke="#ffffff" stroke-width="1" stroke-linecap="round"/><path d="M338.99481,166.51513c0.05783,-2.05157 0.27573,-5.25689 0.27573,-5.25689c0,0 4.8624,2.51217 4.86054,5.54426c-0.00252,4.1033 -5.15787,5.004 -5.15787,5.004c0,0 -0.03661,-3.22635 0.0216,-5.29137z" data-paper-data="{&quot;origPos&quot;:null,&quot;origRot&quot;:0}" fill="#ffffff" stroke="none" stroke-width="0" stroke-linecap="round"/></g><path d="M210.59034,131.56388c-1.25578,0.61908 -0.87441,-0.74955 -3.38391,-0.55361c-1.71924,0.13423 -3.747,-4.49579 -2.46259,-8.02219c1.9524,-5.09802 25.39819,-5.99948 18.87156,-0.28492c-10.63606,8.26162 -11.76927,8.24164 -13.02505,8.86072z" data-paper-data="{&quot;origPos&quot;:null,&quot;origRot&quot;:0,&quot;index&quot;:null}" fill="#f6dbc4" stroke="none" stroke-width="0" stroke-linecap="butt" stroke-linejoin="miter"/><g data-paper-data="{&quot;origPos&quot;:null,&quot;origRot&quot;:0,&quot;index&quot;:null}" stroke="none" stroke-linecap="butt" stroke-linejoin="miter"><path d="M219.84967,119.44034c6.51241,0.28172 12.73877,3.9501 11.64307,7.97379c-1.0957,4.02369 -4.09224,8.74834 -11.02908,6.50069c-7.26944,-2.3554 -12.38136,-5.24472 -14.00281,-10.25917c-0.998,-3.71142 6.87639,-4.49704 13.38882,-4.21531z" data-paper-data="{&quot;origPos&quot;:null,&quot;origRot&quot;:0,&quot;index&quot;:null}" fill="#f6dbc4" stroke-width="0"/><g data-paper-data="{&quot;origPos&quot;:null,&quot;origRot&quot;:0}" stroke-width="0.5"><path d="M229.2747,130.49958c-0.33294,-0.10162 -0.54887,-0.48577 -0.48232,-0.85807c0.06656,-0.37229 0.3904,-0.59174 0.72335,-0.49013c0.33295,0.10162 0.54886,0.48578 0.4823,0.85808c-0.06656,0.37229 -0.39039,0.59174 -0.72333,0.49011z" data-paper-data="{&quot;origPos&quot;:null}" fill="#d1b29b"/><path d="M209.17143,123.44359c0.06656,-0.3723 0.39039,-0.59173 0.72334,-0.49012c0.33295,0.10162 0.54886,0.48579 0.4823,0.85809c-0.06656,0.3723 -0.3904,0.59175 -0.72334,0.49012c-0.33293,-0.10163 -0.54886,-0.48579 -0.4823,-0.85809z" data-paper-data="{&quot;origPos&quot;:null}" fill="#d1b29b"/><path d="M213.97777,123.45924c0.05738,-0.32095 0.33658,-0.5101 0.62358,-0.42251c0.28702,0.08761 0.47316,0.41877 0.41577,0.73973c-0.05738,0.32097 -0.33657,0.51013 -0.62358,0.42253c-0.28702,-0.08759 -0.47317,-0.41878 -0.41579,-0.73972z" data-paper-data="{&quot;origPos&quot;:null}" fill="#d1b29b"/><path d="M211.36409,122.07731c-0.33294,-0.10161 -0.54887,-0.48579 -0.48232,-0.85808c0.06655,-0.37227 0.39042,-0.59173 0.72334,-0.49012c0.33295,0.10162 0.54886,0.48581 0.48231,0.85809c-0.06655,0.37227 -0.39042,0.59175 -0.72335,0.49012z" data-paper-data="{&quot;origPos&quot;:null}" fill="#d1b29b"/><path d="M222.63333,127.55575c0.03958,-0.22145 0.23223,-0.35196 0.43026,-0.29153c0.19803,0.06043 0.3265,0.28896 0.28691,0.51041c-0.03958,0.22145 -0.23225,0.35197 -0.43028,0.29152c-0.19803,-0.06044 -0.32647,-0.28897 -0.28689,-0.51042z" data-paper-data="{&quot;origPos&quot;:null}" fill="#d1b29b"/><path d="M219.18562,121.79114c0.0396,-0.22146 0.23223,-0.35198 0.43026,-0.29154c0.19803,0.06043 0.32649,0.28895 0.28691,0.51042c-0.03958,0.22146 -0.23224,0.35197 -0.43028,0.29153c-0.19804,-0.06042 -0.3265,-0.28896 -0.2869,-0.5104z" data-paper-data="{&quot;origPos&quot;:null}" fill="#d1b29b"/><path d="M219.73289,126.97867c0.03957,-0.22146 0.23224,-0.35197 0.43027,-0.29153c0.19802,0.06043 0.32648,0.28896 0.28689,0.51041c-0.03958,0.22145 -0.23224,0.35198 -0.43027,0.29155c-0.19803,-0.06042 -0.32649,-0.28897 -0.28689,-0.51041z" data-paper-data="{&quot;origPos&quot;:null}" fill="#d1b29b"/><path d="M218.34412,126.36133c-0.19802,-0.06043 -0.32648,-0.28897 -0.28689,-0.51042c0.03958,-0.22145 0.23225,-0.35197 0.43028,-0.29152c0.19803,0.06044 0.32648,0.28897 0.28689,0.51042c-0.03958,0.22145 -0.23224,0.35198 -0.43027,0.29154z" data-paper-data="{&quot;origPos&quot;:null}" fill="#d1b29b"/><path d="M215.95914,124.28607c0.03959,-0.22145 0.23224,-0.35196 0.43027,-0.29153c0.19802,0.06044 0.32648,0.28896 0.2869,0.51041c-0.0396,0.22146 -0.23225,0.35199 -0.43028,0.29155c-0.19802,-0.06044 -0.32646,-0.28896 -0.28688,-0.51043z" data-paper-data="{&quot;origPos&quot;:null}" fill="#d1b29b"/><path d="M212.05952,125.58664c-0.24696,-0.07536 -0.40713,-0.36035 -0.35776,-0.63651c0.04939,-0.27617 0.28961,-0.43893 0.53656,-0.36356c0.24696,0.07537 0.40715,0.36036 0.35777,0.63653c-0.04938,0.27618 -0.2896,0.43893 -0.53656,0.36355z" data-paper-data="{&quot;origPos&quot;:null}" fill="#bda18b"/><path d="M216.63954,126.67556c0.0746,-0.41733 0.43763,-0.66331 0.81083,-0.5494c0.37321,0.1139 0.61526,0.54453 0.54064,0.96185c-0.0746,0.41733 -0.43764,0.6633 -0.81083,0.5494c-0.3732,-0.11391 -0.61525,-0.54453 -0.54063,-0.96185z" data-paper-data="{&quot;origPos&quot;:null}" fill="#bda18b"/><path d="M225.17065,126.58529c-0.35594,-0.10863 -0.5868,-0.51937 -0.51564,-0.91739c0.07116,-0.39803 0.41739,-0.63262 0.77334,-0.52398c0.35594,0.10863 0.58681,0.51938 0.51565,0.9174c-0.07116,0.39804 -0.41739,0.63263 -0.77335,0.52398z" data-paper-data="{&quot;origPos&quot;:null}" fill="#bda18b"/><path d="M215.26045,125.84841c-0.03002,-0.17832 0.07147,-0.34059 0.22664,-0.36244c0.1552,-0.02184 0.30532,0.10501 0.33533,0.28334c0.03001,0.17833 -0.07147,0.3406 -0.22666,0.36244c-0.1552,0.02184 -0.30533,-0.10501 -0.33533,-0.28335z" data-paper-data="{&quot;origPos&quot;:null,&quot;origRot&quot;:0}" fill="#d1b29b"/><path d="M226.03899,124.36147c-0.03,-0.17834 0.07149,-0.3406 0.22667,-0.36245c0.15519,-0.02184 0.30531,0.10502 0.33532,0.28335c0.03,0.17833 -0.07148,0.34058 -0.22668,0.36243c-0.1552,0.02184 -0.30532,-0.10501 -0.33533,-0.28334z" data-paper-data="{&quot;origPos&quot;:null,&quot;origRot&quot;:0}" fill="#d1b29b"/><path d="M227.58229,126.26726c0.06197,-0.34662 0.36349,-0.55091 0.67346,-0.4563c0.30998,0.0946 0.51102,0.45229 0.44905,0.79891c-0.06198,0.34662 -0.36349,0.55092 -0.67346,0.45631c-0.30998,-0.0946 -0.51102,-0.45229 -0.44905,-0.79892z" data-paper-data="{&quot;origPos&quot;:null}" fill="#d1b29b"/><path d="M224.94092,122.77164c0.25832,0.07884 0.42585,0.37691 0.37421,0.66576c-0.05163,0.28886 -0.3029,0.45908 -0.56122,0.38026c-0.25831,-0.07884 -0.42585,-0.37689 -0.37421,-0.66575c0.05164,-0.28886 0.3029,-0.45909 0.56122,-0.38027z" data-paper-data="{&quot;origPos&quot;:null}" fill="#d1b29b"/><path d="M219.76777,125.17296c0.05283,-0.29546 0.30983,-0.4696 0.57403,-0.38896c0.26422,0.08065 0.43558,0.38552 0.38276,0.68096c-0.05282,0.29545 -0.30982,0.46957 -0.57403,0.38893c-0.26422,-0.08064 -0.43558,-0.38549 -0.38275,-0.68094z" data-paper-data="{&quot;origPos&quot;:null}" fill="#bda18b"/></g></g><path d="M266.92958,172.62558c-0.01434,0.00986 -0.01267,0.00858 0.00044,-0.00153c-0.00015,0.00051 -0.00029,0.00101 -0.00044,0.00153z" data-paper-data="{&quot;origPos&quot;:null,&quot;origRot&quot;:0,&quot;index&quot;:null}" fill="#9383d1" stroke="none" stroke-width="0.5" stroke-linecap="butt" stroke-linejoin="miter"/><g data-paper-data="{&quot;index&quot;:null,&quot;origPos&quot;:null}" stroke="none" stroke-width="0" stroke-linecap="butt" stroke-linejoin="miter"><path d="M269.08324,147.53812l45.04518,12.7969c0,0 10.64903,6.55619 1.94101,12.04813c-3.79595,0.50454 -23.34972,3.31261 -23.34972,3.31261l-11.85174,17.47213z" data-paper-data="{&quot;origPos&quot;:null}" fill="#5083ab"/><path d="M317.27654,159.99991c0,0 13.96255,6.34692 0.53119,12.62043c-1.02066,0.11893 -3.32066,0.40017 -6.32858,0.77168c5.94389,-4.80692 6.26091,-8.34661 0.19283,-14.44813z" data-paper-data="{&quot;origPos&quot;:null}" fill="#cddce7"/></g><path d="M326.08029,217.20022c5.09901,-0.50787 8.8732,-5.80154 10.55252,-3.65696c1.15688,1.47741 -6.33084,7.02581 -8.299,9.32557c-22.44353,4.49001 -22.06734,-2.43678 -17.02806,-6.65985c6.23665,-5.18919 5.7635,-2.77932 10.57994,-4.13482c3.59238,-1.01101 3.78605,-1.44382 4.83898,-0.17941c0.65693,0.95722 -2.39362,1.53463 -5.5702,4.35392z" data-paper-data="{&quot;origPos&quot;:null,&quot;origRot&quot;:0,&quot;index&quot;:null}" fill="#f6dbc4" stroke="none" stroke-width="0" stroke-linecap="butt" stroke-linejoin="miter"/><g data-paper-data="{&quot;index&quot;:null}" stroke="none" stroke-linecap="butt" stroke-linejoin="miter"><path d="M318.58576,220.59803c1.60391,3.32706 -14.43819,6.25847 -21.67485,7.51038c-7.23665,1.2519 -10.02758,1.10743 -13.20159,-4.67453c-3.97618,-7.24324 5.8578,-8.34377 13.82883,-7.80899c8.35322,0.56042 18.1259,-1.08749 21.04762,4.97314z" data-paper-data="{&quot;origPos&quot;:null,&quot;origRot&quot;:0,&quot;index&quot;:null}" fill="#f6dbc4" stroke-width="0"/><g data-paper-data="{&quot;origPos&quot;:null,&quot;origRot&quot;:0}" stroke-width="0.5"><path d="M301.96893,224.37891c0.39961,-0.05113 0.76063,0.20584 0.80641,0.57394c0.04578,0.3681 -0.24103,0.70795 -0.64061,0.75908c-0.39961,0.05113 -0.76063,-0.20584 -0.80641,-0.57394c-0.04578,-0.36811 0.24103,-0.70796 0.64061,-0.75908z" data-paper-data="{&quot;origPos&quot;:null}" fill="#d1b29b"/><path d="M297.36143,217.82334c0.34447,-0.04408 0.6557,0.17743 0.69518,0.49477c0.03946,0.31735 -0.20778,0.61032 -0.55226,0.65439c-0.34447,0.04408 -0.65571,-0.17743 -0.69519,-0.49477c-0.03946,-0.31734 0.20779,-0.61032 0.55226,-0.65439z" data-paper-data="{&quot;origPos&quot;:null}" fill="#d1b29b"/><path d="M295.36355,222.99053c0.39961,-0.05113 0.76064,0.20585 0.80642,0.57394c0.04578,0.3681 -0.24103,0.70795 -0.64061,0.75908c-0.39959,0.05113 -0.76064,-0.20584 -0.80642,-0.57393c-0.04578,-0.3681 0.24103,-0.70795 0.64062,-0.75908z" data-paper-data="{&quot;origPos&quot;:null}" fill="#d1b29b"/><path d="M309.06611,219.29517c-0.02724,-0.21896 0.14337,-0.42113 0.38105,-0.45153c0.23768,-0.0304 0.45246,0.12243 0.4797,0.34139c0.02724,0.21896 -0.1434,0.42111 -0.38108,0.45152c-0.23768,0.0304 -0.45244,-0.12243 -0.47968,-0.34139z" data-paper-data="{&quot;origPos&quot;:null}" fill="#d1b29b"/><path d="M300.3605,223.71304c-0.02724,-0.21896 0.14339,-0.42111 0.38106,-0.45153c0.23769,-0.0304 0.45246,0.12244 0.4797,0.3414c0.02725,0.21896 -0.14341,0.42111 -0.38107,0.45152c-0.23767,0.03042 -0.45244,-0.12244 -0.47967,-0.3414z" data-paper-data="{&quot;origPos&quot;:null}" fill="#d1b29b"/><path d="M300.26129,225.91248c0.23767,-0.03042 0.45245,0.12244 0.47969,0.3414c0.02724,0.21896 -0.14339,0.4211 -0.38107,0.45152c-0.23767,0.03042 -0.45244,-0.12242 -0.47968,-0.34138c-0.02724,-0.21896 0.14338,-0.42112 0.38106,-0.45153z" data-paper-data="{&quot;origPos&quot;:null}" fill="#d1b29b"/><path d="M303.92811,219.84332c0.23768,-0.0304 0.45247,0.12244 0.4797,0.3414c0.02725,0.21896 -0.1434,0.42111 -0.38107,0.45152c-0.23768,0.0304 -0.45244,-0.12244 -0.47968,-0.3414c-0.02724,-0.21896 0.14338,-0.42112 0.38105,-0.45153z" data-paper-data="{&quot;origPos&quot;:null}" fill="#d1b29b"/><path d="M301.32966,221.05638c0.23768,-0.0304 0.45246,0.12245 0.4797,0.34141c0.02724,0.21896 -0.14341,0.4211 -0.38108,0.45152c-0.23767,0.03042 -0.45243,-0.12242 -0.47966,-0.34138c-0.02724,-0.21896 0.14337,-0.42113 0.38105,-0.45154z" data-paper-data="{&quot;origPos&quot;:null}" fill="#d1b29b"/><path d="M298.22533,225.59175c-0.03396,-0.27305 0.17876,-0.52516 0.47518,-0.56308c0.29641,-0.03792 0.56422,0.15267 0.59819,0.42574c0.03397,0.27306 -0.17879,0.52516 -0.4752,0.56308c-0.2964,0.03793 -0.56421,-0.15267 -0.59818,-0.42573z" data-paper-data="{&quot;origPos&quot;:null}" fill="#bda18b"/><path d="M297.58267,221.82602c0.4479,-0.05732 0.85262,0.23072 0.90395,0.64335c0.05131,0.41261 -0.27019,0.79357 -0.71809,0.85089c-0.4479,0.05732 -0.85262,-0.23074 -0.90394,-0.64336c-0.05132,-0.41262 0.27018,-0.79356 0.71808,-0.85087z" data-paper-data="{&quot;origPos&quot;:null}" fill="#bda18b"/><path d="M306.23874,221.0608c0.42722,-0.05465 0.81324,0.22005 0.86217,0.6136c0.04896,0.39355 -0.25771,0.75688 -0.68491,0.81154c-0.42721,0.05466 -0.81322,-0.22005 -0.86215,-0.6136c-0.04895,-0.39355 0.25769,-0.75688 0.68489,-0.81154z" data-paper-data="{&quot;origPos&quot;:null}" fill="#bda18b"/><path d="M294.93195,225.61656c0.05072,-0.16763 0.23794,-0.26877 0.41819,-0.22592c0.18025,0.04286 0.28528,0.21348 0.23456,0.38112c-0.05072,0.16763 -0.23795,0.26877 -0.4182,0.22591c-0.18023,-0.04286 -0.28526,-0.21347 -0.23454,-0.3811z" data-paper-data="{&quot;origPos&quot;:null,&quot;origRot&quot;:0}" fill="#d1b29b"/><path d="M312.23084,222.12566c0.05072,-0.16763 0.23793,-0.26877 0.41818,-0.22591c0.18024,0.04286 0.28527,0.21346 0.23455,0.38109c-0.05072,0.16763 -0.23793,0.26877 -0.41818,0.22592c-0.18023,-0.04286 -0.28527,-0.21348 -0.23455,-0.38111z" data-paper-data="{&quot;origPos&quot;:null,&quot;origRot&quot;:0}" fill="#d1b29b"/><path d="M313.47217,223.61892c0.18025,0.04286 0.28527,0.21346 0.23455,0.3811c-0.05072,0.16763 -0.23794,0.26877 -0.41819,0.22592c-0.18023,-0.04285 -0.28527,-0.21347 -0.23455,-0.3811c0.05072,-0.16763 0.23794,-0.26877 0.41819,-0.22591z" data-paper-data="{&quot;origPos&quot;:null,&quot;origRot&quot;:0}" fill="#d1b29b"/><path d="M308.17897,224.14284c0.0507,-0.16762 0.23794,-0.26878 0.41819,-0.22592c0.18025,0.04286 0.28528,0.21347 0.23456,0.38111c-0.05072,0.16763 -0.23795,0.26877 -0.4182,0.22591c-0.18024,-0.04287 -0.28527,-0.21347 -0.23455,-0.3811z" data-paper-data="{&quot;origPos&quot;:null,&quot;origRot&quot;:0}" fill="#d1b29b"/><path d="M314.76271,221.23224c-0.04262,-0.34272 0.22442,-0.65914 0.59645,-0.70674c0.37205,-0.0476 0.70817,0.19162 0.7508,0.53435c0.04262,0.34272 -0.22441,0.65914 -0.59645,0.70674c-0.37205,0.0476 -0.70817,-0.19161 -0.7508,-0.53434z" data-paper-data="{&quot;origPos&quot;:null}" fill="#d1b29b"/><path d="M296.90968,224.71974c-0.03633,-0.29213 0.19128,-0.5618 0.50839,-0.60238c0.3171,-0.04058 0.60363,0.16333 0.63996,0.45546c0.03633,0.29213 -0.19129,0.56182 -0.5084,0.60241c-0.3171,0.04058 -0.60362,-0.16334 -0.63996,-0.45546z" data-paper-data="{&quot;origPos&quot;:null}" fill="#bda18b"/></g></g><g data-paper-data="{&quot;index&quot;:null}" stroke="none" stroke-linecap="butt" stroke-linejoin="miter"><path d="M267.4105,176.58403c-0.01434,0.00986 -0.01267,0.00858 0.00044,-0.00153c-0.00015,0.00051 -0.00029,0.00101 -0.00044,0.00153z" data-paper-data="{&quot;origPos&quot;:null,&quot;origRot&quot;:0,&quot;index&quot;:null}" fill="#9383d1" stroke-width="0.5"/><path d="M248.06613,128.1524c9.22185,5.3047 10.32837,9.31367 17.18698,17.74216c24.21823,5.8077 33.75045,43.31918 24.08307,64.36397c-2.29014,5.35591 -13.10386,1.66964 -21.57446,3.54858c10.97222,-2.99892 24.36696,-14.01685 26.22497,10.28098c0.10525,5.96738 -2.2998,12.04026 -9.07103,12.3315c-5.77441,0.24837 -2.19062,-5.47783 -27.64065,-3.70641c-10.77257,0.10464 -28.87254,1.77562 -43.0801,-48.58609c-4.59243,-17.85431 3.6066,-48.05366 3.6066,-48.05366c0,0 -3.92713,-1.77907 -3.78274,-4.94634c-0.68025,-10.5143 18.61854,-17.42547 21.86714,-7.76467c0,0 2.95837,-0.51472 12.18022,4.78998z" data-paper-data="{&quot;origPos&quot;:null,&quot;index&quot;:null,&quot;origRot&quot;:0}" fill="#a69bd1" stroke-width="NaN"/><g data-paper-data="{&quot;origPos&quot;:null,&quot;origRot&quot;:0,&quot;index&quot;:null}" fill="#9383d1" stroke-width="0.5"><path d="M273.44032,186.47046c-0.28186,0 -0.51036,-0.64105 -0.51036,-1.43182c0,-0.79077 0.2285,-1.43182 0.51036,-1.43182c0.28186,0 0.51036,0.64105 0.51036,1.43182c0,0.79077 -0.2285,1.43182 -0.51036,1.43182z" data-paper-data="{&quot;origPos&quot;:null}"/><path d="M273.77204,185.73827c-1.87906,0.74738 -5.23732,1.67653 -7.19191,1.8089c0,0 -0.82403,0.18799 -0.84351,-0.96729c-0.01948,-1.15528 0.91339,-1.21846 0.91339,-1.21846c2.65411,-0.17975 5.93826,-0.77803 6.79523,-0.85386c0.28566,-0.02528 0.44634,-0.03734 0.7321,-0.05248c1.12109,-0.05939 0.7963,0.80526 -0.4053,1.28319z" data-paper-data="{&quot;origPos&quot;:null,&quot;origRot&quot;:0}"/></g><g data-paper-data="{&quot;origPos&quot;:null,&quot;origRot&quot;:0,&quot;index&quot;:null}" fill="#9383d1" stroke-width="0.5"><path d="M273.75795,178.28106c-0.26563,0 -0.48097,-0.57999 -0.48097,-1.29545c0,-0.71546 0.21534,-1.29545 0.48097,-1.29545c0.26563,0 0.48097,0.57999 0.48097,1.29545c0,0.71546 -0.21534,1.29545 -0.48097,1.29545z" data-paper-data="{&quot;origPos&quot;:null}"/><path d="M274.11913,177.75981c-2.02125,-0.11226 -5.32874,-0.29596 -7.34998,-0.40822c0,0 -0.96468,-0.05358 -0.94696,-1.25144c0.01772,-1.19786 0.97633,-0.73358 0.97633,-0.73358c2.43816,0.13542 4.77156,0.37172 7.23163,0.94969c1.2752,0.29959 2.11022,1.55581 0.08898,1.44355z" data-paper-data="{&quot;origPos&quot;:null,&quot;origRot&quot;:0}"/></g><path d="M267.81066,146.99767c0,0 14.44601,3.70181 21.5335,23.84566c7.13627,20.28251 1.28204,34.97889 1.28204,34.97889l-7.73889,-8.20655c0,0 -0.8776,-12.72419 -3.89537,-20.25429c-2.88431,-7.19707 -10.02882,-17.0026 -10.02882,-17.0026z" data-paper-data="{&quot;origPos&quot;:null,&quot;origRot&quot;:0,&quot;index&quot;:null}" fill="#9383d1" stroke-width="0"/></g><g stroke="none" stroke-linejoin="miter"><path d="M242.08102,221.71749c-36.2493,-1.39616 -55.2917,-32.80669 -45.24064,-47.61421c-6.75281,-16.74192 25.12325,-33.60744 47.90129,-33.53371c21.27592,0.06887 20.36826,6.73355 32.41559,12.86841c4.15112,2.80515 6.49159,-1.90528 8.74046,9.92729c-1.20275,-1.8812 -3.86031,-2.15058 -3.86031,-2.15058c0,0 5.90721,6.64342 5.12128,11.09383c-3.80092,-12.81181 -41.48369,-20.65537 -41.55743,10.72121c-0.05833,24.82436 39.20064,19.04499 40.06192,3.89418c0.49383,2.18317 -2.73091,8.50093 -2.73091,8.50093c0,0 2.21103,-2.46215 3.28081,-4.65553c-0.38963,5.14267 -5.35825,9.90612 -5.35825,9.90612c0,0 3.84193,-2.42641 5.47168,-5.62175c-1.21463,9.35961 -5.27908,13.9211 -14.27035,16.79074c-7.29134,2.32709 -9.23065,10.67207 -29.97515,9.87307z" data-paper-data="{&quot;origPos&quot;:null}" fill="#ab7b70" stroke-width="0" stroke-linecap="butt"/><path d="M277.63772,199.52732c-4.61809,6.16656 -11.8619,6.74145 -19.27128,8.28178c-5.91594,3.11496 -12.95878,7.79735 -15.34637,5.83117c-2.59073,-2.13346 8.38223,-5.69909 -1.09935,-3.4086c-9.48158,2.29049 -42.88986,6.74284 -42.6692,-29.81948c0.70725,-37.31221 32.86712,-33.01257 40.12367,-30.89204c16.09818,3.35733 3.20838,1.63437 6.3106,-2.7093c2.64275,-0.98577 8.73833,2.27915 13.4864,6.49728c6.36839,1.04597 14.60216,3.38768 18.54707,8.64487c4.14738,5.52702 2.14313,11.59055 3.80471,13.37103c1.78563,1.91341 3.19835,2.88823 3.08277,4.39454c-0.10649,1.7405 -1.91985,3.33904 -2.85082,4.11174c-0.93098,0.77269 0.11376,10.04605 -4.1182,15.69701z" data-paper-data="{&quot;origPos&quot;:null}" fill="#f6dbc4" stroke-width="0" stroke-linecap="butt"/><g data-paper-data="{&quot;origPos&quot;:null}" stroke-width="0.5" stroke-linecap="butt"><path d="M277.65702,171.15172c-0.36401,0 -0.65909,-0.32489 -0.65909,-0.72567c0,-0.40078 0.29508,-0.72566 0.65909,-0.72566c0.36401,0 0.65909,0.32488 0.65909,0.72566c0,0.40078 -0.29508,0.72567 -0.65909,0.72567z" data-paper-data="{&quot;origPos&quot;:null}" fill="#d1b29b"/><path d="M276.79715,166.59363c-0.30334,0 -0.54924,-0.27074 -0.54924,-0.60473c0,-0.33398 0.2459,-0.60471 0.54924,-0.60471c0.30334,0 0.54924,0.27073 0.54924,0.60471c0,0.33398 -0.2459,0.60473 -0.54924,0.60473z" data-paper-data="{&quot;origPos&quot;:null}" fill="#d1b29b"/><path d="M276.31613,196.76704c-0.31381,0 -0.56818,-0.28008 -0.56818,-0.62557c0,-0.3455 0.25437,-0.62557 0.56818,-0.62557c0.31381,0 0.56818,0.28008 0.56818,0.62557c0,0.3455 -0.25438,0.62557 -0.56818,0.62557z" data-paper-data="{&quot;origPos&quot;:null}" fill="#d1b29b"/><path d="M274.94865,200.7582c-0.364,0 -0.65909,-0.32489 -0.65909,-0.72566c0,-0.40078 0.29509,-0.72567 0.65909,-0.72567c0.364,0 0.65909,0.32489 0.65909,0.72567c0,0.40078 -0.29509,0.72566 -0.65909,0.72566z" data-paper-data="{&quot;origPos&quot;:null}" fill="#d1b29b"/><path d="M277.6649,186.05091c-0.21652,0 -0.39204,-0.19326 -0.39204,-0.43164c0,-0.23838 0.17552,-0.43166 0.39204,-0.43166c0.21652,0 0.39205,0.19327 0.39205,0.43166c0,0.23838 -0.17553,0.43164 -0.39205,0.43164z" data-paper-data="{&quot;origPos&quot;:null}" fill="#d1b29b"/><path d="M277.95054,189.47948c-0.21652,0 -0.39204,-0.19326 -0.39204,-0.43164c0,-0.23838 0.17552,-0.43165 0.39204,-0.43165c0.21652,0 0.39205,0.19327 0.39205,0.43165c0,0.23838 -0.17553,0.43164 -0.39205,0.43164z" data-paper-data="{&quot;origPos&quot;:null}" fill="#d1b29b"/><path d="M277.21245,191.62234c-0.21652,0 -0.39204,-0.19326 -0.39204,-0.43164c0,-0.23838 0.17552,-0.43166 0.39204,-0.43166c0.21652,0 0.39205,0.19327 0.39205,0.43166c0,0.23838 -0.17553,0.43164 -0.39205,0.43164z" data-paper-data="{&quot;origPos&quot;:null}" fill="#d1b29b"/><path d="M276.522,194.33662c-0.21652,0 -0.39204,-0.19326 -0.39204,-0.43164c0,-0.23838 0.17552,-0.43166 0.39204,-0.43166c0.21652,0 0.39205,0.19327 0.39205,0.43166c0,0.23838 -0.17553,0.43164 -0.39205,0.43164z" data-paper-data="{&quot;origPos&quot;:null}" fill="#d1b29b"/><path d="M273.69489,176.24683c-0.3389,0 -0.61363,-0.30248 -0.61363,-0.67561c0,-0.37313 0.27473,-0.67562 0.61363,-0.67562c0.3389,0 0.61364,0.30249 0.61364,0.67562c0,0.37313 -0.27474,0.67561 -0.61364,0.67561z" data-paper-data="{&quot;origPos&quot;:null}" fill="#d1b29b"/><path d="M278.21155,193.23898c-0.40803,0 -0.7388,-0.36418 -0.7388,-0.81341c0,-0.44924 0.33077,-0.81342 0.7388,-0.81342c0.40803,0 0.73879,0.36419 0.73879,0.81342c0,0.44924 -0.33076,0.81341 -0.73879,0.81341z" data-paper-data="{&quot;origPos&quot;:null}" fill="#bda18b"/><path d="M277.42188,168.30829c-0.19674,0 -0.35623,-0.17559 -0.35623,-0.39221c0,-0.21662 0.15949,-0.39222 0.35623,-0.39222c0.19674,0 0.35623,0.1756 0.35623,0.39222c0,0.21662 -0.15949,0.39221 -0.35623,0.39221z" data-paper-data="{&quot;origPos&quot;:null}" fill="#bda18b"/><path d="M277.65997,165.16544c-0.19674,0 -0.35623,-0.17559 -0.35623,-0.39221c0,-0.21662 0.15949,-0.39222 0.35623,-0.39222c0.19674,0 0.35623,0.1756 0.35623,0.39222c0,0.21662 -0.15949,0.39221 -0.35623,0.39221z" data-paper-data="{&quot;origPos&quot;:null}" fill="#bda18b"/><path d="M278.06478,166.73687c-0.19674,0 -0.35623,-0.1756 -0.35623,-0.39222c0,-0.21662 0.15949,-0.39222 0.35623,-0.39222c0.19674,0 0.35623,0.1756 0.35623,0.39222c0,0.21662 -0.15949,0.39222 -0.35623,0.39222z" data-paper-data="{&quot;origPos&quot;:null}" fill="#bda18b"/><path d="M275.34254,184.1285c-0.38917,0 -0.70464,-0.34735 -0.70464,-0.77582c0,-0.42847 0.31547,-0.77583 0.70464,-0.77583c0.38917,0 0.70465,0.34735 0.70465,0.77583c0,0.42847 -0.31548,0.77582 -0.70465,0.77582z" data-paper-data="{&quot;origPos&quot;:null}" fill="#bda18b"/><path d="M274.55458,161.74328c-0.38293,0 -0.69334,-0.34177 -0.69334,-0.76337c0,-0.4216 0.31042,-0.76337 0.69334,-0.76337c0.38293,0 0.69333,0.34177 0.69333,0.76337c0,0.4216 -0.31041,0.76337 -0.69333,0.76337z" data-paper-data="{&quot;origPos&quot;:null}" fill="#bda18b"/><path d="M269.94113,182.4539c-0.31381,0 -0.56818,-0.28007 -0.56818,-0.62557c0,-0.3455 0.25438,-0.62557 0.56818,-0.62557c0.31381,0 0.56818,0.28008 0.56818,0.62557c0,0.3455 -0.25438,0.62557 -0.56818,0.62557z" data-paper-data="{&quot;origPos&quot;:null}" fill="#d1b29b"/><path d="M271.31111,179.10106c-0.15685,0.07065 -0.33601,-0.01208 -0.40017,-0.18476c-0.06417,-0.17269 0.01096,-0.36995 0.16781,-0.4406c0.15685,-0.07065 0.33601,0.01208 0.40018,0.18477c0.06417,0.17269 -0.01097,0.36995 -0.16782,0.44059z" data-paper-data="{&quot;origPos&quot;:null,&quot;origRot&quot;:0}" fill="#d1b29b"/><path d="M271.31111,175.10106c-0.15685,0.07065 -0.33601,-0.01208 -0.40017,-0.18476c-0.06417,-0.17269 0.01096,-0.36995 0.16781,-0.4406c0.15685,-0.07065 0.33601,0.01208 0.40018,0.18477c0.06417,0.17269 -0.01097,0.36995 -0.16782,0.44059z" data-paper-data="{&quot;origPos&quot;:null,&quot;origRot&quot;:0}" fill="#d1b29b"/><path d="M276.16821,177.67249c-0.15685,0.07065 -0.33601,-0.01208 -0.40017,-0.18476c-0.06417,-0.17269 0.01096,-0.36995 0.16781,-0.4406c0.15685,-0.07065 0.33601,0.01208 0.40018,0.18477c0.06417,0.17269 -0.01097,0.36994 -0.16782,0.44059z" data-paper-data="{&quot;origPos&quot;:null,&quot;origRot&quot;:0}" fill="#d1b29b"/><path d="M276.59677,168.52963c-0.15685,0.07065 -0.336,-0.01208 -0.40017,-0.18476c-0.06417,-0.17269 0.01096,-0.36995 0.16781,-0.4406c0.15685,-0.07065 0.33601,0.01208 0.40017,0.18477c0.06417,0.17269 -0.01097,0.36995 -0.16781,0.44059z" data-paper-data="{&quot;origPos&quot;:null,&quot;origRot&quot;:0}" fill="#bda18b"/><path d="M278.16821,194.81534c-0.15685,0.07065 -0.33601,-0.01208 -0.40017,-0.18476c-0.06417,-0.17269 0.01096,-0.36995 0.16781,-0.4406c0.15685,-0.07065 0.33601,0.01208 0.40018,0.18477c0.06417,0.17269 -0.01097,0.36994 -0.16782,0.44059z" data-paper-data="{&quot;origPos&quot;:null,&quot;origRot&quot;:0}" fill="#d1b29b"/><path d="M271.73967,181.38677c-0.15685,0.07065 -0.33601,-0.01208 -0.40017,-0.18476c-0.06417,-0.17269 0.01096,-0.36995 0.16781,-0.4406c0.15685,-0.07065 0.33601,0.01208 0.40017,0.18477c0.06417,0.17269 -0.01097,0.36995 -0.16781,0.44059z" data-paper-data="{&quot;origPos&quot;:null,&quot;origRot&quot;:0}" fill="#d1b29b"/><path d="M273.73967,182.81534c-0.15685,0.07065 -0.33601,-0.01208 -0.40017,-0.18476c-0.06417,-0.17269 0.01096,-0.36995 0.16781,-0.4406c0.15685,-0.07065 0.33601,0.01208 0.40017,0.18477c0.06417,0.17269 -0.01097,0.36994 -0.16781,0.44059z" data-paper-data="{&quot;origPos&quot;:null,&quot;origRot&quot;:0}" fill="#d1b29b"/><path d="M272.73967,182.67249c-0.15685,0.07065 -0.33601,-0.01208 -0.40017,-0.18476c-0.06417,-0.17269 0.01096,-0.36995 0.16781,-0.4406c0.15685,-0.07065 0.33601,0.01208 0.40017,0.18477c0.06417,0.17269 -0.01097,0.36994 -0.16781,0.44059z" data-paper-data="{&quot;origPos&quot;:null,&quot;origRot&quot;:0}" fill="#d1b29b"/><path d="M276.16821,163.81534c-0.15685,0.07065 -0.33601,-0.01207 -0.40017,-0.18476c-0.06417,-0.17269 0.01096,-0.36995 0.16781,-0.4406c0.15685,-0.07065 0.33601,0.01208 0.40018,0.18477c0.06417,0.17269 -0.01097,0.36994 -0.16782,0.44059z" data-paper-data="{&quot;origPos&quot;:null,&quot;origRot&quot;:0}" fill="#d1b29b"/><path d="M278.59677,190.9582c-0.15685,0.07065 -0.336,-0.01208 -0.40017,-0.18476c-0.06417,-0.17269 0.01096,-0.36995 0.16781,-0.4406c0.15685,-0.07065 0.33601,0.01208 0.40017,0.18477c0.06417,0.17269 -0.01097,0.36995 -0.16781,0.44059z" data-paper-data="{&quot;origPos&quot;:null,&quot;origRot&quot;:0}" fill="#d1b29b"/><path d="M275.06989,180.66476c-0.33891,0 -0.61363,-0.30248 -0.61363,-0.67562c0,-0.37314 0.27473,-0.67562 0.61363,-0.67562c0.33891,0 0.61364,0.30248 0.61364,0.67562c0,0.37314 -0.27473,0.67562 -0.61364,0.67562z" data-paper-data="{&quot;origPos&quot;:null}" fill="#d1b29b"/><path d="M273.08772,184.95619c-0.28242,0 -0.51136,-0.25206 -0.51136,-0.56301c0,-0.31095 0.22895,-0.56302 0.51136,-0.56302c0.28242,0 0.51136,0.25207 0.51136,0.56302c0,0.31095 -0.22894,0.56301 -0.51136,0.56301z" data-paper-data="{&quot;origPos&quot;:null}" fill="#d1b29b"/><path d="M272.74037,178.94154c-0.30334,0 -0.54924,-0.27073 -0.54924,-0.60471c0,-0.33399 0.2459,-0.60471 0.54924,-0.60471c0.30334,0 0.54924,0.27073 0.54924,0.60471c0,0.33399 -0.2459,0.60471 -0.54924,0.60471z" data-paper-data="{&quot;origPos&quot;:null}" fill="#d1b29b"/><path d="M272.94471,180.82787c-0.35157,0 -0.63658,-0.31378 -0.63658,-0.70087c0,-0.38709 0.285,-0.70087 0.63658,-0.70087c0.35157,0 0.63656,0.31378 0.63656,0.70087c0,0.38709 -0.28499,0.70087 -0.63656,0.70087z" data-paper-data="{&quot;origPos&quot;:null}" fill="#bda18b"/><path d="M276.26653,189.80816c-0.28887,0 -0.52304,-0.25782 -0.52304,-0.57587c0,-0.31805 0.23417,-0.57588 0.52304,-0.57588c0.28887,0 0.52303,0.25783 0.52303,0.57588c0,0.31805 -0.23416,0.57587 -0.52303,0.57587z" data-paper-data="{&quot;origPos&quot;:null}" fill="#bda18b"/></g><path d="M233.81968,178.1104c9.1185,2.45239 29.26194,0.42141 33.82035,-7.44912c1.06787,8.90349 0.82355,16.07913 -0.20816,20.55922c-5.22311,8.71883 -23.08438,7.81285 -23.08438,7.81285c0,0 16.79516,1.95192 21.72522,-2.41321c-1.76908,6.27507 -6.6687,18.7556 -16.82502,20.18069c-39.7593,2.02195 -57.45837,-16.80669 -51.90731,-40.19754c-1.16948,-27.24192 27.54023,-33.98783 51.56796,-31.20037c7.39611,0.85802 12.84439,0.03711 14.91678,7.1886c2.15637,12.90331 -25.00645,19.09921 -25.00645,19.09921c0,0 11.63224,-1.53878 19.22014,-4.77266c4.38541,-1.86901 7.56789,-4.69722 7.44251,-9.46264c0.89483,4.21446 2.59683,7.28591 1.08838,11.32162c-3.74877,10.02944 -32.75002,9.33335 -32.75002,9.33335z" data-paper-data="{&quot;origPos&quot;:null}" fill="#ab7b70" stroke-width="0" stroke-linecap="butt"/><g data-paper-data="{&quot;origPos&quot;:null}" fill="#ab7b70"><g data-paper-data="{&quot;origPos&quot;:null}"><path d="M274.50421,168.40695c0.09821,4.29964 -2.56078,4.84516 -2.56078,4.84516c0,0 -0.05583,-1.61808 -0.14652,-4.77188c-0.3203,-3.69461 -3.93125,-7.17294 -3.93125,-7.17294c0,0 6.54034,2.80002 6.63855,7.09966z" data-paper-data="{&quot;origPos&quot;:null,&quot;index&quot;:null}" stroke-width="0" stroke-linecap="round"/><path d="M271.313,174.22107c0,0 -3.46007,0.13681 -4.29726,-2.00563c-0.43458,-5.03743 -0.68108,-6.46754 -1.93252,-10.82948c-0.47431,-1.65323 -1.09134,-4.22364 -1.09134,-4.22364c0,0 2.90083,2.22361 3.61457,4.42404c0.84939,2.61864 2.14074,8.67424 2.14074,8.67424z" data-paper-data="{&quot;origPos&quot;:null,&quot;index&quot;:null}" stroke-width="0.5" stroke-linecap="butt"/></g><g data-paper-data="{&quot;origPos&quot;:null}"><path d="M268.11566,199.5813c0,0 3.61095,-3.47833 3.93125,-7.17294c0.09069,-3.1538 0.14652,-4.77188 0.14652,-4.77188c0,0 2.65899,0.54552 2.56078,4.84516c-0.09821,4.29964 -6.63855,7.09966 -6.63855,7.09966z" data-paper-data="{&quot;origPos&quot;:null}" stroke-width="0" stroke-linecap="round"/><path d="M263.9919,203.47626c0,0 0.45036,-2.57041 0.92467,-4.22364c1.25144,-4.36193 1.66462,-5.79204 2.0992,-10.82948c0.83719,-2.14244 4.29726,-2.00563 4.29726,-2.00563l-1.56582,3.96046c0,0 -1.29135,6.0556 -2.14074,8.67424c-0.84939,2.61864 -3.61457,4.42405 -3.61457,4.42405z" data-paper-data="{&quot;origPos&quot;:null,&quot;index&quot;:null}" stroke-width="0.5" stroke-linecap="butt"/></g></g></g><path d="M247.24769,223.46749c-31.27155,-0.67049 -57.28196,-21.80628 -56.99064,-43.78087c0.36113,-30.39919 36.12325,-40.52411 58.90129,-40.45038c3.19954,0.01036 4.63854,1.84573 4.63854,1.84573c0,0 -13.31999,12.03775 -13.36228,38.28108c-0.53251,22.33539 13.3604,41.72361 13.3604,41.72361c0,0 -0.04868,2.52014 -6.54731,2.38081z" data-paper-data="{&quot;origPos&quot;:null}" fill="#a69bd1" stroke="none" stroke-width="0" stroke-linecap="butt" stroke-linejoin="miter"/><g fill="#9383d1" stroke="none" stroke-width="0" stroke-linecap="butt" stroke-linejoin="miter"><path d="M237.8811,165.89443c0,0 -3.16772,-17.48947 -1.5749,-23.85691c0.96433,-3.85496 10.59475,1.08441 10.59475,1.08441c0,0 -4.25587,4.27195 -6.02901,9.12964c-2.24415,6.14805 -2.99085,13.64286 -2.99085,13.64286z" data-paper-data="{&quot;origPos&quot;:null,&quot;origRot&quot;:0,&quot;index&quot;:null}"/><path d="M236.16301,216.11723c-1.59281,-6.36743 1.5749,-23.85691 1.5749,-23.85691c0,0 0.78463,7.52192 3.07873,13.58303c1.48681,3.9282 5.94113,9.18947 5.94113,9.18947c0,0 -9.63042,4.93937 -10.59475,1.08441z" data-paper-data="{&quot;origPos&quot;:null,&quot;index&quot;:null,&quot;origRot&quot;:0}"/></g></g></g></svg>