<svg xmlns="http://www.w3.org/2000/svg" xmlns:xlink="http://www.w3.org/1999/xlink" version="1.1" width="247.8459930419922" height="135.15171813964844" viewBox="0.1510000228881836 -0.5157156586647034 247.8459930419922 135.15171813964844">
  <!-- Exported by Scratch - http://scratch.mit.edu/ -->
  <g id="ID0.4412280395627022">
    <g id="Page-1">
      <g id="Grasshopper-6Grasshopper-6">
        <path id="Path" fill="#174832" stroke="none" stroke-width="1" d="M 166.687 78.292 L 148.149 81.304 L 70.591 39.095 C 58.767 32.621 50.05 21.629 46.543 8.58 L 46.092 7.175 C 45.791 6.071 46.442 4.917 47.545 4.615 C 47.745 4.565 47.945 4.515 48.146 4.565 L 71.543 5.218 L 175.605 61.831 L 166.687 78.292 Z "/>
        <g id="Group">
          <path id="Path" fill="none" stroke="#151B22" stroke-width="0.5" d="M 165.134 56.042 L 150.404 82.441 "/>
          <path id="Path" fill="none" stroke="#151B22" stroke-width="0.5" d="M 154.663 50.32 L 139.933 76.77 "/>
          <path id="Path" fill="none" stroke="#151B22" stroke-width="0.5" d="M 144.241 44.649 L 129.512 71.048 "/>
          <path id="Path" fill="none" stroke="#151B22" stroke-width="0.5" d="M 133.77 38.978 L 119.04 65.377 "/>
          <path id="Path" fill="none" stroke="#151B22" stroke-width="0.5" d="M 123.299 33.306 L 108.569 59.706 "/>
          <path id="Path" fill="none" stroke="#151B22" stroke-width="0.5" d="M 112.878 27.585 L 98.148 54.034 "/>
          <path id="Path" fill="none" stroke="#151B22" stroke-width="0.5" d="M 102.406 21.914 L 87.676 48.313 "/>
          <path id="Path" fill="none" stroke="#151B22" stroke-width="0.5" d="M 91.985 16.242 L 77.255 42.642 "/>
          <path id="Path" fill="none" stroke="#151B22" stroke-width="0.5" d="M 81.514 10.521 L 66.784 36.97 "/>
          <path id="Path" fill="none" stroke="#151B22" stroke-width="0.5" d="M 70.642 5.703 L 57.615 28.99 "/>
          <path id="Path" fill="none" stroke="#151B22" stroke-width="0.5" stroke-linecap="round" d="M 56.964 5.05 L 50.401 18.099 "/>
        </g>
        <g id="Group">
          <path id="Path" fill="#00B694" stroke="none" stroke-width="1" d="M 164.714 55.306 L 65.211 1.203 C 61.504 -0.805 57.947 4.114 61.053 6.974 L 95.974 39.898 C 108.499 51.692 124.482 59.221 141.567 61.278 L 163.511 63.938 L 164.714 55.306 Z "/>
          <g id="Path">
            <path id="ID0.5667681498453021" fill="none" stroke="#1B7E64" stroke-width="0.5" stroke-linecap="round" d="M 164.212 58.713 L 60.551 2.301 "/>
            <path id="ID0.18504757527261972" fill="none" stroke="#1B7E64" stroke-width="0.5" d="M 155.795 62.678 L 71.473 16.806 "/>
            <path id="ID0.894962977617979" fill="none" stroke="#1B7E64" stroke-width="0.5" stroke-linecap="round" d="M 134.702 59.767 L 93.418 37.283 "/>
          </g>
        </g>
        <g id="Group">
          <path id="Path" fill="none" stroke="#151B22" stroke-width="1" stroke-linecap="round" d="M 241.036 50.7 L 198.549 75.945 L 246.747 71.177 "/>
          <path id="Path" fill="#00C0A5" stroke="none" stroke-width="1" d="M 190.433 62.796 L 197.146 66.459 C 200.754 68.417 202.056 72.934 200.102 76.497 C 199.451 77.652 198.549 78.605 197.397 79.308 L 180.913 89.245 C 178.959 90.45 176.404 89.797 175.202 87.84 C 174.45 86.585 174.4 84.979 175.102 83.724 L 185.673 64.251 C 186.625 62.495 188.729 61.892 190.433 62.796 C 190.433 62.796 190.433 62.796 190.433 62.796 Z "/>
          <path id="Path" fill="none" stroke="#174832" stroke-width="0.5" stroke-linecap="round" d="M 176.583 88.643 L 191.034 75.092 "/>
          <path id="Oval" fill="#ECF135" stroke="#979797" stroke-width="0.5" stroke-linecap="round" d="M 192.888 67.463 C 194.394 67.463 195.76 68.076 196.748 69.067 C 197.737 70.057 198.349 71.424 198.349 72.934 C 198.349 74.443 197.737 75.811 196.748 76.801 C 195.76 77.791 194.394 78.404 192.888 78.404 C 191.381 78.404 190.016 77.791 189.027 76.801 C 188.039 75.811 187.427 74.443 187.427 72.934 C 187.427 71.424 188.039 70.057 189.027 69.067 C 190.016 68.076 191.381 67.463 192.888 67.463 Z "/>
          <path id="Oval" fill="#151B22" stroke="none" stroke-width="1" d="M 192.888 69.571 C 193.814 69.571 194.653 69.948 195.261 70.557 C 195.868 71.165 196.245 72.006 196.245 72.934 C 196.245 73.861 195.868 74.702 195.261 75.311 C 194.653 75.92 193.814 76.296 192.888 76.296 C 191.962 76.296 191.122 75.92 190.515 75.311 C 189.907 74.702 189.531 73.861 189.531 72.934 C 189.531 72.006 189.907 71.165 190.515 70.557 C 191.122 69.948 191.962 69.571 192.888 69.571 Z "/>
        </g>
        <g id="Group">
          <path id="Path" fill="none" stroke="#151B22" stroke-width="1.5" stroke-linecap="round" d="M 1.401 104.78 L 17.784 104.78 L 32.965 18.204 "/>
          <path id="Path" fill="#ECF135" stroke="none" stroke-width="1" d="M 106.214 44.302 L 32.915 17.301 C 31.763 16.799 30.46 17.351 29.959 18.505 C 29.708 19.158 29.708 19.861 30.059 20.463 C 30.31 20.864 30.66 21.216 31.061 21.416 L 100.202 58.907 C 104.059 61.015 108.869 59.61 110.974 55.796 C 113.078 51.981 111.675 47.113 107.867 45.005 C 107.366 44.654 106.815 44.453 106.214 44.302 Z "/>
        </g>
        <g id="Group">
          <path id="Path" fill="none" stroke="#151B22" stroke-width="1.5" stroke-linecap="round" d="M 85.051 109.35 L 101.785 109.35 L 107.747 59.061 "/>
          <path id="Oval" fill="#151B22" stroke="none" stroke-width="1" d="M 108.498 56.25 C 109.12 56.25 109.684 56.503 110.092 56.912 C 110.5 57.321 110.753 57.886 110.753 58.509 C 110.753 59.132 110.5 59.696 110.092 60.105 C 109.684 60.514 109.12 60.767 108.498 60.767 C 107.876 60.767 107.313 60.514 106.905 60.105 C 106.497 59.696 106.244 59.132 106.244 58.509 C 106.244 57.886 106.497 57.321 106.905 56.912 C 107.313 56.503 107.876 56.25 108.498 56.25 Z "/>
          <path id="Oval" fill="#151B22" stroke="none" stroke-width="1" d="M 147.578 74.669 C 148.96 74.669 150.213 75.232 151.12 76.14 C 152.027 77.049 152.588 78.304 152.588 79.688 C 152.588 81.073 152.027 82.328 151.12 83.236 C 150.213 84.145 148.96 84.707 147.578 84.707 C 146.196 84.707 144.943 84.145 144.036 83.236 C 143.129 82.328 142.568 81.073 142.568 79.688 C 142.568 78.304 143.129 77.049 144.036 76.14 C 144.943 75.232 146.196 74.669 147.578 74.669 Z "/>
          <path id="Path" fill="none" stroke="#151B22" stroke-width="2.5" d="M 148.079 80.19 L 107.897 58.107 "/>
        </g>
        <g id="Group">
          <path id="Path" fill="#54923A" stroke="none" stroke-width="1" d="M 158.903 49.802 L 185.658 64.357 L 171.429 90.606 C 170.226 92.864 167.421 93.718 165.166 92.463 C 163.863 91.76 162.962 90.455 162.761 89 L 157.45 50.756 C 157.35 50.204 157.751 49.702 158.302 49.602 C 158.502 49.702 158.703 49.752 158.903 49.802 Z "/>
          <g id="Oval">
            <path id="ID0.5177528047934175" fill="#174832" stroke="none" stroke-width="1" d="M 167.058 57.851 C 168.053 57.851 168.955 58.255 169.608 58.91 C 170.261 59.564 170.665 60.467 170.665 61.464 C 170.665 62.461 170.261 63.365 169.608 64.019 C 168.955 64.673 168.053 65.078 167.058 65.078 C 166.062 65.078 165.161 64.673 164.508 64.019 C 163.855 63.365 163.45 62.461 163.45 61.464 C 163.45 60.467 163.855 59.564 164.508 58.91 C 165.161 58.255 166.062 57.851 167.058 57.851 Z "/>
            <path id="ID0.40607858868315816" fill="#174832" stroke="none" stroke-width="1" d="M 173.521 69.595 C 174.516 69.595 175.418 70 176.071 70.654 C 176.724 71.308 177.128 72.211 177.128 73.208 C 177.128 74.205 176.724 75.109 176.071 75.763 C 175.418 76.417 174.516 76.822 173.521 76.822 C 172.526 76.822 171.624 76.417 170.971 75.763 C 170.318 75.109 169.913 74.205 169.913 73.208 C 169.913 72.211 170.318 71.308 170.971 70.654 C 171.624 70 172.526 69.595 173.521 69.595 Z "/>
          </g>
          <path id="Path" fill="#174832" stroke="none" stroke-width="1" d="M 162.711 89.05 C 162.911 90.505 163.813 91.81 165.116 92.513 C 167.37 93.718 170.176 92.915 171.379 90.656 L 173.633 86.49 L 161.408 79.865 L 162.711 89.05 Z "/>
          <path id="Path" fill="#174832" stroke="none" stroke-width="1" d="M 161.659 67.82 C 161.008 67.82 160.356 68.021 159.855 68.322 L 160.757 74.897 C 161.058 74.947 161.358 74.997 161.659 74.997 C 163.663 74.997 165.266 73.391 165.266 71.384 C 165.266 69.376 163.613 67.82 161.659 67.82 Z "/>
          <path id="Path" fill="#174832" stroke="none" stroke-width="1" d="M 177.391 59.89 C 176.188 60.493 175.337 61.697 175.337 63.153 C 175.337 65.16 176.94 66.766 178.944 66.766 C 180.948 66.766 182.551 65.16 182.551 63.153 C 182.551 63.002 182.551 62.852 182.501 62.701 L 177.391 59.89 Z "/>
          <path id="Path" fill="#174832" stroke="none" stroke-width="1" d="M 159.555 50.204 C 159.254 50.706 159.104 51.308 159.104 51.91 C 159.104 53.918 160.707 55.524 162.711 55.524 C 164.064 55.524 165.266 54.771 165.867 53.667 L 159.555 50.204 Z "/>
          <path id="Path" fill="#174832" stroke="none" stroke-width="1" d="M 177.541 79.263 C 177.04 78.962 176.439 78.812 175.838 78.812 C 173.834 78.812 172.23 80.418 172.23 82.425 C 172.23 83.78 172.982 84.985 174.134 85.587 L 177.541 79.263 Z "/>
        </g>
        <g id="Group">
          <path id="Path" fill="none" stroke="#151B22" stroke-width="1.5" stroke-linecap="round" d="M 222.372 133.236 L 204.335 133.386 L 170.767 111.404 L 167.06 88.668 "/>
          <path id="Oval" fill="#151B22" stroke="none" stroke-width="1" d="M 167.06 84.151 C 168.304 84.151 169.431 84.657 170.247 85.475 C 171.064 86.293 171.569 87.422 171.569 88.668 C 171.569 89.915 171.064 91.044 170.247 91.861 C 169.431 92.679 168.304 93.185 167.06 93.185 C 165.816 93.185 164.688 92.679 163.872 91.861 C 163.056 91.044 162.551 89.915 162.551 88.668 C 162.551 87.422 163.056 86.293 163.872 85.475 C 164.688 84.657 165.816 84.151 167.06 84.151 Z "/>
        </g>
      </g>
    </g>
  </g>
</svg>