<svg version="1.1" xmlns="http://www.w3.org/2000/svg" xmlns:xlink="http://www.w3.org/1999/xlink" width="108.66423" height="260.45495" viewBox="0,0,108.66423,260.45495"><g transform="translate(-198.26789,-49.7724)"><g data-paper-data="{&quot;isPaintingLayer&quot;:true}" stroke-miterlimit="10" stroke-dasharray="" stroke-dashoffset="0" style="mix-blend-mode: normal"><g id="Group-16" fill-rule="evenodd" stroke="none" stroke-width="1" stroke-linecap="butt" stroke-linejoin="miter"><path d="M246.53244,104.05846c0.32059,2.50018 -4.05544,4.67287 -6.58007,4.67287c-2.03574,-0.01598 -5.36184,-1.5097 -5.67441,-3.51463l-0.2164,-16.73445h13.16015z" id="Path" fill="#b47d67"/><path d="M234.20582,99.66517l-0.14426,-11.18293h13.16015l-0.22441,5.00037c-4.79013,0.73354 -9.24754,2.88796 -12.79147,6.18256z" id="Path" fill="#966a57"/></g><g id="Group-17" fill-rule="evenodd" stroke="none" stroke-width="1" stroke-linecap="butt" stroke-linejoin="miter"><path d="M265.65553,195.15139l1.89147,22.58951c0.52897,6.06274 -1.94757,8.09963 -5.54618,8.57091c0,0 -6.61213,1.01445 -8.33529,-5.28793l-9.71382,-26.67128c-0.66522,-3.19512 4.80882,-7.7322 9.34515,-8.36323c4.42412,-0.61506 12.0461,1.78927 12.35868,9.16201z" id="Path" fill="#b47d67"/><path d="M246.30002,211.26279c-1.21022,-4.68884 -2.65287,-6.27841 -3.79897,-10.8714c-1.1461,-4.59299 -2.13993,-9.01024 -2.9414,-13.00415c1.12206,-5.55951 12.88765,-5.70329 12.88765,-5.70329c9.61765,1.12628 13.93757,5.0403 13.93757,5.0403c0.97779,4.62494 3.84706,19.05091 4.40007,23.73976c0.545,4.54506 -0.17632,4.20159 1.19419,12.18939c0.0561,3.0114 -1.16213,8.78659 -8.37537,9.80104c-8.42346,1.19018 -12.02206,-5.44768 -12.82353,-5.9589c-1.04191,-5.48762 -2.82118,-8.77061 -4.48022,-15.23274z" id="Path" fill="#535f6a"/></g><g id="Group-18" stroke="none" stroke-width="1" stroke-linecap="butt" stroke-linejoin="miter"><path d="M241.01031,184.95096l-7.78228,38.98848c-0.90566,6.47012 -7.58993,6.30238 -7.58993,6.30238c-3.63868,-0.01598 -6.34765,-1.72537 -6.58809,-7.80409l-2.46051,-37.88616c-0.04809,-3.13122 7.80632,-5.63939 12.27853,-5.59146c4.58441,0.05591 12.41478,2.78774 12.14228,5.99085z" id="Path" fill="#b47d67" fill-rule="evenodd"/><path d="M243.09413,186.6284c-0.95052,6.93431 -2.26945,13.81349 -3.95125,20.60854c-1.62699,6.26244 -1.79529,12.82043 -2.19603,19.46628c-0.7614,0.59909 -3.50243,7.97982 -12.02206,7.5325c-7.91051,-0.41537 -8.75206,-7.86799 -9.55353,-8.66677c0.34463,-8.11561 -0.40875,-14.66561 -0.45684,-19.23463c-0.04007,-4.72878 -0.17632,-11.34268 -0.22441,-16.07146c0.30456,-10.29628 7.0289,-14.12244 13.70515,-13.90677c4.58441,0.14378 12.83956,4.89652 14.69897,10.27232zM229.32487,201.18218h-2.19603l-5.74654,-1.34195h-1.86743l1.00985,1.34195l1.28235,1.07037h-2.29221l1.86743,1.17421l2.53265,0.11183l-0.64919,1.12628h2.1239l2.725,-1.01445l-1.93154,-0.44732l1.93154,-0.55915z" id="Shape" fill="#535f6a" fill-rule="nonzero"/></g><g id="Group-13" fill-rule="evenodd" stroke="none" stroke-width="1" stroke-linecap="butt" stroke-linejoin="miter"><path d="M266.39284,189.36822c-0.55301,4.60896 -21.05463,-1.8372 -25.64706,-1.88512c-4.80882,-0.03994 -20.94243,5.28793 -25.70316,3.39482c-0.23708,-4.97651 0.17511,-9.96263 1.22625,-14.83335c1.73919,-7.9878 6.4839,-18.22018 9.04059,-22.36585h29.65441c9.09669,9.14604 12.14228,29.38713 11.42897,35.68951z" id="Path" fill="#535f6a"/><path d="M228.11465,155.26025v14.2822c0,5.29385 -4.30597,9.58537 -9.61765,9.58537h-2.9414c0.04809,-0.25561 0.13625,-0.50323 0.13625,-0.75085h2.09184c5.31168,0 9.61765,-4.29151 9.61765,-9.58537v-14.2822c0.01617,-0.28201 0.01617,-0.5647 0,-0.84671h0.56904c0.09246,0.52761 0.14071,1.06197 0.14426,1.59756z" id="Path" fill="#354650"/><path d="M252.60759,153.66273h0.56904c0,0.27957 -0.04007,0.55915 -0.04007,0.84671v14.2822c0,5.29385 4.30597,9.58537 9.61765,9.58537h2.13191c0.04809,0.24762 0.09618,0.49524 0.13625,0.75085h-2.9414c-5.31168,0 -9.61765,-4.29151 -9.61765,-9.58537v-14.2822c0.00356,-0.53559 0.05181,-1.06995 0.14426,-1.59756z" id="Path" fill="#354650"/><path d="M239.58369,183.08182v0.64701h-2.68493c-0.88528,0 -1.60294,-0.71525 -1.60294,-1.59756v-28.46854h0.45684l0.48088,28.26884c0,0.44115 0.35883,0.79878 0.80147,0.79878z" id="Path" fill="#354650"/><path d="M239.58369,181.68395l-0.48088,-3.19512v-24.8261h0.48088z" id="Path" fill="#354650"/></g><g fill-rule="evenodd" stroke="none" stroke-width="1" stroke-linecap="butt" stroke-linejoin="miter"><path d="M257.87323,105.23267c0,0 3.71081,-2.04488 8.3914,1.66945l24.38074,29.87439c1.83537,2.39634 0.68926,6.04677 -1.60294,7.9878c0,0 -4.31191,3.0114 -7.60596,-0.47927l-24.57309,-28.30079c-1.3613,-1.53161 -2.02521,-3.5568 -1.83386,-5.59399c0.19135,-2.0372 1.22085,-3.90439 2.84371,-5.15759z" id="Path" fill="#b47d67"/><path d="M255.57303,116.20791c-2.80515,-4.98439 -5.16949,-10.07262 -1.46669,-13.18787c0,0 4.89699,-5.57549 14.06581,4.16963l19.46772,19.68195l-17.07934,14.07451z" id="Path" fill="#b72c27"/><path d="M264.95825,131.69623l15.11574,-12.47695l2.49257,2.51616l-15.75691,13.01213z" id="Path" fill="#bd7657"/><path d="M261.58406,126.12877l13.93757,-11.50244l2.49257,2.51616l-14.57875,12.03762z" id="Path" fill="#bd7657"/></g><g id="Group-12" fill-rule="evenodd" stroke="none" stroke-width="1" stroke-linecap="butt" stroke-linejoin="miter"><path d="M261.13523,153.6148l1.73118,10.13652l-24.11625,8.72268l-22.92206,0.30354l2.40441,-17.06994l-0.25647,-5.54354l0.17632,-7.2689l-11.1725,-30.9847c2.80515,-5.95091 8.1189,-8.43512 15.78096,-12.26128l11.3889,-4.34537l0.20838,3.88207c0.31257,2.00494 3.63868,8.30732 5.68243,8.30732c2.52463,0.02396 6.62816,-6.91744 6.74838,-9.44159l0.12824,-2.7478l10.20272,4.35335c6.3236,3.29098 10.61147,5.79116 10.61147,11.07909l-6.88463,25.86451l-1.44265,9.58537z" id="Path" fill="#c62c1b"/><path d="M263.9564,124.89865h-52.29596l-1.56287,-4.34537h55.02096z" id="Path" fill="#e1d2a2"/><path d="M262.00082,132.27135h-47.67949l-1.57088,-4.35335h50.40449z" id="Path" fill="#e1d2a2"/><path d="M218.23252,155.71557l-0.25647,-5.55152l14.42647,5.58348z" id="Path" fill="#b72c27"/><path d="M262.84234,163.75129l-24.11625,8.72268l22.40912,-18.84323z" id="Path" fill="#b72c27"/><path d="M250.3234,150.75514l7.59794,-7.41268l2.78912,-5.81512l-1.3064,8.65878z" id="Path" fill="#b72c27"/></g><g fill-rule="evenodd" stroke="none" stroke-width="1" stroke-linecap="butt" stroke-linejoin="miter"><path d="M258.26595,74.4796l-1.60294,2.69988c-0.92971,1.58159 -2.74103,2.26055 -4.00735,1.5097c-0.53699,-0.41537 -0.61713,-1.36591 -0.08015,-3.19512l1.11404,-3.74628c0.29116,-0.76307 0.8965,-1.36518 1.66271,-1.65384c0.76622,-0.28866 1.61983,-0.23618 2.34464,0.14414c1.26632,0.75085 1.53081,2.69988 0.56904,4.24152z" id="Path" fill="#966a57"/><path d="M254.89178,79.6397v-3.8022h1.08199v3.8022z" id="Rectangle" fill="#9bd2dd"/></g><path d="M242.02016,93.01133h-2.58875c-3.02154,0 -10.70765,-5.14415 -11.85375,-12.88433l-2.14794,-13.93872c0,-7.08518 7.96662,-12.88433 15.08368,-12.88433h0.43279c7.10904,0 15.08368,5.79915 15.08368,12.88433l-2.15596,13.93872c-1.4186,7.34079 -8.31926,12.88433 -11.85375,12.88433z" id="Path" fill="#b47d67" fill-rule="evenodd" stroke="none" stroke-width="1" stroke-linecap="butt" stroke-linejoin="miter"/><path d="M228.82178,74.20802c0,-0.55228 0.44772,-1 1,-1c0.55228,0 1,0.44772 1,1c0,0.55228 -0.44772,1 -1,1c-0.55228,0 -1,-0.44772 -1,-1z" id="Oval" fill="#825c4a" fill-rule="evenodd" stroke="none" stroke-width="1" stroke-linecap="butt" stroke-linejoin="miter"/><path d="M242.34877,81.00566l-1.1461,0.55915c-0.59186,0.28756 -1.28359,0.28756 -1.87544,0l-1.1461,-0.55915" id="Path" fill="none" fill-rule="evenodd" stroke="#6e4e41" stroke-width="0.8" stroke-linecap="round" stroke-linejoin="round"/><g data-paper-data="{&quot;origPos&quot;:null}" id="Group" fill-rule="evenodd"><path d="M245.25009,84.48834c-0.35265,1.5736 -2.34029,3.24305 -4.73669,3.24305c-2.3964,0 -4.37603,-1.59756 -4.73669,-3.19512c-0.06412,-0.25561 0.11221,-0.50323 0.59309,-0.50323c2.71328,0.7137 5.56592,0.7137 8.27919,0c0.36868,0 0.65721,0.23963 0.6011,0.4553z" id="Path" fill="#966a57" stroke="none" stroke-width="1" stroke-linecap="butt" stroke-linejoin="miter"/><path d="M235.92097,84.26468c0.13064,-0.09853 0.29383,-0.14418 0.45684,-0.1278c2.71467,0.70293 5.56452,0.70293 8.27919,0c0.16553,-0.00509 0.32747,0.04871 0.45684,0.15177c-0.4889,0.94256 -2.35632,1.8372 -4.60044,1.8372c-2.25213,0 -4.11154,-0.90262 -4.59243,-1.86116z" id="Path" fill="#dbdbdb" stroke="none" stroke-width="1" stroke-linecap="butt" stroke-linejoin="miter"/><path d="M245.24207,84.53627c-0.35265,1.59756 -2.33228,3.19512 -4.72868,3.24305c-2.3964,0.04793 -4.38404,-1.65348 -4.74471,-3.19512c0.01342,-0.14171 0.07573,-0.27439 0.17632,-0.37543c0.1154,-0.10357 0.27115,-0.15043 0.42478,-0.1278c1.34399,0.41451 2.73751,0.64822 4.1436,0.69494c1.4016,-0.0516 2.78989,-0.29071 4.12757,-0.71091c0.37669,-0.03195 0.66522,0.20768 0.6011,0.47128z" id="Path" fill="none" stroke="#6e4e41" stroke-width="0.8" stroke-linecap="round" stroke-linejoin="round"/></g><g><g id="Group-7" stroke="none" stroke-width="1" stroke-linecap="butt" stroke-linejoin="miter"><path d="M258.57854,289.24769c0.00932,1.20962 -0.50991,2.36343 -1.42247,3.16098c-0.91257,0.79754 -2.12816,1.15989 -3.33025,0.99268h-0.0561c-1.95522,-0.27925 -3.44668,-1.88568 -3.57456,-3.85012l3.49441,-65.64378c0.24846,-3.19512 4.72066,-5.31189 7.83037,-4.90451c3.10971,0.40738 6.78044,3.4747 6.31559,6.56598z" id="Path" fill="#b47d67" fill-rule="evenodd"/><path d="M262.86641,275.75633l-0.66522,2.92354c0.56904,2.07683 -1.60294,1.82921 -1.60294,1.82921l-12.69529,-0.63902c-1.0339,-0.36744 -1.50676,-4.09774 -1.50676,-4.09774c-0.48088,-2.59604 1.51478,-1.62152 2.31625,-1.13427l1.74721,-49.78799c0.52096,-4.13768 3.22191,-10.44805 13.52882,-9.4975c5.46603,1.56561 6.82853,4.80067 7.46169,10.95128l-10.15463,47.35171c1.33044,0.34348 1.57088,2.10079 1.57088,2.10079zM253.64149,236.33651l1.73118,0.67896l-0.94574,0.30354l4.13559,0.54317l-2.90934,0.89463l2.22809,0.11982l-3.38221,1.31l4.23978,-0.63104l1.77125,-0.05591l0.98581,-0.60707l1.54684,-0.07988l1.60294,-0.69494l-1.60294,-0.21567l0.71331,-0.64701l-0.69728,-0.31951l1.60294,-1.14226l-8.46353,0.47128z" id="Shape" fill="#535f6a" fill-rule="nonzero"/><path d="M248.76053,274.66198v-0.43134c1.16374,-0.08399 2.33241,-0.07331 3.49441,0.03195c1.5143,0.25104 3.06923,0.05385 4.47221,-0.56713c0,0 2.40441,-2.26055 4.80882,-1.09433l-0.24044,1.05439c-0.63886,-0.14871 -1.3104,-0.05473 -1.88346,0.2636c-1.39288,0.69528 -2.89439,1.14909 -4.44015,1.34195c0,0 -1.6911,-0.21567 -5.84272,-0.40738c-0.12728,-0.05515 -0.25048,-0.11922 -0.36868,-0.19171z" id="Path" fill="#354650" fill-rule="evenodd"/></g><g id="Group-14" fill-rule="evenodd"><path d="M247.99913,297.51511c-0.32059,-0.30354 -0.43279,-0.7189 -0.43279,-1.66945c0,0 1.89949,-9.6972 1.88346,-10.94329c1.71146,0.787 3.67086,0.8447 5.42596,0.15976c0.49691,-0.15976 0.66522,0.68695 0.66522,0.68695c1.52279,0.47128 11.16449,9.92884 12.12625,12.07756c0.49548,0.25383 0.89281,0.66386 1.13007,1.16622c4.00735,0.37543 7.91853,2.59604 7.58191,4.79268v0.79878c0.04809,0.31152 -1.02588,1.84518 -2.40441,2.3564c-0.75338,0.27957 -8.76007,1.38988 -11.39691,-1.31c0,0 -1.88346,-2.19665 -3.34213,-2.80372c-0.65721,-0.27159 -9.81801,-4.50512 -10.34699,-4.72079c-0.33053,-0.13363 -0.63865,-0.3168 -0.91368,-0.54317z" id="Path" fill="#f2f3ca" stroke="none" stroke-width="1" stroke-linecap="butt" stroke-linejoin="miter"/><path d="M265.80778,305.45496c3.54787,0.85286 7.27775,0.53326 10.6275,-0.91061c-0.35265,2.04488 -3.85507,3.44274 -6.31559,3.44274c-2.91735,0 -8.48757,0.63902 -10.33096,-3.85012c-0.2725,-0.655 -10.31493,-5.82311 -10.8439,-6.04677c-1.04993,-0.51122 -1.55485,-0.79079 -1.35449,-2.22061l0.36868,-2.39634l13.48074,8.17152c0.36066,3.30695 3.58257,3.65043 4.36801,3.81018z" id="Path" fill="#7faaa5" stroke="none" stroke-width="1" stroke-linecap="butt" stroke-linejoin="miter"/><path d="M264.87008,298.32987l-9.32912,-12.58079c1.13007,-1.965 2.80515,-3.3389 4.55235,-2.2286c1.32243,0.84671 0.24044,3.91402 0.24044,3.91402c2.52463,2.89159 4.27985,5.85506 7.33346,10.38415z" id="Path" fill="#c0dec8" stroke="none" stroke-width="1" stroke-linecap="butt" stroke-linejoin="miter"/><path d="M262.27329,294.83121l1.33044,-3.11524l-4.79279,-1.55762l1.52279,-2.71585l-3.46235,-0.03195l5.03324,1.95701l-1.41059,3.05933l4.95309,2.06085l-0.57706,3.84213l2.79713,-0.50323z" id="Path" fill="none" stroke="#00bcbd" stroke-width="0.576" stroke-linecap="round" stroke-linejoin="round"/><path d="M258.66671,296.18114l-10.33897,-4.68884l0.85757,-4.63293l10.43515,8.09165l4.62449,7.04524z" id="Path" fill="#00bcbd" stroke="none" stroke-width="1" stroke-linecap="butt" stroke-linejoin="miter"/></g></g><g fill-rule="evenodd"><g id="Group-19" stroke="none" stroke-width="1" stroke-linecap="butt" stroke-linejoin="miter"><path d="M233.7009,230.09804l-4.33596,65.5c-0.3708,1.92379 -2.04213,3.32633 -4.00735,3.36287h-0.0561c-1.21459,0.012 -2.37399,-0.5047 -3.17483,-1.4149c-0.80083,-0.91019 -1.1634,-2.12329 -0.99282,-3.32187l-1.60294,-64.35774c-0.0561,-3.13122 3.98331,-5.68732 7.11706,-5.68732c3.2139,0 7.28537,2.6839 7.05294,5.91896z" id="Path" fill="#b47d67"/><path d="M234.29399,277.68139c0,0 -0.96176,3.64244 -2.03574,3.8661c-3.90008,1.04385 -8.02359,0.9076 -11.84574,-0.3914l-1.60294,-0.55915c0,0 -1.43463,-0.09585 -0.56103,-2.08482l0.29654,-4.06579c0,0 0.2725,-0.40738 1.28235,-0.14378l-4.45618,-48.72561c0.02404,-4.20957 4.87294,-10.01671 9.36118,-10.01671c8.47956,-1.01445 12.17434,6.97335 12.17434,11.18293l-4.6325,47.92683c0.43343,-0.09048 0.88098,-0.09048 1.31441,0c0,0 1.6911,-0.08787 0.70529,3.0114z" id="Path" fill="#535f6a"/><path d="M219.83546,274.48623c-0.04809,-0.44732 -0.04809,-0.75085 -0.04809,-0.75085c0,0 5.31375,2.38037 8.07882,0.89463c0,0 2.65287,-1.71738 4.62449,-1.71738l-0.18434,1.90909c-2.1633,0.36587 -4.304,0.85392 -6.41176,1.46177c-1.41059,0.55915 -3.89515,-0.73488 -3.89515,-0.73488c-0.661,-0.46498 -1.39124,-0.82348 -2.16397,-1.06238z" id="Path" fill="#354650"/></g><g id="Group-15"><path d="M231.12818,299.8715c-0.26813,0.22393 -0.56452,0.41191 -0.88162,0.55915c-0.73342,0.29367 -1.41729,0.69776 -2.02772,1.19817c-0.60601,0.54582 -1.15882,1.14759 -1.65103,1.79726c-2.30824,2.70787 -1.29037,4.56104 -11.42096,6.39024c0,0 -5.49809,-0.20768 -6.24346,-0.48726c-0.9721,-0.40134 -1.60511,-1.34767 -1.60294,-2.39634v-1.52567c0.80949,-1.79726 2.89331,-5.1122 4.6886,-6.07872c1.42662,-3.56256 5.89081,-10.44805 8.15897,-13.57927c8.30324,-0.84671 3.89515,3.79421 10.98015,0.75085c-0.01603,1.2461 0.46485,11.68616 0.46485,11.68616c0.00801,0.95055 -0.11221,1.3739 -0.42478,1.66945z" id="Path" fill="#f2f3ca" stroke="none" stroke-width="1" stroke-linecap="butt" stroke-linejoin="miter"/><path d="M224.58818,300.43062l6.8686,-5.77518l0.13625,3.56256c0,1.59756 -0.29654,1.70939 -1.34647,2.22061c-0.73502,0.29392 -1.41925,0.70092 -2.02772,1.20616c-0.60566,0.54327 -1.15846,1.14235 -1.65103,1.78927c-2.30824,2.69189 -1.25029,4.92049 -11.3889,6.7497c-2.30022,0.04793 -8.48757,0.51921 -7.87846,-3.24305c3.49441,3.61049 11.58125,0.62305 14.97147,-0.69494c0.72934,-0.27957 2.36434,-3.79421 2.31625,-5.81512z" id="Path" fill="#7faaa5" stroke="none" stroke-width="1" stroke-linecap="butt" stroke-linejoin="miter"/><path d="M213.01494,297.21955c0.96978,-2.62 5.53816,-9.12207 7.1411,-11.51841c2.34029,-0.11982 5.04926,-0.20768 6.82853,1.69341l-6.86059,10.0886z" id="Path" fill="#c0dec8" stroke="none" stroke-width="1" stroke-linecap="butt" stroke-linejoin="miter"/><path d="M213.01494,297.21955l7.10904,0.2636l-5.54618,-3.37884l9.54551,-2.50817l-6.27551,-2.48421l8.72,-1.11829l-7.40559,-0.83073l6.24346,2.54811l-8.91235,1.39787l5.85875,3.09927l-9.33713,3.0114" id="Path" fill="none" stroke="#00bcbd" stroke-width="0.664" stroke-linecap="round" stroke-linejoin="round"/><path d="M220.50068,303.6577l2.37235,-6.66982l8.31125,-9.17l0.20838,5.18409l-7.38956,4.90451z" id="Path" fill="#00bcbd" stroke="none" stroke-width="1" stroke-linecap="butt" stroke-linejoin="miter"/></g></g><path d="M237.64413,69.31151c-0.00432,0.32907 -0.27093,0.59478 -0.6011,0.59909h-6.24346c-0.33198,0 -0.6011,-0.26822 -0.6011,-0.59909c0,-0.33087 0.26912,-0.59909 0.6011,-0.59909l6.27551,-0.27957c0.3286,0 0.56904,0.55116 0.56904,0.87866z" data-paper-data="{&quot;origPos&quot;:null}" id="Path" fill="#231607" fill-rule="evenodd" stroke="none" stroke-width="1" stroke-linecap="butt" stroke-linejoin="miter"/><path d="M250.96457,68.51273c0,0.33087 -0.26912,0.59909 -0.6011,0.59909l-6.23544,0.79878c-0.33018,-0.0043 -0.59679,-0.27002 -0.6011,-0.59909c0,-0.3275 0.23243,-0.87866 0.56103,-0.87866l6.27551,-0.51921c0.33198,0 0.6011,0.26822 0.6011,0.59909z" data-paper-data="{&quot;origPos&quot;:null}" id="Path" fill="#231607" fill-rule="evenodd" stroke="none" stroke-width="1" stroke-linecap="butt" stroke-linejoin="miter"/><g data-paper-data="{&quot;origPos&quot;:null}" id="Group-8" fill-rule="evenodd" stroke="none" stroke-width="1" stroke-linecap="butt" stroke-linejoin="miter"><path d="M237.04735,71.48439c0.077,0.09055 0.11054,0.21007 0.09185,0.32729c-0.27803,1.51827 -1.60524,2.62146 -3.15379,2.62146c-1.54855,0 -2.87575,-1.10319 -3.15379,-2.62146c-0.02163,-0.1177 0.01084,-0.23887 0.08846,-0.33016c0.07762,-0.09129 0.19223,-0.14308 0.31227,-0.14112h5.5061c0.11909,0.00086 0.23188,0.05344 0.30888,0.14399z" id="Path" fill="#ffffff"/><path d="M232.22619,72.30692c-0.00254,-0.34362 0.09793,-0.68017 0.28853,-0.96652h2.9975c0.18578,0.27719 0.28863,0.60132 0.29654,0.93457c0,0.98377 -0.80019,1.78128 -1.78728,1.78128c-0.97782,0.00453 -1.77777,-0.77494 -1.79529,-1.74933z" id="Path" fill="#4c392b"/></g><g data-paper-data="{&quot;origPos&quot;:null}" id="Group-9" fill-rule="evenodd" stroke="none" stroke-width="1" stroke-linecap="butt" stroke-linejoin="miter"><path d="M250.28558,71.39673c0.07581,0.09097 0.10727,0.21074 0.08591,0.32706c-0.2869,1.50826 -1.60949,2.59999 -3.14978,2.59999c-1.54029,0 -2.86288,-1.09173 -3.14978,-2.59999c-0.02136,-0.11632 0.0101,-0.23609 0.08591,-0.32706c0.07581,-0.09097 0.18816,-0.14378 0.30681,-0.14422h5.51412c0.11865,0.00043 0.23101,0.05325 0.30681,0.14422z" id="Path" fill="#ffffff"/><path d="M246.1262,73.48663c-0.33715,-0.33602 -0.52561,-0.79237 -0.52346,-1.26756c0.00211,-0.34295 0.10219,-0.67821 0.28853,-0.96652h3.00551c0.35927,0.54786 0.38815,1.24795 0.07521,1.82335c-0.31293,0.5754 -0.91727,0.93342 -1.57396,0.93245c-0.4768,0.00214 -0.93468,-0.18569 -1.27183,-0.52171z" id="Path" fill="#4c392b"/></g><g fill-rule="evenodd" stroke="none" stroke-width="1" stroke-linecap="butt" stroke-linejoin="miter"><path d="M218.79355,121.3281l-2.31625,38.24561c-0.43279,4.77671 -5.69044,5.04829 -5.69044,5.04829c-2.9975,-0.07189 -6.20338,-2.25256 -6.20338,-5.24799l0.72934,-38.50921c0.15497,-3.81151 3.04137,-6.95802 6.83654,-7.45262c4.49625,0.1278 6.99684,3.82616 6.64419,7.91591z" id="Path" fill="#b47d67"/><g id="Group-4"><path d="M220.15605,146.58554l-21.88816,-3.46671l6.71632,-26.81506c2.9414,-11.63024 9.98632,-10.71165 9.98632,-10.71165c4.68059,2.2286 5.32978,9.48152 5.61029,13.44348z" id="Path" fill="#b72c27"/><path d="M220.22818,139.34057l-20.20507,-3.2111l0.85757,-3.43476l19.37956,3.08329z" id="Path" fill="#bd7657"/><path d="M220.2923,132.83851l-18.70632,-2.97146l0.86559,-3.43476l17.87279,2.84366z" id="Path" fill="#bd7657"/></g></g><g fill="#b47d67" fill-rule="evenodd" stroke="none" stroke-width="1" stroke-linecap="butt" stroke-linejoin="miter"><path d="M279.74535,138.24627l14.42647,-31.36811c0.67,-1.5389 2.42002,-2.29935 4.00735,-1.74134c1.23106,0.42817 1.99098,1.65932 1.81934,2.9475l-8.91235,33.70854c-1.13423,2.83116 -4.18445,4.40051 -7.15713,3.68238c-2.90934,-0.7828 -4.86493,-4.31341 -4.18368,-7.22896z" id="Path"/><g id="Group-3"><path d="M299.34134,102.04554l4.00735,-9.45756c0.11,-0.26737 0.32235,-0.48004 0.59008,-0.59097c0.26773,-0.11093 0.56877,-0.11098 0.83654,-0.00013c0.55436,0.22835 0.81941,0.8602 0.59309,1.41384l-3.33412,9.58537c-0.26449,0.51921 -1.31441,0.74287 -1.86743,0.51921c-0.60599,-0.21435 -0.959,-0.84285 -0.82551,-1.46976z" id="Path"/><path d="M297.07318,99.64919l3.75088,-9.78506c0.23566,-0.61235 0.92149,-0.92207 1.53882,-0.69494c0.29806,0.10955 0.54003,0.33295 0.67239,0.62077c0.13236,0.28782 0.1442,0.61634 0.0329,0.91289l-3.14176,10.00872c-0.22441,0.61506 -1.4186,0.70293 -2.03574,0.47128c-0.64103,-0.21006 -1.00169,-0.88667 -0.8175,-1.53366z" id="Path"/><path d="M300.263,106.08736l4.9611,-8.94634c0.09776,-0.21598 0.27819,-0.38399 0.50104,-0.46652c0.22285,-0.08254 0.46958,-0.07274 0.68514,0.02719c0.44908,0.20956 0.64557,0.74008 0.44081,1.19018l-4.31993,9.32177c-0.21026,0.44757 -0.74258,0.6434 -1.19419,0.43933c-0.48088,-0.20768 -1.28235,-1.11829 -1.07397,-1.56561z" id="Path"/><path d="M294.6928,98.98621l3.20588,-9.05018c0.08239,-0.25034 0.26146,-0.45765 0.49761,-0.57607c0.23614,-0.11842 0.50989,-0.1382 0.7607,-0.05496c0.52328,0.1713 0.80968,0.73147 0.64118,1.25409l-2.77309,9.20994c-0.16831,0.5272 -1.1461,0.64701 -1.66706,0.47927c-0.53095,-0.16833 -0.82744,-0.73083 -0.66522,-1.26207z" id="Path"/><path d="M290.47707,95.47157c0.74537,-0.27957 2.15596,0.90262 2.5086,1.9011l3.20588,9.06616c-0.25045,1.00082 -1.15306,1.70269 -2.18801,1.7014c-0.48088,-0.18372 -1.87544,-0.43134 -2.40441,-2.81171l-0.75338,-6.86951c0.15056,-0.88142 -0.06976,-1.78572 -0.60912,-2.50018c-0.13625,-0.15177 0.04007,-0.41537 0.24044,-0.48726z" id="Path"/><path d="M295.38207,109.84962c-2.71699,-1.01445 -4.56838,-4.22555 -3.55853,-6.93341l0.45684,-1.22213c1.02686,-2.71376 4.05781,-4.09397 6.78846,-3.09128l0.93772,0.35146c2.71222,1.01657 4.09621,4.02119 3.10169,6.73372l-0.45684,1.23012c-0.99382,2.76378 -4.54434,3.93799 -7.26934,2.93152z" id="Path"/></g></g><g fill="#b47d67" fill-rule="evenodd" stroke="none" stroke-width="1" stroke-linecap="butt" stroke-linejoin="miter"><g id="Group-5"><path d="M212.73224,185.6819c1.34089,0.17369 2.43524,1.15387 2.75123,2.46419c1.07397,3.3389 -1.18618,8.13159 -1.18618,8.13159c-0.38115,0.86682 -0.9904,1.61478 -1.76324,2.1647c0.12517,1.22882 0.14662,2.46595 0.06412,3.69835c1.22565,0.67987 2.39424,1.45721 3.49441,2.32445c2.4525,0.8547 1.60294,2.39634 1.60294,2.39634c-6.20338,-1.58159 -7.40559,-2.81171 -7.40559,-2.81171c-5.18551,-6.72573 -3.49441,-9.78506 -3.49441,-9.78506l2.64485,-6.90146c0.64157,-1.18627 1.95097,-1.85508 3.29186,-1.68138z" id="Path"/><path d="M216.70171,201.6295c-0.80147,0.1997 -2.18,-1.2461 -2.40441,-2.39634l-2.54868,-11.27079c0.40012,-1.0275 1.45186,-1.65049 2.54868,-1.5097c1.43095,1.08821 2.3288,2.7326 2.46853,4.5211l-0.06412,7.42067c-0.27885,0.91985 -0.16581,1.91352 0.31257,2.7478c0.08816,0.18372 -0.13625,0.43933 -0.31257,0.48726z" id="Path"/></g><path d="M210.18575,154.86886c3.04934,-0.19668 5.78071,1.86879 6.41176,4.8486l-1.42662,28.57238c-0.0368,1.31021 -1.00211,2.40972 -2.30022,2.62c-1.66912,0.29635 -3.28118,-0.75375 -3.67875,-2.39634l-4.38404,-27.23043c-0.12824,-2.99543 2.37235,-6.14262 5.37787,-6.41421z" id="Path"/></g><path d="M256.31825,65.06175l-0.70763,5.12817h-1.51835c0,0 1.08418,-13.66591 -14.58026,-12.67786c0,0 -13.08164,1.3112 -12.30841,12.72378c0.01008,0.14869 -1.33444,0.29074 -1.33444,0.29074c0,0 -1.81154,-7.00546 1.29169,-11.20944c4.5582,-6.93758 14.0238,-7.14769 14.0238,-7.14769c7.13258,0 15.13361,5.80713 15.13361,12.89232z" data-paper-data="{&quot;origPos&quot;:null}" id="Path" fill="#553c2e" fill-rule="evenodd" stroke="none" stroke-width="1" stroke-linecap="butt" stroke-linejoin="miter"/><path d="M229.47108,63.07279c-2.25959,2.8117 -2.60536,12.47695 0,19.22664c2.60536,6.7497 -3.3934,8.54695 -3.3934,8.54695c-4.98557,1.03042 -3.6266,-6.39024 -3.6266,-6.39024c-1.06024,-0.35805 -1.90488,-1.16654 -2.30437,-2.20574c-0.3995,-1.0392 -0.31234,-2.20114 0.23778,-3.17006c1.21422,-2.41232 4.82474,-5.1761 4.35835,-8.85848c-1.38309,-10.95927 2.23547,-13.99463 2.23547,-13.99463c3.06371,-3.92201 6.34454,-5.65536 9.40021,-6.2225c6.86721,-1.19817 8.26639,2.62799 8.26639,2.62799c0.56288,9.77708 -12.91422,7.62836 -15.17381,10.44006z" data-paper-data="{&quot;origPos&quot;:null}" id="Path" fill="#231607" fill-rule="evenodd" stroke="none" stroke-width="1" stroke-linecap="butt" stroke-linejoin="miter"/></g></g></svg>