<svg xmlns="http://www.w3.org/2000/svg" xmlns:xlink="http://www.w3.org/1999/xlink" version="1.1" width="125.6209945678711" height="135.3529815673828" viewBox="-0.33900000154972076 0.31700003147125244 125.6209945678711 135.3529815673828">
  <!-- Exported by Scratch - http://scratch.mit.edu/ -->
  <g id="ID0.28535493509843946">
    <g id="Page-1">
      <g id="catcher-c-[baseball,sports,people,alex-eben-meyer]">
        <g id="Face">
          <path id="Shape" fill="#000000" stroke="none" stroke-width="1" d="M 57.803 56.726 L 48.494 57.626 C 48.324 61.103 46.572 64.542 42.784 68.246 C 33.073 77.72 36.629 89.856 35.473 91.405 C 35.601 91.987 43.807 96.615 44.261 96.989 L 50.355 97.283 C 53.736 89.704 58.494 81.23 59.531 79.255 C 65.758 67.365 58.499 60.658 57.803 56.726 Z "/>
          <path id="Shape" fill="#BE8264" stroke="none" stroke-width="1" d="M 66.818 61.34 C 66.473 55.504 63.977 53.377 60.237 49.294 C 60.237 49.294 52.694 42.374 46.312 47.281 L 45.838 56.044 C 45.838 56.044 44.74 63.386 54.063 69.781 C 56.79 71.647 61.297 70.932 62.997 70.084 C 67.917 67.616 66.918 63.05 66.818 61.34 Z "/>
          <path id="Shape" fill="#A06446" stroke="none" stroke-width="1" d="M 63.655 56.257 C 59.588 51.393 61.468 51.701 62.538 51.132 C 63.783 51.8 64.801 53.136 65.795 54.77 C 65.724 54.997 65.734 55.31 65.582 55.386 C 64.957 55.722 64.285 55.983 63.655 56.257 Z "/>
          <path id="Shape" fill="#000000" stroke="none" stroke-width="1" d="M 55.526 56.712 C 55.526 56.712 60.938 64.433 52.718 75.262 L 42.997 73.258 L 47.055 62.96 L 55.526 56.712 Z "/>
          <path id="Shape" fill="#BE8264" stroke="none" stroke-width="1" d="M 58.509 60.828 C 59.522 58.389 59.067 56.939 54.721 56.092 C 52.126 55.618 50.601 57.882 51.752 59.881 C 53.196 62.368 56.345 62.283 58.509 60.828 Z "/>
        </g>
        <g id="Mask/hat">
          <path id="Shape" fill="#008264" stroke="none" stroke-width="1" d="M 61.08 48.896 C 58.087 51.326 48.144 61.776 45.005 64.154 C 40.142 59.862 39.143 50.474 45.862 45.41 C 54.612 38.816 61.08 48.911 61.08 48.896 Z "/>
          <path id="Shape" fill="#008264" stroke="none" stroke-width="1" d="M 42.41 68.668 L 43.66 63.604 L 49.096 60.544 L 51.728 59.384 L 42.41 68.668 "/>
          <path id="Shape" fill="#BE0A3C" stroke="none" stroke-width="1" d="M 58.802 49.957 L 41.491 60.08 L 43.385 64.561 C 43.385 64.561 61.013 53.988 61.605 53.193 L 58.802 49.957 Z "/>
          <path id="Shape" fill="#F01446" stroke="none" stroke-width="1" d="M 72.41 63.614 C 70.639 60.213 59.834 45.926 59.048 44.908 C 57.808 43.288 54.186 38.845 53.523 38.797 C 51.136 39.342 49.1 41.711 49.1 41.711 C 49.1 41.711 53.229 47.939 54.706 49.995 C 56.425 52.392 63.229 61.217 64.82 62.913 C 66.103 64.291 67.661 67.001 69.598 67.294 C 70.862 67.029 71.657 66.096 72.514 65.243 C 72.702 64.708 72.665 64.12 72.41 63.614 Z "/>
          <path id="Shape" fill="#F0E6D2" stroke="none" stroke-width="1" d="M 72.41 56.575 C 70.516 54.055 67.472 50.156 67.472 50.156 L 66.165 51.184 L 71.241 57.489 L 72.41 56.575 Z "/>
          <path id="Shape" fill="#F0E6D2" stroke="none" stroke-width="1" d="M 64.001 45.732 C 62.107 43.207 59.063 39.314 59.063 39.314 L 57.765 40.327 L 62.831 46.637 L 64.001 45.732 Z "/>
          <path id="Shape" fill="#F0E6D2" stroke="none" stroke-width="1" d="M 65.994 41.995 L 56.866 49.308 L 61.709 55.547 C 68.504 50.497 63.651 54.183 70.98 48.394 L 65.994 41.995 Z M 65.961 44.671 L 68.717 48.048 L 61.823 53.155 C 61.823 53.155 60.005 50.753 59.304 49.839 C 63.802 46.485 65.961 44.671 65.961 44.671 Z "/>
        </g>
        <path id="Shape" fill="#BE8264" stroke="none" stroke-width="1" d="M 82.671 98.001 C 82.671 98.001 82.671 97.671 82.131 97.07 C 82.191 97.611 82.341 97.971 82.671 98.001 Z "/>
        <g id="Right-Arm">
          <path id="Shape" fill="#BE8264" stroke="none" stroke-width="1" d="M 109.749 22.252 L 81.004 77.592 L 72.311 72.491 L 104.176 17.903 L 109.749 22.252 "/>
          <path id="Shape" fill="#BE0A3C" stroke="none" stroke-width="1" d="M 64.867 83.977 C 67.386 79.16 71.496 71.714 74.366 67.114 C 75.511 67.204 84.517 73.623 84.517 73.623 C 84.517 73.623 77.391 88.984 75.866 90.865 C 74.337 90.026 66.349 85.015 64.867 83.977 Z "/>
        </g>
        <g id="Glove">
          <path id="Shape" fill="#824600" stroke="none" stroke-width="1" d="M 119.384 19.921 C 119.858 19.997 124.053 15.805 124.782 15.885 C 124.432 14.815 124.034 11.513 123.575 10.675 C 123.305 10.201 123.063 9.661 122.813 9.159 L 122.339 8.212 C 121.866 7.264 121.08 6.592 120.402 5.819 C 119.012 4.294 117.33 3.063 115.455 2.201 C 113.878 1.433 112.14 1.22 110.417 0.936 C 110.064 0.899 109.71 0.887 109.356 0.903 C 109.181 0.903 109.001 0.903 108.826 0.903 C 107.907 0.874 106.989 0.836 106.07 0.817 C 105.909 0.817 102.585 2.238 102.339 2.295 L 107.202 14.081 C 107.202 14.081 118.726 19.817 119.384 19.921 Z "/>
          <path id="Shape" fill="#642800" stroke="none" stroke-width="1" d="M 118.963 16.691 C 118.414 14.663 115.928 11.101 114.536 9.756 C 112.76 8.046 110.492 7.477 108.059 7.297 C 107.798 7.387 104.626 7.297 104.271 7.416 C 104.124 7.643 100.009 13.289 100.009 13.289 L 113.002 24.213 L 118.963 16.691 Z "/>
          <path id="Shape" fill="#A0640A" stroke="none" stroke-width="1" d="M 124.01 14.313 C 124.427 14.742 124.697 15.293 124.782 15.885 C 123.755 22.091 119.28 28.083 113.063 28.935 C 107.528 29.688 102.382 29.025 98.769 24.625 C 92.652 17.174 96.591 7.132 101.463 2.262 C 103.187 1.736 104.053 1.646 105.043 1.888 C 106.219 3.02 106.853 4.604 106.78 6.236 C 106.572 6.473 105.952 8.605 105.895 8.652 C 104.527 12.56 104.659 17.178 109.721 18.543 C 114.711 19.888 119.318 12.645 124.01 14.313 Z "/>
        </g>
        <path id="Shape" fill="#BE8264" stroke="none" stroke-width="1" d="M 100.928 30.404 C 100.928 30.404 101.288 30.404 101.979 30.164 C 101.439 30.043 101.078 30.104 100.928 30.404 Z "/>
        <path id="Shape" fill="#BE8264" stroke="none" stroke-width="1" d="M 39.413 98.681 L 33.205 93.896 C 32.491 94.844 22.708 104.142 14.65 110.371 C 10.862 113.303 5.795 115.686 5.279 115.961 C 3.877 116.766 2.413 117.456 0.9 118.026 C 0.646 118.134 0.4 118.257 0.161 118.395 C 0.634 118.395 2.528 117.623 2.855 118.267 C 3.182 118.912 0.54 119.428 0.17 119.584 L 0.213 119.693 L 2.661 119.475 C 2.931 119.613 3.111 119.764 3.03 120.119 C 2.348 120.541 1.51 120.413 0.705 120.641 C 0.81 120.731 0.866 120.802 0.938 120.825 C 2.14 121.242 3.344 121.654 4.55 122.062 C 4.729 122.114 4.911 122.156 5.095 122.185 C 6.624 122.516 8.13 122.261 9.607 121.919 C 16.434 120.597 22.858 117.697 28.366 113.45 C 40.275 104.237 38.352 99.311 39.413 98.681 Z "/>
        <g id="Torso">
          <path id="Shape" fill="#BE0A3C" stroke="none" stroke-width="1" d="M 41.397 79.776 C 41.397 79.776 34.384 86.933 31.17 91.921 L 37.708 96.8 L 41.397 79.776 Z "/>
          <path id="Shape" fill="#F01446" stroke="none" stroke-width="1" d="M 68.542 76.143 C 68.542 76.432 48.045 75.281 45.601 76.441 C 43.969 77.217 42.532 78.35 41.397 79.757 C 40.999 80.231 36.491 92.57 36.491 92.57 C 36.491 92.57 36.132 96.899 36.458 97.179 L 56.615 106.653 L 72.505 99.026 L 79.853 83.006 C 79.853 83.006 69.323 76.162 68.542 76.143 Z "/>
          <path id="Shape" fill="#6E1E3C" stroke="none" stroke-width="1" d="M 69.418 76.256 C 66.051 73.864 61.307 72.633 56.634 72.699 C 52.126 72.765 47.685 74.039 44.621 76.649 C 44.55 77.559 40.44 103.337 40.36 104.199 L 75.956 104.483 C 75.923 104 71.771 78.625 69.418 76.256 Z "/>
        </g>
        <path id="Shape" fill="#008264" stroke="none" stroke-width="1" d="M 92.571 95.758 L 90.099 84.058 C 87.5 83.584 83.565 87.085 81.657 88.529 C 80.133 89.681 72.907 94.687 67.135 98.581 C 64.295 100.499 57.159 101.068 54.219 99.955 C 46.709 97.113 44.777 94.223 43.191 92.48 C 35.313 83.816 27.732 84.816 27.732 84.816 L 25.464 107.221 C 25.464 107.221 29.905 119.944 58.163 119.944 C 86.42 119.944 88.646 108.817 90.057 107.425 C 93.277 104.237 89.65 99.192 92.571 95.758 Z "/>
        <g id="Left-Leg">
          <path id="Shape" fill="#00A08C" stroke="none" stroke-width="1" d="M 27.732 84.816 C 27.443 85.057 24.891 85.162 22.562 89.079 C 20.232 92.996 19.598 97.079 20.838 106.046 L 33.177 105.573 C 33.177 105.573 27.822 85.313 27.732 84.816 Z "/>
          <path id="Shape" fill="#F01446" stroke="none" stroke-width="1" d="M 35.791 119.276 C 35.08 116.766 34.47 114.293 33.859 111.745 C 33.679 110.977 32.983 109.187 32.547 107.562 L 21.027 107.562 C 21.894 111.948 22.855 116.169 24.678 120.352 C 25.762 122.838 26.875 125.306 28.163 127.694 C 29.181 129.588 31.297 132.023 31.757 134.074 C 31.468 134.074 28.916 134.254 28.916 134.254 L 28.849 134.941 C 28.849 134.941 38.291 135.623 39.403 134.633 C 39.304 133.771 39.015 132.928 38.868 132.066 C 38.071 127.751 37.043 123.482 35.791 119.276 Z "/>
          <path id="Shape" fill="#6E1E3C" stroke="none" stroke-width="1" d="M 36.16 115.668 L 35.62 112.664 L 20.881 112.664 L 21.349 115.668 L 36.16 115.668 "/>
          <path id="Shape" fill="#6E1E3C" stroke="none" stroke-width="1" d="M 37.259 119.704 L 36.719 116.699 L 21.979 116.699 L 22.453 119.704 L 37.259 119.704 "/>
          <path id="Shape" fill="#6E1E3C" stroke="none" stroke-width="1" d="M 20.232 110.954 L 35.08 110.575 L 33.693 104.417 L 18.958 104.417 L 20.232 110.954 "/>
        </g>
        <g id="Right-Leg">
          <path id="Shape" fill="#00A08C" stroke="none" stroke-width="1" d="M 99.697 94.593 C 98.849 89.117 95.819 84.986 90.099 84.058 C 88.854 88.762 84.2 105.961 83.821 109.741 L 98.371 108.652 C 99.323 104.199 100.402 99.135 99.697 94.593 Z "/>
          <path id="Shape" fill="#F01446" stroke="none" stroke-width="1" d="M 84.048 106.132 L 83.778 106.776 C 81.506 116.207 79.181 125.752 76.018 134.889 C 78.068 134.889 79.366 135.064 80.966 134.889 C 81.97 134.785 83.31 134.889 84.474 134.733 C 84.474 134.472 84.541 134.212 84.583 133.951 L 82.15 133.951 C 83.149 131.914 85.805 130.119 87.192 128.267 C 89.039 125.799 90.824 123.236 92.514 120.645 C 95.388 116.245 97.249 111.247 98.603 106.113 L 84.048 106.132 Z "/>
          <path id="Shape" fill="#6E1E3C" stroke="none" stroke-width="1" d="M 80.478 115.668 L 81.098 112.664 L 97.898 112.664 L 97.367 115.668 L 80.478 115.668 "/>
          <path id="Shape" fill="#6E1E3C" stroke="none" stroke-width="1" d="M 79.228 119.704 L 79.844 116.699 L 96.648 116.699 L 96.113 119.704 L 79.228 119.704 "/>
          <path id="Shape" fill="#6E1E3C" stroke="none" stroke-width="1" d="M 98.92 110.954 L 82.154 110.575 L 83.717 104.417 L 100.355 104.417 L 98.92 110.954 "/>
        </g>
      </g>
    </g>
  </g>
</svg>