<svg version="1.1" xmlns="http://www.w3.org/2000/svg" xmlns:xlink="http://www.w3.org/1999/xlink" width="102.33619" height="137.63033" viewBox="0,0,102.33619,137.63033"><g transform="translate(-189.46093,-111.03236)"><g data-paper-data="{&quot;isPaintingLayer&quot;:true}" fill="none" fill-rule="none" stroke="none" stroke-width="1" stroke-linecap="butt" stroke-linejoin="miter" stroke-miterlimit="10" stroke-dasharray="" stroke-dashoffset="0" font-family="none" font-weight="none" font-size="none" text-anchor="none" style="mix-blend-mode: normal"><g id="Group-2"><path d="M245.607,141.3l15.153,2.4l13.974,5.1l11.477,10.3l3.593,8.3v9.3l-3.593,11.7l-8.783,8.6l-11.078,5.4l-9.502,1.3l-18.743,-0.8l-8.384,-2.5l-9.781,-3.9l-6.587,-4.8l-5.59,-6.9l-2.096,-8.1l0.5,-8.6l4.192,-9.2l5.589,-7.4l9.082,-6.6l7.785,-2.6l12.792,-1" id="Shape" fill="#ffffff" fill-rule="evenodd"/><path d="M282.917,162.8l2.995,14.7l-1.198,5.9l-1.597,1.3l-3.693,-1.701l-4.091,-4.999l-1.298,8.4l-3.593,7.3l-6.887,5.7l-1.896,2.6l1.796,1.2l-0.599,6.799l1.298,1.5l3.793,5.7l3.094,3.201l4.89,7.899l0.798,3l-1.098,3.401l-3.194,1.699h-4.99l-3.493,-0.999l-7.107,-7.101l-3.631,-4.399l-1.039,3.3l-0.898,13.2l-2.695,4.6l-5.789,2.3c0,0 -3.193,-0.701 -3.593,-1.1c-0.399,-0.4 -2.794,-3.3 -2.794,-3.3l-0.471,-5.1v-7.101l1.07,-5.4l-7.286,0.6l-5.09,0.701l1.896,3l1.797,4.8l0.199,3.6l-1.796,2.1l-4.392,0.799l-5.888,-2.599l-3.992,-4.8l-2.895,-5.9l-1.497,2l-3.892,8.1l-4.192,3.6l-3.693,0.7l-3.892,-1.9c0,0 -1.497,-3.701 -1.597,-4.001c-0.1,-0.3 0,-3.099 0,-3.099l2.395,-5.001l1.896,-4.099l0.699,-4.5l0.898,-6.701l1.896,-4.899l-1.597,-1.8l-4.092,-4.701l-2.095,-5.799v-4.9l1.297,-4.1l2.595,-2.281h2.789l1.902,1.081l-1.902,5.3c0,0 0.105,4.8 0.005,5.1c-0.1,0.3 1.298,3.2 1.298,3.2l4.192,3l4.69,-2.1l2.096,0.7l4.192,1.8l13.773,1.401l9.382,-0.401l4.692,-1.2l-5.789,-4l-4.592,-4.2l-4.89,-7.9l-0.4,-4.4l-8.982,6.3l-1.996,-1.7l-1.198,-4.6v-11.964l1.198,-4.036l3.293,-2.35l15.071,1.75l7.116,-3l7.107,-0.5h7.735l7.885,3.499l8.084,-1.999l9.681,-1.5z" id="Shape" fill="#fcb322" fill-rule="evenodd"/><path d="M229.222,192.1l8.084,6.7l4.292,3.999l-6.388,0.582l-2.495,1.019c0,0 -1.198,9.499 -1.298,9.799c-0.1,0.3 1.198,7.2 1.198,7.2l2.595,4.401l-10.679,0.5l-4.491,-6.6l-0.899,-5l0.3,-4.8l1.297,-4l0.699,-2.2l-9.082,-1.4l-4.292,-2.9l-1.497,-3v-3c0,0 1.05,-3.448 3.193,-3.9c2.144,-0.452 17.766,0.9 17.766,0.9z" id="Shape" fill="#71cbd2" fill-rule="evenodd"/><path d="M244.255,112.2l4.329,0.5l2.795,2.7l1.837,4.2l-1.538,4.2l-4.718,3.3l-5.761,0.6l-4.292,-3l-0.898,-5l1.197,-3.9l3.423,-3l3.626,-0.6" id="Shape" fill="#ef463c" fill-rule="evenodd"/><path d="M264.608,204.104c-0.113,2.021 -0.238,3.775 -0.292,5.531c-0.015,0.471 0.04,1.063 0.309,1.408c2.715,3.488 5.495,6.924 8.227,10.398c1.595,2.029 3.12,4.11 3.981,6.591c0.364,1.05 0.966,2.06 1.112,3.135c0.363,2.697 -1.355,4.437 -3.207,5.969c-1.706,1.412 -3.855,1.368 -5.851,1.084c-1.921,-0.273 -3.967,-0.522 -5.511,-1.968c-2.233,-2.088 -4.9,-3.707 -6.512,-6.472c-0.839,-1.44 -2.077,-2.647 -3.134,-3.959c-0.133,0.003 -0.265,0.006 -0.398,0.01c-0.058,1.154 -0.158,2.309 -0.166,3.463c-0.016,2.295 0.329,4.642 -0.035,6.876c-0.7,4.303 -1.381,8.775 -5.826,11.154c-3.08,1.648 -6.191,1.946 -9.252,-0.082c-2.322,-1.537 -3.332,-3.885 -3.459,-6.502c-0.135,-2.775 0.016,-5.578 0.255,-8.35c0.148,-1.707 0.694,-3.379 1.145,-5.448c-1.915,0.094 -3.831,0.153 -5.745,0.273c-1.487,0.093 -2.985,-0.359 -4.461,-0.183c2.719,4.137 6.528,9.75 1.797,14.091c-0.629,0.578 -1.603,0.952 -2.468,1.071c-4.143,0.573 -7.71,-0.524 -10.388,-3.927c-0.744,-0.945 -1.605,-1.806 -2.279,-2.798c-0.961,-1.413 -1.797,-2.911 -2.775,-4.517c-0.333,0.52 -0.731,1.049 -1.034,1.629c-1.944,3.707 -4.125,7.231 -7.662,9.654c-3.395,2.326 -8.735,1.373 -10.621,-2.975c-1.334,-3.077 -1.216,-6.188 0.595,-9.178c0.948,-1.565 1.649,-3.28 2.463,-4.925c1.253,-2.532 1.345,-5.268 1.365,-8.006c0.021,-2.85 0.969,-5.413 2.299,-7.869c0.158,-0.292 0.422,-0.528 0.535,-0.665c-1.012,-1.031 -2.104,-1.997 -3.015,-3.113c-1.031,-1.263 -2.102,-2.562 -2.797,-4.019c-1.323,-2.774 -2.423,-5.761 -2.189,-8.836c0.253,-3.303 1.257,-6.505 3.68,-9.032c1.036,-1.08 4.036,-1.435 5.622,-0.291c1.268,0.915 1.582,2.599 0.885,4.48c-0.567,1.527 -1.152,3.071 -1.479,4.66c-0.684,3.318 1.338,6.905 4.478,8.113c0.355,0.137 0.888,-0.02 1.274,-0.19c0.383,-0.168 0.658,-0.567 1.025,-0.792c1.468,-0.903 1.435,-0.874 0.691,-2.547c-0.865,-1.944 -0.708,-3.531 0.306,-5.355c0.205,-0.369 2.859,-3.46 3.356,-2.839c-2.137,-2.668 -3.616,-5.116 -4.352,-8.52c-0.575,-2.657 -0.545,-5.587 -0.623,-8.3c-0.082,-2.853 1.105,-5.636 2.076,-8.259c0.756,-2.046 1.755,-3.997 2.872,-5.867c3.579,-5.998 8.613,-10.488 14.693,-13.792c3.218,-1.748 6.692,-2.708 10.403,-2.913c3.927,-0.218 7.841,-0.693 11.964,-1.074c-0.149,-0.982 -0.374,-2.198 -0.509,-3.423c-0.245,-2.228 -0.455,-4.458 -0.64,-6.691c-0.069,-0.837 -0.511,-0.935 -1.234,-0.925c-5.097,0.069 -8.132,-2.451 -8.923,-7.596c-0.405,-2.632 0.485,-5.573 2.25,-7.57c3.813,-4.318 12.197,-3.787 14.907,1.483c1.55,3.014 1.859,6.229 0.391,9.374c-0.674,1.443 -2.019,2.346 -3.566,2.827c-1.255,0.39 -1.823,0.231 -1.774,1.692c0.05,1.44 0.658,2.816 0.8,4.246c0.113,1.141 0.139,2.327 0.287,3.458c0.11,0.845 -0.05,1.795 0.237,2.61c0.39,1.114 0.936,0.944 1.994,0.996c2.304,0.116 4.563,0.64 6.838,0.984c4.155,0.627 8.314,2.141 12.322,3.387c1.2,0.374 2.3,1.246 3.454,1.79c1.326,0.626 2.684,1.199 3.911,2.013c1.609,1.066 2.794,2.465 4.196,3.722c6.472,5.801 11.439,13.918 10.173,22.915c-0.451,3.205 -0.943,6.462 -2.209,9.463c-1.238,2.938 -2.845,5.277 -4.859,7.737c-3.267,3.99 -8.068,7.304 -12.763,9.396c-2.111,0.941 -4.469,1.322 -6.718,1.952c-0.245,0.067 -0.487,0.147 -0.442,0.133zM219.526,188.918c-3.2,1.071 -3.963,-0.177 -5.251,-2.351c-0.701,-1.183 -0.985,-2.709 -1.123,-4.113c-0.545,-5.504 -0.172,-11.002 0.645,-16.45c0.185,-1.232 1.105,-2.431 1.927,-3.451c0.322,-0.399 1.305,-0.354 1.988,-0.357c2.356,-0.009 4.715,-0.014 7.067,0.106c1.336,0.069 2.677,0.251 3.991,0.5c1.161,0.219 2.564,0.045 3.652,0.478c0.827,0.33 0.857,1.118 1.766,0.742c0.755,-0.311 1.53,-1.324 2.272,-1.772c1.682,-1.017 3.578,-1.634 5.501,-1.992c3.685,-0.687 8.179,-0.67 11.899,-0.185c3.094,0.402 6.39,1.515 9.064,3.182c0.446,0.277 1.098,0.6 1.526,0.472c3.138,-0.945 6.206,-2.146 9.373,-2.967c2.047,-0.53 4.271,-0.949 6.331,-0.706c2.669,0.313 3.948,2.503 4.4,5.037c0.656,3.674 1.081,7.394 1.858,11.04c0.512,2.403 0.137,4.686 -0.26,6.989c-0.303,1.754 -1.361,2.591 -3.094,2.444c-1.036,-0.088 -2.196,-0.343 -3.022,-0.923c-1.558,-1.096 -2.915,-2.481 -4.248,-3.65c-0.271,1.805 -0.451,3.819 -0.906,5.769c-0.385,1.651 -0.776,3.45 -1.724,4.785c-1.568,2.212 -3.123,4.504 -5.376,6.171c-1.899,1.405 -3.706,2.936 -5.695,4.522c1.607,-0.285 3.151,-0.363 4.554,-0.849c2.317,-0.802 4.602,-1.752 6.788,-2.86c1.599,-0.811 3.064,-1.914 4.505,-2.997c2.355,-1.77 4.477,-3.675 6.101,-6.169c1.472,-2.26 3.198,-4.691 4.123,-7.237c0.935,-2.572 1.129,-5.347 1.023,-8.063c-0.114,-2.899 -0.837,-5.789 -1.444,-8.65c-0.95,-4.48 -3.518,-8.005 -7.038,-10.777c-1.335,-1.052 -2.526,-2.588 -3.967,-3.449c-0.956,-0.572 -2.092,-1.067 -3.102,-1.571c-2.182,-1.089 -4.349,-2.42 -6.657,-3.25c-2.318,-0.833 -4.769,-1.486 -7.159,-1.989c-2.782,-0.585 -5.21,-1.278 -8.058,-1.278c-5.49,0 -10.89,0.032 -16.36,0.261c-3.549,0.149 -6.912,1.083 -10.049,2.638c-5.421,2.685 -9.896,6.545 -13.115,11.716c-1.112,1.786 -1.889,3.756 -3.016,5.514c-2.866,4.471 -3.234,11.283 -2.068,16.396c1.058,4.642 3.699,8.419 7.34,11.512c1.276,1.085 2.495,2.193 3.989,3.009c1.888,1.033 3.573,2.488 5.53,3.335c2.829,1.225 5.804,1.946 8.72,2.915c2.183,0.724 3.856,1.693 6.232,1.128c-1.077,-0.436 -2.156,-0.94 -3.124,-1.544c-1.558,-0.971 -2.961,-2.178 -4.219,-3.511c-1.097,-1.161 -2.415,-2.358 -3.301,-3.672c-0.209,-0.311 -0.367,-1.087 -0.592,-1.277c-0.529,-0.448 -1.59,-0.142 -2.32,-0.118c-1.161,0.039 -2.117,-0.093 -3.227,-0.319c-0.664,-0.136 -2.65,0.081 -2.952,-0.759c-0.132,-0.367 0.172,-0.892 0.302,-1.405zM227.495,183.892c0.207,0.929 0.592,1.831 0.855,2.761c0.354,1.249 0.641,2.454 1.371,3.549c1.639,2.457 3.654,4.596 5.987,6.435c2.907,2.291 6.332,3.945 9.97,4.858c2.174,0.545 4.315,1.262 6.685,1.039c5.948,-0.563 10.857,-3.048 15.016,-7.292c3.018,-3.08 5.422,-6.457 5.895,-10.854c0.307,-2.848 0.717,-5.862 -0.788,-8.437c-1.3,-2.223 -3.105,-4.168 -4.805,-6.133c-0.927,-1.072 -2.006,-2.071 -3.182,-2.854c-3.783,-2.517 -8.535,-4.459 -13.087,-4.669c-3.506,-0.162 -7.087,-0.305 -10.485,0.652c-1.167,0.329 -2.421,0.702 -3.445,1.35c-2.048,1.295 -4.5,2.687 -5.708,4.878c-1.537,2.789 -3.036,5.677 -3.744,8.808c-0.308,1.362 -0.481,2.82 -0.646,4.199c-0.071,0.587 -0.012,1.154 0.111,1.71zM239.085,223.56c0.454,0.962 -0.361,1.964 -0.736,2.761c-0.664,1.408 -0.918,3.197 -1.207,4.719c-0.65,3.423 -0.808,6.942 -0.227,10.387c0.07,0.413 0.251,0.817 0.438,1.196c1.297,2.626 3.275,3.78 6.303,3.365c3.476,-0.475 6.079,-2.614 6.663,-6.11c0.391,-2.346 0.591,-4.726 0.827,-7.095c0.084,-0.851 0.213,-1.769 -0.011,-2.562c-0.515,-1.821 0.054,-3.529 0.293,-5.271c0.047,-0.347 0.348,-0.73 0.64,-0.959c1.42,-1.112 2.89,-2.161 4.318,-3.265c2.311,-1.787 4.042,-4.023 4.909,-6.837c0.431,-1.402 0.791,-2.846 0.979,-4.297c0.214,-1.648 0.2,-3.325 0.287,-5.002c-4.564,0.192 -8.821,0.372 -13.077,0.552c-3.508,0.149 -7.02,-0.405 -10.533,0.151c-1.185,0.187 -2.432,-0.049 -3.645,0.015c-2.031,0.109 -2.305,1.636 -2.65,3.427c-0.427,2.214 -0.418,4.768 -0.174,7.003c0.264,2.42 0.642,4.914 1.91,7.038c0.526,0.88 1.19,1.842 2.319,1.382c0.704,-0.287 1.455,-1.98 2.251,-0.811c0.049,0.071 0.089,0.142 0.123,0.213zM209.531,226.401c-1.295,-0.326 -2.429,-0.591 -3.552,-0.899c-0.777,-0.214 -1.223,-0.744 -0.972,-1.561c0.247,-0.802 0.892,-0.988 1.668,-0.77c1.378,0.387 2.745,0.821 4.138,1.144c3.768,0.875 7.576,1.425 11.693,1.38c-2.643,-3.141 -4.164,-6.587 -4.374,-10.419c-0.205,-3.725 -0.139,-7.507 2.337,-10.827c-1.698,-0.178 -3.155,-0.408 -4.618,-0.468c-2.735,-0.113 -5.131,-1.042 -7.302,-2.68c-0.307,-0.232 -0.922,-0.389 -1.22,-0.238c-1.51,0.763 -3.277,1.349 -4.371,2.536c-2.515,2.728 -4.483,5.915 -5.197,9.638c-0.413,2.152 -0.352,4.39 -0.662,6.566c-0.395,2.768 -1.03,5.438 -2.692,7.838c-1.351,1.952 -2.352,4.169 -2.539,6.615c-0.2,2.605 0.535,4.836 2.975,6.141c1.818,0.972 3.793,1.032 5.407,-0.255c1.602,-1.278 3.205,-2.733 4.29,-4.439c1.842,-2.895 3.276,-6.049 4.991,-9.302zM255.215,224.171c1.465,2.009 2.694,3.831 4.063,5.541c3.181,3.975 6.995,6.687 12.448,6.008c1.939,-0.241 3.136,-1.466 3.931,-3.028c0.646,-1.269 0.279,-2.751 -0.341,-3.949c-0.679,-1.314 -1.323,-2.988 -2.293,-4.107c-1.434,-1.654 -3.073,-3.185 -4.32,-5.034c-0.511,-0.757 -1.33,-1.298 -1.927,-2.006c-1.093,-1.295 -2.127,-2.641 -3.367,-4.194c-1.26,4.75 -4.084,8.099 -8.194,10.769zM231.434,165.782c-0.529,-0.168 -0.934,-0.379 -1.354,-0.415c-3.771,-0.324 -7.541,-0.674 -11.318,-0.896c-1.862,-0.11 -2.656,0.606 -2.979,2.514c-1.006,5.934 -1.251,11.877 -0.045,17.823c0.42,2.069 1.328,2.587 3.223,1.554c2.934,-1.599 4.981,-4.128 6.654,-6.955c0.448,-0.756 0.622,-1.677 0.904,-2.528c0.823,-2.484 1.518,-5.019 2.502,-7.437c0.524,-1.286 1.542,-2.371 2.413,-3.66zM266.951,165.446c1.331,1.484 2.548,2.709 3.611,4.055c1.576,1.998 3.035,4.088 4.559,6.128c1.621,2.17 3.218,4.36 4.921,6.463c0.401,0.495 1.166,0.714 1.79,1.002c1.081,0.495 1.779,0.022 2.101,-1.014c0.661,-2.127 0.997,-4.283 0.352,-6.489c-0.096,-0.329 -0.123,-0.678 -0.185,-1.016c-0.598,-3.273 -1.218,-6.543 -1.786,-9.822c-0.336,-1.942 -1.709,-2.583 -3.64,-2.311c-1.961,0.276 -3.918,0.659 -5.835,1.154c-1.954,0.505 -3.857,1.204 -5.888,1.85zM222.536,239.675c0.261,0.013 0.525,0.063 0.781,0.036c1.617,-0.176 3.424,-0.363 4.108,-2.005c0.632,-1.518 0.686,-3.315 -0.347,-4.809c-1.158,-1.676 -2.437,-3.269 -3.695,-4.874c-0.122,-0.154 -0.467,-0.165 -0.713,-0.186c-3.301,-0.271 -6.606,-0.492 -9.902,-0.821c-1.054,-0.106 -1.662,0.352 -1.704,1.235c-0.038,0.785 0.166,1.716 0.595,2.362c1.321,1.986 2.703,3.949 4.244,5.765c1.705,2.008 3.88,3.297 6.633,3.297zM243.798,126.79c-0.305,-1.622 -0.037,-1.868 1.51,-1.493c1.865,0.453 4.49,-0.203 5.087,-1.446c0.802,-1.671 1.561,-3.411 0.87,-5.347c-0.348,-0.975 -0.487,-2.156 -1.133,-2.868c-3.116,-3.437 -9.45,-2.768 -11.675,1.144c-1.328,2.336 -1.696,4.551 -0.501,7.035c1.194,2.484 3.298,2.995 5.842,2.975zM232.255,202.948c0.011,-0.141 0.021,-0.284 0.032,-0.425c0.008,-0.11 -5.496,-1.821 -6.019,-2.022c-2.082,-0.802 -4.125,-1.713 -6.089,-2.773c-1.968,-1.062 -3.857,-2.272 -5.621,-3.648c-0.801,-0.626 -1.476,-1.269 -2.151,-2.013c-0.374,-0.413 -1.248,-1.653 -1.852,-1.679c-0.708,-0.03 -2.014,1.316 -2.372,1.842c-0.527,0.777 -0.666,1.957 -0.742,2.885c-0.195,2.386 2.933,5.922 5.695,6.253c1.851,0.222 3.707,0.407 5.564,0.576c1.554,0.143 3.111,0.239 4.668,0.353c2.962,0.217 5.925,0.434 8.887,0.651zM201.492,202.145c-0.134,-0.104 -0.237,-0.175 -0.331,-0.259c-1.344,-1.187 -3.157,-2.131 -3.927,-3.617c-1.398,-2.699 -1.819,-5.743 -0.674,-8.773c0.377,-0.997 0.79,-1.983 1.115,-2.997c0.363,-1.135 0.002,-1.647 -1.188,-1.614c-0.537,0.015 -1.174,0.174 -1.583,0.498c-2.468,1.959 -3.401,4.692 -3.212,7.694c0.118,1.865 0.651,3.761 1.317,5.521c1.138,3.004 2.526,5.914 5.842,7.165c0.862,-1.179 1.72,-2.355 2.641,-3.618zM231.724,205.145c-2.841,-0.223 -5.685,-0.447 -8.529,-0.664c-0.168,-0.012 -0.431,-0.024 -0.498,0.071c-0.894,1.278 -2.01,2.461 -2.015,4.319c3.224,-0.224 6.354,-0.418 9.479,-0.689c0.347,-0.03 0.81,-0.425 0.953,-0.764c0.293,-0.699 0.407,-1.473 0.61,-2.273zM221.678,220.615c1.204,1.808 2.141,3.261 3.14,4.668c0.148,0.207 0.595,0.297 0.897,0.282c2.25,-0.11 4.499,-0.258 6.748,-0.402c0.062,-0.004 0.118,-0.102 0.215,-0.191c-0.396,-0.937 -0.746,-1.914 -1.226,-2.823c-0.187,-0.351 -0.645,-0.733 -1.018,-0.778c-1.877,-0.229 -3.767,-0.352 -5.653,-0.509c-0.928,-0.077 -1.857,-0.148 -3.103,-0.247zM230.784,219.176c-0.143,-1.105 -0.204,-1.92 -0.376,-2.71c-0.059,-0.271 -0.378,-0.671 -0.606,-0.69c-3.197,-0.275 -6.399,-0.494 -9.876,-0.746c0.221,0.981 0.399,1.549 0.469,2.13c0.131,1.091 0.63,1.52 1.792,1.546c2.783,0.061 5.562,0.292 8.597,0.47zM230.417,213.295c0,-0.685 -0.088,-1.262 0.018,-1.8c0.188,-0.955 -0.014,-1.165 -1.052,-1.094c-2.147,0.146 -4.316,0.142 -6.467,0.029c-2.375,-0.126 -3.027,0.487 -2.596,3.182c1.569,0 3.194,0.039 4.817,-0.011c1.683,-0.053 3.364,-0.191 5.28,-0.306zM220.169,188.957c2.18,0.133 4.1,0.249 6.096,0.369c-0.257,-1.861 -0.489,-3.547 -0.712,-5.163c-1.738,1.548 -3.474,3.094 -5.384,4.794z" id="Shape" fill="#2a3d98" fill-rule="nonzero"/></g><g id="Group" fill="#2a3d98" fill-rule="evenodd"><path d="M251.332,177.29c-1.388,0.602 -2.172,0.552 -2.651,-0.644c-0.396,-0.987 -0.03,-1.442 0.861,-1.555c1.529,-0.192 3.073,-0.416 4.602,-0.364c0.629,0.021 1.356,0.624 1.785,1.165c0.153,0.194 -0.333,1.098 -0.727,1.459c-0.281,0.257 -0.898,0.147 -1.609,0.229c0.535,0.586 0.905,1.276 1.477,1.564c1.375,0.69 2.808,1.326 4.287,1.737c2.104,0.586 4.104,-1.504 4.599,-3.588c0.169,-0.711 0.147,-1.675 1.301,-1.479c0.759,0.128 1.807,2.017 1.418,2.617c-1.235,1.909 -2.292,3.922 -4.793,4.665c-2.269,0.673 -4.15,-0.014 -6.048,-0.997c-0.686,-0.356 -1.303,-0.847 -2.048,-1.34c-1.264,1.922 -3.072,2.896 -5.196,3.323c-2.036,0.409 -3.928,-0.15 -5.726,-1.03c-1.011,-0.494 -3.925,-2.726 -3.022,-4.128c0.898,-1.393 2.63,1.314 3.267,1.783c1.158,0.852 2.612,1.125 4.021,1.163c1.601,0.042 3.115,-0.611 3.983,-2.017c0.365,-0.592 0.153,-1.54 0.219,-2.563z" id="Shape"/><path d="M257.679,169.367c0.454,-0.304 1.011,-0.222 1.462,0.631c1.366,2.581 -2.298,3.517 -2.293,1.142c0.001,-0.72 0.358,-1.456 0.831,-1.773z" id="Shape"/><path d="M245.23,172.843c-1.489,-0.341 -1.139,-2.743 0.143,-3.148c1.659,-0.524 2.327,2.566 0.466,3.115c-0.227,0.067 -0.429,0.074 -0.609,0.033z" id="Shape"/></g></g></g></svg>