<svg xmlns="http://www.w3.org/2000/svg" xmlns:xlink="http://www.w3.org/1999/xlink" version="1.1" width="182.34109497070312" height="35.802696228027344" viewBox="0.02463322877883911 0.3626708984375 182.34109497070312 35.802696228027344">
  <!-- Exported by Scratch - http://scratch.mit.edu/ -->
  <g id="ID0.22178661404177547">
    <path id="ID0.942875714506954" fill="#E3DEEE" d="M 0.606 17.1947 C -0.6114 23.7796 11.7837 31.9692 41.056 33.4079 C 66.5656 34.6806 115.5372 36.5067 135.4026 35.234 C 155.2679 33.9612 185.2596 30.8625 181.5521 17.6927 C 179.3387 9.9458 161.8528 10.7758 151.9478 13.2105 C 141.1021 15.8666 134.7939 18.1907 134.3512 17.8034 C 133.7979 17.3054 134.2959 13.0445 124.6122 14.5939 C 114.1539 16.254 98.66 22.9495 95.3399 24.2223 C 78.9053 16.4753 54.6132 -3.4454 42.4394 1.7008 C 34.4712 5.0763 38.566 15.8666 37.2932 16.6413 C 36.0205 17.416 25.1195 11.9932 15.8785 11.4952 C 8.3529 11.1078 1.3807 13.0445 0.606 17.1947 Z " stroke-width="0.5533520980311444"/>
    <path id="ID0.9047978580929339" fill="#FFFFFF" stroke="#E3DEEE" d="M 171.2045 28.2064 C 178.73 25.3843 182.0502 20.9575 180.8328 16.254 C 176.904 10.1118 161.1334 10.9971 151.8925 13.2659 C 141.0468 15.922 134.7386 18.246 134.2959 17.8587 C 133.7425 17.3607 134.2405 13.0999 124.5569 14.6493 C 114.0985 16.3093 98.6047 23.0049 95.2845 24.2776 C 106.5176 30.3091 113.4898 32.0245 124.7782 33.2972 C 139.9401 34.9019 162.8488 31.2498 171.2045 28.2064 Z " stroke-width="0.5533520980311444"/>
  </g>
</svg>