<svg version="1.1" xmlns="http://www.w3.org/2000/svg" xmlns:xlink="http://www.w3.org/1999/xlink" width="108.97655" height="264.60353"><g transform="translate(-199.51174,-47.94826)"><g data-paper-data="{&quot;isPaintingLayer&quot;:true}" fill="none" fill-rule="evenodd" stroke="none" stroke-width="none" stroke-linecap="none" stroke-linejoin="none" stroke-miterlimit="10" stroke-dasharray="" stroke-dashoffset="0" font-family="none" font-weight="none" font-size="none" text-anchor="none" style="mix-blend-mode: normal"><g id="Group-19" stroke="none" stroke-width="1" stroke-linecap="butt" stroke-linejoin="miter"><path d="M264.07695,107.31305c6.27319,1.37704 -12.28333,16.01208 -25.45942,16.01208c-13.17609,0 -29.80362,-15.45166 -23.47464,-16.57251c7.95507,-1.37704 21.03551,-6.76511 25.02101,-6.76511c5.35652,0 16.06957,5.60423 23.91304,7.32553z" id="Path" fill="#dbb297"/><path d="M247.17044,106.27227c0.3029,2.40181 -5.41232,4.4994 -7.80362,4.4994c-1.93696,-0.02402 -6.63986,-1.44909 -6.93478,-3.37855l0.55797,-16.07613h14.08478z" id="Path" fill="#dbb297"/><path d="M232.61537,100.41985l0.37464,-10.72009h14.12464v4.80363c-5.30072,0.68051 -11.78116,3.51465 -14.49928,5.91647z" id="Path" fill="#bf9682"/></g><g data-paper-data="{&quot;origPos&quot;:null}" stroke="none" stroke-width="1" stroke-linecap="butt" stroke-linejoin="miter"><path d="M262.47622,107.80142c0,0 5.2529,-2.20967 10.03551,2.7861l9.21449,40.4145c0.84697,2.87153 -0.59162,5.92343 -3.33986,7.08535c0,0 -5.42029,0.70453 -7.25362,-3.51465l-13.04058,-37.01994c-0.72855,-1.87551 -0.67424,-3.96671 0.15067,-5.80153c0.8249,-1.83481 2.35086,-3.25856 4.23339,-3.94983z" id="Path" fill="#dbb297"/><g id="Group-21"><path d="M278.34652,127.81653l-13.59855,13.61027l-10.52174,-27.45272c0,0 10.09928,-15.69184 18.05435,-4.68353z" id="Path" fill="#e38d6f"/><path d="M281.44703,132.12189l-17.48555,10.13965l-3.22826,-5.61608l17.48555,-10.13965z" id="Rectangle" fill="#d67858"/></g></g><g id="Group-17" stroke="none" stroke-width="1" stroke-linecap="butt" stroke-linejoin="miter"><path d="M212.87116,159.4404l-1.54638,-51.75906l17.71957,-6.30076l2.65435,-4.80363l8.12246,4.00302l8.58478,-4.00302l2.86159,4.80363l16.78696,4.2352l-0.92464,53.22417z" id="Path" fill="#ed9d80"/><path d="M244.57986,111.71638l-4.79855,-7.50166l-1.37899,57.33127l-1.49058,-0.07205l1.96884,-56.83489l-3.81014,7.07734l-6.02609,-10.3358l2.58261,-3.61873l8.1942,2.81813v0.04804l0.00797,-0.04804l8.1942,-2.81813l2.57464,3.61873z" id="Path" fill="#e38d6f"/><path d="M231.6987,96.57695l8.12246,4.00302l-6.36087,10.24773l-4.41594,-9.44713z" id="Path" fill="#d67858"/><path d="M245.85522,110.35535l-6.03406,-9.77538l8.58478,-4.00302l2.86159,4.80363z" id="Path" fill="#d67858"/></g><g id="Group-2" stroke="none" stroke-width="1" stroke-linecap="butt" stroke-linejoin="miter"><path d="M249.21899,119.77846l7.74783,-9.35906l3.30797,5.17991l3.02101,4.73958l-6.32101,-0.24819l-4.35217,-0.17613z" id="Path" fill="#c282ac"/><path d="M258.58492,112.94931l-5.67536,6.97326l-3.69058,-0.14411l7.74783,-9.35906z" id="Path" fill="#5297a1"/><path d="M263.29579,120.33888l-6.32101,-0.24819l3.3,-4.49139z" id="Path" fill="#c7c7c7"/><path d="M247.51319,119.75444l7.74783,-9.35106l3.3,5.17991l3.02101,4.73157l-6.32101,-0.24819l-4.35217,-0.17613z" id="Path" fill="#ffabe2"/><path d="M256.87116,112.9333l-5.67536,6.97326l-3.68261,-0.15211l7.74783,-9.35106z" id="Path" fill="#7be3f2"/><path d="M261.58202,120.31487l-6.32101,-0.24819l3.3,-4.48338z" id="Path" fill="#ffffff"/><path d="M247.19435,121.82801v-3.01027h16.09348v3.01027z" id="Rectangle" fill="#d67858"/></g><path d="M225.85595,244.00021c0,0 -12.91304,-1.07281 -12.91304,-6.14063l-4.4,-39.77402c0.96449,-9.68731 17.87899,-9.47915 17.87899,-9.47915c5.04565,0 14.97754,1.55317 14.97754,6.61299l-5.57971,42.64018c-1.17971,5.23595 -4.91812,6.14063 -9.96377,6.14063z" data-paper-data="{&quot;origPos&quot;:null}" id="Path" fill="#3f4058" stroke="none" stroke-width="1" stroke-linecap="butt" stroke-linejoin="miter"/><path d="M254.00957,232.08722l-17.75942,-36.3074c-1.96884,-4.67553 8.90362,-11.78489 13.55072,-13.73036c0,0 16.59565,-3.46662 21.13116,6.55695l5.97826,39.11752c1.94493,11.28051 -4.20072,12.4494 -4.20072,12.4494c-9.71667,3.82689 -16.76304,-3.40257 -18.7,-8.0861z" data-paper-data="{&quot;origPos&quot;:null}" id="Path" fill="#3f4058" stroke="none" stroke-width="1" stroke-linecap="butt" stroke-linejoin="miter"/><g id="Group-11" stroke="none" stroke-width="1" stroke-linecap="butt" stroke-linejoin="miter"><path d="M272.23131,197.29296c0.62174,4.41133 -26.0413,-2.40181 -31.88406,-2.47387c-6.09783,0 -25.77826,5.07583 -31.81232,3.26647c-0.28696,-13.7864 0.36667,-25.93958 3.92174,-36.55559c-0.24972,-1.48903 -0.1653,-3.01528 0.2471,-4.46737h54.8087c0.15145,1.329 0.45435,4.61148 0.45435,4.61148c1.27536,17.86949 3.07681,27.18051 4.26449,35.61888z" id="Path" fill="#3f4058"/><g id="Group" fill="#5f6085" opacity="0.64"><path d="M242.10087,185.65218v0.57646l-2.5587,-0.00002c-0.40516,0.00213 -0.79446,-0.15804 -1.0817,-0.44504c-0.28724,-0.287 -0.44874,-0.67717 -0.44873,-1.08412v-24.93882h0.40652l0.44638,24.73867c0,0.44216 0.35687,0.8006 0.7971,0.8006z" id="Path"/><path d="M242.10087,184.29916l-0.47029,-3.06631v-21.44819h0.47029z" id="Path"/></g><path d="M217.23928,161.32181v11.28051c0,5.06782 -1.72971,5.20393 -6.77536,5.20393h-1.21159c0.04783,-0.24018 0.08768,-0.48036 0.13551,-0.72054h0.43043c5.04565,0 6.78333,-0.1361 6.78333,-5.20393v-11.28852c0,-0.2642 0,-0.5364 0,-0.8006h0.54203c0.07662,0.5059 0.10863,1.0176 0.09565,1.52915z" id="Path" fill="#5f6085"/><path d="M269.60883,177.52604c-5.28478,-0.84864 -7.46087,-3.61873 -7.46087,-8.91873v-7.27749c0.00019,-0.51273 0.04554,-1.02445 0.13551,-1.52915h0.54203c-0.03986,0.25619 -0.03986,0.5284 -0.03986,0.8006v7.27749c0.04783,5.72432 2.60652,8.51042 6.71957,8.86269c0.05049,0.25915 0.0851,0.52118 0.10362,0.78459z" id="Path" fill="#5f6085"/></g><g id="Group-4"><path d="M268.78782,163.75565h-57.71014l0.48623,-4.59547h56.94493z" id="Path" fill="#64bcbd" stroke="#529c9c" stroke-width="0.8" stroke-linecap="round" stroke-linejoin="round"/><path d="M253.92189,159.35233c0.11552,-0.02493 0.23277,-0.04099 0.35072,-0.04804c1.18501,0.00647 2.15523,0.94819 2.20217,2.13749c0.04694,1.1893 -0.84602,2.20521 -2.0268,2.30586c-0.11677,0.00821 -0.23396,0.00821 -0.35072,0c0.88606,-0.3829 1.4466,-1.27353 1.41087,-2.24169c-0.03079,-0.97955 -0.66266,-1.83743 -1.58623,-2.15363z" id="Path" fill="#529c9c" stroke="none" stroke-width="1" stroke-linecap="butt" stroke-linejoin="miter"/></g><path d="M221.92624,72.19055c0.69243,-0.36819 1.50885,-0.42032 2.24212,-0.14317c0.73328,0.27714 1.31294,0.85693 1.59193,1.59227l1.05217,3.59471c0.51014,1.76133 0.43043,2.67402 -0.07174,3.07432c-1.21159,0.72054 -2.93333,0.06405 -3.83406,-1.44909l-1.53841,-2.59396c-0.90072,-1.52115 -0.64565,-3.35453 0.55797,-4.07508z" id="Path" fill="#bf9682" stroke="none" stroke-width="1" stroke-linecap="butt" stroke-linejoin="miter"/><path d="M259.15884,76.26562l-1.53043,2.59396c-0.90072,1.51314 -2.63043,2.16964 -3.83406,1.44909c-0.51014,-0.4003 -0.58188,-1.31299 -0.07971,-3.07432l1.0442,-3.59471c0.27899,-0.73534 0.85866,-1.31512 1.59193,-1.59227c0.73328,-0.27714 1.5497,-0.22501 2.24212,0.14317c1.21159,0.72054 1.49855,2.55393 0.56594,4.07508z" id="Path" fill="#bf9682" stroke="none" stroke-width="1" stroke-linecap="butt" stroke-linejoin="miter"/><path d="M241.35957,94.06305h-2.47101c-2.87754,0 -11.72536,-5.74033 -12.82536,-12.37734l-2.04855,-13.3861c0,-6.80514 9.12681,-12.37734 15.94203,-12.37734h0.41449c6.77536,0 15.90217,5.60423 15.90217,12.37734l-2.09638,13.3861c-1.09203,6.06057 -9.46159,12.37734 -12.81739,12.37734z" id="Path" fill="#dbb297" stroke="none" stroke-width="1" stroke-linecap="butt" stroke-linejoin="miter"/><path d="M237.07913,70.70943c0.0087,0.15294 -0.04358,0.30306 -0.14528,0.41723c-0.1017,0.11416 -0.24446,0.18297 -0.39675,0.19123l-5.93841,0.33625c-0.29185,-0.02005 -0.52197,-0.25737 -0.53423,-0.55093c-0.01226,-0.29355 0.19726,-0.5494 0.48641,-0.59394l5.96232,-0.60846c0.31087,-0.01601 0.56594,0.46435 0.56594,0.80861z" id="Path" fill="#211207" stroke="none" stroke-width="1" stroke-linecap="butt" stroke-linejoin="miter"/><path d="M249.88365,70.76211c0.08475,0.1995 0.05083,0.4299 -0.08779,0.59622c-0.13862,0.16632 -0.35846,0.24041 -0.5689,0.19173l-5.9942,-0.1361c-0.31218,-0.04926 -0.52598,-0.34273 -0.47826,-0.6565c0.04783,-0.31224 0.34275,-0.8006 0.65362,-0.75257l5.98623,0.40831c0.21547,0.01458 0.40455,0.14941 0.4893,0.34891z" id="Path" fill="#211207" stroke="none" stroke-width="1" stroke-linecap="butt" stroke-linejoin="miter"/><path d="M241.63856,82.52635l-1.09203,0.54441c-0.56439,0.27187 -1.22111,0.27187 -1.78551,0l-1.1,-0.54441" id="Path" fill="none" stroke="#b2836d" stroke-width="0.768" stroke-linecap="round" stroke-linejoin="round"/><g id="Group-3"><path d="M244.36464,85.57665c-0.35072,1.60121 -2.31957,3.22644 -4.7029,3.22644c-2.38333,0 -4.36014,-1.60121 -4.71884,-3.20242c-0.0558,-0.25619 0.11957,-0.50438 0.59783,-0.50438c2.69578,0.71538 5.53031,0.71538 8.22609,0c0.38261,0 0.65362,0.24018 0.59783,0.48036z" id="Path" fill="#5c463f" stroke="none" stroke-width="1" stroke-linecap="butt" stroke-linejoin="miter"/><path d="M235.08638,85.31245c0.13372,-0.09722 0.29788,-0.1427 0.46232,-0.1281c2.69716,0.70456 5.52892,0.70456 8.22609,0c0.16484,-0.00654 0.32639,0.04755 0.45435,0.15211c-0.47826,0.94471 -2.33551,1.84139 -4.56739,1.84139c-2.23986,0 -4.0971,-0.88867 -4.57536,-1.86541z" id="Path" fill="#dbdbdb" stroke="none" stroke-width="1" stroke-linecap="butt" stroke-linejoin="miter"/><path d="M244.36464,85.57665c-0.35072,1.60121 -2.31957,3.20242 -4.7029,3.25045c-2.38333,0.04804 -4.36014,-1.65725 -4.71884,-3.20242c0.00455,-0.14261 0.06465,-0.27774 0.16739,-0.37628c0.11477,-0.10381 0.26967,-0.15078 0.42246,-0.1281c1.33958,0.41467 2.72803,0.64889 4.12899,0.69653c1.39396,-0.05171 2.77468,-0.29137 4.10507,-0.71254c0.38261,-0.00801 0.65362,0.23218 0.59783,0.47236z" id="Path" fill="none" stroke="#b2836d" stroke-width="0.768" stroke-linecap="round" stroke-linejoin="round"/></g><g id="Group-14" stroke="none" stroke-width="1" stroke-linecap="butt" stroke-linejoin="miter"><path d="M236.6498,73.40295c0.0736,0.08778 0.10524,0.20353 0.08658,0.31675c-0.27867,1.44575 -1.53892,2.48999 -3.00507,2.48999c-1.46615,0 -2.7264,-1.04424 -3.00507,-2.48999c-0.02134,-0.1123 0.00821,-0.22832 0.08062,-0.31653c0.07242,-0.08821 0.18018,-0.13946 0.29401,-0.13981h5.2529c0.11426,0.0008 0.22243,0.05181 0.29603,0.13959z" id="Path" fill="#ffffff"/><path d="M232.21563,75.03836c-0.3132,-0.57728 -0.28518,-1.28074 0.07292,-1.83105h2.98913c0.18976,0.28989 0.28962,0.62981 0.28696,0.97674c0,0.98602 -0.79583,1.78535 -1.77754,1.78535c-0.65454,0.00393 -1.25827,-0.35375 -1.57147,-0.93103z" id="Path" fill="#4f5838"/></g><g id="Group-15" stroke="none" stroke-width="1" stroke-linecap="butt" stroke-linejoin="miter"><path d="M249.22806,73.29887c0.0736,0.08778 0.10524,0.20353 0.08658,0.31675c-0.27867,1.44575 -1.53892,2.48999 -3.00507,2.48999c-1.46615,0 -2.7264,-1.04424 -3.00507,-2.48999c-0.02134,-0.1123 0.00821,-0.22832 0.08062,-0.31653c0.07242,-0.08821 0.18018,-0.13946 0.29401,-0.13981h5.2529c0.11426,0.0008 0.22243,0.05181 0.29603,0.13959z" id="Path" fill="#ffffff"/><path d="M245.18811,75.4499c-0.34027,-0.33876 -0.53073,-0.80065 -0.52854,-1.28186c-0.00062,-0.34413 0.09914,-0.68091 0.28696,-0.96873h3.00507c0.36091,0.5482 0.39278,1.25122 0.08296,1.83009c-0.30982,0.57887 -0.91123,0.93997 -1.56556,0.94c-0.47906,0.00645 -0.9406,-0.18074 -1.28088,-0.5195z" id="Path" fill="#4f5838"/></g><path d="M250.56609,66.21003c0,0 -4.37609,-4.96375 -6.83913,-0.45634c0,0 -11.15942,-6.34879 -16.85072,3.3065l-1.45072,3.32251l0.11159,3.42659l0.04783,4.00302l-0.86087,-3.3065l-0.89275,-5.34003l-0.63768,-4.62749c0,0 -2.02464,-9.60725 8.64058,-14.3068c0,0 10.99203,-2.70604 11.89275,-4.28323c0,0 -0.58188,2.89018 3.98551,5.9565c0,0 1.85725,0.20015 2.31159,-1.12885c0,0 9.93188,6.21269 7.97101,15.01133c0,0 -3.01304,8.80665 -3.28406,10.55997c0,0 -0.41449,-8.3423 -0.86884,-9.72734c-0.01594,0 -0.47826,-3.85891 -3.27609,-2.40982z" id="Path" fill="#211207" stroke="none" stroke-width="1" stroke-linecap="butt" stroke-linejoin="miter"/><g stroke="none" stroke-width="1" stroke-linecap="butt" stroke-linejoin="miter"><path d="M218.56247,121.94009l-5.38043,35.22659c-1.29928,4.41934 -7.05435,3.77885 -7.05435,3.77885c-2.77391,-0.63248 -6.11377,-3.1864 -5.57971,-6.01254l4.54348,-35.80302c2.60652,-8.73459 9.11087,-7.43761 9.11087,-7.43761c4.17681,0.96873 5.48406,6.46888 4.36014,10.24773z" id="Path" fill="#dbb297"/><g id="Group-6"><path d="M205.71319,113.45369c1.76957,-3.80287 5.79493,-7.06133 9.27826,-6.23671c6.12971,1.51314 5.50797,14.72311 5.50797,14.72311l-2.59058,17.99758l-16.8029,-9.0068z" id="Path" fill="#e38d6f"/><path d="M218.04435,143.42831l-18.53261,-7.42961l1.18768,-6.50891l18.58043,7.45363z" id="Path" fill="#d67858"/></g></g><g fill="#dbb297" stroke="none" stroke-width="1" stroke-linecap="butt" stroke-linejoin="miter"><path d="M274.45666,145.55792l18.71594,-27.2926c0.8569,-1.37416 2.62904,-1.84367 4.04928,-1.07281c1.0442,0.56843 2.3913,2.40181 1.9529,3.53066l-13.20797,30.71118c-1.2913,2.49789 -5.07754,8.6065 -10.56957,6.04456c-2.59058,-1.20891 -1.99275,-9.23897 -0.94058,-11.921z" id="Path"/><g id="Group-20"><path d="M300.3784,113.93405l5.26087,-8.80665c0.14461,-0.2498 0.3828,-0.43104 0.66137,-0.50325c0.27857,-0.07221 0.57433,-0.02936 0.82124,0.11896c0.51068,0.3084 0.68093,0.97104 0.38261,1.48912l-4.62319,9.04683c-0.31884,0.52039 -1.4029,0.56042 -1.91304,0.25619c-0.57371,-0.30516 -0.82764,-0.99448 -0.58986,-1.60121z" id="Path"/><path d="M298.4813,111.25203l5.06957,-9.18293c0.31501,-0.5663 1.02085,-0.77899 1.5942,-0.48036c0.56383,0.3164 0.77558,1.02533 0.47826,1.60121l-4.49565,9.52719c-0.31884,0.57644 -1.49855,0.49637 -2.07246,0.18414c-0.60259,-0.30454 -0.85643,-1.03399 -0.57391,-1.64924z" id="Path"/><path d="M300.70521,118.1052l6.13768,-8.19018c0.27359,-0.40818 0.8201,-0.52505 1.23551,-0.2642c0.41295,0.26964 0.53368,0.82244 0.27101,1.24094l-5.57971,8.64653c-0.27104,0.41197 -0.8209,0.52955 -1.23551,0.2642c-0.41449,-0.27221 -1.12391,-1.28897 -0.82899,-1.69728z" id="Path"/><path d="M296.17151,111.04382c-0.0898,-0.25103 -0.0761,-0.52768 0.03805,-0.76853l4.39203,-8.53444c0.24605,-0.49545 0.84371,-0.69912 1.33913,-0.45634c0.48573,0.24985 0.68395,0.84355 0.44638,1.33701l-3.98551,8.75861c-0.2471,0.48837 -1.22754,0.47236 -1.71377,0.23218c-0.24066,-0.11281 -0.42652,-0.31745 -0.51631,-0.56848z" id="Path"/><path d="M292.55087,106.1842c0.7971,-0.16813 2.00072,1.20091 2.20797,2.24169l1.87319,9.44713c-0.38363,0.95965 -1.37294,1.52934 -2.3913,1.37704c-0.44638,-0.24018 -1.79348,-0.68051 -1.96087,-3.12236l0.22319,-6.91722c0.28033,-0.85352 0.19067,-1.78607 -0.2471,-2.56994c-0.11957,-0.17613 0.09565,-0.40831 0.29493,-0.45634z" id="Path"/><path d="M295.36464,121.13949c-2.53478,-1.37704 -3.9058,-4.80363 -2.52681,-7.37356l0.62174,-1.15287c1.39206,-2.54852 4.57015,-3.4922 7.11812,-2.1136l0.86884,0.47236c2.55506,1.38133 3.51723,4.57761 2.15217,7.1494l-0.62971,1.15287c-1.41884,2.54592 -5.06957,3.25045 -7.60435,1.86541z" id="Path"/></g></g><g data-paper-data="{&quot;origPos&quot;:null}" fill="#dbb297" stroke="none" stroke-width="1" stroke-linecap="butt" stroke-linejoin="miter"><path d="M207.2516,150.79387c2.79783,0.1281 6.16159,2.53792 6.22536,5.34804l-1.68986,33.41722c-0.06377,1.1929 -2.12029,2.28973 -3.30797,2.28973c-1.62604,0.08045 -3.02885,-1.13479 -3.18841,-2.76208l-4.78261,-32.82477c0.23116,-2.87417 3.94565,-5.59622 6.74348,-5.46813z" id="Path"/><g id="Group-5"><path d="M207.7405,186.23016c1.31365,-0.11068 2.56337,0.58804 3.16183,1.76779c1.74565,3.02628 0.56594,8.2142 0.56594,8.2142c-0.17999,0.91897 -0.60101,1.77301 -1.21957,2.47387c0.38436,1.17424 0.66705,2.37962 0.84493,3.60272c1.33523,0.40774 2.63597,0.92176 3.88986,1.53716c2.53478,0.35227 2.03261,2.04154 2.03261,2.04154c-6.36087,-0.24819 -7.78768,-1.1929 -7.78768,-1.1929c-6.42464,-5.50015 -5.42826,-8.85468 -5.42826,-8.85468l1.11594,-7.31752c0.3944,-1.26341 1.51076,-2.16149 2.8244,-2.27217z" id="Path"/><path d="M214.94363,200.95172c-0.7971,0.36828 -2.3913,-0.8006 -2.85362,-1.80136l-4.78261,-10.53595c0.16548,-1.09788 1.05866,-1.93871 2.16014,-2.03353c1.60965,0.75797 2.82352,2.16631 3.33986,3.87492l1.45072,7.2935c-0.07481,0.96 0.24491,1.90891 0.88478,2.62598c0.16739,0.18414 0,0.48837 -0.19928,0.57644z" id="Path"/></g></g><g><g id="Group-23" stroke="none" stroke-width="1" stroke-linecap="butt" stroke-linejoin="miter"><path d="M235.02261,239.03647l-5.65942,56.0423c-0.37513,1.84652 -1.98178,3.18016 -3.85797,3.20242h-0.0558c-2.43116,0.03202 -4.24058,-1.52115 -4.73478,-4.54743l-7.00652,-54.89743c-0.0558,-3.00227 9.24638,-5.46813 12.23551,-5.46813c3.06087,0 9.23841,2.57795 9.07899,5.66828z" id="Path" fill="#dbb297"/><path d="M232.97406,278.36215v3.73882c0,1.82538 -3.51522,3.3065 -7.85145,3.3065c-4.33623,0 -7.85145,-1.48112 -7.85145,-3.3065c0,-0.11208 -0.31884,-3.67477 -0.31884,-3.67477c0,-0.48036 0.27101,-0.56042 0.73333,-0.42432l-5.29275,-45.63444c-0.08768,-3.00227 6.63188,-6.94924 12.75362,-6.94924c5.89855,0 11.31884,4.48338 11.15942,7.5577l-4.11304,45.03399c0.46232,-0.16813 0.72536,-0.10408 0.78116,0.35227z" id="Path" fill="#3f4058"/></g><g id="Group-9"><path d="M212.09797,305.53466l7.54058,-9.16692c0.59783,-2.26571 -0.19928,-9.03882 -0.19928,-9.03882h0.9087l0.98841,2.04154c0.07223,-0.82363 0.65891,-1.50949 1.4587,-1.70529l3.44348,0.09607c0.79848,0.01202 1.4489,0.64773 1.48261,1.44909l1.99275,-1.78535h0.7971l0.25507,13.08988l-0.7971,7.24547z" id="Path" fill="#00bcbd" stroke="none" stroke-width="1" stroke-linecap="butt" stroke-linejoin="miter"/><path d="M221.37624,290.16305l5.7471,3.54668l-5.40435,2.7781l4.47971,2.00952l-6.44058,0.78459l5.72319,2.10559l-9.19855,1.14486l8.93551,0.58444l-7.06232,-2.63399l7.68406,-0.6645l-5.15725,-2.05755l6.07391,-1.03278l-5.35652,-3.55468l5.96232,-2.68202" id="Path" fill="none" stroke="#e6e6e6" stroke-width="0.5" stroke-linecap="round" stroke-linejoin="round"/><path d="M227.73711,289.17831l-0.23116,7.56571l-1.92899,7.09335l-1.43478,0.02402l2.61449,-7.13338l0.42246,-6.621z" id="Path" fill="#008f8f" stroke="none" stroke-width="1" stroke-linecap="butt" stroke-linejoin="miter"/><path d="M221.35232,289.33843l0.36667,7.1494l-6.48841,8.11012l-1.13188,-0.05604l7.26159,-8.12613l-0.36667,-7.80589z" id="Path" fill="#008f8f" stroke="none" stroke-width="1" stroke-linecap="butt" stroke-linejoin="miter"/><path d="M227.2429,305.28647l1.77754,-7.84592l0.70942,-10.04758l0.7971,0.01601l0.25507,13.08988l-0.76522,6.96526z" id="Path" fill="#00a0a1" stroke="none" stroke-width="1" stroke-linecap="butt" stroke-linejoin="miter"/><path d="M220.98566,303.02076c7.13406,0.07205 9.11884,3.21042 9.06304,3.94698c-3.21693,0.91839 -6.54005,1.40828 -9.88406,1.4571c-2.97373,0.09405 -5.94097,-0.33403 -8.76812,-1.26495c0,0 -0.72536,-4.25121 9.58913,-4.13912z" id="Path" fill="#e5e8e9" stroke="none" stroke-width="1" stroke-linecap="butt" stroke-linejoin="miter"/><path d="M211.22116,309.56169c0.00268,-0.80402 0.06396,-1.60677 0.18333,-2.40181c2.96012,0.71096 6.01124,0.96206 9.0471,0.74456c3.37971,-0.1361 7.74783,-0.32825 9.56522,-0.93671c0,0 0.03985,1.02477 0.03985,2.07356c0,0.72855 -0.22319,1.54517 -1.5942,2.00952c-2.5329,0.85398 -5.17382,1.34189 -7.84348,1.44909c-2.87401,0.18771 -5.75846,-0.13479 -8.52101,-0.95272c-0.88478,-0.20015 -0.86087,-0.94471 -0.87681,-1.9855z" id="Path" fill="#cfd6d4" stroke="none" stroke-width="1" stroke-linecap="butt" stroke-linejoin="miter"/><path d="M211.39653,307.15988c2.96651,0.67493 6.00728,0.96285 9.0471,0.85665c3.20914,-0.12123 6.40562,-0.47171 9.56522,-1.04879c0.15942,-0.04804 0.22319,0.44033 0,0.49637c-3.15535,0.62177 -6.35276,1.00447 -9.56522,1.14486c-3.06837,0.08192 -6.13418,-0.24108 -9.11884,-0.96073c-0.17536,-0.04804 -0.02391,-0.51239 0.07174,-0.48837z" id="Path" fill="#545c59" stroke="none" stroke-width="1" stroke-linecap="butt" stroke-linejoin="miter"/></g></g><g><g id="Group-13" stroke="none" stroke-width="1" stroke-linecap="butt" stroke-linejoin="miter"><path d="M261.87696,289.90686c-0.66957,2.33776 -2.05652,4.37931 -4.44783,4.08308h-0.0558c-1.84928,-0.22417 -4.08913,-1.82538 -4.24058,-3.7148l1.97681,-56.16239c0.17536,-3.07432 7.07826,-5.24396 10.08333,-4.91571c3.00507,0.32825 11.53406,4.08308 11.15942,7.06133z" id="Path" fill="#dbb297"/><path d="M267.85521,276.60082c0,0 -0.70942,3.51465 -0.70942,3.61873c-0.1913,1.78535 -3.85,2.88218 -8.16232,2.40181c-4.31232,-0.48036 -7.6442,-2.33776 -7.44493,-4.15514l0.40652,-3.7068c0.04783,-0.45634 0.27899,-0.5284 0.65362,-0.36828l1.41087,-42.29592c0.16739,-3.07432 8.92754,-7.25347 15.08116,-6.11662c2.9413,0.54441 7.85942,3.93897 7.85942,9.04683l-9.68478,41.03097c0.42246,-0.05604 0.63768,0.06405 0.58986,0.54441z" id="Path" fill="#3f4058"/></g><g id="Group-8"><path d="M280.68058,305.8549l-0.39058,1.88943c0,0 -0.55797,2.30574 -1.21957,2.16964l-28.99058,-6.06057c-0.56261,-0.30373 -0.87984,-0.92504 -0.7971,-1.56118c0.12754,-1.16088 2.51884,-11.24849 2.51884,-11.24849v-6.27674l7.08623,1.36103l0.55797,2.88218c0.13551,-1.22492 2.5587,-2.65801 4.26449,-2.02553c0,0 1.73768,0.34426 -0.43043,3.54668l-0.33478,3.60272l0.46232,2.85816l5.98623,4.32326l7.11014,0.48036c0,0 3.77826,0.28822 4.17681,4.05906z" id="Path" fill="#00bcbd" stroke="none" stroke-width="1" stroke-linecap="butt" stroke-linejoin="miter"/><path d="M249.18711,302.2762c0.0558,-0.58444 0.3587,-1.78535 0.54203,-2.88218l19.26594,6.60498l11.70942,-0.14411l-0.39058,1.89743c0,0 -0.42246,2.33776 -1.21957,2.16964l-10.44203,0.40831l-18.63623,-6.48489c-0.57973,-0.29351 -0.912,-0.92247 -0.82899,-1.56918z" id="Path" fill="#cfd6d4" stroke="none" stroke-width="1" stroke-linecap="butt" stroke-linejoin="miter"/><path d="M263.26391,290.4833l-3.30797,4.31526l3.45145,2.19366l0.28696,2.89819l3.6029,-0.08807l2.32754,3.34653l3.57101,-1.5932l-0.20725,1.56118l-3.04493,-1.76133l-3.73841,-0.09607l-1.01232,-3.34653l-4.31232,0.22417l2.06449,-4.00302l-3.83406,-3.971" id="Path" fill="none" stroke="#e6e6e6" stroke-width="0.5" stroke-linecap="round" stroke-linejoin="round"/><path d="M258.87189,286.08798l2.18406,11.72085l8.61667,4.97175l5.51594,-0.21616l-0.17536,0.82462l-5.48406,0.20015l-9.19058,-5.15589l-2.29565,-12.49743z" id="Path" fill="#008f8f" stroke="none" stroke-width="1" stroke-linecap="butt" stroke-linejoin="miter"/><path d="M280.69653,305.87091l-6.12174,0.44834l0.7413,-4.73157l1.18768,0.20816c0,0 3.77029,0.27221 4.19275,4.07508z" id="Path" fill="#e5e8e9" stroke="none" stroke-width="1" stroke-linecap="butt" stroke-linejoin="miter"/><path d="M280.65667,306.39931l-11.76522,0.1281l-19.32174,-6.629l0.10362,-0.5364l19.32971,6.629l11.76522,-0.1281z" id="Path" fill="#545c59" stroke="none" stroke-width="1" stroke-linecap="butt" stroke-linejoin="miter"/></g></g></g></g></svg>