<svg xmlns="http://www.w3.org/2000/svg" xmlns:xlink="http://www.w3.org/1999/xlink" width="255.09999084472656" height="218.77267456054688" viewBox="-0.29999999701976776 0.3273344039916992 255.09999084472656 218.77267456054688" version="1.1" xml:space="preserve">
  <g>
    <title>Slice 1</title>
    <desc>Created with Sketch.</desc>
    <g id="Page-1" stroke="none" fill-rule="evenodd">
      <g id="Griffin-Wings-Out">
        <g id="Group">
          <path d="M 151.9 129.1 C 147.6 146.4 133.3 164.9 121 172.7 C 108.7 180.5 104.3 199.7 104.3 199.7 C 104.3 199.7 109.8 206.3 108.7 208.5 C 106.2 213.4 95.5 210.5 92.6 206.6 C 89.7 202.7 90.6 167.4 96.5 163 C 102.4 158.6 108.3 157.1 106.8 145.8 C 105.3 134.5 103.8 109.5 114.4 106.1 C 124.9 102.6 158.3 103.1 151.9 129.1 Z " id="Path" fill="#694929" stroke-width="1"/>
          <path d="M 149.3 136.5 C 149.3 136.5 148.8 137.7 147.9 139.6 C 147 141.6 145.5 144.3 143.7 147.5 C 141.8 150.7 139.5 154.4 136.7 158 C 135.3 159.8 133.8 161.7 132.1 163.4 C 131.2 164.3 130.4 165.1 129.4 165.9 C 128.5 166.7 127.4 167.4 126.4 168.1 C 124.4 169.6 122.4 171.1 120.5 172.6 C 118.6 174.2 116.8 175.7 115.1 177.4 C 113.5 179.1 112 180.8 110.9 182.6 C 109.8 184.4 108.8 186.2 108.1 187.9 C 107.4 189.6 106.8 191.2 106.3 192.7 C 105.8 194.1 105.5 195.4 105.2 196.4 C 104.6 198.5 104.3 199.7 104.3 199.7 C 104.3 199.7 104.7 198.5 105.3 196.4 C 105.6 195.4 106 194.1 106.5 192.7 C 107 191.3 107.6 189.7 108.4 188 C 109.1 186.3 110.1 184.5 111.3 182.8 C 112.5 181 113.9 179.3 115.5 177.7 C 117.1 176 119 174.5 120.8 173 C 122.7 171.5 124.7 170 126.7 168.6 C 127.7 167.9 128.7 167.2 129.7 166.4 C 130.7 165.6 131.6 164.8 132.4 163.9 C 134.1 162.1 135.6 160.3 137.1 158.4 C 139.9 154.7 142.2 151 144 147.7 C 145.8 144.5 147.1 141.6 148 139.7 C 148.9 137.7 149.3 136.5 149.3 136.5 Z " id="Path" fill="#423118" stroke-width="1"/>
          <path d="M 105.5 206.1 C 105.5 206.1 105.6 206.4 105.8 206.7 C 106 207.1 106.2 207.6 106.5 208 C 106.8 208.5 107 208.9 107.2 209.3 C 107.3 209.5 107.4 209.6 107.4 209.8 C 107.4 209.9 107.5 210 107.5 210 C 107.5 210 107.6 209.7 107.6 209.3 C 107.6 208.9 107.4 208.3 107.2 207.8 C 106.9 207.3 106.6 206.9 106.3 206.6 C 105.8 206.3 105.5 206.1 105.5 206.1 Z " id="Path" fill="#423118" stroke-width="1"/>
          <path d="M 101.7 207.6 C 101.7 207.6 101.8 207.8 101.9 208.2 C 102 208.5 102.2 208.9 102.4 209.4 C 102.6 209.8 102.8 210.2 102.9 210.5 C 103 210.7 103 210.8 103.1 210.9 C 103.1 211 103.2 211.1 103.2 211.1 C 103.2 211.1 103.3 210.9 103.3 210.5 C 103.3 210.1 103.2 209.6 103 209.2 C 102.8 208.8 102.5 208.4 102.2 208.1 C 101.9 207.7 101.7 207.6 101.7 207.6 Z " id="Path" fill="#423118" stroke-width="1"/>
          <path d="M 92.6 174.1 C 92.6 174.1 92.6 173.9 92.6 173.5 C 92.6 173.1 92.7 172.5 92.8 171.8 C 93.1 170.4 93.6 168.3 94.7 166.1 C 95.3 165 96 163.9 97 162.9 C 97.3 162.7 97.5 162.4 97.8 162.2 C 98.1 162 98.4 161.8 98.7 161.6 C 99.3 161.3 100 160.9 100.7 160.6 C 102.1 159.8 103.5 158.8 104.6 157.6 C 105.7 156.3 106.5 154.7 106.9 153.1 C 107.3 151.4 107.4 149.7 107.3 148.1 C 107.2 146.4 106.9 144.8 106.7 143.3 C 106.3 140.2 106.1 137.3 106 134.8 C 105.9 132.3 105.8 130.2 105.7 128.8 C 105.7 127.3 105.7 126.5 105.7 126.5 C 105.7 126.5 105.7 127.3 105.6 128.8 C 105.6 130.3 105.5 132.3 105.6 134.9 C 105.7 137.4 105.8 140.3 106.1 143.5 C 106.2 145.1 106.6 146.7 106.6 148.3 C 106.7 149.9 106.6 151.6 106.2 153.1 C 105.8 154.7 105.1 156.2 104.1 157.4 C 103.1 158.6 101.8 159.6 100.5 160.3 C 99.8 160.7 99.1 161 98.4 161.4 C 98.1 161.6 97.8 161.8 97.5 162.1 C 97.2 162.3 96.9 162.6 96.7 162.9 C 95.7 163.9 94.9 165.1 94.4 166.3 C 93.8 167.4 93.5 168.5 93.2 169.5 C 92.9 170.5 92.8 171.4 92.7 172.1 C 92.6 172.8 92.6 173.4 92.5 173.8 C 92.6 173.9 92.6 174.1 92.6 174.1 Z " id="Path" fill="#423118" stroke-width="1"/>
          <path d="M 101.5 166.5 C 101.5 166.5 101.1 166.7 100.6 167.1 C 100.1 167.5 99.5 168.2 99.1 169 C 99 169.2 98.9 169.4 98.8 169.6 C 98.7 169.8 98.7 170 98.6 170.2 C 98.5 170.4 98.5 170.6 98.5 170.8 C 98.5 171 98.5 171.2 98.5 171.3 C 98.5 171.6 98.5 171.9 98.6 172.1 C 98.6 172.3 98.6 172.4 98.6 172.4 C 98.6 172.4 98.6 172.3 98.7 172.1 C 98.7 171.9 98.8 171.7 98.9 171.4 C 99 171.1 99.1 170.8 99.2 170.4 C 99.3 170 99.5 169.7 99.7 169.3 C 100.1 168.6 100.5 167.9 100.9 167.4 C 101.2 166.9 101.5 166.5 101.5 166.5 Z " id="Path" fill="#423118" stroke-width="1"/>
        </g>
        <g id="Group">
          <path d="M 163.7 100.6 C 156.9 98.6 159.2 94.9 159.2 94.9 C 154.8 94.2 153 88.1 153 88.1 C 147.9 86.1 148.7 80.7 148.7 80.7 C 144.4 79.2 143.3 74.8 143.3 74.8 C 137.8 75.2 134.7 69.3 134.7 69.3 C 130.3 68.6 129.3 63.4 129.3 63.4 C 121.8 62.7 120.7 54.9 120.7 54.9 C 99.7 54.2 113.4 50 113.4 50 C 91 43.6 110.6 41.6 110.6 41.6 C 110.6 41.6 94.8 41.7 93.3 37.3 C 91.8 32.9 107.8 33.6 107.8 33.6 C 72 32.8 61 25.2 68.6 25.5 C 76.2 25.8 104.4 26.7 104.4 26.7 C 62.5 21.2 57.3 8.6 66.5 12.9 C 75.7 17.2 107.9 21.3 107.9 21.3 C 86.2 18.8 59.9 0.1 76.1 5.5 C 92.3 10.9 110.1 15.7 110.1 15.7 C 86.9 5.9 85.4 -5.3 101.9 4.8 C 118.4 14.9 155.6 21.4 177.3 28.9 C 199 36.4 191 69 191 69 C 195.7 79.4 191.9 95.6 199.5 101.8 C 199.5 101.8 170.1 102.4 163.7 100.6 Z " id="Path" fill="#694929" stroke-width="1"/>
          <path d="M 199.5 101.8 C 199.5 101.8 199.4 101.7 199.2 101.5 C 199 101.3 198.7 101.1 198.4 100.7 C 198.1 100.4 197.7 99.9 197.4 99.4 C 197.1 98.8 196.7 98.2 196.4 97.5 C 195.7 96 195.3 94.2 195 92.2 C 194.7 90.2 194.5 88 194.4 85.9 C 194.2 83.7 194 81.6 193.8 79.6 C 193.7 78.6 193.6 77.6 193.4 76.7 C 193.3 75.8 193.1 74.9 192.9 74.1 C 192.7 73.3 192.6 72.6 192.4 71.9 C 192.2 71.3 192 70.7 191.8 70.3 C 191.6 69.9 191.4 69.5 191.2 69.3 C 191.1 69.1 191 69 191 69 C 191 69 191.1 69.1 191.2 69.3 C 191.4 69.5 191.5 69.9 191.7 70.3 C 191.8 70.8 192 71.3 192.2 71.9 C 192.3 72.5 192.5 73.3 192.6 74.1 C 192.9 75.7 193 77.6 193.2 79.6 C 193.4 81.6 193.5 83.8 193.7 85.9 C 193.9 88.1 194.1 90.2 194.4 92.3 C 194.7 94.3 195.3 96.2 196 97.7 C 196.4 98.4 196.8 99.1 197.2 99.6 C 197.6 100.1 198 100.6 198.3 100.9 C 198.6 101.2 198.9 101.4 199.1 101.6 C 199.4 101.7 199.5 101.8 199.5 101.8 Z " id="Path" fill="#423118" stroke-width="1"/>
          <path d="M 189.5 72.3 C 189.5 72.3 189.5 72.2 189.7 72 C 189.8 71.8 190 71.5 190.2 71 C 190.6 70.1 191.2 68.9 191.7 67.1 C 192.7 63.7 193.3 58.5 192.7 52.5 C 192.4 49.5 191.9 46.2 190.8 42.9 C 190.3 41.2 189.6 39.6 188.7 37.9 C 187.8 36.3 186.7 34.7 185.4 33.3 C 184.1 31.9 182.5 30.6 180.7 29.8 C 180.2 29.6 179.8 29.4 179.3 29.3 L 177.9 28.9 C 176.9 28.7 176 28.4 175 28.2 C 171.2 27.2 167.2 26.1 163.3 25.1 C 147.7 20.9 132.1 16.5 120.6 12.7 C 114.8 10.8 110.1 9.1 106.8 7.7 C 105.2 7 103.9 6.4 103.1 5.9 C 102.3 5.4 101.9 5.1 101.9 5.1 C 101.9 5.1 102.3 5.4 103.1 5.9 C 103.9 6.4 105.1 7 106.8 7.8 C 108.4 8.5 110.4 9.3 112.7 10.2 C 115 11.1 117.6 12 120.5 13 C 132 16.9 147.5 21.5 163.1 25.8 C 167 26.8 170.9 27.9 174.8 28.9 C 175.8 29.1 176.7 29.4 177.7 29.6 L 179.1 30 C 179.5 30.1 180 30.3 180.4 30.5 C 182.1 31.3 183.6 32.5 184.9 33.9 C 187.4 36.6 189.1 40 190.1 43.2 C 191.2 46.5 191.7 49.7 192.1 52.7 C 192.8 58.7 192.2 63.8 191.3 67.2 C 190.9 68.9 190.4 70.2 190.1 71.1 C 189.9 71.5 189.8 71.9 189.7 72.1 C 189.5 72.2 189.5 72.3 189.5 72.3 Z " id="Path" fill="#423118" stroke-width="1"/>
          <path d="M 110.1 15.9 C 110.1 15.9 108.7 15.1 106.7 14 C 105.7 13.4 104.5 12.7 103.2 12 C 101.9 11.3 100.6 10.5 99.3 9.6 C 98 8.8 96.7 7.9 95.5 7.1 C 94.3 6.2 93.2 5.4 92.5 4.6 C 91.7 3.8 91.1 3 91 2.3 C 91 2 91.1 1.7 91.2 1.6 C 91.3 1.5 91.4 1.4 91.4 1.4 C 91.4 1.4 91.3 1.4 91.2 1.6 C 91.1 1.7 90.9 2 90.9 2.3 C 90.9 2.7 91.1 3.1 91.3 3.5 C 91.5 3.9 91.8 4.4 92.2 4.8 C 93 5.7 94 6.6 95.2 7.5 C 96.4 8.4 97.7 9.3 99 10.1 C 100.3 10.9 101.7 11.7 103 12.4 C 104.3 13.1 105.5 13.7 106.6 14.2 C 108.6 15.3 110.1 15.9 110.1 15.9 Z " id="Path" fill="#423118" stroke-width="1"/>
          <path d="M 105.5 21.1 C 105.5 21.1 103.1 20.7 99.7 19.8 C 98.8 19.6 97.9 19.3 96.9 19 C 95.9 18.7 94.9 18.3 93.9 18 C 92.9 17.6 91.8 17.3 90.7 16.8 C 90.2 16.6 89.6 16.4 89.1 16.1 L 87.5 15.4 C 86.4 15 85.4 14.4 84.3 13.9 C 83.2 13.4 82.3 12.8 81.3 12.3 C 80.3 11.8 79.4 11.2 78.5 10.7 C 77.6 10.2 76.8 9.6 76.1 9.2 C 75.3 8.7 74.7 8.3 74.1 7.9 C 73.5 7.5 73 7.1 72.6 6.7 C 71.8 6 71.4 5.6 71.4 5.6 C 71.4 5.6 71.8 6.1 72.6 6.8 C 73 7.2 73.5 7.6 74 8 C 74.6 8.5 75.2 8.9 76 9.5 C 76.7 10 77.5 10.6 78.4 11.1 C 79.3 11.6 80.2 12.2 81.1 12.8 C 82.1 13.3 83.1 13.9 84.1 14.4 C 85.2 14.9 86.2 15.5 87.3 15.9 C 88.4 16.4 89.5 16.8 90.6 17.3 C 91.7 17.7 92.8 18.1 93.8 18.5 C 94.9 18.8 95.9 19.2 96.9 19.4 C 97.9 19.7 98.8 19.9 99.7 20.1 C 103.1 21 105.5 21.1 105.5 21.1 Z " id="Path" fill="#423118" stroke-width="1"/>
          <path d="M 104.4 26.8 C 104.4 26.8 101.6 26.3 97.5 25.4 C 95.4 25 93 24.4 90.5 23.9 C 87.9 23.3 85.2 22.7 82.5 21.9 C 79.8 21.2 77.1 20.4 74.6 19.6 C 72.1 18.8 69.8 17.9 67.9 17 C 67 16.5 66.1 16.1 65.4 15.6 C 65 15.4 64.7 15.1 64.4 14.9 C 64.1 14.7 63.9 14.4 63.6 14.2 C 63.2 13.8 62.9 13.4 62.7 13.1 C 62.5 12.8 62.4 12.7 62.4 12.7 C 62.4 12.7 62.5 12.9 62.6 13.2 C 62.7 13.5 63 13.9 63.4 14.4 C 63.6 14.6 63.9 14.9 64.1 15.1 C 64.4 15.3 64.7 15.6 65 15.8 C 65.7 16.3 66.5 16.8 67.5 17.3 C 69.4 18.3 71.6 19.2 74.1 20.1 C 76.6 21 79.3 21.8 82 22.5 C 84.7 23.2 87.5 23.8 90 24.4 C 92.6 25 95 25.4 97.1 25.7 C 101.6 26.5 104.4 26.8 104.4 26.8 Z " id="Path" fill="#423118" stroke-width="1"/>
          <path d="M 105.6 33.5 C 105.6 33.5 103.1 33.3 99.4 33 C 97.5 32.8 95.4 32.6 93 32.4 C 90.7 32.2 88.2 31.9 85.7 31.6 C 83.2 31.3 80.8 30.9 78.5 30.5 C 76.2 30.1 74.1 29.6 72.3 29.1 C 71.4 28.8 70.6 28.6 69.9 28.3 C 69.2 28.1 68.6 27.8 68.1 27.5 C 67.6 27.3 67.2 27.1 67 26.9 C 66.8 26.7 66.6 26.7 66.6 26.7 C 66.6 26.7 66.7 26.8 67 27 C 67.2 27.2 67.6 27.4 68.1 27.7 C 68.6 28 69.2 28.3 69.9 28.6 C 70.6 28.9 71.4 29.2 72.3 29.5 C 73.2 29.8 74.2 30.1 75.2 30.3 C 76.2 30.6 77.4 30.8 78.5 31 C 80.8 31.5 83.3 31.9 85.8 32.2 C 88.3 32.5 90.8 32.8 93.1 33 C 95.4 33.2 97.6 33.3 99.5 33.4 C 103.1 33.5 105.6 33.5 105.6 33.5 Z " id="Path" fill="#423118" stroke-width="1"/>
          <path d="M 110.7 41.6 C 110.7 41.6 109.6 41.5 107.9 41.4 C 107.1 41.4 106.1 41.3 105 41.2 C 104 41.1 102.8 41 101.7 40.8 C 100.6 40.6 99.5 40.4 98.5 40.2 C 98 40.1 97.5 39.9 97.1 39.8 C 96.6 39.7 96.2 39.5 95.8 39.3 C 95.4 39.1 95.1 38.9 94.8 38.8 C 94.5 38.6 94.3 38.4 94.1 38.3 C 93.9 38.1 93.8 38 93.7 37.9 C 93.6 37.8 93.6 37.8 93.6 37.8 C 93.6 37.8 93.7 38.1 94.1 38.4 C 94.3 38.6 94.5 38.8 94.8 39 C 95.1 39.2 95.4 39.4 95.8 39.7 C 96.6 40.1 97.5 40.5 98.5 40.8 C 99.5 41.1 100.6 41.3 101.8 41.5 C 102.9 41.7 104.1 41.8 105.1 41.8 C 106.2 41.9 107.2 41.8 108 41.8 C 109.5 41.8 110.7 41.6 110.7 41.6 Z " id="Path" fill="#423118" stroke-width="1"/>
          <path d="M 113.4 50 C 113.4 50 112.7 49.7 111.6 49.4 C 110.5 49 109.1 48.5 107.7 48 C 107 47.7 106.3 47.4 105.7 47.1 C 105.4 46.9 105.1 46.8 104.8 46.6 C 104.5 46.4 104.3 46.3 104 46.1 C 103.8 45.9 103.6 45.8 103.4 45.7 C 103.2 45.5 103.1 45.4 103 45.3 C 102.8 45 102.7 44.9 102.7 44.9 C 102.7 44.9 102.8 45.1 102.9 45.4 C 103 45.6 103.1 45.7 103.2 45.9 C 103.3 46.1 103.5 46.3 103.7 46.5 C 103.9 46.7 104.2 46.9 104.4 47.1 C 104.7 47.3 105 47.5 105.3 47.6 C 105.9 48 106.6 48.3 107.3 48.6 C 108.7 49.2 110.2 49.6 111.3 49.8 C 112.7 50 113.4 50 113.4 50 Z " id="Path" fill="#423118" stroke-width="1"/>
          <path d="M 120.8 54.9 C 120.8 54.9 120 54.8 118.9 54.7 C 117.8 54.6 116.2 54.5 114.7 54.4 C 113.2 54.3 111.7 54.1 110.6 53.7 C 110.3 53.6 110.1 53.5 109.9 53.4 C 109.7 53.3 109.5 53.2 109.4 53.1 C 109.3 53 109.2 52.9 109.2 52.8 C 109.2 52.7 109.1 52.7 109.1 52.7 C 109.1 52.7 109.1 52.9 109.3 53.2 C 109.5 53.5 109.9 53.8 110.5 54 C 111.6 54.5 113.1 54.8 114.7 55 C 116.2 55.1 117.8 55.1 118.9 55 C 120 55.1 120.8 54.9 120.8 54.9 Z " id="Path" fill="#423118" stroke-width="1"/>
          <path d="M 129.4 63.4 C 129.4 63.4 128.7 63.3 127.8 62.9 C 126.9 62.5 125.7 61.9 124.6 61.1 C 124.3 60.9 124.1 60.7 123.9 60.5 C 123.7 60.3 123.5 60 123.2 59.8 C 123 59.6 122.8 59.3 122.6 59.1 C 122.4 58.9 122.3 58.6 122.1 58.4 C 122 58.2 121.8 58 121.7 57.8 C 121.6 57.6 121.5 57.5 121.4 57.3 C 121.3 57 121.2 56.9 121.2 56.9 C 121.2 56.9 121.2 57.1 121.3 57.4 C 121.3 57.5 121.4 57.7 121.4 57.9 C 121.4 58.1 121.6 58.3 121.7 58.6 C 121.8 58.8 121.9 59.1 122.1 59.4 C 122.3 59.7 122.4 59.9 122.6 60.2 C 122.8 60.4 123 60.7 123.3 61 C 123.6 61.2 123.8 61.5 124.1 61.7 C 124.4 61.9 124.7 62.1 125 62.3 C 125.3 62.5 125.6 62.6 125.9 62.8 C 126.5 63.1 127.1 63.3 127.6 63.4 C 128.7 63.4 129.4 63.4 129.4 63.4 Z " id="Path" fill="#423118" stroke-width="1"/>
          <path d="M 134.8 69.3 C 134.8 69.3 134.4 69.2 133.9 68.9 C 133.4 68.6 132.8 68.2 132.2 67.7 C 131.9 67.5 131.6 67.2 131.4 66.9 C 131.2 66.6 130.9 66.4 130.7 66.2 C 130.5 66 130.3 65.8 130.2 65.7 C 130.1 65.6 130 65.5 130 65.5 C 130 65.5 130 65.6 130.1 65.8 C 130.2 66 130.2 66.2 130.4 66.5 C 130.7 67.1 131.1 67.7 131.8 68.3 C 132.1 68.6 132.5 68.8 132.8 69 C 133.1 69.2 133.5 69.3 133.8 69.4 C 134.4 69.3 134.8 69.3 134.8 69.3 Z " id="Path" fill="#423118" stroke-width="1"/>
          <path d="M 143.4 74.8 C 143.4 74.8 141.2 74.7 139.3 73.7 C 138.8 73.5 138.4 73.2 138 72.9 C 137.6 72.6 137.2 72.3 137 72 C 136.9 71.9 136.7 71.7 136.6 71.6 C 136.5 71.5 136.4 71.4 136.3 71.3 C 136.1 71.1 136 71 136 71 C 136 71 136.1 71.1 136.2 71.3 C 136.3 71.5 136.5 71.8 136.7 72.2 C 136.8 72.4 136.9 72.6 137.1 72.7 C 137.3 72.9 137.4 73.1 137.6 73.2 C 137.8 73.4 138 73.6 138.2 73.7 C 138.4 73.8 138.7 74 138.9 74.1 C 139.4 74.4 140 74.6 140.5 74.7 C 141 74.8 141.5 74.9 141.9 74.9 C 142.8 74.9 143.4 74.8 143.4 74.8 Z " id="Path" fill="#423118" stroke-width="1"/>
          <path d="M 148.8 80.6 C 148.8 80.6 148.5 80.4 148 80 C 147.5 79.6 146.9 79.2 146.3 78.7 C 145.7 78.2 145.2 77.7 144.8 77.3 C 144.6 77.1 144.4 76.9 144.3 76.8 C 144.2 76.7 144.1 76.6 144.1 76.6 C 144.1 76.6 144.1 76.7 144.2 76.9 C 144.3 77.1 144.3 77.3 144.5 77.6 C 144.8 78.1 145.3 78.8 145.9 79.3 C 146.5 79.8 147.2 80.2 147.8 80.4 C 148.4 80.6 148.8 80.6 148.8 80.6 Z " id="Path" fill="#423118" stroke-width="1"/>
          <path d="M 153.1 88 C 153.1 88 152.6 87.9 152.1 87.5 C 151.5 87.1 150.9 86.6 150.4 85.9 C 150.1 85.6 149.9 85.2 149.8 84.8 C 149.6 84.4 149.5 84.1 149.3 83.8 C 149.2 83.5 149.1 83.2 149 83 C 148.9 82.8 148.9 82.7 148.9 82.7 C 148.9 82.7 148.9 82.8 148.9 83 C 148.9 83.2 148.9 83.5 149 83.8 C 149.1 84.1 149.1 84.5 149.3 85 C 149.4 85.4 149.7 85.8 149.9 86.2 C 150.2 86.6 150.5 86.9 150.9 87.2 C 151.3 87.5 151.6 87.7 152 87.8 C 152.6 88.1 153.1 88 153.1 88 Z " id="Path" fill="#423118" stroke-width="1"/>
          <path d="M 159.2 94.8 C 159.2 94.8 158.8 94.6 158.2 94.2 C 157.6 93.8 156.9 93.3 156.2 92.6 C 155.9 92.3 155.6 91.9 155.3 91.6 C 155 91.3 154.8 91 154.5 90.7 C 154.3 90.4 154.1 90.2 154 90 C 153.9 89.8 153.8 89.7 153.8 89.7 C 153.8 89.7 153.8 89.8 153.9 90 C 154 90.2 154.1 90.5 154.2 90.8 C 154.4 91.1 154.6 91.5 154.8 91.9 C 155.1 92.3 155.4 92.7 155.7 93 C 156.1 93.3 156.5 93.7 156.9 93.9 C 157.3 94.2 157.7 94.3 158 94.5 C 158.7 94.8 159.2 94.8 159.2 94.8 Z " id="Path" fill="#423118" stroke-width="1"/>
          <path d="M 163.7 100.6 C 163.7 100.6 163.3 100.4 162.8 100.2 C 162.3 99.9 161.6 99.6 161 99.2 C 160.7 99 160.4 98.8 160.1 98.5 C 160 98.4 159.8 98.3 159.7 98.1 C 159.6 98 159.5 97.9 159.4 97.7 C 159.2 97.5 159.1 97.3 159 97.1 C 158.9 96.9 158.9 96.9 158.9 96.9 C 158.9 96.9 158.9 97.3 159.1 97.9 C 159.2 98.2 159.4 98.5 159.7 98.8 C 160 99.1 160.3 99.4 160.6 99.6 C 161.3 100.1 162.1 100.3 162.7 100.5 C 163.3 100.6 163.7 100.6 163.7 100.6 Z " id="Path" fill="#423118" stroke-width="1"/>
          <path d="M 184.2 97.3 C 184.2 97.3 183.7 97.1 182.9 96.8 C 182.5 96.7 182.1 96.5 181.6 96.3 C 181.1 96.1 180.7 95.9 180.3 95.6 C 179.9 95.3 179.7 95 179.9 94.6 C 180.1 94.2 180.4 93.9 180.7 93.6 C 181 93.3 181.3 93.1 181.5 93 C 181.7 92.9 181.8 92.8 181.8 92.8 C 181.8 92.8 181.7 92.8 181.4 92.9 C 181.2 93 180.8 93.1 180.5 93.3 C 180.3 93.4 180.1 93.5 179.9 93.7 C 179.7 93.9 179.5 94.1 179.4 94.3 C 179.3 94.6 179.2 95 179.3 95.3 C 179.4 95.6 179.7 95.9 179.9 96.1 C 180.9 96.8 182 97 182.8 97.2 C 183.7 97.3 184.2 97.3 184.2 97.3 Z " id="Path" fill="#52391E" stroke-width="1"/>
          <path d="M 179.7 94.1 C 179.7 94.1 179.2 93.8 178.6 93.3 C 178.3 93.1 177.9 92.8 177.5 92.4 C 177.1 92.1 176.8 91.7 176.6 91.3 C 176.5 91.1 176.4 90.9 176.4 90.7 C 176.4 90.5 176.4 90.3 176.6 90.1 C 176.8 89.7 177.2 89.4 177.5 89.2 C 177.8 89 178.1 88.8 178.3 88.6 C 178.5 88.5 178.6 88.4 178.6 88.4 C 178.6 88.4 178.5 88.4 178.2 88.5 C 178 88.6 177.6 88.7 177.3 88.9 C 176.9 89.1 176.5 89.4 176.1 89.9 C 175.9 90.1 175.8 90.5 175.8 90.8 C 175.8 91.1 175.9 91.5 176 91.7 C 176.3 92.3 176.7 92.7 177.1 93 C 177.5 93.3 178 93.6 178.3 93.7 C 179.1 94 179.7 94.1 179.7 94.1 Z " id="Path" fill="#52391E" stroke-width="1"/>
          <path d="M 181.7 79.2 C 181.7 79.2 181.1 79 180.3 78.6 C 179.9 78.4 179.4 78.2 178.9 78 C 178.4 77.7 177.9 77.5 177.5 77.1 C 177.3 76.9 177.2 76.7 177.3 76.5 C 177.3 76.3 177.5 76.1 177.7 75.9 C 178.1 75.6 178.6 75.3 179 75.1 C 179.4 74.9 179.7 74.7 180 74.6 C 180.2 74.5 180.4 74.4 180.4 74.4 C 180.4 74.4 179.8 74.5 178.9 74.8 C 178.7 74.9 178.4 75 178.2 75.1 C 177.9 75.2 177.7 75.3 177.4 75.6 C 177.2 75.8 176.9 76 176.8 76.5 C 176.7 76.9 176.9 77.4 177.2 77.6 C 177.7 78.1 178.3 78.4 178.9 78.6 C 179.5 78.8 180 79 180.4 79.1 C 181.1 79.1 181.7 79.2 181.7 79.2 Z " id="Path" fill="#52391E" stroke-width="1"/>
          <path d="M 173.7 84.9 C 173.7 84.9 173.2 84.7 172.4 84.5 C 172 84.4 171.6 84.2 171.1 84 C 170.7 83.8 170.2 83.6 169.9 83.2 C 169.6 82.9 169.7 82.5 170 82.1 C 170.3 81.7 170.6 81.4 170.9 81.1 C 171.2 80.8 171.5 80.6 171.7 80.5 C 171.9 80.4 172 80.3 172 80.3 C 172 80.3 171.5 80.5 170.7 80.9 C 170.5 81 170.3 81.1 170.1 81.3 C 169.9 81.4 169.7 81.6 169.5 81.8 C 169.3 82 169.1 82.3 169.1 82.6 C 169 83 169.2 83.4 169.4 83.6 C 169.8 84.1 170.4 84.3 170.9 84.5 C 171.4 84.7 171.9 84.8 172.3 84.8 C 173.1 85 173.7 84.9 173.7 84.9 Z " id="Path" fill="#52391E" stroke-width="1"/>
          <path d="M 171.7 80.1 C 171.7 80.1 171.2 79.9 170.4 79.7 C 170 79.6 169.6 79.4 169.1 79.2 C 168.7 79 168.1 78.8 167.9 78.4 C 167.6 78.1 167.7 77.7 167.9 77.3 C 168 77.1 168.2 76.9 168.3 76.8 C 168.5 76.6 168.6 76.5 168.8 76.4 C 169.1 76.1 169.4 75.9 169.6 75.8 C 169.8 75.6 169.9 75.6 169.9 75.6 C 169.9 75.6 169.4 75.8 168.6 76.2 C 168.4 76.3 168.2 76.4 168 76.6 C 167.8 76.7 167.6 76.9 167.4 77.1 C 167.2 77.3 167 77.6 167 78 C 166.9 78.4 167.1 78.7 167.3 79 C 167.8 79.5 168.3 79.7 168.8 79.9 C 169.3 80.1 169.8 80.1 170.2 80.2 C 171.2 80.2 171.7 80.1 171.7 80.1 Z " id="Path" fill="#52391E" stroke-width="1"/>
          <path d="M 176.7 64.9 C 176.7 64.9 176.5 64.8 176.2 64.7 C 175.9 64.6 175.5 64.4 175 64.1 C 174.5 63.8 174 63.5 173.5 63.1 C 173 62.7 172.5 62.1 172.3 61.5 C 172.2 61.2 172.2 60.9 172.3 60.6 C 172.4 60.3 172.6 60.1 172.8 59.9 C 173.3 59.5 173.9 59.2 174.4 59 C 174.9 58.8 175.4 58.7 175.7 58.6 C 176 58.5 176.2 58.5 176.2 58.5 C 176.2 58.5 175.4 58.5 174.3 58.7 C 173.7 58.8 173.1 59 172.5 59.5 C 172.2 59.7 171.9 60 171.7 60.4 C 171.5 60.8 171.5 61.3 171.7 61.7 C 172 62.5 172.6 63.1 173.2 63.5 C 173.8 63.9 174.4 64.2 174.9 64.4 C 176 64.9 176.7 64.9 176.7 64.9 Z " id="Path" fill="#52391E" stroke-width="1"/>
          <path d="M 179.6 59.5 C 179.6 59.5 178.9 59.2 177.9 58.8 C 177.4 58.6 176.8 58.3 176.2 58 C 175.6 57.7 174.9 57.4 174.5 56.9 C 174.3 56.7 174.2 56.4 174.3 56.2 C 174.4 56 174.6 55.8 174.9 55.6 C 175.4 55.2 176 55 176.5 54.8 C 177 54.6 177.4 54.4 177.7 54.3 C 178 54.2 178.2 54.1 178.2 54.1 C 178.2 54.1 177.5 54.1 176.4 54.4 C 175.9 54.5 175.2 54.7 174.6 55.1 C 174.3 55.3 173.9 55.5 173.7 56 C 173.6 56.2 173.6 56.5 173.7 56.8 C 173.8 57 173.9 57.2 174.1 57.4 C 174.7 58 175.4 58.3 176 58.6 C 176.7 58.9 177.3 59.1 177.8 59.2 C 178.8 59.5 179.6 59.5 179.6 59.5 Z " id="Path" fill="#52391E" stroke-width="1"/>
          <path d="M 167.5 48.1 C 167.5 48.1 166.9 47.8 165.9 47.3 C 165.4 47 164.9 46.7 164.4 46.4 C 163.9 46 163.3 45.7 162.9 45.2 C 162.7 45 162.6 44.7 162.7 44.5 C 162.8 44.3 163 44.1 163.2 43.9 C 163.4 43.7 163.7 43.6 164 43.5 C 164.3 43.4 164.5 43.3 164.8 43.2 C 165.3 43 165.7 42.9 166 42.8 C 166.3 42.7 166.5 42.6 166.5 42.6 C 166.5 42.6 165.8 42.6 164.7 42.8 C 164.4 42.9 164.1 42.9 163.8 43 C 163.5 43.1 163.2 43.2 162.9 43.4 C 162.6 43.6 162.2 43.8 162.1 44.3 C 161.9 44.8 162.2 45.3 162.4 45.6 C 162.9 46.2 163.5 46.6 164.1 46.9 C 164.7 47.2 165.3 47.5 165.8 47.6 C 166.8 47.9 167.5 48.1 167.5 48.1 Z " id="Path" fill="#52391E" stroke-width="1"/>
          <path d="M 160.5 58.5 C 160.5 58.5 160 58.2 159.3 57.7 C 158.9 57.4 158.5 57.2 158.1 56.8 C 157.7 56.5 157.3 56.1 157 55.7 C 156.9 55.5 156.8 55.3 156.8 55.1 C 156.8 54.9 156.9 54.8 157.1 54.6 C 157.5 54.3 157.9 54.1 158.3 54 C 158.7 53.9 159 53.7 159.3 53.7 C 159.5 53.6 159.7 53.6 159.7 53.6 C 159.7 53.6 159.6 53.6 159.3 53.6 C 159 53.6 158.7 53.6 158.2 53.7 C 157.8 53.8 157.2 53.9 156.7 54.2 C 156.5 54.4 156.2 54.7 156.1 55.1 C 156 55.5 156.2 55.9 156.4 56.1 C 156.8 56.6 157.3 57 157.7 57.3 C 158.2 57.6 158.6 57.9 159 58 C 159.9 58.4 160.5 58.5 160.5 58.5 Z " id="Path" fill="#52391E" stroke-width="1"/>
          <path d="M 153.1 35.5 C 153.1 35.5 150.9 35 147.6 34.1 C 145.9 33.7 144 33.1 142 32.5 C 141 32.2 140 31.8 139 31.3 C 138.5 31.1 138 30.8 137.5 30.5 C 137.1 30.2 136.6 29.9 136.4 29.5 C 136.4 29.4 136.3 29.3 136.3 29.2 L 136.3 29.1 C 136.3 29.1 136.3 29 136.3 29.1 L 136.4 28.9 C 136.5 28.8 136.6 28.6 136.9 28.6 C 137.4 28.4 137.9 28.3 138.4 28.3 C 139.5 28.2 140.6 28.3 141.6 28.4 C 143.7 28.6 145.7 28.9 147.4 29.1 C 150.8 29.7 153 30.1 153 30.1 C 153 30.1 150.8 29.4 147.5 28.7 C 145.8 28.4 143.9 28 141.7 27.8 C 140.6 27.7 139.5 27.6 138.4 27.7 C 137.8 27.7 137.2 27.8 136.6 28 C 136.3 28.1 136 28.3 135.8 28.7 L 135.7 28.9 C 135.7 29 135.7 29 135.7 29 L 135.7 29.1 C 135.7 29.3 135.8 29.5 135.8 29.7 C 136.1 30.3 136.7 30.7 137.1 31 C 137.6 31.3 138.1 31.6 138.6 31.8 C 139.6 32.3 140.7 32.6 141.7 32.9 C 143.7 33.5 145.7 34 147.4 34.4 C 150.8 35.2 153.1 35.5 153.1 35.5 Z " id="Path" fill="#52391E" stroke-width="1"/>
          <path d="M 147.3 34.6 C 147.3 34.6 146.7 34.5 145.7 34.2 C 144.7 34 143.2 33.7 141.5 33.5 C 140.6 33.4 139.7 33.3 138.6 33.2 C 137.6 33.1 136.5 33.1 135.4 33.2 C 134.3 33.3 133.1 33.4 132 34.1 C 131.7 34.3 131.5 34.6 131.4 34.9 L 131.3 35.2 L 131.3 35.3 L 131.3 35.4 L 131.3 35.5 C 131.3 35.6 131.3 35.6 131.3 35.7 C 131.3 35.8 131.3 35.9 131.4 36 C 131.7 36.7 132.2 37.1 132.7 37.4 C 133.8 38 134.9 38.4 136 38.8 C 137.1 39.1 138.2 39.4 139.3 39.7 C 141.5 40.2 143.5 40.5 145.3 40.7 C 148.8 41.2 151.2 41.3 151.2 41.3 C 151.2 41.3 148.9 41 145.4 40.3 C 143.7 40 141.6 39.6 139.5 39.1 C 138.4 38.8 137.3 38.6 136.2 38.2 C 135.1 37.8 134 37.4 133 36.9 C 132.5 36.6 132.1 36.2 131.9 35.8 C 131.7 35.4 131.9 34.9 132.4 34.6 C 133.2 34 134.4 33.8 135.5 33.7 C 137.7 33.5 139.8 33.7 141.5 33.8 C 143.3 34 144.7 34.1 145.8 34.3 C 146.7 34.5 147.3 34.6 147.3 34.6 Z " id="Path" fill="#52391E" stroke-width="1"/>
          <path d="M 147.5 53.2 C 147.5 53.2 146.9 53.2 146 53.2 C 145 53.2 143.7 53.1 142 53 C 140.4 52.9 138.4 52.6 136.4 52.2 C 135.4 52 134.4 51.7 133.4 51.3 C 132.5 50.9 131.5 50.3 131.2 49.3 C 131.1 49 131.4 48.6 131.9 48.4 C 132.4 48.2 132.9 48.1 133.4 47.9 C 134.4 47.7 135.5 47.6 136.5 47.6 C 138.6 47.5 140.5 47.5 142.2 47.6 C 145.5 47.7 147.7 47.8 147.7 47.8 C 147.7 47.8 145.5 47.4 142.2 47.2 C 140.5 47.1 138.6 47 136.5 47 C 135.5 47 134.4 47.1 133.3 47.3 C 132.8 47.4 132.2 47.5 131.6 47.8 C 131.3 47.9 131 48.1 130.8 48.4 C 130.5 48.7 130.5 49.1 130.6 49.5 C 130.8 50.1 131.2 50.6 131.7 50.9 C 132.2 51.3 132.7 51.5 133.2 51.7 C 134.2 52.1 135.3 52.4 136.3 52.6 C 138.4 53 140.3 53.1 142 53.2 C 143.7 53.3 145.1 53.2 146 53.2 C 146.9 53.3 147.5 53.2 147.5 53.2 Z " id="Path" fill="#52391E" stroke-width="1"/>
          <path d="M 136 29.1 C 136 29.1 135.4 29 134.3 28.7 C 133.2 28.5 131.7 28.1 129.9 27.6 C 128.1 27.1 126 26.5 123.8 25.7 C 122.7 25.3 121.6 24.8 120.6 24.1 C 119.6 23.5 118.6 22.5 119 21.4 L 119 21.3 L 119 21.2 L 119.1 21 C 119.2 20.9 119.2 20.9 119.3 20.8 C 119.5 20.7 119.8 20.6 120.1 20.5 C 120.7 20.4 121.3 20.3 121.9 20.3 C 123.1 20.3 124.3 20.5 125.5 20.6 C 127.8 21 130 21.4 131.8 21.9 C 135.5 22.8 137.9 23.5 137.9 23.5 C 137.9 23.5 135.5 22.6 131.9 21.5 C 130.1 21 127.9 20.4 125.6 20 C 124.4 19.8 123.2 19.6 121.9 19.6 C 121.3 19.6 120.6 19.6 120 19.8 C 119.7 19.9 119.3 20 119 20.2 C 118.8 20.3 118.7 20.5 118.6 20.6 L 118.5 20.8 L 118.5 20.9 L 118.5 21 L 118.5 21.1 C 118.3 21.8 118.5 22.6 118.9 23.1 C 119.3 23.6 119.8 24.1 120.4 24.4 C 121.5 25.1 122.6 25.6 123.7 26 C 125.9 26.8 128.1 27.3 129.9 27.8 C 131.7 28.2 133.3 28.5 134.4 28.6 C 135.4 29 136 29.1 136 29.1 Z " id="Path" fill="#52391E" stroke-width="1"/>
          <path d="M 159.3 68.8 C 159.3 68.8 157.3 69.2 154.3 69.6 C 153.5 69.7 152.7 69.8 151.9 69.9 C 151 70 150.1 70.1 149.2 70.1 C 148.3 70.1 147.3 70.2 146.3 70.1 C 145.3 70 144.3 69.9 143.6 69.3 C 142.9 68.8 143.9 68 144.7 67.5 C 145.5 67 146.4 66.6 147.3 66.3 C 149.1 65.7 150.8 65.3 152.3 65 C 153.8 64.7 155.1 64.6 155.9 64.5 C 156.8 64.4 157.3 64.4 157.3 64.4 C 157.3 64.4 156.8 64.4 155.9 64.4 C 155 64.4 153.7 64.5 152.2 64.7 C 150.7 64.9 148.9 65.2 147.1 65.8 C 146.2 66.1 145.2 66.5 144.3 67 C 143.9 67.3 143.4 67.5 143 68 C 142.8 68.2 142.6 68.5 142.6 68.9 C 142.6 69.3 142.8 69.6 143.1 69.8 C 143.2 69.9 143.4 70 143.5 70.1 L 143.8 70.3 L 144.6 70.6 C 145.1 70.7 145.6 70.8 146.1 70.8 C 147.1 70.9 148.1 70.8 149.1 70.8 C 150.1 70.7 151 70.6 151.9 70.5 C 152.8 70.4 153.6 70.2 154.3 70.1 C 157.3 69.4 159.3 68.8 159.3 68.8 Z " id="Path" fill="#52391E" stroke-width="1"/>
        </g>
        <g id="Group">
          <g id="Path">
            <path d="M 221.9 180.6 C 222.7 185.7 227.5 194.9 229.8 194.9 C 232.1 194.9 236.6 192.8 237.7 194.7 C 238.8 196.6 230.6 197.7 230.6 197.7 C 230.6 197.7 238.1 199.8 238.5 202 C 238.9 204.3 226.1 199.6 226.1 199.6 C 226.1 199.6 229.3 206.4 227.4 207.1 C 225.5 207.9 223.1 204.8 221.6 200.2 C 220.1 195.6 215.4 183.9 215.4 183.9 L 221.9 180.6 Z " fill="#E0AB38" stroke-width="1"/>
            <path d="M 235.6 199.5 C 235.6 199.5 235.1 199.2 234.3 198.8 C 233.5 198.4 232.5 197.9 231.4 197.6 C 230.3 197.2 229.2 196.9 228.3 196.7 C 227.4 196.5 226.8 196.5 226.8 196.5 C 226.8 196.5 227.4 196.7 228.2 197 C 229 197.3 230.1 197.7 231.2 198.1 C 232.3 198.5 233.4 198.8 234.2 199.1 C 235.1 199.4 235.6 199.5 235.6 199.5 Z " fill="#B3872A" stroke-width="1"/>
            <path d="M 227.9 205.1 C 227.9 205.1 227.9 204.6 227.8 203.9 C 227.7 203.2 227.5 202.3 227.2 201.4 C 226.9 200.5 226.4 199.7 226 199.1 C 225.8 198.8 225.6 198.6 225.4 198.5 C 225.2 198.4 225.1 198.3 225.1 198.3 C 225.1 198.3 225.2 198.4 225.3 198.6 C 225.4 198.8 225.5 199 225.7 199.3 C 226 199.9 226.3 200.7 226.6 201.6 C 226.9 202.4 227.2 203.3 227.5 203.9 C 227.7 204.7 227.9 205.1 227.9 205.1 Z " fill="#B3872A" stroke-width="1"/>
            <path d="M 237.7 194.7 C 237.7 194.7 237.8 194.6 237.7 194.3 C 237.6 194.1 237.2 193.9 236.8 193.8 C 236 193.6 234.9 193.6 233.9 193.8 C 232.9 193.9 231.8 194.2 231.1 194.4 C 230.4 194.6 229.9 194.9 229.9 194.9 C 229.9 194.9 230.4 194.9 231.2 194.8 C 232 194.7 233 194.6 234 194.5 C 234.5 194.4 235 194.4 235.5 194.3 C 236 194.3 236.4 194.2 236.8 194.2 C 237.2 194.2 237.5 194.3 237.6 194.4 C 237.7 194.5 237.7 194.7 237.7 194.7 Z " fill="#B3872A" stroke-width="1"/>
            <path d="M 237.5 201 C 239.3 201.3 239.8 203.9 239.8 203.9 C 239.8 203.9 238.5 202 237 202 C 237.1 202 236.5 200.9 237.5 201 Z " fill="#3B342D" stroke-width="1"/>
            <path d="M 226.9 206 C 228.4 207.1 227.7 209.6 227.7 209.6 C 227.7 209.6 227.4 207.3 226.1 206.6 C 226.1 206.7 226.1 205.4 226.9 206 Z " fill="#3B342D" stroke-width="1"/>
            <path d="M 237.3 194.6 C 239.1 194.3 240.4 196.6 240.4 196.6 C 240.4 196.6 238.6 195.2 237.2 195.6 C 237.2 195.6 236.3 194.7 237.3 194.6 Z " fill="#3B342D" stroke-width="1"/>
          </g>
          <g id="Path">
            <path d="M 193 134.1 C 193.2 125.6 197.3 120 199.5 117.3 C 201.7 114.6 206.8 114.5 209.2 114.9 C 218.9 116.4 220.2 149.2 221.3 160.1 C 221.6 163.1 223 178.2 224.7 182.2 C 226.4 186.2 228.6 189.2 228.6 189.2 C 227.4 189.2 226.4 188.8 226.4 188.8 C 226.5 189.6 227.3 190.9 227.3 190.9 C 224.9 190.5 224.1 187.4 224.1 187.4 C 223.9 189 224.6 192.9 224.6 192.9 C 223 191.8 222.1 188.7 222.1 188.7 C 222.9 192.7 220.2 194.8 220.2 194.8 C 220.8 193.2 219.3 190 219.3 190 C 219.7 192.9 218.2 196 218.2 196 C 216.6 195.4 216.7 192.9 216.7 192.9 C 216.5 194.1 216.2 196.5 216.2 196.5 C 215.1 194.5 215.5 191.8 215.6 191.4 C 215.6 193.1 213.2 194.9 213.2 194.9 C 213.2 194.9 215 193.5 212.8 185.8 C 211.7 182.1 209 177 206 169.6 C 201.6 158.5 197.1 146.1 196.6 137.1 C 195.8 138.5 195 140.2 195 140.2 C 193.1 135.8 195.9 130.2 195.9 130.2 C 194.4 131.4 193 134.1 193 134.1 Z " fill="#694929" stroke-width="1"/>
            <path d="M 195.8 130.2 C 195.8 130.2 195.7 130.3 195.5 130.5 C 195.3 130.7 195.1 131.1 194.9 131.5 C 194.7 131.9 194.5 132.5 194.4 133.1 C 194.3 133.7 194.2 134.4 194.1 135 C 194.1 135.7 194.1 136.3 194.1 136.9 C 194.2 137.5 194.3 138.1 194.4 138.6 C 194.5 139.1 194.6 139.5 194.7 139.7 C 194.8 140 194.8 140.1 194.8 140.1 C 194.8 140.1 194.8 139.9 194.8 139.7 C 194.8 139.4 194.7 139 194.7 138.5 C 194.7 138 194.6 137.5 194.6 136.9 C 194.6 136.6 194.6 136.3 194.6 136 C 194.6 135.7 194.6 135.4 194.6 135.1 C 194.7 133.8 194.9 132.6 195.1 131.7 C 195.5 130.8 195.8 130.2 195.8 130.2 Z " fill="#423118" stroke-width="1"/>
            <path d="M 193 134.1 C 193 134.1 193.1 133.3 193.3 132.2 C 193.5 131.1 193.8 129.6 194.2 128.1 C 194.4 127.4 194.6 126.6 194.8 126 C 195 125.3 195.2 124.7 195.5 124.2 C 195.7 123.7 195.9 123.2 196 122.9 C 196.1 122.6 196.2 122.4 196.2 122.4 C 196.2 122.4 196.1 122.6 195.9 122.8 C 195.7 123.1 195.4 123.5 195.2 124 C 194.9 124.5 194.6 125.1 194.4 125.8 C 194.1 126.5 193.9 127.2 193.7 128 C 193.5 128.8 193.3 129.5 193.2 130.2 C 193.1 130.9 193 131.6 193 132.2 C 192.9 133.3 193 134.1 193 134.1 Z " fill="#423118" stroke-width="1"/>
            <g>
              <path d="M 213.1 195 C 213.1 195 213.2 194.8 213.4 194.4 C 213.6 194 213.8 193.3 213.9 192.5 C 214 191.6 214 190.6 213.8 189.4 C 213.6 188.2 213.2 186.9 212.7 185.5 C 210.6 180 207.5 172.8 204.7 165.4 C 203.3 161.7 201.9 158.1 200.8 154.6 C 199.6 151.1 198.6 147.8 198 145 C 197.7 143.6 197.4 142.3 197.2 141.1 C 197 139.9 196.9 138.9 196.8 138 C 196.7 137.1 196.7 136.5 196.7 136 C 196.7 135.5 196.7 135.3 196.7 135.3 C 196.7 135.3 196.7 135.5 196.7 136 C 196.7 136.5 196.7 137.1 196.7 138 C 196.8 139.7 197.1 142.2 197.7 145.1 C 198.3 148 199.2 151.3 200.4 154.8 C 201.5 158.3 202.9 162 204.3 165.7 C 205.7 169.4 207.2 173 208.7 176.4 C 210.1 179.8 211.5 182.9 212.6 185.7 C 213.1 187.1 213.6 188.3 213.8 189.5 C 214 190.7 214.1 191.7 214 192.6 C 213.9 193.5 213.8 194.1 213.6 194.5 C 213.2 194.8 213.1 195 213.1 195 Z " stroke-width="1" fill="#423118"/>
              <path d="M 228.6 189.2 C 228.6 189.2 228 188.5 227.2 187.1 C 226.4 185.7 225.3 183.7 224.5 181 C 224.1 179.7 223.9 178.2 223.7 176.6 C 223.5 175 223.3 173.4 223.1 171.6 C 222.7 168.2 222.3 164.5 221.9 160.8 C 221.5 157.1 221 153.4 220.6 150 C 220.2 146.6 219.8 143.3 219.4 140.6 C 219 137.8 218.7 135.6 218.5 134 C 218.3 132.4 218.1 131.5 218.1 131.5 C 218.1 131.5 218.2 132.4 218.4 134 C 218.6 135.6 218.8 137.9 219.1 140.7 C 219.4 143.5 219.7 146.7 220.1 150.1 C 220.5 153.6 220.9 157.2 221.3 160.9 C 221.8 164.6 222.2 168.3 222.6 171.7 C 222.8 173.4 223.1 175.1 223.3 176.7 C 223.6 178.3 223.8 179.8 224.2 181.1 C 225 183.8 226.3 185.8 227.2 187.1 C 228 188.5 228.6 189.2 228.6 189.2 Z " stroke-width="1" fill="#423118"/>
            </g>
            <path d="M 227.2 190.9 C 227.2 190.9 226.9 190.7 226.5 190.5 C 226.1 190.2 225.7 189.8 225.3 189.4 C 225.1 189.2 224.9 188.9 224.8 188.7 C 224.6 188.5 224.5 188.3 224.4 188.1 C 224.3 187.9 224.2 187.7 224.1 187.6 C 224 187.5 224 187.4 224 187.4 C 224 187.4 224 187.7 224.1 188.2 C 224.2 188.4 224.3 188.7 224.4 189 C 224.5 189.3 224.7 189.6 224.9 189.8 C 225.1 190 225.4 190.3 225.6 190.4 C 225.9 190.6 226.1 190.7 226.4 190.8 C 226.9 191 227.2 190.9 227.2 190.9 Z " fill="#423118" stroke-width="1"/>
            <path d="M 224.4 192.9 C 224.4 192.9 224.3 192.6 224 192.2 C 223.8 191.8 223.4 191.3 223.1 190.8 C 222.8 190.3 222.4 189.8 222.2 189.4 C 222.1 189.2 222 189 222 188.9 C 222 188.8 221.9 188.7 221.9 188.7 C 221.9 188.7 221.9 188.8 221.8 188.9 C 221.8 189 221.8 189.3 221.8 189.5 C 221.9 190 222.1 190.6 222.5 191.1 C 222.9 191.6 223.3 192.1 223.7 192.4 C 224.2 192.8 224.4 192.9 224.4 192.9 Z " fill="#423118" stroke-width="1"/>
            <path d="M 220.1 194.8 C 220.1 194.8 220.3 194.5 220.4 194 C 220.5 193.5 220.5 192.9 220.3 192.3 C 220.2 191.7 219.9 191.1 219.7 190.7 C 219.5 190.3 219.2 190.1 219.2 190.1 C 219.2 190.1 219.2 190.2 219.2 190.3 C 219.2 190.4 219.3 190.6 219.3 190.9 C 219.4 191.4 219.5 191.9 219.6 192.5 C 219.7 193.1 219.8 193.7 219.9 194.1 C 220.1 194.5 220.1 194.8 220.1 194.8 Z " fill="#423118" stroke-width="1"/>
            <path d="M 218.1 196.1 C 218.1 196.1 218 195.9 217.9 195.6 C 217.8 195.3 217.6 194.9 217.4 194.6 C 217.2 194.2 217.1 193.8 216.9 193.5 C 216.8 193.3 216.8 193.2 216.7 193.1 C 216.7 193 216.6 193 216.6 193 C 216.6 193 216.5 193.2 216.5 193.6 C 216.5 194 216.6 194.4 216.8 194.9 C 217 195.3 217.3 195.7 217.6 195.9 C 217.8 196 218.1 196.1 218.1 196.1 Z " fill="#423118" stroke-width="1"/>
            <path d="M 216.1 196.6 C 216.1 196.6 216 196.3 215.9 195.8 C 215.8 195.3 215.7 194.7 215.7 194.1 C 215.6 193.5 215.6 192.8 215.6 192.4 C 215.6 192.2 215.6 191.9 215.5 191.8 C 215.5 191.7 215.5 191.6 215.5 191.6 C 215.5 191.6 215.4 191.9 215.2 192.4 C 215.1 192.9 215 193.6 215.1 194.2 C 215.2 194.9 215.4 195.5 215.6 196 C 215.8 196.3 216.1 196.6 216.1 196.6 Z " fill="#423118" stroke-width="1"/>
          </g>
        </g>
        <g id="Group">
          <g id="Path">
            <path d="M 190.4 75 C 190.4 75 183.5 83.9 177.8 83.9 C 177.8 83.9 180.4 86.8 184.7 85.9 C 184.7 85.9 178.1 88.2 175.5 96.8 C 175.5 96.8 148 102.9 132.5 99.9 C 117 96.9 97.5 97.4 87 110.4 C 76.5 123.4 88 147.9 112 145.4 C 136 142.9 135 158.1 159 157.4 C 209 155.9 215.3 136.2 215.3 136.2 C 222.4 134.8 223.9 127.3 223.9 127.3 C 235.3 124.2 231.9 106.1 231.9 106.1 C 233.3 108.7 233.9 112.4 233.9 112.4 C 239 104.7 233 96.1 233 96.1 C 235.9 97.5 237.3 101.5 237.3 101.5 C 236.2 87.8 231.3 86.3 231.3 86.3 C 219 77.8 200.8 74.1 190.4 75 Z " fill="#704E2C" stroke-width="1"/>
            <path d="M 225.1 120.6 C 225.1 120.6 224.9 121.8 224.5 123.6 C 224.3 124.5 224 125.5 223.7 126.6 C 223.3 127.7 222.9 128.8 222.3 129.9 C 221.8 131 221.1 132 220.4 132.9 C 220 133.3 219.6 133.7 219.2 134.1 C 218.8 134.4 218.4 134.7 218 135 C 217.6 135.2 217.2 135.4 216.9 135.6 C 216.6 135.8 216.2 135.8 216 135.9 C 215.5 136 215.2 136.1 215.2 136.1 C 215.2 136.1 215.5 136.1 216.1 136 C 216.4 135.9 216.7 135.9 217.1 135.8 C 217.3 135.7 217.5 135.7 217.7 135.6 C 217.9 135.5 218.1 135.4 218.3 135.3 C 219.1 134.9 220.1 134.2 220.9 133.3 C 221.7 132.4 222.4 131.4 223 130.2 C 223.6 129.1 224 127.9 224.3 126.8 C 224.6 125.7 224.8 124.6 225 123.7 C 225.2 121.8 225.1 120.6 225.1 120.6 Z " fill="#423118" stroke-width="1"/>
            <path d="M 177.8 83.8 C 177.8 83.8 178.5 83.8 179.6 83.7 C 180.1 83.6 180.7 83.5 181.4 83.2 C 182 83 182.7 82.7 183.3 82.3 C 183.9 81.9 184.5 81.5 185 81.1 C 185.3 80.9 185.5 80.6 185.7 80.4 C 185.9 80.2 186.1 80 186.3 79.7 C 186.6 79.3 186.8 78.9 187 78.6 C 187.1 78.3 187.2 78.2 187.2 78.2 C 187.2 78.2 187.1 78.3 186.9 78.6 C 186.7 78.8 186.4 79.2 186 79.5 C 185.8 79.7 185.6 79.9 185.4 80.1 C 185.2 80.3 184.9 80.5 184.7 80.7 C 184.4 80.9 184.2 81.1 183.9 81.3 C 183.6 81.5 183.3 81.7 183 81.8 C 182.4 82.2 181.8 82.4 181.2 82.7 C 180.6 82.9 180 83.2 179.5 83.3 C 178.5 83.7 177.8 83.8 177.8 83.8 Z " fill="#423118" stroke-width="1"/>
            <path d="M 184.7 85.8 C 184.7 85.8 184.4 85.9 183.9 86 C 183.4 86.2 182.7 86.5 181.9 87 C 181.5 87.3 181.1 87.5 180.7 87.9 C 180.5 88.1 180.3 88.2 180.1 88.4 C 179.9 88.6 179.7 88.8 179.5 89 C 179.1 89.4 178.7 89.9 178.4 90.3 C 178.1 90.8 177.7 91.3 177.4 91.8 C 177.1 92.3 176.8 92.9 176.6 93.4 C 176.4 94 176.1 94.5 175.9 95 C 175.7 95.5 175.6 96.1 175.4 96.6 C 175.3 97.1 175.2 97.6 175.1 98 C 175 98.4 174.9 98.9 174.9 99.2 C 174.9 99.6 174.8 99.9 174.8 100.1 C 174.8 100.6 174.7 100.9 174.7 100.9 C 174.7 100.9 174.8 100.6 174.9 100.1 C 175 99.6 175.1 98.8 175.4 98 C 175.5 97.6 175.7 97.1 175.8 96.6 C 176 96.1 176.2 95.6 176.4 95.1 C 176.6 94.6 176.8 94.1 177.1 93.5 C 177.3 93 177.7 92.5 177.9 91.9 C 178.2 91.4 178.5 90.9 178.8 90.4 C 179.2 90 179.5 89.5 179.9 89.1 C 180.1 88.9 180.3 88.7 180.4 88.5 C 180.6 88.3 180.8 88.1 181 88 C 181.4 87.6 181.7 87.4 182.1 87.1 C 182.8 86.6 183.4 86.2 183.9 85.9 C 184.4 86 184.7 85.8 184.7 85.8 Z " fill="#423118" stroke-width="1"/>
            <path d="M 175.5 96.7 C 175.5 96.7 171.8 97.4 166.3 98.3 C 163.5 98.8 160.3 99.2 156.8 99.6 C 153.3 100 149.6 100.4 145.9 100.4 C 144 100.4 142.2 100.4 140.3 100.2 C 138.5 100 136.7 99.9 134.9 99.7 C 131.4 99.3 128.1 98.9 125.3 98.7 C 122.5 98.5 120.1 98.4 118.5 98.4 C 116.9 98.4 115.9 98.4 115.9 98.4 C 115.9 98.4 116.8 98.4 118.5 98.5 C 120.1 98.6 122.5 98.7 125.3 99 C 128.1 99.3 131.3 99.8 134.8 100.2 C 136.5 100.4 138.4 100.6 140.2 100.8 C 142 101 143.9 101.1 145.8 101.1 C 149.6 101 153.3 100.7 156.8 100.2 C 160.3 99.7 163.5 99.2 166.3 98.7 C 169.1 98.2 171.4 97.7 173 97.3 C 174.6 96.9 175.5 96.7 175.5 96.7 Z " fill="#423118" stroke-width="1"/>
          </g>
          <path d="M 209.8 143.2 C 209.8 143.2 209.5 143.5 208.9 143.9 C 208.3 144.4 207.4 145 206.2 145.8 C 203.8 147.4 200.1 149.3 195.5 151 C 190.9 152.7 185.3 154.1 179.2 155.1 C 176.2 155.6 173 156 169.8 156.3 C 166.6 156.6 163.3 156.9 160 157 C 156.7 157.1 153.5 157 150.3 156.5 C 147.1 156 144.1 155.1 141.3 153.8 C 139.9 153.1 138.6 152.4 137.4 151.6 C 136.2 150.8 135 149.9 133.7 149.2 C 131.2 147.8 128.7 146.9 126.3 146.3 C 121.5 145.1 117.3 145 114.5 145 C 111.6 145.1 110 145.4 110 145.4 C 110 145.4 111.6 145.2 114.5 145.1 C 117.4 145.1 121.5 145.3 126.2 146.6 C 128.6 147.3 131.1 148.2 133.5 149.6 C 134.7 150.3 135.9 151.1 137.1 152 C 138.3 152.8 139.7 153.6 141.1 154.3 C 143.9 155.7 147 156.6 150.2 157.1 C 153.4 157.6 156.7 157.8 160 157.6 C 163.3 157.5 166.6 157.1 169.8 156.9 C 173 156.6 176.2 156.2 179.2 155.7 C 185.3 154.7 190.9 153.1 195.5 151.4 C 200.1 149.7 203.7 147.6 206.1 146 C 207.3 145.2 208.2 144.5 208.8 144 C 209.5 143.4 209.8 143.2 209.8 143.2 Z " id="Path" fill="#423118" stroke-width="1"/>
          <path d="M 223.8 127.3 C 223.8 127.3 224.2 127.3 224.8 127 C 225.1 126.9 225.5 126.7 225.9 126.5 C 226.3 126.3 226.8 126 227.3 125.6 C 227.5 125.4 227.8 125.2 228 125 C 228.2 124.8 228.5 124.5 228.7 124.3 C 228.9 124.1 229.2 123.8 229.4 123.5 C 229.6 123.2 229.8 122.9 230 122.6 C 230.4 122 230.8 121.3 231 120.6 C 231.1 120.2 231.3 119.9 231.4 119.5 L 231.7 118.4 C 231.9 117.6 232 116.9 232.1 116.1 C 232.2 115.3 232.3 114.6 232.3 113.9 C 232.3 113.2 232.4 112.5 232.3 111.8 C 232.3 111.1 232.2 110.5 232.2 109.9 C 232.2 109.3 232.1 108.8 232 108.3 C 231.9 107.8 231.9 107.4 231.8 107.1 C 231.7 106.4 231.6 106.1 231.6 106.1 C 231.6 106.1 231.6 106.5 231.6 107.2 C 231.6 107.5 231.6 107.9 231.7 108.4 C 231.7 108.9 231.8 109.4 231.8 110 C 231.8 110.6 231.8 111.2 231.8 111.9 C 231.8 112.6 231.7 113.2 231.7 114 C 231.7 114.7 231.6 115.5 231.5 116.2 C 231.4 116.9 231.3 117.7 231 118.4 L 230.7 119.5 C 230.6 119.9 230.4 120.2 230.3 120.5 C 230.1 121.2 229.7 121.8 229.4 122.5 C 229.2 122.8 229 123.1 228.8 123.4 C 228.6 123.7 228.4 124 228.2 124.2 C 228 124.4 227.8 124.7 227.6 124.9 C 227.4 125.1 227.2 125.3 227 125.5 C 226.8 125.7 226.6 125.8 226.4 126 C 226.2 126.2 226 126.3 225.8 126.4 C 225.4 126.7 225 126.8 224.7 127 C 224.2 127.2 223.8 127.3 223.8 127.3 Z " id="Path" fill="#423118" stroke-width="1"/>
          <path d="M 233.8 112.4 C 233.8 112.4 234.5 111.6 235.1 110 C 235.3 109.6 235.4 109.2 235.5 108.7 C 235.6 108.2 235.8 107.8 235.8 107.3 C 235.9 106.8 235.9 106.3 235.9 105.7 C 235.9 105.2 235.9 104.6 235.9 104.1 C 235.8 103.6 235.8 103 235.7 102.5 C 235.6 102 235.5 101.5 235.3 101 C 235.1 100.5 235 100.1 234.8 99.6 C 234.6 99.2 234.4 98.8 234.3 98.4 C 234 97.7 233.6 97.1 233.3 96.7 C 233 96.3 232.9 96.1 232.9 96.1 C 232.9 96.1 233 96.3 233.2 96.8 C 233.4 97.2 233.7 97.8 234 98.6 C 234.1 99 234.3 99.4 234.4 99.8 C 234.5 100.2 234.6 100.7 234.8 101.2 C 234.9 101.7 235 102.2 235.1 102.7 C 235.2 103.2 235.2 103.7 235.3 104.3 C 235.3 104.8 235.4 105.3 235.4 105.9 C 235.4 106.4 235.4 106.9 235.3 107.4 C 235.2 108.4 235 109.3 234.8 110.1 C 234.4 111.5 233.8 112.4 233.8 112.4 Z " id="Path" fill="#423118" stroke-width="1"/>
          <path d="M 237.3 101.6 C 237.3 101.6 237.3 100.5 237.2 99 C 237.1 98.2 237 97.3 236.8 96.3 C 236.6 95.3 236.4 94.3 236.1 93.3 C 235.9 92.8 235.8 92.3 235.6 91.8 C 235.4 91.3 235.2 90.8 235 90.4 C 234.9 90.2 234.8 89.9 234.7 89.7 C 234.6 89.5 234.4 89.3 234.3 89.1 C 234.1 88.7 233.8 88.4 233.5 88.1 C 233.3 87.8 233 87.5 232.7 87.3 C 232.5 87.1 232.2 86.9 232 86.8 C 231.6 86.6 231.4 86.5 231.4 86.5 C 231.4 86.5 231.6 86.7 232 86.9 C 232.2 87 232.4 87.2 232.6 87.5 C 232.8 87.7 233.1 88 233.3 88.3 C 233.5 88.6 233.8 89 234 89.4 C 234.2 89.8 234.4 90.2 234.6 90.7 C 234.8 91.1 235 91.6 235.2 92.1 C 235.4 92.6 235.5 93.1 235.7 93.6 C 236 94.6 236.3 95.6 236.5 96.6 C 236.7 97.6 236.9 98.4 237.1 99.2 C 237.1 100.5 237.3 101.6 237.3 101.6 Z " id="Path" fill="#423118" stroke-width="1"/>
        </g>
        <g id="Group">
          <g id="Path">
            <path d="M 226.7 49.3 C 226.7 49.3 223.2 37.5 213.2 33.7 C 213.2 33.7 213.1 38.5 214.9 40.7 C 214.9 40.7 212.6 38 212.2 37 C 212.3 37 212.1 50.2 226.7 49.3 Z " fill="#EBDFD4" stroke-width="1"/>
            <path d="M 223.2 49.4 C 223.2 49.4 222.9 49.3 222.4 49.2 C 221.9 49.1 221.3 48.8 220.5 48.5 C 220.1 48.3 219.7 48.2 219.3 47.9 C 218.9 47.7 218.4 47.4 218 47.2 C 217.6 46.9 217.1 46.6 216.7 46.3 C 216.3 45.9 215.9 45.6 215.5 45.2 C 215.1 44.8 214.8 44.4 214.5 43.9 C 214.1 43.5 214 43 213.7 42.5 C 213.5 42 213.3 41.6 213.1 41.1 C 212.9 40.7 212.8 40.2 212.7 39.8 C 212.6 39.4 212.5 39 212.5 38.7 C 212.5 38.4 212.4 38.1 212.4 37.8 C 212.3 37.3 212.3 37 212.3 37 C 212.3 37 212.3 37.3 212.3 37.8 C 212.3 38.1 212.3 38.4 212.3 38.7 C 212.3 39.1 212.4 39.4 212.4 39.9 C 212.5 40.3 212.5 40.8 212.7 41.3 C 212.9 41.8 213 42.3 213.2 42.8 C 213.5 43.3 213.6 43.8 214 44.3 C 214.3 44.8 214.6 45.3 215.1 45.7 C 215.5 46.1 215.9 46.5 216.4 46.9 C 216.8 47.3 217.3 47.6 217.8 47.9 C 218.3 48.2 218.7 48.4 219.2 48.6 C 219.7 48.8 220.1 49 220.5 49.1 C 221.3 49.4 222 49.5 222.5 49.6 C 222.9 49.4 223.2 49.4 223.2 49.4 Z " fill="#B5987C" stroke-width="1"/>
            <path d="M 215 40.8 C 215 40.8 214.8 40.4 214.6 39.7 C 214.4 39.1 214.1 38.2 213.9 37.3 C 213.7 36.4 213.5 35.5 213.4 34.9 C 213.3 34.6 213.3 34.3 213.3 34.1 C 213.3 33.9 213.3 33.8 213.3 33.8 C 213.3 33.8 213.3 33.9 213.2 34.1 C 213.2 34.3 213.1 34.6 213.1 34.9 C 213.1 35.3 213.1 35.7 213.1 36.1 C 213.1 36.5 213.2 37 213.3 37.5 C 213.5 38.4 213.9 39.3 214.3 39.9 C 214.7 40.4 215 40.8 215 40.8 Z " fill="#B5987C" stroke-width="1"/>
            <path d="M 226.7 49.3 C 226.7 49.3 226.4 48.2 225.7 46.7 C 225.4 46 225 45.1 224.5 44.2 C 224 43.3 223.4 42.4 222.8 41.4 C 222.2 40.5 221.5 39.6 220.8 38.8 C 220.4 38.4 220.1 38.1 219.8 37.7 C 219.4 37.4 219.1 37.1 218.8 36.8 C 218.5 36.5 218.2 36.3 217.9 36.1 C 217.6 35.9 217.4 35.8 217.2 35.7 C 216.8 35.5 216.5 35.3 216.5 35.3 C 216.5 35.3 216.7 35.5 217.1 35.8 C 217.3 35.9 217.5 36.1 217.8 36.3 C 218 36.5 218.3 36.8 218.6 37 C 218.9 37.3 219.2 37.6 219.5 37.9 C 219.8 38.3 220.1 38.6 220.5 39 C 221.1 39.8 221.8 40.6 222.4 41.6 C 223 42.5 223.6 43.4 224.1 44.3 C 224.6 45.2 225.1 46 225.5 46.7 C 225.9 47.4 226.2 48 226.4 48.4 C 226.6 49 226.7 49.3 226.7 49.3 Z " fill="#B5987C" stroke-width="1"/>
          </g>
          <g>
            <path d="M 191.4 88.7 C 191.7 87.1 194.8 83.7 194.8 83.7 C 190.4 86.5 183.5 83.1 183.5 83.1 C 185.4 83.1 190.1 78.4 190.1 78.4 C 185.7 80.3 180.7 78.1 180.7 78.1 C 184.1 78.1 187.3 75 187.3 75 C 183.5 77.5 178.9 74.4 178.9 74.4 C 178.9 74.4 184.8 72.8 187.3 64.7 C 189.8 56.6 196.4 55 196.4 55 C 194.8 55 192 55.3 192 55.3 C 197.9 47.2 203.9 49.4 203.9 49.4 C 201.7 49.1 199.8 46.3 199.8 46.3 C 199.8 46.3 206.7 47.2 214.4 45 C 228.8 40.9 239.6 49.1 241.4 56.2 C 242.9 62 243.8 69.6 238 72.3 C 232.2 75 228.6 78.7 230.4 81.4 C 232.2 84.1 234 87.2 232.2 93.3 C 232.2 93.3 231.6 89.7 229.5 87.2 C 229.5 87.2 232.2 96.6 225.5 100 C 225.5 100 225.2 96.4 224 93.3 C 224 93.3 223.7 100.9 221.3 102.4 C 221.3 102.4 217 100.9 215.8 91.5 C 215.8 91.5 216.1 98.5 217 100.9 C 217 100.9 208.8 97.6 208.2 89 C 208.2 89 207 93.9 208.8 97.5 C 208.8 97.5 200.9 95.1 200.9 86.3 C 200.9 86.3 199.7 91.8 197.3 93.3 C 197.3 93.3 196.4 88.7 197.3 84.8 C 196.1 86.7 194.1 88.1 191.4 88.7 Z " id="Path" fill="#EBDFD4" stroke-width="1"/>
            <ellipse id="Oval" fill="#473322" cx="16.4" cy="17.5" rx="1.3" ry="2.3" stroke-width="1" transform="matrix(-1,0,0,1,243,43)"/>
            <path d="M 233.7 57.3 C 233.7 57.3 233.7 57.3 233.6 57.4 C 233.5 57.5 233.4 57.6 233.3 57.7 C 233.2 57.8 233 57.9 232.8 58 C 232.6 58.1 232.4 58.2 232.1 58.2 C 231.6 58.3 230.9 58.4 230.2 58.4 C 229.5 58.4 228.8 58.4 228 58.3 C 227.3 58.3 226.5 58.2 225.8 58.1 C 225.1 58 224.4 57.9 223.9 57.9 C 222.8 57.7 222 57.7 222 57.7 C 222 57.7 222.7 58 223.8 58.3 C 224.4 58.4 225 58.6 225.7 58.7 C 226.4 58.8 227.2 58.9 227.9 59 C 228.3 59 228.7 59 229 59 C 229.4 59 229.8 59 230.1 59 C 230.5 59 230.8 58.9 231.1 58.9 C 231.4 58.8 231.7 58.7 232 58.6 C 232.6 58.4 233 58.1 233.2 57.8 C 233.7 57.5 233.7 57.3 233.7 57.3 Z " id="Path" fill="#B5987C" stroke-width="1"/>
            <path d="M 192 55.3 C 192 55.3 192.5 54.6 193.4 53.7 C 193.9 53.2 194.4 52.7 195.1 52.3 C 195.8 51.8 196.5 51.3 197.2 51 C 197.6 50.8 198 50.6 198.4 50.5 C 198.8 50.3 199.2 50.2 199.6 50.1 C 200 50 200.4 49.9 200.7 49.8 C 201.1 49.7 201.4 49.7 201.7 49.6 C 202 49.6 202.3 49.5 202.6 49.5 C 202.9 49.5 203.1 49.5 203.3 49.5 C 203.7 49.5 203.9 49.5 203.9 49.5 C 203.9 49.5 203.7 49.5 203.3 49.4 C 203.1 49.4 202.9 49.4 202.6 49.3 C 202.3 49.3 202 49.3 201.7 49.3 C 201.4 49.3 201 49.3 200.6 49.4 C 200.2 49.5 199.8 49.5 199.4 49.6 C 199 49.7 198.6 49.8 198.2 50 C 197.8 50.2 197.4 50.3 197 50.5 C 196.6 50.7 196.2 50.9 195.8 51.2 C 195.4 51.4 195.1 51.7 194.8 52 C 194.2 52.5 193.6 53.1 193.2 53.6 C 192.8 54.1 192.5 54.6 192.3 54.9 C 192.1 55.1 192 55.3 192 55.3 Z " id="Path" fill="#B5987C" stroke-width="1"/>
            <path d="M 199.8 46.2 C 199.8 46.2 200.5 46.3 201.6 46.4 C 202.8 46.5 204.5 46.7 206.5 46.7 C 207.5 46.7 208.6 46.6 209.8 46.5 C 210.4 46.4 211 46.3 211.6 46.1 C 212.2 45.9 212.8 45.7 213.4 45.5 C 214.6 45.1 215.8 44.8 217.1 44.6 C 217.7 44.5 218.4 44.4 219.1 44.3 C 219.8 44.2 220.4 44.2 221.1 44.1 C 222.4 44 223.8 44.1 225.1 44.2 C 225.8 44.2 226.4 44.4 227 44.5 C 227.6 44.6 228.2 44.8 228.8 44.9 C 229.4 45.1 230 45.2 230.5 45.5 C 231.1 45.7 231.6 45.9 232.1 46.2 C 232.6 46.5 233.1 46.7 233.6 47 C 234.1 47.2 234.5 47.6 234.9 47.9 C 235.3 48.2 235.7 48.4 236.1 48.7 C 236.4 49 236.8 49.3 237.1 49.6 C 237.4 49.9 237.7 50.1 238 50.4 C 238.2 50.7 238.5 50.9 238.7 51.1 C 239.5 52 239.9 52.5 239.9 52.5 C 239.9 52.5 239.5 52 238.7 51.1 C 238.5 50.9 238.3 50.6 238.1 50.3 C 237.8 50.1 237.6 49.8 237.3 49.5 C 237 49.2 236.7 48.9 236.4 48.6 C 236.1 48.3 235.6 48 235.2 47.7 C 234.8 47.4 234.4 47 233.9 46.8 C 233.4 46.5 232.9 46.2 232.4 45.9 C 231.9 45.6 231.3 45.4 230.8 45.2 C 230.2 44.9 229.6 44.8 229 44.6 C 228.4 44.4 227.8 44.2 227.1 44.1 C 226.5 44 225.8 43.8 225.1 43.8 C 223.8 43.6 222.4 43.6 221 43.7 C 220.3 43.7 219.6 43.8 219 43.9 C 218.3 44 217.7 44.1 217 44.2 C 215.7 44.5 214.4 44.8 213.2 45.2 C 212.6 45.4 212 45.7 211.5 45.8 C 210.9 46 210.4 46.1 209.8 46.2 C 208.7 46.4 207.6 46.5 206.6 46.5 C 204.6 46.6 202.9 46.5 201.7 46.5 C 200.5 46.2 199.8 46.2 199.8 46.2 Z " id="Path" fill="#B5987C" stroke-width="1"/>
            <path d="M 178.9 74.3 C 178.9 74.3 179.3 74.2 180 73.9 C 180.7 73.6 181.7 73.1 182.7 72.3 C 183.7 71.5 184.8 70.4 185.6 69 C 186 68.3 186.3 67.6 186.7 66.8 C 187 66 187.4 65.3 187.7 64.5 C 188 63.7 188.4 63 188.7 62.2 C 189.1 61.5 189.5 60.8 189.9 60.1 C 190.1 59.8 190.4 59.5 190.6 59.2 C 190.8 58.9 191.1 58.6 191.3 58.4 C 191.8 57.9 192.3 57.4 192.8 57 C 193.3 56.6 193.8 56.3 194.2 56 C 194.7 55.8 195 55.5 195.4 55.4 C 196 55.1 196.4 55 196.4 55 C 196.4 55 196 55.1 195.3 55.3 C 194.9 55.4 194.5 55.6 194.1 55.8 C 193.6 56 193.1 56.3 192.6 56.7 C 192.1 57.1 191.5 57.5 191 58 C 190.7 58.3 190.5 58.6 190.2 58.8 C 190 59.1 189.7 59.4 189.5 59.7 C 189 60.4 188.6 61.1 188.2 61.8 C 187.8 62.5 187.4 63.3 187.1 64.1 C 186.8 64.9 186.4 65.7 186.1 66.4 C 185.8 67.1 185.5 67.9 185.1 68.6 C 184.4 70 183.4 71.1 182.5 71.9 C 181.6 72.7 180.7 73.3 180 73.6 C 179.3 74.2 178.9 74.3 178.9 74.3 Z " id="Path" fill="#B5987C" stroke-width="1"/>
            <path d="M 225.6 100 C 225.6 100 225.8 100 226.2 99.8 C 226.6 99.6 227.1 99.3 227.6 98.9 C 227.9 98.7 228.1 98.4 228.4 98.1 C 228.7 97.8 228.9 97.4 229.1 97.1 C 229.3 96.7 229.5 96.3 229.7 95.9 C 229.9 95.5 230 95 230.1 94.6 L 230.2 93.9 L 230.3 93.2 C 230.4 92.7 230.4 92.3 230.4 91.9 C 230.4 91.5 230.4 91.1 230.3 90.7 C 230.2 90.3 230.2 89.9 230.2 89.6 C 230.1 88.9 229.9 88.4 229.8 88 C 229.7 87.6 229.6 87.4 229.6 87.4 C 229.6 87.4 229.6 87.6 229.6 88 C 229.6 88.4 229.7 89 229.7 89.6 C 229.7 89.9 229.7 90.3 229.7 90.7 C 229.7 91.1 229.7 91.5 229.7 91.9 C 229.7 92.3 229.7 92.7 229.6 93.2 L 229.5 93.9 L 229.4 94.5 C 229.3 94.9 229.2 95.4 229.1 95.8 C 229 96.2 228.8 96.6 228.6 97 C 228.4 97.3 228.2 97.7 228 98 C 227.8 98.3 227.6 98.6 227.3 98.8 C 227.1 99 226.9 99.3 226.7 99.4 C 226.5 99.6 226.3 99.7 226.1 99.8 C 225.8 99.9 225.6 100 225.6 100 Z " id="Path" fill="#B5987C" stroke-width="1"/>
            <path d="M 232.2 93.3 C 232.2 93.3 232.6 92.6 233 91.5 C 233.2 90.9 233.3 90.2 233.3 89.5 C 233.3 89.1 233.3 88.7 233.3 88.3 C 233.3 87.9 233.2 87.5 233.2 87.1 C 233.1 86.7 233 86.3 232.9 85.9 C 232.8 85.5 232.6 85.2 232.5 84.8 C 232.3 84.5 232.2 84.1 232 83.8 C 231.9 83.5 231.7 83.2 231.5 83 C 231.2 82.5 230.9 82.1 230.7 81.8 C 230.5 81.5 230.4 81.4 230.4 81.4 C 230.4 81.4 230.5 81.6 230.6 81.9 C 230.8 82.2 231 82.6 231.2 83.2 C 231.3 83.5 231.5 83.7 231.6 84.1 C 231.7 84.4 231.8 84.7 232 85.1 C 232.1 85.4 232.2 85.8 232.3 86.2 C 232.4 86.6 232.5 86.9 232.5 87.3 C 232.5 87.7 232.6 88.1 232.6 88.4 C 232.6 88.8 232.7 89.1 232.7 89.5 C 232.7 90.2 232.7 90.9 232.6 91.5 C 232.5 92.5 232.2 93.3 232.2 93.3 Z " id="Path" fill="#B5987C" stroke-width="1"/>
            <path d="M 221.3 102.4 C 221.3 102.4 221.5 102.4 221.7 102.2 C 221.9 102 222.2 101.8 222.5 101.4 C 222.8 101 223 100.5 223.2 100 C 223.4 99.5 223.6 98.9 223.7 98.3 C 223.9 97.6 224 97 224 96.4 C 224.1 95.8 224.1 95.3 224.1 94.8 C 224.1 93.9 224 93.3 224 93.3 C 224 93.3 223.9 93.9 223.7 94.8 C 223.5 95.7 223.3 96.9 223.1 98.1 C 223 98.7 222.8 99.3 222.7 99.8 C 222.5 100.3 222.4 100.8 222.2 101.2 C 222 101.6 221.8 101.9 221.7 102.1 C 221.4 102.3 221.3 102.4 221.3 102.4 Z " id="Path" fill="#B5987C" stroke-width="1"/>
            <path d="M 217 100.9 C 217 100.9 216.1 100.4 215 99.6 C 214.7 99.4 214.4 99.2 214.1 98.9 C 213.8 98.6 213.5 98.3 213.1 98.1 C 212.4 97.5 211.8 96.8 211.2 96 C 210.9 95.6 210.6 95.3 210.4 94.9 C 210.1 94.5 209.9 94.1 209.7 93.7 C 209.5 93.3 209.3 92.9 209.2 92.5 C 209 92.1 208.9 91.8 208.8 91.4 C 208.7 91.1 208.6 90.7 208.5 90.5 C 208.4 90.2 208.4 90 208.3 89.8 C 208.2 89.4 208.2 89.1 208.2 89.1 C 208.2 89.1 208.2 89.3 208.2 89.8 C 208.2 90 208.2 90.3 208.2 90.6 C 208.2 90.9 208.3 91.2 208.4 91.6 C 208.5 92 208.6 92.4 208.7 92.8 C 208.8 93.2 209 93.6 209.2 94 C 209.4 94.4 209.6 94.9 209.9 95.3 C 210.1 95.7 210.4 96.1 210.7 96.5 C 211.3 97.3 212 98 212.7 98.6 C 213.4 99.2 214.1 99.7 214.8 100 C 216.1 100.6 217 100.9 217 100.9 Z " id="Path" fill="#B5987C" stroke-width="1"/>
            <path d="M 208.8 97.5 C 208.8 97.5 208.6 97.4 208.2 97.3 C 207.8 97.1 207.3 96.9 206.7 96.5 C 206.4 96.3 206.1 96.1 205.8 95.9 C 205.5 95.6 205.2 95.4 204.9 95.1 C 204.7 95 204.6 94.8 204.4 94.7 C 204.3 94.5 204.1 94.4 204 94.2 C 203.7 93.9 203.5 93.5 203.2 93.1 C 202.9 92.7 202.7 92.3 202.5 92 C 202.3 91.6 202.1 91.2 202 90.8 C 201.9 90.4 201.7 90 201.6 89.6 C 201.5 89.2 201.4 88.9 201.3 88.5 C 201.1 87.8 201.1 87.3 201 86.9 C 200.9 86.5 200.9 86.3 200.9 86.3 C 200.9 86.3 200.9 86.5 200.9 86.9 C 200.9 87.3 200.9 87.9 201 88.6 C 201.1 88.9 201.1 89.3 201.2 89.7 C 201.3 90.1 201.4 90.5 201.5 90.9 C 201.7 91.3 201.8 91.7 202 92.2 C 202.2 92.6 202.4 93 202.7 93.4 C 203 93.8 203.2 94.2 203.6 94.5 C 203.9 94.9 204.2 95.2 204.6 95.5 C 204.9 95.8 205.3 96 205.6 96.3 C 206 96.5 206.3 96.7 206.6 96.8 C 207.2 97.1 207.8 97.3 208.2 97.4 C 208.6 97.5 208.8 97.5 208.8 97.5 Z " id="Path" fill="#B5987C" stroke-width="1"/>
            <path d="M 197.3 93.3 C 197.3 93.3 197.3 92.8 197.2 92 C 197.2 91.2 197.1 90.1 197.1 89.1 C 197.1 88 197.1 87 197.1 86.2 C 197.1 85.8 197.2 85.5 197.2 85.2 C 197.2 85 197.2 84.8 197.2 84.8 C 197.2 84.8 196.9 85.3 196.7 86.1 C 196.5 86.9 196.3 88 196.4 89.1 C 196.4 90.2 196.6 91.3 196.8 92.1 C 197.1 92.8 197.3 93.3 197.3 93.3 Z " id="Path" fill="#B5987C" stroke-width="1"/>
            <path d="M 191.4 88.7 C 191.4 88.7 191.6 88.4 192 87.9 C 192.3 87.4 192.7 86.8 193.1 86.1 C 193.5 85.5 193.9 84.8 194.2 84.4 C 194.4 84.2 194.5 84 194.6 83.9 C 194.7 83.8 194.8 83.7 194.8 83.7 C 194.8 83.7 194.7 83.7 194.5 83.8 C 194.4 83.8 194.3 83.9 194.2 83.9 C 194.1 84 194 84 193.9 84.1 C 193.4 84.5 192.9 85.1 192.5 85.8 C 192.1 86.5 191.8 87.2 191.6 87.7 C 191.4 88.3 191.4 88.7 191.4 88.7 Z " id="Path" fill="#B5987C" stroke-width="1"/>
            <path d="M 183.5 83.1 C 183.5 83.1 184 83 184.7 82.8 C 185.4 82.5 186.4 82.1 187.2 81.4 C 187.6 81.1 188 80.7 188.3 80.4 C 188.6 80.1 188.9 79.7 189.2 79.4 C 189.7 78.8 190 78.4 190 78.4 C 190 78.4 189.6 78.7 188.9 79.1 C 188.6 79.3 188.2 79.6 187.9 79.9 C 187.5 80.2 187.2 80.5 186.8 80.8 C 186 81.4 185.2 81.9 184.5 82.3 C 184 82.8 183.5 83.1 183.5 83.1 Z " id="Path" fill="#B5987C" stroke-width="1"/>
            <path d="M 180.7 78.1 C 180.7 78.1 181.2 78.2 181.9 78.1 C 182.6 78 183.6 77.9 184.4 77.5 C 184.8 77.3 185.3 77.1 185.6 76.8 C 186 76.5 186.3 76.2 186.5 76 C 186.7 75.7 186.9 75.5 187 75.3 C 187.1 75.1 187.2 75 187.2 75 C 187.2 75 187.1 75.1 186.9 75.2 C 186.8 75.3 186.5 75.5 186.2 75.7 C 185.9 75.9 185.6 76.1 185.2 76.3 C 184.8 76.5 184.4 76.7 184 76.9 C 183.2 77.3 182.3 77.6 181.7 77.8 C 181.2 78 180.7 78.1 180.7 78.1 Z " id="Path" fill="#B5987C" stroke-width="1"/>
          </g>
          <g id="Path">
            <path d="M 218.8 51.5 C 218.8 51.5 214 40.1 203.7 37.5 C 203.7 37.5 204.1 42.3 206.2 44.3 C 206.2 44.3 203.6 41.9 203.1 40.9 C 203.1 40.8 204.3 54 218.8 51.5 Z " fill="#EBDFD4" stroke-width="1"/>
            <path d="M 215.3 52 C 215.3 52 215 52 214.5 51.9 C 214 51.8 213.3 51.7 212.5 51.4 C 212.1 51.3 211.7 51.2 211.2 51 C 210.7 50.8 210.3 50.6 209.8 50.4 C 209.3 50.2 208.9 49.9 208.4 49.6 C 208 49.3 207.5 49 207.1 48.6 C 206.7 48.3 206.3 47.8 205.9 47.4 C 205.5 47 205.3 46.5 205 46.1 C 204.7 45.7 204.5 45.2 204.3 44.8 C 204.1 44.4 204 43.9 203.8 43.5 C 203.7 43.1 203.5 42.7 203.4 42.4 C 203.3 42.1 203.3 41.8 203.2 41.5 C 203.1 41 203 40.7 203 40.7 C 203 40.7 203 41 203.1 41.5 C 203.1 41.7 203.2 42.1 203.2 42.4 C 203.2 42.8 203.3 43.1 203.4 43.5 C 203.5 43.9 203.6 44.4 203.8 44.8 C 204 45.2 204.2 45.8 204.5 46.2 C 204.8 46.6 205.1 47.2 205.5 47.6 C 205.9 48 206.2 48.5 206.7 48.9 C 207.1 49.3 207.6 49.6 208.1 49.9 C 208.6 50.2 209.1 50.5 209.6 50.7 C 210.1 50.9 210.6 51.1 211.1 51.2 C 211.6 51.4 212 51.5 212.5 51.5 C 213.3 52 214 52 214.5 52 C 215 52 215.3 52 215.3 52 Z " fill="#B5987C" stroke-width="1"/>
            <path d="M 206.2 44.3 C 206.2 44.3 206 43.9 205.7 43.3 C 205.4 42.7 205 41.9 204.7 41 C 204.4 40.2 204.1 39.3 204 38.6 C 203.9 38.3 203.8 38 203.8 37.8 C 203.8 37.6 203.7 37.5 203.7 37.5 C 203.7 37.5 203.7 37.6 203.7 37.8 C 203.7 38 203.6 38.3 203.7 38.7 C 203.7 39.1 203.7 39.5 203.8 39.9 C 203.9 40.3 204 40.8 204.2 41.2 C 204.5 42.1 205 42.9 205.5 43.5 C 205.8 44 206.2 44.3 206.2 44.3 Z " fill="#B5987C" stroke-width="1"/>
            <path d="M 218.8 51.5 C 218.8 51.5 218.4 50.5 217.6 49.1 C 217.2 48.4 216.7 47.6 216.1 46.7 C 215.5 45.9 214.8 45 214.1 44.1 C 213.4 43.3 212.6 42.5 211.8 41.8 C 211.4 41.5 211 41.1 210.6 40.8 C 210.2 40.5 209.8 40.3 209.5 40 C 209.1 39.8 208.8 39.6 208.5 39.4 C 208.2 39.2 207.9 39.1 207.7 39 C 207.3 38.8 207 38.7 207 38.7 C 207 38.7 207.2 38.8 207.6 39.1 C 207.8 39.2 208.1 39.3 208.3 39.6 C 208.6 39.8 208.9 40 209.2 40.2 C 209.5 40.5 209.8 40.7 210.2 41 C 210.5 41.3 210.9 41.7 211.3 42 C 212 42.7 212.8 43.5 213.5 44.3 C 214.2 45.1 214.9 46 215.5 46.8 C 216.1 47.6 216.7 48.4 217.1 49 C 217.6 49.7 218 50.2 218.2 50.6 C 218.7 51.3 218.8 51.5 218.8 51.5 Z " fill="#B5987C" stroke-width="1"/>
          </g>
          <g id="Path">
            <path d="M 241.4 56.1 C 247.5 59.5 256.6 62.7 253.6 74.2 C 253.6 74.2 251.5 69.9 249.1 69.9 C 246.7 69.9 236.6 72 232 69.4 C 227.4 66.8 233.9 65.9 236.3 65.9 C 238.7 65.9 241.4 56.1 241.4 56.1 Z " fill="#FBBF3F" stroke-width="1"/>
            <path d="M 253.6 74.2 C 253.6 74.2 252.9 72.9 251.6 71.1 C 251.3 70.7 250.9 70.2 250.4 69.7 C 250 69.2 249.5 68.8 248.9 68.3 C 248.4 67.9 247.7 67.5 247 67.2 C 246.3 66.9 245.4 66.8 244.7 66.9 C 243.2 67 241.8 67.3 240.4 67.6 C 239.1 67.9 237.8 68.2 236.8 68.4 C 236.3 68.5 235.8 68.6 235.3 68.6 C 234.9 68.7 234.5 68.7 234.2 68.7 C 233.9 68.7 233.6 68.7 233.5 68.6 C 233.3 68.6 233.2 68.6 233.2 68.6 C 233.2 68.6 233.5 68.8 234.2 68.8 C 234.5 68.8 234.9 68.9 235.4 68.9 C 235.8 68.9 236.4 68.9 236.9 68.8 C 238 68.7 239.3 68.5 240.6 68.2 C 241.9 68 243.4 67.7 244.8 67.6 C 245.6 67.5 246.2 67.6 246.8 67.8 C 247.4 68.1 248 68.4 248.5 68.8 C 249.6 69.6 250.5 70.5 251.2 71.3 C 251.9 72.1 252.5 72.8 252.9 73.3 C 253.4 73.9 253.6 74.2 253.6 74.2 Z " fill="#B38637" stroke-width="1"/>
            <path d="M 244.1 60.8 C 244.1 60.8 243.9 60.7 243.6 60.8 C 243.3 60.8 242.9 60.9 242.5 61.1 C 242.3 61.2 242.1 61.4 242 61.5 C 241.9 61.7 241.8 61.9 241.7 62 C 241.6 62.3 241.7 62.5 241.7 62.5 C 241.7 62.5 241.7 62.5 241.8 62.4 C 241.8 62.3 241.9 62.2 242 62.1 C 242.1 62 242.2 61.9 242.3 61.8 C 242.4 61.7 242.6 61.6 242.7 61.5 C 243 61.3 243.3 61.2 243.6 61 C 243.9 60.9 244.1 60.8 244.1 60.8 Z " fill="#B38637" stroke-width="1"/>
            <path d="M 254.3 71.7 C 254.3 71.7 254.3 71.4 254.3 70.8 C 254.3 70.2 254.3 69.3 254.2 68.3 C 254.1 67.3 253.9 66.1 253.4 64.9 C 253.1 64.3 252.8 63.7 252.4 63.1 C 252 62.5 251.5 62 251 61.6 C 249.9 60.7 248.7 60 247.6 59.3 C 246.5 58.6 245.4 58.1 244.5 57.6 C 242.7 56.7 241.4 56.1 241.4 56.1 C 241.4 56.1 242.6 56.8 244.3 57.9 C 245.2 58.4 246.2 59.1 247.2 59.8 C 248.3 60.5 249.4 61.2 250.4 62.1 C 251.4 62.9 252.2 64 252.8 65.1 C 253 65.7 253.3 66.2 253.4 66.8 C 253.6 67.4 253.7 67.9 253.8 68.4 C 254 69.4 254.1 70.2 254.2 70.8 C 254.3 71.3 254.3 71.7 254.3 71.7 Z " fill="#B38637" stroke-width="1"/>
          </g>
        </g>
        <g id="Group">
          <g id="Path">
            <path d="M 207.5 189.6 C 208.3 194.7 213.1 203.9 215.4 203.9 C 217.7 203.9 222.2 201.8 223.3 203.7 C 224.4 205.6 216.2 206.7 216.2 206.7 C 216.2 206.7 223.7 208.8 224.1 211 C 224.5 213.3 211.7 208.6 211.7 208.6 C 211.7 208.6 214.9 215.4 213 216.1 C 211.1 216.9 208.7 213.8 207.2 209.2 C 205.7 204.6 201 192.9 201 192.9 L 207.5 189.6 Z " fill="#FBBF3F" stroke-width="1"/>
            <path d="M 221.2 208.5 C 221.2 208.5 220.7 208.2 219.9 207.8 C 219.1 207.4 218.1 206.9 217 206.6 C 215.9 206.2 214.8 205.9 213.9 205.7 C 213 205.5 212.4 205.5 212.4 205.5 C 212.4 205.5 213 205.7 213.8 206 C 214.6 206.3 215.7 206.7 216.8 207.1 C 217.9 207.5 219 207.8 219.8 208.1 C 220.7 208.4 221.2 208.5 221.2 208.5 Z " fill="#C9982F" stroke-width="1"/>
            <path d="M 213.5 214.1 C 213.5 214.1 213.5 213.6 213.4 212.9 C 213.3 212.2 213.1 211.3 212.8 210.4 C 212.5 209.5 212 208.7 211.6 208.1 C 211.4 207.8 211.2 207.6 211 207.5 C 210.8 207.4 210.7 207.3 210.7 207.3 C 210.7 207.3 210.8 207.4 210.9 207.6 C 211 207.8 211.1 208 211.3 208.3 C 211.6 208.9 211.9 209.7 212.2 210.6 C 212.5 211.4 212.8 212.3 213.1 212.9 C 213.3 213.7 213.5 214.1 213.5 214.1 Z " fill="#C9982F" stroke-width="1"/>
            <path d="M 223.3 203.7 C 223.3 203.7 223.4 203.6 223.3 203.3 C 223.2 203.1 222.8 202.9 222.4 202.8 C 221.6 202.6 220.5 202.6 219.5 202.8 C 218.5 202.9 217.4 203.2 216.7 203.4 C 216 203.6 215.5 203.9 215.5 203.9 C 215.5 203.9 216 203.9 216.8 203.8 C 217.6 203.7 218.6 203.6 219.6 203.5 C 220.1 203.4 220.6 203.4 221.1 203.3 C 221.6 203.3 222 203.2 222.4 203.2 C 222.8 203.2 223.1 203.3 223.2 203.4 C 223.3 203.5 223.3 203.7 223.3 203.7 Z " fill="#C9982F" stroke-width="1"/>
            <path d="M 223.1 210 C 224.9 210.3 225.4 212.9 225.4 212.9 C 225.4 212.9 224.1 211 222.6 211 C 222.7 210.9 222.1 209.9 223.1 210 Z " fill="#3B342D" stroke-width="1"/>
            <path d="M 212.5 215 C 214 216.1 213.3 218.6 213.3 218.6 C 213.3 218.6 213 216.3 211.7 215.6 C 211.7 215.7 211.7 214.4 212.5 215 Z " fill="#3B342D" stroke-width="1"/>
            <path d="M 222.9 203.5 C 224.7 203.2 226 205.5 226 205.5 C 226 205.5 224.2 204.1 222.8 204.5 C 222.8 204.6 221.9 203.7 222.9 203.5 Z " fill="#3B342D" stroke-width="1"/>
          </g>
          <g id="Path">
            <path d="M 178.6 143.1 C 178.8 134.6 182.9 129 185.1 126.3 C 187.3 123.6 192.4 123.5 194.8 123.9 C 204.5 125.4 205.8 158.2 206.9 169.1 C 207.2 172.1 208.6 187.2 210.3 191.2 C 212 195.2 214.2 198.2 214.2 198.2 C 213 198.2 212 197.8 212 197.8 C 212.1 198.6 212.9 199.9 212.9 199.9 C 210.5 199.5 209.7 196.4 209.7 196.4 C 209.5 198 210.2 201.9 210.2 201.9 C 208.6 200.8 207.7 197.7 207.7 197.7 C 208.5 201.7 205.8 203.8 205.8 203.8 C 206.4 202.2 204.9 199 204.9 199 C 205.3 201.9 203.8 205 203.8 205 C 202.2 204.4 202.3 201.9 202.3 201.9 C 202.1 203.1 201.8 205.5 201.8 205.5 C 200.7 203.5 201.1 200.8 201.2 200.4 C 201.2 202.1 198.8 203.9 198.8 203.9 C 198.8 203.9 200.6 202.5 198.4 194.8 C 197.3 191.1 194.6 186 191.6 178.6 C 187.2 167.5 182.7 155.1 182.2 146.1 C 181.4 147.5 180.6 149.2 180.6 149.2 C 178.7 144.8 181.5 139.2 181.5 139.2 C 180 140.4 178.6 143.1 178.6 143.1 Z " fill="#704E2C" stroke-width="1"/>
            <path d="M 181.4 139.2 C 181.4 139.2 181.3 139.3 181.1 139.5 C 180.9 139.7 180.7 140.1 180.5 140.5 C 180.3 140.9 180.1 141.5 180 142.1 C 179.9 142.7 179.8 143.4 179.7 144 C 179.7 144.7 179.7 145.3 179.7 145.9 C 179.8 146.5 179.9 147.1 180 147.6 C 180.1 148.1 180.2 148.5 180.3 148.7 C 180.4 149 180.4 149.1 180.4 149.1 C 180.4 149.1 180.4 148.9 180.4 148.7 C 180.4 148.4 180.3 148 180.3 147.5 C 180.3 147 180.2 146.5 180.2 145.9 C 180.2 145.6 180.2 145.3 180.2 145 C 180.2 144.7 180.2 144.4 180.2 144.1 C 180.3 142.8 180.5 141.6 180.7 140.7 C 181.1 139.8 181.4 139.2 181.4 139.2 Z " fill="#423118" stroke-width="1"/>
            <path d="M 178.6 143.1 C 178.6 143.1 178.7 142.3 178.9 141.2 C 179.1 140.1 179.4 138.6 179.8 137.1 C 180 136.4 180.2 135.6 180.4 135 C 180.6 134.3 180.8 133.7 181.1 133.2 C 181.3 132.7 181.5 132.2 181.6 131.9 C 181.7 131.6 181.8 131.4 181.8 131.4 C 181.8 131.4 181.7 131.6 181.5 131.8 C 181.3 132.1 181 132.5 180.8 133 C 180.5 133.5 180.2 134.1 180 134.8 C 179.7 135.5 179.5 136.2 179.3 137 C 179.1 137.8 178.9 138.5 178.8 139.2 C 178.7 139.9 178.6 140.6 178.6 141.2 C 178.5 142.3 178.6 143.1 178.6 143.1 Z " fill="#423118" stroke-width="1"/>
            <g>
              <path d="M 198.7 204 C 198.7 204 198.9 203.8 199 203.4 C 199.2 203 199.4 202.3 199.4 201.5 C 199.6 199.8 199.3 197.3 198.3 194.5 C 196.3 188.9 193.2 181.7 190.4 174.4 C 189 170.8 187.6 167.1 186.4 163.6 C 185.2 160.1 184.2 156.8 183.5 154 C 183.2 152.6 182.9 151.3 182.7 150.1 C 182.5 148.9 182.3 147.9 182.3 147 C 182.2 146.1 182.2 145.5 182.2 145 C 182.2 144.5 182.2 144.3 182.2 144.3 C 182.2 144.3 182.2 144.5 182.2 145 C 182.2 145.5 182.2 146.1 182.3 147 C 182.4 148.7 182.7 151.2 183.4 154.1 C 184.1 157 184.9 160.3 186.1 163.8 C 187.3 167.3 188.6 171 190 174.7 C 191.4 178.4 192.9 182 194.4 185.4 C 195.8 188.8 197.2 191.9 198.2 194.7 C 199.2 197.4 199.7 199.9 199.6 201.6 C 199.6 202.5 199.4 203.1 199.2 203.5 C 198.8 203.8 198.7 204 198.7 204 Z " stroke-width="1" fill="#423118"/>
              <path d="M 214.2 198.2 C 214.2 198.2 213.6 197.5 212.8 196.1 C 212 194.7 210.8 192.7 210.1 190 C 209.7 188.7 209.6 187.2 209.3 185.6 C 209.1 184 208.9 182.4 208.7 180.6 C 208.3 177.2 207.9 173.5 207.5 169.8 C 207.1 166.1 206.6 162.4 206.2 159 C 205.8 155.6 205.4 152.3 205 149.6 C 204.6 146.8 204.3 144.6 204.1 143 C 203.9 141.4 203.7 140.5 203.7 140.5 C 203.7 140.5 203.8 141.4 204 143 C 204.2 144.6 204.4 146.9 204.7 149.7 C 205 152.5 205.3 155.7 205.7 159.1 C 206.1 162.6 206.5 166.2 206.9 169.9 C 207.4 173.6 207.8 177.3 208.2 180.7 C 208.4 182.4 208.7 184.1 208.9 185.7 C 209.2 187.3 209.4 188.8 209.8 190.1 C 210.6 192.8 211.9 194.8 212.8 196.1 C 213.6 197.5 214.2 198.2 214.2 198.2 Z " stroke-width="1" fill="#423118"/>
            </g>
            <path d="M 212.8 199.9 C 212.8 199.9 212.5 199.7 212.1 199.5 C 211.7 199.2 211.3 198.8 210.9 198.4 C 210.7 198.2 210.5 197.9 210.4 197.7 C 210.2 197.5 210.1 197.3 210 197.1 C 209.9 196.9 209.8 196.7 209.7 196.6 C 209.6 196.5 209.6 196.4 209.6 196.4 C 209.6 196.4 209.6 196.7 209.7 197.2 C 209.8 197.4 209.9 197.7 210 198 C 210.1 198.3 210.3 198.6 210.5 198.8 C 210.7 199 211 199.3 211.2 199.4 C 211.5 199.6 211.7 199.7 212 199.8 C 212.5 200 212.8 199.9 212.8 199.9 Z " fill="#423118" stroke-width="1"/>
            <path d="M 210 201.9 C 210 201.9 209.9 201.6 209.6 201.2 C 209.4 200.8 209 200.3 208.7 199.8 C 208.4 199.3 208 198.8 207.8 198.4 C 207.7 198.2 207.6 198 207.6 197.9 C 207.6 197.8 207.5 197.7 207.5 197.7 C 207.5 197.7 207.5 197.8 207.4 197.9 C 207.4 198 207.4 198.3 207.4 198.5 C 207.5 199 207.7 199.6 208.1 200.1 C 208.5 200.6 208.9 201.1 209.3 201.4 C 209.8 201.8 210 201.9 210 201.9 Z " fill="#423118" stroke-width="1"/>
            <path d="M 205.7 203.8 C 205.7 203.8 205.9 203.5 206 203 C 206.1 202.5 206.1 201.9 205.9 201.3 C 205.8 200.7 205.5 200.1 205.3 199.7 C 205.1 199.3 204.8 199.1 204.8 199.1 C 204.8 199.1 204.8 199.2 204.8 199.3 C 204.8 199.4 204.9 199.6 204.9 199.9 C 205 200.4 205.1 200.9 205.2 201.5 C 205.3 202.1 205.4 202.7 205.5 203.1 C 205.7 203.5 205.7 203.8 205.7 203.8 Z " fill="#423118" stroke-width="1"/>
            <path d="M 203.7 205 C 203.7 205 203.6 204.8 203.5 204.5 C 203.4 204.2 203.2 203.8 203 203.5 C 202.8 203.1 202.7 202.7 202.5 202.4 C 202.4 202.2 202.4 202.1 202.3 202 C 202.3 201.9 202.2 201.9 202.2 201.9 C 202.2 201.9 202.1 202.1 202.1 202.5 C 202.1 202.9 202.2 203.3 202.4 203.8 C 202.6 204.2 202.9 204.6 203.2 204.8 C 203.4 205 203.7 205 203.7 205 Z " fill="#423118" stroke-width="1"/>
            <path d="M 201.7 205.5 C 201.7 205.5 201.6 205.2 201.5 204.7 C 201.4 204.2 201.3 203.6 201.3 203 C 201.2 202.4 201.2 201.7 201.2 201.3 C 201.2 201.1 201.2 200.8 201.1 200.7 C 201.1 200.6 201.1 200.5 201.1 200.5 C 201.1 200.5 201 200.8 200.8 201.3 C 200.7 201.8 200.6 202.5 200.7 203.1 C 200.8 203.8 201 204.4 201.2 204.9 C 201.4 205.3 201.7 205.5 201.7 205.5 Z " fill="#423118" stroke-width="1"/>
          </g>
        </g>
        <g id="Group">
          <g id="Path">
            <path d="M 91.5 106.5 C 87.7 105.7 74.8 124.6 70 135.2 C 64.2 148.1 45.2 164.1 14.5 146.2 C 14.5 146.2 22.8 159.9 44.9 158 C 66.4 156.1 71.8 147.2 78.7 134.9 C 82.4 128.3 85.1 122.7 88.9 118.6 C 92.7 114.4 95.9 107.3 91.5 106.5 Z " fill="#704E2C" stroke-width="1"/>
            <path d="M 82.2 128.1 C 82.2 128.1 82 128.4 81.7 128.9 C 81.4 129.4 81 130.2 80.5 131.2 C 79.4 133.2 77.9 136.1 75.8 139.3 C 73.7 142.5 70.9 146.1 67.2 149.3 C 65.4 150.9 63.3 152.3 61.1 153.5 C 58.9 154.7 56.5 155.7 54 156.3 C 51.5 157 49 157.3 46.4 157.5 C 43.9 157.7 41.4 157.7 39 157.6 C 36.6 157.5 34.3 157.2 32.1 156.8 C 29.9 156.4 27.9 155.8 26.1 155 C 22.5 153.6 19.8 151.7 18.2 150.2 C 16.5 148.7 15.9 147.5 15.9 147.5 C 15.9 147.5 16.5 148.7 18.2 150.2 C 19.8 151.8 22.5 153.8 26.1 155.3 C 29.7 156.8 34.2 157.9 39.1 158.1 C 41.5 158.2 44.1 158.2 46.6 158 C 49.1 157.8 51.8 157.5 54.3 156.8 C 59.4 155.5 64 152.8 67.7 149.5 C 71.4 146.3 74.1 142.6 76.2 139.3 C 78.3 136 79.7 133.1 80.7 131 C 81.2 130 81.6 129.2 81.9 128.6 C 82 128.3 82.2 128.1 82.2 128.1 Z " fill="#423118" stroke-width="1"/>
            <path d="M 88.1 108.3 C 88.1 108.3 86.9 109.2 85.2 111.2 C 83.5 113.2 81.2 116.1 78.7 119.8 C 76.2 123.5 73.3 127.9 70.6 132.8 C 69.9 134 69.3 135.3 68.7 136.6 C 68.1 137.9 67.3 139.1 66.4 140.3 C 64.7 142.7 62.7 144.9 60.4 146.8 C 58.1 148.7 55.6 150.3 53 151.5 C 50.3 152.7 47.6 153.4 44.8 153.8 C 42.1 154.2 39.4 154.2 36.8 154 C 34.3 153.8 31.9 153.3 29.7 152.7 C 27.6 152.1 25.6 151.5 23.9 150.8 C 22.2 150.2 20.8 149.5 19.6 148.9 C 18.4 148.4 17.5 147.8 16.9 147.5 C 16.3 147.2 15.9 147 15.9 147 C 15.9 147 16.2 147.2 16.8 147.5 C 17.4 147.8 18.3 148.4 19.5 148.9 C 20.7 149.5 22.1 150.2 23.8 150.9 C 25.5 151.6 27.4 152.3 29.6 152.9 C 31.8 153.5 34.1 154.1 36.7 154.3 C 39.3 154.6 42 154.6 44.8 154.2 C 47.6 153.8 50.4 153.1 53.2 151.9 C 55.9 150.7 58.5 149.1 60.8 147.2 C 63.1 145.2 65.2 143 66.9 140.6 C 67.8 139.4 68.5 138.1 69.2 136.8 C 69.8 135.5 70.5 134.2 71.1 133 C 73.8 128.1 76.5 123.6 78.9 119.9 C 81.4 116.2 83.5 113.1 85.2 111.1 C 87 109.2 88.1 108.3 88.1 108.3 Z " fill="#423118" stroke-width="1"/>
          </g>
          <g id="Path">
            <path d="M 16.3 147.3 C 18.7 144.4 17.4 137.7 13 137.1 C 13 137.1 15 138.4 14.9 140.7 C 14.9 140.7 13.8 136.4 8.1 137.1 C 2.4 137.7 2.9 133.8 2.9 133.8 C 2.9 133.8 0.2 137.9 3.5 141.8 C 3.5 141.8 0.7 139.4 0.2 137.9 C 0.2 137.9 0.7 147.5 7.4 148.9 C 12.1 149.9 14.8 149.2 16.3 147.3 Z " fill="#BD8F33" stroke-width="1"/>
            <path d="M 14.7 148.6 C 14.7 148.6 14.4 148.7 13.8 148.8 C 13.5 148.9 13.2 148.9 12.8 149 C 12.4 149.1 11.9 149.1 11.4 149.1 C 10.9 149.1 10.4 149.1 9.8 149.1 C 9.5 149.1 9.2 149.1 8.9 149 C 8.6 148.9 8.3 148.9 8 148.8 C 7.7 148.7 7.4 148.6 7.1 148.6 C 6.8 148.5 6.5 148.4 6.2 148.2 C 5.9 148.1 5.6 147.9 5.4 147.7 C 5.1 147.5 4.8 147.4 4.6 147.1 L 3.9 146.5 L 3.3 145.8 L 3 145.4 L 2.8 145 C 2.6 144.7 2.5 144.5 2.3 144.2 C 2 143.7 1.8 143.1 1.6 142.6 C 1.4 142.1 1.3 141.5 1.1 141.1 C 1 140.6 0.8 140.2 0.7 139.8 C 0.6 139.4 0.5 139.1 0.5 138.8 C 0.4 138.2 0.3 137.9 0.3 137.9 C 0.3 137.9 0.3 138.2 0.4 138.8 C 0.4 139.1 0.5 139.5 0.5 139.9 C 0.5 140.3 0.6 140.8 0.7 141.3 C 0.8 141.8 0.9 142.3 1.1 142.9 C 1.3 143.4 1.5 144 1.8 144.6 C 2 144.9 2.1 145.2 2.3 145.5 L 2.5 145.9 L 2.8 146.3 C 3 146.6 3.2 146.8 3.4 147.1 L 4.2 147.8 C 4.5 148 4.8 148.2 5.1 148.4 C 5.4 148.6 5.7 148.8 6 148.9 C 6.3 149 6.6 149.2 6.9 149.3 C 7.2 149.4 7.5 149.5 7.9 149.5 C 8.2 149.6 8.5 149.6 8.8 149.6 C 9.1 149.6 9.4 149.7 9.7 149.6 C 10.3 149.6 10.8 149.6 11.3 149.5 C 11.8 149.4 12.3 149.3 12.7 149.2 C 13.1 149.1 13.4 149 13.7 148.9 C 14 148.8 14.2 148.7 14.3 148.6 C 14.6 148.6 14.7 148.6 14.7 148.6 Z " fill="#704E2C" stroke-width="1"/>
            <path d="M 17.3 145.5 C 17.3 145.5 17.4 145.4 17.5 145.1 C 17.6 144.8 17.8 144.4 17.9 143.9 C 18 143.4 18.1 142.8 18 142.1 C 18 141.8 17.9 141.4 17.8 141.1 C 17.7 140.8 17.6 140.4 17.4 140.1 C 17.2 139.8 17.1 139.5 16.8 139.2 C 16.6 138.9 16.3 138.7 16.1 138.5 C 15.8 138.3 15.6 138.1 15.3 138 C 15 137.9 14.8 137.7 14.6 137.6 C 14.1 137.4 13.7 137.3 13.4 137.2 C 13.1 137.1 12.9 137.1 12.9 137.1 C 12.9 137.1 13.1 137.2 13.3 137.3 C 13.4 137.4 13.6 137.4 13.8 137.5 C 14 137.6 14.2 137.7 14.4 137.8 C 14.6 137.9 14.8 138.1 15 138.2 C 15.2 138.4 15.4 138.6 15.7 138.8 C 15.9 139 16.1 139.2 16.3 139.5 C 16.5 139.7 16.6 140 16.8 140.3 C 17.4 141.4 17.5 142.7 17.4 143.7 C 17.4 144.2 17.3 144.6 17.3 144.9 C 17.3 145.3 17.3 145.5 17.3 145.5 Z " fill="#704E2C" stroke-width="1"/>
            <path d="M 14.9 140.7 C 14.9 140.7 14.8 140.5 14.6 140.1 C 14.4 139.7 14.2 139.2 13.7 138.6 C 13.3 138 12.6 137.3 11.7 137 C 10.8 136.7 9.8 136.6 8.8 136.6 C 7.8 136.6 6.9 136.6 6 136.5 C 5.1 136.4 4.3 136.3 3.8 135.8 C 3.5 135.6 3.4 135.3 3.2 135.1 C 3.1 134.8 3 134.6 2.9 134.4 C 2.8 134 2.7 133.8 2.7 133.8 C 2.7 133.8 2.7 133.9 2.7 134 C 2.7 134.1 2.7 134.3 2.7 134.5 C 2.7 134.7 2.8 135 2.9 135.3 C 3 135.6 3.1 135.9 3.4 136.2 C 3.9 136.8 4.9 137.1 5.8 137.2 C 6.7 137.3 7.7 137.3 8.6 137.3 C 9.5 137.3 10.5 137.3 11.3 137.6 C 11.7 137.8 12.1 137.9 12.4 138.1 C 12.7 138.3 13 138.6 13.2 138.9 C 13.6 139.4 14 139.9 14.2 140.3 C 14.8 140.6 14.9 140.7 14.9 140.7 Z " fill="#704E2C" stroke-width="1"/>
            <path d="M 3.6 141.8 C 3.6 141.8 3.4 141.5 3.1 141 C 2.8 140.5 2.6 139.8 2.4 139.1 C 2.3 138.7 2.3 138.4 2.2 138 C 2.2 137.6 2.1 137.3 2.1 137 C 2.1 136.7 2.1 136.5 2.1 136.3 C 2.1 136.1 2.1 136 2.1 136 C 2.1 136 2.1 136.1 2 136.3 C 1.9 136.5 1.8 136.7 1.8 137 C 1.6 137.6 1.6 138.4 1.8 139.2 C 1.9 139.6 2 140 2.2 140.3 C 2.4 140.6 2.6 140.9 2.8 141.2 C 3.2 141.7 3.6 141.8 3.6 141.8 Z " fill="#704E2C" stroke-width="1"/>
          </g>
        </g>
        <g id="Group">
          <path d="M 137.6 106.2 C 130.6 105.2 132.3 100.9 132.3 100.9 C 127.9 100.9 125.2 94.7 125.2 94.7 C 119.9 93.4 119.9 87.6 119.9 87.6 C 115.5 86.7 113.7 82.3 113.7 82.3 C 108.4 83.6 104.4 77.9 104.4 77.9 C 100 77.9 98.2 72.6 98.2 72.6 C 90.6 73 88.4 65 88.4 65 C 67.5 67.7 80.4 61 80.4 61 C 57.3 57.9 76.4 52.6 76.4 52.6 C 76.4 52.6 60.8 55.3 58.6 50.8 C 56.4 46.4 72.4 44.6 72.4 44.6 C 36.8 49.5 24.8 43.3 32.4 42.4 C 40 41.5 68 38 68 38 C 25.8 38.9 18.7 26.4 28.4 29.6 C 38.2 32.7 70.6 31.8 70.6 31.8 C 48.8 32.7 19.9 17.1 36.8 20.2 C 53.7 23.3 71.9 25.5 71.9 25.5 C 47.5 18.8 44.3 7.3 62.1 15.3 C 79.9 23.3 117.7 24.2 140.3 28.6 C 162.9 33 159.9 68.6 159.9 68.6 C 166.1 78.8 164.8 96.6 173.2 101.9 C 173.2 101.8 144.2 107.1 137.6 106.2 Z " id="Path" fill="#704E2C" stroke-width="1"/>
          <path d="M 173.2 101.8 C 173.2 101.8 173.1 101.7 172.9 101.6 C 172.7 101.4 172.3 101.2 172 100.9 C 171.2 100.3 170.3 99.2 169.4 97.7 C 168.5 96.2 167.8 94.4 167.2 92.3 C 166.6 90.3 166.1 88 165.6 85.8 C 165.1 83.6 164.6 81.3 164.1 79.2 C 163.8 78.2 163.6 77.1 163.3 76.2 C 163 75.3 162.7 74.4 162.5 73.5 C 162.2 72.7 161.9 71.9 161.7 71.3 C 161.4 70.7 161.1 70.1 160.9 69.7 C 160.6 69.3 160.4 68.9 160.2 68.8 C 160 68.6 159.9 68.5 159.9 68.5 C 159.9 68.5 160 68.6 160.2 68.8 C 160.4 69 160.6 69.4 160.8 69.8 C 161 70.3 161.3 70.8 161.5 71.5 C 161.7 72.2 162 72.9 162.2 73.7 C 162.7 75.3 163.2 77.3 163.6 79.4 C 164.1 81.5 164.6 83.7 165 86 C 165.5 88.2 166 90.5 166.6 92.5 C 166.9 93.5 167.3 94.5 167.7 95.4 C 168.1 96.3 168.5 97.1 169 97.9 C 169.5 98.6 170 99.3 170.4 99.8 C 170.9 100.3 171.3 100.7 171.8 101 C 172.2 101.3 172.5 101.5 172.8 101.6 C 173.1 101.7 173.2 101.8 173.2 101.8 Z " id="Path" fill="#423118" stroke-width="1"/>
          <path d="M 158.9 72.2 C 158.9 72.2 158.9 72.1 159 71.8 C 159.1 71.6 159.2 71.2 159.3 70.7 C 159.6 69.8 159.9 68.4 160.1 66.6 C 160.3 64.8 160.4 62.6 160.3 60.1 C 160.2 57.6 159.8 54.7 159.1 51.7 C 158.8 50.2 158.3 48.6 157.9 47 C 157.6 46.2 157.4 45.4 157.1 44.6 C 156.8 43.8 156.5 43 156.1 42.1 C 154.7 38.8 152.8 35.5 150 32.7 C 148.6 31.3 147 30.1 145.1 29.2 C 144.2 28.8 143.2 28.4 142.1 28.3 C 141.1 28.2 140.1 28.1 139.1 28 C 135.1 27.6 131 27.1 126.9 26.6 C 110.5 24.7 94.1 22.4 81.9 20.2 C 75.8 19.1 70.8 18 67.3 17 C 65.6 16.5 64.2 16 63.3 15.7 C 62.4 15.3 62 15.1 62 15.1 C 62 15.1 62.5 15.3 63.3 15.7 C 64.2 16.1 65.5 16.6 67.3 17.1 C 70.8 18.1 75.8 19.3 81.9 20.5 C 94.1 22.8 110.4 25.2 126.8 27.2 C 130.9 27.7 135 28.2 139 28.6 C 140 28.7 141 28.8 142 28.9 C 142.9 29 143.9 29.3 144.8 29.7 C 146.6 30.5 148.1 31.7 149.5 33.1 C 152.2 35.8 154.1 39.1 155.5 42.3 C 155.8 43.1 156.1 43.9 156.5 44.7 C 156.8 45.5 157 46.3 157.3 47.1 C 157.8 48.7 158.2 50.2 158.5 51.7 C 159.2 54.7 159.6 57.5 159.8 60 C 160 62.5 159.9 64.7 159.7 66.5 C 159.5 68.3 159.3 69.7 159.1 70.6 C 159 71.1 158.9 71.4 158.9 71.7 C 158.9 72.1 158.9 72.2 158.9 72.2 Z " id="Path" fill="#423118" stroke-width="1"/>
          <path d="M 71.9 25.4 C 71.9 25.4 70.4 24.8 68.2 23.9 C 67.1 23.4 65.8 22.9 64.4 22.3 C 63 21.7 61.6 21.1 60.1 20.4 C 58.7 19.7 57.2 19 55.9 18.3 C 54.6 17.6 53.4 16.8 52.5 16.1 C 51.6 15.4 50.9 14.6 50.8 13.9 C 50.7 13.6 50.8 13.3 50.9 13.1 C 51 12.9 51.1 12.9 51.1 12.9 C 51.1 12.9 51 13 50.9 13.1 C 50.8 13.2 50.6 13.5 50.7 13.9 C 50.7 14.3 50.9 14.7 51.2 15.1 C 51.5 15.5 51.8 15.9 52.3 16.3 C 53.2 17.1 54.3 18 55.6 18.7 C 56.9 19.5 58.3 20.2 59.8 20.9 C 61.3 21.6 62.7 22.2 64.1 22.7 C 65.5 23.3 66.8 23.7 68 24.1 C 70.3 25 71.9 25.4 71.9 25.4 Z " id="Path" fill="#423118" stroke-width="1"/>
          <path d="M 68.1 31.6 C 68.1 31.6 65.7 31.6 62.1 31.2 C 61.2 31.1 60.3 31 59.2 30.8 C 58.2 30.7 57.1 30.4 56 30.2 C 54.9 30 53.8 29.8 52.6 29.4 C 52 29.3 51.5 29.1 50.9 29 L 49.2 28.5 C 48 28.2 46.9 27.8 45.8 27.4 C 44.7 27 43.6 26.6 42.6 26.2 C 41.6 25.8 40.6 25.4 39.6 25 C 38.7 24.6 37.8 24.2 37 23.8 C 36.2 23.4 35.4 23.1 34.8 22.7 C 34.2 22.3 33.6 22 33.2 21.7 C 32.3 21.1 31.9 20.8 31.9 20.8 C 31.9 20.8 32.3 21.2 33.2 21.8 C 33.6 22.1 34.2 22.5 34.8 22.8 C 35.4 23.2 36.1 23.6 36.9 24 C 37.7 24.4 38.5 24.9 39.5 25.3 C 40.4 25.7 41.4 26.2 42.4 26.6 C 43.4 27 44.5 27.5 45.6 27.8 C 46.7 28.2 47.8 28.6 49 28.9 C 50.1 29.3 51.3 29.6 52.5 29.8 C 53.6 30.1 54.8 30.3 55.9 30.5 C 57 30.7 58.1 30.9 59.1 31 C 60.1 31.1 61.1 31.2 62 31.3 C 65.7 31.8 68.1 31.6 68.1 31.6 Z " id="Path" fill="#423118" stroke-width="1"/>
          <path d="M 67.9 37.8 C 67.9 37.8 67.2 37.8 66 37.7 C 64.8 37.6 63 37.5 60.9 37.4 C 58.8 37.3 56.3 37.1 53.7 36.9 C 51.1 36.7 48.3 36.4 45.5 36.1 C 42.7 35.8 39.9 35.4 37.3 34.9 C 36 34.7 34.8 34.4 33.6 34.1 C 32.4 33.8 31.3 33.5 30.3 33.2 C 29.8 33 29.3 32.8 28.9 32.7 C 28.5 32.5 28 32.3 27.7 32.2 C 27.3 32 27 31.8 26.7 31.6 C 26.4 31.4 26.1 31.2 25.9 31 C 25.4 30.6 25.1 30.3 24.9 30 C 24.7 29.7 24.6 29.6 24.6 29.6 C 24.6 29.6 24.7 29.7 24.9 30 C 25.1 30.3 25.4 30.6 25.9 31.1 C 26.1 31.3 26.4 31.5 26.7 31.7 C 27 31.9 27.4 32.1 27.7 32.3 C 28.1 32.5 28.5 32.7 28.9 32.9 C 29.3 33.1 29.8 33.3 30.3 33.5 C 32.3 34.2 34.7 34.9 37.3 35.4 C 39.9 35.9 42.7 36.3 45.5 36.7 C 48.3 37 51.1 37.2 53.8 37.4 C 56.4 37.6 58.9 37.6 61 37.7 C 63.1 37.8 64.9 37.7 66.1 37.7 C 67.2 37.8 67.9 37.8 67.9 37.8 Z " id="Path" fill="#423118" stroke-width="1"/>
          <path d="M 70.1 44.7 C 70.1 44.7 67.6 44.9 63.9 45.2 C 62 45.3 59.8 45.5 57.5 45.6 C 55.2 45.7 52.7 45.8 50.2 45.9 C 47.7 46 45.2 46 42.9 45.9 C 40.6 45.8 38.4 45.7 36.5 45.4 C 36 45.3 35.6 45.3 35.2 45.2 C 34.8 45.1 34.4 45.1 34 45 C 33.3 44.9 32.6 44.7 32.1 44.5 C 31.6 44.3 31.2 44.2 30.9 44 C 30.6 43.9 30.5 43.8 30.5 43.8 C 30.5 43.8 30.6 43.9 30.9 44 C 31.2 44.2 31.5 44.3 32 44.6 C 32.5 44.8 33.1 45 33.9 45.2 C 34.6 45.4 35.5 45.6 36.4 45.7 C 37.3 45.9 38.3 46 39.4 46.1 C 40.5 46.2 41.6 46.3 42.8 46.4 C 45.1 46.5 47.7 46.5 50.2 46.5 C 52.7 46.4 55.2 46.3 57.5 46.1 C 59.8 45.9 62 45.7 63.9 45.5 C 67.6 45.1 70.1 44.7 70.1 44.7 Z " id="Path" fill="#423118" stroke-width="1"/>
          <path d="M 76.3 52.5 C 76.3 52.5 75.2 52.6 73.5 52.8 C 72.7 52.9 71.7 52.9 70.6 53 C 69.5 53.1 68.4 53.1 67.3 53.1 C 66.2 53.1 65.1 53.1 64 53 C 63.5 52.9 63 52.9 62.5 52.8 C 62 52.7 61.6 52.6 61.2 52.5 C 60.8 52.4 60.4 52.2 60.1 52.1 C 59.8 51.9 59.5 51.8 59.3 51.7 C 59.1 51.6 58.9 51.4 58.8 51.4 C 58.7 51.3 58.6 51.3 58.6 51.3 C 58.6 51.3 58.8 51.5 59.1 51.9 C 59.3 52.1 59.5 52.2 59.8 52.4 C 60.1 52.6 60.5 52.8 60.9 52.9 C 61.7 53.2 62.7 53.5 63.8 53.6 C 64.9 53.7 66 53.8 67.2 53.8 C 68.3 53.8 69.5 53.7 70.5 53.6 C 71.6 53.5 72.5 53.3 73.4 53.2 C 75.2 52.8 76.3 52.5 76.3 52.5 Z " id="Path" fill="#423118" stroke-width="1"/>
          <path d="M 80.3 60.9 C 80.3 60.9 79.6 60.7 78.4 60.5 C 77.3 60.3 75.8 60 74.3 59.6 C 73.9 59.5 73.6 59.4 73.2 59.3 C 72.9 59.2 72.5 59.1 72.2 59 C 71.9 58.9 71.5 58.8 71.3 58.7 C 71 58.6 70.7 58.5 70.5 58.3 C 70.3 58.2 70 58.1 69.8 57.9 C 69.6 57.8 69.4 57.7 69.3 57.5 C 69.1 57.3 68.9 57.1 68.9 57.1 C 68.9 57.1 69 57.3 69.2 57.6 C 69.3 57.8 69.4 57.9 69.6 58.1 C 69.8 58.3 70 58.4 70.2 58.6 C 70.7 58.9 71.3 59.3 72 59.5 C 72.7 59.8 73.4 60 74.2 60.2 C 74.9 60.4 75.7 60.5 76.4 60.6 C 77.1 60.7 77.8 60.8 78.4 60.8 C 79.5 60.9 80.3 60.9 80.3 60.9 Z " id="Path" fill="#423118" stroke-width="1"/>
          <path d="M 88.3 64.9 C 88.3 64.9 87.5 65 86.4 65.1 C 85.3 65.2 83.7 65.4 82.2 65.4 C 80.7 65.5 79.2 65.5 78.1 65.3 C 77.6 65.2 77.1 65.1 76.8 64.9 C 76.5 64.7 76.4 64.5 76.4 64.5 C 76.4 64.5 76.4 64.7 76.7 65 C 76.9 65.2 77.4 65.5 78 65.7 C 79.1 66.1 80.7 66.1 82.3 66 C 83.8 65.9 85.4 65.6 86.5 65.4 C 87.6 65.2 88.3 64.9 88.3 64.9 Z " id="Path" fill="#423118" stroke-width="1"/>
          <path d="M 98.1 72.5 C 98.1 72.5 97.4 72.5 96.4 72.2 C 95.9 72.1 95.3 71.9 94.7 71.7 C 94.1 71.5 93.5 71.2 92.9 70.8 C 92.6 70.6 92.3 70.4 92.1 70.2 C 91.8 70 91.6 69.8 91.4 69.6 C 91.2 69.4 91 69.2 90.8 68.9 C 90.6 68.7 90.4 68.5 90.3 68.3 C 90.1 68.1 90 67.9 89.9 67.7 C 89.8 67.5 89.7 67.4 89.6 67.2 C 89.4 67 89.3 66.8 89.3 66.8 C 89.3 66.8 89.4 67 89.5 67.3 C 89.6 67.6 89.8 68 90.1 68.5 C 90.2 68.7 90.4 69 90.6 69.2 C 90.8 69.4 91 69.7 91.2 70 C 91.4 70.2 91.7 70.5 92 70.7 C 92.3 70.9 92.6 71.2 92.9 71.3 C 93.5 71.7 94.2 72 94.8 72.2 C 95.4 72.4 96.1 72.5 96.6 72.6 C 97.1 72.7 97.6 72.6 97.9 72.6 C 97.9 72.5 98.1 72.5 98.1 72.5 Z " id="Path" fill="#423118" stroke-width="1"/>
          <path d="M 104.3 77.8 C 104.3 77.8 103.9 77.7 103.3 77.5 C 102.8 77.3 102.1 77 101.4 76.5 C 101.2 76.4 101.1 76.3 100.9 76.2 C 100.8 76.1 100.6 76 100.5 75.9 C 100.2 75.7 100 75.4 99.7 75.2 C 99.5 75 99.3 74.8 99.2 74.7 C 99.1 74.6 99 74.5 99 74.5 C 99 74.5 99 74.6 99.1 74.8 C 99.2 75 99.3 75.2 99.5 75.5 C 99.8 76 100.4 76.7 101.1 77.1 C 101.4 77.3 101.8 77.5 102.2 77.7 C 102.6 77.8 102.9 77.9 103.2 78 C 103.9 77.9 104.3 77.8 104.3 77.8 Z " id="Path" fill="#423118" stroke-width="1"/>
          <path d="M 113.6 82.2 C 113.6 82.2 113 82.3 112.2 82.2 C 111.8 82.2 111.3 82.1 110.8 82 C 110.3 81.9 109.8 81.8 109.3 81.6 C 109 81.5 108.8 81.4 108.6 81.3 C 108.4 81.2 108.1 81.1 107.9 80.9 C 107.7 80.8 107.5 80.6 107.3 80.5 C 107.1 80.4 106.9 80.2 106.8 80.1 C 106.5 79.9 106.2 79.6 106 79.5 C 105.8 79.3 105.7 79.3 105.7 79.3 C 105.7 79.3 105.8 79.4 105.9 79.6 C 106 79.8 106.2 80.1 106.5 80.4 C 106.6 80.6 106.8 80.7 107 80.9 C 107.2 81.1 107.4 81.2 107.6 81.4 C 107.8 81.5 108.1 81.7 108.3 81.8 C 108.6 81.9 108.8 82.1 109.1 82.2 C 109.6 82.4 110.2 82.5 110.8 82.6 C 111.3 82.6 111.8 82.6 112.3 82.6 C 113.1 82.5 113.6 82.2 113.6 82.2 Z " id="Path" fill="#423118" stroke-width="1"/>
          <path d="M 119.9 87.6 C 119.9 87.6 119.6 87.4 119 87.1 C 118.5 86.8 117.8 86.4 117.2 86 C 116.5 85.6 115.9 85.1 115.5 84.8 C 115.3 84.6 115.1 84.5 115 84.3 C 114.9 84.2 114.8 84.1 114.8 84.1 C 114.8 84.1 114.8 84.2 114.9 84.4 C 115 84.6 115.1 84.8 115.3 85 C 115.7 85.5 116.3 86.1 116.9 86.5 C 117.6 86.9 118.4 87.2 118.9 87.4 C 119.4 87.6 119.9 87.6 119.9 87.6 Z " id="Path" fill="#423118" stroke-width="1"/>
          <path d="M 125.2 94.7 C 125.2 94.7 124.7 94.6 124.1 94.4 C 123.8 94.3 123.5 94.1 123.1 93.8 C 122.8 93.5 122.4 93.2 122.2 92.9 C 121.9 92.6 121.6 92.2 121.4 91.8 C 121.3 91.6 121.2 91.5 121.1 91.3 C 121 91.1 120.9 91 120.8 90.8 C 120.6 90.5 120.5 90.2 120.4 90.1 C 120.3 89.9 120.2 89.8 120.2 89.8 C 120.2 89.8 120.2 89.9 120.3 90.1 C 120.4 90.3 120.4 90.6 120.5 90.9 C 120.6 91.2 120.7 91.6 121 92 C 121.2 92.4 121.5 92.8 121.8 93.2 C 122 93.4 122.1 93.6 122.3 93.7 C 122.5 93.9 122.7 94 122.9 94.1 C 123.3 94.3 123.7 94.5 124.1 94.6 C 124.7 94.8 125.2 94.7 125.2 94.7 Z " id="Path" fill="#423118" stroke-width="1"/>
          <path d="M 132.3 100.9 C 132.3 100.9 131.8 100.8 131.2 100.5 C 130.5 100.2 129.7 99.7 129 99.1 C 128.6 98.8 128.3 98.5 127.9 98.2 C 127.6 97.9 127.3 97.6 127 97.3 C 126.7 97 126.5 96.8 126.4 96.7 C 126.2 96.5 126.2 96.5 126.2 96.5 C 126.2 96.5 126.2 96.6 126.3 96.8 C 126.4 97 126.5 97.3 126.7 97.6 C 126.9 97.9 127.2 98.3 127.5 98.6 C 127.8 99 128.2 99.3 128.6 99.6 C 129 99.9 129.4 100.2 129.9 100.4 C 130.3 100.6 130.8 100.7 131.1 100.8 C 131.8 101 132.3 100.9 132.3 100.9 Z " id="Path" fill="#423118" stroke-width="1"/>
          <path d="M 137.6 106.2 C 137.6 106.2 137.2 106.1 136.6 105.9 C 136 105.7 135.3 105.4 134.6 105.1 C 134.4 105 134.3 104.9 134.1 104.8 C 134 104.7 133.8 104.6 133.6 104.5 C 133.5 104.4 133.3 104.3 133.2 104.2 C 133.1 104.1 133 104 132.9 103.9 C 132.7 103.7 132.5 103.5 132.4 103.3 C 132.3 103.2 132.2 103.1 132.2 103.1 C 132.2 103.1 132.2 103.5 132.5 104.1 C 132.6 104.3 132.7 104.4 132.8 104.5 C 132.9 104.7 133 104.8 133.2 104.9 C 133.5 105.2 133.9 105.4 134.2 105.6 C 135 106 135.8 106.2 136.4 106.2 C 137.2 106.3 137.6 106.2 137.6 106.2 Z " id="Path" fill="#423118" stroke-width="1"/>
          <path d="M 157.4 99.4 C 157.4 99.4 156.9 99.3 156 99.1 C 155.6 99 155.1 98.9 154.6 98.8 C 154.1 98.7 153.6 98.5 153.2 98.2 C 152.8 97.9 152.6 97.6 152.7 97.2 C 152.8 97 152.9 96.8 153 96.6 C 153.1 96.4 153.2 96.2 153.4 96.1 C 153.7 95.8 153.9 95.5 154.1 95.3 C 154.3 95.1 154.4 95 154.4 95 C 154.4 95 154.3 95.1 154.1 95.2 C 153.9 95.3 153.6 95.5 153.3 95.8 C 153.1 95.9 153 96.1 152.8 96.3 C 152.6 96.5 152.5 96.7 152.4 97 C 152.3 97.3 152.3 97.7 152.4 98 C 152.5 98.3 152.8 98.6 153.1 98.7 C 153.6 99 154.2 99.2 154.7 99.3 C 155.2 99.4 155.7 99.4 156.2 99.4 C 156.9 99.5 157.4 99.4 157.4 99.4 Z " id="Path" fill="#52391E" stroke-width="1"/>
          <path d="M 152.4 96.8 C 152.4 96.8 151.9 96.6 151.2 96.1 C 150.8 95.9 150.4 95.6 150 95.4 C 149.8 95.2 149.6 95.1 149.4 94.9 L 149.1 94.6 L 148.9 94.3 C 148.8 94.2 148.8 94.1 148.7 94 L 148.6 93.8 L 148.6 93.6 C 148.6 93.4 148.6 93.2 148.7 92.9 C 148.8 92.7 148.9 92.5 149 92.3 C 149.1 92.1 149.3 92 149.4 91.8 C 149.6 91.5 149.9 91.3 150.1 91.1 C 150.3 90.9 150.4 90.8 150.4 90.8 C 150.4 90.8 150.3 90.9 150.1 91 C 149.9 91.1 149.5 91.3 149.2 91.6 C 149 91.7 148.8 91.9 148.7 92.1 C 148.6 92.3 148.4 92.5 148.2 92.8 C 148.1 93.1 148 93.4 148 93.7 L 148 93.9 L 148.1 94.1 C 148.2 94.2 148.2 94.4 148.3 94.5 L 148.6 94.9 L 148.9 95.2 C 149.1 95.4 149.4 95.5 149.6 95.7 C 150.1 96 150.5 96.2 150.9 96.3 C 151.8 96.8 152.4 96.8 152.4 96.8 Z " id="Path" fill="#52391E" stroke-width="1"/>
          <path d="M 152.2 80.7 C 152.2 80.7 151.6 80.6 150.7 80.3 C 150.2 80.2 149.7 80 149.2 79.9 C 148.7 79.7 148.1 79.5 147.7 79.1 C 147.5 78.9 147.4 78.7 147.4 78.5 C 147.4 78.3 147.5 78.1 147.7 77.8 C 148 77.4 148.5 77 148.8 76.7 C 149.2 76.4 149.5 76.2 149.7 76 C 149.9 75.8 150 75.7 150 75.7 C 150 75.7 149.4 75.9 148.5 76.3 C 148.3 76.4 148.1 76.5 147.8 76.7 C 147.6 76.9 147.3 77 147.1 77.3 C 146.9 77.5 146.7 77.8 146.6 78.3 C 146.5 78.7 146.8 79.2 147.1 79.4 C 147.7 79.9 148.3 80.1 148.9 80.2 C 149.5 80.3 150 80.4 150.5 80.5 C 151.6 80.8 152.2 80.7 152.2 80.7 Z " id="Path" fill="#52391E" stroke-width="1"/>
          <path d="M 145.1 88.1 C 145.1 88.1 144.5 88 143.7 87.9 C 143.3 87.8 142.8 87.7 142.3 87.6 C 141.8 87.5 141.3 87.3 141 86.9 C 140.7 86.6 140.8 86.1 141 85.7 C 141.2 85.3 141.5 84.9 141.8 84.6 C 142.1 84.3 142.3 84 142.5 83.8 C 142.7 83.6 142.8 83.5 142.8 83.5 C 142.8 83.5 142.3 83.8 141.6 84.3 C 141.3 84.6 140.9 84.9 140.6 85.4 C 140.4 85.6 140.3 85.9 140.3 86.3 C 140.3 86.6 140.4 87 140.6 87.3 C 141.1 87.8 141.7 88 142.3 88.1 C 142.8 88.2 143.4 88.2 143.8 88.2 C 144.6 88.2 145.1 88.1 145.1 88.1 Z " id="Path" fill="#52391E" stroke-width="1"/>
          <path d="M 142.5 83.3 C 142.5 83.3 141.9 83.2 141.1 83.1 C 140.7 83 140.2 83 139.7 82.8 C 139.2 82.7 138.7 82.5 138.4 82.2 C 138.1 81.9 138.1 81.5 138.3 81 C 138.5 80.6 138.8 80.2 139.1 79.9 C 139.4 79.6 139.6 79.3 139.8 79.1 C 140 78.9 140.1 78.8 140.1 78.8 C 140.1 78.8 139.6 79.1 138.9 79.6 C 138.7 79.7 138.6 79.9 138.4 80.1 C 138.2 80.3 138.1 80.5 137.9 80.8 C 137.8 81 137.6 81.4 137.6 81.7 C 137.6 82.1 137.7 82.4 138 82.7 C 138.2 83 138.5 83.1 138.8 83.2 C 139.1 83.3 139.4 83.4 139.6 83.4 C 140.1 83.5 140.7 83.5 141.1 83.5 C 141.9 83.5 142.5 83.3 142.5 83.3 Z " id="Path" fill="#52391E" stroke-width="1"/>
          <path d="M 145.1 66.5 C 145.1 66.5 144.9 66.5 144.6 66.4 C 144.3 66.3 143.8 66.2 143.3 66 C 143 65.9 142.8 65.8 142.5 65.6 C 142.2 65.5 141.9 65.3 141.6 65.1 C 141.3 64.9 141 64.7 140.8 64.4 C 140.7 64.3 140.6 64.1 140.5 64 L 140.3 63.8 L 140.2 63.6 L 140.1 63.4 L 140.1 63.2 C 140.1 63 140.1 62.9 140.1 62.7 C 140.1 62.5 140.2 62.4 140.3 62.3 C 140.4 62.2 140.4 62 140.6 61.9 C 140.7 61.8 140.8 61.7 140.9 61.5 C 141 61.4 141.2 61.3 141.3 61.2 C 141.5 61 141.8 60.8 142 60.7 C 142.2 60.6 142.5 60.4 142.7 60.3 C 142.9 60.2 143.1 60.1 143.2 60 C 143.5 59.8 143.7 59.8 143.7 59.8 C 143.7 59.8 143.5 59.8 143.2 59.9 C 142.9 60 142.4 60.1 141.9 60.3 C 141.6 60.4 141.3 60.5 141.1 60.7 C 141 60.8 140.8 60.9 140.7 61 C 140.6 61.1 140.4 61.3 140.3 61.4 C 140.2 61.5 140 61.7 139.9 61.9 C 139.8 62.1 139.7 62.3 139.7 62.5 C 139.7 62.7 139.6 62.9 139.7 63.2 L 139.8 63.5 C 139.8 63.6 139.9 63.7 139.9 63.8 L 140 64.1 L 140.2 64.3 C 140.3 64.5 140.5 64.6 140.6 64.8 C 140.9 65.1 141.2 65.3 141.5 65.5 C 141.8 65.7 142.1 65.8 142.5 66 C 142.8 66.1 143.1 66.2 143.4 66.3 C 143.7 66.4 144 66.4 144.2 66.4 C 144.4 66.4 144.6 66.4 144.8 66.4 C 144.9 66.5 145.1 66.5 145.1 66.5 Z " id="Path" fill="#52391E" stroke-width="1"/>
          <path d="M 147.1 60.3 C 147.1 60.3 146.4 60.1 145.3 59.9 C 144.8 59.8 144.1 59.6 143.5 59.4 C 142.9 59.2 142.1 58.9 141.7 58.5 C 141.5 58.3 141.3 58.1 141.4 57.8 C 141.5 57.6 141.7 57.3 141.9 57.1 C 142.4 56.6 142.9 56.3 143.4 56 C 143.9 55.7 144.3 55.5 144.6 55.3 C 144.9 55.1 145 55 145 55 C 145 55 144.3 55.2 143.2 55.6 C 142.7 55.8 142.1 56.1 141.5 56.6 C 141.2 56.8 140.9 57.1 140.8 57.6 C 140.7 58.1 140.9 58.6 141.3 58.9 C 142 59.4 142.7 59.7 143.4 59.9 C 144.1 60.1 144.8 60.2 145.3 60.2 C 146.4 60.3 147.1 60.3 147.1 60.3 Z " id="Path" fill="#52391E" stroke-width="1"/>
          <path d="M 133.5 50.2 C 133.5 50.2 132.8 50 131.8 49.6 C 131.3 49.4 130.7 49.2 130.1 48.9 C 129.5 48.6 128.9 48.3 128.4 47.8 C 128.2 47.6 128.1 47.3 128.1 47.1 C 128.1 46.9 128.3 46.6 128.5 46.4 C 128.7 46.2 129 46 129.2 45.8 C 129.4 45.6 129.7 45.5 129.9 45.4 C 130.4 45.1 130.8 44.9 131 44.8 C 131.3 44.7 131.4 44.6 131.4 44.6 C 131.4 44.6 130.7 44.7 129.7 45.1 C 129.4 45.2 129.2 45.3 128.9 45.5 C 128.6 45.6 128.3 45.8 128 46.1 C 127.7 46.3 127.4 46.6 127.3 47.1 C 127.2 47.6 127.4 48.1 127.7 48.3 C 128.3 48.9 129 49.2 129.6 49.5 C 130.2 49.8 130.9 49.9 131.4 50 C 132.7 50.1 133.5 50.2 133.5 50.2 Z " id="Path" fill="#52391E" stroke-width="1"/>
          <path d="M 128.1 62.3 C 128.1 62.3 127.6 62 126.8 61.6 C 126.4 61.4 126 61.1 125.5 60.9 C 125.1 60.6 124.6 60.3 124.2 59.9 C 124 59.7 123.9 59.5 123.9 59.3 C 123.9 59.1 124 58.9 124.1 58.7 C 124.4 58.3 124.9 58.1 125.2 57.8 C 125.6 57.6 125.9 57.4 126.1 57.3 C 126.3 57.2 126.5 57.1 126.5 57.1 C 126.5 57.1 126.4 57.1 126.1 57.2 C 125.8 57.3 125.5 57.3 125 57.5 C 124.6 57.6 124.1 57.9 123.6 58.3 C 123.4 58.5 123.2 58.9 123.2 59.3 C 123.2 59.7 123.4 60 123.6 60.3 C 124 60.8 124.6 61.1 125.1 61.4 C 125.6 61.7 126.1 61.9 126.5 62 C 127.5 62.2 128.1 62.3 128.1 62.3 Z " id="Path" fill="#52391E" stroke-width="1"/>
          <path d="M 117.3 39.2 C 117.3 39.2 115 39.1 111.6 38.7 C 109.9 38.5 107.9 38.2 105.8 37.9 C 104.8 37.7 103.7 37.5 102.6 37.2 C 102.1 37 101.5 36.8 101.1 36.6 C 100.6 36.4 100.1 36.1 99.9 35.7 C 99.4 34.8 100.7 34.3 101.7 34 C 102.8 33.7 103.9 33.6 104.9 33.5 C 107 33.4 109 33.3 110.7 33.4 C 114.1 33.4 116.4 33.6 116.4 33.6 C 116.4 33.6 114.1 33.3 110.7 33.1 C 109 33 107 32.9 104.8 33 C 103.7 33.1 102.6 33.2 101.5 33.4 C 100.9 33.5 100.4 33.7 99.8 34.1 C 99.5 34.3 99.3 34.6 99.1 34.9 L 99.1 35.1 C 99.1 35.3 99.1 35.3 99.1 35.4 C 99.1 35.6 99.2 35.8 99.3 35.9 C 99.7 36.5 100.3 36.8 100.8 37.1 C 101.3 37.3 101.9 37.5 102.4 37.7 C 103.5 38 104.6 38.2 105.7 38.4 C 107.8 38.8 109.8 38.9 111.5 39 C 115 39.2 117.3 39.2 117.3 39.2 Z " id="Path" fill="#52391E" stroke-width="1"/>
          <path d="M 111.5 39.2 C 111.5 39.2 110.9 39.1 109.9 39.1 C 108.9 39.1 107.4 39 105.6 39 C 104.7 39 103.7 39.1 102.7 39.2 C 101.7 39.3 100.6 39.4 99.5 39.7 C 98.4 40 97.2 40.3 96.3 41.3 C 96.2 41.4 96.1 41.6 96 41.7 C 95.9 41.9 95.8 42 95.8 42.2 L 95.8 42.5 C 95.8 42.6 95.8 42.5 95.8 42.7 L 95.8 42.8 C 95.8 42.9 95.8 43.1 95.9 43.3 C 96.2 44 96.8 44.3 97.4 44.6 C 98.5 45.1 99.7 45.3 100.9 45.5 C 102.1 45.7 103.2 45.8 104.3 45.9 C 106.5 46.1 108.6 46.1 110.4 46 C 114 45.9 116.4 45.7 116.4 45.7 C 116.4 45.7 114 45.7 110.5 45.6 C 108.7 45.6 106.6 45.4 104.4 45.3 C 103.3 45.2 102.2 45.1 101 44.9 C 99.9 44.7 98.7 44.4 97.7 44 C 97.2 43.8 96.7 43.4 96.5 43.1 L 96.4 43 L 96.4 42.8 L 96.4 42.7 C 96.4 42.8 96.4 42.7 96.4 42.7 L 96.4 42.5 C 96.4 42.4 96.5 42.3 96.5 42.2 C 96.6 42.1 96.6 42 96.7 41.9 C 97.4 41.1 98.6 40.8 99.6 40.5 C 101.7 40 103.8 39.8 105.6 39.7 C 107.4 39.6 108.9 39.5 109.9 39.5 C 110.9 39.2 111.5 39.2 111.5 39.2 Z " id="Path" fill="#52391E" stroke-width="1"/>
          <path d="M 114.5 58.8 C 114.5 58.8 113.9 58.9 113 59 C 112 59.1 110.7 59.3 109 59.4 C 107.3 59.5 105.4 59.6 103.3 59.5 C 102.3 59.4 101.2 59.3 100.2 59 C 99.2 58.7 98.2 58.2 97.8 57.3 C 97.7 57 97.9 56.6 98.3 56.3 C 98.7 56 99.2 55.8 99.7 55.6 C 100.7 55.2 101.7 55 102.8 54.7 C 104.8 54.3 106.8 54 108.4 53.8 C 111.7 53.4 113.9 53.2 113.9 53.2 C 113.9 53.2 111.7 53.2 108.3 53.5 C 106.6 53.7 104.7 53.8 102.6 54.2 C 101.6 54.4 100.5 54.7 99.4 55 C 98.9 55.2 98.3 55.4 97.9 55.8 C 97.7 56 97.4 56.2 97.3 56.5 C 97.1 56.8 97.1 57.2 97.2 57.6 C 97.4 58.2 97.9 58.6 98.4 58.9 C 98.9 59.2 99.5 59.4 100 59.6 C 101.1 59.9 102.2 60 103.2 60.1 C 105.3 60.2 107.3 60 108.9 59.8 C 110.6 59.6 111.9 59.3 112.9 59.2 C 113.9 59 114.5 58.8 114.5 58.8 Z " id="Path" fill="#52391E" stroke-width="1"/>
          <path d="M 99.5 35.2 C 99.5 35.2 98.9 35.2 97.8 35.1 C 96.7 35 95.1 34.9 93.2 34.7 C 91.3 34.5 89.1 34.2 86.8 33.6 C 85.7 33.3 84.5 33 83.4 32.4 C 82.3 31.9 81.3 31 81.4 29.9 L 81.4 29.7 L 81.5 29.5 C 81.5 29.3 81.6 29.3 81.7 29.2 C 81.9 29 82.1 28.9 82.4 28.7 C 82.9 28.4 83.5 28.3 84.1 28.2 C 85.3 28 86.5 28 87.7 28 C 90.1 28 92.3 28.2 94.2 28.4 C 98 28.8 100.5 29.2 100.5 29.2 C 100.5 29.2 98 28.6 94.2 28.1 C 92.3 27.9 90.1 27.6 87.7 27.5 C 86.5 27.5 85.3 27.5 84 27.7 C 83.4 27.8 82.7 27.9 82.1 28.2 C 81.8 28.3 81.5 28.5 81.2 28.8 C 81.1 29 80.9 29.2 80.9 29.3 L 80.8 29.5 C 80.8 29.7 80.8 29.7 80.8 29.8 C 80.7 30.5 81 31.3 81.5 31.8 C 82 32.3 82.5 32.7 83.1 32.9 C 84.3 33.5 85.5 33.8 86.6 34.1 C 88.9 34.6 91.2 34.8 93.1 35 C 95 35.1 96.6 35.2 97.7 35.2 C 98.8 35.2 99.5 35.2 99.5 35.2 Z " id="Path" fill="#52391E" stroke-width="1"/>
          <path d="M 128.5 73.3 C 128.5 73.3 126.6 74.1 123.6 75 C 122.1 75.5 120.4 76 118.5 76.4 C 117.6 76.6 116.6 76.8 115.6 76.8 C 114.6 76.8 113.6 76.8 112.8 76.3 C 112.5 76.1 112.5 75.7 112.7 75.3 C 112.9 74.9 113.3 74.6 113.6 74.2 C 114.3 73.6 115.2 73 116 72.6 C 117.7 71.7 119.3 70.9 120.8 70.4 C 122.2 69.9 123.5 69.5 124.3 69.3 C 125.2 69.1 125.7 68.9 125.7 68.9 C 125.7 68.9 125.2 69 124.3 69.1 C 123.4 69.3 122.1 69.5 120.7 70 C 119.2 70.5 117.5 71.1 115.8 72 C 114.9 72.5 114.1 73 113.3 73.7 C 112.9 74 112.5 74.4 112.2 74.9 C 112.1 75.2 111.9 75.5 111.9 75.8 C 111.9 76.2 112.1 76.5 112.4 76.7 C 112.6 76.9 113 77 113.2 77.1 C 113.5 77.2 113.7 77.2 114 77.3 C 114.3 77.4 114.5 77.3 114.8 77.3 C 115.1 77.3 115.3 77.3 115.6 77.3 C 116.6 77.2 117.6 77 118.6 76.8 C 119.6 76.6 120.5 76.3 121.3 76 C 122.1 75.7 122.9 75.4 123.7 75.2 C 126.6 74.3 128.5 73.3 128.5 73.3 Z " id="Path" fill="#52391E" stroke-width="1"/>
        </g>
        <g id="Group">
          <path d="M 129.3 132.9 C 125 150.2 110.7 168.7 98.4 176.5 C 86.1 184.3 81.7 203.5 81.7 203.5 C 81.7 203.5 87.2 210.1 86.1 212.3 C 83.6 217.2 72.9 214.3 70 210.4 C 67.1 206.5 68 171.2 73.9 166.8 C 79.8 162.4 85.7 160.9 84.2 149.6 C 82.7 138.3 81.2 113.3 91.8 109.9 C 102.3 106.4 135.7 106.9 129.3 132.9 Z " id="Path" fill="#704E2C" stroke-width="1"/>
          <path d="M 126.7 140.3 C 126.7 140.3 126.2 141.5 125.3 143.4 C 124.4 145.4 122.9 148.1 121.1 151.3 C 119.2 154.5 116.9 158.2 114.1 161.8 C 112.7 163.6 111.2 165.5 109.5 167.2 C 108.6 168.1 107.8 168.9 106.8 169.7 C 105.9 170.5 104.8 171.2 103.8 171.9 C 101.8 173.4 99.8 174.9 97.9 176.4 C 96 178 94.2 179.5 92.5 181.2 C 90.9 182.9 89.4 184.6 88.3 186.4 C 87.2 188.2 86.2 190 85.5 191.7 C 84.8 193.4 84.2 195 83.7 196.5 C 83.2 197.9 82.9 199.2 82.6 200.2 C 82 202.3 81.7 203.5 81.7 203.5 C 81.7 203.5 82.1 202.3 82.7 200.2 C 83 199.2 83.4 197.9 83.9 196.5 C 84.4 195.1 85 193.5 85.8 191.8 C 86.5 190.1 87.5 188.3 88.7 186.6 C 89.9 184.8 91.3 183.1 92.9 181.5 C 94.5 179.8 96.4 178.3 98.2 176.8 C 100.1 175.3 102.1 173.8 104.1 172.4 C 105.1 171.7 106.1 171 107.1 170.2 C 108.1 169.4 109 168.6 109.8 167.7 C 111.5 165.9 113 164.1 114.5 162.2 C 117.3 158.5 119.6 154.8 121.4 151.5 C 123.2 148.3 124.5 145.4 125.4 143.5 C 126.3 141.5 126.7 140.3 126.7 140.3 Z " id="Path" fill="#423118" stroke-width="1"/>
          <path d="M 82.9 210 C 82.9 210 83 210.3 83.2 210.6 C 83.4 211 83.6 211.5 83.9 211.9 C 84.2 212.4 84.4 212.8 84.6 213.2 C 84.7 213.4 84.8 213.5 84.8 213.7 C 84.8 213.8 84.9 213.9 84.9 213.9 C 84.9 213.9 85 213.6 85 213.2 C 85 212.8 84.8 212.2 84.6 211.7 C 84.3 211.2 84 210.8 83.7 210.5 C 83.2 210.1 82.9 210 82.9 210 Z " id="Path" fill="#423118" stroke-width="1"/>
          <path d="M 79.1 211.4 C 79.1 211.4 79.2 211.6 79.3 212 C 79.4 212.3 79.6 212.7 79.8 213.2 C 80 213.6 80.2 214 80.3 214.3 C 80.4 214.5 80.4 214.6 80.5 214.7 C 80.5 214.8 80.6 214.9 80.6 214.9 C 80.6 214.9 80.7 214.7 80.7 214.3 C 80.7 213.9 80.6 213.4 80.4 213 C 80.2 212.6 79.9 212.2 79.6 211.9 C 79.3 211.6 79.1 211.4 79.1 211.4 Z " id="Path" fill="#423118" stroke-width="1"/>
          <path d="M 70 177.9 C 70 177.9 70 177.7 70 177.3 C 70 176.9 70.1 176.3 70.2 175.6 C 70.5 174.2 71 172.1 72.1 169.9 C 72.7 168.8 73.4 167.7 74.4 166.7 C 74.7 166.5 74.9 166.2 75.2 166 C 75.5 165.8 75.8 165.6 76.1 165.4 C 76.7 165.1 77.4 164.7 78.1 164.4 C 79.5 163.6 80.9 162.6 82 161.4 C 83.1 160.1 83.9 158.5 84.3 156.9 C 84.7 155.2 84.8 153.5 84.7 151.9 C 84.6 150.2 84.3 148.6 84.1 147.1 C 83.7 144 83.5 141.1 83.4 138.6 C 83.3 136.1 83.2 134 83.1 132.6 C 83.1 131.1 83.1 130.3 83.1 130.3 C 83.1 130.3 83.1 131.1 83 132.6 C 83 134.1 82.9 136.1 83 138.7 C 83.1 141.2 83.2 144.1 83.5 147.3 C 83.6 148.9 84 150.5 84 152.1 C 84.1 153.7 84 155.4 83.6 156.9 C 83.2 158.5 82.5 160 81.5 161.2 C 80.5 162.4 79.2 163.4 77.9 164.1 C 77.2 164.5 76.5 164.8 75.8 165.2 C 75.5 165.4 75.2 165.6 74.9 165.9 C 74.6 166.1 74.3 166.4 74.1 166.7 C 73.1 167.7 72.3 168.9 71.8 170.1 C 71.2 171.2 70.9 172.3 70.6 173.3 C 70.3 174.3 70.2 175.2 70.1 175.9 C 70 176.6 70 177.2 69.9 177.6 C 70 177.7 70 177.9 70 177.9 Z " id="Path" fill="#423118" stroke-width="1"/>
          <path d="M 78.9 170.3 C 78.9 170.3 78.5 170.5 78 170.9 C 77.5 171.3 76.9 172 76.5 172.8 C 76.4 173 76.3 173.2 76.2 173.4 C 76.1 173.6 76.1 173.8 76 174 C 75.9 174.2 75.9 174.4 75.9 174.6 C 75.9 174.8 75.9 175 75.9 175.1 C 75.9 175.4 75.9 175.7 76 175.9 C 76 176.1 76 176.2 76 176.2 C 76 176.2 76 176.1 76.1 175.9 C 76.1 175.7 76.2 175.5 76.3 175.2 C 76.4 174.9 76.5 174.6 76.6 174.2 C 76.7 173.8 76.9 173.5 77.1 173.1 C 77.5 172.4 77.9 171.7 78.3 171.2 C 78.6 170.7 78.9 170.3 78.9 170.3 Z " id="Path" fill="#423118" stroke-width="1"/>
        </g>
      </g>
    </g>
  </g>
</svg>