<svg version="1.1" xmlns="http://www.w3.org/2000/svg" xmlns:xlink="http://www.w3.org/1999/xlink" width="242.64431" height="247.71802" viewBox="0,0,242.64431,247.71802"><g transform="translate(-119.17785,-56.7808)"><g data-paper-data="{&quot;isPaintingLayer&quot;:true}" fill="none" fill-rule="evenodd" stroke="none" stroke-width="none" stroke-linecap="none" stroke-linejoin="none" stroke-miterlimit="10" stroke-dasharray="" stroke-dashoffset="0" font-family="none" font-weight="none" font-size="none" text-anchor="none" style="mix-blend-mode: normal"><g data-paper-data="{&quot;index&quot;:null}" id="Group" stroke-linejoin="miter"><path d="M325.98306,151.27633c-1.25154,0 -2.26612,0 -2.26612,0v-30.14937c0,0 1.01458,0 2.26612,0h0c1.25154,0 2.26612,0 2.26612,0v30.14937c0,0 -1.01458,0 -2.26612,0z" id="Rectangle" fill="#d974e8" stroke="#5e154d" stroke-width="0.6" stroke-linecap="butt"/><g id="Path"><path d="M299.587,128.5909h17.9191c2.4623,-0.2848 4.7036,-1.5559 6.2108,-3.5223v22.308c-1.5072,-1.9664 -3.7485,-3.2375 -6.2108,-3.5223h-17.9191c-4.2182,0 -7.6377,-3.4168 -7.6377,-7.6317c0,-4.2149 3.4195,-7.6317 7.6377,-7.6317z" fill="#8b49d4" stroke="#5e154d" stroke-width="0.6" stroke-linecap="butt"/><path d="M304.2451,155.05024h-4.19652v-11.19594h4.19652z" fill="#8b49d4" stroke="#5e154d" stroke-width="0.6" stroke-linecap="butt"/><path d="M295.8521,136.3065c0,-2.3159 1.8788,-4.1933 4.1965,-4.1933" fill="none" stroke="#ffffff" stroke-width="0.6" stroke-linecap="butt"/><path d="M344.9933,136.2226h-7.1341" fill="none" stroke="#5e154d" stroke-width="1.2" stroke-linecap="round"/><path d="M337.8592,147.754l5.4555,5.4093" fill="none" stroke="#5e154d" stroke-width="1.2" stroke-linecap="round"/><path d="M337.8592,124.6912l5.4555,-5.4093" fill="none" stroke="#5e154d" stroke-width="1.2" stroke-linecap="round"/></g></g><g data-paper-data="{&quot;index&quot;:null}" id="Group" stroke="none" stroke-width="1" stroke-linecap="butt" stroke-linejoin="miter"><path d="M125.7252,161.5498c0,-4.4029 2.1403,-6.4996 5.9171,-6.4996h180.828c3.4771,0.2951 6.2662,2.9944 6.6724,6.4576l7.0502,45.1193l24.8434,17.318c3.2019,1.7378 4.9781,5.2875 4.4483,8.8897v17.5696h-229.7594z" id="Path" fill="#f7c1d8"/><path d="M355.4846,249.2723v37.1101h-28.1167c0.0684,-6.8303 -2.6226,-13.3996 -7.4643,-18.2218c-4.8417,-4.8221 -11.4249,-7.4895 -18.2603,-7.3989c-6.7371,-0.0521 -13.2006,2.6601 -17.8806,7.5028c-4.6799,4.8428 -7.1665,11.392 -6.8789,18.1179h-73.5649c-0.5616,-13.9866 -12.0726,-25.0363 -26.0814,-25.0363c-14.0088,0 -25.5198,11.0497 -26.0814,25.0363h-25.4309v-37.1101z" id="Path" fill="#da53d6"/></g><path d="M235.12846,155.05024h-5.24565v-12.11845h5.24565z" data-paper-data="{&quot;index&quot;:null}" id="Path" fill="#5e154d" stroke="#5e154d" stroke-width="1.512" stroke-linecap="round" stroke-linejoin="round"/><path d="M164.37517,154.92444h-5.24565v-12.11845h5.24565z" data-paper-data="{&quot;index&quot;:null}" id="Path" fill="#5e154d" stroke="#5e154d" stroke-width="1.512" stroke-linecap="round" stroke-linejoin="round"/><g data-paper-data="{&quot;index&quot;:null}" id="Group" stroke-linecap="butt"><path d="M310.9595,174.5069c2.0144,0 3.9028,0.5031 4.4483,4.1932l4.868,33.5459c-0.0196,1.0708 -0.5497,2.068 -1.4268,2.6837l-10.1556,-40.6325z" id="Path" fill="#b3e0d7" stroke="none" stroke-width="1" stroke-linejoin="miter"/><path d="M305.0005,174.5488l10.3234,41.3872h-9.7359c-2.0164,0 -3.651,-1.6333 -3.651,-3.6481v-34.1329c0.0145,-1.784 1.3042,-3.3022 3.0635,-3.6062z" id="Path" fill="#b3e0d7" stroke="none" stroke-width="1" stroke-linejoin="miter"/><path d="M305.588,174.5069h3.1054l10.1556,40.6324c-0.6712,0.5225 -1.4993,0.8032 -2.3501,0.7967h-1.175l-10.3234,-41.3872z" id="Path" fill="#d4fff5" stroke="none" stroke-width="1" stroke-linejoin="miter"/><path d="M305.0005,174.5488h5.959c2.0144,0 3.9028,0.5032 4.4483,4.1932l4.868,33.5459c-0.0196,1.0709 -0.5497,2.068 -1.4268,2.6837c-0.6712,0.5225 -1.4993,0.8032 -2.3501,0.7967h-10.9109c-2.0164,0 -3.651,-1.6333 -3.651,-3.6481v-33.9652c0.0145,-1.784 1.3042,-3.3022 3.0635,-3.6062z" id="Path" fill="none" stroke="#5e154d" stroke-width="1.512" stroke-linejoin="round"/></g><g data-paper-data="{&quot;index&quot;:null}" id="Group"><path d="M179.56657,182.93527v44.90957h-8.98055l-11.24667,-44.90957z" id="Path" fill="#b3e0d7" stroke="none" stroke-width="1" stroke-linecap="butt" stroke-linejoin="miter"/><path d="M159.33935,182.93527l11.24667,44.90957h-6.04299l-11.24667,-44.90957z" id="Path" fill="#d4fff5" stroke="none" stroke-width="1" stroke-linecap="butt" stroke-linejoin="miter"/><path d="M149.89719,182.93527l11.2047,44.90957h-3.39918l-11.24667,-44.90957z" id="Path" fill="#d4fff5" stroke="none" stroke-width="1" stroke-linecap="butt" stroke-linejoin="miter"/><path d="M153.29637,182.93527l11.24667,44.90957h-3.44114l-11.2047,-44.90957z" id="Path" fill="#b3e0d7" stroke="none" stroke-width="1" stroke-linecap="butt" stroke-linejoin="miter"/><path d="M145.07119,182.93527h1.38485l11.24667,44.90957h-12.63152z" id="Path" fill="#b3e0d7" stroke="none" stroke-width="1" stroke-linecap="butt" stroke-linejoin="miter"/><g id="Path" stroke="#5e154d" stroke-width="1.512" stroke-linejoin="round"><path d="M228.24617,232.37353h-87.70721v-4.5287h87.70721z" fill="#996cd4" stroke-linecap="round"/><path d="M144.73547,166.07845h39.57316h0.1259h39.61512l3.69294,16.85681h-43.30806h-0.1259h-43.26609z" fill="#ea3681" stroke-linecap="butt"/><path d="M223.67196,227.84483h-44.1054v-44.90957h44.1054z" fill="#43c3d7" stroke-linecap="round"/><path d="M223.67196,239.50203h-4.19652v-7.1285h4.19652z" fill="#5e154d" stroke-linecap="round"/><path d="M148.72216,239.50203h-4.19652v-7.1285h4.19652z" fill="#5e154d" stroke-linecap="round"/><path d="M179.56657,227.84483h-34.49537v-44.90957h34.49537z" fill="none" stroke-linecap="round"/></g></g><g data-paper-data="{&quot;index&quot;:null}" id="Group" stroke-linecap="butt"><path d="M246.501,174.5069h43.8956c2.0164,0 3.651,1.6333 3.651,3.6481v75.7298c-12.1609,1.9521 -21.8118,11.2773 -24.172,23.3564h-23.2906c-1.9838,-0.0227 -3.5864,-1.624 -3.6091,-3.6062v-95.48c-0.0011,-1.9667 1.5581,-3.5803 3.5251,-3.6481z" id="Path" fill="#fc9fe4" stroke="#5e154d" stroke-width="1.512" stroke-linejoin="round"/><path d="M286.49383,183.35459v33.08464h-4.61617l-8.26714,-33.08464z" id="Path" fill="#b3e0d7" stroke="none" stroke-width="1" stroke-linejoin="miter"/><path d="M273.61052,183.35459l8.26714,33.08464h-6.08495l-8.22517,-33.08464z" id="Path" fill="#d4fff5" stroke="none" stroke-width="1" stroke-linejoin="miter"/><path d="M267.56754,183.35459l8.22517,33.08464h-3.39918l-8.22517,-33.08464z" id="Path" fill="#b3e0d7" stroke="none" stroke-width="1" stroke-linejoin="miter"/><path d="M264.16836,183.35459l8.22517,33.08464h-3.44114l-8.22517,-33.08464z" id="Path" fill="#d4fff5" stroke="none" stroke-width="1" stroke-linejoin="miter"/><path d="M250.40378,183.35459h10.32343l8.22517,33.08464h-18.54861z" id="Path" fill="#b3e0d7" stroke="none" stroke-width="1" stroke-linejoin="miter"/><path d="M286.49383,236.81836h-4.19652v-9.01546h4.19652z" id="Path" fill="none" stroke="#d974e8" stroke-width="1.512" stroke-linejoin="round"/></g><g data-paper-data="{&quot;index&quot;:null}" id="Group" stroke-linejoin="miter"><g id="Path" stroke-linecap="butt"><path d="M360.81415,263.19382h-5.37154v-10.86048h5.37154z" fill="#f7c1d8" stroke="#5e154d" stroke-width="2.016"/><path d="M341.17445,267.80638h-8.39303v-4.65449h8.39303z" fill="none" stroke="#fc9fe4" stroke-width="1.512"/><path d="M125.72525,263.19382h-5.5394v-10.86048h5.5394z" fill="#8b49d4" stroke="#5e154d" stroke-width="2.016"/><path d="M315.9114,227.8029h-10.869" fill="none" stroke="#000000" stroke-width="2.016"/><path d="M305.0424,232.5832h10.869" fill="none" stroke="#000000" stroke-width="2.016"/><path d="M315.9114,237.4054h-10.869" fill="none" stroke="#000000" stroke-width="2.016"/><path d="M131.6423,155.0502h180.828c3.4771,0.2951 6.2662,2.9944 6.6724,6.4576l7.0502,45.1193l24.8434,17.318c3.2019,1.7378 4.9781,5.2875 4.4483,8.8897v53.5476h-28.1167c-0.0106,-6.8796 -2.7763,-13.4689 -7.6801,-18.2979c-4.9038,-4.8291 -11.5378,-7.4963 -18.4222,-7.4066c-13.5739,0.9713 -24.1754,12.1097 -24.4657,25.7045h-73.481c-0.0693,-14.3555 -11.7355,-25.9563 -26.1024,-25.9561c-14.3521,0 -25.1791,13.5022 -25.5568,25.9561h-25.9345v-124.8326c0,-4.4029 2.1403,-6.4996 5.9171,-6.4996z" fill="none" stroke="#5e154d" stroke-width="2.016"/></g><path d="M352.46308,273.34145v-10.18957h6.46264v23.23053h-12.88331v-13.04097z" id="Path" fill="#d974e8" stroke="#5e154d" stroke-width="2.016" stroke-linecap="butt"/><path d="M301.937,266.171c-11.8477,0.3203 -21.2175,10.1321 -20.9826,21.9726h-6.2528c-0.9975,-10.3629 3.9724,-20.3946 12.8243,-25.8854c8.8519,-5.4909 20.0543,-5.4909 28.9062,0c8.8519,5.4908 13.8218,15.5225 12.8242,25.8854h-6.2528c0.2344,-11.8724 -9.1857,-21.6977 -21.0665,-21.9726z" id="Path" fill="#fdbb38" stroke="#5e154d" stroke-width="1.512" stroke-linecap="butt"/><path d="M177.888,266.171c-11.8377,0.3428 -21.1946,10.1411 -20.9826,21.9726h-6.2528c-0.9976,-10.3629 3.9723,-20.3946 12.8243,-25.8854c8.8519,-5.4909 20.0542,-5.4909 28.9061,0c8.8519,5.4908 13.8219,15.5225 12.8243,25.8854h-6.2109c0.211,-11.8793 -9.2212,-21.6976 -21.1084,-21.9726z" id="Path" fill="#fdbb38" stroke="#5e154d" stroke-width="1.512" stroke-linecap="butt"/><path d="M349.4836,276.5702v5.8706" id="Path" fill="none" stroke="#ffffff" stroke-width="1.512" stroke-linecap="round"/></g><g data-paper-data="{&quot;index&quot;:null}" id="Group" stroke-linejoin="miter"><g id="Path" fill="none" stroke="#ffffff" stroke-width="2.52" stroke-linecap="round"><path d="M131.1807,171.6135v-6.2898c-0.1701,-1.3943 0.299,-2.7908 1.2766,-3.8002c0.9775,-1.0094 2.359,-1.5237 3.7592,-1.3994h5.6234"/><path d="M145.6167,160.1241h3.3573"/></g><g id="Path" fill="none" stroke="#cc48cc" stroke-width="1.512" stroke-linecap="round"><path d="M231.1837,256.6524l3.1474,2.1804"/><path d="M216.8316,254.6815l-0.9232,3.732"/><path d="M225.3506,269.7353l-0.4616,-3.8159"/><path d="M254.8521,280.9312l3.609,1.3418"/><path d="M346.0424,257.1556l-3.4831,-1.6354"/><path d="M336.3904,275.3961l1.1331,3.6901"/><path d="M324.7661,259.6715l1.9304,-3.3127"/><path d="M307.2666,254.1784l3.8188,0.2516"/><path d="M286.9974,260.7198l2.8536,-2.5998"/><path d="M275.5409,273.0479v-3.8578"/><path d="M214.5236,278.4572l0.9232,-3.732"/><path d="M206.0466,264.4099l3.1474,2.1804"/><path d="M197.6955,254.9751l-2.2661,3.1449"/><path d="M181.497,254.3042l-3.8608,0.2096"/><path d="M161.2278,254.8912l2.6438,2.8514"/><path d="M148.4284,263.3615l3.1054,-2.2643"/><path d="M142.2176,256.9878l-3.609,-1.3418"/><path d="M134.3701,267.3871l-0.6295,-3.774"/><path d="M134.412,279.5894l1.7626,-3.3966"/><path d="M143.4346,271.4964l3.1473,2.2224"/><path d="M230.0926,277.8701l3.609,-1.2579"/></g><path d="M286.49383,216.39729h-36.09005v-33.04271h36.09005z" id="Path" fill="none" stroke="#5e154d" stroke-width="1.512" stroke-linecap="butt"/><g id="Path" stroke="#5e154d" stroke-width="1.512" stroke-linecap="round"><path d="M227.9104,182.9353v4.8222c0,2.6632 -2.1606,4.8222 -4.8259,4.8222c-2.6654,0 -4.826,-2.159 -4.826,-4.8222v-4.8222z" fill="#ffffff"/><path d="M218.0906,182.9353v4.8222c0.1706,1.8224 -0.7061,3.5843 -2.2632,4.5484c-1.5572,0.964 -3.5264,0.964 -5.0836,0c-1.5572,-0.9641 -2.4339,-2.726 -2.2632,-4.5484v-4.8222z" fill="#f7c1d8"/><path d="M208.4806,182.9353v4.8222c0,2.6632 -2.1607,4.8222 -4.826,4.8222c-2.6653,0 -4.826,-2.159 -4.826,-4.8222v-4.8222z" fill="#ffffff"/><path d="M198.8286,182.9353v4.8222c0.1706,1.8224 -0.7061,3.5843 -2.2633,4.5484c-1.5571,0.964 -3.5263,0.964 -5.0835,0c-1.5572,-0.9641 -2.4339,-2.726 -2.2632,-4.5484v-4.8222z" fill="#f7c1d8"/><path d="M189.2186,182.9353v4.8222c0,2.6632 -2.1607,4.8222 -4.826,4.8222c-2.6654,0 -4.826,-2.159 -4.826,-4.8222v-4.8222z" fill="#ffffff"/><path d="M179.5666,182.9353v4.8222c0,2.6632 -2.1607,4.8222 -4.826,4.8222c-2.6654,0 -4.826,-2.159 -4.826,-4.8222v-4.8222z" fill="#f7c1d8"/><path d="M169.9146,182.9353v4.8222c0.1706,1.8224 -0.7061,3.5843 -2.2633,4.5484c-1.5571,0.964 -3.5263,0.964 -5.0835,0c-1.5572,-0.9641 -2.4339,-2.726 -2.2632,-4.5484v-4.8222z" fill="#ffffff"/><path d="M160.3046,182.9353v4.8222c0,2.6632 -2.1607,4.8222 -4.826,4.8222c-2.6654,0 -4.826,-2.159 -4.826,-4.8222v-4.8222z" fill="#f7c1d8"/><path d="M150.6526,182.9353v4.8222c0.1706,1.8224 -0.7061,3.5843 -2.2633,4.5484c-1.5572,0.964 -3.5263,0.964 -5.0835,0c-1.5572,-0.9641 -2.4339,-2.726 -2.2633,-4.5484v-4.8222z" fill="#ffffff"/></g><path d="M302.02094,303.49082c-9.20116,0 -16.66017,-7.45318 -16.66017,-16.64715c0,-9.19397 7.45901,-16.64715 16.66017,-16.64715c9.20116,0 16.66017,7.45318 16.66017,16.64715c0,9.19397 -7.45901,16.64715 -16.66017,16.64715z" id="Oval" fill="#5e154d" stroke="#5e154d" stroke-width="2.016" stroke-linecap="round"/></g><path d="M302.02095,295.6914c-4.89029,0 -8.85465,-3.96126 -8.85465,-8.84773c0,-4.88647 3.96436,-8.84773 8.85465,-8.84773c4.89029,0 8.85465,3.96126 8.85465,8.84773c0,4.88647 -3.96436,8.84773 -8.85465,8.84773z" data-paper-data="{&quot;index&quot;:null}" id="Oval" fill="#c5a2fc" stroke="#c5a2fc" stroke-width="1.008" stroke-linecap="butt" stroke-linejoin="miter"/><path d="M302.02095,292.04328c-2.87391,0 -5.20368,-2.32795 -5.20368,-5.19961c0,-2.87167 2.32977,-5.19961 5.20368,-5.19961c2.87391,0 5.20368,2.32795 5.20368,5.19961c0,2.87167 -2.32977,5.19961 -5.20368,5.19961z" data-paper-data="{&quot;index&quot;:null}" id="Oval" fill="#ffffff" stroke="#8b49d4" stroke-width="1.512" stroke-linecap="round" stroke-linejoin="round"/><path d="M177.88796,303.49082c-9.20116,0 -16.66017,-7.45318 -16.66017,-16.64715c0,-9.19397 7.45901,-16.64715 16.66017,-16.64715c9.20116,0 16.66017,7.45318 16.66017,16.64715c0,9.19397 -7.45901,16.64715 -16.66017,16.64715z" data-paper-data="{&quot;index&quot;:null}" id="Oval" fill="#5e154d" stroke="#5e154d" stroke-width="2.016" stroke-linecap="round" stroke-linejoin="round"/><path d="M177.88796,295.6914c-4.89029,0 -8.85465,-3.96126 -8.85465,-8.84773c0,-4.88647 3.96436,-8.84773 8.85465,-8.84773c4.89029,0 8.85465,3.96126 8.85465,8.84773c0,4.88647 -3.96436,8.84773 -8.85465,8.84773z" data-paper-data="{&quot;index&quot;:null}" id="Oval" fill="#c5a2fc" stroke="#c5a2fc" stroke-width="1.008" stroke-linecap="butt" stroke-linejoin="miter"/><path d="M177.88796,292.04328c-2.87391,0 -5.20368,-2.32795 -5.20368,-5.19961c0,-2.87167 2.32977,-5.19961 5.20368,-5.19961c2.87391,0 5.20368,2.32795 5.20368,5.19961c0,2.87167 -2.32977,5.19961 -5.20368,5.19961z" data-paper-data="{&quot;index&quot;:null}" id="Oval" fill="#ffffff" stroke="#8b49d4" stroke-width="1.512" stroke-linecap="round" stroke-linejoin="round"/><g data-paper-data="{&quot;index&quot;:null}" id="Group" stroke-linejoin="miter"><path d="M255.7753,141.7577c-0.3777,1.9289 -4.1965,13.9635 -4.1965,13.9635c-3.1054,2.7256 -33.1105,7.5897 -62.9478,0.8805c-28.83,-6.4995 -47.0849,-28.1785 -48.2179,-32.3717l4.742,-12.3282l69.5783,-35.6844z" id="Path" fill="#fde982" stroke="#e89f1f" stroke-width="1.512" stroke-linecap="butt"/><path d="M248.893,145.7413c0,0 -32.6069,5.9544 -59.003,-0.5452c-16.5293,-4.3902 -31.1744,-14.0478 -41.7134,-27.5076" id="Path" fill="none" stroke="#ffffff" stroke-width="1.512" stroke-linecap="round"/><g id="Path" stroke="#fdbb38"><path d="M193.499,95.3386l-2.35,9.0573" fill="none" stroke-width="2.016" stroke-linecap="round"/><path d="M230.9781,118.98924l-14.20227,8.15585l-8.16223,-14.19117l14.20227,-8.15585z" fill="none" stroke-width="2.1" stroke-linecap="butt"/><path d="M220.78906,98.35967l-14.13739,8.15585l-8.16223,-14.12634l14.13739,-8.15585z" fill="none" stroke-width="1.512" stroke-linecap="butt"/><path d="M215.01756,101.64083l-8.35887,4.82222l-4.82599,-8.35233l8.35887,-4.82222z" fill="#fdbb38" stroke-width="1.512" stroke-linecap="butt"/><path d="M179.39871,103.26377l14.1003,-7.92522l8.14124,14.13121l-14.1003,8.13488z" fill="none" stroke-width="1.512" stroke-linecap="butt"/><path d="M212.8138,128.97301l-14.13739,8.15585l-8.16223,-14.12634l14.13739,-8.15585z" fill="none" stroke-width="1.512" stroke-linecap="butt"/><path d="M213.2646,141.9673c-2.9087,-0.1217 -5.8086,-0.4016 -8.6868,-0.8386l11.5404,-6.6673l4.1966,7.5479c-2.3487,0.132 -4.7033,0.118 -7.0502,-0.042z" fill="none" stroke-width="1.512" stroke-linecap="butt"/><path d="M175.8317,131.2746l9.61,-5.4932l7.5118,13.041c-3.0761,-0.9412 -6.0896,-2.0756 -9.0226,-3.3965c-4.4483,-2.0128 -8.0992,-4.1513 -8.0992,-4.1513z" fill="none" stroke-width="1.512" stroke-linecap="butt"/><path d="M232.4007,141.2545c-3.7349,0.3774 -5.7072,0.3774 -5.7072,0.3774l-5.4555,-10.0638l14.1422,-8.1349l8.1413,14.1312l-4.9939,2.8514c0,0 -2.392,0.4613 -6.1269,0.8387z" fill="none" stroke-width="1.512" stroke-linecap="butt"/><path d="M163.4939,121.6301c-2.0048,-1.8105 -3.9101,-3.7282 -5.7073,-5.7447l16.4924,-9.5186l8.1412,14.0892l-12.044,6.9608c0,0 -3.1054,-2.3482 -6.8823,-5.7867z" fill="none" stroke-width="1.512" stroke-linecap="butt"/><path d="M195.97899,112.7318l-8.35887,4.82222l-4.82599,-8.35233l8.35887,-4.82222z" fill="#fdbb38" stroke-width="1.512" stroke-linecap="butt"/><path d="M162.57067,120.74956l9.73592,-5.577l4.82599,8.34454l-6.75639,3.89971z" fill="#fdbb38" stroke-width="1.512" stroke-linecap="butt"/><path d="M226.37723,121.32941l-8.35887,4.82222l-4.82599,-8.35233l8.35887,-4.82222z" fill="#fdbb38" stroke-width="1.512" stroke-linecap="butt"/><path d="M207.07864,132.2025l-8.35887,4.82222l-4.82599,-8.35233l8.35887,-4.82222z" fill="#fdbb38" stroke-width="1.512" stroke-linecap="butt"/><path d="M224.38537,137.39671l8.98055,-5.19961l4.82599,8.38647l-11.49846,1.04831z" fill="#fdbb38" stroke-width="1.512" stroke-linecap="butt"/><path d="M224.0077,103.9347l-2.476,9.0574" fill="none" stroke-width="1.512" stroke-linecap="butt"/><path d="M204.6198,114.879l-2.392,8.9316" fill="none" stroke-width="1.512" stroke-linecap="butt"/><path d="M233.3659,132.1971l2.0143,-8.7639" fill="none" stroke-width="1.512" stroke-linecap="butt"/><path d="M172.3066,115.1726l1.9724,-8.8058" fill="none" stroke-width="1.512" stroke-linecap="butt"/><path d="M183.4274,135.1743l2.0143,-9.3929" fill="none" stroke-width="1.512" stroke-linecap="butt"/><path d="M215.9504,134.4614l-1.5527,7.5479" fill="none" stroke-width="1.512" stroke-linecap="butt"/></g></g><path d="M210.5788,75.4626c5.7057,-2.4777 12.3452,-1.2504 16.7861,3.103c1.7134,2.0027 2.515,4.6278 2.2125,7.2452c-0.3026,2.6174 -1.682,4.9908 -3.8072,6.5506c-4.6581,2.5159 -5.9171,0 -9.1903,1.5095c-2.6019,1.2161 -2.6858,3.7739 -6.7984,4.5287c-4.1126,0.7548 -5.2037,-0.587 -8.0573,0.6709c-2.8537,1.258 -3.9447,6.4995 -8.3931,6.0802c-5.3295,-0.5032 -3.7768,-5.9963 -7.176,-8.7638c-3.3992,-2.7676 -7.7216,-0.5032 -9.8618,-6.3318c-1.7626,-4.948 2.392,-8.8478 7.26,-9.1832c6.0849,-0.3774 7.5957,3.4384 13.219,2.7256c5.6233,-0.7129 8.3511,-6.206 13.8065,-8.1349z" data-paper-data="{&quot;index&quot;:null}" id="Path" fill="#ffffff" stroke="#fc9fe4" stroke-width="1.512" stroke-linecap="round" stroke-linejoin="round"/><g data-paper-data="{&quot;index&quot;:null}" id="Group" stroke-linecap="butt" stroke-linejoin="miter"><path d="M194.0865,64.1828c-0.8813,-2.8514 -1.7625,-6.2479 0,-6.793c1.7626,-0.5452 4.7421,4.5287 4.7421,4.5287c0,0 1.4268,-5.7448 3.609,-5.4093c2.1822,0.3354 2.1822,6.164 2.1822,6.164c0.6295,-0.7547 4.9519,-3.4803 5.8331,-2.0966c0.8813,1.3838 -2.2241,5.577 -2.2241,5.577z" id="Path" fill="#43c3d7" stroke="#43c3d7" stroke-width="1.218"/><g id="Path"><path d="M204.41,87.7488c-1.6145,1.8983 -4.1036,2.8168 -6.5653,2.4225c-2.4618,-0.3942 -4.5389,-2.044 -5.4788,-4.3514c-4.742,-8.2187 -5.2456,-18.618 -3.3991,-20.5888c1.8464,-1.9708 6.3787,-3.1449 13.219,-1.9708c5.8751,1.0483 10.9529,3.6062 10.9529,7.0027c-0.986,6.6042 -4.042,12.726 -8.7287,17.4858z" fill="#ea3681" stroke="#ea3681" stroke-width="1.512"/><path d="M199.3322,69.2566l-1.1331,1.5934" fill="none" stroke="#ffffff" stroke-width="1.218"/><path d="M206.2984,72.9886l-1.7626,-0.8386" fill="none" stroke="#ffffff" stroke-width="1.218"/><path d="M193.7088,75.211l-0.8393,-1.7192" fill="none" stroke="#ffffff" stroke-width="1.218"/><path d="M202.4376,77.3496l-1.5527,1.1741" fill="none" stroke="#ffffff" stroke-width="1.218"/><path d="M201.1367,83.5975l1.0491,1.6354" fill="none" stroke="#ffffff" stroke-width="1.218"/><path d="M194.8839,81.7944l0.7973,-1.7612" fill="none" stroke="#ffffff" stroke-width="1.218"/></g></g><path d="M191.1909,92.3614c2.0844,-2.1545 4.9752,-3.3404 7.9734,-3.2708c3.1598,-0.3109 6.2782,0.9044 8.393,3.2708" data-paper-data="{&quot;index&quot;:null}" id="Path" fill="#ffffff" stroke="#fc9fe4" stroke-width="1.512" stroke-linecap="round" stroke-linejoin="round"/><g data-paper-data="{&quot;index&quot;:null}" id="Group"><g id="Path" fill="#ffffff" stroke="none" stroke-width="1" stroke-linecap="butt" stroke-linejoin="miter"><path d="M210.2011,200.7146v-1.0483h1.3849v1.0483c0,0.7128 0.8813,0.3354 0.8813,1.1322v1.5095h-3.1055v-1.5095c0,-0.8806 0.8393,-0.4194 0.8393,-1.1322z"/><path d="M212.4673,203.3563h0.5875c0.3543,0.0222 0.6301,0.3162 0.6295,0.6709v2.3483c0.0006,0.3547 -0.2752,0.6487 -0.6295,0.6709h-0.5875z"/><path d="M210.9146,207.0464h-2.1403c-0.3708,0 -0.6714,-0.3004 -0.6714,-0.6709v-2.3483c0,-0.3705 0.3006,-0.6709 0.6714,-0.6709h3.693v3.6901z"/></g><path d="M212.4673,209.9397v-2.8933h0.9232v1.8869c-0.1169,0.8888 0.4373,1.7283 1.3009,1.9709c1.0491,0.4612 1.0491,1.845 1.0491,3.2707v10.9863c0,1.2579 -0.5035,2.0546 -1.6366,2.0546h-0.6714c0,-3.5223 0,-12.5797 0,-14.5924c0.0419,-1.3419 -0.9652,-1.1322 -0.9652,-2.6837z" id="Path" fill="#f7c1d8" stroke="none" stroke-width="1" stroke-linecap="butt" stroke-linejoin="miter"/><path d="M206.9279,210.9042c0.8636,-0.2426 1.4178,-1.0821 1.3009,-1.9709v-1.8869h4.1965v2.8933c0,1.5515 1.0072,1.3418 1.0072,2.6837v14.5924h-5.7493c-1.0911,0 -1.5946,-0.7967 -1.5946,-2.0546v-11.196c0,-1.4257 0,-2.5998 0.8393,-3.061z" id="Path" fill="#ea3681" stroke="none" stroke-width="1" stroke-linecap="butt" stroke-linejoin="miter"/><path d="M208.39689,207.54957c-0.16237,0 -0.294,0 -0.294,0v-4.19324c0,0 0.13163,0 0.294,0h4.99337c0.16237,0 0.294,0 0.294,0v4.19324c0,0 -0.13163,0 -0.294,0z" id="Rectangle" fill="none" stroke="#663c1d" stroke-width="1.008" stroke-linecap="round" stroke-linejoin="round"/><path d="M210.2011,200.7146v-1.0483h1.3849v1.0483c0,0.7128 0.8813,0.3354 0.8813,1.1322v1.5095h-3.1055v-1.5095c0,-0.8806 0.8393,-0.4194 0.8393,-1.1322z" id="Path" fill="none" stroke="#663c1d" stroke-width="1.008" stroke-linecap="round" stroke-linejoin="round"/><path d="M206.9279,210.9042c0.8636,-0.2426 1.4178,-1.0821 1.3009,-1.9709v-1.8869h5.1617v1.8869c-0.1169,0.8888 0.4373,1.7283 1.3009,1.9709c1.0491,0.4612 1.0491,1.845 1.0491,3.2707v10.9863c0,1.2579 -0.5035,2.0546 -1.6366,2.0546h-6.4207c-1.0911,0 -1.5946,-0.7967 -1.5946,-2.0546v-11.196c0,-1.4257 0,-2.5998 0.8393,-3.061z" id="Path" fill="none" stroke="#663c1d" stroke-width="1.008" stroke-linecap="round" stroke-linejoin="round"/></g><g data-paper-data="{&quot;index&quot;:null}" id="Group"><g id="Path" fill="#ffffff" stroke="none" stroke-width="1" stroke-linecap="butt" stroke-linejoin="miter"><path d="M197.7795,200.7146v-1.0483h1.3848v1.0483c0,0.7128 0.8393,0.3354 0.8393,1.1322v1.5095h-3.1054v-1.5095c0,-0.8806 0.8813,-0.4194 0.8813,-1.1322z"/><path d="M200.0036,203.3563h0.5875c0.3708,0 0.6715,0.3004 0.6715,0.6709v2.3483c0,0.3705 -0.3007,0.6709 -0.6715,0.6709h-0.5875z"/><path d="M198.5348,207.0464h-2.1402c-0.3543,-0.0222 -0.6302,-0.3162 -0.6295,-0.6709v-2.3483c-0.0007,-0.3547 0.2752,-0.6487 0.6295,-0.6709h3.6929v3.6901z"/></g><path d="M200.0036,209.9397v-2.8933h0.9232v1.8869c-0.1169,0.8888 0.4373,1.7283 1.301,1.9709c1.0491,0.4612 1.0491,1.845 1.0491,3.2707v10.9863c0,1.2579 -0.5036,2.0546 -1.5947,2.0546h-0.7134c0,-3.5223 0,-12.5797 0,-14.5924c0.042,-1.3419 -0.9652,-1.1322 -0.9652,-2.6837z" id="Path" fill="#fde982" stroke="none" stroke-width="1" stroke-linecap="butt" stroke-linejoin="miter"/><path d="M194.674,210.9042c0.8636,-0.2426 1.4179,-1.0821 1.301,-1.9709v-1.8869h4.1965v2.8933c0,1.5515 1.0071,1.3418 1.0071,2.6837v14.5924h-5.7072c-1.1331,0 -1.6367,-0.7967 -1.6367,-2.0546v-11.196c-0.2098,-1.4257 -0.2098,-2.5998 0.8393,-3.061z" id="Path" fill="#fdbb38" stroke="none" stroke-width="1" stroke-linecap="butt" stroke-linejoin="miter"/><path d="M195.97519,207.54957c-0.16237,0 -0.294,0 -0.294,0v-4.19324c0,0 0.13163,0 0.294,0h4.99337c0.16237,0 0.294,0 0.294,0v4.19324c0,0 -0.13163,0 -0.294,0z" id="Rectangle" fill="none" stroke="#663c1d" stroke-width="1.008" stroke-linecap="round" stroke-linejoin="round"/><path d="M197.7795,200.7146v-1.0483h1.3848v1.0483c0,0.7128 0.8393,0.3354 0.8393,1.1322v1.5095h-3.1054v-1.5095c0,-0.8806 0.8813,-0.4194 0.8813,-1.1322z" id="Path" fill="none" stroke="#663c1d" stroke-width="1.008" stroke-linecap="round" stroke-linejoin="round"/><path d="M194.674,210.9042c0.8636,-0.2426 1.4179,-1.0821 1.301,-1.9709v-1.8869h4.9518v1.8869c-0.1169,0.8888 0.4373,1.7283 1.301,1.9709c1.0491,0.4612 1.0491,1.845 1.0491,3.2707v10.9863c0,1.2579 -0.5036,2.0546 -1.5947,2.0546h-6.4207c-1.133,0 -1.6366,-0.7967 -1.6366,-2.0546v-11.196c0,-1.4257 0,-2.5998 1.0491,-3.061z" id="Path" fill="none" stroke="#663c1d" stroke-width="1.008" stroke-linecap="round" stroke-linejoin="round"/></g></g></g></svg>