<svg xmlns="http://www.w3.org/2000/svg" xmlns:xlink="http://www.w3.org/1999/xlink" width="87.60000610351562" height="265.9437561035156" viewBox="21.200000762939453 7.5 87.60000610351562 265.9437561035156" version="1.1" xml:space="preserve">
  <!-- Generator: Sketch 49.3 (51167) - http://www.bohemiancoding.com/sketch -->
  <defs/>
  <g>
    <title>witch-d</title>
    <desc>Created with Sketch.</desc>
    <g id="witch-d" stroke="none" fill-rule="evenodd">
      <g id="Witch-Angry" fill-rule="nonzero">
        <path d="M 82.7 79.4 C 82.7 79.4 83.4 76.6 72.1 76.6 C 60.8 76.6 55.3 79.1 53.5 81.2 C 53.5 81.2 55.4 47 70 53 C 84.6 59 82.7 79.4 82.7 79.4 Z " id="Shape" fill="#211910" stroke-width="1"/>
        <g id="Group">
          <g id="Shape">
            <path d="M 98.3 152.8 C 98.3 152.8 101.1 153.7 103 157.9 C 104.3 160.7 106.1 162.6 105.4 163.1 C 103.9 164.1 102.1 159.6 102.1 159.6 C 102.1 159.6 102.8 163.9 102.9 165.3 C 103 166.6 103 169.4 102.4 169.8 C 101.5 170.4 101.4 168.7 101.1 165.8 C 101.1 165.8 101.1 168.3 100.6 169.6 C 100.2 170.7 99.2 171.2 98.9 169.8 C 98.9 169.8 98.3 172.1 97 169.6 C 97 169.6 95.5 171 95.5 164.9 C 95.5 162.1 90.5 152.5 98.3 152.8 Z " fill="#FFE9B8" stroke-width="1"/>
            <path d="M 97.1 169.4 C 97.1 169.4 97.1 168.9 97.1 168.3 C 97.1 168 97.1 167.6 97.1 167.2 C 97.1 166.8 97.1 166.4 97.1 165.9 C 97.1 165.5 97.1 165 97.1 164.6 C 97.1 164.2 97.1 163.8 97.1 163.5 C 97.1 162.8 97.1 162.4 97.1 162.4 C 97.1 162.4 97.3 162.8 97.4 163.5 C 97.5 164.2 97.7 165 97.7 165.9 C 97.7 166.8 97.6 167.7 97.5 168.4 C 97.3 169 97.1 169.4 97.1 169.4 Z " fill="#BD875F" stroke-width="1"/>
            <path d="M 99.1 169.9 C 99.1 169.9 99.1 169.4 99.1 168.7 C 99.1 168 99.1 167.1 99.1 166.1 C 99.1 165.6 99.1 165.2 99.1 164.7 C 99.1 164.3 99.1 163.8 99 163.5 C 99 163.1 99 162.8 99 162.6 C 99 162.4 99 162.3 99 162.3 C 99 162.3 99.2 162.7 99.4 163.4 C 99.5 163.7 99.6 164.2 99.6 164.6 C 99.7 165 99.7 165.5 99.7 166 C 99.7 166.5 99.7 167 99.6 167.4 C 99.6 167.8 99.5 168.3 99.4 168.6 C 99.3 169.5 99.1 169.9 99.1 169.9 Z " fill="#BD875F" stroke-width="1"/>
            <path d="M 101.1 167.5 C 101.1 167.5 101 167.1 101 166.6 C 100.9 166.1 100.9 165.3 100.9 164.6 C 100.9 164.2 100.9 163.9 100.9 163.5 C 100.9 163.2 100.9 162.8 100.9 162.6 C 100.9 162.1 100.9 161.7 100.9 161.7 C 100.9 161.7 101.1 162 101.2 162.6 C 101.4 163.1 101.5 163.9 101.5 164.6 C 101.5 165 101.5 165.3 101.5 165.7 C 101.5 166 101.4 166.4 101.4 166.6 C 101.2 167.1 101.1 167.5 101.1 167.5 Z " fill="#BD875F" stroke-width="1"/>
            <path d="M 99.2 153.3 C 99.2 153.3 99.3 153.3 99.5 153.3 C 99.7 153.3 99.9 153.4 100.2 153.6 C 100.7 153.9 101.3 154.5 101.7 155.1 C 101.9 155.4 102.1 155.7 102.3 156 C 102.5 156.3 102.6 156.6 102.7 156.9 C 102.9 157.4 103 157.8 103 157.8 C 103 157.8 102.7 157.5 102.4 157.1 C 102 156.7 101.6 156 101.2 155.5 C 101 155.2 100.8 154.9 100.6 154.6 C 100.4 154.3 100.2 154.1 100 153.9 C 99.8 153.7 99.6 153.5 99.5 153.5 C 99.3 153.3 99.2 153.3 99.2 153.3 Z " fill="#BD875F" stroke-width="1"/>
            <path d="M 102.1 159.5 C 102.1 159.5 101.8 159.6 101.3 159.6 C 101.1 159.6 100.8 159.6 100.5 159.5 C 100.2 159.4 99.9 159.3 99.6 159.1 C 99.3 158.9 99.1 158.7 98.9 158.5 C 98.7 158.3 98.5 158 98.4 157.8 C 98.3 157.6 98.2 157.4 98.2 157.3 C 98.2 157.2 98.1 157.1 98.1 157.1 C 98.1 157.1 98.2 157.2 98.3 157.3 C 98.4 157.4 98.5 157.5 98.7 157.7 C 98.9 157.9 99.1 158 99.3 158.2 C 99.5 158.4 99.7 158.6 100 158.7 C 100.2 158.9 100.5 159 100.8 159.1 C 101.1 159.2 101.3 159.3 101.5 159.4 C 101.7 159.4 102.1 159.5 102.1 159.5 Z " fill="#BD875F" stroke-width="1"/>
          </g>
          <g id="Shape">
            <g>
              <path d="M 89.7 120.1 C 92.6 123.7 94.7 133.8 96 140.7 C 96.8 145.2 98.8 153.1 98.8 153.1 C 97.9 155 96.1 154.9 94.3 154.7 C 94.3 154.7 92.7 151.4 89.6 144.8 C 86.2 137.8 82.3 124.9 83.4 122.1 C 84.6 119 88.2 118.3 89.7 120.1 Z " fill="#714FAB" stroke-width="1"/>
              <path d="M 91.3 122.7 C 91.3 122.7 91.9 123.9 92.6 125.9 C 92.9 126.9 93.4 128 93.7 129.2 C 94.1 130.4 94.4 131.8 94.8 133.1 C 95.1 134.4 95.4 135.8 95.7 137.1 C 95.8 137.7 95.9 138.4 96 138.9 C 96.1 139.5 96.2 140 96.2 140.6 C 96.3 141.6 96.4 142.5 96.5 143.1 C 96.5 143.7 96.6 144 96.6 144 C 96.6 144 96.3 142.7 95.9 140.6 C 95.7 139.6 95.4 138.4 95.2 137.2 C 94.9 135.9 94.6 134.6 94.3 133.3 C 94 132 93.6 130.6 93.3 129.4 C 93 128.2 92.7 127 92.4 126 C 91.7 124 91.3 122.7 91.3 122.7 Z " fill="#3B2B78" stroke-width="1"/>
            </g>
            <path d="M 94.2 154.4 C 94.2 154.4 93.9 154 93.5 153.3 C 93.1 152.6 92.5 151.6 91.9 150.4 C 91.3 149.2 90.5 147.7 89.8 146.1 C 89.1 144.5 88.3 142.8 87.6 141.1 C 86.9 139.4 86.3 137.6 85.8 136 C 85.5 135.2 85.3 134.4 85.1 133.6 C 84.9 132.8 84.7 132.1 84.5 131.4 C 84.1 130.1 83.9 128.9 83.8 128.1 C 83.6 127.3 83.6 126.8 83.6 126.8 C 83.6 126.8 83.7 127.2 83.9 128 C 84 128.4 84.1 128.9 84.3 129.4 C 84.5 129.9 84.6 130.5 84.9 131.2 C 85.3 132.5 85.8 134.1 86.4 135.7 C 87 137.3 87.6 139.1 88.3 140.8 C 89 142.5 89.7 144.2 90.4 145.8 C 91.1 147.4 91.7 148.9 92.3 150.1 C 93.4 152.7 94.2 154.4 94.2 154.4 Z " fill="#3B2B78" stroke-width="1"/>
          </g>
          <g id="Shape">
            <path d="M 88.1 97.3 C 87.1 93.2 81.3 76.5 76.1 87 C 71.2 97.1 83.1 131.6 88.2 127.3 C 93.2 123 90.4 106.5 88.1 97.3 Z " fill="#714FAB" stroke-width="1"/>
            <path d="M 86 91.1 C 86 91.1 86.6 92.3 87.2 94.3 C 87.5 95.3 87.9 96.4 88.2 97.6 C 88.5 98.8 88.9 100.1 89.2 101.4 C 89.5 102.7 89.8 104.1 90 105.3 C 90.2 106.5 90.4 107.7 90.5 108.7 C 90.6 109.7 90.7 110.6 90.7 111.1 C 90.7 111.7 90.7 112 90.7 112 C 90.7 112 90.6 111.7 90.5 111.1 C 90.4 110.5 90.3 109.7 90.1 108.7 C 89.9 107.7 89.7 106.5 89.5 105.3 C 89.3 104.1 89 102.7 88.7 101.4 C 88.4 100.1 88.1 98.8 87.8 97.6 C 87.5 96.4 87.2 95.2 86.9 94.3 C 86.3 92.4 86 91.1 86 91.1 Z " fill="#3B2B78" stroke-width="1"/>
            <path d="M 79.2 83.6 C 79.2 83.6 79.1 83.6 78.8 83.7 C 78.6 83.8 78.3 84 77.9 84.3 C 77.6 84.6 77.2 85 76.8 85.5 C 76.6 85.7 76.5 86.1 76.3 86.4 C 76.1 86.7 76 87.1 75.9 87.4 C 75.6 88.1 75.5 89 75.3 89.9 C 75.3 90.4 75.2 90.8 75.2 91.3 C 75.2 91.5 75.2 91.8 75.1 92 C 75.1 92.2 75.1 92.5 75.1 92.7 C 75.1 93.7 75.1 94.7 75.2 95.7 C 75.3 96.7 75.3 97.8 75.5 98.8 C 75.7 99.8 75.7 100.9 76 101.9 C 76.2 102.9 76.4 103.9 76.6 104.9 C 76.8 105.9 77.1 106.8 77.3 107.7 C 77.5 108.6 77.7 109.4 77.9 110.2 C 78.8 113.3 79.3 115.3 79.3 115.3 C 79.3 115.3 78.6 113.3 77.6 110.3 C 77.4 109.5 77.1 108.7 76.9 107.8 C 76.7 106.9 76.4 106 76.2 105 C 76 104 75.8 103 75.6 102 C 75.4 101 75.3 99.9 75.1 98.9 C 74.9 97.8 74.9 96.8 74.8 95.7 C 74.7 94.7 74.7 93.6 74.8 92.6 C 74.8 92.1 74.8 91.6 74.9 91.1 C 75 90.6 75 90.1 75.1 89.7 C 75.3 88.8 75.5 87.9 75.8 87.2 C 75.9 86.8 76.1 86.5 76.3 86.1 C 76.5 85.8 76.6 85.5 76.9 85.2 C 77.3 84.7 77.7 84.3 78.1 84 C 78.5 83.7 78.8 83.6 79.1 83.5 C 79.1 83.6 79.2 83.6 79.2 83.6 Z " fill="#3B2B78" stroke-width="1"/>
          </g>
        </g>
        <g id="Group">
          <g id="Shape">
            <g>
              <path d="M 57.3 207.6 L 52.8 258.4 C 52.8 258.4 49 260.9 46.1 257.6 C 46.1 257.6 40.1 212.2 45.5 202.7 C 49 196.7 57.6 198.1 57.3 207.6 Z " fill="#63B7CE" stroke-width="1"/>
              <g>
                <path d="M 55.2 232.1 L 55.1 233.8 C 53.8 234.1 52 234.5 50.1 234.5 C 48.2 234.5 46 234.2 44 233.4 C 44 232.8 43.9 232.2 43.9 231.6 C 47.9 233.6 52.6 232.8 55.2 232.1 Z " stroke-width="1" fill="#3B8293"/>
                <path d="M 55.7 226.5 L 55.5 228.2 C 54.1 228.6 52.1 229 49.9 229 C 47.9 229 45.7 228.7 43.5 227.7 C 43.5 227.1 43.5 226.5 43.4 225.9 C 48.1 228.3 53.2 227.3 55.7 226.5 Z " stroke-width="1" fill="#3B8293"/>
                <path d="M 53.1 200 C 51.8 200 50.4 199.9 48.9 199.6 C 50.7 198.8 52.7 198.9 54.3 200 C 53.9 200 53.5 200 53.1 200 Z " stroke-width="1" fill="#3B8293"/>
                <path d="M 44.2 238.3 C 44.2 237.7 44.1 237.1 44.1 236.5 C 48 238.3 52.2 237.7 54.8 237.1 L 54.7 238.8 C 53.4 239.1 51.8 239.3 50.1 239.3 C 48.2 239.3 46.2 239 44.2 238.3 Z " stroke-width="1" fill="#3B8293"/>
                <path d="M 44.7 243.9 C 44.6 243.3 44.6 242.7 44.5 242.2 C 48 243.6 51.7 243.3 54.2 242.7 L 54.1 244.4 C 52.9 244.6 51.5 244.8 50 244.8 C 48.3 244.7 46.5 244.5 44.7 243.9 Z " stroke-width="1" fill="#3B8293"/>
                <path d="M 43.4 222.5 C 43.4 221.9 43.4 221.4 43.4 220.8 C 48.3 222.9 53.6 221.8 56.2 221.1 L 56.1 222.8 C 54.6 223.2 52.4 223.6 50 223.6 C 47.9 223.6 45.6 223.3 43.4 222.5 Z " stroke-width="1" fill="#3B8293"/>
                <path d="M 43.4 216.6 C 43.5 214 43.6 211.6 43.9 209.4 C 49.2 211.2 54.8 210 57.2 209.3 L 57 211 C 55.4 211.4 52.9 211.9 50.1 211.9 C 48.1 211.9 45.9 211.7 43.7 211 C 43.6 212.2 43.5 213.5 43.5 214.9 C 48.5 216.8 54 215.8 56.7 215.1 L 56.6 216.8 C 55 217.2 52.8 217.6 50.2 217.6 C 48 217.7 45.7 217.4 43.4 216.6 Z " stroke-width="1" fill="#3B8293"/>
                <path d="M 44.9 204.4 C 45.1 203.9 45.3 203.4 45.5 202.9 C 49.6 204.2 54 203.8 56.8 203.2 C 57 203.7 57.1 204.2 57.2 204.7 C 55.7 205 53.7 205.3 51.5 205.3 C 49.4 205.4 47.1 205.2 44.9 204.4 Z " stroke-width="1" fill="#3B8293"/>
              </g>
              <path d="M 45.1 203.6 C 45.1 203.6 45 203.7 44.9 204 C 44.8 204.3 44.7 204.7 44.6 205.2 C 44.4 206.3 44.1 207.8 44 209.7 C 43.9 210.6 43.9 211.6 43.8 212.7 C 43.8 213.8 43.7 214.9 43.7 216.1 C 43.7 217.3 43.7 218.5 43.7 219.7 C 43.7 220.9 43.7 222.2 43.8 223.4 C 43.8 225.9 43.9 228.4 44 230.7 C 44.1 233 44.2 235.2 44.3 237.1 C 44.5 240.9 44.6 243.4 44.6 243.4 C 44.6 243.4 44.5 242.8 44.4 241.7 C 44.3 240.6 44.1 239.1 43.9 237.2 C 43.8 236.3 43.7 235.2 43.7 234.2 C 43.6 233.1 43.5 232 43.5 230.8 C 43.4 228.5 43.2 225.9 43.2 223.4 C 43.2 222.1 43.2 220.9 43.2 219.7 C 43.2 218.5 43.2 217.2 43.3 216.1 C 43.3 214.9 43.4 213.8 43.5 212.7 C 43.6 211.6 43.7 210.6 43.8 209.7 C 43.9 208.8 44 207.9 44.2 207.2 C 44.4 206.4 44.5 205.8 44.7 205.3 C 44.8 204.8 45 204.4 45.1 204.1 C 45 203.8 45.1 203.6 45.1 203.6 Z " fill="#466D8C" stroke-width="1"/>
              <path d="M 57 211.3 C 57 211.3 57 212 56.9 213.2 C 56.8 214.4 56.7 216.1 56.6 218.2 C 56.4 220.3 56.3 222.7 56.1 225.2 C 55.9 227.8 55.7 230.5 55.4 233.2 C 55.1 235.9 54.9 238.7 54.6 241.2 C 54.3 243.8 54.1 246.2 53.9 248.2 C 53.7 250.2 53.5 252 53.3 253.2 C 53.2 254.4 53.1 255.1 53.1 255.1 C 53.1 255.1 53.1 254.4 53.2 253.2 C 53.3 252 53.4 250.3 53.5 248.2 C 53.7 246.1 53.8 243.7 54 241.2 C 54.2 238.6 54.4 235.9 54.7 233.2 C 55 230.5 55.2 227.7 55.5 225.2 C 55.8 222.6 56 220.2 56.2 218.2 C 56.4 216.2 56.6 214.4 56.8 213.2 C 56.9 212 57 211.3 57 211.3 Z " fill="#466D8C" stroke-width="1"/>
            </g>
            <g>
              <path d="M 68 270.8 L 67.9 272.1 C 67.9 272.1 61.5 273.6 57.9 272.6 C 54.3 271.6 49.9 269.8 49 269.8 L 49 270.8 C 49 270.8 46.1 270.8 44.4 269.6 L 44.3 265.5 C 44.2 265.5 64.7 263.5 68 270.8 Z " fill="#17110B" stroke-width="1"/>
              <path d="M 54.4 245.5 C 54.4 245.5 51 249.2 44.3 245.4 C 44.3 245.4 44.6 259.3 44.6 261.9 C 44.6 264.4 42.6 267.7 47.5 268.5 C 52.4 269.3 54.9 271.5 60.1 271.7 C 65.3 271.9 68 270.8 68 270.8 C 68 270.8 68.2 267.8 66.1 266.4 C 63.9 265 57.2 263 55.4 260.2 C 53.6 257.4 54.4 245.5 54.4 245.5 Z " fill="#4F3B26" stroke-width="1"/>
              <path d="M 68 270.8 C 68 270.8 68 270.3 67.9 269.4 C 67.8 269 67.7 268.4 67.4 267.9 C 67.1 267.4 66.7 266.8 66 266.5 C 64.6 265.9 62.9 265.4 61.2 264.5 C 59.5 263.7 57.6 262.8 56.1 261.3 C 55.4 260.6 54.7 259.7 54.5 258.6 C 54.3 257.6 54.3 256.6 54.2 255.7 C 54.1 253.8 54.1 252 54.1 250.5 C 54.2 247.5 54.3 245.4 54.3 245.4 C 54.3 245.4 54.3 247.4 54.4 250.5 C 54.4 252 54.5 253.8 54.6 255.7 C 54.7 256.6 54.8 257.6 54.9 258.6 C 55.1 259.5 55.6 260.3 56.3 261 C 57.7 262.4 59.5 263.3 61.2 264.1 C 62.1 264.5 62.9 264.9 63.7 265.2 C 64.5 265.6 65.3 265.9 65.9 266.2 C 66.6 266.6 67.1 267.2 67.3 267.8 C 67.5 268.4 67.6 268.9 67.7 269.4 C 68.1 270.3 68 270.8 68 270.8 Z " fill="#241B10" stroke-width="1"/>
              <path d="M 53.6 246.1 C 53.6 246.1 53.2 246.5 52.4 246.9 C 52 247.1 51.5 247.2 51 247.3 C 50.5 247.4 49.9 247.4 49.3 247.4 C 49 247.4 48.7 247.4 48.4 247.3 C 48.1 247.2 47.8 247.2 47.6 247.1 C 47.1 247 46.6 246.8 46.2 246.6 C 45.8 246.5 45.5 246.2 45.3 246.1 C 45.1 246 45 245.9 45 245.9 C 45 245.9 45.1 245.9 45.4 246 C 45.6 246.1 46 246.2 46.4 246.3 C 46.6 246.4 46.8 246.4 47 246.5 C 47.2 246.5 47.5 246.6 47.7 246.6 C 47.9 246.7 48.2 246.7 48.5 246.7 C 48.8 246.8 49 246.7 49.3 246.8 C 50.4 246.9 51.5 246.8 52.2 246.6 C 52.6 246.5 52.9 246.4 53.1 246.3 C 53.5 246.2 53.6 246.1 53.6 246.1 Z " fill="#241B10" stroke-width="1"/>
              <path d="M 44.4 247.3 C 44.4 247.3 44.5 248.7 44.6 250.9 C 44.6 252 44.7 253.3 44.8 254.6 C 44.8 256 44.9 257.4 44.9 258.9 C 44.9 259.6 44.9 260.4 44.9 261.1 C 44.9 261.8 44.8 262.6 44.7 263.2 C 44.5 264.5 44.3 265.8 44.7 266.8 C 44.9 267.3 45.3 267.6 45.6 267.9 C 45.8 268 46 268.1 46.1 268.2 C 46.3 268.3 46.4 268.3 46.6 268.4 C 46.9 268.5 47.2 268.5 47.3 268.6 C 47.5 268.6 47.6 268.6 47.6 268.6 C 47.6 268.6 47.5 268.6 47.3 268.6 C 47.1 268.6 46.9 268.6 46.6 268.5 C 46.4 268.5 46.3 268.4 46.1 268.4 C 45.9 268.3 45.7 268.2 45.5 268.2 C 45.1 268 44.7 267.6 44.4 267.1 C 43.9 266 44 264.7 44.2 263.3 C 44.3 262.6 44.4 262 44.4 261.2 C 44.4 260.5 44.4 259.8 44.4 259 C 44.4 257.5 44.4 256.1 44.4 254.7 C 44.4 253.3 44.4 252.1 44.4 251 C 44.4 248.8 44.4 247.3 44.4 247.3 Z " fill="#241B10" stroke-width="1"/>
              <path d="M 63 265.2 C 63 265.2 62.8 265.3 62.6 265.5 C 62.4 265.7 62.1 266 61.8 266.2 C 61.5 266.5 61.2 266.7 61 266.9 C 60.8 267.1 60.6 267.2 60.6 267.2 C 60.6 267.2 60.7 267 60.8 266.7 C 60.9 266.4 61.2 266.1 61.5 265.8 C 61.8 265.5 62.2 265.3 62.5 265.2 C 62.8 265.1 63 265.2 63 265.2 Z " fill="#241B10" stroke-width="1"/>
              <path d="M 58.8 263.1 C 58.8 263.1 58.6 263.2 58.4 263.4 C 58.2 263.6 57.8 263.8 57.5 264.1 C 57.2 264.3 56.9 264.6 56.6 264.8 C 56.5 264.9 56.4 265 56.3 265 C 56.2 265.1 56.2 265.1 56.2 265.1 C 56.2 265.1 56.2 264.9 56.4 264.6 C 56.5 264.3 56.8 263.9 57.1 263.6 C 57.4 263.3 57.9 263.1 58.2 263.1 C 58.6 263.1 58.8 263.1 58.8 263.1 Z " fill="#241B10" stroke-width="1"/>
              <path d="M 55.4 260.2 C 55.4 260.2 55.2 260.3 55 260.4 C 54.9 260.4 54.7 260.5 54.6 260.6 C 54.4 260.7 54.3 260.7 54.1 260.8 C 53.8 260.9 53.4 261.1 53.2 261.2 C 53.1 261.3 53 261.3 52.9 261.3 C 52.8 261.3 52.8 261.3 52.8 261.3 C 52.8 261.3 52.9 261.1 53.1 260.9 C 53.2 260.8 53.3 260.7 53.5 260.5 C 53.7 260.4 53.8 260.3 54 260.2 C 54.4 260 54.8 260 55.1 260 C 55.2 260.1 55.4 260.2 55.4 260.2 Z " fill="#241B10" stroke-width="1"/>
              <path d="M 54.5 255.3 C 54.5 255.3 54.4 255.5 54.1 255.7 C 54 255.8 53.8 255.9 53.6 255.9 C 53.4 256 53.2 256 52.9 256 C 52.7 256 52.4 256 52.2 255.9 C 52 255.9 51.8 255.8 51.7 255.7 C 51.4 255.6 51.2 255.4 51.2 255.4 C 51.2 255.4 51.4 255.4 51.7 255.4 C 51.9 255.4 52 255.4 52.2 255.4 C 52.4 255.4 52.6 255.4 52.8 255.4 C 53.2 255.4 53.6 255.4 53.9 255.3 C 54.3 255.3 54.5 255.3 54.5 255.3 Z " fill="#241B10" stroke-width="1"/>
              <path d="M 54.4 249.5 C 54.4 249.5 54.3 249.7 54 249.9 C 53.7 250.1 53.3 250.3 52.9 250.4 C 52.7 250.4 52.4 250.5 52.2 250.4 C 52 250.4 51.8 250.3 51.6 250.3 C 51.4 250.2 51.3 250.1 51.2 250.1 C 51.1 250 51.1 250 51.1 250 C 51.1 250 51.3 250 51.6 250 C 51.9 250 52.3 249.9 52.7 249.9 C 52.9 249.9 53.1 249.8 53.3 249.8 C 53.5 249.8 53.7 249.7 53.8 249.7 C 54.2 249.5 54.4 249.5 54.4 249.5 Z " fill="#241B10" stroke-width="1"/>
              <path d="M 49 268.4 C 49 268.4 48.9 267.9 48.7 267.1 C 48.5 266.3 48.2 265.3 47.7 264.4 C 47.6 264.2 47.4 264 47.3 263.8 C 47.1 263.6 47 263.4 46.8 263.2 C 46.6 263 46.5 262.9 46.3 262.7 C 46.1 262.6 46 262.4 45.8 262.3 C 45.6 262.2 45.5 262.1 45.3 262 C 45.2 261.9 45 261.9 44.9 261.8 C 44.7 261.7 44.6 261.7 44.6 261.7 C 44.6 261.7 44.7 261.7 45 261.7 C 45.2 261.7 45.6 261.8 46 261.9 C 46.2 262 46.4 262.1 46.6 262.2 C 46.8 262.3 47 262.5 47.2 262.6 C 47.6 262.9 47.9 263.4 48.2 263.9 C 48.3 264.2 48.5 264.4 48.5 264.7 C 48.6 265 48.7 265.2 48.7 265.5 C 48.8 266 48.9 266.5 48.9 266.9 C 49.1 267.9 49 268.4 49 268.4 Z " fill="#241B10" stroke-width="1"/>
            </g>
          </g>
          <g id="Shape">
            <path d="M 52.9 209.7 C 61.1 210.9 63.8 170 60.9 158.8 C 58 147.7 45.3 146.5 43.8 164.3 C 42.3 182 42.1 208.1 52.9 209.7 Z " fill="#63B7CE" stroke-width="1"/>
            <g>
              <g>
                <path d="M 53.1 194.3 C 50.5 194.3 47.3 193.8 43.7 192.3 C 43.6 191.7 43.6 191.1 43.5 190.5 C 49.2 193.2 53.8 193 56.8 192.4 C 58.6 192 60 191.4 60.9 190.9 C 60.8 191.5 60.7 192.2 60.6 192.8 C 59.7 193.2 58.5 193.6 57.2 193.9 C 56 194.1 54.7 194.3 53.1 194.3 Z " stroke-width="1" fill="#3B8293"/>
                <path d="M 53.1 171.7 C 50.4 171.7 47.1 171.3 43.5 169.9 C 43.5 169.3 43.6 168.8 43.6 168.3 C 49.4 170.6 54.1 170.4 57.1 169.8 C 59.4 169.3 61 168.6 62 168.1 C 62 168.7 62 169.2 62.1 169.8 C 61 170.3 59.5 170.9 57.5 171.3 C 56.2 171.5 54.8 171.7 53.1 171.7 Z " stroke-width="1" fill="#3B8293"/>
                <path d="M 57.4 154.7 C 56.2 155 54.7 155.1 53 155.1 C 51.1 155.1 49 154.9 46.7 154.3 C 47 153.8 47.4 153.3 47.8 152.9 C 51.6 153.7 54.8 153.5 57 153.1 C 57.3 153 57.6 153 57.8 152.9 C 58.2 153.3 58.6 153.7 58.9 154.2 C 58.4 154.5 57.9 154.6 57.4 154.7 Z " stroke-width="1" fill="#3B8293"/>
                <path d="M 53 160.2 C 50.6 160.2 47.9 159.9 44.8 158.9 C 44.9 158.4 45.1 157.9 45.3 157.4 C 50.3 159 54.3 158.8 57 158.2 C 58.3 157.9 59.5 157.6 60.4 157.2 C 60.6 157.7 60.7 158.2 60.9 158.7 C 60 159.1 58.8 159.5 57.4 159.7 C 56.2 160 54.7 160.1 53 160.2 Z " stroke-width="1" fill="#3B8293"/>
                <path d="M 53 165.8 C 50.4 165.8 47.3 165.4 43.8 164.2 C 43.8 163.6 43.9 163.1 44 162.6 C 49.6 164.7 54.1 164.5 57 163.9 C 59 163.5 60.5 162.9 61.5 162.4 C 61.6 162.9 61.6 163.5 61.7 164.1 C 60.6 164.6 59.2 165.1 57.4 165.5 C 56.2 165.6 54.7 165.8 53 165.8 Z " stroke-width="1" fill="#3B8293"/>
                <path d="M 53.1 200 C 50.7 200 47.9 199.6 44.6 198.4 C 44.5 197.8 44.3 197.2 44.2 196.5 C 49.5 198.8 53.9 198.6 56.7 198 C 57.9 197.7 58.9 197.4 59.8 197 C 59.7 197.6 59.5 198.3 59.4 198.9 C 58.7 199.1 58 199.4 57.2 199.6 C 56.1 199.8 54.7 200 53.1 200 Z " stroke-width="1" fill="#3B8293"/>
                <path d="M 47 205 C 46.7 204.4 46.4 203.8 46.1 203.2 C 51 204.5 56 203.5 58.3 202.9 C 58.1 203.5 57.9 204.1 57.7 204.7 C 56.1 205.1 53.9 205.5 51.4 205.5 C 50 205.4 48.5 205.3 47 205 Z " stroke-width="1" fill="#3B8293"/>
                <path d="M 53.3 189.2 C 50.5 189.2 47.1 188.7 43.2 187 C 43.2 186.4 43.1 185.8 43.1 185.2 C 49.1 188 53.9 187.9 57 187.2 C 59 186.8 60.4 186.1 61.4 185.6 C 61.3 186.2 61.3 186.8 61.2 187.5 C 60.2 188 59 188.4 57.4 188.8 C 56.3 189 54.9 189.2 53.3 189.2 Z " stroke-width="1" fill="#3B8293"/>
                <path d="M 53.1 183.5 C 50.3 183.5 46.9 183 43.1 181.5 C 43.1 180.9 43.1 180.4 43.1 179.8 C 49.1 182.3 54 182.1 57.1 181.5 C 59.2 181.1 60.8 180.4 61.8 179.9 C 61.8 180.5 61.7 181.1 61.7 181.7 C 60.6 182.2 59.2 182.7 57.5 183.1 C 56.3 183.3 54.8 183.5 53.1 183.5 Z " stroke-width="1" fill="#3B8293"/>
                <path d="M 53.1 177.4 C 50.3 177.4 47 176.9 43.2 175.5 C 43.2 174.9 43.2 174.4 43.3 173.8 C 49.2 176.2 54 176 57.2 175.4 C 59.5 174.9 61.2 174.2 62.2 173.6 C 62.2 174.2 62.2 174.8 62.2 175.4 C 61.1 175.9 59.6 176.5 57.7 176.9 C 56.3 177.2 54.8 177.4 53.1 177.4 Z " stroke-width="1" fill="#3B8293"/>
              </g>
              <path d="M 46.2 203.4 C 46.2 203.4 45.9 202.8 45.5 201.7 C 45.3 201.2 45.1 200.5 44.9 199.7 C 44.7 198.9 44.4 198.1 44.3 197.1 C 44.1 196.1 43.9 195.1 43.7 194 C 43.6 192.9 43.3 191.7 43.2 190.5 C 43.1 189.3 43 188 42.9 186.7 C 42.8 185.4 42.8 184.1 42.7 182.8 C 42.7 181.5 42.7 180.2 42.7 178.9 C 42.7 177.6 42.7 176.3 42.8 175.1 C 42.9 173.9 42.9 172.7 43 171.6 C 43.1 170.5 43.2 169.4 43.3 168.4 C 43.5 166.4 43.7 164.8 43.8 163.7 C 43.9 162.6 44 161.9 44 161.9 C 44 161.9 44 162.6 43.9 163.7 C 43.8 164.8 43.7 166.5 43.6 168.4 C 43.5 169.4 43.5 170.4 43.4 171.6 C 43.3 172.7 43.3 173.9 43.3 175.1 C 43.2 176.3 43.2 177.6 43.2 178.9 C 43.2 180.2 43.2 181.5 43.2 182.8 C 43.2 184.1 43.2 185.4 43.3 186.7 C 43.4 188 43.5 189.2 43.6 190.5 C 43.7 191.7 43.9 192.9 44 194 C 44.2 195.1 44.3 196.2 44.5 197.1 C 44.8 199 45.2 200.6 45.6 201.7 C 46 202.8 46.2 203.4 46.2 203.4 Z " fill="#466D8C" stroke-width="1"/>
              <path d="M 60.7 157.7 C 60.7 157.7 60.8 157.8 60.9 158.2 C 61 158.5 61.1 159 61.2 159.5 C 61.4 160.6 61.7 162.3 61.9 164.3 C 62 165.3 62.1 166.4 62.2 167.5 C 62.3 168.6 62.4 169.9 62.4 171.1 C 62.4 172.4 62.4 173.7 62.4 175 C 62.4 176.3 62.3 177.7 62.3 179 C 62.2 180.3 62.1 181.7 62 183 C 61.9 184.3 61.7 185.6 61.6 186.8 C 61.5 188 61.3 189.2 61.1 190.4 C 60.9 191.5 60.7 192.6 60.5 193.6 C 60.3 194.6 60.2 195.5 60 196.3 C 59.8 197.1 59.7 197.8 59.5 198.4 C 59.2 199.5 59.1 200.2 59.1 200.2 C 59.1 200.2 59.2 199.5 59.4 198.4 C 59.5 197.8 59.6 197.1 59.8 196.3 C 60 195.5 60.1 194.6 60.2 193.6 C 60.3 192.6 60.5 191.5 60.7 190.4 C 60.8 189.3 61 188.1 61.1 186.8 C 61.2 185.6 61.3 184.3 61.5 183 C 61.6 181.7 61.7 180.4 61.7 179 C 61.7 177.7 61.8 176.3 61.8 175 C 61.8 173.7 61.8 172.4 61.8 171.1 C 61.8 168.6 61.7 166.3 61.5 164.3 C 61.3 162.3 61.2 160.6 61 159.5 C 60.9 158.9 60.8 158.5 60.8 158.2 C 60.8 157.8 60.7 157.7 60.7 157.7 Z " fill="#466D8C" stroke-width="1"/>
            </g>
          </g>
        </g>
        <g id="Group">
          <g id="Shape">
            <g>
              <path d="M 83 202.4 L 78.5 253.2 C 78.5 253.2 74.7 255.7 71.8 252.4 C 71.8 252.4 65.8 207 71.2 197.5 C 74.7 191.4 83.3 192.9 83 202.4 Z " fill="#63B7CE" stroke-width="1"/>
              <g>
                <path d="M 80.8 226.9 L 80.7 228.6 C 79.4 228.9 77.6 229.3 75.7 229.3 C 73.8 229.3 71.6 229 69.6 228.2 C 69.6 227.6 69.5 227 69.5 226.4 C 73.6 228.4 78.3 227.6 80.8 226.9 Z " stroke-width="1" fill="#3B8293"/>
                <path d="M 81.3 221.3 L 81.1 223 C 79.7 223.4 77.7 223.8 75.5 223.8 C 73.5 223.8 71.3 223.5 69.1 222.5 C 69.1 221.9 69.1 221.3 69 220.7 C 73.7 223.1 78.9 222 81.3 221.3 Z " stroke-width="1" fill="#3B8293"/>
                <path d="M 78.8 194.8 C 77.5 194.8 76.1 194.7 74.6 194.4 C 76.4 193.6 78.4 193.7 80 194.8 C 79.5 194.8 79.1 194.8 78.8 194.8 Z " stroke-width="1" fill="#3B8293"/>
                <path d="M 69.8 233.1 C 69.8 232.5 69.7 231.9 69.7 231.3 C 73.6 233.1 77.8 232.5 80.4 231.9 L 80.3 233.6 C 79 233.9 77.4 234.1 75.7 234.1 C 73.8 234.1 71.8 233.8 69.8 233.1 Z " stroke-width="1" fill="#3B8293"/>
                <path d="M 70.3 238.7 C 70.2 238.1 70.2 237.5 70.1 237 C 73.6 238.4 77.3 238.1 79.8 237.5 L 79.7 239.2 C 78.5 239.4 77.1 239.6 75.6 239.6 C 74 239.5 72.1 239.3 70.3 238.7 Z " stroke-width="1" fill="#3B8293"/>
                <path d="M 69 217.2 C 69 216.6 69 216.1 69 215.5 C 73.9 217.6 79.2 216.5 81.8 215.8 L 81.7 217.5 C 80.2 217.9 78 218.3 75.6 218.3 C 73.5 218.4 71.2 218.1 69 217.2 Z " stroke-width="1" fill="#3B8293"/>
                <path d="M 69 211.4 C 69.1 208.8 69.2 206.4 69.5 204.2 C 74.8 206 80.4 204.8 82.8 204.1 L 82.7 205.8 C 81.1 206.2 78.6 206.7 75.8 206.7 C 73.8 206.7 71.6 206.5 69.4 205.8 C 69.3 207 69.2 208.3 69.2 209.7 C 74.2 211.6 79.7 210.6 82.4 209.9 L 82.3 211.6 C 80.7 212 78.5 212.4 75.9 212.4 C 73.7 212.5 71.3 212.2 69 211.4 Z " stroke-width="1" fill="#3B8293"/>
                <path d="M 70.5 199.2 C 70.7 198.7 70.9 198.2 71.1 197.7 C 75.2 199 79.6 198.6 82.4 198 C 82.6 198.5 82.7 199 82.8 199.5 C 81.3 199.8 79.3 200.1 77.1 200.1 C 75 200.2 72.7 199.9 70.5 199.2 Z " stroke-width="1" fill="#3B8293"/>
              </g>
              <path d="M 70.7 198.4 C 70.7 198.4 70.6 198.5 70.5 198.8 C 70.4 199.1 70.3 199.5 70.2 200 C 70 201.1 69.7 202.6 69.6 204.5 C 69.5 205.4 69.5 206.4 69.4 207.5 C 69.4 208.6 69.3 209.7 69.3 210.9 C 69.3 212.1 69.3 213.3 69.3 214.5 C 69.3 215.7 69.3 217 69.4 218.2 C 69.4 220.7 69.5 223.2 69.6 225.5 C 69.7 227.8 69.8 230 69.9 231.9 C 70.1 235.7 70.2 238.2 70.2 238.2 C 70.2 238.2 70.1 237.6 70 236.5 C 69.9 235.4 69.7 233.9 69.5 232 C 69.4 231.1 69.3 230 69.3 229 C 69.2 227.9 69.1 226.8 69.1 225.6 C 69 223.3 68.8 220.7 68.8 218.2 C 68.8 216.9 68.8 215.7 68.8 214.5 C 68.8 213.3 68.8 212 68.9 210.9 C 68.9 209.7 69 208.6 69.1 207.5 C 69.2 206.4 69.3 205.4 69.4 204.5 C 69.5 203.6 69.6 202.7 69.8 202 C 70 201.2 70.1 200.6 70.3 200.1 C 70.4 199.6 70.6 199.2 70.7 198.9 C 70.6 198.6 70.7 198.4 70.7 198.4 Z " fill="#466D8C" stroke-width="1"/>
              <path d="M 82.7 206.1 C 82.7 206.1 82.7 206.8 82.6 208 C 82.5 209.2 82.4 210.9 82.3 213 C 82.1 215.1 82 217.5 81.8 220 C 81.6 222.6 81.4 225.3 81.1 228 C 80.8 230.7 80.6 233.5 80.3 236 C 80 238.6 79.8 241 79.6 243 C 79.4 245 79.2 246.8 79 248 C 78.9 249.2 78.8 249.9 78.8 249.9 C 78.8 249.9 78.8 249.2 78.9 248 C 79 246.8 79.1 245.1 79.2 243 C 79.4 240.9 79.5 238.5 79.7 236 C 79.9 233.4 80.1 230.7 80.4 228 C 80.7 225.3 80.9 222.5 81.2 220 C 81.5 217.4 81.7 215 81.9 213 C 82.1 211 82.3 209.2 82.5 208 C 82.6 206.8 82.7 206.1 82.7 206.1 Z " fill="#466D8C" stroke-width="1"/>
            </g>
            <g>
              <path d="M 93.6 265.6 L 93.5 266.9 C 93.5 266.9 87.1 268.4 83.5 267.4 C 79.9 266.4 75.5 264.6 74.6 264.6 L 74.6 265.6 C 74.6 265.6 71.7 265.6 70 264.4 L 69.9 260.3 C 69.9 260.2 90.3 258.2 93.6 265.6 Z " fill="#17110B" stroke-width="1"/>
              <path d="M 80.1 240.3 C 80.1 240.3 76.7 244 70 240.2 C 70 240.2 70.3 254.1 70.3 256.7 C 70.3 259.2 68.3 262.5 73.2 263.3 C 78.1 264 80.6 266.3 85.8 266.5 C 91 266.7 93.7 265.6 93.7 265.6 C 93.7 265.6 93.9 262.6 91.8 261.2 C 89.7 259.8 82.9 257.8 81.1 255 C 79.3 252.2 80.1 240.3 80.1 240.3 Z " fill="#4F3B26" stroke-width="1"/>
              <path d="M 93.6 265.6 C 93.6 265.6 93.6 265.1 93.5 264.2 C 93.4 263.8 93.3 263.2 93 262.7 C 92.7 262.2 92.3 261.6 91.6 261.3 C 90.2 260.7 88.5 260.2 86.8 259.3 C 85.1 258.5 83.2 257.6 81.7 256.1 C 81 255.4 80.3 254.5 80.1 253.4 C 79.9 252.4 79.9 251.4 79.8 250.5 C 79.7 248.6 79.7 246.8 79.7 245.3 C 79.8 242.3 79.9 240.2 79.9 240.2 C 79.9 240.2 79.9 242.2 80 245.3 C 80 246.8 80.1 248.6 80.2 250.5 C 80.3 251.4 80.4 252.4 80.5 253.4 C 80.7 254.3 81.2 255.1 81.9 255.8 C 83.3 257.2 85.1 258.1 86.8 258.9 C 87.7 259.3 88.5 259.7 89.3 260 C 90.1 260.4 90.9 260.7 91.5 261 C 92.2 261.4 92.7 262 92.9 262.6 C 93.1 263.2 93.2 263.7 93.3 264.2 C 93.7 265.1 93.6 265.6 93.6 265.6 Z " fill="#241B10" stroke-width="1"/>
              <path d="M 79.3 240.9 C 79.3 240.9 78.9 241.3 78.1 241.7 C 77.7 241.9 77.2 242 76.7 242.1 C 76.2 242.2 75.6 242.2 75 242.2 C 74.7 242.2 74.4 242.2 74.1 242.1 C 73.8 242 73.5 242 73.3 241.9 C 72.8 241.8 72.3 241.6 71.9 241.4 C 71.5 241.3 71.2 241 71 240.9 C 70.8 240.8 70.7 240.7 70.7 240.7 C 70.7 240.7 70.8 240.7 71.1 240.8 C 71.3 240.9 71.7 241 72.1 241.1 C 72.3 241.2 72.5 241.2 72.7 241.3 C 72.9 241.3 73.2 241.4 73.4 241.4 C 73.6 241.5 73.9 241.5 74.2 241.5 C 74.5 241.6 74.7 241.5 75 241.6 C 76.1 241.7 77.2 241.6 77.9 241.4 C 78.3 241.3 78.6 241.2 78.8 241.1 C 79.1 240.9 79.3 240.9 79.3 240.9 Z " fill="#241B10" stroke-width="1"/>
              <path d="M 70.1 242.1 C 70.1 242.1 70.2 243.5 70.3 245.7 C 70.3 246.8 70.4 248.1 70.5 249.4 C 70.5 250.8 70.6 252.2 70.6 253.7 C 70.6 254.4 70.6 255.2 70.6 255.9 C 70.6 256.6 70.5 257.4 70.4 258 C 70.2 259.3 70 260.6 70.4 261.6 C 70.6 262.1 71 262.4 71.3 262.7 C 71.5 262.8 71.7 262.9 71.8 263 C 72 263.1 72.1 263.1 72.3 263.2 C 72.6 263.3 72.9 263.3 73 263.4 C 73.2 263.4 73.3 263.4 73.3 263.4 C 73.3 263.4 73.2 263.4 73 263.4 C 72.8 263.4 72.6 263.4 72.3 263.3 C 72.1 263.3 72 263.2 71.8 263.2 C 71.6 263.1 71.4 263 71.2 263 C 70.8 262.8 70.4 262.4 70.1 261.9 C 69.6 260.8 69.7 259.5 69.9 258.1 C 70 257.4 70.1 256.8 70.1 256 C 70.1 255.3 70.1 254.6 70.1 253.8 C 70.1 252.3 70.1 250.9 70.1 249.5 C 70.1 248.1 70.1 246.9 70.1 245.8 C 70 243.6 70.1 242.1 70.1 242.1 Z " fill="#241B10" stroke-width="1"/>
              <path d="M 88.6 259.9 C 88.6 259.9 88.4 260 88.2 260.2 C 88 260.4 87.7 260.7 87.4 260.9 C 87.1 261.2 86.8 261.4 86.6 261.6 C 86.4 261.8 86.2 261.9 86.2 261.9 C 86.2 261.9 86.3 261.7 86.4 261.4 C 86.5 261.1 86.8 260.8 87.1 260.5 C 87.4 260.2 87.8 260 88.1 259.9 C 88.4 259.9 88.6 259.9 88.6 259.9 Z " fill="#241B10" stroke-width="1"/>
              <path d="M 84.5 257.9 C 84.5 257.9 84.3 258 84.1 258.2 C 83.9 258.4 83.5 258.6 83.2 258.9 C 82.9 259.1 82.6 259.4 82.3 259.6 C 82.2 259.7 82.1 259.8 82 259.8 C 81.9 259.9 81.9 259.9 81.9 259.9 C 81.9 259.9 81.9 259.7 82.1 259.4 C 82.2 259.1 82.5 258.7 82.8 258.4 C 83.1 258.1 83.6 257.9 83.9 257.9 C 84.3 257.9 84.5 257.9 84.5 257.9 Z " fill="#241B10" stroke-width="1"/>
              <path d="M 81 255 C 81 255 80.8 255.1 80.6 255.2 C 80.5 255.2 80.3 255.3 80.2 255.4 C 80 255.5 79.9 255.5 79.7 255.6 C 79.4 255.7 79 255.9 78.8 256 C 78.7 256.1 78.6 256.1 78.5 256.1 C 78.4 256.1 78.4 256.1 78.4 256.1 C 78.4 256.1 78.5 255.9 78.7 255.7 C 78.8 255.6 78.9 255.5 79.1 255.3 C 79.3 255.2 79.4 255.1 79.6 255 C 80 254.8 80.4 254.8 80.7 254.8 C 80.9 254.9 81 255 81 255 Z " fill="#241B10" stroke-width="1"/>
              <path d="M 80.1 250.1 C 80.1 250.1 80 250.3 79.7 250.5 C 79.6 250.6 79.4 250.7 79.2 250.7 C 79 250.8 78.8 250.8 78.5 250.8 C 78.3 250.8 78 250.8 77.8 250.7 C 77.6 250.7 77.4 250.6 77.3 250.5 C 77 250.4 76.8 250.2 76.8 250.2 C 76.8 250.2 77 250.2 77.3 250.2 C 77.5 250.2 77.6 250.2 77.8 250.2 C 78 250.2 78.2 250.2 78.4 250.2 C 78.8 250.2 79.2 250.2 79.5 250.1 C 79.9 250.1 80.1 250.1 80.1 250.1 Z " fill="#241B10" stroke-width="1"/>
              <path d="M 80 244.3 C 80 244.3 79.9 244.5 79.6 244.7 C 79.3 244.9 78.9 245.1 78.5 245.2 C 78.3 245.2 78 245.3 77.8 245.2 C 77.6 245.2 77.4 245.1 77.2 245.1 C 77 245 76.9 244.9 76.8 244.9 C 76.7 244.8 76.7 244.8 76.7 244.8 C 76.7 244.8 76.9 244.8 77.2 244.8 C 77.5 244.8 77.9 244.7 78.3 244.7 C 78.5 244.7 78.7 244.6 78.9 244.6 C 79.1 244.6 79.3 244.5 79.4 244.5 C 79.8 244.3 80 244.3 80 244.3 Z " fill="#241B10" stroke-width="1"/>
              <path d="M 74.6 263.2 C 74.6 263.2 74.5 262.7 74.3 261.9 C 74.1 261.1 73.8 260.1 73.3 259.2 C 73.2 259 73 258.8 72.9 258.6 C 72.7 258.4 72.6 258.2 72.4 258 C 72.2 257.8 72.1 257.7 71.9 257.5 C 71.7 257.4 71.6 257.2 71.4 257.1 C 71.2 257 71.1 256.9 70.9 256.8 C 70.8 256.7 70.6 256.7 70.5 256.6 C 70.3 256.5 70.2 256.5 70.2 256.5 C 70.2 256.5 70.3 256.5 70.6 256.5 C 70.8 256.5 71.2 256.6 71.6 256.7 C 71.8 256.8 72 256.9 72.2 257 C 72.4 257.1 72.6 257.3 72.8 257.4 C 73.2 257.7 73.5 258.2 73.8 258.7 C 73.9 259 74.1 259.2 74.1 259.5 C 74.2 259.8 74.3 260 74.3 260.3 C 74.4 260.8 74.5 261.3 74.5 261.7 C 74.7 262.7 74.6 263.2 74.6 263.2 Z " fill="#241B10" stroke-width="1"/>
            </g>
          </g>
          <g id="Shape">
            <path d="M 78.6 204.4 C 86.8 205.6 89.5 164.7 86.6 153.5 C 83.7 142.4 71 141.2 69.5 159 C 68 176.8 67.7 202.9 78.6 204.4 Z " fill="#63B7CE" stroke-width="1"/>
            <g>
              <g>
                <path d="M 78.7 189.1 C 76.1 189.1 72.9 188.6 69.3 187.1 C 69.2 186.5 69.2 185.9 69.1 185.3 C 74.8 188 79.4 187.8 82.4 187.2 C 84.2 186.8 85.6 186.2 86.5 185.7 C 86.4 186.3 86.3 187 86.2 187.6 C 85.3 188 84.1 188.4 82.8 188.7 C 81.7 188.9 80.3 189.1 78.7 189.1 Z " stroke-width="1" fill="#3B8293"/>
                <path d="M 78.7 166.5 C 76 166.5 72.7 166.1 69.1 164.7 C 69.1 164.1 69.2 163.6 69.2 163.1 C 75 165.4 79.7 165.2 82.7 164.6 C 85 164.1 86.6 163.4 87.6 162.9 C 87.6 163.5 87.6 164 87.7 164.6 C 86.6 165.1 85.1 165.7 83.1 166.1 C 81.9 166.3 80.4 166.5 78.7 166.5 Z " stroke-width="1" fill="#3B8293"/>
                <path d="M 83 149.5 C 81.8 149.8 80.3 149.9 78.6 149.9 C 76.7 149.9 74.6 149.7 72.3 149.1 C 72.6 148.6 73 148.1 73.4 147.7 C 77.2 148.5 80.4 148.3 82.6 147.9 C 82.9 147.8 83.2 147.8 83.4 147.7 C 83.8 148.1 84.2 148.5 84.5 149 C 84.1 149.3 83.6 149.4 83 149.5 Z " stroke-width="1" fill="#3B8293"/>
                <path d="M 78.6 154.9 C 76.2 154.9 73.5 154.6 70.4 153.6 C 70.5 153.1 70.7 152.6 70.9 152.1 C 75.9 153.7 79.9 153.5 82.6 152.9 C 83.9 152.6 85.1 152.3 86 151.9 C 86.2 152.4 86.3 152.9 86.5 153.4 C 85.6 153.8 84.4 154.2 83 154.4 C 81.8 154.7 80.3 154.9 78.6 154.9 Z " stroke-width="1" fill="#3B8293"/>
                <path d="M 78.7 160.6 C 76.1 160.6 73 160.2 69.5 159 C 69.5 158.4 69.6 157.9 69.7 157.4 C 75.3 159.5 79.8 159.3 82.7 158.7 C 84.7 158.3 86.2 157.7 87.2 157.2 C 87.3 157.7 87.3 158.3 87.4 158.9 C 86.3 159.4 84.9 159.9 83.1 160.3 C 81.8 160.4 80.4 160.6 78.7 160.6 Z " stroke-width="1" fill="#3B8293"/>
                <path d="M 78.8 194.8 C 76.4 194.8 73.6 194.4 70.3 193.2 C 70.2 192.6 70 192 69.9 191.3 C 75.2 193.6 79.6 193.4 82.4 192.8 C 83.6 192.5 84.6 192.2 85.5 191.8 C 85.4 192.4 85.2 193.1 85.1 193.7 C 84.4 193.9 83.7 194.2 82.9 194.4 C 81.7 194.6 80.3 194.8 78.8 194.8 Z " stroke-width="1" fill="#3B8293"/>
                <path d="M 72.7 199.8 C 72.4 199.2 72.1 198.6 71.8 198 C 76.7 199.3 81.7 198.3 84 197.7 C 83.8 198.3 83.6 198.9 83.4 199.5 C 81.8 199.9 79.6 200.3 77.1 200.3 C 75.7 200.2 74.2 200.1 72.7 199.8 Z " stroke-width="1" fill="#3B8293"/>
                <path d="M 79 184 C 76.2 184 72.8 183.5 68.9 181.8 C 68.9 181.2 68.8 180.6 68.8 180 C 74.8 182.8 79.6 182.7 82.7 182 C 84.7 181.6 86.1 180.9 87.1 180.4 C 87 181 87 181.6 86.9 182.3 C 85.9 182.8 84.7 183.2 83.1 183.6 C 81.9 183.8 80.6 184 79 184 Z " stroke-width="1" fill="#3B8293"/>
                <path d="M 78.8 178.3 C 76 178.3 72.6 177.8 68.8 176.3 C 68.8 175.7 68.8 175.2 68.8 174.6 C 74.8 177.1 79.7 176.9 82.8 176.3 C 84.9 175.9 86.5 175.2 87.5 174.7 C 87.5 175.3 87.4 175.9 87.4 176.5 C 86.3 177 84.9 177.5 83.2 177.9 C 81.9 178.1 80.5 178.3 78.8 178.3 Z " stroke-width="1" fill="#3B8293"/>
                <path d="M 78.7 172.2 C 75.9 172.2 72.6 171.7 68.8 170.3 C 68.8 169.7 68.8 169.2 68.9 168.6 C 74.8 171 79.6 170.8 82.8 170.2 C 85.1 169.7 86.8 169 87.8 168.4 C 87.8 169 87.8 169.6 87.8 170.2 C 86.7 170.7 85.2 171.3 83.3 171.7 C 81.9 172 80.4 172.2 78.7 172.2 Z " stroke-width="1" fill="#3B8293"/>
              </g>
              <path d="M 71.9 198.2 C 71.9 198.2 71.6 197.6 71.2 196.5 C 71 196 70.8 195.3 70.6 194.5 C 70.4 193.7 70.1 192.9 70 191.9 C 69.8 190.9 69.6 189.9 69.4 188.8 C 69.3 187.7 69 186.5 68.9 185.3 C 68.8 184.1 68.7 182.8 68.6 181.5 C 68.5 180.2 68.5 178.9 68.4 177.6 C 68.4 176.3 68.4 175 68.4 173.7 C 68.4 172.4 68.4 171.1 68.5 169.9 C 68.6 168.7 68.6 167.5 68.7 166.4 C 68.8 165.3 68.9 164.2 69 163.2 C 69.2 161.2 69.4 159.6 69.5 158.5 C 69.6 157.4 69.7 156.7 69.7 156.7 C 69.7 156.7 69.7 157.4 69.6 158.5 C 69.5 159.6 69.4 161.3 69.3 163.2 C 69.2 164.2 69.2 165.2 69.1 166.4 C 69 167.5 69 168.7 69 169.9 C 68.9 171.1 68.9 172.4 68.9 173.7 C 68.9 175 68.9 176.3 68.9 177.6 C 68.9 178.9 68.9 180.2 69 181.5 C 69.1 182.8 69.2 184 69.3 185.3 C 69.4 186.5 69.6 187.7 69.7 188.8 C 69.9 189.9 70 191 70.2 191.9 C 70.5 193.8 70.9 195.4 71.3 196.5 C 71.6 197.6 71.9 198.2 71.9 198.2 Z " fill="#466D8C" stroke-width="1"/>
              <path d="M 86.3 152.4 C 86.3 152.4 86.4 152.5 86.5 152.9 C 86.6 153.2 86.7 153.7 86.8 154.2 C 87 155.3 87.3 157 87.5 159 C 87.6 160 87.7 161.1 87.8 162.2 C 87.9 163.3 88 164.6 88 165.8 C 88 167.1 88 168.4 88 169.7 C 88 171 87.9 172.4 87.9 173.7 C 87.8 175 87.7 176.4 87.6 177.7 C 87.5 179 87.3 180.3 87.2 181.5 C 87.1 182.7 86.9 183.9 86.7 185.1 C 86.5 186.2 86.3 187.3 86.1 188.3 C 85.9 189.3 85.8 190.2 85.6 191 C 85.4 191.8 85.3 192.5 85.1 193.1 C 84.8 194.2 84.7 194.9 84.7 194.9 C 84.7 194.9 84.8 194.2 85 193.1 C 85.1 192.5 85.2 191.8 85.4 191 C 85.6 190.2 85.7 189.3 85.8 188.3 C 85.9 187.3 86.1 186.2 86.3 185.1 C 86.4 184 86.6 182.8 86.7 181.5 C 86.8 180.3 86.9 179 87.1 177.7 C 87.2 176.4 87.3 175.1 87.3 173.7 C 87.3 172.4 87.4 171 87.4 169.7 C 87.4 168.4 87.4 167.1 87.4 165.8 C 87.4 163.3 87.3 161 87.1 159 C 86.9 157 86.8 155.3 86.6 154.2 C 86.5 153.6 86.4 153.2 86.4 152.9 C 86.4 152.6 86.3 152.4 86.3 152.4 Z " fill="#466D8C" stroke-width="1"/>
            </g>
          </g>
        </g>
        <g id="Group">
          <g id="Shape">
            <path d="M 80.3 123.3 C 96.8 139.7 106.3 190.5 108.3 212.8 C 108.3 212.8 68.4 239.8 21.7 214.8 C 21.7 214.8 28.6 137.2 56.9 122.9 C 61.8 120.5 73.5 116.5 80.3 123.3 Z " fill="#714FAB" stroke-width="1"/>
            <path d="M 81.8 125 C 81.8 125 81.9 125.1 82.1 125.4 C 82.3 125.7 82.7 126.1 83.1 126.6 C 83.5 127.1 84 127.8 84.5 128.5 C 85 129.3 85.6 130.1 86.2 131.1 C 86.8 132.1 87.4 133.1 88.1 134.3 C 88.7 135.4 89.4 136.7 90 137.9 C 90.6 139.2 91.3 140.5 91.8 141.9 C 92.4 143.3 93 144.7 93.6 146.1 C 94.2 147.5 94.7 148.9 95.2 150.3 C 95.7 151.7 96.2 153.1 96.6 154.4 C 97.1 155.7 97.4 157.1 97.8 158.3 C 98.2 159.5 98.5 160.7 98.8 161.8 C 99.1 162.9 99.4 163.9 99.6 164.8 C 99.8 165.7 100 166.5 100.1 167.1 C 100.4 168.4 100.6 169.1 100.6 169.1 C 100.6 169.1 100.4 168.4 100 167.1 C 99.8 166.5 99.6 165.7 99.3 164.8 C 99.1 163.9 98.7 162.9 98.4 161.8 C 98.1 160.7 97.7 159.5 97.3 158.3 C 96.9 157.1 96.5 155.8 96 154.4 C 95.5 153.1 95.1 151.7 94.6 150.3 C 94.1 148.9 93.6 147.5 93 146.1 C 92.5 144.7 91.9 143.3 91.3 141.9 C 90.7 140.5 90.1 139.2 89.5 137.9 C 88.9 136.6 88.3 135.4 87.7 134.3 C 87.1 133.1 86.5 132.1 85.9 131.1 C 85.3 130.1 84.8 129.2 84.3 128.5 C 83.8 127.7 83.4 127.1 83 126.5 C 82.6 126 82.3 125.5 82.1 125.3 C 81.9 125.1 81.8 125 81.8 125 Z " fill="#3B2B78" stroke-width="1"/>
            <path d="M 54.5 124.3 C 54.5 124.3 54.3 124.4 53.9 124.7 C 53.5 125 53 125.4 52.4 125.9 C 52.1 126.2 51.8 126.5 51.4 126.8 C 51 127.1 50.6 127.5 50.2 128 C 49.4 128.8 48.5 129.8 47.6 130.9 C 47.2 131.5 46.7 132.1 46.2 132.7 C 45.7 133.3 45.3 134 44.8 134.7 C 44.3 135.4 43.9 136.1 43.4 136.8 C 43 137.5 42.5 138.3 42 139.1 C 41.6 139.9 41.1 140.7 40.7 141.5 C 40.3 142.3 39.9 143.2 39.4 144 C 38.5 145.7 37.8 147.4 37 149.2 C 36.2 151 35.5 152.7 34.8 154.5 C 34.2 156.3 33.5 158 32.9 159.7 C 32.3 161.4 31.8 163.1 31.3 164.6 C 30.8 166.2 30.4 167.7 30 169 C 29.6 170.4 29.2 171.6 28.9 172.8 C 28.6 173.9 28.3 174.9 28.1 175.7 C 27.7 177.3 27.4 178.3 27.4 178.3 C 27.4 178.3 27.6 177.4 28 175.7 C 28.2 174.9 28.4 173.9 28.7 172.7 C 28.9 171.6 29.3 170.3 29.6 168.9 C 30 167.5 30.3 166 30.8 164.4 C 31.3 162.8 31.8 161.2 32.3 159.4 C 32.9 157.7 33.5 155.9 34.1 154.2 C 34.8 152.4 35.5 150.6 36.2 148.9 C 37 147.2 37.7 145.4 38.6 143.7 C 39 142.9 39.4 142 39.9 141.2 C 40.4 140.4 40.8 139.6 41.3 138.8 C 41.7 138 42.2 137.3 42.7 136.5 C 43.2 135.8 43.6 135.1 44.1 134.4 C 44.6 133.7 45 133.1 45.5 132.5 C 46 131.9 46.5 131.3 46.9 130.7 C 47.8 129.6 48.7 128.6 49.6 127.8 C 50 127.4 50.4 127 50.8 126.7 C 51.2 126.4 51.5 126 51.9 125.8 C 52.6 125.3 53.1 124.9 53.5 124.6 C 54.3 124.5 54.5 124.3 54.5 124.3 Z " fill="#3B2B78" stroke-width="1"/>
            <path d="M 55.9 126 C 55.9 126 55.7 126.2 55.4 126.5 C 55.1 126.8 54.6 127.3 54.1 127.9 C 53.6 128.5 53 129.2 52.4 130 C 51.8 130.8 51.2 131.7 50.6 132.5 C 50 133.4 49.5 134.3 49 135.2 C 48.5 136.1 48.1 136.9 47.7 137.6 C 47.3 138.3 47.1 138.9 46.9 139.3 C 46.7 139.7 46.6 140 46.6 140 C 46.6 140 46.7 139.7 46.8 139.3 C 47 138.9 47.1 138.2 47.4 137.5 C 47.7 136.8 48.1 135.9 48.5 135 C 49 134.1 49.5 133.2 50 132.3 C 50.6 131.4 51.2 130.5 51.9 129.8 C 52.5 129 53.2 128.4 53.8 127.8 C 55 126.6 55.9 126 55.9 126 Z " fill="#3B2B78" stroke-width="1"/>
            <path d="M 73.4 128.4 C 73.4 128.4 74 130.4 74.8 133.4 C 75.2 134.9 75.6 136.7 76.1 138.6 C 76.5 140.5 76.9 142.5 77.3 144.6 C 77.7 146.6 78 148.7 78.3 150.6 C 78.4 151.6 78.6 152.5 78.6 153.4 C 78.7 154.3 78.8 155.1 78.8 155.9 C 78.9 157.5 79 158.7 79 159.7 C 79 160.6 79 161.1 79 161.1 C 79 161.1 78.9 160.6 78.8 159.7 C 78.7 158.8 78.5 157.5 78.4 156 C 78.3 155.2 78.2 154.4 78.1 153.5 C 78 152.6 77.8 151.7 77.7 150.7 C 77.4 148.8 77 146.7 76.7 144.7 C 76.3 142.7 75.9 140.6 75.6 138.7 C 75.2 136.8 74.8 135 74.5 133.5 C 73.8 130.4 73.4 128.4 73.4 128.4 Z " fill="#3B2B78" stroke-width="1"/>
            <path d="M 70.1 128 C 70.1 128 70.3 129.3 70.5 131.2 C 70.6 132.2 70.7 133.3 70.8 134.5 C 70.9 135.7 71 137 71.1 138.2 C 71.2 139.5 71.3 140.8 71.3 142 C 71.4 143.2 71.4 144.3 71.4 145.3 C 71.5 147.2 71.5 148.5 71.5 148.5 C 71.5 148.5 71.3 147.2 71.1 145.3 C 71 144.3 70.9 143.2 70.8 142 C 70.7 140.8 70.6 139.5 70.5 138.3 C 70.4 137 70.3 135.7 70.3 134.5 C 70.2 133.3 70.2 132.2 70.2 131.2 C 70.1 129.2 70.1 128 70.1 128 Z " fill="#3B2B78" stroke-width="1"/>
          </g>
          <path d="M 108.3 212.8 C 108.3 212.8 107.1 213.6 105 214.9 C 102.9 216.1 99.7 217.8 95.8 219.4 C 93.8 220.2 91.7 221 89.3 221.7 C 87 222.4 84.5 223.1 81.9 223.7 C 79.3 224.3 76.6 224.7 73.8 225.1 C 71 225.4 68.2 225.7 65.3 225.7 C 63.9 225.7 62.5 225.7 61 225.7 C 59.6 225.7 58.2 225.6 56.8 225.5 C 54 225.3 51.3 224.9 48.7 224.5 C 47.4 224.3 46.1 224 44.9 223.7 C 43.6 223.4 42.4 223.1 41.3 222.8 C 38.9 222.2 36.8 221.4 34.7 220.8 C 32.7 220 30.9 219.4 29.3 218.6 C 27.7 217.9 26.3 217.3 25.2 216.7 C 23 215.6 21.7 214.9 21.7 214.9 C 21.7 214.9 23 215.5 25.2 216.6 C 26.3 217.2 27.7 217.7 29.3 218.4 C 29.7 218.6 30.1 218.7 30.5 218.9 C 30.9 219.1 31.4 219.2 31.8 219.4 C 32.7 219.7 33.7 220.1 34.7 220.4 C 36.7 221 38.9 221.8 41.3 222.3 C 42.5 222.6 43.7 222.9 44.9 223.2 C 46.1 223.4 47.4 223.8 48.7 223.9 C 51.3 224.4 54 224.7 56.8 224.9 C 58.2 225 59.6 225.1 61 225.1 C 61.7 225.1 62.4 225.1 63.1 225.1 L 65.2 225.1 C 68 225.1 70.8 224.8 73.6 224.5 C 76.4 224.1 79.1 223.7 81.6 223.1 C 84.2 222.5 86.7 221.9 89 221.2 C 91.3 220.5 93.5 219.7 95.5 219 C 97.5 218.2 99.3 217.5 100.8 216.7 C 102.4 216 103.7 215.3 104.8 214.7 C 107.1 213.6 108.3 212.8 108.3 212.8 Z " id="Shape" fill="#3B2B78" stroke-width="1"/>
        </g>
        <g id="Group">
          <path d="M 61.4 69 C 61.4 69 63.4 77.7 61.5 79.9 C 59.5 82.1 51.7 85.8 51.7 85.8 C 51.7 85.8 61.8 101.1 72.3 94.1 C 82.8 87.1 77 83 77 83 C 77 83 70.9 82 71.8 74.8 C 71.7 74.8 66.9 65 61.4 69 Z " id="Shape" fill="#FFE9B8" stroke-width="1"/>
          <g>
            <path d="M 72.1 79.1 C 72.2 80.6 69 81.4 66.2 81.2 C 63.4 80.9 61.6 79.6 62.1 78.2 C 62.1 78.2 57.2 83.7 50.2 85.1 C 43.3 86.5 47.7 98.8 51 103.8 C 54.4 108.8 52 122 55.5 125.7 C 56.7 127 57.8 126.5 57.8 126.5 C 57.8 126.5 58.8 127.5 61.1 127.7 C 65.5 128.1 65.9 126.7 68.5 127.7 C 72.9 129.3 75.2 127.9 75.2 127.9 C 75.2 127.9 77.8 128.1 78.8 126.9 C 79.1 126.5 79.7 126.2 79.7 126.2 C 79.7 126.2 80.6 126.2 81.4 124.8 C 82.8 122.4 81.2 115.3 80.9 108.3 C 80.7 103.6 80.2 99.3 81 96.9 C 82.6 91.5 82.3 83.8 79.4 83.4 C 75.1 82.7 72.1 79.1 72.1 79.1 Z " id="Shape" fill="#714FAB" stroke-width="1"/>
            <path d="M 53.8 119 C 53.8 119 53.8 119.6 53.9 120.5 C 53.9 120.9 54 121.4 54.1 122 C 54.2 122.5 54.3 123.1 54.5 123.6 C 54.6 123.9 54.7 124.1 54.8 124.4 C 54.9 124.7 55.1 124.9 55.2 125.1 C 55.4 125.3 55.5 125.5 55.7 125.7 C 55.9 125.8 56.1 126 56.2 126.1 C 56.4 126.2 56.6 126.3 56.7 126.3 C 56.9 126.4 57 126.4 57.1 126.4 C 57.4 126.5 57.5 126.5 57.5 126.5 C 57.5 126.5 57.4 126.5 57.1 126.5 C 57 126.5 56.8 126.5 56.6 126.5 C 56.4 126.5 56.2 126.4 56 126.3 C 55.8 126.2 55.6 126.1 55.3 125.9 C 55.1 125.7 54.9 125.5 54.7 125.3 C 54.5 125.1 54.3 124.8 54.2 124.6 C 54.1 124.3 53.9 124 53.8 123.8 C 53.6 123.2 53.5 122.6 53.4 122.1 C 53.3 121.5 53.3 121 53.4 120.6 C 53.7 119.6 53.8 119 53.8 119 Z " id="Shape" fill="#3B2B78" stroke-width="1"/>
            <path d="M 79.6 126.1 C 79.6 126.1 79.7 126.1 79.9 126.1 C 80.1 126.1 80.4 126 80.8 125.8 C 81.1 125.6 81.5 125.2 81.7 124.7 C 81.9 124.2 82.1 123.6 82.1 122.9 C 82.3 121.6 82.1 120 81.9 118.3 C 81.8 117.5 81.7 116.6 81.6 115.7 C 81.5 114.8 81.4 113.9 81.3 113 C 81.2 111.2 81 109.4 80.9 107.6 C 80.8 105.9 80.8 104.3 80.7 102.9 C 80.7 101.5 80.7 100.4 80.7 99.6 C 80.7 98.8 80.8 98.3 80.8 98.3 C 80.8 98.3 80.8 98.8 80.8 99.6 C 80.8 100.4 80.9 101.5 81 102.9 C 81.1 104.3 81.2 105.9 81.4 107.6 C 81.5 109.3 81.7 111.1 81.9 112.9 C 82 113.8 82.1 114.7 82.2 115.6 C 82.3 116.5 82.4 117.4 82.5 118.2 C 82.7 119.9 82.7 121.5 82.5 122.9 C 82.4 123.6 82.2 124.2 81.9 124.7 C 81.6 125.2 81.3 125.6 80.9 125.8 C 80.5 126 80.2 126 80 126 C 79.7 126.1 79.6 126.1 79.6 126.1 Z " id="Shape" fill="#3B2B78" stroke-width="1"/>
            <path d="M 80.4 125 C 80.4 125 80.4 125.1 80.3 125.3 C 80.2 125.5 80.2 125.7 80 126 C 79.7 126.5 79.2 127.2 78.5 127.5 C 78.1 127.7 77.8 127.8 77.4 127.9 C 77 128 76.7 128 76.4 127.9 C 76.1 127.9 75.9 127.8 75.7 127.8 C 75.5 127.8 75.4 127.7 75.4 127.7 C 75.4 127.7 75.5 127.7 75.7 127.7 C 75.9 127.7 76.1 127.7 76.4 127.6 C 76.7 127.6 77 127.5 77.3 127.4 C 77.6 127.3 78 127.2 78.3 127 C 78.6 126.8 78.9 126.6 79.2 126.4 C 79.5 126.2 79.7 126 79.9 125.8 C 80.1 125.4 80.4 125 80.4 125 Z " id="Shape" fill="#3B2B78" stroke-width="1"/>
            <path d="M 78.3 124.2 C 78.3 124.2 78.2 124.6 77.9 125.2 C 77.6 125.8 77.1 126.6 76.2 127.4 C 75.3 128.2 74 128.7 72.5 128.7 C 71.8 128.7 71 128.6 70.3 128.3 C 69.6 128.1 68.9 127.8 68.2 127.7 C 67.5 127.6 66.8 127.6 66.1 127.7 C 65.8 127.8 65.4 127.9 65 127.9 C 64.6 128 64.2 128 63.9 128 C 62.5 128 61.1 128 60 127.6 C 59.4 127.4 58.9 127.2 58.6 126.9 C 58.2 126.6 58 126.2 57.9 125.9 C 57.7 125.3 57.8 124.9 57.8 124.9 C 57.8 124.9 57.8 125 57.8 125.2 C 57.8 125.4 57.9 125.6 58 125.9 C 58.1 126.2 58.4 126.5 58.8 126.7 C 59.2 126.9 59.6 127.1 60.2 127.3 C 61.3 127.5 62.6 127.5 64 127.5 C 64.4 127.5 64.7 127.5 65 127.4 C 65.3 127.3 65.7 127.2 66.1 127.1 C 66.9 126.9 67.7 127 68.5 127.1 C 69.3 127.2 70 127.5 70.7 127.7 C 71.4 127.9 72.1 128.1 72.8 128.1 C 74.2 128.2 75.4 127.7 76.3 127 C 77.2 126.3 77.8 125.6 78.1 125 C 78.1 124.5 78.3 124.2 78.3 124.2 Z " id="Shape" fill="#3B2B78" stroke-width="1"/>
            <path d="M 62.1 78.2 C 62.1 78.2 62.1 78.4 62.2 78.6 C 62.2 78.9 62.4 79.2 62.7 79.6 C 62.8 79.8 63 79.9 63.2 80.1 C 63.4 80.3 63.6 80.3 63.9 80.5 C 64.2 80.6 64.4 80.7 64.7 80.8 C 65 80.8 65.3 80.9 65.6 80.9 C 66.2 81 66.8 81 67.4 81 C 68 81 68.5 81 69 81 C 69.9 80.9 70.6 80.9 70.6 80.9 C 70.6 80.9 70 81.1 69.1 81.3 C 68.9 81.3 68.6 81.4 68.3 81.4 C 68 81.4 67.7 81.5 67.4 81.5 C 66.8 81.5 66.2 81.5 65.5 81.5 C 65.2 81.5 64.9 81.4 64.5 81.3 C 64.2 81.2 63.9 81.1 63.6 81 C 63.3 80.9 63.1 80.7 62.9 80.5 C 62.7 80.3 62.5 80.1 62.4 79.9 C 62.1 79.5 62.1 79 62.1 78.8 C 62 78.3 62.1 78.2 62.1 78.2 Z " id="Shape" fill="#3B2B78" stroke-width="1"/>
            <path d="M 68.5 80.9 C 68.5 80.9 68.7 81.8 69 83 C 69.3 84.3 69.6 86 69.8 87.8 C 70 89.5 70.2 91.3 70.3 92.6 C 70.3 93.3 70.3 93.8 70.3 94.2 C 70.3 94.6 70.3 94.8 70.3 94.8 C 70.3 94.8 70.3 94.6 70.2 94.2 C 70.1 93.8 70 93.3 69.9 92.6 C 69.7 91.3 69.4 89.6 69.2 87.8 C 69 86.1 68.8 84.3 68.7 83 C 68.6 81.8 68.5 80.9 68.5 80.9 Z " id="Shape" fill="#3B2B78" stroke-width="1"/>
            <path d="M 53.5 84.1 C 53.5 84.1 53.6 84 53.8 83.9 C 54 83.8 54.3 83.7 54.6 83.5 C 54.9 83.3 55.3 83.1 55.7 82.8 C 56.1 82.5 56.5 82.3 57 82 C 57.9 81.4 58.7 80.8 59.3 80.4 C 59.9 80 60.4 79.7 60.4 79.7 C 60.4 79.7 60.1 80.1 59.5 80.7 C 59.2 81 58.9 81.3 58.5 81.6 C 58.1 81.9 57.7 82.2 57.3 82.5 C 56.9 82.8 56.4 83.1 56 83.3 C 55.6 83.5 55.1 83.7 54.7 83.8 C 54 84.1 53.5 84.1 53.5 84.1 Z " id="Shape" fill="#3B2B78" stroke-width="1"/>
            <path d="M 72.1 79.1 C 72.1 79.1 72.4 79.3 72.9 79.6 C 73.4 79.9 74 80.4 74.6 80.8 C 74.9 81 75.2 81.2 75.5 81.4 C 75.8 81.6 76 81.8 76.3 81.9 C 76.5 82 76.7 82.2 76.9 82.3 C 77 82.4 77.1 82.4 77.1 82.4 C 77.1 82.4 76.7 82.4 76.1 82.2 C 75.8 82.1 75.5 82 75.2 81.8 C 74.9 81.6 74.6 81.4 74.2 81.2 C 73.9 81 73.6 80.7 73.3 80.5 C 73 80.3 72.8 80 72.6 79.8 C 72.3 79.5 72.1 79.1 72.1 79.1 Z " id="Shape" fill="#3B2B78" stroke-width="1"/>
            <circle id="Oval" fill="#9EA69A" transform="matrix(0.9999886682229701,-0.004760611898764118,0.004760611898764118,0.9999886682229701,45.974562679802176,78.11527064704433)" cx="24.2005541" cy="5.40089334" r="1" stroke-width="1"/>
            <circle id="Oval" fill="#9EA69A" transform="matrix(0.9999886682229701,-0.004760611898764118,0.004760611898764118,0.9999886682229701,45.953148011101874,78.11865417750155)" cx="24.9005771" cy="9.90086087" r="1" stroke-width="1"/>
            <circle id="Oval" fill="#9EA69A" transform="matrix(0.9999886682229701,-0.004760611898764118,0.004760611898764118,0.9999886682229701,45.935062780399676,78.12107750271795)" cx="25.4005676" cy="13.7009805" r="1" stroke-width="1"/>
          </g>
        </g>
        <g id="Group">
          <g id="Shape">
            <g>
              <path d="M 42.3 156.1 C 42.3 156.1 44.5 158 44.4 162.4 C 44.4 165.4 45.3 167.8 44.4 167.9 C 42.7 168.2 42.9 163.5 42.9 163.5 C 42.9 163.5 41.7 167.7 42.3 169.4 C 42.8 170.6 42.5 172.8 41.9 172.9 C 41.3 173.1 40.6 170.1 40.2 168.2 C 40.2 168.2 40.4 170.5 40.3 171.8 C 40.2 173.2 39.7 173.7 38.9 172.2 C 38.9 172.2 37.8 174.4 36.9 169.8 C 36.9 169.8 35.9 170.2 35.7 167.7 C 35.6 165.3 35.5 152.7 42.3 156.1 Z " fill="#FFE9B8" stroke-width="1"/>
              <path d="M 41.4 172.5 C 41.4 172.5 41.1 172.1 40.8 171.4 C 40.7 171 40.5 170.6 40.4 170.2 C 40.3 169.7 40.2 169.2 40.2 168.7 C 40.2 168.2 40.1 167.7 40.2 167.2 C 40.2 166.7 40.3 166.3 40.3 165.9 C 40.3 165.5 40.4 165.2 40.5 165 C 40.6 164.8 40.6 164.7 40.6 164.7 C 40.6 164.7 40.6 164.8 40.6 165 C 40.6 165.2 40.6 165.5 40.6 165.9 C 40.6 166.3 40.6 166.7 40.6 167.2 C 40.6 167.7 40.6 168.2 40.7 168.6 C 40.7 169.1 40.8 169.6 40.9 170 C 41 170.5 41 170.9 41.1 171.2 C 41.3 172 41.4 172.5 41.4 172.5 Z " fill="#BD875F" stroke-width="1"/>
              <path d="M 38.9 172.2 C 38.9 172.2 38.6 171.8 38.4 171.1 C 38.3 170.8 38.2 170.4 38.1 169.9 C 38 169.5 38 169 37.9 168.5 C 37.8 167.5 37.9 166.6 38.1 165.9 C 38.2 165.5 38.3 165.3 38.3 165.1 C 38.4 164.9 38.4 164.8 38.4 164.8 C 38.4 164.8 38.4 164.9 38.4 165.1 C 38.4 165.3 38.4 165.6 38.4 165.9 C 38.4 166.2 38.4 166.7 38.4 167.1 C 38.4 167.5 38.4 168 38.5 168.4 C 38.5 169.3 38.6 170.2 38.7 170.9 C 38.8 171.8 38.9 172.2 38.9 172.2 Z " fill="#BD875F" stroke-width="1"/>
              <path d="M 37 169.9 C 37 169.9 36.9 169.6 36.7 169 C 36.7 168.7 36.6 168.4 36.5 168.1 C 36.5 167.8 36.4 167.4 36.4 167.1 C 36.4 166.4 36.4 165.7 36.6 165.2 C 36.7 164.7 36.9 164.3 36.9 164.3 C 36.9 164.3 36.9 164.7 37 165.2 C 37 165.5 37 165.8 37.1 166.1 C 37.1 166.4 37.1 166.8 37.1 167.1 C 37.1 167.8 37.1 168.5 37.1 169 C 37 169.5 37 169.9 37 169.9 Z " fill="#BD875F" stroke-width="1"/>
            </g>
            <path d="M 42.9 157 C 42.9 157 43 157 43.1 157.1 C 43.2 157.2 43.4 157.4 43.6 157.6 C 43.9 158.1 44.2 158.8 44.3 159.5 C 44.4 159.9 44.4 160.2 44.5 160.6 C 44.5 160.9 44.5 161.3 44.5 161.5 C 44.5 162.1 44.4 162.4 44.4 162.4 C 44.4 162.4 44.3 162 44.2 161.5 C 44.1 161 43.9 160.3 43.8 159.6 C 43.7 159.2 43.7 158.9 43.6 158.6 C 43.5 158.3 43.5 158 43.4 157.7 C 43.3 157.5 43.2 157.2 43.1 157.1 C 43 157 42.9 157 42.9 157 Z " fill="#BD875F" stroke-width="1"/>
          </g>
          <g id="Shape">
            <g>
              <path d="M 47.1 122.9 C 48.4 127.4 46.5 137.5 45 144.4 C 44 148.8 42.9 156.9 42.9 156.9 C 41.4 158.3 39.7 157.6 38.1 156.7 C 38.1 156.7 37.9 153 37.5 145.8 C 37.1 138 38.4 124.6 40.4 122.5 C 42.8 120 46.4 120.7 47.1 122.9 Z " fill="#714FAB" stroke-width="1"/>
              <path d="M 47.5 125.9 C 47.5 125.9 47.6 127.3 47.5 129.3 C 47.4 130.3 47.4 131.5 47.3 132.8 C 47.2 134.1 47 135.5 46.8 136.8 C 46.6 138.2 46.3 139.5 46.1 140.8 C 46 141.4 45.8 142 45.7 142.6 C 45.6 143.2 45.4 143.7 45.3 144.2 C 45 145.2 44.8 146 44.6 146.6 C 44.4 147.2 44.3 147.5 44.3 147.5 C 44.3 147.5 44.6 146.2 45 144.1 C 45.2 143.1 45.4 141.9 45.6 140.6 C 45.8 139.3 46.1 138 46.2 136.6 C 46.4 135.2 46.6 133.9 46.8 132.6 C 47 131.3 47.1 130.1 47.2 129.1 C 47.4 127.2 47.5 125.9 47.5 125.9 Z " fill="#3B2B78" stroke-width="1"/>
            </g>
            <path d="M 38.2 156.3 C 38.2 156.3 38.1 155.8 38 155 C 37.9 154.2 37.7 153 37.6 151.7 C 37.5 150.3 37.3 148.7 37.3 147 C 37.2 145.3 37.2 143.4 37.2 141.5 C 37.2 139.6 37.3 137.8 37.5 136.1 C 37.6 135.2 37.6 134.4 37.7 133.6 C 37.8 132.8 37.9 132.1 38 131.4 C 38.2 130 38.4 128.9 38.6 128.1 C 38.8 127.3 38.9 126.9 38.9 126.9 C 38.9 126.9 38.8 127.4 38.8 128.2 C 38.7 128.6 38.7 129.1 38.6 129.6 C 38.5 130.2 38.5 130.8 38.4 131.5 C 38.3 132.9 38.1 134.5 38 136.2 C 37.9 137.9 37.8 139.8 37.8 141.6 C 37.7 143.4 37.8 145.3 37.8 147 C 37.8 148.7 37.9 150.4 38 151.7 C 38 154.5 38.2 156.3 38.2 156.3 Z " fill="#3B2B78" stroke-width="1"/>
          </g>
          <g id="Shape">
            <path d="M 54.3 101.2 C 54.9 97 55.9 79.4 47.2 87.1 C 38.8 94.5 36.6 131 42.9 129 C 49.2 126.9 52.9 110.6 54.3 101.2 Z " fill="#714FAB" stroke-width="1"/>
            <path d="M 54.7 94.6 C 54.7 94.6 54.7 96 54.6 98 C 54.5 99 54.5 100.2 54.3 101.5 C 54.1 102.8 54 104.1 53.8 105.4 C 53.6 106.7 53.3 108.1 53 109.3 C 52.7 110.5 52.4 111.7 52.1 112.7 C 51.8 113.7 51.5 114.5 51.3 115 C 51.1 115.6 51 115.9 51 115.9 C 51 115.9 51.1 115.6 51.2 115 C 51.3 114.4 51.5 113.6 51.7 112.6 C 51.9 111.6 52.1 110.5 52.4 109.2 C 52.7 108 52.9 106.6 53.1 105.3 C 53.3 104 53.5 102.6 53.7 101.4 C 53.9 100.1 54 99 54.2 98 C 54.6 96 54.7 94.6 54.7 94.6 Z " fill="#3B2B78" stroke-width="1"/>
            <path d="M 51.4 85.2 C 51.4 85.2 51.3 85.2 51 85.2 C 50.7 85.2 50.4 85.2 49.9 85.4 C 49.5 85.5 48.9 85.8 48.4 86.2 C 48.1 86.4 47.9 86.6 47.6 86.9 C 47.3 87.1 47.1 87.4 46.8 87.7 C 46.2 88.3 45.8 89.1 45.3 89.8 C 45.1 90.2 44.9 90.6 44.7 91.1 C 44.6 91.3 44.5 91.5 44.4 91.8 C 44.3 92 44.2 92.3 44.1 92.5 C 43.7 93.4 43.3 94.4 43 95.4 C 42.7 96.4 42.3 97.4 42.1 98.5 C 41.9 99.6 41.5 100.6 41.4 101.6 C 41.2 102.6 41 103.7 40.8 104.7 C 40.6 105.7 40.5 106.7 40.4 107.6 C 40.3 108.5 40.1 109.4 40 110.2 C 39.6 113.4 39.4 115.6 39.4 115.6 C 39.4 115.6 39.5 113.4 39.7 110.2 C 39.8 109.4 39.9 108.5 40 107.6 C 40.1 106.7 40.2 105.7 40.4 104.7 C 40.6 103.7 40.8 102.6 40.9 101.6 C 41.1 100.5 41.4 99.5 41.6 98.4 C 41.8 97.3 42.2 96.3 42.5 95.3 C 42.8 94.3 43.2 93.3 43.6 92.3 C 43.7 92.1 43.8 91.8 43.9 91.6 C 44 91.4 44.1 91.2 44.3 90.9 C 44.5 90.5 44.8 90 45 89.6 C 45.6 88.8 46 88.1 46.6 87.5 C 46.9 87.2 47.1 86.9 47.5 86.7 C 47.8 86.5 48.1 86.2 48.4 86.1 C 49 85.7 49.5 85.5 50 85.4 C 50.5 85.3 50.9 85.3 51.1 85.3 C 51.2 85.1 51.4 85.2 51.4 85.2 Z " fill="#3B2B78" stroke-width="1"/>
          </g>
        </g>
        <g id="Group">
          <g>
            <path d="M 56.9 75.5 C 56.9 75.5 60.6 75.9 67.1 79.5 L 70 88.9 C 70 88.9 66.6 114.4 66.1 134.9 C 66.1 134.9 34.4 137.8 31.1 127.6 C 31.1 127.6 29.3 86.1 57.1 82 L 56.9 75.5 Z " id="Shape" fill="#122F42" stroke-width="1"/>
            <path d="M 78.3 75.8 C 78.3 75.8 76.3 76 71.2 79.7 L 69.9 89.3 C 69.9 89.3 76.4 115.1 78.2 135.2 C 78.2 135.2 95 134.7 99.4 128 C 99.4 128 97.1 86.6 77.7 82.2 L 78.3 75.8 Z " id="Shape" fill="#122F42" stroke-width="1"/>
            <g>
              <path d="M 72.4 90.5 C 72.3 90.6 72.1 90.7 71.9 90.7 C 71.7 90.8 71.6 90.8 71.4 90.8 C 71.1 90.9 70.7 90.9 70.4 91 C 69.7 91.1 69 91.1 68.3 91 C 68 90.9 67.6 90.8 67.3 90.6 C 67.1 90.5 67 90.4 66.9 90.2 C 66.8 90.1 66.7 89.9 66.6 89.7 C 66.6 89.5 66.6 89.2 66.7 89 C 66.8 88.8 67 88.7 67.1 88.6 C 67.4 88.4 67.8 88.3 68.1 88.2 L 68.4 88.2 L 68.4 88.3 L 68.5 88.4 L 68.6 88.5 C 68.7 88.6 68.8 88.6 68.9 88.7 C 69.1 88.8 69.4 88.8 69.7 88.8 C 70 88.8 70.2 88.7 70.5 88.6 C 70.7 88.5 71 88.4 71.2 88.2 L 71.3 88.1 L 71.5 88.2 C 71.8 88.5 72.1 88.8 72.4 89.1 C 72.5 89.3 72.6 89.5 72.7 89.7 C 72.8 90 72.6 90.4 72.4 90.5 Z M 72.1 90.2 C 72.2 90.1 72.2 90 72.2 89.9 C 72.2 89.8 72.1 89.6 72 89.5 C 71.8 89.2 71.5 89 71.2 88.7 L 71.5 88.7 C 70.9 88.9 70.4 89.1 69.8 89.1 C 69.5 89.1 69.2 89.1 68.9 89.1 C 68.7 89.1 68.6 89 68.4 89 C 68.3 89 68.3 88.9 68.2 88.9 C 68.1 88.9 68.1 88.8 68 88.7 L 68.3 88.8 C 68 88.9 67.7 88.9 67.4 89.1 C 67.1 89.2 67 89.4 67 89.7 C 67 89.8 67.1 89.9 67.2 90.1 C 67.3 90.2 67.4 90.3 67.5 90.4 C 67.8 90.6 68.1 90.7 68.4 90.8 C 69 90.9 69.7 90.9 70.4 90.9 C 70.7 90.9 71.1 90.8 71.4 90.7 C 71.6 90.7 71.7 90.6 71.9 90.5 C 71.9 90.3 72 90.2 72.1 90.2 Z " id="Shape" fill="#141B30" stroke-width="1"/>
              <g>
                <circle id="Oval" fill="#B5AEC4" transform="matrix(0.9999886682229701,-0.004760611898764118,0.004760611898764118,0.9999886682229701,69.99382743870923,88.0085868989674)" cx="1.80064198" cy="1.30087628" r="1.2000136" stroke-width="1"/>
                <path d="M 72.5 89.8 C 72.5 89.8 72.5 89.7 72.5 89.4 C 72.5 89.2 72.5 88.9 72.3 88.7 C 72.2 88.6 72.1 88.5 72 88.5 C 71.9 88.5 71.8 88.4 71.7 88.4 C 71.5 88.4 71.3 88.4 71.3 88.4 C 71.3 88.4 71.4 88.4 71.7 88.3 C 71.9 88.3 72.3 88.3 72.5 88.6 C 72.7 88.9 72.7 89.2 72.6 89.4 C 72.6 89.7 72.5 89.8 72.5 89.8 Z " id="Shape" fill="#FFFFFF" stroke-width="1"/>
                <path d="M 71 88.8 C 71 88.8 71 88.9 71 89.2 C 71 89.4 71 89.7 71.2 89.9 C 71.3 90 71.4 90.1 71.5 90.1 C 71.6 90.1 71.7 90.2 71.8 90.2 C 72 90.2 72.2 90.2 72.2 90.2 C 72.2 90.2 72.1 90.2 71.8 90.3 C 71.6 90.3 71.2 90.3 71 90 C 70.8 89.7 70.8 89.4 70.9 89.2 C 70.9 88.9 71 88.8 71 88.8 Z " id="Shape" fill="#FFFFFF" stroke-width="1"/>
              </g>
              <g>
                <circle id="Oval" fill="#B5AEC4" transform="matrix(0.9999886682229701,-0.004760611898764118,0.004760611898764118,0.9999886682229701,65.99382370003951,88.00715824014112)" cx="1.50054198" cy="1.30094713" r="1.2000136" stroke-width="1"/>
                <path d="M 68.2 89.8 C 68.2 89.8 68.2 89.7 68.2 89.4 C 68.2 89.2 68.2 88.9 68 88.7 C 67.9 88.6 67.8 88.5 67.7 88.5 C 67.6 88.5 67.5 88.4 67.4 88.4 C 67.2 88.4 67 88.4 67 88.4 C 67 88.4 67.1 88.4 67.4 88.3 C 67.6 88.3 68 88.3 68.2 88.6 C 68.4 88.9 68.4 89.2 68.3 89.4 C 68.3 89.7 68.2 89.8 68.2 89.8 Z " id="Shape" fill="#FFFFFF" stroke-width="1"/>
                <path d="M 66.7 88.8 C 66.7 88.8 66.7 88.9 66.7 89.2 C 66.7 89.4 66.7 89.7 66.9 89.9 C 67 90 67.1 90.1 67.2 90.1 C 67.3 90.1 67.4 90.2 67.5 90.2 C 67.7 90.2 67.9 90.2 67.9 90.2 C 67.9 90.2 67.8 90.2 67.5 90.3 C 67.3 90.3 66.9 90.3 66.7 90 C 66.5 89.7 66.5 89.4 66.6 89.2 C 66.6 88.9 66.7 88.8 66.7 88.8 Z " id="Shape" fill="#FFFFFF" stroke-width="1"/>
              </g>
            </g>
          </g>
          <path d="M 56.8 82.1 C 56.8 82.1 55.9 82.2 54.4 82.6 C 52.9 83 50.8 83.8 48.5 85.1 C 47.4 85.8 46.2 86.6 45 87.6 C 43.8 88.6 42.7 89.7 41.6 91 C 40.6 92.3 39.5 93.6 38.6 95.2 C 37.7 96.7 36.9 98.3 36.2 99.9 C 35.9 100.7 35.5 101.5 35.2 102.4 C 34.9 103.2 34.6 104.1 34.3 104.9 C 34.1 105.7 33.8 106.6 33.6 107.4 C 33.4 108.2 33.2 109.1 33 109.9 C 32.7 111.5 32.3 113.1 32.1 114.6 C 31.9 116.1 31.7 117.5 31.6 118.9 C 31.4 120.2 31.4 121.5 31.3 122.5 C 31.2 123.6 31.2 124.5 31.2 125.3 C 31.1 126.9 31.1 127.8 31.1 127.8 C 31.1 127.8 31.1 126.9 31.1 125.3 C 31.1 124.5 31.1 123.6 31.1 122.5 C 31.1 121.4 31.1 120.2 31.3 118.8 C 31.4 117.5 31.5 116 31.7 114.5 C 31.9 113 32.2 111.4 32.5 109.7 C 32.7 108.9 32.9 108 33.1 107.2 C 33.3 106.4 33.6 105.5 33.8 104.7 C 34.1 103.9 34.4 103 34.6 102.2 C 34.9 101.4 35.3 100.5 35.6 99.7 C 36.4 98.1 37.2 96.5 38.1 95 C 39 93.5 40.1 92.1 41.2 90.8 C 42.3 89.5 43.5 88.4 44.7 87.4 C 45.9 86.4 47.1 85.6 48.3 85 C 50.7 83.7 52.8 83 54.3 82.7 C 55.9 82.1 56.8 82.1 56.8 82.1 Z " id="Shape" fill="#141B30" stroke-width="1"/>
          <path d="M 69.8 91.7 C 69.8 91.7 68.8 102.5 67.8 113.3 C 67.5 116 67.3 118.7 67.1 121.2 C 66.9 123.7 66.7 126.1 66.6 128.1 C 66.5 130.1 66.3 131.8 66.3 133 C 66.3 134.2 66.2 134.9 66.2 134.9 C 66.2 134.9 66.2 134.2 66.2 133 C 66.2 131.8 66.2 130.1 66.3 128.1 C 66.4 126.1 66.5 123.7 66.7 121.2 C 66.9 118.7 67.1 116 67.3 113.3 C 67.6 110.6 67.9 107.9 68.1 105.4 C 68.4 102.9 68.7 100.5 68.9 98.5 C 69.2 96.5 69.4 94.8 69.6 93.6 C 69.7 92.4 69.8 91.7 69.8 91.7 Z " id="Shape" fill="#141B30" stroke-width="1"/>
          <path d="M 78.1 135.2 C 78.1 135.2 78 134.5 77.9 133.4 C 77.7 132.2 77.5 130.6 77.2 128.6 C 76.9 126.6 76.5 124.3 76.1 121.8 C 75.7 119.3 75.3 116.7 74.8 114.1 C 74.4 111.5 73.9 108.8 73.4 106.4 C 72.9 103.9 72.5 101.6 72.1 99.7 C 71.7 97.7 71.4 96.1 71.1 95 C 70.8 93.9 70.7 93.2 70.7 93.2 C 70.7 93.2 70.9 93.8 71.2 95 C 71.5 96.1 72 97.7 72.4 99.7 C 72.9 101.7 73.4 103.9 73.9 106.4 C 74.4 108.9 74.9 111.5 75.3 114.1 C 75.7 116.7 76.2 119.4 76.5 121.9 C 76.9 124.4 77.2 126.7 77.4 128.7 C 77.6 130.7 77.8 132.4 77.9 133.5 C 78.1 134.5 78.1 135.2 78.1 135.2 Z " id="Shape" fill="#141B30" stroke-width="1"/>
          <path d="M 99.3 128.1 C 99.3 128.1 99.2 127.3 99.1 125.8 C 99 124.3 98.7 122.3 98.3 119.8 C 97.9 117.3 97.4 114.5 96.7 111.4 C 96.3 109.9 96 108.3 95.5 106.7 C 95.1 105.1 94.5 103.5 94 102 C 93.4 100.4 92.8 98.9 92.2 97.4 C 91.5 95.9 90.8 94.5 90 93.2 C 89.6 92.5 89.2 91.9 88.8 91.3 C 88.4 90.7 88 90.1 87.5 89.5 C 86.6 88.4 85.7 87.4 84.8 86.5 C 84.4 86.1 83.9 85.7 83.4 85.3 C 83.2 85.1 83 84.9 82.8 84.8 C 82.6 84.7 82.4 84.5 82.2 84.4 C 81.4 83.8 80.6 83.4 79.9 83.1 C 79.3 82.8 78.7 82.6 78.3 82.4 C 77.9 82.3 77.7 82.2 77.7 82.2 C 77.7 82.2 77.9 82.3 78.3 82.4 C 78.7 82.5 79.2 82.7 79.9 83 C 80.6 83.3 81.4 83.7 82.2 84.2 C 82.4 84.3 82.6 84.5 82.9 84.6 C 83.1 84.8 83.3 84.9 83.6 85.1 C 84.1 85.4 84.6 85.8 85 86.2 C 85.9 87 86.9 88 87.8 89.1 C 88.3 89.7 88.7 90.2 89.1 90.9 C 89.6 91.5 90 92.2 90.4 92.8 C 91.2 94.1 92 95.6 92.7 97.1 C 93.4 98.6 94 100.2 94.6 101.7 C 95.2 103.3 95.7 104.9 96.1 106.5 C 96.5 108.1 96.9 109.7 97.3 111.2 C 98 114.3 98.4 117.2 98.7 119.6 C 99 122.1 99.2 124.2 99.3 125.6 C 99.3 127.2 99.3 128.1 99.3 128.1 Z " id="Shape" fill="#141B30" stroke-width="1"/>
          <path d="M 77.5 83.1 C 77.5 83.1 77.3 83.5 77 84.1 C 76.6 84.7 76.1 85.4 75.4 86 C 75.1 86.3 74.7 86.6 74.4 86.8 C 74 87 73.7 87.2 73.4 87.3 C 73.1 87.4 72.8 87.4 72.6 87.5 C 72.4 87.5 72.3 87.5 72.3 87.5 C 72.3 87.5 72.4 87.5 72.6 87.4 C 72.8 87.3 73 87.2 73.3 87.1 C 73.6 86.9 73.9 86.7 74.2 86.5 C 74.5 86.3 74.8 86 75.1 85.7 C 75.7 85.1 76.3 84.5 76.8 84.1 C 77.2 83.4 77.5 83.1 77.5 83.1 Z " id="Shape" fill="#141B30" stroke-width="1"/>
          <path d="M 57.4 83.1 C 57.4 83.1 57.7 83.4 58.2 83.9 C 58.7 84.4 59.3 84.9 59.9 85.5 C 60.2 85.8 60.5 86 60.9 86.3 C 61.2 86.5 61.5 86.8 61.8 86.9 C 62.1 87 62.3 87.2 62.5 87.2 C 62.7 87.3 62.8 87.3 62.8 87.3 C 62.8 87.3 62.7 87.3 62.5 87.3 C 62.3 87.3 62 87.3 61.7 87.2 C 61.4 87.1 61 86.9 60.7 86.7 C 60.3 86.5 60 86.2 59.6 85.9 C 58.9 85.3 58.4 84.6 58 84.1 C 57.6 83.5 57.4 83.1 57.4 83.1 Z " id="Shape" fill="#141B30" stroke-width="1"/>
        </g>
        <g id="Group">
          <path d="M 100.7 48.9 C 102.3 51.4 77.3 56.7 71.3 56.7 C 65.3 56.7 36 59.6 34.9 56.7 C 34.3 55.4 53.3 44 69.1 42.8 C 84.8 41.6 98.5 45.5 100.7 48.9 Z " id="Shape" fill="#0C252B" stroke-width="1"/>
          <g>
            <g id="Shape">
              <path d="M 82.6 49.4 C 82.4 55 81.7 61.8 84.6 65.9 C 87.5 70 87.6 78.2 83.6 78.9 C 83.6 78.9 87.6 75.5 84.5 70.1 C 84.5 70.1 86.6 80.9 80.4 81.6 C 80.4 81.6 84 79.6 81.9 74.3 C 75.9 58.2 82.6 49.4 82.6 49.4 Z " fill="#382A1B" stroke-width="1"/>
              <path d="M 80.5 81.5 C 80.5 81.5 80.8 81.5 81.2 81.3 C 81.7 81.2 82.3 80.8 82.8 80.2 C 83.3 79.6 83.7 78.7 84 77.8 C 84.1 77.3 84.2 76.8 84.3 76.2 C 84.4 75.7 84.4 75.1 84.4 74.6 C 84.5 73.5 84.4 72.4 84.3 71.4 C 84.2 70.4 84 69.4 83.8 68.6 C 83.7 68.2 83.6 67.8 83.5 67.5 C 83.4 67.2 83.3 66.9 83.2 66.7 C 83.1 66.3 83 66 83 66 C 83 66 83 66.1 83.1 66.2 C 83.2 66.3 83.3 66.5 83.4 66.7 C 83.6 67.1 84 67.8 84.2 68.6 C 84.5 69.4 84.7 70.4 84.9 71.4 C 85 72.5 85.1 73.6 85.1 74.7 C 85.1 75.3 85 75.8 84.9 76.4 C 84.8 77 84.7 77.5 84.6 78 C 84.3 79 83.8 79.9 83.1 80.6 C 82.5 81.2 81.7 81.5 81.3 81.5 C 80.8 81.6 80.5 81.5 80.5 81.5 Z " fill="#241B10" stroke-width="1"/>
              <path d="M 84.2 78.6 C 84.2 78.6 84.5 78.5 85 78.1 C 85.5 77.7 86 77 86.3 76 C 86.5 75.5 86.6 75 86.6 74.4 C 86.6 73.8 86.6 73.2 86.5 72.6 C 86.4 71.3 86.2 69.9 85.7 68.7 C 85.3 67.4 84.4 66.3 83.9 65.1 C 83.3 63.9 83.1 62.7 82.8 61.6 C 82.6 60.6 82.5 59.7 82.5 59.1 C 82.5 58.5 82.5 58.1 82.5 58.1 C 82.5 58.1 82.5 58.5 82.6 59.1 C 82.7 59.7 82.9 60.6 83.1 61.6 C 83.4 62.6 83.8 63.7 84.3 64.9 C 84.8 66.1 85.7 67.2 86.2 68.5 C 86.7 69.9 86.9 71.3 86.9 72.6 C 86.9 73.2 86.9 73.9 86.9 74.5 C 86.8 75.1 86.7 75.7 86.5 76.2 C 86.1 77.2 85.5 77.9 85 78.3 C 84.5 78.6 84.2 78.6 84.2 78.6 Z " fill="#241B10" stroke-width="1"/>
            </g>
            <g>
              <path d="M 80.7 45.5 C 83.8 50.2 81.3 59.5 81.3 59.5 C 81.3 59.5 85.4 68.7 73.2 78.2 C 73.2 78.2 65.9 77 61 72.1 C 58.1 69.2 57 66.1 55.2 60.3 C 49.7 41.8 71.2 31 80.7 45.5 Z " id="Shape" fill="#FFE9B8" stroke-width="1"/>
              <g id="Shape">
                <path d="M 75.1 67.8 C 75.1 67.8 75.3 67.3 75.4 66.5 C 75.4 66.1 75.4 65.7 75.4 65.2 C 75.3 64.7 75.2 64.2 75 63.7 C 74.5 61.6 73.9 59.5 73.9 59.5 C 73.9 59.5 74.6 61.5 75.4 63.6 C 75.5 63.9 75.6 64.1 75.7 64.4 C 75.8 64.6 75.9 64.9 75.9 65.2 C 76 65.7 76 66.3 75.9 66.7 C 75.8 67.1 75.6 67.4 75.4 67.6 C 75.2 67.7 75.1 67.8 75.1 67.8 Z " stroke-width="1" fill="#A16A51"/>
                <path d="M 73.6 67 C 73.6 67 73.6 67.1 73.5 67.2 C 73.4 67.3 73.4 67.4 73.3 67.5 C 73.2 67.6 73.1 67.6 73 67.7 C 72.9 67.7 72.8 67.8 72.8 67.8 C 72.8 67.8 72.7 67.7 72.7 67.5 C 72.7 67.3 72.8 67.1 72.9 67 C 73 67 73.2 67 73.3 67 C 73.4 67 73.6 67 73.6 67 Z " stroke-width="1" fill="#A16A51"/>
              </g>
              <path d="M 76.1 72.1 C 76.1 72.1 75.6 71.9 75 71.8 C 74.3 71.7 73.4 71.6 72.5 71.7 C 72 71.7 71.6 71.8 71.1 71.8 C 70.7 71.9 70.3 71.9 69.9 72 C 69.5 72.1 69.3 72.1 69 72.2 C 68.8 72.2 68.7 72.3 68.7 72.3 C 68.7 72.3 68.8 72.2 69 72.1 C 69.2 72 69.4 71.8 69.8 71.7 C 70.5 71.4 71.4 71.2 72.4 71.1 C 72.9 71.1 73.4 71.1 73.9 71.2 C 74.4 71.3 74.8 71.4 75.1 71.5 C 75.7 71.8 76.1 72.1 76.1 72.1 Z " id="Shape" fill="#A16A51" stroke-width="1"/>
              <g>
                <path d="M 79.2 55.8 C 79.9 56.5 79.9 57.4 79.9 57.4 C 79.9 57.4 78.3 56 75.4 58.1 C 75.4 58.1 75.5 57.4 75.8 56.7 C 77.2 56.3 78.3 56 79.2 55.8 Z " id="Shape" fill="#FFC8A6" stroke-width="1"/>
                <ellipse id="Oval" fill="#382A1B" transform="matrix(0.9999886682229701,-0.004760611898764118,0.004760611898764118,0.9999886682229701,74.98098331898134,55.01195016683885)" cx="2.50069386" cy="4.00054049" rx="1" ry="2.1000238" stroke-width="1"/>
                <path d="M 75 58.6 C 75 58.6 75.2 58.3 75.6 57.9 C 75.8 57.7 76.1 57.5 76.4 57.3 C 76.7 57.1 77.1 57 77.5 56.9 C 77.9 56.8 78.3 56.8 78.7 56.8 C 78.9 56.8 79.1 56.9 79.2 56.9 C 79.4 56.9 79.5 57 79.6 57.1 C 80.1 57.4 80.3 57.7 80.4 57.7 C 80.4 57.7 80.3 57.7 80.2 57.6 C 80.1 57.5 79.8 57.5 79.6 57.4 C 79.3 57.3 79 57.3 78.7 57.3 C 78.5 57.3 78.4 57.3 78.2 57.3 C 78 57.3 77.9 57.4 77.7 57.4 C 77 57.5 76.4 57.9 75.9 58.1 C 75.3 58.4 75 58.6 75 58.6 Z " id="Shape" fill="#382A1B" stroke-width="1"/>
              </g>
              <g>
                <path d="M 65.5 56 C 66.9 56.3 68 56.5 68.9 56.6 C 69.3 57.4 69.4 58.2 69.4 58.2 C 66.4 56.1 64.9 57.5 64.9 57.5 C 64.9 57.5 64.9 56.7 65.5 56 Z " id="Shape" fill="#FFC8A6" stroke-width="1"/>
                <ellipse id="Oval" fill="#382A1B" transform="matrix(0.9999886682229701,-0.004760611898764118,0.004760611898764118,0.9999886682229701,63.98575522819968,56.016698970978716)" cx="3.50059386" cy="3.00054713" rx="1" ry="2.1000238" stroke-width="1"/>
                <path d="M 69.9 58.6 C 69.9 58.6 69.6 58.4 69.1 58.1 C 68.6 57.9 68 57.5 67.3 57.4 C 67.1 57.4 67 57.3 66.8 57.3 C 66.6 57.3 66.5 57.3 66.3 57.3 C 66 57.3 65.7 57.3 65.4 57.4 C 65.1 57.4 64.9 57.5 64.8 57.6 C 64.6 57.7 64.6 57.7 64.6 57.7 C 64.6 57.7 64.8 57.4 65.3 57.1 C 65.4 57 65.6 57 65.7 56.9 C 65.9 56.8 66 56.8 66.2 56.8 C 66.6 56.7 67 56.8 67.4 56.8 C 67.8 56.9 68.1 57 68.5 57.2 C 68.8 57.4 69.1 57.6 69.3 57.8 C 69.7 58.3 69.9 58.6 69.9 58.6 Z " id="Shape" fill="#382A1B" stroke-width="1"/>
              </g>
              <path d="M 71.9 57.1 C 71.9 57.1 71.8 57.1 71.5 57.1 C 71.3 57.1 70.9 57.1 70.5 57.1 C 69.7 57.1 68.7 57 67.6 56.8 C 66.6 56.6 65.6 56.3 64.8 56.1 C 64.1 55.8 63.6 55.6 63.6 55.6 C 63.6 55.6 64.1 55.6 64.9 55.7 C 65.7 55.8 66.7 56 67.7 56.1 C 68.7 56.3 69.7 56.5 70.5 56.7 C 71.4 56.9 71.9 57.1 71.9 57.1 Z " id="Shape" fill="#382A1B" stroke-width="1"/>
              <path d="M 81 55.5 C 81 55.5 80.6 55.7 80 56 C 79.4 56.2 78.6 56.5 77.7 56.7 C 76.9 56.9 76 57 75.3 57 C 74.6 57 74.2 56.9 74.2 56.9 C 74.2 56.9 74.3 56.9 74.5 56.8 C 74.7 56.8 74.9 56.7 75.3 56.6 C 75.9 56.4 76.8 56.2 77.6 56 C 78.4 55.8 79.3 55.6 79.9 55.6 C 80.6 55.5 81 55.5 81 55.5 Z " id="Shape" fill="#382A1B" stroke-width="1"/>
              <path d="M 73.2 78.1 C 73.2 78.1 72.2 78 70.8 77.7 C 70.1 77.5 69.3 77.3 68.4 77 C 67.6 76.7 66.7 76.3 65.8 75.9 C 65.4 75.7 64.9 75.4 64.5 75.2 C 64.1 74.9 63.7 74.7 63.3 74.4 C 62.9 74.1 62.6 73.9 62.3 73.6 C 62 73.3 61.7 73.1 61.4 72.8 C 60.9 72.3 60.5 71.8 60.3 71.5 C 60.2 71.2 60 71 60 71 C 60 71 60.2 71.2 60.5 71.5 C 60.7 71.6 60.8 71.8 61 72 C 61.2 72.2 61.5 72.4 61.7 72.6 C 62 72.8 62.3 73.1 62.6 73.3 C 62.9 73.5 63.3 73.8 63.7 74 C 64.1 74.3 64.5 74.5 64.9 74.7 C 65.3 74.9 65.7 75.1 66.1 75.4 C 66.9 75.8 67.8 76.2 68.6 76.6 C 69.4 76.9 70.2 77.2 70.9 77.5 C 72.3 77.9 73.2 78.1 73.2 78.1 Z " id="Shape" fill="#BD875F" stroke-width="1"/>
            </g>
            <g id="Shape">
              <path d="M 74.9 43.1 C 74.9 43.1 76.8 46.8 75.6 50.7 C 75.6 50.7 69.9 50.7 65.1 52 C 65.1 52 64.5 49.3 65 47.3 C 65 47.3 63.8 50.2 64.3 52.3 C 64.3 52.3 62.6 50.7 62.8 47.9 C 62.8 47.9 62.3 51.4 63.2 52.8 C 63.2 52.8 60.4 53.6 58.8 55 C 58.8 55 54.3 81.6 60.1 83 C 60.1 83 55 82.7 55.8 72.7 C 55.8 72.7 54 81 57.4 83 C 57.4 83 52.2 83.7 50.1 81.1 C 48.1 78.5 50 71.3 50 71.3 C 50 71.3 45.9 75.8 48.1 78.5 C 48.1 78.5 44.5 76.6 47 72.5 C 49.2 68.8 49.6 67.8 50.1 64 C 51.1 55.2 52.1 46.8 56.2 42.1 C 60 37.7 66.3 37 68.9 37.8 C 68.9 37.8 75 36 79.9 41.2 C 82.1 43.5 83.9 47.8 83.4 53 C 83.4 53 81.2 51.4 79.2 51.3 C 79.2 51.3 79.6 46.8 77.4 44.3 C 77.4 44.3 79.4 47.6 77.9 50.8 C 77.9 50.8 77.7 48.3 77.2 46.8 C 77.2 46.8 77.5 49.9 76.8 50.8 C 76.6 50.8 76.5 45.2 74.9 43.1 Z " fill="#382A1B" stroke-width="1"/>
              <path d="M 60.1 83 C 60.1 83 60 83 59.9 83 C 59.8 83 59.6 83 59.4 82.9 C 59.2 82.8 58.9 82.7 58.6 82.6 C 58.3 82.4 58 82.2 57.7 81.9 C 57.4 81.6 57.1 81.3 56.9 80.8 C 56.6 80.4 56.5 79.9 56.3 79.5 C 56.2 79 56 78.5 55.9 78 C 55.8 77.5 55.7 77 55.6 76.4 C 55.6 75.9 55.5 75.3 55.5 74.8 C 55.5 74.3 55.5 73.8 55.5 73.3 C 55.5 72.8 55.6 72.3 55.6 71.9 C 55.6 71.4 55.7 71 55.7 70.6 C 55.9 69 56.1 68 56.1 68 C 56.1 68 56.1 69.1 56 70.7 C 56 71.1 56 71.5 56 72 C 56 72.5 56 72.9 56 73.4 C 56 73.9 56 74.4 56.1 74.9 C 56.1 75.4 56.2 75.9 56.3 76.5 C 56.3 77 56.5 77.5 56.5 78 C 56.6 78.5 56.8 79 56.9 79.5 C 57.1 79.9 57.2 80.4 57.4 80.8 C 57.6 81.2 57.8 81.5 58.1 81.8 C 58.4 82.1 58.6 82.3 58.9 82.5 C 59.1 82.7 59.4 82.8 59.6 82.9 C 59.8 83 60.1 83 60.1 83 Z " fill="#241B10" stroke-width="1"/>
              <path d="M 57.4 83 C 57.4 83 57.2 83.1 56.9 83.1 C 56.7 83.1 56.5 83.1 56.3 83.1 C 56.1 83.1 55.8 83.1 55.5 83 C 55.4 83 55.2 82.9 55.1 82.8 C 55 82.7 54.8 82.6 54.7 82.6 C 54.5 82.5 54.4 82.4 54.3 82.3 C 54.1 82.2 54 82.1 53.9 81.9 C 53.6 81.6 53.4 81.3 53.2 80.9 C 53 80.6 52.9 80.2 52.7 79.8 C 52.6 79.4 52.5 79 52.4 78.7 C 52.3 78.3 52.3 77.9 52.3 77.6 C 52.2 76.9 52.3 76.2 52.3 75.6 C 52.4 74.4 52.6 73.7 52.6 73.7 C 52.6 73.7 52.7 74.5 52.7 75.6 C 52.8 76.2 52.8 76.8 52.9 77.5 C 53 77.8 53 78.2 53.1 78.6 C 53.2 79 53.3 79.3 53.4 79.7 C 53.5 80 53.6 80.4 53.8 80.7 L 54.1 81.2 C 54.2 81.4 54.3 81.5 54.4 81.6 C 54.5 81.7 54.6 81.9 54.7 82 C 54.8 82.1 54.9 82.2 55.1 82.3 C 55.2 82.4 55.4 82.5 55.5 82.6 C 55.6 82.7 55.8 82.7 55.9 82.8 C 56.2 82.9 56.4 83 56.6 83 C 56.8 83.1 57 83.1 57.2 83.1 C 57.2 83 57.4 83 57.4 83 Z " fill="#241B10" stroke-width="1"/>
              <path d="M 55.9 83 C 55.9 83 55.6 83.1 55 83.1 C 54.4 83.1 53.6 83.1 52.6 82.9 C 52.1 82.8 51.6 82.6 51.1 82.3 C 50.6 82 50.1 81.6 49.8 81.1 C 49.4 80.6 49.2 79.9 49 79.3 C 48.9 78.6 48.8 78 48.8 77.3 C 48.9 74.7 49.6 72.1 50.1 70.2 C 50.6 68.2 51 67 51 67 C 51 67 50.8 68.3 50.4 70.2 C 50.2 71.2 50 72.3 49.8 73.5 C 49.6 74.7 49.4 76 49.4 77.2 C 49.4 77.8 49.4 78.5 49.5 79.1 C 49.6 79.7 49.8 80.3 50.2 80.7 C 50.5 81.2 50.9 81.6 51.4 81.9 C 51.8 82.2 52.3 82.4 52.8 82.6 C 53.7 82.9 54.5 83 55.1 83 C 55.6 83 55.9 83 55.9 83 Z " fill="#241B10" stroke-width="1"/>
              <path d="M 68.8 37.8 C 68.8 37.8 68.6 37.8 68.2 37.7 C 67.8 37.6 67.2 37.6 66.5 37.6 C 65.1 37.6 62.9 37.7 60.7 38.8 C 59.6 39.3 58.5 40.1 57.4 41.1 C 56.4 42.1 55.4 43.3 54.7 44.6 C 53.1 47.3 52.2 50.5 51.6 53.8 C 51 57.1 50.8 60.4 50.4 63.5 C 50.2 65.1 50 66.6 49.6 68 C 49.2 69.4 48.7 70.7 48 71.7 C 47.3 72.7 46.8 73.7 46.5 74.6 C 46.2 75.5 46.4 76.4 46.7 77 C 47 77.6 47.4 78.1 47.7 78.3 C 48 78.6 48.2 78.7 48.2 78.7 C 48.2 78.7 48 78.6 47.7 78.4 C 47.4 78.2 46.9 77.8 46.5 77.1 C 46.1 76.5 45.8 75.5 46.1 74.5 C 46.3 73.5 46.9 72.4 47.5 71.3 C 48.2 70.3 48.8 69.1 49.2 67.7 C 49.6 66.4 49.8 64.9 50 63.3 C 50.4 60.2 50.7 56.9 51.3 53.6 C 51.9 50.3 52.8 47.1 54.5 44.4 C 55.3 43.1 56.3 41.9 57.3 40.9 C 58.3 39.9 59.5 39.2 60.7 38.7 C 63 37.7 65.2 37.6 66.6 37.6 C 67.3 37.6 67.9 37.7 68.3 37.8 C 68.6 37.7 68.8 37.8 68.8 37.8 Z " fill="#241B10" stroke-width="1"/>
              <path d="M 57.1 70.3 C 57.1 70.3 57.1 69.9 57.1 69.3 C 57.1 68.7 57.1 67.8 57.2 66.7 C 57.3 65.6 57.3 64.4 57.5 63.1 C 57.6 62.4 57.6 61.8 57.7 61.1 C 57.8 60.4 57.8 59.7 58 59 C 58.4 56.2 58.8 53.4 59.4 51.4 C 59.7 50.4 59.9 49.5 60.1 48.9 C 60.3 48.3 60.4 48 60.4 48 C 60.4 48 60.3 48.3 60.2 48.9 C 60.1 49.5 59.9 50.4 59.7 51.4 C 59.5 52.4 59.4 53.7 59.2 55 C 59 56.3 58.8 57.7 58.7 59.1 C 58.3 61.9 58 64.7 57.7 66.8 C 57.3 68.9 57.1 70.3 57.1 70.3 Z " fill="#241B10" stroke-width="1"/>
              <path d="M 64.2 52.3 C 64.2 52.3 63.7 52 63.2 51.2 C 63 50.8 62.7 50.3 62.6 49.8 C 62.4 49.3 62.4 48.6 62.4 48 C 62.4 47.7 62.4 47.4 62.5 47.1 C 62.5 46.8 62.6 46.5 62.7 46.2 C 62.8 45.6 63 45.2 63.2 44.7 C 63.4 44.3 63.6 44 63.7 43.7 C 63.8 43.5 63.9 43.4 63.9 43.4 C 63.9 43.4 63.9 43.5 63.8 43.8 C 63.7 44.1 63.6 44.4 63.5 44.8 C 63.5 45 63.4 45.2 63.3 45.5 C 63.3 45.7 63.2 46 63.2 46.3 C 63.1 46.6 63.1 46.8 63.1 47.1 C 63.1 47.4 63.1 47.7 63.1 47.9 C 63.1 48.5 63.1 49 63.2 49.5 C 63.3 50 63.5 50.5 63.6 50.9 C 63.9 51.8 64.2 52.3 64.2 52.3 Z " fill="#241B10" stroke-width="1"/>
              <path d="M 65.1 52 C 65.1 52 64.9 51.6 64.8 50.9 C 64.7 50.2 64.6 49.3 64.6 48.3 C 64.7 47.4 64.9 46.4 65.2 45.8 C 65.3 45.5 65.5 45.2 65.6 45 C 65.7 44.8 65.8 44.7 65.8 44.7 C 65.8 44.7 65.8 44.8 65.7 45 C 65.6 45.2 65.6 45.5 65.5 45.8 C 65.4 46.5 65.3 47.4 65.2 48.3 C 65.1 49.2 65.1 50.1 65.1 50.8 C 65.1 51.6 65.1 52 65.1 52 Z " fill="#241B10" stroke-width="1"/>
              <path d="M 68.7 38.6 C 68.7 38.6 68.4 38.7 68 38.9 C 67.6 39.1 67 39.3 66.5 39.7 C 66 40 65.5 40.4 65.2 40.7 C 64.9 41 64.7 41.3 64.6 41.3 C 64.6 41.3 64.6 41.2 64.7 41.1 C 64.7 41 64.8 40.8 64.9 40.5 C 65 40.3 65.2 40 65.4 39.8 C 65.6 39.6 65.9 39.4 66.2 39.2 C 66.8 38.8 67.4 38.7 67.9 38.6 C 68.4 38.5 68.7 38.6 68.7 38.6 Z " fill="#241B10" stroke-width="1"/>
              <path d="M 73.3 50.8 C 73.3 50.8 73.2 50.2 73.1 49.3 C 73 48.4 72.9 47.2 72.8 46 C 72.7 44.8 72.5 43.7 72.3 42.8 C 72.2 42.4 72.1 42 72 41.8 C 71.9 41.6 71.8 41.4 71.8 41.4 C 71.8 41.4 71.9 41.5 72.1 41.7 C 72.3 41.9 72.5 42.2 72.7 42.7 C 72.9 43.1 73.1 43.6 73.2 44.2 C 73.4 44.8 73.4 45.4 73.5 46 C 73.6 47.2 73.6 48.4 73.6 49.3 C 73.4 50.2 73.3 50.8 73.3 50.8 Z " fill="#241B10" stroke-width="1"/>
              <path d="M 76.6 50.8 C 76.6 50.8 76.5 50.2 76.3 49.3 C 76.1 48.4 75.9 47.3 75.7 46.1 C 75.4 45 75.1 43.8 74.8 43.1 C 74.7 42.9 74.6 42.7 74.5 42.6 C 74.4 42.4 74.3 42.3 74.3 42.2 C 74 42 74 41.9 74 41.9 C 74 41.9 74.1 42 74.3 42.2 C 74.4 42.3 74.5 42.4 74.6 42.5 C 74.7 42.6 74.9 42.8 75 43 C 75.3 43.4 75.5 43.9 75.7 44.4 C 75.9 44.9 76.1 45.5 76.2 46.1 C 76.5 47.3 76.6 48.5 76.6 49.4 C 76.6 50.2 76.6 50.8 76.6 50.8 Z " fill="#241B10" stroke-width="1"/>
              <path d="M 77.7 50.8 C 77.7 50.8 77.9 50.3 78 49.5 C 78 49.1 78.1 48.6 78 48.1 C 78 47.6 77.9 47.1 77.7 46.5 C 77.6 46.2 77.6 46 77.5 45.7 C 77.4 45.5 77.3 45.2 77.2 45 C 77.1 44.8 77 44.5 76.9 44.3 C 76.8 44.1 76.7 43.9 76.6 43.7 C 76.4 43.3 76.2 43 76.1 42.8 C 76 42.6 75.9 42.5 75.9 42.5 C 75.9 42.5 76 42.6 76.2 42.8 C 76.4 43 76.7 43.2 76.9 43.6 C 77.2 43.9 77.5 44.3 77.7 44.8 C 77.8 45 77.9 45.3 78.1 45.6 C 78.2 45.9 78.3 46.1 78.4 46.4 C 78.5 47 78.6 47.5 78.6 48.1 C 78.6 48.6 78.5 49.2 78.4 49.6 C 78.1 50.4 77.7 50.8 77.7 50.8 Z " fill="#241B10" stroke-width="1"/>
              <path d="M 81.1 51.7 C 81.1 51.7 81.2 51.3 81.2 50.7 C 81.2 50.1 81.2 49.3 81.1 48.5 C 81 47.7 80.8 46.9 80.7 46.3 C 80.6 46 80.5 45.7 80.5 45.6 C 80.4 45.4 80.4 45.3 80.4 45.3 C 80.4 45.3 80.5 45.4 80.6 45.5 C 80.7 45.7 80.9 45.9 81 46.1 C 81.2 46.4 81.3 46.7 81.5 47.1 C 81.6 47.5 81.7 47.9 81.8 48.3 C 81.9 49.2 81.8 50 81.6 50.7 C 81.3 51.4 81.1 51.7 81.1 51.7 Z " fill="#241B10" stroke-width="1"/>
              <path d="M 83.2 53 C 83.2 53 83.4 51.5 83.1 49.3 C 82.9 48.2 82.6 46.9 82.1 45.6 C 81.6 44.3 80.8 43 79.8 41.9 C 78.9 40.8 77.7 39.7 76.6 39 C 75.4 38.3 74.2 37.9 73.1 37.7 C 72 37.5 71 37.5 70.4 37.5 C 69.7 37.5 69.4 37.5 69.4 37.5 C 69.4 37.5 69.8 37.4 70.4 37.3 C 71.1 37.2 72 37.1 73.2 37.2 C 74.3 37.3 75.7 37.6 77 38.3 C 77.6 38.7 78.2 39.1 78.8 39.6 C 79.4 40.1 79.9 40.6 80.4 41.2 C 81.4 42.4 82.2 43.7 82.7 45.1 C 83.2 46.4 83.5 47.8 83.6 48.9 C 83.7 50 83.6 51 83.6 51.7 C 83.3 52.6 83.2 53 83.2 53 Z " fill="#241B10" stroke-width="1"/>
              <path d="M 69.9 38.6 C 69.9 38.6 70.3 38.4 71.1 38.3 C 71.5 38.3 71.9 38.3 72.4 38.4 C 72.9 38.5 73.4 38.6 73.8 38.8 C 74.7 39.2 75.6 39.7 76.1 40.3 C 76.4 40.5 76.6 40.8 76.7 40.9 C 76.8 41.1 76.9 41.2 76.9 41.2 C 76.9 41.2 76.8 41.1 76.6 41 C 76.4 40.9 76.2 40.7 75.8 40.6 C 75.5 40.4 75.1 40.2 74.7 40 C 74.5 39.9 74.3 39.8 74.1 39.7 C 73.9 39.6 73.7 39.5 73.5 39.4 C 72.6 39 71.7 38.8 71 38.7 C 70.4 38.6 69.9 38.6 69.9 38.6 Z " fill="#241B10" stroke-width="1"/>
            </g>
          </g>
          <g id="Shape">
            <g>
              <path d="M 80.2 42 C 80.2 42 76.7 28 59.8 8 C 59.8 8 53.3 37.1 53.2 46.4 C 53.2 46.4 55.8 43.3 65.9 42.1 C 69.8 41.6 75.9 40.3 80.2 42 Z " fill="#122F42" stroke-width="1"/>
              <path d="M 53.3 45 C 53.3 45 53.3 44.4 53.4 43.4 C 53.5 42.4 53.6 40.9 53.8 39.2 C 54 37.5 54.3 35.4 54.6 33.2 C 54.9 31 55.3 28.7 55.7 26.4 C 56.1 24.1 56.6 21.8 57 19.6 C 57.4 17.4 57.9 15.4 58.3 13.7 C 59.1 10.3 59.8 8 59.8 8 C 59.8 8 59.3 10.3 58.7 13.8 C 58.4 15.5 58 17.5 57.6 19.7 C 57.2 21.9 56.8 24.2 56.4 26.5 C 56 28.8 55.6 31.1 55.2 33.3 C 54.8 35.5 54.5 37.5 54.2 39.2 C 53.9 40.9 53.7 42.4 53.6 43.4 C 53.3 44.4 53.3 45 53.3 45 Z " fill="#141B30" stroke-width="1"/>
              <path d="M 80 41.2 C 80 41.2 79.8 40.6 79.4 39.6 C 79 38.6 78.4 37.2 77.6 35.6 C 76.8 34 75.9 32.1 74.8 30.1 C 74.3 29.1 73.7 28.1 73.1 27 C 72.5 26 71.9 24.9 71.2 23.9 C 69.9 21.8 68.6 19.8 67.3 18 C 66.6 17 66 16.2 65.4 15.3 C 64.8 14.4 64.2 13.7 63.6 13 C 63 12.3 62.5 11.6 62 11 C 61.5 10.4 61.1 9.9 60.8 9.5 C 60.1 8.7 59.7 8.2 59.7 8.2 C 59.7 8.2 60.1 8.6 60.8 9.4 C 61.2 9.8 61.6 10.3 62.1 10.8 C 62.6 11.3 63.1 12 63.7 12.7 C 64.3 13.4 64.9 14.1 65.6 15 C 66.2 15.8 66.9 16.7 67.6 17.6 C 68.9 19.5 70.3 21.5 71.6 23.5 C 72.2 24.5 72.9 25.6 73.4 26.6 C 74 27.6 74.6 28.7 75.1 29.7 C 76.2 31.7 77 33.7 77.8 35.3 C 78.5 37 79 38.4 79.4 39.4 C 79.8 40.6 80 41.2 80 41.2 Z " fill="#141B30" stroke-width="1"/>
            </g>
            <g>
              <path d="M 79.9 41.1 C 79.9 41.1 71.7 40.9 66.5 41.7 C 61.3 42.5 53.3 45 53.3 45 C 53.3 45 53 43.9 53.6 42.7 C 53.6 42.7 66.3 38 79.5 39.5 C 79.4 39.5 80.2 40.2 79.9 41.1 Z " fill="#63B7CE" stroke-width="1"/>
              <path d="M 79.9 41.1 C 79.9 41.1 78.2 41.1 75.7 41.2 C 74.4 41.3 73 41.4 71.4 41.5 C 69.8 41.6 68.2 41.9 66.5 42.1 C 64.8 42.3 63.2 42.6 61.6 42.9 C 60.8 43.1 60.1 43.2 59.4 43.4 C 58.7 43.5 58 43.7 57.4 43.9 C 56.8 44.1 56.2 44.2 55.7 44.3 C 55.2 44.4 54.8 44.5 54.4 44.6 C 53.7 44.8 53.3 44.9 53.3 44.9 C 53.3 44.9 53.7 44.8 54.4 44.5 C 55.1 44.3 56.1 43.9 57.3 43.5 C 57.9 43.3 58.6 43.1 59.3 42.9 C 60 42.7 60.7 42.5 61.5 42.4 C 62.3 42.2 63.1 42.1 63.9 41.9 C 64.7 41.8 65.6 41.6 66.4 41.5 C 68.1 41.3 69.8 41.1 71.4 41 C 73 40.9 74.5 40.9 75.7 40.8 C 78.2 40.9 79.9 41.1 79.9 41.1 Z " fill="#466D8C" stroke-width="1"/>
              <path d="M 79.4 39.5 C 79.4 39.5 77.8 39.4 75.3 39.4 C 74.1 39.4 72.6 39.5 71.1 39.5 C 69.6 39.6 67.9 39.7 66.3 39.9 C 64.7 40.1 63.1 40.3 61.5 40.6 C 60.7 40.7 60 40.9 59.3 41 C 58.6 41.1 58 41.3 57.4 41.5 C 56.8 41.7 56.3 41.8 55.8 41.9 C 55.3 42 54.9 42.2 54.6 42.3 C 53.9 42.5 53.5 42.6 53.5 42.6 C 53.5 42.6 53.9 42.4 54.5 42.2 C 55.2 41.9 56.1 41.5 57.3 41.2 C 57.9 41 58.5 40.8 59.2 40.6 C 59.9 40.4 60.6 40.2 61.4 40.1 C 62.9 39.8 64.5 39.5 66.2 39.3 C 67.8 39.1 69.5 39 71 38.9 C 72.5 38.9 74 38.9 75.2 39 C 76.4 39.1 77.5 39.2 78.2 39.3 C 79 39.4 79.4 39.5 79.4 39.5 Z " fill="#466D8C" stroke-width="1"/>
            </g>
            <g>
              <g>
                <path d="M 100.7 48.9 C 100.7 48.9 97.9 43 69.2 44.6 C 66.6 44.7 41 50 34.9 56.5 C 34.9 56.5 43.7 47 60.9 42.6 C 78.1 38.2 96.6 43 100.7 48.9 Z " fill="#122F42" stroke-width="1"/>
                <path d="M 100.7 49.1 C 100.7 49.1 100.4 48.7 99.8 48.2 C 99.5 47.9 99.1 47.6 98.7 47.3 C 98.2 47 97.7 46.6 97.1 46.3 C 96.5 45.9 95.9 45.6 95.2 45.2 C 94.5 44.9 93.7 44.5 92.9 44.2 C 92.1 43.9 91.3 43.6 90.4 43.3 C 90 43.2 89.5 43 89.1 42.9 L 87.8 42.6 L 86.5 42.3 C 86.1 42.2 85.6 42.1 85.2 42.1 C 84.8 42 84.3 41.9 83.9 41.9 C 83.5 41.8 83 41.8 82.6 41.7 C 81.7 41.6 80.9 41.5 80.1 41.4 C 79.3 41.3 78.6 41.3 77.9 41.2 C 76.5 41.1 75.4 41.1 74.6 41 C 73.8 41 73.3 40.9 73.3 40.9 C 73.3 40.9 73.8 40.9 74.6 40.8 C 75.4 40.8 76.6 40.7 77.9 40.7 C 78.6 40.7 79.3 40.8 80.1 40.8 C 80.9 40.8 81.7 40.9 82.6 41 C 83 41 83.5 41.1 83.9 41.1 C 84.3 41.2 84.8 41.2 85.2 41.3 C 85.6 41.4 86.1 41.5 86.6 41.5 L 88 41.8 L 89.3 42.1 C 89.7 42.2 90.2 42.4 90.6 42.5 C 91.5 42.8 92.3 43.1 93.1 43.4 C 93.9 43.7 94.7 44.1 95.4 44.5 C 96.1 44.9 96.7 45.3 97.3 45.7 C 97.9 46.1 98.4 46.5 98.8 46.8 C 99.2 47.2 99.6 47.5 99.9 47.8 C 100.5 48.7 100.7 49.1 100.7 49.1 Z " fill="#141B30" stroke-width="1"/>
                <path d="M 60.4 42.8 C 60.4 42.8 59.9 42.9 59.2 43.1 C 58.4 43.3 57.3 43.6 56 44.1 C 55.4 44.3 54.7 44.6 53.9 44.9 C 53.2 45.2 52.4 45.5 51.6 45.9 C 50.8 46.2 50 46.6 49.2 47 C 48.4 47.4 47.6 47.8 46.8 48.3 C 46 48.8 45.2 49.2 44.4 49.7 C 43.6 50.2 42.9 50.7 42.2 51.1 C 41.5 51.6 40.8 52.1 40.2 52.5 C 39.5 52.9 39 53.4 38.4 53.8 C 37.9 54.2 37.3 54.6 36.9 54.9 C 36.5 55.2 36.1 55.6 35.8 55.8 C 35.2 56.3 34.8 56.6 34.8 56.6 C 34.8 56.6 35.1 56.3 35.7 55.7 C 36.3 55.2 37.1 54.3 38.2 53.5 C 38.7 53.1 39.3 52.6 39.9 52.1 C 40.5 51.6 41.2 51.1 41.9 50.6 C 42.6 50.1 43.4 49.6 44.1 49.1 C 44.9 48.6 45.7 48.2 46.5 47.7 C 47.3 47.3 48.1 46.8 49 46.5 C 49.8 46.1 50.6 45.7 51.4 45.4 C 52.2 45.1 53 44.8 53.7 44.5 C 54.4 44.2 55.2 44 55.8 43.8 C 57.1 43.4 58.3 43.2 59 43 C 60 42.8 60.4 42.8 60.4 42.8 Z " fill="#141B30" stroke-width="1"/>
              </g>
              <path d="M 95.5 46.3 C 95.5 46.2 94.7 46 93.2 45.7 C 91.7 45.4 89.5 45.1 86.9 44.9 C 84.3 44.7 81.3 44.5 78 44.6 C 74.7 44.6 71.3 44.9 67.8 45.3 C 64.4 45.7 60.9 46.4 57.8 47.2 C 54.6 48 51.7 48.8 49.2 49.6 C 46.7 50.4 44.7 51.1 43.2 51.7 C 41.8 52.3 41 52.6 41 52.6 C 41 52.6 41.8 52.2 43.2 51.6 C 44.6 51 46.6 50.1 49.1 49.3 C 51.6 48.5 54.5 47.6 57.7 46.7 C 60.9 45.9 64.3 45.2 67.8 44.7 C 71.3 44.3 74.8 44.1 78.1 44.1 C 81.4 44.1 84.4 44.3 87 44.6 C 89.6 44.9 91.8 45.3 93.2 45.7 C 94.7 45.9 95.6 46.2 95.5 46.3 Z " fill="#141B30" stroke-width="1"/>
            </g>
          </g>
        </g>
      </g>
    </g>
  </g>
</svg>