<svg xmlns="http://www.w3.org/2000/svg" xmlns:xlink="http://www.w3.org/1999/xlink" version="1.1" width="119.53955841064453" height="145.34494018554688" viewBox="0.4580000638961792 0.12199997901916504 119.53955841064453 145.34494018554688">
  <!-- Exported by Scratch - http://scratch.mit.edu/ -->
  <g id="ID0.7868562387302518">
    <g id="Page-1">
      <path id="Shape" fill="#828C00" stroke="none" stroke-width="1" d="M 34.628 108.484 C 28.975 108.037 14.077 116.407 13.682 116.552 C 12.994 121.79 14.847 130.271 12.883 135.315 C 12.1 137.318 10.379 139.053 8.765 140.417 C 7.703 141.374 6.549 142.222 5.319 142.949 C 3.935 143.693 2.37 143.742 0.958 144.345 C 2.239 145.254 4.499 144.907 5.973 144.878 C 8.032 144.833 10.033 144.928 12.072 144.771 C 16.272 144.436 21.353 144.564 25.17 142.656 C 28.905 140.784 30.111 136.525 30.98 132.7 C 31.536 130.291 35.369 110.136 34.628 108.484 Z "/>
      <path id="Shape" fill="#828C00" stroke="none" stroke-width="1" d="M 65.418 100.527 L 80.653 100.527 C 77.1 118.629 74.032 138.946 73.695 142.734 C 74.831 143.127 75.91 142.784 76.956 142.871 C 76.993 143.246 77.022 143.544 77.059 143.932 C 75.568 143.845 69.194 144.11 67.683 143.705 C 67.683 142.42 65.418 100.527 65.418 100.527 Z "/>
      <path id="Shape" fill="#A0AA1E" stroke="none" stroke-width="1" d="M 13.732 111.541 C 13.86 102.18 13.399 89.303 20.732 82.21 C 22.079 80.909 23.932 80.145 25.369 79.066 C 27.559 77.414 30.145 76.208 32.369 74.568 C 33.089 74.043 34.514 72.833 34.514 72.833 L 37.232 71.383 L 37.12 68.85 C 37.12 68.85 38.986 63.74 39.29 62.059 C 41.292 51.083 39.183 39.751 41.23 28.754 C 41.452 27.548 41.724 26.243 42.004 25.016 L 72.314 21.178 L 103.497 23.243 C 107.124 25.953 103.056 29.663 100.063 31.092 C 98.3 31.939 96.666 32.745 95.163 34.038 C 94.837 34.319 92.112 36.413 91.21 39.094 C 89.839 43.188 90.205 48.666 90.11 51.322 C 89.933 56.325 90.213 61.377 90.403 66.376 C 90.777 76.27 91.181 85.792 89.69 95.624 C 89.011 100.122 88.278 104.394 85.532 108.132 C 82.649 112.053 79.227 115.287 74.566 116.973 C 65.952 120.084 25.607 119.096 22.758 118.803 C 19.793 118.497 16.689 118.993 13.757 118.621 C 13.329 116.432 13.699 113.78 13.732 111.541 Z "/>
      <path id="Shape" fill="#A0AA1E" stroke="none" stroke-width="1" d="M 55.941 99.395 C 55.941 99.395 45.376 136.909 45.376 143.259 C 45.944 143.358 48.921 142.949 49.353 143.565 C 48.991 144.825 41.657 144.015 40.171 143.771 C 39.714 142.404 37.824 100.527 37.824 100.527 L 55.941 99.395 Z "/>
      <path id="Shape" fill="#A0AA1E" stroke="none" stroke-width="1" d="M 100.63 49.41 C 100.041 49.41 100.333 46.468 99.958 46.468 C 99.584 46.468 99.748 49.327 99.077 49.281 C 98.406 49.236 98.826 46.555 98.2 46.555 C 97.574 46.555 98.163 52.21 98.138 53.838 C 98.101 56.04 98.196 58.25 98.101 60.448 C 98.015 62.414 97.723 64.364 96.718 66.087 C 96.133 67.09 92.481 69.652 88.585 69.97 C 84.624 70.296 80.412 68.375 79.358 68.565 C 79.421 69.912 79.406 71.261 79.313 72.605 L 79.638 73.171 C 80.955 73.254 84.447 74.758 89.327 74.361 C 92.72 74.088 96.701 72.25 97.475 71.734 C 100.131 69.966 101.272 66.925 101.441 64.046 C 101.601 61.324 101.667 58.58 101.741 55.85 C 101.807 53.421 102.347 47.137 101.741 46.968 C 101.136 46.799 101.214 49.41 100.63 49.41 Z "/>
      <path id="Shape" fill="#828C00" stroke="none" stroke-width="1" d="M 56.155 48.996 C 55.566 48.996 55.859 46.055 55.484 46.055 C 55.109 46.055 55.274 48.914 54.603 48.868 C 53.931 48.823 54.351 46.142 53.726 46.142 C 53.1 46.142 53.689 51.797 53.664 53.425 C 53.627 55.627 53.721 57.837 53.627 60.035 C 53.54 62.001 53.248 63.951 52.243 65.674 C 51.659 66.677 48.006 69.239 44.111 69.557 C 41.767 69.76 39.406 69.516 37.152 68.838 L 34.546 72.82 C 34.546 72.82 39.973 74.345 44.84 73.948 C 48.233 73.675 51.84 72.329 52.601 71.812 C 55.257 70.04 56.785 66.512 56.954 63.633 C 57.114 60.91 57.18 58.167 57.254 55.437 C 57.32 53.008 57.86 46.724 57.254 46.555 C 56.649 46.386 56.74 48.996 56.155 48.996 Z "/>
      <g id="Group">
        <path id="Shape" fill="#FFFFFF" stroke="none" stroke-width="1" d="M 86.814 22.364 C 86.336 24.689 86.344 29.295 89.371 29.923 L 90.482 29.399 C 91.891 27.284 92.129 24.995 92.204 22.529 C 90.384 22.273 88.671 22.496 86.814 22.364 Z "/>
        <path id="Shape" fill="#FFFFFF" stroke="none" stroke-width="1" d="M 97.421 21.488 L 93.921 21.488 C 91.261 30.407 99.306 30.964 97.421 21.488 Z "/>
        <path id="Shape" fill="#DCD2B4" stroke="none" stroke-width="1" d="M 85.059 20.133 L 81.559 20.133 C 78.899 29.056 86.945 29.609 85.059 20.133 Z "/>
        <path id="Shape" fill="#FFFFFF" stroke="none" stroke-width="1" d="M 79.945 19.563 L 76.441 19.563 C 73.781 28.482 81.827 29.039 79.945 19.563 Z "/>
        <path id="Shape" fill="#FFFFFF" stroke="none" stroke-width="1" d="M 74.918 18.708 L 71.414 18.708 C 68.741 27.626 76.783 28.184 74.918 18.708 Z "/>
        <path id="Shape" fill="#FAF0E6" stroke="none" stroke-width="1" d="M 102.539 20.703 L 99.035 20.703 C 96.375 29.626 104.421 30.179 102.539 20.703 Z "/>
        <path id="Shape" fill="#828C00" stroke="none" stroke-width="1" d="M 68.033 0.94 C 70.664 0.812 73.304 0.87 75.939 0.783 C 81.852 0.585 87.748 0.832 93.665 0.622 C 96.585 1.175 99.603 0.907 102.559 1.526 C 105.1 2.053 107.525 3.032 109.72 4.418 C 113.904 7.041 116.399 12.49 116.658 17.328 C 116.778 19.587 116.218 22.202 114.13 23.442 C 111.816 24.813 108.365 24.268 105.816 24.338 C 99.228 24.479 92.64 24.565 86.052 24.475 L 42.051 25.024 C 42.898 21.101 44.15 17.277 45.785 13.614 C 47.773 9.171 51.328 5.621 55.766 3.65 C 59.271 2.026 66.987 0.994 68.033 0.94 Z "/>
        <path id="Shape" fill="#645A1E" stroke="none" stroke-width="1" d="M 108.728 20.955 C 109.316 22.347 111.392 23.289 112.285 21.616 C 113.302 19.72 111.318 18.567 109.765 18.567 C 109.232 19.267 108.876 20.086 108.728 20.955 Z "/>
        <path id="Shape" fill="#645A1E" stroke="none" stroke-width="1" d="M 102.745 18.249 L 101.654 19.075 C 100.797 20.6 102.226 23.029 104.005 21.86 C 105.693 20.765 104.532 18.22 102.745 18.249 Z "/>
        <path id="Shape" fill="#000000" stroke="none" stroke-width="1" d="M 119.158 14.519 C 119.45 14.019 119.816 12.664 118.997 12.482 C 118.635 12.71 118.429 13.121 118.463 13.549 C 118.496 13.977 118.764 14.351 119.158 14.519 Z "/>
        <path id="Shape" fill="#000000" stroke="none" stroke-width="1" d="M 75.968 14.895 C 77.203 16.547 78.393 13.936 77.071 13.378 C 76.359 13.593 76.017 14.052 75.968 14.895 Z "/>
      </g>
    </g>
  </g>
</svg>