<svg xmlns="http://www.w3.org/2000/svg" xmlns:xlink="http://www.w3.org/1999/xlink" version="1.1" width="86.79119874894909" height="61.750000018480335" viewBox="2.458800068198186 0.24999999075983126 86.79119874894909 61.750000018480335">
  <!-- Exported by Scratch - http://scratch.mit.edu/ -->
  <g id="ID0.8678142982535064">
    <path id="ID0.36570804519578815" fill="#009933" stroke="#000000" stroke-width="1" stroke-linecap="round" d="M 26.25 61.25 C 26.097 62.095 27.27 59.856 28 59 C 29.353 57.523 30.494 55.74 32.25 54.5 C 35.598 52.135 39.194 50.023 43 48.5 C 46.41 47.137 50.259 46.341 54 46 C 57.312 45.698 60.901 45.848 64.25 46.75 C 67.337 47.457 70.159 49.047 73 50.75 C 75.285 52.121 79.658 56.859 79.25 55.75 C 78.746 54.393 74.459 47.898 71 45 C 68.248 42.695 64.714 41.288 61.25 40.5 C 57.235 39.673 52.966 39.423 49 40.25 C 44.142 41.263 39.416 43.114 35.25 46 C 31.852 48.356 29.369 51.949 27.25 55.5 C 26.204 57.253 25.822 60.34 26 61.5 Z "/>
    <g id="ID0.6277817743830383">
      <path id="ID0.9920099773444235" fill="none" stroke="#000000" stroke-width="1.0000000184803375" stroke-linecap="round" d="M 40.7892 45.1793 C 40.7892 45.1793 41.4781 43.6243 41.5388 42.7943 C 41.5876 42.1252 41.3401 41.4552 41.1095 40.825 C 40.8662 40.1615 40.5716 39.4945 40.1282 38.9443 C 39.614 38.3057 38.9535 37.7858 38.2816 37.3157 C 37.5856 36.8286 36.8414 36.3882 36.0465 36.0891 C 35.4184 35.8529 34.7259 35.6217 34.0635 35.728 C 33.3659 35.8399 32.6599 36.1883 32.1828 36.7092 C 31.6737 37.2651 31.3672 38.0336 31.2697 38.7807 C 31.173 39.5187 31.2214 40.362 31.624 40.9885 C 31.9952 41.5654 32.6996 41.9922 33.3821 42.0652 C 34.0938 42.1421 34.792 41.7284 35.4264 41.3974 C 36.1649 41.0121 37.0099 40.6414 37.457 39.9392 C 38.2635 38.6738 38.9988 37.2214 39.0447 35.7211 C 39.0881 34.2893 38.3718 32.9027 37.7092 31.6326 C 37.3127 30.8728 36.6395 30.2566 35.9375 29.7655 C 35.2517 29.2858 34.4124 29.0682 33.6274 28.7774 C 32.8473 28.4882 32.0572 28.1969 31.2424 28.0279 C 30.4111 27.8546 29.5513 27.6588 28.7075 27.7553 C 27.8802 27.8496 26.9281 27.9874 26.3498 28.5866 C 25.4083 29.5612 24.6038 30.8335 24.435 32.1777 C 24.3393 32.9391 25.0177 33.7057 25.6548 34.1334 C 26.3501 34.5993 27.289 34.777 28.1147 34.6445 C 29.0442 34.4953 29.9129 33.956 30.6223 33.3362 C 31.277 32.7641 31.7065 31.9578 32.0874 31.176 C 32.4515 30.4278 32.6638 29.6056 32.837 28.7911 C 33.031 27.8803 33.2138 26.9483 33.1845 26.0177 C 33.1571 25.161 33.0383 24.2683 32.6666 23.4964 C 32.2258 22.5811 31.5085 21.8116 30.8063 21.0773 C 30.186 20.4295 29.4907 19.8337 28.7212 19.3738 C 27.9312 18.9022 27.0616 18.544 26.1726 18.3108 C 25.3517 18.0947 24.4847 17.9815 23.6378 18.0382 C 22.854 18.0906 22.0758 18.3188 21.355 18.631 C 20.5429 18.9838 19.7475 19.4267 19.0858 20.0143 C 17.9158 21.0523 16.6564 22.0978 15.9036 23.4691 C 15.562 24.0924 15.6287 25.0075 16.0194 25.602 C 16.3871 26.1631 17.1856 26.3606 17.8525 26.4401 C 18.5919 26.5289 19.3742 26.3744 20.0603 26.0858 C 20.7209 25.8081 21.3038 25.3278 21.7775 24.7911 C 22.4057 24.0797 22.852 23.22 23.3175 22.3925 C 23.6461 21.8071 24.0066 21.2139 24.1556 20.5595 C 24.4756 19.1579 25.1161 17.6601 24.7144 16.2801 C 24.2162 14.5701 22.9865 13.0662 21.6344 11.9054 C 20.4902 10.9231 18.9464 10.4757 17.4913 10.0792 C 16.8049 9.8917 16.0502 10.3086 15.3584 10.195 C 15.178 10.1655 15.7469 9.793 15.7469 9.793 "/>
      <path id="ID0.49125002324581146" fill="#FFFF00" stroke="#000000" stroke-width="1.0000000184803375" stroke-linecap="round" d="M 12.0433 3.6499 C 13.853 4.2187 15.2495 5.5087 16.0426 7.1343 C 16.8369 8.7592 17.0279 10.7197 16.4283 12.6277 C 15.8286 14.5357 14.5505 16.0344 12.9694 16.9127 C 11.3889 17.7924 9.5056 18.0516 7.6958 17.4828 C 5.8861 16.9141 4.4897 15.624 3.6966 13.9984 C 2.9022 12.3735 2.7112 10.4131 3.3109 8.5051 C 3.9105 6.5971 5.1887 5.0984 6.7698 4.22 C 8.3502 3.3404 10.2336 3.0811 12.0433 3.6499 Z "/>
    </g>
    <g id="ID0.0817991429939866">
      <path id="ID0.11865589488297701" fill="none" stroke="#000000" stroke-width="1" stroke-linecap="round" d="M 65.75 45 C 65.75 45 66.037 41.619 66.5 40 C 66.716 39.245 67.217 38.577 67.75 38 C 68.236 37.474 68.868 37.087 69.5 36.75 C 70.128 36.415 70.805 35.851 71.5 36 C 72.191 36.148 72.762 36.835 73 37.5 C 73.226 38.132 73.363 39.227 72.75 39.5 C 71.457 40.075 69.863 39.882 68.5 39.5 C 67.648 39.261 67.023 38.464 66.5 37.75 C 66.079 37.176 65.923 36.44 65.75 35.75 C 65.587 35.099 65.458 34.42 65.5 33.75 C 65.543 33.065 65.693 32.364 66 31.75 C 66.372 31.005 66.934 30.36 67.5 29.75 C 68.022 29.188 68.631 28.704 69.25 28.25 C 69.883 27.786 70.53 27.315 71.25 27 C 71.879 26.725 72.565 26.543 73.25 26.5 C 73.92 26.458 74.613 26.538 75.25 26.75 C 75.887 26.962 76.525 27.275 77 27.75 C 77.475 28.225 77.911 28.835 78 29.5 C 78.091 30.18 78.01 31.041 77.5 31.5 C 77.001 31.949 76.167 31.828 75.5 31.75 C 74.716 31.658 73.92 31.419 73.25 31 C 72.551 30.563 71.881 29.981 71.5 29.25 C 70.854 28.013 70.25 26.646 70.25 25.25 C 70.25 23.614 70.82 21.988 71.5 20.5 C 72.172 19.03 73.107 17.643 74.25 16.5 C 74.753 15.997 75.55 15.874 76.25 15.75 C 76.988 15.62 77.762 15.62 78.5 15.75 C 79.2 15.874 79.976 16.019 80.5 16.5 C 81.049 17.003 81.454 17.757 81.5 18.5 C 81.544 19.21 81.301 20.05 80.75 20.5 C 80.231 20.925 79.421 20.75 78.75 20.75 C 77.996 20.75 77.174 20.837 76.5 20.5 C 75.763 20.131 75.207 19.436 74.75 18.75 C 74.355 18.158 74.124 17.45 74 16.75 C 73.87 16.012 73.87 15.238 74 14.5 C 74.124 13.8 74.401 13.12 74.75 12.5 C 75.158 11.774 75.684 11.11 76.25 10.5 C 76.772 9.938 77.323 9.361 78 9 C 78.606 8.677 79.355 8.735 80 8.5 C 80.282 8.397 80.75 8 80.75 8 "/>
      <path id="ID0.46783466916531324" fill="#FFFF00" stroke="#000000" stroke-width="1" d="M 82.25 0.75 C 84.043 0.75 85.668 1.492 86.845 2.692 C 88.022 3.891 88.75 5.547 88.75 7.375 C 88.75 9.203 88.022 10.859 86.845 12.058 C 85.668 13.258 84.043 14 82.25 14 C 80.457 14 78.832 13.258 77.655 12.058 C 76.478 10.859 75.75 9.203 75.75 7.375 C 75.75 5.547 76.478 3.891 77.655 2.692 C 78.832 1.492 80.457 0.75 82.25 0.75 Z "/>
    </g>
  </g>
</svg>