<svg xmlns="http://www.w3.org/2000/svg" xmlns:xlink="http://www.w3.org/1999/xlink" version="1.1" width="149.48651123046875" height="144.65245056152344" viewBox="0.2149999737739563 -0.18844223022460938 149.48651123046875 144.65245056152344">
  <!-- Exported by Scratch - http://scratch.mit.edu/ -->
  <g id="ID0.16783336643129587">
    <g id="Page-1">
      <g id="dinosaur4-b-[animals,dinosaur,tyrannosaurus,t-rex,trex,alex-eben-meyer]">
        <path id="Shape" fill="#A0AA1E" stroke="none" stroke-width="1" d="M 68.184 111.931 L 81.639 113.84 C 81.706 118.098 81.017 124.094 78.593 127.534 C 76.257 130.899 72.831 133.355 68.894 134.485 C 66.868 135.046 64.772 134.822 62.705 134.9 C 60.804 134.975 59.244 134.485 57.418 134.701 C 57.314 135.419 57.293 139.229 56.089 138.585 C 56.484 135.813 56.94 130.016 56.94 130.016 C 56.94 130.016 63.461 129.153 67.395 126.148 C 71.172 123.281 70.923 116.11 68.184 111.931 Z "/>
        <path id="Shape" fill="#828C00" stroke="none" stroke-width="1" d="M 92.918 100.291 L 108.274 100.407 C 104.56 118.562 101.31 138.955 100.941 142.735 C 102.082 143.15 103.174 142.802 104.228 142.897 C 104.261 143.275 104.29 143.574 104.323 143.964 C 102.821 143.868 96.396 144.084 94.873 143.665 C 94.885 142.391 92.918 100.291 92.918 100.291 Z "/>
        <path id="Shape" fill="#828C00" stroke="none" stroke-width="1" d="M 22.542 113.4 C 30.324 117.82 43.137 118.757 43.137 118.757 C 43.137 118.757 56.891 79.989 54.372 79.952 C 52.745 79.927 46.777 85.11 35.359 87.683 C 29.063 89.103 16.607 88.986 14.881 88.957 C 12.39 88.92 9.9 88.874 7.435 88.87 C 5.775 88.87 2.201 88.198 0.715 89.007 C 1.109 91.352 8.348 105.345 22.542 113.4 Z "/>
        <path id="Shape" fill="#A0AA1E" stroke="none" stroke-width="1" d="M 42.651 111.632 C 42.78 102.229 42.315 89.293 49.707 82.168 C 51.064 80.861 52.932 80.093 54.38 79.01 C 56.588 77.35 59.195 76.138 61.436 74.491 C 62.162 73.964 63.598 72.748 63.598 72.748 L 66.338 71.291 L 66.226 68.748 C 66.226 68.748 68.106 63.614 68.413 61.925 C 70.43 50.899 68.305 39.516 70.368 28.469 C 70.592 27.257 70.866 25.946 71.148 24.713 L 101.699 20.858 L 133.13 22.933 C 136.787 25.655 132.686 29.382 129.669 30.818 C 127.892 31.669 126.245 32.478 124.73 33.777 C 124.402 34.059 121.654 36.163 120.745 38.856 C 119.363 42.969 119.733 48.471 119.637 51.14 C 119.459 56.165 119.741 61.24 119.932 66.262 C 120.31 76.201 120.716 85.766 119.214 95.643 C 118.529 100.162 117.79 104.453 115.022 108.209 C 112.117 112.147 108.668 115.396 103.969 117.089 C 99.068 118.853 86.953 119.517 74.228 119.521 C 64.403 119.521 53.002 119.056 51.749 118.928 C 48.761 118.62 45.631 119.118 42.676 118.745 C 42.244 116.546 42.618 113.881 42.651 111.632 Z "/>
        <path id="Shape" fill="#A0AA1E" stroke="none" stroke-width="1" d="M 130.192 49.218 C 129.599 49.218 129.893 46.264 129.516 46.264 C 129.138 46.264 129.304 49.135 128.627 49.09 C 127.951 49.044 128.374 46.351 127.743 46.351 C 127.112 46.351 127.706 52.032 127.681 53.667 C 127.644 55.879 127.739 58.099 127.644 60.307 C 127.557 62.282 127.262 64.241 126.249 65.971 C 125.66 66.98 121.978 69.553 118.052 69.872 C 114.059 70.2 109.814 68.27 108.751 68.461 C 108.815 69.814 108.799 71.169 108.705 72.52 L 109.033 73.088 C 110.361 73.171 113.881 74.682 118.799 74.283 C 122.219 74.01 126.233 72.163 127.013 71.644 C 129.69 69.868 130.84 66.814 131.01 63.921 C 131.172 61.186 131.238 58.431 131.313 55.688 C 131.379 53.248 131.923 46.936 131.313 46.766 C 130.703 46.596 130.781 49.218 130.192 49.218 Z "/>
        <path id="Shape" fill="#828C00" stroke="none" stroke-width="1" d="M 85.374 48.803 C 84.78 48.803 85.075 45.849 84.697 45.849 C 84.319 45.849 84.485 48.72 83.809 48.675 C 83.132 48.629 83.556 45.936 82.925 45.936 C 82.294 45.936 82.887 51.617 82.863 53.252 C 82.825 55.464 82.921 57.684 82.825 59.892 C 82.738 61.867 82.443 63.826 81.431 65.556 C 80.841 66.565 77.16 69.138 73.234 69.457 C 70.871 69.661 68.491 69.416 66.219 68.735 L 63.592 72.736 C 63.592 72.736 69.062 74.267 73.968 73.868 C 77.388 73.595 81.024 72.242 81.792 71.723 C 84.469 69.943 86.009 66.399 86.179 63.506 C 86.341 60.771 86.407 58.016 86.482 55.273 C 86.548 52.833 87.092 46.521 86.482 46.351 C 85.872 46.181 85.963 48.803 85.374 48.803 Z "/>
        <g id="Group">
          <g id="Group-2">
            <path id="Shape" fill="#FFFFFF" stroke="none" stroke-width="1" d="M 116.299 22.049 C 115.818 24.386 115.826 29.013 118.876 29.643 L 119.997 29.116 C 121.416 26.992 121.657 24.693 121.732 22.215 C 119.897 21.958 118.171 22.182 116.299 22.049 Z "/>
            <path id="Shape" fill="#FFFFFF" stroke="none" stroke-width="1" d="M 126.943 21.169 L 123.416 21.169 C 120.734 30.129 128.844 30.689 126.943 21.169 Z "/>
            <path id="Shape" fill="#DCD2B4" stroke="none" stroke-width="1" d="M 114.502 19.808 L 110.974 19.808 C 108.293 28.772 116.403 29.328 114.502 19.808 Z "/>
            <path id="Shape" fill="#FFFFFF" stroke="none" stroke-width="1" d="M 109.362 19.236 L 105.83 19.236 C 103.149 28.195 111.259 28.755 109.362 19.236 Z "/>
            <path id="Shape" fill="#FFFFFF" stroke="none" stroke-width="1" d="M 104.289 18.377 L 100.757 18.377 C 98.064 27.336 106.17 27.896 104.289 18.377 Z "/>
            <path id="Shape" fill="#FAF0E6" stroke="none" stroke-width="1" d="M 132.139 20.381 L 128.607 20.381 C 125.926 29.345 134.036 29.901 132.139 20.381 Z "/>
            <path id="Shape" fill="#828C00" stroke="none" stroke-width="1" d="M 97.341 0.528 C 99.993 0.399 102.653 0.457 105.31 0.37 C 111.27 0.171 129.162 0.495 132.142 1.117 C 134.703 1.646 137.147 2.63 139.36 4.022 C 143.577 6.657 146.092 12.131 146.353 16.991 C 146.474 19.26 145.909 21.887 143.805 23.132 C 141.472 24.51 137.994 23.962 135.425 24.033 C 128.785 24.174 122.144 24.261 115.503 24.17 L 71.152 24.722 C 72.006 20.781 73.268 16.94 74.916 13.26 C 76.919 8.796 80.503 5.231 84.977 3.25 C 88.509 1.619 96.287 0.582 97.341 0.528 Z "/>
            <path id="Shape" fill="#645A1E" stroke="none" stroke-width="1" d="M 138.344 20.634 C 138.937 22.033 141.029 22.979 141.929 21.298 C 142.955 19.393 140.954 18.235 139.389 18.235 C 138.852 18.938 138.493 19.762 138.344 20.634 Z "/>
            <path id="Shape" fill="#645A1E" stroke="none" stroke-width="1" d="M 132.35 17.916 L 131.25 18.746 C 130.387 20.277 131.827 22.717 133.62 21.543 C 135.322 20.443 134.151 17.887 132.35 17.916 Z "/>
            <path id="Shape" fill="#000000" stroke="none" stroke-width="1" d="M 148.859 14.169 C 149.153 13.666 149.523 12.305 148.697 12.123 C 148.331 12.352 148.124 12.765 148.158 13.195 C 148.192 13.624 148.462 14 148.859 14.169 Z "/>
            <path id="Shape" fill="#000000" stroke="none" stroke-width="1" d="M 105.336 14.546 C 106.581 16.206 107.78 13.583 106.448 13.023 C 105.73 13.239 105.386 13.7 105.336 14.546 Z "/>
          </g>
        </g>
      </g>
    </g>
  </g>
</svg>