<svg xmlns="http://www.w3.org/2000/svg" xmlns:xlink="http://www.w3.org/1999/xlink" width="68.39794384765625" height="131.59658276367188" viewBox="0.7849687967300415 0.1785 68.39794384765625 131.59658276367188" version="1.1" xml:space="preserve">
  <!-- Generator: Sketch 50.2 (55047) - http://www.bohemiancoding.com/sketch -->
  <defs/>
  <g>
    <title>Slice 1</title>
    <desc>Created with Sketch.</desc>
    <g id="Page-1" stroke="none" fill-rule="evenodd">
      <g id="pants-b-[people,fashion,pants]">
        <g id="Color" fill-rule="nonzero">
          <path d="M 6.3782 41.3774 C 6.3782 31.225 8.7736 15.9964 10.3964 6.6024 L 7.3055 6.6024 C 4.9435 14.5877 3.3495 22.781 2.5455 31.0702 C 0.8609 47.9857 1.85 81.0429 2.3909 93.1452 C 3.2409 112.0417 7.2745 123.169 7.2745 123.169 L 10.3655 123.169 C 4.9718 92.0155 6.2545 66 6.3782 41.3774 Z " id="Shape" fill="#EAADCB" stroke-width="1"/>
          <path d="M 67.4545 31.0702 C 66.6658 22.7886 65.1137 14.5977 62.8182 6.6024 L 59.5727 6.6024 C 61.2264 16.0119 63.6373 31.225 63.8691 41.3774 C 64.2864 59.4226 63.8691 90.5762 61.35 123.169 L 64.2091 123.169 C 66.1546 113.2705 67.2865 103.229 67.5936 93.1452 C 68.1345 81.0429 69.0773 47.9857 67.4545 31.0702 Z " id="Shape" fill="#FCDBEB" stroke-width="1"/>
          <path d="M 63.7764 41.3774 C 63.5445 31.225 61.1336 16.0119 59.48 6.6024 L 10.3964 6.6024 C 8.8509 15.9964 6.44 31.225 6.3782 41.3774 C 6.2545 66 4.9718 92.0155 10.4273 123.169 L 25.2173 123.169 C 28.0558 113.4347 29.6857 103.3872 30.07 93.2536 C 30.5955 82.1262 32.7745 54.95 33.3309 34.444 L 36.7155 34.444 C 38.2609 53.1238 40.0073 79.325 40.9345 93.2536 C 41.5273 103.44 43.3752 113.514 46.4364 123.2464 L 61.2727 123.2464 C 63.8073 90.5762 64.1936 59.4226 63.7764 41.3774 Z " id="Shape" fill="#F7C1D8" stroke-width="1"/>
        </g>
        <polygon id="Shape" stroke="#DA53D6" stroke-width="1.24" fill="#DA53D6" fill-rule="nonzero" stroke-linecap="round" stroke-linejoin="round" points="61.3060479 0 33.9922404 0 7.08193229 0 6.18181818 6.19047619 61.8181818 6.19047619" transform="matrix(1,0,0,1,1,1)"/>
        <g id="Bow" stroke-linecap="round" stroke-linejoin="round" stroke="#DB20A5">
          <path d="M 35.5255 15.0679 C 33.5532 12.9877 30.832 11.784 27.9682 11.725 C 26.346 11.7259 24.9838 12.9481 24.8055 14.5627 C 24.6273 16.1774 25.6899 17.6681 27.2727 18.0238 C 31.1364 19.0762 35.5255 15.0679 35.5255 15.0679 Z " id="Shape" stroke-width="1.643" fill="none"/>
          <path d="M 35.5255 15.0679 C 35.5255 15.0679 35.3091 20.5155 30.0236 27.0774 " id="Shape" stroke-width="1.643" fill="none"/>
          <path d="M 35.5255 15.0679 C 37.4977 12.9877 40.2189 11.784 43.0827 11.725 C 44.8325 11.5412 46.3997 12.8127 46.5832 14.5649 C 46.7667 16.3171 45.497 17.8865 43.7473 18.0702 C 39.9145 19.0762 35.5255 15.0679 35.5255 15.0679 Z " id="Shape" stroke-width="1.643" fill="none"/>
          <path d="M 35.5255 15.0679 C 35.5255 15.0679 35.7418 20.5155 41.0273 27.0774 " id="Shape" stroke-width="1.643" fill="none"/>
        </g>
        <g id="Outline" stroke-linecap="round" stroke-linejoin="round" stroke="#DA53D6">
          <polygon id="Shape" fill="#F7C1D8" fill-rule="nonzero" points="23.0890909 125.310714 7.24818182 125.310714 6.32090909 117.52619 24.2172727 117.52619" stroke-width="1.24" transform="matrix(1,0,0,1,1,5.642857)"/>
          <polygon id="Shape" fill="#F7C1D8" fill-rule="nonzero" points="62.4827273 125.310714 46.24 125.310714 45.4363636 117.52619 63.2090909 117.52619" stroke-width="1.24" transform="matrix(1,0,0,1,1,5.642857)"/>
          <path d="M 29.3591 34.3821 L 40.6873 34.3821 " id="Shape" fill="#F7C1D8" fill-rule="nonzero" stroke-width="1.24"/>
          <path d="M 67.4545 31.0702 C 66.6658 22.7886 65.1137 14.5977 62.8182 6.6024 L 7.3209 6.6024 C 4.9537 14.5872 3.3546 22.7805 2.5455 31.0702 C 0.8609 47.9857 1.85 81.0429 2.3909 93.1452 C 3.2409 112.0417 7.2745 123.169 7.2745 123.169 L 25.2173 123.169 C 28.0558 113.4347 29.6857 103.3872 30.07 93.2536 C 30.5955 82.1262 32.7745 54.95 33.3309 34.444 L 36.7155 34.444 C 38.2609 53.1238 40.0073 79.325 40.9345 93.2536 C 41.5273 103.44 43.3752 113.514 46.4364 123.2464 L 64.2091 123.2464 C 66.1546 113.3479 67.2865 103.3063 67.5936 93.2226 C 68.1345 81.0429 69.0773 47.9857 67.4545 31.0702 Z " id="Shape" stroke-width="1.24" fill="none"/>
        </g>
        <path d="M 19.589 72.1905 C 20.5389 73.1038 21.1037 74.6442 21.0907 76.2862 C 20.974 77.7679 20.4087 79.1004 19.5455 79.9286 " id="Shape" stroke="#EA9DC5" stroke-width="1.24" stroke-linecap="round" stroke-linejoin="round" fill="none"/>
        <path d="M 53.5455 72.1905 C 54.5121 73.0892 55.0943 74.6322 55.0909 76.2862 C 54.9741 77.7679 54.4088 79.1004 53.5455 79.9286 " id="Shape" stroke="#EA9DC5" stroke-width="1.24" stroke-linecap="round" stroke-linejoin="round" fill="none"/>
      </g>
    </g>
  </g>
</svg>