<svg version="1.1" xmlns="http://www.w3.org/2000/svg" xmlns:xlink="http://www.w3.org/1999/xlink" width="122.12791" height="106.54923" viewBox="0,0,122.12791,106.54923"><g transform="translate(-180.93394,-127.80874)"><g data-paper-data="{&quot;isPaintingLayer&quot;:true}" fill-rule="nonzero" stroke-miterlimit="10" stroke-dasharray="" stroke-dashoffset="0" style="mix-blend-mode: normal"><g data-paper-data="{&quot;origPos&quot;:null,&quot;index&quot;:null}" stroke-linejoin="round"><path d="M281.44506,188.42894c6.77713,-0.40053 5.41376,-2.54665 10.60648,-2.68582c4.81335,-0.12901 10.42249,2.14314 10.81348,6.00411c0.32766,3.23547 -2.72617,9.04655 -13.11481,9.94779c-3.52448,0.30576 -5.15336,-1.22387 -8.37305,-1.43074c-7.04926,0.18892 -16.50737,2.16296 -16.95044,-6.46622c-0.47299,-9.21202 17.01835,-5.36912 17.01835,-5.36912z" data-paper-data="{&quot;origPos&quot;:null,&quot;index&quot;:null,&quot;origRot&quot;:0}" fill="#1e1c1d" stroke="none" stroke-width="0" stroke-linecap="butt"/><path d="M281.44502,188.42894c7.01521,0.09835 5.13942,-2.00443 10.60648,-2.68582c1.87955,-0.23425 5.99793,0.69036 8.70896,3.24158c0.30597,1.06875 0.22536,1.54071 0.35532,2.82401c0.17545,1.73251 0.53528,2.57076 -0.0829,4.02613c-2.9061,3.6727 -5.96161,5.39858 -11.28271,5.86019c-1.85427,0.09601 -5.23458,-1.41164 -8.45427,-1.61851c-6.38498,-0.38818 -16.20496,1.30222 -16.33731,-5.99019c-0.16291,-8.39372 16.48643,-5.65737 16.48643,-5.65737z" data-paper-data="{&quot;origPos&quot;:null,&quot;index&quot;:null,&quot;origRot&quot;:0}" fill="#ebe2d0" stroke="none" stroke-width="0" stroke-linecap="butt"/><path d="M275.15744,199.82565c-5.31508,0.19411 -10.25316,-2.46361 -10.263,-5.32482c-0.01523,-4.43272 5.55468,-6.26446 9.98245,-6.47434c3.97048,-0.1882 6.48834,1.78467 9.21507,1.45399c3.83698,-0.46533 6.03961,-2.29667 10.85882,-2.00737c3.1963,0.19188 5.01195,1.57688 5.28854,4.76698c0.37173,4.2875 -2.82889,6.50436 -7.1762,7.18335c-2.98089,0.46557 -6.14756,-1.81069 -9.4749,-1.5222c0,0 -4.6291,1.78558 -8.43079,1.92442z" data-paper-data="{&quot;origPos&quot;:null}" fill="#c99638" stroke="none" stroke-width="0" stroke-linecap="butt"/><path d="M283.30194,196.29815c0.0238,0.4787 -5.08123,2.32256 -5.9826,2.58831c-1.5922,0.46943 -11.53232,-0.27686 -11.58894,-4.55476c0.07584,-4.71299 11.08821,-5.58174 11.52054,-5.36066c2.19302,1.12145 5.65595,1.32772 5.60588,2.19199c-0.11645,2.01013 0.34509,3.12409 0.44512,5.13511z" data-paper-data="{&quot;origPos&quot;:null,&quot;index&quot;:null}" fill="#1e1c1d" stroke="none" stroke-width="0" stroke-linecap="round"/><path d="M295.39932,197.55519c-3.33348,0.33016 -7.72977,-1.85349 -7.72977,-1.85349c-5.2106,0.06136 -4.79094,1.52021 -8.22231,2.29044c-1.13305,0.25433 -2.58867,-0.04443 -2.55571,-1.20519c0.04674,-1.64569 2.86469,0.49019 2.81462,-2.63207c-0.05081,-3.16847 -1.94354,-1.6632 -2.08445,-3.72471c-0.05737,-0.8393 1.21501,-0.68981 2.03413,-0.49807c3.46429,0.81095 3.04334,1.63692 8.83566,1.06404c2.62298,-0.25943 2.39174,-1.49479 5.77027,-1.90516c2.35074,-0.28552 4.84887,0.14243 4.91135,3.45299c0.06249,3.31058 -1.48644,4.78466 -3.77381,5.0112z" data-paper-data="{&quot;origPos&quot;:null}" fill="#ebe2d0" stroke="none" stroke-width="1" stroke-linecap="round"/><path d="M291.4141,189.4988c0,0 0.8214,2.44799 0.93102,4.00933c0.10614,1.51181 -0.52383,3.68306 -0.52383,3.68306l-2.39409,-7.39024l-1.87105,7.63017l-2.28195,-7.59479l-2.04765,7.84029c0,0 0.69874,-2.38423 0.65281,-3.91026c-0.04841,-1.60834 -0.89458,-4.12117 -0.89458,-4.12117l2.55653,7.76579l1.41429,-7.65551l2.99653,7.59778z" data-paper-data="{&quot;origPos&quot;:null}" fill="none" stroke="#c99638" stroke-width="1" stroke-linecap="round"/></g><g data-paper-data="{&quot;origPos&quot;:null}" stroke-linejoin="round"><path d="M281.61852,174.26123c0,0 -17.49134,3.8429 -17.01835,-5.36912c0.44307,-8.62918 9.90118,-6.65514 16.95044,-6.46622c3.21969,-0.20687 4.84857,-1.7365 8.37305,-1.43074c10.38864,0.90124 13.44247,6.71232 13.11481,9.94779c-0.39099,3.86097 -6.00013,6.13312 -10.81348,6.00411c-5.19272,-0.13917 -3.82935,-2.28529 -10.60648,-2.68582z" data-paper-data="{&quot;origPos&quot;:null,&quot;index&quot;:null,&quot;origRot&quot;:0}" fill="#1e1c1d" stroke="none" stroke-width="0" stroke-linecap="butt"/><path d="M281.61847,174.26121c0,0 -16.64934,2.73635 -16.48643,-5.65737c0.13235,-7.29241 9.95233,-5.60201 16.33731,-5.99019c3.21969,-0.20687 6.6,-1.71452 8.45427,-1.61851c5.3211,0.46161 8.37661,2.18749 11.28271,5.86019c0.61818,1.45537 0.25835,2.29362 0.0829,4.02613c-0.12996,1.2833 -0.04935,1.75526 -0.35532,2.82401c-2.71103,2.55122 -6.82941,3.47583 -8.70896,3.24158c-5.46706,-0.68139 -3.59127,-2.78417 -10.60648,-2.68582z" data-paper-data="{&quot;origPos&quot;:null,&quot;index&quot;:null,&quot;origRot&quot;:0}" fill="#ebe2d0" stroke="none" stroke-width="0" stroke-linecap="butt"/><path d="M275.33088,162.86451c3.80169,0.13884 8.43079,1.92442 8.43079,1.92442c3.32734,0.28849 6.49401,-1.98777 9.4749,-1.5222c4.34731,0.67899 7.54793,2.89585 7.1762,7.18335c-0.27659,3.1901 -2.09224,4.5751 -5.28854,4.76698c-4.81921,0.2893 -7.02184,-1.54204 -10.85882,-2.00737c-2.72673,-0.33068 -5.24459,1.64219 -9.21507,1.45399c-4.42777,-0.20988 -9.99768,-2.04162 -9.98245,-6.47434c0.00984,-2.86121 4.94792,-5.51893 10.263,-5.32482z" data-paper-data="{&quot;origPos&quot;:null}" fill="#c99638" stroke="none" stroke-width="0" stroke-linecap="butt"/><path d="M283.47539,166.39203c-0.10002,2.01102 -0.56157,3.12497 -0.44512,5.1351c0.05007,0.86428 -3.41285,1.07054 -5.60587,2.19199c-0.43232,0.22108 -11.4447,-0.64767 -11.52054,-5.36065c0.05662,-4.2779 9.99674,-5.02419 11.58894,-4.55476c0.90137,0.26575 6.0064,2.10961 5.98259,2.58831z" data-paper-data="{&quot;origPos&quot;:null,&quot;index&quot;:null}" fill="#1e1c1d" stroke="none" stroke-width="0" stroke-linecap="round"/><path d="M295.57275,165.135c2.28737,0.22654 3.8363,1.70062 3.77381,5.0112c-0.06248,3.31056 -2.56061,3.73851 -4.91135,3.45299c-3.37853,-0.41037 -3.14729,-1.64573 -5.77027,-1.90516c-5.79232,-0.57288 -5.37137,0.25309 -8.83566,1.06404c-0.81912,0.19174 -2.0915,0.34123 -2.03413,-0.49807c0.14091,-2.06151 2.03364,-0.55624 2.08445,-3.72471c0.05007,-3.12226 -2.76788,-0.98638 -2.81462,-2.63207c-0.03296,-1.16076 1.42266,-1.45952 2.55571,-1.20519c3.43137,0.77023 3.01171,2.22908 8.22231,2.29044c0,0 4.39629,-2.18365 7.72977,-1.85349z" data-paper-data="{&quot;origPos&quot;:null}" fill="#ebe2d0" stroke="none" stroke-width="1" stroke-linecap="round"/><path d="M290.12558,165.33692l-2.99653,7.59778l-1.41429,-7.65551l-2.55653,7.76579c0,0 0.84617,-2.51283 0.89458,-4.12117c0.04593,-1.52603 -0.65281,-3.91026 -0.65281,-3.91026l2.04765,7.84029l2.28195,-7.59479l1.87105,7.63017l2.39409,-7.39024c0,0 0.62997,2.17125 0.52383,3.68306c-0.10962,1.56134 -0.93102,4.00933 -0.93102,4.00933z" data-paper-data="{&quot;origPos&quot;:null}" fill="none" stroke="#c99638" stroke-width="1" stroke-linecap="round"/></g><path d="M285.26905,197.07386c0.02826,0.56814 -6.03201,2.75649 -7.10204,3.07189c-1.89013,0.55713 -13.69022,-0.32859 -13.75743,-5.40573c0.09003,-5.59352 13.16301,-6.62458 13.67623,-6.36219c2.60338,1.33097 6.71427,1.57577 6.65483,2.60152c-0.13824,2.38569 0.40967,3.70776 0.52841,6.0945z" data-paper-data="{&quot;origPos&quot;:null,&quot;index&quot;:null}" fill="#1e1c1d" stroke="none" stroke-width="0" stroke-linecap="round" stroke-linejoin="round"/><path d="M287.64496,218.82954c3.41136,7.65793 -11.94717,10.25527 -18.39644,10.8445c-6.39225,0.58403 -16.68164,2.72401 -25.86548,-8.38174c-8.2823,-8.86542 22.12938,-8.33919 28.04553,-8.92865c5.91616,-0.58945 15.35316,4.52806 16.21639,6.46588z" data-paper-data="{&quot;origPos&quot;:null,&quot;origRot&quot;:0,&quot;index&quot;:null}" fill="#503929" stroke="none" stroke-width="0" stroke-linecap="butt" stroke-linejoin="miter"/><path d="M287.64496,143.34866c-0.86323,1.93782 -10.30023,7.05533 -16.21639,6.46588c-5.91615,-0.58946 -36.32783,-0.06323 -28.04553,-8.92865c9.18384,-11.10575 19.47323,-8.96577 25.86548,-8.38174c6.44927,0.58923 21.8078,3.18657 18.39644,10.8445z" data-paper-data="{&quot;origPos&quot;:null,&quot;origRot&quot;:0,&quot;index&quot;:null}" fill="#503929" stroke="none" stroke-width="0" stroke-linecap="butt" stroke-linejoin="miter"/><g data-paper-data="{&quot;origPos&quot;:null}" stroke="none" stroke-width="0" stroke-linecap="butt" stroke-linejoin="miter"><path d="M280.35778,154.02351c0,0 10.19309,13.33354 9.74711,29.29187c-0.44598,15.95834 -10.91542,24.87877 -10.91542,24.87877l-6.93226,5.51303c0,0 4.3316,16.47121 -7.57047,20.65079c-10.786,-5.81611 -32.74601,-0.51923 -31.99848,-57.31155c0.67738,-51.46299 24.52167,-45.3283 33.28198,-49.23768c10.16672,4.95725 6.92883,22.19472 6.92883,22.19472z" data-paper-data="{&quot;origPos&quot;:null,&quot;index&quot;:null}" fill="#3181b0"/><path d="M265.908,148.55653l11.16484,5.5758c0,0 9.74437,11.51163 9.42046,30.91169c-0.28942,17.33478 -13.02374,24.3495 -13.02374,24.3495l-10.86468,1.96343c0,0 15.67114,-7.92828 15.37214,-29.42797c-0.299,-21.49969 -12.06902,-33.37246 -12.06902,-33.37246z" data-paper-data="{&quot;origPos&quot;:null,&quot;index&quot;:null}" fill="#c99638"/></g><path d="M277.46322,147.39874c10.03584,-8.46687 17.84857,0.68183 7.94056,6.15377c-1.54995,4.0408 1.22634,2.96761 -5.08702,5.38602c-1.41475,3.86914 -3.61131,4.16665 -4.23295,4.21755c-2.77993,0.2276 -0.36133,-2.34933 -0.12672,-5.52095c0.23461,-3.17162 -2.14107,-6.63463 1.50613,-10.23639z" data-paper-data="{&quot;origPos&quot;:null,&quot;origRot&quot;:0,&quot;index&quot;:null}" fill="#7b5030" stroke="none" stroke-width="0" stroke-linecap="butt" stroke-linejoin="miter"/><path d="M234.2362,157.43822c-0.69253,-1.04329 0.72099,-9.67777 3.83333,-9.92857c2.11234,-0.08413 27.64115,6.30202 36.13678,3.22199c4.62923,-0.31605 10.00027,8.4219 10.00027,8.4219c0,0 -2.97555,2.60211 -18.75609,3.11803c-12.29131,0.40184 -30.02175,-3.9567 -31.21428,-4.83333z" data-paper-data="{&quot;origPos&quot;:null,&quot;origRot&quot;:0,&quot;index&quot;:null}" fill="#235163" stroke="none" stroke-width="0" stroke-linecap="round" stroke-linejoin="miter"/><path d="M273.95709,202.82802c-0.23461,-3.17162 -2.6532,-5.74855 0.12673,-5.52095c0.62164,0.05089 2.8182,0.34841 4.23295,4.21755c6.31336,2.41841 3.53707,1.34522 5.08702,5.38602c9.90801,5.47194 2.09528,14.62064 -7.94056,6.15377c-3.6472,-3.60176 -1.27152,-7.06477 -1.50613,-10.23639z" data-paper-data="{&quot;origPos&quot;:null,&quot;origRot&quot;:0,&quot;index&quot;:null}" fill="#7b5030" stroke="none" stroke-width="0" stroke-linecap="butt" stroke-linejoin="miter"/><path d="M234.23621,204.36825c1.19253,-0.87663 18.92297,-5.23517 31.21428,-4.83333c15.78054,0.51592 18.75609,3.11803 18.75609,3.11803c0,0 -5.37104,8.73795 -10.00027,8.4219c-8.49563,-3.08003 -34.02444,3.30612 -36.13678,3.22199c-3.11234,-0.2508 -4.52586,-8.88528 -3.83333,-9.92857z" data-paper-data="{&quot;origPos&quot;:null,&quot;origRot&quot;:0,&quot;index&quot;:null}" fill="#235163" stroke="none" stroke-width="0" stroke-linecap="round" stroke-linejoin="miter"/><path d="M287.85155,152.87151c0,0 -2.42894,4.52675 -5.88858,4.1412c-3.45965,-0.38555 -7.42704,-3.37124 -6.95397,-13.22727c0.34114,-7.10718 6.36376,-6.52418 9.21367,-7.93291c1.0971,-0.54233 4.30478,1.9692 4.13343,3.37491c-0.40003,2.71953 5.74378,5.69864 -0.50455,13.6441z" data-paper-data="{&quot;origPos&quot;:null,&quot;origRot&quot;:0,&quot;index&quot;:null}" fill="#7b5030" stroke="none" stroke-width="0" stroke-linecap="butt" stroke-linejoin="miter"/><path d="M279.45709,160.25119c-6.62504,1.69389 -15.32019,-7.09611 -3.0772,-11.42726c18.58706,-6.57545 9.38767,2.52116 8.77389,5.2629c-1.90799,5.18281 1.0201,4.44701 -5.69669,6.16436z" data-paper-data="{&quot;origPos&quot;:null,&quot;origRot&quot;:0,&quot;index&quot;:null}" fill="#7b5030" stroke="none" stroke-width="0" stroke-linecap="butt" stroke-linejoin="miter"/><path d="M287.53663,208.08716c6.55477,8.40507 0.48535,11.47223 0.98197,14.3318c0.22111,1.47774 -2.91445,4.08307 -4.03567,3.50271c-2.91255,-1.50752 -8.94362,-0.95519 -9.53382,-8.42136c-0.81845,-10.35389 3.06393,-13.44957 6.52667,-13.82003c3.46273,-0.37047 6.06086,4.40689 6.06086,4.40689z" data-paper-data="{&quot;origPos&quot;:null,&quot;origRot&quot;:0,&quot;index&quot;:null}" fill="#7b5030" stroke="none" stroke-width="0" stroke-linecap="butt" stroke-linejoin="miter"/><path d="M284.48709,207.70961c0.61378,2.74174 9.81317,11.83835 -8.77389,5.2629c-12.243,-4.33114 -3.54785,-13.12115 3.0772,-11.42726c6.71679,1.71735 3.7887,0.98155 5.69669,6.16436z" data-paper-data="{&quot;origPos&quot;:null,&quot;origRot&quot;:0,&quot;index&quot;:null}" fill="#7b5030" stroke="none" stroke-width="0" stroke-linecap="butt" stroke-linejoin="miter"/><g data-paper-data="{&quot;index&quot;:null,&quot;origPos&quot;:null}"><path d="M261.51752,199.40034c11.92638,2.64521 2.15814,17.23156 -4.12565,8.03724c5.75296,1.85037 -1.74846,8.7205 -4.0308,2.42218c12.31471,7.58716 -5.70431,18.7672 -9.89549,7.48525c4.91571,6.93912 -7.59563,7.49926 -5.35942,0.49599c6.94786,12.98496 -18.8988,13.82277 -13.62392,0.14045c1.66112,20.64394 -33.24279,8.09173 -17.17034,-6.95672c-1.0879,17.65374 -24.36819,-2.65834 -3.91443,-6.11481c-11.07783,18.92614 -25.15942,-9.75396 -8.28361,-9.17119c-6.58862,6.2121 -10.065,-7.01847 -1.38202,-5.03718c-13.68181,6.53099 -19.32169,-19.88881 -1.99108,-18.05394c-8.91351,-0.00479 -6.48835,-13.53047 2.96223,-11.26136c-11.24073,-4.77517 1.12163,-22.99582 8.19233,-8.26511c-13.86787,-7.76381 9.26268,-23.0748 11.58731,-7.46203c-8.58316,-7.11456 8.0801,-13.60809 6.8541,-3.44813c-5.884,-8.14602 12.97038,-14.09294 12.86696,-2.21327c-1.12989,-7.68411 13.84531,-6.70902 12.09967,1.05501c5.02657,-2.0375 8.72272,3.80633 4.08425,5.21308c0.75349,-5.26469 8.48045,0.03719 3.37159,1.96383c9.40116,-8.1635 20.20309,12.00594 5.65852,13.93798c3.55228,7.68984 3.97058,15.87964 2.09976,37.23273z" data-paper-data="{&quot;origPos&quot;:null}" fill="#000000" stroke="none" stroke-width="0" stroke-linecap="butt" stroke-linejoin="miter"/><path d="M273.68473,189.22126c-1.51866,3.97655 0.19679,4.97397 -3.92065,10.5357c-4.85314,5.11544 -7.43256,6.90707 -15.33505,7.30096c-7.91206,0.39436 -10.27851,7.96366 -12.50585,6.18381c-2.41684,-1.93128 6.68806,-6.06424 -2.15711,-3.99081c-8.84517,2.07343 -41.36893,7.70026 -41.16308,-27.66026c0.20717,-35.58673 32.01892,-30.55075 38.78841,-28.63118c10.7178,3.03917 2.54042,1.02687 5.43442,-2.90517c2.46536,-0.89235 5.78171,5.45779 12.70048,6.56048c6.91877,1.10269 11.57332,1.90764 14.76908,7.00454c3.06559,4.2874 2.11782,4.84988 3.30912,9.50794c0.73698,2.88161 2.25798,3.81676 2.27669,7.72818c0.01964,4.10459 -1.30943,6.04316 -2.19646,8.36581z" data-paper-data="{&quot;origPos&quot;:null}" fill="#7b5030" stroke="none" stroke-width="0" stroke-linecap="butt" stroke-linejoin="miter"/><path d="M239.97204,167.49372c6.2181,0.41987 8.48332,3.8825 4.49805,9.21155c8.59064,-3.65237 13.93931,11.62479 1.34993,12.23113c8.6855,3.20986 3.07579,9.9154 -1.90516,7.44806c12.05434,8.11035 -3.48143,19.35241 -16.00233,17.90117c-32.37052,-3.75193 -38.38807,-31.68982 -27.14854,-50.72102c13.10032,-22.18196 44.37981,-14.79461 47.13377,-5.29118c1.22265,5.56574 -3.27719,10.16474 -7.92569,9.22029z" data-paper-data="{&quot;origPos&quot;:null}" fill="#000000" stroke="none" stroke-width="0" stroke-linecap="butt" stroke-linejoin="miter"/><path d="M270.71728,174.54686c2.33747,0.54677 1.25554,4.23537 1.25554,4.23537c0,0 1.18413,0.72455 1.18413,2.66448c0,2.22229 -1.30636,2.74296 -1.30636,2.74296c0,0 0.70359,3.6017 -1.41893,3.64433" data-paper-data="{&quot;origPos&quot;:null,&quot;index&quot;:null}" fill="none" stroke="#503929" stroke-width="1.5" stroke-linecap="round" stroke-linejoin="round"/><g data-paper-data="{&quot;origPos&quot;:null}" fill="#000000" stroke="none" stroke-linejoin="miter"><path d="M260.14347,172.40153c0.90805,2.32403 1.19112,2.6799 1.19112,2.6799c0,0 -1.77432,0.57647 -2.53217,-1.36294c0.04336,-3.00745 -2.28469,-12.49504 -2.28469,-12.49504c0,0 1.26808,1.56027 1.91418,3.55218c0.76889,2.37048 1.71156,7.6259 1.71156,7.6259z" data-paper-data="{&quot;origPos&quot;:null,&quot;index&quot;:null}" stroke-width="0.5" stroke-linecap="butt"/><path d="M259.13065,199.47164c0,0 2.81613,-4.50655 2.87977,-6.71949c0.08209,-2.85493 -0.31998,-4.31967 -0.31998,-4.31967c0,0 2.63332,0.26751 2.54442,4.15969c-0.08891,3.89216 -5.1042,6.87948 -5.1042,6.87948z" data-paper-data="{&quot;origPos&quot;:null}" stroke-width="0" stroke-linecap="round"/><path d="M261.76275,174.03358c0,0 0.40209,-1.46475 0.31997,-4.31966c-0.06364,-2.21294 -2.87977,-6.71949 -2.87977,-6.71949c0,0 4.99512,3.52126 5.07187,6.87948c0.07675,3.35822 -2.51207,4.15968 -2.51207,4.15968z" data-paper-data="{&quot;origPos&quot;:null,&quot;index&quot;:null}" stroke-width="0" stroke-linecap="round"/><path d="M258.13246,197.86115c-0.6461,1.99191 -1.91418,3.55218 -1.91418,3.55218c0,0 2.32805,-9.48758 2.28469,-12.49504c0.75785,-1.93941 2.53217,-1.36294 2.53217,-1.36294c0,0 -0.28307,0.35588 -1.19112,2.6799c0,0 -0.94267,5.25543 -1.71156,7.6259z" data-paper-data="{&quot;origPos&quot;:null,&quot;index&quot;:null}" stroke-width="0.5" stroke-linecap="butt"/></g></g></g></g></svg>