<svg xmlns="http://www.w3.org/2000/svg" xmlns:xlink="http://www.w3.org/1999/xlink" width="197.3157958984375" height="182.2331085205078" viewBox="0.6629562377929688 -0.06837224960327148 197.3157958984375 182.2331085205078" version="1.1" xml:space="preserve">
  <!-- Generator: Sketch 52.4 (67378) - http://www.bohemiancoding.com/sketch -->
  <g>
    <title>Slice 1</title>
    <desc>Created with Sketch.</desc>
    <g id="Page-1" stroke="none" fill-rule="evenodd">
      <g id="dinosaur1-d-[animals,dinosaur,alex-eben-meyer,sauropod]">
        <g id="ID0.08085869019851089">
          <g id="dinosaurs">
            <g id="brontosaurus-d">
              <g id="scratch_dinos03d">
                <path d="M 166.892 132.29 C 166.095 128.625 163.498 124.35 159.804 122.705 C 154.791 120.485 139.021 119.115 130.474 121.495 L 130.885 135.45 C 139.407 134.095 152.811 131.63 154.039 137.785 C 154.25 143.31 149.528 146.615 149.528 146.615 C 149.528 146.615 154.576 152.945 157.222 155.415 C 163.353 150.815 168.576 140.08 166.892 132.29 Z " id="Shape" fill="#008264" stroke-width="1"/>
                <path d="M 77.555 137 C 77.555 137 74.913 172.385 74.046 181.5 C 75.55 181.95 85.154 181.35 86.678 181.215 C 88.738 176.095 92.433 135.6 92.433 135.6 L 77.555 137 Z " id="Shape" fill="#008264" stroke-width="1"/>
                <path d="M 34.716 67.335 C 37.518 67.17 37.223 76.39 35.473 86.65 C 34.546 92.045 32.621 100.15 31.819 102.075 C 29.403 107.82 26.741 113.355 23.869 118.885 C 22.756 121 16.976 133 15.427 142.08 C 14.239 149.035 16.666 153.68 18.806 154.455 C 23.743 156.245 29.182 156.875 32.13 153.645 C 33.157 152.52 37.358 145.035 39.283 138.705 C 42.842 127 44.511 113.465 45.534 111 C 47.108 107.17 57.138 120.885 61.123 127.305 C 56.472 136.58 52.827 164.685 33.463 174.115 C 24.44 178.52 9.623 173.9 4.535 165.185 C -0.658 156.28 0.725 142.05 4.78 132.555 C 9.628 121.21 15.457 110.445 21.362 99.555 C 30.691 82.385 30.44 67.585 34.716 67.335 Z " id="Shape" fill="#005A5A" stroke-width="1"/>
                <g id="Group-2">
                  <path d="M 187.735 117.5 C 187.84 117.755 188.351 120.145 188.401 120.27 C 187.223 127.645 178.827 127.16 172.937 126.085 C 165.453 124.725 160.977 119.53 158.074 112.825 L 187.735 117.5 Z " id="Shape" fill="#00A08C" stroke-width="1"/>
                  <path d="M 187.033 116.57 C 186.943 117.185 188.206 120.25 185.198 121.815 C 182.497 123.224 179.328 123.445 176.456 122.425 C 173.534 121.365 171.173 118.605 170.015 115.64 L 187.033 116.57 Z " id="Shape" fill="#000000" stroke-width="1"/>
                  <path d="M 181.975 117.875 C 181.975 117.875 181.474 119.95 180.973 120.565 C 180.238 121.389 178.999 121.527 178.1 120.885 C 176.807 119.98 177.012 117.96 177.012 117.96 L 181.975 117.875 Z " id="Shape" fill="#FFFFFF" stroke-width="1"/>
                </g>
                <path d="M 55.494 90.525 C 63.65 82.21 74.121 76.82 85.986 76.765 C 88.844 76.765 91.716 77.36 94.543 77.73 C 98.333 78.23 102.198 78.3 106.012 78.58 C 112.83 79.08 117.04 77.58 118.574 70.515 C 119.722 65.295 119.03 59.185 118.539 53.89 C 117.998 47.98 116.845 43.13 116.724 37.19 C 116.604 31.25 116.559 25.38 118.228 19.55 C 120.003 13.31 125.016 7.195 130.56 4.035 C 141.192 -2.03 154.195 -0.105 163.644 7.31 C 172.777 14.445 178.476 26.715 180.03 38 C 180.892 44.228 181.254 50.515 181.113 56.8 C 180.973 62.3 179.338 67.95 178.105 73.27 C 176.601 79.725 175.669 86.325 178.451 92.585 C 179.704 95.42 182.12 98.665 184.857 100.25 C 187.404 101.725 190.607 101.535 192.477 104.12 C 195.82 108.74 193.575 116.62 188.296 118.695 C 185.925 119.62 182.912 119.83 180.406 119.64 C 178.652 119.5 172.506 119 166.962 116.5 C 163.077 114.745 161.338 114.695 158.074 112.8 C 154.18 103.585 154.756 91.3 156.109 81.585 C 157.638 70.635 159.257 59.585 159.067 48.495 C 158.972 43.035 158.225 36.76 155.999 31.715 C 154.089 27.385 148.941 22.93 144.219 26.285 C 140.319 29.055 138.58 34.85 137.733 39.285 C 136.545 45.475 136.59 51.715 137.277 57.96 C 138.755 71.4 144.525 117.9 144.595 121.695 C 144.751 129.565 143.392 141.09 138.535 146.61 C 133.678 152.13 128.274 152.33 125.306 153.34 C 121.827 154.525 87.921 155.215 81.976 154.52 C 81.836 154.4 60.397 155.765 52.837 145.8 C 45.278 135.835 44.256 124.195 44.261 120.105 C 44.276 109.19 47.694 98.5 55.494 90.525 Z " id="Shape" fill="#00A08C" stroke-width="1"/>
                <path d="M 54.812 137 C 54.812 137 52.171 172.385 51.303 181.5 C 52.807 181.95 62.412 181.35 63.935 181.215 C 65.996 176.1 69.685 135.605 69.685 135.605 L 54.812 137 Z " id="Shape" fill="#00A08C" stroke-width="1"/>
                <g id="Group">
                  <path d="M 180.416 113.77 C 180.687 111.8 178.662 110.515 177.96 113.23 C 177.223 116.1 180.155 115.74 180.416 113.77 Z " id="Shape" fill="#005A5A" stroke-width="1"/>
                  <path d="M 190.722 113.5 C 190.993 111.53 188.968 110.245 188.266 112.96 C 187.529 115.845 190.452 115.5 190.722 113.5 Z " id="Shape" fill="#005A5A" stroke-width="1"/>
                  <path d="M 196.322 109.03 L 197.108 108.855 C 197.66 107.719 197.592 106.38 196.928 105.305 L 196.357 105.425 C 195.454 106.175 195.429 108.18 196.322 109.03 Z " id="Shape" fill="#000000" stroke-width="1"/>
                  <path d="M 162.14 108.85 L 162.927 108.675 C 163.48 107.539 163.414 106.201 162.751 105.125 L 162.175 105.245 C 161.278 106 161.247 108 162.14 108.85 Z " id="Shape" fill="#000000" stroke-width="1"/>
                </g>
                <path d="M 119.747 153.74 L 119.747 140.82 C 126.595 140.535 133.432 140.74 136.475 141.605 C 140.364 142.71 145.272 147.84 146.575 151.35 C 149.352 158.85 145.232 170.58 139.813 176 L 128.489 168.07 C 128.489 168.07 133.898 162.79 132.906 157.345 C 131.828 154.285 126.133 153.605 119.747 153.74 Z " id="Shape" fill="#00A08C" stroke-width="1"/>
              </g>
            </g>
          </g>
        </g>
      </g>
    </g>
  </g>
</svg>