<svg version="1.1" xmlns="http://www.w3.org/2000/svg" xmlns:xlink="http://www.w3.org/1999/xlink" width="95.38704" height="266.95362" viewBox="0,0,95.38704,266.95362"><g transform="translate(-206.13981,-46.18986)"><g data-paper-data="{&quot;isPaintingLayer&quot;:true}" fill="none" fill-rule="evenodd" stroke="none" stroke-width="none" stroke-linecap="none" stroke-linejoin="none" stroke-miterlimit="10" stroke-dasharray="" stroke-dashoffset="0" font-family="none" font-weight="none" font-size="none" text-anchor="none" style="mix-blend-mode: normal"><g id="Group-18" stroke="none" stroke-width="1" stroke-linecap="butt" stroke-linejoin="miter"><path d="M237.97181,126.49646c-1.112,-0.01599 -21.032,-19.80916 -21.032,-23.47042c0,-3.29353 6.04,-5.69174 13.2,-8.2818l2.12,-12.02299h12.8l1.368,11.65527c8.656,3.51737 13.112,3.64527 13.112,7.24257c0,3.97302 -20.224,24.89335 -21.568,24.87737z" id="Path" fill="#63493e"/><path d="M230.13981,94.74425l2.12,-12.015h12.8l0.872,7.41045c-5.944,-0.65551 -12.296,1.5988 -15.792,4.60455z" id="Path" fill="#49352c"/></g><path d="M239.52381,183.92544c-0.584,13.38997 -0.824,29.72174 -1.384,43.10371c-0.736,0.60754 -1.72,7.80216 -10.032,7.57832c-7.712,-0.2718 -7.104,-7.53835 -7.904,-8.33775c-0.376,-8.61754 -1.648,-30.0335 -1.776,-34.65404c0.12,-10.06446 5.544,-17.63479 12.056,-17.53886c4.456,0 7.136,4.62853 9.04,9.84862z" data-paper-data="{&quot;origPos&quot;:null}" id="Path" fill="#36445e" stroke="none" stroke-width="1" stroke-linecap="butt" stroke-linejoin="miter"/><path d="M247.25981,175.98814c6.216,-1.96653 13.536,-0.36772 16.528,9.22509c1.2,4.46066 6.56,28.3068 8.12,37.89961c0.296,1.7347 2.12,7.78617 -5.192,10.24033c-7.888,2.65401 -10.928,-3.99701 -11.728,-4.37272c-4.368,-12.67051 -9.16,-28.27482 -13.52,-40.94533c0.288,-5.53985 1.52,-10.71198 5.792,-12.04698z" data-paper-data="{&quot;origPos&quot;:null}" id="Path" fill="#36445e" stroke="none" stroke-width="1" stroke-linecap="butt" stroke-linejoin="miter"/><path d="M263.54781,190.51251c-0.08,4.53261 -18.808,-3.95704 -23.288,-3.99701c-4.68,-0.03997 -17.192,6.91482 -21.832,5.0682c0,-7.03473 1.856,-24.46168 6.912,-31.88012h35c1.224,4.06096 3.4,22.30329 3.208,30.80892z" id="Path" fill="#36445e" stroke="none" stroke-width="1" stroke-linecap="butt" stroke-linejoin="miter"/><g stroke="none" stroke-width="1" stroke-linecap="butt" stroke-linejoin="miter"><path d="M254.22781,102.33056c3.85686,-1.40952 8.16921,0.15958 10.216,3.71722l17.696,38.4512c1.464,2.87784 1.072,6.2753 -1.752,7.83413c0,0 -5.136,2.33425 -7.92,-1.9985l-19.128,-37.61183c-2.4,-3.71722 -2.032,-9.42494 0.888,-10.39222z" id="Path" fill="#705347"/><g id="Group-20"><path d="M258.49981,97.58212c5.528,1.5988 12.616,16.78743 14.4,21.24808l-11.432,14.20536c-6.288,-10.24033 -17.92,-38.8509 -2.968,-35.45344z" id="Path" fill="#6373ba"/><path d="M258.93981,130.38155l13.816,-14.53311l1.712,3.44542l-13.2,14.20536z" id="Path" fill="#e4b34e"/></g></g><g id="Group-11" stroke="none" stroke-width="1" stroke-linecap="butt" stroke-linejoin="miter"><path d="M264.37181,210.84928c-1.64545,0.56358 -3.32646,1.01757 -5.032,1.35898c-2.76242,0.56737 -5.58078,0.81681 -8.4,0.74344c-2.38529,-0.09392 -4.75108,-0.46958 -7.048,-1.11916c-0.97326,-0.21622 -1.93457,-0.48305 -2.88,-0.7994c-2.56653,-0.79501 -5.20642,-1.33063 -7.88,-1.5988c-0.744,-0.05596 -1.56,-0.15189 -2.464,-0.15189c-2.128,-0.05596 -1.6,0.03997 -4.528,0.47165c-2.68704,0.29889 -5.35146,0.77423 -7.976,1.42293c-1.344,-19.59332 -2.648,-31.20862 3.456,-51.09772c2.976,-9.68075 -0.352,-18.63404 -2.096,-30.46518l-4,-30.1774l14.744,-5.25207c1.304,14.20536 9.304,25.91659 9.304,25.91659c3.25642,-8.43204 5.54049,-17.20747 6.808,-26.15641c0,-0.03997 12.12,3.63728 12.12,3.63728c0,0 1.96,25.25308 0.584,37.2441c0.22736,9.54089 1.38212,19.03711 3.448,28.35476c3.456,16.23584 4.992,29.87362 7.032,44.81443c-0.336,0.15189 -4.744,2.70198 -5.192,2.85386z" id="Path" fill="#7390e1"/><path d="M269.50781,207.99542c-0.328,0.15189 -4.736,2.70198 -5.184,2.84587c-1.4,0.48764 -7.08,-51.8012 -7.08,-51.8012c-2.792,-15.95605 -1.504,-26.77994 -1.504,-26.77994c1.384,-4.02099 2.736,-34.63805 2.736,-34.63805c2.472,4.93231 2.848,8.64952 0.8,36.90835c0.16288,9.5317 1.23439,19.0262 3.2,28.35476c1.264,6.05946 5.672,32.34377 7.032,45.11021z" id="Path" fill="#6882cc"/><path d="M246.37981,93.94485l2.728,0.7994c-1.264,4.08494 -4.392,20.4247 -9.512,29.47392c-3.856,-6.01949 -9.344,-18.09045 -11.552,-29.2341c0.192,-0.10392 2.208,-0.7994 2.208,-0.7994c1.568,7.94605 6.888,20.33677 9.24,25.40497c4.984,-12.39072 5.768,-21.24808 6.888,-25.64479z" id="Path" fill="#e4b34e"/></g><g data-paper-data="{&quot;origPos&quot;:null}" stroke="none" stroke-width="1" stroke-linecap="butt" stroke-linejoin="miter"><path d="M255.87581,71.36976l-1.6,2.64602c-0.928,1.54284 -2.688,2.20635 -3.92,1.4709c-0.52,-0.3997 -0.6,-1.335 -0.08,-3.12566l1.072,-3.66126c0.28499,-0.74814 0.87787,-1.33791 1.62785,-1.61933c0.74998,-0.28141 1.5848,-0.22735 2.29215,0.14843c1.272,0.73545 1.496,2.59805 0.608,4.1409z" id="Path" fill="#553c2e"/><path d="M252.32881,77.67522l-1.0747,-0.10681l0.3658,-3.6751l1.0747,0.10681z" id="Rectangle" fill="#f17d70"/></g><g data-paper-data="{&quot;origPos&quot;:null}" stroke="none" stroke-width="1" stroke-linecap="butt" stroke-linejoin="miter"><path d="M222.40381,67.22886c0.70736,-0.37578 1.54218,-0.42984 2.29215,-0.14843c0.74998,0.28141 1.34285,0.87118 1.62785,1.61933l1.072,3.66126c0.52,1.79066 0.44,2.72596 -0.08,3.12566c-1.232,0.73545 -3,0.07195 -3.92,-1.4709l-1.6,-2.64602c-0.888,-1.54284 -0.632,-3.40545 0.608,-4.1409z" id="Path" fill="#553c2e"/><path d="M224.62281,74.0081l1.0747,-0.10681l0.3658,3.6751l-1.0747,0.10681z" id="Rectangle" fill="#f17d70"/></g><path d="M239.98781,89.48419h-3.776c-2.944,0 -9.208,-9.41695 -9.272,-11.33551l-3.128,-14.87686c0,-6.93081 7.768,-12.59856 14.704,-12.59856h0.424c6.936,0 14.704,5.66775 14.704,12.59856l-3.456,15.09269c-0.104,2.08644 -6.768,11.11967 -10.2,11.11967z" id="Path" fill="#705347" stroke="none" stroke-width="1" stroke-linecap="butt" stroke-linejoin="miter"/><path d="M240.27581,77.74898l-1.12,0.55159c-0.57585,0.27939 -1.24815,0.27939 -1.824,0l-1.12,-0.55159" id="Path" fill="none" stroke="#453226" stroke-width="0.776" stroke-linecap="round" stroke-linejoin="round"/><path d="M253.63581,63.27182l-1.144,5.00425h-1.496c0,0 -0.4,-11.6153 -12.272,-11.39147c-12.848,0.31976 -12.256,11.39147 -12.256,11.39147h-1.6l-1.048,-5.00425c0,-6.93081 7.768,-12.59856 14.704,-12.59856h0.416c6.928,0 14.696,5.66775 14.696,12.59856z" id="Path" fill="#412d20" stroke="none" stroke-width="1" stroke-linecap="butt" stroke-linejoin="miter"/><g id="Group-5" stroke="none" stroke-width="1" stroke-linecap="butt" stroke-linejoin="miter"><path d="M232.22781,47.77143c0,0 3.408,-3.92506 8.8,0.59156c0,0 3.4,0.11991 3.408,2.32626c0,0 4,-1.5988 4.208,1.03922c0,0 3.472,1.38296 0,5.53186c0,0 3.336,1.14314 1.544,3.45341c0,0 -0.856,3.32551 -2.936,3.62129c0,0 -3.552,1.17512 -4.728,-2.05446c0,0 -2.52,0.6715 -2.288,-1.5988c0,0 -2.992,0.10392 -3.064,-2.09443c0,0 0,-1.75069 -3.576,-0.86335c0,0 -3.392,0.25581 -3.096,-2.30228c0,0 -0.152,-1.81464 1.464,-1.81464c0,0 -1.792,-0.59156 -1.48,-2.19835c0.312,-1.6068 1.704,-0.75144 1.704,-0.75144c0,0 -1.136,-1.68674 0.04,-2.88584z" id="Path" fill="#412d20"/><path d="M250.07581,53.1514c0.44157,1.27739 0.17042,2.69304 -0.712,3.71722c-1.176,1.22308 -3.768,0.58356 -3.768,0.58356c4.176,0.23982 4.68,-3.42943 4.48,-4.30078z" id="Path" fill="#281309"/><path d="M230.45981,51.66452c0.744,2.43817 3.144,1.22308 3.144,1.22308c-0.39594,0.47255 -0.98327,0.74252 -1.6,0.73545c-0.91776,-0.19893 -1.56534,-1.02038 -1.544,-1.95853z" id="Path" fill="#281309"/><path d="M231.80381,49.25832c0.0713,0.21449 0.16516,0.42082 0.28,0.61554c-0.06956,-0.03948 -0.14173,-0.0742 -0.216,-0.10392c-0.03462,-0.16862 -0.05601,-0.33967 -0.064,-0.51162z" id="Path" fill="#341f17"/><path d="M240.19581,60.69775c-0.456,0 -2.92,-0.10392 -2.984,-2.09443c0.00511,-0.04248 0.00511,-0.08542 0,-0.1279c0.592,1.50287 2.928,1.42293 2.928,1.42293c-0.03737,0.26745 -0.0183,0.53976 0.056,0.7994z" id="Path" fill="#281309"/><path d="M237.21181,58.46742c-0.272,-0.51162 -1,-1.16713 -3.472,-0.36772c0,0 -2.88,0.75943 -3.088,-2.20635c0.256,2.37422 2.984,1.83862 2.984,1.83862c3.736,-1.16713 3.536,0.43168 3.536,0.43168c0.008,0.11991 0.024,0.21584 0.04,0.30377z" id="Path" fill="#281309"/><path d="M247.48381,64.75871c0,0 -3.904,1.43093 -5.504,-2.2703c-0.45891,0.11221 -0.9435,-0.01444 -1.28867,-0.33679c-0.34517,-0.32235 -0.50436,-0.79691 -0.42333,-1.26201c0.512,1.00725 2.16,0.57557 2.16,0.57557c1.168,3.22159 4.72,2.05446 4.72,2.05446c2.08,-0.29578 2.936,-3.62129 2.936,-3.62129c0.328,-0.42368 0.48,3.72521 -2.6,4.86036z" id="Path" fill="#281309"/><path d="M243.52381,56.29305c-0.22448,0.36294 -0.62102,0.58386 -1.048,0.58386c-0.42698,0 -0.82352,-0.22092 -1.048,-0.58386c0,0 -1.232,0.37572 -1.736,-0.08793c-0.38638,-0.48179 -0.58781,-1.08564 -0.568,-1.70272c0,0 0.872,1.91057 2.304,0.87934c0.1534,0.40144 0.46205,0.72428 0.85637,0.89573c0.39432,0.17145 0.84111,0.17706 1.23963,0.01559z" id="Path" fill="#281309"/><path d="M235.43796,49.55739c0.21744,0.3104 0.56358,0.50603 0.94185,0.53231c0.864,-0.04796 0.736,-0.75144 0.736,-0.75144c0.744,0.94329 1.384,0.22383 1.384,0.22383c-0.416,0.7994 -1.16,0.19985 -1.16,0.19985c-0.06759,0.43196 -0.4425,0.74869 -0.88,0.74344c-1.96,-0.11192 -1.2,-2.01449 -1.2,-2.01449c-0.10476,0.36414 -0.03929,0.75609 0.17815,1.06649z" id="Path" fill="#281309"/></g><g id="Group-4"><path d="M242.99581,81.41023c-0.352,1.57482 -2.328,2.78192 -4.72,2.78991c-2.392,0.00799 -4.376,-1.16713 -4.736,-2.76593c-0.056,-0.2718 0.224,-0.51162 0.6,-0.51162l8.232,-0.01599c0.376,0 0.656,0.23982 0.624,0.50362z" id="Path" fill="#5c463f" stroke="none" stroke-width="1" stroke-linecap="butt" stroke-linejoin="miter"/><path d="M241.74781,83.37676c0.112,0.43967 -1.552,0.7994 -3.472,0.7994c-1.92,0 -3.624,-0.39171 -3.472,-0.7994c0.288,-0.7994 2.648,-0.32775 3.472,-0.34374c0.992,-0.01599 3.256,-0.47964 3.472,0.34374z" id="Path" fill="#c95d49" stroke="none" stroke-width="1" stroke-linecap="butt" stroke-linejoin="miter"/><path d="M234.66781,81.17041c0,-0.42368 0.96,-0.7994 3.568,-0.7994c2.608,0 3.568,0.34374 3.568,0.7994c0,0 -0.952,0.75943 -3.568,0.75943c-2.616,0 -3.568,-0.75943 -3.568,-0.75943z" id="Path" fill="#dbd6d5" stroke="none" stroke-width="1" stroke-linecap="butt" stroke-linejoin="miter"/><path d="M242.96381,81.41023c-0.352,1.57482 -2.328,2.78192 -4.72,2.78991c-2.392,0.00799 -4.376,-1.16713 -4.736,-2.76593c-0.056,-0.2718 0.224,-0.51162 0.6,-0.51162l3.36,-0.31976h1.896l3,0.30377c0.376,0 0.656,0.23982 0.6,0.50362z" id="Path" fill="none" stroke="#453226" stroke-width="0.776" stroke-linecap="round" stroke-linejoin="round"/></g><g data-paper-data="{&quot;origPos&quot;:null}" id="Group-3" stroke="none" stroke-width="1" stroke-linecap="butt" stroke-linejoin="miter"><path d="M235.17393,68.4629c0.07599,0.08988 0.10752,0.20913 0.08588,0.32479c-0.29135,1.46687 -1.5794,2.5236 -3.076,2.5236c-1.4966,0 -2.78465,-1.05673 -3.076,-2.5236c-0.01869,-0.11518 0.01393,-0.23277 0.08929,-0.32191c0.07536,-0.08914 0.18594,-0.14091 0.30271,-0.14174h5.368c0.11773,-0.002 0.23013,0.04898 0.30612,0.13886z" id="Path" fill="#ffffff"/><path d="M230.91549,70.55702c-0.3348,-0.33605 -0.52181,-0.79153 -0.51968,-1.26571c-0.00157,-0.34375 0.09863,-0.68029 0.288,-0.96728h2.992c0.36455,0.54726 0.39647,1.25106 0.08296,1.82903c-0.31351,0.57797 -0.92108,0.93541 -1.57896,0.9289c-0.47454,0 -0.92952,-0.18891 -1.26432,-0.52495z" id="Path" fill="#2e221a"/></g><g data-paper-data="{&quot;origPos&quot;:null}" id="Group-2" stroke="none" stroke-width="1" stroke-linecap="butt" stroke-linejoin="miter"><path d="M248.04593,68.35898c0.07599,0.08988 0.10752,0.20913 0.08588,0.32479c-0.29135,1.46687 -1.5794,2.5236 -3.076,2.5236c-1.4966,0 -2.78465,-1.05673 -3.076,-2.5236c-0.01869,-0.11518 0.01393,-0.23277 0.08929,-0.32191c0.07536,-0.08914 0.18594,-0.14091 0.30271,-0.14174h5.368c0.11773,-0.002 0.23013,0.04898 0.30612,0.13886z" id="Path" fill="#ffffff"/><path d="M243.88349,70.42911c-0.3348,-0.33605 -0.52181,-0.79153 -0.51968,-1.26571c-0.00157,-0.34375 0.09863,-0.68029 0.288,-0.96728h2.992c0.36455,0.54726 0.39647,1.25106 0.08296,1.82903c-0.31351,0.57797 -0.92108,0.93541 -1.57896,0.9289c-0.47454,0 -0.92952,-0.18891 -1.26432,-0.52495z" id="Path" fill="#2e221a"/></g><path d="M235.73981,66.31754c0.00013,0.15902 -0.06468,0.3112 -0.17945,0.42136c-0.11477,0.11016 -0.26955,0.16874 -0.42855,0.16221h-6.08c-0.32253,0 -0.584,-0.26127 -0.584,-0.58356c0,-0.32229 0.26147,-0.58356 0.584,-0.58356l6.112,-0.2718c0.328,0 0.576,0.5356 0.576,0.85536z" data-paper-data="{&quot;origPos&quot;:null}" id="Path" fill="#231607" stroke="none" stroke-width="1" stroke-linecap="butt" stroke-linejoin="miter"/><path d="M248.68381,66.31754c0,0.32229 -0.26147,0.58356 -0.584,0.58356h-6.088c-0.32253,0 -0.584,-0.26127 -0.584,-0.58356c0,-0.31976 0.232,-0.85536 0.552,-0.85536l6.12,0.2718c0.32253,0 0.584,0.26127 0.584,0.58356z" data-paper-data="{&quot;origPos&quot;:null}" id="Path" fill="#231607" stroke="none" stroke-width="1" stroke-linecap="butt" stroke-linejoin="miter"/><g data-paper-data="{&quot;origPos&quot;:null}" stroke="none" stroke-width="1" stroke-linecap="butt" stroke-linejoin="miter"><path d="M272.66781,145.73005l15.872,-34.00653c0.79928,-1.63055 2.72979,-2.35877 4.408,-1.66275c1.31383,0.52327 2.06962,1.90617 1.8,3.29353l-11.288,35.73323c-1.36007,2.98309 -4.70835,4.51287 -7.856,3.58931c-3.064,-0.98326 -3.816,-3.84512 -2.936,-6.9468z" id="Path" fill="#705347"/><g id="Group-19" fill="#705347"><path d="M294.14781,106.23164l3.544,-9.64078c0.20645,-0.56199 0.82873,-0.85145 1.392,-0.64751c0.27294,0.0957 0.49606,0.29681 0.61937,0.55827c0.12331,0.26146 0.1365,0.56143 0.03663,0.83269l-2.848,9.79266c-0.24,0.59955 -1.28,0.8074 -1.84,0.59955c-0.65049,-0.17974 -1.04726,-0.83585 -0.904,-1.49488z" id="Path"/><path d="M291.73981,104.0173l3.304,-9.95254c0.08861,-0.30669 0.29749,-0.56459 0.5792,-0.71512c0.28171,-0.15053 0.61233,-0.18093 0.9168,-0.08428c0.30565,0.09046 0.56231,0.29949 0.71263,0.58038c0.15032,0.2809 0.18179,0.61026 0.08737,0.9145l-2.656,10.1524c-0.2,0.62353 -1.384,0.76743 -2.008,0.55958c-0.65,-0.15845 -1.0616,-0.79824 -0.936,-1.45491z" id="Path"/><path d="M295.25981,110.27661l4.536,-9.17713c0.1948,-0.45432 0.71653,-0.67066 1.176,-0.48763c0.45691,0.18802 0.67523,0.71018 0.488,1.16713l-3.888,9.51287c-0.08884,0.22072 -0.26193,0.39704 -0.48107,0.49002c-0.21914,0.09299 -0.4663,0.09501 -0.68693,0.0056c-0.456,-0.18386 -1.328,-1.05521 -1.144,-1.51087z" id="Path"/><path d="M289.45181,103.42574l2.76,-9.19311c0.06898,-0.2547 0.2375,-0.47101 0.46769,-0.6003c0.23019,-0.12929 0.50271,-0.16071 0.75631,-0.08719c0.5286,0.14773 0.83924,0.69361 0.696,1.22308l-2.344,9.33701c-0.144,0.55159 -1.12,0.69548 -1.648,0.55159c-0.52647,-0.1548 -0.83227,-0.70199 -0.688,-1.23108z" id="Path"/><path d="M285.01981,100.10023c0.728,-0.31177 2.192,0.7994 2.592,1.79066l3.592,8.91332c-0.19945,1.01432 -1.07028,1.75877 -2.104,1.79865c-0.48,-0.15189 -1.888,-0.33575 -2.504,-2.69398l-1.064,-6.83488c0.11113,-0.88983 -0.14928,-1.78612 -0.72,-2.47814c-0.152,-0.14389 0.016,-0.41569 0.208,-0.49563z" id="Path"/><path d="M290.57181,114.24964c-2.76,-0.88734 -4.752,-3.99701 -3.864,-6.77093l0.4,-1.23907c0.89378,-2.76335 3.85436,-4.28541 6.624,-3.40545l0.952,0.31177c2.76222,0.89647 4.28131,3.8538 3.4,6.61904l-0.4,1.24707c-0.888,2.74994 -4.344,4.12491 -7.112,3.23757z" id="Path"/></g><path d="M290.39581,121.14847l0.88,-2.51012l1.856,0.67949l-0.704,2.57407z" id="Path" fill="#ffabe2"/><path d="M287.72381,117.33532l3.552,1.30302l-0.88,2.51012l-3.544,-1.30302z" id="Path" fill="#ededed"/><path d="M287.73981,117.31934c0.42209,0.393 0.57044,0.99888 0.37761,1.54222c-0.19283,0.54334 -0.69004,0.92045 -1.26561,0.95991l-2.24,-0.7994l1.16,-2.3982z" id="Path" fill="#7be3f2"/><path d="M287.48381,117.26338c0.07135,0.01015 0.1412,0.02894 0.208,0.05596c0.68925,0.25165 1.04384,1.01399 0.792,1.70272c-0.25184,0.68874 -1.01475,1.04306 -1.704,0.79141c-0.06774,-0.02388 -0.13224,-0.0561 -0.192,-0.09593c0.57904,-0.00671 1.09419,-0.36895 1.296,-0.91132c0.20397,-0.5472 0.0442,-1.16344 -0.4,-1.54284z" id="Path" fill="#6ecdd9"/></g><g stroke="none" stroke-width="1" stroke-linecap="butt" stroke-linejoin="miter"><path d="M224.13181,114.67332l-3.888,39.17066c-0.968,5.0762 -6.568,4.85237 -6.568,4.85237c-3.208,-0.36772 -4.856,-3.38147 -4.592,-6.57907l1.856,-42.28033c0.54229,-4.05226 3.91261,-7.13379 8,-7.31452c2.808,0.05596 5.44,7.11467 5.192,12.1509z" id="Path" fill="#705347"/><g id="Group-9"><path d="M218.88381,98.34155c7.616,3.12566 7.168,25.48491 3.616,35.26159l-14.936,-10.30428c0.864,-4.75644 1.832,-20.78443 6.92,-23.45443c1.36254,-0.76519 2.85381,-1.27455 4.4,-1.50287z" id="Path" fill="#6373ba"/><path d="M222.52381,135.74553l-16.384,-11.67925l0.984,-3.71722l16.456,11.45542z" id="Path" fill="#e4b34e"/></g></g><g fill="#705347" stroke="none" stroke-width="1" stroke-linecap="butt" stroke-linejoin="miter"><path d="M214.21181,148.17622c3.27294,0.2217 5.8847,2.81447 6.128,6.08344l-1.808,37.40398c-0.22364,1.38249 -1.39158,2.41579 -2.792,2.47015c-1.82821,0.09019 -3.40693,-1.26599 -3.592,-3.08569l-3.096,-37.36401c0.288,-3.21359 1.944,-5.65177 5.16,-5.50787z" id="Path"/><g id="left"><path d="M214.74431,188.43179c1.31077,-0.14359 2.57879,0.51699 3.2115,1.67302c1.816,2.98177 0.736,8.18587 0.736,8.18587c-0.16432,0.92379 -0.57628,1.78576 -1.192,2.49413c0.41227,1.16748 0.72276,2.36839 0.928,3.58931c1.34816,0.37776 2.66427,0.86157 3.936,1.44692c2.552,0.29578 2.08,1.99051 2.08,1.99051c-6.392,-0.10392 -7.84,-1.02323 -7.84,-1.02323c-6.536,-5.35599 -5.6,-8.72946 -5.6,-8.72946l0.968,-7.29853c0.36705,-1.26556 1.46173,-2.18495 2.7725,-2.32853z" id="Path"/><path d="M222.29181,202.97517c-0.8,0.38371 -2.4,-0.71147 -2.896,-1.7347l-5.04,-10.39222c0.14546,-1.09853 1.02516,-1.95444 2.128,-2.07045c1.63988,0.73122 2.89281,2.12265 3.448,3.82913l1.6,7.25057c-0.06002,0.95943 0.28195,1.90059 0.944,2.59805c0.176,0.11991 0.016,0.3997 -0.184,0.51961z" id="Path"/></g></g><g><g id="Group-14" stroke="none" stroke-width="1" stroke-linecap="butt" stroke-linejoin="miter"><path d="M265.36381,294.79514c0.08725,1.17935 -0.3443,2.33812 -1.1819,3.17356c-0.8376,0.83543 -1.99803,1.26453 -3.1781,1.17518h-0.056c-1.92595,-0.14749 -3.48319,-1.62677 -3.728,-3.54135l-0.8,-64.23988c0.04,-3.13365 4.24,-5.49189 7.296,-5.29204c3.056,0.19985 6.824,2.95778 6.568,6.0035z" id="Path" fill="#705347"/><path d="M256.81981,278.86308l-2.264,-50.76997c0.168,-4.09293 2.6,-11.79916 10.808,-10.39222c4.368,0.18386 7.264,6.02749 7.096,10.13641l-5.72,50.72201c-1.128,3.10168 -5.008,2.83787 -5.008,2.83787c-3.272,0 -4.864,-1.10317 -4.912,-2.5341z" id="Path" fill="#36445e"/></g><g id="Group-8"><path d="M283.51581,304.0035l-0.336,1.75868c0,0 -0.488,2.15838 -1.104,2.03847l-27.2,-5.18012c-0.54541,-0.2612 -0.8662,-0.83819 -0.8,-1.43892c0.064,-1.07919 2.168,-10.47216 2.168,-10.47216l-0.088,-5.82763l6.616,1.11117l0.608,2.65401c0.104,-1.12716 0.528,-2.24632 1.832,-2.24632c0,0 2.32,-0.1279 1.6,5.30003l-0.104,1.68674l0.472,2.65401l5.664,3.91707l6.648,0.33575c0,0 3.528,0.20784 4.024,3.70922z" id="Path" fill="#eda68c" stroke="none" stroke-width="1" stroke-linecap="butt" stroke-linejoin="miter"/><path d="M253.99581,301.16562c0.04,-0.5356 0.304,-1.65476 0.456,-2.68599l18.088,5.83563l10.936,-0.29578l-0.336,1.77467c0,0 -0.352,2.18237 -1.104,2.03847l-9.744,0.54359l-17.512,-5.76368c-0.53874,-0.2707 -0.85163,-0.84815 -0.784,-1.44692z" id="Path" fill="#cfd6d4" stroke="none" stroke-width="1" stroke-linecap="butt" stroke-linejoin="miter"/><path d="M266.94781,289.99l-3.024,4.06096l3.256,1.99051l0.32,2.67799l3.36,-0.1279l2.224,3.0697l3.312,-1.53485l-0.168,1.44692l-2.872,-1.59081l-3.496,-0.02398l-1,-3.09368l-4.024,0.2718l1.872,-3.74919l-3.648,-3.62928" id="Path" fill="none" stroke="#f0ded3" stroke-width="0.5" stroke-linecap="round" stroke-linejoin="round"/><path d="M262.77181,285.977l2.224,10.85587l8.128,4.48464l5.144,-0.28778l-0.144,0.76743l-5.12,0.2718l-8.664,-4.64452l-2.336,-11.57533z" id="Path" fill="#ce7d71" stroke="none" stroke-width="1" stroke-linecap="butt" stroke-linejoin="miter"/><path d="M283.46781,304.01949l-5.712,0.51162l0.624,-4.41269l1.112,0.17587c2.04621,0.13209 3.71248,1.69326 3.976,3.72521z" id="Path" fill="#e5e8e9" stroke="none" stroke-width="1" stroke-linecap="butt" stroke-linejoin="miter"/><path d="M283.44381,304.50712l-10.992,0.30377l-18.152,-5.85961l0.088,-0.49563l18.16,5.85961l10.992,-0.30377z" id="Path" fill="#545c59" stroke="none" stroke-width="1" stroke-linecap="butt" stroke-linejoin="miter"/></g></g><g><g id="Group-17" stroke="none" stroke-width="1" stroke-linecap="butt" stroke-linejoin="miter"><path d="M234.94789,226.38053c1.02239,1.06999 1.56031,2.5125 1.48792,3.99012l-2.4,64.10398c-0.3376,1.89949 -1.96599,3.29946 -3.896,3.34949c-1.1913,0.04488 -2.34203,-0.43621 -3.14641,-1.31543c-0.80437,-0.87922 -1.18093,-2.06753 -1.02959,-3.24915l-3.36,-62.85692c-0.096,-3.05371 5.368,-5.64377 8.424,-5.69174c1.48049,-0.00396 2.89768,0.59965 3.92008,1.66964z" id="Path" fill="#705347"/><path d="M230.21181,279.9655c0,0 -4.936,0.42368 -5.408,-3.3415l-4.6,-50.36228c-0.048,-4.10892 3.024,-9.86461 7.392,-9.92057c8.248,-1.16713 10.456,6.60305 10.504,10.71198l-3.16,50.72201c-0.112,1.31901 -1.32,1.91057 -4.728,2.19036z" id="Path" fill="#36445e"/></g><g id="Group-12"><path d="M218.52381,306.12991l6.632,-9.14515c0.512,-2.2703 -0.16,-9.06521 -0.16,-9.06521h0.8l0.872,2.07045c0.01595,-0.78353 0.53136,-1.46915 1.28,-1.70272l3.032,0.09593c0.74082,0.0809 1.30426,0.70228 1.312,1.44692l1.744,-1.78266h0.704l0.2,13.06222l-0.704,7.19461z" id="Path" fill="#eda68c" stroke="none" stroke-width="1" stroke-linecap="butt" stroke-linejoin="miter"/><path d="M226.68381,290.7894l5.064,3.54135l-4.752,2.77392l3.936,2.0065l-5.664,0.78341l5.032,2.09443l-8.088,1.15114l7.856,0.58356l-6.208,-2.63802l6.752,-0.6635l-4.536,-2.04647l5.344,-1.03922l-4.712,-3.54135l5.248,-2.67799" id="Path" fill="none" stroke="#f0ded3" stroke-width="0.5" stroke-linecap="round" stroke-linejoin="round"/><path d="M232.29181,289.80613l-0.208,7.54635l-1.704,7.09069l-1.256,0.02398l2.296,-7.13066l0.376,-6.60305z" id="Path" fill="#ce7d71" stroke="none" stroke-width="1" stroke-linecap="butt" stroke-linejoin="miter"/><path d="M226.66781,289.96601l0.328,7.13865l-5.712,8.09793l-1,-0.05596l6.384,-8.12192l-0.312,-7.78617z" id="Path" fill="#ce7d71" stroke="none" stroke-width="1" stroke-linecap="butt" stroke-linejoin="miter"/><path d="M231.85181,305.89009l1.568,-7.83413l0.616,-10.03249l0.704,0.00799l0.224,13.0782l-0.672,6.95479z" id="Path" fill="#e69783" stroke="none" stroke-width="1" stroke-linecap="butt" stroke-linejoin="miter"/><path d="M226.28381,303.63577c6.304,0.07195 8.048,3.21359 8,3.94105c-2.81068,0.91114 -5.74151,1.39879 -8.696,1.44692c-2.61807,0.08561 -5.22748,-0.34354 -7.68,-1.26305c0,0 -0.648,-4.24482 8.376,-4.12491z" id="Path" fill="#e5e8e9" stroke="none" stroke-width="1" stroke-linecap="butt" stroke-linejoin="miter"/><path d="M217.78781,310.15889c0.00498,-0.80189 0.05841,-1.60275 0.16,-2.3982c2.59064,0.70431 5.28362,0.95582 7.96,0.74344c2.976,-0.14389 6.816,-0.32775 8.416,-0.94329c0,0 0,1.03123 0,2.07844c0.07182,0.91504 -0.51501,1.75273 -1.4,1.9985c-2.20512,0.85335 -4.53386,1.34467 -6.896,1.45491c-2.53977,0.18541 -5.09102,-0.13801 -7.504,-0.95129c-0.504,-0.27979 -0.752,-0.94329 -0.736,-1.98252z" id="Path" fill="#cfd6d4" stroke="none" stroke-width="1" stroke-linecap="butt" stroke-linejoin="miter"/><path d="M217.90781,307.76068c2.61019,0.676 5.30577,0.96421 8,0.85536c2.81574,-0.11698 5.61713,-0.46455 8.376,-1.03922c0.144,-0.03997 0.2,0.44766 0,0.50362c-2.76711,0.59922 -5.57963,0.96556 -8.408,1.09518c-2.69934,0.07464 -5.39496,-0.2486 -8,-0.95928c-0.184,-0.01599 -0.048,-0.47964 0.032,-0.45566z" id="Path" fill="#545c59" stroke="none" stroke-width="1" stroke-linecap="butt" stroke-linejoin="miter"/></g></g></g></g></svg>