<svg xmlns="http://www.w3.org/2000/svg" xmlns:xlink="http://www.w3.org/1999/xlink" version="1.1" width="89.78018951416016" height="155.53121948242188" viewBox="0.24987363815307617 0.25 89.78018951416016 155.53121948242188">
  <!-- Exported by Scratch - http://scratch.mit.edu/ -->
  <g id="ID0.5657270951196551">
    <g id="Page-1">
      <g id="andie-b-[sports,basketball,people,wheelchair,handicap,handicapable,alex-eben-meyer]">
        <g id="Right-Arm">
          <path id="Fill-1" fill="#BE965A" stroke="none" stroke-width="1" d="M 80.082 50.055 C 79.038 46.141 76.843 42.486 74.321 39.359 C 71.904 36.362 69.653 35.288 66.493 33.447 C 65.102 32.637 57.652 31.002 57.433 28.847 C 57.214 26.692 57.462 25.335 56.875 24.736 C 55.329 24.856 55.78 28.796 55.279 29.758 C 53.221 30.832 53.679 24.842 52.598 24.689 C 51.516 24.537 52.511 27.965 51.992 29.717 C 51.359 30.321 50.846 30.214 50.384 29.577 C 49.325 28.116 49.907 25.91 49.342 25.972 C 48.777 26.034 48.437 28.583 48.652 29.908 C 49.075 32.519 50.383 35.495 51.574 35.999 C 53.467 36.8 55.796 38.474 58.874 39.495 C 62.165 40.586 65.356 44.096 67.08 47.064 C 69.953 52.012 69.771 57.614 67.171 62.545 C 65.626 65.475 63.253 67.657 60.446 69.351 C 59.482 69.932 58.371 70.717 57.252 70.941 C 56.299 71.133 54.959 70.544 54.049 71.014 L 56.015 83.026 C 60.657 82.456 64.81 81.733 69.482 79.022 C 72.859 77.062 77.301 72.823 79.309 65.919 C 80.95 60.278 80.549 51.809 80.082 50.055 "/>
          <path id="Fill-3" fill="#A0783C" stroke="none" stroke-width="1" d="M 50.238 35.603 C 52.785 36.042 53.868 33.069 56.895 33.891 C 59.354 34.557 60.3 37.346 58.873 39.495 C 56.532 39.273 53.949 37.904 51.713 37.202 C 50.343 36.771 46.296 35.512 46.934 34.7 C 47.571 33.887 49.587 35.308 50.238 35.603 "/>
        </g>
        <g id="Chair">
          <path id="Fill-5" fill="#006482" stroke="none" stroke-width="1" d="M 22.883 116.577 C 22.883 116.577 24.333 103.497 25.299 101.806 C 26.265 100.116 65.144 100.237 65.144 100.237 L 68.278 115.331 L 22.883 116.577 Z "/>
          <path id="Fill-7" fill="#006482" stroke="none" stroke-width="1" d="M 65.536 128.587 C 64.807 133.124 62.536 146.021 62.536 146.021 C 62.536 146.021 62.405 146.473 62.335 147.061 C 61.557 146.983 60.848 147.074 60.848 147.074 C 60.848 147.074 33.325 147.232 31.882 147.156 C 30.832 147.1 29.723 147.086 28.784 147.202 C 28.719 146.547 28.568 146.021 28.568 146.021 C 28.568 146.021 26.297 133.124 25.568 128.587 L 22.698 128.587 C 22.872 129.618 23.06 130.645 23.218 131.671 C 23.672 134.632 25.07 142.885 26.225 147.154 C 26.372 147.695 26.972 149.789 27.475 149.718 C 30.303 150.181 33.207 149.953 36.06 149.951 C 39.056 149.949 63.446 149.687 63.446 149.687 C 63.446 149.687 64.238 149.522 64.879 147.154 C 66.035 142.885 67.432 134.632 67.887 131.671 C 68.044 130.645 68.232 129.618 68.406 128.587 L 65.536 128.587 Z "/>
          <path id="Fill-9" fill="#000000" stroke="none" stroke-width="1" d="M 59.228 155.281 C 58.508 155.298 58.227 154.272 58.225 153.105 C 58.223 151.979 58.12 151.732 58.445 150.616 C 58.649 150.398 58.932 150.275 59.372 150.302 C 60.134 150.474 60.215 151.381 60.153 152.232 C 60.15 152.281 60.494 155.251 59.228 155.281 "/>
          <path id="Fill-11" fill="#008CB4" stroke="none" stroke-width="1" d="M 57.144 151.608 L 61.206 151.608 L 61.206 146.429 L 57.144 146.429 L 57.144 151.608 "/>
          <path id="Fill-13" fill="#000000" stroke="none" stroke-width="1" d="M 32.049 155.281 C 31.328 155.298 31.047 154.272 31.046 153.105 C 31.044 151.979 30.94 151.732 31.265 150.616 C 31.469 150.398 31.753 150.275 32.193 150.302 C 32.955 150.474 33.035 151.381 32.974 152.232 C 32.97 152.281 33.315 155.251 32.049 155.281 "/>
          <path id="Fill-14" fill="#008CB4" stroke="none" stroke-width="1" d="M 29.965 151.608 L 34.027 151.608 L 34.027 146.429 L 29.965 146.429 L 29.965 151.608 "/>
          <path id="Fill-15" fill="#006482" stroke="none" stroke-width="1" d="M 28.099 128.627 L 25.718 129.163 L 22.884 116.577 L 25.265 116.041 L 28.099 128.627 "/>
          <path id="Fill-16" fill="#006482" stroke="none" stroke-width="1" d="M 19.038 144.853 L 16.652 144.336 L 20.362 127.242 L 22.747 127.76 L 19.038 144.853 "/>
          <path id="Fill-17" fill="#006482" stroke="none" stroke-width="1" d="M 71.449 144.853 L 73.834 144.336 L 70.125 127.242 L 67.74 127.76 L 71.449 144.853 "/>
          <path id="Fill-18" fill="#006482" stroke="none" stroke-width="1" d="M 65.649 129.166 L 63.244 128.75 L 65.439 116.037 L 67.844 116.453 L 65.649 129.166 "/>
          <path id="Fill-19" fill="#006482" stroke="none" stroke-width="1" d="M 55.946 128.885 C 55.755 130.266 55.466 131.264 55.806 132.529 C 56.065 132.588 83.03 127.565 83.03 127.565 L 81.806 124.259 C 81.806 124.259 57.062 128.689 55.946 128.885 "/>
          <path id="Fill-20" fill="#008CB4" stroke="none" stroke-width="1" d="M 75.731 120.692 L 78.693 133.876 L 74.694 134.765 L 71.231 121.729 L 75.731 120.692 "/>
          <path id="Fill-21" fill="#000000" stroke="none" stroke-width="1" d="M 69.213 99.657 C 67.611 100.078 68.23 100.41 68.916 104.101 C 70.154 110.753 78.447 137.282 79.784 141.667 C 81.075 145.898 82.046 150.312 84.042 154.285 C 84.74 154.967 85.504 155.241 86.44 154.842 C 88.001 153.618 86.945 149.821 85.744 146.529 C 84.986 144.451 72.898 104.109 72.898 104.109 C 72.898 104.109 72.027 98.916 69.213 99.657 "/>
          <path id="Fill-22" fill="#000000" stroke="none" stroke-width="1" d="M 75.638 104.493 C 75.192 104.606 75.363 104.699 75.544 105.724 C 75.871 107.572 87.111 142.611 87.471 143.83 C 87.818 145.007 88.076 146.233 88.62 147.34 C 88.812 147.531 89.023 147.609 89.284 147.501 C 89.72 147.165 89.507 145.293 89.182 144.377 C 88.977 143.799 77.265 106.144 77.265 106.144 C 77.265 106.144 76.42 104.294 75.638 104.493 "/>
          <path id="Fill-23" fill="#006482" stroke="none" stroke-width="1" d="M 34.333 128.885 C 34.524 130.266 34.813 131.264 34.473 132.529 C 34.214 132.588 7.249 127.565 7.249 127.565 L 8.473 124.259 C 8.473 124.259 33.217 128.689 34.333 128.885 "/>
          <path id="Fill-24" fill="#008CB4" stroke="none" stroke-width="1" d="M 14.549 120.692 L 11.586 133.876 L 15.586 134.765 L 19.048 121.729 L 14.549 120.692 "/>
          <path id="Fill-25" fill="#000000" stroke="none" stroke-width="1" d="M 21.067 99.657 C 22.669 100.078 22.05 100.41 21.363 104.101 C 20.125 110.753 11.833 137.282 10.495 141.667 C 9.204 145.898 8.233 150.312 6.237 154.285 C 5.539 154.967 4.775 155.241 3.839 154.842 C 2.278 153.618 3.335 149.821 4.535 146.529 C 5.293 144.451 17.381 104.109 17.381 104.109 C 17.381 104.109 18.252 98.916 21.067 99.657 "/>
          <path id="Fill-26" fill="#000000" stroke="none" stroke-width="1" d="M 14.642 104.493 C 15.087 104.606 14.916 104.699 14.735 105.724 C 14.408 107.572 3.169 142.611 2.809 143.83 C 2.461 145.007 2.203 146.233 1.66 147.34 C 1.468 147.531 1.256 147.609 0.996 147.501 C 0.56 147.165 0.773 145.293 1.097 144.377 C 1.302 143.799 13.014 106.144 13.014 106.144 C 13.014 106.144 13.859 104.294 14.642 104.493 "/>
          <path id="Fill-27" fill="#006482" stroke="none" stroke-width="1" d="M 35.219 128.884 L 35.219 132.605 C 39.023 132.612 47.685 132.638 55.887 132.568 L 55.887 128.82 C 48.874 128.849 40.931 128.877 35.219 128.884 "/>
          <path id="Fill-28" fill="#008CB4" stroke="none" stroke-width="1" d="M 68.196 113.465 C 60.917 113.068 26.345 113.35 23.429 114.379 C 21.148 114.226 20.418 115.515 21.285 117.372 C 22.232 118.191 23.746 118.8 25.064 118.469 C 32.445 118.314 57.839 118.336 64.452 118.185 C 65.254 118.455 68.499 117.977 69.221 117.465 C 69.439 116.454 70.199 113.07 68.196 113.465 "/>
          <path id="Fill-29" fill="#008CB4" stroke="none" stroke-width="1" d="M 74.335 144.5 C 74.378 145.582 74.052 145.259 71.615 145.535 C 67.221 146.033 29.056 145.922 26.06 145.925 C 23.169 145.927 20.225 146.164 17.36 145.676 C 16.801 145.37 16.483 144.945 16.554 144.284 C 17.02 143.074 19.595 143.009 21.882 143.13 C 23.325 143.206 70.848 143.048 70.848 143.048 C 70.848 143.048 74.26 142.6 74.335 144.5 "/>
        </g>
        <g id="Head">
          <path id="Fill-31" fill="#000000" stroke="none" stroke-width="1" d="M 45.607 43.242 C 47.274 43.466 49.184 44.204 50.269 45.046 C 52.429 46.724 54.271 47.96 53.598 54.844 C 53.659 54.228 39.458 47.651 39.458 47.651 C 39.928 45.171 43.006 42.892 45.607 43.242 "/>
          <path id="Fill-32" fill="#A0783C" stroke="none" stroke-width="1" d="M 52.731 54.452 C 52.731 54.452 53.316 52.114 55.653 53.356 C 57.991 54.598 56.441 57.36 55.872 58.396 C 55.173 59.671 53.836 60.077 52.523 60.51 C 52.7 58.121 52.731 54.452 52.731 54.452 "/>
          <path id="Fill-33" fill="#A0783C" stroke="none" stroke-width="1" d="M 39.322 59.51 C 38.009 59.076 36.672 58.67 35.973 57.396 C 35.404 56.36 33.854 53.598 36.192 52.356 C 38.53 51.114 39.114 53.452 39.114 53.452 C 39.114 53.452 39.145 57.121 39.322 59.51 "/>
          <path id="Fill-34" fill="#BE965A" stroke="none" stroke-width="1" d="M 53.57 53.13 C 53.055 48.999 50.333 44.681 45.651 44.433 C 40.23 44.146 38.08 48.195 38.022 53.086 C 38.144 53.371 38.236 58.155 38.396 59.586 C 38.614 61.549 39.002 63.126 40.124 64.779 C 42.498 68.276 46.056 69.493 49.741 67.974 C 51.359 67.306 52.181 66.149 52.933 64.712 C 53.667 63.307 53.865 55.498 53.57 53.13 "/>
          <path id="Fill-35" fill="#000000" stroke="none" stroke-width="1" d="M 44.467 43.977 L 41.285 46.054 C 41.285 46.054 47.472 46.187 49.328 44.993 L 44.467 43.977 Z "/>
          <path id="Fill-36" fill="#000000" stroke="none" stroke-width="1" d="M 44.941 52.721 C 43.089 52.721 41.978 52.622 41.185 54.546 C 41.223 55.516 43.061 56.497 44.842 56.447 C 46.624 56.396 48.348 55.314 48.348 54.401 C 48.348 52.575 46.794 52.72 44.941 52.721 "/>
          <path id="Fill-37" fill="#A0783C" stroke="none" stroke-width="1" d="M 46.208 48.976 C 45.936 48.069 45.491 47.242 44.96 46.402 C 43.893 47.11 43.257 49.029 43.876 50.228 C 44.03 50.525 44.729 51.41 45.886 50.76 C 46.293 50.53 46.378 49.542 46.208 48.976 "/>
          <path id="Fill-38" fill="#000000" stroke="none" stroke-width="1" d="M 48.912 47.177 C 49.13 47.88 49.17 48.418 48.675 48.918 C 47.865 48.521 48.135 47.851 48.119 47.177 L 48.912 47.177 Z "/>
          <path id="Fill-39" fill="#000000" stroke="none" stroke-width="1" d="M 41.381 48.395 C 40.817 48.23 40.817 48.23 40.55 47.634 C 40.655 47.458 40.777 47.256 40.915 47.028 C 41.113 47.065 41.276 47.096 41.445 47.128 C 41.659 47.563 41.699 47.949 41.381 48.395 "/>
        </g>
        <g id="Left-Arm">
          <path id="Fill-40" fill="#BE965A" stroke="none" stroke-width="1" d="M 35.839 3.358 C 35.668 2.537 35.246 0.946 34.228 0.75 C 33.584 2.08 34.123 4.668 34.16 6.158 C 33.834 6.607 33.651 7.109 33.042 7.238 C 32.839 7.134 32.619 7.02 32.402 6.909 C 31.693 5.376 31.354 0.778 28.793 1.326 C 28.462 2.478 29.294 2.931 29.741 3.964 C 30.34 5.352 30.432 6.792 30.082 8.261 C 29.886 8.343 29.694 8.422 29.521 8.494 C 27.523 7.598 27.275 5.591 24.799 6.127 C 24.043 7.706 25.412 7.888 26.4 8.723 C 28.076 10.143 28.186 11.542 28.14 13.707 C 28.078 16.665 27.755 19.627 27.543 22.577 C 27.162 27.863 26.708 38.132 26.271 43.409 C 25.581 51.757 24.587 60.12 25.181 68.508 C 25.66 75.262 27.21 80.543 33.322 84.332 L 36.67 73.662 C 37.426 72.023 36.426 68.559 36.321 66.787 C 36.122 63.451 36.922 8.552 35.839 3.358 "/>
          <path id="Fill-41" fill="#A0783C" stroke="none" stroke-width="1" d="M 36.34 13.015 C 36.924 12.894 37.085 12.584 37.198 12.224 C 37.424 11.501 37.65 10.778 37.885 10.058 C 38.011 9.669 38.177 9.31 38.763 9.303 C 38.835 9.503 38.968 9.72 38.988 9.947 C 39.086 11.022 38.803 12.033 38.315 12.969 C 37.967 13.637 37.518 14.255 37.082 14.873 C 36.518 15.671 36.529 20.1 36.438 20.289 C 36.221 20.331 31.598 20.237 31.2 20.125 C 31.053 19.653 31.131 17.476 31.232 17.017 C 31.385 16.313 31.533 15.606 31.721 14.911 C 32.006 13.858 32.62 13.154 33.75 12.904 C 34.658 12.703 35.53 12.625 36.34 13.015 "/>
          <path id="Fill-42" fill="#F01446" stroke="none" stroke-width="1" d="M 36.862 19.367 C 37.5 22.405 37.793 26.184 37.322 29.263 C 37.089 29.382 36.9 29.477 36.691 29.583 C 36.437 29.464 30.071 30.293 27.629 30.039 C 27.375 29.929 26.98 29.758 26.566 29.579 C 25.026 27.551 25.42 21.836 26.688 19.774 C 26.861 19.658 34.401 17.369 36.862 19.367 "/>
        </g>
        <g id="Torso">
          <path id="Fill-30" fill="#780046" stroke="none" stroke-width="1" d="M 60.987 103.183 C 59.138 102.859 31.929 103.81 27.501 103.474 L 31.286 115.121 C 33.14 115.593 56.121 115.285 60.259 114.393 C 60.411 113.112 60.913 103.874 60.987 103.183 "/>
          <path id="Fill-43" fill="#BE965A" stroke="none" stroke-width="1" d="M 53.74 71.279 C 52.683 71.008 37.723 70.459 37.299 70.727 C 36.989 71.549 36.086 82.092 36.086 82.092 L 53.74 80.216 C 53.74 80.216 53.81 73.477 53.74 71.279 "/>
          <path id="Fill-44" fill="#F01446" stroke="none" stroke-width="1" d="M 59.701 88.802 C 59.533 87.768 58.143 80.991 56.916 75.961 C 56.176 72.927 55.322 70.462 55.322 70.462 C 55.322 70.462 52.545 70.213 51.834 70.344 C 51.828 70.782 51.523 73.021 50.535 74.394 C 49.268 76.156 47.126 77.073 45.709 77.111 C 43.187 77.179 41.277 76.009 40.477 74.581 C 39.327 72.528 39.4 69.833 39.4 69.833 C 39.4 69.833 37.469 69.719 37.244 69.791 C 34.509 70.657 31.419 83.435 31.018 85.751 C 30.293 89.948 29.645 94.162 29.082 98.384 C 28.9 99.749 27.441 105.008 28.434 106.237 L 62.421 105.901 C 62.75 105.117 59.841 89.66 59.701 88.802 "/>
        </g>
        <g id="Belt">
          <path id="Fill-45" fill="#000000" stroke="none" stroke-width="1" d="M 27.501 108.063 L 61.989 108.063 L 61.989 103.2 L 27.501 103.2 L 27.501 108.063 "/>
          <path id="Fill-70" fill="#64645A" stroke="none" stroke-width="1" d="M 41.504 108.537 L 49.211 108.537 L 49.211 102.516 L 41.504 102.516 L 41.504 108.537 "/>
        </g>
        <g id="Right-Leg">
          <path id="Fill-46" fill="#BE965A" stroke="none" stroke-width="1" d="M 64.517 105.245 C 64.456 111.812 62.387 117.946 62.387 117.946 L 50.159 118.139 C 50.159 118.139 50.957 98.909 54.032 95.945 C 54.895 95.114 57.034 92.403 61.286 94.229 C 65.537 96.056 64.543 102.359 64.517 105.245 "/>
          <path id="Fill-47" fill="#F0E6D2" stroke="none" stroke-width="1" d="M 49.562 113.627 C 49.228 117.231 49.103 123.829 49.115 125.187 C 51.25 125.814 59.222 124.797 61.156 124.346 C 61.928 123.186 63.321 117.316 64.036 113.627 L 49.562 113.627 Z "/>
          <path id="Fill-48" fill="#F01446" stroke="none" stroke-width="1" d="M 46.39 141.82 L 46.16 143.295 L 61.824 143.203 L 62.069 141.966 L 52.978 140.162 L 46.39 141.82 "/>
          <path id="Fill-49" fill="#000000" stroke="none" stroke-width="1" d="M 62.899 121.554 C 62.899 121.554 59.232 121.595 55.546 121.639 C 51.96 121.682 48.356 121.726 48.09 121.736 C 47.851 124.789 46.39 141.82 46.39 141.82 C 46.39 141.82 60.869 141.871 62.069 141.966 C 62.128 141.763 62.174 141.606 62.211 141.482 C 61.3 140.48 59.216 140.995 58.02 140.53 C 58.616 138.557 61.85 126.934 62.899 121.554 "/>
          <path id="Fill-50" fill="#F01446" stroke="none" stroke-width="1" d="M 56.221 126.769 C 56.221 128.893 54.499 130.615 52.375 130.615 C 50.251 130.615 48.529 128.893 48.529 126.769 C 48.529 124.645 50.251 122.924 52.375 122.924 C 54.499 122.924 56.221 124.645 56.221 126.769 "/>
          <path id="Fill-51" fill="#780046" stroke="none" stroke-width="1" d="M 54.199 126.769 C 54.199 127.777 53.382 128.594 52.375 128.594 C 51.367 128.594 50.55 127.777 50.55 126.769 C 50.55 125.761 51.367 124.945 52.375 124.945 C 53.382 124.945 54.199 125.761 54.199 126.769 "/>
          <path id="Fill-52" fill="#780046" stroke="none" stroke-width="1" d="M 61.723 123.368 C 61.723 123.79 61.38 124.133 60.958 124.133 C 60.535 124.133 60.193 123.79 60.193 123.368 C 60.193 122.945 60.535 122.603 60.958 122.603 C 61.38 122.603 61.723 122.945 61.723 123.368 "/>
          <path id="Fill-53" fill="#780046" stroke="none" stroke-width="1" d="M 60.894 126.367 C 60.894 126.789 60.551 127.132 60.129 127.132 C 59.706 127.132 59.363 126.789 59.363 126.367 C 59.363 125.944 59.706 125.602 60.129 125.602 C 60.551 125.602 60.894 125.944 60.894 126.367 "/>
          <path id="Fill-54" fill="#780046" stroke="none" stroke-width="1" d="M 60.191 129.494 C 60.191 129.916 59.849 130.259 59.426 130.259 C 59.004 130.259 58.661 129.916 58.661 129.494 C 58.661 129.071 59.004 128.729 59.426 128.729 C 59.849 128.729 60.191 129.071 60.191 129.494 "/>
          <path id="Fill-55" fill="#780046" stroke="none" stroke-width="1" d="M 59.426 132.11 C 59.426 132.533 59.083 132.875 58.661 132.875 C 58.238 132.875 57.896 132.533 57.896 132.11 C 57.896 131.688 58.238 131.345 58.661 131.345 C 59.083 131.345 59.426 131.688 59.426 132.11 "/>
          <path id="Fill-56" fill="#780046" stroke="none" stroke-width="1" d="M 58.724 134.854 C 58.724 135.276 58.382 135.619 57.959 135.619 C 57.536 135.619 57.194 135.276 57.194 134.854 C 57.194 134.431 57.536 134.089 57.959 134.089 C 58.382 134.089 58.724 134.431 58.724 134.854 "/>
          <path id="Fill-57" fill="#780046" stroke="none" stroke-width="1" d="M 57.958 137.726 C 57.958 138.148 57.616 138.491 57.193 138.491 C 56.771 138.491 56.428 138.148 56.428 137.726 C 56.428 137.303 56.771 136.961 57.193 136.961 C 57.616 136.961 57.958 137.303 57.958 137.726 "/>
        </g>
        <g id="Left-Leg">
          <path id="Fill-58" fill="#BE965A" stroke="none" stroke-width="1" d="M 39.913 115.771 C 38.855 115.843 28.92 115.581 28.601 115.532 C 28.166 113.019 25.97 105.908 26.138 101.187 C 26.238 98.384 27.005 95.531 28.665 93.965 C 29.661 93.025 30.979 92.549 32.667 92.823 C 37.031 93.534 38.436 100.005 38.992 103.695 C 39.523 107.216 39.465 112.277 39.913 115.771 "/>
          <path id="Fill-59" fill="#F0E6D2" stroke="none" stroke-width="1" d="M 27.433 113.627 C 27.874 116.523 28.615 121.437 28.871 123.445 C 31.953 124.485 38.134 124.154 41.315 123.465 C 41.729 122.345 40.796 116.337 40.38 113.627 L 27.433 113.627 Z "/>
          <path id="Fill-60" fill="#F01446" stroke="none" stroke-width="1" d="M 44.049 141.82 L 44.28 143.295 L 28.615 143.203 L 28.37 141.966 L 37.461 140.162 L 44.049 141.82 "/>
          <path id="Fill-61" fill="#000000" stroke="none" stroke-width="1" d="M 27.541 121.554 C 27.541 121.554 31.208 121.595 34.894 121.639 C 38.48 121.682 42.084 121.726 42.35 121.736 C 42.589 124.789 44.05 141.82 44.05 141.82 C 44.05 141.82 29.571 141.871 28.371 141.966 C 28.312 141.763 28.265 141.606 28.229 141.482 C 29.14 140.48 31.224 140.995 32.42 140.53 C 31.824 138.557 28.707 127.568 27.541 121.554 "/>
          <path id="Fill-62" fill="#F01446" stroke="none" stroke-width="1" d="M 34.219 126.769 C 34.219 128.893 35.941 130.615 38.065 130.615 C 40.189 130.615 41.911 128.893 41.911 126.769 C 41.911 124.645 40.189 122.924 38.065 122.924 C 35.941 122.924 34.219 124.645 34.219 126.769 "/>
          <path id="Fill-63" fill="#780046" stroke="none" stroke-width="1" d="M 36.24 126.769 C 36.24 127.777 37.057 128.594 38.065 128.594 C 39.073 128.594 39.89 127.777 39.89 126.769 C 39.89 125.761 39.073 124.945 38.065 124.945 C 37.057 124.945 36.24 125.761 36.24 126.769 "/>
          <path id="Fill-64" fill="#780046" stroke="none" stroke-width="1" d="M 28.716 123.368 C 28.716 123.79 29.059 124.133 29.481 124.133 C 29.904 124.133 30.246 123.79 30.246 123.368 C 30.246 122.945 29.904 122.603 29.481 122.603 C 29.059 122.603 28.716 122.945 28.716 123.368 "/>
          <path id="Fill-65" fill="#780046" stroke="none" stroke-width="1" d="M 29.546 126.367 C 29.546 126.789 29.889 127.132 30.311 127.132 C 30.733 127.132 31.076 126.789 31.076 126.367 C 31.076 125.944 30.733 125.602 30.311 125.602 C 29.889 125.602 29.546 125.944 29.546 126.367 "/>
          <path id="Fill-66" fill="#780046" stroke="none" stroke-width="1" d="M 30.248 129.494 C 30.248 129.916 30.59 130.259 31.013 130.259 C 31.435 130.259 31.778 129.916 31.778 129.494 C 31.778 129.071 31.435 128.729 31.013 128.729 C 30.59 128.729 30.248 129.071 30.248 129.494 "/>
          <path id="Fill-67" fill="#780046" stroke="none" stroke-width="1" d="M 31.014 132.11 C 31.014 132.533 31.356 132.875 31.779 132.875 C 32.201 132.875 32.544 132.533 32.544 132.11 C 32.544 131.688 32.201 131.345 31.779 131.345 C 31.356 131.345 31.014 131.688 31.014 132.11 "/>
          <path id="Fill-69" fill="#780046" stroke="none" stroke-width="1" d="M 32.481 137.726 C 32.481 138.148 32.824 138.491 33.246 138.491 C 33.669 138.491 34.012 138.148 34.012 137.726 C 34.012 137.303 33.669 136.961 33.246 136.961 C 32.824 136.961 32.481 137.303 32.481 137.726 "/>
        </g>
      </g>
    </g>
  </g>
</svg>