<svg xmlns="http://www.w3.org/2000/svg" xmlns:xlink="http://www.w3.org/1999/xlink" width="151.8465576171875" height="89.66777038574219" viewBox="3.561398506164551 30.56033706665039 151.8465576171875 89.66777038574219" version="1.1" xml:space="preserve">
  <defs/>
  <g>
    <title>toucan-c</title>
    <desc>Created with Sketch.</desc>
    <g id="jungle" stroke="none" fill-rule="evenodd">
      <g id="toucan-c">
        <g id="Group-39">
          <g id="Group-4">
            <path d="M 99.3221 43.8339 L 108.0346 73.564 C 108.0346 73.564 110.0379 80.5933 109.4642 82.2117 C 108.5413 84.8085 106.6634 97.8036 68.4563 113.2744 C 68.4563 113.2744 79.6927 103.8135 81.0843 101.8525 C 81.0843 101.8525 77.9862 104.2263 72.7875 106.1087 C 72.7875 106.1087 76.938 102.5066 80.5993 93.8572 C 81.0126 94.0194 77.978 95.0815 75.8705 97.5396 C 75.8705 97.5396 78.4036 89.2239 77.9734 84.4021 L 75.119 87.3046 C 75.119 87.3046 76.4331 80.0522 77.1752 73.4469 L 75.0706 75.7802 L 75.4839 62.3137 C 75.4839 62.3137 75.4157 54.3564 77.8982 52.2596 " id="Fill-1" fill="#2E4166" stroke-width="1"/>
            <path d="M 99.3221 43.8339 L 108.0346 73.564 C 108.0346 73.564 110.0379 80.5933 109.4642 82.2117 C 108.5413 84.8085 106.6634 97.8036 68.4563 113.2744 C 68.4563 113.2744 79.6927 103.8135 81.0843 101.8525 C 81.0843 101.8525 77.9862 104.2263 72.7875 106.1087 C 72.7875 106.1087 76.938 102.5066 80.5993 93.8572 C 81.0126 94.0194 77.978 95.0815 75.8705 97.5396 C 75.8705 97.5396 78.4036 89.2239 77.9734 84.4021 L 75.119 87.3046 C 75.119 87.3046 76.4331 80.0522 77.1752 73.4469 L 75.0706 75.7802 L 75.4839 62.3137 C 75.4839 62.3137 75.4157 54.3564 77.8982 52.2596 " id="Stroke-3" stroke="#5F6484" stroke-width="0.5" fill="none"/>
          </g>
          <path d="M 96.8084 90.9642 C 96.8084 90.9642 96.9635 90.8951 97.2451 90.7464 C 97.525 90.5959 97.9401 90.3764 98.4362 90.0449 C 98.9335 89.7147 99.5224 89.2879 100.1573 88.7398 C 100.7863 88.1882 101.4714 87.5178 102.0783 86.66 C 102.6899 85.8122 103.2501 84.7793 103.5306 83.5714 C 103.8238 82.3745 103.8244 81.0073 103.4472 79.7092 C 103.3959 79.54 103.3644 79.3989 103.2956 79.2051 L 103.1236 78.7537 C 103.0094 78.4521 102.8939 78.1476 102.7767 77.842 C 102.5033 77.2319 102.2223 76.6054 101.922 75.9935 C 101.6101 75.3957 101.2965 74.7932 100.9811 74.1889 C 100.6499 73.5946 100.3176 72.9979 99.9847 72.4024 C 99.2897 71.2296 98.5884 70.0615 97.873 68.9291 C 97.1717 67.7873 96.4307 66.6983 95.7287 65.6343 C 95.0256 64.5722 94.3202 63.5622 93.6479 62.6078 C 92.9804 61.651 92.3315 60.7581 91.7275 59.9378 C 90.5294 58.2901 89.4695 56.9627 88.7483 56.0194 C 88.0149 55.0843 87.5776 54.5638 87.5776 54.5638 C 87.5776 54.5638 87.9356 55.1405 88.5623 56.1512 C 89.1932 57.1565 90.0939 58.5934 91.1754 60.3172 C 92.2557 62.038 93.5168 64.0452 94.8676 66.1959 C 95.5322 67.2762 96.219 68.3916 96.9169 69.5263 C 97.6171 70.6582 98.2986 71.8239 98.9773 72.9903 C 99.3113 73.5753 99.6454 74.1602 99.9783 74.7428 C 100.2937 75.3336 100.6079 75.9215 100.9193 76.5046 C 101.2055 77.0884 101.4889 77.6675 101.7699 78.2407 C 101.8958 78.5423 102.02 78.8432 102.1436 79.1419 L 102.3296 79.5869 C 102.371 79.694 102.4188 79.8632 102.4637 79.9973 C 102.821 81.1356 102.8898 82.3107 102.6829 83.3887 C 102.4806 84.4696 102.0421 85.4503 101.525 86.287 C 101.0044 87.1243 100.4155 87.8311 99.8593 88.426 C 99.2967 89.015 98.7604 89.4899 98.3027 89.8611 C 97.3874 90.6047 96.8084 90.9642 96.8084 90.9642 " id="Fill-5" fill="#1E223D" stroke-width="1"/>
          <path d="M 154.4657 58.714 C 154.4657 58.714 156.2608 50.5593 151.4812 45.7604 C 147.343 41.606 129.2568 28.4838 102.5747 31.5086 C 93.8453 32.6071 92.5084 38.1099 90.205 39.8864 C 88.2863 41.366 87.4567 43.0991 66.9539 43.7561 C 66.9539 43.7561 52.8887 46.2446 32.9241 46.2938 C 32.9241 46.2938 15.8191 44.8551 12.2196 44.5542 C 7.6896 44.1759 4.0615 45.0975 4.0615 46.391 C 4.0615 47.7822 13.5354 49.8321 13.5354 49.8321 C 13.5354 49.8321 12.1794 50.5289 12.9635 53.0098 C 13.4643 54.5942 18.4555 53.5596 23.7329 52.101 C 27.045 51.1858 29.8965 50.2332 29.8965 50.2332 C 37.5847 59.0167 54.8809 73.8861 76.5497 69.0555 C 89.0844 66.4693 100.0608 53.7364 101.9107 51.4897 C 107.2546 45.0003 113.8502 47.6141 113.8502 47.6141 C 113.8502 47.6141 133.2866 47.62 149.197 52.731 C 149.197 52.731 152.895 53.7873 154.4657 58.714 " id="Fill-7" fill="#353C62" stroke-width="1"/>
          <path d="M 100.9527 38.2451 C 100.9527 38.2451 98.3158 38.9501 97.4412 47.815 C 96.8897 53.4032 91.5919 57.9557 86.343 61.415 C 73.9132 69.6077 63.0441 69.1439 60.2888 69.0309 C 60.2888 69.0309 67.9508 71.7566 80.4156 67.9231 C 91.8047 64.4199 98.3595 54.141 100.7778 52.5378 C 108.3214 47.5374 113.5848 47.6013 113.5848 47.6013 C 110.7479 44.6871 107.8311 42.3145 105.681 41.1616 C 100.0788 38.1591 100.9527 38.2451 100.9527 38.2451 " id="Fill-9" fill="#FAF1E8" stroke-width="1"/>
          <path d="M 108.3212 42.9997 C 108.3212 42.9997 110.371 42.7321 110.662 40.5287 C 110.8963 38.7517 110.3856 34.475 110.7413 33.2015 C 111.0975 31.9274 111.5686 31.2054 111.5686 31.2054 C 111.5686 31.2054 133.4875 30.1819 151.4809 45.7604 C 156.1025 49.7613 154.4654 58.714 154.4654 58.714 C 154.4654 58.714 153.5786 54.7037 149.0818 52.6948 C 144.3892 50.5992 119.3937 46.8723 113.8499 47.6142 L 108.3212 42.9997 Z " id="Fill-11" fill="#FFA364" stroke-width="1"/>
          <path d="M 113.8501 47.6141 L 108.5249 43.0991 C 108.5249 43.0991 138.8561 45.7925 149.7164 52.7275 C 149.7164 52.7275 132.6598 47.6029 113.8501 47.6141 " id="Fill-13" fill="#FF7664" stroke-width="1"/>
          <path d="M 154.4497 59.0307 C 154.4497 59.0307 157.746 48.1042 146.6572 42.0212 C 141.729 39.3178 136.3163 39.001 135.5677 42.184 C 135.0704 44.3001 136.8293 47.6733 145.6905 50.6823 C 150.2514 52.231 153.8253 55.3694 154.4497 59.0307 " id="Fill-15" fill="#353C62" stroke-width="1"/>
          <path d="M 154.4657 58.714 C 154.4657 58.714 156.2608 50.5593 151.4812 45.7604 C 147.343 41.606 129.2568 28.4838 102.5747 31.5086 C 92.8443 32.5362 91.8281 40.2347 87.9662 41.4872 C 84.5655 43.2438 71.4128 43.4136 66.9539 43.7561 C 62.7405 43.9628 50.801 47.4402 28.3049 46.0736 C 28.3049 46.0736 20.7502 45.5127 16.5963 44.9529 C 12.0919 44.3457 4.0283 43.9757 4.0615 46.391 C 4.0813 47.7822 13.5354 49.8321 13.5354 49.8321 C 13.5354 49.8321 12.0832 52.022 13.0959 53.1989 C 14.4805 54.8091 26.0702 51.6607 30.0055 50.1969 C 30.0055 50.1969 44.9697 70.373 70.3814 69.9695 C 84.3714 69.2997 94.1537 59.7913 96.017 57.5552 C 105.0076 46.7686 113.8502 47.6141 113.8502 47.6141 C 113.8502 47.6141 133.2866 47.62 149.197 52.731 C 149.197 52.731 152.895 53.7873 154.4657 58.714 Z " id="Stroke-17" stroke="#1E223D" stroke-width="0.5" fill="none"/>
          <path d="M 110.6345 34.1418 C 110.6345 34.1418 100.8334 31.2809 100.0604 35.3802 C 99.2879 39.4801 105.3553 41.9334 108.2301 42.9587 C 108.2301 42.9587 110.319 42.6724 110.6875 40.3835 C 111.0566 38.0953 110.4671 35.9786 110.6345 34.1418 " id="Fill-19" fill="#FFD5A3" stroke-width="1"/>
          <path d="M 111.6923 31.0718 C 111.6923 31.0718 110.3881 32.2189 110.6592 35.4686 C 110.9297 38.7182 111.2965 42.53 108.3214 42.9996 C 108.3214 42.9996 113.4449 47.1937 114.0191 47.815 " id="Stroke-21" stroke="#1E223D" stroke-width="0.5" fill="none"/>
          <path d="M 108.3212 42.9997 C 108.3212 42.9997 150.291 47.0052 153.5885 56.6647 " id="Stroke-23" stroke="#1E223D" stroke-width="0.5" fill="none"/>
          <path d="M 146.6776 41.9121 C 146.6776 41.9121 137.3406 37.3977 135.6732 41.8459 C 134.1212 45.988 141.7021 48.9976 143.3591 49.7968 " id="Stroke-25" stroke="#1E223D" stroke-width="0.5" fill="none"/>
          <path d="M 103.7846 36.7327 C 103.9951 35.5798 105.0958 34.8168 106.2444 35.0276 C 107.3923 35.239 108.1526 36.3456 107.9421 37.4979 C 107.7322 38.6508 106.6309 39.4149 105.4824 39.2036 C 104.3338 38.9922 103.5748 37.8861 103.7846 36.7327 " id="Fill-27" fill="#1E223D" stroke-width="1"/>
          <path d="M 104.752 36.9111 C 104.8849 36.1815 105.5816 35.699 106.3069 35.8325 C 107.0327 35.966 107.5137 36.6657 107.3808 37.3947 C 107.2473 38.1237 106.5512 38.6067 105.8253 38.4721 C 105.1 38.3386 104.6185 37.6395 104.752 36.9111 " id="Fill-29" fill="#495AA9" stroke-width="1"/>
          <path d="M 105.2239 36.998 C 105.309 36.5296 105.7556 36.221 106.2209 36.3065 C 106.6855 36.3926 106.994 36.8399 106.9094 37.3078 C 106.8237 37.7744 106.3771 38.0842 105.9125 37.9987 C 105.4466 37.9126 105.1388 37.4647 105.2239 36.998 " id="Fill-31" fill="#1E223D" stroke-width="1"/>
          <path d="M 30.114 50.0065 C 30.114 50.0065 29.6959 49.4766 29.3152 48.921 C 29.1188 48.6464 28.9328 48.3647 28.8115 48.1428 C 28.6821 47.9238 28.5958 47.7774 28.5958 47.7774 C 28.5958 47.7774 28.6593 47.9349 28.7538 48.1709 C 28.8418 48.4121 28.9853 48.7219 29.1392 49.0252 C 29.4371 49.6406 29.7741 50.2331 29.7747 50.2331 L 30.114 50.0065 Z " id="Fill-33" fill="#1E223D" stroke-width="1"/>
          <g id="Group-38">
            <path d="M 83.4242 49.8321 L 74.679 88.9148 C 74.679 88.9148 72.5592 98.131 71.1081 99.8202 C 68.7789 102.5312 59.6665 117.2397 15.3576 119.7281 C 15.3576 119.7281 31.1718 113.141 33.5767 111.3844 C 33.5767 111.3844 29.3499 112.9214 23.4469 112.9946 C 23.4469 112.9946 29.3499 110.4329 37.6578 101.65 C 37.9493 102.016 34.5241 102.016 31.1718 104.0653 C 31.1718 104.0653 38.2408 95.2092 40.5728 89.2808 L 36.2731 91.5497 C 36.2731 91.5497 41.6054 83.4519 46.0386 75.8869 L 42.7591 77.7898 L 50.7755 61.9074 C 50.7755 61.9074 55.221 52.3926 58.7191 50.9288 " id="Fill-35" fill="#353C62" stroke-width="1"/>
            <path d="M 83.4242 49.8321 L 74.679 88.9148 C 74.679 88.9148 72.5592 98.131 71.1081 99.8202 C 68.7789 102.5312 59.6665 117.2397 15.3576 119.7281 C 15.3576 119.7281 31.1718 113.141 33.5767 111.3844 C 33.5767 111.3844 29.3499 112.9214 23.4469 112.9946 C 23.4469 112.9946 29.3499 110.4329 37.6578 101.65 C 37.9493 102.016 34.5241 102.016 31.1718 104.0653 C 31.1718 104.0653 38.2408 95.2092 40.5728 89.2808 L 36.2731 91.5497 C 36.2731 91.5497 41.6054 83.4519 46.0386 75.8869 L 42.7591 77.7898 L 50.7755 61.9074 C 50.7755 61.9074 55.221 52.3926 58.7191 50.9288 " id="Stroke-37" stroke="#5F6484" stroke-width="0.5" fill="none"/>
          </g>
        </g>
      </g>
    </g>
  </g>
</svg>