<svg xmlns="http://www.w3.org/2000/svg" xmlns:xlink="http://www.w3.org/1999/xlink" version="1.1" width="89.85348733337366" height="90.65136941345179" viewBox="11.947325547180357 -0.1448508901975718 89.85348733337366 90.65136941345179">
  <!-- Exported by Scratch - http://scratch.mit.edu/ -->
  <path id="ID0.7662904155440629" fill="#919191" stroke="#919191" stroke-width="3.0186484661861592" d="M 71.7097 66.2616 C 79.1323 66.2298 85.8535 67.4747 90.7171 69.5113 C 95.5815 71.5491 98.5868 74.3775 98.5769 77.5139 C 98.567 80.6503 95.5437 83.5045 90.6664 85.584 C 85.7897 87.6624 79.0605 88.9648 71.6378 88.9966 C 64.2152 89.0284 57.494 87.7835 52.6304 85.7469 C 47.766 83.709 44.7607 80.8807 44.7706 77.7443 C 44.7805 74.6078 47.8038 71.7537 52.6812 69.6741 C 57.5578 67.5958 64.2871 66.2934 71.7097 66.2616 Z "/>
  <path id="ID0.8972083395346999" fill="#A85B00" stroke="none" stroke-linecap="round" d="M 65.744 21.0624 C 77.3644 25.7787 86.9747 32.318 93.1138 39.0728 C 99.2528 45.8277 101.5235 51.8523 99.6566 58.3761 C 97.1181 67.2288 89.6161 75.5691 80.8922 79.1577 C 71.1964 83.4356 59.0976 83.8213 48.8623 80.0676 C 36.9605 75.7009 25.4406 67.229 19.0614 56.3746 C 13.3764 47.0713 11.748 34.1646 15.4188 24.1866 C 17.7646 17.819 24.4538 15.469 33.564 14.9034 C 42.6742 14.3378 54.1236 16.346 65.744 21.0624 Z " stroke-width="0.6910801836969137"/>
  <path id="ID0.10735392430797219" fill="#EF9300" stroke="#EAC28E" stroke-width="2.3714589273605515" stroke-linecap="round" d="M 65.9956 21.1923 C 77.0685 25.6865 86.3776 31.5419 92.474 37.371 C 98.5701 43.2007 101.4528 49.0038 99.6709 53.394 C 97.889 57.7843 91.7774 59.9368 83.3427 59.869 C 74.9083 59.8005 64.1516 57.5117 53.0787 53.0176 C 42.0058 48.5235 32.6966 42.668 26.6003 36.8389 C 20.5041 31.0092 17.6215 25.2061 19.4033 20.8159 C 21.1852 16.4257 27.2968 14.2731 35.7315 14.341 C 44.1659 14.4095 54.9227 16.6982 65.9956 21.1923 Z "/>
  <path id="ID0.4141157087869942" fill="none" stroke="#EAC28E" stroke-width="1.378791351498305" stroke-linecap="round" d="M 63.3928 20.8404 C 63.3928 20.8404 59.0879 33.4482 55.3133 38.8174 C 52.5218 42.7882 44.1588 48.1999 44.1588 48.1999 "/>
  <path id="ID0.011384283192455769" fill="none" stroke="#EAC28E" stroke-width="1.378791351498305" stroke-linecap="round" d="M 56.855 35.9377 L 92.151 37.5469 "/>
  <path id="ID0.8657065210863948" fill="none" stroke="#EAC28E" stroke-width="1.378791351498305" stroke-linecap="round" d="M 77.2849 58.9225 C 77.2849 58.9225 56.5821 36.6101 56.5821 36.6101 L 22.1758 17.6486 "/>
  <path id="ID0.9600630304776132" fill="none" stroke="#EAC28E" stroke-width="1.378791351498305" stroke-linecap="round" d="M 55.2694 36.0773 L 26.1603 35.4876 "/>
  <path id="ID0.13748089503496885" fill="none" stroke="#EAC28E" stroke-width="1.378791351498305" stroke-linecap="round" d="M 55.6689 37.0226 L 41.5498 14.66 "/>
  <path id="ID0.14989860635250807" fill="none" stroke="#EAC28E" stroke-width="1.378791351498305" stroke-linecap="round" d="M 56.5315 37.7456 L 98.5741 54.0635 "/>
  <path id="ID0.12017638329416513" fill="none" stroke="#EF9300" stroke-width="1.543789701834321" stroke-linecap="round" d="M 59.7437 13.574 C 59.1757 9.8846 56.9016 7.978 57.0741 5.6041 C 57.2111 3.7215 59.4558 0.9142 60.9044 1.4257 C 62.6864 2.0555 63.5352 5.5638 63.5352 7.8867 C 63.5352 10.2096 62.1695 12.7948 60.9044 14.3478 C 60.4672 14.884 60.4525 12.8002 60.1306 12.0651 Z "/>
  <path id="ID0.2274529174901545" fill="none" stroke="#EF9300" stroke-width="1.543789701834321" stroke-linecap="round" d="M 52.2064 10.4567 C 51.1579 9.1165 50.3447 7.6889 49.1886 7.7871 C 48.0945 7.88 46.7118 9.6752 47.2542 10.4567 C 48.0272 11.5709 50.2596 11.711 51.8195 11.5787 C 52.3201 11.5361 52.1058 10.4822 51.8195 10.0698 Z "/>
  <path id="ID0.12017638329416513" fill="none" stroke="#EF9300" stroke-width="1.6084317214031978" stroke-linecap="round" d="M 73.8316 19.082 C 77.35 17.8128 80.2168 19.0261 82.1958 17.7017 C 83.7652 16.6513 85.0249 13.1593 83.8119 12.0425 C 82.3191 10.6689 78.81 11.5844 76.7841 12.721 C 74.7583 13.8576 73.2268 16.4114 72.5423 18.3652 C 72.3061 19.0402 74.1312 18.0345 74.9427 17.9786 Z "/>
  <path id="ID0.2274529174901545" fill="none" stroke="#EF9300" stroke-width="1.6084317214031978" stroke-linecap="round" d="M 84.7022 23.7662 C 86.4261 24.0999 88.1018 24.1689 88.6282 25.308 C 89.1265 26.386 88.293 28.5693 87.3243 28.4398 C 85.9432 28.2555 84.6391 26.2172 83.9285 24.6803 C 83.7006 24.187 84.7332 23.8736 85.2444 23.942 Z "/>
</svg>