<svg xmlns="http://www.w3.org/2000/svg" xmlns:xlink="http://www.w3.org/1999/xlink" width="123.80000305175781" height="265.2995910644531" viewBox="8.5 17.500391006469727 123.80000305175781 265.2995910644531" version="1.1" xml:space="preserve">
  <!-- Generator: Sketch 49.3 (51167) - http://www.bohemiancoding.com/sketch -->
  <defs/>
  <g>
    <title>princess-b</title>
    <desc>Created with Sketch.</desc>
    <g id="princess-b" stroke="none" fill-rule="evenodd">
      <g id="Princess-Wishful">
        <g id="Group">
          <path d="M 45.5 84.3 C 49.8 81.9 48.9 78 48.9 78 C 48.4 83 42.7 79.7 42.7 79.7 C 45.1 80.5 46.3 78.6 46 75.7 C 45.1 76.5 43.7 76.3 43.7 76.3 C 45.4 76.1 45.3 73.8 44.8 71.9 C 44.6 71.6 44.5 71.2 44.3 70.9 C 41.4 65.6 47.6 64.1 47.6 64.1 C 44.9 64.4 45.4 59.8 45.4 59.8 C 45.4 59.8 46.2 62.8 48.7 61 C 51.2 59.2 52.1 48.9 52.1 48.9 C 54.8 41.8 60 42.9 73.6 42.1 C 87.2 41.3 89.6 60.4 89.9 63.6 C 90.5 70.3 95.8 69.8 95.8 69.8 C 94.4 72 91.2 70.8 91.2 70.8 C 91.2 70.8 94.2 72.7 92.4 76.9 C 92.4 76.9 92.6 75.5 92 74.3 C 91.9 75 91.7 75.8 91.5 76.6 C 90.9 79.1 95.3 80.9 95.3 80.9 C 92.3 82 90.1 79.2 90.1 79.2 C 90.1 79.2 91 81 92.6 83.8 C 93.4 84.9 94.6 85.1 95.7 85.6 C 95.7 85.6 94.6 86.3 93.5 85.9 C 93.9 88.5 91.6 90.8 91.6 90.8 C 92.7 87.7 88.6 84.6 88.6 84.6 C 88.6 84.6 90.8 87.6 89.4 89.6 C 88 91.6 90.1 93.5 90.1 93.5 C 85.4 92.6 85.5 89 85.5 89 C 83.1 91.7 86.2 96.2 86.2 96.2 C 82.8 95.2 82.9 90 82.9 90 C 82.9 90 82.3 93.7 83.3 96 C 84.3 98.3 81.6 99.9 81.6 99.9 C 81.6 99.9 83.2 98.1 80.6 96.7 C 78.9 95.8 78.3 93.9 78.1 92.7 C 78.3 96.6 74.9 98 74.9 98 C 76.5 96.2 74.8 91.8 74.8 91.8 C 74.8 91.8 75.2 94.9 73.6 96.9 C 72 98.9 74.2 101.6 74.2 101.6 C 71.7 100.6 71.2 98.5 71.2 98.5 C 70.6 100.6 71.8 103 71.8 103 C 71.8 103 67.4 100.4 68.4 96.6 C 69.4 92.8 66.4 90.4 66.4 90.4 C 66.4 90.4 67.6 93 65.4 96.4 C 63.3 99.8 65.7 101.5 65.7 101.5 C 61.5 100 60.7 95.5 60.7 95.5 C 60.4 103 53.6 100.2 53.6 100.2 C 55 100 57.8 96 54.6 95.2 C 53 94.8 52.5 94 52.4 93.4 C 52.5 95.7 54.6 97 54.6 97 C 45.5 97.1 47.2 90.6 47.2 90.6 C 43.7 92.9 46.7 95.6 46.7 95.6 C 41.6 95 41.2 86.7 45.5 84.3 Z " id="Shape" fill="#261C17" fill-rule="nonzero" stroke-width="1"/>
          <path d="M 50.8 56.9 C 50.8 56.9 50.7 57.5 50.5 58.3 C 50.3 59.1 49.8 60.2 49.1 61.1 C 48.9 61.3 48.7 61.5 48.4 61.7 C 48.1 61.9 47.8 62 47.5 61.9 C 47.2 61.9 46.9 61.7 46.7 61.6 C 46.5 61.4 46.3 61.2 46.2 61.1 C 45.9 60.7 45.8 60.4 45.7 60.2 C 45.6 60 45.6 59.8 45.6 59.8 C 45.6 59.8 45.7 59.9 45.8 60.1 C 45.9 60.3 46.2 60.6 46.5 60.8 C 46.8 61.1 47.2 61.3 47.6 61.3 C 48 61.3 48.4 61 48.7 60.6 C 49.4 59.8 49.9 58.8 50.3 58.1 C 50.5 57.4 50.8 56.9 50.8 56.9 Z " id="Shape" fill="#120D0B" fill-rule="nonzero" stroke-width="1"/>
          <path d="M 47.7 64.1 C 47.7 64.1 47.3 64.3 46.6 64.7 C 46 65 45.2 65.5 44.6 66.2 C 44.4 66.3 44.3 66.5 44.2 66.7 C 44.1 66.9 44 67.1 43.9 67.2 C 43.8 67.6 43.7 68 43.7 68.3 C 43.7 68.5 43.7 68.6 43.7 68.8 C 43.7 68.9 43.8 69.1 43.8 69.2 C 43.8 69.4 43.9 69.5 43.9 69.5 C 43.9 69.5 43.8 69.4 43.7 69.2 C 43.6 69 43.4 68.8 43.3 68.4 C 43.2 68.2 43.2 68 43.2 67.8 C 43.2 67.6 43.2 67.3 43.3 67.1 C 43.3 66.9 43.5 66.6 43.6 66.4 C 43.8 66.2 43.9 66 44.1 65.8 C 44.3 65.6 44.5 65.4 44.7 65.3 C 44.9 65.1 45.1 65 45.3 64.9 C 45.7 64.7 46.1 64.5 46.5 64.4 C 47.2 64.1 47.7 64.1 47.7 64.1 Z " id="Shape" fill="#120D0B" fill-rule="nonzero" stroke-width="1"/>
          <path d="M 42.7 79.7 C 42.7 79.7 42.8 79.7 43 79.7 C 43.2 79.7 43.4 79.8 43.7 79.7 C 44 79.7 44.3 79.6 44.6 79.5 C 44.7 79.4 44.9 79.3 45 79.2 L 45.2 79 L 45.3 78.8 C 45.4 78.7 45.4 78.5 45.5 78.3 C 45.6 78.1 45.6 77.9 45.6 77.8 C 45.7 77.4 45.7 77.1 45.8 76.8 C 45.9 76.2 45.9 75.8 45.9 75.8 C 45.9 75.8 46 76.2 46.1 76.8 C 46.1 77.1 46.2 77.5 46.1 77.9 C 46.1 78.1 46.1 78.3 46 78.5 C 45.9 78.7 45.9 78.9 45.8 79.1 L 45.6 79.4 L 45.4 79.7 C 45.2 79.9 45 80 44.8 80.1 C 44.6 80.2 44.4 80.2 44.2 80.2 C 44 80.2 43.8 80.2 43.7 80.2 C 43.4 80.1 43.1 80 43 79.9 C 42.8 79.8 42.7 79.7 42.7 79.7 Z " id="Shape" fill="#120D0B" fill-rule="nonzero" stroke-width="1"/>
          <path d="M 47.1 83.4 C 47.1 83.4 46.9 83.5 46.5 83.8 C 46.1 84 45.6 84.4 45.1 84.9 C 44.8 85.2 44.5 85.4 44.3 85.8 C 44 86.1 43.8 86.5 43.6 86.9 C 43.5 87.1 43.4 87.3 43.3 87.5 C 43.1 87.8 43 88 43 88.2 L 42.8 89 C 42.8 89.2 42.8 89.5 42.8 89.7 C 42.8 89.9 42.8 90.2 42.8 90.4 C 42.8 90.6 42.8 90.9 42.9 91.1 C 43 91.6 43.1 92 43.3 92.5 C 43.5 92.9 43.7 93.3 43.9 93.7 C 44.1 94.1 44.4 94.4 44.6 94.6 C 45.1 95.1 45.7 95.4 46.1 95.5 C 46.5 95.6 46.8 95.6 46.8 95.6 C 46.8 95.6 46.5 95.7 46.1 95.6 C 45.7 95.5 45 95.4 44.4 94.8 C 44.1 94.6 43.8 94.2 43.5 93.9 C 43.2 93.5 43 93.1 42.8 92.7 C 42.6 92.3 42.4 91.8 42.3 91.3 C 42.2 91.1 42.2 90.8 42.2 90.5 C 42.2 90.2 42.1 90 42.1 89.7 C 42.1 89.4 42.1 89.2 42.1 88.9 C 42.2 88.6 42.2 88.4 42.3 88.1 C 42.4 87.9 42.5 87.6 42.6 87.4 C 42.7 87.2 42.8 86.9 42.9 86.7 C 43.2 86.3 43.5 85.9 43.8 85.6 C 44.1 85.3 44.4 85 44.7 84.7 C 45.3 84.2 45.9 83.9 46.3 83.7 C 46.8 83.5 47.1 83.4 47.1 83.4 Z " id="Shape" fill="#120D0B" fill-rule="nonzero" stroke-width="1"/>
          <path d="M 54.8 97 C 54.8 97 53.9 97.2 52.5 97.1 C 52.2 97.1 51.8 97 51.4 96.9 C 51 96.8 50.6 96.7 50.2 96.5 C 50 96.4 49.8 96.3 49.6 96.2 C 49.4 96.1 49.2 96 49 95.8 L 48.4 95.3 C 48.2 95.1 48.1 94.9 47.9 94.7 L 47.7 94.4 C 47.6 94.3 47.6 94.2 47.6 94.1 L 47.3 93.4 C 47.2 92.9 47.1 92.5 47.1 92 C 47.1 91.6 47.1 91.1 47.2 90.7 C 47.3 90.3 47.4 89.9 47.5 89.6 C 47.6 89.3 47.7 89 47.8 88.7 C 47.9 88.4 48 88.2 48.1 88 C 48.3 87.6 48.4 87.4 48.4 87.4 C 48.4 87.4 48.3 87.6 48.2 88 C 48.1 88.4 47.9 88.9 47.8 89.6 C 47.7 89.9 47.7 90.3 47.6 90.7 C 47.6 91.1 47.6 91.5 47.6 91.9 C 47.6 92.3 47.7 92.7 47.8 93.1 L 48.1 93.7 C 48.1 93.8 48.2 93.9 48.2 94 L 48.4 94.3 C 48.5 94.5 48.6 94.7 48.8 94.8 L 49.3 95.2 C 49.5 95.3 49.7 95.4 49.8 95.5 C 50 95.6 50.2 95.7 50.4 95.8 C 50.8 96 51.2 96.1 51.5 96.2 C 51.9 96.3 52.2 96.4 52.6 96.5 C 53.9 97 54.8 97 54.8 97 Z " id="Shape" fill="#120D0B" fill-rule="nonzero" stroke-width="1"/>
          <path d="M 43.7 76.3 C 43.7 76.3 47.6 77.2 47 71.4 " id="Shape" stroke="#120D0B" stroke-width="0.1951" fill="none"/>
          <path d="M 47.7 88.4 C 47.7 88.4 47.8 87.8 48.1 87.2 C 48.3 86.6 48.7 86.1 48.7 86.1 C 48.7 86.1 48.6 86.7 48.3 87.3 C 48.1 87.9 47.7 88.4 47.7 88.4 Z " id="Shape" fill="#120D0B" fill-rule="nonzero" stroke-width="1"/>
          <path d="M 47.9 86.5 C 47.9 86.5 48 86 48.2 85.6 C 48.4 85.2 48.7 84.8 48.7 84.8 C 48.7 84.8 48.6 85.3 48.4 85.7 C 48.2 86.1 47.9 86.5 47.9 86.5 Z " id="Shape" fill="#120D0B" fill-rule="nonzero" stroke-width="1"/>
          <path d="M 47.6 71.8 C 47.6 71.8 47.5 71.4 47.4 71 C 47.3 70.6 47.4 70.2 47.4 70.2 C 47.4 70.2 47.5 70.6 47.6 71 C 47.7 71.3 47.6 71.8 47.6 71.8 Z " id="Shape" fill="#120D0B" fill-rule="nonzero" stroke-width="1"/>
          <path d="M 48.3 70.9 C 48.3 70.9 48.1 70.5 48 70.1 C 47.9 69.7 47.9 69.3 47.9 69.3 C 47.9 69.3 48.1 69.7 48.2 70.1 C 48.3 70.5 48.3 70.9 48.3 70.9 Z " id="Shape" fill="#120D0B" fill-rule="nonzero" stroke-width="1"/>
          <path d="M 50.2 63.5 C 50.2 63.5 49.9 63.8 49.4 64 C 49.1 64.1 48.8 64.3 48.5 64.4 C 48.1 64.5 47.7 64.5 47.3 64.5 C 46.9 64.4 46.5 64.3 46.2 64 C 46 63.9 45.9 63.7 45.9 63.6 C 45.8 63.5 45.8 63.3 45.7 63.2 C 45.6 62.9 45.6 62.7 45.6 62.5 C 45.6 62.3 45.6 62.2 45.6 62.2 C 45.6 62.2 45.6 62.3 45.7 62.4 C 45.7 62.5 45.8 62.6 45.8 62.7 C 45.8 62.8 45.9 62.9 46 63 C 46.1 63.2 46.3 63.5 46.6 63.6 C 46.7 63.7 46.9 63.7 47 63.8 C 47.1 63.9 47.3 63.9 47.4 63.9 C 47.7 64 48.1 63.9 48.4 63.9 C 48.7 63.9 49 63.8 49.3 63.8 C 49.8 63.6 50.2 63.5 50.2 63.5 Z " id="Shape" fill="#120D0B" fill-rule="nonzero" stroke-width="1"/>
          <path d="M 95.4 80.8 C 95.4 80.8 94.9 81.1 94 81.1 C 93.8 81.1 93.5 81.1 93.3 81.1 C 93 81.1 92.8 81 92.5 81 C 92.2 80.9 91.9 80.8 91.7 80.7 C 91.4 80.6 91.2 80.4 90.9 80.2 C 90.7 80 90.5 79.8 90.3 79.5 C 90.1 79.3 90 79 89.9 78.8 C 89.8 78.5 89.7 78.3 89.6 78.1 C 89.5 77.9 89.5 77.6 89.5 77.4 C 89.4 77 89.4 76.6 89.4 76.4 C 89.4 76.2 89.4 76 89.4 76 C 89.4 76 89.5 76.1 89.5 76.4 C 89.6 76.6 89.6 77 89.8 77.4 C 89.9 77.6 90 77.8 90 78 C 90.1 78.2 90.2 78.4 90.3 78.6 C 90.4 78.8 90.6 79 90.7 79.2 C 90.9 79.4 91 79.6 91.2 79.7 C 91.6 80 92.1 80.3 92.5 80.4 C 92.7 80.5 93 80.6 93.2 80.6 C 93.4 80.6 93.6 80.7 93.8 80.7 C 94.2 80.7 94.6 80.8 94.8 80.7 C 95.2 80.8 95.4 80.8 95.4 80.8 Z " id="Shape" fill="#120D0B" fill-rule="nonzero" stroke-width="1"/>
          <path d="M 92.4 76.8 C 92.4 76.8 92.5 76.3 92.6 75.5 C 92.6 75.1 92.7 74.7 92.6 74.2 C 92.6 73.7 92.5 73.3 92.3 72.8 C 92.2 72.6 92.1 72.4 92 72.2 C 91.9 72 91.7 71.8 91.6 71.6 C 91.5 71.4 91.3 71.3 91.2 71.1 C 91.1 70.9 90.9 70.8 90.7 70.7 C 90.4 70.4 90.1 70.3 90 70.2 C 89.8 70.1 89.7 70 89.7 70 C 89.7 70 89.8 70 90 70.1 C 90.2 70.2 90.5 70.2 90.9 70.4 C 91.1 70.5 91.3 70.6 91.5 70.7 C 91.7 70.8 91.9 71 92.1 71.2 C 92.3 71.4 92.5 71.6 92.6 71.8 C 92.7 72 92.9 72.3 93 72.5 C 93.2 73 93.3 73.6 93.2 74.1 C 93.2 74.6 93.1 75.1 93 75.4 C 92.7 76.4 92.4 76.8 92.4 76.8 Z " id="Shape" fill="#120D0B" fill-rule="nonzero" stroke-width="1"/>
          <path d="M 95.8 69.8 C 95.8 69.8 95.7 69.8 95.4 69.9 C 95.1 69.9 94.7 69.9 94.3 69.9 C 94.1 69.9 93.8 69.8 93.6 69.7 C 93.4 69.6 93.1 69.5 92.8 69.4 C 92.5 69.3 92.3 69.1 92 68.9 C 91.7 68.7 91.5 68.5 91.3 68.3 C 91.1 68 90.9 67.8 90.8 67.5 C 90.7 67.2 90.5 67 90.4 66.7 C 90.3 66.4 90.2 66.2 90.1 65.9 C 90.1 65.6 90 65.4 90 65.2 C 89.9 64.8 90 64.4 89.9 64.1 C 89.9 63.8 89.9 63.7 89.9 63.7 C 89.9 63.7 89.9 63.8 90 64.1 C 90.1 64.4 90.1 64.7 90.3 65.1 C 90.4 65.3 90.4 65.5 90.5 65.8 C 90.6 66 90.7 66.3 90.8 66.5 C 90.9 66.8 91.1 67 91.2 67.2 C 91.3 67.4 91.5 67.6 91.7 67.9 C 91.9 68.1 92.1 68.3 92.3 68.5 C 92.5 68.7 92.7 68.8 93 69 C 93.2 69.2 93.5 69.2 93.7 69.4 C 93.9 69.5 94.1 69.6 94.4 69.6 C 94.8 69.7 95.2 69.8 95.4 69.9 C 95.7 69.8 95.8 69.8 95.8 69.8 Z " id="Shape" fill="#120D0B" fill-rule="nonzero" stroke-width="1"/>
          <path d="M 95.7 85.6 C 95.7 85.6 95.4 85.9 94.7 86 C 94.5 86 94.4 86.1 94.2 86.1 C 94 86.1 93.8 86.1 93.6 86.1 C 93.4 86.1 93.2 86 93 85.9 C 92.8 85.8 92.6 85.7 92.4 85.6 C 92 85.3 91.7 85 91.5 84.7 C 91.3 84.4 91.1 84 91 83.7 C 90.9 83.4 90.9 83.1 90.8 83 C 90.8 82.8 90.8 82.7 90.8 82.7 C 90.8 82.7 90.9 82.8 91 82.9 C 91.1 83.1 91.2 83.3 91.4 83.5 C 91.5 83.6 91.6 83.8 91.7 83.9 C 91.8 84 91.9 84.2 92 84.3 C 92.1 84.4 92.3 84.6 92.4 84.7 C 92.5 84.8 92.7 84.9 92.8 85 C 93 85.1 93.1 85.2 93.3 85.3 C 93.5 85.4 93.6 85.4 93.8 85.5 C 94.1 85.6 94.5 85.6 94.8 85.6 C 95.1 85.6 95.4 85.6 95.5 85.6 C 95.5 85.7 95.7 85.6 95.7 85.6 Z " id="Shape" fill="#120D0B" fill-rule="nonzero" stroke-width="1"/>
          <path d="M 88.7 76.6 C 88.7 76.6 88.6 76.3 88.6 75.9 C 88.6 75.5 88.7 75.2 88.7 75.2 C 88.7 75.2 88.8 75.5 88.8 75.9 C 88.7 76.2 88.7 76.6 88.7 76.6 Z " id="Shape" fill="#120D0B" fill-rule="nonzero" stroke-width="1"/>
          <path d="M 87.7 74.4 C 87.7 74.4 87.8 74.7 87.8 75 C 87.8 75.3 87.7 75.6 87.7 75.6 C 87.7 75.6 87.6 75.3 87.6 75 C 87.7 74.7 87.7 74.4 87.7 74.4 Z " id="Shape" fill="#120D0B" fill-rule="nonzero" stroke-width="1"/>
          <path d="M 89.7 70.8 C 89.7 70.8 89.4 70.7 89.2 70.6 C 89 70.5 88.8 70.2 88.8 70.2 C 88.8 70.2 89.1 70.3 89.3 70.4 C 89.6 70.6 89.7 70.8 89.7 70.8 Z " id="Shape" fill="#120D0B" fill-rule="nonzero" stroke-width="1"/>
        </g>
        <g id="Group" fill-rule="nonzero">
          <g id="Shape">
            <path d="M 98.6 97.5 C 97 93.1 88.6 75.5 84.2 87.6 C 80 99.3 97.8 136.6 102.9 131.3 C 108 126 102.3 107.4 98.6 97.5 Z " fill="#52B6CC" stroke-width="1"/>
            <path d="M 95.5 90.9 C 95.5 90.9 96.3 92.2 97.3 94.2 C 97.8 95.2 98.3 96.4 98.9 97.7 C 99.4 99 100 100.4 100.5 101.8 C 101 103.2 101.4 104.6 101.8 106 C 102.2 107.3 102.5 108.6 102.7 109.7 C 103 110.8 103.1 111.7 103.2 112.3 C 103.3 112.9 103.4 113.3 103.4 113.3 C 103.4 113.3 103.3 112.9 103.1 112.3 C 102.9 111.7 102.7 110.8 102.4 109.7 C 102.1 108.6 101.7 107.4 101.3 106.1 C 100.9 104.8 100.4 103.4 99.9 102 C 99.4 100.6 98.9 99.2 98.4 97.9 C 97.9 96.6 97.4 95.4 97 94.4 C 96.1 92.3 95.5 90.9 95.5 90.9 Z " fill="#2E83BF" stroke-width="1"/>
            <path d="M 87.3 83.5 C 87.3 83.5 87.2 83.6 86.9 83.7 C 86.7 83.9 86.4 84.1 86 84.5 C 85.7 84.9 85.3 85.4 85 86.1 C 84.8 86.4 84.7 86.8 84.6 87.2 C 84.5 87.4 84.5 87.6 84.4 87.8 C 84.4 88 84.3 88.2 84.3 88.4 C 84.1 89.3 84 90.2 84 91.2 C 84 91.7 84 92.2 84 92.8 C 84 93.3 84 93.9 84.1 94.4 C 84.2 95.5 84.3 96.7 84.6 97.8 C 84.8 98.9 85 100.1 85.3 101.3 C 85.6 102.4 85.8 103.6 86.2 104.7 C 86.6 105.8 86.9 106.9 87.2 108 C 87.5 109.1 87.9 110.1 88.3 111 C 88.6 112 89 112.9 89.3 113.7 C 90.6 117 91.5 119.3 91.5 119.3 C 91.5 119.3 90.5 117.1 89 113.9 C 88.6 113.1 88.3 112.2 87.9 111.2 C 87.5 110.2 87.1 109.2 86.7 108.2 C 86.4 107.1 86 106 85.6 104.9 C 85.2 103.8 85 102.6 84.6 101.4 C 84.3 100.2 84.1 99 83.9 97.9 C 83.7 96.7 83.6 95.6 83.5 94.4 C 83.4 93.8 83.4 93.3 83.4 92.7 C 83.4 92.2 83.4 91.6 83.4 91.1 C 83.5 90.1 83.6 89.1 83.9 88.2 C 84 88 84 87.8 84.1 87.6 C 84.2 87.4 84.3 87.2 84.3 87 C 84.5 86.6 84.6 86.2 84.8 85.9 C 85.1 85.2 85.5 84.7 85.9 84.4 C 86.3 84 86.6 83.8 86.9 83.6 C 87.1 83.6 87.3 83.5 87.3 83.5 Z " fill="#2E83BF" stroke-width="1"/>
          </g>
          <g id="Shape">
            <g>
              <path d="M 89.6 83.2 C 86.3 82.9 83.5 84.4 82 91.8 C 80.5 99.2 81.9 100.8 82.3 108.3 C 82.5 112.3 90 115.8 97.3 112.1 C 104.6 108.3 107.1 103.9 103.2 98 C 99.2 92.1 94.1 83.5 89.6 83.2 Z " fill="#6FCED9" stroke-width="1"/>
              <path d="M 96.2 87.9 C 96.2 87.9 97.4 89.2 99.1 91.4 C 99.9 92.5 100.9 93.8 101.8 95.2 C 102.7 96.6 103.7 98.2 104.5 99.9 C 104.9 100.8 105.2 101.6 105.4 102.6 C 105.4 102.7 105.4 102.8 105.5 103 L 105.5 103.3 C 105.5 103.5 105.5 103.7 105.5 104 L 105.3 104.7 C 105.2 104.9 105.1 105.1 105.1 105.3 C 104.7 106.1 104.3 106.8 103.7 107.4 C 103.2 108 102.6 108.5 102.1 109 C 101.1 109.9 100.1 110.5 99.4 110.9 C 98.7 111.3 98.3 111.5 98.3 111.5 C 98.3 111.5 98.7 111.3 99.3 110.8 C 99.9 110.3 100.8 109.6 101.8 108.7 C 102.8 107.8 103.9 106.6 104.5 105.1 L 104.7 104.5 L 104.8 103.9 C 104.9 103.7 104.8 103.5 104.8 103.3 L 104.8 103 C 104.8 103 104.8 102.8 104.7 102.7 C 104.6 101.9 104.2 101 103.9 100.2 C 103.2 98.6 102.2 97 101.3 95.6 C 100.4 94.2 99.5 92.8 98.7 91.7 C 97.3 89.4 96.2 87.9 96.2 87.9 Z " fill="#3FADC4" stroke-width="1"/>
              <path d="M 88.3 83.3 C 88.3 83.3 87.7 83.3 86.8 83.7 C 86.3 83.9 85.8 84.2 85.3 84.7 C 84.8 85.2 84.3 85.8 83.9 86.5 C 83.5 87.2 83.1 88.1 82.8 89 C 82.5 89.9 82.3 90.9 82.1 92 C 81.7 94.1 81.6 96.3 81.7 98.6 C 81.7 99.7 81.8 100.9 82 102 C 82.1 102.6 82.1 103.1 82.2 103.7 C 82.2 104 82.2 104.3 82.2 104.6 C 82.2 104.9 82.2 105.1 82.1 105.4 C 82.1 106.4 82.1 107.5 82.4 108.4 C 82.6 109.3 83 110.1 83.5 110.8 C 84 111.5 84.6 112 85.1 112.4 C 85.4 112.6 85.7 112.7 85.9 112.9 C 86.2 113 86.4 113.1 86.7 113.2 C 87.2 113.4 87.5 113.5 87.8 113.5 C 88.1 113.6 88.2 113.6 88.2 113.6 C 88.2 113.6 88.1 113.6 87.8 113.5 C 87.5 113.4 87.1 113.4 86.7 113.2 C 86.5 113.1 86.2 113 85.9 112.9 C 85.6 112.8 85.3 112.6 85 112.5 C 84.4 112.1 83.7 111.7 83.2 111 C 82.7 110.3 82.2 109.5 81.9 108.5 C 81.6 107.5 81.5 106.5 81.5 105.4 C 81.5 105.1 81.5 104.9 81.5 104.6 C 81.5 104.4 81.5 104.1 81.5 103.8 C 81.4 103.3 81.4 102.7 81.3 102.2 C 81.2 101.1 81 99.9 81 98.8 C 80.9 96.5 81.1 94.2 81.5 92.1 C 81.7 91 82 90 82.3 89.1 C 82.6 88.2 83 87.3 83.5 86.6 C 84 85.9 84.5 85.3 85 84.8 C 85.5 84.4 86.1 84.1 86.6 83.9 C 87.1 83.7 87.5 83.7 87.7 83.7 C 88.1 83.3 88.3 83.3 88.3 83.3 Z " fill="#3FADC4" stroke-width="1"/>
            </g>
            <path d="M 92.2 113.8 C 92.2 113.8 87.1 112.1 86 104.3 C 85.4 100.1 84.4 97 84.4 97 C 84.4 97 84.6 103.4 84.7 107 C 84.7 110.5 88 113.1 92.2 113.8 Z " fill="#52B6CC" stroke-width="1"/>
            <path d="M 100.7 109.9 C 100.7 109.9 104.6 106.3 102.4 101.4 C 100.2 96.6 96.2 92.3 96.2 92.3 C 96.2 92.3 103.9 104.1 100.7 109.9 Z " fill="#52B6CC" stroke-width="1"/>
            <path d="M 95 113.3 C 95 113.3 90.5 112 89.1 105.8 C 88.1 101.2 88.7 96.6 88.7 96.6 C 88.7 96.6 90.6 105.8 95 113.3 Z " fill="#52B6CC" stroke-width="1"/>
            <path d="M 93.6 94.1 C 93.6 94.1 99.1 108.4 98.1 111.7 C 98.1 111.6 104.7 109.7 93.6 94.1 Z " fill="#52B6CC" stroke-width="1"/>
          </g>
        </g>
        <g id="Group" fill-rule="nonzero">
          <g id="Shape">
            <path d="M 64.4 69.1 C 64.4 69.1 67.3 77.5 64.9 80.2 C 62.5 82.9 49.8 88.3 49.8 88.3 C 49.8 88.3 41.6 93.5 50 111.9 C 53.6 119.9 90.9 110.3 91.9 104.5 C 92.9 98.7 88.2 83.2 88.2 83.2 C 88.2 83.2 80.8 81.6 79 80.2 C 77.1 78.9 77 73.2 77 73.2 C 77 73.2 70.5 65.7 64.4 69.1 Z " fill="#875137" stroke-width="1"/>
            <path d="M 65.5 73.8 C 65.5 73.8 65.6 74.1 65.6 74.5 C 65.7 75 65.8 75.7 65.8 76.5 C 65.8 77.3 65.9 78.3 65.5 79.4 C 65.4 79.7 65.3 79.9 65.1 80.2 C 64.9 80.5 64.7 80.6 64.5 80.8 C 64 81.2 63.6 81.5 63.1 81.8 C 62.2 82.4 61.2 82.9 60.3 83.4 C 59.4 83.9 58.5 84.3 57.8 84.7 C 56.3 85.4 55.3 85.8 55.3 85.8 C 55.3 85.8 56.2 85.2 57.6 84.4 C 58.3 84 59.1 83.5 60 83 C 60.9 82.5 61.8 81.9 62.7 81.3 C 63.2 81 63.6 80.7 64 80.4 C 64.2 80.3 64.5 80 64.6 79.9 C 64.7 79.7 64.8 79.5 64.9 79.3 C 65.2 78.4 65.3 77.4 65.3 76.6 C 65.3 75.8 65.3 75.1 65.3 74.6 C 65.5 74.1 65.5 73.8 65.5 73.8 Z " fill="#613A27" stroke-width="1"/>
            <path d="M 71.3 86.1 C 71.3 86.1 70.8 86.1 70 86.1 C 69.2 86.1 68.2 86.1 67.3 86 C 66.3 85.9 65.3 85.9 64.6 85.8 C 64.2 85.8 63.9 85.7 63.7 85.7 C 63.5 85.7 63.4 85.7 63.4 85.7 C 63.4 85.7 63.9 85.6 64.7 85.5 C 65.5 85.4 66.5 85.4 67.5 85.5 C 68.5 85.6 69.5 85.7 70.2 85.9 C 70.8 86 71.3 86.1 71.3 86.1 Z " fill="#613A27" stroke-width="1"/>
            <path d="M 83.8 83.7 C 83.8 83.7 83.4 83.9 82.7 84.1 C 82 84.3 81.2 84.6 80.3 84.9 C 79.4 85.1 78.5 85.4 77.8 85.5 C 77.1 85.6 76.7 85.7 76.7 85.7 C 76.7 85.7 77.1 85.4 77.7 85.1 C 78.3 84.8 79.2 84.5 80.1 84.2 C 81 84 81.9 83.8 82.6 83.7 C 83.3 83.7 83.8 83.7 83.8 83.7 Z " fill="#613A27" stroke-width="1"/>
          </g>
          <g id="Shape">
            <g>
              <path d="M 89.7 96.9 C 89.7 96.9 81.8 96.3 77.8 101.3 C 77.8 101.3 71.7 97.2 60.9 99.5 C 60.9 99.5 60.9 85.6 53.4 86.3 C 51.9 86.7 49.9 87.9 49.2 88.5 C 48.5 89.1 45.7 91.2 45.8 98.3 C 45.9 106.3 50.5 113.2 49.4 111.3 C 48.3 109.4 55.5 122.2 56.9 127.9 C 56.9 127.9 75.6 136.6 89.5 127 C 89.5 127 92.7 120.2 94.4 113.4 C 95.6 108.6 93 100.5 91.9 93.7 C 90.1 83.1 88.2 83 88.2 83 L 84.7 82.2 C 84.7 82.3 87.8 82.8 89.7 96.9 Z " fill="#6FCED9" stroke-width="1"/>
              <path d="M 89.5 126.8 C 89.5 126.8 90.2 125 91.1 122.3 C 91.6 121 92.2 119.4 92.7 117.7 C 93 116.9 93.3 116 93.6 115.1 C 93.7 114.7 93.9 114.2 94 113.8 C 94.1 113.4 94.1 112.9 94.2 112.4 C 94.3 111.5 94.4 110.5 94.4 109.6 C 94.4 108.7 94.3 107.8 94.2 106.9 C 94 105.1 93.8 103.5 93.5 102.1 C 93 99.3 92.7 97.4 92.7 97.4 C 92.7 97.4 92.8 97.9 93 98.7 C 93.2 99.5 93.5 100.6 93.8 102 C 94.1 103.4 94.5 105 94.7 106.8 C 94.8 107.7 94.9 108.6 94.9 109.6 C 94.9 110.5 94.9 111.5 94.7 112.5 L 94.6 113.2 C 94.6 113.4 94.5 113.7 94.5 113.9 C 94.4 114.4 94.2 114.8 94.1 115.3 C 93.8 116.2 93.5 117.1 93.2 117.9 C 92.6 119.6 91.9 121.1 91.4 122.4 C 90.4 125.1 89.5 126.8 89.5 126.8 Z " fill="#3FADC4" stroke-width="1"/>
              <path d="M 56.6 126.7 C 56.6 126.7 56.2 126 55.7 125 C 55.2 124 54.5 122.6 53.9 121.1 C 53.3 119.7 52.7 118.3 52.2 117.2 C 51.8 116.1 51.4 115.4 51.4 115.4 C 51.4 115.4 52 116 52.6 117 C 53.2 118 53.9 119.4 54.5 120.8 C 55.1 122.2 55.7 123.7 56.1 124.8 C 56.4 125.9 56.6 126.7 56.6 126.7 Z " fill="#3FADC4" stroke-width="1"/>
              <path d="M 89.7 96.9 C 89.1 96.9 88.6 96.9 88.1 97 C 87.6 97 87 97.1 86.5 97.2 C 86 97.3 85.4 97.4 84.9 97.5 C 84.6 97.6 84.4 97.6 84.1 97.7 L 83.3 97.9 C 82.8 98.1 82.3 98.2 81.8 98.5 C 81.5 98.6 81.3 98.7 81.1 98.8 C 80.9 98.9 80.6 99 80.4 99.2 L 79.7 99.6 C 79.5 99.8 79.3 100 79.1 100.1 C 78.9 100.3 78.7 100.5 78.5 100.7 L 78 101.3 L 77.9 101.4 L 77.8 101.3 C 77.2 100.9 76.5 100.6 75.9 100.4 C 75.2 100.2 74.5 100 73.8 99.8 C 73.5 99.7 73.1 99.7 72.8 99.6 C 72.5 99.5 72.1 99.5 71.7 99.4 C 71.3 99.3 71 99.3 70.6 99.3 C 70.2 99.3 69.9 99.2 69.5 99.2 C 68.8 99.1 68.1 99.1 67.4 99.1 C 66.7 99.1 66 99.1 65.3 99.1 C 64.6 99.1 63.9 99.2 63.1 99.2 L 60.9 99.4 L 60.9 99.3 C 61.6 99.1 62.3 98.9 63 98.8 C 63.7 98.7 64.4 98.6 65.2 98.5 C 65.9 98.4 66.7 98.4 67.4 98.4 C 68.1 98.4 68.9 98.4 69.6 98.5 C 70 98.5 70.3 98.6 70.7 98.6 C 71.1 98.6 71.4 98.7 71.8 98.8 C 72.5 98.9 73.2 99.1 73.9 99.3 C 74.2 99.4 74.6 99.5 74.9 99.6 C 75.2 99.7 75.6 99.9 75.9 100 C 76.6 100.3 77.2 100.6 77.8 101 L 77.6 101 C 78 100.6 78.3 100.1 78.7 99.8 C 78.9 99.6 79.1 99.4 79.3 99.2 L 80 98.7 C 80.2 98.5 80.5 98.4 80.7 98.2 C 80.9 98 81.2 97.9 81.4 97.8 C 81.7 97.7 81.9 97.5 82.2 97.4 L 83 97.1 C 83.5 96.9 84.1 96.8 84.6 96.7 C 84.9 96.6 85.2 96.6 85.4 96.6 C 85.7 96.6 86 96.5 86.2 96.5 C 87.5 96.6 88.6 96.6 89.7 96.9 Z " fill="#3FADC4" stroke-width="1"/>
              <path d="M 60.8 97.3 C 60.8 97.3 60.7 96.4 60.4 95 C 60.1 93.6 59.7 91.8 58.9 90.2 C 58.7 89.8 58.5 89.4 58.3 89 C 58.1 88.6 57.8 88.3 57.5 88 C 57.2 87.7 56.9 87.4 56.6 87.2 C 56.3 87 56 86.8 55.7 86.7 C 55.4 86.6 55.1 86.5 54.8 86.4 C 54.5 86.3 54.3 86.3 54.1 86.3 C 53.7 86.3 53.5 86.3 53.5 86.3 C 53.5 86.3 53.7 86.3 54.1 86.2 C 54.3 86.2 54.6 86.2 54.8 86.2 C 55.1 86.2 55.4 86.3 55.8 86.4 C 56.1 86.5 56.5 86.7 56.9 86.9 C 57.3 87.1 57.6 87.4 57.9 87.7 C 58.6 88.3 59.1 89.2 59.5 90 C 60.3 91.7 60.6 93.6 60.8 95 C 60.8 96.4 60.8 97.3 60.8 97.3 Z " fill="#3FADC4" stroke-width="1"/>
            </g>
            <path d="M 65.4 128.8 C 65.4 128.8 65.1 127.5 64.6 125.5 C 64.3 124.5 64 123.4 63.7 122.1 C 63.4 120.9 63 119.6 62.6 118.3 C 62.4 117.6 62.2 117 62 116.4 C 61.8 115.8 61.6 115.2 61.4 114.6 C 61 113.4 60.6 112.3 60.1 111.4 C 59.9 110.9 59.7 110.5 59.5 110.1 C 59.3 109.7 59.2 109.4 59 109.2 C 58.7 108.7 58.5 108.4 58.5 108.4 C 58.5 108.4 58.7 108.7 59.1 109.2 C 59.3 109.4 59.5 109.7 59.7 110.1 C 59.9 110.5 60.2 110.8 60.4 111.3 C 60.9 112.2 61.4 113.3 61.8 114.5 C 62 115.1 62.3 115.7 62.5 116.3 C 62.7 116.9 62.9 117.6 63.1 118.2 C 63.5 119.5 63.8 120.8 64.1 122.1 C 64.4 123.3 64.6 124.5 64.8 125.5 C 65.3 127.4 65.4 128.8 65.4 128.8 Z " fill="#3FADC4" stroke-width="1"/>
            <path d="M 94.1 107.1 C 94.1 107.1 93.9 107.4 93.7 108 C 93.4 108.5 93.1 109.3 92.6 110.3 C 92.2 111.2 91.7 112.4 91.2 113.6 C 90.7 114.8 90.2 116.1 89.7 117.4 C 89.2 118.7 88.7 120 88.3 121.2 C 87.9 122.4 87.5 123.6 87.1 124.6 C 86.4 126.6 86 127.9 86 127.9 C 86 127.9 86.1 127.6 86.2 127 C 86.3 126.4 86.5 125.5 86.8 124.5 C 87.1 123.5 87.4 122.3 87.8 121.1 C 88.2 119.9 88.7 118.5 89.2 117.2 C 89.7 115.9 90.3 114.6 90.8 113.4 C 91.3 112.2 91.9 111.1 92.4 110.2 C 93.3 108.3 94.1 107.1 94.1 107.1 Z " fill="#3FADC4" stroke-width="1"/>
          </g>
        </g>
        <g id="Group" fill-rule="nonzero">
          <g id="Shape">
            <path d="M 9 258.6 C 9 258.6 21.5 155.2 56 128.3 C 56.8 128.8 65.7 133.6 79 132 C 89.1 130.8 90.2 127.6 90.2 127.6 C 90.2 127.6 90.2 127.5 90.2 127.4 C 94.1 132.1 102.8 145 113.8 176.4 C 128.8 219.5 131.8 255.8 131.8 255.8 C 131.8 255.8 123.4 264.3 113.1 264.8 C 113.1 264.8 113.9 269.4 114.1 273.6 C 114.3 277.8 71.1 287.2 57.4 279.1 C 54.5 277.4 56.2 273 48.2 273.1 C 29.5 273.3 23.8 269.2 23.8 269.2 L 24.4 264.2 C 24.3 264.3 14.5 264.3 9 258.6 Z " fill="#6FCED9" stroke-width="1"/>
            <g>
              <g>
                <path d="M 114.1 271.1 C 114.1 271.1 113 264.7 111.3 255 C 110.4 250.2 109.4 244.6 108.4 238.5 C 107.3 232.5 106.2 226.1 104.9 219.7 C 104.3 216.5 103.7 213.3 103.1 210.1 C 102.5 207 101.9 203.9 101.3 200.9 C 100.1 194.9 99 189.3 97.9 184.5 C 97.4 182.1 96.9 179.9 96.4 178 C 95.9 176.1 95.6 174.4 95.2 173 C 94.5 170.2 94 168.7 94 168.7 C 94 168.7 94.5 170.3 95.3 173 C 95.7 174.4 96.1 176.1 96.6 178 C 97.1 179.9 97.7 182.1 98.2 184.5 C 98.8 186.9 99.4 189.5 100 192.2 C 100.6 194.9 101.2 197.8 101.8 200.8 C 102.4 203.8 103 206.9 103.7 210 C 104.3 213.2 104.9 216.4 105.5 219.6 C 106.7 226 107.8 232.4 108.9 238.5 C 109.9 244.5 110.9 250.2 111.7 255 C 112.5 259.8 113.1 263.9 113.5 266.7 C 113.9 269.5 114.1 271.1 114.1 271.1 Z " stroke-width="1" fill="#3FADC4"/>
                <path d="M 24 266.7 C 24 266.7 24.1 265.6 24.3 263.7 C 24.5 261.8 24.8 259.1 25.2 255.9 C 25.6 252.7 26 248.9 26.6 244.9 C 27.2 240.9 27.7 236.6 28.3 232.3 C 28.9 228 29.6 223.7 30.2 219.7 C 30.8 215.7 31.5 212 32 208.8 C 32.6 205.6 33.1 202.9 33.5 201.1 C 33.9 199.2 34.1 198.2 34.1 198.2 C 34.1 198.2 33.9 199.3 33.6 201.1 C 33.3 203 32.9 205.6 32.4 208.8 C 31.9 212 31.3 215.8 30.7 219.8 C 30.1 223.8 29.5 228.1 28.9 232.4 C 26.4 249.6 24 266.7 24 266.7 Z " stroke-width="1" fill="#3FADC4"/>
                <path d="M 67.1 131.8 C 67.1 131.8 66.7 132.7 66.1 134.2 C 65.5 135.7 64.8 138 64 140.7 C 63.6 142.1 63.2 143.6 62.8 145.1 C 62.4 146.7 62 148.4 61.6 150.1 C 61.2 151.8 60.8 153.6 60.5 155.5 C 60.1 157.3 59.8 159.2 59.5 161.1 C 59.3 162 59.2 163 59 163.9 C 58.9 164.8 58.7 165.8 58.6 166.7 C 58.3 168.5 58.1 170.4 57.9 172.1 C 57.7 173.9 57.5 175.6 57.3 177.2 C 57.1 178.8 57 180.4 56.8 181.8 C 56.5 184.6 56.3 187 56.2 188.6 C 56.1 190.3 56 191.2 56 191.2 C 56 191.2 56 190.3 56.1 188.6 C 56.1 187.8 56.2 186.8 56.2 185.6 C 56.2 184.4 56.3 183.1 56.4 181.7 C 56.5 180.3 56.6 178.7 56.8 177.1 C 56.9 175.5 57.1 173.8 57.3 172 C 57.5 170.2 57.7 168.4 58 166.6 C 58.1 165.7 58.3 164.7 58.4 163.8 C 58.6 162.9 58.7 161.9 58.9 161 C 59.2 159.1 59.6 157.3 59.9 155.4 C 60.2 153.6 60.7 151.8 61 150 C 61.4 148.3 61.8 146.6 62.3 145 C 62.8 143.4 63.2 141.9 63.6 140.6 C 64 139.2 64.5 138 64.9 136.9 C 65.3 135.8 65.7 134.9 66 134.1 C 66.7 132.7 67.1 131.8 67.1 131.8 Z " stroke-width="1" fill="#3FADC4"/>
                <path d="M 82.4 131.5 C 82.4 131.5 82.7 131.7 83.2 132.2 C 83.7 132.7 84.2 133.4 84.8 134.4 C 85.4 135.4 86 136.6 86.5 137.9 C 86.8 138.6 87 139.2 87.3 139.9 C 87.5 140.6 87.8 141.3 88 142 C 88.4 143.4 88.8 144.9 89.2 146.3 C 89.4 147 89.5 147.6 89.7 148.3 C 89.8 148.9 90 149.5 90.1 150.1 C 90.5 152.3 90.8 153.8 90.8 153.8 C 90.8 153.8 90.4 152.4 89.8 150.2 C 89.5 149.1 89.1 147.9 88.8 146.5 C 88.4 145.1 88 143.7 87.5 142.3 C 87.3 141.6 87 140.9 86.8 140.2 C 86.6 139.5 86.3 138.8 86.1 138.2 C 85.6 136.9 85.1 135.7 84.6 134.7 C 84.1 133.7 83.6 132.9 83.2 132.4 C 82.7 131.7 82.4 131.5 82.4 131.5 Z " stroke-width="1" fill="#3FADC4"/>
                <path d="M 60.5 130.3 C 60.5 130.3 60 130.7 59.3 131.5 C 59 131.9 58.6 132.4 58.2 132.9 C 57.8 133.4 57.4 134 57 134.6 C 56.6 135.2 56.2 135.7 55.8 136.3 C 55.4 136.8 55.1 137.4 54.8 137.8 C 54.5 138.2 54.3 138.6 54.1 138.9 C 53.9 139.2 53.8 139.3 53.8 139.3 C 53.8 139.3 53.9 139.1 54 138.8 C 54.1 138.5 54.3 138.1 54.5 137.6 C 55 136.6 55.7 135.4 56.5 134.2 C 56.9 133.6 57.3 133.1 57.8 132.6 C 58.2 132.1 58.7 131.7 59.1 131.3 C 59.5 130.9 59.9 130.7 60.1 130.5 C 60.3 130.4 60.5 130.3 60.5 130.3 Z " stroke-width="1" fill="#3FADC4"/>
                <path d="M 77.8 132.3 C 77.8 132.3 78 133 78.5 134.2 C 78.9 135.4 79.5 137.1 80.1 139.2 C 80.7 141.3 81.4 143.7 82 146.3 C 82.6 148.9 83.2 151.7 83.8 154.6 C 84.1 156 84.3 157.4 84.5 158.8 C 84.7 160.2 84.9 161.6 85.1 162.9 C 85.3 164.2 85.4 165.5 85.5 166.8 C 85.6 168 85.7 169.2 85.8 170.3 C 86 172.5 86 174.3 86.1 175.5 C 86.1 176.8 86.2 177.5 86.2 177.5 C 86.2 177.5 86.1 176.8 86 175.5 C 85.9 174.9 85.9 174.1 85.8 173.2 C 85.7 172.3 85.6 171.3 85.5 170.3 C 85.4 169.2 85.3 168.1 85.1 166.8 C 84.9 165.6 84.8 164.3 84.6 163 C 84.4 161.7 84.2 160.3 84 158.9 C 83.8 157.5 83.5 156.1 83.2 154.7 C 82.7 151.9 82.1 149.1 81.5 146.4 C 80.9 143.8 80.3 141.3 79.8 139.2 C 79.3 137.1 78.8 135.4 78.4 134.2 C 78 133 77.8 132.3 77.8 132.3 Z " stroke-width="1" fill="#3FADC4"/>
              </g>
              <path d="M 94.7 133.6 C 94.7 133.6 94.9 134 95.3 134.7 C 95.7 135.4 96.4 136.5 97.2 137.8 C 98.8 140.5 101 144.4 103.2 149.3 C 105.5 154.2 107.9 160 110.3 166.3 C 112.7 172.6 115.1 179.4 117.3 186.2 C 119.5 193 121.5 200 123.2 206.5 C 124.9 213 126.2 219.2 127.2 224.5 C 128.2 229.8 128.9 234.2 129.3 237.3 C 129.5 238.9 129.7 240.1 129.8 240.9 C 129.9 241.3 129.9 241.6 129.9 241.8 C 129.9 242 130 242.1 130 242.1 C 130 242.1 130 242 129.9 241.8 C 129.9 241.6 129.8 241.3 129.7 240.9 C 129.6 240.1 129.4 238.9 129.1 237.3 C 128.6 234.2 127.8 229.8 126.7 224.5 C 125.6 219.2 124.2 213.1 122.5 206.6 C 120.8 200.1 118.8 193.2 116.6 186.4 C 115.5 183 114.4 179.6 113.2 176.2 C 112 172.9 110.8 169.6 109.7 166.5 C 107.3 160.2 105 154.4 102.8 149.5 C 100.6 144.6 98.6 140.6 97 137.9 C 96.2 136.5 95.6 135.5 95.2 134.7 C 94.9 134 94.7 133.6 94.7 133.6 Z " stroke-width="1" fill="#3FADC4"/>
              <path d="M 71.4 282.3 C 71.4 282.3 70.7 282.3 69.4 282.3 C 68.1 282.2 66.2 282.1 64 281.7 C 62.9 281.5 61.7 281.2 60.5 280.8 C 59.9 280.6 59.2 280.4 58.6 280.1 C 58 279.8 57.4 279.4 56.8 279 C 55.7 278.1 54.9 276.7 54.3 275.4 C 54.1 275.1 54 274.8 53.7 274.7 C 53.4 274.5 53.1 274.4 52.8 274.3 C 52.1 274.1 51.4 274 50.7 273.9 C 49.2 273.7 47.8 273.7 46.3 273.7 C 44.8 273.7 43.4 273.7 42 273.6 C 39.2 273.5 36.6 273 34.4 272.6 C 32.2 272.2 30.4 271.7 29.2 271.4 C 27.9 271.1 27.2 270.8 27.2 270.8 C 27.2 270.8 27.9 271 29.2 271.3 C 30.5 271.6 32.3 271.9 34.5 272.3 C 36.7 272.7 39.3 272.9 42 273.1 C 43.4 273.2 44.8 273.1 46.3 273.1 C 47.8 273.1 49.3 273.2 50.7 273.3 C 51.4 273.4 52.2 273.5 52.9 273.7 C 53.3 273.8 53.7 274 54 274.2 C 54.4 274.4 54.6 274.8 54.8 275.1 C 55.5 276.4 56.1 277.7 57.1 278.5 C 57.6 278.9 58.2 279.3 58.7 279.6 C 59 279.7 59.3 279.9 59.6 280 C 59.9 280.1 60.2 280.2 60.5 280.3 C 61.7 280.7 62.9 281 63.9 281.2 C 68.4 282.3 71.4 282.3 71.4 282.3 Z " stroke-width="1" fill="#3FADC4"/>
              <path d="M 56 128.2 C 56 128.2 55.8 128.4 55.5 128.7 C 55.1 129 54.6 129.5 54 130.1 C 52.7 131.3 50.9 133.1 49 135.4 C 47.1 137.7 45 140.6 43 143.8 C 42 145.4 41 147.1 40.1 148.9 C 39.1 150.6 38.2 152.4 37.3 154.2 C 35.5 157.8 33.8 161.5 32.3 165 C 31.6 166.7 30.8 168.4 30.2 170 C 29.5 171.6 28.9 173.1 28.4 174.6 C 27.3 177.4 26.5 179.8 26 181.5 C 25.7 182.3 25.5 183 25.4 183.5 C 25.3 184 25.2 184.2 25.2 184.2 C 25.2 184.2 25.3 184 25.4 183.5 C 25.5 183 25.7 182.4 25.9 181.5 C 26.4 179.8 27.1 177.4 28.1 174.5 C 29.1 171.6 30.4 168.3 31.8 164.8 C 33.3 161.3 34.9 157.6 36.7 154 C 37.6 152.2 38.5 150.4 39.5 148.7 C 40.5 146.9 41.5 145.3 42.5 143.6 C 44.5 140.4 46.7 137.6 48.7 135.3 C 50.7 133 52.6 131.3 53.9 130.1 C 54.6 129.5 55.1 129.1 55.5 128.8 C 55.8 128.4 56 128.2 56 128.2 Z " stroke-width="1" fill="#3FADC4"/>
            </g>
          </g>
          <g id="Shape">
            <path d="M 89.6 126.5 C 89.6 126.5 80.8 131.1 72.1 130.1 C 63.5 129.1 56.8 126.5 56.8 126.5 C 56.8 126.5 55.9 127 56 128.2 C 56 128.2 65.1 133.6 79.1 132 C 89.2 130.8 90.3 127.6 90.3 127.6 C 90.3 127.6 90.2 126.3 89.6 126.5 Z " fill="#D9A64A" stroke-width="1"/>
            <path d="M 86.6 130.3 C 86.6 130.3 86.1 130.5 85.3 130.7 C 84.5 130.9 83.3 131.3 81.8 131.6 C 81.1 131.8 80.3 131.9 79.4 132 C 78.6 132.1 77.7 132.2 76.7 132.3 C 75.8 132.3 74.8 132.4 73.8 132.4 C 72.8 132.4 71.8 132.4 70.8 132.4 L 69.3 132.3 C 68.8 132.2 68.3 132.2 67.8 132.1 C 66.8 132 65.9 131.8 65 131.6 C 64.1 131.4 63.2 131.2 62.4 130.9 C 62 130.8 61.6 130.7 61.2 130.5 C 60.8 130.4 60.5 130.2 60.1 130.1 C 59.4 129.8 58.8 129.6 58.2 129.3 C 57.7 129 57.2 128.8 56.8 128.6 C 56 128.2 55.6 128 55.6 128 C 55.6 128 56.1 128.2 56.9 128.5 C 57.3 128.7 57.8 128.9 58.3 129.1 C 58.9 129.3 59.5 129.5 60.2 129.7 C 60.5 129.8 60.9 129.9 61.3 130.1 C 61.7 130.2 62.1 130.3 62.5 130.4 C 63.3 130.6 64.2 130.8 65.1 131 C 66 131.2 66.9 131.3 67.9 131.4 C 68.4 131.5 68.9 131.5 69.3 131.6 L 70.8 131.7 C 71.8 131.8 72.7 131.8 73.7 131.8 C 74.7 131.8 75.6 131.7 76.5 131.7 C 77.4 131.6 78.3 131.6 79.1 131.5 C 79.9 131.4 80.7 131.3 81.4 131.2 C 82.9 131 84.1 130.7 84.9 130.5 C 86.1 130.5 86.6 130.3 86.6 130.3 Z " fill="#A67939" stroke-width="1"/>
            <path d="M 87.9 127.3 C 87.9 127.3 86.7 128 84.8 128.7 C 84.3 128.9 83.8 129 83.2 129.2 C 82.6 129.3 82 129.5 81.4 129.7 C 80.1 130 78.8 130.2 77.4 130.3 C 76.7 130.4 76 130.4 75.4 130.4 C 74.7 130.4 74.1 130.4 73.4 130.4 C 72.8 130.4 72.1 130.3 71.6 130.2 C 71 130.2 70.5 130 70 130 C 69.5 129.9 69 129.8 68.6 129.7 C 68.2 129.6 67.8 129.5 67.6 129.4 C 67 129.2 66.7 129.1 66.7 129.1 C 66.7 129.1 67 129.1 67.6 129.2 C 67.9 129.2 68.2 129.3 68.7 129.4 C 69.1 129.5 69.6 129.5 70.1 129.5 C 70.6 129.6 71.1 129.6 71.7 129.6 C 72.3 129.6 72.9 129.7 73.5 129.7 C 74.1 129.7 74.8 129.7 75.4 129.7 C 76.1 129.7 76.7 129.7 77.4 129.6 C 78.7 129.5 80.1 129.3 81.3 129.1 C 82.5 128.9 83.7 128.6 84.7 128.3 C 86.6 127.9 87.9 127.3 87.9 127.3 Z " fill="#A67939" stroke-width="1"/>
          </g>
        </g>
        <g id="Group" fill-rule="nonzero">
          <g id="Shape">
            <g>
              <g>
                <path d="M 72.5 101.7 C 72.5 101.7 71.2 98.8 73.3 94.4 C 74.7 91.4 74.9 88.6 75.9 88.9 C 77.7 89.4 75.3 94 75.3 94 C 75.3 94 78.5 90.4 78.7 88.4 C 78.8 87 80.1 85 80.8 85.1 C 81.5 85.2 80.8 88.5 80.3 90.6 C 80.3 90.6 81.2 88.2 81.9 86.9 C 82.7 85.5 83.4 85.3 83.4 87.2 C 83.4 87.2 85.5 85.5 84.3 90.5 C 84.3 90.5 85.5 90.6 84.5 93.2 C 83.5 95.7 77.7 108.3 72.5 101.7 Z " fill="#875137" stroke-width="1"/>
                <path d="M 81 85.8 C 81 85.8 81 85.9 81.1 86.2 C 81.1 86.4 81.2 86.8 81.2 87.2 C 81.2 87.6 81.1 88.1 81 88.6 C 80.9 89.1 80.7 89.7 80.6 90.2 C 80.2 91.3 79.7 92.2 79.2 92.9 C 79 93.3 78.7 93.5 78.6 93.7 C 78.4 93.9 78.4 94 78.4 94 C 78.4 94 78.4 93.9 78.5 93.6 C 78.6 93.4 78.7 93.1 78.9 92.7 C 79.1 92.3 79.3 91.9 79.5 91.4 C 79.7 90.9 79.9 90.4 80.1 89.9 C 80.5 88.9 80.8 87.8 80.9 87 C 81 86.4 81 85.8 81 85.8 Z " fill="#613A27" stroke-width="1"/>
                <path d="M 83.4 87.2 C 83.4 87.2 83.5 87.7 83.4 88.5 C 83.4 88.9 83.3 89.3 83.2 89.8 C 83.1 90.3 82.9 90.8 82.7 91.3 C 82.3 92.3 81.8 93.2 81.3 93.8 C 80.8 94.4 80.5 94.8 80.5 94.8 C 80.5 94.8 80.5 94.7 80.6 94.5 C 80.7 94.3 80.8 94 81 93.6 C 81.2 93.3 81.3 92.8 81.5 92.4 C 81.7 92 81.9 91.5 82.1 91 C 82.5 90.1 82.8 89.1 83 88.4 C 83.3 87.7 83.4 87.2 83.4 87.2 Z " fill="#613A27" stroke-width="1"/>
                <path d="M 84.3 90.5 C 84.3 90.5 84.3 90.9 84.2 91.5 C 84.1 92.1 83.8 92.8 83.5 93.5 C 83.2 94.2 82.8 94.9 82.4 95.4 C 82 95.9 81.7 96.1 81.7 96.1 C 81.7 96.1 81.7 96 81.8 95.8 C 81.9 95.6 81.9 95.4 82.1 95.1 C 82.3 94.6 82.6 93.9 82.9 93.2 C 83.2 92.5 83.5 91.8 83.8 91.3 C 84.1 90.8 84.3 90.5 84.3 90.5 Z " fill="#613A27" stroke-width="1"/>
              </g>
              <path d="M 72.3 100.6 C 72.3 100.6 72.2 100.5 72.1 100.4 C 72 100.2 71.9 100 71.9 99.7 C 71.8 99.1 71.9 98.2 72.1 97.4 C 72.3 96.6 72.6 95.8 72.9 95.3 C 73.2 94.8 73.4 94.4 73.4 94.4 C 73.4 94.4 73.4 94.8 73.2 95.4 C 73.1 96 72.9 96.8 72.7 97.5 C 72.5 98.3 72.3 99 72.3 99.6 C 72.3 99.9 72.3 100.1 72.3 100.3 C 72.2 100.5 72.3 100.6 72.3 100.6 Z " fill="#613A27" stroke-width="1"/>
            </g>
            <g>
              <g>
                <path d="M 52.2 132.7 C 53 127.6 59.6 118.4 64.3 112.2 C 67.3 108.2 72.3 100.7 72.3 100.7 C 74.5 100 75.8 101.5 76.9 103.2 C 76.9 103.2 75.4 107 72.4 114.4 C 69.2 122.4 61.6 135.2 58.6 136.3 C 55.1 137.6 51.8 135.2 52.2 132.7 Z " fill="#52B6CC" stroke-width="1"/>
                <path d="M 53.1 129.5 C 53.1 129.5 53.7 128.1 54.7 126.1 C 55.2 125.1 55.9 123.9 56.6 122.7 C 57.3 121.5 58.1 120.2 59 118.9 C 59.9 117.6 60.7 116.4 61.6 115.3 C 62 114.7 62.5 114.2 62.9 113.7 C 63.3 113.2 63.7 112.7 64.1 112.3 C 64.8 111.4 65.5 110.7 65.9 110.2 C 66.4 109.7 66.6 109.4 66.6 109.4 C 66.6 109.4 65.7 110.6 64.3 112.4 C 63.6 113.3 62.9 114.4 62 115.5 C 61.2 116.7 60.3 117.9 59.5 119.2 C 58.6 120.4 57.8 121.7 57.1 122.9 C 56.3 124.1 55.6 125.2 55 126.2 C 53.9 128.2 53.1 129.5 53.1 129.5 Z " fill="#2E83BF" stroke-width="1"/>
              </g>
              <path d="M 76.7 103.5 C 76.7 103.5 76.6 104 76.3 104.9 C 76 105.8 75.7 107 75.1 108.4 C 74.6 109.8 73.9 111.5 73.2 113.3 C 72.4 115.1 71.6 116.9 70.7 118.8 C 69.8 120.6 68.8 122.4 67.9 124.1 C 67.4 124.9 67 125.7 66.5 126.5 C 66 127.3 65.6 128 65.2 128.6 C 64.4 129.9 63.6 130.9 63.1 131.6 C 62.6 132.3 62.3 132.7 62.3 132.7 C 62.3 132.7 62.6 132.3 63 131.5 C 63.2 131.1 63.5 130.7 63.9 130.1 C 64.2 129.6 64.6 129 65 128.3 C 65.8 127 66.7 125.4 67.6 123.7 C 68.5 122 69.5 120.2 70.3 118.4 C 71.2 116.6 72.1 114.7 72.8 113 C 73.6 111.2 74.3 109.6 74.9 108.2 C 76 105.4 76.7 103.5 76.7 103.5 Z " fill="#2E83BF" stroke-width="1"/>
            </g>
          </g>
          <g id="Shape">
            <g>
              <path d="M 59.3 103.4 C 58.6 98.8 54.1 79.8 47.3 90.7 C 40.8 101.2 50.1 140.4 56.1 136.3 C 62.2 132.2 60.9 113.9 59.3 103.4 Z " fill="#52B6CC" stroke-width="1"/>
              <path d="M 57.7 96.4 C 57.7 96.4 58.2 97.8 58.7 100 C 58.9 101.1 59.2 102.4 59.5 103.7 C 59.7 105.1 60 106.6 60.2 108 C 60.4 109.5 60.5 111 60.6 112.4 C 60.7 113.8 60.7 115.1 60.7 116.2 C 60.7 117.3 60.7 118.3 60.6 118.9 C 60.6 119.6 60.5 119.9 60.5 119.9 C 60.5 119.9 60.5 119.5 60.4 118.9 C 60.4 118.2 60.3 117.3 60.2 116.2 C 60.1 115.1 60 113.8 59.9 112.4 C 59.8 111 59.6 109.5 59.4 108.1 C 59.2 106.6 59 105.2 58.8 103.8 C 58.6 102.4 58.4 101.1 58.2 100 C 57.9 97.9 57.7 96.4 57.7 96.4 Z " fill="#2E83BF" stroke-width="1"/>
              <path d="M 51.1 87.5 C 51.1 87.5 50.9 87.5 50.7 87.6 C 50.4 87.7 50.1 87.8 49.6 88.1 C 49.2 88.4 48.7 88.8 48.2 89.4 C 47.9 89.7 47.8 90 47.6 90.3 C 47.4 90.6 47.2 91 47 91.4 C 46.6 92.2 46.4 93.1 46.1 94.1 C 46 94.6 45.9 95.1 45.8 95.6 C 45.8 95.9 45.7 96.1 45.7 96.4 C 45.7 96.7 45.6 96.9 45.6 97.2 C 45.5 98.3 45.4 99.5 45.4 100.6 C 45.4 101.2 45.4 101.8 45.4 102.4 C 45.4 103 45.5 103.6 45.5 104.2 C 45.6 105.4 45.6 106.6 45.7 107.8 C 45.8 109 45.9 110.1 46.1 111.2 C 46.3 112.3 46.4 113.4 46.6 114.4 C 46.8 115.4 46.9 116.4 47 117.3 C 47.7 120.8 48.1 123.2 48.1 123.2 C 48.1 123.2 47.5 120.9 46.7 117.4 C 46.5 116.5 46.4 115.6 46.2 114.5 C 46 113.5 45.8 112.4 45.6 111.3 C 45.5 110.2 45.3 109 45.2 107.8 C 45 106.6 45 105.4 44.9 104.2 C 44.9 103.6 44.8 103 44.8 102.4 C 44.8 101.8 44.8 101.2 44.8 100.6 C 44.8 99.4 44.9 98.2 45.1 97.1 C 45.1 96.8 45.2 96.5 45.2 96.3 C 45.3 96 45.3 95.8 45.4 95.5 C 45.5 95 45.6 94.4 45.7 93.9 C 46 92.9 46.3 92 46.7 91.1 C 46.9 90.7 47.1 90.3 47.3 90 C 47.6 89.7 47.7 89.3 48 89.1 C 48.5 88.5 49 88.1 49.5 87.9 C 50 87.6 50.4 87.5 50.6 87.4 C 51 87.5 51.1 87.5 51.1 87.5 Z " fill="#2E83BF" stroke-width="1"/>
            </g>
            <g>
              <g>
                <path d="M 53.5 87.6 C 50.3 86.7 47.2 87.5 44.3 94.4 C 41.3 101.3 42.4 103.2 41.2 110.6 C 40.6 114.6 47.2 119.6 55.1 117.4 C 63 115.2 66.4 111.4 63.7 104.9 C 61.1 98.3 57.9 88.9 53.5 87.6 Z " fill="#6FCED9" stroke-width="1"/>
                <path d="M 59 93.6 C 59 93.6 59.9 95.2 61.1 97.6 C 61.7 98.8 62.4 100.3 63 101.9 C 63.6 103.5 64.2 105.2 64.7 107 C 64.9 107.9 65.1 108.8 65 109.8 C 65 109.9 65 110 65 110.2 L 64.9 110.5 C 64.8 110.7 64.8 110.9 64.7 111.2 L 64.4 111.9 L 64 112.4 C 63.5 113.1 62.9 113.7 62.2 114.2 C 61.6 114.7 60.9 115.1 60.3 115.4 C 59.1 116.1 58 116.5 57.3 116.7 C 56.5 117 56.1 117.1 56.1 117.1 C 56.1 117.1 56.5 116.9 57.3 116.6 C 58 116.3 59.1 115.8 60.2 115.1 C 61.3 114.4 62.7 113.4 63.6 112.1 L 63.9 111.6 L 64.1 111.1 C 64.2 110.9 64.2 110.7 64.3 110.5 L 64.4 110.2 C 64.4 110.2 64.4 110 64.4 109.9 C 64.5 109.1 64.3 108.2 64.1 107.3 C 63.7 105.5 63.1 103.8 62.5 102.2 C 61.9 100.6 61.3 99.1 60.8 97.9 C 59.7 95.3 59 93.6 59 93.6 Z " fill="#3FADC4" stroke-width="1"/>
                <path d="M 52.2 87.5 C 52.2 87.5 51.6 87.3 50.7 87.5 C 50.2 87.6 49.7 87.8 49.1 88.1 C 48.5 88.4 47.9 88.9 47.4 89.6 C 46.8 90.2 46.3 91 45.8 91.8 C 45.4 92.6 44.9 93.6 44.5 94.6 C 43.7 96.5 43.1 98.7 42.7 100.9 C 42.5 102 42.4 103.1 42.3 104.2 C 42.3 104.8 42.2 105.3 42.2 105.9 C 42.2 106.5 42.1 107 41.9 107.5 C 41.7 108.5 41.5 109.5 41.5 110.5 C 41.5 111.4 41.7 112.3 42 113.1 C 42.7 114.6 43.8 115.6 44.7 116.1 C 45.1 116.4 45.5 116.6 45.7 116.7 C 45.9 116.8 46.1 116.9 46.1 116.9 C 46.1 116.9 46 116.8 45.7 116.7 C 45.5 116.6 45.1 116.4 44.7 116.2 C 44.3 116 43.7 115.6 43.2 115.2 C 42.7 114.7 42.1 114.1 41.8 113.3 C 41.4 112.5 41.2 111.6 41.1 110.6 C 41 109.6 41.2 108.5 41.4 107.5 C 41.7 106.5 41.7 105.4 41.8 104.3 C 41.9 103.2 42 102 42.2 100.9 C 42.6 98.6 43.3 96.4 44.1 94.4 C 44.5 93.4 45 92.5 45.5 91.6 C 46 90.8 46.6 90 47.2 89.4 C 47.8 88.8 48.5 88.3 49.1 88 C 49.7 87.7 50.3 87.5 50.8 87.4 C 51.3 87.3 51.7 87.4 52 87.4 C 52 87.4 52.2 87.5 52.2 87.5 Z " fill="#3FADC4" stroke-width="1"/>
              </g>
              <path d="M 49.7 118.1 C 49.7 118.1 45.1 115.4 45.6 107.6 C 45.9 103.3 45.5 100.2 45.5 100.2 C 45.5 100.2 44.4 106.5 43.7 110 C 43 113.4 45.7 116.6 49.7 118.1 Z " fill="#52B6CC" stroke-width="1"/>
              <path d="M 59.1 115.8 C 59.1 115.8 63.4 113.4 62.2 108.2 C 61 103 58 98 58 98 C 58 98 63.4 110.7 59.1 115.8 Z " fill="#52B6CC" stroke-width="1"/>
              <path d="M 52.6 118.2 C 52.6 118.2 48.4 116 48.4 109.7 C 48.4 105 49.9 100.6 49.9 100.6 C 49.9 100.6 49.8 109.9 52.6 118.2 Z " fill="#52B6CC" stroke-width="1"/>
              <path d="M 55.1 99.1 C 55.1 99.1 57.5 114.2 55.9 117.2 C 55.9 117.2 62.8 116.7 55.1 99.1 Z " fill="#52B6CC" stroke-width="1"/>
            </g>
          </g>
        </g>
        <g id="Group" fill-rule="nonzero">
          <g id="Shape">
            <g>
              <path d="M 82.9 27.8 C 82.9 27.8 82.6 18.8 75.6 18.9 C 75.6 18.9 73.5 17.1 71.4 18.7 C 71.4 18.7 68.8 17 67.4 18.9 C 67.4 18.9 64.6 17.5 63.9 19.2 C 63.9 19.2 60.3 18 59.2 20.7 C 59.2 20.7 55 19.6 54.5 23.1 C 54.5 23.1 51.7 23.8 51.9 26.4 C 51.9 26.4 48.6 27.3 50 29.9 C 50 29.9 47 30.2 47.9 33.5 C 47.9 33.5 46 35.6 47.5 37 C 47.5 37 45.7 39.6 48.1 40.3 C 48.1 40.3 47.2 43.1 49.9 42.8 C 49.9 42.8 51.3 45.3 54.1 43.8 " fill="#261C17" stroke-width="1"/>
              <path d="M 71.5 18.7 C 71.5 18.7 72 18.8 72.7 19.1 C 73 19.3 73.4 19.5 73.8 19.9 C 74.2 20.2 74.5 20.6 74.8 21.1 C 75 21.5 75.2 22 75.4 22.5 C 75.6 23 75.7 23.4 75.7 23.8 C 75.8 24.2 75.8 24.5 75.8 24.7 C 75.8 24.9 75.8 25 75.8 25 C 75.8 25 75.7 24.9 75.7 24.7 C 75.6 24.5 75.5 24.2 75.4 23.9 C 75.3 23.6 75.1 23.2 74.9 22.8 C 74.7 22.4 74.5 22 74.2 21.6 C 73.7 20.8 73 20.1 72.5 19.6 C 71.9 19 71.5 18.7 71.5 18.7 Z " fill="#120D0B" stroke-width="1"/>
              <path d="M 67.5 18.9 C 67.5 18.9 67.6 18.8 67.7 18.9 C 67.9 18.9 68.1 19 68.3 19.2 C 68.7 19.5 69.2 20 69.6 20.6 C 70 21.2 70.2 21.8 70.4 22.3 C 70.5 22.8 70.6 23.1 70.6 23.1 C 70.6 23.1 70.3 22.8 70 22.4 C 69.7 22 69.3 21.4 69 20.9 C 68.7 20.3 68.3 19.8 68 19.4 C 67.9 19.2 67.7 19.1 67.6 19 C 67.6 18.9 67.5 18.9 67.5 18.9 Z " fill="#120D0B" stroke-width="1"/>
              <path d="M 64 19.2 C 64 19.2 64.1 19.2 64.3 19.2 C 64.5 19.3 64.8 19.3 65.1 19.5 C 65.7 19.8 66.4 20.5 66.9 21.4 C 67.1 21.8 67.4 22.2 67.5 22.6 C 67.7 23 67.8 23.4 67.9 23.7 C 68 24.1 68 24.4 68 24.6 C 68 24.8 68 24.9 68 24.9 C 68 24.9 68 24.9 67.9 24.7 C 67.8 24.5 67.7 24.3 67.5 24 C 67.3 23.7 67.2 23.3 67 23 C 66.8 22.6 66.6 22.2 66.4 21.9 C 65.9 21.1 65.4 20.5 64.9 20 C 64.4 19.4 64 19.2 64 19.2 Z " fill="#120D0B" stroke-width="1"/>
              <path d="M 75.6 18.9 C 75.6 18.9 75.8 18.9 76 19.1 C 76.2 19.2 76.5 19.4 76.7 19.7 C 76.9 20 77 20.3 77.1 20.5 C 77.2 20.8 77.1 20.9 77.1 20.9 C 77.1 20.9 77 20.8 76.8 20.7 C 76.6 20.5 76.4 20.3 76.2 20.1 C 76 19.9 75.9 19.6 75.8 19.4 C 75.7 19.1 75.6 18.9 75.6 18.9 Z " fill="#120D0B" stroke-width="1"/>
              <path d="M 59.3 20.7 C 59.3 20.7 59.8 20.7 60.6 21 C 61 21.2 61.4 21.4 61.8 21.7 C 62.2 22 62.6 22.4 62.9 22.8 C 63.6 23.6 64.1 24.5 64.3 25.3 C 64.4 25.7 64.5 26 64.6 26.2 C 64.7 26.4 64.7 26.5 64.7 26.5 C 64.7 26.5 64.6 26.4 64.5 26.2 C 64.4 26 64.2 25.7 64 25.4 C 63.8 25.1 63.6 24.7 63.3 24.3 C 63 23.9 62.7 23.5 62.4 23.2 C 61.8 22.4 61 21.8 60.4 21.3 C 59.8 21 59.3 20.7 59.3 20.7 Z " fill="#120D0B" stroke-width="1"/>
              <path d="M 54.6 23.2 C 54.6 23.2 54.8 23 55.1 22.9 C 55.5 22.8 56 22.9 56.4 23 C 56.8 23.2 57.2 23.5 57.4 23.8 C 57.6 24.1 57.7 24.3 57.7 24.3 C 57.7 24.3 57.6 24.3 57.5 24.3 C 57.4 24.3 57.3 24.2 57.1 24.2 C 56.8 24.1 56.4 23.9 56.1 23.7 C 55.7 23.5 55.4 23.4 55.1 23.3 C 54.8 23.2 54.6 23.2 54.6 23.2 Z " fill="#120D0B" stroke-width="1"/>
              <path d="M 58.2 23.4 C 58.2 23.4 58.4 23.4 58.7 23.5 C 59 23.6 59.3 23.8 59.6 24.1 C 59.9 24.4 60.1 24.7 60.1 25 C 60.2 25.3 60.1 25.5 60.1 25.5 C 60.1 25.5 60.1 25.5 60 25.4 C 59.9 25.3 59.8 25.3 59.7 25.2 C 59.5 25 59.3 24.8 59 24.5 C 58.8 24.2 58.5 24 58.4 23.8 C 58.3 23.6 58.2 23.4 58.2 23.4 Z " fill="#120D0B" stroke-width="1"/>
              <path d="M 52 26.4 C 52 26.4 52.4 26.5 53 26.8 C 53.6 27.1 54.4 27.5 55 28.1 C 55.3 28.4 55.6 28.7 55.9 29.1 C 56.1 29.4 56.3 29.8 56.5 30.1 C 56.6 30.4 56.7 30.7 56.7 30.9 C 56.7 31.1 56.7 31.2 56.7 31.2 C 56.7 31.2 56.6 31.1 56.5 30.9 C 56.4 30.7 56.3 30.5 56.1 30.2 C 55.9 29.9 55.7 29.7 55.4 29.4 C 55.1 29.1 54.8 28.8 54.5 28.5 C 53.9 27.9 53.2 27.4 52.7 27 C 52.3 26.7 52 26.4 52 26.4 Z " fill="#120D0B" stroke-width="1"/>
              <path d="M 50 29.9 C 50 29.9 50.4 30 51 30.3 C 51.5 30.6 52.2 31.2 52.7 31.8 C 53 32.1 53.2 32.5 53.4 32.8 C 53.6 33.1 53.8 33.5 53.9 33.8 C 54.1 34.4 54.2 34.8 54.2 34.8 C 54.2 34.8 54.1 34.7 54 34.6 C 53.9 34.5 53.7 34.2 53.6 34 C 53.2 33.5 52.8 32.9 52.3 32.3 C 51.8 31.7 51.3 31.1 50.8 30.7 C 50.3 30.2 50 29.9 50 29.9 Z " fill="#120D0B" stroke-width="1"/>
              <path d="M 52.1 30.3 C 52.1 30.3 52.3 30.3 52.6 30.4 C 52.9 30.5 53.2 30.7 53.4 30.9 C 53.6 31.2 53.8 31.5 53.9 31.7 C 54 32 54 32.2 54 32.2 C 54 32.2 54 32.2 53.9 32.1 C 53.8 32.1 53.7 32 53.6 31.9 C 53.4 31.7 53.2 31.5 52.9 31.3 C 52.7 31.1 52.5 30.8 52.3 30.6 C 52.2 30.4 52.1 30.3 52.1 30.3 Z " fill="#120D0B" stroke-width="1"/>
              <path d="M 70.7 21.4 C 70.7 21.4 70.9 21.5 71.1 21.7 C 71.3 21.9 71.6 22.2 71.8 22.6 C 72 22.9 72.1 23.3 72 23.7 C 72 24 71.9 24.2 71.9 24.2 C 71.9 24.2 71.9 24.2 71.8 24.1 C 71.8 24 71.7 23.9 71.6 23.8 C 71.5 23.5 71.3 23.2 71.1 22.9 C 71 22.6 70.8 22.2 70.7 21.9 C 70.7 21.6 70.7 21.4 70.7 21.4 Z " fill="#120D0B" stroke-width="1"/>
            </g>
            <g>
              <path d="M 51.5 43.7 C 51.5 43.7 58.3 27.3 73.6 27.4 C 79.1 27.4 83.7 28.5 83.7 28.5 C 83.7 28.5 80.7 24.4 70.5 25.2 C 61.9 25.9 53.4 29.5 51.5 43.7 Z " fill="#D9A64A" stroke-width="1"/>
              <g>
                <path d="M 73.1 28 C 73.1 28 74.2 26.7 74.2 25.9 C 74.2 25.9 73.2 24.3 72.4 24.2 C 72.4 24.2 71.3 25.6 71.2 26.4 C 71.2 26.5 72.1 27.8 73.1 28 Z " fill="#FFB83B" stroke-width="1"/>
                <path d="M 73 27.7 C 73 27.7 73.9 26.4 73.9 25.9 C 73.9 25.9 73 24.8 72.5 24.6 C 72.5 24.6 71.8 25.6 71.7 26.4 C 71.6 26.4 72.3 27.2 73 27.7 Z " fill="#D12A2A" stroke-width="1"/>
              </g>
            </g>
          </g>
          <g id="Shape">
            <g>
              <path d="M 89.9 45.1 C 89.9 45.1 88.4 53.3 91.6 55 C 94.8 56.7 94.8 59.6 93.3 60.3 C 93.3 60.3 94.5 58.7 93.2 57.7 C 93.2 57.7 93.8 59.9 90.7 60.8 C 87.6 61.7 90.5 66 93.3 64.1 C 93.3 64.1 92.7 65.3 91.5 65.3 C 91.5 65.3 94.5 65 94.8 66.8 C 95.1 68.5 93.3 71.5 88.5 68.9 C 88.5 68.9 90.8 69.4 91.7 68.7 C 91.7 68.7 90.6 68.9 90.2 68.4 C 90.2 68.4 95.3 68.1 93.4 66.8 C 91.5 65.4 85.9 66.6 87 63.2 C 88.1 59.8 92.4 60.2 91.9 58.6 C 91.3 56.9 88.2 56.4 88.2 53.6 C 88.2 53.6 87.1 56.5 90.6 58 C 90.6 58 86.5 58.2 87.4 52.8 C 88.3 47.4 89.9 45.1 89.9 45.1 Z " fill="#30231D" stroke-width="1"/>
              <path d="M 88.2 53.5 C 88.2 53.5 88.2 53.7 88.3 53.9 C 88.4 54.2 88.5 54.5 88.8 54.9 C 89.1 55.3 89.4 55.7 89.8 56 C 90 56.2 90.3 56.3 90.5 56.5 L 90.9 56.7 L 91.3 57 C 91.5 57.2 91.8 57.5 92 57.8 C 92.2 58.1 92.2 58.6 92.1 58.9 C 92 59.2 91.7 59.5 91.5 59.6 C 91.3 59.8 91 59.9 90.8 60 C 90.4 60.2 90 60.3 89.7 60.3 C 89.4 60.3 89.3 60.3 89.3 60.3 C 89.3 60.3 89.9 60.1 90.7 59.6 C 91.1 59.3 91.5 59 91.6 58.6 C 91.7 58.4 91.6 58.2 91.5 58 C 91.4 57.8 91.2 57.6 91 57.4 L 90.6 57.1 L 90.2 56.8 C 89.9 56.6 89.7 56.4 89.5 56.2 C 89.1 55.8 88.7 55.3 88.5 54.8 C 88.3 54.4 88.2 53.9 88.2 53.7 C 88.2 53.7 88.2 53.5 88.2 53.5 Z " fill="#120D0B" stroke-width="1"/>
              <path d="M 91.1 66 C 91.1 66 90.7 66.1 90.2 66.1 C 89.6 66.1 88.8 66.1 88.1 65.7 C 87.7 65.5 87.4 65.3 87.1 65 C 86.8 64.7 86.7 64.3 86.8 64 C 86.8 63.8 86.8 63.7 86.9 63.6 C 86.9 63.5 87 63.4 87 63.3 C 87.1 63.1 87.1 63.1 87.1 63.1 C 87.1 63.1 87.1 63.2 87.1 63.4 C 87.1 63.5 87.1 63.6 87.1 63.7 C 87.1 63.8 87.2 63.9 87.2 64 C 87.2 64.1 87.3 64.2 87.3 64.4 C 87.4 64.5 87.5 64.6 87.6 64.7 C 87.8 64.9 88.1 65.1 88.4 65.2 C 89 65.5 89.7 65.7 90.3 65.8 C 90.7 65.9 91.1 66 91.1 66 Z " fill="#120D0B" stroke-width="1"/>
              <path d="M 91.6 55 C 91.6 55 91.4 55 91.1 54.8 C 91 54.7 90.8 54.6 90.7 54.4 C 90.5 54.2 90.4 54 90.2 53.8 C 90.1 53.6 89.9 53.3 89.8 53 C 89.7 52.7 89.6 52.4 89.5 52 C 89.5 51.7 89.4 51.3 89.4 51 C 89.4 50.6 89.4 50.3 89.4 49.9 C 89.4 49.2 89.5 48.5 89.6 47.8 C 89.6 47.5 89.7 47.2 89.8 46.9 C 89.9 46.6 89.9 46.3 90 46.1 C 90.3 45.1 90.6 44.4 90.6 44.4 C 90.6 44.4 90.5 45.1 90.4 46.2 C 90.4 46.7 90.3 47.3 90.2 48 C 90.1 48.6 90.1 49.3 90.1 50 C 90.1 50.7 90.1 51.4 90.2 52 C 90.3 52.3 90.3 52.6 90.4 52.9 C 90.5 53.2 90.5 53.4 90.6 53.7 C 90.7 53.9 90.8 54.1 90.9 54.3 C 91 54.5 91.1 54.6 91.2 54.7 C 91.5 54.9 91.6 55 91.6 55 Z " fill="#120D0B" stroke-width="1"/>
            </g>
            <g>
              <g>
                <path d="M 82.7 30.8 C 95.1 35.9 91.8 55.3 91.8 55.3 C 91.8 55.3 95 60.2 88.3 70.8 C 82.1 80.7 63.7 74.7 58.7 64.9 C 55.4 58.4 52.7 42.8 61.6 33.1 C 66.8 27.5 74.3 27.3 82.7 30.8 Z " fill="#875137" stroke-width="1"/>
                <path d="M 81.3 75.6 C 81.3 75.6 80.2 76 78.5 76.1 C 77.7 76.1 76.7 76.2 75.6 76 C 75.1 76 74.5 75.9 74 75.8 C 73.4 75.7 72.9 75.6 72.4 75.4 C 71.9 75.2 71.3 75 70.8 74.9 C 70.3 74.7 69.8 74.5 69.3 74.3 C 68.8 74.1 68.4 73.8 67.9 73.6 C 67.5 73.4 67.1 73.1 66.7 72.9 C 66 72.5 65.4 72 65 71.7 C 64.6 71.4 64.4 71.2 64.4 71.2 C 64.4 71.2 64.6 71.3 65.1 71.6 C 65.3 71.7 65.6 71.9 65.9 72 C 66.2 72.2 66.5 72.3 66.9 72.5 C 67.3 72.7 67.7 72.9 68.1 73.1 C 68.5 73.3 69 73.5 69.5 73.7 C 70 73.9 70.5 74.1 71 74.3 C 71.5 74.5 72 74.6 72.6 74.8 C 73.1 74.9 73.7 75.1 74.2 75.2 C 74.7 75.3 75.3 75.4 75.8 75.5 C 76.8 75.6 77.8 75.7 78.6 75.8 C 80.2 75.7 81.3 75.6 81.3 75.6 Z " fill="#613A27" stroke-width="1"/>
                <path d="M 91.8 55.3 C 91.8 55.3 92 55.5 92.2 55.9 C 92.4 56.3 92.6 56.9 92.7 57.7 C 92.8 58.1 92.8 58.5 92.8 59 C 92.8 59.4 92.8 59.9 92.8 60.4 C 92.7 60.9 92.7 61.4 92.6 61.9 C 92.5 62.4 92.4 62.9 92.2 63.4 C 92.1 63.9 91.9 64.4 91.7 64.9 C 91.5 65.4 91.3 65.8 91.1 66.3 C 90.7 67.2 90.2 68 89.8 68.6 C 89.4 69.3 89 69.8 88.8 70.2 C 88.5 70.6 88.4 70.8 88.4 70.8 C 88.4 70.8 88.5 70.6 88.7 70.2 C 88.9 69.8 89.2 69.2 89.5 68.5 C 89.7 68.2 89.8 67.8 90 67.4 C 90.2 67 90.3 66.6 90.5 66.1 C 90.7 65.7 90.9 65.2 91 64.7 C 91.2 64.2 91.3 63.8 91.5 63.3 C 91.7 62.8 91.8 62.3 91.9 61.8 C 92 61.3 92.1 60.8 92.2 60.4 C 92.3 59.5 92.4 58.6 92.3 57.8 C 92.3 57 92.2 56.4 92 56 C 92 55.5 91.8 55.3 91.8 55.3 Z " fill="#613A27" stroke-width="1"/>
              </g>
              <path d="M 82.4 53.3 C 82.4 53.3 82.8 53.9 83.4 54.9 C 83.9 55.9 84.6 57.2 85.2 58.5 C 85.3 58.8 85.5 59.2 85.6 59.5 C 85.7 59.9 85.8 60.2 85.9 60.6 C 85.9 61 85.8 61.4 85.7 61.7 C 85.5 62 85.3 62.2 85.1 62.4 C 84.7 62.8 84.2 63 83.9 63.1 C 83.6 63.2 83.4 63.3 83.4 63.3 C 83.4 63.3 83.6 63.2 83.8 63 C 84.1 62.8 84.4 62.5 84.8 62.1 C 85.1 61.7 85.4 61.2 85.3 60.6 C 85.3 60.3 85.1 60 85 59.7 C 84.9 59.4 84.7 59 84.6 58.7 C 84 57.4 83.4 56.1 83 55 C 82.6 54 82.4 53.3 82.4 53.3 Z " fill="#613A27" stroke-width="1"/>
              <path d="M 82.8 61.8 C 82.8 61.8 82.7 61.9 82.6 62.1 C 82.5 62.3 82.3 62.4 82.1 62.6 C 81.9 62.7 81.7 62.8 81.5 62.9 C 81.4 62.9 81.3 62.9 81.3 63 C 81.2 63 81.2 63 81.2 63 C 81.2 63 81.2 62.8 81.3 62.6 C 81.4 62.4 81.6 62.2 81.8 62 C 82 61.8 82.3 61.8 82.5 61.8 C 82.6 61.7 82.8 61.8 82.8 61.8 Z " fill="#613A27" stroke-width="1"/>
              <path d="M 86.9 66.5 C 86.9 66.5 86.4 67 85.5 67.4 C 85.1 67.6 84.5 67.8 83.9 67.9 C 83.3 68.1 82.6 68.1 82 68.1 C 81.3 68.1 80.7 68 80.1 67.9 C 79.5 67.8 78.9 67.6 78.5 67.5 C 78 67.4 77.7 67.1 77.4 67 C 77.1 66.9 77 66.8 77 66.8 C 77 66.8 77.2 66.8 77.4 66.9 C 77.7 67 78.1 67.1 78.5 67.1 C 79 67.2 79.5 67.3 80.1 67.3 C 80.7 67.4 81.3 67.4 81.9 67.4 C 82.5 67.4 83.1 67.3 83.7 67.3 C 84.3 67.2 84.8 67.1 85.3 67 C 86.3 66.8 86.9 66.5 86.9 66.5 Z " fill="#613A27" stroke-width="1"/>
              <path d="M 78.1 47.7 C 78.1 47.7 77.6 47.6 76.9 47.5 C 76.2 47.4 75.2 47.4 74.3 47.5 C 73.4 47.6 72.4 47.9 71.8 48.1 C 71.5 48.2 71.2 48.4 71 48.5 C 70.8 48.6 70.7 48.6 70.7 48.6 C 70.7 48.6 70.8 48.5 70.9 48.4 C 71.1 48.3 71.3 48 71.6 47.8 C 71.8 47.7 71.9 47.6 72.1 47.5 C 72.3 47.4 72.5 47.3 72.7 47.2 C 72.9 47.1 73.2 47 73.4 47 C 73.6 46.9 73.9 46.9 74.2 46.9 C 75.2 46.8 76.3 46.9 77 47.2 C 77.6 47.4 78.1 47.7 78.1 47.7 Z " fill="#30231D" stroke-width="1"/>
              <path d="M 78.2 53.7 C 78.2 53.7 78.2 53.8 78 54 C 77.8 54.1 77.6 54.3 77.3 54.4 C 76.6 54.7 75.7 54.7 74.8 54.6 C 74.3 54.6 73.9 54.5 73.5 54.4 C 73.1 54.3 72.7 54.2 72.4 54.1 C 71.8 53.9 71.3 53.7 71.3 53.7 C 71.3 53.7 71.8 53.7 72.4 53.8 C 73.1 53.8 73.9 54 74.8 54 C 75.7 54.1 76.5 54.1 77.2 54.1 C 77.5 54.1 77.8 54 78 53.9 C 78.1 53.8 78.2 53.7 78.2 53.7 Z " fill="#30231D" stroke-width="1"/>
              <path d="M 90 53.1 C 90 53.1 90 53.2 89.9 53.3 C 89.8 53.4 89.6 53.6 89.4 53.7 C 88.9 54 88.2 54.2 87.5 54.2 C 86.8 54.2 86.1 54.1 85.6 53.9 C 85.4 53.8 85.2 53.7 85 53.7 C 84.9 53.6 84.8 53.6 84.8 53.6 C 84.8 53.6 84.9 53.6 85 53.6 C 85.1 53.6 85.4 53.6 85.6 53.6 C 86.1 53.6 86.8 53.6 87.4 53.6 C 88 53.6 88.7 53.5 89.2 53.4 C 89.7 53.3 90 53.1 90 53.1 Z " fill="#30231D" stroke-width="1"/>
              <path d="M 89.8 48.8 C 89.8 48.8 89.4 48.6 88.9 48.4 C 88.4 48.2 87.6 47.9 86.9 47.9 C 86.5 47.8 86.2 47.9 85.8 47.9 C 85.5 47.9 85.1 48 84.8 48 C 84.5 48 84.3 48.1 84.1 48.1 C 83.9 48.1 83.8 48.2 83.8 48.2 C 83.8 48.2 83.9 48.1 84 48 C 84.1 47.9 84.3 47.7 84.6 47.6 C 84.7 47.5 84.9 47.5 85.1 47.4 C 85.3 47.4 85.5 47.3 85.6 47.3 C 85.8 47.3 86 47.2 86.2 47.2 C 86.4 47.2 86.6 47.2 86.8 47.2 C 87.6 47.3 88.4 47.7 88.9 48.1 C 89.6 48.4 89.8 48.8 89.8 48.8 Z " fill="#30231D" stroke-width="1"/>
            </g>
            <g>
              <path d="M 92.1 46.6 C 92.1 46.6 90.7 33.6 79.1 38.7 C 79.1 38.7 63 31.2 64.4 54.5 C 64.4 54.5 57 52.2 58.7 64.8 C 58.7 64.8 48.8 57.7 51.6 43.7 C 54.2 31.2 64.1 25.3 72 27.5 C 72 27.5 77.1 25.8 83 28 C 88.4 30 92.9 35.5 92.1 46.6 Z " fill="#30231D" stroke-width="1"/>
              <path d="M 79.5 40.7 C 79.5 40.7 79.3 40.1 79 39.2 C 78.7 38.3 78.3 37.1 77.8 35.9 C 77.3 34.7 76.7 33.6 76.2 32.8 C 76 32.4 75.8 32 75.6 31.8 C 75.4 31.6 75.4 31.4 75.4 31.4 C 75.4 31.4 75.5 31.5 75.7 31.7 C 75.9 31.9 76.2 32.2 76.5 32.6 C 76.8 33 77.2 33.4 77.5 34 C 77.8 34.5 78.1 35.1 78.4 35.7 C 78.9 36.9 79.2 38.2 79.4 39.1 C 79.6 40.1 79.5 40.7 79.5 40.7 Z " fill="#875137" stroke-width="1"/>
              <path d="M 77.9 35.9 C 77.9 35.9 77.5 35.6 76.8 35.3 C 76.5 35.2 76.1 35 75.7 34.9 C 75.3 34.8 74.8 34.7 74.4 34.7 C 73.9 34.7 73.5 34.7 73.1 34.7 C 72.7 34.8 72.3 34.8 71.9 34.9 C 71.5 35 71.3 35.1 71.1 35.1 C 70.9 35.2 70.8 35.2 70.8 35.2 C 70.8 35.2 70.9 35.1 71.1 35 C 71.3 34.9 71.5 34.7 71.9 34.5 C 72.2 34.3 72.6 34.2 73.1 34.1 C 73.3 34.1 73.6 34 73.8 34 C 74.1 34 74.3 34 74.6 34 C 75.1 34 75.6 34.1 76.1 34.3 C 76.5 34.5 76.9 34.7 77.2 34.9 C 77.6 35.5 77.9 35.9 77.9 35.9 Z " fill="#120D0B" stroke-width="1"/>
              <path d="M 76.5 33.2 C 76.5 33.2 76.3 33.1 76 33.1 C 75.7 33 75.3 32.9 74.9 32.9 C 74.5 32.8 74.1 32.8 73.8 32.8 C 73.5 32.8 73.2 32.8 73.2 32.8 C 73.2 32.8 73.4 32.6 73.7 32.5 C 73.9 32.4 74.1 32.4 74.3 32.3 C 74.5 32.3 74.8 32.3 75 32.3 C 75.5 32.4 75.9 32.6 76.2 32.9 C 76.4 33 76.5 33.2 76.5 33.2 Z " fill="#120D0B" stroke-width="1"/>
              <path d="M 74.2 29 C 74.2 29 73.5 28.5 72.4 28 C 72.1 27.9 71.8 27.8 71.5 27.7 C 71.2 27.6 70.8 27.5 70.4 27.5 C 70 27.4 69.6 27.4 69.2 27.4 C 68.8 27.4 68.4 27.4 68 27.4 C 67.6 27.4 67.2 27.4 66.8 27.5 C 66.4 27.6 66 27.6 65.6 27.7 C 65.2 27.8 64.9 27.9 64.5 28 C 64.2 28.1 63.8 28.2 63.5 28.3 C 62.9 28.5 62.4 28.7 62.1 28.8 C 61.8 28.9 61.6 29 61.6 29 C 61.6 29 61.8 28.9 62.1 28.7 C 62.4 28.5 62.9 28.2 63.4 27.9 C 63.7 27.8 64 27.6 64.3 27.5 C 64.6 27.4 65 27.3 65.4 27.1 C 65.8 27 66.2 26.9 66.6 26.8 C 67 26.7 67.5 26.7 67.9 26.7 C 68.3 26.7 68.8 26.7 69.2 26.7 C 69.6 26.8 70 26.8 70.4 26.9 C 70.8 27 71.2 27.1 71.5 27.3 C 71.9 27.4 72.2 27.6 72.5 27.7 C 73.7 28.4 74.2 29 74.2 29 Z " fill="#120D0B" stroke-width="1"/>
              <path d="M 58.8 64.8 C 58.8 64.8 57.8 64.2 56.5 63 C 56.2 62.7 55.9 62.3 55.5 62 C 55.2 61.6 54.8 61.2 54.5 60.7 C 54.2 60.2 53.9 59.8 53.6 59.3 C 53.3 58.8 53 58.3 52.8 57.7 C 52.5 57.2 52.4 56.6 52.2 56.1 C 52 55.5 51.9 55 51.7 54.5 C 51.6 54 51.5 53.4 51.4 52.9 C 51.3 52.4 51.3 51.9 51.2 51.5 C 51.2 51.1 51.1 50.7 51.1 50.3 C 51.1 49.9 51.1 49.6 51.1 49.4 C 51.1 48.9 51.1 48.6 51.1 48.6 C 51.1 48.6 51.1 48.9 51.2 49.4 C 51.2 49.7 51.3 50 51.3 50.3 C 51.3 50.7 51.4 51 51.5 51.5 C 51.6 51.9 51.6 52.4 51.8 52.9 C 51.9 53.4 52.1 53.9 52.2 54.4 C 52.4 54.9 52.5 55.4 52.7 56 C 52.9 56.5 53.1 57.1 53.4 57.6 C 53.6 58.1 53.9 58.7 54.2 59.1 C 54.5 59.6 54.8 60.1 55 60.5 C 55.6 61.4 56.2 62.2 56.7 62.9 C 57.9 64.1 58.8 64.8 58.8 64.8 Z " fill="#120D0B" stroke-width="1"/>
              <path d="M 81.9 29.9 C 81.9 29.9 81.4 29.8 80.8 29.7 C 80.1 29.6 79.2 29.5 78.4 29.5 C 78 29.5 77.5 29.5 77.1 29.6 C 76.9 29.6 76.7 29.7 76.5 29.7 C 76.3 29.8 76.2 29.8 76 29.9 C 75.9 30 75.7 30 75.6 30.1 C 75.5 30.2 75.4 30.2 75.3 30.3 C 75.1 30.4 75 30.5 75 30.5 C 75 30.5 75.1 30.4 75.2 30.2 C 75.3 30.1 75.3 30 75.4 29.9 C 75.5 29.8 75.6 29.7 75.8 29.6 C 76.1 29.4 76.5 29.2 76.9 29.1 C 77.1 29.1 77.4 29 77.6 29 C 77.8 29 78.1 29 78.3 29 C 79.3 29 80.2 29.3 80.8 29.5 C 81.5 29.6 81.9 29.9 81.9 29.9 Z " fill="#120D0B" stroke-width="1"/>
              <path d="M 85.1 32.9 C 85.1 32.9 84.5 32.6 83.7 32.3 C 83.3 32.1 82.8 32 82.3 31.8 C 81.8 31.6 81.2 31.5 80.6 31.4 C 80.3 31.3 80 31.3 79.8 31.3 C 79.5 31.3 79.2 31.3 79 31.3 C 78.7 31.3 78.5 31.4 78.2 31.4 C 78 31.5 77.7 31.5 77.5 31.6 C 77.3 31.7 77.1 31.8 77 31.9 C 76.8 32 76.7 32.1 76.6 32.2 C 76.4 32.4 76.3 32.4 76.3 32.4 C 76.3 32.4 76.4 32.3 76.6 32.1 C 76.7 32 76.8 31.9 76.9 31.7 C 77 31.6 77.2 31.4 77.4 31.3 C 77.6 31.2 77.8 31.1 78.1 31 C 78.4 30.9 78.6 30.9 78.9 30.8 C 79.2 30.8 79.5 30.7 79.8 30.8 C 80.1 30.8 80.4 30.8 80.7 30.9 C 81.9 31.1 83.1 31.7 83.8 32.2 C 84.6 32.5 85.1 32.9 85.1 32.9 Z " fill="#120D0B" stroke-width="1"/>
              <path d="M 65.9 36.9 C 65.9 36.9 65.7 37.2 65.5 37.5 C 65.2 37.9 64.9 38.3 64.5 38.8 C 64.1 39.2 63.7 39.7 63.4 40 C 63.2 40.2 63.1 40.3 63 40.4 C 62.9 40.5 62.8 40.5 62.8 40.5 C 62.8 40.5 62.9 40.2 63.1 39.8 C 63.3 39.4 63.6 38.9 64 38.4 C 64.4 37.9 64.9 37.5 65.3 37.3 C 65.6 37 65.9 36.9 65.9 36.9 Z " fill="#452F26" stroke-width="1"/>
              <path d="M 64 37.2 C 64 37.2 63.9 37.3 63.8 37.5 C 63.7 37.7 63.5 37.9 63.4 38 C 63.2 38.2 63 38.3 62.9 38.4 C 62.7 38.5 62.6 38.6 62.6 38.6 C 62.6 38.6 62.6 38.4 62.6 38.2 C 62.6 38 62.8 37.7 63 37.5 C 63.2 37.3 63.5 37.2 63.7 37.1 C 63.9 37.2 64 37.2 64 37.2 Z " fill="#452F26" stroke-width="1"/>
              <path d="M 63.5 35.4 C 63.5 35.4 63.3 35.8 62.9 36.3 C 62.5 36.8 62 37.5 61.4 38.1 C 60.9 38.7 60.3 39.4 59.9 39.8 C 59.7 40 59.5 40.2 59.4 40.4 C 59.3 40.5 59.2 40.6 59.2 40.6 C 59.2 40.6 59.3 40.2 59.6 39.6 C 59.9 39 60.4 38.3 60.9 37.6 C 61.5 36.9 62.1 36.4 62.6 36 C 63.1 35.7 63.5 35.4 63.5 35.4 Z " fill="#452F26" stroke-width="1"/>
              <path d="M 60.5 36.8 C 60.5 36.8 60.5 37 60.4 37.2 C 60.3 37.4 60.2 37.7 60.1 37.9 C 59.9 38.1 59.7 38.3 59.5 38.5 C 59.3 38.6 59.1 38.7 59.1 38.7 C 59.1 38.7 59.1 38.5 59.2 38.3 C 59.3 38.1 59.4 37.8 59.5 37.6 C 59.7 37.4 59.9 37.2 60.1 37 C 60.3 36.8 60.5 36.8 60.5 36.8 Z " fill="#452F26" stroke-width="1"/>
              <path d="M 60.7 35.5 C 60.7 35.5 60.6 35.7 60.5 36 C 60.3 36.3 60.1 36.6 59.8 36.9 C 59.5 37.2 59.2 37.5 59 37.7 C 58.8 37.9 58.6 38 58.6 38 C 58.6 38 58.6 37.8 58.7 37.5 C 58.8 37.2 59 36.8 59.3 36.5 C 59.6 36.2 59.9 35.9 60.2 35.8 C 60.5 35.6 60.7 35.5 60.7 35.5 Z " fill="#452F26" stroke-width="1"/>
              <path d="M 60.9 33 C 60.9 33 60.6 33.3 60.1 33.7 C 59.7 34.1 59.1 34.7 58.6 35.3 C 58.3 35.6 58.1 35.9 57.8 36.2 C 57.6 36.5 57.3 36.8 57.1 37 C 56.9 37.2 56.7 37.4 56.6 37.6 C 56.5 37.7 56.4 37.8 56.4 37.8 C 56.4 37.8 56.5 37.4 56.8 36.8 C 57.1 36.2 57.5 35.5 58.1 34.8 C 58.7 34.1 59.3 33.6 59.9 33.3 C 60.4 33.1 60.9 33 60.9 33 Z " fill="#452F26" stroke-width="1"/>
              <path d="M 87 36.5 C 87 36.5 86.7 36.5 86.4 36.4 C 86 36.3 85.5 36.2 85 36 C 84.5 35.8 84.1 35.6 83.8 35.5 C 83.6 35.4 83.5 35.3 83.4 35.3 C 83.3 35.3 83.2 35.2 83.2 35.2 C 83.2 35.2 83.5 35.1 83.9 35.1 C 84.3 35.1 84.8 35.2 85.3 35.4 C 85.8 35.6 86.2 35.8 86.5 36.1 C 86.8 36.3 87 36.5 87 36.5 Z " fill="#452F26" stroke-width="1"/>
              <path d="M 86.6 34.8 C 86.6 34.8 86.4 34.8 86.2 34.8 C 86 34.8 85.7 34.8 85.5 34.7 C 85 34.6 84.6 34.2 84.6 34.2 C 84.6 34.2 84.7 34.1 85 34 C 85.2 33.9 85.5 34 85.8 34 C 86.1 34.1 86.3 34.2 86.5 34.4 C 86.5 34.7 86.6 34.8 86.6 34.8 Z " fill="#452F26" stroke-width="1"/>
              <path d="M 86.7 32.5 C 86.7 32.5 86.4 32.4 86 32.3 C 85.6 32.2 85.1 31.9 84.6 31.7 C 84.1 31.5 83.6 31.2 83.3 31.1 C 83.1 31 83 30.9 82.8 30.9 C 82.7 30.9 82.6 30.8 82.6 30.8 C 82.6 30.8 82.9 30.7 83.3 30.7 C 83.7 30.7 84.3 30.9 84.8 31.1 C 85.3 31.3 85.8 31.7 86.1 32 C 86.5 32.3 86.7 32.5 86.7 32.5 Z " fill="#452F26" stroke-width="1"/>
            </g>
            <g>
              <path d="M 62.9 54.3 C 62.9 54.3 60.7 48.1 56.5 50.7 C 52.3 53.3 53.7 60.8 58.7 62.4 " fill="#875137" stroke-width="1"/>
              <path d="M 56.5 53.3 C 56.5 53.3 56.6 53.2 56.7 53 C 56.9 52.9 57.1 52.6 57.5 52.5 C 57.7 52.4 57.9 52.4 58.2 52.5 C 58.3 52.5 58.4 52.6 58.6 52.6 C 58.7 52.7 58.8 52.7 58.9 52.8 C 59.1 53 59.3 53.1 59.5 53.4 C 59.6 53.6 59.8 53.8 59.9 54.1 C 60 54.3 60.1 54.6 60.2 54.8 C 60.3 55 60.3 55.3 60.4 55.5 C 60.5 56 60.6 56.4 60.6 56.8 C 60.7 57.6 60.6 58.1 60.6 58.1 C 60.6 58.1 60.4 57.6 60.2 56.9 C 60.1 56.5 59.9 56.1 59.8 55.7 C 59.7 55.5 59.6 55.3 59.5 55 C 59.4 54.8 59.3 54.6 59.2 54.4 C 59.1 54.2 59 54 58.9 53.8 C 58.8 53.6 58.6 53.5 58.5 53.3 L 58.3 53.1 C 58.2 53.1 58.1 53 58.1 53 C 57.9 53 57.8 52.9 57.6 52.9 C 57.3 52.9 57 53 56.8 53.1 C 56.6 53.2 56.5 53.3 56.5 53.3 Z " fill="#613A27" stroke-width="1"/>
              <path d="M 59.9 54.9 C 59.9 54.9 59.6 55 59.3 55.2 C 59 55.4 58.6 55.6 58.2 56 C 58 56.2 57.9 56.4 57.7 56.5 C 57.6 56.7 57.4 56.9 57.3 57 C 57.2 57.2 57.1 57.3 57 57.4 C 56.9 57.5 56.9 57.6 56.9 57.6 C 56.9 57.6 56.9 57.5 56.9 57.4 C 56.9 57.3 56.9 57.1 56.9 56.9 C 57 56.5 57.2 55.9 57.6 55.5 C 57.8 55.3 58 55.1 58.3 55 C 58.5 54.9 58.8 54.8 59 54.8 C 59.6 54.8 59.9 54.9 59.9 54.9 Z " fill="#613A27" stroke-width="1"/>
            </g>
            <g>
              <path d="M 64.5 45 C 64.5 45 63 53.2 66.2 54.9 C 69.4 56.6 69.4 59.5 67.9 60.2 C 67.9 60.2 69.1 58.6 67.8 57.6 C 67.8 57.6 68.4 59.8 65.3 60.7 C 62.2 61.6 65.1 65.9 67.9 64 C 67.9 64 67.3 65.2 66.1 65.2 C 66.1 65.2 69.1 64.9 69.4 66.7 C 69.7 68.5 67.9 71.4 63.1 68.8 C 63.1 68.8 65.4 69.3 66.3 68.6 C 66.3 68.6 65.2 68.8 64.8 68.3 C 64.8 68.3 69.9 68 68 66.7 C 66.1 65.4 60.5 66.5 61.6 63.1 C 62.7 59.7 67 60.1 66.5 58.5 C 65.9 56.8 62.8 56.3 62.8 53.5 C 62.8 53.5 61.7 56.4 65.2 57.9 C 65.2 57.9 61.1 58.1 62 52.7 C 62.9 47.3 64.5 45 64.5 45 Z " fill="#30231D" stroke-width="1"/>
              <path d="M 62.8 53.4 C 62.8 53.4 62.8 53.6 62.9 53.8 C 63 54.1 63.1 54.4 63.4 54.8 C 63.7 55.2 64 55.6 64.4 55.9 C 64.6 56.1 64.9 56.2 65.1 56.4 L 65.5 56.6 L 65.9 56.9 C 66.1 57.1 66.4 57.4 66.6 57.7 C 66.8 58 66.8 58.5 66.7 58.8 C 66.6 59.1 66.3 59.4 66.1 59.5 C 65.9 59.7 65.6 59.8 65.4 59.9 C 65 60.1 64.6 60.2 64.3 60.2 C 64 60.2 63.9 60.2 63.9 60.2 C 63.9 60.2 64.5 60 65.3 59.5 C 65.7 59.2 66.1 58.9 66.2 58.5 C 66.3 58.3 66.2 58.1 66.1 57.9 C 66 57.7 65.8 57.5 65.6 57.3 L 65.2 57 L 64.8 56.7 C 64.5 56.5 64.3 56.3 64.1 56.1 C 63.7 55.7 63.3 55.2 63.1 54.7 C 62.9 54.3 62.8 53.8 62.8 53.6 C 62.7 53.5 62.8 53.4 62.8 53.4 Z " fill="#120D0B" stroke-width="1"/>
              <path d="M 65.6 65.9 C 65.6 65.9 65.2 66 64.7 66 C 64.1 66 63.3 66 62.6 65.6 C 62.2 65.4 61.9 65.2 61.6 64.9 C 61.3 64.6 61.2 64.2 61.3 63.9 C 61.3 63.7 61.3 63.6 61.4 63.5 C 61.4 63.4 61.5 63.3 61.5 63.2 C 61.6 63 61.6 63 61.6 63 C 61.6 63 61.6 63.1 61.6 63.3 C 61.6 63.4 61.6 63.5 61.6 63.6 C 61.6 63.7 61.7 63.8 61.7 63.9 C 61.7 64 61.8 64.1 61.8 64.3 C 61.9 64.4 62 64.5 62.1 64.6 C 62.3 64.8 62.6 65 62.9 65.1 C 63.5 65.4 64.2 65.6 64.8 65.7 C 65.2 65.8 65.6 65.9 65.6 65.9 Z " fill="#120D0B" stroke-width="1"/>
              <path d="M 66.2 54.9 C 66.2 54.9 66 54.9 65.7 54.7 C 65.6 54.6 65.4 54.5 65.3 54.3 C 65.1 54.1 65 53.9 64.8 53.7 C 64.7 53.5 64.5 53.2 64.4 52.9 C 64.3 52.6 64.2 52.3 64.1 51.9 C 64.1 51.6 64 51.2 64 50.9 C 64 50.5 64 50.2 64 49.8 C 64 49.1 64.1 48.4 64.2 47.7 C 64.2 47.4 64.3 47.1 64.4 46.8 C 64.5 46.5 64.5 46.2 64.6 46 C 64.9 45 65.2 44.3 65.2 44.3 C 65.2 44.3 65.2 45 65 46 C 65 46.5 64.9 47.1 64.8 47.8 C 64.7 48.4 64.7 49.1 64.7 49.8 C 64.7 50.5 64.7 51.2 64.8 51.8 C 64.9 52.1 64.9 52.4 65 52.7 C 65.1 53 65.1 53.2 65.2 53.5 C 65.3 53.7 65.4 53.9 65.5 54.1 C 65.6 54.3 65.7 54.4 65.8 54.5 C 66 54.8 66.2 54.9 66.2 54.9 Z " fill="#120D0B" stroke-width="1"/>
            </g>
          </g>
        </g>
        <g id="Group" fill-rule="nonzero">
          <g id="Shape">
            <path d="M 83.3 98.2 C 83.3 98.2 84.6 95.3 82.5 90.9 C 81.1 87.9 80.9 85.1 79.9 85.4 C 78.1 85.9 80.4 90.5 80.4 90.5 C 80.4 90.5 77.2 86.8 77.1 84.9 C 77 83.5 75.7 81.5 75 81.6 C 74.3 81.7 75 85 75.5 87.1 C 75.5 87.1 74.6 84.7 73.9 83.4 C 73.1 82 72.4 81.8 72.4 83.7 C 72.4 83.7 70.3 82 71.5 87 C 71.5 87 70.3 87.1 71.3 89.7 C 72.3 92.3 78.1 104.7 83.3 98.2 Z " fill="#875137" stroke-width="1"/>
            <path d="M 74.8 82.2 C 74.8 82.2 74.8 82.8 75 83.6 C 75.2 84.4 75.5 85.4 75.8 86.5 C 76 87 76.2 87.5 76.4 88 C 76.6 88.5 76.8 88.9 77 89.3 C 77.2 89.7 77.3 90 77.4 90.2 C 77.5 90.4 77.5 90.6 77.5 90.6 C 77.5 90.6 77.4 90.5 77.3 90.3 C 77.2 90.1 76.9 89.8 76.7 89.5 C 76.2 88.8 75.7 87.8 75.3 86.8 C 75.1 86.3 75 85.7 74.9 85.2 C 74.8 84.7 74.7 84.2 74.7 83.8 C 74.7 83.4 74.7 83 74.8 82.8 C 74.8 82.4 74.8 82.2 74.8 82.2 Z " fill="#613A27" stroke-width="1"/>
            <path d="M 72.4 83.6 C 72.4 83.6 72.5 84.1 72.7 84.8 C 72.9 85.5 73.2 86.5 73.6 87.4 C 73.8 87.9 74 88.3 74.2 88.8 C 74.4 89.2 74.6 89.6 74.7 90 C 74.9 90.4 75 90.6 75.1 90.9 C 75.2 91.1 75.2 91.2 75.2 91.2 C 75.2 91.2 74.8 90.8 74.4 90.2 C 73.9 89.6 73.4 88.7 73 87.7 C 72.8 87.2 72.6 86.7 72.5 86.2 C 72.4 85.7 72.3 85.3 72.3 84.9 C 72.3 84.1 72.4 83.6 72.4 83.6 Z " fill="#613A27" stroke-width="1"/>
            <path d="M 71.5 86.9 C 71.5 86.9 71.7 87.2 72 87.8 C 72.3 88.3 72.6 89 72.9 89.7 C 73.2 90.4 73.5 91.1 73.7 91.6 C 73.8 91.9 73.9 92.1 74 92.3 C 74.1 92.5 74.1 92.6 74.1 92.6 C 74.1 92.6 73.8 92.3 73.4 91.9 C 73 91.4 72.6 90.7 72.3 90 C 72 89.3 71.8 88.5 71.6 88 C 71.6 87.3 71.5 86.9 71.5 86.9 Z " fill="#613A27" stroke-width="1"/>
            <path d="M 83.5 97 C 83.5 97 83.6 96.8 83.6 96.5 C 83.6 96.2 83.6 95.7 83.6 95.2 C 83.6 94.9 83.5 94.6 83.5 94.3 C 83.4 94 83.3 93.7 83.2 93.4 C 83 92.8 82.7 92.1 82.4 91.4 C 81.8 90 81.3 88.6 81.1 87.6 C 80.8 86.5 80.7 85.8 80.7 85.8 C 80.7 85.8 81 86.5 81.4 87.5 C 81.8 88.5 82.4 89.9 83 91.2 C 83.3 91.9 83.5 92.6 83.7 93.3 C 83.8 93.6 83.8 94 83.9 94.3 C 83.9 94.6 84 94.9 83.9 95.2 C 83.9 95.8 83.8 96.2 83.7 96.5 C 83.6 96.9 83.5 97 83.5 97 Z " fill="#613A27" stroke-width="1"/>
            <path d="M 80.5 90.4 C 80.5 90.4 80.2 90.2 80 89.9 C 79.7 89.6 79.4 89 79.3 88.5 C 79.2 88.2 79.2 87.9 79.2 87.6 C 79.2 87.3 79.2 87.1 79.2 86.8 C 79.3 86.4 79.4 86.1 79.4 86.1 C 79.4 86.1 79.4 86.2 79.4 86.3 C 79.4 86.4 79.5 86.6 79.5 86.8 C 79.6 87.2 79.7 87.7 79.8 88.2 C 79.9 88.7 80.1 89.2 80.2 89.6 C 80.4 90.2 80.5 90.4 80.5 90.4 Z " fill="#613A27" stroke-width="1"/>
            <path d="M 78.2 99.5 C 78.2 99.5 78 99.5 77.7 99.3 C 77.4 99.1 77 98.9 76.5 98.5 C 76.1 98.1 75.5 97.6 75.1 97.1 C 74.6 96.5 74.2 95.9 73.8 95.2 C 73.6 94.9 73.4 94.5 73.2 94.2 C 73 93.9 72.9 93.5 72.7 93.2 C 72.4 92.5 72.2 91.9 71.9 91.4 C 71.7 90.9 71.6 90.4 71.5 90.1 C 71.4 89.8 71.4 89.6 71.4 89.6 C 71.4 89.6 71.5 89.8 71.7 90.1 C 71.9 90.4 72.1 90.8 72.3 91.3 C 72.8 92.3 73.5 93.7 74.3 95 C 74.7 95.6 75.1 96.3 75.5 96.9 C 75.9 97.5 76.3 98 76.7 98.4 C 77.1 98.8 77.4 99.1 77.7 99.3 C 78 99.4 78.2 99.5 78.2 99.5 Z " fill="#613A27" stroke-width="1"/>
          </g>
          <g id="Shape">
            <g>
              <path d="M 103.6 129.2 C 102.8 124.1 96.2 114.9 91.5 108.7 C 88.5 104.7 83.5 97.2 83.5 97.2 C 81.3 96.5 80 98 78.9 99.7 C 78.9 99.7 80.4 103.5 83.4 110.9 C 86.6 118.9 94.2 131.7 97.2 132.8 C 100.7 134.1 104 131.7 103.6 129.2 Z " fill="#52B6CC" stroke-width="1"/>
              <path d="M 102.7 126 C 102.7 126 101.9 124.7 100.8 122.7 C 100.2 121.7 99.5 120.6 98.8 119.4 C 98 118.2 97.2 116.9 96.4 115.7 C 95.6 114.4 94.7 113.2 93.9 112 C 93.1 110.9 92.3 109.8 91.6 108.8 C 90.2 107 89.3 105.8 89.3 105.8 C 89.3 105.8 89.6 106.1 90 106.6 C 90.4 107.1 91.1 107.8 91.8 108.7 C 92.2 109.1 92.6 109.6 93 110.1 C 93.4 110.6 93.8 111.1 94.3 111.7 C 95.1 112.8 96 114.1 96.9 115.3 C 97.7 116.6 98.5 117.9 99.3 119.1 C 100 120.3 100.7 121.5 101.2 122.5 C 102.1 124.6 102.7 126 102.7 126 Z " fill="#2E83BF" stroke-width="1"/>
            </g>
            <path d="M 79.1 99.9 C 79.1 99.9 79.8 101.8 81 104.6 C 81.6 106 82.3 107.7 83.1 109.4 C 83.9 111.1 84.7 113 85.6 114.8 C 86.5 116.6 87.4 118.5 88.3 120.1 C 89.2 121.8 90.1 123.3 90.9 124.7 C 91.3 125.4 91.6 126 92 126.5 C 92.3 127 92.6 127.5 92.9 127.9 C 93.4 128.7 93.6 129.1 93.6 129.1 C 93.6 129.1 93.3 128.7 92.8 128 C 92.3 127.3 91.5 126.3 90.7 125 C 90.3 124.4 89.8 123.7 89.4 122.9 C 88.9 122.2 88.4 121.4 88 120.5 C 87.1 118.8 86.1 117 85.2 115.2 C 84.3 113.4 83.5 111.5 82.7 109.7 C 82 107.9 81.3 106.2 80.8 104.8 C 80.3 103.4 79.9 102.1 79.6 101.3 C 79.2 100.4 79.1 99.9 79.1 99.9 Z " fill="#2E83BF" stroke-width="1"/>
          </g>
        </g>
      </g>
    </g>
  </g>
</svg>