<svg xmlns="http://www.w3.org/2000/svg" xmlns:xlink="http://www.w3.org/1999/xlink" width="85.29418182373047" height="149.28399658203125" viewBox="-0.31821560859680176 -0.3027299642562866 85.29418182373047 149.28399658203125" version="1.1" xml:space="preserve">
  <!-- Generator: Sketch 52.4 (67378) - http://www.bohemiancoding.com/sketch -->
  <g>
    <title>Slice 1</title>
    <desc>Created with Sketch.</desc>
    <g id="Page-1" stroke="none" fill-rule="evenodd">
      <g id="pitcher-a-[baseball,sports,people,alex-eben-meyer]">
        <path d="M63.877,81.733 C62.079,80.957 46.016,86.209 46.016,86.209 L61.871,122.602 L71.296,123.025 C71.296,123.025 64.513,83.697 63.877,81.733 Z" id="Shape" fill="#3C3C32" stroke-width="1"/>
        <g id="Group-7">
          <path d="M 79.489 147.396 C 78.631 147.227 77.765 147.101 76.893 147.019 C 75.881 145.067 72.267 119.851 72.267 119.851 L 59.731 119.851 C 63.866 128.671 69.931 148.206 69.931 148.206 C 69.931 148.206 78.027 148.503 79.489 148.092 L 79.489 147.396 Z " id="Shape" fill="#BE0A3C" stroke-width="1"/>
          <polyline id="Shape" fill="#FFDC00" points="6.391 15.707 18.453 15.707 17.071 6.453 2.535 6.453 6.391 15.707" stroke-width="1" transform="matrix(1,0,0,1,57,117)"/>
          <polyline id="Shape" fill="#FFC800" points="16.516 4.307 15.921 0.322 0.326 0.322 1.98 4.307 16.516 4.307" stroke-width="1" transform="matrix(1,0,0,1,57,117)"/>
        </g>
        <path d="M39.372,86.203 L17.925,89.383 C17.925,89.383 12.357,117.539 12.357,121.124 C16.19,121.581 19.417,122.682 23.285,122.391 C23.32,122.089 39.372,86.203 39.372,86.203 Z" id="Shape" fill="#3C3C32" stroke-width="1"/>
        <g id="Group-6">
          <path d="M 10.553 119.851 C 9.749 124.104 8.54 142.549 7.147 147.133 C 6.309 147.31 5.505 147.516 4.707 147.133 C 4.377 147.316 4.125 147.61 3.996 147.961 C 4.279 148.874 11.981 148.304 13.143 148.321 C 15.132 147.75 19.053 135.761 20.342 132.661 C 22.077 128.431 25.546 119.822 25.546 119.822 L 10.553 119.851 Z " id="Shape" fill="#BE0A3C" stroke-width="1"/>
          <polyline id="Shape" fill="#FFDC00" points="18.088 15.707 5.517 15.707 5.951 6.453 21.939 6.453 18.088 15.707" stroke-width="1" transform="matrix(1,0,0,1,3,117)"/>
          <polyline id="Shape" fill="#FFC800" points="5.997 4.307 6.593 0.322 24.541 0.322 22.887 4.307 5.997 4.307" stroke-width="1" transform="matrix(1,0,0,1,3,117)"/>
        </g>
        <path d="M19.394,79.672 C18.746,82.498 17.977,90.65 17.411,93.493 L65.861,95.554 C65.282,92.7 64.022,81.916 63.478,79.084 L19.394,79.672 Z" id="Shape" fill="#3C3C32" stroke-width="1"/>
        <path d="M66.358,87.71 C65.12,81.259 62.888,69.556 61.732,63.094 C60.865,58.359 59.986,53.629 59.095,48.902 C58.662,46.618 58.627,45.905 57.707,43.718 L26.969,44.289 C25.662,46.641 25.373,50.215 24.696,52.795 C23.893,55.878 23.06,58.943 22.383,62.06 C20.944,68.883 18.7,80.991 17.121,87.784 L66.358,87.71 Z" id="Shape" fill="#FFDC00" stroke-width="1"/>
        <g id="Group-5">
          <polygon id="Rectangle-path" fill="#BE0A3C" points="0.028 1.576 52.746 1.576 52.746 7.85 0.028 7.85" stroke-width="1" transform="matrix(1,0,0,1,15,83)"/>
          <polygon id="Rectangle-path" fill="#FFC800" points="23.314 0.263 30.831 0.263 30.831 8.735 23.314 8.735" stroke-width="1" transform="matrix(1,0,0,1,15,83)"/>
          <polygon id="Rectangle-path" fill="#3C3C32" points="35.173 0.263 38.932 0.263 38.932 8.735 35.173 8.735" stroke-width="1" transform="matrix(1,0,0,1,15,83)"/>
          <polygon id="Rectangle-path" fill="#3C3C32" points="44.17 0.263 47.929 0.263 47.929 8.735 44.17 8.735" stroke-width="1" transform="matrix(1,0,0,1,15,83)"/>
          <polygon id="Rectangle-path" fill="#3C3C32" points="15.906 0.263 19.665 0.263 19.665 8.735 15.906 8.735" stroke-width="1" transform="matrix(1,0,0,1,15,83)"/>
          <polygon id="Rectangle-path" fill="#3C3C32" points="4.897 0.263 8.655 0.263 8.655 8.735 4.897 8.735" stroke-width="1" transform="matrix(1,0,0,1,15,83)"/>
        </g>
        <g id="Group-4">
          <path d="M 39.742 3.304 C 40.817 4.453 42.749 3.201 43.94 2.902 C 43.94 1.305 43.408 0.8 42.899 0.202 C 42.072 0.145 39.505 0.57 39.742 3.304 Z " id="Shape" fill="#3C3C32" stroke-width="1"/>
          <path d="M 64.704 27.402 L 63.108 20.426 L 31.462 15.174 L 19.186 23.811 C 19.186 23.811 19.186 38.654 42.107 36.942 C 65.028 35.229 64.704 27.402 64.704 27.402 Z " id="Shape" fill="#E6781E" stroke-width="1"/>
          <path d="M 63.108 20.403 C 63.727 34.139 50.057 35.378 50.497 35.48 C 53.735 35.143 78.252 36.245 78.385 24.559 C 78.454 19.296 66.705 20.164 63.108 20.403 Z " id="Shape" fill="#FAB414" stroke-width="1"/>
          <path d="M 26.5 38.278 C 26.778 35.526 24.638 31.301 24.118 28.516 C 20.967 25.45 19.191 25.775 17.179 29.189 C 14.34 34.013 23.343 39.785 26.5 38.278 Z " id="Shape" fill="#824600" stroke-width="1"/>
          <path d="M 54.539 37.952 C 54.261 35.201 54.932 30.394 55.452 27.608 C 58.604 24.542 63.102 24.234 63.854 28.864 C 64.762 34.378 57.696 39.465 54.539 37.952 Z " id="Shape" fill="#824600" stroke-width="1"/>
          <path d="M 60.032 18.988 C 53.498 18.291 24.841 20.306 22.389 21.425 C 21.898 23.515 23.574 37.672 24.633 41.338 C 25.344 43.809 25.789 46.875 27.055 49.136 C 34.22 48.942 53.324 49.347 53.324 49.347 C 53.324 49.347 57.06 41.851 58.731 34.458 C 59.808 29.374 60.245 24.178 60.032 18.988 Z " id="Shape" fill="#A0640A" stroke-width="1"/>
          <path d="M 35.457 19.444 L 59.165 33.014 C 60.067 29.503 60.659 25.922 60.934 22.31 C 61.183 17.326 60.552 15.956 60.552 15.956 L 35.457 19.444 Z " id="Shape" fill="#000000" stroke-width="1"/>
          <polyline id="Shape" fill="#000000" points="8.361 20.438 30.178 28.784 24.499 18.822 8.361 20.438" stroke-width="1" transform="matrix(1,0,0,1,16,0)"/>
          <path d="M 40.228 30.417 C 38.186 31.501 35.486 36.165 35.486 36.165 L 47.444 36.103 C 47.444 36.103 45.484 31.73 44.281 30.479 C 43.078 29.229 42.274 29.338 40.228 30.417 Z " id="Shape" fill="#824600" stroke-width="1"/>
          <path d="M 63.108 20.403 C 63.368 17.766 61.582 14.124 60.483 11.783 C 59.165 9.003 57.262 6.97 54.863 5.024 C 50.318 1.336 44.125 0.936 38.58 1.97 C 33.034 3.003 26.813 5.503 23.684 10.436 C 21.146 14.432 20.018 19.199 19.186 23.789 L 63.108 20.403 Z " id="Shape" fill="#FFDC00" stroke-width="1"/>
          <path d="M 36.051 30.736 C 34.143 31.087 34.408 31.898 33.809 32.469 C 34.116 33.157 34.102 33.845 35.341 34.319 C 36.398 34.25 37.215 33.826 37.304 33.301 C 37.691 32.397 37.23 31.454 36.051 30.736 Z " id="Shape" fill="#000000" stroke-width="1"/>
          <path d="M 52.047 30.462 L 50.579 30.623 C 49.273 32.162 49.435 32.821 51.431 34.045 C 51.886 33.899 52.649 33.796 52.81 33.583 C 53.768 32.555 53.472 31.345 52.047 30.462 Z " id="Shape" fill="#000000" stroke-width="1"/>
        </g>
        <g id="Group-3">
          <path d="M 76.436 54.411 L 68.341 55.495 C 68.341 55.495 77.894 65.92 76.72 71.623 C 75.517 77.48 71.857 78.411 65.346 73.484 C 65.057 73.267 57.609 65.925 54.938 62.066 C 53.619 60.165 52.567 57.67 51.023 55.963 C 50.092 56.534 44.981 59.903 43.888 61.598 C 50.537 70.578 56.435 81.904 67.896 85.507 C 70.683 86.38 75.413 86.751 78.096 85.284 C 80.756 83.913 82.753 81.553 83.647 78.725 C 87.544 65.332 76.436 54.411 76.436 54.411 Z " id="Shape" fill="#A0640A" stroke-width="1"/>
          <path d="M 55.059 41.172 L 55.059 50.917 C 57.372 51.362 61.021 51.425 64.75 54.342 C 67.346 56.411 69.606 58.86 71.452 61.604 C 71.452 61.604 77.408 57.836 80.01 56.945 C 75.54 49.958 66.601 41.823 55.059 41.172 Z " id="Shape" fill="#FFDC00" stroke-width="1"/>
        </g>
        <g id="Group-2">
          <path d="M 38.302 65.246 C 38.302 65.246 35.989 73.615 32.52 77.6 C 28.426 82.367 22.8 87.744 16.329 87.339 C 10.807 86.997 1.226 82.201 0.249 73.29 C -0.729 64.378 9.252 55.199 11.565 54.085 C 14.213 54.982 16.566 60.199 16.566 60.199 C 16.566 60.199 10.842 63.882 10.079 69.904 C 9.315 75.927 15.456 78.833 18.631 77.703 C 30.687 73.41 30.912 62.797 30.912 62.797 L 38.302 65.246 Z " id="Shape" fill="#A0640A" stroke-width="1"/>
          <path d="M 26.327 43.301 C 25.691 43.044 20.938 46.053 20.493 46.373 C 19.209 47.275 12.941 51.425 11.339 52.721 C 9.737 54.017 8.269 55.37 6.76 56.717 C 6.431 57.048 6.123 57.397 5.834 57.762 C 6.066 57.95 14.155 65.103 14.803 64.875 C 14.999 64.675 18.388 59.937 21.695 57.453 C 26.194 54.068 32.074 53.303 32.381 52.944 L 26.327 43.301 Z " id="Shape" fill="#FFDC00" stroke-width="1"/>
        </g>
        <g id="Group">
          <path d="M 57.771 47.737 C 56.898 40.253 51.023 33.111 43.136 32.54 C 39.441 32.278 36.371 32.443 33.977 35.56 C 32.705 37.216 31.93 39.134 30.172 40.356 C 28.576 41.463 25.749 40.824 23.233 43.553 C 21.499 45.448 22.245 53.035 23.783 57.99 C 24.291 59.64 26.529 64.841 28.547 65.623 C 31.265 66.662 38.718 69.619 38.718 69.619 C 38.718 69.619 48.242 66.251 51.648 62.968 C 57.355 57.516 58.106 50.609 57.771 47.737 Z " id="Shape" fill="#BE0A3C" stroke-width="1"/>
          <path d="M 28.958 59.771 C 28.073 60.953 28.42 63.419 28.42 63.419 L 39.609 66.844 C 39.609 66.844 41.876 65.389 41.13 64.059 C 39.898 63.368 30.646 59.76 28.958 59.771 Z " id="Shape" fill="#6E1E3C" stroke-width="1"/>
          <path d="M 39.661 44.797 C 39.661 44.797 38.562 39.659 32.057 41.526 C 25.552 43.393 23.071 46.904 26.697 51.613 C 30.322 56.323 38.741 49.096 39.661 44.797 Z " id="Shape" fill="#6E1E3C" stroke-width="1"/>
        </g>
      </g>
    </g>
  </g>
</svg>