<svg xmlns="http://www.w3.org/2000/svg" xmlns:xlink="http://www.w3.org/1999/xlink" version="1.1" width="135.7860009765625" height="141.34792114257812" viewBox="0.2330000352859497 -0.6419104981422424 135.7860009765625 141.34792114257812">
  <!-- Exported by Scratch - http://scratch.mit.edu/ -->
  <g id="ID0.6565159098245203">
    <g id="Page-1">
      <g id="rooster-b-[animals,chicken,farm,owen-davey]">
        <g id="Group">
          <path id="Fill-1" fill="#005A61" stroke="none" stroke-width="1" d="M 0.863 66.845 C 0.863 49.306 15.068 35.088 32.591 35.088 C 50.114 35.088 64.318 49.306 64.318 66.845 L 64.318 91.606 L 37.003 91.606 L 37.003 67.251 C 37.003 64.811 35.028 62.835 32.591 62.835 C 30.154 62.835 28.179 64.811 28.179 67.251 L 28.179 97.483 L 0.863 97.483 L 0.863 66.845 Z "/>
          <path id="Fill-3" fill="#17242D" stroke="none" stroke-width="1" d="M 32.59 44.174 C 44.986 44.174 55.07 54.268 55.07 66.674 L 55.07 89.77 L 54.231 89.77 L 54.231 66.674 C 54.231 54.73 44.523 45.014 32.59 45.014 C 20.657 45.014 10.949 54.73 10.949 66.674 L 10.949 97.483 L 10.111 97.483 L 10.111 66.674 C 10.111 54.268 20.195 44.174 32.59 44.174 "/>
          <path id="Fill-5" fill="#17242D" stroke="none" stroke-width="1" d="M 18.409 97.483 L 18.409 67.432 C 18.409 59.606 24.771 53.238 32.591 53.238 C 40.411 53.238 46.773 59.606 46.773 67.432 L 46.773 89.77 L 45.935 89.77 L 45.935 67.432 C 45.935 60.068 39.949 54.077 32.591 54.077 C 25.234 54.077 19.248 60.068 19.248 67.432 L 19.248 97.483 L 18.409 97.483 Z "/>
        </g>
        <g id="Group-6">
          <path id="Stroke-7" fill="none" stroke="#FFDB5D" stroke-width="1.26" d="M 48.061 140.076 C 50.656 140.076 50.656 137.558 53.249 137.558 C 55.843 137.558 55.843 140.076 58.436 140.076 C 61.032 140.076 61.032 137.558 63.626 137.558 C 66.222 137.558 66.222 140.076 68.817 140.076 "/>
          <path id="Stroke-9" fill="none" stroke="#FFDB5D" stroke-width="1.26" d="M 58.599 121.6 L 58.599 139.86 "/>
          <path id="Fill-11" fill="#751D18" stroke="none" stroke-width="1" d="M 73.288 114.682 C 75.165 110.656 73.425 105.87 69.403 103.992 C 65.381 102.113 60.599 103.855 58.722 107.881 C 58.212 108.975 57.978 110.123 57.976 111.256 L 57.97 111.255 L 57.772 125.832 C 57.756 127.063 59.198 127.737 60.129 126.935 L 71.19 117.419 C 72.053 116.691 72.78 115.774 73.288 114.682 "/>
        </g>
        <path id="Fill-13" fill="#17242D" stroke="none" stroke-width="1" d="M 37.08 89.875 C 37.08 82.136 43.346 75.862 51.078 75.862 L 54.374 75.861 C 54.421 75.858 54.473 75.85 54.517 75.85 L 105.008 75.85 C 105.008 75.85 105.018 84.272 105.018 85.389 C 105.018 89.088 103.455 95.446 98.407 99.745 C 87.156 109.328 73.84 121.736 73.84 121.736 L 37.08 89.875 Z "/>
        <g id="Group-5">
          <path id="Stroke-15" fill="none" stroke="#FFDB5D" stroke-width="1.26" d="M 91.788 134.513 L 92.364 134.513 C 95.056 134.513 97.239 132.329 97.239 129.634 C 97.239 126.94 95.056 124.755 92.364 124.755 L 77.427 124.755 "/>
          <path id="Fill-17" fill="#751D18" stroke="none" stroke-width="1" d="M 63.715 112.199 C 61.969 108.114 63.863 103.387 67.943 101.64 C 72.024 99.892 76.748 101.786 78.493 105.872 C 78.968 106.98 79.165 108.136 79.131 109.268 L 79.137 109.267 L 78.865 123.844 C 78.843 125.074 77.379 125.701 76.473 124.869 L 65.726 115.002 C 64.887 114.246 64.189 113.307 63.715 112.199 "/>
        </g>
        <g id="Group-2">
          <path id="Fill-19" fill="#DE7732" stroke="none" stroke-width="1" d="M 69.014 85.007 C 69.041 83.177 69.026 75.564 69.026 75.564 C 69.026 47.047 90.352 27.892 108.545 20.12 C 113.636 20.396 118.744 21.26 123.464 22.563 C 123.897 27.237 123.934 32.859 123.934 32.86 L 104.304 91.129 C 101.123 100.573 90.894 105.648 81.458 102.464 C 73.849 99.896 68.907 92.634 69.014 85.007 "/>
          <path id="Fill-21" fill="#E8441D" stroke="none" stroke-width="1" d="M 123.912 32.86 L 109.691 75.071 C 107.086 82.803 100.159 87.852 92.512 88.434 L 116.447 17.389 C 118.309 16.91 120.088 16.573 121.746 16.387 C 123.802 16.158 123.912 32.86 123.912 32.86 "/>
          <path id="Fill-23" fill="#E8441D" stroke="none" stroke-width="1" d="M 101.708 23.504 C 106.798 20.617 111.877 18.565 116.445 17.389 L 98.307 71.23 C 95.703 78.961 88.774 84.011 81.128 84.592 L 101.708 23.504 Z "/>
          <path id="Fill-25" fill="#E8441D" stroke="none" stroke-width="1" d="M 101.719 23.504 L 86.935 67.388 C 84.42 74.855 77.426 80.222 69.017 80.958 C 69.02 78.351 69.015 75.564 69.015 75.564 C 69.015 50.556 85.415 32.749 101.719 23.504 "/>
        </g>
        <g id="Group-3">
          <g id="Group-29">
            <path id="Fill-27" fill="#CE2235" stroke="none" stroke-width="1" d="M 103.217 7.077 C 105.344 6.348 107.589 6.798 109.246 8.077 L 109.665 8.371 C 110.261 8.787 111.043 8.198 110.807 7.51 L 109.447 3.536 C 109.052 2.385 109.665 1.133 110.817 0.738 C 111.965 0.343 113.218 0.957 113.612 2.108 L 114.808 5.603 C 115.044 6.295 116.031 6.267 116.229 5.563 L 117.585 0.74 C 117.859 -0.234 119.224 -0.272 119.551 0.686 L 121.779 7.194 C 121.844 7.169 121.904 7.14 121.97 7.117 C 125.419 5.934 129.172 7.774 130.354 11.225 C 131.535 14.677 129.696 18.434 126.248 19.616 C 126.132 19.656 126.014 19.684 125.896 19.718 L 121.61 21.187 L 120.908 19.135 C 120.845 19.1 120.782 19.069 120.721 19.032 L 111.969 19.974 L 109.807 17.793 C 109.143 18.444 108.333 18.966 107.394 19.286 C 104.027 20.441 100.36 18.645 99.206 15.273 C 98.053 11.902 99.848 8.232 103.217 7.077 "/>
          </g>
          <path id="Fill-34" fill="#FFDB5D" stroke="none" stroke-width="1" d="M 121.175 32.244 L 135.221 27.488 L 121.874 27.488 L 121.175 32.244 "/>
          <path id="Fill-30" fill="#CE2235" stroke="none" stroke-width="1" d="M 119.615 40.015 C 120.977 43.999 125.31 46.122 129.29 44.758 C 133.269 43.393 135.391 39.058 134.027 35.074 C 132.664 31.09 128.332 28.967 124.352 30.332 C 120.373 31.696 118.252 36.032 119.615 40.015 "/>
          <path id="Fill-32" fill="#FFDB5D" stroke="none" stroke-width="1" d="M 135.389 20.35 L 114.881 27.382 C 114.78 25.203 116.113 23.115 118.271 22.375 L 129.644 18.475 C 131.802 17.735 134.135 18.567 135.389 20.35 "/>
          <path id="Fill-36" fill="#AD2C24" stroke="none" stroke-width="1" d="M 107.692 27.329 C 109.367 32.226 114.692 34.836 119.586 33.159 C 124.478 31.481 127.086 26.15 125.409 21.254 C 123.733 16.357 118.408 13.747 113.516 15.424 C 108.623 17.102 106.016 22.432 107.692 27.329 "/>
          <path id="Fill-38" fill="#FFF4E3" stroke="none" stroke-width="1" d="M 112.294 25.751 C 113.099 28.104 115.658 29.359 118.01 28.553 C 120.361 27.746 121.614 25.185 120.808 22.831 C 120.003 20.478 117.444 19.224 115.093 20.03 C 112.741 20.837 111.488 23.397 112.294 25.751 "/>
          <path id="Fill-40" fill="#17242D" stroke="none" stroke-width="1" d="M 113.645 25.288 C 114.195 26.894 115.941 27.75 117.547 27.199 C 119.151 26.649 120.007 24.902 119.457 23.295 C 118.907 21.689 117.16 20.833 115.556 21.383 C 113.951 21.932 113.096 23.681 113.645 25.288 "/>
          <path id="Stroke-42" fill="none" stroke="#751D18" stroke-width="0.6" d="M 122.816 25.921 L 118.055 31.435 "/>
        </g>
        <g id="Group-4">
          <path id="Fill-44" fill="#B85C39" stroke="none" stroke-width="1" d="M 20.491 75.308 C 33.739 62.051 55.216 62.054 68.462 75.314 L 68.987 75.839 L 60.782 84.049 C 47.245 97.597 25.297 97.595 11.762 84.043 L 20.491 75.308 Z "/>
          <path id="Fill-46" fill="#AD2C24" stroke="none" stroke-width="1" d="M 11.743 84.045 L 11.755 84.033 L 30.645 78.73 L 44.987 93.087 C 33.485 96.072 20.751 93.063 11.743 84.045 "/>
          <path id="Stroke-48" fill="none" stroke="#751D18" stroke-width="0.6" d="M 15.613 86.925 L 33.551 81.915 "/>
          <path id="Stroke-50" fill="none" stroke="#751D18" stroke-width="0.6" d="M 19.599 89.595 L 36.472 84.883 "/>
          <path id="Stroke-52" fill="none" stroke="#751D18" stroke-width="0.6" d="M 24.884 91.923 L 39.464 87.851 "/>
          <path id="Stroke-54" fill="none" stroke="#751D18" stroke-width="0.6" d="M 32.219 93.671 L 42.432 90.82 "/>
          <path id="Fill-56" fill="#573A3C" stroke="none" stroke-width="1" d="M 48.697 77.607 C 46.171 79.106 42.862 78.775 40.691 76.601 C 38.12 74.027 38.12 69.855 40.692 67.282 C 41.869 66.103 43.384 65.476 44.924 65.378 C 53.454 65.492 61.95 68.799 68.458 75.314 L 68.982 75.839 L 60.779 84.049 C 60.184 84.645 59.566 85.205 58.939 85.75 L 58.908 85.714 C 56.33 88.189 52.238 88.162 49.7 85.621 C 47.529 83.447 47.198 80.135 48.697 77.607 "/>
        </g>
      </g>
    </g>
  </g>
</svg>