<svg xmlns="http://www.w3.org/2000/svg" xmlns:xlink="http://www.w3.org/1999/xlink" version="1.1" width="116.2170639038086" height="179.12484741210938" viewBox="0.22879207134246826 0.2619999647140503 116.2170639038086 179.12484741210938">
  <!-- Exported by Scratch - http://scratch.mit.edu/ -->
  <g id="ID0.9374103178270161">
    <g id="Page-1">
      <g id="skeleton-a-[fantasy,spooky,halloween,bones,monster,alex-eben-meyer]">
        <g id="RIGHT-FEMUR">
          <path id="Shape" fill="#AAA082" stroke="none" stroke-width="1" d="M 81.634 130.652 C 78.947 130.849 78.161 130.849 76.654 126.652 C 75.474 123.374 76.523 118.391 77.112 115.047 C 77.702 111.572 78.489 107.966 76.654 104.818 C 74.753 101.409 75.343 98.589 77.309 96.098 C 78.358 94.786 83.535 94.262 86.353 97.999 C 88.975 101.409 89.302 108.884 89.106 112.359 C 88.909 117.801 84.387 130.455 81.634 130.652 Z "/>
          <path id="Shape" fill="#DCD2B4" stroke="none" stroke-width="1" d="M 83.994 99.114 C 85.239 100.884 84.059 102.523 82.486 103.245 C 81.11 103.835 79.472 103.245 78.882 101.802 C 78.882 101.737 78.816 101.737 78.816 101.671 C 78.554 100.753 78.751 99.704 79.341 98.917 C 79.472 98.721 79.668 98.524 79.865 98.393 C 80.127 98.196 80.455 98.065 80.782 97.934 C 81.634 97.737 82.749 97.278 83.994 99.114 Z "/>
        </g>
        <g id="LEFT-FEMUR">
          <path id="Shape" fill="#C8BEA0" stroke="none" stroke-width="1" d="M 37.463 94.852 C 40.215 92.557 44.934 92.885 47.555 95.377 C 49.784 97.54 49.128 103.048 46.245 103.9 C 43.033 105.54 44.016 107.966 44.606 110.982 C 45.262 114.195 45.262 117.473 45.655 120.751 C 45.917 123.243 46.507 126.39 45.524 128.816 C 44.868 130.521 43.427 131.177 41.854 131.242 C 41.46 131.242 38.97 130.127 37.594 127.308 C 35.366 122.981 33.989 115.965 33.924 112.949 C 33.727 106.261 34.71 97.147 37.463 94.852 Z "/>
          <path id="Shape" fill="#F0E6D2" stroke="none" stroke-width="1" d="M 45.131 97.54 C 45.786 99.442 45.196 101.147 43.623 101.802 C 42.247 102.392 40.608 101.802 40.019 100.36 C 40.019 100.294 39.953 100.294 39.953 100.229 C 39.691 99.311 39.888 98.262 40.477 97.475 C 40.608 97.278 40.805 97.081 41.002 96.95 C 41.264 96.753 41.592 96.622 41.919 96.491 C 42.968 96.229 44.672 96.557 45.131 97.54 Z "/>
        </g>
        <g id="RIGHT-LEG-TIB-+-FIB">
          <path id="Shape" fill="#AAA082" stroke="none" stroke-width="1" d="M 82.451 177.123 C 82.718 172.48 84.684 139.495 86.877 138.52 C 87.926 138.979 88.975 139.504 89.237 141.667 C 90.357 150.931 85.109 172.885 84.047 177.188 C 86.703 177.293 89.695 177.402 89.695 177.402 L 89.958 178.582 C 89.958 178.582 82.159 179.107 81.569 178.779 C 80.324 178.779 79.144 178.582 77.964 178.123 L 77.44 174.845 C 78.423 174.517 79.341 174.189 80.324 173.927 C 80.389 173.992 79.931 177.205 80.062 177.008 C 80.259 177.028 81.214 177.072 82.451 177.123 Z "/>
          <path id="Shape" fill="#AAA082" stroke="none" stroke-width="1" d="M 79.079 138.651 L 79.865 139.045 C 81.438 144.946 80.782 151.83 80.782 157.928 C 80.782 163.764 80.848 177.271 80.848 177.271 L 78.947 177.664 L 77.44 174.845 C 77.506 174.845 73.573 141.602 79.079 138.651 Z "/>
          <path id="Shape" fill="#AAA082" stroke="none" stroke-width="1" d="M 87.074 132.816 C 87.992 135.176 87.008 137.471 84.846 138.323 C 83.076 139.045 80.586 138.389 79.865 136.356 C 79.472 135.176 79.734 133.865 80.586 132.881 C 80.782 132.619 81.045 132.422 81.307 132.226 C 81.7 131.963 82.093 131.767 82.552 131.636 C 83.732 131.439 86.025 131.111 87.074 132.816 Z "/>
          <path id="Shape" fill="#AAA082" stroke="none" stroke-width="1" d="M 78.62 131.439 C 79.275 131.701 79.603 132.422 79.341 133.078 C 79.341 133.078 79.341 133.144 79.275 133.144 C 79.013 133.734 78.358 134.062 77.768 133.799 C 77.44 133.603 77.178 133.275 77.178 132.881 C 77.178 132.75 77.178 132.685 77.178 132.553 C 77.178 132.422 77.244 132.291 77.309 132.16 C 77.637 131.898 78.03 131.308 78.62 131.439 Z "/>
        </g>
        <g id="LEFT-LEG-TIB-+-FIB">
          <path id="Shape" fill="#C8BEA0" stroke="none" stroke-width="1" d="M 37.528 142.585 C 37.79 141.864 37.921 141.274 38.511 141.012 C 39.167 140.946 39.625 141.34 40.15 141.667 C 44.541 152.224 45.655 164.747 47.818 175.894 L 46.572 175.894 C 44.082 171.697 43.164 167.632 42.05 162.977 C 40.543 156.158 38.511 149.601 37.528 142.585 Z "/>
          <path id="Shape" fill="#C8BEA0" stroke="none" stroke-width="1" d="M 44.344 175.697 C 43.558 175.763 42.181 175.632 41.592 176.222 C 41.657 176.418 41.723 176.615 41.723 176.746 C 43.164 177.467 45.982 177.14 47.555 177.14 C 49.39 177.14 50.767 177.008 50.963 176.549 C 51.16 175.828 51.094 175.041 50.701 174.386 C 50.767 174.517 48.211 175.435 48.211 175.435 L 44.344 175.697 Z "/>
          <path id="Shape" fill="#C8BEA0" stroke="none" stroke-width="1" d="M 46.507 140.684 C 47.883 140.29 48.276 146.716 48.735 149.601 C 49.194 152.945 49.653 156.289 49.915 159.633 C 50.242 163.239 50.767 174.386 50.767 174.386 L 49.849 176.287 L 48.342 176.156 L 45.327 145.011 C 45.262 145.011 45.131 141.077 46.507 140.684 Z "/>
          <path id="Shape" fill="#C8BEA0" stroke="none" stroke-width="1" d="M 37.921 137.537 C 37.921 137.34 37.856 137.012 37.79 136.75 C 37.659 134.324 38.446 133.406 41.002 132.75 C 42.181 132.422 43.361 132.685 44.344 133.406 C 46.31 135.111 44.934 138.323 42.706 138.848 L 41.002 139.307 C 39.822 139.11 38.642 138.782 37.921 137.537 Z "/>
          <path id="Shape" fill="#C8BEA0" stroke="none" stroke-width="1" d="M 46.441 131.373 C 46.638 132.029 46.179 132.75 45.524 132.881 C 45.524 132.881 45.458 132.881 45.458 132.881 C 44.803 133.012 44.213 132.619 44.082 131.963 C 44.016 131.57 44.213 131.177 44.475 130.98 C 44.541 130.914 44.672 130.849 44.737 130.849 C 44.868 130.783 44.999 130.783 45.131 130.783 C 45.524 130.783 46.245 130.849 46.441 131.373 Z "/>
        </g>
        <path id="Shape" fill="#DCD2B4" stroke="none" stroke-width="1" d="M 74.163 102.72 C 73.901 107.375 67.479 106.72 64.071 106.851 C 60.466 106.982 55.289 107.113 52.34 104.687 C 48.932 101.933 51.619 97.081 48.997 94 C 45.917 90.459 41.067 93.016 37.397 92.164 C 36.938 86.197 51.881 89.148 55.027 89.279 C 61.973 89.475 68.855 88.623 75.736 87.836 C 78.292 87.508 81.7 86.722 84.19 87.312 C 86.681 87.902 88.647 91.311 85.501 92.754 C 83.601 93.606 80.193 91.836 77.899 92.295 C 74.032 93.016 73.901 95.508 74.163 102.72 Z M 55.42 94.459 C 55.027 95.639 55.42 99.901 57.124 101.343 C 58.107 102.196 60.073 102.196 61.842 102.458 C 65.447 102.982 67.806 102.392 68.527 99.442 C 68.986 97.475 68.789 96.819 68.789 94.59 C 68.789 92.36 66.43 92.623 65.578 92.951 C 64.726 93.278 65.512 94.655 64.66 95.311 C 64.005 95.77 60.99 96.295 60.138 95.442 C 59.286 94.59 60.138 93.672 58.5 93.344 C 56.862 93.016 55.813 93.278 55.42 94.459 Z "/>
        <path id="RIGHT-ARM-RAD-+-ULN" fill="#C8BEA0" stroke="none" stroke-width="1" d="M 110.077 148.88 L 108.767 148.814 C 102.606 140.618 104.507 128.357 105.359 118.719 C 105.949 112.752 105.686 106.785 104.572 100.884 C 104.245 99.311 103.458 89.082 110.536 88.361 C 117.614 87.64 115.714 100.36 115.714 103.31 C 115.714 108.752 115.582 114.195 115.386 119.637 C 115.058 129.078 118.269 142.126 110.077 148.88 Z M 109.029 102.064 C 107.784 103.179 107.849 108.687 107.718 110.326 C 107.456 113.67 107.456 117.014 107.653 120.358 C 107.915 123.964 108.177 127.505 108.177 131.111 C 108.177 133.996 107.653 137.864 108.242 140.618 L 109.422 141.864 C 109.946 142.126 110.536 142.126 111.06 141.995 C 113.551 135.307 112.371 128.685 112.437 121.735 C 112.437 118.063 112.371 114.457 112.371 110.785 C 112.371 108.425 113.42 102.589 109.946 101.868 L 109.029 102.064 Z "/>
        <path id="LEFT-ARM-RAD-+-ULN" fill="#DCD2B4" stroke="none" stroke-width="1" d="M 5.677 142.716 C 2.269 139.307 3.58 134.652 3.908 130.193 C 4.301 125.144 5.219 120.227 6.66 115.375 C 7.971 111.047 9.151 106.72 10.134 102.327 C 10.593 100.097 11.314 97.737 10.986 95.508 C 10.658 93.082 9.085 84.689 17.146 84.492 C 25.207 84.296 18.26 98.852 17.802 100.491 C 16.294 105.671 15.639 111.375 14.525 116.686 C 13.411 121.866 13.476 127.111 12.559 132.291 C 11.576 137.34 11.445 141.995 5.677 142.716 Z M 15.049 94.393 C 12.755 94.918 11.445 101.868 10.92 103.835 C 10.003 107.507 9.347 111.31 8.692 115.112 C 8.102 118.325 7.316 121.473 6.66 124.62 C 6.071 127.374 4.039 132.947 5.94 135.504 L 8.168 136.094 C 10.265 133.603 10.003 129.013 10.658 125.997 C 11.445 122.325 12.428 118.653 13.214 114.981 C 13.869 111.9 18.392 95.508 15.049 94.393 Z "/>
        <g id="RIGHT-HAND">
          <path id="Shape" fill="#C8BEA0" stroke="none" stroke-width="1" d="M 103.72 155.568 C 103.393 154.06 103.917 152.486 105.097 151.503 C 105.621 151.109 108.701 149.601 110.208 150.388 C 112.895 151.699 114.141 156.158 112.306 157.666 C 111.257 158.518 109.225 159.371 107.587 158.846 C 105.949 158.322 104.572 156.355 103.72 155.568 Z "/>
          <path id="Shape" fill="#C8BEA0" stroke="none" stroke-width="1" d="M 108.832 160.158 C 108.832 160.813 108.898 161.403 108.898 161.993 C 108.963 163.633 108.963 165.206 109.029 166.845 C 109.029 168.288 108.898 169.665 108.505 171.042 C 108.177 172.222 107.587 172.55 106.276 172.288 C 105.949 172.025 105.949 171.632 105.949 171.304 C 105.818 169.534 105.949 167.829 106.342 166.124 C 106.604 165.075 106.801 163.96 107.063 162.846 C 107.194 162.256 107.39 161.731 107.587 161.207 C 107.718 160.616 108.242 160.223 108.832 160.158 Z "/>
          <path id="Shape" fill="#C8BEA0" stroke="none" stroke-width="1" d="M 111.323 170.714 C 110.471 169.009 110.077 162.256 110.667 159.895 C 110.798 159.764 110.995 159.699 111.192 159.633 C 111.388 159.567 111.65 159.502 111.847 159.502 C 111.978 159.764 112.109 160.026 112.175 160.289 C 112.24 160.682 112.306 161.075 112.371 161.534 C 112.502 163.174 112.699 164.747 112.764 166.386 C 112.764 167.436 112.633 168.485 112.437 169.468 C 112.371 170.058 111.978 170.583 111.323 170.714 Z "/>
          <path id="Shape" fill="#C8BEA0" stroke="none" stroke-width="1" d="M 103.982 157.076 L 105.162 157.863 C 105.228 159.305 105.162 160.813 104.9 162.256 C 104.638 163.764 104.441 165.272 104.31 166.78 C 104.245 167.829 103.786 168.812 102.999 169.468 C 102.803 169.206 102.541 169.075 102.41 168.878 C 102.279 168.55 102.279 168.157 102.279 167.763 C 102.541 164.288 103.196 160.879 103.72 157.404 C 103.786 157.404 103.851 157.338 103.982 157.076 Z "/>
          <path id="Shape" fill="#C8BEA0" stroke="none" stroke-width="1" d="M 99.133 161.141 C 98.674 160.748 98.543 160.092 98.674 159.502 C 98.871 158.846 99.002 158.125 99.264 157.469 C 99.526 156.682 99.919 155.961 100.181 155.174 C 100.575 154.388 101.033 153.666 101.623 153.011 C 101.885 152.748 102.213 152.552 102.541 152.355 C 102.672 152.617 102.803 152.879 102.803 153.207 C 102.737 155.502 102.147 157.732 101.23 159.83 C 100.968 160.748 100.05 161.272 99.133 161.141 Z "/>
        </g>
        <g id="LEFT-HAND">
          <path id="Shape" fill="#AAA082" stroke="none" stroke-width="1" d="M 2.073 149.732 C 2.138 148.683 2.401 147.7 2.925 146.782 C 3.58 145.798 4.563 145.077 5.677 144.815 C 6.595 144.552 7.447 144.946 8.299 145.405 C 8.561 145.601 8.758 145.864 8.823 146.192 C 9.02 147.044 9.151 147.896 9.216 148.749 C 9.085 150.322 8.102 151.699 6.595 152.224 C 6.464 152.289 6.333 152.289 6.202 152.289 C 5.088 152.224 3.973 151.962 2.925 151.568 C 2.269 151.306 2.007 150.716 2.073 149.732 Z "/>
          <path id="Shape" fill="#C8BEA0" stroke="none" stroke-width="1" d="M 9.872 166.452 L 8.364 166.255 C 7.971 165.862 7.709 165.337 7.709 164.747 C 7.447 162.387 7.185 160.026 6.988 157.732 C 6.857 156.682 6.857 155.633 6.988 154.65 C 6.988 154.125 7.185 153.666 7.578 153.338 C 7.971 153.207 8.233 153.47 8.43 153.732 C 9.085 154.584 9.479 155.633 9.61 156.682 C 9.741 158.125 10.134 159.567 10.265 160.944 C 10.331 162.256 10.331 163.501 10.265 164.813 C 10.134 165.403 10.068 165.927 9.872 166.452 Z "/>
          <path id="Shape" fill="#C8BEA0" stroke="none" stroke-width="1" d="M 4.563 167.895 C 3.908 167.501 3.58 166.845 3.58 166.124 C 3.515 165.206 3.449 164.288 3.384 163.37 C 3.187 161.403 3.121 159.502 3.187 157.535 C 3.187 156.682 3.318 155.764 3.384 154.912 C 3.384 154.322 3.777 153.863 4.367 153.732 C 4.432 153.863 4.563 153.994 4.563 154.191 C 4.629 154.781 4.825 155.305 5.088 155.83 C 5.219 156.027 5.284 156.289 5.284 156.551 C 5.481 158.518 5.94 160.485 5.94 162.518 C 5.94 163.764 5.808 165.01 5.546 166.19 C 5.481 166.845 5.088 167.501 4.563 167.895 Z "/>
          <path id="Shape" fill="#C8BEA0" stroke="none" stroke-width="1" d="M 1.68 165.075 C 0.566 162.911 0.369 155.568 1.418 153.273 C 2.007 153.666 2.335 154.322 2.335 155.043 C 2.335 156.486 2.335 157.928 2.335 159.371 C 2.335 160.223 2.335 161.141 2.401 161.993 C 2.532 163.108 2.269 164.223 1.68 165.075 Z "/>
          <path id="Shape" fill="#C8BEA0" stroke="none" stroke-width="1" d="M 14.328 156.027 C 13.607 155.83 13.018 155.305 12.755 154.584 C 12.559 154.256 12.428 153.929 12.362 153.535 C 11.838 151.503 11.117 149.47 10.265 147.568 C 10.199 147.372 10.134 147.175 10.134 147.044 C 10.396 146.978 10.658 146.978 10.855 146.978 C 11.772 147.11 12.559 147.634 13.083 148.486 C 14.066 150.191 15.115 151.896 15.573 153.863 C 15.77 155.109 15.639 155.437 14.328 156.027 Z "/>
        </g>
        <g id="UPPER-RIGHT-ARM">
          <path id="Shape" fill="#AAA082" stroke="none" stroke-width="1" d="M 94.021 48.299 C 95.463 48.037 99.002 50.987 100.312 52.167 C 105.031 62.724 109.356 74.592 109.946 76.952 C 110.995 80.952 114.403 93.41 110.733 96.622 C 108.636 96.36 108.111 92.033 107.849 90.328 C 105.424 74.854 95.725 54.528 94.873 53.675 C 94.021 52.823 92.579 52.561 91.727 51.577 C 91.137 49.938 92.972 49.02 94.021 48.299 Z "/>
          <path id="Shape" fill="#AAA082" stroke="none" stroke-width="1" d="M 113.027 93.278 C 113.879 95.573 112.895 98.065 110.929 98.917 C 109.225 99.638 107.194 98.852 106.473 97.147 C 106.473 97.081 106.407 97.016 106.407 97.016 C 106.08 95.836 106.276 94.59 107.063 93.672 C 107.259 93.41 107.456 93.213 107.718 93.016 C 108.046 92.754 108.439 92.557 108.832 92.426 C 110.274 92.229 111.781 92.557 113.027 93.278 Z "/>
          <path id="Shape" fill="#DCD2B4" stroke="none" stroke-width="1" d="M 87.14 43.906 C 86.877 44.168 83.273 44.496 80.717 46.332 C 79.799 50.004 85.829 51.184 88.123 50.463 C 90.416 49.741 92.251 48.233 92.12 46.856 C 91.989 45.414 89.63 44.103 87.14 43.906 Z "/>
        </g>
        <g id="UPPER-LEFT-ARM">
          <path id="Shape" fill="#C8BEA0" stroke="none" stroke-width="1" d="M 18.392 88.099 C 19.112 89.803 18.392 91.836 16.688 92.688 C 15.311 93.278 13.673 92.688 13.083 91.246 C 13.083 91.18 13.018 91.18 13.018 91.115 C 12.755 90.197 12.952 89.148 13.542 88.361 C 13.673 88.164 13.869 87.967 14.066 87.836 C 14.328 87.64 14.656 87.508 14.984 87.377 C 16.163 87.246 17.343 87.508 18.392 88.099 Z "/>
          <path id="Shape" fill="#C8BEA0" stroke="none" stroke-width="1" d="M 16.098 90 L 15.311 89.803 C 13.411 84.361 16.163 77.018 17.343 71.772 C 18.195 67.904 18.916 64.035 19.833 60.167 C 20.489 57.347 21.275 53.151 23.241 50.725 C 23.766 50.069 26.387 48.233 26.387 50.463 C 26.321 57.872 21.079 80.952 16.098 90 Z "/>
          <path id="Shape" fill="#DCD2B4" stroke="none" stroke-width="1" d="M 30.712 49.02 C 30.45 48.758 26.846 48.233 24.355 46.332 C 23.634 42.595 29.664 41.677 31.958 42.529 C 34.251 43.381 36.021 44.955 35.824 46.266 C 35.628 47.578 33.137 48.955 30.712 49.02 Z "/>
        </g>
        <g id="Spine">
          <path id="Shape" fill="#DCD2B4" stroke="none" stroke-width="1" d="M 55.42 88.295 C 55.551 87.246 55.879 86.59 56.468 86.459 C 56.993 86.263 57.517 86.132 58.107 86.066 C 59.68 85.869 61.318 86.132 62.891 86.132 C 64.333 86.066 65.775 86.132 67.282 86.132 L 68.003 86.132 C 68.855 87.508 68.265 89.607 67.479 90.131 C 67.282 90.197 67.151 90.328 66.954 90.393 C 65.971 90.721 64.923 90.852 63.94 90.787 C 62.105 90.787 60.269 90.721 58.434 90.59 C 57.845 90.59 57.255 90.459 56.665 90.262 C 56.01 89.934 55.551 89.41 55.42 88.295 Z "/>
          <path id="Shape" fill="#DCD2B4" stroke="none" stroke-width="1" d="M 54.109 48.496 C 54.24 47.447 54.568 46.791 55.158 46.66 C 55.682 46.463 56.206 46.332 56.796 46.266 C 58.369 46.07 60.007 46.332 61.58 46.332 C 63.022 46.266 64.464 46.332 65.971 46.332 C 66.233 46.332 66.495 46.332 66.692 46.332 C 67.544 47.709 66.954 49.807 66.168 50.332 C 65.971 50.397 65.84 50.528 65.644 50.594 C 64.66 50.922 63.612 51.053 62.629 50.987 C 60.794 50.987 58.959 50.922 57.058 50.79 C 56.468 50.79 55.879 50.659 55.289 50.463 C 54.699 50.2 54.24 49.676 54.109 48.496 Z "/>
          <path id="Shape" fill="#C8BEA0" stroke="none" stroke-width="1" d="M 60.401 53.741 C 60.138 58.265 60.073 62.789 60.269 67.248 C 60.335 70.067 60.532 72.887 60.532 75.706 C 60.532 77.936 60.269 80.624 61.056 82.591 C 61.842 83.05 62.367 82.788 62.956 81.542 C 63.481 72.559 62.891 62.855 62.039 53.741 L 60.401 53.741 Z "/>
          <path id="Shape" fill="#C8BEA0" stroke="none" stroke-width="1" d="M 56.993 82.001 C 57.255 78.329 63.415 79.837 65.971 79.968 C 68.658 86.197 57.386 85.869 56.993 82.001 Z "/>
          <path id="Shape" fill="#C8BEA0" stroke="none" stroke-width="1" d="M 57.779 74.723 C 58.041 71.051 63.415 72.559 65.644 72.69 C 68.068 78.985 58.172 78.591 57.779 74.723 Z "/>
          <path id="Shape" fill="#C8BEA0" stroke="none" stroke-width="1" d="M 58.369 68.166 C 58.631 64.494 63.612 64.166 64.923 66.92 C 66.954 71.248 58.762 72.034 58.369 68.166 Z "/>
          <path id="Shape" fill="#C8BEA0" stroke="none" stroke-width="1" d="M 57.582 61.216 C 57.845 57.544 62.825 57.216 64.136 59.97 C 66.168 64.363 57.91 65.15 57.582 61.216 Z "/>
          <path id="Shape" fill="#C8BEA0" stroke="none" stroke-width="1" d="M 57.976 55.052 C 58.172 52.102 62.236 51.84 63.284 54.069 C 64.923 57.61 58.303 58.265 57.976 55.052 Z "/>
          <path id="Shape" fill="#DCD2B4" stroke="none" stroke-width="1" d="M 63.219 81.607 C 63.35 82.263 62.956 82.984 62.236 83.115 C 62.236 83.115 62.17 83.115 62.17 83.115 C 61.515 83.247 60.925 82.788 60.794 82.197 C 60.728 81.804 60.925 81.411 61.253 81.214 C 61.318 81.148 61.449 81.083 61.515 81.083 C 61.646 81.017 61.777 81.017 61.908 81.017 C 62.301 80.952 63.022 81.017 63.219 81.607 Z "/>
          <path id="Shape" fill="#DCD2B4" stroke="none" stroke-width="1" d="M 63.153 74.395 C 63.284 75.051 62.891 75.772 62.17 75.903 C 62.17 75.903 62.105 75.903 62.105 75.903 C 61.449 76.034 60.859 75.575 60.728 74.985 C 60.663 74.592 60.859 74.198 61.187 74.001 C 61.253 73.936 61.384 73.87 61.449 73.87 C 61.58 73.805 61.711 73.805 61.842 73.805 C 62.236 73.739 62.956 73.805 63.153 74.395 Z "/>
          <path id="Shape" fill="#DCD2B4" stroke="none" stroke-width="1" d="M 63.022 67.51 C 63.153 68.166 62.76 68.887 62.039 69.018 C 62.039 69.018 61.973 69.018 61.973 69.018 C 61.318 69.149 60.728 68.69 60.597 68.1 C 60.597 67.707 60.728 67.314 61.056 67.117 C 61.121 67.051 61.253 66.986 61.318 66.986 C 61.449 66.92 61.58 66.92 61.711 66.92 C 62.17 66.855 62.891 66.92 63.022 67.51 Z "/>
          <path id="Shape" fill="#DCD2B4" stroke="none" stroke-width="1" d="M 62.498 60.56 C 62.629 61.216 62.236 61.937 61.515 62.068 C 61.515 62.068 61.449 62.068 61.449 62.068 C 60.794 62.199 60.204 61.74 60.073 61.15 C 60.007 60.757 60.204 60.363 60.532 60.167 C 60.597 60.101 60.728 60.036 60.794 60.036 C 60.925 59.97 61.056 59.97 61.187 59.97 C 61.58 59.904 62.301 59.97 62.498 60.56 Z "/>
          <path id="Shape" fill="#DCD2B4" stroke="none" stroke-width="1" d="M 62.17 54.528 C 62.301 55.184 61.908 55.905 61.187 56.036 C 61.187 56.036 61.121 56.036 61.121 56.036 C 60.466 56.167 59.876 55.708 59.745 55.118 C 59.68 54.725 59.876 54.331 60.204 54.134 C 60.269 54.069 60.401 54.003 60.466 54.003 C 60.597 53.938 60.728 53.938 60.859 53.938 C 61.253 53.872 62.039 53.938 62.17 54.528 Z "/>
        </g>
        <g id="Ribs">
          <path id="Shape" fill="#C8BEA0" stroke="none" stroke-width="1" d="M 32.482 53.479 C 32.482 53.479 33.989 77.214 39.953 78.198 L 44.803 76.952 L 42.05 54.397 L 32.482 53.479 Z "/>
          <path id="Shape" fill="#AAA082" stroke="none" stroke-width="1" d="M 78.685 55.511 L 79.079 75.444 L 85.436 78.198 C 85.436 78.198 91.399 61.019 88.057 54.593 L 78.685 55.511 Z "/>
          <path id="Shape" fill="#DCD2B4" stroke="none" stroke-width="1" d="M 30.516 54.921 C 30.188 53.61 30.385 52.233 31.04 51.053 C 33.268 48.758 40.871 50.659 43.558 50.922 C 47.621 51.249 51.684 51.774 55.747 52.561 C 56.141 52.954 56.272 53.544 56.075 54.069 C 53.06 56.036 47.818 55.642 44.279 55.839 C 40.477 56.036 33.662 57.61 30.516 54.921 Z "/>
          <path id="Shape" fill="#DCD2B4" stroke="none" stroke-width="1" d="M 31.958 63.248 C 31.368 61.937 31.04 60.757 31.695 59.445 C 38.642 58.068 47.293 57.347 54.371 58.068 C 55.42 59.38 55.485 59.577 55.42 60.757 C 48.538 64.232 39.298 65.74 31.958 63.248 Z "/>
          <path id="Shape" fill="#DCD2B4" stroke="none" stroke-width="1" d="M 34.71 69.543 C 38.839 68.428 42.968 67.641 47.228 67.117 C 49.39 66.789 54.764 64.494 56.599 66.068 C 56.927 68.625 44.868 71.903 43.099 72.493 C 41.329 73.084 37.528 74.264 35.693 73.674 C 33.531 72.952 34.251 71.444 34.71 69.543 Z "/>
          <path id="Shape" fill="#DCD2B4" stroke="none" stroke-width="1" d="M 37.856 78.198 C 40.871 76.362 44.737 75.706 48.08 74.46 C 50.963 73.411 54.044 71.575 57.189 71.707 C 55.944 74.919 38.905 83.247 37.856 78.198 Z "/>
          <path id="Shape" fill="#DCD2B4" stroke="none" stroke-width="1" d="M 33.662 52.364 L 30.45 54.331 C 30.45 54.331 32.416 74.657 38.249 78.788 L 40.805 79.116 C 38.642 73.739 36.807 68.232 35.169 62.658 C 34.382 59.249 33.858 55.839 33.662 52.364 Z "/>
          <path id="Shape" fill="#DCD2B4" stroke="none" stroke-width="1" d="M 67.479 62.134 L 66.758 60.822 C 66.889 60.363 67.085 59.904 67.282 59.445 C 69.707 57.544 76.523 59.38 79.341 59.577 C 82.486 59.773 85.501 59.904 88.581 60.691 C 89.171 61.609 89.499 62.658 89.63 63.773 C 88.254 66.986 81.831 65.281 79.275 65.019 C 75.212 64.691 71.214 63.707 67.479 62.134 Z "/>
          <path id="Shape" fill="#DCD2B4" stroke="none" stroke-width="1" d="M 67.151 54.331 C 68.068 51.118 74.294 52.299 76.588 52.364 C 80.52 52.495 84.453 52.561 88.319 52.692 C 92.251 56.888 81.7 57.019 80.389 57.019 C 77.833 56.954 67.741 58.068 67.151 54.331 Z "/>
          <path id="Shape" fill="#DCD2B4" stroke="none" stroke-width="1" d="M 68.527 66.264 C 75.212 66.789 82.159 68.69 88.778 70.133 L 89.433 71.116 C 89.499 71.969 89.302 72.821 88.909 73.608 C 86.484 73.87 66.233 69.215 68.527 66.264 Z "/>
          <path id="Shape" fill="#DCD2B4" stroke="none" stroke-width="1" d="M 68.724 73.28 C 69.379 70.395 84.321 76.427 86.681 77.214 L 87.14 78.526 C 86.091 82.853 70.559 75.968 68.724 73.28 Z "/>
          <path id="Shape" fill="#DCD2B4" stroke="none" stroke-width="1" d="M 83.535 79.312 L 86.55 79.378 C 86.55 79.378 88.647 77.083 89.761 71.575 C 90.875 65.805 90.547 56.364 88.647 53.413 L 85.567 53.348 C 86.419 54.856 87.008 56.495 87.205 58.265 C 87.598 60.56 87.271 63.445 86.943 66.855 C 86.615 70.854 83.994 77.804 83.535 79.312 Z "/>
        </g>
        <g id="Head">
          <path id="Shape" fill="#C8BEA0" stroke="none" stroke-width="1" d="M 60.466 34.661 C 63.153 33.743 66.627 33.94 69.248 33.218 C 69.641 34.005 69.707 37.808 69.641 38.595 C 69.576 39.382 69.379 40.037 69.248 40.824 C 69.182 41.349 68.855 41.742 68.462 42.07 C 67.085 43.185 65.316 43.644 63.546 43.381 C 62.694 43.316 61.973 42.791 61.646 42.004 C 61.187 40.693 60.204 36.169 60.466 34.661 Z "/>
          <path id="Shape" fill="#F0E6D2" stroke="none" stroke-width="1" d="M 59.942 39.185 C 59.942 38.857 59.68 35.448 59.614 35.054 L 52.077 34.595 C 51.815 35.185 52.536 39.054 52.602 39.578 C 52.667 40.627 52.929 41.611 53.388 42.595 C 53.65 43.185 54.109 43.578 54.699 43.84 C 56.01 44.365 57.517 44.365 58.828 43.84 C 59.68 43.578 60.204 42.791 60.138 41.939 C 60.073 41.021 60.007 40.103 59.942 39.185 Z "/>
          <path id="Shape" fill="#F0E6D2" stroke="none" stroke-width="1" d="M 51.029 34.792 C 49.98 34.399 44.803 33.546 43.754 33.218 C 43.427 33.546 44.279 36.759 44.41 37.087 C 44.606 38.136 44.999 39.054 45.655 39.906 C 46.9 41.349 48.407 42.004 50.373 41.545 C 50.57 41.218 50.701 40.89 50.767 40.562 C 51.094 38.726 51.16 36.759 51.029 34.792 Z "/>
          <path id="Shape" fill="#AAA082" stroke="none" stroke-width="1" d="M 76.392 31.12 C 76.588 32.563 76.392 36.89 75.998 38.136 C 75.671 39.251 74.753 40.168 73.639 40.562 C 72.984 40.365 72.328 40.037 71.869 39.578 C 71.738 39.447 71.607 39.316 71.476 39.119 C 71.149 38.529 70.362 33.546 70.428 32.628 C 70.952 32.497 75.015 31.12 76.392 31.12 Z "/>
          <path id="Shape" fill="#DCD2B4" stroke="none" stroke-width="1" d="M 64.857 0.762 C 77.112 0.762 84.321 11.319 83.142 22.924 C 82.88 25.612 82.028 28.235 80.782 30.661 C 79.341 33.153 72.787 34.989 70.1 35.644 C 63.808 37.152 61.515 37.611 54.961 37.152 C 49.587 36.759 41.919 35.382 38.577 30.727 C 35.431 26.334 35.103 18.925 35.89 13.745 C 36.938 6.991 40.412 4.631 46.769 3.254 C 52.667 2.008 58.893 0.828 64.857 0.762 Z "/>
          <path id="Shape" fill="#FFFFFF" stroke="none" stroke-width="1" d="M 79.079 18.728 C 80.52 22.662 78.947 25.35 75.605 26.793 C 72.918 27.973 68.986 26.924 67.872 23.514 C 67.282 21.547 67.675 19.384 68.986 17.744 C 69.314 17.351 69.707 16.958 70.1 16.63 C 70.69 16.236 71.28 15.908 72.001 15.712 C 73.901 15.318 77.571 14.99 79.079 18.728 Z "/>
          <path id="Shape" fill="#FFFFFF" stroke="none" stroke-width="1" d="M 51.946 18.203 C 54.109 21.416 51.946 25.285 48.604 26.727 C 45.917 27.907 41.985 26.858 40.871 23.449 C 40.281 21.613 40.74 19.056 41.985 17.679 C 42.312 17.285 42.706 16.892 43.099 16.564 C 43.689 16.171 44.279 15.843 44.999 15.646 C 46.9 15.187 49.784 14.99 51.946 18.203 Z "/>
          <path id="Shape" fill="#DCD2B4" stroke="none" stroke-width="1" d="M 46.703 19.777 C 46.179 19.842 45.851 20.236 45.786 20.695 C 45.786 21.416 45.524 22.203 46.376 22.727 C 47.424 22.596 47.49 21.678 47.621 20.957 C 47.555 20.433 47.228 19.974 46.703 19.777 Z "/>
          <path id="Shape" fill="#DCD2B4" stroke="none" stroke-width="1" d="M 73.836 22.924 C 74.425 22.4 74.491 22.334 74.556 22.072 C 74.622 21.416 74.491 20.76 74.229 20.236 C 73.901 19.974 73.377 20.105 73.18 20.433 C 73.18 20.433 73.18 20.498 73.115 20.498 C 73.049 21.154 72.787 21.875 73.18 22.662 L 73.836 22.924 Z "/>
          <path id="Shape" fill="#000000" stroke="none" stroke-width="1" d="M 46.703 19.777 C 47.228 19.974 47.555 20.433 47.621 20.957 C 47.49 21.744 47.49 22.596 46.376 22.727 C 45.524 22.203 45.786 21.416 45.786 20.695 C 45.851 20.236 46.245 19.842 46.703 19.777 Z "/>
          <path id="Shape" fill="#000000" stroke="none" stroke-width="1" d="M 73.836 22.924 L 73.115 22.596 C 72.721 21.81 72.984 21.088 73.049 20.433 C 73.246 20.039 73.705 19.908 74.098 20.17 C 74.098 20.17 74.163 20.17 74.163 20.236 C 74.491 20.826 74.622 21.482 74.491 22.072 C 74.491 22.334 74.425 22.4 73.836 22.924 Z "/>
          <path id="Shape" fill="#C8BEA0" stroke="none" stroke-width="1" d="M 60.204 17.875 C 59.286 17.81 58.5 18.4 58.238 19.252 C 57.582 20.629 57.124 22.137 56.862 23.645 C 56.665 25.219 56.206 26.727 55.944 28.301 C 55.747 29.35 55.223 31.645 57.058 31.645 C 58.893 31.645 59.221 29.153 60.466 28.956 C 61.711 28.76 61.515 30.53 63.284 31.448 C 65.054 32.366 65.119 30.858 65.316 30.596 C 65.381 27.186 63.35 18.334 60.204 17.875 Z "/>
        </g>
      </g>
    </g>
  </g>
</svg>