<svg xmlns="http://www.w3.org/2000/svg" xmlns:xlink="http://www.w3.org/1999/xlink" version="1.1" width="48.33624571561813" height="191.2674896121025" viewBox="-0.1724265217781067 0.02584853768348694 48.33624571561813 191.2674896121025">
  <!-- Exported by Scratch - http://scratch.mit.edu/ -->
  <g id="ID0.3783438066020608">
    <g id="Shoes">
      <path id="Shoe_Right" fill="#0B1938" d="M 34.7669 162.9918 C 34.9465 163.5257 36.323 164.0491 36.8484 164.2828 C 37.7395 164.678 38.8082 165.1397 39.7183 165.4276 C 40.5657 165.6945 41.3409 165.9786 42.2301 166.198 C 42.613 166.2911 43.41 166.4279 43.7891 166.5039 C 44.3809 166.6246 44.1748 167.1965 44.2897 167.6525 C 44.8911 170.0607 42.1674 171.1057 40.1705 171.1646 C 39.6233 171.1817 39.1616 171.0345 38.6439 170.9252 C 38.2335 170.8378 37.5675 170.9328 37.1913 170.7542 C 36.4028 170.3866 36.5311 169.1905 35.5545 168.8694 C 33.1624 168.079 30.4558 167.4055 27.9934 167.1955 C 28.875 166.6094 30.4387 165.6983 31.2985 165.2062 C 32.3758 164.5906 33.4198 163.88 34.4658 163.3547 M 34.6643 171.2444 C 34.5332 170.9756 34.4173 170.6621 34.2606 170.4075 C 34.1038 170.1529 34.3356 170.2498 34.0886 170.1092 C 33.8863 169.9942 33.2127 169.9382 32.9885 169.8622 C 32.0433 169.5335 31.0838 169.2941 30.1233 168.992 C 29.3899 168.7602 28.6223 168.5426 27.8652 168.3441 C 27.2401 168.1826 26.3119 167.9878 25.6868 168.1256 C 25.1396 168.2405 24.3749 168.5892 23.8077 168.6006 C 23.4876 170.1225 27.2372 169.903 28.0238 169.9534 C 29.7101 170.0569 31.3897 171.0611 33.0655 171.2729 C 33.5842 171.3413 34.025 171.0573 34.5237 171.1266 " stroke-width="0.949999988079071"/>
      <path id="Shoe_Trim_Right_1_" fill="#A2C6DD" d="M 44.4132 166.6151 C 44.3562 166.7804 44.569 167.1195 44.5358 167.3722 C 44.493 167.6895 44.3781 167.9156 44.4427 168.2519 C 44.5652 168.8647 44.1833 169.1801 43.9031 169.714 C 43.6675 170.1633 42.936 170.6288 42.4705 170.7865 C 41.5651 171.0943 40.7006 171.1171 39.7592 171.0687 C 39.3241 171.043 38.8795 171.0202 38.451 170.9775 C 38.2325 170.9556 37.8829 171.005 37.6844 170.9148 C 37.521 170.8426 37.5409 170.8217 37.4573 170.644 C 37.1505 170.0037 36.8455 169.5477 36.3287 169.0404 C 36.0637 168.7773 35.8794 168.744 35.4975 168.6395 C 35.0519 168.5151 34.7498 168.5189 34.3014 168.4058 C 33.9053 168.3042 33.2754 168.1427 32.8641 168.0828 C 32.3777 168.0182 32.0271 167.8653 31.5464 167.7465 C 30.966 167.6059 30.3551 167.4701 29.7595 167.4074 C 29.2883 167.3551 28.7686 167.2012 28.3069 167.2012 C 28.0172 167.1993 27.7132 167.2734 27.4662 167.3884 C 26.6406 167.7836 26.3157 167.8634 26.2188 168.0809 C 26.8021 168.3241 27.5108 168.1294 28.1245 168.3441 C 28.7658 168.5664 29.4327 168.8172 30.1148 168.973 C 30.833 169.1383 31.5417 169.4461 32.2741 169.5572 C 32.5762 169.6019 32.8441 169.6855 33.1491 169.7596 C 33.4806 169.8375 34.0145 169.8508 34.3024 170.0303 C 34.5361 170.1747 34.9151 170.9471 34.9009 171.214 C 33.7837 171.2729 32.5943 171.1513 31.5455 170.759 C 30.8016 170.4825 30.035 170.1909 29.274 170.0018 C 28.1017 169.7083 26.7546 170.1728 25.6118 169.8033 C 25.0864 169.6342 24.6437 169.6769 24.2485 169.2817 C 24.0357 169.068 23.9825 168.6604 23.6671 168.669 C 23.4391 168.6747 23.061 168.7079 22.8558 168.7953 C 22.3466 169.0091 22.7456 169.6826 22.8938 170.0664 C 23.0686 170.5196 23.4002 171.2074 23.8552 171.3632 C 24.3492 171.5304 25 171.5817 25.5367 171.4838 C 26.1618 171.3689 26.596 171.3299 27.2458 171.309 C 28.4361 171.2739 29.6303 171.9731 30.7579 172.3977 C 31.5331 172.6894 32.333 172.9354 33.0902 173.2527 C 33.7248 173.5178 34.385 173.5681 35.0576 173.6698 C 35.9012 173.798 36.6764 173.6831 37.5305 173.7667 C 38.432 173.8579 39.3839 173.9377 40.295 173.8655 C 41.1319 173.799 42.1722 174.0678 42.9607 173.7268 C 43.2371 173.6061 43.4585 173.5947 43.7321 173.4693 C 44.2555 173.2299 45.0146 172.8556 45.4098 172.4376 C 45.9408 171.8752 46.3797 171.7641 46.6172 170.9138 C 46.8129 170.2108 46.7559 169.7672 46.6989 169.1126 C 46.6514 168.5797 46.4795 167.9584 46.2344 167.4387 C 46.1156 167.1822 45.8506 166.9713 45.6112 166.8412 C 45.4145 166.7338 44.4759 166.407 44.3847 166.6227 " stroke-width="0.949999988079071"/>
      <path id="Shoe_Left" fill="#0B1938" d="M 21.7196 177.8859 C 22.3162 177.9875 22.9271 178.3998 23.4372 178.7133 C 24.0148 179.0677 24.2875 179.3964 24.8176 179.7802 C 25.1406 180.0158 25.5225 180.4832 25.8436 180.7264 C 26.1998 180.9971 26.538 181.2717 26.9323 181.4892 C 27.6457 181.8806 28.3126 181.7505 29.0707 181.9139 C 29.351 181.9785 29.6284 182.1067 29.8621 182.2853 C 30.1442 182.5029 30.092 182.7119 30.1043 183.0567 C 30.1148 183.4092 30.186 183.7284 29.9903 184.0324 C 29.7585 184.3924 29.2465 184.9748 28.9235 185.2493 C 28.552 185.5647 28.2632 185.5666 27.8937 185.8782 C 27.5526 186.168 26.9304 186.4587 26.4962 186.5442 C 25.3961 186.7617 25.1805 187.0382 24.0851 187.2956 C 23.2767 187.4828 21.6816 187.7279 20.839 187.6813 C 20.2623 187.6557 19.9336 187.5027 19.3883 187.3583 C 18.767 187.1911 18.2379 186.9869 17.7201 186.6088 C 17.1862 186.2136 17.0855 185.8792 17.0276 185.236 C 17.0057 184.9852 16.7568 184.6423 16.6343 184.42 C 16.5136 184.1977 16.4528 183.9193 16.2391 183.8129 C 15.728 183.546 15.2511 183.2543 14.7561 182.9703 C 14.1814 182.6454 13.6484 182.2673 13.0528 181.9775 C 12.4875 181.7049 11.9622 181.3097 11.3941 181.0627 C 11.054 180.9164 10.8136 180.9088 10.7576 180.4889 C 10.7167 180.183 10.8982 179.9027 10.8839 179.5835 C 11.6924 179.8676 12.3688 180.4186 13.1734 180.7397 C 13.5164 180.8774 13.7985 181.0494 14.1757 181.1035 C 14.5965 181.1615 14.9176 181.0019 15.3024 180.8461 C 15.6957 180.6865 16.108 180.5345 16.5193 180.3948 C 17.0057 180.2295 17.4152 179.9512 17.8683 179.7327 C 18.8126 179.271 19.8225 178.6525 20.7848 178.2412 C 20.972 178.1614 22.1984 177.9448 22.1899 177.7624 M 13.999 184.3592 C 13.9315 184.0732 13.3748 183.9326 13.1212 183.8158 C 12.839 183.6856 12.6148 183.5118 12.364 183.337 C 11.8729 183.0007 11.3789 182.6463 10.8507 182.3632 C 10.3605 182.0982 9.7316 182.0307 9.5197 181.4835 C 9.4342 181.266 9.4456 181.0342 9.3867 180.79 C 9.3364 180.5601 9.4998 180.2162 9.4437 179.974 C 9.3193 179.4429 9.3411 179.1408 9.6138 178.7029 C 9.2262 178.4065 8.7806 178.1148 8.3075 177.9733 C 7.9551 177.8659 7.7603 177.9923 7.71 178.3295 C 7.6682 178.6003 7.482 178.7095 7.3205 178.9423 C 7.1504 179.1817 7.3148 179.3783 7.2796 179.6899 C 7.2407 180.0148 7.2958 180.3483 7.3081 180.6675 C 7.3309 181.2479 7.1837 181.835 7.6729 182.2407 C 8.146 182.6321 8.5194 183.109 8.9744 183.5137 C 9.5625 184.0371 10.2769 184.2889 10.9799 184.6347 C 11.3447 184.8142 11.7228 184.952 12.1123 185.0859 C 12.5464 185.2379 13.105 185.5049 13.58 185.4232 C 13.8175 185.3823 13.961 185.2522 14.0303 185.0023 C 14.0712 184.8503 14.075 184.381 13.9363 184.3364 " stroke-width="0.949999988079071"/>
      <path id="Shoe_Trim_Left" fill="#A2C6DD" d="M 30.0891 182.0849 C 30.8795 182.272 30.3618 183.5602 30.1129 183.9649 C 29.8535 184.3877 29.7642 184.7012 29.332 184.9966 C 29.0774 185.1695 28.7496 185.2807 28.5159 185.4868 C 28.2471 185.7224 28.1502 185.8336 27.7882 185.9951 C 26.7451 186.453 25.4522 187.0192 24.3426 187.2918 C 23.6339 187.4647 22.7969 187.6148 22.0664 187.6851 C 20.5967 187.8229 19.6239 187.5721 18.3129 186.8339 C 17.3553 186.2924 17.2936 185.2607 16.9288 184.3573 C 16.7388 183.888 16.2305 183.7911 15.8002 183.5355 C 15.1789 183.166 14.587 182.7708 13.9543 182.4145 C 13.2941 182.0431 12.6072 181.721 11.9337 181.3648 C 11.3979 181.0769 10.7699 180.7986 10.8668 180.0918 C 10.9001 179.8581 11.2297 179.5075 11.1632 179.3641 C 11.0986 179.2197 10.6683 179.1266 10.5324 179.062 C 10.3861 178.9879 10.1505 178.7485 9.989 178.7333 C 9.5492 178.7057 9.4399 179.6073 9.4437 179.9711 C 9.4513 180.429 9.5254 181.0066 9.7088 181.4218 C 9.837 181.7115 10.0593 181.7837 10.3158 181.9357 C 10.6616 182.1438 10.9694 182.4012 11.3238 182.5817 C 11.8919 182.8715 12.3773 183.2258 12.9274 183.5517 C 13.3416 183.7987 14.0522 184.0675 14.1738 184.5425 C 14.226 184.743 14.3296 185.0992 14.1092 185.2085 C 13.9581 185.2845 13.4575 185.1477 13.2608 185.1477 C 12.6006 185.1477 12.1436 184.9045 11.567 184.6261 C 10.826 184.268 9.8988 183.9659 9.2623 183.4462 C 8.7559 183.0358 8.2344 182.3309 7.5722 182.1552 C 7.5314 182.4003 7.6615 182.6748 7.7261 182.9085 C 7.7983 183.1717 7.8116 183.393 7.8116 183.6657 C 7.8116 184.2423 7.9522 184.6347 8.3645 185.0498 C 9.0922 185.7918 10.3852 186.0188 11.3836 186.1851 C 12.402 186.3542 13.4261 186.718 14.417 187.0629 C 15.0734 187.2928 15.595 187.6158 16.2039 187.9426 C 16.8528 188.2912 17.2917 188.7216 17.8607 189.1434 C 18.1467 189.3533 18.4431 189.5215 18.711 189.7561 C 18.9228 189.9395 19.1157 189.9803 19.3769 190.0905 C 19.718 190.2349 20.0932 190.4411 20.4362 190.5503 C 20.6832 190.632 20.915 190.7451 21.1639 190.7859 C 21.8317 190.8895 22.5328 190.7137 23.1978 190.6928 C 24.1592 190.6615 25.0123 190.3271 25.9101 189.9917 C 26.767 189.6649 27.6742 189.5614 28.4893 189.1272 C 28.8627 188.9287 29.217 188.7225 29.5486 188.4632 C 29.8849 188.1962 30.262 188.1031 30.6373 187.9046 C 32.0528 187.1569 33.5813 185.4574 33.1814 183.7635 C 33.0408 183.166 32.5496 182.6634 31.9692 182.4706 C 31.4134 182.2834 30.5974 182.007 30.0036 182.0383 " stroke-width="0.949999988079071"/>
      <g id="Right_Shoe_Lines">
        <g id="ID0.6123573230579495">
          <path id="ID0.28505046339705586" fill="#010101" d="M 23.252 170.8777 C 23.0515 170.7457 22.6392 170.9148 22.9233 171.0953 C 23.7393 171.6292 23.9303 171.899 24.9962 171.7413 C 28.2632 171.2644 31.0866 172.9307 34.1551 173.6992 C 37.0868 174.4307 41.3096 174.3243 44.2118 173.4209 C 47.3316 172.449 47.3174 169.1288 45.9874 166.8098 C 45.6691 166.2531 39.3545 165.1663 43.0186 166.1268 C 40.2009 165.3924 37.54 164.4054 35.0063 162.9576 C 34.7612 162.8198 34.4924 163.0801 34.7878 163.2511 C 37.3281 164.7018 40.0594 165.8465 42.9284 166.4669 C 44.1795 166.7414 46.3208 166.9162 46.3949 168.9008 C 46.5488 173.0399 42.6054 173.76 39.3231 173.6308 C 35.3692 173.4731 32.1022 172.8015 28.3877 171.2758 C 26.6957 170.5804 24.9677 171.9997 23.252 170.8777 L 23.252 170.8777 Z " stroke-width="0.949999988079071"/>
          <path id="ID0.2633480802178383" fill="#010101" d="M 44.5937 166.6284 C 44.5738 166.408 44.0665 166.3348 44.0893 166.5894 C 44.1748 167.5413 44.4294 168.5968 43.7967 169.4394 C 43.2257 170.1985 42.4581 170.74 41.4853 170.8511 C 40.1069 171.0088 38.756 170.7495 37.3813 170.6877 C 37.0422 170.6706 37.1467 171.0326 37.4269 171.0478 C 39.1683 171.1276 41.4207 171.7565 43.0291 170.7694 C 44.702 169.7453 44.7524 168.421 44.5937 166.6284 L 44.5937 166.6284 Z " stroke-width="0.949999988079071"/>
          <path id="ID0.7318954882211983" fill="#010101" d="M 36.1064 168.7402 C 35.9677 168.5635 35.4937 168.6367 35.6903 168.8827 C 36.2081 169.5363 36.7524 170.169 37.1666 170.8958 C 37.273 171.0829 37.7803 171.0829 37.6435 170.8397 C 37.2103 170.0816 36.646 169.4214 36.1064 168.7402 L 36.1064 168.7402 Z " stroke-width="0.949999988079071"/>
          <path id="ID0.9398090578615665" fill="#010101" d="M 27.8253 167.016 C 27.4861 166.9732 27.5973 167.3428 27.8699 167.376 C 30.5774 167.7066 33.36 168.2538 35.9639 169.0537 C 36.2698 169.1487 36.3563 168.8105 36.0551 168.7174 C 33.3989 167.9014 30.5831 167.3523 27.8253 167.016 L 27.8253 167.016 Z " stroke-width="0.949999988079071"/>
          <path id="ID0.4406727198511362" fill="#010101" d="M 25.7533 167.8624 C 25.417 167.8681 25.6916 168.2244 25.9272 168.2225 C 27.1242 168.1987 28.5416 168.6804 29.6749 168.9958 C 31.1075 169.3929 32.5363 169.8014 33.9803 170.1576 C 34.2872 170.2374 34.3803 169.8983 34.0706 169.8213 C 31.4448 169.1687 28.4969 167.8064 25.7533 167.8624 L 25.7533 167.8624 Z " stroke-width="0.949999988079071"/>
          <path id="ID0.2346159191802144" fill="#010101" d="M 34.7745 171.3413 C 35.1118 171.3138 34.841 170.9651 34.6016 170.9832 C 32.4879 171.1561 30.3542 170.1168 28.3212 169.7159 C 27.2638 169.5059 24.5136 170.0797 24.1108 168.6842 C 24.05 168.4704 23.5389 168.4115 23.6073 168.6452 C 24.0167 170.0683 26.083 169.9942 27.2657 170.0094 C 29.8298 170.0389 32.1877 171.5513 34.7745 171.3413 L 34.7745 171.3413 Z " stroke-width="0.949999988079071"/>
          <path id="ID0.8513877997174859" fill="#010101" d="M 34.4126 169.961 C 34.2957 169.7824 33.7865 169.7862 33.9366 170.017 C 34.1865 170.397 34.3499 170.8226 34.5608 171.2245 C 34.6596 171.4154 35.1669 171.4192 35.0358 171.1703 C 34.8258 170.7694 34.6615 170.341 34.4126 169.961 L 34.4126 169.961 Z " stroke-width="0.949999988079071"/>
        </g>
      </g>
      <g id="Left_Shoe_Lines">
        <g id="ID0.5589553508907557">
          <path id="ID0.23305168049409986" fill="#010101" d="M 8.3446 178.0189 C 8.3778 177.9609 7.9161 177.7662 7.8458 177.8802 C 6.3477 180.3502 6.6764 185.2522 9.9957 185.9903 C 15.1836 187.1484 18.9694 192.0209 24.4708 190.5161 C 26.4677 189.9689 36.6223 186.2392 32.6 182.7784 C 31.9787 182.2445 30.9983 182.0659 30.225 182.0032 C 26.7166 181.7191 25.2223 179.1883 22.4112 177.9191 C 22.3029 177.8745 21.8298 177.8393 22.1272 177.9771 C 24.8442 179.2035 26.2017 181.6175 29.198 182.0906 C 38.5128 183.5621 27.3132 189.7428 24.0585 190.3309 C 20.6091 190.9541 15.6719 187.4676 12.1987 186.3751 C 9.6375 185.5714 7.5779 184.6347 7.6083 181.5234 C 7.6197 180.2419 7.6672 179.1323 8.3446 178.0189 L 8.3446 178.0189 Z " stroke-width="0.949999988079071"/>
          <path id="ID0.32446596631780267" fill="#010101" d="M 14.075 185.2835 C 14.3163 185.2797 13.8508 185.0888 13.751 185.0907 C 11.3418 185.1334 9.2423 183.6049 7.6786 181.9471 C 7.5988 181.8616 7.1295 181.7989 7.2255 181.9006 C 8.9773 183.7559 11.4245 185.332 14.075 185.2835 L 14.075 185.2835 Z " stroke-width="0.949999988079071"/>
          <path id="ID0.22177046863362193" fill="#010101" d="M 29.7072 182.0174 C 29.4175 181.9471 29.3766 182.0877 29.6692 182.158 C 31.6965 182.652 27.3379 186.0169 27.0054 186.1547 C 25.76 186.6724 24.4433 187.1493 23.1009 187.3536 C 21.0784 187.8438 19.1907 187.3688 17.4323 185.9229 C 17.2993 185.3016 17.1539 184.6793 16.9839 184.0656 C 16.9592 183.9155 16.4804 183.887 16.488 183.9298 C 16.8157 185.7756 17.305 186.6743 19.1299 187.3175 C 21.0746 188.0043 23.1826 187.7345 25.1244 187.1522 C 27.0966 186.5603 29.5761 185.7699 30.3732 183.6419 C 30.7342 182.6767 30.6458 182.2464 29.7072 182.0174 L 29.7072 182.0174 Z " stroke-width="0.949999988079071"/>
          <path id="ID0.3993028518743813" fill="#010101" d="M 11.0958 180.8195 C 10.9846 180.7634 10.5163 180.7245 10.8089 180.8736 C 11.8938 181.4208 12.935 182.0355 13.9866 182.6397 C 14.758 183.0852 15.708 183.4652 16.392 184.0333 C 16.4842 184.1074 16.943 184.1616 16.8442 184.078 C 16.013 183.3892 14.9243 182.9627 13.9942 182.4212 C 13.0385 181.8654 12.0819 181.3182 11.0958 180.8195 L 11.0958 180.8195 Z " stroke-width="0.949999988079071"/>
          <path id="ID0.7009192113764584" fill="#010101" d="M 10.0422 181.7391 C 9.9567 181.6906 9.4561 181.6279 9.666 181.7448 C 11.1024 182.5409 12.4961 183.4092 13.8869 184.2889 C 13.9686 184.343 14.4692 184.4133 14.2631 184.2832 C 12.8761 183.4054 11.4824 182.5352 10.0422 181.7391 L 10.0422 181.7391 Z " stroke-width="0.949999988079071"/>
          <path id="ID0.9466923717409372" fill="#010101" d="M 9.5786 181.7543 C 9.6394 181.8768 10.0983 181.9063 10.0688 181.8455 C 9.6404 181.0104 9.3345 179.6111 9.9282 178.7836 C 9.9624 178.739 9.515 178.5328 9.4314 178.6497 C 8.8348 179.4809 9.1464 180.9097 9.5786 181.7543 L 9.5786 181.7543 Z " stroke-width="0.949999988079071"/>
          <path id="ID0.7554976916871965" fill="#010101" d="M 13.846 185.1534 C 13.8498 185.2911 14.3457 185.3538 14.3429 185.2873 C 14.3334 184.9909 14.302 184.6879 14.3666 184.3915 C 14.3904 184.2803 13.8897 184.1578 13.8698 184.2556 C 13.8052 184.5501 13.8375 184.8532 13.846 185.1534 L 13.846 185.1534 Z " stroke-width="0.949999988079071"/>
          <path id="ID0.30537131475284696" fill="#010101" d="M 10.7196 180.8062 C 10.7604 180.9287 11.2392 180.9829 11.2079 180.9012 C 11.0597 180.4452 11.0986 180.0253 11.262 179.5835 C 11.2981 179.4961 10.807 179.3403 10.7671 179.4496 C 10.5951 179.9065 10.5676 180.3473 10.7196 180.8062 L 10.7196 180.8062 Z " stroke-width="0.949999988079071"/>
        </g>
      </g>
    </g>
    <g id="Pants">
      <path id="Pants_2_" fill="#244764" d="M 22.1937 168.6215 C 22.2678 168.6386 22.34 168.6139 22.416 168.6348 C 22.4321 169.3549 22.7646 169.7225 22.9926 170.3362 C 23.2501 171.0335 23.0933 171.8429 23.2026 172.6077 C 23.3042 173.3202 23.6757 173.9766 23.7906 174.6863 C 23.898 175.3427 24.4233 175.7199 24.5991 176.325 C 24.9287 177.4584 22.244 177.6075 21.333 178.0227 C 19.8785 178.6848 18.3994 179.5474 16.9392 180.1602 C 15.7128 180.6722 14.6383 181.4512 13.4584 180.8784 C 11.9166 180.1345 12.0743 180.2514 10.4232 179.0715 C 8.6495 178.112 8.1726 178.2592 7.2872 176.7354 C 6.8103 175.9137 6.9538 175.394 7.0336 174.4887 C 7.1495 173.1995 7.3053 172.0595 7.5656 170.8245 C 7.8069 169.6893 8.1726 168.9635 8.5735 167.8358 C 8.9706 166.7167 9.1929 165.1644 9.0704 163.8648 C 8.9535 162.6365 8.6381 161.5867 8.5878 160.3004 C 8.4899 157.8086 9.1074 155.3186 9.2537 152.9085 C 9.4105 150.3178 9.4095 147.7186 9.7867 145.1916 C 9.9795 143.911 10.2484 142.791 10.4222 141.4809 C 10.5913 140.1823 10.864 139.0299 11.0017 137.5527 C 11.054 136.9722 10.8602 136.4022 10.9894 135.7771 C 11.129 135.096 11.5651 134.5972 11.9745 134.1013 C 12.8571 133.0288 12.8656 131.8175 12.8656 130.4866 C 12.8656 129.0055 12.7877 127.6033 12.6633 126.1118 C 12.5255 124.4417 12.4562 122.6386 12.1902 120.8422 C 11.813 118.319 11.5347 116.304 11.7522 113.7153 C 12.4201 113.569 11.1642 111.8305 11.6876 112.0062 C 12.1512 112.1601 11.5081 110.9223 11.6468 110.4511 C 11.8843 109.635 11.1461 109.2807 11.6268 107.2686 C 11.7342 106.8107 11.1651 104.4129 11.6876 104.4404 C 11.5803 104.7634 11.8843 102.7646 11.8843 102.4293 C 11.8843 100.8276 12.118 99.1841 12.4315 99.3532 C 12.9283 99.3627 17.2575 101.2142 17.2356 101.1943 C 18.2673 101.1088 19.4045 101.3349 20.4381 101.2313 C 21.9856 101.0717 22.0787 101.0328 23.5493 100.6262 C 26.7793 99.7351 34.1922 93.5629 37.2616 92.7877 C 38.0444 92.5892 38.7921 106.5941 37.0184 110.7332 C 36.7287 111.4144 36.761 112.6161 36.6422 113.2308 C 36.4817 114.0544 36.3715 114.9883 36.3325 115.8138 C 36.2622 117.2873 36.4 118.8063 36.2461 120.2465 C 36.0789 121.8273 35.7834 123.1801 35.943 124.7163 C 36.0817 126.0463 35.7055 127.3696 35.7074 128.7015 C 35.7093 130.0097 35.4566 131.4033 35.4604 132.7219 C 35.4737 137.9156 34.4363 143.0142 34.6909 148.1376 C 34.7527 149.3773 35.0443 150.7035 34.9256 151.9081 C 34.8011 153.1659 34.1057 154.2698 33.7362 155.4858 C 33.3628 156.7218 33.4911 157.9311 33.9309 159.0949 C 34.309 160.0914 35.4595 161.258 35.1944 162.4218 C 34.9769 163.3623 33.5804 163.8192 32.8156 164.3721 C 31.7317 165.1606 29.9124 166.0935 28.7316 166.6844 C 26.5038 167.7978 25.0047 168.7944 22.4217 168.8124 " stroke-width="0.949999988079071"/>
      <g id="Pants_Lines_2_">
        <g id="ID0.4155438197776675">
          <path id="ID0.21040254598483443" fill="#010101" d="M 32.751 105.0161 C 33.0436 104.9164 32.6456 104.6409 32.4565 104.7064 C 31.6082 104.9981 30.6306 105.2071 29.9742 105.8645 C 28.8845 106.957 28.4561 108.6537 28.0238 110.0806 C 27.9611 110.2867 28.458 110.4235 28.5207 110.2164 C 28.9216 108.8902 29.3149 107.1954 30.3295 106.1789 C 30.9888 105.5149 31.8932 105.3087 32.751 105.0161 L 32.751 105.0161 Z " stroke-width="0.949999988079071"/>
          <path id="ID0.7107321028597653" fill="#010101" d="M 30.3675 106.329 C 30.3846 106.1086 29.8849 105.9927 29.8697 106.1951 C 29.4868 111.2405 28.7515 116.7306 27.1935 121.5585 C 26.121 124.8778 23.9464 128.7357 23.9464 132.2697 C 23.9464 132.4683 24.449 132.5595 24.449 132.3182 C 24.449 128.2085 27.2534 124.1672 28.1046 120.1981 C 29.0831 115.6219 30.0112 111.0011 30.3675 106.329 L 30.3675 106.329 Z " stroke-width="0.949999988079071"/>
          <path id="ID0.5298327566124499" fill="#010101" d="M 12.6804 99.4216 C 12.7402 99.2135 12.2396 99.0805 12.1873 99.2895 C 10.3871 105.683 11.3694 113.2593 11.8643 119.7725 C 12.1113 123.0452 12.5578 126.3237 12.5987 129.605 C 12.6262 131.904 12.5911 132.7571 11.3219 134.5944 C 11.2088 134.8129 11.1138 135.0399 11.0416 135.2755 C 10.94 137.3408 10.3994 139.2722 10.2702 141.3185 C 10.2531 141.5408 10.7538 141.6548 10.7671 141.4524 C 10.9086 139.2076 11.1034 135.78 12.3811 133.936 C 12.8827 133.2064 13.1259 132.0693 13.1164 131.201 C 13.0718 127.705 12.6965 124.2546 12.4324 120.7766 C 11.9166 113.968 10.807 106.0792 12.6804 99.4216 L 12.6804 99.4216 Z " stroke-width="0.949999988079071"/>
          <path id="ID0.9860925432294607" fill="#010101" d="M 25.6735 127.2148 C 25.664 127.0143 25.1596 126.9269 25.1719 127.1625 C 25.2983 129.8159 26.4373 132.4559 26.0032 135.1283 C 25.6916 137.0435 25.1985 138.8969 25.1719 140.8454 C 25.1681 141.0439 25.6697 141.137 25.6735 140.8938 C 25.7096 138.3744 26.8382 135.8731 26.5808 133.3527 C 26.3708 131.2855 25.7733 129.2924 25.6735 127.2148 L 25.6735 127.2148 Z " stroke-width="0.949999988079071"/>
          <path id="ID0.6904278523288667" fill="#010101" d="M 37.7632 92.5027 C 37.7433 92.3004 37.236 92.2187 37.2607 92.4524 C 37.691 96.6504 38.376 100.9615 37.919 105.1881 C 37.4944 109.0992 36.2385 112.8052 36.0637 116.7534 C 36.0561 116.95 36.5558 117.0431 36.5662 116.8018 C 36.7648 112.3435 38.451 108.1777 38.5052 103.7156 C 38.5517 99.9374 38.147 96.2543 37.7632 92.5027 L 37.7632 92.5027 Z " stroke-width="0.949999988079071"/>
          <path id="ID0.6602921220473945" fill="#010101" d="M 35.5773 151.6811 C 35.6628 151.4977 35.1697 151.3467 35.0785 151.5471 C 34.0354 153.8252 33.6317 156.7446 31.9711 158.6645 C 30.2183 160.6947 28.8456 161.4851 26.0535 161.6114 C 25.7153 161.6285 26.0146 161.9506 26.235 161.942 C 28.9349 161.8214 30.4416 161.1773 32.1763 159.1699 C 34.0003 157.0581 34.4268 154.1948 35.5773 151.6811 L 35.5773 151.6811 Z " stroke-width="0.949999988079071"/>
          <path id="ID0.765230895485729" fill="#010101" d="M 35.0766 152.0725 C 35.1222 152.271 35.6295 152.3432 35.5792 152.1152 C 34.0506 145.3579 35.3654 136.9228 35.9202 130.0857 C 36.3211 125.1485 36.4266 120.2465 36.6289 115.298 C 36.6375 115.1013 36.1368 115.0063 36.1264 115.2495 C 35.8756 121.3875 35.5421 127.4808 35.1365 133.6092 C 34.7441 139.5553 33.7552 146.2243 35.0766 152.0725 L 35.0766 152.0725 Z " stroke-width="0.949999988079071"/>
          <path id="ID0.21591732883825898" fill="#010101" d="M 33.626 156.8795 C 33.5804 156.6809 33.0721 156.6087 33.1234 156.831 C 33.3448 157.7924 33.4445 159.074 34.0326 159.9033 C 34.5503 160.6329 35.6941 161.8442 34.6453 162.8531 C 33.9756 163.4934 33.2536 163.9237 32.4461 164.3446 C 29.1553 166.0755 26.1951 168.4115 22.339 168.592 C 21.997 168.6091 22.2982 168.9331 22.5176 168.9245 C 24.4765 168.8333 26.2787 168.2956 28.0001 167.3532 C 29.9875 166.2674 32.2247 165.2309 34.0658 163.9171 C 34.8163 163.3775 36.0076 162.4332 35.4452 161.3359 C 34.6596 159.8074 34.0183 158.5866 33.626 156.8795 L 33.626 156.8795 Z " stroke-width="0.949999988079071"/>
          <path id="ID0.04007707303389907" fill="#010101" d="M 10.4061 170.5196 C 10.4298 170.7219 10.94 170.7998 10.9039 170.568 C 10.1733 165.0495 8.3997 160.574 9.2376 154.8484 C 9.8931 150.3748 9.6347 145.6381 10.7443 141.2254 C 10.7994 141.0135 10.2997 140.8824 10.2484 141.0895 C 9.0552 145.8376 8.8101 151.4635 8.4472 156.3399 C 8.0757 161.3179 9.7658 165.6841 10.4061 170.5196 L 10.4061 170.5196 Z " stroke-width="0.949999988079071"/>
          <path id="ID0.05291978782042861" fill="#010101" d="M 24.847 176.3488 C 24.8233 176.1464 24.316 176.0666 24.3464 176.3003 C 24.4537 177.1876 20.2737 178.2079 19.5764 178.5433 C 18.6302 178.9983 17.7249 179.4952 16.7986 179.9901 C 14.5832 181.1795 13.0357 180.4433 10.9666 179.1608 C 8.6134 177.7006 6.7885 176.097 7.3822 172.9639 C 7.5998 171.8268 7.824 170.6725 8.2135 169.581 C 8.8519 167.7902 9.4675 166.1629 9.4884 164.2562 C 9.4903 164.0577 8.9896 163.9646 8.9858 164.2078 C 8.945 168.136 5.5668 172.2904 7.0155 176.2775 C 7.6587 178.0398 9.0495 178.3685 10.6464 179.3555 C 11.5537 179.9179 12.65 180.8252 13.7187 181.113 C 16.4129 181.835 19.3693 178.7675 21.8137 178.0645 C 22.6962 177.8099 25.0066 177.6645 24.847 176.3488 L 24.847 176.3488 Z " stroke-width="0.949999988079071"/>
          <path id="ID0.024109832476824522" fill="#010101" d="M 25.5614 140.7076 C 25.5567 140.5091 25.0551 140.4179 25.0589 140.6573 C 25.1064 143.684 25.5671 146.97 24.9268 149.9473 C 24.4965 151.9509 23.556 153.5298 22.9119 155.4317 C 22.4055 156.9365 22.1481 158.0831 22.7067 159.6079 C 24.4414 164.3522 22.5927 164.3987 20.9625 167.3466 C 20.8456 167.5603 21.3235 167.7304 21.4194 167.5584 C 22.4122 165.7601 23.7944 164.7122 24.0519 162.608 C 24.3407 160.2624 22.2383 158.0679 23.4097 155.5704 C 25.7809 150.5249 25.645 146.1587 25.5614 140.7076 L 25.5614 140.7076 Z " stroke-width="0.949999988079071"/>
          <path id="ID0.12331758998334408" fill="#010101" d="M 20.5682 165.1473 C 20.5948 164.9269 20.0932 164.8082 20.0695 165.0134 C 19.8396 166.958 21.5876 167.509 22.32 169.0727 C 23.4315 171.4306 23.2311 174.16 24.3587 176.5777 C 24.4414 176.7573 24.943 176.7858 24.8299 176.5407 C 23.765 174.2588 23.6662 171.9284 23.024 169.5363 C 22.5575 167.7921 20.3222 167.2497 20.5682 165.1473 L 20.5682 165.1473 Z " stroke-width="0.949999988079071"/>
        </g>
      </g>
    </g>
    <g id="Face">
      <path id="Face_1_" fill="#D8AD8C" d="M 29.4526 13.7667 C 29.3301 13.9092 29.7234 13.7553 29.7842 13.9415 C 29.9884 14.5704 30.2117 14.5115 30.4064 15.129 C 30.605 15.7551 30.2696 16.6623 30.5318 17.296 C 30.8121 17.9752 30.3143 18.9005 30.6325 19.5589 C 30.7038 19.708 30.7769 19.936 30.9185 20.0348 C 31.0277 20.1099 31.2918 20.5906 31.3688 20.6485 C 31.5493 20.7882 31.6129 20.7625 31.668 20.9877 C 31.9796 22.2512 32.0062 23.5147 32.0822 24.8456 C 32.1183 25.5087 32.2656 26.1585 32.2124 26.8264 C 32.1829 27.194 32.2551 27.5246 32.2219 27.8923 C 32.1791 28.4043 31.9511 28.866 31.8476 29.361 C 31.6813 30.1618 31.6139 30.9199 31.3194 31.7094 C 31.2063 32.0115 31.0021 32.286 30.9223 32.5967 C 30.8681 32.8057 30.9441 32.8522 30.8273 33.0764 C 30.7693 33.1876 30.6943 33.2854 30.6154 33.3662 C 29.6265 34.3874 27.9231 34.9527 26.5836 35.1683 C 25.911 35.2776 25.1111 35.3745 24.4651 35.3384 C 24.2048 35.3251 23.8942 35.4305 23.6567 35.3906 C 23.2957 35.3336 23.6633 36.0832 23.5664 36.4328 C 23.4106 36.9971 24.0072 37.7865 24.3739 38.0782 C 24.8195 38.4316 24.8879 38.8648 25.3581 39.1992 C 25.6469 39.3996 26.0478 40.0466 26.2445 40.3363 C 26.4611 40.6508 26.7603 41.6711 27.0187 41.9494 C 27.4776 42.4415 27.0852 42.2734 27.4776 42.8073 C 27.9136 43.4001 27.7721 43.2851 27.8186 44.0527 C 27.8538 44.6066 28.2784 45.51 27.7778 45.9755 C 27.5327 46.2064 27.4538 46.6614 27.3085 46.9493 C 27.0966 47.3625 26.1514 48.3135 25.6726 48.4104 C 24.8641 48.5738 23.1893 48.9044 22.5233 48.2755 C 22.2858 48.0513 20.2462 46.3384 20.0096 46.1095 C 18.977 45.0968 19.3332 45.1557 18.4041 43.8523 C 17.9548 43.2224 17.5396 42.4301 16.9145 41.9637 C 16.3113 41.5162 16.5953 40.9947 15.9531 40.6261 C 15.2777 40.2385 15.8543 40.1254 15.1798 39.7093 C 14.9091 39.5421 14.7808 38.9788 14.4787 38.8629 C 14.1947 38.7574 14.2431 38.3869 13.8907 37.8065 C 13.9743 37.3068 14.9632 35.7184 14.9556 34.8425 C 14.9423 33.5752 14.5395 32.8741 14.4863 31.5954 C 14.4597 30.9418 14.1073 30.6539 14.0094 29.9994 C 13.9648 29.703 13.7529 29.664 13.6494 29.3733 C 13.5496 29.1092 13.599 28.9021 13.4043 28.7283 C 13.3302 28.5962 12.9796 26.4815 12.5531 27.1152 C 11.8919 28.1013 11.2487 28.1754 10.8317 27.8923 C 10.3415 27.5588 10.1391 27.7697 9.6442 27.423 C 9.0609 27.0126 8.7493 26.7485 8.3588 26.1823 C 7.9636 25.6094 7.5608 25.1392 7.2863 24.4561 C 6.93 23.5707 7.0592 22.1011 7.7204 21.8085 C 8.3227 21.5406 9.2081 21.3639 9.8057 21.5197 C 10.3833 21.6707 10.9172 22.1657 11.4036 22.4934 C 12.4134 23.1736 12.4847 23.755 12.7184 23.9982 C 12.6595 23.6363 13.4147 24.477 13.6988 24.6965 C 14.1719 25.0964 14.2735 25.3786 14.53 25.9752 C 14.663 26.2839 14.6412 25.9049 14.7058 26.2184 C 14.7675 26.5186 14.5272 25.3653 14.644 25.6541 C 14.5509 24.7041 14.8017 26.2184 14.7029 25.2494 C 14.6564 24.7924 14.7343 24.5511 14.5652 24.0999 C 14.3571 23.5356 14.5205 24.2167 14.2944 23.6524 C 14.473 23.9251 13.4052 21.1273 13.8783 21.8075 C 14.2089 22.2759 13.0157 19.5427 13.1231 20.0985 C 13.0936 19.6491 15.2159 23.5935 15.0972 23.1375 C 14.9917 22.7357 15.0307 21.6726 14.8815 21.2765 C 14.416 20.0339 14.6535 19.8933 14.1206 18.6773 C 13.865 18.1006 13.5591 17.277 13.4052 16.6861 C 13.277 16.194 13.1468 15.6202 12.9207 14.8459 C 12.7934 14.6189 12.4049 12.697 12.8533 13.1065 C 13.2827 13.5017 14.2507 15.5252 14.7875 15.7484 C 16.0709 16.2833 16.3863 16.7497 17.7629 16.8457 C 17.3211 16.7469 19.4349 17.1259 19.1233 16.9055 C 18.7822 16.6633 17.9576 16.345 17.6669 16.0382 C 17.3886 15.7437 17.1235 15.642 16.8119 15.3694 C 16.4053 15.0169 16.5241 15.0226 16.1849 14.5552 C 15.9845 14.2047 15.2273 12.7246 15.6691 13.1996 C 16.1944 13.7686 17.6384 14.4555 18.4117 14.7481 C 19.1594 15.0312 20.0742 15.0483 20.7345 15.0065 C 21.5144 14.9571 22.644 15.0093 23.4999 14.8678 C 24.2267 14.7462 24.9135 14.7994 25.5624 14.5201 C 26.5143 14.4897 26.0697 14.5068 26.0573 14.4897 L 26.7831 14.3329 C 27.8747 13.9187 27.6343 14.275 28.7249 13.9387 " stroke-width="0.949999988079071"/>
      <g id="Face_Lines">
        <g id="ID0.5847395132295787">
          <path id="ID0.36607834277674556" fill="#010101" d="M 8.9659 25.6455 C 8.8671 25.5287 8.3683 25.4859 8.507 25.6474 C 8.9469 26.1747 9.6185 26.4777 10.313 26.4036 C 10.7082 26.3618 11.0274 26.2222 11.3874 26.0673 C 11.7028 25.9305 12.3441 25.579 12.3004 26.1804 C 12.2852 26.3628 12.7858 26.4654 12.7972 26.3143 C 12.8381 25.7624 12.4856 25.5363 11.9593 25.5467 C 10.8887 25.5676 9.9529 26.8254 8.9659 25.6455 L 8.9659 25.6455 Z " stroke-width="0.949999988079071"/>
          <path id="ID0.9774431996047497" fill="#010101" d="M 12.9388 26.7295 C 12.9834 26.5661 12.4866 26.4312 12.4419 26.5955 C 11.6734 29.3543 8.9497 26.7456 8.0795 25.4565 C 7.671 24.8475 7.0773 24.097 7.2169 23.318 C 7.4193 22.1685 8.0178 21.551 9.2632 21.6071 C 9.5995 21.6223 9.2414 21.3468 9.0647 21.3382 C 7.6007 21.2736 6.8312 22.0317 6.6878 23.4824 C 6.5947 24.4162 7.7451 25.7044 8.2876 26.3419 C 9.4266 27.6842 12.2358 29.2641 12.9388 26.7295 L 12.9388 26.7295 Z " stroke-width="0.949999988079071"/>
          <path id="ID0.5416430425830185" fill="#010101" d="M 11.4321 24.2861 C 11.5841 24.3659 12.0334 24.307 11.7342 24.1521 C 10.8488 23.6952 9.9719 22.6198 8.8766 22.7005 C 8.1546 22.7547 7.3138 23.0976 7.5057 23.964 C 7.5428 24.1255 8.0415 24.2063 8.0026 24.0305 C 7.8411 23.299 8.7816 22.71 9.4466 23.0216 C 10.161 23.3551 10.731 23.9232 11.4321 24.2861 L 11.4321 24.2861 Z " stroke-width="0.949999988079071"/>
          <path id="ID0.41236252849921584" fill="#010101" d="M 12.5673 24.0989 C 12.6595 24.2224 13.1592 24.2728 13.0281 24.098 C 11.9612 22.6445 10.1458 20.7901 8.166 21.551 C 7.9674 21.627 8.4234 21.8379 8.565 21.7828 C 10.1971 21.1558 11.7038 22.9238 12.5673 24.0989 L 12.5673 24.0989 Z " stroke-width="0.949999988079071"/>
          <path id="ID0.6560165639966726" fill="#010101" d="M 30.9907 20.6476 C 31.0686 20.7806 31.5673 20.8404 31.4524 20.6457 C 30.9622 19.8106 30.9441 18.4065 30.8415 17.466 C 30.7028 16.1864 30.8282 15.0872 30.0787 13.9377 C 29.9951 13.8085 29.4963 13.7534 29.617 13.9396 C 30.8938 15.8976 29.8089 18.6364 30.9907 20.6476 L 30.9907 20.6476 Z " stroke-width="0.949999988079071"/>
          <path id="ID0.3196215317584574" fill="#010101" d="M 12.972 26.9698 C 12.9236 26.8093 12.4267 26.738 12.4733 26.9024 C 14.3096 33.0593 22.0265 37.1576 28.2452 34.9536 C 28.4428 34.8843 27.9887 34.6705 27.8462 34.7218 C 21.8716 36.8384 14.7058 32.7924 12.972 26.9698 L 12.972 26.9698 Z " stroke-width="0.949999988079071"/>
          <path id="ID0.4138333359733224" fill="#010101" d="M 27.2496 17.5249 C 27.3617 17.371 26.8791 17.2048 26.786 17.334 C 25.8645 18.5984 25.9861 21.8142 27.3161 22.8003 C 27.4348 22.8886 27.9355 22.8962 27.7132 22.73 C 26.4839 21.8199 26.4022 18.6887 27.2496 17.5249 L 27.2496 17.5249 Z " stroke-width="0.949999988079071"/>
          <path id="ID0.6931495200842619" fill="#010101" d="M 28.0314 26.6231 C 27.9108 26.7608 28.3877 26.9375 28.495 26.815 C 28.9985 26.2402 29.8535 26.2507 29.7015 25.2598 C 29.5638 24.363 28.6993 23.8681 28.0238 23.3817 C 27.9051 23.2952 27.4025 23.2895 27.6267 23.452 C 28.3022 23.9374 29.3785 24.5274 29.1847 25.5192 C 29.0679 26.1215 28.4114 26.1899 28.0314 26.6231 L 28.0314 26.6231 Z " stroke-width="0.949999988079071"/>
          <path id="ID0.7708320207893848" fill="#010101" d="M 25.8255 25.8298 C 25.9367 25.6759 25.4541 25.5097 25.3619 25.6389 C 24.9373 26.225 25.1339 26.9622 25.8559 27.1722 C 26.1751 27.2662 26.5998 27.3042 26.9028 27.1389 C 27.2192 26.9651 27.5137 26.7333 27.8538 26.6069 C 28.0514 26.5338 27.5963 26.321 27.4548 26.3751 C 27.07 26.5176 26.7176 26.9185 26.3053 26.966 C 25.5671 27.0477 25.4892 26.2934 25.8255 25.8298 L 25.8255 25.8298 Z " stroke-width="0.949999988079071"/>
          <path id="ID0.10616219183430076" fill="#010101" d="M 23.9122 35.4533 C 23.9654 35.2975 23.4705 35.155 23.4154 35.3194 C 23.0439 36.4204 23.6785 37.5585 24.3701 38.3869 C 24.468 38.5038 24.9686 38.5465 24.8318 38.385 C 24.1678 37.5899 23.5579 36.5116 23.9122 35.4533 L 23.9122 35.4533 Z " stroke-width="0.949999988079071"/>
          <path id="ID0.9261908582411706" fill="#010101" d="M 31.5331 28.7216 C 31.4894 28.886 31.9882 29.0199 32.029 28.8546 C 32.4736 27.1655 32.5249 25.2608 32.4185 23.5242 C 32.3596 22.577 32.3834 20.8775 31.251 20.5307 C 30.9546 20.4395 30.8966 20.6732 31.1902 20.7625 C 32.1535 21.058 31.9587 24.2158 31.9416 24.8675 C 31.9093 26.1481 31.8609 27.4762 31.5331 28.7216 L 31.5331 28.7216 Z " stroke-width="0.949999988079071"/>
          <path id="ID0.5998756154440343" fill="#010101" d="M 27.7198 34.7237 C 27.5251 34.7807 27.9744 34.9983 28.1179 34.9555 C 29.1002 34.6658 30.4435 34.1642 31.004 33.2417 C 31.1056 33.0736 30.6202 32.9187 30.5404 33.0508 C 29.9884 33.958 28.6898 34.4368 27.7198 34.7237 L 27.7198 34.7237 Z " stroke-width="0.949999988079071"/>
          <path id="ID0.2880496885627508" fill="#010101" d="M 13.4746 37.7086 C 13.3473 37.8321 13.8166 38.0164 13.9353 37.8986 C 15.8961 35.953 14.9442 32.1521 14.2137 29.9205 C 14.1633 29.7609 13.6627 29.6925 13.7178 29.854 C 14.435 32.0495 15.4031 35.7934 13.4746 37.7086 L 13.4746 37.7086 Z " stroke-width="0.949999988079071"/>
          <path id="ID0.5999437849968672" fill="#010101" d="M 30.6477 33.0061 C 30.586 33.1486 31.0743 33.3044 31.1446 33.1401 C 31.3992 32.5539 31.6395 31.945 31.6623 31.2999 C 31.6699 31.1156 31.1683 31.0197 31.1645 31.166 C 31.1398 31.811 30.9004 32.4219 30.6477 33.0061 L 30.6477 33.0061 Z " stroke-width="0.949999988079071"/>
        </g>
      </g>
    </g>
    <g id="Shirt">
      <path id="Shirt_2_" fill="#555D7B" d="M 13.7073 37.8074 C 14.2859 38.6244 14.2859 38.6244 14.8226 39.2676 C 15.5237 40.1036 16.0567 40.7676 16.4965 41.7794 C 16.9829 42.8994 18.8069 44.0423 19.2572 45.1747 C 19.6838 46.2501 20.9368 47.0566 21.864 47.7729 C 23.0582 48.6944 22.8178 48.532 24.4499 48.6944 C 25.988 48.8455 27.2838 47.0785 27.8091 45.5946 C 28.2898 44.2351 27.9269 44.4527 27.4215 43.25 C 27.203 42.7313 26.6245 40.8113 26.2559 40.3363 C 25.4968 39.355 25.0703 39.1374 24.8043 38.1418 C 26.1153 38.5902 29.1553 39.5203 30.073 40.2489 C 31.9673 41.7509 34.0316 42.5897 34.3204 45.1747 C 34.4639 46.4496 35.8081 48.5234 36.3468 49.2511 C 37.0963 50.2648 37.748 50.4329 38.1043 51.1388 C 38.6762 52.2702 37.8867 55.7985 37.9874 56.8055 C 38.0967 57.8952 38.0995 58.735 37.5419 59.9453 C 37.0821 60.9447 35.9544 61.7417 35.0291 62.2699 C 34.4933 62.5739 33.3353 63.0014 32.4147 62.8437 C 31.8675 62.7487 31.9863 63.2598 32.0195 64.1519 C 32.0765 65.6168 31.7782 66.6808 32.2162 67.74 C 32.7415 69.0149 32.7672 70.1948 32.9857 71.5438 C 33.0921 72.1993 33.0674 72.833 33.2536 73.479 C 33.4721 74.2409 33.8578 74.8527 34.0516 75.549 C 34.2226 76.1637 34.1513 76.7375 34.3689 77.3179 C 34.595 77.9259 34.9607 78.4864 35.2334 79.0849 C 35.7844 80.2924 36.5558 81.1835 36.9367 82.4774 C 37.122 83.111 37.4374 83.6763 37.3357 84.3916 C 37.2521 84.9825 36.8199 85.5449 36.7771 86.1444 C 36.6812 87.4544 37.4858 88.5061 37.8069 89.5682 C 38.0235 90.2797 38.1613 90.8915 38.0406 91.5271 C 37.8687 92.4182 37.7699 92.4457 36.9348 92.973 C 35.7378 93.7282 34.4705 94.2678 33.3191 95.0763 C 32.0727 95.956 30.6449 96.7578 29.3348 97.5197 C 28.1103 98.2284 27.1118 99.071 25.8607 99.7465 C 24.8537 100.288 23.156 100.9321 22.0464 101.0727 C 19.3826 101.4118 16.6067 101.2494 14.3096 100.1417 C 12.991 99.509 11.2696 99.7256 12.1968 98.4326 C 13.0908 97.1862 10.5087 92.3821 10.198 91.0701 C 9.5501 88.3313 8.8101 87.539 8.279 84.1532 C 7.8895 81.6347 7.7575 81.952 7.5741 79.0165 C 7.4886 77.7122 6.9338 74.9581 7.2046 73.5892 C 7.462 72.281 7.0877 70.401 6.4123 68.5646 C 5.2324 65.3536 6.3439 67.9376 5.7311 65.7108 C 4.9388 65.3327 4.7203 65.2396 3.7722 64.871 C 3.2915 64.6867 3.7722 63.6816 3.7722 62.6129 C 3.7722 61.375 3.7722 61.072 3.6259 59.95 C 3.5186 59.134 3.4511 59.0029 3.6041 58.1992 C 3.7152 57.6092 3.1718 56.2773 3.3922 55.637 C 3.5984 55.0452 3.0863 54.4695 3.0065 53.7988 C 2.8631 52.5533 1.7212 50.5355 1.8352 49.2274 C 2.0584 46.6377 1.7506 47.2495 2.8099 44.9524 C 3.3742 43.7288 4.7507 42.1964 5.7587 41.2436 C 6.8436 40.2223 7.9883 39.6704 9.1825 38.9997 C 11.3143 37.8036 10.0099 38.4287 12.3289 37.7894 " stroke-width="0.949999988079071"/>
      <g id="Shirt_Lines_2_">
        <g id="ID0.7054122132249177">
          <path id="ID0.04322133073583245" fill="#010101" d="M 13.8679 37.9053 C 14.112 37.9015 13.6484 37.701 13.5439 37.7039 C 8.983 37.7818 3.9955 41.521 2.1164 45.6611 C 1.2547 47.5535 1.4238 49.6007 2.0641 51.5539 C 3.5148 55.9876 3.1756 60.2493 3.5243 64.8064 C 3.5347 64.9546 4.0287 65.0088 4.0221 64.9404 C 3.7789 61.7826 4.2928 58.3645 3.5699 55.2665 C 3.0255 52.9181 1.7601 50.3142 1.9995 47.8508 C 2.4869 42.8576 9.1692 37.986 13.8679 37.9053 L 13.8679 37.9053 Z " stroke-width="0.949999988079071"/>
          <path id="ID0.8909908910281956" fill="#010101" d="M 24.3635 37.9129 C 24.1744 37.8521 23.8514 37.9157 24.1906 38.024 C 26.9142 38.8971 30.3694 39.811 32.3416 42.0321 C 34.0259 43.9321 34.1048 46.4496 35.544 48.4664 C 36.2765 49.4934 37.2065 50.3417 38.014 51.3107 C 38.0881 51.4019 38.566 51.4703 38.4653 51.3497 C 36.9035 49.4725 35.5022 47.9962 34.6966 45.6155 C 34.0364 43.6594 33.2716 42.2743 31.5303 41.1229 C 29.2683 39.6286 26.9532 38.7422 24.3635 37.9129 L 24.3635 37.9129 Z " stroke-width="0.949999988079071"/>
          <path id="ID0.7282259715721011" fill="#010101" d="M 38.1157 59.5548 C 38.1565 59.476 37.6796 59.2983 37.6179 59.4209 C 36.7923 61.0501 34.1399 63.1563 32.2095 62.8532 C 31.8599 62.7972 32.1031 63.0052 32.3036 63.0366 C 34.4601 63.3738 37.1752 61.4102 38.1157 59.5548 L 38.1157 59.5548 Z " stroke-width="0.949999988079071"/>
          <path id="ID0.7448925022035837" fill="#010101" d="M 33.1538 71.1296 C 33.1348 71.0099 32.6437 70.9225 32.6617 71.0403 C 33.1871 74.3767 34.0867 77.1973 35.7416 80.1613 C 37.9361 84.0914 36.38 86.1206 34.3869 89.5758 C 34.3461 89.6461 34.8135 89.8332 34.8847 89.7097 C 36.9823 86.075 38.3779 84.1931 36.2328 80.2506 C 34.6073 77.2571 33.6811 74.4812 33.1538 71.1296 L 33.1538 71.1296 Z " stroke-width="0.949999988079071"/>
          <path id="ID0.6100088409148157" fill="#010101" d="M 19.1014 61.8092 C 19.1404 61.7218 18.6568 61.5565 18.6046 61.6771 C 16.3094 66.9354 8.2192 66.733 3.9166 64.8387 C 3.7998 64.7874 3.3286 64.7703 3.6288 64.9033 C 8.1688 66.9002 16.6647 67.3971 19.1014 61.8092 L 19.1014 61.8092 Z " stroke-width="0.949999988079071"/>
          <path id="ID0.7704726946540177" fill="#010101" d="M 18.5495 61.6296 C 18.6236 61.7218 19.0986 61.7911 18.9988 61.6695 C 17.3306 59.6156 14.7818 55.467 16.5963 52.9067 C 16.6352 52.8516 16.1859 52.6502 16.0994 52.7728 C 14.2545 55.3767 16.8784 59.5729 18.5495 61.6296 L 18.5495 61.6296 Z " stroke-width="0.949999988079071"/>
          <path id="ID0.7805127152241766" fill="#010101" d="M 24.8252 38.4059 C 24.7416 38.3214 24.2704 38.2615 24.3758 38.367 C 25.6431 39.6362 26.8629 41.4079 27.3987 43.1607 C 27.9944 45.1101 27.4709 48.1947 24.9525 48.5149 C 21.6132 48.9386 19.7151 45.4008 18.0707 43.2015 C 16.7198 41.3994 15.3109 39.6438 13.9515 37.8483 C 13.8593 37.7305 13.4233 37.7153 13.4565 37.759 C 15.576 40.5577 17.5719 43.9568 20.0856 46.403 C 21.2836 47.5696 22.4673 48.57 24.1478 48.7809 C 26.1704 49.0355 28.1796 47.353 28.1967 45.2583 C 28.2167 42.7161 26.5751 40.1587 24.8252 38.4059 L 24.8252 38.4059 Z " stroke-width="0.949999988079071"/>
          <path id="ID0.7762935534119606" fill="#010101" d="M 36.9899 86.1529 C 36.9899 86.0114 36.4912 85.9411 36.4912 86.019 C 36.495 88.1413 39.1265 90.8602 37.159 92.6547 C 37.083 92.725 37.5324 92.9131 37.6293 92.8238 C 39.6471 90.9837 36.9937 88.298 36.9899 86.1529 L 36.9899 86.1529 Z " stroke-width="0.949999988079071"/>
          <path id="ID0.987479719799012" fill="#010101" d="M 21.6731 98.6882 C 21.922 98.6825 21.4546 98.482 21.3529 98.4858 C 16.2666 98.5856 12.4913 93.6484 10.0327 89.8057 C 9.9548 89.6831 9.5045 89.6613 9.5397 89.7164 C 12.2282 93.922 16.2068 98.7965 21.6731 98.6882 L 21.6731 98.6882 Z " stroke-width="0.949999988079071"/>
          <path id="ID0.9213130888529122" fill="#010101" d="M 37.7461 92.5635 C 37.8136 92.5208 37.3956 92.3184 37.2749 92.3944 C 29.7842 97.1929 21.5002 104.4129 12.0743 99.0359 C 11.9869 98.9836 11.4805 98.9285 11.6952 99.0492 C 21.4109 104.5924 29.484 97.855 37.7461 92.5635 L 37.7461 92.5635 Z " stroke-width="0.949999988079071"/>
          <path id="ID0.2212864337489009" fill="#010101" d="M 5.6969 65.7555 C 5.6399 65.6282 5.1678 65.5845 5.2058 65.6643 C 7.4003 70.7819 6.7163 76.2159 7.4677 81.5663 C 7.8838 84.5265 8.7398 88.2002 9.9225 90.9495 C 10.8203 93.0281 12.9654 96.7397 11.5527 98.9019 C 11.5138 98.9627 11.9688 99.1594 12.0486 99.0359 C 13.3387 97.0656 11.7522 94.1453 10.9286 92.2348 C 9.5482 89.0343 8.1194 84.7023 7.9275 81.2148 C 7.6454 76.0791 7.7584 70.5653 5.6969 65.7555 L 5.6969 65.7555 Z " stroke-width="0.949999988079071"/>
          <path id="ID0.09911620896309614" fill="#010101" d="M 33.1709 49.7812 C 33.1595 49.634 32.6674 49.577 32.6731 49.6473 C 33.0474 55.1136 31.2481 60.6597 31.8599 66.0452 C 31.877 66.1963 32.3653 66.2409 32.3577 66.1792 C 31.7459 60.7946 33.5443 55.2475 33.1709 49.7812 L 33.1709 49.7812 Z " stroke-width="0.949999988079071"/>
        </g>
      </g>
    </g>
    <g id="Right_Arm">
      <path id="Right_Arm_Color" fill="#D8AD8C" d="M 30.8311 35.2339 C 30.6287 35.745 30.4862 36.8631 30.8662 37.1747 C 31.2111 37.4607 29.7832 37.6668 30.0207 38.082 C 30.3732 38.6966 30.0103 38.4544 30.3836 38.8486 C 30.5261 39.0006 30.8111 39.0006 30.8311 39.1935 C 30.8529 39.4158 31.4638 39.7587 31.5227 39.9772 C 31.6813 40.5814 31.7944 40.761 32.3112 41.14 C 33.0075 41.6549 33.1529 42.4738 33.7571 43.0771 C 34.1067 43.4276 34.6501 43.534 34.936 43.9473 C 35.1631 44.2779 36.7467 44.9182 37.0602 45.1709 C 37.805 45.7722 37.0602 46.3346 37.5561 46.802 C 38.2392 48.6498 38.4691 49.4706 38.3617 51.5169 C 38.2857 52.9666 38.0463 54.7231 38.0463 56.1823 C 38.0463 56.6317 37.9741 57.1694 37.9105 57.6054 C 37.8582 57.975 37.9219 58.203 37.9627 58.5735 C 38.0482 59.3696 37.5191 60.1011 37.0593 60.5913 C 36.608 61.0729 36.0399 61.6258 35.4671 61.9963 C 34.9237 62.344 34.3774 62.6509 33.7305 62.7706 C 33.4996 62.8124 32.6636 62.8418 32.4907 62.9834 C 32.2836 63.1506 32.8527 63.3786 32.9562 63.5885 C 33.2403 64.1576 33.5718 64.739 33.9756 65.2729 C 34.1808 65.5455 34.3841 65.7032 34.728 65.6833 C 35.1137 65.6633 35.1137 65.5056 35.3616 65.2548 C 35.8281 64.7817 36.8379 64.3381 37.3785 63.959 C 37.9418 63.5638 38.4444 63.4935 38.8491 63.0964 C 39.098 62.8523 39.3022 62.7402 39.5872 62.7611 C 39.9587 62.7886 40.3596 62.9207 40.7434 62.9872 C 41.5509 63.1278 42.3479 63.2836 43.1925 63.2427 C 43.5202 63.2247 43.9962 63.0261 44.0104 63.5011 C 44.0161 63.6645 43.7188 64.093 43.5905 64.1984 C 43.1421 64.568 42.3394 64.549 41.7732 64.5746 C 41.4654 64.5898 41.0797 64.5936 40.7833 64.7048 C 40.3976 64.8492 40.2009 65.0572 40.6645 65.1009 C 41.852 65.2149 43.3359 64.5556 44.3106 63.9296 C 44.8711 63.5714 45.2008 63.3662 45.4734 62.7715 C 45.7204 62.2319 46.0007 61.623 46.1061 61.053 C 46.3655 59.6669 45.9969 57.9968 45.728 56.6592 C 45.3395 54.7393 44.7429 53.1233 44.1653 51.2167 C 43.9059 50.3645 43.5573 49.52 43.2352 48.7087 C 42.8552 47.7558 42.9151 47.791 42.5474 46.8429 C 42.3764 46.4049 42.1342 45.8729 41.9888 45.4283 C 41.8482 44.9942 41.1633 43.858 41.017 43.4305 C 40.7215 42.5726 40.9723 41.1058 40.7234 40.2223 C 40.4745 39.3388 40.2931 38.5997 39.8124 37.8036 C 39.2595 36.8869 39.022 35.4191 38.148 34.8396 C 37.2987 34.2801 36.3667 32.5929 35.5222 32.0257 C 34.8743 31.5925 32.0338 28.6855 31.1351 28.5592 C 30.6031 28.9743 30.4701 29.0921 30.5622 29.8806 C 30.6031 30.2397 32.3397 31.8196 32.087 32.0267 C 31.8666 32.2081 30.5138 33.7234 30.4007 33.9941 " stroke-width="0.949999988079071"/>
      <g id="Right_Arm_Lines">
        <g id="ID0.648610710632056">
          <path id="ID0.29767346335574985" fill="#010101" d="M 31.2443 28.6874 C 31.4714 28.6209 31.1949 28.3815 31.0296 28.43 C 29.2256 28.962 30.9308 31.0406 31.783 31.6809 C 31.935 31.7949 32.2371 31.6562 32.0338 31.5042 C 31.3374 30.9817 29.7139 29.1387 31.2443 28.6874 L 31.2443 28.6874 Z " stroke-width="0.949999988079071"/>
          <path id="ID0.22740556625649333" fill="#010101" d="M 34.7052 34.8035 C 34.8144 34.9384 35.1697 34.8729 35.0187 34.6886 C 34.1038 33.5742 32.9372 32.6898 32.0651 31.5355 C 31.9606 31.3949 31.6072 31.4595 31.7516 31.6505 C 32.6218 32.8047 33.7894 33.6901 34.7052 34.8035 L 34.7052 34.8035 Z " stroke-width="0.949999988079071"/>
          <path id="ID0.7338390341028571" fill="#010101" d="M 30.6791 34.9185 C 30.6496 35.1009 31.0239 35.1968 31.0534 35.0182 C 31.1902 34.1699 32.125 33.1249 32.9505 32.8997 C 33.1766 32.837 32.9002 32.5976 32.7349 32.6423 C 31.8371 32.8874 30.8273 33.997 30.6791 34.9185 L 30.6791 34.9185 Z " stroke-width="0.949999988079071"/>
          <path id="ID0.6978229340165854" fill="#010101" d="M 34.1523 36.6579 C 34.2748 36.7786 34.6349 36.7073 34.4677 36.543 C 33.5718 35.6595 32.3625 35.1788 31.5303 34.2259 C 31.4153 34.0948 31.0591 34.1623 31.2158 34.3409 C 32.0518 35.2956 33.2583 35.7725 34.1523 36.6579 L 34.1523 36.6579 Z " stroke-width="0.949999988079071"/>
          <path id="ID0.8898559394292533" fill="#010101" d="M 30.6829 34.985 C 30.8795 35.0629 31.0895 34.8529 30.852 34.757 C 29.8108 34.3361 31.8172 32.3848 32.2342 32.135 C 32.4176 32.0257 32.0917 31.8291 31.9464 31.9165 C 31.2985 32.3012 29.2598 34.4102 30.6829 34.985 L 30.6829 34.985 Z " stroke-width="0.949999988079071"/>
          <path id="ID0.2429049531929195" fill="#010101" d="M 36.9339 45.2583 C 37.084 45.3761 37.3851 45.2393 37.1837 45.0797 C 36.5672 44.5961 35.9506 44.3453 35.2657 43.9824 C 34.0316 43.3288 33.208 42.3399 32.5097 41.1514 C 31.991 40.2698 29.4374 38.2083 30.7627 37.4445 C 30.946 37.3391 30.6211 37.1415 30.4748 37.226 C 28.6812 38.2577 31.1322 39.6067 31.6756 40.4351 C 32.3767 41.5039 32.922 42.6467 33.9499 43.4609 C 34.8781 44.2 35.9991 44.5258 36.9339 45.2583 L 36.9339 45.2583 Z " stroke-width="0.949999988079071"/>
          <path id="ID0.5656414902769029" fill="#010101" d="M 37.2379 45.1481 C 37.1837 44.9856 36.8094 44.9866 36.8797 45.1946 C 37.9741 48.4132 38.3864 51.5444 37.9969 54.9369 C 37.7119 57.4135 37.5257 59.6527 38.2401 62.0695 C 38.2895 62.2348 38.661 62.2348 38.5983 62.0229 C 37.5647 58.5184 38.7341 55.2105 38.5555 51.6746 C 38.4444 49.4345 37.9599 47.2675 37.2379 45.1481 L 37.2379 45.1481 Z " stroke-width="0.949999988079071"/>
          <path id="ID0.821934178005904" fill="#010101" d="M 40.9248 42.2677 C 40.8783 42.1005 40.4945 42.0587 40.5458 42.2411 C 42.2596 48.475 48.313 56.7105 45.0678 63.2399 C 44.9775 63.4204 45.3319 63.56 45.4079 63.4071 C 48.6711 56.8426 42.6519 48.551 40.9248 42.2677 L 40.9248 42.2677 Z " stroke-width="0.949999988079071"/>
          <path id="ID0.5435489602386951" fill="#010101" d="M 34.3622 65.7688 C 34.4791 65.898 34.8372 65.8296 34.6776 65.6529 C 33.9319 64.8283 33.1947 63.9989 32.7311 62.9758 C 32.6608 62.8209 32.2817 62.8247 32.3729 63.0233 C 32.8479 64.0702 33.5994 64.9223 34.3622 65.7688 L 34.3622 65.7688 Z " stroke-width="0.949999988079071"/>
          <path id="ID0.9326082416810095" fill="#010101" d="M 31.2871 28.3939 C 31.1303 28.2951 30.8235 28.4347 31.0372 28.5715 C 33.474 30.1181 35.6865 32.172 37.5466 34.3713 C 38.4814 35.478 39.4067 36.6342 39.9026 38.0193 C 40.4907 39.6628 40.3738 41.14 40.6313 42.7911 C 40.6579 42.9631 41.0407 43.0106 41.0103 42.8168 C 40.7443 41.1068 40.9951 39.6191 40.2608 37.9718 C 39.6385 36.5772 38.8766 35.3973 37.8601 34.2554 C 35.9145 32.0694 33.7666 29.968 31.2871 28.3939 L 31.2871 28.3939 Z " stroke-width="0.949999988079071"/>
          <path id="ID0.1306577129289508" fill="#010101" d="M 30.6867 37.1975 C 30.7722 37.3429 31.1522 37.3353 31.0458 37.151 C 30.7161 36.5905 30.9166 35.7222 31.0534 35.1265 C 31.0942 34.947 30.7199 34.8482 30.6791 35.0268 C 30.5309 35.668 30.3333 36.5962 30.6867 37.1975 L 30.6867 37.1975 Z " stroke-width="0.949999988079071"/>
          <path id="ID0.743031611200422" fill="#010101" d="M 30.9147 37.0968 C 30.7237 36.9999 30.5195 37.2099 30.7475 37.3258 C 31.5721 37.7419 32.3216 38.215 33.0265 38.8154 C 33.1719 38.9389 33.4702 38.803 33.2764 38.6387 C 32.5477 38.0164 31.7687 37.53 30.9147 37.0968 L 30.9147 37.0968 Z " stroke-width="0.949999988079071"/>
        </g>
      </g>
    </g>
    <g id="Left_Arm">
      <path id="Left_Arm_Color_2_" fill="#D8AD8C" d="M 6.2223 65.7327 C 6.1833 66.0319 6.3581 66.2989 6.4873 66.5478 C 6.6716 66.9059 6.7191 67.171 6.7381 67.5833 C 6.7657 68.2473 7.2483 68.9532 7.443 69.5811 C 7.6805 70.3525 7.8088 70.99 8.1147 71.7471 C 8.2429 72.0692 8.5308 72.396 8.6733 72.7019 C 8.8842 73.1436 8.9811 73.5654 9.2224 73.9939 C 9.4285 74.3577 9.6318 74.7577 9.8665 75.113 C 10.0774 75.4265 10.3576 75.6545 10.5752 75.968 C 11.0663 76.67 11.4843 77.5032 12.0391 78.1558 C 12.4932 78.6897 13.0879 79.2911 13.6627 79.7138 C 14.4046 80.2601 14.9613 80.2249 15.8591 80.0492 C 17.779 79.6739 19.5327 78.8816 21.3216 78.0817 C 24.6675 76.5826 27.5944 74.4461 30.604 72.4017 C 31.3868 71.8706 32.22 71.3928 33.0332 70.9083 C 33.7257 70.496 34.2891 70.097 35.0899 70.1673 C 35.9288 70.2423 36.6736 70.4779 37.5001 70.6831 C 38.4824 70.9244 39.4675 70.97 40.4669 71.1239 C 41.8036 71.331 44.4845 71.18 45.2397 69.7939 C 45.6853 68.9779 46.0434 68.4098 46.5327 67.5956 C 46.8186 67.1197 47.3791 66.2352 47.4656 65.6823 C 47.5397 65.2216 47.3164 65.3365 47.3041 64.8739 C 47.2889 64.2469 47.1017 63.9856 46.7673 63.3976 C 46.5773 63.0613 46.5849 62.5359 46.1555 62.4751 C 45.4145 62.3706 45.2483 63.4365 44.8512 63.789 C 44.5947 64.017 44.2204 64.0968 43.961 64.3267 C 43.8033 64.4673 43.6931 64.2136 43.5088 64.3067 C 43.3046 64.4093 43.0167 64.7675 42.7868 64.7874 C 42.0952 64.8568 41.2982 65.2263 40.598 65.1237 C 40.7918 64.1737 41.9252 64.6772 42.5712 64.7029 C 42.9464 64.7162 43.258 64.5879 43.5079 64.3067 C 43.6827 64.1072 44.1178 63.5762 43.9905 63.2826 C 43.8765 63.0223 43.4509 63.2142 43.1212 63.1962 C 42.6766 63.1734 42.2349 63.0717 41.7969 63.0347 C 41.0654 62.9701 40.2123 62.7345 39.4789 62.7763 C 39.1284 62.7962 38.9507 63.0128 38.6524 63.2722 C 38.0957 63.7586 37.3595 63.8232 36.7657 64.2402 C 36.2432 64.605 35.7321 65.0097 35.222 65.4049 C 34.6358 65.8581 33.8378 65.8315 33.1054 65.9835 C 32.1782 66.1773 31.2234 66.3312 30.2753 66.4224 C 28.9729 66.5497 27.8015 66.9363 26.5219 67.19 C 25.437 67.4028 24.3492 67.6279 23.2985 67.9614 C 22.3495 68.2616 21.2988 68.368 20.3307 68.7033 C 19.813 68.8819 18.9257 69.3028 18.4146 69.4861 C 17.9529 69.6524 18.1011 69.3541 17.8427 68.8724 C 17.6479 68.5143 17.7515 68.1343 17.6251 67.7571 C 17.4893 67.3534 17.3335 67.0057 17.2261 66.5934 C 17.1074 66.1412 16.9183 65.9445 16.6808 65.5446 C 16.5383 65.308 16.2248 64.7941 16.2296 64.5357 C 15.9313 64.7675 15.6007 64.9413 15.2501 65.0905 C 14.5481 65.3859 13.8878 65.7013 13.1734 65.8562 C 12.4134 66.0186 11.6895 66.1336 10.901 66.1678 C 10.1287 66.202 9.3449 66.1573 8.5859 66.1222 C 7.7803 66.0851 7.0269 65.7032 6.2109 65.7802 " stroke-width="0.949999988079071"/>
      <g id="Left_Arm_Lines_2_">
        <g id="ID0.732623090967536">
          <path id="ID0.362706299405545" fill="#010101" d="M 39.7544 62.705 C 39.8599 62.6233 39.4105 62.4286 39.288 62.5236 C 37.9 63.5923 36.1843 64.206 34.9645 65.4923 C 34.86 65.6016 35.3293 65.7802 35.431 65.6738 C 36.6498 64.3875 38.3665 63.7738 39.7544 62.705 L 39.7544 62.705 Z " stroke-width="0.949999988079071"/>
          <path id="ID0.25667169596999884" fill="#010101" d="M 40.2399 65.0002 C 40.18 65.0895 40.6455 65.2748 40.7377 65.1342 C 40.9486 64.815 41.2421 64.6848 41.624 64.7779 C 41.9185 64.8501 41.9746 64.6535 41.6772 64.5794 C 41.1091 64.4407 40.5838 64.4768 40.2399 65.0002 L 40.2399 65.0002 Z " stroke-width="0.949999988079071"/>
          <path id="ID0.878867058083415" fill="#010101" d="M 47.534 66.4224 C 47.5805 66.2932 47.0875 66.1431 47.0362 66.2884 C 46.6248 67.4066 46.0368 68.4459 45.3205 69.3959 C 45.2226 69.5241 45.7024 69.6894 45.7869 69.5764 C 46.5137 68.6112 47.1179 67.5576 47.534 66.4224 L 47.534 66.4224 Z " stroke-width="0.949999988079071"/>
          <path id="ID0.5171960722655058" fill="#010101" d="M 13.9724 80.2449 C 14.0712 80.3323 14.5661 80.3798 14.3619 80.2002 C 9.9995 76.3917 8.1479 71.2588 6.4702 65.8837 C 6.4265 65.7393 5.9325 65.67 5.9753 65.8077 C 7.6786 71.2664 9.5596 76.3917 13.9724 80.2449 L 13.9724 80.2449 Z " stroke-width="0.949999988079071"/>
          <path id="ID0.4331868104636669" fill="#010101" d="M 17.8522 69.6096 C 17.9092 69.7521 18.3937 69.8091 18.3471 69.6856 C 17.6593 67.9804 17.2679 66.1744 16.6048 64.4587 C 16.5497 64.3153 16.0624 64.2564 16.1099 64.3827 C 16.772 66.0975 17.1634 67.9044 17.8522 69.6096 L 17.8522 69.6096 Z " stroke-width="0.949999988079071"/>
          <path id="ID0.024119833949953318" fill="#010101" d="M 35.6257 65.6937 C 35.8908 65.65 35.4395 65.4382 35.3103 65.4591 C 30.1632 66.3065 25 66.9392 20.0524 68.6853 C 17.5377 69.5745 14.5329 70.6613 13.8384 73.5208 C 13.8014 73.6661 14.302 73.7953 14.3343 73.6557 C 15.139 70.3573 19.0729 69.3189 21.9381 68.4278 C 26.4098 67.037 31.0201 66.4518 35.6257 65.6937 L 35.6257 65.6937 Z " stroke-width="0.949999988079071"/>
          <path id="ID0.6288441205397248" fill="#010101" d="M 14.0113 80.1052 C 13.7491 80.1176 14.1985 80.3456 14.3248 80.3399 C 22.7827 79.9532 28.135 72.566 35.6571 70.0761 C 35.8347 70.0172 35.3825 69.8186 35.2533 69.8604 C 27.7607 72.3428 22.4274 79.7195 14.0113 80.1052 L 14.0113 80.1052 Z " stroke-width="0.949999988079071"/>
          <path id="ID0.45783697767183185" fill="#010101" d="M 41.6763 64.5594 C 41.3419 64.5452 41.7266 64.7903 41.8824 64.7969 C 42.9027 64.8406 44.5282 64.5053 44.2869 63.1677 C 44.266 63.0546 44.0218 63.0147 43.9363 63.0109 C 42.4762 62.9482 40.9638 62.9853 39.5483 62.5787 C 39.2538 62.4951 39.2025 62.6927 39.4941 62.7772 C 40.997 63.2076 42.5911 63.1819 44.1406 63.2484 C 44.0237 63.1962 43.9069 63.1449 43.791 63.0917 C 44.0038 64.2744 42.5835 64.5965 41.6763 64.5594 L 41.6763 64.5594 Z " stroke-width="0.949999988079071"/>
          <path id="ID0.21428501699119806" fill="#010101" d="M 40.257 65.0116 C 39.9216 65.0116 40.3054 65.2491 40.4612 65.2472 C 42.3774 65.2434 44.0057 64.7466 45.4639 63.4793 C 45.5694 63.3881 45.1124 63.1981 44.9984 63.2978 C 43.6133 64.5015 42.0895 65.0059 40.257 65.0116 L 40.257 65.0116 Z " stroke-width="0.949999988079071"/>
          <path id="ID0.6983160772360861" fill="#010101" d="M 42.3517 66.8632 C 42.1788 66.904 42.6244 67.1083 42.7545 67.0788 C 44.2394 66.7197 45.558 65.4695 46.4481 64.264 C 47.0723 63.4156 47.2765 62.5701 46.0653 62.2899 C 45.7698 62.2224 45.7147 62.4191 46.0121 62.4884 C 47.2414 62.7725 45.8439 64.2459 45.4639 64.6981 C 44.6783 65.6329 43.5535 66.5715 42.3517 66.8632 L 42.3517 66.8632 Z " stroke-width="0.949999988079071"/>
          <path id="ID0.4162214584648609" fill="#010101" d="M 43.8679 67.8787 C 43.7672 67.9471 44.2052 68.1466 44.3353 68.0592 C 45.386 67.3572 48.9162 64.6801 46.9421 63.3662 C 46.8367 63.2969 46.3322 63.2655 46.5526 63.4109 C 48.3225 64.5898 44.8141 67.247 43.8679 67.8787 L 43.8679 67.8787 Z " stroke-width="0.949999988079071"/>
          <path id="ID0.3435832681134343" fill="#010101" d="M 44.836 68.652 C 44.7324 68.7261 45.1761 68.9247 45.3024 68.8335 C 45.975 68.3575 46.5469 67.6317 47.0238 66.9705 C 47.249 66.657 47.5121 66.3207 47.6423 65.954 C 47.7876 65.5446 47.5463 65.1342 47.5444 64.7114 C 47.5444 64.5442 47.0457 64.4625 47.0466 64.5765 C 47.0485 64.9622 47.3022 65.4657 47.1445 65.8201 C 46.964 66.2267 46.7103 66.5972 46.4377 66.9487 C 45.9712 67.55 45.4649 68.2084 44.836 68.652 L 44.836 68.652 Z " stroke-width="0.949999988079071"/>
          <path id="ID0.42599560786038637" fill="#010101" d="M 34.9332 69.9991 C 34.6387 69.9326 34.5817 70.1293 34.88 70.1977 C 38.6448 71.0679 42.8638 72.4891 45.9475 69.4149 C 46.0529 69.3104 45.5865 69.1289 45.482 69.2334 C 42.556 72.1509 38.4976 70.8247 34.9332 69.9991 L 34.9332 69.9991 Z " stroke-width="0.949999988079071"/>
        </g>
      </g>
    </g>
    <g id="Mouth">
      <path id="Mouth_1_" fill="#F5F6F6" d="M 29.7471 28.6409 C 29.8906 28.9211 29.6312 29.0997 29.5752 29.3448 C 29.5144 29.6089 29.6654 29.9253 29.6179 30.1656 C 29.5163 30.6767 28.7715 30.748 28.3468 30.8373 C 27.7863 30.9551 27.3075 31.1375 26.7366 31.0738 C 26.4449 31.0415 25.4731 30.8335 25.3657 30.577 C 26.045 30.3129 26.7575 29.9994 27.4158 29.5994 C 27.7958 29.3667 28.1806 29.1596 28.6062 28.999 C 28.8969 28.8888 29.4479 28.6637 29.7405 28.7311 " stroke-width="0.949999988079071"/>
      <g id="Mouth_Lines">
        <g id="ID0.2163526345975697">
          <path id="ID0.3192782602272928" fill="#010101" d="M 29.844 28.6162 C 30.13 28.5573 29.7053 28.3065 29.541 28.3407 C 28.6765 28.5164 27.9212 28.8812 27.2059 29.3933 C 26.5808 29.8398 25.9785 30.3499 25.19 30.444 C 24.905 30.4772 25.3315 30.7404 25.493 30.7204 C 26.1276 30.6454 26.6435 30.3281 27.1536 29.9604 C 28.001 29.3496 28.8038 28.829 29.844 28.6162 L 29.844 28.6162 Z " stroke-width="0.949999988079071"/>
          <path id="ID0.5877434951253235" fill="#010101" d="M 25.037 30.5532 C 25.0408 30.7242 25.5415 30.8259 25.5358 30.615 C 25.5462 30.5789 25.5557 30.5437 25.5671 30.5076 C 25.4009 30.463 25.2346 30.4183 25.0693 30.3737 C 25.0427 30.5095 25.018 30.6444 24.9933 30.7803 C 25.1586 30.8249 25.3249 30.8696 25.4911 30.9142 C 25.493 30.7432 25.5358 30.5998 25.5804 30.4364 C 25.6317 30.2568 25.133 30.1229 25.0836 30.3024 C 25.038 30.4658 24.9952 30.6093 24.9933 30.7803 C 24.9905 30.9617 25.4541 31.1004 25.4911 30.9142 C 25.5168 30.7784 25.5415 30.6435 25.5671 30.5076 C 25.6023 30.3195 25.1444 30.2046 25.0693 30.3737 C 25.0323 30.4544 25.0351 30.4668 25.037 30.5532 L 25.037 30.5532 Z " stroke-width="0.949999988079071"/>
          <path id="ID0.07411610335111618" fill="#010101" d="M 29.9428 28.5449 C 30.0093 28.3825 29.5172 28.2324 29.446 28.411 C 29.2284 28.9401 29.3424 29.285 29.3814 29.836 C 29.4089 30.2407 28.5074 30.5171 28.2214 30.6292 C 27.1213 31.0634 26.1732 30.6796 25.0598 30.6454 C 24.7235 30.6349 25.0617 30.9294 25.2508 30.9351 C 26.0915 30.9617 26.9522 31.3351 27.7949 31.1375 C 28.5273 30.9665 29.1733 30.6055 29.8488 30.2882 C 29.8896 30.2692 29.9039 30.2388 29.901 30.196 C 29.8583 29.6165 29.711 29.1073 29.9428 28.5449 L 29.9428 28.5449 Z " stroke-width="0.949999988079071"/>
        </g>
      </g>
    </g>
    <g id="Eyes">
      <path id="Eye_Whites_2_" fill="#F5F6F6" d="M 22.454 21.7078 C 23.1665 22.2664 21.2693 23.3655 20.8447 23.4919 C 19.9336 23.7655 18.6397 23.9165 17.7657 23.4824 C 17.2081 23.2059 16.6637 22.7205 16.7863 21.9994 C 16.9069 21.2936 18.0089 20.9886 18.6027 20.8319 C 19.9555 20.4737 21.371 20.7046 22.4236 21.5985 M 27.146 20.1716 C 26.539 20.1403 26.7347 21.2689 27.1147 21.399 C 27.4139 21.4997 28.1017 21.3829 28.419 21.2945 C 29.1391 21.0941 29.749 20.4443 30.0834 19.7574 C 30.3855 19.1333 30.6639 18.5414 29.8497 18.245 C 29.1819 18.0037 28.6157 18.2175 28.1055 18.6364 C 27.7863 18.8977 26.8145 19.7318 26.938 20.1764 " stroke-width="0.949999988079071"/>
      <path id="ID0.860699977260083" fill="#33512E" d="M 27.7455 18.9822 C 27.9649 19.5959 28.1996 20.6485 29.1135 20.146 C 29.8469 19.746 29.5942 18.9205 29.4108 18.2631 C 28.856 18.0721 28.0067 18.4892 27.6951 18.9518 " stroke-width="0.949999988079071"/>
      <path id="ID0.5291979033499956" fill="#33512E" d="M 19.5185 20.7654 C 19.736 20.697 19.8785 20.7758 20.1122 20.7863 C 20.5692 20.8053 21.6541 20.8623 21.941 21.2508 C 22.3381 21.7923 21.8099 22.387 21.3159 22.5884 C 20.8589 22.7746 20.2528 22.5742 19.6391 22.3823 C 19.262 22.2654 18.7205 20.7986 19.2952 20.9601 " stroke-width="0.949999988079071"/>
      <g id="ID0.3189289798028767">
        <g id="ID0.03485636645928025">
          <path id="ID0.3815922709181905" fill="#010101" d="M 26.9864 21.3192 C 26.7622 21.229 26.4649 21.3933 26.7898 21.5235 C 27.6961 21.8864 28.7325 21.4408 29.4583 20.8794 C 30.0701 20.4053 31.0952 19.3147 30.3865 18.5034 C 28.8484 16.7402 26.0212 19.5969 26.6406 21.3895 C 26.6986 21.5548 27.1973 21.6213 27.1384 21.4522 C 26.8515 20.621 27.2714 19.7299 27.8528 19.1285 C 28.2832 18.683 29.6958 17.619 30.0492 18.7305 C 30.2706 19.4278 29.7025 20.107 29.198 20.5231 C 28.6736 20.9525 27.7027 21.6061 26.9864 21.3192 L 26.9864 21.3192 Z " stroke-width="0.949999988079071"/>
          <path id="ID0.7067580078728497" fill="#010101" d="M 22.8729 21.9823 C 22.9195 21.8085 22.4207 21.6755 22.377 21.8484 C 21.9638 23.4197 17.4123 24.3526 17.2138 22.4108 C 16.9972 20.2828 21.7586 20.3654 22.5376 21.7515 C 22.6155 21.893 23.1152 21.9481 23.0002 21.742 C 22.0873 20.1203 16.1089 19.9189 16.7169 22.3481 C 17.2812 24.6081 22.3466 24.002 22.8729 21.9823 L 22.8729 21.9823 Z " stroke-width="0.949999988079071"/>
        </g>
      </g>
      <g id="ID0.40079038217663765">
        <g id="ID0.8423438775353134">
          <path id="ID0.526274039875716" fill="#010101" d="M 19.3779 20.9297 C 19.4159 20.7768 19.0406 20.6789 19.0045 20.83 C 18.4307 23.3085 22.6725 23.5071 22.1129 21.1511 C 22.0787 21.0067 21.6978 20.9516 21.7367 21.1121 C 21.9277 21.9187 21.4736 22.6226 20.6015 22.6103 C 19.6524 22.596 19.1755 21.8104 19.3779 20.9297 L 19.3779 20.9297 Z " stroke-width="0.949999988079071"/>
          <path id="ID0.8224131688475609" fill="#010101" d="M 29.4716 18.2051 C 29.3985 18.0854 29.0185 18.0655 29.1201 18.2308 C 29.3909 18.6687 29.6274 19.4506 29.1895 19.8733 C 28.8693 20.1811 28.3839 20.2657 28.1625 19.8154 C 28.0428 19.5731 27.9649 19.3166 27.8813 19.0601 C 27.8348 18.9186 27.4557 18.8711 27.5051 19.0212 C 27.7654 19.8163 28.1084 20.6419 29.103 20.3075 C 30.0217 19.9987 29.8773 18.8644 29.4716 18.2051 L 29.4716 18.2051 Z " stroke-width="0.949999988079071"/>
        </g>
      </g>
    </g>
    <g id="Hair">
      <path id="Hair_1_" fill="#A15927" d="M 30.8387 19.9398 C 30.9907 19.7365 30.8605 18.9034 30.7275 18.4721 C 30.5584 17.8935 30.7817 17.7634 30.7627 17.1668 C 30.7475 16.5635 30.3152 15.5964 30.3466 14.9694 C 30.3922 14.0422 29.7794 13.9387 29.3415 13.9387 C 29.2968 13.9358 28.5473 14.3063 28.9406 13.8665 C 28.2632 14.0508 27.6087 14.161 27.2505 14.2275 C 26.6026 14.351 25.4503 14.5989 24.8166 14.7205 C 23.6557 14.9438 22.5309 15.0891 21.3434 15.1613 C 20.1303 15.2345 19.5897 15.1281 18.4041 14.7481 C 17.2109 14.3652 16.374 13.7601 15.4572 13.0485 C 15.6814 13.9026 16.0082 14.4631 16.5184 15.0806 C 16.81 15.4349 16.962 15.756 17.3924 15.9546 C 17.7657 16.1256 18.7281 16.5027 18.9808 16.8181 C 17.8636 17.0138 15.956 16.5759 14.9518 15.9422 C 13.2893 14.8972 12.9131 13.3354 12.7155 12.4434 C 12.8124 13.2395 12.8286 14.5676 13.0119 15.3694 C 13.1915 16.1465 13.5857 17.1829 13.865 17.9667 C 14.4436 19.5931 15.3347 22.1419 14.9784 23.4738 C 14.683 22.5618 13.7301 20.9041 13.1193 20.0966 C 12.9986 21.114 14.1396 21.3515 14.4626 24.0229 C 14.6013 25.1886 14.7837 25.067 14.72 26.0578 C 14.2194 24.915 14.2669 25.1021 13.5325 24.459 C 13.1801 24.3203 12.6718 23.5888 12.8628 24.098 C 12.9502 23.6116 12.8105 23.9859 12.7887 23.9659 C 12.4552 23.6942 12.2481 23.2468 11.8862 22.9105 C 11.5176 22.5694 10.6635 21.741 10.0812 21.5596 C 9.7781 21.4646 8.6134 21.2043 8.0197 21.5273 C 5.6038 22.8421 7.3642 25.3653 8.5374 26.5879 C 9.2832 27.3679 10.8621 28.3122 11.5879 28.0699 C 12.2386 27.8543 12.5255 27.1921 12.8286 27.3394 C 13.0794 27.4619 12.9768 27.974 13.1183 28.2561 C 13.942 29.8911 14.4692 31.2106 14.6678 33.2161 C 14.3761 33.4735 12.878 35.2842 12.5502 35.4419 C 12.3631 34.8871 12.7317 33.5885 12.7782 33.0166 C 12.8286 32.3706 12.4932 32.8104 12.2795 32.1701 C 11.7342 33.3206 10.8934 34.8653 9.647 35.3327 C 9.6774 34.9441 10.1828 33.503 10.3339 33.1458 C 10.5657 32.5929 10.5514 32.0675 10.4726 31.5308 C 10.3253 30.5428 9.8893 30.6378 9.4428 29.6507 C 9.6005 30.6226 9.9387 32.8722 8.4519 33.6208 C 8.6381 32.2841 7.5143 29.6118 6.7381 28.6561 C 6.0275 27.783 5.7805 26.8872 5.1165 25.9619 C 4.537 25.1487 4.1085 24.2025 3.3761 23.3152 C 2.6227 22.4013 2.3035 21.7344 1.7487 20.6457 C 1.4808 20.1146 1.2025 19.5228 0.9564 18.9841 C 0.6942 18.4008 0.6515 17.8536 0.5223 17.2133 C 0.318 16.1731 0.1452 15.7228 0.5384 14.7471 C 1.9017 11.3765 2.1591 11.405 2.3767 11.2635 C 4.1807 10.0779 2.1164 9.9097 4.7336 6.1648 C 5.277 5.3849 6.645 4.0245 7.6492 3.312 C 8.736 2.5425 10.2778 1.7027 11.7399 1.2572 C 13.0119 0.8686 14.1377 0.88 15.4411 0.6967 C 16.7587 0.5124 16.3407 0.6796 17.9605 0.7442 C 17.951 0.7413 19.5641 1.1764 19.6657 0.9484 C 20.7981 0.9494 21.3881 1.3503 22.4454 1.6048 C 22.4825 1.6314 23.5921 2.0143 24.03 2.2185 C 25.3068 2.6071 24.4062 2.6755 25.607 3.2607 C 26.4677 3.6806 28.6689 4.9032 29.4574 5.3269 C 30.547 6.0356 30.984 6.3292 31.7212 7.0825 C 32.4803 7.8587 33.4521 9.3407 33.7466 10.3287 C 32.7947 9.8356 31.7953 8.8343 30.1917 9.4594 C 31.0743 10.4826 31.7146 10.3695 32.7035 10.9253 C 33.4616 11.3499 35.0519 12.2192 35.392 13.0922 C 34.7166 13.324 32.9524 13.1806 32.2361 13.3183 C 31.5797 13.4456 31.3754 13.5064 30.7731 13.6318 C 31.3004 14.6559 31.9074 14.7129 32.542 15.6449 C 32.9125 16.1845 33.2099 16.5711 33.4683 17.2219 C 33.7618 17.961 34.3945 18.6611 34.7878 19.2463 C 34.5465 19.0953 33.8416 18.815 33.5785 18.6754 C 33.1899 18.4683 33.0512 18.321 32.6484 18.1177 C 32.9762 18.7514 33.0465 19.044 33.3875 19.6919 C 33.7096 20.3065 33.9908 21.8094 34.2482 22.4602 C 34.0193 22.2151 32.7026 20.8594 32.238 20.9164 C 31.6718 20.9858 31.2937 20.4766 30.8387 19.9398 " stroke-width="0.949999988079071"/>
      <g id="Hair_Lines">
        <g id="ID0.8998978366144001">
          <path id="ID0.6456047515384853" fill="#010101" d="M 12.8533 12.089 C 12.8314 11.9741 12.4562 11.9095 12.4856 12.0377 C 13.2133 15.8615 15.8144 16.8637 19.3902 17.0509 C 19.5574 17.0594 19.4919 16.9321 19.3845 16.8903 C 17.6907 16.365 16.5953 15.3257 16.1004 13.7734 C 16.1118 13.78 16.1222 13.7876 16.1336 13.7952 C 17.457 14.5524 16.8575 14.275 18.3063 14.7946 C 18.881 15.0008 20.2072 15.1841 20.82 15.1813 C 25.7723 15.1575 30.509 13.4162 35.4709 13.1882 C 35.5222 13.1863 35.621 13.1663 35.5678 13.0941 C 35.2533 12.6761 35.0823 12.3645 34.633 12.0938 C 34.1285 11.7727 33.6089 11.4772 33.074 11.2084 C 31.5065 10.6355 31.7478 10.3933 33.796 10.4816 C 33.8264 10.4987 34.1475 10.5785 34.0943 10.4626 C 32.0946 6.1278 27.6923 3.4402 23.0962 2.5463 C 22.8378 2.4959 22.9879 2.6973 23.1551 2.7296 C 25.3581 3.1581 28.8332 4.5945 30.6069 6.2199 C 26.2986 2.2717 36.0779 10.9804 32.7919 9.6637 C 31.4695 9.1345 31.4324 9.2485 30.0112 9.2409 C 29.9276 9.24 29.8573 9.2884 29.939 9.3587 C 31.2956 10.5339 36.2499 12.6657 32.2751 13.2072 C 27.3132 13.8836 19.9355 16.972 15.5513 12.9535 C 15.5123 12.9165 15.1618 12.8319 15.2159 12.9488 C 15.9199 14.4802 16.7188 15.5831 18.0982 16.5635 C 14.7295 14.1676 13.5715 15.8653 12.8533 12.089 L 12.8533 12.089 Z " stroke-width="0.949999988079071"/>
          <path id="ID0.8164167273789644" fill="#010101" d="M 8.28 33.6949 C 8.1945 33.7842 8.5507 33.92 8.6324 33.8336 C 9.9833 32.4181 10.0517 30.8135 9.2414 29.0836 C 9.1226 29.0741 9.002 29.0646 8.8832 29.0551 C 10.6493 30.918 10.6493 34.0967 8.7683 35.8818 C 8.6771 35.9654 9.0276 36.0965 9.1169 36.0205 C 10.5381 34.7988 11.9479 33.769 12.5217 31.907 C 12.3954 31.8813 12.2709 31.8557 12.1465 31.83 C 12.707 32.8912 12.6424 34.6515 12.0135 35.6794 C 11.9536 35.7792 12.308 35.8485 12.3754 35.7991 C 13.295 35.1313 14.3229 34.1414 14.9167 33.1695 C 14.9651 33.0888 14.6108 32.9558 14.5424 33.0698 C 13.9581 34.0236 12.9283 35.0059 12.0258 35.6604 C 12.1465 35.7003 12.2671 35.7402 12.3878 35.7801 C 13.0091 34.7655 13.0784 32.9415 12.516 31.8842 C 12.4752 31.8072 12.1835 31.6761 12.1427 31.8072 C 11.5717 33.6559 10.1667 34.6762 8.7626 35.8818 C 8.8775 35.9274 8.9915 35.9739 9.1084 36.0205 C 11.0302 34.1993 11.0217 30.9579 9.2195 29.0589 C 9.1749 29.0104 8.8034 28.9097 8.8614 29.0304 C 9.6584 30.7242 9.6138 32.2955 8.28 33.6949 L 8.28 33.6949 Z " stroke-width="0.949999988079071"/>
          <path id="ID0.46109370747581124" fill="#010101" d="M 12.8571 12.2201 C 12.8609 12.0881 12.4847 12.0187 12.4809 12.1204 C 12.3897 14.7139 13.4233 16.9426 14.1823 19.3651 C 14.3837 20.0158 14.607 20.6742 14.72 21.3487 C 14.7875 21.7686 15.4696 23.6866 14.6364 22.0916 C 14.169 21.1976 13.5173 20.3901 12.9131 19.5883 C 12.8485 19.5019 12.4752 19.4601 12.5683 19.5845 C 13.4831 20.7948 14.3068 21.9956 14.9119 23.3969 C 14.948 23.4738 15.2881 23.5916 15.2872 23.4738 C 15.2121 19.5446 12.7184 16.1712 12.8571 12.2201 L 12.8571 12.2201 Z " stroke-width="0.949999988079071"/>
          <path id="ID0.3620091271586716" fill="#010101" d="M 30.9441 13.6328 C 30.8719 13.553 30.4995 13.5197 30.5974 13.6261 C 31.8238 14.9647 32.6408 16.3412 33.5975 17.8707 C 33.9338 18.4084 34.3565 18.8435 34.7128 19.3575 C 35.1023 19.5646 35.0006 19.4753 34.405 19.0905 C 33.8834 18.7153 33.3115 18.398 32.7586 18.0693 C 32.7263 18.0512 32.4109 17.9695 32.4594 18.0883 C 32.9106 19.1675 33.378 20.241 33.797 21.3316 C 33.968 21.7629 34.1314 22.1961 34.2872 22.6321 C 34.4297 22.7148 34.5703 22.7965 34.7099 22.8782 C 34.6235 22.7195 34.519 22.5723 34.3983 22.4355 C 33.5614 21.5767 32.7729 21.0086 31.6462 20.5925 C 31.4866 20.5336 31.2576 20.6314 31.5046 20.7226 C 32.7653 21.1881 34.0136 21.9633 34.5142 23.2857 C 34.557 23.3969 34.9265 23.452 34.8876 23.3399 C 34.4316 22.0213 33.9176 20.7274 33.3771 19.4401 C 33.1206 18.8312 32.6532 18.1871 33.607 18.8074 C 34.1371 19.1238 34.6311 19.4857 35.0918 19.8933 C 35.1469 19.9379 35.5098 20.0139 35.412 19.8733 C 33.948 17.7634 32.6902 15.5404 30.9441 13.6328 L 30.9441 13.6328 Z " stroke-width="0.949999988079071"/>
          <path id="ID0.6538908984512091" fill="#010101" d="M 9.2015 2.1064 C 9.059 2.1739 9.4029 2.3221 9.5007 2.2746 C 14.1909 0.0383 21.4498 -0.0358 25.6602 3.3623 C 25.7429 3.4288 26.1162 3.4488 25.9557 3.3177 C 21.5942 -0.203 14.0484 -0.2058 9.2015 2.1064 L 9.2015 2.1064 Z " stroke-width="0.949999988079071"/>
          <path id="ID0.7983635314740241" fill="#010101" d="M 3.4179 11.9465 C 3.4502 12.0615 3.8235 12.1166 3.7884 11.9997 C 2.4185 7.3077 6.0722 4.5964 9.5226 2.2603 C 9.61 2.2024 9.2765 2.0513 9.1758 2.1216 C 5.6798 4.4862 2.0442 7.2317 3.4179 11.9465 L 3.4179 11.9465 Z " stroke-width="0.949999988079071"/>
          <path id="ID0.9985817270353436" fill="#010101" d="M 8.2705 33.7367 C 8.2781 33.8488 8.6524 33.9267 8.6429 33.7899 C 8.0491 26.0407 -4.5174 17.8641 3.3257 10.683 C 3.4131 10.6032 3.0673 10.4626 2.9771 10.5443 C -4.886 17.7415 7.6862 26.1234 8.2705 33.7367 L 8.2705 33.7367 Z " stroke-width="0.949999988079071"/>
          <path id="ID0.048851495143026114" fill="#010101" d="M 13.0319 19.7194 C 13.0081 19.6045 12.6329 19.5408 12.6585 19.6643 C 12.8856 20.7321 13.6019 21.4864 13.98 22.4877 C 14.4208 23.6477 14.5509 24.9159 14.4303 26.1462 C 14.5547 26.1718 14.6801 26.1975 14.8046 26.2231 C 14.7267 25.2114 13.6988 24.4913 12.9454 23.9441 C 12.8599 23.8833 12.4837 23.8681 12.649 23.9887 C 13.3834 24.5236 14.3562 25.1895 14.4322 26.1699 C 14.4417 26.2706 14.796 26.3533 14.8055 26.2469 C 14.911 25.1696 14.8796 23.9222 14.4901 22.8981 C 14.074 21.7999 13.2798 20.8794 13.0319 19.7194 L 13.0319 19.7194 Z " stroke-width="0.949999988079071"/>
        </g>
      </g>
    </g>
    <g id="Eyebrows">
      <g id="ID0.6012311452068388">
        <g id="ID0.7290764157660306">
          <path id="ID0.9351740987040102" fill="#010101" d="M 22.7779 18.2669 C 23.4572 18.2906 23.2482 17.5677 22.6839 17.5468 C 20.0913 17.4556 17.4019 17.3349 15.3641 19.2112 C 14.9433 19.6007 15.8173 20.0757 16.1355 19.7812 C 18.008 18.056 20.3944 18.1823 22.7779 18.2669 L 22.7779 18.2669 Z " stroke-width="0.949999988079071"/>
          <path id="ID0.011035825125873089" fill="#010101" d="M 26.8012 17.0832 C 26.4639 17.4432 27.4111 17.8451 27.716 17.5192 C 28.5416 16.6386 29.2759 15.9802 30.4805 15.7019 C 30.7142 15.6477 30.7475 15.3874 30.6088 15.2269 C 30.4321 15.0236 30.1528 14.9799 29.9039 15.0378 C 28.5663 15.3447 27.716 16.1075 26.8012 17.0832 L 26.8012 17.0832 Z " stroke-width="0.949999988079071"/>
        </g>
      </g>
    </g>
  </g>
</svg>