<svg xmlns="http://www.w3.org/2000/svg" xmlns:xlink="http://www.w3.org/1999/xlink" version="1.1" width="99.97499450683594" height="145.01483520507813" viewBox="0.4899999666213989 0.49534471511840816 99.97499450683594 145.01483520507813">
  <!-- Exported by Scratch - http://scratch.mit.edu/ -->
  <g id="ID0.18767226533964276">
    <g id="Page-1">
      <g id="dress-02-[people,fashion]">
        <g id="Skirt">
          <path id="Shape" fill="#FFC0EC" stroke="none" stroke-width="1" d="M 74.05 67.69 C 74.05 67.585 74.05 67.495 74.05 67.39 L 50.5 69.82 L 23.5 67 C 23.5 67 20.035 96.595 14.5 110.335 C 11.246 118.792 6.796 126.738 1.285 133.93 C 1.285 133.93 21.16 144.715 50.455 144.715 C 65.495 144.741 80.402 141.895 94.375 136.33 C 88.062 125.575 83.261 114.001 80.11 101.935 C 77.326 90.669 75.301 79.228 74.05 67.69 Z "/>
          <path id="Shape" fill="#FFDEF6" stroke="none" stroke-width="1" d="M 86.5 110.32 C 80.965 96.58 77.575 67 77.575 67 L 74.02 67.36 C 74.02 67.465 74.02 67.555 74.02 67.66 C 75.286 79.194 77.326 90.63 80.125 101.89 C 83.276 113.956 88.077 125.53 94.39 136.285 C 97.78 134.89 99.64 133.885 99.64 133.885 C 94.158 126.697 89.733 118.762 86.5 110.32 Z "/>
          <path id="Shape" fill="none" stroke="#FF7BD0" stroke-width="1.2" stroke-linecap="round" stroke-linejoin="round" d="M 43.78 69.265 C 43.78 69.265 42.475 99.265 41.155 114.16 C 40.075 126.55 38.155 143.59 38.155 143.59 "/>
          <path id="Shape" fill="none" stroke="#FF7BD0" stroke-width="1.2" stroke-linecap="round" stroke-linejoin="round" d="M 37.21 69.16 C 37.21 69.16 34.81 99.79 32.815 111.16 C 30.82 122.53 25.72 142.12 25.72 142.12 "/>
          <path id="Shape" fill="none" stroke="#FF7BD0" stroke-width="1.2" stroke-linecap="round" stroke-linejoin="round" d="M 30.31 69.25 C 30.31 69.25 26.155 101.98 22.165 114.76 C 18.175 127.54 13.45 138.895 13.45 138.895 "/>
          <path id="Shape" fill="none" stroke="#FF7BD0" stroke-width="1.2" stroke-linecap="round" stroke-linejoin="round" d="M 57.4 69.25 C 57.4 69.25 58.705 99.25 60.025 114.145 C 61.105 126.535 63.13 143.59 63.13 143.59 "/>
          <path id="Shape" fill="none" stroke="#FF7BD0" stroke-width="1.2" stroke-linecap="round" stroke-linejoin="round" d="M 64 69.73 C 64 69.73 66.505 99.73 68.5 111.145 C 70.495 122.56 74.875 142.21 74.875 142.21 "/>
          <path id="Shape" fill="none" stroke="#FF7BD0" stroke-width="1.2" stroke-linecap="round" stroke-linejoin="round" d="M 70.54 68.335 C 70.54 68.335 75.04 101.965 79.03 114.745 C 83.02 127.525 87.745 138.745 87.745 138.745 "/>
          <path id="Shape" fill="none" stroke="#FF7BD0" stroke-width="1.2" stroke-linecap="round" stroke-linejoin="round" d="M 50.5 69.835 L 50.5 144.715 "/>
          <path id="Shape" fill="none" stroke="#DB20A5" stroke-width="1.2" stroke-linecap="round" stroke-linejoin="round" d="M 87.145 110.32 C 81.655 96.58 77.575 67 77.575 67 L 50.5 69.82 L 23.5 67 C 23.5 67 19.39 96.595 13.9 110.335 C 10.689 118.684 6.468 126.608 1.33 133.93 C 1.33 133.93 21.205 144.715 50.5 144.715 C 79.795 144.715 99.67 133.93 99.67 133.93 C 94.558 126.594 90.352 118.667 87.145 110.32 Z "/>
        </g>
        <g id="Shirt">
          <path id="Shape" fill="#C9E2B3" stroke="none" stroke-width="1" d="M 72.55 33.04 C 73.725 23.345 75.732 13.77 78.55 4.42 C 74.233 2.248 69.446 1.176 64.615 1.3 C 61.62 6.613 56.473 10.371 50.5 11.605 C 44.444 10.562 39.223 6.75 36.385 1.3 C 36.385 1.3 25.69 1.165 19.495 6.355 C 19.495 6.355 24.415 28.51 25.21 37.09 C 26.005 45.67 23.5 67 23.5 67 C 32.392 68.779 41.432 69.718 50.5 69.805 C 58.396 69.741 66.273 69.024 74.05 67.66 C 73.165 59.95 71.5 43.495 72.55 33.04 Z "/>
          <path id="Shape" fill="#E7F9D4" stroke="none" stroke-width="1" d="M 75.655 37.09 C 75.505 28.48 81.505 6.355 81.505 6.355 C 80.605 5.618 79.635 4.97 78.61 4.42 C 75.792 13.77 73.785 23.345 72.61 33.04 C 71.62 43.54 73.225 59.95 74.11 67.69 C 76.33 67.315 77.635 67.03 77.635 67.03 C 77.635 67.03 75.85 48.115 75.655 37.09 Z "/>
          <path id="Shape" fill="#FFFF4F" stroke="#FFFF4F" stroke-width="1.2" stroke-linecap="round" stroke-linejoin="round" d="M 54.325 36.22 C 54.173 34.127 52.386 32.533 50.29 32.62 C 48.194 32.533 46.407 34.127 46.255 36.22 C 46.074 38.239 46.67 40.25 47.92 41.845 L 52.66 41.845 C 53.917 40.254 54.514 38.239 54.325 36.22 Z "/>
          <path id="Shape" fill="#FFFF4F" stroke="#FFFF4F" stroke-width="1.2" stroke-linecap="round" stroke-linejoin="round" d="M 41.62 44.83 C 39.761 43.868 38.998 41.606 39.895 39.715 C 40.652 37.76 42.818 36.754 44.8 37.435 C 46.723 38.065 48.333 39.407 49.3 41.185 L 48.37 43.345 L 47.5 45.52 C 45.524 46.057 43.418 45.81 41.62 44.83 Z "/>
          <path id="Shape" fill="#FFFF4F" stroke="#FFFF4F" stroke-width="1.2" stroke-linecap="round" stroke-linejoin="round" d="M 49.27 52.615 C 47.952 54.253 45.568 54.539 43.9 53.26 C 42.134 52.125 41.595 49.789 42.685 47.995 C 43.693 46.238 45.335 44.933 47.275 44.35 L 49.21 45.715 L 51.145 47.08 C 51.253 49.097 50.582 51.079 49.27 52.615 Z "/>
          <path id="Shape" fill="#FFFF4F" stroke="#FFFF4F" stroke-width="1.2" stroke-linecap="round" stroke-linejoin="round" d="M 58.96 44.83 C 60.819 43.868 61.582 41.606 60.685 39.715 C 59.928 37.76 57.762 36.754 55.78 37.435 C 53.854 38.06 52.242 39.403 51.28 41.185 L 52.21 43.345 L 53.14 45.52 C 55.097 46.046 57.181 45.799 58.96 44.83 Z "/>
          <path id="Shape" fill="#FFFF4F" stroke="#FFFF4F" stroke-width="1.2" stroke-linecap="round" stroke-linejoin="round" d="M 51.445 52.615 C 52.763 54.253 55.147 54.539 56.815 53.26 C 58.579 52.115 59.106 49.77 58 47.98 C 57.014 46.241 55.406 44.938 53.5 44.335 L 51.565 45.7 L 49.63 47.065 C 49.501 49.079 50.151 51.066 51.445 52.615 Z "/>
          <path id="Oval" fill="#FFC0EC" stroke="#FFC0EC" stroke-width="1.59" stroke-linecap="round" stroke-linejoin="round" d="M 50.29 40.45 C 51.209 40.45 52.041 40.823 52.644 41.426 C 53.247 42.029 53.62 42.861 53.62 43.78 C 53.62 44.699 53.247 45.531 52.644 46.134 C 52.041 46.737 51.209 47.11 50.29 47.11 C 49.371 47.11 48.539 46.737 47.936 46.134 C 47.333 45.531 46.96 44.699 46.96 43.78 C 46.96 42.861 47.333 42.029 47.936 41.426 C 48.539 40.823 49.371 40.45 50.29 40.45 Z "/>
          <path id="Shape" fill="none" stroke="#149948" stroke-width="1.2" stroke-linecap="round" stroke-linejoin="round" d="M 81.505 6.355 C 80.605 5.618 79.635 4.97 78.61 4.42 C 74.293 2.248 69.506 1.176 64.675 1.3 C 61.667 6.627 56.495 10.387 50.5 11.605 C 44.444 10.562 39.223 6.75 36.385 1.3 C 36.385 1.3 25.69 1.165 19.495 6.355 C 19.495 6.355 24.415 28.51 25.21 37.09 C 26.005 45.67 23.5 67 23.5 67 C 32.392 68.779 41.432 69.718 50.5 69.805 C 58.396 69.741 66.273 69.024 74.05 67.66 C 76.27 67.285 77.575 67 77.575 67 C 77.575 67 75.85 48.085 75.655 37 C 75.505 28.48 81.505 6.355 81.505 6.355 Z "/>
          <path id="Shape" fill="#149948" stroke="#149948" stroke-width="1.2" stroke-linecap="round" stroke-linejoin="round" d="M 49.66 11.605 C 46.876 14.521 45.104 18.255 44.605 22.255 C 41.132 19.613 38.126 16.409 35.71 12.775 C 30.925 5.785 30.04 2.125 30.04 2.125 C 32.101 1.53 34.24 1.252 36.385 1.3 C 36.385 1.3 42.145 8.5 49.66 11.605 Z "/>
          <path id="Shape" fill="#149948" stroke="#149948" stroke-width="1.2" stroke-linecap="round" stroke-linejoin="round" d="M 50.5 11.605 C 53.284 14.521 55.056 18.255 55.555 22.255 C 59.028 19.613 62.034 16.409 64.45 12.775 C 66.935 9.339 69.056 5.654 70.78 1.78 C 68.76 1.464 66.719 1.304 64.675 1.3 C 64.675 1.3 58 8.5 50.5 11.605 Z "/>
        </g>
      </g>
    </g>
  </g>
</svg>