<svg xmlns="http://www.w3.org/2000/svg" xmlns:xlink="http://www.w3.org/1999/xlink" version="1.1" width="138.825" height="191.4288818359375" viewBox="-0.9125000000000001 -1.75625 138.825 191.4288818359375">
  <!-- Exported by Scratch - http://scratch.mit.edu/ -->
  <g id="ID0.25842217495664954">
    <g id="Page-1">
      <g id="MediaLab_Sprites_Room_Easel-03">
        <g id="MediaLab_Sprites_Room_Easel-01">
          <g id="Group">
            <path id="Shape" fill="#CE8049" stroke="none" stroke-width="1" d="M 59 155.25 L 29.5 56.5 L 28.5 63 C 28.5 63 52.5 156.75 52 156.5 L 52.25 157 C 52.5 158.25 53.5 159.25 54.75 159.5 C 56 159.75 57.25 159.5 58.25 158.5 C 59.25 157.75 59.5 156.5 59 155.25 Z "/>
            <path id="Shape" fill="#DB9463" stroke="none" stroke-width="1" d="M 53.75 156.75 C 55.25 156 56 154.25 55.5 152.75 L 28.5 63 L 27 73.25 L 52 156.5 C 52.5 156.75 53.25 157 53.75 156.75 Z "/>
            <path id="Shape" fill="none" stroke="#8E4639" stroke-width="1.2" stroke-linecap="round" stroke-linejoin="round" d="M 59 155.25 L 29.5 56.5 L 27 73.25 L 52 156.5 L 52.25 157 C 52.75 159 54.75 160 56.75 159.5 C 58.5 159 59.75 157 59 155.25 Z "/>
            <g id="Shape">
              <path id="ID0.73901092633605" fill="#FFFFFF" stroke="#8E4639" stroke-width="4.825" stroke-linecap="round" stroke-linejoin="round" d="M 12 161.25 L 45.25 124.5 "/>
              <path id="ID0.27445764606818557" fill="#CE8049" stroke="none" stroke-width="1" d="M 36.5 0.75 C 35.5 0.5 34.5 0.75 33.75 1.5 C 33 2.25 32.5 3 32.25 3.75 L 32 5.75 C 32.5 5.25 6.25 183 6 182.5 L 6 183 C 5.75 184.75 7.25 186.5 9 186.75 C 10.75 187 12.5 185.75 13 184 L 39.5 5 C 39.75 4 39.5 3 38.75 2.25 C 38.25 1.5 37.5 1 36.5 0.75 Z "/>
              <path id="ID0.6333188666030765" fill="#DB9463" stroke="none" stroke-width="1" d="M 7.5 183.25 C 9.25 183.25 10.5 182 10.75 180.25 L 36 9 C 36.5 7.25 35.5 5.75 33.75 5.25 C 33.25 5.25 32.5 5.25 32 5.75 L 6 182.25 C 6.25 182.75 7 183 7.5 183.25 Z "/>
            </g>
            <path id="Shape" fill="none" stroke="#8E4639" stroke-width="1.2" stroke-linecap="round" stroke-linejoin="round" d="M 36.5 0.75 C 35.5 0.5 34.5 0.75 33.75 1.5 C 33 2.25 32.5 3 32.25 3.75 L 32 5.75 L 6 182.5 L 6 183 C 5.75 184.75 7.25 186.5 9 186.75 C 10.75 187 12.5 185.75 13 184 L 39.5 5 C 39.75 4 39.5 3 38.75 2.25 C 38 1.5 37.5 1 36.5 0.75 Z "/>
          </g>
          <g id="Group">
            <path id="Shape" fill="#FFDB48" stroke="#8E4639" stroke-width="1.2" d="M 1.5 122.75 L 87.75 122.75 L 98.75 116 L 12.5 116 L 1.5 122.75 "/>
            <path id="Shape" fill="#FFDB48" stroke="#8E4639" stroke-width="1.2" d="M 1.5 122.75 L 87.75 122.75 L 87.75 129.25 L 1.5 129.25 L 1.5 122.75 "/>
            <g id="Shape">
              <path id="ID0.22929539252072573" fill="none" stroke="#8E4639" stroke-width="0.6" d="M 5 129.25 C 6 126.75 7.5 124.5 9.25 122.5 C 12 119.75 15.5 118.25 19.5 118.25 C 23.25 118 26.75 119.75 28.75 122.75 C 30.25 125 32 127.25 34 129.25 "/>
              <path id="ID0.4883030210621655" fill="none" stroke="#8E4639" stroke-width="0.6" d="M 10.5 129.25 C 11.25 126.75 12.5 124.5 14.25 122.75 C 16.75 120.75 20.75 120.25 23 122.75 C 24.5 125 26 127.25 27.5 129.25 "/>
              <path id="ID0.4200615845620632" fill="none" stroke="#8E4639" stroke-width="0.6" d="M 14.75 129.25 C 14.75 129.25 15.5 125.25 18.25 125.25 C 21 125.25 20.75 127.25 22.75 129.25 "/>
              <path id="ID0.3922882443293929" fill="none" stroke="#8E4639" stroke-width="0.6" d="M 31.25 119.25 C 31.5 120.5 32.25 121.75 33 122.75 C 35.5 125.5 38.5 127.5 42 129.25 L 75.75 129.25 C 78.75 127.5 81.5 125.25 84 122.75 C 84.75 121.75 85.25 120.5 85.5 119.5 "/>
              <path id="ID0.10587006714195013" fill="none" stroke="#8E4639" stroke-width="0.6" d="M 38.25 119.5 C 38.75 120.75 39.25 121.75 40 122.75 C 42.25 125.25 45 127.5 48 129.25 L 67.75 129.25 C 71.25 127.5 74.5 125.25 77.5 122.75 C 78.25 121.75 78.75 120.5 79 119.5 "/>
              <path id="ID0.24280562764033675" fill="none" stroke="#8E4639" stroke-width="0.6" d="M 44.75 119.5 C 44.75 120.75 45.25 122 46 122.75 C 47.25 124.25 52.5 126.5 57.75 126.5 C 62.25 126.75 67 125.25 70.5 122.5 C 71.5 121.75 72.25 120.5 72.75 119.25 "/>
              <path id="ID0.006496448069810867" fill="none" stroke="#8E4639" stroke-width="0.6" d="M 50.25 119.5 C 50.25 119.5 52 121.25 58.25 121.25 C 61.25 121.5 64.25 121 67 119.75 "/>
            </g>
            <path id="Shape" fill="#FFDB48" stroke="#8E4639" stroke-width="1.2" d="M 87.75 122.75 L 87.75 129.25 L 98.75 122.25 L 98.75 116 L 87.75 122.75 "/>
          </g>
          <g id="Group">
            <path id="Shape" fill="#FBD6CC" stroke="#FBD6CC" stroke-width="0.6" stroke-linecap="round" stroke-linejoin="round" d="M 26.25 21 L 12 118.75 L 89.5 118.75 L 104 21 L 26.25 21 "/>
            <path id="Shape" fill="#FFA6B9" stroke="none" stroke-width="1" d="M 11.75 120 L 88.25 120 L 91 102.25 L 14.25 102 L 11.75 120 "/>
            <g id="Shape">
              <path id="ID0.7930970801971853" fill="#FF8AAE" stroke="#FF8AAE" stroke-width="0.6" d="M 19.5 106.25 C 22.75 105.25 22.25 108.25 26.5 108 C 32 108 32.75 110.75 32 113 C 31.25 115.25 25 116 20.5 112.5 C 18 110.5 16.25 107.25 19.5 106.25 Z "/>
              <path id="ID0.9273022501729429" fill="none" stroke="#FF8AAE" stroke-width="1.2" d="M 33.25 105.5 C 34.5 106 35.25 107 36 108 C 36.5 109 36.75 110.25 36.25 111.5 "/>
              <path id="ID0.9153412138111889" fill="none" stroke="#FF8AAE" stroke-width="1.2" d="M 79 107.5 C 80 107 81.25 106.75 82.25 106.75 C 83.5 107 84.5 107.5 85.25 108.5 "/>
              <path id="ID0.41819521225988865" fill="none" stroke="#FF8AAE" stroke-width="1.2" d="M 54 116 C 54 114.75 54.5 113.75 55.25 112.75 C 56 111.75 57 111.25 58.25 111 "/>
              <path id="ID0.2551502985879779" fill="none" stroke="#FF8AAE" stroke-width="1.2" d="M 52.5 106 C 51.75 106.75 50.5 107.25 49.5 107.5 C 48.25 107.5 47.25 107.25 46.25 106.5 "/>
              <path id="ID0.5759699163027108" fill="#FF8AAE" stroke="#FF8AAE" stroke-width="1.2" d="M 61.75 113 C 60.75 111.5 62.75 110.25 64.5 109.5 C 65.25 109.25 65.75 108.75 66.25 108 C 66.5 107.25 66.5 106.5 66.25 105.75 C 65.75 104.5 67.75 103.75 68.5 106.25 C 69 108.25 68.5 110.25 67 111.75 C 65.25 113.5 62.5 114.25 61.75 113 Z "/>
              <path id="ID0.8764311261475086" fill="#FF8AAE" stroke="#FF8AAE" stroke-width="1.2" d="M 70.75 113.75 C 71.25 111.75 74.25 110.5 76.5 110.5 C 78.75 110.75 80 112.5 79.5 114 C 79 115.5 76.25 115.75 74.75 116 C 73 116.25 70.5 115.25 70.75 113.75 Z "/>
              <path id="ID0.9571533193811774" fill="#FF8AAE" stroke="#FF8AAE" stroke-width="0.6" d="M 49.5 115.5 C 48.25 116.5 46.75 115.5 45.5 115 C 43.5 114.5 42.75 116.25 40.5 115 C 39 114.25 38.5 111.25 41.5 110 C 46 108.5 51.75 113.5 49.5 115.5 Z "/>
              <path id="ID0.8289298065938056" fill="none" stroke="#FFE4DE" stroke-width="1.2" d="M 29 80.5 L 32.75 85.75 "/>
              <path id="ID0.8671802571043372" fill="none" stroke="#FFE4DE" stroke-width="1.2" d="M 74 97.5 L 78 94.25 "/>
              <path id="ID0.45523109985515475" fill="none" stroke="#FFE4DE" stroke-width="1.2" d="M 85.25 65.5 L 88.25 69.5 "/>
              <path id="ID0.11818055715411901" fill="none" stroke="#FFE4DE" stroke-width="1.2" d="M 96.75 33.25 L 93.25 36.75 "/>
              <path id="ID0.017648639157414436" fill="none" stroke="#FFE4DE" stroke-width="1.2" d="M 77.75 26.25 L 82 28.75 "/>
              <path id="ID0.9967530486173928" fill="none" stroke="#FFE4DE" stroke-width="1.2" d="M 62.75 28.25 L 59.25 31.75 "/>
              <path id="ID0.33821160439401865" fill="none" stroke="#FFE4DE" stroke-width="1.2" d="M 38.25 51.25 L 33.75 49 "/>
              <path id="ID0.2666166890412569" fill="none" stroke="#FFE4DE" stroke-width="1.2" d="M 50.5 44 L 51 39 "/>
              <path id="ID0.994651276152581" fill="none" stroke="#FFE4DE" stroke-width="1.2" d="M 47.5 61.5 L 51 58 "/>
              <path id="ID0.5899921939708292" fill="none" stroke="#FFE4DE" stroke-width="1.2" d="M 62 72.5 L 60.75 67.5 "/>
              <path id="ID0.396246378775686" fill="none" stroke="#FFE4DE" stroke-width="1.2" d="M 47.5 73.25 L 42.5 73.25 "/>
              <path id="ID0.8474276051856577" fill="none" stroke="#FFE4DE" stroke-width="1.2" d="M 65.5 87.75 L 61.5 84.75 "/>
              <path id="ID0.4111995892599225" fill="none" stroke="#FFE4DE" stroke-width="1.2" d="M 48.5 91.25 L 49 86.25 "/>
              <path id="ID0.5520500978454947" fill="none" stroke="#FFE4DE" stroke-width="1.2" d="M 67.25 51 L 62.5 49 "/>
              <path id="ID0.864996544085443" fill="none" stroke="#FFE4DE" stroke-width="1.2" d="M 76.75 74.75 L 75.5 79.75 "/>
              <path id="ID0.441428046207875" fill="none" stroke="#FFE4DE" stroke-width="1.2" d="M 82 49.25 L 80 54 "/>
              <path id="ID0.8240766935050488" fill="none" stroke="#FFE4DE" stroke-width="1.2" d="M 74.5 40.75 L 71 37 "/>
              <path id="ID0.6802923423238099" fill="none" stroke="#FFE4DE" stroke-width="1.2" d="M 41.25 27.5 L 41.75 32.5 "/>
              <path id="ID0.38593024108558893" fill="none" stroke="#FFE4DE" stroke-width="1.2" d="M 28.75 39.25 L 33 37.5 "/>
              <path id="ID0.4740664758719504" fill="none" stroke="#FFE4DE" stroke-width="1.2" d="M 27.75 66.25 L 25.75 71.75 "/>
              <path id="ID0.29435830982401967" fill="none" stroke="#FFE4DE" stroke-width="1.2" d="M 28 94.5 L 22.25 96.25 "/>
            </g>
            <path id="Shape" fill="#5E154D" stroke="none" stroke-width="1" d="M 109.25 24 L 104 20 L 103.75 20 L 26.25 20 C 26 20 25.75 20.25 25.75 20.5 L 11.25 119.5 C 11.25 119.75 11.25 119.75 11.5 120 C 11.75 120.25 11.75 120.25 12 120.25 L 89.25 120.25 L 89.5 120.25 L 96.5 116 C 96.75 116 96.75 115.75 96.75 115.5 L 110.25 24.75 C 109.5 24.25 109.5 24 109.25 24 Z M 26.5 21 L 103 21 L 97 60 L 88 118.75 L 12 118.75 L 26.5 21 Z "/>
          </g>
          <g id="Group">
            <g id="Shape">
              <path id="ID0.7153196898289025" fill="#CE8049" stroke="none" stroke-width="1" d="M 135.25 155.25 L 105.75 56.5 L 104.75 63 C 104.75 63 128.75 156.75 128.25 156.5 L 128.5 157 C 128.75 158.25 129.75 159.25 131 159.5 C 132.25 159.75 133.5 159.5 134.5 158.5 C 135.5 157.75 135.75 156.25 135.25 155.25 Z "/>
              <path id="ID0.788383022416383" fill="#DB9463" stroke="none" stroke-width="1" d="M 130 156.75 C 131.5 156 132.25 154.25 131.75 152.75 L 104.75 63 L 103.25 73.25 L 128.25 156.5 C 128.75 156.75 129.5 157 130 156.75 Z "/>
              <path id="ID0.9693860337138176" fill="#FFFFFF" stroke="#8E4639" stroke-width="4.825" stroke-linecap="round" stroke-linejoin="round" d="M 90.25 163.5 L 120.25 130.25 "/>
            </g>
            <path id="Shape" fill="none" stroke="#8E4639" stroke-width="1.2" stroke-linecap="round" stroke-linejoin="round" d="M 135.25 155.25 L 105.75 56.5 L 103.25 73.25 L 128.25 156.5 L 128.5 157 C 128.75 158.25 129.75 159.25 131 159.5 C 132.25 159.75 133.5 159.5 134.5 158.5 C 135.5 157.5 135.75 156.25 135.25 155.25 Z "/>
            <path id="Shape" fill="#CE8049" stroke="none" stroke-width="1" d="M 113.25 0.75 C 112.25 0.5 111.25 0.75 110.5 1.5 C 109.75 2 109.25 3 109 3.75 L 108.75 5.75 C 109.25 5.25 83 183 82.75 182.5 L 82.75 183 C 82.5 184.25 83 185.75 84 186.5 C 85 187.25 86.5 187.5 87.75 187 C 89 186.5 89.75 185.25 90 184 L 116.25 5 C 116.5 4 116.25 3 115.5 2.25 C 115 1.5 114.25 1 113.25 0.75 Z "/>
            <path id="Shape" fill="#DB9463" stroke="none" stroke-width="1" d="M 84.25 183.25 C 86 183.25 87.25 182 87.5 180.25 L 112.75 9 C 113 8.25 112.75 7.25 112.5 6.75 C 112.25 6.25 111.5 5.5 110.5 5.25 C 110 5.25 109.25 5.25 108.75 5.75 L 82.75 182.25 C 83 182.75 83.5 183 84.25 183.25 Z "/>
            <path id="Shape" fill="none" stroke="#8E4639" stroke-width="1.2" stroke-linecap="round" stroke-linejoin="round" d="M 113.25 0.75 C 112.25 0.5 111.25 0.75 110.5 1.5 C 109.75 2 109.25 3 109 3.75 L 108.75 5.75 L 82.75 182.5 L 82.75 183 C 82.5 184.25 83 185.75 84 186.5 C 85 187.25 86.5 187.5 87.75 187 C 89 186.5 89.75 185.25 90 184 L 116.25 5 C 116.5 4 116.25 3 115.5 2.25 C 115 1.5 114.25 1 113.25 0.75 Z "/>
          </g>
        </g>
        <g id="Bud">
          <path id="Shape" fill="#FFAC33" stroke="#5E154D" stroke-width="0.5" d="M 72.2 85.075 C 71.351 87.604 72.534 90.368 74.95 91.5 C 77.697 92.335 80.681 91.639 82.775 89.675 C 84.251 88.677 85.223 87.091 85.444 85.324 C 85.664 83.556 85.11 81.779 83.925 80.45 C 81.425 77.75 77.1 79.925 76.025 80.45 C 74.299 81.555 72.961 83.172 72.2 85.075 Z "/>
          <path id="Shape" fill="#FFDB48" stroke="#5E154D" stroke-width="0.5" d="M 74 82.225 C 74.306 84.063 75.09 85.787 76.275 87.225 C 77.606 89.037 79.68 90.157 81.925 90.275 C 82.454 88.143 82.122 85.889 81 84 C 80.066 82.302 78.659 80.913 76.95 80 "/>
          <path id="Shape" fill="#007C2C" stroke="none" stroke-width="1" d="M 60.6 72.475 C 63.329 72.276 66.068 72.677 68.625 73.65 C 70.768 74.633 72.495 76.342 73.5 78.475 C 73.775 78.9 71.7 80.55 69.425 80.75 C 68.975 80.75 71.025 82.775 73.275 81.6 C 71.943 82.379 70.926 83.599 70.4 85.05 C 69.875 87.35 71.3 89.3 71.675 89.175 C 72.05 89.05 71.675 87.45 72.25 86.1 C 72.825 84.75 73.85 84.2 74.05 84.3 C 74.25 84.4 73.825 85.525 74.65 86.8 C 75.155 87.667 76.197 88.063 77.15 87.75 C 77.325 87.525 76.55 86.7 76.225 85.75 C 75.877 85.049 75.877 84.226 76.225 83.525 C 76.45 83.35 77.55 84 77.95 84.825 C 78.35 85.65 78.55 86.875 78.825 86.85 C 79.676 86.011 79.994 84.77 79.65 83.625 C 79.175 82.2 77.825 82.025 78.05 81.925 C 78.951 81.76 79.878 81.82 80.75 82.1 C 81.775 82.5 82.525 84.125 82.725 84.05 C 83.405 83.119 83.405 81.856 82.725 80.925 C 81.95 79.9 80.55 79.8 80.575 79.6 C 81.441 79.354 82.359 79.354 83.225 79.6 C 84.475 79.925 85.725 81.075 85.725 80.9 C 85.877 80.099 85.696 79.271 85.225 78.606 C 84.753 77.941 84.031 77.497 83.225 77.375 C 81.711 77.077 80.142 77.451 78.925 78.4 C 79.692 77.863 80.149 76.986 80.15 76.05 C 80.15 74.775 79.35 73.55 79.25 73.85 C 79.023 74.63 78.65 75.36 78.15 76 C 77.2 77.25 75.875 77.725 75.65 77.35 C 74.486 75.322 72.848 73.606 70.875 72.35 C 67.704 70.799 64.164 70.159 60.65 70.5 L 60.6 72.475 Z "/>
        </g>
        <g id="Left-Flower">
          <path id="Shape" fill="#FFDB48" stroke="#5E154D" stroke-width="0.4" d="M 45.55 51.5 C 46.9 51.775 48.325 53.8 48.525 56.925 C 48.725 60.05 47.2 65.2 43.7 66.925 C 42.625 67.475 44.6 62.725 44.25 59.8 C 43.9 56.875 43.175 55.65 43.15 53.875 C 43.125 52.1 44.175 51.25 45.55 51.5 Z "/>
          <path id="Shape" fill="#FFDB48" stroke="#5E154D" stroke-width="0.4" d="M 38.825 49 C 36.95 49.325 35.4 52.175 35.875 55.825 C 36.35 59.475 36.925 60.575 34.675 64.4 C 34.1 65.375 38.825 63.425 39.85 60.175 C 40.875 56.925 40.525 55.75 41.675 52.45 C 42.06 51.584 41.921 50.574 41.318 49.843 C 40.714 49.112 39.749 48.786 38.825 49 Z "/>
          <path id="Shape" fill="#FFDB48" stroke="#5E154D" stroke-width="0.4" d="M 40.15 44.7 C 38.75 43.925 36.225 44.125 34.2 47.4 C 32.803 49.999 32.138 52.928 32.275 55.875 C 32.254 57.908 31.82 59.915 31 61.775 C 30.6 62.675 34.3 60.4 35.775 56.775 C 37 53.75 35.475 50.475 38.725 49.075 C 40.85 48.175 41.675 45.55 40.15 44.7 Z "/>
          <path id="Shape" fill="#FFDB48" stroke="#5E154D" stroke-width="0.4" d="M 41.875 51.625 C 40.75 52.45 40.15 56.025 39.9 59.575 C 39.65 63.125 38.125 65.525 38.525 65.725 C 41.13 64.78 43.133 62.656 43.925 60 C 44.793 57.652 45.017 55.114 44.575 52.65 C 44.545 52.024 44.147 51.475 43.561 51.253 C 42.975 51.031 42.313 51.177 41.875 51.625 Z "/>
          <path id="Shape" fill="#FFDB48" stroke="#5E154D" stroke-width="0.4" d="M 50.1 48.2 C 50.925 46.6 53.25 46.45 55.1 47.9 C 57.525 50.278 58.893 53.529 58.9 56.925 C 59.15 60.275 61.4 62.65 60.9 63.025 C 60.4 63.4 56.825 62 55.375 58.5 C 54.125 55.5 54.125 53.975 52.025 52.45 C 49.925 50.925 49.35 49.6 50.1 48.2 Z "/>
          <path id="Shape" fill="#FFDB48" stroke="#5E154D" stroke-width="0.4" d="M 48.5 50.05 C 46.925 51.625 48.5 54.025 50.625 56.925 C 52.033 60.069 52.749 63.48 52.725 66.925 C 52.475 68.275 56.7 63.125 55.675 57.475 C 54.65 51.825 50.5 48.075 48.5 50.05 Z "/>
          <path id="Shape" fill="#FFDB48" stroke="#5E154D" stroke-width="0.4" d="M 48.5 51.175 C 49.875 51.175 50.775 52.825 51.475 55.875 C 52.175 58.925 51.475 65.05 48.725 67.05 C 47.75 67.75 48.925 63.65 48.05 59.95 C 47.353 57.972 46.859 55.928 46.575 53.85 C 46.625 52.1 47.15 51.15 48.5 51.175 Z "/>
          <path id="Shape" fill="#FFDB48" stroke="#5E154D" stroke-width="0.4" d="M 49.875 43.5 C 50.936 42.285 52.686 41.945 54.125 42.675 C 56.492 43.73 58.146 45.933 58.5 48.5 C 59.062 51.05 60.124 53.463 61.625 55.6 C 62.225 56.35 59.4 55.6 57.65 53.35 C 56.544 51.5 55.18 49.816 53.6 48.35 C 52.05 47.275 51.375 47.75 50.275 46.85 C 49.366 45.969 49.199 44.571 49.875 43.5 Z "/>
          <path id="Shape" fill="#CE8049" stroke="#5E154D" stroke-width="0.4" d="M 52.325 47.925 C 51.994 51.57 48.799 54.274 45.15 54 C 40.925 54 37.65 51.775 38 47.725 C 38.467 44.194 41.597 41.633 45.15 41.875 C 46.907 41.709 48.658 42.256 50.007 43.394 C 51.357 44.532 52.192 46.165 52.325 47.925 Z "/>
          <path id="Shape" fill="none" stroke="#5E154D" stroke-width="0.4" d="M 39.775 52.175 C 40.344 50.202 41.132 48.298 42.125 46.5 C 42.995 44.782 44.154 43.226 45.55 41.9 "/>
          <path id="Shape" fill="none" stroke="#5E154D" stroke-width="0.4" d="M 42.65 53.7 C 43.28 51.693 44.118 49.758 45.15 47.925 C 46.226 46.05 47.537 44.319 49.05 42.775 "/>
          <path id="Shape" fill="none" stroke="#5E154D" stroke-width="0.4" d="M 46.3 54 C 47.484 50.743 49.237 47.721 51.475 45.075 "/>
          <path id="Shape" fill="none" stroke="#5E154D" stroke-width="0.4" d="M 37.975 48.225 C 40.036 48.709 42.058 49.344 44.025 50.125 C 45.846 50.876 47.588 51.805 49.225 52.9 "/>
          <path id="Shape" fill="none" stroke="#5E154D" stroke-width="0.4" d="M 38.825 45.175 C 41.236 45.338 43.606 45.878 45.85 46.775 C 47.975 47.636 49.982 48.761 51.825 50.125 "/>
          <path id="Shape" fill="none" stroke="#5E154D" stroke-width="0.4" d="M 41.75 42.55 C 43.846 42.748 45.897 43.28 47.825 44.125 C 49.487 44.951 51 46.05 52.3 47.375 "/>
          <path id="Shape" fill="none" stroke="#FFC033" stroke-width="0.4" d="M 46.7 58.5 C 46.891 59.662 46.805 60.852 46.45 61.975 "/>
          <path id="Shape" fill="none" stroke="#FFC033" stroke-width="0.4" d="M 54.525 56.875 C 54.755 58.291 54.755 59.734 54.525 61.15 "/>
          <path id="Shape" fill="none" stroke="#FFEA92" stroke-width="0.4" d="M 37.225 56.225 C 37.554 57.378 37.639 58.587 37.475 59.775 "/>
          <path id="Shape" fill="none" stroke="#FFEA92" stroke-width="0.4" d="M 35.3 47.925 C 34.667 48.923 34.21 50.022 33.95 51.175 "/>
          <path id="Shape" fill="none" stroke="#FFEA92" stroke-width="0.4" d="M 53.5 43.85 C 54.731 44.326 55.763 45.208 56.425 46.35 "/>
        </g>
        <g id="Right-Flower">
          <path id="Shape" fill="#FFCE00" stroke="#5E154D" stroke-width="0.4" d="M 75.8 58.125 C 75.275 59.8 76.775 61.05 78.3 63.35 C 79.187 65.114 79.26 67.178 78.5 69 C 78.25 69.75 83.1 67.3 82.375 61.375 C 81.65 54.85 76.675 55.475 75.8 58.125 Z "/>
          <path id="Shape" fill="#FFCE00" stroke="#5E154D" stroke-width="0.4" d="M 73 59.2 C 71.819 61.011 71.723 63.323 72.75 65.225 C 73.172 67.145 73.465 69.091 73.625 71.05 C 74.075 71.95 77.825 67.025 77.825 62.675 C 77.825 57.85 74.175 58 73 59.2 Z "/>
          <path id="Shape" fill="#FFCE00" stroke="#5E154D" stroke-width="0.4" d="M 78.1 54.75 C 77.825 56.525 78.975 58.175 82.175 59.3 C 86.025 60.65 85.125 65.45 85.525 65 C 86.825 63.575 88.8 57.5 84.45 54.4 C 81.825 52.55 78.5 52.125 78.1 54.75 Z "/>
          <path id="Shape" fill="#FFCE00" stroke="#5E154D" stroke-width="0.4" d="M 77.575 52.375 C 77.175 50.825 78.425 49.5 81.1 49.6 C 85.475 49.75 84.475 51.725 89.35 51.675 C 90.275 51.675 87.275 54.425 83.3 54.725 C 80.775 54.925 78.1 54.45 77.575 52.375 Z "/>
          <path id="Shape" fill="#FFCE00" stroke="#5E154D" stroke-width="0.4" d="M 70.075 58.75 C 68.375 59.75 68.775 61.975 69.275 64.15 C 69.875 66.825 68.55 70.3 68.9 70.45 C 70.994 69.162 72.475 67.077 73 64.675 C 74.2 60 71.875 57.7 70.075 58.75 Z "/>
          <path id="Shape" fill="#FFCE00" stroke="#5E154D" stroke-width="0.4" d="M 69.35 51.5 C 67.65 52.875 65.125 52 64.6 48.125 C 64.257 45.752 65.098 43.362 66.85 41.725 C 67.6 41.725 66.85 43.6 68.85 46.725 C 70.075 48.525 70.625 50.425 69.35 51.5 Z "/>
          <path id="Shape" fill="#FFCE00" stroke="#5E154D" stroke-width="0.4" d="M 72.875 40.2 C 73.55 40.2 72.475 43 72.875 44.85 C 73.425 48.15 73.3 51.05 71.425 51.175 C 69.125 51.3 68.475 48.675 68.925 45.975 C 69.375 43.275 71.7 40.175 72.875 40.2 Z "/>
          <path id="Shape" fill="#FFCE00" stroke="#5E154D" stroke-width="0.4" d="M 76.675 51.15 C 74.175 50.05 75.325 46.3 79.525 45.625 C 83.3 45.025 88.25 47.45 88.3 48.375 C 88.35 49.3 84.325 48.875 82.3 49.7 C 80.275 50.525 78.7 52.1 76.675 51.15 Z "/>
          <path id="Shape" fill="#FFCE00" stroke="#5E154D" stroke-width="0.4" d="M 74.675 50.45 C 72.675 50.775 71.225 48.4 72.8 45.825 C 74.265 43.657 76.734 42.385 79.35 42.45 C 81.149 42.279 82.943 42.817 84.35 43.95 C 82.326 44.779 80.37 45.765 78.5 46.9 C 76.8 48.35 76.55 50.15 74.675 50.45 Z "/>
          <path id="Shape" fill="#FFCE00" stroke="#5E154D" stroke-width="0.4" d="M 60.625 44.7 C 61.225 44.7 61.4 46.9 63.725 48.7 C 66.05 50.5 67.65 52.525 66.775 54 C 65.625 55.975 62.15 55.425 60.65 51.725 C 59.425 48.7 59.95 44.7 60.625 44.7 Z "/>
          <path id="Shape" fill="#FFCE00" stroke="#5E154D" stroke-width="0.4" d="M 64.225 69.6 C 66.455 68.394 68.215 66.475 69.225 64.15 C 70.025 62.05 70.425 59.3 68.675 58.5 C 66.925 57.7 65.95 59.725 65.775 60.825 C 65.375 63.325 65.775 63.025 65.425 65.05 C 65.075 67.075 64 69.375 64.225 69.6 Z "/>
          <path id="Shape" fill="#FFCE00" stroke="#5E154D" stroke-width="0.4" d="M 55.1 57.225 C 56.808 58.47 58.889 59.096 61 59 C 63.725 59.175 66.15 58.475 66.55 56.7 C 66.95 54.925 65.75 53.775 63.775 53.975 C 61.971 54.326 60.233 54.958 58.625 55.85 C 57.025 56.5 55.1 56.925 55.1 57.225 Z "/>
          <path id="Shape" fill="#FFCE00" stroke="#5E154D" stroke-width="0.4" d="M 57.75 64.875 C 60.294 65.329 62.913 64.724 65 63.2 C 67.175 61.55 68.3 59.375 67.3 57.875 C 66.3 56.375 64.6 56.425 63.2 58.375 C 62.284 59.902 61.229 61.341 60.05 62.675 C 58.775 64 57.4 64.625 57.75 64.875 Z "/>
          <path id="Shape" fill="#CE8049" stroke="#5E154D" stroke-width="0.4" d="M 80.175 54.75 C 79.831 58.388 76.645 61.086 73 60.825 C 68.775 60.825 65.5 58.6 65.85 54.525 C 66.329 51.004 69.455 48.457 73 48.7 C 74.757 48.534 76.508 49.081 77.857 50.219 C 79.207 51.357 80.042 52.99 80.175 54.75 Z "/>
          <path id="Shape" fill="none" stroke="#5E154D" stroke-width="0.4" d="M 66.325 57.275 C 67.439 55.583 68.844 54.101 70.475 52.9 C 72.263 51.516 74.231 50.38 76.325 49.525 "/>
          <path id="Shape" fill="none" stroke="#5E154D" stroke-width="0.4" d="M 68.5 59.775 C 69.96 58.049 71.566 56.451 73.3 55 C 75.086 53.618 77.023 52.443 79.075 51.5 "/>
          <path id="Shape" fill="none" stroke="#5E154D" stroke-width="0.4" d="M 73 60.825 C 74.072 59.527 75.27 58.338 76.575 57.275 C 77.683 56.38 78.891 55.616 80.175 55 "/>
          <path id="Shape" fill="none" stroke="#5E154D" stroke-width="0.4" d="M 66 53.7 C 67.738 54.641 69.409 55.702 71 56.875 C 72.468 57.982 73.847 59.203 75.125 60.525 "/>
          <path id="Shape" fill="none" stroke="#5E154D" stroke-width="0.4" d="M 67.95 50.475 C 69.863 51.334 71.667 52.416 73.325 53.7 C 75.162 55.243 76.837 56.968 78.325 58.85 "/>
          <path id="Shape" fill="none" stroke="#5E154D" stroke-width="0.4" d="M 71.975 48.75 C 75.429 50.24 78.251 52.894 79.95 56.25 "/>
          <path id="Shape" fill="none" stroke="#FFF75F" stroke-width="0.4" d="M 73.8 46.9 C 74.481 45.705 75.588 44.812 76.9 44.4 "/>
          <path id="Shape" fill="none" stroke="#FFF75F" stroke-width="0.4" d="M 70.4 44.7 C 69.807 45.774 69.563 47.006 69.7 48.225 "/>
          <path id="Shape" fill="none" stroke="#FFF75F" stroke-width="0.4" d="M 61.125 49.925 C 61.467 50.998 61.992 52.005 62.675 52.9 "/>
          <path id="Shape" fill="none" stroke="#FFB829" stroke-width="0.4" d="M 66 60.25 C 65.324 61.284 64.479 62.197 63.5 62.95 "/>
          <path id="Shape" fill="none" stroke="#FFB829" stroke-width="0.4" d="M 72.175 63.1 C 71.997 64.439 71.6 65.74 71 66.95 "/>
          <path id="Shape" fill="none" stroke="#FFB829" stroke-width="0.4" d="M 81.275 61 C 81.586 62.256 81.586 63.569 81.275 64.825 "/>
          <path id="Shape" fill="none" stroke="#FFB829" stroke-width="0.4" d="M 82.325 53.4 C 83.585 53.422 84.841 53.253 86.05 52.9 "/>
        </g>
        <g id="Group">
          <path id="Shape" fill="#FFFFFF" stroke="none" stroke-width="1" d="M 65.8 93.575 C 65.946 92.439 66.012 91.295 66 90.15 C 65.796 86.049 64.64 82.052 62.625 78.475 L 48.225 78.475 C 46.21 82.052 45.054 86.049 44.85 90.15 C 44.859 91.298 44.959 92.443 45.15 93.575 C 48.465 94.749 51.958 95.341 55.475 95.325 C 58.992 95.348 62.487 94.756 65.8 93.575 Z "/>
          <path id="Shape" fill="#F05822" stroke="none" stroke-width="1" d="M 55.475 95.325 C 51.958 95.341 48.465 94.749 45.15 93.575 C 45.925 98.038 47.045 102.435 48.5 106.725 C 50.695 107.498 52.998 107.92 55.325 107.975 L 55.6 107.975 C 57.927 107.924 60.231 107.502 62.425 106.725 C 63.881 102.433 65.009 98.037 65.8 93.575 C 62.487 94.756 58.992 95.348 55.475 95.325 Z "/>
          <path id="Shape" fill="none" stroke="#F05822" stroke-width="0.9" stroke-linecap="round" stroke-linejoin="round" d="M 62.7 78.475 L 48.225 78.475 C 46.21 82.052 45.054 86.049 44.85 90.15 C 44.859 91.298 44.959 92.443 45.15 93.575 C 45.925 98.038 47.045 102.435 48.5 106.725 C 50.734 107.698 53.168 108.126 55.6 107.975 C 57.945 108.159 60.297 107.728 62.425 106.725 C 63.881 102.433 65.009 98.037 65.8 93.575 C 65.946 92.439 66.012 91.295 66 90.15 C 65.819 86.055 64.689 82.059 62.7 78.475 Z "/>
          <path id="Shape" fill="#FFAC33" stroke="#5E154D" stroke-width="0.6" stroke-linecap="round" stroke-linejoin="round" d="M 48.975 74.275 C 47.029 75.764 45.76 77.97 45.45 80.4 C 44.65 84.4 45.925 88.6 46.65 88.6 C 47.375 88.6 47.675 86.4 48.775 84.425 C 49.65 82.85 50.75 81.675 52.025 79.775 C 53.825 77.15 53.55 75.525 52.8 74.6 C 51.8 73.52 50.143 73.38 48.975 74.275 Z "/>
          <path id="Shape" fill="#FFAC33" stroke="#5E154D" stroke-width="0.6" stroke-linecap="round" stroke-linejoin="round" d="M 49.65 71.5 C 47.725 70.35 45.2 71.025 42.15 74.575 C 39.45 77.6 38.45 82.25 38.925 82.225 C 39.4 82.2 41.625 80.9 44.3 79.725 C 46.605 78.851 48.615 77.343 50.1 75.375 C 51 73.625 51 72.2 49.65 71.5 Z "/>
          <path id="Shape" fill="#FFAC33" stroke="#5E154D" stroke-width="0.6" stroke-linecap="round" stroke-linejoin="round" d="M 52.45 76.1 C 50.175 78.6 51.7 87.875 52.8 87.875 C 53.9 87.875 56.9 81.025 56.3 77.6 C 56 75.175 53.825 74.5 52.45 76.1 Z "/>
          <path id="Shape" fill="#FFAC33" stroke="#5E154D" stroke-width="0.6" stroke-linecap="round" stroke-linejoin="round" d="M 56.25 75.6 C 57.775 74.925 60.125 76.525 60.5 81.15 C 60.769 83.789 60.115 86.439 58.65 88.65 C 58.125 88.65 57.65 85.225 56.15 82.325 C 55.125 79.825 54.325 76.5 56.25 75.6 Z "/>
          <path id="Shape" fill="#FFAC33" stroke="#5E154D" stroke-width="0.6" stroke-linecap="round" stroke-linejoin="round" d="M 59.725 74.25 C 58.525 74.9 57.775 76.75 59.45 78.975 C 61.125 81.2 63.5 81.475 64.65 84.85 C 65.025 85.875 66.425 82.05 65.275 78.35 C 64.125 74.65 61.45 73.325 59.725 74.25 Z "/>
          <path id="Shape" fill="#FFAC33" stroke="#5E154D" stroke-width="0.6" stroke-linecap="round" stroke-linejoin="round" d="M 61.3 72.575 C 61.067 74.149 61.821 75.706 63.2 76.5 C 64.559 77.133 65.886 77.834 67.175 78.6 C 68.325 79.525 69.275 81.95 69.675 81.75 C 70.312 79.5 70.198 77.104 69.35 74.925 C 68.625 73.003 67.059 71.519 65.1 70.9 C 63.1 70.25 61.375 71.25 61.3 72.575 Z "/>
          <path id="Shape" fill="#FFAC33" stroke="#5E154D" stroke-width="0.6" stroke-linecap="round" stroke-linejoin="round" d="M 61.4 70.425 C 61.1 68.7 62.625 67.075 65.175 67.075 C 67.914 67.013 70.405 68.657 71.425 71.2 C 71.425 71.575 68.65 71.375 66.725 72 C 64.8 72.625 61.825 72.775 61.4 70.425 Z "/>
          <path id="Shape" fill="#FFAC33" stroke="#5E154D" stroke-width="0.6" stroke-linecap="round" stroke-linejoin="round" d="M 60.025 67.65 C 58.975 66.55 59.65 64.125 62.525 62.65 C 64.264 61.7 66.264 61.34 68.225 61.625 C 68.55 61.975 67.2 64.95 65.525 66.625 C 63.85 68.3 61.475 69.2 60.025 67.65 Z "/>
          <path id="Shape" fill="#FFAC33" stroke="#5E154D" stroke-width="0.6" stroke-linecap="round" stroke-linejoin="round" d="M 57.45 65.675 C 55.975 65.175 55.25 63.4 55.95 60.675 C 56.705 58.367 58.594 56.611 60.95 56.025 C 61.7 56.025 60.45 57.85 60.75 60.25 C 61.14 61.546 61.14 62.929 60.75 64.225 C 60.516 64.863 60.031 65.379 59.409 65.653 C 58.786 65.926 58.079 65.934 57.45 65.675 Z "/>
          <path id="Shape" fill="#FFAC33" stroke="#5E154D" stroke-width="0.6" stroke-linecap="round" stroke-linejoin="round" d="M 53.25 54.3 C 53.525 54.15 53.25 56.45 54.1 58.25 C 55.145 59.67 55.916 61.273 56.375 62.975 C 56.642 63.76 56.501 64.627 56 65.288 C 55.499 65.949 54.703 66.319 53.875 66.275 C 51.95 66.075 50.675 64.35 50.4 61.525 C 49.971 58.778 51.062 56.014 53.25 54.3 Z "/>
          <path id="Shape" fill="#FFAC33" stroke="#5E154D" stroke-width="0.6" stroke-linecap="round" stroke-linejoin="round" d="M 45.625 56.5 C 45.925 56.35 46.85 57.975 48.8 59.25 C 50.233 60.049 51.411 61.236 52.2 62.675 C 52.95 64.325 53.15 66.05 51.975 67.025 C 50.8 68 47.9 67.575 46.175 64.375 C 44.948 61.929 44.75 59.093 45.625 56.5 Z "/>
          <path id="Shape" fill="#FFAC33" stroke="#5E154D" stroke-width="0.6" stroke-linecap="round" stroke-linejoin="round" d="M 39.825 61.3 C 40.1 61.175 41.925 61.975 44.825 62.275 C 47.408 62.368 49.753 63.811 51 66.075 C 51.595 67.375 51.136 68.914 49.925 69.675 C 47.266 70.483 44.382 69.604 42.625 67.45 C 40.879 65.877 39.865 63.65 39.825 61.3 Z "/>
          <path id="Shape" fill="#FFAC33" stroke="#5E154D" stroke-width="0.6" stroke-linecap="round" stroke-linejoin="round" d="M 35.5 71.775 C 36.851 70.933 38.283 70.229 39.775 69.675 C 41.768 68.569 43.997 67.961 46.275 67.9 C 48.575 67.9 49.55 69.025 49.55 70.75 C 49.55 72.475 47.05 73.9 43.975 74 C 39.6 74.125 35.325 72.425 35.5 71.775 Z "/>
          <path id="Shape" fill="#CE8049" stroke="#5E154D" stroke-width="0.6" stroke-linecap="round" stroke-linejoin="round" d="M 62.3 70.9 C 62.046 74.632 58.835 77.464 55.1 77.25 C 50.85 77.25 47.6 74.925 47.925 70.675 C 48.318 67.056 51.464 64.37 55.1 64.55 C 56.903 64.413 58.684 65.01 60.04 66.206 C 61.396 67.402 62.211 69.094 62.3 70.9 Z "/>
          <path id="Shape" fill="none" stroke="#5E154D" stroke-width="0.6" stroke-linecap="round" stroke-linejoin="round" d="M 47.925 70.675 C 50.156 69.631 52.52 68.899 54.95 68.5 C 57.154 68.124 59.394 68.006 61.625 68.15 "/>
          <path id="Shape" fill="none" stroke="#5E154D" stroke-width="0.6" stroke-linecap="round" stroke-linejoin="round" d="M 48.775 74.3 C 51.02 73.627 53.298 73.068 55.6 72.625 C 59.175 71.975 62.3 71.55 62.3 71.55 "/>
          <path id="Shape" fill="none" stroke="#5E154D" stroke-width="0.6" stroke-linecap="round" stroke-linejoin="round" d="M 49.45 67.025 C 50.082 68.474 50.6 69.97 51 71.5 C 51.422 73.251 51.715 75.031 51.875 76.825 "/>
          <path id="Shape" fill="none" stroke="#5E154D" stroke-width="0.6" stroke-linecap="round" stroke-linejoin="round" d="M 53.075 64.875 C 54.012 66.795 54.725 68.817 55.2 70.9 C 55.669 72.961 55.937 75.062 56 77.175 "/>
          <path id="Shape" fill="none" stroke="#5E154D" stroke-width="0.6" stroke-linecap="round" stroke-linejoin="round" d="M 57.375 64.875 C 58.097 66.49 58.682 68.162 59.125 69.875 C 59.503 71.695 59.737 73.543 59.825 75.4 "/>
          <path id="Shape" fill="none" stroke="#FFFFFF" stroke-width="1.2" stroke-linecap="round" stroke-linejoin="round" d="M 61.95 103.05 C 61.95 103.325 61.95 103.3 61.775 103.75 "/>
          <path id="Shape" fill="none" stroke="#FFDB48" stroke-width="0.6" stroke-linecap="round" stroke-linejoin="round" d="M 43.75 63.325 C 45.512 63.526 47.214 64.088 48.75 64.975 "/>
          <path id="Shape" fill="none" stroke="#FFDB48" stroke-width="0.6" stroke-linecap="round" stroke-linejoin="round" d="M 40.475 70.675 C 41.946 69.859 43.543 69.293 45.2 69 "/>
          <path id="Shape" fill="none" stroke="#FFDB48" stroke-width="0.6" stroke-linecap="round" stroke-linejoin="round" d="M 53.5 59.55 C 54.399 60.475 54.992 61.653 55.2 62.925 "/>
          <path id="Shape" fill="none" stroke="#FFDB48" stroke-width="0.6" stroke-linecap="round" stroke-linejoin="round" d="M 62.85 66.8 C 63.773 66.317 64.57 65.623 65.175 64.775 "/>
          <path id="Shape" fill="none" stroke="#EF9426" stroke-width="0.6" stroke-linecap="round" stroke-linejoin="round" d="M 44.125 78.3 C 45.236 77.814 46.258 77.146 47.15 76.325 "/>
          <path id="Shape" fill="none" stroke="#EF9426" stroke-width="0.6" stroke-linecap="round" stroke-linejoin="round" d="M 54.675 81.5 C 54.433 82.495 54.124 83.472 53.75 84.425 "/>
          <path id="Shape" fill="none" stroke="#EF9426" stroke-width="0.6" stroke-linecap="round" stroke-linejoin="round" d="M 61.75 79.625 C 62.571 80.162 63.283 80.849 63.85 81.65 "/>
          <path id="Shape" fill="none" stroke="#EF9426" stroke-width="0.6" stroke-linecap="round" stroke-linejoin="round" d="M 65.025 71.175 C 65.953 70.785 66.944 70.565 67.95 70.525 "/>
        </g>
      </g>
    </g>
  </g>
</svg>