<svg xmlns="http://www.w3.org/2000/svg" xmlns:xlink="http://www.w3.org/1999/xlink" version="1.1" width="168.37882398905504" height="114.69078993143785" viewBox="0.13238197891837444 -0.3795376983391634 168.37882398905504 114.69078993143785">
  <!-- Exported by Scratch - http://scratch.mit.edu/ -->
  <g id="ID0.4347897255793214">
    <path id="ID0.6906592580489814" fill="#EFCF38" d="M 76.045 58.637 C 76.5348 51.3199 80.8126 48.2794 85.1557 42.4039 C 80.3651 42.0544 76.3317 44.2108 72.8799 41.3783 C 77.8471 40.4833 80.6542 40.0431 85.3274 38.0306 C 84.1204 36.2007 82.4841 36.2116 80.5756 35.2332 C 76.9364 33.3549 75.9434 29.7351 75.9192 25.4767 L 87.7584 33.0502 C 89.4468 27.627 87.4222 23.8028 89.5919 18.6083 C 91.1739 14.8215 91.856 12.4208 94.5373 9.2944 C 95.7733 7.837 96.5825 5.8971 98.4389 6.3543 C 98.087 11.6177 104.2962 36.9022 100.1902 41.053 C 95.2255 46.0758 83.0888 59.0228 79.6104 58.8994 C 78.2232 58.8305 77.3802 58.0589 76.045 58.637 Z " stroke-width="1.2094361716722233"/>
    <path id="ID0.35857311682775617" fill="#769100" d="M 81.3593 56.7055 C 78.3139 56.2689 77.125 54.9434 74.6554 53.5719 C 75.0605 51.6658 73.9757 49.0691 72.9029 46.5426 C 72.3998 45.3114 69.0654 43.9399 68.844 42.6337 C 68.5477 41.0639 70.039 40.464 70.6896 39.0284 C 72.274 35.6613 73.2706 33.6706 73.6431 29.9564 C 73.937 26.9473 71.3621 22.5341 74.2369 22.002 C 77.4238 21.4275 78.7275 20.8469 81.6387 19.317 C 87.9737 15.9753 90.4615 12.9324 95.0791 8.4974 C 94.495 10.776 92.2986 16.8086 92.1051 19.6968 C 91.7121 25.6012 93.0279 28.9864 94.4357 34.6998 C 95.0162 37.0969 98.9288 39.4868 96.9538 40.8583 C 94.5917 42.4922 92.4051 42.5043 89.7987 43.6363 C 85.0311 45.7057 81.6882 50.1153 81.3593 56.7055 Z " stroke-width="1.2094361716722233"/>
    <path id="ID0.4100918071344495" fill="#272525" d="M 82.2337 55.3848 C 81.3919 55.917 80.9045 54.8406 80.1885 54.7438 C 82.8058 46.0214 89.3875 42.0508 96.684 39.8593 C 92.3252 33.8774 90.2934 20.0777 93.4113 11.7145 C 88.1358 19.5129 88.605 28.0685 91.1424 36.7813 C 86.4256 35.4678 80.9831 30.0459 76.2397 26.3003 C 76.299 31.883 85.4375 36.2745 89.6911 37.8093 C 89.8205 38.8554 78.2595 40.8921 73.4459 41.4727 C 76.2059 43.4271 86.5429 40.5886 88.1829 40.435 C 82.6993 44.9994 78.9537 52.1532 78.176 55.6485 C 77.5 55.6267 77.015 55.1115 76.5639 54.6531 C 77.6983 51.0417 81.3859 45.4299 84.1434 42.7837 C 80.3724 43.7984 74.867 43.975 71.2774 41.4182 C 74.9928 40.2451 83.6911 37.7041 83.8846 37.4888 C 77.2581 34.6877 74.8477 31.2723 74.9783 23.7314 C 75.7983 23.6855 87.0823 31.9266 88.6413 33.0223 C 86.3603 21.4976 89.8253 15.8362 95.7322 7.2916 C 96.1096 7.1658 96.3938 7.6605 96.2801 7.9495 C 95.6367 9.5931 94.8433 11.0324 94.3474 12.7679 C 92.3059 19.8963 93.115 27.8992 96.112 34.6067 C 96.811 36.1778 97.9032 37.5662 98.5913 39.078 C 98.907 39.7722 99.0195 41.2925 98.3119 41.792 C 98.1777 41.8887 93.6641 42.5672 92.9336 42.9204 C 87.8443 45.3828 83.2121 47.1486 82.2337 55.3848 Z " stroke-width="1.2094361716722233"/>
    <path id="ID0.22899190336465836" fill="#272525" d="M 95.9028 7.265 C 96.0382 8.9267 83.6705 22.1737 74.1305 22.4313 C 75.3931 32.4684 72.0575 37.9145 69.6507 41.4025 C 71.9366 44.1491 75.9725 47.798 74.9009 53.6541 L 74.4087 53.6178 C 74.3421 47.2272 69.0363 43.9387 67.4604 42.3785 C 71.6427 37.7428 73.8801 27.6258 72.0079 21.6585 C 81.9241 21.5303 95.2122 7.2662 95.9028 7.265 Z " stroke-width="1.2094361716722233"/>
    <path id="ID0.8494717287831008" fill="#EFCF38" d="M 52.5856 43.4187 C 52.1248 38.772 50.2175 35.9238 46.4513 33.3779 C 44.0494 31.7585 42.6779 30.393 39.8405 30.1741 C 32.3493 29.596 31.7712 32.0971 28.3316 34.7204 C 28.4235 34.6914 28.5226 34.672 28.6267 34.6599 C 28.7234 34.5958 28.8129 34.5257 28.9387 34.4845 C 29.5882 34.2753 30.2171 34.0104 30.8907 33.8835 C 31.0637 33.771 31.2644 33.6875 31.5233 33.6863 C 31.7083 33.5412 31.932 33.4348 32.2332 33.4348 C 32.3045 33.4348 32.3602 33.4553 32.4243 33.465 C 32.5876 33.3646 32.7774 33.2933 33.0133 33.2884 C 33.1753 33.1977 33.3616 33.1336 33.5926 33.1336 C 33.6071 33.1336 33.6156 33.1397 33.6289 33.1409 C 33.7764 33.0731 33.9482 33.0332 34.1465 33.0332 C 34.2808 33.0332 34.386 33.0731 34.4973 33.1058 C 34.6085 33.0731 34.7174 33.0332 34.8528 33.0332 C 34.8625 33.0332 34.8698 33.0381 34.8794 33.0393 C 34.9701 33.0187 35.05 32.9836 35.1552 32.9836 C 35.2858 32.9836 35.3826 33.0284 35.4902 33.0586 C 35.6051 33.0223 35.7188 32.9836 35.8603 32.9836 C 36.0635 32.9836 36.2352 33.0296 36.384 33.101 C 36.4142 33.0997 36.4348 33.084 36.465 33.084 C 36.5956 33.084 36.7129 33.1046 36.8206 33.1348 C 37.0322 33.1348 37.21 33.1856 37.3636 33.263 C 37.4386 33.2715 37.5015 33.2969 37.5668 33.3162 C 37.6212 33.3102 37.6648 33.2848 37.724 33.2848 C 38.0711 33.2848 38.3312 33.4106 38.5211 33.5956 C 38.6577 33.6283 38.7726 33.6875 38.8754 33.7577 C 38.9528 33.7807 39.0205 33.8145 39.0871 33.8508 C 39.312 33.9076 39.4898 34.0225 39.6253 34.1701 C 39.7474 34.21 39.8502 34.2717 39.9421 34.3443 C 40.2687 34.412 40.4961 34.6007 40.646 34.8389 C 40.796 34.897 40.9121 34.9901 41.0137 35.0953 C 41.2 35.1957 41.3402 35.3432 41.4382 35.5138 C 41.466 35.5404 41.4757 35.5815 41.5011 35.6117 C 41.6233 35.694 41.7091 35.804 41.7817 35.9226 C 42.0514 36.052 42.2256 36.2818 42.3223 36.543 C 42.615 36.7244 42.7686 37.0328 42.8218 37.3582 C 42.8448 37.3787 42.8593 37.4053 42.8799 37.4271 C 43.0008 37.5251 43.0867 37.6496 43.1568 37.7827 C 43.2076 37.8456 43.2221 37.929 43.2572 38.0004 C 43.4664 38.1806 43.5862 38.4334 43.6345 38.6994 C 43.7434 38.8252 43.816 38.9764 43.8631 39.136 C 44.0445 39.3344 44.1389 39.5932 44.1607 39.8593 C 44.18 39.9028 44.1764 39.9512 44.1897 39.9972 C 44.3106 40.1653 44.3711 40.3672 44.3965 40.5728 C 44.5997 40.8123 44.6892 41.1304 44.6747 41.4449 C 44.6819 41.4557 44.6831 41.4727 44.6892 41.486 C 44.7847 41.5646 44.798 41.7291 44.7605 41.9069 C 44.7654 41.9238 44.7593 41.948 44.7617 41.9661 C 44.8609 41.9964 44.8972 42.0931 44.9093 42.2056 C 44.925 42.254 44.9274 42.312 44.925 42.3725 C 45.1076 42.4414 45.104 42.716 45.0073 42.9748 C 45.0266 42.9966 45.0206 43.0377 45.0327 43.0655 C 45.0581 43.1102 45.0726 43.1622 45.0762 43.2251 C 45.0762 43.23 45.0762 43.2324 45.0762 43.2372 C 45.0786 43.3437 45.0556 43.4634 45.0097 43.5843 C 45.0859 43.6291 45.1621 43.6702 45.2346 43.7246 C 45.433 43.8746 45.3906 44.2169 45.2552 44.4866 C 45.3822 44.8301 45.416 45.3078 45.2963 45.3078 C 45.2334 45.3078 45.1778 45.2594 45.1282 45.1917 C 45.1149 45.1917 45.1089 45.2098 45.0919 45.2001 C 45 45.1469 44.9069 45.0961 44.8137 45.0453 C 45.133 45.5956 45.4499 46.175 45.7668 46.8414 C 46.4477 48.2842 46.3449 49.4041 47.2653 50.6874 C 48.5098 50.1528 48.696 48.9954 49.7869 48.1234 C 50.7763 47.3215 52.3594 47.9637 52.6497 46.6986 C 52.9424 45.4493 52.7041 44.7019 52.5856 43.4187 Z " stroke-width="1.2094361716722233"/>
    <path id="ID0.27197321178391576" fill="#EFCF38" d="M 85.2319 66.7801 C 81.3133 66.4608 79.2004 67.3848 75.2819 68.2048 C 75.5891 70.198 74.3615 71.6928 75.4209 73.3341 C 76.4768 74.9716 78.4191 73.5469 80.3276 73.5469 C 80.4861 73.5469 80.6191 73.5397 80.7691 73.5372 C 80.9481 73.201 81.2698 72.9434 81.7693 72.9434 C 81.8164 72.9434 81.8551 72.9543 81.8987 72.9591 C 82.091 72.687 82.3921 72.4899 82.8275 72.4899 C 82.9509 72.4899 83.0477 72.5274 83.1505 72.5552 C 83.5363 72.0678 84.1301 71.734 84.944 71.734 C 85.042 71.734 85.1255 71.7521 85.2174 71.7606 C 85.4907 71.6505 85.7991 71.5828 86.1535 71.5828 C 86.2889 71.5828 86.399 71.6191 86.5224 71.636 C 86.6893 71.6021 86.8695 71.5828 87.0606 71.5828 C 87.6302 71.5828 88.0886 71.7509 88.4466 72.0146 C 88.9775 72.1863 89.3766 72.5201 89.633 72.947 C 90.5208 72.9361 91.4 73.0063 92.2515 73.2966 C 91.0602 70.0214 88.5554 67.0474 85.2319 66.7801 Z " stroke-width="1.2094361716722233"/>
    <path id="ID0.5237613837234676" fill="#769100" d="M 5.1491 14.0801 C 9.4087 13.0836 12.6802 12.8344 16.3267 15.3621 C 20.6879 18.3894 19.4966 23.3033 24.6416 24.6204 C 33.6386 26.9703 39.7377 20.4902 48.7686 22.0564 C 55.0045 23.1243 56.7424 28.3225 61.0371 33.1663 C 63.6265 36.0858 65.194 37.7948 67.1702 41.2852 C 68.7037 43.9907 69.3508 45.6646 70.9872 48.2649 C 71.4637 49.0474 72.4869 48.4789 73.3044 48.8345 C 75.4512 49.7597 76.8493 49.9738 78.8944 51.1119 C 81.6544 52.6442 83.3585 53.4279 86.2551 54.6737 C 87.0727 52.7507 86.5611 51.2546 87.6169 49.4029 C 89.0501 46.9103 92.1499 46.4483 94.57 47.8379 C 96.4772 48.9421 97.1231 51.6464 99.3388 51.8968 C 101.9632 52.2173 102.7119 51.9682 105.2009 51.1131 C 103.3275 47.1619 107.8604 42.7111 111.8794 42.8526 C 114.0951 42.924 115.1824 45.0248 115.694 47.2671 C 116.2733 49.6884 118.6922 50.3306 118.6922 52.822 C 120.8752 52.822 122.1995 53.9262 124.2785 53.2489 C 125.8798 52.7507 125.8798 51.0417 127.007 49.6896 C 128.6446 47.7315 130.2072 47.1969 132.4604 46.129 C 135.3219 44.7756 138.4265 44.4189 140.4995 46.8401 C 142.2713 48.9059 142.5434 49.9024 143.6368 52.3951 C 145.6795 56.9547 141.3909 62.7225 137.3646 65.4993 C 131.367 69.6658 126.7325 71.9093 119.644 70.7688 C 113.5799 69.8073 110.4801 64.1448 104.5115 66.2105 C 102.0624 67.0655 100.524 72.3351 102.672 73.7586 C 103.729 74.4709 106.524 74.3645 106.6909 75.6828 C 106.8965 77.1764 105.6702 77.4256 104.3761 78.0315 C 101.4105 79.4199 97.013 79.5989 94.6982 77.1764 C 92.6167 75.0043 91.1497 72.1911 88.4236 71.0531 C 85.3226 69.7698 85.527 69.9488 82.2893 70.9103 C 79.6987 71.6941 77.5858 71.6227 76.0184 73.9025 C 79.7665 77.4268 83.2762 75.4336 86.9263 79.0305 C 88.5627 80.6306 88.5965 84.4064 86.7921 85.8662 C 85.1896 87.1482 82.836 85.8662 81.883 83.8731 C 81.1331 85.6159 81.4403 87.7542 79.7024 88.2851 C 78.5086 88.6443 77.1807 87.8243 76.8396 86.5774 C 76.0898 83.8731 77.2835 80.8809 74.7945 79.5977 C 72.8521 78.5999 72.2389 76.9261 70.1599 76.4641 C 66.0019 75.5364 63.514 76.9261 59.2544 76.4641 C 55.9152 76.1073 54.5521 73.7574 51.2129 73.3304 C 48.1796 72.9374 45.1125 71.9057 43.8522 69.0575 C 42.2848 65.5671 41.1939 64.8196 40.1731 61.0813 C 39.3894 58.1955 39.8998 55.9532 37.8547 53.8174 L 30.9028 61.6497 C 28.4489 59.6203 28.0752 57.3066 25.1786 55.8105 C 27.0532 52.4277 27.3592 50.0064 27.3592 46.1254 C 30.8012 46.695 32.573 48.9736 35.9462 48.4039 C 38.8089 47.9057 40.1381 46.4459 43.0347 46.1254 C 43.955 46.0177 44.6372 46.4096 45.4886 46.1254 C 46.8855 45.6622 46.2723 44.5217 46.3062 42.9917 C 46.3751 40.7119 46.2385 39.2872 45.2153 37.2941 C 43.4096 33.8048 40.2397 33.4142 36.4916 32.5942 C 28.6194 30.8502 21.3954 38.2556 15.9082 32.0246 C 13.3865 29.14 12.4311 25.5093 11.0003 21.9125 C 9.4087 17.8548 8.1473 17.2126 5.1491 14.0801 Z " stroke-width="1.2094361716722233"/>
    <path id="ID0.8726960164494812" fill="#EFCF38" d="M 67.3758 69.6985 L 56.8791 68.5592 C 57.2201 70.7688 56.6578 71.7316 54.9706 73.045 C 54.2897 73.5796 53.1141 74.2907 53.6765 74.968 C 54.4336 75.8799 55.0565 76.3818 55.9442 76.9285 C 56.0264 76.9418 56.1002 76.9345 56.1885 76.9684 C 60.1119 78.4669 64.0837 77.9589 68.1631 77.63 C 68.174 77.6288 68.1801 77.6336 68.1909 77.6336 C 68.2913 77.5792 68.4111 77.5501 68.5356 77.526 C 68.7279 77.3179 69.0025 77.1764 69.3726 77.1764 C 69.5878 77.1764 69.7656 77.2284 69.9216 77.3083 L 67.3758 69.6985 Z " stroke-width="1.2094361716722233"/>
    <path id="ID0.8857720550149679" fill="#272525" d="M 101.263 70.8704 C 102.2245 70.0166 106.3148 68.6995 107.2702 70.1859 C 108.0491 71.3965 105.935 73.4828 104.7232 74.4782 C 104.0096 74.0791 101.5339 71.4256 101.263 70.8704 Z " stroke-width="1.2094361716722233"/>
    <path id="ID0.822335965000093" fill="#FFFFFF" d="M 105.8056 70.9998 C 106.062 71.4437 104.7207 72.9761 103.9491 73.172 C 103.4569 72.5975 102.9562 71.6662 102.9562 71.6662 C 102.9562 71.6662 105.2517 70.0347 105.8056 70.9998 Z " stroke-width="1.2094361716722233"/>
    <path id="ID0.6341359852813184" fill="#272525" d="M 109.1243 67.3921 C 110.3083 67.5457 112.7599 67.6957 113.9125 68.0609 C 113.8314 69.3768 111.8963 73.3655 110.2116 73.051 C 108.5583 72.7414 108.9393 68.4092 109.1243 67.3921 Z " stroke-width="1.2094361716722233"/>
    <path id="ID0.287348082754761" fill="#FFFFFF" d="M 110.6688 71.382 C 110.1862 71.2659 110.0592 69.1929 110.4607 68.4782 C 111.1985 68.5072 112.1878 68.7769 112.1878 68.7769 C 112.1878 68.7769 111.7149 71.6372 110.6688 71.382 Z " stroke-width="1.2094361716722233"/>
    <path id="ID0.8399602132849395" fill="#272525" d="M 119.0731 71.6638 C 120.2584 71.8162 122.7087 71.9686 123.8637 72.3339 C 123.7815 73.6497 121.8488 77.6372 120.1604 77.3228 C 118.5095 77.0156 118.8905 72.6846 119.0731 71.6638 Z " stroke-width="1.2094361716722233"/>
    <path id="ID0.9670137828215957" fill="#FFFFFF" d="M 120.6188 75.6586 C 120.1362 75.5413 120.0104 73.4671 120.4108 72.7547 C 121.1461 72.7801 122.1403 73.0523 122.1403 73.0523 C 122.1403 73.0523 121.6662 75.9126 120.6188 75.6586 Z " stroke-width="1.2094361716722233"/>
    <path id="ID0.6079672141931951" fill="#272525" d="M 137.1155 66.7342 C 137.9597 65.8525 139.5827 63.9307 140.5672 63.2038 C 141.5082 64.0807 143.3247 68.1286 142.0524 69.3236 C 140.8031 70.4931 137.7698 67.5106 137.1155 66.7342 Z " stroke-width="1.2094361716722233"/>
    <path id="ID0.27255822252482176" fill="#FFFFFF" d="M 141.0764 67.9206 C 140.6918 68.2472 139.0518 67.074 138.7591 66.3024 C 139.2368 65.7146 140.0484 65.0651 140.0484 65.0651 C 140.0484 65.0651 141.9133 67.2143 141.0764 67.9206 Z " stroke-width="1.2094361716722233"/>
    <path id="ID0.26858658250421286" fill="#272525" d="M 129.2614 70.5536 C 130.4043 70.1883 132.7035 69.2861 133.896 69.1301 C 134.3338 70.3649 134.1234 74.8325 132.4592 75.2595 C 130.8288 75.6828 129.4912 71.5634 129.2614 70.5536 Z " stroke-width="1.2094361716722233"/>
    <path id="ID0.584137849509716" fill="#FFFFFF" d="M 132.2257 73.5457 C 131.7371 73.6449 130.8204 71.8041 130.9075 70.9817 C 131.592 70.6939 132.6007 70.5197 132.6007 70.5197 C 132.6007 70.5197 133.2828 73.3316 132.2257 73.5457 Z " stroke-width="1.2094361716722233"/>
    <path id="ID0.8667866848409176" fill="#EFCF38" d="M 71.3972 59.7993 C 71.3972 51.6803 75.895 47.977 80.2575 41.1413 C 74.9408 41.1413 70.6473 43.8468 66.6259 40.9986 C 72.0442 39.6101 75.1113 38.8978 80.1208 36.2987 C 78.6562 34.3757 76.8493 34.5184 74.6675 33.592 C 70.5094 31.8129 69.1476 27.8955 68.8065 23.1945 L 82.4369 30.601 C 83.9015 24.4765 81.3798 20.4176 83.3911 14.5059 C 84.857 10.1979 85.4351 7.4923 88.1624 3.8241 C 89.4238 2.114 90.1737 -0.0932 92.2527 0.2635 C 92.2527 6.1039 100.9763 33.5218 96.7506 38.4358 C 91.6395 44.3814 79.2004 59.6565 75.3496 59.7993 C 73.816 59.8367 72.8279 59.0518 71.3972 59.7993 Z " stroke-width="1.2094361716722233"/>
    <path id="ID0.34107698779553175" fill="#769100" d="M 77.1214 57.2377 C 73.7277 57.0006 72.3163 55.6352 69.4887 54.3169 C 69.7947 52.1822 68.405 49.4017 67.0347 46.6974 C 66.3865 45.3804 62.6046 44.1334 62.2635 42.7099 C 61.8208 40.9998 63.4221 40.2161 64.0353 38.5785 C 65.535 34.7325 66.4893 32.4539 66.6259 28.3225 C 66.7275 24.976 63.5588 20.3112 66.6937 19.4924 C 70.1708 18.601 71.5665 17.8536 74.6675 15.9318 C 81.4149 11.7302 83.9366 8.1696 88.7066 2.8989 C 88.2277 5.4629 86.2551 12.2999 86.2551 15.5037 C 86.2551 22.0552 87.958 25.6871 89.9342 31.883 C 90.753 34.4821 93.6496 37.0473 91.5706 38.72 C 89.0839 40.7144 88.7102 41.2489 85.914 42.7087 C 80.8029 45.3779 77.5653 51.2909 77.1214 57.2377 Z " stroke-width="1.2094361716722233"/>
    <path id="ID0.9021956860087812" fill="#272525" d="M 78.2172 57.0103 C 77.3258 57.6646 76.5614 57.2316 75.7632 57.182 C 78.0079 47.3384 83.6838 40.3636 91.5766 37.3545 C 86.3228 31.1018 84.2789 16.0745 87.1053 6.5889 C 81.8539 15.6246 83.0065 25.034 86.4522 34.4483 C 81.144 33.3791 74.7376 27.8326 69.2214 24.0798 C 69.7003 30.2382 80.1148 34.3503 84.9223 35.7024 C 85.146 36.8454 72.5292 40.0286 67.2585 41.0578 C 70.449 42.9941 81.6532 39.0248 83.4516 38.7224 C 77.7358 44.2048 74.1293 52.406 73.5282 56.327 C 72.7807 56.3584 72.2063 55.8287 71.6741 55.3582 C 72.6574 51.2788 76.3171 44.7865 79.1666 41.6408 C 75.0763 43.0655 69.0109 43.7065 64.8589 41.1715 C 68.8743 39.5751 78.2897 36.0689 78.4905 35.8173 C 70.9678 33.2594 68.0531 29.6819 67.6394 21.3452 C 68.5429 21.2291 80.2333 28.7518 82.0354 29.8355 C 78.6671 17.2912 83.4504 11.4303 89.3403 1.5177 C 89.7467 1.3484 90.0987 1.8721 89.9947 2.2011 C 89.4069 4.0672 88.6389 5.7193 88.2168 7.6774 C 86.4885 15.7129 87.9773 24.4837 91.7774 31.6484 C 92.6627 33.3259 93.9725 34.77 94.8457 36.3858 C 95.2448 37.1272 95.4807 38.7962 94.7344 39.4057 C 94.5929 39.5231 90.5607 41.2102 89.7757 41.6589 C 84.3454 44.7853 78.6901 47.8367 78.2172 57.0103 Z " stroke-width="1.2094361716722233"/>
    <path id="ID0.12352398922666907" fill="#272525" d="M 89.5278 1.4754 C 89.7987 3.298 77.1214 18.9215 66.6029 19.9786 C 68.7388 30.959 65.4576 37.2409 63.0581 41.2864 C 65.7842 44.1334 70.5094 47.8379 69.7608 54.3882 L 69.2153 54.3882 C 68.6699 47.3384 62.5683 44.1346 60.713 42.5406 C 64.9896 37.0836 66.7106 25.7343 64.2034 19.2952 C 75.1452 18.3519 88.7634 1.5322 89.5278 1.4754 Z " stroke-width="1.2094361716722233"/>
    <path id="ID0.3471745355054736" fill="#272525" d="M 63.4899 35.7278 C 63.1996 33.7359 60.8291 29.5283 59.841 28.037 C 48.927 11.5645 29.9788 28.4894 23.2011 22.1132 C 19.4833 18.6155 18.494 15.3501 13.1689 12.826 C 8.1473 10.4458 0.7395 14.3051 0.7371 15.2763 C 11.6232 13.2964 10.2239 30.6373 17.749 35.1038 C 20.9963 37.0316 24.1965 36.1741 27.4475 35.0312 C 27.497 35.0058 27.5551 34.9937 27.6119 34.9756 C 27.7909 34.9127 27.9699 34.8474 28.1489 34.7821 C 28.1973 34.7567 28.2529 34.7434 28.3074 34.7252 C 28.496 34.6575 28.6847 34.591 28.8734 34.5232 C 28.8988 34.5136 28.9133 34.4954 28.9399 34.4858 C 29.3003 34.3696 29.6559 34.2414 30.0151 34.1241 C 30.3441 34.0117 30.673 33.904 31.0032 33.8012 C 31.0286 33.7891 31.0588 33.7867 31.0842 33.777 C 33.2975 33.0961 35.547 32.697 37.868 33.338 C 42.5364 34.626 45.5648 40.5003 45.4148 46.7676 C 45.8841 47.1715 46.5203 47.1401 46.9956 46.7676 C 47.2169 41.5646 46.8613 36.3543 43.2475 33.0937 C 34.2554 24.9832 23.0137 37.2155 16.6581 31.2856 C 11.189 26.183 13.2547 18.0205 7.6611 14.1938 C 14.7883 12.4764 17.7611 22.06 22.8202 25.132 C 33.8502 31.8323 46.4513 8.0269 61.9502 37.5662 C 62.9553 37.4985 63.6253 36.6543 63.4899 35.7278 Z " stroke-width="1.2094361716722233"/>
    <path id="ID0.11598530365154147" fill="#272525" d="M 53.4044 48.2649 L 51.6495 47.2393 C 52.12 41.1872 49.5185 32.7393 38.4098 29.9613 C 47.5422 29.677 57.0678 40.9756 53.4044 48.2649 Z " stroke-width="1.2094361716722233"/>
    <path id="ID0.20384214585646987" fill="#FF1816" d="M 154.258 109.2023 C 154.9619 110.6548 146.9446 116.0816 142.1189 112.5113 C 139.1776 110.3331 139.6662 103.8772 135.5831 102.7935 C 138.3697 100.1291 145.1558 99.4494 147.1357 102.6834 C 147.9726 104.0574 146.9095 105.8473 148.2121 107.081 C 149.736 108.5395 152.3653 108.5141 154.258 109.2023 Z " stroke-width="1.2094361716722233"/>
    <path id="ID0.9845799235627055" fill="#FFEA00" d="M 151.9964 110.373 C 139.2695 116.4045 143.9343 103.1309 139.2356 102.8757 C 146.5938 99.1664 144.2887 108.6702 147.7537 110.1977 C 148.9522 110.725 151.9964 110.373 151.9964 110.373 Z " stroke-width="1.2094361716722233"/>
    <path id="ID0.32422945322468877" fill="#272525" d="M 116.3846 46.7265 C 113.2582 47.2393 114.4543 44.4309 110.7691 43.8782 C 108.366 43.519 103.5669 45.4154 107.3319 52.0831 C 104.7885 51.6114 99.7609 53.2876 99.7609 53.2876 C 99.7609 53.2876 98.699 52.406 98.3809 51.3259 C 99.0848 50.8228 103.29 50.2544 104.0568 49.9157 C 101.7395 40.9792 113.2763 38.8663 116.1088 45.13 C 116.3023 45.5521 116.4583 46.2669 116.3846 46.7265 Z " stroke-width="1.2094361716722233"/>
    <path id="ID0.672332601621747" fill="#272525" d="M 45.4971 45.4154 C 46.7525 46.0286 47.4624 47.1752 47.6825 48.5491 C 49.0806 46.8982 53.5531 45.9645 54.1167 48.7777 C 47.3765 48.1064 48.979 52.5608 46.5868 55.6702 C 45.8019 56.6886 45.2891 57.0236 45.6096 55.4997 C 46.0595 53.3771 46.9726 47.3227 43.8655 46.6116 C 41.9232 46.1677 38.5852 49.1598 36.0151 49.2324 C 33.1741 49.3134 31.2076 48.0726 28.5988 47.2949 C 29.3922 49.9073 29.0052 53.2985 26.8536 55.1006 C 28.5263 56.2592 30.7637 57.6743 31.2148 59.8875 C 32.134 58.8148 37.1846 53.3493 38.1401 53.0506 C 38.642 52.8934 39.6253 55.0643 39.8297 55.7851 C 41.3741 61.2457 42.7904 69.9972 49.2633 71.6239 C 51.8914 72.2855 55.1218 71.3917 56.4606 68.8882 C 58.0135 65.9879 59.0198 63.1204 58.7839 59.7339 C 58.7392 59.0954 58.1454 56.6958 58.1514 56.5834 C 58.1804 56.0294 58.6473 55.9025 59.079 56.0125 C 62.0168 62.6088 59.8095 73.3328 52.3727 75.0418 C 48.742 75.8763 44.0554 71.0797 42.1772 68.206 C 39.9421 64.7894 38.8512 58.9805 38.1425 54.9325 C 35.4999 57.5848 33.6373 60.9845 30.7807 63.4203 C 30.0949 61.2965 26.8234 56.8821 24.0211 56.0125 C 26.0723 53.8754 27.9143 48.0508 26.0917 43.877 C 38.9976 50.7176 38.9093 42.2007 45.4971 45.4154 Z " stroke-width="1.2094361716722233"/>
    <path id="ID0.3665733430534601" fill="#272525" d="M 105.8068 75.0406 C 95.5048 73.8856 99.9386 63.7964 109.567 65.5852 C 114.1773 66.4391 116.693 71.1619 121.6178 70.9394 C 128.1475 70.6455 135.4682 67.4187 139.6868 62.2931 C 142.3778 59.0264 145.9601 49.6884 137.4287 46.4979 C 132.7216 44.7381 127.3469 49.6533 125.2667 53.7339 C 124.0802 53.8186 119.8714 53.6989 118.8312 53.0337 C 119.2424 52.1411 119.0743 52.2415 119.5496 51.3804 C 120.3672 51.4699 124.0681 51.7674 124.9002 51.6803 C 132.8051 38.9329 149.2074 43.432 143.2098 60.3991 C 140.0314 69.3949 126.2536 75.6925 117.692 72.9894 C 113.7903 71.7582 106.9921 64.735 103.1884 69.5715 C 101.6198 71.5695 105.2916 73.7344 105.8068 75.0406 Z " stroke-width="1.2094361716722233"/>
    <path id="ID0.20089088287204504" fill="#272525" d="M 99.4827 50.9982 L 98.7195 51.511 C 102.7095 52.8583 104.7195 55.2276 103.2912 58.5185 C 100.241 65.5598 87.5685 57.9343 94.0209 52.1084 C 94.8167 51.39 96.4736 51.182 97.3637 51.4674 C 92.8211 44.437 85.1085 49.0703 88.6268 56.183 C 88.6268 56.183 81.1367 53.3844 78.4808 52.2512 C 78.1313 51.661 79.4786 50.772 79.9479 50.8131 C 81.652 50.9559 85.3565 53.3203 86.3833 53.7472 C 86.0471 52.2512 85.3008 48.7426 88.5167 46.6116 C 92.7969 43.7754 97.2863 47.1159 99.4827 50.9982 Z " stroke-width="1.2094361716722233"/>
    <path id="ID0.0050763520412147045" fill="#272525" d="M 119.1348 55.6013 C 115.7689 58.0927 109.0082 54.9724 110.3144 50.61 C 111.34 47.1969 115.5343 47.3142 118.4539 49.2965 C 120.7434 50.8458 120.5619 54.5479 119.1348 55.6013 Z " stroke-width="1.2094361716722233"/>
    <path id="ID0.44303235970437527" fill="#FFFFFF" d="M 118.2882 51.6803 C 119.4589 53.5114 117.9484 55.5263 115.29 55.0994 C 113.6089 54.8273 111.3364 53.3191 111.8141 51.182 C 112.1068 49.8722 113.4033 49.2784 115.0856 49.6872 C 116.1487 49.9448 117.6025 50.6075 118.2882 51.6803 Z " stroke-width="1.2094361716722233"/>
    <path id="ID0.18071374716237187" fill="#272525" d="M 117.4029 50.9704 C 117.7984 50.9704 118.1564 51.1385 118.4152 51.4094 C 118.674 51.6791 118.8349 52.054 118.8349 52.4664 C 118.8349 52.8789 118.674 53.2538 118.4152 53.5235 C 118.1564 53.7944 117.7984 53.9625 117.4029 53.9625 C 117.0074 53.9625 116.6494 53.7944 116.3906 53.5235 C 116.1318 53.2538 115.9709 52.8789 115.9709 52.4664 C 115.9709 52.054 116.1318 51.6791 116.3906 51.4094 C 116.6494 51.1385 117.0074 50.9704 117.4029 50.9704 Z " stroke-width="1.2094361716722233"/>
    <path id="ID0.476620614528656" fill="#272525" d="M 138.3104 50.8047 C 139.2622 51.0853 139.9782 53.0204 140.1234 54.2286 C 140.2951 55.6086 139.8742 57.0091 138.6624 57.2703 C 137.0478 57.6174 135.7658 55.9581 135.3509 54.2685 C 134.8575 52.2524 136.0077 50.1238 138.3104 50.8047 Z " stroke-width="1.2094361716722233"/>
    <path id="ID0.563854914624244" fill="#A1BF00" d="M 136.4431 54.2092 C 136.2689 53.5029 136.466 52.4604 137.2715 52.2717 C 138.077 52.0855 138.5596 52.8583 138.9417 53.5912 C 139.7049 55.0607 139.0857 56.3729 138.2427 56.4419 C 137.6138 56.4939 136.8446 55.8565 136.4431 54.2092 Z " stroke-width="1.2094361716722233"/>
    <path id="ID0.5103882467374206" fill="#FFFFFF" d="M 94.8288 55.8686 C 94.3184 51.609 101.6476 52.3467 102.297 56.2629 C 102.9961 60.5007 95.5351 61.7634 94.8288 55.8686 Z " stroke-width="1.2094361716722233"/>
    <path id="ID0.0208440781570971" fill="#272525" d="M 100.5639 54.3193 C 101.1106 54.3193 101.6065 54.5515 101.9657 54.9264 C 102.3249 55.3014 102.5474 55.819 102.5474 56.3899 C 102.5474 56.9607 102.3249 57.4783 101.9657 57.8533 C 101.6065 58.2282 101.1106 58.4604 100.5639 58.4604 C 100.0173 58.4604 99.5214 58.2282 99.1622 57.8533 C 98.803 57.4783 98.5804 56.9607 98.5804 56.3899 C 98.5804 55.819 98.803 55.3014 99.1622 54.9264 C 99.5214 54.5515 100.0173 54.3193 100.5639 54.3193 Z " stroke-width="1.2094361716722233"/>
    <path id="ID0.7392752389423549" fill="#FF1816" d="M 167.9065 62.0077 C 164.716 65.3554 163.9202 74.7805 159.5421 76.4641 C 153.9823 78.6036 150.7991 67.917 144.2209 69.3429 C 148.4612 62.4818 153.6763 67.1841 156.1061 66.4366 C 158.9156 65.5767 161.7033 59.515 167.9065 62.0077 Z " stroke-width="1.2094361716722233"/>
    <path id="ID0.7487614741548896" fill="#FFEA00" d="M 147.4913 68.2605 C 150.6612 65.3494 154.8555 69.5086 157.4135 68.4891 C 159.9363 67.4792 159.6533 63.7529 164.7741 62.5048 C 161.4602 65.2744 162.0517 75.7541 155.7251 73.7283 C 153.0317 72.8684 151.4727 68.4649 147.4913 68.2605 Z " stroke-width="1.2094361716722233"/>
    <path id="ID0.8452975563704967" fill="#272525" d="M 133.775 62.6789 C 132.389 66.2988 126.8063 64.2064 125.6525 61.0244 C 123.877 56.1431 130.7502 56.9849 132.8268 58.8994 C 134.2927 60.248 134.1488 61.7053 133.775 62.6789 Z " stroke-width="1.2094361716722233"/>
    <path id="ID0.823314209934324" fill="#A1BF00" d="M 132.747 60.664 C 133.9311 64.002 129.0776 64.0553 127.8766 61.4646 C 126.1907 57.8267 131.9548 58.4314 132.747 60.664 Z " stroke-width="1.2094361716722233"/>
    <path id="ID0.5328716160729527" fill="#272525" d="M 90.6175 70.198 C 84.141 64.9974 80.1196 68.4056 76.0293 69.2014 C 75.6701 69.2703 76.0124 68.8507 75.8104 68.5314 C 74.33 66.1911 84.453 64.6999 87.7524 66.4221 C 89.7987 67.4925 90.6175 70.198 90.6175 70.198 Z " stroke-width="1.2094361716722233"/>
    <path id="ID0.9395506661385298" fill="#272525" d="M 89.1783 81.9936 C 88.6425 78.8817 86.6844 77.4522 84.3623 76.5064 C 84.1434 76.4568 83.9523 76.3758 83.7745 76.2766 C 81.1017 75.2945 78.0793 74.8011 76.2022 73.1043 C 75.6399 71.2671 76.7271 68.8386 76.8517 67.2784 C 76.9884 65.5695 74.8066 65.1425 74.1256 67.2784 C 71.1202 76.7023 82.5711 75.6296 85.7435 79.9412 C 86.6469 81.17 86.8767 83.3446 86.1765 84.7282 C 84.0176 88.9926 83.0525 81.1652 80.2877 81.3091 C 81.4149 83.584 81.1259 87.6477 78.4349 87.6332 C 75.485 86.3621 78.7481 81.3429 77.6717 79.8251 C 76.5566 78.2577 70.732 78.3774 69.2746 71.7352 C 68.682 69.0333 69.7076 67.9944 70.8553 65.7545 C 69.912 64.2814 67.3746 64.5717 66.7638 66.7233 C 66.4022 68.0029 66.193 69.9549 66.3828 71.2236 C 66.7445 73.6509 68.1196 75.6804 69.9108 77.2986 C 70.068 77.376 70.1901 77.4885 70.2881 77.6203 C 72.0043 79.074 74.0398 80.1758 75.9253 80.9088 C 75.2819 84.5866 74.3953 89.8537 79.8523 89.4002 C 81.092 89.2962 82.3014 86.7213 82.2325 85.1539 C 82.3196 85.1406 84.9199 89.1547 87.5951 87.0636 C 88.9654 85.9944 89.4722 83.6965 89.1783 81.9936 Z " stroke-width="1.2094361716722233"/>
    <path id="ID0.8217857060953975" fill="#272525" d="M 67.6213 68.9305 C 67.6213 69.5014 67.7846 70.4133 66.967 70.4133 L 58.6932 69.586 C 58.2566 69.245 58.4199 68.4467 58.5844 67.9908 C 58.5832 67.9896 66.3671 67.7332 67.6213 68.9305 Z " stroke-width="1.2094361716722233"/>
    <path id="ID0.02687776368111372" fill="#272525" d="M 106.9534 76.2948 C 106.7611 75.8521 105.9907 75.99 105.6435 76.0105 C 103.8995 77.5731 102.1942 77.6554 100.0257 77.4921 C 89.6705 76.706 95.3319 64.6551 78.8219 71.3385 C 78.0914 71.6348 76.5977 72.6701 75.8914 73.0474 C 75.8503 73.992 75.8515 74.4612 76.9267 74.6148 C 77.4588 74.6898 79.2815 73.9569 81.0424 73.2071 C 81.1815 73.0934 81.3544 73.0184 81.5625 72.9845 C 81.7487 72.9047 81.9205 72.8309 82.1007 72.7535 C 82.2385 72.641 82.4103 72.5673 82.6147 72.5322 C 83.0065 72.3641 83.373 72.2069 83.6874 72.0787 C 83.9124 71.9396 84.1664 71.8344 84.4615 71.7811 C 84.505 71.7666 84.5558 71.7473 84.5921 71.7364 C 85.4169 71.4909 86.1982 71.4667 86.942 71.5937 C 86.9819 71.5925 87.017 71.5816 87.0594 71.5816 C 87.6193 71.5816 88.0668 71.7485 88.4236 72.0073 C 88.8106 72.1282 89.1311 72.3314 89.3754 72.5999 C 91.2101 73.7948 92.7522 75.7626 94.0281 77.3784 C 98.2648 82.7386 108.3055 79.4623 106.9534 76.2948 Z " stroke-width="1.2094361716722233"/>
    <path id="ID0.060609509237110615" fill="#FF1816" d="M 150.2645 80.1492 C 147.0111 76.2222 141.5118 75.736 138.7289 80.6221 C 137.2268 83.2575 135.9363 86.1553 133.6601 88.2355 C 130.8772 90.7802 124.7659 90.0521 121.7968 88.2077 C 120.6623 87.5026 119.1505 86.2339 118.3063 85.1769 C 118.004 86.9063 118.9038 89.2732 120.2233 90.3569 C 124.0923 93.5389 133.1534 86.8725 137.54 98.6621 C 136.847 99.2934 136.2399 98.3488 135.6267 98.1323 C 126.7071 94.9201 123.265 105.3926 113.9911 98.5109 C 106.3063 92.8132 114.6647 85.6751 111.5275 78.7934 C 110.4946 76.5318 109.1352 74.552 106.8748 73.4901 C 113.8568 70.5947 117.6895 77.1813 121.798 80.2242 C 128.2745 85.0329 132.1701 71.7424 140.8297 72.0484 C 144.8208 72.1911 148.9595 75.1833 150.2645 80.1492 Z " stroke-width="1.2094361716722233"/>
    <path id="ID0.780435835942626" fill="#FFEA00" d="M 146.4681 75.5316 C 139.4666 71.4425 135.7379 81.3962 133.0893 85.1224 C 127.983 92.3053 119.1058 84.404 117.3412 82.4568 C 116.6676 85.6848 115.8802 90.0134 118.7889 92.2436 C 124.2169 96.404 130.4551 89.1813 134.8466 96.7717 C 133.4908 96.2855 132.3019 95.4667 130.8409 95.3385 C 125.7819 94.8995 123.392 99.5764 117.4561 97.9848 C 115.0965 97.3522 113.1118 94.9648 112.8457 92.3428 C 112.7272 91.1865 113.9221 86.2617 114.1447 84.6314 C 114.9889 78.4959 112.085 75.5679 109.0203 73.4828 C 116.4668 73.4526 117.565 86.9088 127.8996 82.9648 C 134.0629 80.6149 136.2641 70.6007 144.2439 74.327 C 144.9817 74.6681 145.8476 74.9934 146.4681 75.5316 Z " stroke-width="1.2094361716722233"/>
    <path id="ID0.12093066517263651" fill="#272525" d="M 68.8743 75.1107 C 64.3764 76.3951 57.4524 74.6838 54.2353 72.6326 C 53.3633 73.3171 52.3812 73.9992 52.1091 74.968 C 54.7408 76.8342 58.3195 77.7364 61.5802 77.9626 C 63.231 78.0146 64.894 77.9033 66.5751 77.763 C 67.3044 77.6554 68.0978 77.5175 68.7775 77.3433 C 68.9263 77.2575 69.098 77.2018 69.3048 77.1909 C 69.7668 77.041 70.1369 76.8729 70.3075 76.6781 C 70.9049 76.1073 68.9287 75.6235 68.8743 75.1107 Z " stroke-width="1.2094361716722233"/>
    <path id="ID0.8654435686767101" fill="#FF1816" d="M 134.6325 92.1154 C 134.8418 89.4232 136.6499 87.0974 138.8982 85.865 C 142.3584 83.9735 145.7678 86.7322 148.7454 88.221 C 151.503 89.6046 154.7672 88.9878 157.5392 88.0094 C 157.7473 91.8795 155.3018 98.0646 151.4667 97.7477 C 146.9422 97.3728 142.4745 87.6018 134.6325 92.1154 Z " stroke-width="1.2094361716722233"/>
    <path id="ID0.3718892759643495" fill="#FFEA00" d="M 137.9234 89.4232 C 142.9522 83.3869 147.4175 93.5304 153.7827 91.1539 L 156.2476 90.2323 C 155.5824 91.8675 153.4538 94.1823 151.7642 94.5814 C 147.0438 95.6893 143.7771 86.6729 137.9234 89.4232 Z " stroke-width="1.2094361716722233"/>
  </g>
</svg>