<svg xmlns="http://www.w3.org/2000/svg" xmlns:xlink="http://www.w3.org/1999/xlink" version="1.1" width="37.03900325298309" height="35.67590510845184" viewBox="0.5500472187995911 0.4000471234321594 37.03900325298309 35.67590510845184">
  <!-- Exported by Scratch - http://scratch.mit.edu/ -->
  <path id="Orange" fill="#FAAC18" stroke="#000000" stroke-width="2.1833056211471558" d="M 19.0695 34.9843 C 28.5705 34.9843 36.4974 28.4191 36.4974 18.921 C 36.4981 9.4214 28.5691 1.4917 19.0695 1.4917 C 9.57 1.4917 1.6417 9.42 1.6417 18.9203 C 1.6417 28.4198 9.5692 34.9843 19.0695 34.9843 L 19.0695 34.9843 L 19.0695 34.9843 Z "/>
  <g id="Bumps">
    <path id="ID0.804985926952213" fill="#231F20" d="M 10.9139 28.3769 C 10.8033 28.3681 10.8324 28.7859 10.3172 28.7859 C 9.8019 28.7859 9.8616 28.4147 9.7233 28.4271 C 9.4438 28.4511 9.5778 29.4554 10.3579 29.4314 C 11.1439 29.4074 11.1359 28.3943 10.9139 28.3769 L 10.9139 28.3769 Z " stroke-width="0.7277685403823853"/>
    <path id="ID0.9794910699129105" fill="#231F20" d="M 17.482 30.1068 C 17.3416 30.0959 17.378 30.6184 16.7339 30.6184 C 16.0898 30.6184 16.1655 30.1534 15.9916 30.1694 C 15.6422 30.1992 15.8096 31.4568 16.7848 31.4255 C 17.771 31.3942 17.7593 30.1279 17.482 30.1068 L 17.482 30.1068 Z " stroke-width="0.7277685403823853"/>
    <path id="ID0.9470401261933148" fill="#231F20" d="M 24.3049 28.2459 C 24.1651 28.2357 24.2015 28.7575 23.5575 28.7575 C 22.9134 28.7575 22.9898 28.2917 22.8151 28.3085 C 22.4658 28.339 22.6332 29.5959 23.6084 29.5646 C 24.5938 29.5311 24.5829 28.2655 24.3049 28.2459 L 24.3049 28.2459 Z " stroke-width="0.7277685403823853"/>
    <path id="ID0.7090954459272325" fill="#231F20" d="M 23.0204 31.5623 C 22.8806 31.5514 22.9156 32.0739 22.2729 32.0739 C 21.6303 32.0739 21.7038 31.6089 21.5299 31.6249 C 21.1813 31.6547 21.348 32.9123 22.3246 32.881 C 23.3086 32.8497 23.2976 31.5834 23.0204 31.5623 L 23.0204 31.5623 Z " stroke-width="0.7277685403823853"/>
    <path id="ID0.44101877231150866" fill="#231F20" d="M 19.7185 24.3472 C 19.6064 24.3385 19.6355 24.7562 19.1203 24.7562 C 18.605 24.7562 18.6647 24.3851 18.5264 24.3974 C 18.2469 24.4215 18.3823 25.4265 19.161 25.4032 C 19.9492 25.3763 19.9397 24.364 19.7185 24.3472 L 19.7185 24.3472 Z " stroke-width="0.7277685403823853"/>
    <path id="ID0.06726754968985915" fill="#231F20" d="M 7.1645 22.4863 C 7.0524 22.4783 7.0815 22.8953 6.5662 22.8953 C 6.051 22.8953 6.1107 22.5234 5.9724 22.5373 C 5.6929 22.5606 5.8283 23.5656 6.607 23.5416 C 7.3952 23.5154 7.3857 22.5023 7.1645 22.4863 L 7.1645 22.4863 Z " stroke-width="0.7277685403823853"/>
    <path id="ID0.007415797095745802" fill="#231F20" d="M 14.1256 25.2802 C 14.015 25.2708 14.0441 25.6892 13.5288 25.6892 C 13.0135 25.6892 13.0732 25.3173 12.9349 25.3304 C 12.6555 25.3545 12.7894 26.3595 13.5696 26.3348 C 14.3563 26.3086 14.3475 25.2948 14.1256 25.2802 L 14.1256 25.2802 Z " stroke-width="0.7277685403823853"/>
    <path id="ID0.8762991363182664" fill="#231F20" d="M 8.3748 18.7056 C 8.275 18.6983 8.3005 19.0636 7.8493 19.0636 C 7.3995 19.0636 7.4505 18.7398 7.3297 18.7492 C 7.0851 18.7703 7.203 19.6488 7.8864 19.6284 C 8.5763 19.6073 8.5683 18.7208 8.3748 18.7056 L 8.3748 18.7056 Z " stroke-width="0.7277685403823853"/>
    <path id="ID0.33623187709599733" fill="#231F20" d="M 15.4108 18.6415 C 15.2987 18.6328 15.3279 19.0505 14.8126 19.0505 C 14.2973 19.0505 14.357 18.6786 14.2187 18.6917 C 13.9393 18.7158 14.0754 19.7208 14.8533 19.6961 C 15.6415 19.6706 15.6321 18.6568 15.4108 18.6415 L 15.4108 18.6415 Z " stroke-width="0.7277685403823853"/>
    <path id="ID0.7284569386392832" fill="#231F20" d="M 12.1235 12.9788 C 12.026 12.9715 12.0507 13.3354 11.6002 13.3354 C 11.1497 13.3354 11.2021 13.0115 11.0806 13.021 C 10.8361 13.0421 10.9532 13.9212 11.6359 13.9001 C 12.3258 13.8797 12.3185 12.9926 12.1235 12.9788 L 12.1235 12.9788 Z " stroke-width="0.7277685403823853"/>
    <path id="ID0.2832300402224064" fill="#231F20" d="M 29.7741 22.4863 C 29.6634 22.4783 29.6925 22.8953 29.1773 22.8953 C 28.662 22.8953 28.7217 22.5234 28.5842 22.5365 C 28.3047 22.5606 28.4386 23.5663 29.218 23.5416 C 30.0048 23.5154 29.996 22.5023 29.7741 22.4863 L 29.7741 22.4863 Z " stroke-width="0.7277685403823853"/>
    <path id="ID0.23476475197821856" fill="#231F20" d="M 28.3214 9.5342 C 28.2428 9.5284 28.2618 9.8282 27.8906 9.8282 C 27.5194 9.8282 27.5631 9.5612 27.4634 9.5699 C 27.264 9.5874 27.3579 10.3115 27.9197 10.2926 C 28.4874 10.2751 28.4815 9.5459 28.3214 9.5342 L 28.3214 9.5342 Z " stroke-width="0.7277685403823853"/>
    <path id="ID0.8315284247510135" fill="#231F20" d="M 33.7062 20.6058 C 33.5905 20.5978 33.6203 21.0293 33.0869 21.0293 C 32.5534 21.0293 32.616 20.6465 32.4712 20.6582 C 32.183 20.6815 32.3205 21.7229 33.1269 21.6974 C 33.9456 21.6719 33.9369 20.6225 33.7062 20.6058 L 33.7062 20.6058 Z " stroke-width="0.7277685403823853"/>
    <path id="ID0.44592879386618733" fill="#231F20" d="M 33.6858 24.3472 C 33.5752 24.3385 33.6043 24.7562 33.089 24.7562 C 32.5738 24.7562 32.6335 24.3851 32.4959 24.3974 C 32.2164 24.4215 32.3504 25.4265 33.1298 25.4032 C 33.9165 25.3763 33.9078 24.364 33.6858 24.3472 L 33.6858 24.3472 Z " stroke-width="0.7277685403823853"/>
    <path id="ID0.722075801808387" fill="#231F20" d="M 10.7458 7.6726 C 10.665 7.6668 10.6861 7.9666 10.315 7.9666 C 9.9424 7.9666 9.9868 7.6995 9.8878 7.7083 C 9.6869 7.725 9.7815 8.4491 10.3441 8.4302 C 10.9125 8.4127 10.9059 7.6835 10.7458 7.6726 L 10.7458 7.6726 Z " stroke-width="0.7277685403823853"/>
    <path id="ID0.5132322055287659" fill="#231F20" d="M 33.5002 16.5863 C 33.4245 16.5805 33.4435 16.8694 33.089 16.8694 C 32.7339 16.8694 32.7732 16.6132 32.6793 16.622 C 32.4865 16.6387 32.5796 17.3323 33.1189 17.3141 C 33.6589 17.2973 33.6538 16.5979 33.5002 16.5863 L 33.5002 16.5863 Z " stroke-width="0.7277685403823853"/>
    <path id="ID0.5369726498611271" fill="#231F20" d="M 21.4178 7.6726 C 21.337 7.6668 21.3581 7.9666 20.987 7.9666 C 20.6144 7.9666 20.6588 7.6995 20.5598 7.7083 C 20.3589 7.725 20.4535 8.4491 21.0161 8.4302 C 21.5845 8.4127 21.5779 7.6835 21.4178 7.6726 L 21.4178 7.6726 Z " stroke-width="0.7277685403823853"/>
    <path id="ID0.9760562963783741" fill="#231F20" d="M 22.7795 3.9399 C 22.6987 3.934 22.7198 4.2332 22.3472 4.2332 C 21.976 4.2332 22.0204 3.9668 21.92 3.9755 C 21.7206 3.9923 21.8145 4.7164 22.3763 4.6975 C 22.9454 4.68 22.9389 3.9515 22.7795 3.9399 L 22.7795 3.9399 Z " stroke-width="0.7277685403823853"/>
    <path id="ID0.6669098972342908" fill="#231F20" d="M 29.1118 27.4475 C 28.9997 27.4373 29.0288 27.8565 28.5136 27.8565 C 27.9983 27.8565 28.058 27.4846 27.9204 27.4985 C 27.6402 27.521 27.7749 28.5261 28.5543 28.5021 C 29.3425 28.4759 29.333 27.4643 29.1118 27.4475 L 29.1118 27.4475 Z " stroke-width="0.7277685403823853"/>
    <path id="ID0.4851362085901201" fill="#231F20" d="M 5.1107 13.9096 C 5.0132 13.9023 5.0379 14.2669 4.5874 14.2669 C 4.137 14.2669 4.1894 13.9423 4.0678 13.9525 C 3.8233 13.9729 3.9405 14.8528 4.6231 14.8317 C 5.3138 14.8105 5.305 13.9241 5.1107 13.9096 L 5.1107 13.9096 Z " stroke-width="0.7277685403823853"/>
    <path id="ID0.8932326091453433" fill="#231F20" d="M 23.6586 13.6971 C 23.5589 13.6898 23.5837 14.0544 23.1332 14.0544 C 22.6841 14.0544 22.7344 13.7298 22.6135 13.74 C 22.369 13.7604 22.4862 14.6402 23.1703 14.6191 C 23.8602 14.5973 23.8522 13.7109 23.6586 13.6971 L 23.6586 13.6971 Z " stroke-width="0.7277685403823853"/>
    <path id="ID0.9554788623936474" fill="#231F20" d="M 31.659 11.0815 C 31.5818 11.0756 31.6022 11.3646 31.2463 11.3646 C 30.8912 11.3646 30.9319 11.1077 30.8373 11.1164 C 30.6437 11.1331 30.7362 11.8267 31.2769 11.8092 C 31.8184 11.7918 31.8118 11.0924 31.659 11.0815 L 31.659 11.0815 Z " stroke-width="0.7277685403823853"/>
    <path id="ID0.13395912060514092" fill="#231F20" d="M 25.4417 23.9208 C 25.3296 23.9113 25.3587 24.3298 24.8434 24.3298 C 24.3282 24.3298 24.3878 23.9586 24.2503 23.971 C 23.9701 23.995 24.1047 25 24.8842 24.9753 C 25.6716 24.9498 25.6629 23.936 25.4417 23.9208 L 25.4417 23.9208 Z " stroke-width="0.7277685403823853"/>
    <path id="ID0.555884491186589" fill="#231F20" d="M 25.0181 18.6415 C 24.906 18.6328 24.9359 19.0505 24.4199 19.0505 C 23.9046 19.0505 23.9643 18.6786 23.826 18.6917 C 23.5473 18.7158 23.6812 19.7208 24.4606 19.6961 C 25.2488 19.6706 25.2393 18.6568 25.0181 18.6415 L 25.0181 18.6415 Z " stroke-width="0.7277685403823853"/>
    <path id="ID0.9714229269884527" fill="#231F20" d="M 28.9262 15.6562 C 28.8505 15.6504 28.8709 15.9386 28.515 15.9386 C 28.1599 15.9386 28.1992 15.6824 28.1053 15.6911 C 27.9124 15.7079 28.0056 16.4022 28.5449 16.384 C 29.0856 16.3658 29.0805 15.6671 28.9262 15.6562 L 28.9262 15.6562 Z " stroke-width="0.7277685403823853"/>
    <path id="ID0.24664071295410395" fill="#231F20" d="M 20.3014 20.624 C 20.1893 20.6145 20.2185 21.033 19.7032 21.033 C 19.1879 21.033 19.2476 20.6618 19.1108 20.6749 C 18.8299 20.6982 18.9652 21.704 19.7454 21.6785 C 20.5329 21.653 20.5234 20.6414 20.3014 20.624 L 20.3014 20.624 Z " stroke-width="0.7277685403823853"/>
    <path id="ID0.6990464325062931" fill="#231F20" d="M 17.9049 13.6971 C 17.8074 13.6898 17.8321 14.0544 17.3816 14.0544 C 16.9311 14.0544 16.9835 13.7298 16.862 13.74 C 16.6175 13.7604 16.7332 14.6402 17.4173 14.6191 C 18.1072 14.5973 18.0985 13.7109 17.9049 13.6971 L 17.9049 13.6971 Z " stroke-width="0.7277685403823853"/>
  </g>
  <path id="Pit" fill="#231F20" d="M 16.8076 6.4885 L 16.8076 6.4885 C 14.962 6.6661 14.756 4.5097 16.6031 4.3321 C 18.4502 4.156 18.6554 6.3124 16.8076 6.4885 " stroke-width="0.7277685403823853"/>
</svg>