<svg xmlns="http://www.w3.org/2000/svg" xmlns:xlink="http://www.w3.org/1999/xlink" version="1.1" width="109.36072504520416" height="132.64218866825104" viewBox="0.11027377843856812 -0.30049997568130493 109.36072504520416 132.64218866825104">
  <!-- Exported by Scratch - http://scratch.mit.edu/ -->
  <g id="ID0.6641015410423279">
    <path id="R_Arm_1_" fill="#F05A28" stroke="#000000" stroke-linecap="round" d="M 63.3113 105.7089 C 64.5658 104.7658 66.5404 104.5257 67.7579 104.4698 L 67.9095 104.468 C 68.1352 103.2532 63.9801 100.2795 63.9801 100.2795 C 60.759 96.5377 66.3157 95.73 66.3157 95.73 C 69.9573 98.4772 76.4878 103.82 75.5257 106.1647 C 74.0149 109.8523 66.9384 113.0002 63.6894 111.1672 C 60.8764 109.577 63.3113 105.708 63.3113 105.7089 L 63.3113 105.7089 Z M 70.2073 104.4905 L 67.9086 104.468 " stroke-width="0.9024999737739563"/>
    <g id="Body_1_">
      <path id="Body_2_" fill="#F05A28" stroke="#000000" stroke-linecap="round" stroke-linejoin="round" d="M 63.7806 97.8572 C 63.3907 100.4482 62.3519 107.1971 62.5189 108.5301 L 62.2761 107.9859 C 62.7743 109.3938 63.2779 111.3956 63.1182 113.4785 C 62.8077 117.5208 60.5885 119.6868 58.2302 120.8429 L 58.2041 120.9747 L 56.1806 129.0449 C 56.2195 129.044 56.5633 129.0647 58.9829 129.2976 C 62.0496 129.5918 60.6218 131.4392 60.6218 131.4392 L 54.9054 131.3381 L 54.613 131.3345 L 43.0619 131.1278 C 42.9202 130.6576 43.033 129.2037 43.765 125.526 C 44.0474 124.0811 44.3092 122.8384 44.5375 121.8222 L 44.5393 121.8149 C 40.6369 118.7816 41.1053 114.0877 42.2948 110.7665 C 43.0529 108.642 47.3804 92.6055 47.3804 92.6055 C 47.3804 92.6055 49.2612 86.4469 57.0452 88.5903 C 57.0452 88.5903 66.0053 90.0812 63.7815 97.8536 C 63.7815 97.8572 63.7806 97.8572 63.7806 97.8572 L 63.7806 97.8572 Z M 52.382 121.9016 C 52.382 121.9016 54.6762 122.2716 58.2293 120.8456 M 62.5189 108.5328 C 62.3149 107.6006 61.1074 105.9571 61.1074 105.9571 M 45.2378 118.9684 C 45.2378 118.9684 44.977 119.7816 44.5393 121.8176 " stroke-width="0.9024999737739563"/>
      <path id="Leg_Separation" d="M 55.1581 131.2343 C 55.1509 131.2343 55.1437 131.2343 55.1392 131.2343 C 54.8892 131.2226 54.696 131.0123 54.7069 130.7641 C 54.7168 130.5403 54.6572 130.3688 54.5209 130.2226 C 53.947 129.6143 52.2078 129.5873 51.1682 129.571 C 50.8559 129.5665 50.5779 129.5611 50.3595 129.5476 C 50.2232 129.5376 50.0978 129.4663 50.0202 129.3544 C 49.9426 129.2416 49.9191 129.0999 49.9579 128.9681 C 50.3306 127.7101 50.6916 126.4375 51.0526 125.165 L 51.5093 123.5595 C 51.5779 123.3194 51.8252 123.1768 52.0671 123.2499 C 52.3071 123.3176 52.4452 123.5685 52.3775 123.8077 L 51.9208 125.4105 C 51.6131 126.4971 51.3044 127.5855 50.9886 128.6631 C 51.0508 128.664 51.1158 128.6649 51.1817 128.6667 C 52.5156 128.6857 54.3423 128.7145 55.178 129.6008 C 55.4839 129.9239 55.6292 130.3291 55.6103 130.7975 C 55.5967 131.0448 55.3973 131.2343 55.1581 131.2343 L 55.1581 131.2343 L 55.1581 131.2343 Z " stroke-width="0.9024999737739563" fill="undefined"/>
    </g>
    <path id="L_Arm" fill="#F05A28" stroke="#000000" stroke-linecap="round" d="M 49.8568 95.6587 C 50.3063 98.8454 47.2676 99.8752 47.2676 99.8752 C 47.2676 99.8752 41.6865 101.5249 41.4176 102.7307 L 41.6621 103.1115 C 43.3823 103.9436 46.6241 105.9354 45.3813 108.6502 C 42.5276 114.8855 33.7598 106.7315 33.8519 101.5998 C 33.9115 98.1099 43.9265 93.4755 48.0284 93.3221 C 48.7693 93.2941 49.6835 93.7481 49.8568 95.6587 L 49.8568 95.6587 Z M 41.6621 103.1115 L 40.423 102.2912 " stroke-width="0.9024999737739563"/>
    <g id="Head_1_">
      <path id="Head_2_" fill="#F05A28" stroke="#000000" stroke-linecap="round" d="M 18.2404 35.8798 C 18.2404 35.8798 19.0798 32.4395 26.2222 25.1274 C 33.3609 17.819 41.089 15.3019 46.2143 13.2009 C 51.3396 11.0998 54.7809 0.602 54.7809 0.602 C 54.7809 0.602 59.5 6.4718 64.3501 11.8092 C 69.2994 17.2522 80.8243 22.0228 93.1741 34.4529 C 94.6479 35.9412 95.9006 37.4989 96.9538 39.0972 L 97.1668 39.284 C 99.9257 41.6765 109.7079 51.2214 108.4534 65.1181 C 107.495 75.7053 102.6811 79.0509 100.3472 79.9498 L 100.3282 80.0274 C 101.5304 77.6457 102.246 75.1187 102.5845 72.5529 C 103.7 64.0676 99.1279 58.5542 96.1966 51.1745 C 92.3962 41.6043 82.0003 36.22 68.5395 36.4881 C 42.9211 36.9944 37.2787 51.3974 37.2787 51.3974 L 37.2597 51.5842 C 42.0123 60.4106 43.9103 79.9886 34.1786 85.8476 C 23.6961 92.1498 8.1749 89.9504 2.1299 65.5991 C -3.4033 43.3128 13.1648 36.2913 18.0383 36.3491 L 18.2404 35.8798 L 18.2404 35.8798 Z M 96.9529 39.0972 C 96.9529 39.0972 103.6747 49.7765 101.487 62.9737 M 18.0374 36.3482 C 22.7502 36.4754 25.909 39.849 25.909 39.849 M 37.2588 51.5824 C 36.4655 50.3451 35.9123 49.3261 35.9123 49.3261 " stroke-width="0.9024999737739563"/>
      <path id="R_Ear" fill="#404041" stroke="#000000" d="M 101.8002 76.4038 C 101.8002 76.4038 103.9211 72.5556 105.3525 65.5025 C 106.782 58.445 104.875 48.8487 104.875 48.8487 C 107.2441 53.1455 109.0383 58.6598 108.4589 65.1181 C 107.5302 75.4337 102.7424 78.9516 100.3508 79.9498 L 101.8002 76.4038 L 101.8002 76.4038 Z " stroke-width="0.9024999737739563"/>
      <g id="L_Ear">
        <path id="Outer_Ear" fill="#404041" stroke="#231F20" d="M 2.6813 67.7687 C 3.7653 71.9554 6.2877 76.8506 7.5864 79.0861 C 8.8815 81.3243 12.0565 84.7854 15.7288 86.8006 C 19.4038 88.8186 21.225 88.5867 21.225 88.5867 C 26.7862 86.0624 28.926 75.0384 25.9911 62.9665 C 22.873 50.16 15.2135 41.0258 8.877 42.57 C 5.4926 43.3913 2.4178 46.7793 1.5261 52.0075 C 0.6579 57.0741 1.5993 63.5901 2.6813 67.7687 L 2.6813 67.7687 Z " stroke-width="0.9024999737739563"/>
        <path id="Inner_Ear" fill="#929497" stroke="#231F20" stroke-linecap="round" d="M 6.6172 57.1192 C 9.0548 56.075 13.1919 60.2744 15.8588 66.5025 C 18.5229 72.7262 18.7097 78.624 16.2748 79.6673 C 13.8353 80.7097 9.7001 76.5085 7.035 70.2822 C 4.3663 64.0567 4.1813 58.1634 6.6172 57.1192 L 6.6172 57.1192 Z M 17.3379 78.6493 C 7.3003 72.2875 7.4123 56.9622 7.4123 56.9622 " stroke-width="0.9024999737739563"/>
      </g>
      <path id="Face" fill="#E6E7E8" stroke="#000000" stroke-linecap="round" d="M 33.3429 86.4234 C 34.517 87.2257 43.1964 93.0144 52.6221 95.3627 C 58.8647 96.9231 57.3043 99.9771 57.3043 99.9771 C 57.3043 99.9771 57.5561 99.0539 62.4268 96.9493 C 67.2985 94.8564 66.7137 96.7047 81.2476 93.2544 C 95.7814 89.8159 101.4221 81.3811 102.5881 72.5511 C 103.7054 64.0667 99.1315 58.5533 96.2011 51.1727 C 92.3998 41.6025 82.0057 36.2182 68.5449 36.4863 C 42.9211 36.9917 37.2787 51.3965 37.2787 51.3965 L 37.2399 51.5517 C 42.0033 60.3574 43.9211 79.9805 34.1768 85.8467 C 33.8844 86.0218 33.5884 86.1915 33.2887 86.3539 L 33.3429 86.4234 L 33.3429 86.4234 Z " stroke-width="0.9024999737739563"/>
      <path id="Mouth" fill="none" stroke="#231F20" stroke-linecap="round" d="M 56.4397 70.1676 C 77.5428 61.2942 88.9793 69.5764 88.9793 69.5764 " stroke-width="0.9024999737739563"/>
      <path id="R_Eye" fill="#FFFFFF" stroke="#000000" stroke-width="1.8049999475479126" d="M 84.2673 57.3106 C 84.8368 59.3601 86.8674 60.7112 89.0425 60.3691 C 91.3854 60.0027 92.9873 57.8268 92.6245 55.5101 C 92.5324 54.9352 92.3285 54.4063 92.0397 53.946 L 84.2673 57.3106 L 84.2673 57.3106 Z "/>
      <path id="L_Eye_1_" fill="#FFFFFF" stroke="#000000" stroke-width="1.8049999475479126" d="M 55.6274 54.215 C 54.5291 56.0389 54.9433 58.4387 56.6888 59.7852 C 58.5641 61.2346 61.2464 60.9034 62.6777 59.0497 C 63.0324 58.5912 63.2743 58.0777 63.4133 57.5488 L 55.6274 54.215 L 55.6274 54.215 Z "/>
    </g>
  </g>
</svg>