<svg xmlns="http://www.w3.org/2000/svg" xmlns:xlink="http://www.w3.org/1999/xlink" version="1.1" width="75.22827911376953" height="139.35516357421875" viewBox="1.6667156219482422 1.486236572265625 75.22827911376953 139.35516357421875">
  <defs>
    <radialGradient id="grad_1" cx="0.25579999999999997" cy="0.2571" r="0.96746">
      <stop offset="0" stop-color="#0033CC" stop-opacity="1"/>
      <stop offset="1" stop-color="#00FFFF" stop-opacity="1"/>
    </radialGradient>
    <radialGradient id="grad_2" cx="0.6984" cy="0.2671" r="0.95277">
      <stop offset="0" stop-color="#00FFFF" stop-opacity="1"/>
      <stop offset="1" stop-color="#0033CC" stop-opacity="1"/>
    </radialGradient>
  <radialGradient id="grad_1-.9998088479042053,0.01955297589302063,-0.01955297589302063,0.9998088479042053,-45.05,-96.7" cx="32.9747" cy="102.3043" r="35.2121" gradientUnits="userSpaceOnUse">
      <stop offset="0" stop-color="#0033CC" stop-opacity="1"/>
      <stop offset="1" stop-color="#00FFFF" stop-opacity="1"/>
    </radialGradient><radialGradient id="grad_2-.9989224076271057,-0.04641130566596985,0.04641130566596985,0.9989224076271057,-427.05,-137" cx="52.945" cy="26.53" r="79.3137" gradientUnits="userSpaceOnUse">
      <stop offset="0" stop-color="#00FFFF" stop-opacity="1"/>
      <stop offset="1" stop-color="#0033CC" stop-opacity="1"/>
    </radialGradient></defs>
  <!-- Exported by Scratch - http://scratch.mit.edu/ -->
  <g id="ID0.07485470175743103">
    <g id="ID0.8842033431865275">
      <g id="ID0.9813417503610253">
        <g id="ID0.6985900145955384">
          <path id="ID0.020438293926417828" fill="url(#grad_1-.9998088479042053,0.01955297589302063,-0.01955297589302063,0.9998088479042053,-45.05,-96.7)" d="M 34.3266 89.3876 C 30.756 93.4756 29.7237 98.1833 30.5121 103.4907 C 31.1539 107.8021 38.141 109.7581 38.4465 104.318 C 38.5499 102.4577 38.5656 100.5787 38.522 98.7164 C 38.4136 94.1344 34.3512 101.4784 34.1766 103.4534 C 33.6798 109.0597 33.4379 115.3942 38.4126 119.1402 C 38.4248 119.0274 38.4311 118.9125 38.4323 118.7985 C 38.4719 117.6451 38.5802 116.811 39.1447 115.8199 C 39.6626 114.9108 38.5019 111.3555 39.2425 110.8208 C 30.4813 117.1387 33.8772 133.0282 40.0082 139.8414 C 39.2123 138.9566 40.937 135.7658 40.1059 134.8423 C 34.7552 128.8966 31.8596 121.0735 39.1447 115.8199 C 39.1773 114.1532 39.2099 112.4875 39.2425 110.8208 C 38.7049 111.7645 38.5527 112.6957 38.5156 113.7742 C 38.4991 114.257 36.2723 111.978 36.2362 111.9323 C 35.5389 111.0695 35.1328 109.9973 34.7346 108.9794 C 33.8858 106.8133 34.1801 107.2082 35.0685 105.1551 C 35.5241 104.1019 36.3372 103.2856 37.1388 102.4981 C 38.7205 100.9428 38.4062 103.156 38.4335 104.3178 C 38.4675 102.6801 38.5015 101.0445 38.5365 99.4079 C 38.2238 102.5073 35.7019 103.4522 33.0801 102.0327 C 31.7401 101.3073 30.9985 99.8966 30.6109 98.4917 C 31.2899 100.9545 30.4909 100.4327 31.3097 98.5074 C 31.9682 96.957 33.1372 95.6386 34.2298 94.3867 C 35.0842 93.4072 33.503 90.3307 34.3266 89.3876 L 34.3266 89.3876 Z " stroke-width="1.0000000256069035"/>
        </g>
      </g>
      <path id="ID0.444075814448297" fill="none" stroke="#007FDF" stroke-width="2" stroke-linecap="round" d="M 39.85 111.85 C 39.85 111.85 39.959 114.866 39.75 116.35 C 39.654 117.03 38.95 118.25 38.95 118.25 "/>
    </g>
    <path id="ID0.790923397988081" fill="url(#grad_2-.9989224076271057,-0.04641130566596985,0.04641130566596985,0.9989224076271057,-427.05,-137)" d="M 75.3678 52.6385 C 71.9631 77.4382 42.3549 95.2726 33.4149 94.9632 C 23.6658 94.6263 -0.41 67.5034 2.9936 42.7018 C 6.3993 17.902 25.3608 0.0207 45.3457 2.7641 C 65.3305 5.5075 78.7724 27.8387 75.3678 52.6385 Z " stroke-width="0.9999999928765768"/>
  </g>
</svg>