<svg xmlns="http://www.w3.org/2000/svg" xmlns:xlink="http://www.w3.org/1999/xlink" width="182.1348419189453" height="232.26512145996094" viewBox="12.800000190734863 42.95000076293945 182.1348419189453 232.26512145996094" version="1.1" xml:space="preserve">
  <!-- Generator: Sketch 49.3 (51167) - http://www.bohemiancoding.com/sketch -->
  <defs/>
  <g>
    <title>centaur-c</title>
    <desc>Created with Sketch.</desc>
    <g id="centaur-c" stroke="none" fill-rule="evenodd">
      <g id="Centaur-Sad" fill-rule="nonzero">
        <g id="Group">
          <g id="Shape">
            <path d="M 187.3 156.6 C 187.3 156.6 190.5 157.9 192.1 162.8 C 193.2 166.1 195.1 168.4 194.2 168.8 C 192.4 169.7 190.8 164.5 190.8 164.5 C 190.8 164.5 191.1 169.3 191 170.9 C 191 172.4 190.6 175.5 189.9 175.8 C 188.8 176.3 188.9 174.5 188.9 171.2 C 188.9 171.2 188.6 173.9 187.9 175.3 C 187.3 176.5 186.1 177 185.9 175.3 C 185.9 175.3 184.9 177.8 183.8 174.9 C 183.8 174.9 181.9 176.3 182.6 169.5 C 183 166.6 178.3 155.3 187.3 156.6 Z " fill="#FFD0AE" stroke-width="1"/>
            <path d="M 183.9 174.9 C 183.9 174.9 184 174.4 184.1 173.7 C 184.2 173 184.3 172 184.4 171 C 184.5 170 184.6 169.1 184.6 168.3 C 184.7 167.6 184.8 167.1 184.8 167.1 C 184.8 167.1 184.9 167.6 185 168.3 C 185.1 169 185.1 170 185 171 C 184.9 172 184.7 173 184.5 173.7 C 184.2 174.4 183.9 174.9 183.9 174.9 Z " fill="#BF8865" stroke-width="1"/>
            <path d="M 186.1 175.7 C 186.1 175.7 186.2 175.2 186.3 174.4 C 186.4 173.6 186.5 172.6 186.6 171.5 C 186.7 170.5 186.7 169.4 186.8 168.6 C 186.8 168.2 186.8 167.9 186.9 167.6 C 186.9 167.4 186.9 167.2 186.9 167.2 C 186.9 167.2 187.1 167.7 187.2 168.5 C 187.3 169.3 187.4 170.4 187.3 171.4 C 187.2 172.5 187 173.5 186.7 174.3 C 186.4 175.2 186.1 175.7 186.1 175.7 Z " fill="#BF8865" stroke-width="1"/>
            <path d="M 188.8 173.2 C 188.8 173.2 188.8 172.8 188.8 172.2 C 188.8 171.6 188.8 170.8 188.9 170 C 189 169.2 189 168.4 189.1 167.8 C 189.1 167.5 189.2 167.2 189.2 167.1 C 189.2 166.9 189.2 166.8 189.2 166.8 C 189.2 166.8 189.4 167.2 189.5 167.8 C 189.6 168.4 189.6 169.2 189.6 170 C 189.5 170.8 189.4 171.6 189.2 172.2 C 188.9 172.8 188.8 173.2 188.8 173.2 Z " fill="#BF8865" stroke-width="1"/>
            <path d="M 188.3 157.3 C 188.3 157.3 188.4 157.3 188.6 157.3 C 188.8 157.4 189.1 157.5 189.3 157.7 C 189.8 158.1 190.4 158.8 190.8 159.5 C 191.2 160.2 191.6 161 191.8 161.7 C 192 162.3 192.1 162.7 192.1 162.7 C 192.1 162.7 191.8 162.4 191.5 161.8 C 191.1 161.3 190.7 160.5 190.3 159.8 C 189.9 159.1 189.4 158.4 189 157.9 C 188.8 157.7 188.6 157.5 188.5 157.4 C 188.4 157.3 188.3 157.3 188.3 157.3 Z " fill="#BF8865" stroke-width="1"/>
            <path d="M 190.8 164.5 C 190.8 164.5 190.4 164.6 189.9 164.5 C 189.3 164.5 188.6 164.2 188 163.7 C 187.7 163.5 187.4 163.2 187.2 162.9 C 187 162.6 186.8 162.3 186.7 162.1 C 186.6 161.9 186.5 161.6 186.5 161.5 C 186.5 161.3 186.4 161.3 186.4 161.3 C 186.4 161.3 186.5 161.4 186.6 161.5 C 186.7 161.6 186.8 161.8 187 162 C 187.2 162.2 187.4 162.4 187.6 162.7 C 187.8 162.9 188.1 163.2 188.3 163.3 C 188.6 163.5 188.8 163.7 189.1 163.8 C 189.4 164 189.6 164.1 189.9 164.2 C 190.4 164.4 190.8 164.5 190.8 164.5 Z " fill="#BF8865" stroke-width="1"/>
          </g>
          <g id="Shape">
            <path d="M 190.8 157.7 C 190.8 157.7 186.7 163.4 179.8 159.8 L 179.1 156.9 C 179.1 156.9 176.3 156.2 175.5 153.4 C 174.7 150.6 175.6 148.3 174.7 146.7 C 173.9 145.1 172.2 135 171.6 131.8 C 169.8 122.2 182.7 123.1 185.3 126.1 C 187.9 129.1 187.6 134 188.5 136.3 C 189.4 138.6 190.1 142.4 190.1 144.2 C 190.1 146.1 191.6 149.6 191.3 151.5 C 190.9 153.4 190.2 154.8 190.2 154.8 L 190.8 157.7 Z " fill="#CCAD87" stroke-width="1"/>
            <path d="M 185.1 156.3 C 185.1 156.3 184.7 156.5 183.9 156.7 C 183.1 156.9 181.9 157.2 180.5 157.2 C 179.8 157.2 179 157.1 178.2 156.9 C 177.4 156.6 176.6 156.2 176 155.4 C 175.7 155 175.5 154.6 175.4 154.1 C 175.3 153.6 175.2 153.2 175.1 152.7 C 174.9 151.8 174.8 150.8 174.7 149.9 C 174.6 148.9 174.6 148 174.4 147.1 C 174.2 146.2 174 145.3 173.7 144.5 C 173.2 142.8 172.9 141.2 172.7 139.8 C 172.5 138.4 172.4 137.2 172.3 136.4 C 172.2 135.6 172.2 135.1 172.2 135.1 C 172.2 135.1 172.3 135.6 172.4 136.4 C 172.5 137.2 172.7 138.4 173 139.7 C 173.3 141.1 173.7 142.7 174.2 144.3 C 174.4 145.1 174.7 146 174.9 147 C 175.1 147.9 175.1 148.9 175.2 149.8 C 175.3 150.7 175.4 151.6 175.6 152.6 C 175.7 153.1 175.8 153.5 175.9 153.9 C 176 154.3 176.2 154.7 176.4 155 C 176.9 155.7 177.5 156.1 178.3 156.4 C 179 156.7 179.8 156.8 180.5 156.8 C 181.9 156.9 183.1 156.7 183.9 156.5 C 184.6 156.4 185.1 156.3 185.1 156.3 Z " fill="#8C6C54" stroke-width="1"/>
            <path d="M 188.1 155.7 C 188.1 155.7 188.5 155.7 189.2 155.4 C 189.5 155.2 189.9 155 190.2 154.6 C 190.5 154.2 190.8 153.7 190.9 153.1 C 191 152.5 191 151.8 191 151.1 C 190.9 150.4 190.9 149.6 190.7 148.8 C 190.6 148 190.3 147.2 190.1 146.4 C 189.9 145.6 189.7 144.7 189.7 143.8 C 189.5 142.1 189.3 140.4 188.9 138.9 C 188.7 138.1 188.5 137.4 188.3 136.7 C 188.1 136 187.9 135.3 187.8 134.7 C 187.5 133.4 187.5 132.3 187.4 131.6 C 187.3 130.8 187.3 130.4 187.3 130.4 C 187.3 130.4 187.4 130.8 187.5 131.6 C 187.6 132.3 187.8 133.4 188.1 134.6 C 188.3 135.2 188.5 135.9 188.7 136.6 C 189 137.3 189.2 138.1 189.4 138.8 C 189.8 140.4 190.1 142.1 190.3 143.8 C 190.4 144.7 190.5 145.5 190.7 146.3 C 190.9 147.1 191.1 147.9 191.3 148.7 C 191.4 149.5 191.5 150.3 191.5 151 C 191.5 151.7 191.5 152.5 191.3 153.1 C 191.1 153.8 190.8 154.3 190.4 154.7 C 190 155.1 189.6 155.3 189.2 155.4 C 188.8 155.5 188.5 155.6 188.3 155.6 C 188.2 155.7 188.1 155.7 188.1 155.7 Z " fill="#8C6C54" stroke-width="1"/>
            <path d="M 190.9 157.6 C 190.9 157.6 190.8 157.8 190.6 158.1 C 190.4 158.4 190.1 158.8 189.6 159.2 C 189.4 159.4 189.1 159.6 188.8 159.8 C 188.5 160 188.2 160.2 187.9 160.4 C 187.6 160.6 187.2 160.7 186.8 160.9 C 186.4 161 186 161.1 185.6 161.2 C 185.2 161.3 184.8 161.3 184.4 161.3 C 184 161.3 183.6 161.2 183.2 161.2 C 182.8 161.1 182.5 161 182.1 161 C 181.8 160.9 181.5 160.8 181.2 160.7 C 180.6 160.5 180.2 160.2 179.9 160.1 C 179.6 159.9 179.4 159.8 179.4 159.8 C 179.4 159.8 179.6 159.9 179.9 160 C 180.2 160.1 180.7 160.3 181.3 160.4 C 181.6 160.5 181.9 160.6 182.2 160.6 C 182.5 160.6 182.9 160.7 183.2 160.7 C 183.6 160.7 183.9 160.7 184.3 160.7 C 184.7 160.7 185.1 160.7 185.4 160.6 C 185.8 160.5 186.1 160.5 186.5 160.4 C 186.9 160.3 187.2 160.2 187.5 160 C 188.2 159.7 188.7 159.4 189.2 159 C 189.7 158.7 190.1 158.4 190.3 158.1 C 190.8 157.8 190.9 157.6 190.9 157.6 Z " fill="#8C6C54" stroke-width="1"/>
          </g>
          <g id="Shape">
            <path d="M 174 133.5 C 174 133.5 174.3 133.6 174.7 133.7 C 174.9 133.8 175.1 133.8 175.4 133.9 C 175.6 134 175.9 134.1 176.2 134.1 C 176.7 134.3 177.3 134.4 177.7 134.5 C 177.9 134.5 178.1 134.6 178.2 134.6 C 178.3 134.6 178.4 134.6 178.4 134.6 C 178.4 134.6 178.1 134.7 177.7 134.7 C 177.5 134.7 177.2 134.7 177 134.6 C 176.7 134.6 176.4 134.5 176.2 134.4 C 175.6 134.2 175.1 134 174.7 133.7 C 174.2 133.7 174 133.5 174 133.5 Z " fill="#8C6C54" stroke-width="1"/>
            <path d="M 184.7 131.6 C 187.6 130.2 188.2 124.4 187.1 121.7 C 186.1 119 186.1 107.3 185.2 103.4 C 184.3 99.5 181.6 90 172.1 90.3 C 161.3 90.6 163.7 113.8 166.7 120.5 C 169.7 127.2 170.2 129.9 171.8 131.4 C 173.3 132.9 180.8 133.4 184.7 131.6 Z " fill="#CCAD87" stroke-width="1"/>
            <path d="M 175.1 132.8 C 175.1 132.8 175 132.8 174.7 132.7 C 174.5 132.6 174.1 132.6 173.7 132.5 C 173.3 132.4 172.7 132.2 172.2 131.8 C 171.7 131.4 171.1 130.9 170.7 130.2 C 169.8 128.9 169.1 127.1 168.4 125.3 C 167.7 123.5 166.8 121.6 166.1 119.6 C 165.8 118.6 165.4 117.6 165.2 116.6 C 164.9 115.6 164.7 114.6 164.5 113.6 C 164.3 112.6 164.2 111.7 164.1 110.8 C 164 109.9 164 109 164 108.3 C 164 107.5 164 106.8 164 106.1 C 164 105.5 164 104.9 164.1 104.4 C 164.2 103.5 164.2 103 164.2 103 C 164.2 103 164.2 103.5 164.3 104.4 C 164.3 104.9 164.3 105.4 164.4 106.1 C 164.4 106.7 164.5 107.5 164.5 108.2 C 164.6 109 164.6 109.8 164.8 110.7 C 164.9 111.6 165.1 112.5 165.3 113.5 C 165.5 114.5 165.7 115.4 166 116.4 C 166.3 117.4 166.6 118.4 167 119.3 C 167.7 121.3 168.5 123.2 169.2 125.1 C 169.5 126 169.8 126.9 170.1 127.8 C 170.4 128.6 170.8 129.4 171.2 130 C 171.6 130.7 172.1 131.2 172.5 131.6 C 173 132 173.5 132.2 173.9 132.4 C 174.6 132.6 175.1 132.8 175.1 132.8 Z " fill="#8C6C54" stroke-width="1"/>
            <path d="M 184.8 131.9 C 184.8 131.9 185 131.5 185.4 130.8 C 185.8 130.1 186.4 129.1 187 127.9 C 187.3 127.3 187.5 126.6 187.6 125.8 C 187.7 125 187.5 124.3 187.3 123.4 C 186.9 121.7 186.6 119.9 186.3 118.1 C 186.1 116.3 185.9 114.4 185.8 112.7 C 185.8 111.8 185.8 111 185.8 110.2 C 185.8 109.4 185.7 108.7 185.6 108 C 185.3 105.3 185.2 103.4 185.2 103.4 C 185.2 103.4 185.3 103.9 185.5 104.6 C 185.7 105.4 185.9 106.5 186.1 107.9 C 186.2 108.6 186.3 109.3 186.4 110.1 C 186.5 110.9 186.5 111.7 186.5 112.6 C 186.6 114.3 186.8 116.1 187.1 117.9 C 187.3 119.7 187.6 121.5 188 123.2 C 188.2 124.1 188.3 125 188.2 125.8 C 188.1 126.6 187.8 127.4 187.5 128 C 186.8 129.2 186.1 130.1 185.6 130.8 C 185 131.5 184.8 131.9 184.8 131.9 Z " fill="#8C6C54" stroke-width="1"/>
          </g>
        </g>
        <g id="Group">
          <g id="Shape">
            <path d="M 167.5 195.7 C 167.6 195.3 175.1 175.1 170.5 169.1 C 163.7 160.3 150.1 161.7 145.5 165.5 C 140.9 169.3 142.4 179.2 144.6 185.3 C 145.7 188.2 145.8 190.1 146.8 193.8 C 147.8 197.5 148.1 204.4 148.7 209 C 149.6 215.3 148.6 219.7 147.5 221.5 C 146.4 223.3 145.3 227.4 146.6 231.1 C 147.5 233.4 151 240.7 149.3 252.5 C 148.9 255.4 151.4 257.9 152.6 259 C 154.3 260.7 154.7 265.7 154.7 265.7 C 156.4 267.4 164.5 266.4 164.5 266.4 C 164.7 261.7 164.5 258.4 162 256.7 C 158.5 254.3 157.9 250.6 157.9 249.2 C 158 245.6 158.1 239.3 160.1 233.8 C 161.9 228.8 162.4 221.9 162.4 219.5 C 162.6 215.6 164.5 209.2 167.5 195.7 Z " fill="#73432D" stroke-width="1"/>
            <path d="M 149.1 215.3 C 149.1 215.3 149.1 214.8 149.1 213.8 C 149.1 212.8 149 211.5 148.9 209.8 C 148.8 208.2 148.6 206.3 148.3 204.2 C 148.2 203.2 148 202.1 147.9 201.1 C 147.8 200 147.5 199 147.4 197.9 C 147.2 196.8 147 195.8 146.8 194.7 C 146.6 193.6 146.3 192.6 146.1 191.6 C 145.9 190.6 145.6 189.6 145.4 188.7 C 145.2 187.8 144.9 186.9 144.7 186.1 C 144.5 185.3 144.3 184.6 144.1 183.9 C 143.9 183.3 143.8 182.7 143.6 182.2 C 143.3 181.3 143.2 180.7 143.2 180.7 C 143.2 180.7 143.4 181.2 143.7 182.1 C 144 183 144.5 184.3 145 185.9 C 145.2 186.7 145.5 187.5 145.8 188.4 C 146.1 189.3 146.3 190.3 146.6 191.3 C 146.8 192.3 147.1 193.3 147.3 194.4 C 147.5 195.5 147.7 196.5 147.9 197.6 C 148.1 198.7 148.3 199.8 148.4 200.8 C 148.5 201.9 148.7 202.9 148.8 204 C 149 206 149.1 208 149.2 209.6 C 149.2 211.2 149.2 212.6 149.2 213.6 C 149.2 214.8 149.1 215.3 149.1 215.3 Z " fill="#543825" stroke-width="1"/>
            <path d="M 168 194.2 C 168 194.2 168.1 193.6 168.3 192.8 C 168.5 191.9 168.8 190.8 169.1 189.7 C 169.7 187.5 170.4 185.2 170.4 185.2 C 170.4 185.2 170.4 185.8 170.4 186.7 C 170.3 187.6 170.1 188.7 169.8 189.9 C 169.5 191 169.1 192.1 168.7 192.9 C 168.3 193.7 168 194.2 168 194.2 Z " fill="#543825" stroke-width="1"/>
            <path d="M 151.8 225.6 C 151.8 225.6 151.8 225.9 151.9 226.4 C 152 226.9 152.1 227.5 152.3 228.1 C 152.4 228.4 152.5 228.7 152.6 229 C 152.7 229.3 152.9 229.5 153 229.7 C 153.1 229.9 153.3 230.1 153.4 230.2 C 153.5 230.3 153.6 230.4 153.6 230.4 C 153.6 230.4 153.5 230.4 153.4 230.3 C 153.3 230.2 153 230.2 152.8 230 C 152.6 229.8 152.3 229.6 152.2 229.3 C 152 229 151.9 228.7 151.7 228.3 C 151.5 227.6 151.5 226.9 151.6 226.4 C 151.6 225.9 151.8 225.6 151.8 225.6 Z " fill="#543825" stroke-width="1"/>
          </g>
          <path d="M 155.8 269.9 C 158.8 270.8 165.5 270.1 168.6 269.1 C 168.6 269.1 169.2 265.3 168.2 262.2 C 164.7 263.1 157.6 263.9 155.2 263.9 C 156 266.2 155.8 269.9 155.8 269.9 Z " id="Shape" fill="#B3927E" stroke-width="1"/>
          <path d="M 147.2 231.7 C 147.7 236 148.6 247.1 145.3 249.2 C 145.3 249.2 147.1 249 148.5 247.1 C 148.5 247.1 146.7 248.5 146.7 252.8 C 146.7 257.1 144.4 260.8 144.4 260.8 C 144.4 260.8 146.9 259.9 147.8 258.3 C 147.8 258.3 146.2 262.9 148.7 266 C 148.7 266 148 264.8 149.9 262.6 C 149.9 262.6 149.6 268 154.8 268.7 C 154.8 268.7 153.6 267.2 153.9 264.8 C 153.9 264.8 154.9 268.8 160.2 268.8 C 159 267.6 157.7 264.9 157.4 263.9 C 158.2 265.6 160.6 267.6 161.4 267.6 C 160.9 267.6 160 264.5 160.5 263.4 C 160.5 263.4 162.2 266.5 162.2 268.3 C 162.2 268.3 165.8 266.3 164.7 262.8 C 164.7 262.8 166.2 264.5 166.2 267 C 167.1 266 167.8 264.9 167.6 263.5 C 168.4 264.2 168.8 264.3 169.9 266.3 C 169.9 266.3 171.4 259.1 166.8 257.8 C 166.8 257.8 168.7 258.4 169.5 257.1 C 169.5 257.1 164.8 255.3 163 252.3 C 161.2 249.3 160.6 247.3 160.6 247.3 C 160.6 247.3 160.7 248 162.5 250.2 C 162.5 250.2 162.2 247.2 160.9 245.4 C 158.8 242.5 159.5 234.1 159.5 234.1 C 159.5 234.1 156.4 232 154.8 232.7 C 153.2 233.4 152.3 235 150.7 233.8 C 149.4 232.6 147.2 231.7 147.2 231.7 Z " id="Shape" fill="#D9C4B6" stroke-width="1"/>
        </g>
        <g id="Group">
          <g id="Shape">
            <path d="M 105.2 168.4 C 105.2 168.4 104.3 196 90.5 205.8 C 76.7 215.6 75.5 226.6 75.9 235.4 C 76.1 240.9 76.7 257.5 81.7 259.1 C 87.1 260.8 85.6 269.7 85.6 269.7 C 82.6 270.6 76.4 271.1 73.4 270.2 C 73.4 270.2 73.5 262.8 71.3 262.2 C 69.1 261.6 66.2 259.8 67.4 256.5 C 68.6 253.2 67 238.4 65.5 233.9 C 64.1 229.3 59.4 221 62.9 216.2 C 66.4 211.4 74.5 198.3 71.9 190 C 69.3 181.7 55.2 149.8 74.7 145.1 C 94.2 140.4 107.2 148 105.2 168.4 Z " fill="#73432D" stroke-width="1"/>
            <path d="M 72.8 270.6 C 75.8 271.5 82.5 270.8 85.6 269.8 C 85.6 269.8 86.2 266 85.2 262.9 C 81.7 263.8 74.6 264.6 72.2 264.6 C 73 266.8 72.8 270.6 72.8 270.6 Z " fill="#B3927E" stroke-width="1"/>
            <path d="M 66.3 225.4 C 66.3 225.4 66 225 65.7 224.2 C 65.6 223.8 65.4 223.4 65.4 222.9 C 65.3 222.4 65.3 221.9 65.3 221.4 C 65.4 221.1 65.4 220.9 65.5 220.6 C 65.6 220.3 65.6 220.1 65.8 219.9 C 65.9 219.7 66 219.5 66.2 219.3 C 66.3 219.1 66.5 218.9 66.6 218.8 C 66.9 218.5 67.2 218.3 67.4 218.2 C 67.6 218.1 67.7 218 67.7 218 C 67.7 218 67.6 218.1 67.5 218.3 C 67.4 218.4 67.3 218.5 67.2 218.6 C 67.1 218.7 67 218.9 66.9 219 C 66.8 219.1 66.7 219.3 66.6 219.5 C 66.5 219.7 66.4 219.9 66.3 220.1 C 66.2 220.3 66.2 220.5 66.1 220.8 C 66 221 66 221.3 66 221.5 C 65.9 222.5 66 223.4 66.1 224.2 C 66.2 224.9 66.3 225.4 66.3 225.4 Z " fill="#543825" stroke-width="1"/>
            <path d="M 67.8 208.1 C 67.8 208.1 68.1 207.5 68.7 206.4 C 69.2 205.3 69.9 203.8 70.6 201.9 C 71.3 200 72 197.7 72.2 195.2 C 72.3 194 72.2 192.7 71.8 191.4 C 71.4 190.1 71 188.8 70.5 187.6 C 69.6 185 68.7 182.5 67.9 180 C 67.1 177.6 66.6 175.2 66.1 173.3 C 65.7 171.3 65.4 169.6 65.2 168.5 C 65 167.3 64.9 166.7 64.9 166.7 C 64.9 166.7 65 167.4 65.3 168.5 C 65.4 169.1 65.6 169.8 65.8 170.6 C 66 171.4 66.2 172.3 66.5 173.3 C 66.8 174.3 67 175.3 67.4 176.5 C 67.7 177.6 68.1 178.8 68.5 180 C 69.3 182.4 70.2 184.9 71.2 187.5 C 71.6 188.8 72.1 190.1 72.4 191.4 C 72.8 192.7 72.9 194.1 72.8 195.4 C 72.7 196.7 72.4 197.9 72.1 199 C 71.8 200.1 71.4 201.2 71 202.1 C 70.2 204 69.4 205.5 68.8 206.5 C 68.2 207.5 67.8 208.1 67.8 208.1 Z " fill="#543825" stroke-width="1"/>
            <path d="M 92.2 204.5 C 92.2 204.5 92.7 204.1 93.4 203.3 C 93.8 202.9 94.2 202.4 94.6 201.8 C 95 201.2 95.6 200.5 96.1 199.8 C 96.3 199.4 96.6 199 96.9 198.6 C 97.1 198.2 97.4 197.7 97.7 197.3 C 98.2 196.4 98.7 195.4 99.2 194.4 C 99.6 193.3 100.2 192.3 100.6 191.1 C 101 190 101.4 188.8 101.8 187.6 L 102.3 185.9 C 102.5 185.3 102.6 184.7 102.8 184.1 C 103.1 182.9 103.4 181.8 103.6 180.7 C 103.8 179.6 104.1 178.5 104.2 177.4 C 104.4 176.4 104.5 175.4 104.6 174.5 C 104.9 172.7 105 171.1 105.1 170.1 C 105.2 169 105.3 168.4 105.3 168.4 C 105.3 168.4 105.3 169 105.2 170.1 C 105.2 170.6 105.1 171.3 105.1 172 C 105.1 172.8 105 173.6 104.9 174.5 C 104.8 175.4 104.7 176.4 104.6 177.5 C 104.5 178.6 104.3 179.7 104.1 180.8 C 103.9 181.9 103.6 183.1 103.4 184.3 C 103.3 184.9 103.1 185.5 103 186.1 L 102.5 187.9 C 102.2 189.1 101.7 190.2 101.3 191.4 C 100.9 192.6 100.3 193.6 99.9 194.7 C 99.4 195.7 98.9 196.7 98.3 197.6 C 98 198.1 97.8 198.5 97.5 198.9 C 97.2 199.3 96.9 199.7 96.7 200.1 C 96.2 200.9 95.6 201.5 95.1 202.1 C 94.6 202.7 94.2 203.1 93.8 203.5 C 92.7 204.2 92.2 204.5 92.2 204.5 Z " fill="#543825" stroke-width="1"/>
          </g>
          <path d="M 65 232.3 C 65.5 236.6 65.5 247.6 62.3 249.8 C 62.3 249.8 64.1 249.6 65.5 247.7 C 65.5 247.7 63.7 249.1 63.7 253.4 C 63.7 257.7 61.4 261.4 61.4 261.4 C 61.4 261.4 63.9 260.5 64.8 258.9 C 64.8 258.9 63.2 263.5 65.7 266.6 C 65.7 266.6 65 265.4 66.9 263.2 C 66.9 263.2 66.6 268.6 71.8 269.3 C 71.8 269.3 70.6 267.8 70.9 265.4 C 70.9 265.4 71.9 269.4 77.2 269.4 C 76 268.2 74.7 265.5 74.4 264.5 C 75.2 266.2 77.6 268.2 78.4 268.2 C 77.9 268.2 77 265.1 77.5 264 C 77.5 264 79.2 267.1 79.2 268.9 C 79.2 268.9 82.8 266.9 81.7 263.4 C 81.7 263.4 83.2 265.1 83.2 267.6 C 84.1 266.6 84.8 265.5 84.6 264.1 C 85.4 264.8 85.8 264.9 86.9 266.9 C 86.9 266.9 88.4 259.7 83.8 258.4 C 83.8 258.4 85.7 259 86.5 257.7 C 86.5 257.7 81.8 255.9 80 252.9 C 78.2 249.9 77.6 247.9 77.6 247.9 C 77.6 247.9 77.7 248.6 79.5 250.8 C 79.5 250.8 79.2 247.8 77.9 246 C 75.8 243.1 75.6 235.4 75.6 235.4 C 75.6 235.4 73.5 232.6 71.9 233.3 C 70.3 234 69.4 235.6 67.8 234.4 C 66.2 233.2 65 232.3 65 232.3 Z " id="Shape" fill="#D9C4B6" stroke-width="1"/>
        </g>
        <g id="Group">
          <g id="Shape">
            <path d="M 56.7 145 C 46.8 141.6 45.2 160.3 48 172.3 C 50.7 184.3 45 188.4 43.1 193.9 C 41.2 199.4 44.7 201.5 44.7 201.5 C 42 202.6 40.3 200.1 40.3 200.1 C 40.3 200.1 43 208.3 40.6 212.1 C 38.1 215.9 41.4 219.5 41.4 219.5 C 37.9 219.5 37.6 215.1 37.6 215.1 C 37.6 223 30.5 225.7 30.5 225.7 C 31 235.8 21.5 237.2 21.5 237.2 C 25.3 234.5 23.7 229.8 23.7 229.8 C 21.5 237.2 13.9 234.4 13.9 234.4 C 19.6 235.5 22.4 226.5 17.4 223.5 C 12.4 220.5 17.7 212.3 17.7 212.3 C 15.2 213.1 13.3 211.2 13.3 211.2 C 20.7 210.1 16.6 201.1 16.3 193.7 C 16 186.3 22.3 184.1 22.3 184.1 C 16.3 184.1 17.7 178.9 17.7 178.9 C 17.7 178.9 18 183.3 24.3 180.5 C 30.6 177.7 24.6 160.8 24.6 152.4 C 24.6 143.9 30.9 134.9 41.8 131.7 C 52.7 128.4 59.3 140.4 59.3 140.4 C 62.2 146 59.8 146.1 56.7 145 Z " fill="#453027" stroke-width="1"/>
            <path d="M 44.7 201.5 C 44.7 201.5 44.6 201.6 44.3 201.7 C 44.1 201.8 43.7 202 43.2 202 C 43 202 42.7 202 42.4 202 C 42.1 202 41.8 201.8 41.5 201.7 C 41.2 201.5 40.9 201.4 40.7 201.1 C 40.4 200.9 40.3 200.6 40.1 200.3 C 39.9 200 39.8 199.7 39.6 199.5 C 39.5 199.2 39.4 198.9 39.3 198.6 C 39.1 198 39.1 197.5 39 197 C 38.9 196.1 38.9 195.4 38.9 195.4 C 38.9 195.4 39.1 196 39.3 196.9 C 39.5 197.3 39.6 197.8 39.8 198.4 C 39.9 198.7 40 198.9 40.1 199.2 C 40.2 199.4 40.4 199.7 40.5 200 C 40.7 200.2 40.8 200.5 41 200.7 C 41.2 200.9 41.4 201.1 41.6 201.2 C 41.8 201.3 42 201.5 42.3 201.5 C 42.5 201.6 42.8 201.6 43 201.6 C 43.4 201.6 43.8 201.6 44.1 201.5 C 44.6 201.5 44.7 201.5 44.7 201.5 Z " fill="#261A11" stroke-width="1"/>
            <path d="M 41.4 219.5 C 41.4 219.5 41.2 219.6 40.9 219.6 C 40.7 219.6 40.6 219.6 40.3 219.6 C 40.2 219.6 40.1 219.6 40 219.5 C 39.9 219.5 39.8 219.4 39.6 219.3 C 39.4 219.2 39.1 219 38.9 218.8 C 38.7 218.6 38.5 218.3 38.3 218 C 38.1 217.7 37.9 217.4 37.8 217.1 C 37.7 216.8 37.5 216.4 37.5 216.1 C 37.4 215.8 37.3 215.4 37.3 215.1 C 37.3 214.8 37.2 214.4 37.2 214.1 C 37.2 213.8 37.2 213.5 37.2 213.2 C 37.2 212.9 37.2 212.6 37.2 212.4 C 37.3 211.4 37.3 210.7 37.3 210.7 C 37.3 210.7 37.4 211.4 37.5 212.4 C 37.6 212.9 37.7 213.5 37.8 214.1 C 37.9 214.4 37.9 214.7 38 215.1 C 38.1 215.4 38.2 215.7 38.2 216.1 C 38.3 216.4 38.4 216.7 38.5 217 C 38.6 217.3 38.8 217.6 38.9 217.9 C 39.1 218.1 39.2 218.4 39.4 218.6 C 39.6 218.8 39.8 219 40 219.1 C 40.2 219.2 40.4 219.3 40.6 219.4 C 40.8 219.5 41 219.5 41.1 219.5 C 41.3 219.5 41.4 219.5 41.4 219.5 Z " fill="#261A11" stroke-width="1"/>
            <path d="M 34.6 222.6 C 34.2 223.4 33.6 224 33 224.6 C 32.7 224.9 32.3 225.1 31.9 225.3 C 31.5 225.5 31.1 225.7 30.7 225.8 C 30.5 225.9 30.3 225.9 30.1 226 C 29.9 226.1 29.7 226.1 29.5 226.1 L 28.8 226.2 L 28.1 226.2 C 27.7 226.2 27.2 226.1 26.8 226 C 26.6 226 26.4 225.9 26.2 225.8 C 26 225.7 25.8 225.6 25.6 225.6 C 26.3 225.5 27.1 225.2 27.7 224.9 C 28 224.7 28.3 224.5 28.6 224.3 C 28.9 224.1 29.2 223.8 29.4 223.5 C 29.5 223.4 29.6 223.2 29.7 223.1 C 29.8 223 29.9 222.8 30 222.6 L 30.3 222.1 L 30.5 221.6 C 30.7 221.3 30.7 220.9 30.8 220.5 C 30.9 220.1 30.9 219.8 31 219.4 C 31 219.6 31 219.8 31 220 C 31 220.2 31 220.4 31 220.6 C 30.9 221 30.9 221.4 30.8 221.7 L 30.6 222.3 L 30.3 222.8 C 30.1 223.1 29.9 223.5 29.6 223.8 C 29.3 224.1 29 224.3 28.7 224.6 L 28.2 224.9 L 27.7 225.2 C 27 225.5 26.2 225.7 25.5 225.7 C 25.9 225.7 26.3 225.8 26.8 225.8 L 27.4 225.8 C 27.6 225.8 27.8 225.8 28 225.8 C 28.4 225.8 28.8 225.8 29.2 225.7 C 29.4 225.7 29.6 225.6 29.8 225.6 C 30 225.6 30.2 225.5 30.4 225.5 C 30.8 225.4 31.2 225.2 31.5 225.1 C 31.9 224.9 32.2 224.7 32.6 224.5 C 32.9 224.3 33.3 224 33.6 223.8 C 34.1 223.3 34.4 223 34.6 222.6 Z " fill="#261A11" stroke-width="1"/>
            <path d="M 13.9 234.5 C 13.9 234.5 14.1 234.5 14.6 234.6 C 15 234.7 15.6 234.7 16.3 234.7 C 16.7 234.7 17 234.7 17.4 234.6 C 17.8 234.6 18.2 234.5 18.6 234.4 C 19 234.3 19.4 234.2 19.9 234 C 20.3 233.8 20.7 233.6 21.1 233.3 C 21.5 233.1 21.8 232.7 22.1 232.4 C 22.4 232.1 22.6 231.7 22.9 231.3 C 23.1 230.9 23.2 230.5 23.4 230.2 C 23.5 229.8 23.6 229.4 23.7 229.1 C 23.8 228.8 23.9 228.4 23.9 228.2 C 23.9 227.9 24 227.7 24 227.5 C 24.1 227.1 24.1 226.8 24.1 226.8 C 24.1 226.8 24.1 227 24.1 227.5 C 24.1 227.7 24.1 228 24.1 228.3 C 24.1 228.4 24.1 228.6 24.1 228.8 C 24.1 229 24 229.1 24 229.3 C 23.9 229.7 23.9 230.1 23.8 230.5 C 23.7 230.9 23.5 231.3 23.3 231.8 C 23 232.2 22.8 232.6 22.5 233 C 22.2 233.4 21.8 233.8 21.4 234 C 21 234.3 20.5 234.5 20.1 234.7 C 19.6 234.9 19.2 235 18.7 235.1 C 18.2 235.2 17.8 235.2 17.4 235.2 C 17 235.2 16.6 235.2 16.2 235.2 C 14.8 234.9 13.9 234.5 13.9 234.5 Z " fill="#261A11" stroke-width="1"/>
            <path d="M 13.3 211.3 C 13.3 211.3 13.9 211.6 14.7 211.9 C 14.9 212 15.2 212 15.4 212.1 C 15.7 212.2 15.9 212.2 16.2 212.2 C 16.5 212.2 16.8 212.2 17 212.2 C 17.3 212.2 17.6 212.1 17.8 212 C 18.1 211.9 18.3 211.8 18.6 211.6 C 18.8 211.4 19.1 211.3 19.3 211.1 C 19.5 210.9 19.7 210.7 19.9 210.5 C 20.1 210.3 20.2 210.1 20.4 209.9 C 20.7 209.5 20.9 209.2 21 209 C 21.2 208.8 21.2 208.6 21.2 208.6 C 21.2 208.6 21.2 208.8 21.1 209 C 21 209.3 20.9 209.7 20.7 210.1 C 20.6 210.3 20.5 210.5 20.3 210.8 C 20.1 211 19.9 211.3 19.7 211.5 C 19.5 211.7 19.2 211.9 19 212.1 C 18.7 212.3 18.4 212.4 18.1 212.6 C 17.8 212.7 17.4 212.8 17.1 212.8 C 16.8 212.9 16.4 212.8 16.1 212.8 C 15.5 212.7 14.9 212.5 14.5 212.3 C 13.8 211.8 13.3 211.3 13.3 211.3 Z " fill="#261A11" stroke-width="1"/>
            <path d="M 17.7 179.1 C 17.7 179.1 17.7 179.3 17.7 179.7 C 17.7 180.1 17.7 180.6 17.8 181.2 C 17.8 181.5 18 181.8 18.1 182.1 C 18.2 182.2 18.3 182.4 18.3 182.5 C 18.4 182.7 18.5 182.8 18.6 182.9 C 18.7 183.1 18.9 183.1 19 183.3 C 19.1 183.4 19.3 183.5 19.5 183.6 C 19.7 183.7 19.8 183.8 20 183.8 L 20.6 183.9 C 21 184 21.4 183.9 21.8 184 C 22.2 184 22.6 183.9 23 183.9 C 23.8 183.8 24.4 183.6 25.1 183.5 C 26.3 183.2 27.1 183 27.1 183 C 27.1 183 26.4 183.4 25.2 183.9 C 24.9 184 24.6 184.1 24.2 184.2 C 23.9 184.3 23.5 184.4 23.1 184.5 C 22.7 184.5 22.3 184.7 21.9 184.7 C 21.5 184.7 21 184.7 20.6 184.6 L 20 184.5 C 19.8 184.4 19.6 184.3 19.4 184.2 C 19.2 184.1 19 184 18.9 183.8 C 18.7 183.7 18.6 183.5 18.4 183.3 C 18.3 183.1 18.1 183 18.1 182.8 C 18 182.6 17.9 182.4 17.9 182.3 C 17.8 181.9 17.7 181.6 17.7 181.3 C 17.6 180.7 17.7 180.1 17.8 179.8 C 17.6 179.3 17.7 179.1 17.7 179.1 Z " fill="#261A11" stroke-width="1"/>
            <path d="M 57.8 141.5 C 57.8 141.5 57.3 140.6 56.2 139.5 C 55.9 139.2 55.7 138.9 55.3 138.6 C 55 138.3 54.6 138 54.3 137.7 C 53.9 137.4 53.5 137.1 53.1 136.9 C 52.7 136.7 52.2 136.4 51.8 136.3 C 51.4 136.1 50.9 136 50.4 135.9 C 49.9 135.8 49.4 135.8 49 135.7 C 48.5 135.7 48.1 135.7 47.7 135.7 C 47.3 135.7 46.9 135.8 46.5 135.8 C 46.1 135.9 45.8 135.9 45.5 136 C 45.2 136.1 44.9 136.1 44.7 136.2 C 44.3 136.3 44 136.4 44 136.4 C 44 136.4 44.2 136.3 44.6 136.1 C 44.8 136 45.1 135.9 45.4 135.8 C 45.7 135.7 46 135.6 46.4 135.5 C 46.8 135.4 47.2 135.3 47.6 135.3 C 48 135.3 48.5 135.2 49 135.2 C 49.5 135.3 50 135.2 50.5 135.4 C 51 135.5 51.5 135.6 52 135.8 C 52.5 136 53 136.2 53.4 136.5 C 53.9 136.8 54.3 137.1 54.6 137.4 C 55.4 138 56 138.7 56.4 139.3 C 57.5 140.5 57.8 141.5 57.8 141.5 Z " fill="#261A11" stroke-width="1"/>
            <path d="M 56.6 143 C 56.6 143 56.3 142.8 55.9 142.4 C 55.4 142.1 54.7 141.6 53.8 141.2 C 52.9 140.8 51.8 140.4 50.6 140.3 C 49.4 140.2 48.1 140.5 47 141.2 C 46.4 141.5 46 142 45.5 142.4 C 45.3 142.6 45.1 142.9 44.9 143.1 C 44.7 143.4 44.5 143.6 44.3 143.9 C 44 144.4 43.6 144.9 43.4 145.5 C 43.1 146 42.9 146.5 42.7 147 C 42.5 147.5 42.3 147.9 42.2 148.3 C 42 148.7 41.9 149 41.8 149.3 C 41.6 149.9 41.5 150.2 41.5 150.2 C 41.5 150.2 41.6 149.9 41.7 149.3 C 41.8 149 41.8 148.7 42 148.3 C 42.1 147.9 42.2 147.4 42.4 147 C 42.8 146 43.2 144.9 43.9 143.8 C 44.1 143.5 44.3 143.3 44.5 143 C 44.7 142.7 44.9 142.5 45.1 142.2 C 45.6 141.7 46.1 141.2 46.7 140.8 C 47.9 140 49.4 139.7 50.7 139.9 C 52 140 53.2 140.5 54.1 141.1 C 55 141.6 55.7 142.2 56.1 142.6 C 56.4 142.8 56.6 143 56.6 143 Z " fill="#261A11" stroke-width="1"/>
          </g>
          <path d="M 55.7 144.9 C 55.7 144.9 55.4 144.8 54.8 144.7 C 54.5 144.7 54.2 144.7 53.8 144.7 C 53.4 144.8 53 144.8 52.6 145 C 52.4 145.1 52.2 145.2 52 145.3 C 51.8 145.4 51.6 145.6 51.4 145.7 C 51.2 145.9 51 146 50.8 146.3 C 50.6 146.5 50.4 146.7 50.3 147 C 50 147.5 49.7 148 49.4 148.5 C 49.2 149.1 48.9 149.6 48.7 150.2 C 48.5 150.8 48.3 151.4 48.2 152 C 48.1 152.6 47.9 153.2 47.8 153.8 C 47.7 154.4 47.6 154.9 47.5 155.5 C 47.4 156 47.3 156.5 47.3 157 C 47.1 158.9 46.9 160.2 46.9 160.2 C 46.9 160.2 46.9 158.9 46.9 157 C 46.9 156.5 47 156 47 155.5 C 47.1 155 47.1 154.4 47.2 153.8 C 47.3 153.2 47.4 152.6 47.6 152 C 47.7 151.4 47.9 150.8 48.1 150.1 C 48.3 149.5 48.6 148.9 48.8 148.3 C 49.1 147.7 49.4 147.2 49.8 146.7 C 50 146.5 50.2 146.2 50.4 146 C 50.6 145.8 50.9 145.6 51.1 145.4 C 51.3 145.2 51.6 145.1 51.8 145 C 52 144.9 52.3 144.7 52.5 144.7 C 53 144.5 53.4 144.5 53.8 144.5 C 54.2 144.5 54.5 144.5 54.8 144.6 C 55.4 144.8 55.7 144.9 55.7 144.9 Z " id="Shape" fill="#261A11" stroke-width="1"/>
          <path d="M 21.5 237.2 C 21.5 237.2 21.7 237.1 22.2 237 C 22.6 236.9 23.2 236.7 23.9 236.3 C 24.6 236 25.3 235.5 26 235 C 26.4 234.7 26.7 234.4 27.1 234.1 C 27.5 233.8 27.7 233.4 28 233 C 28.3 232.6 28.5 232.2 28.8 231.8 C 29 231.4 29.2 230.9 29.4 230.5 C 29.5 230.1 29.7 229.6 29.8 229.3 C 29.9 228.9 30 228.5 30.1 228.1 C 30.2 227.7 30.3 227.4 30.3 227.1 C 30.3 226.8 30.4 226.5 30.4 226.3 C 30.5 225.9 30.5 225.6 30.5 225.6 C 30.5 225.6 30.5 225.9 30.5 226.3 C 30.5 226.5 30.5 226.8 30.5 227.1 C 30.5 227.4 30.5 227.8 30.4 228.1 C 30.3 228.5 30.3 228.9 30.2 229.3 C 30.1 229.7 30 230.2 29.8 230.6 C 29.6 231 29.4 231.5 29.2 232 C 28.9 232.4 28.7 232.9 28.4 233.3 C 28.1 233.7 27.8 234.1 27.4 234.4 C 27 234.8 26.6 235.1 26.3 235.3 C 25.9 235.6 25.5 235.8 25.1 236 C 24.7 236.2 24.3 236.4 24 236.5 C 23.3 236.8 22.7 236.9 22.2 236.9 C 21.8 237.2 21.5 237.2 21.5 237.2 Z " id="Shape" fill="#261A11" stroke-width="1"/>
          <path d="M 24.3 180.7 C 24.3 180.7 24.5 180.7 24.7 180.5 C 25 180.3 25.3 180.1 25.6 179.6 C 25.9 179.1 26.3 178.6 26.5 177.8 C 26.7 177.1 26.9 176.2 27 175.2 C 27 174.7 27.1 174.2 27.1 173.7 C 27.1 173.2 27.1 172.7 27 172.1 C 26.9 171.6 26.9 171 26.8 170.4 C 26.7 169.8 26.6 169.2 26.5 168.7 C 26.3 167.5 26.1 166.3 25.8 165.1 C 25.5 163.9 25.3 162.6 25 161.3 C 24.8 160 24.6 158.8 24.4 157.5 C 24.2 156.2 24.1 155 24.1 153.8 C 24.1 152.6 24.1 151.4 24.3 150.3 C 24.4 149.7 24.5 149.2 24.6 148.7 C 24.8 148.2 24.9 147.7 25 147.2 C 25.7 145.4 26.5 144 27.1 143 C 27.4 142.5 27.7 142.2 27.8 141.9 C 28 141.6 28.1 141.5 28.1 141.5 C 28.1 141.5 27.8 142.1 27.2 143 C 26.7 144 25.9 145.4 25.3 147.2 C 25.1 147.7 25.1 148.1 24.9 148.6 C 24.8 149.1 24.7 149.6 24.7 150.2 C 24.6 151.3 24.6 152.4 24.6 153.6 C 24.7 154.8 24.8 156 25 157.3 C 25.2 158.5 25.4 159.8 25.6 161.1 C 25.8 162.4 26.1 163.6 26.3 164.9 C 26.6 166.1 26.8 167.4 27 168.6 C 27.1 169.2 27.2 169.8 27.2 170.4 C 27.2 171 27.3 171.6 27.3 172.1 C 27.3 172.7 27.3 173.2 27.3 173.7 C 27.3 174.2 27.2 174.7 27.2 175.2 C 27.1 175.7 27.1 176.1 27 176.6 C 26.9 177 26.8 177.4 26.6 177.8 C 26.3 178.6 25.9 179.1 25.6 179.6 C 25.2 180 24.9 180.3 24.6 180.4 C 24.4 180.7 24.3 180.7 24.3 180.7 Z " id="Shape" fill="#261A11" stroke-width="1"/>
        </g>
        <g id="Group">
          <g id="Shape">
            <g>
              <path d="M 174.1 148.6 C 179.5 159.3 180.5 172.2 176.5 182.5 C 168.1 203.8 133.2 204 108.6 194.6 C 98.3 190.7 88 193.9 64.5 190.7 C 50.7 188.8 41.4 171.2 48.8 154 C 56.2 136.8 75.2 130.2 90.4 138 C 108.6 147.3 137.2 137.7 143.9 133.8 C 150 130.2 168.7 137.9 174.1 148.6 Z " fill="#874E35" stroke-width="1"/>
              <path d="M 91.4 138.4 C 91.4 138.4 92 138.7 93.2 139.1 C 93.8 139.3 94.5 139.5 95.3 139.7 C 96.1 139.9 97.1 140.1 98.1 140.4 C 99.1 140.6 100.2 140.8 101.4 140.9 C 102 141 102.6 141.1 103.2 141.1 C 103.8 141.2 104.5 141.2 105.1 141.3 C 106.4 141.4 107.8 141.4 109.1 141.5 C 110.5 141.5 111.9 141.5 113.3 141.4 C 114.7 141.3 116.1 141.2 117.5 141.1 C 118.9 140.9 120.2 140.8 121.5 140.6 C 122.8 140.4 124 140.1 125.2 139.9 C 126.4 139.7 127.5 139.4 128.5 139.1 C 129.5 138.9 130.5 138.7 131.3 138.4 C 132.1 138.2 132.8 138 133.4 137.8 C 134.6 137.5 135.3 137.3 135.3 137.3 C 135.3 137.3 134.6 137.5 133.5 137.9 C 132.9 138.1 132.2 138.3 131.4 138.6 C 130.6 138.9 129.7 139.2 128.6 139.4 C 127.6 139.7 126.5 140 125.3 140.3 C 124.1 140.5 122.9 140.8 121.6 141.1 C 120.3 141.3 118.9 141.5 117.6 141.7 C 116.2 141.9 114.8 141.9 113.4 142.1 C 112 142.1 110.6 142.2 109.2 142.1 C 107.8 142 106.4 142 105.1 141.9 C 104.4 141.8 103.8 141.8 103.2 141.7 C 102.6 141.6 102 141.5 101.4 141.4 C 100.2 141.2 99.1 140.9 98 140.7 C 97 140.4 96 140.2 95.2 139.9 C 94.4 139.7 93.7 139.4 93.1 139.2 C 92 138.8 91.4 138.4 91.4 138.4 Z " fill="#633C22" stroke-width="1"/>
            </g>
            <path d="M 114.4 196.5 C 114.4 196.5 115.3 196.8 116.8 197.2 C 118.3 197.6 120.6 198.1 123.3 198.6 C 128.7 199.6 135.9 200.6 143.2 200.3 C 145 200.3 146.8 200.1 148.6 199.9 C 150.4 199.7 152.1 199.4 153.8 199 C 154.6 198.8 155.4 198.6 156.2 198.4 C 157 198.2 157.8 198 158.5 197.7 C 160 197.2 161.4 196.7 162.6 196.1 C 163.2 195.8 163.8 195.5 164.4 195.2 C 164.9 194.9 165.5 194.6 165.9 194.3 C 166.9 193.8 167.6 193.2 168.3 192.8 C 169.6 191.8 170.3 191.3 170.3 191.3 C 170.3 191.3 169.6 191.9 168.4 192.9 C 167.7 193.4 167 194 166 194.6 C 165.5 194.9 165 195.2 164.5 195.5 C 164 195.8 163.4 196.1 162.7 196.4 C 161.5 197 160.1 197.6 158.6 198.1 C 157.1 198.6 155.5 199.1 153.8 199.5 C 152.1 199.9 150.4 200.2 148.6 200.4 C 146.8 200.6 145 200.8 143.1 200.8 C 141.3 200.9 139.4 200.8 137.6 200.7 C 135.8 200.6 134 200.5 132.3 200.3 C 128.9 199.9 125.7 199.3 123 198.8 C 120.3 198.2 118.1 197.6 116.6 197.1 C 115.3 196.8 114.4 196.5 114.4 196.5 Z " fill="#633C22" stroke-width="1"/>
          </g>
          <g id="Shape">
            <path d="M 175.1 151.3 C 175.1 151.3 178.3 160.3 181.1 161 C 181.1 161 178.4 160.9 177.6 158.9 C 177.6 158.9 181.3 162.3 181.3 165.2 C 181.3 165.2 180.6 163.5 179.5 163.5 C 179.5 163.5 182.4 167.9 178.8 171.1 " fill="#874E35" stroke-width="1"/>
            <path d="M 178.3 167.2 C 178.3 167.2 178.5 167.8 178.7 168.7 C 178.9 169.6 179 170.9 179 172.1 C 179 173.3 178.8 174.6 178.6 175.5 C 178.5 176 178.3 176.3 178.2 176.6 C 178.1 176.9 178 177 178 177 C 178 177 178 176.8 178 176.6 C 178 176.3 178.1 175.9 178.1 175.5 C 178.2 174.6 178.2 173.4 178.3 172.2 C 178.3 171 178.3 169.8 178.3 168.8 C 178.3 167.8 178.3 167.2 178.3 167.2 Z " fill="#633C22" stroke-width="1"/>
            <path d="M 181.1 160.9 C 181.1 160.9 181 160.9 180.8 160.9 C 180.6 160.8 180.3 160.7 180 160.5 C 179.4 160.1 178.7 159.4 178.2 158.6 C 177.7 157.8 177.3 156.9 177.1 156.2 C 177 155.9 176.9 155.6 176.9 155.4 C 176.9 155.2 176.8 155.1 176.8 155.1 C 176.8 155.1 177.1 155.5 177.4 156.1 C 177.8 156.7 178.2 157.5 178.7 158.3 C 179.2 159.1 179.7 159.8 180.2 160.3 C 180.6 160.7 181.1 160.9 181.1 160.9 Z " fill="#633C22" stroke-width="1"/>
            <path d="M 181.2 165.2 C 181.2 165.2 181.1 164.9 180.9 164.4 C 180.7 163.9 180.5 163.3 180.2 162.8 C 179.9 162.2 179.6 161.7 179.3 161.3 C 179.2 161.1 179.1 160.9 179 160.8 C 178.9 160.7 178.9 160.6 178.9 160.6 C 178.9 160.6 179 160.6 179.1 160.7 C 179.2 160.8 179.4 160.9 179.6 161 C 179.8 161.2 180 161.4 180.2 161.6 C 180.4 161.9 180.6 162.2 180.7 162.5 C 181 163.1 181.1 163.8 181.2 164.3 C 181.3 164.8 181.2 165.2 181.2 165.2 Z " fill="#633C22" stroke-width="1"/>
            <path d="M 179.4 163.5 C 179.4 163.5 179.7 163.8 180 164.3 C 180.2 164.5 180.3 164.9 180.4 165.2 C 180.5 165.5 180.6 165.9 180.7 166.3 C 180.8 166.7 180.8 167.1 180.7 167.5 C 180.7 167.9 180.6 168.2 180.5 168.5 C 180.4 168.8 180.3 169 180.2 169.1 C 180.1 169.2 180.1 169.3 180.1 169.3 C 180.1 169.3 180.1 169.2 180.1 169 C 180.1 168.8 180.1 168.6 180.2 168.3 C 180.2 168 180.2 167.7 180.2 167.4 C 180.2 167.1 180.2 166.7 180.1 166.3 C 180 165.6 179.8 164.9 179.7 164.3 C 179.5 163.9 179.4 163.5 179.4 163.5 Z " fill="#633C22" stroke-width="1"/>
          </g>
        </g>
        <g id="Group">
          <g id="Shape">
            <path d="M 87.9 172.1 C 87.9 172.1 87 199.7 73.2 209.5 C 59.4 219.3 58.2 230.3 58.6 239.1 C 58.8 244.6 59.4 261.2 64.4 262.8 C 69.8 264.5 68.3 273.4 68.3 273.4 C 65.3 274.3 59.1 274.8 56.1 273.9 C 56.1 273.9 56.2 266.5 54 265.9 C 51.8 265.3 48.9 263.5 50.1 260.2 C 51.3 256.9 49.7 242.1 48.2 237.6 C 46.7 233.1 42.1 224.7 45.6 219.9 C 49.1 215.1 57.2 202 54.6 193.7 C 52 185.4 37.9 153.5 57.4 148.8 C 76.9 144.1 89.9 151.7 87.9 172.1 Z " fill="#874E35" stroke-width="1"/>
            <path d="M 55.5 274.3 C 58.5 275.2 65.2 274.5 68.3 273.5 C 68.3 273.5 68.9 269.7 67.9 266.6 C 64.4 267.5 57.3 268.3 54.9 268.3 C 55.7 270.5 55.5 274.3 55.5 274.3 Z " fill="#B3927E" stroke-width="1"/>
            <path d="M 49 229.1 C 49 229.1 48.7 228.7 48.4 227.9 C 48.3 227.5 48.1 227.1 48.1 226.6 C 48 226.1 48 225.6 48 225.1 C 48.1 224.8 48.1 224.6 48.2 224.3 C 48.3 224 48.3 223.8 48.5 223.6 C 48.6 223.4 48.7 223.2 48.9 223 C 49 222.8 49.2 222.6 49.3 222.5 C 49.6 222.2 49.9 222 50.1 221.9 C 50.3 221.8 50.4 221.7 50.4 221.7 C 50.4 221.7 50.3 221.8 50.2 222 C 50.1 222.1 50 222.2 49.9 222.3 C 49.8 222.4 49.7 222.6 49.6 222.7 C 49.5 222.8 49.4 223 49.3 223.2 C 49.2 223.4 49.1 223.6 49 223.8 C 48.9 224 48.9 224.2 48.8 224.5 C 48.7 224.7 48.7 225 48.7 225.2 C 48.6 226.2 48.7 227.1 48.8 227.9 C 48.9 228.6 49 229.1 49 229.1 Z " fill="#633C22" stroke-width="1"/>
            <path d="M 50.5 211.8 C 50.5 211.8 50.8 211.2 51.4 210.1 C 51.9 209 52.6 207.5 53.3 205.6 C 54 203.7 54.7 201.4 54.9 198.9 C 55 197.7 54.9 196.4 54.5 195.1 C 54.1 193.8 53.7 192.5 53.2 191.3 C 52.3 188.7 51.4 186.2 50.6 183.7 C 49.8 181.3 49.3 178.9 48.8 177 C 48.4 175 48.1 173.3 47.9 172.2 C 47.7 171 47.6 170.4 47.6 170.4 C 47.6 170.4 47.7 171.1 48 172.2 C 48.1 172.8 48.3 173.5 48.5 174.3 C 48.7 175.1 48.9 176 49.2 177 C 49.5 178 49.7 179 50.1 180.2 C 50.4 181.3 50.8 182.5 51.2 183.7 C 52 186.1 52.9 188.6 53.9 191.2 C 54.3 192.5 54.8 193.8 55.1 195.1 C 55.5 196.4 55.6 197.8 55.5 199.1 C 55.4 200.4 55.1 201.6 54.8 202.7 C 54.5 203.8 54.1 204.9 53.7 205.8 C 52.9 207.7 52.1 209.2 51.5 210.2 C 50.9 211.2 50.5 211.8 50.5 211.8 Z " fill="#633C22" stroke-width="1"/>
            <path d="M 74.9 208.2 C 74.9 208.2 75.4 207.8 76.1 207 C 76.5 206.6 76.9 206.1 77.3 205.5 C 77.7 204.9 78.3 204.2 78.8 203.5 C 79 203.1 79.3 202.7 79.6 202.3 C 79.8 201.9 80.1 201.4 80.4 201 C 80.9 200.1 81.4 199.1 81.9 198.1 C 82.3 197 82.9 196 83.3 194.8 C 83.7 193.7 84.1 192.5 84.5 191.3 L 85 189.6 C 85.2 189 85.3 188.4 85.5 187.8 C 85.8 186.6 86.1 185.5 86.3 184.4 C 86.5 183.3 86.8 182.2 86.9 181.1 C 87.1 180.1 87.2 179.1 87.3 178.2 C 87.6 176.4 87.7 174.8 87.8 173.8 C 87.9 172.7 88 172.1 88 172.1 C 88 172.1 88 172.7 87.9 173.8 C 87.9 174.3 87.8 175 87.8 175.7 C 87.8 176.5 87.7 177.3 87.6 178.2 C 87.5 179.1 87.4 180.1 87.3 181.2 C 87.2 182.3 87 183.4 86.8 184.5 C 86.6 185.6 86.3 186.8 86.1 188 C 86 188.6 85.8 189.2 85.7 189.8 L 85.2 191.6 C 84.9 192.8 84.4 193.9 84 195.1 C 83.6 196.3 83 197.3 82.6 198.4 C 82.1 199.4 81.6 200.4 81 201.3 C 80.7 201.8 80.5 202.2 80.2 202.6 C 79.9 203 79.6 203.4 79.4 203.8 C 78.9 204.6 78.3 205.2 77.8 205.8 C 77.3 206.4 76.9 206.8 76.5 207.2 C 75.4 207.9 74.9 208.2 74.9 208.2 Z " fill="#633C22" stroke-width="1"/>
          </g>
          <path d="M 47.7 236 C 48.2 240.3 48.2 251.3 45 253.5 C 45 253.5 46.8 253.3 48.2 251.4 C 48.2 251.4 46.4 252.8 46.4 257.1 C 46.4 261.4 44.1 265.1 44.1 265.1 C 44.1 265.1 46.6 264.2 47.5 262.6 C 47.5 262.6 45.9 267.2 48.4 270.3 C 48.4 270.3 47.7 269.1 49.6 266.9 C 49.6 266.9 49.3 272.3 54.5 273 C 54.5 273 53.3 271.5 53.6 269.1 C 53.6 269.1 54.6 273.1 59.9 273.1 C 58.7 271.9 57.4 269.2 57.1 268.2 C 57.9 269.9 60.3 271.9 61.1 271.9 C 60.6 271.9 59.7 268.8 60.2 267.7 C 60.2 267.7 61.9 270.8 61.9 272.6 C 61.9 272.6 65.5 270.6 64.4 267.1 C 64.4 267.1 65.9 268.8 65.9 271.3 C 66.8 270.3 67.5 269.2 67.3 267.8 C 68.1 268.5 68.5 268.6 69.6 270.6 C 69.6 270.6 71.1 263.4 66.5 262.1 C 66.5 262.1 68.4 262.7 69.2 261.4 C 69.2 261.4 64.5 259.6 62.7 256.6 C 60.9 253.6 60.3 251.6 60.3 251.6 C 60.3 251.6 60.4 252.3 62.2 254.5 C 62.2 254.5 61.9 251.5 60.6 249.7 C 58.5 246.8 58.3 239.1 58.3 239.1 C 58.3 239.1 56.2 236.3 54.6 237 C 53 237.7 52.1 239.3 50.5 238.1 C 48.9 236.9 47.7 236 47.7 236 Z " id="Shape" fill="#EBD4C5" stroke-width="1"/>
        </g>
        <g id="Group">
          <g id="Shape">
            <path d="M 153.7 200.1 C 153.8 199.7 161.3 179.5 156.7 173.5 C 149.9 164.7 136.3 166.1 131.7 169.9 C 127.1 173.7 128.6 183.6 130.8 189.7 C 131.9 192.6 132 194.5 133 198.2 C 134 201.9 134.3 208.8 134.9 213.4 C 135.8 219.7 134.8 224.1 133.7 225.9 C 132.6 227.7 131.5 231.8 132.8 235.5 C 133.7 237.8 137.2 245.1 135.5 256.9 C 135.1 259.8 137.6 262.3 138.8 263.4 C 140.5 265.1 140.9 270.1 140.9 270.1 C 142.6 271.8 150.7 270.8 150.7 270.8 C 150.9 266.1 150.7 262.8 148.2 261.1 C 144.7 258.7 144.1 255 144.1 253.6 C 144.2 250 144.3 243.7 146.3 238.2 C 148.1 233.2 148.6 226.3 148.6 223.9 C 148.8 220 150.7 213.6 153.7 200.1 Z " fill="#874E35" stroke-width="1"/>
            <path d="M 135.3 219.7 C 135.3 219.7 135.3 219.2 135.3 218.2 C 135.3 217.2 135.2 215.9 135.1 214.2 C 135 212.6 134.8 210.7 134.5 208.6 C 134.4 207.6 134.2 206.5 134.1 205.5 C 134 204.4 133.7 203.4 133.6 202.3 C 133.4 201.2 133.2 200.2 133 199.1 C 132.8 198 132.5 197 132.3 196 C 132.1 195 131.8 194 131.6 193.1 C 131.4 192.2 131.1 191.3 130.9 190.5 C 130.7 189.7 130.5 189 130.3 188.3 C 130.1 187.7 130 187.1 129.8 186.6 C 129.5 185.7 129.4 185.1 129.4 185.1 C 129.4 185.1 129.6 185.6 129.9 186.5 C 130.2 187.4 130.7 188.7 131.2 190.3 C 131.4 191.1 131.7 191.9 132 192.8 C 132.3 193.7 132.5 194.7 132.8 195.7 C 133 196.7 133.3 197.7 133.5 198.8 C 133.7 199.9 133.9 200.9 134.1 202 C 134.3 203.1 134.5 204.2 134.6 205.2 C 134.7 206.3 134.9 207.3 135 208.4 C 135.2 210.4 135.3 212.4 135.4 214 C 135.4 215.6 135.4 217 135.4 218 C 135.3 219.2 135.3 219.7 135.3 219.7 Z " fill="#633C22" stroke-width="1"/>
            <path d="M 154.2 198.6 C 154.2 198.6 154.3 198 154.5 197.2 C 154.7 196.3 155 195.2 155.3 194.1 C 155.9 191.9 156.6 189.6 156.6 189.6 C 156.6 189.6 156.6 190.2 156.6 191.1 C 156.5 192 156.3 193.1 156 194.3 C 155.7 195.4 155.3 196.5 154.9 197.3 C 154.5 198.1 154.2 198.6 154.2 198.6 Z " fill="#633C22" stroke-width="1"/>
            <path d="M 138 230 C 138 230 138 230.3 138.1 230.8 C 138.2 231.3 138.3 231.9 138.5 232.5 C 138.6 232.8 138.7 233.1 138.8 233.4 C 138.9 233.7 139.1 233.9 139.2 234.1 C 139.3 234.3 139.5 234.5 139.6 234.6 C 139.7 234.7 139.8 234.8 139.8 234.8 C 139.8 234.8 139.7 234.8 139.6 234.7 C 139.5 234.6 139.2 234.6 139 234.4 C 138.8 234.2 138.5 234 138.4 233.7 C 138.2 233.4 138.1 233.1 137.9 232.7 C 137.7 232 137.7 231.3 137.8 230.8 C 137.8 230.3 138 230 138 230 Z " fill="#633C22" stroke-width="1"/>
          </g>
          <path d="M 142 274.3 C 145 275.2 151.7 274.5 154.8 273.5 C 154.8 273.5 155.4 269.7 154.4 266.6 C 150.9 267.5 143.8 268.3 141.4 268.3 C 142.2 270.5 142 274.3 142 274.3 Z " id="Shape" fill="#B3927E" stroke-width="1"/>
          <path d="M 133.4 236.1 C 133.9 240.4 134.8 251.5 131.5 253.6 C 131.5 253.6 133.3 253.4 134.7 251.5 C 134.7 251.5 132.9 252.9 132.9 257.2 C 132.9 261.5 130.6 265.2 130.6 265.2 C 130.6 265.2 133.1 264.3 134 262.7 C 134 262.7 132.4 267.3 134.9 270.4 C 134.9 270.4 134.2 269.2 136.1 267 C 136.1 267 135.8 272.4 141 273.1 C 141 273.1 139.8 271.6 140.1 269.2 C 140.1 269.2 141.1 273.2 146.4 273.2 C 145.2 272 143.9 269.3 143.6 268.3 C 144.4 270 146.8 272 147.6 272 C 147.1 272 146.2 268.9 146.7 267.8 C 146.7 267.8 148.4 270.9 148.4 272.7 C 148.4 272.7 152 270.7 150.9 267.2 C 150.9 267.2 152.4 268.9 152.4 271.4 C 153.3 270.4 154 269.3 153.8 267.9 C 154.6 268.6 155 268.7 156.1 270.7 C 156.1 270.7 157.6 263.5 153 262.2 C 153 262.2 154.9 262.8 155.7 261.5 C 155.7 261.5 151 259.7 149.2 256.7 C 147.4 253.7 146.8 251.7 146.8 251.7 C 146.8 251.7 146.9 252.4 148.7 254.6 C 148.7 254.6 148.4 251.6 147.1 249.8 C 145 246.9 145.7 238.5 145.7 238.5 C 145.7 238.5 142.6 236.4 141 237.1 C 139.4 237.8 138.5 239.4 136.9 238.2 C 135.6 237 133.4 236.1 133.4 236.1 Z " id="Shape" fill="#EBD4C5" stroke-width="1"/>
        </g>
        <g id="Group">
          <g id="Shape">
            <path d="M 171.8 146 C 171.8 146 177.8 152.1 178.4 154.1 C 178.4 154.1 168.7 162.7 156.6 161.1 C 144.5 159.5 127.2 152 122 140.1 L 129.2 138.9 C 129.2 138.9 162.2 151.9 171.8 146 Z " fill="#CCAD87" stroke-width="1"/>
            <path d="M 178.4 154.1 C 178.4 154.1 178.2 153.9 177.9 153.6 C 177.6 153.3 177.2 152.8 176.9 152.3 C 176.6 151.8 176.3 151.3 176 150.9 C 175.8 150.5 175.6 150.2 175.6 150.2 C 175.6 150.2 175.9 150.3 176.3 150.6 C 176.7 150.9 177.1 151.3 177.4 151.8 C 177.7 152.3 178 152.8 178.2 153.2 C 178.4 153.8 178.4 154.1 178.4 154.1 Z " fill="#8C6C54" stroke-width="1"/>
          </g>
          <g>
            <path d="M 125.6 139.2 C 125.6 139.2 129.5 153 148.8 154.4 C 163.8 155.5 171.8 154.4 175.6 150.3 L 174.4 147.8 C 174.4 147.8 169.5 152.6 146.5 149.4 C 137.5 148.1 128.3 138.9 128.3 138.9 L 125.6 139.2 Z " id="Shape" fill="#633C22" stroke-width="1"/>
            <g>
              <path d="M 131 145.4 C 128.1 146.8 125.4 155.5 125.8 159.3 C 126.2 163.1 134.8 167.8 139.6 165.1 C 144.4 162.4 144.6 152.7 142.7 150.6 C 140.8 148.5 132.5 144.7 131 145.4 Z " id="Shape" fill="#633C22" stroke-width="1"/>
              <path d="M 130.2 146.5 C 130.2 146.5 130.3 146.8 130.4 147.2 C 130.5 147.6 130.7 148.3 130.9 149 C 131.1 149.7 131.4 150.6 131.9 151.4 C 132.1 151.8 132.4 152.2 132.7 152.5 C 133.1 152.8 133.4 153 133.9 152.9 C 134.4 152.9 134.9 152.8 135.4 152.8 C 135.9 152.7 136.4 152.7 136.9 152.6 C 137.9 152.5 138.8 152.4 139.6 152.3 C 141.2 152.1 142.2 152 142.2 152 C 142.2 152 141.2 152.3 139.7 152.7 C 138.9 152.9 138 153.1 137.1 153.2 C 136.6 153.3 136.1 153.3 135.6 153.4 C 135.1 153.5 134.5 153.5 134 153.6 L 133.8 153.6 C 133.7 153.6 133.6 153.6 133.6 153.6 C 133.4 153.6 133.3 153.5 133.1 153.5 C 133 153.4 132.8 153.4 132.7 153.3 C 132.6 153.2 132.5 153.1 132.4 153 C 132 152.6 131.7 152.1 131.5 151.7 C 131.1 150.8 130.8 149.9 130.7 149.1 C 130.3 147.6 130.2 146.5 130.2 146.5 Z " id="Shape" fill="#45281C" stroke-width="1"/>
              <circle id="Oval" fill="#8C7539" cx="8.9" cy="6.7" r="1" stroke-width="1" transform="matrix(1,0,0,1,125,145)"/>
              <path d="M 130.1 164.2 C 130.1 164.2 130.5 164.4 131.1 164.7 C 131.7 165 132.7 165.3 133.8 165.6 C 134.9 165.9 136.4 166 137.7 165.6 C 138.4 165.4 139 165 139.6 164.5 C 140.2 164 140.6 163.4 141 162.7 C 141.8 161.4 142.5 159.9 142.8 158.5 C 143 157.8 143.1 157.1 143.2 156.4 C 143.3 155.7 143.3 155.1 143.3 154.5 C 143.3 154.2 143.3 153.9 143.2 153.6 C 143.2 153.3 143.1 153.1 143.1 152.8 C 143 152.3 142.9 151.9 142.8 151.6 C 142.6 150.9 142.5 150.5 142.5 150.5 C 142.5 150.5 142.5 150.6 142.6 150.8 C 142.7 151 142.8 151.2 142.9 151.6 C 143 151.9 143.2 152.3 143.3 152.8 C 143.4 153.3 143.5 153.8 143.6 154.4 C 143.7 155 143.7 155.7 143.6 156.4 C 143.6 157.1 143.5 157.8 143.3 158.6 C 142.9 160.1 142.3 161.6 141.5 163 C 141.1 163.7 140.6 164.4 139.9 164.9 C 139.3 165.4 138.5 165.9 137.8 166.1 C 137 166.3 136.3 166.3 135.6 166.3 C 134.9 166.2 134.2 166.1 133.7 165.9 C 132.5 165.6 131.6 165.1 131 164.7 C 130.7 164.5 130.5 164.4 130.3 164.3 C 130.2 164.2 130.1 164.2 130.1 164.2 Z " id="Shape" fill="#45281C" stroke-width="1"/>
            </g>
          </g>
          <g id="Shape">
            <g>
              <g>
                <path d="M 145.6 79.8 C 145.6 79.8 145.3 88.2 140.2 90 C 135 91.8 136 93.1 136 93.1 C 136 93.1 147.5 110.3 160.2 105.7 C 168.9 102.6 170.1 94.9 170.1 94.9 C 170.1 94.9 167 92.5 165.3 90.3 C 163.6 88.1 162.1 79.9 162.1 79.9 C 162.1 79.9 155.6 68.2 145.6 79.8 Z " fill="#FFD0AE" stroke-width="1"/>
                <path d="M 144.5 85.6 C 146.5 88 158.8 106 158.8 106 C 158.8 106 163.9 89.2 164.6 88.5 C 164.6 88.5 167.4 87.5 173.2 89.6 C 177.1 91 178.3 94.9 178.3 94.9 C 178.3 94.9 177 111.9 177.2 115.6 C 177.4 119.3 176.1 136.9 176.1 140.8 C 176.1 142.3 176.5 145.5 173.8 149.3 C 171.1 153.1 164.3 151.7 155.5 151.7 C 146.7 151.7 130.1 145.9 127.9 141.2 C 125.9 136.8 129.8 134.6 130.8 128.1 C 131.8 121.6 125.5 93.1 125.5 93.1 C 125.5 93.1 126.1 90.9 136.6 88 C 142.3 86.6 144.5 85.6 144.5 85.6 Z " fill="#CCAD87" stroke-width="1"/>
              </g>
              <path d="M 156.5 105.6 C 156.5 105.6 156.8 105.3 157.2 104.9 C 157.6 104.5 158.2 104 158.9 103.5 C 159.5 103 160.2 102.6 160.7 102.4 C 161.2 102.1 161.6 102 161.6 102 C 161.6 102 161.3 102.3 160.9 102.7 C 160.5 103.1 159.8 103.6 159.2 104.1 C 158.6 104.6 157.9 105 157.3 105.2 C 156.9 105.5 156.5 105.6 156.5 105.6 Z " fill="#8C5634" stroke-width="1"/>
              <path d="M 155.6 102.9 C 155.6 102.9 156 103 156.7 103.1 C 157.3 103.2 158.2 103.5 159 103.8 C 159.8 104.1 160.6 104.4 161.2 104.7 C 161.8 105 162.2 105.2 162.2 105.2 C 162.2 105.2 161.8 105.2 161.1 105 C 160.5 104.9 159.6 104.6 158.8 104.3 C 158 104 157.2 103.7 156.6 103.4 C 155.9 103.2 155.6 102.9 155.6 102.9 Z " fill="#8C5634" stroke-width="1"/>
              <path d="M 152.9 101.4 C 152.9 101.4 153.5 101 154.5 100.4 C 155.5 99.8 156.9 99.1 158.2 98.4 C 159.6 97.7 161 97.1 162.1 96.6 C 163.2 96.2 163.9 95.9 163.9 95.9 C 163.9 95.9 163.3 96.3 162.3 96.9 C 161.3 97.5 159.9 98.2 158.6 98.9 C 157.2 99.6 155.8 100.2 154.7 100.7 C 153.6 101.2 152.9 101.4 152.9 101.4 Z " fill="#8C5634" stroke-width="1"/>
              <path d="M 151 96.6 C 151 96.6 151.8 96.8 153 97.1 C 154.2 97.4 155.7 97.9 157.2 98.4 C 158.7 98.9 160.2 99.5 161.4 100 C 162.5 100.5 163.2 100.8 163.2 100.8 C 163.2 100.8 162.4 100.6 161.2 100.3 C 160 100 158.5 99.5 157 99 C 155.5 98.5 154 97.9 152.8 97.4 C 151.7 97 151 96.6 151 96.6 Z " fill="#8C5634" stroke-width="1"/>
            </g>
            <path d="M 169.5 151.5 C 169.5 151.5 169.7 151.5 170 151.5 C 170.3 151.5 170.8 151.4 171.4 151.1 C 172 150.9 172.6 150.4 173.2 149.8 C 173.8 149.2 174.3 148.3 174.7 147.3 C 175.5 145.3 175.9 142.8 176 140.1 C 176.1 138.8 176 137.4 176 136 C 176 134.6 176 133.1 176 131.7 C 176 128.8 176.2 125.9 176.3 123.2 C 176.4 120.5 176.6 118 176.7 115.8 C 176.8 113.6 176.9 111.8 177 110.6 C 177 109.3 177 108.6 177 108.6 C 177 108.6 177 108.8 177 109.1 C 177 109.4 177.1 109.9 177.1 110.6 C 177.1 111.9 177.2 113.7 177.1 115.8 C 177.1 118 177 120.5 176.9 123.2 C 176.8 125.9 176.7 128.8 176.6 131.7 C 176.6 133.1 176.5 134.6 176.6 136 C 176.6 137.4 176.6 138.8 176.5 140.2 C 176.3 142.9 175.9 145.5 174.9 147.5 C 174.4 148.5 173.9 149.4 173.2 150 C 172.6 150.6 171.9 151 171.3 151.3 C 170.7 151.5 170.2 151.6 169.9 151.6 C 169.6 151.6 169.5 151.5 169.5 151.5 Z " fill="#8C6C54" stroke-width="1"/>
            <path d="M 130.2 143.8 C 130.2 143.8 130.1 143.7 129.9 143.6 C 129.7 143.5 129.4 143.2 129 142.9 C 128.6 142.6 128.2 142.2 127.8 141.6 C 127.4 141 127 140.3 126.9 139.5 C 126.7 138.7 126.8 137.7 127.2 136.8 C 127.6 135.9 128.1 135 128.5 134.1 C 129.4 132.3 130.1 130.2 130.3 128.1 C 130.5 127 130.5 126 130.5 124.9 C 130.5 123.8 130.4 122.8 130.3 121.8 C 130.1 119.8 129.9 117.9 129.6 116.2 C 129.4 114.6 129.2 113.2 129 112.3 C 128.8 111.4 128.7 110.8 128.7 110.8 C 128.7 110.8 128.9 111.3 129.1 112.3 C 129.3 113.2 129.6 114.6 129.9 116.2 C 130.2 117.8 130.5 119.7 130.8 121.7 C 130.9 122.7 131 123.8 131.1 124.9 C 131.1 126 131.1 127.1 131 128.2 C 130.7 130.4 130 132.6 129 134.4 C 128.5 135.3 128 136.2 127.6 137 C 127.2 137.8 127.1 138.7 127.2 139.4 C 127.5 141 128.4 142.1 129 142.8 C 129.3 143.1 129.6 143.4 129.8 143.6 C 130.1 143.7 130.2 143.8 130.2 143.8 Z " fill="#8C6C54" stroke-width="1"/>
          </g>
        </g>
        <g id="Group">
          <g id="Shape">
            <g>
              <path d="M 123.7 159.4 C 123.7 159.4 126.3 161.5 126.5 166.7 C 126.6 170.2 127.8 173 126.8 173.2 C 124.8 173.6 124.8 168.1 124.8 168.1 C 124.8 168.1 123.6 173.1 124.4 175 C 125 176.4 124.7 178.9 124.1 179.2 C 123.4 179.4 122.5 176 121.9 173.8 C 121.9 173.8 122.2 176.5 122.2 178.1 C 122.1 179.8 121.6 180.3 120.6 178.6 C 120.6 178.6 119.4 181.2 118.2 175.9 C 118.2 175.9 117.1 176.4 116.7 173.5 C 116.3 170.6 115.6 155.8 123.7 159.4 Z " fill="#FFD0AE" stroke-width="1"/>
              <path d="M 123.5 178.6 C 123.5 178.6 123.4 178.5 123.2 178.3 C 123.1 178.1 122.8 177.8 122.7 177.4 C 122.5 177 122.3 176.5 122.2 176 C 122 175.5 121.9 174.9 121.8 174.3 C 121.6 173.1 121.7 171.9 121.8 171 C 121.8 170.6 121.9 170.2 122 169.9 C 122.1 169.6 122.1 169.5 122.1 169.5 C 122.1 169.5 122.1 169.6 122.1 169.9 C 122.1 170.2 122.1 170.5 122.2 171 C 122.2 171.4 122.3 171.9 122.3 172.5 C 122.4 173 122.4 173.6 122.5 174.2 C 122.6 175.3 122.9 176.5 123.1 177.3 C 123.2 178.1 123.5 178.6 123.5 178.6 Z " fill="#BF8865" stroke-width="1"/>
              <path d="M 120.5 178.5 C 120.5 178.5 120.2 178.1 119.8 177.3 C 119.6 176.9 119.5 176.4 119.4 175.9 C 119.3 175.4 119.2 174.8 119.1 174.3 C 119 173.2 119 172.1 119.2 171.3 C 119.3 170.5 119.5 169.9 119.5 169.9 C 119.5 169.9 119.5 170 119.5 170.3 C 119.5 170.5 119.5 170.9 119.6 171.3 C 119.6 171.7 119.6 172.2 119.7 172.7 C 119.7 173.2 119.8 173.7 119.8 174.3 C 119.9 175.4 120.1 176.4 120.2 177.2 C 120.4 178 120.5 178.5 120.5 178.5 Z " fill="#BF8865" stroke-width="1"/>
              <path d="M 118.1 175.8 C 118.1 175.8 117.9 175.4 117.8 174.8 C 117.6 174.2 117.5 173.4 117.4 172.5 C 117.3 171.7 117.4 170.8 117.5 170.2 C 117.6 169.6 117.8 169.2 117.8 169.2 C 117.8 169.2 117.8 169.3 117.8 169.5 C 117.8 169.7 117.8 169.9 117.9 170.2 C 118 170.8 118 171.6 118.1 172.4 C 118.2 173.2 118.2 174 118.2 174.6 C 118.1 175.4 118.1 175.8 118.1 175.8 Z " fill="#BF8865" stroke-width="1"/>
            </g>
            <path d="M 124.4 160.4 C 124.4 160.4 124.5 160.4 124.7 160.5 C 124.9 160.6 125.1 160.8 125.3 161.1 C 125.7 161.6 126 162.5 126.3 163.3 C 126.5 164.1 126.6 165 126.6 165.7 C 126.6 166.4 126.6 166.8 126.6 166.8 C 126.6 166.8 126.4 166.4 126.3 165.8 C 126.1 165.2 125.9 164.4 125.7 163.5 C 125.5 162.7 125.3 161.9 125.1 161.3 C 125 161 124.9 160.8 124.8 160.6 C 124.5 160.5 124.4 160.4 124.4 160.4 Z " fill="#BF8865" stroke-width="1"/>
          </g>
          <g id="Shape">
            <path d="M 116.1 161.9 C 116.1 161.9 120.9 167.2 127.3 162.6 L 127.6 159.5 C 127.6 159.5 130.3 158.5 130.7 155.5 C 131.1 152.5 129.9 150.3 130.5 148.5 C 131.1 146.7 131.3 136.1 131.5 132.7 C 132 122.5 119.3 125.2 117.2 128.7 C 115.1 132.1 116 137.1 115.4 139.6 C 114.8 142.1 114.7 146.1 114.9 148 C 115.2 149.9 114.1 153.8 114.7 155.7 C 115.3 157.6 116.2 158.9 116.2 158.9 L 116.1 161.9 Z " fill="#CCAD87" stroke-width="1"/>
            <path d="M 121.6 159.7 C 121.6 159.7 122.1 159.8 122.9 159.8 C 123.7 159.8 125 159.9 126.4 159.6 C 127.1 159.5 127.8 159.2 128.5 158.8 C 129.2 158.4 129.8 157.8 130.1 157 C 130.5 156.2 130.4 155.3 130.5 154.4 C 130.5 153.5 130.5 152.5 130.5 151.5 C 130.5 150.6 130.3 149.6 130.4 148.6 C 130.5 147.6 130.6 146.7 130.7 145.8 C 130.9 144 131.1 142.3 131.2 140.9 C 131.3 139.5 131.3 138.3 131.4 137.4 C 131.4 136.6 131.4 136.1 131.4 136.1 C 131.4 136.1 131.5 136.6 131.5 137.4 C 131.5 138.2 131.6 139.5 131.6 140.9 C 131.6 142.4 131.5 144.1 131.2 145.9 C 131.1 146.8 130.9 147.7 130.9 148.7 C 130.8 149.6 131 150.6 131 151.6 C 131 152.6 131 153.5 131 154.5 C 131 155.4 131 156.5 130.5 157.3 C 130.1 158.2 129.4 158.9 128.6 159.3 C 127.8 159.7 127 159.9 126.3 160 C 124.8 160.2 123.6 160.1 122.8 160 C 122.1 159.8 121.6 159.7 121.6 159.7 Z " fill="#8C6C54" stroke-width="1"/>
            <path d="M 118.6 159.5 C 118.6 159.5 118.5 159.5 118.3 159.5 C 118.1 159.5 117.8 159.5 117.4 159.4 C 117 159.3 116.6 159.1 116.1 158.7 C 115.7 158.3 115.3 157.8 115 157.2 C 114.8 156.6 114.6 155.8 114.5 155 C 114.4 154.2 114.4 153.4 114.4 152.6 C 114.4 151.8 114.5 150.9 114.6 150 C 114.7 149.1 114.7 148.3 114.6 147.4 C 114.5 145.6 114.6 143.8 114.8 142.1 C 114.9 141.3 115 140.5 115.2 139.7 C 115.4 139 115.5 138.3 115.6 137.6 C 115.7 136.3 115.8 135.2 115.8 134.4 C 115.8 133.6 115.8 133.2 115.8 133.2 C 115.8 133.2 115.9 133.6 115.9 134.4 C 115.9 135.2 116 136.3 115.9 137.6 C 115.9 138.3 115.8 139 115.6 139.8 C 115.5 140.5 115.4 141.3 115.3 142.2 C 115.2 143.8 115.1 145.6 115.2 147.4 C 115.2 148.3 115.3 149.2 115.1 150.1 C 115 151 114.9 151.8 114.8 152.6 C 114.8 153.4 114.8 154.2 114.8 155 C 114.8 155.8 114.9 156.5 115.1 157.1 C 115.3 157.7 115.6 158.2 116 158.6 C 116.4 159 116.8 159.2 117.1 159.3 C 118.1 159.5 118.6 159.5 118.6 159.5 Z " fill="#8C6C54" stroke-width="1"/>
            <path d="M 116 161.9 C 116 161.9 116.2 162 116.4 162.2 C 116.7 162.4 117.1 162.7 117.6 163 C 118.1 163.3 118.7 163.6 119.4 163.8 C 120.1 164 120.8 164.1 121.6 164.2 C 122 164.2 122.4 164.2 122.7 164.2 C 123.1 164.1 123.4 164.1 123.8 164 C 124.1 163.9 124.5 163.8 124.8 163.7 C 125.1 163.6 125.4 163.5 125.7 163.4 C 126.3 163.2 126.7 162.9 127 162.8 C 127.3 162.6 127.5 162.6 127.5 162.6 C 127.5 162.6 127.3 162.7 127.1 162.9 C 126.8 163.1 126.4 163.5 125.9 163.7 C 125.6 163.8 125.4 164 125 164.2 C 124.7 164.3 124.3 164.5 124 164.6 C 123.6 164.7 123.2 164.8 122.8 164.8 C 122.4 164.8 122 164.9 121.6 164.9 C 121.2 164.9 120.8 164.9 120.4 164.8 C 120 164.7 119.6 164.6 119.3 164.5 C 118.9 164.4 118.6 164.2 118.3 164 C 118 163.8 117.7 163.7 117.5 163.5 C 117 163.1 116.7 162.8 116.4 162.5 C 116.2 162 116 161.9 116 161.9 Z " fill="#8C6C54" stroke-width="1"/>
          </g>
          <g id="Shape">
            <path d="M 128.8 135.7 C 128.8 135.7 128.6 135.9 128.2 136.1 C 127.8 136.3 127.3 136.6 126.7 136.7 C 126.4 136.8 126.1 136.8 125.9 136.9 C 125.6 136.9 125.4 136.9 125.1 136.9 C 124.7 136.9 124.4 136.8 124.4 136.8 C 124.4 136.8 124.7 136.8 125.1 136.7 C 125.5 136.6 126.1 136.5 126.6 136.4 C 126.9 136.3 127.1 136.3 127.4 136.2 C 127.7 136.1 127.9 136.1 128.1 136 C 128.5 135.8 128.8 135.7 128.8 135.7 Z " fill="#8C6C54" stroke-width="1"/>
            <path d="M 118.2 133.1 C 115.4 131.5 115.1 125.4 116.3 122.7 C 117.5 120 118.1 107.8 119.2 103.8 C 120.3 99.8 123.5 90.1 133 90.9 C 143.8 91.8 140.1 115.7 136.8 122.5 C 133.5 129.3 132.8 132.1 131.2 133.6 C 129.5 135.1 122 135.2 118.2 133.1 Z " fill="#CCAD87" stroke-width="1"/>
            <path d="M 127.7 134.9 C 127.7 134.9 128.2 134.8 128.9 134.5 C 129.3 134.4 129.8 134.2 130.2 133.9 C 130.7 133.6 131.1 133.1 131.5 132.6 C 132.3 131.5 133 130 133.6 128.4 C 133.9 127.6 134.2 126.7 134.6 125.9 C 135 125 135.4 124.2 135.7 123.3 C 136.1 122.4 136.5 121.6 136.8 120.7 C 137.2 119.8 137.5 119 137.7 118.2 C 138 117.4 138.2 116.6 138.4 115.8 C 138.6 115 138.8 114.3 138.9 113.6 C 139.1 112.2 139.3 111 139.4 110.2 C 139.5 109.4 139.6 108.9 139.6 108.9 C 139.6 108.9 139.6 109.4 139.6 110.2 C 139.6 111 139.5 112.2 139.4 113.6 C 139.3 114.3 139.2 115.1 139 115.9 C 138.9 116.7 138.6 117.5 138.4 118.4 C 138.1 119.3 137.8 120.1 137.5 121 C 137.2 121.9 136.8 122.7 136.4 123.6 C 136 124.5 135.6 125.3 135.2 126.2 C 134.8 127 134.5 127.9 134.1 128.7 C 133.4 130.3 132.6 131.9 131.7 133 C 131.2 133.6 130.7 134 130.2 134.3 C 129.7 134.6 129.2 134.7 128.8 134.8 C 128.4 134.9 128.1 134.9 127.9 135 C 127.8 134.9 127.7 134.9 127.7 134.9 Z " fill="#8C6C54" stroke-width="1"/>
            <path d="M 117.8 133 C 117.8 133 117.6 132.6 117.2 131.9 C 117 131.6 116.7 131.1 116.4 130.6 C 116.1 130.1 115.8 129.6 115.5 128.9 C 115.2 128.2 115.1 127.4 115.1 126.6 C 115.1 125.8 115.3 124.9 115.6 124 C 116 122.3 116.4 120.5 116.7 118.6 C 117 116.8 117.3 114.9 117.5 113.2 C 117.6 112.3 117.6 111.5 117.8 110.7 C 117.9 109.9 118.1 109.1 118.2 108.5 C 118.5 107.1 118.8 106 119 105.2 C 119.2 104.4 119.3 104 119.3 104 C 119.3 104 119 105.9 118.6 108.6 C 118.5 109.3 118.4 110 118.3 110.8 C 118.2 111.6 118.2 112.4 118.1 113.3 C 117.9 115.1 117.7 116.9 117.4 118.8 C 117.1 120.7 116.7 122.5 116.2 124.2 C 116 125.1 115.7 125.8 115.7 126.6 C 115.6 127.4 115.8 128.1 116 128.7 C 116.5 130 117.1 131 117.4 131.8 C 117.7 132.5 117.8 133 117.8 133 Z " fill="#8C6C54" stroke-width="1"/>
          </g>
        </g>
        <g id="Group">
          <g id="Shape">
            <path d="M 171.3 100.6 C 172.8 100.4 174.4 101.4 174 104 C 173.6 106.6 176 106.7 176.8 106.5 C 176.8 106.5 173.7 108.4 171.7 105.7 C 171.7 105.7 172.4 107.1 173.3 107.5 C 173.3 107.5 169.6 106.4 169.5 103.1 C 169.4 102.1 169.9 100.8 171.3 100.6 Z " fill="#BF7547" stroke-width="1"/>
            <path d="M 176.8 106.5 C 176.8 106.5 176.7 106.6 176.5 106.6 C 176.3 106.7 175.9 106.7 175.5 106.6 C 175.1 106.5 174.6 106.2 174.3 105.8 C 174.1 105.6 174 105.4 173.9 105.1 C 173.8 104.9 173.7 104.5 173.7 104.2 C 173.7 103.6 173.8 103.1 173.8 102.6 C 173.8 102.4 173.8 102.2 173.7 102 C 173.6 101.8 173.5 101.6 173.4 101.5 C 173.2 101.2 172.9 101 172.7 100.9 C 172.5 100.8 172.4 100.7 172.4 100.7 C 172.4 100.7 172.5 100.7 172.8 100.8 C 173 100.9 173.3 101 173.7 101.3 C 173.9 101.5 174 101.6 174.1 101.9 C 174.2 102.1 174.3 102.4 174.3 102.7 C 174.4 103.2 174.3 103.8 174.3 104.3 C 174.3 104.6 174.3 104.7 174.4 105 C 174.5 105.2 174.6 105.4 174.7 105.6 C 175 106 175.3 106.3 175.6 106.4 C 175.9 106.6 176.3 106.6 176.5 106.6 C 176.6 106.6 176.8 106.5 176.8 106.5 Z " fill="#8C5634" stroke-width="1"/>
          </g>
          <g id="Shape">
            <path d="M 171.5 71.7 C 171.5 71.7 176.2 78 171.3 82.9 C 171.3 82.9 174.8 85.1 171.8 90.5 C 171.8 90.5 174.9 92.8 171.9 96.7 C 171.9 96.7 173.9 98.6 171.8 101.3 C 171.8 101.3 167.7 101.2 168.8 96.4 C 168.8 96.4 166.7 93.5 168.1 90.4 C 168.1 90.4 163.5 87.7 166.4 82.2 C 166.4 82.2 161.6 77.1 164.8 72.9 C 168 68.7 170 70 171.5 71.7 Z " fill="#BF7547" stroke-width="1"/>
            <path d="M 169.3 74.8 C 169.3 74.8 169.1 75.1 168.8 75.6 C 168.7 75.8 168.5 76.1 168.4 76.5 C 168.3 76.8 168.1 77.2 168 77.5 C 167.7 78.2 167.6 78.9 167.5 79.5 C 167.4 79.8 167.4 80 167.4 80.2 C 167.4 80.4 167.3 80.5 167.3 80.5 C 167.3 80.5 167.3 80.4 167.2 80.2 C 167.2 80 167.1 79.8 167.1 79.5 C 167.1 79.2 167.1 78.9 167.1 78.5 C 167.1 78.1 167.2 77.7 167.4 77.4 C 167.7 76.6 168.1 76 168.6 75.5 C 168.9 75 169.3 74.8 169.3 74.8 Z " fill="#8C5634" stroke-width="1"/>
            <path d="M 167.5 77.7 C 167.5 77.7 167.3 77.5 167.1 77.3 C 166.9 77.1 166.6 76.7 166.3 76.4 C 166 76.1 165.7 75.8 165.5 75.5 C 165.4 75.4 165.3 75.3 165.2 75.2 C 165.1 75.1 165.1 75.1 165.1 75.1 C 165.1 75.1 165.3 75.1 165.7 75.3 C 166 75.4 166.4 75.7 166.7 76.1 C 167 76.5 167.2 76.9 167.4 77.2 C 167.4 77.5 167.5 77.7 167.5 77.7 Z " fill="#8C5634" stroke-width="1"/>
            <path d="M 169.2 84 C 169.2 84 169 84.3 168.9 84.7 C 168.7 85.1 168.5 85.6 168.3 86.2 C 168.1 86.7 168 87.3 168 87.7 C 167.9 88.1 167.9 88.5 167.9 88.5 C 167.9 88.5 167.9 88.4 167.8 88.3 C 167.7 88.2 167.7 88 167.6 87.8 C 167.5 87.6 167.5 87.3 167.5 87 C 167.5 86.7 167.6 86.4 167.7 86.1 C 167.9 85.5 168.3 84.9 168.6 84.6 C 168.9 84.1 169.2 84 169.2 84 Z " fill="#8C5634" stroke-width="1"/>
            <path d="M 167.1 85 C 167.1 85 167.2 85.1 167.3 85.2 C 167.4 85.3 167.5 85.5 167.6 85.6 C 167.7 85.8 167.7 86 167.7 86.1 C 167.7 86.2 167.7 86.4 167.7 86.4 C 167.7 86.4 167.6 86.3 167.5 86.2 C 167.4 86.1 167.3 85.9 167.2 85.8 C 167.1 85.6 167.1 85.4 167.1 85.3 C 167.1 85.1 167.1 85 167.1 85 Z " fill="#8C5634" stroke-width="1"/>
            <path d="M 170.9 91.1 C 170.9 91.1 170.8 91.4 170.6 91.8 C 170.4 92.2 170.2 92.7 169.9 93.1 C 169.7 93.6 169.5 94.1 169.3 94.5 C 169.2 94.7 169.2 94.9 169.1 95 C 169.1 95.1 169 95.2 169 95.2 C 169 95.2 168.9 94.9 168.9 94.5 C 168.9 94.1 169 93.5 169.2 92.9 C 169.5 92.4 169.8 91.9 170.1 91.6 C 170.7 91.2 170.9 91.1 170.9 91.1 Z " fill="#8C5634" stroke-width="1"/>
            <path d="M 170.6 96.9 C 170.6 96.9 170.6 97.1 170.6 97.5 C 170.6 97.8 170.6 98.3 170.6 98.7 C 170.6 99.1 170.6 99.5 170.6 99.9 C 170.6 100.2 170.6 100.5 170.6 100.5 C 170.6 100.5 170.4 100.4 170.2 100 C 170.1 99.8 170 99.7 170 99.4 C 169.9 99.2 169.9 98.9 169.9 98.7 C 169.9 98.2 170 97.7 170.2 97.4 C 170.4 97 170.6 96.9 170.6 96.9 Z " fill="#8C5634" stroke-width="1"/>
            <g>
              <path d="M 168.9 92.4 C 168.9 92.4 169 92.4 169.1 92.5 C 169.2 92.6 169.3 92.7 169.4 92.8 C 169.5 92.9 169.5 93.1 169.5 93.2 C 169.5 93.3 169.4 93.4 169.4 93.4 C 169.4 93.4 169.3 93.3 169.3 93.2 C 169.2 93.1 169.1 93 169.1 92.9 C 169.1 92.8 169 92.8 169 92.7 C 169 92.6 169 92.6 168.9 92.5 C 168.9 92.5 168.9 92.4 168.9 92.4 Z " stroke-width="1" fill="#8C5634"/>
              <path d="M 169.4 97.7 C 169.4 97.7 169.5 97.7 169.6 97.8 C 169.7 97.8 169.8 97.9 170 98 C 170.1 98.1 170.2 98.2 170.2 98.4 C 170.2 98.5 170.3 98.6 170.3 98.6 C 170.3 98.6 170.2 98.6 170.1 98.5 C 170 98.5 169.9 98.4 169.7 98.3 C 169.6 98.2 169.5 98.1 169.5 97.9 C 169.4 97.8 169.4 97.7 169.4 97.7 Z " stroke-width="1" fill="#8C5634"/>
            </g>
            <path d="M 171.9 72.3 C 171.9 72.3 172.4 72.8 172.9 73.8 C 173.4 74.8 173.9 76.2 173.8 77.7 C 173.8 78.1 173.7 78.4 173.7 78.8 C 173.6 79.2 173.5 79.5 173.4 79.8 C 173.3 80.1 173.1 80.4 173 80.7 C 172.9 81 172.7 81.2 172.5 81.4 C 172.3 81.6 172.2 81.8 172 82 C 171.8 82.2 171.7 82.3 171.6 82.4 C 171.4 82.6 171.2 82.7 171.2 82.7 C 171.2 82.7 171.3 82.5 171.5 82.3 C 171.6 82.2 171.7 82 171.8 81.8 C 171.9 81.6 172 81.4 172.1 81.2 C 172.2 81 172.4 80.7 172.5 80.4 C 172.6 80.1 172.7 79.8 172.8 79.5 C 172.9 79.2 173 78.9 173 78.5 C 173 78.2 173.1 77.8 173.1 77.5 C 173.1 77.2 173.1 76.8 173.1 76.5 C 173.1 76.2 173 75.8 173 75.5 C 172.9 75.2 172.9 74.9 172.8 74.6 C 172.7 74.3 172.6 74 172.5 73.8 C 172.3 73.3 172.2 72.9 172 72.6 C 172 72.5 171.9 72.3 171.9 72.3 Z " fill="#8C5634" stroke-width="1"/>
            <path d="M 166.5 82.2 C 166.5 82.2 166.4 82.3 166.3 82.6 C 166.2 82.8 166.1 83.2 166 83.6 C 165.9 83.8 165.9 84 165.8 84.3 C 165.7 84.5 165.7 84.8 165.7 85.1 C 165.7 85.4 165.7 85.6 165.7 85.9 C 165.7 86.2 165.7 86.4 165.8 86.7 C 165.8 87 166 87.2 166 87.5 C 166.1 87.8 166.2 88 166.3 88.2 C 166.4 88.4 166.6 88.6 166.7 88.8 C 166.8 89 167 89.2 167.1 89.3 C 167.4 89.7 167.6 89.9 167.8 90.1 C 168 90.3 168.1 90.4 168.1 90.4 C 168.1 90.4 168 90.3 167.7 90.2 C 167.5 90.1 167.1 89.9 166.8 89.6 C 166.6 89.4 166.4 89.3 166.3 89.1 C 166.1 88.9 166 88.7 165.8 88.4 C 165.7 88.1 165.5 87.9 165.4 87.6 C 165.3 87.3 165.2 87 165.1 86.7 C 165 86.4 165 86.1 165 85.8 C 165 85.5 165 85.2 165.1 84.9 C 165.2 84.6 165.2 84.3 165.3 84.1 C 165.4 83.8 165.5 83.6 165.6 83.4 C 166.1 82.6 166.5 82.2 166.5 82.2 Z " fill="#8C5634" stroke-width="1"/>
            <path d="M 171.9 90.4 C 171.9 90.4 172.3 90.6 172.8 91.1 C 173 91.4 173.2 91.7 173.4 92.1 C 173.6 92.5 173.6 93 173.6 93.4 C 173.6 93.6 173.6 93.9 173.5 94.1 C 173.4 94.3 173.4 94.5 173.3 94.7 C 173.1 95.1 172.9 95.4 172.8 95.7 C 172.6 96 172.4 96.2 172.3 96.3 C 172.2 96.4 172.1 96.5 172.1 96.5 C 172.1 96.5 172.1 96.4 172.2 96.2 C 172.3 96 172.4 95.8 172.5 95.5 C 172.6 95.2 172.7 94.9 172.8 94.5 C 172.9 94.3 172.9 94.1 172.9 93.9 C 173 93.7 172.9 93.5 173 93.3 C 173 93.1 173 92.9 173 92.7 C 173 92.5 173 92.3 172.9 92.1 C 172.8 91.7 172.7 91.4 172.5 91.1 C 172.2 90.8 171.9 90.4 171.9 90.4 Z " fill="#8C5634" stroke-width="1"/>
            <path d="M 168.9 96.4 C 168.9 96.4 168.9 96.8 168.9 97.4 C 168.9 97.7 168.9 98 169 98.4 C 169 98.6 169.1 98.7 169.1 98.9 C 169.2 99.1 169.2 99.3 169.3 99.4 C 169.4 99.6 169.5 99.7 169.6 99.9 C 169.7 100.1 169.8 100.2 170 100.3 C 170.1 100.4 170.3 100.5 170.4 100.6 C 170.5 100.7 170.7 100.8 170.8 100.8 C 171.1 101 171.3 101 171.5 101.1 C 171.7 101.2 171.8 101.2 171.8 101.2 C 171.8 101.2 171.7 101.2 171.5 101.2 C 171.3 101.2 171 101.2 170.7 101.1 C 170.5 101.1 170.4 101 170.2 100.9 C 170 100.8 169.8 100.8 169.7 100.6 C 169.5 100.5 169.3 100.4 169.2 100.2 C 169 100 168.9 99.9 168.8 99.6 C 168.6 99.2 168.5 98.8 168.4 98.3 C 168.4 97.9 168.4 97.5 168.5 97.2 C 168.7 96.8 168.9 96.4 168.9 96.4 Z " fill="#8C5634" stroke-width="1"/>
          </g>
        </g>
        <g id="Group">
          <path d="M 138.7 69.7 C 137.1 62.1 137.7 46 151.8 44.3 C 160.8 43.2 171.9 48.3 169.3 65.8 C 169.3 65.8 171 72.4 169.4 77.3 C 167.9 82.2 165.6 86.8 159.8 87.3 C 151.4 88 141 80.5 138.7 69.7 Z " id="Shape" fill="#FFD0AE" stroke-width="1"/>
          <path d="M 170.3 73.1 C 170.3 73.1 170.3 73.6 170.2 74.5 C 170.1 75.4 170 76.7 169.6 78.2 C 169.2 79.7 168.6 81.4 167.5 83.1 C 166.4 84.7 164.8 86.3 162.8 87 C 161.8 87.4 160.7 87.5 159.7 87.5 C 158.7 87.5 157.7 87.4 156.7 87.2 C 154.8 86.9 153 86.4 151.5 85.8 C 150.1 85.2 149 84.4 148.3 83.9 C 147.9 83.6 147.7 83.4 147.5 83.2 C 147.3 83 147.2 82.9 147.2 82.9 C 147.2 82.9 147.6 83.2 148.4 83.7 C 149.2 84.2 150.3 84.8 151.7 85.4 C 153.1 85.9 154.9 86.4 156.8 86.6 C 157.8 86.7 158.7 86.8 159.8 86.9 C 160.8 87 161.8 86.8 162.7 86.5 C 164.6 85.8 166.1 84.4 167.2 82.8 C 168.3 81.2 169 79.5 169.4 78.1 C 169.8 76.6 170.1 75.3 170.2 74.5 C 170.2 73.6 170.3 73.1 170.3 73.1 Z " id="Shape" fill="#BF8865" stroke-width="1"/>
        </g>
        <g id="Group">
          <ellipse id="Oval" cx="3.6" cy="3.3" rx="1.1" ry="2.1" stroke-width="1" fill="#4A311F" transform="matrix(1,0,0,1,150,63)"/>
          <path d="M 150.4 65.3 C 150.4 65.3 150.6 65 151.1 64.6 C 151.3 64.4 151.6 64.2 152 64 C 152.3 63.8 152.8 63.7 153.2 63.7 C 153.4 63.7 153.6 63.7 153.8 63.7 C 154 63.7 154.2 63.8 154.4 63.9 C 154.6 64 154.8 64.1 154.9 64.2 C 155.1 64.3 155.2 64.4 155.3 64.5 C 155.5 64.7 155.6 64.9 155.7 65.1 C 155.8 65.3 155.8 65.3 155.8 65.3 C 155.8 65.3 155.7 65.2 155.6 65.1 C 155.5 65 155.5 65 155.4 64.9 C 155.3 64.8 155.2 64.8 155.1 64.7 C 155 64.6 154.9 64.6 154.7 64.5 C 154.6 64.4 154.4 64.4 154.3 64.3 C 154.1 64.2 154 64.2 153.8 64.2 C 153.6 64.2 153.5 64.2 153.3 64.2 C 152.6 64.3 151.9 64.5 151.4 64.8 C 150.7 65.1 150.4 65.3 150.4 65.3 Z " id="Shape" stroke-width="1" fill="#4A311F"/>
        </g>
        <g id="Group">
          <g id="Shape">
            <path d="M 173.7 77.3 C 171.1 76.1 172 74.2 172.6 70.2 C 173.1 66.8 171 64.9 170.3 64.4 C 171.3 65.1 172.9 64.2 172.9 64.2 C 170 64.2 170.2 58 169.7 54.6 C 169.3 51.2 165.2 45.4 160.1 44.1 C 155 42.8 152.7 44 152.7 44 C 147.7 42.7 140.4 45.2 138.6 50.7 C 136.8 56.2 132.9 58.5 132.9 58.5 C 132.9 58.5 134.4 59 135.6 58.5 C 135.6 58.5 133.4 60.3 132.6 63.4 C 132.1 65.4 133.1 68.6 131 69.3 C 131 69.3 132.8 70.3 134.1 69.2 C 134.1 69.2 131.4 72 132.6 74.4 C 136.5 82.2 142.8 79 142.8 79 C 140 72.3 144.1 66.7 144.1 66.7 C 144.4 67 144.7 67.9 144.9 68.7 C 144.9 70.3 144.8 72.6 144.5 74 C 143.9 76.4 139 85.5 143.6 87.2 C 143.6 87.2 143.4 86.2 143.8 84.8 C 143.8 84.8 144 92.5 151.9 93.8 C 151.9 93.8 150.7 92.8 150.7 92 C 150.7 92 152.5 94.2 155.8 94.5 C 159.2 94.8 159.3 96.5 159.3 96.5 C 159.3 96.5 161.6 95.5 161.3 93.1 C 161.3 93.1 165.1 93 165.7 89.9 C 165.7 89.9 165.7 91.5 165.1 92.2 C 165.1 92.2 167.8 90.9 167.4 87.4 C 167.4 87.4 167.8 88.8 169.2 88.8 C 169.2 88.8 167.8 87.3 168.6 85.9 C 169.4 84.5 170.2 81.4 169.9 79.6 C 169.9 79.6 170.4 81.6 170.4 82.6 C 170.4 82.6 171.4 80.5 171.6 77.5 C 172.7 77.7 173.7 77.3 173.7 77.3 Z M 167.9 74.9 C 165.9 75.9 154.1 76.8 149.5 72.8 C 149.5 72.8 149.4 73.6 149.5 74.2 C 147.9 72.2 146.9 69.3 146.3 66 C 146.2 64.8 146.1 63.5 145.9 62.1 C 145.5 58.7 147.5 53.9 151.4 51.3 C 155.3 48.8 159.2 51.4 159.2 51.4 C 159.2 51.4 160.8 49.1 165.1 50.8 C 169.4 52.5 169.2 61.9 169.3 65.7 C 169.7 67.4 170 69.3 170.1 71.5 C 170 72.7 169.4 74.1 167.9 74.9 Z " fill="#BF7547" stroke-width="1"/>
            <path d="M 173.7 77.3 C 173.7 77.3 173.5 77.3 173.1 77.1 C 172.7 76.9 172.1 76.6 171.8 75.9 C 171.6 75.5 171.6 75.1 171.6 74.7 C 171.6 74.3 171.8 73.9 171.9 73.4 C 172.1 72.6 172.3 71.7 172.4 70.8 C 172.5 69.9 172.5 69 172.4 68.2 C 172.3 67.8 172.2 67.4 172.1 67 C 172 66.6 171.8 66.3 171.6 66 C 171.3 65.4 170.9 65 170.6 64.7 C 170.3 64.4 170.1 64.3 170.1 64.3 C 170.1 64.3 170.3 64.4 170.6 64.7 C 170.8 64.8 171 65 171.2 65.2 C 171.4 65.4 171.6 65.6 171.9 65.9 C 172.1 66.2 172.3 66.5 172.5 66.9 C 172.6 67.1 172.7 67.3 172.7 67.5 C 172.8 67.7 172.8 67.9 172.9 68.1 C 173 68.5 173.1 69 173.1 69.5 C 173.1 70 173.1 70.5 173 70.9 C 172.9 71.8 172.7 72.8 172.4 73.6 C 172.3 74 172.1 74.4 172.1 74.8 C 172 75.2 172 75.5 172.1 75.8 C 172.3 76.4 172.7 76.8 173.1 77 C 173.5 77.2 173.7 77.3 173.7 77.3 Z " fill="#8C5634" stroke-width="1"/>
            <path d="M 173 64.3 C 173 64.3 172.9 64.3 172.6 64.2 C 172.4 64.1 172 64.1 171.6 63.8 C 171.2 63.5 171 63 170.8 62.4 C 170.6 61.8 170.5 61.1 170.4 60.3 C 170.2 58.8 170 57 169.5 55.1 C 169.1 53.2 168.4 51.3 167.2 49.6 C 166.1 47.9 164.6 46.5 162.8 45.7 C 161.9 45.3 161.1 45 160.2 44.7 C 159.4 44.4 158.5 44.2 157.8 44.1 C 156.3 43.8 155 43.7 154.1 43.8 C 153.2 43.9 152.7 44.1 152.7 44.1 C 152.7 44.1 153.1 43.8 154 43.6 C 154.9 43.4 156.2 43.4 157.8 43.6 C 158.6 43.7 159.4 43.9 160.3 44.1 C 161.2 44.3 162.1 44.6 163 45 C 164.8 45.8 166.5 47.3 167.6 49.1 C 168.8 50.9 169.5 52.9 169.9 54.8 C 170.3 56.7 170.4 58.6 170.6 60.1 C 170.7 60.9 170.8 61.6 170.9 62.2 C 171 62.8 171.3 63.3 171.6 63.6 C 171.9 63.9 172.3 64 172.5 64.1 C 172.8 64.3 173 64.3 173 64.3 Z " fill="#8C5634" stroke-width="1"/>
            <path d="M 159.2 51.5 C 159.2 51.5 159 51 158.7 50.4 C 158.4 49.7 157.9 48.9 157.2 48.2 C 156.9 47.8 156.6 47.5 156.2 47.1 C 155.9 46.8 155.6 46.5 155.3 46.3 C 155 46.1 154.8 45.9 154.6 45.7 C 154.4 45.6 154.3 45.5 154.3 45.5 C 154.3 45.5 154.4 45.5 154.6 45.6 C 154.8 45.7 155.1 45.8 155.4 46 C 155.7 46.2 156.1 46.4 156.5 46.7 C 156.9 47 157.2 47.4 157.6 47.8 C 157.9 48.2 158.2 48.6 158.4 49.1 C 158.6 49.5 158.8 50 158.9 50.3 C 159.3 51 159.2 51.5 159.2 51.5 Z " fill="#8C5634" stroke-width="1"/>
            <path d="M 132.8 63.5 C 132.8 63.5 132.8 62.9 133 62.1 C 133.1 61.7 133.3 61.3 133.6 60.8 C 133.9 60.3 134.2 59.9 134.6 59.5 C 135.3 58.7 136.2 58 137 57.7 C 137.3 57.5 137.7 57.4 137.9 57.3 C 138.1 57.2 138.2 57.2 138.2 57.2 C 138.2 57.2 138.1 57.3 137.9 57.4 C 137.7 57.5 137.4 57.7 137.1 58 C 136.8 58.2 136.4 58.5 136.1 58.9 C 135.9 59.1 135.7 59.3 135.6 59.4 C 135.4 59.6 135.2 59.8 135.1 60 C 134.7 60.4 134.4 60.8 134.1 61.2 C 133.8 61.6 133.6 62 133.4 62.3 C 132.9 62.9 132.8 63.5 132.8 63.5 Z " fill="#8C5634" stroke-width="1"/>
            <path d="M 131.2 69.4 C 131.2 69.4 131.5 69.4 132 69.5 C 132.2 69.5 132.5 69.5 132.8 69.5 C 133.1 69.5 133.4 69.4 133.7 69.3 C 134 69.2 134.3 69.1 134.5 68.9 C 134.6 68.8 134.7 68.7 134.8 68.7 C 134.9 68.6 135 68.5 135.1 68.5 C 135.3 68.3 135.4 68.2 135.5 68.1 C 135.6 68 135.7 67.9 135.7 67.9 C 135.7 67.9 135.7 68 135.6 68.1 C 135.5 68.2 135.5 68.5 135.3 68.7 C 135.2 68.8 135.2 68.9 135 69.1 C 134.9 69.2 134.8 69.4 134.6 69.4 C 134.5 69.5 134.3 69.6 134.2 69.7 C 134 69.8 133.9 69.9 133.7 69.9 C 133.3 70 133 70 132.6 70 C 132.3 70 132 69.9 131.7 69.8 C 131.5 69.6 131.2 69.4 131.2 69.4 Z " fill="#8C5634" stroke-width="1"/>
            <path d="M 137.6 53.4 C 137.6 53.4 137.7 53.2 137.8 52.8 C 137.9 52.5 138.1 51.9 138.3 51.3 C 138.5 50.7 138.8 49.9 139.1 49.2 C 139.3 48.8 139.5 48.4 139.8 48.1 C 140 47.7 140.4 47.4 140.6 47.1 C 140.9 46.8 141.2 46.5 141.6 46.2 C 141.9 45.9 142.3 45.7 142.7 45.5 C 143.1 45.3 143.4 45.1 143.8 45 C 144.1 44.8 144.5 44.7 144.8 44.6 C 145.1 44.5 145.4 44.4 145.7 44.4 C 146 44.4 146.2 44.3 146.4 44.3 C 146.8 44.2 147 44.2 147 44.2 C 147 44.2 146.8 44.3 146.4 44.4 C 146.2 44.5 146 44.5 145.8 44.6 C 145.5 44.7 145.3 44.8 145 45 C 144.7 45.1 144.4 45.3 144.1 45.5 C 143.8 45.7 143.4 45.8 143.1 46.1 C 142.8 46.3 142.4 46.6 142.1 46.8 C 141.8 47 141.5 47.4 141.2 47.7 C 140.9 48 140.6 48.3 140.4 48.7 C 140.1 49 139.9 49.4 139.7 49.7 C 139.3 50.4 139 51.1 138.7 51.7 C 138.4 52.3 138.2 52.8 138 53.1 C 137.9 53.3 137.8 53.4 137.8 53.5 C 137.6 53.3 137.6 53.4 137.6 53.4 Z " fill="#8C5634" stroke-width="1"/>
          </g>
          <g id="Shape">
            <path d="M 159.5 96.5 C 159.5 96.5 159.8 96.2 160.2 95.8 C 160.4 95.6 160.6 95.3 160.8 95 C 161 94.7 161.2 94.4 161.2 94 C 161.3 93.7 161.3 93.3 161.3 93 C 161.2 92.7 161.2 92.3 161 92.1 C 160.9 91.8 160.8 91.6 160.7 91.4 C 160.6 91.2 160.6 91.1 160.6 91.1 C 160.6 91.1 160.7 91.2 160.8 91.3 C 160.9 91.4 161.1 91.6 161.3 91.9 C 161.5 92.2 161.7 92.5 161.8 92.9 C 161.8 93.1 161.9 93.3 161.9 93.5 C 161.9 93.7 161.9 94 161.8 94.2 C 161.7 94.6 161.5 95 161.2 95.4 C 160.9 95.7 160.6 95.9 160.4 96.1 C 159.9 96.4 159.5 96.5 159.5 96.5 Z " stroke-width="1" fill="#8C5634"/>
            <path d="M 161.5 93.1 C 161.5 93.1 161.9 93 162.5 92.7 C 163.1 92.4 163.8 92.1 164.4 91.6 C 164.5 91.5 164.7 91.4 164.8 91.2 C 164.9 91.1 165.1 90.9 165.2 90.8 C 165.3 90.7 165.4 90.5 165.5 90.3 C 165.6 90.2 165.7 90 165.7 89.9 C 165.8 89.6 165.9 89.4 165.9 89.2 C 166 89 166 88.9 166 88.9 C 166 88.9 166 89 166 89.2 C 166 89.4 166 89.7 166 90 C 166 90.2 165.9 90.3 165.9 90.5 C 165.8 90.7 165.8 90.9 165.7 91.1 C 165.5 91.5 165.2 91.8 164.9 92.1 C 164.5 92.4 164.2 92.6 163.8 92.8 C 163.4 93 163 93 162.7 93.1 C 161.9 93.1 161.5 93.1 161.5 93.1 Z " stroke-width="1" fill="#8C5634"/>
            <path d="M 169.3 88.8 C 169.3 88.8 169.1 88.7 168.9 88.5 C 168.7 88.3 168.4 87.9 168.3 87.4 C 168.2 86.9 168.3 86.2 168.6 85.6 C 168.8 85 169 84.4 169.2 83.7 C 169.6 82.4 169.8 81.1 169.8 80.1 C 169.8 79.9 169.8 79.6 169.7 79.4 C 169.7 79.2 169.6 79 169.6 78.9 C 169.5 78.6 169.4 78.5 169.4 78.5 C 169.4 78.5 169.5 78.6 169.7 78.9 C 169.8 79 169.9 79.2 169.9 79.4 C 170 79.6 170 79.8 170.1 80.1 C 170.3 81.2 170.1 82.6 169.7 83.9 C 169.5 84.6 169.3 85.2 169 85.8 C 168.7 86.4 168.5 86.9 168.6 87.4 C 168.6 87.9 168.8 88.3 168.9 88.5 C 169.2 88.6 169.3 88.8 169.3 88.8 Z " stroke-width="1" fill="#8C5634"/>
            <path d="M 170.5 82.5 C 170.5 82.5 170.6 82.1 170.7 81.5 C 170.8 80.9 171 80.1 171.1 79.4 C 171.2 78.6 171.3 77.9 171.3 77.3 C 171.3 77 171.3 76.8 171.2 76.6 C 171.2 76.4 171.1 76.3 171.1 76.3 C 171.1 76.3 171.2 76.4 171.3 76.5 C 171.4 76.6 171.4 76.7 171.5 76.8 C 171.6 76.9 171.6 77 171.7 77.2 C 171.9 77.8 171.9 78.7 171.8 79.5 C 171.7 80.3 171.4 81.1 171.1 81.6 C 170.8 82.2 170.5 82.5 170.5 82.5 Z " stroke-width="1" fill="#8C5634"/>
            <path d="M 165.2 92.2 C 165.2 92.2 165.5 92 165.8 91.6 C 166.2 91.2 166.5 90.7 166.8 90.1 C 166.9 89.8 167 89.5 167.1 89.2 C 167.2 88.9 167.2 88.6 167.3 88.3 C 167.4 88 167.4 87.8 167.4 87.7 C 167.4 87.5 167.4 87.5 167.4 87.5 C 167.4 87.5 167.4 87.6 167.5 87.7 C 167.5 87.9 167.6 88.1 167.6 88.4 C 167.6 88.7 167.6 89 167.6 89.4 C 167.6 89.8 167.5 90.1 167.3 90.5 C 167.1 90.8 166.9 91.2 166.7 91.4 C 166.5 91.7 166.2 91.9 166 92 C 165.6 92.2 165.2 92.2 165.2 92.2 Z " stroke-width="1" fill="#8C5634"/>
            <path d="M 152.1 93.9 C 152.1 93.9 151.9 93.9 151.4 93.9 C 151 93.9 150.4 93.8 149.7 93.6 C 149.3 93.5 149 93.3 148.6 93.2 C 148.2 93 147.8 92.8 147.5 92.5 C 147.1 92.2 146.8 91.9 146.4 91.6 C 146 91.3 145.8 90.9 145.5 90.5 C 145.3 90.1 145 89.7 144.8 89.2 C 144.6 88.7 144.4 88.3 144.3 87.9 C 144.2 87.5 144.1 87 144 86.6 C 144 86.2 143.9 85.8 143.9 85.4 C 143.8 85 143.9 84.7 143.9 84.4 C 143.9 84.1 143.9 83.9 143.9 83.6 C 143.9 83.2 143.9 82.9 143.9 82.9 C 143.9 82.9 143.9 83.1 144 83.6 C 144.1 84 144.1 84.6 144.2 85.3 C 144.3 85.6 144.3 86 144.4 86.4 C 144.5 86.8 144.7 87.2 144.8 87.6 C 144.9 88 145.1 88.4 145.3 88.8 C 145.5 89.2 145.8 89.6 146 90 C 146.3 90.4 146.5 90.8 146.8 91.1 C 147.1 91.4 147.4 91.7 147.8 92 C 148.1 92.3 148.5 92.5 148.8 92.7 C 149.2 92.9 149.5 93.1 149.8 93.2 C 150.4 93.5 151 93.7 151.4 93.8 C 151.8 93.8 152.1 93.9 152.1 93.9 Z " stroke-width="1" fill="#8C5634"/>
            <path d="M 143.8 87.2 C 143.8 87.2 143.7 87.2 143.4 87.1 C 143.2 87 142.9 86.9 142.5 86.7 C 142.3 86.6 142.2 86.4 142 86.2 C 141.9 86 141.7 85.8 141.6 85.6 C 141.5 85.4 141.4 85.1 141.4 84.9 C 141.3 84.6 141.3 84.4 141.3 84.1 C 141.3 83.8 141.3 83.6 141.3 83.3 C 141.3 83 141.4 82.8 141.4 82.6 C 141.5 82.1 141.7 81.7 141.8 81.3 C 141.9 80.9 142.1 80.7 142.2 80.5 C 142.3 80.3 142.4 80.2 142.4 80.2 C 142.4 80.2 142.3 80.7 142.2 81.4 C 142.2 81.8 142 82.2 142 82.7 C 142 82.9 141.9 83.2 141.9 83.4 C 141.9 83.6 141.9 83.9 141.9 84.1 C 141.9 84.3 141.9 84.6 142 84.8 C 142 85 142.1 85.2 142.1 85.5 C 142.2 85.9 142.4 86.3 142.7 86.5 C 142.9 86.8 143.2 87 143.3 87.1 C 143.7 87.2 143.8 87.2 143.8 87.2 Z " stroke-width="1" fill="#8C5634"/>
          </g>
        </g>
        <g id="Group">
          <ellipse id="Oval" cx="4" cy="3" rx="1.1" ry="2.1" stroke-width="1" fill="#4A311F" transform="matrix(1,0,0,1,161,63)"/>
          <path d="M 161.8 64.9 C 161.8 64.9 162 64.6 162.5 64.2 C 162.7 64 163 63.8 163.4 63.6 C 163.7 63.4 164.2 63.3 164.6 63.3 C 164.8 63.3 165 63.3 165.2 63.3 C 165.4 63.3 165.6 63.4 165.8 63.5 C 166 63.6 166.2 63.7 166.3 63.8 C 166.5 63.9 166.6 64 166.7 64.1 C 166.9 64.3 167 64.5 167.1 64.7 C 167.2 64.9 167.2 64.9 167.2 64.9 C 167.2 64.9 167.1 64.8 167 64.7 C 166.9 64.6 166.9 64.6 166.8 64.5 C 166.7 64.4 166.6 64.4 166.5 64.3 C 166.4 64.2 166.3 64.2 166.1 64.1 C 166 64 165.8 64 165.7 63.9 C 165.5 63.8 165.4 63.8 165.2 63.8 C 165 63.8 164.9 63.8 164.7 63.8 C 164 63.9 163.3 64.1 162.8 64.4 C 162.2 64.7 161.8 64.9 161.8 64.9 Z " id="Shape" stroke-width="1" fill="#4A311F"/>
        </g>
        <path d="M 158.6 80.4 C 158.6 80.4 158.9 80.2 159.5 79.9 C 160.1 79.6 160.8 79.4 161.6 79.3 C 162 79.3 162.4 79.3 162.8 79.3 C 163.2 79.3 163.5 79.5 163.8 79.6 C 164.1 79.7 164.3 79.9 164.4 80 C 164.5 80.1 164.6 80.2 164.6 80.2 C 164.6 80.2 164.5 80.2 164.3 80.1 C 164.2 80 163.9 80 163.6 79.9 C 163.3 79.9 163 79.8 162.6 79.8 C 162.2 79.8 161.9 79.8 161.5 79.9 C 160.7 80 160 80.1 159.4 80.2 C 159 80.3 158.6 80.4 158.6 80.4 Z " id="Shape" fill="#8C5634" stroke-width="1"/>
        <path d="M 151.1 61.7 C 149.6 61.9 149 63 151.4 63.4 C 154.3 63.9 158.4 62.4 158 61.1 C 157.6 59.7 156 61.2 154.8 61.4 C 153.6 61.6 152.2 61.6 151.1 61.7 Z " id="Shape" fill="#BF7547" stroke-width="1"/>
        <path d="M 167.4 61.5 C 168.7 61.7 169.1 62.8 167.1 63.2 C 164.6 63.7 161.2 62.2 161.6 60.8 C 162.1 59.4 163.3 60.9 164.3 61.1 C 165.3 61.4 166.5 61.4 167.4 61.5 Z " id="Shape" fill="#BF7547" stroke-width="1"/>
        <g id="Group">
          <path d="M 145.3 68.7 C 145.3 68.7 143.9 63.7 140.5 65.1 C 137 66.6 140 71.8 140 71.8 C 140 71.8 139.6 77.6 144 74.4 C 145 73.7 145.8 70.8 145.3 68.7 Z " id="Shape" fill="#FFD0AE" stroke-width="1"/>
          <path d="M 140.4 68.4 C 140.4 68.4 140.4 68.3 140.4 68 C 140.4 67.7 140.4 67.4 140.5 66.9 C 140.6 66.7 140.6 66.4 140.8 66.2 C 141 66 141.2 65.8 141.6 65.7 C 141.9 65.6 142.3 65.7 142.6 65.8 C 142.9 65.9 143.2 66.2 143.4 66.4 C 143.8 66.9 144.1 67.4 144.2 68 C 144.4 68.5 144.5 69 144.5 69.5 C 144.6 70.4 144.4 71 144.4 71 C 144.4 71 144.4 70.4 144.2 69.6 C 144 68.8 143.6 67.7 142.9 66.9 C 142.7 66.7 142.6 66.6 142.4 66.5 C 142.2 66.4 142 66.4 141.8 66.4 C 141.4 66.5 141.1 66.8 140.9 67.2 C 140.7 67.6 140.6 67.9 140.6 68.2 C 140.5 68.2 140.4 68.4 140.4 68.4 Z " id="Shape" fill="#BF8865" stroke-width="1"/>
          <path d="M 143.7 68.1 C 143.7 68.1 143.6 68.2 143.4 68.4 C 143.2 68.6 143 68.8 142.8 69.1 C 142.4 69.6 142 70.3 142 70.3 C 142 70.3 142 70.1 142 69.8 C 142 69.5 142.1 69.1 142.4 68.8 C 142.5 68.6 142.7 68.5 142.8 68.4 C 142.9 68.3 143.1 68.2 143.2 68.2 C 143.5 68 143.7 68.1 143.7 68.1 Z " id="Shape" fill="#BF8865" stroke-width="1"/>
        </g>
        <g id="Group">
          <path d="M 161.4 68.4 C 161.4 68.4 161.9 68.6 162.5 69.2 C 163.1 69.8 163.8 70.6 164.2 71.8 C 164.3 72.1 164.3 72.4 164.3 72.7 C 164.3 72.9 164.3 73 164.3 73.1 C 164.3 73.3 164.2 73.4 164.2 73.5 C 164 74 163.6 74.4 163.2 74.6 C 162.5 75.1 162 75.2 162 75.2 C 162 75.2 162.1 75.1 162.3 75 C 162.5 74.9 162.8 74.7 163 74.4 C 163.3 74.1 163.6 73.8 163.7 73.4 C 163.7 73.3 163.8 73.2 163.8 73.1 C 163.8 73 163.8 72.8 163.8 72.8 C 163.8 72.6 163.7 72.3 163.7 72.1 C 163.4 71.1 162.8 70.3 162.4 69.6 C 161.7 68.9 161.4 68.4 161.4 68.4 Z " id="Shape" stroke-width="1" fill="#BF8865"/>
          <path d="M 159.6 74.7 C 159.6 74.7 159.9 74.3 160.3 74.2 C 160.7 74 161.1 74.1 161.2 74.1 C 161.2 74.1 161.1 74.2 161 74.3 C 160.9 74.4 160.7 74.5 160.5 74.6 C 160.1 74.8 159.6 74.7 159.6 74.7 Z " id="Shape" stroke-width="1" fill="#BF8865"/>
        </g>
        <g id="Group">
          <path d="M 158.5 74.4 C 156.3 74.7 154.9 75.4 154.7 77 C 154.7 77 155.3 76.4 155.9 76.2 C 155.9 76.2 154.3 77.2 155.2 79.2 C 155.2 79.2 157.4 78.6 158.1 77.4 C 158.1 77.4 157.8 78.4 158.3 79.1 C 158.3 79.1 160.8 78.9 161.3 77 C 161.3 77 161.7 78.3 163.3 78.3 C 163.3 78.3 163.5 77.1 162.9 76.3 C 162.9 76.3 163.9 77.4 164.3 78.1 C 164.3 78.1 165 77.4 164.6 76.8 C 164.6 76.8 165.4 77.2 165.6 78.2 C 165.6 78.2 167.7 75.6 164 73.7 C 161.6 76.2 160.5 75.2 158.5 74.4 Z " id="Shape" fill="#BF7547" stroke-width="1"/>
          <path d="M 155.2 79.3 C 155.2 79.3 155.4 79.2 155.7 79 C 156 78.8 156.3 78.6 156.7 78.4 C 157.1 78.2 157.4 78 157.7 77.9 C 157.8 77.8 158 77.8 158 77.7 C 158.1 77.6 158.1 77.6 158.1 77.6 C 158.1 77.6 158.1 77.8 157.9 78.1 C 157.7 78.4 157.4 78.7 157 78.9 C 156.6 79.1 156.2 79.2 155.8 79.3 C 155.4 79.3 155.2 79.3 155.2 79.3 Z " id="Shape" fill="#8C5634" stroke-width="1"/>
          <path d="M 154.7 77 C 154.7 77 154.7 76.8 154.9 76.6 C 155 76.4 155.3 76.2 155.5 76 C 155.8 75.8 156.1 75.7 156.3 75.7 C 156.6 75.7 156.7 75.7 156.7 75.7 C 156.7 75.7 156.7 75.7 156.6 75.8 C 156.5 75.8 156.5 75.9 156.4 76 C 156.2 76.2 156 76.3 155.7 76.5 C 155.4 76.7 155.2 76.8 155 76.9 C 154.9 77 154.7 77 154.7 77 Z " id="Shape" fill="#8C5634" stroke-width="1"/>
          <path d="M 158.2 79.2 C 158.2 79.2 158.4 79.1 158.8 79 C 159.1 78.9 159.5 78.7 159.9 78.4 C 160.3 78.2 160.6 77.9 160.8 77.6 C 160.9 77.5 161 77.4 161.1 77.3 C 161.2 77.2 161.2 77.2 161.2 77.2 C 161.2 77.2 161.2 77.3 161.2 77.4 C 161.2 77.5 161.2 77.7 161.1 77.9 C 161 78.1 160.9 78.3 160.8 78.5 C 160.7 78.7 160.5 78.9 160.3 79 C 159.9 79.3 159.3 79.5 158.9 79.4 C 158.5 79.3 158.2 79.2 158.2 79.2 Z " id="Shape" fill="#8C5634" stroke-width="1"/>
          <path d="M 165.4 78.3 C 165.4 78.3 165.4 78.2 165.5 78.1 C 165.6 78 165.6 77.7 165.7 77.5 C 165.8 77 165.9 76.4 165.6 75.8 C 165.5 75.7 165.5 75.5 165.4 75.4 C 165.3 75.3 165.2 75.1 165.1 75 C 165 74.9 164.9 74.8 164.8 74.7 C 164.7 74.6 164.6 74.5 164.5 74.4 C 164.3 74.2 164.1 74.1 164 74 C 163.9 73.9 163.8 73.8 163.8 73.8 C 163.8 73.8 163.9 73.8 164 73.9 C 164.1 74 164.4 74 164.6 74.1 C 164.8 74.2 165.1 74.4 165.4 74.6 C 165.7 74.8 165.9 75.1 166.1 75.5 C 166.3 75.9 166.4 76.3 166.3 76.7 C 166.3 77.1 166.1 77.4 166 77.6 C 165.9 77.8 165.7 78 165.6 78.1 C 165.5 78.3 165.4 78.3 165.4 78.3 Z " id="Shape" fill="#8C5634" stroke-width="1"/>
          <path d="M 163.2 78.4 C 163.2 78.4 163.1 78.3 163.1 78.1 C 163.1 78 163 77.9 163 77.8 C 163 77.7 163 77.6 162.9 77.4 C 162.8 76.9 162.8 76.4 162.8 76.4 C 162.8 76.4 162.9 76.5 163.1 76.6 C 163.2 76.7 163.2 76.8 163.3 76.9 C 163.3 77 163.4 77.2 163.4 77.3 C 163.4 77.6 163.4 77.8 163.4 78 C 163.2 78.3 163.2 78.4 163.2 78.4 Z " id="Shape" fill="#8C5634" stroke-width="1"/>
          <path d="M 164.1 78.2 C 164.1 78.2 164.1 78.1 164.1 78 C 164.1 77.9 164.2 77.7 164.2 77.6 C 164.2 77.5 164.2 77.5 164.3 77.4 C 164.3 77.3 164.3 77.3 164.4 77.2 C 164.4 77.1 164.5 77 164.5 77 C 164.5 77 164.6 77.1 164.6 77.2 C 164.7 77.3 164.7 77.5 164.7 77.7 C 164.7 77.8 164.6 77.9 164.6 78 C 164.6 78.1 164.5 78.1 164.4 78.2 C 164.2 78.2 164.1 78.2 164.1 78.2 Z " id="Shape" fill="#8C5634" stroke-width="1"/>
        </g>
        <g id="Group">
          <g id="Shape">
            <path d="M 134.9 103.1 C 133.4 103 131.9 104 132.4 106.6 C 133 109.2 130.5 109.4 129.7 109.3 C 129.7 109.3 132.8 111.1 134.8 108.2 C 134.8 108.2 134.2 109.7 133.3 110.1 C 133.3 110.1 136.9 108.9 136.9 105.6 C 136.8 104.5 136.3 103.2 134.9 103.1 Z " fill="#BF7547" stroke-width="1"/>
            <path d="M 129.7 109.3 C 129.7 109.3 129.8 109.3 130.1 109.3 C 130.3 109.3 130.6 109.2 131 109.1 C 131.3 108.9 131.6 108.6 131.9 108.2 C 132 108 132.1 107.8 132.2 107.6 C 132.3 107.4 132.3 107.2 132.3 106.9 C 132.3 106.4 132.2 105.9 132.2 105.3 C 132.2 105 132.3 104.8 132.4 104.5 C 132.5 104.3 132.7 104.1 132.8 103.9 C 133.1 103.6 133.4 103.5 133.7 103.4 C 133.9 103.3 134 103.3 134 103.3 C 134 103.3 133.9 103.4 133.7 103.5 C 133.5 103.6 133.3 103.9 133.1 104.2 C 133 104.4 132.9 104.5 132.9 104.7 C 132.9 104.9 132.8 105.1 132.8 105.3 C 132.8 105.8 133 106.3 133 106.9 C 133 107.2 132.9 107.5 132.8 107.8 C 132.7 108.1 132.6 108.3 132.4 108.5 C 132.1 108.9 131.6 109.3 131.2 109.4 C 130.8 109.5 130.4 109.5 130.2 109.4 C 129.8 109.4 129.7 109.3 129.7 109.3 Z " fill="#8C5634" stroke-width="1"/>
          </g>
          <g id="Shape">
            <path d="M 133.4 74.2 C 133.4 74.2 129 80.7 134.1 85.4 C 134.1 85.4 130.7 87.7 133.9 93 C 133.9 93 130.9 95.4 134.1 99.2 C 134.1 99.2 132.2 101.2 134.4 103.8 C 134.4 103.8 138.5 103.5 137.1 98.8 C 137.1 98.8 139.1 95.8 137.5 92.8 C 137.5 92.8 141.9 89.9 138.8 84.5 C 138.8 84.5 143.4 79.1 140 75.1 C 136.7 71.1 134.8 72.5 133.4 74.2 Z " fill="#BF7547" stroke-width="1"/>
            <path d="M 135.7 77.2 C 135.7 77.2 136.1 77.4 136.5 77.8 C 136.9 78.2 137.4 78.9 137.7 79.6 C 137.8 80 138 80.4 138 80.7 C 138.1 81.1 138.1 81.4 138.1 81.7 C 138.1 82 138 82.2 138 82.4 C 138 82.6 137.9 82.7 137.9 82.7 C 137.9 82.7 137.9 82.6 137.8 82.4 C 137.8 82.2 137.7 82 137.6 81.7 C 137.5 81.1 137.3 80.4 137 79.8 C 136.9 79.5 136.7 79.1 136.5 78.8 C 136.3 78.5 136.2 78.2 136 78 C 135.9 77.5 135.7 77.2 135.7 77.2 Z " fill="#8C5634" stroke-width="1"/>
            <path d="M 137.7 80.1 C 137.7 80.1 137.7 79.9 137.8 79.5 C 137.9 79.2 138.1 78.7 138.4 78.4 C 138.7 78 139.1 77.7 139.4 77.6 C 139.7 77.4 140 77.4 140 77.4 C 140 77.4 140 77.5 139.9 77.5 C 139.8 77.6 139.8 77.7 139.7 77.8 C 139.5 78.1 139.2 78.4 139 78.7 C 138.7 79 138.5 79.4 138.2 79.6 C 137.8 79.9 137.7 80.1 137.7 80.1 Z " fill="#8C5634" stroke-width="1"/>
            <path d="M 136.2 86.4 C 136.2 86.4 136.5 86.5 136.9 86.8 C 137.3 87.1 137.7 87.6 137.9 88.2 C 138 88.5 138.1 88.8 138.1 89.1 C 138.1 89.4 138.1 89.7 138.1 89.9 C 138.1 90.1 138 90.3 137.9 90.5 C 137.8 90.6 137.8 90.7 137.8 90.7 C 137.8 90.7 137.8 90.4 137.7 89.9 C 137.6 89.5 137.5 88.9 137.3 88.4 C 137.1 87.9 136.8 87.4 136.6 87 C 136.4 86.7 136.2 86.4 136.2 86.4 Z " fill="#8C5634" stroke-width="1"/>
            <path d="M 134.8 93.6 C 134.8 93.6 135.1 93.7 135.4 94 C 135.7 94.3 136.1 94.7 136.4 95.2 C 136.7 95.7 136.8 96.3 136.8 96.8 C 136.8 97.3 136.7 97.5 136.7 97.5 C 136.7 97.5 136.7 97.4 136.6 97.3 C 136.6 97.2 136.5 97 136.4 96.8 C 136.2 96.4 136 95.9 135.8 95.5 C 135.5 95 135.3 94.5 135.1 94.2 C 134.9 93.9 134.8 93.6 134.8 93.6 Z " fill="#8C5634" stroke-width="1"/>
            <path d="M 135.4 99.3 C 135.4 99.3 135.6 99.5 135.8 99.8 C 136 100.1 136.2 100.6 136.2 101 C 136.2 101.2 136.2 101.5 136.1 101.7 C 136.1 101.9 136 102.1 135.9 102.3 C 135.7 102.6 135.5 102.8 135.5 102.8 C 135.5 102.8 135.5 102.6 135.5 102.2 C 135.5 101.9 135.5 101.5 135.5 101 C 135.5 100.6 135.4 100.2 135.4 99.8 C 135.4 99.6 135.4 99.3 135.4 99.3 Z " fill="#8C5634" stroke-width="1"/>
            <g>
              <path d="M 138.3 87.3 C 138.3 87.3 138.3 87.4 138.3 87.6 C 138.3 87.8 138.3 87.9 138.2 88.1 C 138.1 88.3 138.1 88.4 138 88.6 C 137.9 88.7 137.8 88.8 137.8 88.8 C 137.8 88.8 137.8 88.7 137.8 88.5 C 137.8 88.3 137.8 88.2 137.9 88 C 138 87.8 138 87.7 138.1 87.5 C 138.2 87.4 138.3 87.3 138.3 87.3 Z " stroke-width="1" fill="#8C5634"/>
              <path d="M 136.9 94.8 C 136.9 94.8 136.9 94.9 136.9 95 C 136.9 95.1 136.9 95.1 136.9 95.2 C 136.9 95.3 136.8 95.3 136.8 95.4 C 136.7 95.5 136.6 95.6 136.6 95.7 C 136.5 95.8 136.5 95.9 136.5 95.9 C 136.5 95.9 136.4 95.8 136.4 95.7 C 136.4 95.6 136.4 95.4 136.5 95.2 C 136.6 95.1 136.7 94.9 136.8 94.9 C 136.8 94.8 136.9 94.8 136.9 94.8 Z " stroke-width="1" fill="#8C5634"/>
              <path d="M 136.6 100.1 C 136.6 100.1 136.6 100.2 136.6 100.3 C 136.6 100.4 136.5 100.5 136.4 100.7 C 136.3 100.8 136.2 100.9 136 100.9 C 135.9 101 135.8 101 135.8 101 C 135.8 101 135.8 100.9 135.8 100.8 C 135.8 100.7 135.9 100.6 136 100.4 C 136.1 100.3 136.2 100.2 136.4 100.2 C 136.5 100.1 136.6 100.1 136.6 100.1 Z " stroke-width="1" fill="#8C5634"/>
            </g>
            <path d="M 132.9 74.9 C 132.9 74.9 132.8 75.1 132.7 75.4 C 132.6 75.7 132.4 76.1 132.3 76.6 C 132.2 76.9 132.2 77.1 132.1 77.4 C 132 77.7 132 78 131.9 78.3 C 131.9 78.6 131.8 79 131.8 79.3 C 131.8 79.6 131.8 80 131.8 80.3 C 131.8 80.6 131.9 81 132 81.3 C 132.1 81.6 132.2 81.9 132.3 82.3 C 132.4 82.6 132.5 82.9 132.7 83.2 C 132.8 83.5 133 83.7 133.1 83.9 C 133.2 84.1 133.3 84.4 133.5 84.5 C 133.6 84.7 133.7 84.8 133.8 85 C 134 85.3 134.1 85.4 134.1 85.4 C 134.1 85.4 134 85.3 133.7 85.1 C 133.6 85 133.4 84.9 133.3 84.7 C 133.1 84.6 133 84.3 132.8 84.1 C 132.6 83.9 132.4 83.7 132.3 83.4 C 132.2 83.1 132 82.8 131.8 82.5 C 131.7 82.2 131.5 81.8 131.5 81.5 C 131.4 81.1 131.3 80.8 131.3 80.4 C 131.1 78.9 131.5 77.4 132 76.4 C 132.4 75.4 132.9 74.9 132.9 74.9 Z " fill="#8C5634" stroke-width="1"/>
            <path d="M 138.8 84.5 C 138.8 84.5 139.3 84.9 139.7 85.7 C 139.8 85.9 139.9 86.1 140 86.4 C 140.1 86.6 140.2 86.9 140.2 87.2 C 140.2 87.5 140.3 87.8 140.3 88.1 C 140.3 88.4 140.3 88.7 140.2 89 C 140.2 89.3 140 89.6 140 89.9 C 139.9 90.2 139.7 90.4 139.6 90.7 C 139.4 90.9 139.3 91.2 139.1 91.4 C 138.9 91.6 138.7 91.8 138.6 91.9 C 138.3 92.2 137.9 92.4 137.7 92.6 C 137.5 92.7 137.4 92.8 137.4 92.8 C 137.4 92.8 137.5 92.7 137.7 92.5 C 137.9 92.3 138.1 92 138.4 91.7 C 138.5 91.5 138.7 91.3 138.8 91.1 C 138.9 90.9 139 90.7 139.2 90.4 C 139.3 90.2 139.4 89.9 139.5 89.7 C 139.6 89.4 139.7 89.2 139.7 88.9 C 139.8 88.6 139.8 88.4 139.8 88.1 C 139.8 87.8 139.8 87.6 139.8 87.3 C 139.7 87 139.7 86.8 139.7 86.6 C 139.6 86.4 139.6 86.1 139.5 85.9 C 139.4 85.5 139.2 85.1 139.1 84.9 C 138.9 84.6 138.8 84.5 138.8 84.5 Z " fill="#8C5634" stroke-width="1"/>
            <path d="M 133.8 93 C 133.8 93 133.5 93.3 133.3 93.9 C 133.2 94.2 133.1 94.5 133 94.9 C 133 95.1 133 95.3 132.9 95.5 C 132.9 95.7 132.9 95.9 132.9 96.1 C 132.9 96.3 132.9 96.5 133 96.7 C 133.1 96.9 133.1 97.1 133.2 97.3 C 133.3 97.7 133.5 98 133.6 98.3 C 133.7 98.6 133.8 98.8 133.9 99 C 134 99.2 134 99.3 134 99.3 C 134 99.3 133.9 99.2 133.8 99.1 C 133.7 99 133.4 98.8 133.3 98.5 C 133.1 98.2 132.9 97.9 132.7 97.5 C 132.6 97.3 132.5 97.1 132.5 96.9 C 132.4 96.7 132.4 96.5 132.4 96.2 C 132.4 95.7 132.4 95.3 132.5 94.8 C 132.6 94.4 132.8 94 133 93.8 C 133.4 93.2 133.8 93 133.8 93 Z " fill="#8C5634" stroke-width="1"/>
            <path d="M 137 98.8 C 137 98.8 137.2 99.2 137.4 99.8 C 137.5 100.1 137.5 100.5 137.5 100.9 C 137.5 101.3 137.4 101.8 137.2 102.2 C 137.1 102.4 137 102.6 136.8 102.8 C 136.7 103 136.5 103.1 136.3 103.3 C 136.1 103.4 135.9 103.5 135.8 103.6 C 135.6 103.7 135.5 103.7 135.3 103.8 C 135 103.9 134.7 103.9 134.5 103.9 C 134.3 103.9 134.2 103.9 134.2 103.9 C 134.2 103.9 134.3 103.8 134.5 103.8 C 134.7 103.7 134.9 103.6 135.2 103.5 C 135.3 103.4 135.5 103.4 135.6 103.3 C 135.7 103.2 135.9 103.1 136 103 C 136.1 102.9 136.3 102.8 136.4 102.6 C 136.5 102.5 136.6 102.3 136.7 102.1 C 136.8 101.9 136.8 101.8 136.9 101.6 C 136.9 101.4 137 101.2 137 101.1 C 137.1 100.7 137.1 100.4 137.1 100.1 C 137.1 99.2 137 98.8 137 98.8 Z " fill="#8C5634" stroke-width="1"/>
          </g>
        </g>
      </g>
    </g>
  </g>
</svg>