<svg xmlns="http://www.w3.org/2000/svg" xmlns:xlink="http://www.w3.org/1999/xlink" version="1.1" width="136.5500946044922" height="148.99864196777344" viewBox="0.7936999797821045 -0.05329999327659607 136.5500946044922 148.99864196777344">
  <!-- Exported by Scratch - http://scratch.mit.edu/ -->
  <g id="ID0.038037963677197695">
    <path id="R_Leg" fill="#BE1E2D" stroke="#231F20" stroke-linecap="round" stroke-linejoin="round" d="M 77.8726 134.0925 C 79.434 133.6377 81.3518 134.0925 81.3518 134.0925 C 81.3518 134.0925 82.201 139.253 82.4609 141.1194 C 82.7218 142.9885 83.6883 145.9135 83.6883 145.9135 C 83.6883 145.9135 84.1766 146.2059 84.0403 146.9694 C 83.8995 147.7311 82.2218 147.8791 80.1199 148.2789 C 78.0206 148.6742 76.3032 148.3349 75.9729 147.5831 C 75.6398 146.8367 76.2608 146.4875 76.2608 146.4875 C 76.2608 146.4875 77.2391 140.3243 76.3483 138.2034 C 76.3546 138.2097 75.8799 134.6701 77.8726 134.0925 L 77.8726 134.0925 L 77.8726 134.0925 L 77.8726 134.0925 L 77.8726 134.0925 L 77.8726 134.0925 L 77.8726 134.0925 L 77.8726 134.0925 Z " stroke-width="0.9024999737739563"/>
    <path id="L_Leg" fill="#BE1E2D" stroke="#231F20" stroke-linecap="round" stroke-linejoin="round" d="M 71.1391 134.6701 C 69.2953 133.8236 67.7294 135.8172 67.7294 135.8172 C 67.7294 135.8172 68.0381 140.9858 68.0733 142.8676 C 68.1067 144.7556 68.057 146.5218 68.057 146.5218 C 68.057 146.5218 67.6184 146.8846 67.8756 147.6183 C 68.1328 148.352 69.8124 148.2392 71.9486 148.3105 C 74.0875 148.3773 75.7283 147.7762 75.9413 146.9848 C 76.1498 146.1951 75.4828 145.9505 75.4828 145.9505 C 75.4828 145.9505 73.6977 140.7801 74.2572 138.5545 C 74.2536 138.55 73.954 135.9616 71.1391 134.6701 L 71.1391 134.6701 L 71.1391 134.6701 L 71.1391 134.6701 L 71.1391 134.6701 L 71.1391 134.6701 L 71.1391 134.6701 L 71.1391 134.6701 Z " stroke-width="0.9024999737739563"/>
    <g id="Body_1_">
      <path id="Body" fill="#BE1E2D" stroke="#000000" d="M 81.9989 127.4709 C 81.9086 126.8698 81.7823 126.2408 81.6324 125.6217 C 81.155 122.1146 78.2923 116.4947 72.1282 117.3972 C 65.9623 118.2997 65.9434 125.6253 65.9434 125.6253 L 65.9434 125.6253 C 65.6401 128.7931 65.5706 134.4517 68.4704 136.4327 C 71.9694 138.8207 75.3456 139.0608 78.5296 137.2684 C 81.7462 135.4526 82.4149 130.2795 81.9989 127.4709 L 81.9989 127.4709 L 81.9989 127.4709 L 81.9989 127.4709 L 81.9989 127.4709 L 81.9989 127.4709 L 81.9989 127.4709 L 81.9989 127.4709 Z " stroke-width="0.9024999737739563"/>
      <path id="Belly" fill="#E6E7E8" stroke="#231F20" stroke-linecap="round" stroke-linejoin="round" d="M 80.2994 135.5194 C 80.3419 133.9599 80.1884 126.5774 73.4423 127.0449 C 67.5011 127.461 69.2104 136.7784 69.2104 136.7784 L 69.2438 136.9228 C 72.4676 138.8424 75.5803 138.9254 78.5296 137.2648 C 79.2291 136.8695 79.8112 136.3154 80.2832 135.662 L 80.2994 135.5194 L 80.2994 135.5194 L 80.2994 135.5194 L 80.2994 135.5194 L 80.2994 135.5194 L 80.2994 135.5194 L 80.2994 135.5194 L 80.2994 135.5194 Z " stroke-width="0.9024999737739563"/>
    </g>
    <path id="L_Arm" fill="#BE1E2D" stroke="#000000" stroke-linecap="round" d="M 68.9821 122.2409 C 68.0209 122.2409 63.9777 124.0802 63.9777 124.0802 C 61.439 125.2237 58.8172 126.7471 58.6819 128.2055 C 58.2866 132.4274 63.346 138.1926 66.1194 134.625 C 66.743 133.8227 66.6834 132.9789 66.3269 132.2018 C 66.7304 131.8661 67.1663 131.3679 67.0462 130.8291 C 66.8351 129.8752 65.2448 130.5132 65.2448 130.5132 L 64.1817 129.7434 L 64.0653 129.6712 C 64.0978 129.5457 64.1889 129.4311 64.3071 129.3228 C 64.3071 129.3228 64.9064 128.9871 65.8631 128.5981 C 66.8991 128.1758 68.0065 128.4212 68.0065 128.4212 " stroke-width="0.9024999737739563"/>
    <path id="R_Arm" fill="#BE1E2D" stroke="#000000" stroke-linecap="round" d="M 78.9033 122.24 C 79.8635 122.24 83.9076 124.0793 83.9076 124.0793 C 86.4455 125.2228 89.0681 126.7462 89.2035 128.2046 C 89.5988 132.4265 84.5385 138.1917 81.766 134.6241 C 81.1424 133.8218 81.2019 132.978 81.5584 132.2009 C 81.155 131.8643 80.7191 131.367 80.8391 130.8282 C 81.0503 129.8743 82.6405 130.5123 82.6405 130.5123 L 83.7037 129.7425 L 83.8201 129.6703 C 83.7885 129.5448 83.6965 129.4302 83.5782 129.3219 C 83.5782 129.3219 82.979 128.9862 82.0214 128.5972 C 80.9853 128.1749 79.878 128.4203 79.878 128.4203 " stroke-width="0.9024999737739563"/>
    <g id="Head_3_">
      <g id="Head_2_">
        <path id="Head_1_" fill="#BE1E2D" stroke="#000000" stroke-linecap="round" stroke-linejoin="round" d="M 117.8922 97.2335 L 117.3561 98.7867 C 114.3824 106.6277 110.155 111.1402 110.155 111.1402 C 110.155 111.1402 110.3067 109.7404 110.2254 107.4914 L 110.0937 107.4453 C 109.7119 108.6294 109.0874 110.1564 108.0459 112.0427 C 105.768 116.1851 99.0733 119.658 99.0733 119.658 C 99.0733 119.658 99.4893 118.2338 99.7501 115.9036 L 99.6554 115.5471 C 98.9289 116.1048 98.1762 116.6192 97.4172 117.1183 C 97.1933 117.2663 96.9695 117.4107 96.7421 117.5506 C 96.0499 117.9811 95.345 118.3918 94.6257 118.7744 C 94.3414 118.9242 94.0445 119.0632 93.7584 119.2067 C 93.2332 119.4693 92.7007 119.7166 92.1601 119.9576 C 91.7639 120.1309 91.3632 120.3051 90.9562 120.4657 C 90.5338 120.6354 90.1015 120.7879 89.671 120.9467 C 88.8786 121.2301 88.0745 121.4945 87.2532 121.7382 C 86.9852 121.8176 86.7162 121.8971 86.4446 121.9711 C 85.8588 122.1326 85.2677 122.2896 84.6666 122.4286 L 84.6694 122.4304 C 81.6514 123.1326 78.4502 123.5911 75.0234 123.8031 C 71.316 124.0306 67.9542 123.9936 64.8153 123.7752 L 64.8153 123.7752 C 62.3316 123.6019 60.0067 123.3041 57.8055 122.9006 C 57.699 122.8817 57.5916 122.8618 57.4842 122.8438 C 56.8038 122.7138 56.1341 122.5766 55.4771 122.4295 C 55.2479 122.3754 55.0285 122.3185 54.8002 122.2626 C 53.9275 122.0559 53.0791 121.8285 52.2425 121.5857 C 51.7137 121.4323 51.1884 121.2752 50.6749 121.1083 C 50.3698 121.0126 50.0639 120.9106 49.7652 120.8086 C 48.9493 120.5271 48.1407 120.241 47.3564 119.9323 L 47.2201 120.0641 C 47.5161 122.185 48.2472 123.3239 48.8311 123.8681 C 50.0215 124.9773 52.3129 125.2408 52.3129 125.2408 C 52.3129 125.2408 45.3086 126.2209 41.4947 120.8141 C 41.0894 120.2383 40.6806 119.6426 40.2925 119.0091 L 40.1256 118.6463 C 39.2971 118.3692 38.4577 118.001 37.6292 117.5272 C 32.5771 114.6166 31.9426 112.2159 31.9426 112.2159 L 32.0482 113.0959 C 32.5346 115.3891 33.0094 116.8376 33.0094 116.8376 C 33.0094 116.8376 26.9626 113.011 24.2695 107.2766 C 22.0981 102.6449 21.9257 99.8436 21.9113 99.3698 L 21.7082 97.6875 C 21.5774 91.092 21.9871 83.696 22.8932 76.4192 L 22.9492 76.2251 C 23.7569 70.5999 22.9736 61.2797 30.4372 51.7448 C 44.4251 33.8798 58.7135 34.5008 67.2592 21.2981 C 73.5442 11.5854 71.9297 0.4467 71.9297 0.4467 C 71.9297 0.4467 75.7842 5.9042 77.3239 9.1089 C 78.8112 12.2325 80.4032 16.2585 80.4032 16.2585 L 80.4547 16.2242 C 80.4899 16.1069 80.5215 15.9869 80.5485 15.8669 C 80.9691 13.9978 80.8021 11.2343 80.8021 11.2343 C 80.8021 11.2343 84.4771 22.0048 90.4102 29.0659 C 96.3378 36.1217 104.9079 38.1406 115.7298 62.3104 C 117.0763 65.3139 118.3281 67.8418 118.9977 70.6423 L 119.301 72.2551 C 120.2459 77.2946 119.8759 91.2184 117.8922 97.2335 L 117.8922 97.2335 L 117.8922 97.2335 L 117.8922 97.2335 L 117.8922 97.2335 L 117.8922 97.2335 L 117.8922 97.2335 L 117.8922 97.2335 Z M 48.5793 73.5619 C 48.5793 73.5619 41.5705 80.8432 42.0325 90.9729 C 42.4414 99.9365 44.7644 102.7054 46.0162 103.3985 C 47.3031 104.107 49.2986 103.6873 49.2986 103.6873 C 49.2986 103.6873 43.6543 106.6764 39.0534 102.6206 C 35.9759 99.9095 32.6267 96.4123 31.689 86.5452 M 106.9033 89.7058 C 106.9033 89.7058 107.7743 92.1994 105.6507 97.4086 C 103.2627 103.2785 98.224 105.0952 98.224 105.0952 C 98.224 105.0952 102.4116 96.0513 98.8973 87.5497 C 97.3648 83.8359 92.6321 81.068 87.6918 79.115 C 80.9971 76.4634 73.9215 75.3082 73.9215 75.3082 M 110.1244 107.3452 C 109.7471 108.5437 109.1145 110.1086 108.0423 112.0445 C 105.7644 116.1878 99.0687 119.6598 99.0687 119.6598 C 99.0687 119.6598 100.2799 115.5047 99.8675 109.7837 M 33.1167 93.8167 C 32.429 95.0928 31.9002 96.461 31.6042 97.905 C 29.745 106.9138 33.0166 116.8376 33.0166 116.8376 C 33.0166 116.8376 26.9716 113.0129 24.2768 107.2766 C 21.8878 102.1847 21.9185 99.3021 21.9185 99.3021 M 117.3534 98.7913 C 114.3778 106.6322 110.1523 111.1447 110.1523 111.1447 C 110.1523 111.1447 111.0251 103.1918 107.5035 94.6894 C 107.3429 94.3049 107.1651 93.9313 106.9746 93.5685 M 73.9242 75.3082 C 73.9242 75.3082 75.1227 75.6268 78.2851 78.1439 C 81.4474 80.6609 82.6108 83.4072 82.6108 83.4072 C 82.6108 83.4072 73.2717 80.947 68.1031 79.0888 C 62.939 77.2287 45.5126 72.4825 45.5126 72.4825 M 44.3547 112.7475 C 46.8862 116.7239 49.5197 118.8872 49.5197 118.8872 C 49.5197 118.8872 43.3258 120.805 37.6356 117.5299 C 32.5834 114.6193 31.9489 112.2187 31.9489 112.2187 M 99.6499 115.5507 C 92.9751 120.6859 84.8751 123.203 75.027 123.8095 C 63.2828 124.5333 54.7 122.8167 47.3627 119.9386 M 47.1542 119.4143 C 47.3762 121.9575 48.1939 123.2761 48.8356 123.8717 C 50.0269 124.9809 52.3183 125.2435 52.3183 125.2435 C 52.3183 125.2435 45.3122 126.2264 41.4992 120.8186 C 41.0939 120.241 40.6851 119.648 40.297 119.0136 M 74.6011 75.6096 C 74.6011 75.6096 100.1797 78.7296 100.1797 92.6913 " stroke-width="0.9024999737739563"/>
        <path id="Face" fill="#E6E7E8" stroke="#000000" stroke-linecap="round" stroke-linejoin="round" d="M 105.1922 98.7272 C 104.2383 108.7675 92.6962 119.2428 75.805 120.2301 C 60.8939 121.1101 38.8566 114.4045 35.6591 102.0565 C 35.3414 100.8156 35.1726 99.617 35.1266 98.4646 L 35.4506 98.7037 C 36.5823 100.3607 37.8377 101.5529 39.0534 102.6242 C 43.6543 106.6782 49.2986 103.6891 49.2986 103.6891 C 49.2986 103.6891 47.3031 104.1106 46.0162 103.403 C 44.7644 102.709 42.4414 99.9401 42.0325 90.9765 C 41.5705 80.8441 48.5793 73.5655 48.5793 73.5655 L 48.6036 73.3326 C 53.849 74.7857 64.299 77.7197 68.1013 79.0888 C 73.2708 80.9497 82.608 83.4072 82.608 83.4072 C 82.608 83.4072 81.4447 80.6609 78.2824 78.1439 C 76.6994 76.884 75.6101 76.1764 74.9169 75.782 L 75.5676 75.884 C 75.5676 75.884 95.2891 78.7982 98.9009 87.5497 C 102.4152 96.0531 98.2303 105.0952 98.2303 105.0952 C 98.2303 105.0952 102.5208 103.5465 105.055 98.7001 L 105.1922 98.7272 L 105.1922 98.7272 L 105.1922 98.7272 L 105.1922 98.7272 L 105.1922 98.7272 L 105.1922 98.7272 L 105.1922 98.7272 L 105.1922 98.7272 Z " stroke-width="0.9024999737739563"/>
      </g>
      <g id="R_Ear">
        <path id="Outer_Ear_1_" fill="#BE1E2D" stroke="#000000" stroke-linecap="round" d="M 112.164 80.3992 C 112.164 80.3992 121.2504 70.2226 121.7567 69.7398 C 122.2639 69.2597 126.0201 64.6533 136.8438 63.0802 C 136.8438 63.0802 129.8927 93.9936 113.6983 101.0656 C 113.6974 101.0647 115.2379 92.2193 112.164 80.3992 L 112.164 80.3992 L 112.164 80.3992 L 112.164 80.3992 L 112.164 80.3992 L 112.164 80.3992 L 112.164 80.3992 L 112.164 80.3992 Z M 112.2254 80.6474 C 111.9925 79.6709 111.2859 77.9444 111.2859 77.9444 M 112.9212 103.4355 C 112.9212 103.4355 113.5421 101.9527 113.6956 101.0647 " stroke-width="0.9024999737739563"/>
        <path id="Inner_Ear_1_" fill="#929497" stroke="#000000" stroke-linecap="round" d="M 120.152 96.2065 C 120.152 96.2065 118.5284 94.9601 118.3416 90.8601 C 118.2216 88.3168 119.3389 83.6789 119.3389 83.6789 L 119.2468 83.8269 C 119.9553 83.0074 120.7026 82.0499 121.3794 80.9994 C 122.5265 79.2224 123.8685 76.5573 125.0986 73.9301 L 125.2891 73.5682 C 125.2891 73.5682 128.5417 68.8111 135.2834 68.2091 L 135.361 68.2516 C 133.9404 72.9509 131.6237 79.8433 129.0579 84.5516 C 126.1807 89.8339 122.8496 93.6696 120.0293 96.3031 L 120.152 96.2065 L 120.152 96.2065 L 120.152 96.2065 L 120.152 96.2065 L 120.152 96.2065 L 120.152 96.2065 L 120.152 96.2065 L 120.152 96.2065 Z M 116.5312 86.4766 C 116.5312 86.4766 118.8967 84.1644 119.3389 83.6789 " stroke-width="0.9024999737739563"/>
      </g>
      <g id="L_Ear">
        <path id="Outer_Ear_2_" fill="#BE1E2D" stroke="#000000" stroke-linecap="round" d="M 24.4383 101.0647 C 8.2466 93.9927 1.2937 63.0802 1.2937 63.0802 C 12.1192 64.6542 15.8754 69.2606 16.3808 69.7398 C 16.8862 70.2208 25.9744 80.3983 25.9744 80.3983 C 22.8977 92.2193 24.4383 101.0647 24.4383 101.0647 L 24.4383 101.0647 L 24.4383 101.0647 L 24.4383 101.0647 L 24.4383 101.0647 L 24.4383 101.0647 L 24.4383 101.0647 L 24.4383 101.0647 Z M 26.8498 77.9444 C 26.8498 77.9444 26.144 79.6709 25.9103 80.6474 M 24.4383 101.0647 C 24.5926 101.9527 25.2145 103.4355 25.2145 103.4355 " stroke-width="0.9024999737739563"/>
        <path id="Inner_Ear_2_" fill="#929497" stroke="#000000" stroke-linecap="round" d="M 18.1037 96.304 C 15.2833 93.6687 11.954 89.833 9.0751 84.5525 C 6.5083 79.8442 4.1925 72.9518 2.772 68.2525 L 2.8496 68.21 C 9.5922 68.8129 12.8439 73.5691 12.8439 73.5691 L 13.0343 73.931 C 14.2644 76.5591 15.6064 79.2242 16.7535 81.0003 C 17.4304 82.0508 18.1777 83.0083 18.8861 83.8278 L 18.7959 83.6798 C 18.7959 83.6798 19.9132 88.3177 19.7931 90.861 C 19.6063 94.961 17.9845 96.2074 17.9845 96.2074 L 18.1037 96.304 L 18.1037 96.304 L 18.1037 96.304 L 18.1037 96.304 L 18.1037 96.304 L 18.1037 96.304 L 18.1037 96.304 L 18.1037 96.304 Z M 18.7968 83.6789 C 19.239 84.1635 21.6045 86.4766 21.6045 86.4766 " stroke-width="0.9024999737739563"/>
      </g>
      <path id="Mouth" fill="none" stroke="#231F20" stroke-linecap="round" d="M 60.6836 111.7827 C 60.6836 111.7827 66.2358 104.7694 74.4151 104.7694 C 82.5936 104.7694 88.1467 110.0292 88.1467 110.0292 " stroke-width="0.9024999737739563"/>
      <path id="R_Eye" fill="#231F20" d="M 94.3432 92.9241 C 94.4371 92.434 94.123 91.962 93.6348 91.8628 C 93.1393 91.7572 92.6709 92.083 92.5734 92.5712 C 92.494 92.9575 92.096 93.1551 92.068 93.1696 C 91.8993 93.2436 91.7838 93.3717 91.6872 93.5161 C 91.5816 93.4918 91.4688 93.4692 91.3506 93.4457 C 91.448 93.203 91.5256 92.9385 91.5428 92.6245 C 91.5681 92.1254 91.1854 91.703 90.6908 91.6778 C 90.1556 91.6218 89.7694 92.036 89.7414 92.5324 C 89.7243 92.8149 89.5392 93.0198 89.4228 93.1199 C 87.0339 92.8059 84.0502 92.7689 82.6351 94.2057 C 82.1099 94.7399 82.1198 95.5964 82.6523 96.1199 C 82.9167 96.3807 83.2587 96.5115 83.6026 96.5115 C 83.9537 96.5115 84.302 96.3771 84.5665 96.109 C 85.2966 95.3636 88.9382 95.6145 91.7495 96.3085 C 92.4886 96.4899 93.2088 96.0422 93.3857 95.3175 C 93.4561 95.0323 93.4056 94.7535 93.3045 94.4999 C 93.7016 94.2102 94.1844 93.7291 94.3432 92.9241 L 94.3432 92.9241 L 94.3432 92.9241 L 94.3432 92.9241 L 94.3432 92.9241 L 94.3432 92.9241 L 94.3432 92.9241 L 94.3432 92.9241 Z " stroke-width="0.9024999737739563"/>
      <path id="L_Eye" fill="#231F20" d="M 62.0455 94.036 C 61.9011 93.9954 59.3587 93.3032 56.126 93.4539 C 56.0204 93.2932 55.876 93.1579 55.6802 93.0911 C 55.6765 93.0893 55.2569 92.916 55.1549 92.5306 C 55.0276 92.0505 54.5376 91.7563 54.0511 91.8889 C 53.5683 92.0189 53.2822 92.5099 53.4095 92.9936 C 53.4871 93.2815 53.6161 93.517 53.7551 93.7264 C 53.6234 93.749 53.4889 93.7788 53.3553 93.8058 C 53.2551 93.7264 53.1387 93.666 53.006 93.6362 C 53.0006 93.6344 52.5512 93.5288 52.396 93.1606 C 52.2001 92.6985 51.6676 92.4927 51.2128 92.6813 C 50.7516 92.8763 50.5377 93.4069 50.7317 93.8654 C 50.8978 94.2607 51.1388 94.5477 51.3915 94.7697 C 51.2362 95.0675 51.1857 95.4222 51.2886 95.7661 C 51.4601 96.3563 52.0025 96.7426 52.5882 96.7426 C 52.7145 96.7426 52.8391 96.7236 52.9654 96.6875 C 57.0709 95.4908 61.2702 96.6316 61.3118 96.6451 C 62.0365 96.8428 62.7783 96.4249 62.9796 95.7038 C 63.1826 94.9827 62.7648 94.2372 62.0455 94.036 L 62.0455 94.036 L 62.0455 94.036 L 62.0455 94.036 L 62.0455 94.036 L 62.0455 94.036 L 62.0455 94.036 L 62.0455 94.036 Z " stroke-width="0.9024999737739563"/>
    </g>
  </g>
</svg>