<svg version="1.1" xmlns="http://www.w3.org/2000/svg" xmlns:xlink="http://www.w3.org/1999/xlink" width="119.40107" height="257.47213" viewBox="0,0,119.40107,257.47213"><g transform="translate(-184.46613,-46.26393)"><g data-paper-data="{&quot;isPaintingLayer&quot;:true}" fill-rule="evenodd" stroke-miterlimit="10" stroke-dasharray="" stroke-dashoffset="0" style="mix-blend-mode: normal"><path d="M228.24796,174.61569c6.504,0.33548 12.832,4.32929 12.296,14.37771c-0.424,4.60087 -3.472,28.82731 -5.336,38.34056c-0.112,0.647 -1.976,8.03554 -8.664,7.78793c-8.312,-0.30353 -8.824,-7.52433 -9.48,-8.16334c0.312,-13.38724 1.248,-29.67399 1.56,-43.06124c2.2,-5.05616 5.152,-9.49728 9.624,-9.28161z" data-paper-data="{&quot;origPos&quot;:null}" id="Path" fill="#36445e" stroke="none" stroke-width="1" stroke-linecap="butt" stroke-linejoin="miter"/><path d="M255.57596,182.92281c2.616,13.13963 6.2,29.05895 8.8,42.19059c-0.528,0.75084 0.208,8.00359 -7.936,9.66502c-7.52,1.5496 -8.64,-5.63926 -9.6,-6.23833c-2.4,-8.28316 -14.112,-36.46347 -15.32,-40.92056c-1.712,-5.23189 4.376,-10.18421 10.72,-11.62198c4.368,-0.99046 10.288,-1.15022 13.336,6.92526z" data-paper-data="{&quot;origPos&quot;:null}" id="Path" fill="#36445e" stroke="none" stroke-width="1" stroke-linecap="butt" stroke-linejoin="miter"/><g stroke="none" stroke-width="1" stroke-linecap="butt" stroke-linejoin="miter"><path d="M251.63996,106.15383l14.616,36.51139c1.52,4.93635 -3.584,7.33263 -3.584,7.33263c-3.016,1.14223 -5.864,-0.75084 -7.112,-3.72223l-15.696,-33.46811c-4.224,-10.46378 1.824,-12.1891 1.824,-12.1891c2.552,-1.27003 7.816,0.95851 9.952,5.53542z" id="Path" fill="#705347"/><g id="Group-18"><path d="M237.90396,94.7555c11.52,-2.39628 16.632,11.61399 20.68,25.56037l-14.872,7.98762c-19.672,-31.18365 -5.808,-33.6039 -5.808,-33.54799z" id="Path" fill="#6373ba"/><path d="M259.87996,121.60188l-16.832,9.32954l-0.848,-3.74619l16.8,-9.56118z" id="Path" fill="#e4b34e"/></g></g><g id="Group-9" stroke="none" stroke-width="1" stroke-linecap="butt" stroke-linejoin="miter"><path d="M247.03196,125.35606c-1.104,-0.01598 -25.192,-20.22464 -26.056,-23.78712c-0.8,-3.30687 -2.312,-4.23344 4.888,-6.82142l2.056,-11.98142h12.8l1.376,11.64594c1.704,1.6774 4.368,8.65059 4.368,7.92372c0,3.96985 1.896,23.06025 0.568,23.02031z" id="Path" fill="#63493e"/><path d="M225.86396,94.74751l2.056,-11.98142h12.8l1,8.49084c-5.84,-1.73331 -12.416,0.5192 -15.856,3.49059z" id="Path" fill="#49352c"/></g><path d="M256.75996,188.24256c0.504,4.50502 -17.96,-1.71734 -21.728,-1.76526c-3.936,-0.03994 -13.112,6.90929 -17.008,5.06415c0,-7.0291 -1.8,-24.4421 2.448,-31.84663h29.424c2.544,5.56737 5.832,19.21022 6.864,28.54774z" id="Path" fill="#36445e" stroke="none" stroke-width="1" stroke-linecap="butt" stroke-linejoin="miter"/><g id="Group-8" stroke="none" stroke-width="1" stroke-linecap="butt" stroke-linejoin="miter"><path d="M239.53596,211.79804c-1.16,-0.15975 -16.896,-3.5465 -23.296,-0.67895c-1.344,-19.57765 -2.328,-30.54464 1.056,-51.05684c1.80883,-10.05826 1.9116,-20.34853 0.304,-30.4408l-0.328,-32.42972l8.664,-2.97139c9.152,13.85053 16.256,27.62916 16.256,27.62916c1.12511,-9.25891 1.07404,-18.62266 -0.152,-27.86879c0,-0.03994 3.024,4.98427 3.024,4.98427c0,0 6.576,10.67944 4.08,35.8644c0.184,11.69387 0.632,14.40167 2.024,20.95152c3.464,16.22285 4.8,17.70854 10.4,45.28978c-0.328,0.13579 -5.256,13.01981 -22.032,10.72737z" id="Path" fill="#7390e1"/><path d="M242.01596,93.98869c0,0 1.496,2.16464 2.136,3.41071c0.44,4.85647 0.056,14.55344 -1.72,26.83839c-4.744,-6.05461 -10.256,-16.94972 -18.752,-29.2187c0.192,-0.10384 2.208,-0.79876 2.208,-0.79876c6.904,8.8982 11.976,19.25814 15.352,24.52997c1.16,-14.4496 1.32,-17.88427 0.776,-24.76161z" id="Path" fill="#e4b34e"/></g><path d="M241.23996,89.52361h-3.76c-2.944,0 -13.768,-6.75752 -14.888,-11.34241l-3.112,-14.84898c0,-6.92526 7.768,-12.58848 14.704,-12.58848h0.416c6.936,0 15.504,5.66322 15.504,12.58848c0.192,1.84514 -0.8,4.36923 -1.288,7.85183c0.224,3.88198 0.8,4.0657 -0.352,7.37257c-0.448,1.34192 -3.736,10.967 -7.224,10.967z" id="Path" fill="#705347" stroke="none" stroke-width="1" stroke-linecap="butt" stroke-linejoin="miter"/><path d="M240.74396,77.79779l-1.12,0.55115c-0.57585,0.27917 -1.24815,0.27917 -1.824,0l-1.12,-0.55115" id="Path" fill="none" stroke="#2d2119" stroke-width="0.784" stroke-linecap="round" stroke-linejoin="round"/><path d="M242.75996,81.39221c-2.696,2.54006 -7.688,0.74285 -7.688,0.74285" id="Path" fill="none" stroke="#453226" stroke-width="0.776" stroke-linecap="round" stroke-linejoin="round"/><path d="M249.30396,63.33222c0,0 -0.5943,-7.15989 -12.512,-6.38211c-12.848,0.3195 -12.592,12.10124 -12.592,12.10124l-3.4,0.52718l-1.32,-6.24632c0,-6.92526 7.768,-12.58848 14.704,-12.58848h0.416c6.936,0 14.704,5.66322 14.704,12.58848z" data-paper-data="{&quot;origPos&quot;:null}" id="Path" fill="#412d20" stroke="none" stroke-width="1" stroke-linecap="butt" stroke-linejoin="miter"/><g id="Group-3" stroke="none" stroke-width="1" stroke-linecap="butt" stroke-linejoin="miter"><path d="M234.29596,47.84423c0,0 3.408,-3.92192 8.84,0.59108c0,0 3.4,0.11981 3.408,2.3244c0,0 4,-1.59752 4.208,1.03839c0,0 3.472,1.38186 0,5.52743c0,0 4.2,0.79876 2.072,3.45065c0,0 1.056,2.89152 -2.32,4.1296c0,0 -4.224,1.34991 -5.872,-2.56402c0,0 -2.52,0.67096 -2.288,-1.59752c0,0 -2.992,0.10384 -3.064,-2.09276c0,0 0,-1.74929 -3.576,-0.86266c0,0 -3.144,1.04638 -3.096,-2.30043c0,0 -0.152,-1.81319 1.464,-1.81319c0,0 -1.792,-0.59108 -1.48,-2.19659c0.12549,-1.37297 0.72835,-2.65877 1.704,-3.63437z" id="Path" fill="#412d20"/><path d="M252.11996,53.2199c0.44157,1.27637 0.17042,2.69089 -0.712,3.71424c-1.176,1.22211 -3.768,0.5831 -3.768,0.5831c4.2,0.23963 4.704,-3.42669 4.48,-4.29734z" id="Path" fill="#281309"/><path d="M232.49596,51.7342c0.744,2.43622 3.144,1.22211 3.144,1.22211c-0.39594,0.47217 -0.98327,0.74192 -1.6,0.73486c-0.91776,-0.19877 -1.56534,-1.01956 -1.544,-1.95697z" id="Path" fill="#281309"/><path d="M242.26396,60.76021c-0.456,0 -2.92,-0.10384 -2.984,-2.09276v-0.1278c0.592,1.50167 2.928,1.4218 2.928,1.4218c-0.03737,0.26724 -0.0183,0.53933 0.056,0.79876z" id="Path" fill="#281309"/><path d="M239.27996,58.53166c-0.272,-0.51121 -1,-1.16619 -3.472,-0.36743c0,0 -2.88,0.75882 -3.088,-2.20458c0.256,2.37232 2.984,1.83715 2.984,1.83715c3.736,-1.16619 3.536,0.43133 3.536,0.43133c0.008,0.11981 0.024,0.21567 0.04,0.30353z" id="Path" fill="#281309"/><path d="M250.51196,64.85786c0,0 -4.856,1.38985 -6.456,-2.30842c-0.45891,0.11212 -0.9435,-0.01443 -1.28867,-0.33652c-0.34517,-0.32209 -0.50436,-0.79628 -0.42333,-1.261c0.512,1.00644 2.16,0.57511 2.16,0.57511c1.16,3.21901 5.6,1.8052 5.6,1.8052c2.728,-0.63102 2.512,-3.68229 2.512,-3.68229c0.328,-0.42334 1.488,4.22545 -2.104,5.20793z" id="Path" fill="#281309"/><path d="M245.59196,56.35903c-0.22448,0.36265 -0.62102,0.58339 -1.048,0.58339c-0.42698,0 -0.82352,-0.22074 -1.048,-0.58339c0,0 -1.232,0.37542 -1.736,-0.08786c-0.38638,-0.4814 -0.58781,-1.08477 -0.568,-1.70136c0,0 0.872,1.90904 2.304,0.87864c0.1534,0.40112 0.46205,0.7237 0.85637,0.89501c0.39432,0.17131 0.84111,0.17692 1.23963,0.01557z" id="Path" fill="#281309"/><path d="M237.50611,49.62876c0.21744,0.31015 0.56358,0.50563 0.94185,0.53188c0.864,-0.04793 0.736,-0.75084 0.736,-0.75084c0.744,0.94254 1.384,0.22365 1.384,0.22365c-0.416,0.79876 -1.16,0.19969 -1.16,0.19969c-0.06759,0.43161 -0.4425,0.74809 -0.88,0.74285c-2,-0.11183 -1.2,-2.01288 -1.2,-2.01288c-0.10476,0.36385 -0.03929,0.75549 0.17815,1.06564z" id="Path" fill="#281309"/></g><g stroke="none" stroke-width="1" stroke-linecap="butt" stroke-linejoin="miter"><path d="M256.51996,140.82009c2.45468,-2.17243 6.13742,-2.20651 8.632,-0.07988l25.392,27.5413c0.904,0.98248 0.664,2.75573 -0.232,3.7382c-1.22167,1.34989 -3.28694,1.51121 -4.704,0.36743l-28.8,-24.03474c-2.104,-2.43622 -2.656,-5.34372 -0.288,-7.53232z" id="Path" fill="#705347"/><g id="Group-17" fill="#705347"><path d="M291.88794,174.95117l7.024,7.4844c0.41105,0.43971 0.38961,1.12824 -0.048,1.54161c-0.42637,0.41813 -1.10963,0.41813 -1.536,0l-7.408,-6.94124c-0.416,-0.43133 -0.152,-1.50167 0.288,-1.91703c0.4401,-0.46569 1.15626,-0.53719 1.68,-0.16774z" id="Path"/><path d="M294.97595,173.88882l7.424,7.41251c0.46262,0.46685 0.46262,1.21854 0,1.68539c-0.46757,0.46191 -1.22043,0.46191 -1.688,0l-7.872,-6.94124c-0.472,-0.44731 -0.064,-1.57356 0.4,-2.04483c0.45687,-0.49216 1.21958,-0.54129 1.736,-0.11183z" id="Path"/><path d="M287.80796,174.15241l6.168,8.17133c0.32025,0.37426 0.2811,0.9357 -0.088,1.26204c-0.37335,0.32421 -0.93924,0.28487 -1.264,-0.08786l-6.76,-7.74c-0.32671,-0.37064 -0.29091,-0.93548 0.08,-1.26204c0.376,-0.32749 1.544,-0.7109 1.864,-0.34347z" id="Path"/><path d="M296.55995,172.01173l6.984,6.5818c0.40467,0.37141 0.43325,0.99929 0.064,1.40582c-0.36971,0.4064 -0.99869,0.43851 -1.408,0.07189l-7.296,-6.27827c-0.408,-0.36743 -0.12,-1.30997 0.248,-1.71734c0.37394,-0.39983 0.99927,-0.42821 1.408,-0.0639z" id="Path"/><path d="M301.12796,171.08516c-0.192,0.79876 -1.968,1.25406 -2.992,0.98248l-9.28,-2.52409c-0.68775,-0.76916 -0.75723,-1.90896 -0.168,-2.75573c0.416,-0.28755 1.408,-1.30198 3.664,-0.36743l6.096,3.27492c0.63999,0.62185 1.50769,0.95395 2.4,0.91858c0.216,-0.02396 0.328,0.23963 0.28,0.47127z" id="Path"/><path d="M286.35996,168.18566c2.032,-2.0608 5.728,-2.39628 7.792,-0.40737l0.936,0.91059c2.06275,2.04079 2.09133,5.36059 0.064,7.43647l-0.704,0.7109c-2.04026,2.06828 -5.37244,2.09687 -7.448,0.0639l-0.96,-0.91059c-2.04,-2.02885 -1.712,-5.7431 0.32,-7.8039z" id="Path"/></g><g id="Group-16"><path d="M280.62396,165.91717l2.096,1.63746l-1.248,1.54161l-2.208,-1.49368z" id="Path" fill="#ffabe2"/><path d="M285.08796,164.61519l-2.368,2.93944l-2.096,-1.63746l2.368,-2.93146z" id="Path" fill="#ededed"/><path d="M285.08796,164.58324c-0.5005,0.2682 -1.11184,0.21944 -1.56335,-0.12469c-0.45151,-0.34413 -0.6598,-0.92007 -0.53265,-1.47283l1.496,-1.86111l1.904,1.87709z" id="Path" fill="#7be3f2"/><path d="M285.23194,164.4155c-0.04,0.05591 -0.072,0.11981 -0.12,0.17573c-0.46171,0.57128 -1.29983,0.66069 -1.872,0.19969c-0.57217,-0.461 -0.66171,-1.29782 -0.2,-1.8691l0.152,-0.15176c-0.18306,0.55208 -0.00465,1.15965 0.448,1.52563c0.45538,0.3633 1.08722,0.41085 1.592,0.11981z" id="Path" fill="#6ecdd9"/></g></g><g stroke="none" stroke-width="1" stroke-linecap="butt" stroke-linejoin="miter"><path d="M216.73596,101.10566c3.7906,1.54722 5.91977,5.59008 5.048,9.58514l-12.8,40.32149c-0.856,3.0992 -3.432,5.35969 -6.568,4.60885c0,0 -5.376,-1.71734 -4.512,-6.79746l11.136,-40.65697c0.776,-4.32929 4.872,-8.30712 7.696,-7.06105z" id="Path" fill="#705347"/><path d="M223.08796,100.45866c3.008,4.89641 -3.76,26.46297 -5.448,30.99994l-14.104,-7.93969c2.232,-11.77375 10.768,-35.61678 19.552,-23.06025z" id="Path" fill="#6373ba"/><path d="M202.93596,120.3638l16.296,9.24966l-1.056,3.69028l-15.616,-9.07393z" id="Path" fill="#e4b34e"/></g><g fill="#705347" stroke="none" stroke-width="1" stroke-linecap="butt" stroke-linejoin="miter"><g id="Group-2"><path d="M195.48302,183.9756c1.27615,0.39531 2.17963,1.5306 2.27694,2.86114c0.496,3.45864 -2.536,7.81988 -2.536,7.81988c-0.768,1.23009 -0.488,1.59752 -0.488,1.59752c0.032,1.15022 -0.336,5.23189 -0.336,5.23189c1.16,0.81474 1.24,1.51765 1.24,1.51765c2.232,1.27003 1.136,2.6439 1.136,2.6439c-0.81568,-0.17159 -1.60795,-0.43974 -2.36,-0.79876c-0.68408,0.26726 -1.44392,0.26726 -2.128,0c-1.40159,-0.47227 -2.69192,-1.22515 -3.792,-2.21257c-3.936,-7.49238 -0.28,-11.23858 -0.28,-11.23858l3.768,-6.35015c0.8345,-1.0419 2.22291,-1.46723 3.49906,-1.07192z" id="Path"/><path d="M196.67996,200.31984c-1.6,0.22365 -1.936,-1.59752 -1.984,-2.73176l-0.544,-11.55808c0.56456,-0.95201 1.7085,-1.39435 2.768,-1.07034c1.22673,1.31199 1.83239,3.08548 1.664,4.87245l-1.344,7.30068c-0.4353,0.8567 -0.49044,1.85649 -0.152,2.75573c0.08,0.19969 -0.184,0.41536 -0.408,0.43133z" id="Path"/></g><path d="M208.81773,151.00614l-10.776,35.88836c-0.55665,1.72929 -2.36559,2.72687 -4.128,2.27647c-1.288,-0.32749 -2.464,-1.6774 -2.248,-2.99536l5.984,-36.93474c0.9151,-3.14568 4.00774,-5.1407 7.256,-4.68074c3.176,0.52718 4.328,3.25895 3.912,6.44601z" id="Path"/></g><g><g id="Group-13" stroke="none" stroke-width="1" stroke-linecap="butt" stroke-linejoin="miter"><path d="M261.23908,225.19647c1.25362,0.79817 2.12217,2.07712 2.40088,3.53532l12.712,62.8226c0.11962,1.92511 -1.13458,3.66825 -3,4.16954h-0.056c-1.14212,0.30789 -2.36195,0.10256 -3.33984,-0.56218c-0.9779,-0.66474 -1.61638,-1.72263 -1.74816,-2.89646l-18.04,-60.25059c-0.816,-2.93944 3.88,-6.70161 6.848,-7.50037c1.44173,-0.36281 2.9695,-0.11603 4.22312,0.68214z" id="Path" fill="#705347"/><path d="M269.23996,278.37482c0,0 -4.696,1.59752 -6.04,-1.98093l-16.36,-47.85381c-1.016,-3.99381 0.616,-10.28805 4.856,-11.36638c7.736,-3.07523 11.712,3.99381 12.72,7.93969l8.88,50.01845c0.2,1.31796 -0.856,2.17263 -4.056,3.24297z" id="Path" fill="#36445e"/></g><g id="Group-10"><path d="M297.27994,290.79555l0.52,1.70935c0,0 0.608,2.13269 0,2.31641l-26.744,8.07548c-0.59806,0.01207 -1.13921,-0.3524 -1.352,-0.91059c-0.432,-0.97449 -2.456,-9.58514 -2.456,-9.58514l-1.84,-6.24632l5.752,-1.87709l2.024,2.18861c-0.37172,-1.18555 0.22563,-2.45815 1.376,-2.93146c0,0 2.12,-1.19814 3.12,3.99381l0.36,1.32594l1.208,2.11672l12.392,-2.4522c0,0 3.648,-0.61505 5.64,2.27647z" id="Path" fill="#eda68c" stroke="none" stroke-width="1" stroke-linecap="butt" stroke-linejoin="miter"/><path d="M297.85596,294.8373l-18.4,5.59133l-8.464,2.54006c-0.60159,0.00948 -1.14495,-0.35752 -1.36,-0.91858c-0.216,-0.49523 -0.512,-1.6135 -0.848,-2.59598l9.656,-2.65189l18.88,-6.02266l0.528,1.72533c0,0 0.696,2.10074 0.008,2.33238z" id="Path" fill="#cfd6d4" stroke="none" stroke-width="1" stroke-linecap="butt" stroke-linejoin="miter"/><path d="M297.35194,290.80355l-5.56,1.68539l-1.144,-3.75418l0.992,-0.22365c0,0 3.64,-0.61505 5.712,2.29245z" id="Path" fill="#e5e8e9" stroke="none" stroke-width="1" stroke-linecap="butt" stroke-linejoin="miter"/><path d="M297.52796,291.25086l-19.096,5.78303l-9.56,2.87554l-0.16,-0.48724l9.576,-2.87554l19.088,-5.78303z" id="Path" fill="#545c59" stroke="none" stroke-width="1" stroke-linecap="butt" stroke-linejoin="miter"/><path d="M277.14395,285.64355l-1.328,5.04817l3.432,0.27957l1.416,1.56557l2.976,-2.22854l2.616,0.68693l2.352,-1.79721l0.384,1.24607l-2.848,-0.69492l-2.624,1.90105l-2.112,-0.84669l-3.56,2.40427l0.152,-4.35325l-4.376,-1.70935" id="Path" fill="none" stroke="#f0ded3" stroke-width="0.5" stroke-linecap="round" stroke-linejoin="round"/><path d="M272.07996,283.90225l5.544,9.11387l13.336,-3.14712l0.232,0.74285l-13.88,3.227l-6.152,-9.57715z" id="Path" fill="#ce7d71" stroke="none" stroke-width="1" stroke-linecap="butt" stroke-linejoin="miter"/></g></g><g><g id="Group-14" stroke="none" stroke-width="1" stroke-linecap="butt" stroke-linejoin="miter"><path d="M198.07996,287.32095c-0.44148,1.09655 -1.34068,1.94584 -2.46175,2.32509c-1.12106,0.37925 -2.35212,0.25062 -3.37025,-0.35215h-0.048c-1.65166,-0.97797 -2.39235,-2.97674 -1.776,-4.79257l30.112,-59.54768c1.416,-2.78768 6.272,-3.04328 8.888,-1.51765c2.616,1.52563 4.8,5.66322 3.2,8.28316z" id="Path" fill="#705347"/><path d="M197.43996,269.31685l20.424,-46.49591c1.96,-3.6104 7.552,-9.44136 14.296,-4.55294c3.84,2.09276 3.848,8.61065 1.88,12.21307l-27.552,42.92545c-2.384,2.27647 -5.744,0.32749 -5.744,0.32749c-2.952,-1.43777 -3.888,-3.12316 -3.304,-4.41715z" id="Path" fill="#36445e"/></g><g id="Group-12"><path d="M210.28796,300.82801l-1.04,1.46173c0,0 -1.336,1.75728 -1.848,1.39783l-8,-2.84359l-14.584,-9.91263c-0.37609,-0.46968 -0.41766,-1.12411 -0.104,-1.63746c0.528,-0.94254 6.288,-8.63461 6.288,-8.63461l2.336,-5.34372l5.6,3.75418l-0.592,2.65988c0.56,-0.97449 1.424,-1.84514 2.6,-1.27802c0,0 2.192,0.85467 -0.704,5.49548l-0.8,1.49368l-0.672,2.60396l3.528,5.91084l4.968,1.63746c0,0 4.064,-0.13579 3.024,3.23498z" id="Path" fill="#eda68c" stroke="none" stroke-width="1" stroke-linecap="butt" stroke-linejoin="miter"/><path d="M184.68796,289.26993c0.256,-0.47127 0.96,-1.38985 1.528,-2.25251l14.04,12.78019l10.088,1.0304l-1.04,1.46972c0,0 -0.704,1.33393 -1.856,1.39783l-9.096,-0.34347l-13.6,-12.46068c-0.35622,-0.47489 -0.38168,-1.12008 -0.064,-1.62149z" id="Path" fill="#cfd6d4" stroke="none" stroke-width="1" stroke-linecap="butt" stroke-linejoin="miter"/><path d="M201.06396,284.4534l-4.44,2.43622l2.144,3.15511l-0.824,2.57201l3.12,1.27003l0.752,3.71424l4.192,-0.42334l-1.072,1.74929l-2.176,-2.81963l-3.176,-1.38985l0.136,-3.08322l-3.544,-1.56557l3.264,-2.62793l-1.816,-4.80854" id="Path" fill="none" stroke="#f0ded3" stroke-width="0.5" stroke-linecap="round" stroke-linejoin="round"/><path d="M198.92796,279.06974l-2.472,10.79127l5.536,7.43647l4.8,1.87709l-0.448,0.63102l-4.776,-1.8691l-5.96,-7.81189l2.672,-11.49418z" id="Path" fill="#ce7d71" stroke="none" stroke-width="1" stroke-linecap="butt" stroke-linejoin="miter"/><path d="M210.28796,300.836l-4.712,-0.04793l1.688,-3.19505l0.944,-0.18372c0,0 3.128,0.03994 2.08,3.42669z" id="Path" fill="#e5e8e9" stroke="none" stroke-width="1" stroke-linecap="butt" stroke-linejoin="miter"/><path d="M210.05596,301.27531l-10.128,-1.07833l-14.088,-12.82811l0.288,-0.42334l14.096,12.84409l10.128,1.07034z" id="Path" fill="#545c59" stroke="none" stroke-width="1" stroke-linecap="butt" stroke-linejoin="miter"/></g></g><g stroke="none" stroke-width="1" stroke-linecap="butt" stroke-linejoin="miter"><path d="M224.19996,74.63469c-0.00338,0.34634 -0.15474,0.67475 -0.416,0.9026c-1.232,0.73486 -3,0.07189 -3.92,-1.46972l-1.6,-2.6439c-0.92,-1.54161 -0.664,-3.40272 0.576,-4.13759c0.71545,-0.39455 1.56812,-0.45627 2.33309,-0.16889c0.76497,0.28738 1.3654,0.895 1.64291,1.66257l0.136,0.48724c-0.528,0.16774 -0.888,1.24607 -0.568,2.30043c0.1406,0.45463 0.38112,0.87216 0.704,1.22211l0.112,0.10384c0.5801,0.39941 0.94779,1.03967 1,1.7413z" data-paper-data="{&quot;origPos&quot;:null}" id="Path" fill="#705347"/><path d="M220.7347,74.0892l1.0747,-0.10672l0.3658,3.67216l-1.0747,0.10672z" data-paper-data="{&quot;origPos&quot;:null}" id="Rectangle" fill="#f17d70"/></g><g data-paper-data="{&quot;origPos&quot;:null}" id="Group-6" stroke="none" stroke-width="1" stroke-linecap="butt" stroke-linejoin="miter"><path d="M235.00875,68.51913c0.07599,0.08981 0.10752,0.20897 0.08588,0.32453c-0.29135,1.4657 -1.5794,2.52158 -3.076,2.52158c-1.4966,0 -2.78465,-1.05589 -3.076,-2.52158c-0.01869,-0.11509 0.01393,-0.23259 0.08929,-0.32165c0.07536,-0.08906 0.18594,-0.1408 0.30271,-0.14163h5.368c0.11773,-0.002 0.23013,0.04894 0.30612,0.13875z" id="Path" fill="#ffffff"/><path d="M235.0019,68.51142c0.07507,0.08719 0.10886,0.20244 0.09273,0.31628c-0.17899,1.07153 -0.92645,1.96159 -1.952,2.3244c-0.555,-0.17252 -0.99637,-0.59571 -1.19147,-1.14242c-0.19511,-0.54671 -0.12121,-1.15321 0.19947,-1.63727h2.552c0.11515,0.00117 0.2242,0.05182 0.29927,0.13901z" id="Path" fill="#2e221a"/></g><g data-paper-data="{&quot;origPos&quot;:null}" id="Group-5" stroke="none" stroke-width="1" stroke-linecap="butt" stroke-linejoin="miter"><path d="M247.28075,68.4153c0.07599,0.08981 0.10752,0.20897 0.08588,0.32453c-0.29135,1.4657 -1.5794,2.52158 -3.076,2.52158c-1.4966,0 -2.78465,-1.05589 -3.076,-2.52158c-0.01869,-0.11509 0.01393,-0.23259 0.08929,-0.32165c0.07536,-0.08906 0.18594,-0.1408 0.30271,-0.14163h5.368c0.11773,-0.002 0.23013,0.04894 0.30612,0.13875z" id="Path" fill="#ffffff"/><path d="M247.27716,68.41276c0.07567,0.08789 0.10844,0.20474 0.08947,0.31908c-0.17899,1.07153 -0.92645,1.96159 -1.952,2.3244c-0.555,-0.17252 -0.99637,-0.59571 -1.19147,-1.14242c-0.19511,-0.54671 -0.12121,-1.15321 0.19947,-1.63727h2.552c0.11607,-0.00156 0.22686,0.04833 0.30253,0.13621z" id="Path" fill="#2e221a"/></g><path d="M235.42396,66.3755c0,0.32203 -0.26147,0.5831 -0.584,0.5831h-6.112c-0.32253,0 -0.584,-0.26106 -0.584,-0.5831c0,-0.32203 0.26147,-0.5831 0.584,-0.5831l6.112,-0.27158c0.32,0 0.544,0.53517 0.584,0.85468z" data-paper-data="{&quot;origPos&quot;:null}" id="Path" fill="#231607" stroke="none" stroke-width="1" stroke-linecap="butt" stroke-linejoin="miter"/><path d="M247.55196,66.3755c0,0.32203 -0.26147,0.5831 -0.584,0.5831h-6.088c-0.15489,0 -0.30343,-0.06143 -0.41295,-0.17078c-0.10952,-0.10935 -0.17105,-0.25766 -0.17105,-0.41231c0,-0.3195 0.232,-0.85468 0.552,-0.85468l6.12,0.27158c0.32253,0 0.584,0.26106 0.584,0.5831z" data-paper-data="{&quot;origPos&quot;:null}" id="Path" fill="#231607" stroke="none" stroke-width="1" stroke-linecap="butt" stroke-linejoin="miter"/></g></g></svg>