<svg xmlns="http://www.w3.org/2000/svg" xmlns:xlink="http://www.w3.org/1999/xlink" version="1.1" width="104.36378479003906" height="82.3550033569336" viewBox="-0.32578611373901367 -0.023999959230422974 104.36378479003906 82.3550033569336">
  <!-- Exported by Scratch - http://scratch.mit.edu/ -->
  <g id="ID0.5183879351243377">
    <g id="Page-1">
      <g id="fox-c-[animals,mammal,robert-hunter]">
        <g id="Group-2">
          <path id="Fill-1" fill="#D9824C" stroke="none" stroke-width="1" d="M 2.707 69.237 C 2.707 69.237 -3.593 56.097 3.679 43.179 C 10.455 31.142 34.895 27.909 38.897 16.014 C 41.711 7.649 40.125 0.476 40.125 0.476 C 40.125 0.476 63.864 26.064 39.229 45.341 C 28.271 54.744 8.348 48.359 2.707 69.237 "/>
          <path id="Fill-3" fill="#F5CEB8" stroke="none" stroke-width="1" d="M 37.751 18.418 L 38.973 18.139 L 38.338 19.486 L 39.756 18.727 L 39.608 20.402 L 40.673 19.38 L 40.841 21.114 L 42.13 19.991 L 42.186 21.731 L 43.568 20.496 L 43.811 22.434 L 44.782 21.319 L 45.137 23.171 L 46.052 21.637 L 46.994 23.169 L 47.715 21.544 L 48.854 23.033 L 49.209 21.431 L 50.415 22.769 C 50.415 22.769 49.863 11.624 40.125 0.476 C 41.744 12.398 37.751 18.418 37.751 18.418 "/>
          <path id="Stroke-5" fill="none" stroke="#80432F" stroke-width="0.5" d="M 2.707 69.237 C 2.707 69.237 -3.593 56.097 3.679 43.179 C 10.455 31.142 34.895 27.909 38.897 16.014 C 41.711 7.649 40.125 0.476 40.125 0.476 C 40.125 0.476 63.864 26.064 39.229 45.341 C 28.271 54.744 8.348 48.359 2.707 69.237 Z "/>
        </g>
        <g id="Group-10">
          <path id="Fill-7" fill="#BF6C46" stroke="none" stroke-width="1" d="M 67.6 68.196 C 67.6 68.196 68.829 69.838 68.133 71.235 C 67.436 72.631 61.863 81.75 61.863 81.75 L 103.538 81.75 C 103.538 81.75 100.537 76.401 99.189 76.777 C 97.228 77.323 95.818 77.773 94.619 78.072 C 93.189 78.57 76.906 75.638 76.906 75.638 L 82.031 65.752 "/>
          <path id="Stroke-9" fill="none" stroke="#80432F" stroke-width="0.5" d="M 67.6 68.196 C 67.6 68.196 68.829 69.838 68.133 71.235 C 67.436 72.631 61.863 81.75 61.863 81.75 L 103.538 81.75 C 103.538 81.75 100.537 76.401 99.189 76.777 C 97.228 77.323 95.818 77.773 94.619 78.072 C 93.189 78.57 76.906 75.638 76.906 75.638 L 82.031 65.752 "/>
          <path id="Fill-11" fill="#80432F" stroke="none" stroke-width="1" d="M 100.466 81.774 C 100.466 81.774 100.465 81.712 100.452 81.622 C 100.444 81.532 100.42 81.396 100.388 81.232 C 100.354 81.068 100.299 80.88 100.236 80.679 C 100.155 80.486 100.094 80.265 99.979 80.07 C 99.927 79.969 99.874 79.868 99.823 79.769 C 99.775 79.667 99.701 79.585 99.643 79.494 C 99.519 79.321 99.417 79.145 99.29 79.028 C 99.054 78.775 98.897 78.607 98.897 78.607 C 98.897 78.607 99.073 78.758 99.337 78.983 C 99.479 79.088 99.601 79.252 99.749 79.415 C 99.818 79.499 99.904 79.577 99.965 79.675 C 100.03 79.771 100.095 79.868 100.16 79.966 C 100.303 80.157 100.392 80.377 100.501 80.572 C 100.591 80.775 100.672 80.968 100.728 81.139 C 100.783 81.309 100.826 81.454 100.848 81.563 C 100.875 81.672 100.881 81.725 100.881 81.725 L 100.466 81.774 Z "/>
        </g>
        <g id="Group-5">
          <path id="Stroke-13" fill="none" stroke="#80432F" stroke-width="0.5" d="M 74.268 43.483 C 74.268 43.483 74.337 45.474 78.099 45.828 C 79.858 45.994 82.425 45.801 86.172 44.879 C 97.927 41.987 100.118 41.189 100.118 41.189 C 100.118 41.189 103.754 39.742 102.708 35.901 L 91.85 35.901 C 91.85 35.901 88.314 32.011 86.371 30.615 L 77.007 30.615 L 75.314 22.434 C 75.314 22.434 65.501 47.174 61.218 52.511 "/>
          <path id="Fill-17" fill="#D9824C" stroke="none" stroke-width="1" d="M 13.179 52.511 C 18.229 50.206 36.514 56.989 49.491 55.464 C 50.367 55.361 52.569 53.434 53.748 52.686 C 54.868 51.975 62.094 50.863 62.608 49.884 C 63.604 47.99 75.314 22.434 75.314 22.434 L 76.901 30.615 L 86.266 30.615 C 88.208 32.011 91.745 35.901 91.745 35.901 L 102.602 35.901 C 103.648 39.742 100.013 41.189 100.013 41.189 C 100.013 41.189 97.858 42.14 86.066 44.879 C 84.081 45.341 84.911 44.955 83.452 45.341 C 83.464 45.342 88.489 62.225 76.525 73.481 C 74.812 75.093 67.475 79.659 56.263 81.604 L 8.546 81.791 C 8.546 81.791 1.15 70.306 2.831 66.864 C 2.831 66.864 7.301 55.193 13.179 52.511 "/>
        </g>
        <g id="Group-6">
          <path id="Fill-21" fill="#F5CEB8" stroke="none" stroke-width="1" d="M 73.418 33.491 L 75.363 23.481 L 77.007 30.615 L 73.418 33.491 "/>
          <path id="Stroke-23" fill="none" stroke="#80432F" stroke-width="0.5" d="M 76.997 30.615 L 73.197 33.668 L 75.289 23.032 "/>
        </g>
        <g id="Group-4">
          <path id="Stroke-15" fill="none" stroke="#80432F" stroke-width="0.5" d="M 79.398 30.615 L 84.093 23.032 L 84.093 30.615 "/>
          <path id="Fill-19" fill="#D9824C" stroke="none" stroke-width="1" d="M 79.398 30.615 L 84.093 23.032 L 84.093 30.615 "/>
          <path id="Stroke-25" fill="none" stroke="#80432F" stroke-width="0.5" d="M 81.527 30.615 L 83.877 23.669 "/>
          <path id="Fill-33" fill="#F5CEB8" stroke="none" stroke-width="1" d="M 81.527 30.615 C 81.577 30.54 83.905 23.881 83.905 23.881 L 84.093 30.615 L 81.527 30.615 Z "/>
          <path id="Stroke-37" fill="none" stroke="#80432F" stroke-width="0.5" d="M 79.398 30.615 L 84.093 23.032 L 84.093 30.615 "/>
        </g>
        <g id="Group-3">
          <path id="Fill-27" fill="#232020" stroke="none" stroke-width="1" d="M 88.712 36.6 C 88.712 36.6 87.094 35.078 86.52 34.679 L 83.258 34.679 C 83.258 34.679 84.242 36.799 88.712 36.6 "/>
          <path id="Fill-39" fill="#80432F" stroke="none" stroke-width="1" d="M 88.769 36.58 C 87.983 36.022 87.24 35.414 86.512 34.789 L 86.608 34.825 C 85.81 34.834 85.014 34.823 84.217 34.804 C 83.42 34.775 82.623 34.748 81.826 34.679 C 82.623 34.61 83.42 34.584 84.217 34.554 C 85.014 34.536 85.81 34.525 86.608 34.533 L 86.665 34.533 L 86.704 34.57 C 87.417 35.212 88.115 35.87 88.769 36.58 "/>
        </g>
        <g id="Group-7">
          <path id="Fill-29" fill="#232020" stroke="none" stroke-width="1" d="M 103.027 38.008 C 103.01 38.08 99.95 37.75 99.95 35.704 L 102.839 35.704 C 102.839 35.704 103.315 36.8 103.027 38.008 "/>
          <path id="Fill-31" fill="#F5CEB8" stroke="none" stroke-width="1" d="M 80.047 45.865 C 80.047 45.865 79.573 65.792 68.366 70.556 C 57.669 75.102 43.468 77.534 43.468 77.534 L 46.501 81.79 C 46.501 81.79 67.158 82.426 77.062 73.002 C 87.56 63.012 83.479 45.458 83.479 45.458 L 80.047 45.865 Z "/>
          <path id="Stroke-35" fill="none" stroke="#80432F" stroke-width="0.5" d="M 74.268 43.483 C 74.268 43.483 74.337 45.474 78.099 45.828 C 79.858 45.994 82.425 45.801 86.172 44.879 C 97.927 41.987 100.118 41.189 100.118 41.189 C 100.118 41.189 103.754 39.742 102.708 35.901 L 91.85 35.901 C 91.85 35.901 88.314 32.011 86.371 30.615 L 77.007 30.615 L 75.314 22.434 C 75.314 22.434 65.751 44.253 62.549 49.965 C 62.022 51.059 56.414 51.652 53.748 52.686 C 52.687 53.098 51.244 55.043 49.716 55.428 C 42.262 57.303 15.419 50.382 12.767 52.511 C 6.679 57.4 3.137 65.021 2.586 67.984 C 2.532 72.289 8.546 81.791 8.546 81.791 L 46.5 81.791 C 46.5 81.791 43.886 76.964 42.391 76.964 C 41.618 76.964 38.057 78.386 38.057 78.386 C 38.057 78.386 27.598 79.059 24.535 77.376 "/>
          <path id="Stroke-45" fill="none" stroke="#80432F" stroke-width="0.5" d="M 80.047 45.865 C 80.047 45.865 79.573 65.792 68.366 70.556 C 57.669 75.102 43.468 77.534 43.468 77.534 L 46.501 81.79 C 46.501 81.79 67.158 82.426 77.062 73.002 C 87.56 63.012 83.479 45.458 83.479 45.458 L 80.047 45.865 Z "/>
        </g>
        <g id="Group">
          <path id="Stroke-41" fill="none" stroke="#80432F" stroke-width="0.5" d="M 20.725 56.577 C 20.725 56.577 36.34 56.353 36.34 63.273 C 36.34 70.194 25.804 77.854 25.804 77.854 "/>
          <path id="Stroke-43" fill="none" stroke="#80432F" stroke-width="0.5" d="M 11.386 77.077 C 11.386 77.077 8.061 81.791 10.975 81.791 "/>
          <path id="Fill-47" fill="#80432F" stroke="none" stroke-width="1" d="M 43.55 81.831 C 43.548 81.821 43.53 81.658 43.449 81.386 C 43.4 81.254 43.353 81.094 43.274 80.934 C 43.198 80.772 43.118 80.598 43.01 80.439 C 42.915 80.27 42.805 80.112 42.688 79.973 C 42.577 79.828 42.473 79.693 42.364 79.595 L 42.018 79.247 C 42.018 79.247 42.174 79.367 42.408 79.547 C 42.531 79.631 42.654 79.753 42.786 79.884 C 42.925 80.011 43.061 80.157 43.181 80.318 C 43.315 80.469 43.423 80.639 43.526 80.799 C 43.633 80.958 43.706 81.121 43.777 81.258 C 43.905 81.536 43.963 81.76 43.96 81.75 L 43.55 81.831 Z "/>
          <path id="Stroke-49" fill="none" stroke="#80432F" stroke-width="0.5" d="M 83.452 45.341 C 83.452 45.341 88.116 64.507 75.731 74.132 C 64.174 83.112 47.509 81.675 38.058 81.675 "/>
          <path id="Stroke-51" fill="none" stroke="#80432F" stroke-width="0.5" d="M 10.582 81.791 L 46.501 81.791 C 46.501 81.791 43.886 76.964 42.391 76.964 C 41.617 76.964 38.058 78.387 38.058 78.387 C 38.058 78.387 27.598 79.06 24.535 77.376 "/>
          <path id="Stroke-53" fill="none" stroke="#80432F" stroke-width="0.5" d="M 20.725 56.577 C 20.725 56.577 36.34 56.353 36.34 63.273 C 36.34 70.194 25.804 77.854 25.804 77.854 "/>
          <path id="Stroke-55" fill="none" stroke="#80432F" stroke-width="0.5" d="M 11.386 77.077 C 11.386 77.077 8.061 81.791 10.975 81.791 "/>
        </g>
        <g id="Group-60">
          <path id="Fill-57" fill="#D9824C" stroke="none" stroke-width="1" d="M 57.958 68.196 C 57.958 68.196 59.244 69.838 58.597 71.235 C 57.949 72.631 52.694 81.75 52.694 81.75 L 94.369 81.75 C 94.369 81.75 91.181 76.401 89.846 76.777 C 87.905 77.323 86.511 77.773 85.322 78.072 C 83.909 78.57 67.524 75.638 67.524 75.638 L 72.303 65.752 "/>
          <path id="Stroke-59" fill="none" stroke="#80432F" stroke-width="0.5" d="M 57.958 68.196 C 57.958 68.196 59.244 69.838 58.597 71.235 C 57.949 72.631 52.694 81.75 52.694 81.75 L 94.369 81.75 C 94.369 81.75 91.181 76.401 89.846 76.777 C 87.905 77.323 86.511 77.773 85.322 78.072 C 83.909 78.57 67.524 75.638 67.524 75.638 L 72.303 65.752 "/>
          <path id="Fill-61" fill="#80432F" stroke="none" stroke-width="1" d="M 91.298 81.781 C 91.298 81.781 91.294 81.718 91.278 81.628 C 91.268 81.536 91.238 81.399 91.199 81.234 C 91.158 81.07 91.098 80.879 91.026 80.678 C 90.939 80.484 90.869 80.263 90.748 80.068 C 90.692 79.967 90.636 79.866 90.582 79.766 C 90.529 79.665 90.453 79.582 90.393 79.492 C 90.262 79.32 90.154 79.144 90.024 79.027 C 89.781 78.775 89.618 78.607 89.618 78.607 C 89.618 78.607 89.799 78.757 90.07 78.981 C 90.216 79.085 90.344 79.249 90.496 79.41 C 90.568 79.495 90.656 79.573 90.721 79.67 C 90.789 79.765 90.858 79.862 90.927 79.959 C 91.075 80.148 91.173 80.368 91.288 80.563 C 91.387 80.765 91.473 80.959 91.536 81.129 C 91.597 81.3 91.646 81.445 91.672 81.555 C 91.702 81.665 91.711 81.718 91.711 81.718 L 91.298 81.781 Z "/>
        </g>
      </g>
    </g>
  </g>
</svg>