<svg xmlns="http://www.w3.org/2000/svg" xmlns:xlink="http://www.w3.org/1999/xlink" width="186.10000610351562" height="167.585205078125" viewBox="7.400000095367432 6.400000095367432 186.10000610351562 167.585205078125" version="1.1" xml:space="preserve">
  <!-- Generator: Sketch 49.3 (51167) - http://www.bohemiancoding.com/sketch -->
  <defs/>
  <g>
    <title>bear-a</title>
    <desc>Created with Sketch.</desc>
    <g id="bear-a" stroke="none" fill-rule="evenodd">
      <g id="Bear" fill-rule="nonzero">
        <g id="Group">
          <path d="M 97.9 90.3 C 97.9 90.3 100.1 111.7 86.1 136.4 C 79.1 148.7 77.3 157.6 79 160 C 80.6 162.4 85.9 164.2 84.5 165.7 C 83.1 167.2 64.9 169.1 60.7 167.2 C 59 166.4 54.1 139.6 55.4 127.8 C 56.7 116 58.6 112.1 57.7 103.5 C 56.8 94.9 51.4 80.3 54.5 73.6 C 57.6 66.9 66.6 55.9 81.9 61.8 C 97.2 67.7 98.2 84.5 97.9 90.3 Z " id="Shape" fill="#856045" stroke-width="1"/>
          <path d="M 77 167.1 C 77 167.1 77 166.8 76.9 166.3 C 76.8 165.9 76.4 165.3 76 164.8 C 75.6 164.3 75.1 164 74.6 163.8 C 74.2 163.6 73.9 163.5 73.9 163.5 C 73.9 163.5 73.9 163.6 74 163.7 C 74.1 163.8 74.2 163.9 74.4 164.1 C 74.7 164.4 75.1 164.8 75.5 165.3 C 75.9 165.7 76.3 166.2 76.5 166.5 C 76.8 166.9 77 167.1 77 167.1 Z " id="Shape" fill="#59402F" stroke-width="1"/>
          <path d="M 82.2 166.4 C 82.2 166.4 82.1 166 81.9 165.5 C 81.7 165 81.2 164.4 80.7 163.9 C 80.4 163.7 80.1 163.4 79.8 163.3 C 79.5 163.1 79.2 163 79 162.9 C 78.7 162.8 78.5 162.8 78.4 162.7 C 78.2 162.7 78.2 162.7 78.2 162.7 C 78.2 162.7 78.3 162.8 78.4 162.8 C 78.5 162.9 78.7 163 78.9 163.2 C 79.3 163.5 79.8 163.9 80.3 164.4 C 80.8 164.9 81.3 165.3 81.6 165.7 C 81.9 166.1 82.2 166.4 82.2 166.4 Z " id="Shape" fill="#59402F" stroke-width="1"/>
          <path d="M 76.3 168.5 C 76.2 167.9 75.1 165.5 74.1 165.7 C 73.1 165.9 73.9 166.8 74.5 167.4 C 75 168 76.3 168.8 76.3 168.5 Z " id="Shape" fill="#665A52" stroke-width="1"/>
          <path d="M 81.3 167.4 C 81.2 166.8 80.1 164.4 79.1 164.6 C 78.1 164.8 78.9 165.7 79.5 166.3 C 80 166.9 81.3 167.7 81.3 167.4 Z " id="Shape" fill="#665A52" stroke-width="1"/>
          <path d="M 84.5 166.8 C 84.4 166.2 83.3 163.8 82.3 164 C 81.3 164.2 82.1 165.1 82.7 165.7 C 83.1 166.2 84.5 167.1 84.5 166.8 Z " id="Shape" fill="#665A52" stroke-width="1"/>
          <g id="Shape">
            <path d="M 58.2 106.3 C 58.2 106.3 52.9 117.1 50.7 117.3 C 50.7 117.3 53.1 118.5 54.4 116.8 C 54.4 116.8 50.7 119.3 50.6 123.6 L 53.1 122.2 C 53.1 122.2 50.6 128.8 51.8 132.6 L 53.8 129.2 C 53.8 129.2 52 135.7 56.6 138.2 " fill="#856045" stroke-width="1"/>
            <path d="M 50.9 117.2 C 50.9 117.2 51.1 117.2 51.4 117 C 51.7 116.8 52.1 116.6 52.4 116.2 C 53.2 115.5 54.1 114.3 54.8 113.1 C 55.2 112.5 55.5 111.9 55.8 111.3 C 56.1 110.7 56.4 110.1 56.6 109.7 C 57 108.7 57.3 108.1 57.3 108.1 C 57.3 108.1 56.9 108.7 56.3 109.6 C 55.7 110.5 55 111.7 54.3 112.9 C 53.6 114.1 52.8 115.3 52.1 116.1 C 51.8 116.5 51.5 116.8 51.3 117 C 51.1 117.2 50.9 117.2 50.9 117.2 Z " fill="#59402F" stroke-width="1"/>
            <path d="M 50.8 123.5 C 50.8 123.5 50.9 123.1 51.1 122.5 C 51.3 121.9 51.5 121.1 51.9 120.4 C 52.1 120 52.2 119.7 52.4 119.4 C 52.6 119.1 52.8 118.8 53 118.5 C 53.2 118.3 53.3 118 53.5 117.9 C 53.6 117.8 53.7 117.7 53.7 117.7 C 53.7 117.7 53.6 117.7 53.4 117.8 C 53.2 117.9 53 118 52.7 118.2 C 52.4 118.4 52.2 118.7 51.9 119 C 51.6 119.3 51.4 119.7 51.2 120.1 C 51 120.5 50.9 120.9 50.8 121.3 C 50.7 121.7 50.7 122.1 50.6 122.4 C 50.7 123 50.8 123.5 50.8 123.5 Z " fill="#59402F" stroke-width="1"/>
            <path d="M 52 132.1 C 52 132.1 51.8 131.5 51.8 130.5 C 51.8 130 51.8 129.5 51.8 128.9 C 51.8 128.3 51.9 127.7 52 127.1 C 52.1 126.5 52.2 125.9 52.4 125.3 C 52.5 124.7 52.7 124.2 52.8 123.7 C 52.9 123.2 53 122.8 53.1 122.6 C 53.2 122.3 53.2 122.2 53.2 122.2 C 53.2 122.2 53.1 122.3 53 122.6 C 52.9 122.9 52.7 123.2 52.5 123.7 C 52.3 124.1 52.1 124.7 51.9 125.3 C 51.7 125.9 51.6 126.5 51.5 127.2 C 51.4 127.8 51.3 128.5 51.3 129.1 C 51.3 129.7 51.4 130.3 51.5 130.8 C 51.6 131.3 51.8 131.7 51.9 131.9 C 51.9 132 52 132.1 52 132.1 Z " fill="#59402F" stroke-width="1"/>
            <path d="M 55.4 137.2 C 55.4 137.2 55.3 137.1 55.2 136.9 C 55.1 136.7 54.9 136.4 54.8 136.1 C 54.5 135.4 54.3 134.4 54.2 133.4 C 54.1 132.4 54.1 131.4 54.1 130.6 C 54.1 129.8 54 129.3 54 129.3 C 54 129.3 53.8 129.8 53.7 130.6 C 53.6 131 53.6 131.4 53.5 131.9 C 53.5 132.1 53.5 132.4 53.5 132.7 C 53.5 133 53.5 133.2 53.5 133.5 C 53.6 134 53.6 134.6 53.8 135 C 53.9 135.5 54.2 135.9 54.4 136.3 C 54.6 136.6 54.9 136.9 55.1 137 C 55.2 137.2 55.4 137.2 55.4 137.2 Z " fill="#59402F" stroke-width="1"/>
          </g>
          <path d="M 55 132.1 C 55 132.1 55.1 134.5 55.3 138.1 C 55.4 139.9 55.6 142 55.8 144.3 C 56 146.5 56.3 148.9 56.6 151.3 C 56.9 153.7 57.3 156.1 57.7 158.3 C 58.1 160.5 58.6 162.6 59.2 164.3 C 59.5 165.2 59.8 166 60.2 166.6 C 60.3 166.8 60.4 166.9 60.5 167.1 L 60.7 167.3 C 60.8 167.4 60.8 167.4 60.9 167.4 C 61.2 167.5 61.5 167.6 61.8 167.6 C 62.8 167.8 63.4 167.8 63.4 167.8 C 63.4 167.8 62.8 167.7 61.8 167.5 C 61.5 167.4 61.3 167.4 61 167.2 C 60.9 167.2 60.9 167.1 60.8 167.1 L 60.7 166.9 C 60.6 166.8 60.5 166.6 60.4 166.4 C 60.1 165.8 59.8 165 59.6 164.1 C 59.1 162.4 58.7 160.3 58.3 158.1 C 57.9 155.9 57.6 153.5 57.3 151.1 C 57 148.7 56.7 146.3 56.4 144.1 C 56.1 141.9 55.9 139.8 55.7 138 C 55.2 134.5 55 132.1 55 132.1 Z " id="Shape" fill="#59402F" stroke-width="1"/>
          <path d="M 98.5 100.6 C 98.5 100.6 97.7 104.7 96.2 110.8 C 95.4 113.9 94.5 117.4 93.3 121.1 C 92.7 122.9 92 124.9 91.1 126.7 C 90.6 127.6 90.1 128.5 89.5 129.4 C 89 130.3 88.4 131.2 87.9 132.1 C 85.9 135.8 84.1 139.6 82.5 143.2 C 81.7 145 81 146.8 80.3 148.5 C 79.7 150.2 79.1 151.8 78.7 153.3 C 78.5 154.1 78.4 154.8 78.3 155.5 C 78.2 156.2 78.1 156.9 78.1 157.5 C 78.1 158.1 78.2 158.8 78.4 159.3 C 78.6 159.8 79 160.2 79.3 160.5 C 80 161.1 80.6 161.5 81 161.8 C 81.4 162.1 81.6 162.2 81.6 162.2 C 81.6 162.2 81.4 162.1 81 161.8 C 80.6 161.5 80 161.1 79.4 160.5 C 79.1 160.2 78.8 159.8 78.6 159.3 C 78.4 158.8 78.3 158.2 78.3 157.6 C 78.3 157 78.4 156.3 78.6 155.6 C 78.7 154.9 78.8 154.2 79.1 153.4 C 80 150.4 81.4 147 83 143.4 C 84.6 139.8 86.4 136 88.5 132.4 C 89 131.5 89.5 130.6 90.1 129.7 C 90.6 128.8 91.2 127.9 91.7 127 C 92.6 125.1 93.3 123.2 93.9 121.3 C 94.5 119.4 95 117.6 95.5 115.8 C 96 114 96.4 112.4 96.7 110.8 C 97.4 107.7 97.9 105.1 98.2 103.3 C 98.3 101.6 98.5 100.6 98.5 100.6 Z " id="Shape" fill="#59402F" stroke-width="1"/>
        </g>
        <g id="Group">
          <g id="Shape">
            <path d="M 161.8 94.2 C 158.8 115.3 153.1 120.7 152.4 126.7 C 151.7 132.7 152.4 155.2 153.7 157.9 C 155 160.6 159.1 162.6 159.7 165.6 C 160.4 168.6 137.6 167.3 134.9 165.6 C 132.2 163.9 117.8 126 118.8 104.5 C 123.6 61 164.8 73.1 161.8 94.2 Z " stroke-width="1" fill="#856045"/>
            <path d="M 125.7 85.1 C 125.7 85.1 119.1 95.1 116.8 95.1 C 116.8 95.1 119 96.6 120.6 95.1 C 120.6 95.1 116.6 97.1 116 101.3 L 118.7 100.2 C 118.7 100.2 115.4 106.4 116 110.4 L 118.4 107.3 C 118.4 107.3 115.7 113.5 119.9 116.6 " stroke-width="1" fill="#856045"/>
          </g>
          <path d="M 117 95 C 117 95 117.2 95 117.5 94.9 C 117.8 94.8 118.2 94.6 118.6 94.3 C 119.5 93.7 120.5 92.7 121.4 91.6 C 121.9 91.1 122.3 90.5 122.7 89.9 C 123.1 89.4 123.4 88.8 123.7 88.4 C 124.2 87.5 124.6 86.9 124.6 86.9 C 124.6 86.9 124.1 87.4 123.4 88.2 C 122.7 89 121.8 90.1 120.9 91.2 C 120 92.3 119.1 93.3 118.3 94.1 C 117.9 94.5 117.6 94.8 117.3 94.9 C 117.2 95 117 95 117 95 Z " id="Shape" fill="#59402F" stroke-width="1"/>
          <path d="M 116.1 101.1 C 116.1 101.1 116.3 100.7 116.5 100.1 C 116.8 99.5 117.1 98.8 117.5 98.1 C 117.7 97.8 117.9 97.4 118.2 97.1 C 118.4 96.8 118.7 96.5 118.9 96.3 C 119.1 96.1 119.3 95.9 119.4 95.8 C 119.5 95.7 119.6 95.6 119.6 95.6 C 119.6 95.6 119.5 95.6 119.3 95.7 C 119.1 95.8 118.9 95.9 118.6 96 C 118.3 96.2 118 96.4 117.7 96.7 C 117.4 97 117.1 97.3 116.9 97.7 C 116.7 98.1 116.5 98.5 116.3 98.8 C 116.2 99.2 116.1 99.5 116 99.9 C 116.1 100.7 116.1 101.1 116.1 101.1 Z " id="Shape" fill="#59402F" stroke-width="1"/>
          <path d="M 116.1 109.9 C 116.1 109.9 116 109.3 116.1 108.3 C 116.1 107.8 116.2 107.3 116.4 106.7 C 116.5 106.1 116.7 105.5 116.9 104.9 C 117.1 104.3 117.3 103.7 117.5 103.1 C 117.7 102.5 117.9 102 118.1 101.6 C 118.3 101.2 118.4 100.8 118.5 100.5 C 118.6 100.2 118.6 100.1 118.6 100.1 C 118.6 100.1 118.5 100.2 118.3 100.5 C 118.1 100.7 117.9 101.1 117.7 101.5 C 117.5 101.9 117.2 102.4 116.9 103 C 116.6 103.5 116.4 104.2 116.2 104.8 C 116 105.4 115.9 106.1 115.8 106.7 C 115.7 107.3 115.7 107.9 115.7 108.4 C 115.7 108.9 115.8 109.3 115.9 109.6 C 116 109.7 116.1 109.9 116.1 109.9 Z " id="Shape" fill="#59402F" stroke-width="1"/>
          <path d="M 136.7 166.2 C 136.7 166.2 136.5 166.2 136.1 166.1 C 135.7 166 135 165.8 134.6 165.1 C 134.1 164.5 133.6 163.6 133.2 162.6 C 132.7 161.6 132.4 160.4 131.9 159.1 C 131 156.5 129.8 153.5 128.7 150.2 C 127.5 147 126.3 143.5 125.2 140 C 124.6 138.3 124.1 136.5 123.6 134.8 C 123.4 133.9 123.1 133.1 122.9 132.2 C 122.7 131.3 122.5 130.5 122.3 129.7 C 121.9 128 121.6 126.4 121.4 124.8 C 121.2 123.2 120.9 121.8 120.7 120.4 C 120.3 117.7 120 115.4 119.8 113.8 C 119.6 112.2 119.6 111.3 119.6 111.3 C 119.6 111.3 119.6 112.2 119.7 113.8 C 119.8 115.4 120 117.7 120.4 120.4 C 120.6 121.8 120.8 123.2 121 124.8 C 121.2 126.4 121.5 128 121.8 129.7 C 122 130.5 122.2 131.4 122.4 132.3 C 122.6 133.2 122.8 134 123.1 134.9 C 123.6 136.7 124.1 138.4 124.7 140.2 C 125.8 143.7 127.1 147.2 128.3 150.4 C 129.6 153.6 130.7 156.6 131.7 159.2 C 132.2 160.5 132.6 161.7 133.1 162.7 C 133.6 163.7 134.1 164.5 134.7 165.2 C 135.2 165.9 135.9 166 136.3 166.2 C 136.4 166.2 136.7 166.2 136.7 166.2 Z " id="Shape" fill="#59402F" stroke-width="1"/>
          <path d="M 119.7 116.3 C 119.7 116.3 119.2 115.9 118.8 115.1 C 118.6 114.7 118.4 114.3 118.3 113.7 C 118.2 113.2 118.1 112.6 118.1 112 C 118.1 111.7 118.1 111.4 118.1 111.1 C 118.1 110.8 118.1 110.5 118.1 110.3 C 118.1 109.8 118.2 109.3 118.2 108.8 C 118.2 108.4 118.3 108 118.3 107.7 C 118.3 107.4 118.3 107.3 118.3 107.3 C 118.3 107.3 118.2 107.4 118.1 107.7 C 118 107.9 117.9 108.3 117.7 108.7 C 117.6 109.1 117.4 109.6 117.4 110.2 C 117.4 110.5 117.3 110.8 117.3 111.1 C 117.3 111.4 117.3 111.7 117.3 112 C 117.3 112.6 117.4 113.2 117.6 113.8 C 117.7 114.1 117.8 114.3 117.9 114.6 C 118 114.8 118.2 115.1 118.3 115.2 C 118.6 115.6 118.9 115.8 119.1 116 C 119.5 116.2 119.7 116.3 119.7 116.3 Z " id="Shape" fill="#59402F" stroke-width="1"/>
          <path d="M 153 167.2 C 153 167.2 153 166.9 153 166.4 C 152.9 165.9 152.7 165.3 152.3 164.8 C 151.9 164.3 151.5 163.8 151.1 163.6 C 150.7 163.3 150.4 163.2 150.4 163.2 C 150.4 163.2 150.4 163.3 150.5 163.4 C 150.6 163.5 150.7 163.7 150.8 163.8 C 151.1 164.2 151.4 164.6 151.7 165.1 C 152 165.6 152.3 166.1 152.6 166.4 C 152.8 166.9 153 167.2 153 167.2 Z " id="Shape" fill="#59402F" stroke-width="1"/>
          <path d="M 158.2 166.7 C 158.2 166.7 158.2 166.3 158 165.8 C 157.8 165.3 157.5 164.6 157 164.1 C 156.8 163.8 156.5 163.6 156.2 163.4 C 155.9 163.2 155.7 163 155.4 162.9 C 155.2 162.8 154.9 162.7 154.8 162.7 C 154.6 162.7 154.6 162.6 154.6 162.6 C 154.6 162.6 154.7 162.7 154.8 162.8 C 154.9 162.9 155.1 163.1 155.3 163.2 C 155.7 163.6 156.1 164 156.6 164.6 C 157 165.1 157.4 165.7 157.7 166.1 C 158 166.4 158.2 166.7 158.2 166.7 Z " id="Shape" fill="#59402F" stroke-width="1"/>
          <path d="M 156.7 161.4 C 156.7 161.4 156.5 161.3 156.2 161 C 155.9 160.7 155.4 160.3 154.9 159.7 C 154.4 159.1 153.9 158.3 153.6 157.2 C 153.2 156.2 153.1 155 153.1 153.6 C 153 150.9 152.7 147.7 152.5 144.3 C 152.3 140.9 152.1 137.3 152.2 133.7 C 152.3 131.9 152.3 130.1 152.6 128.4 C 152.8 126.7 153.3 125 153.8 123.4 C 154.8 120.2 156 117.2 156.9 114.7 C 157.9 112.2 158.5 110 158.9 108.4 C 159.1 107.6 159.2 107 159.3 106.6 C 159.4 106.2 159.4 106 159.4 106 C 159.4 106 159.3 106.2 159.2 106.6 C 159.1 107 158.9 107.6 158.7 108.4 C 158.5 109.2 158.2 110.1 157.8 111.1 C 157.4 112.1 157 113.3 156.4 114.5 C 155.4 117 154.1 119.9 153.1 123.2 C 152.6 124.8 152.1 126.5 151.9 128.3 C 151.6 130.1 151.5 131.9 151.5 133.7 C 151.4 137.3 151.6 141 151.9 144.4 C 152.1 147.8 152.5 150.9 152.7 153.6 C 152.7 154.3 152.8 154.9 152.9 155.6 C 153 156.2 153.2 156.8 153.4 157.3 C 153.8 158.3 154.3 159.2 154.9 159.8 C 155.4 160.4 155.9 160.8 156.3 161 C 156.5 161.3 156.7 161.4 156.7 161.4 Z " id="Shape" fill="#59402F" stroke-width="1"/>
          <path d="M 152.1 168.4 C 152.1 167.8 151.3 165.3 150.2 165.3 C 149.1 165.3 149.8 166.4 150.3 167 C 150.9 167.7 152.1 168.8 152.1 168.4 Z " id="Shape" fill="#665A52" stroke-width="1"/>
          <path d="M 157.2 168 C 157.2 167.4 156.4 164.9 155.3 164.9 C 154.2 164.9 154.9 166 155.4 166.6 C 156 167.3 157.2 168.4 157.2 168 Z " id="Shape" fill="#665A52" stroke-width="1"/>
          <path d="M 160.4 167.2 C 160.4 166.6 159.6 164.1 158.5 164.1 C 157.4 164.1 158.1 165.2 158.6 165.8 C 159.2 166.5 160.4 167.5 160.4 167.2 Z " id="Shape" fill="#665A52" stroke-width="1"/>
        </g>
        <g id="Group">
          <path d="M 166.6 82 C 166.6 82 166.6 91.7 163.2 94.9 L 163 92.1 C 163 92.1 162 100.9 155.5 103.5 L 156.3 100.9 C 156.3 100.9 148.9 105.5 149 108.9 L 147.8 106.9 C 147.8 106.9 141 112.7 138 110.7 " id="Shape" fill="#8D674A" stroke-width="1"/>
          <g id="Shape">
            <path d="M 142.4 28.8 C 124.4 23.2 100.7 32.6 89.4 36.8 C 73 42.9 53.2 26.9 26.3 48.9 C -0.6 70.9 4.8 103.8 24.9 119.9 C 47.4 137.9 126.9 138 141 109.6 C 141 109.6 167.3 99.4 168.5 72.1 " fill="#8D674A" stroke-width="1"/>
            <path d="M 166.6 82.9 C 166.6 82.9 166.5 83.7 166.3 84.8 C 166.1 85.9 165.9 87.4 165.6 88.9 C 165.5 89.6 165.3 90.4 165.1 91.1 C 165 91.4 164.9 91.8 164.8 92.1 C 164.7 92.4 164.6 92.7 164.5 93 C 164.4 93.3 164.3 93.5 164.2 93.7 C 164.1 93.9 164 94.1 163.9 94.2 C 163.7 94.5 163.6 94.6 163.6 94.6 C 163.6 94.6 163.8 94.5 164 94.3 C 164.1 94.2 164.3 94 164.4 93.8 C 164.6 93.6 164.7 93.4 164.9 93.1 C 165.1 92.9 165.2 92.6 165.3 92.3 C 165.4 92 165.6 91.7 165.7 91.3 C 165.9 90.6 166.1 89.9 166.3 89.1 C 166.6 87.6 166.7 86 166.8 84.9 C 166.7 83.7 166.6 82.9 166.6 82.9 Z " fill="#59402F" stroke-width="1"/>
            <path d="M 163 92 C 163 92 162.8 92.9 162.4 94.1 C 162.2 94.7 161.9 95.5 161.6 96.2 C 161.5 96.6 161.2 97 161.1 97.4 C 160.9 97.8 160.7 98.2 160.5 98.5 C 160.3 98.9 160.1 99.3 159.8 99.6 C 159.5 99.9 159.3 100.3 159 100.6 C 158.7 100.9 158.5 101.2 158.2 101.5 C 157.9 101.7 157.7 102 157.4 102.2 C 157.1 102.4 156.9 102.6 156.7 102.8 C 156.5 102.9 156.3 103.1 156.1 103.2 C 155.8 103.4 155.6 103.5 155.6 103.5 C 155.6 103.5 155.8 103.4 156.2 103.3 C 156.4 103.2 156.6 103.1 156.9 103 C 157.1 102.9 157.4 102.7 157.7 102.5 C 158 102.3 158.3 102.1 158.6 101.9 C 158.9 101.7 159.2 101.4 159.5 101.1 C 159.8 100.8 160.1 100.4 160.4 100.1 C 160.7 99.7 160.9 99.3 161.2 99 C 161.6 98.2 162 97.4 162.3 96.6 C 162.6 95.8 162.8 95 162.9 94.4 C 163 92.9 163 92 163 92 Z " fill="#59402F" stroke-width="1"/>
            <path d="M 156.2 101 C 156.2 101 155.5 101.2 154.6 101.8 C 154.1 102.1 153.6 102.4 153.1 102.8 C 152.6 103.2 152 103.6 151.5 104.1 C 151 104.6 150.5 105.1 150.1 105.7 C 149.7 106.2 149.4 106.8 149.2 107.3 C 149.1 107.6 149 107.8 149 108 C 148.9 108.2 148.9 108.4 148.9 108.5 C 148.8 108.8 148.8 109 148.8 109 C 148.8 109 148.9 108.8 149 108.6 C 149.1 108.5 149.1 108.3 149.2 108.1 C 149.3 107.9 149.4 107.7 149.5 107.5 C 149.6 107.3 149.8 107.1 150 106.8 C 150.2 106.6 150.4 106.3 150.6 106.1 C 151 105.6 151.5 105.1 152 104.6 C 152.5 104.1 153 103.7 153.5 103.2 C 154 102.8 154.5 102.4 154.9 102.1 C 155.7 101.4 156.2 101 156.2 101 Z " fill="#59402F" stroke-width="1"/>
            <path d="M 147.7 107 C 147.7 107 147.1 107.4 146.2 108 C 145.7 108.3 145.2 108.6 144.7 108.9 C 144.1 109.2 143.5 109.6 142.9 109.9 C 142.3 110.2 141.6 110.5 141 110.7 C 140.7 110.8 140.4 110.9 140.1 111 C 139.8 111.1 139.5 111.1 139.3 111.2 C 139 111.2 138.8 111.3 138.6 111.3 C 138.4 111.3 138.2 111.3 138 111.3 C 137.7 111.3 137.5 111.3 137.5 111.3 C 137.5 111.3 137.7 111.3 138 111.4 C 138.2 111.4 138.3 111.5 138.6 111.5 C 138.8 111.5 139.1 111.5 139.3 111.5 C 139.8 111.5 140.5 111.4 141.1 111.2 C 141.8 111 142.4 110.7 143.1 110.4 C 143.7 110.1 144.4 109.7 144.9 109.3 C 145.5 108.9 145.9 108.5 146.4 108.2 C 147.2 107.5 147.7 107 147.7 107 Z " fill="#59402F" stroke-width="1"/>
            <path d="M 122.7 27.5 C 122.7 27.5 119.6 27.7 115 28.6 C 112.7 29 110 29.6 107.2 30.4 C 105.8 30.8 104.3 31.2 102.9 31.6 C 101.4 32 99.9 32.5 98.5 33 C 95.6 34.1 92.7 35.4 90 36.3 C 88.6 36.8 87.3 37.2 86 37.5 C 84.7 37.8 83.5 38 82.3 38.1 C 81.1 38.2 80.1 38.3 79.1 38.3 C 78.2 38.3 77.3 38.3 76.7 38.3 C 75.3 38.2 74.6 38.2 74.6 38.2 C 74.6 38.2 75.4 38.3 76.7 38.4 C 77.4 38.5 78.2 38.5 79.2 38.5 C 80.1 38.5 81.2 38.5 82.4 38.4 C 83.6 38.3 84.8 38.1 86.1 37.9 C 87.4 37.6 88.8 37.3 90.2 36.8 C 93 35.9 95.8 34.6 98.7 33.6 C 100.1 33.1 101.6 32.7 103.1 32.2 C 104.6 31.8 106 31.4 107.4 31 C 110.2 30.2 112.8 29.6 115.1 29.1 C 117.4 28.6 119.3 28.2 120.6 27.9 C 122 27.7 122.7 27.5 122.7 27.5 Z " fill="#59402F" stroke-width="1"/>
            <path d="M 48.8 37.6 C 48.8 37.6 47.6 37.9 45.6 38.5 C 43.6 39.1 40.7 40.1 37.4 41.7 C 34.1 43.3 30.3 45.3 26.7 48.1 C 23 50.9 19.5 54.3 16.7 58.4 C 15.3 60.4 14.1 62.6 13.1 64.8 C 12.1 67 11.1 69.2 10.3 71.3 C 9.5 73.5 8.9 75.6 8.5 77.7 C 8.1 79.8 7.9 81.8 7.9 83.6 C 7.9 87.3 8.5 90.3 8.9 92.4 C 9.3 94.5 9.5 95.7 9.5 95.7 C 9.5 95.7 9.3 94.5 9 92.4 C 8.7 90.3 8.2 87.3 8.3 83.6 C 8.4 81.8 8.6 79.8 9 77.8 C 9.4 75.8 10.1 73.7 10.9 71.5 C 11.7 69.4 12.6 67.2 13.7 65.1 C 14.7 62.9 15.9 60.8 17.3 58.8 C 20 54.8 23.5 51.4 27.1 48.6 C 30.7 45.8 34.4 43.7 37.6 42.1 C 40.9 40.5 43.7 39.4 45.7 38.7 C 47.6 37.9 48.8 37.6 48.8 37.6 Z " fill="#59402F" stroke-width="1"/>
            <path d="M 135.6 116.9 C 135.6 116.9 134.3 118 131.7 119.6 C 129.1 121.2 125.3 123.3 120.5 125.2 C 115.7 127.2 109.8 128.9 103.4 130.1 C 97 131.4 90.1 132 83.1 132 C 79.6 132 76.2 131.9 72.7 131.7 C 69.3 131.5 65.9 131.2 62.7 130.9 C 61.1 130.7 59.5 130.5 57.9 130.4 C 56.3 130.2 54.8 130 53.3 129.8 C 50.3 129.4 47.6 128.8 45 128.3 C 42.5 127.7 40.1 127.1 38.1 126.5 C 37.1 126.2 36.2 125.9 35.3 125.6 C 34.5 125.3 33.7 125 33 124.7 C 31.6 124.1 30.6 123.5 29.9 123.1 C 29.2 122.7 28.9 122.4 28.9 122.4 C 28.9 122.4 29.2 122.7 29.9 123.2 C 30.6 123.6 31.6 124.3 33 124.9 C 33.7 125.2 34.5 125.5 35.3 125.9 C 36.2 126.2 37.1 126.6 38.1 126.9 C 40.1 127.6 42.4 128.2 45 128.8 C 47.5 129.4 50.3 129.9 53.3 130.4 C 54.8 130.6 56.3 130.9 57.9 131.1 C 59.5 131.3 61.1 131.5 62.7 131.7 C 66 132 69.3 132.3 72.7 132.5 C 76.1 132.8 79.6 132.9 83.1 132.9 C 90.1 132.8 97.1 132.2 103.5 130.9 C 109.9 129.6 115.8 127.8 120.6 125.7 C 125.4 123.7 129.2 121.5 131.8 119.8 C 134.3 118.1 135.6 116.9 135.6 116.9 Z " fill="#59402F" stroke-width="1"/>
          </g>
        </g>
        <g id="Group">
          <g id="Shape">
            <path d="M 130.2 99.2 C 127.2 120.3 121.5 125.7 120.8 131.7 C 120.1 137.7 120.8 160.2 122.1 162.9 C 123.4 165.6 127.5 167.6 128.1 170.6 C 128.7 173.6 106 172.3 103.3 170.6 C 100.6 168.9 86.2 131 87.2 109.5 C 91.9 66 133.2 78.1 130.2 99.2 Z " stroke-width="1" fill="#8D674A"/>
            <path d="M 94 90.1 C 94 90.1 87.4 100.1 85.1 100.1 C 85.1 100.1 87.3 101.6 88.9 100.1 C 88.9 100.1 84.9 102.1 84.3 106.3 L 87 105.2 C 87 105.2 83.7 111.4 84.3 115.4 L 86.7 112.3 C 86.7 112.3 84 118.5 88.2 121.6 " stroke-width="1" fill="#8D674A"/>
          </g>
          <path d="M 85.4 100 C 85.4 100 85.6 100 85.9 99.9 C 86.2 99.8 86.6 99.6 87 99.3 C 87.9 98.7 88.9 97.7 89.8 96.6 C 90.3 96.1 90.7 95.5 91.1 94.9 C 91.5 94.4 91.8 93.8 92.1 93.4 C 92.6 92.5 93 91.9 93 91.9 C 93 91.9 92.5 92.4 91.8 93.2 C 91.1 94 90.2 95.1 89.3 96.2 C 88.4 97.3 87.5 98.3 86.7 99.1 C 86.3 99.5 86 99.8 85.7 99.9 C 85.5 100 85.4 100 85.4 100 Z " id="Shape" fill="#59402F" stroke-width="1"/>
          <path d="M 84.5 106.1 C 84.5 106.1 84.7 105.7 84.9 105.1 C 85.2 104.5 85.5 103.8 85.9 103.1 C 86.1 102.8 86.3 102.4 86.6 102.1 C 86.8 101.8 87.1 101.5 87.3 101.3 C 87.5 101.1 87.7 100.9 87.8 100.8 C 87.9 100.7 88 100.6 88 100.6 C 88 100.6 87.9 100.6 87.7 100.7 C 87.5 100.8 87.3 100.9 87 101 C 86.7 101.2 86.4 101.4 86.1 101.7 C 85.8 102 85.5 102.3 85.3 102.7 C 85.1 103.1 84.9 103.5 84.7 103.8 C 84.6 104.2 84.5 104.5 84.4 104.9 C 84.4 105.7 84.5 106.1 84.5 106.1 Z " id="Shape" fill="#59402F" stroke-width="1"/>
          <path d="M 84.5 114.9 C 84.5 114.9 84.4 114.3 84.5 113.3 C 84.5 112.8 84.6 112.3 84.8 111.7 C 84.9 111.1 85.1 110.5 85.3 109.9 C 85.5 109.3 85.7 108.7 85.9 108.1 C 86.1 107.5 86.3 107 86.5 106.6 C 86.7 106.2 86.8 105.8 86.9 105.5 C 87 105.2 87 105.1 87 105.1 C 87 105.1 86.9 105.2 86.7 105.5 C 86.5 105.7 86.3 106.1 86.1 106.5 C 85.9 106.9 85.6 107.4 85.3 108 C 85 108.5 84.8 109.2 84.6 109.8 C 84.4 110.4 84.3 111.1 84.2 111.7 C 84.1 112.3 84.1 112.9 84.1 113.4 C 84.1 113.9 84.2 114.3 84.3 114.6 C 84.4 114.7 84.5 114.9 84.5 114.9 Z " id="Shape" fill="#59402F" stroke-width="1"/>
          <path d="M 105.1 171.2 C 105.1 171.2 104.9 171.2 104.4 171.1 C 104 171 103.3 170.8 102.9 170.1 C 102.4 169.5 101.9 168.6 101.4 167.6 C 100.9 166.6 100.5 165.4 100.1 164.1 C 99.1 161.5 98 158.5 96.8 155.2 C 95.6 152 94.4 148.5 93.3 145 C 92.7 143.2 92.2 141.5 91.7 139.7 C 91.5 138.8 91.2 138 91 137.1 C 90.8 136.2 90.6 135.4 90.4 134.5 C 90.2 133.7 90.1 132.8 89.9 132 C 89.7 131.2 89.6 130.4 89.5 129.6 C 89.3 128 89 126.6 88.8 125.2 C 88.4 122.5 88.1 120.2 87.9 118.6 C 87.7 117 87.7 116.1 87.7 116.1 C 87.7 116.1 87.7 117 87.8 118.6 C 87.9 120.2 88.1 122.5 88.5 125.3 C 88.7 126.7 88.9 128.2 89.1 129.7 C 89.3 131.3 89.6 132.9 89.9 134.6 C 90.1 135.5 90.3 136.3 90.5 137.2 C 90.7 138.1 90.9 138.9 91.2 139.8 C 91.7 141.6 92.2 143.3 92.7 145.1 C 93.8 148.6 95.1 152.1 96.3 155.3 C 97.5 158.5 98.7 161.5 99.7 164.1 C 100.2 165.4 100.6 166.6 101.2 167.6 C 101.7 168.6 102.3 169.4 102.8 170 C 103.3 170.7 103.9 170.9 104.4 171 C 104.9 171.3 105.1 171.2 105.1 171.2 Z " id="Shape" fill="#59402F" stroke-width="1"/>
          <path d="M 88 121.3 C 88 121.3 87.5 120.9 87.1 120.1 C 86.9 119.7 86.7 119.3 86.6 118.7 C 86.5 118.2 86.4 117.6 86.4 117 C 86.4 116.7 86.4 116.4 86.4 116.1 C 86.4 115.8 86.4 115.5 86.4 115.3 C 86.4 114.8 86.5 114.3 86.5 113.8 C 86.5 113.4 86.6 113 86.6 112.7 C 86.6 112.4 86.6 112.3 86.6 112.3 C 86.6 112.3 86.5 112.4 86.4 112.7 C 86.3 112.9 86.2 113.3 86 113.7 C 85.9 114.1 85.7 114.6 85.7 115.2 C 85.7 115.5 85.6 115.8 85.6 116.1 C 85.6 116.4 85.6 116.7 85.6 117 C 85.6 117.6 85.7 118.2 85.9 118.8 C 86 119.1 86.1 119.3 86.2 119.6 C 86.3 119.8 86.5 120.1 86.6 120.2 C 86.9 120.6 87.2 120.8 87.4 121 C 87.9 121.2 88 121.3 88 121.3 Z " id="Shape" fill="#59402F" stroke-width="1"/>
          <path d="M 121.3 172.2 C 121.3 172.2 121.3 171.9 121.3 171.4 C 121.2 170.9 121 170.3 120.6 169.8 C 120.2 169.3 119.8 168.8 119.4 168.6 C 119 168.3 118.7 168.2 118.7 168.2 C 118.7 168.2 118.7 168.3 118.8 168.4 C 118.9 168.5 119 168.7 119.1 168.8 C 119.4 169.2 119.7 169.6 120 170.1 C 120.3 170.6 120.6 171.1 120.9 171.4 C 121.2 171.9 121.3 172.2 121.3 172.2 Z " id="Shape" fill="#59402F" stroke-width="1"/>
          <path d="M 126.6 171.7 C 126.6 171.7 126.6 171.3 126.4 170.8 C 126.2 170.3 125.9 169.6 125.4 169.1 C 125.2 168.8 124.9 168.6 124.6 168.4 C 124.3 168.2 124.1 168 123.8 167.9 C 123.6 167.8 123.3 167.7 123.2 167.7 C 123 167.7 123 167.6 123 167.6 C 123 167.6 123.1 167.7 123.2 167.8 C 123.3 167.9 123.5 168.1 123.7 168.2 C 124.1 168.6 124.5 169 125 169.6 C 125.4 170.1 125.8 170.7 126.1 171.1 C 126.4 171.4 126.6 171.7 126.6 171.7 Z " id="Shape" fill="#59402F" stroke-width="1"/>
          <path d="M 125 166.4 C 125 166.4 124.8 166.3 124.5 166 C 124.2 165.7 123.7 165.3 123.2 164.7 C 122.7 164.1 122.2 163.3 121.9 162.2 C 121.5 161.2 121.4 160 121.4 158.6 C 121.3 155.9 121 152.7 120.8 149.3 C 120.6 145.9 120.4 142.3 120.5 138.7 C 120.6 136.9 120.6 135.1 120.9 133.4 C 121.1 131.7 121.6 130 122.1 128.4 C 123.1 125.2 124.3 122.2 125.2 119.7 C 126.2 117.2 126.8 115 127.2 113.4 C 127.4 112.6 127.5 112 127.6 111.6 C 127.7 111.2 127.7 111 127.7 111 C 127.7 111 127.6 111.2 127.5 111.6 C 127.4 112 127.2 112.6 127 113.4 C 126.8 114.2 126.5 115.1 126.1 116.1 C 125.7 117.1 125.3 118.3 124.7 119.5 C 123.7 122 122.4 124.9 121.4 128.2 C 120.9 129.8 120.4 131.5 120.2 133.3 C 119.9 135.1 119.8 136.9 119.8 138.7 C 119.7 142.3 119.9 146 120.2 149.4 C 120.4 152.8 120.8 155.9 121 158.6 C 121 159.3 121.1 159.9 121.2 160.6 C 121.3 161.2 121.5 161.8 121.7 162.3 C 122.1 163.3 122.6 164.2 123.2 164.8 C 123.7 165.4 124.2 165.8 124.6 166 C 124.8 166.3 125 166.4 125 166.4 Z " id="Shape" fill="#59402F" stroke-width="1"/>
          <path d="M 120.5 173.4 C 120.5 172.8 119.7 170.3 118.6 170.3 C 117.5 170.3 118.2 171.4 118.7 172 C 119.2 172.7 120.5 173.8 120.5 173.4 Z " id="Shape" fill="#6C5F57" stroke-width="1"/>
          <path d="M 125.6 173 C 125.6 172.4 124.8 169.9 123.7 169.9 C 122.6 169.9 123.3 171 123.8 171.6 C 124.4 172.3 125.6 173.4 125.6 173 Z " id="Shape" fill="#6C5F57" stroke-width="1"/>
          <path d="M 128.8 172.2 C 128.8 171.6 128 169.1 126.9 169.1 C 125.8 169.1 126.5 170.2 127 170.8 C 127.6 171.5 128.8 172.5 128.8 172.2 Z " id="Shape" fill="#6C5F57" stroke-width="1"/>
        </g>
        <g id="Group">
          <path d="M 60.2 96.1 C 60.2 96.1 59.4 118.9 42.7 139.6 C 39.7 143.3 37.7 147.1 36 150.2 C 32.6 156.5 31.2 160.8 31.8 162.3 C 32.9 165 38.4 167.8 36.9 169.1 C 35.3 170.4 17 169.9 13.1 167.4 C 11.5 166.4 10.2 139.2 13.1 127.7 C 16 116.2 18.3 112.5 18.6 103.9 C 18.9 95.3 15.5 80.1 19.4 73.8 C 23.3 67.5 33.8 57.9 48.2 65.7 C 62.6 73.6 61.3 90.3 60.2 96.1 Z " id="Shape" fill="#8D674A" stroke-width="1"/>
          <path d="M 29.3 169.4 C 29.3 169.4 29.3 169.1 29.3 168.6 C 29.2 168.1 29 167.5 28.6 167 C 28.2 166.5 27.8 166 27.4 165.8 C 27 165.5 26.7 165.4 26.7 165.4 C 26.7 165.4 26.7 165.5 26.8 165.6 C 26.9 165.7 27 165.9 27.1 166 C 27.4 166.4 27.7 166.8 28 167.3 C 28.3 167.8 28.6 168.3 28.9 168.6 C 29.2 169.2 29.3 169.4 29.3 169.4 Z " id="Shape" fill="#59402F" stroke-width="1"/>
          <path d="M 34.6 169.4 C 34.6 169.4 34.6 169 34.4 168.5 C 34.2 168 33.9 167.3 33.4 166.8 C 33.2 166.5 32.9 166.3 32.6 166.1 C 32.3 165.9 32.1 165.7 31.8 165.6 C 31.6 165.5 31.3 165.4 31.2 165.4 C 31 165.4 31 165.3 31 165.3 C 31 165.3 31.1 165.4 31.2 165.5 C 31.3 165.6 31.5 165.8 31.7 165.9 C 32.1 166.3 32.5 166.7 33 167.3 C 33.4 167.8 33.8 168.4 34.1 168.8 C 34.4 169.1 34.6 169.4 34.6 169.4 Z " id="Shape" fill="#59402F" stroke-width="1"/>
          <path d="M 28.4 170.7 C 28.4 170.1 27.6 167.6 26.5 167.6 C 25.4 167.6 26.1 168.7 26.6 169.3 C 27.2 170 28.4 171.1 28.4 170.7 Z " id="Shape" fill="#6C5F57" stroke-width="1"/>
          <path d="M 33.6 170.3 C 33.6 169.7 32.8 167.2 31.7 167.2 C 30.6 167.2 31.3 168.3 31.8 168.9 C 32.3 169.6 33.6 170.6 33.6 170.3 Z " id="Shape" fill="#6C5F57" stroke-width="1"/>
          <path d="M 36.8 170.1 C 36.8 169.5 36 167 34.9 167 C 33.8 167 34.5 168.1 35 168.7 C 35.6 169.4 36.8 170.4 36.8 170.1 Z " id="Shape" fill="#6C5F57" stroke-width="1"/>
          <g id="Shape">
            <path d="M 18.7 106.6 C 18.7 106.6 12.1 116.6 9.8 116.6 C 9.8 116.6 12 118.1 13.6 116.6 C 13.6 116.6 9.6 118.6 9 122.8 L 11.7 121.7 C 11.7 121.7 8.4 127.9 9 131.9 L 11.4 128.8 C 11.4 128.8 8.7 135 12.9 138.1 " fill="#8D674A" stroke-width="1"/>
            <path d="M 10.1 116.6 C 10.1 116.6 10.3 116.6 10.6 116.5 C 10.9 116.4 11.3 116.2 11.7 115.9 C 12.6 115.3 13.6 114.3 14.5 113.2 C 15 112.7 15.4 112.1 15.8 111.5 C 16.2 111 16.5 110.4 16.8 110 C 17.3 109.1 17.7 108.5 17.7 108.5 C 17.7 108.5 17.2 109 16.5 109.8 C 15.8 110.6 14.9 111.7 14 112.8 C 13.1 113.9 12.2 114.9 11.4 115.7 C 11 116.1 10.7 116.4 10.4 116.5 C 10.2 116.5 10.1 116.6 10.1 116.6 Z " fill="#59402F" stroke-width="1"/>
            <path d="M 9.2 122.7 C 9.2 122.7 9.4 122.3 9.6 121.7 C 9.9 121.1 10.2 120.4 10.6 119.7 C 10.8 119.4 11 119 11.3 118.7 C 11.5 118.4 11.8 118.1 12 117.9 C 12.2 117.7 12.4 117.5 12.5 117.4 C 12.6 117.3 12.7 117.2 12.7 117.2 C 12.7 117.2 12.6 117.2 12.4 117.3 C 12.2 117.4 12 117.5 11.7 117.6 C 11.4 117.8 11.1 118 10.8 118.3 C 10.5 118.6 10.2 118.9 10 119.3 C 9.8 119.7 9.6 120.1 9.4 120.4 C 9.3 120.8 9.2 121.1 9.1 121.5 C 9.1 122.3 9.2 122.7 9.2 122.7 Z " fill="#59402F" stroke-width="1"/>
            <path d="M 9.2 131.4 C 9.2 131.4 9.1 130.8 9.2 129.8 C 9.2 129.3 9.3 128.8 9.5 128.2 C 9.6 127.6 9.8 127 10 126.4 C 10.2 125.8 10.4 125.2 10.6 124.6 C 10.8 124 11 123.5 11.2 123.1 C 11.4 122.7 11.5 122.3 11.6 122 C 11.7 121.7 11.7 121.6 11.7 121.6 C 11.7 121.6 11.6 121.7 11.4 122 C 11.2 122.2 11 122.6 10.8 123 C 10.6 123.4 10.3 123.9 10 124.5 C 9.7 125 9.5 125.7 9.3 126.3 C 9.1 126.9 9 127.6 8.9 128.2 C 8.8 128.8 8.8 129.4 8.8 129.9 C 8.8 130.4 8.9 130.8 9 131.1 C 9.1 131.3 9.2 131.4 9.2 131.4 Z " fill="#59402F" stroke-width="1"/>
            <path d="M 11.9 136.9 C 11.9 136.9 11.8 136.8 11.7 136.6 C 11.6 136.4 11.5 136.1 11.4 135.8 C 11.2 135.1 11.1 134.1 11.2 133.1 C 11.2 132.1 11.4 131.1 11.4 130.3 C 11.5 129.5 11.5 129 11.5 129 C 11.5 129 11.3 129.5 11 130.2 C 10.9 130.6 10.7 131 10.7 131.5 C 10.7 131.7 10.6 132 10.6 132.3 C 10.6 132.6 10.5 132.8 10.5 133.1 C 10.5 133.6 10.5 134.2 10.6 134.7 C 10.7 135.2 10.8 135.7 11 136 C 11.2 136.4 11.4 136.6 11.6 136.8 C 11.7 136.9 11.9 136.9 11.9 136.9 Z " fill="#59402F" stroke-width="1"/>
          </g>
          <path d="M 12.1 131.8 C 12.1 131.8 11.9 134.2 11.6 137.8 C 11.5 139.6 11.4 141.7 11.3 144 C 11.2 146.3 11.2 148.7 11.2 151.1 C 11.2 153.5 11.3 155.9 11.4 158.2 C 11.5 160.5 11.8 162.6 12.1 164.4 C 12.3 165.3 12.5 166.1 12.8 166.8 C 12.9 167 13 167.1 13 167.3 L 13.1 167.5 C 13.1 167.6 13.2 167.6 13.3 167.7 C 13.6 167.9 13.9 168 14.1 168.1 C 15.1 168.4 15.7 168.5 15.7 168.5 C 15.7 168.5 15.1 168.3 14.1 167.9 C 13.9 167.8 13.6 167.7 13.3 167.5 C 13.3 167.5 13.2 167.4 13.1 167.4 L 13 167.2 C 12.9 167 12.9 166.9 12.8 166.7 C 12.6 166 12.4 165.2 12.3 164.3 C 12 162.5 11.9 160.4 11.8 158.2 C 11.7 155.9 11.7 153.5 11.7 151.1 C 11.7 148.7 11.7 146.3 11.7 144 C 11.7 141.7 11.8 139.6 11.8 137.8 C 12.1 134.2 12.1 131.8 12.1 131.8 Z " id="Shape" fill="#59402F" stroke-width="1"/>
          <path d="M 59.4 106.3 C 59.4 106.3 58 110.3 55.7 116.1 C 54.5 119 53.1 122.4 51.4 126 C 50.5 127.7 49.6 129.6 48.5 131.3 C 47.9 132.1 47.3 132.9 46.6 133.7 C 45.9 134.5 45.3 135.4 44.7 136.2 C 42.2 139.6 39.9 143.1 37.9 146.5 C 36.9 148.2 35.9 149.8 35.1 151.4 C 34.2 153 33.5 154.5 32.9 156 C 32.6 156.7 32.4 157.5 32.2 158.2 C 32 158.9 31.8 159.6 31.7 160.2 C 31.6 160.8 31.6 161.5 31.8 162 C 32 162.5 32.3 163 32.6 163.3 C 33.2 164 33.8 164.5 34.1 164.8 C 34.5 165.1 34.7 165.3 34.7 165.3 C 34.7 165.3 34.5 165.1 34.1 164.8 C 33.7 164.5 33.2 164 32.6 163.2 C 32.3 162.8 32.1 162.4 31.9 161.9 C 31.7 161.4 31.8 160.8 31.9 160.2 C 32 159.6 32.2 158.9 32.4 158.2 C 32.6 157.5 32.8 156.8 33.2 156.1 C 34.5 153.2 36.4 150.1 38.4 146.7 C 40.5 143.4 42.8 139.8 45.3 136.5 C 45.9 135.6 46.5 134.8 47.2 134 C 47.9 133.2 48.5 132.4 49.1 131.5 C 50.3 129.8 51.2 127.9 52 126.1 C 52.8 124.3 53.6 122.6 54.3 120.9 C 55 119.2 55.6 117.6 56.1 116.1 C 57.2 113.1 58 110.6 58.6 108.9 C 59.1 107.3 59.4 106.3 59.4 106.3 Z " id="Shape" fill="#59402F" stroke-width="1"/>
        </g>
        <g id="Group">
          <g id="Shape">
            <g>
              <path d="M 116.8 39.6 C 116.8 39.6 114.4 48.3 111.5 51.4 C 111.5 51.4 113.9 51.2 114.7 49.9 C 114.7 49.9 112.3 52 114 59.1 L 115.4 56.7 C 115.4 56.7 114.2 61.8 116.6 66.3 L 117.8 63.9 C 117.8 63.9 117.8 70.4 124 74.8 L 124.3 71.7 C 124.3 71.7 125.2 77.5 136.1 78.4 " stroke-width="1" fill="#8D674A"/>
              <path d="M 187.7 39.6 C 187.7 39.6 190.1 48.3 193 51.4 C 193 51.4 190.6 51.2 189.8 49.9 C 189.8 49.9 192.2 52 190.5 59.1 L 189.1 56.7 C 189.1 56.7 190.3 61.8 187.9 66.3 L 186.7 63.9 C 186.7 63.9 186.7 70.4 180.5 74.8 L 180.2 71.7 C 180.2 71.7 179.3 77.5 168.4 78.4 " stroke-width="1" fill="#8D674A"/>
              <path d="M 179.4 74.4 C 189.4 67.6 190.8 49.8 188.3 41.6 C 185.8 33.4 177.9 18.1 169 14.1 C 157.2 8.7 131.2 5.2 119 32.7 C 106.8 60.2 123.6 74.8 134.7 78.4 C 145.8 82 168 82.1 179.4 74.4 Z " stroke-width="1" fill="#8D674A"/>
            </g>
            <path d="M 150.6 40.5 C 150.6 40.5 150.7 40.5 150.9 40.4 C 151.1 40.3 151.4 40.3 151.7 40.2 C 152.3 40.1 153.1 40 154 40 C 154.8 40 155.7 40 156.3 40.1 C 157 40.1 157.4 40.1 157.4 40.1 C 157.4 40.1 157 39.9 156.4 39.7 C 155.8 39.5 154.9 39.3 154 39.3 C 153.6 39.3 153.1 39.3 152.7 39.4 C 152.3 39.5 151.9 39.6 151.6 39.7 C 151.3 39.8 151.1 40 150.9 40.1 C 150.7 40.4 150.6 40.5 150.6 40.5 Z " fill="#59402F" stroke-width="1"/>
            <path d="M 156.7 38.5 C 156.7 38.5 156.4 38.3 156 38.2 C 155.6 38.1 155 38 154.4 38 C 153.8 38 153.2 38.1 152.8 38.3 C 152.4 38.5 152.1 38.7 152.1 38.7 C 152.1 38.7 152.2 38.7 152.3 38.7 C 152.4 38.7 152.6 38.7 152.8 38.7 C 153.2 38.7 153.8 38.7 154.4 38.7 C 155 38.7 155.5 38.7 156 38.7 C 156.3 38.6 156.7 38.5 156.7 38.5 Z " fill="#59402F" stroke-width="1"/>
            <path d="M 125.7 50.1 C 125.7 50.1 125.4 50.7 125.2 51.6 C 125 52.5 124.8 53.8 124.8 55 C 124.8 55.3 124.8 55.6 124.8 55.9 C 124.8 56.2 124.9 56.5 124.9 56.8 C 124.9 57.1 125 57.4 125 57.6 C 125 57.9 125.1 58.1 125.2 58.3 C 125.3 58.8 125.5 59.1 125.6 59.4 C 125.7 59.7 125.8 59.8 125.8 59.8 C 125.8 59.8 125.8 59.6 125.8 59.4 C 125.8 59.1 125.7 58.7 125.7 58.3 C 125.6 57.4 125.5 56.2 125.5 54.9 C 125.4 52.6 125.7 50.1 125.7 50.1 Z " fill="#59402F" stroke-width="1"/>
            <g>
              <path d="M 126.8 60.2 C 126.8 60.2 126.7 60.4 126.7 60.6 C 126.7 60.8 126.7 61.2 126.7 61.5 C 126.7 61.8 126.9 62.1 127 62.4 C 127.1 62.6 127.2 62.8 127.2 62.8 C 127.2 62.8 127.3 62.6 127.3 62.4 C 127.3 62.2 127.3 61.8 127.3 61.5 C 127.3 61.2 127.1 60.9 127 60.6 C 126.9 60.3 126.8 60.2 126.8 60.2 Z " stroke-width="1" fill="#59402F"/>
              <path d="M 128.5 62.4 C 128.5 62.4 128.5 62.6 128.4 62.8 C 128.4 63 128.4 63.3 128.5 63.6 C 128.6 63.9 128.7 64.2 128.8 64.4 C 128.9 64.6 129 64.7 129 64.7 C 129 64.7 129 64.5 129.1 64.3 C 129.1 64.1 129.1 63.8 129 63.5 C 128.9 63.2 128.8 62.9 128.7 62.7 C 128.6 62.6 128.5 62.4 128.5 62.4 Z " stroke-width="1" fill="#59402F"/>
            </g>
            <path d="M 130 64.7 C 130 64.7 130 65.2 130.3 66 C 130.6 66.8 131.1 67.8 131.8 68.6 C 132.1 69 132.5 69.4 132.9 69.8 C 133.3 70.1 133.7 70.4 134 70.6 C 134.3 70.8 134.7 71 134.9 71.1 C 135.1 71.2 135.2 71.2 135.2 71.2 C 135.2 71.2 135.1 71.1 134.9 70.9 C 134.7 70.8 134.5 70.5 134.2 70.3 C 133.6 69.8 132.9 69 132.2 68.2 C 131.9 67.8 131.6 67.4 131.3 67 C 131 66.6 130.8 66.2 130.6 65.9 C 130.2 65.2 130 64.7 130 64.7 Z " fill="#59402F" stroke-width="1"/>
            <path d="M 177.6 48.5 C 177.6 48.5 177.6 48.9 177.7 49.5 C 177.8 50.1 177.9 50.9 178 51.7 C 178.1 52.5 178.2 53.3 178.2 53.9 C 178.2 54.2 178.3 54.5 178.3 54.6 C 178.3 54.8 178.3 54.9 178.3 54.9 C 178.3 54.9 178.5 54.5 178.6 53.9 C 178.7 53.6 178.7 53.2 178.7 52.8 C 178.7 52.4 178.7 52 178.6 51.6 C 178.5 50.8 178.3 50 178 49.4 C 177.8 48.9 177.6 48.5 177.6 48.5 Z " fill="#59402F" stroke-width="1"/>
            <path d="M 177.4 55.4 C 177.4 55.4 177.4 55.6 177.3 55.8 C 177.3 56 177.3 56.3 177.4 56.6 C 177.5 56.9 177.6 57.2 177.7 57.4 C 177.8 57.6 177.9 57.7 177.9 57.7 C 177.9 57.7 177.9 57.5 178 57.3 C 178 57.1 178 56.8 177.9 56.5 C 177.8 56.2 177.7 55.9 177.6 55.7 C 177.5 55.5 177.4 55.4 177.4 55.4 Z " fill="#59402F" stroke-width="1"/>
            <path d="M 176.7 58.2 C 176.7 58.2 176.7 58.8 176.7 59.7 C 176.7 60.1 176.7 60.6 176.6 61.2 C 176.5 61.7 176.5 62.3 176.3 62.9 C 176.1 64 175.7 65.1 175.3 65.9 C 175.1 66.3 174.9 66.6 174.8 66.8 C 174.7 67 174.6 67.2 174.6 67.2 C 174.6 67.2 174.7 67.1 174.9 66.9 C 175.1 66.7 175.4 66.4 175.6 66.1 C 175.7 65.9 175.9 65.7 176 65.5 C 176.1 65.3 176.3 65 176.4 64.8 C 176.6 64.3 176.8 63.7 176.9 63.1 C 177 62.5 177.1 61.9 177.1 61.3 C 177.1 60.7 177.1 60.2 177 59.8 C 176.9 58.8 176.7 58.2 176.7 58.2 Z " fill="#59402F" stroke-width="1"/>
            <path d="M 124.7 23.3 C 124.7 23.3 124.3 23.6 123.7 24.2 C 123.1 24.8 122.3 25.8 121.5 27 C 121.1 27.6 120.7 28.3 120.3 29 C 119.9 29.7 119.5 30.5 119.1 31.4 C 118.7 32.2 118.4 33.1 118 34 C 117.7 34.9 117.3 35.8 117.1 36.8 C 116.8 37.7 116.6 38.7 116.3 39.6 C 116 40.5 115.8 41.4 115.5 42.3 C 114.9 44 114.4 45.7 113.9 47 C 113.4 48.4 112.9 49.5 112.4 50.2 C 112.2 50.6 112 50.8 111.8 51 C 111.6 51.2 111.5 51.2 111.5 51.2 C 111.5 51.2 111.6 51.2 111.8 51 C 112 50.9 112.2 50.6 112.5 50.3 C 113 49.6 113.6 48.5 114.2 47.2 C 114.8 45.9 115.4 44.3 116 42.5 C 116.3 41.6 116.6 40.7 116.9 39.8 C 117.2 38.9 117.5 37.9 117.7 37 C 118 36.1 118.3 35.1 118.6 34.2 C 118.9 33.3 119.3 32.4 119.6 31.6 C 120 30.8 120.3 30 120.7 29.2 C 121.1 28.5 121.5 27.8 121.8 27.1 C 122.5 25.9 123.2 24.9 123.8 24.2 C 124.4 23.6 124.7 23.3 124.7 23.3 Z " fill="#59402F" stroke-width="1"/>
            <path d="M 114.5 50.4 C 114.5 50.4 114.2 50.9 113.8 51.7 C 113.6 52.1 113.5 52.6 113.4 53.1 C 113.3 53.6 113.2 54.2 113.2 54.8 C 113.2 55.4 113.2 55.9 113.3 56.5 C 113.4 57 113.5 57.5 113.6 57.9 C 113.7 58.3 113.9 58.6 113.9 58.9 C 114 59.1 114 59.3 114 59.3 C 114 59.3 114 59.2 114 58.9 C 114 58.7 113.9 58.3 113.9 57.9 C 113.9 57.5 113.8 57 113.8 56.5 C 113.8 56 113.8 55.4 113.8 54.9 C 113.8 53.8 114 52.7 114.1 51.9 C 114.3 50.9 114.5 50.4 114.5 50.4 Z " fill="#59402F" stroke-width="1"/>
            <path d="M 115.5 56.7 C 115.5 56.7 115.4 57.3 115.2 58.2 C 115.1 59.1 115.1 60.3 115.2 61.5 C 115.3 62.7 115.6 63.9 115.9 64.7 C 116.1 65.1 116.3 65.4 116.4 65.7 C 116.5 65.9 116.6 66 116.6 66 C 116.6 66 116.6 65.9 116.5 65.6 C 116.4 65.4 116.3 65 116.2 64.6 C 116 63.8 115.9 62.6 115.8 61.4 C 115.7 60.2 115.6 59.1 115.6 58.2 C 115.6 57.3 115.5 56.7 115.5 56.7 Z " fill="#59402F" stroke-width="1"/>
            <path d="M 117.9 63.9 C 117.9 63.9 117.9 64.7 118.1 65.9 C 118.2 66.5 118.4 67.2 118.6 67.9 C 118.8 68.6 119.1 69.4 119.5 70.1 C 119.7 70.5 119.9 70.8 120.1 71.2 C 120.3 71.5 120.5 71.9 120.8 72.2 C 121 72.5 121.3 72.8 121.5 73 C 121.8 73.2 122 73.5 122.2 73.7 C 122.4 73.9 122.7 74 122.9 74.2 C 123.1 74.3 123.3 74.4 123.5 74.5 C 123.8 74.6 124 74.7 124 74.7 C 124 74.7 123.8 74.6 123.6 74.4 C 123.5 74.3 123.3 74.2 123.1 74 C 122.9 73.8 122.7 73.6 122.5 73.4 C 122.3 73.2 122.1 72.9 121.9 72.7 C 121.7 72.4 121.5 72.1 121.3 71.9 C 120.9 71.3 120.5 70.6 120.2 69.9 C 120 69.5 119.9 69.2 119.7 68.8 C 119.6 68.4 119.4 68.1 119.3 67.8 C 119 67.1 118.8 66.5 118.6 65.9 C 118.1 64.7 117.9 63.9 117.9 63.9 Z " fill="#59402F" stroke-width="1"/>
            <path d="M 178.4 23 C 178.4 23 178.7 23.4 179.3 24 C 179.9 24.7 180.6 25.7 181.4 26.9 C 182.2 28.2 183.1 29.7 183.9 31.3 C 184.3 32.1 184.8 33 185.1 33.9 C 185.5 34.8 185.9 35.7 186.3 36.6 C 187 38.5 187.7 40.4 188.3 42.1 C 188.9 43.9 189.6 45.5 190.2 46.9 C 190.8 48.3 191.4 49.4 191.8 50.2 C 192 50.6 192.3 50.8 192.5 51 C 192.7 51.1 192.8 51.2 192.8 51.2 C 192.8 51.2 192.7 51.2 192.5 51 C 192.3 50.8 192.1 50.6 191.9 50.2 C 191.5 49.4 191 48.3 190.5 46.9 C 190 45.5 189.4 43.8 188.8 42.1 C 188.2 40.3 187.6 38.4 186.8 36.6 C 186.4 35.7 186 34.7 185.6 33.8 C 185.2 32.9 184.7 32 184.3 31.2 C 183.8 30.4 183.4 29.6 182.9 28.9 C 182.4 28.2 182 27.5 181.5 26.9 C 180.6 25.7 179.8 24.7 179.2 24.1 C 178.8 23.3 178.4 23 178.4 23 Z " fill="#59402F" stroke-width="1"/>
            <path d="M 190.1 50.4 C 190.1 50.4 190.3 50.9 190.4 51.8 C 190.5 52.6 190.7 53.7 190.7 54.8 C 190.7 55.3 190.7 55.9 190.7 56.4 C 190.7 56.9 190.6 57.4 190.6 57.8 C 190.6 58.2 190.5 58.6 190.5 58.8 C 190.5 59 190.5 59.2 190.5 59.2 C 190.5 59.2 190.6 59.1 190.6 58.8 C 190.7 58.6 190.8 58.2 190.9 57.8 C 191 57.4 191.1 56.9 191.2 56.4 C 191.3 55.9 191.3 55.3 191.3 54.7 C 191.3 54.1 191.2 53.6 191.1 53 C 191 52.5 190.8 52 190.7 51.6 C 190.5 50.8 190.1 50.4 190.1 50.4 Z " fill="#59402F" stroke-width="1"/>
            <path d="M 189.1 56.7 C 189.1 56.7 189.1 57.3 189 58.2 C 188.9 59.1 188.9 60.2 188.8 61.4 C 188.7 62.6 188.6 63.7 188.4 64.6 C 188.3 65 188.2 65.4 188.1 65.6 C 188 65.8 188 66 188 66 C 188 66 188.1 65.9 188.2 65.7 C 188.4 65.5 188.5 65.2 188.7 64.7 C 189.1 63.9 189.3 62.7 189.4 61.5 C 189.5 60.3 189.5 59.1 189.4 58.2 C 189.2 57.3 189.1 56.7 189.1 56.7 Z " fill="#59402F" stroke-width="1"/>
            <path d="M 186.7 63.9 C 186.7 63.9 186.5 64.7 186.1 65.8 C 185.9 66.4 185.7 67 185.4 67.7 C 185.3 68 185.1 68.4 185 68.7 C 184.9 69.1 184.7 69.4 184.5 69.8 C 184.2 70.5 183.8 71.2 183.4 71.8 C 183.2 72.1 183 72.4 182.8 72.6 C 182.6 72.8 182.4 73.1 182.2 73.3 C 182 73.5 181.8 73.7 181.6 73.9 C 181.4 74.1 181.3 74.2 181.1 74.3 C 180.8 74.5 180.7 74.6 180.7 74.6 C 180.7 74.6 180.9 74.5 181.2 74.4 C 181.4 74.3 181.6 74.2 181.8 74.1 C 182 74 182.2 73.8 182.5 73.6 C 182.7 73.4 183 73.2 183.2 72.9 C 183.5 72.7 183.7 72.4 183.9 72.1 C 184.1 71.8 184.3 71.5 184.6 71.1 C 184.8 70.8 185 70.4 185.2 70 C 185.5 69.3 185.9 68.5 186.1 67.8 C 186.3 67.1 186.5 66.4 186.6 65.8 C 186.7 64.7 186.7 63.9 186.7 63.9 Z " fill="#59402F" stroke-width="1"/>
            <path d="M 178.9 74.7 C 178.9 74.7 177.8 75.3 176.2 76.1 C 175.4 76.5 174.4 76.9 173.3 77.3 C 172.2 77.7 171.1 78.1 169.9 78.4 C 169.3 78.6 168.7 78.7 168.2 78.9 C 167.6 79.1 167 79.1 166.5 79.2 C 165.9 79.3 165.4 79.4 164.9 79.5 C 164.4 79.6 163.9 79.6 163.4 79.7 C 162.9 79.7 162.5 79.8 162.2 79.8 C 161.8 79.8 161.5 79.8 161.2 79.9 C 160.7 79.9 160.4 80 160.4 80 C 160.4 80 160.7 80 161.2 80.1 C 161.7 80.1 162.5 80.2 163.4 80.2 C 163.9 80.2 164.4 80.2 164.9 80.1 C 165.4 80 166 80 166.6 79.9 C 167.2 79.8 167.8 79.7 168.4 79.6 C 169 79.5 169.6 79.4 170.2 79.2 C 171.4 78.9 172.5 78.4 173.6 78 C 174.7 77.6 175.6 77.1 176.4 76.6 C 178 75.5 178.9 74.7 178.9 74.7 Z " fill="#59402F" stroke-width="1"/>
            <path d="M 166.8 13.1 C 166.8 13.1 166.4 12.9 165.6 12.6 C 164.8 12.3 163.7 11.9 162.2 11.5 C 161.5 11.3 160.7 11.1 159.9 10.9 C 159.1 10.7 158.2 10.6 157.3 10.4 C 156.4 10.3 155.4 10.2 154.5 10.1 C 153.5 10.1 152.6 10 151.6 10 L 150.1 10 C 149.6 10 149.1 10.1 148.6 10.1 C 148.1 10.1 147.6 10.2 147.2 10.2 C 146.7 10.3 146.3 10.3 145.8 10.4 C 145.3 10.5 144.9 10.5 144.5 10.6 C 144.1 10.7 143.7 10.8 143.2 10.9 C 142.8 11 142.4 11.1 142 11.2 C 141.6 11.3 141.3 11.4 140.9 11.6 C 140.2 11.8 139.6 12.1 139 12.3 C 138.5 12.6 138 12.8 137.6 13 C 136.8 13.4 136.4 13.6 136.4 13.6 C 136.4 13.6 136.9 13.4 137.7 13.1 C 138.1 12.9 138.6 12.8 139.1 12.6 C 139.7 12.4 140.3 12.2 141 12 C 141.3 11.9 141.7 11.8 142.1 11.7 C 142.5 11.6 142.9 11.5 143.3 11.5 C 143.7 11.4 144.1 11.3 144.6 11.2 C 145 11.1 145.5 11.1 145.9 11 C 146.3 10.9 146.8 10.9 147.3 10.8 C 147.8 10.8 148.2 10.7 148.7 10.7 C 149.2 10.7 149.7 10.6 150.1 10.6 L 151.5 10.6 C 152.5 10.6 153.4 10.6 154.4 10.7 C 155.3 10.8 156.3 10.9 157.2 11 C 158.1 11.1 159 11.2 159.8 11.4 C 160.6 11.5 161.4 11.7 162.1 11.8 C 163.5 12.1 164.7 12.4 165.5 12.7 C 166.4 12.9 166.8 13.1 166.8 13.1 Z " fill="#59402F" stroke-width="1"/>
          </g>
          <ellipse id="Oval" fill="#332010" cx="52.5" cy="35.2" rx="1.6" ry="2.5" stroke-width="1" transform="matrix(-1,0,0,1,193,6)"/>
          <ellipse id="Oval" fill="#332010" cx="28.3" cy="35.2" rx="1.6" ry="2.5" stroke-width="1" transform="matrix(-1,0,0,1,193,6)"/>
          <g id="Shape">
            <path d="M 162.6 70.8 C 162.6 70.8 156.5 78.4 150.3 71.1 C 150.3 71.1 143.9 70.2 143.9 64.1 C 143.9 58 147.1 41.3 155 41.6 C 160 41.8 167.3 55 167.3 62.9 C 167.3 70.8 162.6 70.8 162.6 70.8 Z " fill="#9E7B5C" stroke-width="1"/>
            <path d="M 156.5 63.6 C 156.5 63.6 156.4 63.9 156.3 64.5 C 156.2 65 156.2 65.7 156.2 66.4 C 156.2 67.1 156.3 67.8 156.3 68.3 C 156.4 68.8 156.5 69.2 156.5 69.2 C 156.5 69.2 156.6 68.9 156.7 68.3 C 156.8 67.8 156.8 67.1 156.8 66.4 C 156.8 65.7 156.7 65 156.7 64.5 C 156.6 63.9 156.5 63.6 156.5 63.6 Z " fill="#59402F" stroke-width="1"/>
            <path d="M 160.7 69.8 C 160.7 69.8 160.2 69.5 159.4 69.3 C 159 69.2 158.5 69.1 158 69 C 157.5 68.9 156.9 68.9 156.3 68.8 C 155.7 68.8 155.1 68.8 154.6 68.9 C 154.1 69 153.6 69.1 153.2 69.2 C 152.8 69.3 152.5 69.5 152.2 69.6 C 152 69.7 151.9 69.8 151.9 69.8 C 151.9 69.8 152 69.8 152.3 69.7 C 152.5 69.6 152.9 69.6 153.3 69.5 C 154.1 69.4 155.2 69.3 156.3 69.3 C 157.4 69.3 158.5 69.4 159.3 69.5 C 160.2 69.8 160.7 69.8 160.7 69.8 Z " fill="#59402F" stroke-width="1"/>
            <path d="M 156.3 57.5 C 154.1 57.6 150.8 57.9 150.5 60.3 C 150.1 62.7 152.8 62.1 153.7 62.8 C 154.6 63.5 154.5 65.3 157.3 65.2 C 158.9 65.1 159.2 62.7 160.1 62.7 C 161 62.7 162.2 61.4 162.2 60.4 C 162.1 59.4 160.5 57.2 156.3 57.5 Z " fill="#332721" stroke-width="1"/>
            <path d="M 159.8 73.4 C 159.8 73.4 159.3 73.5 158.6 73.7 C 158.2 73.8 157.8 73.9 157.4 73.9 C 157 74 156.5 74 156 74 C 155.5 74 155.1 74 154.7 73.9 C 154.5 73.8 154.3 73.8 154.1 73.8 C 153.9 73.7 153.7 73.7 153.6 73.6 C 153.3 73.5 153 73.3 152.8 73.2 C 152.6 73.1 152.5 73 152.5 73 C 152.5 73 152.6 73.1 152.7 73.3 C 152.8 73.5 153.1 73.7 153.4 73.9 C 153.6 74 153.7 74.1 153.9 74.2 C 154.1 74.3 154.3 74.4 154.6 74.4 C 155.1 74.5 155.6 74.6 156.1 74.5 C 157.1 74.5 158.1 74.2 158.8 73.8 C 159.4 73.7 159.8 73.4 159.8 73.4 Z " fill="#59402F" stroke-width="1"/>
          </g>
          <path d="M 136.7 34.9 C 136.7 35.9 139.8 36.4 141.1 36.4 C 142.5 36.4 143.6 35.6 143.6 34.5 C 143.6 33.5 142.5 32.6 141.1 32.6 C 139.8 32.6 136.7 33.9 136.7 34.9 Z " id="Shape" fill="#9E7B5C" stroke-width="1"/>
          <path d="M 167.5 34.9 C 167.5 35.9 164.4 36.4 163.1 36.4 C 161.7 36.4 160.6 35.6 160.6 34.5 C 160.6 33.5 161.7 32.6 163.1 32.6 C 164.5 32.6 167.5 33.9 167.5 34.9 Z " id="Shape" fill="#9E7B5C" stroke-width="1"/>
          <g id="Shape">
            <path d="M 137.1 15 C 137.1 15 134.7 7.3 130.3 7.1 C 125.9 6.9 115.9 12.2 124.8 23.7 " fill="#8D674A" stroke-width="1"/>
            <path d="M 130.3 9.5 C 130.3 9.5 130 10.1 129.7 11 C 129.6 11.5 129.4 12 129.4 12.6 C 129.3 13.2 129.3 13.8 129.3 14.5 C 129.3 14.8 129.4 15.1 129.4 15.5 C 129.5 15.8 129.5 16.1 129.7 16.4 C 129.8 16.7 129.9 17 130.1 17.2 C 130.2 17.4 130.4 17.7 130.5 17.9 C 130.8 18.3 131.1 18.6 131.3 18.7 C 131.5 18.9 131.6 19 131.6 19 C 131.6 19 131.5 18.9 131.3 18.6 C 131.2 18.5 131.1 18.4 131 18.2 C 130.9 18 130.8 17.8 130.7 17.7 C 130.6 17.5 130.5 17.3 130.4 17 C 130.3 16.8 130.2 16.5 130.1 16.2 C 130 15.7 129.9 15.1 129.8 14.5 C 129.8 13.9 129.7 13.3 129.8 12.7 C 129.8 12.1 129.9 11.6 129.9 11.1 C 130.2 10.2 130.3 9.5 130.3 9.5 Z " fill="#59402F" stroke-width="1"/>
            <g>
              <path d="M 128.9 18.4 C 128.9 18.4 128.9 18.5 129 18.7 C 129.1 18.9 129.3 19.1 129.5 19.3 C 129.7 19.5 129.9 19.6 130.1 19.7 C 130.3 19.8 130.4 19.8 130.4 19.8 C 130.4 19.8 130.4 19.7 130.3 19.5 C 130.2 19.3 130 19.1 129.8 18.9 C 129.6 18.7 129.4 18.6 129.2 18.5 C 129.1 18.5 128.9 18.4 128.9 18.4 Z " stroke-width="1" fill="#59402F"/>
              <path d="M 127.9 19.8 C 127.9 19.8 128 20.3 128.3 20.5 C 128.6 20.8 129 20.8 129.1 20.8 C 129.1 20.8 129 20.3 128.7 20.1 C 128.4 19.8 127.9 19.8 127.9 19.8 Z " stroke-width="1" fill="#59402F"/>
            </g>
            <path d="M 136.9 15.8 C 136.9 15.8 136.8 14.7 136.3 13 C 136 12.2 135.7 11.3 135.1 10.3 C 134.5 9.4 133.8 8.5 132.8 7.8 C 132.3 7.5 131.8 7.2 131.2 7.1 C 130.6 7 130.1 6.9 129.5 6.9 C 128.9 6.9 128.4 7 127.9 7.2 C 127.4 7.3 127 7.5 126.6 7.7 C 126.2 7.9 125.9 8.1 125.6 8.3 C 125.3 8.5 125.1 8.7 124.9 8.8 C 124.5 9.1 124.3 9.3 124.3 9.3 C 124.3 9.3 124.5 9.2 125 8.9 C 125.4 8.6 126.1 8.3 126.8 8 C 127.2 7.8 127.6 7.7 128.1 7.6 C 128.6 7.5 129 7.4 129.5 7.4 C 130 7.4 130.5 7.5 131 7.6 C 131.5 7.8 132 8 132.4 8.3 C 133.3 8.9 134 9.7 134.6 10.6 C 135.2 11.5 135.6 12.3 135.9 13.1 C 136.6 14.7 136.9 15.8 136.9 15.8 Z " fill="#59402F" stroke-width="1"/>
          </g>
          <g id="Shape">
            <path d="M 166 15 C 166 15 168.4 7.3 172.8 7.1 C 177.2 6.9 187.2 12.2 178.3 23.7 " fill="#8D674A" stroke-width="1"/>
            <path d="M 172.8 9.5 C 172.8 9.5 172.9 10.1 173 11.1 C 173 11.6 173.1 12.1 173.1 12.7 C 173.1 13.3 173.1 13.9 173.1 14.5 C 173.1 15.1 173 15.7 172.8 16.2 C 172.7 16.5 172.7 16.7 172.5 17 C 172.4 17.2 172.3 17.5 172.2 17.7 C 172.1 17.9 172 18.1 171.9 18.2 C 171.8 18.4 171.7 18.5 171.6 18.6 C 171.4 18.8 171.3 19 171.3 19 C 171.3 19 171.4 18.9 171.6 18.7 C 171.8 18.5 172.1 18.3 172.4 17.9 C 172.6 17.7 172.7 17.5 172.8 17.2 C 173 17 173 16.7 173.2 16.4 C 173.3 16.1 173.4 15.8 173.5 15.5 C 173.5 15.2 173.6 14.9 173.6 14.5 C 173.6 13.9 173.6 13.2 173.5 12.6 C 173.4 12 173.3 11.5 173.2 11 C 173.1 10.1 172.8 9.5 172.8 9.5 Z " fill="#59402F" stroke-width="1"/>
            <g>
              <path d="M 174.2 18.4 C 174.2 18.4 174.1 18.4 173.9 18.5 C 173.7 18.6 173.5 18.7 173.3 18.9 C 173.1 19.1 172.9 19.3 172.8 19.5 C 172.7 19.7 172.7 19.8 172.7 19.8 C 172.7 19.8 172.8 19.8 173 19.7 C 173.2 19.6 173.4 19.5 173.6 19.3 C 173.8 19.1 174 18.9 174.1 18.7 C 174.2 18.6 174.2 18.4 174.2 18.4 Z " stroke-width="1" fill="#59402F"/>
              <path d="M 175.2 19.8 C 175.2 19.8 174.7 19.9 174.4 20.1 C 174.1 20.3 174 20.8 174 20.8 C 174 20.8 174.5 20.7 174.8 20.5 C 175.1 20.3 175.2 19.8 175.2 19.8 Z " stroke-width="1" fill="#59402F"/>
            </g>
            <path d="M 179.1 9.3 C 179.1 9.3 178.9 9.1 178.5 8.8 C 178.3 8.6 178 8.5 177.8 8.3 C 177.5 8.1 177.2 7.9 176.8 7.7 C 176.6 7.6 176.4 7.5 176.2 7.4 C 176 7.3 175.7 7.3 175.5 7.2 C 175.3 7.1 175 7.1 174.7 7 C 174.4 7 174.2 6.9 173.9 6.9 C 173.6 6.9 173.3 6.9 173 6.9 C 172.7 6.9 172.4 7 172.1 7.1 C 171.8 7.1 171.5 7.3 171.3 7.4 C 171 7.5 170.7 7.6 170.5 7.8 C 170 8.2 169.5 8.5 169.1 8.9 C 168.7 9.3 168.3 9.7 168 10.2 C 167.7 10.7 167.4 11.1 167.2 11.6 C 167 12.1 166.8 12.5 166.6 12.9 C 166.4 13.3 166.3 13.7 166.2 14 C 166.1 14.3 166 14.6 166 14.9 C 165.9 15.4 165.8 15.7 165.8 15.7 C 165.8 15.7 165.9 15.4 166.1 15 C 166.2 14.8 166.3 14.5 166.5 14.2 C 166.6 13.9 166.8 13.5 167 13.1 C 167.2 12.7 167.4 12.3 167.6 11.9 C 167.8 11.5 168.2 11.1 168.4 10.6 C 168.7 10.1 169.1 9.8 169.4 9.4 C 169.7 9 170.2 8.7 170.7 8.4 C 170.9 8.2 171.2 8.2 171.4 8 C 171.6 7.9 171.9 7.8 172.2 7.7 C 172.5 7.6 172.7 7.6 173 7.5 C 173.3 7.5 173.5 7.5 173.8 7.5 C 174.1 7.5 174.3 7.5 174.6 7.6 C 174.8 7.6 175.1 7.6 175.3 7.7 C 175.5 7.8 175.8 7.8 176 7.9 C 176.2 8 176.4 8 176.6 8.1 C 177.4 8.4 178 8.7 178.5 9 C 178.8 9.2 179.1 9.3 179.1 9.3 Z " fill="#59402F" stroke-width="1"/>
          </g>
        </g>
      </g>
    </g>
  </g>
</svg>