<svg version="1.1" xmlns="http://www.w3.org/2000/svg" xmlns:xlink="http://www.w3.org/1999/xlink" width="90.23227" height="247.52728" viewBox="0,0,90.23227,247.52728"><g transform="translate(-195.00448,-54.85124)"><g data-paper-data="{&quot;isPaintingLayer&quot;:true}" fill-rule="nonzero" stroke-linejoin="miter" stroke-miterlimit="10" stroke-dasharray="" stroke-dashoffset="0" style="mix-blend-mode: normal"><path d="M257.31889,110.13992c2.64099,0.47914 4.88863,0.27115 7.7187,3.30199c7.46986,8.0007 7.57751,19.15063 9.24472,29.03702c0.33869,2.01961 1.96855,6.05753 2.40777,7.85947c-0.01644,2.20188 -0.4019,4.85878 -3.52707,5.72782c-3.08654,0.85829 -5.43289,-1.3263 -6.49729,-3.86272c-1.01067,-3.6675 -5.14977,-12.55119 -6.54822,-16.97809" data-paper-data="{&quot;origPos&quot;:null,&quot;origRot&quot;:0}" fill="#4c392b" stroke="none" stroke-width="0" stroke-linecap="butt"/><path d="M220.12372,134.9643c-1.39844,4.4269 -5.53755,13.31057 -6.54822,16.97809c-1.06439,2.53642 -3.41075,4.72099 -6.49729,3.86271c-3.12518,-0.86903 -3.51063,-3.52594 -3.52707,-5.72782c0.43922,-1.80194 2.06908,-5.83985 2.40777,-7.85947c1.66721,-9.88639 1.77485,-21.03631 9.24472,-29.03702c2.83006,-3.03084 5.0777,-2.82284 7.71869,-3.30199" data-paper-data="{&quot;origPos&quot;:null,&quot;origRot&quot;:0,&quot;index&quot;:null}" fill="#4c392b" stroke="none" stroke-width="0" stroke-linecap="butt"/><path d="M269.09513,227.32914c-0.55942,5.73486 -2.63224,12.31119 -9.20985,13.28276c-6.5776,0.97158 -11.4923,-3.29278 -13.63825,-10.52938c-1.51507,-8.50233 -6.32056,-28.81309 -6.85057,-36.7454c-1.12191,-16.79124 -0.85287,-34.02967 -0.85287,-34.02967c0,0 18.67234,-0.48082 18.81631,-0.40834c2.27327,1.11079 9.5329,15.59078 10.97355,31.18281c1.02846,11.13121 1.26188,27.34535 0.76168,37.24722z" data-paper-data="{&quot;origPos&quot;:null,&quot;origRot&quot;:0,&quot;index&quot;:null}" fill="#d7cbb5" stroke="none" stroke-width="0" stroke-linecap="butt"/><path d="M212.0231,190.28715c1.22883,-15.61104 8.34744,-30.19351 10.62602,-31.33672c0.14427,-0.07454 19.27464,0.1389 19.27464,0.1389c0,0 0.26386,17.23271 -0.62593,34.03828c-0.42034,7.93907 -4.99009,28.89956 -6.39651,37.42271c-2.06154,7.26658 -6.96686,11.01796 -13.62034,10.14067c-6.65349,-0.87731 -8.84084,-7.42327 -9.48841,-13.14953c-0.648,-9.89368 -0.64675,-26.10951 0.23051,-37.2543z" data-paper-data="{&quot;origPos&quot;:null,&quot;origRot&quot;:0,&quot;index&quot;:null}" fill="#d7cbb5" stroke="none" stroke-width="0" stroke-linecap="butt"/><g data-paper-data="{&quot;origPos&quot;:null}" fill="#000000" stroke="none" stroke-width="0" stroke-linecap="butt"><g data-paper-data="{&quot;origPos&quot;:null,&quot;origRot&quot;:0,&quot;index&quot;:null}"><path d="M230.2463,100.09576c1.03621,0.00675 1.86712,1.49259 1.85586,3.31872c-0.01125,1.82613 -0.8604,3.30104 -1.89661,3.29429c-1.03621,-0.00675 -1.86712,-1.49259 -1.85586,-3.31872c0.01125,-1.82614 0.8604,-3.30104 1.89661,-3.29429z" data-paper-data="{&quot;origPos&quot;:null}"/><path d="M230.0734,95.55104c1.03621,0.00675 1.86712,1.49259 1.85586,3.31872c-0.01125,1.82613 -0.8604,3.30104 -1.89661,3.29429c-1.03621,-0.00675 -1.86712,-1.49259 -1.85586,-3.31872c0.01125,-1.82614 0.8604,-3.30104 1.89661,-3.29429z" data-paper-data="{&quot;origPos&quot;:null}"/><path d="M229.90052,91.00631c1.03621,0.00675 1.86712,1.49259 1.85586,3.31872c-0.01125,1.82613 -0.8604,3.30104 -1.89661,3.29429c-1.03621,-0.00675 -1.86712,-1.49259 -1.85586,-3.31872c0.01125,-1.82614 0.8604,-3.30104 1.89661,-3.29429z" data-paper-data="{&quot;origPos&quot;:null}"/><path d="M230.12686,86.87725c1.03621,0.00675 1.86712,1.49259 1.85586,3.31872c-0.01125,1.82613 -0.8604,3.30104 -1.89661,3.29429c-1.03621,-0.00675 -1.86712,-1.49259 -1.85586,-3.31872c0.01125,-1.82614 0.8604,-3.30104 1.89661,-3.29429z" data-paper-data="{&quot;origPos&quot;:null}"/><path d="M230.48476,105.33008c1.03621,0.00675 1.86712,1.49259 1.85586,3.31872c-0.01125,1.82613 -0.8604,3.30104 -1.89661,3.29429c-1.03621,-0.00675 -1.86712,-1.49258 -1.85586,-3.31872c0.01125,-1.82614 0.8604,-3.30104 1.89661,-3.29429z" data-paper-data="{&quot;origPos&quot;:null}"/><path d="M230.18786,110.01255c1.03621,0.00675 1.86712,1.49257 1.85586,3.31871c-0.01125,1.82613 -0.8604,3.30104 -1.89661,3.29429c-1.03621,-0.00675 -1.86712,-1.49258 -1.85586,-3.31872c0.01125,-1.82613 0.8604,-3.30103 1.89661,-3.29428z" data-paper-data="{&quot;origPos&quot;:null}"/><path d="M230.42632,115.24685c1.03621,0.00675 1.86712,1.49258 1.85586,3.31872c-0.01125,1.82614 -0.8604,3.30104 -1.89661,3.29429c-1.03621,-0.00675 -1.86712,-1.49258 -1.85586,-3.31872c0.01125,-1.82614 0.8604,-3.30104 1.89661,-3.29429z" data-paper-data="{&quot;origPos&quot;:null}"/></g><g data-paper-data="{&quot;origPos&quot;:null,&quot;origRot&quot;:0,&quot;index&quot;:null}"><path d="M250.87476,102.08207c0.01125,1.82613 -0.81964,3.31198 -1.85586,3.31872c-1.03621,0.00675 -1.88537,-1.46816 -1.89661,-3.29429c-0.01125,-1.82613 0.81964,-3.31198 1.85586,-3.31872c1.03621,-0.00675 1.88537,1.46815 1.89661,3.29429z" data-paper-data="{&quot;origPos&quot;:null}"/><path d="M251.04767,97.53735c0.01125,1.82613 -0.81964,3.31198 -1.85586,3.31872c-1.03621,0.00675 -1.88537,-1.46816 -1.89661,-3.29429c-0.01125,-1.82613 0.81964,-3.31198 1.85586,-3.31872c1.03621,-0.00675 1.88537,1.46815 1.89661,3.29429z" data-paper-data="{&quot;origPos&quot;:null}"/><path d="M251.22053,92.9926c0.01125,1.82613 -0.81964,3.31198 -1.85586,3.31872c-1.03621,0.00675 -1.88537,-1.46816 -1.89661,-3.29429c-0.01125,-1.82613 0.81964,-3.31198 1.85586,-3.31872c1.03621,-0.00675 1.88537,1.46815 1.89661,3.29429z" data-paper-data="{&quot;origPos&quot;:null}"/><path d="M250.99421,88.86353c0.01125,1.82613 -0.81964,3.31198 -1.85586,3.31872c-1.03621,0.00675 -1.88537,-1.46816 -1.89661,-3.29429c-0.01125,-1.82613 0.81964,-3.31198 1.85586,-3.31872c1.03621,-0.00675 1.88537,1.46815 1.89661,3.29429z" data-paper-data="{&quot;origPos&quot;:null}"/><path d="M250.63635,107.31639c0.01125,1.82614 -0.81964,3.31198 -1.85586,3.31872c-1.03621,0.00675 -1.88537,-1.46816 -1.89661,-3.29429c-0.01125,-1.82613 0.81964,-3.31198 1.85586,-3.31872c1.03621,-0.00675 1.88537,1.46815 1.89661,3.29429z" data-paper-data="{&quot;origPos&quot;:null}"/><path d="M250.93321,111.99886c0.01125,1.82614 -0.81964,3.31198 -1.85586,3.31872c-1.03621,0.00675 -1.88537,-1.46816 -1.89661,-3.29429c-0.01125,-1.82614 0.81964,-3.31197 1.85586,-3.31871c1.03621,-0.00675 1.88537,1.46815 1.89661,3.29428z" data-paper-data="{&quot;origPos&quot;:null}"/><path d="M250.69478,117.23315c0.01125,1.82614 -0.81964,3.31198 -1.85586,3.31872c-1.03621,0.00675 -1.88537,-1.46815 -1.89661,-3.29429c-0.01125,-1.82614 0.81964,-3.31198 1.85586,-3.31872c1.03621,-0.00675 1.88537,1.46815 1.89661,3.29429z" data-paper-data="{&quot;origPos&quot;:null}"/></g><g data-paper-data="{&quot;origPos&quot;:null,&quot;origRot&quot;:0,&quot;index&quot;:null}"><path d="M225.74115,99.66044c1.03621,0.00675 1.86712,1.49259 1.85586,3.31872c-0.01125,1.82613 -0.8604,3.30104 -1.89661,3.29429c-1.03621,-0.00675 -1.86712,-1.49259 -1.85586,-3.31872c0.01125,-1.82614 0.8604,-3.30104 1.89661,-3.29429z" data-paper-data="{&quot;origPos&quot;:null}"/><path d="M225.56826,95.11571c1.03621,0.00675 1.86712,1.49259 1.85586,3.31872c-0.01125,1.82613 -0.8604,3.30104 -1.89661,3.29429c-1.03621,-0.00675 -1.86712,-1.49259 -1.85586,-3.31872c0.01125,-1.82614 0.8604,-3.30104 1.89661,-3.29429z" data-paper-data="{&quot;origPos&quot;:null}"/><path d="M225.39536,90.57097c1.03621,0.00675 1.86712,1.49259 1.85586,3.31872c-0.01125,1.82613 -0.8604,3.30104 -1.89661,3.29429c-1.03621,-0.00675 -1.86712,-1.49259 -1.85586,-3.31872c0.01125,-1.82614 0.8604,-3.30104 1.89661,-3.29429z" data-paper-data="{&quot;origPos&quot;:null}"/><path d="M225.62171,86.44193c1.03621,0.00675 1.86712,1.49259 1.85586,3.31872c-0.01125,1.82613 -0.8604,3.30104 -1.89661,3.29429c-1.03621,-0.00675 -1.86712,-1.49259 -1.85586,-3.31872c0.01125,-1.82614 0.8604,-3.30104 1.89661,-3.29429z" data-paper-data="{&quot;origPos&quot;:null}"/><path d="M225.97963,104.89474c1.03621,0.00675 1.86712,1.49259 1.85586,3.31872c-0.01125,1.82613 -0.8604,3.30104 -1.89661,3.29429c-1.03621,-0.00675 -1.86712,-1.49258 -1.85586,-3.31872c0.01125,-1.82614 0.8604,-3.30104 1.89661,-3.29429z" data-paper-data="{&quot;origPos&quot;:null}"/><path d="M225.68272,109.57722c1.03621,0.00675 1.86712,1.49257 1.85586,3.31871c-0.01125,1.82613 -0.8604,3.30104 -1.89661,3.29429c-1.03621,-0.00675 -1.86712,-1.49258 -1.85586,-3.31872c0.01125,-1.82613 0.8604,-3.30103 1.89661,-3.29428z" data-paper-data="{&quot;origPos&quot;:null}"/><path d="M225.92118,114.81152c1.03621,0.00675 1.86712,1.49258 1.85586,3.31872c-0.01125,1.82614 -0.8604,3.30104 -1.89661,3.29429c-1.03621,-0.00675 -1.86712,-1.49258 -1.85586,-3.31872c0.01125,-1.82614 0.8604,-3.30104 1.89661,-3.29429z" data-paper-data="{&quot;origPos&quot;:null}"/></g><g data-paper-data="{&quot;origPos&quot;:null,&quot;origRot&quot;:0,&quot;index&quot;:null}"><path d="M254.82884,99.62461c0.09465,1.82358 -0.6675,3.34789 -1.70225,3.40464c-1.03476,0.05675 -1.95033,-1.37555 -2.04496,-3.19913c-0.09465,-1.82358 0.6675,-3.34789 1.70225,-3.40464c1.03476,-0.05675 1.95032,1.37554 2.04496,3.19913z" data-paper-data="{&quot;origPos&quot;:null}"/><path d="M254.79401,95.07656c0.09465,1.82358 -0.6675,3.34789 -1.70225,3.40464c-1.03476,0.05675 -1.95033,-1.37555 -2.04496,-3.19913c-0.09465,-1.82358 0.6675,-3.34789 1.70225,-3.40464c1.03476,-0.05675 1.95032,1.37554 2.04496,3.19913z" data-paper-data="{&quot;origPos&quot;:null}"/><path d="M254.75911,90.5285c0.09465,1.82358 -0.6675,3.34789 -1.70225,3.40464c-1.03476,0.05675 -1.95033,-1.37555 -2.04496,-3.19913c-0.09465,-1.82358 0.6675,-3.34789 1.70225,-3.40464c1.03476,-0.05675 1.95032,1.37554 2.04496,3.19913z" data-paper-data="{&quot;origPos&quot;:null}"/><path d="M254.34451,86.41492c0.09465,1.82358 -0.6675,3.34789 -1.70225,3.40464c-1.03476,0.05675 -1.95033,-1.37555 -2.04496,-3.19913c-0.09465,-1.82358 0.6675,-3.34789 1.70225,-3.40464c1.03476,-0.05675 1.95032,1.37554 2.04496,3.19913z" data-paper-data="{&quot;origPos&quot;:null}"/><path d="M254.82969,104.86465c0.09465,1.82358 -0.6675,3.34789 -1.70225,3.40464c-1.03476,0.05675 -1.95033,-1.37555 -2.04496,-3.19913c-0.09465,-1.82358 0.6675,-3.34789 1.70225,-3.40464c1.03476,-0.05675 1.95032,1.37554 2.04496,3.19913z" data-paper-data="{&quot;origPos&quot;:null}"/><path d="M255.3401,109.52764c0.09465,1.82358 -0.6675,3.34789 -1.70225,3.40464c-1.03476,0.05675 -1.95033,-1.37555 -2.04496,-3.19913c-0.09465,-1.82358 0.6675,-3.34787 1.70225,-3.40463c1.03476,-0.05675 1.95032,1.37554 2.04496,3.19912z" data-paper-data="{&quot;origPos&quot;:null}"/><path d="M255.34096,114.76768c0.09465,1.82358 -0.6675,3.34789 -1.70225,3.40464c-1.03476,0.05675 -1.95032,-1.37554 -2.04496,-3.19913c-0.09465,-1.82358 0.6675,-3.34789 1.70225,-3.40464c1.03476,-0.05675 1.95032,1.37554 2.04496,3.19913z" data-paper-data="{&quot;origPos&quot;:null}"/></g></g><g data-paper-data="{&quot;origPos&quot;:null}" stroke="none" stroke-width="0"><g data-paper-data="{&quot;origPos&quot;:null}" stroke-linecap="butt"><path d="M252.41497,108.60647c-4.46419,8.45961 -19.75661,8.82698 -26.02421,0.46346c2.59556,-0.99406 6.22893,-2.43893 6.22893,-2.43893l0.60263,-8.44302l12.28009,-0.19277l0.72695,8.10007c0,0 5.54547,2.17411 6.18563,2.51119z" data-paper-data="{&quot;origPos&quot;:null}" fill="#4c392b"/><path d="M233.30914,98.04333l12.28009,-0.19277l0.65672,8.01189c-3.33067,0.04163 -10.9482,-0.29041 -13.38278,-2.35193z" data-paper-data="{&quot;origPos&quot;:null}" fill="#000000"/></g><path d="M239.56075,103.39017c-9.93993,0.0865 -14.81088,-8.07037 -16.44853,-16.71704c-2.53397,-0.9793 -4.04273,-5.98934 -3.09686,-7.76832c1.04473,-2.16662 2.41929,-0.32413 2.38392,-0.85695c-0.26317,-7.93666 2.55368,-19.71876 18.37336,-19.88546c12.91541,0.54313 15.04269,13.82984 14.94045,19.61873c0,0 1.18975,-1.03783 2.42619,-0.00502c1.32255,2.16107 -0.89347,7.24796 -3.13823,8.1289c-1.13577,9.22248 -5.14329,17.51845 -15.44031,17.48519z" data-paper-data="{&quot;origPos&quot;:null}" fill="#4c392b" stroke-linecap="round"/></g><path d="M219.38884,110.11708c0,0 4.49157,-1.26624 9.0185,-2.26055c2.58504,6.29833 18.95363,6.64535 21.92346,-0.09537c1.35958,0.32258 8.01555,1.76499 10.24401,2.26819c1.00273,0.22121 -0.18004,47.49531 -0.18004,47.49531c0,0 -7.34074,6.27695 -19.80491,6.35343c-11.75358,0.07212 -20.20818,-5.35789 -20.20818,-5.35789z" data-paper-data="{&quot;origPos&quot;:null,&quot;origRot&quot;:0}" fill="#00ad75" stroke="none" stroke-width="0" stroke-linecap="butt"/><path d="M227.16601,73.9256c2.61756,-1.41747 6.14597,-0.92458 8.15839,0.5739" data-paper-data="{&quot;origPos&quot;:null,&quot;origRot&quot;:0}" fill="none" stroke="#000000" stroke-width="2" stroke-linecap="round"/><path d="M243.76469,74.44374c2.01241,-1.49848 5.54082,-1.99137 8.15839,-0.5739" data-paper-data="{&quot;origPos&quot;:null,&quot;origRot&quot;:0,&quot;index&quot;:null}" fill="none" stroke="#000000" stroke-width="2" stroke-linecap="round"/><g data-paper-data="{&quot;origPos&quot;:null}" fill="none" stroke="#000000" stroke-width="1.5" stroke-linecap="round"><path d="M236.70221,87.0453c0,0 1.73848,-0.42527 2.103,0.45999" data-paper-data="{&quot;origPos&quot;:null}"/><path d="M240.90387,87.53999c0.23133,-0.8679 1.71745,-0.64224 1.71745,-0.64224" data-paper-data="{&quot;origPos&quot;:null}"/></g><g data-paper-data="{&quot;origPos&quot;:null}"><path d="M230.2037,81.71657c-2.35706,-0.34875 -3.96854,-2.14254 -3.65995,-3.34963c0.30859,-1.2071 2.42041,-1.3704 4.77747,-1.02165c2.35706,0.34875 4.06686,1.70625 3.75829,2.91335c-0.30857,1.2071 -2.51877,1.80669 -4.87581,1.45793z" data-paper-data="{&quot;origPos&quot;:null,&quot;origRot&quot;:0}" fill="#ffffff" stroke="none" stroke-width="0" stroke-linecap="butt"/><path d="M229.84645,79.95381c-0.1151,-1.65869 0.87326,-2.3907 2.41396,-2.35379c3.11053,0.529 4.05225,3.37878 0.95872,4.09057c-1.70722,0.38752 -3.25961,0.18875 -3.37268,-1.73677z" data-paper-data="{&quot;origPos&quot;:null,&quot;origRot&quot;:0}" fill="#000000" stroke="none" stroke-width="1" stroke-linecap="butt"/><path d="M226.55678,77.89557c2.72162,-1.03893 6.4892,-0.37472 8.3766,1.0498" data-paper-data="{&quot;origPos&quot;:null,&quot;origRot&quot;:0}" fill="none" stroke="#000000" stroke-width="1.5" stroke-linecap="round"/></g><g data-paper-data="{&quot;origPos&quot;:null}"><path d="M248.85891,81.54442c-2.32385,0.49639 -4.53671,0.00437 -4.94256,-1.09894c-0.40586,-1.10333 1.14899,-2.40016 3.47284,-2.89657c2.32385,-0.49639 4.69851,-0.37586 5.10435,0.72748c0.40584,1.10334 -1.31079,2.77164 -3.63463,3.26803z" data-paper-data="{&quot;origPos&quot;:null,&quot;origRot&quot;:0}" fill="#ffffff" stroke="none" stroke-width="0" stroke-linecap="butt"/><path d="M249.59219,77.10678c3.17578,-0.11139 3.965,1.93453 1.57796,3.55537c-1.32034,0.89011 -2.82004,0.93648 -3.52435,-0.67459c-1.08581,-2.48368 0.42824,-2.78011 1.94639,-2.88079z" data-paper-data="{&quot;origPos&quot;:null,&quot;origRot&quot;:0}" fill="#000000" stroke="none" stroke-width="1" stroke-linecap="butt"/><path d="M243.7159,79.16187c2.12435,-1.81311 6.03048,-2.17306 8.37721,-1.44907" data-paper-data="{&quot;origPos&quot;:null,&quot;origRot&quot;:0}" fill="none" stroke="#000000" stroke-width="1.5" stroke-linecap="round"/></g><g data-paper-data="{&quot;origPos&quot;:null}" fill="#000000" stroke="none" stroke-width="0" stroke-linecap="butt"><g data-paper-data="{&quot;origPos&quot;:null}"><path d="M229.51267,59.98328c0.79954,0.66102 0.56896,2.3578 -0.515,3.78985c-1.08396,1.43206 -2.61084,2.05712 -3.41036,1.39611c-0.79954,-0.66102 -0.56896,-2.3578 0.515,-3.78985c1.08396,-1.43207 2.61084,-2.05712 3.41036,-1.39611z" data-paper-data="{&quot;origPos&quot;:null,&quot;origRot&quot;:0}"/><path d="M234.10246,57.96505c0.50653,0.92457 -0.31217,2.40939 -1.82861,3.3164c-1.51644,0.90703 -3.15638,0.89278 -3.6629,-0.03178c-0.50653,-0.92457 0.31217,-2.40939 1.82861,-3.3164c1.51645,-0.90703 3.15638,-0.89278 3.6629,0.03178z" data-paper-data="{&quot;origPos&quot;:null,&quot;origRot&quot;:0}"/><path d="M238.77766,57.58404c0.18965,1.04671 -1.04846,2.17029 -2.7654,2.50957c-1.71694,0.33927 -3.26254,-0.23422 -3.45218,-1.28092c-0.18965,-1.04671 1.04846,-2.17029 2.7654,-2.50957c1.71695,-0.33927 3.26254,0.23422 3.45218,1.28092z" data-paper-data="{&quot;origPos&quot;:null,&quot;origRot&quot;:0}"/><path d="M241.2271,59.10922c-0.17562,0.76492 -1.33467,1.14152 -2.58878,0.84116c-1.25412,-0.30035 -2.12842,-1.16393 -1.95281,-1.92882c0.17562,-0.76492 1.33467,-1.14152 2.58878,-0.84116c1.25413,0.30035 2.12842,1.16393 1.95281,1.92882z" data-paper-data="{&quot;origPos&quot;:null,&quot;origRot&quot;:0}"/><path d="M225.97845,62.84454c0.93821,0.41674 1.14495,2.117 0.46176,3.79761c-0.68319,1.68062 -1.9976,2.7052 -2.9358,2.28846c-0.93821,-0.41674 -1.14495,-2.117 -0.46176,-3.79761c0.6832,-1.68063 1.9976,-2.7052 2.9358,-2.28846z" data-paper-data="{&quot;origPos&quot;:null,&quot;origRot&quot;:0}"/><path d="M221.34109,95.24167c1.01659,0.07853 1.73664,1.61859 1.60827,3.43978c-0.12837,1.8212 -1.05656,3.23389 -2.07313,3.15536c-1.01659,-0.07853 -1.73664,-1.61859 -1.60827,-3.43978c0.12837,-1.82121 1.05656,-3.23389 2.07313,-3.15536z" data-paper-data="{&quot;origPos&quot;:null,&quot;origRot&quot;:0}"/><path d="M221.46338,90.69533c1.01659,0.07853 1.73664,1.61859 1.60827,3.43978c-0.12837,1.8212 -1.05656,3.23389 -2.07313,3.15536c-1.01659,-0.07853 -1.73664,-1.61859 -1.60827,-3.43978c0.12837,-1.82121 1.05656,-3.23389 2.07313,-3.15536z" data-paper-data="{&quot;origPos&quot;:null,&quot;origRot&quot;:0}"/><path d="M221.58568,86.14897c1.01659,0.07853 1.73664,1.61859 1.60827,3.43978c-0.12837,1.8212 -1.05656,3.23389 -2.07313,3.15536c-1.01659,-0.07853 -1.73664,-1.61859 -1.60827,-3.43978c0.12837,-1.82121 1.05656,-3.23389 2.07313,-3.15536z" data-paper-data="{&quot;origPos&quot;:null,&quot;origRot&quot;:0}"/><path d="M222.07312,82.04499c1.01659,0.07853 1.73664,1.61859 1.60827,3.43978c-0.12837,1.8212 -1.05656,3.23389 -2.07313,3.15536c-1.01659,-0.07853 -1.73664,-1.61859 -1.60827,-3.43978c0.12837,-1.82121 1.05656,-3.23389 2.07313,-3.15536z" data-paper-data="{&quot;origPos&quot;:null,&quot;origRot&quot;:0}"/><path d="M222.05167,77.35835c1.01659,0.07853 1.73664,1.61859 1.60827,3.43978c-0.12837,1.8212 -1.05656,3.23389 -2.07313,3.15536c-1.01659,-0.07853 -1.73664,-1.61859 -1.60827,-3.43978c0.12837,-1.82121 1.05656,-3.23389 2.07313,-3.15536z" data-paper-data="{&quot;origPos&quot;:null,&quot;origRot&quot;:0}"/><path d="M222.69142,71.97426c1.01659,0.07853 1.73664,1.61859 1.60827,3.43978c-0.12837,1.8212 -1.05656,3.23389 -2.07313,3.15536c-1.01659,-0.07853 -1.73664,-1.61859 -1.60827,-3.43978c0.12837,-1.82121 1.05656,-3.23389 2.07313,-3.15536z" data-paper-data="{&quot;origPos&quot;:null,&quot;origRot&quot;:0}"/><path d="M223.85832,66.81266c1.0013,0.19983 1.54766,1.81595 1.22033,3.60968c-0.32734,1.79376 -1.40442,3.08587 -2.40571,2.88604c-1.0013,-0.19983 -1.54766,-1.81595 -1.22033,-3.60968c0.32734,-1.79376 1.40442,-3.08587 2.40571,-2.88604z" data-paper-data="{&quot;origPos&quot;:null,&quot;origRot&quot;:0}"/><path d="M221.23885,100.48062c1.01659,0.07853 1.73664,1.61859 1.60827,3.43978c-0.12837,1.8212 -1.05656,3.23389 -2.07313,3.15536c-1.01659,-0.07853 -1.73664,-1.61858 -1.60827,-3.43978c0.12837,-1.82121 1.05656,-3.23389 2.07313,-3.15536z" data-paper-data="{&quot;origPos&quot;:null,&quot;origRot&quot;:0}"/><path d="M220.6466,105.13187c1.01659,0.07853 1.73664,1.61857 1.60828,3.43977c-0.12837,1.8212 -1.05656,3.23389 -2.07313,3.15536c-1.01659,-0.07853 -1.73664,-1.61858 -1.60827,-3.43978c0.12837,-1.8212 1.05656,-3.23389 2.07313,-3.15535z" data-paper-data="{&quot;origPos&quot;:null,&quot;origRot&quot;:0}"/><path d="M220.54439,110.37077c1.01659,0.07853 1.73664,1.61858 1.60827,3.43978c-0.12837,1.82121 -1.05656,3.23389 -2.07313,3.15536c-1.01659,-0.07853 -1.73664,-1.61858 -1.60827,-3.43978c0.12837,-1.82121 1.05656,-3.23389 2.07313,-3.15536z" data-paper-data="{&quot;origPos&quot;:null,&quot;origRot&quot;:0}"/><path d="M220.56743,115.40457c1.01659,0.07853 1.73664,1.61858 1.60827,3.43978c-0.12837,1.82121 -1.05656,3.23389 -2.07313,3.15536c-1.01659,-0.07853 -1.73664,-1.61858 -1.60827,-3.43978c0.12837,-1.82121 1.05656,-3.23389 2.07313,-3.15536z" data-paper-data="{&quot;origPos&quot;:null,&quot;origRot&quot;:0}"/></g><g data-paper-data="{&quot;origPos&quot;:null}"><path d="M242.17524,57.05078c1.22971,-0.30196 2.36619,0.07666 2.53838,0.84567c0.17221,0.769 -0.68508,1.63721 -1.9148,1.93917c-1.22971,0.30196 -2.36619,-0.07666 -2.53838,-0.84567c-0.17221,-0.769 0.68508,-1.63721 1.9148,-1.93917z" data-paper-data="{&quot;origPos&quot;:null,&quot;origRot&quot;:0,&quot;index&quot;:null}"/><path d="M251.90129,61.08544c1.10067,1.43458 1.34124,3.13936 0.53731,3.8077c-0.80392,0.66834 -2.34792,0.04719 -3.44861,-1.38739c-1.10067,-1.43458 -1.34124,-3.13936 -0.53731,-3.8077c0.80392,-0.66834 2.34792,-0.04719 3.44861,1.38739z" data-paper-data="{&quot;origPos&quot;:null,&quot;origRot&quot;:0}"/><path d="M247.50774,57.64146c1.53476,0.90468 2.36795,2.39356 1.86097,3.32548c-0.50697,0.93192 -2.16213,0.95401 -3.6969,0.04933c-1.53476,-0.90468 -2.36795,-2.39356 -1.86097,-3.32548c0.50697,-0.93192 2.16212,-0.95402 3.6969,-0.04933z" data-paper-data="{&quot;origPos&quot;:null,&quot;origRot&quot;:0}"/><path d="M258.97042,98.26885c0.13798,1.83033 -0.58167,3.38203 -1.60736,3.46582c-1.02569,0.08379 -1.96905,-1.33207 -2.10704,-3.16241c-0.13798,-1.83033 0.58167,-3.38203 1.60736,-3.46582c1.02569,-0.08379 1.96905,1.33207 2.10704,3.16241z" data-paper-data="{&quot;origPos&quot;:null}"/><path d="M258.82595,93.69875c0.13798,1.83033 -0.58167,3.38203 -1.60736,3.46582c-1.02569,0.08379 -1.96905,-1.33207 -2.10704,-3.16241c-0.13798,-1.83033 0.58167,-3.38203 1.60736,-3.46582c1.02569,-0.08379 1.96905,1.33207 2.10704,3.16241z" data-paper-data="{&quot;origPos&quot;:null}"/><path d="M258.68155,89.12864c0.13798,1.83033 -0.58167,3.38203 -1.60736,3.46582c-1.02569,0.08379 -1.96905,-1.33207 -2.10704,-3.16241c-0.13798,-1.83033 0.58167,-3.38203 1.60736,-3.46582c1.02569,-0.08379 1.96905,1.33207 2.10704,3.16241z" data-paper-data="{&quot;origPos&quot;:null}"/><path d="M258.17055,85.00495c0.13798,1.83033 -0.58167,3.38203 -1.60736,3.46582c-1.02569,0.08379 -1.96905,-1.33207 -2.10704,-3.16241c-0.13798,-1.83033 0.58167,-3.38203 1.60736,-3.46582c1.02569,-0.08379 1.96905,1.33207 2.10704,3.16241z" data-paper-data="{&quot;origPos&quot;:null}"/><path d="M258.17055,80.29314c0.13798,1.83033 -0.58167,3.38203 -1.60736,3.46582c-1.02569,0.08379 -1.96905,-1.33207 -2.10704,-3.16241c-0.13798,-1.83033 0.58167,-3.38203 1.60736,-3.46582c1.02569,-0.08379 1.96905,1.33207 2.10704,3.16241z" data-paper-data="{&quot;origPos&quot;:null}"/><path d="M257.49996,74.88326c0.13798,1.83033 -0.58167,3.38203 -1.60736,3.46582c-1.02569,0.08379 -1.96905,-1.33207 -2.10704,-3.16241c-0.13798,-1.83033 0.58167,-3.38203 1.60736,-3.46582c1.02569,-0.08379 1.96905,1.33207 2.10704,3.16241z" data-paper-data="{&quot;origPos&quot;:null}"/><path d="M256.63277,69.42725c0.33868,1.80179 -0.20531,3.42915 -1.21503,3.6348c-1.0097,0.20565 -2.10279,-1.08829 -2.44147,-2.89008c-0.33868,-1.80179 0.20531,-3.42915 1.21503,-3.6348c1.0097,-0.20565 2.10279,1.08828 2.44147,2.89008z" data-paper-data="{&quot;origPos&quot;:null,&quot;origRot&quot;:0}"/><path d="M255.00678,64.84464c0.69732,1.68637 0.49652,3.39671 -0.44851,3.82013c-0.94502,0.42341 -2.27642,-0.60041 -2.97374,-2.28678c-0.69732,-1.68637 -0.49652,-3.39671 0.44851,-3.82013c0.94502,-0.42341 2.27642,0.6004 2.97374,2.28678z" data-paper-data="{&quot;origPos&quot;:null,&quot;origRot&quot;:0}"/><path d="M259.09776,103.53537c0.13798,1.83034 -0.58167,3.38203 -1.60736,3.46582c-1.02569,0.08379 -1.96905,-1.33207 -2.10704,-3.16241c-0.13798,-1.83033 0.58167,-3.38203 1.60736,-3.46582c1.02569,-0.08379 1.96905,1.33207 2.10704,3.16241z" data-paper-data="{&quot;origPos&quot;:null}"/><path d="M257.61001,105.04629c1.02569,-0.08379 1.96905,1.33207 2.10704,3.1624c0.13798,1.83034 -0.58167,3.38203 -1.60736,3.46582c-1.02569,0.08379 -1.96905,-1.33207 -2.10704,-3.16241c-0.13797,-1.83034 0.58168,-3.38202 1.60737,-3.46581z" data-paper-data="{&quot;origPos&quot;:null}"/><path d="M259.84443,113.47517c0.13798,1.83034 -0.58167,3.38203 -1.60736,3.46582c-1.02569,0.08379 -1.96905,-1.33207 -2.10704,-3.16241c-0.13798,-1.83034 0.58167,-3.38203 1.60736,-3.46582c1.02569,-0.08379 1.96905,1.33207 2.10704,3.16241z" data-paper-data="{&quot;origPos&quot;:null}"/><path d="M259.84443,118.53603c0.13798,1.83034 -0.58167,3.38203 -1.60736,3.46582c-1.02569,0.08379 -1.96905,-1.33207 -2.10704,-3.16241c-0.13798,-1.83034 0.58167,-3.38203 1.60736,-3.46582c1.02569,-0.08379 1.96905,1.33207 2.10704,3.16241z" data-paper-data="{&quot;origPos&quot;:null}"/></g><g data-paper-data="{&quot;origPos&quot;:null,&quot;origRot&quot;:0}"><path d="M231.76642,56.38126c0.44987,0.73004 -0.1569,2.03117 -1.35529,2.90613c-1.19839,0.87496 -2.53457,0.99247 -2.98443,0.26244c-0.44987,-0.73004 0.1569,-2.03116 1.35529,-2.90612c1.1984,-0.87499 2.53457,-0.99247 2.98443,-0.26244z" data-paper-data="{&quot;origPos&quot;:null,&quot;origRot&quot;:0}"/><path d="M235.81817,55.91653c0.15715,0.8676 -0.84986,1.85138 -2.24927,2.19732c-1.3994,0.34595 -2.66122,-0.07694 -2.81839,-0.94455c-0.15715,-0.8676 0.84987,-1.85139 2.24926,-2.19733c1.3994,-0.34595 2.66122,0.07695 2.81839,0.94456z" data-paper-data="{&quot;origPos&quot;:null,&quot;origRot&quot;:0}"/><path d="M239.52205,56.78445c-0.11822,0.88592 -1.35757,1.47514 -2.76819,1.31607c-1.41061,-0.15909 -2.45829,-1.00622 -2.34008,-1.89215c0.11822,-0.88592 1.35758,-1.47515 2.7682,-1.31607c1.41062,0.15909 2.45828,1.00624 2.34007,1.89215z" data-paper-data="{&quot;origPos&quot;:null,&quot;origRot&quot;:0}"/><path d="M240.5736,58.59032c-0.32885,0.56856 -1.3184,0.57936 -2.21021,0.02411c-0.89181,-0.55524 -1.34819,-1.46626 -1.01934,-2.03482c0.32885,-0.56856 1.3184,-0.57936 2.2102,-0.02411c0.89182,0.55526 1.34818,1.46627 1.01933,2.03483z" data-paper-data="{&quot;origPos&quot;:null,&quot;origRot&quot;:0}"/><path d="M228.31608,57.78609c0.61863,0.56918 0.34839,1.98283 -0.60355,3.15743c-0.95196,1.17461 -2.22517,1.66539 -2.84379,1.0962c-0.61863,-0.56918 -0.3484,-1.98285 0.60356,-3.15744c0.95197,-1.17461 2.22517,-1.66539 2.84379,-1.09619z" data-paper-data="{&quot;origPos&quot;:null,&quot;origRot&quot;:0}"/><path d="M219.03618,83.77786c0.86876,0.18422 1.30772,1.54961 0.98047,3.04966c-0.32725,1.50004 -1.29678,2.56676 -2.16553,2.38252c-0.86876,-0.18422 -1.30774,-1.54962 -0.98049,-3.04967c0.32725,-1.50004 1.2968,-2.56675 2.16553,-2.38252z" data-paper-data="{&quot;origPos&quot;:null,&quot;origRot&quot;:0}"/><path d="M219.68192,80.01005c0.86876,0.18422 1.30774,1.54962 0.98049,3.04967c-0.32725,1.50004 -1.29681,2.56674 -2.16556,2.38251c-0.86876,-0.18422 -1.30774,-1.54961 -0.98049,-3.04966c0.32725,-1.50004 1.29681,-2.56675 2.16555,-2.3825z" data-paper-data="{&quot;origPos&quot;:null,&quot;origRot&quot;:0}"/><path d="M220.32769,76.24222c0.86876,0.18422 1.30772,1.54962 0.98049,3.04967c-0.32725,1.50004 -1.2968,2.56675 -2.16555,2.38251c-0.86876,-0.18422 -1.30772,-1.54963 -0.98047,-3.04968c0.32725,-1.50005 1.2968,-2.56674 2.16554,-2.3825z" data-paper-data="{&quot;origPos&quot;:null,&quot;origRot&quot;:0}"/><path d="M221.23629,72.88509c0.86876,0.18422 1.30774,1.54962 0.98049,3.04966c-0.32725,1.50005 -1.2968,2.56676 -2.16555,2.38251c-0.86876,-0.18422 -1.30774,-1.54964 -0.98049,-3.04968c0.32725,-1.50005 1.2968,-2.56674 2.16554,-2.38251z" data-paper-data="{&quot;origPos&quot;:null,&quot;origRot&quot;:0}"/><path d="M221.77457,68.98375c0.86876,0.18422 1.30774,1.54962 0.98048,3.04966c-0.32725,1.50005 -1.2968,2.56675 -2.16554,2.38252c-0.86876,-0.18422 -1.30772,-1.54963 -0.98047,-3.04967c0.32725,-1.50005 1.2968,-2.56674 2.16553,-2.3825z" data-paper-data="{&quot;origPos&quot;:null,&quot;origRot&quot;:0}"/><path d="M222.9668,64.57949c0.86876,0.18422 1.30771,1.54963 0.98048,3.04967c-0.32725,1.50005 -1.2968,2.56675 -2.16554,2.38251c-0.86876,-0.18422 -1.30774,-1.54962 -0.98049,-3.04966c0.32725,-1.50005 1.2968,-2.56676 2.16553,-2.38251z" data-paper-data="{&quot;origPos&quot;:null,&quot;origRot&quot;:0}"/><path d="M224.86672,60.7082c0.84114,0.28335 1.12104,1.69171 0.6252,3.14565c-0.49583,1.45395 -1.57967,2.40292 -2.4208,2.11959c-0.84114,-0.28335 -1.12105,-1.69172 -0.62522,-3.14565c0.49584,-1.45395 1.57968,-2.40292 2.42081,-2.11957z" data-paper-data="{&quot;origPos&quot;:null,&quot;origRot&quot;:0}"/><path d="M218.25122,87.47232c0.87994,0.12192 1.41761,1.45253 1.2009,2.97197c-0.2167,1.51945 -1.10572,2.65239 -1.98566,2.53046c-0.87994,-0.12192 -1.4176,-1.45253 -1.20091,-2.97198c0.21672,-1.51945 1.10572,-2.65239 1.98565,-2.53045z" data-paper-data="{&quot;origPos&quot;:null,&quot;origRot&quot;:0}"/><path d="M216.22412,104.50871c0.8875,0.04271 1.5452,1.3198 1.46901,2.85241c-0.0762,1.5326 -0.85745,2.74039 -1.74494,2.69767c-0.8875,-0.04271 -1.5452,-1.3198 -1.46901,-2.85242c0.0762,-1.53261 0.85745,-2.74039 1.74493,-2.69766z" data-paper-data="{&quot;origPos&quot;:null,&quot;origRot&quot;:0}"/><path d="M217.46774,91.33832c0.87994,0.12192 1.41761,1.45251 1.20092,2.97197c-0.2167,1.51945 -1.10571,2.65239 -1.98565,2.53045c-0.87994,-0.12192 -1.41761,-1.45253 -1.20091,-2.97198c0.2167,-1.51945 1.10571,-2.65238 1.98565,-2.53045z" data-paper-data="{&quot;origPos&quot;:null,&quot;origRot&quot;:0}"/><path d="M215.79909,108.42895c0.8875,0.04271 1.5452,1.31979 1.46903,2.8524c-0.0762,1.5326 -0.85744,2.74039 -1.74493,2.69766c-0.8875,-0.04271 -1.5452,-1.3198 -1.46902,-2.85241c0.0762,-1.5326 0.85744,-2.74038 1.74493,-2.69766z" data-paper-data="{&quot;origPos&quot;:null,&quot;origRot&quot;:0}"/><path d="M217.0767,95.72401c0.87994,0.12192 1.41762,1.45252 1.20091,2.97198c-0.21672,1.51945 -1.10572,2.65239 -1.98566,2.53046c-0.87994,-0.12192 -1.41761,-1.45253 -1.20091,-2.97198c0.21672,-1.51945 1.10572,-2.65239 1.98565,-2.53046z" data-paper-data="{&quot;origPos&quot;:null,&quot;origRot&quot;:0}"/><path d="M215.81266,112.83161c0.8875,0.04271 1.54521,1.3198 1.46901,2.85242c-0.0762,1.53261 -0.85744,2.74038 -1.74493,2.69766c-0.8875,-0.04271 -1.5452,-1.3198 -1.46902,-2.85241c0.0762,-1.53261 0.85744,-2.74039 1.74492,-2.69767z" data-paper-data="{&quot;origPos&quot;:null,&quot;origRot&quot;:0}"/><path d="M216.80648,99.94465c0.87994,0.12192 1.41761,1.45253 1.2009,2.97198c-0.21672,1.51945 -1.10571,2.65239 -1.98564,2.53046c-0.87994,-0.12192 -1.41761,-1.45252 -1.20091,-2.97197c0.21672,-1.51945 1.10571,-2.65239 1.98565,-2.53047z" data-paper-data="{&quot;origPos&quot;:null,&quot;origRot&quot;:0}"/></g><g data-paper-data="{&quot;origPos&quot;:null,&quot;index&quot;:null,&quot;origRot&quot;:0}"><path d="M246.57508,56.60896c0.40888,-0.73557 1.66765,-0.64023 2.81154,0.21298c1.14388,0.8532 1.73969,2.14114 1.3308,2.87673c-0.40888,0.73558 -1.66766,0.64023 -2.81154,-0.21296c-1.14387,-0.85319 -1.73969,-2.14115 -1.33079,-2.87674z" data-paper-data="{&quot;origPos&quot;:null,&quot;origRot&quot;:0}"/><path d="M245.38795,55.22334c1.32265,0.32219 2.28868,1.28706 2.15772,2.15508c-0.13098,0.86801 -1.30937,1.31049 -2.63201,0.9883c-1.32265,-0.3222 -2.28868,-1.28706 -2.15772,-2.15507c0.13098,-0.86801 1.30935,-1.31049 2.63201,-0.98831z" data-paper-data="{&quot;origPos&quot;:null,&quot;origRot&quot;:0}"/><path d="M239.28977,57.13801c-0.12833,-0.88178 0.84045,-1.74395 2.16385,-1.92572c1.3234,-0.18176 2.50028,0.38574 2.62861,1.26752c0.12833,0.88178 -0.84045,1.74395 -2.16385,1.92572c-1.3234,0.18176 -2.50028,-0.38573 -2.62861,-1.26751z" data-paper-data="{&quot;origPos&quot;:null,&quot;origRot&quot;:0}"/><path d="M238.33595,58.95659c-0.32026,-0.56177 0.09123,-1.47798 0.91911,-2.04643c0.82786,-0.56844 1.75859,-0.57388 2.07887,-0.0121c0.32026,0.56177 -0.09124,1.47798 -0.91911,2.04644c-0.82786,0.56844 -1.7586,0.57387 -2.07888,0.01209z" data-paper-data="{&quot;origPos&quot;:null,&quot;origRot&quot;:0}"/><path d="M252.54234,59.00082c0.91795,1.15611 1.19947,2.56182 0.62877,3.13971c-0.57068,0.57789 -1.7775,0.10915 -2.69544,-1.04696c-0.91795,-1.15611 -1.19946,-2.56181 -0.62877,-3.1397c0.57068,-0.57789 1.77748,-0.10917 2.69544,1.04695z" data-paper-data="{&quot;origPos&quot;:null,&quot;origRot&quot;:0}"/><path d="M259.07716,83.72925c0.81335,-0.19797 1.74575,0.8502 2.08257,2.34117c0.3368,1.49096 -0.04953,2.86015 -0.86291,3.05812c-0.81336,0.19798 -1.74575,-0.85021 -2.08257,-2.34117c-0.33682,-1.49096 0.04952,-2.86015 0.8629,-3.05811z" data-paper-data="{&quot;origPos&quot;:null,&quot;origRot&quot;:0}"/><path d="M258.39688,79.98135c0.81336,-0.19799 1.74576,0.85018 2.08257,2.34116c0.3368,1.49096 -0.04953,2.86015 -0.86291,3.05811c-0.81336,0.19798 -1.74576,-0.85021 -2.08257,-2.34117c-0.3368,-1.49096 0.04953,-2.86014 0.86291,-3.05811z" data-paper-data="{&quot;origPos&quot;:null,&quot;origRot&quot;:0}"/><path d="M259.79913,78.57458c0.33682,1.49097 -0.04952,2.86016 -0.8629,3.05813c-0.81336,0.19798 -1.74576,-0.8502 -2.08257,-2.34117c-0.3368,-1.49096 0.04953,-2.86015 0.8629,-3.05812c0.81335,-0.19799 1.74575,0.85018 2.08257,2.34116z" data-paper-data="{&quot;origPos&quot;:null,&quot;origRot&quot;:0}"/><path d="M258.87971,75.24068c0.3368,1.49096 -0.04953,2.86015 -0.86291,3.05812c-0.81336,0.19798 -1.74576,-0.85021 -2.08257,-2.34117c-0.3368,-1.49096 0.04953,-2.86014 0.86291,-3.05811c0.81336,-0.19799 1.74576,0.85019 2.08257,2.34117z" data-paper-data="{&quot;origPos&quot;:null,&quot;origRot&quot;:0}"/><path d="M258.29787,71.35783c0.33682,1.49096 -0.04952,2.86015 -0.8629,3.05811c-0.81336,0.19798 -1.74575,-0.8502 -2.08257,-2.34117c-0.33682,-1.49096 0.04952,-2.86014 0.8629,-3.05811c0.81336,-0.19798 1.74575,0.85019 2.08257,2.34117z" data-paper-data="{&quot;origPos&quot;:null,&quot;origRot&quot;:0}"/><path d="M255.00882,64.64288c0.81335,-0.19799 1.74575,0.85019 2.08257,2.34117c0.3368,1.49096 -0.04953,2.86014 -0.86291,3.05811c-0.81336,0.19798 -1.74576,-0.8502 -2.08258,-2.34117c-0.3368,-1.49096 0.04953,-2.86015 0.86291,-3.05811z" data-paper-data="{&quot;origPos&quot;:null,&quot;origRot&quot;:0}"/><path d="M253.14719,60.8123c0.78548,-0.29639 1.82307,0.63247 2.31753,2.07471c0.49444,1.44222 0.25853,2.85164 -0.52695,3.14805c-0.78548,0.29639 -1.82308,-0.63248 -2.31753,-2.0747c-0.49444,-1.44222 -0.25853,-2.85165 0.52695,-3.14806z" data-paper-data="{&quot;origPos&quot;:null,&quot;origRot&quot;:0}"/><path d="M259.88696,87.40167c0.8251,-0.13602 1.68304,0.97954 1.91628,2.49169c0.23323,1.51214 -0.24658,2.84823 -1.07167,2.98424c-0.8251,0.13601 -1.68307,-0.97956 -1.9163,-2.49169c-0.23323,-1.51213 0.24658,-2.84823 1.07168,-2.98424z" data-paper-data="{&quot;origPos&quot;:null,&quot;origRot&quot;:0}"/><path d="M262.12333,104.36255c0.83374,-0.05714 1.5918,1.13485 1.69315,2.66241c0.10136,1.52755 -0.49236,2.81221 -1.32612,2.86936c-0.83375,0.05714 -1.59181,-1.13487 -1.69317,-2.66242c-0.10136,-1.52755 0.49237,-2.81221 1.32613,-2.86935z" data-paper-data="{&quot;origPos&quot;:null,&quot;origRot&quot;:0}"/><path d="M260.69856,91.24526c0.8251,-0.13601 1.68306,0.97955 1.91629,2.49168c0.23323,1.51214 -0.24658,2.84823 -1.07168,2.98424c-0.8251,0.13602 -1.68306,-0.97955 -1.91629,-2.49168c-0.23321,-1.51214 0.2466,-2.84822 1.07169,-2.98423z" data-paper-data="{&quot;origPos&quot;:null,&quot;origRot&quot;:0}"/><path d="M262.599,108.26608c0.83375,-0.05714 1.5918,1.13486 1.69316,2.66241c0.10136,1.52755 -0.49236,2.81221 -1.32612,2.86936c-0.83375,0.05714 -1.5918,-1.13487 -1.69316,-2.66241c-0.10135,-1.52755 0.49237,-2.8122 1.32613,-2.86935z" data-paper-data="{&quot;origPos&quot;:null,&quot;origRot&quot;:0}"/><path d="M261.15137,95.61363c0.8251,-0.13601 1.68306,0.97955 1.91629,2.4917c0.23323,1.51214 -0.24658,2.84823 -1.07168,2.98424c-0.8251,0.13601 -1.68306,-0.97955 -1.91629,-2.49169c-0.23323,-1.51214 0.24658,-2.84823 1.07168,-2.98425z" data-paper-data="{&quot;origPos&quot;:null,&quot;origRot&quot;:0}"/><path d="M262.67159,112.65803c0.83373,-0.05714 1.5918,1.13487 1.69316,2.66242c0.10136,1.52755 -0.49237,2.81221 -1.32613,2.86936c-0.83375,0.05714 -1.5918,-1.13486 -1.69316,-2.66242c-0.10136,-1.52755 0.49236,-2.81221 1.32613,-2.86936z" data-paper-data="{&quot;origPos&quot;:null,&quot;origRot&quot;:0}"/><path d="M263.40351,102.31105c0.23323,1.51214 -0.24658,2.84823 -1.07168,2.98424c-0.8251,0.13601 -1.68304,-0.97955 -1.91629,-2.49169c-0.23323,-1.51214 0.24658,-2.84824 1.07167,-2.98425c0.8251,-0.13601 1.68306,0.97956 1.91629,2.4917z" data-paper-data="{&quot;origPos&quot;:null,&quot;origRot&quot;:0}"/></g></g><g data-paper-data="{&quot;origPos&quot;:null}" fill="none" stroke="#00ad75" stroke-width="1.5"><path d="M225.76153,82.89641c-1.50462,-1.26072 -1.73513,-3.95469 -1.73513,-5.77635c0,-2.21249 11.23696,-2.09989 12.81426,-0.53772c0.68851,0.6819 0.73101,4.3402 -0.86857,6.05513c-1.59958,1.71493 -8.87541,1.37762 -10.21056,0.25894z" data-paper-data="{&quot;origPos&quot;:null}" stroke-linecap="butt"/><path d="M255.24726,77.30804c0,1.82166 -0.23048,4.51563 -1.73513,5.77635c-1.33512,1.1187 -8.92174,1.09281 -10.41057,-0.50337c-1.59959,-1.71493 -1.51953,-4.76873 -0.89079,-5.92179c1.01085,-1.85383 13.0365,-1.56369 13.0365,0.64881z" data-paper-data="{&quot;origPos&quot;:null,&quot;index&quot;:null}" stroke-linecap="butt"/><path d="M237.20251,76.84008c0,0 1.48557,-0.59801 2.4878,-0.56367c1.00222,0.03435 2.21137,0.72471 2.21137,0.72471" data-paper-data="{&quot;origPos&quot;:null}" stroke-linecap="round"/></g><g><path d="M237.73285,91.71798c0.7538,0.08724 1.45966,0.39519 2.01843,0.88059c0.56053,-0.48657 1.26891,-0.79462 2.02504,-0.88059c1.05097,0.1502 2.07243,0.44697 3.03094,0.88059c0,0 -0.17358,2.73482 -2.192,3.61541c-1.61405,0.65419 -3.35514,0.74098 -4.96919,0.08679c-1.26423,-0.58462 -2.23318,-1.67856 -2.95078,-2.82161c0,0 2.02504,-1.76118 3.03756,-1.76118z" data-paper-data="{&quot;origPos&quot;:null}" fill="#241b15" stroke="none" stroke-width="1" stroke-linecap="butt"/><path d="M245.14383,92.59433c-2.88383,1.48931 -7.67909,1.96439 -10.85948,0.15343" data-paper-data="{&quot;origPos&quot;:null,&quot;origRot&quot;:0,&quot;index&quot;:null}" fill="none" stroke="#000000" stroke-width="1.5" stroke-linecap="round"/></g><g><g data-paper-data="{&quot;origPos&quot;:null,&quot;origRot&quot;:0,&quot;index&quot;:null}" stroke-linecap="round"><path d="M231.36906,291.39024c2.94508,2.20059 11.98968,1.17009 7.99814,6.52376c-2.72827,3.65928 -7.50982,2.93002 -12.16155,2.28462c-3.93013,-0.54529 -4.29201,-4.61313 -8.25968,-4.64288c-4.20882,-0.03154 -8.19511,0.57108 -10.5937,-2.15857c-0.85262,-0.9703 3.01189,-10.32502 3.01189,-10.32502c0,0 4.24289,2.03831 6.45504,2.09305c2.73495,0.06767 7.04544,-1.28124 7.04544,-1.28124c0,0 3.55934,5.30569 6.50442,7.50628z" data-paper-data="{&quot;origPos&quot;:null}" fill="#ffffff" stroke="none" stroke-width="0"/><path d="M209.77324,296.75764c-2.00891,-1.06096 -1.91001,-1.78921 -1.57702,-3.5276c3.03556,1.89639 2.46643,2.39328 10.56117,1.85593c2.89724,0.28927 4.5324,3.43192 8.15304,4.584c9.6243,1.95982 12.12497,-1.72002 13.49514,-3.18021c-0.032,1.12712 -0.31029,2.29998 -0.81272,2.97387c-2.72827,3.65928 -7.37411,3.08309 -12.02584,2.43769c-6.62145,-1.57659 -5.17571,-4.37643 -9.14339,-4.40617c-4.20882,-0.03154 -5.89817,0.716 -8.65039,-0.73753z" data-paper-data="{&quot;origPos&quot;:null}" fill="#a5a5a5" stroke="none" stroke-width="0"/><path d="M230.86523,291.06962l-2.36168,2.09378" data-paper-data="{&quot;origPos&quot;:null}" fill="none" stroke="#000000" stroke-width="1.5"/><path d="M226.64238,291.06413l2.23793,-2.10123" data-paper-data="{&quot;origPos&quot;:null}" fill="none" stroke="#000000" stroke-width="1.5"/><path d="M224.66492,288.83363l2.35424,-1.97002" data-paper-data="{&quot;origPos&quot;:null}" fill="none" stroke="#000000" stroke-width="1.5"/></g><path d="M211.38196,233.19456c1.07887,-11.88554 7.1744,-14.68908 13.85429,-14.1286c6.67988,0.56049 10.19397,6.74296 9.15401,15.88429c-0.49881,11.45869 -5.95661,49.51279 -5.95661,49.51279c0,0 -6.08841,2.52147 -9.71446,2.1923c-3.78872,-0.34396 -9.22231,-3.05146 -9.22369,-3.0521c0,0 0.89951,-40.57297 1.88647,-50.40866z" data-paper-data="{&quot;origPos&quot;:null,&quot;origRot&quot;:0,&quot;index&quot;:null}" fill="#d7cbb5" stroke="none" stroke-width="0" stroke-linecap="butt"/></g><g><g data-paper-data="{&quot;origPos&quot;:null,&quot;origRot&quot;:0}" stroke-linecap="round"><path d="M274.25038,291.05879c3.01588,2.10251 12.02167,0.77505 8.2084,6.25711c-2.60642,3.74706 -7.40936,3.17549 -12.07979,2.68346c-3.94594,-0.4157 -4.44145,-4.46944 -8.40794,-4.36865c-4.20759,0.10693 -8.17187,0.84036 -10.65896,-1.80892c-0.88408,-0.94173 2.67061,-10.41852 2.67061,-10.41852c0,0 3.64671,1.6945 7.45034,1.79782c1.26788,0.03444 6.0695,-1.43058 6.0695,-1.43058c0,0 3.73196,5.18576 6.74784,7.28828z" data-paper-data="{&quot;origPos&quot;:null,&quot;index&quot;:null}" fill="#ffffff" stroke="none" stroke-width="0"/><path d="M251.1506,293.6599c3.09631,1.7955 2.54382,2.31085 10.61651,1.5075c2.90519,0.1938 4.64283,3.28097 8.29941,4.31332c9.68357,1.64216 12.06182,-2.11795 13.38323,-3.62242c0.00511,1.12758 -0.23446,2.30896 -0.71446,2.99901c-2.60642,3.74706 -7.26869,3.324 -11.93914,2.83198c-6.66973,-1.35792 -5.31687,-4.2038 -9.28337,-4.10301c-4.20759,0.10693 -5.87146,0.90965 -8.66997,-0.45255c-2.04272,-0.99431 -1.96783,-1.7254 -1.69222,-3.47382z" data-paper-data="{&quot;origPos&quot;:null,&quot;index&quot;:null}" fill="#a5a5a5" stroke="none" stroke-width="0"/><path d="M271.44471,292.92535l2.29152,-2.17032" data-paper-data="{&quot;origPos&quot;:null,&quot;index&quot;:null}" fill="none" stroke="#000000" stroke-width="1.5"/><path d="M271.68312,288.71482l-2.16759,2.17369" data-paper-data="{&quot;origPos&quot;:null,&quot;index&quot;:null}" fill="none" stroke="#000000" stroke-width="1.5"/><path d="M269.754,286.67785l-2.28817,2.0464" data-paper-data="{&quot;origPos&quot;:null,&quot;index&quot;:null}" fill="none" stroke="#000000" stroke-width="1.5"/></g><path d="M270.69311,282.98454c-0.00142,0.00063 -5.85409,3.74723 -9.69032,4.01334c-3.6715,0.25468 -8.62067,-2.36781 -8.62067,-2.36781c0,0 -5.64023,-38.17025 -5.92251,-49.63694c-0.87414,-9.1609 2.502,-15.28189 9.26475,-15.70513c6.76275,-0.42324 12.86968,2.50489 13.73003,14.41024c0.80713,9.85401 1.23873,49.2863 1.23873,49.2863z" data-paper-data="{&quot;origPos&quot;:null,&quot;origRot&quot;:0,&quot;index&quot;:null}" fill="#d7cbb5" stroke="none" stroke-width="0" stroke-linecap="butt"/></g><path d="M283.9944,181.45369c0,0 1.1548,3.12107 1.23429,4.38334c-0.03457,0.4039 0.24753,3.59327 -0.86986,3.42372c-0.99468,-0.03875 -0.64439,-1.36889 -0.9256,-2.51404c-0.27507,-1.12008 -0.99506,-3.37187 -0.99506,-3.37187c0,0 0.48682,2.71693 0.56309,4.33479c-0.15315,1.60439 0.3029,4.81796 -1.09387,4.66405c-1.17055,-0.36606 -0.72714,-3.02692 -0.85684,-3.62599c-0.29586,-1.36654 -0.50882,-3.58446 -0.9994,-3.75597c0.19904,1.38061 0.38452,3.09349 0.42148,4.48048c0.03099,1.16348 -0.08293,3.61878 -0.6382,4.64165c-0.44221,0.81461 -1.35391,0.93713 -1.65137,0.05926c-0.23151,-0.512 0.12737,-3.17734 0.08022,-3.73727c-0.14147,-1.67981 -0.16994,-3.49496 -0.71238,-4.39069c0.09313,1.49931 0.13002,3.51191 -0.06289,5.68831c-0.17971,2.02746 -0.86612,4.94654 -1.65784,4.68196c-2.12149,-0.31088 -0.38601,-3.47895 -0.58061,-5.95797c-0.21817,-2.77926 -0.67887,-3.46798 -1.51433,-6.08401c-0.47957,1.38983 0.16423,3.14835 -0.75314,4.45506c-1.19555,1.35297 -1.76782,0.08407 -1.77068,-0.46003c-0.00387,-1.91575 -0.93025,-5.31559 -0.39923,-7.17215c0.44568,-1.92103 1.06361,-4.39454 1.67824,-6.46434c-0.20352,-2.1347 -4.58792,-14.64013 -5.43017,-21.8757c-0.00583,-0.0505 0.45051,-4.68686 3.84006,-5.34509c3.37662,-0.91061 5.73716,2.32657 6.06748,3.61791c2.61398,5.90807 2.61581,22.04756 2.61581,22.04756z" data-paper-data="{&quot;origPos&quot;:null,&quot;origRot&quot;:0,&quot;index&quot;:null}" fill="#4c392b" stroke="none" stroke-width="0" stroke-linecap="butt"/><path d="M200.65762,172.91557c0,0 0.00183,-16.1395 2.61581,-22.04756c0.33033,-1.29133 2.69086,-4.52851 6.06748,-3.61791c3.38955,0.65822 3.84589,5.29458 3.84005,5.34509c-0.84225,7.23557 -5.22665,19.741 -5.43017,21.8757c0.61463,2.0698 1.23255,4.5433 1.67824,6.46434c0.53103,1.85655 -0.39538,5.25639 -0.39923,7.17215c-0.00286,0.5441 -0.57513,1.81301 -1.77067,0.46003c-0.91737,-1.30671 -0.27357,-3.06522 -0.75314,-4.45506c-0.83547,2.61604 -1.29617,3.30475 -1.51433,6.084c-0.1946,2.47902 1.54088,5.6471 -0.58061,5.95797c-0.7917,0.26458 -1.47814,-2.6545 -1.65784,-4.68196c-0.19291,-2.1764 -0.15602,-4.18899 -0.06289,-5.68831c-0.54245,0.89573 -0.57091,2.71087 -0.71237,4.39069c-0.04716,0.55994 0.31174,3.22527 0.08022,3.73728c-0.29746,0.87787 -1.20915,0.75535 -1.65137,-0.05926c-0.55527,-1.02289 -0.6692,-3.47817 -0.63821,-4.64165c0.03696,-1.387 0.22244,-3.09987 0.42148,-4.48048c-0.49057,0.1715 -0.70353,2.38942 -0.9994,3.75597c-0.1297,0.59907 0.31372,3.25993 -0.85684,3.62599c-1.39677,0.1539 -0.94073,-3.05967 -1.09387,-4.66405c0.07626,-1.61787 0.56309,-4.33479 0.56309,-4.33479c0,0 -0.71999,2.2518 -0.99506,3.37187c-0.28123,1.14514 0.06907,2.47529 -0.9256,2.51404c-1.11739,0.16955 -0.83528,-3.01983 -0.86986,-3.42373c0.07949,-1.26226 1.2343,-4.38333 1.2343,-4.38333z" data-paper-data="{&quot;origPos&quot;:null,&quot;origRot&quot;:0,&quot;index&quot;:null}" fill="#4c392b" stroke="none" stroke-width="0" stroke-linecap="butt"/></g></g></svg>