<svg version="1.1" xmlns="http://www.w3.org/2000/svg" xmlns:xlink="http://www.w3.org/1999/xlink" width="95.06618" height="246.88579"><g transform="translate(-192.04191,-56.4612)"><g data-paper-data="{&quot;isPaintingLayer&quot;:true}" fill-rule="nonzero" stroke-miterlimit="10" stroke-dasharray="" stroke-dashoffset="0" style="mix-blend-mode: normal"><g stroke="none" stroke-linejoin="miter"><g data-paper-data="{&quot;origPos&quot;:null}" stroke-width="0" stroke-linecap="butt"><path d="M253.15586,109.03003c-4.72232,8.22842 -20.89894,8.58573 -27.52893,0.4508c2.74564,-0.96689 6.58908,-2.37226 6.58908,-2.37226l0.63746,-8.21227l12.99013,-0.18749l0.76898,7.87867c0,0 5.86611,2.11469 6.54328,2.44254z" data-paper-data="{&quot;origPos&quot;:null}" fill="#4c392b"/><path d="M232.94526,98.92227l12.99013,-0.1875l0.6947,7.79293c-3.52326,0.04049 -11.58124,-0.28246 -14.1566,-2.28764z" data-paper-data="{&quot;origPos&quot;:null}" fill="#000000"/></g><g data-paper-data="{&quot;origPos&quot;:null}"><g data-paper-data="{&quot;origPos&quot;:null}" fill="none" stroke-width="1" stroke-linecap="butt" font-family="sans-serif" font-weight="normal" font-size="12" text-anchor="start"/><path d="M254.95541,77.27449c0.07146,-0.00672 1.82134,-1.46262 2.66544,0.69658c0.65609,1.67826 -0.98923,6.67155 -2.89441,8.01548c-1.55259,10.49736 -2.79889,17.63295 -15.44268,17.49678c-12.07217,0.22387 -13.86623,-7.75373 -15.86115,-16.87178c-2.05839,-2.8746 -2.64942,-4.35911 -3.09094,-6.66436c-0.39751,-1.86764 0.9639,-3.78698 2.82125,-2.7161c0.22323,-13.25606 6.61101,-18.49939 16.50326,-18.88448c9.89224,-0.3851 15.84911,8.92868 15.29923,18.92787z" data-paper-data="{&quot;origPos&quot;:null}" fill="#4c392b" stroke-width="0" stroke-linecap="round"/></g></g><g stroke="none" stroke-width="0" stroke-linecap="butt" stroke-linejoin="miter"><path d="M257.72757,109.38006c2.80731,0.50774 3.92531,0.07726 6.89014,3.03767c8.82354,8.81143 11.85318,36.0817 12.99256,40.61049c-0.05555,2.11321 0.38277,5.75008 -2.96401,6.52766c-3.3054,0.76795 -6.10134,-0.80642 -7.19232,-3.26031c-1.01418,-3.53863 -4.49127,-16.61103 -5.90575,-20.88556" data-paper-data="{&quot;origPos&quot;:null,&quot;origRot&quot;:0,&quot;index&quot;:null}" fill="#4c392b"/><path d="M256.813,109.59466c3.2596,0.48152 6.01185,0.16919 9.59436,3.63744c7.17142,6.94347 9.51423,16.27853 11.27396,25.41931c-2.35793,1.1315 -14.72036,4.40469 -17.21916,5.30165" data-paper-data="{&quot;origPos&quot;:null,&quot;index&quot;:null}" fill="#28886a"/></g><g stroke="none" stroke-width="0" stroke-linecap="butt" stroke-linejoin="miter"><path d="M217.60198,135.69153c-1.41448,4.27454 -4.89157,17.34694 -5.90575,20.88556c-1.09097,2.45389 -3.88692,4.02826 -7.19232,3.26031c-3.34678,-0.77759 -2.90846,-4.41447 -2.96401,-6.52766c1.13938,-4.52879 4.16903,-31.79905 12.99256,-40.61049c2.96483,-2.96041 4.08283,-2.52994 6.89014,-3.03767" data-paper-data="{&quot;origPos&quot;:null,&quot;origRot&quot;:0,&quot;index&quot;:null}" fill="#4c392b"/><path d="M219.74784,144.02343c-2.4988,-0.89696 -15.49465,-4.45166 -17.85257,-5.58317c1.75973,-9.14078 4.10255,-18.47585 11.27397,-25.41931c3.5825,-3.46826 6.33475,-3.15592 9.59435,-3.63744" data-paper-data="{&quot;origPos&quot;:null,&quot;index&quot;:null}" fill="#28886a"/></g><path d="M212.75957,196.14397c1.15815,-17.16954 4.54257,-27.07992 4.54257,-27.07992l23.53859,0.24689c0,0 1.29768,11.10731 -1.12927,26.72553c-1.11514,7.1763 -4.28717,34.99522 -4.28717,34.99522c-0.68227,6.6317 -4.74846,11.77144 -12.14931,11.38869c-9.64059,-0.49859 -10.54922,-8.27747 -10.72404,-12.27588c0.10032,-7.71996 -0.70238,-20.49483 0.20864,-34.00053z" data-paper-data="{&quot;origPos&quot;:null,&quot;origRot&quot;:0}" fill="#68476e" stroke="none" stroke-width="0" stroke-linecap="butt" stroke-linejoin="miter"/><path d="M265.36656,195.4862c1.13167,13.489 1.1008,26.26366 1.3273,33.98095c-0.10943,4.00073 -1.4583,11.52356 -11.08946,12.17968c-7.39361,0.50368 -10.9849,-4.8596 -11.7617,-10.63483c0,0 -4.1939,-28.03562 -5.4262,-35.19274c-2.68192,-15.57646 -2.1401,-26.51216 -2.1401,-26.51216l25.49841,-0.84569c0,0 2.15308,9.87649 3.59173,27.02479z" data-paper-data="{&quot;origPos&quot;:null,&quot;origRot&quot;:0,&quot;index&quot;:null}" fill="#68476e" stroke="none" stroke-width="0" stroke-linecap="butt" stroke-linejoin="miter"/><path d="M244.85242,93.00982c-2.80201,1.0695 -7.46123,1.41067 -10.55137,0.11018" data-paper-data="{&quot;origPos&quot;:null,&quot;origRot&quot;:0,&quot;index&quot;:null}" fill="none" stroke="#000000" stroke-width="0" stroke-linecap="round" stroke-linejoin="miter"/><path d="M226.99476,73.43435c2.63696,-0.7511 6.19153,-0.48992 8.21886,0.3041" data-paper-data="{&quot;origPos&quot;:null,&quot;origRot&quot;:0}" fill="none" stroke="#000000" stroke-width="2" stroke-linecap="round" stroke-linejoin="miter"/><path d="M243.49427,73.85341c2.02732,-0.79403 5.58189,-1.0552 8.21886,-0.3041" data-paper-data="{&quot;origPos&quot;:null,&quot;origRot&quot;:0,&quot;index&quot;:null}" fill="none" stroke="#000000" stroke-width="2" stroke-linecap="round" stroke-linejoin="miter"/><path d="M240.83021,181.66573c-12.97253,0.138 -25.9492,-4.3794 -25.9492,-4.3794l1.92414,-66.95971c0,0 8.86279,-2.11327 12.56196,-2.36908c2.37596,8.85069 18.17406,9.31741 21.09539,-0.08769c1.29066,0.46771 11.25302,2.09335 11.25302,2.09335l2.59295,66.15651c0,0 -12.64115,5.34221 -23.47828,5.54601z" data-paper-data="{&quot;origPos&quot;:null}" fill="#3d9e7f" stroke="none" stroke-width="0" stroke-linecap="butt" stroke-linejoin="miter"/><g data-paper-data="{&quot;origPos&quot;:null}" stroke-linejoin="miter"><path d="M248.35135,81.64321c-2.29052,0.31685 -4.40317,-0.31767 -4.71877,-1.41724c-0.31559,-1.09957 1.28539,-2.24783 3.57591,-2.56468c2.29052,-0.31685 4.58656,-0.03137 4.90214,1.06821c0.31558,1.09958 -1.46877,2.59686 -3.75928,2.91371z" data-paper-data="{&quot;origPos&quot;:null,&quot;origRot&quot;:0}" fill="#ffffff" stroke="none" stroke-width="0" stroke-linecap="butt"/><path d="M249.37784,77.3885c3.09,0.11723 3.71075,2.1588 1.27913,3.56245c-1.34454,0.77016 -2.80328,0.70874 -3.37251,-0.90477c-0.87754,-2.48746 0.61288,-2.6677 2.09338,-2.65769z" data-paper-data="{&quot;origPos&quot;:null,&quot;origRot&quot;:0}" fill="#000000" stroke="none" stroke-width="1" stroke-linecap="butt"/><path d="M243.52912,78.96604c2.19033,-1.60888 6.00676,-1.68105 8.23289,-0.8119" data-paper-data="{&quot;origPos&quot;:null,&quot;origRot&quot;:0}" fill="none" stroke="#000000" stroke-width="1.5" stroke-linecap="round"/></g><g data-paper-data="{&quot;origPos&quot;:null}" stroke-linejoin="miter"><path d="M230.48796,81.79848c-2.31056,-0.19282 -3.98652,-1.83506 -3.76153,-3.02641c0.22498,-1.19133 2.2657,-1.48062 4.57627,-1.28779c2.31056,0.19282 4.05499,1.4053 3.83002,2.59663c-0.22497,1.19133 -2.33422,1.91039 -4.64476,1.71757z" data-paper-data="{&quot;origPos&quot;:null,&quot;origRot&quot;:0}" fill="#ffffff" stroke="none" stroke-width="0" stroke-linecap="butt"/><path d="M230.03192,80.10873c-0.21442,-1.60366 0.7001,-2.3757 2.19857,-2.43519c3.05344,0.32123 4.14431,3.03044 1.18417,3.91311c-1.63393,0.48198 -3.15379,0.38501 -3.38275,-1.47791z" data-paper-data="{&quot;origPos&quot;:null,&quot;origRot&quot;:0}" fill="#000000" stroke="none" stroke-width="1" stroke-linecap="butt"/><path d="M226.70991,78.31353c2.57872,-1.17736 6.2786,-0.76548 8.19964,0.50111" data-paper-data="{&quot;origPos&quot;:null,&quot;origRot&quot;:0}" fill="none" stroke="#000000" stroke-width="1.5" stroke-linecap="round"/></g><g data-paper-data="{&quot;origPos&quot;:null}" fill="none" stroke="#000000" stroke-width="0" stroke-linecap="round" stroke-linejoin="miter"><path d="M236.37943,86.82097c0,0 1.75137,-0.41383 2.11859,0.44761" data-paper-data="{&quot;origPos&quot;:null}"/><path d="M240.61225,87.30238c0.23304,-0.84455 1.73018,-0.62497 1.73018,-0.62497" data-paper-data="{&quot;origPos&quot;:null}"/></g><g data-paper-data="{&quot;origPos&quot;:null}" fill="#000000" stroke="none" stroke-width="0" stroke-linecap="butt"><path d="M224.5627,63.64266c0,0 4.17661,-5.03668 15.3931,-5.11742c9.95527,-0.07167 15.05193,5.50314 15.05193,5.50314l0.11371,12.37865c0,0 -0.83484,-7.18674 -2.16714,-8.32463c-6.19407,-5.00871 -19.03039,-4.42734 -26.61967,-0.70526c-2.26541,1.68485 -2.28084,9.21788 -2.82004,8.58411z" data-paper-data="{&quot;origPos&quot;:null,&quot;index&quot;:null}" stroke-linejoin="round"/><g data-paper-data="{&quot;origPos&quot;:null}" stroke-linejoin="miter"><path d="M224.55759,63.21758c0,-1.19939 0.97231,-2.17169 2.17169,-2.17169c1.19939,0 2.17169,0.97231 2.17169,2.17169c0,1.19939 -0.9723,2.17169 -2.17169,2.17169c-1.19939,0 -2.17169,-0.97231 -2.17169,-2.17169z" data-paper-data="{&quot;origPos&quot;:null}"/><path d="M230.73485,59.76699c0,-1.19939 0.97231,-2.17169 2.17169,-2.17169c1.19939,0 2.17169,0.9723 2.17169,2.17169c0,1.19939 -0.97231,2.17169 -2.17169,2.17169c-1.19939,0 -2.17169,-0.97231 -2.17169,-2.17169z" data-paper-data="{&quot;origPos&quot;:null}"/><path d="M227.38078,60.90109c0,-1.19939 0.97231,-2.17169 2.17169,-2.17169c1.19939,0 2.17169,0.97231 2.17169,2.17169c0,1.19939 -0.97231,2.17169 -2.17169,2.17169c-1.19939,0 -2.17169,-0.97231 -2.17169,-2.17169z" data-paper-data="{&quot;origPos&quot;:null}"/><path d="M234.475,58.92245c0,-1.19939 0.97231,-2.17169 2.17169,-2.17169c1.19939,0 2.17169,0.97231 2.17169,2.17169c0,1.19939 -0.9723,2.17169 -2.17169,2.17169c-1.19939,0 -2.17169,-0.97231 -2.17169,-2.17169z" data-paper-data="{&quot;origPos&quot;:null}"/><path d="M238.16685,58.63289c0,-1.19939 0.97231,-2.17169 2.17169,-2.17169c1.19939,0 2.17169,0.97231 2.17169,2.17169c0,1.19939 -0.97231,2.17169 -2.17169,2.17169c-1.19939,0 -2.17169,-0.97231 -2.17169,-2.17169z" data-paper-data="{&quot;origPos&quot;:null}"/><path d="M241.85877,59.09137c0,-1.19939 0.97231,-2.17169 2.17169,-2.17169c1.19939,0 2.17169,0.97231 2.17169,2.17169c0,1.19939 -0.97231,2.17169 -2.17169,2.17169c-1.19939,0 -2.17169,-0.97231 -2.17169,-2.17169z" data-paper-data="{&quot;origPos&quot;:null}"/><path d="M245.23693,59.76699c0,-1.19939 0.97231,-2.17169 2.17169,-2.17169c1.19939,0 2.17169,0.9723 2.17169,2.17169c0,1.19939 -0.9723,2.17169 -2.17169,2.17169c-1.19939,0 -2.17169,-0.97231 -2.17169,-2.17169z" data-paper-data="{&quot;origPos&quot;:null}"/><path d="M248.34973,61.19066c0,-1.19939 0.9723,-2.17169 2.17169,-2.17169c1.19939,0 2.17169,0.97231 2.17169,2.17169c0,1.19939 -0.97231,2.17169 -2.17169,2.17169c-1.19939,0 -2.17169,-0.97231 -2.17169,-2.17169z" data-paper-data="{&quot;origPos&quot;:null}"/><path d="M250.69033,63.60366c0,-1.19939 0.9723,-2.17169 2.17169,-2.17169c1.19939,0 2.17169,0.97231 2.17169,2.17169c0,1.19939 -0.97231,2.17169 -2.17169,2.17169c-1.19939,0 -2.17169,-0.97231 -2.17169,-2.17169z" data-paper-data="{&quot;origPos&quot;:null}"/></g></g><g data-paper-data="{&quot;origPos&quot;:null}" fill="none" stroke="#815489" stroke-width="1.5" stroke-linejoin="miter"><path d="M225.63649,82.97418c-1.50462,-1.26072 -1.73513,-3.95469 -1.73513,-5.77635c0,-2.21249 11.23696,-2.09989 12.81426,-0.53772c0.68851,0.6819 0.73101,4.3402 -0.86857,6.05513c-1.59958,1.71493 -8.87541,1.37762 -10.21056,0.25894z" data-paper-data="{&quot;origPos&quot;:null}" stroke-linecap="butt"/><path d="M255.12222,77.38581c0,1.82166 -0.23048,4.51563 -1.73513,5.77635c-1.33512,1.1187 -8.92174,1.09281 -10.41057,-0.50337c-1.59959,-1.71493 -1.51953,-4.76873 -0.89079,-5.92179c1.01085,-1.85383 13.0365,-1.56369 13.0365,0.64881z" data-paper-data="{&quot;origPos&quot;:null,&quot;index&quot;:null}" stroke-linecap="butt"/><path d="M237.07747,76.91785c0,0 1.48557,-0.59801 2.4878,-0.56367c1.00222,0.03435 2.21137,0.72471 2.21137,0.72471" data-paper-data="{&quot;origPos&quot;:null}" stroke-linecap="round"/></g><g data-paper-data="{&quot;origPos&quot;:null}" fill="none" stroke="#000000" stroke-width="1.5" stroke-linecap="round" stroke-linejoin="miter"><path d="M236.70218,86.8453c0,0 1.73848,-0.42527 2.103,0.45999" data-paper-data="{&quot;origPos&quot;:null}"/><path d="M240.90384,87.33999c0.23133,-0.8679 1.71745,-0.64224 1.71745,-0.64224" data-paper-data="{&quot;origPos&quot;:null}"/></g><g stroke-linejoin="miter"><path d="M237.48646,91.66686c0.73242,0.08039 1.41826,0.3642 1.96116,0.81155c0.54463,-0.44842 1.2329,-0.73233 1.96759,-0.81155c1.02114,0.13842 2.01364,0.41193 2.94496,0.81155c0,0 -0.16865,2.52041 -2.12981,3.33196c-1.56825,0.6029 -3.25996,0.68289 -4.8282,0.07998c-1.22836,-0.53878 -2.16983,-1.54695 -2.86706,-2.60039c0,0 1.96756,-1.6231 2.95136,-1.6231z" data-paper-data="{&quot;origPos&quot;:null}" fill="#765843" stroke="none" stroke-width="1" stroke-linecap="butt"/><path d="M245.12497,93.03026c-2.92675,1.03732 -7.79339,1.36821 -11.02109,0.10688" data-paper-data="{&quot;origPos&quot;:null,&quot;origRot&quot;:0,&quot;index&quot;:null}" fill="none" stroke="#000000" stroke-width="1.5" stroke-linecap="round"/></g><g data-paper-data="{&quot;origPos&quot;:null}" stroke-linejoin="miter"><g data-paper-data="{&quot;origPos&quot;:null,&quot;origRot&quot;:0,&quot;index&quot;:null}" stroke-linecap="round"><path d="M226.27949,285.35011c0,0 3.46356,5.16292 6.32938,7.30429c2.86583,2.14136 11.66702,1.13861 7.7829,6.34819c-2.65484,3.56081 -7.30772,2.85117 -11.83426,2.22314c-3.82437,-0.53061 -4.17651,-4.48898 -8.0374,-4.51793c-4.09555,-0.03069 -7.97456,0.55571 -10.3086,-2.10048c-0.82968,-0.94419 2.93083,-10.04716 2.93083,-10.04716c0,0 4.12871,1.98346 6.28132,2.03671c2.66135,0.06585 6.85583,-1.24676 6.85583,-1.24676z" data-paper-data="{&quot;origPos&quot;:null}" fill="#ffffff" stroke="none" stroke-width="0"/><path d="M211.59424,297.87738c-1.95484,-1.03241 -1.85861,-1.74106 -1.53458,-3.43267c2.95386,1.84535 2.40005,2.32886 10.27695,1.80599c2.81927,0.28148 4.41042,3.33956 7.93363,4.46063c9.36529,1.90708 11.79865,-1.67373 13.13197,-3.09463c-0.03114,1.09679 -0.30195,2.23809 -0.79085,2.89384c-2.65484,3.5608 -7.17566,3.00013 -11.70221,2.37208c-6.44326,-1.53416 -5.03643,-4.25865 -8.89732,-4.2876c-4.09555,-0.03069 -5.73945,0.69673 -8.41759,-0.71768z" data-paper-data="{&quot;origPos&quot;:null}" fill="#a5a5a5" stroke="none" stroke-width="0"/><path d="M229.82048,294.37985l2.29813,-2.03743" data-paper-data="{&quot;origPos&quot;:null}" fill="none" stroke="#000000" stroke-width="1.5"/><path d="M230.18711,290.29241l-2.1777,2.04467" data-paper-data="{&quot;origPos&quot;:null}" fill="none" stroke="#000000" stroke-width="1.5"/><path d="M226.08517,290.16662l2.29089,-1.917" data-paper-data="{&quot;origPos&quot;:null}" fill="none" stroke="#000000" stroke-width="1.5"/></g><path d="M212.50625,232.34816c0.92775,-8.9465 5.51805,-14.55666 11.9486,-13.95651c6.46263,-0.45539 10.47167,4.19137 10.71927,14.34822l-2.09495,55.65334c0,0 -6.2776,2.32315 -10.52836,2.01457c-3.94052,-0.28604 -12.38088,-2.92461 -12.38088,-2.92461c0,0 2.20725,-54.81103 2.33633,-55.13501z" data-paper-data="{&quot;origPos&quot;:null,&quot;origRot&quot;:0}" fill="#68476e" stroke="none" stroke-width="0" stroke-linecap="butt"/></g><g data-paper-data="{&quot;origPos&quot;:null}" stroke-linejoin="miter"><g data-paper-data="{&quot;origPos&quot;:null,&quot;origRot&quot;:0}" stroke-linecap="round"><path d="M274.03613,292.66972c2.93472,2.04593 11.69815,0.75419 7.98751,6.08873c-2.53627,3.64622 -7.20995,3.09004 -11.75471,2.61124c-3.83976,-0.40452 -4.32193,-4.34916 -8.18167,-4.25108c-4.09435,0.10405 -7.95196,0.81775 -10.37211,-1.76023c-0.86029,-0.91639 2.59873,-10.13814 2.59873,-10.13814c0,0 3.54856,1.6489 7.24985,1.74943c1.23376,0.03351 5.90615,-1.39209 5.90615,-1.39209c0,0 3.63153,5.0462 6.56625,7.09214z" data-paper-data="{&quot;origPos&quot;:null,&quot;index&quot;:null}" fill="#ffffff" stroke="none" stroke-width="0"/><path d="M251.558,295.20082c3.01298,1.74719 2.47537,2.24866 10.3308,1.46693c2.82699,0.18858 4.51789,3.19267 8.07607,4.19724c9.42297,1.59796 11.73723,-2.06096 13.02307,-3.52494c0.00496,1.09723 -0.22816,2.24682 -0.69524,2.91831c-2.53627,3.64622 -7.07308,3.23455 -11.61783,2.75577c-6.49023,-1.32137 -5.17378,-4.09067 -9.03355,-3.9926c-4.09435,0.10405 -5.71345,0.88518 -8.43665,-0.44038c-1.98775,-0.96756 -1.91488,-1.67897 -1.64667,-3.38033z" data-paper-data="{&quot;origPos&quot;:null,&quot;index&quot;:null}" fill="#a5a5a5" stroke="none" stroke-width="0"/><path d="M273.53583,292.37413l-2.22985,2.11192" data-paper-data="{&quot;origPos&quot;:null,&quot;index&quot;:null}" fill="none" stroke="#000000" stroke-width="1.5"/><path d="M269.42872,292.50397l2.10926,-2.11519" data-paper-data="{&quot;origPos&quot;:null,&quot;index&quot;:null}" fill="none" stroke="#000000" stroke-width="1.5"/><path d="M267.43415,290.39799l2.22658,-1.99133" data-paper-data="{&quot;origPos&quot;:null,&quot;index&quot;:null}" fill="none" stroke="#000000" stroke-width="1.5"/></g><path d="M259.0584,291.1296c-4.23078,0.51453 -11.73963,-1.4857 -11.73963,-1.4857l-3.105,-55.52025c-0.24567,-10.15688 4.37697,-14.73551 10.85409,-14.59434c6.39382,-0.91158 10.12566,4.21643 11.48656,13.10735c0.14467,0.31734 4.44837,54.68041 4.44837,54.68041c0,0 -8.02241,3.33557 -11.9444,3.81254z" data-paper-data="{&quot;origPos&quot;:null,&quot;origRot&quot;:0,&quot;index&quot;:null}" fill="#68476e" stroke="none" stroke-width="0" stroke-linecap="butt"/></g><path d="M285.87869,188.59771c0,0 1.18086,3.03098 1.2294,4.2403c-0.0509,0.38442 0.16175,3.44348 -1.06993,3.23391c-1.09992,-0.07938 -0.67056,-1.33526 -0.9461,-2.44127c-0.26951,-1.0818 -0.99619,-3.26378 -0.99619,-3.26378c0,0 0.45403,2.61642 0.48789,4.16534c-0.21968,1.52627 0.18475,4.61586 -1.35668,4.40934c-1.2844,-0.39958 -0.71039,-2.92282 -0.83524,-3.50068c-0.28483,-1.31816 -0.45128,-3.44619 -0.98899,-3.63092c0.17718,1.32749 0.32901,2.97181 0.32658,4.2985c-0.00206,1.11289 -0.2049,3.45376 -0.85156,4.40735c-0.51501,0.75943 -1.5281,0.83766 -1.82996,-0.01372c-0.24031,-0.49902 0.24028,-3.03015 0.20558,-3.56709c-0.10411,-1.61087 -0.0789,-3.34624 -0.65141,-4.22511c0.05625,1.43638 0.03419,3.36074 -0.24737,5.4318c-0.2623,1.92935 -1.1134,4.68894 -1.98157,4.40244c-2.33882,-0.38734 -0.3186,-3.34014 -0.45656,-5.71683c-0.15468,-2.66453 -0.64316,-3.34214 -1.48629,-5.87701c-0.57432,1.30739 0.08341,3.01486 -0.97295,4.22419c-1.36578,1.2417 -1.95964,0.00504 -1.94581,-0.51491c0.0556,-1.83043 -0.86371,-5.11801 -0.21784,-6.8691c0.55343,-1.81634 1.04905,-4.17177 1.79414,-6.12302c-0.15859,-2.0481 -5.04248,-18.58072 -5.74876,-25.52928c-0.00488,-0.0485 0.09639,-5.01648 3.86925,-5.50098c3.76644,-0.72616 6.05959,2.43221 6.38492,3.67999c2.70913,5.75576 3.66121,26.18504 3.66121,26.18504z" data-paper-data="{&quot;origPos&quot;:null,&quot;origRot&quot;:0,&quot;index&quot;:null}" fill="#4c392b" stroke="none" stroke-width="0" stroke-linecap="butt" stroke-linejoin="miter"/><path d="M197.89555,180.78372c0,0 0.95208,-20.4293 3.66121,-26.18504c0.32533,-1.24778 2.61848,-4.40615 6.38492,-3.67999c3.77286,0.4845 3.87413,5.45248 3.86925,5.50098c-0.70628,6.94857 -5.59017,23.48118 -5.74876,25.52928c0.74508,1.95126 1.24072,4.30668 1.79414,6.12302c0.64587,1.7511 -0.27344,5.03867 -0.21784,6.8691c0.01384,0.51995 -0.58003,1.7566 -1.94581,0.51491c-1.05637,-1.20933 -0.39863,-2.91679 -0.97295,-4.22419c-0.84313,2.53487 -1.33161,3.21248 -1.48629,5.87701c-0.13796,2.37668 1.88225,5.32949 -0.45656,5.71683c-0.86817,0.2865 -1.71927,-2.4731 -1.98157,-4.40244c-0.28156,-2.07106 -0.30361,-3.99543 -0.24737,-5.4318c-0.57251,0.87886 -0.5473,2.61423 -0.65141,4.22511c-0.0347,0.53694 0.44589,3.06807 0.20558,3.56709c-0.30186,0.85137 -1.31495,0.77315 -1.82996,0.01372c-0.64666,-0.9536 -0.84951,-3.29445 -0.85156,-4.40735c-0.00244,-1.32668 0.14939,-2.97101 0.32658,-4.2985c-0.53772,0.18473 -0.70416,2.31276 -0.98899,3.63092c-0.12485,0.57786 0.44916,3.10112 -0.83524,3.50068c-1.54144,0.20652 -1.13701,-2.88307 -1.35668,-4.40934c0.03387,-1.54892 0.48789,-4.16534 0.48789,-4.16534c0,0 -0.72668,2.18198 -0.99619,3.26378c-0.27554,1.10603 0.15382,2.3619 -0.9461,2.44127c-1.23168,0.20957 -1.01904,-2.84949 -1.06993,-3.23391c0.04855,-1.20932 1.2294,-4.2403 1.2294,-4.2403z" data-paper-data="{&quot;origPos&quot;:null,&quot;origRot&quot;:0,&quot;index&quot;:null}" fill="#4c392b" stroke="none" stroke-width="0" stroke-linecap="butt" stroke-linejoin="miter"/></g></g></svg>