<svg version="1.1" xmlns="http://www.w3.org/2000/svg" xmlns:xlink="http://www.w3.org/1999/xlink" width="123.53701" height="110.61961" viewBox="0,0,123.53701,110.61961"><g transform="translate(-179.33379,-126.13464)"><g data-paper-data="{&quot;isPaintingLayer&quot;:true}" fill-rule="nonzero" stroke-miterlimit="10" stroke-dasharray="" stroke-dashoffset="0" style="mix-blend-mode: normal"><g data-paper-data="{&quot;index&quot;:null,&quot;origPos&quot;:null,&quot;origRot&quot;:0}" stroke-linejoin="round"><path d="M291.27542,176.18079c-4.84515,0.12063 -4.13422,-1.78551 -11.96253,-2.15021c-5.36111,-0.24976 -15.17031,2.20481 -15.21118,-5.50825c-0.16808,-8.29738 8.86564,-6.75588 15.96146,-6.93256c3.22577,-0.41625 6.8009,-1.67936 10.35959,-1.52585c10.48949,0.45249 12.46078,5.47744 12.29888,9.19898c-0.1932,4.44101 -6.60107,6.79725 -11.44622,6.91788z" data-paper-data="{&quot;origPos&quot;:null,&quot;index&quot;:null,&quot;origRot&quot;:0}" fill="#ffffff" stroke="#627191" stroke-width="0.25" stroke-linecap="butt"/><path d="M279.10217,173.57956c-5.34781,-0.5288 -15.09554,2.02776 -15.00047,-5.05722c-0.18785,-6.86874 8.86564,-6.75588 15.96146,-6.93256c3.22577,-0.41625 6.86085,-0.78494 10.41954,-0.63142c8.03015,0.48991 11.58481,4.11676 11.42291,7.8383c-0.1932,4.44101 -6.20525,6.27216 -11.05039,6.39279c-4.84515,0.12063 -6.8914,-1.12917 -11.75305,-1.6099z" data-paper-data="{&quot;origPos&quot;:null,&quot;index&quot;:null,&quot;origRot&quot;:0}" fill="#627191" stroke="none" stroke-width="0" stroke-linecap="butt"/><path d="M288.41206,163.95825l-2.91955,8.48283l-1.92306,-8.80343l-3.01204,8.5954l-1.98131,-8.66229c0,0 0.83634,2.14376 0.69896,4.30877c-0.14176,2.234 -1.11833,4.20328 -1.11833,4.20328l3.14837,-8.45964l1.49408,8.61399l3.16701,-8.52329l2.19738,8.76691l2.70271,-8.36566c0,0 1.08417,2.32236 0.9647,4.12385c-0.11948,1.80149 -1.21776,4.17123 -1.21776,4.17123z" data-paper-data="{&quot;origPos&quot;:null,&quot;origRot&quot;:0}" fill="none" stroke="#ffffff" stroke-width="1" stroke-linecap="round"/><path d="M296.26603,168.0867c0.05783,-2.05157 0.27573,-5.25689 0.27573,-5.25689c0,0 4.8624,2.51217 4.86054,5.54426c-0.00252,4.1033 -5.15787,5.004 -5.15787,5.004c0,0 -0.03661,-3.22635 0.0216,-5.29137z" data-paper-data="{&quot;origPos&quot;:null,&quot;origRot&quot;:0}" fill="#ffffff" stroke="none" stroke-width="0" stroke-linecap="round"/></g><g data-paper-data="{&quot;origPos&quot;:null,&quot;origRot&quot;:0,&quot;index&quot;:null}" stroke-linejoin="round"><path d="M291.29069,186.43925c4.84515,0.12063 11.25303,2.47687 11.44622,6.91788c0.1619,3.72154 -1.80939,8.74648 -12.29887,9.19898c-3.55869,0.15351 -7.13383,-1.1096 -10.3596,-1.52585c-7.09582,-0.17667 -16.12954,1.36482 -15.96146,-6.93256c0.04087,-7.71306 9.85008,-5.25848 15.21119,-5.50824c7.82831,-0.3647 7.11738,-2.27084 11.96252,-2.15021z" data-paper-data="{&quot;origPos&quot;:null,&quot;index&quot;:null,&quot;origRot&quot;:0}" fill="#ffffff" stroke="#627191" stroke-width="0.25" stroke-linecap="butt"/><path d="M290.87048,187.43059c4.84515,0.12063 10.8572,1.95178 11.05039,6.39279c0.1619,3.72154 -3.39276,7.34839 -11.4229,7.83831c-3.55869,0.15351 -7.19377,-0.21518 -10.41955,-0.63142c-7.09582,-0.17667 -16.1493,-0.06382 -15.96146,-6.93256c-0.09508,-7.08498 9.65266,-4.52842 15.00047,-5.05722c4.86165,-0.48073 6.9079,-1.73053 11.75304,-1.60989z" data-paper-data="{&quot;origPos&quot;:null,&quot;index&quot;:null,&quot;origRot&quot;:0}" fill="#627191" stroke="none" stroke-width="0" stroke-linecap="butt"/><path d="M290.62845,190.20982c0,0 1.09828,2.36975 1.21776,4.17124c0.11947,1.80149 -0.9647,4.12385 -0.9647,4.12385l-2.70271,-8.36567l-2.19737,8.76691l-3.16701,-8.52328l-1.49409,8.61399l-3.14837,-8.45963c0,0 0.97658,1.96928 1.11833,4.20328c0.13738,2.165 -0.69896,4.30876 -0.69896,4.30876l1.9813,-8.66229l3.01205,8.5954l1.92306,-8.80343l2.91954,8.48283z" data-paper-data="{&quot;origPos&quot;:null,&quot;origRot&quot;:0}" fill="none" stroke="#ffffff" stroke-width="1" stroke-linecap="round"/><path d="M296.25971,189.24198c0,0 5.15535,0.9007 5.15787,5.004c0.00187,3.03209 -4.86053,5.54426 -4.86053,5.54426c0,0 -0.2179,-3.20532 -0.27573,-5.25689c-0.05821,-2.06502 -0.02161,-5.29137 -0.02161,-5.29137z" data-paper-data="{&quot;origPos&quot;:null,&quot;origRot&quot;:0}" fill="#ffffff" stroke="none" stroke-width="0" stroke-linecap="round"/></g><path d="M277.14821,215.12087c-0.96339,3.26432 1.3912,2.52813 2.15774,1.89814c0.87155,-0.71629 -1.31892,-3.9084 0.62634,-4.32518c1.33269,-0.28554 2.73901,4.5964 2.41333,8.14836c-0.54637,5.14357 -19.65773,11.25527 -12.58742,1.21886c0.3549,-6.22111 9.51502,-14.14061 7.39,-6.94017z" data-paper-data="{&quot;origPos&quot;:null,&quot;origRot&quot;:0,&quot;index&quot;:null}" fill="#f6dbc4" stroke="none" stroke-width="0" stroke-linecap="butt" stroke-linejoin="miter"/><g data-paper-data="{&quot;origPos&quot;:null,&quot;origRot&quot;:0,&quot;index&quot;:null}" stroke="none" stroke-width="0" stroke-linecap="butt" stroke-linejoin="miter"><path d="M269.1571,211.09719l-0.9571,-58.70477l15.48152,10.34441c0,0 8.23255,5.55619 0.53702,11.04813c-3.35459,0.50454 -6.18142,-0.68739 -6.18142,-0.68739l-0.15383,18.06384c0,0 4.21635,-2.00798 6.37791,-2.05632c6.35296,4.63015 0.11146,10.8209 0.11146,10.8209z" data-paper-data="{&quot;origPos&quot;:null}" fill="#5083ab"/><path d="M283.1806,162.06839c0,0 11.70117,6.01359 1.29527,12.28709c-0.79075,0.11893 -1.09979,-0.93316 -3.43017,-0.56165c4.605,-4.80692 4.85062,-7.67995 0.14939,-13.78146z" data-paper-data="{&quot;origPos&quot;:null}" fill="#cddce7"/><path d="M283.69921,188.39218c9.28788,5.29582 0.53179,12.14786 0.53179,12.14786l-2.95805,2.47935c3.48413,-5.48842 4.56811,-8.90446 -0.25569,-14.14266c2.5899,0.32367 2.12291,-0.47205 2.68195,-0.48455z" data-paper-data="{&quot;origPos&quot;:null}" fill="#cddce7"/></g><path d="M277.50546,150.53061c1.16184,7.41702 -6.87993,-1.63593 -6.41548,-7.84983c-5.69227,-10.87734 12.45194,-2.31083 12.31866,2.85997c-0.14321,3.56399 -2.17793,8.21919 -3.46164,7.76126c-1.87375,-0.66844 0.71662,-3.54553 -0.05341,-4.36998c-0.67724,-0.72513 -2.91486,-1.76391 -2.38814,1.59861z" data-paper-data="{&quot;origPos&quot;:null,&quot;origRot&quot;:0,&quot;index&quot;:null}" fill="#f6dbc4" stroke="none" stroke-width="0" stroke-linecap="butt" stroke-linejoin="miter"/><path d="M267.41033,176.49545c-0.01434,0.00986 -0.01267,0.00858 0.00044,-0.00153c-0.00015,0.00051 -0.00029,0.00101 -0.00044,0.00153z" data-paper-data="{&quot;origPos&quot;:null,&quot;origRot&quot;:0,&quot;index&quot;:null}" fill="#9383d1" stroke="none" stroke-width="0.5" stroke-linecap="butt" stroke-linejoin="miter"/><g data-paper-data="{&quot;origPos&quot;:null,&quot;origRot&quot;:0,&quot;index&quot;:null}" stroke="none" stroke-linecap="butt" stroke-linejoin="miter"><path d="M280.72653,145.0554c0.69121,3.60124 -11.93081,3.21739 -19.51267,2.2877c-7.58186,-0.92969 -11.88337,-3.23683 -13.0125,-9.37087c-1.10544,-6.00534 6.32308,-7.83297 14.14918,-5.00635c8.20133,2.96214 17.11684,5.52942 18.37601,12.08952z" data-paper-data="{&quot;origPos&quot;:null,&quot;origRot&quot;:0,&quot;index&quot;:null}" fill="#f6dbc4" stroke-width="0"/><g data-paper-data="{&quot;origPos&quot;:null,&quot;origRot&quot;:0}" stroke-width="0.5"><path d="M274.36819,141.82362c0.05882,-0.35923 0.4271,-0.59795 0.82261,-0.5332c0.39552,0.06476 0.66845,0.40844 0.60964,0.76766c-0.05882,0.35923 -0.4271,0.59795 -0.8226,0.5332c-0.39552,-0.06476 -0.66846,-0.40844 -0.60965,-0.76766z" data-paper-data="{&quot;origPos&quot;:null}" fill="#d1b29b"/><path d="M251.04871,137.80917c0.05882,-0.35923 0.42709,-0.59795 0.82261,-0.53319c0.39551,0.06477 0.66845,0.40844 0.60964,0.76766c-0.05882,0.35923 -0.4271,0.59796 -0.82261,0.53319c-0.39552,-0.06476 -0.66845,-0.40844 -0.60964,-0.76766z" data-paper-data="{&quot;origPos&quot;:null}" fill="#d1b29b"/><path d="M256.68348,137.36825c0.0507,-0.30968 0.3682,-0.51547 0.70915,-0.45966c0.34096,0.05582 0.57626,0.35209 0.52555,0.66177c-0.0507,0.30968 -0.3682,0.51547 -0.70915,0.45966c-0.34096,-0.05582 -0.57625,-0.35211 -0.52556,-0.66179z" data-paper-data="{&quot;origPos&quot;:null}" fill="#d1b29b"/><path d="M252.93876,135.53843c0.05881,-0.3592 0.4271,-0.59794 0.82261,-0.53319c0.39552,0.06476 0.66846,0.40846 0.60966,0.76766c-0.05881,0.3592 -0.42711,0.59796 -0.82262,0.5332c-0.39552,-0.06476 -0.66845,-0.40846 -0.60964,-0.76767z" data-paper-data="{&quot;origPos&quot;:null}" fill="#d1b29b"/><path d="M267.04094,140.43057c0.03499,-0.21368 0.25405,-0.35566 0.48931,-0.31716c0.23525,0.03851 0.39763,0.24295 0.36266,0.45662c-0.03499,0.21368 -0.25408,0.35567 -0.48933,0.31715c-0.23525,-0.03851 -0.3976,-0.24295 -0.36264,-0.45662z" data-paper-data="{&quot;origPos&quot;:null}" fill="#d1b29b"/><path d="M262.70203,135.29309c0.03499,-0.21368 0.25405,-0.35567 0.48929,-0.31716c0.23525,0.03851 0.39763,0.24296 0.36265,0.45664c-0.03499,0.21368 -0.25405,0.35567 -0.48932,0.31716c-0.23525,-0.03851 -0.39762,-0.24297 -0.36264,-0.45663z" data-paper-data="{&quot;origPos&quot;:null}" fill="#d1b29b"/><path d="M263.61125,140.15859c0.03499,-0.21368 0.25406,-0.35568 0.48931,-0.31716c0.23525,0.03851 0.39761,0.24295 0.36264,0.45663c-0.03499,0.21368 -0.25405,0.35567 -0.48931,0.31717c-0.23525,-0.03851 -0.39762,-0.24297 -0.36264,-0.45663z" data-paper-data="{&quot;origPos&quot;:null}" fill="#d1b29b"/><path d="M261.58886,139.24849c0.03499,-0.21368 0.25405,-0.35566 0.48931,-0.31715c0.23525,0.03851 0.39762,0.24295 0.36264,0.45663c-0.03499,0.21368 -0.25407,0.35568 -0.48933,0.31716c-0.23525,-0.03851 -0.39759,-0.24296 -0.36263,-0.45663z" data-paper-data="{&quot;origPos&quot;:null}" fill="#d1b29b"/><path d="M259.04871,137.96408c0.03499,-0.21368 0.25405,-0.35567 0.4893,-0.31717c0.23525,0.03851 0.39762,0.24295 0.36264,0.45663c-0.03499,0.21368 -0.25405,0.35567 -0.48931,0.31717c-0.23525,-0.03851 -0.3976,-0.24295 -0.36263,-0.45663z" data-paper-data="{&quot;origPos&quot;:null}" fill="#d1b29b"/><path d="M254.09252,138.9973c0.04363,-0.26646 0.31682,-0.44354 0.61019,-0.39551c0.29338,0.04801 0.49585,0.30298 0.45221,0.56945c-0.04363,0.26646 -0.31681,0.44354 -0.61019,0.3955c-0.29338,-0.04801 -0.49584,-0.30297 -0.45222,-0.56944z" data-paper-data="{&quot;origPos&quot;:null}" fill="#bda18b"/><path d="M259.96961,140.1646c0.06592,-0.40267 0.47875,-0.67026 0.92209,-0.59769c0.44335,0.07259 0.7493,0.45783 0.68337,0.8605c-0.06592,0.40267 -0.47877,0.67025 -0.92209,0.59769c-0.44335,-0.07259 -0.74928,-0.45783 -0.68336,-0.8605z" data-paper-data="{&quot;origPos&quot;:null}" fill="#bda18b"/><path d="M269.31329,138.44929c0.06287,-0.38406 0.45663,-0.63928 0.87946,-0.57004c0.42284,0.06922 0.71467,0.43667 0.65179,0.82072c-0.06287,0.38406 -0.45663,0.63928 -0.87947,0.57006c-0.42284,-0.06922 -0.71464,-0.43667 -0.65178,-0.82073z" data-paper-data="{&quot;origPos&quot;:null}" fill="#bda18b"/><path d="M258.31033,139.51134c-0.04438,-0.1662 0.06621,-0.32964 0.24699,-0.36505c0.18079,-0.03542 0.36332,0.07059 0.40769,0.23679c0.04438,0.1662 -0.0662,0.32964 -0.24699,0.36505c-0.18079,0.03542 -0.36331,-0.07059 -0.40769,-0.23679z" data-paper-data="{&quot;origPos&quot;:null,&quot;origRot&quot;:0}" fill="#d1b29b"/><path d="M270.86817,137.07963c-0.04438,-0.1662 0.06621,-0.32965 0.24698,-0.36506c0.18079,-0.03542 0.36331,0.0706 0.4077,0.23678c0.04438,0.1662 -0.0662,0.32964 -0.24699,0.36505c-0.18079,0.03542 -0.3633,-0.0706 -0.4077,-0.23679z" data-paper-data="{&quot;origPos&quot;:null,&quot;origRot&quot;:0}" fill="#d1b29b"/><path d="M272.77557,138.73985c0.05477,-0.33445 0.39765,-0.5567 0.76589,-0.49641c0.36824,0.06029 0.62235,0.38029 0.56762,0.71473c-0.05477,0.33445 -0.39765,0.55669 -0.76588,0.49642c-0.36824,-0.06029 -0.62236,-0.38028 -0.56763,-0.71473z" data-paper-data="{&quot;origPos&quot;:null}" fill="#d1b29b"/><path d="M268.86074,136.09042c0.04562,-0.2787 0.33137,-0.46393 0.63823,-0.4137c0.30686,0.05024 0.51862,0.31691 0.47299,0.59561c-0.04562,0.2787 -0.33138,0.46392 -0.63824,0.41369c-0.30686,-0.05024 -0.51862,-0.3169 -0.473,-0.59561z" data-paper-data="{&quot;origPos&quot;:null}" fill="#d1b29b"/><path d="M263.55897,138.44361c0.04667,-0.28508 0.33892,-0.47451 0.65279,-0.42315c0.31388,0.05139 0.53048,0.32414 0.48383,0.60921c-0.04667,0.28508 -0.33894,0.4745 -0.65282,0.42312c-0.31388,-0.05139 -0.53048,-0.32411 -0.4838,-0.60919z" data-paper-data="{&quot;origPos&quot;:null}" fill="#bda18b"/></g></g><g data-paper-data="{&quot;origRot&quot;:0,&quot;index&quot;:null,&quot;origPos&quot;:null}" stroke="none" stroke-linecap="butt" stroke-linejoin="miter"><path d="M279.26008,221.02549c-1.86238,6.41496 -10.97764,8.14398 -19.41843,10.33242c-8.0546,2.08832 -15.2815,-0.42065 -13.62365,-6.29752c1.69338,-6.00282 6.19039,-7.90093 13.82579,-8.12314c7.63543,-0.22222 20.23862,0.56666 19.21625,4.08823z" data-paper-data="{&quot;origPos&quot;:null,&quot;origRot&quot;:0,&quot;index&quot;:null}" fill="#f6dbc4" stroke-width="0"/><g data-paper-data="{&quot;origPos&quot;:null,&quot;origRot&quot;:0}" stroke-width="0.5"><path d="M262.23427,223.99652c-0.06421,-0.35831 0.20355,-0.70604 0.59806,-0.77674c0.39449,-0.07068 0.76632,0.16249 0.83052,0.52079c0.06421,0.35831 -0.20355,0.70605 -0.59807,0.77674c-0.39449,0.07068 -0.76632,-0.16248 -0.83051,-0.52079z" data-paper-data="{&quot;origPos&quot;:null}" fill="#d1b29b"/><path d="M256.36653,227.25647c-0.0642,-0.35829 0.20356,-0.70606 0.59805,-0.77674c0.3945,-0.07069 0.76633,0.16249 0.83053,0.52079c0.0642,0.35829 -0.20358,0.70604 -0.59808,0.77674c-0.3945,0.07069 -0.76632,-0.16249 -0.8305,-0.52078z" data-paper-data="{&quot;origPos&quot;:null}" fill="#d1b29b"/><path d="M271.29293,227.17234c-0.03818,-0.21313 0.12108,-0.41997 0.35574,-0.46202c0.23463,-0.04202 0.45585,0.09664 0.49404,0.30976c0.03818,0.21313 -0.1211,0.41999 -0.35575,0.46203c-0.23463,0.04202 -0.45583,-0.09666 -0.49401,-0.3098z" data-paper-data="{&quot;origPos&quot;:null}" fill="#d1b29b"/><path d="M261.73189,225.61805c-0.03818,-0.21313 0.12109,-0.41999 0.35574,-0.46202c0.23463,-0.04202 0.45585,0.09665 0.49404,0.30977c0.03818,0.21313 -0.12109,0.41999 -0.35577,0.46204c-0.23463,0.04202 -0.45583,-0.09666 -0.49401,-0.30979z" data-paper-data="{&quot;origPos&quot;:null}" fill="#d1b29b"/><path d="M260.5002,223.27804c-0.03818,-0.21313 0.12111,-0.41999 0.35575,-0.46203c0.23463,-0.04202 0.45584,0.09666 0.49404,0.30977c0.03818,0.21313 -0.12111,0.41999 -0.35574,0.46202c-0.23463,0.04202 -0.45584,-0.09666 -0.49402,-0.30978z" data-paper-data="{&quot;origPos&quot;:null}" fill="#d1b29b"/><path d="M265.75841,227.87365c-0.03818,-0.21313 0.12108,-0.41999 0.35575,-0.46204c0.23463,-0.04202 0.45585,0.09665 0.49404,0.30977c0.03818,0.21313 -0.12112,0.42 -0.35575,0.46204c-0.23463,0.04202 -0.45582,-0.09666 -0.494,-0.30979z" data-paper-data="{&quot;origPos&quot;:null}" fill="#d1b29b"/><path d="M262.93553,227.50862c-0.03818,-0.21313 0.12107,-0.41998 0.35572,-0.46202c0.23463,-0.04202 0.45585,0.09665 0.49404,0.30977c0.03818,0.21313 -0.12109,0.41999 -0.35575,0.46204c-0.23463,0.04202 -0.45582,-0.09665 -0.49401,-0.30979z" data-paper-data="{&quot;origPos&quot;:null}" fill="#d1b29b"/><path d="M259.15428,224.49223c-0.04761,-0.26579 0.151,-0.52374 0.44362,-0.57617c0.29263,-0.05244 0.56845,0.12053 0.61607,0.38631c0.04761,0.26579 -0.151,0.52374 -0.44361,0.57618c-0.29263,0.05244 -0.56843,-0.12053 -0.61605,-0.38631z" data-paper-data="{&quot;origPos&quot;:null}" fill="#bda18b"/><path d="M258.71451,227.62561c-0.07194,-0.40163 0.22818,-0.79144 0.67038,-0.87067c0.44219,-0.07923 0.859,0.18215 0.93096,0.58378c0.07194,0.40163 -0.2282,0.79144 -0.67039,0.87066c-0.44219,0.07923 -0.85898,-0.18214 -0.93094,-0.58377z" data-paper-data="{&quot;origPos&quot;:null}" fill="#bda18b"/><path d="M267.20309,225.80096c-0.06864,-0.38308 0.21764,-0.75486 0.63939,-0.83042c0.42176,-0.07556 0.81931,0.17369 0.88793,0.55678c0.06864,0.38308 -0.21764,0.75486 -0.6394,0.83043c-0.42176,0.07556 -0.81929,-0.17371 -0.88792,-0.55679z" data-paper-data="{&quot;origPos&quot;:null}" fill="#bda18b"/><path d="M256.01892,225.44611c-0.09722,-0.14193 -0.04737,-0.33288 0.11129,-0.42648c0.15868,-0.0936 0.3661,-0.05445 0.46329,0.08749c0.09722,0.14193 0.04737,0.33287 -0.1113,0.42648c-0.15868,0.0936 -0.36607,0.05445 -0.46328,-0.08748z" data-paper-data="{&quot;origPos&quot;:null,&quot;origRot&quot;:0}" fill="#d1b29b"/><path d="M273.47086,223.58272c-0.09722,-0.14193 -0.04735,-0.33288 0.11129,-0.42648c0.15868,-0.0936 0.36609,-0.05445 0.46328,0.08748c0.09722,0.14193 0.04735,0.33286 -0.1113,0.42648c-0.15868,0.0936 -0.36607,0.05444 -0.46327,-0.08749z" data-paper-data="{&quot;origPos&quot;:null,&quot;origRot&quot;:0}" fill="#d1b29b"/><path d="M273.7498,221.72851c-0.09722,-0.14193 -0.04736,-0.33288 0.1113,-0.42647c0.15868,-0.0936 0.36608,-0.05446 0.46329,0.0875c0.09722,0.14193 0.04737,0.33286 -0.1113,0.42646c-0.15868,0.0936 -0.36606,0.05445 -0.46326,-0.08748z" data-paper-data="{&quot;origPos&quot;:null,&quot;origRot&quot;:0}" fill="#d1b29b"/><path d="M269.03227,222.89586c-0.09722,-0.14193 -0.04735,-0.33286 0.11128,-0.42649c0.15868,-0.0936 0.36608,-0.05446 0.46329,0.08749c0.09722,0.14193 0.04736,0.33287 -0.11131,0.42647c-0.15868,0.0936 -0.36609,0.05445 -0.46326,-0.08749z" data-paper-data="{&quot;origPos&quot;:null,&quot;origRot&quot;:0}" fill="#d1b29b"/><path d="M276.13702,223.66817c-0.05976,-0.33362 0.18952,-0.65736 0.55682,-0.72316c0.3673,-0.0658 0.71349,0.15127 0.77325,0.48486c0.05976,0.33362 -0.18952,0.65736 -0.55682,0.72317c-0.3673,0.0658 -0.71348,-0.15127 -0.77325,-0.48486z" data-paper-data="{&quot;origPos&quot;:null}" fill="#d1b29b"/><path d="M258.15973,225.69918c-0.05094,-0.28433 0.16154,-0.56032 0.47461,-0.61642c0.31306,-0.05609 0.60815,0.12894 0.6591,0.41331c0.05094,0.28433 -0.16155,0.5603 -0.4746,0.61639c-0.31306,0.05609 -0.60814,-0.12894 -0.65909,-0.41328z" data-paper-data="{&quot;origPos&quot;:null}" fill="#bda18b"/></g></g><g data-paper-data="{&quot;index&quot;:null,&quot;origPos&quot;:null}" stroke="none" stroke-linecap="butt" stroke-linejoin="miter"><path d="M274.17795,150.73746c2.71778,0.2576 12.21402,10.08689 11.42886,34.60992c-1.26211,18.51969 -5.58227,26.64725 -11.07117,27.90882c-3.6975,0.02994 -3.09787,0.56871 -5.46424,3.58866c2.27777,5.25108 1.24252,4.47736 1.13464,8.22662c-0.12318,4.28075 -4.68413,10.21007 -8.83031,8.25016c-3.11009,1.22751 -5.04873,3.38335 -8.3815,3.42928c-6.93868,0.10464 -27.33398,-1.92798 -28.04905,-54.25276c-0.77055,-56.38455 23.62469,-56.73524 30.20255,-56.30273c3.11641,0.32355 6.25933,1.93962 9.15836,3.15456c5.24764,-2.21 8.49828,5.21215 7.97099,9.9074c-1.15564,5.94298 -1.76013,5.24506 -2.91239,8.76507c2.51441,1.52003 2.69123,3.3118 4.81325,2.26354zM251.40487,159.11839c-11.64196,0 -20.59913,11.28764 -20.59913,22.33334c0,11.04569 10.55878,23 22.20075,23c11.64198,0 11.28305,-18.62097 23.93084,-23c-11.11289,-2.71237 -13.89049,-22.33334 -25.53245,-22.33334z" data-paper-data="{&quot;origPos&quot;:null,&quot;index&quot;:null,&quot;origRot&quot;:0}" fill="#a69bd1" stroke-width="NaN"/><path d="M276.33361,197.30392c0,0 3.18117,-8.44944 3.17356,-15.51096c-0.00585,-5.43228 -3.54844,-19.83622 -3.54844,-19.83622l3.07631,-7.07747c0,0 6.89776,7.8112 6.85104,25.80653c-0.05088,17.59532 -4.67677,26.10807 -4.67677,26.10807z" data-paper-data="{&quot;origPos&quot;:null,&quot;origRot&quot;:0,&quot;index&quot;:null}" fill="#9383d1" stroke-width="0"/><g data-paper-data="{&quot;origPos&quot;:null,&quot;origRot&quot;:0}" fill="#9383d1" stroke-width="0.5"><path d="M276.93935,176.69969c-0.27097,0 -0.49066,-0.72499 -0.49066,-1.61932c0,-0.89433 0.21969,-1.61931 0.49066,-1.61931c0.27097,0 0.49066,0.72498 0.49066,1.61931c0,0.89433 -0.21969,1.61932 -0.49066,1.61932z" data-paper-data="{&quot;origPos&quot;:null}"/><path d="M277.30779,176.18401c-2.06198,-0.14032 -5.43613,-0.36995 -7.49809,-0.51028c0,0 -0.98413,-0.06697 -0.96604,-1.5643c0.01808,-1.49732 0.99601,-0.91698 0.99601,-0.91698c2.4873,0.16927 4.86772,0.46465 7.37736,1.18712c1.30089,0.37448 2.15273,1.94476 0.09077,1.80443z" data-paper-data="{&quot;origPos&quot;:null,&quot;origRot&quot;:0}"/></g><g data-paper-data="{&quot;origPos&quot;:null,&quot;origRot&quot;:0}" fill="#9383d1" stroke-width="0.5"><path d="M277.02802,189.48101c-0.2559,0 -0.46336,-0.80237 -0.46336,-1.79214c0,-0.98977 0.20746,-1.79214 0.46336,-1.79214c0.2559,0 0.46335,0.80237 0.46335,1.79214c0,0.98977 -0.20745,1.79214 -0.46335,1.79214z" data-paper-data="{&quot;origPos&quot;:null}"/><path d="M277.32915,188.56456c-1.70598,0.93546 -4.75491,2.09843 -6.52948,2.26411c0,0 -0.74812,0.2353 -0.76582,-1.21071c-0.01768,-1.44601 0.82925,-1.52508 0.82925,-1.52508c2.40965,-0.22499 5.39129,-0.97382 6.16933,-1.06874c0.25934,-0.03164 0.40524,-0.04674 0.66467,-0.06569c1.01783,-0.07433 0.72297,1.0079 -0.36797,1.6061z" data-paper-data="{&quot;origPos&quot;:null,&quot;origRot&quot;:0}"/></g></g><g stroke="none" stroke-linejoin="miter"><path d="M231.16019,222.7107c-36.27604,-0.10092 -55.2917,-32.80669 -45.24064,-47.61421c-6.75281,-16.74192 25.12325,-33.60744 47.90129,-33.53371c26.27592,0.06887 20.61826,7.73355 32.66559,13.86841c6.81779,3.47182 13.15825,2.26139 13.40712,16.09395c-1.20275,-1.8812 -5.11031,-3.23391 -5.11031,-3.23391c0,0 5.82388,4.39342 5.03795,8.84383c-3.80092,-12.81181 -45.06702,-24.4887 -45.14076,6.88788c-0.05833,24.82436 43.53397,23.37832 44.39525,8.22751c0.49383,2.18317 -3.23091,7.58426 -3.23091,7.58426c0,0 1.96103,-1.04548 3.03081,-3.23886c-0.38963,5.14267 -5.35825,8.48945 -5.35825,8.48945c0,0 3.34193,-1.75974 4.97168,-4.95508c-1.54796,11.69295 -8.36241,10.08777 -17.35368,12.95741c-8.99127,2.86964 -7.39251,9.6859 -29.97514,9.62307z" data-paper-data="{&quot;origPos&quot;:null,&quot;index&quot;:null}" fill="#ab7b70" stroke-width="0" stroke-linecap="butt"/><path d="M266.91691,200.52053c-4.61809,6.16656 -11.8619,6.74145 -19.27128,8.28178c-5.91594,3.11496 -12.95878,7.79735 -15.34637,5.83117c-2.59073,-2.13346 8.38223,-5.69909 -1.09935,-3.4086c-9.48158,2.29049 -42.88986,6.74284 -42.6692,-29.81948c0.70725,-37.31221 32.86712,-33.01257 40.12367,-30.89204c16.09818,3.35733 3.20838,1.63437 6.3106,-2.7093c2.64275,-0.98577 8.73833,2.27915 13.4864,6.49728c6.36839,1.04597 14.60216,3.38768 18.54707,8.64487c4.14738,5.52702 2.47197,13.08932 4.40471,14.57103c2.06158,1.58048 3.94022,4.75356 0.83195,6.70628c-2.41254,1.51564 -1.08624,10.64605 -5.3182,16.29701z" data-paper-data="{&quot;origPos&quot;:null,&quot;index&quot;:null}" fill="#f6dbc4" stroke-width="0" stroke-linecap="butt"/><g data-paper-data="{&quot;origPos&quot;:null,&quot;index&quot;:null}" stroke-width="0.5" stroke-linecap="butt"><path d="M266.73619,172.14493c-0.36401,0 -0.65909,-0.32489 -0.65909,-0.72567c0,-0.40078 0.29508,-0.72566 0.65909,-0.72566c0.36401,0 0.65909,0.32488 0.65909,0.72566c0,0.40078 -0.29508,0.72567 -0.65909,0.72567z" data-paper-data="{&quot;origPos&quot;:null}" fill="#d1b29b"/><path d="M265.87634,167.58684c-0.30334,0 -0.54924,-0.27074 -0.54924,-0.60473c0,-0.33398 0.2459,-0.60471 0.54924,-0.60471c0.30334,0 0.54924,0.27073 0.54924,0.60471c0,0.33398 -0.2459,0.60473 -0.54924,0.60473z" data-paper-data="{&quot;origPos&quot;:null}" fill="#d1b29b"/><path d="M265.39531,197.76025c-0.31381,0 -0.56818,-0.28008 -0.56818,-0.62557c0,-0.3455 0.25437,-0.62557 0.56818,-0.62557c0.31381,0 0.56818,0.28008 0.56818,0.62557c0,0.3455 -0.25438,0.62557 -0.56818,0.62557z" data-paper-data="{&quot;origPos&quot;:null}" fill="#d1b29b"/><path d="M264.02788,201.75141c-0.364,0 -0.65909,-0.32489 -0.65909,-0.72566c0,-0.40078 0.29509,-0.72567 0.65909,-0.72567c0.364,0 0.65909,0.32489 0.65909,0.72567c0,0.40078 -0.29509,0.72566 -0.65909,0.72566z" data-paper-data="{&quot;origPos&quot;:null}" fill="#d1b29b"/><path d="M266.74407,187.04412c-0.21652,0 -0.39204,-0.19326 -0.39204,-0.43164c0,-0.23838 0.17552,-0.43166 0.39204,-0.43166c0.21652,0 0.39205,0.19327 0.39205,0.43166c0,0.23838 -0.17553,0.43164 -0.39205,0.43164z" data-paper-data="{&quot;origPos&quot;:null}" fill="#d1b29b"/><path d="M267.02977,190.47269c-0.21652,0 -0.39204,-0.19326 -0.39204,-0.43164c0,-0.23838 0.17552,-0.43165 0.39204,-0.43165c0.21652,0 0.39205,0.19327 0.39205,0.43165c0,0.23838 -0.17553,0.43164 -0.39205,0.43164z" data-paper-data="{&quot;origPos&quot;:null}" fill="#d1b29b"/><path d="M266.29168,192.61555c-0.21652,0 -0.39204,-0.19326 -0.39204,-0.43164c0,-0.23838 0.17552,-0.43166 0.39204,-0.43166c0.21652,0 0.39205,0.19327 0.39205,0.43166c0,0.23838 -0.17553,0.43164 -0.39205,0.43164z" data-paper-data="{&quot;origPos&quot;:null}" fill="#d1b29b"/><path d="M265.60121,195.32983c-0.21652,0 -0.39204,-0.19326 -0.39204,-0.43164c0,-0.23838 0.17552,-0.43166 0.39204,-0.43166c0.21652,0 0.39205,0.19327 0.39205,0.43166c0,0.23838 -0.17553,0.43164 -0.39205,0.43164z" data-paper-data="{&quot;origPos&quot;:null}" fill="#d1b29b"/><path d="M262.77408,177.24004c-0.3389,0 -0.61363,-0.30248 -0.61363,-0.67561c0,-0.37313 0.27473,-0.67562 0.61363,-0.67562c0.3389,0 0.61364,0.30249 0.61364,0.67562c0,0.37313 -0.27474,0.67561 -0.61364,0.67561z" data-paper-data="{&quot;origPos&quot;:null}" fill="#d1b29b"/><path d="M267.29072,194.23219c-0.40803,0 -0.7388,-0.36418 -0.7388,-0.81341c0,-0.44924 0.33077,-0.81342 0.7388,-0.81342c0.40803,0 0.73879,0.36419 0.73879,0.81342c0,0.44924 -0.33076,0.81341 -0.73879,0.81341z" data-paper-data="{&quot;origPos&quot;:null}" fill="#bda18b"/><path d="M266.50111,169.3015c-0.19674,0 -0.35623,-0.17559 -0.35623,-0.39221c0,-0.21662 0.15949,-0.39222 0.35623,-0.39222c0.19674,0 0.35623,0.1756 0.35623,0.39222c0,0.21662 -0.15949,0.39221 -0.35623,0.39221z" data-paper-data="{&quot;origPos&quot;:null}" fill="#bda18b"/><path d="M266.7392,166.15865c-0.19674,0 -0.35623,-0.17559 -0.35623,-0.39221c0,-0.21662 0.15949,-0.39222 0.35623,-0.39222c0.19674,0 0.35623,0.1756 0.35623,0.39222c0,0.21662 -0.15949,0.39221 -0.35623,0.39221z" data-paper-data="{&quot;origPos&quot;:null}" fill="#bda18b"/><path d="M267.14397,167.73006c-0.19674,0 -0.35623,-0.1756 -0.35623,-0.39222c0,-0.21662 0.15949,-0.39222 0.35623,-0.39222c0.19674,0 0.35623,0.1756 0.35623,0.39222c0,0.21662 -0.15949,0.39222 -0.35623,0.39222z" data-paper-data="{&quot;origPos&quot;:null}" fill="#bda18b"/><path d="M264.42172,185.12171c-0.38917,0 -0.70464,-0.34735 -0.70464,-0.77582c0,-0.42847 0.31547,-0.77583 0.70464,-0.77583c0.38917,0 0.70465,0.34735 0.70465,0.77583c0,0.42847 -0.31548,0.77582 -0.70465,0.77582z" data-paper-data="{&quot;origPos&quot;:null}" fill="#bda18b"/><path d="M263.63377,162.73649c-0.38293,0 -0.69334,-0.34177 -0.69334,-0.76337c0,-0.4216 0.31042,-0.76337 0.69334,-0.76337c0.38293,0 0.69333,0.34177 0.69333,0.76337c0,0.4216 -0.31041,0.76337 -0.69333,0.76337z" data-paper-data="{&quot;origPos&quot;:null}" fill="#bda18b"/><path d="M259.02031,183.44711c-0.31381,0 -0.56818,-0.28007 -0.56818,-0.62557c0,-0.3455 0.25438,-0.62557 0.56818,-0.62557c0.31381,0 0.56818,0.28008 0.56818,0.62557c0,0.3455 -0.25438,0.62557 -0.56818,0.62557z" data-paper-data="{&quot;origPos&quot;:null}" fill="#d1b29b"/><path d="M260.39029,180.09427c-0.15685,0.07065 -0.33601,-0.01208 -0.40017,-0.18476c-0.06417,-0.17269 0.01096,-0.36995 0.16781,-0.4406c0.15685,-0.07065 0.33601,0.01208 0.40018,0.18477c0.06417,0.17269 -0.01097,0.36995 -0.16782,0.44059z" data-paper-data="{&quot;origPos&quot;:null,&quot;origRot&quot;:0}" fill="#d1b29b"/><path d="M260.39029,176.09427c-0.15685,0.07065 -0.33601,-0.01208 -0.40017,-0.18476c-0.06417,-0.17269 0.01096,-0.36995 0.16781,-0.4406c0.15685,-0.07065 0.33601,0.01208 0.40018,0.18477c0.06417,0.17269 -0.01097,0.36995 -0.16782,0.44059z" data-paper-data="{&quot;origPos&quot;:null,&quot;origRot&quot;:0}" fill="#d1b29b"/><path d="M265.2474,178.6657c-0.15685,0.07065 -0.33601,-0.01208 -0.40017,-0.18476c-0.06417,-0.17269 0.01096,-0.36995 0.16781,-0.4406c0.15685,-0.07065 0.33601,0.01208 0.40018,0.18477c0.06417,0.17269 -0.01097,0.36994 -0.16782,0.44059z" data-paper-data="{&quot;origPos&quot;:null,&quot;origRot&quot;:0}" fill="#d1b29b"/><path d="M265.676,169.52284c-0.15685,0.07065 -0.336,-0.01208 -0.40017,-0.18476c-0.06417,-0.17269 0.01096,-0.36995 0.16781,-0.4406c0.15685,-0.07065 0.33601,0.01208 0.40017,0.18477c0.06417,0.17269 -0.01097,0.36995 -0.16781,0.44059z" data-paper-data="{&quot;origPos&quot;:null,&quot;origRot&quot;:0}" fill="#bda18b"/><path d="M267.2474,195.80855c-0.15685,0.07065 -0.33601,-0.01208 -0.40017,-0.18476c-0.06417,-0.17269 0.01096,-0.36995 0.16781,-0.4406c0.15685,-0.07065 0.33601,0.01208 0.40018,0.18477c0.06417,0.17269 -0.01097,0.36994 -0.16782,0.44059z" data-paper-data="{&quot;origPos&quot;:null,&quot;origRot&quot;:0}" fill="#d1b29b"/><path d="M260.81884,182.37998c-0.15685,0.07065 -0.33601,-0.01208 -0.40017,-0.18476c-0.06417,-0.17269 0.01096,-0.36995 0.16781,-0.4406c0.15685,-0.07065 0.33601,0.01208 0.40017,0.18477c0.06417,0.17269 -0.01097,0.36995 -0.16781,0.44059z" data-paper-data="{&quot;origPos&quot;:null,&quot;origRot&quot;:0}" fill="#d1b29b"/><path d="M262.81884,183.80855c-0.15685,0.07065 -0.33601,-0.01208 -0.40017,-0.18476c-0.06417,-0.17269 0.01096,-0.36995 0.16781,-0.4406c0.15685,-0.07065 0.33601,0.01208 0.40017,0.18477c0.06417,0.17269 -0.01097,0.36994 -0.16781,0.44059z" data-paper-data="{&quot;origPos&quot;:null,&quot;origRot&quot;:0}" fill="#d1b29b"/><path d="M261.81884,183.6657c-0.15685,0.07065 -0.33601,-0.01208 -0.40017,-0.18476c-0.06417,-0.17269 0.01096,-0.36995 0.16781,-0.4406c0.15685,-0.07065 0.33601,0.01208 0.40017,0.18477c0.06417,0.17269 -0.01097,0.36994 -0.16781,0.44059z" data-paper-data="{&quot;origPos&quot;:null,&quot;origRot&quot;:0}" fill="#d1b29b"/><path d="M265.2474,164.80855c-0.15685,0.07065 -0.33601,-0.01207 -0.40017,-0.18476c-0.06417,-0.17269 0.01096,-0.36995 0.16781,-0.4406c0.15685,-0.07065 0.33601,0.01208 0.40018,0.18477c0.06417,0.17269 -0.01097,0.36994 -0.16782,0.44059z" data-paper-data="{&quot;origPos&quot;:null,&quot;origRot&quot;:0}" fill="#d1b29b"/><path d="M267.676,191.95141c-0.15685,0.07065 -0.336,-0.01208 -0.40017,-0.18476c-0.06417,-0.17269 0.01096,-0.36995 0.16781,-0.4406c0.15685,-0.07065 0.33601,0.01208 0.40017,0.18477c0.06417,0.17269 -0.01097,0.36995 -0.16781,0.44059z" data-paper-data="{&quot;origPos&quot;:null,&quot;origRot&quot;:0}" fill="#d1b29b"/><path d="M264.14908,181.65797c-0.33891,0 -0.61363,-0.30248 -0.61363,-0.67562c0,-0.37314 0.27473,-0.67562 0.61363,-0.67562c0.33891,0 0.61364,0.30248 0.61364,0.67562c0,0.37314 -0.27473,0.67562 -0.61364,0.67562z" data-paper-data="{&quot;origPos&quot;:null}" fill="#d1b29b"/><path d="M262.16695,185.9494c-0.28242,0 -0.51136,-0.25206 -0.51136,-0.56301c0,-0.31095 0.22895,-0.56302 0.51136,-0.56302c0.28242,0 0.51136,0.25207 0.51136,0.56302c0,0.31095 -0.22894,0.56301 -0.51136,0.56301z" data-paper-data="{&quot;origPos&quot;:null}" fill="#d1b29b"/><path d="M261.81955,179.93475c-0.30334,0 -0.54924,-0.27073 -0.54924,-0.60471c0,-0.33399 0.2459,-0.60471 0.54924,-0.60471c0.30334,0 0.54924,0.27073 0.54924,0.60471c0,0.33399 -0.2459,0.60471 -0.54924,0.60471z" data-paper-data="{&quot;origPos&quot;:null}" fill="#d1b29b"/><path d="M262.0239,181.82108c-0.35157,0 -0.63658,-0.31378 -0.63658,-0.70087c0,-0.38709 0.285,-0.70087 0.63658,-0.70087c0.35157,0 0.63656,0.31378 0.63656,0.70087c0,0.38709 -0.28499,0.70087 -0.63656,0.70087z" data-paper-data="{&quot;origPos&quot;:null}" fill="#bda18b"/><path d="M265.34576,190.80137c-0.28887,0 -0.52304,-0.25782 -0.52304,-0.57587c0,-0.31805 0.23417,-0.57588 0.52304,-0.57588c0.28887,0 0.52303,0.25783 0.52303,0.57588c0,0.31805 -0.23416,0.57587 -0.52303,0.57587z" data-paper-data="{&quot;origPos&quot;:null}" fill="#bda18b"/></g><path d="M222.89885,178.77028c9.1185,2.45239 29.26194,3.42142 33.82035,-4.44911c1.06787,8.90349 0.82355,15.41246 -0.20816,19.89255c-5.22311,8.71883 -23.08438,5.47951 -23.08438,5.47951c0,0 16.79516,4.28526 21.72522,-0.07987c-1.76908,6.27507 -6.6687,16.42226 -16.82502,17.84735c-39.7593,2.02195 -57.45837,-16.80669 -51.90731,-40.19754c-1.16948,-27.24192 27.54023,-33.98783 51.56796,-31.20037c7.39611,0.85802 12.84439,2.37045 14.91678,9.52194c2.15637,12.90331 -25.00645,16.76587 -25.00645,16.76587c0,0 11.63224,-0.53878 19.22014,-3.77266c4.38541,-1.86901 7.56789,-3.36388 7.44251,-8.1293c0.89483,4.21446 2.59683,7.28591 1.08838,11.32162c-3.74877,10.02944 -32.75002,7.00001 -32.75002,7.00001z" data-paper-data="{&quot;origPos&quot;:null,&quot;index&quot;:null}" fill="#ab7b70" stroke-width="0" stroke-linecap="butt"/><g data-paper-data="{&quot;origPos&quot;:null,&quot;index&quot;:null}" fill="#ab7b70"><g data-paper-data="{&quot;origPos&quot;:null}"><path d="M263.58342,169.40016c0.09821,4.29964 -2.56078,4.84516 -2.56078,4.84516c0,0 -0.05583,-1.61808 -0.14652,-4.77188c-0.3203,-3.69461 -3.93125,-7.17294 -3.93125,-7.17294c0,0 6.54034,2.80002 6.63855,7.09966z" data-paper-data="{&quot;origPos&quot;:null,&quot;index&quot;:null}" stroke-width="0" stroke-linecap="round"/><path d="M260.39223,175.21428c0,0 -3.46007,0.13681 -4.29726,-2.00563c-0.43458,-5.03743 -0.68108,-6.46754 -1.93252,-10.82948c-0.47431,-1.65323 -1.09134,-4.22364 -1.09134,-4.22364c0,0 2.90083,2.22361 3.61457,4.42404c0.84939,2.61864 2.14074,8.67424 2.14074,8.67424z" data-paper-data="{&quot;origPos&quot;:null,&quot;index&quot;:null}" stroke-width="0.5" stroke-linecap="butt"/></g><g data-paper-data="{&quot;origPos&quot;:null}"><path d="M257.19488,200.57451c0,0 3.61095,-3.47833 3.93125,-7.17294c0.09069,-3.1538 0.14652,-4.77188 0.14652,-4.77188c0,0 2.65899,0.54552 2.56078,4.84516c-0.09821,4.29964 -6.63855,7.09966 -6.63855,7.09966z" data-paper-data="{&quot;origPos&quot;:null}" stroke-width="0" stroke-linecap="round"/><path d="M253.0711,204.46947c0,0 0.45036,-2.57041 0.92467,-4.22364c1.25144,-4.36193 1.66462,-5.79204 2.0992,-10.82948c0.83719,-2.14244 4.29726,-2.00563 4.29726,-2.00563l-1.56582,3.96046c0,0 -1.29135,6.0556 -2.14074,8.67424c-0.84939,2.61864 -3.61457,4.42405 -3.61457,4.42405z" data-paper-data="{&quot;origPos&quot;:null,&quot;index&quot;:null}" stroke-width="0.5" stroke-linecap="butt"/></g></g></g><path d="M236.32686,224.4607c-31.27155,-0.67049 -57.28196,-21.80628 -56.99064,-43.78087c0.36113,-30.39919 36.12325,-40.52411 58.90129,-40.45038c3.19954,0.01036 4.63854,1.84573 4.63854,1.84573c0,0 -13.31999,12.03775 -13.36228,38.28108c-0.53251,22.33539 13.3604,41.72361 13.3604,41.72361c0,0 -0.04868,2.52014 -6.54731,2.38081z" data-paper-data="{&quot;origPos&quot;:null,&quot;index&quot;:null}" fill="#a69bd1" stroke="none" stroke-width="0" stroke-linecap="butt" stroke-linejoin="miter"/><g fill="#9383d1" stroke="none" stroke-width="0" stroke-linecap="butt" stroke-linejoin="miter"><path d="M225.09927,194.7858c0,0 1.40434,8.49481 4.38826,14.64286c2.35765,4.85769 5.76127,8.12964 5.76127,8.12964c0,0 -12.80503,4.93937 -14.08724,1.08441c-2.11788,-6.36744 3.93771,-23.85691 3.93771,-23.85691z" data-paper-data="{&quot;origPos&quot;:null,&quot;origRot&quot;:0,&quot;index&quot;:null}"/><path d="M220.97119,144.56301c1.28221,-3.85496 14.08724,1.08441 14.08724,1.08441c0,0 -4.6675,4.26127 -6.64442,8.18947c-3.05033,6.06111 -3.50511,14.58303 -3.50511,14.58303c0,0 -6.05559,-17.48948 -3.93771,-23.85691z" data-paper-data="{&quot;origPos&quot;:null,&quot;index&quot;:null,&quot;origRot&quot;:0}"/></g></g></g></svg>