<svg version="1.1" xmlns="http://www.w3.org/2000/svg" xmlns:xlink="http://www.w3.org/1999/xlink" width="155.44082" height="113.68235" viewBox="0,0,155.44082,113.68235"><g transform="translate(-190.14347,-124.27875)"><g data-paper-data="{&quot;isPaintingLayer&quot;:true}" fill-rule="nonzero" stroke-miterlimit="10" stroke-dasharray="" stroke-dashoffset="0" style="mix-blend-mode: normal"><g data-paper-data="{&quot;index&quot;:null,&quot;origPos&quot;:null,&quot;origRot&quot;:0}" stroke-linejoin="round"><path d="M334.00417,186.09701c4.84515,0.12063 11.25302,2.47687 11.44622,6.91788c0.1619,3.72154 -1.80939,8.74649 -12.29888,9.19898c-3.55869,0.15351 -7.13382,-1.1096 -10.35959,-1.52585c-7.09582,-0.17668 -16.12954,1.36482 -15.96146,-6.93256c0.04087,-7.71306 9.85007,-5.25849 15.21118,-5.50825c7.82831,-0.3647 7.11738,-2.27084 11.96253,-2.15021z" data-paper-data="{&quot;origPos&quot;:null,&quot;index&quot;:null,&quot;origRot&quot;:0}" fill="#ffffff" stroke="#627191" stroke-width="0.25" stroke-linecap="butt"/><path d="M321.83092,188.69824c4.86165,-0.48073 6.9079,-1.73053 11.75305,-1.6099c4.84514,0.12063 10.85719,1.95178 11.05039,6.39279c0.1619,3.72154 -3.39276,7.34839 -11.42291,7.8383c-3.55869,0.15352 -7.19377,-0.21517 -10.41954,-0.63142c-7.09582,-0.17668 -16.14931,-0.06382 -15.96146,-6.93256c-0.09507,-7.08498 9.65266,-4.52842 15.00047,-5.05722z" data-paper-data="{&quot;origPos&quot;:null,&quot;index&quot;:null,&quot;origRot&quot;:0}" fill="#627191" stroke="none" stroke-width="0" stroke-linecap="butt"/><path d="M333.34199,189.86759c0,0 1.09828,2.36974 1.21776,4.17123c0.11947,1.80149 -0.9647,4.12385 -0.9647,4.12385l-2.70271,-8.36566l-2.19738,8.76691l-3.16701,-8.52329l-1.49408,8.61399l-3.14837,-8.45964c0,0 0.97657,1.96928 1.11833,4.20328c0.13738,2.16501 -0.69896,4.30877 -0.69896,4.30877l1.98131,-8.66229l3.01204,8.5954l1.92306,-8.80343l2.91955,8.48283z" data-paper-data="{&quot;origPos&quot;:null,&quot;origRot&quot;:0}" fill="none" stroke="#ffffff" stroke-width="1" stroke-linecap="round"/><path d="M338.9732,188.89972c0,0 5.15535,0.9007 5.15787,5.004c0.00186,3.03209 -4.86054,5.54426 -4.86054,5.54426c0,0 -0.2179,-3.20532 -0.27573,-5.25689c-0.05821,-2.06502 -0.0216,-5.29137 -0.0216,-5.29137z" data-paper-data="{&quot;origPos&quot;:null,&quot;origRot&quot;:0}" fill="#ffffff" stroke="none" stroke-width="0" stroke-linecap="round"/></g><path d="M210.59034,225.14234c1.25578,0.61908 2.38899,0.5991 13.02505,8.86072c6.52663,5.71456 -16.91916,4.8131 -18.87156,-0.28492c-1.28441,-3.5264 0.74335,-8.15642 2.46259,-8.02219c2.5095,0.19594 2.12813,-1.17269 3.38391,-0.55361z" data-paper-data="{&quot;origPos&quot;:null,&quot;origRot&quot;:0,&quot;index&quot;:null}" fill="#f6dbc4" stroke="none" stroke-width="0" stroke-linecap="butt" stroke-linejoin="miter"/><g data-paper-data="{&quot;origPos&quot;:null,&quot;origRot&quot;:0,&quot;index&quot;:null}" stroke="none" stroke-linecap="butt" stroke-linejoin="miter"><path d="M206.46084,233.05057c1.62145,-5.01445 6.73337,-7.90377 14.00281,-10.25917c6.93684,-2.24765 9.93338,2.477 11.02908,6.50069c1.0957,4.02369 -5.13066,7.69207 -11.64307,7.97379c-6.51243,0.28173 -14.38682,-0.50389 -13.38882,-4.21531z" data-paper-data="{&quot;origPos&quot;:null,&quot;origRot&quot;:0,&quot;index&quot;:null}" fill="#f6dbc4" stroke-width="0"/><g data-paper-data="{&quot;origPos&quot;:null,&quot;origRot&quot;:0}" stroke-width="0.5"><path d="M229.27469,226.20665c0.33294,-0.10163 0.65677,0.11782 0.72333,0.49011c0.06656,0.3723 -0.14935,0.75646 -0.4823,0.85808c-0.33295,0.10161 -0.65679,-0.11784 -0.72335,-0.49013c-0.06655,-0.3723 0.14938,-0.75645 0.48232,-0.85807z" data-paper-data="{&quot;origPos&quot;:null}" fill="#d1b29b"/><path d="M209.65372,232.40454c0.33294,-0.10163 0.65678,0.11782 0.72334,0.49012c0.06656,0.3723 -0.14935,0.75647 -0.4823,0.85809c-0.33295,0.10161 -0.65678,-0.11782 -0.72334,-0.49012c-0.06656,-0.3723 0.14937,-0.75646 0.4823,-0.85809z" data-paper-data="{&quot;origPos&quot;:null}" fill="#d1b29b"/><path d="M213.97774,233.24695c-0.05738,-0.32094 0.12877,-0.65213 0.41579,-0.73972c0.28701,-0.0876 0.5662,0.10156 0.62358,0.42253c0.05739,0.32096 -0.12875,0.65212 -0.41577,0.73973c-0.287,0.08759 -0.5662,-0.10156 -0.62358,-0.42251z" data-paper-data="{&quot;origPos&quot;:null}" fill="#d1b29b"/><path d="M211.36406,234.6289c0.33293,-0.10163 0.6568,0.11785 0.72335,0.49012c0.06655,0.37228 -0.14936,0.75647 -0.48231,0.85809c-0.33292,0.10161 -0.65679,-0.11785 -0.72334,-0.49012c-0.06655,-0.37229 0.14938,-0.75647 0.48232,-0.85808z" data-paper-data="{&quot;origPos&quot;:null}" fill="#d1b29b"/><path d="M222.63332,229.15049c-0.03958,-0.22145 0.08886,-0.44998 0.28689,-0.51042c0.19803,-0.06045 0.3907,0.07007 0.43028,0.29152c0.03959,0.22145 -0.08888,0.44998 -0.28691,0.51041c-0.19803,0.06043 -0.39068,-0.07008 -0.43026,-0.29153z" data-paper-data="{&quot;origPos&quot;:null}" fill="#d1b29b"/><path d="M219.1856,234.91507c-0.0396,-0.22144 0.08886,-0.44998 0.2869,-0.5104c0.19804,-0.06044 0.3907,0.07007 0.43028,0.29153c0.03958,0.22147 -0.08888,0.44999 -0.28691,0.51042c-0.19803,0.06044 -0.39066,-0.07008 -0.43026,-0.29154z" data-paper-data="{&quot;origPos&quot;:null}" fill="#d1b29b"/><path d="M219.73288,229.72753c-0.0396,-0.22144 0.08886,-0.44999 0.28689,-0.51041c0.19803,-0.06043 0.39069,0.0701 0.43027,0.29155c0.03959,0.22145 -0.08887,0.44998 -0.28689,0.51041c-0.19803,0.06044 -0.3907,-0.07007 -0.43027,-0.29153z" data-paper-data="{&quot;origPos&quot;:null}" fill="#d1b29b"/><path d="M218.34412,230.34487c0.19803,-0.06044 0.39069,0.07009 0.43027,0.29154c0.03959,0.22145 -0.08886,0.44998 -0.28689,0.51042c-0.19803,0.06045 -0.3907,-0.07007 -0.43028,-0.29152c-0.03959,-0.22145 0.08887,-0.44999 0.28689,-0.51042z" data-paper-data="{&quot;origPos&quot;:null}" fill="#d1b29b"/><path d="M215.95914,232.42015c-0.03958,-0.22147 0.08886,-0.44999 0.28688,-0.51043c0.19803,-0.06044 0.39068,0.07009 0.43028,0.29155c0.03958,0.22145 -0.08888,0.44997 -0.2869,0.51041c-0.19803,0.06043 -0.39068,-0.07008 -0.43027,-0.29153z" data-paper-data="{&quot;origPos&quot;:null}" fill="#d1b29b"/><path d="M212.05952,231.11957c0.24696,-0.07538 0.48718,0.08737 0.53656,0.36355c0.04938,0.27617 -0.11081,0.56116 -0.35777,0.63653c-0.24695,0.07537 -0.48717,-0.08739 -0.53656,-0.36356c-0.04937,-0.27616 0.1108,-0.56115 0.35776,-0.63651z" data-paper-data="{&quot;origPos&quot;:null}" fill="#bda18b"/><path d="M216.63954,230.03066c-0.07462,-0.41732 0.16743,-0.84794 0.54063,-0.96185c0.37319,-0.1139 0.73623,0.13207 0.81083,0.5494c0.07462,0.41732 -0.16743,0.84795 -0.54064,0.96185c-0.3732,0.11391 -0.73623,-0.13207 -0.81083,-0.5494z" data-paper-data="{&quot;origPos&quot;:null}" fill="#bda18b"/><path d="M225.17064,230.12092c0.35596,-0.10865 0.70219,0.12594 0.77335,0.52398c0.07116,0.39802 -0.15971,0.80877 -0.51565,0.9174c-0.35595,0.10864 -0.70218,-0.12595 -0.77334,-0.52398c-0.07116,-0.39802 0.1597,-0.80876 0.51564,-0.91739z" data-paper-data="{&quot;origPos&quot;:null}" fill="#bda18b"/><path d="M215.26042,230.85782c0.03,-0.17834 0.18013,-0.30519 0.33533,-0.28335c0.15519,0.02184 0.25667,0.18411 0.22666,0.36244c-0.03001,0.17833 -0.18013,0.30518 -0.33533,0.28334c-0.15517,-0.02185 -0.25666,-0.18412 -0.22664,-0.36244z" data-paper-data="{&quot;origPos&quot;:null,&quot;origRot&quot;:0}" fill="#d1b29b"/><path d="M226.03896,232.34476c0.03001,-0.17833 0.18013,-0.30518 0.33533,-0.28334c0.1552,0.02185 0.25668,0.1841 0.22668,0.36243c-0.03001,0.17833 -0.18013,0.30519 -0.33532,0.28335c-0.15518,-0.02185 -0.25667,-0.18411 -0.22667,-0.36245z" data-paper-data="{&quot;origPos&quot;:null,&quot;origRot&quot;:0}" fill="#d1b29b"/><path d="M228.03133,229.64004c0.30997,-0.09461 0.61148,0.10969 0.67346,0.45631c0.06197,0.34662 -0.13907,0.70431 -0.44905,0.79891c-0.30997,0.09461 -0.61149,-0.10968 -0.67346,-0.4563c-0.06197,-0.34663 0.13907,-0.70432 0.44905,-0.79892z" data-paper-data="{&quot;origPos&quot;:null}" fill="#d1b29b"/><path d="M224.37969,233.55431c-0.05164,-0.28886 0.1159,-0.58691 0.37421,-0.66575c0.25832,-0.07882 0.50959,0.0914 0.56122,0.38026c0.05164,0.28885 -0.11589,0.58692 -0.37421,0.66576c-0.25832,0.07882 -0.50958,-0.09141 -0.56122,-0.38027z" data-paper-data="{&quot;origPos&quot;:null}" fill="#d1b29b"/><path d="M219.76777,231.53327c-0.05283,-0.29545 0.11853,-0.6003 0.38275,-0.68094c0.26421,-0.08064 0.52121,0.09348 0.57403,0.38893c0.05282,0.29544 -0.11854,0.60031 -0.38276,0.68096c-0.2642,0.08064 -0.5212,-0.0935 -0.57403,-0.38896z" data-paper-data="{&quot;origPos&quot;:null}" fill="#bda18b"/></g></g><path d="M266.93003,188.08217c-0.01311,-0.01011 -0.01478,-0.01139 -0.00044,-0.00153c0.00015,0.00052 0.00029,0.00102 0.00044,0.00153z" data-paper-data="{&quot;origPos&quot;:null,&quot;origRot&quot;:0,&quot;index&quot;:null}" fill="#9383d1" stroke="none" stroke-width="0.5" stroke-linecap="butt" stroke-linejoin="miter"/><g data-paper-data="{&quot;index&quot;:null,&quot;origPos&quot;:null}" stroke="none" stroke-width="0" stroke-linecap="butt" stroke-linejoin="miter"><path d="M280.86796,167.53832l11.85174,17.47213c0,0 19.55377,2.80807 23.34972,3.31261c8.70802,5.49194 -1.94101,12.04813 -1.94101,12.04813l-45.04517,12.7969z" data-paper-data="{&quot;origPos&quot;:null}" fill="#5083ab"/><path d="M311.67197,201.76231c6.06808,-6.10152 5.75106,-9.64121 -0.19283,-14.44813c3.00792,0.37151 5.30792,0.65275 6.32858,0.77168c13.43136,6.27351 -0.53119,12.62043 -0.53119,12.62043z" data-paper-data="{&quot;origPos&quot;:null}" fill="#cddce7"/></g><path d="M321.15446,144.30518c3.17658,2.81929 6.22713,3.3967 5.5702,4.35392c-1.05293,1.26441 -1.2466,0.8316 -4.83898,-0.17941c-4.81644,-1.3555 -4.34329,1.05437 -10.57994,-4.13482c-5.03928,-4.22307 -5.41547,-11.14986 17.02806,-6.65985c1.96816,2.29976 9.45588,7.84816 8.299,9.32557c-1.67932,2.14458 -5.45351,-3.14909 -10.55252,-3.65696z" data-paper-data="{&quot;origPos&quot;:null,&quot;origRot&quot;:0,&quot;index&quot;:null}" fill="#f6dbc4" stroke="none" stroke-width="0" stroke-linecap="butt" stroke-linejoin="miter"/><g stroke="none" stroke-linecap="butt" stroke-linejoin="miter"><path d="M318.58576,139.95582c-2.92172,6.06063 -12.6944,4.41272 -21.04762,4.97314c-7.97103,0.53478 -17.80501,-0.56575 -13.82883,-7.80899c3.17401,-5.78196 5.96494,-5.92643 13.20159,-4.67453c7.23666,1.25191 23.27876,4.18332 21.67485,7.51038z" data-paper-data="{&quot;origPos&quot;:null,&quot;origRot&quot;:0,&quot;index&quot;:null}" fill="#f6dbc4" stroke-width="0"/><g data-paper-data="{&quot;origPos&quot;:null,&quot;origRot&quot;:0}" stroke-width="0.5"><path d="M301.32831,135.41587c0.04578,-0.3681 0.4068,-0.62507 0.80641,-0.57394c0.39958,0.05113 0.68639,0.39098 0.64061,0.75908c-0.04578,0.3681 -0.4068,0.62507 -0.80641,0.57394c-0.39958,-0.05112 -0.68639,-0.39097 -0.64061,-0.75908z" data-paper-data="{&quot;origPos&quot;:null}" fill="#d1b29b"/><path d="M297.36141,142.73052c-0.34447,-0.04407 -0.59172,-0.33705 -0.55226,-0.65439c0.03948,-0.31734 0.35072,-0.53885 0.69519,-0.49477c0.34448,0.04407 0.59172,0.33704 0.55226,0.65439c-0.03948,0.31734 -0.35071,0.53885 -0.69518,0.49477z" data-paper-data="{&quot;origPos&quot;:null}" fill="#d1b29b"/><path d="M295.36355,137.56331c-0.39959,-0.05113 -0.6864,-0.39098 -0.64062,-0.75908c0.04578,-0.36809 0.40683,-0.62506 0.80642,-0.57393c0.39958,0.05113 0.68639,0.39098 0.64061,0.75908c-0.04578,0.36809 -0.40681,0.62507 -0.80642,0.57394z" data-paper-data="{&quot;origPos&quot;:null}" fill="#d1b29b"/><path d="M309.06609,141.25869c0.02724,-0.21896 0.242,-0.37179 0.47968,-0.34139c0.23768,0.03041 0.40832,0.23256 0.38108,0.45152c-0.02724,0.21896 -0.24202,0.37179 -0.4797,0.34139c-0.23768,-0.0304 -0.40829,-0.23257 -0.38105,-0.45153z" data-paper-data="{&quot;origPos&quot;:null}" fill="#d1b29b"/><path d="M300.36051,136.84083c0.02723,-0.21896 0.242,-0.37182 0.47967,-0.3414c0.23766,0.03041 0.40832,0.23256 0.38107,0.45152c-0.02724,0.21896 -0.24201,0.3718 -0.4797,0.3414c-0.23767,-0.03042 -0.4083,-0.23257 -0.38106,-0.45153z" data-paper-data="{&quot;origPos&quot;:null}" fill="#d1b29b"/><path d="M300.26128,134.64137c-0.23768,-0.03041 -0.4083,-0.23257 -0.38106,-0.45153c0.02724,-0.21896 0.24201,-0.3718 0.47968,-0.34138c0.23768,0.03042 0.40831,0.23256 0.38107,0.45152c-0.02724,0.21896 -0.24202,0.37182 -0.47969,0.3414z" data-paper-data="{&quot;origPos&quot;:null}" fill="#d1b29b"/><path d="M303.9281,140.71055c-0.23767,-0.03041 -0.40829,-0.23257 -0.38105,-0.45153c0.02724,-0.21896 0.242,-0.3718 0.47968,-0.3414c0.23767,0.03041 0.40832,0.23256 0.38107,0.45152c-0.02723,0.21896 -0.24202,0.3718 -0.4797,0.3414z" data-paper-data="{&quot;origPos&quot;:null}" fill="#d1b29b"/><path d="M301.32966,139.49747c-0.23768,-0.03041 -0.40829,-0.23258 -0.38105,-0.45154c0.02723,-0.21896 0.24199,-0.3718 0.47966,-0.34138c0.23767,0.03042 0.40832,0.23256 0.38108,0.45152c-0.02724,0.21896 -0.24202,0.37181 -0.4797,0.34141z" data-paper-data="{&quot;origPos&quot;:null}" fill="#d1b29b"/><path d="M298.22531,134.9621c0.03397,-0.27306 0.30178,-0.46366 0.59818,-0.42573c0.29641,0.03792 0.50917,0.29002 0.4752,0.56308c-0.03397,0.27307 -0.30178,0.46366 -0.59819,0.42574c-0.29642,-0.03792 -0.50914,-0.29003 -0.47518,-0.56308z" data-paper-data="{&quot;origPos&quot;:null}" fill="#bda18b"/><path d="M297.58266,138.72783c-0.4479,-0.05731 -0.7694,-0.43825 -0.71808,-0.85087c0.05132,-0.41262 0.45604,-0.70068 0.90394,-0.64336c0.4479,0.05732 0.7694,0.43828 0.71809,0.85089c-0.05133,0.41263 -0.45605,0.70067 -0.90395,0.64335z" data-paper-data="{&quot;origPos&quot;:null}" fill="#bda18b"/><path d="M305.55384,138.68151c0.04893,-0.39355 0.43494,-0.66826 0.86215,-0.6136c0.4272,0.05466 0.73387,0.41799 0.68491,0.81154c-0.04893,0.39355 -0.43495,0.66825 -0.86217,0.6136c-0.4272,-0.05466 -0.73384,-0.41799 -0.68489,-0.81154z" data-paper-data="{&quot;origPos&quot;:null}" fill="#bda18b"/><path d="M294.93195,134.93729c-0.05072,-0.16763 0.05431,-0.33824 0.23454,-0.3811c0.18025,-0.04286 0.36748,0.05828 0.4182,0.22591c0.05072,0.16764 -0.05431,0.33826 -0.23456,0.38112c-0.18025,0.04285 -0.36747,-0.05829 -0.41819,-0.22592z" data-paper-data="{&quot;origPos&quot;:null,&quot;origRot&quot;:0}" fill="#d1b29b"/><path d="M312.23083,138.42821c-0.05072,-0.16763 0.05432,-0.33825 0.23455,-0.38111c0.18025,-0.04285 0.36746,0.05829 0.41818,0.22592c0.05072,0.16763 -0.05431,0.33823 -0.23455,0.38109c-0.18025,0.04286 -0.36746,-0.05828 -0.41818,-0.22591z" data-paper-data="{&quot;origPos&quot;:null,&quot;origRot&quot;:0}" fill="#d1b29b"/><path d="M313.47216,136.93493c-0.18025,0.04286 -0.36747,-0.05828 -0.41819,-0.22591c-0.05072,-0.16763 0.05432,-0.33825 0.23455,-0.3811c0.18025,-0.04285 0.36747,0.05829 0.41819,0.22592c0.05072,0.16764 -0.0543,0.33824 -0.23455,0.3811z" data-paper-data="{&quot;origPos&quot;:null,&quot;origRot&quot;:0}" fill="#d1b29b"/><path d="M308.41351,136.02991c0.18025,-0.04286 0.36748,0.05828 0.4182,0.22591c0.05072,0.16764 -0.05431,0.33825 -0.23456,0.38111c-0.18025,0.04286 -0.36749,-0.0583 -0.41819,-0.22592c-0.05072,-0.16763 0.05431,-0.33823 0.23455,-0.3811z" data-paper-data="{&quot;origPos&quot;:null,&quot;origRot&quot;:0}" fill="#d1b29b"/><path d="M314.7627,139.32161c0.04263,-0.34273 0.37875,-0.58194 0.7508,-0.53434c0.37204,0.0476 0.63907,0.36402 0.59645,0.70674c-0.04263,0.34273 -0.37875,0.58195 -0.7508,0.53435c-0.37203,-0.0476 -0.63907,-0.36402 -0.59645,-0.70674z" data-paper-data="{&quot;origPos&quot;:null}" fill="#d1b29b"/><path d="M296.90966,135.83408c0.03634,-0.29212 0.32286,-0.49604 0.63996,-0.45546c0.31711,0.04059 0.54473,0.31028 0.5084,0.60241c-0.03633,0.29213 -0.32286,0.49604 -0.63996,0.45546c-0.31711,-0.04058 -0.54472,-0.31025 -0.50839,-0.60238z" data-paper-data="{&quot;origPos&quot;:null}" fill="#bda18b"/></g></g><g data-paper-data="{&quot;index&quot;:null}" stroke="none" stroke-linecap="butt" stroke-linejoin="miter"><path d="M267.41093,184.12372c-0.01311,-0.01011 -0.01478,-0.01139 -0.00044,-0.00153c0.00015,0.00052 0.00029,0.00102 0.00044,0.00153z" data-paper-data="{&quot;origPos&quot;:null,&quot;origRot&quot;:0,&quot;index&quot;:null}" fill="#9383d1" stroke-width="0.5"/><path d="M235.8859,233.34379c-3.2486,9.6608 -22.54739,2.74963 -21.86714,-7.76467c-0.14439,-3.16727 3.78274,-4.94634 3.78274,-4.94634c0,0 -8.19903,-26.19935 -3.6066,-44.05366c14.20756,-50.36171 32.30753,-48.69073 43.0801,-48.58609c25.45003,1.77142 21.86624,-3.95478 27.64065,-3.70641c6.77123,0.29124 9.17628,6.36412 9.07103,12.3315c-1.85801,24.29783 -15.25275,13.2799 -26.22497,10.28098c8.4706,1.87894 19.28432,-1.80733 21.57446,3.54858c9.66738,21.04479 0.13516,58.55627 -24.08307,64.36397c-6.85861,8.42849 -7.96513,8.43746 -17.18698,13.74216c-9.22185,5.3047 -12.18022,4.78998 -12.18022,4.78998z" data-paper-data="{&quot;origPos&quot;:null,&quot;index&quot;:null,&quot;origRot&quot;:0}" fill="#a69bd1" stroke-width="NaN"/><g data-paper-data="{&quot;origPos&quot;:null,&quot;origRot&quot;:0,&quot;index&quot;:null}" fill="#9383d1" stroke-width="0.5"><path d="M273.95069,175.66758c0,0.79077 -0.2285,1.43182 -0.51036,1.43182c-0.28186,0 -0.51036,-0.64105 -0.51036,-1.43182c0,-0.79077 0.2285,-1.43182 0.51036,-1.43182c0.28186,0 0.51036,0.64105 0.51036,1.43182z" data-paper-data="{&quot;origPos&quot;:null}"/><path d="M274.17733,176.25114c-0.28576,-0.01514 -0.44644,-0.0272 -0.7321,-0.05248c-0.85697,-0.07583 -4.14112,-0.67411 -6.79523,-0.85386c0,0 -0.93287,-0.06318 -0.91339,-1.21846c0.01948,-1.15528 0.84351,-0.96729 0.84351,-0.96729c1.95459,0.13237 5.31285,1.06152 7.19191,1.8089c1.2016,0.47793 1.52639,1.34258 0.4053,1.28319z" data-paper-data="{&quot;origPos&quot;:null,&quot;origRot&quot;:0}"/></g><g data-paper-data="{&quot;origPos&quot;:null,&quot;origRot&quot;:0,&quot;index&quot;:null}" fill="#9383d1" stroke-width="0.5"><path d="M274.23893,183.72061c0,0.71546 -0.21534,1.29545 -0.48097,1.29545c-0.26563,0 -0.48097,-0.57999 -0.48097,-1.29545c0,-0.71546 0.21534,-1.29545 0.48097,-1.29545c0.26563,0 0.48097,0.57999 0.48097,1.29545z" data-paper-data="{&quot;origPos&quot;:null}"/><path d="M274.03013,184.38996c-2.46007,0.57797 -4.79347,0.81427 -7.23163,0.94969c0,0 -0.95861,0.46428 -0.97633,-0.73358c-0.01772,-1.19786 0.94696,-1.25144 0.94696,-1.25144c2.02124,-0.11226 5.32873,-0.29596 7.34998,-0.40822c2.02124,-0.11226 1.18622,1.14396 -0.08898,1.44355z" data-paper-data="{&quot;origPos&quot;:null,&quot;origRot&quot;:0}"/></g><path d="M268.96311,200.34743c0,0 7.14451,-9.80553 10.02882,-17.0026c3.01777,-7.5301 3.89537,-20.25429 3.89537,-20.25429l7.73889,-8.20655c0,0 5.85423,14.69638 -1.28204,34.97889c-7.08749,20.14385 -21.5335,23.84566 -21.5335,23.84566z" data-paper-data="{&quot;origPos&quot;:null,&quot;origRot&quot;:0,&quot;index&quot;:null}" fill="#9383d1" stroke-width="0"/></g><g stroke="none" stroke-linejoin="miter"><path d="M241.96986,222.306c-36.2493,-1.39616 -55.2917,-32.80669 -45.24064,-47.61421c-6.75281,-16.74192 25.12325,-33.60744 47.90129,-33.53371c21.27592,0.06887 20.86826,8.73355 32.91559,14.86841c6.81779,3.47182 5.65825,2.76139 8.90712,17.26062c-1.20275,-1.8812 -4.61031,-3.23391 -4.61031,-3.23391c0,0 5.57388,5.14342 4.78795,9.59383c-3.80092,-12.81181 -41.06702,-27.40537 -41.14076,3.97121c-0.05833,24.82436 39.53397,25.29499 40.39525,10.14418c0.49383,2.18317 -3.23091,7.83426 -3.23091,7.83426c0,0 1.96103,-1.04548 3.03081,-3.23886c-0.38963,5.14267 -5.27492,8.98945 -5.27492,8.98945c0,0 3.59193,-1.75974 5.22168,-4.95508c-1.21463,9.35961 -4.44574,8.6711 -13.43701,11.54074c-7.29134,2.32709 -9.48065,9.17207 -30.22515,8.37307z" data-paper-data="{&quot;origPos&quot;:null}" fill="#ab7b70" stroke-width="0" stroke-linecap="butt"/><path d="M277.52657,200.11583c-4.61809,6.16656 -11.8619,6.74145 -19.27128,8.28178c-5.91594,3.11496 -12.95878,7.79735 -15.34637,5.83117c-2.59073,-2.13346 8.38223,-5.69909 -1.09935,-3.4086c-9.48158,2.29049 -42.88986,6.74284 -42.6692,-29.81948c0.70725,-37.31221 32.86712,-33.01257 40.12367,-30.89204c16.09818,3.35733 3.20838,1.63437 6.3106,-2.7093c2.64275,-0.98577 8.73833,2.27915 13.4864,6.49728c6.36839,1.04597 14.60216,3.38768 18.54707,8.64487c4.14738,5.52702 2.14313,11.59055 3.80471,13.37103c1.78563,1.91341 3.19835,2.88823 3.08277,4.39454c-0.10649,1.7405 -1.91985,3.33904 -2.85082,4.11174c-0.93098,0.77269 0.11376,10.04605 -4.1182,15.69701z" data-paper-data="{&quot;origPos&quot;:null}" fill="#f6dbc4" stroke-width="0" stroke-linecap="butt"/><g data-paper-data="{&quot;origPos&quot;:null}" stroke-width="0.5" stroke-linecap="butt"><path d="M277.54588,171.74023c-0.36401,0 -0.65909,-0.32489 -0.65909,-0.72567c0,-0.40078 0.29508,-0.72566 0.65909,-0.72566c0.36401,0 0.65909,0.32488 0.65909,0.72566c0,0.40078 -0.29508,0.72567 -0.65909,0.72567z" data-paper-data="{&quot;origPos&quot;:null}" fill="#d1b29b"/><path d="M276.68602,167.18213c-0.30334,0 -0.54924,-0.27074 -0.54924,-0.60473c0,-0.33398 0.2459,-0.60471 0.54924,-0.60471c0.30334,0 0.54924,0.27073 0.54924,0.60471c0,0.33398 -0.2459,0.60473 -0.54924,0.60473z" data-paper-data="{&quot;origPos&quot;:null}" fill="#d1b29b"/><path d="M276.20498,197.35555c-0.31381,0 -0.56818,-0.28008 -0.56818,-0.62557c0,-0.3455 0.25437,-0.62557 0.56818,-0.62557c0.31381,0 0.56818,0.28008 0.56818,0.62557c0,0.3455 -0.25438,0.62557 -0.56818,0.62557z" data-paper-data="{&quot;origPos&quot;:null}" fill="#d1b29b"/><path d="M274.83752,201.34671c-0.364,0 -0.65909,-0.32489 -0.65909,-0.72566c0,-0.40078 0.29509,-0.72567 0.65909,-0.72567c0.364,0 0.65909,0.32489 0.65909,0.72567c0,0.40078 -0.29509,0.72566 -0.65909,0.72566z" data-paper-data="{&quot;origPos&quot;:null}" fill="#d1b29b"/><path d="M277.55374,186.63942c-0.21652,0 -0.39204,-0.19326 -0.39204,-0.43164c0,-0.23838 0.17552,-0.43166 0.39204,-0.43166c0.21652,0 0.39205,0.19327 0.39205,0.43166c0,0.23838 -0.17553,0.43164 -0.39205,0.43164z" data-paper-data="{&quot;origPos&quot;:null}" fill="#d1b29b"/><path d="M277.83941,190.06799c-0.21652,0 -0.39204,-0.19326 -0.39204,-0.43164c0,-0.23838 0.17552,-0.43165 0.39204,-0.43165c0.21652,0 0.39205,0.19327 0.39205,0.43165c0,0.23838 -0.17553,0.43164 -0.39205,0.43164z" data-paper-data="{&quot;origPos&quot;:null}" fill="#d1b29b"/><path d="M277.10132,192.21085c-0.21652,0 -0.39204,-0.19326 -0.39204,-0.43164c0,-0.23838 0.17552,-0.43166 0.39204,-0.43166c0.21652,0 0.39205,0.19327 0.39205,0.43166c0,0.23838 -0.17553,0.43164 -0.39205,0.43164z" data-paper-data="{&quot;origPos&quot;:null}" fill="#d1b29b"/><path d="M276.41087,194.92513c-0.21652,0 -0.39204,-0.19326 -0.39204,-0.43164c0,-0.23838 0.17552,-0.43166 0.39204,-0.43166c0.21652,0 0.39205,0.19327 0.39205,0.43166c0,0.23838 -0.17553,0.43164 -0.39205,0.43164z" data-paper-data="{&quot;origPos&quot;:null}" fill="#d1b29b"/><path d="M273.58375,176.83534c-0.3389,0 -0.61363,-0.30248 -0.61363,-0.67561c0,-0.37313 0.27473,-0.67562 0.61363,-0.67562c0.3389,0 0.61364,0.30249 0.61364,0.67562c0,0.37313 -0.27474,0.67561 -0.61364,0.67561z" data-paper-data="{&quot;origPos&quot;:null}" fill="#d1b29b"/><path d="M278.1004,193.82749c-0.40803,0 -0.7388,-0.36418 -0.7388,-0.81341c0,-0.44924 0.33077,-0.81342 0.7388,-0.81342c0.40803,0 0.73879,0.36419 0.73879,0.81342c0,0.44924 -0.33076,0.81341 -0.73879,0.81341z" data-paper-data="{&quot;origPos&quot;:null}" fill="#bda18b"/><path d="M277.31075,168.8968c-0.19674,0 -0.35623,-0.17559 -0.35623,-0.39221c0,-0.21662 0.15949,-0.39222 0.35623,-0.39222c0.19674,0 0.35623,0.1756 0.35623,0.39222c0,0.21662 -0.15949,0.39221 -0.35623,0.39221z" data-paper-data="{&quot;origPos&quot;:null}" fill="#bda18b"/><path d="M277.54884,165.75394c-0.19674,0 -0.35623,-0.17559 -0.35623,-0.39221c0,-0.21662 0.15949,-0.39222 0.35623,-0.39222c0.19674,0 0.35623,0.1756 0.35623,0.39222c0,0.21662 -0.15949,0.39221 -0.35623,0.39221z" data-paper-data="{&quot;origPos&quot;:null}" fill="#bda18b"/><path d="M277.95364,167.32538c-0.19674,0 -0.35623,-0.1756 -0.35623,-0.39222c0,-0.21662 0.15949,-0.39222 0.35623,-0.39222c0.19674,0 0.35623,0.1756 0.35623,0.39222c0,0.21662 -0.15949,0.39222 -0.35623,0.39222z" data-paper-data="{&quot;origPos&quot;:null}" fill="#bda18b"/><path d="M275.23139,184.71701c-0.38917,0 -0.70464,-0.34735 -0.70464,-0.77582c0,-0.42847 0.31547,-0.77583 0.70464,-0.77583c0.38917,0 0.70465,0.34735 0.70465,0.77583c0,0.42847 -0.31548,0.77582 -0.70465,0.77582z" data-paper-data="{&quot;origPos&quot;:null}" fill="#bda18b"/><path d="M274.44345,162.33179c-0.38293,0 -0.69334,-0.34177 -0.69334,-0.76337c0,-0.4216 0.31042,-0.76337 0.69334,-0.76337c0.38293,0 0.69333,0.34177 0.69333,0.76337c0,0.4216 -0.31041,0.76337 -0.69333,0.76337z" data-paper-data="{&quot;origPos&quot;:null}" fill="#bda18b"/><path d="M269.82998,183.04241c-0.31381,0 -0.56818,-0.28007 -0.56818,-0.62557c0,-0.3455 0.25438,-0.62557 0.56818,-0.62557c0.31381,0 0.56818,0.28008 0.56818,0.62557c0,0.3455 -0.25438,0.62557 -0.56818,0.62557z" data-paper-data="{&quot;origPos&quot;:null}" fill="#d1b29b"/><path d="M271.19996,179.68957c-0.15685,0.07065 -0.33601,-0.01208 -0.40017,-0.18476c-0.06417,-0.17269 0.01096,-0.36995 0.16781,-0.4406c0.15685,-0.07065 0.33601,0.01208 0.40018,0.18477c0.06417,0.17269 -0.01097,0.36995 -0.16782,0.44059z" data-paper-data="{&quot;origPos&quot;:null,&quot;origRot&quot;:0}" fill="#d1b29b"/><path d="M271.19996,175.68957c-0.15685,0.07065 -0.33601,-0.01208 -0.40017,-0.18476c-0.06417,-0.17269 0.01096,-0.36995 0.16781,-0.4406c0.15685,-0.07065 0.33601,0.01208 0.40018,0.18477c0.06417,0.17269 -0.01097,0.36995 -0.16782,0.44059z" data-paper-data="{&quot;origPos&quot;:null,&quot;origRot&quot;:0}" fill="#d1b29b"/><path d="M276.05708,178.261c-0.15685,0.07065 -0.33601,-0.01208 -0.40017,-0.18476c-0.06417,-0.17269 0.01096,-0.36995 0.16781,-0.4406c0.15685,-0.07065 0.33601,0.01208 0.40018,0.18477c0.06417,0.17269 -0.01097,0.36994 -0.16782,0.44059z" data-paper-data="{&quot;origPos&quot;:null,&quot;origRot&quot;:0}" fill="#d1b29b"/><path d="M276.48564,169.11814c-0.15685,0.07065 -0.336,-0.01208 -0.40017,-0.18476c-0.06417,-0.17269 0.01096,-0.36995 0.16781,-0.4406c0.15685,-0.07065 0.33601,0.01208 0.40017,0.18477c0.06417,0.17269 -0.01097,0.36995 -0.16781,0.44059z" data-paper-data="{&quot;origPos&quot;:null,&quot;origRot&quot;:0}" fill="#bda18b"/><path d="M278.05708,195.40385c-0.15685,0.07065 -0.33601,-0.01208 -0.40017,-0.18476c-0.06417,-0.17269 0.01096,-0.36995 0.16781,-0.4406c0.15685,-0.07065 0.33601,0.01208 0.40018,0.18477c0.06417,0.17269 -0.01097,0.36994 -0.16782,0.44059z" data-paper-data="{&quot;origPos&quot;:null,&quot;origRot&quot;:0}" fill="#d1b29b"/><path d="M271.62852,181.97528c-0.15685,0.07065 -0.33601,-0.01208 -0.40017,-0.18476c-0.06417,-0.17269 0.01096,-0.36995 0.16781,-0.4406c0.15685,-0.07065 0.33601,0.01208 0.40017,0.18477c0.06417,0.17269 -0.01097,0.36995 -0.16781,0.44059z" data-paper-data="{&quot;origPos&quot;:null,&quot;origRot&quot;:0}" fill="#d1b29b"/><path d="M273.62852,183.40385c-0.15685,0.07065 -0.33601,-0.01208 -0.40017,-0.18476c-0.06417,-0.17269 0.01096,-0.36995 0.16781,-0.4406c0.15685,-0.07065 0.33601,0.01208 0.40017,0.18477c0.06417,0.17269 -0.01097,0.36994 -0.16781,0.44059z" data-paper-data="{&quot;origPos&quot;:null,&quot;origRot&quot;:0}" fill="#d1b29b"/><path d="M272.62852,183.261c-0.15685,0.07065 -0.33601,-0.01208 -0.40017,-0.18476c-0.06417,-0.17269 0.01096,-0.36995 0.16781,-0.4406c0.15685,-0.07065 0.33601,0.01208 0.40017,0.18477c0.06417,0.17269 -0.01097,0.36994 -0.16781,0.44059z" data-paper-data="{&quot;origPos&quot;:null,&quot;origRot&quot;:0}" fill="#d1b29b"/><path d="M276.05708,164.40383c-0.15685,0.07065 -0.33601,-0.01207 -0.40017,-0.18476c-0.06417,-0.17269 0.01096,-0.36995 0.16781,-0.4406c0.15685,-0.07065 0.33601,0.01208 0.40018,0.18477c0.06417,0.17269 -0.01097,0.36994 -0.16782,0.44059z" data-paper-data="{&quot;origPos&quot;:null,&quot;origRot&quot;:0}" fill="#d1b29b"/><path d="M278.48564,191.54671c-0.15685,0.07065 -0.336,-0.01208 -0.40017,-0.18476c-0.06417,-0.17269 0.01096,-0.36995 0.16781,-0.4406c0.15685,-0.07065 0.33601,0.01208 0.40017,0.18477c0.06417,0.17269 -0.01097,0.36995 -0.16781,0.44059z" data-paper-data="{&quot;origPos&quot;:null,&quot;origRot&quot;:0}" fill="#d1b29b"/><path d="M274.95875,181.25327c-0.33891,0 -0.61363,-0.30248 -0.61363,-0.67562c0,-0.37314 0.27473,-0.67562 0.61363,-0.67562c0.33891,0 0.61364,0.30248 0.61364,0.67562c0,0.37314 -0.27473,0.67562 -0.61364,0.67562z" data-paper-data="{&quot;origPos&quot;:null}" fill="#d1b29b"/><path d="M272.97659,185.5447c-0.28242,0 -0.51136,-0.25206 -0.51136,-0.56301c0,-0.31095 0.22895,-0.56302 0.51136,-0.56302c0.28242,0 0.51136,0.25207 0.51136,0.56302c0,0.31095 -0.22894,0.56301 -0.51136,0.56301z" data-paper-data="{&quot;origPos&quot;:null}" fill="#d1b29b"/><path d="M272.62922,179.53005c-0.30334,0 -0.54924,-0.27073 -0.54924,-0.60471c0,-0.33399 0.2459,-0.60471 0.54924,-0.60471c0.30334,0 0.54924,0.27073 0.54924,0.60471c0,0.33399 -0.2459,0.60471 -0.54924,0.60471z" data-paper-data="{&quot;origPos&quot;:null}" fill="#d1b29b"/><path d="M272.83357,181.41638c-0.35157,0 -0.63658,-0.31378 -0.63658,-0.70087c0,-0.38709 0.285,-0.70087 0.63658,-0.70087c0.35157,0 0.63656,0.31378 0.63656,0.70087c0,0.38709 -0.28499,0.70087 -0.63656,0.70087z" data-paper-data="{&quot;origPos&quot;:null}" fill="#bda18b"/><path d="M276.1554,190.39667c-0.28887,0 -0.52304,-0.25782 -0.52304,-0.57587c0,-0.31805 0.23417,-0.57588 0.52304,-0.57588c0.28887,0 0.52303,0.25783 0.52303,0.57588c0,0.31805 -0.23416,0.57587 -0.52303,0.57587z" data-paper-data="{&quot;origPos&quot;:null}" fill="#bda18b"/></g><path d="M233.37519,178.03225c9.1185,2.45239 29.26194,6.42142 33.82035,-1.44911c1.06787,8.90349 0.82355,15.41246 -0.20816,19.89255c-5.22311,8.71883 -23.08438,2.47951 -23.08438,2.47951c0,0 17.12849,7.95192 22.05855,3.58679c-1.76908,6.27507 -7.00203,12.7556 -17.15835,14.18069c-39.7593,2.02195 -57.45837,-16.80669 -51.90731,-40.19754c-1.16948,-27.24192 27.54023,-33.98783 51.56796,-31.20037c7.39611,0.85802 12.84439,3.03712 14.91678,10.18861c1.4897,17.56998 -25.00645,16.0992 -25.00645,16.0992c0,0 26.95865,2.34854 26.66265,-8.90196c0.89483,4.21446 2.59683,7.28591 1.08838,11.32162c-3.74877,10.02944 -32.75002,4.00001 -32.75002,4.00001z" data-paper-data="{&quot;origPos&quot;:null}" fill="#ab7b70" stroke-width="0" stroke-linecap="butt"/><g data-paper-data="{&quot;origPos&quot;:null}" fill="#ab7b70"><g data-paper-data="{&quot;origPos&quot;:null}"><path d="M274.39306,168.99546c0.09821,4.29964 -2.56078,4.84516 -2.56078,4.84516c0,0 -0.05583,-1.61808 -0.14652,-4.77188c-0.3203,-3.69461 -3.93125,-7.17294 -3.93125,-7.17294c0,0 6.54034,2.80002 6.63855,7.09966z" data-paper-data="{&quot;origPos&quot;:null,&quot;index&quot;:null}" stroke-width="0" stroke-linecap="round"/><path d="M271.20187,174.80958c0,0 -3.46007,0.13681 -4.29726,-2.00563c-0.43458,-5.03743 -0.68108,-6.46754 -1.93252,-10.82948c-0.47431,-1.65323 -1.09134,-4.22364 -1.09134,-4.22364c0,0 2.90083,2.22361 3.61457,4.42404c0.84939,2.61864 2.14074,8.67424 2.14074,8.67424z" data-paper-data="{&quot;origPos&quot;:null,&quot;index&quot;:null}" stroke-width="0.5" stroke-linecap="butt"/></g><g data-paper-data="{&quot;origPos&quot;:null}"><path d="M268.00453,200.16981c0,0 3.61095,-3.47833 3.93125,-7.17294c0.09069,-3.1538 0.14652,-4.77188 0.14652,-4.77188c0,0 2.65899,0.54552 2.56078,4.84516c-0.09821,4.29964 -6.63855,7.09966 -6.63855,7.09966z" data-paper-data="{&quot;origPos&quot;:null}" stroke-width="0" stroke-linecap="round"/><path d="M263.88077,204.06477c0,0 0.45036,-2.57041 0.92467,-4.22364c1.25144,-4.36193 1.66462,-5.79204 2.0992,-10.82948c0.83719,-2.14244 4.29726,-2.00563 4.29726,-2.00563l-1.56582,3.96046c0,0 -1.29135,6.0556 -2.14074,8.67424c-0.84939,2.61864 -3.61457,4.42405 -3.61457,4.42405z" data-paper-data="{&quot;origPos&quot;:null,&quot;index&quot;:null}" stroke-width="0.5" stroke-linecap="butt"/></g></g></g><path d="M247.13653,224.056c-31.27155,-0.67049 -57.28196,-21.80628 -56.99064,-43.78087c0.36113,-30.39919 36.12325,-40.52411 58.90129,-40.45038c3.19954,0.01036 4.63854,1.84573 4.63854,1.84573c0,0 -13.31999,12.03775 -13.36228,38.28108c-0.53251,22.33539 13.3604,41.72361 13.3604,41.72361c0,0 -0.04868,2.52014 -6.54731,2.38081z" data-paper-data="{&quot;origPos&quot;:null}" fill="#a69bd1" stroke="none" stroke-width="0" stroke-linecap="butt" stroke-linejoin="miter"/><g fill="#9383d1" stroke="none" stroke-width="0" stroke-linecap="butt" stroke-linejoin="miter"><path d="M237.88108,194.81178c0,0 0.7467,7.49481 2.99085,13.64286c1.77314,4.85769 6.02901,9.12964 6.02901,9.12964c0,0 -9.63042,4.93937 -10.59475,1.08441c-1.59282,-6.36744 1.5749,-23.85691 1.5749,-23.85691z" data-paper-data="{&quot;origPos&quot;:null,&quot;origRot&quot;:0,&quot;index&quot;:null}"/><path d="M236.16301,144.58899c0.96433,-3.85496 10.59475,1.08441 10.59475,1.08441c0,0 -4.45432,5.26127 -5.94113,9.18947c-2.2941,6.06111 -3.07873,13.58303 -3.07873,13.58303c0,0 -3.16771,-17.48948 -1.5749,-23.85691z" data-paper-data="{&quot;origPos&quot;:null,&quot;index&quot;:null,&quot;origRot&quot;:0}"/></g></g></g></svg>