<svg xmlns="http://www.w3.org/2000/svg" xmlns:xlink="http://www.w3.org/1999/xlink" version="1.1" width="111.58514251708985" height="300.2170776367187" viewBox="-0.7527374148368835 -0.5170864582061767 111.58514251708985 300.2170776367187">
  <!-- Exported by Scratch - http://scratch.mit.edu/ -->
  <g id="ID0.7064442951232195">
    <g id="Page-1">
      <g id="harper-b-[people,fashion]">
        <g id="Right-Leg">
          <path id="Shape" fill="#E5C0AC" stroke="none" stroke-width="1" d="M 80.603 233.981 C 79.88 247.652 78.435 285.786 79.639 286.905 C 81.486 288.584 89.515 288.504 96.34 289.144 C 96.18 288.504 95.457 287.625 93.53 287.065 C 89.756 285.946 82.128 286.346 81.968 284.827 C 81.807 283.388 83.895 237.259 84.296 233.261 C 84.698 229.264 84.858 197.445 84.858 190.65 L 79.559 191.289 C 79.72 196.166 80.924 227.345 80.603 233.981 Z "/>
          <path id="Shape_1_" fill="#DCA886" stroke="none" stroke-width="1" d="M 92.245 292.901 L 96.34 290.183 C 96.42 289.863 96.42 289.464 96.34 289.144 C 89.515 288.504 81.486 288.664 79.639 286.905 C 78.435 285.786 79.88 247.732 80.603 233.981 C 80.924 227.345 79.72 196.166 79.559 191.289 L 58.041 193.928 C 59.326 210.397 62.778 232.222 63.019 238.458 C 63.581 253.408 67.194 274.354 67.917 281.869 C 68.479 287.385 67.997 288.504 67.997 293.621 C 67.997 297.858 73.055 297.938 78.034 297.458 C 82.048 297.139 86.143 297.139 90.158 297.378 C 93.61 297.698 94.815 298.338 96.982 298.498 C 99.231 298.578 99.391 296.259 98.428 294.98 C 96.742 292.901 92.245 292.901 92.245 292.901 Z "/>
          <path id="Shape_2_" fill="none" stroke="#A80054" stroke-width="1.2" stroke-linecap="round" stroke-linejoin="round" d="M 96.34 290.183 C 96.34 290.183 97.223 288.105 93.53 286.985 C 89.836 285.866 82.128 286.266 81.968 284.747 C 81.807 283.308 83.895 237.179 84.296 233.181 C 84.698 229.184 84.778 197.445 84.778 190.65 L 58.041 193.928 C 59.326 210.397 62.778 232.222 63.019 238.458 C 63.581 253.408 67.194 274.354 67.917 281.869 C 68.479 287.385 67.997 288.504 67.997 293.621 C 67.997 297.858 73.055 297.938 78.034 297.458 C 82.048 297.139 86.143 297.139 90.158 297.378 C 93.61 297.698 94.815 298.338 96.982 298.498 C 99.231 298.578 99.391 296.259 98.428 294.98 C 96.822 292.901 92.326 292.901 92.326 292.901 L 96.34 290.183 Z "/>
          <path id="Shape_3_" fill="#DCA886" stroke="#A80054" stroke-width="1.2" stroke-linecap="round" stroke-linejoin="round" d="M 92.245 292.821 C 96.42 292.981 97.946 294.5 97.946 294.5 C 98.267 292.022 97.705 290.823 96.34 290.103 C 94.734 289.224 92.004 289.384 92.004 289.384 "/>
        </g>
        <g id="Left-Leg">
          <path id="Shape_4_" fill="#E5C0AC" stroke="none" stroke-width="1" d="M 40.745 287.145 C 42.19 288.105 51.504 287.625 57.686 289.064 C 57.526 288.344 56.803 287.545 54.876 286.985 C 51.103 285.866 43.475 286.266 43.314 284.747 C 43.154 283.308 49.497 241.176 49.898 237.179 C 50.3 233.181 52.628 197.445 52.628 190.65 L 47.489 190.65 C 47.249 201.123 46.606 231.582 45.723 237.179 C 44.438 245.973 38.978 285.946 40.745 287.145 Z "/>
          <path id="Shape_5_" fill="#DCA886" stroke="none" stroke-width="1" d="M 53.511 292.901 L 57.606 290.183 C 57.686 289.863 57.686 289.464 57.606 289.064 C 51.424 287.705 42.11 288.105 40.745 287.145 C 38.978 285.946 44.438 245.893 45.723 237.179 C 46.526 231.582 47.249 201.043 47.489 190.65 L 26.132 190.65 C 25.329 197.205 27.818 230.223 28.059 236.379 C 28.3 242.535 29.905 273.234 29.905 279.55 C 29.905 285.067 29.263 288.424 29.263 293.541 C 29.263 297.778 34.241 297.858 39.3 297.378 C 43.314 297.059 47.409 297.059 51.424 297.298 C 54.876 297.618 56.081 298.258 58.249 298.418 C 60.416 298.578 60.657 296.179 59.694 294.9 C 58.008 292.901 53.511 292.901 53.511 292.901 Z "/>
          <path id="Shape_6_" fill="none" stroke="#A80054" stroke-width="1.2" stroke-linecap="round" stroke-linejoin="round" d="M 57.606 290.183 C 57.606 290.183 58.489 288.105 54.796 286.985 C 51.103 285.866 43.395 286.266 43.234 284.747 C 43.073 283.308 49.416 241.176 49.818 237.179 C 50.219 233.181 52.628 197.445 52.628 190.65 L 26.132 190.65 C 25.329 197.125 27.818 230.223 28.059 236.379 C 28.3 242.535 29.905 273.234 29.905 279.55 C 29.905 285.067 29.263 288.424 29.263 293.541 C 29.263 297.778 34.322 297.858 39.3 297.378 C 43.314 297.059 47.409 297.059 51.424 297.298 C 54.876 297.618 56.081 298.258 58.249 298.418 C 60.497 298.498 60.657 296.179 59.694 294.9 C 58.088 292.821 53.592 292.821 53.592 292.821 L 57.606 290.183 Z "/>
          <path id="Shape_7_" fill="#DCA886" stroke="#A80054" stroke-width="1.2" stroke-linecap="round" stroke-linejoin="round" d="M 53.351 289.464 C 53.351 289.464 56.161 289.304 57.686 290.183 C 59.051 290.983 59.533 292.182 59.292 294.58 C 59.292 294.58 57.767 292.981 53.592 292.901 "/>
        </g>
        <g id="Shorts">
          <path id="Shape_8_" fill="#FFF2BB" stroke="none" stroke-width="1" d="M 34.164 164.569 L 34.485 163.69 L 29.427 163.69 C 29.427 163.69 26.215 168.007 25.653 175.841 C 25.332 181.198 25.332 186.634 25.653 191.991 C 27.178 192.55 28.784 192.95 30.39 193.19 C 30.47 188.233 30.551 181.598 31.032 177.041 C 31.434 171.604 33.682 166.488 34.164 164.569 Z "/>
          <path id="Shape_9_" fill="#FFFFFF" stroke="none" stroke-width="1" d="M 84.828 175.841 C 84.266 168.007 81.054 163.69 81.054 163.69 L 34.485 163.69 L 34.164 164.569 C 33.682 166.488 31.434 171.604 30.952 177.121 C 30.551 181.598 30.39 188.313 30.31 193.27 C 37.616 194.549 45.003 194.789 52.31 193.909 C 52.31 193.909 53.113 181.038 55.12 181.038 C 57.127 181.038 57.93 193.909 57.93 193.909 C 74.952 195.668 84.668 192.071 84.668 192.071 C 85.149 186.634 85.149 181.198 84.828 175.841 Z "/>
          <path id="Shape_10_" fill="none" stroke="#A80054" stroke-width="1.2" stroke-linecap="round" stroke-linejoin="round" d="M 84.828 175.841 C 84.266 168.007 81.054 163.69 81.054 163.69 L 29.427 163.69 C 29.427 163.69 26.215 168.007 25.653 175.841 C 25.332 181.198 25.332 186.634 25.653 191.991 C 25.653 191.991 35.368 195.588 52.39 193.829 C 52.39 193.829 53.193 180.958 55.2 180.958 C 57.208 180.958 58.011 193.829 58.011 193.829 C 75.032 195.588 84.748 191.991 84.748 191.991 C 85.149 186.634 85.149 181.198 84.828 175.841 Z "/>
        </g>
        <g id="Left-arm">
          <path id="Shape_11_" fill="none" stroke="none" stroke-width="1" d="M 11.08 183.842 C 11.08 183.842 10.599 190.078 10.518 191.676 C 10.518 191.676 10.518 191.597 10.518 191.597 C 10.92 188.798 11.08 183.842 11.08 183.842 Z "/>
          <path id="Shape_12_" fill="none" stroke="none" stroke-width="1" d="M 7.708 186.96 C 7.949 185.121 8.109 183.602 8.109 183.602 C 8.109 183.602 7.949 185.121 7.708 186.96 Z "/>
          <path id="Shape_13_" fill="#E5C0AC" stroke="none" stroke-width="1" d="M 10.438 157.699 C 11.562 151.703 14.292 138.112 15.577 131.477 L 12.847 130.917 C 11.964 135.714 11.401 139.711 11 141.47 C 9.796 146.906 5.861 174.408 4.416 177.686 C 2.81 181.203 1.606 182.882 0.723 184.641 C 0.241 185.361 0.401 186.32 1.124 186.8 C 3.131 183.522 6.022 178.885 6.423 177.926 C 6.985 176.487 8.993 165.854 10.438 157.699 Z "/>
          <path id="Shape_14_" fill="#DCA886" stroke="none" stroke-width="1" d="M 27.38 134.115 L 15.657 131.477 C 14.292 138.112 11.562 151.623 10.518 157.699 C 9.073 165.854 7.066 176.487 6.504 177.846 C 6.102 178.885 3.212 183.522 1.204 186.72 C 1.847 187.12 2.569 187.04 3.131 186.48 C 4.095 185.521 4.737 184.321 5.139 182.962 C 5.139 182.962 4.577 188.958 4.496 190.557 C 4.416 192.876 7.307 192.796 7.387 190.877 C 7.467 189.758 7.628 188.239 7.788 186.88 C 7.949 185.041 8.19 183.522 8.19 183.522 C 8.19 183.522 7.949 185.121 7.788 186.88 C 7.628 188.479 7.467 190.237 7.467 191.357 C 7.467 193.915 10.277 193.995 10.679 191.597 C 10.759 189.998 11.241 183.762 11.241 183.762 C 11.241 183.762 11.08 188.718 10.679 191.517 C 10.679 191.517 10.679 191.597 10.679 191.597 C 10.679 193.595 13.489 193.995 13.73 191.277 C 14.051 187.839 14.051 183.602 14.051 183.602 C 14.051 183.602 15.336 186.88 15.737 188.079 C 16.299 189.918 19.029 189.438 18.628 186.96 C 18.066 183.602 16.219 179.844 15.818 177.686 C 15.255 175.607 22 152.583 24.248 144.668 C 24.891 142.349 26.095 138.272 27.38 134.115 Z "/>
          <path id="Shape_16_" fill="none" stroke="#A80054" stroke-width="1.2" stroke-linecap="round" stroke-linejoin="round" d="M 11 141.47 C 9.796 146.906 5.861 174.408 4.416 177.686 C 2.81 181.203 1.606 182.882 0.723 184.641 C -0.241 186.56 1.847 187.679 3.051 186.56 C 4.015 185.601 4.657 184.401 5.058 183.042 C 5.058 183.042 4.496 189.038 4.416 190.637 C 4.336 192.956 7.226 192.876 7.307 190.957 C 7.387 189.838 7.547 188.319 7.708 186.96 C 7.869 185.121 8.109 183.602 8.109 183.602 C 8.109 183.602 7.869 185.201 7.708 186.96 C 7.547 188.559 7.387 190.317 7.387 191.437 C 7.387 193.995 10.197 194.075 10.599 191.676 C 10.679 190.078 11.161 183.842 11.161 183.842 C 11.161 183.842 11 188.798 10.599 191.597 C 10.599 191.597 10.599 191.676 10.599 191.676 C 10.599 193.675 13.409 194.075 13.65 191.357 C 13.971 187.919 13.971 183.682 13.971 183.682 C 13.971 183.682 15.255 186.96 15.657 188.159 C 16.219 189.998 18.949 189.518 18.547 187.04 C 17.985 183.682 16.139 179.924 15.737 177.766 C 15.255 175.607 22 152.583 24.248 144.668 C 24.891 142.349 26.095 138.272 27.38 134.115 L 12.927 130.917 C 12.044 135.714 11.401 139.711 11 141.47 Z "/>
        </g>
        <g id="Right-arm">
          <path id="Shape_17_" fill="none" stroke="none" stroke-width="1" d="M 98.999 183.864 C 98.999 183.864 99.481 190.1 99.561 191.699 C 99.561 191.699 99.561 191.619 99.561 191.619 C 99.16 188.821 98.999 183.864 98.999 183.864 Z "/>
          <path id="Shape_18_" fill="none" stroke="none" stroke-width="1" d="M 102.372 186.982 C 102.131 185.143 101.97 183.624 101.97 183.624 C 101.97 183.624 102.211 185.143 102.372 186.982 Z "/>
          <path id="Shape_19_" fill="#E5C0AC" stroke="none" stroke-width="1" d="M 99.642 157.722 C 98.518 151.726 95.788 138.135 94.503 131.499 L 97.233 130.86 C 98.116 135.656 98.678 139.654 99.08 141.413 C 100.284 146.849 104.218 174.351 105.664 177.628 C 107.269 181.146 108.474 182.825 109.357 184.584 C 109.839 185.303 109.678 186.263 108.955 186.742 C 106.948 183.464 104.058 178.828 103.656 177.868 C 103.174 176.509 101.167 165.876 99.642 157.722 Z "/>
          <path id="Shape_20_" fill="#DCA886" stroke="none" stroke-width="1" d="M 82.78 134.137 L 94.503 131.499 C 95.868 138.135 98.598 151.646 99.642 157.722 C 101.087 165.876 103.094 176.509 103.656 177.868 C 104.058 178.907 106.948 183.544 108.955 186.742 C 108.393 187.142 107.591 187.062 107.109 186.582 C 106.145 185.623 105.503 184.424 105.101 183.065 C 105.101 183.065 105.744 189.061 105.744 190.66 C 105.824 192.978 102.934 192.898 102.853 190.979 C 102.773 189.86 102.612 188.341 102.452 186.982 C 102.211 185.143 102.05 183.624 102.05 183.624 C 102.05 183.624 102.291 185.223 102.452 186.982 C 102.612 188.581 102.773 190.34 102.773 191.459 C 102.773 194.017 99.963 194.097 99.561 191.699 C 99.561 190.1 98.999 183.864 98.999 183.864 C 98.999 183.864 99.16 188.821 99.561 191.619 C 99.561 191.619 99.561 191.699 99.561 191.699 C 99.642 193.698 96.751 194.097 96.51 191.379 C 96.189 187.941 96.189 183.704 96.189 183.704 C 96.189 183.704 94.904 186.982 94.503 188.181 C 93.941 190.02 91.131 189.54 91.612 187.062 C 92.174 183.704 94.021 179.947 94.423 177.788 C 94.904 175.63 88.16 152.605 85.912 144.69 C 85.269 142.372 83.985 138.295 82.78 134.137 Z "/>
          <path id="Shape_21_" fill="none" stroke="#A80054" stroke-width="1.2" stroke-linecap="round" stroke-linejoin="round" d="M 99.08 141.493 C 100.284 146.929 104.218 174.43 105.664 177.708 C 107.269 181.226 108.474 182.905 109.357 184.664 C 110.32 186.582 108.233 187.702 107.028 186.582 C 106.065 185.623 105.423 184.424 105.021 183.065 C 105.021 183.065 105.664 189.061 105.664 190.66 C 105.744 192.978 102.853 192.898 102.773 190.979 C 102.693 189.86 102.532 188.341 102.372 186.982 C 102.131 185.143 101.97 183.624 101.97 183.624 C 101.97 183.624 102.211 185.223 102.372 186.982 C 102.532 188.581 102.693 190.34 102.693 191.459 C 102.693 194.017 99.882 194.097 99.481 191.699 C 99.481 190.1 98.919 183.864 98.919 183.864 C 98.919 183.864 99.08 188.821 99.481 191.619 C 99.481 191.619 99.481 191.699 99.481 191.699 C 99.561 193.698 96.671 194.097 96.43 191.379 C 96.109 187.941 96.109 183.704 96.109 183.704 C 96.109 183.704 94.824 186.982 94.423 188.181 C 93.861 190.02 91.05 189.54 91.532 187.062 C 92.094 183.704 93.941 179.947 94.342 177.788 C 94.904 175.63 88.16 152.605 85.912 144.69 C 85.269 142.372 84.065 138.295 82.78 134.137 L 97.233 130.94 C 98.116 135.736 98.678 139.734 99.08 141.493 Z "/>
        </g>
        <g id="Torso">
          <path id="Shape_15_" fill="#FFFFFF" stroke="none" stroke-width="1" d="M 29.664 102.767 C 28.781 100.609 27.416 98.61 25.65 97.011 C 24.204 98.13 22.92 99.49 21.876 101.089 C 17.299 107.804 14.569 121.155 12.803 130.909 L 23.401 133.227 C 25.328 127.231 28.942 116.438 31.27 111.641 C 31.19 111.641 31.27 106.285 29.664 102.767 Z "/>
          <path id="Shape_22_" fill="#FFF2BB" stroke="none" stroke-width="1" d="M 78.964 121.475 C 79.766 124.033 81.292 129.709 82.657 134.026 L 85.869 133.307 C 82.978 124.593 79.124 112.521 79.124 112.521 L 78.964 121.475 Z "/>
          <path id="Shape_23_" fill="#FFF2BB" stroke="none" stroke-width="1" d="M 35.204 110.282 C 34.803 102.208 31.993 97.411 29.584 94.773 C 28.139 95.332 26.774 96.052 25.569 97.011 C 27.336 98.61 28.701 100.529 29.584 102.687 C 31.19 106.285 31.109 111.641 31.109 111.641 C 28.781 116.438 25.248 127.231 23.241 133.227 L 27.175 134.106 C 29.182 127.391 31.35 120.516 31.35 120.516 C 31.35 120.516 30.226 141.781 29.664 152.334 C 29.504 155.132 29.423 159.37 29.263 164.406 C 30.467 164.646 32.073 164.966 34 165.286 L 34 165.126 C 34.161 165.046 35.927 124.993 35.204 110.282 Z "/>
          <path id="Shape_24_" fill="#FFFFFF" stroke="none" stroke-width="1" d="M 88.117 101.009 C 85.547 97.171 81.533 94.533 76.956 93.733 C 75.27 93.494 73.664 93.334 71.978 93.254 L 70.854 93.174 C 69.65 96.532 65.715 104.686 55.277 104.686 C 44.117 104.686 40.263 96.611 39.139 93.174 L 38.657 93.174 C 36.81 93.254 34.883 93.414 33.036 93.813 C 31.912 94.053 30.708 94.373 29.664 94.773 C 32.073 97.411 34.883 102.208 35.285 110.282 C 36.007 124.993 34.241 165.046 34.241 165.046 L 34.241 165.206 C 49.818 167.764 65.796 167.444 81.212 164.246 C 81.131 159.29 80.971 155.052 80.891 152.334 C 80.489 143.86 79.445 127.231 79.124 121.555 L 79.285 112.601 C 79.285 112.601 83.139 124.673 86.029 133.387 L 97.35 130.909 C 95.423 121.075 92.613 107.724 88.117 101.009 Z "/>
          <path id="Shape_25_" fill="none" stroke="#A80054" stroke-width="1.2" stroke-linecap="round" stroke-linejoin="round" d="M 31.431 120.516 C 31.511 114.04 31.35 106.925 29.664 102.767 C 28.781 100.609 27.416 98.61 25.65 97.011 "/>
          <path id="Shape_26_" fill="none" stroke="#A80054" stroke-width="1.2" stroke-linecap="round" stroke-linejoin="round" d="M 78.883 120.755 C 78.803 114.28 78.964 107.164 80.65 103.007 C 81.533 100.849 82.898 98.85 84.664 97.251 "/>
          <path id="Shape_27_" fill="#DCA886" stroke="none" stroke-width="1" d="M 62.022 91.895 C 61.219 89.496 60.737 87.018 60.657 84.54 L 46.445 84.54 C 46.445 84.54 46.044 92.134 42.029 92.934 C 41.066 93.094 40.102 93.174 39.058 93.174 C 40.263 96.611 44.117 104.686 55.277 104.686 C 60.737 104.846 65.796 102.128 68.686 97.491 C 65.555 96.931 63.066 94.773 62.022 91.895 Z "/>
          <path id="Shape_28_" fill="#E5C0AC" stroke="none" stroke-width="1" d="M 68.445 92.854 C 64.431 92.055 64.029 84.46 64.029 84.46 L 60.657 84.46 C 60.737 86.938 61.139 89.496 62.022 91.815 C 63.066 94.693 65.555 96.851 68.606 97.411 C 69.489 96.052 70.212 94.613 70.774 93.014 C 69.971 93.094 69.248 93.014 68.445 92.854 Z "/>
          <path id="Shape_29_" fill="none" stroke="#A80054" stroke-width="1.2" stroke-linecap="round" stroke-linejoin="round" d="M 78.964 121.475 C 79.766 124.033 81.292 129.709 82.657 134.026 L 97.109 130.829 C 95.423 121.075 92.613 107.804 88.036 101.009 C 85.467 97.171 81.453 94.533 76.876 93.733 C 75.19 93.494 73.584 93.334 71.898 93.254 L 70.774 93.174 C 69.569 96.532 65.635 104.686 55.197 104.686 C 44.036 104.686 40.182 96.532 39.058 93.174 L 38.577 93.174 C 36.73 93.254 34.803 93.414 32.956 93.813 C 28.38 94.613 24.365 97.251 21.796 101.089 C 17.219 107.884 14.409 121.155 12.723 130.909 L 27.175 134.106 C 29.182 127.391 31.35 120.516 31.35 120.516 C 31.35 120.516 30.146 141.701 29.664 152.254 C 29.504 155.052 29.423 159.29 29.343 164.326 C 37.774 166.005 46.285 166.805 54.876 166.884 C 63.708 166.884 72.46 166.005 81.051 164.246 C 80.971 159.29 80.81 155.052 80.73 152.334 C 80.328 143.78 79.285 127.151 78.964 121.475 Z "/>
          <path id="Shape_30_" fill="none" stroke="#A80054" stroke-width="1.2" stroke-linecap="round" stroke-linejoin="round" d="M 55.277 104.686 C 65.715 104.686 69.65 96.532 70.774 93.174 C 69.971 93.174 69.248 93.094 68.445 92.934 C 64.431 92.134 64.029 84.54 64.029 84.54 L 46.445 84.54 C 46.445 84.54 46.044 92.134 42.029 92.934 C 41.066 93.094 40.102 93.174 39.058 93.174 C 40.263 96.532 44.117 104.686 55.277 104.686 Z "/>
        </g>
        <g id="Head">
          <path id="Shape_31_" fill="#A80054" stroke="#A80054" stroke-width="1.2" d="M 41.58 81.226 C 41.58 81.226 35.317 87.941 25.682 86.582 C 16.047 85.223 12.514 76.749 12.273 69.793 C 12.273 69.793 1.193 60.759 3.842 43.171 C 6.492 25.583 18.455 21.985 18.455 21.985 C 18.455 21.985 19.66 9.194 31.704 3.837 C 43.747 -1.519 52.74 3.837 52.74 3.837 C 52.74 3.837 64.543 -4.317 80.28 5.596 C 94.492 14.63 89.835 29.9 89.835 29.9 C 89.835 29.9 106.375 40.773 103.565 61.559 C 100.755 82.345 84.455 86.502 72.412 79.147 C 72.412 79.147 67.434 85.143 56.514 85.143 C 44.631 85.143 41.58 81.226 41.58 81.226 Z "/>
          <path id="Shape_32_" fill="#DCA886" stroke="none" stroke-width="1" d="M 79.236 42.132 C 75.463 40.533 69.923 37.975 66.47 35.017 C 60.85 30.22 53.382 21.026 53.382 21.026 C 53.382 21.026 45.755 21.985 37.164 28.781 C 29.054 35.176 23.434 43.571 24.397 56.362 C 25.441 70.353 33.309 79.947 43.185 84.184 C 51.134 87.541 60.609 87.861 68.397 83.624 C 74.178 76.669 77.872 68.274 78.996 59.32 C 79.638 53.564 79.638 47.808 79.236 42.132 Z "/>
          <path id="Shape_33_" fill="#E5C0AC" stroke="none" stroke-width="1" d="M 82.331 43.731 C 82.331 43.731 80.645 43.091 78.236 42.132 C 78.718 47.808 78.638 53.564 78.076 59.24 C 76.952 68.194 73.258 76.669 67.477 83.544 C 71.572 81.306 75.025 77.948 77.353 73.951 C 85.543 60.2 82.331 43.731 82.331 43.731 Z "/>
          <path id="Shape_34_" fill="none" stroke="#5E154D" stroke-width="1.6" stroke-linecap="round" stroke-linejoin="round" d="M 35.477 37.975 C 39.893 36.695 44.631 37.095 48.726 39.174 "/>
          <path id="Shape_35_" fill="#FFFFFF" stroke="#5E154D" stroke-width="1.2" stroke-linecap="round" stroke-linejoin="round" d="M 43.185 52.685 C 41.018 52.685 39.171 51.246 38.528 49.247 C 37.886 47.168 38.769 45.01 40.536 43.811 C 37.083 44.13 34.514 47.168 34.755 50.606 C 34.996 54.044 37.966 56.682 41.419 56.602 C 44.872 56.522 47.601 53.644 47.601 50.206 C 47.601 50.126 47.601 50.047 47.601 49.967 C 46.799 51.566 45.032 52.685 43.185 52.685 Z "/>
          <path id="Shape_36_" fill="#5E154D" stroke="#5E154D" stroke-width="1.2" stroke-linecap="round" stroke-linejoin="round" d="M 38.288 47.808 C 38.288 50.047 39.893 52.045 42.061 52.525 C 44.309 53.005 46.558 51.885 47.521 49.807 C 47.361 46.369 44.55 43.651 41.098 43.651 C 40.857 43.651 40.616 43.651 40.455 43.651 C 39.091 44.61 38.288 46.129 38.288 47.808 Z "/>
          <path id="Oval" fill="#FFFFFF" stroke="#FFFFFF" stroke-width="0.8" d="M 42.623 46.049 C 43.022 46.049 43.383 46.21 43.645 46.471 C 43.907 46.731 44.069 47.091 44.069 47.488 C 44.069 47.885 43.907 48.245 43.645 48.506 C 43.383 48.766 43.022 48.927 42.623 48.927 C 42.225 48.927 41.863 48.766 41.602 48.506 C 41.34 48.245 41.178 47.885 41.178 47.488 C 41.178 47.091 41.34 46.731 41.602 46.471 C 41.863 46.21 42.225 46.049 42.623 46.049 Z "/>
          <path id="Shape_37_" fill="#FFFFFF" stroke="#5E154D" stroke-width="1.2" stroke-linecap="round" stroke-linejoin="round" d="M 70.485 52.685 C 68.317 52.685 66.47 51.246 65.828 49.247 C 65.185 47.168 66.069 45.01 67.835 43.811 C 64.382 44.13 61.813 47.168 62.054 50.606 C 62.295 54.044 65.266 56.682 68.718 56.602 C 72.171 56.522 74.901 53.644 74.901 50.206 C 74.901 50.126 74.901 50.047 74.901 49.967 C 74.098 51.566 72.331 52.685 70.485 52.685 Z "/>
          <path id="Shape_38_" fill="#5E154D" stroke="#5E154D" stroke-width="1.2" stroke-linecap="round" stroke-linejoin="round" d="M 65.587 47.808 C 65.587 50.047 67.193 52.045 69.361 52.525 C 71.609 53.005 73.857 51.885 74.82 49.807 C 74.66 46.369 71.85 43.651 68.477 43.651 C 68.236 43.651 67.996 43.651 67.835 43.651 C 66.39 44.61 65.587 46.129 65.587 47.808 Z "/>
          <path id="Oval_1_" fill="#FFFFFF" stroke="#FFFFFF" stroke-width="0.8" d="M 69.923 46.049 C 70.321 46.049 70.683 46.21 70.944 46.471 C 71.206 46.731 71.368 47.091 71.368 47.488 C 71.368 47.885 71.206 48.245 70.944 48.506 C 70.683 48.766 70.321 48.927 69.923 48.927 C 69.524 48.927 69.163 48.766 68.901 48.506 C 68.639 48.245 68.477 47.885 68.477 47.488 C 68.477 47.091 68.639 46.731 68.901 46.471 C 69.163 46.21 69.524 46.049 69.923 46.049 Z "/>
          <path id="Shape_39_" fill="none" stroke="#5E154D" stroke-width="1.2" stroke-linecap="round" stroke-linejoin="round" d="M 51.375 61.959 C 51.054 62.838 51.455 63.717 52.258 64.197 C 53.704 64.917 54.988 63.078 54.988 63.078 C 55.47 63.877 56.353 64.357 57.317 64.357 C 57.879 64.357 58.441 64.117 58.842 63.637 C 59.244 63.158 59.324 62.518 59.164 61.959 "/>
          <path id="Shape_40_" fill="#F05822" stroke="#5E154D" stroke-width="1.2" stroke-linecap="round" stroke-linejoin="round" d="M 59.083 69.074 C 57.959 68.034 55.711 67.555 54.988 69.793 C 54.346 67.555 52.018 68.034 50.893 69.074 L 49.207 70.593 C 50.974 75.549 54.988 74.99 54.988 74.99 C 54.988 74.99 59.003 75.549 60.769 70.593 L 59.083 69.074 Z "/>
          <path id="Shape_41_" fill="none" stroke="#5E154D" stroke-width="0.8" stroke-linecap="round" stroke-linejoin="round" d="M 49.207 70.593 C 52.981 71.632 56.915 71.632 60.689 70.593 "/>
          <path id="Shape_42_" fill="none" stroke="#A80054" stroke-width="1.2" stroke-linecap="round" stroke-linejoin="round" d="M 53.382 20.946 C 53.382 20.946 60.85 30.14 66.47 34.937 C 72.091 39.733 83.331 43.651 83.331 43.651 C 83.331 43.651 86.543 60.12 78.353 73.871 C 70.324 87.302 55.069 89.14 43.185 84.104 C 33.309 79.947 25.521 70.353 24.397 56.362 C 23.353 43.571 29.054 35.176 37.164 28.781 C 45.755 21.985 53.382 20.946 53.382 20.946 Z "/>
          <path id="Shape_43_" fill="none" stroke="#5E154D" stroke-width="1.6" stroke-linecap="round" stroke-linejoin="round" d="M 74.258 37.975 C 69.842 36.695 65.105 37.095 61.01 39.174 "/>
          <path id="Shape_44_" fill="none" stroke="#D83998" stroke-width="2.4" stroke-linecap="round" stroke-linejoin="round" d="M 80.923 18.787 C 81.645 19.747 82.288 20.786 82.689 21.985 "/>
          <path id="Shape_45_" fill="none" stroke="#D83998" stroke-width="2.4" stroke-linecap="round" stroke-linejoin="round" d="M 67.594 9.434 C 71.609 10.633 75.222 12.791 78.273 15.67 "/>
        </g>
      </g>
    </g>
  </g>
</svg>