<svg version="1.1" xmlns="http://www.w3.org/2000/svg" xmlns:xlink="http://www.w3.org/1999/xlink" width="77.98874" height="267.82034" viewBox="0,0,77.98874,267.82034"><g transform="translate(-200.50165,-45.51724)"><g data-paper-data="{&quot;isPaintingLayer&quot;:true}" fill="none" fill-rule="evenodd" stroke="none" stroke-width="none" stroke-linecap="none" stroke-linejoin="none" stroke-miterlimit="10" stroke-dasharray="" stroke-dashoffset="0" font-family="none" font-weight="none" font-size="none" text-anchor="none" style="mix-blend-mode: normal"><path d="M239.00653,183.396c-0.58102,13.4 -0.81979,29.744 -1.37694,43.136c-0.69245,0.608 -1.67143,7.84 -9.94102,7.552c-7.67265,-0.272 -7.06775,-7.544 -7.86367,-8.344c-0.37408,-8.624 -1.6396,-30.056 -1.76694,-34.68c0.11939,-10.072 5.51571,-17.648 11.99449,-17.56c4.45714,0.04 7.09959,4.648 8.95408,9.896z" data-paper-data="{&quot;origPos&quot;:null}" id="Path" fill="#36445e" stroke="none" stroke-width="1" stroke-linecap="butt" stroke-linejoin="miter"/><path d="M249.36939,173.516c6.44694,-0.328 13.13265,3.016 13.6102,13.08c0.0398,4.624 -0.76408,29.096 -1.66347,38.76c-0.76408,0.832 0.09551,8.064 -7.56122,8.616c-8.25367,0.568 -9.49531,-6.624 -10.20368,-7.2c-1.03469,-13.368 -1.74306,-29.696 -2.77775,-43.064c1.67143,-5.288 4.14673,-9.984 8.59591,-10.192z" data-paper-data="{&quot;origPos&quot;:null}" id="Path" fill="#36445e" stroke="none" stroke-width="1" stroke-linecap="butt" stroke-linejoin="miter"/><g data-paper-data="{&quot;origPos&quot;:null}"><g id="Group-16" stroke="none" stroke-width="1" stroke-linecap="butt" stroke-linejoin="miter"><path d="M234.50681,225.85054c1.02118,1.07183 1.55771,2.51932 1.48319,4.00146l-2.38775,64.152c-0.33587,1.90091 -1.95596,3.30193 -3.87612,3.352h-0.05571c-1.17839,0.03291 -2.31217,-0.45376 -3.1034,-1.33211c-0.79122,-0.87835 -1.16077,-2.06053 -1.0115,-3.23589l-3.3349,-62.904c-0.10347,-3.056 5.33265,-5.696 8.37306,-5.696c1.47642,-0.0107 2.89196,0.59071 3.91314,1.66254z" id="Path" fill="#705347"/><path d="M229.78184,279.484c0,0 -4.91081,0.416 -5.40428,-3.344l-4.57653,-50.4c-0.04775,-4.112 3.00857,-9.872 7.35429,-9.928c8.20592,-1.168 10.40266,6.608 10.45041,10.72l-3.12,50.784c-0.11143,1.296 -1.31327,1.888 -4.70388,2.168z" data-paper-data="{&quot;origPos&quot;:null}" id="Path" fill="#36445e"/></g><g id="Group-11"><path d="M218.15347,305.668l6.59816,-9.152c0.50939,-2.272 -0.15918,-9.072 -0.15918,-9.072h0.79592l0.86755,2.056c0.01587,-0.78411 0.52866,-1.47026 1.27347,-1.704l3.01653,0.096c0.73704,0.08096 1.29761,0.7028 1.30531,1.448l1.7351,-1.784h0.70041l0.22286,13.088l-0.7004,7.256z" id="Path" fill="#eda68c" stroke="none" stroke-width="1" stroke-linecap="butt" stroke-linejoin="miter"/><path d="M226.2798,290.316l5.0302,3.544l-4.72776,2.776l3.91592,2.008l-5.63511,0.784l5.00633,2.096l-8.04674,1.152l7.82388,0.584l-6.18429,-2.64l6.72551,-0.664l-4.52081,-2.048l5.31673,-1.04l-4.68,-3.544l5.21327,-2.68" id="Path" fill="none" stroke="#f0ded3" stroke-width="0.5" stroke-linecap="round" stroke-linejoin="round"/><path d="M231.85123,289.332l-0.20694,7.56l-1.68734,7.088l-1.25755,0.024l2.28429,-7.136l0.37408,-6.616z" id="Path" fill="#ce7d71" stroke="none" stroke-width="1" stroke-linecap="butt" stroke-linejoin="miter"/><path d="M226.25592,289.492l0.32632,7.144l-5.68285,8.104l-0.9949,-0.056l6.35939,-8.128l-0.31837,-7.792z" id="Path" fill="#ce7d71" stroke="none" stroke-width="1" stroke-linecap="butt" stroke-linejoin="miter"/><path d="M231.41347,305.428l1.56,-7.84l0.61285,-10.04l0.70041,0.008l0.22286,13.088l-0.66857,6.96z" id="Path" fill="#e69783" stroke="none" stroke-width="1" stroke-linecap="butt" stroke-linejoin="miter"/><path d="M225.87388,303.156c6.27184,0.072 8.00693,3.216 7.95918,3.944c-2.79534,0.91795 -5.71134,1.41138 -8.65163,1.464c-2.60471,0.08567 -5.20081,-0.3438 -7.64082,-1.264c0,0 -0.64469,-4.248 8.33327,-4.144z" id="Path" fill="#e5e8e9" stroke="none" stroke-width="1" stroke-linecap="butt" stroke-linejoin="miter"/><path d="M217.42123,309.7c0.00495,-0.80249 0.05812,-1.60395 0.15919,-2.4c2.57731,0.70533 5.2571,0.95439 7.91939,0.736c2.96081,-0.136 6.78122,-0.32 8.37306,-0.936c0,0 0,1.032 0,2.08c0.07468,0.91661 -0.51045,1.7568 -1.39285,2c-2.19363,0.8548 -4.51062,1.34652 -6.86082,1.456c-2.52737,0.18363 -5.06574,-0.14278 -7.46571,-0.96c-0.50143,-0.272 -0.74817,-0.936 -0.73225,-1.976z" id="Path" fill="#cfd6d4" stroke="none" stroke-width="1" stroke-linecap="butt" stroke-linejoin="miter"/><path d="M217.54062,307.3c2.59687,0.67651 5.27869,0.96493 7.95918,0.856c2.80182,-0.12234 5.58891,-0.47553 8.33326,-1.056c0.14327,-0.04 0.19898,0.448 0,0.504c-2.75164,0.61574 -5.54981,0.99842 -8.3651,1.144c-2.68553,0.07376 -5.36726,-0.2497 -7.95918,-0.96c-0.18306,-0.048 -0.04775,-0.512 0.03184,-0.488z" id="Path" fill="#545c59" stroke="none" stroke-width="1" stroke-linecap="butt" stroke-linejoin="miter"/></g></g><g><g id="Group-12" stroke="none" stroke-width="1" stroke-linecap="butt" stroke-linejoin="miter"><path d="M258.60204,292.7c0.14974,1.16607 -0.2103,2.34019 -0.98715,3.2192c-0.77686,0.87901 -1.89439,1.37678 -3.06407,1.3648h-0.05571c-1.92182,-0.01215 -3.56618,-1.39004 -3.92388,-3.288l-4.98245,-64.104c-0.15919,-3.128 3.85225,-5.752 6.90061,-5.752c3.04836,0 6.96429,2.504 6.90858,5.56z" id="Path" fill="#705347"/><path d="M249.05102,277.316l-5.52367,-50.544c-0.09551,-4.112 1.8147,-11.968 10.06041,-11.088c4.34572,-0.104 7.60102,5.544 7.70449,9.656l-2.38775,51c-0.9153,3.16 -4.77551,3.16 -4.77551,3.16c-3.2553,0.232 -4.90286,-0.776 -5.07796,-2.184z" id="Path" fill="#36445e"/></g><g id="Group-10"><path d="M250.61898,308.724l-0.94715,-8.8v-11.528h0.70041l1.78286,1.744c-0.01136,-0.74563 0.53096,-1.38329 1.26551,-1.488l3.00858,-0.168c0.75124,0.22031 1.2814,0.89445 1.32122,1.68l0.79592,-2.064h0.79592c0,0 -0.50143,6.816 0.05572,9.072l6.8449,9z" id="Path" fill="#eda68c" stroke="none" stroke-width="1" stroke-linecap="butt" stroke-linejoin="miter"/><path d="M252.52919,291.46l5.27694,2.56l-4.60041,3.656l5.34061,0.912l-4.4651,2.16l6.74143,0.496l-6.12061,2.784l7.80796,-0.768l-8.07857,-0.952l4.95857,-2.224l-5.65102,-0.64l3.86816,-2.104l-4.79143,-2.672l4.94265,-3.656" id="Path" fill="none" stroke="#f0ded3" stroke-width="0.5" stroke-linecap="round" stroke-linejoin="round"/><path d="M252.68041,291.068l0.52531,6.608l2.45938,7.08h-1.25755l-1.85449,-7.048l-0.38204,-7.544z" id="Path" fill="#ce7d71" stroke="none" stroke-width="1" stroke-linecap="butt" stroke-linejoin="miter"/><path d="M258.05286,289.452l-0.12735,7.8l6.54245,7.968l-0.98694,0.08l-5.87388,-7.96l0.15918,-7.152z" id="Path" fill="#ce7d71" stroke="none" stroke-width="1" stroke-linecap="butt" stroke-linejoin="miter"/><path d="M250.60306,308.476l-0.9153,-8.504v-11.528l0.70041,-0.024l0.85163,10.016l1.74306,7.808z" id="Path" fill="#e69783" stroke="none" stroke-width="1" stroke-linecap="butt" stroke-linejoin="miter"/><path d="M266.89551,307.78c-2.41584,0.98456 -5.00226,1.47677 -7.60898,1.448c-2.92732,0.01547 -5.84057,-0.40785 -8.64368,-1.256c-0.06367,-0.728 1.59184,-3.912 7.8398,-4.128c8.96204,-0.32 8.41285,3.936 8.41285,3.936z" id="Path" fill="#e5e8e9" stroke="none" stroke-width="1" stroke-linecap="butt" stroke-linejoin="miter"/><path d="M266.24286,312.228c-2.33473,0.8541 -4.81801,1.22156 -7.29857,1.08c-2.35122,-0.05678 -4.67823,-0.49162 -6.89265,-1.288c-0.87438,-0.23735 -1.46274,-1.05926 -1.40877,-1.968c0,-1.048 0,-2.08 0,-2.08c1.59184,0.576 5.42817,0.68 8.39694,0.736c2.66564,0.15937 5.33837,-0.15477 7.89551,-0.928c0.11975,0.79491 0.19152,1.59638 0.2149,2.4c0.07382,0.79503 -0.27008,1.57124 -0.90735,2.048z" id="Path" fill="#cfd6d4" stroke="none" stroke-width="1" stroke-linecap="butt" stroke-linejoin="miter"/><path d="M266.95919,308.268c-2.58141,0.77922 -5.26392,1.16748 -7.95918,1.152c-2.80708,-0.07916 -5.60261,-0.39494 -8.35715,-0.944c-0.19102,-0.056 -0.14327,-0.504 0,-0.504c2.75774,0.51344 5.55295,0.79707 8.35715,0.848c2.66842,0.04586 5.32896,-0.30459 7.89551,-1.04c0.07959,-0.024 0.22286,0.44 0.06367,0.488z" id="Path" fill="#545c59" stroke="none" stroke-width="1" stroke-linecap="butt" stroke-linejoin="miter"/></g></g><g id="Group-17" stroke="none" stroke-width="1" stroke-linecap="butt" stroke-linejoin="miter"><path d="M237.50225,125.9c-1.10632,-0.016 -20.92469,-19.824 -20.92469,-23.488c0,-3.312 6.00918,-5.712 13.19633,-8.32l2.04551,-12h12.73469l1.36102,11.664c8.61183,3.52 15.4249,5.048 15.4249,8.656c0,3.976 -22.50061,23.504 -23.83775,23.488z" id="Path" fill="#63493e"/><path d="M229.77388,94.084l2.04551,-12h12.73469l0.86755,7.416c-5.92164,-0.64 -12.23326,1.6 -15.64775,4.584z" id="Path" fill="#49352c"/></g><g stroke="none" stroke-width="1" stroke-linecap="butt" stroke-linejoin="miter"><path d="M259.8198,101.26c4.0824,-0.11217 7.6531,2.74418 8.46062,6.768l4.55265,42.104c0.46959,3.2 -0.96306,6.296 -4.12286,6.872c0,0 -5.57143,0.592 -6.83694,-4.408l-8.57204,-41.752c-1.06653,-4.288 1.80674,-8.696 6.51857,-9.584z" id="Path" fill="#705347"/><g id="Group-9"><path d="M263.23429,98.412l4.44122,4.792l3.97959,18.168l-13.20429,12.528l-8.74714,-20.576l-1.09041,-6.6l1.55204,-7.256l4.96653,-2.192z" id="Path" fill="#6373ba"/><path d="M256.31775,130.932l15.58408,-12.536l1.21776,3.648l-14.93939,12.296z" id="Path" fill="#e4b34e"/></g></g><path d="M262.94775,189.964c-0.07959,4.536 -18.71204,-4 -23.16918,-4c-4.65612,-0.04 -17.10429,6.92 -21.72061,5.072c0,-7.04 0.61285,-26.456 1.30531,-31.904h40.39285c1.23368,4.064 3.35082,22.32 3.19163,30.832z" id="Path" fill="#36445e" stroke="none" stroke-width="1" stroke-linecap="butt" stroke-linejoin="miter"/><g stroke="none" stroke-width="1" stroke-linecap="butt" stroke-linejoin="miter"><path d="M225.69082,111.54l-8.57204,41.752c-1.26551,5 -6.83694,4.408 -6.83694,4.408c-3.15184,-0.576 -4.59244,-3.672 -4.12285,-6.872l4.55265,-42.128c0.8176,-4.01425 4.3856,-6.85832 8.46061,-6.744c4.71184,0.888 7.59306,5.296 6.51857,9.584z" id="Path" fill="#705347"/><path d="M223.86021,97.972l4.96653,2.192l1.54408,7.256l-1.08245,6.6l-8.74714,20.576l-13.20428,-12.528l3.97959,-18.168l4.44123,-4.8z" id="Path" fill="#6373ba"/><path d="M220.81184,135.028l-14.93939,-12.288l1.21776,-3.648l15.58408,12.536z" id="Path" fill="#e4b34e"/></g><g id="Group-8" stroke="none" stroke-width="1" stroke-linecap="butt" stroke-linejoin="miter"><path d="M263.76755,210.3c-1.64125,0.56592 -3.31929,1.01766 -5.02225,1.352c-2.74569,0.56747 -5.54699,0.81709 -8.34918,0.744c-2.37751,-0.08498 -4.73661,-0.45288 -7.02796,-1.096c-0.9683,-0.21639 -1.9247,-0.48342 -2.86531,-0.8c-2.55246,-0.79943 -5.17927,-1.33552 -7.8398,-1.6c-0.74021,-0.056 -1.55203,-0.152 -2.45143,-0.152c-4.73677,-0.12009 -9.46244,0.51719 -14.0002,1.888c0.62081,-17.04 -1.12224,-34.328 1.84653,-51.128c1.76694,-10 2.83346,-18.648 1.09837,-30.488l-3.71694,-29.88l11.68408,-4.664c1.30531,14.224 10.37877,25.024 10.37877,25.024c0,0 8.6198,-12.536 10.67327,-25.344c0,-0.04 12.55959,3.672 12.55959,3.672l1.84654,0.472c0,0 -2.70612,24 -4.05919,35.936c0.22474,9.54859 1.37632,19.05233 3.43837,28.376c3.43836,16.248 2.58674,32.312 3.00857,47.248c-0.39078,0.17249 -0.79223,0.31946 -1.20184,0.44z" id="Path" fill="#7390e1"/><path d="M264.87388,209.86c-0.38232,0.17323 -0.77587,0.32023 -1.17796,0.44c-1.63948,0.58821 -3.31759,1.06135 -5.02224,1.416c-2.74564,0.56782 -5.54699,0.81744 -8.34919,0.744c-1.09837,-0.04 6.15245,-3.184 7.74429,-31.128c0.18306,-10.024 -1.40877,-22.824 -1.40877,-22.824c-2.77776,-15.968 -1.49633,-26.8 -1.49633,-26.8c1.40082,-4.024 6.27979,-33.696 6.27979,-33.696l1.13817,0.288c-1.37694,11.912 -2.49919,23.64 -3.88409,35.6c0.16204,9.53884 1.22809,19.04046 3.18367,28.376c0.93741,4.76074 1.62813,9.56722 2.06939,14.4c-0.08551,0.24503 -0.18382,0.48537 -0.29449,0.72c0.09551,-0.128 0.19898,-0.256 0.27857,-0.384c0.97102,11.288 0.6447,22.344 0.93919,32.848z" id="Path" fill="#6882cc"/><path d="M248.20735,94.124l2.38775,0.696c-1.25755,4.08 -6.22407,21.264 -13.06897,28.8c-4.66408,-5.576 -10.42653,-17.304 -12.62327,-28.44c0.19898,-0.096 2.22061,-0.704 2.22061,-0.704c1.56,7.976 7.72041,21.464 10.40266,25.176c4.73457,-7.96339 8.33025,-16.55703 10.68122,-25.528z" id="Path" fill="#e4b34e"/></g><g stroke="none" stroke-width="1" stroke-linecap="butt" stroke-linejoin="miter"><path d="M255.22735,70.716l-1.59184,2.648c-0.9153,1.544 -2.67428,2.208 -3.9,1.472c-0.51735,-0.4 -0.59694,-1.336 -0.07959,-3.128l1.06653,-3.664c0.28354,-0.74871 0.87339,-1.33891 1.61954,-1.62054c0.74615,-0.28163 1.57671,-0.22752 2.28046,0.14854c1.2098,0.736 1.46449,2.6 0.6049,4.144z" id="Path" fill="#553c2e"/><path d="M251.6684,77.02599l-1.06921,-0.10689l0.36393,-3.67786l1.06921,0.10689z" id="Rectangle" fill="#f17d70"/></g><g stroke="none" stroke-width="1" stroke-linecap="butt" stroke-linejoin="miter"><path d="M221.90225,66.572c0.70375,-0.37606 1.53431,-0.43017 2.28046,-0.14854c0.74615,0.28163 1.336,0.87183 1.61954,1.62054l1.06653,3.664c0.51735,1.792 0.43776,2.728 -0.07959,3.128c-1.22572,0.736 -2.97674,0.072 -3.9,-1.472l-1.59184,-2.648c-0.89939,-1.544 -0.62878,-3.408 0.6049,-4.144z" id="Path" fill="#553c2e"/><path d="M224.11609,73.35613l1.06921,-0.10689l0.36393,3.67786l-1.06921,0.10689z" id="Rectangle" fill="#f17d70"/></g><path d="M239.39653,88.844h-3.75674c-2.92898,0 -9.16102,-9.424 -9.24061,-11.36l-3.09613,-14.872c0,-6.936 7.72837,-12.608 14.62898,-12.608h0.41388c6.90061,0 14.63693,5.672 14.63693,12.608l-3.43837,15.104c-0.09551,2.088 -6.73347,11.128 -10.14796,11.128z" id="Path" fill="#705347" stroke="none" stroke-width="1" stroke-linecap="butt" stroke-linejoin="miter"/><path d="M239.68306,77.1l-1.11429,0.552c-0.57291,0.27961 -1.24178,0.27961 -1.8147,0l-1.11428,-0.552" id="Path" fill="none" stroke="#453226" stroke-width="0.776" stroke-linecap="round" stroke-linejoin="round"/><path d="M243.86164,79.756c-1.97388,3.136 -7.22694,2.624 -7.22694,2.624" id="Path" fill="none" stroke="#453226" stroke-width="0.776" stroke-linecap="round" stroke-linejoin="round"/><path d="M252.98286,62.612l-1.14612,5.008h-1.48837c0,0 -0.39795,-11.624 -12.20938,-11.4c-12.77449,0.32 -12.1696,11.4 -12.1696,11.4h-1.59183l-1.09837,-5.008c0,-6.936 7.72837,-12.608 14.62898,-12.608h0.43776c6.90061,0 14.63693,5.672 14.63693,12.608z" id="Path" fill="#412d20" stroke="none" stroke-width="1" stroke-linecap="butt" stroke-linejoin="miter"/><g id="Group-2" stroke="none" stroke-width="1" stroke-linecap="butt" stroke-linejoin="miter"><path d="M231.67612,47.1c0,0 3.39062,-3.928 8.75511,0.592c0,0 3.39061,0.12 3.39061,2.328c0,0 3.97959,-1.6 4.18653,1.04c0,0 3.45428,1.384 0,5.536c0,0 3.31898,1.144 1.53612,3.456c0,0 -0.85163,3.328 -2.92102,3.624c0,0 -3.53388,1.176 -4.69592,-2.056c0,0 -2.5151,0.672 -2.28428,-1.6c0,0 -2.97673,0.104 -3.04837,-2.096c0,0 0,-1.752 -3.55775,-0.864c0,0 -3.36674,0.256 -3.08021,-2.304c0,0 -0.15123,-1.816 1.45653,-1.816c0,0 -1.78286,-0.592 -1.47245,-2.2c0.31041,-1.608 1.6953,-0.752 1.6953,-0.752c0,0 -1.1302,-1.688 0.03979,-2.888z" id="Path" fill="#412d20"/><path d="M249.43306,52.484c0.4444,1.27798 0.17414,2.69729 -0.70837,3.72c-1.17,1.224 -3.74877,0.584 -3.74877,0.584c4.1547,0.24 4.65612,-3.432 4.45714,-4.304z" id="Path" fill="#281309"/><path d="M229.91715,50.996c0.74021,2.44 3.12795,1.224 3.12795,1.224c-0.39392,0.4729 -0.97825,0.74308 -1.59184,0.736c-0.91307,-0.19908 -1.55735,-1.02115 -1.53612,-1.96z" id="Path" fill="#281309"/><path d="M231.26225,48.588c0.0662,0.21516 0.15701,0.42188 0.27061,0.616c-0.06921,-0.03952 -0.14101,-0.07426 -0.2149,-0.104c-0.03554,-0.16837 -0.05421,-0.33989 -0.05571,-0.512z" id="Path" fill="#341f17"/><path d="M239.60347,60.036c-0.45368,0 -2.9051,-0.104 -2.96877,-2.096c0.00509,-0.04252 0.00509,-0.08548 0,-0.128c0.58898,1.504 2.91306,1.424 2.91306,1.424c-0.03718,0.26765 -0.0182,0.54017 0.05571,0.8z" id="Path" fill="#281309"/><path d="M236.6347,57.804c-0.27061,-0.512 -0.99489,-1.168 -3.45428,-0.368c0,0 -2.8653,0.76 -3.07224,-2.208c0.25469,2.376 2.96877,1.84 2.96877,1.84c3.71694,-1.168 3.51796,0.432 3.51796,0.432c0.00796,0.12 0.02388,0.216 0.03979,0.304z" id="Path" fill="#281309"/><path d="M246.85429,64.1c0,0 -3.88408,1.432 -5.47592,-2.272c0,0 -1.76694,0.392 -1.6953,-1.6c0.50143,1.008 2.14102,0.576 2.14102,0.576c1.17,3.224 4.69592,2.056 4.69592,2.056c2.06939,-0.296 2.92102,-3.624 2.92102,-3.624c0.32632,-0.424 0.47755,3.728 -2.58674,4.864z" id="Path" fill="#281309"/><path d="M242.91449,55.628c-0.22333,0.36321 -0.61785,0.58429 -1.04265,0.58429c-0.4248,0 -0.81932,-0.22108 -1.04265,-0.58429c0,0 -1.22572,0.376 -1.72715,-0.088c-0.3844,-0.48215 -0.58481,-1.08646 -0.5651,-1.704c0,0 0.86755,1.912 2.29225,0.88c0.15261,0.40174 0.45969,0.72483 0.852,0.8964c0.39231,0.17157 0.83682,0.1772 1.2333,0.0156z" id="Path" fill="#281309"/><path d="M234.8953,48.8871c0.21517,0.31119 0.55936,0.50725 0.93552,0.5329c0.85959,-0.048 0.73225,-0.752 0.73225,-0.752c0.74021,0.944 1.37694,0.224 1.37694,0.224c-0.41388,0.8 -1.15408,0.2 -1.15408,0.2c-0.06724,0.43228 -0.44024,0.74925 -0.87551,0.744c-1.98183,-0.112 -1.18592,-2.016 -1.18592,-2.016c-0.1072,0.36332 -0.04436,0.75591 0.17081,1.0671z" id="Path" fill="#281309"/></g><g data-paper-data="{&quot;origPos&quot;:null}" id="Group-5" stroke="none" stroke-width="1" stroke-linecap="butt" stroke-linejoin="miter"><path d="M234.60722,67.80697c0.0756,0.08995 0.10698,0.20929 0.08544,0.32503c-0.28987,1.46797 -1.57135,2.52549 -3.06031,2.52549c-1.48897,0 -2.77043,-1.05752 -3.0603,-2.52549c-0.01859,-0.11527 0.01386,-0.23295 0.08884,-0.32215c0.07497,-0.0892 0.18499,-0.14102 0.30116,-0.14185h5.34061c0.11713,-0.002 0.22896,0.04901 0.30456,0.13896z" id="Path" fill="#ffffff"/><path d="M234.62561,67.7891c0.08228,0.0905 0.11873,0.21394 0.09888,0.3349c-0.18646,1.07791 -0.9434,1.96758 -1.97388,2.32c-0.55217,-0.17279 -0.99128,-0.59664 -1.18539,-1.14419c-0.19411,-0.54756 -0.1206,-1.15499 0.19845,-1.63981h2.53898c0.12165,-0.00899 0.24068,0.03859 0.32296,0.1291z" id="Path" fill="#2e221a"/></g><g data-paper-data="{&quot;origPos&quot;:null}" id="Group-4" stroke="none" stroke-width="1" stroke-linecap="butt" stroke-linejoin="miter"><path d="M247.41354,67.70297c0.0756,0.08995 0.10697,0.20929 0.08544,0.32503c-0.28987,1.46797 -1.57134,2.52549 -3.0603,2.52549c-1.48897,0 -2.77043,-1.05752 -3.0603,-2.52549c-0.01859,-0.11527 0.01386,-0.23295 0.08884,-0.32215c0.07497,-0.0892 0.18499,-0.14102 0.30116,-0.14185h5.34061c0.11713,-0.002 0.22896,0.04902 0.30456,0.13897z" id="Path" fill="#ffffff"/><path d="M247.40996,67.70043c0.07529,0.08803 0.10788,0.20506 0.08902,0.31958c-0.17823,1.07054 -0.91786,1.96081 -1.93408,2.328c-0.55575,-0.16805 -0.99929,-0.591 -1.19548,-1.13998c-0.19619,-0.54898 -0.12177,-1.15895 0.20058,-1.64402h2.53898c0.11548,-0.00156 0.2257,0.0484 0.30098,0.13643z" id="Path" fill="#2e221a"/></g><path d="M235.14633,65.66c0,0.32254 -0.26013,0.584 -0.58102,0.584h-6.04898c-0.32089,0 -0.58102,-0.26147 -0.58102,-0.584c0,-0.32254 0.26013,-0.584 0.58102,-0.584l6.08082,-0.272c0.32632,0 0.54918,0.536 0.54918,0.856z" data-paper-data="{&quot;origPos&quot;:null}" id="Path" fill="#231607" stroke="none" stroke-width="1" stroke-linecap="butt" stroke-linejoin="miter"/><path d="M248.04021,65.66c0,0.32254 -0.26013,0.584 -0.58102,0.584h-6.05694c-0.32089,0 -0.58102,-0.26147 -0.58102,-0.584c0,-0.32 0.23082,-0.856 0.54918,-0.856l6.08877,0.272c0.32089,0 0.58102,0.26147 0.58102,0.584z" data-paper-data="{&quot;origPos&quot;:null}" id="Path" fill="#231607" stroke="none" stroke-width="1" stroke-linecap="butt" stroke-linejoin="miter"/><g stroke="none" stroke-width="1" stroke-linecap="butt" stroke-linejoin="miter"><path d="M272.76939,149.804l4.32979,37.296c0.17406,1.80818 -1.08069,3.44072 -2.8653,3.728c-1.31327,0.208 -2.92102,-0.568 -3.23939,-1.856l-9.12122,-36.376c-0.42109,-3.26209 1.61775,-6.33604 4.77551,-7.2c3.09612,-0.752 5.23714,1.304 6.12061,4.408z" id="Path" fill="#705347"/><g data-paper-data="{&quot;origPos&quot;:null}" id="Group-7" fill="#705347"><path d="M276.94796,186.004l1.45653,7.256c0,0 1.15408,3.296 -4.99837,9.096c0,0 -1.37694,1.016 -7.71245,1.6c0,0 -0.58102,-1.664 1.93408,-2.128c1.22096,-0.67345 2.49312,-1.24858 3.80449,-1.72c0.12041,-1.23071 0.34677,-2.4486 0.67653,-3.64c-0.65464,-0.66535 -1.12159,-1.49362 -1.35306,-2.4c0,0 -1.41673,-5.12 0.18306,-8.224c0.52561,-1.21989 1.73625,-1.9961 3.05838,-1.96089c1.32213,0.0352 2.49019,0.87474 2.95081,2.12089z" id="Path"/><path d="M267.24572,198.372c0.62178,-0.73525 0.91025,-1.69789 0.79592,-2.656l1.10633,-7.352c0.43973,-1.74523 1.59735,-3.22003 3.18367,-4.056c1.1048,0.03693 2.03994,0.83125 2.2604,1.92l-4.29796,10.752c-0.42183,1.056 -1.96591,2.264 -2.76184,1.928c-0.1751,-0.088 -0.38204,-0.376 -0.28653,-0.536z" id="Path"/></g><g id="Group"><path d="M270.57266,180.068l0.59694,2.592l-1.92612,0.424l-0.77204,-2.552z" id="Path" fill="#ffabe2"/><path d="M274.84674,181.86l-3.67714,0.8l-0.59694,-2.592l3.67714,-0.792z" id="Path" fill="#ededed"/><path d="M274.88653,181.86c-0.57144,-0.0959 -1.02916,-0.52828 -1.15981,-1.0956c-0.13065,-0.56732 0.09148,-1.15788 0.56287,-1.49641l2.31612,-0.504l0.30245,2.664z" id="Path" fill="#7be3f2"/><path d="M275.08551,181.764c-0.06634,0.03107 -0.13568,0.0552 -0.20694,0.072c-0.71431,0.15464 -1.41809,-0.30203 -1.57193,-1.02c-0.15385,-0.71797 0.30049,-1.42536 1.01479,-1.58h0.20693c-0.48424,0.3143 -0.72245,0.89852 -0.59694,1.464c0.1291,0.56023 0.58766,0.98299 1.15408,1.064z" id="Path" fill="#6ecdd9"/></g></g><g fill="#705347" stroke="none" stroke-width="1" stroke-linecap="butt" stroke-linejoin="miter"><path d="M212.34327,146.092c3.15776,0.86396 5.1966,3.93791 4.77551,7.2l-9.11327,36.336c-0.32632,1.296 -1.93408,2.072 -3.24734,1.864c-1.7858,-0.29108 -3.03975,-1.92607 -2.86531,-3.736l4.33776,-37.256c0.87551,-3.104 3.02449,-5.16 6.11265,-4.408z" id="Path"/><g id="Group-18"><path d="M204.97348,184.56447c1.31864,-0.044 2.53145,0.72217 3.06386,1.93553c1.5998,3.104 0.18306,8.224 0.18306,8.224c-0.23146,0.90638 -0.69842,1.73465 -1.35306,2.4c0.33581,1.19075 0.56751,2.40872 0.69245,3.64c1.31137,0.47142 2.58352,1.04655 3.80449,1.72c2.5151,0.464 1.93408,2.128 1.93408,2.128c-6.33551,-0.552 -7.71245,-1.56 -7.71245,-1.56c-6.15245,-5.8 -4.99837,-9.096 -4.99837,-9.096l1.45653,-7.256c0.45117,-1.24618 1.61076,-2.09152 2.9294,-2.13553z" id="Path"/><path d="M211.4598,199.604c-0.79592,0.336 -2.34,-0.872 -2.76184,-1.928l-4.29,-10.752c0.21976,-1.08594 1.15067,-1.87944 2.25245,-1.92c1.58831,0.83356 2.74673,2.30939 3.18367,4.056l1.10633,7.352c-0.11335,0.95803 0.17499,1.92027 0.79592,2.656c0.09551,0.16 -0.10347,0.448 -0.28653,0.536z" id="Path"/></g></g></g></g></svg>