<svg xmlns="http://www.w3.org/2000/svg" xmlns:xlink="http://www.w3.org/1999/xlink" version="1.1" width="127.00013732910156" height="134.99972534179688" viewBox="-0.25014007091522217 0.25015735626220703 127.00013732910156 134.99972534179688">
  <!-- Exported by Scratch - http://scratch.mit.edu/ -->
  <g id="ID0.33544107619673014">
    <g id="Page-1">
      <g id="dinosaur2-d-[animals,dinosaur,triceratops,alex-eben-meyer]">
        <path id="Shape" fill="#BE0A3C" stroke="none" stroke-width="1" d="M 26.776 94.034 C 24.287 93.433 21.858 92.617 19.519 91.597 C 15.432 88.306 11.689 85.182 8.784 80.765 C 6.044 76.595 3.695 72.455 2.075 67.75 L 1.93 67.75 C -0.529 72.398 0.325 78.942 0.716 83.988 C 1.108 88.916 2.051 93.993 3.899 98.622 C 7.422 107.436 18.45 114.42 27.25 112.399 L 26.776 94.034 Z "/>
        <path id="Shape" fill="#BE0A3C" stroke="none" stroke-width="1" d="M 74.25 133.095 L 74.074 133.75 C 70.515 133.552 64.639 133.455 61.668 133.51 C 59.487 133.548 58.477 129.85 58.477 129.85 L 49.25 104.75 L 63.641 105.254 C 63.641 105.254 70.954 125.395 74.25 133.095 Z "/>
        <path id="Shape" fill="#F01446" stroke="none" stroke-width="1" d="M 22.25 105.141 C 23.588 110.271 28.624 120.005 29.507 122.132 C 30.322 124.086 31.338 125.84 32.279 127.72 C 32.942 129.046 36.279 134.144 37.117 134.364 C 38.508 134.726 47.24 135.081 49.25 134.194 C 48.264 126.391 42.319 111.612 41.515 103.75 L 22.25 105.141 Z "/>
        <path id="Shape" fill="#BE0A3C" stroke="none" stroke-width="1" d="M 111.984 88.73 C 111.328 85.719 109.172 82.201 106.125 80.85 C 101.988 79.027 88.316 77.487 81.25 77.788 L 82.137 91.325 C 89.203 90.213 100.324 88.186 101.344 93.255 C 101.515 97.8 97.605 100.514 97.605 100.514 C 97.605 100.514 101.793 105.719 103.984 107.75 C 109.054 103.958 113.382 95.132 111.984 88.73 Z "/>
        <path id="Shape" fill="#F01446" stroke="none" stroke-width="1" d="M 87.283 53.886 C 83.1 51.517 74.96 46.03 66.907 46.829 C 66.907 46.829 51.674 49.635 46.914 50.141 C 38.158 51.072 34.644 54.51 34.644 54.51 C 32.445 55.32 28.213 59.738 26.836 61.491 C 25.348 63.379 23.987 65.363 22.764 67.431 C 20.034 72.028 17.553 76.937 17.289 82.379 C 17.04 87.474 18.012 92.798 19.396 97.692 C 20.16 100.475 20.894 103.312 21.9 106.027 C 22.133 106.658 24.037 110.023 26.221 113.75 L 44.077 110.446 C 44.072 110.424 44.066 110.402 44.058 110.381 C 53.54 108.776 68.957 105.369 77.131 103.856 C 85.306 102.342 90.131 92.368 91.45 87.322 C 91.271 87.143 93.638 80.261 94.242 76.778 C 94.674 74.287 95.117 70.066 95.117 70.066 C 95.117 70.066 96.914 59.335 87.283 53.886 Z "/>
        <path id="Shape" fill="#F01446" stroke="none" stroke-width="1" d="M 94.68 102.608 C 93.633 99.686 89.711 95.421 86.6 94.503 C 82.396 93.261 69.132 93.656 62.431 94.952 L 62.25 107.174 C 68.838 106.678 82.072 102.67 83.744 107.592 C 84.536 112.118 79.8 114.938 79.8 114.938 C 79.8 114.938 85.5 121.035 87.873 122.75 C 92.22 118.254 96.899 108.83 94.68 102.608 Z "/>
        <g id="Group">
          <path id="Shape" fill="#BE0A3C" stroke="none" stroke-width="1" d="M 48.654 14.75 C 45.651 13.279 41.611 5.427 46.611 4.75 C 49.488 5.636 54.141 7.522 56.25 9.939 C 54.133 11.305 50.852 13.561 48.654 14.75 Z "/>
          <path id="Shape" fill="#A0640A" stroke="none" stroke-width="1" d="M 33.25 30.601 C 32.419 32.607 32.007 34.708 31.168 36.75 C 28.995 35.547 21.61 32.502 23.581 29.029 C 25.291 26.021 31.295 29.061 33.25 30.601 Z "/>
          <path id="Shape" fill="#BE0A3C" stroke="none" stroke-width="1" d="M 43.25 18.885 C 41.868 20.551 40.44 23.197 38.929 24.75 C 36.359 23.891 29.642 17.248 33.334 15.07 C 35.519 13.763 42.24 16.748 43.25 18.885 Z "/>
          <path id="Shape" fill="#BE0A3C" stroke="none" stroke-width="1" d="M 69.25 6.632 C 66.818 6.999 63.757 8.27 61.36 8.75 C 58.892 7.503 56.302 0.52 60.392 0.756 C 62.889 0.876 67.678 4.641 69.25 6.632 Z "/>
          <path id="Shape" fill="#A0640A" stroke="none" stroke-width="1" d="M 32.25 63.75 C 29.965 63.489 19.171 60.14 23.104 56.292 C 24.214 55.207 29.891 55.876 30.811 57.191 C 31.322 57.931 31.925 62.594 32.25 63.75 Z "/>
          <path id="Shape" fill="#BE0A3C" stroke="none" stroke-width="1" d="M 28.845 50.75 C 26.608 49.838 20.115 47.322 20.252 44.068 C 20.413 40.242 27.501 42.086 29.25 43.052 C 28.754 45.583 28.618 48.177 28.845 50.75 Z "/>
          <path id="Shape" fill="#E6781E" stroke="none" stroke-width="1" d="M 102.277 26.75 C 100.139 24.701 97.336 21.775 95.25 19.765 C 96.061 17.274 98.86 3.538 99.248 0.907 C 101.485 -0.626 102.79 9.564 102.915 10.627 C 103.36 14.341 103.545 23.141 102.277 26.75 Z "/>
          <path id="Shape" fill="#C8C8BE" stroke="none" stroke-width="1" d="M 120.569 48.145 C 118.397 44.281 113.075 37.069 113.075 37.069 L 108.889 35.75 L 85.25 42.086 L 95.215 69.75 C 95.215 69.75 124.377 62.382 126.25 61.04 C 125.663 56.542 122.76 52.04 120.569 48.145 Z "/>
          <path id="Shape" fill="#F04650" stroke="none" stroke-width="1" d="M 94.965 15.661 C 92.121 13.383 89.061 11.389 85.829 9.707 C 82.433 7.945 78.79 6.708 75.025 6.038 C 73.626 5.768 72.197 5.687 70.776 5.798 C 69.543 5.931 66.718 5.889 65.648 6.632 C 61.575 6.914 57.463 8.762 53.748 10.358 C 51.191 11.43 48.775 12.81 46.553 14.469 C 45.293 15.417 41.733 18.72 41.41 19.04 C 37.546 22.892 31.835 32.29 31.512 32.964 C 29.125 37.917 27.56 44.321 28.554 49.384 C 28.758 54.031 29.895 58.59 31.896 62.79 C 32.863 66.176 35.992 68.916 38.878 70.679 C 41.943 72.558 45.848 74.695 49.564 73.468 C 53.622 72.127 51.692 68.462 52.754 65.514 C 53.733 62.782 56.443 59.944 59.55 61.239 C 65.804 63.849 66.273 75.087 73.886 75.716 C 77.438 76.005 81.477 74.39 84.881 73.54 C 88.284 72.691 95.266 70.744 95.266 70.744 C 95.266 70.744 95.719 58.759 96.682 52.919 C 97.356 48.816 98.719 45.456 101.22 42.778 C 102.78 41.241 104.612 40.007 106.622 39.14 C 108.758 38.295 110.981 37.691 113.25 37.338 C 113.25 37.338 107.981 29.338 102.591 22.937 C 99.758 19.562 95.468 16.061 94.965 15.661 Z "/>
          <path id="Shape" fill="#F01446" stroke="none" stroke-width="1" d="M 75.41 16.942 C 75.41 16.942 80.713 21.469 85.258 24.777 C 86.466 25.656 89.28 27.454 91.609 27.705 C 94.681 28.037 97.112 26.483 95.957 24.522 C 94.567 22.174 87.541 17.437 83.22 14.664 C 82.644 14.294 81.209 13.253 79.811 12.976 C 76.342 12.282 72.187 13.072 75.41 16.942 Z "/>
          <path id="Shape" fill="#000000" stroke="none" stroke-width="1" d="M 74.385 51.277 C 73.941 51.581 70.25 53.316 70.25 53.316 L 70.778 53.75 L 75.25 51.657 L 75.25 51.151 C 74.882 51.044 73.524 49.658 71.763 48.864 C 71.55 48.712 71.248 48.712 71.035 48.864 C 71.142 49.215 74.008 50.977 74.385 51.277 Z "/>
          <path id="Shape" fill="#000000" stroke="none" stroke-width="1" d="M 117.115 39.277 C 117.559 39.581 121.25 41.319 121.25 41.319 L 120.722 41.75 L 116.25 39.656 L 116.25 39.154 C 116.623 39.044 117.976 37.657 119.737 36.863 C 119.95 36.712 120.252 36.712 120.465 36.863 C 120.372 37.218 117.51 38.98 117.115 39.277 Z "/>
          <path id="Shape" fill="#FFC800" stroke="none" stroke-width="1" d="M 102.749 37.75 C 100.8 37.64 99.938 34.194 100.351 32.629 C 100.94 30.407 102.71 28.177 103.728 26.103 C 104.664 24.213 105.534 21.307 107.035 19.75 C 108.762 22.097 109.414 25.071 109.765 27.879 C 110.057 30.146 110.693 34.035 109.765 35.244 C 109.15 35.907 108.387 36.424 107.534 36.756 C 105.998 37.342 104.371 37.672 102.722 37.731 "/>
          <path id="Shape" fill="#FFC800" stroke="none" stroke-width="1" d="M 71.25 40.837 C 71.25 40.837 60.834 44.298 60.443 41.909 C 59.902 38.599 60.636 34.455 60.972 31.149 C 61.344 27.427 62.816 11.521 64.59 10.75 C 65.861 11.133 71.25 40.837 71.25 40.837 Z "/>
          <path id="Shape" fill="#000000" stroke="none" stroke-width="1" d="M 119.976 55.553 C 120.088 56.328 120.635 57.914 119.772 59.141 C 118.908 60.367 116.637 61.23 113.369 61.917 C 111.072 62.397 107.819 62.975 106.222 62.661 C 103.278 62.101 102.839 59.937 102.34 58.341 C 101.569 55.874 105.861 53.15 111.419 51.998 C 116.976 50.845 119.76 54.003 119.976 55.553 Z "/>
          <path id="Shape" fill="#828278" stroke="none" stroke-width="1" d="M 113.311 45.268 L 113.981 44.75 C 114.774 45.206 116.019 47.232 114.611 47.688 C 113.203 48.144 113.156 45.94 113.311 45.268 Z "/>
          <path id="Shape" fill="#828278" stroke="none" stroke-width="1" d="M 104.302 47.268 L 104.974 46.75 C 105.77 47.203 107.024 49.232 105.607 49.688 C 104.19 50.145 104.17 47.938 104.302 47.268 Z "/>
        </g>
      </g>
    </g>
  </g>
</svg>