<svg xmlns="http://www.w3.org/2000/svg" xmlns:xlink="http://www.w3.org/1999/xlink" version="1.1" width="226.86505126953125" height="100.77999877929688" viewBox="-0.448999997228384 0.17800003290176392 226.86505126953125 100.77999877929688">
  <!-- Exported by Scratch - http://scratch.mit.edu/ -->
  <g id="ID0.29975117882713675">
    <g id="Page-1">
      <g id="dinosaur3-b-[animals,dinosaur,pteranodon,flying,alex-eben-meyer]">
        <g id="Group-5">
          <path id="Shape" fill="#C8C8BE" stroke="none" stroke-width="1" d="M 122.644 79.157 C 122.662 79.392 124.567 82.913 124.589 83.145 C 126.311 87.434 122.524 93.488 120.156 96.771 C 120.05 97.524 121.758 99.919 122.259 100.458 L 122.494 100.422 C 122.512 99.867 122.094 99.452 122.025 98.916 C 123.636 97.503 125.511 96.401 126.833 94.684 C 128.156 92.967 129.968 90.349 130.791 88.358 C 132.24 84.858 133.301 79.681 132.508 72.997 C 132.505 72.997 122.644 79.157 122.644 79.157 Z "/>
          <path id="Shape" fill="#C8C8BE" stroke="none" stroke-width="1" d="M 121.156 97.373 C 121.156 97.373 122.924 99.762 123.113 99.967 L 123.347 99.931 C 123.362 99.449 122.536 97.542 122.41 97.096 C 121.987 97.166 121.569 97.258 121.156 97.373 Z "/>
          <path id="Shape" fill="#C8C8BE" stroke="none" stroke-width="1" d="M 122.359 96.608 C 122.359 96.608 123.561 99.319 123.708 99.566 L 123.945 99.581 C 124.063 99.114 123.374 96.949 123.344 96.488 C 123.012 96.493 122.682 96.534 122.359 96.608 Z "/>
        </g>
        <g id="Group-4">
          <path id="Shape" fill="#C8C8BE" stroke="none" stroke-width="1" d="M 95.145 98.033 C 95.635 96.928 96.206 95.861 96.693 94.75 C 96.314 94.078 95.521 91.503 95.491 88.813 C 95.458 86.048 96.215 83.154 98.214 81.41 C 102.16 77.97 107.512 78.497 107.512 78.497 L 107.067 74.042 L 98.253 71.03 C 98.253 71.03 93.904 73.021 90.938 81.572 C 90.036 84.208 90.235 87.443 91.019 90.105 C 91.861 92.952 93.664 94.756 94.962 97.319 C 94.791 98.087 94.211 98.681 94.106 99.413 C 94.157 99.55 94.294 99.635 94.439 99.62 C 94.668 99.12 94.905 98.575 95.145 98.033 Z "/>
          <path id="Shape" fill="#C8C8BE" stroke="none" stroke-width="1" d="M 94.28 95.657 C 94.28 95.657 93.64 98.56 93.613 98.84 L 93.793 98.991 C 94.166 98.69 94.896 96.536 95.145 96.148 C 94.875 95.953 94.585 95.789 94.28 95.657 Z "/>
          <path id="Shape" fill="#C8C8BE" stroke="none" stroke-width="1" d="M 93.628 94.383 C 93.628 94.383 93.027 97.645 93 97.925 C 93.054 97.97 93.273 98.12 93.273 98.12 C 93.273 98.12 94.241 95.262 94.493 94.873 C 94.223 94.68 93.933 94.515 93.628 94.383 Z "/>
        </g>
        <g id="Group-3">
          <path id="Shape" fill="#64645A" stroke="none" stroke-width="1" d="M 206.766 18.873 C 197.801 17.97 186.146 18.087 181.822 18.22 L 184.226 33.202 C 184.662 33.03 186.002 32.491 186.444 32.325 C 192.713 29.958 201.618 27.53 210.429 26.753 C 217.131 26.151 224.639 27.075 225.883 26.512 C 225.905 26.455 225.917 26.393 225.916 26.331 C 225.727 25.723 212.434 19.44 206.766 18.873 Z "/>
          <path id="Shape" fill="#3C3C32" stroke="none" stroke-width="1" d="M 140.649 37.422 C 138.876 38.413 137.097 39.407 135.39 40.349 L 119.14 46.136 L 128.477 80.265 C 129.98 80.602 137.07 70.44 137.743 69.328 C 138.416 68.217 144.03 61.497 150.732 55.428 C 149.893 53.563 141.469 39.687 140.649 37.422 Z "/>
          <path id="Shape" fill="#828278" stroke="none" stroke-width="1" d="M 184.226 18.271 C 183.171 18.307 182.459 18.337 182.176 18.337 C 182.732 19.34 157.791 27.247 157.046 28.247 C 156.511 28.449 137.848 39.425 137.848 39.425 C 137.848 39.425 150.107 54.042 150.741 55.431 C 151.492 54.753 152.499 53.864 153.271 53.214 C 159.192 48.223 169.644 39.187 184.226 33.205 L 184.226 18.271 Z "/>
          <path id="Shape" fill="#C8C8BE" stroke="none" stroke-width="1" d="M 190.745 18.611 C 189.642 18.277 188.397 17.599 187.273 17.334 C 185.191 16.846 183.024 16.958 180.905 17.235 C 177.025 17.741 173.308 19.042 169.713 20.575 C 162.074 23.822 139.501 38.12 132.321 40.328 C 127.032 41.952 121.361 42.187 118.626 42.214 L 118.626 47.461 C 120.67 47.861 131.356 45.458 132.877 44.922 C 141.968 41.711 148.309 35.985 152.775 33.09 C 156.803 30.498 161.01 28.197 165.365 26.205 C 168.127 24.928 174.272 21.892 179.372 20.846 C 181.837 20.34 185.329 21.111 185.654 21.223 C 186.573 21.524 187.499 22.464 188.412 22.313 C 189.326 22.163 186.258 20.434 186.66 19.937 C 186.76 19.813 187.652 19.886 188.1 20.127 C 189.443 20.849 191.334 22.711 192.208 22.352 C 192.966 22.051 189.326 19.702 189.822 19.34 C 190.318 18.979 192.746 20.991 193.482 20.642 C 194.219 20.292 191.49 18.84 190.745 18.611 Z "/>
        </g>
        <g id="Group-2">
          <path id="Shape" fill="#64645A" stroke="none" stroke-width="1" d="M 48.386 18.605 C 45.239 18.494 29.909 17.801 19.204 18.873 C 13.536 19.44 0.243 25.723 0.051 26.331 C 0.053 26.393 0.065 26.454 0.087 26.512 C 1.331 27.075 8.839 26.163 15.541 26.753 C 24.352 27.53 33.254 29.958 39.523 32.325 C 40.668 32.756 42.086 33.337 43.183 33.807 L 48.386 18.605 Z "/>
          <path id="Shape" fill="#3C3C32" stroke="none" stroke-width="1" d="M 106.833 46.136 L 90.583 40.349 C 87.578 38.687 75.614 32.398 75.614 32.398 C 75.614 32.398 73.838 47.864 71.163 51.907 L 72.711 53.211 C 78.601 58.178 93.501 76.907 93.501 76.907 L 107.705 65.807 L 106.833 46.136 Z "/>
          <path id="Shape" fill="#828278" stroke="none" stroke-width="1" d="M 68.933 28.244 C 68.188 27.244 43.247 19.337 43.806 18.334 C 43.682 18.334 43.475 18.334 43.204 18.334 L 43.204 33.822 C 55.866 39.289 65.282 46.961 71.172 51.922 C 74.795 46.497 78.099 40.865 81.068 35.054 C 74.739 31.464 69.378 28.41 68.933 28.244 Z "/>
          <path id="Shape" fill="#C8C8BE" stroke="none" stroke-width="1" d="M 107.218 42.401 C 103.524 42.19 98.031 41.672 93.658 40.328 C 86.481 38.12 63.905 23.822 56.266 20.575 C 52.659 19.048 48.954 17.741 45.077 17.235 C 42.958 16.958 40.791 16.846 38.709 17.334 C 37.585 17.599 36.34 18.277 35.237 18.611 C 34.489 18.84 31.763 20.298 32.497 20.648 C 33.23 20.997 35.661 18.991 36.157 19.346 C 36.653 19.702 33.016 22.039 33.774 22.358 C 34.645 22.717 36.536 20.852 37.882 20.133 C 38.33 19.892 39.219 19.831 39.322 19.943 C 39.721 20.44 36.653 22.169 37.566 22.319 C 38.48 22.47 39.409 21.545 40.325 21.229 C 40.653 21.117 44.142 20.346 46.606 20.852 C 51.716 21.898 57.855 24.934 60.617 26.211 C 64.972 28.203 69.179 30.504 73.207 33.096 C 77.669 35.991 81.853 39.361 86.637 41.744 C 87.704 42.274 92.648 45.057 97.835 46.461 C 100.901 47.268 104.049 47.722 107.218 47.813 L 107.218 42.401 Z "/>
        </g>
        <path id="Shape" fill="#828278" stroke="none" stroke-width="1" d="M 112.399 24.729 C 110.734 29.482 93.514 76.907 93.514 76.907 C 93.514 76.907 99.825 83.434 100.94 84.175 C 105.039 86.952 109.905 88.37 114.851 88.229 C 119.795 88.145 125.761 84.892 129.388 81.404 C 131.14 79.72 132.661 76.355 132.661 76.355 L 117.598 23.422 L 112.399 24.729 Z "/>
        <g id="Group">
          <path id="Shape" fill="#64645A" stroke="none" stroke-width="1" d="M 114.854 0.678 L 114.274 0.678 C 113.745 0.877 109.559 16.527 109.451 17.801 C 108.699 26.729 111.188 54.111 111.639 57.831 C 111.675 58.117 112.366 59.078 112.585 59.286 C 112.814 59.361 113.748 60.19 114.623 60.19 C 115.497 60.19 116.315 59.373 116.543 59.286 C 116.763 59.078 117.445 58.117 117.49 57.831 C 117.944 54.09 120.273 26.105 119.594 17.539 C 119.504 16.373 115.383 0.877 114.854 0.678 Z "/>
          <path id="Shape" fill="#828278" stroke="none" stroke-width="1" d="M 114.461 28.437 C 113.379 28.389 113.313 33.877 113.286 34.389 C 113.102 37.976 113.706 48.982 113.817 50.479 C 113.869 50.683 113.945 50.879 114.046 51.063 C 114.103 51.093 114.328 51.422 114.542 51.422 C 114.755 51.422 114.95 51.093 115.008 51.063 C 115.108 50.879 115.185 50.683 115.236 50.479 C 115.347 48.973 115.912 37.726 115.75 34.283 C 115.726 33.813 115.539 28.485 114.461 28.437 Z "/>
          <path id="Shape" fill="#000000" stroke="none" stroke-width="1" d="M 120.955 28.099 C 121.235 27.768 121.526 27.614 121.908 27.798 C 122.365 28.536 122.268 29.102 121.565 29.708 C 121.018 29.349 120.886 28.741 120.955 28.099 Z "/>
          <path id="Shape" fill="#000000" stroke="none" stroke-width="1" d="M 107.317 28.099 C 107.593 27.768 107.888 27.614 108.267 27.798 C 108.723 28.536 108.627 29.102 107.924 29.708 C 107.377 29.349 107.248 28.741 107.317 28.099 Z "/>
          <path id="Shape" fill="#000000" stroke="none" stroke-width="1" d="M 115.251 55.982 C 115.448 55.808 115.723 55.753 115.972 55.837 C 116.318 56.193 116.246 56.467 115.711 56.759 C 115.379 56.66 115.179 56.322 115.251 55.982 Z "/>
          <path id="Shape" fill="#000000" stroke="none" stroke-width="1" d="M 112.955 56.018 C 113.154 55.847 113.428 55.793 113.676 55.877 C 114.025 56.232 113.95 56.506 113.418 56.798 C 113.084 56.699 112.883 56.359 112.955 56.018 Z "/>
        </g>
      </g>
    </g>
  </g>
</svg>