<svg xmlns="http://www.w3.org/2000/svg" xmlns:xlink="http://www.w3.org/1999/xlink" width="121.89999389648438" height="111.89999389648438" viewBox="8.300000190734863 5.800000190734863 121.89999389648438 111.89999389648438" version="1.1" xml:space="preserve">
  <defs/>
  <g>
    <title>pufferfish-d</title>
    <desc>Created with Sketch.</desc>
    <g id="ocean" stroke="none" fill-rule="evenodd">
      <g id="pufferfish-d" fill-rule="nonzero">
        <g id="flippers">
          <g id="Group">
            <path d="M 118.1 31 L 129.7 52.6 C 129.7 52.6 110.4 57.9 106.7 51.8 C 102.9 45.7 118.1 31 118.1 31 Z " id="Shape" fill="#E2BB7D" stroke-width="1"/>
            <path d="M 126.9 47.5 C 122.7 48.9 118.3 49.6 113.8 49.6 C 113 49.6 112.3 49.6 111.5 49.6 C 114.1 48 116.5 46.3 119 44.8 C 120.6 43.8 122.2 42.8 123.7 41.7 L 122.7 39.9 C 121.5 40.8 120.2 41.6 118.8 42.4 C 115.9 44.2 112.5 45.8 109.1 47.3 C 110.4 45.9 111.6 44.3 112.9 43.1 C 115.6 40.7 118 38 120.2 35.1 L 119.1 33 C 117.5 35.3 115.7 37.5 113.7 39.4 C 111.7 41.3 109.7 43.2 107.5 44.9 C 107.3 45 107 45.2 106.8 45.5 C 106.3 46.5 106 48.2 105.8 49.3 C 105.8 50.1 106 50.9 106.4 51.6 C 106.5 51.7 106.5 51.7 106.5 51.8 C 106.8 51.7 107.1 51.5 107.5 51.4 C 110.2 51.5 113 51.5 115.6 51.5 C 119.8 51.4 123.9 50.7 127.8 49.3 L 126.9 47.5 Z " id="Shape" fill="#D2AE69" stroke-width="1"/>
          </g>
          <g id="Group">
            <path d="M 31.8 51.7 C 28 57.8 8.8 52.5 8.8 52.5 L 20.3 31 C 20.3 31 35.5 45.7 31.8 51.7 Z " id="Shape" fill="#E2BB7D" stroke-width="1"/>
            <path d="M 11.5 47.5 C 15.7 48.9 20.1 49.6 24.6 49.6 C 25.4 49.6 26.1 49.6 26.9 49.6 C 24.3 48 21.9 46.3 19.4 44.8 C 17.8 43.8 16.2 42.8 14.7 41.7 L 15.7 39.9 C 16.9 40.8 18.2 41.6 19.6 42.4 C 22.5 44.2 25.9 45.8 29.3 47.3 C 28 45.9 26.8 44.3 25.5 43.1 C 22.8 40.7 20.4 38 18.2 35.1 L 19.3 33 C 20.9 35.3 22.7 37.5 24.7 39.4 C 26.7 41.3 28.7 43.2 30.9 44.9 C 31.1 45 31.4 45.2 31.6 45.5 C 32.1 46.5 32.4 48.2 32.6 49.3 C 32.6 50.1 32.4 50.9 32 51.6 C 31.9 51.7 31.9 51.7 31.9 51.8 C 31.6 51.7 31.3 51.5 30.9 51.4 C 28.2 51.5 25.4 51.5 22.8 51.5 C 18.6 51.4 14.5 50.7 10.6 49.3 L 11.5 47.5 Z " id="Shape" fill="#D2AE69" stroke-width="1"/>
          </g>
        </g>
        <g id="body">
          <path d="M 123.8 63 L 124 63 C 124 63 112 62.7 108.8 56.6 C 108.5 54.5 108 52.4 107.4 50.3 C 106.9 48.6 106.3 46.9 105.5 45.3 C 105.2 44.6 104.9 43.9 104.5 43.2 C 106.6 38.9 112.8 33.9 112.8 33.9 C 112.8 33.9 106.5 37.8 101 37.6 L 100.8 37.3 C 99.3 32.8 107.4 22.8 107.4 22.8 C 107.4 22.8 100.3 29.6 94.1 29.3 C 94.8 24.6 98.1 18.5 98.1 18.5 C 98.1 18.5 93.9 24.4 88.8 26.3 C 85.9 24.5 82.8 23.2 79.6 22.1 C 78.2 17.5 79 10.1 79 10.1 C 79 10.1 77.3 16.9 73.5 20.7 L 72.6 20.6 C 69.2 17.2 67.9 6.4 67.9 6.4 C 67.9 6.4 67.8 16 63.4 20.4 C 62.8 20.5 62.2 20.5 61.7 20.6 C 58.6 16.8 56.3 10 56.3 10 C 56.3 10 57.6 16.6 55.8 21.6 C 52.7 22.4 49.6 23.6 46.8 25.1 C 44.9 23.9 43.1 22.4 41.5 20.7 C 39.9 19 38.8 17.7 38.8 17.7 L 39 18 C 38.7 17.6 38.5 17.4 38.5 17.4 C 38.5 17.4 41.9 22.9 42.2 28.1 C 41.7 28.4 41.3 28.7 40.8 29.1 C 35.9 28.8 27.8 22.4 27.8 22.4 C 27.8 22.4 34.2 29.2 34.3 35.3 C 28.8 41.7 25.4 49.6 24.5 58 C 20.5 60.9 11.1 62 11.1 62 C 11.1 62 19.7 62.6 24.4 66.2 C 24.5 67.2 24.6 68.3 24.7 69.3 C 20.9 71.9 15.4 73.7 15.4 73.7 C 15.4 73.7 20.9 72.7 25.7 73.8 C 26 74.8 26.3 75.7 26.6 76.7 C 23.5 80.1 18.5 83.1 18.5 83.1 C 18.5 83.1 23.5 80.9 28.3 80.9 C 28.8 81.9 29.3 83 29.9 84 C 29.8 84.3 29.6 84.5 29.4 84.7 L 29.4 84.8 C 28 86.6 26.5 88.2 24.8 89.8 C 24.3 90.3 23.8 90.7 23.5 91 L 23 91.5 L 22.9 91.6 L 22.8 91.7 L 23 91.7 L 23.1 91.6 C 24.1 91 28.4 88.6 32.7 88.1 C 33.2 88.7 33.6 89.3 34.1 89.9 C 33.3 94.8 27.5 102 27.5 102 C 27.5 102 33.7 96 39.7 95.5 C 40.2 95.9 40.6 96.2 41.1 96.6 C 40.2 101.1 37.3 106.6 37.3 106.6 C 37.3 106.6 40.9 101.7 45.3 99.4 C 46 99.9 46.8 100.2 47.5 100.6 C 47.9 105.2 45.8 112 45.8 112 C 45.8 112 48.6 105.9 52.8 102.9 C 53.8 103.2 54.8 103.6 55.9 103.8 C 56.9 108.4 56.2 114.9 56.2 114.9 C 56.2 114.9 57.7 108.7 61.1 104.8 C 61.4 104.9 61.8 104.9 62.1 104.9 L 63.9 104.9 C 66.2 109.3 67.1 117.2 67.1 117.2 C 67.1 117.2 67.3 109.7 70.4 104.9 L 72.2 104.9 L 72.3 104.8 C 72.7 104.7 73.1 104.7 73.5 104.6 C 76.5 108.3 78.7 114.9 78.7 114.9 C 78.7 114.9 77.4 108.2 79.2 103.2 C 79.8 103 80.4 102.8 81 102.6 C 84.4 105.7 87.7 111.8 87.7 111.8 C 87.7 111.8 85.4 105.4 86.3 100.3 C 86.8 100 87.3 99.8 87.7 99.5 C 91.1 101.4 94.9 105.5 96.1 107 L 96.5 107.5 L 96.6 107.6 L 96.5 107.5 C 96 106.8 92.7 101.1 92.9 96.1 C 93.2 95.9 93.4 95.7 93.7 95.5 C 98.6 95.5 107 102.2 107 102.2 C 107 102.2 100.5 95.4 100.5 89.2 C 105.2 89.8 111.7 93.2 111.7 93.2 C 111.7 93.2 105.7 88.8 103.8 83.6 C 104.2 82.9 104.6 82.2 105 81.5 C 109.6 81.3 115.9 83.2 115.9 83.2 C 115.9 83.2 110.1 80.6 107.1 76.6 C 107.3 76.1 107.5 75.5 107.6 75 C 112.2 73.4 120.1 74.3 120.1 74.3 C 120.1 74.3 112.9 72.5 109.2 68.6 C 111.1 64.6 122.3 63.1 123.8 63 Z " id="Shape" fill="#EAC685" stroke-width="1"/>
          <path d="M 104.8 67.4 C 106.4 64.5 107.6 61.4 108.4 58.1 C 111.5 54.5 120.1 51.6 120.1 51.6 C 120.1 51.6 112.6 53 107.6 50.8 C 107.3 50 107.1 49.2 106.8 48.4 C 109.5 46.9 112.3 45.6 115.1 44.6 C 115.1 44.6 109.9 45.6 105.2 44.6 C 104.9 44.1 104.7 43.5 104.4 43 C 106.5 38.7 112.7 33.7 112.7 33.7 C 112.7 33.7 106.4 37.6 100.9 37.4 C 97.1 32.3 92.3 28 86.6 25 C 86.5 20.5 88.3 14.6 88.3 14.6 C 88.3 14.6 86 19.9 82.3 23 C 79.2 21.8 76 20.9 72.7 20.5 C 69.3 17.1 68 6.3 68 6.3 C 68 6.3 67.7 15.9 63.3 20.2 C 60.2 20.5 57.2 21 54.3 21.9 C 52.2 19.4 50.3 16.8 48.8 13.9 C 49.8 16.9 50.4 20.1 50.4 23.3 C 43.9 26 38.2 30.3 33.8 35.7 C 29.3 34.7 24 31.9 24 31.9 C 24 31.9 28.7 35.3 31.1 39.6 C 30.3 40.9 29.5 42.3 28.8 43.6 C 25.8 43.3 22.8 42.8 19.9 41.9 C 22.6 43.2 25.1 44.9 27.3 46.9 C 26.8 48.1 26.4 49.4 26 50.7 C 21.4 51.5 15.7 50.9 15.7 50.9 C 15.7 50.9 21.2 52.2 25 55.2 C 24.9 55.5 24.9 55.8 24.9 56 C 25.4 58.3 26.1 60.6 26.9 62.7 C 24.7 64.5 22.3 66.1 19.8 67.5 C 22.5 66.5 25.4 65.9 28.3 65.8 C 29.5 68.2 30.8 70.5 32.5 72.7 C 31.2 77.2 25 83.2 25 83.2 C 25 83.2 32.1 77.9 37.8 78.6 C 38.7 79.4 39.6 80.2 40.6 80.9 C 39.6 83.5 38.4 86 37 88.3 C 38.8 86.2 40.9 84.3 43.2 82.8 C 44.7 83.8 46.3 84.7 47.9 85.5 C 47.5 88.7 46.7 92 45.6 95.1 C 45.6 95.1 48.2 90.2 52 87.2 C 53.6 87.8 55.1 88.2 56.7 88.6 C 57.1 91.5 57.2 94.5 57 97.4 C 57.7 94.5 58.8 91.8 60.2 89.3 C 62.1 89.6 64.1 89.8 66 89.8 C 66.8 92.5 67.4 95.1 67.8 97.9 C 67.9 95.2 68.3 92.4 69.2 89.8 C 70.6 89.7 72.1 89.6 73.5 89.3 C 75 91.5 76.3 93.9 77.4 96.3 C 76.7 93.8 76.4 91.3 76.4 88.7 C 78.2 88.3 80 87.8 81.8 87.1 C 85.6 89.5 89.3 93.9 89.3 93.9 C 87.7 91.3 86.4 88.5 85.7 85.5 C 87.6 84.6 89.5 83.5 91.2 82.3 C 93 84 94.7 85.8 96.3 87.8 C 95.1 85.5 94.1 83.2 93.5 80.6 C 94.7 79.6 95.9 78.7 97 77.5 C 98.9 78.4 100.7 79.5 102.5 80.7 C 101 79.3 99.6 77.8 98.5 76.1 C 100.6 73.8 102.6 71.3 104.2 68.6 C 106.1 69.3 108 70.1 109.9 71 C 107.7 70.4 106.1 69 104.8 67.4 Z " id="Shape" fill="#F2D39A" stroke-width="1"/>
        </g>
        <g id="face">
          <g id="Group">
            <path d="M 38.3 52.4 C 38.3 51.6 37.7 50.9 36.8 50.9 C 35.9 50.9 35.3 51.6 35.3 52.4 L 35.3 52.7 C 35.3 53.5 36 54.2 36.8 54.2 C 37.6 54.2 38.3 53.5 38.3 52.7 L 38.3 52.4 Z " id="Shape" stroke-width="1" fill="#E7C684"/>
            <path d="M 43.1 50.5 C 42.4 50.4 41.7 50.8 41.3 51.4 C 40.8 52.1 41.1 53.1 41.8 53.5 C 42.1 53.6 42.3 53.7 42.6 53.7 C 43.2 53.8 43.8 53.6 44.2 53 C 44.4 52.7 44.5 52.2 44.3 51.8 C 44.4 51.1 43.8 50.6 43.1 50.5 Z " id="Shape" stroke-width="1" fill="#E7C684"/>
            <path d="M 39.6 56.7 C 37.7 56.7 37.7 59.8 39.6 59.8 C 41.5 59.8 41.6 56.7 39.6 56.7 Z " id="Shape" stroke-width="1" fill="#E7C684"/>
            <path d="M 48.5 56.5 C 46.6 56.5 46.6 59.6 48.5 59.6 C 50.5 59.5 50.5 56.5 48.5 56.5 Z " id="Shape" stroke-width="1" fill="#E7C684"/>
            <path d="M 84.8 54.4 C 83.4 54.4 83.4 56.5 84.8 56.5 C 86.2 56.6 86.2 54.4 84.8 54.4 Z " id="Shape" stroke-width="1" fill="#E7C684"/>
            <path d="M 89.6 50.3 C 87.7 50.3 87.7 53.4 89.6 53.4 C 91.6 53.4 91.6 50.3 89.6 50.3 Z " id="Shape" stroke-width="1" fill="#E7C684"/>
            <path d="M 98.8 51.3 C 96.9 51.3 96.9 54.4 98.8 54.4 C 100.8 54.3 100.8 51.3 98.8 51.3 Z " id="Shape" stroke-width="1" fill="#E7C684"/>
            <path d="M 91.4 55.9 C 90 55.9 90 58 91.4 58 C 92.8 58.1 92.8 55.9 91.4 55.9 Z " id="Shape" stroke-width="1" fill="#E7C684"/>
            <path d="M 67.4 48.5 C 65.5 48.5 65.5 51.6 67.4 51.6 C 69.3 51.6 69.3 48.5 67.4 48.5 Z " id="Shape" stroke-width="1" fill="#E7C684"/>
          </g>
          <g id="Group">
            <g>
              <circle id="Oval" fill="#FFFFFF" transform="matrix(0.9926156579106257,-0.12130191948463001,0.12130191948463001,0.9926156579106257,43.318121689785464,37.80806668358207)" cx="6.29608" cy="6.00461" r="5.29991639" stroke-width="1"/>
              <path d="M 52.6 42.8 C 52.4 41.5 51.3 40.6 50 40.7 C 49.1 40.8 48.4 41.4 48.1 42.2 C 48.9 42.2 49.7 42.8 49.8 43.6 C 49.9 44.2 49.6 44.7 49.2 45.1 C 49.6 45.3 50.1 45.5 50.6 45.4 C 51.9 45.3 52.8 44.1 52.6 42.8 Z " id="Shape" fill="#737977" stroke-width="1"/>
            </g>
            <path d="M 48.3 32.5 C 50.3 31.7 52.6 32.1 54.1 33.8 C 55 34.8 56.4 33.3 55.5 32.4 C 53.6 30.2 50.4 29.6 47.8 30.6 C 46.5 31 47.1 32.9 48.3 32.5 Z " id="Shape" fill="#D2AE69" stroke-width="1"/>
          </g>
          <g id="Group">
            <path d="M 80.3 38.7 C 81.6 37.3 83.6 36.4 85.5 37.2 C 86.7 37.7 87.2 35.7 86 35.2 C 83.5 34.2 80.6 35.3 78.8 37.3 C 78 38.2 79.4 39.6 80.3 38.7 Z " id="Shape" fill="#D2AE69" stroke-width="1"/>
            <path d="M 79.9 44.5 C 81.7 42.9 86.7 42.9 87.3 45.8 C 87.5 46.8 89.1 46.4 88.9 45.4 C 88 41.2 81.4 41 78.7 43.4 C 78 44.1 79.2 45.2 79.9 44.5 Z " id="Shape" fill="#FFFFFF" stroke-width="1"/>
          </g>
          <path d="M 73.8 58.4 C 72.7 60.5 70.4 61 68.2 61 C 67.2 61 67.2 62.5 68.2 62.5 C 70.9 62.5 73.8 61.7 75.1 59.1 C 75.5 58.3 74.3 57.5 73.8 58.4 Z " id="Shape" fill="#737977" stroke-width="1"/>
          <path d="M 73.6 67.1 C 67.9 70.1 67.1 79.5 67.1 79.5 C 67.1 79.5 66.3 68.8 62.1 67.4 C 62.1 67.4 65.5 68.6 67.7 68.6 C 70.4 68.7 73.6 67.1 73.6 67.1 Z " id="Shape" fill="#EAC685" stroke-width="1"/>
        </g>
      </g>
    </g>
  </g>
</svg>