<svg version="1.1" xmlns="http://www.w3.org/2000/svg" xmlns:xlink="http://www.w3.org/1999/xlink" width="242.644" height="215.94943" viewBox="0,0,242.644,215.94943"><g transform="translate(-119.178,-88.54957)"><g data-paper-data="{&quot;isPaintingLayer&quot;:true}" fill="none" fill-rule="nonzero" stroke="none" stroke-width="none" stroke-linecap="none" stroke-linejoin="none" stroke-miterlimit="10" stroke-dasharray="" stroke-dashoffset="0" font-family="none" font-weight="none" font-size="none" text-anchor="none" style="mix-blend-mode: normal"><g data-paper-data="{&quot;index&quot;:null}" id="Group" stroke-linejoin="miter"><path d="M328.286,151.228h-4.532v-30.15h4.532z" id="Rectangle" fill="#d974e8" stroke="#5e154d" stroke-width="0.6" stroke-linecap="butt"/><g id="Path"><path d="M299.624,128.542h17.919c2.463,-0.284 4.704,-1.556 6.211,-3.522v22.308c-1.507,-1.966 -3.748,-3.237 -6.211,-3.522h-17.919c-4.218,0 -7.638,-3.417 -7.638,-7.632c0,-4.215 3.42,-7.632 7.638,-7.632z" id="ID0.9750461364164948" fill="#8b49d4" stroke="#5e154d" stroke-width="0.6" stroke-linecap="butt"/><path d="M304.282,143.806v11.196h-4.196v-11.196h4.196" id="ID0.5103195155970752" fill="#8b49d4" stroke="#5e154d" stroke-width="0.6" stroke-linecap="butt"/><path d="M295.889,136.258c0,-2.316 1.879,-4.193 4.197,-4.193" id="ID0.19552338356152177" fill="none" stroke="#ffffff" stroke-width="0.6" stroke-linecap="butt"/><path d="M345.03,136.174h-7.134" id="ID0.5240193833597004" fill="none" stroke="#5e154d" stroke-width="1.2" stroke-linecap="round"/><path d="M343.352,153.115l-5.456,-5.41" id="ID0.7887561917304993" fill="none" stroke="#5e154d" stroke-width="1.2" stroke-linecap="round"/><path d="M343.352,119.233l-5.456,5.41" id="ID0.21348640322685242" fill="none" stroke="#5e154d" stroke-width="1.2" stroke-linecap="round"/></g></g><g data-paper-data="{&quot;index&quot;:null}" id="Group" stroke="none" stroke-width="1" stroke-linecap="butt" stroke-linejoin="miter"><path d="M125.771,161.509c0,-4.403 2.14,-6.499 5.917,-6.499h180.828c3.477,0.295 6.266,2.994 6.672,6.457l7.05,45.119l24.844,17.319c3.202,1.737 4.978,5.287 4.448,8.889v17.57h-229.759z" id="Path" fill="#f7c1d8"/><path d="M355.53,249.232v37.11h-28.117c0.069,-6.831 -2.622,-13.4 -7.464,-18.222c-4.842,-4.822 -11.425,-7.49 -18.26,-7.399c-6.737,-0.052 -13.201,2.66 -17.881,7.503c-4.68,4.843 -7.166,11.392 -6.879,18.118h-73.565c-0.561,-13.987 -12.072,-25.037 -26.081,-25.037c-14.009,0 -25.52,11.05 -26.081,25.037h-25.431v-37.11z" id="Path" fill="#da53d6"/></g><path d="M235.128,142.932v12.118h-5.245v-12.118h5.245" data-paper-data="{&quot;index&quot;:null}" id="Path" fill="#5e154d" stroke="#5e154d" stroke-width="1.512" stroke-linecap="round" stroke-linejoin="round"/><path d="M164.375,142.806v12.118h-5.245v-12.118h5.245" data-paper-data="{&quot;index&quot;:null}" id="Path" fill="#5e154d" stroke="#5e154d" stroke-width="1.512" stroke-linecap="round" stroke-linejoin="round"/><g data-paper-data="{&quot;index&quot;:null}" id="Hotdog"><path d="M243.057,116.821c-6.531,3.409 -27.725,6.986 -47.487,6.018c-19.762,-0.968 -35.352,-3.704 -41.757,-7.912c-8.427,-5.766 -9.607,-10.733 -8.427,-16.836c1.18,-6.102 4.129,-9.133 12.304,-9.091c8.174,0.043 23.975,7.197 37.669,7.871c13.694,0.673 32.36,-3.704 40.324,-5.093c7.344,-1.878 14.84,2.465 16.854,9.765c1.433,5.008 -0.126,10.311 -9.48,15.278z" id="Path" fill="#ffd78f" stroke="#e89f1f" stroke-width="0.9" stroke-linecap="butt" stroke-linejoin="round"/><path d="M254.695,104.502c-9.846,1.71 -28.079,10.737 -54.533,10.493c-26.453,-0.244 -34.25,-4.866 -43.589,-8.693c-7.776,-3.054 -29.58,-1.765 -25.427,-6.688c4.153,-4.923 11.237,-5.958 17.282,-3.443c6.424,2.239 28.16,11.462 46.12,11.462c17.96,0 35.531,-3.134 46.56,-8.019c11.029,-4.886 19.483,-3.226 23.751,2.067l1.141,2.821c-3.824,-0.784 -7.453,-0.649 -11.305,0z" id="Path" fill="#f4569e" stroke="none" stroke-width="1" stroke-linecap="butt" stroke-linejoin="miter"/><path d="M130.856,100.312c8.065,-3.426 16.891,0.585 24.576,3.719c9.333,3.803 17.187,7.981 43.622,8.357c26.434,0.376 43.537,-9.485 53.376,-11.24c3.881,-0.576 7.839,-0.405 11.655,0.502c3.8,5.641 2.449,15.251 -8.657,22.522c-14.104,9.234 -38.005,12.828 -61.653,12.828c-24.872,0 -44.635,-6.393 -53.883,-12.745c-10.177,-7.061 -12.077,-16.296 -10.303,-21.394c0.319,-0.896 0.744,-1.751 1.267,-2.549z" id="Path" fill="#ea3681" stroke="none" stroke-width="1" stroke-linecap="butt" stroke-linejoin="miter"/><path d="M129.589,102.838c0.329,-0.857 0.754,-1.675 1.268,-2.437c4.151,-5.081 11.191,-6.798 17.234,-4.202c6.42,2.311 27.245,11.471 45.198,11.471c17.952,0 37.172,-3.319 46.465,-7.563c11.024,-5.043 19.642,-4.707 23.908,0.756l0.422,0.588c3.802,5.673 2.45,15.338 -8.659,22.649c-14.109,9.286 -38.017,12.9 -61.672,12.9c-24.88,0 -44.648,-6.429 -53.899,-12.816c-10.138,-6.933 -12.039,-16.22 -10.265,-21.346z" id="Path" fill="none" stroke="#ea3681" stroke-width="0.9" stroke-linecap="butt" stroke-linejoin="round"/><path d="M242.362,143.599c-9.856,5.167 -31.589,8.401 -49.111,8.401c-20.596,0 -33.948,-2.31 -43.087,-7.897c-7.834,-4.831 -10.656,-12.308 -8.424,-16.55c2.232,-4.243 6.36,-5.503 13.309,-5.755c5.476,-0.21 23.082,3.445 37.107,3.445c13.15,-0.096 26.262,-1.404 39.171,-3.907c8.044,-1.764 18.448,-2.856 21.649,3.907c3.369,6.888 -1.938,13.903 -10.614,18.356z" id="Path" fill="#fdbb38" stroke="#e89f1f" stroke-width="0.9" stroke-linecap="butt" stroke-linejoin="round"/><path d="M245,114.516c-2.407,-1.974 -5.368,-2.952 -8.364,-2.765c-4.892,0.599 -5.436,4.608 -9.869,5.208c-4.432,0.599 -6.063,-3.134 -11.082,-1.844c-5.018,1.291 -4.181,4.148 -9.869,4.609c-5.06,0 -5.687,-3.318 -11.416,-3.134c-5.729,0.184 -5.604,3.41 -11.751,3.41c-4.684,0 -5.729,-4.147 -10.58,-4.931c-4.851,-0.783 -5.854,2.857 -11.876,1.659c-3.166,-0.995 -5.788,-3.447 -7.193,-6.728" id="Path" fill="none" stroke="#fde982" stroke-width="1.8" stroke-linecap="round" stroke-linejoin="round"/><path d="M142,98c3.81,0.416 7.525,1.429 11,3" id="Path" fill="none" stroke="#ffffff" stroke-width="0.9" stroke-linecap="round" stroke-linejoin="round"/><path d="M160,103.85l-3,-1.7" id="Path" fill="none" stroke="#ffffff" stroke-width="0.9" stroke-linecap="round" stroke-linejoin="round"/><path d="M229.95,141l-1.9,2" id="Path" fill="none" stroke="#e89f1f" stroke-width="0.9" stroke-linecap="round" stroke-linejoin="round"/><path d="M238,139.8l-2,0.4" id="Path" fill="none" stroke="#e89f1f" stroke-width="0.9" stroke-linecap="round" stroke-linejoin="round"/><path d="M220,146.075l-2,-0.15" id="Path" fill="none" stroke="#e89f1f" stroke-width="0.9" stroke-linecap="round" stroke-linejoin="round"/><path d="M211,147.3l-2,1.4" id="Path" fill="none" stroke="#e89f1f" stroke-width="0.9" stroke-linecap="round" stroke-linejoin="round"/><path d="M223.75,140.9l-1.5,-1.8" id="Path" fill="none" stroke="#e89f1f" stroke-width="0.9" stroke-linecap="round" stroke-linejoin="round"/><path d="M213,141.55l-2,0.9" id="Path" fill="none" stroke="#e89f1f" stroke-width="0.9" stroke-linecap="round" stroke-linejoin="round"/><path d="M161.45,144l1.1,2" id="Path" fill="none" stroke="#e89f1f" stroke-width="0.9" stroke-linecap="round" stroke-linejoin="round"/><path d="M170,145.425l-2,-0.85" id="Path" fill="none" stroke="#e89f1f" stroke-width="0.9" stroke-linecap="round" stroke-linejoin="round"/><path d="M189,144.85l-2,0.3" id="Path" fill="none" stroke="#e89f1f" stroke-width="0.9" stroke-linecap="round" stroke-linejoin="round"/><path d="M178,143.075l-2,-0.15" id="Path" fill="none" stroke="#e89f1f" stroke-width="0.9" stroke-linecap="round" stroke-linejoin="round"/><path d="M156.075,142.75l1.85,-1.5" id="Path" fill="none" stroke="#e89f1f" stroke-width="0.9" stroke-linecap="round" stroke-linejoin="round"/><path d="M176,147.5l-2,1" id="Path" fill="none" stroke="#e89f1f" stroke-width="0.9" stroke-linecap="round" stroke-linejoin="round"/><path d="M204.375,144.175l1.25,1.65" id="Path" fill="none" stroke="#e89f1f" stroke-width="0.9" stroke-linecap="round" stroke-linejoin="round"/><path d="M199,149.1l2,-0.2" id="Path" fill="none" stroke="#e89f1f" stroke-width="0.9" stroke-linecap="round" stroke-linejoin="round"/><path d="M183.85,148.775l-1.7,-1.55" id="Path" fill="none" stroke="#e89f1f" stroke-width="0.9" stroke-linecap="round" stroke-linejoin="round"/><path d="M190.6,149l0.8,-2" id="Path" fill="none" stroke="#e89f1f" stroke-width="0.9" stroke-linecap="round" stroke-linejoin="round"/><path d="M195.025,144.35l1.95,1.3" id="Path" fill="none" stroke="#e89f1f" stroke-width="0.9" stroke-linecap="round" stroke-linejoin="round"/></g><g data-paper-data="{&quot;index&quot;:null}" id="Group" stroke-linecap="butt"><path d="M310.976,174.497c2.015,0 3.903,0.503 4.449,4.193l4.867,33.546c-0.019,1.071 -0.549,2.068 -1.426,2.684l-10.156,-40.632z" id="Path" fill="#b3e0d7" stroke="none" stroke-width="1" stroke-linejoin="miter"/><path d="M305.017,174.539l10.324,41.387h-9.736c-2.017,0 -3.651,-1.633 -3.651,-3.648v-34.133c0.014,-1.784 1.304,-3.302 3.063,-3.606z" id="Path" fill="#b3e0d7" stroke="none" stroke-width="1" stroke-linejoin="miter"/><path d="M305.605,174.497h3.105l10.156,40.633c-0.672,0.522 -1.5,0.803 -2.35,0.796h-1.175l-10.324,-41.387z" id="Path" fill="#d4fff5" stroke="none" stroke-width="1" stroke-linejoin="miter"/><path d="M305.017,174.539h5.959c2.015,0 3.903,0.503 4.449,4.193l4.867,33.546c-0.019,1.071 -0.549,2.068 -1.426,2.684c-0.672,0.522 -1.5,0.803 -2.35,0.797h-10.911c-2.017,0 -3.651,-1.634 -3.651,-3.648v-33.966c0.014,-1.784 1.304,-3.302 3.063,-3.606z" id="Path" fill="none" stroke="#5e154d" stroke-width="1.512" stroke-linejoin="round"/></g><g data-paper-data="{&quot;index&quot;:null}" id="Group" stroke-linejoin="miter"><path d="M179.607,182.912v44.91h-8.981l-11.247,-44.91h20.228" id="Path" fill="#b3e0d7" stroke="none" stroke-width="1" stroke-linecap="butt"/><path d="M159.379,182.912l11.247,44.91h-6.043l-11.247,-44.91h6.043" id="Path" fill="#d4fff5" stroke="none" stroke-width="1" stroke-linecap="butt"/><path d="M149.937,182.912l11.205,44.91h-3.399l-11.247,-44.91h3.441" id="Path" fill="#d4fff5" stroke="none" stroke-width="1" stroke-linecap="butt"/><path d="M153.336,182.912l11.247,44.91h-3.441l-11.205,-44.91h3.399" id="Path" fill="#b3e0d7" stroke="none" stroke-width="1" stroke-linecap="butt"/><path d="M145.111,182.912h1.385l11.247,44.91h-12.632v-44.91" id="Path" fill="#b3e0d7" stroke="none" stroke-width="1" stroke-linecap="butt"/><g id="Path" stroke="#5e154d" stroke-width="1.512"><path d="M228.286,227.822v4.528h-87.707v-4.528h87.707" id="ID0.20175496069714427" fill="#996cd4" stroke-linecap="round"/><path d="M144.776,166.055h39.573h0.126h39.615l3.693,16.857h-43.308h-0.126h-43.266l3.693,-16.857" id="ID0.028750764671713114" fill="#ea3681" stroke-linecap="butt"/><path d="M223.712,182.912v44.91h-44.105v-44.91h44.105" id="ID0.2692203684709966" fill="#43c3d7" stroke-linecap="round"/><path d="M223.712,232.35v7.129h-4.197v-7.129h4.197" id="ID0.75192845845595" fill="#5e154d" stroke-linecap="round"/><path d="M148.762,232.35v7.129h-4.196v-7.129h4.196" id="ID0.27690320229157805" fill="#5e154d" stroke-linecap="round"/><path d="M179.607,182.912v44.91h-34.496v-44.91h34.496" id="ID0.32834444753825665" fill="none" stroke-linecap="round"/></g></g><g data-paper-data="{&quot;index&quot;:null}" id="Group" stroke-linecap="butt"><path d="M246.546,174.497h43.895c2.017,0 3.651,1.634 3.651,3.648v75.73c-12.161,1.952 -21.811,11.277 -24.172,23.356h-23.29c-1.984,-0.022 -3.587,-1.624 -3.609,-3.606v-95.48c-0.001,-1.966 1.558,-3.58 3.525,-3.648z" id="Path" fill="#fc9fe4" stroke="#5e154d" stroke-width="1.512" stroke-linejoin="round"/><path d="M286.539,183.345v33.085h-4.617l-8.267,-33.085h12.884" id="Path" fill="#b3e0d7" stroke="none" stroke-width="1" stroke-linejoin="miter"/><path d="M273.655,183.345l8.267,33.085h-6.085l-8.225,-33.085h6.043" id="Path" fill="#d4fff5" stroke="none" stroke-width="1" stroke-linejoin="miter"/><path d="M267.612,183.345l8.225,33.085h-3.399l-8.225,-33.085h3.399" id="Path" fill="#b3e0d7" stroke="none" stroke-width="1" stroke-linejoin="miter"/><path d="M264.213,183.345l8.225,33.085h-3.441l-8.225,-33.085h3.441" id="Path" fill="#d4fff5" stroke="none" stroke-width="1" stroke-linejoin="miter"/><path d="M250.449,183.345h10.323l8.225,33.085h-18.548v-33.085" id="Path" fill="#b3e0d7" stroke="none" stroke-width="1" stroke-linejoin="miter"/><path d="M286.539,227.793v9.016h-4.197v-9.016h4.197" id="Path" fill="none" stroke="#d974e8" stroke-width="1.512" stroke-linejoin="round"/></g><g data-paper-data="{&quot;index&quot;:null}" id="Group" stroke-linejoin="miter"><g id="Path" stroke-linecap="butt"><path d="M360.814,252.293v10.86h-5.371v-10.86h5.371" id="ID0.0020001675002276897" fill="#f7c1d8" stroke="#5e154d" stroke-width="2.016"/><path d="M341.174,263.111v4.655h-8.393v-4.655h8.393" id="ID0.5075748595409095" fill="none" stroke="#fc9fe4" stroke-width="1.512"/><path d="M125.725,252.293v10.86h-5.539v-10.86h5.539" id="ID0.8438299517147243" fill="#8b49d4" stroke="#5e154d" stroke-width="2.016"/><path d="M315.911,227.762h-10.869" id="ID0.4244517828337848" fill="none" stroke="#000000" stroke-width="2.016"/><path d="M305.042,232.543h10.869" id="ID0.8089206786826253" fill="none" stroke="#000000" stroke-width="2.016"/><path d="M305.042,237.365h10.869" id="ID0.28445054357871413" fill="none" stroke="#000000" stroke-width="2.016"/><path d="M131.642,155.01h180.828c3.477,0.295 6.266,2.994 6.673,6.457l7.05,45.119l24.843,17.319c3.202,1.737 4.978,5.287 4.449,8.889v53.548h-28.117c-0.011,-6.88 -2.776,-13.469 -7.68,-18.298c-4.904,-4.829 -11.538,-7.496 -18.422,-7.407c-13.574,0.972 -24.176,12.11 -24.466,25.705h-73.481c-0.069,-14.356 -11.736,-25.956 -26.102,-25.956c-14.353,0 -25.18,13.502 -25.557,25.956h-25.935v-124.833c0,-4.403 2.14,-6.499 5.917,-6.499z" id="ID0.24063522135838866" fill="none" stroke="#5e154d" stroke-width="2.016"/></g><path d="M352.463,273.301v-10.19h6.463v23.231h-12.884v-13.041h6.421" id="Path" fill="#d974e8" stroke="#5e154d" stroke-width="2.016" stroke-linecap="butt"/><path d="M301.937,266.13c-11.848,0.321 -21.217,10.133 -20.983,21.973h-6.252c-0.998,-10.363 3.972,-20.395 12.824,-25.885c8.852,-5.491 20.054,-5.491 28.906,0c8.852,5.49 13.822,15.522 12.824,25.885h-6.252c0.234,-11.872 -9.186,-21.698 -21.067,-21.973z" id="Path" fill="#fdbb38" stroke="#5e154d" stroke-width="1.512" stroke-linecap="butt"/><path d="M177.888,266.13c-11.838,0.343 -21.195,10.141 -20.983,21.973h-6.252c-0.998,-10.363 3.972,-20.395 12.824,-25.885c8.852,-5.491 20.054,-5.491 28.906,0c8.852,5.49 13.822,15.522 12.824,25.885h-6.211c0.211,-11.879 -9.221,-21.698 -21.108,-21.973z" id="Path" fill="#fdbb38" stroke="#5e154d" stroke-width="1.512" stroke-linecap="butt"/><path d="M349.484,282.4v-5.87" id="Path" fill="none" stroke="#ffffff" stroke-width="1.512" stroke-linecap="round"/></g><g data-paper-data="{&quot;index&quot;:null}" id="Group" stroke-linejoin="miter"><g id="Path" fill="none" stroke="#ffffff" stroke-width="2.52" stroke-linecap="butt"><path d="M131.205,171.581v-6.29c-0.17,-1.394 0.299,-2.791 1.277,-3.8c0.977,-1.01 2.359,-1.524 3.759,-1.4h5.623" id="ID0.91263118525967"/><path d="M148.998,160.091h-3.357" id="ID0.1069753598421812"/></g><g id="Path" fill="none" stroke="#cc48cc" stroke-width="1.512" stroke-linecap="butt"><path d="M231.222,256.621l3.147,2.181" id="ID0.8272302024997771"/><path d="M215.946,258.382l0.924,-3.732" id="ID0.16506824735552073"/><path d="M224.927,265.888l0.462,3.816" id="ID0.6830048202537"/><path d="M254.89,280.9l3.609,1.342" id="ID0.7572692004032433"/><path d="M342.597,255.489l3.483,1.635" id="ID0.35042035346850753"/><path d="M336.428,275.365l1.134,3.69" id="ID0.2845806423574686"/><path d="M324.804,259.64l1.931,-3.312" id="ID0.3505315533839166"/><path d="M307.305,254.147l3.818,0.252" id="ID0.6483545047231019"/><path d="M287.035,260.689l2.854,-2.6" id="ID0.008866059128195047"/><path d="M275.579,269.159v3.858" id="ID0.625361786223948"/><path d="M214.562,278.426l0.923,-3.732" id="ID0.2788260099478066"/><path d="M206.085,264.379l3.147,2.18" id="ID0.9916154206730425"/><path d="M197.734,254.944l-2.267,3.145" id="ID0.8841637964360416"/><path d="M181.535,254.273l-3.861,0.21" id="ID0.9111444693990052"/><path d="M163.91,257.711l-2.644,-2.851" id="ID0.7042004251852632"/><path d="M148.466,263.33l3.106,-2.264" id="ID0.7419874328188598"/><path d="M138.647,255.615l3.609,1.342" id="ID0.3621298186480999"/><path d="M133.779,263.582l0.629,3.774" id="ID0.9594456795603037"/><path d="M134.45,279.558l1.763,-3.396" id="ID0.784473511390388"/><path d="M143.473,271.465l3.147,2.223" id="ID0.1440156209282577"/><path d="M233.74,276.581l-3.609,1.258" id="ID0.9735468523576856"/></g><path d="M286.532,183.322v33.042h-36.09v-33.042h36.09" id="Path" fill="none" stroke="#5e154d" stroke-width="1.512" stroke-linecap="butt"/><g id="Path" stroke="#5e154d" stroke-width="1.512" stroke-linecap="butt"><path d="M227.95,182.889v4.822c0,2.664 -2.161,4.823 -4.826,4.823c-2.665,0 -4.826,-2.159 -4.826,-4.823v-4.822z" id="ID0.021298525389283895" fill="#ffffff"/><path d="M218.13,182.889v4.822c0.171,1.823 -0.706,3.585 -2.263,4.549c-1.557,0.964 -3.526,0.964 -5.084,0c-1.557,-0.964 -2.434,-2.726 -2.263,-4.549v-4.822z" id="ID0.816502305213362" fill="#f7c1d8"/><path d="M208.52,182.889v4.822c0,2.664 -2.161,4.823 -4.826,4.823c-2.665,0 -4.826,-2.159 -4.826,-4.823v-4.822z" id="ID0.7676572157070041" fill="#ffffff"/><path d="M198.868,182.889v4.822c0.171,1.823 -0.706,3.585 -2.263,4.549c-1.557,0.964 -3.526,0.964 -5.084,0c-1.557,-0.964 -2.434,-2.726 -2.263,-4.549v-4.822z" id="ID0.2727248133160174" fill="#f7c1d8"/><path d="M189.258,182.889v4.822c0,2.664 -2.161,4.823 -4.826,4.823c-2.665,0 -4.826,-2.159 -4.826,-4.823v-4.822z" id="ID0.14141784282401204" fill="#ffffff"/><path d="M179.606,182.889v4.822c0,2.664 -2.161,4.823 -4.826,4.823c-2.665,0 -4.826,-2.159 -4.826,-4.823v-4.822z" id="ID0.97341039031744" fill="#f7c1d8"/><path d="M169.954,182.889v4.822c0.171,1.823 -0.706,3.585 -2.263,4.549c-1.557,0.964 -3.526,0.964 -5.084,0c-1.557,-0.964 -2.434,-2.726 -2.263,-4.549v-4.822z" id="ID0.9614425809122622" fill="#ffffff"/><path d="M160.344,182.889v4.822c0,2.664 -2.161,4.823 -4.826,4.823c-2.665,0 -4.826,-2.159 -4.826,-4.823v-4.822z" id="ID0.904340616427362" fill="#f7c1d8"/><path d="M150.692,182.889v4.822c0.171,1.823 -0.706,3.585 -2.263,4.549c-1.557,0.964 -3.526,0.964 -5.084,0c-1.557,-0.964 -2.434,-2.726 -2.263,-4.549v-4.822z" id="ID0.8952499884180725" fill="#ffffff"/></g><path d="M313.836,275.043c3.016,3.013 4.883,7.175 4.883,11.768c0,4.593 -1.867,8.754 -4.883,11.768c-3.016,3.014 -7.181,4.879 -11.777,4.879c-4.596,0 -8.761,-1.865 -11.777,-4.879c-3.016,-3.014 -4.883,-7.175 -4.883,-11.768c0,-4.593 1.867,-8.755 4.883,-11.768c3.016,-3.014 7.181,-4.879 11.777,-4.879c4.596,0 8.761,1.865 11.777,4.879z" id="Oval" fill="#5e154d" stroke="#5e154d" stroke-width="2.016" stroke-linecap="round"/></g><path d="M308.28,280.589c1.603,1.602 2.596,3.814 2.596,6.255c0,2.441 -0.993,4.653 -2.596,6.254c-1.602,1.602 -3.816,2.593 -6.259,2.593c-2.443,0 -4.657,-0.991 -6.26,-2.593c-1.603,-1.601 -2.595,-3.813 -2.595,-6.254c0,-2.441 0.992,-4.653 2.595,-6.255c1.603,-1.602 3.817,-2.593 6.26,-2.593c2.443,0 4.657,0.991 6.259,2.593z" data-paper-data="{&quot;index&quot;:null}" id="Oval" fill="#c5a2fc" stroke="#c5a2fc" stroke-width="1.008" stroke-linecap="butt" stroke-linejoin="miter"/><path d="M305.7,283.168c0.942,0.941 1.525,2.241 1.525,3.676c0,1.434 -0.583,2.734 -1.525,3.675c-0.942,0.942 -2.243,1.524 -3.679,1.524c-1.436,0 -2.737,-0.582 -3.679,-1.524c-0.942,-0.941 -1.525,-2.241 -1.525,-3.675c0,-1.435 0.583,-2.735 1.525,-3.676c0.942,-0.941 2.243,-1.524 3.679,-1.524c1.436,0 2.737,0.583 3.679,1.524z" data-paper-data="{&quot;index&quot;:null}" id="Oval" fill="#ffffff" stroke="#8b49d4" stroke-width="1.512" stroke-linecap="round" stroke-linejoin="round"/><path d="M189.665,275.075c3.016,3.014 4.883,7.176 4.883,11.769c0,4.592 -1.867,8.754 -4.883,11.768c-3.016,3.013 -7.181,4.879 -11.777,4.879c-4.596,0 -8.761,-1.866 -11.777,-4.879c-3.016,-3.014 -4.883,-7.176 -4.883,-11.768c0,-4.593 1.867,-8.755 4.883,-11.769c3.016,-3.013 7.181,-4.878 11.777,-4.878c4.596,0 8.761,1.865 11.777,4.878z" data-paper-data="{&quot;index&quot;:null}" id="Oval" fill="#5e154d" stroke="#5e154d" stroke-width="2.016" stroke-linecap="round" stroke-linejoin="round"/><path d="M184.147,280.589c1.603,1.602 2.596,3.814 2.596,6.255c0,2.441 -0.993,4.653 -2.596,6.254c-1.602,1.602 -3.816,2.593 -6.259,2.593c-2.443,0 -4.657,-0.991 -6.26,-2.593c-1.602,-1.601 -2.595,-3.813 -2.595,-6.254c0,-2.441 0.993,-4.653 2.595,-6.255c1.603,-1.602 3.817,-2.593 6.26,-2.593c2.443,0 4.657,0.991 6.259,2.593z" data-paper-data="{&quot;index&quot;:null}" id="Oval" fill="#c5a2fc" stroke="#c5a2fc" stroke-width="1.008" stroke-linecap="butt" stroke-linejoin="miter"/><path d="M181.567,283.168c0.942,0.941 1.525,2.241 1.525,3.676c0,1.434 -0.583,2.734 -1.525,3.675c-0.942,0.942 -2.243,1.524 -3.679,1.524c-1.436,0 -2.737,-0.582 -3.679,-1.524c-0.942,-0.941 -1.525,-2.241 -1.525,-3.675c0,-1.435 0.583,-2.735 1.525,-3.676c0.942,-0.941 2.243,-1.524 3.679,-1.524c1.436,0 2.737,0.583 3.679,1.524z" data-paper-data="{&quot;index&quot;:null}" id="Oval" fill="#ffffff" stroke="#8b49d4" stroke-width="1.512" stroke-linecap="round" stroke-linejoin="round"/><g data-paper-data="{&quot;index&quot;:null}" id="Group"><g id="Path" fill="#ffffff" stroke="none" stroke-width="1" stroke-linecap="butt" stroke-linejoin="miter"><path d="M210.229,200.696v-1.049h1.385v1.049c0,0.712 0.881,0.335 0.881,1.132v1.509h-3.105v-1.509c0,-0.881 0.839,-0.42 0.839,-1.132z" id="ID0.46123841870576143"/><path d="M212.495,203.337h0.588c0.354,0.022 0.63,0.316 0.629,0.671v2.348c0.001,0.355 -0.275,0.649 -0.629,0.671h-0.588z" id="ID0.8487621848471463"/><path d="M210.943,207.027h-2.141c-0.37,0 -0.671,-0.3 -0.671,-0.671v-2.348c0,-0.37 0.301,-0.671 0.671,-0.671h3.693v3.69z" id="ID0.6399232763797045"/></g><path d="M212.497,209.921v-2.894h0.923v1.887c-0.117,0.889 0.437,1.729 1.301,1.971c1.049,0.461 1.049,1.845 1.049,3.271v10.986c0,1.258 -0.503,2.055 -1.636,2.055h-0.672c0,-3.523 0,-12.58 0,-14.593c0.042,-1.342 -0.965,-1.132 -0.965,-2.683z" id="Path" fill="#f7c1d8" stroke="none" stroke-width="1" stroke-linecap="butt" stroke-linejoin="miter"/><path d="M206.957,210.885c0.864,-0.242 1.418,-1.082 1.301,-1.971v-1.887h4.197v2.894c0,1.551 1.007,1.341 1.007,2.683v14.593h-5.749c-1.091,0 -1.595,-0.797 -1.595,-2.055v-11.196c0,-1.426 0,-2.6 0.839,-3.061z" id="Path" fill="#ea3681" stroke="none" stroke-width="1" stroke-linecap="butt" stroke-linejoin="miter"/><path d="M213.714,207.53h-5.582v-4.193h5.582z" id="Rectangle" fill="none" stroke="#663c1d" stroke-width="1.008" stroke-linecap="round" stroke-linejoin="round"/><path d="M210.231,200.696v-1.049h1.385v1.049c0,0.712 0.881,0.335 0.881,1.132v1.509h-3.106v-1.509c0,-0.881 0.84,-0.42 0.84,-1.132z" id="Path" fill="none" stroke="#663c1d" stroke-width="1.008" stroke-linecap="round" stroke-linejoin="round"/><path d="M206.957,210.885c0.864,-0.242 1.418,-1.082 1.301,-1.971v-1.887h5.162v1.887c-0.117,0.889 0.437,1.729 1.301,1.971c1.049,0.461 1.049,1.845 1.049,3.271v10.986c0,1.258 -0.503,2.055 -1.636,2.055h-6.421c-1.091,0 -1.595,-0.797 -1.595,-2.055v-11.196c0,-1.426 0,-2.6 0.839,-3.061z" id="Path" fill="none" stroke="#663c1d" stroke-width="1.008" stroke-linecap="round" stroke-linejoin="round"/></g><g data-paper-data="{&quot;index&quot;:null}" id="Group"><g id="Path" fill="#ffffff" stroke="none" stroke-width="1" stroke-linecap="butt" stroke-linejoin="miter"><path d="M197.797,200.696v-1.049h1.385v1.049c0,0.712 0.839,0.335 0.839,1.132v1.509h-3.105v-1.509c0,-0.881 0.881,-0.42 0.881,-1.132z" id="ID0.44330265559256077"/><path d="M200.021,203.337h0.588c0.371,0 0.671,0.301 0.671,0.671v2.348c0,0.371 -0.3,0.671 -0.671,0.671h-0.588z" id="ID0.6920376461930573"/><path d="M198.552,207.027h-2.14c-0.354,-0.022 -0.63,-0.316 -0.629,-0.671v-2.348c-0.001,-0.355 0.275,-0.649 0.629,-0.671h3.693v3.69z" id="ID0.744662172626704"/></g><path d="M200.023,209.921v-2.894h0.923v1.887c-0.117,0.889 0.437,1.729 1.301,1.971c1.049,0.461 1.049,1.845 1.049,3.271v10.986c0,1.258 -0.504,2.055 -1.595,2.055h-0.713c0,-3.523 0,-12.58 0,-14.593c0.042,-1.342 -0.965,-1.132 -0.965,-2.683z" id="Path" fill="#fde982" stroke="none" stroke-width="1" stroke-linecap="butt" stroke-linejoin="miter"/><path d="M194.693,210.885c0.864,-0.242 1.418,-1.082 1.301,-1.971v-1.887h4.197v2.894c0,1.551 1.007,1.341 1.007,2.683v14.593h-5.707c-1.134,0 -1.637,-0.797 -1.637,-2.055v-11.196c-0.21,-1.426 -0.21,-2.6 0.839,-3.061z" id="Path" fill="#fdbb38" stroke="none" stroke-width="1" stroke-linecap="butt" stroke-linejoin="miter"/><path d="M201.282,207.53h-5.582v-4.193h5.582z" id="Rectangle" fill="none" stroke="#663c1d" stroke-width="1.008" stroke-linecap="round" stroke-linejoin="round"/><path d="M197.799,200.696v-1.049h1.384v1.049c0,0.712 0.84,0.335 0.84,1.132v1.509h-3.106v-1.509c0,-0.881 0.882,-0.42 0.882,-1.132z" id="Path" fill="none" stroke="#663c1d" stroke-width="1.008" stroke-linecap="round" stroke-linejoin="round"/><path d="M194.693,210.885c0.864,-0.242 1.418,-1.082 1.301,-1.971v-1.887h4.952v1.887c-0.117,0.889 0.437,1.729 1.301,1.971c1.049,0.461 1.049,1.845 1.049,3.271v10.986c0,1.258 -0.504,2.055 -1.595,2.055h-6.42c-1.133,0 -1.637,-0.797 -1.637,-2.055v-11.196c0,-1.426 0,-2.6 1.049,-3.061z" id="Path" fill="none" stroke="#663c1d" stroke-width="1.008" stroke-linecap="round" stroke-linejoin="round"/></g></g></g></svg>