<svg xmlns="http://www.w3.org/2000/svg" xmlns:xlink="http://www.w3.org/1999/xlink" width="190.07034301757812" height="85.38145446777344" viewBox="-0.23786485195159912 0.19894766807556152 190.07034301757812 85.38145446777344" version="1.1" xml:space="preserve">
  <defs>
    <polygon id="path-1" points="0.200617647 0.657235772 9.07613235 0.657235772 9.07613235 11.6234244 0.200617647 11.6234244" stroke-width="1"/>
  </defs>
  <g>
    <title>Slice 1</title>
    <desc>Created with Sketch.</desc>
    <g id="Page-1" stroke="none" fill-rule="evenodd">
      <g id="lion-a-[cat,animals,africa,savanna,robert-hunter]">
        <g id="Group-4">
          <path d="M 131.8806 37.142 C 131.1024 43.7843 122.2192 50.6447 122.2192 50.6447 C 123.0847 55.0146 121.7526 62.0743 120.8494 71.14 C 120.4059 75.5924 119.6158 79.9294 119.4747 81.5404 C 119.2435 84.1805 122.0069 85.0804 122.0069 85.0804 L 132.4352 85.0804 C 135.5409 85.0804 137.9767 82.0529 137.5059 79.2247 C 137.2439 77.6515 136.8129 77.5235 133.096 78.1318 C 128.5556 78.8751 128.1162 77.1698 128.0317 76.6027 C 128.0722 75.275 128.8755 71.5916 133.8945 60.1718 C 138.9127 48.7513 149.8503 37.9139 149.8503 37.9139 " id="Fill-1" fill="#BB8E5D" stroke-width="1"/>
          <path d="M 131.8806 37.142 C 131.1024 43.7843 122.2192 50.6447 122.2192 50.6447 C 123.0847 55.0146 121.7526 62.0743 120.8494 71.14 C 120.4059 75.5924 119.6158 79.9294 119.4747 81.5404 C 119.2435 84.1805 122.0069 85.0804 122.0069 85.0804 L 132.4352 85.0804 C 135.5409 85.0804 137.9767 82.0529 137.5059 79.2247 C 137.2439 77.6515 136.8129 77.5235 133.096 78.1318 C 128.5556 78.8751 128.1162 77.1698 128.0317 76.6027 C 128.0722 75.275 128.8755 71.5916 133.8945 60.1718 C 138.9127 48.7513 149.8503 37.9139 149.8503 37.9139 " id="Stroke-3" stroke="#784E3D" stroke-width="0.525" fill="none"/>
        </g>
        <g id="Group-5">
          <path d="M 132.8342 79.6763 C 132.8342 79.6763 132.9691 79.5875 133.2212 79.4596 C 133.3477 79.3953 133.5034 79.3212 133.6885 79.2498 C 133.8716 79.1687 134.0874 79.096 134.3361 79.096 C 134.5813 79.0729 134.8537 79.066 135.1527 79.1072 C 135.4418 79.1589 135.8086 79.2547 136.0552 79.5945 C 136.3094 79.9511 136.2319 80.3448 136.1781 80.6811 C 136.0971 80.9817 136.0419 81.2789 135.9364 81.59 C 135.8442 81.9012 135.7373 82.2081 135.5976 82.4997 C 135.4866 82.8017 135.2854 83.0611 135.1338 83.3296 C 134.9284 83.5603 134.7615 83.8183 134.5421 83.9966 C 134.3277 84.1777 134.1426 84.3777 133.933 84.5007 C 133.7444 84.6553 133.5356 84.7468 133.3491 84.814 C 133.1605 84.872 132.9956 84.9223 132.8601 84.9636 C 132.5905 85.044 132.4354 85.0804 132.4354 85.0804 C 132.4354 85.0804 132.5562 84.9692 132.7679 84.7909 C 132.8734 84.7035 133.0012 84.5979 133.1479 84.4763 C 133.282 84.3385 133.4252 84.1833 133.625 84.0763 C 133.8227 83.9617 133.984 83.782 134.1796 83.6184 C 134.3794 83.4575 134.5212 83.2282 134.707 83.0254 C 134.8404 82.7828 135.0206 82.5605 135.1219 82.2808 C 135.2491 82.0165 135.3475 81.7334 135.4328 81.4453 C 135.5299 81.1642 135.5913 80.8454 135.671 80.5517 C 135.7101 80.3007 135.7464 80.0294 135.6249 79.8938 C 135.5229 79.7449 135.3014 79.6638 135.0744 79.6253 C 134.8411 79.5938 134.6022 79.5966 134.3822 79.6183 C 134.2711 79.6169 134.1677 79.6617 134.0643 79.6554 C 133.9603 79.647 133.8604 79.6505 133.7661 79.6477 C 133.5754 79.6512 133.4091 79.654 133.2722 79.6568 C 132.9935 79.6694 132.8342 79.6763 132.8342 79.6763 " id="Fill-5" fill="#784E3D" stroke-width="1"/>
          <path d="M 85.9018 85.08 L 73.3283 85.08 C 66.8012 72.0849 67.1568 73.663 64.422 68.7365 C 63.3302 66.7704 60.3615 62.7934 60.5361 60.4337 C 60.7107 58.0739 65.1646 49.1593 59.6196 36.4425 C 54.0747 23.7264 74.2887 17.1274 79.1344 19.8368 C 83.9808 22.5461 93.5856 33.1213 88.8705 41.8178 C 84.1555 50.5136 78.8725 55.4079 76.559 57.5495 C 74.2454 59.6904 71.9214 62.3222 71.4073 63.8863 C 70.9225 65.3594 71.0832 65.3343 76.1657 76.3835 C 77.3881 79.0055 77.0829 78.6559 78.4359 78.5251 C 79.7897 78.3937 84.5907 77.9008 84.5907 77.9008 C 84.5907 77.9008 88.434 77.1268 88.216 79.8361 C 88.0253 82.2029 87.1242 84.0753 85.9018 85.08 " id="Fill-7" fill="#BB8E5D" stroke-width="1"/>
        </g>
        <g id="Group-4">
          <path d="M 85.9018 85.08 L 73.3283 85.08 C 66.8012 72.0849 67.1568 73.663 64.422 68.7365 C 63.3302 66.7704 60.3615 62.7934 60.5361 60.4337 C 60.7107 58.0739 65.1646 49.1593 59.6196 36.4425 C 54.0747 23.7264 74.2887 17.1274 79.1344 19.8368 C 83.9808 22.5461 93.5856 33.1213 88.8705 41.8178 C 84.1555 50.5136 78.8725 55.4079 76.559 57.5495 C 74.2454 59.6904 71.9214 62.3222 71.4073 63.8863 C 70.9225 65.3594 71.0832 65.3343 76.1657 76.3835 C 77.3881 79.0055 77.0829 78.6559 78.4359 78.5251 C 79.7897 78.3937 84.5907 77.9008 84.5907 77.9008 C 84.5907 77.9008 88.434 77.1268 88.216 79.8361 C 88.0253 82.2029 87.1242 84.0753 85.9018 85.08 Z " id="Stroke-9" stroke="#784E3D" stroke-width="0.525" fill="none"/>
          <path d="M 81.7979 80.7538 C 81.7979 80.7538 81.9139 80.6594 82.1325 80.5168 C 82.2422 80.4461 82.377 80.3622 82.5377 80.2762 C 82.6194 80.2343 82.7053 80.1895 82.7968 80.142 C 82.8883 80.0945 82.9994 80.0973 83.1056 80.0637 C 83.3221 80.0134 83.5589 79.9644 83.8174 79.9364 C 84.0723 79.9022 84.349 79.8854 84.6409 79.9078 C 84.9315 79.9211 85.2424 79.9924 85.5414 80.1329 C 85.8333 80.2916 86.1072 80.5475 86.2371 80.8678 C 86.2587 80.9188 86.2706 80.9153 86.3 81.0111 L 86.3251 81.116 L 86.3747 81.325 C 86.4201 81.4516 86.4061 81.6418 86.4138 81.8019 C 86.4257 81.9746 86.3991 82.1235 86.3705 82.2703 C 86.3433 82.4186 86.3251 82.5682 86.2713 82.701 C 86.2259 82.8367 86.1812 82.9702 86.1372 83.101 C 86.0785 83.224 86.0219 83.3443 85.9661 83.4617 C 85.8641 83.7023 85.7202 83.8973 85.6084 84.0917 C 85.5127 84.2987 85.3423 84.428 85.2047 84.549 C 85.0719 84.6734 84.9413 84.7664 84.8379 84.8447 C 84.6284 85 84.5047 85.0797 84.5047 85.0797 C 84.5047 85.0797 84.569 84.9426 84.6891 84.7175 C 84.7492 84.6056 84.8254 84.4742 84.8924 84.3099 C 84.9273 84.2308 84.9651 84.1455 85.0042 84.0561 C 85.0412 83.9659 85.1243 83.9022 85.1683 83.8078 C 85.2703 83.6288 85.4065 83.4457 85.4966 83.2296 C 85.5469 83.1233 85.5986 83.0143 85.6517 82.9038 C 85.6901 82.7884 85.7293 82.671 85.7698 82.5514 C 85.8187 82.4332 85.8305 82.3088 85.8536 82.1836 C 85.8794 82.0578 85.9018 81.9312 85.8906 81.8187 C 85.8808 81.6984 85.9158 81.597 85.8655 81.4481 L 85.8152 81.239 L 85.7907 81.1341 C 85.7991 81.1614 85.7691 81.0985 85.76 81.0852 C 85.6727 80.8657 85.5008 80.7146 85.3032 80.6 C 85.0901 80.5035 84.8519 80.4406 84.6039 80.4308 C 84.3594 80.4119 84.1129 80.4252 83.8803 80.4566 C 83.6469 80.4811 83.4262 80.528 83.2236 80.5748 C 83.1202 80.5916 83.0294 80.637 82.933 80.6461 C 82.8353 80.6524 82.743 80.6587 82.6564 80.665 C 82.4804 80.6818 82.3267 80.6965 82.201 80.709 C 81.9446 80.7377 81.7979 80.7538 81.7979 80.7538 " id="Fill-11" fill="#784E3D" stroke-width="1"/>
        </g>
        <g id="Group-16">
          <path d="M 174.5499 10.1117 C 174.5499 10.1117 179.7547 12.7728 182.2868 15.5696 L 181.9082 14.1712 C 181.9082 14.1712 184.5277 15.1326 185.8088 16.1814 C 185.8088 16.1814 185.1683 12.1317 181.7923 9.4517 C 181.7923 9.4517 182.7521 9.3643 183.7419 9.9761 C 183.7419 9.9761 175.7242 2.2235 168.3749 2.1976 C 163.0193 2.178 159.9339 4.1784 159.2354 4.4986 C 158.5368 4.8196 156.0626 6.1886 154.2004 6.1012 C 152.3374 6.0138 147.4477 4.3238 142.5 6.334 C 142.5 6.334 144.101 6.5382 144.5663 7.0045 C 144.5663 7.0045 142.558 6.7416 138.2215 9.0727 C 138.2215 9.0727 140.4624 8.8686 140.7537 9.5097 C 140.7537 9.5097 135.6307 10.7039 131.2649 13.2678 C 131.2649 13.2678 132.4873 12.9763 133.4771 13.035 C 133.3332 13.0301 131.2998 14.4725 129.6932 15.0158 C 125.1234 16.5596 119.3612 18.4824 97.5322 15.5696 C 75.7031 12.6561 72.7344 13.1804 71.5699 13.2385 C 70.4062 13.2965 69.0112 13.8789 67.6121 14.7536 C 65.5165 16.2107 57.5414 20.3618 55.911 29.4946 C 52.477 53.9081 77.0422 38.2344 83.2123 42.7791 C 98.172 55.8309 112.4926 55.598 112.4926 55.598 C 124.7748 55.4813 132.8079 48.6062 140.1425 45.8094 C 147.477 43.0127 154.2297 40.9144 163.2519 44.1775 L 165.8714 42.5463 C 165.8714 42.5463 167.6757 43.8866 167.8503 44.6439 C 167.8503 44.6439 169.3061 43.3622 169.364 42.1967 C 169.364 42.1967 170.2959 42.4295 170.5865 43.1287 C 170.5865 43.1287 171.8089 42.1967 171.1104 41.0899 C 171.1104 41.0899 173.4386 41.7891 173.7878 44.411 C 173.7878 44.411 176.4073 41.3227 176.2914 36.1956 C 176.2914 36.1956 177.0479 36.5445 177.1645 37.5352 C 177.1645 37.5352 177.5913 35.3684 179.9195 33.1541 L 175.7884 31.6285 C 180.3582 32.4151 182.4321 35.5544 183.044 34.4763 C 184.2134 32.4137 186.7113 29.582 188.3703 27.5718 C 190.0293 25.5616 189.0395 24.9212 189.0395 24.9212 L 184.4991 20.6093 C 184.4991 17.8126 183.1775 14.6928 183.1775 14.6928 " id="Fill-13" fill="#DCB285" stroke-width="1"/>
          <path d="M 174.5499 10.1117 C 174.5499 10.1117 179.7547 12.7728 182.2868 15.5696 L 181.9082 14.1712 C 181.9082 14.1712 184.5277 15.1326 185.8088 16.1814 C 185.8088 16.1814 185.1683 12.1317 181.7923 9.4517 C 181.7923 9.4517 182.7521 9.3643 183.7419 9.9761 C 183.7419 9.9761 175.7242 2.2235 168.3749 2.1976 C 163.0193 2.178 159.9339 4.1784 159.2354 4.4986 C 158.5368 4.8196 156.0626 6.1886 154.2004 6.1012 C 152.3374 6.0138 147.4477 4.3238 142.5 6.334 C 142.5 6.334 144.101 6.5382 144.5663 7.0045 C 144.5663 7.0045 142.558 6.7416 138.2215 9.0727 C 138.2215 9.0727 140.4624 8.8686 140.7537 9.5097 C 140.7537 9.5097 135.6307 10.7039 131.2649 13.2678 C 131.2649 13.2678 132.4873 12.9763 133.4771 13.035 C 133.3332 13.0301 131.2998 14.4725 129.6932 15.0158 C 125.1234 16.5596 119.3612 18.4824 97.5322 15.5696 C 75.7031 12.6561 72.7344 13.1804 71.5699 13.2385 C 70.4062 13.2965 69.0112 13.8789 67.6121 14.7536 C 65.5165 16.2107 57.5414 20.3618 55.911 29.4946 C 52.477 53.9081 77.0422 38.2344 83.2123 42.7791 C 98.172 55.8309 112.4926 55.598 112.4926 55.598 C 124.7748 55.4813 132.8079 48.6062 140.1425 45.8094 C 147.477 43.0127 154.2297 40.9144 163.2519 44.1775 L 165.8714 42.5463 C 165.8714 42.5463 167.6757 43.8866 167.8503 44.6439 C 167.8503 44.6439 169.3061 43.3622 169.364 42.1967 C 169.364 42.1967 170.2959 42.4295 170.5865 43.1287 C 170.5865 43.1287 171.8089 42.1967 171.1104 41.0899 C 171.1104 41.0899 173.4386 41.7891 173.7878 44.411 C 173.7878 44.411 176.4073 41.3227 176.2914 36.1956 C 176.2914 36.1956 177.0479 36.5445 177.1645 37.5352 C 177.1645 37.5352 177.5913 35.3684 179.9195 33.1541 L 175.7884 31.6285 C 180.3582 32.4151 182.4321 35.5544 183.044 34.4763 C 184.2134 32.4137 186.7113 29.582 188.3703 27.5718 C 190.0293 25.5616 189.0395 24.9212 189.0395 24.9212 L 184.4991 20.6093 C 184.4991 17.8126 183.1775 14.6928 183.1775 14.6928 " id="Stroke-15" stroke="#784E3D" stroke-width="0.525" fill="none"/>
        </g>
        <path d="M174.489224,10.1991106 C174.489224,10.1991106 179.693967,12.8602163 182.226136,15.6569642 L181.847533,14.2585902 C181.847533,14.2585902 184.467018,15.2199724 185.748121,16.2687528 C185.748121,16.2687528 185.10757,12.2190618 181.731577,9.53907805 C181.731577,9.53907805 182.691357,9.45167967 183.681173,10.0634683 C183.681173,10.0634683 175.663452,2.31088293 168.314224,2.28501301 C162.958599,2.26543577 159.873195,4.26580976 159.174665,4.5860374 C158.476136,4.90696423 156.001945,6.27597236 154.139665,6.18857398 C152.276688,6.10117561 147.386982,4.41124065 142.439298,6.42140325 C142.439298,6.42140325 144.040327,6.62556585 144.505548,7.09192358 C144.505548,7.09192358 142.497276,6.82902927 138.160805,9.1601187 C138.160805,9.1601187 140.401688,8.9559561 140.692974,9.59711057 C140.692974,9.59711057 135.56996,10.791322 131.204151,13.3552407 C131.204151,13.3552407 132.426577,13.0636797 133.416393,13.1224114 C133.272496,13.1175171 131.239077,14.5599398 129.63246,15.1032081 C125.06268,16.647013 119.300511,18.5697772 97.4714669,15.6569642 C75.6424228,12.743452 72.6736728,13.2678423 71.5092243,13.3258748 C70.3454743,13.3839073 68.950511,13.9663301 67.5513566,14.841013 C65.4557684,16.2981187 57.4806581,20.4491919 55.8502904,29.5819724 C52.4163199,53.9954846 76.9815037,38.3218098 83.151614,42.8665252 C98.1113199,55.9182488 112.431871,55.6854195 112.431871,55.6854195 C124.714114,55.5686553 132.747202,48.6935496 140.081761,45.8968016 C147.41632,43.1000537 154.169004,41.0017935 163.19121,44.2648992 L165.810695,42.6336959 C165.810695,42.6336959 167.614996,43.9740374 167.789629,44.7312569 C167.789629,44.7312569 169.245364,43.4496472 169.303342,42.2841024 C169.303342,42.2841024 170.23518,42.5169317 170.525768,43.2161187 C170.525768,43.2161187 171.748195,42.2841024 171.049665,41.1772894 C171.049665,41.1772894 173.377864,41.8764764 173.727129,44.4984276 C173.727129,44.4984276 176.346614,41.4101187 176.230658,36.2829805 C176.230658,36.2829805 176.987165,36.6318748 177.10382,37.6226228 C177.10382,37.6226228 177.530621,35.4558423 179.85882,33.2415171 L175.727717,31.7158911 C180.297496,32.5024764 182.37143,35.641826 182.983342,34.5636797 C184.15268,32.501078 186.650621,29.6693707 188.309629,27.6592081 C189.968636,25.6490455 188.97882,25.0085902 188.97882,25.0085902 L184.438379,20.6967041 C184.438379,17.8999561 183.116761,14.7801837 183.116761,14.7801837" id="Stroke-19" stroke="#784E3D" stroke-width="0.525" fill="none"/>
        <g id="Group-3">
          <path d="M 175.7382 31.765 C 175.7962 31.6776 179.3286 32.5369 179.7834 33.3137 C 179.7834 33.3137 177.634 35.0372 177.4419 36.4754 C 177.0284 39.5693 177.1695 36.6376 176.056 36.1153 C 176.056 36.1153 176.8195 39.9168 173.7746 44.328 C 173.7746 44.328 172.6248 41.0166 170.6746 40.8999 C 170.6746 40.8999 172.0891 41.7263 170.4678 43.2596 C 170.4678 43.2596 170.2457 41.927 169.2558 42.1892 C 169.2558 42.1892 168.6342 43.7994 167.7896 44.7314 C 167.7896 44.7314 166.5274 42.659 165.8107 42.6338 L 163.1912 44.265 C 163.1912 44.265 157.3375 42.1892 152.7866 42.6464 C 152.7866 42.6464 160.0478 32.3096 158.1562 25.2884 L 157.2719 27.6705 C 157.2719 27.6705 157.5555 22.9615 155.9838 19.9242 L 155.3837 21.782 C 155.3837 21.782 155.3111 18.1217 153.4188 16.0242 C 153.4188 16.0242 153.4579 18.0287 153.2442 18.7881 C 153.2442 18.7881 152.3382 15.8389 151.9016 15.1502 C 151.465 14.4622 150.6792 13.4022 150.1231 12.9764 L 149.8172 13.5882 C 149.8172 13.5882 147.8529 10.4635 143.9342 11.1522 C 139.5069 11.9297 134.2246 14.6566 132.0263 15.0852 C 129.5598 15.5655 129.0143 15.4669 129.0143 15.4669 C 129.0143 15.4669 132.7144 13.6756 133.2928 13.2386 C 133.2928 13.2386 132.6271 12.9324 132.1136 12.9764 C 132.1136 12.9764 138.2041 9.8266 140.693 9.5966 C 140.6287 9.6035 140.0489 9.0868 138.6952 8.9344 C 138.6952 8.9344 142.0481 6.8669 144.4601 7.0529 C 144.4601 7.0529 143.8685 6.6292 142.9632 6.3558 C 142.908 6.3558 146.3909 5.2064 148.923 5.479 C 151.4552 5.7524 154.2919 6.6397 155.9838 5.9957 C 157.6756 5.3511 164.8244 1.0902 170.926 2.6963 C 177.027 4.3023 183.2767 9.6888 183.2767 9.6888 C 183.2767 9.6888 182.0585 9.4078 181.7316 9.5385 C 181.7316 9.5385 185.4205 12.8778 185.6496 16.0899 C 185.6496 16.0899 182.113 14.2545 181.7637 14.1888 L 182.1982 15.5529 C 182.1982 15.5529 178.6972 12.5171 174.4732 10.0154 C 174.4243 9.986 174.4515 8.9365 174.1246 8.803 C 173.3653 8.4925 171.978 9.0274 170.5279 8.5534 C 169.9753 8.3723 168.4958 6.2202 167.9573 6.0719 C 167.4508 5.9328 167.4662 7.6353 167.0185 7.6011 C 164.7049 7.4263 164.0602 7.757 168.0628 11.0648 C 175.4448 16.6031 175.3303 20.4577 175.6139 21.4408 C 175.6139 21.4408 174.1567 20.4927 173.4365 21.2247 C 173.4365 21.2247 176.874 25.0591 175.9498 30.045 C 175.9498 30.045 174.7896 29.0577 174.5388 28.9375 L 175.7382 31.765 " id="Fill-17" fill="#AC612A" stroke-width="1"/>
          <path d="M 167.7897 10.9952 C 168.8249 11.4644 169.7854 12.0908 170.7075 12.7711 C 171.1776 13.1033 171.5666 13.5298 171.9753 13.9304 C 172.3762 14.3401 172.7569 14.7708 173.1139 15.2211 C 173.8292 16.1195 174.4537 17.0963 174.9391 18.143 C 175.4358 19.1848 175.7711 20.3021 175.9653 21.4411 L 176.0463 21.92 L 175.5916 21.7186 C 174.9608 21.439 174.1778 21.225 173.5889 21.4362 L 173.686 21.0132 C 173.9696 21.3334 174.2043 21.6557 174.4327 21.9955 C 174.6576 22.3353 174.863 22.6863 175.053 23.0457 C 175.2409 23.4058 175.4072 23.777 175.5629 24.1532 L 175.7711 24.7265 C 175.8465 24.916 175.8891 25.116 175.9492 25.3104 C 176.0086 25.5054 176.0603 25.7019 176.098 25.9026 C 176.1371 26.1018 176.1867 26.3004 176.2175 26.5011 C 176.2684 26.9052 176.3355 27.3086 176.3411 27.717 C 176.346 27.9204 176.3711 28.1239 176.3593 28.3274 L 176.3348 28.9384 C 176.3208 29.3461 176.2419 29.7474 176.1972 30.1515 L 176.1287 30.778 L 175.732 30.2662 C 175.586 30.0781 175.3967 29.8998 175.2165 29.7362 C 175.1208 29.6628 175.0341 29.5733 174.9364 29.5069 C 174.8434 29.4279 174.7422 29.3817 174.6423 29.3223 L 174.907 29.0063 C 175.2451 29.6971 175.5175 30.3997 175.6991 31.1374 C 175.7879 31.5045 175.8605 31.8792 175.8689 32.2589 C 175.8801 32.447 175.8675 32.6385 175.8437 32.8245 C 175.8228 33.0126 175.7669 33.193 175.7061 33.3692 C 175.748 33.186 175.7823 33.0049 175.7823 32.8196 C 175.7858 32.6357 175.7774 32.4512 175.7466 32.2694 C 175.6957 31.9058 175.5979 31.5492 175.477 31.2031 C 175.2381 30.5109 174.9028 29.8418 174.527 29.2258 L 174.1903 28.6741 L 174.7918 28.9098 C 174.9308 28.9636 175.0789 29.0147 175.2004 29.0916 C 175.3338 29.1587 175.447 29.2447 175.5608 29.3335 C 175.7788 29.5188 175.9611 29.7215 176.1469 29.9467 L 175.6817 30.0613 C 175.7222 29.6754 175.7997 29.2929 175.8123 28.9056 L 175.8354 28.3239 C 175.8472 28.1302 175.8221 27.9365 175.8179 27.7428 C 175.8137 27.3548 175.748 26.9716 175.7005 26.5864 C 175.6712 26.3948 175.6237 26.2067 175.586 26.0165 C 175.5511 25.825 175.5015 25.6376 175.4449 25.4523 C 175.3869 25.267 175.3471 25.0761 175.2751 24.895 L 175.0768 24.3476 C 174.9273 23.9882 174.7694 23.6337 174.5885 23.289 C 174.4076 22.9457 174.2106 22.6101 173.9968 22.2864 C 173.7831 21.9668 173.5463 21.6459 173.3032 21.3711 L 173.044 21.0775 L 173.4003 20.9474 C 173.832 20.7894 174.2679 20.809 174.6674 20.8782 C 175.0719 20.9537 175.4442 21.0747 175.8214 21.2474 L 175.4477 21.525 C 175.2619 20.4349 174.9419 19.3659 174.4648 18.3653 C 173.9989 17.3599 173.3961 16.4174 172.7039 15.5476 C 172.3588 15.112 171.99 14.6946 171.6002 14.2961 C 171.2195 13.8877 170.7829 13.5402 170.3945 13.1368 C 169.5954 12.353 168.7236 11.6364 167.7897 10.9952 " id="Fill-21" fill="#784E3D" stroke-width="1"/>
          <path d="M 147.7653 11.6654 C 148.1621 11.9199 148.5407 12.2024 148.906 12.5037 C 149.0827 12.661 149.2664 12.8127 149.4292 12.9875 C 149.6031 13.1511 149.7484 13.3434 149.9049 13.5266 L 149.7219 13.5406 L 149.9922 12.9113 L 150.0656 12.74 L 150.2185 12.8659 C 150.6935 13.2595 151.1036 13.6993 151.4878 14.1727 C 151.6834 14.4048 151.851 14.66 152.004 14.9222 C 152.1521 15.1872 152.3057 15.4494 152.4364 15.7235 C 152.7039 16.2681 152.9358 16.8324 153.1049 17.4169 C 153.1999 17.7064 153.2634 18.0035 153.3305 18.3 C 153.3989 18.5964 153.4311 18.8999 153.4828 19.1991 L 152.9875 19.1152 C 153.0266 19.0264 153.0706 18.9083 153.1042 18.7985 C 153.1433 18.688 153.1663 18.5698 153.1964 18.4552 C 153.2453 18.2224 153.2914 17.9867 153.306 17.7469 C 153.3361 17.5085 153.3284 17.2673 153.3284 17.0267 C 153.3242 16.7862 153.2872 16.5464 153.269 16.3066 L 153.2034 15.4361 L 153.7293 16.101 C 153.8376 16.2374 153.9117 16.3569 153.9941 16.4877 C 154.0709 16.617 154.1471 16.7464 154.2134 16.8792 C 154.3538 17.1421 154.4719 17.4134 154.583 17.6868 C 154.8023 18.2356 154.9678 18.8013 155.102 19.3718 C 155.2375 19.9431 155.3234 20.5227 155.3912 21.103 C 155.454 21.684 155.4813 22.2671 155.4931 22.8496 L 154.979 22.7811 L 155.7649 19.9843 L 155.9688 19.2571 L 156.2559 19.9493 C 156.5458 20.6471 156.7526 21.3421 156.9279 22.0574 C 157.1005 22.7706 157.2339 23.4928 157.3149 24.2214 C 157.3987 24.9499 157.4469 25.6834 157.435 26.4175 C 157.4413 26.7853 157.412 27.151 157.3959 27.518 C 157.3848 27.8851 157.3016 28.2466 157.2437 28.6081 L 156.8148 28.4857 C 157.0725 27.9872 157.3219 27.4782 157.5538 26.9657 C 157.7773 26.449 158.0274 25.9393 158.1559 25.3869 C 158.1315 25.6694 158.0763 25.9505 158.0099 26.228 C 157.938 26.5035 157.8618 26.779 157.7752 27.0496 C 157.6069 27.5943 157.4239 28.1312 157.2269 28.6682 L 156.7582 29.9477 L 156.798 28.5458 C 156.8182 27.8306 156.923 27.1272 156.9112 26.414 C 156.923 25.7023 156.8755 24.9905 156.7945 24.2829 C 156.7156 23.5753 156.5863 22.8733 156.4187 22.1818 C 156.2517 21.4938 156.0422 20.7996 155.7774 20.1626 L 156.2685 20.1269 L 155.4827 22.9237 L 155.0049 24.6241 L 154.9692 22.8545 C 154.9574 22.2881 154.9315 21.7218 154.87 21.1596 C 154.8051 20.5975 154.722 20.0381 154.5913 19.49 C 154.4628 18.9418 154.3042 18.4013 154.0968 17.8818 C 153.9913 17.6231 153.8795 17.3665 153.7496 17.1225 C 153.6246 16.8799 153.4751 16.6296 153.327 16.4359 L 153.7873 16.2311 C 153.8083 16.4905 153.8474 16.7499 153.8523 17.0114 C 153.8523 17.2729 153.86 17.5344 153.8271 17.7951 C 153.8111 18.0566 153.7615 18.316 153.707 18.5733 C 153.6735 18.7013 153.6476 18.8306 153.6029 18.9579 C 153.5624 19.0872 153.5212 19.2061 153.4576 19.3459 L 153.1112 20.1123 L 152.9624 19.262 C 152.9128 18.9775 152.8834 18.6887 152.8178 18.4076 C 152.7535 18.1259 152.6934 17.8427 152.6026 17.5679 C 152.4434 17.0121 152.2219 16.4751 151.9677 15.9563 C 151.7246 15.4291 151.3872 14.9571 151.0861 14.4621 C 150.7774 13.9741 150.4232 13.4986 150.0271 13.0868 L 150.2535 13.0414 L 149.9126 13.6357 L 149.8288 13.7818 L 149.7303 13.649 C 149.5927 13.4651 149.4662 13.2714 149.3063 13.1008 C 149.1582 12.9211 148.9926 12.7561 148.8299 12.5876 C 148.4939 12.2611 148.1404 11.9506 147.7653 11.6654 " id="Fill-23" fill="#784E3D" stroke-width="1"/>
          <path d="M 168.2809 4.7364 C 168.598 3.1583 169.6528 0.7405 171.3991 0.9594 C 172.4427 1.0894 173.9599 2.1976 174.1248 6.6836 C 174.2463 10.0019 173.4654 11.2017 170.6433 11.1934 C 169.5229 11.1899 167.3861 9.1937 168.2809 4.7364 " id="Fill-25" fill="#BB8E5D" stroke-width="1"/>
          <path d="M 182.8446 20.9733 L 180.0505 20.4489 L 177.693 16.7565 L 181.7912 17.936 C 181.7912 17.936 182.7866 20.1287 182.8446 20.9733 " id="Fill-27" fill="#FBF3ED" stroke-width="1"/>
          <path d="M 186.9703 27.2223 C 186.9703 27.2223 185.9225 26.3924 186.1411 24.7835 C 186.3255 23.4201 186.9486 22.8524 189.0512 25.0737 C 189.8035 25.868 188.8507 27.0125 188.4512 27.4915 C 188.0509 27.9704 187.6248 27.7026 186.9703 27.2223 " id="Fill-29" fill="#311A14" stroke-width="1"/>
          <path d="M 182.8446 20.9733 L 182.2117 18.264 C 182.2117 18.264 182.246 18.0074 180.7923 17.5648 C 179.2863 17.1061 177.693 16.7565 177.693 16.7565 L 180.0505 20.4489 L 182.8446 20.9733 Z " id="Stroke-31" stroke="#311A14" stroke-width="0.5" fill="none"/>
          <path d="M 181.1201 20.5254 C 181.1201 20.5254 180.3999 20.0451 180.5529 18.9306 C 180.6276 18.3838 181.2207 17.786 181.7914 17.9356 C 182.4997 18.1216 182.8448 20.9736 182.8448 20.9736 L 180.6311 20.5576 " id="Fill-33" fill="#311A14" stroke-width="1"/>
          <path d="M 177.8604 26.2025 C 177.8604 26.2025 177.8681 26.3703 177.9547 26.6332 C 177.9952 26.7647 178.0644 26.9171 178.1475 27.0828 C 178.2313 27.2513 178.3703 27.4107 178.4528 27.6198 C 178.5589 27.8169 178.6916 28.0253 178.8593 28.2267 C 179.0193 28.4329 179.2134 28.635 179.4279 28.8294 C 179.8533 29.2286 180.3632 29.574 180.913 29.9117 C 181.4578 30.2515 182.002 30.5892 182.5196 30.8808 C 183.0365 31.1702 183.5339 31.4136 183.9544 31.5156 C 184.0571 31.538 184.159 31.5513 184.2471 31.552 C 184.3372 31.5744 184.4224 31.5919 184.5048 31.5919 C 184.6704 31.5995 184.8205 31.5548 184.9428 31.4996 C 185.0615 31.4394 185.1607 31.3863 185.2208 31.3387 C 185.2844 31.2954 185.3186 31.2716 185.3186 31.2716 C 185.3081 31.2646 185.2669 31.4317 185.065 31.6625 C 184.9616 31.7743 184.8108 31.9065 184.5907 31.9932 C 184.4811 32.0372 184.3595 32.0743 184.2289 32.0834 C 184.0976 32.0855 183.9704 32.0477 183.8377 32.0267 C 183.318 31.8988 182.7983 31.6359 182.2639 31.3381 C 181.7309 31.0388 181.1819 30.6969 180.635 30.3564 C 180.0894 30.0215 179.5278 29.6432 179.0723 29.2153 C 178.8411 29.0049 178.6288 28.7839 178.45 28.5539 C 178.2648 28.3301 178.1133 28.0959 177.991 27.8687 C 177.8373 27.6568 177.8178 27.4002 177.778 27.1968 C 177.75 26.987 177.75 26.8031 177.7626 26.6542 C 177.7891 26.3549 177.8604 26.2025 177.8604 26.2025 " id="Fill-35" fill="#23110A" stroke-width="1"/>
          <g id="Group-39">
            <mask id="mask-2" fill="white">
              <use xlink:href="#path-1"/>
            </mask>
            <g id="path-1"/>
            <path d="M 174.615 11.6654 C 174.615 11.6654 174.5473 11.3312 174.4285 10.7473 C 174.3733 10.4551 174.307 10.0992 174.2301 9.6916 C 174.1917 9.4881 174.1505 9.2714 174.1072 9.0427 C 174.066 8.8134 174.0688 8.5673 174.038 8.3142 C 173.943 7.299 173.832 6.1152 173.7132 4.8462 C 173.6371 4.2295 173.5155 3.5898 173.2976 2.992 C 173.0783 2.3997 172.7437 1.8278 172.2365 1.5104 C 171.9844 1.3559 171.7015 1.2503 171.399 1.237 C 171.3319 1.2342 171.23 1.2188 171.1922 1.2237 L 170.9401 1.2461 C 170.7689 1.2636 170.669 1.3104 170.5272 1.3524 C 169.9817 1.574 169.5577 2.0453 169.2531 2.5662 C 168.9395 3.0857 168.7243 3.6499 168.5406 4.1932 C 168.4491 4.4721 168.3611 4.7427 168.2759 5.0049 C 168.1872 5.2622 168.1208 5.5013 168.0537 5.7489 C 167.9434 6.2425 167.7911 6.6928 167.6004 7.0857 C 167.5033 7.2815 167.4132 7.4703 167.2379 7.6255 C 167.1666 7.7122 166.9822 7.7436 166.9249 7.7317 C 166.8425 7.7331 166.7636 7.7345 166.6888 7.7359 C 166.3717 7.7045 166.1363 7.6395 165.9861 7.5905 C 165.8317 7.5472 165.7521 7.5143 165.7521 7.5143 C 165.7521 7.5143 165.8366 7.5297 165.9966 7.5388 C 166.1572 7.5563 166.3864 7.5577 166.6616 7.5423 C 166.7992 7.4989 167.0094 7.5087 167.0416 7.4171 C 167.1205 7.3171 167.1827 7.1367 167.2323 6.9487 C 167.3273 6.5634 167.3922 6.1026 167.548 5.6125 C 167.6137 5.3685 167.6898 5.0951 167.7806 4.8336 C 167.8658 4.5728 167.9532 4.3036 168.044 4.0261 C 168.234 3.4653 168.4582 2.8696 168.804 2.2963 C 169.1393 1.7271 169.6282 1.1538 170.3351 0.865 C 170.5077 0.8042 170.7305 0.7371 170.8933 0.7238 L 171.1447 0.7014 C 171.2754 0.6923 171.3417 0.7112 171.4437 0.7147 C 171.8181 0.7322 172.1939 0.8664 172.5166 1.0671 C 173.1726 1.4838 173.547 2.1627 173.7894 2.8102 C 174.029 3.4709 174.1526 4.1351 174.2329 4.7812 C 174.3524 6.0495 174.4628 7.2339 174.5578 8.2491 C 174.5745 8.5037 174.6234 8.7435 174.6248 8.9777 C 174.6255 9.2112 174.6255 9.4336 174.6262 9.6419 C 174.6262 10.0593 174.6269 10.4229 174.6276 10.7222 C 174.6192 11.3228 174.615 11.6654 174.615 11.6654 " id="Fill-37" fill="#784E3D" mask="url(#mask-2)" stroke-width="1"/>
            <path d="M 168.639 3.1928 C 168.639 3.1928 166.2326 10.9951 171.2536 11.2719 C 174.2699 11.4383 174.1986 6.9482 174.0855 5.7728 " id="Stroke-40" stroke="#784E3D" stroke-width="0.525" mask="url(#mask-2)" fill="none"/>
          </g>
        </g>
        <g id="Group-45">
          <path d="M 56.9524 25.8475 C 56.9524 25.8475 42.1562 44.527 24.9542 44.2655 C 6.7058 43.1286 4.3923 29.8881 4.1303 28.0961 C 3.8684 26.3047 3.6938 24.2946 2.1221 24.4694 C 0.5504 24.6442 -1.3748 30.7271 2.6851 37.5875 C 6.7456 44.4486 17.4024 49.1954 24.9989 49.1591 C 33.8611 49.0283 45.4665 46.319 56.9524 36.0493 " id="Fill-42" fill="#DCB285" stroke-width="1"/>
          <path d="M 56.9524 25.8475 C 56.9524 25.8475 42.1562 44.527 24.9542 44.2655 C 6.7058 43.1286 4.3923 29.8881 4.1303 28.0961 C 3.8684 26.3047 3.6938 24.2946 2.1221 24.4694 C 0.5504 24.6442 -1.3748 30.7271 2.6851 37.5875 C 6.7456 44.4486 17.4024 49.1954 24.9989 49.1591 C 33.8611 49.0283 45.4665 46.319 56.9524 36.0493 " id="Stroke-44" stroke="#784E3D" stroke-width="0.525" fill="none"/>
        </g>
        <g id="Group-2">
          <path d="M 90.8931 32.8448 C 90.8931 32.8448 91.2452 45.5553 74.1578 52.8737 C 56.9809 60.2299 53.8138 62.2589 52.8177 63.939 C 51.7608 65.7213 52.3727 68.4145 53.5372 72.2601 L 55.2681 77.1264 C 55.2681 77.1264 55.792 78.9911 57.655 78.5248 C 63.341 77.1026 64.8394 77.0628 65.3821 77.6508 C 66.9182 79.317 65.9312 80.8852 63.8251 85.0797 L 51.3242 85.0797 C 51.3242 85.0797 50.5824 85.2111 49.2287 81.4089 C 47.8756 77.6074 42.156 61.6569 42.156 61.6569 C 42.156 61.6569 41.6321 60.6522 42.156 59.3412 C 42.6799 58.0302 46.4667 55.0405 48.1809 52.6549 C 49.9712 50.1644 55.0705 41.8175 56.9523 28.0959 " id="Fill-46" fill="#DCB285" stroke-width="1"/>
          <path d="M 90.8935 32.8448 C 90.8935 32.8448 91.2455 45.5553 74.1581 52.8737 C 56.9813 60.2299 53.8141 62.2589 52.818 63.939 C 51.7612 65.7213 52.3731 68.4145 53.5375 72.2601 L 55.2685 77.1264 C 55.2685 77.1264 55.7924 78.9911 57.6554 78.5248 C 63.3414 77.1026 64.8397 77.0628 65.3825 77.6508 C 66.9186 79.317 66.1753 80.9635 63.8255 85.0797 L 51.3246 85.0797 C 51.3246 85.0797 50.5828 85.2111 49.229 81.4089 C 47.8759 77.6074 42.1564 61.6569 42.1564 61.6569 C 42.1564 61.6569 41.6325 60.6522 42.1564 59.3412 C 42.6803 58.0302 46.467 55.0405 48.1812 52.6549 C 49.9715 50.1644 55.0708 41.8175 56.9526 28.0959 " id="Stroke-48" stroke="#784E3D" stroke-width="0.525" fill="none"/>
          <path d="M 60.2745 80.1857 C 60.2745 80.1857 60.3981 80.0913 60.63 79.9487 C 60.7474 79.8795 60.8892 79.7928 61.0603 79.7089 C 61.2322 79.6347 61.4187 79.5005 61.6541 79.476 C 62.1123 79.3844 62.6607 79.2754 63.2928 79.383 C 63.6002 79.4404 63.9627 79.5802 64.1967 79.892 C 64.3113 80.0396 64.3944 80.2242 64.4307 80.3885 C 64.4727 80.5248 64.5034 80.6905 64.5257 80.8681 C 64.5991 81.5379 64.4266 82.1889 64.1786 82.7272 C 63.9341 83.2726 63.6198 83.7222 63.3417 84.0935 C 63.2691 84.1837 63.2027 84.2731 63.1413 84.3591 C 63.0637 84.4319 62.9785 84.4906 62.9045 84.5507 C 62.7522 84.664 62.6188 84.7626 62.5098 84.8444 C 62.2863 85.0003 62.1521 85.08 62.1521 85.08 C 62.1521 85.08 62.2262 84.9444 62.3561 84.7059 C 62.4204 84.5885 62.4979 84.4451 62.5873 84.2815 C 62.6313 84.2004 62.6712 84.1081 62.7249 84.0221 C 62.7906 83.9459 62.8577 83.8641 62.924 83.776 C 63.1881 83.4243 63.4828 83.0006 63.7015 82.5112 C 63.9257 82.0267 64.0647 81.4673 64.0053 80.9289 C 63.9907 80.8059 63.9711 80.6744 63.9243 80.5227 C 63.8957 80.3934 63.8468 80.3011 63.7818 80.213 C 63.6561 80.0403 63.4353 79.9431 63.195 79.8983 C 62.7061 79.8116 62.1892 79.8983 61.768 79.9899 C 61.5619 80.064 61.3481 80.0396 61.1686 80.0703 C 60.9856 80.0927 60.8256 80.1116 60.6936 80.127 C 60.4268 80.1647 60.2745 80.1857 60.2745 80.1857 " id="Fill-50" fill="#784E3D" stroke-width="1"/>
        </g>
        <g id="Group">
          <path d="M 136.7198 37.142 C 139.6886 42.5607 134.2309 50.6447 134.2309 50.6447 C 137.4183 55.0146 139.5572 62.0918 143.7491 71.14 C 147.7671 79.8155 151.1703 85.0804 151.1703 85.0804 L 162.74 85.0804 C 165.0102 81.1181 166.0029 79.1659 165.1877 78.1759 C 164.3725 77.1851 163.0166 77.3599 159.1747 78.292 C 155.3328 79.2247 155.1945 77.5781 154.8089 77.0103 C 154.1439 75.6833 152.0148 71.5916 150.967 60.1718 C 149.9192 48.7513 155.0995 37.9139 155.0995 37.9139 C 155.0995 37.9139 154.1272 36.4561 153.3099 35.394 C 146.2373 26.2025 134.7388 33.5258 136.7198 37.142 " id="Fill-52" fill="#DCB285" stroke-width="1"/>
          <path d="M 136.7198 37.142 C 139.4706 43.7843 134.2309 50.6447 134.2309 50.6447 C 137.4183 55.0146 139.5572 62.0918 143.7491 71.14 C 147.7671 79.8155 151.1703 85.0804 151.1703 85.0804 L 162.74 85.0804 C 165.0102 81.1181 166.0029 79.1659 165.1877 78.1759 C 164.3725 77.1851 163.0166 77.3599 159.1747 78.292 C 155.3328 79.2247 155.1945 77.5781 154.8089 77.0103 C 154.1439 75.6833 152.0148 71.5916 150.967 60.1718 C 149.9192 48.7513 155.0995 37.9139 155.0995 37.9139 " id="Stroke-54" stroke="#784E3D" stroke-width="0.525" fill="none"/>
          <path d="M 158.5489 80.5353 C 158.5489 80.5353 158.683 80.4304 158.9337 80.2738 C 159.0616 80.1983 159.2166 80.1067 159.3934 80.0018 C 159.4849 79.9522 159.5813 79.899 159.6833 79.8431 C 159.7887 79.7956 159.9103 79.7816 160.0297 79.7403 C 160.5145 79.604 161.088 79.4571 161.7439 79.4187 C 162.0708 79.4082 162.4292 79.4131 162.8008 79.5788 C 162.9852 79.6578 163.1682 79.8158 163.273 80.0137 C 163.3792 80.2102 163.4148 80.4304 163.4036 80.622 C 163.398 80.8359 163.3687 80.9632 163.3526 81.1373 C 163.3261 81.3044 163.2989 81.4778 163.2646 81.6428 C 163.192 81.9721 163.104 82.2944 162.9859 82.5958 C 162.7554 83.202 162.4222 83.7243 162.0883 84.1172 C 161.9409 84.3326 161.7355 84.4647 161.5609 84.5794 C 161.387 84.6955 161.2333 84.7884 161.1055 84.8626 C 160.8491 85.0094 160.6954 85.08 160.6954 85.08 C 160.6954 85.08 160.7988 84.9479 160.9797 84.7164 C 161.0705 84.6032 161.1781 84.464 161.2927 84.3011 C 161.4093 84.1382 161.5162 83.9424 161.6873 83.7802 C 161.9912 83.4208 162.2881 82.9573 162.4969 82.4077 C 162.6045 82.1343 162.6848 81.8393 162.7519 81.5351 C 162.7833 81.382 162.8071 81.2324 162.8322 81.0758 C 162.8469 80.9233 162.8818 80.7248 162.8797 80.6094 C 162.8895 80.3332 162.7966 80.1535 162.5766 80.0522 C 162.3537 79.9501 162.0534 79.9291 161.7684 79.9431 C 161.19 79.9759 160.6375 80.113 160.1743 80.2444 C 160.0563 80.2724 159.9508 80.3248 159.8418 80.3465 C 159.7301 80.3605 159.6239 80.3738 159.524 80.3864 C 159.3235 80.4164 159.1489 80.4423 159.0057 80.464 C 158.7151 80.5094 158.5489 80.5353 158.5489 80.5353 " id="Fill-56" fill="#784E3D" stroke-width="1"/>
        </g>
      </g>
    </g>
  </g>
</svg>