<svg version="1.1" xmlns="http://www.w3.org/2000/svg" xmlns:xlink="http://www.w3.org/1999/xlink" width="90.23229" height="250.58468" viewBox="0,0,90.23229,250.58468"><g transform="translate(-195.00446,-51.79385)"><g data-paper-data="{&quot;isPaintingLayer&quot;:true}" fill-rule="nonzero" stroke-linejoin="miter" stroke-miterlimit="10" stroke-dasharray="" stroke-dashoffset="0" style="mix-blend-mode: normal"><g data-paper-data="{&quot;origPos&quot;:null}" stroke="none" stroke-width="0"><g data-paper-data="{&quot;origPos&quot;:null}" fill="#0a0602" stroke-linecap="butt"><path d="M224.59064,57.60809c-0.09755,-2.14143 1.70886,-3.96719 4.03473,-4.07796c2.32585,-0.11076 4.29046,1.53541 4.388,3.67686c0.09755,2.14143 -1.70887,3.96719 -4.03474,4.07798c-2.32585,0.11077 -4.29046,-1.53542 -4.388,-3.67686z" data-paper-data="{&quot;origPos&quot;:null}"/><path d="M230.17502,55.14694c-0.08166,-1.75707 1.45294,-3.25631 3.42758,-3.34862c1.97467,-0.09233 3.64165,1.25719 3.72331,3.01425c0.08166,1.75707 -1.45295,3.25631 -3.4276,3.34864c-1.97467,0.09234 -3.64164,-1.25719 -3.72331,-3.01425z" data-paper-data="{&quot;origPos&quot;:null}"/><path d="M240.41165,56.09588c-0.06563,-1.41255 1.16805,-2.61783 2.75555,-2.69208c1.5875,-0.07425 2.92762,1.0107 2.99328,2.42325c0.06563,1.41255 -1.16804,2.61784 -2.75554,2.69209c-1.5875,0.07425 -2.92763,-1.0107 -2.99328,-2.42326z" data-paper-data="{&quot;origPos&quot;:null}"/><path d="M242.93972,59.68614c-0.07232,-1.55613 1.28677,-2.8839 3.03561,-2.96568c1.74885,-0.08177 3.2252,1.11342 3.2975,2.66955c0.07232,1.55613 -1.28678,2.88391 -3.03562,2.96566c-1.74885,0.08177 -3.2252,-1.11342 -3.2975,-2.66953z" data-paper-data="{&quot;origPos&quot;:null}"/><path d="M235.66103,54.68374c-0.07031,-1.51302 1.25114,-2.80405 2.95153,-2.88355c1.70044,-0.07951 3.13586,1.08261 3.20617,2.59563c0.07031,1.51304 -1.25115,2.80405 -2.95152,2.88354c-1.70044,0.0795 -3.13587,-1.08258 -3.20617,-2.59562z" data-paper-data="{&quot;origPos&quot;:null}"/><path d="M217.1563,128.74803c-0.07091,-1.52587 1.21461,-2.82562 2.87134,-2.90312c1.65671,-0.07745 3.05724,1.09671 3.12814,2.62259c0.07091,1.52587 -1.21462,2.82563 -2.87134,2.90311c-1.65671,0.07745 -3.05722,-1.09671 -3.12814,-2.62257z" data-paper-data="{&quot;origPos&quot;:null}"/><path d="M221.5951,131.43831c-0.07091,-1.52587 1.21462,-2.82565 2.87135,-2.90312c1.65671,-0.07745 3.05724,1.09671 3.12813,2.62259c0.07091,1.52587 -1.21462,2.82565 -2.87134,2.90311c-1.65671,0.07749 -3.05724,-1.09671 -3.12816,-2.62257z" data-paper-data="{&quot;origPos&quot;:null}"/><path d="M225.60583,132.13727c-0.08454,-1.81872 1.44775,-3.36794 3.42241,-3.46029c1.97467,-0.09233 3.64396,1.30718 3.72849,3.12589c0.08454,1.81872 -1.44774,3.36791 -3.42241,3.46025c-1.97467,0.09233 -3.64396,-1.30718 -3.72849,-3.12589z" data-paper-data="{&quot;origPos&quot;:null}"/><path d="M212.60312,125.17463c-0.08454,-1.81872 1.44774,-3.36792 3.42241,-3.46026c1.97467,-0.09233 3.64396,1.30717 3.72849,3.12589c0.08454,1.81872 -1.44774,3.36792 -3.42241,3.46027c-1.97467,0.09233 -3.64397,-1.30718 -3.7285,-3.12589z" data-paper-data="{&quot;origPos&quot;:null}"/><path d="M231.52046,132.91623c-0.08454,-1.81872 1.44775,-3.36793 3.42241,-3.46027c1.97467,-0.09233 3.64396,1.30717 3.72849,3.12589c0.08454,1.81872 -1.44775,3.36793 -3.42241,3.46029c-1.97467,0.09233 -3.64396,-1.30717 -3.72848,-3.1259z" data-paper-data="{&quot;origPos&quot;:null}"/><path d="M237.71352,133.62588c-0.08454,-1.81872 1.44774,-3.36793 3.42241,-3.46029c1.97467,-0.09233 3.64396,1.30718 3.72849,3.1259c0.08454,1.81872 -1.44774,3.36792 -3.42241,3.46029c-1.97467,0.09233 -3.64397,-1.30718 -3.72849,-3.1259z" data-paper-data="{&quot;origPos&quot;:null}"/><path d="M243.83737,132.6555c-0.08454,-1.81872 1.44774,-3.36792 3.42241,-3.46026c1.97467,-0.09233 3.64396,1.30717 3.72849,3.12588c0.08454,1.81872 -1.44774,3.36793 -3.42241,3.46027c-1.97467,0.09233 -3.64396,-1.30717 -3.72849,-3.12589z" data-paper-data="{&quot;origPos&quot;:null}"/><path d="M249.37845,130.61865c-0.08454,-1.81872 1.44775,-3.36793 3.42241,-3.46029c1.97467,-0.09233 3.64396,1.30718 3.72849,3.12589c0.08452,1.81872 -1.44774,3.36793 -3.42241,3.46027c-1.97467,0.09233 -3.64397,-1.30718 -3.7285,-3.12589z" data-paper-data="{&quot;origPos&quot;:null}"/><path d="M254.47238,128.11225c-0.08452,-1.81872 1.44775,-3.36792 3.42241,-3.46026c1.97467,-0.09233 3.64396,1.30717 3.72848,3.12589c0.08452,1.81872 -1.44775,3.36793 -3.42241,3.46027c-1.97467,0.09233 -3.64395,-1.30718 -3.72848,-3.1259z" data-paper-data="{&quot;origPos&quot;:null}"/><path d="M258.06063,124.85599c-0.08452,-1.81872 1.44775,-3.36791 3.42241,-3.46025c1.97467,-0.09233 3.64396,1.30717 3.72849,3.12588c0.08452,1.81872 -1.44775,3.36794 -3.42241,3.46029c-1.97467,0.09233 -3.64396,-1.30718 -3.72849,-3.1259z" data-paper-data="{&quot;origPos&quot;:null}"/><path d="M204.69816,94.02741c-0.08454,-1.81872 1.44775,-3.36793 3.42241,-3.46029c1.97467,-0.09233 3.64396,1.30718 3.72849,3.12589c0.08454,1.81872 -1.44774,3.36792 -3.42241,3.46026c-1.97467,0.09233 -3.64396,-1.30718 -3.72849,-3.12589z" data-paper-data="{&quot;origPos&quot;:null}"/><path d="M206.20373,88.21927c-0.08454,-1.81872 1.44775,-3.36792 3.42241,-3.46026c1.97467,-0.09233 3.64395,1.30716 3.72849,3.12588c0.08454,1.81872 -1.44774,3.36794 -3.42241,3.46029c-1.97467,0.09233 -3.64396,-1.30718 -3.72849,-3.1259z" data-paper-data="{&quot;origPos&quot;:null}"/><path d="M208.18505,82.33813c0.77576,-1.24438 2.49261,-1.7231 3.83469,-1.06925c1.34208,0.65384 1.80115,2.19266 1.02539,3.43702c-0.77576,1.24438 -2.4926,1.72311 -3.83468,1.06926c-1.34208,-0.65384 -1.80116,-2.19266 -1.0254,-3.43702z" data-paper-data="{&quot;origPos&quot;:null,&quot;origRot&quot;:0}"/><path d="M204.78869,103.59729c0.77576,-1.24438 2.4926,-1.7231 3.83469,-1.06925c1.34208,0.65384 1.80116,2.19265 1.0254,3.43701c-0.77576,1.24438 -2.4926,1.72311 -3.83468,1.06926c-1.34208,-0.65384 -1.80115,-2.19267 -1.02539,-3.43702z" data-paper-data="{&quot;origPos&quot;:null,&quot;origRot&quot;:0}"/><path d="M209.46706,79.48331c-0.08454,-1.81871 1.44775,-3.36793 3.42242,-3.46027c1.97467,-0.09234 3.64397,1.30717 3.72848,3.1259c0.08454,1.81873 -1.44775,3.36792 -3.42241,3.46027c-1.97467,0.09234 -3.64396,-1.30717 -3.7285,-3.12589z" data-paper-data="{&quot;origPos&quot;:null}"/><path d="M211.1655,74.29202c-0.08454,-1.81871 1.44775,-3.36793 3.42241,-3.46026c1.97467,-0.09234 3.64396,1.30717 3.72849,3.12588c0.08454,1.81871 -1.44775,3.36793 -3.42241,3.46029c-1.97467,0.09234 -3.64396,-1.30717 -3.72849,-3.12589z" data-paper-data="{&quot;origPos&quot;:null}"/><path d="M204.05346,100.09251c-0.08454,-1.81872 1.44775,-3.36794 3.42241,-3.46027c1.97467,-0.09233 3.64396,1.30718 3.72848,3.1259c0.08454,1.81872 -1.44775,3.36793 -3.42241,3.46029c-1.97467,0.09233 -3.64396,-1.30717 -3.72848,-3.1259z" data-paper-data="{&quot;origPos&quot;:null}"/><path d="M213.32124,68.85474c-0.08454,-1.81871 1.44775,-3.36791 3.42241,-3.46027c1.97467,-0.09234 3.64396,1.30716 3.72849,3.12589c0.08454,1.81871 -1.44775,3.36793 -3.42241,3.46026c-1.97467,0.09234 -3.64396,-1.30717 -3.72849,-3.1259z" data-paper-data="{&quot;origPos&quot;:null}"/><path d="M216.98979,63.89844c-0.08454,-1.81871 1.44775,-3.36791 3.42241,-3.46027c1.97467,-0.09234 3.64396,1.30717 3.72848,3.12589c0.08454,1.81871 -1.44774,3.36793 -3.42241,3.46026c-1.97467,0.09234 -3.64397,-1.30717 -3.7285,-3.12589z" data-paper-data="{&quot;origPos&quot;:null}"/><path d="M204.71117,110.16061c-0.08454,-1.81872 1.44775,-3.36794 3.42241,-3.46029c1.97467,-0.09233 3.64397,1.30718 3.7285,3.12589c0.08454,1.81872 -1.44774,3.36794 -3.42241,3.46027c-1.97467,0.09233 -3.64398,-1.30718 -3.72851,-3.12589z" data-paper-data="{&quot;origPos&quot;:null}"/><path d="M205.9871,115.70762c-0.08454,-1.81872 1.44775,-3.36792 3.42241,-3.46026c1.97467,-0.09233 3.64396,1.30717 3.72849,3.1259c0.08454,1.81872 -1.44775,3.36793 -3.42241,3.46026c-1.97467,0.09233 -3.64396,-1.30717 -3.72849,-3.12589z" data-paper-data="{&quot;origPos&quot;:null}"/><path d="M209.01194,120.93756c-0.08454,-1.81872 1.44774,-3.36792 3.42241,-3.46026c1.97467,-0.09233 3.64397,1.30717 3.7285,3.12589c0.08454,1.81872 -1.44775,3.36794 -3.42241,3.46027c-1.97467,0.09233 -3.64396,-1.30717 -3.72849,-3.1259z" data-paper-data="{&quot;origPos&quot;:null}"/><path d="M220.88857,59.71866c-0.06603,-1.42095 1.13111,-2.63131 2.67389,-2.70346c1.54279,-0.07214 2.84699,1.02129 2.91303,2.44222c0.06603,1.42095 -1.13112,2.63131 -2.67389,2.70345c-1.54279,0.07214 -2.847,-1.02129 -2.91304,-2.44222z" data-paper-data="{&quot;origPos&quot;:null}"/><path d="M265.94829,96.95204c-1.97425,-0.06153 -3.49818,-1.5869 -3.40379,-3.40702c0.09438,-1.82011 1.77133,-3.24571 3.74559,-3.18418c1.97425,0.06153 3.49818,1.58691 3.40379,3.40702c-0.09438,1.82011 -1.77134,3.24571 -3.74559,3.18418z" data-paper-data="{&quot;origPos&quot;:null,&quot;index&quot;:null,&quot;origRot&quot;:0}"/><path d="M266.62881,101.95458c-1.97425,-0.06153 -3.49818,-1.5869 -3.40379,-3.40702c0.09438,-1.82011 1.77134,-3.24571 3.74559,-3.18418c1.97425,0.06153 3.49818,1.58691 3.40379,3.40702c-0.09438,1.82011 -1.77134,3.24571 -3.74559,3.18418z" data-paper-data="{&quot;origPos&quot;:null,&quot;index&quot;:null,&quot;origRot&quot;:0}"/><path d="M266.71933,106.6913c-1.97425,-0.06153 -3.49818,-1.58691 -3.40378,-3.40703c0.09438,-1.82011 1.77134,-3.24571 3.74559,-3.18418c1.97425,0.06153 3.49818,1.58691 3.40379,3.40702c-0.09438,1.82011 -1.77134,3.24571 -3.74559,3.18418z" data-paper-data="{&quot;origPos&quot;:null,&quot;index&quot;:null,&quot;origRot&quot;:0}"/><path d="M267.41047,112.2511c-1.97425,-0.06153 -3.49818,-1.5869 -3.40378,-3.40702c0.09438,-1.82011 1.77134,-3.24571 3.74559,-3.18418c1.97425,0.06153 3.49817,1.58691 3.40378,3.40702c-0.09438,1.82011 -1.77132,3.24571 -3.74559,3.18418z" data-paper-data="{&quot;origPos&quot;:null,&quot;index&quot;:null,&quot;origRot&quot;:0}"/><path d="M266.93216,117.83651c-1.97425,-0.06153 -3.49818,-1.58689 -3.40379,-3.40702c0.09438,-1.82011 1.77134,-3.24571 3.74559,-3.18418c1.97425,0.06153 3.49818,1.58691 3.40379,3.40702c-0.09438,1.82011 -1.77134,3.24571 -3.74559,3.18418z" data-paper-data="{&quot;origPos&quot;:null,&quot;index&quot;:null,&quot;origRot&quot;:0}"/><path d="M264.69431,123.18173c-1.97425,-0.06153 -3.49818,-1.58691 -3.40379,-3.40702c0.09438,-1.82011 1.77133,-3.24571 3.74559,-3.18418c1.97425,0.06153 3.49818,1.58691 3.40379,3.40703c-0.09438,1.82011 -1.77134,3.24571 -3.74559,3.18418z" data-paper-data="{&quot;origPos&quot;:null,&quot;index&quot;:null,&quot;origRot&quot;:0}"/><path d="M265.02107,91.68077c-1.64519,-0.05128 -2.91514,-1.32244 -2.83649,-2.8392c0.07865,-1.51675 1.47611,-2.70475 3.12131,-2.65347c1.64519,0.05128 2.91516,1.32243 2.8365,2.83918c-0.07865,1.51675 -1.47612,2.70477 -3.12131,2.65348z" data-paper-data="{&quot;origPos&quot;:null,&quot;index&quot;:null,&quot;origRot&quot;:0}"/><path d="M263.93396,87.51501c-1.97425,-0.06153 -3.49818,-1.58691 -3.40379,-3.40701c0.09438,-1.82011 1.77134,-3.24573 3.7456,-3.18418c1.97425,0.06155 3.49818,1.58691 3.4038,3.40702c-0.09438,1.82011 -1.77134,3.24571 -3.7456,3.18418z" data-paper-data="{&quot;origPos&quot;:null,&quot;index&quot;:null,&quot;origRot&quot;:0}"/><path d="M262.08572,82.3953c-1.97425,-0.06153 -3.49818,-1.58691 -3.40379,-3.40702c0.09438,-1.82011 1.77134,-3.24571 3.7456,-3.18418c1.97425,0.06155 3.49818,1.58692 3.40379,3.40703c-0.09438,1.82011 -1.77134,3.24571 -3.74559,3.18418z" data-paper-data="{&quot;origPos&quot;:null,&quot;index&quot;:null,&quot;origRot&quot;:0}"/><path d="M254.83091,64.65654c-1.42615,0.06669 -2.63174,-0.94405 -2.6928,-2.25758c-0.06106,-1.31352 1.04558,-2.43241 2.47173,-2.49908c1.42615,-0.06669 2.63174,0.94408 2.6928,2.25759c0.06106,1.31352 -1.04558,2.4324 -2.47173,2.49907z" data-paper-data="{&quot;origPos&quot;:null,&quot;index&quot;:null}"/><path d="M260.54299,77.26211c-1.9746,0.09636 -3.64613,-1.42047 -3.7335,-3.38787c-0.08736,-1.96742 1.44254,-3.64041 3.41713,-3.73676c1.9746,-0.09636 3.64613,1.42046 3.73349,3.38786c0.08736,1.96742 -1.44254,3.64042 -3.41712,3.73676z" data-paper-data="{&quot;origPos&quot;:null,&quot;index&quot;:null}"/><path d="M259.01077,72.17921c-1.89121,0.08843 -3.48995,-1.25192 -3.57089,-2.99379c-0.08097,-1.74184 1.38654,-3.22559 3.27774,-3.31401c1.89121,-0.08843 3.48997,1.25193 3.57091,2.99378c0.08097,1.74184 -1.38655,3.22558 -3.27776,3.31402z" data-paper-data="{&quot;origPos&quot;:null,&quot;index&quot;:null}"/><path d="M250.99067,64.37636c-1.37514,0.06453 -2.53771,-0.91639 -2.59673,-2.19092c-0.05901,-1.27453 1.0079,-2.36005 2.383,-2.42455c1.37514,-0.06453 2.53771,0.91639 2.59674,2.19092c0.05901,1.27452 -1.00792,2.36004 -2.38302,2.42456z" data-paper-data="{&quot;origPos&quot;:null,&quot;index&quot;:null}"/><path d="M257.18924,67.86405c-1.71202,0.08239 -3.16064,-1.19929 -3.23557,-2.86275c-0.07495,-1.66344 1.25216,-3.07873 2.9642,-3.16113c1.71202,-0.08239 3.16064,1.1993 3.23558,2.86275c0.07495,1.66344 -1.25219,3.07873 -2.96421,3.16113z" data-paper-data="{&quot;origPos&quot;:null,&quot;index&quot;:null}"/></g><path d="M268.04269,112.17398c-0.88651,14.45361 -13.03668,19.50306 -26.5167,21.31247c-25.21185,2.63171 -31.76238,-15.07199 -32.67634,-21.37721c-2.71917,-18.5915 1.99272,-29.60382 3.88751,-35.89363c3.18627,-10.57683 13.86843,-21.26675 22.66393,-21.84168c7.50732,-0.49073 10.88248,0.65699 13.67536,7.22913c11.51163,-0.37332 20.40798,28.84057 18.96624,50.57094z" data-paper-data="{&quot;origPos&quot;:null}" fill="#000000" stroke-linecap="round"/></g><path d="M269.09512,227.32915c-0.55942,5.73486 -2.63224,12.31119 -9.20985,13.28276c-6.5776,0.97158 -11.4923,-3.29278 -13.63825,-10.52938c-1.51507,-8.50233 -6.32056,-28.81309 -6.85057,-36.7454c-1.12191,-16.79124 -0.85287,-34.02967 -0.85287,-34.02967c0,0 18.67234,-0.48082 18.81631,-0.40834c2.27327,1.11079 9.5329,15.59078 10.97355,31.18281c1.02846,11.13121 1.26188,27.34535 0.76168,37.24722z" data-paper-data="{&quot;origPos&quot;:null,&quot;origRot&quot;:0,&quot;index&quot;:null}" fill="#433d3d" stroke="none" stroke-width="0" stroke-linecap="butt"/><path d="M212.02309,190.28716c1.22883,-15.61104 8.34744,-30.19351 10.62602,-31.33672c0.14427,-0.07454 19.27464,0.1389 19.27464,0.1389c0,0 0.26386,17.23271 -0.62593,34.03828c-0.42034,7.93907 -4.99009,28.89956 -6.39651,37.42271c-2.06154,7.26658 -6.96686,11.01796 -13.62034,10.14067c-6.65349,-0.87731 -8.84084,-7.42327 -9.48841,-13.14953c-0.648,-9.89368 -0.64675,-26.10951 0.23051,-37.2543z" data-paper-data="{&quot;origPos&quot;:null,&quot;origRot&quot;:0,&quot;index&quot;:null}" fill="#433d3d" stroke="none" stroke-width="0" stroke-linecap="butt"/><g data-paper-data="{&quot;origPos&quot;:null}" stroke="none" stroke-width="0"><g data-paper-data="{&quot;origPos&quot;:null}" stroke-linecap="butt"><path d="M252.31644,108.74677c-4.45696,8.44591 -19.72461,8.81269 -25.98206,0.46271c2.59135,-0.99244 6.21883,-2.43497 6.21883,-2.43497l0.60165,-8.42935l12.2602,-0.19245l0.72577,8.08694c0,0 5.53649,2.17059 6.17561,2.50712z" data-paper-data="{&quot;origPos&quot;:null}" fill="#755135"/><path d="M233.24159,98.2675l12.2602,-0.19245l0.65566,7.99892c-3.32528,0.04156 -10.93048,-0.28994 -13.36111,-2.34811z" data-paper-data="{&quot;origPos&quot;:null}" fill="#4c392b"/></g><path d="M239.64608,103.50224c-9.92382,0.08636 -14.7869,-8.0573 -16.42189,-16.68998c-2.52986,-0.97771 -4.03619,-5.97965 -3.09184,-7.75574c1.04304,-2.16312 2.41536,-0.32361 2.38007,-0.85556c-0.26275,-7.92381 2.2035,-18.99473 17.99755,-19.16116c12.89449,0.54225 15.36438,13.11535 15.26232,18.89487c0,0 1.18782,-1.03615 2.42226,-0.005c1.32041,2.15758 -0.89202,7.23622 -3.13315,8.11573c-1.13393,9.20753 -5.13496,17.49008 -15.41531,17.45687z" data-paper-data="{&quot;origPos&quot;:null}" fill="#755135" stroke-linecap="round"/></g><path d="M226.99165,74.83965c2.55655,-1.51533 6.09568,-1.16004 8.16125,0.25706" data-paper-data="{&quot;origPos&quot;:null,&quot;origRot&quot;:0}" fill="none" stroke="#000000" stroke-width="2" stroke-linecap="round"/><path d="M243.37374,75.32434c1.88475,-1.65 5.35763,-2.41866 8.07452,-1.21423" data-paper-data="{&quot;origPos&quot;:null,&quot;origRot&quot;:0,&quot;index&quot;:null}" fill="none" stroke="#000000" stroke-width="2" stroke-linecap="round"/><g data-paper-data="{&quot;origPos&quot;:null}" fill="none" stroke="#4c392b" stroke-width="1.5" stroke-linecap="round"><path d="M236.68614,86.98438c0,0 1.73567,-0.42459 2.0996,0.45925" data-paper-data="{&quot;origPos&quot;:null}"/><path d="M240.88099,87.47821c0.23096,-0.8665 1.71467,-0.64121 1.71467,-0.64121" data-paper-data="{&quot;origPos&quot;:null}"/></g><g data-paper-data="{&quot;origPos&quot;:null}"><path d="M230.06624,81.89275c-2.35324,-0.34819 -3.96212,-2.13907 -3.65402,-3.3442c0.3081,-1.20514 2.4165,-1.36818 4.76974,-1.02c2.35324,0.34819 4.06028,1.7035 3.75219,2.90863c-0.30809,1.20513 -2.51468,1.80376 -4.86791,1.45557z" data-paper-data="{&quot;origPos&quot;:null,&quot;origRot&quot;:0}" fill="#ffffff" stroke="none" stroke-width="0" stroke-linecap="butt"/><path d="M229.70957,80.13288c-0.11492,-1.656 0.87184,-2.38684 2.41005,-2.34998c3.1055,0.52815 4.0457,3.37332 0.95717,4.08395c-1.70446,0.38689 -3.25433,0.18843 -3.36721,-1.73397z" data-paper-data="{&quot;origPos&quot;:null,&quot;origRot&quot;:0}" fill="#000000" stroke="none" stroke-width="1" stroke-linecap="butt"/><path d="M226.42523,78.07801c2.7172,-1.03725 6.4787,-0.37411 8.36303,1.0481" data-paper-data="{&quot;origPos&quot;:null,&quot;origRot&quot;:0}" fill="none" stroke="#000000" stroke-width="1.5" stroke-linecap="round"/></g><g data-paper-data="{&quot;origPos&quot;:null}"><path d="M248.69122,81.72092c-2.32009,0.49559 -4.52937,0.00437 -4.93456,-1.09717c-0.40519,-1.10153 1.14713,-2.39627 3.46722,-2.89187c2.32009,-0.49559 4.6909,-0.37524 5.09609,0.7263c0.40519,1.10154 -1.30866,2.76716 -3.62875,3.26274z" data-paper-data="{&quot;origPos&quot;:null,&quot;origRot&quot;:0}" fill="#ffffff" stroke="none" stroke-width="0" stroke-linecap="butt"/><path d="M249.42331,77.2905c3.17064,-0.11122 3.95859,1.93139 1.57541,3.54962c-1.3182,0.88866 -2.81546,0.93496 -3.51864,-0.6735c-1.08405,-2.47966 0.42755,-2.7756 1.94324,-2.87613z" data-paper-data="{&quot;origPos&quot;:null,&quot;origRot&quot;:0}" fill="#000000" stroke="none" stroke-width="1" stroke-linecap="butt"/><path d="M243.55657,79.34222c2.12091,-1.81018 6.0207,-2.16954 8.36364,-1.44672" data-paper-data="{&quot;origPos&quot;:null,&quot;origRot&quot;:0}" fill="none" stroke="#000000" stroke-width="1.5" stroke-linecap="round"/></g><path d="M256.42845,87.07274c-0.06148,0.57559 -0.54996,1.03424 -1.09109,1.02437c-0.54111,-0.00986 -0.92995,-0.48448 -0.86846,-1.06007c0.06148,-0.57559 0.54996,-1.03423 1.09109,-1.02436c0.54111,0.00986 0.92995,0.48448 0.86846,1.06007z" data-paper-data="{&quot;origPos&quot;:null,&quot;origRot&quot;:0}" fill="#d9b8a3" stroke="#000000" stroke-width="0" stroke-linecap="butt"/><path d="M221.63557,87.19775c-0.06149,-0.57559 0.32735,-1.05021 0.86846,-1.06007c0.54113,-0.00987 1.02961,0.44877 1.09109,1.02436c0.06149,0.57559 -0.32735,1.05021 -0.86846,1.06007c-0.54113,0.00987 -1.02961,-0.44878 -1.09109,-1.02437z" data-paper-data="{&quot;origPos&quot;:null,&quot;origRot&quot;:0,&quot;index&quot;:null}" fill="#d9b8a3" stroke="#000000" stroke-width="0" stroke-linecap="butt"/><g data-paper-data="{&quot;origPos&quot;:null}"><path d="M237.51543,91.49612c0.75258,0.0871 1.45731,0.39456 2.01515,0.87916c0.55962,-0.48578 1.26686,-0.79334 2.02176,-0.87916c1.04926,0.14996 2.06908,0.44624 3.02603,0.87916c0,0 -0.1733,2.73039 -2.18845,3.60956c-1.61142,0.65313 -3.34971,0.73978 -4.96114,0.08665c-1.26217,-0.58367 -2.22957,-1.67583 -2.94599,-2.81705c0,0 2.02175,-1.75832 3.03264,-1.75832z" data-paper-data="{&quot;origPos&quot;:null}" fill="#4c392b" stroke="none" stroke-width="1" stroke-linecap="butt"/><path d="M244.98213,92.70265c-2.87915,1.48691 -7.66666,1.96121 -10.84189,0.15319" data-paper-data="{&quot;origPos&quot;:null,&quot;origRot&quot;:0,&quot;index&quot;:null}" fill="none" stroke="#000000" stroke-width="1.5" stroke-linecap="round"/></g><g data-paper-data="{&quot;origPos&quot;:null}" stroke="none" stroke-width="0" stroke-linecap="butt"><path d="M257.31887,110.13994c2.64099,0.47914 4.88863,0.27115 7.7187,3.30199c7.46986,8.0007 7.57751,19.15063 9.24472,29.03702c0.33869,2.01961 1.96855,6.05753 2.40777,7.85947c-0.01644,2.20188 -0.4019,4.85878 -3.52707,5.72782c-3.08654,0.85829 -5.43289,-1.3263 -6.49729,-3.86272c-1.01067,-3.6675 -5.14977,-12.55119 -6.54822,-16.97809" data-paper-data="{&quot;origPos&quot;:null,&quot;origRot&quot;:0}" fill="#755135"/><path d="M255.08351,109.6626c3.35227,0.44387 6.18273,0.15595 9.86707,3.35297c7.37528,6.40047 9.78468,15.0055 11.59445,23.43145c-2.42494,1.043 -4.75375,2.11606 -6.91559,2.8879c-2.4632,0.87944 -5.11087,1.69134 -7.68071,2.51815c-0.92173,-1.82168 -1.78253,-3.59606 -2.41395,-5.15072" data-paper-data="{&quot;origPos&quot;:null,&quot;index&quot;:null}" fill="#d89669"/></g><g stroke="none" stroke-width="0" stroke-linecap="butt"><path d="M220.1237,134.96432c-1.39844,4.4269 -5.53755,13.31057 -6.54822,16.97809c-1.06439,2.53642 -3.41075,4.72099 -6.49729,3.86271c-3.12518,-0.86903 -3.51063,-3.52594 -3.52707,-5.72782c0.43922,-1.80194 2.06908,-5.83985 2.40777,-7.85947c1.66721,-9.88639 1.77485,-21.03631 9.24472,-29.03702c2.83006,-3.03084 5.0777,-2.82284 7.71869,-3.30199" data-paper-data="{&quot;origPos&quot;:null,&quot;origRot&quot;:0,&quot;index&quot;:null}" fill="#755135"/><path d="M220.5289,136.47247c-0.63142,1.55466 -1.49222,3.32904 -2.41395,5.15072c-2.56983,-0.8268 -5.21752,-1.63871 -7.68071,-2.51815c-2.16184,-0.77185 -4.49064,-1.8449 -6.91559,-2.8879c1.80976,-8.42595 4.21916,-17.03097 11.59445,-23.43145c3.68433,-3.19703 6.5148,-2.90911 9.86707,-3.35297" data-paper-data="{&quot;origPos&quot;:null,&quot;index&quot;:null}" fill="#d89669"/></g><path d="M219.06182,110.28421c0,0 5.00499,-1.26439 9.52529,-2.25725c2.58126,6.28911 18.9259,6.63563 21.89139,-0.09523c1.3576,0.32211 8.00383,1.76241 10.22903,2.26487c1.00127,0.22089 -0.00201,47.42584 -0.00201,47.42584c0,0 -7.50776,6.26777 -19.95371,6.34414c-11.73639,0.07201 -20.75638,-5.35005 -20.75638,-5.35005z" data-paper-data="{&quot;origPos&quot;:null,&quot;origRot&quot;:0}" fill="#fdc7a2" stroke="none" stroke-width="0" stroke-linecap="butt"/><g data-paper-data="{&quot;origPos&quot;:null}" fill="#0a0602" stroke="none" stroke-width="0" stroke-linecap="butt"><path d="M246.26278,59.2105c0,0 -7.75253,4.94971 -11.45814,7.76509c-6.09188,4.62838 -16.05184,18.34826 -16.05184,18.34826c0,0 -2.58176,-20.63576 12.38984,-27.30477c6.96924,-3.17135 15.12013,1.19144 15.12013,1.19144z" data-paper-data="{&quot;origPos&quot;:null}"/><path d="M230.01685,65.6209c0.48019,-2.51581 2.93779,-4.16109 5.48925,-3.67485c2.55145,0.48623 4.23052,2.91985 3.75035,5.43567c-0.48019,2.51581 -2.93779,4.16108 -5.48923,3.67485c-2.55145,-0.48623 -4.23054,-2.91984 -3.75036,-5.43566z" data-paper-data="{&quot;origPos&quot;:null}"/><path d="M226.91045,70.71152c0.41637,-2.18143 2.54735,-3.60803 4.75968,-3.18644c2.21234,0.42162 3.66825,2.53179 3.2519,4.71322c-0.41637,2.18143 -2.54735,3.60803 -4.75968,3.18644c-2.21234,-0.42162 -3.66826,-2.53178 -3.2519,-4.71322z" data-paper-data="{&quot;origPos&quot;:null}"/><path d="M223.19979,73.7232c0.36727,-1.92422 2.24696,-3.18262 4.19845,-2.81071c1.95148,0.37189 3.23571,2.23326 2.86844,4.15746c-0.36728,1.92422 -2.24697,3.18262 -4.19844,2.81072c-1.95148,-0.37189 -3.23572,-2.23326 -2.86844,-4.15746z" data-paper-data="{&quot;origPos&quot;:null}"/><path d="M221.04962,77.81288c0.79232,-1.4626 2.63722,-1.99726 4.12067,-1.19418c1.48347,0.80308 2.04375,2.63978 1.25142,4.10239c-0.79232,1.46259 -2.63722,1.99725 -4.12067,1.19417c-1.48347,-0.80309 -2.04377,-2.63977 -1.25143,-4.10237z" data-paper-data="{&quot;origPos&quot;:null,&quot;origRot&quot;:0}"/><path d="M216.40289,82.95959c0.39244,-2.05605 2.40092,-3.40066 4.48609,-3.00329c2.08517,0.39739 3.45739,2.38627 3.06497,4.44234c-0.39244,2.05605 -2.40092,3.40066 -4.48609,3.00328c-2.08517,-0.39739 -3.4574,-2.38626 -3.06498,-4.44231z" data-paper-data="{&quot;origPos&quot;:null}"/><path d="M236.44808,62.14436c0.39893,-2.09005 2.44064,-3.45691 4.56029,-3.05296c2.11966,0.40396 3.51459,2.42575 3.11567,4.51578c-0.39893,2.09005 -2.44063,3.4569 -4.56027,3.05295c-2.11966,-0.40396 -3.51459,-2.42574 -3.11568,-4.51577z" data-paper-data="{&quot;origPos&quot;:null}"/><path d="M242.78655,59.44292c0.2939,-1.53984 1.79815,-2.54688 3.3598,-2.24926c1.56167,0.29762 2.58938,1.78716 2.29548,3.32699c-0.2939,1.53984 -1.79815,2.54687 -3.35979,2.24927c-1.56167,-0.29762 -2.58938,-1.78716 -2.29548,-3.32699z" data-paper-data="{&quot;origPos&quot;:null}"/><path d="M216.3141,77.62104c0,-2.07107 1.67893,-3.75 3.75,-3.75c2.07107,0 3.75,1.67893 3.75,3.75c0,2.07107 -1.67893,3.75 -3.75,3.75c-2.07107,0 -3.75,-1.67893 -3.75,-3.75z" data-paper-data="{&quot;origPos&quot;:null}"/><path d="M217.8141,71.12104c0,-2.07107 1.67893,-3.75 3.75,-3.75c2.07107,0 3.75,1.67893 3.75,3.75c0,2.07107 -1.67893,3.75 -3.75,3.75c-2.07107,0 -3.75,-1.67893 -3.75,-3.75z" data-paper-data="{&quot;origPos&quot;:null}"/><path d="M220.3141,65.37104c0,-2.07107 1.67893,-3.75 3.75,-3.75c2.07107,0 3.75,1.67893 3.75,3.75c0,2.07107 -1.67893,3.75 -3.75,3.75c-2.07107,0 -3.75,-1.67893 -3.75,-3.75z" data-paper-data="{&quot;origPos&quot;:null}"/><path d="M224.3141,61.12105c0,-2.07107 1.67893,-3.75 3.75,-3.75c2.07107,0 3.75,1.67893 3.75,3.75c0,2.07107 -1.67893,3.75 -3.75,3.75c-2.07107,0 -3.75,-1.67893 -3.75,-3.75z" data-paper-data="{&quot;origPos&quot;:null}"/><path d="M229.8141,58.62105c0,-2.07107 1.67893,-3.75 3.75,-3.75c2.07107,0 3.75,1.67893 3.75,3.75c0,2.07107 -1.67893,3.75 -3.75,3.75c-2.07107,0 -3.75,-1.67893 -3.75,-3.75z" data-paper-data="{&quot;origPos&quot;:null}"/><path d="M239.8141,57.62105c0,-1.51878 1.23122,-2.75 2.75,-2.75c1.51878,0 2.75,1.23122 2.75,2.75c0,1.51878 -1.23122,2.75 -2.75,2.75c-1.51878,0 -2.75,-1.23122 -2.75,-2.75z" data-paper-data="{&quot;origPos&quot;:null}"/><path d="M235.3141,57.12105c0,-1.51878 1.23122,-2.75 2.75,-2.75c1.51878,0 2.75,1.23122 2.75,2.75c0,1.51878 -1.23122,2.75 -2.75,2.75c-1.51878,0 -2.75,-1.23122 -2.75,-2.75z" data-paper-data="{&quot;origPos&quot;:null}"/></g><g data-paper-data="{&quot;origPos&quot;:null}"><g data-paper-data="{&quot;origPos&quot;:null,&quot;origRot&quot;:0,&quot;index&quot;:null}" stroke-linecap="round"><path d="M231.36905,291.39025c2.94508,2.20059 11.98968,1.17009 7.99814,6.52376c-2.72827,3.65928 -7.50982,2.93002 -12.16155,2.28462c-3.93013,-0.54529 -4.29201,-4.61313 -8.25968,-4.64288c-4.20882,-0.03154 -8.19511,0.57108 -10.5937,-2.15857c-0.85262,-0.9703 3.01189,-10.32502 3.01189,-10.32502c0,0 4.24289,2.03831 6.45504,2.09305c2.73495,0.06767 7.04544,-1.28124 7.04544,-1.28124c0,0 3.55934,5.30569 6.50442,7.50628z" data-paper-data="{&quot;origPos&quot;:null}" fill="#ffffff" stroke="none" stroke-width="0"/><path d="M209.77323,296.75765c-2.00891,-1.06096 -1.91001,-1.78921 -1.57702,-3.5276c3.03556,1.89639 2.46643,2.39328 10.56117,1.85593c2.89724,0.28927 4.5324,3.43192 8.15304,4.584c9.6243,1.95982 12.12497,-1.72002 13.49514,-3.18021c-0.032,1.12712 -0.31029,2.29998 -0.81272,2.97387c-2.72827,3.65928 -7.37411,3.08309 -12.02584,2.43769c-6.62145,-1.57659 -5.17571,-4.37643 -9.14339,-4.40617c-4.20882,-0.03154 -5.89817,0.716 -8.65039,-0.73753z" data-paper-data="{&quot;origPos&quot;:null}" fill="#a5a5a5" stroke="none" stroke-width="0"/><path d="M228.50354,293.16342l2.36168,-2.09378" data-paper-data="{&quot;origPos&quot;:null}" fill="none" stroke="#000000" stroke-width="1.5"/><path d="M226.64237,291.06413l2.23793,-2.10123" data-paper-data="{&quot;origPos&quot;:null}" fill="none" stroke="#000000" stroke-width="1.5"/><path d="M227.01915,286.86362l-2.35424,1.97002" data-paper-data="{&quot;origPos&quot;:null}" fill="none" stroke="#000000" stroke-width="1.5"/></g><path d="M211.38195,233.19457c1.07887,-11.88554 7.1744,-14.68908 13.85429,-14.1286c6.67988,0.56049 10.19397,6.74296 9.15401,15.88429c-0.49881,11.45869 -5.95661,49.51279 -5.95661,49.51279c0,0 -6.08841,2.52147 -9.71446,2.1923c-3.78872,-0.34396 -9.22231,-3.05146 -9.22369,-3.0521c0,0 0.89951,-40.57297 1.88647,-50.40866z" data-paper-data="{&quot;origPos&quot;:null,&quot;origRot&quot;:0,&quot;index&quot;:null}" fill="#433d3d" stroke="none" stroke-width="0" stroke-linecap="butt"/></g><g data-paper-data="{&quot;origPos&quot;:null}"><g data-paper-data="{&quot;origPos&quot;:null,&quot;origRot&quot;:0}" stroke-linecap="round"><path d="M274.25037,291.05879c3.01588,2.10251 12.02167,0.77505 8.2084,6.25711c-2.60642,3.74706 -7.40936,3.17549 -12.07979,2.68346c-3.94594,-0.4157 -4.44145,-4.46944 -8.40794,-4.36865c-4.20759,0.10693 -8.17187,0.84036 -10.65896,-1.80892c-0.88408,-0.94173 2.67061,-10.41852 2.67061,-10.41852c0,0 3.64671,1.6945 7.45034,1.79782c1.26788,0.03444 6.0695,-1.43058 6.0695,-1.43058c0,0 3.73196,5.18576 6.74784,7.28828z" data-paper-data="{&quot;origPos&quot;:null,&quot;index&quot;:null}" fill="#ffffff" stroke="none" stroke-width="0"/><path d="M251.15059,293.6599c3.09631,1.7955 2.54382,2.31085 10.61651,1.5075c2.90519,0.1938 4.64283,3.28097 8.29941,4.31332c9.68357,1.64216 12.06182,-2.11795 13.38323,-3.62242c0.00511,1.12758 -0.23446,2.30896 -0.71446,2.99901c-2.60642,3.74706 -7.26869,3.324 -11.93914,2.83198c-6.66973,-1.35792 -5.31687,-4.2038 -9.28337,-4.10301c-4.20759,0.10693 -5.87146,0.90965 -8.66997,-0.45255c-2.04272,-0.99431 -1.96783,-1.7254 -1.69222,-3.47382z" data-paper-data="{&quot;origPos&quot;:null,&quot;index&quot;:null}" fill="#a5a5a5" stroke="none" stroke-width="0"/><path d="M271.4447,292.92536l2.29152,-2.17032" data-paper-data="{&quot;origPos&quot;:null,&quot;index&quot;:null}" fill="none" stroke="#000000" stroke-width="1.5"/><path d="M271.68311,288.71483l-2.16759,2.17369" data-paper-data="{&quot;origPos&quot;:null,&quot;index&quot;:null}" fill="none" stroke="#000000" stroke-width="1.5"/><path d="M267.46582,288.72426l2.28817,-2.0464" data-paper-data="{&quot;origPos&quot;:null,&quot;index&quot;:null}" fill="none" stroke="#000000" stroke-width="1.5"/></g><path d="M270.69311,282.98455c-0.00142,0.00063 -5.85409,3.74723 -9.69032,4.01334c-3.6715,0.25468 -8.62067,-2.36781 -8.62067,-2.36781c0,0 -5.64023,-38.17025 -5.92251,-49.63694c-0.87414,-9.1609 2.502,-15.28189 9.26475,-15.70513c6.76275,-0.42324 12.86968,2.50489 13.73003,14.41024c0.80713,9.85401 1.23873,49.2863 1.23873,49.2863z" data-paper-data="{&quot;origPos&quot;:null,&quot;origRot&quot;:0,&quot;index&quot;:null}" fill="#433d3d" stroke="none" stroke-width="0" stroke-linecap="butt"/></g><path d="M283.9944,181.45371c0,0 1.1548,3.12107 1.23429,4.38334c-0.03457,0.4039 0.24753,3.59327 -0.86986,3.42372c-0.99468,-0.03875 -0.64439,-1.36889 -0.9256,-2.51404c-0.27507,-1.12008 -0.99506,-3.37187 -0.99506,-3.37187c0,0 0.48682,2.71693 0.56309,4.33479c-0.15315,1.60439 0.3029,4.81796 -1.09387,4.66405c-1.17055,-0.36606 -0.72714,-3.02692 -0.85684,-3.62599c-0.29586,-1.36654 -0.50882,-3.58446 -0.9994,-3.75597c0.19904,1.38061 0.38452,3.09349 0.42148,4.48048c0.03099,1.16348 -0.08293,3.61878 -0.6382,4.64165c-0.44221,0.81461 -1.35391,0.93713 -1.65137,0.05926c-0.23151,-0.512 0.12737,-3.17734 0.08022,-3.73727c-0.14147,-1.67981 -0.16994,-3.49496 -0.71238,-4.39069c0.09313,1.49931 0.13002,3.51191 -0.06289,5.68831c-0.17971,2.02746 -0.86612,4.94654 -1.65784,4.68196c-2.12149,-0.31088 -0.38601,-3.47895 -0.58061,-5.95797c-0.21817,-2.77926 -0.67887,-3.46798 -1.51433,-6.08401c-0.47957,1.38983 0.16423,3.14835 -0.75314,4.45506c-1.19555,1.35297 -1.76782,0.08407 -1.77068,-0.46003c-0.00387,-1.91575 -0.93025,-5.31559 -0.39923,-7.17215c0.44568,-1.92103 1.06361,-4.39454 1.67824,-6.46434c-0.20352,-2.1347 -4.58792,-14.64013 -5.43017,-21.8757c-0.00583,-0.0505 0.45051,-4.68686 3.84006,-5.34509c3.37662,-0.91061 5.73716,2.32657 6.06748,3.61791c2.61398,5.90807 2.61581,22.04756 2.61581,22.04756z" data-paper-data="{&quot;origPos&quot;:null,&quot;origRot&quot;:0,&quot;index&quot;:null}" fill="#755135" stroke="none" stroke-width="0" stroke-linecap="butt"/><path d="M200.6576,172.91559c0,0 0.00183,-16.1395 2.61581,-22.04756c0.33033,-1.29133 2.69086,-4.52851 6.06748,-3.61791c3.38955,0.65822 3.84589,5.29458 3.84005,5.34509c-0.84225,7.23557 -5.22665,19.741 -5.43017,21.8757c0.61463,2.0698 1.23255,4.5433 1.67824,6.46434c0.53103,1.85655 -0.39538,5.25639 -0.39923,7.17215c-0.00286,0.5441 -0.57513,1.81301 -1.77067,0.46003c-0.91737,-1.30671 -0.27357,-3.06522 -0.75314,-4.45506c-0.83547,2.61604 -1.29617,3.30475 -1.51433,6.084c-0.1946,2.47902 1.54088,5.6471 -0.58061,5.95797c-0.7917,0.26458 -1.47814,-2.6545 -1.65784,-4.68196c-0.19291,-2.1764 -0.15602,-4.18899 -0.06289,-5.68831c-0.54245,0.89573 -0.57091,2.71087 -0.71237,4.39069c-0.04716,0.55994 0.31174,3.22527 0.08022,3.73728c-0.29746,0.87787 -1.20915,0.75535 -1.65137,-0.05926c-0.55527,-1.02289 -0.6692,-3.47817 -0.63821,-4.64165c0.03696,-1.387 0.22244,-3.09987 0.42148,-4.48048c-0.49057,0.1715 -0.70353,2.38942 -0.9994,3.75597c-0.1297,0.59907 0.31372,3.25993 -0.85684,3.62599c-1.39677,0.1539 -0.94073,-3.05967 -1.09387,-4.66405c0.07626,-1.61787 0.56309,-4.33479 0.56309,-4.33479c0,0 -0.71999,2.2518 -0.99506,3.37187c-0.28123,1.14514 0.06907,2.47529 -0.9256,2.51404c-1.11739,0.16955 -0.83528,-3.01983 -0.86986,-3.42373c0.07949,-1.26226 1.2343,-4.38333 1.2343,-4.38333z" data-paper-data="{&quot;origPos&quot;:null,&quot;origRot&quot;:0,&quot;index&quot;:null}" fill="#755135" stroke="none" stroke-width="0" stroke-linecap="butt"/></g></g></svg>