<svg xmlns="http://www.w3.org/2000/svg" xmlns:xlink="http://www.w3.org/1999/xlink" version="1.1" width="61.430769205093384" height="80.25338578224182" viewBox="0.0654153823852539 0.39470374584198 61.430769205093384 80.25338578224182">
  <!-- Exported by Scratch - http://scratch.mit.edu/ -->
  <g id="ID0.37967492267489433">
    <path id="ID0.9007096271961927" d="M 28.4538 0.9115 C 29.0747 0.9115 29.6946 0.9115 30.3154 0.9115 C 29.8956 2.4315 35.3881 2.4315 34.9692 0.9115 C 35.2792 0.9115 35.59 0.9115 35.9 0.9115 C 35.9251 1.8172 37.0393 1.6338 37.7615 1.8423 C 37.298 9.8236 43.1525 15.157 41.4846 21.3885 C 49.734 34.8567 50.7374 55.5719 61.0308 66.9961 C 61.0308 67.617 61.0308 68.2369 61.0308 68.8577 C 55.7272 68.6511 60.5142 73.694 58.2385 75.3731 C 55.6872 78.4064 48.2513 76.5551 46.1385 80.0269 C 45.2077 80.0269 44.2769 80.0269 43.3461 80.0269 C 39.5868 70.951 40.1964 62.2846 34.9692 53.9654 C 22.1321 51.6775 22.1618 62.2548 20.0769 70.7192 C 17.8766 72.8628 15.7544 75.0836 15.4231 79.0961 C 10.2768 78.6568 4.8151 78.5349 0.5308 77.2346 C 0.5308 76.6138 0.5308 75.9939 0.5308 75.3731 C 6.1489 53.3781 11.7326 31.3486 16.3538 8.3577 C 25.2967 10.7851 21.0579 0.031 28.4538 0.9115 Z M 24.7308 5.5654 C 20.2593 27.1555 13.9413 46.899 9.8385 68.8577 C 13.4387 68.3597 14.3825 70.5191 18.2154 69.7885 C 19.4756 61.741 21.944 54.9017 22.8692 46.5192 C 29.1333 46.5779 32.9495 44.1895 38.6923 43.7269 C 41.5237 52.6846 45.7876 60.2108 48.9308 68.8577 C 52.3821 69.5167 52.9256 67.2679 56.3769 67.9269 C 52.9359 59.0827 47.7608 48.6935 47.0692 40.0038 C 40.6572 30.9028 38.952 17.0948 35.9 4.6346 C 30.5192 5.2005 27.7613 2.6502 24.7308 5.5654 Z " stroke-width="0.9307692050933838" fill="undefined"/>
    <path id="ID0.8698426955379546" fill="none" d="M 30.3154 0.9115 C 31.867 0.9115 33.4176 0.9115 34.9692 0.9115 C 35.3881 2.4315 29.8956 2.4315 30.3154 0.9115 Z " stroke-width="0.9307692050933838"/>
    <path id="ID0.5615635616704822" fill="none" d="M 35.9 0.9115 C 44.2769 0.9115 52.6538 0.9115 61.0308 0.9115 C 61.0308 22.94 61.0308 44.9676 61.0308 66.9961 C 50.7374 55.5719 49.734 34.8567 41.4846 21.3885 C 43.1525 15.157 37.298 9.8236 37.7615 1.8423 C 37.0393 1.6338 35.9251 1.8172 35.9 0.9115 Z " stroke-width="0.9307692050933838"/>
    <path id="ID0.4079858735203743" fill="#FF9400" d="M 35.9 4.6346 C 38.952 17.0948 40.6572 30.9028 47.0692 40.0038 C 47.7608 48.6935 52.9359 59.0827 56.3769 67.9269 C 52.9256 67.2679 52.3821 69.5167 48.9308 68.8577 C 45.7876 60.2108 41.5237 52.6846 38.6923 43.7269 C 32.9495 44.1895 29.1333 46.5779 22.8692 46.5192 C 21.944 54.9017 19.4756 61.741 18.2154 69.7885 C 14.3825 70.5191 13.4387 68.3597 9.8385 68.8577 C 13.9413 46.899 20.2593 27.1555 24.7308 5.5654 C 27.7613 2.6502 30.5192 5.2005 35.9 4.6346 Z M 25.6615 40.9346 C 30.9241 39.5552 33.8691 39.0116 38.6923 40.0038 C 37.5642 31.2034 33.776 25.0641 32.1769 16.7346 C 31.9712 16.0095 31.3969 15.6521 30.3154 15.8038 C 27.5603 22.4514 25.3907 34.3289 25.6615 40.9346 Z " stroke-width="0.9307692050933838"/>
    <path id="ID0.7377838790416718" d="M 30.3154 15.8038 C 31.3969 15.6521 31.9712 16.0095 32.1769 16.7346 C 33.776 25.0641 37.5642 31.2034 38.6923 40.0038 C 33.8691 39.0116 30.9241 39.5552 25.6615 40.9346 C 25.3907 34.3289 27.5603 22.4514 30.3154 15.8038 Z M 30.3154 36.2808 C 30.4643 33.3395 30.348 30.6636 28.4538 29.7654 C 29.1324 31.8792 26.7766 37.0272 30.3154 36.2808 Z " stroke-width="0.9307692050933838" fill="undefined"/>
    <path id="ID0.5625731283798814" fill="none" d="M 28.4538 29.7654 C 30.348 30.6636 30.4643 33.3395 30.3154 36.2808 C 26.7766 37.0272 29.1324 31.8792 28.4538 29.7654 Z " stroke-width="0.9307692050933838"/>
    <path id="ID0.8488714252598584" fill="none" d="M 43.3461 80.0269 C 29.3827 79.4089 12.9435 81.2648 0.5308 79.0961 C 0.5308 78.4753 0.5308 77.8554 0.5308 77.2346 C 4.8151 78.5349 10.2768 78.6568 15.4231 79.0961 C 15.7544 75.0836 17.8766 72.8628 20.0769 70.7192 C 22.1618 62.2548 22.1321 51.6775 34.9692 53.9654 C 40.1964 62.2846 39.5868 70.951 43.3461 80.0269 Z " stroke-width="0.9307692050933838"/>
    <path id="ID0.4829629873856902" fill="none" d="M 61.0308 68.8577 C 61.0308 72.5808 61.0308 76.3038 61.0308 80.0269 C 56.067 80.0269 51.1022 80.0269 46.1385 80.0269 C 48.2513 76.5551 55.6872 78.4064 58.2385 75.3731 C 60.5142 73.694 55.7272 68.6511 61.0308 68.8577 Z " stroke-width="0.9307692050933838"/>
  </g>
</svg>