<svg xmlns="http://www.w3.org/2000/svg" xmlns:xlink="http://www.w3.org/1999/xlink" width="228.8900909423828" height="157.48487854003906" viewBox="16.600000381469727 15.600000381469727 228.8900909423828 157.48487854003906" version="1.1" xml:space="preserve">
  <!-- Generator: Sketch 49.3 (51167) - http://www.bohemiancoding.com/sketch -->
  <defs/>
  <g>
    <title>bear-walk-f</title>
    <desc>Created with Sketch.</desc>
    <g id="bear-walk-f" stroke="none" fill-rule="evenodd">
      <g id="bear-walk11" fill-rule="nonzero">
        <g id="Group">
          <path d="M 163.3 98 C 155.7 112.6 149.6 116.4 149.6 116.4 C 149.6 116.4 163.9 133 163.7 136.2 C 163.2 144.5 141.7 160 138.6 153.7 C 135.7 147.7 142.8 140.7 142.8 140.7 C 142.8 140.7 128.1 126.5 127 125.2 C 124.8 122.6 107.8 115.5 116.1 94 C 135.6 51.2 173.8 77.7 163.3 98 Z " id="Shape" fill="#856045" stroke-width="1"/>
          <path d="M 129.6 76.4 C 129.6 76.4 119.5 84.3 117.2 83.5 C 117.2 83.5 118.9 85.8 121 84.8 C 121 84.8 116.3 85.5 114.2 89.5 L 117.3 89.3 C 117.3 89.3 111.8 94.5 111.1 98.7 L 114.6 96.4 C 114.6 96.4 109.8 101.8 113 106.4 " id="Shape" fill="#856045" stroke-width="1"/>
          <path d="M 117.4 83.5 C 117.4 83.5 117.6 83.6 117.9 83.6 C 118.2 83.6 118.7 83.5 119.3 83.3 C 120.4 83 121.8 82.3 123.1 81.5 C 123.7 81.1 124.4 80.7 124.9 80.2 C 125.5 79.8 126 79.4 126.4 79 C 127.3 78.3 127.8 77.7 127.8 77.7 C 127.8 77.7 127.1 78.1 126.2 78.7 C 125.2 79.3 124 80.1 122.7 80.9 C 122.1 81.3 121.4 81.7 120.8 82 C 120.2 82.3 119.6 82.7 119.1 82.9 C 118.6 83.1 118.2 83.3 117.9 83.4 C 117.6 83.5 117.4 83.5 117.4 83.5 Z " id="Shape" fill="#59402F" stroke-width="1"/>
          <path d="M 114.2 89.6 C 114.2 89.6 114.5 89.3 115 88.8 C 115.5 88.3 116.1 87.7 116.8 87.1 C 117.1 86.8 117.5 86.5 117.8 86.3 C 118 86.2 118.1 86.1 118.3 86 C 118.5 85.9 118.6 85.8 118.8 85.7 C 119.1 85.5 119.4 85.4 119.5 85.3 C 119.7 85.2 119.8 85.2 119.8 85.2 C 119.8 85.2 119.7 85.2 119.5 85.2 C 119.3 85.2 119 85.2 118.6 85.3 C 118.4 85.3 118.2 85.4 118 85.5 C 117.8 85.6 117.6 85.7 117.4 85.8 C 117 86 116.6 86.3 116.2 86.6 C 115.5 87.2 114.9 88 114.5 88.6 C 114.3 89.2 114.2 89.6 114.2 89.6 Z " id="Shape" fill="#59402F" stroke-width="1"/>
          <path d="M 111 98.7 C 111 98.7 111.2 98 111.6 97 C 112.1 96 112.8 94.8 113.6 93.7 C 114 93.1 114.4 92.6 114.9 92 C 115.3 91.5 115.7 91 116.1 90.6 C 116.4 90.2 116.7 89.8 116.9 89.6 C 117.1 89.4 117.2 89.2 117.2 89.2 C 117.2 89.2 117 89.3 116.8 89.5 C 116.6 89.7 116.2 90 115.8 90.3 C 115 91 114 92.1 113.1 93.3 C 112.7 93.9 112.3 94.5 112 95.1 C 111.7 95.7 111.4 96.3 111.3 96.8 C 111.1 97.3 111.1 97.8 111 98.1 C 111 98.5 111 98.7 111 98.7 Z " id="Shape" fill="#59402F" stroke-width="1"/>
          <path d="M 142.6 140.6 C 142.6 140.6 140.2 138.5 136.7 135.2 C 135.8 134.4 134.9 133.5 133.9 132.5 C 132.9 131.5 132 130.4 131.1 129.2 C 130.1 128 129.1 126.9 128 125.7 C 126.9 124.5 125.7 123.5 124.5 122.4 C 123.3 121.4 121.9 120.5 120.6 119.6 C 119.4 118.7 118.4 117.5 117.6 116.2 C 117.2 115.6 116.8 114.9 116.4 114.3 C 116.2 114 116.1 113.7 115.9 113.4 C 115.8 113.1 115.6 112.8 115.5 112.5 C 115 111.2 114.7 110 114.5 108.8 C 114.1 106.4 114.1 104.4 114.2 103 C 114.3 101.6 114.4 100.8 114.4 100.8 C 114.4 100.8 114.2 101.6 114.1 103 C 114 104.4 113.9 106.4 114.2 108.8 C 114.4 110 114.7 111.3 115.2 112.6 C 115.3 112.9 115.5 113.3 115.6 113.6 C 115.8 113.9 115.9 114.2 116.1 114.6 C 116.5 115.3 116.8 115.9 117.2 116.5 C 118 117.8 119 119.1 120.3 120.1 C 121.6 121.1 122.9 121.9 124.2 122.9 C 125.4 123.9 126.6 124.9 127.7 126.1 C 128.8 127.2 129.9 128.3 130.9 129.4 C 131.9 130.5 132.9 131.6 133.9 132.6 C 134.9 133.6 135.8 134.5 136.7 135.3 C 138.5 136.9 140 138.2 141.1 139.2 C 142 140.1 142.6 140.6 142.6 140.6 Z " id="Shape" fill="#59402F" stroke-width="1"/>
          <path d="M 112.8 106 C 112.8 106 112.5 105.4 112.4 104.5 C 112.3 104 112.3 103.5 112.4 102.9 C 112.4 102.6 112.5 102.3 112.5 102 C 112.5 101.7 112.6 101.4 112.7 101.1 C 112.8 100.8 112.9 100.5 113 100.2 C 113.1 99.9 113.2 99.6 113.3 99.4 C 113.5 98.9 113.8 98.4 113.9 97.9 C 114.1 97.5 114.3 97.1 114.4 96.9 C 114.5 96.6 114.6 96.5 114.6 96.5 C 114.6 96.5 114.5 96.6 114.3 96.8 C 114.1 97 113.9 97.3 113.6 97.7 C 113.3 98.1 113 98.6 112.8 99.1 C 112.7 99.4 112.5 99.6 112.4 100 C 112.3 100.3 112.2 100.6 112.1 100.9 C 111.9 101.5 111.8 102.2 111.8 102.8 C 111.8 103.1 111.8 103.4 111.8 103.7 C 111.8 104 111.9 104.2 112 104.5 C 112.1 105 112.3 105.3 112.5 105.6 C 112.7 105.9 112.8 106 112.8 106 Z " id="Shape" fill="#59402F" stroke-width="1"/>
          <path d="M 159.9 143.4 C 160.9 142.4 161.6 141.3 162.3 140.1 C 162.6 139.5 162.9 138.9 163.2 138.2 C 163.3 137.9 163.5 137.6 163.6 137.2 C 163.7 137.1 163.7 136.9 163.8 136.7 C 163.8 136.5 163.8 136.3 163.8 136.1 C 163.7 135.4 163.5 134.7 163.2 134.1 C 162.9 133.5 162.6 132.9 162.3 132.3 C 161.6 131.1 160.9 129.9 160.1 128.8 C 158.6 126.5 156.9 124.4 155.3 122.2 C 153.6 120 151.9 118 150.1 115.9 L 150.1 116.3 C 152 114.8 153.6 113.1 155.1 111.3 C 155.8 110.4 156.6 109.4 157.2 108.5 C 157.5 108 157.8 107.5 158.1 107 C 158.4 106.5 158.7 106 159 105.5 C 158.4 106.5 157.7 107.5 157 108.4 C 156.3 109.3 155.6 110.2 154.8 111.1 C 154 112 153.2 112.8 152.4 113.6 C 151.6 114.4 150.7 115.2 149.8 115.9 L 149.5 116.1 L 149.7 116.3 C 151.5 118.4 153.2 120.5 154.8 122.6 C 156.5 124.7 158.1 126.9 159.7 129.1 C 160.5 130.2 161.2 131.3 161.9 132.5 C 162.2 133.1 162.6 133.7 162.8 134.3 C 163.1 134.9 163.3 135.5 163.4 136.2 C 163.4 136.4 163.4 136.5 163.4 136.6 C 163.4 136.8 163.3 136.9 163.3 137.1 C 163.2 137.4 163.1 137.7 163 138.1 C 162.8 138.7 162.5 139.4 162.2 140 C 161.9 140.6 161.6 141.2 161.2 141.8 C 160.8 142.3 160.4 142.9 159.9 143.4 Z " id="Shape" fill="#59402F" stroke-width="1"/>
          <g id="Shape">
            <path d="M 139.1 146.9 C 139.1 146.9 139.4 147.1 139.9 147.1 C 140.4 147.2 141.1 147.1 141.7 147 C 142.3 146.8 142.9 146.5 143.3 146.2 C 143.7 145.9 143.9 145.6 143.9 145.6 C 143.9 145.6 143.8 145.6 143.7 145.7 C 143.6 145.7 143.4 145.8 143.1 145.9 C 142.6 146 142.1 146.2 141.5 146.4 C 140.9 146.6 140.3 146.7 139.8 146.8 C 139.4 146.8 139.1 146.9 139.1 146.9 Z " fill="#59402F" stroke-width="1"/>
            <path d="M 137.8 152.4 C 137.8 152.4 138.2 152.5 138.8 152.5 C 139.4 152.5 140.2 152.4 140.9 152.1 C 141.3 152 141.6 151.8 141.9 151.6 C 142.2 151.4 142.5 151.2 142.7 151 C 142.9 150.8 143.1 150.6 143.2 150.5 C 143.3 150.4 143.3 150.3 143.3 150.3 C 143.3 150.3 143.2 150.3 143.1 150.4 C 143 150.5 142.7 150.6 142.5 150.7 C 142 151 141.4 151.3 140.7 151.5 C 140 151.8 139.3 152 138.8 152.1 C 138.1 152.2 137.8 152.4 137.8 152.4 Z " fill="#59402F" stroke-width="1"/>
            <path d="M 138.1 145.6 C 138.7 145.8 141.5 145.8 141.9 144.8 C 142.3 143.8 141 144.1 140.1 144.3 C 139.2 144.5 137.7 145.4 138.1 145.6 Z " fill="#6C5F57" stroke-width="1"/>
            <path d="M 136.8 150.9 C 137.4 151.1 140.2 151.1 140.6 150.1 C 141 149 139.7 149.4 138.8 149.6 C 137.9 149.8 136.4 150.8 136.8 150.9 Z " fill="#6C5F57" stroke-width="1"/>
            <path d="M 136.5 154.5 C 137.1 154.7 139.9 154.7 140.3 153.7 C 140.7 152.6 139.4 153 138.5 153.2 C 137.6 153.4 136.1 154.3 136.5 154.5 Z " fill="#6C5F57" stroke-width="1"/>
          </g>
          <path d="M 151 117.8 C 151 117.8 151 117.7 151 117.5 C 151 117.3 150.9 117.1 150.7 116.8 C 150.4 116.3 149.9 115.6 149.3 115.1 C 148.7 114.6 148 114.2 147.5 114 C 147.2 113.9 147 113.8 146.8 113.8 C 146.6 113.7 146.5 113.7 146.5 113.7 C 146.5 113.7 146.6 113.8 146.7 113.9 C 146.8 114 147 114.2 147.2 114.4 C 147.6 114.8 148.2 115.2 148.8 115.7 C 149.4 116.2 149.9 116.7 150.3 117.1 C 150.8 117.5 151 117.8 151 117.8 Z " id="Shape" fill="#59402F" stroke-width="1"/>
        </g>
        <g id="Group">
          <path d="M 97.3 84.1 C 97.3 84.1 111.5 106.9 102 135.8 C 97.2 150.3 92.8 159.4 95.1 161.5 C 97.4 163.6 102.2 166.1 101.1 168 C 100 169.9 92.2 170.7 75.6 168.7 C 73.6 168.5 67.8 154.9 68.6 138.5 C 69.2 125.8 65 118.5 61.9 109.7 C 58.8 101 49.9 85.6 51.4 77.8 C 52.9 70 56.1 56.1 73.5 58.4 C 90.9 60.7 96.1 77.9 97.3 84.1 Z " id="Shape" fill="#856045" stroke-width="1"/>
          <g id="Shape">
            <path d="M 92.9 169.9 C 92.9 169.9 92.9 169.6 92.7 169.1 C 92.5 168.6 92.2 168 91.7 167.5 C 91.2 167 90.7 166.6 90.2 166.4 C 89.7 166.2 89.4 166.1 89.4 166.1 C 89.4 166.1 89.5 166.2 89.6 166.3 C 89.7 166.4 89.8 166.5 90 166.7 C 90.3 167 90.8 167.5 91.2 167.9 C 91.6 168.3 92 168.8 92.3 169.2 C 92.7 169.7 92.9 169.9 92.9 169.9 Z " fill="#59402F" stroke-width="1"/>
            <path d="M 98.6 169.2 C 98.6 169.2 98.5 168.8 98.2 168.3 C 97.9 167.8 97.4 167.1 96.8 166.6 C 96.5 166.3 96.2 166.1 95.8 165.9 C 95.5 165.7 95.1 165.6 94.8 165.5 C 94.5 165.4 94.3 165.4 94.1 165.3 C 93.9 165.3 93.8 165.3 93.8 165.3 C 93.8 165.3 93.9 165.4 94 165.5 C 94.2 165.6 94.4 165.7 94.6 165.9 C 95.1 166.2 95.7 166.7 96.2 167.2 C 96.8 167.7 97.3 168.2 97.7 168.7 C 98.3 168.9 98.6 169.2 98.6 169.2 Z " fill="#59402F" stroke-width="1"/>
            <path d="M 92.2 171.4 C 92.1 170.8 90.8 168.3 89.7 168.4 C 88.6 168.6 89.5 169.6 90.1 170.2 C 90.7 170.9 92.2 171.8 92.2 171.4 Z " fill="#665A52" stroke-width="1"/>
            <path d="M 97.5 170.1 C 97.4 169.5 96.1 167 95 167.1 C 93.9 167.3 94.8 168.3 95.4 168.9 C 96.1 169.6 97.6 170.5 97.5 170.1 Z " fill="#665A52" stroke-width="1"/>
            <path d="M 100.9 169.4 C 100.8 168.8 99.5 166.3 98.4 166.4 C 97.3 166.6 98.2 167.6 98.8 168.2 C 99.5 168.8 100.9 169.7 100.9 169.4 Z " fill="#665A52" stroke-width="1"/>
          </g>
          <g id="Shape">
            <path d="M 73.3 111.2 C 73.3 111.2 66.7 122.2 64.3 122.3 C 64.3 122.3 66.7 123.9 68.3 122.1 C 68.3 122.1 64.1 124.4 63.6 129 L 66.4 127.7 C 66.4 127.7 63.1 134.5 64 138.7 L 66.5 135.3 C 66.5 135.3 63.9 142.1 68.6 145.2 " fill="#856045" stroke-width="1"/>
            <path d="M 64.5 122.2 C 64.5 122.2 64.7 122.2 65 122.1 C 65.3 122 65.7 121.7 66.2 121.4 C 67.1 120.7 68.2 119.6 69.1 118.3 C 69.6 117.7 70 117.1 70.4 116.5 C 70.8 115.9 71.1 115.3 71.4 114.8 C 71.9 113.8 72.3 113.1 72.3 113.1 C 72.3 113.1 71.8 113.7 71.1 114.6 C 70.4 115.5 69.5 116.7 68.6 117.9 C 68.2 118.5 67.7 119.1 67.3 119.6 C 66.9 120.1 66.4 120.6 66.1 121 C 65.7 121.4 65.4 121.7 65.1 121.9 C 64.6 122.1 64.5 122.2 64.5 122.2 Z " fill="#59402F" stroke-width="1"/>
            <path d="M 63.8 128.8 C 63.8 128.8 64 128.4 64.2 127.8 C 64.5 127.2 64.8 126.4 65.2 125.6 C 65.4 125.2 65.6 124.9 65.9 124.5 C 66.1 124.2 66.4 123.9 66.6 123.6 C 66.8 123.4 67 123.1 67.2 123 C 67.3 122.9 67.4 122.8 67.4 122.8 C 67.4 122.8 67.3 122.8 67.1 122.9 C 66.9 123 66.6 123.1 66.4 123.3 C 66.1 123.5 65.8 123.8 65.5 124.1 C 65.2 124.4 64.9 124.8 64.7 125.2 C 64.5 125.6 64.3 126 64.2 126.4 C 64.1 126.8 64 127.2 63.9 127.5 C 63.7 128.4 63.8 128.8 63.8 128.8 Z " fill="#59402F" stroke-width="1"/>
            <path d="M 64.2 138.1 C 64.2 138.1 64 137.4 64.1 136.4 C 64.1 135.9 64.2 135.3 64.3 134.7 C 64.4 134.1 64.5 133.4 64.7 132.8 C 64.9 132.1 65.1 131.5 65.3 130.9 C 65.5 130.3 65.7 129.7 65.8 129.2 C 66 128.7 66.1 128.3 66.2 128 C 66.3 127.7 66.3 127.5 66.3 127.5 C 66.3 127.5 66.2 127.6 66 127.9 C 65.9 128.2 65.6 128.5 65.4 129 C 65.2 129.5 64.9 130 64.7 130.6 C 64.4 131.2 64.2 131.9 64.1 132.5 C 63.9 133.2 63.8 133.9 63.7 134.5 C 63.6 135.2 63.6 135.8 63.7 136.3 C 63.8 136.8 63.9 137.3 64 137.5 C 64.1 138 64.2 138.1 64.2 138.1 Z " fill="#59402F" stroke-width="1"/>
            <path d="M 67.3 143.9 C 67.3 143.9 67.2 143.8 67.1 143.6 C 67 143.4 66.8 143.1 66.7 142.7 C 66.5 141.9 66.3 140.9 66.3 139.8 C 66.3 138.7 66.4 137.6 66.4 136.8 C 66.5 136 66.5 135.4 66.5 135.4 C 66.5 135.4 66.4 135.5 66.4 135.8 C 66.3 136 66.2 136.4 66.1 136.8 C 66 137.2 65.9 137.7 65.8 138.2 C 65.8 138.5 65.7 138.7 65.7 139 C 65.7 139.3 65.7 139.6 65.7 139.8 C 65.7 140.4 65.8 140.9 65.9 141.5 C 66 142 66.2 142.5 66.4 142.9 C 66.6 143.3 66.9 143.6 67 143.7 C 67.2 143.9 67.3 143.9 67.3 143.9 Z " fill="#59402F" stroke-width="1"/>
          </g>
          <path d="M 68.5 139.4 C 68.5 139.4 68.4 141.7 68.6 145.1 C 68.7 146.8 68.8 148.8 69.1 151 C 69.4 153.1 69.7 155.4 70.2 157.7 C 70.7 159.9 71.3 162.2 72.2 164.2 C 72.6 165.2 73.1 166.1 73.7 167 C 74 167.4 74.3 167.8 74.6 168.2 C 74.8 168.4 74.9 168.5 75.1 168.7 C 75.4 168.8 75.6 168.8 75.8 168.9 C 77.5 169.2 78.9 169.3 79.9 169.3 C 80.9 169.4 81.5 169.4 81.5 169.4 C 81.5 169.4 80.9 169.3 79.9 169.2 C 78.9 169.1 77.5 168.9 75.8 168.6 C 75.6 168.6 75.4 168.5 75.2 168.4 C 75.1 168.3 74.9 168.1 74.8 167.9 C 74.5 167.5 74.3 167.2 74 166.7 C 73.5 165.9 73.1 164.9 72.7 163.9 C 72 161.9 71.4 159.7 70.9 157.5 C 70.5 155.3 70.1 153 69.8 150.9 C 69.5 148.8 69.3 146.8 69.1 145.1 C 68.7 141.7 68.5 139.4 68.5 139.4 Z " id="Shape" fill="#59402F" stroke-width="1"/>
          <path d="M 103.2 96.5 C 103.2 96.5 103.5 100.9 103.7 107.4 C 103.8 110.7 103.9 114.5 103.9 118.6 C 103.9 120.6 103.8 122.8 103.7 124.9 C 103.6 127 103.4 129.2 103 131.3 C 102.8 132.4 102.5 133.4 102.1 134.4 C 101.7 135.4 101.3 136.4 101 137.4 C 100.2 139.4 99.5 141.4 98.8 143.3 C 97.4 147.1 96.1 150.7 95.2 153.9 C 94.8 155.5 94.5 157 94.4 158.3 C 94.4 159 94.3 159.6 94.4 160.2 C 94.5 160.8 94.8 161.3 95.1 161.6 C 95.8 162.3 96.5 162.6 96.9 162.9 C 97.3 163.2 97.6 163.3 97.6 163.3 C 97.6 163.3 97.4 163.1 97 162.8 C 96.6 162.5 95.9 162.1 95.3 161.4 C 95 161.1 94.7 160.6 94.7 160 C 94.7 159.4 94.7 158.8 94.8 158.2 C 94.9 156.9 95.2 155.4 95.7 153.9 C 96.6 150.8 98 147.2 99.4 143.4 C 100.1 141.5 100.9 139.5 101.7 137.5 C 102.1 136.5 102.4 135.5 102.8 134.4 C 103.2 133.4 103.5 132.3 103.7 131.2 C 104.1 129 104.3 126.8 104.4 124.7 C 104.5 122.5 104.5 120.4 104.5 118.4 C 104.5 114.3 104.3 110.5 104.1 107.2 C 103.7 100.8 103.2 96.5 103.2 96.5 Z " id="Shape" fill="#59402F" stroke-width="1"/>
        </g>
        <g id="Group">
          <g id="Shape">
            <path d="M 42.1 53.2 C 42.1 53.2 31.8 49.4 20.9 64.9 C 20.9 64.9 24 62.4 25.9 62.4 C 25.9 62.4 21 64.1 19.7 72.4 C 19.7 72.4 21.6 69.1 23 68.8 C 23 68.8 16.1 78.1 26.2 79.9 C 36.3 81.8 44.5 55.5 42.1 53.2 Z " fill="#8D674A" stroke-width="1"/>
            <path d="M 20.9 64.9 C 20.9 64.9 21.1 64.6 21.5 64.1 C 21.9 63.6 22.5 62.9 23.2 62.1 C 23.9 61.3 24.8 60.4 25.8 59.5 C 26.3 59 26.8 58.6 27.3 58.1 C 27.8 57.6 28.4 57.2 29 56.8 C 29.6 56.4 30.2 56 30.8 55.6 C 31.4 55.3 32 54.9 32.6 54.6 C 33.2 54.4 33.8 54 34.4 53.9 C 35 53.7 35.5 53.5 36.1 53.4 C 36.6 53.3 37.1 53.2 37.5 53.2 C 37.9 53.1 38.3 53.2 38.6 53.1 C 39.2 53.1 39.6 53.1 39.6 53.1 C 39.6 53.1 39.2 53.1 38.6 53 C 38.3 53 37.9 52.9 37.4 52.9 C 37 52.9 36.5 53 35.9 53 C 35.4 53.1 34.8 53.2 34.2 53.4 C 33.6 53.5 33 53.8 32.3 54.1 C 31.7 54.4 31 54.7 30.4 55.1 C 29.8 55.5 29.2 55.9 28.6 56.3 C 28 56.8 27.4 57.2 26.9 57.7 C 26.4 58.2 25.8 58.7 25.4 59.1 C 24.4 60.1 23.6 61.1 23 61.9 C 21.6 63.6 20.9 64.9 20.9 64.9 Z " fill="#59402F" stroke-width="1"/>
            <path d="M 25.9 62.4 C 25.9 62.4 25.2 62.7 24.3 63.4 C 23.8 63.7 23.3 64.2 22.9 64.7 C 22.4 65.2 21.9 65.8 21.5 66.5 C 21.1 67.2 20.7 67.8 20.5 68.5 C 20.4 68.8 20.2 69.2 20.2 69.5 C 20.1 69.8 20 70.1 20 70.4 C 19.9 71 19.9 71.4 19.9 71.8 C 19.9 72.1 19.9 72.3 19.9 72.3 C 19.9 72.3 20 72.1 20 71.8 C 20 71.6 20.1 71.4 20.1 71.2 C 20.2 71 20.3 70.7 20.3 70.5 C 20.4 70.2 20.5 70 20.6 69.7 C 20.7 69.4 20.8 69.1 21 68.8 C 21.1 68.5 21.3 68.2 21.5 67.9 C 21.7 67.6 21.9 67.3 22.1 67 C 22.9 65.8 23.9 64.6 24.6 63.8 C 25.4 62.9 25.9 62.4 25.9 62.4 Z " fill="#59402F" stroke-width="1"/>
            <path d="M 23 68.8 C 23 68.8 22.5 69.2 22 69.9 C 21.7 70.3 21.4 70.7 21.2 71.2 C 20.9 71.7 20.7 72.3 20.6 72.9 C 20.5 73.5 20.4 74.1 20.5 74.7 C 20.5 75 20.6 75.3 20.6 75.5 C 20.7 75.8 20.7 76 20.8 76.2 C 21 76.6 21.2 77 21.3 77.2 C 21.4 77.4 21.5 77.5 21.5 77.5 C 21.5 77.5 21.5 77.4 21.4 77.1 C 21.4 77 21.3 76.8 21.3 76.7 C 21.3 76.5 21.2 76.3 21.2 76.1 C 21.1 75.9 21.1 75.7 21.1 75.4 C 21.1 75.2 21 74.9 21.1 74.6 C 21.1 74.3 21.1 74.1 21.1 73.8 C 21.1 73.5 21.2 73.2 21.2 73 C 21.3 72.4 21.5 71.9 21.7 71.4 C 21.9 70.9 22.1 70.4 22.3 70 C 22.7 69.3 23 68.8 23 68.8 Z " fill="#59402F" stroke-width="1"/>
          </g>
          <g id="Shape">
            <path d="M 185.3 84.1 C 185.3 84.1 185.2 91.9 181.8 95 L 181.6 92.2 C 181.6 92.2 180.5 101 173.9 103.5 L 174.7 100.9 C 174.7 100.9 167.3 105.4 167.2 108.8 L 166 106.8 C 166 106.8 159.2 112.5 156.2 110.5 " fill="#8D674A" stroke-width="1"/>
            <g>
              <path d="M 163.2 28.9 C 144.4 22.4 120.3 31.7 109 35.8 C 92.5 41.6 72.9 25.3 45.7 46.9 C 18.5 68.5 23.3 101.4 43.2 117.9 C 65.4 136.3 144.9 137.6 159.4 109.5 C 159.4 109.5 185.9 99.7 187.5 72.4 " fill="#8D674A" stroke-width="1"/>
              <path d="M 185.5 84.1 C 185.5 84.1 185.3 84.8 185.1 85.8 C 184.9 86.8 184.6 88.2 184.2 89.6 C 184.1 89.9 184 90.3 183.9 90.6 C 183.8 90.9 183.7 91.3 183.6 91.6 C 183.4 92.2 183.2 92.8 183 93.2 C 182.9 93.4 182.8 93.7 182.7 93.8 C 182.6 94 182.5 94.2 182.4 94.2 C 182.2 94.4 182.1 94.6 182.1 94.6 C 182.1 94.6 182.2 94.5 182.5 94.3 C 182.6 94.2 182.8 94.1 182.9 93.9 C 183.1 93.7 183.2 93.5 183.4 93.3 C 183.7 92.9 184 92.3 184.3 91.7 C 184.6 91.1 184.8 90.4 185 89.7 C 185.3 88.3 185.5 86.9 185.6 85.8 C 185.5 84.9 185.5 84.1 185.5 84.1 Z " fill="#59402F" stroke-width="1"/>
              <path d="M 181.6 92.1 C 181.6 92.1 181.4 93 180.9 94.2 C 180.7 94.8 180.4 95.6 180.1 96.3 C 179.9 96.7 179.7 97.1 179.5 97.4 C 179.3 97.8 179.1 98.2 178.9 98.5 C 178.7 98.9 178.4 99.2 178.2 99.6 C 177.9 99.9 177.7 100.3 177.4 100.6 C 177.1 100.9 176.9 101.2 176.6 101.4 C 176.3 101.6 176.1 101.9 175.8 102.1 C 175.5 102.3 175.3 102.5 175.1 102.6 C 174.9 102.7 174.7 102.9 174.5 103 C 174.2 103.2 174 103.3 174 103.3 C 174 103.3 174.2 103.2 174.6 103.1 C 174.8 103 175 102.9 175.3 102.8 C 175.5 102.7 175.8 102.5 176.1 102.4 C 176.4 102.2 176.7 102 177 101.8 C 177.3 101.6 177.6 101.3 177.9 101 C 178.2 100.7 178.5 100.4 178.8 100 C 179.1 99.7 179.3 99.3 179.6 98.9 C 180.1 98.1 180.5 97.3 180.8 96.5 C 181.1 95.7 181.3 94.9 181.5 94.3 C 181.6 93 181.6 92.1 181.6 92.1 Z " fill="#59402F" stroke-width="1"/>
              <path d="M 174.7 101 C 174.7 101 174 101.2 173.1 101.7 C 172.6 102 172.1 102.3 171.6 102.7 C 171.1 103.1 170.5 103.5 170 104 C 169.5 104.5 169 105 168.6 105.6 C 168.2 106.1 167.9 106.7 167.7 107.2 C 167.6 107.5 167.5 107.7 167.5 107.9 C 167.4 108.1 167.4 108.3 167.4 108.4 C 167.3 108.7 167.3 108.9 167.3 108.9 C 167.3 108.9 167.4 108.7 167.5 108.5 C 167.6 108.4 167.6 108.2 167.7 108 C 167.8 107.8 167.9 107.6 168.1 107.4 C 168.2 107.2 168.4 107 168.6 106.7 C 168.8 106.5 169 106.2 169.2 106 C 169.6 105.5 170.1 105 170.6 104.6 C 171.1 104.1 171.6 103.7 172.1 103.3 C 172.6 102.9 173.1 102.5 173.5 102.2 C 174.2 101.4 174.7 101 174.7 101 Z " fill="#59402F" stroke-width="1"/>
              <path d="M 166.1 106.9 C 166.1 106.9 165.5 107.3 164.6 107.9 C 164.1 108.2 163.6 108.5 163 108.8 C 162.4 109.1 161.8 109.5 161.2 109.7 C 160.6 110 159.9 110.3 159.3 110.5 C 159 110.6 158.7 110.7 158.4 110.8 C 158.1 110.9 157.8 110.9 157.6 111 C 157.3 111 157.1 111.1 156.9 111.1 C 156.7 111.1 156.5 111.1 156.3 111.1 C 156 111.1 155.8 111.1 155.8 111.1 C 155.8 111.1 156 111.1 156.3 111.2 C 156.5 111.2 156.6 111.3 156.9 111.3 C 157.1 111.3 157.4 111.3 157.6 111.3 C 158.1 111.3 158.8 111.2 159.4 111 C 160.1 110.8 160.7 110.6 161.4 110.3 C 162.1 110 162.7 109.6 163.2 109.2 C 163.8 108.8 164.3 108.4 164.7 108.1 C 165.6 107.4 166.1 106.9 166.1 106.9 Z " fill="#59402F" stroke-width="1"/>
              <path d="M 142.4 27 C 142.4 27 139.3 27.2 134.7 28 C 133.6 28.2 132.3 28.4 131 28.7 C 129.7 29 128.3 29.3 126.9 29.6 C 124.1 30.3 121.1 31.1 118.2 32.1 C 115.3 33.2 112.5 34.5 109.7 35.3 C 108.3 35.7 107 36.1 105.7 36.3 C 104.4 36.5 103.2 36.7 102 36.8 C 100.9 36.9 99.8 36.9 98.9 37 C 98 37 97.1 37 96.5 37 C 95.1 37 94.4 36.9 94.4 36.9 C 94.4 36.9 95.2 37 96.5 37.1 C 97.2 37.2 98 37.2 98.9 37.2 C 99.8 37.2 100.9 37.2 102.1 37.2 C 103.3 37.1 104.5 37 105.8 36.8 C 107.1 36.6 108.5 36.3 109.9 35.9 C 112.7 35.1 115.5 33.8 118.4 32.8 C 119.9 32.3 121.3 31.9 122.8 31.5 C 124.3 31.1 125.7 30.7 127.1 30.3 C 129.9 29.6 132.5 29 134.8 28.5 C 137.1 28 139 27.7 140.3 27.5 C 141.6 27.2 142.4 27 142.4 27 Z " fill="#59402F" stroke-width="1"/>
              <path d="M 68.3 36 C 68.3 36 67.1 36.2 65.1 36.8 C 63.1 37.4 60.1 38.4 56.8 39.9 C 53.5 41.4 49.7 43.4 46 46.1 C 42.3 48.8 38.7 52.2 35.8 56.2 C 34.4 58.2 33.1 60.4 32.1 62.5 C 31 64.6 30.1 66.8 29.2 69 C 28.4 71.1 27.7 73.3 27.3 75.3 C 26.9 77.4 26.6 79.3 26.6 81.2 C 26.5 84.9 27.1 87.9 27.4 90 C 27.8 92.1 28 93.3 28 93.3 C 28 93.3 27.8 92.1 27.6 90 C 27.3 87.9 26.9 84.9 27.1 81.2 C 27.2 79.4 27.5 77.4 27.9 75.4 C 28.4 73.4 29.1 71.3 29.9 69.2 C 30.8 67.1 31.7 65 32.8 62.8 C 33.8 60.6 35 58.6 36.5 56.6 C 39.3 52.7 42.8 49.3 46.5 46.5 C 50.1 43.8 53.9 41.7 57.1 40.1 C 60.4 38.5 63.2 37.5 65.3 36.8 C 67.1 36.2 68.3 36 68.3 36 Z " fill="#59402F" stroke-width="1"/>
              <path d="M 153.8 116.6 C 153.8 116.6 153.4 116.9 152.8 117.3 C 152.1 117.7 151.1 118.4 149.8 119.1 C 149.1 119.5 148.4 119.9 147.6 120.3 C 146.8 120.7 145.9 121.1 144.9 121.6 C 143.9 122 142.9 122.5 141.8 123 C 140.7 123.4 139.5 123.9 138.3 124.4 C 137.1 124.9 135.8 125.3 134.5 125.8 C 133.2 126.3 131.8 126.6 130.3 127.1 C 127.4 127.9 124.4 128.6 121.2 129.2 C 120.4 129.3 119.6 129.5 118.8 129.7 C 118 129.8 117.2 129.9 116.3 130 C 115.5 130.1 114.6 130.2 113.8 130.3 C 113 130.4 112.1 130.5 111.3 130.5 C 110.5 130.6 109.6 130.6 108.7 130.7 C 107.8 130.8 107 130.8 106.1 130.8 C 104.4 130.8 102.6 130.9 100.9 130.9 C 97.4 130.8 94 130.8 90.6 130.4 C 87.2 130.2 83.8 129.8 80.6 129.5 C 79 129.3 77.4 129.1 75.8 128.9 C 74.2 128.7 72.7 128.4 71.3 128.2 C 68.4 127.7 65.6 127.2 63.1 126.6 C 60.6 126 58.3 125.3 56.3 124.7 C 55.3 124.4 54.4 124 53.5 123.7 C 52.7 123.3 51.9 123.1 51.2 122.7 C 49.8 122.1 48.8 121.4 48.1 121 C 47.4 120.5 47.1 120.2 47.1 120.2 C 47.1 120.2 47.4 120.5 48.1 121 C 48.8 121.5 49.8 122.1 51.2 122.8 C 51.9 123.2 52.7 123.5 53.5 123.9 C 54.4 124.2 55.3 124.6 56.3 125 C 58.3 125.7 60.6 126.4 63.1 127 C 65.6 127.6 68.4 128.2 71.3 128.8 C 72.8 129 74.3 129.3 75.8 129.6 C 77.4 129.8 78.9 130 80.6 130.2 C 83.8 130.5 87.2 130.9 90.6 131.2 C 94 131.5 97.5 131.6 101 131.7 C 102.7 131.7 104.5 131.6 106.2 131.6 C 107.1 131.6 107.9 131.5 108.8 131.4 C 109.7 131.3 110.5 131.3 111.4 131.2 C 112.3 131.1 113.1 131.1 113.9 131 C 114.7 130.9 115.6 130.8 116.4 130.6 C 117.2 130.5 118.1 130.4 118.9 130.2 C 119.7 130.1 120.5 129.9 121.3 129.7 C 124.5 129.1 127.6 128.3 130.4 127.5 C 131.8 127 133.2 126.7 134.6 126.2 C 135.9 125.7 137.2 125.3 138.4 124.8 C 139.6 124.3 140.8 123.8 141.9 123.4 C 143 122.9 144 122.4 145 122 C 145.9 121.5 146.8 121.1 147.6 120.6 C 148.4 120.1 149.1 119.7 149.8 119.4 C 151.1 118.6 152.1 118 152.8 117.5 C 153.5 116.9 153.8 116.6 153.8 116.6 Z " fill="#59402F" stroke-width="1"/>
            </g>
          </g>
        </g>
        <g id="Group">
          <g id="Shape">
            <g>
              <path d="M 163.3 91.4 C 160.6 114.1 154.7 120 154.1 126.5 C 153.5 133 154.9 157 156.4 159.9 C 157.9 162.7 161.8 166.2 162.6 169.4 C 163.4 172.6 139.1 170.2 136.1 168.4 C 133.2 166.7 117 126.7 117.5 103.6 C 121.5 56.8 166 68.7 163.3 91.4 Z " stroke-width="1" fill="#8D674A"/>
              <path d="M 123.8 82.3 C 123.8 82.3 117 93.1 114.6 93.2 C 114.6 93.2 117 94.8 118.6 93.1 C 118.6 93.1 114.4 95.3 113.8 99.9 L 116.6 98.6 C 116.6 98.6 113.2 105.3 114 109.6 L 116.5 106.2 C 116.5 106.2 113.8 112.9 118.4 116.1 " stroke-width="1" fill="#8D674A"/>
            </g>
            <g>
              <path d="M 113.9 93.5 C 113.9 93.5 114.1 93.5 114.4 93.4 C 114.7 93.3 115.1 93 115.6 92.7 C 116.5 92 117.5 90.8 118.5 89.6 C 119 89 119.4 88.4 119.8 87.8 C 120.2 87.2 120.5 86.6 120.8 86.1 C 121.3 85.1 121.6 84.4 121.6 84.4 C 121.6 84.4 121.1 85 120.4 85.9 C 119.7 86.8 118.8 88 117.9 89.2 C 117.5 89.8 117 90.4 116.6 90.9 C 116.2 91.4 115.7 91.9 115.4 92.4 C 115 92.8 114.7 93.1 114.4 93.3 C 114.1 93.5 113.9 93.5 113.9 93.5 Z " stroke-width="1" fill="#59402F"/>
              <path d="M 113.3 100.2 C 113.3 100.2 113.5 99.8 113.7 99.2 C 114 98.6 114.3 97.8 114.7 97 C 114.9 96.6 115.1 96.3 115.4 95.9 C 115.6 95.6 115.9 95.3 116.1 95 C 116.3 94.8 116.5 94.5 116.6 94.4 C 116.7 94.3 116.8 94.2 116.8 94.2 C 116.8 94.2 116.7 94.2 116.5 94.3 C 116.3 94.4 116 94.5 115.8 94.7 C 115.5 94.9 115.2 95.2 114.9 95.5 C 114.6 95.8 114.3 96.2 114.1 96.6 C 113.9 97 113.7 97.4 113.6 97.8 C 113.5 98.2 113.4 98.6 113.3 98.9 C 113.3 99.7 113.3 100.2 113.3 100.2 Z " stroke-width="1" fill="#59402F"/>
              <path d="M 113.8 109.5 C 113.8 109.5 113.6 108.8 113.7 107.8 C 113.7 107.3 113.8 106.7 113.9 106.1 C 114 105.5 114.1 104.8 114.3 104.2 C 114.5 103.5 114.6 102.9 114.8 102.3 C 115 101.7 115.2 101.1 115.3 100.6 C 115.5 100.1 115.6 99.7 115.7 99.4 C 115.8 99.1 115.8 98.9 115.8 98.9 C 115.8 98.9 115.7 99 115.5 99.3 C 115.4 99.6 115.1 99.9 114.9 100.4 C 114.7 100.9 114.4 101.4 114.2 102 C 113.9 102.6 113.7 103.3 113.6 103.9 C 113.4 104.6 113.3 105.3 113.3 105.9 C 113.2 106.6 113.3 107.2 113.3 107.7 C 113.4 108.2 113.5 108.7 113.6 108.9 C 113.7 109.3 113.8 109.5 113.8 109.5 Z " stroke-width="1" fill="#59402F"/>
              <path d="M 118 116.1 C 118 116.1 117.5 115.7 117 114.9 C 116.8 114.5 116.6 114 116.4 113.5 C 116.2 113 116.1 112.4 116.1 111.7 C 116 111.4 116.1 111.1 116 110.8 C 116 110.5 116 110.2 116 109.9 C 116 109.3 116 108.8 116 108.3 C 116 107.8 116 107.4 116.1 107.2 C 116.1 106.9 116.1 106.8 116.1 106.8 C 116.1 106.8 116 106.9 116 107.2 C 115.9 107.5 115.8 107.8 115.7 108.3 C 115.6 108.8 115.5 109.3 115.4 109.9 C 115.4 110.2 115.3 110.5 115.4 110.8 C 115.4 111.1 115.4 111.4 115.4 111.8 C 115.5 112.4 115.6 113.1 115.8 113.7 C 115.9 114 116.1 114.3 116.2 114.5 C 116.4 114.7 116.5 115 116.7 115.2 C 117 115.6 117.4 115.8 117.6 116 C 117.8 116.1 118 116.1 118 116.1 Z " stroke-width="1" fill="#59402F"/>
            </g>
          </g>
          <path d="M 159.8 164.5 C 159.8 164.5 159.3 163.7 158.2 162.4 C 157.7 161.7 157 160.9 156.5 159.9 C 156 158.8 155.9 157.5 155.8 156 C 155.7 154.5 155.6 152.9 155.5 151.3 C 155.4 149.6 155.2 147.9 155.1 146 C 154.8 142.4 154.6 138.5 154.5 134.6 C 154.5 132.7 154.5 130.7 154.7 128.8 C 154.9 126.9 155.2 125.1 155.6 123.3 C 156.5 119.8 157.5 116.5 158.5 113.7 C 159.4 110.9 160.1 108.5 160.4 106.9 C 160.6 106.1 160.7 105.4 160.8 104.9 C 160.9 104.4 160.9 104.2 160.9 104.2 C 160.9 104.2 160.8 104.4 160.8 104.9 C 160.7 105.3 160.6 106 160.3 106.8 C 160.1 107.6 159.8 108.6 159.4 109.8 C 159 110.9 158.6 112.2 158.1 113.6 C 157.1 116.4 155.9 119.6 155 123.2 C 154.5 125 154.2 126.9 154 128.8 C 153.9 130.7 153.8 132.7 153.8 134.7 C 153.8 138.6 154.1 142.5 154.4 146.2 C 154.7 149.9 155.1 153.3 155.4 156.2 C 155.5 157.7 155.7 159.1 156.2 160.1 C 156.7 161.2 157.5 162 158 162.6 C 159.2 163.7 159.8 164.5 159.8 164.5 Z " id="Shape" fill="#59402F" stroke-width="1"/>
          <g id="Shape">
            <path d="M 154.9 171.3 C 154.9 171.3 154.9 170.9 154.8 170.4 C 154.7 169.9 154.4 169.2 154 168.7 C 153.6 168.1 153.1 167.6 152.7 167.3 C 152.3 167 151.9 166.9 151.9 166.9 C 151.9 166.9 151.9 167 152 167.1 C 152.1 167.2 152.2 167.4 152.3 167.6 C 152.6 168 153 168.5 153.3 169.1 C 153.7 169.6 154 170.2 154.3 170.6 C 154.7 171 154.9 171.3 154.9 171.3 Z " fill="#59402F" stroke-width="1"/>
            <path d="M 160.3 170.9 C 160.3 170.9 160.3 170.5 160.1 169.9 C 159.9 169.3 159.6 168.6 159.1 168 C 158.9 167.7 158.6 167.4 158.3 167.2 C 158 167 157.7 166.8 157.5 166.6 C 157.2 166.5 157 166.4 156.8 166.3 C 156.6 166.2 156.5 166.2 156.5 166.2 C 156.5 166.2 156.6 166.3 156.7 166.4 C 156.8 166.5 157 166.7 157.2 166.9 C 157.6 167.3 158.1 167.8 158.5 168.4 C 159 169 159.4 169.6 159.7 170 C 160.1 170.6 160.3 170.9 160.3 170.9 Z " fill="#59402F" stroke-width="1"/>
            <path d="M 153.7 172.5 C 153.7 171.9 152.9 169.2 151.8 169.1 C 150.7 169.1 151.4 170.2 151.9 171 C 152.4 171.8 153.7 172.9 153.7 172.5 Z " fill="#6C5F57" stroke-width="1"/>
            <path d="M 159.2 172.2 C 159.2 171.6 158.4 168.9 157.3 168.8 C 156.2 168.8 156.9 169.9 157.4 170.7 C 157.9 171.5 159.2 172.6 159.2 172.2 Z " fill="#6C5F57" stroke-width="1"/>
            <path d="M 162.7 171.5 C 162.7 170.9 161.9 168.2 160.8 168.1 C 159.7 168 160.4 169.2 160.9 170 C 161.4 170.7 162.6 171.9 162.7 171.5 Z " fill="#6C5F57" stroke-width="1"/>
          </g>
          <path d="M 139 169.3 C 139 169.3 138.7 169.3 138.3 169.2 C 137.8 169.1 137.1 169 136.4 168.5 C 136 168.3 135.7 167.9 135.4 167.5 C 135.1 167.1 134.8 166.6 134.5 166 C 133.9 164.9 133.2 163.7 132.8 162.3 C 131.7 159.5 130.5 156.2 129.1 152.7 C 127.8 149.2 126.4 145.4 125.1 141.6 C 123.8 137.8 122.6 134 121.8 130.3 C 121.6 129.4 121.4 128.5 121.2 127.6 C 121 126.7 120.8 125.9 120.7 125 C 120.4 123.3 120.1 121.7 119.8 120.2 C 119.2 117.2 118.7 114.8 118.4 113.1 C 118.1 111.4 117.9 110.4 117.9 110.4 C 117.9 110.4 118.4 114.4 119.4 120.3 C 119.6 121.8 119.9 123.4 120.2 125.1 C 120.5 126.8 120.8 128.6 121.3 130.4 C 121.7 132.2 122.2 134.1 122.8 136 C 123.4 137.9 123.9 139.8 124.6 141.7 C 125.9 145.5 127.3 149.3 128.7 152.8 C 130.1 156.3 131.5 159.5 132.6 162.3 C 133.1 163.7 133.9 164.9 134.5 166 C 134.8 166.5 135.1 167 135.4 167.5 C 135.7 167.9 136.1 168.2 136.5 168.5 C 137.3 169 138 169.1 138.4 169.1 C 138.8 169.3 139 169.3 139 169.3 Z " id="Shape" fill="#59402F" stroke-width="1"/>
        </g>
        <g id="Group">
          <path d="M 78.2 91 C 78.2 91 66.8 124.1 58.9 134.7 C 56.4 138 38 157.9 38.7 161 C 39.4 164.1 43.9 168.8 41.9 169.8 C 40.7 170.4 36 171.5 29.7 169 C 25.2 167.2 19 162.4 17.6 160.9 C 16.2 159.4 18.1 137.2 24 121.4 C 28.5 109.5 30.4 97.3 32.9 88.4 C 35.4 79.5 35.9 62.9 41.6 57.4 C 47.3 51.9 60.7 44.6 73.6 56.5 C 86.5 68.4 80.8 85.3 78.2 91 Z " id="Shape" fill="#8D674A" stroke-width="1"/>
          <g id="Shape">
            <path d="M 31 98.4 C 31 98.4 23.1 108.5 20.8 108.4 C 20.8 108.4 23 110.2 24.8 108.7 C 24.8 108.7 20.4 110.5 19.3 115 L 22.2 114 C 22.2 114 18.2 120.4 18.6 124.7 L 21.4 121.6 C 21.4 121.6 18.1 128 22.3 131.7 " fill="#8D674A" stroke-width="1"/>
            <path d="M 21 108.4 C 21 108.4 21.2 108.4 21.5 108.3 C 21.8 108.2 22.3 108 22.8 107.7 C 23.8 107.1 25 106.1 26 105 C 26.5 104.4 27 103.9 27.5 103.3 C 28 102.8 28.3 102.2 28.7 101.8 C 29.3 100.9 29.7 100.2 29.7 100.2 C 29.7 100.2 29.1 100.7 28.4 101.5 C 27.6 102.3 26.6 103.4 25.5 104.5 C 25 105 24.5 105.6 24 106.1 C 23.5 106.6 23 107 22.6 107.4 C 22.2 107.8 21.8 108 21.5 108.2 C 21.2 108.3 21 108.4 21 108.4 Z " fill="#59402F" stroke-width="1"/>
            <path d="M 19.5 114.8 C 19.5 114.8 19.7 114.4 20 113.8 C 20.3 113.2 20.8 112.5 21.3 111.8 C 21.6 111.5 21.8 111.1 22.1 110.8 C 22.4 110.5 22.6 110.2 22.9 110 C 23.1 109.8 23.4 109.6 23.5 109.5 C 23.7 109.4 23.7 109.3 23.7 109.3 C 23.7 109.3 23.6 109.3 23.4 109.4 C 23.2 109.5 22.9 109.5 22.6 109.7 C 22.3 109.9 21.9 110.1 21.6 110.4 C 21.3 110.7 21 111 20.7 111.4 C 20.4 111.8 20.2 112.2 20 112.6 C 19.8 113 19.7 113.4 19.6 113.7 C 19.5 114.4 19.5 114.8 19.5 114.8 Z " fill="#59402F" stroke-width="1"/>
            <path d="M 18.8 124.2 C 18.8 124.2 18.7 123.5 18.9 122.5 C 19 122 19.1 121.4 19.3 120.8 C 19.5 120.2 19.7 119.6 19.9 118.9 C 20.1 118.3 20.4 117.6 20.7 117.1 C 21 116.5 21.2 116 21.4 115.5 C 21.6 115 21.8 114.6 21.9 114.4 C 22 114.1 22.1 114 22.1 114 C 22.1 114 22 114.1 21.8 114.4 C 21.6 114.6 21.3 115 21 115.4 C 20.7 115.8 20.4 116.3 20.1 116.9 C 19.8 117.5 19.5 118.1 19.2 118.8 C 19 119.5 18.7 120.1 18.6 120.8 C 18.5 121.4 18.4 122.1 18.4 122.6 C 18.4 123.1 18.5 123.6 18.5 123.9 C 18.8 124 18.8 124.2 18.8 124.2 Z " fill="#59402F" stroke-width="1"/>
            <path d="M 21.3 130.3 C 21.3 130.3 21.2 130.2 21.1 130 C 21 129.8 20.9 129.5 20.8 129.1 C 20.7 128.3 20.7 127.2 20.8 126.2 C 20.9 125.1 21.1 124 21.3 123.2 C 21.5 122.4 21.5 121.8 21.5 121.8 C 21.5 121.8 21.4 121.9 21.3 122.1 C 21.2 122.3 21 122.6 20.9 123 C 20.8 123.4 20.6 123.9 20.4 124.4 C 20.3 124.7 20.3 124.9 20.2 125.2 C 20.2 125.5 20.1 125.8 20.1 126 C 20.1 126.6 20 127.1 20.1 127.7 C 20.1 128.2 20.3 128.7 20.4 129.1 C 20.6 129.5 20.8 129.8 20.9 130 C 21.2 130.2 21.3 130.3 21.3 130.3 Z " fill="#59402F" stroke-width="1"/>
          </g>
          <path d="M 23 121.7 C 23 121.7 22.3 124.3 21.5 128.2 C 21.1 130.2 20.6 132.5 20.1 134.9 C 19.6 137.4 19.1 140 18.7 142.7 C 18.3 145.4 17.9 148 17.6 150.5 C 17.3 153 17.2 155.4 17.1 157.4 C 17.1 158.4 17.2 159.3 17.3 160.2 C 17.4 160.4 17.4 160.6 17.5 160.8 C 17.6 161 17.8 161.1 17.9 161.2 C 18.2 161.4 18.4 161.6 18.7 161.8 C 19.7 162.5 20.3 162.8 20.3 162.8 C 20.3 162.8 19.7 162.4 18.8 161.7 C 18.6 161.5 18.3 161.3 18.1 161.1 C 18 161 17.9 160.9 17.8 160.7 C 17.8 160.5 17.7 160.3 17.7 160.1 C 17.6 159.3 17.6 158.4 17.6 157.4 C 17.7 155.4 18 153.1 18.3 150.6 C 18.6 148.1 19 145.5 19.5 142.8 C 19.9 140.1 20.4 137.5 20.8 135 C 21.2 132.5 21.6 130.2 22 128.2 C 22.6 124.4 23 121.7 23 121.7 Z " id="Shape" fill="#59402F" stroke-width="1"/>
          <path d="M 71.4 109.9 C 71.4 109.9 69.9 113.6 67.4 119.1 C 66.1 121.8 64.6 125 62.8 128.3 C 61.9 129.9 60.9 131.6 59.7 133.2 C 58.5 134.7 57.1 136.2 55.8 137.7 C 50.5 143.7 45.2 149.8 41.8 154.8 C 40.9 156 40.3 157.3 39.6 158.3 C 39.3 158.8 38.9 159.3 38.7 159.8 C 38.4 160.3 38.6 160.9 38.7 161.3 C 39 162.1 39.3 162.7 39.5 163.2 C 39.7 163.6 39.8 163.8 39.8 163.8 C 39.8 163.8 39.7 163.6 39.5 163.1 C 39.3 162.7 39 162 38.8 161.2 C 38.7 160.8 38.6 160.3 38.9 159.9 C 39.1 159.5 39.5 159 39.9 158.5 C 40.6 157.5 41.3 156.3 42.2 155.1 C 43.9 152.7 46.2 150 48.6 147.1 C 51 144.2 53.7 141.2 56.4 138.2 C 57.7 136.7 59.1 135.2 60.3 133.6 C 61.5 132 62.5 130.3 63.4 128.6 C 64.3 126.9 65.1 125.3 65.9 123.7 C 66.6 122.1 67.3 120.6 67.9 119.3 C 69.1 116.5 70 114.2 70.6 112.5 C 71.1 110.8 71.4 109.9 71.4 109.9 Z " id="Shape" fill="#59402F" stroke-width="1"/>
        </g>
        <g id="Group">
          <path d="M 35 170.1 C 35 170.1 35 169.8 35 169.3 C 34.9 168.8 34.7 168.2 34.3 167.6 C 33.9 167 33.4 166.6 33 166.3 C 32.6 166 32.3 165.9 32.3 165.9 C 32.3 165.9 32.3 166 32.4 166.1 C 32.5 166.2 32.6 166.4 32.7 166.6 C 33 167 33.4 167.5 33.7 168 C 34 168.5 34.4 169 34.6 169.4 C 34.8 169.8 35 170.1 35 170.1 Z " id="Shape" fill="#59402F" stroke-width="1"/>
          <path d="M 40.6 170 C 40.6 170 40.6 169.6 40.4 169.1 C 40.2 168.5 39.9 167.8 39.4 167.2 C 39.1 166.9 38.9 166.6 38.6 166.4 C 38.3 166.2 38 166 37.8 165.9 C 37.5 165.8 37.3 165.7 37.1 165.6 C 36.9 165.6 36.8 165.5 36.8 165.5 C 36.8 165.5 36.9 165.6 37 165.7 C 37.1 165.8 37.3 166 37.5 166.2 C 37.9 166.6 38.4 167.1 38.9 167.7 C 39.4 168.3 39.8 168.8 40.1 169.3 C 40.4 169.7 40.6 170 40.6 170 Z " id="Shape" fill="#59402F" stroke-width="1"/>
          <path d="M 34 171.4 C 34 170.8 33.2 168.1 32 168.1 C 30.9 168.1 31.6 169.2 32.1 170 C 32.7 170.7 34 171.8 34 171.4 Z " id="Shape" fill="#6C5F57" stroke-width="1"/>
          <path d="M 39.5 171 C 39.5 170.4 38.7 167.7 37.5 167.7 C 36.4 167.7 37.1 168.8 37.6 169.6 C 38.1 170.4 39.5 171.4 39.5 171 Z " id="Shape" fill="#6C5F57" stroke-width="1"/>
          <path d="M 43 170.8 C 43 170.2 42.2 167.5 41 167.5 C 39.9 167.5 40.6 168.6 41.1 169.4 C 41.6 170 43 171.2 43 170.8 Z " id="Shape" fill="#6C5F57" stroke-width="1"/>
        </g>
        <g id="Group">
          <g>
            <path d="M 174.2 23.6 C 194.5 20.8 217.3 32.7 220.4 38.3 C 223.5 43.9 224.1 57.1 224.1 57.1 C 224.1 57.1 244.6 67.8 244.2 72.1 C 243.8 76.4 237.2 86.2 228.9 86.8 C 220.6 87.5 213.5 88.3 203.8 87.8 C 194.1 87.3 176.7 89.4 167.9 79.6 C 167.9 79.6 169.1 83.9 170.8 85.1 C 170.8 85.1 159.4 82.5 162.4 71.6 C 162.4 71.6 160.4 73.4 161 79.1 C 161 79.1 154.9 72.9 158.8 63.9 C 158.8 63.9 156.1 68.8 153.4 68.8 C 153.4 68.8 156 65 155.9 58.5 C 156 52.1 157.2 26 174.2 23.6 Z " id="Shape" fill="#8D674A" stroke-width="1"/>
            <path d="M 177.3 22.7 C 197.7 20.7 217.4 32.6 220.5 38.3 C 223.6 44 224.2 57.1 224.2 57.1 C 224.2 57.1 244.6 67.8 244.2 72.1 C 243.8 76.4 237.2 86.2 228.9 86.8 C 220.6 87.5 212 90.3 202.4 89.7 C 192.8 89.1 176.8 89.5 168 79.7 C 168 79.7 169.2 84 170.9 85.2 C 170.9 85.2 159.5 82.6 162.5 71.7 C 162.5 71.7 160.5 73.5 161.1 79.2 C 161.1 79.2 155 73 158.9 64 C 158.9 64 156.2 68.9 153.5 68.9 C 153.5 68.9 149 53.7 148.9 47.2 C 148.8 40.7 162.9 24.1 177.3 22.7 Z " id="Shape" fill="#8D674A" stroke-width="1"/>
            <path d="M 244.2 72.1 C 243.8 76.1 238.1 84.8 230.6 86.5 C 228.1 85.1 225.3 83.1 225.1 80.4 C 225.1 80.4 209 69.3 224 57.1 C 224.1 57.1 244.6 67.8 244.2 72.1 Z " id="Shape" fill="#9E7B5C" stroke-width="1"/>
            <path d="M 243.3 75.3 C 244.2 73.7 245.6 72.1 244.7 70.7 C 244.2 69.9 243 68.4 242 68.4 C 241 68.4 239.5 71.4 242.5 72.9 C 242.1 74.5 242.7 75 243.3 75.3 Z " id="Shape" fill="#332721" stroke-width="1"/>
            <path d="M 237.9 82.1 C 237.9 82.1 237.4 81.8 236.6 81.4 C 236.2 81.2 235.7 81.1 235.2 80.9 C 234.7 80.8 234.1 80.6 233.5 80.6 C 232.9 80.5 232.3 80.5 231.7 80.5 C 231.1 80.5 230.6 80.6 230.2 80.7 C 229.8 80.8 229.4 80.9 229.2 81 C 229 81.1 228.8 81.2 228.8 81.2 C 228.8 81.2 229 81.2 229.2 81.2 C 229.5 81.2 229.8 81.1 230.2 81.1 C 230.4 81.1 230.6 81.1 230.9 81.1 C 231.1 81.1 231.4 81.1 231.7 81.1 C 232.2 81.1 232.8 81.2 233.4 81.2 C 234.5 81.3 235.7 81.5 236.5 81.7 C 237.3 82 237.9 82.1 237.9 82.1 Z " id="Shape" fill="#59402F" stroke-width="1"/>
            <ellipse id="Oval" fill="#332010" transform="matrix(-0.99578304896693,-0.09173941023423098,-0.09173941023423098,0.99578304896693,248.03475886888384,24.980287517120317)" cx="30.9005707" cy="34.5006037" rx="1.70002894" ry="2.60004426" stroke-width="1"/>
            <path d="M 210.9 49.7 C 210.8 50.8 213.9 51.5 215.3 51.6 C 216.7 51.7 218 51 218.1 49.9 C 218.2 48.8 217.1 47.9 215.7 47.7 C 214.2 47.6 211 48.6 210.9 49.7 Z " id="Shape" fill="#9E7B5C" stroke-width="1"/>
            <path d="M 224.1 57.1 C 224.1 57.1 224.1 56.3 224.1 54.8 C 224 53.4 224 51.3 223.7 48.8 C 223.6 47.6 223.4 46.2 223.1 44.8 C 222.8 43.4 222.5 41.9 221.9 40.5 C 221.6 39.8 221.3 39 220.9 38.3 C 220.4 37.6 220 37 219.4 36.3 C 218.3 35.1 217.1 33.9 215.8 32.9 C 214.5 31.9 213.1 31 211.7 30.2 C 210.3 29.4 208.9 28.6 207.5 28 C 206.1 27.3 204.7 26.8 203.4 26.3 C 202.1 25.8 200.8 25.4 199.6 25 C 198.4 24.6 197.3 24.3 196.3 24.1 C 195.3 23.9 194.5 23.6 193.8 23.5 C 192.4 23.2 191.6 23 191.6 23 C 191.6 23 192.4 23.2 193.8 23.6 C 195.2 24 197.2 24.6 199.5 25.3 C 200.7 25.7 201.9 26.1 203.2 26.7 C 204.5 27.2 205.9 27.8 207.3 28.5 C 208.7 29.2 210.1 29.9 211.5 30.7 C 212.9 31.5 214.2 32.5 215.5 33.4 C 216.8 34.4 218 35.5 219.1 36.7 C 219.6 37.3 220.1 37.9 220.5 38.6 C 220.9 39.3 221.2 40 221.5 40.7 C 222.6 43.6 223.1 46.4 223.4 48.8 C 224 53.8 224.1 57.1 224.1 57.1 Z " id="Shape" fill="#59402F" stroke-width="1"/>
            <path d="M 170.9 85.2 C 170.9 85.2 170.6 85.1 170.2 85 C 169.7 84.9 169.1 84.6 168.3 84.2 C 167.9 84 167.5 83.8 167.1 83.5 C 166.7 83.3 166.3 82.9 165.9 82.6 C 165.5 82.3 165.1 81.9 164.7 81.5 C 164.3 81.1 164 80.7 163.7 80.2 C 163.4 79.8 163.2 79.2 162.9 78.8 C 162.7 78.3 162.6 77.8 162.4 77.3 C 162.3 76.8 162.3 76.3 162.2 75.8 C 162.1 75.3 162.2 74.9 162.2 74.4 C 162.2 74 162.2 73.6 162.3 73.2 C 162.3 72.9 162.4 72.6 162.4 72.3 C 162.5 71.8 162.5 71.5 162.5 71.5 C 162.5 71.5 162.4 71.8 162.3 72.3 C 162.2 72.5 162.1 72.8 162.1 73.2 C 162 73.5 161.9 73.9 161.9 74.4 C 161.9 74.8 161.8 75.3 161.8 75.8 C 161.8 76.3 161.8 76.8 161.9 77.4 C 162 78 162 78.6 162.3 79.1 C 162.5 79.6 162.7 80.2 163.1 80.7 C 163.4 81.2 163.8 81.6 164.2 82.1 C 164.6 82.5 165.1 82.9 165.5 83.2 C 166.4 83.8 167.3 84.3 168.1 84.6 C 169.7 85.1 170.9 85.2 170.9 85.2 Z " id="Shape" fill="#59402F" stroke-width="1"/>
            <path d="M 161.1 79.2 C 161.1 79.2 160.4 78.5 159.6 77.1 C 159.4 76.8 159.2 76.4 159 76 C 158.8 75.6 158.6 75.2 158.5 74.7 C 158.4 74.5 158.3 74.3 158.3 74 C 158.2 73.8 158.2 73.5 158.1 73.3 C 158 72.8 157.9 72.3 157.8 71.8 C 157.7 71.3 157.7 70.8 157.7 70.3 C 157.7 69.8 157.7 69.3 157.8 68.8 C 157.9 68.3 157.9 67.9 158 67.4 C 158.1 67 158.2 66.6 158.3 66.2 C 158.4 65.8 158.5 65.5 158.6 65.2 C 158.7 64.9 158.8 64.6 158.8 64.4 C 158.9 64.2 159 64 159 64 C 159 64 158.9 64.2 158.7 64.6 C 158.6 64.8 158.5 65.1 158.3 65.3 C 158.1 65.6 158 65.9 157.9 66.3 C 157.8 66.7 157.6 67.1 157.5 67.5 C 157.4 67.9 157.3 68.4 157.2 68.9 C 157.2 69.4 157.1 69.9 157.1 70.4 C 157.1 70.9 157.1 71.4 157.2 72 C 157.3 72.5 157.4 73 157.5 73.5 C 157.6 73.7 157.6 74 157.7 74.2 C 157.8 74.4 157.9 74.7 158 74.9 C 158.2 75.4 158.4 75.8 158.6 76.2 C 158.8 76.6 159.1 76.9 159.3 77.3 C 159.8 77.9 160.2 78.4 160.6 78.7 C 160.9 79 161.1 79.2 161.1 79.2 Z " id="Shape" fill="#59402F" stroke-width="1"/>
            <path d="M 153.6 68.9 C 153.6 68.9 153.8 68.7 154 68.4 C 154.2 68 154.6 67.5 154.9 66.8 C 155.2 66.1 155.5 65.3 155.7 64.4 C 155.9 63.5 156.1 62.5 156.2 61.6 C 156.3 61.1 156.3 60.6 156.3 60.1 C 156.3 59.6 156.4 59.1 156.4 58.7 C 156.5 57.8 156.4 56.9 156.4 56.2 C 156.4 55.5 156.3 54.9 156.3 54.4 C 156.3 54 156.2 53.7 156.2 53.7 C 156.2 53.7 156.2 53.9 156.1 54.4 C 156.1 54.8 156 55.4 156 56.2 C 156 56.9 155.9 57.8 155.8 58.7 C 155.7 59.6 155.6 60.6 155.5 61.5 C 155.4 62.5 155.3 63.4 155.1 64.3 C 154.9 65.2 154.7 66 154.5 66.7 C 154.3 67.4 154.1 67.9 153.9 68.3 C 153.7 68.6 153.6 68.9 153.6 68.9 Z " id="Shape" fill="#59402F" stroke-width="1"/>
            <path d="M 180 22.7 C 180 22.7 179.6 22.6 178.9 22.5 C 178.6 22.5 178.1 22.5 177.7 22.5 C 177.2 22.5 176.7 22.6 176.1 22.7 C 175.5 22.8 174.9 22.9 174.2 23.1 C 173.6 23.3 172.9 23.4 172.2 23.7 C 171.5 23.9 170.8 24.2 170.1 24.5 C 169.4 24.8 168.7 25.2 168 25.5 C 167.3 25.8 166.6 26.3 166 26.6 C 165.3 27 164.7 27.4 164.1 27.8 C 162.9 28.6 161.8 29.4 160.9 30.1 C 160.4 30.4 160 30.8 159.7 31.1 C 159.3 31.4 159 31.7 158.8 31.9 C 158.3 32.3 158 32.6 158 32.6 C 158 32.6 158.3 32.4 158.9 32 C 159.2 31.8 159.5 31.6 159.9 31.3 C 160.3 31 160.7 30.7 161.2 30.4 C 161.7 30.1 162.2 29.7 162.8 29.4 C 163.3 29 164 28.7 164.6 28.3 C 165.2 27.9 165.8 27.5 166.5 27.2 C 167.2 26.8 167.8 26.4 168.5 26.1 C 169.2 25.8 169.9 25.4 170.6 25.1 C 171.3 24.8 172 24.5 172.6 24.2 C 173.8 23.6 175 23.2 176.2 23 C 176.8 22.9 177.3 22.8 177.8 22.7 C 178.3 22.6 178.7 22.6 179 22.6 C 179.6 22.6 180 22.7 180 22.7 Z " id="Shape" fill="#59402F" stroke-width="1"/>
          </g>
          <g id="Shape">
            <path d="M 193 25.5 C 193 25.5 191.3 17.3 186.7 16.7 C 182.1 16.1 171.4 20.6 179.5 33.3 " fill="#8D674A" stroke-width="1"/>
            <path d="M 186.5 19.3 C 186.5 19.3 186.1 19.9 185.8 20.8 C 185.6 21.3 185.4 21.8 185.3 22.4 C 185.1 22.9 185 23.6 185 24.3 C 185 24.6 185 25 185 25.3 C 185.1 25.6 185.1 26 185.2 26.3 C 185.3 26.6 185.4 26.9 185.5 27.2 C 185.6 27.5 185.7 27.7 185.9 27.9 C 186.2 28.3 186.4 28.6 186.7 28.8 C 186.9 29 187 29.1 187 29.1 C 187 29.1 186.9 29 186.8 28.7 C 186.7 28.6 186.6 28.4 186.5 28.3 C 186.4 28.1 186.3 27.9 186.2 27.7 C 186.1 27.5 186 27.2 186 27 C 185.9 26.7 185.9 26.5 185.8 26.2 C 185.7 25.9 185.7 25.6 185.7 25.3 C 185.7 25 185.7 24.7 185.7 24.4 C 185.7 23.8 185.8 23.1 185.9 22.6 C 186 22 186.1 21.5 186.2 21 C 186.3 19.9 186.5 19.3 186.5 19.3 Z " fill="#59402F" stroke-width="1"/>
            <g>
              <path d="M 184.2 28.3 C 184.2 28.3 184.2 28.5 184.3 28.6 C 184.4 28.8 184.5 29 184.7 29.2 C 184.9 29.4 185.1 29.6 185.3 29.7 C 185.5 29.8 185.6 29.8 185.6 29.8 C 185.6 29.8 185.6 29.6 185.5 29.5 C 185.4 29.3 185.3 29.1 185.1 28.9 C 184.9 28.7 184.7 28.5 184.5 28.4 C 184.4 28.3 184.2 28.3 184.2 28.3 Z " stroke-width="1" fill="#59402F"/>
              <path d="M 183 29.6 C 183 29.6 183 29.7 183.1 29.9 C 183.2 30.1 183.3 30.2 183.4 30.4 C 183.5 30.5 183.7 30.7 183.9 30.7 C 184.1 30.8 184.2 30.8 184.2 30.8 C 184.2 30.8 184.2 30.7 184.1 30.5 C 184 30.3 183.9 30.2 183.8 30 C 183.7 29.9 183.5 29.7 183.3 29.7 C 183.2 29.6 183 29.6 183 29.6 Z " stroke-width="1" fill="#59402F"/>
            </g>
            <path d="M 180.1 18.4 C 180.1 18.4 180.4 18.3 180.8 18 C 181.3 17.8 182 17.5 182.8 17.3 C 183 17.2 183.2 17.2 183.5 17.1 C 183.7 17.1 184 17 184.2 17 C 184.4 17 184.7 17 185 17 C 185.3 17 185.5 17 185.8 17 C 186.1 17 186.3 17.1 186.6 17.1 C 186.9 17.2 187.1 17.3 187.4 17.3 C 187.7 17.4 187.9 17.5 188.2 17.6 C 188.4 17.7 188.7 17.8 188.9 18 C 189.3 18.4 189.8 18.7 190.1 19.1 C 190.5 19.5 190.8 19.9 191.1 20.4 C 191.3 20.9 191.7 21.3 191.8 21.8 C 192 22.3 192.2 22.7 192.4 23.1 C 192.6 23.5 192.7 23.9 192.8 24.2 C 192.9 24.5 193 24.8 193.1 25.1 C 193.3 25.6 193.4 25.9 193.4 25.9 C 193.4 25.9 193.4 25.6 193.3 25.1 C 193.3 24.8 193.2 24.5 193.1 24.2 C 193 23.8 193 23.4 192.8 23 C 192.7 22.6 192.5 22.1 192.3 21.6 C 192.2 21.1 191.9 20.6 191.6 20.1 C 191.4 19.6 191 19.1 190.6 18.6 C 190.3 18.1 189.7 17.7 189.3 17.3 C 189.1 17.1 188.8 17 188.5 16.8 C 188.2 16.7 188 16.5 187.7 16.4 C 187.4 16.3 187.1 16.2 186.8 16.2 C 186.5 16.2 186.2 16.1 185.9 16.1 C 185.6 16.1 185.3 16.1 185.1 16.1 C 184.8 16.1 184.6 16.1 184.3 16.2 C 184 16.3 183.8 16.3 183.6 16.4 C 183.4 16.5 183.1 16.6 182.9 16.6 C 182.5 16.7 182.1 16.9 181.8 17.1 C 181.2 17.7 181 17.8 180.7 18 C 180.3 18.2 180.1 18.4 180.1 18.4 Z " fill="#59402F" stroke-width="1"/>
          </g>
        </g>
      </g>
    </g>
  </g>
</svg>