<svg version="1.1" xmlns="http://www.w3.org/2000/svg" xmlns:xlink="http://www.w3.org/1999/xlink" width="90.2323" height="250.46704" viewBox="0,0,90.2323,250.46704"><g transform="translate(-195.04613,-51.91148)"><g data-paper-data="{&quot;isPaintingLayer&quot;:true}" fill-rule="nonzero" stroke-miterlimit="10" stroke-dasharray="" stroke-dashoffset="0" style="mix-blend-mode: normal"><g data-paper-data="{&quot;origPos&quot;:null}" stroke="none" stroke-width="0"><path d="M221.23773,184.55528l14.12151,-0.15952c0,0 1.72268,8.5816 0.2309,22.30261c-1.49449,13.74584 -5.00341,26.85392 -6.2947,33.35449c-2.48279,11.73109 -14.53291,9.32134 -14.39998,-2.77761c0,0 -0.63655,-17.67581 0.9387,-34.78123c1.57525,-17.10542 5.40356,-17.93873 5.40356,-17.93873z" data-paper-data="{&quot;origPos&quot;:null,&quot;origRot&quot;:0}" fill="#edc393" stroke-linecap="butt" stroke-linejoin="miter"/><path d="M212.95411,190.87186c1.67811,-16.22423 9.2054,-31.19733 11.51287,-32.3187c0.14616,-0.07324 19.82181,0.18678 19.82181,0.18678c0,0 -0.57353,22.34369 -2.89286,37.68012c-2.31933,15.33643 -3.4802,21.653 -3.4802,21.653c0,0 -7.97364,1.08754 -13.07717,0.67424c-5.17591,-0.41917 -13.26263,-2.80732 -13.26263,-2.80732c0,0 -0.50049,-6.90477 1.37817,-25.06812z" data-paper-data="{&quot;origPos&quot;:null,&quot;origRot&quot;:0}" fill="#aeccdf" stroke-linecap="round" stroke-linejoin="round"/></g><g data-paper-data="{&quot;origPos&quot;:null}" stroke="none" stroke-width="0"><path d="M246.72761,186.0143l13.8474,-2.77345c0,0 3.283,8.11378 4.35954,21.87359c1.07847,13.78473 0.0592,27.31599 -0.00516,33.94327c-0.26604,11.988 -12.554,11.85282 -14.66529,-0.06122c0,0 -3.90084,-17.25176 -5.52246,-34.35284c-1.62162,-17.10108 1.98598,-18.62935 1.98598,-18.62935z" data-paper-data="{&quot;origPos&quot;:null,&quot;origRot&quot;:0}" fill="#edc393" stroke-linecap="butt" stroke-linejoin="miter"/><path d="M257.10318,158.26186c2.28091,1.16485 9.23794,19.06873 10.5409,35.2169c1.72521,21.38111 1.65765,22.01291 1.65765,22.01291c0,0 -7.2525,1.96832 -12.17182,2.39611c-5.35544,0.46572 -14.15598,-0.10662 -14.15598,-0.10662c0,0 -2.32188,-12.28653 -3.49372,-20.27857c-1.17184,-7.99204 -1.37698,-38.70958 -1.37698,-38.70958z" data-paper-data="{&quot;origPos&quot;:null,&quot;index&quot;:null,&quot;origRot&quot;:0}" fill="#aeccdf" stroke-linecap="round" stroke-linejoin="round"/></g><path d="M239.60214,51.91218c19.91965,-0.13264 20.5869,18.88382 21.78604,24.26508c0.89511,4.01692 -0.72214,48.59224 -0.72214,48.59224l-44.55125,0.06623c0,0 0.6592,-40.66755 1.25607,-48.06651c0.59687,-7.39895 2.31161,-24.72441 22.23126,-24.85705z" data-paper-data="{&quot;origPos&quot;:null}" fill="#000000" stroke="none" stroke-width="0" stroke-linecap="round" stroke-linejoin="miter"/><g data-paper-data="{&quot;origPos&quot;:null}" stroke="none" stroke-width="0" stroke-linecap="butt" stroke-linejoin="miter"><path d="M220.16537,135.2143c-1.39844,4.4269 -5.53755,13.31057 -6.54822,16.97809c-1.06439,2.53642 -3.41075,4.72099 -6.49729,3.86271c-3.12518,-0.86903 -3.51063,-3.52594 -3.52707,-5.72782c0.43922,-1.80194 2.06908,-5.83985 2.40777,-7.85947c1.66721,-9.88639 1.77485,-21.03631 9.24472,-29.03702c2.83006,-3.03084 5.0777,-2.82284 7.71869,-3.30199" data-paper-data="{&quot;origPos&quot;:null,&quot;origRot&quot;:0,&quot;index&quot;:null}" fill="#edc393"/><path d="M220.57057,136.72245c-0.63142,1.55466 -1.49222,3.32904 -2.41395,5.15072c-2.56983,-0.8268 -5.21752,-1.63871 -7.68071,-2.51815c-2.16184,-0.77185 -4.49064,-1.8449 -6.91559,-2.8879c1.80976,-8.42595 4.21916,-17.03097 11.59445,-23.43145c3.68433,-3.19703 6.5148,-2.90911 9.86707,-3.35297" data-paper-data="{&quot;origPos&quot;:null,&quot;index&quot;:null}" fill="#ed6027"/></g><g data-paper-data="{&quot;origPos&quot;:null}" stroke="none" stroke-width="0" stroke-linecap="butt" stroke-linejoin="miter"><path d="M257.36054,110.05659c2.64099,0.47914 4.88863,0.27115 7.7187,3.30199c7.46986,8.0007 7.57751,19.15063 9.24472,29.03702c0.33869,2.01961 1.96855,6.05753 2.40777,7.85947c-0.01644,2.20188 -0.4019,4.85878 -3.52707,5.72782c-3.08654,0.85829 -5.43289,-1.3263 -6.49729,-3.86272c-1.01067,-3.6675 -5.14977,-12.55119 -6.54822,-16.97809" data-paper-data="{&quot;origPos&quot;:null,&quot;origRot&quot;:0}" fill="#edc393"/><path d="M255.12518,109.91258c3.35227,0.44387 6.18273,0.15595 9.86707,3.35297c7.37528,6.40047 9.78468,15.0055 11.59445,23.43145c-2.42494,1.043 -4.75375,2.11606 -6.91559,2.8879c-2.4632,0.87944 -5.11087,1.69134 -7.68071,2.51815c-0.92173,-1.82168 -1.78253,-3.59606 -2.41395,-5.15072" data-paper-data="{&quot;origPos&quot;:null,&quot;index&quot;:null}" fill="#ed6027"/></g><g stroke="none" stroke-width="0" stroke-linejoin="miter"><g data-paper-data="{&quot;origPos&quot;:null}" stroke-linecap="butt"><path d="M252.297,109.25801c-4.45767,8.44724 -19.72771,8.81407 -25.98614,0.46279c2.59176,-0.9926 6.21981,-2.43536 6.21981,-2.43536l0.60173,-8.43067l12.26213,-0.19248l0.72589,8.08821c0,0 5.53736,2.17093 6.17658,2.50751z" data-paper-data="{&quot;origPos&quot;:null}" fill="#edc393"/><path d="M233.21909,98.71032l12.26213,-0.19248l0.65577,8.00017c-3.3258,0.04156 -10.93218,-0.28999 -13.36321,-2.34848z" data-paper-data="{&quot;origPos&quot;:null}" fill="#b5875c"/></g><path d="M239.60817,103.9353c-9.92539,0.08637 -14.78922,-8.05856 -16.42447,-16.6926c-2.53025,-0.97787 -4.03681,-5.98058 -3.09233,-7.75696c1.0432,-2.16346 2.41575,-0.32365 2.38044,-0.8557c-0.26279,-7.92505 2.54995,-19.68992 18.34648,-19.85638c12.89653,0.54235 15.02069,13.80961 14.9186,19.59003c0,0 1.18801,-1.03631 2.42265,-0.005c1.32061,2.15791 -0.89216,7.23736 -3.13364,8.11701c-1.13411,9.20898 -5.13576,17.49283 -15.41773,17.45961z" data-paper-data="{&quot;origPos&quot;:null}" fill="#edc393" stroke-linecap="round"/></g><path d="M268.88632,290.82653" data-paper-data="{&quot;origPos&quot;:null,&quot;index&quot;:null}" fill="none" stroke="#000000" stroke-width="1.5" stroke-linecap="round" stroke-linejoin="miter"/><path d="M227.22937,74.70117c2.61373,-1.4154 6.13699,-0.92323 8.14645,0.57306" data-paper-data="{&quot;origPos&quot;:null,&quot;origRot&quot;:0}" fill="none" stroke="#755135" stroke-width="2" stroke-linecap="round" stroke-linejoin="miter"/><path d="M244.05378,75.24089c2.00946,-1.49629 5.53272,-1.98846 8.14645,-0.57306" data-paper-data="{&quot;origPos&quot;:null,&quot;origRot&quot;:0,&quot;index&quot;:null}" fill="none" stroke="#755135" stroke-width="2" stroke-linecap="round" stroke-linejoin="miter"/><path d="M256.01227,70.37473l-5.62135,0.02131l-0.47278,-6.76172l-1.1845,7.02685l-1.7069,-0.01564l-0.70304,-6.66815l-0.76296,6.51526l-12.4118,0.40361l-0.27546,-6.37659l-1.34328,6.03293l-1.75826,0.05867l-0.63373,-5.70396l-0.85273,6.18748l-5.7238,0.11181c0,0 -1.76914,-6.47135 4.56468,-12.95455c6.61124,-4.87403 16.0537,-5.67008 23.56404,-0.86583c6.02729,5.46039 5.32188,12.98851 5.32188,12.98851z" data-paper-data="{&quot;origPos&quot;:null}" fill="#000000" stroke="none" stroke-width="0" stroke-linecap="butt" stroke-linejoin="round"/><g data-paper-data="{&quot;origPos&quot;:null}" fill="none" stroke="#b5875c" stroke-width="1.5" stroke-linecap="round" stroke-linejoin="miter"><path d="M236.89607,86.90596c0,0 1.73594,-0.42465 2.09993,0.45931" data-paper-data="{&quot;origPos&quot;:null}"/><path d="M241.09159,87.39989c0.231,-0.86664 1.71494,-0.64131 1.71494,-0.64131" data-paper-data="{&quot;origPos&quot;:null}"/></g><g data-paper-data="{&quot;origPos&quot;:null}" stroke-linejoin="miter"><path d="M230.39195,81.77169c-2.3536,-0.31644 -3.96274,-1.94401 -3.65459,-3.03927c0.30814,-1.09525 2.41687,-1.24343 4.77048,-0.92699c2.3536,0.31644 4.06092,1.54816 3.75278,2.6434c-0.30814,1.09524 -2.51509,1.63931 -4.86867,1.32286z" data-paper-data="{&quot;origPos&quot;:null,&quot;origRot&quot;:0}" fill="#ffffff" stroke="none" stroke-width="0" stroke-linecap="butt"/><path d="M230.03523,80.1723c-0.11493,-1.505 0.87198,-2.16919 2.41042,-2.13568c3.10599,0.47999 4.04633,3.06572 0.95732,3.71154c-1.70472,0.35162 -3.25484,0.17126 -3.36774,-1.57585z" data-paper-data="{&quot;origPos&quot;:null,&quot;origRot&quot;:0}" fill="#000000" stroke="none" stroke-width="1" stroke-linecap="butt"/><path d="M226.75038,78.30477c2.71763,-0.94267 6.47971,-0.34 8.36434,0.95254" data-paper-data="{&quot;origPos&quot;:null,&quot;origRot&quot;:0}" fill="none" stroke="#000000" stroke-width="1.5" stroke-linecap="round"/></g><g data-paper-data="{&quot;origPos&quot;:null}" stroke-linejoin="miter"><path d="M249.01993,81.61549c-2.32045,0.4504 -4.53008,0.00398 -4.93533,-0.99712c-0.40526,-1.00109 1.14731,-2.17778 3.46776,-2.62818c2.32045,-0.4504 4.69163,-0.34102 5.09688,0.66008c0.40525,1.0011 -1.30887,2.51482 -3.62931,2.96522z" data-paper-data="{&quot;origPos&quot;:null,&quot;origRot&quot;:0}" fill="#ffffff" stroke="none" stroke-width="0" stroke-linecap="butt"/><path d="M249.75209,77.58904c3.17114,-0.10108 3.95921,1.75527 1.57566,3.22594c-1.31841,0.80764 -2.81591,0.8497 -3.5192,-0.61209c-1.08422,-2.25355 0.42762,-2.52251 1.94355,-2.61386z" data-paper-data="{&quot;origPos&quot;:null,&quot;origRot&quot;:0}" fill="#000000" stroke="none" stroke-width="1" stroke-linecap="butt"/><path d="M243.98069,79.45372c2.12125,-1.64512 6.02165,-1.97171 8.36496,-1.31479" data-paper-data="{&quot;origPos&quot;:null,&quot;origRot&quot;:0}" fill="none" stroke="#000000" stroke-width="1.5" stroke-linecap="round"/></g><path d="M219.06182,110.51754c0,0 5.00499,-1.26439 9.52529,-2.25725c2.58126,6.28911 18.9259,6.63563 21.89139,-0.09523c1.3576,0.32211 8.00383,1.76241 10.22903,2.26487c1.00127,0.22089 -0.00201,47.42584 -0.00201,47.42584c0,0 -7.50776,6.26777 -19.95371,6.34414c-11.73639,0.07201 -20.75638,-5.35005 -20.75638,-5.35005z" data-paper-data="{&quot;origPos&quot;:null,&quot;origRot&quot;:0}" fill="#ff7f4c" stroke="none" stroke-width="0" stroke-linecap="butt" stroke-linejoin="miter"/><g stroke-linejoin="miter"><path d="M237.7255,91.87109c0.7527,0.0871 1.45754,0.39462 2.01548,0.8793c0.55971,-0.48587 1.26705,-0.79346 2.02208,-0.8793c1.04943,0.14998 2.06941,0.44632 3.02651,0.8793c0,0 -0.17333,2.73082 -2.1888,3.61012c-1.61168,0.65324 -3.35023,0.7399 -4.96192,0.08666c-1.26238,-0.58375 -2.22991,-1.67609 -2.94646,-2.81748c0,0 2.02207,-1.7586 3.03311,-1.7586z" data-paper-data="{&quot;origPos&quot;:null}" fill="#b5875c" stroke="none" stroke-width="1" stroke-linecap="butt"/><path d="M245.32537,92.86887c-2.8796,1.48714 -7.66786,1.96153 -10.84359,0.15322" data-paper-data="{&quot;origPos&quot;:null,&quot;origRot&quot;:0,&quot;index&quot;:null}" fill="none" stroke="#866143" stroke-width="1.5" stroke-linecap="round"/></g><g stroke-linejoin="miter"><path d="M221.40437,85.78565c0,0 -2.29706,-2.30049 -1.69008,-6.02372c0.27785,-1.70439 2.60347,-1.86377 2.50602,1.30625" data-paper-data="{&quot;origPos&quot;:null}" fill="none" stroke="#ebebeb" stroke-width="1" stroke-linecap="round"/><path d="M220.95287,81.83973c0.02213,-0.72004 0.6238,-1.28581 1.34384,-1.26367c0.72004,0.02213 1.28581,0.6238 1.26368,1.34384c-0.02213,0.72004 -0.6238,1.28581 -1.34384,1.26368c-0.72004,-0.02213 -1.28581,-0.6238 -1.26367,-1.34384z" data-paper-data="{&quot;origPos&quot;:null}" fill="#ffffff" stroke="none" stroke-width="0" stroke-linecap="butt"/></g><g stroke-linejoin="miter"><path d="M218.16785,287.38022c-1.8506,-0.18 -4.70065,-2.13774 -4.70065,-2.13774c0,0 -1.93026,-22.70708 -0.99247,-35.21388c0.34752,-4.63469 1.09029,-8.93057 3.68205,-12.98554c5.74362,-8.98633 13.80142,-3.45236 12.7294,3.63623c-0.4979,8.73296 -6.38637,45.25288 -6.38637,45.25288c0,0 -2.48137,1.62802 -4.33197,1.44804z" data-paper-data="{&quot;origPos&quot;:null,&quot;origRot&quot;:0}" fill="#edc393" stroke="none" stroke-width="0" stroke-linecap="butt"/><g data-paper-data="{&quot;origPos&quot;:null,&quot;origRot&quot;:0,&quot;index&quot;:null}" stroke-linecap="round"><path d="M231.36906,291.39025c2.94508,2.20059 11.98968,1.17009 7.99814,6.52376c-2.72827,3.65928 -7.50982,2.93002 -12.16155,2.28462c-3.93013,-0.54529 -4.29201,-4.61313 -8.25968,-4.64288c-4.20882,-0.03154 -8.19511,0.57108 -10.5937,-2.15857c-0.85262,-0.9703 3.01189,-10.32502 3.01189,-10.32502c0,0 4.24289,2.03831 6.45504,2.09305c2.73495,0.06767 7.04544,-1.28124 7.04544,-1.28124c0,0 3.55934,5.30569 6.50442,7.50628z" data-paper-data="{&quot;origPos&quot;:null}" fill="#ffffff" stroke="none" stroke-width="0"/><path d="M209.77324,296.75765c-2.00891,-1.06096 -1.91001,-1.78921 -1.57702,-3.5276c3.03556,1.89639 2.46643,2.39328 10.56117,1.85593c2.89724,0.28927 4.5324,3.43192 8.15304,4.584c9.6243,1.95982 12.12497,-1.72002 13.49514,-3.18021c-0.032,1.12712 -0.31029,2.29998 -0.81272,2.97387c-2.72827,3.65928 -7.37411,3.08309 -12.02584,2.43769c-6.62145,-1.57659 -5.17571,-4.37643 -9.14339,-4.40617c-4.20882,-0.03154 -5.89817,0.716 -8.65039,-0.73753z" data-paper-data="{&quot;origPos&quot;:null}" fill="#a5a5a5" stroke="none" stroke-width="0"/><path d="M228.50355,293.16342l2.36168,-2.09378" data-paper-data="{&quot;origPos&quot;:null}" fill="none" stroke="#000000" stroke-width="1.5"/><path d="M228.88031,288.9629l-2.23793,2.10123" data-paper-data="{&quot;origPos&quot;:null}" fill="none" stroke="#000000" stroke-width="1.5"/><path d="M227.01916,286.86362l-2.35424,1.97002" data-paper-data="{&quot;origPos&quot;:null}" fill="none" stroke="#000000" stroke-width="1.5"/></g></g><g stroke-linejoin="miter"><path d="M261.59147,287.75498c-1.85628,0.1066 -4.97337,-1.38981 -4.97337,-1.38981c0,0 -5.39758,-22.14055 -6.39333,-34.64285c-0.369,-4.63304 -0.29535,-8.99202 1.64231,-13.39718c4.2941,-9.76238 13.10675,-5.53271 13.13704,1.63641c0.85032,8.70571 0.64525,45.69675 0.64525,45.69675c0,0 -2.20163,1.99009 -4.05792,2.09669z" data-paper-data="{&quot;origPos&quot;:null,&quot;origRot&quot;:0}" fill="#edc393" stroke="none" stroke-width="0" stroke-linecap="butt"/><g data-paper-data="{&quot;origPos&quot;:null,&quot;origRot&quot;:0}" stroke-linecap="round"><path d="M274.25038,291.05879c3.01588,2.10251 12.02167,0.77505 8.2084,6.25711c-2.60642,3.74706 -7.40936,3.17549 -12.07979,2.68346c-3.94594,-0.4157 -4.44145,-4.46944 -8.40794,-4.36865c-4.20759,0.10693 -8.17187,0.84036 -10.65896,-1.80892c-0.88408,-0.94173 2.67061,-10.41852 2.67061,-10.41852c0,0 3.64671,1.6945 7.45034,1.79782c1.26788,0.03444 6.0695,-1.43058 6.0695,-1.43058c0,0 3.73196,5.18576 6.74784,7.28828z" data-paper-data="{&quot;origPos&quot;:null,&quot;index&quot;:null}" fill="#ffffff" stroke="none" stroke-width="0"/><path d="M251.1506,293.6599c3.09631,1.7955 2.54382,2.31085 10.61651,1.5075c2.90519,0.1938 4.64283,3.28097 8.29941,4.31332c9.68357,1.64216 12.06182,-2.11795 13.38323,-3.62242c0.00511,1.12758 -0.23446,2.30896 -0.71446,2.99901c-2.60642,3.74706 -7.26869,3.324 -11.93914,2.83198c-6.66973,-1.35792 -5.31687,-4.2038 -9.28337,-4.10301c-4.20759,0.10693 -5.87146,0.90965 -8.66997,-0.45255c-2.04272,-0.99431 -1.96783,-1.7254 -1.69222,-3.47382z" data-paper-data="{&quot;origPos&quot;:null,&quot;index&quot;:null}" fill="#a5a5a5" stroke="none" stroke-width="0"/><path d="M273.73623,290.75504l-2.29152,2.17032" data-paper-data="{&quot;origPos&quot;:null,&quot;index&quot;:null}" fill="none" stroke="#000000" stroke-width="1.5"/><path d="M271.68312,288.71483l-2.16759,2.17369" data-paper-data="{&quot;origPos&quot;:null,&quot;index&quot;:null}" fill="none" stroke="#000000" stroke-width="1.5"/><path d="M267.46583,288.72426l2.28817,-2.0464" data-paper-data="{&quot;origPos&quot;:null,&quot;index&quot;:null}" fill="none" stroke="#000000" stroke-width="1.5"/></g></g><path d="M284.03608,181.37036c0,0 1.1548,3.12107 1.23429,4.38334c-0.03457,0.4039 0.24753,3.59327 -0.86986,3.42372c-0.99468,-0.03875 -0.64439,-1.36889 -0.9256,-2.51404c-0.27507,-1.12008 -0.99506,-3.37187 -0.99506,-3.37187c0,0 0.48682,2.71693 0.56309,4.33479c-0.15315,1.60439 0.3029,4.81796 -1.09387,4.66405c-1.17055,-0.36606 -0.72714,-3.02692 -0.85684,-3.62599c-0.29586,-1.36654 -0.50882,-3.58446 -0.9994,-3.75597c0.19904,1.38061 0.38452,3.09349 0.42148,4.48048c0.03099,1.16348 -0.08293,3.61878 -0.6382,4.64165c-0.44221,0.81461 -1.35391,0.93713 -1.65137,0.05926c-0.23151,-0.512 0.12737,-3.17734 0.08022,-3.73727c-0.14147,-1.67981 -0.16994,-3.49496 -0.71238,-4.39069c0.09313,1.49931 0.13002,3.51191 -0.06289,5.68831c-0.17971,2.02746 -0.86612,4.94654 -1.65784,4.68196c-2.12149,-0.31088 -0.38601,-3.47895 -0.58061,-5.95797c-0.21817,-2.77926 -0.67887,-3.46798 -1.51433,-6.08401c-0.47957,1.38983 0.16423,3.14835 -0.75314,4.45506c-1.19555,1.35297 -1.76782,0.08407 -1.77068,-0.46003c-0.00387,-1.91575 -0.93025,-5.31559 -0.39923,-7.17215c0.44568,-1.92103 1.06361,-4.39454 1.67824,-6.46434c-0.20352,-2.1347 -4.58792,-14.64013 -5.43017,-21.8757c-0.00583,-0.0505 0.45051,-4.68686 3.84006,-5.34509c3.37662,-0.91061 5.73716,2.32657 6.06748,3.61791c2.61398,5.90807 2.61581,22.04756 2.61581,22.04756z" data-paper-data="{&quot;origPos&quot;:null,&quot;origRot&quot;:0,&quot;index&quot;:null}" fill="#edc393" stroke="none" stroke-width="0" stroke-linecap="butt" stroke-linejoin="miter"/><path d="M200.69927,173.16557c0,0 0.00183,-16.1395 2.61581,-22.04756c0.33033,-1.29133 2.69086,-4.52851 6.06748,-3.61791c3.38955,0.65822 3.84589,5.29458 3.84005,5.34509c-0.84225,7.23557 -5.22665,19.741 -5.43017,21.8757c0.61463,2.0698 1.23255,4.5433 1.67824,6.46434c0.53103,1.85655 -0.39538,5.25639 -0.39923,7.17215c-0.00286,0.5441 -0.57513,1.81301 -1.77067,0.46003c-0.91737,-1.30671 -0.27357,-3.06522 -0.75314,-4.45506c-0.83547,2.61604 -1.29617,3.30475 -1.51433,6.084c-0.1946,2.47902 1.54088,5.6471 -0.58061,5.95797c-0.7917,0.26458 -1.47814,-2.6545 -1.65784,-4.68196c-0.19291,-2.1764 -0.15602,-4.18899 -0.06289,-5.68831c-0.54245,0.89573 -0.57091,2.71087 -0.71237,4.39069c-0.04716,0.55994 0.31174,3.22527 0.08022,3.73728c-0.29746,0.87787 -1.20915,0.75535 -1.65137,-0.05926c-0.55527,-1.02289 -0.6692,-3.47817 -0.63821,-4.64165c0.03696,-1.387 0.22244,-3.09987 0.42148,-4.48048c-0.49057,0.1715 -0.70353,2.38942 -0.9994,3.75597c-0.1297,0.59907 0.31372,3.25993 -0.85684,3.62599c-1.39677,0.1539 -0.94073,-3.05967 -1.09387,-4.66405c0.07626,-1.61787 0.56309,-4.33479 0.56309,-4.33479c0,0 -0.71999,2.2518 -0.99506,3.37187c-0.28123,1.14514 0.06907,2.47529 -0.9256,2.51404c-1.11739,0.16955 -0.83528,-3.01983 -0.86986,-3.42373c0.07949,-1.26226 1.2343,-4.38333 1.2343,-4.38333z" data-paper-data="{&quot;origPos&quot;:null,&quot;origRot&quot;:0,&quot;index&quot;:null}" fill="#edc393" stroke="none" stroke-width="0" stroke-linecap="butt" stroke-linejoin="miter"/></g></g></svg>