<svg xmlns="http://www.w3.org/2000/svg" xmlns:xlink="http://www.w3.org/1999/xlink" width="149.48980712890625" height="159.90725708007812" viewBox="16.686294555664062 6.083000183105469 149.48980712890625 159.90725708007812" version="1.1" xml:space="preserve">
  <defs/>
  <g>
    <title>octopus-d</title>
    <desc>Created with Sketch.</desc>
    <g id="ocean" stroke="none" fill-rule="evenodd">
      <g id="octopus-d" fill-rule="nonzero">
        <g id="head">
          <path d="M 81.5883 81.4008 C 82.3657 77.5789 84.1148 74.081 85.3457 70.3887 C 86.7709 66.1134 87.0948 61.7085 87.8722 57.2389 C 88.7791 51.8623 91.8239 47.9109 93.1196 42.5992 C 95.7109 32.1053 103.3552 27.6356 113.1374 26.5992 C 118.1904 26.081 125.0574 27.5709 128.5557 31.3927 C 136.3296 39.9433 136.5887 51.6032 130.9526 60.5425 C 128.0374 65.1417 120.9113 70.4534 118.3848 75.3117 C 117.0891 77.7085 116.1822 84.3158 113.7204 85.8057 C 113.7204 85.8057 105.6226 88.6559 97.0713 88.6559 C 88.6496 88.6559 81.5883 81.4008 81.5883 81.4008 Z " id="Shape" stroke-width="1" fill="#DC6629"/>
        </g>
        <g id="face">
          <g id="Group">
            <path d="M 90.3987 57.5628 C 86.7061 58.5344 84.1796 50.6316 89.3622 49.8543 C 92.8604 49.336 93.7026 52.3158 93.4435 54.1943 C 93.1196 56.5911 90.3987 57.5628 90.3987 57.5628 Z " id="Shape" fill="#D25D24" stroke-width="1"/>
            <path d="M 90.3987 57.5628 C 87.1596 58.4049 84.6978 51.9919 89.2326 51.1498 C 92.1478 50.6316 93.0548 53.4818 92.8604 55.1012 C 92.6013 56.7854 90.3987 57.5628 90.3987 57.5628 Z " id="Shape" fill="#F2B9A0" stroke-width="1"/>
            <path d="M 90.7226 54.1296 C 90.01 54.3239 89.427 53.2227 89.8157 52.6397 C 88.4552 53.0931 89.3622 55.4251 90.5283 55.166 C 90.5283 55.166 91.3057 54.7126 91.3704 54.0648 C 91.3704 53.9352 91.3704 53.7409 91.3704 53.5466 C 91.3057 53.9352 90.7226 54.1296 90.7226 54.1296 Z " id="Shape" fill="#C95320" stroke-width="1"/>
          </g>
          <g id="Group">
            <path d="M 112.4896 50.8259 C 117.3483 50.2429 119.227 56.3968 114.3035 58.5344 C 109.4448 60.6721 107.6309 51.4737 112.4896 50.8259 Z " id="Shape" fill="#D25D24" stroke-width="1"/>
            <path d="M 112.7487 51.9919 C 115.5991 51.4737 119.227 56.4615 114.3035 58.5992 C 109.4448 60.6721 108.4083 52.7692 112.7487 51.9919 Z " id="Shape" fill="#F2B9A0" stroke-width="1"/>
            <path d="M 114.4978 54.4534 C 114.3683 54.9069 113.85 55.1012 113.85 55.1012 C 113.2022 55.2955 112.6839 54.4534 112.8135 53.8057 C 111.6474 54.3239 112.4896 56.3968 113.5909 56.0729 C 113.5909 56.0729 114.433 55.749 114.4978 55.166 C 114.4978 54.9717 114.4978 54.6478 114.4978 54.4534 Z " id="Shape" fill="#C95320" stroke-width="1"/>
          </g>
          <path d="M 101.4117 69.6113 C 104.5213 70.6478 107.1126 69.3522 107.1126 69.3522 L 106.5296 66.4372 C 106.5296 66.4372 104.5213 67.4089 102.0596 67.085 C 99.5978 66.7611 97.5248 65.919 97.5248 65.919 C 97.5248 65.919 98.3022 68.5101 101.4117 69.6113 Z " id="Shape" fill="#C34A17" stroke-width="1"/>
          <polygon id="Shape" fill="#D25D24" points="6.86695652 4.79352227 1.23086957 2.13765182 2.65608696 0.518218623 6.02478261 1.42510121" stroke-width="1" transform="matrix(1,0,0,1,86.317391,49.40081)"/>
          <polygon id="Shape" fill="#D25D24" points="30.6421739 5.50607287 24.8117391 3.30364372 26.1721739 1.68421053 29.5408696 2.52631579" stroke-width="1" transform="matrix(1,0,0,1,86.317391,49.40081)"/>
        </g>
        <g id="pirate">
          <path d="M 127.1304 61.9676 C 125.8996 60.7368 124.6687 59.4413 123.373 58.3401 C 120.393 55.8138 117.1539 53.5466 113.85 51.4737 C 110.3517 49.2065 106.7239 47.2632 103.0961 45.3198 C 100.0513 43.7004 97.2009 41.8866 93.7026 41.498 C 92.4717 41.3684 92.5365 43.247 93.7026 43.3765 C 96.9417 43.7652 99.5978 45.6437 102.3835 47.1336 C 104.2622 48.17 106.2057 49.2065 108.0843 50.2429 C 107.2422 52.3806 105.3635 58.3401 109.1857 60.6721 C 113.267 63.1336 117.6722 60.2834 120.0691 58.2105 C 121.3 59.1174 122.4661 60.0891 123.5674 61.1903 C 124.4096 62.0324 126.677 63.7166 126.4826 64.9474 C 126.353 66.1781 128.2317 66.1134 128.3613 64.9474 C 128.5557 63.6518 127.9078 62.8097 127.1304 61.9676 Z " id="band" stroke-width="1" fill="#030000"/>
          <g id="hat">
            <path d="M 126.4178 65.8543 C 132.637 67.7328 145.5287 62.2267 151.2296 60.0891 C 156.2826 58.2105 162.6313 51.4089 165.6761 46.8745 C 165.6761 46.8745 162.8904 47.0688 161.3357 47.0688 C 157.967 47.004 154.2743 45.8381 151.2296 44.413 C 146.047 41.9514 143.8443 41.1093 140.1517 33.2065 C 136.4591 25.3036 137.107 22.3239 134.8396 18.1134 C 132.9609 14.6154 123.8913 8.3968 123.8913 8.3968 C 123.8913 8.3968 120.5874 13.3846 117.737 16.4939 C 115.1457 13.3198 117.8017 6.583 117.8017 6.583 C 102.513 9.6923 104.327 18.7611 98.7557 23.8138 C 92.1478 29.9028 80.8757 27.1822 73.7496 21.0931 C 70.1865 26.5344 77.507 37.0931 81.0052 41.0445 C 84.1148 44.5425 86.9004 46.4211 90.593 49.1417 C 95.387 37.0931 100.6343 35.3441 112.2304 39.2308 C 126.4178 43.9595 126.4178 65.8543 126.4178 65.8543 Z " id="Shape" stroke-width="1" fill="#030000"/>
          </g>
        </g>
        <g id="tentacles">
          <path d="M 136.2648 158.8097 C 136.9126 158.2915 137.3013 158.1619 136.9126 157.3198 C 136.5239 156.5425 135.7465 155.247 135.293 154.7935 C 134.9691 154.4696 134.3861 154.9231 133.9974 155.247 C 133.4143 153.6923 133.0257 151.2955 132.7665 148.9636 C 133.6735 148.5749 133.8678 148.1862 133.5439 146.5668 C 133.2848 145.4008 133.9974 145.0769 132.8961 144.3644 C 132.7017 144.2348 132.4426 144.17 132.1835 144.17 C 132.1187 143.8462 132.0539 143.587 132.0539 143.3279 C 131.4709 140.5425 131.147 138.4696 130.9526 136.6559 C 133.1552 136.2672 132.3778 135.1012 132.313 133.6761 C 132.2483 131.9919 132.8313 130.9555 130.4343 131.1498 C 130.1752 129.2065 129.7865 127.1336 128.8148 124.1538 C 131.2117 123.3117 129.8513 121.4332 129.4626 120.332 C 129.0739 119.2308 128.8148 117.2227 126.5474 118.0648 C 125.8348 116.3158 125.1222 114.5668 124.3448 112.8178 C 125.0574 112.2996 125.8348 111.5223 125.77 111.004 C 125.7052 110.5506 125.0574 110.0972 124.4743 108.8664 C 123.8913 107.83 123.0491 105.7571 121.5591 106.664 C 120.7817 105.0445 120.0043 103.4251 119.1622 101.8704 C 121.6887 100.3158 119.9396 99.2146 119.3565 98.3077 C 118.7735 97.4656 118.3848 95.4575 116.7004 97.0121 C 115.8583 95.4575 115.0161 93.9028 114.2387 92.413 C 114.1091 92.2186 113.9796 91.9595 113.9148 91.7652 C 116.1822 90.7935 114.5626 89.498 113.9796 88.3968 C 113.4613 87.3603 113.5261 85.8057 111.7122 86.5182 C 111.1291 85.1579 109.7039 82.502 109.7039 82.502 C 109.7039 82.502 101.4117 80.2348 101.4117 86.3239 C 101.4117 86.3239 106.983 96.2348 108.473 101.1579 C 111.9065 112.3644 117.2835 119.1012 121.6239 129.919 C 124.2152 136.4615 123.5026 147.0202 126.0291 153.5628 C 126.8713 155.7652 128.2317 157.5789 129.8513 159.2632 C 131.0822 160.5587 138.6617 166.1943 139.8278 165.417 C 140.67 164.7692 138.2083 161.4656 136.2648 158.8097 Z " id="Shape" fill="#C44D16" stroke-width="1"/>
          <path d="M 94.4152 70.4534 C 93.9617 68.7692 87.613 69.7409 86.0583 68.834 C 86.0583 68.834 84.5683 72.0729 84.1148 74.1457 C 83.7909 75.6356 83.3374 77.1255 82.8191 78.6802 L 83.2726 76.9312 C 80.4222 75.83 80.9404 77.6437 80.487 78.8745 C 80.0335 80.1053 78.5435 81.7247 81.3291 82.3077 C 81.3939 82.1134 81.5235 81.8543 81.7178 81.5304 C 80.8109 83.4737 79.8391 85.417 78.673 87.1012 C 78.0252 88.0729 77.3126 89.0445 76.5352 90.0162 L 76.6 89.8866 C 74.6565 87.4251 74.1383 89.5628 73.4257 90.4696 C 72.7778 91.247 71.1583 92.2186 72.9074 93.7085 C 71.0935 95.2632 69.0852 96.4939 66.8826 97.2713 C 66.4291 97.4008 65.9109 97.5951 65.4574 97.7247 C 65.3926 96.0405 63.19 96.4292 62.0239 96.4939 C 60.6635 96.6235 59.9509 96.2996 59.4974 96.4939 C 58.9143 96.753 58.72 97.9838 58.72 98.8907 C 56.323 99.085 53.9261 99.2146 51.5291 99.2794 C 51.3996 97.0121 49.4561 97.5304 48.29 97.5951 C 47.1239 97.6599 44.8565 97.1417 44.9861 99.668 C 42.5891 99.9271 39.9978 100.3806 37.4065 101.0931 C 36.6291 98.502 35.8517 99.5385 34.297 100.1862 C 32.9365 100.7692 31.5113 100.5101 32.2239 102.8421 C 29.827 103.8138 27.5596 105.0445 25.6161 106.5344 C 25.357 106.2753 25.0978 106.081 24.9035 106.0162 C 23.6726 105.6275 23.867 106.4049 22.8304 106.9879 C 20.887 108.0891 21.3404 108.4777 21.9235 110.2915 C 20.563 112.0405 19.5913 114.1134 18.9435 116.251 C 18.49 116.1215 17.9717 115.9919 17.8422 116.3158 C 17.583 116.834 17.2591 118.3239 17.1943 119.2308 C 17.1296 120.2024 17.4535 120.1377 18.2957 120.3968 C 18.2957 120.8502 18.2957 121.3036 18.2957 121.6923 C 18.3604 123.5061 18.0365 129.1417 19.5913 127.9757 C 21.1461 126.8745 21.9235 118.7126 23.3487 116.4453 C 26.3287 111.587 29.827 109.9028 35.3335 108.2186 C 46.3465 104.8502 60.793 108.7368 71.7413 104.6559 C 81.3939 101.0283 86.9004 93.3846 90.7874 84.5101 C 91.9535 81.6599 95.2574 73.5628 94.4152 70.4534 Z " id="Shape" fill="#DA6629" stroke-width="1"/>
          <path d="M 91.9535 81.1417 C 91.1113 83.085 90.1396 84.834 89.0383 86.3887 C 87.4835 85.3522 87.2243 86.8421 86.447 87.749 C 85.6696 88.6559 83.9852 89.498 85.3457 90.7935 C 83.3374 92.7368 81.1348 94.4211 78.673 96.0405 C 77.8309 93.8381 76.6 95.4575 75.693 95.9757 C 74.8509 96.4939 73.037 96.753 74.0087 98.6964 C 71.7413 99.8623 69.3443 100.5749 67.0122 101.2874 C 66.4291 99.3441 64.4209 100.5749 63.2548 101.0931 C 62.0239 101.6761 61.2465 101.6761 60.9226 102 C 60.5987 102.3239 60.6635 103.0364 60.793 103.6842 C 60.5987 103.749 60.4691 103.8785 60.2748 103.9433 C 58.2017 105.1741 56.1935 106.7287 54.4443 108.4777 C 52.8896 107.247 51.9178 108.8664 51.1404 109.6437 C 50.2983 110.4858 48.29 111.7166 50.2983 113.5304 C 50.2983 113.5304 49.0674 116.3158 48.4843 118.2591 C 48.1604 119.2955 47.9013 120.332 47.707 121.3684 C 45.9578 121.1741 46.3465 122.2105 46.0874 123.7652 C 45.893 125.2551 44.9213 126.2915 47.2535 126.8745 C 47.2535 129.7895 47.6422 132.7045 48.1604 135.6842 C 47.7717 135.8138 47.383 135.9433 47.1887 136.1377 C 46.2817 137.0445 46.9943 137.2389 46.9943 138.4696 C 46.9943 140.5425 47.4478 140.5425 49.0674 140.8016 C 49.1322 141.3198 49.2617 141.9028 49.3265 142.4211 C 49.8448 145.4008 50.4278 147.2794 50.8165 149.3522 C 50.363 149.2227 49.3265 149.1579 49.197 149.6761 C 49.0674 150.2591 49.2617 151.749 49.3913 152.6559 C 49.5857 153.6923 50.0391 153.3684 51.0757 153.498 C 51.0757 153.7571 51.0757 154.0162 51.0757 154.3401 C 50.8813 159.3927 46.3465 163.6032 49.4561 162.6316 C 52.5657 161.6599 53.9261 159.7166 54.9626 156.8016 C 55.9991 153.6275 56.3878 150.2591 56.3878 147.5385 C 56.2583 142.0972 55.157 137.6923 55.3513 132.251 C 55.6752 123.5061 58.4609 115.668 65.6517 110.5506 C 73.037 105.3684 83.8557 103.0364 90.8522 97.2065 C 93.0548 95.3927 95.5165 92.2834 95.4517 89.498 C 95.3222 86.8421 92.8604 83.668 91.9535 81.1417 Z " id="Shape" fill="#DA6629" stroke-width="1"/>
          <path d="M 104.2622 142.2915 C 104.1326 139.1174 103.7439 135.4899 101.8652 132.7045 C 99.857 129.6599 97.2657 125.9028 94.8039 123.3117 C 92.2774 120.6559 88.7143 117.7409 87.937 113.919 C 86.9652 108.9312 89.2326 103.8785 91.4352 99.7328 C 92.7957 97.1417 97.3304 90.8583 100.5696 86.0648 C 103.4848 81.7895 97.9135 77.5789 92.4717 82.502 C 90.4635 84.3158 88.6496 86.7773 87.0948 89.3684 C 85.7343 88.332 85.2809 90.081 84.6978 90.8583 C 84.1148 91.7004 82.4952 92.7368 84.4387 94.2267 C 83.2726 96.6883 82.3009 99.0202 81.653 101.0283 C 79.1265 100.1215 79.3209 102.7773 79.2561 104.1377 C 79.1913 105.498 78.8674 106.2105 78.997 106.5992 C 79.1265 106.9879 79.7096 107.247 80.3574 107.4413 C 80.2278 110.2267 80.6165 112.9474 81.4587 115.6032 C 80.2926 116.5101 81.1996 117.8704 81.5235 118.8421 C 81.9122 119.8785 82.1713 121.8866 84.1148 121.4332 C 85.54 123.7652 87.4835 125.6437 89.4917 127.4575 C 88.7791 128.4292 89.7509 128.8178 90.6578 129.7895 C 91.6296 130.8259 91.8239 132.1215 93.5083 131.085 C 95.1278 132.7045 96.553 134.3887 97.5896 136.5911 C 97.46 136.6559 97.3304 136.7206 97.2657 136.8502 C 96.4235 137.8219 97.1361 137.9514 97.2657 139.1822 C 97.46 141.1255 97.8487 141.1903 99.2091 141.3198 C 99.6626 143.4575 99.857 145.6599 99.7922 147.8623 C 99.2739 147.7328 98.6261 147.668 98.4965 148.0567 C 98.3022 148.6397 98.1726 150.1296 98.2374 150.9717 C 98.2374 151.8138 98.5613 151.8785 99.2739 151.9433 C 99.0148 153.1093 98.6261 154.2753 98.1078 155.3765 C 97.8487 155.8947 96.3587 159.4575 98.4317 158.9393 C 98.4317 158.9393 102.2539 157.0607 103.5496 152.332 C 104.4565 149.0283 104.3917 145.6599 104.2622 142.2915 Z " id="Shape" fill="#D15A22" stroke-width="1"/>
          <path d="M 99.533 88.1377 C 99.3387 85.3522 94.8039 82.8259 92.407 80.8826 C 92.6661 83.7976 92.3422 86.7773 91.5648 89.6275 C 89.427 89.0445 89.8157 90.664 89.427 91.83 C 89.0383 92.9312 87.8722 94.3563 89.4917 95.004 C 88.2609 97.5304 86.6413 99.9919 84.7626 102.2591 C 83.3374 101.0931 82.8839 102.9069 82.3009 103.6842 C 81.7826 104.332 80.6813 105.1093 81.1996 106.1457 C 78.7378 108.6073 75.9522 110.8097 72.9722 112.753 C 72.3891 110.8745 70.3809 112.1053 69.2148 112.6235 C 67.9839 113.2065 67.2065 113.2065 66.8826 113.5304 C 66.4291 113.9838 66.6883 115.2794 67.0122 116.1215 C 64.0322 117.6113 60.9874 118.7126 58.0074 119.4899 C 57.4891 117.4818 55.74 118.1943 54.6387 118.3887 C 53.5374 118.583 51.3996 118.3887 51.5939 120.5911 C 48.0309 120.9798 44.8565 121.7571 42.1357 122.7935 C 41.3583 120.7206 40.5809 121.6923 39.0909 122.3401 C 37.7304 122.9879 36.2404 122.664 37.1474 125.2551 C 34.3617 127.004 32.2239 129.1417 30.7987 131.4089 C 30.4748 131.2794 30.1509 131.2146 29.8917 131.2794 C 28.5961 131.4737 29.1143 132.0567 28.4017 133.0283 C 27.1061 134.8421 27.6243 135.0364 28.8552 136.332 C 28.4665 138.5992 28.6609 140.9312 29.5678 143.0688 C 29.7622 143.5223 29.9565 143.9757 30.0861 144.4292 C 29.5678 144.3644 28.7904 144.3644 28.6609 144.8178 C 28.5313 145.4008 28.7257 146.8907 28.8552 147.7976 C 29.0496 148.9636 29.5678 148.4453 30.993 148.7045 L 31.1226 148.3806 C 31.9 153.1741 29.8917 154.7935 29.9565 156.6721 C 30.0213 159.2632 36.3052 154.3401 36.6291 149.3522 C 36.953 144.4939 34.2322 139.0526 37.1474 134.6478 C 43.82 124.6073 55.9991 131.9919 74.3326 120.915 C 82.9487 115.7328 90.7226 108.2834 95.387 99.8623 C 96.7474 97.6599 99.7274 90.664 99.533 88.1377 Z " id="Shape" fill="#C44D16" stroke-width="1"/>
          <path d="M 156.2178 152.915 C 156.9952 152.5911 157.3839 152.5911 157.2543 151.6842 C 157.1248 150.7773 156.7361 149.3522 156.4122 148.834 C 156.2178 148.5101 155.8291 148.6397 155.3757 148.7692 C 155.1165 146.4372 154.987 144.1053 154.9222 141.8381 C 156.0883 141.4494 156.477 141.2551 156.2826 139.3765 C 156.153 138.1457 156.8657 137.8866 155.8291 137.1093 C 155.57 136.915 155.1813 136.8502 154.7278 136.7854 C 154.5983 134.2591 154.4687 131.7976 154.1448 129.336 C 155.8291 128.753 155.0517 127.7166 154.9222 126.4211 C 154.7278 124.8016 155.2461 123.7004 153.0435 124.0243 C 152.7843 123.1174 152.4604 122.2105 152.1365 121.3684 C 151.4887 119.8138 150.9057 118.1943 150.2578 116.6397 C 152.3309 115.4089 150.7761 113.7895 150.2578 112.8178 C 149.7396 111.8462 149.2213 109.9676 147.3426 110.8097 C 147.0187 110.2915 146.63 109.7733 146.3061 109.2551 C 145.14 107.7004 143.9091 106.2105 142.5487 104.7854 C 143.067 104.0729 143.5852 103.166 143.3261 102.7126 C 143.1317 102.3239 142.4191 102 141.4474 101.0283 C 140.5404 100.1215 138.9857 98.1134 137.69 100.1215 C 136.0057 98.5668 134.1917 97.1417 132.4426 95.6518 C 133.2848 94.0972 131.73 93.5789 131.0174 92.996 C 130.24 92.3482 129.3978 90.7287 128.2965 92.2186 C 126.6122 90.7935 124.9926 89.4332 123.5026 87.8785 C 125.2517 86.583 123.5026 85.6113 122.7252 84.6397 C 121.9478 83.668 121.8183 81.919 119.7452 83.5385 C 118.4496 81.7247 116.6357 78.4211 116.6357 76.1538 C 116.6357 76.1538 108.3435 74.5992 109.2504 82.6316 C 110.1574 90.664 116.9596 98.3725 124.5391 102.583 C 129.4626 105.3036 134.9043 107.4413 139.18 111.1984 C 145.0752 116.3158 147.2778 122.3401 148.2496 129.8543 C 149.1565 136.7206 147.7313 144.3644 150.3874 150.9069 C 151.4239 153.3684 155.3757 160.4291 159.0035 158.4858 C 158.2909 156.3482 156.9952 154.8583 156.2178 152.915 Z " id="Shape" fill="#DC6629" stroke-width="1"/>
          <g id="Group">
            <path d="M 124.3448 80.2996 C 120.1987 85.8057 119.6804 108.8016 113.4613 107.8947 C 109.8335 107.3765 109.3152 81.1417 109.3152 81.1417 C 109.3152 81.1417 99.4683 74.7935 96.4883 82.502 C 96.4883 82.502 97.46 95.3279 100.44 105.9514 C 99.9865 106.081 99.7274 106.4696 99.7274 107.3117 C 99.857 109.3198 100.1161 111.3279 101.8004 111.3279 C 101.93 111.3279 102.0596 111.2632 102.1891 111.1984 C 103.0961 113.4656 104.1326 115.4089 105.2987 116.834 C 110.0278 122.7287 119.0974 121.6275 123.2435 115.1498 C 129.1387 106.0162 124.5391 93.7733 130.1752 84.1215 C 135.0339 75.83 136.783 80.5587 140.4109 80.2348 C 146.6948 79.7814 133.803 67.7976 124.3448 80.2996 Z " id="Shape" fill="#DC6629" stroke-width="1"/>
            <g id="Shape">
              <path d="M 131.4061 83.2794 C 132.1835 82.7611 133.1552 81.2065 132.9609 80.17 C 132.9609 80.17 132.8313 79.9757 132.637 79.7814 C 131.6652 78.8097 129.1387 81.7895 129.5274 83.0202 C 129.657 83.4089 129.9809 83.668 130.1752 83.7976 C 130.4991 84.0567 130.7583 83.668 131.4061 83.2794 Z " fill="#E58961" stroke-width="1"/>
              <path d="M 131.6652 83.6032 C 132.637 82.9555 133.803 81.0121 132.8313 80.0405 C 131.8596 79.0688 129.5274 82.0486 129.8513 83.1498 C 130.1752 84.251 130.6935 84.251 131.6652 83.6032 Z " fill="#ED996D" stroke-width="1"/>
              <path d="M 131.6004 82.8259 C 132.1187 82.502 132.7665 81.4008 132.2483 80.8826 C 131.73 80.3644 130.4343 81.9838 130.6287 82.5668 C 130.823 83.1498 131.0822 83.2146 131.6004 82.8259 Z " fill="#DC6629" stroke-width="1"/>
            </g>
            <g id="Shape">
              <path d="M 128.5557 94.2915 C 129.1387 93.1903 129.333 90.7287 128.167 89.9514 C 128.167 89.9514 127.843 89.8866 127.6487 89.8219 C 126.0291 89.3684 125.3813 93.9676 126.353 94.8745 C 126.7417 95.1984 127.6487 95.3927 127.6487 95.3927 C 128.167 95.5223 128.167 95.0688 128.5557 94.2915 Z " fill="#E58961" stroke-width="1"/>
              <path d="M 129.0091 94.4211 C 129.657 93.1903 129.7217 90.4049 128.1022 89.9514 C 126.4826 89.498 125.8996 93.9676 126.8713 94.9393 C 127.843 95.9109 128.4261 95.6518 129.0091 94.4211 Z " fill="#ED996D" stroke-width="1"/>
              <path d="M 128.5557 93.6437 C 128.8796 92.996 128.9443 91.4413 128.0374 91.1822 C 127.1304 90.9231 126.8065 93.3846 127.3248 93.9028 C 127.9078 94.4858 128.167 94.3563 128.5557 93.6437 Z " fill="#DC6629" stroke-width="1"/>
            </g>
            <g id="Shape">
              <path d="M 127.0009 107.1822 C 127.5839 106.081 127.7783 103.4899 126.5474 102.7126 C 126.4178 102.6478 126.2235 102.6478 126.0291 102.6478 C 124.3448 102.5182 123.8913 106.664 124.863 107.6356 C 125.3165 108.0891 125.8996 108.3482 126.2235 108.2186 C 126.5474 108.1538 126.677 107.7652 127.0009 107.1822 Z " fill="#E58961" stroke-width="1"/>
              <path d="M 127.3896 107.1822 C 128.0374 105.9514 128.167 103.2308 126.6122 102.7126 C 124.9926 102.1943 124.28 106.7287 125.2517 107.6356 C 126.1587 108.5425 126.7417 108.3482 127.3896 107.1822 Z " fill="#ED996D" stroke-width="1"/>
              <path d="M 126.8713 106.4049 C 127.26 105.7571 127.3248 104.2024 126.4178 103.9433 C 125.5109 103.6842 125.1222 106.1457 125.6404 106.664 C 126.1587 107.1822 126.5474 107.0526 126.8713 106.4049 Z " fill="#DC6629" stroke-width="1"/>
            </g>
            <g id="Shape">
              <path d="M 120.1987 118.9069 C 121.3648 118.4534 123.1139 116.5101 122.7252 115.1498 C 122.6604 115.0202 122.5957 114.8907 122.4661 114.8259 C 121.3648 113.7895 118.1257 116.5101 118.2552 117.8704 C 118.32 118.4534 118.6439 118.9717 118.903 119.166 C 119.227 119.4899 119.4861 119.2308 120.1987 118.9069 Z " fill="#E58961" stroke-width="1"/>
              <path d="M 120.5226 119.1012 C 121.8183 118.583 123.697 116.5749 122.79 115.1498 C 121.883 113.7247 118.4496 116.7045 118.5791 118.0648 C 118.7087 119.4251 119.227 119.6194 120.5226 119.1012 Z " fill="#ED996D" stroke-width="1"/>
              <path d="M 120.6522 118.1943 C 121.3648 117.9352 122.4013 116.7692 121.883 116.0567 C 121.3648 115.2794 119.4861 116.8988 119.5509 117.6761 C 119.6157 118.3887 119.9396 118.4534 120.6522 118.1943 Z " fill="#DC6629" stroke-width="1"/>
            </g>
            <g id="Shape">
              <path d="M 106.0761 118.8421 C 107.0478 119.8785 109.6391 120.7854 110.5461 119.4251 C 111.5178 118.0648 107.4365 115.9919 106.2704 116.6397 C 105.5578 117.0283 105.1691 117.4818 105.2339 117.9352 C 105.2987 118.2591 105.6874 118.4534 106.0761 118.8421 Z " fill="#E58961" stroke-width="1"/>
              <path d="M 105.9465 119.1012 C 106.9183 120.1377 109.5096 121.0445 110.4165 119.6842 C 111.3883 118.3239 107.307 116.251 106.1409 116.8988 C 104.9748 117.5466 104.9748 118.1296 105.9465 119.1012 Z " fill="#ED996D" stroke-width="1"/>
              <path d="M 106.7887 118.9069 C 107.307 119.4899 108.7322 120.0081 109.2504 119.2308 C 109.7687 118.4534 107.5661 117.3522 106.9183 117.6761 C 106.2704 118 106.2704 118.3239 106.7887 118.9069 Z " fill="#DC6629" stroke-width="1"/>
            </g>
          </g>
          <g id="Group">
            <path d="M 94.9983 92.996 C 96.0996 90.3401 100.44 82.502 100.44 82.502 C 99.9217 80.17 96.7474 76.6721 95.1926 74.9231 C 94.4152 73.9514 92.0183 71.8138 90.6578 72.7206 C 90.3339 72.915 89.7509 75.0526 89.4917 75.5709 C 87.5483 79.0688 86.3822 83.2794 85.0217 87.1012 C 83.7261 90.664 80.8109 99.8623 75.8874 99.5385 C 72.9722 99.3441 72.6483 95.587 72.9074 93.3846 C 73.5552 86.7126 76.3409 79.7814 78.7378 73.5628 C 79.5152 71.4899 81.9122 64.9474 81.9122 60.1538 C 81.9122 56.7206 78.0252 53.0283 76.7296 54.8421 C 75.3691 56.7206 77.3126 60.413 76.5352 62.6802 C 74.9804 67.2146 71.3526 72.3968 68.9557 76.5425 C 65.9109 81.7895 63.7083 87.1012 62.8013 93.1255 C 61.5057 101.4818 64.6152 115.2794 76.0817 112.4939 C 78.8026 111.8462 81.4587 110.2915 83.7909 108.3482 C 85.0865 109.1903 86.447 107.7652 87.7426 106.2105 C 88.3257 105.4332 88.2609 104.8502 87.7426 104.5263 C 89.6861 102.3239 91.3057 99.9919 92.6013 97.8543 C 94.0265 98.1134 95.1278 95.9109 95.3222 94.6154 C 95.387 93.7085 95.3222 93.1903 94.9983 92.996 Z " id="Shape" fill="#DC6629" stroke-width="1"/>
            <g id="Shape">
              <path d="M 74.9804 65.4656 C 75.0452 64.3644 76.1465 62.4211 77.3126 62.0324 C 77.3126 62.0324 77.5717 62.0324 77.8957 62.1619 C 79.5152 62.6154 77.8309 67.0202 76.2761 67.2794 C 75.7578 67.3441 75.3043 67.1498 75.11 67.0202 C 74.7213 66.7611 74.9157 66.3077 74.9804 65.4656 Z " fill="#E58961" stroke-width="1"/>
              <path d="M 74.527 65.336 C 74.6565 63.9757 76.017 61.5789 77.6365 62.0324 C 79.2561 62.4858 77.4422 66.6316 76.0817 66.8907 C 74.7213 67.2146 74.3974 66.6964 74.527 65.336 Z " fill="#ED996D" stroke-width="1"/>
              <path d="M 75.3043 64.9474 C 75.3691 64.17 76.1465 62.8745 76.9887 63.1336 C 77.8957 63.3927 76.8591 65.6599 76.1465 65.7895 C 75.4339 65.9838 75.3043 65.7247 75.3043 64.9474 Z " fill="#DC6629" stroke-width="1"/>
            </g>
            <g id="Shape">
              <path d="M 68.6965 76.9312 C 68.6317 75.6356 69.5387 73.3684 70.9639 73.2389 C 70.9639 73.2389 71.3526 73.3036 71.4822 73.3684 C 73.1017 73.6923 71.6765 78.0972 70.4457 78.4858 C 69.9922 78.6154 69.0204 78.4211 69.0204 78.4211 C 68.5022 78.2267 68.6965 77.8381 68.6965 76.9312 Z " fill="#E58961" stroke-width="1"/>
              <path d="M 68.1783 76.8664 C 68.1135 75.5061 69.2796 72.9798 70.8991 73.2389 C 72.5187 73.5628 71.1583 77.8381 69.8626 78.2267 C 68.6317 78.6802 68.243 78.2267 68.1783 76.8664 Z " fill="#ED996D" stroke-width="1"/>
              <path d="M 68.9557 76.413 C 68.9557 75.6356 69.5387 74.2753 70.4457 74.4049 C 71.3526 74.5992 70.5752 76.9312 69.8626 77.1255 C 69.2148 77.3846 68.9557 77.1255 68.9557 76.413 Z " fill="#DC6629" stroke-width="1"/>
            </g>
            <g id="Shape">
              <path d="M 63.3843 90.081 C 63.0604 88.8502 63.4491 86.3239 64.8096 85.8704 C 64.9391 85.8057 65.1335 85.9352 65.3278 85.9352 C 67.0122 86.1943 66.4939 90.3401 65.3926 91.0526 C 64.8096 91.3765 64.2265 91.5061 63.9026 91.3117 C 63.6435 91.1174 63.5787 90.7287 63.3843 90.081 Z " fill="#E58961" stroke-width="1"/>
              <path d="M 63.0604 90.0162 C 62.6717 88.6559 63.19 85.9352 64.8096 85.8704 C 66.4939 85.7409 66.17 90.2753 65.0687 90.9879 C 63.9026 91.6356 63.4491 91.3117 63.0604 90.0162 Z " fill="#ED996D" stroke-width="1"/>
              <path d="M 63.7083 89.3684 C 63.5139 88.6559 63.773 87.166 64.68 87.1012 C 65.587 87.0364 65.4574 89.498 64.8096 89.8866 C 64.1617 90.2105 63.9026 90.081 63.7083 89.3684 Z " fill="#DC6629" stroke-width="1"/>
            </g>
            <g id="Shape">
              <path d="M 63.5139 104.6559 C 62.8013 103.6194 62.4774 101.0283 63.6435 100.1215 C 63.773 100.0567 63.9026 100.0567 64.0322 99.9919 C 65.5222 99.7328 66.6235 103.8785 65.7165 104.915 C 65.3278 105.3684 64.7448 105.6275 64.4209 105.6275 C 64.0322 105.6275 63.9674 105.3036 63.5139 104.6559 Z " fill="#E58961" stroke-width="1"/>
              <path d="M 63.19 104.6559 C 62.4126 103.4899 62.0887 100.7692 63.6435 100.1215 C 65.1983 99.5385 66.2996 103.8785 65.3926 104.915 C 64.5504 105.9514 63.9674 105.7571 63.19 104.6559 Z " fill="#ED996D" stroke-width="1"/>
              <path d="M 63.6435 103.8138 C 63.2548 103.166 63.0604 101.6761 63.9026 101.3522 C 64.7448 101.0283 65.3278 103.4251 64.8743 104.0081 C 64.3561 104.5263 64.0322 104.4615 63.6435 103.8138 Z " fill="#DC6629" stroke-width="1"/>
            </g>
            <g id="Shape">
              <path d="M 73.8791 113.336 C 72.5187 113.5951 69.8626 112.8826 69.8626 111.1984 C 69.8626 109.5142 74.3974 110.1619 74.9804 111.3927 C 75.3691 112.1053 75.4339 112.753 75.0452 113.0769 C 74.8509 113.2713 74.3974 113.2713 73.8791 113.336 Z " fill="#E58961" stroke-width="1"/>
              <path d="M 73.8143 113.6599 C 72.4539 113.919 69.7978 113.2065 69.7978 111.5223 C 69.7978 109.8381 74.3326 110.4858 74.9157 111.7166 C 75.4987 112.9474 75.1748 113.4008 73.8143 113.6599 Z " fill="#ED996D" stroke-width="1"/>
              <path d="M 73.2313 112.9474 C 72.5187 113.0769 71.0287 112.6883 71.0287 111.7814 C 71.0287 110.8745 73.4904 111.1984 73.8143 111.9109 C 74.1383 112.5587 73.9439 112.8178 73.2313 112.9474 Z " fill="#DC6629" stroke-width="1"/>
            </g>
          </g>
        </g>
      </g>
    </g>
  </g>
</svg>