<svg xmlns="http://www.w3.org/2000/svg" xmlns:xlink="http://www.w3.org/1999/xlink" width="27.998714447021484" height="81.36307525634766" viewBox="0.5238828659057617 1.4956856966018677 27.998714447021484 81.36307525634766" version="1.1" xml:space="preserve">
  <!-- Generator: Sketch 49.3 (51167) - http://www.bohemiancoding.com/sketch -->
  <defs/>
  <g>
    <title>potion-c</title>
    <desc>Created with Sketch.</desc>
    <g id="potion-c" stroke="none" fill-rule="evenodd">
      <g id="Potion-Tall2" fill-rule="nonzero">
        <path d="M 7.8 9.4 C 7.8 9.4 0.6 6.7 5.6 3.5 C 11.2 0 32.7 2.8 20.1 9.9 C 20.1 9.9 23.9 61.7 27.9 76.2 C 29.3 81.1 18.4 82.7 11 82.3 C 2.1 81.8 0.4 79.3 1.2 76.1 C 2.5 71.3 7.7 19.1 7.8 9.4 Z " id="Shape" fill="#CAE8DE" stroke-width="1"/>
        <path d="M 3.4 77.2 C 6.6 54.7 5.9 33.9 7.9 30 C 9.2 27.4 18 28 20 30.5 C 21.6 32.4 22.5 64.5 25.5 76.8 C 26.5 81.2 2.7 82.2 3.4 77.2 Z " id="Shape" fill="#6136AB" stroke-width="1"/>
        <path d="M 20 30.5 C 18.6 27.8 7.9 27.6 7.7 30.3 C 7.5 31.5 19.9 32.2 20 30.5 Z " id="Shape" fill="#8440CC" stroke-width="1"/>
        <path d="M 13.5 75.1 C 3 75.8 3.1 77.3 3.4 77.8 C 4.9 82 26.2 81.2 25.5 76.9 C 25.5 76.9 25.7 74.3 13.5 75.1 Z " id="Shape" fill="#3D2087" stroke-width="1"/>
        <path d="M 21.4 4.8 C 21.4 5.8 18.4 6.8 13.9 6.8 C 9.4 6.8 6.1 6.4 6.1 5.4 C 6.1 4.4 9.4 3 14 3 C 18.6 3 21.4 3.8 21.4 4.8 Z " id="Shape" fill="#B6CFD1" stroke-width="1"/>
        <path d="M 21.4 4.8 C 21.4 4.8 21.4 4.9 21.4 5 C 21.4 5.1 21.3 5.3 21.1 5.4 C 20.9 5.5 20.7 5.7 20.4 5.8 C 20.1 5.9 19.8 6 19.4 6.1 C 18.7 6.3 17.8 6.4 16.8 6.5 C 15.8 6.6 14.8 6.6 13.8 6.7 C 12.8 6.7 11.8 6.7 10.8 6.6 C 9.8 6.6 9 6.4 8.2 6.3 C 7.5 6.3 6.9 6.1 6.5 5.9 C 6.3 5.8 6.2 5.7 6.1 5.5 C 6 5.4 6.1 5.3 6.1 5.3 C 6.1 5.3 6.1 5.4 6.1 5.5 C 6.2 5.6 6.3 5.7 6.5 5.8 C 7 6 7.6 6.1 8.3 6.1 C 9.1 6.2 10 6.2 10.9 6.2 C 11.8 6.2 12.8 6.2 13.9 6.2 C 14.9 6.2 15.9 6.2 16.9 6.1 C 17.8 6 18.7 6 19.5 5.8 C 20.2 5.7 20.9 5.5 21.2 5.3 C 21.4 5.2 21.5 5.1 21.5 4.9 C 21.5 4.9 21.4 4.8 21.4 4.8 Z " id="Shape" fill="#96B7C4" stroke-width="1"/>
        <path d="M 6 8.7 C 6 8.7 6.4 8.9 6.9 9.1 C 7.5 9.2 8.2 9.5 9 9.7 C 9.4 9.8 9.8 9.9 10.1 9.9 C 10.5 10 10.8 10 11.1 10.1 C 11.4 10.2 11.6 10.2 11.8 10.2 C 12 10.2 12.1 10.3 12.1 10.3 C 12.1 10.3 11.7 10.4 11.1 10.4 C 10.8 10.4 10.4 10.4 10.1 10.4 C 9.7 10.4 9.3 10.3 8.9 10.2 C 8.1 10 7.3 9.6 6.8 9.3 C 6.3 9 6 8.7 6 8.7 Z " id="Shape" fill="#96B7C4" stroke-width="1"/>
        <path d="M 23.9 5.8 C 23.9 5.8 23.9 6.4 23.5 7.2 C 23.3 7.6 23 8.1 22.6 8.5 C 22.2 8.9 21.7 9.3 21.2 9.6 C 20.7 9.9 20.1 10.1 19.6 10.2 C 19.3 10.3 19.1 10.3 18.8 10.3 C 18.5 10.3 18.3 10.3 18.1 10.3 C 17.7 10.4 17.3 10.3 17 10.3 C 16.7 10.3 16.6 10.3 16.6 10.3 C 16.6 10.3 16.7 10.3 17 10.2 C 17.3 10.2 17.6 10.1 18 10.1 C 18.2 10.1 18.4 10 18.7 10 C 18.9 9.9 19.2 9.9 19.4 9.8 C 19.7 9.7 19.9 9.6 20.2 9.5 C 20.5 9.4 20.7 9.3 21 9.1 C 21.2 8.9 21.5 8.8 21.7 8.6 C 21.9 8.4 22.1 8.3 22.3 8.1 C 22.7 7.7 23 7.4 23.2 7 C 23.7 6.4 23.9 5.8 23.9 5.8 Z " id="Shape" fill="#96B7C4" stroke-width="1"/>
        <path d="M 5.7 5.4 C 5.7 5.4 5.6 5.5 5.6 5.8 C 5.6 5.9 5.6 6.1 5.7 6.2 C 5.8 6.4 6 6.5 6.2 6.6 C 6.4 6.8 6.6 6.9 6.8 7 C 7 7.1 7.3 7.1 7.6 7.2 C 8.2 7.3 8.8 7.4 9.4 7.5 C 9.7 7.6 10 7.6 10.3 7.6 C 10.6 7.6 10.9 7.7 11.2 7.7 C 11.8 7.7 12.4 7.8 12.8 7.8 C 13.8 7.9 14.4 7.9 14.4 7.9 C 14.4 7.9 14 8 13 8.1 C 12.5 8.1 11.9 8.1 11.3 8.1 C 11 8.1 10.7 8.1 10.4 8.1 C 10.1 8 9.7 8 9.4 8 C 8.8 7.9 8.1 7.8 7.5 7.6 C 7.2 7.5 6.9 7.4 6.7 7.3 C 6.4 7.2 6.2 7 6 6.9 C 5.8 6.7 5.6 6.5 5.6 6.3 C 5.5 6.1 5.5 5.9 5.5 5.8 C 5.5 5.5 5.7 5.4 5.7 5.4 Z " id="Shape" fill="#FFFFFF" stroke-width="1"/>
        <path d="M 9.4 68.9 C 9.4 68.9 9.5 68.9 9.7 68.9 C 9.9 68.9 10.2 69 10.4 69.2 C 10.5 69.3 10.6 69.5 10.6 69.7 L 10.6 69.9 L 10.6 70 C 10.6 70.1 10.5 70.2 10.5 70.3 C 10.3 70.7 9.9 70.9 9.5 71 C 9.3 71 9 71 8.8 70.9 C 8.6 70.8 8.4 70.6 8.3 70.4 C 8.2 70.2 8.1 69.9 8.2 69.8 C 8.2 69.6 8.3 69.4 8.4 69.2 C 8.7 69 9 68.9 9.1 68.9 C 9.3 68.9 9.4 68.9 9.4 68.9 Z M 9.4 68.9 C 9.4 68.9 9.3 68.9 9.1 69 C 8.9 69.1 8.8 69.3 8.7 69.5 C 8.7 69.6 8.6 69.7 8.6 69.8 C 8.6 70 8.6 70.1 8.7 70.2 C 8.7 70.3 8.8 70.4 9 70.5 C 9.1 70.6 9.3 70.7 9.5 70.7 C 9.7 70.7 9.9 70.7 10 70.6 C 10.1 70.5 10.2 70.3 10.3 70.2 C 10.3 70.1 10.3 69.9 10.3 69.8 C 10.3 69.7 10.2 69.6 10.2 69.4 C 10 69.2 9.8 69 9.7 69 C 9.5 68.9 9.4 68.9 9.4 68.9 Z " id="Shape" fill="#AD9CFF" stroke-width="1"/>
        <path d="M 21.8 66 C 21.8 66 21.8 66.2 21.6 66.5 C 21.5 66.6 21.5 66.6 21.4 66.6 C 21.3 66.6 21.2 66.6 21.1 66.6 C 20.8 66.6 20.6 66.3 20.6 66 C 20.6 65.9 20.7 65.7 20.7 65.6 C 20.8 65.5 20.9 65.4 21 65.4 C 21.2 65.3 21.5 65.4 21.6 65.6 C 21.9 65.8 21.8 66 21.8 66 Z M 21.8 66 C 21.8 65.8 21.7 65.7 21.6 65.7 C 21.5 65.7 21.3 65.7 21.2 65.8 L 21.1 65.9 C 21.1 66 21.1 66 21.1 66.1 C 21.1 66.2 21.1 66.3 21.2 66.4 C 21.2 66.4 21.3 66.5 21.4 66.5 C 21.5 66.5 21.5 66.5 21.6 66.5 C 21.7 66.5 21.8 66.3 21.8 66.3 C 21.8 66.1 21.8 66 21.8 66 Z " id="Shape" fill="#AD9CFF" stroke-width="1"/>
        <path d="M 19.6 66.8 C 19.6 66.8 19.4 66.9 19 67.1 C 18.6 67.3 18 67.5 17.3 67.2 C 16.9 67.1 16.6 66.9 16.3 66.5 C 16.2 66.4 16.2 66.3 16.1 66.2 C 16.1 66.1 16 66 16 65.9 C 15.9 65.7 15.8 65.5 15.8 65.2 C 15.7 64.3 16 63.3 16.8 62.7 C 17.2 62.4 17.7 62.2 18.2 62.1 C 18.7 62.1 19.2 62.2 19.6 62.4 C 20 62.6 20.4 63 20.6 63.4 C 20.8 63.8 20.9 64.2 20.9 64.6 C 20.9 65.4 20.5 65.9 20.2 66.2 C 19.8 66.6 19.6 66.8 19.6 66.8 Z M 19.5 66.7 C 19.5 66.7 19.5 66.7 19.6 66.6 C 19.7 66.5 19.8 66.4 19.9 66.3 C 20.1 66 20.3 65.4 20.2 64.8 C 20.2 64.5 20.1 64.2 19.9 63.9 C 19.7 63.6 19.5 63.3 19.1 63.1 C 18.4 62.7 17.5 62.7 16.8 63.1 C 16.4 63.3 16.1 63.7 16 64.1 C 15.8 64.5 15.8 65 16 65.4 C 16.1 65.8 16.4 66.1 16.6 66.4 C 16.9 66.7 17.1 66.8 17.4 67 C 18 67.3 18.6 67.3 19 67.1 C 19.2 67 19.3 67 19.4 66.9 C 19.5 66.7 19.5 66.7 19.5 66.7 Z " id="Shape" fill="#AD9CFF" stroke-width="1"/>
        <path d="M 15.8 60.4 C 15.8 60.4 15.7 60.5 15.5 60.5 C 15.3 60.6 15 60.7 14.6 60.6 C 14.4 60.5 14.2 60.4 14.1 60.2 C 14.1 60.1 14 60.1 14 60 C 14 60 14 59.9 13.9 59.8 C 13.9 59.7 13.9 59.6 13.9 59.4 C 13.9 58.9 14.1 58.5 14.6 58.1 C 14.8 57.9 15.1 57.8 15.3 57.8 C 15.6 57.8 15.8 57.9 16.1 58 C 16.3 58.1 16.5 58.4 16.6 58.6 C 16.7 58.8 16.7 59.1 16.7 59.3 C 16.6 59.7 16.3 59.9 16.2 60.1 C 15.9 60.4 15.8 60.4 15.8 60.4 Z M 15.8 60.4 C 15.8 60.4 15.9 60.3 16 60.2 C 16.1 60 16.2 59.8 16.2 59.5 C 16.2 59.4 16.1 59.2 16.1 59.1 C 16 58.9 15.9 58.8 15.8 58.7 C 15.7 58.6 15.5 58.5 15.3 58.5 C 15.1 58.5 14.9 58.5 14.7 58.6 C 14.5 58.7 14.3 58.8 14.2 59 C 14.1 59.2 14.1 59.4 14.1 59.6 C 14.1 59.8 14.3 59.9 14.4 60.1 C 14.5 60.2 14.6 60.3 14.7 60.4 C 14.9 60.6 15.2 60.7 15.4 60.6 C 15.7 60.5 15.8 60.4 15.8 60.4 Z " id="Shape" fill="#AD9CFF" stroke-width="1"/>
        <path d="M 12.8 50.5 C 12.8 50.5 12.8 50.8 12.5 51.1 C 12.4 51.2 12.3 51.2 12.2 51.3 C 12.1 51.3 11.9 51.3 11.8 51.3 C 11.5 51.2 11.2 50.9 11.2 50.5 C 11.2 50.3 11.3 50.1 11.4 50 C 11.5 49.9 11.7 49.8 11.8 49.7 C 12.1 49.6 12.4 49.7 12.5 49.9 C 12.8 50.2 12.8 50.5 12.8 50.5 Z M 12.8 50.5 C 12.8 50.5 12.8 50.4 12.8 50.3 C 12.8 50.2 12.7 50 12.5 50 C 12.3 49.9 12.1 49.9 12 50.1 C 11.9 50.2 11.9 50.2 11.8 50.3 C 11.8 50.4 11.7 50.4 11.7 50.5 C 11.7 50.7 11.8 50.8 11.9 51 C 12 51 12.1 51 12.2 51 C 12.3 51 12.4 51 12.5 51 C 12.7 50.9 12.8 50.8 12.8 50.7 C 12.8 50.6 12.8 50.5 12.8 50.5 Z " id="Shape" fill="#AD9CFF" stroke-width="1"/>
        <path d="M 10.2 67.2 C 10.2 67.2 9.9 67.1 9.8 66.7 C 9.8 66.6 9.8 66.5 9.8 66.3 C 9.8 66.2 9.9 66 10 65.9 C 10.2 65.6 10.6 65.6 10.9 65.7 C 11 65.8 11.2 65.9 11.3 66.1 C 11.4 66.3 11.4 66.4 11.4 66.6 C 11.3 66.9 11.1 67.1 10.9 67.2 C 10.5 67.3 10.2 67.1 10.2 67.2 Z M 10.2 67.2 C 10.2 67.2 10.3 67.2 10.4 67.2 C 10.5 67.2 10.7 67.2 10.8 67.1 C 11 67 11 66.8 11 66.6 C 11 66.5 10.9 66.4 10.9 66.4 C 10.8 66.3 10.8 66.3 10.7 66.2 C 10.6 66.1 10.4 66.1 10.2 66.2 C 10.1 66.2 10 66.3 10 66.4 C 10 66.5 9.9 66.6 9.9 66.7 C 9.9 66.9 10 67 10.1 67.1 C 10.2 67.1 10.2 67.2 10.2 67.2 Z " id="Shape" fill="#AD9CFF" stroke-width="1"/>
        <path d="M 9.9 15.2 C 9.9 15.2 9.9 16.1 9.9 17.8 C 9.9 19.4 9.9 21.7 9.8 24.5 C 9.7 27.3 9.6 30.5 9.5 34 C 9.3 37.5 9.1 41.2 8.8 44.9 C 8.5 48.6 8.1 52.3 7.8 55.8 C 7.6 57.5 7.4 59.2 7.2 60.8 C 7 62.4 6.8 63.9 6.6 65.3 C 6.3 68.1 5.9 70.4 5.6 72 C 5.4 73.6 5.2 74.5 5.2 74.5 C 5.2 74.5 5.3 73.6 5.5 72 C 5.7 70.4 5.9 68.1 6.3 65.3 C 6.4 63.9 6.6 62.4 6.8 60.8 C 7 59.2 7.1 57.5 7.3 55.8 C 7.6 52.3 8 48.6 8.2 45 C 8.5 41.3 8.8 37.6 9 34.1 C 9.2 30.6 9.4 27.4 9.5 24.6 C 9.8 18.9 9.9 15.2 9.9 15.2 Z " id="Shape" fill="#FFFFFF" stroke-width="1"/>
        <path d="M 13.5 82.3 C 13.5 82.3 14.3 82.3 15.6 82.1 C 16.9 81.9 18.9 81.7 21.1 81.2 C 22.2 80.9 23.4 80.6 24.6 80 C 25.2 79.7 25.8 79.4 26.3 79 C 26.8 78.6 27.2 78 27.4 77.4 C 27.5 76.8 27.3 76.1 27.1 75.3 C 26.9 74.6 26.7 73.8 26.6 73.1 C 26.3 71.6 26 70.1 25.7 68.5 C 25.2 65.4 24.8 62.3 24.4 59.4 C 24.1 56.5 23.8 53.8 23.6 51.5 C 23.2 46.9 23 43.7 23 43.7 C 23 43.7 23.3 46.8 23.8 51.4 C 24.1 53.7 24.4 56.4 24.8 59.3 C 25.2 62.2 25.6 65.3 26.1 68.3 C 26.4 69.8 26.7 71.4 27 72.8 C 27.1 73.5 27.3 74.3 27.5 75 C 27.6 75.4 27.7 75.7 27.8 76.1 C 27.9 76.5 27.9 76.9 27.8 77.3 C 27.6 78.1 27.1 78.7 26.6 79.2 C 26 79.7 25.4 80 24.8 80.3 C 23.5 80.8 22.3 81.1 21.2 81.4 C 18.9 81.9 17 82 15.6 82.1 C 14.3 82.3 13.5 82.3 13.5 82.3 Z " id="Shape" fill="#96B7C4" stroke-width="1"/>
        <path d="M 14 80.4 C 14 80.4 14.6 80.4 15.7 80.3 C 16.8 80.2 18.3 80 20.1 79.7 C 21 79.5 21.9 79.3 22.9 78.9 C 23.4 78.7 23.9 78.5 24.3 78.2 C 24.7 77.9 25 77.5 25 77 C 24.8 75.9 24.6 74.7 24.4 73.6 C 24.2 72.4 24.1 71.2 23.9 70 C 23.2 65.2 22.7 60.3 22.4 56.7 C 22.1 53.1 22 50.6 22 50.6 C 22 50.6 22.2 53 22.7 56.7 C 23.1 60.3 23.7 65.2 24.4 70 C 24.6 71.2 24.8 72.4 24.9 73.6 C 25 74.2 25.1 74.8 25.2 75.4 C 25.3 76 25.4 76.5 25.5 77.2 C 25.5 77.9 25 78.4 24.6 78.8 C 24.1 79.1 23.6 79.4 23.1 79.6 C 22.1 80 21.1 80.2 20.2 80.3 C 18.4 80.6 16.9 80.7 15.8 80.7 C 14.6 80.4 14 80.4 14 80.4 Z " id="Shape" fill="#1A1D3D" stroke-width="1"/>
        <path d="M 25.5 76.9 C 25.5 76.9 25.5 76.8 25.4 76.7 C 25.3 76.6 25.2 76.5 25 76.4 C 24.8 76.3 24.5 76.2 24.2 76.1 C 23.9 76 23.5 75.9 23.1 75.8 C 22.3 75.6 21.4 75.5 20.3 75.5 C 19.3 75.4 18.2 75.4 17.1 75.4 C 16 75.4 14.9 75.4 13.9 75.4 C 12.9 75.4 11.9 75.5 11.1 75.5 C 9.5 75.6 8.4 75.6 8.4 75.6 C 8.4 75.6 9.5 75.4 11.1 75.2 C 12 75.1 12.9 75 14 75 C 15 75 16.1 74.9 17.2 74.9 C 18.3 74.9 19.4 74.9 20.4 75 C 21.4 75.1 22.4 75.3 23.2 75.5 C 23.6 75.6 24 75.7 24.3 75.9 C 24.6 76 24.9 76.2 25.1 76.3 C 25.3 76.4 25.4 76.6 25.5 76.7 C 25.5 76.8 25.5 76.9 25.5 76.9 Z " id="Shape" fill="#1A1D3D" stroke-width="1"/>
        <path d="M 12.9 75.7 C 12.9 75.7 12.8 75.8 12.6 75.9 C 12.4 76 12 76.2 11.5 76.1 C 11.3 76.1 11 75.9 10.8 75.7 C 10.7 75.6 10.7 75.6 10.7 75.5 C 10.7 75.4 10.6 75.4 10.6 75.3 C 10.5 75.2 10.5 75 10.5 74.9 C 10.4 74.3 10.6 73.7 11 73.2 C 11.2 73 11.5 72.8 11.9 72.7 C 12.2 72.6 12.6 72.7 12.9 72.8 C 13.2 72.9 13.5 73.2 13.6 73.4 C 13.8 73.7 13.8 73.9 13.8 74.2 C 13.8 74.7 13.5 75.1 13.4 75.3 C 13 75.7 12.9 75.7 12.9 75.7 Z M 12.9 75.7 C 12.9 75.7 13 75.6 13.1 75.4 C 13.2 75.2 13.3 74.8 13.2 74.4 C 13.1 74.2 13.1 74 13 73.9 C 12.9 73.7 12.7 73.6 12.5 73.5 C 12.3 73.4 12.1 73.3 11.8 73.3 C 11.5 73.3 11.3 73.4 11.1 73.5 C 10.9 73.6 10.7 73.9 10.6 74.1 C 10.5 74.4 10.5 74.7 10.7 74.9 C 10.8 75.1 11 75.3 11.1 75.5 C 11.3 75.6 11.4 75.7 11.6 75.8 C 12 76 12.3 76 12.6 75.9 C 12.8 75.8 12.9 75.7 12.9 75.7 Z " id="Shape" fill="#AD9CFF" stroke-width="1"/>
        <path d="M 21.9 77.2 C 21.9 77.2 21.7 77.3 21.3 77.5 C 20.9 77.7 20.3 77.9 19.6 77.6 C 19.2 77.5 18.9 77.3 18.6 76.9 C 18.5 76.8 18.5 76.7 18.4 76.6 C 18.4 76.5 18.3 76.4 18.3 76.3 C 18.2 76.1 18.1 75.9 18.1 75.6 C 18 74.7 18.3 73.7 19.1 73.1 C 19.5 72.8 20 72.6 20.5 72.5 C 21 72.5 21.5 72.6 21.9 72.8 C 22.3 73 22.7 73.4 22.9 73.8 C 23.1 74.2 23.2 74.6 23.2 75 C 23.2 75.8 22.8 76.3 22.5 76.6 C 22.1 77.1 21.9 77.2 21.9 77.2 Z M 21.8 77.2 C 21.8 77.2 21.8 77.2 21.9 77.1 C 22 77 22.1 76.9 22.2 76.8 C 22.4 76.5 22.6 75.9 22.5 75.3 C 22.5 75 22.4 74.7 22.2 74.4 C 22 74.1 21.8 73.8 21.4 73.6 C 20.7 73.2 19.8 73.2 19.1 73.6 C 18.7 73.8 18.4 74.2 18.3 74.6 C 18.1 75 18.1 75.5 18.3 75.9 C 18.4 76.3 18.7 76.6 18.9 76.9 C 19.2 77.2 19.4 77.3 19.7 77.5 C 20.3 77.8 20.9 77.8 21.3 77.6 C 21.5 77.5 21.6 77.5 21.7 77.4 C 21.8 77.2 21.8 77.2 21.8 77.2 Z " id="Shape" fill="#AD9CFF" stroke-width="1"/>
      </g>
    </g>
  </g>
</svg>