<svg xmlns="http://www.w3.org/2000/svg" xmlns:xlink="http://www.w3.org/1999/xlink" version="1.1" width="107.14196016213513" height="151.92416383645156" viewBox="-0.22375000427771308 0.19117402125787042 107.14196016213513 151.92416383645156">
  <!-- Exported by Scratch - http://scratch.mit.edu/ -->
  <g id="ID0.7420591493137181">
    <g id="Page-1">
      <g id="batter-b-[baseball,sports,people,alex-eben-meyer]">
        <g id="Right-Arm">
          <path id="Shape" fill="#824600" stroke="none" stroke-width="1" d="M 25.997 44.209 C 25.276 39.826 21.54 38.721 17.844 40.277 C 14.353 41.741 12.604 44.397 13.564 47.116 C 16.363 48.723 18.344 52.519 20.11 55.141 L 26.315 51.396 C 27.536 49.413 26.366 46.455 25.997 44.209 Z "/>
          <path id="Shape" fill="#BE0A3C" stroke="none" stroke-width="1" d="M 29.733 56.178 C 27.757 56.315 20.836 54.365 18.844 54.331 C 19.042 53.927 26.514 50.496 27.138 50.205 C 27.655 50.604 29.676 55.488 29.733 56.178 Z "/>
          <path id="Shape" fill="#6E1E3C" stroke="none" stroke-width="1" d="M 25.73 56.805 C 27.49 55.437 48.309 45.56 50.143 45.235 C 49.008 46.421 45.442 57.563 45.442 57.563 C 45.442 57.563 26.9 57.084 25.73 56.805 Z "/>
        </g>
        <g id="Right-Leg">
          <path id="Shape" fill="#BE0A3C" stroke="none" stroke-width="1" d="M 25.299 84.504 C 25.452 85.039 36.733 125.756 36.733 125.756 L 48.179 125.003 C 48.179 125.003 54.39 85.347 54.39 81.369 L 25.299 84.504 Z "/>
          <path id="Shape" fill="#6E1E3C" stroke="none" stroke-width="1" d="M 48.429 125.756 L 36.319 126.252 C 37.148 129.17 42.598 145.47 43.433 150.759 C 42.155 150.793 39.816 150.884 39.816 150.884 L 39.782 151.568 C 39.782 151.568 46.305 151.739 47.73 151.431 C 48.298 149.79 48.633 131.957 48.429 125.756 Z "/>
          <path id="Shape" fill="#F0E6D2" stroke="none" stroke-width="1" d="M 49.189 127.574 C 49.343 125.921 49.394 123.248 49.559 121.51 L 34.496 121.51 C 34.695 122.581 35.7 125.796 36.268 127.631 L 49.189 127.574 Z "/>
          <path id="Shape" fill="#F0E6D2" stroke="none" stroke-width="1" d="M 49.138 130.481 C 49.184 130.036 49.138 129.512 49.189 129.107 L 36.489 129.198 C 36.591 129.574 36.716 130.013 36.852 130.481 L 49.138 130.481 Z "/>
        </g>
        <g id="Left-Leg">
          <path id="Shape" fill="#F01446" stroke="none" stroke-width="1" d="M 46.584 74.912 L 42.479 74.131 C 41.093 73.111 38.221 73.025 36.58 72.655 C 34.557 72.158 32.591 71.449 30.715 70.54 C 25.923 68.363 19.054 63.986 13.564 64.641 L 16.612 77.055 C 17.748 81.58 18.179 87.371 20.178 91.588 C 21.955 95.327 27.848 98.154 37.778 97.857 C 47.708 97.561 53.675 88.59 53.675 88.59 C 53.675 88.59 47.94 76.052 46.584 74.912 Z "/>
          <path id="Shape" fill="#FFC800" stroke="none" stroke-width="1" d="M 43.296 78.086 C 44.123 78.654 44.995 79.153 45.902 79.579 C 45.902 79.579 42.053 82.811 39.487 83.409 C 35.513 84.327 32.01 82.629 30.051 81.58 C 27.15 80.024 24.373 78.24 21.489 76.65 C 20.74 76.234 18.696 75.658 18.304 74.86 C 17.771 73.772 18.514 74.29 18.304 73.361 C 21.302 72.022 27.15 77.02 29.818 78.138 C 32.01 79.049 35.575 81.415 38.17 81.352 C 39.822 81.312 42.047 79.471 43.296 78.086 Z "/>
          <path id="Shape" fill="#F01446" stroke="none" stroke-width="1" d="M 17.112 70.489 C 16.187 68.819 15.187 65.798 13.564 64.63 C 2.209 67.161 2.447 82.572 7.057 92.614 C 8.25 95.219 13.626 100.815 13.626 100.815 L 25.764 91.605 C 25.764 91.605 17.453 71.105 17.112 70.489 Z "/>
          <path id="Shape" fill="#FFC800" stroke="none" stroke-width="1" d="M 19.707 95.674 C 19.508 96.187 18.509 96.655 18.094 96.917 C 17.447 96.78 15.636 94.603 15.301 94.067 C 14.523 92.887 13.666 91.753 13.03 90.517 C 12.022 88.727 11.377 86.755 11.134 84.715 C 11.1 84.327 11.048 83.945 11.037 83.575 C 10.873 81.488 11.234 79.392 12.087 77.482 C 13.575 73.287 17.861 72.21 20.036 73.236 C 22.034 73.892 22.102 76.61 22.102 76.61 C 22.102 76.61 19.162 75.145 18.032 75.402 C 17.464 75.533 15.295 77.619 14.432 79.893 C 13.569 82.167 14.018 84.623 14.046 85.37 C 14.115 86.969 14.554 88.531 15.329 89.93 C 16.039 91.292 19.661 95.566 19.707 95.674 Z "/>
          <path id="Shape" fill="#6E1E3C" stroke="none" stroke-width="1" d="M 28.455 94.768 C 28.455 94.768 18.003 103.061 16.005 104.457 C 15.568 104.896 33.838 117.988 33.747 119.646 C 32.856 120.883 30.295 122.883 30.034 124.268 L 30.67 124.764 C 31.805 123.373 36.813 117.725 37.602 116.625 C 37.573 116.454 28.455 94.768 28.455 94.768 Z "/>
          <path id="Shape" fill="#F0E6D2" stroke="none" stroke-width="1" d="M 25.702 88.203 C 25.702 88.203 10.708 101.083 10.674 101.157 C 11.423 102.901 15.971 105.802 15.971 105.802 L 29.103 94.529 L 25.702 88.203 Z "/>
          <path id="Shape" fill="#F0E6D2" stroke="none" stroke-width="1" d="M 29.744 95.999 L 17.379 106.919 L 19.088 107.962 L 30.636 97.344 L 29.744 95.999 "/>
        </g>
        <path id="Shape" fill="#BE0A3C" stroke="none" stroke-width="1" d="M 56.99 42.579 C 54.277 43.338 51.621 44.291 49.042 45.429 C 48.275 45.748 34.428 61.045 30.874 65.616 C 30.713 65.772 30.563 65.94 30.426 66.118 C 30.125 66.505 29.75 66.836 29.421 67.206 C 29.061 67.685 28.735 68.188 28.444 68.711 L 53.873 88.191 C 53.873 88.191 57.745 81.17 58.586 78.992 C 59.153 77.539 59.721 76.097 60.289 74.65 L 61.566 71.492 C 61.856 70.774 62.134 70.056 62.435 69.326 C 62.883 68.141 63.321 66.944 63.752 65.747 C 63.803 65.616 64.371 63.997 64.729 62.897 L 64.757 62.897 L 64.757 62.806 C 64.899 62.379 65.007 62.043 65.03 61.951 C 64.933 62.014 65.467 48.632 65.677 43.423 C 65.728 42.163 65.762 41.377 65.762 41.377 C 65.762 41.377 57.91 42.34 56.99 42.579 Z "/>
        <g id="Bat">
          <path id="Shape" fill="#FFC800" stroke="none" stroke-width="1" d="M 105.317 4.354 C 104.577 3.315 103.713 2.372 102.745 1.544 C 102.152 1.035 101.407 0.738 100.627 0.7 C 99.241 0.632 97.863 0.958 96.653 1.641 C 95.137 2.478 93.604 3.265 92.077 4.074 C 91.606 4.319 91.117 4.536 90.675 4.815 C 88.171 6.411 85.485 7.665 82.885 9.095 C 81.182 10.042 1.698 55.557 1.068 56.28 L 2.436 57.46 C 2.873 57.312 95.233 17.206 96.176 16.738 C 99.198 15.278 102.054 13.494 104.692 11.415 C 105.075 11.107 105.413 10.746 105.697 10.344 C 106.781 8.856 106.634 6.103 105.317 4.354 Z "/>
          <path id="Shape" fill="#FFC800" stroke="none" stroke-width="1" d="M 4.707 53.003 C 4.707 52.724 1.42 50.513 0.415 54.405 C 0.23 54.984 0.23 55.605 0.415 56.184 C 0.903 57.466 2.424 60.373 4.911 59.535 C 7.398 58.697 6.614 56.685 6.83 56.446 L 4.707 53.003 Z "/>
        </g>
        <path id="Shape" fill="#642800" stroke="none" stroke-width="1" d="M 27.371 51.237 C 27.065 51.949 21.518 55.944 19.945 55.99 C 19.837 54.884 21.836 50.33 23.283 47.863 C 23.181 47.498 22.744 46.09 22.744 46.09 C 22.744 46.09 18.713 46.535 18.611 44.46 C 18.548 43.086 21.41 42.129 23.431 42.18 C 24.193 42.165 24.915 42.522 25.367 43.138 C 25.786 43.601 26.18 44.086 26.548 44.591 C 27.042 45.805 27.093 50.017 27.371 51.237 Z "/>
        <g id="Left-Arm">
          <path id="Shape" fill="#824600" stroke="none" stroke-width="1" d="M 20.365 56.178 C 20.592 57.392 19.661 58.788 19.355 59.102 C 18.969 59.033 9.51 59.461 9.249 59.358 C 7.891 58.87 6.602 58.205 5.416 57.38 C 3.916 56.324 3.039 54.586 3.077 52.747 C 3.046 51.202 3.684 49.72 4.826 48.683 C 9.936 44.922 12.808 45.332 15.38 46.364 C 16.255 46.552 20.206 55.756 20.365 56.178 Z "/>
          <path id="Shape" fill="#824600" stroke="none" stroke-width="1" d="M 53.834 54.747 C 52.698 54.622 24.021 53.932 23.13 53.978 L 20.859 60.572 C 21.086 60.675 40.469 65.901 49.536 68.038 C 51.033 68.428 52.577 68.603 54.123 68.557 L 53.834 54.747 Z "/>
          <path id="Shape" fill="#F01446" stroke="none" stroke-width="1" d="M 48.378 54.012 C 49.473 51.311 64.121 39.416 67.022 41.713 C 71.757 45.463 65.995 58.526 64.751 62.949 C 61.419 66.311 52.976 69.68 52.976 69.68 C 52.976 69.68 48.747 56.583 48.378 54.012 Z "/>
          <path id="Shape" fill="#F01446" stroke="none" stroke-width="1" d="M 26.502 53.191 C 26.667 54.069 23.806 62.31 23.664 62.533 C 20.672 61.894 16.851 60.971 13.853 59.991 C 14.182 59.512 17.827 53.015 17.827 53.015 C 17.827 53.015 24.095 52.633 26.502 53.191 Z "/>
        </g>
        <g id="Face">
          <path id="Shape" fill="#824600" stroke="none" stroke-width="1" d="M 65.427 18.659 L 35.45 21.018 C 35.484 21.56 41.491 33.996 41.741 34.332 C 42.467 35.324 42.927 36.509 43.875 37.336 C 44.33 37.729 44.778 38.128 45.232 38.516 C 46.054 39.29 47 39.921 48.031 40.379 C 48.781 40.676 49.564 40.904 50.342 41.126 C 51.76 41.557 53.263 41.624 54.714 41.32 C 55.054 41.246 55.401 41.177 55.741 41.086 C 56.945 40.784 58.032 40.13 58.864 39.205 C 60.745 37.133 62.174 34.689 63.059 32.03 C 65.387 24.689 65.603 19.058 65.427 18.659 Z "/>
          <path id="Shape" fill="#642800" stroke="none" stroke-width="1" d="M 48.219 25.23 C 48.752 25.92 49.627 30.497 49.576 31.192 C 48.928 32.212 47.906 32.332 46.794 32.332 C 46.271 32.121 44.523 28.171 44.25 27.556 C 45.272 26.587 46.93 25.84 48.219 25.23 Z "/>
          <path id="Shape" fill="#000000" stroke="none" stroke-width="1" d="M 64.927 22.529 C 67.976 21.873 99.792 26.062 96.369 36.948 C 94.666 42.357 85.383 37.917 81.801 35.951 C 76.464 33.016 64.785 22.951 64.927 22.529 Z "/>
          <path id="Shape" fill="#000000" stroke="none" stroke-width="1" d="M 51.222 29.214 C 52.134 28.043 53.124 26.934 54.186 25.897 C 54.259 26.074 54.333 26.256 54.481 26.598 C 54.186 26.815 53.345 28.308 52.823 28.678 C 53.357 28.633 54.577 28.188 54.856 28.165 C 55.151 28.382 55.111 28.639 54.912 28.998 L 51.994 29.949 C 51.574 29.921 51.222 29.801 51.222 29.214 Z "/>
          <path id="Shape" fill="#000000" stroke="none" stroke-width="1" d="M 50.467 34.874 C 50.768 34.589 50.932 34.332 51.165 34.224 C 52.687 33.446 54.078 32.432 55.287 31.22 L 55.889 31.294 C 55.917 31.522 55.946 31.716 55.974 31.921 L 51.086 35.546 L 50.467 34.874 Z "/>
        </g>
        <g id="Hat">
          <path id="Shape" fill="#BE0A3C" stroke="none" stroke-width="1" d="M 34.786 23.737 C 33.366 26.057 28.541 28.525 32.044 31.437 C 33.446 32.577 36.637 32.999 39.481 32.662 C 41.497 32.429 48.281 29.277 50.206 27.932 C 52.238 26.515 54.071 24.83 55.656 22.922 L 34.786 23.737 Z "/>
          <path id="Shape" fill="#F01446" stroke="none" stroke-width="1" d="M 68.578 17.827 C 67.477 12.127 64.916 8.708 59.994 5.545 C 56.201 3.1 51.756 1.185 47.197 1.396 C 42.218 1.624 37.216 4.764 34.139 8.617 C 30.295 13.427 31.044 19.862 33.298 25.413 C 36.449 25.766 48.627 24.575 54.816 23.999 C 56.519 26.165 57.978 27.801 61.197 28.268 C 69.583 29.482 68.947 19.588 68.578 17.827 Z "/>
          <path id="Shape" fill="#BE0A3C" stroke="none" stroke-width="1" d="M 42.263 14.27 L 43.24 15.376 C 43.717 17.154 43.559 19.044 42.791 20.716 C 41.824 21.543 40.532 21.878 39.288 21.623 C 37.346 20.352 34.309 18.465 35.711 15.61 C 36.784 13.398 40.412 13.131 42.263 14.27 Z "/>
          <path id="Shape" fill="#6E1E3C" stroke="none" stroke-width="1" d="M 64.632 19.702 L 65.643 21.036 C 65.796 22.124 66.21 23.315 65.171 24.421 C 62.986 25.812 58.171 24.991 59.261 21.292 C 60.766 19.263 62.747 18.682 64.632 19.702 Z "/>
        </g>
        <g id="Belt">
          <path id="Shape" fill="#6E1E3C" stroke="none" stroke-width="1" d="M 29.852 66.015 L 27.218 68.756 L 53.964 89.377 L 56.122 86.544 L 29.852 66.015 "/>
          <path id="Rectangle-path" fill="#F01446" stroke="none" stroke-width="1.0000000180921693" d="M 47.5319 79.2254 L 54.3327 84.8196 L 51.0528 88.8069 L 44.252 83.2127 L 47.5319 79.2254 "/>
          <path id="Rectangle-path" fill="#F01446" stroke="none" stroke-width="1.0000000180921693" d="M 39.1236 72.4928 L 41.2065 74.2061 L 37.9266 78.1935 L 35.8437 76.4801 L 39.1236 72.4928 "/>
          <path id="Rectangle-path" fill="#F01446" stroke="none" stroke-width="1.0000000180921693" d="M 31.4037 66.263 L 33.4866 67.9764 L 30.206 71.9645 L 28.1232 70.2511 L 31.4037 66.263 "/>
        </g>
      </g>
    </g>
  </g>
</svg>